<svg xmlns="http://www.w3.org/2000/svg" width="16" height="16" fill="none" class="persona-icon" viewBox="0 0 16 16"><path fill="currentColor" fill-rule="evenodd" d="M3.222 3.722c0-.95.771-1.722 1.722-1.722h6.112c.95 0 1.722.771 1.722 1.722v8.556c0 .95-.771 1.722-1.723 1.722h-6.11a1.72 1.72 0 0 1-1.723-1.722zM4.944 3a.72.72 0 0 0-.722.722v8.556c0 .399.323.722.722.722h6.112a.72.72 0 0 0 .722-.722V3.722A.72.72 0 0 0 11.055 3zm1.334 8.667a.5.5 0 0 1 .5-.5h2.444a.5.5 0 1 1 0 1H6.778a.5.5 0 0 1-.5-.5" clip-rule="evenodd"/></svg>