<svg xmlns="http://www.w3.org/2000/svg" width="20" height="20" fill="none" class="persona-icon" viewBox="0 0 20 20"><path fill="currentColor" fill-rule="evenodd" d="M4.001 4.604c0-1.182.959-2.141 2.142-2.141h7.716c1.183 0 2.142.958 2.142 2.141v10.792a2.14 2.14 0 0 1-2.142 2.141H6.143A2.14 2.14 0 0 1 4 15.396zm2.142-.941a.94.94 0 0 0-.942.941v10.792c0 .52.422.941.942.941h7.716c.52 0 .942-.421.942-.941V4.604a.94.94 0 0 0-.942-.941zm1.683 10.95a.6.6 0 0 0 .6.6h3.15a.6.6 0 1 0 0-1.2h-3.15a.6.6 0 0 0-.6.6" clip-rule="evenodd"/></svg>