<svg xmlns="http://www.w3.org/2000/svg" width="24" height="24" fill="none" class="persona-icon" viewBox="0 0 24 24"><path fill="currentColor" fill-rule="evenodd" d="M4.833 5.583A2.583 2.583 0 0 1 7.417 3h9.166a2.583 2.583 0 0 1 2.584 2.583v12.834A2.583 2.583 0 0 1 16.583 21H7.417a2.583 2.583 0 0 1-2.584-2.583zM7.417 4.5c-.599 0-1.084.485-1.084 1.083v12.834c0 .598.485 1.083 1.084 1.083h9.166c.599 0 1.084-.485 1.084-1.083V5.583c0-.598-.486-1.083-1.084-1.083zm2 13a.75.75 0 0 1 .75-.75h3.666a.75.75 0 0 1 0 1.5h-3.666a.75.75 0 0 1-.75-.75" clip-rule="evenodd"/></svg>