<svg xmlns="http://www.w3.org/2000/svg" width="16" height="16" fill="none" class="persona-icon" viewBox="0 0 16 16"><path fill="currentColor" d="M2 2.667C2 2.299 2.299 2 2.667 2H4c.368 0 .667.299.667.667V4A.667.667 0 0 1 4 4.667H2.667A.667.667 0 0 1 2 4zM11.333 2.667c0-.368.299-.667.667-.667h1.333c.368 0 .667.299.667.667V4a.667.667 0 0 1-.667.667H12A.667.667 0 0 1 11.333 4zM5.944 5.333a.61.61 0 0 0-.61.611v4.112c0 .337.273.61.61.61h4.112a.61.61 0 0 0 .61-.61V5.945a.61.61 0 0 0-.61-.612zM11.333 12c0-.368.299-.667.667-.667h1.333c.368 0 .667.299.667.667v1.333a.667.667 0 0 1-.667.667H12a.667.667 0 0 1-.667-.667zM2 12c0-.368.299-.667.667-.667H4c.368 0 .667.299.667.667v1.333A.667.667 0 0 1 4 14H2.667A.667.667 0 0 1 2 13.333zM6 3c0-.184.15-.333.333-.333H7c.184 0 .333.149.333.333v.667C7.333 3.85 7.184 4 7 4h-.667A.333.333 0 0 1 6 3.667zM6 12.333c0-.184.15-.333.333-.333H7c.184 0 .333.15.333.333V13c0 .184-.149.333-.333.333h-.667A.333.333 0 0 1 6 13zM2.667 6.333C2.667 6.15 2.816 6 3 6h.667C3.85 6 4 6.15 4 6.333V7c0 .184-.15.333-.333.333H3A.333.333 0 0 1 2.667 7zM12 6.333c0-.184.15-.333.333-.333H13c.184 0 .333.15.333.333V7c0 .184-.149.333-.333.333h-.667A.333.333 0 0 1 12 7zM2.667 9c0-.184.149-.333.333-.333h.667C3.85 8.667 4 8.816 4 9v.667c0 .184-.15.333-.333.333H3a.333.333 0 0 1-.333-.333zM8.667 3c0-.184.149-.333.333-.333h.667c.184 0 .333.149.333.333v.667C10 3.85 9.85 4 9.667 4H9a.333.333 0 0 1-.333-.333zM12 9c0-.184.15-.333.333-.333H13c.184 0 .333.149.333.333v.667c0 .184-.149.333-.333.333h-.667A.333.333 0 0 1 12 9.667zM8.667 12.333c0-.184.149-.333.333-.333h.667c.184 0 .333.15.333.333V13c0 .184-.15.333-.333.333H9A.333.333 0 0 1 8.667 13z"/></svg>