<svg xmlns="http://www.w3.org/2000/svg" width="32" height="32" fill="none" class="persona-icon" viewBox="0 0 32 32"><path fill="currentColor" d="M4 5.333C4 4.597 4.597 4 5.333 4H8c.736 0 1.333.597 1.333 1.333V8c0 .736-.597 1.333-1.333 1.333H5.333A1.333 1.333 0 0 1 4 8zM22.667 5.333C22.667 4.597 23.263 4 24 4h2.666C27.403 4 28 4.597 28 5.333V8c0 .736-.597 1.333-1.334 1.333H24A1.333 1.333 0 0 1 22.666 8zM11.889 10.667c-.675 0-1.223.547-1.223 1.222v8.222c0 .675.548 1.222 1.223 1.222h8.222c.675 0 1.222-.547 1.222-1.222V11.89c0-.675-.547-1.222-1.222-1.222zM22.667 24c0-.736.596-1.333 1.333-1.333h2.666c.737 0 1.334.597 1.334 1.333v2.667c0 .736-.597 1.333-1.334 1.333H24a1.333 1.333 0 0 1-1.334-1.333zM4 24c0-.736.597-1.333 1.333-1.333H8c.736 0 1.333.597 1.333 1.333v2.667C9.333 27.403 8.736 28 8 28H5.333A1.333 1.333 0 0 1 4 26.667zM12 6c0-.368.299-.667.667-.667H14c.368 0 .667.299.667.667v1.333A.667.667 0 0 1 14 8h-1.333A.667.667 0 0 1 12 7.333zM12.667 24a.667.667 0 0 0-.667.667V26c0 .368.299.667.667.667H14a.667.667 0 0 0 .667-.667v-1.333A.667.667 0 0 0 14 24zM5.334 12.667c0-.368.298-.667.666-.667h1.334c.368 0 .666.299.666.667V14a.667.667 0 0 1-.667.667H6A.667.667 0 0 1 5.333 14zM24.667 12a.667.667 0 0 0-.667.667V14c0 .368.299.667.667.667H26a.667.667 0 0 0 .667-.667v-1.333A.667.667 0 0 0 26 12zM5.334 18c0-.368.298-.667.666-.667h1.334c.368 0 .666.299.666.667v1.333a.667.667 0 0 1-.667.667H6a.667.667 0 0 1-.667-.667zM18 5.333a.667.667 0 0 0-.666.667v1.333c0 .369.298.667.666.667h1.334A.667.667 0 0 0 20 7.333V6a.667.667 0 0 0-.666-.667zM24 18c0-.368.299-.667.667-.667H26c.368 0 .667.299.667.667v1.333A.667.667 0 0 1 26 20h-1.333a.667.667 0 0 1-.667-.667zM18 24a.667.667 0 0 0-.666.667V26c0 .368.298.667.666.667h1.334A.667.667 0 0 0 20 26v-1.333a.667.667 0 0 0-.666-.667z"/></svg>