<svg xmlns="http://www.w3.org/2000/svg" width="16" height="16" fill="none" class="persona-icon" viewBox="0 0 16 16"><path fill="currentColor" fill-rule="evenodd" d="M2.095 2.147a.5.5 0 0 1 .707 0l11 11a.5.5 0 0 1-.707.707L9.16 9.92v3.175a.5.5 0 0 1-.785.41l-4.168-2.897H2.574C1.704 10.608 1 9.903 1 9.034V6.966c0-.87.705-1.574 1.574-1.574h2.06l-2.54-2.539a.5.5 0 0 1 0-.707m6.798.315a.5.5 0 0 1 .268.443v3.338a.5.5 0 1 1-1 0V3.862l-1.094.76a.5.5 0 0 1-.571-.82l1.88-1.307a.5.5 0 0 1 .517-.033m2.557 1.552a.5.5 0 0 1 .651-.275 4.67 4.67 0 0 1 2.106 1.695c.516.758.793 1.65.793 2.564a4.56 4.56 0 0 1-1.27 3.158.5.5 0 0 1-.724-.69q.207-.217.376-.465c.404-.594.619-1.29.618-2.002 0-.712-.215-1.409-.62-2.002a3.67 3.67 0 0 0-1.655-1.332.5.5 0 0 1-.275-.65m-1.285 1.823a.5.5 0 0 1 .61-.357 2.65 2.65 0 0 1 1.416.929 2.58 2.58 0 0 1 0 3.182.5.5 0 1 1-.788-.616c.22-.28.338-.623.338-.975s-.118-.694-.338-.975a1.65 1.65 0 0 0-.882-.578.5.5 0 0 1-.356-.61m-4.536.55a1 1 0 0 1-.07.005H2.575A.574.574 0 0 0 2 6.966v2.068c0 .317.257.574.574.574h1.79a.5.5 0 0 1 .286.09l3.51 2.44V8.933l.001-.013z" clip-rule="evenodd"/></svg>