<svg xmlns="http://www.w3.org/2000/svg" width="32" height="32" fill="none" class="persona-icon" viewBox="0 0 32 32"><path fill="currentColor" fill-rule="evenodd" d="M4.19 4.293a1 1 0 0 1 1.415 0l22 22a1 1 0 0 1-1.415 1.414l-7.868-7.869v6.351a1 1 0 0 1-1.571.821l-8.336-5.794H5.148A3.148 3.148 0 0 1 2 18.068v-4.136a3.148 3.148 0 0 1 3.148-3.148h4.12L4.19 5.707a1 1 0 0 1 0-1.414m7.068 8.482a1.01 1.01 0 0 1-.138.009H5.148c-.634 0-1.148.514-1.148 1.148v4.136c0 .634.514 1.148 1.148 1.148h3.58a1 1 0 0 1 .571.18l7.023 4.88V17.84zm6.527-7.85a1 1 0 0 1 .537.886v6.676a1 1 0 1 1-2 0V7.724l-2.189 1.521a1 1 0 0 1-1.141-1.642L16.75 4.99a1 1 0 0 1 1.034-.065m2.546 6.748a1 1 0 0 1 1.221-.713 5.301 5.301 0 0 1 2.83 1.857c.712.911 1.1 2.03 1.1 3.183a5.165 5.165 0 0 1-1.1 3.183 1 1 0 1 1-1.575-1.232c.439-.562.675-1.248.675-1.951 0-.703-.236-1.389-.675-1.95a3.302 3.302 0 0 0-1.763-1.155 1 1 0 0 1-.713-1.222M22.9 8.028a1 1 0 0 1 1.302-.55 9.345 9.345 0 0 1 4.211 3.39 9.11 9.11 0 0 1 1.588 5.128 9.11 9.11 0 0 1-1.584 5.13 9.244 9.244 0 0 1-.958 1.186 1 1 0 1 1-1.447-1.381c.275-.288.527-.599.752-.93A7.111 7.111 0 0 0 28 15.998a7.111 7.111 0 0 0-1.24-4.003A7.345 7.345 0 0 0 23.45 9.33a1 1 0 0 1-.55-1.303" clip-rule="evenodd"/></svg>