<svg xmlns="http://www.w3.org/2000/svg" width="16" height="16" fill="none" class="persona-icon" viewBox="0 0 16 16"><path fill="currentColor" fill-rule="evenodd" d="M5.884 1.957A1.25 1.25 0 0 1 7.11 1h1.78c.589 0 1.099.398 1.226.957l.195.85c.015.065.069.14.17.187q.397.186.756.428c.092.062.186.07.253.05l.986-.302a1.27 1.27 0 0 1 1.466.555l.89 1.498a1.2 1.2 0 0 1-.24 1.512l-.805.719a.28.28 0 0 0-.083.23 5.5 5.5 0 0 1-.023.903.28.28 0 0 0 .08.246l.832.741c.434.387.533 1.016.239 1.512l-.89 1.498a1.27 1.27 0 0 1-1.466.555l-1.317-.403a.3.3 0 0 0-.236.038q-.215.125-.442.232c-.101.047-.155.122-.17.187l-.194.85A1.25 1.25 0 0 1 8.89 15H7.11c-.589 0-1.099-.398-1.227-.957l-.194-.85c-.015-.065-.069-.14-.17-.187a6 6 0 0 1-.442-.232.3.3 0 0 0-.236-.038l-1.317.403a1.27 1.27 0 0 1-1.466-.555l-.89-1.498a1.2 1.2 0 0 1 .24-1.512l.83-.74a.28.28 0 0 0 .08-.247 5.5 5.5 0 0 1-.022-.902.28.28 0 0 0-.083-.231l-.806-.719a1.2 1.2 0 0 1-.239-1.512l.89-1.498a1.27 1.27 0 0 1 1.466-.555l.986.302c.067.02.16.012.253-.05q.36-.241.756-.428c.101-.047.155-.122.17-.187zM7.11 2c-.107 0-.2.072-.223.174l-.194.85c-.092.403-.382.709-.727.87a5 5 0 0 0-.62.351 1.35 1.35 0 0 1-1.145.18l-.986-.301a.23.23 0 0 0-.266.1l-.89 1.5a.22.22 0 0 0 .043.274l.806.72c.307.272.436.659.415 1.023a4.6 4.6 0 0 0 .018.741c.042.384-.083.799-.408 1.088l-.83.741a.22.22 0 0 0-.044.275l.89 1.498c.053.09.164.133.266.101l1.317-.403a1.35 1.35 0 0 1 1.072.133q.176.103.362.19c.345.162.635.468.727.871l.194.85A.23.23 0 0 0 7.11 14h1.78c.107 0 .2-.072.223-.174l.194-.85c.092-.403.382-.709.727-.87q.185-.088.362-.19a1.35 1.35 0 0 1 1.072-.134l1.317.403a.23.23 0 0 0 .266-.1l.89-1.499a.22.22 0 0 0-.043-.275l-.831-.74a1.27 1.27 0 0 1-.408-1.089 4.5 4.5 0 0 0 .018-.741c-.02-.364.108-.75.415-1.024l.806-.719a.22.22 0 0 0 .043-.275l-.89-1.498a.23.23 0 0 0-.266-.101l-.986.302a1.35 1.35 0 0 1-1.145-.18 5 5 0 0 0-.62-.351 1.3 1.3 0 0 1-.727-.872l-.194-.849A.23.23 0 0 0 8.89 2zM5.258 8c0 1.473 1.228 2.667 2.742 2.667S10.742 9.473 10.742 8 9.514 5.333 8 5.333 5.258 6.527 5.258 8M8 6.333c.947 0 1.714.747 1.714 1.667S8.947 9.667 8 9.667 6.286 8.92 6.286 8c0-.92.768-1.667 1.714-1.667" clip-rule="evenodd"/></svg>