<svg xmlns="http://www.w3.org/2000/svg" width="20" height="20" fill="none" class="persona-icon" viewBox="0 0 20 20"><path fill="currentColor" fill-rule="evenodd" d="M7.565 3.109A1.447 1.447 0 0 1 8.986 2h2.028c.682 0 1.273.46 1.42 1.108l.222.969c.015.067.072.147.18.198.303.142.592.305.866.489.1.067.2.075.268.054l1.124-.344c.65-.199 1.356.068 1.697.643l1.014 1.707a1.388 1.388 0 0 1-.277 1.751l-.918.82a.3.3 0 0 0-.087.245 6.34 6.34 0 0 1-.026 1.031c-.013.122.03.213.085.262l.946.844c.503.449.618 1.177.277 1.751l-1.014 1.708a1.474 1.474 0 0 1-1.697.642l-1.5-.459a.321.321 0 0 0-.251.041 6.576 6.576 0 0 1-.506.265c-.11.051-.166.131-.181.198l-.221.969A1.447 1.447 0 0 1 11.014 18H8.986c-.682 0-1.273-.46-1.42-1.108l-.222-.969c-.015-.067-.072-.147-.18-.198a6.576 6.576 0 0 1-.507-.265.321.321 0 0 0-.25-.041l-1.5.46c-.651.199-1.357-.069-1.698-.643l-1.014-1.708a1.388 1.388 0 0 1 .277-1.75l.946-.845c.054-.049.098-.14.085-.262a6.237 6.237 0 0 1-.026-1.031.301.301 0 0 0-.087-.245l-.918-.82a1.388 1.388 0 0 1-.277-1.75L3.21 5.116a1.474 1.474 0 0 1 1.697-.643l1.124.344c.068.021.168.013.268-.054a6.57 6.57 0 0 1 .865-.49c.11-.05.166-.13.181-.197zm1.421.076a.236.236 0 0 0-.231.18l-.221.969c-.107.468-.443.821-.841 1.008-.246.115-.48.249-.704.398a1.567 1.567 0 0 1-1.325.209l-1.123-.344a.24.24 0 0 0-.277.104L3.25 7.417a.226.226 0 0 0 .046.285l.918.82c.355.316.504.763.48 1.184a5.12 5.12 0 0 0 .02.841c.049.443-.096.923-.472 1.259l-.946.845a.226.226 0 0 0-.045.285l1.013 1.707a.24.24 0 0 0 .276.105l1.501-.46a1.566 1.566 0 0 1 1.24.155c.134.077.271.149.412.215.398.187.734.54.84 1.008l.222.968c.024.106.12.18.231.18h2.028a.236.236 0 0 0 .231-.18l.221-.968c.107-.468.443-.821.841-1.008.14-.066.278-.138.411-.215a1.566 1.566 0 0 1 1.241-.154l1.5.459a.24.24 0 0 0 .277-.105l1.014-1.707a.226.226 0 0 0-.046-.285l-.946-.845a1.466 1.466 0 0 1-.473-1.259 5.072 5.072 0 0 0 .021-.841c-.024-.421.125-.868.48-1.185l.918-.82a.226.226 0 0 0 .046-.284l-1.014-1.708a.24.24 0 0 0-.277-.104l-1.123.344a1.567 1.567 0 0 1-1.325-.209 5.338 5.338 0 0 0-.704-.398c-.398-.187-.734-.54-.84-1.008l-.222-.968a.236.236 0 0 0-.231-.18zM6.852 10c0 1.69 1.41 3.062 3.148 3.062 1.739 0 3.148-1.371 3.148-3.062 0-1.691-1.41-3.062-3.148-3.062-1.739 0-3.148 1.371-3.148 3.062M10 8.124c1.066 0 1.93.84 1.93 1.876s-.864 1.877-1.93 1.877c-1.066 0-1.93-.84-1.93-1.877 0-1.036.864-1.876 1.93-1.876" clip-rule="evenodd"/></svg>