<svg xmlns="http://www.w3.org/2000/svg" width="24" height="24" fill="none" class="persona-icon" viewBox="0 0 24 24"><path fill="currentColor" fill-rule="evenodd" d="M9.089 3.406A1.76 1.76 0 0 1 10.8 2h2.4c.822 0 1.533.584 1.711 1.406l.262 1.206a.35.35 0 0 0 .198.226q.54.266 1.028.612c.112.079.22.086.291.063l1.33-.428a1.735 1.735 0 0 1 2.045.814l1.2 2.128c.41.729.272 1.652-.333 2.22l-1.087 1.021c-.053.05-.1.146-.093.281a8 8 0 0 1-.03 1.29c-.016.144.033.248.09.3l1.12 1.053c.605.569.744 1.492.333 2.22l-1.2 2.128a1.735 1.735 0 0 1-2.045.815l-1.776-.573c-.065-.02-.164-.017-.272.049q-.293.179-.6.331a.35.35 0 0 0-.199.226l-.262 1.206A1.76 1.76 0 0 1 13.2 22h-2.4a1.76 1.76 0 0 1-1.711-1.405l-.262-1.207a.35.35 0 0 0-.198-.226 8 8 0 0 1-.601-.331c-.108-.066-.207-.07-.272-.049l-1.777.573a1.735 1.735 0 0 1-2.044-.815l-1.2-2.128a1.826 1.826 0 0 1 .333-2.22l1.12-1.053c.057-.052.106-.156.09-.3a8 8 0 0 1-.03-1.29c.008-.135-.04-.23-.093-.28l-1.087-1.022a1.826 1.826 0 0 1-.333-2.22l1.2-2.128a1.735 1.735 0 0 1 2.044-.814l1.33.428c.071.023.18.016.292-.063q.489-.346 1.028-.612a.35.35 0 0 0 .198-.226zm1.711.132a.25.25 0 0 0-.245.201l-.261 1.207a1.88 1.88 0 0 1-1.012 1.277q-.435.216-.829.494c-.44.31-1.025.447-1.594.264l-1.33-.429a.25.25 0 0 0-.293.117l-1.2 2.127a.26.26 0 0 0 .048.318l1.087 1.02c.428.402.607.969.578 1.501a7 7 0 0 0 .024 1.044c.058.56-.115 1.169-.568 1.594l-1.121 1.053a.26.26 0 0 0-.048.317l1.2 2.128c.059.104.18.152.292.116l1.777-.572a1.8 1.8 0 0 1 1.492.195q.237.144.485.267c.479.236.883.684 1.012 1.277l.261 1.207c.026.117.128.2.245.2h2.4a.25.25 0 0 0 .245-.2l.261-1.207a1.88 1.88 0 0 1 1.012-1.277q.248-.123.485-.267c.425-.26.966-.365 1.492-.195l1.777.572a.25.25 0 0 0 .292-.116l1.2-2.128a.26.26 0 0 0-.048-.317l-1.12-1.053c-.454-.425-.627-1.034-.57-1.594a6.6 6.6 0 0 0 .025-1.044c-.029-.532.15-1.099.578-1.5l1.087-1.021a.26.26 0 0 0 .048-.318l-1.2-2.127a.25.25 0 0 0-.292-.117l-1.33.429a1.8 1.8 0 0 1-1.595-.264 6 6 0 0 0-.829-.494 1.88 1.88 0 0 1-1.012-1.277l-.261-1.207a.25.25 0 0 0-.245-.2zM8.243 12c0 2.124 1.682 3.846 3.757 3.846s3.757-1.722 3.757-3.846S14.075 8.154 12 8.154 8.243 9.876 8.243 12M12 9.692c1.245 0 2.254 1.034 2.254 2.308s-1.01 2.308-2.254 2.308c-1.245 0-2.254-1.033-2.254-2.308S10.756 9.692 12 9.692" clip-rule="evenodd"/></svg>