<svg xmlns="http://www.w3.org/2000/svg" width="24" height="24" fill="none" class="persona-icon" viewBox="0 0 24 24"><path fill="currentColor" fill-rule="evenodd" d="M9.272 4.305A1.67 1.67 0 0 1 10.899 3h2.193c.781 0 1.458.543 1.627 1.305l.24 1.079c.01.044.05.112.147.159q.497.24.947.551c.09.061.169.063.213.049l1.215-.383a1.67 1.67 0 0 1 1.944.757l1.097 1.901c.39.677.259 1.533-.316 2.061l-.995.913c-.033.03-.07.097-.065.201a7 7 0 0 1-.028 1.164c-.011.111.028.184.063.216l1.025.94c.575.528.707 1.385.316 2.061l-1.097 1.902a1.67 1.67 0 0 1-1.944.756l-1.623-.51c-.041-.014-.114-.014-.198.037q-.27.161-.554.298c-.097.047-.138.115-.147.16l-.24 1.078A1.67 1.67 0 0 1 13.092 21h-2.193a1.67 1.67 0 0 1-1.627-1.305l-.24-1.079c-.01-.044-.05-.112-.147-.159a7 7 0 0 1-.554-.298c-.085-.05-.157-.05-.198-.038l-1.623.512a1.67 1.67 0 0 1-1.944-.757l-1.098-1.902a1.67 1.67 0 0 1 .317-2.06l1.025-.941c.035-.032.074-.105.062-.216a7 7 0 0 1-.028-1.164c.006-.104-.032-.17-.065-.201l-.994-.913a1.67 1.67 0 0 1-.317-2.06l1.098-1.902A1.67 1.67 0 0 1 6.51 5.76l1.215.383c.044.014.123.012.212-.049q.45-.31.948-.551c.097-.047.137-.115.147-.16zm1.627.195a.17.17 0 0 0-.163.13l-.24 1.079a1.75 1.75 0 0 1-.959 1.184 6 6 0 0 0-.749.436 1.75 1.75 0 0 1-1.514.244L6.06 7.191a.17.17 0 0 0-.194.075L4.767 9.168a.17.17 0 0 0 .032.206l.994.913c.407.373.576.898.549 1.39a6 6 0 0 0 .022.924 1.75 1.75 0 0 1-.54 1.477l-1.025.94a.17.17 0 0 0-.032.207l1.098 1.901c.039.068.12.1.194.076l1.623-.511a1.75 1.75 0 0 1 1.418.18q.213.127.437.236c.453.218.837.633.96 1.184l.239 1.078c.017.077.084.131.162.131h2.194a.17.17 0 0 0 .163-.13l.24-1.079c.122-.551.506-.966.958-1.184q.225-.109.438-.236c.403-.24.916-.338 1.417-.18l1.623.51a.17.17 0 0 0 .195-.075l1.097-1.902a.17.17 0 0 0-.032-.206l-1.025-.94a1.75 1.75 0 0 1-.54-1.477 6 6 0 0 0 .023-.924 1.75 1.75 0 0 1 .548-1.39l.994-.913a.17.17 0 0 0 .032-.206l-1.097-1.902a.17.17 0 0 0-.195-.075l-1.215.382a1.75 1.75 0 0 1-1.514-.244 6 6 0 0 0-.749-.436 1.75 1.75 0 0 1-.959-1.184l-.24-1.078a.17.17 0 0 0-.162-.131zM8.497 12a3.5 3.5 0 1 1 3.498 3.5A3.5 3.5 0 0 1 8.497 12m3.498-2a2 2 0 1 0 .002 3.998A2 2 0 0 0 11.995 10" clip-rule="evenodd"/></svg>