<svg xmlns="http://www.w3.org/2000/svg" width="16" height="16" fill="none" class="persona-icon" viewBox="0 0 16 16"><path fill="currentColor" d="M7.502 2a2.944 2.944 0 1 0 0 5.889 2.944 2.944 0 0 0 0-5.889M6.202 8.667a3.95 3.95 0 0 0-3.001 1.384 2.22 2.22 0 0 0-.533 1.443v.173A2.333 2.333 0 0 0 5.002 14h5a2.333 2.333 0 0 0 2.333-2.333v-.173c0-.53-.189-1.04-.532-1.443a3.95 3.95 0 0 0-3.001-1.384zM14.854 5.63a.5.5 0 0 1 0 .707l-.869.868.869.869a.5.5 0 0 1-.707.707l-.87-.869-.868.87a.5.5 0 0 1-.707-.708l.869-.869-.869-.868a.5.5 0 1 1 .707-.707l.869.868.869-.868a.5.5 0 0 1 .707 0"/></svg>