<svg xmlns="http://www.w3.org/2000/svg" width="20" height="20" fill="none" class="persona-icon" viewBox="0 0 20 20"><path fill="currentColor" d="M9.419 2.958a3.477 3.477 0 1 1 0 6.954 3.477 3.477 0 0 1 0-6.954M7.903 10.736h3.032c1.36 0 2.65.595 3.533 1.63.408.476.631 1.083.631 1.71v.202a2.764 2.764 0 0 1-2.764 2.764H6.502a2.764 2.764 0 0 1-2.764-2.764v-.202c0-.627.224-1.234.631-1.71a4.65 4.65 0 0 1 3.534-1.63M17.842 7.211a.625.625 0 0 1 0 .884l-.98.98.98.98a.625.625 0 0 1-.884.884l-.98-.98-.98.98a.625.625 0 1 1-.884-.883l.98-.98-.98-.981a.625.625 0 1 1 .884-.884l.98.98.98-.98a.625.625 0 0 1 .884 0"/></svg>