<svg xmlns="http://www.w3.org/2000/svg" width="16" height="16" fill="none" class="persona-icon" viewBox="0 0 16 16"><path fill="currentColor" fill-rule="evenodd" d="M12.278 2a.5.5 0 0 1 .5.5V13h.722a.5.5 0 0 1 0 1h-11a.5.5 0 0 1 0-1h.722V7.389a.5.5 0 0 1 .5-.5h1.945V2.5a.5.5 0 0 1 .5-.5zM5.667 13V7.889H4.222V13zm2.139 0h2.833v-2.556a.5.5 0 0 0-.5-.5H8.306a.5.5 0 0 0-.5.5zm.041-8.667v.917h.917v-.917zm.917 1.834h-.917v.916h.917zM7.847 8v.917h.917V8zm2.75-3.667h-.916v.917h.916zm-.916 1.834v.916h.916v-.916zM10.597 8h-.916v.917h.916z" clip-rule="evenodd"/></svg>