<svg xmlns="http://www.w3.org/2000/svg" width="20" height="20" fill="none" class="persona-icon" viewBox="0 0 20 20"><path fill="currentColor" fill-rule="evenodd" d="M15.603 3.6v12.175h.797a.625.625 0 0 1 0 1.25H3.6a.625.625 0 1 1 0-1.25h.797V9.289c0-.345.28-.625.625-.625h2.22V3.6c0-.345.28-.625.625-.625h7.11c.346 0 .626.28.626.625M5.647 15.775h1.595V9.914H5.647zm4.083-2.93v2.93h3.384v-2.93a.625.625 0 0 0-.625-.626h-2.134a.625.625 0 0 0-.625.625m2.759 4.18h.013-2.16 2.147m-.534-11.292V6.8h1.067V5.733zm0 2.134v1.066h1.067V7.867zM13.023 10h-1.066v1.067h1.066zm-3.2-4.267V6.8h1.067V5.733zm1.067 2.134H9.822v1.066h1.067zM9.822 10v1.067h1.067V10z" clip-rule="evenodd"/></svg>