<svg xmlns="http://www.w3.org/2000/svg" width="20" height="20" fill="none" class="persona-icon" viewBox="0 0 20 20"><path fill="currentColor" fill-rule="evenodd" d="M15.603 3.6a.625.625 0 0 0-.625-.625H7.867a.625.625 0 0 0-.625.625v5.064h-2.22a.625.625 0 0 0-.625.625v6.486H3.6a.625.625 0 1 0 0 1.25h12.8a.625.625 0 0 0 0-1.25h-.797zM5.647 15.775V9.914h1.595v5.86zm4.083-2.93c0-.346.28-.626.625-.626h2.134c.345 0 .625.28.625.625v2.93H9.73zm.092-7.112h1.067V6.8H9.822zm1.067 2.134v1.066H9.822V7.867zM9.822 10h1.067v1.067H9.822zm2.667 7.025h-2.147 2.16zm-.534-11.292h1.067V6.8h-1.066zm0 2.134h1.067v1.066h-1.066zM13.023 10v1.067h-1.066V10z" clip-rule="evenodd"/></svg>