<svg xmlns="http://www.w3.org/2000/svg" width="32" height="32" fill="none"><path fill="#000" fill-rule="evenodd" d="M8.07 12.301c-1.607-1.607-2.578-4.885-.186-7.277 1.17-1.17 2.6-1.54 3.934-1.388 1.303.149 2.508.79 3.352 1.634l9.937 9.937c1.53 1.53 2.432 3.327 2.545 5.168.113 1.857-.585 3.65-2.05 5.115-1.462 1.462-3.277 2.187-5.16 2.102-1.871-.084-3.712-.962-5.269-2.52L4.627 14.528a1 1 0 1 1 1.414-1.415l10.546 10.546c1.268 1.269 2.656 1.878 3.945 1.936 1.28.058 2.56-.422 3.656-1.518 1.094-1.095 1.543-2.34 1.468-3.58-.077-1.255-.702-2.613-1.963-3.874l-9.938-9.938c-.551-.551-1.347-.968-2.164-1.06-.785-.09-1.593.114-2.293.815-1.35 1.349-.93 3.332.187 4.448l10.382 10.382a1.9 1.9 0 0 0 .593.326c.304.1.624.111.991-.256.305-.304.301-.58.19-.89a2.001 2.001 0 0 0-.346-.6l-5.709-5.708A1 1 0 0 1 17 12.727l5.732 5.732.034.035-.005-.006.002.003.003.003.008.009.021.024c.017.02.04.046.065.078a4.091 4.091 0 0 1 .666 1.174c.285.801.348 1.966-.66 2.974-1.024 1.025-2.19 1.015-3.024.745a3.9 3.9 0 0 1-1.286-.718l-.025-.022-.01-.008-.003-.003-.002-.002.006.005-.007-.006a.917.917 0 0 1-.035-.033L8.07 12.3Zm14.696 6.193-.005-.006-.029-.03.034.036Z" clip-rule="evenodd"/></svg>