<svg xmlns="http://www.w3.org/2000/svg" width="32" height="32" fill="none"><path fill="#000" fill-rule="evenodd" d="M26.704 19.54c.569.447.796 1.114.796 1.708v3.954c0 1.273-1.045 2.38-2.4 2.293A22.038 22.038 0 0 1 4.505 6.9c-.086-1.355 1.02-2.4 2.293-2.4h3.682c.883 0 1.699.5 2.092 1.3.41.834.713 1.501.905 2.215.196.725.267 1.45.28 2.403.005.388-.09.766-.265 1.099l-.402.766a.278.278 0 0 0-.01.26 15.944 15.944 0 0 0 5.875 6.091c.063.038.164.05.27-.007l.665-.354a2.301 2.301 0 0 1 1.113-.271c2.492.036 4.336.465 5.7 1.538Zm-1.24 1.574.002.001h-.001Zm.001 0c-.855-.671-2.169-1.076-4.49-1.11a.3.3 0 0 0-.144.038l-.664.353c-.681.364-1.529.38-2.234-.037a17.947 17.947 0 0 1-6.612-6.856 2.28 2.28 0 0 1-.005-2.15l.4-.765c.027-.05.038-.1.037-.143-.011-.867-.075-1.407-.21-1.907-.138-.512-.364-1.03-.769-1.853a.327.327 0 0 0-.294-.18H6.798c-.203 0-.301.152-.294.269a20.035 20.035 0 0 0 18.723 18.723c.117.007.27-.091.27-.294v-3.954c0-.052-.01-.09-.02-.113a.078.078 0 0 0-.012-.02Z" clip-rule="evenodd"/></svg>