<svg xmlns="http://www.w3.org/2000/svg" width="32" height="32" fill="none"><path fill="#000" fill-rule="evenodd" d="M2 6.151A3.16 3.16 0 0 1 5.167 3h10.389v4.314h6.222c2.945 0 5.333 2.377 5.333 5.31v1.88H29c.552 0 1 .446 1 .996v5.752c0 .55-.448.996-1 .996h-1.889v.442c0 2.933-2.388 5.31-5.333 5.31H7.333C4.388 28 2 25.623 2 22.69V6.151Zm21.153 15.793a3.89 3.89 0 0 0 1.514.304h.444v.442a3.326 3.326 0 0 1-3.333 3.319H7.333A3.326 3.326 0 0 1 4 22.69V9.084c.361.143.755.221 1.167.221h16.61a3.326 3.326 0 0 1 3.334 3.319v1.88h-.444a3.88 3.88 0 0 0-3.89 3.872 3.887 3.887 0 0 0 2.375 3.567Zm2.966-1.687H28v-3.761h-3.333a1.885 1.885 0 0 0-1.89 1.88 1.877 1.877 0 0 0 1.46 1.832c.138.032.282.049.43.049h1.452ZM13.556 4.99v2.323h-8.39C4.523 7.314 4 6.794 4 6.153c0-.642.522-1.162 1.167-1.162h8.389Z" clip-rule="evenodd"/></svg>