<svg xmlns="http://www.w3.org/2000/svg" width="20" height="20" fill="none" class="persona-icon" viewBox="0 0 20 20"><path fill="currentColor" fill-rule="evenodd" d="M5.555 5.062C5.555 3.37 6.973 2 8.723 2h2.85c.631 0 1.234.249 1.671.688l3.11 3.132A2.2 2.2 0 0 1 17 7.37v5.1c0 1.69-1.418 3.06-3.168 3.06h-5.11c-1.749 0-3.167-1.37-3.167-3.06V5.061Zm3.168-1.877c-1.073 0-1.942.84-1.942 1.877v7.407c0 1.037.87 1.877 1.942 1.877h5.11c1.071 0 1.94-.84 1.94-1.877V7.37c0-.023 0-.046-.002-.07h-1.939c-1.28 0-2.316-1.002-2.316-2.238V3.185H8.723Zm4.02 1.877c0 .582.487 1.053 1.09 1.053h1.074l-2.165-2.092v1.039Z" clip-rule="evenodd"/><path fill="currentColor" d="M3.613 5.704c.339 0 .613.265.613.592v8.642c0 1.037.87 1.877 1.942 1.877h7.664c.339 0 .613.265.613.592a.603.603 0 0 1-.613.593H6.168C4.418 18 3 16.63 3 14.938V6.296c0-.327.275-.592.613-.592Z"/></svg>