<svg xmlns="http://www.w3.org/2000/svg" width="20" height="20" fill="none" class="persona-icon" viewBox="0 0 20 20"><path fill="currentColor" fill-rule="evenodd" d="m15.185 6.392.25-.24a2.11 2.11 0 0 1 .59 1.465v4.62a2.86 2.86 0 0 1-2.862 2.862H8.178a1.966 1.966 0 0 1-1.966-1.966V5.525a2.86 2.86 0 0 1 2.862-2.862h2.11a2.12 2.12 0 0 1 1.528.65l2.723 2.838zM4.6 6.019c.345 0 .625.28.625.625v7.088c0 1.3 1.054 2.355 2.354 2.355h5.97a.625.625 0 1 1 0 1.25h-5.97a3.604 3.604 0 0 1-3.604-3.605V6.644c0-.345.28-.625.625-.625m7.776-1.25v.844c0 .273.088.461.2.577.109.114.282.202.541.202h.817zm-3.302-.856c-.89 0-1.612.722-1.612 1.612v7.608c0 .396.32.716.716.716h4.985c.89 0 1.612-.722 1.612-1.612V7.642h-1.658c-.564 0-1.074-.203-1.442-.585-.366-.38-.549-.894-.549-1.444v-1.7z" clip-rule="evenodd"/></svg>