<svg xmlns="http://www.w3.org/2000/svg" width="24" height="24" fill="none" class="persona-icon" viewBox="0 0 24 24"><path fill="currentColor" fill-rule="evenodd" d="M19.233 6.895A2.75 2.75 0 0 1 20 8.8v6.202a3.754 3.754 0 0 1-3.753 3.754H9.554a2.55 2.55 0 0 1-2.55-2.55V5.993a3.754 3.754 0 0 1 3.753-3.754h2.834a2.75 2.75 0 0 1 1.986.846zM4.75 6.744a.75.75 0 0 1 .75.75v9.516a3.25 3.25 0 0 0 3.25 3.25h8.014a.75.75 0 0 1 0 1.5H8.75A4.75 4.75 0 0 1 4 17.011V7.495a.75.75 0 0 1 .75-.75m10.351-1.989V6.11c0 .387.125.663.293.837.165.172.422.298.791.298h1.306zM10.757 3.74a2.253 2.253 0 0 0-2.253 2.254v10.214c0 .58.47 1.05 1.05 1.05h6.693a2.254 2.254 0 0 0 2.253-2.254V8.801l-.001-.056h-2.314c-.736 0-1.396-.263-1.872-.758-.473-.491-.712-1.158-.712-1.877V3.74h-2.844" clip-rule="evenodd"/></svg>