<svg xmlns="http://www.w3.org/2000/svg" width="32" height="32" fill="none" class="persona-icon"><path fill="currentColor" d="M8.397 7.336c0-2.946 2.421-5.334 5.408-5.334h4.904a3.97 3.97 0 0 1 2.844 1.196l5.35 5.496a3.86 3.86 0 0 1 1.1 2.693v8.949c0 2.945-2.422 5.333-5.41 5.333h-8.788c-2.987 0-5.408-2.388-5.408-5.333v-13Zm5.408-3.334c-1.867 0-3.38 1.493-3.38 3.334v13c0 1.84 1.513 3.333 3.38 3.333h8.789c1.867 0 3.38-1.492 3.38-3.333v-8.95c0-.054-.002-.108-.007-.162h-3.373c-2.178 0-3.944-1.74-3.944-3.888V4.002h-4.845Zm6.873 3.334c0 1.043.858 1.889 1.916 1.889h1.946l-3.862-3.808v1.919Z"/><path fill="currentColor" d="M5.016 8.502c.56 0 1.014.448 1.014 1V24.67c0 1.84 1.514 3.333 3.38 3.333h13.184c.56 0 1.014.448 1.014 1 0 .553-.454 1-1.014 1H9.41c-2.987 0-5.409-2.387-5.409-5.333V9.502c0-.552.454-1 1.014-1Z"/></svg>