<svg xmlns="http://www.w3.org/2000/svg" width="32" height="32" fill="none" class="persona-icon" viewBox="0 0 32 32"><path fill="currentColor" fill-rule="evenodd" d="M7 9.408a1 1 0 0 1 1 1V22.22a3.965 3.965 0 0 0 3.966 3.965h9.948a1 1 0 1 1 0 2h-9.948A5.966 5.966 0 0 1 6 22.221V10.408a1 1 0 0 1 1-1m2.729-.865a4.73 4.73 0 0 1 4.728-4.729h3.518a3.49 3.49 0 0 1 2.515 1.072l4.539 4.728A3.49 3.49 0 0 1 26 12.028v7.7a4.73 4.73 0 0 1-4.728 4.729h-8.309a3.234 3.234 0 0 1-3.234-3.235zm4.728-2.729a2.73 2.73 0 0 0-2.728 2.729v12.68c0 .681.552 1.234 1.234 1.234h8.309A2.73 2.73 0 0 0 24 19.728v-7.7h-2.804c-.93 0-1.77-.333-2.374-.962-.601-.624-.903-1.47-.903-2.378V5.814zm5.462 1.365v1.51c0 .464.15.789.344.99.19.2.49.35.933.35h1.458z" clip-rule="evenodd"/></svg>