<svg xmlns="http://www.w3.org/2000/svg" width="16" height="16" fill="none" class="persona-icon" viewBox="0 0 16 16"><path fill="currentColor" fill-rule="evenodd" d="M2 4.827v6.36c0 1.185.961 2.146 2.147 2.146h7.706A2.147 2.147 0 0 0 14 11.187V4.813a2.147 2.147 0 0 0-2.147-2.146H4.147A2.147 2.147 0 0 0 2 4.813zm11 .992v5.368c0 .633-.513 1.146-1.147 1.146H4.147A1.147 1.147 0 0 1 3 11.187V5.82l4.23 3.103.006.004c.454.324 1.06.324 1.515 0zm-.02-1.224-4.812 3.52a.3.3 0 0 1-.349 0l-4.798-3.52a1.15 1.15 0 0 1 1.126-.928h7.706c.559 0 1.024.399 1.126.928" clip-rule="evenodd"/></svg>