<svg xmlns="http://www.w3.org/2000/svg" width="16" height="16" fill="none" class="persona-icon" viewBox="0 0 16 16"><path fill="currentColor" fill-rule="evenodd" d="M4.15 2.667A2.15 2.15 0 0 0 2 4.817v6.366a2.15 2.15 0 0 0 2.15 2.15h7.7a2.15 2.15 0 0 0 2.15-2.15V4.817a2.15 2.15 0 0 0-2.15-2.15zM3 5.83l4.134 3.086.008.005a1.3 1.3 0 0 0 1.513.005L13 5.808v5.375a1.15 1.15 0 0 1-1.15 1.15h-7.7A1.15 1.15 0 0 1 3 11.183zm9.978-1.238-4.9 3.518h-.001a.3.3 0 0 1-.35 0L3.022 4.599a1.15 1.15 0 0 1 1.129-.931h7.7a1.15 1.15 0 0 1 1.128.925" clip-rule="evenodd"/></svg>