<svg xmlns="http://www.w3.org/2000/svg" width="20" height="20" fill="none" class="persona-icon" viewBox="0 0 20 20"><path fill="currentColor" fill-rule="evenodd" d="M5.52 4C4.128 4 3 5.088 3 6.43v7.141C3 14.912 4.128 16 5.52 16h8.96c1.392 0 2.52-1.088 2.52-2.43V6.43C17 5.088 15.872 4 14.48 4zM4.2 7.601l4.782 3.44.01.006a1.58 1.58 0 0 0 1.781.006L15.8 7.575v5.996c0 .703-.591 1.272-1.32 1.272H5.52c-.729 0-1.32-.57-1.32-1.272zM15.773 6.17l-5.693 3.939h-.001a.34.34 0 0 1-.385 0L4.226 6.178c.122-.582.655-1.02 1.294-1.02h8.96c.637 0 1.168.435 1.293 1.013" clip-rule="evenodd"/></svg>