<svg xmlns="http://www.w3.org/2000/svg" width="20" height="20" fill="none" class="persona-icon" viewBox="0 0 20 20"><path fill="currentColor" fill-rule="evenodd" d="M2.975 6.31v-.018A2.54 2.54 0 0 1 5.516 3.75h8.968a2.54 2.54 0 0 1 2.541 2.54v7.417a2.54 2.54 0 0 1-2.541 2.541H5.516a2.54 2.54 0 0 1-2.541-2.541V6.309m12.771-.291a1.29 1.29 0 0 0-1.262-1.018H5.516c-.62 0-1.137.436-1.262 1.018l5.56 4.079a.31.31 0 0 0 .356 0zm.029 1.528-4.876 3.567a1.56 1.56 0 0 1-1.813 0l-.006-.005-4.855-3.56v6.159c0 .713.578 1.291 1.291 1.291h8.968c.713 0 1.291-.578 1.291-1.291z" clip-rule="evenodd"/></svg>