<svg xmlns="http://www.w3.org/2000/svg" width="20" height="20" fill="none" class="persona-icon" viewBox="0 0 20 20"><path fill="currentColor" fill-rule="evenodd" d="M1.5 5.077C1.5 3.377 2.828 2 4.465 2h11.07C17.172 2 18.5 3.378 18.5 5.077v9.846c0 1.7-1.328 3.077-2.965 3.077H4.465C2.828 18 1.5 16.622 1.5 14.923V5.077ZM4.465 3.23c-.982 0-1.779.826-1.779 1.846v9.846c0 1.02.797 1.846 1.78 1.846h11.069c.982 0 1.779-.826 1.779-1.846V5.077c0-1.02-.797-1.846-1.78-1.846H4.466Z" clip-rule="evenodd"/><path fill="currentColor" fill-rule="evenodd" d="M4.774 6.36a.58.58 0 0 1 .827-.142L9.71 9.274a.481.481 0 0 0 .611.002l4.08-2.995a.58.58 0 0 1 .827.147.63.63 0 0 1-.141.858l-4.08 2.995a1.63 1.63 0 0 1-1.988-.007L4.91 7.218a.63.63 0 0 1-.136-.859Z" clip-rule="evenodd"/></svg>