<svg xmlns="http://www.w3.org/2000/svg" width="24" height="24" fill="none" class="persona-icon" viewBox="0 0 24 24"><path fill="currentColor" fill-rule="evenodd" d="M3 7.24v9.54A3.22 3.22 0 0 0 6.22 20h11.56A3.22 3.22 0 0 0 21 16.78V7.22A3.22 3.22 0 0 0 17.78 4H6.22A3.22 3.22 0 0 0 3 7.22zm16.5 1.488v8.052c0 .95-.77 1.72-1.72 1.72H6.22c-.95 0-1.72-.77-1.72-1.72V8.73l6.346 4.655.008.005c.68.487 1.591.487 2.272 0zm-.031-1.836-7.218 5.28a.45.45 0 0 1-.522 0L4.53 6.892A1.72 1.72 0 0 1 6.22 5.5h11.56c.838 0 1.536.6 1.689 1.392" clip-rule="evenodd"/></svg>