<svg xmlns="http://www.w3.org/2000/svg" width="24" height="24" fill="none" class="persona-icon"><path fill="currentColor" d="M1 5.846A3.842 3.842 0 0 1 4.837 2h14.326A3.842 3.842 0 0 1 23 5.846v12.308A3.842 3.842 0 0 1 19.163 22H4.837A3.842 3.842 0 0 1 1 18.154V5.846Zm3.837-2.308a2.305 2.305 0 0 0-2.302 2.308v12.308a2.305 2.305 0 0 0 2.302 2.308h14.326a2.305 2.305 0 0 0 2.302-2.308V5.846a2.305 2.305 0 0 0-2.302-2.308H4.837Z"/><path fill="currentColor" d="M5.237 7.45a.766.766 0 0 1 1.07-.178l5.318 3.82a.64.64 0 0 0 .791.003l5.28-3.744a.766.766 0 0 1 1.07.184.77.77 0 0 1-.183 1.072l-5.28 3.744c-.791.561-1.785.557-2.572-.008l-5.318-3.82a.77.77 0 0 1-.176-1.074Z"/></svg>