<svg xmlns="http://www.w3.org/2000/svg" width="32" height="32" fill="none" class="persona-icon" viewBox="0 0 32 32"><path fill="currentColor" fill-rule="evenodd" d="M8.3 5.5C5.925 5.5 4 7.395 4 9.733v12.534C4 24.605 5.925 26.5 8.3 26.5h15.4c2.375 0 4.3-1.895 4.3-4.233V9.733C28 7.395 26.075 5.5 23.7 5.5zM6 11.729l8.276 6.08.008.005c.907.64 2.116.644 3.027.01L26 11.683v10.583c0 1.25-1.03 2.264-2.3 2.264H8.3c-1.27 0-2.3-1.013-2.3-2.264zM25.956 9.29l-9.8 6.925-.002.002a.61.61 0 0 1-.699 0L6.042 9.302A2.29 2.29 0 0 1 8.3 7.47h15.4c1.117 0 2.048.783 2.256 1.822" clip-rule="evenodd"/></svg>