<svg xmlns="http://www.w3.org/2000/svg" width="32" height="32" fill="none" class="persona-icon" viewBox="0 0 32 32"><path fill="currentColor" d="M2 8.323C2 5.659 4.194 3.5 6.9 3.5h18.2c2.706 0 4.9 2.16 4.9 4.823v15.354c0 2.664-2.194 4.823-4.9 4.823H6.9c-2.706 0-4.9-2.16-4.9-4.823V8.323Zm4.9-2.855C5.298 5.468 4 6.746 4 8.323v15.354c0 1.577 1.298 2.855 2.9 2.855h18.2c1.602 0 2.9-1.278 2.9-2.855V8.323c0-1.577-1.298-2.855-2.9-2.855H6.9Z"/><path fill="currentColor" d="M7.387 10.309a1.01 1.01 0 0 1 1.396-.227l6.755 4.765c.317.224.66.225.976.004l6.709-4.67a1.01 1.01 0 0 1 1.393.234.975.975 0 0 1-.238 1.372l-6.709 4.671a2.822 2.822 0 0 1-3.296-.01l-6.756-4.766a.974.974 0 0 1-.23-1.373Z"/></svg>