<svg xmlns="http://www.w3.org/2000/svg" width="32" height="32" fill="none" class="persona-icon" viewBox="0 0 32 32"><path fill="currentColor" fill-rule="evenodd" d="M4 9.654v12.719a4.293 4.293 0 0 0 4.293 4.294h15.414A4.293 4.293 0 0 0 28 22.373V9.627a4.293 4.293 0 0 0-4.293-4.294H8.293A4.293 4.293 0 0 0 4 9.627zm22 1.983v10.736a2.293 2.293 0 0 1-2.293 2.294H8.293A2.293 2.293 0 0 1 6 22.373V11.64l8.462 6.206.01.008a2.6 2.6 0 0 0 3.03 0zm-.042-2.447-9.623 7.039a.6.6 0 0 1-.697 0L6.043 9.19a2.294 2.294 0 0 1 2.251-1.857h15.414c1.117 0 2.047.8 2.251 1.857" clip-rule="evenodd"/></svg>