<svg xmlns="http://www.w3.org/2000/svg" width="16" height="16" fill="none" class="persona-icon" viewBox="0 0 16 16"><path fill="currentColor" fill-rule="evenodd" d="M3 4.142A2.43 2.43 0 0 1 5.43 1.714H8.34c.495 0 .968.205 1.306.567L12.52 5.36c.309.331.48.766.48 1.219v1.147a1.5 1.5 0 0 0-.896-.309l-.687-.007-.49-.48a1.5 1.5 0 0 0-2.1 0l-.49.48-.687.007a1.5 1.5 0 0 0-1.485 1.485l-.007.686-.48.491a1.5 1.5 0 0 0 0 2.1l.48.49.007.687c.004.352.13.676.336.93H5.43A2.43 2.43 0 0 1 3 11.857zm6.143-.935v1.579c0 .434.352.785.786.785h1.421z" clip-rule="evenodd"/><path fill="currentColor" fill-rule="evenodd" d="M10.227 7.643a.5.5 0 0 0-.7 0l-.778.762-1.089.011a.5.5 0 0 0-.495.495L7.154 10l-.762.778a.5.5 0 0 0 0 .7l.762.777.011 1.09a.5.5 0 0 0 .495.494l1.089.011.778.762a.5.5 0 0 0 .7 0l.777-.762 1.09-.01a.5.5 0 0 0 .494-.496l.011-1.089.762-.778a.5.5 0 0 0 0-.7L12.6 10l-.01-1.089a.5.5 0 0 0-.496-.495l-1.088-.011zm.934 2.499a.5.5 0 0 1 .014.707l-1.203 1.25a.5.5 0 0 1-.732-.012l-.674-.75a.5.5 0 1 1 .745-.668l.314.35.83-.863a.5.5 0 0 1 .707-.014" clip-rule="evenodd"/></svg>