<svg xmlns="http://www.w3.org/2000/svg" width="20" height="20" fill="none" class="persona-icon" viewBox="0 0 20 20"><path fill="currentColor" fill-rule="evenodd" d="M3.975 5.371a2.94 2.94 0 0 1 2.94-2.94h3.495c.6 0 1.175.25 1.585.69l3.447 3.693c.375.402.583.93.583 1.48v1.301a1.87 1.87 0 0 0-1.1-.37l-.794-.009-.567-.555a1.875 1.875 0 0 0-2.624 0l-.567.555-.794.009a1.875 1.875 0 0 0-1.856 1.855l-.008.794-.556.567a1.875 1.875 0 0 0 0 2.624l.556.567.008.794c.005.431.154.827.402 1.141h-1.21a2.94 2.94 0 0 1-2.94-2.939zm7.421-1.06v1.832c0 .507.411.918.918.918h1.648z" clip-rule="evenodd"/><path fill="currentColor" fill-rule="evenodd" d="M12.69 9.554a.625.625 0 0 0-.875 0l-.927.907-1.296.014a.625.625 0 0 0-.619.618L8.96 12.39l-.908.926a.625.625 0 0 0 0 .874l.908.927.013 1.296c.004.34.278.615.619.619l1.296.013.927.908a.625.625 0 0 0 .874 0l.926-.908 1.297-.013a.625.625 0 0 0 .618-.619l.014-1.296.907-.927a.625.625 0 0 0 0-.874l-.907-.927-.014-1.296a.625.625 0 0 0-.618-.618l-1.297-.014zm1.12 2.998c.25.24.257.635.018.884l-1.443 1.5a.625.625 0 0 1-.916-.015l-.808-.9a.625.625 0 0 1 .93-.835l.359.4.977-1.017a.625.625 0 0 1 .884-.017" clip-rule="evenodd"/></svg>