<svg xmlns="http://www.w3.org/2000/svg" width="20" height="20" fill="none" class="persona-icon" viewBox="0 0 20 20"><path fill="currentColor" fill-rule="evenodd" d="M9.84 6.272a2.565 2.565 0 0 1 4.975 0H16.4a.625.625 0 1 1 0 1.25h-1.585a2.566 2.566 0 0 1-4.975 0H3.6a.625.625 0 1 1 0-1.25zm-5.43 6.206a2.566 2.566 0 0 1 4.975 0H16.4a.625.625 0 1 1 0 1.25H9.385a2.565 2.565 0 0 1-4.976 0H3.6a.625.625 0 1 1 0-1.25zm2.487-.69a1.315 1.315 0 1 0 0 2.63 1.315 1.315 0 0 0 0-2.63m5.43-6.205a1.314 1.314 0 1 0 0 2.628 1.314 1.314 0 0 0 0-2.628" clip-rule="evenodd"/></svg>