<svg xmlns="http://www.w3.org/2000/svg" width="24" height="24" fill="none" class="persona-icon" viewBox="0 0 24 24"><path fill="currentColor" fill-rule="evenodd" d="M11.837 7.25a3.251 3.251 0 0 1 6.326 0h2.087a.75.75 0 0 1 0 1.5h-2.087a3.251 3.251 0 0 1-6.326 0H3.75a.75.75 0 0 1 0-1.5zm-7 8a3.251 3.251 0 0 1 6.326 0h9.087a.75.75 0 0 1 0 1.5h-9.087a3.251 3.251 0 0 1-6.326 0H3.75a.75.75 0 0 1 0-1.5zm3.163-1a1.75 1.75 0 1 0 0 3.5 1.75 1.75 0 0 0 0-3.5m7-8a1.75 1.75 0 1 0 0 3.5 1.75 1.75 0 0 0 0-3.5" clip-rule="evenodd"/></svg>