<svg xmlns="http://www.w3.org/2000/svg" width="32" height="32" fill="none" class="persona-icon" viewBox="0 0 32 32"><path fill="currentColor" fill-rule="evenodd" d="M15.783 9.667a4.335 4.335 0 0 1 8.434 0H27a1 1 0 1 1 0 2h-2.783a4.335 4.335 0 0 1-8.434 0H5a1 1 0 1 1 0-2zM6.449 20.333a4.335 4.335 0 0 1 8.435 0H27a1 1 0 0 1 0 2H14.884a4.335 4.335 0 0 1-8.435 0H5a1 1 0 1 1 0-2zM20 8.333A2.333 2.333 0 1 0 20 13a2.333 2.333 0 0 0 0-4.667M10.667 19a2.333 2.333 0 1 0 0 4.667 2.333 2.333 0 0 0 0-4.667" clip-rule="evenodd"/></svg>