<svg xmlns="http://www.w3.org/2000/svg" width="24" height="24" fill="none" class="persona-icon" viewBox="0 0 24 24"><path fill="currentColor" fill-rule="evenodd" d="M18.845 2.787a.75.75 0 0 0-.91-.546L3.274 5.893a.75.75 0 0 0-.546.91l.767 3.074v8.907a2.93 2.93 0 0 0 2.932 2.932h11.213a2.93 2.93 0 0 0 2.932-2.932V9.832a.75.75 0 0 0-.75-.75h-9.59l8.864-2.209-.002-.005a.75.75 0 0 0 .544-.909zM8.05 6.25l-.703 1.998-2.556.637-.428-1.717zm-3.057 6.095v-1.762h3.994l-1.174 1.762zm8.292-7.4-.703 2-3.493.87.703-2zm-3.67 7.4 1.175-1.762h3.652l-1.175 1.762zm7.955-8.466.428 1.716-3.673.915.703-1.998zm-2.5 8.466 1.174-1.762h2.826v1.762z" clip-rule="evenodd"/></svg>