<svg xmlns="http://www.w3.org/2000/svg" width="24" height="24" fill="none" class="persona-icon" viewBox="0 0 24 24"><path fill="currentColor" fill-rule="evenodd" d="m18.845 2.787.792 3.172a.75.75 0 0 1-.544.909l.002.005-8.865 2.209h9.591a.75.75 0 0 1 .75.75v8.952a2.93 2.93 0 0 1-2.932 2.932H6.426a2.93 2.93 0 0 1-2.932-2.932V9.877l-.767-3.075a.75.75 0 0 1 .546-.91l14.663-3.651a.75.75 0 0 1 .909.546M8.05 6.25l-3.687.918.428 1.717 2.556-.637zm-3.057 6.095h2.82l1.174-1.762H4.994zm8.292-7.4-3.493.87-.703 2 3.493-.87zm-3.67 7.4h3.652l1.175-1.762H10.79zm7.955-8.466-2.542.633-.703 1.998 3.673-.915zm-2.5 8.466h4v-1.762h-2.826z" clip-rule="evenodd"/></svg>