<svg xmlns="http://www.w3.org/2000/svg" width="32" height="32" fill="none" class="persona-icon" viewBox="0 0 32 32"><path fill="currentColor" d="M27.338 11.866v.02c.55 0 1 .45 1 1v12.93c0 2.29-1.86 4.15-4.15 4.15h-16.2c-2.29 0-4.15-1.86-4.15-4.15v-12.88l-1.11-4.45a.97.97 0 0 1 .11-.76c.14-.23.36-.4.62-.46l21.19-5.29a1 1 0 0 1 1.21.73l1.14 4.58c.07.26.03.53-.11.76s-.36.4-.62.46l-8.31 2.07-5.19 1.29zm-17.95-1.22 1.08-3.07-5.56 1.38.66 2.64zm-3.55 3.22v2.71h4.2l1.81-2.71zm11.11-5.1 1.08-3.07-5.24 1.3-1.08 3.07zm-2.7 5.1-1.81 2.71h5.47l1.81-2.71zm10.56-7.06-.66-2.64-3.8.95-1.08 3.07zm-2.68 7.06-1.81 2.71h6.02v-2.71z"/></svg>