<svg xmlns="http://www.w3.org/2000/svg" width="16" height="16" fill="none" class="persona-icon" viewBox="0 0 16 16"><path fill="currentColor" fill-rule="evenodd" d="M2.5 2a.5.5 0 0 1 .5.5V13h10.5a.5.5 0 0 1 0 1h-11a.5.5 0 0 1-.5-.5v-11a.5.5 0 0 1 .5-.5Z" clip-rule="evenodd"/><path fill="currentColor" fill-rule="evenodd" d="M11.667 5.444a.5.5 0 1 1 0-1H13.5a.5.5 0 0 1 .5.5v1.834a.5.5 0 0 1-1 0v-.626L9.576 9.576a.5.5 0 0 1-.707 0L6.778 7.485l-2.091 2.09a.5.5 0 0 1-.707-.706l2.444-2.445a.5.5 0 0 1 .707 0l2.091 2.091 3.07-3.07h-.625Z" clip-rule="evenodd"/></svg>