<svg xmlns="http://www.w3.org/2000/svg" width="20" height="20" fill="none" class="persona-icon" viewBox="0 0 20 20"><path fill="currentColor" d="M4.225 3.6v12.175H16.4a.625.625 0 1 1 0 1.25H3.6a.625.625 0 0 1-.625-.625V3.6a.625.625 0 1 1 1.25 0"/><path fill="currentColor" d="M14.267 5.82H16.4c.345 0 .625.28.625.624v2.134a.625.625 0 0 1-1.25 0v-.625l-3.91 3.911a.625.625 0 0 1-.885 0L8.578 9.461l-2.403 2.403a.625.625 0 0 1-.884-.884l2.845-2.844a.625.625 0 0 1 .884 0l2.402 2.402 3.47-3.469h-.625a.625.625 0 1 1 0-1.25"/></svg>