<svg xmlns="http://www.w3.org/2000/svg" width="20" height="20" fill="none" class="persona-icon" viewBox="0 0 20 20"><path fill="currentColor" d="M4.225 3.6a.625.625 0 1 0-1.25 0v12.8c0 .345.28.625.625.625h12.8a.625.625 0 1 0 0-1.25H4.225z"/><path fill="currentColor" d="M14.267 5.82a.625.625 0 1 0 0 1.25h.624l-3.469 3.468L9.02 8.136a.625.625 0 0 0-.884 0L5.29 10.98a.625.625 0 1 0 .884.884l2.403-2.403 2.402 2.403a.625.625 0 0 0 .884 0l3.911-3.91v.624a.625.625 0 0 0 1.25 0V6.444a.625.625 0 0 0-.625-.625z"/></svg>