<svg xmlns="http://www.w3.org/2000/svg" width="20" height="20" fill="none" class="persona-icon" viewBox="0 0 20 20"><path fill="currentColor" fill-rule="evenodd" d="M2.571 2c.316 0 .572.256.572.571v14.286h14.286a.571.571 0 0 1 0 1.143H2.57A.571.571 0 0 1 2 17.429V2.57C2 2.256 2.256 2 2.571 2" clip-rule="evenodd"/><path fill="currentColor" fill-rule="evenodd" d="M14.952 6.444a.571.571 0 0 1 0-1.142h2.476c.316 0 .572.255.572.571v2.476a.571.571 0 0 1-1.143 0V7.253l-4.802 4.802a.571.571 0 0 1-.808 0L8.349 9.157l-2.897 2.898a.571.571 0 1 1-.808-.808l3.301-3.302a.572.572 0 0 1 .808 0l2.898 2.898 4.398-4.399z" clip-rule="evenodd"/></svg>