<svg xmlns="http://www.w3.org/2000/svg" width="24" height="24" fill="none" class="persona-icon" viewBox="0 0 24 24"><path fill="currentColor" fill-rule="evenodd" d="M2.77 2a.77.77 0 0 1 .769.77V20.46H21.23a.77.77 0 0 1 0 1.539H2.769A.77.77 0 0 1 2 21.23V2.77A.77.77 0 0 1 2.77 2" clip-rule="evenodd"/><path fill="currentColor" fill-rule="evenodd" d="M17.385 6.872a.77.77 0 0 1 .769-.77h3.077a.77.77 0 0 1 .769.77v3.077a.77.77 0 1 1-1.538 0v-1.22l-5.867 5.866c-.3.3-.787.3-1.088 0L9.95 11.037 6.39 14.595a.77.77 0 0 1-1.088-1.088l4.103-4.102c.3-.3.787-.3 1.088 0l3.558 3.558 5.323-5.322h-1.22a.77.77 0 0 1-.77-.77" clip-rule="evenodd"/></svg>