<svg xmlns="http://www.w3.org/2000/svg" width="16" height="16" fill="none" class="persona-icon" viewBox="0 0 16 16"><path fill="currentColor" d="M10.5.667a.5.5 0 1 0 0 1h3.126l-4.48 4.48a.5.5 0 1 0 .708.707l4.48-4.48V5.5a.5.5 0 1 0 1 0V1.167a.5.5 0 0 0-.5-.5z"/><path fill="currentColor" d="M2 4.563A2.563 2.563 0 0 1 4.563 2h3.775c1.17 0 1.773 1.4.968 2.25l-.838.885a1.695 1.695 0 0 0 2.397 2.397l.885-.838c.85-.805 2.25-.203 2.25.968v3.776A2.563 2.563 0 0 1 11.438 14H4.562A2.563 2.563 0 0 1 2 11.438z"/></svg>