<svg xmlns="http://www.w3.org/2000/svg" width="20" height="20" fill="none" class="persona-icon" viewBox="0 0 20 20"><path fill="currentColor" d="M12.284 2.048c0 .346.28.625.625.625h3.534l-5.14 5.14a.625.625 0 0 0 .884.883l5.14-5.139v3.534a.625.625 0 0 0 1.25 0V2.048a.625.625 0 0 0-.626-.625H12.91a.625.625 0 0 0-.625.625"/><path fill="currentColor" d="M2.973 6A3.027 3.027 0 0 1 6 2.973h4.394c1.401 0 2.123 1.677 1.159 2.694l-.976 1.03a1.928 1.928 0 0 0 2.725 2.726l1.03-.976c1.018-.964 2.695-.242 2.695 1.16V14A3.027 3.027 0 0 1 14 17.027H6A3.027 3.027 0 0 1 2.973 14z"/></svg>