<svg xmlns="http://www.w3.org/2000/svg" width="32" height="32" fill="none"><path fill="#000" d="M14.43 2.333a.973.973 0 0 0-1.39-.074 1.011 1.011 0 0 0-.072 1.412l.824.931H8.325c-2.664 0-4.823 2.194-4.823 4.9v6.5c0 .553.44 1 .984 1a.992.992 0 0 0 .985-1v-6.5c0-1.601 1.278-2.9 2.854-2.9h5.467l-.825.931c-.363.41-.33 1.043.074 1.413a.973.973 0 0 0 1.39-.075l2.303-2.6c.337-.38.337-.957 0-1.338l-2.303-2.6Z"/><path fill="#000" fill-rule="evenodd" d="M10.884 25.588a.992.992 0 0 0-.984 1c0 .552.44 1 .984 1h1.392v1.414c0 .553.44 1 .984 1a.992.992 0 0 0 .985-1v-1.414h10.897a.992.992 0 0 0 .984-1V15.517h1.392a.992.992 0 0 0 .984-1c0-.553-.44-1-.984-1h-1.392v-1.415c0-.552-.44-1-.984-1a.992.992 0 0 0-.985 1v1.415H13.26a.992.992 0 0 0-.984 1v11.071h-1.392Zm13.273 0h-9.912V15.517h9.912v10.071Z" clip-rule="evenodd"/></svg>