<svg xmlns="http://www.w3.org/2000/svg" width="24" height="24" fill="none" class="persona-icon" viewBox="0 0 24 24"><path fill="currentColor" fill-rule="evenodd" d="M6.22 4A3.22 3.22 0 0 0 3 7.22v9.56A3.22 3.22 0 0 0 6.22 20h6.782v-7H21V7.22A3.22 3.22 0 0 0 17.78 4zm13.249 2.892-7.218 5.28a.451.451 0 0 1-.523 0l-7.197-5.28A1.72 1.72 0 0 1 6.22 5.5h11.56c.838 0 1.536.6 1.689 1.392" clip-rule="evenodd"/><path fill="currentColor" d="M14.802 16.64a.75.75 0 0 0 .996 1.12l1.227-1.09v3.18a.75.75 0 0 0 1.5 0v-3.18l1.227 1.09a.75.75 0 0 0 .996-1.12l-2.475-2.2a.75.75 0 0 0-.997 0z"/></svg>