<svg xmlns="http://www.w3.org/2000/svg" width="16" height="16" fill="none"><path fill="#000" fill-rule="evenodd" d="M7.757 2.063a.5.5 0 0 1 .486 0l5.5 3.056a.5.5 0 0 1 .257.437v4.888a.5.5 0 0 1-.257.438l-5.5 3.055a.5.5 0 0 1-.486 0l-5.5-3.055A.5.5 0 0 1 2 10.444V5.556a.5.5 0 0 1 .257-.437l3.24-1.8.014-.023.013.008 2.233-1.241ZM5.5 4.46 3.53 5.556 8 8.039l1.758-.976L5.5 4.46Zm5.262 2.044L6.504 3.903 8 3.072l4.47 2.484-1.708.949Zm2.238-.1-4.5 2.5v3.745l4.5-2.5V6.405ZM7.5 12.65V8.905L3 6.405v3.745l4.5 2.5Z" clip-rule="evenodd"/></svg>