<svg xmlns="http://www.w3.org/2000/svg" width="16" height="16" fill="none" class="persona-icon" viewBox="0 0 16 16"><path fill="currentColor" fill-rule="evenodd" d="M3.968 4v8c0 .828.65 1.5 1.451 1.5h1.936c.267 0 .484.224.484.5s-.217.5-.484.5H5.419C4.083 14.5 3 13.38 3 12V4c0-1.38 1.083-2.5 2.42-2.5h2.922c.492 0 .962.21 1.298.582l2.883 3.193c.306.34.477.786.477 1.25v2.808c0 .277-.217.5-.484.5a.49.49 0 0 1-.484-.5V6.5H9.935c-.98 0-1.774-.82-1.774-1.833V2.5H5.42c-.801 0-1.451.672-1.451 1.5m5.161.667c0 .46.361.833.806.833h1.413L9.129 3.207z" clip-rule="evenodd"/><path fill="currentColor" fill-rule="evenodd" d="M10.146 9.647a.5.5 0 0 1 .708 0l2 2a.5.5 0 0 1 0 .707l-2 2a.5.5 0 0 1-.708-.708l1.147-1.146H8.5a.5.5 0 0 1 0-1h2.793l-1.147-1.146a.5.5 0 0 1 0-.707" clip-rule="evenodd"/></svg>