<svg xmlns="http://www.w3.org/2000/svg" width="20" height="20" fill="none" class="persona-icon" viewBox="0 0 20 20"><path fill="currentColor" fill-rule="evenodd" d="M6.914 3.682a1.69 1.69 0 0 0-1.689 1.69v9.257c0 .933.756 1.689 1.69 1.689h1.928a.625.625 0 0 1 0 1.25H6.914a2.94 2.94 0 0 1-2.939-2.94V5.372a2.94 2.94 0 0 1 2.94-2.939h3.494c.601 0 1.175.25 1.585.689l3.448 3.694c.375.401.583.93.583 1.479v2.832a.625.625 0 0 1-1.25 0V8.31h-2.46a2.17 2.17 0 0 1-2.169-2.168v-2.46zm2.356 7.194c.345 0 .625.28.625.625v1.647c0 .484.392.876.876.876h3.14l-1.246-1.247a.625.625 0 0 1 .883-.884l2.315 2.314a.625.625 0 0 1 0 .884l-2.315 2.315a.625.625 0 1 1-.883-.884l1.247-1.248h-3.14a2.126 2.126 0 0 1-2.127-2.126v-1.647c0-.345.28-.625.625-.625m2.126-6.564v1.83c0 .508.411.919.918.919h1.648z" clip-rule="evenodd"/></svg>