<svg xmlns="http://www.w3.org/2000/svg" width="32" height="32" fill="none"><path fill="currentColor" d="M7.535 8.002c0-1.657 1.364-3 3.048-3h5.758v4.334c0 2.025 1.668 3.666 3.726 3.666h4.402v5.667c0 .552.456 1 1.017 1 .561 0 1.016-.448 1.016-1v-5.616c0-.928-.358-1.823-1.002-2.501l-6.055-6.385a3.754 3.754 0 0 0-2.724-1.165h-6.138c-2.806 0-5.08 2.239-5.08 5v16c0 2.762 2.274 5 5.08 5h4.064c.562 0 1.017-.447 1.017-1 0-.552-.455-1-1.017-1h-4.064c-1.684 0-3.048-1.343-3.048-3v-16Zm10.838 1.334v-2.92l4.66 4.586h-2.966c-.936 0-1.694-.746-1.694-1.666Z"/><path fill="currentColor" d="M20.795 19.295a1 1 0 0 1 1.414 0l4 4a1 1 0 0 1 0 1.414l-4 4a1 1 0 1 1-1.414-1.414l2.293-2.293h-5.586a1 1 0 1 1 0-2h5.586l-2.293-2.293a1 1 0 0 1 0-1.414Z"/></svg>