<svg xmlns="http://www.w3.org/2000/svg" width="32" height="32" fill="none"><path fill="#000" fill-rule="evenodd" d="M3 8a5 5 0 0 1 5-5h4a1 1 0 1 1 0 2H8a3 3 0 0 0-3 3v4a1 1 0 1 1-2 0V8Zm16-4a1 1 0 0 1 1-1h4a5 5 0 0 1 5 5v4a1 1 0 1 1-2 0V8a3 3 0 0 0-3-3h-4a1 1 0 0 1-1-1Zm-3.934 9.075a13.497 13.497 0 0 0-3.352 3.45c-.978 1.469-1.38 2.764-1.38 3.475a1 1 0 1 1-2 0c0-1.265.629-2.951 1.716-4.584a15.572 15.572 0 0 1 4.966-4.697c.733-.436 1.52-.204 1.98.262.445.452.662 1.193.338 1.905a67.147 67.147 0 0 0-2.1 5.296c1.564-1.18 2.848-1.635 3.738-1.792a1.453 1.453 0 0 1 1.49.632c.295.453.314 1.012.114 1.487l-.068.163c.235-.088.48-.144.736-.16.764-.046 1.408.281 1.972.653a1 1 0 0 1-1.099 1.67c-.466-.306-.653-.332-.752-.326-.111.007-.354.07-.885.504-.467.381-1.156.554-1.767.221-.685-.373-.855-1.14-.64-1.783.091-.27.191-.544.291-.805-.774.316-1.838.937-3.125 2.154-.448.423-1.15.65-1.794.32-.705-.358-.884-1.134-.693-1.775.51-1.712 1.437-4.216 2.314-6.27ZM4 19a1 1 0 0 1 1 1v4a3 3 0 0 0 3 3h4a1 1 0 1 1 0 2H8a5 5 0 0 1-5-5v-4a1 1 0 0 1 1-1Zm24 0a1 1 0 0 1 1 1v4a5 5 0 0 1-5 5h-4a1 1 0 1 1 0-2h4a3 3 0 0 0 3-3v-4a1 1 0 0 1 1-1Z" clip-rule="evenodd"/></svg>