<svg xmlns="http://www.w3.org/2000/svg" width="32" height="32" fill="none"><path fill="#000" fill-rule="evenodd" d="M4.707 3.293a1 1 0 0 0-1.414 1.414l4.134 4.134c-1.767 1.574-3.249 3.69-4.272 6.33a2.302 2.302 0 0 0 0 1.66c3.637 9.368 13.02 12.02 19.818 7.556l4.32 4.32a1 1 0 0 0 1.414-1.414L9.7 8.285a1.01 1.01 0 0 0-.154-.154L4.707 3.293Zm4.154 6.982C7.305 11.63 5.964 13.5 5.029 15.91a.252.252 0 0 0 .001.18c3.132 8.067 10.83 10.217 16.473 6.826l-2.7-2.699A4.98 4.98 0 0 1 16 21.08c-2.78 0-5.033-2.274-5.033-5.08 0-1.03.305-1.99.827-2.79l-2.933-2.934Zm4.412 4.412A3.058 3.058 0 0 0 12.98 16c0 1.684 1.352 3.048 3.02 3.048.476 0 .925-.11 1.325-.308l-4.052-4.052Z" clip-rule="evenodd"/><path fill="#000" d="M12.452 8.152c5.312-1.902 11.726.565 14.518 7.757a.25.25 0 0 1 0 .178c-.623 1.607-1.426 2.974-2.352 4.107a1.022 1.022 0 0 0 .136 1.43 1 1 0 0 0 1.417-.138c1.069-1.307 1.978-2.862 2.674-4.658a2.298 2.298 0 0 0 0-1.66c-3.157-8.131-10.65-11.228-17.066-8.93a1.018 1.018 0 0 0-.612 1.296c.186.53.761.806 1.285.618Z"/></svg>