<svg xmlns="http://www.w3.org/2000/svg" width="16" height="16" fill="none" class="persona-icon" viewBox="0 0 16 16"><path fill="currentColor" d="M8.512 2H12a.5.5 0 0 1 0 1H8.512a1.13 1.13 0 0 0-.767.306L3.751 7.002l-.685.685a.5.5 0 1 1-.707-.707l.692-.693.014-.013 4-3.702A2.13 2.13 0 0 1 8.513 2"/><path fill="currentColor" fill-rule="evenodd" d="M9.37 3.748h2.906c.605 0 1.057.507 1.057 1.083v2.744c0 .61-.24 1.2-.672 1.626l-4.226 4.177a2.12 2.12 0 0 1-2.997 0l-1.695-1.674a2.305 2.305 0 0 1 0-3.254L7.87 4.37a2.13 2.13 0 0 1 1.5-.622m2.13 2.419a.667.667 0 1 0-1.333 0 .667.667 0 0 0 1.333 0" clip-rule="evenodd"/></svg>