<svg xmlns="http://www.w3.org/2000/svg" width="20" height="20" fill="none" class="persona-icon" viewBox="0 0 20 20"><path fill="currentColor" d="M10.577 2.975a2.52 2.52 0 0 0-1.713.677L4.208 7.96l-.017.017-.806.805a.625.625 0 1 0 .884.884l.797-.797 4.647-4.3a1.27 1.27 0 0 1 .864-.344h4.058a.625.625 0 1 0 0-1.25z"/><path fill="currentColor" fill-rule="evenodd" d="M11.574 5.01c-.665 0-1.3.266-1.775.735l-4.803 4.748a2.725 2.725 0 0 0 0 3.847l1.972 1.95a2.507 2.507 0 0 0 3.55-.001l4.917-4.86c.51-.505.795-1.202.795-1.924V6.313c0-.693-.544-1.303-1.274-1.303zm2.48 2.857a.776.776 0 1 1-1.552 0 .776.776 0 0 1 1.551 0" clip-rule="evenodd"/></svg>