<svg xmlns="http://www.w3.org/2000/svg" width="24" height="24" fill="none" class="persona-icon" viewBox="0 0 24 24"><path fill="currentColor" d="M12.769 3H18a.75.75 0 0 1 0 1.5h-5.232c-.418 0-.828.16-1.15.458l-5.991 5.544-1.029 1.028a.75.75 0 0 1-1.06-1.06L4.576 9.43l.021-.02L10.6 3.858A3.2 3.2 0 0 1 12.769 3"/><path fill="currentColor" fill-rule="evenodd" d="M14.054 5.623h4.36c.908 0 1.586.76 1.586 1.624v4.115c0 .917-.36 1.8-1.008 2.44l-6.34 6.265a3.176 3.176 0 0 1-4.495 0l-2.543-2.512c-1.345-1.328-1.345-3.552 0-4.88l6.192-6.12a3.2 3.2 0 0 1 2.248-.932M17.25 9.25a1 1 0 1 0-2 0 1 1 0 0 0 2 0" clip-rule="evenodd"/></svg>