<svg xmlns="http://www.w3.org/2000/svg" width="24" height="24" fill="none" class="persona-icon" viewBox="0 0 24 24"><path fill="currentColor" d="M12.769 3c-.805 0-1.577.308-2.17.857L4.597 9.412l-.02.02-1.04 1.039a.75.75 0 1 0 1.061 1.06l1.029-1.028 5.99-5.544a1.7 1.7 0 0 1 1.151-.458H18A.75.75 0 0 0 18 3z"/><path fill="currentColor" fill-rule="evenodd" d="M14.054 5.623c-.842 0-1.646.337-2.248.932l-6.192 6.12c-1.345 1.328-1.345 3.552 0 4.88l2.542 2.513a3.176 3.176 0 0 0 4.497 0l6.339-6.266A3.43 3.43 0 0 0 20 11.362V7.247c0-.865-.678-1.624-1.586-1.624zM17.25 9.25a1 1 0 1 1-2 0 1 1 0 0 1 2 0" clip-rule="evenodd"/></svg>