<svg xmlns="http://www.w3.org/2000/svg" width="32" height="32" fill="none" class="persona-icon" viewBox="0 0 32 32"><path fill="currentColor" d="M17.025 4H24a1 1 0 1 1 0 2h-6.975c-.558 0-1.105.213-1.535.611l-7.988 7.392-1.37 1.37a1 1 0 0 1-1.415-1.413l1.384-1.385.028-.027 8.003-7.405A4.26 4.26 0 0 1 17.025 4"/><path fill="currentColor" fill-rule="evenodd" d="M18.738 7.497h5.814c1.21 0 2.114 1.013 2.114 2.166v5.486c0 1.222-.48 2.4-1.344 3.254l-8.452 8.354a4.235 4.235 0 0 1-5.995 0l-3.39-3.35c-1.793-1.771-1.793-4.736 0-6.507l8.256-8.16a4.26 4.26 0 0 1 2.997-1.243M23 12.333a1.333 1.333 0 1 0-2.667 0 1.333 1.333 0 0 0 2.667 0" clip-rule="evenodd"/></svg>