<svg xmlns="http://www.w3.org/2000/svg" width="32" height="32" fill="none" class="persona-icon" viewBox="0 0 32 32"><path fill="currentColor" d="M17.025 4a4.26 4.26 0 0 0-2.893 1.143l-8.003 7.405-.028.027-1.384 1.385a1 1 0 1 0 1.414 1.414l1.371-1.371 7.988-7.392c.43-.398.977-.611 1.535-.611H24a1 1 0 1 0 0-2z"/><path fill="currentColor" fill-rule="evenodd" d="M18.738 7.497c-1.122 0-2.194.45-2.997 1.243L7.485 16.9c-1.793 1.771-1.793 4.736 0 6.507l3.39 3.35a4.235 4.235 0 0 0 5.995 0l8.452-8.354a4.58 4.58 0 0 0 1.345-3.254V9.663c0-1.153-.905-2.166-2.115-2.166zM23 12.333a1.333 1.333 0 1 1-2.667 0 1.333 1.333 0 0 1 2.667 0" clip-rule="evenodd"/></svg>