<svg xmlns="http://www.w3.org/2000/svg" width="20" height="20" fill="none" class="persona-icon" viewBox="0 0 20 20"><path fill="currentColor" fill-rule="evenodd" d="M6.632 2.975c-.718 0-1.3.581-1.3 1.299v2.715a2.65 2.65 0 0 0-2.02 2.572v2.02c0 1.247.861 2.292 2.02 2.573v1.572c0 .717.582 1.299 1.3 1.299h6.736c.718 0 1.3-.582 1.3-1.299v-1.572a2.65 2.65 0 0 0 2.02-2.572V9.56c0-1.246-.861-2.291-2.02-2.572V4.274c0-.718-.582-1.3-1.3-1.3zm6.785 3.94H6.583V4.274c0-.027.022-.05.049-.05h6.736c.027 0 .05.023.05.05zm-6.785 5.393h6.736c.027 0 .05.022.05.049v3.37a.05.05 0 0 1-.05.048H6.632a.05.05 0 0 1-.05-.049v-3.37c0-.026.023-.048.05-.048m5.695-3.084c0-.214.174-.388.388-.388h.776c.214 0 .388.174.388.388V10a.39.39 0 0 1-.388.388h-.776a.39.39 0 0 1-.388-.388z" clip-rule="evenodd"/></svg>