<svg xmlns="http://www.w3.org/2000/svg" width="32" height="32" fill="none" class="persona-icon" viewBox="0 0 32 32"><path fill="currentColor" fill-rule="evenodd" d="M8.053 6.158C8.053 4.966 9.019 4 10.21 4H21.79c1.191 0 2.157.966 2.157 2.158v4.726a4.475 4.475 0 0 1 3.474 4.361v3.474a4.476 4.476 0 0 1-3.473 4.362v2.761A2.16 2.16 0 0 1 21.79 28H10.21a2.16 2.16 0 0 1-2.157-2.158v-2.761a4.475 4.475 0 0 1-3.474-4.362v-3.474a4.475 4.475 0 0 1 3.474-4.361zm2 4.614h11.894V6.158A.16.16 0 0 0 21.79 6H10.21a.16.16 0 0 0-.157.158zm.158 9.121a.16.16 0 0 0-.158.158v5.791c0 .087.07.158.158.158H21.79c.087 0 .157-.07.157-.158v-5.79a.16.16 0 0 0-.157-.159zM20.667 14a.667.667 0 0 0-.667.667V16c0 .368.299.667.667.667H22a.667.667 0 0 0 .667-.667v-1.333A.667.667 0 0 0 22 14z" clip-rule="evenodd"/></svg>