<svg xmlns="http://www.w3.org/2000/svg" width="32" height="32" fill="none"><path fill="#000" d="M22.861 7.372h-2.167v2.157h2.167V7.372ZM20.694 11.623h2.167v2.157h-2.167v-2.157ZM22.861 15.874h-2.167v2.157h2.167v-2.157ZM16.361 7.372h2.167v2.157H16.36V7.372ZM18.528 11.623H16.36v2.157h2.167v-2.157ZM16.361 15.874h2.167v2.157H16.36v-2.157Z"/><path fill="#000" fill-rule="evenodd" d="M26.111 3.5c.552 0 1 .446 1 .996v22.013H29c.552 0 1 .446 1 .995 0 .55-.448.996-1 .996H3c-.552 0-1-.446-1-.996s.448-.995 1-.995h1.889V13.124c0-.55.448-.996 1-.996h6.222V4.496c0-.55.448-.996 1-.996h13Zm-12 23.009h2.334v-4.757c0-.55.447-.995 1-.995h4.333c.552 0 1 .445 1 .995v4.757h2.333V5.49h-11V26.51Zm4.334 0h2.333v-3.761h-2.333v3.76Zm-11.556 0h5.222v-12.39H6.89v12.39Z" clip-rule="evenodd"/></svg>