<svg xmlns="http://www.w3.org/2000/svg" width="80" height="80" fill="none" class="persona-ilustration" viewBox="0 0 80 80"><g clip-path="url(#M6mKMcYWwZPAFZaxxP2dx5_mgaCqqMLttg-e8txP1qU_a)"><g clip-path="url(#M6mKMcYWwZPAFZaxxP2dx5_mgaCqqMLttg-e8txP1qU_b)"><rect width="66.667" height="66.667" x="6.667" y="6.667" fill="#D3EDFF" rx="16.665"/><path fill="#30457A" d="M46.039 52.086C31.099 34.138 24.713 31.561 17.69 35.633c-7.023 4.073 12.315 70.632 12.315 70.632l31.445 1.888-.051-.302c-2.536-14.81-8.04-46.971-15.36-55.765"/><path fill="#3F568E" d="M62.852 40.134c-6.302-9.644-35.408-7.746-42.98-5.581-7.573 2.164 8.219 51.02 8.219 51.02l34.761 19.343c-2.511-14.67 6.301-55.139 0-64.782"/><path fill="#EFEFEF" d="M75.502 81.487c2.535 1.577 11.2 3.657 14.02-2.43-2.87-6.298-14.746-43.059-28.219-34.257-3.634 2.374 12.745 30.146 14.2 36.687"/><mask id="M6mKMcYWwZPAFZaxxP2dx5_mgaCqqMLttg-e8txP1qU_c" width="53" height="77" x="25" y="38" maskUnits="userSpaceOnUse" style="mask-type:alpha"><path fill="#666" d="M74.792 51.43s-3.573-7.696-9.61-8.268c-7.07-.67-18.903-4.732-21.949-4.35-3.046.384-12.56 2.82-8.939 16.681 5.39 20.631-9.138 57.487-9.138 57.487s34.82 2.393 47.518-.09c1.944-13.835 2.731-19.314 4.225-40.52 1.92-16.036-2.107-20.94-2.107-20.94"/></mask><g mask="url(#M6mKMcYWwZPAFZaxxP2dx5_mgaCqqMLttg-e8txP1qU_c)"><path fill="#666" d="M73.545 51.535s-2.327-7.801-8.364-8.373c-7.07-.67-18.903-4.732-21.949-4.35-3.046.384-12.56 2.82-8.939 16.681 5.39 20.631-9.138 57.487-9.138 57.487s30.868 2.482 43.566 0c1.944-13.835 2.731-19.315 4.225-40.521 1.92-16.036.599-20.924.599-20.924"/><path fill="#F8F8F8" d="M64.475 41.822c2.603 2.73.888 10.781-.676 13.786-1.036 1.99-6.709-3.936-14.597-16.463-1.76-3.574 12.02-.737 15.273 2.677"/><path fill="#8E8E8E" fill-rule="evenodd" d="M60.945 38.273c1.761.706 3.447 1.606 4.457 2.666.907.951 1.351 2.263 1.551 3.574.203 1.33.176 2.805.02 4.239-.312 2.845-1.166 5.771-2.039 7.447-.151.292-.379.571-.704.775a1.95 1.95 0 0 1-1.013.292c-.62.009-1.203-.247-1.676-.526-.975-.574-2.134-1.64-3.42-3.06-2.605-2.878-6.04-7.562-10.002-13.853a1 1 0 0 1-.065-.116c-.357-.726-.465-1.66.182-2.436.52-.624 1.317-.857 1.942-.962 1.324-.221 3.164-.06 5.02.293 1.89.359 3.943.944 5.747 1.667m-10.415.577c3.821 6.038 7.078 10.449 9.489 13.112 1.247 1.378 2.194 2.203 2.82 2.572l.044.025c.632-1.415 1.288-3.746 1.544-6.086.142-1.296.154-2.534-.005-3.575-.161-1.06-.479-1.78-.873-2.193-.617-.647-1.874-1.382-3.556-2.056a29.4 29.4 0 0 0-5.273-1.528c-1.776-.337-3.254-.428-4.12-.283z" clip-rule="evenodd"/></g><path fill="#8E8E8E" d="M41.171 64.188c-2.568 1.523-9.522 2.034-12.211-4.111 0-8.404 11.735-25.623 16.861-20.394 3.583 2.451 2.243 27.782-4.65 24.505"/><path fill="#EFEFEF" d="M43.194 65.024c-2.568 1.523-13.585 1.569-16.274-4.576 0-8.404 11.735-25.623 16.861-20.394 3.583 2.451 1.006 18.461-.587 24.97"/><mask id="M6mKMcYWwZPAFZaxxP2dx5_mgaCqqMLttg-e8txP1qU_d" width="15" height="26" x="51" y="22" maskUnits="userSpaceOnUse" style="mask-type:alpha"><path fill="#000" d="M65.38 32.04s-3.182 10.135-2.544 14.379c.625 4.164-11.34-5.85-11.34-5.85s-1.027-5.04.619-15.224 13.269 6.693 13.269 6.693z"/></mask><g mask="url(#M6mKMcYWwZPAFZaxxP2dx5_mgaCqqMLttg-e8txP1qU_d)"><path fill="#F1AA90" d="M65.38 32.04s-3.182 10.135-2.544 14.379c.625 4.164-12.4-6.006-12.4-6.006s1.663-2.89 3.309-13.073c1.645-10.184 11.638 4.698 11.638 4.698z"/><path fill="#000" fill-opacity=".5" d="M51.262 24.945s.172 6.047 5.819 12.135c8.948 6.79 13.451 2.543 13.451 2.543L53.939 22.345z" style="mix-blend-mode:overlay"/></g><path fill="#E4E4E4" d="M62.628 47.886 59.6 43.96s-6.944-2.78-7.4-8.91c-.277 4.35-2.857 4.202-2.857 4.202s5.112 9.082 13.076 9.341z"/><path fill="#E4E4E4" d="M63.282 40.34c.767 2.904 1.196 3.878 1.196 3.878s.667 4.308-2.34 4.374l.439-4.374c.253-1.302.566-2.966.705-3.877"/><path fill="#F8F8F8" d="M48.215 38.798c.612 3.979 5.168 9.06 5.168 9.06s1.497.525 4.025-1.427c2.528-1.95 2.226-2.479 2.226-2.479-3.605-1.64-7.166-5.082-7.433-8.911 0 0-3.315 1.746-3.986 3.757M63.414 39.931s2.13 3.661 4.468 6.861c-1.339.461-2.06-.156-2.995-.492-.968-.347-2.278-2.412-2.278-2.412z"/></g><path fill="#F1AA90" d="M74.328 17.569C73.438 7.3 66.204 5.19 59.608 7.038c-5.44 1.522-8.422 3.97-8.363 10.993.076 9.153 5.242 17.716 8.462 19.921 2.175 1.49 4.962 2.724 8.108 1.081l.035-.018c2.736-1.429 4.909-2.564 6.176-10.209 0 0 .526-8.657.302-11.237"/><path fill="#411917" d="M58.959 20.945s1.56-1.416 3.044-1.657c1.027-.168 2.506.213 2.506.213s.372-.06-.309-.866-2.924-.051-2.924-.051-1.32.47-2.276 1.507c-.397.433-.345.983-.345.983s.095.2.302-.132zM61.6 23.779c.398-.009.71-.565.695-1.242-.014-.677-.35-1.22-.75-1.21-.398.008-.71.564-.695 1.242.014.677.35 1.219.75 1.21"/><path stroke="#411917" stroke-linecap="round" stroke-miterlimit="10" stroke-width=".646" d="M64.43 22.053s-.981-1.87-5.032.116"/><path fill="#411917" d="M73.38 19.851s-1.525-1.216-2.896-1.279c-.948-.044-2.27.508-2.27.508s-.344-.016.22-.894c.563-.877 2.663-.396 2.663-.396s1.237.31 2.184 1.221c.394.381.386.931.386.931s-.073.209-.286-.094zM70.456 23.365c-.363-.03-.62-.602-.574-1.278.046-.675.377-1.198.74-1.168.362.03.619.602.573 1.278-.046.675-.376 1.198-.74 1.168"/><path stroke="#411917" stroke-linecap="round" stroke-miterlimit="10" stroke-width=".646" d="M68.976 21.804s1.557-2.09 4.263-.035"/><path fill="#000" fill-opacity=".5" d="M70.2 27.805c-.046.273-1.203.823-1.776 1.063-2.333-.251-2.057-.495-1.377-1.037.68-.543 3.21-.369 3.153-.026" style="mix-blend-mode:overlay"/><path stroke="#411917" stroke-linecap="round" stroke-linejoin="round" stroke-width=".646" d="M67.32 23.206s.302 2.587 1.58 3.884c.249.252.259.58.04.846"/><mask id="M6mKMcYWwZPAFZaxxP2dx5_mgaCqqMLttg-e8txP1qU_e" width="6" height="4" x="62" y="31" maskUnits="userSpaceOnUse" style="mask-type:alpha"><path fill="#411917" d="M67.382 32.959c.59 1.44-.374 2.134-1.616 1.527-.858-.348-1.577-.698-2.33-.921-.94-.28-1.31-.774-.743-1.41.589-.662 3.601-1.854 4.689.804"/></mask><g mask="url(#M6mKMcYWwZPAFZaxxP2dx5_mgaCqqMLttg-e8txP1qU_e)"><path fill="#411917" d="M67.382 32.959c.59 1.44-.374 2.134-1.616 1.527-.858-.348-1.577-.698-2.33-.921-.94-.28-1.31-.774-.743-1.41.589-.662 3.601-1.854 4.689.804"/><path fill="#EA4F4A" d="M62.123 34.682c-1.516-.867-2.438-2.055-2.06-2.655s1.915-.383 3.43.484c1.517.867 2.439 2.055 2.06 2.654-.379.6-1.914.383-3.43-.483"/></g><path fill="#212121" d="m55.081 26.471-.932.564c-.193-1.03-.695-3.325-1.163-4.269-.585-1.18-2.538-.08-4.001-.982-1.463-.901-1.953-6.921-1.196-9.5.605-2.062 3.649-2.06 5.095-1.802.69.164 2.23 1.173 2.875 3.902.807 3.411-1.016 3.934-1.335 6.306-.255 1.897.332 4.644.657 5.781"/><path fill="#fff" d="m55.081 26.471-.932.564c-.193-1.03-.695-3.325-1.163-4.269-.585-1.18-2.538-.08-4.001-.982-1.463-.901-1.953-6.921-1.196-9.5.605-2.062 3.649-2.06 5.095-1.802.69.164 2.23 1.173 2.875 3.902.807 3.411-1.016 3.934-1.335 6.306-.255 1.897.332 4.644.657 5.781" opacity=".5" style="mix-blend-mode:overlay"/><path fill="#212121" d="M70.334 12.613c-6.568.61-12.983-.858-14.448 2.514-1.042.423-5.25-2.647-6.43-3.806-1.473-1.45-1.071-4.848 5.09-8.338 4.928-2.792 10.45-2.848 12.88.885.528-.305 4.321-1.151 6.594 2.53 1.81 2.93.401 6.895.076 9.147-.306-.599-.912-3.196-3.762-2.932"/><path fill="#F1AA90" d="M48.54 21.221c.858-1.373 3.825.084 4.153 1.684a163 163 0 0 0 1.23 5.436c-.48 2.324-1.733 1.502-2.522.984l-.019-.012c-1.78-.946-3.698-6.719-2.841-8.092"/><path fill="#000" fill-opacity=".5" d="M51.584 23.021s-2.534-1.847-1.444 2.014c.603 2.136 1.153-1.269 2.168.074-.031-.72-.079-1.262-.724-2.088" style="mix-blend-mode:overlay"/><path fill="#411917" fill-rule="evenodd" d="M50.656 23.952a.36.36 0 0 1 .485-.148c1.43.762 1.661 2.046 1.833 3l.014.078a.358.358 0 0 1-.62.301l-.023-.026c-.23-.258-.414-.465-.597-.569a.33.33 0 0 0-.19-.054c-.044.004-.118.026-.226.122a.358.358 0 1 1-.477-.535c.195-.173.408-.28.64-.3.204-.018.387.033.544.112-.192-.588-.523-1.117-1.235-1.496a.36.36 0 0 1-.148-.485" clip-rule="evenodd"/><path fill="#F8F8F8" d="M38.697 20.82 3.785 24.414C5.13 39.087 7.219 57.771 8.798 73.111c4.623-.068 20.342-2.094 34.912-3.594-1.196-8.019-3.868-35.057-5.013-48.697"/><path stroke="#3F568E" stroke-linecap="round" stroke-width="1.725" d="M22.742 30.508 34.9 29.177M23.593 34.161l7.438-.792"/><mask id="M6mKMcYWwZPAFZaxxP2dx5_mgaCqqMLttg-e8txP1qU_f" width="12" height="11" x="9" y="28" maskUnits="userSpaceOnUse" style="mask-type:alpha"><path fill="#39B54A" d="M14.673 38.61a5.258 5.258 0 1 0 .189-10.513 5.258 5.258 0 0 0-.19 10.514"/></mask><g mask="url(#M6mKMcYWwZPAFZaxxP2dx5_mgaCqqMLttg-e8txP1qU_f)"><path fill="#8E8E8E" d="M14.673 38.61a5.258 5.258 0 1 0 .189-10.513 5.258 5.258 0 0 0-.19 10.514"/><path fill="#F8F8F8" d="M14.502 33.796a2.194 2.194 0 1 0 .08-4.388 2.194 2.194 0 0 0-.08 4.388M15.449 43.401a4.328 4.328 0 1 0 .155-8.655 4.328 4.328 0 0 0-.155 8.655"/></g><path stroke="#293A6E" stroke-linecap="round" stroke-linejoin="round" stroke-width="1.536" d="m15.038 65.182 19.943-2.163-2.052-18.925-19.943 2.163z"/><path fill="#FF9300" d="M20.749 49.058a2.321 2.321 0 0 0-2.91 3.617l2.881 2.317-2.317 2.88a2.321 2.321 0 1 0 3.618 2.91l2.316-2.88 2.88 2.316a2.321 2.321 0 1 0 2.91-3.617l-2.88-2.317 2.317-2.88a2.321 2.321 0 1 0-3.617-2.91l-2.317 2.88z"/><path fill="#F1AA90" d="M.869 47.874c-.248 2.234 2.014 2.318 3.935 2.489 2.662.237 4.74-.196 4.926-2.299.157-1.762-2.04-2.669-4.703-2.905-.945-.084-3.854-.037-4.158 2.715"/><path fill="#F1AA90" d="M1.113 51.926C.071 56.1 4.036 55.1 4.656 55.152c2.663.223 6.672.254 6.917-2.675.173-2.06-4.057-2.307-6.72-2.53-.642-.054-3.07-.708-3.74 1.977"/><path fill="#F1AA90" d="M1.883 57.207c-.543 2.714.681 2.82 4.123 2.946 2.67.098 4.722-.442 4.8-2.551.065-1.769-2.177-2.56-4.848-2.658s-3.668.228-4.075 2.263"/><path fill="#F1AA90" d="M3.956 63.043c.497 1.926 1.958 2.348 3.409 2.092 2.264-.4 3.83-1.292 3.295-3.312-.448-1.694-2.55-2.032-4.815-1.633-2.264.399-2.264 1.401-1.89 2.853"/></g><defs><clipPath id="M6mKMcYWwZPAFZaxxP2dx5_mgaCqqMLttg-e8txP1qU_a"><path fill="#fff" d="M0 0h80v80H0z"/></clipPath><clipPath id="M6mKMcYWwZPAFZaxxP2dx5_mgaCqqMLttg-e8txP1qU_b"><rect width="66.667" height="66.667" x="6.667" y="6.667" fill="#fff" rx="16.665"/></clipPath></defs></svg>