<svg xmlns="http://www.w3.org/2000/svg" width="150" height="150" fill="none" class="persona-ilustration" viewBox="0 0 150 150"><g clip-path="url(#HplYPoNBeR_a)"><g clip-path="url(#HplYPoNBeR_b)"><rect width="125" height="125" x="12.5" y="12.5" fill="#D3EDFF" rx="62.5"/><path fill="#30457A" d="M72.2 81.688C48.859 53.643 38.88 49.617 27.907 55.98s19.243 110.362 19.243 110.362l49.132 2.95-.08-.472c-3.962-23.142-12.563-73.392-24-87.132"/><path fill="#3F568E" d="M98.471 63.012c-9.846-15.068-55.325-12.102-67.157-8.72s12.843 79.719 12.843 79.719l54.315 30.224c-3.924-22.923 9.845-86.155 0-101.223"/><path fill="#EFEFEF" d="M118.238 127.625c3.96 2.466 17.501 5.715 21.906-3.795-4.485-9.841-23.041-67.28-44.092-53.528-5.678 3.71 19.914 47.103 22.186 57.323"/><mask id="HplYPoNBeR_c" width="83" height="119" x="39" y="60" maskUnits="userSpaceOnUse" style="mask-type:alpha"><path fill="#666" d="M117.127 80.663s-5.583-12.027-15.015-12.92c-11.048-1.047-29.535-7.394-34.295-6.796S48.191 65.352 53.85 87.011c8.422 32.235-14.279 89.823-14.279 89.823s54.406 3.738 74.247-.14c3.037-21.617 4.268-30.179 6.601-63.314 3.001-25.056-3.292-32.717-3.292-32.717"/></mask><g mask="url(#HplYPoNBeR_c)"><path fill="#666" d="M115.179 80.825s-3.636-12.189-13.069-13.082c-11.048-1.047-29.535-7.394-34.295-6.796S48.19 65.352 53.848 87.011c8.422 32.235-14.279 89.823-14.279 89.823s48.231 3.878 68.072 0c3.037-21.617 4.268-30.179 6.602-63.314 3-25.056.936-32.695.936-32.695"/><path fill="#F8F8F8" d="M101.008 65.65c4.067 4.266 1.388 16.846-1.057 21.54-1.62 3.11-10.482-6.15-22.807-25.723-2.75-5.584 18.78-1.151 23.864 4.182"/><path fill="#8E8E8E" fill-rule="evenodd" d="M95.492 60.104c2.752 1.103 5.385 2.51 6.964 4.165 1.417 1.487 2.111 3.536 2.423 5.584.317 2.08.276 4.384.03 6.624-.486 4.447-1.82 9.018-3.184 11.637a3.1 3.1 0 0 1-1.1 1.21c-.51.32-1.062.449-1.584.457-.968.014-1.879-.387-2.618-.822-1.523-.896-3.334-2.562-5.344-4.782-4.07-4.496-9.438-11.815-15.628-21.645a2 2 0 0 1-.101-.182c-.559-1.133-.726-2.592.285-3.806.811-.974 2.057-1.339 3.033-1.502 2.069-.346 4.944-.093 7.843.457 2.956.561 6.163 1.475 8.98 2.605m-16.273.903c5.97 9.432 11.059 16.325 14.826 20.486 1.949 2.153 3.428 3.443 4.407 4.02l.069.039c.986-2.213 2.012-5.854 2.412-9.51.222-2.025.24-3.96-.008-5.585-.253-1.657-.748-2.781-1.365-3.428-.963-1.01-2.928-2.158-5.556-3.212-2.563-1.027-5.52-1.872-8.239-2.388-2.775-.527-5.084-.668-6.437-.442z" clip-rule="evenodd"/></g><path fill="#8E8E8E" d="M64.595 100.596c-4.012 2.38-14.879 3.178-19.08-6.423 0-13.132 18.336-40.037 26.346-31.866 5.598 3.83 3.504 43.409-7.266 38.289"/><path fill="#EFEFEF" d="M67.755 101.902c-4.012 2.381-21.226 2.452-25.428-7.15 0-13.131 18.336-40.036 26.346-31.865 5.598 3.83 1.572 28.846-.918 39.015"/><mask id="HplYPoNBeR_d" width="23" height="41" x="80" y="34" maskUnits="userSpaceOnUse" style="mask-type:alpha"><path fill="#000" d="M102.422 50.363S97.45 66.2 98.447 72.832c.976 6.506-17.719-9.142-17.719-9.142s-1.605-7.875.966-23.787 20.733 10.459 20.733 10.459z"/></mask><g mask="url(#HplYPoNBeR_d)"><path fill="#F1AA90" d="M102.421 50.363S97.449 66.2 98.446 72.832c.976 6.506-19.374-9.385-19.374-9.385s2.598-4.515 5.169-20.427 18.185 7.342 18.185 7.342z"/><path fill="#000" fill-opacity=".5" d="M80.361 39.278s.27 9.449 9.093 18.962c13.982 10.608 21.018 3.973 21.018 3.973L84.544 35.216z" style="mix-blend-mode:overlay"/></g><path fill="#E4E4E4" d="m98.121 75.124-4.73-6.134s-10.85-4.343-11.561-13.92c-.433 6.794-4.464 6.564-4.464 6.564s7.987 14.19 20.431 14.596z"/><path fill="#E4E4E4" d="M99.143 63.335c1.198 4.536 1.869 6.058 1.869 6.058s1.043 6.732-3.657 6.835l.687-6.835c.395-2.034.884-4.635 1.101-6.059"/><path fill="#F8F8F8" d="M75.602 60.924c.956 6.217 8.075 14.157 8.075 14.157s2.338.82 6.288-2.23c3.95-3.048 3.479-3.874 3.479-3.874-5.634-2.56-11.197-7.941-11.614-13.923 0 0-5.181 2.728-6.228 5.87M99.349 62.695s3.328 5.72 6.982 10.72c-2.092.72-3.219-.244-4.68-.769-1.513-.543-3.56-3.768-3.56-3.768z"/></g><path fill="#F8F8F8" d="M60.73 32.832 6.178 38.447c2.104 22.929 5.366 52.123 7.833 76.093 7.224-.106 31.787-3.272 54.553-5.615-1.868-12.53-6.043-54.78-7.832-76.093"/><path stroke="#3F568E" stroke-linecap="round" stroke-width="2.695" d="m35.798 47.97 19-2.08M37.128 53.678l11.623-1.238"/><mask id="HplYPoNBeR_e" width="17" height="17" x="15" y="44" maskUnits="userSpaceOnUse" style="mask-type:alpha"><path fill="#39B54A" d="M23.19 60.631a8.215 8.215 0 1 0 .295-16.428 8.215 8.215 0 0 0-.295 16.428"/></mask><g mask="url(#HplYPoNBeR_e)"><path fill="#8E8E8E" d="M23.19 60.631a8.215 8.215 0 1 0 .295-16.428 8.215 8.215 0 0 0-.295 16.428"/><path fill="#F8F8F8" d="M22.924 53.108a3.429 3.429 0 1 0 .123-6.856 3.429 3.429 0 0 0-.123 6.856M24.402 68.117a6.763 6.763 0 1 0 .243-13.525 6.763 6.763 0 0 0-.243 13.525"/></g><path stroke="#293A6E" stroke-linecap="round" stroke-linejoin="round" stroke-width="2.401" d="m23.762 102.151 31.162-3.38L51.717 69.2l-31.162 3.38z"/><path fill="#FF9300" d="M32.684 76.955a3.627 3.627 0 1 0-4.546 5.652l4.501 3.621-3.62 4.501a3.627 3.627 0 1 0 5.653 4.546l3.62-4.5 4.5 3.62a3.627 3.627 0 0 0 4.547-5.653l-4.501-3.62 3.62-4.502a3.627 3.627 0 1 0-5.651-4.546l-3.621 4.502z"/><path fill="#F1AA90" d="M1.62 75.105c-.386 3.492 3.147 3.622 6.15 3.89 4.159.37 7.405-.307 7.697-3.593.245-2.754-3.19-4.17-7.348-4.54-1.477-.13-6.023-.056-6.499 4.243"/><path fill="#F1AA90" d="M2.003 81.436C.375 87.96 6.57 86.398 7.538 86.48c4.16.349 10.424.397 10.809-4.181.27-3.217-6.34-3.604-10.5-3.953-1.006-.084-4.798-1.106-5.845 3.09"/><path fill="#F1AA90" d="M3.205 89.69c-.85 4.24 1.065 4.405 6.442 4.603 4.172.153 7.38-.69 7.5-3.987.102-2.763-3.401-3.999-7.574-4.152-4.172-.154-5.732.356-6.368 3.536"/><path fill="#F1AA90" d="M6.444 98.808c.777 3.01 3.06 3.669 5.327 3.269 3.538-.623 5.984-2.018 5.149-5.175-.7-2.647-3.985-3.176-7.523-2.552s-3.538 2.19-2.953 4.458M116.403 27.754c-1.39-16.044-12.694-19.34-23-16.455-8.5 2.379-13.16 6.204-13.068 17.177.119 14.3 8.19 27.68 13.222 31.127 3.4 2.328 7.754 4.256 12.668 1.69l.055-.03c4.275-2.232 7.671-4.005 9.651-15.951 0 0 .821-13.527.472-17.558"/><path fill="#411917" d="M92.388 33.03s2.44-2.214 4.757-2.59c1.604-.262 3.915.333 3.915.333s.582-.095-.482-1.354-4.57-.08-4.57-.08-2.06.736-3.555 2.356c-.621.676-.54 1.536-.54 1.536s.149.311.473-.206zM96.514 37.457c.624-.013 1.11-.882 1.088-1.94-.024-1.059-.548-1.906-1.172-1.892s-1.11.883-1.087 1.94c.023 1.06.547 1.906 1.17 1.892"/><path stroke="#411917" stroke-linecap="round" stroke-miterlimit="10" stroke-width="1.009" d="M100.937 34.76s-1.533-2.921-7.863.182"/><path fill="#411917" d="M114.922 31.32s-2.384-1.9-4.526-1.998c-1.482-.069-3.547.793-3.547.793s-.538-.025.343-1.396 4.162-.619 4.162-.619 1.933.483 3.413 1.908c.615.595.602 1.455.602 1.455s-.113.325-.446-.148zM110.352 36.81c-.567-.047-.968-.94-.897-1.996.072-1.056.589-1.873 1.155-1.826s.968.941.897 1.997c-.072 1.055-.589 1.873-1.155 1.825"/><path stroke="#411917" stroke-linecap="round" stroke-miterlimit="10" stroke-width="1.009" d="M108.04 34.372s2.432-3.266 6.661-.056"/><path fill="#000" fill-opacity=".5" d="M109.952 43.747c-.071.428-1.88 1.287-2.775 1.663-3.645-.393-3.213-.774-2.151-1.622 1.061-.847 5.014-.576 4.926-.04" style="mix-blend-mode:overlay"/><path stroke="#411917" stroke-linecap="round" stroke-linejoin="round" stroke-width="1.009" d="M105.453 36.561s.471 4.043 2.467 6.07c.39.394.406.905.063 1.322"/><mask id="HplYPoNBeR_f" width="9" height="6" x="97" y="49" maskUnits="userSpaceOnUse" style="mask-type:alpha"><path fill="#411917" d="M105.549 51.8c.921 2.251-.584 3.335-2.524 2.386-1.341-.542-2.465-1.09-3.64-1.438-1.47-.437-2.048-1.21-1.163-2.204.92-1.034 5.628-2.897 7.327 1.257"/></mask><g mask="url(#HplYPoNBeR_f)"><path fill="#411917" d="M105.549 51.8c.921 2.251-.584 3.335-2.524 2.386-1.341-.542-2.465-1.09-3.64-1.438-1.47-.437-2.048-1.21-1.163-2.204.92-1.034 5.628-2.897 7.327 1.257"/><path fill="#EA4F4A" d="M97.332 54.493c-2.37-1.354-3.81-3.211-3.218-4.148.591-.936 2.991-.598 5.36.756s3.809 3.211 3.218 4.148-2.992.598-5.36-.756"/></g><path fill="#212121" d="m86.33 41.664-1.458.882c-.3-1.61-1.085-5.197-1.816-6.671-.914-1.843-3.967-.126-6.252-1.535-2.286-1.408-3.051-10.814-1.869-14.843.946-3.222 5.702-3.22 7.961-2.816 1.078.256 3.484 1.833 4.493 6.097 1.26 5.33-1.588 6.147-2.086 9.852-.398 2.965.519 7.258 1.027 9.034"/><path fill="#fff" d="m86.33 41.664-1.458.882c-.3-1.61-1.085-5.197-1.816-6.671-.914-1.843-3.967-.126-6.252-1.535-2.286-1.408-3.051-10.814-1.869-14.843.946-3.222 5.702-3.22 7.961-2.816 1.078.256 3.484 1.833 4.493 6.097 1.26 5.33-1.588 6.147-2.086 9.852-.398 2.965.519 7.258 1.027 9.034" opacity=".5" style="mix-blend-mode:overlay"/><path fill="#212121" d="M110.162 20.01c-10.262.952-20.286-1.34-22.575 3.927-1.629.663-8.204-4.134-10.046-5.945-2.302-2.265-1.675-7.576 7.951-13.029 7.7-4.362 16.328-4.45 20.127 1.383.824-.477 6.751-1.799 10.302 3.953 2.827 4.58.627 10.774.119 14.293-.478-.936-1.425-4.995-5.878-4.582"/><path fill="#F1AA90" d="M76.11 33.46c1.34-2.145 5.975.132 6.487 2.631.85 4.148 1.922 8.494 1.922 8.494-.75 3.632-2.706 2.348-3.94 1.538l-.029-.02c-2.781-1.477-5.78-10.497-4.44-12.643"/><path fill="#000" fill-opacity=".5" d="M80.866 36.273s-3.96-2.886-2.257 3.146c.942 3.337 1.802-1.982 3.388.117-.05-1.125-.123-1.972-1.131-3.263" style="mix-blend-mode:overlay"/><path fill="#411917" fill-rule="evenodd" d="M79.415 37.728a.56.56 0 0 1 .757-.231c2.235 1.19 2.597 3.197 2.865 4.688l.022.12a.56.56 0 0 1-.969.472l-.036-.041c-.36-.405-.647-.727-.934-.89a.5.5 0 0 0-.295-.084c-.07.006-.185.04-.354.19a.56.56 0 0 1-.745-.835c.304-.271.638-.437 1-.47.318-.028.604.052.85.175-.3-.918-.817-1.745-1.93-2.337a.56.56 0 0 1-.23-.757" clip-rule="evenodd"/></g><defs><clipPath id="HplYPoNBeR_a"><path fill="#fff" d="M0 0h150v150H0z"/></clipPath><clipPath id="HplYPoNBeR_b"><rect width="125" height="125" x="12.5" y="12.5" fill="#fff" rx="62.5"/></clipPath></defs></svg>