<svg xmlns="http://www.w3.org/2000/svg" width="300" height="300" fill="none" class="persona-ilustration" viewBox="0 0 300 300"><g clip-path="url(#3iSo5F0ihD_a)"><g clip-path="url(#3iSo5F0ihD_b)"><rect width="250" height="250" x="25" y="25" fill="#D3EDFF" rx="125"/><path fill="#30457A" d="M144.402 163.375c-46.687-56.088-66.642-64.14-88.59-51.415s38.485 220.724 38.485 220.724l98.265 5.9-.161-.945c-7.923-46.283-25.126-146.783-47.999-174.264"/><path fill="#3F568E" d="M196.942 126.023c-19.692-30.136-110.65-24.204-134.314-17.44s25.686 159.439 25.686 159.439l108.63 60.447c-7.849-45.846 19.691-172.309-.002-202.446"/><path fill="#EFEFEF" d="M236.475 255.251c7.921 4.93 35.002 11.429 43.813-7.591-8.97-19.682-46.082-134.56-88.184-107.056-11.357 7.419 39.828 94.206 44.371 114.647"/><mask id="3iSo5F0ihD_c" width="164" height="236" x="79" y="121" maskUnits="userSpaceOnUse" style="mask-type:alpha"><path fill="#666" d="M234.254 161.326s-11.165-24.053-30.03-25.84c-22.096-2.094-59.071-14.787-68.59-13.591s-39.252 8.81-27.935 52.126c16.845 64.472-28.557 179.646-28.557 179.646s108.811 7.477 148.494-.28c6.074-43.234 8.536-60.358 13.202-126.628 6.002-50.111-6.584-65.433-6.584-65.433"/></mask><g mask="url(#3iSo5F0ihD_c)"><path fill="#666" d="M230.358 161.651s-7.273-24.378-26.138-26.165c-22.096-2.093-59.071-14.787-68.59-13.591-9.518 1.196-39.252 8.81-27.934 52.127 16.845 64.471-28.557 179.646-28.557 179.646s96.461 7.757 136.143 0c6.075-43.234 8.537-60.358 13.203-126.628 6.001-50.112 1.873-65.389 1.873-65.389"/><path fill="#F8F8F8" d="M202.015 131.298c8.134 8.534 2.776 33.693-2.113 43.083-3.239 6.22-20.964-12.3-45.615-51.448-5.499-11.167 37.561-2.302 47.728 8.365"/><path fill="#8E8E8E" fill-rule="evenodd" d="M190.984 120.208c5.504 2.206 10.77 5.018 13.927 8.331 2.834 2.973 4.223 7.071 4.848 11.168.634 4.158.55 8.767.06 13.247-.974 8.893-3.642 18.036-6.369 23.274-.474.911-1.185 1.784-2.2 2.42a6.1 6.1 0 0 1-3.168.913c-1.935.028-3.758-.772-5.236-1.643-3.046-1.793-6.668-5.124-10.687-9.564-8.141-8.992-18.877-23.629-31.256-43.29a4 4 0 0 1-.204-.364c-1.117-2.267-1.451-5.185.57-7.611 1.623-1.949 4.115-2.679 6.066-3.005 4.139-.693 9.89-.186 15.687.914 5.911 1.122 12.325 2.951 17.962 5.21m-32.547 1.805c11.941 18.866 22.119 32.651 29.653 40.972 3.898 4.306 6.855 6.886 8.814 8.039l.137.079c1.972-4.425 4.025-11.708 4.825-19.02.444-4.05.48-7.918-.016-11.17-.505-3.314-1.497-5.562-2.73-6.855-1.926-2.021-5.855-4.317-11.113-6.425-5.125-2.054-11.038-3.743-16.476-4.775-5.551-1.054-10.169-1.337-12.876-.884z" clip-rule="evenodd"/></g><path fill="#8E8E8E" d="M129.191 201.192c-8.025 4.76-29.758 6.356-38.162-12.847 0-26.262 36.673-80.073 52.693-63.73 11.196 7.659 7.009 86.817-14.531 76.577"/><path fill="#EFEFEF" d="M135.51 203.805c-8.024 4.76-42.452 4.903-50.856-14.3 0-26.263 36.673-80.073 52.693-63.731 11.196 7.659 3.142 57.692-1.837 78.031"/><mask id="3iSo5F0ihD_d" width="45" height="80" x="160" y="69" maskUnits="userSpaceOnUse" style="mask-type:alpha"><path fill="#000" d="M204.845 100.727s-9.945 31.673-7.951 44.937c1.953 13.011-35.437-18.284-35.437-18.284s-3.21-15.749 1.932-47.573c5.142-31.825 41.466 20.917 41.466 20.917z"/></mask><g mask="url(#3iSo5F0ihD_d)"><path fill="#F1AA90" d="M204.843 100.727s-9.945 31.673-7.95 44.937c1.953 13.011-38.747-18.771-38.747-18.771s5.195-9.028 10.337-40.853c5.142-31.824 36.37 14.684 36.37 14.684z"/><path fill="#000" fill-opacity=".5" d="M160.723 78.556s.537 18.897 18.185 37.924c27.964 21.216 42.037 7.946 42.037 7.946l-51.857-53.994z" style="mix-blend-mode:overlay"/></g><path fill="#E4E4E4" d="m196.242 150.248-9.459-12.269s-21.699-8.685-23.124-27.841c-.865 13.59-8.928 13.13-8.928 13.13s15.975 28.379 40.863 29.191z"/><path fill="#E4E4E4" d="M198.287 126.669c2.396 9.074 3.737 12.117 3.737 12.117s2.086 13.463-7.314 13.669l1.374-13.669c.789-4.069 1.768-9.27 2.203-12.117"/><path fill="#F8F8F8" d="M151.203 121.848c1.913 12.434 16.151 28.315 16.151 28.315s4.676 1.637 12.576-4.46c7.9-6.098 6.958-7.748 6.958-7.748-11.269-5.122-22.395-15.883-23.228-27.847 0 0-10.362 5.455-12.457 11.74M198.698 125.391s6.656 11.439 13.964 21.44c-4.184 1.44-6.438-.49-9.36-1.538-3.026-1.086-7.118-7.537-7.118-7.537z"/></g><path fill="#F8F8F8" d="M121.461 65.664 12.355 76.895c4.207 45.857 10.73 104.246 15.665 152.186 14.448-.213 63.573-6.545 109.107-11.232-3.737-25.06-12.088-109.558-15.666-152.185"/><path stroke="#3F568E" stroke-linecap="round" stroke-width="5.39" d="m71.596 95.939 38-4.16M74.257 107.356l23.245-2.477"/><mask id="3iSo5F0ihD_e" width="34" height="34" x="30" y="88" maskUnits="userSpaceOnUse" style="mask-type:alpha"><path fill="#39B54A" d="M46.38 121.262c9.074.163 16.56-7.06 16.724-16.132.163-9.073-7.06-16.56-16.133-16.723s-16.56 7.06-16.723 16.132 7.06 16.56 16.133 16.723"/></mask><g mask="url(#3iSo5F0ihD_e)"><path fill="#8E8E8E" d="M46.38 121.262c9.074.163 16.56-7.06 16.724-16.132.163-9.073-7.06-16.56-16.133-16.723s-16.56 7.06-16.723 16.132 7.06 16.56 16.133 16.723"/><path fill="#F8F8F8" d="M45.849 106.217a6.858 6.858 0 1 0 .245-13.714 6.858 6.858 0 0 0-.245 13.714M48.805 136.234c7.47.134 13.633-5.812 13.767-13.282s-5.812-13.633-13.282-13.768c-7.47-.134-13.633 5.813-13.767 13.282s5.812 13.634 13.282 13.768"/></g><path stroke="#293A6E" stroke-linecap="round" stroke-linejoin="round" stroke-width="4.802" d="m47.523 204.302 62.325-6.758-6.414-59.145-62.325 6.758z"/><path fill="#FF9300" d="M65.368 153.91a7.254 7.254 0 0 0-9.093 11.305l9.004 7.242-7.24 9.001a7.254 7.254 0 0 0 11.304 9.093l7.24-9.002 9.002 7.24a7.253 7.253 0 1 0 9.093-11.304l-9.002-7.24 7.242-9.004a7.254 7.254 0 0 0-11.305-9.093l-7.242 9.004z"/><path fill="#F1AA90" d="M3.24 150.21c-.772 6.984 6.294 7.245 12.3 7.779 8.317.74 14.81-.613 15.395-7.184.49-5.508-6.38-8.34-14.697-9.08-2.955-.263-12.046-.113-12.997 8.485"/><path fill="#F1AA90" d="M4.005 162.873c-3.256 13.047 9.135 9.924 11.072 10.086 8.322.699 20.85.795 21.618-8.361.54-6.434-12.68-7.207-21-7.906-2.01-.168-9.596-2.212-11.69 6.181"/><path fill="#F1AA90" d="M6.41 179.379c-1.698 8.482 2.13 8.811 12.884 9.207 8.345.307 14.759-1.381 15.001-7.974.203-5.526-6.804-7.997-15.149-8.304s-11.463.712-12.736 7.071"/><path fill="#F1AA90" d="M12.889 197.616c1.553 6.02 6.119 7.338 10.652 6.539 7.076-1.248 11.968-4.037 10.299-10.352-1.4-5.293-7.97-6.351-15.046-5.103-7.077 1.248-7.077 4.379-5.905 8.916M232.806 55.508c-2.78-32.088-25.388-38.68-46.001-32.91-17 4.757-26.318 12.409-26.135 34.353.238 28.603 16.38 55.362 26.444 62.255 6.799 4.656 15.508 8.513 25.337 3.379l.11-.057c8.549-4.466 15.34-8.013 19.3-31.904 0 0 1.644-27.054.945-35.116"/><path fill="#411917" d="M184.776 66.06s4.879-4.428 9.515-5.181c3.208-.523 7.83.667 7.83.667s1.164-.19-.965-2.708c-2.129-2.517-9.138-.158-9.138-.158s-4.123 1.47-7.113 4.71c-1.241 1.352-1.078 3.072-1.078 3.072s.297.622.945-.412zM193.028 74.915c1.247-.028 2.221-1.765 2.175-3.882s-1.095-3.81-2.343-3.782c-1.247.027-2.221 1.765-2.175 3.881s1.095 3.81 2.343 3.783"/><path stroke="#411917" stroke-linecap="round" stroke-miterlimit="10" stroke-width="2.017" d="M201.874 69.52s-3.066-5.842-15.725.364"/><path fill="#411917" d="M229.845 62.64s-4.768-3.8-9.051-3.997c-2.964-.137-7.095 1.586-7.095 1.586s-1.075-.05.686-2.791 8.324-1.238 8.324-1.238 3.866.966 6.826 3.815c1.23 1.191 1.204 2.91 1.204 2.91s-.226.651-.892-.295zM220.705 73.62c-1.133-.094-1.935-1.882-1.793-3.992s1.177-3.746 2.31-3.651c1.133.094 1.936 1.882 1.793 3.992s-1.177 3.746-2.31 3.652"/><path stroke="#411917" stroke-linecap="round" stroke-miterlimit="10" stroke-width="2.017" d="M216.08 68.743s4.866-6.53 13.323-.11"/><path fill="#000" fill-opacity=".5" d="M219.904 87.494c-.142.856-3.759 2.573-5.55 3.325-7.289-.786-6.426-1.548-4.302-3.243 2.123-1.694 10.029-1.151 9.852-.082" style="mix-blend-mode:overlay"/><path stroke="#411917" stroke-linecap="round" stroke-linejoin="round" stroke-width="2.017" d="M210.906 73.123s.942 8.086 4.935 12.138c.779.789.811 1.812.125 2.644"/><mask id="3iSo5F0ihD_f" width="17" height="12" x="195" y="98" maskUnits="userSpaceOnUse" style="mask-type:alpha"><path fill="#411917" d="M211.099 103.601c1.841 4.501-1.167 6.669-5.049 4.771-2.681-1.085-4.93-2.179-7.28-2.877-2.938-.873-4.096-2.417-2.324-4.408 1.84-2.067 11.254-5.792 14.653 2.514"/></mask><g mask="url(#3iSo5F0ihD_f)"><path fill="#411917" d="M211.099 103.601c1.841 4.501-1.167 6.669-5.049 4.771-2.681-1.085-4.93-2.179-7.28-2.877-2.938-.873-4.096-2.417-2.324-4.408 1.84-2.067 11.254-5.792 14.653 2.514"/><path fill="#EA4F4A" d="M194.664 108.985c-4.738-2.708-7.619-6.422-6.435-8.295 1.183-1.873 5.982-1.196 10.72 1.512 4.737 2.708 7.619 6.422 6.435 8.295-1.183 1.873-5.983 1.197-10.72-1.512"/></g><path fill="#212121" d="m172.66 83.327-2.915 1.764c-.602-3.219-2.17-10.393-3.633-13.342-1.828-3.686-7.933-.251-12.504-3.068s-6.103-21.63-3.737-29.687c1.892-6.445 11.403-6.44 15.921-5.632 2.155.511 6.968 3.665 8.985 12.193 2.522 10.66-3.176 12.294-4.171 19.705-.797 5.929 1.037 14.515 2.054 18.067"/><path fill="#fff" d="m172.66 83.327-2.915 1.764c-.602-3.219-2.17-10.393-3.633-13.342-1.828-3.686-7.933-.251-12.504-3.068s-6.103-21.63-3.737-29.687c1.892-6.445 11.403-6.44 15.921-5.632 2.155.511 6.968 3.665 8.985 12.193 2.522 10.66-3.176 12.294-4.171 19.705-.797 5.929 1.037 14.515 2.054 18.067" opacity=".5" style="mix-blend-mode:overlay"/><path fill="#212121" d="M220.324 40.02c-20.524 1.904-40.571-2.682-45.149 7.855-3.258 1.325-16.409-8.269-20.092-11.892-4.605-4.528-3.35-15.15 15.902-26.057 15.401-8.725 32.656-8.9 40.253 2.766 1.648-.954 13.502-3.598 20.604 7.906 5.654 9.159 1.254 21.547.238 28.585-.956-1.872-2.849-9.988-11.756-9.162"/><path fill="#F1AA90" d="M152.221 66.92c2.678-4.29 11.951.264 12.974 5.263 1.7 8.295 3.843 16.987 3.843 16.987-1.498 7.264-5.412 4.695-7.88 3.076l-.058-.038c-5.562-2.955-11.558-20.997-8.879-25.287"/><path fill="#000" fill-opacity=".5" d="M161.732 72.546s-7.92-5.772-4.514 6.292c1.885 6.675 3.604-3.963 6.776.233-.099-2.248-.246-3.943-2.262-6.525" style="mix-blend-mode:overlay"/><path fill="#411917" fill-rule="evenodd" d="M158.831 75.456c.29-.546.968-.753 1.513-.462 4.471 2.379 5.194 6.393 5.731 9.375l.043.241a1.119 1.119 0 0 1-1.937.943l-.072-.081c-.72-.81-1.294-1.454-1.868-1.78-.262-.147-.447-.18-.591-.168-.138.012-.37.079-.707.38a1.12 1.12 0 0 1-1.489-1.67c.607-.542 1.274-.875 1.999-.939.635-.056 1.208.103 1.7.35-.6-1.836-1.634-3.492-3.86-4.676a1.12 1.12 0 0 1-.462-1.513" clip-rule="evenodd"/></g><defs><clipPath id="3iSo5F0ihD_a"><path fill="#fff" d="M0 0h300v300H0z"/></clipPath><clipPath id="3iSo5F0ihD_b"><rect width="250" height="250" x="25" y="25" fill="#fff" rx="125"/></clipPath></defs></svg>