<svg xmlns="http://www.w3.org/2000/svg" width="24" height="24" fill="none"><path fill="url(#a)" d="M18.93 8A8 8 0 0 0 5.07 8l.48 8.64z"/><path fill="url(#b)" d="M8.53 14 5.07 8A8 8 0 0 0 12 20l7.84-8-11.3 2Z"/><path fill="url(#c)" d="M15.46 14 12 20a8 8 0 0 0 6.93-12H12z"/><path fill="#fff" d="M12 16a4 4 0 1 0 0-8 4 4 0 0 0 0 8"/><path fill="#1A73E8" d="M12 15.17a3.17 3.17 0 1 0 0-6.34 3.17 3.17 0 0 0 0 6.34"/><defs><linearGradient id="a" x1="5.07" x2="18.93" y1="9" y2="9" gradientUnits="userSpaceOnUse"><stop stop-color="#D93025"/><stop offset="1" stop-color="#EA4335"/></linearGradient><linearGradient id="b" x1="12.87" x2="5.94" y1="19.5" y2="7.5" gradientUnits="userSpaceOnUse"><stop stop-color="#1E8E3E"/><stop offset="1" stop-color="#34A853"/></linearGradient><linearGradient id="c" x1="10.83" x2="17.76" y1="20" y2="8.02" gradientUnits="userSpaceOnUse"><stop stop-color="#FCC934"/><stop offset="1" stop-color="#FBBC04"/></linearGradient></defs></svg>