<svg xmlns="http://www.w3.org/2000/svg" width="32" height="32" fill="none" class="persona-icon" viewBox="0 0 32 32"><path fill="currentColor" fill-rule="evenodd" d="M30.025 16c0-.577-.303-1.103-.91-2.154L24.423 5.72c-.607-1.051-.91-1.577-1.41-1.866-.5-.288-1.107-.288-2.321-.288h-9.385c-1.214 0-1.82 0-2.32.288-.5.289-.804.815-1.41 1.866l-4.693 8.127c-.607 1.051-.91 1.577-.91 2.154s.303 1.103.91 2.154l4.693 8.127c.606 1.052.91 1.577 1.41 1.866.5.288 1.106.288 2.32.288h9.385c1.214 0 1.82 0 2.32-.288.5-.289.804-.814 1.41-1.866l4.693-8.127c.607-1.051.91-1.577.91-2.154m-14.023 4.843a4.84 4.84 0 1 1 0-9.682 4.84 4.84 0 0 1 0 9.682" clip-rule="evenodd"/><mask id="a" width="30" height="26" x="1" y="3" maskUnits="userSpaceOnUse" style="mask-type:alpha"><path fill="currentColor" fill-rule="evenodd" d="M30.025 16c0-.577-.303-1.103-.91-2.154L24.423 5.72c-.607-1.051-.91-1.577-1.41-1.866-.5-.288-1.107-.288-2.321-.288h-9.385c-1.214 0-1.82 0-2.32.288-.5.289-.804.815-1.41 1.866l-4.693 8.127c-.607 1.051-.91 1.577-.91 2.154s.303 1.103.91 2.154l4.693 8.127c.606 1.052.91 1.577 1.41 1.866.5.288 1.106.288 2.32.288h9.385c1.214 0 1.82 0 2.32-.288.5-.289.804-.814 1.41-1.866l4.693-8.127c.607-1.051.91-1.577.91-2.154m-14.023 4.843a4.84 4.84 0 1 1 0-9.682 4.84 4.84 0 0 1 0 9.682" clip-rule="evenodd"/></mask><g mask="url(#a)"><circle cx="16" cy="16" r="14" fill="url(#b)" fill-opacity=".1" style="mix-blend-mode:multiply"/></g><defs><linearGradient id="b" x1="16" x2="10.307" y1="16" y2="11.24" gradientUnits="userSpaceOnUse"><stop offset=".158" stop-opacity="0"/><stop offset=".158"/><stop offset=".366" stop-opacity=".75"/><stop offset=".573" stop-opacity=".5"/><stop offset=".802" stop-opacity=".25"/><stop offset="1" stop-opacity="0"/></linearGradient></defs></svg>