<svg xmlns="http://www.w3.org/2000/svg" width="32" height="32" fill="none" class="persona-icon" viewBox="0 0 32 32"><path fill="currentColor" d="M14.111 14.074a1.889 1.889 0 1 1 3.778 0 1.889 1.889 0 0 1-3.778 0Z"/><path fill="currentColor" d="M8.333 16a7.667 7.667 0 1 1 13.644 4.801 5.595 5.595 0 0 0-4.244-1.95h-3.466a5.595 5.595 0 0 0-4.244 1.95A7.634 7.634 0 0 1 8.333 16ZM16 10.185a3.889 3.889 0 1 0 0 7.778 3.889 3.889 0 0 0 0-7.778ZM20.467 22.113c.021.024.041.05.06.075A7.632 7.632 0 0 1 16 23.667a7.632 7.632 0 0 1-4.527-1.479l.06-.075a3.595 3.595 0 0 1 2.734-1.261h3.466c1.052 0 2.051.46 2.734 1.26Z"/><path fill="currentColor" d="M14.899 2.043a14.186 14.186 0 0 1 2.202 0c.587.045 1.08.411 1.314.92l1.158 2.513c.462.157.91.343 1.341.556l2.597-.958a1.585 1.585 0 0 1 1.578.277c.56.479 1.081 1 1.56 1.56.381.447.47 1.054.277 1.578l-.958 2.597c.213.432.4.88.556 1.34l2.514 1.16c.508.233.874.726.92 1.313a14.186 14.186 0 0 1 0 2.202 1.584 1.584 0 0 1-.92 1.314l-2.514 1.158c-.157.462-.343.91-.556 1.341l.958 2.597a1.585 1.585 0 0 1-.277 1.578c-.479.56-1 1.081-1.56 1.56a1.585 1.585 0 0 1-1.578.277l-2.597-.958c-.432.213-.88.4-1.34.556l-1.16 2.514a1.584 1.584 0 0 1-1.313.92 14.186 14.186 0 0 1-2.202 0 1.584 1.584 0 0 1-1.314-.92l-1.158-2.514c-.462-.157-.91-.343-1.341-.556l-2.597.958a1.585 1.585 0 0 1-1.578-.277c-.56-.479-1.081-1-1.56-1.56a1.585 1.585 0 0 1-.277-1.578l.958-2.597c-.213-.432-.4-.88-.556-1.34l-2.514-1.16a1.584 1.584 0 0 1-.92-1.313 14.186 14.186 0 0 1 0-2.202c.046-.587.412-1.08.92-1.314l2.514-1.158c.157-.462.343-.91.556-1.341l-.958-2.597a1.585 1.585 0 0 1 .277-1.578c.479-.56 1-1.081 1.56-1.56a1.585 1.585 0 0 1 1.578-.277l2.597.958c.432-.213.88-.4 1.34-.556l1.16-2.514a1.584 1.584 0 0 1 1.313-.92ZM25.667 16A9.667 9.667 0 0 0 16 6.333a9.667 9.667 0 0 0-6.401 16.91l.016.015A9.63 9.63 0 0 0 16 25.667a9.63 9.63 0 0 0 6.381-2.406l.014-.012.01-.009A9.643 9.643 0 0 0 25.667 16Z"/></svg>