<svg xmlns="http://www.w3.org/2000/svg" width="32" height="32" fill="none"><path fill="#000" fill-rule="evenodd" d="M6.304 5.427A4 4 0 0 1 9.98 3.002h12.044a4 4 0 0 1 3.677 2.425l3.22 7.515a1 1 0 0 1 .081.394 5 5 0 0 1-1.418 3.489L26.23 29.002H5.774L4.42 16.825a5 5 0 0 1-1.419-3.49 1 1 0 0 1 .081-.393l3.22-7.515Zm17.698 12.909c.487 0 .966-.071 1.425-.207l-.986 8.873h-4.772v-5.666a1 1 0 0 0-1-1h-5.333a1 1 0 0 0-1 1v5.666H7.564l-.986-8.873a5 5 0 0 0 5.424-1.793 4.994 4.994 0 0 0 4 2 5 5 0 0 0 4-2 4.994 4.994 0 0 0 4 2Zm-9.666 8.666h3.333v-4.666h-3.333v4.666Zm-1.334-13.666a3 3 0 0 0 6 0 1 1 0 1 1 2 0 3 3 0 0 0 5.994.19l-3.134-7.312a2 2 0 0 0-1.838-1.212H9.98a2 2 0 0 0-1.838 1.212l-3.134 7.313a3 3 0 0 0 5.994-.191 1 1 0 1 1 2 0Z" clip-rule="evenodd"/></svg>