<svg xmlns="http://www.w3.org/2000/svg" width="32" height="32" fill="none"><path fill="#000" fill-rule="evenodd" d="M3.002 5.336a2.333 2.333 0 0 1 2.334-2.334h21.333a2.333 2.333 0 0 1 2.333 2.334v6.666a2.333 2.333 0 0 1-2.333 2.334H5.336a2.333 2.333 0 0 1-2.334-2.334V5.336Zm2.334-.334a.333.333 0 0 0-.334.334v6.666c0 .184.15.334.334.334h21.333c.184 0 .333-.15.333-.334V5.336a.333.333 0 0 0-.333-.334H5.336ZM3.002 20.669a1 1 0 0 1 1-1h24a1 1 0 1 1 0 2h-24a1 1 0 0 1-1-1ZM3.002 28.002a1 1 0 0 1 1-1h24a1 1 0 1 1 0 2h-24a1 1 0 0 1-1-1Z" clip-rule="evenodd"/></svg>