<svg xmlns="http://www.w3.org/2000/svg" width="300" height="300" fill="none" class="persona-ilustration" viewBox="0 0 300 300"><g clip-path="url(#cWW9RObIk3_a)"><g clip-path="url(#cWW9RObIk3_b)"><rect width="250" height="250" x="25" y="25" fill="#D3EDFF" rx="125"/><path fill="#AADBFF" d="m263.08 47.842-114.29 50.75-.23 69.56-.42 132.31 144.7 7.79-6.38-271.45z"/><path fill="#D3EDFF" d="m270.25 55.242-114.3 50.75-.22 69.56-.43 132.31 144.7 7.79-6.37-271.45z"/><path fill="#D3EDFF" d="m155.95 105.991 76.03 18.93 108.86-39.62"/><path fill="#AADBFF" d="m155.38 282.311 75.98 1.52.62-158.91-76.03-18.93" opacity=".25"/><path fill="#AADBFF" d="m290.33 113.231-134.6 52.29-.03 8.47 134.63-52.18z"/><path fill="#D3EDFF" d="m289.99 169.942-134.29 4.05 134.63-52.18z"/><path fill="#AADBFF" d="m289.71 188.562-134.6 52.29-.02 8.48 134.62-52.18z"/><path fill="#D3EDFF" d="m289.38 245.271-134.29 4.06 134.62-52.18z"/><path fill="#AADBFF" d="m178.791 204.566 5.06 24.82 27.07-1.74 1.93-30.14s-27.71-4.62-34.06 7.06"/><path fill="#82C2F1" d="M193.951 200.295s-14.26-17.4-12.75-26.02 4.76-8.03 4.76-8.03 5.92 2.66 6.51 6.22 5.03 18.65 1.48 27.83"/><path fill="#82C2F1" d="M194.191 199.535s-2.81-22.32 3.06-28.81c5.86-6.49 8.3-4.26 8.3-4.26s3.59 5.41 2.2 8.73-5.67 18.47-13.56 24.34M193.521 200.295s-20.36-9.57-22.71-18 .85-9.29.85-9.29 6.49-.14 8.55 2.81 12.57 14.67 13.31 24.48"/><path fill="#82C2F1" d="M193.521 200.124s6.37-21.57 14.35-25.17c7.97-3.6 9.31-.57 9.31-.57s1.12 6.39-1.48 8.88-12.6 14.65-22.18 16.87z"/><path fill="#AADBFF" d="M213.281 192.275c-10.05-2.87-24.79-4.21-38.71 6.23-1.6 1.2-.8 3.46.45 5.04.9 1.13 2.43 1.56 3.77 1.02 9.2-3.7 21.85-6.19 32.94-4.44 3.66.57 5.07-6.84 1.55-7.85M251.08 182.083l5.06 24.819 27.07-1.739 1.93-30.14s-27.71-4.62-34.06 7.06"/><path fill="#82C2F1" d="M266.251 177.822s-14.26-17.4-12.75-26.02 4.76-8.03 4.76-8.03 5.92 2.66 6.51 6.22 5.03 18.65 1.48 27.83"/><path fill="#82C2F1" d="M266.48 177.052s-2.81-22.32 3.06-28.81c5.86-6.49 8.3-4.26 8.3-4.26s3.59 5.41 2.2 8.73-5.67 18.47-13.56 24.34M265.81 177.823s-20.36-9.57-22.71-18 .85-9.29.85-9.29 6.49-.14 8.55 2.81 12.57 14.67 13.31 24.48"/><path fill="#82C2F1" d="M265.811 177.641s6.37-21.57 14.35-25.17c7.97-3.6 9.31-.57 9.31-.57s1.12 6.39-1.48 8.88-12.6 14.65-22.18 16.87z"/><path fill="#AADBFF" d="M285.58 169.792c-10.05-2.87-24.79-4.21-38.71 6.23-1.6 1.2-.8 3.46.45 5.04.9 1.13 2.43 1.56 3.77 1.02 9.2-3.7 21.85-6.19 32.94-4.44 3.66.57 5.07-6.84 1.55-7.85"/><path fill="#FFC7B6" d="M124.684 177.062c14.978 9.641 79.973 119.317 79.973 119.317l-54.523-3.826-34.94-49.074z"/><mask id="cWW9RObIk3_c" width="63" height="103" x="115" y="177" maskUnits="userSpaceOnUse" style="mask-type:alpha"><path fill="#fff" d="M124.684 177.062c14.977 9.641 48.998 61.773 53.151 75.291-15.027-2.643-38.199 17.318-41.521 27.601-6.117-4.808-21.12-36.475-21.12-36.475z"/></mask><g mask="url(#cWW9RObIk3_c)"><path fill="#8FC7B8" d="M124.684 177.062c14.977 9.641 48.998 61.773 53.151 75.291-15.027-2.643-38.199 17.318-41.521 27.601-6.117-4.808-21.12-36.475-21.12-36.475z"/><path fill="#43826E" d="m122.871 205.116 30.283 69.401-32.85 13.819-8.999-53.831"/></g><path fill="#FFC7B6" d="m35.913 92.607-1.347 72.082h50.66l1.07-66.896z"/><path fill="#000" fill-opacity=".5" d="m35.913 92.607-1.347 72.082h50.66l1.07-66.896z" style="mix-blend-mode:overlay"/><mask id="cWW9RObIk3_d" width="150" height="139" x="-17" y="147" maskUnits="userSpaceOnUse" style="mask-type:alpha"><path fill="#fff" d="M-10.68 147.082s83.534 3.65 135.54 30.056c13.694 35.115 4.066 101.973 4.066 101.973s-54.07 20.554-94.384-14.386-62.504-96.297-45.235-117.631z"/></mask><g mask="url(#cWW9RObIk3_d)"><path fill="#8FC7B8" d="M-10.68 147.082s83.534 3.65 135.54 30.056c13.694 35.115 4.066 101.973 4.066 101.973s-54.07 20.554-94.384-14.386-62.504-96.297-45.235-117.631z"/><path fill="#498F79" d="M26.65 127.575c10.975-11.881 35.267-7.275 54.26 10.27s26.632 54.826 15.656 66.695c-10.975 11.881-42.83-5.714-58.387-25.387-16.048-20.276-22.492-39.709-11.516-51.578z"/><path fill="#FFC7B6" d="M34.957 128.833c7.464-8.08 23.977-4.946 36.89 6.985s18.1 37.268 10.648 45.348c-7.463 8.081-29.112-3.889-39.697-17.255-10.912-13.782-15.292-26.998-7.828-35.065z"/><path fill="#000" fill-opacity=".5" d="M34.957 128.833c7.463-8.08 23.976-4.947 36.89 6.985 12.913 11.932 18.099 37.268 10.648 45.348-7.464 8.081-29.112-3.889-39.697-17.255-10.912-13.782-15.292-26.998-7.829-35.066z" style="mix-blend-mode:overlay"/><path fill="#3D7360" fill-rule="evenodd" d="M48.85 120.658c-7.82-1.48-14.552.019-18.657 4.463-4.12 4.459-4.976 10.516-3.148 17.612 1.834 7.116 6.34 15.11 12.675 23.118 6.27 7.924 15.855 15.457 24.954 19.79 4.55 2.167 8.901 3.497 12.603 3.719 3.696.222 6.59-.661 8.498-2.727 1.991-2.156 3.235-5.587 3.657-9.917.419-4.306.01-9.361-1.165-14.601-2.354-10.502-7.725-21.505-15.285-28.491-7.651-7.071-16.332-11.491-24.132-12.966m.468-2.474c8.332 1.577 17.43 6.251 25.373 13.591 8.034 7.424 13.6 18.938 16.032 29.789 1.219 5.437 1.665 10.766 1.214 15.396-.448 4.606-1.799 8.66-4.313 11.381-2.597 2.812-6.354 3.78-10.498 3.532-4.14-.249-8.818-1.713-13.535-3.959-9.435-4.493-19.327-12.265-25.845-20.501-6.451-8.153-11.184-16.465-13.139-24.052-1.96-7.608-1.155-14.654 3.737-19.949 4.907-5.31 12.662-6.8 20.974-5.228" clip-rule="evenodd"/></g><path fill="#3D7360" fill-rule="evenodd" d="M127.097 209.219a1.26 1.26 0 0 1 1.614.749c4.908 13.414 5.243 30.81 4.39 44.733a226 226 0 0 1-1.782 17.549 192 192 0 0 1-.805 5.197c-.104.61-.189 1.084-.247 1.405l-.068.367-.018.095-.005.025-.002.008-1.226-.236 1.226.236a1.258 1.258 0 1 1-2.471-.478l.005-.027.017-.089.065-.353c.057-.312.14-.775.242-1.375.204-1.2.486-2.947.794-5.127a223 223 0 0 0 1.762-17.351c.849-13.852.48-30.811-4.241-43.714a1.26 1.26 0 0 1 .75-1.614" clip-rule="evenodd"/><path fill="#FFC7B6" d="m246.845 165.136-24.366 103.182 38.413-5.11 11.881-89.954z"/><mask id="cWW9RObIk3_e" width="9" height="31" x="252" y="79" maskUnits="userSpaceOnUse" style="mask-type:alpha"><path fill="#fff" d="M258.789 90.5c.957 11.114 2.14 18.313 2.14 18.313s-7.199 5.866-8.357-9.83.642-18.514 6.104-19.156c1.598-.189-.101 8.32.101 10.673z"/></mask><g mask="url(#cWW9RObIk3_e)"><path fill="#FFC7B6" d="M258.789 90.5c.957 11.114 2.14 18.313 2.14 18.313s-7.199 5.866-8.357-9.83.642-18.514 6.104-19.156c1.598-.189-.101 8.32.101 10.673z"/><path fill="#FFC7B6" d="m257.707 106.573-6.079-13.644-3.31 5.022z"/><path fill="#000" fill-opacity=".5" d="m257.707 106.573-6.079-13.644-3.311 5.022z" style="mix-blend-mode:overlay"/></g></g><path fill="#A4A1E0" d="m210.699 24.992 33.781 10.283c3.587 1.095 5.953 4.028 5.878 7.3l-2.467 107.461c-.05 2.291-2.291 4.103-4.946 4.003l-38.137-1.347c-4.795-.164-8.533-3.625-8.395-7.753l3.99-113.88c.164-4.494 5.362-7.565 10.296-6.054z"/><path fill="#442EA4" d="m214.5 26.037 33.781 10.182c3.587 1.082 5.954 3.99 5.878 7.224l-2.467 106.392c-.05 2.265-2.29 4.052-4.946 3.964l-38.136-1.334c-4.796-.163-8.534-3.587-8.395-7.677l3.989-112.76c.164-4.456 5.362-7.49 10.296-6.004z"/><path fill="#310A81" d="M209.056 34.849c.918-2.182 2.786-2.132 4.135-1.88l8.443 2.39c2.489.456 4.278 2.439 2.866 5.298-1.03 2.086-3.151 2.038-4.57 1.75l-8.396-2.107c-2.506-.51-3.619-2.74-2.478-5.451"/><mask id="cWW9RObIk3_f" width="47" height="75" x="226" y="99" maskUnits="userSpaceOnUse" style="mask-type:alpha"><path fill="#fff" d="M272.774 173.259s-26.632 3.701-34.36-10.358c-3.31-6.016-11.529-21.535-11.529-21.535l9.465-8.307 5.147-22.064 10.711-11.743 8.685 8.269s11.881 42.487 11.869 65.751c0 .007.012-.013.012-.013"/></mask><g mask="url(#cWW9RObIk3_f)"><path fill="#FFC7B6" d="M272.774 173.259s-26.632 3.701-34.36-10.358c-3.31-6.016-11.529-21.535-11.529-21.535l9.465-8.307 5.147-22.064 10.711-11.743 8.685 8.269s11.881 42.487 11.869 65.751c0 .007.012-.013.012-.013"/><path fill="#FFC7B6" d="M226.714 139.653c18.59 12.435 22.712 33.252 31.787 35.203s-34.587 0-34.587 0z"/><path fill="#000" fill-opacity=".5" d="M226.714 139.653c18.59 12.435 13.428 27.749 36.046 33.78 9.074 1.951-38.846 1.423-38.846 1.423z" style="mix-blend-mode:overlay"/><path fill="#FFC7B6" d="m261.673 172.942-5.664-1.271a14.86 14.86 0 0 1-8.559-3.965l-2.882-2.731"/><path fill="#000" fill-opacity=".5" d="m261.673 172.942-5.664-1.271a14.86 14.86 0 0 1-8.559-3.965l-2.882-2.731" style="mix-blend-mode:overlay"/><path fill="#FFC7B6" d="M248.395 109.408s6.293 2.505 6.57 7.439c.276 4.934-.605-.73-1.851-2.769-.566-.931-4.707-4.67-4.707-4.67z"/><path fill="#000" fill-opacity=".5" d="M248.395 109.409s6.293 2.504 6.57 7.438c.276 4.934-.605-.73-1.851-2.769-.566-.931-4.707-4.669-4.707-4.669z" style="mix-blend-mode:overlay"/><path fill="#FFC7B6" d="M241.648 120.209s6.294 2.505 6.57 7.438c.277 4.934-.604-.73-1.85-2.769-.566-.931-4.707-4.669-4.707-4.669z"/><path fill="#000" fill-opacity=".5" d="M241.648 120.209s6.294 2.505 6.57 7.438c.277 4.934-.604-.73-1.85-2.769-.566-.931-4.707-4.669-4.707-4.669z" style="mix-blend-mode:overlay"/><path fill="#FFC7B6" d="M236.01 132.188s6.708 1.007 8.08 5.764-.755-.578-2.442-2.278c-.767-.78-5.651-3.486-5.651-3.486z"/><path fill="#000" fill-opacity=".5" d="M236.01 132.188s6.708 1.007 8.08 5.764-.755-.579-2.442-2.278c-.767-.78-5.651-3.486-5.651-3.486z" style="mix-blend-mode:overlay"/></g><mask id="cWW9RObIk3_g" width="42" height="51" x="211" y="57" maskUnits="userSpaceOnUse" style="mask-type:alpha"><path fill="#fff" d="m215.419 57.127 36.789 42.126-7.564 8.282s-9.855-7.2-16.828-16.085c-4.644-5.916-13.492-19.018-15.582-25.072-.805-2.316-1.447-9.264 3.185-9.264z"/></mask><g mask="url(#cWW9RObIk3_g)"><path fill="#FFC7B6" d="m215.419 57.127 36.789 42.126-7.564 8.282s-9.855-7.2-16.828-16.085c-4.644-5.916-13.492-19.018-15.582-25.072-.805-2.316-1.447-9.264 3.185-9.264z"/><path fill="#FFC7B6" d="M210.863 55.893c1.107 11.78 9.137 21.396 13.769 27.538 4.078 5.412 24.631 25.387 24.631 25.387l-20.88-10.044-17.218-25.349-3.751-14.084z"/><path fill="#000" fill-opacity=".5" d="M210.863 55.893c1.107 11.78 9.137 21.396 13.769 27.538 4.078 5.412 24.631 25.387 24.631 25.387l-20.88-10.044-17.218-25.349-3.751-14.084z" style="mix-blend-mode:overlay"/></g><mask id="cWW9RObIk3_h" width="55" height="34" x="193" y="86" maskUnits="userSpaceOnUse" style="mask-type:alpha"><path fill="#fff" d="M239.911 119.704s-18.338-14.876-27.689-18.514c-9.352-3.637-19.723-7.463-18.804-12.448.919-4.984 19.735 1.246 19.735 1.246s12.36 3.348 16.198 5.89c4.355 2.883 17.898 10.561 17.898 10.561l-7.35 13.265z"/></mask><g mask="url(#cWW9RObIk3_h)"><path fill="#FFC7B6" d="M239.911 119.704s-18.338-14.876-27.689-18.514c-9.352-3.637-19.723-7.463-18.804-12.448.919-4.984 19.735 1.246 19.735 1.246s12.36 3.348 16.198 5.89c4.355 2.883 17.898 10.561 17.898 10.561l-7.35 13.265z"/><path fill="#FFC7B6" d="M192.335 88.213s6.507 5.79 11.391 7.413c3.637 1.209 10.069 3.927 13.127 5.236a19 19 0 0 1 3.185 1.737l15.682 10.572 6.331 8.496-23.687-14.096-24.241-14.462-1.8-4.883z"/><path fill="#000" fill-opacity=".5" d="M192.335 88.213s6.507 5.79 11.391 7.413c3.637 1.209 10.069 3.927 13.127 5.236a19 19 0 0 1 3.185 1.737l15.682 10.572 6.331 8.496-23.687-14.096-24.241-14.462-1.8-4.883z" style="mix-blend-mode:overlay"/></g><mask id="cWW9RObIk3_i" width="48" height="30" x="193" y="105" maskUnits="userSpaceOnUse" style="mask-type:alpha"><path fill="#fff" d="M193.216 110.487c-.265 1.763.541 6.407 4.669 5.878 4.129-.528 10.258 0 10.258 0l18.527 9.025 10.497 9.036 3.474-14.386s-6.419-5.903-12.486-8.118c-4.418-1.611-16.312-6.759-24.014-6.129-5.035.403-10.422 1.309-10.925 4.694"/></mask><g mask="url(#cWW9RObIk3_i)"><path fill="#FFC7B6" d="M193.216 110.487c-.265 1.763.541 6.407 4.669 5.878 4.129-.528 10.258 0 10.258 0l18.527 9.025 10.497 9.036 3.474-14.386s-6.419-5.903-12.486-8.118c-4.418-1.611-16.312-6.759-24.014-6.129-5.035.403-10.422 1.309-10.925 4.694"/><path fill="#FFC7B6" d="M192.738 115.03s1.687 3.562 4.821 3.297 8.47-1.434 10.295-.516c1.825.919 13.681 6.382 13.681 6.382l8.861 5.991 7.564 5.6-4.757-7.023s-3.713-5.097-8.408-7.312-12.935-6.928-16.585-7.067c-3.65-.138-12.442.906-15.61-1.668-1.813-1.473.138 2.303.138 2.303z"/><path fill="#000" fill-opacity=".5" d="M192.738 115.03s1.687 3.562 4.821 3.297 8.47-1.434 10.295-.516c1.825.919 13.681 6.382 13.681 6.382l8.861 5.991 7.564 5.6-4.757-7.023s-3.713-5.097-8.408-7.312-12.935-6.928-16.585-7.067c-3.65-.138-12.442.906-15.61-1.668-1.813-1.473.138 2.303.138 2.303z" style="mix-blend-mode:overlay"/></g><mask id="cWW9RObIk3_j" width="47" height="22" x="191" y="122" maskUnits="userSpaceOnUse" style="mask-type:alpha"><path fill="#fff" d="M232.788 143.93s-25.299-11.202-32.284-11.68-9.175-2.819-9.263-6.155c-.076-2.92 1.686-4.783 11.176-3.474s34.751 9.881 34.751 9.881z"/></mask><g mask="url(#cWW9RObIk3_j)"><path fill="#FFC7B6" d="M232.788 143.93s-25.298-11.202-32.283-11.68-9.176-2.819-9.264-6.155c-.075-2.92 1.687-4.783 11.177-3.474s34.75 9.881 34.75 9.881z"/><path fill="#FFC7B6" d="M237.411 151.278s-29.901-9.633-36.86-10.409c-6.958-.775-9.047-3.207-8.993-6.543.049-2.921 1.238-5.687 10.664-3.975 19.719 4.432 28.183 11.329 28.183 11.329z"/><path fill="#000" fill-opacity=".5" d="M237.411 151.278s-29.901-9.633-36.86-10.409c-6.958-.775-9.047-3.207-8.993-6.543.049-2.921 1.238-5.687 10.664-3.975 19.719 4.432 28.183 11.329 28.183 11.329z" style="mix-blend-mode:overlay"/></g><path fill="#FFC7B6" d="M24.737 56.595s.365 6.608.893 18.225c.68 14.814 7.867-3.637 10.762 20.868 2.894 24.505-1.12 19.408 19.42 37.167 12.7 7.841 26.633 17.142 37.255 17.923 2.53.188 4.871-.114 6.961-1.02 13.693-5.953 19.382-12.02 20.012-19.899 1.233-15.443 3.297-50.546 2.743-63.195-1.233-28.118-11.667-31.591-21.824-37.734-10.157-6.142-69.476-14.612-76.21 27.69z"/><path fill="#FFC7B6" d="M25.87 71.384s5.738.44 6.896 3.462l1.17 3.02-8.067-4.556z"/><path fill="#000" fill-opacity=".5" d="M25.87 71.384s5.738.44 6.896 3.462l1.17 3.02-8.067-4.556z" style="mix-blend-mode:overlay"/><path fill="#411917" d="M25.945 83.177s-.894-11.114 3.637-10.396c4.531.717 9.377 4.19 9.93 10.534.277 3.235.466 5.425.567 6.784a2.434 2.434 0 0 0 2.014 2.203l1.485.264a1.47 1.47 0 0 0 1.724-1.586c-.617-6.897-2.655-26.003-2.039-26.62.73-.73 6.986-5.525 6.986-5.525s.616-1.07-.063-7.954c39.445-26.973 71.099 2.882 71.099 2.882s-1.598-12.158-9.2-21.762c-7.602-9.603-27.45-18.904-48.306-14.512-19.56 4.116-34.776 16.149-40.024 34.071-5.249 17.923-.995 29.49.277 32.926 1.27 3.436 1.925-1.334 1.925-1.334z"/><path fill="#411917" fill-rule="evenodd" d="m40.236 116.747.002.003.01.011.043.045a44 44 0 0 0 .864.902c.609.624 1.51 1.53 2.67 2.645a156 156 0 0 0 9.808 8.649c8.278 6.705 19.61 14.471 31.937 18.869a1.258 1.258 0 1 1-.845 2.371c-12.709-4.534-24.295-12.495-32.676-19.284-4.198-3.4-7.607-6.52-9.97-8.79a119 119 0 0 1-2.727-2.703 66 66 0 0 1-.9-.939l-.048-.051-.013-.014-.003-.004s-.002-.002.923-.856l-.925.854a1.258 1.258 0 1 1 1.85-1.708" clip-rule="evenodd"/><path fill="#FFC7B6" d="M33.937 77.851s-14.046-12.083-15.972-.34c-1.926 11.756 5.639 33.303 11.92 28.747s6.506-10.572 6.506-10.572z"/><path fill="#FFC7B6" d="M23.05 91.745s.768 17.243 0-9.213c-.176-6.193 5.324-4.116 4.959-2.757-4.028 14.84-.856 17.483-.856 17.483"/><path fill="#000" fill-opacity=".5" d="M23.05 91.745s.768 17.243 0-9.213c-.176-6.193 5.324-4.116 4.959-2.757-4.028 14.84-.856 17.483-.856 17.483" style="mix-blend-mode:overlay"/><path fill="#FFC7B6" fill-rule="evenodd" d="M28.992 97.008c.614-.652 1.326-1.938 2.002-4.19a1.259 1.259 0 0 1 2.411.724c-.718 2.39-1.57 4.118-2.58 5.191-.517.55-1.107.96-1.773 1.17a3.3 3.3 0 0 1-1.993-.006c-1.216-.381-2.212-1.388-2.985-2.511-.797-1.158-1.477-2.612-2.003-4.168-1.043-3.087-1.557-6.817-.987-9.787.286-1.49.87-2.912 1.927-3.928 1.099-1.055 2.578-1.544 4.353-1.37a1.259 1.259 0 1 1-.247 2.505c-1.135-.111-1.858.196-2.363.68-.546.526-.968 1.388-1.198 2.588-.463 2.41-.055 5.68.9 8.506.473 1.4 1.06 2.63 1.691 3.546.654.95 1.245 1.405 1.665 1.537a.77.77 0 0 0 .484.007c.163-.051.4-.18.696-.494" clip-rule="evenodd"/><path fill="#000" fill-opacity=".5" fill-rule="evenodd" d="M28.992 97.008c.614-.652 1.326-1.938 2.002-4.19a1.259 1.259 0 1 1 2.411.724c-.718 2.39-1.57 4.118-2.58 5.192-.517.549-1.107.96-1.773 1.17a3.3 3.3 0 0 1-1.993-.007c-1.216-.381-2.212-1.388-2.985-2.511-.797-1.157-1.477-2.612-2.003-4.168-1.043-3.086-1.557-6.817-.987-9.787.286-1.49.87-2.912 1.927-3.927 1.099-1.056 2.578-1.545 4.353-1.37a1.259 1.259 0 1 1-.247 2.504c-1.135-.111-1.858.196-2.363.68-.546.526-.968 1.388-1.198 2.588-.463 2.41-.055 5.68.9 8.506.473 1.401 1.06 2.63 1.691 3.546.654.95 1.245 1.405 1.665 1.537a.77.77 0 0 0 .484.007c.163-.05.4-.18.696-.494" clip-rule="evenodd" style="mix-blend-mode:overlay"/><path fill="#411917" fill-rule="evenodd" d="m30.955 88.968-1.218.107za1.259 1.259 0 1 1-2.507.218l1.253-.11-1.253.11v.004-.001l-.003-.025-.015-.116a6 6 0 0 0-.085-.455 5.7 5.7 0 0 0-.467-1.33c-.235-.46-.528-.826-.88-1.057-.327-.214-.782-.366-1.479-.275a1.259 1.259 0 1 1-.326-2.496c1.263-.165 2.33.104 3.186.666.83.545 1.378 1.308 1.739 2.012.363.707.568 1.414.684 1.93a9 9 0 0 1 .144.836l.006.059.002.018v.007z" clip-rule="evenodd"/><path fill="#411917" fill-rule="evenodd" d="m29.955 87.978-.557 1.089za1.259 1.259 0 1 1-1.15 2.24l.575-1.12-.574 1.12.001.001h.002v.001l-.023-.011-.107-.05a6 6 0 0 0-.43-.17 5.7 5.7 0 0 0-1.375-.312c-.514-.044-.98.009-1.363.184-.355.163-.726.468-1.02 1.106a1.259 1.259 0 1 1-2.286-1.05c.531-1.158 1.327-1.918 2.258-2.344.902-.414 1.84-.472 2.629-.403.79.068 1.499.27 1.998.447a9 9 0 0 1 .785.322l.052.026.017.008.006.003zM87.732 113.944a1.26 1.26 0 0 1 1.762.254c3.088 4.127 7.997 5.957 12.305 6.728a34 34 0 0 0 5.479.511 29 29 0 0 0 2.089-.051l.108-.008.025-.002h.004a1.259 1.259 0 0 1 .23 2.507l-.108-1.171.107 1.171h-.005l-.011.001-.038.003-.136.01a18 18 0 0 1-.499.029c-.428.019-1.041.036-1.795.028a36.4 36.4 0 0 1-5.893-.55c-4.575-.818-10.232-2.827-13.877-7.698a1.26 1.26 0 0 1 .253-1.762" clip-rule="evenodd"/><path fill="#FFC7B6" d="M116.855 107.77s-1.938-3.675-2.819-4.695c-.881-1.019-3.159-1.46-4.657-1.108-3.688.869-9.276 1.599-5.702 5.853 3.902 4.644 11.882 3.965 13.166-.038z"/><path fill="#000" fill-opacity=".5" d="M116.855 107.77s-1.938-3.675-2.819-4.695c-.881-1.019-3.159-1.46-4.657-1.107-3.688.868-9.276 1.598-5.702 5.852 3.902 4.644 11.882 3.965 13.166-.038z" style="mix-blend-mode:overlay"/><path fill="#411917" fill-rule="evenodd" d="M104.24 79.931a1.26 1.26 0 0 1 1.637.698l-1.167.47-1.168.47a1.26 1.26 0 0 1 .698-1.638m10.82 19.39c1.116 1.683 1.138 3.83.157 5.548-.55.963-1.269 2.084-2.101 3.07-.811.961-1.828 1.913-3 2.373a1.258 1.258 0 1 1-.92-2.343c.59-.232 1.278-.803 1.996-1.654.698-.827 1.332-1.807 1.839-2.695.529-.925.501-2.049-.069-2.909l-.001-.001c-2.217-3.354-4.576-8.16-6.365-12.08a202 202 0 0 1-2.995-6.916l-.044-.108-.015-.037 1.168-.47 1.167-.47.014.033.041.103.164.4a195.714 195.714 0 0 0 2.79 6.42c1.783 3.906 4.074 8.558 6.174 11.736" clip-rule="evenodd"/><path fill="#411917" d="M76.73 67.682s7.59-3.16 13.354-2.102c3.99.73 8.924 4.066 8.924 4.066s1.447.264 0-3.588c-1.448-3.85-10.673-4.015-10.673-4.015s-5.463 0-10.334 2.556c-2.026 1.07-2.555 3.159-2.555 3.159s.088.856 1.284-.088zM91.687 82.586c1.554-.099 2.678-2.315 2.51-4.952-.167-2.636-1.562-4.693-3.116-4.594s-2.678 2.315-2.51 4.951c.166 2.637 1.562 4.694 3.116 4.595"/><path fill="#411917" fill-rule="evenodd" d="M98.999 78.05c0 .001 0 .002-1.188.334l1.188-.332a1.259 1.259 0 0 1-2.423.68v.002l.001.004.002.006.001.004v-.002l-.007-.02a2 2 0 0 0-.062-.15 4 4 0 0 0-.367-.635c-.372-.53-1.038-1.25-2.195-1.874-2.31-1.245-6.777-2.208-15.139-.118a1.259 1.259 0 0 1-.61-2.442c8.705-2.176 13.88-1.307 16.944.345 1.53.825 2.484 1.82 3.06 2.644.288.41.48.773.602 1.046a5 5 0 0 1 .174.446l.012.038.004.015.002.006z" clip-rule="evenodd"/><path fill="#411917" d="M122.833 76.244s-2.869-3.499-8.684-4.115c-4.04-.428-4.028-.328-4.028-.328s-1.875-.503 1.007-3.436c.68-.692 3.839-.138 5.362.328 1.963.604 4.581 1.56 6.394 4.53.289.492.251.794.251.794s.189 2.064-.289 2.215zM119.314 82.538c.167-2.637-.957-4.854-2.511-4.952-1.554-.099-2.949 1.958-3.117 4.594-.167 2.637.957 4.853 2.511 4.952s2.949-1.958 3.117-4.595"/><path fill="#411917" fill-rule="evenodd" d="m112.193 80.93.007-.01q.015-.025.065-.088a3.097 3.097 0 0 1 1.721-1.056c1.199-.266 3.532-.041 7.25 3.496a1.26 1.26 0 0 0 1.735-1.824c-4.022-3.826-7.176-4.652-9.531-4.129a5.6 5.6 0 0 0-3.14 1.941 4 4 0 0 0-.166.221l-.05.074-.016.025-.007.01-.002.005-.002.002s-.001.002 1.071.66l-1.072-.658a1.259 1.259 0 0 0 2.137 1.33" clip-rule="evenodd"/><path fill="url(#cWW9RObIk3_k)" d="M200.269 34.32 72.464 38.763S47.556 59.366 53.522 79.24s6.822 43.448 14.248 51.301 26.456 17.923 36.953 17.017c6.998-.604 94.564-84.642 94.564-84.642l1.02-28.596z" opacity=".25"/></g><defs><clipPath id="cWW9RObIk3_a"><path fill="#fff" d="M0 0h300v300H0z"/></clipPath><clipPath id="cWW9RObIk3_b"><rect width="250" height="250" x="25" y="25" fill="#fff" rx="125"/></clipPath><linearGradient id="cWW9RObIk3_k" x1="63.868" x2="198.465" y1="105.369" y2="39.228" gradientUnits="userSpaceOnUse"><stop stop-color="#fff" stop-opacity=".5"/><stop offset=".4" stop-color="#F47398" stop-opacity=".8"/><stop offset=".64" stop-color="#ED1B57"/></linearGradient></defs></svg>