<svg xmlns="http://www.w3.org/2000/svg" width="40" height="40" fill="none" class="persona-ilustration" viewBox="0 0 40 40"><g clip-path="url(#OrjhP5JK3Hmyt_RttOdVTlDNg8K_PnZ5fwufv8IM3i8_a)"><path fill="#82C2F1" d="M9.846 38.667a.4.4 0 0 1-.388-.497L18.59 1.636a.4.4 0 0 1 .388-.302h1.842a.4.4 0 0 1 .388.497l-9.133 36.533a.4.4 0 0 1-.388.303z"/><path fill="#82C2F1" d="M30.154 38.667a.4.4 0 0 0 .388-.497L21.41 1.636a.4.4 0 0 0-.388-.302H19.18a.4.4 0 0 0-.388.497l9.133 36.533a.4.4 0 0 0 .388.303z"/><g clip-path="url(#OrjhP5JK3Hmyt_RttOdVTlDNg8K_PnZ5fwufv8IM3i8_b)"><rect width="33.333" height="33.333" x="3.333" y="3.333" fill="#D3EDFF" rx="16.667"/><path fill="#AADBFF" d="m9.336 19.596-6.003 6.002v12.546h36.33V25.598l-9.334-9.334a2 2 0 0 0-2.828 0l-7.92 7.92a2 2 0 0 1-2.829 0l-4.588-4.588a2 2 0 0 0-2.828 0"/><circle cx="15.417" cy="12.893" r="2.359" fill="#fff"/></g><path fill="#82C2F1" d="M6.667 34.533c0-.22.179-.4.4-.4h25.866c.221 0 .4.18.4.4V36.4a.4.4 0 0 1-.4.4H7.067a.4.4 0 0 1-.4-.4z"/></g><defs><clipPath id="OrjhP5JK3Hmyt_RttOdVTlDNg8K_PnZ5fwufv8IM3i8_a"><path fill="#fff" d="M0 0h40v40H0z"/></clipPath><clipPath id="OrjhP5JK3Hmyt_RttOdVTlDNg8K_PnZ5fwufv8IM3i8_b"><rect width="33.333" height="33.333" x="3.333" y="3.333" fill="#fff" rx="16.667"/></clipPath></defs></svg>