<svg xmlns="http://www.w3.org/2000/svg" width="240" height="240" fill="none" class="persona-ilustration" viewBox="0 0 240 240"><g clip-path="url(#aLe7hEHpqF_a)"><path fill="#82C2F1" d="M59.074 232a2.4 2.4 0 0 1-2.328-2.982l54.8-219.2A2.4 2.4 0 0 1 113.874 8h11.052a2.4 2.4 0 0 1 2.329 2.982l-54.8 219.2A2.4 2.4 0 0 1 70.126 232z"/><path fill="#82C2F1" d="M180.926 232a2.4 2.4 0 0 0 2.329-2.982l-54.8-219.2A2.4 2.4 0 0 0 126.126 8h-11.052a2.4 2.4 0 0 0-2.328 2.982l54.8 219.2a2.4 2.4 0 0 0 2.328 1.818z"/><g clip-path="url(#aLe7hEHpqF_b)"><rect width="200" height="200" x="20" y="20" fill="#D3EDFF" rx="100"/><path fill="#AADBFF" d="M56.014 117.573 20 153.587v75.272h217.983v-75.272l-56.007-56.006c-4.686-4.687-12.284-4.687-16.97 0l-47.522 47.521c-4.686 4.686-12.284 4.686-16.97 0l-27.53-27.529c-4.685-4.686-12.283-4.686-16.97 0"/><circle cx="92.504" cy="77.355" r="14.154" fill="#fff"/></g><path fill="#82C2F1" d="M40 207.2a2.4 2.4 0 0 1 2.4-2.4h155.2a2.4 2.4 0 0 1 2.4 2.4v11.2a2.4 2.4 0 0 1-2.4 2.4H42.4a2.4 2.4 0 0 1-2.4-2.4z"/><path fill="#D3EDFF" fill-rule="evenodd" d="M152.977 210.285c-.387 2.722-.747 5.258 4.097 7.289 7.925 3.324 34.33 4.374 47.941-1.498 17.615-7.599 41.754-27.361 17.615-47.774-29.109-24.616-70.46-19.483-91.01-6.672s-16.483 25.777-7.207 30.959c7.084 3.958 11.372 5.048 15.471 6.091 2.412.613 4.758 1.21 7.57 2.364 6.407 3.025 5.949 6.246 5.523 9.241m23.204-2.446c4.437 0 8.035-2.507 8.035-5.6 0-3.094-3.598-5.601-8.035-5.601s-8.036 2.507-8.036 5.601 3.598 5.6 8.036 5.6" clip-rule="evenodd"/><path fill="#D3EDFF" fill-rule="evenodd" d="M152.977 210.285c-.387 2.722-.747 5.258 4.097 7.289 7.925 3.324 34.33 4.374 47.941-1.498 17.615-7.599 41.754-27.361 17.615-47.774-29.109-24.616-70.46-19.483-91.01-6.672s-16.483 25.777-7.207 30.959c7.084 3.958 11.372 5.048 15.471 6.091 2.412.613 4.758 1.21 7.57 2.364 6.407 3.025 5.949 6.246 5.523 9.241m23.204-2.446c4.437 0 8.035-2.507 8.035-5.6 0-3.094-3.598-5.601-8.035-5.601s-8.036 2.507-8.036 5.601 3.598 5.6 8.036 5.6" clip-rule="evenodd"/><path fill="#AADBFF" d="M146.121 180.233c0 1.702-1.402 2.813-3.121 3.84-1.405.84-2.918 1.76-4.914 1.76s-2.951-1.462-4.356-2.302c-1.719-1.027-3.68-1.596-3.68-3.298s1.961-2.38 3.68-3.407c1.405-.84 1.676-2.194 4.356-2.194 1.996 0 3.509.875 4.914 1.715 1.719 1.027 3.121 2.184 3.121 3.886M165.619 167.764c0 1.701-1.402 2.813-3.122 3.84-1.405.84-2.918 1.76-4.914 1.76s-2.951-1.462-4.356-2.302c-1.719-1.027-3.679-1.597-3.679-3.298s1.96-2.38 3.679-3.407c1.405-.84 1.676-2.194 4.356-2.194 1.996 0 3.509.875 4.914 1.715 1.72 1.027 3.122 2.184 3.122 3.886M190.871 164.641c0 1.701-1.402 2.813-3.121 3.84-1.405.84-2.918 1.76-4.914 1.76s-2.951-1.462-4.356-2.302c-1.72-1.027-3.68-1.597-3.68-3.298s1.96-2.38 3.68-3.408c1.405-.839 1.676-2.193 4.356-2.193 1.996 0 3.509.875 4.914 1.715 1.719 1.027 3.121 2.184 3.121 3.886M222.656 191.038c0 1.701-1.402 2.813-3.121 3.84-1.405.84-2.918 1.76-4.914 1.76s-2.951-1.462-4.356-2.302c-1.719-1.027-3.68-1.597-3.68-3.298s1.961-2.38 3.68-3.408c1.405-.839 1.676-2.193 4.356-2.193 1.996 0 3.509.875 4.914 1.715 1.719 1.027 3.121 2.184 3.121 3.886"/><path fill="#82C2F1" d="m210.234 161.796 3.068 2.837s-27.492 35.365-45.453 49.774c-3.296 2.297-4.367 1.031-4.367 1.031s-1.346-.969.686-4.434c12.96-19.034 46.066-49.208 46.066-49.208"/><path fill="#fff" d="m199.889 176.026.036.034c.912.843 1.908 1.419 2.78 1.669 6.303-7.572 10.597-13.096 10.597-13.096l-3.068-2.837s-5.171 4.714-12.226 11.59c.317.849.969 1.797 1.881 2.64"/><path fill="#AADBFF" d="M206.249 168.832c-1.402-1.296-4.313-5.043-1.327-9.149 1.821-2.505 4.46-2.962 7.388-3.468 2.869-.496 6.015-1.041 8.941-3.609-2.331 3.118-2.627 6.298-2.898 9.197-.275 2.958-.524 5.625-2.879 7.636-3.86 3.298-7.823.689-9.225-.607"/><path fill="#82C2F1" d="M207.458 157.53c1.19.079 2.234.306 2.009 1.079-.153.529-.413 1.026-.64 1.458-.519.99-.862 1.645.653 1.585.919-.036 1.757-.324 2.413-.55.896-.309 1.453-.501 1.416.228-.021.401-.236 1.107-.463 1.85-.488 1.601-1.027 3.368.235 2.574.358-.225.678-.438.963-.628 1.185-.789 1.772-1.18 2.033-.405.085.253.145.667.212 1.126.108.748.233 1.615.512 2.089 1.145-1.763 1.341-3.862 1.553-6.133.27-2.899.566-6.079 2.898-9.197-2.927 2.568-6.073 3.113-8.942 3.609-1.76.304-3.416.591-4.852 1.315"/><path fill="#D3EDFF" d="M170.799 217.532c3.678-1.704 9.82-9.693 5.382-9.693s-8.036-2.507-8.036-5.601-11.918 13.59-7.48 13.59 5.56 3.229 10.134 1.704"/></g><defs><clipPath id="aLe7hEHpqF_a"><path fill="#fff" d="M0 0h240v240H0z"/></clipPath><clipPath id="aLe7hEHpqF_b"><rect width="200" height="200" x="20" y="20" fill="#fff" rx="100"/></clipPath></defs></svg>