<svg xmlns="http://www.w3.org/2000/svg" width="16" height="16" fill="none" class="persona-icon" viewBox="0 0 16 16"><path fill="currentColor" d="M8.527 9.444a.527.527 0 1 0-1.054 0v.918h-.917a.527.527 0 0 0 0 1.054h.917v.917a.527.527 0 0 0 1.054 0v-.917h.918a.527.527 0 0 0 0-1.054h-.918z"/><path fill="currentColor" fill-rule="evenodd" d="M5.472.973a1.61 1.61 0 0 0-.165 3.212v.468a1.64 1.64 0 0 1-.751 1.377l-.183.118A2.7 2.7 0 0 0 3.14 8.412v3.921a2.694 2.694 0 0 0 2.694 2.694h4.333a2.694 2.694 0 0 0 2.694-2.694V8.412a2.7 2.7 0 0 0-1.234-2.264l-.182-.118a1.64 1.64 0 0 1-.751-1.378v-.467a1.61 1.61 0 0 0-.166-3.212zM4.246 8h7.508q.053.2.053.412v3.921a1.64 1.64 0 0 1-1.64 1.64H5.834a1.64 1.64 0 0 1-1.64-1.64V8.412q0-.212.052-.412m1.22-4.86a.556.556 0 0 1 .006-1.113h5.056a.556.556 0 0 1 .007 1.112zM9.64 4.193v.458c0 .915.464 1.768 1.233 2.264l.047.03H5.08l.047-.03a2.7 2.7 0 0 0 1.234-2.264v-.458z" clip-rule="evenodd"/></svg>