<svg xmlns="http://www.w3.org/2000/svg" width="20" height="20" fill="none"><path fill="currentColor" d="M10 11.254a.6.6 0 0 1 .59.61v1.255h1.213a.6.6 0 0 1 .59.61.6.6 0 0 1-.59.61H10.59v1.254a.6.6 0 0 1-.59.61.6.6 0 0 1-.59-.61V14.34H8.197a.6.6 0 0 1-.59-.61.6.6 0 0 1 .59-.61H9.41v-1.255a.6.6 0 0 1 .59-.61Z"/><path fill="currentColor" d="M4.902 3.009c0-1.11.87-2.009 1.942-2.009h6.312c1.072 0 1.942.9 1.942 2.009 0 1.06-.795 1.929-1.803 2.003v.668c0 .742.365 1.434.968 1.837l.228.152A3.437 3.437 0 0 1 16 10.532v5.061C16 17.475 14.525 19 12.705 19h-5.41C5.475 19 4 17.475 4 15.593v-5.061c0-1.158.568-2.236 1.509-2.863l.228-.152a2.206 2.206 0 0 0 .968-1.837v-.668c-1.008-.074-1.803-.943-1.803-2.003Zm9.75 6.669H5.348c-.109.266-.168.556-.168.854v5.061c0 1.208.947 2.187 2.115 2.187h5.41c1.168 0 2.115-.98 2.115-2.187v-5.061a2.25 2.25 0 0 0-.168-.854ZM6.844 2.22a.776.776 0 0 0-.762.788c0 .436.341.789.762.789h6.312a.776.776 0 0 0 .762-.788.776.776 0 0 0-.762-.789H6.844Zm1.041 2.797v.663c0 1.106-.52 2.14-1.388 2.778h7.005a3.443 3.443 0 0 1-1.387-2.778v-.663h-4.23Z"/></svg>