<svg xmlns="http://www.w3.org/2000/svg" width="32" height="32" fill="none" class="persona-icon" viewBox="0 0 32 32"><path fill="currentColor" d="M17 18.74v1.741h1.74a1 1 0 0 1 0 2H17v1.741a1 1 0 1 1-2 0v-1.74h-1.74a1 1 0 0 1 0-2H15V18.74a1 1 0 1 1 2 0"/><path fill="currentColor" fill-rule="evenodd" d="M11.204 2.667h9.592a3.056 3.056 0 0 1 .315 6.095v.887c0 1.057.537 2.041 1.425 2.614l.346.223a5.11 5.11 0 0 1 2.34 4.295v7.441a5.11 5.11 0 0 1-5.11 5.111h-8.223a5.11 5.11 0 0 1-5.111-5.11V16.78a5.11 5.11 0 0 1 2.34-4.295l.346-.223a3.11 3.11 0 0 0 1.425-2.614v-.887a3.056 3.056 0 0 1 .315-6.095m-.008 4.11h9.608a1.056 1.056 0 0 0-.008-2.11h-9.592a1.056 1.056 0 0 0-.008 2.11m7.915 2H12.89v.872a5.11 5.11 0 0 1-2.34 4.295L10.46 14h11.08l-.089-.057a5.11 5.11 0 0 1-2.34-4.295zM8.877 16.002q-.099.38-.1.78v7.441a3.11 3.11 0 0 0 3.112 3.111h8.222a3.11 3.11 0 0 0 3.111-3.11V16.78q0-.4-.1-.78z" clip-rule="evenodd"/></svg>