<svg xmlns="http://www.w3.org/2000/svg" width="32" height="32" fill="none" class="persona-icon" viewBox="0 0 32 32"><path fill="currentColor" d="M17 18.74a1 1 0 1 0-2 0v1.741h-1.74a1 1 0 0 0 0 2H15v1.741a1 1 0 1 0 2 0v-1.74h1.74a1 1 0 1 0 0-2H17z"/><path fill="currentColor" fill-rule="evenodd" d="M11.204 2.667a3.056 3.056 0 0 0-.315 6.095v.887a3.11 3.11 0 0 1-1.424 2.614l-.347.223a5.11 5.11 0 0 0-2.34 4.295v7.441a5.11 5.11 0 0 0 5.11 5.111h8.223a5.11 5.11 0 0 0 5.111-5.11V16.78a5.11 5.11 0 0 0-2.34-4.295l-.346-.223a3.11 3.11 0 0 1-1.425-2.614v-.887a3.056 3.056 0 0 0-.315-6.095zM8.877 16h14.246q.099.38.1.78v7.441a3.11 3.11 0 0 1-3.112 3.111H11.89a3.11 3.11 0 0 1-3.111-3.11V16.78q0-.4.1-.78m2.32-9.223a1.056 1.056 0 0 1 .007-2.111h9.592a1.056 1.056 0 0 1 .008 2.11zm7.914 2v.87a5.11 5.11 0 0 0 2.34 4.296l.09.057H10.46l.089-.057a5.11 5.11 0 0 0 2.34-4.295v-.871z" clip-rule="evenodd"/></svg>