<svg xmlns="http://www.w3.org/2000/svg" width="32" height="32" fill="none"><path fill="#000" fill-rule="evenodd" d="M3 5.333A2.333 2.333 0 0 1 5.333 3h21.334A2.333 2.333 0 0 1 29 5.333V12a2.333 2.333 0 0 1-2.333 2.333H5.333A2.333 2.333 0 0 1 3 12V5.333ZM5.333 5A.333.333 0 0 0 5 5.333V12c0 .184.15.333.333.333h21.334c.184 0 .333-.149.333-.333V5.333A.333.333 0 0 0 26.667 5H5.333ZM3 20.667a1 1 0 0 1 1-1h24a1 1 0 1 1 0 2H4a1 1 0 0 1-1-1ZM3 28a1 1 0 0 1 1-1h24a1 1 0 1 1 0 2H4a1 1 0 0 1-1-1Z" clip-rule="evenodd"/></svg>