<svg xmlns="http://www.w3.org/2000/svg" width="32" height="32" fill="none"><path fill="#000" fill-rule="evenodd" d="M8.81 4c-1.039 0-1.88.846-1.88 1.889v4.778h.442c.55 0 .995.447.995 1a3.346 3.346 0 0 0 .972 2.357 3.319 3.319 0 0 0 2.347.976 3.306 3.306 0 0 0 2.346-.976 3.334 3.334 0 0 0 .972-2.357c0-.553.446-1 .996-1h.442V5.889A1.885 1.885 0 0 0 14.563 4a.998.998 0 0 1-.996-1c0-.552.446-1 .996-1a3.88 3.88 0 0 1 3.872 3.889v4.778h.442c.55 0 .996.447.996 1 0 2.18-.863 4.272-2.398 5.814a8.172 8.172 0 0 1-4.793 2.347v4.116c0 .493.124.99.376 1.465a4.18 4.18 0 0 0 1.135 1.32c.502.393 1.11.713 1.794.934a7.079 7.079 0 0 0 2.171.337c.75 0 1.488-.116 2.171-.337a5.824 5.824 0 0 0 1.794-.933 4.18 4.18 0 0 0 1.135-1.32c.252-.477.376-.973.376-1.466v-2.74a3.888 3.888 0 0 1-2.876-3.76 3.88 3.88 0 0 1 3.871-3.888 3.88 3.88 0 0 1 3.872 3.888 3.888 3.888 0 0 1-2.876 3.76v3.463a.999.999 0 0 1-.166.553 5.296 5.296 0 0 1-.443 1.13 6.176 6.176 0 0 1-1.67 1.959c-.7.546-1.52.971-2.406 1.258a9.063 9.063 0 0 1-2.782.433c-.95 0-1.895-.146-2.782-.433a7.812 7.812 0 0 1-2.405-1.258 6.174 6.174 0 0 1-1.67-1.96 5.285 5.285 0 0 1-.444-1.13.998.998 0 0 1-.166-.552v-4.839a8.172 8.172 0 0 1-4.792-2.347A8.241 8.241 0 0 1 3.5 11.667c0-.553.446-1 .996-1h.442V5.889A3.88 3.88 0 0 1 8.81 2c.55 0 .995.448.995 1S9.36 4 8.81 4Zm-3.238 8.667a6.232 6.232 0 0 0 1.734 3.4 6.18 6.18 0 0 0 4.38 1.822 6.18 6.18 0 0 0 4.38-1.823 6.232 6.232 0 0 0 1.734-3.4h-.899a5.348 5.348 0 0 1-1.46 2.772A5.309 5.309 0 0 1 11.685 17a5.288 5.288 0 0 1-3.755-1.562 5.334 5.334 0 0 1-1.46-2.771h-.9Zm19.056 2.889c-1.038 0-1.88.845-1.88 1.888 0 1.044.842 1.89 1.88 1.89 1.039 0 1.88-.846 1.88-1.89a1.885 1.885 0 0 0-1.88-1.888Z" clip-rule="evenodd"/></svg>