<svg xmlns="http://www.w3.org/2000/svg" width="16" height="16" fill="none" class="persona-icon" viewBox="0 0 16 16"><path fill="currentColor" fill-rule="evenodd" d="m8.92 4.535 1.564 2.127c.073.1.2.144.319.11l1.283-.36A1.55 1.55 0 1 1 13.6 7.625h-.01l-.669 3.686.544 1.088a1.297 1.297 0 0 1-1.16 1.876H3.73A1.297 1.297 0 0 1 2.57 12.4l.545-1.088-.67-3.686H2.4a1.55 1.55 0 1 1 1.515-1.222l1.317.37a.3.3 0 0 0 .32-.11l1.562-2.128a1.55 1.55 0 1 1 1.806 0m-.902-1.81a.55.55 0 0 0-.013 1.1h.01l.066-.004.02-.002a.55.55 0 0 0-.083-1.094m-.001 2.27-1.66 2.26c-.32.434-.875.626-1.395.48l-1.56-.437.652 3.587h7.927l.651-3.587-1.56.437a1.3 1.3 0 0 1-1.394-.48zm4.072 6.89H3.945l-.48.96a.297.297 0 0 0 .265.43h8.574c.22 0 .364-.232.266-.43zm-9.235-5.5a.55.55 0 1 0-.246.2l.023-.012a.56.56 0 0 0 .198-.157zm10.746-.86a.55.55 0 1 0 0 1.1.55.55 0 0 0 0-1.1" clip-rule="evenodd"/></svg>