<svg xmlns="http://www.w3.org/2000/svg" width="16" height="16" fill="none" class="persona-icon" viewBox="0 0 16 16"><path fill="currentColor" fill-rule="evenodd" d="M8.92 4.535a1.55 1.55 0 1 0-1.806 0L5.551 6.662c-.073.1-.2.144-.319.11l-1.317-.37q.035-.158.035-.327a1.55 1.55 0 1 0-1.505 1.55l.67 3.686-.544 1.088a1.297 1.297 0 0 0 1.16 1.876h8.573c.964 0 1.591-1.014 1.16-1.876l-.544-1.088.67-3.686h.01a1.55 1.55 0 1 0-1.514-1.213l-1.283.36a.3.3 0 0 1-.32-.11zm-6.066 1.85-.025.032a.56.56 0 0 1-.198.156l-.023.011a.55.55 0 1 1 .246-.2m5.163-1.39 1.66 2.26c.32.435.876.626 1.396.48l1.56-.437-.652 3.587H4.054l-.652-3.587 1.56.437a1.3 1.3 0 0 0 1.395-.48zm4.072 6.89.48.96a.297.297 0 0 1-.265.43H3.73a.297.297 0 0 1-.265-.43l.48-.96zm-4.071-9.16A.55.55 0 0 1 8.1 3.82l-.019.002-.066.004h-.01a.55.55 0 0 1 .013-1.1m5.582 2.8a.55.55 0 1 1 0 1.1.55.55 0 0 1 0-1.1" clip-rule="evenodd"/></svg>