<svg xmlns="http://www.w3.org/2000/svg" width="20" height="20" fill="none" class="persona-icon" viewBox="0 0 20 20"><path fill="currentColor" fill-rule="evenodd" d="m11.107 6.05 1.756 2.39c.07.095.192.137.307.105l1.417-.398a1.825 1.825 0 1 1 1.826 1.477l-.753 4.152.614 1.227a1.535 1.535 0 0 1-1.374 2.222H5.102a1.535 1.535 0 0 1-1.374-2.222l.614-1.227-.754-4.151H3.58a1.825 1.825 0 1 1 1.794-1.489l1.458.41a.285.285 0 0 0 .307-.106l1.754-2.388a1.825 1.825 0 1 1 2.214-.001M10 4.026a.575.575 0 1 0 0 1.15.575.575 0 0 0 0-1.15m0 2.63L8.148 9.18a1.535 1.535 0 0 1-1.653.569l-1.7-.477.722 3.972h8.97l.72-3.972-1.699.477a1.535 1.535 0 0 1-1.652-.57zm4.621 7.839h-9.24l-.535 1.068a.285.285 0 0 0 .255.413h9.8c.212 0 .35-.223.255-.413zM4.044 8.14a.575.575 0 1 0-.227.184l.007-.003a.6.6 0 0 0 .207-.164zm12.336-.915a.575.575 0 1 0 0 1.15.575.575 0 0 0 0-1.15" clip-rule="evenodd"/></svg>