<svg xmlns="http://www.w3.org/2000/svg" width="32" height="32" fill="none" class="persona-icon" viewBox="0 0 32 32"><path fill="currentColor" fill-rule="evenodd" d="M17.806 9.07a3.1 3.1 0 1 0-3.613 0l-3.126 4.255c-.146.199-.4.286-.638.22l-2.635-.74q.069-.317.07-.655a3.1 3.1 0 1 0-3.01 3.099l1.34 7.373-1.087 2.175c-.862 1.724.391 3.753 2.319 3.753h17.148c1.928 0 3.181-2.029 2.32-3.753l-1.088-2.176 1.337-7.371h.02a3.1 3.1 0 1 0-3.026-2.426l-2.567.72a.59.59 0 0 1-.638-.22zm-12.15 3.724-.032.039a1.1 1.1 0 0 1-.395.313l-.028.013q-.203.09-.438.091a1.1 1.1 0 1 1 .892-.456m10.343-2.805 3.322 4.52c.639.87 1.75 1.253 2.79.961l3.119-.875-1.303 7.176H8.073l-1.304-7.176 3.12.875a2.59 2.59 0 0 0 2.79-.962zm8.145 13.782.96 1.92a.593.593 0 0 1-.53.859H7.426a.593.593 0 0 1-.53-.858l.96-1.921zM15.999 5.45a1.1 1.1 0 0 1 .155 2.19l-.026.002a1 1 0 0 1-.168.007A1.1 1.1 0 0 1 16 5.45m11.165 5.6a1.1 1.1 0 1 1 0 2.2 1.1 1.1 0 0 1 0-2.2" clip-rule="evenodd"/></svg>