<svg xmlns="http://www.w3.org/2000/svg" width="20" height="20" fill="none" class="persona-icon" viewBox="0 0 20 20"><path fill="currentColor" d="m11.475 2.651-.375.324h2.973a2.95 2.95 0 0 1 2.952 2.952v3.88a.625.625 0 1 1-1.25 0v-3.88c0-.94-.762-1.702-1.702-1.702h-2.974l.376.324a.625.625 0 0 1-.816.946L9.01 4.074a.625.625 0 0 1 0-.946l1.649-1.422a.625.625 0 0 1 .816.946"/><path fill="currentColor" d="M12.244 7.13a.625.625 0 0 1 .625.626v8.533c0 .345-.28.625-.625.625H3.711a.625.625 0 0 1-.625-.625V7.756c0-.345.28-.625.625-.625z"/></svg>