<svg xmlns="http://www.w3.org/2000/svg" width="20" height="20" fill="none" class="persona-icon" viewBox="0 0 20 20"><path fill="currentColor" d="M11.475 2.651a.625.625 0 1 0-.816-.946L9.01 3.127a.625.625 0 0 0 0 .946l1.649 1.422a.625.625 0 0 0 .816-.946l-.376-.324h2.974c.94 0 1.702.762 1.702 1.702v3.88a.625.625 0 0 0 1.25 0v-3.88a2.95 2.95 0 0 0-2.952-2.952H11.1z"/><path fill="currentColor" d="M12.244 7.13H3.711a.625.625 0 0 0-.625.626v8.533a.625.625 0 0 0 .625.625h8.533c.345 0 .625-.28.625-.625V7.756a.625.625 0 0 0-.625-.625"/></svg>