<svg xmlns="http://www.w3.org/2000/svg" width="16" height="16" fill="none" class="persona-icon" viewBox="0 0 16 16"><path fill="currentColor" fill-rule="evenodd" d="M6.19 9.722c-.85 0-1.657.372-2.208 1.018a1.2 1.2 0 0 0-.288.78v.147c0 .736.597 1.333 1.334 1.333h2.216a.5.5 0 0 1 0 1H5.028a2.333 2.333 0 0 1-2.334-2.333v-.147c0-.524.187-1.03.527-1.43A3.9 3.9 0 0 1 6.19 8.723h1.055a.5.5 0 0 1 0 1zM4.527 4.945a2.944 2.944 0 1 1 5.889 0 2.944 2.944 0 0 1-5.89 0m3.565 6.422a3.3 3.3 0 1 1 6.6 0 3.3 3.3 0 0 1-6.6 0M7.473 3a1.944 1.944 0 1 0 0 3.89 1.944 1.944 0 0 0 0-3.89m3.92 6.067a2.3 2.3 0 1 0 0 4.6 2.3 2.3 0 0 0 0-4.6m0 .68a.5.5 0 0 1 .5.5v.913l.694.693a.5.5 0 0 1-.707.707l-.987-.986v-1.327a.5.5 0 0 1 .5-.5" clip-rule="evenodd"/></svg>