<svg xmlns="http://www.w3.org/2000/svg" width="20" height="20" fill="none" class="persona-icon" viewBox="0 0 20 20"><path fill="currentColor" fill-rule="evenodd" d="M7.887 12.051c-.978 0-1.907.429-2.543 1.173a1.36 1.36 0 0 0-.325.883v.17c0 .837.677 1.515 1.513 1.515h2.586a.625.625 0 0 1 0 1.25H6.532a2.764 2.764 0 0 1-2.763-2.764v-.171c0-.622.221-1.222.624-1.695a4.6 4.6 0 0 1 3.494-1.611h1.231a.625.625 0 0 1 0 1.25zm-1.98-5.616a3.477 3.477 0 1 1 6.954 0 3.477 3.477 0 0 1-6.954 0m4.16 7.493a3.892 3.892 0 1 1 7.784 0 3.892 3.892 0 0 1-7.784 0m-.683-9.72a2.227 2.227 0 1 0 0 4.454 2.227 2.227 0 0 0 0-4.454m4.575 7.078a2.642 2.642 0 1 0 0 5.283 2.642 2.642 0 0 0 0-5.283m0 .71c.345 0 .625.28.625.625v1.048l.797.797a.625.625 0 0 1-.884.884l-1.163-1.163V12.62c0-.345.28-.625.625-.625" clip-rule="evenodd"/></svg>