<svg xmlns="http://www.w3.org/2000/svg" width="32" height="32" fill="none" class="persona-icon" viewBox="0 0 32 32"><path fill="currentColor" fill-rule="evenodd" d="M6.79 9.053a6.053 6.053 0 1 1 12.105 0 6.053 6.053 0 0 1-12.105 0ZM12.841 5a4.053 4.053 0 1 0 0 8.105 4.053 4.053 0 0 0 0-8.105ZM10.19 18.895a6.032 6.032 0 0 0-4.587 2.115A2.516 2.516 0 0 0 5 22.644v.303a2.79 2.79 0 0 0 2.79 2.79h5.052a1 1 0 0 1 0 2H7.79A4.79 4.79 0 0 1 3 22.947v-.303c0-1.075.383-2.115 1.081-2.932a8.032 8.032 0 0 1 6.11-2.817h2.651a1 1 0 0 1 0 2H10.19ZM14.368 21.684a7.316 7.316 0 1 1 14.632 0 7.316 7.316 0 0 1-14.632 0Zm7.316-5.316a5.316 5.316 0 1 0 0 10.632 5.316 5.316 0 0 0 0-10.632Z" clip-rule="evenodd"/><path fill="currentColor" fill-rule="evenodd" d="M21.684 18.158a1 1 0 0 1 1 1v2.112l1.602 1.602a1 1 0 0 1-1.414 1.414l-2.188-2.188v-2.94a1 1 0 0 1 1-1Z" clip-rule="evenodd"/></svg>