<svg xmlns="http://www.w3.org/2000/svg" width="16" height="16" fill="none" class="persona-icon" viewBox="0 0 16 16"><path fill="currentColor" fill-rule="evenodd" d="M2.147 2.147a.5.5 0 0 1 .707 0l11 11a.5.5 0 0 1-.708.707l-1.686-1.687h-.966a2.5 2.5 0 0 1-4.988 0H2.5a.5.5 0 0 1-.416-.777l.998-1.501c.107-.162.178-.345.208-.537l.593-3.818c.045-.29.085-.525.169-.775L2.147 2.853a.5.5 0 0 1 0-.707m6.842 1c-1.06-.325-2.27-.109-3.105.619a.5.5 0 0 1-.657-.754C6.343 2.04 7.92 1.774 9.282 2.19c1.382.423 2.557 1.55 2.835 3.344l.593 3.818c.03.192.1.375.208.537a.5.5 0 1 1-.832.554 2.3 2.3 0 0 1-.364-.937l-.593-3.819c-.215-1.389-1.099-2.222-2.14-2.54M4.886 5.593l-.015.094-.593 3.819a2.3 2.3 0 0 1-.363.937l-.482.724h7.027zm1.7 6.907a1.5 1.5 0 0 0 2.828 0z" clip-rule="evenodd"/></svg>