<svg xmlns="http://www.w3.org/2000/svg" width="20" height="20" fill="none" class="persona-icon" viewBox="0 0 20 20"><path fill="currentColor" fill-rule="evenodd" d="M2.176 2.176a.6.6 0 0 1 .848 0l2.868 2.868a.735.735 0 0 1 .02.02l11.912 11.912a.6.6 0 0 1-.848.848l-2.291-2.29h-1.678a3.067 3.067 0 0 1-6.014 0H2.6a.6.6 0 0 1-.5-.933l1.343-2.02c.15-.225.25-.482.292-.75l.797-5.138c.063-.404.119-.726.24-1.073L2.175 3.024a.6.6 0 0 1 0-.848M5.76 6.61l-.043.267-.797 5.138c-.069.44-.232.86-.478 1.231l-.723 1.087h9.765zm5.591-3.21c-1.449-.442-3.104-.148-4.246.848a.6.6 0 0 1-.79-.904C7.799 2.052 9.893 1.7 11.704 2.253c1.835.56 3.395 2.056 3.765 4.44l.797 5.138c.042.268.141.525.292.75l1.07 1.609a.6.6 0 0 1-1 .665l-1.07-1.609a3.077 3.077 0 0 1-.478-1.231l-.797-5.138c-.295-1.898-1.504-3.041-2.93-3.477m-3.12 12.133a1.866 1.866 0 0 0 3.536 0z" clip-rule="evenodd"/></svg>