<svg xmlns="http://www.w3.org/2000/svg" width="20" height="20" fill="none" class="persona-icon"><path fill="currentColor" d="M2.176 2.176a.6.6 0 0 1 .848 0l2.868 2.868a.735.735 0 0 1 .02.02l11.912 11.912a.6.6 0 0 1-.848.848l-2.291-2.29h-1.678a3.067 3.067 0 0 1-6.014 0H2.6a.6.6 0 0 1-.5-.933l1.343-2.02c.15-.225.25-.482.292-.75l.797-5.138c.063-.404.119-.726.24-1.073L2.175 3.024a.6.6 0 0 1 0-.848ZM5.76 6.61l-.043.267-.797 5.138c-.069.44-.232.86-.478 1.231l-.723 1.087h9.765L5.76 6.61Zm5.591-3.21c1.426.436 2.635 1.579 2.93 3.477l.797 5.138c.069.44.232.86.478 1.231l1.07 1.608a.6.6 0 0 0 1-.664l-1.07-1.608a1.876 1.876 0 0 1-.292-.751l-.797-5.138c-.37-2.384-1.93-3.88-3.765-4.44-1.81-.554-3.905-.201-5.386 1.091a.6.6 0 1 0 .789.904c1.142-.996 2.797-1.29 4.246-.848Zm-3.12 12.133a1.866 1.866 0 0 0 3.536 0H8.232Z"/></svg>