<svg xmlns="http://www.w3.org/2000/svg" width="24" height="24" fill="none" class="persona-icon" viewBox="0 0 24 24"><path fill="currentColor" fill-rule="evenodd" d="M3.313 2.225a.77.77 0 0 0-1.088 1.088l3.229 3.229c-.148.43-.217.83-.295 1.33l-.994 6.408a2.32 2.32 0 0 1-.361.929l-1.675 2.519a.77.77 0 0 0 .64 1.195h5.463a3.846 3.846 0 0 0 7.537 0h2.066l2.852 2.852a.77.77 0 0 0 1.088-1.088L6.915 5.827a.746.746 0 0 0-.025-.024L3.313 2.225m3.413 5.59 9.57 9.57H4.206l.88-1.324c.31-.465.514-.992.6-1.545l.994-6.408.047-.294m3.098 11.108h4.352a2.307 2.307 0 0 1-4.352 0" clip-rule="evenodd"/><path fill="currentColor" d="M13.68 3.788c-1.8-.551-3.857-.185-5.277 1.053a.77.77 0 1 1-1.011-1.16c1.853-1.616 4.474-2.057 6.738-1.365 2.296.702 4.248 2.574 4.71 5.556l.995 6.408c.052.333.175.65.361.929l1.334 2.006a.77.77 0 1 1-1.28.852l-1.335-2.006a3.857 3.857 0 0 1-.6-1.545l-.994-6.409c-.367-2.359-1.87-3.778-3.64-4.32Z"/></svg>