<svg xmlns="http://www.w3.org/2000/svg" width="16" height="16" fill="none" class="persona-icon" viewBox="0 0 16 16"><path fill="currentColor" fill-rule="evenodd" d="M8 3c2.617 0 5.186 1.57 6.422 4.603.104.253.104.54 0 .794C13.186 11.431 10.617 13 8 13c-2.617 0-5.186-1.57-6.422-4.603a1.056 1.056 0 0 1 0-.794C2.814 4.569 5.383 3 8 3m0 .968c-2.169 0-4.387 1.294-5.485 3.988a.124.124 0 0 0 0 .088C3.613 10.738 5.83 12.032 8 12.032c2.169 0 4.387-1.294 5.485-3.988a.124.124 0 0 0 0-.088C12.387 5.262 10.17 3.968 8 3.968" clip-rule="evenodd"/><path fill="currentColor" fill-rule="evenodd" d="M5.483 8C5.483 6.664 6.61 5.58 8 5.58S10.517 6.665 10.517 8c0 1.336-1.127 2.42-2.517 2.42S5.483 9.335 5.483 8M8 6.548c-.834 0-1.51.65-1.51 1.452 0 .802.676 1.452 1.51 1.452S9.51 8.802 9.51 8c0-.802-.676-1.452-1.51-1.452" clip-rule="evenodd"/></svg>