<svg xmlns="http://www.w3.org/2000/svg" width="16" height="16" fill="none" class="persona-icon" viewBox="0 0 16 16"><path fill="currentColor" fill-rule="evenodd" d="M1.124 7.561c2.556-6.442 11.196-6.442 13.752 0 .106.267.106.57 0 .837-2.556 6.442-11.196 6.442-13.752 0a1.14 1.14 0 0 1 0-.837m12.822.37c-2.222-5.602-9.67-5.602-11.893 0a.14.14 0 0 0 0 .098c2.223 5.6 9.671 5.6 11.893 0l.465.184-.465-.184a.14.14 0 0 0 0-.099m-8.486.062a2.538 2.538 0 1 1 5.076 0 2.538 2.538 0 0 1-5.076 0m2.538-1.538a1.538 1.538 0 1 0 0 3.076 1.538 1.538 0 0 0 0-3.076" clip-rule="evenodd"/></svg>