<svg xmlns="http://www.w3.org/2000/svg" width="20" height="20" fill="none" class="persona-icon" viewBox="0 0 20 20"><path fill="currentColor" fill-rule="evenodd" d="M2.12 9.472c2.93-7.37 12.83-7.37 15.76 0 .126.317.126.677 0 .994-2.93 7.37-12.83 7.37-15.76 0a1.35 1.35 0 0 1 0-.994m14.598.461c-2.511-6.319-10.925-6.319-13.436 0a.1.1 0 0 0 0 .072c2.511 6.319 10.925 6.319 13.436 0a.1.1 0 0 0 0-.072m-9.665.06a2.945 2.945 0 1 1 5.89 0 2.945 2.945 0 0 1-5.89 0m2.945-1.696a1.695 1.695 0 1 0 0 3.39 1.695 1.695 0 0 0 0-3.39" clip-rule="evenodd"/></svg>