<svg xmlns="http://www.w3.org/2000/svg" width="24" height="24" fill="none" class="persona-icon" viewBox="0 0 24 24"><path fill="currentColor" fill-rule="evenodd" d="M12 4c3.825 0 7.58 2.511 9.387 7.364.15.406.15.866 0 1.272C19.579 17.489 15.825 20 12 20s-7.58-2.511-9.386-7.364a1.84 1.84 0 0 1 0-1.272C4.42 6.511 8.174 4 12 4m0 1.548c-3.17 0-6.411 2.071-8.017 6.381a.2.2 0 0 0 0 .142C5.59 16.38 8.83 18.45 12 18.45s6.411-2.07 8.017-6.38a.2.2 0 0 0 0-.142C18.41 7.62 15.17 5.55 12 5.55" clip-rule="evenodd"/><path fill="currentColor" fill-rule="evenodd" d="M8.322 12c0-2.138 1.647-3.871 3.678-3.871S15.678 9.862 15.678 12 14.031 15.871 12 15.871 8.322 14.138 8.322 12M12 9.677c-1.219 0-2.207 1.04-2.207 2.323s.988 2.323 2.207 2.323 2.207-1.04 2.207-2.323S13.219 9.677 12 9.677" clip-rule="evenodd"/></svg>