<svg xmlns="http://www.w3.org/2000/svg" width="24" height="24" fill="none" class="persona-icon" viewBox="0 0 24 24"><path fill="currentColor" fill-rule="evenodd" d="m21.82 11.351-.697.277zc.155.39.155.83 0 1.22l-.697-.276.697.277c-3.65 9.186-15.99 9.186-19.64 0l.697-.277-.697.277a1.66 1.66 0 0 1 0-1.22c3.65-9.187 15.99-9.187 19.64 0m-1.394.554c-3.15-7.925-13.703-7.925-16.852 0a.16.16 0 0 0 0 .113c3.15 7.925 13.703 7.925 16.852 0a.16.16 0 0 0 0-.113m-12.078.086a3.65 3.65 0 1 0 7.3 0 3.65 3.65 0 0 0-7.3 0m3.65-2.15a2.15 2.15 0 1 1 0 4.3 2.15 2.15 0 0 1 0-4.3" clip-rule="evenodd"/></svg>