<svg xmlns="http://www.w3.org/2000/svg" width="32" height="32" fill="none" class="persona-icon" viewBox="0 0 32 32"><path fill="currentColor" fill-rule="evenodd" d="M2.248 15.123c5.112-12.885 22.392-12.885 27.504 0a2.28 2.28 0 0 1 0 1.673C24.64 29.68 7.36 29.68 2.248 16.796a2.28 2.28 0 0 1 0-1.673m25.645.737C23.45 4.66 8.552 4.66 4.107 15.86a.28.28 0 0 0 0 .198c4.445 11.202 19.342 11.202 23.786 0a.28.28 0 0 0 0-.198m-16.972.127a5.076 5.076 0 1 0 10.152 0 5.076 5.076 0 0 0-10.152 0m5.076-3.076a3.076 3.076 0 1 1 0 6.151 3.076 3.076 0 0 1 0-6.151" clip-rule="evenodd"/></svg>