<svg xmlns="http://www.w3.org/2000/svg" width="240" height="240" fill="none" class="persona-ilustration" viewBox="0 0 240 240"><g clip-path="url(#6d_a)"><g clip-path="url(#6e_b)"><rect width="200" height="200" x="20.225" y="20" fill="#D3EDFF" rx="100"/><mask id="6f_c" width="292" height="293" x="-52" y="87" maskUnits="userSpaceOnUse" style="mask-type:alpha"><circle cx="94.077" cy="233.118" r="145.923" fill="#D9D9D9"/></mask><g mask="url(#6f_c)"><circle cx="94.077" cy="233.118" r="145.923" fill="#0090D5"/><path fill="#A1DCAC" d="M78.172 88.054c-2.707-.967-7.895-5.72-10.15-7.976-46.509-8.581-84.168 20.556-97.184 36.197-11.576 16.653-34.858 54.401-35.38 72.165s23.369 30.945 35.38 35.315c2.392-.276 7.287-.11 7.728 2.761.442 2.87 1.472 4.692 1.932 5.244l6.9 1.656c5.245.644 15.955 3.014 16.838 7.339s4.904 6.509 6.804 7.061c6.433 1.569 18.923 2.353 17.417-7.061-1.883-11.768 16.604-28.959 35.697-35.726 15.275-5.414 12.004-15.468 8.46-19.818-1.532-3.626-3.674-12.133 0-17.16 4.591-6.284 5.558-11.359 5.558-14.743 0-2.707-3.706-4.672-5.559-5.317-1.53-1.128-3.673-3.335 0-3.142 4.592.242 13.051-4.108 15.71-6.525 2.127-1.934-9.587-6.123-15.71-7.976-2.578-1.289-6.864-4.157-3.383-5.317s1.45-5.478 0-7.492c-.886-1.289-2.369-4.93-1.209-9.184 1.45-5.317 10.151-1.933 20.302-6.525s16.434-3.384 16.676-6.767-23.443-5.8-26.827-7.01M175.063 120.711c4.627-.661-.275-11.293-3.305-16.527 23.734 3.36 41.661 29.942 47.657 42.813l-16.042-9.434c-2.08-1.218-6.117-3.028-5.63-.533.608 3.12-5.326.989-5.326-.837 0-1.461-4.869-2.84-7.304-3.347-1.344 0-3.515.213-1.446 1.065s-.203 1.877-1.597 2.282c-1.167-.177-3.911-.152-5.555 1.37-1.643 1.521-.684 2.206 0 2.358l5.555 1.294c1.293.253 3.804 1.156 3.499 2.739s.432 2.688.837 3.043c.888.685 3.333 2.374 6.011 3.652s1.116 2.105 0 2.359c-1.167.329-3.85.548-5.25-1.218-1.4-1.765-5.25-3.525-6.999-4.184-1.345-.381-4.398-.913-5.859 0s-3.449.38-4.261 0c-1.521-.837-4.793-2.131-5.706-.609-1.141 1.902-1.902.761-2.891 1.446s-3.348-1.446-5.25.608c-1.522 1.644-3.474 1.243-4.261.837-1.141-.482-2.434-2.008 1.522-4.26s1.649-3.373 0-3.652c-.938-.102-2.815-.655-2.815-2.055 0-1.75 1.75-1.293 2.283-2.358.426-.852 2.054-1.268 2.815-1.37.634-.482 2.328-1.263 4.032-.532 2.131.913 3.576-2.207 2.078-2.815-1.199-.487-.499-1.888 0-2.528.693-1.109 2.785-3.159 5.612-2.494s2.424-1.247 1.87-2.287c-.554-.554-1.704-1.995-1.87-3.325-.208-1.663 1.812-.675 7.596-1.501M212.577 176.507c5.737 5.379 23.766-3.97 57.393 19.121 34.018 36.274 76.128 137.875-27.57 254.089-78.122 87.551-108.261 6.981-124.314-81.553-11.393-9.027-10.014 3.451-19.04-3.983-.466-2.85 8.068-9.455 7.647-12.308-.616-4.184 8.01-10.874 7.486-15.038-.444-3.522-10.429 0-10.429-8.01-.283-2.607-8.178-1.31-8.427-3.887-.288-2.99 7.076-9.85 6.833-12.788 5.866-9.729 17.801-2.106 20.307-15.012 1.378-7.101 14.816-.34 6.492-8.824-.167-3.064-28.343-.233-28.46-3.185-11.105-4.634 3.112-11.661 3.253-15.842.262-7.804-1.942-11.222 1.873-11.984 5.858-1.172 10.751-5.223 12.465-7.102.183-1.367 1.313-3.774 4.377-2.461s8.03-2.217 10.13-4.145c1.443-1.57 5.063-4.451 8.002-3.415 3.674 1.295 5.039-.471 5.039-1.295 0-.659 2.461-1.205 3.691-1.395.437-.83 2.157-1.992 5.547 0 8.977 6.695 9.22-1.635 8.22-6.636-3.231-3.1-10.508-9.386-13.767-9.735-4.073-.437-8.584 1.6-8.73-1.455-.145-3.056 6.111-1.601 11.058-7.712 3.958-4.888.097-5.334-2.328-4.946-1.406.97-4.801 2.677-7.129 1.746-2.91-1.164-6.693 1.454-9.603 2.473s-3.783-.291-5.383-2.473c-1.28-1.746 1.406-3.153 2.91-3.638 2.861-.145 8.613-.931 8.73-2.91.116-1.978 3.249-2.861 4.801-3.055 1.892-.485 5.674-1.833 5.674-3.346s.873-2.668 1.31-3.056c.339-.582.553-2.066-1.31-3.346s-.776-2.28 0-2.619c.485-.921 1.63-2.619 2.328-2.037s3.298-.242 4.51-.727c.472-.004 1.504-.63 1.857-3.1s3.528-1.029 5.072 0c.882 1.029 2.735 1.588 3.088-4.411s7.939-2.499 11.689 0c1.396.588 4.102.618 3.749-3.97-.353-4.587 4.97-.86 7.675 1.577 9.562 4.93 17.547-2.985 23.284 2.393M106.341 131.687c-2.326-.775-3.28-5.269 4.919-5.269 4.533 0 4.489-5.303 6.987-3.882 2.08 1.183 3.251 3.614 5.953 3.882 5.987.594 8.541 1.114 11.857 2.943 1.693.934-.997 2.851 0 4.95s-1.795 2.86-3.316 2.977c-.949.172-2.666.854-1.941 2.2.905 1.682 4.399.776 6.211 1.164 1.449.311 1.38 1.683 1.165 2.33-.475.302-2.614.724-7.376 0-4.762-.725-5.543 1.643-5.338 2.917.345 1.464.827 2.909 0 4.976-1.033 2.584-9.819-.325-11.111-3.425-1.292-3.101-8.01-1.292-11.37-1.551s1.292-9.302 4.91-10.336c2.894-.827.172-2.929-1.55-3.876"/></g></g><path fill="#EA4F4A" d="M206.64 72.152c12.401-21.48 5.042-48.946-16.438-61.347s-48.946-5.042-61.347 16.438c-15.367 26.616-9.215 72.112-10.185 103.194-.06 1.911 2.068 3.14 3.694 2.133 26.433-16.382 68.909-33.802 84.276-60.418"/><path fill="#F8F8F8" d="M183.871 59.607c-5.224 9.05-16.795 12.15-25.844 6.925-9.05-5.224-12.15-16.795-6.926-25.845s16.796-12.15 25.845-6.925c9.05 5.225 12.15 16.796 6.925 25.845"/></g><defs><clipPath id="6d_a"><path fill="#fff" d="M0 0h240v240H0z"/></clipPath><clipPath id="6e_b"><rect width="200" height="200" x="20.225" y="20" fill="#fff" rx="100"/></clipPath></defs></svg>