<svg xmlns="http://www.w3.org/2000/svg" width="80" height="80" fill="none" class="persona-ilustration" viewBox="0 0 80 80"><g clip-path="url(#esGq1QYq1J_a)"><path fill="#D0F3FF" d="M66.87 54.641c-9.832-8.323-20.542-30.869-20.36-45.977.018-1.571-1.676-2.747-3.067-2.017L21.075 18.395a1.9 1.9 0 0 0-.84.88L13.34 33.98a1.8 1.8 0 0 0-.178.808c.19 12.973 9.08 28.603 20.034 39.325a1.89 1.89 0 0 0 2 .4c5.64-2.176 8.734-3.26 31.474-16.299 1.275-.731 1.322-2.624.2-3.574"/><path fill="#82C2F1" fill-rule="evenodd" d="M42.99 5.785a2.9 2.9 0 0 1 1.596-.323.974.974 0 0 1-.167 1.941.93.93 0 0 0-.523.107l-1.864.98a.974.974 0 0 1-.906-1.726zm2.797.968a.974.974 0 0 1 1.32.396c.242.45.383.971.376 1.527q-.01.87.029 1.78a.974.974 0 0 1-1.947.082 35 35 0 0 1-.03-1.886 1.2 1.2 0 0 0-.144-.58.974.974 0 0 1 .396-1.319m-7.074 2.378a.974.974 0 0 1-.41 1.316l-3.727 1.958a.974.974 0 1 1-.906-1.725l3.728-1.958a.974.974 0 0 1 1.315.41m-7.456 3.916a.974.974 0 0 1-.41 1.316L27.12 16.32a.974.974 0 1 1-.906-1.726l3.728-1.957a.974.974 0 0 1 1.316.41m15.48.143a.974.974 0 0 1 1.092.839q.23 1.744.6 3.559a.974.974 0 1 1-1.91.388 54 54 0 0 1-.622-3.693.974.974 0 0 1 .84-1.093m-22.935 3.773a.974.974 0 0 1-.41 1.316l-1.864.979a.93.93 0 0 0-.411.43l-.862 1.838a.974.974 0 0 1-1.764-.827l.861-1.838a2.9 2.9 0 0 1 1.27-1.329l1.864-.979a.974.974 0 0 1 1.316.41m24.26 3.452a.974.974 0 0 1 1.192.693 73 73 0 0 0 1.015 3.48.974.974 0 1 1-1.857.592 75 75 0 0 1-1.042-3.574.974.974 0 0 1 .693-1.19m-30 3.492a.974.974 0 0 1 .47 1.296l-1.724 3.677a.974.974 0 1 1-1.765-.828l1.724-3.676a.974.974 0 0 1 1.296-.469m32.136 3.538a.974.974 0 0 1 1.251.577 86 86 0 0 0 1.33 3.38.974.974 0 1 1-1.797.752 88 88 0 0 1-1.36-3.458.974.974 0 0 1 .576-1.251M14.615 31.26a.974.974 0 0 1 .469 1.295l-.862 1.839a1 1 0 0 0-.039.095 1 1 0 0 1-.037.093q0 .048-.005.098a1 1 0 0 0-.004.094q.014.899.083 1.816a.974.974 0 1 1-1.943.148 32 32 0 0 1-.089-1.935 3 3 0 0 1 .015-.323 1 1 0 0 1 .084-.309q0-.157.053-.313.05-.15.118-.291l.29.136-.29-.136.862-1.839a.974.974 0 0 1 1.295-.468m38.34 2.995a.974.974 0 0 1 1.296.47 87 87 0 0 0 1.607 3.26.974.974 0 0 1-1.729.898 89 89 0 0 1-1.643-3.333.974.974 0 0 1 .47-1.295m-39.392 5.178a.974.974 0 0 1 1.134.782q.328 1.771.831 3.578a.974.974 0 0 1-1.877.522 43 43 0 0 1-.87-3.747.974.974 0 0 1 .781-1.135m42.709 1.379a.974.974 0 0 1 1.33.356 74 74 0 0 0 1.888 3.096.974.974 0 1 1-1.638 1.055 76 76 0 0 1-1.937-3.176.974.974 0 0 1 .357-1.331M15.406 46.72a.974.974 0 0 1 1.247.586 56 56 0 0 0 1.373 3.43.974.974 0 1 1-1.785.783 58 58 0 0 1-1.42-3.551.974.974 0 0 1 .585-1.248m44.769.32a.974.974 0 0 1 1.361.213 50 50 0 0 0 2.221 2.835.974.974 0 1 1-1.488 1.259 52 52 0 0 1-2.307-2.946.974.974 0 0 1 .213-1.361m4.64 5.693a.974.974 0 0 1 1.378-.022q.658.638 1.306 1.187c.396.335.688.749.878 1.193a.974.974 0 1 1-1.792.765 1.3 1.3 0 0 0-.345-.47 28 28 0 0 1-1.403-1.275.974.974 0 0 1-.021-1.378m-46.514.924a.975.975 0 0 1 1.31.426 69 69 0 0 0 1.776 3.256.975.975 0 0 1-1.686.978 71 71 0 0 1-1.825-3.349.974.974 0 0 1 .425-1.31m49.574 2.98c.468.264.633.859.369 1.327a2.9 2.9 0 0 1-1.09 1.096l-1.55.889a.974.974 0 0 1-.968-1.692l1.55-.887a.96.96 0 0 0 .361-.365.974.974 0 0 1 1.328-.368m-4.991 3.743a.974.974 0 0 1-.366 1.328q-1.616.919-3.08 1.745a.974.974 0 1 1-.958-1.698q1.462-.825 3.075-1.741a.974.974 0 0 1 1.329.366m-40.902-.165a.974.974 0 0 1 1.347.286 77 77 0 0 0 2.098 3.064.974.974 0 1 1-1.58 1.14 79 79 0 0 1-2.152-3.142.974.974 0 0 1 .287-1.348m34.734 3.65a.974.974 0 0 1-.376 1.327 578 578 0 0 1-3.112 1.725.974.974 0 1 1-.94-1.708c.967-.531 1.998-1.103 3.102-1.719a.974.974 0 0 1 1.325.376M26.301 66.37a.974.974 0 0 1 1.369.156 77 77 0 0 0 2.381 2.849.974.974 0 1 1-1.464 1.285 79 79 0 0 1-2.442-2.92.974.974 0 0 1 .156-1.37m24.195.93a.974.974 0 0 1-.396 1.32c-1.152.62-2.194 1.171-3.146 1.666a.974.974 0 1 1-.899-1.728c.942-.49 1.976-1.038 3.121-1.654a.974.974 0 0 1 1.32.396m-6.281 3.296a.974.974 0 0 1-.447 1.303 87 87 0 0 1-3.248 1.516.974.974 0 1 1-.785-1.784c.932-.41 1.963-.888 3.176-1.482a.974.974 0 0 1 1.304.447m-13.024 1.487a.974.974 0 0 1 1.377.02q.65.67 1.308 1.315.093.09.205.149.129.068.228.165a1 1 0 0 1 .277-.066 1 1 0 0 0 .259-.06l.41-.158 1.241-.481a.974.974 0 0 1 .709 1.815l-1.252.485-.407.157q-.385.148-.787.183a.97.97 0 0 1-.767-.273.97.97 0 0 1-.815-.04 2.8 2.8 0 0 1-.664-.483 73 73 0 0 1-1.343-1.35.974.974 0 0 1 .02-1.378" clip-rule="evenodd"/><path fill="#AADBFF" d="M25.58 28.678c-2.265-3.51-5.363-9.462-5.363-9.462L13.34 34.044s7.084.312 11.864-2.896c.808-.543.903-1.651.375-2.47" opacity=".5"/><path fill="#82C2F1" fill-rule="evenodd" d="M21.081 18.766a.974.974 0 0 0-1.748.04l-.86 1.854a.974.974 0 0 0 1.768.82l.035-.074.363.674a.974.974 0 0 0 1.714-.928 207 207 0 0 1-1.18-2.212l-.069-.13zm-3.033 5.127c.489.226.7.805.475 1.293l-1.72 3.707a.974.974 0 1 1-1.767-.82l1.719-3.706a.974.974 0 0 1 1.293-.474m5.618 1.626a.974.974 0 0 1 1.334.346c.481.819.958 1.601 1.399 2.285.187.29.32.606.4.93a.97.97 0 0 1-.337.991c.225.306.26.73.053 1.076a2.5 2.5 0 0 1-.768.81q-.698.466-1.436.84a.974.974 0 1 1-.884-1.736q.642-.326 1.234-.723a.6.6 0 0 0 .179-.186 1 1 0 0 1 .228-.263 1 1 0 0 1-.162-.348 1.1 1.1 0 0 0-.145-.335 68 68 0 0 1-1.44-2.353.974.974 0 0 1 .345-1.334m-9.055 5.788c.488.226.7.805.474 1.293l-.211.456a.974.974 0 0 1 .054 1.947 25 25 0 0 1-1.505.019l-.089-.003-.024-.001h-.011l.042-.974-.042.974a.975.975 0 0 1-.842-1.384l.86-1.853a.974.974 0 0 1 1.294-.474m7.313 1.476a.974.974 0 0 1-.658 1.21 24 24 0 0 1-3.148.697.974.974 0 1 1-.299-1.925 22 22 0 0 0 2.894-.64.974.974 0 0 1 1.211.657M46.462 35.23a.974.974 0 0 1-.494 1.287l-22.193 9.881a.974.974 0 1 1-.792-1.78l22.193-9.882a.974.974 0 0 1 1.286.494M51.064 44.442a.974.974 0 0 1-.494 1.286L28.377 55.61a.974.974 0 0 1-.793-1.78l22.193-9.882a.974.974 0 0 1 1.286.493M57.279 52.028a.974.974 0 0 1-.438 1.306L35.27 64.07a.974.974 0 1 1-.868-1.744l21.57-10.735a.974.974 0 0 1 1.307.438" clip-rule="evenodd"/></g><defs><clipPath id="esGq1QYq1J_a"><path fill="#fff" d="M0 0h80v80H0z"/></clipPath></defs></svg>