<svg xmlns="http://www.w3.org/2000/svg" width="40" height="40" fill="none" class="persona-ilustration" viewBox="0 0 40 40"><g clip-path="url(#n_a)"><path fill="#D0F3FF" d="M33.435 27.32c-4.916-4.16-10.271-15.434-10.18-22.988.009-.785-.838-1.373-1.534-1.008L10.538 9.198a.95.95 0 0 0-.42.44L6.67 16.99a.9.9 0 0 0-.089.404c.095 6.486 4.54 14.301 10.017 19.662a.94.94 0 0 0 1 .2c2.82-1.088 4.367-1.63 15.737-8.15.638-.365.661-1.311.1-1.786"/><path stroke="#82C2F1" stroke-dasharray="1.91 1.91" stroke-linecap="round" stroke-width=".974" d="M33.435 27.32c-4.916-4.16-10.271-15.434-10.18-22.988.009-.785-.838-1.373-1.534-1.008L10.538 9.198a.95.95 0 0 0-.42.44L6.67 16.99a.9.9 0 0 0-.089.404c.095 6.486 4.54 14.301 10.017 19.662a.94.94 0 0 0 1 .2c2.82-1.088 4.367-1.63 15.737-8.15.638-.365.661-1.311.1-1.786Z"/><path fill="#AADBFF" d="M12.79 14.34c-1.132-1.756-2.682-4.732-2.682-4.732l-3.437 7.414s3.541.156 5.931-1.448c.405-.271.452-.825.188-1.235" opacity=".5"/><path stroke="#82C2F1" stroke-dasharray="1.91 1.91" stroke-linecap="round" stroke-linejoin="round" stroke-width=".974" d="M12.79 14.34c-1.132-1.756-2.682-4.732-2.682-4.732l-3.437 7.414s3.541.156 5.931-1.448c.405-.271.452-.825.188-1.235"/><path fill="#82C2F1" fill-rule="evenodd" d="M23.231 17.615a.487.487 0 0 1-.247.644l-11.096 4.94a.487.487 0 1 1-.396-.89l11.096-4.94a.487.487 0 0 1 .643.246M25.532 22.22a.487.487 0 0 1-.247.644l-11.097 4.94a.487.487 0 0 1-.396-.89l11.097-4.94a.487.487 0 0 1 .643.247M28.64 26.014c.12.24.021.533-.22.653l-10.785 5.368a.487.487 0 0 1-.434-.873l10.785-5.367a.487.487 0 0 1 .653.219" clip-rule="evenodd"/></g><defs><clipPath id="n_a"><path fill="#fff" d="M0 0h40v40H0z"/></clipPath></defs></svg>