<svg xmlns="http://www.w3.org/2000/svg" width="150" height="150" fill="none" class="persona-ilustration" viewBox="0 0 150 150"><g clip-path="url(#Q7em3leObx_a)"><g clip-path="url(#Q7em3leObx_b)"><rect width="125" height="125" x="12.64" y="12.5" fill="#D3EDFF" rx="62.5"/><path fill="#D0F3FF" d="M106.828 90.93C94.215 80.252 80.474 51.326 80.706 31.943c.025-2.016-2.15-3.524-3.934-2.587L48.076 44.428a2.45 2.45 0 0 0-1.078 1.128l-8.846 18.868a2.36 2.36 0 0 0-.228 1.036c.245 16.644 11.65 36.697 25.702 50.452a2.42 2.42 0 0 0 2.567.514c7.236-2.792 11.204-4.184 40.379-20.911 1.636-.939 1.695-3.367.256-4.585" opacity=".75"/><path fill="#82C2F1" fill-rule="evenodd" d="M76.19 28.25a3.7 3.7 0 0 1 2.05-.415 1.25 1.25 0 0 1-.215 2.49 1.2 1.2 0 0 0-.672.138l-2.391 1.256a1.25 1.25 0 0 1-1.163-2.213zm3.59 1.241a1.25 1.25 0 0 1 1.693.509 4 4 0 0 1 .483 1.958q-.013 1.119.037 2.284a1.25 1.25 0 0 1-2.498.106 45 45 0 0 1-.039-2.42 1.5 1.5 0 0 0-.185-.743 1.25 1.25 0 0 1 .509-1.694m-9.076 3.052a1.25 1.25 0 0 1-.525 1.688l-4.783 2.511a1.25 1.25 0 1 1-1.162-2.213l4.783-2.512a1.25 1.25 0 0 1 1.688.526m-9.565 5.024a1.25 1.25 0 0 1-.525 1.687l-4.783 2.512a1.25 1.25 0 1 1-1.162-2.213l4.782-2.512a1.25 1.25 0 0 1 1.688.526m19.858.182a1.25 1.25 0 0 1 1.403 1.077c.196 1.49.454 3.016.769 4.566a1.25 1.25 0 1 1-2.45.498 69 69 0 0 1-.798-4.738 1.25 1.25 0 0 1 1.076-1.403M51.574 42.59a1.25 1.25 0 0 1-.526 1.688l-2.39 1.256a1.2 1.2 0 0 0-.529.552l-1.105 2.359a1.25 1.25 0 0 1-2.264-1.061l1.106-2.359c.342-.73.914-1.329 1.629-1.704l2.391-1.256a1.25 1.25 0 0 1 1.688.525m31.125 4.43a1.25 1.25 0 0 1 1.528.889 93 93 0 0 0 1.302 4.464 1.25 1.25 0 0 1-2.382.759 96 96 0 0 1-1.337-4.585 1.25 1.25 0 0 1 .89-1.528M44.211 51.5a1.25 1.25 0 0 1 .601 1.662l-2.211 4.717a1.25 1.25 0 0 1-2.264-1.061L42.55 52.1a1.25 1.25 0 0 1 1.662-.602m41.228 4.538a1.25 1.25 0 0 1 1.605.74 110 110 0 0 0 1.707 4.338 1.25 1.25 0 0 1-2.306.964 112 112 0 0 1-1.746-4.436 1.25 1.25 0 0 1 .74-1.606m-45.65 4.895a1.25 1.25 0 0 1 .6 1.663l-1.105 2.358q-.03.062-.05.123-.021.06-.048.119 0 .061-.006.126-.007.06-.006.12.017 1.152.107 2.33a1.25 1.25 0 1 1-2.492.19 41 41 0 0 1-.114-2.483q-.003-.21.018-.414.023-.213.108-.396 0-.202.068-.403.066-.191.151-.373l1.106-2.358a1.25 1.25 0 0 1 1.662-.602m49.188 3.844a1.25 1.25 0 0 1 1.662.602 111 111 0 0 0 2.062 4.182 1.25 1.25 0 1 1-2.219 1.152 114 114 0 0 1-2.108-4.275 1.25 1.25 0 0 1 .603-1.661m-50.54 6.642a1.25 1.25 0 0 1 1.457 1.003q.42 2.273 1.065 4.59a1.25 1.25 0 0 1-2.408.67 56 56 0 0 1-1.116-4.806 1.25 1.25 0 0 1 1.003-1.457m54.794 1.77a1.25 1.25 0 0 1 1.708.457 95 95 0 0 0 2.42 3.97 1.25 1.25 0 1 1-2.1 1.355 98 98 0 0 1-2.486-4.075 1.25 1.25 0 0 1 .458-1.708m-52.429 7.579a1.25 1.25 0 0 1 1.6.75 72 72 0 0 0 1.761 4.402 1.25 1.25 0 1 1-2.29 1.003 75 75 0 0 1-1.822-4.555 1.25 1.25 0 0 1 .751-1.6m57.436.409a1.25 1.25 0 0 1 1.747.273 65 65 0 0 0 2.849 3.638 1.25 1.25 0 0 1-1.908 1.615 67 67 0 0 1-2.961-3.78 1.25 1.25 0 0 1 .273-1.746m5.954 7.304a1.25 1.25 0 0 1 1.768-.027 33 33 0 0 0 1.676 1.522c.507.43.882.96 1.126 1.53a1.25 1.25 0 0 1-2.299.983c-.1-.234-.249-.441-.443-.605a37 37 0 0 1-1.8-1.635 1.25 1.25 0 0 1-.028-1.768m-59.675 1.186a1.25 1.25 0 0 1 1.681.546 88 88 0 0 0 2.277 4.178 1.25 1.25 0 0 1-2.162 1.254 91 91 0 0 1-2.342-4.296 1.25 1.25 0 0 1 .546-1.682m63.6 3.822a1.25 1.25 0 0 1 .473 1.704 3.7 3.7 0 0 1-1.397 1.406l-1.99 1.14a1.25 1.25 0 0 1-1.241-2.17l1.988-1.139c.204-.117.356-.277.464-.468a1.25 1.25 0 0 1 1.703-.473m-6.403 4.802a1.25 1.25 0 0 1-.469 1.705 1347 1347 0 0 1-3.952 2.238 1.25 1.25 0 1 1-1.228-2.177q1.875-1.058 3.944-2.235a1.25 1.25 0 0 1 1.705.47m-52.475-.211a1.25 1.25 0 0 1 1.729.367 98 98 0 0 0 2.692 3.931 1.25 1.25 0 1 1-2.028 1.462 101 101 0 0 1-2.76-4.031 1.25 1.25 0 0 1 .367-1.73m44.561 4.684a1.25 1.25 0 0 1-.482 1.701 693 693 0 0 1-3.992 2.213 1.25 1.25 0 1 1-1.205-2.19c1.24-.682 2.562-1.415 3.979-2.206a1.25 1.25 0 0 1 1.7.482m-39.019 3.213a1.25 1.25 0 0 1 1.757.199 99 99 0 0 0 3.055 3.656 1.25 1.25 0 1 1-1.879 1.649 101 101 0 0 1-3.132-3.748 1.25 1.25 0 0 1 .2-1.756m31.042 1.193a1.25 1.25 0 0 1-.509 1.693 331 331 0 0 1-4.035 2.138 1.25 1.25 0 1 1-1.154-2.218 308 308 0 0 0 4.004-2.122 1.25 1.25 0 0 1 1.694.509m-8.06 4.228a1.25 1.25 0 0 1-.572 1.672 111 111 0 0 1-4.168 1.945 1.25 1.25 0 0 1-1.007-2.288c1.196-.527 2.519-1.14 4.075-1.902a1.25 1.25 0 0 1 1.673.573m-16.708 1.908a1.25 1.25 0 0 1 1.767.027 92 92 0 0 0 1.678 1.686q.12.117.263.191.165.087.293.212a1.2 1.2 0 0 1 .355-.085q.168-.015.332-.078l.527-.203c.543-.209 1.068-.411 1.592-.616a1.25 1.25 0 0 1 .908 2.329c-.53.207-1.062.412-1.607.622l-.52.201a3.7 3.7 0 0 1-1.01.235 1.24 1.24 0 0 1-.984-.35 1.25 1.25 0 0 1-1.046-.052 3.6 3.6 0 0 1-.851-.62 95 95 0 0 1-1.724-1.731 1.25 1.25 0 0 1 .027-1.768" clip-rule="evenodd"/><path fill="#AADBFF" d="M53.855 57.62c-2.905-4.504-6.88-12.139-6.88-12.139l-8.821 19.024s9.087.4 15.22-3.717c1.037-.696 1.158-2.118.481-3.168" opacity=".5"/><path fill="#82C2F1" fill-rule="evenodd" d="m48.084 44.904.03.056.086.167.333.63c.286.54.694 1.307 1.182 2.208a1.25 1.25 0 1 1-2.198 1.19l-.467-.865-.044.095a1.25 1.25 0 0 1-2.268-1.052l1.103-2.378a1.25 1.25 0 0 1 2.243-.051m-3.891 6.577a1.25 1.25 0 0 1 .608 1.66l-2.205 4.756a1.25 1.25 0 1 1-2.268-1.052l2.205-4.756a1.25 1.25 0 0 1 1.66-.608m7.207 2.086a1.25 1.25 0 0 1 1.711.444 85 85 0 0 0 1.795 2.932c.24.372.412.777.513 1.193a1.25 1.25 0 0 1-.432 1.272c.289.392.332.935.068 1.38-.24.404-.57.76-.985 1.038a18 18 0 0 1-1.842 1.079 1.25 1.25 0 1 1-1.135-2.228c.548-.28 1.079-.588 1.584-.927a.74.74 0 0 0 .229-.239q.12-.2.293-.337a1.25 1.25 0 0 1-.209-.446 1.4 1.4 0 0 0-.185-.43 88 88 0 0 1-1.849-3.02 1.25 1.25 0 0 1 .444-1.71m-11.618 7.426a1.25 1.25 0 0 1 .609 1.66l-.271.583a1.25 1.25 0 0 1 .07 2.5 32 32 0 0 1-1.93.023l-.115-.004-.032-.001H38.1l.054-1.25-.054 1.25a1.25 1.25 0 0 1-1.08-1.775l1.102-2.378a1.25 1.25 0 0 1 1.66-.608m9.383 1.893a1.25 1.25 0 0 1-.844 1.553 31 31 0 0 1-4.038.895 1.25 1.25 0 0 1-.384-2.47 29 29 0 0 0 3.713-.822 1.25 1.25 0 0 1 1.553.844M80.646 66.026a1.25 1.25 0 0 1-.633 1.65L51.54 80.354a1.25 1.25 0 1 1-1.016-2.284l28.472-12.677a1.25 1.25 0 0 1 1.65.633M86.55 77.844a1.25 1.25 0 0 1-.634 1.65L57.444 92.172a1.25 1.25 0 0 1-1.017-2.284L84.899 77.21a1.25 1.25 0 0 1 1.65.634M94.523 87.576a1.25 1.25 0 0 1-.562 1.676l-27.674 13.773a1.25 1.25 0 0 1-1.114-2.239l27.674-13.772a1.25 1.25 0 0 1 1.676.562" clip-rule="evenodd"/><path fill="#7AC5E8" d="M161.288 62.664c-12.613-10.678-26.354-39.604-26.121-58.987.024-2.016-2.15-3.524-3.935-2.587l-28.696 15.071a2.45 2.45 0 0 0-1.078 1.129l-8.846 18.868a2.36 2.36 0 0 0-.227 1.036c.244 16.643 11.649 36.697 25.701 50.452a2.42 2.42 0 0 0 2.567.513c7.236-2.791 11.204-4.183 40.379-20.91 1.636-.939 1.696-3.367.256-4.585" opacity=".75"/><path fill="#82C2F1" d="M108.316 29.354c-2.906-4.504-6.881-12.14-6.881-12.14l-8.82 19.025s9.087.4 15.219-3.717c1.037-.696 1.159-2.118.482-3.168"/><path fill="#DFF1FA" fill-rule="evenodd" d="M135.107 37.76a1.25 1.25 0 0 1-.634 1.65l-28.472 12.678a1.25 1.25 0 1 1-1.017-2.284l28.472-12.678a1.25 1.25 0 0 1 1.651.634M141.01 49.578a1.25 1.25 0 0 1-.634 1.65l-28.472 12.678a1.25 1.25 0 1 1-1.017-2.284l28.472-12.678a1.25 1.25 0 0 1 1.651.634M148.983 59.31a1.25 1.25 0 0 1-.562 1.676L120.747 74.76a1.25 1.25 0 1 1-1.113-2.239l27.673-13.772a1.25 1.25 0 0 1 1.676.562" clip-rule="evenodd"/><path fill="#7AC5E8" d="M54.542 120.674C41.93 109.996 28.188 81.07 28.421 61.687c.024-2.015-2.15-3.524-3.935-2.587L-4.21 74.172A2.45 2.45 0 0 0-5.288 75.3l-8.846 18.868a2.36 2.36 0 0 0-.227 1.036c.244 16.644 11.649 36.697 25.702 50.452a2.42 2.42 0 0 0 2.566.514c7.236-2.792 11.205-4.184 40.379-20.911 1.636-.938 1.696-3.366.256-4.585" opacity=".75"/><path fill="#DFF1FA" fill-rule="evenodd" d="M28.36 95.77a1.25 1.25 0 0 1-.633 1.65L-.745 110.099a1.25 1.25 0 1 1-1.017-2.284L26.71 95.137a1.25 1.25 0 0 1 1.65.633M34.264 107.588a1.25 1.25 0 0 1-.634 1.65L5.158 121.916a1.25 1.25 0 1 1-1.017-2.284l28.472-12.677a1.25 1.25 0 0 1 1.65.633M42.238 117.32a1.25 1.25 0 0 1-.563 1.676l-27.674 13.773a1.25 1.25 0 0 1-1.113-2.238l27.674-13.773a1.25 1.25 0 0 1 1.675.562" clip-rule="evenodd"/></g><path fill="#5141BA" d="M110.409 68.947c-1.344 12.937-11.581 21.931-24.888 21.931-13.306 0-24.093-9.819-24.093-21.931 0-3.375.262-6.231.756-8.65-.162 1.037-.25 2.1-.25 3.175 0 12.112 10.788 21.931 24.094 21.931s24.093-9.819 24.093-21.931c0-1.819-.243-3.581-.7-5.269.875 2.819 1.25 6.344.988 10.744"/><path fill="#A4A1E0" d="M109.421 58.203c-2.594-9.562-12.087-16.656-23.394-16.656-12.118 0-22.143 8.144-23.843 18.737v.013c-.163 1.037-.25 2.1-.25 3.175 0 12.112 10.787 21.931 24.093 21.931 13.307 0 24.094-9.819 24.094-21.931a20.2 20.2 0 0 0-.7-5.269m-3.194 6.194v.025c-.018.275-.037.556-.068.831l-.019.144c-.025.225-.05.45-.088.675a16 16 0 0 1-.212 1.112c-.044.22-.1.432-.156.644-.025.081-.044.163-.069.244l-.019.056a13 13 0 0 1-.212.7 13 13 0 0 1-.307.838q-.157.414-.343.818a17.512 17.512 0 0 1-1.95 3.294c-.082.119-.175.238-.263.35-.012.019-.025.031-.037.05q-.152.195-.313.381-.216.262-.45.525a19 19 0 0 1-2.012 1.944c-.144.119-.288.238-.432.344-.256.212-.525.412-.793.6a8 8 0 0 1-.475.331q-.433.299-.894.569-.29.178-.588.337c0 .007-.018.013-.025.013-.275.156-.55.3-.837.437a16 16 0 0 1-.806.382c-.02.012-.044.018-.063.025-.294.13-.594.256-.9.368-.281.113-.575.22-.862.313-.025.012-.05.019-.082.031q-.85.281-1.73.488c-.126.037-.25.062-.376.087q-.345.084-.7.15c-.019 0-.037.006-.056.006a24 24 0 0 1-.963.163h-.018c-.307.044-.62.081-.925.106q-.15.018-.3.025c-.225.025-.45.038-.675.05-.063.006-.125.006-.194.006-.325.02-.656.025-.988.025-11.168 0-20.225-8.243-20.225-18.412 0-.294.007-.594.025-.888.013-.287.038-.58.07-.868 0-.044 0-.088.012-.125q.037-.366.093-.732.009-.018.007-.037c.043-.281.1-.563.162-.838q.158-.788.4-1.55.007-.009.006-.018a17.5 17.5 0 0 1 .87-2.232q.02-.027.03-.056.15-.32.32-.631.017-.026.024-.044.14-.264.288-.519.063-.12.137-.23.198-.33.406-.657c.113-.169.22-.331.338-.494.194-.269.387-.537.594-.794.137-.175.275-.35.425-.518a19 19 0 0 1 1.718-1.782q.346-.31.7-.612.723-.591 1.5-1.125c.25-.169.507-.338.77-.494.018-.019.043-.031.062-.044.23-.143.475-.28.718-.412a.6.6 0 0 1 .125-.069c.188-.106.382-.212.575-.306 0 0 0-.006.007 0 .075-.044.156-.088.237-.119q.358-.185.725-.344.073-.04.156-.068a20 20 0 0 1 1.713-.663c.05-.019.1-.031.144-.044.28-.1.568-.18.856-.262.269-.081.537-.15.812-.213.157-.043.307-.075.463-.106.144-.037.287-.069.437-.087.15-.038.3-.063.45-.088q.244-.045.488-.081c.187-.031.369-.056.556-.075a23.56 23.56 0 0 1 .9-.1q.45-.038.9-.056c.331-.02.669-.025 1.006-.025 3.844 0 7.444.98 10.507 2.675 5.825 3.23 9.718 9.068 9.718 15.73 0 .313 0 .62-.025.926"/><path fill="#5141BA" d="M104.734 70.485c.244-1.131.369-2.3.369-3.494 0-10.162-9.057-18.406-20.225-18.406-8.444 0-15.682 4.713-18.707 11.4 1.788-8.5 10-14.919 19.857-14.919 11.168 0 20.225 8.244 20.225 18.407 0 2.487-.538 4.85-1.519 7.012"/><path fill="#EFEFEF" d="M105.103 66.99c0 1.195-.125 2.363-.369 3.495-3.031 6.687-10.262 11.4-18.706 11.4-11.169 0-20.225-8.244-20.225-18.413 0-1.194.125-2.363.368-3.488 3.025-6.687 10.263-11.4 18.707-11.4 11.168 0 20.225 8.244 20.225 18.407" opacity=".5"/><path fill="#EFEFEF" d="m106.942 78.654-3.963 4.994 6.385 5.066 3.962-4.995z"/><path fill="#EFEFEF" d="M106.702 82.53c1.094-1.379 1.267-3.064.385-3.763-.881-.7-2.483-.149-3.577 1.23s-1.267 3.064-.385 3.764 2.483.148 3.577-1.23"/><path fill="#FFC79D" d="M112.942 87.479c1.53-1.928 2.055-4.058 1.174-4.758s-2.837.297-4.366 2.225c-1.53 1.928-2.056 4.058-1.174 4.757.881.7 2.836-.297 4.366-2.225"/><path fill="#FFC79D" d="m114.156 82.679-5.617 7.08 34.467 27.347 5.617-7.08z"/><path fill="#FF8D18" d="M147.436 114.872c1.547-1.95 2.086-4.098 1.205-4.797-.882-.7-2.85.314-4.397 2.264s-2.087 4.098-1.206 4.797 2.851-.314 4.398-2.264"/></g><defs><clipPath id="Q7em3leObx_a"><path fill="#fff" d="M0 0h150v150H0z"/></clipPath><clipPath id="Q7em3leObx_b"><rect width="125" height="125" x="12.64" y="12.5" fill="#fff" rx="62.5"/></clipPath></defs></svg>