<svg xmlns="http://www.w3.org/2000/svg" width="300" height="300" fill="none" class="persona-ilustration" viewBox="0 0 300 300"><g clip-path="url(#N11FBCSCf1Ti4itRDdmEjsBt8RNSug4wJGoaByWbKrI_a)"><g clip-path="url(#N11FBCSCf1Ti4itRDdmEjsBt8RNSug4wJGoaByWbKrI_b)"><rect width="250" height="250" x="25.28" y="25" fill="#D3EDFF" rx="125"/><path fill="#D0F3FF" d="M213.656 181.86c-25.227-21.356-52.708-79.207-52.243-117.973.048-4.032-4.3-7.049-7.869-5.174L96.152 88.856a4.9 4.9 0 0 0-2.157 2.256l-17.691 37.736a4.7 4.7 0 0 0-.455 2.073c.488 33.287 23.298 73.393 51.403 100.904 1.355 1.326 3.365 1.709 5.134 1.027 14.472-5.584 22.408-8.368 80.757-41.822 3.272-1.877 3.392-6.733.513-9.17" opacity=".75"/><path fill="#82C2F1" fill-rule="evenodd" d="M152.381 56.5a7.4 7.4 0 0 1 4.097-.83 2.5 2.5 0 0 1-.428 4.982 2.4 2.4 0 0 0-1.344.274l-4.782 2.512a2.5 2.5 0 1 1-2.325-4.427zm7.178 2.483A2.5 2.5 0 0 1 162.946 60a8.03 8.03 0 0 1 .966 3.917q-.026 2.236.073 4.567a2.5 2.5 0 1 1-4.995.212 89 89 0 0 1-.077-4.839 3.05 3.05 0 0 0-.37-1.487 2.5 2.5 0 0 1 1.016-3.387m-18.15 6.103a2.5 2.5 0 0 1-1.051 3.376l-9.565 5.024a2.5 2.5 0 1 1-2.325-4.427l9.565-5.024a2.5 2.5 0 0 1 3.376 1.051m-19.131 10.048a2.5 2.5 0 0 1-1.05 3.375l-9.566 5.024a2.5 2.5 0 0 1-2.325-4.427l9.566-5.023a2.5 2.5 0 0 1 3.375 1.05m39.717.365a2.5 2.5 0 0 1 2.804 2.153c.392 2.98.909 6.031 1.539 9.132a2.5 2.5 0 1 1-4.9.996 139 139 0 0 1-1.596-9.476 2.5 2.5 0 0 1 2.153-2.805m-58.847 9.682a2.5 2.5 0 0 1-1.051 3.376l-4.783 2.512c-.463.243-.833.63-1.055 1.104l-2.212 4.717a2.5 2.5 0 0 1-4.527-2.122l2.212-4.717a7.4 7.4 0 0 1 3.257-3.409l4.783-2.512a2.5 2.5 0 0 1 3.376 1.051m62.251 8.858a2.5 2.5 0 0 1 3.055 1.779c.782 2.958 1.653 5.94 2.605 8.929a2.5 2.5 0 1 1-4.765 1.517 192 192 0 0 1-2.674-9.17 2.5 2.5 0 0 1 1.779-3.055M88.422 103a2.5 2.5 0 0 1 1.203 3.325l-4.423 9.434a2.5 2.5 0 1 1-4.528-2.122l4.423-9.434a2.5 2.5 0 0 1 3.325-1.203m82.455 9.077a2.5 2.5 0 0 1 3.211 1.48 220 220 0 0 0 3.415 8.676 2.501 2.501 0 0 1-4.613 1.928 223 223 0 0 1-3.492-8.873 2.5 2.5 0 0 1 1.479-3.211m-91.3 9.791a2.5 2.5 0 0 1 1.202 3.325l-2.212 4.717a3 3 0 0 0-.099.245q-.042.123-.095.239 0 .124-.014.25a2 2 0 0 0-.01.241q.034 2.306.213 4.661a2.5 2.5 0 0 1-4.985.38 81 81 0 0 1-.228-4.967 7 7 0 0 1 .037-.828c.029-.282.104-.548.217-.792 0-.267.044-.538.135-.805q.132-.383.302-.746l2.212-4.717a2.5 2.5 0 0 1 3.325-1.203m98.377 7.687a2.5 2.5 0 0 1 3.323 1.205 224 224 0 0 0 4.124 8.363 2.5 2.5 0 1 1-4.436 2.305 226 226 0 0 1-4.217-8.55 2.5 2.5 0 0 1 1.206-3.323M76.875 142.839a2.5 2.5 0 0 1 2.912 2.005 106 106 0 0 0 2.132 9.182 2.5 2.5 0 0 1-4.817 1.34 111 111 0 0 1-2.232-9.614 2.5 2.5 0 0 1 2.005-2.913m109.587 3.538a2.5 2.5 0 0 1 3.415.915 191 191 0 0 0 4.842 7.942 2.5 2.5 0 1 1-4.202 2.709 194 194 0 0 1-4.97-8.151 2.5 2.5 0 0 1 .915-3.415M81.604 161.536a2.5 2.5 0 0 1 3.201 1.501c1.06 2.93 2.236 5.869 3.522 8.804a2.5 2.5 0 0 1-4.58 2.006 149 149 0 0 1-3.644-9.111 2.5 2.5 0 0 1 1.501-3.2m114.873.818a2.5 2.5 0 0 1 3.493.547 128 128 0 0 0 5.699 7.276 2.5 2.5 0 0 1-3.818 3.229 134 134 0 0 1-5.921-7.559 2.5 2.5 0 0 1 .547-3.493m11.908 14.609a2.5 2.5 0 0 1 3.535-.056 68 68 0 0 0 3.351 3.045 8.24 8.24 0 0 1 2.253 3.061 2.5 2.5 0 0 1-4.598 1.964 3.25 3.25 0 0 0-.885-1.209 73 73 0 0 1-3.6-3.27 2.5 2.5 0 0 1-.056-3.535m-119.351 2.372a2.5 2.5 0 0 1 3.363 1.091q2.147 4.208 4.554 8.357a2.5 2.5 0 1 1-4.326 2.508 181 181 0 0 1-4.682-8.593 2.5 2.5 0 0 1 1.09-3.363m127.201 7.644a2.5 2.5 0 0 1 .946 3.407 7.46 7.46 0 0 1-2.794 2.813l-3.981 2.279a2.5 2.5 0 1 1-2.483-4.34l3.977-2.277c.407-.234.712-.554.928-.936a2.5 2.5 0 0 1 3.407-.946m-12.807 9.604a2.5 2.5 0 0 1-.938 3.409 2944 2944 0 0 1-7.904 4.477 2.5 2.5 0 0 1-2.457-4.355c2.502-1.411 5.129-2.899 7.89-4.469a2.5 2.5 0 0 1 3.409.938m-104.95-.423a2.5 2.5 0 0 1 3.458.735 197 197 0 0 0 5.383 7.862 2.5 2.5 0 1 1-4.056 2.924 203 203 0 0 1-5.52-8.062 2.5 2.5 0 0 1 .734-3.459m89.123 9.369a2.5 2.5 0 0 1-.965 3.401c-2.84 1.586-5.496 3.058-7.984 4.427a2.501 2.501 0 0 1-2.41-4.381c2.478-1.363 5.125-2.83 7.957-4.412a2.5 2.5 0 0 1 3.402.965m-78.039 6.425a2.5 2.5 0 0 1 3.513.399 199 199 0 0 0 6.111 7.311 2.5 2.5 0 1 1-3.758 3.299 204 204 0 0 1-6.265-7.496 2.5 2.5 0 0 1 .399-3.513m62.083 2.386a2.5 2.5 0 0 1-1.016 3.386 653 653 0 0 1-8.072 4.277 2.5 2.5 0 0 1-2.307-4.436 625 625 0 0 0 8.009-4.244 2.5 2.5 0 0 1 3.386 1.017m-16.118 8.456a2.5 2.5 0 0 1-1.145 3.345 223 223 0 0 1-8.336 3.889 2.499 2.499 0 1 1-2.014-4.576 220 220 0 0 0 8.151-3.803 2.5 2.5 0 0 1 3.344 1.145m-33.417 3.817a2.5 2.5 0 0 1 3.535.054 181 181 0 0 0 3.356 3.371q.24.233.526.383.33.174.584.423.335-.135.711-.17.336-.03.664-.155l1.053-.406a684 684 0 0 0 3.184-1.232 2.5 2.5 0 0 1 1.818 4.658c-1.059.413-2.125.824-3.215 1.244l-1.04.401a7.4 7.4 0 0 1-2.021.47 2.49 2.49 0 0 1-1.966-.699 2.5 2.5 0 0 1-2.092-.105 7.2 7.2 0 0 1-1.704-1.239 191 191 0 0 1-3.447-3.463 2.5 2.5 0 0 1 .054-3.535" clip-rule="evenodd"/><path fill="#AADBFF" d="M107.711 115.241c-5.812-9.009-13.761-24.279-13.761-24.279L76.308 129.01s18.175.8 30.439-7.433c2.075-1.393 2.318-4.236.964-6.336" opacity=".5"/><path fill="#82C2F1" fill-rule="evenodd" d="m96.167 89.808.06.113a339 339 0 0 0 .838 1.594 528 528 0 0 0 2.365 4.414 2.5 2.5 0 0 1-4.397 2.382l-.933-1.73-.087.189a2.5 2.5 0 0 1-4.537-2.103l2.206-4.756a2.5 2.5 0 0 1 4.485-.103m-7.781 13.154a2.5 2.5 0 0 1 1.216 3.32l-4.41 9.512a2.5 2.5 0 0 1-4.536-2.104l4.41-9.512a2.5 2.5 0 0 1 3.32-1.216m14.414 4.173a2.5 2.5 0 0 1 3.423.888c1.235 2.1 2.457 4.109 3.588 5.863.48.744.825 1.554 1.028 2.387a2.5 2.5 0 0 1-.866 2.543c.578.785.666 1.871.137 2.761a6.5 6.5 0 0 1-1.969 2.076 36 36 0 0 1-3.686 2.157 2.5 2.5 0 0 1-2.27-4.455 31 31 0 0 0 3.169-1.854 1.5 1.5 0 0 0 .457-.479c.158-.265.358-.491.586-.674a2.5 2.5 0 0 1-.416-.892 2.8 2.8 0 0 0-.371-.86 175 175 0 0 1-3.697-6.038 2.5 2.5 0 0 1 .887-3.423m-23.235 14.851a2.5 2.5 0 0 1 1.216 3.319l-.541 1.168a2.5 2.5 0 0 1 .139 4.998c-1.27.053-2.3.063-3.021.059-.36-.002-.643-.007-.84-.012l-.228-.007-.064-.003h-.018l-.006-.001h-.004l.11-2.497-.11 2.497a2.498 2.498 0 0 1-2.158-3.549l2.205-4.756a2.5 2.5 0 0 1 3.32-1.216m18.765 3.786a2.5 2.5 0 0 1-1.688 3.107 62 62 0 0 1-8.077 1.789 2.5 2.5 0 1 1-.767-4.941 57 57 0 0 0 7.426-1.643 2.5 2.5 0 0 1 3.106 1.688M161.292 132.053a2.5 2.5 0 0 1-1.267 3.3l-56.944 25.356a2.501 2.501 0 0 1-2.034-4.568l56.944-25.355a2.5 2.5 0 0 1 3.301 1.267M173.099 155.688a2.5 2.5 0 0 1-1.267 3.301l-56.945 25.355a2.5 2.5 0 0 1-3.3-1.267 2.5 2.5 0 0 1 1.266-3.3l56.945-25.356a2.5 2.5 0 0 1 3.301 1.267M189.046 175.153a2.5 2.5 0 0 1-1.124 3.352l-55.348 27.545a2.5 2.5 0 0 1-2.228-4.476l55.348-27.545a2.5 2.5 0 0 1 3.352 1.124" clip-rule="evenodd"/><path fill="#7AC5E8" d="M322.577 125.327C297.35 103.971 269.868 46.12 270.333 7.354c.049-4.031-4.299-7.049-7.868-5.174l-57.392 30.143a4.9 4.9 0 0 0-2.157 2.256l-17.691 37.736a4.7 4.7 0 0 0-.455 2.073c.488 33.287 23.298 73.393 51.403 100.904 1.355 1.326 3.365 1.709 5.134 1.027 14.472-5.584 22.408-8.368 80.757-41.822 3.272-1.876 3.392-6.732.513-9.17" opacity=".75"/><path fill="#82C2F1" d="M216.631 58.708c-5.811-9.009-13.76-24.278-13.76-24.278l-17.642 38.047s18.175.8 30.439-7.433c2.075-1.392 2.318-4.236.963-6.336"/><path fill="#DFF1FA" fill-rule="evenodd" d="M270.213 75.52a2.5 2.5 0 0 1-1.267 3.3l-56.944 25.356a2.5 2.5 0 0 1-2.034-4.568l56.944-25.355a2.5 2.5 0 0 1 3.301 1.267M282.019 99.156a2.5 2.5 0 0 1-1.266 3.3l-56.945 25.356a2.501 2.501 0 0 1-2.034-4.568l56.945-25.355a2.5 2.5 0 0 1 3.3 1.267M297.967 118.621a2.5 2.5 0 0 1-1.124 3.352l-55.348 27.544a2.5 2.5 0 1 1-2.228-4.476l55.348-27.545a2.5 2.5 0 0 1 3.352 1.125" clip-rule="evenodd"/><path fill="#7AC5E8" d="M109.085 241.348c-25.227-21.356-52.708-79.207-52.243-117.973.048-4.032-4.3-7.049-7.87-5.174l-57.391 30.142a4.9 4.9 0 0 0-2.157 2.257l-17.691 37.736a4.7 4.7 0 0 0-.455 2.073c.488 33.286 23.298 73.393 51.403 100.904 1.355 1.326 3.365 1.709 5.134 1.027 14.472-5.584 22.408-8.368 80.757-41.822 3.272-1.877 3.392-6.733.513-9.17" opacity=".75"/><path fill="#DFF1FA" fill-rule="evenodd" d="M56.721 191.54a2.5 2.5 0 0 1-1.267 3.301L-1.49 220.196a2.5 2.5 0 1 1-2.034-4.567l56.944-25.356a2.5 2.5 0 0 1 3.301 1.267M68.528 215.176a2.5 2.5 0 0 1-1.267 3.301l-56.945 25.355a2.5 2.5 0 1 1-2.034-4.568l56.945-25.355a2.5 2.5 0 0 1 3.3 1.267M84.475 234.641a2.5 2.5 0 0 1-1.124 3.352l-55.348 27.545a2.5 2.5 0 0 1-2.228-4.476l55.348-27.545a2.5 2.5 0 0 1 3.352 1.124" clip-rule="evenodd"/></g><path fill="#5141BA" d="M220.818 137.895c-2.688 25.875-23.163 43.862-49.775 43.862-26.613 0-48.188-19.637-48.188-43.862 0-6.75.525-12.463 1.513-17.3-.325 2.075-.5 4.2-.5 6.35 0 24.225 21.575 43.862 48.187 43.862 26.613 0 48.188-19.637 48.188-43.862 0-3.638-.488-7.163-1.4-10.538 1.75 5.638 2.5 12.688 1.975 21.488"/><path fill="#A4A1E0" d="M218.842 116.407c-5.187-19.125-24.175-33.313-46.787-33.313-24.238 0-44.288 16.288-47.688 37.475v.025c-.325 2.075-.5 4.2-.5 6.35 0 24.225 21.575 43.863 48.188 43.863 26.612 0 48.187-19.638 48.187-43.863 0-3.637-.487-7.162-1.4-10.537m-6.387 12.387v.05c-.038.55-.075 1.113-.138 1.663l-.037.287c-.05.45-.1.9-.175 1.35-.113.75-.263 1.5-.425 2.225-.088.438-.2.863-.313 1.288-.05.162-.087.325-.137.487l-.038.113c-.125.475-.275.937-.425 1.4a27 27 0 0 1-.612 1.675c-.213.55-.438 1.1-.688 1.637-.175.388-.35.763-.537 1.138a35 35 0 0 1-3.363 5.45c-.162.237-.35.475-.525.7-.025.037-.05.062-.075.1-.2.262-.412.512-.625.762q-.43.525-.9 1.05a38 38 0 0 1-4.025 3.888c-.287.237-.575.475-.862.687-.513.425-1.05.825-1.588 1.2-.312.238-.625.45-.95.663-.575.4-1.175.775-1.787 1.137-.388.238-.775.463-1.175.675 0 .013-.038.025-.05.025-.55.313-1.1.6-1.675.875-.525.263-1.063.525-1.613.763-.037.025-.087.037-.125.05-.587.262-1.187.512-1.8.737a28 28 0 0 1-1.725.625c-.05.025-.1.038-.162.063-1.138.375-2.288.7-3.463.975-.25.075-.5.125-.75.175-.462.112-.925.212-1.4.3-.037 0-.075.012-.112.012-.638.125-1.275.225-1.925.325h-.038c-.612.088-1.237.163-1.85.213-.2.025-.4.037-.6.05-.45.05-.9.075-1.35.1-.125.012-.25.012-.387.012-.65.038-1.313.05-1.975.05-22.338 0-40.45-16.487-40.45-36.825 0-.587.012-1.187.05-1.775.025-.575.075-1.162.137-1.737 0-.088 0-.175.025-.25q.075-.731.188-1.463c.012-.025.012-.05.012-.075.088-.562.2-1.125.325-1.675.213-1.05.475-2.087.8-3.1.013-.012.013-.025.013-.037a35 35 0 0 1 1.737-4.463.5.5 0 0 0 .063-.112c.2-.425.412-.85.637-1.263a1 1 0 0 0 .05-.087c.188-.35.375-.7.575-1.038a6 6 0 0 1 .275-.462c.263-.438.538-.875.813-1.313.225-.337.437-.662.675-.987a38 38 0 0 1 1.187-1.588c.275-.35.55-.7.85-1.037a39 39 0 0 1 3.438-3.563c.462-.412.925-.825 1.4-1.225a44 44 0 0 1 3-2.25 32 32 0 0 1 1.537-.987c.038-.038.088-.063.125-.088.463-.287.95-.562 1.438-.825.087-.062.162-.1.25-.137.375-.213.762-.425 1.15-.613 0 0 0-.012.012 0 .15-.087.313-.175.475-.237.475-.25.963-.475 1.45-.688.1-.05.2-.1.313-.137a40 40 0 0 1 3.425-1.325c.1-.038.2-.063.287-.088.563-.2 1.138-.362 1.713-.525.537-.162 1.075-.3 1.625-.425.312-.087.612-.15.925-.212.287-.075.575-.138.875-.175.3-.075.6-.125.9-.175.325-.063.65-.113.975-.163.375-.062.737-.112 1.112-.15.163-.025.313-.05.475-.062.438-.05.888-.1 1.325-.138q.9-.075 1.8-.112c.663-.038 1.338-.05 2.013-.05 7.687 0 14.887 1.962 21.012 5.35 11.65 6.462 19.438 18.137 19.438 31.462 0 .625 0 1.238-.05 1.85"/><path fill="#5141BA" d="M209.468 140.97c.487-2.262.737-4.6.737-6.987 0-20.325-18.112-36.813-40.45-36.813-16.887 0-31.362 9.425-37.412 22.8 3.575-17 20-29.837 39.712-29.837 22.338 0 40.45 16.487 40.45 36.812 0 4.975-1.075 9.7-3.037 14.025"/><path fill="#EFEFEF" d="M210.205 133.981c0 2.388-.25 4.725-.737 6.988-6.063 13.375-20.525 22.8-37.413 22.8-22.337 0-40.45-16.488-40.45-36.825 0-2.388.25-4.725.738-6.975 6.05-13.375 20.525-22.8 37.412-22.8 22.338 0 40.45 16.487 40.45 36.812" opacity=".5"/><path fill="#EFEFEF" d="m213.884 157.308-7.925 9.988 12.769 10.131 7.925-9.988z"/><path fill="#EFEFEF" d="M213.405 165.061c2.188-2.758 2.533-6.128.77-7.527s-4.967-.297-7.155 2.461-2.533 6.128-.77 7.527 4.966.297 7.155-2.461"/><path fill="#FFC79D" d="M225.884 174.957c3.059-3.855 4.11-8.115 2.347-9.514s-5.672.593-8.732 4.449-4.11 8.116-2.347 9.514c1.763 1.399 5.672-.593 8.732-4.449"/><path fill="#FFC79D" d="m228.312 165.358-11.235 14.16 68.934 54.695 11.235-14.159z"/><path fill="#FF8D18" d="M294.872 229.745c3.094-3.9 4.173-8.196 2.41-9.594-1.763-1.399-5.701.628-8.795 4.528s-4.173 8.195-2.41 9.594 5.7-.629 8.795-4.528"/></g><defs><clipPath id="N11FBCSCf1Ti4itRDdmEjsBt8RNSug4wJGoaByWbKrI_a"><path fill="#fff" d="M0 0h300v300H0z"/></clipPath><clipPath id="N11FBCSCf1Ti4itRDdmEjsBt8RNSug4wJGoaByWbKrI_b"><rect width="250" height="250" x="25.28" y="25" fill="#fff" rx="125"/></clipPath></defs></svg>