<svg xmlns="http://www.w3.org/2000/svg" width="16" height="16" fill="none" class="persona-icon" viewBox="0 0 16 16"><path fill="currentColor" fill-rule="evenodd" d="M2.147 2.147a.5.5 0 0 1 .707 0l11 11a.5.5 0 0 1-.707.707l-1.556-1.556c-3.616 2.069-8.627.76-10.467-3.88a1.13 1.13 0 0 1 0-.834C1.68 6.176 2.535 5.068 3.561 4.27L2.147 2.853a.5.5 0 0 1 0-.707m2.129 2.836c-.926.69-1.71 1.677-2.223 2.97a.13.13 0 0 0 0 .095c1.565 3.947 5.711 5.103 8.8 3.513L9.42 10.126a2.54 2.54 0 0 1-3.525-3.525zm9.671 2.97c-1.347-3.4-4.602-4.724-7.45-4.02a.5.5 0 1 1-.239-.971c3.31-.818 7.079.738 8.619 4.621a1.13 1.13 0 0 1 0 .833 8.1 8.1 0 0 1-1.36 2.282.5.5 0 1 1-.76-.649 7.1 7.1 0 0 0 1.19-2.002.13.13 0 0 0 0-.095M6.623 7.33A1.54 1.54 0 0 0 8.69 9.397z" clip-rule="evenodd"/></svg>