<svg xmlns="http://www.w3.org/2000/svg" width="24" height="24" fill="none" class="persona-icon" viewBox="0 0 24 24"><path fill="currentColor" fill-rule="evenodd" d="M3.313 2.225a.77.77 0 0 0-1.088 1.088L5.593 6.68c-1.229 1.185-2.26 2.752-2.98 4.688-.152.407-.15.861 0 1.265 2.68 7.196 9.627 9.192 14.604 5.672l3.47 3.47a.77.77 0 0 0 1.088-1.088L3.313 2.225ZM6.662 7.75 8.873 9.96a4.005 4.005 0 0 0-.551 2.038c0 2.138 1.647 3.87 3.678 3.87.778 0 1.5-.254 2.094-.687l2.026 2.025c-4.132 2.672-9.83 1.058-12.136-5.138a.2.2 0 0 1-.001-.137c.659-1.77 1.594-3.16 2.679-4.182Zm3.316 3.316c-.119.286-.185.601-.185.933 0 1.283.988 2.323 2.207 2.323.356 0 .691-.088.989-.246l-3.01-3.01Z" clip-rule="evenodd"/><path fill="currentColor" d="M9.408 6.02c3.881-1.448 8.569.43 10.609 5.911a.198.198 0 0 1 0 .136c-.456 1.224-1.043 2.265-1.72 3.128a.802.802 0 0 0 .1 1.09.71.71 0 0 0 1.036-.105c.78-.996 1.445-2.18 1.954-3.549.151-.407.15-.86 0-1.265-2.307-6.195-7.783-8.554-12.471-6.804-.383.143-.584.585-.448.988.136.403.557.614.94.47Z"/></svg>