<svg xmlns="http://www.w3.org/2000/svg" width="24" height="24" fill="none" class="persona-icon" viewBox="0 0 24 24"><path fill="currentColor" fill-rule="evenodd" d="M3.22 3.22a.75.75 0 0 1 1.06 0l16.5 16.5a.75.75 0 1 1-1.06 1.06l-2.646-2.645c-5.16 2.905-12.276 1.03-14.895-5.565a1.65 1.65 0 0 1 0-1.215l.483.192-.484-.192c.788-1.984 1.988-3.55 3.43-4.685L3.22 4.28a.75.75 0 0 1 0-1.06m17.207 8.687c-1.91-4.809-6.521-6.683-10.556-5.687a.75.75 0 0 1-.36-1.457c4.73-1.166 10.11 1.053 12.31 6.59.154.39.155.824 0 1.215a11.5 11.5 0 0 1-1.942 3.254.75.75 0 0 1-1.14-.975 10 10 0 0 0 1.688-2.833.15.15 0 0 0 0-.107M6.678 7.74c-1.292.976-2.387 2.36-3.106 4.17l-.697-.277.697.276a.15.15 0 0 0 0 .108c2.206 5.55 8.024 7.201 12.393 5.01L13.99 15.05A3.65 3.65 0 0 1 8.939 10zm3.362 3.362a2.15 2.15 0 0 0 2.848 2.848z" clip-rule="evenodd"/></svg>