<svg xmlns="http://www.w3.org/2000/svg" width="32" height="32" fill="none"><path fill="#000" fill-rule="evenodd" d="M4.71 3.295A1 1 0 0 0 3.294 4.71L7.43 8.843c-1.767 1.574-3.248 3.691-4.272 6.33a2.302 2.302 0 0 0 0 1.66c3.637 9.368 13.02 12.021 19.818 7.556l4.32 4.32a1 1 0 1 0 1.414-1.414L9.701 8.287a1.01 1.01 0 0 0-.154-.154L4.71 3.295Zm4.153 6.982c-1.556 1.355-2.897 3.227-3.832 5.637a.252.252 0 0 0 .001.179c3.132 8.067 10.83 10.217 16.473 6.826l-2.699-2.698a4.98 4.98 0 0 1-2.804.86c-2.78 0-5.033-2.274-5.033-5.08 0-1.03.305-1.99.827-2.79l-2.933-2.934Zm4.412 4.413a3.059 3.059 0 0 0-.293 1.312c0 1.683 1.352 3.048 3.02 3.048.476 0 .925-.11 1.325-.308l-4.052-4.052Z" clip-rule="evenodd"/><path fill="#000" d="M12.455 8.155c5.311-1.902 11.725.564 14.517 7.757a.25.25 0 0 1 0 .178c-.623 1.607-1.426 2.973-2.352 4.106a1.022 1.022 0 0 0 .137 1.43 1 1 0 0 0 1.417-.137c1.068-1.308 1.977-2.863 2.674-4.658a2.298 2.298 0 0 0-.001-1.66C25.69 7.039 18.197 3.943 11.78 6.24a1.018 1.018 0 0 0-.612 1.297c.186.529.762.805 1.286.618Z"/></svg>