<svg xmlns="http://www.w3.org/2000/svg" width="32" height="32" fill="none" class="persona-icon" viewBox="0 0 32 32"><path fill="currentColor" d="M4.71 3.295A1 1 0 0 0 3.294 4.71L7.43 8.843c-1.767 1.574-3.248 3.691-4.272 6.33a2.301 2.301 0 0 0 0 1.66c3.637 9.368 13.02 12.021 19.818 7.556l4.32 4.32a1 1 0 1 0 1.414-1.414L9.701 8.287a1.004 1.004 0 0 0-.154-.154L4.71 3.295Zm4.153 6.982 2.933 2.934c-.522.8-.827 1.76-.827 2.79 0 2.806 2.253 5.08 5.033 5.08a4.98 4.98 0 0 0 2.804-.86l2.699 2.698c-5.643 3.391-13.34 1.241-16.473-6.826a.253.253 0 0 1 0-.18c.934-2.41 2.275-4.28 3.83-5.636Zm4.412 4.413 4.052 4.052c-.4.197-.85.308-1.325.308-1.668 0-3.02-1.365-3.02-3.048 0-.47.105-.915.293-1.312ZM12.455 8.155c5.311-1.902 11.725.564 14.517 7.757a.25.25 0 0 1 0 .178c-.623 1.607-1.426 2.973-2.352 4.106a1.022 1.022 0 0 0 .137 1.43 1 1 0 0 0 1.417-.137c1.068-1.308 1.977-2.863 2.674-4.658a2.298 2.298 0 0 0-.001-1.66C25.69 7.039 18.197 3.943 11.78 6.24a1.018 1.018 0 0 0-.612 1.297c.186.529.762.805 1.286.618Z"/></svg>