<svg xmlns="http://www.w3.org/2000/svg" width="16" height="16" fill="none" class="persona-icon" viewBox="0 0 16 16"><path fill="currentColor" d="M5.111 1a1.944 1.944 0 0 1 .5 3.824v3.994c.206-.137.44-.246.698-.342.425-.157.952-.287 1.586-.423l.373-.08c.46-.098.827-.176 1.127-.252.383-.097.602-.178.737-.26a.39.39 0 0 0 .189-.226c.021-.062.038-.142.05-.25a1.945 1.945 0 1 1 1.003.01 2.3 2.3 0 0 1-.109.568c-.113.327-.315.57-.612.75-.271.167-.616.277-1.012.378-.321.081-.713.164-1.176.263l-.36.076c-.63.135-1.096.253-1.45.384-.35.13-.554.26-.684.397-.217.228-.326.577-.353 1.367a1.945 1.945 0 1 1-1.007-.002V4.824A1.945 1.945 0 0 1 5.111 1"/></svg>