<svg xmlns="http://www.w3.org/2000/svg" width="20" height="20" fill="none" class="persona-icon" viewBox="0 0 20 20"><path fill="currentColor" d="M6.711 2a2.244 2.244 0 0 1 .6 4.408v4.466a4 4 0 0 1 .753-.36c.486-.18 1.087-.33 1.81-.484l.425-.09c.524-.112.94-.2 1.281-.287.435-.11.681-.202.83-.293a.4.4 0 0 0 .203-.24c.022-.064.04-.145.052-.252a2.245 2.245 0 1 1 1.205.011 2.6 2.6 0 0 1-.123.633 1.6 1.6 0 0 1-.71.871c-.314.192-.71.319-1.162.433-.366.093-.813.188-1.34.3l-.41.087c-.715.154-1.245.288-1.645.436-.398.147-.625.292-.768.444-.236.249-.36.63-.392 1.511a2.245 2.245 0 1 1-1.209-.002V6.408A2.246 2.246 0 0 1 6.711 2"/></svg>