<svg xmlns="http://www.w3.org/2000/svg" width="20" height="20" fill="none" class="persona-icon" viewBox="0 0 20 20"><path fill="currentColor" d="M6.711 2a2.244 2.244 0 0 0-.6 4.408v7.184a2.245 2.245 0 1 0 1.209.002c.032-.88.156-1.262.392-1.511.144-.152.37-.297.768-.444.4-.148.93-.282 1.646-.436l.409-.087c.527-.112.974-.207 1.34-.3.452-.115.848-.241 1.162-.433.343-.21.578-.492.71-.87.067-.196.104-.409.123-.633a2.245 2.245 0 1 0-1.205-.012q-.018.158-.052.251a.4.4 0 0 1-.202.24c-.15.092-.396.184-.83.294-.342.086-.758.175-1.282.286l-.425.091c-.723.155-1.324.303-1.81.483a4 4 0 0 0-.753.361V6.408A2.246 2.246 0 0 0 6.711 2"/></svg>