<svg xmlns="http://www.w3.org/2000/svg" width="24" height="24" fill="none" class="persona-icon" viewBox="0 0 24 24"><path fill="currentColor" d="M7.889 2a2.806 2.806 0 0 0-.75 5.51v8.98a2.807 2.807 0 1 0 1.51.003c.04-1.1.196-1.578.491-1.89.18-.189.463-.37.96-.555.5-.184 1.162-.352 2.057-.544l.512-.109c.66-.14 1.218-.259 1.675-.375.565-.143 1.06-.301 1.452-.54.43-.263.723-.616.887-1.09.085-.244.131-.51.155-.79a2.807 2.807 0 1 0-1.506-.015 1.5 1.5 0 0 1-.066.314.5.5 0 0 1-.252.3c-.187.114-.495.23-1.038.367-.427.108-.947.219-1.602.358l-.531.114c-.904.193-1.655.379-2.263.604-.344.127-.66.273-.941.451V7.51A2.807 2.807 0 0 0 7.889 2"/></svg>