<svg xmlns="http://www.w3.org/2000/svg" width="32" height="32" fill="none" class="persona-icon" viewBox="0 0 32 32"><path fill="currentColor" d="M10.222 2a3.889 3.889 0 0 1 1 7.648v7.988c.412-.273.88-.493 1.396-.684.85-.314 1.903-.574 3.172-.846l.746-.16c.92-.195 1.653-.351 2.254-.503.765-.194 1.204-.357 1.473-.522.22-.134.311-.257.378-.45.044-.125.077-.285.1-.5a3.89 3.89 0 0 1 1.037-7.638 3.889 3.889 0 0 1 .97 7.656 4.6 4.6 0 0 1-.217 1.137c-.227.653-.631 1.139-1.225 1.502-.543.331-1.232.552-2.024.753-.643.163-1.426.33-2.352.527l-.72.153c-1.259.27-2.192.506-2.899.767-.703.26-1.11.52-1.37.794-.432.456-.652 1.154-.705 2.734A3.89 3.89 0 0 1 10.222 30a3.889 3.889 0 0 1-1-7.648V9.648a3.89 3.89 0 0 1 1-7.648"/></svg>