<svg xmlns="http://www.w3.org/2000/svg" width="32" height="32" fill="none" class="persona-icon" viewBox="0 0 32 32"><path fill="currentColor" d="M10.222 2a3.889 3.889 0 0 0-1 7.648v12.704a3.89 3.89 0 0 0 1 7.648 3.889 3.889 0 0 0 1.014-7.644c.053-1.58.273-2.278.705-2.734.26-.275.667-.534 1.37-.794.707-.261 1.64-.497 2.899-.767l.72-.153c.926-.197 1.71-.364 2.352-.527.792-.2 1.481-.422 2.024-.753.594-.363.998-.849 1.225-1.502a4.6 4.6 0 0 0 .217-1.137 3.89 3.89 0 0 0-.97-7.656 3.889 3.889 0 0 0-1.037 7.639 2.3 2.3 0 0 1-.1.499c-.067.193-.159.316-.378.45-.27.165-.708.328-1.473.522-.601.152-1.334.308-2.254.504l-.746.159c-1.27.272-2.322.532-3.172.846-.517.191-.984.41-1.396.684V9.648a3.89 3.89 0 0 0-1-7.648"/></svg>