<svg xmlns="http://www.w3.org/2000/svg" width="16" height="16" fill="none" class="persona-icon" viewBox="0 0 16 16"><path fill="currentColor" fill-rule="evenodd" d="M3 4.143a2.43 2.43 0 0 1 2.429-2.429H8.34c.495 0 .968.205 1.306.567L12.52 5.36c.308.331.48.767.48 1.219v.425a4.44 4.44 0 0 0-4.949 7.283H5.43A2.43 2.43 0 0 1 3 11.856zm6.143-.936v1.579c0 .434.351.785.785.785h1.422z" clip-rule="evenodd"/><path fill="currentColor" fill-rule="evenodd" d="M14.446 10.971a3.44 3.44 0 1 1-6.88 0 3.44 3.44 0 0 1 6.88 0m-2.876 1.94a.563.563 0 1 0-1.126 0 .563.563 0 0 0 1.126 0m-.565-1.19c.26 0 .47-.209.47-.467V8.937a.469.469 0 0 0-.939 0v2.317c0 .258.21.468.47.468" clip-rule="evenodd"/></svg>