<svg xmlns="http://www.w3.org/2000/svg" width="24" height="24" fill="none" class="persona-icon" viewBox="0 0 24 24"><path fill="currentColor" fill-rule="evenodd" d="M4.056 5.834A3.833 3.833 0 0 1 7.889 2h4.657a2.8 2.8 0 0 1 2.05.892l4.594 4.92a2.8 2.8 0 0 1 .754 1.915v.764A7 7 0 0 0 12.175 22H7.89a3.833 3.833 0 0 1-3.833-3.833zm11.027 2.333h2.386l-3.691-3.954v2.649c0 .72.584 1.305 1.305 1.305" clip-rule="evenodd"/><path fill="currentColor" fill-rule="evenodd" d="M22.306 16.75a5.5 5.5 0 1 1-11 0 5.5 5.5 0 0 1 11 0m-4.599 3.1a.9.9 0 1 0-1.8 0 .9.9 0 0 0 1.8 0m-.903-1.9c.415 0 .75-.335.75-.748v-3.704a.749.749 0 0 0-1.5 0v3.704c0 .413.336.748.75.748" clip-rule="evenodd"/></svg>