<svg xmlns="http://www.w3.org/2000/svg" width="32" height="32" fill="none" class="persona-icon" viewBox="0 0 32 32"><path fill="currentColor" fill-rule="evenodd" d="M6 8.285a4.857 4.857 0 0 1 4.857-4.857h5.826c.99 0 1.935.41 2.61 1.135l5.747 6.156c.617.661.96 1.532.96 2.437v.85a8.88 8.88 0 0 0-9.898 14.565h-5.245A4.857 4.857 0 0 1 6 23.714zm12.285-1.871V9.57c0 .868.704 1.572 1.572 1.572h2.842z" clip-rule="evenodd"/><path fill="currentColor" fill-rule="evenodd" d="M28.892 21.942a6.88 6.88 0 1 1-13.76 0 6.88 6.88 0 0 1 13.76 0M23.14 25.82a1.126 1.126 0 1 0-2.252 0 1.126 1.126 0 0 0 2.252 0m-1.13-2.376a.937.937 0 0 0 .938-.936v-4.634a.937.937 0 0 0-.938-.935.937.937 0 0 0-.938.935v4.634c0 .517.42.936.938.936" clip-rule="evenodd"/></svg>