<svg xmlns="http://www.w3.org/2000/svg" width="40" height="40" fill="none" class="persona-ilustration" viewBox="0 0 40 40"><g clip-path="url(#tJ4jsScoBc_a)"><g clip-path="url(#tJ4jsScoBc_b)"><rect width="33.333" height="33.333" x="3.333" y="3.334" fill="#D3EDFF" rx="16.667"/><path fill="#82C2F1" d="m5.121 37.762 32.71-6.58-4.543-3.721-39.2 4.96z"/><path fill="#AADBFF" d="m9.087 34.203 32.71-6.58-3.544-4.866-43.938 3.01z"/><path fill="#535353" d="M37.676 24.41a3.226 3.226 0 0 0-3.055-3.307c-6.934-.354-23.181-.961-25.467.982-2.918 2.48-4.938 22.442-4.938 22.442l32.978 1.625z"/><mask id="tJ4jsScoBc_c" width="26" height="25" x="6" y="21" maskUnits="userSpaceOnUse" style="mask-type:alpha"><path fill="#FFC509" d="M7.192 29.827c1.682-5.535 2.284-7.208 6.766-7.81s13.767-.787 14.988.571c2.874 3.203 2.616 7.63.831 15.182-1.785 7.551-8.955 7.243-8.955 7.243H7.748s-2.87-7.571-.556-15.186"/></mask><g mask="url(#tJ4jsScoBc_c)"><path fill="#EA4F4A" d="M7.192 29.827c1.682-5.535 2.284-7.208 6.766-7.81s13.767-.787 14.988.571c2.874 3.203 2.616 7.63.831 15.182-1.785 7.551-8.955 7.243-8.955 7.243H7.748s-2.87-7.571-.556-15.186"/><path fill="#BB393A" d="m19.394 34.654-12.763.392v12.563h17.112z"/></g><path fill="#EA4F4A" d="M19.291 21.84s-4.82.044-6.027 1.058c-1.883 1.063-2.913 2.512-4.069 4.546-3.009 5.295-5.568 10.245-5.844 13.163-.16 1.702.748 3.36 2.32 4.036 1.044.448 2.303.416 3.524-1.047M27.968 22.431s6.596-2.857 8.764 6.153c1.425 5.923 1.019 11.6.474 14.479-.317 1.68-1.648 3.024-3.343 3.236-1.128.143-2.328-.238-3.097-1.982"/><path fill="#F1AA90" d="M14.37 29.168c-.01.904-.214 2.104-1.06 2.958s3.383 2.702 3.383 2.702l2.432-5.168s-3.74-1.177-4.753-.492z"/><path fill="#000" d="M14.37 29.168c-.01.904-.214 2.104-1.06 2.958s3.383 2.702 3.383 2.702l2.432-5.168s-3.74-1.177-4.753-.492z" opacity=".5" style="mix-blend-mode:overlay"/><mask id="tJ4jsScoBc_d" width="8" height="15" x="13" y="19" maskUnits="userSpaceOnUse" style="mask-type:alpha"><path fill="#E58061" d="M18.987 31.145c-.417 1.084-.854 1.86-.89 1.933-.259.514-.882.054-2.384-.512-.78-.292-1.604-2.592-1.798-3.993-.448-3.239-.555-4.176-.745-5.315-.079-.478.48-.544.63-.452.11.072 1.002 3.154 1.002 3.154s-1.186-3.957-.937-4.504c.249-.55.657-.51.773-.184.096.27 1.176 4.062 1.176 4.062l-1.316-5.365-.006-.085a.37.37 0 0 1 .175-.357c.157-.088.395-.112.649.247.441.63 1.685 5.099 1.685 5.099l-.949-3.915a.5.5 0 0 1 .037-.342c.116-.23.37-.533.785-.014.564.701 1.416 4.25 1.512 4.649l.011.067.173.746c-.061.171.017.183 0 0 .251-.713.339-2.392.666-2.704.398-.38.942.084.774.683-.315 1.12-.312 3.087-.356 3.774-.048.763-.141.942-.286 1.79z"/></mask><g mask="url(#tJ4jsScoBc_d)"><path fill="#F1AA90" d="M18.987 31.145c-.417 1.084-.854 1.86-.89 1.933-.259.514-.882.054-2.384-.512-.78-.292-1.604-2.592-1.798-3.993-.448-3.239-.555-4.176-.745-5.315-.079-.478.48-.544.63-.452.11.072 1.002 3.154 1.002 3.154s-1.186-3.957-.937-4.504c.249-.55.657-.51.773-.184.096.27 1.176 4.062 1.176 4.062l-1.316-5.365-.006-.085a.37.37 0 0 1 .175-.357c.157-.088.395-.112.649.247.441.63 1.685 5.099 1.685 5.099l-.949-3.915a.5.5 0 0 1 .037-.342c.116-.23.37-.533.785-.014.564.701 1.416 4.25 1.512 4.649l.011.067.173.746c-.061.171.017.183 0 0 .251-.713.339-2.392.666-2.704.398-.38.942.084.774.683-.315 1.12-.312 3.087-.356 3.774-.048.763-.141.942-.286 1.79z"/><path fill="#000" d="M18.987 31.145c-.417 1.084-.854 1.86-.89 1.933-.259.514-.882.054-2.384-.512-.78-.292-1.604-2.592-1.798-3.993-.448-3.239-.555-4.176-.745-5.315-.079-.478.48-.544.63-.452.11.072 1.002 3.154 1.002 3.154s-1.186-3.957-.937-4.504c.249-.55.657-.51.773-.184.096.27 1.176 4.062 1.176 4.062l-1.316-5.365-.006-.085a.37.37 0 0 1 .175-.357c.157-.088.395-.112.649.247.441.63 1.685 5.099 1.685 5.099l-.949-3.915a.5.5 0 0 1 .037-.342c.116-.23.37-.533.785-.014.564.701 1.416 4.25 1.512 4.649l.011.067.173.746c-.061.171.017.183 0 0 .251-.713.339-2.392.666-2.704.398-.38.942.084.774.683-.315 1.12-.312 3.087-.356 3.774-.048.763-.141.942-.286 1.79z" opacity=".5" style="mix-blend-mode:overlay"/></g><mask id="tJ4jsScoBc_e" width="10" height="17" x="13" y="19" maskUnits="userSpaceOnUse" style="mask-type:alpha"><path fill="#000" d="M22.048 32.879c-.237.525-1.526 3.557-2.82 2.55-.613-.477-1.43-2.254-2.114-3.334-1.577-.257-2.25-2.972-2.399-3.799-.583-3.213-.981-4.078-1.22-5.206-.1-.473.5-.625.61-.482.188.247 1.135 3.098 1.135 3.098s-1.353-3.893-1.126-4.454.634-.542.765-.221c.107.264 1.346 4 1.346 4l-1.54-5.294-.011-.083c-.018-.145.041-.292.16-.364.152-.095.39-.133.657.217.468.606 1.9 5.008 1.9 5.008l-1.113-3.864a.5.5 0 0 1 .024-.343c.105-.238.345-.55.782-.055.593.673 1.596 4.176 1.707 4.571a.3.3 0 0 1 .013.064l.204.738c.026.18.166.247.22.073.221-.725.16-1.764.472-2.095.38-.402.905-.414.76.195-.266 1.134-.281 2.835-.296 3.522-.016.766-.113 1.112-.113 1.864 1.16 2.98 2.16 3.326 1.997 3.694"/></mask><g mask="url(#tJ4jsScoBc_e)"><path fill="#F1AA90" d="M22.048 32.879c-.237.525-1.526 3.557-2.82 2.55-.613-.477-1.43-2.254-2.114-3.334-1.577-.257-2.25-2.972-2.399-3.799-.583-3.213-.981-4.078-1.22-5.206-.1-.473.5-.625.61-.482.188.247 1.135 3.098 1.135 3.098s-1.353-3.893-1.126-4.454.634-.542.765-.221c.107.264 1.346 4 1.346 4l-1.54-5.294-.011-.083c-.018-.145.041-.292.16-.364.152-.095.39-.133.657.217.468.606 1.9 5.008 1.9 5.008l-1.113-3.864a.5.5 0 0 1 .024-.343c.105-.238.345-.55.782-.055.593.673 1.596 4.176 1.707 4.571a.3.3 0 0 1 .013.064l.204.738c.026.18.166.247.22.073.221-.725.16-1.764.472-2.095.38-.402.905-.414.76.195-.266 1.134-.281 2.835-.296 3.522-.016.766-.113 1.112-.113 1.864 1.16 2.98 2.16 3.326 1.997 3.694"/><path fill="#000" d="M16.638 19.788c-.579-.066.42 2.752.599 3.42.103.38.15 1.306.15 1.306l-1.26-3.88s.36-.862.511-.846M15.129 18.96c-.114.295-.31.293-.213.718.099.426.543 1.784.543 1.784s.616 2.152.68 2.601c.03.214.021.752.021.752l-1.506-4.637-.057-.788.234-.104zM14.479 20.752s-.275.473-.245.751c.03.279.49 1.77.49 1.77s.212.892.245 1.146c.032.254.021.544.021.544l-.65-1.828-.381-1.979.23-.425.292.02z" opacity=".25" style="mix-blend-mode:overlay"/><path fill="#000" d="M13.974 22.43s-.415.43-.247.913c.169.483 1.415 4.835 1.415 4.835s.74 3.38 1.981 3.964c1.008.844 1.909 2.45 1.909 2.45l-1.19.802-3.57-6.99-.67-4.224-.364-1.384z" opacity=".25" style="mix-blend-mode:overlay"/></g><path fill="#EA4F4A" d="M22.1 31.687c-2.535 1.607-3.728 3.683-3.728 3.683s.692 2.458 6.34 8.299c5.298 6.816 10.569 2.152 10.569 2.152"/><path fill="#AD2F2E" fill-rule="evenodd" d="M28.86 30.452c.12-.02.232.06.252.18l-.215.036-.216.036a.22.22 0 0 1 .18-.252m.037.216-.216.036.045.27a306 306 0 0 1 .474 2.934c.128.82.254 1.659.344 2.33.045.336.081.628.104.855q.034.352.025.43a.219.219 0 0 0 .436.041c.01-.103-.004-.29-.026-.515-.024-.234-.06-.532-.106-.87-.09-.675-.217-1.517-.345-2.338a290 290 0 0 0-.475-2.939l-.045-.27zM12.8 29.772a.22.22 0 0 0-.264.159l.423.107a.22.22 0 0 0-.158-.266m.16.266-.067.265a281 281 0 0 0-.706 2.887 119 119 0 0 0-.528 2.295c-.072.331-.13.62-.172.844a3 3 0 0 0-.06.426.219.219 0 0 1-.436.007c-.002-.103.026-.29.066-.511.042-.231.103-.525.175-.858.144-.667.337-1.496.53-2.304a295 295 0 0 1 .707-2.892l.067-.266z" clip-rule="evenodd"/><path fill="#EA4F4A" d="M13.602 31.477c1.727 3.742 3.954 3.393 3.954 3.393s-1.208 4.123-7.229 10.115c-2.48 1.56-5.158-.682-4.327-3.055 1.43-4.078 7.602-10.453 7.602-10.453"/><path fill="#AD2F2E" fill-rule="evenodd" d="M13.797 31.415a.218.218 0 0 0-.373-.07 323 323 0 0 0-4.374 5.257 214 214 0 0 0-1.487 1.85l-.078.098-.026.033.17.136-.17-.136a.219.219 0 1 0 .343.27l.026-.032.077-.098.305-.384c.27-.336.666-.83 1.179-1.461a321 321 0 0 1 4.136-4.977q.039.087.089.19c.154.314.39.734.72 1.156.659.841 1.708 1.71 3.227 1.71a.219.219 0 1 0 0-.437c-1.332 0-2.268-.758-2.882-1.542a6.2 6.2 0 0 1-.87-1.532l-.01-.024-.001-.006z" clip-rule="evenodd"/><path fill="#BB393A" d="M20.972 39.023s6.859 4.655 9.794 5.297c1.379.302 2.592-.085 3.457-.557.516-.282 1.832-1.468 2.042-2.017.41-1.073.845-4.35.81-6.67-.052-3.418-.188-5.813-.188-5.813s1.065 5.018.822 8.55c-.242 3.53-.234 5.568-1.241 6.975-.868 1.213-3.965 3.122-6.4 2.552-2.298-.538-4.34-1.534-9.096-8.317M3.368 41.698s3.363 2.876 5.026 1.683c2.986-.723 9.153-8.674 9.153-8.674l-1.324 2.932s-5.299 8.081-7.514 8.534-5.761.177-5.341-4.473z"/><path fill="#AD2F2E" fill-rule="evenodd" d="M21.49 32.266a8 8 0 0 1-.387.37c-.664.587-1.293 1.325-1.759 1.92a21 21 0 0 0-.69.938c.098.194.282.508.553.925.323.499.761 1.132 1.298 1.86a64 64 0 0 0 4.276 5.18.219.219 0 0 1-.322.296 64 64 0 0 1-4.306-5.216 40 40 0 0 1-1.313-1.882c-.325-.502-.547-.885-.638-1.099l-.045-.108.065-.098v-.001l.003-.005.011-.015a13 13 0 0 1 .198-.285c.135-.19.329-.455.566-.758.472-.605 1.12-1.367 1.814-1.979.133-.117.251-.236.365-.35l.053-.054c.126-.125.254-.25.381-.339.13-.09.288-.163.472-.14.183.024.336.139.47.3l.01.012.008.013c.065.106.277.38.572.745.291.36.652.794 1.003 1.214a240 240 0 0 0 1.255 1.486l.114.135.015.017.01.019q.039.072.27.34c.147.172.343.389.57.634.456.49 1.034 1.092 1.603 1.676a254 254 0 0 0 2.047 2.077l.189.19-.155.154-.154.155-.19-.19a293 293 0 0 1-2.05-2.081c-.57-.585-1.15-1.19-1.61-1.684-.229-.247-.429-.467-.582-.645a3.5 3.5 0 0 1-.307-.393l-.103-.12a262 262 0 0 1-1.257-1.49c-.352-.42-.714-.857-1.008-1.22a12 12 0 0 1-.595-.775c-.095-.111-.154-.132-.181-.135-.028-.004-.077.003-.166.065-.09.063-.192.16-.322.29zm8.576 8.172-.154.155a.219.219 0 0 0 .309-.31zM17.623 34.551a.22.22 0 0 1 .12.285 25.4 25.4 0 0 1-3.608 6.174 23 23 0 0 1-1.43 1.644 15 15 0 0 1-.54.535l-.031.028-.008.007-.003.002v.001l-.146-.163.145.163a.218.218 0 0 1-.29-.326l.001-.002.007-.006.028-.025.11-.104c.096-.092.237-.23.412-.413.352-.365.844-.907 1.402-1.612a25 25 0 0 0 3.547-6.067.22.22 0 0 1 .284-.12" clip-rule="evenodd"/></g><mask id="tJ4jsScoBc_f" width="9" height="10" x="19" y="14" maskUnits="userSpaceOnUse" style="mask-type:alpha"><path fill="#000" d="m19.968 15.95.809 6.463.588 1.412 6.039-2.036-1.386-7.217z"/></mask><g mask="url(#tJ4jsScoBc_f)"><path fill="#F1AA90" d="m19.968 15.95.809 6.463.588 1.412 6.039-2.036-1.386-7.217z"/><path fill="#000" d="M25.685 14.98c-.515 3.489-1.344 6.101-4.051 6.659-3.072.633-4.188-1.637-4.188-1.637l2.008-4.355 4.992-1.97 1.237 1.302z" opacity=".5" style="mix-blend-mode:overlay"/></g><path fill="#EFEFEF" d="M19.974 29.28c-.075-.407.585-3.883.924-5.57l.994-.255-.902 5.414c-.057.343-.282.678-.63.679-.188 0-.35-.065-.386-.268"/><path fill="#EFEFEF" d="m22.577 21.885-.807.266-.43 1.527.054.418 2.352-1.103z"/><path fill="#EFEFEF" d="m21.396 24.096-.259-1.961-.406-.105-.69 1.052z"/><path fill="#F8F8F8" d="M21.15 22.136s-.495.36-.728.598c-.368.375-.311.74-.431 1.275-.497-.201-.56-1.736-.51-2.184s1.08-1.079 1.08-1.079zM21.77 22.13s1.066.61 1.066 2.057c1.14.602 4.993-1.278 5.508-2.46.164-.38-.935-1.787-1.322-1.932-1.486 1.299-5.25 2.336-5.25 2.336z"/><path fill="#F1AA90" d="M14.288 7.356c-.272 10.589.247 12.083 4.75 12.773 2.268.348 5.244-.666 6.192-2.929.626-1.493 1.21-4.498 1.04-7.956s-1.28-4.245-2.542-4.982c-.776-.453-9.15-2.574-9.439 3.092z"/><path fill="#F1AA90" d="M27.76 10.41c.99 1.264.095 3.5-.236 4.01-.238.366-1.219 1.39-1.937-.268"/><path fill="#411917" fill-rule="evenodd" d="M27.675 10.302a.14.14 0 0 1 .193.023c.532.679.549 1.604.405 2.397-.145.796-.457 1.5-.634 1.773-.066.101-.18.243-.326.373-.145.13-.332.255-.543.31a.83.83 0 0 1-.687-.12c-.227-.15-.437-.424-.622-.851a.137.137 0 1 1 .253-.11c.174.402.356.622.522.733a.55.55 0 0 0 .465.082c.153-.04.302-.136.43-.25a1.7 1.7 0 0 0 .277-.317l.116.075-.116-.075c.155-.238.455-.907.594-1.672.14-.768.108-1.593-.35-2.178a.14.14 0 0 1 .023-.193" clip-rule="evenodd"/><path fill="#411917" d="M14.62 7.986c1.42-1.558 4.808-1.578 8.154-1.076 2.822.422 3.414 3.423 3.414 3.423s.287-.268.74-.372c.452-.105 2.098-5.04-1.857-5.787-2.322-4.577-8.295-2.195-9.636-1.413s-3.075 3.85-1.15 5.565z"/><path fill="#411917" d="M24.66 7.53s.672 1.129.398 3.331c-.221 1.769.509 1.887.509 1.887s.166-1.813.623-2.413-.542-1.932-.542-1.932l-.987-.87z"/><path fill="#2C54DC" d="M25.875 13.628c-.715-.893-1.028-2.867.19-4.258 1.273-.722 1.482-.091 1.482-.091s.576 1.347.364 2.825c-.169 1.167.367 1.978-.982 2.11-.325.03-.772-.234-1.054-.587"/><path fill="#A6B7FF" d="M24.79 3.678s.945 1.931 1.139 2.831c.344 1.608.633 3.345.633 3.345l.841-.498s-.176-1.202-.623-2.99c-.133-.532-.354-1.364-.913-1.959-.56-.594-1.076-.73-1.076-.73"/><path fill="#A4A1E0" d="M26.599 13.47c-.422-.72-.614-2.478-.037-3.616.733-1.446 1.59-.164 1.59-.164s.624.93.411 2.41c-.168 1.166-.507 2.022-1.13 1.975-.325-.023-.606-.216-.834-.605"/><path fill="#2C54DC" d="M27.112 12.587c-.207-.353-.3-1.212-.018-1.77.36-.706 1.053-.301 1.053-.301s.031.677-.073 1.399c-.082.57.335 1.03-.327 1.064-.413.022-.523-.205-.635-.394z"/><path fill="#A4A1E0" d="M27.625 12.583c-.207-.352-.3-1.211-.018-1.768.36-.707.778-.08.778-.08s.304.455.202 1.179c-.082.57-.248.989-.554.967-.159-.011-.296-.106-.408-.296z"/><path fill="#4C39B0" d="M27.034 12.88s-1.618 2.277-2.954 2.722z"/><path fill="#2449CF" fill-rule="evenodd" d="M27.202 12.645a.29.29 0 0 1 .068.404l-.236-.168.236.168-.001.003-.004.005-.015.02-.055.076q-.073.099-.206.27c-.176.224-.425.528-.717.848a9.5 9.5 0 0 1-.984.943c-.35.286-.734.536-1.116.664a.29.29 0 1 1-.183-.551c.285-.095.605-.296.933-.563.325-.264.642-.58.922-.885a14 14 0 0 0 .936-1.143l.013-.018.004-.004v-.001a.29.29 0 0 1 .405-.068" clip-rule="evenodd"/><path fill="#A6B7FF" d="M28.02 11.097c.212-.02.43.195.247.875-.182.679-1.378 1.85-1.6 1.38-.093-.198-.132-.258-.004-.498s.93-1.72 1.356-1.757M23.074 16.616c-.356-.03-.68-.368-.428-.811.32-.566 1.022-.548 1.022-.548s.511.011.538.416c.022.32-.106.623-.518.813a1.25 1.25 0 0 1-.614.13"/><mask id="tJ4jsScoBc_g" width="4" height="2" x="18" y="16" maskUnits="userSpaceOnUse" style="mask-type:alpha"><path fill="#411917" d="M21.6 17.604c.071-.592-1.134-1.556-2.108-1.322-.387.093-.753.246-.805.681-.064.523.3.699.75.716.496.02.822-.025 1.172.093.385.13.578.192.787.142.115-.027.192-.186.208-.31z"/></mask><g mask="url(#tJ4jsScoBc_g)"><path fill="#2E2E2E" d="M21.6 17.604c.071-.592-1.134-1.556-2.108-1.322-.387.093-.753.246-.805.681-.064.523.3.699.75.716.496.02.822-.025 1.172.093.385.13.578.192.787.142.115-.027.192-.186.208-.31z"/><path fill="#EA4F4A" d="M21.276 19.164c1.013 0 1.835-.431 1.835-.964s-.822-.964-1.835-.964-1.835.432-1.835.964c0 .533.822.964 1.835.964"/></g><path fill="#000" d="M19.896 14.536c0 .177-.405.32-.905.32s-.905-.143-.905-.32.405-.32.905-.32.905.143.905.32" opacity=".25" style="mix-blend-mode:overlay"/><path fill="#411917" fill-rule="evenodd" d="M18.967 11.943a.15.15 0 0 1 .085.193l-.857 2.211c.072.133.361.404 1.188.181a.15.15 0 0 1 .078.288c-1 .27-1.476-.098-1.57-.427l-.013-.048.896-2.313a.15.15 0 0 1 .193-.085" clip-rule="evenodd"/><path fill="#411917" d="M17.071 11.948c.248.004.454-.26.46-.591s-.19-.603-.437-.607c-.248-.005-.454.26-.46.59-.006.331.19.603.437.608"/><path fill="#411917" fill-rule="evenodd" d="m17.928 11.186-.129.091za.158.158 0 0 1-.258.181l-.004-.005-.019-.022a1.139 1.139 0 0 0-.442-.293c-.32-.117-.84-.153-1.601.26a.158.158 0 1 1-.15-.277c.826-.449 1.441-.432 1.859-.28a1.45 1.45 0 0 1 .572.382l.03.036.008.011.003.004z" clip-rule="evenodd"/><path fill="#411917" d="M15.392 9.63c.412-.12 2.757-.682 2.63.113a.298.298 0 0 1-.397.215c-.672-.233-1.458-.117-2.15-.02-.2.045-.277-.247-.083-.309M21.987 11.912c-.247 0-.45-.266-.451-.597s.198-.6.445-.602c.248 0 .45.266.452.597s-.198.6-.446.602"/><path fill="#411917" fill-rule="evenodd" d="m20.614 11.037.119.103za.158.158 0 0 0 .237.208l.004-.003.019-.02a1 1 0 0 1 .087-.069c.08-.056.202-.125.37-.172.334-.093.866-.104 1.62.288a.158.158 0 1 0 .146-.28c-.816-.423-1.43-.429-1.85-.312a1.5 1.5 0 0 0-.468.219 1 1 0 0 0-.151.127l-.01.01-.002.003z" clip-rule="evenodd"/><path fill="#411917" d="M22.832 9.783c-.696-.092-1.484-.205-2.158.034-.367.13-.568-.414-.204-.555.83-.193 1.638.021 2.443.212.196.06.119.353-.081.31"/></g><defs><clipPath id="tJ4jsScoBc_a"><path fill="#fff" d="M0 0h40v40H0z"/></clipPath><clipPath id="tJ4jsScoBc_b"><rect width="33.333" height="33.333" x="3.333" y="3.334" fill="#fff" rx="16.667"/></clipPath></defs></svg>