<svg xmlns="http://www.w3.org/2000/svg" width="240" height="240" fill="none" class="persona-ilustration" viewBox="0 0 240 240"><g clip-path="url(#hv_a)"><g clip-path="url(#hw_b)"><rect width="200" height="199.999" x="20.414" y="19.872" fill="#D3EDFF" rx="100"/><path fill="#AADBFF" d="M108.71 3.338H16.102V230.08h92.608z"/><path fill="#82C2F1" d="m29.056 46.132 71.165 7.232v28.194l-69.89-4.827z"/><path fill="#AADBFF" d="m11.596 54.485 71.013 5.089-.321 6.691-69.764-4.455z"/><path fill="#4793CC" d="M91.326 68.335c1.86 0 3.367-1.89 3.367-4.22s-1.507-4.219-3.367-4.219-3.367 1.89-3.367 4.22 1.507 4.219 3.367 4.219"/><path fill="#82C2F1" d="m43.638 6.284 57.882 10.042V44.53l-57.882-4.836z"/><path fill="#AADBFF" d="m13.056 22.757 71.012 5.088-.32 6.692-69.764-4.455z"/><path fill="#4793CC" d="M92.786 36.612c1.86 0 3.367-1.89 3.367-4.22s-1.507-4.22-3.367-4.22-3.367 1.89-3.367 4.22 1.508 4.22 3.367 4.22"/><path fill="#82C2F1" d="m31.14 226.444 196.262-39.476-27.257-22.329-235.199 29.755z"/><path fill="#AADBFF" d="M54.938 205.085 251.2 165.608l-21.266-29.198-263.629 18.059z"/><path fill="#F8F8F8" d="m53.9 178.206 16.413 13.46a4.64 4.64 0 0 0 3.738.979l54.422-9.688c1.207-.211 1.621-1.73.692-2.523l-11.873-10.211a3.5 3.5 0 0 0-2.667-.827l-60.034 6.473c-1.173.126-1.611 1.595-.7 2.346z"/><path fill="#535353" d="M250.575 130.199s-99.038-6.464-110.296 3.105c-11.257 9.57-19.046 86.574-19.046 86.574l127.215 6.27z"/><mask id="hx_c" width="96" height="91" x="129" y="131" maskUnits="userSpaceOnUse" style="mask-type:alpha"><path fill="#FFC509" d="M132.71 163.177c6.49-21.351 8.81-27.806 26.101-30.127s53.111-3.038 57.819 2.203c11.089 12.354 10.093 29.434 3.207 58.565s-34.545 27.941-34.545 27.941h-50.434s-11.076-29.207-2.148-58.582"/></mask><g mask="url(#hx_c)"><path fill="#EA4F4A" d="M132.71 163.177c6.49-21.351 8.81-27.806 26.101-30.127s53.111-3.038 57.819 2.203c11.089 12.354 10.093 29.434 3.207 58.565s-34.545 27.941-34.545 27.941h-50.434s-11.076-29.207-2.148-58.582"/><path fill="#BB393A" d="m179.782 181.8-49.232 1.511v48.464h66.008z"/></g><path fill="#82C2F1" d="M61.52 165.886s10-16.515 39.393-3.992c3.991 1.697 4.633 1.857 7.021 2.321 5.409 1.038 6.65-1.08 2.202-3.266-5.485-2.683-11.417-5.291-11.417-5.291s-19.03-8.135-30.17-2.886c-9.037 4.262-12.767 13.409-13.847 16.709-.22.675.287 1.367.995 1.342 1.62-.059 2.684-.777 5.832-4.937z"/><path fill="#82C2F1" d="M78.82 140.688h-8v13.047h8z"/></g><mask id="hy_d" width="29" height="36" x="168" y="104" maskUnits="userSpaceOnUse" style="mask-type:alpha"><path fill="#000" d="m168.053 109.523 3.124 24.953 2.27 5.456 23.318-7.862-5.351-27.868z"/></mask><g mask="url(#hy_d)"><path fill="#F1AA90" d="m168.053 109.523 3.124 24.953 2.27 5.456 23.318-7.862-5.351-27.868z"/><path fill="#000" d="M190.129 105.772c-1.988 13.474-5.187 23.563-15.642 25.716-11.86 2.443-16.172-6.323-16.172-6.323l7.757-16.815 19.274-7.607 4.775 5.029z" opacity=".5" style="mix-blend-mode:overlay"/></g><path fill="#EFEFEF" d="M168.075 160.99c-.286-1.57 2.261-14.994 3.57-21.51l3.838-.981-3.484 20.904c-.221 1.325-1.09 2.617-2.434 2.623-.722.003-1.347-.25-1.49-1.036"/><path fill="#EFEFEF" d="m178.129 132.436-3.114 1.029-1.661 5.895.209 1.616 9.081-4.262z"/><path fill="#EFEFEF" d="m173.568 140.977-.998-7.57-1.568-.405-2.662 4.063z"/><path fill="#F8F8F8" d="M172.615 133.406s-1.909 1.394-2.807 2.309c-1.421 1.449-1.203 2.855-1.667 4.923-1.916-.777-2.159-6.701-1.964-8.431s4.165-4.167 4.165-4.167zM175.009 133.388s4.118 2.352 4.118 7.939c4.401 2.324 19.281-4.934 21.269-9.501.635-1.464-3.609-6.897-5.104-7.458-5.74 5.015-20.275 9.02-20.275 9.02z"/><path fill="#F1AA90" d="M146.119 76.337c-1.047 40.886.956 46.656 18.34 49.32 8.762 1.342 20.251-2.573 23.914-11.31 2.417-5.766 4.674-17.367 4.016-30.722-.657-13.354-4.943-16.39-9.815-19.238-2.997-1.749-35.334-9.94-36.447 11.942z"/><path fill="#F1AA90" d="M198.14 88.122c3.826 4.88.366 13.511-.912 15.484-.919 1.413-4.704 5.363-7.477-1.034"/><path fill="#411917" fill-rule="evenodd" d="M197.812 87.704a.53.53 0 0 1 .746.09c2.055 2.621 2.118 6.192 1.563 9.255-.558 3.075-1.765 5.794-2.447 6.846l-.001.001c-.254.39-.693.939-1.258 1.441-.562.5-1.282.984-2.097 1.195-.836.217-1.757.14-2.653-.459-.877-.586-1.687-1.641-2.401-3.29a.532.532 0 1 1 .975-.422c.671 1.549 1.374 2.399 2.016 2.828.621.415 1.225.462 1.796.314.592-.153 1.165-.522 1.658-.96.489-.435.868-.91 1.073-1.226.596-.921 1.757-3.504 2.293-6.458.538-2.965.417-6.15-1.354-8.41a.53.53 0 0 1 .091-.745" clip-rule="evenodd"/><path fill="#411917" d="M147.404 78.763c5.485-6.016 18.564-6.093 31.485-4.157 10.896 1.629 13.183 13.217 13.183 13.217s1.106-1.032 2.854-1.435c1.749-.404 8.101-19.46-7.166-22.345-8.968-17.675-32.031-8.475-37.21-5.456-5.179 3.02-11.875 14.868-4.44 21.489z"/><path fill="#411917" d="M186.175 77.002s2.593 4.357 1.532 12.861c-.852 6.831 1.965 7.287 1.965 7.287s.643-7.003 2.407-9.32c1.763-2.316-2.093-7.458-2.093-7.458l-3.811-3.363z"/><path fill="#2C54DC" d="M190.861 100.548c-2.758-3.445-3.969-11.068.732-16.441 4.917-2.787 5.725-.351 5.725-.351s2.227 5.201 1.404 10.91c-.65 4.507 1.42 7.638-3.788 8.147-1.256.119-2.982-.905-4.073-2.265"/><path fill="#A6B7FF" d="M186.676 62.128s3.647 7.459 4.394 10.934c1.33 6.21 2.444 12.914 2.444 12.914l3.251-1.921s-.681-4.641-2.407-11.546c-.516-2.055-1.367-5.269-3.527-7.563s-4.155-2.818-4.155-2.818"/><path fill="#A4A1E0" d="M193.656 99.938c-1.629-2.78-2.369-9.566-.142-13.96 2.832-5.583 6.143-.636 6.143-.636s2.406 3.595 1.584 9.305c-.65 4.506-1.958 7.809-4.364 7.63-1.255-.09-2.339-.837-3.221-2.34"/><path fill="#2C54DC" d="M195.637 96.528c-.8-1.36-1.158-4.678-.067-6.83 1.39-2.728 4.065-1.166 4.065-1.166s.12 2.616-.284 5.403c-.314 2.205 1.293 3.976-1.263 4.11-1.592.083-2.017-.792-2.451-1.524z"/><path fill="#A4A1E0" d="M197.618 96.514c-.8-1.36-1.159-4.678-.068-6.83 1.39-2.728 3.005-.307 3.005-.307s1.173 1.756.777 4.551c-.314 2.205-.957 3.82-2.138 3.737-.612-.045-1.143-.411-1.576-1.144z"/><path fill="#2449CF" fill-rule="evenodd" d="M194.424 97.016a1.12 1.12 0 1 1 1.827 1.299l-.858-.61.858.61-.006.008-.015.022-.057.078-.214.292a57.165 57.165 0 0 1-3.563 4.316c-1.126 1.23-2.431 2.533-3.799 3.645-1.356 1.102-2.835 2.069-4.31 2.56a1.12 1.12 0 1 1-.709-2.127c1.104-.368 2.339-1.144 3.605-2.173 1.254-1.019 2.478-2.236 3.559-3.418a55 55 0 0 0 3.417-4.14q.132-.178.199-.272l.051-.07.011-.016z" clip-rule="evenodd"/><path fill="#A6B7FF" d="M199.142 90.774c.822-.075 1.659.755.956 3.378-.702 2.623-5.32 7.144-6.18 5.328-.359-.762-.508-.993-.015-1.92s3.595-6.644 5.239-6.786M180.046 112.088c-1.375-.112-2.623-1.42-1.651-3.132 1.233-2.182 3.946-2.114 3.946-2.114s1.973.044 2.077 1.606c.083 1.233-.411 2.407-2.003 3.139-.837.381-1.629.561-2.369.501"/><mask id="hz_e" width="12" height="8" x="163" y="110" maskUnits="userSpaceOnUse" style="mask-type:alpha"><path fill="#411917" d="M174.355 115.902c.276-2.287-4.379-6.009-8.138-5.104-1.495.358-2.908.949-3.109 2.63-.247 2.018 1.158 2.698 2.899 2.765 1.913.075 3.169-.097 4.522.359 1.487.501 2.234.74 3.041.545.441-.104.74-.717.8-1.195z"/></mask><g mask="url(#hz_e)"><path fill="#2E2E2E" d="M174.355 115.902c.276-2.287-4.379-6.009-8.138-5.104-1.495.358-2.908.949-3.109 2.63-.247 2.018 1.158 2.698 2.899 2.765 1.913.075 3.169-.097 4.522.359 1.487.501 2.234.74 3.041.545.441-.104.74-.717.8-1.195z"/><path fill="#EA4F4A" d="M173.106 121.927c3.912 0 7.084-1.666 7.084-3.721s-3.172-3.722-7.084-3.722c-3.913 0-7.085 1.666-7.085 3.722s3.172 3.721 7.085 3.721"/></g><ellipse cx="164.28" cy="104.059" fill="#000" opacity=".25" rx="3.494" ry="1.237" style="mix-blend-mode:overlay"/><path fill="#411917" fill-rule="evenodd" d="M164.19 94.045a.575.575 0 0 1 .329.745l-3.311 8.538c.28.514 1.395 1.56 4.589.699a.576.576 0 0 1 .299 1.112c-3.864 1.041-5.698-.379-6.06-1.649l-.053-.185 3.463-8.931a.575.575 0 0 1 .744-.329" clip-rule="evenodd"/><path fill="#411917" d="M156.87 94.056c.957.018 1.751-1.003 1.774-2.28.024-1.278-.732-2.328-1.688-2.346-.956-.017-1.751 1.004-1.774 2.281s.732 2.328 1.688 2.345"/><path fill="#411917" fill-rule="evenodd" d="m160.178 91.12-.497.35za.609.609 0 0 1-.993.704l-.001-.002-.014-.018-.072-.086a3.4 3.4 0 0 0-.325-.321 4.4 4.4 0 0 0-1.384-.81c-1.235-.45-3.245-.59-6.183 1.004a.61.61 0 0 1-.581-1.07c3.194-1.734 5.568-1.666 7.182-1.078.795.29 1.379.698 1.767 1.036a4.7 4.7 0 0 1 .556.576l.032.043.011.014.003.005.002.002" clip-rule="evenodd"/><path fill="#411917" d="M150.384 85.107c1.594-.461 10.646-2.63 10.16.438-.137.686-.89 1.085-1.535.83-2.594-.897-5.629-.45-8.304-.077-.773.173-1.07-.952-.321-1.191M175.852 93.918c-.957.005-1.737-1.027-1.744-2.304-.006-1.278.764-2.318 1.72-2.323s1.737 1.027 1.743 2.305-.763 2.317-1.719 2.322"/><path fill="#411917" fill-rule="evenodd" d="m170.549 90.544.459.4za.609.609 0 0 0 .915.802h.001m0 0q.002-.004.014-.015.02-.023.073-.072c.07-.064.182-.16.336-.268a4.7 4.7 0 0 1 1.432-.666c1.285-.358 3.34-.402 6.257 1.114a.608.608 0 1 0 .561-1.08c-3.152-1.638-5.522-1.66-7.145-1.207a5.9 5.9 0 0 0-1.807.844 4.4 4.4 0 0 0-.584.49l-.035.038-.012.012-.004.005-.001.002h-.001" clip-rule="evenodd"/><path fill="#411917" d="M179.114 85.703c-2.686-.359-5.731-.795-8.331.131-1.42.5-2.195-1.602-.789-2.146 3.207-.745 6.325.084 9.434.821.755.23.457 1.36-.314 1.194"/><path fill="#EA4F4A" d="M165.443 132.273s-18.611.172-23.272 4.087c-7.271 4.101-11.251 9.701-15.712 17.551-11.621 20.448-21.503 39.562-22.566 50.828-.616 6.574 2.886 12.979 8.954 15.586 4.033 1.73 8.894 1.604 13.612-4.042M198.945 134.558s25.471-11.034 33.843 23.759c5.502 22.869 3.932 44.793 1.831 55.907-1.224 6.489-6.363 11.679-12.911 12.498-4.355.548-8.988-.92-11.958-7.654"/><path fill="#F1AA90" d="M146.438 160.562c-.034 3.49-.826 8.124-4.092 11.42-3.266 3.297 13.062 10.434 13.062 10.434l9.393-19.953s-14.439-4.545-18.355-1.901z"/><path fill="#000" d="M146.438 160.562c-.034 3.49-.826 8.124-4.092 11.42-3.266 3.297 13.062 10.434 13.062 10.434l9.393-19.953s-14.439-4.545-18.355-1.901z" opacity=".5" style="mix-blend-mode:overlay"/><mask id="i0_f" width="28" height="54" x="141" y="123" maskUnits="userSpaceOnUse" style="mask-type:alpha"><path fill="#E58061" d="M164.268 168.197c-1.611 4.187-3.296 7.181-3.44 7.465-.996 1.984-3.403.208-9.2-1.977-3.013-1.129-6.194-10.009-6.946-15.418-1.729-12.507-2.143-16.125-2.877-20.523-.304-1.846 1.856-2.103 2.43-1.745.431.275 3.874 12.176 3.874 12.176s-4.583-15.28-3.621-17.392c.962-2.121 2.54-1.965 2.988-.707.371 1.038 4.54 15.684 4.54 15.684l-5.08-20.716s-.009-.147-.026-.331c-.042-.56.211-1.12.675-1.377.608-.34 1.528-.432 2.507.955 1.704 2.433 6.506 19.688 6.506 19.688l-3.662-15.115a1.94 1.94 0 0 1 .143-1.323c.447-.89 1.426-2.057 3.03-.055 2.177 2.709 5.468 16.41 5.839 17.953.017.082.034.165.042.257l.667 2.883c-.236.661.068.707 0 0 .971-2.755 1.308-9.238 2.574-10.441 1.536-1.469 3.637.322 2.987 2.636-1.215 4.325-1.206 11.919-1.375 14.573-.186 2.948-.545 3.638-1.105 6.912z"/></mask><g mask="url(#i0_f)"><path fill="#F1AA90" d="M164.268 168.197c-1.611 4.187-3.296 7.181-3.44 7.465-.996 1.984-3.403.208-9.2-1.977-3.013-1.129-6.194-10.009-6.946-15.418-1.729-12.507-2.143-16.125-2.877-20.523-.304-1.846 1.856-2.103 2.43-1.745.431.275 3.874 12.176 3.874 12.176s-4.583-15.28-3.621-17.392c.962-2.121 2.54-1.965 2.988-.707.371 1.038 4.54 15.684 4.54 15.684l-5.08-20.716s-.009-.147-.026-.331c-.042-.56.211-1.12.675-1.377.608-.34 1.528-.432 2.507.955 1.704 2.433 6.506 19.688 6.506 19.688l-3.662-15.115a1.94 1.94 0 0 1 .143-1.323c.447-.89 1.426-2.057 3.03-.055 2.177 2.709 5.468 16.41 5.839 17.953.017.082.034.165.042.257l.667 2.883c-.236.661.068.707 0 0 .971-2.755 1.308-9.238 2.574-10.441 1.536-1.469 3.637.322 2.987 2.636-1.215 4.325-1.206 11.919-1.375 14.573-.186 2.948-.545 3.638-1.105 6.912z"/><path fill="#000" d="M164.268 168.197c-1.611 4.187-3.296 7.181-3.44 7.465-.996 1.984-3.403.208-9.2-1.977-3.013-1.129-6.194-10.009-6.946-15.418-1.729-12.507-2.143-16.125-2.877-20.523-.304-1.846 1.856-2.103 2.43-1.745.431.275 3.874 12.176 3.874 12.176s-4.583-15.28-3.621-17.392c.962-2.121 2.54-1.965 2.988-.707.371 1.038 4.54 15.684 4.54 15.684l-5.08-20.716s-.009-.147-.026-.331c-.042-.56.211-1.12.675-1.377.608-.34 1.528-.432 2.507.955 1.704 2.433 6.506 19.688 6.506 19.688l-3.662-15.115a1.94 1.94 0 0 1 .143-1.323c.447-.89 1.426-2.057 3.03-.055 2.177 2.709 5.468 16.41 5.839 17.953.017.082.034.165.042.257l.667 2.883c-.236.661.068.707 0 0 .971-2.755 1.308-9.238 2.574-10.441 1.536-1.469 3.637.322 2.987 2.636-1.215 4.325-1.206 11.919-1.375 14.573-.186 2.948-.545 3.638-1.105 6.912z" opacity=".5" style="mix-blend-mode:overlay"/></g><mask id="i1_g" width="34" height="64" x="143" y="122" maskUnits="userSpaceOnUse" style="mask-type:alpha"><path fill="#000" d="M176.085 174.891c-.912 2.029-5.89 13.734-10.886 9.849-2.368-1.844-5.522-8.706-8.165-12.875-6.09-.994-8.684-11.478-9.261-14.669-2.254-12.406-3.789-15.749-4.709-20.101-.388-1.828 1.924-2.415 2.354-1.865.726.955 4.38 11.966 4.38 11.966s-5.224-15.033-4.346-17.2 2.447-2.093 2.954-.854c.413 1.02 5.198 15.446 5.198 15.446l-5.95-20.441s-.016-.147-.042-.322c-.067-.56.161-1.129.616-1.405.591-.367 1.511-.514 2.54.836 1.806 2.342 7.334 19.339 7.334 19.339l-4.296-14.922a1.93 1.93 0 0 1 .093-1.322c.405-.919 1.334-2.122 3.021-.211 2.287 2.598 6.161 16.125 6.591 17.649q.037.124.051.248l.784 2.846c.102.698.642.955.853.285.852-2.801.616-6.814 1.823-8.09 1.468-1.552 3.493-1.598 2.936.753-1.029 4.38-1.088 10.946-1.147 13.6-.059 2.957-.435 4.293-.435 7.195 4.477 11.51 8.341 12.844 7.709 14.265"/></mask><g mask="url(#i1_g)"><path fill="#F1AA90" d="M176.085 174.891c-.912 2.029-5.89 13.734-10.886 9.849-2.368-1.844-5.522-8.706-8.165-12.875-6.09-.994-8.684-11.478-9.261-14.669-2.254-12.406-3.789-15.749-4.709-20.101-.388-1.828 1.924-2.415 2.354-1.865.726.955 4.38 11.966 4.38 11.966s-5.224-15.033-4.346-17.2 2.447-2.093 2.954-.854c.413 1.02 5.198 15.446 5.198 15.446l-5.95-20.441s-.016-.147-.042-.322c-.067-.56.161-1.129.616-1.405.591-.367 1.511-.514 2.54.836 1.806 2.342 7.334 19.339 7.334 19.339l-4.296-14.922a1.93 1.93 0 0 1 .093-1.322c.405-.919 1.334-2.122 3.021-.211 2.287 2.598 6.161 16.125 6.591 17.649q.037.124.051.248l.784 2.846c.102.698.642.955.853.285.852-2.801.616-6.814 1.823-8.09 1.468-1.552 3.493-1.598 2.936.753-1.029 4.38-1.088 10.946-1.147 13.6-.059 2.957-.435 4.293-.435 7.195 4.477 11.51 8.341 12.844 7.709 14.265"/><path fill="#000" d="M155.199 124.341c-2.236-.257 1.62 10.624 2.312 13.205.397 1.469.582 5.041.582 5.041l-4.869-14.977s1.393-3.333 1.975-3.269M149.368 121.146c-.439 1.138-1.199 1.129-.819 2.773.38 1.643 2.093 6.887 2.093 6.887s2.38 8.31 2.624 10.046c.118.826.085 2.902.085 2.902l-5.815-17.907-.219-3.039.903-.404zM146.861 128.069s-1.063 1.828-.945 2.902 1.891 6.832 1.891 6.832.818 3.444.945 4.426c.126.983.084 2.103.084 2.103l-2.515-7.061-1.468-7.64.886-1.644 1.131.082z" opacity=".25" style="mix-blend-mode:overlay"/><path fill="#000" d="M144.912 134.543s-1.603 1.662-.954 3.526c.65 1.864 5.462 18.672 5.462 18.672s2.859 13.049 7.651 15.305c3.89 3.26 7.369 9.46 7.369 9.46l-4.596 3.096-13.784-26.992-2.583-16.308-1.409-5.345z" opacity=".25" style="mix-blend-mode:overlay"/></g><path fill="#EA4F4A" d="M176.292 170.287c-9.792 6.207-14.397 14.225-14.397 14.225s2.672 9.488 24.482 32.043c20.456 26.321 40.807 8.311 40.807 8.311"/><path fill="#AD2F2E" fill-rule="evenodd" d="M202.392 165.52a.84.84 0 0 1 .972.692l-.832.14-.832.14a.843.843 0 0 1 .692-.972m.14.832-.832.14.045.271.129.771a1111.352 1111.352 0 0 1 1.83 11.33c.493 3.168.979 6.405 1.328 8.996.174 1.297.312 2.426.401 3.301.091.91.118 1.46.099 1.659a.844.844 0 0 0 1.68.161c.038-.396-.013-1.123-.1-1.989a108 108 0 0 0-.408-3.356c-.35-2.61-.838-5.861-1.333-9.032a1089 1089 0 0 0-1.832-11.348l-.129-.772-.046-.271zM140.381 162.89a.844.844 0 0 0-1.024.613l.818.206.818.206a.844.844 0 0 0-.612-1.025m-.206.819.818.206-.067.266-.189.758c-.163.654-.397 1.591-.676 2.723-.56 2.265-1.305 5.308-2.05 8.426a459 459 0 0 0-2.039 8.862 107 107 0 0 0-.663 3.258c-.164.901-.234 1.447-.231 1.646a.843.843 0 1 1-1.687.027c-.006-.398.102-1.118.258-1.975.162-.892.395-2.027.673-3.313a454 454 0 0 1 2.048-8.897 1099 1099 0 0 1 2.052-8.438c.28-1.134.514-2.072.677-2.728l.19-.759.067-.267s.001-.001.819.205" clip-rule="evenodd"/><path fill="#EA4F4A" d="M143.473 169.473c6.668 14.451 15.267 13.102 15.267 13.102s-4.664 15.92-27.913 39.059c-9.578 6.026-19.915-2.633-16.708-11.797 5.518-15.747 29.354-40.364 29.354-40.364"/><path fill="#AD2F2E" fill-rule="evenodd" d="M144.229 169.238a.845.845 0 0 0-1.441-.272 1248 1248 0 0 0-16.89 20.301 830 830 0 0 0-4.561 5.654c-.52.652-.916 1.151-1.183 1.487l-.301.381-.102.129.663.522-.663-.522a.845.845 0 0 0 1.327 1.044l-.664-.522.664.522.1-.127.3-.379c.265-.335.66-.832 1.178-1.482a856 856 0 0 1 4.551-5.642c3.794-4.665 9.23-11.263 15.97-19.216q.15.334.343.73a25.7 25.7 0 0 0 2.783 4.466c2.542 3.248 6.594 6.602 12.461 6.602a.843.843 0 1 0 0-1.687c-5.146 0-8.76-2.925-11.132-5.956a24 24 0 0 1-3.212-5.537 11 11 0 0 1-.182-.47l-.008-.022z" clip-rule="evenodd"/><path fill="#BB393A" d="M171.931 198.61s26.486 17.976 37.819 20.457c5.325 1.164 10.009-.329 13.351-2.152 1.991-1.089 7.071-5.671 7.881-7.789 1.587-4.144 3.266-16.793 3.131-25.755-.202-13.199-.725-22.448-.725-22.448s4.109 19.376 3.173 33.013c-.937 13.637-.903 21.502-4.794 26.937-3.35 4.683-15.308 12.056-24.708 9.854-8.878-2.076-16.761-5.922-35.128-32.117M103.955 208.945s12.987 11.107 19.41 6.501c11.531-2.79 35.341-33.494 35.341-33.494l-5.111 11.324s-20.461 31.202-29.015 32.952-22.246.682-20.625-17.274z"/><path fill="#AD2F2E" fill-rule="evenodd" d="M173.932 172.522c-.437.439-.936.94-1.495 1.432-2.564 2.263-4.993 5.113-6.791 7.414a80 80 0 0 0-2.664 3.617c.376.751 1.09 1.965 2.135 3.575 1.249 1.925 2.939 4.371 5.012 7.183 4.146 5.626 9.811 12.706 16.509 20.002a.843.843 0 1 1-1.243 1.141c-6.743-7.345-12.446-14.472-16.624-20.141-2.089-2.835-3.8-5.309-5.07-7.266-1.258-1.939-2.115-3.418-2.464-4.244l-.176-.417.251-.378.703.467-.703-.467.004-.006.011-.016.041-.062.16-.234c.139-.203.343-.497.603-.864a83 83 0 0 1 2.185-2.929c1.825-2.336 4.327-5.278 7.004-7.64.515-.454.973-.913 1.412-1.354l.204-.205c.485-.484.979-.968 1.473-1.31.497-.345 1.111-.631 1.82-.539.707.091 1.298.533 1.816 1.157l.038.046.031.051c.251.409 1.068 1.463 2.21 2.875a397 397 0 0 0 3.872 4.69 876 876 0 0 0 3.663 4.347c.491.58.898 1.058 1.181 1.391l.444.521-.641.548.641-.548.054.063.041.073c.105.187.444.628 1.039 1.317a95 95 0 0 0 2.207 2.445 401 401 0 0 0 6.187 6.473 985 985 0 0 0 7.902 8.019l.54.542.19.19-.596.597-.597.597-.191-.192-.541-.543a991.791 991.791 0 0 1-7.916-8.033 398 398 0 0 1-6.214-6.501 95 95 0 0 1-2.249-2.492c-.53-.614-.965-1.151-1.187-1.516l-.398-.466-1.183-1.394a886 886 0 0 1-3.67-4.355 387 387 0 0 1-3.89-4.712c-1.074-1.328-1.952-2.449-2.301-2.996-.365-.429-.594-.507-.7-.521-.107-.014-.294.012-.64.253-.35.242-.741.616-1.241 1.117zm33.116 31.556-.597.597a.846.846 0 0 0 1.194 0 .846.846 0 0 0 0-1.194zM159.002 181.351a.844.844 0 0 1 .466 1.099c-4.134 10.211-9.552 18.302-13.936 23.841a88 88 0 0 1-5.519 6.349 60 60 0 0 1-1.642 1.643 39 39 0 0 1-.566.53l-.031.028-.009.008-.003.003-.562-.63.562.63a.845.845 0 0 1-1.124-1.259l.007-.007.026-.023.108-.099a55.994 55.994 0 0 0 2.018-1.995 86 86 0 0 0 5.412-6.226c4.31-5.446 9.635-13.399 13.694-23.426a.843.843 0 0 1 1.099-.466" clip-rule="evenodd"/><path fill="#82C2F1" d="m20.465 65.887 111.14 7.468a4.84 4.84 0 0 1 4.514 5.013l-2.354 62.86a4.85 4.85 0 0 1-4.591 4.658l-108.033 5.646a4.845 4.845 0 0 1-5.097-4.793L15.3 70.764a4.844 4.844 0 0 1 5.173-4.877z"/><path fill="#F7F7F7" d="m23.697 70.537 104.591 6.742c2.456.16 4.346 2.17 4.253 4.532l-2.219 56.793c-.085 2.262-1.958 4.093-4.321 4.211l-101.663 5.097c-2.59.127-4.768-1.84-4.793-4.329l-.7-68.641c-.025-2.549 2.21-4.582 4.86-4.414z"/><path fill="#EA4F4A" d="m73.9 89.574-18.507 28.38c-2.135 3.274.304 7.603 4.211 7.468l37.233-1.249c3.822-.126 5.983-4.43 3.814-7.578l-18.734-27.13c-1.95-2.828-6.152-2.777-8.026.11z"/><path fill="#FFC509" d="m80.887 97.195-1.368 14.768c-.177 1.756-2.75 1.747-2.92 0l-1.366-14.768c-.203-4.092 5.848-4.1 5.654 0M78.06 120.604a2.068 2.068 0 1 0 0-4.136 2.068 2.068 0 0 0 0 4.136"/></g><defs><clipPath id="hv_a"><path fill="#fff" d="M0 0h240v240H0z"/></clipPath><clipPath id="hw_b"><rect width="200" height="199.999" x="20.414" y="19.872" fill="#fff" rx="100"/></clipPath></defs></svg>