<svg xmlns="http://www.w3.org/2000/svg" width="16" height="16" fill="none" class="persona-icon" viewBox="0 0 16 16"><path fill="currentColor" fill-rule="evenodd" d="M12.96 3.034A6.94 6.94 0 0 0 8.03 1C4.186 1 1.06 4.112 1.058 7.937c-.001 1.223.32 2.416.93 3.468L1 15l3.695-.965a7 7 0 0 0 3.331.845h.003c3.842 0 6.97-3.113 6.971-6.938a6.88 6.88 0 0 0-2.04-4.908M8.03 13.708h-.003c-1.04 0-2.06-.278-2.949-.804l-.212-.125-2.192.573.585-2.128-.138-.218a5.73 5.73 0 0 1-.886-3.069c.002-3.179 2.6-5.765 5.797-5.765 1.547 0 3.002.6 4.096 1.69a5.72 5.72 0 0 1 1.695 4.08c-.001 3.18-2.6 5.766-5.794 5.766m3.177-4.318c.175.087.29.13.334.203.043.072.043.42-.102.824-.145.405-.84.775-1.175.825-.3.044-.68.063-1.097-.07-.253-.08-.578-.186-.993-.365-1.747-.75-2.888-2.501-2.976-2.617-.087-.116-.71-.94-.71-1.793s.449-1.273.609-1.446a.64.64 0 0 1 .464-.217c.117 0 .233 0 .334.006.107.005.25-.04.392.297.145.348.494 1.2.537 1.287s.073.188.014.304-.086.188-.174.29c-.087.1-.183.225-.261.303-.087.086-.178.18-.076.354.101.173.451.74.969 1.2.665.59 1.226.774 1.4.86.175.087.276.073.378-.043s.435-.506.551-.68c.116-.173.232-.144.392-.086s1.016.477 1.19.564" clip-rule="evenodd"/></svg>