<svg xmlns="http://www.w3.org/2000/svg" width="16" height="16" fill="none"><path fill="#000" fill-rule="evenodd" d="M12.96 3.034A6.941 6.941 0 0 0 8.03 1C4.186 1 1.06 4.112 1.057 7.937c0 1.223.321 2.416.931 3.468L1 15l3.695-.965a6.988 6.988 0 0 0 3.331.845h.003c3.842 0 6.97-3.113 6.971-6.938a6.877 6.877 0 0 0-2.04-4.907ZM8.03 13.708h-.003c-1.04 0-2.06-.278-2.949-.804l-.212-.125-2.192.573.585-2.128-.138-.218a5.73 5.73 0 0 1-.886-3.069c.002-3.179 2.6-5.765 5.797-5.765 1.547 0 3.002.6 4.096 1.69a5.717 5.717 0 0 1 1.695 4.08c-.001 3.18-2.6 5.766-5.794 5.766Zm3.177-4.318c-.174-.087-1.03-.506-1.19-.564-.16-.058-.276-.087-.392.087-.116.173-.45.564-.551.68-.102.115-.203.13-.377.043-.175-.087-.736-.27-1.401-.86a5.228 5.228 0 0 1-.97-1.201c-.1-.174-.01-.268.077-.354.078-.078.174-.203.261-.304.088-.1.116-.173.175-.289.058-.116.029-.217-.015-.304-.043-.086-.392-.94-.537-1.286-.141-.338-.285-.293-.392-.298a7.07 7.07 0 0 0-.334-.006.64.64 0 0 0-.464.217c-.16.173-.61.593-.61 1.446s.624 1.677.711 1.793c.088.116 1.229 1.866 2.976 2.617.415.18.74.286.993.366.417.132.797.113 1.097.069.334-.05 1.03-.42 1.175-.825.145-.405.145-.752.102-.824-.043-.072-.16-.116-.334-.203Z" clip-rule="evenodd"/></svg>