<svg xmlns="http://www.w3.org/2000/svg" width="20" height="20" fill="none" class="persona-icon" viewBox="0 0 20 20"><path fill="currentColor" fill-rule="evenodd" d="M15.669 4.325A7.93 7.93 0 0 0 10.034 2C5.642 2 2.068 5.556 2.067 9.928c0 1.397.366 2.761 1.063 3.963L2 18l4.223-1.102a8 8 0 0 0 3.807.964h.004c4.39 0 7.964-3.556 7.966-7.928 0-2.118-.827-4.11-2.331-5.609m-5.635 12.199h-.003a6.64 6.64 0 0 1-3.37-.919l-.242-.143-2.506.654.669-2.431-.158-.25a6.55 6.55 0 0 1-1.012-3.507c.001-3.633 2.972-6.59 6.624-6.59 1.769.002 3.431.688 4.682 1.934a6.53 6.53 0 0 1 1.937 4.662c-.002 3.633-2.972 6.59-6.621 6.59m3.632-4.936c-.2-.099-1.178-.578-1.36-.644s-.316-.1-.448.1c-.133.198-.514.644-.63.776-.117.132-.233.149-.432.05-.199-.1-.84-.31-1.6-.984a6 6 0 0 1-1.108-1.372c-.116-.199-.012-.306.087-.404.09-.09.199-.232.299-.347.1-.116.132-.199.199-.33.066-.133.033-.249-.017-.348-.05-.1-.447-1.074-.614-1.47-.161-.387-.325-.334-.447-.34a8 8 0 0 0-.382-.008.73.73 0 0 0-.531.248c-.183.199-.697.678-.697 1.653 0 .974.713 1.917.813 2.05.1.131 1.404 2.132 3.4 2.99.476.205.846.327 1.136.418.476.15.91.13 1.253.079.383-.057 1.178-.48 1.344-.942.165-.463.165-.86.116-.942-.05-.083-.182-.133-.381-.233" clip-rule="evenodd"/></svg>