<svg xmlns="http://www.w3.org/2000/svg" width="20" height="20" fill="none" class="persona-icon" viewBox="0 0 20 20"><path fill="currentColor" fill-rule="evenodd" d="M15.669 4.325A7.93 7.93 0 0 0 10.034 2C5.642 2 2.068 5.556 2.067 9.928c0 1.397.366 2.761 1.063 3.963L2 18l4.223-1.102a8 8 0 0 0 3.807.964h.004c4.39 0 7.964-3.556 7.966-7.928 0-2.118-.827-4.11-2.331-5.609m-5.635 12.199h-.003a6.64 6.64 0 0 1-3.37-.919l-.242-.143-2.506.654.669-2.431-.158-.25a6.55 6.55 0 0 1-1.012-3.507c.001-3.633 2.972-6.59 6.624-6.59 1.769.002 3.431.688 4.682 1.934a6.53 6.53 0 0 1 1.937 4.662c-.002 3.633-2.972 6.59-6.621 6.59m3.632-4.936c.199.1.331.15.38.233.05.082.05.479-.115.942-.166.462-.961.885-1.344.942a2.74 2.74 0 0 1-1.253-.08c-.29-.09-.66-.212-1.135-.416-1.997-.859-3.301-2.86-3.4-2.992-.1-.132-.814-1.075-.814-2.05s.515-1.453.697-1.652a.73.73 0 0 1 .531-.248c.133 0 .266.001.382.007.122.007.286-.046.447.34.167.397.565 1.372.614 1.471.05.1.083.215.017.347-.067.132-.1.215-.2.33s-.209.259-.298.348c-.1.098-.203.205-.087.404.116.198.516.847 1.107 1.372.76.675 1.402.884 1.601.983.2.1.315.083.431-.05.117-.131.498-.577.63-.776.133-.198.266-.165.448-.1.183.067 1.162.546 1.36.645" clip-rule="evenodd"/></svg>