<svg xmlns="http://www.w3.org/2000/svg" width="24" height="24" fill="none" class="persona-icon" viewBox="0 0 24 24"><path fill="currentColor" fill-rule="evenodd" d="M18.377 5.616A8.84 8.84 0 0 1 21 11.926c-.002 4.918-4.023 8.92-8.962 8.92h-.004c-1.5-.001-2.974-.375-4.283-1.086L3 21l1.272-4.622a8.87 8.87 0 0 1-1.197-4.46C3.077 7.002 7.098 3 12.038 3c2.397 0 4.647.93 6.34 2.616m-6.34 13.723c4.106 0 7.448-3.326 7.45-7.414a7.35 7.35 0 0 0-2.18-5.244 7.42 7.42 0 0 0-5.266-2.175c-4.11 0-7.451 3.326-7.453 7.413 0 1.4.393 2.765 1.14 3.945l.176.281-.752 2.736 2.82-.736.271.16a7.47 7.47 0 0 0 3.792 1.034zm4.087-5.552c.224.111.373.168.429.261s.055.54-.131 1.06c-.187.52-1.081.996-1.511 1.06a3.1 3.1 0 0 1-1.41-.089c-.326-.103-.743-.24-1.278-.47-2.246-.965-3.713-3.216-3.825-3.365s-.914-1.209-.914-2.305.578-1.636.783-1.86a.82.82 0 0 1 .598-.278c.15 0 .298 0 .429.007.137.008.322-.051.504.383.187.446.634 1.543.69 1.655.056.111.093.241.019.39-.075.149-.112.242-.224.372s-.236.29-.336.39c-.112.111-.229.232-.098.455.13.223.58.953 1.246 1.544.855.759 1.577.994 1.8 1.106.224.111.355.093.486-.056.13-.148.56-.65.709-.873.149-.224.298-.186.504-.112.205.074 1.306.613 1.53.725" clip-rule="evenodd"/></svg>