<svg xmlns="http://www.w3.org/2000/svg" width="32" height="32" fill="none"><path fill="#000" fill-rule="evenodd" d="M24.503 7.488A11.899 11.899 0 0 0 16.05 4C9.463 4 4.103 9.335 4.1 15.892a11.823 11.823 0 0 0 1.595 5.945L4 28l6.335-1.654a11.98 11.98 0 0 0 5.71 1.448h.005c6.586 0 11.948-5.335 11.95-11.893a11.792 11.792 0 0 0-3.497-8.413ZM16.05 25.785h-.004a9.956 9.956 0 0 1-5.055-1.378l-.363-.214-3.76.981 1.004-3.647-.236-.374a9.824 9.824 0 0 1-1.518-5.26c.002-5.45 4.458-9.885 9.936-9.885a9.889 9.889 0 0 1 7.022 2.9 9.8 9.8 0 0 1 2.907 6.992c-.003 5.45-4.458 9.885-9.933 9.885Zm5.448-7.403c-.298-.148-1.766-.867-2.04-.966-.274-.1-.473-.149-.672.149-.198.297-.77.967-.945 1.165-.174.198-.348.223-.647.074-.298-.149-1.26-.463-2.401-1.475-.888-.788-1.487-1.76-1.661-2.058-.175-.298-.019-.459.13-.607.134-.133.299-.347.448-.52.15-.174.2-.298.299-.496.1-.198.05-.371-.025-.52-.074-.15-.671-1.612-.92-2.207-.243-.579-.49-.5-.672-.51-.174-.008-.373-.01-.572-.01-.2 0-.523.074-.797.372-.274.297-1.045 1.016-1.045 2.479 0 1.461 1.07 2.875 1.22 3.074.149.198 2.105 3.2 5.1 4.487.712.306 1.269.489 1.702.626.715.226 1.366.194 1.88.118.574-.086 1.767-.72 2.016-1.413.249-.694.249-1.29.174-1.413-.074-.124-.274-.199-.572-.347v-.002Z" clip-rule="evenodd"/></svg>