<svg xmlns="http://www.w3.org/2000/svg" width="16" height="16" fill="none" class="persona-icon" viewBox="0 0 16 16"><path fill="currentColor" fill-rule="evenodd" d="M8 6.142c-1.473 0-2.667 1.14-2.667 2.548 0 1.408 1.194 2.549 2.667 2.549 1.473 0 2.667-1.141 2.667-2.549 0-1.407-1.194-2.548-2.667-2.548M6.333 8.69c0-.88.747-1.593 1.667-1.593s1.667.714 1.667 1.593c0 .88-.746 1.593-1.667 1.593-.92 0-1.667-.713-1.667-1.593" clip-rule="evenodd"/><path fill="currentColor" fill-rule="evenodd" d="M7.154 2c-.516 0-1.01.196-1.375.544L4.182 4.071h-.515C2.194 4.07 1 5.21 1 6.62v4.831C1 12.86 2.194 14 3.667 14h8.666C13.806 14 15 12.859 15 11.451V6.62c0-1.408-1.194-2.55-2.667-2.55h-.515l-1.597-1.526A1.991 1.991 0 0 0 8.846 2zm-.668 1.22a.968.968 0 0 1 .668-.264h1.692c.25 0 .49.095.668.264l1.744 1.667c.093.09.22.14.353.14h.722c.92 0 1.667.713 1.667 1.593v4.831c0 .88-.746 1.593-1.667 1.593H3.667c-.92 0-1.667-.713-1.667-1.593V6.62c0-.88.746-1.593 1.667-1.593h.722c.132 0 .26-.05.353-.14z" clip-rule="evenodd"/></svg>