<svg xmlns="http://www.w3.org/2000/svg" width="24" height="24" fill="none" class="persona-icon" viewBox="0 0 24 24"><path fill="currentColor" fill-rule="evenodd" d="M9.104 4.746A2.58 2.58 0 0 1 10.92 4h2.16c.68 0 1.333.268 1.816.746l1.995 1.973h.609a3.5 3.5 0 0 1 3.5 3.5v6.28a3.5 3.5 0 0 1-3.5 3.5h-11A3.5 3.5 0 0 1 3 16.5v-6.28a3.5 3.5 0 0 1 3.5-3.5h.609zm1.816.754c-.285 0-.559.112-.762.313L7.944 8.002a.75.75 0 0 1-.527.217H6.5a2 2 0 0 0-2 2v6.28a2 2 0 0 0 2 2h11a2 2 0 0 0 2-2v-6.28a2 2 0 0 0-2-2h-.917a.75.75 0 0 1-.527-.217l-2.214-2.19a1.08 1.08 0 0 0-.762-.312zM8.5 12.917a3.5 3.5 0 1 1 7 0 3.5 3.5 0 0 1-7 0m3.5-2a2 2 0 1 0 0 4 2 2 0 0 0 0-4" clip-rule="evenodd"/></svg>