<svg xmlns="http://www.w3.org/2000/svg" width="32" height="32" fill="none" class="persona-icon" viewBox="0 0 32 32"><path fill="currentColor" fill-rule="evenodd" d="M16.002 11.63c-2.945 0-5.333 2.378-5.333 5.31 0 2.933 2.388 5.31 5.333 5.31 2.946 0 5.334-2.377 5.334-5.31 0-2.932-2.388-5.31-5.334-5.31m-3.333 5.31a3.326 3.326 0 0 1 3.333-3.318 3.326 3.326 0 0 1 3.334 3.318 3.326 3.326 0 0 1-3.334 3.319 3.326 3.326 0 0 1-3.333-3.319" clip-rule="evenodd"/><path fill="currentColor" fill-rule="evenodd" d="M14.31 3.002c-1.032 0-2.02.408-2.75 1.134l-3.194 3.18h-1.03c-2.946 0-5.334 2.378-5.334 5.31v10.067c0 2.932 2.388 5.31 5.334 5.31h17.333c2.945 0 5.333-2.378 5.333-5.31V12.626c0-2.932-2.388-5.31-5.333-5.31h-1.03l-3.195-3.18a3.897 3.897 0 0 0-2.75-1.134zm-1.336 2.542c.354-.352.835-.55 1.336-.55h3.385c.5 0 .98.198 1.335.55l3.487 3.472c.188.187.442.292.707.292h1.445a3.326 3.326 0 0 1 3.333 3.318v10.067a3.326 3.326 0 0 1-3.333 3.318H7.336a3.326 3.326 0 0 1-3.334-3.318V12.626a3.326 3.326 0 0 1 3.334-3.318H8.78c.265 0 .52-.105.707-.292z" clip-rule="evenodd"/></svg>