<svg xmlns="http://www.w3.org/2000/svg" width="32" height="32" fill="none" class="persona-icon" viewBox="0 0 32 32"><path fill="currentColor" fill-rule="evenodd" d="M12.121 6.036A3.45 3.45 0 0 1 14.584 5h2.832c.927 0 1.815.374 2.463 1.036l2.653 2.714h.801A4.667 4.667 0 0 1 28 13.417v8.916A4.667 4.667 0 0 1 23.333 27H8.667A4.667 4.667 0 0 1 4 22.333v-8.916A4.667 4.667 0 0 1 8.667 8.75h.801zM14.584 7c-.389 0-.76.157-1.033.435l-2.947 3.014a1 1 0 0 1-.715.301H8.667A2.667 2.667 0 0 0 6 13.417v8.916A2.667 2.667 0 0 0 8.667 25h14.666A2.667 2.667 0 0 0 26 22.333v-8.916a2.667 2.667 0 0 0-2.667-2.667h-1.222a1 1 0 0 1-.715-.3L18.45 7.434A1.44 1.44 0 0 0 17.416 7zm-3.25 10.222a4.667 4.667 0 1 1 9.333 0 4.667 4.667 0 0 1-9.334 0M16 14.556a2.667 2.667 0 1 0 0 5.333 2.667 2.667 0 0 0 0-5.333" clip-rule="evenodd"/></svg>