<svg xmlns="http://www.w3.org/2000/svg" width="16" height="16" fill="none" class="persona-icon" viewBox="0 0 16 16"><path fill="currentColor" fill-rule="evenodd" d="M5.377 2.714c-.79 0-1.429.64-1.429 1.429v7.714c0 .366.137.699.363.952a.5.5 0 0 1-.745.666 2.42 2.42 0 0 1-.618-1.618V4.143a2.43 2.43 0 0 1 2.429-2.429H8.29c.495 0 .967.206 1.305.568l2.873 3.078c.309.33.48.766.48 1.218v2.377a.5.5 0 1 1-1 0V6.572H9.876c-.986 0-1.785-.8-1.785-1.786V2.714zm3.714.493v1.579c0 .434.352.786.786.786h1.42z" clip-rule="evenodd"/><path fill="currentColor" d="M13.602 13.931a1 1 0 0 1-.261.049c-.388 0-.675-.123-.675-.745v-.94c0-.585.217-.777.68-.777a1 1 0 0 1 .281.051q.068.022.134.034a.5.5 0 0 0 .127 0 .35.35 0 0 0 .32-.361c0-.218-.139-.351-.325-.43-.202-.097-.478-.123-.68-.123-.936 0-1.484.52-1.484 1.696v.77c0 1.186.532 1.66 1.441 1.66.303 0 .622-.048.824-.187a.42.42 0 0 0 .202-.361.355.355 0 0 0-.298-.367c-.042-.005-.09-.01-.138-.005a1 1 0 0 0-.149.036"/><path fill="currentColor" fill-rule="evenodd" d="M8.386 13.172v-.814c0-1.1.462-1.67 1.446-1.67.983 0 1.425.575 1.425 1.67v.814c0 1.095-.441 1.643-1.425 1.643s-1.446-.543-1.446-1.643m.946-.904v.994c0 .43.059.75.495.75.435 0 .483-.314.483-.75v-.994c0-.468-.032-.787-.483-.787-.436 0-.495.319-.495.787M5.6 14.756h.792c.984 0 1.537-.436 1.537-1.584v-.808c0-1.17-.553-1.622-1.537-1.622h-.787v.005l-.005-.005a.474.474 0 0 0-.473.473v3.063c0 .26.213.478.473.478m.473-3.195h.32c.494 0 .59.255.59.712v.99c0 .51-.16.664-.59.664h-.32z" clip-rule="evenodd"/></svg>