<svg xmlns="http://www.w3.org/2000/svg" width="24" height="24" fill="none" class="persona-icon" viewBox="0 0 24 24"><path fill="currentColor" fill-rule="evenodd" d="M7.837 3.5a2.333 2.333 0 0 0-2.333 2.334v12.333c0 .597.224 1.14.593 1.554a.75.75 0 1 1-1.118 1 3.82 3.82 0 0 1-.975-2.554V5.834A3.833 3.833 0 0 1 7.837 2h4.657c.778 0 1.52.323 2.051.891l4.593 4.922c.485.52.755 1.203.755 1.914v3.8a.75.75 0 0 1-1.5 0v-3.8q0-.03-.002-.06h-3.359a2.806 2.806 0 0 1-2.805-2.806v-3.36zm5.89.713V6.86c0 .721.584 1.306 1.305 1.306h2.385z" clip-rule="evenodd"/><path fill="currentColor" d="M20.988 20.686c.082-.023.16-.046.238-.058a1 1 0 0 1 .22.008c.281.051.477.272.477.587 0 .255-.128.45-.323.578-.323.22-.833.297-1.318.297-1.453 0-2.303-.756-2.303-2.652v-1.232c0-1.879.875-2.712 2.371-2.712.323 0 .765.043 1.088.196.298.127.519.34.519.688a.56.56 0 0 1-.51.578.8.8 0 0 1-.204 0 2 2 0 0 1-.213-.054 1.6 1.6 0 0 0-.45-.082c-.74 0-1.088.306-1.088 1.241v1.505c0 .994.459 1.19 1.08 1.19.142 0 .282-.04.416-.078"/><path fill="currentColor" fill-rule="evenodd" d="M12.65 19.472v-1.3c0-1.76.74-2.67 2.312-2.67s2.278.918 2.278 2.67v1.3c0 1.75-.706 2.626-2.278 2.626s-2.312-.867-2.312-2.626m1.513-1.445v1.59c0 .688.093 1.198.79 1.198s.774-.502.774-1.199v-1.59c0-.747-.051-1.257-.774-1.257-.697 0-.79.51-.79 1.258M8.196 22.005a.765.765 0 0 1-.756-.765v-4.896c0-.417.34-.757.756-.757l.008.009v-.009h1.258c1.573 0 2.457.723 2.457 2.593v1.292c0 1.836-.884 2.533-2.456 2.533zm.757-5.109v3.783h.51c.688 0 .943-.247.943-1.063v-1.58c0-.732-.153-1.14-.944-1.14z" clip-rule="evenodd"/></svg>