<svg xmlns="http://www.w3.org/2000/svg" width="32" height="32" fill="none" class="persona-icon" viewBox="0 0 32 32"><path fill="currentColor" fill-rule="evenodd" d="M10.806 5.429A2.857 2.857 0 0 0 7.95 8.286v15.428c0 .732.274 1.398.726 1.904a1 1 0 1 1-1.49 1.333 4.84 4.84 0 0 1-1.236-3.237V8.286a4.857 4.857 0 0 1 4.857-4.857h5.826c.99 0 1.935.41 2.61 1.134l5.747 6.157c.617.661.96 1.532.96 2.437v4.753a1 1 0 1 1-2 0v-4.767h-4.142a3.57 3.57 0 0 1-3.572-3.571V5.429zm7.43.986v3.157c0 .868.703 1.571 1.57 1.571h2.842z" clip-rule="evenodd"/><path fill="currentColor" d="M27.258 26.862c-.168.048-.343.097-.522.097-.776 0-1.35-.244-1.35-1.488v-1.883c0-1.17.436-1.552 1.36-1.552.214 0 .395.053.563.102.092.027.18.053.267.068q.128.015.255 0c.362-.032.638-.33.638-.723 0-.436-.276-.702-.648-.861-.404-.192-.957-.245-1.361-.245-1.872 0-2.967 1.042-2.967 3.392v1.542c0 2.371 1.063 3.318 2.882 3.318.606 0 1.244-.096 1.648-.373a.84.84 0 0 0 .404-.723c0-.393-.245-.67-.596-.733-.085-.01-.18-.021-.276-.01a3 3 0 0 0-.297.072"/><path fill="currentColor" fill-rule="evenodd" d="M16.826 25.343v-1.627c0-2.2.925-3.339 2.892-3.339 1.968 0 2.85 1.149 2.85 3.34v1.626c0 2.19-.882 3.286-2.85 3.286s-2.892-1.085-2.892-3.286m1.893-1.808v1.989c0 .861.117 1.5.989 1.5s.968-.628.968-1.5v-1.989c0-.935-.064-1.573-.968-1.573-.872 0-.989.638-.989 1.573M11.255 28.512h1.584c1.967 0 3.073-.872 3.073-3.169v-1.616c0-2.34-1.106-3.243-3.073-3.243h-1.573v.01l-.011-.01a.95.95 0 0 0-.946.946v6.125c0 .52.425.957.946.957m.946-6.39h.638c.99 0 1.18.51 1.18 1.424v1.978c0 1.02-.318 1.329-1.18 1.329h-.638z" clip-rule="evenodd"/></svg>