<svg xmlns="http://www.w3.org/2000/svg" width="24" height="24" fill="none" class="persona-icon" viewBox="0 0 24 24"><path fill="currentColor" fill-rule="evenodd" d="M22 12c0 5.523-4.477 10-10 10S2 17.523 2 12 6.477 2 12 2s10 4.477 10 10Zm-10 8.462a8.461 8.461 0 1 0 0-16.923 8.461 8.461 0 0 0 0 16.922Z" clip-rule="evenodd"/><path fill="currentColor" fill-rule="evenodd" d="M13.484 15.766a.858.858 0 0 1-1.179 0l-3.333-3.2a.778.778 0 0 1 0-1.132l3.333-3.2a.858.858 0 0 1 1.179 0 .778.778 0 0 1 0 1.132L10.739 12l2.745 2.634a.778.778 0 0 1 0 1.132Z" clip-rule="evenodd"/></svg>