<svg xmlns="http://www.w3.org/2000/svg" width="24" height="24" fill="none"><path fill="#000" fill-rule="evenodd" d="M11.695 2.062a.779.779 0 0 1 .61 0l7.226 3.077c.284.121.469.4.469.707v8.205c0 2.43-1.81 4.425-3.528 5.738a15.45 15.45 0 0 1-2.568 1.588c-.384.187-.74.336-1.044.44-.278.096-.592.183-.86.183s-.582-.087-.86-.183a9.587 9.587 0 0 1-1.045-.44 15.456 15.456 0 0 1-2.567-1.588C5.809 18.475 4 16.481 4 14.051V5.846a.77.77 0 0 1 .47-.707l7.225-3.077ZM5.548 6.353v7.698c0 1.673 1.288 3.268 2.924 4.519.794.607 1.62 1.093 2.303 1.425.342.166.64.289.871.369.218.074.326.093.35.097h.008c.024-.004.132-.023.35-.097.232-.08.529-.203.87-.37.684-.331 1.51-.817 2.304-1.424 1.636-1.25 2.924-2.846 2.924-4.519V6.353L12 3.606 5.548 6.353Z" clip-rule="evenodd"/><path fill="#000" fill-rule="evenodd" d="M14.76 9.24c.32.32.32.837 0 1.157l-4.363 4.363a.818.818 0 0 1-1.157-1.157l4.363-4.363a.818.818 0 0 1 1.157 0Z" clip-rule="evenodd"/><path fill="#000" fill-rule="evenodd" d="M14.76 14.76a.818.818 0 0 0 0-1.157L10.397 9.24a.818.818 0 1 0-1.157 1.157l4.363 4.363c.32.32.838.32 1.157 0Z" clip-rule="evenodd"/></svg>