<svg xmlns="http://www.w3.org/2000/svg" width="32" height="32" fill="none"><path fill="#000" fill-rule="evenodd" d="M15.61 2.08a.981.981 0 0 1 .78 0L26.4 6.415a1 1 0 0 1 .6.92v11.555c0 3.38-2.478 6.168-4.855 8.015a21.258 21.258 0 0 1-3.543 2.227c-.53.262-1.02.47-1.438.617-.383.134-.808.252-1.164.252-.356 0-.78-.118-1.164-.252a13.089 13.089 0 0 1-1.438-.617 21.256 21.256 0 0 1-3.543-2.227C7.478 25.057 5 22.269 5 18.889V7.333a1 1 0 0 1 .6-.919l10.01-4.333ZM6.98 7.994v10.896c0 2.397 1.812 4.665 4.082 6.43a19.292 19.292 0 0 0 3.206 2.015c.475.235.89.41 1.215.523.163.057.294.096.393.119.072.017.111.022.124.023.013-.001.052-.006.124-.023.1-.023.23-.062.393-.119.325-.113.74-.288 1.216-.523.95-.47 2.1-1.157 3.205-2.015 2.27-1.765 4.082-4.033 4.082-6.43V7.993L16 4.088 6.98 7.993Z" clip-rule="evenodd"/><path fill="#000" fill-rule="evenodd" d="M19.56 12.404c.387.39.387 1.024 0 1.414l-5.72 5.778a.983.983 0 0 1-1.4 0 1.007 1.007 0 0 1 0-1.414l5.72-5.778a.983.983 0 0 1 1.4 0Z" clip-rule="evenodd"/><path fill="#000" fill-rule="evenodd" d="M19.56 19.596a1.007 1.007 0 0 0 0-1.414l-5.72-5.778a.983.983 0 0 0-1.4 0 1.007 1.007 0 0 0 0 1.414l5.72 5.778a.983.983 0 0 0 1.4 0Z" clip-rule="evenodd"/></svg>