<svg xmlns="http://www.w3.org/2000/svg" width="20" height="20" fill="none" class="persona-icon" viewBox="0 0 20 20"><path fill="currentColor" d="M10.3 6.385a1.725 1.725 0 1 1 0 3.45 1.725 1.725 0 0 1 0-3.45M9.64 10.165h1.32c.695 0 1.355.304 1.806.833a1.5 1.5 0 0 1 .359.973v.039c0 .886-.719 1.605-1.605 1.605H9.08a1.605 1.605 0 0 1-1.605-1.605v-.039a1.5 1.5 0 0 1 .36-.973 2.37 2.37 0 0 1 1.805-.833"/><path fill="currentColor" fill-rule="evenodd" d="M3.975 15.34v-.805h-.492a.625.625 0 1 1 0-1.25h.492v-2.66h-.492a.625.625 0 0 1 0-1.25h.492v-2.66h-.492a.625.625 0 1 1 0-1.25h.492v-.806c0-1.2.973-2.174 2.174-2.174h7.702c1.2 0 2.174.974 2.174 2.174v10.682c0 1.2-.973 2.174-2.174 2.174H6.149c-1.2 0-2.174-.974-2.174-2.174m1.25-10.68v.805h.12a.625.625 0 1 1 0 1.25h-.12v2.66h.12a.625.625 0 1 1 0 1.25h-.12v2.66h.12a.625.625 0 1 1 0 1.25h-.12v.806c0 .51.414.924.924.924h7.702c.51 0 .924-.414.924-.924V4.659a.924.924 0 0 0-.924-.924H6.149a.924.924 0 0 0-.924.924" clip-rule="evenodd"/></svg>