<svg xmlns="http://www.w3.org/2000/svg" width="40" height="40" fill="none" class="persona-ilustration" viewBox="0 0 40 40"><g clip-path="url(#9nbDF7fbk8_a)"><path fill="#3E68F5" d="M22.899 21.06a7.06 7.06 0 0 0 .148 3.471 7.17 7.17 0 0 0-7.798 1.141 1.603 1.603 0 1 1-2.13-2.397 10.38 10.38 0 0 1 9.78-2.215M20.014 32.526a2.443 2.443 0 1 0-.002-4.887 2.443 2.443 0 0 0 .002 4.887"/><path fill="#A6B7FF" d="M20.014 7.474c5.792 0 11.38 2.132 15.702 5.99a1.605 1.605 0 0 1-.98 2.797 1.6 1.6 0 0 1-1.158-.406 20.37 20.37 0 0 0-27.129 0 1.604 1.604 0 1 1-2.137-2.39 23.58 23.58 0 0 1 15.702-5.991"/><path fill="#A6B7FF" d="M20.014 14.064A16.9 16.9 0 0 0 8.427 18.64a1.605 1.605 0 0 0 1.657 2.688 1.6 1.6 0 0 0 .533-.345 13.76 13.76 0 0 1 13.777-2.995 7 7 0 0 1 3.178-2.151 16.9 16.9 0 0 0-7.558-1.773"/><ellipse cx="29.75" cy="22.505" fill="#FFB700" rx="5.5" ry="5.511"/><ellipse cx="29.75" cy="25.233" fill="#AD2F2E" rx=".778" ry=".779"/><path fill="#AD2F2E" d="M29.002 19.775a.749.749 0 1 1 1.496 0l-.143 3.706a.606.606 0 0 1-1.211 0z"/></g><defs><clipPath id="9nbDF7fbk8_a"><path fill="#fff" d="M0 0h40v40H0z"/></clipPath></defs></svg>