<svg xmlns="http://www.w3.org/2000/svg" width="240" height="240" fill="none" class="persona-ilustration" viewBox="0 0 240 240"><g clip-path="url(#ALIHf76rtl_a)"><g clip-path="url(#ALIHf76rtl_b)"><rect width="200" height="200" x="20" y="20" fill="#D3EDFF" rx="100"/><path fill="#AADBFF" d="M130.167 117.244h8.82v12.643h5.46v28.036h7.14v-15.667h10.92v-10.17h8.82v16.491h10.92v16.767h10.92v-9.345h10.92v-10.17h8.82v12.094h7.14v-20.065h7.98v-8.246h19.74v28.311h5.46v-9.895h7.98v-8.246h8.82v8.246h7.56v23.912h8.82v-26.111h15.12v8.246h9.24v52.497h-342.72v-28.585h19.74v6.322h7.14v-23.088h19.74v10.719h5.46v-19.515h4.2v-3.023h12.18v3.023h3.36v21.164h4.62v-15.666h4.2v-6.597h12.18v6.597h3.36v7.97h5.46v-20.064h10.92v-10.17h8.82v36.281h7.98v-12.368h5.46v-9.345h8.82v9.345h5.46v5.772h7.56v-35.457h5.46z"/><path fill="#3D7360" d="M80.88 182.866C37.007 165.208-29.08 193.891-56.64 210.44h204.358c-4-1.833-22.967-9.915-66.839-27.574"/><path fill="#498F79" d="M241.191 180.747C170.626 152.344 64.328 198.48 20 225.098h328.699c-6.434-2.95-36.943-15.949-107.508-44.351"/></g><path fill="#3E68F5" d="M134.98 91.265a37 37 0 0 0-.78 7.58c0 3.695.544 7.263 1.555 10.627a37.61 37.61 0 0 0-40.9 5.985 8.4 8.4 0 0 1-2.834 1.71 8.42 8.42 0 0 1-6.48-.335 8.41 8.41 0 0 1-4.75-8.133 8.41 8.41 0 0 1 2.889-5.814 54.43 54.43 0 0 1 51.3-11.62M119.849 151.408c7.076 0 12.812-5.74 12.812-12.821s-5.736-12.821-12.812-12.821-12.812 5.74-12.812 12.821 5.737 12.821 12.812 12.821"/><path fill="#A6B7FF" d="M119.849 20a123.67 123.67 0 0 1 82.364 31.425l-.004-.008a8.416 8.416 0 0 1-5.137 14.674 8.4 8.4 0 0 1-6.073-2.13 106.86 106.86 0 0 0-71.152-27.138c-26.242 0-51.567 9.66-71.152 27.139a8.405 8.405 0 0 1-14.139-6.702 8.43 8.43 0 0 1 2.928-5.835A123.67 123.67 0 0 1 119.85 20"/><path fill="#A6B7FF" d="M119.849 54.566a88.64 88.64 0 0 0-60.777 24.007 8.418 8.418 0 0 0 2.175 13.947 8.4 8.4 0 0 0 9.308-1.659 72.15 72.15 0 0 1 72.27-15.71 36.77 36.77 0 0 1 16.667-11.284 88.6 88.6 0 0 0-39.643-9.3"/><ellipse cx="170.917" cy="98.845" fill="#FFB700" rx="28.85" ry="28.91"/><ellipse cx="170.916" cy="113.155" fill="#AD2F2E" rx="4.08" ry="4.088"/><path fill="#AD2F2E" d="M166.992 84.525a3.927 3.927 0 1 1 7.847 0l-.746 19.44a3.18 3.18 0 0 1-6.354 0z"/></g><defs><clipPath id="ALIHf76rtl_a"><path fill="#fff" d="M0 0h240v240H0z"/></clipPath><clipPath id="ALIHf76rtl_b"><rect width="200" height="200" x="20" y="20" fill="#fff" rx="100"/></clipPath></defs></svg>