<svg xmlns="http://www.w3.org/2000/svg" width="24" height="24" fill="none" class="persona-icon" viewBox="0 0 24 24"><path fill="currentColor" fill-rule="evenodd" d="M16.874 6.313a.75.75 0 0 1 .977-.413 6.7 6.7 0 0 1 3.013 2.426A6.52 6.52 0 0 1 22 11.997a6.52 6.52 0 0 1-1.133 3.672 6.7 6.7 0 0 1-3.011 2.429.75.75 0 0 1-.566-1.39 5.2 5.2 0 0 0 2.337-1.882c.57-.839.874-1.823.873-2.828 0-1.005-.304-1.99-.875-2.827a5.2 5.2 0 0 0-2.339-1.88.75.75 0 0 1-.413-.978" clip-rule="evenodd"/><path fill="currentColor" fill-rule="evenodd" d="M15.044 8.912a.75.75 0 0 1 .916-.535 3.8 3.8 0 0 1 2.034 1.335c.512.655.791 1.459.791 2.288 0 .83-.279 1.633-.79 2.288a3.8 3.8 0 0 1-2.035 1.335.75.75 0 1 1-.382-1.45 2.3 2.3 0 0 0 1.235-.809c.307-.393.472-.872.472-1.364s-.165-.971-.473-1.364a2.3 2.3 0 0 0-1.234-.808.75.75 0 0 1-.534-.916M13.288 4.085a.75.75 0 0 1 .402.665v14.5a.75.75 0 0 1-1.178.616l-5.92-4.116H4.278A2.28 2.28 0 0 1 2 13.471V10.53A2.28 2.28 0 0 1 4.279 8.25H6.59l5.921-4.116a.75.75 0 0 1 .776-.049m-1.098 2.1-4.936 3.43a.75.75 0 0 1-.428.135H4.28a.78.78 0 0 0-.779.779v2.942c0 .43.349.779.779.779h2.547a.75.75 0 0 1 .428.134l4.936 3.431z" clip-rule="evenodd"/></svg>