<svg xmlns="http://www.w3.org/2000/svg" width="20" height="20" fill="none" class="persona-icon" viewBox="0 0 20 20"><path fill="currentColor" fill-rule="evenodd" d="M5.193 3.143h8.552c1.764 0 3.194 1.466 3.194 3.273v7.622L17.936 16c.092.181.085.4-.019.574a.57.57 0 0 1-.488.282H5.193C3.43 16.857 2 15.392 2 13.584V6.416C2 4.61 3.43 3.143 5.193 3.143m5.582 2.555c.023-.193-.224-.292-.341-.137l-3.632 4.81a.19.19 0 0 0 .152.306h1.499a.19.19 0 0 1 .188.22l-.519 3.322c-.03.198.225.303.342.142l3.61-4.97a.19.19 0 0 0-.15-.303l-1.335-.035a.19.19 0 0 1-.184-.213z" clip-rule="evenodd"/></svg>