<svg xmlns="http://www.w3.org/2000/svg" width="32" height="32" fill="none" class="persona-icon" viewBox="0 0 32 32"><path fill="currentColor" fill-rule="evenodd" d="M7.588 4h14.967c3.086 0 5.588 2.565 5.588 5.729v13.337l1.744 3.436c.161.317.15.699-.032 1.005A1 1 0 0 1 29 28H7.588C4.502 28 2 25.435 2 22.271V9.73C2 6.565 4.502 4 7.588 4m9.768 4.47c.04-.337-.392-.51-.597-.239l-6.356 8.419a.333.333 0 0 0 .266.534h2.624c.204 0 .36.183.329.385l-.909 5.815c-.054.346.394.53.6.247l6.315-8.697a.333.333 0 0 0-.261-.53l-2.335-.061a.333.333 0 0 1-.323-.372z" clip-rule="evenodd"/></svg>