<svg xmlns="http://www.w3.org/2000/svg" width="16" height="16" fill="none" class="persona-icon" viewBox="0 0 16 16"><path fill="currentColor" fill-rule="evenodd" d="M5.374 2.27a1.67 1.67 0 0 1 1.82 0l6.432 4.085c1.165.74 1.165 2.55 0 3.29l-6.432 4.086a1.67 1.67 0 0 1-1.82 0c-.52-.33-.874-.933-.874-1.646v-8.17c0-.713.353-1.315.874-1.646m.536.844c-.228.145-.41.426-.41.8v8.171c0 .375.182.656.41.802.224.142.496.16.748 0L13.09 8.8c.547-.347.547-1.255 0-1.602L6.658 3.114a.67.67 0 0 0-.748 0" clip-rule="evenodd"/></svg>