<svg xmlns="http://www.w3.org/2000/svg" width="16" height="16" fill="none" class="persona-icon" viewBox="0 0 16 16"><path fill="currentColor" fill-rule="evenodd" d="M4.948 1.487a1.84 1.84 0 0 1 1.97 0l7.134 4.456c1.264.79 1.264 2.724 0 3.514l-7.134 4.456a1.84 1.84 0 0 1-1.97 0A2.05 2.05 0 0 1 4 12.157V3.244c0-.763.384-1.405.948-1.757m.545.844c-.267.167-.476.489-.476.913v8.913c0 .424.21.745.476.912a.8.8 0 0 0 .88 0l7.134-4.456c.635-.397.635-1.429 0-1.826L6.373 2.331a.8.8 0 0 0-.88 0" clip-rule="evenodd"/></svg>