<svg xmlns="http://www.w3.org/2000/svg" width="16" height="16" fill="none"><path fill="currentColor" d="M3.866 2.461A3.643 3.643 0 0 1 9.13 6.686l4.362 4.363a1.729 1.729 0 1 1-2.444 2.444L6.686 9.131A3.64 3.64 0 0 1 2.46 3.866a.5.5 0 0 1 .79-.11L4.985 5.49a.357.357 0 0 0 .505-.505L3.756 3.251a.5.5 0 0 1 .11-.79Zm1.132.618 1.199 1.2a1.357 1.357 0 1 1-1.919 1.918l-1.199-1.2a2.64 2.64 0 0 0 3.552 3.095.5.5 0 0 1 .54.11l4.585 4.584a.729.729 0 1 0 1.03-1.03L8.202 7.17a.5.5 0 0 1-.11-.54 2.643 2.643 0 0 0-3.094-3.552Z"/></svg>