<svg xmlns="http://www.w3.org/2000/svg" width="20" height="20" fill="none" class="persona-icon" viewBox="0 0 20 20"><path fill="currentColor" d="M4.464 2.61a4.811 4.811 0 0 1 6.932 5.645l5.953 5.954a2.22 2.22 0 1 1-3.14 3.14l-5.954-5.953A4.811 4.811 0 0 1 2.61 4.464a.558.558 0 0 1 .882-.123l2.346 2.346a.601.601 0 0 0 .85-.85L4.341 3.491a.559.559 0 0 1 .123-.882Zm1.247.672 1.766 1.766a1.718 1.718 0 0 1-2.43 2.429L3.283 5.71a3.693 3.693 0 0 0 4.91 4.523.558.558 0 0 1 .603.123l6.203 6.203a1.105 1.105 0 0 0 1.562-1.562l-6.203-6.203a.558.558 0 0 1-.123-.603 3.694 3.694 0 0 0-4.523-4.91Z"/></svg>