<svg xmlns="http://www.w3.org/2000/svg" width="32" height="32" fill="none" class="persona-icon" viewBox="0 0 32 32"><path fill="currentColor" d="M7.026 3.998a7.857 7.857 0 0 1 11.34 9.163l9.558 9.557a3.681 3.681 0 1 1-5.206 5.206l-9.557-9.557a7.857 7.857 0 0 1-9.164-11.34 1 1 0 0 1 1.58-.22l3.784 3.783a.87.87 0 1 0 1.23-1.23L6.806 5.579a1 1 0 0 1 .22-1.58Zm2.25 1.22 2.728 2.729a2.87 2.87 0 1 1-4.057 4.057L5.218 9.276a5.856 5.856 0 0 0 7.83 7.01 1 1 0 0 1 1.082.221L24.132 26.51a1.681 1.681 0 1 0 2.378-2.377L16.507 14.13a1 1 0 0 1-.22-1.081 5.856 5.856 0 0 0-7.01-7.83Z"/></svg>