<svg xmlns="http://www.w3.org/2000/svg" width="16" height="16" fill="none" class="persona-icon" viewBox="0 0 16 16"><path fill="currentColor" fill-rule="evenodd" d="M3.833 4.944a2.944 2.944 0 1 1 5.89 0 2.944 2.944 0 0 1-5.89 0m7.834 1.404a1.7 1.7 0 0 1 .255-.187c.178-.105.397-.185.647-.189.253-.004.505.071.745.225.466.298.67.711.685 1.123.014.377-.13.707-.268.906a.5.5 0 0 1-.065.075L12.013 9.89a.5.5 0 0 1-.693 0L9.667 8.3a.5.5 0 0 1-.065-.075 1.53 1.53 0 0 1-.268-.906c.016-.412.22-.825.685-1.123.24-.154.492-.229.746-.225.25.004.468.084.646.189q.14.084.256.187m-9.14 3.743a3.9 3.9 0 0 1 2.968-1.369H8.06c1.142 0 2.226.5 2.967 1.369a2.2 2.2 0 0 1 .528 1.429v.147A2.333 2.333 0 0 1 9.222 14H4.333A2.333 2.333 0 0 1 2 11.667v-.147c0-.524.187-1.03.527-1.43M6.777 3a1.945 1.945 0 1 0 0 3.889 1.945 1.945 0 0 0 0-3.889m3.973 3.972c-.039 0-.1.009-.192.067a.54.54 0 0 0-.184.177.3.3 0 0 0-.04.141.53.53 0 0 0 .069.264l1.264 1.214L12.93 7.62A.54.54 0 0 0 13 7.358a.3.3 0 0 0-.04-.14.54.54 0 0 0-.185-.178.34.34 0 0 0-.191-.067.3.3 0 0 0-.153.05.96.96 0 0 0-.32.356.5.5 0 0 1-.888 0 .96.96 0 0 0-.32-.356.3.3 0 0 0-.153-.05m-5.255 2.75c-.85 0-1.656.372-2.207 1.018a1.2 1.2 0 0 0-.288.78v.147C3 12.403 3.597 13 4.333 13h4.89c.736 0 1.333-.597 1.333-1.333v-.147c0-.286-.102-.562-.288-.78a2.9 2.9 0 0 0-2.207-1.018z" clip-rule="evenodd"/></svg>