<svg xmlns="http://www.w3.org/2000/svg" width="16" height="16" fill="none" class="persona-icon" viewBox="0 0 16 16"><path fill="currentColor" fill-rule="evenodd" d="M2.527 10.09a3.9 3.9 0 0 1 2.968-1.368H8.06c1.142 0 2.226.5 2.967 1.369a2.2 2.2 0 0 1 .528 1.429v.147A2.333 2.333 0 0 1 9.222 14H4.333A2.333 2.333 0 0 1 2 11.667v-.147c0-.524.187-1.03.527-1.43m2.968-.368c-.85 0-1.656.372-2.207 1.018a1.2 1.2 0 0 0-.288.78v.147C3 12.403 3.597 13 4.333 13h4.89c.736 0 1.333-.597 1.333-1.333v-.147c0-.286-.102-.562-.288-.78a2.9 2.9 0 0 0-2.207-1.018zM3.833 4.944a2.944 2.944 0 1 1 5.89 0 2.944 2.944 0 0 1-5.89 0M6.778 3a1.945 1.945 0 1 0 0 3.889 1.945 1.945 0 0 0 0-3.889m4.889 3.348a1.7 1.7 0 0 0-.256-.187 1.3 1.3 0 0 0-.646-.189 1.34 1.34 0 0 0-.746.225c-.466.298-.67.711-.685 1.123-.014.377.13.707.268.906q.029.04.065.075L11.32 9.89a.5.5 0 0 0 .693 0L13.666 8.3a.5.5 0 0 0 .065-.075c.138-.199.282-.529.268-.906-.015-.412-.219-.825-.685-1.123a1.34 1.34 0 0 0-.745-.225c-.25.004-.469.084-.647.189a1.7 1.7 0 0 0-.255.187m-.917.624a.3.3 0 0 1 .152.05c.135.08.257.233.321.356a.5.5 0 0 0 .887 0 .96.96 0 0 1 .32-.356.3.3 0 0 1 .154-.05c.038 0 .1.009.191.067a.54.54 0 0 1 .185.177.3.3 0 0 1 .04.141.54.54 0 0 1-.07.264l-1.263 1.214-1.264-1.214a.53.53 0 0 1-.07-.264.3.3 0 0 1 .04-.14.54.54 0 0 1 .185-.178.34.34 0 0 1 .192-.067" clip-rule="evenodd"/></svg>