<svg xmlns="http://www.w3.org/2000/svg" width="20" height="20" fill="none"><path fill="#000" fill-rule="evenodd" d="M4.313 6.203c0-2.045 1.683-3.703 3.76-3.703 2.076 0 3.76 1.658 3.76 3.703 0 2.046-1.684 3.704-3.76 3.704-2.077 0-3.76-1.658-3.76-3.704Zm3.76-2.371c-1.33 0-2.408 1.062-2.408 2.371 0 1.31 1.078 2.372 2.408 2.372 1.33 0 2.407-1.062 2.407-2.372 0-1.31-1.078-2.371-2.407-2.371ZM2.676 12.569a5 5 0 0 1 3.778-1.716h3.237a5 5 0 0 1 3.778 1.716c.437.503.676 1.143.676 1.805v.182c0 1.626-1.338 2.944-2.989 2.944H4.99C3.339 17.5 2 16.182 2 14.556v-.182c0-.662.24-1.302.676-1.805Zm9.765.865a3.639 3.639 0 0 0-2.75-1.25H6.454a3.639 3.639 0 0 0-2.75 1.25 1.435 1.435 0 0 0-.352.94v.182c0 .89.733 1.612 1.637 1.612h6.167c.904 0 1.637-.722 1.637-1.612v-.182c0-.345-.125-.678-.352-.94ZM14.712 7.297c.108.063.208.135.3.212.09-.077.19-.15.298-.212.23-.134.514-.236.838-.24.33-.006.657.09.966.285.6.378.865.905.885 1.432.018.48-.168.9-.346 1.152a.667.667 0 0 1-.088.1L15.48 12a.684.684 0 0 1-.936 0l-2.086-1.972a.667.667 0 0 1-.087-.1 1.93 1.93 0 0 1-.346-1.153c.02-.527.284-1.054.884-1.432.31-.195.637-.29.966-.286.324.005.608.107.838.24Zm-1.075 1.167a.393.393 0 0 1 .217-.076c.043 0 .099.014.17.055.16.093.31.278.388.425.116.22.347.358.6.358a.677.677 0 0 0 .599-.358c.078-.147.227-.332.387-.425a.35.35 0 0 1 .17-.055c.04 0 .109.008.217.076a.63.63 0 0 1 .218.205c.03.05.042.1.045.155a.611.611 0 0 1-.079.299l-1.558 1.473-1.558-1.473a.61.61 0 0 1-.078-.3.32.32 0 0 1 .044-.154.63.63 0 0 1 .218-.205Z" clip-rule="evenodd"/></svg>