<svg xmlns="http://www.w3.org/2000/svg" width="20" height="20" fill="none" class="persona-icon" viewBox="0 0 20 20"><path fill="currentColor" fill-rule="evenodd" d="M4.313 6.203c0-2.045 1.683-3.703 3.76-3.703s3.76 1.658 3.76 3.703-1.684 3.704-3.76 3.704c-2.077 0-3.76-1.658-3.76-3.704m3.76-2.371c-1.33 0-2.408 1.062-2.408 2.371 0 1.31 1.078 2.372 2.408 2.372s2.407-1.062 2.407-2.372-1.078-2.371-2.407-2.371M2.676 12.569a5 5 0 0 1 3.778-1.716h3.237a5 5 0 0 1 3.778 1.716c.437.503.676 1.143.676 1.805v.182c0 1.626-1.338 2.944-2.989 2.944H4.99C3.339 17.5 2 16.182 2 14.556v-.182c0-.662.24-1.302.676-1.805m9.765.865a3.64 3.64 0 0 0-2.75-1.25H6.454a3.64 3.64 0 0 0-2.75 1.25 1.44 1.44 0 0 0-.352.94v.182c0 .89.733 1.612 1.637 1.612h6.167c.904 0 1.637-.722 1.637-1.612v-.182c0-.345-.125-.678-.352-.94M14.712 7.297q.162.095.3.212.136-.118.298-.212c.23-.134.514-.236.838-.24.33-.006.657.09.966.285.6.378.865.905.885 1.432.018.48-.168.9-.346 1.152a.7.7 0 0 1-.088.1L15.48 12a.684.684 0 0 1-.936 0l-2.086-1.972a.7.7 0 0 1-.087-.1 1.93 1.93 0 0 1-.346-1.153c.02-.527.284-1.054.884-1.432.31-.195.637-.29.966-.286.324.005.608.107.838.24m-1.075 1.167a.6.6 0 0 0-.218.204.3.3 0 0 0-.044.156.6.6 0 0 0 .078.299l1.558 1.473 1.558-1.473a.6.6 0 0 0 .079-.3.3.3 0 0 0-.045-.155.6.6 0 0 0-.218-.204.4.4 0 0 0-.216-.076.35.35 0 0 0-.17.055c-.16.093-.31.277-.388.425a.68.68 0 0 1-.6.358.68.68 0 0 1-.6-.358 1.15 1.15 0 0 0-.387-.425.35.35 0 0 0-.17-.055.4.4 0 0 0-.217.076" clip-rule="evenodd"/></svg>