<svg xmlns="http://www.w3.org/2000/svg" width="20" height="20" fill="none" class="persona-icon" viewBox="0 0 20 20"><path fill="currentColor" fill-rule="evenodd" d="M3.599 12.405a4.58 4.58 0 0 1 3.486-1.608h2.986c1.341 0 2.615.588 3.486 1.608.402.471.624 1.07.624 1.69v.172a2.76 2.76 0 0 1-2.759 2.758H5.733a2.76 2.76 0 0 1-2.758-2.758v-.171c0-.62.221-1.22.624-1.691m1.51-5.96a3.47 3.47 0 1 1 6.938 0 3.47 3.47 0 0 1-6.939 0m9.158 1.575q.126-.108.275-.197c.213-.126.474-.221.774-.226.304-.004.606.085.891.268.554.354.798.848.817 1.342.017.45-.155.843-.32 1.08a.6.6 0 0 1-.08.095L14.7 12.229a.625.625 0 0 1-.866 0l-1.924-1.847a.6.6 0 0 1-.08-.095 1.83 1.83 0 0 1-.32-1.08c.018-.494.263-.988.816-1.342.286-.183.588-.272.892-.268.3.005.561.1.773.226q.15.089.276.197m-7.182 4.027c-.976 0-1.902.427-2.536 1.17-.209.245-.324.556-.324.879v.17c0 .834.675 1.509 1.508 1.509h5.69c.832 0 1.508-.675 1.508-1.508v-.171c0-.323-.115-.634-.325-.88a3.33 3.33 0 0 0-2.535-1.169zm1.493-7.822a2.22 2.22 0 1 0 0 4.439 2.22 2.22 0 0 0 0-4.44m4.621 4.622c-.035 0-.1.007-.199.071a.6.6 0 0 0-.2.191.3.3 0 0 0-.041.145.6.6 0 0 0 .072.279l1.436 1.378 1.436-1.378a.6.6 0 0 0 .072-.28.3.3 0 0 0-.041-.144.6.6 0 0 0-.2-.191c-.1-.064-.164-.071-.2-.07-.04 0-.09.012-.156.05a1.1 1.1 0 0 0-.357.398.625.625 0 0 1-1.108 0 1.1 1.1 0 0 0-.357-.397.3.3 0 0 0-.157-.052" clip-rule="evenodd"/></svg>