<svg xmlns="http://www.w3.org/2000/svg" width="20" height="20" fill="none" class="persona-icon" viewBox="0 0 20 20"><path fill="currentColor" fill-rule="evenodd" d="M3.599 12.405a4.58 4.58 0 0 1 3.486-1.608h2.986c1.341 0 2.615.588 3.486 1.608.402.471.624 1.07.624 1.69v.172a2.76 2.76 0 0 1-2.759 2.758H5.733a2.76 2.76 0 0 1-2.758-2.758v-.171c0-.62.221-1.22.624-1.691m1.51-5.96a3.47 3.47 0 1 1 6.938 0 3.47 3.47 0 0 1-6.939 0m9.158 1.575a2 2 0 0 0-.276-.197 1.56 1.56 0 0 0-.773-.226 1.6 1.6 0 0 0-.892.268c-.553.354-.798.848-.816 1.342-.017.45.155.843.32 1.08q.035.051.08.095l1.924 1.847a.625.625 0 0 0 .866 0l1.924-1.847a.6.6 0 0 0 .08-.095c.165-.237.337-.63.32-1.08-.019-.494-.263-.988-.817-1.342a1.6 1.6 0 0 0-.891-.268c-.3.005-.562.1-.774.226q-.15.089-.275.197m-7.182 4.027c-.976 0-1.902.427-2.536 1.17-.209.245-.324.556-.324.879v.17c0 .834.675 1.509 1.508 1.509h5.69c.832 0 1.508-.675 1.508-1.508v-.171c0-.323-.115-.634-.325-.88a3.33 3.33 0 0 0-2.535-1.169zm1.493-7.822a2.22 2.22 0 1 0 0 4.439 2.22 2.22 0 0 0 0-4.44m4.621 4.622c.04 0 .09.013.157.052.147.087.285.26.357.397a.625.625 0 0 0 1.108 0c.072-.138.21-.31.357-.397a.3.3 0 0 1 .156-.052c.036 0 .1.007.2.071a.6.6 0 0 1 .2.191.3.3 0 0 1 .04.145.6.6 0 0 1-.071.279l-1.436 1.378-1.436-1.378a.6.6 0 0 1-.072-.28.3.3 0 0 1 .04-.144.6.6 0 0 1 .201-.191c.1-.064.164-.071.199-.07" clip-rule="evenodd"/></svg>