<svg xmlns="http://www.w3.org/2000/svg" width="24" height="24" fill="none" class="persona-icon" viewBox="0 0 24 24"><path fill="currentColor" fill-rule="evenodd" d="M5.073 6.872A4.87 4.87 0 0 1 9.94 2a4.87 4.87 0 0 1 4.866 4.872 4.87 4.87 0 0 1-4.866 4.872 4.87 4.87 0 0 1-4.866-4.872M9.94 3.539a3.33 3.33 0 0 0-3.33 3.333c0 1.84 1.491 3.333 3.33 3.333a3.33 3.33 0 0 0 3.33-3.333c0-1.841-1.491-3.333-3.33-3.333M2.867 15.554a6.47 6.47 0 0 1 4.921-2.272h4.302c1.893 0 3.692.83 4.921 2.272.56.656.867 1.49.867 2.353v.247A3.844 3.844 0 0 1 14.037 22H5.842A3.844 3.844 0 0 1 2 18.154v-.247c0-.862.307-1.697.867-2.353m12.976 1a4.93 4.93 0 0 0-3.753-1.733H7.788a4.93 4.93 0 0 0-3.753 1.732 2.1 2.1 0 0 0-.498 1.354v.247a2.306 2.306 0 0 0 2.305 2.308h8.195a2.306 2.306 0 0 0 2.304-2.308v-.247c0-.496-.176-.976-.498-1.354M19.159 8.809a2.7 2.7 0 0 0-.464-.348c-.29-.172-.645-.3-1.05-.307-.41-.006-.82.115-1.21.366-.762.488-1.091 1.16-1.116 1.828a2.5 2.5 0 0 0 .437 1.478q.043.063.099.116l2.771 2.664a.77.77 0 0 0 1.064 0l2.772-2.664a1 1 0 0 0 .1-.116c.224-.324.46-.863.436-1.478-.025-.667-.354-1.34-1.115-1.828a2.17 2.17 0 0 0-1.211-.366 2.1 2.1 0 0 0-1.05.307 2.7 2.7 0 0 0-.463.348m-1.537.883c.085.002.181.028.291.093.24.142.453.413.564.626a.768.768 0 0 0 1.363 0c.11-.213.324-.484.564-.626a.6.6 0 0 1 .29-.093c.08 0 .197.019.36.123.347.223.403.438.409.591a.97.97 0 0 1-.13.49l-2.174 2.089-2.175-2.09a.97.97 0 0 1-.13-.489c.006-.153.062-.369.409-.59.163-.105.28-.125.36-.124" clip-rule="evenodd"/></svg>