<svg xmlns="http://www.w3.org/2000/svg" width="24" height="24" fill="none" class="persona-icon" viewBox="0 0 24 24"><path fill="currentColor" fill-rule="evenodd" d="M3.79 15.136a5.85 5.85 0 0 1 4.452-2.053h3.85c1.712 0 3.339.75 4.45 2.053.511.598.791 1.358.791 2.144v.22a3.5 3.5 0 0 1-3.5 3.5H6.5A3.5 3.5 0 0 1 3 17.5v-.22c0-.786.28-1.546.79-2.144m1.96-7.72a4.417 4.417 0 1 1 8.833 0 4.417 4.417 0 0 1-8.833 0M17.5 9.523q.174-.156.383-.28a1.96 1.96 0 0 1 .97-.284c.38-.005.759.107 1.118.337.699.447 1.004 1.067 1.028 1.685a2.3 2.3 0 0 1-.403 1.359 1 1 0 0 1-.096.113l-2.48 2.38a.75.75 0 0 1-1.04 0l-2.48-2.38a1 1 0 0 1-.096-.113 2.3 2.3 0 0 1-.403-1.36c.024-.617.329-1.237 1.028-1.684.36-.23.738-.342 1.118-.336.375.005.703.125.97.282q.21.126.383.281m-9.258 5.061a4.35 4.35 0 0 0-3.31 1.527c-.279.326-.432.741-.432 1.17v.22a2 2 0 0 0 2 2h7.333a2 2 0 0 0 2-2v-.22c0-.429-.153-.844-.431-1.17a4.35 4.35 0 0 0-3.31-1.527zM10.167 4.5a2.917 2.917 0 1 0 0 5.833 2.917 2.917 0 0 0 0-5.833m5.957 5.958a.5.5 0 0 0-.287.1.8.8 0 0 0-.277.266.45.45 0 0 0-.06.212.8.8 0 0 0 .104.396l1.896 1.82 1.896-1.82a.8.8 0 0 0 .104-.396.45.45 0 0 0-.06-.212.8.8 0 0 0-.277-.266.5.5 0 0 0-.287-.1.47.47 0 0 0-.23.075c-.201.119-.385.35-.48.534a.75.75 0 0 1-1.331 0c-.096-.184-.28-.415-.481-.534a.47.47 0 0 0-.23-.075" clip-rule="evenodd"/></svg>