<svg xmlns="http://www.w3.org/2000/svg" width="32" height="32" fill="none" class="persona-icon" viewBox="0 0 32 32"><path fill="currentColor" d="M6.792 9.12c0-3.379 2.71-6.118 6.052-6.118 3.343 0 6.053 2.739 6.053 6.117 0 3.379-2.71 6.117-6.053 6.117-3.342 0-6.052-2.738-6.052-6.117Zm6.052-4.096c-2.238 0-4.052 1.833-4.052 4.095 0 2.262 1.814 4.096 4.052 4.096 2.239 0 4.053-1.834 4.053-4.096s-1.814-4.095-4.053-4.095ZM4.084 19.892a7.997 7.997 0 0 1 6.108-2.847h5.304c2.35 0 4.583 1.04 6.109 2.847a4.593 4.593 0 0 1 1.081 2.963v.307c0 2.673-2.144 4.84-4.79 4.84H7.793c-2.646 0-4.79-2.167-4.79-4.84v-.307c0-1.086.384-2.137 1.082-2.963Zm16 1.312a6.006 6.006 0 0 0-4.588-2.138h-5.304a6.006 6.006 0 0 0-4.587 2.138 2.559 2.559 0 0 0-.603 1.651v.307c0 1.557 1.25 2.819 2.79 2.819h10.105c1.54 0 2.79-1.262 2.79-2.82v-.306c0-.605-.214-1.19-.603-1.65ZM24.213 11.459a3.417 3.417 0 0 0-.546-.408 2.646 2.646 0 0 0-1.32-.389c-.516-.008-1.031.146-1.522.463-.953.617-1.368 1.47-1.4 2.32-.029.78.266 1.46.548 1.871.038.055.081.106.13.153l3.417 3.316a.992.992 0 0 0 1.385 0l3.418-3.316c.048-.046.091-.098.129-.153.282-.41.577-1.092.548-1.871-.031-.85-.446-1.703-1.4-2.32-.49-.317-1.006-.47-1.523-.463-.509.008-.955.172-1.319.39-.2.118-.381.258-.545.407Zm-1.895 1.224a.67.67 0 0 1 .332.109c.285.17.542.497.676.757a.999.999 0 0 0 .887.543c.372 0 .714-.209.887-.543.133-.26.39-.588.675-.757a.67.67 0 0 1 .333-.109c.086-.001.22.02.414.145.413.267.473.52.48.693a1.16 1.16 0 0 1-.15.573l-2.64 2.56-2.639-2.56a1.16 1.16 0 0 1-.15-.573c.007-.174.067-.426.48-.693.194-.125.328-.146.415-.145Z"/></svg>