<svg xmlns="http://www.w3.org/2000/svg" width="16" height="16" fill="none" class="persona-icon" viewBox="0 0 16 16"><path fill="currentColor" fill-rule="evenodd" d="M9.453 4.205a1.19 1.19 0 0 0-1.336 0c-.376.248-.617.69-.617 1.196v1.15L3.953 4.205a1.19 1.19 0 0 0-1.336 0C2.24 4.453 2 4.895 2 5.401V10.6c0 .506.241.947.617 1.195.382.253.894.293 1.336 0L7.5 9.45v1.15c0 .506.241.947.617 1.195.382.253.894.292 1.336 0l3.93-2.6C13.811 8.914 14 8.438 14 8s-.19-.913-.617-1.196zM3 5.4c0-.186.086-.307.168-.362a.194.194 0 0 1 .233 0l3.93 2.6c.097.063.169.193.169.361 0 .169-.072.299-.168.362l-3.93 2.6a.194.194 0 0 1-.234 0C3.086 10.906 3 10.785 3 10.6zm5.5 0c0-.186.086-.307.168-.362a.194.194 0 0 1 .233 0l3.93 2.6c.097.063.169.192.169.361s-.072.298-.168.361l-3.93 2.6a.194.194 0 0 1-.234 0c-.082-.055-.168-.176-.168-.361z" clip-rule="evenodd"/></svg>