<svg xmlns="http://www.w3.org/2000/svg" width="20" height="20" fill="none" class="persona-icon" viewBox="0 0 20 20"><path fill="currentColor" fill-rule="evenodd" d="M11.704 5.826a1.46 1.46 0 0 0-1.582 0 1.64 1.64 0 0 0-.747 1.395v1.184l-4.07-2.579a1.46 1.46 0 0 0-1.583 0 1.64 1.64 0 0 0-.747 1.396v5.793c0 .598.298 1.111.747 1.396a1.46 1.46 0 0 0 1.582 0l4.071-2.578v1.182c0 .598.298 1.111.747 1.395a1.46 1.46 0 0 0 1.582 0l4.574-2.896c.996-.631.996-2.16 0-2.791zM4.225 7.222c0-.174.082-.287.166-.34a.21.21 0 0 1 .244 0L9.21 9.78c.096.06.166.182.166.34 0 .157-.07.278-.166.339l-4.574 2.897a.21.21 0 0 1-.244 0c-.084-.053-.166-.166-.166-.34zm6.4 0c0-.174.082-.287.166-.34a.21.21 0 0 1 .244 0l4.574 2.896c.096.061.166.182.166.34s-.07.279-.166.34l-4.574 2.896a.21.21 0 0 1-.244 0c-.084-.053-.166-.166-.166-.34z" clip-rule="evenodd"/></svg>