<svg xmlns="http://www.w3.org/2000/svg" width="24" height="24" fill="none" class="persona-icon" viewBox="0 0 24 24"><path fill="currentColor" fill-rule="evenodd" d="M2 8.183C2 6.59 3.725 5.593 5.105 6.39L11.25 9.94V8.183c0-1.593 1.725-2.59 3.105-1.792l6.61 3.816c1.38.797 1.38 2.789 0 3.586l-6.61 3.817c-1.38.796-3.105-.2-3.105-1.793v-1.756L5.105 17.61C3.725 18.406 2 17.41 2 15.817V8.183Zm2.355-.494a.57.57 0 0 0-.855.494v7.634a.57.57 0 0 0 .855.494l6.61-3.817a.57.57 0 0 0 0-.988L4.355 7.69Zm9.25 0a.57.57 0 0 0-.855.494v7.634a.57.57 0 0 0 .855.494l6.61-3.817a.57.57 0 0 0 0-.988l-6.61-3.817Z" clip-rule="evenodd"/></svg>