<svg xmlns="http://www.w3.org/2000/svg" width="32" height="32" fill="none" class="persona-icon" viewBox="0 0 32 32"><path fill="currentColor" fill-rule="evenodd" d="M15.5 11.179c0-1.952 2.071-3.403 3.878-2.295l7.86 4.821c1.683 1.032 1.683 3.558 0 4.59l-7.86 4.82c-1.807 1.109-3.878-.342-3.878-2.294v-2.073l-7.122 4.368C6.57 24.224 4.5 22.773 4.5 20.821V11.18c0-1.952 2.071-3.403 3.878-2.295l7.122 4.368zm0 4.821a.68.68 0 0 0-.308-.593L7.33 10.586a.48.48 0 0 0-.523 0 .68.68 0 0 0-.308.593v9.642c0 .288.141.49.308.593.162.1.345.11.523 0l7.86-4.821A.68.68 0 0 0 15.5 16m2.83-5.414a.48.48 0 0 0-.522 0 .68.68 0 0 0-.308.593v9.642c0 .288.141.49.308.593.162.1.345.109.523 0l7.86-4.821A.68.68 0 0 0 26.5 16a.68.68 0 0 0-.308-.593z" clip-rule="evenodd"/></svg>