<svg xmlns="http://www.w3.org/2000/svg" width="32" height="32" fill="none" class="persona-icon" viewBox="0 0 32 32"><path fill="currentColor" fill-rule="evenodd" d="m18.878 8.874 7.86 4.828c1.683 1.033 1.683 3.563 0 4.596l-7.86 4.828C17.07 24.236 15 22.782 15 20.828v-2.076l-7.122 4.374C6.07 24.236 4 22.783 4 20.828v-9.656c0-1.955 2.071-3.407 3.878-2.298L15 13.248v-2.076c0-1.955 2.071-3.408 3.878-2.298M15 16a.68.68 0 0 0-.308-.594L6.83 10.578a.48.48 0 0 0-.523 0 .68.68 0 0 0-.308.594v9.656c0 .289.141.491.308.594.162.1.345.109.523 0l7.86-4.828A.68.68 0 0 0 15 16m2-4.828v9.656c0 .288.141.49.308.594.162.099.345.109.523 0l7.86-4.829A.68.68 0 0 0 26 16a.68.68 0 0 0-.308-.594l-7.861-4.828a.48.48 0 0 0-.523 0 .68.68 0 0 0-.308.594" clip-rule="evenodd"/></svg>