<svg xmlns="http://www.w3.org/2000/svg" width="32" height="32" fill="none" class="persona-icon" viewBox="0 0 32 32"><path fill="currentColor" fill-rule="evenodd" d="M15 10.636c0-2.198 2.379-3.572 4.282-2.473l9.29 5.365c1.904 1.098 1.904 3.846 0 4.945l-9.29 5.364C17.38 24.936 15 23.562 15 21.364v-2.56l-8.718 5.033C4.38 24.937 2 23.562 2 21.365v-10.73c0-2.197 2.379-3.57 4.282-2.472L15 13.197v-2.561m-9.718-.74a.855.855 0 0 0-1.282.74v10.729a.855.855 0 0 0 1.282.74l9.29-5.364a.855.855 0 0 0 0-1.482l-9.29-5.364m13 0a.855.855 0 0 0-1.282.74v10.728a.855.855 0 0 0 1.282.741l9.29-5.364a.855.855 0 0 0 0-1.482l-9.29-5.364" clip-rule="evenodd"/></svg>