<svg xmlns="http://www.w3.org/2000/svg" width="16" height="16" fill="none" class="persona-icon" viewBox="0 0 16 16"><path fill="currentColor" fill-rule="evenodd" d="M8 3.369a4.1 4.1 0 0 0-1.128-1.127 3.36 3.36 0 0 0-1.907-.575c-.745.008-1.554.264-2.403.847a1 1 0 0 0-.056.045C1.31 3.66.896 4.949 1.021 6.255c.122 1.276.751 2.532 1.556 3.638.809 1.111 1.822 2.11 2.773 2.877.938.757 1.86 1.326 2.492 1.537a.5.5 0 0 0 .316 0c.632-.21 1.554-.78 2.492-1.537.95-.768 1.964-1.766 2.773-2.877.805-1.106 1.434-2.362 1.556-3.639.124-1.306-.288-2.593-1.485-3.695a1 1 0 0 0-.056-.045c-.85-.583-1.658-.838-2.403-.847a3.36 3.36 0 0 0-1.907.575c-.48.319-.86.728-1.128 1.127m-4.843-.05c.703-.476 1.311-.646 1.819-.652.515-.005.965.159 1.344.41.382.252.686.59.893.915.219.343.286.602.286.686v.003a.5.5 0 0 0 .832.374v-.001a.5.5 0 0 0 .17-.376c0-.084.067-.343.286-.686.207-.324.51-.663.893-.916.379-.25.829-.414 1.344-.409.507.006 1.116.176 1.819.652.943.881 1.234 1.852 1.14 2.84-.098 1.028-.617 2.113-1.368 3.145-.747 1.027-1.696 1.963-2.593 2.688C9.21 12.648 8.476 13.1 8 13.299c-.476-.199-1.21-.651-2.022-1.307-.897-.725-1.846-1.661-2.593-2.688-.75-1.032-1.27-2.117-1.368-3.144-.094-.99.197-1.96 1.14-2.841" clip-rule="evenodd"/></svg>