<svg xmlns="http://www.w3.org/2000/svg" width="20" height="20" fill="none" class="persona-icon" viewBox="0 0 20 20"><path fill="currentColor" fill-rule="evenodd" d="M10 4.629a4.8 4.8 0 0 1 1.254-1.23 3.9 3.9 0 0 1 2.202-.664c.861.01 1.792.305 2.767.974a1 1 0 0 1 .07.055c1.375 1.267 1.85 2.75 1.708 4.254-.14 1.468-.863 2.907-1.782 4.17-.924 1.27-2.082 2.41-3.167 3.285-1.07.864-2.125 1.517-2.854 1.76a.63.63 0 0 1-.396 0c-.729-.243-1.784-.896-2.854-1.76-1.085-.875-2.243-2.015-3.167-3.285C2.86 10.925 2.139 9.486 2 8.018c-.144-1.504.332-2.987 1.708-4.254a1 1 0 0 1 .07-.055c.974-.67 1.905-.965 2.766-.974s1.604.268 2.202.664c.528.349.948.793 1.254 1.23m-5.478.085c-1.06.991-1.384 2.078-1.278 3.186.11 1.155.695 2.381 1.548 3.552.847 1.164 1.923 2.227 2.941 3.049.912.736 1.732 1.244 2.267 1.47.535-.226 1.355-.734 2.267-1.47 1.018-.822 2.095-1.885 2.942-3.049.852-1.17 1.437-2.397 1.547-3.552.106-1.108-.219-2.195-1.278-3.186-.79-.534-1.472-.723-2.036-.73a2.63 2.63 0 0 0-1.499.457 3.5 3.5 0 0 0-1 1.026c-.247.387-.317.671-.317.752 0 .18-.077.35-.211.469l-.002.001a.625.625 0 0 1-1.039-.468v-.002c0-.08-.07-.365-.317-.752a3.5 3.5 0 0 0-1-1.026 2.63 2.63 0 0 0-1.5-.456c-.563.006-1.244.195-2.035.73" clip-rule="evenodd"/></svg>