<svg xmlns="http://www.w3.org/2000/svg" width="24" height="24" fill="none" class="persona-icon" viewBox="0 0 24 24"><path fill="currentColor" fill-rule="evenodd" d="M12 5.341a5.9 5.9 0 0 0-1.584-1.567A4.82 4.82 0 0 0 7.68 2.95c-1.07.011-2.228.378-3.442 1.212a1 1 0 0 0-.083.066C2.444 5.805 1.852 7.65 2.03 9.52c.175 1.826 1.074 3.62 2.221 5.196 1.153 1.585 2.599 3.008 3.953 4.102 1.337 1.079 2.652 1.892 3.559 2.194a.75.75 0 0 0 .474 0c.906-.302 2.222-1.115 3.559-2.194 1.354-1.094 2.8-2.517 3.953-4.102 1.147-1.576 2.047-3.37 2.22-5.196.179-1.871-.413-3.715-2.125-5.292a1 1 0 0 0-.084-.066c-1.213-.833-2.37-1.2-3.44-1.212a4.82 4.82 0 0 0-2.736.824A5.9 5.9 0 0 0 12 5.341m-6.867.027c.993-.672 1.851-.91 2.564-.918a3.32 3.32 0 0 1 1.891.575c.539.357.968.834 1.26 1.292.31.486.401.847.4.956v.003a.75.75 0 0 0 1.248.562l.002-.002a.75.75 0 0 0 .253-.563c0-.11.091-.47.402-.956.291-.458.72-.935 1.259-1.292a3.32 3.32 0 0 1 1.891-.575c.713.008 1.57.246 2.564.918 1.333 1.246 1.742 2.615 1.61 4.01-.14 1.452-.874 2.99-1.941 4.456-1.06 1.457-2.408 2.788-3.683 3.817-1.147.926-2.18 1.564-2.853 1.848-.672-.284-1.706-.922-2.853-1.848-1.275-1.03-2.622-2.36-3.683-3.817-1.067-1.466-1.802-3.004-1.94-4.456-.133-1.395.276-2.764 1.609-4.01" clip-rule="evenodd"/></svg>