<svg xmlns="http://www.w3.org/2000/svg" width="32" height="32" fill="none" class="persona-icon" viewBox="0 0 32 32"><path fill="currentColor" fill-rule="evenodd" d="M16.517 28.855a.97.97 0 0 1-1.013.01c-2.27-1.35-7.14-5.248-10.353-9.758-1.605-2.252-2.874-4.764-3.11-7.266-.243-2.587.633-5.06 3.096-7.06a.962.962 0 0 1 .053-.04c1.69-1.197 3.296-1.722 4.779-1.738 1.481-.017 2.76.475 3.792 1.18a8.349 8.349 0 0 1 2.241 2.306 8.347 8.347 0 0 1 2.24-2.306c1.033-.705 2.312-1.197 3.793-1.18 1.482.016 3.09.541 4.78 1.738a.962.962 0 0 1 .051.04c2.464 2 3.34 4.473 3.097 7.06-.236 2.502-1.505 5.014-3.11 7.266-3.204 4.498-8.059 8.389-10.336 9.748M17.57 7.787c-.435.704-.568 1.233-.568 1.402 0 .298-.123.582-.339.779l-.002.002a.973.973 0 0 1-1.073.167 1.038 1.038 0 0 1-.588-.944V9.19c0-.17-.133-.698-.568-1.402a6.334 6.334 0 0 0-1.773-1.875c-.752-.514-1.646-.85-2.67-.838-1.015.011-2.235.365-3.644 1.357-1.913 1.565-2.49 3.343-2.314 5.21.184 1.959 1.213 4.11 2.728 6.237 2.803 3.933 6.998 7.412 9.242 8.879 2.244-1.467 6.44-4.946 9.242-8.88 1.515-2.126 2.544-4.277 2.728-6.237.176-1.866-.401-3.644-2.314-5.209-1.41-.992-2.629-1.346-3.645-1.357-1.023-.012-1.917.324-2.67.838a6.335 6.335 0 0 0-1.772 1.875" clip-rule="evenodd"/></svg>