<svg xmlns="http://www.w3.org/2000/svg" width="40" height="40" fill="none" class="persona-ilustration" viewBox="0 0 40 40"><g clip-path="url(#5Di853tbNP_a)"><g clip-path="url(#5Di853tbNP_b)"><rect width="33.333" height="33.333" x="3.333" y="3.333" fill="#D3EDFF" rx="16.665"/><path fill="#A1DCAC" d="m7.487 37.922 1.877-4.893 1.485 5.542H8.032c-.345 0-.653-.367-.545-.649M9.14 32.192c-.47-1.753.62-3.175 2.436-3.175h15.19c1.816 0 3.668 1.422 4.138 3.175l.858 3.204c.47 1.754-.62 3.175-2.436 3.175H10.85z"/><path fill="#2FAB4E" d="M11.796 31.597c-.068-.253.09-.458.351-.458h14.856c.262 0 .53.205.597.458.068.253-.09.459-.352.459H12.393a.65.65 0 0 1-.598-.459M12.39 33.817c-.067-.253.09-.459.352-.459h14.856c.262 0 .53.206.597.459.068.253-.09.458-.352.458H12.988a.65.65 0 0 1-.597-.458M12.973 35.993c-.068-.254.09-.459.352-.459h5.402c.262 0 .53.205.598.459.067.253-.09.458-.352.458H13.57a.65.65 0 0 1-.598-.458"/><path fill="#3F568E" d="M24.83 31.711H6.772v25.074h28.895L26.883 33.14a2.19 2.19 0 0 0-2.054-1.429"/><path fill="#293A6E" d="M24.287 32.882H6.229v25.074h28.894L26.341 34.31a2.19 2.19 0 0 0-2.055-1.428"/></g><path fill="#80D6E2" d="M24.3 1.627a3.287 3.287 0 0 1 3.287 3.287v.17l2.263 1.359c.296.177.158.598-.195.598H9.826a2.707 2.707 0 0 1 0-5.414z"/><path fill="#08A0B4" d="M24.773 4.299a.475.475 0 0 0-.475-.475H10.585a.475.475 0 0 0 0 .95h13.713a.475.475 0 0 0 .475-.475"/><path fill="#FFC79D" d="m7.271 18.063.977-1.089v1.73h-.879c-.19 0-.26-.46-.098-.641"/><path fill="#FFC79D" d="M8.247 12.1a3.287 3.287 0 0 1 3.287-3.287h15.19a3.287 3.287 0 0 1 3.287 3.286v3.318a3.287 3.287 0 0 1-3.287 3.286H8.247z"/><path fill="#FF8D18" d="M11.062 11.483c0-.262.213-.474.475-.474h14.855a.475.475 0 0 1 0 .949H11.537a.475.475 0 0 1-.475-.475M11.062 13.78c0-.261.213-.474.475-.474h14.855a.475.475 0 1 1 0 .95H11.537a.475.475 0 0 1-.475-.475M11.062 16.034c0-.262.213-.474.475-.474h5.402a.475.475 0 0 1 0 .949h-5.402a.475.475 0 0 1-.475-.475M7.18 16.293a2.41 2.41 0 1 1-4.82 0 2.41 2.41 0 0 1 4.82 0"/><path fill="#F8F8F8" d="M5.705 15.58a.96.96 0 1 1-1.918 0 .96.96 0 0 1 1.918 0M2.991 17.92c.285-.55.974-.938 1.779-.938s1.494.388 1.779.938a2.4 2.4 0 0 1-1.779.783 2.4 2.4 0 0 1-1.779-.784"/><path fill="#A6B7FF" d="m7.636 26.687.881-1.085.15 1.723H7.79c-.19 0-.3-.458-.153-.639M8.335 23.525c-.158-1.809 1.185-3.274 3-3.274h15.191c1.815 0 3.415 1.465 3.573 3.274l.046.525c.159 1.809-1.185 3.275-3 3.275H8.668z"/><path fill="#375FE9" d="M11.082 22.748a.427.427 0 0 1 .434-.473H26.37c.262 0 .493.212.516.473a.427.427 0 0 1-.433.473H11.598a.527.527 0 0 1-.516-.473M11.283 25.037a.427.427 0 0 1 .433-.473h7.61c.262 0 .493.212.516.473a.427.427 0 0 1-.433.473h-7.61a.527.527 0 0 1-.516-.473M7.39 24.924c.117 1.326-.868 2.401-2.2 2.401-1.33 0-2.504-1.075-2.62-2.401s.87-2.401 2.2-2.401c1.332 0 2.505 1.075 2.62 2.401"/><path fill="#F8F8F8" d="M5.853 24.213a.863.863 0 0 1-.875.955c-.53 0-.997-.427-1.043-.955a.863.863 0 0 1 .875-.956c.53 0 .997.428 1.043.956M3.343 26.544c.237-.548.892-.934 1.697-.934s1.529.386 1.861.934c-.399.48-1.006.78-1.71.78a2.64 2.64 0 0 1-1.848-.78"/></g><defs><clipPath id="5Di853tbNP_a"><path fill="#fff" d="M0 0h40v40H0z"/></clipPath><clipPath id="5Di853tbNP_b"><rect width="33.333" height="33.333" x="3.333" y="3.333" fill="#fff" rx="16.665"/></clipPath></defs></svg>