<svg xmlns="http://www.w3.org/2000/svg" width="240" height="240" fill="none" class="persona-ilustration" viewBox="0 0 240 240"><g clip-path="url(#4bkVtce6HX_a)"><g clip-path="url(#4bkVtce6HX_b)"><rect width="200" height="200" x="20.001" y="20" fill="#D3EDFF" rx="100"/><path fill="#80D6E2" d="M236.5 169.261c-10.495-21.727-42.039-19.396-51.586-32.335-18.179 2.389-51.56-.574-69.191 4.529-17.631 5.104-47.382 63.43-55.405 77.736 2.997 3.577 9.831 19.633 51.357 44.224s97.035-11.862 134.098-33.525c-4.34-13.412 8.422-23.996-9.273-60.629"/><path fill="#0EB0C6" d="M233.712 156.496c-3.486-4.131-8.144-7.035-13.238-9.306-7.715 4.255-14.398 7.525-16.64 7.525-1.085 0-3.301.478-6.369 1.14-13.949 3.008-45.509 9.816-68.406-7.237-.857-.638-1.782-1.388-2.745-2.168-5.296-4.291-11.742-9.512-14.22-2.211.461-2.397-13.992 2.816-7.96 6.172 3.174 1.766 8.157 5.223 13.612 9.008 7.841 5.439 16.658 11.557 22.486 14.306 9.884 4.663 47.701 17.934 69.188 7.891 9.267-4.331 17.701-14.555 24.292-25.12"/><path fill="#0EB0C6" fill-rule="evenodd" d="M117.101 177.146a1.2 1.2 0 0 1 .582 1.595c-2.723 5.855-8.833 23.271-11.156 45.498a1.2 1.2 0 1 1-2.387-.25c2.35-22.485 8.529-40.159 11.367-46.261a1.2 1.2 0 0 1 1.594-.582" clip-rule="evenodd"/><path fill="#A1DCAC" d="m21.123 156.12 6.852-17.867 5.422 20.235H23.112c-1.26 0-2.384-1.339-1.99-2.368M27.157 135.198c-1.715-6.402 2.267-11.592 8.894-11.592h55.461c6.628 0 13.391 5.19 15.106 11.592l3.135 11.699c1.715 6.401-2.267 11.591-8.894 11.591H33.398z"/><path fill="#2FAB4E" d="M36.853 133.026c-.248-.925.327-1.674 1.284-1.674h54.238c.957 0 1.933.749 2.18 1.674s-.327 1.674-1.284 1.674H39.035c-.957 0-1.933-.75-2.181-1.674M39.024 141.129c-.247-.925.328-1.674 1.285-1.674h54.237c.957 0 1.933.749 2.181 1.674s-.327 1.674-1.284 1.674H41.206c-.957 0-1.934-.75-2.182-1.674M41.153 149.075c-.247-.924.328-1.674 1.285-1.674H62.16c.957 0 1.934.75 2.181 1.674.248.925-.327 1.674-1.284 1.674H43.335c-.958 0-1.934-.749-2.182-1.674"/><path fill="#3F568E" d="M84.444 133.441H18.515v91.544H124.01l-32.066-86.329a8 8 0 0 0-7.499-5.215"/><path fill="#293A6E" d="M82.458 137.717H16.53v91.544h105.494l-32.065-86.329a8 8 0 0 0-7.5-5.215"/><path fill="#FFC7B6" d="m218.666 267.739-85.482-67.744-12.762 24.156c22.396 25.326 70.386 77.069 83.183 81.432 15.996 5.454 26.726 3.774 31.305-4.513 5.617-10.165-9.606-28.772-16.244-33.331"/><path fill="#FFC7B6" d="m109.172 185.413 21.723 12.607c9.743 5.85 4.978 28.351 0 31.842-5.56-1.099-34.89-7.751-36.752-9.302-2.328-1.94-2.154-17.61 2.983-28.924 3.112-6.853 1.507-9.391 3.318-10.102z"/><path fill="#000" fill-opacity=".5" fill-rule="evenodd" d="M137.057 205.222a.8.8 0 0 1 .834.764c.12 2.742-.543 6.492-1.958 10.355-1.418 3.871-3.613 7.919-6.608 11.238a.8.8 0 0 1-1.188-1.072c2.831-3.136 4.93-6.994 6.294-10.717 1.366-3.73 1.97-7.264 1.862-9.734a.8.8 0 0 1 .764-.834" clip-rule="evenodd" style="mix-blend-mode:overlay"/><mask id="4bkVtce6HX_c" width="41" height="21" x="66" y="173" maskUnits="userSpaceOnUse" style="mask-type:alpha"><path fill="#FFC7B6" d="m106.105 184.06-16.948-7.512c-5.547-1.324-17.458-3.613-20.723-2.173s-1.994 4.191-.95 5.387c1.043 1.196 16.701 5.015 16.701 5.015 3.642 2.13 11.675 6.722 14.678 8.058s6.08-5.293 7.242-8.775"/></mask><g mask="url(#4bkVtce6HX_c)"><path fill="#FFC7B6" d="m106.105 184.06-16.948-7.512c-5.547-1.324-17.458-3.613-20.723-2.173s-1.994 4.191-.95 5.387c1.043 1.196 16.701 5.015 16.701 5.015 3.642 2.13 11.675 6.722 14.678 8.058s6.08-5.293 7.242-8.775"/><path fill="#000" d="m99.948 193.136-14.197-10.319c-5.548-1.324-24.208-2.267-15.386-10.324-7.608.431-6.348 11.594-5.305 12.79s16.702 5.015 16.702 5.015c3.641 2.13 11.674 6.723 14.678 8.058 3.004 1.336 4.325-2.593 3.508-5.22" opacity=".5" style="mix-blend-mode:overlay"/></g><mask id="4bkVtce6HX_d" width="46" height="22" x="56" y="182" maskUnits="userSpaceOnUse" style="mask-type:alpha"><path fill="#FFC7B6" d="m77.788 185.022 24.115 7.422c-.034 4.526-3.698 9.036-5.525 10.725l-21.345-8.405c-3.936-1.462-12.564-4.694-15.588-5.919-3.78-1.532-3.194-3.582-2.652-5.284.434-1.362 4.026-1.328 5.767-1.141z"/></mask><g mask="url(#4bkVtce6HX_d)"><path fill="#FFC7B6" d="m77.788 185.022 24.115 7.422c-.034 4.526-3.698 9.036-5.525 10.725l-21.345-8.405c-3.936-1.462-12.564-4.694-15.588-5.919-3.78-1.532-3.194-3.582-2.652-5.284.434-1.362 4.026-1.328 5.767-1.141z"/><path fill="#000" d="m60.824 187.745 15.57 5.406 16.506 7.593 3.824 2.717c-.622 4.473-3.182 7.073-5.23 8.589l-20.256-10.121c-3.747-1.78-11.956-5.707-14.822-7.175-3.581-1.835-3.326-16.083 5.462-15.486-3.468 3.388-6.497 6.195-1.054 8.477" opacity=".5" style="mix-blend-mode:overlay"/></g><mask id="4bkVtce6HX_e" width="45" height="26" x="62" y="192" maskUnits="userSpaceOnUse" style="mask-type:alpha"><path fill="#FFC7B6" d="m83.429 197.188 23.193 9.934c-.513 4.496-4.633 8.593-6.63 10.08l-20.335-10.618c-3.759-1.871-11.996-5.998-14.873-7.537-3.597-1.923-2.797-3.9-2.078-5.535.576-1.308 4.144-.894 5.856-.524z"/></mask><g mask="url(#4bkVtce6HX_e)"><path fill="#FFC7B6" d="m83.429 197.188 23.193 9.934c-.513 4.496-4.633 8.593-6.63 10.08l-20.335-10.618c-3.759-1.871-11.996-5.998-14.873-7.537-3.597-1.923-2.797-3.9-2.078-5.535.576-1.308 4.144-.894 5.856-.524z"/><path fill="#000" d="m66.271 198.1 14.911 7.024 15.61 9.298 3.514 3.107c-1.092 4.381-3.913 6.696-6.11 7.986l-19.071-12.208c-3.537-2.167-11.285-6.941-13.978-8.705-3.368-2.204-1.605-16.344 7.07-14.82-3.807 3.002-7.116 5.472-1.946 8.318" opacity=".5" style="mix-blend-mode:overlay"/></g><mask id="4bkVtce6HX_f" width="32" height="20" x="69" y="202" maskUnits="userSpaceOnUse" style="mask-type:alpha"><path fill="#FFC7B6" d="m79.07 214.083 17.066 7.373c2.111-1.351 4.536-3.515 4.025-5.637l-15.922-6.913c-3.114-2.002-9.826-6.127-11.758-6.606-2.415-.598-2.99 1.641-2.74 3.726.2 1.669 6.302 6.067 9.329 8.057"/></mask><g mask="url(#4bkVtce6HX_f)"><path fill="#FFC7B6" d="m79.07 214.084 17.164 8.15c2.112-1.351 3.717-4.593 3.205-6.714l-15.2-6.613c-3.114-2.002-9.826-6.127-11.758-6.606-2.415-.598-2.99 1.641-2.74 3.726.2 1.669 6.302 6.067 9.329 8.057"/><path fill="#000" d="m78.429 218.761 15.942 9.884c2.112-1.351 2.119-5.843 1.104-8.053l-14.592-6.881c-3.114-2.003-8.479-4.638-12.01-9.975-2.415-.599-.023 4.883.227 6.968.199 1.668 6.302 6.067 9.329 8.057" opacity=".5" style="mix-blend-mode:overlay"/></g></g><path fill="#DEDEDE" d="M133.262 19.88c4.476-9.847 11.093-13.58 15.047-14.252l2.41 12.686-25.29 21.485c.746-2.536 3.357-10.07 7.833-19.918"/><path fill="#000" d="M146.228 83.712s2.295 28.741-2.853 40.689c-5.048 11.721 36.961-4.967 36.961-4.967s6.903-13.978 9.945-45.098-44.062 9.37-44.062 9.37z"/><path fill="#FFC7B6" d="M146.228 83.712s2.295 28.741-2.853 40.689c-5.048 11.721 36.961-4.967 36.961-4.967s6.903-13.978 9.945-45.098-44.062 9.37-44.062 9.37z"/><path fill="#000" fill-opacity=".5" d="M191.729 78.996s-10.7 29.14-26.383 32.947-31.105-8.4-31.105-8.4l51.649-34.234z" style="mix-blend-mode:overlay"/><path fill="#FFC7B6" d="M153.695 8.593c-13.546 4.56-28.484 15.941-31.157 45.222-2.299 25.179 2.399 31.974 15.577 48.516 10.299 9.511 38.409-2.028 44.751-18.477 7.384-19.151 22.736-29.732 18.934-46.417C198.643 23.58 177.168.686 153.692 8.58z"/><path fill="#411917" d="M150.145 58.338c1.63.257 3.228-1.297 3.571-3.47s-.701-4.142-2.331-4.398c-1.629-.257-3.228 1.296-3.57 3.469-.343 2.172.701 4.142 2.33 4.399"/><path fill="#411917" fill-rule="evenodd" d="M167.264 48.923a.977.977 0 0 1-.526 1.277l-3.463 1.444a.976.976 0 0 1-1.173-.337l-.001-.001-.011-.016-.052-.07a12.704 12.704 0 0 0-1.092-1.232c-.764-.758-1.847-1.65-3.155-2.25-1.298-.595-2.797-.896-4.446-.524-1.652.373-3.565 1.448-5.641 3.807a.976.976 0 0 1-1.466-1.29c2.275-2.584 4.528-3.936 6.677-4.421 2.154-.487 4.093-.078 5.69.654 1.586.728 2.854 1.783 3.716 2.639.364.36.661.691.884.955l2.782-1.16a.977.977 0 0 1 1.277.525" clip-rule="evenodd"/><path fill="#411917" d="M164.349 42.287c-4.568-1.583-9.674-3.39-14.545-2.713-2.223.291-2.713-3.013-.501-3.38 5.69-.202 10.778 2.178 15.837 4.438 1.049.548.29 2.131-.797 1.663zM123.047 41.652c2.346-2.423 4.815-4.92 8.052-6.01 1.353-.457 3.337-.825 3.667 1.148.137 1.09-.838 2.05-1.925 1.902-.999-.049-2.233.251-3.167.676a29.5 29.5 0 0 0-5.333 3.575c-.842.744-2.043-.456-1.302-1.296zM130.951 58.291c1.207-.041 2.128-1.735 2.058-3.782s-1.105-3.674-2.312-3.632-2.129 1.734-2.058 3.782c.07 2.047 1.105 3.673 2.312 3.632"/><path fill="#411917" fill-rule="evenodd" d="m137.533 50.744-.85.466za.976.976 0 0 1-1.712.94v-.002l-.01-.016-.04-.07a12.288 12.288 0 0 0-.842-1.221c-.594-.755-1.417-1.617-2.395-2.186-.959-.559-2.021-.815-3.186-.47-1.193.352-2.662 1.382-4.302 3.764a.977.977 0 0 1-1.608-1.107c1.781-2.587 3.577-4.004 5.357-4.53 1.809-.534 3.428-.098 4.722.656 1.276.743 2.278 1.816 2.947 2.667a14 14 0 0 1 .99 1.437l.056.097.016.028.004.01z" clip-rule="evenodd"/><path fill="#000" fill-opacity=".5" d="M143.2 69.676s1.761-.882.685-1.744c-1.075-.86-4.233-1.493-5.717-1.46-2.701.08-5.457 2.39-4.046 2.964s3.151 1.337 9.078.24" style="mix-blend-mode:overlay"/><path fill="#411917" fill-rule="evenodd" d="M139.164 54.525a.754.754 0 0 0-1.031.274c-.262.45-.612 1.01-1.004 1.635-.752 1.198-1.654 2.636-2.368 4.01-.553 1.064-1.033 2.159-1.285 3.173-.246.996-.306 2.047.159 2.92.723 1.358 1.501 2.145 2.362 2.692.42.266.843.465 1.253.642q.24.103.462.196c.251.104.494.206.758.328a.754.754 0 1 0 .63-1.371c-.283-.13-.575-.253-.845-.365l-.406-.172a7.3 7.3 0 0 1-1.043-.532c-.619-.393-1.227-.975-1.84-2.127-.203-.382-.24-.983-.025-1.848.209-.845.628-1.819 1.159-2.84.693-1.335 1.512-2.638 2.239-3.795.408-.649.787-1.252 1.098-1.789a.754.754 0 0 0-.273-1.03" clip-rule="evenodd"/><mask id="4bkVtce6HX_g" width="17" height="10" x="140" y="77" maskUnits="userSpaceOnUse" style="mask-type:alpha"><path fill="#411917" d="m140.877 80.245 15.79-2.839c-.246 2.044.794 7.314-8.911 9.106-4.833.893-7.57-3.846-6.879-6.267"/></mask><g mask="url(#4bkVtce6HX_g)"><path fill="#411917" d="m140.877 80.246 15.79-2.839c-.246 2.044.794 7.314-8.911 9.106-4.833.892-7.57-3.846-6.879-6.267"/><path fill="#F8F8F8" d="M139.994 81.492c5.709.8 15.262-2.07 17.793-2.762l.316-2.125-18.88 2.01c-.301-.068-.324 1.06.771 2.877"/><path fill="#EA4F4A" d="M143.558 86.04c.094 1.285 2.787 2.136 6.015 1.9 3.228-.235 5.769-1.467 5.675-2.752-.093-1.286-2.786-2.137-6.014-1.901-3.229.235-5.77 1.468-5.676 2.753"/></g><path fill="#F18513" d="M129.522 28.713s23.422-22.111 43.477 3.45c14.288 7.128 17.682 25.545 23.182 25.787 5.499.242 6.971.716 6.971.716s7.216-18.67 3.707-29.702c-3.512-11.045-34.413-16.696-45.516-21.381-14.623-2.767-27.727 12.884-31.821 21.13"/><path fill="#DEDEDE" d="M137.681 101.898c13.094 7.419 29.189-1.182 35.6-6.41-.5 1.182-2.264 4.446-5.319 8.047s-9.73 5.502-12.685 6.002c-3.32-.091-11.485-1.746-17.596-7.639"/><path fill="#EFEFEF" d="M176.461 38.835c11.17 20.016.716 48.02-5.908 59.52-12.673 15.591-27.299 8.778-33.028 3.423-3.848 4.653-8.861 14.696 1.88 17.645-8.593 2.318-14.107-.924-9.761 6.431-4.958 1.431-15.442 7.371-21.73 14.198.67 3.746 1.408 4.74 2.127 8.123 4.735 1.95 12.072 9.58 21.04 16.021 50.342 36.151 128.778-11.011 94.785-55.307 2.148-2.37 6.283-12.536 5.639-34.238s-14.768-34.15-21.749-37.661v-5.267c0-1.493-3.706-7.058-18.528-17.382S157.905.359 144.517 6.894c5.281 2.458 20.773 11.925 31.944 31.94"/><path fill="#DEDEDE" d="M143.364 125.892c-6.917-.22-11.714-3.553-13.498-5.199 2.259-.263 6.345-.532 9.638-1.3 4.502 6.587 16.943 4.258 22.798 2.108-3.431 1.555-12.022 4.611-18.938 4.391"/><path fill="#DEDEDE" fill-rule="evenodd" d="M129.19 125.739a.63.63 0 0 0 .178.871c1.678 1.108 4.617 2.692 8.028 3.877 3.405 1.183 7.341 1.99 10.987 1.48a.63.63 0 0 0-.175-1.245c-3.366.471-7.084-.271-10.399-1.422-3.308-1.149-6.154-2.685-7.748-3.739a.63.63 0 0 0-.871.178M211.504 124.868a.63.63 0 0 0-.686-.565c-3.192.31-6.345 1.364-9.236 3.476-11.146 8.146-16.335 12.529-17.555 13.726a.629.629 0 1 0 .88.897c1.148-1.126 6.268-5.461 17.416-13.608 2.691-1.966 5.625-2.949 8.616-3.24a.63.63 0 0 0 .565-.686M175.425 114.698a.63.63 0 0 0-.858-.232c-10.763 6.185-18.785 8.339-24.408 8.502-5.639.163-8.792-1.669-9.993-3.357a.63.63 0 0 0-1.025.728c1.532 2.153 5.173 4.055 11.054 3.885 5.898-.171 14.124-2.419 24.998-8.668a.63.63 0 0 0 .232-.858M231.508 78.173a.63.63 0 0 0-.862.218c-1.711 2.87-4.952 7.554-9.097 12.238-4.149 4.69-9.169 9.34-14.431 12.184-5.426 2.932-12.189 8.403-18.413 14.014-6.236 5.621-11.972 11.422-15.353 15.052a.629.629 0 0 0 .92.857c3.359-3.606 9.069-9.381 15.274-14.975 6.216-5.604 12.885-10.986 18.17-13.842 5.447-2.945 10.581-7.718 14.774-12.457 4.198-4.743 7.486-9.491 9.236-12.427a.63.63 0 0 0-.218-.862M209.977 38.051a.63.63 0 0 0-.636.622c-.044 3.907-1.42 9.275-3.724 15.553-2.299 6.262-5.5 13.37-9.146 20.735-4.043 8.166-8.423 14.947-12.318 20.014-3.91 5.086-7.295 8.396-9.337 9.674a.629.629 0 0 0 .667 1.066c2.239-1.402 5.735-4.86 9.666-9.974 3.946-5.132 8.369-11.983 12.448-20.222 3.657-7.387 6.879-14.54 9.2-20.86 2.314-6.305 3.754-11.84 3.801-15.972a.63.63 0 0 0-.621-.636" clip-rule="evenodd"/><path fill="#DEDEDE" d="M204.405 98.002c7.22-6.356 27.274-24.657 21.762-43.641 4.306 6.93 6.173 18.278 5.435 24.086-6.518 2.281-14.119 13.8-27.197 19.555"/><path fill="#B08686" fill-rule="evenodd" d="M167.717 48.312c.149.68.289 1.995.203 3.545-.092 1.667-.441 3.531-1.261 5.12-2.633 5.097-8.154 6.91-15.191 5.41-3.164-.673-8.347-4.827-8.469-14.155 6.118-5.292 11.623-6.33 15.998-5.566 4.39.766 6.941 3.449 8.72 5.646m-8.464-7.116c-4.943-.863-10.986.399-17.496 6.14a.75.75 0 0 0-.253.56c0 10.141 5.645 15.097 9.653 15.951 7.368 1.57 14.566-.321 17.637-6.267.951-1.84 1.327-3.933 1.426-5.723.099-1.785-.076-3.343-.284-4.148a.7.7 0 0 0-.136-.275c-1.933-2.455-5.643-5.382-10.547-6.238" clip-rule="evenodd"/><path fill="#B08686" fill-rule="evenodd" d="M138.198 45.222c-1.495.345-2.709 1.49-3.372 2.386l1.199.888c.557-.753 1.5-1.587 2.508-1.82a2.23 2.23 0 0 1 1.488.15c.518.242 1.103.729 1.7 1.636l1.246-.82c-.705-1.072-1.483-1.78-2.316-2.168a3.73 3.73 0 0 0-2.453-.252" clip-rule="evenodd"/><path fill="#B08686" fill-rule="evenodd" d="M119.441 48.121c-.099.695-.192 2.063-.137 3.669.058 1.693.278 3.596.798 5.22.839 2.622 2.223 4.295 3.839 5.155 1.613.858 3.557.96 5.627.247.837-.288 2.121-1.413 3.208-3.807 1.053-2.322 1.875-5.75 1.902-10.473-1.878-2.629-3.633-4.167-5.207-4.966-1.595-.809-3.03-.874-4.298-.517-2.562.722-4.615 3.231-5.732 5.472m10.705-6.285c1.902.965 3.875 2.763 5.889 5.63a.75.75 0 0 1 .136.43c0 5.008-.859 8.73-2.037 11.325-1.162 2.562-2.684 4.122-4.081 4.602-2.391.822-4.774.744-6.813-.341-2.037-1.084-3.632-3.118-4.559-6.017-.578-1.806-.808-3.86-.868-5.624s.047-3.291.171-4.064a.7.7 0 0 1 .066-.209c1.176-2.412 3.509-5.45 6.718-6.355 1.637-.461 3.457-.352 5.378.623" clip-rule="evenodd"/><path fill="#B08686" d="M171.779 47.209h8.093l.374 1.762h-8.467zM121.885 47.838a.63.63 0 0 0-.629-.629h-2.478a.63.63 0 0 0-.628.628v2.313c0 .348.281.629.628.629h2.478a.63.63 0 0 0 .629-.629z"/><path fill="#B08686" d="M120.018 47.838c0-.347.281-.628.628-.629h2.744l-.281 1.762h-2.463a.63.63 0 0 1-.628-.628zM172.868 47.838a.63.63 0 0 0-.628-.629h-2.478a.63.63 0 0 0-.629.628v2.313c0 .348.282.629.629.629h2.478a.63.63 0 0 0 .628-.629z"/><path fill="#80D6E2" d="M82.513 23.602c6.627 0 12 5.373 12 12v.622l8.26 4.961c1.08.648.579 2.185-.713 2.185H29.666c-5.459 0-9.884-4.425-9.884-9.884s4.426-9.884 9.884-9.884z"/><path fill="#08A0B4" d="M84.235 33.355c0-.957-.776-1.733-1.733-1.733H32.436a1.733 1.733 0 1 0 0 3.466h50.066c.957 0 1.733-.776 1.733-1.733"/><path fill="#FFC79D" d="m20.337 83.613 3.565-3.975v6.313h-3.208c-.695 0-.95-1.676-.357-2.338M23.902 61.839c0-6.628 5.372-12 12-12h55.46c6.628 0 12.001 5.372 12.001 12V73.95c0 6.627-5.373 12-12 12H23.902z"/><path fill="#FF8D18" d="M34.18 59.59c0-.956.775-1.732 1.732-1.732h54.237a1.733 1.733 0 1 1 0 3.466H35.912a1.733 1.733 0 0 1-1.733-1.733M34.18 67.98c0-.957.775-1.733 1.732-1.733h54.237a1.733 1.733 0 1 1 0 3.466H35.912a1.733 1.733 0 0 1-1.733-1.733M34.18 76.206c0-.957.775-1.732 1.732-1.732h19.724a1.733 1.733 0 1 1 0 3.465H35.912a1.733 1.733 0 0 1-1.733-1.733M20.005 77.15a8.8 8.8 0 1 1-17.6 0 8.8 8.8 0 0 1 17.6 0"/><path fill="#F8F8F8" d="M14.619 74.547a3.502 3.502 0 1 1-7.004 0 3.502 3.502 0 0 1 7.004 0M4.71 83.088c1.04-2.007 3.555-3.423 6.494-3.423 2.94 0 5.456 1.416 6.496 3.423a8.78 8.78 0 0 1-6.495 2.862 8.78 8.78 0 0 1-6.495-2.862"/><path fill="#A6B7FF" d="m21.667 115.098 3.218-3.96.55 6.289h-3.207c-.695 0-1.097-1.67-.56-2.329M24.222 103.553c-.578-6.602 4.327-11.954 10.954-11.954h55.461c6.627 0 12.468 5.352 13.046 11.954l.168 1.92c.577 6.602-4.327 11.954-10.954 11.954H25.436z"/><path fill="#375FE9" d="M34.251 100.716a1.56 1.56 0 0 1 1.582-1.726H90.07c.957 0 1.8.773 1.884 1.726a1.56 1.56 0 0 1-1.582 1.726H36.135c-.957 0-1.8-.773-1.884-1.726M34.982 109.072a1.56 1.56 0 0 1 1.582-1.726h27.784c.957 0 1.8.773 1.884 1.726a1.56 1.56 0 0 1-1.582 1.727H36.866c-.957 0-1.8-.773-1.884-1.727M20.772 108.661c.424 4.841-3.173 8.766-8.033 8.766s-9.143-3.925-9.567-8.766 3.173-8.767 8.033-8.767 9.144 3.925 9.567 8.767"/><path fill="#F8F8F8" d="M15.16 106.065c.168 1.927-1.264 3.489-3.198 3.489s-3.638-1.562-3.807-3.489c-.168-1.926 1.263-3.488 3.197-3.488s3.639 1.562 3.807 3.488M5.995 114.574c.864-1.999 3.257-3.409 6.196-3.409 2.94 0 5.58 1.41 6.793 3.41-1.456 1.752-3.673 2.851-6.245 2.851s-4.982-1.099-6.744-2.852"/></g><defs><clipPath id="4bkVtce6HX_a"><path fill="#fff" d="M0 0h240v240H0z"/></clipPath><clipPath id="4bkVtce6HX_b"><rect width="200" height="200" x="20.001" y="20" fill="#fff" rx="100"/></clipPath></defs></svg>