<svg xmlns="http://www.w3.org/2000/svg" width="16" height="16" fill="none" class="persona-icon" viewBox="0 0 16 16"><path fill="currentColor" fill-rule="evenodd" d="M3.89 4.944a2.944 2.944 0 1 1 5.89 0 2.944 2.944 0 0 1-5.89 0m6.054-1.833a.5.5 0 0 1 .5-.5 2.333 2.333 0 1 1 0 4.667.5.5 0 0 1 0-1 1.333 1.333 0 0 0 0-2.667.5.5 0 0 1-.5-.5m-7.41 6.94a3.95 3.95 0 0 1 3.002-1.384h2.599c1.155 0 2.252.505 3.001 1.384.344.402.533.914.533 1.443v.173A2.333 2.333 0 0 1 9.335 14h-5a2.333 2.333 0 0 1-2.333-2.333v-.173c0-.529.189-1.04.532-1.443m8.644-.933a.5.5 0 0 1 .593-.385l.313.067c.659.14 1.24.525 1.628 1.076l.037.053a1.38 1.38 0 0 1-.33 1.92l-.317.225a.5.5 0 0 1-.58-.815l.318-.225a.38.38 0 0 0 .09-.53l-.037-.053a1.67 1.67 0 0 0-1.018-.673l-.312-.067a.5.5 0 0 1-.385-.593M6.835 3a1.944 1.944 0 1 0 0 3.889 1.944 1.944 0 0 0 0-3.889m-1.3 6.667c-.862 0-1.68.377-2.24 1.033a1.22 1.22 0 0 0-.293.794v.173c0 .736.597 1.333 1.333 1.333h5c.737 0 1.334-.597 1.334-1.333v-.173c0-.291-.104-.573-.293-.794a2.95 2.95 0 0 0-2.241-1.033z" clip-rule="evenodd"/></svg>