<svg xmlns="http://www.w3.org/2000/svg" width="20" height="20" fill="none" class="persona-icon" viewBox="0 0 20 20"><path fill="currentColor" fill-rule="evenodd" d="M3.607 12.358a4.64 4.64 0 0 1 3.525-1.625h3.025c1.356 0 2.644.594 3.525 1.625a2.63 2.63 0 0 1 .63 1.708v.2a2.76 2.76 0 0 1-2.758 2.76H5.735a2.76 2.76 0 0 1-2.758-2.76v-.2c0-.626.223-1.232.63-1.708l.47.401zm3.525-.375c-.99 0-1.931.434-2.574 1.187a1.38 1.38 0 0 0-.33.896v.2c0 .834.674 1.51 1.507 1.51h5.818c.834 0 1.509-.676 1.509-1.51v-.2a1.38 1.38 0 0 0-.33-.896 3.39 3.39 0 0 0-2.575-1.187zM5.175 6.444a3.47 3.47 0 1 1 6.939 0 3.47 3.47 0 0 1-6.939 0m3.47-2.219a2.22 2.22 0 1 0 0 4.439 2.22 2.22 0 0 0 0-4.439m3.574.086c0-.345.28-.625.625-.625a2.758 2.758 0 0 1 0 5.517.625.625 0 1 1 0-1.25 1.508 1.508 0 0 0 0-3.017.625.625 0 0 1-.625-.625m1.436 6.98a.625.625 0 0 1 .742-.48l.364.078c.777.165 1.463.619 1.92 1.269l-.511.36.511-.36.044.062a1.65 1.65 0 0 1-.394 2.294l-.369.262a.625.625 0 1 1-.724-1.019l.369-.262a.4.4 0 0 0 .095-.556l.511-.36-.51.36-.044-.062a1.9 1.9 0 0 0-1.159-.766l-.364-.078a.625.625 0 0 1-.48-.741" clip-rule="evenodd"/></svg>