<svg xmlns="http://www.w3.org/2000/svg" width="32" height="32" fill="none" class="persona-icon" viewBox="0 0 32 32"><path fill="currentColor" fill-rule="evenodd" d="M23.022 18.458a1 1 0 0 1 1.187-.77l.682.146a5.74 5.74 0 0 1 3.496 2.311l.081.116a2.92 2.92 0 0 1-.697 4.062l-.692.492a1 1 0 1 1-1.158-1.63l.691-.492a.92.92 0 0 0 .22-1.282l-.081-.116a3.74 3.74 0 0 0-2.277-1.505l-.683-.145a1 1 0 0 1-.769-1.187M7 9.333a6.333 6.333 0 1 1 12.667 0A6.333 6.333 0 0 1 7 9.333M13.333 5a4.333 4.333 0 1 0 0 8.667 4.333 4.333 0 0 0 0-8.667M20.333 5.333a1 1 0 0 1 1-1 5 5 0 1 1 0 10 1 1 0 1 1 0-2 3 3 0 1 0 0-6 1 1 0 0 1-1-1M4.128 20.62a8.42 8.42 0 0 1 6.406-2.953h5.599a8.42 8.42 0 0 1 6.406 2.954 4.7 4.7 0 0 1 1.128 3.059V24a5 5 0 0 1-5 5H8a5 5 0 0 1-5-5v-.32c0-1.122.4-2.206 1.128-3.06m16.89 1.3a6.42 6.42 0 0 0-4.885-2.253h-5.599c-1.88 0-3.665.823-4.885 2.252A2.7 2.7 0 0 0 5 23.68V24a3 3 0 0 0 3 3h10.667a3 3 0 0 0 3-3v-.32c0-.646-.23-1.27-.65-1.76" clip-rule="evenodd"/></svg>