<svg xmlns="http://www.w3.org/2000/svg" width="32" height="32" fill="none"><path fill="#000" fill-rule="evenodd" d="M7.024 3.995a7.857 7.857 0 0 1 11.34 9.163l9.558 9.558a3.681 3.681 0 1 1-5.206 5.206l-9.557-9.558a7.857 7.857 0 0 1-9.164-11.34 1 1 0 0 1 1.58-.22l3.783 3.784a.87.87 0 1 0 1.23-1.23L6.805 5.575a1 1 0 0 1 .219-1.58Zm2.25 1.221 2.728 2.728a2.87 2.87 0 1 1-4.058 4.058L5.216 9.274a5.856 5.856 0 0 0 7.83 7.01 1 1 0 0 1 1.082.22L24.13 26.508a1.68 1.68 0 1 0 2.378-2.377L16.505 14.128a1 1 0 0 1-.22-1.081 5.856 5.856 0 0 0-7.011-7.83Z" clip-rule="evenodd"/></svg>