<svg xmlns="http://www.w3.org/2000/svg" width="300" height="300" fill="none" class="persona-ilustration" viewBox="0 0 300 300"><g clip-path="url(#iK_rZfW2fAfFm9ILQjCYV4TisYBRf92DIn1zvdlLPQQ_a)"><g clip-path="url(#iK_rZfW2fAfFm9ILQjCYV4TisYBRf92DIn1zvdlLPQQ_b)"><rect width="250" height="250" x="25" y="25" fill="#D3EDFF" rx="125"/><path fill="#AADBFF" d="M335.502 171.991 57.747 41.793-120.584 171.99l280.911 175.174z" opacity=".4"/><ellipse cx="76.374" cy="157.004" fill="#82C2F1" rx="62.952" ry="41.982"/><ellipse cx="76.374" cy="151.654" fill="#AADBFF" rx="62.952" ry="41.982"/><ellipse cx="79.83" cy="236.78" fill="#82C2F1" rx="29.844" ry="19.903"/><ellipse cx="79.83" cy="234.244" fill="#AADBFF" rx="29.844" ry="19.903"/><path fill="#4793CC" d="M19.946 109.498c0 16.98 25.154 30.959 55.723 30.959 14.406 0 28.265-3.103 38.64-8.657l-17.537-10.125 21.141 5.23v20.602s-3.846 2.61-6.028 7.394L19.946 133.5v24.587h.214c.028.176.037.353.074.529v.019c2.62 14.304 22.776 25.738 48.338 27.54a99 99 0 0 0 9.79.214 94 94 0 0 0 2.267-.084c.25-.018.492-.028.743-.037a90 90 0 0 0 4.811-.399l.288-.028c5.257-.567 10.245-1.551 14.853-2.889a85 85 0 0 0 2.331-.715c.381-.121.762-.251 1.142-.381.372-.13.753-.26 1.124-.39.437-.158.873-.325 1.31-.483.567-.223 1.124-.437 1.672-.669.186-.074.372-.158.557-.232.27-.112.539-.232.799-.344.353-.158.697-.316 1.04-.473.344-.158.688-.316 1.022-.483a66 66 0 0 0 1.802-.911c.065-.037.121-.065.186-.102v-22.302H131.4v-45.969z"/><path fill="#82C2F1" d="M131.4 139.259s1.978.753 2.081-3.492.659-19.06-.279-23.398-1.793-7.152-2.907-8.341c-6.038-6.419 1.114 35.231 1.114 35.231zM114.309 151.584s-.558-1.272-2.675 3.873q-.265.627-.474 1.31c-1.895 5.982-6.799 1.124-8.22-.269-1.496-1.477-2.833-2.592-6.029-1.774-1.17.297-4.235 2.554-5.852 4.077-1.328 1.254-4.328 6.01-8.276 1.654-.38-.418-1.012-1.942-1.17-2.378-1.84-5.127-7.06-3.725-9.233-2.081-1.7 1.282-2.015 5.657-5.239 7.013-4.115 1.737-5.759-10.673-9.251-9.734-4.598 1.244-5.137 7.626-8.601 6.483-1.31-.427-1.95-10.292-4.264-10.524-1.579-.158-5.61 6.344-6.502 6.214-2.201-.316-3.706-8.406-4.83-9.716-1.653-1.932-3.483-2.183-8.044.019-4.588 2.22-7.18-10.106-7.366-14.072-.26-5.555 1.663-22.191 1.663-22.191 0 16.98 25.154 30.959 55.722 30.959 14.407 0 28.265-3.102 38.641-8.657z"/><path fill="#82C2F1" d="m96.772 121.676 17.537 10.125c-10.375 5.554-24.234 8.657-38.64 8.657-30.57 0-55.723-13.98-55.723-30.959 0-2.229.437-4.403 1.263-6.502C26.635 89.092 49.104 78.54 75.67 78.54c30.577 0 55.731 13.97 55.731 30.959H75.668z"/><path fill="#D3EDFF" d="m77.154 110.567 32.594 18.819c-9.001 4.05-20.593 6.279-32.594 6.279-27.03 0-49.266-11.332-49.266-25.098S50.124 85.47 77.154 85.47s49.267 11.332 49.267 25.097z"/><path fill="#AADBFF" d="m111.67 130.277-35.993-20.778h52.397a3.32 3.32 0 0 1 3.325 3.325v42.644h-17.091v-20.612a5.29 5.29 0 0 0-2.638-4.579"/><path fill="#4793CC" d="M131.399 128.408c-7.572.012-15.459.031-22.879.05l-10.048-5.801c12.28-.092 25.281-.173 32.927-.201zM114.309 144.801v-5.467c6.312-.04 12.295-.073 17.091-.094v5.524c-5.708.011-11.513.024-17.091.037"/><path fill="#fff" d="M105.057 133.064a3.8 3.8 0 1 0 0-7.598 3.8 3.8 0 0 0 0 7.598M88.44 136.872a3.8 3.8 0 1 0 0-7.598 3.8 3.8 0 0 0 0 7.598M65.925 136.277a3.799 3.799 0 1 0 0-7.598 3.799 3.799 0 0 0 0 7.598M43.586 130.51a3.8 3.8 0 1 0 0-7.598 3.8 3.8 0 0 0 0 7.598M29.754 116.733a3.799 3.799 0 1 0 0-7.598 3.799 3.799 0 0 0 0 7.598M35.16 101.743a3.8 3.8 0 1 0-.001-7.598 3.8 3.8 0 0 0 0 7.598M49.985 93.327a3.799 3.799 0 1 0 0-7.598 3.799 3.799 0 0 0 0 7.598M68.312 88.692a3.8 3.8 0 1 0 0-7.598 3.8 3.8 0 0 0 0 7.598M86.6 88.692a3.799 3.799 0 1 0 0-7.598 3.799 3.799 0 0 0 0 7.598M105.856 94.135a3.8 3.8 0 1 0 0-7.598 3.8 3.8 0 0 0 0 7.598M120.272 103.349a3.8 3.8 0 1 0 0-7.598 3.8 3.8 0 0 0 0 7.598"/><path fill="#F1AA90" d="m170.403 228.371 2.804 14.555 10.843 2.168 1.863-12.24c6.56-2.407 19.642-7.98 19.49-11.017-.151-3.038-1.987-3.528-2.885-3.394z"/><path fill="#F1AA90" d="m192.574 209.076-24.142 3.032c-8.461 2.9-8.966 10.155-8.161 13.42l4.128 15.018 11.713 2.311-3.478-13.282c2.536-1.829 8.767-5.973 13.406-7.914 5.799-2.426 11.555-4.079 12.414-8.326.688-3.398-3.634-4.255-5.88-4.259"/><path fill="#000" d="m172.955 211.54 19.618-2.464c2.247.004 6.569.861 5.881 4.259-.737 3.642-5.075 5.377-9.953 7.327-.81.324-1.635.654-2.461.999-4.639 1.941-10.87 6.085-13.406 7.914l2.474 9.448-2.946-.582-4.128-15.017c-.687-2.785-.421-8.472 4.921-11.884" opacity=".5" style="mix-blend-mode:overlay"/><path fill="#F1AA90" d="m148.005 225.66 3.983 19.841 16.35-5.039-4.817-13.862c.167-1.055 2.203-5.265 9.009-13.672 8.508-10.508 8.186-14.433 5.922-17.211-1.81-2.222-4.942-.698-6.281.342-5.063 5.15-16.221 16.534-20.347 20.865s-4.265 7.628-3.819 8.736"/><path fill="#000" fill-opacity=".5" d="M179.783 198.704c-5.449 5.56-12.416 12.69-15.486 15.913-4.126 4.331-4.265 7.629-3.819 8.737l3.692 18.393 4.168-1.284-4.817-13.863c.167-1.054 2.203-5.265 9.009-13.672 5.934-7.329 7.572-11.455 7.253-14.224" style="mix-blend-mode:overlay"/><path fill="#F1AA90" d="M167.959 276.035c10.185 2.113 38.617 18.674 51.559 26.691l9.474-16.915-38.456-45.191c-5.427-.099-17.535-.657-22.546-2.104s-12.844 3.669-16.135 6.408l.968 8.053c.801 6.805 4.951 20.945 15.136 23.058"/><path fill="#000" d="M188.732 247.988c-3.325-1.994-18.252-7.163-25.173-9.39 1.499-.358 2.75-.455 3.97-.239 8.41-.462 15.595 3.26 17.986 4.179 3.249 2.792 6.542 7.443 3.217 5.45" opacity=".5" style="mix-blend-mode:overlay"/><path fill="#F1AA90" d="M218.659 237.258c10.566 3.962 16.684 20.583 21.323 31.692-3.993 13.073-21.323 16.426-28.529 9.51l-21.164-24.454c-.605-2.513-2.617-9.025-5.822-14.965-4.007-7.424-13.127-15.219-19.924-25.138-5.437-7.935-2.883-12.857-.926-14.326 1.93-1.515 7.78-2.257 15.744 6.897 9.956 11.443 26.091 25.83 39.298 30.784"/><path fill="#82C2F1" fill-rule="evenodd" d="M103.199 196.976H59.247l6.43 36.329h.092v.001c0 4.957 6.919 8.975 15.453 8.975 8.535 0 15.454-4.018 15.454-8.975q0-.35-.045-.69z" clip-rule="evenodd"/><mask id="iK_rZfW2fAfFm9ILQjCYV4TisYBRf92DIn1zvdlLPQQ_c" width="45" height="28" x="59" y="183" maskUnits="userSpaceOnUse" style="mask-type:alpha"><ellipse cx="81.223" cy="196.975" fill="#fff" rx="21.976" ry="13.557"/></mask><g mask="url(#iK_rZfW2fAfFm9ILQjCYV4TisYBRf92DIn1zvdlLPQQ_c)"><ellipse cx="81.223" cy="196.975" fill="#D3EDFF" rx="21.976" ry="13.557"/><ellipse cx="81.15" cy="196.857" fill="#AADBFF" rx="20.201" ry="11.932"/><path fill="#D3EDFF" fill-rule="evenodd" d="M61.974 200.619c2.667-4.747 10.245-8.171 19.177-8.171 8.931 0 16.51 3.424 19.177 8.171-2.668 4.746-10.246 8.17-19.177 8.17-8.932 0-16.51-3.424-19.177-8.17" clip-rule="evenodd"/></g></g><ellipse cx="217.237" cy="194.479" fill="#FFF9E1" rx="71.677" ry="47.801"/><path stroke="#FEE283" stroke-width="2" d="M271.409 192.448c0 8.214-5.57 15.822-14.944 21.43-9.354 5.597-22.341 9.091-36.74 9.091s-27.386-3.494-36.74-9.091c-9.375-5.608-14.944-13.216-14.944-21.43 0-8.213 5.569-15.821 14.944-21.43 9.354-5.596 22.341-9.09 36.74-9.09s27.386 3.494 36.74 9.09c9.374 5.609 14.944 13.217 14.944 21.43Z"/><path fill="#F1AA90" d="M179.361 206.474c9.956 11.443 26.091 25.831 39.298 30.784 23.219 10.541-14.045 16.748-28.37 16.748-.605-2.513-2.617-9.025-5.822-14.965-4.007-7.424-13.127-15.219-19.924-25.138-5.437-7.935-2.883-12.857-.926-14.326 1.93-1.515 7.78-2.257 15.744 6.897"/><path fill="#8B532F" d="m262.138 110.716-89.817.179v74.097h.374l61.969 35.783c7.681-4.102 13.984-8.938 18.626-14.283 5.869-6.767 8.923-14.178 8.923-21.679z"/><path fill="#DDAC8E" d="M172.321 110.716h89.833c0 7.501-3.055 14.912-8.924 21.68-4.626 5.33-10.944 10.166-18.625 14.283z"/><path fill="#F7CAAE" d="M172.321 110.895h79.412c0 6.558-3.129 13.026-9.133 18.835-4.491 4.357-10.51 8.25-17.742 11.499z"/><path fill="#fff" d="M242.495 130.239a6.124 6.124 0 1 0 0-12.248 6.124 6.124 0 0 0 0 12.248"/><path fill="#DDAC8E" d="M236.252 179.992s2.111-7.636 4.956-3.698c2.844 3.937 7.411 5.03 7.411 5.03s3.309.09 3.099-8.609 4.776-13.07 4.776-13.07 3.459-1.977 4.267 1.976 2.785 4.117 2.785 4.117 5.24-1.422 3.728-10.884-1.228-33.283-1.228-33.283 1.528-10.84-3.847-10.84-10.481 19.509-10.481 19.509-21.739 12.801-17.068 16.439c4.027 3.129 1.602 33.313 1.602 33.313"/><path fill="#DDAC8E" d="m238.393 153.835-1.932-8.474-9.941-4.132 6.498 11.618s.988 25.543.988 27.339l2.261-.194 2.141-26.157z"/><mask id="iK_rZfW2fAfFm9ILQjCYV4TisYBRf92DIn1zvdlLPQQ_d" width="63" height="111" x="172" y="110" maskUnits="userSpaceOnUse" style="mask-type:alpha"><path fill="#000" d="M234.665 154.51v66.251l-62.344-35.768v-74.097l55.547 31.876a13.52 13.52 0 0 1 6.797 11.738"/></mask><g mask="url(#iK_rZfW2fAfFm9ILQjCYV4TisYBRf92DIn1zvdlLPQQ_d)"><path fill="#FEEDB4" d="M234.665 154.51v66.251l-62.344-35.768v-74.097l55.547 31.876a13.52 13.52 0 0 1 6.797 11.738"/><path fill="#FFB26F" d="m162.17 130.24 94.145 51.444v9.312l-94.145-51.458zM157.589 150.722l94.129 51.444v9.313l-94.129-51.459z"/></g></g><defs><clipPath id="iK_rZfW2fAfFm9ILQjCYV4TisYBRf92DIn1zvdlLPQQ_a"><path fill="#fff" d="M0 0h300v300H0z"/></clipPath><clipPath id="iK_rZfW2fAfFm9ILQjCYV4TisYBRf92DIn1zvdlLPQQ_b"><rect width="250" height="250" x="25" y="25" fill="#fff" rx="125"/></clipPath></defs></svg>