<svg xmlns="http://www.w3.org/2000/svg" width="32" height="32" fill="none"><path fill="#000" fill-rule="evenodd" d="M3 8a5 5 0 0 1 5-5h16a5 5 0 0 1 5 5v10.667a5 5 0 0 1-5 5H8a5 5 0 0 1-5-5V8Zm5-3a3 3 0 0 0-3 3v10.667a3 3 0 0 0 3 3h16a3 3 0 0 0 3-3V8a3 3 0 0 0-3-3H8Z" clip-rule="evenodd"/><path fill="#000" fill-rule="evenodd" d="M3 18.667a1 1 0 0 1 1-1h24a1 1 0 1 1 0 2H4a1 1 0 0 1-1-1ZM12.333 21.667h7.334V29h-7.334v-7.333Zm2 2V27h3.334v-3.333h-3.334Z" clip-rule="evenodd"/><path fill="#000" fill-rule="evenodd" d="M7 28a1 1 0 0 1 1-1h16a1 1 0 1 1 0 2H8a1 1 0 0 1-1-1Z" clip-rule="evenodd"/></svg>