<svg xmlns="http://www.w3.org/2000/svg" width="16" height="16" fill="none" class="persona-icon" viewBox="0 0 16 16"><path fill="currentColor" fill-rule="evenodd" d="M2 8.306a2.028 2.028 0 1 1 4.056 0 2.028 2.028 0 0 1-4.056 0m2.028-1.028a1.028 1.028 0 1 0 0 2.055 1.028 1.028 0 0 0 0-2.055" clip-rule="evenodd"/><path fill="currentColor" fill-rule="evenodd" d="M10.668 5.392 5.78 7.836l-.447-.894 4.889-2.445zM10.916 10.584 5.722 8.751l-.333.943 5.195 1.833z" clip-rule="evenodd"/><path fill="currentColor" fill-rule="evenodd" d="M9.944 4.028a2.028 2.028 0 1 1 4.056 0 2.028 2.028 0 0 1-4.056 0M11.972 3a1.028 1.028 0 1 0 0 2.056 1.028 1.028 0 0 0 0-2.056M9.944 11.972a2.028 2.028 0 1 0 4.056 0 2.028 2.028 0 0 0-4.056 0M11.972 13a1.028 1.028 0 1 1 0-2.056 1.028 1.028 0 0 1 0 2.056" clip-rule="evenodd"/></svg>