<svg xmlns="http://www.w3.org/2000/svg" width="20" height="20" fill="none" class="persona-icon" viewBox="0 0 20 20"><path fill="currentColor" fill-rule="evenodd" d="M10.679 4.973a2.345 2.345 0 1 1 .702 1.674l-4.79 2.765a2.35 2.35 0 0 1 0 1.179l4.783 2.761a2.345 2.345 0 1 1-.626 1.082l-4.784-2.762a2.345 2.345 0 1 1 .004-3.343l4.786-2.763a2.4 2.4 0 0 1-.075-.593m2.345-1.095a1.095 1.095 0 1 0 0 2.19 1.095 1.095 0 0 0 0-2.19M4.32 8.903a1.095 1.095 0 1 0 0 2.19 1.095 1.095 0 0 0 0-2.19m7.603 6.12a1.095 1.095 0 1 0 2.19.001 1.095 1.095 0 0 0-2.19 0" clip-rule="evenodd"/></svg>