<svg xmlns="http://www.w3.org/2000/svg" width="32" height="32" fill="none" class="persona-icon"><path fill="currentColor" d="M3.002 16.669a4.333 4.333 0 1 1 8.667 0 4.333 4.333 0 0 1-8.667 0Zm4.334-2.333a2.333 2.333 0 1 0 0 4.666 2.333 2.333 0 0 0 0-4.666Z"/><path fill="currentColor" d="m21.783 10.23-10.667 5.333-.894-1.788L20.888 8.44l.895 1.79ZM22.335 21.726l-11.333-4-.666 1.886 11.333 4 .666-1.886Z"/><path fill="currentColor" d="M20.336 7.336a4.333 4.333 0 1 1 8.666 0 4.333 4.333 0 0 1-8.666 0Zm4.333-2.334a2.333 2.333 0 1 0 0 4.667 2.333 2.333 0 0 0 0-4.667ZM20.336 24.669a4.333 4.333 0 1 0 8.666 0 4.333 4.333 0 0 0-8.666 0Zm4.333 2.333a2.333 2.333 0 1 1 0-4.666 2.333 2.333 0 0 1 0 4.666Z"/></svg>