<svg xmlns="http://www.w3.org/2000/svg" width="32" height="32" fill="none" class="persona-icon" viewBox="0 0 32 32"><path fill="currentColor" fill-rule="evenodd" d="M17.29 7.17a4.022 4.022 0 1 1 1.152 2.817L9.9 14.92a4 4 0 0 1-.003 2.164l8.534 4.927a4.022 4.022 0 1 1-1.001 1.731l-8.536-4.928a4.022 4.022 0 1 1 .007-5.627l8.539-4.93a4 4 0 0 1-.15-1.088M6.023 13.974a2.022 2.022 0 1 0 0 4.044 2.022 2.022 0 0 0 0-4.044m15.28 8.828a2.022 2.022 0 1 0 0 4.044 2.022 2.022 0 0 0 0-4.044m.009-17.656a2.022 2.022 0 1 0 0 4.044 2.022 2.022 0 0 0 0-4.044" clip-rule="evenodd"/></svg>