<svg xmlns="http://www.w3.org/2000/svg" width="24" height="24" fill="none"><path fill="#000" fill-rule="evenodd" d="M8.232 18.923H2.769a.77.77 0 0 1-.64-1.195l1.675-2.519a2.32 2.32 0 0 0 .36-.929l.995-6.408c1.215-7.83 12.467-7.83 13.682 0l.994 6.408c.052.333.175.65.361.929l1.675 2.519a.77.77 0 0 1-.64 1.195h-5.463a3.846 3.846 0 0 1-7.536 0ZM6.679 8.107c.946-6.092 9.696-6.092 10.642 0l.994 6.41c.086.552.29 1.079.6 1.544l.88 1.324H4.205l.88-1.324c.31-.465.514-.992.6-1.545l.994-6.409Zm3.145 10.816a2.308 2.308 0 0 0 4.352 0H9.824Z" clip-rule="evenodd"/></svg>