<svg xmlns="http://www.w3.org/2000/svg" width="32" height="32" fill="none"><path fill="#000" fill-rule="evenodd" d="M11.101 25H4a1 1 0 0 1-.833-1.554l2.178-3.274c.242-.364.402-.776.469-1.208l1.293-8.331c1.58-10.177 16.207-10.177 17.786 0l1.293 8.331c.067.432.227.844.469 1.208l2.178 3.274A1 1 0 0 1 28 25h-7.101a5 5 0 0 1-9.798 0ZM9.083 10.94c1.23-7.92 12.605-7.92 13.834 0l1.293 8.331c.111.718.377 1.403.78 2.008L26.133 23H5.866l1.145-1.72c.402-.606.668-1.29.78-2.009l1.292-8.331ZM13.172 25a2.999 2.999 0 0 0 5.656 0h-5.656Z" clip-rule="evenodd"/></svg>