<svg xmlns="http://www.w3.org/2000/svg" width="20" height="20" fill="none" class="persona-icon" viewBox="0 0 20 20"><path fill="currentColor" fill-rule="evenodd" d="M2.2 4.958A2.76 2.76 0 0 1 4.957 2.2h2.715a.625.625 0 1 1 0 1.25H4.958c-.833 0-1.509.675-1.509 1.508v2.715a.625.625 0 0 1-1.25 0zm2.52.388c0-.346.28-.625.625-.625h3.491c.345 0 .625.28.625.625v3.49c0 .346-.28.626-.625.626h-3.49a.625.625 0 0 1-.626-.625zm0 5.818c0-.345.28-.625.625-.625h3.491c.345 0 .625.28.625.625v3.49c0 .346-.28.626-.625.626h-3.49a.625.625 0 0 1-.626-.625zM5.97 5.97v2.24h2.241v-2.24zm0 5.818v2.24h2.241v-2.24zm4.569-6.443c0-.346.28-.625.625-.625h3.49c.346 0 .626.28.626.625v3.49c0 .346-.28.626-.625.626h-3.491a.625.625 0 0 1-.625-.625zm.625 5.193c.345 0 .625.28.625.625v1.12h.926a.625.625 0 1 1 0 1.25h-.926v1.12a.625.625 0 1 1-1.25 0v-3.49c0-.345.28-.625.625-.625m.625-4.568v2.24h2.24v-2.24zm1.314 4.568h1.552a.625.625 0 0 1 .625.625v.776a.625.625 0 1 1-1.25 0v-.151h-.927a.625.625 0 1 1 0-1.25m1.552 2.715c.345 0 .625.28.625.625v.776a.625.625 0 0 1-.625.625h-1.552a.625.625 0 1 1 0-1.25h.927v-.151c0-.345.28-.625.625-.625" clip-rule="evenodd"/></svg>