<svg xmlns="http://www.w3.org/2000/svg" width="16" height="16" fill="none" class="persona-icon" viewBox="0 0 16 16"><path fill="currentColor" fill-rule="evenodd" d="M5.43 2.714c-.79 0-1.43.64-1.43 1.429v7.714c0 .79.64 1.429 1.43 1.429a.5.5 0 1 1 0 1A2.43 2.43 0 0 1 3 11.857V4.143a2.43 2.43 0 0 1 2.43-2.429h2.912c.495 0 .968.206 1.306.568L12.52 5.36c.308.33.48.766.48 1.218v2.713a.5.5 0 1 1-1 0V6.572H9.93c-.987 0-1.786-.8-1.786-1.786V2.714zm3.714.494v1.578c0 .434.351.786.786.786h1.42z" clip-rule="evenodd"/><path fill="currentColor" d="M8.11 13.98a1 1 0 0 1-.245.045c-.365 0-.636-.115-.636-.7v-.886c0-.55.206-.73.64-.73.101 0 .187.025.266.048q.064.019.125.032.06.008.12 0a.33.33 0 0 0 .3-.34c0-.206-.13-.33-.305-.406-.19-.09-.45-.115-.64-.115-.88 0-1.396.49-1.396 1.596v.726c0 1.116.5 1.561 1.356 1.561.285 0 .585-.045.775-.175a.4.4 0 0 0 .19-.34.334.334 0 0 0-.28-.346.6.6 0 0 0-.13-.005q-.068.013-.14.035M9.11 13.985c-.09.055-.15.165-.15.31 0 .17.095.286.23.36.205.126.535.151.726.151.775 0 1.35-.36 1.35-1.216 0-.525-.21-.93-.81-1.08l-.31-.066c-.22-.055-.356-.155-.356-.38 0-.25.18-.345.496-.345.094 0 .196.027.29.052q.07.02.13.033c.275.06.46-.1.46-.356a.4.4 0 0 0-.165-.33c-.2-.15-.55-.19-.765-.19-.75 0-1.321.355-1.321 1.19 0 .556.225.947.76 1.067l.336.065c.265.065.38.175.38.4 0 .245-.11.38-.55.38-.097 0-.202-.03-.3-.058a1 1 0 0 0-.226-.047c-.075 0-.15.02-.205.06M12.231 14.296c.075.27.165.515.59.515.416 0 .536-.285.606-.51l.82-2.813a.5.5 0 0 0 .026-.195c-.02-.215-.19-.365-.426-.365-.23 0-.39.135-.435.335l-.535 2.382-.51-2.367a.45.45 0 0 0-.451-.35c-.235 0-.43.18-.45.415a.6.6 0 0 0 .02.185z"/></svg>