<svg xmlns="http://www.w3.org/2000/svg" width="16" height="16" fill="none" class="persona-icon" viewBox="0 0 16 16"><path fill="currentColor" fill-rule="evenodd" d="M5.244 2.714c-.789 0-1.429.64-1.429 1.429v7.714c0 .562.325 1.049.799 1.283a.5.5 0 0 1-.442.896 2.43 2.43 0 0 1-1.357-2.179V4.143a2.43 2.43 0 0 1 2.429-2.429h2.913c.495 0 .967.206 1.305.567l2.873 3.079c.309.33.48.766.48 1.218V9.29a.5.5 0 1 1-1 0V6.573h-2.07c-.986 0-1.786-.8-1.786-1.786V2.714zm3.715.494v1.578c0 .434.352.786.786.786h1.42z" clip-rule="evenodd"/><path fill="currentColor" d="M11.889 14.267c.08.287.175.548.627.548.441 0 .569-.303.643-.543l.872-2.988a.5.5 0 0 0 .027-.207c-.021-.229-.202-.388-.452-.388-.245 0-.415.143-.463.356l-.569 2.53-.542-2.514a.48.48 0 0 0-.478-.372.48.48 0 0 0-.479.441.6.6 0 0 0 .022.197zM8.415 14.267c0-.154.064-.271.16-.33a.38.38 0 0 1 .217-.063c.067 0 .15.024.24.05.104.03.216.061.319.061.467 0 .584-.143.584-.404 0-.24-.122-.356-.404-.425l-.356-.07c-.569-.127-.808-.542-.808-1.132 0-.888.606-1.265 1.403-1.265.23 0 .601.042.814.202.106.08.175.197.175.35 0 .272-.196.442-.489.378a2 2 0 0 1-.138-.034c-.1-.027-.208-.056-.308-.056-.335 0-.527.1-.527.367 0 .239.144.345.378.404l.33.069c.637.16.86.59.86 1.148 0 .91-.61 1.292-1.435 1.292-.202 0-.553-.026-.77-.16-.144-.079-.245-.201-.245-.382M7.514 13.931a1 1 0 0 1-.26.049c-.389 0-.676-.123-.676-.745v-.94c0-.585.218-.777.68-.777.107 0 .198.027.282.051q.069.022.133.034a.5.5 0 0 0 .128 0 .35.35 0 0 0 .319-.361c0-.218-.138-.351-.324-.43-.202-.097-.479-.123-.68-.123-.936 0-1.484.52-1.484 1.696v.77c0 1.186.532 1.66 1.44 1.66.304 0 .623-.048.825-.187a.42.42 0 0 0 .202-.361.355.355 0 0 0-.298-.367c-.043-.005-.09-.01-.138-.005a1 1 0 0 0-.149.036"/></svg>