<svg xmlns="http://www.w3.org/2000/svg" width="20" height="20" fill="none" class="persona-icon" viewBox="0 0 20 20"><path fill="currentColor" fill-rule="evenodd" d="M6.914 3.657c-.947 0-1.715.768-1.715 1.714v9.258c0 .946.768 1.714 1.715 1.714a.6.6 0 0 1 0 1.2 2.914 2.914 0 0 1-2.915-2.914V5.37a2.914 2.914 0 0 1 2.915-2.914h3.495c.594 0 1.161.247 1.566.68l3.448 3.695c.37.397.576.92.576 1.462v3.255a.6.6 0 0 1-1.2 0V8.286h-2.486a2.143 2.143 0 0 1-2.143-2.143V3.657zm4.456.591v1.895c0 .52.422.943.943.943h1.706z" clip-rule="evenodd"/><path fill="currentColor" d="M10.131 16.576q.086-.027.168-.042a.7.7 0 0 1 .156.006.4.4 0 0 1 .336.415c0 .18-.09.318-.228.408-.228.156-.588.21-.93.21-1.027 0-1.628-.534-1.628-1.873v-.871c0-1.327.619-1.915 1.675-1.915.229 0 .54.03.769.138.21.09.366.24.366.486 0 .222-.156.39-.36.408a.6.6 0 0 1-.144 0q-.074-.014-.15-.038a1.1 1.1 0 0 0-.319-.058c-.522 0-.768.216-.768.877v1.063c0 .702.324.84.762.84.101 0 .2-.028.295-.054M11.33 16.582a.43.43 0 0 1 .247-.072c.075 0 .17.027.271.056.117.034.243.07.36.07.528 0 .66-.162.66-.456 0-.27-.138-.402-.457-.48l-.402-.078c-.643-.145-.913-.613-.913-1.28 0-1.002.685-1.428 1.585-1.428.259 0 .679.047.92.228.12.09.197.222.197.396 0 .306-.222.498-.552.426q-.073-.016-.156-.038c-.113-.03-.235-.064-.348-.064-.379 0-.595.114-.595.415 0 .27.162.39.426.456l.373.078c.72.18.973.666.973 1.297 0 1.027-.691 1.46-1.622 1.46-.228 0-.624-.031-.87-.181-.163-.09-.277-.228-.277-.432 0-.175.072-.307.18-.373M15.076 16.955l-.895-3.321c-.024-.102-.03-.168-.024-.222a.543.543 0 0 1 .54-.498.54.54 0 0 1 .541.42l.613 2.84.642-2.858c.054-.24.246-.402.523-.402.282 0 .486.18.51.438a.6.6 0 0 1-.03.234l-.985 3.375c-.084.27-.228.612-.726.612-.51 0-.619-.294-.709-.618"/></svg>