<svg xmlns="http://www.w3.org/2000/svg" width="24" height="24" fill="none" class="persona-icon" viewBox="0 0 24 24"><path fill="currentColor" fill-rule="evenodd" d="M7.704 3.5a2.333 2.333 0 0 0-2.333 2.333v12.334c0 .917.53 1.713 1.304 2.094a.75.75 0 0 1-.663 1.346 3.83 3.83 0 0 1-2.14-3.44V5.833A3.833 3.833 0 0 1 7.703 2h4.657c.778 0 1.52.323 2.051.891l4.593 4.922c.485.52.755 1.203.755 1.914v4.336a.75.75 0 0 1-1.5 0V9.727l-.001-.06h-3.36a2.806 2.806 0 0 1-2.805-2.806V3.5zm5.89.713V6.86c0 .721.584 1.306 1.305 1.306h2.385z" clip-rule="evenodd"/><path fill="currentColor" d="M18.328 21.223c.127.459.28.875 1.003.875.705 0 .909-.484 1.028-.867l1.394-4.777a.9.9 0 0 0 .043-.331c-.034-.366-.323-.62-.723-.62-.391 0-.663.229-.74.569l-.909 4.046-.867-4.02a.764.764 0 0 0-.765-.596c-.4 0-.731.306-.765.706a1 1 0 0 0 .034.314zM12.773 21.223c0-.247.102-.434.255-.527a.6.6 0 0 1 .349-.102c.106 0 .24.038.384.08.166.047.344.098.508.098.748 0 .935-.23.935-.646 0-.382-.195-.57-.646-.68l-.57-.11c-.909-.204-1.291-.867-1.291-1.81 0-1.42.969-2.024 2.244-2.024.365 0 .96.068 1.3.323.17.128.28.315.28.561 0 .434-.314.706-.781.604q-.105-.022-.22-.055a2 2 0 0 0-.494-.09c-.536 0-.842.162-.842.587 0 .382.23.552.604.646l.527.11c1.02.255 1.377.944 1.377 1.836 0 1.454-.978 2.066-2.295 2.066-.323 0-.884-.043-1.233-.255-.23-.128-.39-.323-.39-.612M11.334 20.686c-.135.038-.274.078-.417.078-.62 0-1.08-.196-1.08-1.19v-1.505c0-.935.349-1.24 1.088-1.24.17 0 .316.042.45.081q.11.035.213.054a.8.8 0 0 0 .204 0 .56.56 0 0 0 .51-.578c0-.348-.22-.56-.518-.688-.323-.153-.765-.196-1.088-.196-1.496 0-2.372.833-2.372 2.712v1.232c0 1.896.85 2.652 2.304 2.652.484 0 .994-.076 1.317-.297a.67.67 0 0 0 .323-.578.567.567 0 0 0-.476-.587c-.068-.008-.144-.017-.22-.008a2 2 0 0 0-.238.058"/></svg>