<svg xmlns="http://www.w3.org/2000/svg" width="24" height="24" fill="none" class="persona-icon" viewBox="0 0 24 24"><path fill="currentColor" fill-rule="evenodd" d="M7.889 3.5a2.333 2.333 0 0 0-2.333 2.333v12.334A2.333 2.333 0 0 0 7.889 20.5a.75.75 0 0 1 0 1.5 3.833 3.833 0 0 1-3.833-3.833V5.833A3.833 3.833 0 0 1 7.889 2h4.657c.777 0 1.52.323 2.05.891l4.594 4.922c.485.52.754 1.203.754 1.914v4.336a.75.75 0 0 1-1.5 0V9.667h-3.361a2.806 2.806 0 0 1-2.806-2.806V3.5zm5.888.712v2.65c0 .72.585 1.305 1.306 1.305h2.386z" clip-rule="evenodd"/><path fill="currentColor" d="M12.175 20.764a1.5 1.5 0 0 1-.392.073c-.584 0-1.016-.184-1.016-1.12V18.3c0-.88.328-1.168 1.024-1.168.16 0 .297.04.423.077.07.02.136.04.2.05a.8.8 0 0 0 .193 0 .53.53 0 0 0 .48-.543c0-.328-.208-.528-.488-.648-.304-.144-.72-.184-1.024-.184-1.408 0-2.232.784-2.232 2.552v1.16c0 1.784.8 2.496 2.168 2.496.456 0 .936-.072 1.24-.28a.63.63 0 0 0 .304-.544.534.534 0 0 0-.448-.552 1 1 0 0 0-.208-.008c-.072.012-.147.033-.224.055M13.773 20.773c-.144.088-.24.264-.24.496 0 .272.152.456.368.576.328.2.856.24 1.16.24 1.24 0 2.16-.576 2.16-1.944 0-.84-.336-1.488-1.296-1.728l-.496-.104c-.352-.088-.568-.248-.568-.608 0-.4.288-.552.792-.552.152 0 .314.043.465.084q.109.031.207.052c.44.096.736-.16.736-.568a.64.64 0 0 0-.264-.528c-.32-.24-.88-.304-1.224-.304-1.2 0-2.112.568-2.112 1.904 0 .888.36 1.512 1.216 1.704l.536.104c.424.104.608.28.608.64 0 .392-.176.608-.88.608-.154 0-.322-.048-.478-.093-.135-.04-.261-.075-.362-.075-.12 0-.24.032-.328.096M18.764 21.269c.12.432.264.824.944.824.664 0 .856-.456.968-.816l1.312-4.496a.8.8 0 0 0 .04-.312c-.032-.344-.304-.584-.68-.584-.368 0-.624.216-.696.536l-.856 3.808-.816-3.784a.72.72 0 0 0-.72-.56.723.723 0 0 0-.72.664c-.008.072 0 .16.032.296z"/></svg>