<svg xmlns="http://www.w3.org/2000/svg" width="32" height="32" fill="none" class="persona-icon" viewBox="0 0 32 32"><path fill="currentColor" fill-rule="evenodd" d="M10.857 5.429A2.857 2.857 0 0 0 8 8.285v15.428a2.857 2.857 0 0 0 2.857 2.857 1 1 0 1 1 0 2A4.857 4.857 0 0 1 6 23.714V8.286a4.857 4.857 0 0 1 4.857-4.857h5.826c.99 0 1.935.41 2.61 1.134l5.747 6.157c.617.66.96 1.532.96 2.436v5.425a1 1 0 1 1-2 0v-5.438h-4.144a3.57 3.57 0 0 1-3.571-3.571V5.429zm7.428.984v3.159c0 .868.703 1.571 1.571 1.571H22.7z" clip-rule="evenodd"/><path fill="currentColor" d="M16.22 26.959c.096-.027.189-.054.28-.069.09-.01.18 0 .26.01.33.06.56.32.56.69 0 .301-.15.531-.38.681-.38.26-.98.35-1.551.35-1.712 0-2.712-.89-2.712-3.122v-1.45c0-2.213 1.03-3.193 2.792-3.193.38 0 .9.05 1.28.23.351.15.611.4.611.81 0 .37-.26.651-.6.681q-.12.015-.24 0a2 2 0 0 1-.252-.064c-.158-.046-.329-.096-.529-.096-.87 0-1.281.36-1.281 1.461v1.771c0 1.171.54 1.401 1.271 1.401.168 0 .333-.046.49-.091M18.219 26.97c.11-.08.26-.12.41-.12.126 0 .283.046.452.094.196.056.406.117.599.117.88 0 1.1-.27 1.1-.761 0-.45-.23-.67-.76-.8l-.67-.13c-1.071-.241-1.521-1.022-1.521-2.133 0-1.67 1.14-2.381 2.642-2.381.43 0 1.13.08 1.53.38.201.15.331.37.331.66 0 .51-.37.831-.92.711a4 4 0 0 1-.26-.064c-.19-.051-.392-.106-.581-.106-.63 0-.991.19-.991.69 0 .45.27.65.71.761l.621.13c1.2.3 1.621 1.111 1.621 2.162 0 1.711-1.15 2.432-2.702 2.432-.38 0-1.04-.05-1.451-.3-.27-.15-.46-.38-.46-.721 0-.29.12-.51.3-.62M24.462 27.59l-1.492-5.533a1.1 1.1 0 0 1-.04-.37c.04-.471.43-.831.901-.831.46 0 .81.3.9.7l1.021 4.734 1.071-4.764c.09-.4.41-.67.871-.67.47 0 .81.3.85.73a1 1 0 0 1-.05.39l-1.64 5.625c-.14.45-.38 1.02-1.212 1.02-.85 0-1.03-.49-1.18-1.03"/></svg>