<svg xmlns="http://www.w3.org/2000/svg" width="32" height="32" fill="none" class="persona-icon" viewBox="0 0 32 32"><path fill="currentColor" fill-rule="evenodd" d="M10.674 5.429a2.857 2.857 0 0 0-2.858 2.857v15.428c0 1.124.649 2.098 1.597 2.565a1 1 0 1 1-.884 1.794 4.86 4.86 0 0 1-2.713-4.359V8.286a4.857 4.857 0 0 1 4.858-4.857h5.825c.99 0 1.935.41 2.61 1.134l5.747 6.157c.617.66.96 1.532.96 2.436v5.425a1 1 0 1 1-2 0v-5.438h-4.142a3.57 3.57 0 0 1-3.572-3.571V5.429zm7.429.986v3.157c0 .868.703 1.571 1.571 1.571h2.841z" clip-rule="evenodd"/><path fill="currentColor" d="M23.962 27.534c.16.574.35 1.095 1.255 1.095.882 0 1.137-.606 1.286-1.085l1.744-5.976c.043-.138.064-.255.053-.415-.042-.457-.404-.776-.904-.776-.489 0-.829.287-.925.713l-1.137 5.061-1.085-5.03a.956.956 0 0 0-.957-.744.96.96 0 0 0-.957.883c-.01.096 0 .212.043.393zM17.014 27.534c0-.309.128-.543.32-.66a.75.75 0 0 1 .435-.127c.133 0 .3.048.48.1.208.059.431.123.637.123.935 0 1.17-.287 1.17-.808 0-.479-.245-.713-.809-.85l-.712-.14c-1.138-.254-1.617-1.084-1.617-2.264 0-1.776 1.213-2.53 2.808-2.53.457 0 1.201.084 1.626.403.213.16.351.394.351.702 0 .543-.393.883-.978.755a4 4 0 0 1-.276-.068c-.2-.054-.416-.113-.617-.113-.67 0-1.053.202-1.053.734 0 .479.287.691.755.808l.66.138c1.275.32 1.722 1.18 1.722 2.297 0 1.819-1.223 2.584-2.871 2.584-.404 0-1.106-.053-1.542-.319-.287-.16-.489-.404-.489-.765M15.213 26.862c-.168.048-.343.097-.522.097-.776 0-1.35-.244-1.35-1.488v-1.883c0-1.17.436-1.552 1.361-1.552.213 0 .395.053.563.102.092.027.18.053.266.068q.127.015.256 0c.361-.032.638-.33.638-.723 0-.436-.277-.702-.649-.861-.404-.192-.957-.245-1.361-.245-1.871 0-2.967 1.042-2.967 3.392v1.542c0 2.371 1.064 3.318 2.882 3.318.606 0 1.244-.096 1.648-.373a.84.84 0 0 0 .404-.723c0-.393-.245-.67-.595-.733-.086-.01-.181-.021-.277-.01-.096.015-.195.043-.297.072"/></svg>