<svg xmlns="http://www.w3.org/2000/svg" width="20" height="20" fill="none" class="persona-icon"><path fill="currentColor" d="M2 4.91C2 3.854 2.818 3 3.827 3H9.77v2.58h3.522c1.691 0 3.062 1.433 3.062 3.2v1.1h1.053c.328 0 .593.278.593.62v3.44c0 .342-.265.62-.593.62h-1.053v.24c0 1.767-1.37 3.2-3.062 3.2h-8.23C3.37 18 2 16.567 2 14.8V4.91Zm1.827-.671c-.354 0-.642.3-.642.67a.66.66 0 0 0 .642.671h4.757V4.24H3.827Zm8.895 7.65c.022-.164.06-.322.113-.473.314-.896 1.137-1.535 2.103-1.535h.23V8.78c0-1.083-.84-1.961-1.876-1.961H3.827c-.22 0-.432-.041-.628-.116l-.014-.005V14.8c0 1.083.84 1.962 1.877 1.962h8.23c1.037 0 1.877-.879 1.877-1.962v-.24h-.23c-1.237 0-2.24-1.048-2.24-2.34 0-.113.008-.223.023-.332Zm1.173.178c-.007.05-.01.101-.01.153 0 .608.471 1.101 1.053 1.101h1.877v-2.202H14.938c-.454 0-.842.301-.99.723a1.13 1.13 0 0 0-.053.225Z"/></svg>