<svg xmlns="http://www.w3.org/2000/svg" width="24" height="24" fill="none" class="persona-icon" viewBox="0 0 24 24"><path fill="currentColor" fill-rule="evenodd" d="M2 5.314A2.311 2.311 0 0 1 4.308 3h7.436v3.086h4.359a3.852 3.852 0 0 1 3.846 3.857v1.286h1.282A.77.77 0 0 1 22 12v4.114a.77.77 0 0 1-.77.772H19.95v.257A3.852 3.852 0 0 1 16.103 21H5.846A3.852 3.852 0 0 1 2 17.143zm2.308-.771a.77.77 0 0 0 0 1.543h5.897V4.543zM18.41 16.886h-.256a2.825 2.825 0 0 1-2.82-2.829 2.825 2.825 0 0 1 2.82-2.828h.256V9.943a2.311 2.311 0 0 0-2.307-2.314H4.308a2.3 2.3 0 0 1-.74-.122l-.03-.01v9.646a2.311 2.311 0 0 0 2.308 2.314h10.257a2.311 2.311 0 0 0 2.307-2.314zm-.256-4.115c-.708 0-1.282.576-1.282 1.286 0 .71.574 1.286 1.282 1.286h2.308V12.77z" clip-rule="evenodd"/></svg>