<svg xmlns="http://www.w3.org/2000/svg" width="32" height="32" fill="none" class="persona-icon"><path fill="currentColor" d="M2.002 6.153a3.16 3.16 0 0 1 3.167-3.15h10.389v4.313h6.222c2.945 0 5.333 2.378 5.333 5.31v1.88h1.89c.552 0 1 .447 1 .996v5.752c0 .55-.448.996-1 .996h-1.89v.443c0 2.932-2.388 5.31-5.333 5.31H7.335c-2.945 0-5.333-2.378-5.333-5.31V6.153Zm11.556-1.16h-8.39c-.644 0-1.166.52-1.166 1.162 0 .641.522 1.161 1.167 1.161h8.389V4.994Zm9.597 16.953a3.887 3.887 0 0 1-.962-.582 3.857 3.857 0 0 1-1.413-2.986 3.88 3.88 0 0 1 3.889-3.871h.444v-1.88a3.326 3.326 0 0 0-3.333-3.32H5.169a3.17 3.17 0 0 1-1.167-.22v13.606a3.326 3.326 0 0 0 3.333 3.318H21.78a3.326 3.326 0 0 0 3.333-3.318v-.443h-.444a3.89 3.89 0 0 1-1.514-.304Zm2.966-1.687h1.881v-3.761H24.67a1.885 1.885 0 0 0-1.889 1.88 1.877 1.877 0 0 0 1.459 1.832c.138.032.282.049.43.049h1.452Z"/></svg>