<svg xmlns="http://www.w3.org/2000/svg" width="32" height="32" fill="none" class="persona-icon" viewBox="0 0 32 32"><path fill="currentColor" fill-rule="evenodd" d="M2.002 6.154A3.16 3.16 0 0 1 5.17 3.002h10.389v4.315h6.222c2.945 0 5.333 2.377 5.333 5.31v1.88h1.89c.552 0 1 .446 1 .995v5.753c0 .55-.448.995-1 .995h-1.89v.443c0 2.932-2.388 5.31-5.333 5.31H7.335c-2.945 0-5.333-2.378-5.333-5.31zm21.153 15.792a3.9 3.9 0 0 1-.962-.582 3.86 3.86 0 0 1-1.413-2.986 3.88 3.88 0 0 1 3.889-3.871h.444v-1.88a3.326 3.326 0 0 0-3.333-3.32H5.169c-.412 0-.806-.078-1.167-.22v13.606a3.326 3.326 0 0 0 3.334 3.318H21.78a3.326 3.326 0 0 0 3.333-3.318v-.443h-.444a3.9 3.9 0 0 1-1.514-.304m2.966-1.687h1.881v-3.761H24.67a1.885 1.885 0 0 0-1.889 1.88 1.876 1.876 0 0 0 1.459 1.832q.207.049.43.05h1.452M13.558 4.994h-8.39c-.644 0-1.166.52-1.166 1.161 0 .642.523 1.162 1.167 1.162h8.389z" clip-rule="evenodd"/></svg>