<svg xmlns="http://www.w3.org/2000/svg" width="20" height="20" fill="none"><path fill="#000" fill-rule="evenodd" d="M9.168 2.552a6.776 6.776 0 0 1 4.925 1.328c.264.2.325.586.133.863a.575.575 0 0 1-.825.14A5.63 5.63 0 0 0 9.309 3.78 5.748 5.748 0 0 0 5.58 5.861a.574.574 0 0 1-.834.068.637.637 0 0 1-.064-.872C5.824 3.664 7.425 2.77 9.168 2.552ZM8.232 5.08A4.68 4.68 0 0 1 10 4.732a4.76 4.76 0 0 1 3.44 1.488c.24.252.462.527.658.823.186.28.12.666-.149.86a.576.576 0 0 1-.823-.155 4.75 4.75 0 0 0-.523-.653A3.603 3.603 0 0 0 10 5.968c-.462 0-.916.091-1.338.263a.584.584 0 0 1-.766-.35.627.627 0 0 1 .336-.801Zm6.513.19a.575.575 0 0 1 .829.12 7.545 7.545 0 0 1 1.41 4.91.601.601 0 0 1-.63.576.61.61 0 0 1-.55-.658 6.27 6.27 0 0 0-1.172-4.081.637.637 0 0 1 .113-.866Zm-7.348.95a.638.638 0 0 1 0 .875A3.935 3.935 0 0 0 6.32 9.81c.003.259.014.477.025.694l.016.34c.012.33.014.666-.04 1.036-.11.75-.43 1.549-1.163 2.733a.576.576 0 0 1-.818.183.635.635 0 0 1-.176-.854c.693-1.12.914-1.745.987-2.247.037-.256.04-.502.028-.801a26.089 26.089 0 0 0-.014-.291 19.695 19.695 0 0 1-.028-.783v-.007A5.2 5.2 0 0 1 6.561 6.22a.574.574 0 0 1 .836 0Zm-2.976.242a.63.63 0 0 1 .291.82 6.326 6.326 0 0 0-.428 3.658.617.617 0 0 1-.472.722.594.594 0 0 1-.69-.493 7.613 7.613 0 0 1 .515-4.403.581.581 0 0 1 .784-.304Zm4.535.719c.331-.143.686-.217 1.044-.217 1.102 0 1.895.741 2.174 1.128a2.963 2.963 0 0 1 .554 1.718c.017 1.598.014 4.928-1.52 7.407a.577.577 0 0 1-.817.184.635.635 0 0 1-.176-.855c1.315-2.125 1.347-5.088 1.33-6.725v-.007a1.677 1.677 0 0 0-.315-.976v-.001c-.146-.202-.628-.637-1.23-.637-.203 0-.404.042-.591.123-.187.081-.358.2-.501.35a1.62 1.62 0 0 0-.335.523.583.583 0 0 1-.773.335.628.628 0 0 1-.32-.808c.137-.345.338-.66.591-.924.254-.265.554-.475.885-.618ZM14.2 8.469a.593.593 0 0 1 .697.482l.016.055c.04.136.144.485.149.889l.002.202c.02 1.598.043 3.53-1.171 6.468a.582.582 0 0 1-.778.323.629.629 0 0 1-.308-.813c1.114-2.696 1.093-4.42 1.074-5.961l-.002-.205a1.298 1.298 0 0 0-.04-.329l-.03-.106c-.005-.015-.01-.03-.014-.049a2.606 2.606 0 0 1-.057-.227.618.618 0 0 1 .462-.73Zm-4.245.729a.6.6 0 0 1 .635.569c.065.878.043 2.31-.237 3.756a.593.593 0 0 1-.697.483.618.618 0 0 1-.463-.728c.255-1.32.275-2.636.217-3.417a.61.61 0 0 1 .545-.663Zm-2.079.992c.327-.01.6.259.609.6.02.695.013 1.48-.196 2.372-.21.894-.618 1.866-1.368 2.963a.576.576 0 0 1-.825.144.636.636 0 0 1-.138-.862c.673-.984 1.011-1.814 1.182-2.54.171-.73.18-1.383.162-2.04a.607.607 0 0 1 .574-.636Zm1.646 4.325c.303.128.45.488.327.805-.284.736-.675 1.439-1.21 1.999a.574.574 0 0 1-.837 0 .638.638 0 0 1 0-.874c.392-.41.706-.956.95-1.588a.583.583 0 0 1 .77-.342Z" clip-rule="evenodd"/></svg>