<svg xmlns="http://www.w3.org/2000/svg" width="80" height="80" fill="none" class="persona-ilustration" viewBox="0 0 80 80"><g clip-path="url(#6uT4v2uubKlujmoBIIoVxgoBE02ZCAVNFTzRwzikcoA_a)"><path fill="#666" fill-rule="evenodd" d="m22.042 15.733 1.082-3.525c.314-1.03 1.284-1.662 2.45-1.603l10.05.479 9.89.473c1.13.053 2.241.775 2.82 1.822l1.988 3.585 2.916.124c1.527.065 2.952 1.355 3.183 2.88l7.193 47.033c.254 1.65-.822 2.999-2.408 2.999H25.603c-1.686 0-3.218-1.39-3.425-3.1l-5.809-48.582c-.19-1.573.976-2.792 2.59-2.72l3.07.135zm10.008-2.212c-.059-.461.272-.816.746-.793l6.128.284c.467.024.893.409.958.87s-.26.816-.728.793l-6.14-.278c-.473-.024-.905-.415-.964-.876" clip-rule="evenodd"/><path fill="#FFC509" d="m21.007 18.462 30.912 1.277c.923.036 1.78.816 1.917 1.733l6.518 43.288c.148.988-.502 1.792-1.449 1.786l-31.977-.088c-1.006 0-1.923-.834-2.047-1.852L19.45 20.1c-.119-.946.58-1.68 1.55-1.639z"/><mask id="6uT4v2uubKlujmoBIIoVxgoBE02ZCAVNFTzRwzikcoA_b" width="20" height="20" x="29" y="25" maskUnits="userSpaceOnUse" style="mask-type:alpha"><path fill="#fff" d="M37.634 25.783c5.223.19 10.032 4.537 10.783 9.76.752 5.223-2.874 9.482-8.174 9.376-5.3-.107-10.27-4.567-10.955-9.914s3.076-9.411 8.34-9.222z"/></mask><g mask="url(#6uT4v2uubKlujmoBIIoVxgoBE02ZCAVNFTzRwzikcoA_b)"><path fill="#FF9300" d="M37.634 25.783c5.223.19 10.032 4.537 10.783 9.76.752 5.223-2.874 9.482-8.174 9.376-5.3-.107-10.27-4.567-10.955-9.914s3.076-9.411 8.34-9.222z"/><path fill="#FFF9E1" fill-rule="evenodd" d="M34.878 33.628c-.284-2.136 1.2-3.81 3.312-3.738 2.112.07 4.046 1.84 4.342 3.963s-1.171 3.821-3.289 3.762c-2.117-.06-4.081-1.846-4.371-3.987zM34.032 40.649c.828-1.142 2.177-1.775 3.679-1.734l3.437.09c1.496.035 3.005.738 4.134 1.916.51.532.846 1.2.941 1.887l.03.2c.242 1.698-.911 3.053-2.58 3.023l-6.583-.13c-1.692-.035-3.248-1.455-3.472-3.17l-.024-.201c-.089-.693.065-1.36.444-1.876z" clip-rule="evenodd"/></g><path fill="#F8F8F8" d="m53.422 51.665-24.809-.373c-.94-.011-1.798-.792-1.916-1.733-.119-.94.55-1.691 1.484-1.674l24.75.444c.899.018 1.739.775 1.875 1.697.136.923-.485 1.663-1.384 1.65zM48.66 58.147l-13.433-.13c-.935-.012-1.799-.787-1.917-1.739-.124-.946.538-1.71 1.467-1.698l13.398.166c.911.012 1.757.78 1.893 1.715s-.497 1.692-1.414 1.68z"/></g><defs><clipPath id="6uT4v2uubKlujmoBIIoVxgoBE02ZCAVNFTzRwzikcoA_a"><path fill="#fff" d="M0 0h80v80H0z"/></clipPath></defs></svg>