<svg xmlns="http://www.w3.org/2000/svg" width="150" height="150" fill="none" class="persona-ilustration" viewBox="0 0 150 150"><g clip-path="url(#bu9el-34O8txwNrj7obPVLohUtto-2j3tyzfVXsX6KU_a)"><g clip-path="url(#bu9el-34O8txwNrj7obPVLohUtto-2j3tyzfVXsX6KU_b)"><rect width="125" height="125" x="12.64" y="12.5" fill="#D3EDFF" rx="62.5"/><path fill="#AADBFF" d="M12.64 101.87h121.506v37.467H12.64z"/><path fill="#4793CC" d="M13.429 70.609H-43.83l62.628-7.37h101.477l-29.53 7.37z"/><path fill="#F8F8F8" d="m18.349 54.667-62.177 12.165v3.55l62.177-7.152z"/><path fill="#E4E4E4" fill-rule="evenodd" d="m15.58 59.442-21.407 3.84-.123-.688 21.407-3.84z" clip-rule="evenodd"/><path fill="#82C2F1" d="M120.256 54.663H18.349v8.574h101.907z"/><path fill="#F8F8F8" d="m31.107 63.06-52.962 7.229V81.35l52.962-2.813z"/><path fill="#FFA400" d="m31.108 63.326-52.962 7.193-3.772.546v.238l3.772 1.168 52.962-4.933z"/><path fill="#FFB700" d="M-25.626 81.604V81.1l56.734-3.806v1.371z"/><path fill="#FFC509" d="M118.117 63.06h-87.01v15.478h87.01z"/><path fill="#FFB700" d="M-25.626 71.303V70.8l56.734-7.739v1.454z"/><path fill="#E4E4E4" fill-rule="evenodd" d="M25.983 73.572 3.88 75.398l-.058-.698 22.103-1.826z" clip-rule="evenodd"/><path fill="#82C2F1" d="M126.058 78.474H24.151v25.581h101.907z"/><path fill="#F8F8F8" d="m24.152 78.474-62.177 3.883v23.636l62.177-1.945z"/><path fill="#E4E4E4" fill-rule="evenodd" d="M16.748 84.993-5.324 86.36l-.043-.698 22.072-1.366zM16.304 91.71h-24.42v-.7h24.42zM17.025 98.654h-24.42v-.7h24.42z" clip-rule="evenodd"/><path fill="#AADBFF" d="m-5.938 82.127 30.102-1.664v-1.977l-30.102 1.977zM-6.379 104.593l30.222-.465v-1.976l-30.222.776z"/><path fill="#AADBFF" d="M21.147 94.205c-.407-6.701.725-13.129 1.342-15.504h1.666v25.363H22.49c-.277-.494-.934-3.157-1.342-9.859"/></g><path fill="#E4E4E4" d="M120.304 102c2.515 3.281 6.789 6.607 8.611 7.86l-7.306-3.171-4.96-3.497-2.927-4.472-3.05-11.067-7.674-34.128c-.097-.108-.202-.687-2.072-1.495-.785-.34-2.361-.566-3.606-1.061 8.361.12 10.65 1.447 10.749 2.095l1.435 6.014c2.552 12.94 8.284 39.642 10.8 42.922M87.117 124.252v-5.601c.674 3.391 18.188 3.848 26.855 3.797 8.666-.051 26.71-2.948 29.608-3.648 2.318-.56 3.212-2.605 3.33-3.676l-.627 6.375c-.16 1.153-3.366 3.435-15.738 5.048-3.542.462-25.021 1.953-32.09 1.402-5.657-.441-9.992-2.932-11.338-3.697"/><path fill="#E4E4E4" d="M142.4 114.403c2.387 1.369 2.608 3.463 1.647 4.293l2.296-1.697.4-1.048-1.148-2.047-4.144-2.496-6.221-2.446-8.717-2.638c1.988 1.748 12.142 5.932 15.887 8.079M96.566 121.038c-5.259-.044-7.984 1.838-8.689 2.785-.186-1.541-.513-4.813-.335-5.57.179-.758 2.563-1.096 3.733-1.17l15.318-.724c5.589-.464 17.18-1.482 18.828-1.839 1.649-.356 3.735-1.547 4.348-3.432l.84 3.647c.094.606-.91 2.623-3.383 3.739-3.555 1.604-24.086 2.62-30.66 2.564"/><path fill="#E4E4E4" d="m97.944 50.877-3.29-.157c.879-.067 2.04-.001 3.29.157l11.061.526c.731.06 1.992 1.65 2.23 2.483.238.832 4.686 25.978 7.291 39.554.366 1.34 2.507 5.354 3.811 6.895s6.42 6.272 8.815 8.445c-3.281-1.676-10.181-5.333-11.542-6.554-1.702-1.526-3.767-3.457-4.979-8.305-.97-3.88-4.385-22.747-5.971-31.696-.404-2.574-1.517-7.983-2.739-9.024-1.094-.934-4.815-1.925-7.977-2.324"/><path fill="#F8F8F8" fill-rule="evenodd" d="M90.835 50.945c6.778-1.222 12.745.505 14.91 1.537.211.1.387.288.536.497.153.215.3.486.442.796.285.622.567 1.442.841 2.382.55 1.883 1.081 4.29 1.545 6.657s.862 4.705 1.144 6.448c.141.872.253 1.596.33 2.102l.088.588.022.154.008.05c.596 3.906 1.623 9.638 2.712 14.768.545 2.565 1.105 4.977 1.634 6.933.532 1.971 1.024 3.44 1.425 4.152.822 1.458 2.187 2.88 3.68 4.094 1.488 1.209 3.083 2.193 4.346 2.783 1.105.465 2.989 1.062 5.23 1.772l.556.177c2.478.786 5.313 1.696 7.927 2.698 2.608.999 5.026 2.098 6.655 3.27.813.585 1.458 1.208 1.823 1.87.373.679.451 1.403.118 2.132-.336.731-1.146 1.331-2.211 1.839-1.081.516-2.494.97-4.137 1.37-3.286.801-7.542 1.398-12.011 1.827-8.935.857-18.771 1.049-23.52.836-2.567-.001-6.502-.167-9.983-.668-1.74-.251-3.381-.587-4.684-1.033-.651-.223-1.228-.477-1.695-.769-.464-.289-.84-.63-1.06-1.036-.147-.273-.195-.566-.091-.853.099-.273.316-.482.57-.643.504-.319 1.307-.547 2.295-.723 1.996-.357 4.95-.533 8.35-.66a591 591 0 0 1 4.679-.151c5.818-.172 12.243-.363 17.422-1.06 2.643-.356 4.608-.84 5.975-1.394 1.385-.561 2.087-1.164 2.321-1.708.212-.492.081-1.046-.548-1.669-.633-.628-1.718-1.259-3.219-1.827l-.021-.007-.02-.011c-.443-.236-.997-.48-1.627-.758-2.885-1.27-7.359-3.24-10.042-8.376-.317-.607-.698-1.709-1.121-3.148-.427-1.45-.904-3.27-1.413-5.332-1.019-4.125-2.164-9.236-3.274-14.328-.676-3.102-1.339-6.199-1.952-9.063-.394-1.837-.767-3.579-1.109-5.164-.88-4.069-1.555-7.089-1.868-8.091-.218-.697-.774-1.247-1.603-1.672-.829-.426-1.897-.708-3.065-.878-2.334-.342-4.984-.229-6.71-.018l-.01-.083q-.232.037-.466.08zm10.525.88.17.085c.925.475 1.657 1.147 1.951 2.086.325 1.041 1.009 4.104 1.884 8.152.343 1.588.716 3.33 1.11 5.169.613 2.862 1.275 5.956 1.951 9.057 1.109 5.09 2.253 10.194 3.269 14.31.508 2.058.983 3.866 1.405 5.301.425 1.445.789 2.484 1.07 3.022 2.556 4.893 6.745 6.746 9.638 8.026.65.287 1.235.546 1.72.804 1.531.581 2.713 1.252 3.444 1.976.739.732 1.069 1.584.698 2.443-.349.808-1.275 1.502-2.701 2.079-1.443.585-3.472 1.079-6.144 1.439-5.22.703-11.698.895-17.52 1.067-1.614.048-3.177.095-4.65.15-3.404.128-6.31.303-8.252.649q-1.472.264-2.044.626c-.186.119-.26.22-.286.29-.02.057-.027.141.05.283.139.258.405.52.814.775.406.254.93.487 1.551.7 1.243.426 2.835.754 4.557 1.002 3.44.495 7.346.661 9.89.661h.016c4.709.212 14.518.023 23.43-.833 4.456-.428 8.674-1.021 11.913-1.81 1.62-.394 2.982-.835 4-1.321 1.035-.494 1.649-1.004 1.876-1.5.229-.498.189-.988-.094-1.502-.292-.531-.842-1.081-1.619-1.64-1.551-1.116-3.897-2.189-6.496-3.185-2.593-.993-5.41-1.898-7.888-2.684l-.575-.182c-2.225-.705-4.142-1.313-5.278-1.791l-.012-.006c-1.321-.616-2.966-1.633-4.497-2.877-1.529-1.243-2.967-2.73-3.848-4.293-.451-.8-.962-2.353-1.492-4.313-.534-1.974-1.096-4.399-1.642-6.97-1.093-5.144-2.121-10.888-2.72-14.808v-.002l.346-.05-.346.05-.008-.053-.023-.153c-.019-.135-.049-.333-.087-.585-.077-.504-.188-1.226-.329-2.095a199 199 0 0 0-1.14-6.426c-.462-2.36-.989-4.743-1.53-6.595-.27-.927-.541-1.71-.805-2.287a4.4 4.4 0 0 0-.376-.681c-.122-.172-.214-.246-.267-.271-.822-.392-2.247-.898-4.084-1.288" clip-rule="evenodd"/><path fill="#666" fill-rule="evenodd" d="m54.95 44.607 1.281-4.17c.371-1.218 1.519-1.966 2.897-1.896l11.888.566 11.7.56c1.336.063 2.652.917 3.337 2.155l2.351 4.24 3.45.148c1.805.076 3.492 1.602 3.764 3.407l8.509 55.635c.301 1.952-.973 3.547-2.848 3.547H59.163c-1.994 0-3.806-1.644-4.051-3.666L48.24 47.665c-.224-1.861 1.155-3.303 3.065-3.219l3.632.161zm11.84-2.617c-.07-.546.322-.965.882-.937l7.249.336c.552.027 1.056.482 1.133 1.028s-.308.966-.86.938l-7.264-.33c-.56-.027-1.07-.489-1.14-1.035" clip-rule="evenodd"/><path fill="#F8F8F8" d="M68.136 37.905c1.635 1.012.208 3.146-.474 4.055 1.184 0 6.605.228 6.605.228.885-1 1.222-2.9-.157-3.836-.509-.017-2.416-.131-5.974-.447"/><path fill="#EFEFEF" d="M67.25 38.917v-.001c-.075-.004-.328-.014-.509-.035.193-.932.929-1.122 1.26-1.038.614.156.943.703 1.063 1.406.097.563-.258 1.542-.494 1.989-.046.086-.245.453-.629.641-.743.366-1.134-.386-1.054-.483.064-.077.328-.268.403-.303-.061.338.355.405.568.202.635-.606.712-1.487.712-2.089 0-.392-.261-.797-.568-.886-.409-.119-.696.256-.752.596.027 0 .03.001 0 .001"/><path fill="#FFC509" d="m53.726 47.833 36.568 1.511c1.091.042 2.106.966 2.267 2.05l7.711 51.206c.175 1.169-.595 2.12-1.715 2.113l-37.826-.105c-1.19 0-2.275-.986-2.422-2.19l-6.423-52.647c-.14-1.12.686-1.987 1.833-1.938z"/><mask id="bu9el-34O8txwNrj7obPVLohUtto-2j3tyzfVXsX6KU_c" width="24" height="24" x="63" y="56" maskUnits="userSpaceOnUse" style="mask-type:alpha"><path fill="#fff" d="M73.395 56.495c6.179.224 11.868 5.367 12.756 11.545.889 6.179-3.4 11.217-9.67 11.09-6.27-.125-12.147-5.401-12.959-11.726s3.639-11.133 9.866-10.91z"/></mask><g mask="url(#bu9el-34O8txwNrj7obPVLohUtto-2j3tyzfVXsX6KU_c)"><path fill="#FF9300" d="M73.395 56.495c6.179.224 11.868 5.367 12.756 11.545.889 6.179-3.4 11.217-9.67 11.09-6.27-.125-12.147-5.401-12.959-11.726s3.639-11.133 9.866-10.91z"/><path fill="#FFF9E1" fill-rule="evenodd" d="M70.135 65.774c-.336-2.526 1.42-4.507 3.918-4.423s4.786 2.177 5.136 4.688c.35 2.512-1.385 4.52-3.89 4.45s-4.829-2.183-5.171-4.715zM69.134 74.078c.98-1.35 2.575-2.1 4.352-2.05l4.066.105c1.77.042 3.554.874 4.89 2.267.602.63 1.001 1.42 1.113 2.232l.035.238c.287 2.008-1.078 3.61-3.05 3.575l-7.789-.153c-2-.042-3.841-1.722-4.107-3.75l-.028-.239c-.105-.819.077-1.61.525-2.218z" clip-rule="evenodd"/></g><path fill="#F8F8F8" d="m92.07 87.109-29.345-.441c-1.113-.014-2.128-.938-2.267-2.05-.14-1.113.65-2.002 1.756-1.98l29.276.524c1.064.021 2.057.917 2.218 2.008.161 1.092-.574 1.966-1.637 1.953zM86.438 94.778l-15.89-.154c-1.106-.014-2.128-.931-2.268-2.057-.147-1.12.637-2.023 1.736-2.009l15.848.196c1.078.014 2.078.924 2.24 2.03.16 1.105-.588 2-1.673 1.987z"/></g><defs><clipPath id="bu9el-34O8txwNrj7obPVLohUtto-2j3tyzfVXsX6KU_a"><path fill="#fff" d="M0 0h150v150H0z"/></clipPath><clipPath id="bu9el-34O8txwNrj7obPVLohUtto-2j3tyzfVXsX6KU_b"><rect width="125" height="125" x="12.64" y="12.5" fill="#fff" rx="62.5"/></clipPath></defs></svg>