<svg xmlns="http://www.w3.org/2000/svg" width="300" height="300" fill="none" class="persona-ilustration" viewBox="0 0 300 300"><g clip-path="url(#66_a)"><g clip-path="url(#67_b)"><rect width="250" height="250" x="25.281" y="25" fill="#D3EDFF" rx="125"/><path fill="#AADBFF" d="M25.281 203.74h243.01v74.934H25.281z"/><path fill="#4793CC" d="M40.669 144.538H-61.62l111.88-13.167h181.284l-52.755 13.167z"/><path fill="#F8F8F8" d="m49.458 116.061-111.074 21.73v6.342l111.074-12.775z"/><path fill="#E4E4E4" fill-rule="evenodd" d="m44.512 122.59-38.241 6.86-.221-1.23 38.241-6.861zM41.68 127.859l-35.737 5.022-.174-1.238 35.737-5.022z" clip-rule="evenodd"/><path fill="#82C2F1" d="M231.508 116.053H49.458v15.317h182.05z"/><path fill="#F8F8F8" d="m72.25 131.05-94.613 12.912v19.763l94.612-5.025z"/><path fill="#FFA400" d="m72.25 131.524-94.612 12.85-6.737.975v.425l6.737 2.088 94.613-8.813z"/><path fill="#FFB700" d="M-29.1 164.175v-.9l101.35-6.8v2.45z"/><path fill="#FFC509" d="M227.688 131.05H72.251v27.65h155.437z"/><path fill="#FFB700" d="M-29.1 145.775v-.9L72.25 131.05v2.596z"/><path fill="#E4E4E4" fill-rule="evenodd" d="m63.095 145.827-39.485 3.262-.102-1.246 39.484-3.262zM55.695 152.518 16.21 155.78l-.103-1.246 39.485-3.261z" clip-rule="evenodd"/><path fill="#82C2F1" d="M241.874 158.588H59.824v45.7h182.05z"/><path fill="#F8F8F8" d="m59.825 158.588-111.075 6.937v42.225l111.075-3.475z"/><path fill="#E4E4E4" fill-rule="evenodd" d="m46.599 170.236-39.431 2.44-.077-1.248 39.43-2.44zM45.806 186.235H2.18v-1.25h43.625zM45.127 177.742l-43.84 2.051-.058-1.249 43.84-2.051zM47.093 194.637H3.47v-1.25h43.624z" clip-rule="evenodd"/><path fill="#AADBFF" d="m6.072 165.113 53.775-2.974v-3.531L6.07 162.139zM5.285 205.247l53.988-.829v-3.531l-53.989 1.386z"/><path fill="#AADBFF" d="M54.458 186.693c-.727-11.973 1.295-23.455 2.397-27.699h2.977v45.31h-2.977c-.496-.882-1.67-5.639-2.397-17.611"/></g><path fill="#E4E4E4" d="M231.594 200.612c4.494 5.861 12.128 11.803 15.383 14.041l-13.051-5.665-8.861-6.246-5.23-7.99-5.448-19.771-13.709-60.966c-.173-.193-.36-1.228-3.701-2.672-1.402-.606-4.218-1.01-6.442-1.895 14.937.215 19.025 2.585 19.202 3.743l2.564 10.744c4.559 23.117 14.799 70.816 19.293 76.677M172.307 240.366v-10.005c1.205 6.057 32.492 6.874 47.975 6.783 15.482-.091 47.717-5.267 52.893-6.518 4.141-1 5.738-4.653 5.95-6.565l-1.121 11.388c-.285 2.059-6.013 6.135-28.115 9.017-6.327.825-44.698 3.489-57.328 2.505-10.104-.787-17.848-5.238-20.254-6.605"/><path fill="#E4E4E4" d="M271.067 222.772c4.264 2.444 4.66 6.186 2.943 7.669l4.102-3.032.713-1.873-2.051-3.656-7.402-4.459-11.114-4.37-15.572-4.711c3.551 3.122 21.692 10.597 28.381 14.432M189.188 234.624c-9.394-.079-14.262 3.284-15.522 4.976-.332-2.753-.916-8.598-.598-9.951.318-1.354 4.578-1.958 6.667-2.09l27.366-1.294c9.985-.829 30.69-2.647 33.635-3.284 2.946-.637 6.672-2.764 7.768-6.131l1.499 6.514c.169 1.082-1.625 4.686-6.044 6.68-6.349 2.866-43.028 4.68-54.771 4.58"/><path fill="#E4E4E4" d="m191.649 109.285-5.875-.28c1.568-.119 3.644-.002 5.875.28l19.76.941c1.307.106 3.56 2.948 3.984 4.435.425 1.486 8.371 46.407 13.025 70.66.653 2.394 4.479 9.566 6.808 12.318 2.329 2.753 11.468 11.205 15.747 15.086-5.86-2.993-18.188-9.526-20.619-11.707-3.039-2.727-6.729-6.176-8.894-14.838-1.732-6.929-7.833-40.635-10.667-56.622-.722-4.598-2.711-14.26-4.892-16.121-1.955-1.667-8.603-3.438-14.252-4.152"/><path fill="#F8F8F8" fill-rule="evenodd" d="M178.95 109.409c12.108-2.183 22.768.901 26.636 2.746.377.18.692.514.957.887.273.384.536.868.79 1.423.508 1.111 1.012 2.576 1.503 4.255.982 3.363 1.931 7.663 2.76 11.891.829 4.232 1.54 8.405 2.043 11.52a386 386 0 0 1 .746 4.805l.041.276.013.089c1.066 6.978 2.899 17.217 4.845 26.382.973 4.583 1.973 8.891 2.919 12.386.951 3.52 1.83 6.146 2.546 7.416 1.468 2.604 3.906 5.146 6.574 7.313 2.659 2.161 5.507 3.919 7.763 4.973 1.975.831 5.34 1.897 9.344 3.166l.994.315c4.426 1.404 9.49 3.031 14.16 4.82 4.66 1.784 8.979 3.749 11.889 5.842 1.453 1.045 2.605 2.158 3.256 3.341.667 1.213.807 2.506.211 3.808-.599 1.306-2.047 2.378-3.95 3.286-1.93.922-4.456 1.733-7.389 2.447-5.871 1.43-13.475 2.497-21.458 3.263-15.961 1.532-33.534 1.874-42.018 1.494-4.584-.001-11.615-.299-17.832-1.194-3.11-.447-6.041-1.047-8.368-1.844-1.163-.399-2.195-.853-3.028-1.374-.829-.517-1.502-1.126-1.893-1.851-.263-.488-.349-1.012-.163-1.524.177-.489.563-.86 1.018-1.148.9-.57 2.334-.978 4.1-1.293 3.566-.636 8.844-.951 14.916-1.179 2.654-.1 5.464-.183 8.358-.269 10.394-.308 21.872-.648 31.125-1.894 4.72-.635 8.231-1.501 10.674-2.49 2.474-1.002 3.727-2.08 4.146-3.051.379-.878.144-1.869-.979-2.982-1.132-1.121-3.069-2.249-5.751-3.263l-.037-.014-.036-.019c-.792-.422-1.782-.858-2.907-1.354-5.153-2.268-13.146-5.787-17.939-14.962-.567-1.086-1.246-3.054-2.003-5.626-.762-2.588-1.615-5.839-2.525-9.523-1.818-7.371-3.865-16.501-5.847-25.598a4318 4318 0 0 1-3.488-16.189c-.703-3.283-1.369-6.394-1.981-9.225-1.571-7.269-2.778-12.664-3.337-14.455-.389-1.245-1.383-2.228-2.863-2.987-1.481-.761-3.389-1.263-5.475-1.568-4.17-.61-8.904-.409-11.989-.033l-.018-.147q-.414.067-.832.142zm18.802 1.573q.154.073.304.151c1.653.848 2.961 2.049 3.485 3.726.581 1.86 1.802 7.331 3.365 14.564.614 2.836 1.28 5.95 1.983 9.233 1.095 5.113 2.279 10.64 3.486 16.179 1.982 9.095 4.025 18.211 5.84 25.564.907 3.677 1.756 6.907 2.51 9.471.76 2.58 1.409 4.436 1.912 5.399 4.566 8.74 12.049 12.051 17.216 14.337 1.162.514 2.207.976 3.075 1.436 2.734 1.038 4.845 2.236 6.151 3.53 1.32 1.309 1.909 2.83 1.247 4.365-.623 1.444-2.278 2.683-4.825 3.714-2.578 1.044-6.202 1.928-10.976 2.571-9.325 1.255-20.897 1.598-31.299 1.906-2.882.086-5.675.168-8.305.267-6.082.229-11.275.542-14.742 1.161-1.75.312-2.973.689-3.651 1.118-.334.211-.467.392-.512.517-.037.102-.048.252.089.506.248.461.724.928 1.454 1.384.725.453 1.661.871 2.771 1.251 2.221.761 5.065 1.347 8.141 1.79 6.147.885 13.123 1.181 17.669 1.181h.028c8.411.379 25.935.04 41.855-1.488 7.961-.765 15.497-1.824 21.282-3.233 2.895-.705 5.327-1.492 7.147-2.361 1.849-.883 2.945-1.794 3.351-2.679.408-.89.336-1.765-.169-2.684-.522-.948-1.503-1.931-2.891-2.929-2.772-1.994-6.962-3.912-11.606-5.69-4.632-1.774-9.663-3.391-14.091-4.796l-1.027-.325c-3.975-1.259-7.399-2.345-9.429-3.199l-.011-.005-.011-.005c-2.358-1.101-5.298-2.918-8.033-5.141-2.732-2.219-5.3-4.875-6.874-7.669-.805-1.428-1.719-4.203-2.665-7.704-.954-3.526-1.959-7.858-2.934-12.452-1.952-9.189-3.789-19.451-4.859-26.452l-.001-.005.561-.081-.561.081-.013-.094-.04-.274c-.036-.24-.088-.594-.157-1.044-.136-.901-.336-2.19-.587-3.743a358 358 0 0 0-2.036-11.479c-.826-4.217-1.767-8.473-2.733-11.781-.484-1.656-.968-3.055-1.44-4.086q-.355-.774-.671-1.218c-.219-.306-.383-.439-.477-.484-1.468-.7-4.013-1.604-7.296-2.301" clip-rule="evenodd"/><path fill="#666" fill-rule="evenodd" d="m114.845 98.087 2.288-7.45c.662-2.175 2.712-3.513 5.175-3.388l21.237 1.013 20.9 1c2.388.112 4.738 1.637 5.963 3.85l4.2 7.575 6.162.262c3.225.138 6.238 2.863 6.725 6.088l15.2 99.387c.538 3.488-1.737 6.338-5.087 6.338H122.37c-3.562 0-6.8-2.938-7.237-6.55l-12.275-102.663c-.4-3.325 2.062-5.9 5.475-5.75l6.487.288zm21.15-4.675c-.125-.975.575-1.725 1.575-1.675l12.95.6c.988.05 1.888.862 2.025 1.837.138.975-.55 1.725-1.537 1.675l-12.975-.587c-1-.05-1.913-.875-2.038-1.85" clip-rule="evenodd"/><path fill="#F8F8F8" d="M138.4 86.113c2.921 1.809.371 5.621-.846 7.244 2.114 0 11.799.409 11.799.409 1.58-1.787 2.182-5.18-.281-6.854-.909-.031-4.317-.235-10.672-.799"/><path fill="#EFEFEF" d="m136.816 87.922.001-.003c-.134-.007-.585-.024-.909-.062.344-1.665 1.659-2.005 2.252-1.854 1.096.278 1.683 1.255 1.898 2.511.172 1.005-.461 2.755-.884 3.553-.082.154-.436.81-1.122 1.146-1.329.653-2.027-.69-1.884-.863.115-.137.586-.48.72-.542-.109.604.635.723 1.015.361 1.135-1.082 1.271-2.656 1.271-3.731 0-.7-.466-1.423-1.014-1.583-.73-.212-1.243.458-1.343 1.064.047.002.054.003-.001.003"/><path fill="#FFC509" d="m112.658 103.849 65.325 2.7c1.95.075 3.762 1.725 4.05 3.663l13.775 91.475c.312 2.087-1.063 3.787-3.063 3.775l-67.575-.188c-2.125 0-4.062-1.762-4.325-3.912l-11.475-94.05c-.25-2 1.225-3.55 3.275-3.463z"/><mask id="68_c" width="42" height="41" x="129" y="119" maskUnits="userSpaceOnUse" style="mask-type:alpha"><path fill="#fff" d="M147.795 119.324c11.037.4 21.2 9.587 22.787 20.625 1.588 11.037-6.075 20.037-17.275 19.812s-21.7-9.65-23.15-20.95 6.5-19.887 17.625-19.487z"/></mask><g mask="url(#68_c)"><path fill="#FF9300" d="M147.795 119.324c11.037.4 21.2 9.587 22.787 20.625 1.588 11.037-6.075 20.037-17.275 19.812s-21.7-9.65-23.15-20.95 6.5-19.887 17.625-19.487z"/><path fill="#FFF9E1" fill-rule="evenodd" d="M141.97 135.899c-.6-4.513 2.537-8.05 7-7.9 4.462.15 8.55 3.887 9.175 8.375s-2.475 8.075-6.95 7.95-8.625-3.9-9.238-8.425zM140.182 150.736c1.75-2.413 4.6-3.75 7.775-3.663l7.263.188c3.162.075 6.35 1.562 8.737 4.05 1.075 1.125 1.788 2.537 1.988 3.987l.062.425c.513 3.588-1.925 6.45-5.45 6.388l-13.912-.275c-3.575-.075-6.863-3.075-7.338-6.7l-.05-.425c-.187-1.463.138-2.875.938-3.963z" clip-rule="evenodd"/></g><path fill="#F8F8F8" d="m181.158 174.012-52.426-.788c-1.987-.025-3.8-1.675-4.05-3.662-.25-1.988 1.163-3.575 3.138-3.538l52.3.938c1.9.037 3.675 1.637 3.962 3.587s-1.025 3.513-2.924 3.488zM171.095 187.712l-28.387-.275c-1.975-.025-3.8-1.663-4.05-3.675-.263-2 1.137-3.613 3.1-3.588l28.312.35c1.925.025 3.713 1.65 4 3.625.288 1.975-1.05 3.575-2.987 3.55z"/></g><defs><clipPath id="66_a"><path fill="#fff" d="M0 0h300v300H0z"/></clipPath><clipPath id="67_b"><rect width="250" height="250" x="25.281" y="25" fill="#fff" rx="125"/></clipPath></defs></svg>