<svg xmlns="http://www.w3.org/2000/svg" width="240" height="240" fill="none" class="persona-ilustration" viewBox="0 0 240 240"><g clip-path="url(#igWhEkNBin_a)"><g clip-path="url(#igWhEkNBin_b)"><rect width="200" height="200" x="20.225" y="20" fill="#D3EDFF" rx="100"/><path fill="#AADBFF" d="M20.225 162.992h194.408v59.947H20.225z"/><path fill="#4793CC" d="M32.535 115.63h-81.83l89.504-10.533h145.027l-42.204 10.533z"/><path fill="#F8F8F8" d="m39.566 92.848-88.859 17.385v5.073l88.86-10.22z"/><path fill="#E4E4E4" fill-rule="evenodd" d="M35.61 98.072 5.016 103.56l-.176-.984 30.593-5.489zM33.344 102.288l-28.59 4.017-.139-.99 28.59-4.018z" clip-rule="evenodd"/><path fill="#82C2F1" d="M185.206 92.842H39.566v12.254h145.64z"/><path fill="#F8F8F8" d="m57.8 104.84-75.69 10.33v15.81l75.69-4.02z"/><path fill="#FFA400" d="m57.8 105.219-75.69 10.28-5.39.78v.34l5.39 1.67 75.69-7.05z"/><path fill="#FFB700" d="M-23.28 131.34v-.72l81.08-5.44v1.96z"/><path fill="#FFC509" d="M182.151 104.84H57.801v22.12h124.35z"/><path fill="#FFB700" d="M-23.28 116.62v-.72l81.08-11.06v2.077z"/><path fill="#E4E4E4" fill-rule="evenodd" d="m50.476 116.662-31.587 2.609-.083-.997 31.588-2.609zM44.556 122.015l-31.588 2.609-.082-.997 31.588-2.609z" clip-rule="evenodd"/><path fill="#82C2F1" d="M193.499 126.87H47.859v36.56H193.5z"/><path fill="#F8F8F8" d="M47.86 126.87-41 132.42v33.78l88.86-2.78z"/><path fill="#E4E4E4" fill-rule="evenodd" d="m37.28 136.189-31.546 1.952-.061-.998 31.544-1.952zM36.645 148.988h-34.9v-1h34.9zM36.102 142.193 1.03 143.834l-.047-.999 35.072-1.641zM37.675 155.709h-34.9v-1h34.9z" clip-rule="evenodd"/><path fill="#AADBFF" d="m4.857 132.091 43.02-2.38v-2.824l-43.02 2.824zM4.228 164.198l43.19-.664v-2.825l-43.19 1.11z"/><path fill="#AADBFF" d="M43.566 149.354c-.582-9.578 1.036-18.763 1.918-22.159h2.381v36.248h-2.38c-.398-.705-1.337-4.511-1.919-14.089"/></g><path fill="#E4E4E4" d="M185.275 160.49c3.595 4.688 9.702 9.442 12.307 11.233l-10.441-4.532-7.089-4.998-4.184-6.392-4.358-15.816-10.967-48.773c-.139-.155-.289-.982-2.962-2.138-1.121-.484-3.374-.807-5.153-1.515 11.95.172 15.22 2.067 15.362 2.994l2.051 8.595c3.647 18.494 11.839 56.653 15.434 61.342M137.846 192.293v-8.005c.964 4.846 25.993 5.5 38.379 5.427 12.386-.072 38.174-4.214 42.315-5.214 3.313-.8 4.59-3.723 4.76-5.253l-.897 9.111c-.228 1.647-4.81 4.908-22.492 7.214-5.061.66-35.758 2.791-45.862 2.004-8.083-.63-14.279-4.191-16.203-5.284"/><path fill="#E4E4E4" d="M216.853 178.217c3.412 1.956 3.728 4.95 2.355 6.136l3.282-2.426.57-1.498-1.641-2.925-5.921-3.567-8.892-3.496-12.457-3.769c2.841 2.498 17.353 8.477 22.704 11.545M151.351 187.7c-7.516-.064-11.41 2.627-12.418 3.98-.266-2.203-.733-6.878-.479-7.961.255-1.083 3.662-1.566 5.334-1.672l21.893-1.035c7.987-.663 24.552-2.117 26.908-2.627s5.338-2.211 6.214-4.905l1.199 5.211c.136.866-1.3 3.749-4.834 5.345-5.08 2.292-34.423 3.743-43.817 3.664"/><path fill="#E4E4E4" d="m153.32 87.428-4.701-.224c1.255-.095 2.915-.001 4.701.224l15.807.753c1.046.084 2.848 2.358 3.188 3.547.339 1.19 6.696 37.127 10.419 56.529.523 1.915 3.583 7.653 5.446 9.855 1.864 2.202 9.176 8.963 12.598 12.068-4.688-2.395-14.55-7.621-16.495-9.366-2.431-2.181-5.383-4.94-7.115-11.87-1.386-5.543-6.267-32.508-8.534-45.298-.577-3.678-2.168-11.408-3.913-12.896-1.564-1.334-6.883-2.75-11.401-3.322"/><path fill="#F8F8F8" fill-rule="evenodd" d="M143.16 87.527c9.686-1.746 18.214.721 21.309 2.197.302.144.553.412.765.71.219.307.429.694.632 1.138.407.889.81 2.06 1.203 3.404.785 2.69 1.545 6.131 2.208 9.513a290 290 0 0 1 1.635 9.216c.201 1.246.361 2.281.471 3.004l.125.839.033.222.01.071c.853 5.582 2.32 13.773 3.877 21.105.778 3.667 1.578 7.113 2.334 9.909.762 2.816 1.464 4.917 2.038 5.933 1.174 2.084 3.124 4.116 5.258 5.851 2.128 1.728 4.406 3.134 6.211 3.978 1.58.664 4.272 1.517 7.475 2.533l.795.252c3.541 1.123 7.592 2.424 11.329 3.855 3.727 1.428 7.182 2.999 9.51 4.674 1.163.836 2.085 1.726 2.605 2.673.534.97.646 2.005.169 3.046-.479 1.045-1.638 1.903-3.16 2.629-1.544.737-3.564 1.386-5.911 1.958-4.697 1.144-10.78 1.997-17.167 2.61-12.768 1.226-26.827 1.5-33.614 1.195-3.667 0-9.292-.239-14.266-.955-2.487-.358-4.832-.838-6.694-1.475-.931-.319-1.756-.682-2.422-1.099-.663-.414-1.202-.901-1.515-1.481-.21-.391-.279-.81-.13-1.219.141-.391.45-.688.815-.919.719-.455 1.867-.782 3.28-1.034 2.852-.509 7.074-.761 11.932-.943 2.123-.08 4.371-.147 6.687-.215 8.315-.247 17.497-.519 24.899-1.516 3.777-.508 6.585-1.2 8.54-1.992 1.979-.801 2.981-1.664 3.317-2.44.303-.703.115-1.495-.784-2.386-.905-.897-2.455-1.799-4.6-2.61l-.03-.012-.029-.015c-.633-.337-1.425-.686-2.326-1.083-4.122-1.814-10.516-4.63-14.351-11.97-.453-.868-.997-2.443-1.602-4.5-.609-2.071-1.292-4.671-2.02-7.619-1.455-5.896-3.092-13.201-4.678-20.478-.966-4.432-1.914-8.859-2.79-12.952-.563-2.626-1.096-5.114-1.585-7.38-1.257-5.815-2.222-10.13-2.67-11.564-.311-.995-1.106-1.782-2.29-2.39-1.185-.608-2.711-1.01-4.38-1.254-3.336-.487-7.123-.326-9.591-.026l-.014-.117q-.332.053-.666.113zm15.042 1.259q.123.06.243.12c1.323.679 2.369 1.64 2.788 2.981.465 1.488 1.442 5.865 2.692 11.651.491 2.27 1.024 4.76 1.587 7.387.876 4.09 1.822 8.512 2.788 12.943 1.586 7.276 3.22 14.569 4.672 20.451.726 2.942 1.405 5.526 2.008 7.577.608 2.064 1.128 3.549 1.53 4.319 3.652 6.992 9.639 9.641 13.773 11.47.929.411 1.765.781 2.459 1.149 2.187.83 3.877 1.789 4.921 2.824 1.056 1.047 1.528 2.263.998 3.492-.499 1.154-1.823 2.146-3.86 2.971-2.062.835-4.962 1.542-8.781 2.056-7.46 1.005-16.718 1.279-25.039 1.526-2.306.068-4.54.134-6.644.213-4.866.183-9.02.433-11.794.929-1.4.25-2.378.551-2.921.894-.267.169-.373.314-.409.414-.029.081-.039.201.071.405.199.369.579.742 1.163 1.107.58.362 1.329.696 2.217 1.001 1.777.608 4.052 1.078 6.513 1.432 4.918.707 10.498.944 14.135.944h.011l.011.001c6.729.303 20.749.032 33.485-1.191 6.368-.612 12.397-1.459 17.025-2.587 2.316-.564 4.261-1.193 5.718-1.888 1.479-.706 2.356-1.435 2.681-2.144.326-.711.269-1.412-.136-2.147-.417-.758-1.202-1.544-2.313-2.343-2.217-1.595-5.569-3.129-9.284-4.552-3.706-1.419-7.731-2.712-11.274-3.836l-.82-.26c-3.18-1.008-5.92-1.876-7.544-2.56l-.009-.004-.008-.004c-1.887-.881-4.239-2.334-6.427-4.112-2.185-1.776-4.24-3.901-5.5-6.136-.644-1.142-1.374-3.362-2.131-6.163-.763-2.821-1.567-6.287-2.348-9.962-1.561-7.351-3.031-15.56-3.886-21.161l-.001-.005.448-.064-.448.064-.011-.074-.032-.22a302.262 302.262 0 0 0-.595-3.83 285 285 0 0 0-1.629-9.183c-.661-3.373-1.414-6.778-2.186-9.424-.387-1.325-.775-2.444-1.152-3.269a6 6 0 0 0-.537-.974c-.175-.245-.306-.352-.381-.387-1.175-.56-3.211-1.284-5.837-1.841" clip-rule="evenodd"/><path fill="#666" fill-rule="evenodd" d="m91.876 78.47 1.83-5.96c.53-1.74 2.17-2.81 4.14-2.71l16.99.81 16.72.8c1.91.09 3.79 1.31 4.77 3.08l3.36 6.06 4.93.21c2.58.11 4.99 2.29 5.38 4.87l12.16 79.509c.43 2.79-1.39 5.07-4.07 5.07h-60.19c-2.85 0-5.44-2.35-5.79-5.24l-9.82-82.13c-.32-2.66 1.65-4.72 4.38-4.6l5.19.23zm16.92-3.74c-.1-.78.46-1.38 1.26-1.34l10.36.48c.79.04 1.51.69 1.62 1.47s-.44 1.38-1.23 1.34l-10.38-.47c-.8-.04-1.53-.7-1.63-1.48" clip-rule="evenodd"/><path fill="#F8F8F8" d="M110.72 68.89c2.337 1.447.297 4.497-.677 5.795 1.692 0 9.439.328 9.439.328 1.265-1.43 1.746-4.145-.224-5.483-.728-.025-3.454-.188-8.538-.64"/><path fill="#EFEFEF" d="M109.453 70.338v-.003c-.106-.005-.468-.019-.726-.05.275-1.331 1.326-1.603 1.801-1.483.876.223 1.346 1.005 1.519 2.01.137.803-.369 2.204-.708 2.841-.065.124-.349.648-.898.917-1.062.523-1.621-.552-1.506-.69.091-.11.468-.383.576-.434-.088.483.507.58.811.29.908-.867 1.017-2.125 1.017-2.986 0-.56-.373-1.138-.811-1.266-.584-.17-.994.366-1.075.85.039.003.044.004 0 .004"/><path fill="#FFC509" d="m90.126 83.08 52.26 2.16c1.56.06 3.01 1.38 3.24 2.93l11.02 73.179c.25 1.67-.85 3.03-2.45 3.02l-54.06-.15c-1.7 0-3.25-1.41-3.46-3.13l-9.18-75.24c-.2-1.6.98-2.84 2.62-2.77z"/><mask id="igWhEkNBin_c" width="34" height="33" x="103" y="95" maskUnits="userSpaceOnUse" style="mask-type:alpha"><path fill="#fff" d="M118.236 95.46c8.83.32 16.96 7.669 18.23 16.499s-4.86 16.03-13.82 15.85-17.36-7.72-18.52-16.76 5.2-15.91 14.1-15.59z"/></mask><g mask="url(#igWhEkNBin_c)"><path fill="#FF9300" d="M118.236 95.46c8.83.32 16.96 7.669 18.23 16.499s-4.86 16.03-13.82 15.85-17.36-7.72-18.52-16.76 5.2-15.91 14.1-15.59z"/><path fill="#FFF9E1" fill-rule="evenodd" d="M113.576 108.719c-.48-3.61 2.03-6.44 5.6-6.32s6.84 3.11 7.34 6.7-1.98 6.46-5.56 6.36-6.9-3.12-7.39-6.74zM112.146 120.589c1.4-1.93 3.68-3 6.22-2.93l5.81.15c2.53.06 5.08 1.25 6.99 3.24.86.9 1.43 2.03 1.59 3.19l.05.34c.41 2.87-1.54 5.16-4.36 5.11l-11.13-.22c-2.86-.06-5.49-2.46-5.87-5.36l-.04-.34c-.15-1.17.11-2.3.75-3.17z" clip-rule="evenodd"/></g><path fill="#F8F8F8" d="m144.926 139.209-41.94-.63c-1.59-.02-3.04-1.34-3.24-2.93s.93-2.86 2.51-2.83l41.84.75c1.52.03 2.94 1.31 3.17 2.87s-.82 2.81-2.34 2.79zM136.876 150.169l-22.71-.22c-1.58-.02-3.04-1.33-3.24-2.94-.21-1.6.91-2.89 2.48-2.87l22.65.28c1.54.02 2.97 1.32 3.2 2.9s-.84 2.86-2.39 2.84z"/></g><defs><clipPath id="igWhEkNBin_a"><path fill="#fff" d="M0 0h240v240H0z"/></clipPath><clipPath id="igWhEkNBin_b"><rect width="200" height="200" x="20.225" y="20" fill="#fff" rx="100"/></clipPath></defs></svg>