<svg xmlns="http://www.w3.org/2000/svg" width="16" height="16" fill="none" class="persona-icon" viewBox="0 0 16 16"><path fill="currentColor" fill-rule="evenodd" d="M5.429 2.714c-.79 0-1.429.64-1.429 1.429v7.714a1.43 1.43 0 0 0 1.429 1.429h.382a.5.5 0 1 1 0 1h-.382A2.43 2.43 0 0 1 3 11.857V4.143a2.43 2.43 0 0 1 2.429-2.429H8.34c.495 0 .968.206 1.306.568L12.52 5.36c.308.33.48.766.48 1.218v1.735a.5.5 0 1 1-1 0V6.572H9.928c-.986 0-1.785-.8-1.785-1.786V2.714zm3.714.493v1.579c0 .434.352.786.785.786h1.422z" clip-rule="evenodd"/><path fill="currentColor" fill-rule="evenodd" d="M9.877 7.187c-.392 0-.76.098-1.038.345-.284.253-.405.598-.418.951V10.7a3.4 3.4 0 0 0-.701-.135.5.5 0 0 0-.105 0c-.515.056-.84.39-.994.729a1.3 1.3 0 0 0-.118.515.93.93 0 0 0 .145.539l.01.013 1.824 2.51a.5.5 0 0 0 .405.205l4.117-.001c.576 0 1.019-.428 1.276-.787.267-.373.475-.867.475-1.283v-.933c.014-.685-.26-1.148-.69-1.365a1.2 1.2 0 0 0-.387-.117 1.32 1.32 0 0 0-.715-.578 1.4 1.4 0 0 0-.634-.062 1.19 1.19 0 0 0-1.105-.54V8.5c0-.247-.092-.56-.297-.82a1.3 1.3 0 0 0-1.05-.493m-.456 4.446V8.51c.006-.142.05-.201.082-.23.038-.034.14-.093.373-.093.15 0 .22.056.267.114.061.077.08.17.08.2v1.796a.5.5 0 0 0 .948.223c.033-.066.07-.091.098-.102a.17.17 0 0 1 .112-.006c.04.011.071.034.091.061.017.024.04.07.033.156a.5.5 0 0 0 .892.348c.014-.018.088-.073.241-.02.151.051.179.138.179.17a.5.5 0 0 0 .714.452c.026 0 .057.007.084.02a.18.18 0 0 1 .078.083c.029.055.066.166.062.372v.95c0 .136-.093.428-.289.701-.205.288-.388.369-.462.369l-3.863.001-1.638-2.253a.3.3 0 0 1 .03-.117.3.3 0 0 1 .075-.102.2.2 0 0 1 .074-.037c.262.03.418.071.53.122.111.05.207.124.327.266a.5.5 0 0 0 .882-.322" clip-rule="evenodd"/></svg>