<svg xmlns="http://www.w3.org/2000/svg" width="24" height="24" fill="none" class="persona-icon" viewBox="0 0 24 24"><path fill="currentColor" fill-rule="evenodd" d="M7.889 3.5a2.333 2.333 0 0 0-2.333 2.333v12.334A2.334 2.334 0 0 0 7.889 20.5H8.5a.75.75 0 0 1 0 1.5h-.611a3.834 3.834 0 0 1-3.833-3.833V5.833A3.833 3.833 0 0 1 7.889 2h4.657c.777 0 1.52.323 2.05.891l4.594 4.922c.485.52.754 1.203.754 1.914V12.5a.75.75 0 0 1-1.5 0V9.667h-3.36a2.806 2.806 0 0 1-2.806-2.806V3.5zm5.889.712v2.65c0 .72.584 1.305 1.305 1.305h2.386z" clip-rule="evenodd"/><path fill="currentColor" fill-rule="evenodd" d="M15 10.75c-.618 0-1.194.155-1.626.54-.442.391-.632.93-.65 1.484l-.001.026v3.583c-.352-.122-.74-.19-1.176-.234a.7.7 0 0 0-.157 0c-.802.087-1.31.605-1.55 1.136-.117.26-.18.539-.184.804-.005.249.04.563.224.832l.013.02 2.918 4.012a.75.75 0 0 0 .607.31L20 23.26c.896 0 1.591-.667 2-1.237.424-.592.75-1.37.75-2.023v-1.492c.022-1.081-.409-1.8-1.077-2.137a1.9 1.9 0 0 0-.627-.186c-.252-.464-.698-.776-1.128-.924a2.15 2.15 0 0 0-1.022-.09c-.374-.624-1.098-.944-1.791-.864V12.8c0-.385-.143-.875-.465-1.281-.345-.436-.894-.769-1.64-.769m-.777 7.058v-4.994c.01-.238.082-.346.147-.403.074-.066.248-.161.63-.161.254 0 .382.096.464.2.106.133.14.293.14.35v2.873a.75.75 0 0 0 1.422.334.36.36 0 0 1 .181-.187.33.33 0 0 1 .211-.011c.074.02.134.063.173.117.035.047.073.132.061.28a.75.75 0 0 0 1.338.522c.04-.05.183-.137.442-.048.254.087.318.24.318.32a.75.75 0 0 0 1.082.672.332.332 0 0 1 .314.192c.05.096.112.283.104.619V20c0 .232-.154.708-.47 1.15-.332.463-.637.61-.78.61l-6.2.002-2.645-3.636v-.01a.6.6 0 0 1 .052-.214.41.41 0 0 1 .282-.25c.426.048.684.115.872.2.184.084.342.206.538.438a.75.75 0 0 0 1.324-.482" clip-rule="evenodd"/></svg>