<svg xmlns="http://www.w3.org/2000/svg" width="24" height="24" fill="none" class="persona-icon" viewBox="0 0 24 24"><path fill="currentColor" fill-rule="evenodd" d="M7.889 3.5a2.333 2.333 0 0 0-2.333 2.333v12.334A2.334 2.334 0 0 0 7.889 20.5H8.5a.75.75 0 0 1 0 1.5h-.611a3.834 3.834 0 0 1-3.833-3.833V5.833A3.833 3.833 0 0 1 7.889 2h4.657c.777 0 1.52.323 2.05.891l4.594 4.922c.485.52.754 1.203.754 1.914V12.5a.75.75 0 0 1-1.5 0V9.667h-3.36a2.806 2.806 0 0 1-2.806-2.806V3.5zm5.889.712v2.65c0 .72.584 1.305 1.305 1.305h2.386z" clip-rule="evenodd"/><path fill="currentColor" fill-rule="evenodd" d="M15 10.75c.746 0 1.295.333 1.64.769.322.406.465.896.465 1.281v1.507c.693-.08 1.417.24 1.791.863.357-.057.72-.013 1.022.091.43.148.876.46 1.128.924.198.022.414.079.627.186.668.336 1.1 1.056 1.077 2.137V20c0 .652-.326 1.43-.75 2.023-.409.57-1.104 1.237-2 1.237l-6.582.002a.75.75 0 0 1-.607-.309l-2.918-4.012-.013-.02c-.183-.27-.229-.583-.224-.832.005-.265.067-.544.184-.804.24-.53.748-1.049 1.55-1.136a.7.7 0 0 1 .157 0c.436.044.824.112 1.176.234v-3.609c.02-.553.209-1.093.65-1.485.434-.384 1.01-.539 1.627-.539m-.777 7.058a.75.75 0 0 1-1.324.482c-.195-.232-.354-.354-.538-.438-.188-.085-.446-.152-.872-.2a.41.41 0 0 0-.282.25.6.6 0 0 0-.052.214v.01l2.644 3.636 6.2-.002c.144 0 .45-.147.78-.61.317-.442.471-.918.471-1.15v-1.517c.008-.336-.053-.523-.104-.619a.33.33 0 0 0-.314-.192A.75.75 0 0 1 19.75 17c0-.08-.064-.233-.318-.32-.259-.088-.402-.002-.442.048a.75.75 0 0 1-1.338-.521c.012-.15-.026-.234-.06-.282a.32.32 0 0 0-.174-.116.33.33 0 0 0-.21.01.36.36 0 0 0-.182.188.75.75 0 0 1-1.421-.334V12.8a.66.66 0 0 0-.14-.35c-.083-.104-.21-.2-.465-.2-.382 0-.556.095-.63.16-.064.058-.137.166-.147.404z" clip-rule="evenodd"/></svg>