<svg xmlns="http://www.w3.org/2000/svg" width="32" height="32" fill="none" class="persona-icon" viewBox="0 0 32 32"><path fill="currentColor" fill-rule="evenodd" d="M10.857 5.429A2.857 2.857 0 0 0 8 8.285v15.428a2.86 2.86 0 0 0 2.857 2.857h.765a1 1 0 1 1 0 2h-.765A4.858 4.858 0 0 1 6 23.714V8.286a4.857 4.857 0 0 1 4.857-4.857h5.826c.99 0 1.935.41 2.61 1.134l5.747 6.157c.617.66.96 1.532.96 2.436v3.47a1 1 0 1 1-2 0v-3.483h-4.143a3.57 3.57 0 0 1-3.571-3.572V5.43zm7.429.986v3.157c0 .867.703 1.571 1.571 1.571H22.7z" clip-rule="evenodd"/><path fill="currentColor" fill-rule="evenodd" d="M19.753 14.375c.953 0 1.657.425 2.1.985.412.519.594 1.146.594 1.64v1.818c.856-.073 1.738.323 2.212 1.08a2.76 2.76 0 0 1 1.267.123c.539.185 1.103.576 1.429 1.156.246.032.512.104.774.236.86.433 1.408 1.358 1.38 2.729v1.866c0 .833-.415 1.82-.95 2.566-.514.718-1.4 1.573-2.55 1.574l-8.236.003a1 1 0 0 1-.809-.412l-3.65-5.02-.018-.026c-.238-.351-.296-.759-.29-1.078.006-.34.085-.696.236-1.03.307-.678.959-1.344 1.988-1.456a1 1 0 0 1 .21 0c.514.052.978.13 1.402.268v-4.43c.025-.706.267-1.398.835-1.902.557-.494 1.293-.69 2.076-.69m-.91 8.89a1 1 0 0 1-1.766.644c-.24-.285-.431-.431-.652-.532-.224-.103-.538-.185-1.06-.245a.4.4 0 0 0-.15.074.55.55 0 0 0-.15.203.7.7 0 0 0-.06.235l3.277 4.507 7.725-.003c.149 0 .514-.162.926-.738.391-.546.577-1.13.577-1.402v-1.899c.01-.413-.066-.636-.123-.744a.36.36 0 0 0-.325-.207 1 1 0 0 1-1.429-.903c0-.065-.055-.238-.356-.342-.308-.105-.456.004-.484.04a1 1 0 0 1-1.784-.696c.014-.172-.03-.263-.065-.31a.33.33 0 0 0-.182-.122.35.35 0 0 0-.224.01c-.055.023-.13.073-.195.205a1 1 0 0 1-1.896-.445V17a.77.77 0 0 0-.162-.4c-.091-.116-.234-.226-.532-.226-.468 0-.67.116-.748.185-.065.058-.15.176-.163.46z" clip-rule="evenodd"/></svg>