<svg xmlns="http://www.w3.org/2000/svg" width="20" height="20" fill="none"><path fill="#000" fill-rule="evenodd" d="M4.416 5.151A3.55 3.55 0 0 1 7.678 3h4.644a3.55 3.55 0 0 1 3.262 2.151l1.368 3.192a.593.593 0 0 1 .048.233c0 .705-.273 1.382-.76 1.89l-.668 6.008a.592.592 0 0 1-.588.526H5.016a.592.592 0 0 1-.588-.526l-.668-6.01A2.727 2.727 0 0 1 3 8.577c0-.08.016-.16.048-.233L4.416 5.15Zm6.417 10.666H9.168V13.44h1.665v2.377Zm1.183 0v-2.969a.592.592 0 0 0-.592-.591H8.576a.592.592 0 0 0-.592.591v2.969H5.545l-.511-4.603.031.008a2.726 2.726 0 0 0 2.799-.95A2.732 2.732 0 0 0 10 11.304a2.728 2.728 0 0 0 2.136-1.032 2.727 2.727 0 0 0 2.83.942l-.511 4.603h-2.44Zm3.348-6.149a1.507 1.507 0 0 1-.072.068l-.005.004a1.545 1.545 0 0 1-2.56-1.164.592.592 0 0 0-1.183 0 1.544 1.544 0 1 1-3.089 0 .592.592 0 1 0-1.183 0 1.545 1.545 0 0 1-3.085.112l1.316-3.07a2.366 2.366 0 0 1 2.175-1.435h4.644c.947 0 1.802.564 2.175 1.434l1.316 3.07a1.544 1.544 0 0 1-.449.981Z" clip-rule="evenodd"/></svg>