<svg xmlns="http://www.w3.org/2000/svg" width="32" height="32" fill="none"><path fill="#000" fill-rule="evenodd" d="M6.302 5.424A4 4 0 0 1 9.978 3h12.044a4 4 0 0 1 3.676 2.424l3.221 7.515a1 1 0 0 1 .081.394 5 5 0 0 1-1.419 3.49L26.228 29H5.772L4.419 16.822A4.999 4.999 0 0 1 3 13.333a1 1 0 0 1 .08-.394l3.222-7.515ZM24 18.334c.487 0 .966-.072 1.424-.208L24.438 27h-4.771v-5.667a1 1 0 0 0-1-1h-5.334a1 1 0 0 0-1 1V27H7.562l-.986-8.874A5 5 0 0 0 12 16.333a4.995 4.995 0 0 0 4 2 5 5 0 0 0 4-2 5.003 5.003 0 0 0 4 2ZM14.333 27h3.334v-4.667h-3.334V27ZM13 13.333a3 3 0 0 0 6 0 1 1 0 1 1 2 0 3 3 0 0 0 5.994.191L23.86 6.212A2 2 0 0 0 22.022 5H9.978A2 2 0 0 0 8.14 6.212l-3.134 7.312a3 3 0 0 0 5.994-.19 1 1 0 1 1 2 0Z" clip-rule="evenodd"/></svg>