<svg xmlns="http://www.w3.org/2000/svg" width="16" height="16" fill="none" class="persona-icon" viewBox="0 0 16 16"><path fill="currentColor" fill-rule="evenodd" d="M7.781 2.05a.5.5 0 0 1 .438 0l5.5 2.674a.5.5 0 0 1 .281.45v.763a.5.5 0 0 1-.5.5h-.875v4.692l1.099.549a.5.5 0 0 1 .276.447V13.5a.5.5 0 0 1-.5.5h-11a.5.5 0 0 1-.5-.5v-1.375a.5.5 0 0 1 .276-.447l1.099-.55v-4.69H2.5a.5.5 0 0 1-.5-.5v-.764a.5.5 0 0 1 .281-.45zm4.226 9.888H3.993L3 12.434V13h10v-.566zm-8.906-6.5h9.798L8 3.056zm1.274 1v4.5h1.063v-4.5zm3.125 0H6.438v4.5H7.5zm2.063 0H8.5v4.5h1.063zm1 0v4.5h1.062v-4.5z" clip-rule="evenodd"/></svg>