<svg xmlns="http://www.w3.org/2000/svg" width="20" height="20" fill="none" class="persona-icon" viewBox="0 0 20 20"><path fill="currentColor" fill-rule="evenodd" d="M9.727 3.063a.62.62 0 0 1 .545 0l6.377 3.1c.214.104.35.321.35.56v.886a.623.623 0 0 1-.622.622h-.971v5.37l1.25.625a.62.62 0 0 1 .344.557v1.594a.623.623 0 0 1-.623.623H3.622A.623.623 0 0 1 3 16.377v-1.594c0-.236.133-.452.344-.557l1.25-.625V8.23h-.972A.623.623 0 0 1 3 7.61v-.886c0-.239.136-.456.35-.56zm5.766 3.923L10 4.316l-5.493 2.67zM11.77 8.23h-1.146v5.132h1.146zm2.39 5.132.001-5.132h-1.146v5.132zm.476 1.245H5.364l-1.119.56v.586h11.509v-.586zm-6.404-1.245h1.146V8.231H8.231zM6.986 8.231H5.84v5.132h1.146z" clip-rule="evenodd"/></svg>