<svg xmlns="http://www.w3.org/2000/svg" width="24" height="24" fill="none" class="persona-icon" viewBox="0 0 24 24"><path fill="currentColor" fill-rule="evenodd" d="M11.672 3.076a.75.75 0 0 1 .656 0l8.25 4.01A.75.75 0 0 1 21 7.76v1.146a.75.75 0 0 1-.75.75h-1.312v7.037l1.647.824a.75.75 0 0 1 .415.67v2.063a.75.75 0 0 1-.75.75H3.75a.75.75 0 0 1-.75-.75v-2.062a.75.75 0 0 1 .415-.671l1.648-.824V9.656H3.75a.75.75 0 0 1-.75-.75V7.76a.75.75 0 0 1 .422-.674zm7.677 5.08L12 4.584 4.651 8.156zm-5.005 1.5H12.75v6.75h1.594zm1.5 6.75h1.594v-6.75h-1.594zm-9.854 1.5-1.49.745v.849h15v-.849l-1.49-.745zm.572-1.5h1.594v-6.75H6.562zm3.094-6.75v6.75h1.594v-6.75z" clip-rule="evenodd"/></svg>