<svg xmlns="http://www.w3.org/2000/svg" width="32" height="32" fill="none" class="persona-icon" viewBox="0 0 32 32"><path fill="currentColor" fill-rule="evenodd" d="M15.563 4.1a1 1 0 0 1 .874 0l11 5.348a1 1 0 0 1 .563.9v1.527a1 1 0 0 1-1 1h-1.75v9.382l2.197 1.099a1 1 0 0 1 .553.894V27a1 1 0 0 1-1 1H5a1 1 0 0 1-1-1v-2.75a1 1 0 0 1 .553-.894l2.197-1.099v-9.382H5a1 1 0 0 1-1-1v-1.528a1 1 0 0 1 .563-.9zm5.562 8.775v9h2.125v-9zm-2 0H17v9h2.125zm-4.125 0h-2.125v9H15zm-8.798-2h19.596L16 6.112zm17.812 13H7.986L6 24.868V26h20v-1.132zm-15.264-11v9h2.125v-9z" clip-rule="evenodd"/></svg>