<svg xmlns="http://www.w3.org/2000/svg" width="16" height="16" fill="none" class="persona-icon" viewBox="0 0 16 16"><path fill="currentColor" fill-rule="evenodd" d="M3 4.142A2.43 2.43 0 0 1 5.43 1.714H8.34c.495 0 .968.205 1.306.567L12.52 5.36c.309.331.48.766.48 1.219v3.446c.258.097.522.288.678.565.122.015.255.051.386.117.43.217.705.68.69 1.365v.933c0 .416-.207.91-.474 1.283-.257.359-.7.787-1.276.787l-4.117.001a.5.5 0 0 1-.405-.206l-.425-.584H5.43A2.43 2.43 0 0 1 3 11.857zm6.143-.935v1.579c0 .434.352.785.786.785h1.421zm.278 8.425a.5.5 0 0 1-.882.322.9.9 0 0 0-.326-.266c-.113-.05-.27-.092-.53-.122a.2.2 0 0 0-.075.037.3.3 0 0 0-.076.101.3.3 0 0 0-.03.118l1.639 2.253 3.863-.001c.074 0 .257-.081.463-.369.195-.273.288-.565.288-.701v-.95c.004-.206-.033-.318-.062-.372a.18.18 0 0 0-.162-.103.5.5 0 0 1-.714-.452c0-.032-.028-.119-.179-.17-.153-.053-.227.002-.241.02a.5.5 0 0 1-.892-.348c.006-.086-.016-.132-.033-.156a.17.17 0 0 0-.091-.06.17.17 0 0 0-.112.005c-.027.01-.065.036-.098.102a.5.5 0 0 1-.947-.223V8.5a.4.4 0 0 0-.081-.2c-.046-.057-.118-.113-.267-.113-.234 0-.335.059-.373.093-.033.029-.076.088-.082.23z" clip-rule="evenodd"/></svg>