<svg xmlns="http://www.w3.org/2000/svg" width="20" height="20" fill="none" class="persona-icon" viewBox="0 0 20 20"><path fill="currentColor" fill-rule="evenodd" d="M3.975 5.371a2.94 2.94 0 0 1 2.94-2.94h3.495c.6 0 1.175.25 1.585.69l3.447 3.693c.375.402.583.93.583 1.48v4.118a1.6 1.6 0 0 1 .804.671c.146.02.304.064.46.142.527.266.858.83.842 1.66v1.12c0 .507-.252 1.103-.575 1.554-.31.433-.848.954-1.551.955l-4.941.002a.63.63 0 0 1-.506-.258l-.502-.69H6.915a2.94 2.94 0 0 1-2.94-2.94zm7.755 8.988a.625.625 0 0 1-1.103.402 1.06 1.06 0 0 0-.382-.312c-.131-.06-.315-.108-.624-.144a.2.2 0 0 0-.076.038.3.3 0 0 0-.083.113.4.4 0 0 0-.033.123l1.953 2.686 4.622-.001c.077 0 .29-.089.536-.432.233-.326.34-.671.34-.827v-1.14c.006-.245-.038-.374-.07-.434a.19.19 0 0 0-.167-.11.625.625 0 0 1-.888-.568c0-.025-.023-.122-.197-.181a.4.4 0 0 0-.195-.02c-.043.01-.058.024-.067.035a.625.625 0 0 1-1.115-.434c.007-.098-.018-.147-.035-.17a.18.18 0 0 0-.096-.064.2.2 0 0 0-.118.005c-.027.011-.067.037-.104.111a.625.625 0 0 1-1.185-.278v-2.164l-.003-.02a.458.458 0 0 0-.088-.196.3.3 0 0 0-.105-.088.4.4 0 0 0-.195-.04c-.277 0-.392.07-.432.106-.033.029-.082.092-.09.258zm-.334-10.047v1.831c0 .507.411.918.918.918h1.648z" clip-rule="evenodd"/></svg>