<svg xmlns="http://www.w3.org/2000/svg" width="24" height="24" fill="none" class="persona-icon" viewBox="0 0 24 24"><path fill="currentColor" fill-rule="evenodd" d="M4.056 5.834A3.833 3.833 0 0 1 7.889 2h4.657a2.8 2.8 0 0 1 2.05.892l4.594 4.92a2.8 2.8 0 0 1 .754 1.915v5.543c.422.151.855.46 1.102.915.198.022.414.079.627.186.668.336 1.1 1.056 1.077 2.137V20c0 .652-.326 1.43-.75 2.023-.409.57-1.104 1.237-2 1.237l-6.582.002a.75.75 0 0 1-.607-.309L12.118 22H7.889a3.833 3.833 0 0 1-3.833-3.833zm10.167 11.974a.75.75 0 0 1-1.324.482c-.195-.232-.354-.354-.538-.438-.188-.085-.446-.152-.872-.2a.41.41 0 0 0-.282.25.6.6 0 0 0-.052.214v.01l2.644 3.636 6.2-.002c.144 0 .45-.147.78-.61.317-.442.471-.918.471-1.15v-1.517c.008-.336-.053-.523-.104-.619a.33.33 0 0 0-.314-.192A.75.75 0 0 1 19.75 17c0-.08-.064-.233-.318-.32-.259-.088-.402-.002-.442.048a.75.75 0 0 1-1.338-.521c.012-.15-.026-.234-.06-.282a.32.32 0 0 0-.174-.116.33.33 0 0 0-.21.01.36.36 0 0 0-.182.188.75.75 0 0 1-1.421-.334V12.8a.66.66 0 0 0-.14-.35c-.083-.104-.21-.2-.465-.2-.382 0-.556.095-.63.16-.064.058-.137.166-.147.404zm.86-9.64h2.386l-3.691-3.955v2.649c0 .72.584 1.305 1.305 1.305" clip-rule="evenodd"/></svg>