<svg xmlns="http://www.w3.org/2000/svg" width="32" height="32" fill="none" class="persona-icon" viewBox="0 0 32 32"><path fill="currentColor" fill-rule="evenodd" d="M6 8.285a4.857 4.857 0 0 1 4.857-4.857h5.826c.99 0 1.935.41 2.61 1.135l5.747 6.156c.617.661.96 1.532.96 2.437v6.892c.516.195 1.044.576 1.355 1.13.246.03.512.103.774.235.86.433 1.408 1.358 1.38 2.729v1.866c0 .833-.415 1.82-.95 2.566-.514.718-1.4 1.573-2.55 1.574l-8.236.003a1 1 0 0 1-.809-.412l-.849-1.168h-5.258A4.857 4.857 0 0 1 6 23.714zm12.842 14.98a1 1 0 0 1-1.765.644c-.24-.285-.431-.431-.652-.532-.224-.103-.538-.185-1.06-.245a.4.4 0 0 0-.15.074.55.55 0 0 0-.15.203.7.7 0 0 0-.06.235l3.277 4.507 7.725-.003c.149 0 .514-.162.926-.738.391-.546.577-1.13.577-1.402v-1.899c.01-.413-.066-.636-.123-.744a.36.36 0 0 0-.325-.207 1 1 0 0 1-1.429-.903c0-.065-.055-.239-.356-.342-.308-.105-.456.004-.484.04a1 1 0 0 1-1.784-.696c.014-.172-.03-.263-.065-.31a.33.33 0 0 0-.182-.123.34.34 0 0 0-.224.011c-.055.023-.13.073-.195.205a1 1 0 0 1-1.896-.445V17a.77.77 0 0 0-.162-.4c-.091-.116-.234-.226-.532-.226-.468 0-.67.116-.748.185-.065.058-.15.176-.163.46zm-.556-16.851V9.57c0 .868.703 1.572 1.571 1.572H22.7z" clip-rule="evenodd"/></svg>