<svg xmlns="http://www.w3.org/2000/svg" width="32" height="32" fill="none"><path fill="#000" d="M16.868 16.186c-.272.161-.338.316-.338.49 0 .56-.448 1.013-1 1.013s-1-.454-1-1.014c0-1.061.6-1.808 1.329-2.239.697-.412 1.552-.576 2.338-.576.785 0 1.64.164 2.338.576.728.431 1.328 1.178 1.328 2.24 0 1.149-.497 2.037-1.246 2.61-.429.328-.92.54-1.42.657v.336c0 .56-.448 1.013-1 1.013s-1-.453-1-1.013v-1.235c0-.56.448-1.014 1-1.014.48 0 .92-.137 1.215-.362.261-.2.451-.496.451-.993 0-.173-.066-.328-.337-.489-.304-.18-.781-.3-1.33-.3-.547 0-1.025.12-1.328.3ZM18.197 25.06c.736 0 1.333-.606 1.333-1.352 0-.746-.597-1.351-1.333-1.351-.737 0-1.334.605-1.334 1.35 0 .747.597 1.352 1.334 1.352Z"/><path fill="#000" fill-rule="evenodd" d="M9.333 3.5c-2.761 0-5 2.269-5 5.068v9.22l-1.227 2.489c-.155.314-.139.687.043.986.183.298.504.48.851.48h4.333v1.69c0 2.798 2.239 5.067 5 5.067H28a.997.997 0 0 0 .85-.48c.183-.3.2-.673.044-.987l-1.227-2.489v-9.22c0-2.451-1.718-4.496-4-4.966v-1.79c0-2.8-2.239-5.068-5-5.068H9.333Zm1 17.243v-5.419c0-1.679 1.344-3.04 3-3.04h9.349c1.65.008 2.985 1.366 2.985 3.04v9.699l.715 1.45H13.333c-1.657 0-3-1.361-3-3.04v-2.69Zm11.334-10.486v-1.69c0-1.679-1.343-3.04-3-3.04H9.333c-1.657 0-3 1.361-3 3.04v9.46c0 .157-.036.313-.105.453l-.61 1.236h2.715v-4.392c0-2.799 2.239-5.067 5-5.067h8.334Z" clip-rule="evenodd"/></svg>