<svg xmlns="http://www.w3.org/2000/svg" width="20" height="20" fill="none" class="persona-icon" viewBox="0 0 20 20"><path fill="currentColor" fill-rule="evenodd" d="M6.531 7.692c1.037-1.587 2.44-3.096 4.2-3.977.678-.34 1.59-.513 2.461-.61a26 26 0 0 1 2.53-.128 1.29 1.29 0 0 1 1.3 1.301c-.005.726-.03 1.643-.128 2.53-.096.872-.27 1.784-.608 2.463-.757 1.513-1.977 2.762-3.313 3.741q.01.054.01.11v2.604c0 .298-.21.554-.502.613l-3.369.674a.625.625 0 0 1-.747-.613v-1.052c-.462.144-.895.252-1.285.323a.63.63 0 0 1-.553-.173l-2.022-2.021a.63.63 0 0 1-.172-.554q.053-.291.133-.611H3.6a.625.625 0 0 1-.613-.748l.674-3.37a.625.625 0 0 1 .613-.502zm-.75 1.25h-.995l-.424 2.12h.479c.242-.66.565-1.414.94-2.12m2.925 4.965c-.81-1.27-2.066-2.066-2.657-2.32l-.05-.024c-.162.456-.286.884-.372 1.267l1.546 1.547c.457-.103.978-.26 1.533-.47m7.067-9.64a.04.04 0 0 0-.04-.04c-.713.006-1.58.03-2.404.121-.84.093-1.568.25-2.039.485-1.576.788-2.878 2.207-3.857 3.769a1 1 0 0 1-.036.062l-.035.052a15 15 0 0 0-.898 1.695 1 1 0 0 1 .077.027c.769.33 2.349 1.325 3.327 2.973.47-.224.948-.481 1.42-.772 1.605-.986 3.073-2.313 3.88-3.927.235-.472.391-1.2.484-2.04.09-.825.115-1.692.121-2.404M9.615 15.159v.48l2.118-.424v-.996c-.706.376-1.458.699-2.118.94m.77-7.515a1.973 1.973 0 1 1 3.946 0 1.973 1.973 0 0 1-3.945 0m1.973-.722a.723.723 0 1 0 0 1.445.723.723 0 0 0 0-1.445" clip-rule="evenodd"/></svg>