<svg xmlns="http://www.w3.org/2000/svg" width="20" height="20" fill="none" class="persona-icon" viewBox="0 0 20 20"><path fill="currentColor" fill-rule="evenodd" d="M6.531 7.692H4.274a.625.625 0 0 0-.613.503l-.674 3.37a.625.625 0 0 0 .613.747h.866a10 10 0 0 0-.133.61.63.63 0 0 0 .172.554l2.022 2.022c.144.145.351.21.553.173.39-.07.823-.179 1.285-.323V16.4a.625.625 0 0 0 .747.613l3.369-.674a.625.625 0 0 0 .502-.613v-2.604a1 1 0 0 0-.01-.11c1.336-.98 2.556-2.228 3.312-3.741.34-.679.513-1.59.61-2.462.097-.888.122-1.805.128-2.53a1.29 1.29 0 0 0-1.301-1.302c-.726.006-1.643.03-2.53.129-.871.096-1.783.27-2.461.609-1.76.88-3.163 2.39-4.2 3.977m-.75 1.25c-.375.706-.698 1.46-.94 2.12h-.479l.424-2.12zm2.925 4.965c-.555.21-1.076.367-1.533.47L5.627 12.83c.086-.383.21-.81.372-1.267l.05.024c.59.254 1.848 1.05 2.657 2.32m7.067-9.64c-.006.713-.03 1.58-.121 2.405-.093.84-.249 1.568-.485 2.04-.806 1.614-2.274 2.941-3.878 3.927-.473.29-.951.548-1.42.772-.98-1.648-2.56-2.643-3.328-2.972a1 1 0 0 0-.077-.028c.252-.557.552-1.13.898-1.695l.035-.052a1 1 0 0 0 .036-.062c.979-1.562 2.281-2.98 3.857-3.77.471-.235 1.2-.39 2.04-.484a24 24 0 0 1 2.402-.12.04.04 0 0 1 .041.04M9.615 15.159c.66-.241 1.412-.564 2.118-.94v.996l-2.118.423zm.77-7.515a1.973 1.973 0 1 0 3.946 0 1.973 1.973 0 0 0-3.945 0m1.973-.722a.723.723 0 1 1 0 1.445.723.723 0 0 1 0-1.445" clip-rule="evenodd"/></svg>