<svg xmlns="http://www.w3.org/2000/svg" width="24" height="24" fill="none" class="persona-icon" viewBox="0 0 24 24"><path fill="currentColor" fill-rule="evenodd" d="M7.558 9.08c1.335-2.05 3.142-3.998 5.41-5.132.864-.433 2.031-.656 3.153-.78 1.14-.126 2.32-.157 3.255-.165a1.607 1.607 0 0 1 1.621 1.621c-.008.935-.04 2.115-.165 3.256-.124 1.122-.347 2.29-.78 3.155-.975 1.952-2.553 3.562-4.281 4.824q.018.081.018.166v3.356a.75.75 0 0 1-.602.736l-4.342.868a.75.75 0 0 1-.898-.735v-1.433c-.62.198-1.2.344-1.72.439a.75.75 0 0 1-.665-.208l-2.606-2.606a.75.75 0 0 1-.207-.664q.074-.405.188-.854H3.75a.75.75 0 0 1-.735-.896l.868-4.344a.75.75 0 0 1 .735-.603zm-.904 1.5h-1.42l-.57 2.845h.724c.322-.884.758-1.9 1.266-2.844m3.761 6.485c-1.049-1.683-2.709-2.736-3.487-3.07a1 1 0 0 1-.116-.062 15 15 0 0 0-.51 1.733l2.036 2.037c.616-.137 1.323-.35 2.077-.638M19.497 4.61a.107.107 0 0 0-.108-.108c-.918.008-2.038.039-3.104.156-1.084.12-2.03.322-2.647.63-2.044 1.023-3.73 2.863-4.996 4.881a1 1 0 0 1-.044.077l-.046.068c-.46.75-.857 1.514-1.19 2.254q.08.014.157.047c.99.425 3.038 1.716 4.289 3.853a20 20 0 0 0 1.882-1.02c2.073-1.274 3.975-2.992 5.02-5.085.31-.617.511-1.563.63-2.648.118-1.066.15-2.186.157-3.105m-8.05 14v.724l2.843-.569v-1.421c-.944.508-1.96.944-2.843 1.266m1.106-9.649a2.487 2.487 0 1 1 4.974 0 2.487 2.487 0 0 1-4.974 0m2.486-.987a.987.987 0 1 0 .001 1.974.987.987 0 0 0 0-1.974" clip-rule="evenodd"/></svg>