<svg xmlns="http://www.w3.org/2000/svg" width="24" height="24" fill="none" class="persona-icon" viewBox="0 0 24 24"><path fill="currentColor" fill-rule="evenodd" d="M7.558 9.08h-2.94a.75.75 0 0 0-.735.604l-.868 4.344a.75.75 0 0 0 .735.896h1.187q-.115.45-.188.854a.75.75 0 0 0 .207.664l2.606 2.606a.75.75 0 0 0 .664.208c.52-.095 1.101-.241 1.721-.439v1.433a.75.75 0 0 0 .898.735l4.342-.868a.75.75 0 0 0 .603-.736v-3.356a.8.8 0 0 0-.019-.166c1.728-1.262 3.306-2.872 4.281-4.824.433-.865.656-2.033.78-3.155.126-1.141.157-2.32.165-3.256a1.607 1.607 0 0 0-1.621-1.621c-.935.008-2.114.04-3.255.165-1.122.124-2.289.347-3.154.78C10.7 5.082 8.893 7.03 7.558 9.08m-.904 1.5c-.508.945-.944 1.96-1.266 2.845h-.723l.568-2.844zm3.761 6.485c-.754.288-1.461.501-2.077.638l-2.036-2.037c.116-.521.286-1.108.51-1.733a1 1 0 0 0 .116.062c.778.334 2.438 1.388 3.487 3.07M19.497 4.61c-.008.919-.039 2.039-.156 3.105-.12 1.085-.322 2.031-.63 2.648-1.046 2.093-2.948 3.811-5.021 5.086-.625.384-1.26.724-1.882 1.02-1.251-2.138-3.298-3.429-4.289-3.853a.8.8 0 0 0-.156-.048c.332-.74.729-1.503 1.19-2.254q.022-.034.045-.068a1 1 0 0 0 .044-.077c1.265-2.018 2.952-3.858 4.996-4.88.617-.309 1.563-.51 2.647-.63 1.066-.118 2.186-.15 3.104-.157.06 0 .109.048.108.108m-8.05 14a22 22 0 0 0 2.843-1.267v1.422l-2.843.569zm1.106-9.649a2.487 2.487 0 1 0 4.974 0 2.487 2.487 0 0 0-4.974 0m2.486-.987a.987.987 0 1 1 0 1.974.987.987 0 0 1 0-1.974" clip-rule="evenodd"/></svg>