<svg xmlns="http://www.w3.org/2000/svg" width="24" height="24" fill="none" class="persona-icon" viewBox="0 0 24 24"><path fill="currentColor" fill-rule="evenodd" d="M20.29 2A1.695 1.695 0 0 1 22 3.71c-.01 1.05-.044 2.371-.185 3.648-.14 1.258-.388 2.553-.865 3.507-1.353 2.708-3.752 4.83-6.225 6.351-2.475 1.521-5.096 2.483-6.983 2.826a.732.732 0 0 1-.649-.202l-2.927-2.928a.733.733 0 0 1-.203-.65c.344-1.888 1.305-4.509 2.826-6.985 1.52-2.473 3.642-4.873 6.349-6.227.953-.477 2.248-.726 3.506-.864C17.92 2.045 19.24 2.009 20.29 2Zm.246 1.698a.232.232 0 0 0-.233-.234c-1.033.009-2.296.044-3.498.177-1.222.135-2.301.363-3.012.719-2.377 1.188-4.32 3.344-5.757 5.684-1.335 2.172-2.196 4.442-2.558 6.11l2.373 2.373c1.667-.362 3.936-1.223 6.108-2.558 2.34-1.438 4.494-3.382 5.682-5.759.356-.711.584-1.791.719-3.013.133-1.203.167-2.466.176-3.5Z" clip-rule="evenodd"/><path fill="currentColor" fill-rule="evenodd" d="M12.733 8.585a2.684 2.684 0 1 1 5.368 0 2.684 2.684 0 0 1-5.368 0Zm2.684-1.22a1.22 1.22 0 1 0 0 2.44 1.22 1.22 0 0 0 0-2.44ZM2.99 9.418a.732.732 0 0 1 .718-.589h3.77a.732.732 0 0 1 .608 1.138c-.928 1.393-1.745 3.28-2.22 4.706-.1.3-.38.5-.695.5h-2.44a.732.732 0 0 1-.717-.875l.976-4.88Zm1.317.876-.683 3.416h1.027c.38-1.057.91-2.291 1.53-3.417H4.309ZM15.56 21.01a.732.732 0 0 0 .588-.718V16.52a.732.732 0 0 0-1.137-.61c-1.393.93-3.28 1.747-4.704 2.222-.3.1-.5.38-.5.695v2.44a.732.732 0 0 0 .874.718l4.88-.976Zm-.875-1.318-3.415.683v-1.026c1.056-.381 2.29-.912 3.415-1.532v1.875Z" clip-rule="evenodd"/><path fill="currentColor" fill-rule="evenodd" d="M5.962 13.177a.732.732 0 0 1 .961-.384c1.243.533 3.994 2.301 5.263 5.265a.732.732 0 0 1-1.345.576c-1.072-2.502-3.46-4.052-4.494-4.495a.732.732 0 0 1-.385-.962Z" clip-rule="evenodd"/></svg>