<svg xmlns="http://www.w3.org/2000/svg" width="32" height="32" fill="none" class="persona-icon" viewBox="0 0 32 32"><path fill="currentColor" fill-rule="evenodd" d="M10.078 12.108h-3.92a1 1 0 0 0-.98.804l-1.159 5.791A1 1 0 0 0 5 19.9h1.583q-.153.6-.251 1.138a1 1 0 0 0 .277.886l3.473 3.475a1 1 0 0 0 .886.277 19 19 0 0 0 2.295-.585V27a1 1 0 0 0 1.196.98l5.79-1.158a1 1 0 0 0 .804-.98v-4.475q0-.113-.025-.221c2.303-1.683 4.408-3.83 5.709-6.433.576-1.153.873-2.71 1.039-4.206.168-1.522.21-3.095.22-4.341a2.143 2.143 0 0 0-2.161-2.162c-1.247.01-2.82.053-4.34.22-1.496.166-3.052.463-4.206 1.04-3.023 1.512-5.432 4.11-7.211 6.844m-1.205 2a29.6 29.6 0 0 0-1.688 3.791H6.22l.758-3.791zm5.014 8.645a20 20 0 0 1-2.77.851l-2.715-2.716c.155-.695.382-1.477.68-2.31q.074.046.156.082c1.037.445 3.25 1.85 4.649 4.093m12.11-16.605c-.011 1.225-.052 2.719-.21 4.14-.159 1.446-.428 2.709-.84 3.531-1.394 2.791-3.93 5.081-6.694 6.78a26 26 0 0 1-2.509 1.36c-1.668-2.85-4.397-4.57-5.718-5.137a1 1 0 0 0-.209-.064c.442-.986.972-2.004 1.586-3.004l.06-.091a1 1 0 0 0 .06-.103c1.687-2.691 3.935-5.144 6.661-6.507.822-.412 2.084-.68 3.53-.84 1.42-.157 2.913-.199 4.138-.21.08 0 .145.065.144.145M15.262 24.814a29.5 29.5 0 0 0 3.79-1.688v1.896l-3.79.758zm1.474-12.864a3.316 3.316 0 1 1 6.632-.001 3.316 3.316 0 0 1-6.632 0m3.316-1.317a1.316 1.316 0 1 1-.001 2.632 1.316 1.316 0 0 1 0-2.632" clip-rule="evenodd"/></svg>