<svg xmlns="http://www.w3.org/2000/svg" width="32" height="32" fill="none" class="persona-icon" viewBox="0 0 32 32"><path fill="currentColor" fill-rule="evenodd" d="M10.078 12.108c1.78-2.734 4.188-5.332 7.212-6.844 1.153-.577 2.709-.874 4.204-1.04 1.522-.168 3.094-.21 4.34-.22a2.143 2.143 0 0 1 2.162 2.162c-.01 1.246-.052 2.82-.22 4.341-.166 1.496-.463 3.053-1.04 4.206-1.3 2.603-3.405 4.75-5.708 6.433q.024.109.025.22v4.476a1 1 0 0 1-.804.98l-5.79 1.159A1 1 0 0 1 13.263 27v-1.91c-.826.263-1.601.459-2.295.585a1 1 0 0 1-.886-.277L6.61 21.923a1 1 0 0 1-.277-.886q.098-.54.251-1.138H5a1 1 0 0 1-.98-1.196l1.157-5.791a1 1 0 0 1 .98-.804zm3.809 10.645c-1.399-2.243-3.612-3.648-4.65-4.093a1 1 0 0 1-.154-.083 19.5 19.5 0 0 0-.68 2.311l2.714 2.716a20 20 0 0 0 2.77-.85m12.11-16.605a.143.143 0 0 0-.145-.144c-1.225.01-2.718.052-4.138.209-1.446.16-2.708.428-3.53.84-2.726 1.363-4.975 3.816-6.66 6.507a1 1 0 0 1-.06.103l-.06.09c-.615 1.001-1.145 2.02-1.587 3.005q.105.02.209.064c1.32.566 4.05 2.287 5.718 5.137a26 26 0 0 0 2.51-1.36c2.763-1.699 5.299-3.989 6.694-6.78.41-.822.68-2.085.84-3.531.157-1.421.198-2.915.208-4.14M15.262 24.814v.966l3.79-.758v-1.896a29.5 29.5 0 0 1-3.79 1.688m-6.39-10.706H6.978l-.758 3.791h.965a29.6 29.6 0 0 1 1.688-3.791m7.864-2.158a3.316 3.316 0 1 1 6.632-.001 3.316 3.316 0 0 1-6.632 0m3.316-1.317a1.316 1.316 0 1 0 0 2.632 1.316 1.316 0 0 0 0-2.632" clip-rule="evenodd"/></svg>