<svg xmlns="http://www.w3.org/2000/svg" width="32" height="32" fill="none" class="persona-icon" viewBox="0 0 32 32"><path fill="currentColor" d="M8.82 2.802A1.05 1.05 0 0 1 9.84 2H21.6a1.05 1.05 0 0 1 .936 1.526l-3.705 7.298H25.8a1.05 1.05 0 0 1 .82 1.706l-3.898 4.87a1.05 1.05 0 0 1-1.542.106L8.674 5.637a1.05 1.05 0 0 1-.298-1.009zM19.728 21.142l6.565 6.565a1 1 0 0 0 1.414-1.414l-22-22a1 1 0 0 0-1.414 1.414l3.084 3.084a1 1 0 0 0-.046.144L5.18 17.798a1.05 1.05 0 0 0 1.02 1.298h6.839l-1.933 9.649a1.05 1.05 0 0 0 1.85.862z"/></svg>