<svg xmlns="http://www.w3.org/2000/svg" width="16" height="16" fill="none" class="persona-icon" viewBox="0 0 16 16"><path fill="currentColor" fill-rule="evenodd" d="M5.405.851a.5.5 0 0 1 .5.5V1.5H7.5v-.149a.5.5 0 0 1 1 0V1.5h1.595v-.149a.5.5 0 1 1 1 0v.186A2.5 2.5 0 0 1 13.167 4v2.525h-.003c-.71.102-1.242.484-1.556.799L7.61 11.32a1.5 1.5 0 0 0-.44 1.061v1.665q.001.235.071.454H5.333a2.5 2.5 0 0 1-2.5-2.5V4a2.5 2.5 0 0 1 2.072-2.463V1.35a.5.5 0 0 1 .5-.5m-.5 1.71A1.5 1.5 0 0 0 3.833 4v.62h8.334V4a1.5 1.5 0 0 0-1.072-1.438v.735a.5.5 0 0 1-1 0V2.5H8.5v.797a.5.5 0 0 1-1 0V2.5H5.905v.797a.5.5 0 0 1-1 0z" clip-rule="evenodd"/><path fill="currentColor" fill-rule="evenodd" d="M14.687 8.031c-.434-.434-.92-.582-1.382-.516-.43.062-.774.3-.99.516l-3.997 3.997a.5.5 0 0 0-.146.353v1.665a.5.5 0 0 0 .5.5h1.665a.5.5 0 0 0 .354-.146l3.996-3.997c.216-.216.455-.559.516-.99.066-.461-.082-.948-.516-1.382m-2.817 1.86.958.957-2.698 2.698h-.958v-.958z" clip-rule="evenodd"/></svg>