<svg xmlns="http://www.w3.org/2000/svg" width="20" height="20" fill="none" class="persona-icon" viewBox="0 0 20 20"><path fill="currentColor" fill-rule="evenodd" d="M7.016 1.73c.345 0 .625.28.625.624v.121h1.734v-.12a.625.625 0 1 1 1.25 0v.12h1.734v-.12a.625.625 0 1 1 1.25 0v.17A2.926 2.926 0 0 1 15.992 5.4v2.746l-.075.01c-.859.122-1.498.584-1.874.96l-4.596 4.597c-.352.351-.55.828-.55 1.325v1.915q.002.301.09.572H6.932A2.925 2.925 0 0 1 4.008 14.6V5.4c0-1.43 1.027-2.62 2.383-2.875v-.17c0-.346.28-.626.625-.626m-.625 2.085A1.68 1.68 0 0 0 5.258 5.4v.664h9.484V5.4c0-.735-.474-1.36-1.133-1.585v.777a.625.625 0 0 1-1.25 0v-.867h-1.734v.867a.625.625 0 1 1-1.25 0v-.867H7.64v.867a.625.625 0 1 1-1.25 0z" clip-rule="evenodd"/><path fill="currentColor" fill-rule="evenodd" d="M17.726 10c-.51-.509-1.085-.685-1.632-.607-.51.073-.914.354-1.168.607l-4.595 4.596a.63.63 0 0 0-.183.442v1.915c0 .346.28.625.625.625h1.915a.63.63 0 0 0 .441-.183l4.597-4.596c.253-.253.534-.657.607-1.167.078-.547-.098-1.122-.607-1.632m-3.276 2.244 1.032 1.031-3.053 3.053h-1.031v-1.03z" clip-rule="evenodd"/></svg>