<svg xmlns="http://www.w3.org/2000/svg" width="32" height="32" fill="none" class="persona-icon" viewBox="0 0 32 32"><path fill="currentColor" fill-rule="evenodd" d="M11.027 2.257a1 1 0 0 1 1 1V3.5H15v-.243a1 1 0 1 1 2 0V3.5h2.973v-.243a1 1 0 1 1 2 0v.32a4.835 4.835 0 0 1 3.971 4.756v4.707l-.064.01c-1.397.199-2.439.95-3.054 1.566l-7.66 7.66a3 3 0 0 0-.879 2.121v3.192c0 .312.05.619.142.911h-3.54a4.833 4.833 0 0 1-4.834-4.833V8.333a4.835 4.835 0 0 1 3.972-4.756v-.32a1 1 0 0 1 1-1m-1 3.376a2.835 2.835 0 0 0-1.972 2.7v1.149h15.89V8.333a2.83 2.83 0 0 0-1.972-2.7v1.354a1 1 0 1 1-2 0V5.5H17v1.487a1 1 0 1 1-2 0V5.5h-2.973v1.487a1 1 0 0 1-2 0z" clip-rule="evenodd"/><path fill="currentColor" fill-rule="evenodd" d="M28.847 16.03c.84.84 1.129 1.786 1 2.684-.12.838-.583 1.504-1 1.922l-7.66 7.66a1 1 0 0 1-.708.293h-3.191a1 1 0 0 1-1-1v-3.192a1 1 0 0 1 .293-.707l7.66-7.66c.417-.418 1.084-.881 1.922-1 .898-.13 1.843.16 2.683 1m-5.43 3.652-5.13 5.13v1.777h1.778l5.13-5.13z" clip-rule="evenodd"/></svg>