<svg xmlns="http://www.w3.org/2000/svg" width="16" height="16" fill="none" class="persona-icon" viewBox="0 0 16 16"><path fill="currentColor" fill-rule="evenodd" d="M3.861 4.945a2.945 2.945 0 1 1 5.89 0 2.945 2.945 0 0 1-5.89 0M6.806 3a1.945 1.945 0 1 0 0 3.89 1.945 1.945 0 0 0 0-3.89" clip-rule="evenodd"/><path fill="currentColor" d="M5.523 9.722c-.85 0-1.656.372-2.208 1.018a1.2 1.2 0 0 0-.287.78v.147c0 .736.597 1.333 1.333 1.333h2.217a.5.5 0 0 1 0 1H4.36a2.333 2.333 0 0 1-2.333-2.333v-.147c0-.524.187-1.03.527-1.43a3.9 3.9 0 0 1 2.968-1.368h1.055a.5.5 0 0 1 0 1zM12.293 11.089c0 .566-.46 1.026-1.03 1.026-.569 0-1.03-.46-1.03-1.026s.461-1.026 1.03-1.026c.57 0 1.03.46 1.03 1.026"/><path fill="currentColor" fill-rule="evenodd" d="M11.041 7.513c-.508 0-.948.352-1.059.848l-.019.086c-.004.018-.026.065-.102.107l-.115.066c-.075.046-.127.042-.144.036l-.15-.047A1.085 1.085 0 0 0 8.19 9.1l-.215.372a1.085 1.085 0 0 0 .207 1.346l.133.122c.014.012.043.053.042.139v.01q0 .072.004.142c.004.091-.027.136-.04.149l-.14.127a1.085 1.085 0 0 0-.207 1.345l.216.372c.254.44.779.643 1.263.491l.329-.103c.007-.002.041-.008.098.023q.045.025.064.05a.1.1 0 0 1 .016.028l.024.104c.11.496.55.849 1.058.849h.436c.508 0 .948-.353 1.06-.849l.022-.103q-.001-.006.017-.029a.2.2 0 0 1 .064-.05c.057-.03.091-.025.099-.023l.329.103a1.085 1.085 0 0 0 1.263-.49l.215-.373a1.085 1.085 0 0 0-.207-1.345l-.14-.127c-.013-.013-.044-.058-.04-.15l.004-.14v-.012c0-.085.029-.126.042-.138l.133-.122c.377-.344.463-.904.207-1.346L14.33 9.1a1.085 1.085 0 0 0-1.263-.49l-.15.046c-.017.006-.069.01-.143-.036l-.116-.067c-.077-.042-.099-.088-.103-.106l-.019-.086a1.085 1.085 0 0 0-1.059-.849zm-.082 1.066a.085.085 0 0 1 .082-.067h.436c.04 0 .074.028.083.067l.02.085c.08.363.332.62.597.766l.076.044c.259.158.608.248.963.136l.15-.046a.085.085 0 0 1 .099.038l.215.372a.085.085 0 0 1-.016.105l-.133.122a1.18 1.18 0 0 0-.368.881v.007q0 .047-.002.093c-.015.313.08.676.365.936l.139.127c.03.027.036.071.016.106l-.215.372a.085.085 0 0 1-.1.038l-.328-.103c-.317-.1-.63-.034-.873.097-.258.139-.503.39-.582.741l-.023.103a.085.085 0 0 1-.083.067h-.436a.085.085 0 0 1-.082-.067l-.024-.104a1.14 1.14 0 0 0-.581-.74 1.13 1.13 0 0 0-.872-.097l-.33.103a.085.085 0 0 1-.098-.038l-.216-.372a.085.085 0 0 1 .016-.106l.14-.127c.285-.26.38-.623.365-.936l-.003-.093v-.007a1.18 1.18 0 0 0-.367-.88l-.134-.123a.085.085 0 0 1-.016-.105l.215-.372a.085.085 0 0 1 .1-.038l.149.046c.355.112.705.022.963-.136q.037-.023.076-.043c.264-.146.516-.404.597-.766z" clip-rule="evenodd"/><path fill="currentColor" d="M10.568 2.521a.5.5 0 1 0 0 1 1.167 1.167 0 0 1 0 2.333.5.5 0 1 0 0 1 2.167 2.167 0 1 0 0-4.333"/></svg>