<svg xmlns="http://www.w3.org/2000/svg" width="20" height="20" fill="none" class="persona-icon" viewBox="0 0 20 20"><path fill="currentColor" fill-rule="evenodd" d="M5.144 6.492a3.517 3.517 0 1 1 7.033 0 3.517 3.517 0 0 1-7.033 0M8.66 4.225a2.267 2.267 0 1 0 0 4.534 2.267 2.267 0 0 0 0-4.534" clip-rule="evenodd"/><path fill="currentColor" d="M7.143 12.177a3.4 3.4 0 0 0-2.586 1.193c-.214.25-.332.57-.332.9v.174c0 .853.691 1.544 1.544 1.544H8.39a.625.625 0 1 1 0 1.25H5.769a2.794 2.794 0 0 1-2.794-2.794v-.174c0-.627.224-1.235.632-1.712a4.65 4.65 0 0 1 3.536-1.63H8.39a.625.625 0 0 1 0 1.25zM15.152 13.76c0 .67-.546 1.213-1.219 1.213a1.216 1.216 0 0 1-1.218-1.213c0-.67.545-1.213 1.218-1.213s1.219.543 1.219 1.213"/><path fill="currentColor" fill-rule="evenodd" d="M13.672 9.52c-.606 0-1.13.42-1.261 1.01l-.023.102c-.004.019-.028.072-.118.121l-.136.079c-.087.053-.145.047-.163.041l-.177-.055a1.29 1.29 0 0 0-1.504.585l-.255.44a1.29 1.29 0 0 0 .246 1.602l.159.144c.013.013.047.06.046.158v.013q0 .084.005.168c.005.106-.031.156-.045.17l-.165.15a1.29 1.29 0 0 0-.247 1.602l.255.44c.303.523.928.765 1.505.585l.389-.122c.006-.002.044-.01.11.026.034.018.058.04.073.057a.1.1 0 0 1 .017.03l.028.123c.131.59.655 1.01 1.26 1.01h.516c.605 0 1.13-.42 1.261-1.01l.027-.122q-.002-.005.018-.03a.3.3 0 0 1 .073-.058c.067-.036.104-.028.11-.026l.39.122a1.29 1.29 0 0 0 1.504-.585l.255-.44a1.29 1.29 0 0 0-.246-1.602l-.165-.15c-.015-.014-.05-.064-.045-.17q.004-.084.004-.168v-.013c0-.1.033-.145.047-.158l.158-.144c.448-.41.55-1.077.246-1.602l-.255-.44a1.29 1.29 0 0 0-1.504-.585l-.177.055c-.018.006-.076.012-.163-.041l-.137-.08c-.09-.049-.113-.102-.117-.12l-.023-.101a1.29 1.29 0 0 0-1.261-1.011zm-.09 1.272a.09.09 0 0 1 .09-.072h.515c.043 0 .08.03.09.072l.022.101c.097.432.397.739.712.912l.09.051c.307.188.723.295 1.146.162l.177-.055a.09.09 0 0 1 .107.042l.255.44a.09.09 0 0 1-.018.114l-.157.144c-.32.293-.44.695-.438 1.049v.008q0 .055-.003.11c-.018.371.095.804.434 1.113l.165.15c.032.03.04.078.018.115l-.255.44a.09.09 0 0 1-.107.042l-.39-.122a1.34 1.34 0 0 0-1.038.115c-.307.165-.6.463-.693.883l-.027.121a.09.09 0 0 1-.09.072h-.515a.09.09 0 0 1-.09-.072l-.028-.122a1.35 1.35 0 0 0-.692-.882 1.34 1.34 0 0 0-1.038-.115l-.39.122a.09.09 0 0 1-.106-.042l-.256-.44a.09.09 0 0 1 .018-.114l.165-.15c.34-.31.452-.743.434-1.114l-.002-.11v-.008a1.4 1.4 0 0 0-.438-1.049l-.158-.144a.09.09 0 0 1-.018-.114l.255-.44a.09.09 0 0 1 .107-.042l.177.056c.423.132.84.025 1.147-.163l.089-.051c.315-.173.615-.48.71-.911z" clip-rule="evenodd"/><path fill="currentColor" d="M13.212 3.691a.625.625 0 1 0 0 1.25 1.347 1.347 0 1 1 0 2.694.625.625 0 1 0 0 1.25 2.597 2.597 0 0 0 0-5.194"/></svg>