<svg xmlns="http://www.w3.org/2000/svg" width="24" height="24" fill="none" class="persona-icon" viewBox="0 0 24 24"><path fill="currentColor" fill-rule="evenodd" d="M5.792 7.417a4.417 4.417 0 1 1 8.833 0 4.417 4.417 0 0 1-8.833 0M10.208 4.5a2.917 2.917 0 1 0 0 5.834 2.917 2.917 0 0 0 0-5.834" clip-rule="evenodd"/><path fill="currentColor" d="M8.284 14.584a4.35 4.35 0 0 0-3.311 1.526c-.279.326-.431.741-.431 1.17v.22a2 2 0 0 0 2 2h3.324a.75.75 0 0 1 0 1.5H6.542a3.5 3.5 0 0 1-3.5-3.5v-.22c0-.786.28-1.546.79-2.144a5.85 5.85 0 0 1 4.452-2.052h1.582a.75.75 0 0 1 0 1.5zM18.44 16.634c0 .85-.692 1.538-1.545 1.538a1.54 1.54 0 0 1-1.545-1.538c0-.85.691-1.539 1.545-1.539.853 0 1.545.689 1.545 1.539"/><path fill="currentColor" fill-rule="evenodd" d="M16.563 11.269c-.763 0-1.423.529-1.589 1.272l-.029.13c-.006.026-.039.096-.154.16a4 4 0 0 0-.172.1c-.112.068-.19.061-.216.053l-.224-.07a1.63 1.63 0 0 0-1.895.736l-.323.558a1.63 1.63 0 0 0 .31 2.018l.2.184c.021.018.064.08.064.208v.016q0 .105.005.212c.007.137-.04.204-.06.223l-.21.191a1.63 1.63 0 0 0-.31 2.018l.323.558a1.63 1.63 0 0 0 1.895.737l.494-.155c.01-.003.061-.012.147.034a.3.3 0 0 1 .096.075.1.1 0 0 1 .024.043l.035.155a1.63 1.63 0 0 0 1.588 1.273h.654c.762 0 1.422-.529 1.588-1.273l.035-.154a.1.1 0 0 1 .025-.043.3.3 0 0 1 .096-.076c.086-.046.137-.037.148-.034l.494.155a1.63 1.63 0 0 0 1.894-.737l.324-.558a1.63 1.63 0 0 0-.31-2.018l-.21-.19c-.02-.02-.067-.087-.06-.224q.005-.105.005-.212v-.017c0-.128.043-.19.063-.208l.2-.183a1.63 1.63 0 0 0 .31-2.018l-.323-.558a1.63 1.63 0 0 0-1.895-.736l-.224.07c-.026.008-.103.015-.215-.054a4 4 0 0 0-.174-.1c-.115-.063-.148-.133-.154-.16l-.028-.129a1.63 1.63 0 0 0-1.589-1.272zm-.125 1.6a.13.13 0 0 1 .125-.1h.653c.06 0 .111.041.124.1l.03.128c.12.543.499.93.896 1.148q.058.031.114.066c.388.237.912.371 1.445.204l.224-.07a.13.13 0 0 1 .148.058l.324.558c.03.052.02.117-.024.158l-.2.183c-.404.368-.554.876-.552 1.321v.01q0 .072-.004.14c-.022.47.12 1.014.548 1.404l.209.19c.044.041.054.107.024.159l-.323.558a.13.13 0 0 1-.149.058l-.493-.155a1.7 1.7 0 0 0-1.309.145c-.387.209-.755.584-.873 1.112l-.035.155a.13.13 0 0 1-.124.1h-.654a.13.13 0 0 1-.124-.1l-.035-.156c-.117-.527-.485-.903-.872-1.111a1.7 1.7 0 0 0-1.308-.145l-.494.155a.13.13 0 0 1-.148-.058l-.323-.558a.13.13 0 0 1 .024-.158l.21-.191c.426-.39.569-.935.546-1.404l-.003-.14v-.01c.002-.445-.148-.953-.552-1.321l-.2-.183a.13.13 0 0 1-.024-.158l.323-.558a.13.13 0 0 1 .149-.058l.224.07c.532.167 1.057.033 1.445-.204q.056-.035.113-.065c.397-.219.775-.605.896-1.149z" clip-rule="evenodd"/><path fill="currentColor" d="M15.853 3.782a.75.75 0 0 0 0 1.5 1.75 1.75 0 1 1 0 3.5.75.75 0 0 0 0 1.5 3.25 3.25 0 1 0 0-6.5"/></svg>