<svg xmlns="http://www.w3.org/2000/svg" width="32" height="32" fill="none" class="persona-icon" viewBox="0 0 32 32"><path fill="currentColor" fill-rule="evenodd" d="M7.667 9.89a5.889 5.889 0 1 1 11.777 0 5.889 5.889 0 0 1-11.777 0M13.555 6a3.889 3.889 0 1 0 0 7.778 3.889 3.889 0 0 0 0-7.778" clip-rule="evenodd"/><path fill="currentColor" d="M10.99 19.445a5.8 5.8 0 0 0-4.415 2.035A2.4 2.4 0 0 0 6 23.04v.294A2.667 2.667 0 0 0 8.667 26H13.1a1 1 0 1 1 0 2H8.667A4.667 4.667 0 0 1 4 23.334v-.294c0-1.048.374-2.061 1.054-2.858a7.8 7.8 0 0 1 5.935-2.737h2.11a1 1 0 1 1 0 2zM24.254 21.935c0 1.117-.91 2.022-2.03 2.022a2.026 2.026 0 0 1-2.032-2.022c0-1.117.91-2.022 2.031-2.022 1.122 0 2.031.905 2.031 2.022"/><path fill="currentColor" fill-rule="evenodd" d="M21.787 14.883a2.14 2.14 0 0 0-2.088 1.673l-.038.17c-.008.035-.051.127-.203.21a6 6 0 0 0-.226.131c-.147.09-.249.082-.283.07l-.295-.091a2.14 2.14 0 0 0-2.49.968l-.426.733a2.14 2.14 0 0 0 .408 2.653l.264.24c.026.025.083.106.083.274v.021q0 .141.006.279c.01.18-.051.269-.08.294l-.274.25a2.14 2.14 0 0 0-.408 2.654l.425.733a2.14 2.14 0 0 0 2.49.968l.65-.203c.014-.005.08-.016.193.044a.4.4 0 0 1 .126.099c.025.03.03.049.032.056l.046.205a2.14 2.14 0 0 0 2.088 1.673h.859a2.14 2.14 0 0 0 2.088-1.673l.045-.203a.14.14 0 0 1 .032-.057.4.4 0 0 1 .127-.1c.113-.06.18-.049.195-.044l.649.203a2.14 2.14 0 0 0 2.49-.968l.425-.733a2.14 2.14 0 0 0-.408-2.653l-.275-.251c-.027-.025-.088-.113-.08-.294q.008-.138.008-.279v-.021c-.001-.169.056-.25.082-.274l.264-.24a2.14 2.14 0 0 0 .408-2.653l-.426-.733a2.14 2.14 0 0 0-2.49-.968l-.295.092c-.034.01-.136.019-.283-.07a6 6 0 0 0-.228-.133c-.151-.083-.195-.175-.203-.21l-.037-.169a2.14 2.14 0 0 0-2.088-1.673zm-.164 2.103a.17.17 0 0 1 .164-.131h.859c.078 0 .146.054.163.13l.038.17c.16.714.656 1.222 1.179 1.509l.15.086c.51.311 1.199.489 1.899.27l.295-.093a.17.17 0 0 1 .195.076l.425.733a.17.17 0 0 1-.032.208l-.263.24c-.53.484-.727 1.152-.725 1.737v.014q0 .093-.005.184c-.03.616.158 1.332.72 1.845l.274.25c.059.054.072.14.032.209l-.425.733c-.04.068-.12.1-.195.076l-.648-.203c-.625-.196-1.243-.067-1.72.19-.51.274-.993.768-1.148 1.462l-.046.203a.17.17 0 0 1-.163.131h-.86a.17.17 0 0 1-.163-.13l-.045-.206c-.155-.693-.639-1.186-1.147-1.46-.477-.257-1.095-.386-1.719-.19l-.65.203a.17.17 0 0 1-.194-.076l-.425-.733a.17.17 0 0 1 .032-.208l.274-.251c.562-.513.75-1.23.72-1.845a4 4 0 0 1-.005-.184v-.014c.002-.585-.195-1.252-.725-1.736l-.263-.241a.17.17 0 0 1-.032-.208l.425-.733c.04-.068.12-.1.195-.076l.295.092c.7.22 1.39.043 1.9-.268q.072-.045.148-.086c.522-.287 1.019-.795 1.178-1.51z" clip-rule="evenodd"/><path fill="currentColor" d="M20.854 5.027a1 1 0 1 0 0 2 2.286 2.286 0 1 1 0 4.572 1 1 0 1 0 0 2 4.286 4.286 0 1 0 0-8.572"/></svg>