<svg xmlns="http://www.w3.org/2000/svg" width="16" height="16" fill="none" class="persona-icon"><path fill="currentColor" d="M2 3.514C2 3.23 2.23 3 2.514 3h10.972a.514.514 0 1 1 0 1.027H2.514A.514.514 0 0 1 2 3.513ZM2 6.513C2 6.23 2.23 6 2.514 6h10.972a.514.514 0 1 1 0 1.027H2.514A.514.514 0 0 1 2 6.513ZM2 9.51c0-.276.23-.5.514-.5h10.972c.284 0 .514.224.514.5s-.23.5-.514.5H2.514A.507.507 0 0 1 2 9.51ZM2 12.514c0-.284.23-.514.514-.514h10.972a.514.514 0 1 1 0 1.027H2.514A.514.514 0 0 1 2 12.514Z"/></svg>