<svg xmlns="http://www.w3.org/2000/svg" width="16" height="16" fill="none" class="persona-icon" viewBox="0 0 16 16"><path fill="currentColor" fill-rule="evenodd" d="M2 4.9c.014-.482.24-.905.57-1.252.337-.354.802-.65 1.338-.889C4.98 2.282 6.428 2 8 2s3.02.282 4.092.76c.536.237 1 .534 1.338.888.33.347.557.77.57 1.252v6.156c0 .478-.214.912-.553 1.276-.336.36-.804.664-1.355.909a8.5 8.5 0 0 1-1.897.565C9.496 13.934 8.751 14 8 14s-1.496-.066-2.195-.194a8.5 8.5 0 0 1-1.897-.565c-.55-.245-1.019-.548-1.355-.91-.34-.363-.553-.797-.553-1.275V4.9m11 1.715a5 5 0 0 1-.908.515c-1.073.477-2.52.759-4.092.759s-3.02-.282-4.092-.76A5 5 0 0 1 3 6.616V8c0 .332.32.83 1.314 1.272.952.423 2.278.672 3.686.672s2.734-.25 3.686-.672C12.68 8.83 13 8.332 13 8zM3 4.945c0 .174.078.378.294.606.22.23.56.46 1.02.665.918.408 2.22.673 3.686.673s2.768-.265 3.686-.673c.46-.204.8-.434 1.02-.665.216-.228.294-.432.294-.607 0-.174-.078-.379-.294-.606-.22-.23-.56-.46-1.02-.665C10.768 3.265 9.466 3 8 3s-2.768.265-3.686.673c-.46.204-.8.434-1.02.665-.216.227-.294.432-.294.606m0 6.11c0 .164.07.366.284.595.217.233.559.468 1.03.677a7.5 7.5 0 0 0 1.672.495C6.62 12.94 7.306 13 8 13s1.379-.06 2.014-.178a7.5 7.5 0 0 0 1.672-.495c.471-.21.813-.444 1.03-.677.213-.23.284-.43.284-.594V9.669c-.269.197-.577.37-.908.516-1.111.494-2.583.76-4.092.76s-2.981-.266-4.092-.76c-.33-.147-.64-.32-.908-.516z" clip-rule="evenodd"/></svg>