<svg xmlns="http://www.w3.org/2000/svg" width="16" height="16" fill="none" class="persona-icon" viewBox="0 0 16 16"><path fill="currentColor" fill-rule="evenodd" d="M2 4.9v6.156c0 .478.214.912.553 1.276.336.36.804.664 1.355.909a8.5 8.5 0 0 0 1.897.565C6.504 13.934 7.249 14 8 14s1.496-.066 2.195-.194a8.5 8.5 0 0 0 1.897-.565c.55-.245 1.019-.548 1.355-.91.34-.363.553-.797.553-1.275V4.9c-.013-.482-.24-.905-.57-1.252-.337-.354-.802-.65-1.338-.889C11.02 2.282 9.572 2 8 2s-3.02.282-4.092.76c-.536.237-1 .534-1.338.888-.33.347-.556.77-.57 1.252m1 .044c0-.174.078-.379.294-.606.22-.23.56-.46 1.02-.665C5.232 3.265 6.534 3 8 3s2.768.265 3.686.673c.46.204.8.434 1.02.665.216.227.294.432.294.606 0 .175-.078.38-.294.607-.22.23-.56.46-1.02.665-.918.408-2.22.673-3.686.673s-2.768-.265-3.686-.673c-.46-.204-.8-.434-1.02-.665C3.078 5.323 3 5.12 3 4.944m10 1.67V8c0 .332-.32.83-1.314 1.272-.952.423-2.278.672-3.686.672s-2.734-.25-3.686-.672C3.321 8.83 3 8.332 3 8V6.615c.266.194.573.366.908.515 1.073.477 2.52.759 4.092.759s3.02-.282 4.092-.76A5 5 0 0 0 13 6.616M3 11.057V9.669c.269.197.577.37.908.516 1.111.494 2.583.76 4.092.76s2.981-.266 4.092-.76c.33-.147.64-.32.908-.516v1.387c0 .163-.07.365-.284.594-.217.233-.559.468-1.03.677a7.5 7.5 0 0 1-1.672.495A11 11 0 0 1 8 13c-.694 0-1.379-.06-2.014-.178a7.5 7.5 0 0 1-1.672-.495c-.471-.21-.813-.444-1.03-.677-.213-.23-.284-.43-.284-.594" clip-rule="evenodd"/></svg>