<svg xmlns="http://www.w3.org/2000/svg" width="16" height="16" fill="none" class="persona-icon" viewBox="0 0 16 16"><path fill="currentColor" fill-rule="evenodd" d="M2.5 2.222C2.5 1.547 3.042 1 3.71 1h8.58c.668 0 1.21.547 1.21 1.222v3.611c0 .276-.222.5-.495.5H2.995a.497.497 0 0 1-.495-.5zM3.71 2c-.122 0-.22.1-.22.222v3.111h9.02v-3.11A.221.221 0 0 0 12.29 2z" clip-rule="evenodd"/><path fill="currentColor" fill-rule="evenodd" d="M2.5 5.833c0-.276.222-.5.495-.5h10.01c.273 0 .495.224.495.5v4.334c0 .276-.222.5-.495.5H2.995a.498.498 0 0 1-.495-.5zm.99.5v3.334h9.02V6.333z" clip-rule="evenodd"/><path fill="currentColor" fill-rule="evenodd" d="M2.5 10.167c0-.277.222-.5.495-.5h10.01c.273 0 .495.223.495.5v3.61c0 .676-.542 1.223-1.21 1.223H3.71c-.668 0-1.21-.547-1.21-1.222zm.99.5v3.11c0 .123.098.223.22.223h8.58c.122 0 .22-.1.22-.222v-3.111zM4.645 3.667c0-.276.222-.5.495-.5H8c.273 0 .495.224.495.5s-.222.5-.495.5H5.14a.498.498 0 0 1-.495-.5M4.645 8c0-.276.222-.5.495-.5H8c.273 0 .495.224.495.5s-.222.5-.495.5H5.14a.498.498 0 0 1-.495-.5" clip-rule="evenodd"/><path fill="currentColor" fill-rule="evenodd" d="M4.645 12.333c0-.276.222-.5.495-.5H8c.273 0 .495.224.495.5 0 .277-.222.5-.495.5H5.14a.497.497 0 0 1-.495-.5" clip-rule="evenodd"/><path fill="currentColor" d="M11.575 3.667c0 .399-.32.722-.715.722a.719.719 0 0 1-.715-.722c0-.4.32-.723.715-.723.395 0 .715.324.715.723M11.575 8c0 .399-.32.722-.715.722A.719.719 0 0 1 10.145 8c0-.399.32-.722.715-.722.395 0 .715.323.715.722M11.575 12.333c0 .4-.32.723-.715.723a.719.719 0 0 1-.715-.723c0-.399.32-.722.715-.722.395 0 .715.323.715.722"/></svg>