<svg xmlns="http://www.w3.org/2000/svg" width="20" height="20" fill="none" class="persona-icon" viewBox="0 0 20 20"><path fill="currentColor" d="M6.78 9.442a.565.565 0 0 0-.572.558c0 .308.255.558.571.558h3.388c.316 0 .572-.25.572-.558a.565.565 0 0 0-.572-.558H6.779M14.401 10c0 .457-.379.827-.847.827a.837.837 0 0 1-.847-.827c0-.457.38-.827.847-.827.468 0 .847.37.847.827M6.208 14.961c0-.308.255-.558.571-.558h3.388c.316 0 .572.25.572.558a.565.565 0 0 1-.572.558H6.779a.565.565 0 0 1-.571-.558M13.554 15.788c.468 0 .847-.37.847-.827a.837.837 0 0 0-.847-.827.837.837 0 0 0-.847.827c0 .457.38.827.847.827M6.208 5.039c0-.308.255-.558.571-.558h3.388c.316 0 .572.25.572.558a.565.565 0 0 1-.572.558H6.779a.565.565 0 0 1-.571-.558M13.554 5.866c.468 0 .847-.37.847-.827a.837.837 0 0 0-.847-.827.837.837 0 0 0-.847.827c0 .456.38.827.847.827"/><path fill="currentColor" fill-rule="evenodd" d="M3.667 3.385C3.667 2.62 4.302 2 5.085 2h10.163c.784 0 1.419.62 1.419 1.385v13.23c0 .765-.635 1.385-1.419 1.385H5.085c-.783 0-1.418-.62-1.418-1.385V3.385m11.856 0a.272.272 0 0 0-.275-.269H5.085a.272.272 0 0 0-.275.269v3.576h10.713V3.385m0 8.538V8.077H4.81v3.845h10.713M4.81 13.039v3.576c0 .148.123.269.275.269h10.163c.152 0 .275-.12.275-.269v-3.576H4.81" clip-rule="evenodd"/></svg>