<svg xmlns="http://www.w3.org/2000/svg" width="24" height="24" fill="none" class="persona-icon" viewBox="0 0 24 24"><path fill="currentColor" fill-rule="evenodd" d="M12 3c2.358 0 4.529.423 6.138 1.139.804.357 1.5.802 2.007 1.333.51.536.855 1.194.855 1.945q0 .067-.004.133H21v9.033c0 .718-.32 1.37-.83 1.915-.504.54-1.206.996-2.032 1.363-.83.37-1.798.655-2.845.848A18.3 18.3 0 0 1 12 21c-1.126 0-2.244-.099-3.293-.291-1.047-.193-2.015-.479-2.845-.848-.826-.367-1.529-.822-2.033-1.363C3.321 17.952 3 17.3 3 16.583V7.55h.004L3 7.417c0-.75.345-1.409.855-1.945.506-.531 1.203-.976 2.007-1.333C7.472 3.423 9.642 3 12 3M4.5 7.417c0 .262.117.568.442.91.329.345.84.69 1.529.997 1.377.612 3.33 1.01 5.529 1.01s4.153-.398 5.529-1.01c.69-.306 1.2-.652 1.53-.997.325-.342.441-.648.441-.91 0-.263-.116-.569-.442-.91-.328-.346-.84-.691-1.529-.998C16.153 4.897 14.199 4.5 12 4.5s-4.152.397-5.529 1.01c-.69.306-1.2.65-1.53.997-.324.341-.441.647-.441.91m15 2.505c-.398.292-.86.55-1.362.773-1.61.715-3.78 1.138-6.138 1.138s-4.529-.423-6.138-1.138A7.4 7.4 0 0 1 4.5 9.922V12c0 .497.48 1.245 1.971 1.907 1.428.635 3.416 1.01 5.529 1.01s4.101-.375 5.529-1.01c1.49-.662 1.971-1.41 1.971-1.907zm-15 6.661c0 .246.106.548.427.892.325.349.838.702 1.544 1.016.702.312 1.553.567 2.508.742.953.176 1.98.267 3.021.267s2.068-.091 3.021-.267c.955-.175 1.806-.43 2.508-.742.706-.314 1.22-.667 1.544-1.016.321-.344.427-.646.427-.892v-2.08a7.4 7.4 0 0 1-1.362.775c-1.667.74-3.874 1.139-6.138 1.139s-4.471-.398-6.138-1.139a7.4 7.4 0 0 1-1.362-.775z" clip-rule="evenodd"/></svg>