<svg xmlns="http://www.w3.org/2000/svg" width="32" height="32" fill="none" class="persona-icon" viewBox="0 0 32 32"><path fill="currentColor" fill-rule="evenodd" d="M5 4.444C5 3.094 6.084 2 7.42 2h17.16C25.917 2 27 3.094 27 4.444v7.223c0 .552-.443 1-.99 1H5.99a.995.995 0 0 1-.99-1zM7.42 4a.442.442 0 0 0-.44.444v6.223h18.04V4.444A.442.442 0 0 0 24.58 4z" clip-rule="evenodd"/><path fill="currentColor" fill-rule="evenodd" d="M5 11.667c0-.553.443-1 .99-1h20.02c.547 0 .99.447.99 1v8.666c0 .553-.443 1-.99 1H5.99a.995.995 0 0 1-.99-1zm1.98 1v6.666h18.04v-6.666z" clip-rule="evenodd"/><path fill="currentColor" fill-rule="evenodd" d="M5 20.333c0-.552.443-1 .99-1h20.02c.547 0 .99.448.99 1v7.223C27 28.906 25.916 30 24.58 30H7.42C6.084 30 5 28.906 5 27.556zm1.98 1v6.223c0 .245.197.444.44.444h17.16c.243 0 .44-.199.44-.444v-6.223zM9.29 7.333c0-.552.443-1 .99-1H16c.547 0 .99.448.99 1 0 .553-.443 1-.99 1h-5.72a.995.995 0 0 1-.99-1M9.29 16c0-.552.443-1 .99-1H16c.547 0 .99.448.99 1s-.443 1-.99 1h-5.72a.995.995 0 0 1-.99-1" clip-rule="evenodd"/><path fill="currentColor" fill-rule="evenodd" d="M9.29 24.667c0-.553.443-1 .99-1H16c.547 0 .99.447.99 1 0 .552-.443 1-.99 1h-5.72a.995.995 0 0 1-.99-1" clip-rule="evenodd"/><path fill="currentColor" d="M23.15 7.333c0 .798-.64 1.445-1.43 1.445-.79 0-1.43-.647-1.43-1.445 0-.797.64-1.444 1.43-1.444.79 0 1.43.647 1.43 1.444M23.15 16c0 .798-.64 1.444-1.43 1.444-.79 0-1.43-.646-1.43-1.444 0-.798.64-1.444 1.43-1.444.79 0 1.43.646 1.43 1.444M23.15 24.667c0 .797-.64 1.444-1.43 1.444-.79 0-1.43-.647-1.43-1.444 0-.798.64-1.445 1.43-1.445.79 0 1.43.647 1.43 1.445"/></svg>