<svg xmlns="http://www.w3.org/2000/svg" width="32" height="32" fill="none" class="persona-icon" viewBox="0 0 32 32"><path fill="currentColor" fill-rule="evenodd" d="M4.004 9.733H4v12.378c0 .957.428 1.825 1.106 2.553.672.721 1.609 1.329 2.71 1.818 1.106.492 2.397.872 3.793 1.13C13.007 27.868 14.5 28 16 28s2.993-.131 4.39-.389c1.397-.257 2.688-.637 3.794-1.13 1.101-.488 2.038-1.096 2.71-1.817.678-.728 1.106-1.596 1.106-2.553V9.733h-.004c-.045-.936-.492-1.76-1.136-2.437-.675-.708-1.604-1.302-2.676-1.778C22.038 4.564 19.144 4 16 4s-6.038.564-8.184 1.518c-1.072.476-2.001 1.07-2.676 1.779-.644.676-1.091 1.5-1.136 2.436M6 9.89c0-.35.155-.758.589-1.214.438-.46 1.12-.92 2.039-1.33C10.463 6.53 13.068 6 16 6s5.537.53 7.372 1.346c.919.408 1.6.869 2.04 1.33.433.455.588.863.588 1.213s-.155.758-.589 1.213c-.438.461-1.12.922-2.039 1.33-1.835.816-4.44 1.346-7.372 1.346s-5.537-.53-7.372-1.346c-.919-.408-1.6-.869-2.04-1.33C6.156 10.647 6 10.238 6 9.89m20 3.34V16c0 .663-.641 1.66-2.628 2.543-1.904.846-4.555 1.346-7.372 1.346s-5.469-.5-7.372-1.346C6.641 17.66 6 16.663 6 16v-2.77a10 10 0 0 0 1.816 1.03c2.146.953 5.04 1.518 8.184 1.518s6.038-.565 8.184-1.518A10 10 0 0 0 26 13.23M6 22.112v-2.774c.537.394 1.154.74 1.816 1.034 2.222.988 5.166 1.518 8.184 1.518s5.962-.53 8.184-1.518A9.8 9.8 0 0 0 26 19.337v2.774c0 .327-.141.73-.569 1.19-.433.464-1.117.935-2.059 1.353-.936.416-2.07.756-3.343.99-1.272.234-2.641.356-4.029.356s-2.757-.122-4.028-.356c-1.273-.234-2.408-.574-3.344-.99-.942-.418-1.626-.889-2.06-1.354-.427-.459-.568-.862-.568-1.189" clip-rule="evenodd"/></svg>