<svg xmlns="http://www.w3.org/2000/svg" width="16" height="16" fill="none" class="persona-icon" viewBox="0 0 16 16"><path fill="currentColor" fill-rule="evenodd" d="M4.066 2.505a.5.5 0 0 1 .5-.5h6.868a.5.5 0 0 1 .5.5v2.248h1.56a.5.5 0 0 1 .5.5v7.742h.188a.5.5 0 0 1 0 1H1.818a.5.5 0 1 1 0-1h.187V5.253a.5.5 0 0 1 .5-.5h1.56zm6.868 6.369V3.005H5.066v5.869zM3.005 5.753v7.242h1.06V5.753zm9.99 0h-1.06v7.242h1.06zm-4.121 6.181H7.126v1.06h1.748zm2.06-2.06H5.066v3.12h1.06v-1.56a.5.5 0 0 1 .5-.5h2.748a.5.5 0 0 1 .5.5v1.56h1.06z" clip-rule="evenodd"/><path fill="currentColor" d="M8.5 4.566v.759h.76a.5.5 0 1 1 0 1H8.5v.76a.5.5 0 1 1-1 0v-.76h-.76a.5.5 0 1 1 0-1h.76v-.76a.5.5 0 1 1 1 0"/></svg>