<svg xmlns="http://www.w3.org/2000/svg" width="16" height="16" fill="none" class="persona-icon" viewBox="0 0 16 16"><path fill="currentColor" d="M8 4.057c.276 0 .5.23.5.514v.857h.833c.276 0 .5.23.5.515a.507.507 0 0 1-.5.514H8.5v.857a.507.507 0 0 1-.5.515c-.276 0-.5-.23-.5-.515v-.857h-.833c-.276 0-.5-.23-.5-.514s.224-.514.5-.514H7.5V4.57c0-.284.224-.514.5-.514"/><path fill="currentColor" fill-rule="evenodd" d="M4.167 2.514c0-.284.224-.514.5-.514h6.666c.276 0 .5.23.5.514v2.229h1.5c.277 0 .5.23.5.514v7.714H14c.276 0 .5.23.5.515A.507.507 0 0 1 14 14H2c-.276 0-.5-.23-.5-.514s.224-.515.5-.515h.167V5.257c0-.284.224-.514.5-.514h1.5zm0 3.257h-1v7.2h1zm1 3.086h5.666V3.029H5.167zm5.666 1.029H5.167v3.085h1v-1.543c0-.284.224-.514.5-.514h2.666c.276 0 .5.23.5.514v1.543h1zm-2 3.085v-1.028H7.167v1.028zm4 0v-7.2h-1v7.2z" clip-rule="evenodd"/></svg>