<svg xmlns="http://www.w3.org/2000/svg" width="20" height="20" fill="none" class="persona-icon" viewBox="0 0 20 20"><path fill="currentColor" fill-rule="evenodd" d="M6.05 3.056h7.9c.345 0 .625.28.625.625v2.534h1.744c.345 0 .625.28.625.625v8.854h.165a.625.625 0 0 1 0 1.25H2.89a.625.625 0 1 1 0-1.25h.166V6.84c0-.345.28-.625.625-.625h1.745V3.681c0-.345.28-.625.625-.625m-1.744 4.41v8.228h1.12V7.465zm9.019 3.489v-6.65h-6.65v6.65zm-6.65 1.25v3.49h1.12V13.95c0-.346.28-.625.625-.625h3.16c.345 0 .625.28.625.625v1.744h1.12v-3.49zm4.28 2.37h-1.91v1.12h1.91zm4.74-7.11h-1.12v8.23h1.12zm-5.07-1.415v.824h.823a.625.625 0 1 1 0 1.25h-.823v.823a.625.625 0 0 1-1.25 0v-.823h-.823a.625.625 0 1 1 0-1.25h.823V6.05a.625.625 0 1 1 1.25 0" clip-rule="evenodd"/></svg>