<svg xmlns="http://www.w3.org/2000/svg" width="20" height="20" fill="none" class="persona-icon" viewBox="0 0 20 20"><path fill="currentColor" fill-rule="evenodd" d="M6.05 3.056a.625.625 0 0 0-.624.625v2.534H3.68a.625.625 0 0 0-.625.625v8.854H2.89a.625.625 0 1 0 0 1.25H17.11a.625.625 0 0 0 0-1.25h-.166V6.84a.625.625 0 0 0-.625-.625h-1.744V3.681a.625.625 0 0 0-.625-.625zm-1.744 4.41h1.12v8.228h-1.12zm9.019 3.489h-6.65v-6.65h6.65zm-6.65 1.25h6.65v3.49h-1.12V13.95a.625.625 0 0 0-.625-.625H8.42a.625.625 0 0 0-.625.625v1.744h-1.12zm4.28 2.37v1.12h-1.91v-1.12zm4.74-7.11v8.23h-1.12v-8.23zm-5.07-1.415a.625.625 0 0 0-1.25 0v.824h-.823a.625.625 0 1 0 0 1.25h.823v.823a.625.625 0 1 0 1.25 0v-.823h.823a.625.625 0 1 0 0-1.25h-.823z" clip-rule="evenodd"/></svg>