<svg xmlns="http://www.w3.org/2000/svg" width="20" height="20" fill="none"><path fill="#000" d="M10 5.08c.327 0 .593.278.593.62v1.1h1.053c.327 0 .593.278.593.62 0 .342-.266.619-.593.619h-1.053v1.1c0 .343-.266.62-.593.62a.606.606 0 0 1-.593-.62v-1.1H8.354a.606.606 0 0 1-.593-.62c0-.341.266-.619.593-.619h1.053V5.7c0-.342.266-.62.593-.62Z"/><path fill="#000" fill-rule="evenodd" d="M5.292 3.12c0-.343.265-.62.593-.62h8.23c.327 0 .593.277.593.62v2.82h1.876c.328 0 .593.278.593.62v9.701h.23c.328 0 .593.278.593.62 0 .342-.265.619-.593.619H2.593A.606.606 0 0 1 2 16.88c0-.341.265-.619.593-.619h.23V6.56c0-.342.265-.62.593-.62h1.876V3.12Zm8.23 9.22H6.478v3.921h1.284v-1.96c0-.343.266-.62.593-.62h3.292c.327 0 .593.277.593.62v1.96h1.284V12.34Zm-2.469 3.921H8.946V14.92h2.107v1.341Zm-4.576-5.16h7.046V3.739H6.477V11.1ZM5.292 7.179H4.008v9.082h1.284V7.18Zm10.7 9.082h-1.284V7.18h1.284v9.082Z" clip-rule="evenodd"/></svg>