<svg xmlns="http://www.w3.org/2000/svg" width="24" height="24" fill="none" class="persona-icon" viewBox="0 0 24 24"><path fill="currentColor" fill-rule="evenodd" d="M6.849 3.008H17.15a.75.75 0 0 1 .75.75v3.37h2.342a.75.75 0 0 1 .75.75v11.614h.28a.75.75 0 1 1 0 1.5H2.727a.75.75 0 0 1 0-1.5h.28V7.88a.75.75 0 0 1 .75-.75h2.341V3.758a.75.75 0 0 1 .75-.75M16.4 13.31V4.509H7.6v8.802zM4.508 8.63v10.863h1.59V8.63zm14.985 0h-1.591v10.863h1.59zm-6.182 9.273h-2.622v1.59h2.622zM7.599 14.81v4.682h1.59v-2.34a.75.75 0 0 1 .75-.75h4.122a.75.75 0 0 1 .75.75v2.34h1.59V14.81zm5.151-7.962v1.14h1.139a.75.75 0 0 1 0 1.5H12.75v1.138a.75.75 0 0 1-1.5 0V9.487h-1.139a.75.75 0 0 1 0-1.5h1.139V6.848a.75.75 0 0 1 1.5 0" clip-rule="evenodd"/></svg>