<svg xmlns="http://www.w3.org/2000/svg" width="32" height="32" fill="none"><path fill="#000" d="M15.998 8.44c.552 0 1 .442 1 .986v1.643h1.666c.553 0 1 .441 1 .986a.993.993 0 0 1-1 .986h-1.666v1.642a.993.993 0 0 1-1 .986c-.553 0-1-.441-1-.986v-1.642H13.33c-.552 0-1-.442-1-.986a.993.993 0 0 1 1-.986h1.667V9.426a.993.993 0 0 1 1-.985Z"/><path fill="#000" fill-rule="evenodd" d="M8.331 5.483a.993.993 0 0 1 1-.985h13.333c.553 0 1 .441 1 .985v4.272h3c.553 0 1 .441 1 .986v14.785h.334c.552 0 1 .442 1 .986a.993.993 0 0 1-1 .986h-24c-.552 0-1-.442-1-.986a.993.993 0 0 1 1-.986h.333V10.741a.993.993 0 0 1 1-.986h3V5.483Zm4 20.043h-2v-5.914h11.333v5.914h-2V22.57a.993.993 0 0 0-1-.986h-5.333c-.552 0-1 .442-1 .986v2.957Zm2 0h3.333v-1.971h-3.333v1.971Zm-4-7.885h11.333V6.469H10.331v11.172Zm-2-5.915h-2v13.8h2v-13.8Zm17.334 13.8h-2v-13.8h2v13.8Z" clip-rule="evenodd"/></svg>