<svg xmlns="http://www.w3.org/2000/svg" width="32" height="32" fill="none" class="persona-icon" viewBox="0 0 32 32"><path fill="currentColor" fill-rule="evenodd" d="M9.131 4.01H22.87a1 1 0 0 1 1 1v4.495h3.12a1 1 0 0 1 1 1V25.99h.374a1 1 0 1 1 0 2H3.636a1 1 0 0 1 0-2h.374V10.505a1 1 0 0 1 1-1h3.121V5.01a1 1 0 0 1 1-1m-1 7.495H6.01V25.99h2.121zm2 6.242H21.87V6.01H10.13zm11.738 2H10.13v6.243h2.121v-3.121a1 1 0 0 1 1-1h5.495a1 1 0 0 1 1 1v3.12h2.122zm-4.122 6.243v-2.121h-3.495v2.12zm8.243 0V11.505h-2.121V25.99z" clip-rule="evenodd"/><path fill="currentColor" d="M17 9.131v1.519h1.518a1 1 0 0 1 0 2H17v1.518a1 1 0 1 1-2 0V12.65H13.48a1 1 0 1 1 0-2H15V9.13a1 1 0 1 1 2 0"/></svg>