<svg xmlns="http://www.w3.org/2000/svg" width="16" height="16" fill="none" class="persona-icon" viewBox="0 0 16 16"><path fill="currentColor" fill-rule="evenodd" d="M8.243 2.063a.5.5 0 0 0-.486 0l-5.5 3.056A.5.5 0 0 0 2 5.556v4.889a.5.5 0 0 0 .257.437l5.5 3.055a.5.5 0 0 0 .486 0l5.5-3.055a.5.5 0 0 0 .257-.437v-4.89a.5.5 0 0 0-.257-.436zM3 10.15V6.405l4.5 2.5v3.745zm2.168-5.505.125.063 4.352 2.417L8 8.04 3.53 5.556zm6.124 1.565-4.47-2.483L8 3.072l4.47 2.484zM8.5 12.65V8.905l1.679-.932v1.73L11 8.332l.779.39V7.084L13 6.405v3.745z" clip-rule="evenodd"/></svg>