<svg xmlns="http://www.w3.org/2000/svg" width="16" height="16" fill="none" class="persona-icon" viewBox="0 0 16 16"><path fill="currentColor" fill-rule="evenodd" d="m8.243 2.063 5.5 3.056a.5.5 0 0 1 .257.437v4.889a.5.5 0 0 1-.257.437l-5.5 3.055a.5.5 0 0 1-.486 0l-5.5-3.055A.5.5 0 0 1 2 10.445v-4.89a.5.5 0 0 1 .257-.436l5.5-3.056a.5.5 0 0 1 .486 0M3 10.15l4.5 2.5V8.905L3 6.405zm2.168-5.505-1.638.91L8 8.04l1.645-.914-4.352-2.417zm6.124 1.565 1.178-.654L8 3.072l-1.178.655zM8.5 12.65l4.5-2.5V6.405l-1.221.679v1.639L11 8.333l-.821 1.37v-1.73L8.5 8.905z" clip-rule="evenodd"/></svg>