<svg xmlns="http://www.w3.org/2000/svg" width="24" height="24" fill="none" class="persona-icon" viewBox="0 0 24 24"><path fill="currentColor" fill-rule="evenodd" d="M11.626 2.097a.77.77 0 0 1 .748 0l9.23 5.128a.77.77 0 0 1 .396.673v8.205a.77.77 0 0 1-.396.672l-9.23 5.128a.77.77 0 0 1-.748 0l-9.23-5.128A.77.77 0 0 1 2 16.103V7.898a.77.77 0 0 1 .396-.673l5.328-2.96.062-.1.057.034 3.783-2.102m-.395 17.827v-6.446L3.539 9.205v6.445l7.692 4.274ZM7.806 5.979 4.353 7.898 12 12.146l3.089-1.716-7.283-4.45m8.828 3.592 3.013-1.673L12 3.649 9.351 5.121l7.283 4.45m3.828-.366-7.693 4.273v6.446l7.693-4.274V9.205" clip-rule="evenodd"/></svg>