<svg xmlns="http://www.w3.org/2000/svg" width="24" height="24" fill="none" class="persona-icon" viewBox="0 0 24 24"><path fill="currentColor" fill-rule="evenodd" d="M12.364 3.094a.75.75 0 0 0-.728 0l-8.25 4.584A.75.75 0 0 0 3 8.334v7.333a.75.75 0 0 0 .386.655l8.25 4.584a.75.75 0 0 0 .728 0l8.25-4.584a.75.75 0 0 0 .386-.655V8.334a.75.75 0 0 0-.386-.656zM4.5 15.225V9.608l6.75 3.75v5.617zm3.2-8.228.217.109 6.499 3.61L12 12.06 5.294 8.334zm9.29 2.29L10.284 5.56 12 4.608l6.706 3.726zm-4.24 9.688v-5.617l2.468-1.371v2.65L16.5 12.5l1.218.609v-2.51l1.782-.99v5.616z" clip-rule="evenodd"/></svg>