<svg xmlns="http://www.w3.org/2000/svg" width="24" height="24" fill="none" class="persona-icon" viewBox="0 0 24 24"><path fill="currentColor" fill-rule="evenodd" d="m12.364 3.094 8.25 4.584a.75.75 0 0 1 .386.656v7.333a.75.75 0 0 1-.386.655l-8.25 4.584a.75.75 0 0 1-.728 0l-8.25-4.584A.75.75 0 0 1 3 15.667V8.334a.75.75 0 0 1 .386-.656l8.25-4.584a.75.75 0 0 1 .728 0M4.5 15.225l6.75 3.75v-5.617L4.5 9.608zm8.25 3.75 6.75-3.75V9.608l-1.782.99v2.511L16.5 12.5l-1.282 2.137v-2.65l-2.468 1.371zm4.24-9.688 1.716-.953L12 4.608l-1.716.953zM7.7 6.997 5.294 8.334 12 12.059l2.416-1.342-6.5-3.611z" clip-rule="evenodd"/></svg>