<svg xmlns="http://www.w3.org/2000/svg" width="32" height="32" fill="none" class="persona-icon" viewBox="0 0 32 32"><path fill="currentColor" fill-rule="evenodd" d="M16.486 4.126a1 1 0 0 0-.972 0l-11 6.111a1 1 0 0 0-.514.874v9.778a1 1 0 0 0 .514.874l11 6.111a1 1 0 0 0 .972 0l11-6.11a1 1 0 0 0 .514-.875V11.11a1 1 0 0 0-.514-.874zM6 20.3v-7.49l9 5v7.49zm4.266-10.97.29.144 8.666 4.815L16 16.079 7.06 11.11zm12.387 3.052-8.94-4.967L16 6.144l8.94 4.967zM17 25.301v-7.49l3.29-1.828v3.533l1.71-2.85 1.624.813V14.13L26 12.81v7.49z" clip-rule="evenodd"/></svg>