<svg xmlns="http://www.w3.org/2000/svg" width="32" height="32" fill="none" class="persona-icon" viewBox="0 0 32 32"><path fill="currentColor" fill-rule="evenodd" d="m16.486 4.126 11 6.111a1 1 0 0 1 .514.874v9.778a1 1 0 0 1-.514.874l-11 6.111a1 1 0 0 1-.972 0l-11-6.11A1 1 0 0 1 4 20.888V11.11a1 1 0 0 1 .514-.874l11-6.111a1 1 0 0 1 .972 0M6 20.3l9 5v-7.49l-9-5zm4.266-10.97L7.06 11.11 16 16.078l3.221-1.79-8.665-4.814zm12.387 3.052 2.288-1.27L16 6.143l-2.288 1.27zM17 25.301l9-5v-7.49l-2.376 1.32v3.348L22 16.667l-1.71 2.849v-3.533L17 17.81z" clip-rule="evenodd"/></svg>