<svg xmlns="http://www.w3.org/2000/svg" width="32" height="32" fill="none"><path fill="#000" d="M10.58 21.667c-.56 0-1.015.447-1.015 1 0 .552.455 1 1.016 1h10.838c.561 0 1.017-.448 1.017-1 0-.553-.456-1-1.017-1H10.581ZM9.565 17.333c0-.552.455-1 1.016-1h10.838c.561 0 1.017.448 1.017 1 0 .553-.456 1-1.017 1H10.581a1.008 1.008 0 0 1-1.016-1ZM10.58 11c-.56 0-1.015.448-1.015 1s.455 1 1.016 1h2.71c.56 0 1.015-.448 1.015-1s-.454-1-1.016-1h-2.71Z"/><path fill="#000" fill-rule="evenodd" d="M5.5 8c0-2.761 2.275-5 5.08-5h6.14c1.032 0 2.018.422 2.723 1.165l6.055 6.384a3.635 3.635 0 0 1 1.002 2.502V24c0 2.761-2.275 5-5.08 5H10.58c-2.805 0-5.08-2.239-5.08-5V8Zm5.08-3C8.898 5 7.533 6.343 7.533 8v16c0 1.657 1.365 3 3.049 3h10.838c1.684 0 3.049-1.343 3.049-3V13.051L24.467 13h-4.402c-2.058 0-3.726-1.642-3.726-3.667V5H10.58Zm7.791 1.414v2.92c0 .92.758 1.666 1.694 1.666h2.966l-4.66-4.586Z" clip-rule="evenodd"/></svg>