<svg xmlns="http://www.w3.org/2000/svg" width="20" height="20" fill="none" class="persona-icon" viewBox="0 0 20 20"><path fill="currentColor" fill-rule="evenodd" d="M7.511 3a4.51 4.51 0 0 1 4.312 5.841l5.001 5.001a.6.6 0 0 1 .176.425V16.4a.6.6 0 0 1-.6.6h-2.133a.6.6 0 0 1-.425-.176l-.624-.625 1.135-1.135a.625.625 0 0 0-.884-.884l-1.135 1.136-.539-.539 1.136-1.135a.625.625 0 0 0-.884-.884l-1.136 1.135-2.07-2.07A4.511 4.511 0 1 1 7.511 3M6.444 7.156a.711.711 0 1 0 0-1.422.711.711 0 0 0 0 1.422" clip-rule="evenodd"/></svg>