<svg xmlns="http://www.w3.org/2000/svg" width="24" height="24" fill="none" class="persona-icon" viewBox="0 0 24 24"><path fill="currentColor" fill-rule="evenodd" d="M8.733 2.85a5.883 5.883 0 1 0 1.756 11.5l2.784 2.783 1.463-1.463a.75.75 0 1 1 1.061 1.06l-1.464 1.464.806.806 1.464-1.464a.75.75 0 0 1 1.06 1.06L16.2 20.062l.87.87c.14.14.331.219.53.219h2.8a.75.75 0 0 0 .75-.75v-2.8a.75.75 0 0 0-.22-.53l-6.58-6.58a5.883 5.883 0 0 0-5.617-7.64m-.466 4.483a.933.933 0 1 1-1.867 0 .933.933 0 0 1 1.867 0" clip-rule="evenodd"/></svg>