<svg xmlns="http://www.w3.org/2000/svg" width="24" height="24" fill="none" class="persona-icon" viewBox="0 0 24 24"><path fill="currentColor" fill-rule="evenodd" d="M8.733 2.85a5.883 5.883 0 0 1 5.617 7.64l6.58 6.58c.141.14.22.331.22.53v2.8a.75.75 0 0 1-.75.75h-2.8a.75.75 0 0 1-.53-.22l-.87-.87 1.464-1.463a.75.75 0 1 0-1.061-1.06L15.139 19l-.806-.806 1.464-1.464a.75.75 0 0 0-1.06-1.06l-1.464 1.463-2.784-2.783a5.883 5.883 0 1 1-1.756-11.5m-.466 4.483a.933.933 0 1 0-1.867 0 .933.933 0 0 0 1.867 0" clip-rule="evenodd"/></svg>