<svg xmlns="http://www.w3.org/2000/svg" width="32" height="32" fill="none" class="persona-icon" viewBox="0 0 32 32"><path fill="currentColor" fill-rule="evenodd" d="M11.722 4a7.722 7.722 0 1 0 2.295 15.098l8.61 8.61a1 1 0 0 0 .706.292H27a1 1 0 0 0 1-1v-3.666a1 1 0 0 0-.293-.708l-8.61-8.61A7.722 7.722 0 0 0 11.723 4M9.89 11.111a1.222 1.222 0 1 1 0-2.444 1.222 1.222 0 0 1 0 2.444m11.096 9.682a1 1 0 0 1 0 1.414l-1.93 1.93-1.414-1.415 1.93-1.93a1 1 0 0 1 1.414 0m2.444 2.444a1 1 0 0 1 0 1.414l-1.929 1.93-1.414-1.415 1.93-1.929a1 1 0 0 1 1.413 0" clip-rule="evenodd"/></svg>