<svg xmlns="http://www.w3.org/2000/svg" width="16" height="16" fill="none" class="persona-icon" viewBox="0 0 16 16"><path fill="currentColor" fill-rule="evenodd" d="M4.333 2A2.333 2.333 0 0 0 2 4.333v7.334A2.333 2.333 0 0 0 4.333 14h7.334A2.333 2.333 0 0 0 14 11.667V4.333c0-.463-.135-.895-.368-1.258L10.54 6.167h1.238a.5.5 0 0 1 0 1H9.333a.5.5 0 0 1-.5-.5V4.222a.5.5 0 1 1 1 0V5.46l3.092-3.092A2.3 2.3 0 0 0 11.667 2zM2.5 9.333c0-1.012.82-1.833 1.833-1.833h2.334c1.012 0 1.833.82 1.833 1.833v2.334c0 1.012-.82 1.833-1.833 1.833H4.333A1.833 1.833 0 0 1 2.5 11.667z" clip-rule="evenodd"/></svg>