<svg xmlns="http://www.w3.org/2000/svg" width="24" height="24" fill="none" class="persona-icon" viewBox="0 0 24 24"><path fill="currentColor" fill-rule="evenodd" d="M6.5 3h11c.695 0 1.343.203 1.887.552L14.75 8.189V6.333a.75.75 0 0 0-1.5 0V10a.75.75 0 0 0 .75.75h3.667a.75.75 0 1 0 0-1.5H15.81l4.637-4.637c.35.544.552 1.192.552 1.887v11a3.5 3.5 0 0 1-3.5 3.5h-11A3.5 3.5 0 0 1 3 17.5v-11A3.5 3.5 0 0 1 6.5 3M3.75 14v3.5a2.75 2.75 0 0 0 2.75 2.75H10a2.75 2.75 0 0 0 2.75-2.75V14A2.75 2.75 0 0 0 10 11.25H6.5A2.75 2.75 0 0 0 3.75 14" clip-rule="evenodd"/></svg>