<svg xmlns="http://www.w3.org/2000/svg" width="32" height="32" fill="none" class="persona-icon" viewBox="0 0 32 32"><path fill="currentColor" fill-rule="evenodd" d="M8.667 4A4.667 4.667 0 0 0 4 8.667v14.666A4.667 4.667 0 0 0 8.667 28h14.666A4.667 4.667 0 0 0 28 23.333V8.667c0-.927-.27-1.79-.736-2.517l-6.183 6.183h2.475a1 1 0 0 1 0 2h-4.89a1 1 0 0 1-1-1V8.444a1 1 0 1 1 2 0v2.475l6.184-6.183A4.64 4.64 0 0 0 23.333 4zM5 18.667A3.667 3.667 0 0 1 8.667 15h4.666A3.667 3.667 0 0 1 17 18.667v4.666A3.667 3.667 0 0 1 13.333 27H8.667A3.667 3.667 0 0 1 5 23.333z" clip-rule="evenodd"/></svg>