<svg xmlns="http://www.w3.org/2000/svg" width="20" height="20" fill="none" class="persona-icon" viewBox="0 0 20 20"><path fill="currentColor" fill-rule="evenodd" d="M4.42 6.462a.63.63 0 0 1 .292.82 6.326 6.326 0 0 0-.428 3.658.617.617 0 0 1-.472.722.594.594 0 0 1-.69-.493 7.613 7.613 0 0 1 .515-4.403.581.581 0 0 1 .784-.304m2.977-.241a.638.638 0 0 1 0 .874A3.934 3.934 0 0 0 6.32 9.81c.003.26.014.478.025.695l.016.34c.012.33.013.666-.04 1.036-.11.75-.43 1.549-1.163 2.733a.577.577 0 0 1-.818.183.635.635 0 0 1-.176-.854c.693-1.12.914-1.745.987-2.247.037-.256.04-.502.028-.801a29.06 29.06 0 0 0-.014-.291 19.596 19.596 0 0 1-.028-.783v-.007A5.2 5.2 0 0 1 6.561 6.22a.574.574 0 0 1 .836 0m1.771-3.67a6.776 6.776 0 0 1 4.925 1.33c.264.199.325.585.133.862a.575.575 0 0 1-.825.14A5.63 5.63 0 0 0 9.309 3.78 5.747 5.747 0 0 0 5.58 5.861a.574.574 0 0 1-.834.068.638.638 0 0 1-.064-.872C5.824 3.664 7.425 2.77 9.168 2.552m-1.292 7.64c.327-.01.6.258.609.599.02.695.013 1.48-.196 2.372-.21.894-.618 1.866-1.368 2.963a.575.575 0 0 1-.825.144.636.636 0 0 1-.138-.862c.673-.984 1.011-1.814 1.182-2.54.171-.73.18-1.383.162-2.04a.607.607 0 0 1 .574-.636m1.08-3.01A2.627 2.627 0 0 1 10 6.964c1.102 0 1.895.741 2.174 1.128a2.963 2.963 0 0 1 .554 1.718c.017 1.598.014 4.929-1.52 7.407a.577.577 0 0 1-.817.184.635.635 0 0 1-.176-.855c1.315-2.125 1.347-5.088 1.33-6.725v-.007a1.677 1.677 0 0 0-.315-.976v-.001c-.146-.202-.628-.637-1.23-.637-.203 0-.404.042-.591.123-.187.081-.358.2-.501.35-.144.15-.257.328-.335.523a.583.583 0 0 1-.773.335.628.628 0 0 1-.32-.808c.137-.346.338-.66.591-.924.254-.265.554-.475.885-.618m.566 7.334c.303.128.45.488.327.805-.284.736-.675 1.439-1.21 1.999a.574.574 0 0 1-.837 0 .638.638 0 0 1 0-.874c.392-.41.706-.956.95-1.588a.583.583 0 0 1 .77-.342M8.232 5.08A4.68 4.68 0 0 1 10 4.732a4.76 4.76 0 0 1 3.44 1.489c.24.25.462.526.658.822.186.28.12.666-.149.86a.576.576 0 0 1-.823-.155 4.747 4.747 0 0 0-.523-.653A3.602 3.602 0 0 0 10 5.968c-.462 0-.916.091-1.338.263a.584.584 0 0 1-.766-.35.627.627 0 0 1 .336-.801m1.723 4.118a.6.6 0 0 1 .635.569c.065.878.043 2.31-.237 3.756a.593.593 0 0 1-.697.483.618.618 0 0 1-.463-.728c.255-1.32.275-2.636.217-3.417a.61.61 0 0 1 .545-.663m4.245-.73a.593.593 0 0 1 .697.483l.016.055c.04.136.144.485.149.889l.002.202c.02 1.598.043 3.53-1.171 6.468a.582.582 0 0 1-.778.323.629.629 0 0 1-.308-.813c1.114-2.696 1.093-4.42 1.074-5.961l-.002-.205a1.297 1.297 0 0 0-.04-.329l-.03-.106c-.005-.015-.01-.03-.014-.049a2.611 2.611 0 0 1-.057-.227.618.618 0 0 1 .462-.73m.545-3.197a.575.575 0 0 1 .829.118 7.545 7.545 0 0 1 1.41 4.912.601.601 0 0 1-.63.575.61.61 0 0 1-.55-.658 6.27 6.27 0 0 0-1.172-4.081.637.637 0 0 1 .113-.866" clip-rule="evenodd"/></svg>