<svg xmlns="http://www.w3.org/2000/svg" width="32" height="32" fill="none" class="persona-icon" viewBox="0 0 32 32"><path fill="currentColor" fill-rule="evenodd" d="M14.336 2.1a14 14 0 0 1 9.849 2.542 1 1 0 0 1-1.17 1.623 12 12 0 0 0-16.13 1.93 1 1 0 0 1-1.52-1.3 14 14 0 0 1 8.971-4.796m-1.85 4.895a9.66 9.66 0 0 1 10.35 2.17c.479.48.922 1.006 1.313 1.57a1 1 0 0 1-1.643 1.14 9.5 9.5 0 0 0-1.085-1.296 7.67 7.67 0 0 0-8.208-1.72 1 1 0 0 1-.727-1.864m13.26.344a1 1 0 0 1 1.401.191 14 14 0 0 1 2.822 9.402 1 1 0 0 1-1.996-.133 12 12 0 0 0-2.418-8.059 1 1 0 0 1 .191-1.401M10.579 9.165a1 1 0 0 1 0 1.414 7.67 7.67 0 0 0-2.246 5.416c.006.507.029.939.051 1.363.012.216.023.43.032.652.025.635.027 1.274-.08 1.974-.215 1.417-.85 2.938-2.329 5.227a1 1 0 1 1-1.68-1.086c1.412-2.184 1.878-3.427 2.032-4.441.079-.515.082-1.008.058-1.594l-.027-.572c-.024-.448-.05-.957-.057-1.506V16a9.67 9.67 0 0 1 2.832-6.835 1 1 0 0 1 1.414 0m-5.98.51A1 1 0 0 1 5.09 11a12 12 0 0 0-.883 7.224 1 1 0 0 1-1.966.37 14 14 0 0 1 1.031-8.427A1 1 0 0 1 4.6 9.675m9.36 1.398A5.3 5.3 0 0 1 16 10.667c2.15 0 3.706 1.39 4.25 2.11a5.33 5.33 0 0 1 1.083 3.217c.036 3.109.024 9.516-3.05 14.271a1 1 0 0 1-1.68-1.085c2.705-4.185 2.766-9.997 2.73-13.168V16a3.33 3.33 0 0 0-.678-2.015l-.002-.003c-.318-.422-1.346-1.315-2.653-1.315a3.33 3.33 0 0 0-3.08 2.058 1 1 0 1 1-1.847-.766 5.33 5.33 0 0 1 2.886-2.886m10.6 2.511a1 1 0 0 1 1.18.78q.011.052.046.163c.09.296.274.896.283 1.632l.005.393c.04 3.094.087 6.812-2.36 12.477a1 1 0 1 1-1.835-.793c2.277-5.274 2.234-8.653 2.195-11.657l-.005-.397a2.6 2.6 0 0 0-.088-.687c-.02-.074-.04-.137-.063-.216l-.028-.091a5 5 0 0 1-.11-.424 1 1 0 0 1 .78-1.18m-8.636 1.42a1 1 0 0 1 1.074.92c.13 1.69.086 4.451-.477 7.237a1 1 0 1 1-1.96-.396c.521-2.582.56-5.157.443-6.688a1 1 0 0 1 .92-1.074m-4.226 1.927a1 1 0 0 1 1.03.97c.04 1.344.026 2.847-.392 4.551-.42 1.709-1.235 3.573-2.744 5.685a1 1 0 0 1-1.627-1.162c1.377-1.928 2.075-3.563 2.428-5 .354-1.442.373-2.731.335-4.015a1 1 0 0 1 .97-1.029m3.258 8.382a1 1 0 0 1 .553 1.302c-.57 1.412-1.348 2.751-2.412 3.815a1 1 0 0 1-1.414-1.415c.82-.82 1.47-1.904 1.972-3.149a1 1 0 0 1 1.301-.553" clip-rule="evenodd"/></svg>