<svg xmlns="http://www.w3.org/2000/svg" width="32" height="32" fill="none"><path fill="#000" fill-rule="evenodd" d="M14.457 2.596c3.237-.393 6.5.46 9.145 2.39.449.327.55.96.227 1.414a.992.992 0 0 1-1.396.229 10.898 10.898 0 0 0-7.738-2.023 10.96 10.96 0 0 0-7.049 3.815.991.991 0 0 1-1.41.11 1.021 1.021 0 0 1-.109-1.427 12.953 12.953 0 0 1 8.33-4.508Zm-1.727 4.58a8.9 8.9 0 0 1 3.272-.624c2.387 0 4.676.96 6.364 2.67.446.45.858.946 1.221 1.477a1.02 1.02 0 0 1-.25 1.41.992.992 0 0 1-1.392-.255 8.761 8.761 0 0 0-.993-1.2 6.956 6.956 0 0 0-4.95-2.077c-.879 0-1.741.168-2.544.485a.996.996 0 0 1-1.296-.575c-.2-.52.054-1.108.568-1.311Zm12.222.332a.992.992 0 0 1 1.401.194 13.278 13.278 0 0 1 2.62 8.838c-.036.559-.513.98-1.064.943a1.008 1.008 0 0 1-.931-1.077 11.235 11.235 0 0 0-2.217-7.48 1.021 1.021 0 0 1 .19-1.418Zm-13.9 1.713c.391.396.391 1.037 0 1.432a7.132 7.132 0 0 0-2.05 5.006c.006.473.026.873.047 1.268l.03.613c.023.595.025 1.198-.075 1.86-.2 1.34-.793 2.772-2.161 4.915a.993.993 0 0 1-1.383.3 1.02 1.02 0 0 1-.297-1.4c1.3-2.036 1.724-3.187 1.864-4.12.071-.473.074-.928.053-1.474a45.923 45.923 0 0 0-.026-.532 34.384 34.384 0 0 1-.052-1.413v-.011A9.17 9.17 0 0 1 9.638 9.22a.991.991 0 0 1 1.415 0Zm-5.542.46c.502.234.723.835.493 1.343a11.264 11.264 0 0 0-.81 6.704 1.012 1.012 0 0 1-.798 1.183 1 1 0 0 1-1.168-.807 13.312 13.312 0 0 1 .957-7.924.995.995 0 0 1 1.326-.498Zm8.579 1.307a4.945 4.945 0 0 1 1.913-.386c2.018 0 3.474 1.319 3.984 2.004a5.118 5.118 0 0 1 1.016 3.053c.033 2.902.024 8.913-2.827 13.38a.993.993 0 0 1-1.383.301 1.02 1.02 0 0 1-.297-1.4c2.482-3.889 2.54-9.297 2.507-12.264v-.011a3.07 3.07 0 0 0-.61-1.836l-.002-.003c-.285-.383-1.214-1.199-2.388-1.199a2.967 2.967 0 0 0-2.121.89c-.279.282-.5.617-.65.985a.996.996 0 0 1-1.307.548 1.017 1.017 0 0 1-.541-1.323 5.067 5.067 0 0 1 1.084-1.642 4.996 4.996 0 0 1 1.622-1.097Zm9.799 2.343a1 1 0 0 1 1.18.79c.004.024.018.069.036.13.082.267.26.855.268 1.562l.005.366c.037 2.895.081 6.384-2.184 11.693a.995.995 0 0 1-1.315.528 1.017 1.017 0 0 1-.521-1.33c2.096-4.914 2.056-8.06 2.02-10.863l-.004-.372a2.396 2.396 0 0 0-.08-.623c-.017-.067-.034-.124-.056-.198a4.496 4.496 0 0 1-.13-.49c-.11-.547.24-1.082.78-1.193Zm-7.963 1.324a1.004 1.004 0 0 1 1.074.932c.12 1.585.08 4.174-.441 6.786a1 1 0 0 1-1.179.792 1.012 1.012 0 0 1-.782-1.193c.48-2.405.516-4.805.408-6.23a1.009 1.009 0 0 1 .92-1.087Zm-3.897 1.802a1.005 1.005 0 0 1 1.03.982c.036 1.259.024 2.671-.364 4.274-.39 1.608-1.148 3.36-2.545 5.34a.992.992 0 0 1-1.395.236 1.02 1.02 0 0 1-.233-1.413c1.267-1.795 1.907-3.313 2.23-4.646.325-1.337.342-2.534.307-3.73a1.007 1.007 0 0 1 .97-1.043Zm3.039 7.84c.512.209.76.799.553 1.317-.529 1.327-1.253 2.588-2.244 3.592a.991.991 0 0 1-1.414 0 1.021 1.021 0 0 1 0-1.432c.747-.757 1.342-1.761 1.803-2.918a.996.996 0 0 1 1.302-.56Z" clip-rule="evenodd"/></svg>