<svg xmlns="http://www.w3.org/2000/svg" width="32" height="32" fill="none"><path fill="#000" fill-rule="evenodd" d="M7.333 14.333a2.333 2.333 0 1 0 0 4.667 2.333 2.333 0 0 0 0-4.667ZM3 16.667a4.333 4.333 0 1 1 8.667 0 4.333 4.333 0 0 1-8.667 0Z" clip-rule="evenodd"/><path fill="#000" fill-rule="evenodd" d="M21.78 10.228 11.114 15.56l-.895-1.789L20.886 8.44l.895 1.789ZM22.333 21.724l-11.333-4-.666 1.886 11.333 4 .666-1.886Z" clip-rule="evenodd"/><path fill="#000" fill-rule="evenodd" d="M24.667 5a2.333 2.333 0 1 0 0 4.667 2.333 2.333 0 0 0 0-4.667Zm-4.334 2.333a4.333 4.333 0 1 1 8.667 0 4.333 4.333 0 0 1-8.667 0ZM24.667 27a2.333 2.333 0 1 1 0-4.667 2.333 2.333 0 0 1 0 4.667Zm-4.334-2.333a4.333 4.333 0 1 0 8.667 0 4.333 4.333 0 0 0-8.667 0Z" clip-rule="evenodd"/></svg>