<svg xmlns="http://www.w3.org/2000/svg" width="16" height="16" fill="none" class="persona-icon" viewBox="0 0 16 16"><path fill="currentColor" d="M2 3.722C2 2.772 2.771 2 3.722 2h1.834c.95 0 1.722.771 1.722 1.722v1.834c0 .95-.771 1.722-1.722 1.722H3.722A1.722 1.722 0 0 1 2 5.556V3.722ZM3.722 3A.722.722 0 0 0 3 3.722v1.834c0 .398.323.722.722.722h1.834a.722.722 0 0 0 .722-.722V3.722A.722.722 0 0 0 5.556 3H3.722ZM8.722 3.722c0-.95.771-1.722 1.723-1.722h1.833C13.228 2 14 2.771 14 3.722v1.834c0 .95-.771 1.722-1.722 1.722h-1.834a1.722 1.722 0 0 1-1.722-1.722V3.722ZM10.445 3a.722.722 0 0 0-.723.722v1.834c0 .398.324.722.723.722h1.833A.722.722 0 0 0 13 5.556V3.722A.722.722 0 0 0 12.278 3h-1.834ZM3.722 8.722c-.95 0-1.722.771-1.722 1.723v1.833C2 13.228 2.771 14 3.722 14h8.556c.95 0 1.722-.771 1.722-1.722v-1.834c0-.95-.771-1.722-1.722-1.722H3.722ZM3 10.445c0-.4.323-.723.722-.723h8.556c.399 0 .722.324.722.723v1.833a.722.722 0 0 1-.722.722H3.722A.722.722 0 0 1 3 12.278v-1.834Z"/></svg>