<svg xmlns="http://www.w3.org/2000/svg" width="20" height="20" fill="none"><path fill="currentColor" d="M3 5.016C3 3.902 3.902 3 5.016 3h2.136c1.113 0 2.016.902 2.016 2.016v2.136a2.016 2.016 0 0 1-2.016 2.016H5.016A2.016 2.016 0 0 1 3 7.152V5.016Zm0 7.832c0-1.113.902-2.015 2.016-2.015h9.968c1.114 0 2.016.902 2.016 2.015v2.136A2.016 2.016 0 0 1 14.984 17H5.016A2.016 2.016 0 0 1 3 14.984v-2.136Zm2.016-8.665a.833.833 0 0 0-.833.833v2.136c0 .46.373.832.833.832h2.136c.46 0 .832-.372.832-.832V5.016a.833.833 0 0 0-.832-.833H5.016Zm0 7.833a.833.833 0 0 0-.833.832v2.136c0 .46.373.833.833.833h9.968c.46 0 .833-.373.833-.833v-2.136a.833.833 0 0 0-.833-.832H5.016Zm5.817-7c0-1.114.902-2.016 2.015-2.016h2.136C16.098 3 17 3.902 17 5.016v2.136a2.016 2.016 0 0 1-2.016 2.016h-2.136a2.016 2.016 0 0 1-2.015-2.016V5.016Zm2.015-.833a.833.833 0 0 0-.832.833v2.136c0 .46.372.832.832.832h2.136c.46 0 .833-.372.833-.832V5.016a.832.832 0 0 0-.833-.833h-2.136Z"/></svg>