<svg xmlns="http://www.w3.org/2000/svg" width="20" height="20" fill="none" class="persona-icon" viewBox="0 0 20 20"><path fill="currentColor" fill-rule="evenodd" d="M2.975 5.022c0-1.13.917-2.047 2.047-2.047h2.134c1.13 0 2.047.917 2.047 2.047v2.134c0 1.13-.917 2.047-2.047 2.047H5.022a2.047 2.047 0 0 1-2.047-2.047zm7.822 0c0-1.13.917-2.047 2.047-2.047h2.134c1.13 0 2.047.917 2.047 2.047v2.134c0 1.13-.916 2.047-2.047 2.047h-2.133a2.047 2.047 0 0 1-2.048-2.047zm-7.822 7.823c0-1.131.917-2.048 2.047-2.048h9.956c1.13 0 2.047.917 2.047 2.047v2.134c0 1.13-.916 2.047-2.047 2.047H5.022a2.047 2.047 0 0 1-2.047-2.047zm2.047-8.62a.797.797 0 0 0-.797.797v2.134c0 .44.357.797.797.797h2.134c.44 0 .797-.357.797-.797V5.022a.797.797 0 0 0-.797-.797zm7.823 0a.797.797 0 0 0-.798.797v2.134c0 .44.357.797.797.797h2.134c.44 0 .797-.357.797-.797V5.022a.797.797 0 0 0-.797-.797zm-7.823 7.822a.797.797 0 0 0-.797.797v2.134c0 .44.357.797.797.797h9.956c.44 0 .797-.357.797-.797v-2.133a.797.797 0 0 0-.797-.798z" clip-rule="evenodd"/></svg>