<svg xmlns="http://www.w3.org/2000/svg" width="32" height="32" fill="none" class="persona-icon" viewBox="0 0 32 32"><path fill="currentColor" fill-rule="evenodd" d="M4 7.445A3.444 3.444 0 0 1 7.444 4h3.667a3.444 3.444 0 0 1 3.445 3.444v3.667a3.445 3.445 0 0 1-3.445 3.445H7.444A3.444 3.444 0 0 1 4 11.11zm0 13.444a3.444 3.444 0 0 1 3.444-3.445h17.112A3.444 3.444 0 0 1 28 20.89v3.667A3.444 3.444 0 0 1 24.556 28H7.444A3.444 3.444 0 0 1 4 24.556zM7.444 6C6.647 6 6 6.647 6 7.444v3.667c0 .798.647 1.445 1.444 1.445h3.667c.798 0 1.445-.647 1.445-1.445V7.444c0-.797-.647-1.444-1.445-1.444zm0 13.444c-.797 0-1.444.647-1.444 1.445v3.667C6 25.353 6.647 26 7.444 26h17.112c.797 0 1.444-.647 1.444-1.444v-3.667c0-.798-.647-1.445-1.444-1.445zm10-12A3.444 3.444 0 0 1 20.89 4h3.666A3.444 3.444 0 0 1 28 7.444v3.667a3.445 3.445 0 0 1-3.445 3.445H20.89a3.444 3.444 0 0 1-3.445-3.445zM20.89 6c-.798 0-1.445.647-1.445 1.444v3.667c0 .798.647 1.445 1.445 1.445h3.666c.798 0 1.445-.647 1.445-1.445V7.444C26 6.647 25.353 6 24.555 6z" clip-rule="evenodd"/></svg>