<svg xmlns="http://www.w3.org/2000/svg" width="32" height="32" fill="none" class="persona-icon" viewBox="0 0 32 32"><path fill="currentColor" fill-rule="evenodd" d="M3.002 6.561a3.56 3.56 0 0 1 3.559-3.559h3.882a3.56 3.56 0 0 1 3.559 3.56v3.882a3.56 3.56 0 0 1-3.559 3.558H6.561a3.56 3.56 0 0 1-3.559-3.558zm3.559-1.617c-.894 0-1.618.724-1.618 1.617v3.883c0 .893.724 1.617 1.618 1.617h3.882c.893 0 1.618-.724 1.618-1.617V6.56c0-.893-.725-1.617-1.618-1.617zM18.002 6.561a3.56 3.56 0 0 1 3.559-3.559h3.882a3.56 3.56 0 0 1 3.559 3.56v3.882a3.56 3.56 0 0 1-3.559 3.558h-3.882a3.56 3.56 0 0 1-3.559-3.558zm3.559-1.617c-.894 0-1.618.724-1.618 1.617v3.883c0 .893.724 1.617 1.618 1.617h3.882c.893 0 1.618-.724 1.618-1.617V6.56c0-.893-.724-1.617-1.618-1.617zM6.669 18.002c-2.025 0-3.667 1.594-3.667 3.56v3.882c0 1.965 1.642 3.558 3.667 3.558h18.666c2.025 0 3.667-1.593 3.667-3.558V21.56c0-1.965-1.642-3.559-3.667-3.559zm-1.667 3.56c0-.894.746-1.618 1.667-1.618h18.666c.92 0 1.667.724 1.667 1.617v3.883c0 .893-.746 1.617-1.667 1.617H6.67c-.92 0-1.667-.724-1.667-1.617z" clip-rule="evenodd"/></svg>