<svg xmlns="http://www.w3.org/2000/svg" width="16" height="16" fill="none" class="persona-icon" viewBox="0 0 16 16"><path fill="currentColor" fill-rule="evenodd" d="M5.572 2.857c0-.632.511-1.143 1.143-1.143h2.571c.631 0 1.143.511 1.143 1.143v.074h.143A2.43 2.43 0 0 1 13 5.36v6.496a2.43 2.43 0 0 1-2.428 2.428H5.429A2.43 2.43 0 0 1 3 11.857V5.36A2.43 2.43 0 0 1 5.43 2.93h.143zm0 1.074h-.143C4.639 3.931 4 4.571 4 5.36v6.496c0 .789.64 1.428 1.429 1.428h5.143c.789 0 1.428-.64 1.428-1.428V5.36c0-.79-.64-1.429-1.428-1.429h-.143v.211c0 .632-.512 1.143-1.143 1.143H6.715a1.143 1.143 0 0 1-1.143-1.143zm1.143-1.217a.143.143 0 0 0-.143.143v1.285c0 .08.064.143.143.143h2.571a.143.143 0 0 0 .143-.143V2.857a.143.143 0 0 0-.143-.143z" clip-rule="evenodd"/></svg>