<svg xmlns="http://www.w3.org/2000/svg" width="24" height="24" fill="none" class="persona-icon" viewBox="0 0 24 24"><path fill="currentColor" fill-rule="evenodd" d="M8.167 3.778C8.167 2.796 8.963 2 9.944 2h4.111c.982 0 1.778.796 1.778 1.778v.17h.278a3.833 3.833 0 0 1 3.833 3.832v10.386A3.833 3.833 0 0 1 16.111 22H7.89a3.833 3.833 0 0 1-3.833-3.834V7.78a3.833 3.833 0 0 1 3.833-3.833h.278zm0 1.67h-.278A2.333 2.333 0 0 0 5.556 7.78v10.386A2.333 2.333 0 0 0 7.889 20.5h8.222a2.333 2.333 0 0 0 2.333-2.334V7.78a2.333 2.333 0 0 0-2.333-2.333h-.278v.386c0 .982-.796 1.778-1.777 1.778H9.944a1.78 1.78 0 0 1-1.777-1.778zM9.944 3.5a.28.28 0 0 0-.277.278v2.055c0 .154.124.278.277.278h4.111a.28.28 0 0 0 .278-.278V3.778a.28.28 0 0 0-.277-.278z" clip-rule="evenodd"/></svg>