<svg xmlns="http://www.w3.org/2000/svg" width="16" height="16" fill="none" class="persona-icon" viewBox="0 0 16 16"><path fill="currentColor" d="M4 1.5A2.5 2.5 0 0 0 1.5 4v8A2.5 2.5 0 0 0 4 14.5h8a2.5 2.5 0 0 0 2.5-2.5V4A2.5 2.5 0 0 0 12 1.5H4Zm9.5 6.626-1.342-1.341a1.167 1.167 0 0 0-1.65 0L7.451 9.841a.167.167 0 0 1-.236 0L6.159 8.784a1.166 1.166 0 0 0-1.65 0L2.5 10.793V4A1.5 1.5 0 0 1 4 2.5h8A1.5 1.5 0 0 1 13.5 4v4.126ZM2.512 12.195l2.703-2.703a.167.167 0 0 1 .236 0l1.057 1.057a1.167 1.167 0 0 0 1.65 0l3.058-3.057a.167.167 0 0 1 .235 0L13.5 9.54V12a1.5 1.5 0 0 1-1.5 1.5H4a1.5 1.5 0 0 1-1.487-1.306Z"/><path fill="currentColor" d="M3.5 5.333a1.833 1.833 0 1 1 3.667 0 1.833 1.833 0 0 1-3.667 0ZM5.333 4.5a.833.833 0 1 0 0 1.667.833.833 0 0 0 0-1.667Z"/></svg>