<svg xmlns="http://www.w3.org/2000/svg" width="20" height="20" fill="none" class="persona-icon" viewBox="0 0 20 20"><path fill="currentColor" fill-rule="evenodd" d="M7.156 5.108a2.047 2.047 0 1 1 0 4.094 2.047 2.047 0 0 1 0-4.094m-.798 2.047a.797.797 0 1 0 1.595 0 .797.797 0 0 0-1.595 0" clip-rule="evenodd"/><path fill="currentColor" fill-rule="evenodd" d="M2.975 5.733a2.76 2.76 0 0 1 2.758-2.758h8.534a2.76 2.76 0 0 1 2.758 2.758v8.534a2.76 2.76 0 0 1-2.758 2.758H5.733a2.76 2.76 0 0 1-2.758-2.758zm12.8 0c0-.833-.675-1.508-1.508-1.508H5.733c-.833 0-1.508.675-1.508 1.508v7.025l1.986-1.986a1.336 1.336 0 0 1 1.89 0L9.227 11.9a.086.086 0 0 0 .122 0l3.26-3.261a1.336 1.336 0 0 1 1.89 0l1.275 1.274zM5.733 15.775h8.534c.833 0 1.508-.675 1.508-1.508V11.68l-2.158-2.158a.086.086 0 0 0-.122 0l-3.261 3.26a1.336 1.336 0 0 1-1.89 0l-1.127-1.127a.086.086 0 0 0-.122 0l-2.851 2.85c.115.72.738 1.27 1.49 1.27" clip-rule="evenodd"/></svg>