<svg xmlns="http://www.w3.org/2000/svg" width="20" height="20" fill="none" class="persona-icon" viewBox="0 0 20 20"><path fill="currentColor" fill-rule="evenodd" d="M4.805 7.426a2.12 2.12 0 1 1 4.242 0 2.12 2.12 0 0 1-4.242 0Zm2.121-.953a.953.953 0 1 0 0 1.906.953.953 0 0 0 0-1.906Z" clip-rule="evenodd"/><path fill="currentColor" fill-rule="evenodd" d="M5.39 3A2.89 2.89 0 0 0 2.5 5.89v9.223A2.89 2.89 0 0 0 5.39 18h9.22a2.89 2.89 0 0 0 2.89-2.89V5.89A2.89 2.89 0 0 0 14.61 3H5.39Zm10.942 7.627-1.534-1.533a1.352 1.352 0 0 0-1.912 0l-3.524 3.524a.184.184 0 0 1-.26 0l-1.22-1.22a1.352 1.352 0 0 0-1.912 0l-2.302 2.303V5.889c0-.95.77-1.721 1.721-1.721h9.222c.95 0 1.721.77 1.721 1.721v4.738Zm-12.65 4.71a1.722 1.722 0 0 0 1.707 1.495h9.222c.95 0 1.721-.77 1.721-1.721v-2.832l-2.36-2.36a.184.184 0 0 0-.26 0l-3.524 3.524a1.352 1.352 0 0 1-1.913 0l-1.218-1.218a.184.184 0 0 0-.261 0l-3.113 3.113Z" clip-rule="evenodd"/></svg>