<svg xmlns="http://www.w3.org/2000/svg" width="24" height="24" fill="none" class="persona-icon" viewBox="0 0 24 24"><path fill="currentColor" d="M5.846 2A3.846 3.846 0 0 0 2 5.846v12.308A3.846 3.846 0 0 0 5.846 22h12.308A3.846 3.846 0 0 0 22 18.154V5.846A3.846 3.846 0 0 0 18.154 2H5.846Zm14.616 10.194-2.065-2.064c-.7-.7-1.837-.7-2.538 0l-4.703 4.703c-.1.1-.263.1-.363 0l-1.626-1.626c-.701-.701-1.838-.701-2.539 0l-3.09 3.09V5.847a2.308 2.308 0 0 1 2.308-2.309h12.308a2.308 2.308 0 0 1 2.308 2.308v6.348Zm-16.904 6.26 4.158-4.16c.1-.1.263-.1.363 0l1.626 1.627c.701.701 1.838.701 2.538 0l4.704-4.703c.1-.1.262-.1.363 0l3.152 3.152v3.784a2.308 2.308 0 0 1-2.308 2.308H5.846a2.308 2.308 0 0 1-2.288-2.009Z"/><path fill="currentColor" d="M5.077 7.897a2.82 2.82 0 1 1 5.64 0 2.82 2.82 0 0 1-5.64 0Zm2.82-1.282a1.282 1.282 0 1 0 0 2.564 1.282 1.282 0 0 0 0-2.564Z"/></svg>