<svg xmlns="http://www.w3.org/2000/svg" width="24" height="24" fill="none" class="persona-icon" viewBox="0 0 24 24"><path fill="currentColor" fill-rule="evenodd" d="M8.333 5.75a2.583 2.583 0 1 0 0 5.167 2.583 2.583 0 0 0 0-5.167M7.25 8.333a1.083 1.083 0 1 1 2.167 0 1.083 1.083 0 0 1-2.167 0" clip-rule="evenodd"/><path fill="currentColor" fill-rule="evenodd" d="M3 6.5A3.5 3.5 0 0 1 6.5 3h11A3.5 3.5 0 0 1 21 6.5v11a3.5 3.5 0 0 1-3.5 3.5h-11A3.5 3.5 0 0 1 3 17.5zm16.5 0a2 2 0 0 0-2-2h-11a2 2 0 0 0-2 2v9.19l2.655-2.655c.65-.651 1.706-.651 2.357 0l1.454 1.453c.065.065.17.065.235 0l4.204-4.203c.65-.651 1.706-.651 2.357 0l1.738 1.738zM8.216 14.095 4.52 17.79A2 2 0 0 0 6.5 19.5h11a2 2 0 0 0 2-2v-3.356l-2.799-2.799a.167.167 0 0 0-.236 0l-4.203 4.204c-.651.65-1.706.65-2.357 0L8.45 14.095a.167.167 0 0 0-.236 0" clip-rule="evenodd"/></svg>