<svg xmlns="http://www.w3.org/2000/svg" width="32" height="32" fill="none" class="persona-icon" viewBox="0 0 32 32"><path fill="currentColor" d="M8.002 3.002a5 5 0 0 0-5 5v16a5 5 0 0 0 5 5h16a5 5 0 0 0 5-5v-16a5 5 0 0 0-5-5h-16Zm19 13.253L24.32 13.57a2.333 2.333 0 0 0-3.3 0l-6.114 6.115a.333.333 0 0 1-.472 0L12.32 17.57a2.333 2.333 0 0 0-3.3 0l-4.017 4.017V8.002a3 3 0 0 1 3-3h16a3 3 0 0 1 3 3v8.253ZM5.027 24.392l5.406-5.406c.13-.13.341-.13.472 0l2.114 2.114a2.333 2.333 0 0 0 3.3 0l6.114-6.114c.13-.13.341-.13.472 0l4.097 4.097v4.92a3 3 0 0 1-3 3h-16a3 3 0 0 1-2.975-2.611Z"/><path fill="currentColor" d="M7.002 10.669a3.667 3.667 0 1 1 7.334 0 3.667 3.667 0 0 1-7.334 0Zm3.667-1.667a1.667 1.667 0 1 0 0 3.334 1.667 1.667 0 0 0 0-3.334Z"/></svg>