<svg xmlns="http://www.w3.org/2000/svg" width="32" height="32" fill="none" class="persona-icon" viewBox="0 0 32 32"><path fill="currentColor" fill-rule="evenodd" d="M11.111 7.667a3.444 3.444 0 1 0 0 6.889 3.444 3.444 0 0 0 0-6.89M9.667 11.11a1.444 1.444 0 1 1 2.888 0 1.444 1.444 0 0 1-2.888 0" clip-rule="evenodd"/><path fill="currentColor" fill-rule="evenodd" d="M4 8.667A4.667 4.667 0 0 1 8.667 4h14.666A4.667 4.667 0 0 1 28 8.667v14.666A4.667 4.667 0 0 1 23.333 28H8.667A4.667 4.667 0 0 1 4 23.333zm22 0A2.667 2.667 0 0 0 23.333 6H8.667A2.667 2.667 0 0 0 6 8.667v12.252l3.54-3.54a2.22 2.22 0 0 1 3.143 0l1.938 1.938a.22.22 0 0 0 .314 0l5.605-5.604a2.22 2.22 0 0 1 3.143 0L26 16.03zM8.667 26h14.666A2.667 2.667 0 0 0 26 23.333V18.86l-3.732-3.732a.22.22 0 0 0-.314 0l-5.605 5.605a2.22 2.22 0 0 1-3.143 0l-1.938-1.938a.22.22 0 0 0-.314 0L6.028 23.72A2.67 2.67 0 0 0 8.667 26" clip-rule="evenodd"/></svg>