<svg xmlns="http://www.w3.org/2000/svg" width="20" height="20" fill="none" class="persona-icon" viewBox="0 0 20 20"><path fill="currentColor" fill-rule="evenodd" d="M9.419 2.958a3.477 3.477 0 1 0 0 6.954 3.477 3.477 0 0 0 0-6.954M7.192 6.435a2.227 2.227 0 1 1 4.454 0 2.227 2.227 0 0 1-4.454 0M7.903 10.736c-1.36 0-2.651.595-3.534 1.63a2.64 2.64 0 0 0-.63 1.71v.202a2.764 2.764 0 0 0 2.763 2.764h5.834a2.764 2.764 0 0 0 2.763-2.764v-.202c0-.627-.223-1.234-.63-1.71a4.65 4.65 0 0 0-3.534-1.63zM5.32 13.177a3.4 3.4 0 0 1 2.583-1.19h3.032c.994 0 1.938.434 2.583 1.19.214.25.331.57.331.9v.2c0 .837-.677 1.515-1.514 1.515H6.502a1.514 1.514 0 0 1-1.514-1.514v-.202c0-.33.118-.648.332-.899" clip-rule="evenodd"/><path fill="currentColor" d="M17.842 7.211a.625.625 0 0 1 0 .884l-.98.98.98.98a.625.625 0 0 1-.884.884l-.98-.98-.98.98a.625.625 0 1 1-.884-.883l.98-.98-.98-.981a.625.625 0 1 1 .884-.884l.98.98.98-.98a.625.625 0 0 1 .884 0"/></svg>