<svg xmlns="http://www.w3.org/2000/svg" width="32" height="32" fill="none"><path fill="#000" d="M12.226 16.527a12.016 12.016 0 0 1 2.698-2.861c-.746 1.782-1.51 3.864-1.943 5.316-.182.612-.013 1.366.674 1.716.627.32 1.303.097 1.729-.306 1.034-.978 1.904-1.522 2.567-1.825-.062.167-.123.338-.18.507-.206.614-.045 1.361.623 1.725.593.323 1.258.152 1.701-.21.473-.386.672-.427.74-.431.056-.004.2.005.615.277a1 1 0 1 0 1.1-1.67c-.513-.338-1.116-.647-1.837-.603-.166.01-.326.038-.48.08a1.524 1.524 0 0 0-.133-1.376 1.407 1.407 0 0 0-1.442-.613c-.768.134-1.844.51-3.146 1.439a59.949 59.949 0 0 1 1.78-4.454 1.633 1.633 0 0 0-.325-1.825c-.44-.448-1.198-.671-1.903-.251a14.113 14.113 0 0 0-4.503 4.257C9.578 16.897 9 18.434 9 19.6a1 1 0 1 0 2 0c0-.612.351-1.758 1.226-3.073Z"/><path fill="#000" fill-rule="evenodd" d="M6.4 3a3.4 3.4 0 0 0-1 6.65v12.7a3.401 3.401 0 1 0 4.25 4.25h12.7a3.401 3.401 0 1 0 4.25-4.25V9.65a3.402 3.402 0 0 0-1-6.65 3.402 3.402 0 0 0-3.25 2.4H9.65A3.402 3.402 0 0 0 6.4 3Zm3.25 4.4A3.408 3.408 0 0 1 7.4 9.65v12.7a3.408 3.408 0 0 1 2.25 2.25h12.7a3.408 3.408 0 0 1 2.25-2.25V9.65a3.407 3.407 0 0 1-2.25-2.25H9.65ZM5 6.4a1.4 1.4 0 1 1 2.8 0 1.4 1.4 0 0 1-2.8 0Zm0 19.2a1.4 1.4 0 1 1 2.8 0 1.4 1.4 0 0 1-2.8 0ZM24.2 6.4a1.4 1.4 0 1 1 2.8 0 1.4 1.4 0 0 1-2.8 0Zm1.4 17.8a1.4 1.4 0 1 0 0 2.8 1.4 1.4 0 0 0 0-2.8Z" clip-rule="evenodd"/></svg>