<svg xmlns="http://www.w3.org/2000/svg" width="32" height="32" fill="none" class="persona-icon" viewBox="0 0 32 32"><path fill="currentColor" fill-rule="evenodd" d="M10.223 16.444h11.555a1 1 0 0 1 1 1 6.778 6.778 0 1 1-13.555 0 1 1 0 0 1 1-1m1.363 2.829a4.778 4.778 0 0 0 9.086-.829H11.33q.09.425.257.829" clip-rule="evenodd"/><path fill="currentColor" d="M13.112 11.667a1.444 1.444 0 1 1-2.89 0 1.444 1.444 0 0 1 2.89 0M20.333 13.111a1.444 1.444 0 1 1 0-2.889 1.444 1.444 0 0 1 0 2.89"/><path fill="currentColor" fill-rule="evenodd" d="M16 2c7.733 0 14 6.268 14 14s-6.267 14-14 14C8.27 30 2 23.732 2 16S8.27 2 16 2M4 16c0 6.627 5.373 12 12 12 6.628 0 12-5.373 12-12S22.629 4 16 4C9.374 4 4 9.373 4 16" clip-rule="evenodd"/></svg>