<svg xmlns="http://www.w3.org/2000/svg" width="24" height="24" fill="none" class="persona-icon" viewBox="0 0 24 24"><path fill="currentColor" d="M16.861 8.639v.042h.042v-.042z"/><path fill="currentColor" fill-rule="evenodd" d="M2 5.833c0-.981.796-1.777 1.778-1.777h16.444c.982 0 1.778.796 1.778 1.777v12.334c0 .982-.796 1.778-1.778 1.778H3.778A1.78 1.78 0 0 1 2 18.167zm3.833 6.445a.75.75 0 0 0 0 1.5h3.084a.75.75 0 0 0 0-1.5zm0 3.083a.75.75 0 0 0 0 1.5H12a.75.75 0 0 0 0-1.5zm9.528-7.472V9.43c0 .414.336.75.75.75h1.542a.75.75 0 0 0 .75-.75V7.889a.75.75 0 0 0-.75-.75H16.11a.75.75 0 0 0-.75.75" clip-rule="evenodd"/></svg>