<svg xmlns="http://www.w3.org/2000/svg" width="16" height="16" fill="none"><path fill="#000" fill-rule="evenodd" d="M7.805 1.04a.49.49 0 0 1 .39 0L13.2 3.207a.5.5 0 0 1 .3.46v5.777c0 1.69-1.24 3.084-2.428 4.008a10.63 10.63 0 0 1-1.77 1.114c-.266.13-.511.235-.72.308C8.39 14.94 8.178 15 8 15c-.178 0-.39-.06-.582-.126a6.531 6.531 0 0 1-.72-.309c-.53-.261-1.161-.64-1.77-1.113C3.739 12.528 2.5 11.135 2.5 9.444V3.667a.5.5 0 0 1 .3-.46L7.805 1.04ZM3.49 3.996v5.448c0 1.2.906 2.333 2.041 3.215.553.43 1.127.773 1.603 1.008.237.117.445.205.607.262a2.005 2.005 0 0 0 .259.07 2.005 2.005 0 0 0 .259-.071c.162-.056.37-.143.607-.26a9.632 9.632 0 0 0 1.603-1.009c1.135-.882 2.041-2.016 2.041-3.215V3.996L8 2.044 3.49 3.996Z" clip-rule="evenodd"/></svg>