<svg xmlns="http://www.w3.org/2000/svg" width="933.333" height="933.333" version="1.0" viewBox="0 0 700 700"><path d="M397.5 91c-15.1 1.7-22.6 3.1-38 7.5-60.6 17.1-113.1 68-132.5 128.5-3.4 10.6-4.7 15.7-7.5 30-2.4 11.9-2.6 31.6-2.4 201.2.2 125.6.6 180.9 1.3 181.1 1.2.5 8.7.2 19.8-.8 13.4-1.1 40.1-6.4 47.3-9.5 1.1-.4 6.1-2.3 11-4.1 42.1-15.2 80.1-45.1 106.8-83.9 11.5-16.8 21.9-40.3 21.9-49.8 0-1.2.6-2.2 1.2-2.3s2.2-.2 3.6-.4c1.4-.1 5.4-.5 9-.9s7.2-.8 8-1.1c.8-.2 3.2-.6 5.2-.9 7.8-1.2 26.4-6.1 32.3-8.5 10.8-4.5 24.3-10.7 25.6-11.8.8-.7 1.9-1.3 2.2-1.3 1.4 0 16.8-10 24.9-16.1 16.6-12.7 34.7-32.2 46.3-50 10.1-15.5 23.5-46.2 25.9-59.2.2-1.5.7-3.5 1-4.5 1.2-3.9 3.7-20.3 4.3-28.2 1.2-15.6.3-40-1.7-46.9-.5-1.7-.9-3.4-.9-3.6.2-3.8-5-24.3-8.6-34.1-9.9-26.5-25.9-51.7-45.5-71.5-32.8-33-72.4-52.3-120-58.4-7.8-1-33.2-1.3-40.5-.5"/></svg>