<svg xmlns="http://www.w3.org/2000/svg" width="150" height="150" fill="none" class="persona-ilustration" viewBox="0 0 150 150"><g clip-path="url(#tSQcgjX9Tj_a)"><g clip-path="url(#tSQcgjX9Tj_b)"><rect width="125.006" height="125.006" x="12.497" y="12.497" fill="#D3EDFF" rx="62.503"/><mask id="tSQcgjX9Tj_c" width="108" height="35" x="52" y="90" maskUnits="userSpaceOnUse" style="mask-type:alpha"><path fill="#5BA57C" d="M106.129 90.607c13.117 0 28.797 1.636 32.253 2.448 3.456.811 7.718 2.63 10.943 7.303 3.225 4.674 8.255 17.853 10.367 23.857H52.565c2.112-6.004 7.142-19.183 10.368-23.857s7.487-6.492 10.943-7.303c3.455-.812 19.135-2.448 32.253-2.448"/></mask><g mask="url(#tSQcgjX9Tj_c)"><path fill="#535353" d="M106.129 90.607c13.117 0 28.797 1.636 32.253 2.448 3.456.811 7.718 2.629 10.943 7.303s8.255 17.852 10.367 23.857H52.565c2.112-6.005 7.142-19.183 10.368-23.857s7.487-6.492 10.943-7.303c3.455-.812 19.135-2.448 32.253-2.448"/><path fill="#A36654" d="M93.32 92.182c0 6.67 5.996 12.078 13.392 12.078s13.39-5.407 13.39-12.078-5.995-12.078-13.39-12.078-13.391 5.407-13.391 12.078"/></g><path fill="#A36654" d="M96.677 91.132c0 4.93 4.467 8.927 9.978 8.927 5.51 0 9.977-3.997 9.977-8.927s-4.467-8.927-9.977-8.927-9.978 3.997-9.978 8.927"/><path fill="#A36654" d="M116.632 55.948v35.71H96.677v-35.71z"/><path fill="#F29B7C" d="M125.612 56.429s4.939-5.766 5.616-.163c.677 5.61-1.983 15.892-4.191 13.718s-2.287-5.045-2.287-5.045z"/><path fill="#F29B7C" fill-rule="evenodd" d="M127.65 66.213c-.209-.345-.449-1.026-.673-2.19a.59.59 0 0 0-1.158.223c.23 1.194.5 2.045.822 2.577.16.266.369.51.647.647.312.153.639.136.923-.003.255-.125.455-.336.61-.549.159-.22.302-.484.429-.77.254-.576.471-1.299.639-2.074.335-1.545.496-3.394.317-4.845-.089-.718-.267-1.406-.605-1.91-.173-.26-.4-.489-.695-.636a1.62 1.62 0 0 0-.98-.141.589.589 0 1 0 .179 1.166c.128-.02.212 0 .276.031a.66.66 0 0 1 .24.234c.186.278.335.75.415 1.4.158 1.283.017 2.992-.299 4.451-.158.727-.354 1.368-.566 1.846a3 3 0 0 1-.304.555 1 1 0 0 1-.113.134 1 1 0 0 1-.104-.146" clip-rule="evenodd"/><path fill="#A36654" fill-rule="evenodd" d="m125.925 61.445.517.058zc-.025.356.189.671.478.703s.544-.23.569-.586l.001-.011.006-.058c.007-.053.017-.131.034-.226.036-.192.094-.434.189-.66.095-.228.212-.41.353-.523.129-.104.311-.18.59-.134.288.046.552-.204.589-.558s-.167-.68-.455-.726a1.6 1.6 0 0 0-1.302.336c-.34.274-.564.658-.711 1.011a4.8 4.8 0 0 0-.337 1.388l-.003.03-.001.01v.004" clip-rule="evenodd"/><path fill="#A36654" fill-rule="evenodd" d="m126.25 60.994.318.504zc-.263.166-.329.533-.148.82.181.288.542.386.804.22l-.328-.52.328.52.007-.004.042-.024q.06-.033.17-.083c.15-.065.339-.128.53-.149a.77.77 0 0 1 .463.072c.103.059.248.187.371.517.119.317.455.494.752.396.296-.098.441-.434.322-.751-.211-.567-.54-.972-.958-1.208a1.9 1.9 0 0 0-1.158-.22 3 3 0 0 0-.84.23 3 3 0 0 0-.324.164l-.022.013-.007.004z" clip-rule="evenodd"/><path fill="#F29B7C" d="M87.667 56.544s-4.938-5.766-5.615-.162c-.677 5.61 1.982 15.891 4.19 13.717s2.288-5.045 2.288-5.045z"/><path fill="#F29B7C" fill-rule="evenodd" d="M85.632 66.328c.208-.345.448-1.025.673-2.19a.59.59 0 0 1 1.158.223c-.23 1.194-.501 2.046-.822 2.577-.16.266-.37.51-.648.647a1.03 1.03 0 0 1-.922-.003c-.256-.124-.456-.336-.61-.548a4.2 4.2 0 0 1-.43-.772c-.253-.574-.47-1.297-.639-2.073-.335-1.545-.495-3.393-.316-4.845.088-.717.267-1.406.604-1.91.173-.26.4-.489.696-.635.3-.15.633-.195.98-.142a.59.59 0 0 1-.18 1.166.44.44 0 0 0-.275.032.65.65 0 0 0-.24.234c-.186.278-.335.75-.415 1.4-.158 1.282-.018 2.991.299 4.45.157.727.354 1.368.565 1.847q.16.36.305.555.07.093.113.134.04-.043.104-.147" clip-rule="evenodd"/><path fill="#A36654" fill-rule="evenodd" d="m87.356 61.56-.517.058zc.025.356-.189.671-.478.703-.29.032-.544-.23-.57-.587v-.01l-.006-.058a3.7 3.7 0 0 0-.223-.887c-.095-.227-.212-.408-.353-.522-.13-.104-.311-.18-.59-.134-.288.046-.552-.204-.589-.558s.167-.68.455-.726c.516-.083.952.053 1.303.336.339.274.563.658.71 1.011.148.355.231.71.278.968a5 5 0 0 1 .06.42l.002.03v.009l.001.003z" clip-rule="evenodd"/><path fill="#A36654" fill-rule="evenodd" d="m87.03 61.109-.318.504zc.263.166.33.533.148.82-.181.288-.542.386-.804.22l.328-.52-.328.52.001.002-.008-.006a2 2 0 0 0-.213-.106 1.9 1.9 0 0 0-.53-.15.77.77 0 0 0-.462.073c-.104.058-.248.186-.371.516-.119.317-.455.494-.752.397-.296-.098-.44-.435-.322-.752.211-.567.54-.971.958-1.207a1.9 1.9 0 0 1 1.158-.221c.337.035.634.14.84.23a3 3 0 0 1 .324.164l.022.013.007.004z" clip-rule="evenodd"/><path fill="#F29B7C" d="M106.641 32.53c8.266 0 16.85 3.533 19.011 13.995 1.674 6.122.235 25.363-1.438 29.737-2.536 6.625-13.44 12.245-17.573 12.244v-.014.014c-4.133 0-15.037-5.62-17.573-12.245-1.673-4.373-3.112-23.614-1.438-29.736C89.79 36.063 98.375 32.53 106.64 32.53v.022z"/><path fill="#422A24" d="M120.856 51.635s-3.555-1.48-6.255-.985c-1.869.342-4.18 1.904-4.18 1.904s-.678.124 0-1.68 4.999-1.88 4.999-1.88 2.559 0 4.84 1.196c.949.501 1.197 1.48 1.197 1.48s-.041.4-.601-.041zM92.425 51.635s3.555-1.48 6.255-.985c1.868.342 4.179 1.904 4.179 1.904s.678.124 0-1.68-4.999-1.88-4.999-1.88-2.558 0-4.84 1.196c-.95.501-1.197 1.48-1.197 1.48s.042.4.602-.041z"/><path fill="#F29B7C" d="M103.348 69.617c0 .455 1.474.823 3.293.823 1.818 0 3.293-.368 3.293-.823s-1.475-.823-3.293-.823-3.293.369-3.293.823"/><path fill="#411917" fill-rule="evenodd" d="M106.719 59.961a.59.59 0 0 0-.593.593v8.24a.593.593 0 1 0 1.185 0v-8.24a.59.59 0 0 0-.592-.593M103.227 74.868l.002.001.021.012.096.05c.087.043.221.105.396.175.35.14.863.31 1.5.42 1.27.22 3.036.207 5.012-.748a.565.565 0 1 1 .491 1.016c-2.225 1.076-4.238 1.097-5.696.844a8.7 8.7 0 0 1-1.727-.484 7 7 0 0 1-.61-.28l-.037-.021-.012-.007-.003-.002c-.001 0-.003-.001.282-.489l-.285.488a.564.564 0 1 1 .57-.975m0 0" clip-rule="evenodd"/><mask id="tSQcgjX9Tj_d" width="158" height="51" x="-41" y="100" maskUnits="userSpaceOnUse" style="mask-type:alpha"><path fill="#5BA57C" d="M37.823 100.93c19.265 0 42.293 2.404 47.369 3.595 5.075 1.192 11.334 3.862 16.071 10.726s12.124 26.219 15.226 35.038H-40.843c3.102-8.819 10.489-28.173 15.226-35.038s10.996-9.534 16.071-10.726c5.076-1.191 28.104-3.595 47.369-3.595"/></mask><g mask="url(#tSQcgjX9Tj_d)"><path fill="#8FC7B8" d="M37.823 100.93c19.265 0 42.293 2.404 47.369 3.596 5.075 1.191 11.334 3.861 16.071 10.725 4.737 6.865 12.124 26.219 15.226 35.038H-40.843c3.102-8.819 10.489-28.173 15.226-35.038s10.996-9.534 16.071-10.725c5.076-1.192 28.104-3.596 47.369-3.596"/><path fill="#498F79" d="M65.587 104.787c0 13.204-12.085 23.908-26.993 23.908S11.6 117.991 11.6 104.787s12.085-23.908 26.993-23.908 26.993 10.704 26.993 23.908"/><path fill="#3D7360" fill-rule="evenodd" d="M38.676 82.807c-12.576 0-22.7 9.187-22.7 20.438s10.125 20.437 22.7 20.437c12.576 0 22.701-9.187 22.701-20.437s-10.125-20.438-22.7-20.438m-23.472 20.438c0-11.75 10.547-21.21 23.472-21.21s23.473 9.46 23.473 21.21-10.548 21.208-23.473 21.208-23.472-9.459-23.472-21.208" clip-rule="evenodd"/><path fill="#F29B7C" d="M19.009 103.245c0 9.796 8.805 17.738 19.666 17.738s19.667-7.942 19.667-17.738c0-9.797-8.805-17.739-19.667-17.739-10.861 0-19.666 7.942-19.666 17.739"/></g><path fill="#EA4F4A" d="M144.371 58.862c0 21.121-17.122 38.244-38.244 38.244S67.883 79.983 67.883 58.862c0-21.122 17.122-38.245 38.244-38.245s38.244 17.123 38.244 38.245m-68.186 0c0 16.536 13.405 29.942 29.942 29.942s29.943-13.406 29.943-29.943-13.406-29.942-29.943-29.942-29.942 13.406-29.942 29.943"/><path fill="#EA4F4A" d="m77.679 36.824 6.41-6.41 50.486 50.485-6.41 6.41z"/><path fill="#442EA4" d="M77.186 88.294a5.737 5.737 0 0 1 5.737-5.737h25.775a5.737 5.737 0 0 1 5.737 5.737v53.888a5.737 5.737 0 0 1-5.737 5.737H82.923a5.737 5.737 0 0 1-5.737-5.737z"/><path fill="#310A81" d="M81.357 89.86a2.846 2.846 0 0 1 2.847-2.847h6.707a2.846 2.846 0 0 1 0 5.692h-6.707a2.846 2.846 0 0 1-2.847-2.846"/><path fill="#FFC7B6" d="m139.729 128.272-20.723-13.263-7.46 2.901-7.046 20.723 35.229 9.118z"/><mask id="tSQcgjX9Tj_e" width="41" height="25" x="81" y="95" maskUnits="userSpaceOnUse" style="mask-type:alpha"><path fill="#FFC7B6" d="m101.901 103.64 14.697 9.654 4.687 3.186-9.374 2.711-12.853-7.183-15.415-10.728c-1.38-.907-2.768-2.228-2.56-4.035.377-3.285 4.964-1.196 6.13-.854z"/></mask><g mask="url(#tSQcgjX9Tj_e)"><path fill="#FFC7B6" d="m101.901 103.64 14.697 9.654 4.687 3.186-9.374 2.711-12.853-7.183-15.415-10.728c-1.38-.907-2.768-2.228-2.56-4.035.377-3.285 4.964-1.197 6.13-.854z"/><path fill="#F29B7C" d="m86.47 102.709-2.308-1.169 5.662 6.618 19.775 12.759 6.459-.558-14.801-8.914-5.276-2.871z"/></g><mask id="tSQcgjX9Tj_f" width="44" height="17" x="72" y="110" maskUnits="userSpaceOnUse" style="mask-type:alpha"><path fill="#FFC7B6" d="M74.097 111.979c-2.567 1.409-2.188 4.798-.252 5.618 1.366.579 6.376-.261 9.372-.261 4.879.882 6.632 1.323 11.326 2.116l20.638 6.65-.125-8.073-18.788-6.697c-4.215-.881-8.414-.97-13.389-1.069-2.331-.047-7.66 1.262-8.782 1.716"/></mask><g mask="url(#tSQcgjX9Tj_f)"><path fill="#FFC7B6" d="M74.097 111.979c-2.567 1.409-2.188 4.797-.252 5.618 1.366.579 6.376-.261 9.372-.261 4.879.882 6.632 1.323 11.326 2.116l20.638 6.65-.125-8.073-18.788-6.697c-4.215-.881-8.414-.97-13.389-1.07-2.331-.046-7.66 1.263-8.782 1.717"/><path fill="#F29B7C" d="m83.137 116.081-9.95 1.043-2.194 6.369 31.523 1.022 6.396-1.327-4.785-1.848-8.955-2.985z"/><path fill="#F29B7C" fill-rule="evenodd" d="M82.586 110.818a.317.317 0 0 0-.412.176 7 7 0 0 0-.358 1.259c-.089.487-.13 1.056.03 1.505.263.747.516 1.296.616 1.487.08.155.272.215.427.135a.32.32 0 0 0 .134-.428 13 13 0 0 1-.58-1.404c-.102-.287-.088-.718-.004-1.182a6.4 6.4 0 0 1 .323-1.137.316.316 0 0 0-.176-.411" clip-rule="evenodd"/></g><mask id="tSQcgjX9Tj_g" width="44" height="17" x="73" y="118" maskUnits="userSpaceOnUse" style="mask-type:alpha"><path fill="#FFC7B6" d="M75.533 120.538c-2.567 1.41-2.188 4.798-.253 5.618 1.367.579 6.377-.26 9.373-.26 4.878.881 6.632 1.322 11.325 2.115l20.639 6.65-.126-8.073-18.787-6.697c-4.215-.881-8.414-.97-13.39-1.069-2.33-.047-7.66 1.262-8.781 1.716"/></mask><g mask="url(#tSQcgjX9Tj_g)"><path fill="#FFC7B6" d="M75.533 120.538c-2.567 1.41-2.188 4.798-.253 5.618 1.367.579 6.377-.26 9.373-.26 4.878.881 6.632 1.322 11.325 2.116l20.639 6.649-.126-8.073-18.787-6.696c-4.215-.881-8.414-.971-13.39-1.07-2.33-.047-7.66 1.262-8.781 1.716"/><path fill="#F29B7C" fill-rule="evenodd" d="M83.822 119.625a.257.257 0 0 0-.346.111 5.6 5.6 0 0 0-.386.989c-.11.388-.186.844-.092 1.219.155.624.318 1.087.384 1.249a.257.257 0 1 0 .476-.193c-.055-.136-.21-.576-.362-1.18-.06-.239-.015-.586.088-.955.102-.359.247-.697.349-.894a.257.257 0 0 0-.111-.346" clip-rule="evenodd"/><path fill="#F29B7C" d="m84.573 124.64-9.95 1.042-2.194 6.369 31.523 1.022 6.396-1.326-4.786-1.848-8.955-2.985z"/></g><mask id="tSQcgjX9Tj_h" width="45" height="15" x="77" y="127" maskUnits="userSpaceOnUse" style="mask-type:alpha"><path fill="#FFC7B6" d="M79.643 129.567c-2.532 1.471-1.954 3.262 0 4.036 1.38.546 6.368-.413 9.364-.484 4.898.765 6.661 1.164 11.373 1.845l20.791 6.156-.318-8.068-18.801-5.742c-4.235-.78-7.38.204-12.356.223-2.332.009-8.943 1.553-10.053 2.034"/></mask><g mask="url(#tSQcgjX9Tj_h)"><path fill="#FFC7B6" d="M79.643 129.568c-2.533 1.47-1.955 3.261 0 4.035 1.38.547 6.368-.412 9.364-.483 4.897.764 6.661 1.163 11.372 1.845l20.791 6.156-.317-8.068-18.801-5.742c-4.235-.781-7.38.203-12.356.223-2.332.009-8.943 1.553-10.053 2.034"/><path fill="#F29B7C" d="m88.897 131.866-9.923 1.28-2.04 6.419 31.537.271 6.363-1.479-4.828-1.733-9.024-2.771z"/></g></g><path fill="#F29B7C" d="M23.939 101.702c0 7.241 6.56 13.111 14.653 13.111s14.654-5.87 14.654-13.111-6.56-13.111-14.654-13.111c-8.092 0-14.653 5.87-14.653 13.111"/><path fill="#F29B7C" d="M53.246 50.029v52.444H23.939V50.029z"/><path fill="#FFC7B6" d="M66.436 50.734s7.253-8.467 8.247-.238c.994 8.238-2.912 23.34-6.154 20.146s-3.36-7.41-3.36-7.41z"/><path fill="#F29B7C" fill-rule="evenodd" d="M69.425 65.104c-.307-.507-.66-1.506-.99-3.216a.866.866 0 0 0-1.7.328c.339 1.753.736 3.003 1.208 3.784.236.39.541.75.95.95a1.51 1.51 0 0 0 1.355-.004c.376-.183.67-.494.896-.806.235-.323.444-.711.63-1.133.373-.844.692-1.906.94-3.044.492-2.27.727-4.984.465-7.116-.13-1.053-.393-2.065-.889-2.806-.254-.38-.588-.717-1.021-.932a2.37 2.37 0 0 0-1.439-.208.866.866 0 1 0 .263 1.712.65.65 0 0 1 .405.046c.1.05.223.15.353.344.273.408.491 1.102.609 2.056.232 1.883.026 4.394-.439 6.537-.232 1.067-.52 2.008-.83 2.711a4.5 4.5 0 0 1-.448.815 1.5 1.5 0 0 1-.166.197 1.5 1.5 0 0 1-.153-.215" clip-rule="evenodd"/><path fill="#A36654" fill-rule="evenodd" d="m66.893 58.102.751.083zc-.038.523.276.985.701 1.032.424.046.798-.338.836-.86l.002-.018.009-.084a5 5 0 0 1 .05-.332c.051-.283.138-.638.276-.97.14-.335.313-.6.519-.767.19-.154.457-.264.867-.198.423.068.81-.299.864-.819.055-.52-.244-.997-.667-1.065-.758-.123-1.4.077-1.913.492-.499.403-.828.967-1.044 1.486a7 7 0 0 0-.409 1.422 8 8 0 0 0-.087.616l-.003.043-.001.014v.008" clip-rule="evenodd"/><path fill="#A36654" fill-rule="evenodd" d="M67.853 58.203c-.482-.764-.481-.765-.481-.765z" clip-rule="evenodd"/><path fill="#FFC7B6" d="M10.708 50.904s-7.253-8.468-8.247-.238c-.994 8.238 2.911 23.339 6.154 20.146s3.36-7.41 3.36-7.41z"/><path fill="#F29B7C" fill-rule="evenodd" d="M7.719 65.274c.306-.507.659-1.506.988-3.217a.866.866 0 1 1 1.7.328c-.337 1.754-.734 3.004-1.206 3.785-.236.39-.542.75-.951.95a1.51 1.51 0 0 1-1.355-.004c-.375-.184-.669-.494-.896-.806a6.2 6.2 0 0 1-.63-1.133c-.373-.844-.692-1.906-.939-3.045-.492-2.27-.728-4.983-.465-7.115.13-1.054.392-2.065.888-2.806.254-.381.588-.717 1.021-.933.442-.22.93-.285 1.439-.207a.866.866 0 1 1-.262 1.711.65.65 0 0 0-.406.047c-.1.05-.223.15-.352.344-.273.408-.492 1.102-.61 2.056-.232 1.883-.026 4.394.44 6.536.23 1.068.52 2.01.83 2.712.156.352.308.623.447.815q.103.138.166.197c.04-.045.09-.113.153-.215" clip-rule="evenodd"/><path fill="#A36654" fill-rule="evenodd" d="m10.25 58.271-.75.083zc.038.523-.277.985-.702 1.032s-.797-.338-.835-.86l-.002-.017-.009-.085a5 5 0 0 0-.05-.332 5 5 0 0 0-.277-.97c-.139-.335-.312-.6-.518-.767-.19-.154-.457-.264-.867-.197-.423.067-.81-.3-.864-.82-.055-.52.244-.997.667-1.065.758-.122 1.399.077 1.913.492.499.403.827.967 1.043 1.486.218.52.34 1.042.41 1.422a8 8 0 0 1 .086.616l.004.043.001.014v.008M9.29 58.372l.482-.764z" clip-rule="evenodd"/><path fill="#FFC7B6" d="M38.573 15.636c12.14 0 24.746 5.19 27.92 20.553 2.458 8.992.346 37.25-2.112 43.673-3.724 9.73-19.739 17.984-25.808 17.984v-.022.022c-6.07 0-22.085-8.254-25.809-17.984-2.457-6.422-4.57-34.681-2.112-43.673 3.174-15.364 15.781-20.552 27.92-20.553v.033z"/><path fill="#411917" d="M58.604 50.516c0 1.77-1.163 3.204-2.596 3.204s-2.596-1.435-2.596-3.204 1.162-1.906 2.596-1.906c1.433 0 2.596.137 2.596 1.906"/><path fill="#411917" fill-rule="evenodd" d="M43.547 50.102s0 .002.8.33za.866.866 0 0 0 1.597.67l.006-.014q.013-.028.055-.098c.055-.093.152-.236.301-.404.296-.333.81-.771 1.65-1.105 1.678-.667 4.806-.968 10.353 1.128a.866.866 0 1 0 .612-1.62c-5.774-2.182-9.38-2.001-11.605-1.117-1.111.441-1.843 1.045-2.303 1.562-.229.257-.388.49-.494.666a3 3 0 0 0-.155.291l-.01.025-.005.01-.001.004zM33.598 50.102s0 .002-.8.33za.866.866 0 0 1-1.597.67l-.007-.014a2 2 0 0 0-.054-.098 2.7 2.7 0 0 0-.302-.404c-.296-.333-.809-.771-1.649-1.105-1.678-.667-4.807-.968-10.353 1.128a.866.866 0 1 1-.612-1.62c5.774-2.182 9.379-2.001 11.604-1.117 1.112.441 1.843 1.045 2.303 1.562.23.257.389.49.495.666a3 3 0 0 1 .154.291l.011.025.004.01.002.004z" clip-rule="evenodd"/><path fill="#411917" d="M33.35 50.516c0 1.77-1.162 3.204-2.596 3.204s-2.596-1.435-2.596-3.204 1.162-1.906 2.596-1.906 2.596.137 2.596 1.906"/><path fill="#422A24" d="M59.45 43.693s-5.222-2.173-9.187-1.446c-2.745.503-6.139 2.797-6.139 2.797s-.995.182 0-2.468c.996-2.649 7.342-2.761 7.342-2.761s3.758 0 7.109 1.757c1.394.736 1.757 2.173 1.757 2.173s-.06.59-.883-.06zM17.693 43.693s5.22-2.173 9.186-1.446c2.745.502 6.139 2.797 6.139 2.797s.995.181 0-2.468c-.996-2.65-7.342-2.762-7.342-2.762s-3.758 0-7.109 1.758c-1.394.736-1.757 2.173-1.757 2.173s.06.589.883-.06z"/><path fill="#F29B7C" d="M33.735 70.102c0 .668 2.165 1.21 4.836 1.21 2.67 0 4.836-.542 4.836-1.21s-2.165-1.209-4.836-1.209c-2.67 0-4.836.542-4.836 1.21"/><path fill="#411917" fill-rule="evenodd" d="M38.685 55.92a.87.87 0 0 0-.87.87v12.103a.87.87 0 0 0 1.74 0V56.791a.87.87 0 0 0-.87-.87M32.682 80.846l.003-.002.035-.019q.051-.028.162-.083c.147-.074.372-.179.666-.296.59-.236 1.452-.521 2.524-.707 2.137-.37 5.11-.348 8.434 1.26a.95.95 0 1 0 .827-1.71c-3.745-1.811-7.132-1.847-9.585-1.422a14.6 14.6 0 0 0-2.905.815 11 11 0 0 0-1.027.473l-.063.034-.019.011-.006.004-.003.001s-.001.001.478.821l-.48-.82a.95.95 0 1 0 .96 1.64m-.002.001" clip-rule="evenodd"/><path fill="#422A24" d="M65.233 42.879c-.007.115-.015.234-.015.356v11.02s1.476.4 2.046-.742c.193-.387.152-1.114.11-1.846-.042-.768-.086-1.541.14-1.93 2.253-2.668 4.654-2.81 4.654-2.81 1.49-13.557-3.34-38.414-33.597-38.544h-.237C8.077 8.512 3.23 33.512 4.72 47.068c0 0 2.418 0 4.67 2.667.226.39.183 1.163.14 1.93-.041.733-.082 1.46.11 1.847.57 1.142 2.046.741 2.046.741V43.235q-.002-.183-.014-.356c-.039-.61-.07-1.104 1.05-1.289.658-.109 1.198-.62 1.26-1.285.2-2.151.94-3.901 2.063-5.326q.3-.229.61-.47c3.07-2.385 7.168-5.568 21.797-5.738 14.63.17 18.728 3.353 21.798 5.738q.31.241.61.47c1.123 1.425 1.863 3.175 2.063 5.326.062.664.601 1.176 1.26 1.285 1.12.185 1.088.68 1.05 1.289"/></g><defs><clipPath id="tSQcgjX9Tj_a"><path fill="#fff" d="M0 0h150v150H0z"/></clipPath><clipPath id="tSQcgjX9Tj_b"><rect width="125.006" height="125.006" x="12.497" y="12.497" fill="#fff" rx="62.503"/></clipPath></defs></svg>