<svg xmlns="http://www.w3.org/2000/svg" width="20" height="20" fill="none" class="persona-icon" viewBox="0 0 20 20"><path fill="currentColor" d="M11.377 4.1a.625.625 0 0 0-.986-.51L5.662 6.934H3.823c-1.02 0-1.847.827-1.847 1.847v2.438c0 1.02.827 1.847 1.847 1.847h1.84l4.728 3.344a.625.625 0 0 0 .986-.51zM13.597 7.559a.625.625 0 0 0-.884.884L14.271 10l-1.558 1.557a.625.625 0 1 0 .884.884l1.558-1.557 1.558 1.557a.625.625 0 1 0 .884-.884L16.039 10l1.558-1.557a.625.625 0 0 0-.884-.884l-1.558 1.557z"/></svg>