<svg xmlns="http://www.w3.org/2000/svg" width="16" height="16" fill="none" class="persona-icon" viewBox="0 0 16 16"><path fill="currentColor" fill-rule="evenodd" d="M4.88 6.241a2.6 2.6 0 0 1 3.513-.934 2.507 2.507 0 0 1 .932 3.451l-.138.24a.5.5 0 0 1-.866-.5l.14-.241.001-.003A1.507 1.507 0 0 0 7.9 6.177a1.6 1.6 0 0 0-2.157.571l-2.046 3.481a1.525 1.525 0 0 0 .57 2.101 1.58 1.58 0 0 0 2.133-.565l.129-.219a.5.5 0 0 1 .862.507l-.129.219a2.58 2.58 0 0 1-3.488.928 2.525 2.525 0 0 1-.939-3.477zm3.858-2.513a2.58 2.58 0 0 1 3.489-.928 2.525 2.525 0 0 1 .938 3.478l-2.045 3.48a2.6 2.6 0 0 1-3.513.935 2.507 2.507 0 0 1-.933-3.451l.14-.243a.5.5 0 0 1 .866.5l-.14.244-.003.003A1.507 1.507 0 0 0 8.1 9.824a1.6 1.6 0 0 0 2.158-.572l2.045-3.481a1.525 1.525 0 0 0-.57-2.101 1.58 1.58 0 0 0-2.133.565l-.128.22a.5.5 0 1 1-.863-.508z" clip-rule="evenodd"/></svg>