<svg xmlns="http://www.w3.org/2000/svg" width="16" height="16" fill="none" class="persona-icon" viewBox="0 0 16 16"><path fill="currentColor" d="M12.62 2.359c-1.308-.74-2.997-.3-3.762.998l-.141.24a.48.48 0 0 0 .178.663.5.5 0 0 0 .675-.18l.141-.24a1.79 1.79 0 0 1 2.412-.638 1.735 1.735 0 0 1 .65 2.393l-2.246 3.813a1.81 1.81 0 0 1-2.44.644 1.716 1.716 0 0 1-.642-2.366.48.48 0 0 0-.178-.663.5.5 0 0 0-.675.18 2.675 2.675 0 0 0 1 3.693c1.316.745 3.018.301 3.788-1.006l2.246-3.813A2.694 2.694 0 0 0 12.62 2.36"/><path fill="currentColor" d="M8.409 5.105c-1.317-.746-3.02-.302-3.789 1.005L2.374 9.923a2.694 2.694 0 0 0 1.006 3.719c1.308.74 2.998.299 3.762-.999l.141-.24a.48.48 0 0 0-.178-.663.5.5 0 0 0-.675.18l-.141.24a1.79 1.79 0 0 1-2.412.638 1.735 1.735 0 0 1-.65-2.392l2.246-3.814a1.81 1.81 0 0 1 2.44-.644c.84.476 1.13 1.539.642 2.366a.48.48 0 0 0 .178.663.5.5 0 0 0 .675-.18 2.675 2.675 0 0 0-1-3.693"/></svg>