<svg xmlns="http://www.w3.org/2000/svg" width="24" height="24" fill="none"><path fill="#000" d="M19.321 3.066c-2.064-1.168-4.732-.473-5.939 1.576l-.224.381a.738.738 0 0 0 .274 1.021.77.77 0 0 0 1.039-.278l.225-.381c.78-1.324 2.514-1.782 3.86-1.02a2.777 2.777 0 0 1 1.04 3.828l-3.565 6.053c-.788 1.338-2.542 1.802-3.903 1.031a2.746 2.746 0 0 1-1.029-3.787.738.738 0 0 0-.274-1.02.77.77 0 0 0-1.04.277 4.223 4.223 0 0 0 1.578 5.829c2.079 1.176 4.766.476 5.981-1.587l3.566-6.052a4.254 4.254 0 0 0-1.589-5.871Z"/><path fill="#000" d="M12.637 7.424c-2.079-1.176-4.766-.476-5.981 1.587L3.09 15.063a4.253 4.253 0 0 0 1.589 5.871c2.064 1.168 4.732.473 5.939-1.576l.224-.381a.738.738 0 0 0-.274-1.021.77.77 0 0 0-1.039.278l-.225.381c-.78 1.324-2.514 1.783-3.86 1.02a2.777 2.777 0 0 1-1.04-3.828l3.565-6.053c.788-1.338 2.542-1.802 3.903-1.031a2.746 2.746 0 0 1 1.029 3.787.738.738 0 0 0 .274 1.02.77.77 0 0 0 1.04-.277 4.223 4.223 0 0 0-1.578-5.829Z"/></svg>