<svg xmlns="http://www.w3.org/2000/svg" width="24" height="24" fill="none" class="persona-icon" viewBox="0 0 24 24"><path fill="currentColor" fill-rule="evenodd" d="M7.511 9.47c1.03-1.755 3.305-2.349 5.067-1.349a3.617 3.617 0 0 1 1.346 4.98l-.198.343a.75.75 0 0 1-1.299-.75l.202-.35c.6-1.02.246-2.33-.791-2.918-1.057-.6-2.422-.237-3.034.803l-2.921 4.973a2.14 2.14 0 0 0 .8 2.953c1.045.593 2.395.235 2.999-.794l.184-.314a.75.75 0 0 1 1.293.76l-.184.314c-1.024 1.742-3.282 2.332-5.032 1.339a3.643 3.643 0 0 1-1.354-5.017zm5.513-3.591c1.023-1.742 3.281-2.332 5.032-1.339a3.643 3.643 0 0 1 1.353 5.017l-2.921 4.973c-1.031 1.755-3.305 2.349-5.067 1.349a3.617 3.617 0 0 1-1.346-4.98l.2-.346a.75.75 0 0 1 1.298.75l-.203.353c-.6 1.02-.246 2.33.79 2.918 1.058.6 2.423.237 3.034-.803l2.922-4.974a2.14 2.14 0 0 0-.8-2.952c-1.045-.593-2.395-.235-2.999.794l-.184.313a.75.75 0 1 1-1.293-.76z" clip-rule="evenodd"/></svg>