<svg xmlns="http://www.w3.org/2000/svg" width="16" height="16" fill="none"><path fill="#000" fill-rule="evenodd" d="M4.043 10.495c.31.364.458.83.602 1.411v1.51c0 .875.702 1.584 1.567 1.584h3.575c.866 0 1.568-.709 1.568-1.583v-1.402a2.486 2.486 0 0 1 .602-1.52c.726-.851 1.543-2.216 1.543-3.94C13.5 3.286 11.025 1 8 1S2.5 3.284 2.5 6.556c0 1.723.817 3.088 1.543 3.94ZM8 2C5.497 2 3.49 3.861 3.49 6.556c0 1.397.665 2.538 1.304 3.287.498.584.687 1.304.835 1.918a1.353 1.353 0 0 0 .219.04c.194.022.452.03.805.032h.852v-1.46L6.22 9.077a.504.504 0 0 1 0-.707.492.492 0 0 1 .7 0L8 9.459l1.08-1.09a.492.492 0 0 1 .7 0 .504.504 0 0 1 0 .707l-1.285 1.298v1.46h1.881c.06-.742.354-1.432.83-1.99.639-.75 1.304-1.891 1.304-3.288C12.51 3.86 10.503 2 8 2ZM5.635 12.833h1.013c.24.002.512.002.819.001H8.025c.586 0 1.05.017 1.422.031l.104.004c.32.013.59.024.797.015h.017v.533a.58.58 0 0 1-.578.583H6.212a.58.58 0 0 1-.577-.583v-.584Z" clip-rule="evenodd"/></svg>