<svg xmlns="http://www.w3.org/2000/svg" width="20" height="20" fill="none" class="persona-icon" viewBox="0 0 20 20"><path fill="currentColor" d="M12.939 3.299c-.694-.694-1.88-.203-1.88.779v1.254L7.789 8.1a6 6 0 0 0-.227-.168 2.9 2.9 0 0 0-.966-.466c-.851-.209-1.766.085-2.764 1.083a.625.625 0 0 0 0 .884l2.926 2.926-3.6 3.6a.625.625 0 0 0 .884.884l3.6-3.6 2.926 2.926c.244.244.64.244.884 0 .998-.998 1.292-1.913 1.083-2.763a2.9 2.9 0 0 0-.466-.967 6 6 0 0 0-.168-.226l2.767-3.27h1.255c.981 0 1.472-1.187.779-1.88z"/></svg>