<svg xmlns="http://www.w3.org/2000/svg" width="24" height="24" fill="none" class="persona-icon" viewBox="0 0 24 24"><path fill="currentColor" d="M15.749 3.401c-.86-.859-2.328-.25-2.328.965v1.643L9.15 9.62Q9 9.503 8.826 9.38c-.325-.229-.734-.47-1.228-.592-1.071-.264-2.231.103-3.51 1.38a.75.75 0 0 0 0 1.062l3.812 3.81-4.68 4.68a.75.75 0 0 0 1.06 1.061l4.68-4.68 3.812 3.812a.75.75 0 0 0 1.06 0c1.279-1.279 1.645-2.439 1.381-3.51-.121-.494-.363-.903-.591-1.227a8 8 0 0 0-.243-.325l3.613-4.27h1.643c1.215 0 1.824-1.47.964-2.328z"/></svg>