<svg xmlns="http://www.w3.org/2000/svg" width="24" height="24" fill="none" class="persona-icon" viewBox="0 0 24 24"><path fill="currentColor" d="m15.749 3.401 4.85 4.85c.86.86.25 2.329-.964 2.329h-1.643l-3.613 4.27q.119.15.242.325c.229.324.47.733.592 1.227.264 1.071-.102 2.231-1.38 3.51a.75.75 0 0 1-1.061 0L8.96 16.1l-4.68 4.68a.75.75 0 0 1-1.06-1.062l4.68-4.68-3.812-3.81a.75.75 0 0 1 0-1.061c1.279-1.278 2.439-1.644 3.51-1.381.494.121.903.363 1.228.592q.173.123.325.242l4.27-3.612V4.366c0-1.215 1.469-1.824 2.328-.965"/></svg>