<svg xmlns="http://www.w3.org/2000/svg" width="32" height="32" fill="none" class="persona-icon" viewBox="0 0 32 32"><path fill="currentColor" d="M20.999 4.535c-1.146-1.146-3.105-.334-3.105 1.286v2.19l-5.693 4.817c-.134-.104-.28-.215-.434-.323-.432-.305-.978-.627-1.636-.79-1.428-.35-2.975.138-4.68 1.842a1 1 0 0 0 0 1.414l5.082 5.082-6.24 6.24a1 1 0 0 0 1.414 1.414l6.24-6.24 5.082 5.082a1 1 0 0 0 1.414 0c1.705-1.705 2.193-3.251 1.841-4.68-.162-.658-.484-1.204-.789-1.636-.108-.154-.22-.3-.323-.434l4.817-5.693h2.19c1.62 0 2.432-1.958 1.287-3.104z"/></svg>