<svg xmlns="http://www.w3.org/2000/svg" width="16" height="16" fill="none"><path fill="currentColor" d="M5.42 10.833a.492.492 0 0 0-.484.5c0 .276.216.5.483.5h5.162a.492.492 0 0 0 .484-.5c0-.276-.217-.5-.484-.5H5.419ZM4.936 8.667c0-.276.216-.5.483-.5h5.162c.267 0 .484.224.484.5s-.217.5-.484.5H5.419a.492.492 0 0 1-.483-.5ZM5.42 5.5a.492.492 0 0 0-.484.5c0 .276.216.5.483.5h1.29a.492.492 0 0 0 .485-.5c0-.276-.217-.5-.484-.5H5.42Z"/><path fill="currentColor" d="M3 4c0-1.38 1.083-2.5 2.42-2.5h2.922c.492 0 .962.21 1.298.582l2.883 3.193c.306.34.477.786.477 1.25V12c0 1.38-1.083 2.5-2.42 2.5H5.42C4.082 14.5 3 13.38 3 12V4Zm2.42-1.5c-.802 0-1.452.672-1.452 1.5v8c0 .828.65 1.5 1.451 1.5h5.162c.801 0 1.451-.672 1.451-1.5V6.5H9.935c-.98 0-1.774-.82-1.774-1.833V2.5H5.42Zm3.709.707L11.348 5.5H9.935a.82.82 0 0 1-.806-.833v-1.46Z"/></svg>