<svg xmlns="http://www.w3.org/2000/svg" width="16" height="16" fill="none" class="persona-icon" viewBox="0 0 16 16"><path fill="currentColor" fill-rule="evenodd" d="M3 4.143A2.43 2.43 0 0 1 5.43 1.714H8.34c.495 0 .968.205 1.306.567L12.52 5.36c.309.331.48.766.48 1.219v5.279a2.43 2.43 0 0 1-2.428 2.428H5.429A2.43 2.43 0 0 1 3 11.857zM5.43 2.714c-.79 0-1.429.64-1.429 1.429v7.714c0 .789.64 1.428 1.429 1.428h5.143c.789 0 1.428-.64 1.428-1.428V6.572H9.93c-.986 0-1.786-.8-1.786-1.786V2.714zm-.5 3.357a.5.5 0 0 0 .5.5h1.286a.5.5 0 0 0 0-1H5.429a.5.5 0 0 0-.5.5m0 2.572a.5.5 0 0 0 .5.5h5.143a.5.5 0 1 0 0-1H5.429a.5.5 0 0 0-.5.5m0 2.571a.5.5 0 0 0 .5.5h5.143a.5.5 0 0 0 0-1H5.429a.5.5 0 0 0-.5.5m4.214-8.007v1.579c0 .434.352.786.786.786h1.421z" clip-rule="evenodd"/></svg>