<svg xmlns="http://www.w3.org/2000/svg" width="24" height="24" fill="none" class="persona-icon" viewBox="0 0 24 24"><path fill="currentColor" fill-rule="evenodd" d="M4 5.846C4 3.722 5.733 2 7.871 2h4.677c.787 0 1.538.325 2.075.896l4.614 4.911c.49.522.763 1.21.763 1.925v8.422C20 20.278 18.267 22 16.129 22H7.871C5.733 22 4 20.278 4 18.154zM7.871 3.54a2.315 2.315 0 0 0-2.323 2.307v12.308a2.315 2.315 0 0 0 2.323 2.308h8.258a2.315 2.315 0 0 0 2.323-2.308V9.732l-.001-.04h-3.354a2.83 2.83 0 0 1-2.839-2.82V3.539zm-.774 5.384c0 .425.346.77.774.77h2.064a.77.77 0 0 0 .775-.77.77.77 0 0 0-.775-.77H7.871a.77.77 0 0 0-.774.77m0 4.103c0 .425.346.769.774.769h8.258a.77.77 0 0 0 .774-.77.77.77 0 0 0-.774-.769H7.871a.77.77 0 0 0-.774.77m0 4.102c0 .425.346.77.774.77h8.258a.77.77 0 0 0 .774-.77.77.77 0 0 0-.774-.769H7.871a.77.77 0 0 0-.774.77m6.71-12.502v2.246c0 .708.577 1.282 1.29 1.282h2.26z" clip-rule="evenodd"/></svg>