<svg xmlns="http://www.w3.org/2000/svg" width="24" height="24" fill="none" class="persona-icon" viewBox="0 0 24 24"><path fill="currentColor" fill-rule="evenodd" d="M4.056 5.833A3.833 3.833 0 0 1 7.889 2h4.657c.777 0 1.52.323 2.05.891l4.594 4.922c.485.52.754 1.203.754 1.914v8.44A3.833 3.833 0 0 1 16.111 22H7.89a3.833 3.833 0 0 1-3.833-3.833zM7.889 3.5a2.333 2.333 0 0 0-2.333 2.333v12.334A2.333 2.333 0 0 0 7.889 20.5h8.222a2.333 2.333 0 0 0 2.333-2.333v-8.44l-.001-.06h-3.36a2.806 2.806 0 0 1-2.805-2.806V3.5zm-.75 5.417c0 .414.336.75.75.75h2.055a.75.75 0 1 0 0-1.5H7.89a.75.75 0 0 0-.75.75m0 4.11c0 .415.336.75.75.75h8.222a.75.75 0 0 0 0-1.5H7.89a.75.75 0 0 0-.75.75m0 4.112c0 .414.336.75.75.75h8.222a.75.75 0 0 0 0-1.5H7.89a.75.75 0 0 0-.75.75m6.639-12.927v2.65c0 .72.584 1.305 1.305 1.305h2.385z" clip-rule="evenodd"/></svg>