<svg xmlns="http://www.w3.org/2000/svg" width="150" height="150" fill="none" class="persona-ilustration" viewBox="0 0 150 150"><g clip-path="url(#ptAf8rNmar_a)"><g clip-path="url(#ptAf8rNmar_b)"><rect width="125.006" height="125.006" x="12.497" y="12.497" fill="#D3EDFF" rx="62.503"/><mask id="ptAf8rNmar_c" width="160" height="51" x="-5" y="102" maskUnits="userSpaceOnUse" style="mask-type:alpha"><path fill="#5BA57C" d="M75 102.735c19.406 0 42.605 2.422 47.718 3.622 5.113 1.201 11.418 3.89 16.19 10.805 4.772 6.916 12.214 26.413 15.338 35.297H-4.248c3.124-8.884 10.566-28.381 15.338-35.297s11.078-9.604 16.19-10.805c5.113-1.2 28.312-3.622 47.72-3.622"/></mask><g mask="url(#ptAf8rNmar_c)"><path fill="#8FC7B8" d="M75 102.736c19.406 0 42.605 2.421 47.718 3.621s11.418 3.89 16.19 10.805c4.772 6.916 12.214 26.413 15.338 35.297H-4.248c3.124-8.884 10.566-28.381 15.338-35.297s11.078-9.604 16.19-10.805c5.113-1.2 28.312-3.621 47.72-3.621"/><path fill="#498F79" d="M102.969 106.621c0 13.301-12.175 24.084-27.193 24.084s-27.192-10.783-27.192-24.084 12.174-24.085 27.192-24.085 27.193 10.783 27.193 24.085"/><path fill="#3D7360" fill-rule="evenodd" d="M75.86 84.478c-12.669 0-22.869 9.255-22.869 20.589s10.2 20.589 22.87 20.589c12.668 0 22.868-9.255 22.868-20.589s-10.2-20.589-22.869-20.589m-23.646 20.589c0-11.837 10.626-21.366 23.646-21.366s23.646 9.53 23.646 21.366-10.625 21.365-23.646 21.365c-13.02 0-23.646-9.529-23.646-21.365" clip-rule="evenodd"/><path fill="#F29B7C" d="M56.048 105.067c0 9.869 8.87 17.869 19.812 17.869s19.812-8 19.812-17.869-8.87-17.87-19.812-17.87-19.812 8-19.812 17.87"/></g></g><path fill="#FFC7B6" d="M103.827 52.169s7.306-8.53 8.308-.24c1.001 8.3-2.933 23.511-6.2 20.295-3.267-3.217-3.385-7.464-3.385-7.464z"/><path fill="#F29B7C" fill-rule="evenodd" d="M106.839 66.645c-.309-.511-.664-1.517-.996-3.24a.873.873 0 0 0-1.713.33c.34 1.766.74 3.026 1.216 3.812.237.394.545.756.958.958.46.226.944.2 1.364-.005.379-.184.674-.497.903-.812.236-.324.447-.716.634-1.14.376-.85.698-1.92.947-3.068.496-2.286.733-5.02.468-7.168-.131-1.061-.395-2.08-.894-2.827-.257-.383-.593-.722-1.029-.94a2.4 2.4 0 0 0-1.45-.208.872.872 0 1 0 .265 1.724c.19-.029.314 0 .408.047.102.05.225.151.355.347.275.41.496 1.11.614 2.07.234 1.898.026 4.427-.442 6.586-.233 1.075-.524 2.023-.837 2.731-.157.355-.31.628-.45.821a1.5 1.5 0 0 1-.168.199 1.5 1.5 0 0 1-.153-.217" clip-rule="evenodd"/><path fill="#A36654" fill-rule="evenodd" d="M104.287 59.59s0 .002.775.087zc-.037.526.28.992.708 1.04.427.046.804-.342.842-.868v.002l.001-.018.009-.086a5 5 0 0 1 .051-.334c.052-.285.139-.643.278-.978.141-.336.315-.604.523-.772.191-.155.46-.265.873-.199.426.069.816-.3.871-.825s-.246-1.005-.673-1.074c-.763-.123-1.409.078-1.927.497-.502.405-.833.974-1.051 1.496a7 7 0 0 0-.412 1.433 7 7 0 0 0-.087.62l-.004.044-.001.014-.001.005z" clip-rule="evenodd"/><path fill="#A36654" fill-rule="evenodd" d="m104.77 58.923.485.77zc-.389.245-.487.79-.219 1.214.268.425.8.57 1.189.325l.011-.006.063-.035c.057-.032.144-.076.251-.123.221-.096.501-.19.784-.22s.512.01.684.106c.154.087.368.276.55.764.175.47.672.732 1.111.587s.653-.642.478-1.111c-.313-.84-.8-1.438-1.419-1.787-.599-.338-1.215-.38-1.713-.327a4.3 4.3 0 0 0-1.241.34 5 5 0 0 0-.48.243l-.033.02-.01.006-.004.002z" clip-rule="evenodd"/><path fill="#FFC7B6" d="M47.684 52.339s-7.306-8.53-8.308-.24c-1.001 8.299 2.933 23.511 6.2 20.295 3.267-3.217 3.384-7.464 3.384-7.464z"/><path fill="#F29B7C" fill-rule="evenodd" d="M44.672 66.816c.309-.511.664-1.518.996-3.24a.872.872 0 1 1 1.713.33c-.34 1.766-.74 3.026-1.216 3.812-.238.393-.546.755-.958.958-.46.225-.945.2-1.364-.005-.379-.185-.675-.497-.904-.812a6.3 6.3 0 0 1-.634-1.14c-.376-.851-.697-1.921-.946-3.068-.496-2.286-.733-5.02-.469-7.168.131-1.062.396-2.08.895-2.827.256-.384.593-.722 1.029-.94a2.4 2.4 0 0 1 1.45-.209.872.872 0 1 1-.265 1.725.65.65 0 0 0-.408.047c-.102.05-.225.15-.356.346-.274.412-.495 1.11-.613 2.071-.234 1.898-.026 4.427.442 6.585.233 1.076.524 2.024.837 2.732.156.354.31.627.45.82.068.095.125.158.168.2.039-.046.09-.114.153-.217" clip-rule="evenodd"/><path fill="#A36654" fill-rule="evenodd" d="m47.225 59.76-.775.086zc.037.526-.28.992-.708 1.039s-.805-.341-.842-.868v.003l-.001-.019a5 5 0 0 0-.06-.42 5 5 0 0 0-.279-.977c-.14-.337-.314-.604-.522-.772-.192-.155-.46-.266-.874-.2-.426.07-.815-.3-.87-.825s.246-1.004.672-1.073c.764-.123 1.41.078 1.928.496.502.406.833.974 1.05 1.497.22.524.343 1.05.413 1.432a8 8 0 0 1 .087.621l.004.044.001.014v.007" clip-rule="evenodd"/><path fill="#A36654" fill-rule="evenodd" d="m46.744 59.093-.486.77zc.389.245.487.79.219 1.214-.268.425-.8.57-1.19.325l.002.002-.012-.008-.063-.035a3 3 0 0 0-.251-.123 2.8 2.8 0 0 0-.784-.22c-.285-.03-.512.009-.685.106-.153.087-.367.276-.55.764-.174.469-.672.732-1.11.587-.44-.145-.653-.643-.478-1.112.313-.839.8-1.437 1.418-1.786.6-.338 1.216-.38 1.713-.328.499.054.938.21 1.242.342a5 5 0 0 1 .48.242l.032.02.01.006.005.002z" clip-rule="evenodd"/><path fill="#F29B7C" d="M61.014 103.512c0 7.294 6.61 13.207 14.762 13.207s14.762-5.913 14.762-13.207-6.61-13.208-14.762-13.208-14.762 5.913-14.762 13.208"/><path fill="#F29B7C" d="M90.538 51.458v52.831H61.014V51.458z"/><path fill="#FFC7B6" d="M75.753 16.81c12.23.001 24.93 5.228 28.127 20.705 2.476 9.059.348 37.526-2.128 43.996-3.751 9.802-19.884 18.117-26 18.116v-.021.021c-6.114.001-22.247-8.314-25.998-18.116-2.476-6.47-4.604-34.937-2.128-43.996 3.197-15.477 15.898-20.704 28.127-20.704v.032z"/><path fill="#411917" d="M62.66 55.596c1.366.025 2.5-1.433 2.533-3.256.034-1.824-1.046-3.323-2.41-3.348-1.366-.025-2.5 1.433-2.533 3.256-.034 1.824 1.046 3.323 2.41 3.348"/><path fill="#411917" fill-rule="evenodd" d="M70.006 51.567s0 .002-.803.331l.804-.33a.869.869 0 0 1-1.604.671l-.006-.013a2.718 2.718 0 0 0-.357-.504c-.298-.334-.813-.775-1.656-1.11-1.685-.67-4.825-.971-10.393 1.133a.87.87 0 0 1-.614-1.626c5.796-2.19 9.414-2.01 11.648-1.122 1.116.443 1.85 1.05 2.312 1.568.23.258.39.491.496.669a3 3 0 0 1 .156.292l.01.025.005.01.001.004z" clip-rule="evenodd"/><path fill="#411917" d="M88.195 55.596c-1.365.025-2.498-1.433-2.532-3.256-.034-1.824 1.046-3.323 2.41-3.348 1.366-.025 2.5 1.433 2.533 3.256.034 1.824-1.045 3.323-2.41 3.348"/><path fill="#411917" fill-rule="evenodd" d="M80.85 51.567s0 .002.803.331l-.804-.33a.869.869 0 0 0 1.604.671l.006-.013q.014-.028.055-.1c.056-.093.153-.236.303-.405.297-.333.812-.774 1.656-1.109 1.684-.67 4.825-.971 10.392 1.133a.87.87 0 0 0 .615-1.626c-5.797-2.19-9.415-2.01-11.65-1.122-1.115.443-1.85 1.05-2.311 1.568-.23.258-.39.491-.496.669a3 3 0 0 0-.155.292l-.011.025-.004.01-.002.004z" clip-rule="evenodd"/><path fill="#422A24" d="M54.042 45.134s5.24-2.182 9.221-1.452c2.756.504 6.163 2.807 6.163 2.807s.999.183 0-2.477c-1-2.66-7.37-2.772-7.37-2.772s-3.773 0-7.136 1.764c-1.4.739-1.765 2.182-1.765 2.182s.061.59.887-.061zM96.814 45.133s-5.24-2.181-9.221-1.452c-2.755.505-6.162 2.808-6.162 2.808s-1 .182 0-2.477c1-2.66 7.37-2.773 7.37-2.773s3.772 0 7.135 1.765c1.4.738 1.765 2.181 1.765 2.181s-.061.591-.887-.06z"/><path fill="#F29B7C" d="M79.855 71.644c0 .67-2.174 1.214-4.855 1.214-2.68 0-4.854-.544-4.854-1.214S72.319 70.43 75 70.43s4.855.544 4.855 1.214"/><path fill="#411917" fill-rule="evenodd" d="M75 57.408c.483 0 .874.391.874.874V70.43a.874.874 0 1 1-1.748 0V58.282c0-.483.392-.874.874-.874" clip-rule="evenodd"/><path fill="#FFC7B6" d="M82.283 80.075S75 84.929 67.72 80.092z"/><path fill="#411917" fill-rule="evenodd" d="M66.995 79.611a.87.87 0 0 1 1.205-.243c3.392 2.253 6.774 2.254 9.342 1.681a14.8 14.8 0 0 0 3.114-1.076 12 12 0 0 0 1.082-.582l.051-.033.01-.006m0 0a.87.87 0 0 1 .965 1.446l-.455-.683.455.683-.002.001-.002.002-.007.004-.02.014a8 8 0 0 1-.343.207c-.231.134-.565.316-.986.516-.84.401-2.04.882-3.484 1.204-2.893.645-6.793.654-10.682-1.93a.87.87 0 0 1-.243-1.205" clip-rule="evenodd"/><path fill="#422A24" d="M102.614 44.255c-.007.116-.015.236-.015.36v11.1s1.487.404 2.061-.747c.194-.39.153-1.122.112-1.86-.044-.773-.087-1.552.14-1.944 2.269-2.688 4.688-2.83 4.688-2.83 1.501-13.658-3.364-38.699-33.845-38.83h-.239c-30.48.13-35.363 25.316-33.862 38.972 0 0 2.436 0 4.705 2.688.227.392.184 1.17.14 1.944-.04.738-.082 1.47.112 1.86.574 1.15 2.06.747 2.06.747v-11.1q-.002-.186-.014-.36c-.038-.613-.07-1.112 1.058-1.298.663-.11 1.207-.625 1.27-1.295.201-2.166.946-3.93 2.077-5.365q.302-.23.615-.473c3.092-2.402 7.22-5.61 21.959-5.78 14.738.17 18.866 3.378 21.959 5.78q.311.243.614.473c1.13 1.435 1.876 3.199 2.078 5.365.063.67.606 1.185 1.269 1.295 1.128.186 1.097.685 1.058 1.298"/><path fill="#8E8E8E" fill-rule="evenodd" d="M75 137.503c34.52 0 62.503-27.984 62.503-62.503 0-34.52-27.983-62.503-62.503-62.503S12.497 40.48 12.497 75 40.481 137.503 75 137.503m0-34.689c21.575 0 39.065-17.49 39.065-39.064S96.575 24.685 75 24.685 35.936 42.175 35.936 63.75 53.426 102.814 75 102.814" clip-rule="evenodd" opacity=".5" style="mix-blend-mode:multiply"/><path fill="#FFC509" fill-rule="evenodd" d="M70.98 22.926a41.5 41.5 0 0 1 8.04 0 1.953 1.953 0 0 1-.379 3.888 37.6 37.6 0 0 0-7.282 0 1.953 1.953 0 0 1-.379-3.888m13.495 2.865a1.953 1.953 0 0 1 2.435-1.303 40.8 40.8 0 0 1 7.43 3.08 1.953 1.953 0 0 1-1.844 3.444 37 37 0 0 0-6.719-2.785 1.953 1.953 0 0 1-1.302-2.436m-18.95 0a1.953 1.953 0 0 1-1.302 2.436 37 37 0 0 0-6.719 2.785 1.953 1.953 0 1 1-1.844-3.443 40.8 40.8 0 0 1 7.43-3.081 1.953 1.953 0 0 1 2.436 1.303m32.749 6.52a1.954 1.954 0 0 1 2.749-.27 41.3 41.3 0 0 1 5.685 5.686 1.954 1.954 0 0 1-3.019 2.48 37.4 37.4 0 0 0-5.146-5.147 1.953 1.953 0 0 1-.27-2.75m-46.547 0a1.953 1.953 0 0 1-.27 2.749 37.4 37.4 0 0 0-5.146 5.146 1.953 1.953 0 0 1-3.019-2.48 41.3 41.3 0 0 1 5.685-5.684 1.953 1.953 0 0 1 2.75.269M41.464 43.609c.95.51 1.309 1.693.8 2.644a37 37 0 0 0-2.787 6.719 1.953 1.953 0 1 1-3.738-1.133 40.8 40.8 0 0 1 3.08-7.43 1.953 1.953 0 0 1 2.645-.8m67.073 0a1.953 1.953 0 0 1 2.644.8 40.8 40.8 0 0 1 3.08 7.43 1.953 1.953 0 1 1-3.738 1.133 37 37 0 0 0-2.786-6.719 1.954 1.954 0 0 1 .8-2.644M36.31 57.975a1.953 1.953 0 0 1 1.755 2.133 37.6 37.6 0 0 0 0 7.283 1.953 1.953 0 1 1-3.888.378 41.5 41.5 0 0 1 0-8.04 1.953 1.953 0 0 1 2.133-1.754m77.38 0a1.953 1.953 0 0 1 2.133 1.755 41.4 41.4 0 0 1 0 8.039 1.953 1.953 0 1 1-3.888-.379q.176-1.797.176-3.64 0-1.846-.176-3.642a1.953 1.953 0 0 1 1.755-2.133M37.042 73.224a1.953 1.953 0 0 1 2.435 1.302 37 37 0 0 0 2.786 6.72 1.953 1.953 0 0 1-3.443 1.844 40.8 40.8 0 0 1-3.081-7.43 1.953 1.953 0 0 1 1.303-2.436m75.916 0a1.953 1.953 0 0 1 1.303 2.435 40.8 40.8 0 0 1-3.08 7.43 1.953 1.953 0 0 1-3.444-1.844 37 37 0 0 0 2.786-6.719 1.953 1.953 0 0 1 2.435-1.302M43.562 87.023a1.953 1.953 0 0 1 2.749.269 37.4 37.4 0 0 0 5.146 5.147 1.953 1.953 0 1 1-2.48 3.018 41.3 41.3 0 0 1-5.684-5.685 1.953 1.953 0 0 1 .269-2.75m62.876 0c.834.684.954 1.915.27 2.749a41.3 41.3 0 0 1-5.685 5.685 1.954 1.954 0 0 1-2.48-3.018 37.3 37.3 0 0 0 5.146-5.147 1.953 1.953 0 0 1 2.749-.27M54.86 97.286a1.953 1.953 0 0 1 2.644-.8 37 37 0 0 0 6.719 2.786 1.953 1.953 0 0 1-1.133 3.739 41 41 0 0 1-7.43-3.081 1.953 1.953 0 0 1-.8-2.644m40.28 0c.51.95.151 2.135-.8 2.644a41 41 0 0 1-7.43 3.081 1.954 1.954 0 0 1-1.133-3.739 37 37 0 0 0 6.719-2.786 1.953 1.953 0 0 1 2.644.8m-25.914 5.153a1.953 1.953 0 0 1 2.133-1.755 37.4 37.4 0 0 0 7.282 0 1.953 1.953 0 0 1 .379 3.888 41.4 41.4 0 0 1-8.04 0 1.953 1.953 0 0 1-1.754-2.133" clip-rule="evenodd"/></g><defs><clipPath id="ptAf8rNmar_a"><path fill="#fff" d="M0 0h150v150H0z"/></clipPath><clipPath id="ptAf8rNmar_b"><rect width="125.006" height="125.006" x="12.497" y="12.497" fill="#fff" rx="62.503"/></clipPath></defs></svg>