<svg xmlns="http://www.w3.org/2000/svg" width="20" height="20" fill="none" class="persona-icon" viewBox="0 0 20 20"><path fill="currentColor" d="M5.108 6.444a3.47 3.47 0 1 1 6.939 0 3.47 3.47 0 0 1-6.939 0M3.599 12.405a4.58 4.58 0 0 1 3.486-1.608h2.986c1.34 0 2.615.588 3.486 1.608.402.471.623 1.07.623 1.69v.172a2.76 2.76 0 0 1-2.758 2.758H5.733a2.76 2.76 0 0 1-2.758-2.758v-.171c0-.62.221-1.22.624-1.691"/><path fill="currentColor" fill-rule="evenodd" d="M13.991 7.823q.15.089.276.197a2 2 0 0 1 .275-.197c.212-.126.474-.221.774-.226.304-.004.606.085.891.268.554.354.798.848.817 1.342.017.45-.155.843-.32 1.08a.6.6 0 0 1-.08.095l-1.925 1.847a.625.625 0 0 1-.865 0l-1.924-1.847a.6.6 0 0 1-.08-.095 1.83 1.83 0 0 1-.32-1.08c.018-.494.263-.988.816-1.342.286-.183.588-.272.892-.268.3.005.56.1.773.226M13 8.918a.6.6 0 0 0-.2.191.3.3 0 0 0-.041.145.6.6 0 0 0 .072.279l1.436 1.378 1.436-1.378a.6.6 0 0 0 .072-.28.3.3 0 0 0-.041-.144.6.6 0 0 0-.2-.191c-.1-.064-.164-.071-.2-.07-.04 0-.09.012-.156.05-.147.088-.285.26-.357.398a.625.625 0 0 1-1.109 0 1.1 1.1 0 0 0-.357-.397.3.3 0 0 0-.156-.052c-.035 0-.1.007-.199.071" clip-rule="evenodd"/></svg>