<svg xmlns="http://www.w3.org/2000/svg" width="16" height="16" fill="none" class="persona-icon" viewBox="0 0 16 16"><path fill="currentColor" fill-rule="evenodd" d="M7.5 1.5A.5.5 0 0 1 8 1c1.139 0 2.26.282 3.264.82.75.402 1.417.938 1.972 1.578l.014-.81a.5.5 0 1 1 1 .017l-.038 2.107a.5.5 0 0 1-.5.491h-1.954a.5.5 0 1 1 0-1h.847a6 6 0 0 0-1.814-1.501A5.9 5.9 0 0 0 8.001 2a.5.5 0 0 1-.5-.5m2.535 4.454h.521c.986 0 1.778.805 1.778 1.788v2.835c0 .984-.792 1.788-1.778 1.788h-2.81a1.783 1.783 0 0 1-1.779-1.788v-.53h-.521a1.783 1.783 0 0 1-1.778-1.79V5.424c0-.984.792-1.788 1.778-1.788h2.81c.987 0 1.779.805 1.779 1.788zM1.79 11.273a.5.5 0 0 1 .5-.491h2a.5.5 0 1 1 0 1h-.906a6 6 0 0 0 1.896 1.553A5.9 5.9 0 0 0 8 14a.5.5 0 0 1 0 1 6.9 6.9 0 0 1-3.18-.777 7 7 0 0 1-2.054-1.622l-.016.858a.5.5 0 1 1-1-.019zm3.656-6.638a.783.783 0 0 0-.778.788v2.835c0 .44.352.788.778.788h.522V7.742c0-.983.792-1.788 1.777-1.788h1.29v-.53a.783.783 0 0 0-.778-.79zM6.968 9.56v1.017c0 .44.351.788.777.788h2.811c.426 0 .778-.349.778-.788V7.742a.783.783 0 0 0-.778-.788h-2.81a.783.783 0 0 0-.778.788V9.56" clip-rule="evenodd"/></svg>