<svg xmlns="http://www.w3.org/2000/svg" width="24" height="24" fill="none" class="persona-icon" viewBox="0 0 24 24"><path fill="currentColor" fill-rule="evenodd" d="M3.058 16.656a.75.75 0 0 1 .75-.736h2.87a.75.75 0 0 1 0 1.5H5.454A8.5 8.5 0 0 0 12 20.499a.75.75 0 1 1 0 1.5 10 10 0 0 1-7.479-3.363L4.5 19.768A.75.75 0 0 1 3 19.74zM14.95 9.05v-.717a2.583 2.583 0 0 0-2.583-2.583H8.334a2.583 2.583 0 0 0-2.583 2.583v4.034a2.583 2.583 0 0 0 2.583 2.583h.717v.716a2.583 2.583 0 0 0 2.583 2.584h4.034a2.583 2.583 0 0 0 2.583-2.584v-4.033a2.583 2.583 0 0 0-2.583-2.583zm-3.7-6.3A.75.75 0 0 1 12 2a10 10 0 0 1 7.48 3.364l.02-1.067A.75.75 0 0 1 21 4.324l-.054 2.998a.75.75 0 0 1-.75.737h-2.804a.75.75 0 0 1 0-1.5h1.138A8.5 8.5 0 0 0 12 3.5a.75.75 0 0 1-.75-.75m-2.917 4.5h4.034c.598 0 1.083.485 1.083 1.083v.717h-1.817a2.583 2.583 0 0 0-2.583 2.583v1.817h-.717a1.083 1.083 0 0 1-1.083-1.083V8.333c0-.598.485-1.083 1.083-1.083m3.3 3.3h4.034c.598 0 1.083.485 1.083 1.083v4.034c0 .598-.485 1.083-1.083 1.083h-4.034a1.083 1.083 0 0 1-1.083-1.084v-4.033c0-.598.485-1.083 1.083-1.083" clip-rule="evenodd"/></svg>