<svg xmlns="http://www.w3.org/2000/svg" width="16" height="16" fill="none" class="persona-icon" viewBox="0 0 16 16"><path fill="currentColor" d="M5.639 2h4.889c.951 0 1.722.771 1.722 1.722v3.611a.5.5 0 1 1-1 0v-3.61A.72.72 0 0 0 10.528 3H5.639a.72.72 0 0 0-.722.722v8.556c0 .399.323.722.722.722h2.75a.5.5 0 0 1 0 1h-2.75a1.72 1.72 0 0 1-1.722-1.722V3.722c0-.95.77-1.722 1.722-1.722"/><path fill="currentColor" d="M7.472 3.833h1.222a.5.5 0 1 1 0 1H7.472a.5.5 0 1 1 0-1M8.694 11.667a.611.611 0 1 1-1.222 0 .611.611 0 0 1 1.222 0M9.563 12.02a.5.5 0 1 1 .707-.707l.98.98v-2.96a.5.5 0 1 1 1 0v2.96l.98-.98a.5.5 0 0 1 .707.707l-1.833 1.834a.5.5 0 0 1-.707 0z"/></svg>