<svg xmlns="http://www.w3.org/2000/svg" width="20" height="20" fill="none" class="persona-icon" viewBox="0 0 20 20"><path fill="currentColor" d="M7.26 2.975c-1.131 0-2.048.917-2.048 2.047v9.956c0 1.13.917 2.047 2.048 2.047h3.2a.625.625 0 1 0 0-1.25h-3.2a.797.797 0 0 1-.798-.797V5.022c0-.44.357-.797.798-.797h5.688c.44 0 .798.357.798.797v4.202a.625.625 0 1 0 1.25 0V5.022c0-1.13-.917-2.047-2.048-2.047z"/><path fill="currentColor" d="M9.393 5.108a.625.625 0 1 0 0 1.25h1.422a.625.625 0 1 0 0-1.25zM10.815 14.267a.711.711 0 1 1-1.422 0 .711.711 0 0 1 1.422 0M11.796 14.709a.625.625 0 1 1 .884-.884l1.066 1.066v-3.34a.625.625 0 1 1 1.25 0v3.34l1.066-1.066a.625.625 0 1 1 .884.884l-2.133 2.133a.625.625 0 0 1-.884 0z"/></svg>