<svg xmlns="http://www.w3.org/2000/svg" width="32" height="32" fill="none" class="persona-icon" viewBox="0 0 32 32"><path fill="currentColor" fill-rule="evenodd" d="M4.002 5.891c0-2.147 1.766-3.889 3.944-3.889h11.718c2.178 0 3.944 1.742 3.944 3.89v5.055c0 .552-.454 1-1.014 1s-1.014-.448-1.014-1V5.89c0-1.043-.858-1.889-1.916-1.889H7.946c-1.058 0-1.916.846-1.916 1.89v20.222c0 1.043.858 1.888 1.916 1.888h6.591c.56 0 1.015.448 1.015 1 0 .553-.454 1-1.015 1H7.946c-2.178 0-3.944-1.74-3.944-3.888z" clip-rule="evenodd"/><path fill="currentColor" fill-rule="evenodd" d="M11.326 7.336c0-.553.454-1 1.014-1h2.93c.56 0 1.014.447 1.014 1 0 .552-.454 1-1.014 1h-2.93c-.56 0-1.014-.448-1.014-1" clip-rule="evenodd"/><path fill="currentColor" d="M15.27 24.67c0 .797-.656 1.444-1.465 1.444a1.455 1.455 0 0 1-1.465-1.445c0-.798.656-1.444 1.465-1.444s1.465.646 1.465 1.444"/><path fill="currentColor" fill-rule="evenodd" d="M17.482 23.962a.99.99 0 0 0 0 1.414l4.395 4.333a1.021 1.021 0 0 0 1.434 0l4.394-4.333a.99.99 0 0 0 0-1.414 1.024 1.024 0 0 0-1.434 0l-2.663 2.626V16.002c0-.552-.454-1-1.014-1s-1.014.448-1.014 1v10.586l-2.664-2.626a1.024 1.024 0 0 0-1.434 0" clip-rule="evenodd"/></svg>