<svg xmlns="http://www.w3.org/2000/svg" width="16" height="16" fill="none" class="persona-icon" viewBox="0 0 16 16"><path fill="currentColor" d="M2 4.333A2.333 2.333 0 0 1 4.333 2H9a.5.5 0 0 1 .348.86L4.572 7.485c-.259.25-.405.596-.405.957v1.724c0 .92.746 1.666 1.666 1.666h1.724c.36 0 .706-.146.957-.405l4.627-4.776A.5.5 0 0 1 14 7v4.667A2.333 2.333 0 0 1 11.667 14H4.333A2.333 2.333 0 0 1 2 11.667z"/><path fill="currentColor" fill-rule="evenodd" d="M10.434 2.99c.355-.355.793-.743 1.298-.895.268-.08.558-.095.857-.008.294.087.564.262.813.511.249.25.425.519.51.813.088.3.073.589-.007.857-.152.506-.54.943-.896 1.298l-.001.002-.222.22-.004.003-4.889 4.892a.99.99 0 0 1-.697.288H6.062c-.266 0-.543-.08-.752-.296-.207-.213-.28-.492-.28-.758l-.001-1.113c0-.261.104-.512.288-.697l4.894-4.896.006-.006zm.84.577 1.159 1.158c.277-.292.45-.533.514-.744a.5.5 0 0 0 .006-.289c-.028-.096-.097-.225-.258-.387-.162-.161-.292-.23-.387-.258a.5.5 0 0 0-.289.006c-.21.063-.452.237-.744.514" clip-rule="evenodd"/></svg>