<svg xmlns="http://www.w3.org/2000/svg" width="24" height="24" fill="none" class="persona-icon" viewBox="0 0 24 24"><path fill="currentColor" d="M3 6.5A3.5 3.5 0 0 1 6.5 3h7a.75.75 0 0 1 .522 1.289l-7.164 6.94a2 2 0 0 0-.608 1.436v2.585a2.5 2.5 0 0 0 2.5 2.5h2.585a2 2 0 0 0 1.437-.608l6.94-7.164A.75.75 0 0 1 21 10.5v7a3.5 3.5 0 0 1-3.5 3.5h-11A3.5 3.5 0 0 1 3 17.5z"/><path fill="currentColor" fill-rule="evenodd" d="M17.598 3.143a2.23 2.23 0 0 1 1.285-.012c.441.13.846.393 1.22.767.373.373.637.778.766 1.22.131.447.108.882-.012 1.284-.228.758-.81 1.415-1.343 1.948l-.002.002-.333.33-.004.004-7.336 7.338a1.48 1.48 0 0 1-1.045.433l-1.7-.001c-.4 0-.816-.12-1.13-.443-.31-.32-.42-.739-.42-1.138v-1.67c0-.391.155-.767.432-1.044l7.341-7.344.008-.008.326-.324c.533-.532 1.189-1.115 1.947-1.342m1.05 3.945c.417-.439.677-.8.772-1.117a.73.73 0 0 0 .01-.433c-.043-.143-.146-.338-.388-.58s-.437-.345-.58-.387a.73.73 0 0 0-.433.009c-.317.095-.679.355-1.117.771z" clip-rule="evenodd"/></svg>