<svg xmlns="http://www.w3.org/2000/svg" width="24" height="24" fill="none" class="persona-icon" viewBox="0 0 24 24"><path fill="currentColor" d="M3 6.5A3.5 3.5 0 0 1 6.5 3h7a.75.75 0 0 1 .522 1.289l-7.164 6.94a2 2 0 0 0-.608 1.436v2.585a2.5 2.5 0 0 0 2.5 2.5h2.585a2 2 0 0 0 1.437-.608l6.94-7.164A.75.75 0 0 1 21 10.5v7a3.5 3.5 0 0 1-3.5 3.5h-11A3.5 3.5 0 0 1 3 17.5z"/><path fill="currentColor" fill-rule="evenodd" d="M17.598 3.143c-.758.227-1.414.81-1.947 1.342l-.326.324-.008.008-7.341 7.344a1.48 1.48 0 0 0-.433 1.045l.001 1.669c0 .4.11.818.42 1.138.314.323.73.443 1.13.443h1.7c.392 0 .768-.155 1.045-.432l7.336-7.338.004-.004.333-.33.002-.002c.533-.533 1.115-1.19 1.343-1.948.12-.402.143-.837.012-1.285-.13-.441-.393-.846-.767-1.22-.373-.373-.778-.637-1.22-.766a2.23 2.23 0 0 0-1.284.012m1.05 3.945-1.736-1.737c.438-.416.8-.676 1.117-.771a.73.73 0 0 1 .433-.01c.143.043.337.146.58.388s.345.437.387.58a.73.73 0 0 1-.01.433c-.094.316-.354.678-.77 1.117" clip-rule="evenodd"/></svg>