<svg xmlns="http://www.w3.org/2000/svg" width="20" height="20" fill="none" class="persona-icon" viewBox="0 0 20 20"><path fill="currentColor" fill-rule="evenodd" d="M2.975 5.733a2.76 2.76 0 0 1 2.758-2.758h8.534a2.76 2.76 0 0 1 2.758 2.758v8.534a2.76 2.76 0 0 1-2.758 2.758H5.733a2.76 2.76 0 0 1-2.758-2.758zm11.877 9.924c.543-.229.923-.765.923-1.39V5.733c0-.833-.675-1.508-1.508-1.508H5.733c-.833 0-1.508.675-1.508 1.508v8.534c0 .625.38 1.161.923 1.39a2.5 2.5 0 0 1-.04-.446v-.075c0-.552.198-1.087.556-1.507a4.02 4.02 0 0 1 3.056-1.41h2.56c1.176 0 2.292.516 3.056 1.41.358.42.556.955.556 1.507v.075q0 .228-.04.446m-1.341.118c.084-.17.13-.36.13-.564v-.075c0-.255-.09-.502-.256-.695a2.77 2.77 0 0 0-2.105-.971H8.72c-.81 0-1.58.354-2.105.97-.166.194-.257.441-.257.696v.075c0 .203.047.394.131.564zM7.24 8.578a2.758 2.758 0 1 1 5.517 0 2.758 2.758 0 0 1-5.516 0m2.76-1.508a1.508 1.508 0 1 0 0 3.016 1.508 1.508 0 0 0 0-3.016" clip-rule="evenodd"/></svg>