<svg xmlns="http://www.w3.org/2000/svg" width="20" height="20" fill="none"><path fill="currentColor" d="M6.938 8.354a3.062 3.062 0 1 1 6.124 0 3.062 3.062 0 0 1-6.124 0ZM10 6.477a1.877 1.877 0 1 0 0 3.753 1.877 1.877 0 0 0 0-3.753Z"/><path fill="currentColor" d="M2 5.062C2 3.37 3.37 2 5.062 2h9.876C16.63 2 18 3.37 18 5.062v9.876C18 16.63 16.63 18 14.938 18H5.062A3.062 3.062 0 0 1 2 14.938V5.062Zm13.438 11.685a1.877 1.877 0 0 0 1.377-1.809V5.062c0-1.037-.84-1.877-1.877-1.877H5.062c-1.037 0-1.877.84-1.877 1.877v9.876c0 .864.583 1.59 1.377 1.81a2.791 2.791 0 0 1-.093-.716v-.087c0-.609.217-1.197.612-1.66A4.52 4.52 0 0 1 8.52 12.7h2.962a4.52 4.52 0 0 1 3.438 1.585c.395.463.612 1.051.612 1.66v.087c0 .247-.032.487-.093.715Zm-1.296.068c.13-.232.204-.499.204-.784v-.086c0-.327-.117-.642-.329-.89a3.335 3.335 0 0 0-2.536-1.17H8.52c-.976 0-1.903.427-2.536 1.17a1.372 1.372 0 0 0-.329.89v.087c0 .284.074.551.204.783h8.284Z"/></svg>