<svg xmlns="http://www.w3.org/2000/svg" width="24" height="24" fill="none" class="persona-icon" viewBox="0 0 24 24"><path fill="currentColor" fill-rule="evenodd" d="M3 6.5A3.5 3.5 0 0 1 6.5 3h11A3.5 3.5 0 0 1 21 6.5v11a3.5 3.5 0 0 1-3.5 3.5h-11A3.5 3.5 0 0 1 3 17.5zm15.181 12.881A2 2 0 0 0 19.5 17.5v-11a2 2 0 0 0-2-2h-11a2 2 0 0 0-2 2v11a2 2 0 0 0 1.319 1.881 3.2 3.2 0 0 1-.069-.663v-.097c0-.7.25-1.375.703-1.907a5.12 5.12 0 0 1 3.897-1.797h3.3c1.499 0 2.923.656 3.897 1.797.454.532.703 1.208.703 1.907v.097q0 .341-.069.663m-1.621.119c.121-.234.19-.5.19-.782v-.097c0-.342-.122-.673-.344-.933a3.62 3.62 0 0 0-2.756-1.271h-3.3c-1.06 0-2.067.464-2.756 1.27-.222.261-.344.592-.344.934v.097c0 .282.069.548.19.782zM8.5 10.167a3.5 3.5 0 1 1 7 0 3.5 3.5 0 0 1-7 0m3.5-2a2 2 0 1 0 0 4 2 2 0 0 0 0-4" clip-rule="evenodd"/></svg>