<svg xmlns="http://www.w3.org/2000/svg" width="24" height="24" fill="none" class="persona-icon" viewBox="0 0 24 24"><path fill="currentColor" fill-rule="evenodd" d="M8.154 9.949a3.846 3.846 0 1 1 7.692 0 3.846 3.846 0 0 1-7.692 0M12 7.64a2.308 2.308 0 1 0 0 4.615 2.308 2.308 0 0 0 0-4.615" clip-rule="evenodd"/><path fill="currentColor" fill-rule="evenodd" d="M2 5.846A3.846 3.846 0 0 1 5.846 2h12.308A3.846 3.846 0 0 1 22 5.846v12.308A3.846 3.846 0 0 1 18.154 22H5.846A3.846 3.846 0 0 1 2 18.154zm16.82 14.518a2.31 2.31 0 0 0 1.642-2.21V5.846a2.31 2.31 0 0 0-2.308-2.307H5.846A2.31 2.31 0 0 0 3.54 5.845v12.308c0 1.043.691 1.924 1.641 2.21a3.5 3.5 0 0 1-.103-.848v-.108c0-.766.273-1.506.77-2.088a5.66 5.66 0 0 1 4.307-1.987h3.692c1.657 0 3.231.726 4.307 1.987.497.582.77 1.322.77 2.088v.108q-.001.439-.103.848m-11.964.098h10.288c.153-.281.24-.603.24-.946v-.108c0-.4-.142-.786-.401-1.09a4.13 4.13 0 0 0-3.137-1.446h-3.692a4.13 4.13 0 0 0-3.137 1.447c-.26.303-.402.69-.402 1.089v.108c0 .343.088.665.241.946" clip-rule="evenodd"/></svg>