<svg xmlns="http://www.w3.org/2000/svg" width="32" height="32" fill="none" class="persona-icon" viewBox="0 0 32 32"><path fill="currentColor" fill-rule="evenodd" d="M11 13.333a5 5 0 1 1 10 0 5 5 0 0 1-10 0Zm5-3a3 3 0 1 0 0 6 3 3 0 0 0 0-6Z" clip-rule="evenodd"/><path fill="currentColor" fill-rule="evenodd" d="M3 8a5 5 0 0 1 5-5h16a5 5 0 0 1 5 5v16a5 5 0 0 1-5 5H8a5 5 0 0 1-5-5V8Zm21.866 18.873A3.001 3.001 0 0 0 27 24V8a3 3 0 0 0-3-3H8a3 3 0 0 0-3 3v16c0 1.356.9 2.502 2.134 2.873A4.57 4.57 0 0 1 7 25.771v-.14c0-.996.355-1.959 1.001-2.715a7.362 7.362 0 0 1 5.6-2.583h4.798c2.155 0 4.201.944 5.6 2.583A4.181 4.181 0 0 1 25 25.63v.14c0 .38-.047.75-.134 1.103Zm-2.18.127c.2-.365.314-.783.314-1.23v-.14c0-.519-.185-1.021-.522-1.416a5.362 5.362 0 0 0-4.079-1.88h-4.798c-1.57 0-3.06.687-4.079 1.88A2.181 2.181 0 0 0 9 25.63v.14c0 .447.113.865.313 1.23h13.374Z" clip-rule="evenodd"/></svg>