<svg xmlns="http://www.w3.org/2000/svg" width="32" height="32" fill="none" class="persona-icon" viewBox="0 0 32 32"><path fill="currentColor" fill-rule="evenodd" d="M4 8.667A4.667 4.667 0 0 1 8.667 4h14.666A4.667 4.667 0 0 1 28 8.667v14.666A4.667 4.667 0 0 1 23.333 28H8.667A4.667 4.667 0 0 1 4 23.333zM22.08 26c.162-.312.253-.666.253-1.043v-.13c0-.455-.162-.896-.458-1.243a4.83 4.83 0 0 0-3.676-1.695h-4.398c-1.414 0-2.758.62-3.675 1.695a1.92 1.92 0 0 0-.46 1.244v.129c0 .377.092.731.254 1.043zm2.161-.159A2.67 2.67 0 0 0 26 23.333V8.667A2.667 2.667 0 0 0 23.333 6H8.667A2.667 2.667 0 0 0 6 8.667v14.666c0 1.154.733 2.137 1.759 2.508a4.3 4.3 0 0 1-.092-.884v-.13c0-.931.332-1.833.937-2.542a6.83 6.83 0 0 1 5.197-2.396h4.398c2 0 3.899.876 5.197 2.396.605.71.937 1.61.937 2.543v.129q0 .456-.092.884M11.333 13.556a4.667 4.667 0 1 1 9.334 0 4.667 4.667 0 0 1-9.334 0M16 10.889a2.667 2.667 0 1 0 0 5.333 2.667 2.667 0 0 0 0-5.333" clip-rule="evenodd"/></svg>