<svg xmlns="http://www.w3.org/2000/svg" width="32" height="32" fill="none" class="persona-icon" viewBox="0 0 32 32"><path fill="currentColor" fill-rule="evenodd" d="M11 13.333a5 5 0 1 1 10 0 5 5 0 0 1-10 0m5-3a3 3 0 1 0 0 6 3 3 0 0 0 0-6" clip-rule="evenodd"/><path fill="currentColor" fill-rule="evenodd" d="M3 8a5 5 0 0 1 5-5h16a5 5 0 0 1 5 5v16a5 5 0 0 1-5 5H8a5 5 0 0 1-5-5zm21.866 18.873A3 3 0 0 0 27 24V8a3 3 0 0 0-3-3H8a3 3 0 0 0-3 3v16c0 1.356.9 2.502 2.134 2.873A4.6 4.6 0 0 1 7 25.771v-.14c0-.996.355-1.959 1.001-2.715a7.36 7.36 0 0 1 5.6-2.583h4.798c2.155 0 4.201.944 5.6 2.583A4.18 4.18 0 0 1 25 25.63v.14q-.002.572-.134 1.103m-2.18.127c.2-.365.314-.783.314-1.23v-.14c0-.519-.185-1.021-.522-1.416a5.36 5.36 0 0 0-4.079-1.88h-4.798c-1.57 0-3.06.687-4.079 1.88A2.18 2.18 0 0 0 9 25.63v.14c0 .447.113.865.313 1.23z" clip-rule="evenodd"/></svg>