<svg xmlns="http://www.w3.org/2000/svg" width="32" height="32" fill="none" class="persona-icon" viewBox="0 0 32 32"><path fill="currentColor" d="M6.222 4.057c-1.195 0-2.165.97-2.165 2.165v6.111c0 1.196.97 2.165 2.165 2.165h6.111c1.196 0 2.165-.969 2.165-2.165v-6.11c0-1.196-.969-2.166-2.165-2.166zM19.667 4.057c-1.196 0-2.165.97-2.165 2.165v6.111c0 1.196.969 2.165 2.165 2.165h6.11c1.197 0 2.166-.969 2.166-2.165v-6.11c0-1.196-.97-2.166-2.165-2.166zM6.222 17.502c-1.195 0-2.165.969-2.165 2.165v6.11c0 1.197.97 2.166 2.165 2.166h6.111c1.196 0 2.165-.97 2.165-2.165v-6.111c0-1.196-.969-2.165-2.165-2.165zM19.667 17.502c-1.196 0-2.165.969-2.165 2.165v6.11c0 1.197.969 2.166 2.165 2.166h6.11c1.197 0 2.166-.97 2.166-2.165v-6.111c0-1.196-.97-2.165-2.165-2.165z"/></svg>