<svg xmlns="http://www.w3.org/2000/svg" width="16" height="16" fill="none" class="persona-icon" viewBox="0 0 16 16"><path fill="currentColor" fill-rule="evenodd" d="M5.429 1.714H8.34c.495 0 .968.205 1.306.567L12.52 5.36c.309.331.48.766.48 1.219v5.279a2.43 2.43 0 0 1-2.428 2.428H5.429A2.43 2.43 0 0 1 3 11.857v-1.231c.69 1 1.74 1.523 2.81 1.523 1.325 0 2.616-.798 3.235-2.312a.8.8 0 0 0 0-.599c-.619-1.514-1.91-2.311-3.234-2.311-1.072 0-2.121.522-2.81 1.522V4.142a2.43 2.43 0 0 1 2.428-2.428m3.714 3.072c0 .434.352.785.786.785h1.421L9.143 3.207z" clip-rule="evenodd"/><path fill="currentColor" fill-rule="evenodd" d="M3.536 9.538c.48-1.1 1.394-1.611 2.275-1.611.88 0 1.794.511 2.275 1.61-.481 1.1-1.394 1.612-2.275 1.612s-1.794-.512-2.275-1.611m3.13 0a.856.856 0 1 0-1.711 0 .856.856 0 0 0 1.712 0" clip-rule="evenodd"/></svg>