<svg xmlns="http://www.w3.org/2000/svg" width="16" height="16" fill="none" class="persona-icon" viewBox="0 0 16 16"><path fill="currentColor" fill-rule="evenodd" d="M5.429 1.714A2.43 2.43 0 0 0 3 4.142V8.45c.69-1 1.74-1.522 2.81-1.522 1.325 0 2.616.797 3.235 2.311a.8.8 0 0 1 0 .6c-.619 1.513-1.91 2.31-3.234 2.31-1.072 0-2.121-.521-2.81-1.522v1.23a2.43 2.43 0 0 0 2.428 2.43h5.143A2.43 2.43 0 0 0 13 11.855V6.579c0-.453-.171-.888-.48-1.219L9.647 2.281a1.79 1.79 0 0 0-1.306-.567zm3.714 3.072v-1.58l2.207 2.365H9.929a.786.786 0 0 1-.786-.785" clip-rule="evenodd"/><path fill="currentColor" fill-rule="evenodd" d="M3.536 9.538c.48 1.099 1.394 1.61 2.275 1.61.88 0 1.794-.511 2.275-1.61-.481-1.1-1.394-1.611-2.275-1.611s-1.794.511-2.275 1.61m3.13 0a.856.856 0 1 1-1.711 0 .856.856 0 0 1 1.712 0" clip-rule="evenodd"/></svg>