<svg xmlns="http://www.w3.org/2000/svg" width="20" height="20" fill="none" class="persona-icon" viewBox="0 0 20 20"><path fill="currentColor" fill-rule="evenodd" d="M6.915 2.432h3.495c.6 0 1.175.25 1.585.689l3.447 3.693c.375.402.583.93.583 1.48v6.334a2.94 2.94 0 0 1-2.94 2.94h-6.17a2.94 2.94 0 0 1-2.94-2.94v-1.47c.832 1.213 2.101 1.845 3.398 1.845 1.6 0 3.158-.963 3.904-2.789a.98.98 0 0 0 0-.738c-.746-1.826-2.304-2.789-3.904-2.789-1.297 0-2.566.633-3.398 1.845v-5.16a2.94 2.94 0 0 1 2.94-2.94m4.481 3.711c0 .507.411.918.918.918h1.648l-2.566-2.75z" clip-rule="evenodd"/><path fill="currentColor" fill-rule="evenodd" d="M4.67 11.845c.575-1.303 1.659-1.908 2.703-1.908s2.128.605 2.703 1.908c-.575 1.303-1.659 1.908-2.703 1.908s-2.128-.604-2.703-1.908m3.73 0a1.027 1.027 0 1 0-2.054 0 1.027 1.027 0 0 0 2.054 0" clip-rule="evenodd"/></svg>