<svg xmlns="http://www.w3.org/2000/svg" width="20" height="20" fill="none" class="persona-icon" viewBox="0 0 20 20"><path fill="currentColor" fill-rule="evenodd" d="M6.915 2.432a2.94 2.94 0 0 0-2.94 2.94v5.16c.832-1.212 2.101-1.845 3.398-1.845 1.6 0 3.158.963 3.904 2.79a.98.98 0 0 1 0 .737c-.746 1.826-2.304 2.79-3.904 2.79-1.297 0-2.566-.633-3.398-1.845v1.47a2.94 2.94 0 0 0 2.94 2.938h6.17a2.94 2.94 0 0 0 2.94-2.939V8.294c0-.55-.208-1.078-.583-1.48l-3.447-3.693a2.17 2.17 0 0 0-1.585-.69zm4.481 3.711V4.312l2.566 2.749h-1.648a.92.92 0 0 1-.918-.918" clip-rule="evenodd"/><path fill="currentColor" fill-rule="evenodd" d="M4.67 11.845c.575 1.303 1.659 1.908 2.703 1.908s2.128-.604 2.703-1.908c-.575-1.303-1.659-1.908-2.703-1.908s-2.128.605-2.703 1.908m3.73 0a1.027 1.027 0 1 1-2.054 0 1.027 1.027 0 0 1 2.054 0" clip-rule="evenodd"/></svg>