<svg xmlns="http://www.w3.org/2000/svg" width="24" height="24" fill="none" class="persona-icon" viewBox="0 0 24 24"><path fill="currentColor" fill-rule="evenodd" d="M7.889 2a3.833 3.833 0 0 0-3.833 3.834v6.9c1.093-1.579 2.752-2.4 4.444-2.4 2.097 0 4.143 1.261 5.125 3.664.12.294.12.627 0 .92-.982 2.403-3.028 3.665-5.125 3.665-1.692 0-3.35-.821-4.444-2.4v1.984A3.833 3.833 0 0 0 7.889 22h8.222a3.833 3.833 0 0 0 3.833-3.833v-8.44a2.8 2.8 0 0 0-.754-1.914l-4.593-4.921A2.8 2.8 0 0 0 12.546 2zm9.58 6.167h-2.386a1.306 1.306 0 0 1-1.305-1.305v-2.65z" clip-rule="evenodd"/><path fill="currentColor" fill-rule="evenodd" d="M4.809 14.458c.774 1.789 2.257 2.625 3.691 2.625s2.917-.836 3.691-2.625c-.774-1.788-2.257-2.625-3.691-2.625s-2.917.837-3.691 2.625m5.06 0a1.368 1.368 0 1 1-2.737 0 1.368 1.368 0 0 1 2.736 0" clip-rule="evenodd"/></svg>