<svg xmlns="http://www.w3.org/2000/svg" width="24" height="24" fill="none" class="persona-icon" viewBox="0 0 24 24"><path fill="currentColor" fill-rule="evenodd" d="M7.889 2h4.657a2.8 2.8 0 0 1 2.05.892l4.594 4.92a2.8 2.8 0 0 1 .754 1.915v8.44A3.833 3.833 0 0 1 16.111 22H7.89a3.833 3.833 0 0 1-3.833-3.833v-1.985c1.093 1.58 2.752 2.401 4.444 2.401 2.097 0 4.143-1.262 5.125-3.664.12-.294.12-.627 0-.92-.982-2.404-3.028-3.666-5.125-3.666-1.692 0-3.35.822-4.444 2.402V5.834A3.833 3.833 0 0 1 7.889 2m9.58 6.167-3.691-3.954v2.649c0 .72.584 1.305 1.305 1.305z" clip-rule="evenodd"/><path fill="currentColor" fill-rule="evenodd" d="M4.809 14.458c.774-1.788 2.257-2.625 3.691-2.625s2.917.837 3.691 2.625c-.774 1.789-2.257 2.625-3.691 2.625s-2.917-.836-3.691-2.625m5.06 0a1.368 1.368 0 1 0-2.737 0 1.368 1.368 0 0 0 2.736 0" clip-rule="evenodd"/></svg>