<svg xmlns="http://www.w3.org/2000/svg" width="32" height="32" fill="none" class="persona-icon" viewBox="0 0 32 32"><path fill="currentColor" fill-rule="evenodd" d="M10.857 3.428h5.826c.99 0 1.935.41 2.61 1.135l5.747 6.156c.617.661.96 1.532.96 2.437v10.558a4.857 4.857 0 0 1-4.857 4.857H10.857A4.857 4.857 0 0 1 6 23.714V21.25c1.38 2.002 3.479 3.046 5.622 3.046 2.649 0 5.23-1.595 6.468-4.623a1.6 1.6 0 0 0 0-1.198c-1.237-3.028-3.82-4.623-6.468-4.623-2.143 0-4.243 1.044-5.622 3.047V8.285a4.857 4.857 0 0 1 4.857-4.857m7.429 6.143c0 .868.703 1.572 1.571 1.572H22.7l-4.413-4.73z" clip-rule="evenodd"/><path fill="currentColor" fill-rule="evenodd" d="M7.071 19.075c.963-2.198 2.789-3.222 4.55-3.222 1.763 0 3.589 1.024 4.551 3.222-.962 2.199-2.788 3.222-4.55 3.222s-3.588-1.023-4.55-3.222m6.262 0a1.712 1.712 0 1 0-3.423 0 1.712 1.712 0 0 0 3.423 0" clip-rule="evenodd"/></svg>