<svg xmlns="http://www.w3.org/2000/svg" width="32" height="32" fill="none" class="persona-icon" viewBox="0 0 32 32"><path fill="currentColor" fill-rule="evenodd" d="M10.857 3.428A4.857 4.857 0 0 0 6 8.285V16.9c1.38-2.003 3.479-3.047 5.622-3.047 2.649 0 5.23 1.595 6.468 4.623.157.383.157.816 0 1.198-1.237 3.028-3.82 4.623-6.468 4.623-2.143 0-4.243-1.044-5.622-3.046v2.463a4.857 4.857 0 0 0 4.857 4.857h10.286A4.857 4.857 0 0 0 26 23.714V13.156c0-.905-.343-1.776-.96-2.437l-5.746-6.156a3.57 3.57 0 0 0-2.611-1.135zm7.429 6.143V6.414l4.413 4.729h-2.842a1.57 1.57 0 0 1-1.571-1.572" clip-rule="evenodd"/><path fill="currentColor" fill-rule="evenodd" d="M7.071 19.075c.963 2.199 2.789 3.222 4.55 3.222 1.763 0 3.589-1.023 4.551-3.222-.962-2.198-2.788-3.222-4.55-3.222s-3.588 1.024-4.55 3.222m6.262 0a1.712 1.712 0 1 1-3.423 0 1.712 1.712 0 0 1 3.423 0" clip-rule="evenodd"/></svg>