<svg xmlns="http://www.w3.org/2000/svg" width="24" height="24" fill="none"><path fill="#000" fill-rule="evenodd" d="M6.59 5.846A3.855 3.855 0 0 1 10.455 2h3.45c.771 0 1.51.313 2.043.867l3.764 3.902c.506.526.789 1.226.789 1.954v6.354a3.855 3.855 0 0 1-3.864 3.846h-6.181a3.855 3.855 0 0 1-3.864-3.846v-9.23Zm3.864-2.308a2.313 2.313 0 0 0-2.318 2.308v9.23a2.313 2.313 0 0 0 2.319 2.309h6.181a2.313 2.313 0 0 0 2.319-2.308V8.723c0-.019 0-.038-.002-.056h-2.317a2.827 2.827 0 0 1-2.833-2.82V3.537h-3.349Zm4.894 2.308v-1.22l2.514 2.502h-1.226a1.285 1.285 0 0 1-1.287-1.282Z" clip-rule="evenodd"/><path fill="#000" d="M4.273 6.615c.426 0 .772.345.772.77v10.769a2.313 2.313 0 0 0 2.319 2.308h9.272c.427 0 .773.344.773.769 0 .425-.346.769-.773.769H7.364A3.855 3.855 0 0 1 3.5 18.154V7.384c0-.424.346-.769.773-.769Z"/></svg>