<svg xmlns="http://www.w3.org/2000/svg" width="32" height="32" fill="none"><path fill="#000" fill-rule="evenodd" d="M8.394 7.333C8.394 4.388 10.816 2 13.803 2h4.903a3.97 3.97 0 0 1 2.845 1.196l5.35 5.495A3.86 3.86 0 0 1 28 11.384v8.95c0 2.945-2.421 5.333-5.408 5.333h-8.79c-2.986 0-5.408-2.388-5.408-5.334v-13ZM13.803 4c-1.867 0-3.38 1.492-3.38 3.333v13c0 1.841 1.513 3.334 3.38 3.334h8.789c1.866 0 3.38-1.493 3.38-3.334v-8.949c0-.054-.003-.108-.007-.162H22.59c-2.178 0-3.943-1.74-3.943-3.889V4h-4.845Zm6.873 3.333V5.414l3.862 3.808H22.59c-1.057 0-1.915-.845-1.915-1.889Z" clip-rule="evenodd"/><path fill="#000" d="M5.014 8.5c.56 0 1.014.448 1.014 1v15.167c0 1.84 1.514 3.333 3.38 3.333h13.184c.56 0 1.014.448 1.014 1s-.454 1-1.015 1H9.409C6.421 30 4 27.612 4 24.667V9.5c0-.552.454-1 1.014-1Z"/></svg>