<svg xmlns="http://www.w3.org/2000/svg" width="24" height="24" fill="none" class="persona-icon" viewBox="0 0 24 24"><path fill="currentColor" fill-rule="evenodd" d="M16.668 3.202a2.8 2.8 0 0 1 1.607-.017c.55.162 1.068.494 1.557.983.488.49.821 1.006.982 1.557.164.558.136 1.1-.016 1.607-.29.97-1.043 1.828-1.776 2.56l-.002.002-.456.453-.002.002L8.47 20.444a1.75 1.75 0 0 1-1.238.513H4.793a1.75 1.75 0 0 1-1.749-1.75v-2.439c-.001-.464.183-.91.512-1.238L13.649 5.433l.003-.002.456-.453c.733-.733 1.591-1.486 2.56-1.776m1.367 5.555c.69-.698 1.16-1.301 1.326-1.855.08-.265.086-.509.014-.755-.074-.254-.246-.56-.604-.918s-.664-.53-.918-.604a1.3 1.3 0 0 0-.755.013c-.554.167-1.157.637-1.855 1.327z" clip-rule="evenodd"/><path fill="currentColor" d="M12.46 19.456h5.93a.75.75 0 0 1 0 1.5h-5.93a.75.75 0 1 1 0-1.5"/></svg>