<svg xmlns="http://www.w3.org/2000/svg" width="20" height="20" fill="none" class="persona-icon" viewBox="0 0 20 20"><path fill="currentColor" d="M15.43 7.673a2.327 2.327 0 1 0 0-4.655 2.327 2.327 0 0 0 0 4.655"/><path fill="currentColor" d="M11.164 3.705a.625.625 0 0 1 0 1.25H6.03c-.997 0-1.805.808-1.805 1.805v7.172l-.573 1.114H13.97c.997 0 1.805-.808 1.805-1.805V9.612a.625.625 0 1 1 1.25 0v3.629a3.055 3.055 0 0 1-3.055 3.055H2.628a.625.625 0 0 1-.556-.91l.903-1.756V6.76A3.055 3.055 0 0 1 6.03 3.705z"/></svg>