<svg xmlns="http://www.w3.org/2000/svg" width="24" height="24" fill="none" class="persona-icon"><path fill="currentColor" d="M10.205 5.846a3.846 3.846 0 1 1 7.684.257h3.342a.77.77 0 0 1 .769.769v11.282A3.846 3.846 0 0 1 18.154 22H6.872a.77.77 0 0 1-.77-.77V17.89a3.846 3.846 0 1 1 0-7.675V6.872a.77.77 0 0 1 .77-.77h3.342a3.89 3.89 0 0 1-.009-.256Zm3.846-2.308a2.308 2.308 0 0 0-2.176 3.078.769.769 0 0 1-.726 1.025H7.641v3.508a.77.77 0 0 1-1.026.726 2.308 2.308 0 1 0 0 4.353.769.769 0 0 1 1.026.725v3.509h10.513a2.308 2.308 0 0 0 2.308-2.308V7.64h-3.509a.769.769 0 0 1-.725-1.026 2.308 2.308 0 0 0-2.177-3.077Z"/></svg>