<svg xmlns="http://www.w3.org/2000/svg" width="24" height="24" fill="none" class="persona-icon" viewBox="0 0 24 24"><path fill="currentColor" fill-rule="evenodd" d="M10.333 6.5a3.5 3.5 0 1 1 6.996.167h2.92a.75.75 0 0 1 .75.75V17.5A3.5 3.5 0 0 1 17.5 21H7.417a.75.75 0 0 1-.75-.75v-2.92l-.167.003a3.5 3.5 0 1 1 .167-6.996v-2.92a.75.75 0 0 1 .75-.75h2.92zm3.5-2a2 2 0 0 0-1.886 2.667.75.75 0 0 1-.707 1H8.167v3.073a.75.75 0 0 1-1 .707 2 2 0 1 0 0 3.773.75.75 0 0 1 1 .707V19.5H17.5a2 2 0 0 0 2-2V8.167h-3.073a.75.75 0 0 1-.707-1q.111-.313.113-.667a2 2 0 0 0-2-2" clip-rule="evenodd"/></svg>