<svg xmlns="http://www.w3.org/2000/svg" width="32" height="32" fill="none" class="persona-icon" viewBox="0 0 32 32"><path fill="currentColor" fill-rule="evenodd" d="M13.778 8.667a4.667 4.667 0 1 1 9.328.222H27a1 1 0 0 1 1 1v13.444A4.667 4.667 0 0 1 23.333 28H9.89a1 1 0 0 1-1-1v-3.894a4.667 4.667 0 1 1 0-9.323V9.889a1 1 0 0 1 1-1h3.894a5 5 0 0 1-.005-.222M18.444 6a2.667 2.667 0 0 0-2.515 3.556 1 1 0 0 1-.943 1.333H10.89v4.097a1 1 0 0 1-1.333.943 2.667 2.667 0 1 0 0 5.03 1 1 0 0 1 1.333.944V26h12.444A2.667 2.667 0 0 0 26 23.333V10.89h-4.098a1 1 0 0 1-.942-1.333A2.667 2.667 0 0 0 18.445 6" clip-rule="evenodd"/></svg>