<svg xmlns="http://www.w3.org/2000/svg" width="32" height="32" fill="none" class="persona-icon" viewBox="0 0 32 32"><path fill="currentColor" fill-rule="evenodd" d="M13.669 8.002a5 5 0 1 1 9.989.334h4.344a1 1 0 0 1 1 1v14.666a5 5 0 0 1-5 5H9.336a1 1 0 0 1-1-1v-4.344a5 5 0 1 1 0-9.978V9.336a1 1 0 0 1 1-1h4.344a5.116 5.116 0 0 1-.011-.334m5-3a3 3 0 0 0-2.83 4 1 1 0 0 1-.943 1.334h-4.56v4.56a1 1 0 0 1-1.334.944 3 3 0 1 0 0 5.66 1 1 0 0 1 1.333.942v4.56h13.667a3 3 0 0 0 3-3V10.336h-4.56a1 1 0 0 1-.944-1.334 3 3 0 0 0-2.83-4" clip-rule="evenodd"/></svg>