<svg xmlns="http://www.w3.org/2000/svg" width="32" height="32" fill="none"><path fill="#000" d="M14.667 16.338c-.553 0-1 .454-1 1.013 0 .56.447 1.014 1 1.014h6.666c.553 0 1-.454 1-1.014s-.447-1.013-1-1.013h-6.666ZM14.667 20.392c-.553 0-1 .454-1 1.013 0 .56.447 1.014 1 1.014h4.166c.553 0 1-.454 1-1.014s-.447-1.013-1-1.013h-4.166Z"/><path fill="#000" fill-rule="evenodd" d="M4.333 8.568c0-2.8 2.239-5.068 5-5.068h9.334c2.761 0 5 2.269 5 5.068v1.79c2.282.47 4 2.515 4 4.966v9.22l1.227 2.49c.155.313.139.687-.043.985A.997.997 0 0 1 28 28.5H13.333c-2.761 0-5-2.269-5-5.068v-1.689H4a.997.997 0 0 1-.85-.48 1.025 1.025 0 0 1-.044-.987l1.227-2.488v-9.22Zm17.334 0v1.689h-8.334c-2.761 0-5 2.269-5 5.067v4.392H5.618l.61-1.236c.07-.14.105-.296.105-.453v-9.46c0-1.679 1.343-3.04 3-3.04h9.334c1.656 0 3 1.361 3 3.04Zm-8.334 3.716c-1.656 0-3 1.361-3 3.04v8.108c0 1.68 1.344 3.041 3 3.041h13.049l-.715-1.45v-9.699c0-1.679-1.344-3.04-3-3.04h-9.334Z" clip-rule="evenodd"/></svg>