<svg xmlns="http://www.w3.org/2000/svg" width="32" height="32" fill="none" class="persona-icon" viewBox="0 0 32 32"><path fill="currentColor" fill-rule="evenodd" d="M3.1 13.9c0 5.965 4.835 10.8 10.8 10.8 2.622 0 5.026-.934 6.897-2.489l6.396 6.396a1 1 0 0 0 1.414-1.414l-6.396-6.396a10.76 10.76 0 0 0 2.49-6.897c0-5.964-4.836-10.8-10.8-10.8-5.966 0-10.8 4.836-10.8 10.8m10.8-5.2a1 1 0 0 1 1 1v3.2h3.2a1 1 0 1 1 0 2h-3.2v3.2a1 1 0 1 1-2 0v-3.2H9.7a1 1 0 1 1 0-2h3.2V9.7a1 1 0 0 1 1-1" clip-rule="evenodd"/></svg>