<svg xmlns="http://www.w3.org/2000/svg" width="24" height="24" fill="none" class="persona-icon" viewBox="0 0 24 24"><path fill="currentColor" fill-rule="evenodd" d="m12.327 3.076 8.25 4.01A.75.75 0 0 1 21 7.76v1.146a.75.75 0 0 1-.75.75h-1.312v7.037l1.648.824a.75.75 0 0 1 .415.67v2.063a.75.75 0 0 1-.75.75H3.75a.75.75 0 0 1-.75-.75v-2.062a.75.75 0 0 1 .414-.671l1.648-.824V9.656H3.749a.75.75 0 0 1-.75-.75V7.76a.75.75 0 0 1 .423-.674l8.25-4.01a.75.75 0 0 1 .655 0m-4.171 13.33v-6.75H6.562v6.75zm1.5 0h1.593v-6.75H9.657zm3.093-6.75v6.75h1.594v-6.75zm4.688 6.75v-6.75h-1.594v6.75z" clip-rule="evenodd"/></svg>