<svg xmlns="http://www.w3.org/2000/svg" width="16" height="16" fill="none" class="persona-icon" viewBox="0 0 16 16"><path fill="currentColor" fill-rule="evenodd" d="M3.271 2h3.444v2.833h-.004v1.125c.565.563 1.063 1.121 1.228 2.195.168 1.097-.011 2.71-.629 5.457l-.088.39H2.753l-.086-.393c-.603-2.748-.774-4.359-.605-5.454.164-1.071.653-1.629 1.205-2.191V3.833h.004zm.996 2.833v1.539l-.145.146c-.598.606-.945.965-1.072 1.787-.13.848-.022 2.196.51 4.695h2.86c.546-2.5.66-3.849.53-4.695-.126-.819-.478-1.177-1.09-1.783l-.149-.146V4.833zm-.69 4.084a1.417 1.417 0 1 0 2.833 0 1.417 1.417 0 0 0-2.833 0m2.138-5.084V3H4.272v.833zM4.993 8.5a.417.417 0 1 0 0 .833.417.417 0 0 0 0-.833M8.96 4.224a.5.5 0 0 1 .488-.39h3.667a.5.5 0 0 1 .488.392c.306 1.393.423 2.414.393 3.182-.03.775-.21 1.327-.53 1.739-.312.402-.718.616-1.043.786l-.03.016c-.263.137-.482.251-.677.41V13h1.399a.5.5 0 0 1 0 1H9.447a.5.5 0 1 1 0-1h1.268v-2.638c-.193-.156-.405-.269-.65-.4l-.059-.032c-.32-.171-.713-.389-1.008-.797-.301-.416-.459-.967-.47-1.736-.013-.764.118-1.783.431-3.173m2.254 5.26c.24-.174.481-.3.685-.406l.06-.031c.334-.175.554-.304.717-.513.154-.199.297-.526.321-1.164.023-.581-.055-1.39-.288-2.537H9.85c-.242 1.15-.332 1.963-.323 2.548.01.644.14.971.281 1.166.147.203.35.33.671.502l.075.04c.195.104.426.227.659.396" clip-rule="evenodd"/></svg>