<svg xmlns="http://www.w3.org/2000/svg" width="16" height="16" fill="none"><path fill="currentColor" d="M2.61 3.313a.495.495 0 0 1 .353-.15h2.823c.276 0 .5.229.5.51v1.95c.659.67 1.23 1.314 1.42 2.57.191 1.278-.012 3.167-.726 6.408a.503.503 0 0 1-.488.399H2.257a.503.503 0 0 1-.488-.401c-.697-3.243-.891-5.13-.699-6.406.189-1.253.75-1.896 1.393-2.566V3.674c0-.136.052-.265.146-.361Zm3.48 10.666c.642-2.991.78-4.61.627-5.63-.15-.995-.573-1.434-1.282-2.149a.516.516 0 0 1-.149-.363V4.185H3.463v1.652a.517.517 0 0 1-.145.359c-.691.715-1.11 1.155-1.26 2.152-.154 1.022-.022 2.642.602 5.63h3.43ZM9.819 15a.505.505 0 0 1-.5-.51c0-.283.223-.511.5-.511h1.542v-3.23c-.238-.202-.496-.343-.79-.503l-.07-.038c-.369-.203-.809-.452-1.138-.917-.335-.474-.515-1.106-.529-2.004-.014-.892.136-2.087.497-3.725a.502.502 0 0 1 .488-.399h4.235c.235 0 .438.167.488.401.353 1.64.487 2.838.453 3.735-.034.903-.24 1.536-.597 2.006-.349.458-.803.705-1.179.905l-.04.021c-.311.167-.58.31-.818.515v3.232h1.693c.276 0 .5.23.5.511 0 .282-.224.511-.5.511H9.819Zm2.04-5.15c.286-.22.578-.376.828-.509l.069-.036c.384-.205.652-.364.852-.627.191-.251.359-.655.388-1.419.026-.705-.067-1.685-.347-3.074H10.22c-.29 1.392-.398 2.377-.387 3.086.012.77.164 1.173.339 1.421.181.256.43.412.801.615l.086.047c.239.13.52.283.798.496Z"/><path fill="currentColor" d="M2.463 1.51c0-.281.224-.51.5-.51h2.823c.277 0 .5.229.5.51v2.164c0 .282-.223.51-.5.51H2.963a.506.506 0 0 1-.5-.51V1.51Zm1 .512v1.141h1.823V2.022H3.463ZM2.816 9.082c0-.88.698-1.593 1.559-1.593.86 0 1.558.713 1.558 1.593 0 .879-.697 1.592-1.558 1.592-.861 0-1.56-.713-1.56-1.592Zm1.559-.571a.565.565 0 0 0-.56.57c0 .316.251.571.56.571a.565.565 0 0 0 .558-.57c0-.316-.25-.571-.558-.571Z"/></svg>