<svg xmlns="http://www.w3.org/2000/svg" width="20" height="20" fill="none" class="persona-icon" viewBox="0 0 20 20"><path fill="currentColor" fill-rule="evenodd" d="M4.454 2.975H8.55v3.383h-.006v1.248c.654.652 1.235 1.31 1.428 2.566.198 1.285-.013 3.169-.732 6.365l-.11.488H3.86l-.108-.491c-.701-3.197-.902-5.08-.705-6.362.193-1.253.763-1.91 1.402-2.562V5.108h.005zm6.62 2.621a.625.625 0 0 1 .61-.488h4.266c.294 0 .548.205.61.491.357 1.622.494 2.815.46 3.714-.035.908-.247 1.559-.627 2.048-.37.475-.85.729-1.227.926l-.033.017c-.3.157-.548.286-.767.462v3.009h1.584a.625.625 0 1 1 0 1.25h-4.266a.625.625 0 0 1 0-1.25h1.432v-3.006c-.217-.172-.455-.3-.735-.45l-.067-.035c-.371-.2-.838-.456-1.188-.94-.357-.494-.541-1.145-.556-2.045-.014-.894.14-2.083.504-3.703m-5.375.762v1.765l-.18.183c-.696.704-1.091 1.113-1.236 2.056-.15.973-.027 2.528.584 5.413h3.26c.628-2.888.758-4.441.609-5.413-.144-.938-.544-1.347-1.257-2.05l-.186-.184v-1.77zm1.6-1.25v-.883H5.704v.883zm6.44 6.566a6 6 0 0 1 .848-.495c.388-.203.635-.35.819-.585.172-.222.336-.593.365-1.33.025-.665-.062-1.592-.328-2.906h-3.255c-.276 1.318-.378 2.25-.368 2.92.012.745.162 1.116.32 1.333.163.228.391.37.765.571l.087.047c.22.117.481.256.746.445m-8.93-.607a1.692 1.692 0 1 1 3.384 0 1.692 1.692 0 0 1-3.383 0m1.692-.442a.442.442 0 1 0 0 .883.442.442 0 0 0 0-.883" clip-rule="evenodd"/></svg>