<svg xmlns="http://www.w3.org/2000/svg" width="24" height="24" fill="none" class="persona-icon" viewBox="0 0 24 24"><path fill="currentColor" fill-rule="evenodd" d="M4.302 5.302a.75.75 0 0 1 .532-.225h4.017c.416 0 .753.344.753.77v2.755c.933.95 1.748 1.873 2.018 3.666.275 1.826-.017 4.52-1.032 9.132a.76.76 0 0 1-.735.6H3.83a.76.76 0 0 1-.736-.604c-.99-4.612-1.269-7.304-.994-9.128.27-1.789 1.069-2.711 1.98-3.66V5.846c0-.204.08-.4.221-.544m4.949 15.16c.905-4.233 1.099-6.52.882-7.96-.21-1.4-.804-2.015-1.812-3.032a.78.78 0 0 1-.223-.547V6.615h-2.51v2.308a.78.78 0 0 1-.218.54c-.984 1.018-1.57 1.635-1.781 3.039-.217 1.442-.034 3.73.849 7.96zM14.587 22a.76.76 0 0 1-.753-.77c0-.424.337-.768.753-.768h2.152V15.93c-.33-.277-.69-.474-1.102-.7l-.098-.053c-.525-.288-1.16-.646-1.634-1.317-.484-.683-.74-1.593-.76-2.875-.02-1.274.194-2.977.707-5.309a.76.76 0 0 1 .735-.6h6.025c.354 0 .66.251.736.604.501 2.335.693 4.043.645 5.323-.049 1.291-.343 2.2-.859 2.878-.502.66-1.156 1.015-1.69 1.3l-.054.028c-.439.235-.812.434-1.145.717v4.535h2.367c.416 0 .753.344.753.769s-.337.769-.753.769zm2.902-7.421c.402-.306.811-.524 1.159-.708l.098-.053c.547-.292.921-.514 1.199-.88.265-.348.502-.913.543-1.993.037-.992-.094-2.373-.486-4.33h-4.808c-.407 1.962-.559 3.349-.543 4.347.016 1.09.231 1.655.474 1.998.252.354.598.573 1.126.862l.122.067c.333.18.724.394 1.116.69" clip-rule="evenodd"/><path fill="currentColor" fill-rule="evenodd" d="M4.081 2.77c0-.426.337-.77.753-.77h4.017c.416 0 .753.344.753.77v3.076c0 .425-.337.77-.753.77H4.834a.76.76 0 0 1-.753-.77zm1.506.769v1.538h2.51V3.539zM4.583 13.539c0-1.275 1.012-2.308 2.26-2.308s2.259 1.033 2.259 2.308-1.012 2.307-2.26 2.307-2.259-1.033-2.259-2.307m2.26-.77a.76.76 0 0 0-.754.77c0 .424.337.769.753.769a.76.76 0 0 0 .754-.77.76.76 0 0 0-.754-.769" clip-rule="evenodd"/></svg>