<svg xmlns="http://www.w3.org/2000/svg" width="24" height="24" fill="none" class="persona-icon" viewBox="0 0 24 24"><path fill="currentColor" fill-rule="evenodd" d="M4.907 3h5.166v4.25h-.006v1.687c.847.844 1.593 1.682 1.841 3.293.253 1.645-.016 4.064-.943 8.185l-.132.585H4.13L4 20.41c-.904-4.12-1.16-6.537-.908-8.18.248-1.607.98-2.443 1.808-3.287V5.75h.007zM6.4 7.25v2.308l-.216.219c-.897.908-1.42 1.447-1.609 2.68-.195 1.272-.033 3.295.764 7.043H9.63c.818-3.751.99-5.773.795-7.042-.19-1.229-.717-1.766-1.636-2.674l-.223-.22V7.25zm-1.035 6.125a2.125 2.125 0 1 0 4.25 0 2.125 2.125 0 0 0-4.25 0M8.573 5.75V4.5H6.407v1.25zm-1.083 7a.625.625 0 1 0 0 1.25.625.625 0 0 0 0-1.25m5.949-6.415a.75.75 0 0 1 .732-.585h5.5a.75.75 0 0 1 .732.59c.459 2.088.635 3.62.59 4.772-.044 1.163-.316 1.99-.796 2.608-.468.603-1.077.925-1.564 1.18l-.045.023c-.394.205-.723.377-1.016.616V19.5h2.099a.75.75 0 0 1 0 1.5h-5.5a.75.75 0 0 1 0-1.5h1.901v-3.957c-.29-.234-.606-.403-.974-.6l-.088-.048c-.48-.257-1.07-.583-1.513-1.195-.451-.624-.688-1.451-.706-2.605-.018-1.146.179-2.673.648-4.76m3.38 7.892c.36-.262.722-.45 1.029-.61l.09-.047c.5-.261.83-.455 1.074-.77.231-.298.446-.788.482-1.745.034-.872-.082-2.086-.431-3.805h-4.288c-.363 1.725-.498 2.944-.484 3.822.015.966.21 1.456.421 1.749.22.304.525.494 1.007.752l.112.06c.293.156.639.34.988.594" clip-rule="evenodd"/></svg>