<svg xmlns="http://www.w3.org/2000/svg" width="32" height="32" fill="none" class="persona-icon" viewBox="0 0 32 32"><path fill="currentColor" fill-rule="evenodd" d="M5.22 6.463c.188-.185.442-.289.708-.289h5.647c.552 0 1 .441 1 .985v3.76c1.317 1.291 2.459 2.533 2.837 4.955.385 2.464-.022 6.108-1.45 12.36a1 1 0 0 1-.976.768h-8.47a1 1 0 0 1-.977-.773c-1.393-6.254-1.781-9.894-1.397-12.355.378-2.417 1.499-3.657 2.786-4.947V7.159c0-.261.105-.512.293-.696m6.964 20.57c1.282-5.77 1.56-8.89 1.252-10.86-.3-1.916-1.147-2.762-2.564-4.142a.98.98 0 0 1-.297-.7V8.144H6.928v3.187c0 .259-.104.507-.289.692-1.383 1.38-2.22 2.227-2.52 4.15-.308 1.972-.045 5.095 1.204 10.86zM19.64 29.002c-.553 0-1-.44-1-.985a.993.993 0 0 1 1-.985h3.083v-6.227c-.474-.39-.99-.662-1.577-.971l-.141-.074c-.738-.39-1.618-.871-2.277-1.768-.67-.913-1.03-2.134-1.058-3.865-.027-1.72.272-4.024.994-7.184a1 1 0 0 1 .976-.769h8.47c.47 0 .876.322.977.774.704 3.163.973 5.473.905 7.202-.068 1.742-.48 2.963-1.194 3.869-.698.884-1.606 1.36-2.358 1.746l-.078.04c-.625.321-1.16.597-1.639.994v6.233h3.387c.552 0 1 .441 1 .985a.993.993 0 0 1-1 .985zm4.079-9.931c.573-.426 1.158-.726 1.658-.982l.137-.07c.768-.396 1.305-.703 1.704-1.209.382-.484.718-1.263.776-2.736.053-1.36-.134-3.251-.694-5.93h-6.856c-.579 2.686-.796 4.585-.774 5.952.024 1.485.328 2.264.678 2.741.362.493.86.795 1.602 1.187l.172.09c.478.25 1.039.545 1.597.956" clip-rule="evenodd"/><path fill="currentColor" fill-rule="evenodd" d="M4.928 2.987a.993.993 0 0 1 1-.985h5.647c.552 0 1 .441 1 .985V7.16a.99.99 0 0 1-1 .985H5.928c-.552 0-1-.441-1-.985zm2 .985v2.202h3.647V3.972zM5.634 17.588c0-1.696 1.396-3.07 3.117-3.07s3.118 1.374 3.118 3.07-1.396 3.071-3.118 3.071-3.117-1.375-3.117-3.07m3.117-1.1a1.11 1.11 0 0 0-1.117 1.1c0 .608.5 1.101 1.117 1.101a1.11 1.11 0 0 0 1.118-1.1c0-.609-.5-1.102-1.118-1.102" clip-rule="evenodd"/></svg>