<svg xmlns="http://www.w3.org/2000/svg" width="20" height="20" fill="none" class="persona-icon" viewBox="0 0 20 20"><path fill="currentColor" fill-rule="evenodd" d="M7.649 4.471a2.18 2.18 0 0 1 2.068-1.496h.566c.94 0 1.774.603 2.068 1.496.125.38.48.637.881.637h2.392a.625.625 0 0 1 0 1.25h-.78v7.909a2.76 2.76 0 0 1-2.76 2.758H7.916a2.76 2.76 0 0 1-2.758-2.758V6.358h-.781a.625.625 0 0 1 0-1.25H5.78m.626 1.25v7.909c0 .833.675 1.508 1.508 1.508h4.17c.833 0 1.508-.675 1.508-1.508V6.358zm1.242-1.887-.881.637c.4 0 .756-.256.88-.637m.945 4.193a.625.625 0 0 0-.625.625v4.267a.625.625 0 0 0 1.25 0V9.289a.625.625 0 0 0-.625-.625m.144-3.556h2.524a2 2 0 0 1-.098-.246.93.93 0 0 0-.881-.637h-.566c-.4 0-.756.257-.881.637q-.042.128-.098.246m2.043 4.181v4.267a.625.625 0 0 0 1.25 0V9.289a.625.625 0 1 0-1.25 0" clip-rule="evenodd"/></svg>