<svg xmlns="http://www.w3.org/2000/svg" width="20" height="20" fill="none" class="persona-icon" viewBox="0 0 20 20"><path fill="currentColor" fill-rule="evenodd" d="M7.59 4.062A2.247 2.247 0 0 1 9.73 2.5h.54c.976 0 1.84.631 2.14 1.562.14.441.55.74 1.013.74H15.909a.592.592 0 0 1 0 1.185H4.091a.591.591 0 0 1 0-1.184h2.487c.462 0 .871-.3 1.013-.74Zm3.694.363a1.065 1.065 0 0 0-1.014-.74h-.54c-.463 0-.873.298-1.014.74a2.26 2.26 0 0 1-.16.378h2.888a2.244 2.244 0 0 1-.16-.378Z" clip-rule="evenodd"/><path fill="currentColor" d="M8.523 8.64c.326 0 .59.265.59.592v4.606a.591.591 0 1 1-1.181 0V9.233c0-.328.264-.593.59-.593ZM11.477 8.64c.327 0 .591.265.591.592v4.606a.591.591 0 1 1-1.182 0V9.233c0-.328.265-.593.591-.593Z"/><path fill="currentColor" d="M6.159 7.697a.591.591 0 1 0-1.182 0v6.744c0 1.69 1.367 3.059 3.053 3.059h3.94a3.056 3.056 0 0 0 3.053-3.06V7.698a.592.592 0 1 0-1.182 0v6.744a1.873 1.873 0 0 1-1.871 1.875H8.03A1.873 1.873 0 0 1 6.16 14.44V7.697Z"/></svg>