<svg xmlns="http://www.w3.org/2000/svg" width="24" height="24" fill="none" class="persona-icon" viewBox="0 0 24 24"><path fill="currentColor" fill-rule="evenodd" d="M8.697 4.064A3.027 3.027 0 0 1 11.569 2h.862c1.303 0 2.46.832 2.872 2.064.202.605.77 1.013 1.409 1.013h3.517a.77.77 0 1 1 0 1.538H3.77a.77.77 0 1 1 0-1.538h3.517c.64 0 1.207-.408 1.409-1.013m5.143.487a1.485 1.485 0 0 0-1.41-1.013h-.86c-.64 0-1.207.408-1.41 1.013-.061.185-.14.36-.233.526h4.146a3.012 3.012 0 0 1-.233-.526" clip-rule="evenodd"/><path fill="currentColor" d="M10.714 10.974a.77.77 0 0 0-1.543 0v6.154a.77.77 0 0 0 1.543 0v-6.154M14.057 10.205a.77.77 0 0 1 .772.77v6.153a.77.77 0 0 1-1.543 0v-6.154a.77.77 0 0 1 .771-.769"/><path fill="currentColor" d="M6.6 8.923a.77.77 0 0 0-.771-.77.77.77 0 0 0-.772.77v9.23A3.852 3.852 0 0 0 8.914 22h6.172a3.852 3.852 0 0 0 3.857-3.846v-9.23a.77.77 0 0 0-.772-.77.77.77 0 0 0-.771.77v9.23a2.31 2.31 0 0 1-2.314 2.308H8.914A2.31 2.31 0 0 1 6.6 18.154v-9.23"/></svg>