<svg xmlns="http://www.w3.org/2000/svg" width="20" height="20" fill="none" class="persona-icon" viewBox="0 0 20 20"><path fill="currentColor" fill-rule="evenodd" d="M6.914 3.682A1.69 1.69 0 0 0 5.225 5.37v9.257c0 .933.756 1.69 1.69 1.69h1.57a.625.625 0 1 1 0 1.25h-1.57a2.94 2.94 0 0 1-2.94-2.94V5.371a2.94 2.94 0 0 1 2.94-2.94h3.494c.601 0 1.175.25 1.585.69l3.448 3.693c.172.185.31.396.407.624a.625.625 0 0 1-.574.872h-2.96a2.17 2.17 0 0 1-2.168-2.168v-2.46zm4.483.63v1.83c0 .507.41.918.917.918h1.647z" clip-rule="evenodd"/><path fill="currentColor" fill-rule="evenodd" d="M13.406 9.286a4.128 4.128 0 1 1 0 8.256 4.128 4.128 0 0 1 0-8.256m.001 7.13a.675.675 0 1 0 0-1.35.675.675 0 0 0 0 1.35m.56-2.663v-2.78a.562.562 0 0 0-1.125 0v2.78a.562.562 0 0 0 1.126 0" clip-rule="evenodd"/></svg>