<svg xmlns="http://www.w3.org/2000/svg" width="24" height="24" fill="none" class="persona-icon" viewBox="0 0 24 24"><path fill="currentColor" fill-rule="evenodd" d="M16.5 11a5.5 5.5 0 1 1 0 11 5.5 5.5 0 0 1 0-11m.002 9.092a.804.804 0 1 0 0-1.608.804.804 0 0 0 0 1.608m.663-3.217v-3.3a.666.666 0 1 0-1.332 0v3.3a.666.666 0 1 0 1.332 0" clip-rule="evenodd"/><path fill="currentColor" fill-rule="evenodd" d="M7.871 3.539a2.315 2.315 0 0 0-2.323 2.307v12.308a2.315 2.315 0 0 0 2.323 2.308h2.064c.428 0 .775.344.775.769 0 .425-.347.769-.775.769H7.871C5.733 22 4 20.278 4 18.154V5.846C4 3.722 5.733 2 7.871 2h4.677c.787 0 1.538.325 2.075.896l5.169 5.502c.21.224.267.55.144.832a.774.774 0 0 1-.71.462h-4.13a2.83 2.83 0 0 1-2.838-2.82V3.539zm5.935 1.087v2.246c0 .708.578 1.282 1.29 1.282h2.26z" clip-rule="evenodd"/></svg>