<svg xmlns="http://www.w3.org/2000/svg" width="24" height="24" fill="none" class="persona-icon" viewBox="0 0 24 24"><path fill="currentColor" fill-rule="evenodd" d="M5.556 5.833v12.334A2.333 2.333 0 0 0 7.889 20.5H9.98a.75.75 0 0 1 0 1.5H7.89a3.833 3.833 0 0 1-3.833-3.833V5.833A3.833 3.833 0 0 1 7.889 2h4.657c.777 0 1.52.323 2.05.891l4.594 4.922c.223.239.4.513.527.808a.75.75 0 0 1-.69 1.045h-3.944a2.806 2.806 0 0 1-2.805-2.805V3.5h-4.39a2.333 2.333 0 0 0-2.332 2.333m8.222 1.028c0 .721.584 1.305 1.305 1.305h2.385l-3.69-3.954z" clip-rule="evenodd"/><path fill="currentColor" fill-rule="evenodd" d="M22.306 16.75a5.5 5.5 0 1 1-11 0 5.5 5.5 0 0 1 11 0m-4.599 3.1a.9.9 0 1 0-1.8 0 .9.9 0 0 0 1.8 0m-.903-1.9c.415 0 .75-.335.75-.748v-3.704a.749.749 0 0 0-1.5 0v3.704c0 .413.336.748.75.748" clip-rule="evenodd"/></svg>