<svg xmlns="http://www.w3.org/2000/svg" width="32" height="32" fill="none" class="persona-icon" viewBox="0 0 32 32"><path fill="currentColor" fill-rule="evenodd" d="M10.857 5.428A2.857 2.857 0 0 0 8 8.286v15.428a2.857 2.857 0 0 0 2.857 2.857h2.617a1 1 0 1 1 0 2h-2.617A4.857 4.857 0 0 1 6 23.714V8.286a4.857 4.857 0 0 1 4.857-4.858h5.826a3.57 3.57 0 0 1 2.61 1.135l5.746 6.156c.284.305.51.654.672 1.03a1 1 0 0 1-.946 1.394h-4.908a3.57 3.57 0 0 1-3.571-3.572V5.428zm7.429.987V9.57c0 .868.703 1.572 1.571 1.572H22.7z" clip-rule="evenodd"/><path fill="currentColor" fill-rule="evenodd" d="M21.676 14.812a6.88 6.88 0 1 1 0 13.76 6.88 6.88 0 0 1 0-13.76m.002 11.884a1.126 1.126 0 1 0 0-2.252 1.126 1.126 0 0 0 0 2.252m.935-4.439v-4.633a.937.937 0 0 0-.938-.936.937.937 0 0 0-.939.936v4.633c0 .517.42.936.939.936a.937.937 0 0 0 .938-.936" clip-rule="evenodd"/></svg>