<svg xmlns="http://www.w3.org/2000/svg" width="16" height="16" fill="none" class="persona-icon" viewBox="0 0 16 16"><path fill="currentColor" fill-rule="evenodd" d="M6.873 2.224a2.946 2.946 0 0 1 4.071 2.72V6.28c1.141.03 2.056.965 2.056 2.113v3.494A2.114 2.114 0 0 1 10.886 14H5.114A2.114 2.114 0 0 1 3 11.886V8.392c0-1.148.915-2.083 2.056-2.113V4.944a2.95 2.95 0 0 1 1.817-2.72M5.105 7.278A1.114 1.114 0 0 0 4 8.392v3.494C4 12.501 4.499 13 5.114 13h5.772c.615 0 1.114-.499 1.114-1.114V8.392c0-.613-.494-1.11-1.105-1.114zm4.84-1V4.945a1.945 1.945 0 0 0-3.89 0v1.333zM8 9.028a.5.5 0 0 0-.5.5v1.222a.5.5 0 1 0 1 0V9.528a.5.5 0 0 0-.5-.5" clip-rule="evenodd"/></svg>