<svg xmlns="http://www.w3.org/2000/svg" width="20" height="20" fill="none" class="persona-icon" viewBox="0 0 20 20"><path fill="currentColor" d="M10.606 12.058a.6.6 0 0 0-.606-.593.6.6 0 0 0-.606.593v1.646a.6.6 0 0 0 .606.592.6.6 0 0 0 .606-.592z"/><path fill="currentColor" fill-rule="evenodd" d="M8.48 2.296a4.05 4.05 0 0 1 3.04 0c.483.195.921.481 1.29.842.37.36.662.789.862 1.26.2.472.302.977.302 1.487v1.934c1.44.276 2.526 1.516 2.526 3.004v4.115C16.5 16.63 15.098 18 13.368 18H6.632C4.902 18 3.5 16.63 3.5 14.938v-4.115c0-1.488 1.086-2.728 2.526-3.004V5.885c0-.51.103-1.015.302-1.487.2-.471.493-.9.862-1.26a4 4 0 0 1 1.29-.842m-1.857 6.65c-1.056.005-1.91.844-1.91 1.877v4.115c0 1.037.859 1.877 1.92 1.877h6.735c1.06 0 1.92-.84 1.92-1.877v-4.115c0-1.033-.855-1.872-1.911-1.876zm6.139-3.061c0-.355-.072-.706-.21-1.033a2.7 2.7 0 0 0-.6-.876c-.256-.25-.56-.45-.895-.585a2.82 2.82 0 0 0-3.01.585c-.256.25-.46.548-.598.876-.14.327-.21.678-.21 1.033V7.76h5.523z" clip-rule="evenodd"/></svg>