<svg xmlns="http://www.w3.org/2000/svg" width="24" height="24" fill="none" class="persona-icon" viewBox="0 0 24 24"><path fill="currentColor" d="M12.774 14.564a.77.77 0 0 0-.774-.77.77.77 0 0 0-.774.77v2.051c0 .425.346.77.774.77a.77.77 0 0 0 .774-.77z"/><path fill="currentColor" fill-rule="evenodd" d="M10.124 2.37a4.93 4.93 0 0 1 5.343 1.057 4.87 4.87 0 0 1 1.436 3.445v2.384A3.854 3.854 0 0 1 20 13.026v5.128C20 20.278 18.267 22 16.129 22H7.871C5.733 22 4 20.278 4 18.154v-5.128c0-1.861 1.33-3.413 3.097-3.77V6.872a4.85 4.85 0 0 1 1.436-3.445 4.9 4.9 0 0 1 1.59-1.056M5.548 13.027v5.128a2.315 2.315 0 0 0 2.323 2.308h8.258a2.315 2.315 0 0 0 2.323-2.308v-5.128a2.315 2.315 0 0 0-2.323-2.308H7.871a2.315 2.315 0 0 0-2.323 2.308m9.807-6.154a3.32 3.32 0 0 0-.983-2.357A3.35 3.35 0 0 0 12 3.539a3.37 3.37 0 0 0-2.372.976 3.33 3.33 0 0 0-.983 2.357V9.18h6.71z" clip-rule="evenodd"/></svg>