<svg xmlns="http://www.w3.org/2000/svg" width="24" height="24" fill="none" class="persona-icon" viewBox="0 0 24 24"><path fill="currentColor" fill-rule="evenodd" d="M10.206 2.746a4.688 4.688 0 0 1 6.482 4.331v2.204A3.35 3.35 0 0 1 20 12.631v5.63c0 1.85-1.5 3.35-3.35 3.35h-9.3A3.35 3.35 0 0 1 4 18.261v-5.63a3.35 3.35 0 0 1 3.312-3.35V7.077a4.69 4.69 0 0 1 2.894-4.331M7.337 10.78A1.85 1.85 0 0 0 5.5 12.63v5.63a1.85 1.85 0 0 0 1.85 1.85h9.3a1.85 1.85 0 0 0 1.85-1.85v-5.63a1.85 1.85 0 0 0-1.837-1.85zm7.851-1.5V7.077a3.189 3.189 0 0 0-6.376 0v2.204zM12 13.71a.75.75 0 0 0-.75.75v1.97a.75.75 0 0 0 1.5 0v-1.97a.75.75 0 0 0-.75-.75" clip-rule="evenodd"/></svg>