<svg xmlns="http://www.w3.org/2000/svg" width="32" height="32" fill="none" class="persona-icon" viewBox="0 0 32 32"><path fill="currentColor" d="M16.992 19.613c0-.552-.443-1-.99-1a.995.995 0 0 0-.99 1v2.89c0 .552.443 1 .99 1 .547 0 .99-.448.99-1z"/><path fill="currentColor" fill-rule="evenodd" d="M13.434 2.518a6.65 6.65 0 0 1 5.136 0c.814.34 1.554.84 2.177 1.47A6.782 6.782 0 0 1 22.2 6.185c.337.823.511 1.704.511 2.594v3.427c2.443.468 4.29 2.636 4.29 5.24v7.222c0 2.945-2.364 5.333-5.28 5.333h-11.44c-2.916 0-5.28-2.387-5.28-5.333v-7.222c0-2.604 1.847-4.772 4.29-5.24V8.78c0-.89.174-1.771.51-2.594a6.782 6.782 0 0 1 1.455-2.198 6.706 6.706 0 0 1 2.177-1.47m8.301 11.595H10.27c-1.817.008-3.287 1.497-3.287 3.334v7.222c0 1.84 1.477 3.333 3.3 3.333h11.44c1.822 0 3.3-1.492 3.3-3.333v-7.222c0-1.837-1.47-3.326-3.287-3.334M20.732 8.78a4.82 4.82 0 0 0-.36-1.828 4.783 4.783 0 0 0-1.025-1.55 4.727 4.727 0 0 0-1.535-1.036 4.689 4.689 0 0 0-5.155 1.036 4.82 4.82 0 0 0-1.385 3.378v3.333h9.46z" clip-rule="evenodd"/></svg>