<svg xmlns="http://www.w3.org/2000/svg" width="32" height="32" fill="none" class="persona-icon" viewBox="0 0 32 32"><path fill="currentColor" fill-rule="evenodd" d="M13.747 4.448a5.887 5.887 0 0 1 8.142 5.44v2.669A4.23 4.23 0 0 1 26 16.783v6.99A4.23 4.23 0 0 1 21.772 28H10.228A4.23 4.23 0 0 1 6 23.772v-6.989a4.23 4.23 0 0 1 4.111-4.226V9.889a5.89 5.89 0 0 1 3.635-5.44M10.21 14.556A2.227 2.227 0 0 0 8 16.783v6.99C8 25.002 8.997 26 10.228 26h11.544c1.23 0 2.228-.997 2.228-2.228v-6.989a2.227 2.227 0 0 0-2.21-2.228zm9.678-2V9.888a3.89 3.89 0 0 0-7.778 0v2.666zM16 18.055a1 1 0 0 0-1 1V21.5a1 1 0 0 0 2 0v-2.445a1 1 0 0 0-1-1" clip-rule="evenodd"/></svg>