<svg xmlns="http://www.w3.org/2000/svg" width="16" height="16" fill="none" class="persona-icon" viewBox="0 0 16 16"><path fill="currentColor" fill-rule="evenodd" d="M2.5 4.444a.5.5 0 0 1 .5.5v1.834a.5.5 0 0 1-1 0V4.944a.5.5 0 0 1 .5-.5m.722-.11A2.333 2.333 0 0 1 5.556 2h4.888a2.333 2.333 0 0 1 2.334 2.333v6.723c0 .613-.498 1.11-1.111 1.11h-.111v.417a1.417 1.417 0 0 1-2.834 0v-.416H7.278v.416a1.417 1.417 0 0 1-2.834 0v-.416h-.11a1.11 1.11 0 0 1-1.112-1.111zM11.778 7.5V4.833H4.222V7.5zm-7.556 1v2.556c0 .06.05.11.111.11h7.334c.061 0 .11-.05.11-.11V8.5zm7.459-4.667A1.33 1.33 0 0 0 10.444 3H5.556c-.56 0-1.04.345-1.237.833zm-6.625 6a.5.5 0 0 1 .5-.5h.61a.5.5 0 0 1 0 1h-.61a.5.5 0 0 1-.5-.5m.388 2.334v.416a.417.417 0 1 0 .834 0v-.416zm3.89-2.334a.5.5 0 0 1 .5-.5h.61a.5.5 0 1 1 0 1h-.61a.5.5 0 0 1-.5-.5m.388 2.334v.416a.417.417 0 1 0 .834 0v-.416zM13.5 4.444a.5.5 0 0 1 .5.5v1.834a.5.5 0 0 1-1 0V4.944a.5.5 0 0 1 .5-.5" clip-rule="evenodd"/></svg>