<svg xmlns="http://www.w3.org/2000/svg" width="16" height="16" fill="none" class="persona-icon"><path fill="currentColor" d="M3.222 4.333A2.333 2.333 0 0 1 5.556 2h4.888a2.333 2.333 0 0 1 2.334 2.333v.111h.722a.5.5 0 0 1 .5.5V7.39a.5.5 0 0 1-1 0V5.444h-.222v5.612c0 .613-.498 1.11-1.111 1.11h-.111v.417a1.417 1.417 0 0 1-2.834 0v-.416H7.278v.416a1.417 1.417 0 0 1-2.834 0v-.416h-.11a1.111 1.111 0 0 1-1.112-1.111V5.444H3V7.39a.5.5 0 0 1-1 0V4.944a.5.5 0 0 1 .5-.5h.722v-.11Zm1 3.167h7.556V4.833H4.222V7.5Zm7.556 1H4.222v2.556c0 .06.05.11.111.11h7.334c.061 0 .11-.05.11-.11V8.5Zm-.097-4.667A1.334 1.334 0 0 0 10.444 3H5.556c-.56 0-1.04.345-1.237.833h7.362Zm-6.625 6a.5.5 0 0 0 .5.5h.61a.5.5 0 1 0 0-1h-.61a.5.5 0 0 0-.5.5Zm.388 2.334v.416a.417.417 0 1 0 .834 0v-.416h-.834Zm3.89-2.334a.5.5 0 0 0 .5.5h.61a.5.5 0 1 0 0-1h-.61a.5.5 0 0 0-.5.5Zm.388 2.334v.416a.417.417 0 1 0 .834 0v-.416h-.834Z"/></svg>