<svg xmlns="http://www.w3.org/2000/svg" width="24" height="24" fill="none" class="persona-icon" viewBox="0 0 24 24"><path fill="currentColor" fill-rule="evenodd" d="M4.051 5.846A3.846 3.846 0 0 1 7.897 2h8.206a3.846 3.846 0 0 1 3.846 3.846v.257h1.282a.77.77 0 0 1 .769.769v4.102a.77.77 0 0 1-1.538 0V7.641h-.513v9.487c0 .991-.804 1.795-1.795 1.795h-.257v.77a2.308 2.308 0 0 1-4.615 0v-.77h-2.564v.77a2.308 2.308 0 1 1-4.615 0v-.77h-.257a1.795 1.795 0 0 1-1.795-1.795V7.641h-.513v3.333a.77.77 0 0 1-1.538 0V6.872a.77.77 0 0 1 .77-.77H4.05v-.256Zm1.539 5.385h12.82V6.615H5.59v4.616Zm12.82 1.538H5.59v4.36c0 .14.115.256.256.256h12.308a.256.256 0 0 0 .256-.257V12.77Zm-.131-7.692a2.309 2.309 0 0 0-2.176-1.538H7.897c-1.004 0-1.86.642-2.176 1.538H18.28Zm-11.15 10a.77.77 0 0 1 .768-.77h1.026a.77.77 0 0 1 0 1.54H7.897a.77.77 0 0 1-.769-.77Zm.512 3.846v.77a.77.77 0 0 0 1.539 0v-.77H7.64Zm6.667-3.846a.77.77 0 0 1 .769-.77h1.026a.77.77 0 0 1 0 1.54h-1.026a.77.77 0 0 1-.77-.77Zm.512 3.846v.77a.77.77 0 0 0 1.539 0v-.77H14.82Z" clip-rule="evenodd"/></svg>