<svg xmlns="http://www.w3.org/2000/svg" width="32" height="32" fill="none" class="persona-icon" viewBox="0 0 32 32"><path fill="currentColor" fill-rule="evenodd" d="M2 16C2 8.268 8.268 2 16 2s14 6.268 14 14-6.268 14-14 14S2 23.732 2 16M16 4C9.373 4 4 9.373 4 16s5.373 12 12 12 12-5.373 12-12S22.627 4 16 4" clip-rule="evenodd"/><path fill="currentColor" fill-rule="evenodd" d="M21.778 22.778a1 1 0 0 1-1-1 4.778 4.778 0 0 0-9.556 0 1 1 0 1 1-2 0 6.779 6.779 0 0 1 13.556 0 1 1 0 0 1-1 1" clip-rule="evenodd"/><path fill="currentColor" d="M13.111 11.667a1.444 1.444 0 1 1-2.889 0 1.444 1.444 0 0 1 2.89 0M21.778 11.667a1.444 1.444 0 1 1-2.89 0 1.444 1.444 0 0 1 2.89 0"/></svg>