<svg xmlns="http://www.w3.org/2000/svg" width="32" height="32" fill="none" class="persona-icon" viewBox="0 0 32 32"><path fill="currentColor" fill-rule="evenodd" d="M3.002 16.002c0-7.18 5.82-13 13-13s13 5.82 13 13-5.82 13-13 13-13-5.82-13-13m13-11c-6.075 0-11 4.925-11 11s4.925 11 11 11 11-4.925 11-11-4.925-11-11-11" clip-rule="evenodd"/><path fill="currentColor" fill-rule="evenodd" d="M21.336 22.336a1 1 0 0 1-1-1 4.335 4.335 0 0 0-5.992-4.004 4.332 4.332 0 0 0-2.675 4.003 1 1 0 0 1-2 0 6.333 6.333 0 1 1 12.667 0 1 1 0 0 1-1 1" clip-rule="evenodd"/><path fill="currentColor" d="M13.336 12.002a1.333 1.333 0 1 1-2.667 0 1.333 1.333 0 0 1 2.666 0M21.336 12.002a1.333 1.333 0 1 1-2.667 0 1.333 1.333 0 0 1 2.666 0"/></svg>