<svg xmlns="http://www.w3.org/2000/svg" width="20" height="20" fill="none" class="persona-icon" viewBox="0 0 20 20"><path fill="currentColor" fill-rule="evenodd" d="M13.5 15.998a.603.603 0 0 0-.603-.603h-.796V9.002a.603.603 0 0 0-.603-.603H5.105v-.796a.603.603 0 0 0-1.206 0v.796h-.796a.603.603 0 0 0 0 1.206h.796v6.393c0 .333.27.603.603.603h6.393v.796a.603.603 0 0 0 1.206 0v-.796h.796c.333 0 .603-.27.603-.603m-2.605-.603h-5.79v-5.79h5.79zM11.866 2.16a.592.592 0 0 0-.852.045L9.655 3.758a.634.634 0 0 0 0 .83l1.359 1.552a.592.592 0 0 0 .852.046.633.633 0 0 0 .045-.876l-.451-.516h3.172c.917 0 1.66.764 1.66 1.707v3.88c0 .342.27.62.604.62a.612.612 0 0 0 .604-.62V6.5c0-1.628-1.284-2.948-2.868-2.948H11.46l.451-.516a.633.633 0 0 0-.045-.877" clip-rule="evenodd"/></svg>