<svg xmlns="http://www.w3.org/2000/svg" width="32" height="32" fill="none"><path fill="#000" d="M17.574 2.333a.973.973 0 0 1 1.39-.074c.404.37.437 1.002.073 1.412l-.825.931h5.467c2.664 0 4.823 2.194 4.823 4.9v6.5c0 .553-.44 1-.984 1a.992.992 0 0 1-.984-1v-6.5c0-1.601-1.278-2.9-2.855-2.9h-5.467l.825.931c.364.41.33 1.043-.073 1.413a.973.973 0 0 1-1.39-.075l-2.303-2.6a1.012 1.012 0 0 1 0-1.338l2.303-2.6Z"/><path fill="#000" fill-rule="evenodd" d="M21.12 25.588c.544 0 .985.448.985 1s-.441 1-.985 1h-1.392v1.414c0 .553-.44 1-.984 1a.992.992 0 0 1-.984-1v-1.414H6.863a.992.992 0 0 1-.985-1V15.517H4.486a.992.992 0 0 1-.984-1c0-.553.44-1 .984-1h1.392v-1.415c0-.552.441-1 .985-1 .543 0 .984.448.984 1v1.415h10.897c.544 0 .984.447.984 1v11.071h1.392Zm-13.273 0h9.913V15.517H7.847v10.071Z" clip-rule="evenodd"/></svg>