<svg xmlns="http://www.w3.org/2000/svg" width="32" height="32" fill="none" class="persona-icon" viewBox="0 0 32 32"><path fill="currentColor" fill-rule="evenodd" d="M18.59 1.903a1 1 0 0 1-.103 1.41L17.69 4H23a5 5 0 0 1 5 5v6.667a1 1 0 1 1-2 0V9a3 3 0 0 0-3-3h-5.31l.797.687a1 1 0 0 1-1.307 1.515l-2.833-2.445a1 1 0 0 1 0-1.514l2.833-2.445a1 1 0 0 1 1.41.105m-13.4 9.24h14.667a1 1 0 0 1 1 1V26.81a1 1 0 0 1-1 1H5.19a1 1 0 0 1-1-1V12.143a1 1 0 0 1 1-1m1 2V25.81h12.667V13.143z" clip-rule="evenodd"/></svg>