<svg xmlns="http://www.w3.org/2000/svg" width="32" height="32" fill="none"><path fill="currentColor" d="M17.57 2.329a.973.973 0 0 1 1.39-.075c.403.37.436 1.002.072 1.413l-.824.93h5.467c2.663 0 4.823 2.194 4.823 4.9v6.5c0 .553-.44 1-.984 1a.992.992 0 0 1-.985-1v-6.5c0-1.6-1.278-2.9-2.854-2.9h-5.467l.825.932c.363.41.33 1.043-.074 1.412a.973.973 0 0 1-1.39-.074l-2.303-2.6a1.012 1.012 0 0 1 0-1.338l2.303-2.6ZM21.116 25.583c.544 0 .984.448.984 1 0 .553-.44 1-.984 1h-1.392v1.415c0 .552-.44 1-.984 1a.992.992 0 0 1-.985-1v-1.415H6.858a.992.992 0 0 1-.984-1V15.512H4.482a.992.992 0 0 1-.984-1c0-.552.44-1 .984-1h1.392v-1.414c0-.553.44-1 .984-1s.985.447.985 1v1.414H18.74c.543 0 .984.448.984 1v11.071h1.392Zm-13.273 0h9.912V15.512H7.843v10.071Z"/></svg>