<svg xmlns="http://www.w3.org/2000/svg" width="16" height="16" fill="none" class="persona-icon" viewBox="0 0 16 16"><path fill="currentColor" fill-rule="evenodd" d="M4.15 3A1.15 1.15 0 0 0 3 4.15v1.787a.5.5 0 0 1-1 0V4.15A2.15 2.15 0 0 1 4.15 2h1.787a.5.5 0 0 1 0 1zM2.5 9.563a.5.5 0 0 1 .5.5v1.787c0 .635.515 1.15 1.15 1.15h1.787a.5.5 0 0 1 0 1H4.15A2.15 2.15 0 0 1 2 11.85v-1.787a.5.5 0 0 1 .5-.5M4 4.5a.5.5 0 0 1 .5-.5h2.625a.5.5 0 0 1 .5.5v2.625a.5.5 0 0 1-.5.5H4.5a.5.5 0 0 1-.5-.5zm0 4.375a.5.5 0 0 1 .5-.5h2.625a.5.5 0 0 1 .5.5V11.5a.5.5 0 0 1-.5.5H4.5a.5.5 0 0 1-.5-.5zM5 5v1.625h1.625V5zm0 4.375V11h1.625V9.375zM9.355 11a.5.5 0 0 0-.98.139v.36a.5.5 0 0 0 .5.5h.87a.5.5 0 1 0 0-1zm-.98-6.5a.5.5 0 0 1 .5-.5H11.5a.5.5 0 0 1 .5.5v2.625a.5.5 0 0 1-.5.5H8.875a.5.5 0 0 1-.5-.5zm.5 3.875a.5.5 0 0 1 .5.5v.615h.883a.5.5 0 0 1 .5.5v.46a.5.5 0 0 1-.999.04h-.884a.5.5 0 0 1-.5-.5V8.875a.5.5 0 0 1 .5-.5M9.375 5v1.625H11V5zm.188-2.5a.5.5 0 0 1 .5-.5h1.787A2.15 2.15 0 0 1 14 4.15v1.787a.5.5 0 0 1-1 0V4.15A1.15 1.15 0 0 0 11.85 3h-1.787a.5.5 0 0 1-.5-.5M13.5 9.563a.5.5 0 0 1 .5.5v1.787A2.15 2.15 0 0 1 11.85 14h-1.787a.5.5 0 0 1 0-1h1.787A1.15 1.15 0 0 0 13 11.85v-1.787a.5.5 0 0 1 .5-.5m-3.719-.688a.5.5 0 0 1 .5-.5h1.22a.5.5 0 0 1 .5.5v.905a.5.5 0 0 1-1 0v-.405h-.72a.5.5 0 0 1-.5-.5m1.719 1.542a.5.5 0 0 1 .5.5v.583a.5.5 0 0 1-.5.5h-.583a.5.5 0 1 1 0-1H11v-.083a.5.5 0 0 1 .5-.5" clip-rule="evenodd"/></svg>