<svg xmlns="http://www.w3.org/2000/svg" width="20" height="20" fill="none" class="persona-icon" viewBox="0 0 20 20"><path fill="currentColor" fill-rule="evenodd" d="M5.52 4.225c-.715 0-1.295.58-1.295 1.295V7.6a.625.625 0 1 1-1.25 0V5.52A2.545 2.545 0 0 1 5.52 2.975H7.6a.625.625 0 1 1 0 1.25zm-1.92 7.55c.345 0 .625.28.625.625v2.08c0 .715.58 1.295 1.295 1.295H7.6a.625.625 0 1 1 0 1.25H5.52a2.545 2.545 0 0 1-2.545-2.545V12.4c0-.345.28-.625.625-.625m1.703-5.847c0-.346.28-.625.625-.625h3.054c.345 0 .625.28.625.625v3.054c0 .345-.28.625-.625.625H5.928a.625.625 0 0 1-.625-.625zm0 5.09c0-.345.28-.625.625-.625h3.054c.345 0 .625.28.625.625v3.055c0 .345-.28.625-.625.625H5.928a.625.625 0 0 1-.625-.625zm6.306 2.43h.422a.625.625 0 1 1 0 1.25h-1.013a.625.625 0 0 1-.625-.625v-.42a.625.625 0 0 1 1.216-.205m-1.216-7.52c0-.346.28-.625.625-.625h3.055c.345 0 .625.28.625.625v3.054c0 .345-.28.625-.625.625h-3.055a.625.625 0 0 1-.625-.625zm.625 4.465c.345 0 .625.28.625.625v.672h.984c.345 0 .625.28.625.625v.536a.625.625 0 0 1-1.243.09h-.99a.625.625 0 0 1-.626-.626v-1.297c0-.345.28-.625.625-.625m.757-6.793c0-.345.28-.625.625-.625h2.08a2.545 2.545 0 0 1 2.545 2.545V7.6a.625.625 0 1 1-1.25 0V5.52c0-.715-.58-1.295-1.295-1.295H12.4a.625.625 0 0 1-.625-.625m4.625 8.175c.345 0 .625.28.625.625v2.08a2.545 2.545 0 0 1-2.545 2.545H12.4a.625.625 0 1 1 0-1.25h2.08c.715 0 1.295-.58 1.295-1.295V12.4c0-.345.28-.625.625-.625m-4.37-.757c0-.345.28-.625.625-.625h1.418c.345 0 .625.28.625.625v1.053a.625.625 0 1 1-1.25 0v-.428h-.793a.625.625 0 0 1-.625-.625m2.043 1.751c.345 0 .625.28.625.625v.679c0 .345-.28.625-.625.625h-.679a.625.625 0 0 1 0-1.25h.054v-.054c0-.345.28-.625.625-.625m-7.52-6.216v1.804h1.804V6.553zm0 5.09v1.805h1.804v-1.805zm5.09-5.09v1.804h1.805V6.553z" clip-rule="evenodd"/></svg>