<svg xmlns="http://www.w3.org/2000/svg" width="20" height="20" fill="none" class="persona-icon" viewBox="0 0 20 20"><path fill="currentColor" d="M3.075 4.776c0-.94.761-1.701 1.701-1.701h2.426a.537.537 0 1 0 0-1.075H4.776A2.776 2.776 0 0 0 2 4.776v2.426a.537.537 0 0 0 1.075 0zM12.799 2a.537.537 0 0 0 0 1.075h2.425c.94 0 1.701.761 1.701 1.701v2.426a.537.537 0 1 0 1.075 0V4.776A2.776 2.776 0 0 0 15.224 2zM3.075 12.799a.537.537 0 1 0-1.075 0v2.425A2.776 2.776 0 0 0 4.776 18h2.426a.537.537 0 0 0 0-1.075H4.776c-.94 0-1.701-.761-1.701-1.701zM18 12.799a.537.537 0 0 0-1.075 0v2.425c0 .94-.761 1.701-1.701 1.701h-2.425a.537.537 0 1 0 0 1.075h2.425A2.776 2.776 0 0 0 18 15.224z"/><path fill="currentColor" fill-rule="evenodd" d="M5.022 5.556c0-.295.239-.534.534-.534h3.333c.294 0 .533.239.533.534v3.333a.533.533 0 0 1-.533.533H5.556a.533.533 0 0 1-.534-.533zm1.067.533v2.267h2.266V6.089zM5.022 11.111c0-.294.239-.533.534-.533h3.333c.294 0 .533.239.533.533v3.333a.533.533 0 0 1-.533.534H5.556a.533.533 0 0 1-.534-.534zm1.067.534v2.266h2.266v-2.266zM11.111 5.022a.533.533 0 0 0-.533.534v3.333c0 .295.239.533.533.533h3.333a.533.533 0 0 0 .534-.533V5.556a.533.533 0 0 0-.534-.534zm.533 3.334V6.089h2.267v2.267z" clip-rule="evenodd"/><path fill="currentColor" d="M11.644 11.111a.533.533 0 0 0-1.066 0v1.416c0 .294.239.533.533.533h1.223v.051a.533.533 0 1 0 1.066 0v-.584a.533.533 0 0 0-.533-.534h-1.223z"/><path fill="currentColor" d="M12.897 10.578a.533.533 0 0 0 0 1.067h1.014v.615a.533.533 0 1 0 1.067 0v-1.149a.533.533 0 0 0-.533-.533zM13.911 13.704v.207h-.207a.533.533 0 1 0 0 1.067h.74a.534.534 0 0 0 .534-.534v-.74a.533.533 0 0 0-1.067 0M11.64 13.911h.576a.533.533 0 1 1 0 1.067h-1.105a.533.533 0 0 1-.533-.534v-.459a.533.533 0 0 1 1.061-.074"/></svg>