<svg xmlns="http://www.w3.org/2000/svg" width="24" height="24" fill="none" class="persona-icon" viewBox="0 0 24 24"><path fill="currentColor" fill-rule="evenodd" d="M5.093 5.86c0-.423.344-.767.768-.767h4.604c.424 0 .768.344.768.768v4.604a.767.767 0 0 1-.768.768H5.861a.767.767 0 0 1-.768-.768zm1.535.768v3.07h3.07v-3.07zM5.093 13.535c0-.424.344-.768.768-.768h4.604c.424 0 .768.344.768.768v4.605a.767.767 0 0 1-.768.767H5.861a.767.767 0 0 1-.768-.767zm1.535.767v3.07h3.07v-3.07zM12.767 5.86c0-.423.344-.767.768-.767h4.605c.423 0 .767.344.767.768v4.604a.767.767 0 0 1-.767.768h-4.605a.767.767 0 0 1-.768-.768zm1.535.768v3.07h3.07v-3.07zM15.234 13.535c0-.424.344-.768.768-.768h2.138c.424 0 .767.344.767.768v1.587a.767.767 0 0 1-1.535 0v-.82h-1.37a.767.767 0 0 1-.768-.767M17.372 17.372v-.256a.767.767 0 1 1 1.535 0v1.024a.767.767 0 0 1-.767.767h-1.024a.767.767 0 1 1 0-1.535zM14.29 17.372h.772a.767.767 0 1 1 0 1.535h-1.527a.767.767 0 0 1-.768-.767v-.634a.767.767 0 0 1 1.524-.134" clip-rule="evenodd"/><path fill="currentColor" fill-rule="evenodd" d="M13.535 12.767c.424 0 .767.344.767.768v1.188h1.659c.423 0 .767.343.767.767v.808a.767.767 0 0 1-1.535 0v-.04h-1.658a.767.767 0 0 1-.768-.768v-1.955c0-.424.344-.768.768-.768M4.837 2.535a2.3 2.3 0 0 0-2.302 2.302v3.326a.767.767 0 0 1-1.535 0V4.837A3.837 3.837 0 0 1 4.837 1h3.326a.767.767 0 0 1 0 1.535zM1.767 15.07c.424 0 .768.343.768.767v3.326a2.3 2.3 0 0 0 2.302 2.302h3.326a.767.767 0 0 1 0 1.535H4.837A3.837 3.837 0 0 1 1 19.163v-3.326c0-.424.344-.767.767-.767M15.07 1.767c0-.423.343-.767.767-.767h3.326A3.837 3.837 0 0 1 23 4.837v3.326a.767.767 0 0 1-1.535 0V4.837a2.3 2.3 0 0 0-2.302-2.302h-3.326a.767.767 0 0 1-.767-.768m7.163 13.303c.423 0 .767.343.767.767v3.326A3.837 3.837 0 0 1 19.163 23h-3.326a.767.767 0 0 1 0-1.535h3.326a2.3 2.3 0 0 0 2.302-2.302v-3.326c0-.424.344-.767.768-.767" clip-rule="evenodd"/></svg>