<svg xmlns="http://www.w3.org/2000/svg" width="24" height="24" fill="none" class="persona-icon" viewBox="0 0 24 24"><path fill="currentColor" fill-rule="evenodd" d="M6.225 4.5c-.953 0-1.725.772-1.725 1.725v2.681a.75.75 0 0 1-1.5 0V6.225A3.225 3.225 0 0 1 6.225 3h2.681a.75.75 0 0 1 0 1.5zm8.119-.75a.75.75 0 0 1 .75-.75h2.681A3.225 3.225 0 0 1 21 6.225v2.681a.75.75 0 0 1-1.5 0V6.225c0-.953-.772-1.725-1.725-1.725h-2.681a.75.75 0 0 1-.75-.75M6 6.75A.75.75 0 0 1 6.75 6h3.938a.75.75 0 0 1 .75.75v3.938a.75.75 0 0 1-.75.75H6.75a.75.75 0 0 1-.75-.75zm6.563 0a.75.75 0 0 1 .75-.75h3.937a.75.75 0 0 1 .75.75v3.938a.75.75 0 0 1-.75.75h-3.937a.75.75 0 0 1-.75-.75zM6 13.313a.75.75 0 0 1 .75-.75h3.938a.75.75 0 0 1 .75.75v3.937a.75.75 0 0 1-.75.75H6.75a.75.75 0 0 1-.75-.75zm7.313-.75a.75.75 0 0 1 .75.75v.922h1.324a.75.75 0 0 1 .75.75v.69a.75.75 0 0 1-1.498.06h-1.326a.75.75 0 0 1-.75-.75v-1.672a.75.75 0 0 1 .75-.75m1.359.75a.75.75 0 0 1 .75-.75h1.828a.75.75 0 0 1 .75.75v1.357a.75.75 0 0 1-1.5 0v-.607h-1.078a.75.75 0 0 1-.75-.75M3.75 14.343a.75.75 0 0 1 .75.75v2.682c0 .953.772 1.725 1.725 1.725h2.681a.75.75 0 0 1 0 1.5H6.225A3.225 3.225 0 0 1 3 17.775v-2.681a.75.75 0 0 1 .75-.75m16.5 0a.75.75 0 0 1 .75.75v2.682A3.225 3.225 0 0 1 17.775 21h-2.681a.75.75 0 1 1 0-1.5h2.681c.953 0 1.725-.772 1.725-1.725v-2.681a.75.75 0 0 1 .75-.75m-3 1.282a.75.75 0 0 1 .75.75v.875a.75.75 0 0 1-.75.75h-.875a.75.75 0 1 1 0-1.5h.125v-.125a.75.75 0 0 1 .75-.75m-3.217.875h.585a.75.75 0 0 1 0 1.5h-1.306a.75.75 0 0 1-.75-.75v-.542a.75.75 0 0 1 1.471-.208M7.5 7.5v2.438h2.438V7.5zm6.563 0v2.438H16.5V7.5zM7.5 14.063V16.5h2.438v-2.437z" clip-rule="evenodd"/></svg>