<svg xmlns="http://www.w3.org/2000/svg" width="32" height="32" fill="none" class="persona-icon" viewBox="0 0 32 32"><path fill="currentColor" fill-rule="evenodd" d="M8.3 6A2.3 2.3 0 0 0 6 8.3v3.575a1 1 0 1 1-2 0V8.3A4.3 4.3 0 0 1 8.3 4h3.575a1 1 0 1 1 0 2zm10.825-1a1 1 0 0 1 1-1H23.7A4.3 4.3 0 0 1 28 8.3v3.575a1 1 0 1 1-2 0V8.3A2.3 2.3 0 0 0 23.7 6h-3.575a1 1 0 0 1-1-1M8 9a1 1 0 0 1 1-1h5.25a1 1 0 0 1 1 1v5.25a1 1 0 0 1-1 1H9a1 1 0 0 1-1-1zm8.75 0a1 1 0 0 1 1-1H23a1 1 0 0 1 1 1v5.25a1 1 0 0 1-1 1h-5.25a1 1 0 0 1-1-1zM8 17.75a1 1 0 0 1 1-1h5.25a1 1 0 0 1 1 1V23a1 1 0 0 1-1 1H9a1 1 0 0 1-1-1zm9.75-1a1 1 0 0 1 1 1v1.23h1.765a1 1 0 0 1 1 1v.92a1 1 0 0 1-1.996.08H17.75a1 1 0 0 1-1-1v-2.23a1 1 0 0 1 1-1m1.813 1a1 1 0 0 1 1-1H23a1 1 0 0 1 1 1v1.81a1 1 0 0 1-2 0v-.81h-1.437a1 1 0 0 1-1-1M5 19.125a1 1 0 0 1 1 1V23.7A2.3 2.3 0 0 0 8.3 26h3.575a1 1 0 1 1 0 2H8.3A4.3 4.3 0 0 1 4 23.7v-3.575a1 1 0 0 1 1-1m22 0a1 1 0 0 1 1 1V23.7a4.3 4.3 0 0 1-4.3 4.3h-3.575a1 1 0 1 1 0-2H23.7a2.3 2.3 0 0 0 2.3-2.3v-3.575a1 1 0 0 1 1-1m-4 1.708a1 1 0 0 1 1 1V23a1 1 0 0 1-1 1h-1.167a1 1 0 1 1 0-2H22v-.167a1 1 0 0 1 1-1M18.71 22h.78a1 1 0 0 1 0 2H17.75a1 1 0 0 1-1-1v-.723A1 1 0 0 1 18.71 22m-8.71-12v3.25h3.249V10zm8.749 0v3.25H22V10zM10 18.75V22h3.25v-3.25z" clip-rule="evenodd"/></svg>