<svg xmlns="http://www.w3.org/2000/svg" width="32" height="32" fill="none"><path fill="#000" fill-rule="evenodd" d="M9.485 22.42a1.007 1.007 0 0 1-1.414 0L2.293 16.7a.985.985 0 0 1 0-1.4L8.07 9.58a1.007 1.007 0 0 1 1.414 0 .983.983 0 0 1 0 1.4L4.415 16l5.07 5.02a.983.983 0 0 1 0 1.4ZM22.515 22.42c.39.386 1.024.386 1.414 0l5.778-5.72a.985.985 0 0 0 0-1.4L23.93 9.58a1.007 1.007 0 0 0-1.414 0 .983.983 0 0 0 0 1.4l5.07 5.02-5.07 5.02a.983.983 0 0 0 0 1.4ZM19.164 5.038c.53.15.838.698.686 1.224l-5.777 20.02c-.152.525-.706.83-1.237.68a.989.989 0 0 1-.686-1.224l5.777-20.02c.152-.525.706-.83 1.237-.68Z" clip-rule="evenodd"/></svg>