<svg xmlns="http://www.w3.org/2000/svg" width="16" height="16" fill="none" class="persona-icon"><g fill="currentColor" clip-path="url(#a)"><path d="M4.5 3.167a1.167 1.167 0 1 0 2.333 0 1.167 1.167 0 0 0-2.333 0ZM4.5 8a1.167 1.167 0 1 0 2.333 0A1.167 1.167 0 0 0 4.5 8ZM4.5 12.833a1.167 1.167 0 1 0 2.333 0 1.167 1.167 0 0 0-2.333 0ZM9.167 12.833a1.167 1.167 0 1 0 2.333 0 1.167 1.167 0 0 0-2.333 0ZM9.167 8A1.167 1.167 0 1 0 11.5 8a1.167 1.167 0 0 0-2.333 0ZM9.167 3.167a1.167 1.167 0 1 0 2.333 0 1.167 1.167 0 0 0-2.333 0Z"/></g><defs><clipPath id="a"><path fill="#fff" d="M0 0h16v16H0z"/></clipPath></defs></svg>