<svg xmlns="http://www.w3.org/2000/svg" width="20" height="20" fill="none" class="persona-icon"><g fill="currentColor" clip-path="url(#a)"><path d="M6 4.333a1.333 1.333 0 1 0 2.667 0 1.333 1.333 0 0 0-2.667 0ZM6 10a1.333 1.333 0 1 0 2.667 0A1.333 1.333 0 0 0 6 10ZM6 15.667a1.333 1.333 0 1 0 2.667 0 1.333 1.333 0 0 0-2.667 0ZM11.333 15.667a1.333 1.333 0 1 0 2.667 0 1.333 1.333 0 0 0-2.667 0ZM11.333 10A1.333 1.333 0 1 0 14 10a1.333 1.333 0 0 0-2.667 0ZM11.333 4.333a1.333 1.333 0 1 0 2.667 0 1.333 1.333 0 0 0-2.667 0Z"/></g><defs><clipPath id="a"><path fill="#fff" d="M0 0h20v20H0z"/></clipPath></defs></svg>