<svg xmlns="http://www.w3.org/2000/svg" width="24" height="24" fill="none" class="persona-icon"><g fill="currentColor" clip-path="url(#a)"><path d="M7.5 5a1.5 1.5 0 1 0 3 0 1.5 1.5 0 0 0-3 0ZM7.5 12a1.5 1.5 0 1 0 3 0 1.5 1.5 0 0 0-3 0ZM7.5 19a1.5 1.5 0 1 0 3 0 1.5 1.5 0 0 0-3 0ZM13.5 19a1.5 1.5 0 1 0 3 0 1.5 1.5 0 0 0-3 0ZM13.5 12a1.5 1.5 0 1 0 3 0 1.5 1.5 0 0 0-3 0ZM13.5 5a1.5 1.5 0 1 0 3 0 1.5 1.5 0 0 0-3 0Z"/></g><defs><clipPath id="a"><path fill="#fff" d="M0 0h24v24H0z"/></clipPath></defs></svg>