<svg xmlns="http://www.w3.org/2000/svg" width="16" height="16" fill="none" class="persona-icon" viewBox="0 0 16 16"><path fill="currentColor" fill-rule="evenodd" d="M2 3.514C2 3.23 2.23 3 2.514 3h10.972a.514.514 0 1 1 0 1.027H2.514A.514.514 0 0 1 2 3.513M7.667 6.519a.5.5 0 0 1 .5-.5H13.5a.5.5 0 1 1 0 1H8.167a.5.5 0 0 1-.5-.5M2 9.51c0-.276.23-.5.514-.5h10.972c.284 0 .514.224.514.5s-.23.5-.514.5H2.514A.507.507 0 0 1 2 9.51M7.667 12.5a.5.5 0 0 1 .5-.498H13.5a.5.5 0 1 1 0 .998H8.167a.5.5 0 0 1-.5-.5" clip-rule="evenodd"/></svg>