<svg xmlns="http://www.w3.org/2000/svg" width="16" height="16" fill="none" class="persona-icon" viewBox="0 0 16 16"><path fill="currentColor" fill-rule="evenodd" d="M10.237 3.46q.45.103.867.52c.403.403.54.924.455 1.381h1.33c.614 0 1.111.498 1.111 1.111v1.222c0 .434-.249.81-.611.993v3.59c0 .952-.771 1.723-1.722 1.723H8.5V7.806h4.389c.061 0 .111-.05.111-.112V6.473a.11.11 0 0 0-.111-.11H8.5v1.441h-1V6.361H3.111A.11.11 0 0 0 3 6.472v1.222c0 .062.05.112.111.112H7.5V14H4.333a1.72 1.72 0 0 1-1.722-1.722v-3.59A1.11 1.11 0 0 1 2 7.693V6.473c0-.613.498-1.11 1.111-1.11h1.327c-.084-.458.052-.979.456-1.382q.417-.417.866-.52c.15-.035.293-.041.425-.027a1.8 1.8 0 0 1 .102-.423 1.46 1.46 0 0 1 .603-.734Q7.34 1.998 8 2c.776 0 1.32.34 1.593.888.088.175.143.362.172.551.145-.021.303-.018.472.02m-3.01.636L8 5.06l.76-.95c.058-.302.034-.585-.062-.776C8.616 3.169 8.446 3 8 3c-.305 0-.482.063-.583.126a.46.46 0 0 0-.195.24c-.078.205-.06.49.006.73M9.04 5.36h1.404c.016 0 .09-.009.127-.156.082-.328-.25-.7-.559-.771a.26.26 0 0 0-.173.015.5.5 0 0 0-.153.11l-.073.087zm-2.083 0-.573-.715-.073-.088a.5.5 0 0 0-.153-.109.26.26 0 0 0-.173-.015c-.309.071-.64.443-.559.771.037.147.11.156.127.156z" clip-rule="evenodd"/></svg>