<svg xmlns="http://www.w3.org/2000/svg" width="16" height="16" fill="none" class="persona-icon" viewBox="0 0 16 16"><path fill="currentColor" fill-rule="evenodd" d="M10.237 3.46a1.3 1.3 0 0 0-.472-.02 1.9 1.9 0 0 0-.172-.552C9.319 2.34 8.776 2 8 2q-.66-.002-1.11.276a1.46 1.46 0 0 0-.603.734 1.8 1.8 0 0 0-.102.423 1.3 1.3 0 0 0-.425.026q-.45.105-.866.52c-.404.404-.54.925-.456 1.382H3.11C2.497 5.361 2 5.86 2 6.472v1.222c0 .434.249.81.611.993v3.59c0 .952.771 1.723 1.722 1.723H7.5V7.806H3.111A.11.11 0 0 1 3 7.694V6.473c0-.061.05-.11.111-.11H7.5v1.441h1V6.361h4.389c.061 0 .111.05.111.111v1.222c0 .062-.05.112-.111.112H8.5V14h3.167c.95 0 1.722-.771 1.722-1.722V8.687c.362-.183.611-.559.611-.992V6.472c0-.613-.498-1.11-1.111-1.11h-1.33c.085-.458-.052-.979-.455-1.382q-.418-.417-.867-.52m-3.28 1.9H5.553c-.016 0-.09-.008-.127-.155-.081-.328.25-.7.559-.771a.26.26 0 0 1 .173.015c.057.025.11.066.153.11l.073.087zm.27-1.264c-.065-.24-.083-.525-.005-.73a.46.46 0 0 1 .194-.24C7.519 3.063 7.697 3 8 3c.446 0 .616.169.698.335.096.191.12.474.061.776l-.76.95zM9.04 5.36l.573-.715.073-.088a.5.5 0 0 1 .153-.109.26.26 0 0 1 .173-.015c.309.071.64.443.559.771-.037.147-.11.156-.127.156z" clip-rule="evenodd"/></svg>