<svg xmlns="http://www.w3.org/2000/svg" width="32" height="32" fill="none" class="persona-icon" viewBox="0 0 32 32"><path fill="currentColor" fill-rule="evenodd" d="M17 12.722v2.884h-2v-2.884H6.222c-.123 0-.222.1-.222.223v2.444c0 .123.1.222.222.222H15v12.39H8.667a3.445 3.445 0 0 1-3.445-3.445v-7.182A2.22 2.22 0 0 1 4 15.39v-2.444c0-1.228.995-2.223 2.222-2.223h2.653c-.168-.913.105-1.955.912-2.762q.833-.833 1.733-1.041a2.5 2.5 0 0 1 .85-.052c.034-.283.099-.569.205-.847a2.92 2.92 0 0 1 1.204-1.469c.598-.37 1.343-.551 2.22-.551 1.552 0 2.64.681 3.187 1.775.175.351.285.725.343 1.103.29-.042.608-.037.945.04q.9.208 1.733 1.042c.807.807 1.08 1.849.912 2.762h2.659c1.227 0 2.222.995 2.222 2.223v2.444c0 .867-.497 1.619-1.222 1.985v7.182A3.444 3.444 0 0 1 23.333 28H17V15.611h8.778c.123 0 .222-.1.222-.222v-2.444c0-.123-.1-.223-.222-.223zm-2.544-4.53L16 10.122l1.519-1.9c.116-.604.07-1.17-.122-1.553C17.231 6.337 16.893 6 16 6c-.61 0-.964.125-1.167.25a.92.92 0 0 0-.389.48c-.156.412-.12.983.012 1.461m3.625 2.53h2.808c.032 0 .179-.018.252-.312.164-.655-.499-1.4-1.116-1.542a.53.53 0 0 0-.346.03 1 1 0 0 0-.308.218l-.146.176zm-4.168 0-1.144-1.43-.146-.176a1 1 0 0 0-.308-.217.53.53 0 0 0-.345-.031c-.618.142-1.28.887-1.117 1.542.074.294.22.312.252.312z" clip-rule="evenodd"/></svg>