<svg xmlns="http://www.w3.org/2000/svg" width="40" height="40" fill="none" class="persona-ilustration" viewBox="0 0 40 40"><g clip-path="url(#bsc8vupxFBVBZELVXjJy-J82P2RngsZtbsRwimdrwws_a)"><path fill="#FFA400" d="M11.727 18.625c-.405.742-1.219 4.204-1.219 4.204l4.846-1.086-2.445-3.261s-.777-.599-1.182.143M28.273 18.628c.405.739 1.219 4.2 1.219 4.2v.004l-4.846-1.082 2.444-3.261s.778-.599 1.183.14"/><path fill="#FFC509" d="m33.491 29.692.003-.007zM33.494 29.685c.097-.21 2.276-5.021 2.276-12.906a77 77 0 0 1-.838-.478l.003-.002s-.08-.044-.003.002l-3.806 2.74s-4.523 3.795-5.655.398a84 84 0 0 1-.445-1.394c-1.038-3.32-2.343-7.494-5.024-7.494h-.004c-2.68 0-3.986 4.173-5.025 7.494-.152.488-.3.958-.444 1.394-.294.883-.818 1.28-1.432 1.384-1.746.291-4.22-1.786-4.22-1.786L5.073 16.3c.06-.035.013-.011-.003-.002v-.001l-.84.48v.003c0 7.885 2.18 12.696 2.276 12.906h.002l.002.003v-.003z"/><path fill="#FFC509" d="M17.948 8.418a2.205 2.205 0 1 0 4.105 1.609 2.205 2.205 0 0 0-4.105-1.609M34.491 16.833a2.205 2.205 0 1 1 1.611-4.104 2.205 2.205 0 0 1-1.61 4.104M3.9 16.837a2.205 2.205 0 1 1 1.61-4.105 2.205 2.205 0 0 1-1.61 4.105"/><path fill="#FFA400" d="M9.892 16.618a2.205 2.205 0 1 0 4.105 1.608 2.205 2.205 0 0 0-4.105-1.608M26.001 16.618a2.204 2.204 0 1 0 4.105 1.608 2.204 2.204 0 0 0-4.105-1.608"/><path fill="#FF9300" d="M22.202 30.763c5.089 0 8.716-2.275 11.067-3.45-2.387-1.133-8.637-2.416-13.608-2.416-5.093 0-10.927 1.562-13.274 2.738 2.387 1.129 8.07 3.533 13.041 3.533z"/><path fill="#FF9300" d="M6.351 29.097c0 2.146 6.11 3.885 13.65 3.885 6.394 0 11.76-1.251 13.246-2.939v-.007c.266-.301.405-.613.405-.94v-.042c-.007-.28-.121-.548-.333-.81a1 1 0 0 1-.068.086v.007c-1.49 1.688-6.856 2.939-13.25 2.939-6.393 0-11.955-1.298-13.32-3.032-.215.276-.33.559-.33.853"/><path fill="#F18513" d="M6.348 28.896c1.369 1.735 6.809 3.032 13.32 3.032s11.759-1.25 13.246-2.939v-.007c.247-.287.488-.587.51-.616-.323-.409-.445-.642-1.184-.99-2.35 1.176-7.486 2.764-12.575 2.764-4.97 0-10.504-.993-12.407-2.44-.552.29-.86.981-.907 1.196z"/><path fill="#FFA400" fill-rule="evenodd" d="M19.998 21.574v.004c-6.944 0-12.848 1.445-15.02 3.47-.046.07-.537.87-.079 1.537.254.366.569.67.81.875l-.01.01-.004.007c-.06.102-.493.838-.068 1.455.413.598 1.006 1.016 1.112 1.089l.01.011h.007l-.017-.011c-.255-.301-.391-.606-.391-.928v-.043c.082-2.125 6.16-3.842 13.65-3.842s13.568 1.717 13.65 3.842v.043c0 .326-.139.638-.404.94v.006s.666-.448 1.125-1.107c.437-.634-.032-1.394-.075-1.462l-.01-.009c.243-.205.563-.512.82-.884.459-.666-.032-1.465-.08-1.537-2.167-2.021-8.073-3.47-15.015-3.47zm14.18 5.792a1.3 1.3 0 0 0 .162-.617v-.046c-.09-2.233-6.474-4.035-14.339-4.036-7.87 0-14.256 1.803-14.342 4.04v.046q.001.314.16.61c2.154-1.872 7.69-3.197 14.176-3.194h.003c6.49 0 12.028 1.327 14.18 3.197" clip-rule="evenodd"/><path fill="#EA4F4A" d="M3.33 21.216c-.312-1.423.097-2.724.918-2.903.82-.18 1.738.828 2.05 2.25.311 1.424-.097 2.724-.918 2.904-.82.179-1.738-.828-2.05-2.251"/><path fill="#DB4747" d="M3.915 22.623c.415.612.959.954 1.465.843.821-.179 1.23-1.48.918-2.903a4.5 4.5 0 0 0-.213-.698c.191 1.502-.293 2.791-1.179 2.985-.328.071-.669-.016-.991-.227"/><path fill="#EA4F4A" d="M36.76 21.216c.312-1.423-.097-2.724-.918-2.903-.82-.18-1.738.828-2.05 2.25-.312 1.424.097 2.724.918 2.904.82.179 1.738-.828 2.05-2.251"/><path fill="#DB4747" d="M36.175 22.623c-.415.612-.959.954-1.465.843-.821-.179-1.23-1.48-.918-2.903q.082-.37.213-.698c-.191 1.502.292 2.791 1.179 2.985.328.071.669-.016.991-.227"/><path fill="#EA4F4A" d="M18.257 17.252c0-1.584.785-2.867 1.749-2.867.967 0 1.749 1.283 1.749 2.867s-.785 2.867-1.75 2.867c-.967 0-1.748-1.283-1.748-2.867"/><path fill="#DB4747" d="M18.293 16.674q-.036.28-.036.578c0 1.584.781 2.867 1.749 2.867.964 0 1.749-1.283 1.749-2.867a5 5 0 0 0-.036-.58c-.164 1.307-.87 2.289-1.713 2.289-.846 0-1.55-.982-1.713-2.287"/></g><defs><clipPath id="bsc8vupxFBVBZELVXjJy-J82P2RngsZtbsRwimdrwws_a"><path fill="#fff" d="M0 0h40v40H0z"/></clipPath></defs></svg>