<svg xmlns="http://www.w3.org/2000/svg" width="80" height="80" fill="none" class="persona-ilustration" viewBox="0 0 80 80"><g clip-path="url(#MUVviD416R_a)"><path fill="#FAA31A" d="M23.454 37.25c-.81 1.483-2.437 8.407-2.437 8.407l9.69-2.171-4.888-6.523s-1.555-1.197-2.365.287M56.546 37.257c.81 1.476 2.437 8.4 2.437 8.4v.007l-9.69-2.164 4.888-6.523s1.555-1.197 2.365.28"/><path fill="#FFC612" d="m66.982 59.383.007-.014zM66.989 59.369c.193-.42 4.552-10.042 4.552-25.81-1.104-.625-1.53-.87-1.677-.957l.007-.004s-.163-.088-.007.004l-7.613 5.479s-9.045 7.59-11.31.796c-.29-.871-.583-1.81-.888-2.787-2.078-6.642-4.688-14.989-10.05-14.989h-.007c-5.361 0-7.972 8.347-10.049 14.99-.305.975-.6 1.915-.888 2.786-.59 1.767-1.637 2.56-2.865 2.769-3.493.582-8.439-3.572-8.439-3.572l-7.61-5.477c.117-.07.026-.022-.006-.004l-.003-.002-1.677.96v.007c0 15.769 4.358 25.39 4.552 25.81h.003l.004.008v-.007z"/><path fill="#FFC612" d="M35.896 16.837a4.41 4.41 0 0 0 2.495 5.712 4.41 4.41 0 0 0 5.712-2.494 4.41 4.41 0 0 0-2.494-5.713 4.41 4.41 0 0 0-5.713 2.495M68.982 33.666a4.41 4.41 0 0 1-2.494-5.712 4.41 4.41 0 0 1 5.712-2.495 4.41 4.41 0 0 1 2.495 5.713 4.41 4.41 0 0 1-5.713 2.494M7.8 33.673a4.41 4.41 0 0 1-2.495-5.713 4.41 4.41 0 0 1 5.713-2.494 4.41 4.41 0 0 1 2.494 5.713A4.41 4.41 0 0 1 7.8 33.673"/><path fill="#FAA31A" d="M19.784 33.236a4.41 4.41 0 0 0 2.494 5.713 4.41 4.41 0 0 0 5.713-2.495 4.41 4.41 0 0 0-2.495-5.712 4.41 4.41 0 0 0-5.712 2.494M52.002 33.236a4.41 4.41 0 0 0 2.494 5.713 4.41 4.41 0 0 0 5.713-2.495 4.41 4.41 0 0 0-2.494-5.712 4.41 4.41 0 0 0-5.713 2.494"/><path fill="#F78C22" d="M44.404 61.527c10.178 0 17.432-4.552 22.134-6.903-4.774-2.265-17.274-4.83-27.215-4.83-10.186 0-21.854 3.124-26.55 5.475 4.775 2.258 16.142 7.068 26.084 7.068z"/><path fill="#F78C22" d="M12.702 58.193c0 4.294 12.22 7.77 27.301 7.77 12.787 0 23.517-2.501 26.492-5.877v-.015c.53-.602.81-1.225.81-1.878v-.086c-.015-.559-.244-1.096-.667-1.62a3 3 0 0 1-.136.173v.014C63.52 60.05 52.79 62.55 40.003 62.55s-23.91-2.594-26.641-6.064c-.43.552-.66 1.119-.66 1.706"/><path fill="#F08521" d="M12.695 57.792c2.738 3.47 13.619 6.064 26.642 6.064s23.517-2.501 26.492-5.877v-.015c.494-.573.974-1.175 1.017-1.233-.645-.817-.889-1.283-2.365-1.978-4.702 2.351-14.973 5.526-25.151 5.526-9.941 0-21.008-1.985-24.814-4.88-1.104.58-1.72 1.963-1.813 2.393z"/><path fill="#FAA31A" fill-rule="evenodd" d="M39.996 43.148v.008c-13.888 0-25.697 2.889-30.04 6.938-.093.143-1.075 1.742-.157 3.075.506.733 1.136 1.34 1.619 1.751l-.02.019-.008.014c-.12.204-.986 1.676-.136 2.91.826 1.196 2.011 2.033 2.225 2.178l.019.023h.014l-.033-.023c-.511-.602-.784-1.211-.784-1.855V58.1c.165-4.25 12.321-7.684 27.301-7.684S67.133 53.85 67.297 58.1v.086c0 .652-.28 1.276-.81 1.878v.014s1.334-.896 2.251-2.215c.875-1.268-.064-2.788-.15-2.924l-.019-.017c.485-.41 1.125-1.025 1.638-1.768.918-1.333-.064-2.931-.157-3.075-4.337-4.042-16.149-6.938-30.032-6.938zm28.36 11.583c.214-.4.325-.81.325-1.233v-.093c-.18-4.465-12.948-8.07-28.678-8.07-15.74 0-28.513 3.605-28.685 8.077v.094c0 .418.11.823.318 1.218 4.31-3.743 15.383-6.393 28.353-6.386h.007c12.978 0 24.056 2.653 28.36 6.393" clip-rule="evenodd"/><path fill="#E9504A" d="M6.66 42.432c-.623-2.846.194-5.448 1.835-5.806 1.642-.359 3.477 1.656 4.1 4.501.624 2.845-.194 5.447-1.835 5.806-1.641.358-3.476-1.656-4.1-4.501"/><path fill="#DB4747" d="M7.83 45.246c.83 1.225 1.917 1.908 2.93 1.687 1.642-.359 2.459-2.96 1.835-5.806a9 9 0 0 0-.426-1.397c.383 3.004-.585 5.582-2.357 5.97-.656.142-1.338-.032-1.982-.454"/><path fill="#E9504A" d="M73.52 42.432c.623-2.846-.194-5.448-1.835-5.806-1.641-.359-3.476 1.656-4.1 4.501s.194 5.447 1.835 5.806c1.641.358 3.476-1.656 4.1-4.501"/><path fill="#DB4747" d="M72.35 45.246c-.83 1.225-1.917 1.908-2.93 1.687-1.641-.359-2.458-2.96-1.835-5.806.108-.493.253-.961.426-1.397-.382 3.004.585 5.582 2.358 5.97.656.142 1.337-.032 1.982-.454"/><path fill="#E9504A" d="M36.513 34.504c0-3.168 1.57-5.734 3.498-5.734 1.935 0 3.498 2.566 3.498 5.734s-1.57 5.734-3.498 5.734c-1.935 0-3.498-2.566-3.498-5.734"/><path fill="#DB4747" d="M36.585 33.347q-.071.562-.072 1.157c0 3.169 1.563 5.735 3.498 5.735 1.928 0 3.498-2.566 3.498-5.734q0-.598-.072-1.16c-.327 2.613-1.74 4.576-3.426 4.576-1.693 0-3.1-1.962-3.426-4.574"/></g><defs><clipPath id="MUVviD416R_a"><path fill="#fff" d="M0 0h80v80H0z"/></clipPath></defs></svg>