<svg xmlns="http://www.w3.org/2000/svg" width="240" height="240" fill="none" class="persona-ilustration" viewBox="0 0 240 240"><g clip-path="url(#9Sset2ix3o_a)"><g clip-path="url(#9Sset2ix3o_b)"><rect width="200" height="200" x="20" y="20" fill="#D3EDFF" rx="100"/><mask id="9Sset2ix3o_c" width="116" height="38" x="61" y="92" maskUnits="userSpaceOnUse" style="mask-type:alpha"><path fill="#EA4F4A" d="M78.078 99.73c-14.119 5.7-16.828 21.971-16.417 29.393h115.22c.41-7.422-2.298-23.693-16.417-29.393-22.551-9.105-59.835-9.105-82.386 0"/></mask><g mask="url(#9Sset2ix3o_c)"><path fill="#EA4F4A" d="M78.078 99.73c-14.119 5.7-16.828 21.971-16.417 29.394h115.22c.41-7.423-2.298-23.694-16.417-29.394-22.551-9.105-59.835-9.105-82.386 0"/><path fill="#DB4747" d="M72.015 110.285c-16.197 5.504-19.304 21.215-18.833 28.383H185.36c.471-7.168-2.636-22.879-18.833-28.383-26.722-9.082-67.791-9.082-94.513 0"/><path fill="#FFB700" fill-rule="evenodd" d="M71.406 111.947c28.333-7.805 67.396-7.805 95.729 0 17.083 4.706 20.416 18.185 19.911 24.413l-.044.54H51.539l-.044-.54c-.504-6.228 2.828-19.707 19.911-24.413m95.417 1.132c-28.128-7.748-66.976-7.748-95.105 0-15.933 4.39-19.324 16.63-19.084 22.646h133.273c.24-6.016-3.151-18.256-19.084-22.646" clip-rule="evenodd"/><path fill="#FFC509" d="M52.08 140.488c-.486-6.01 2.728-19.184 19.482-23.8 28.23-7.777 67.186-7.777 95.417 0 16.754 4.616 19.968 17.79 19.481 23.8z"/><path fill="#FFB700" fill-rule="evenodd" d="M166.823 117.254c-28.128-7.748-66.976-7.748-95.105 0-15.933 4.39-19.324 16.63-19.084 22.646h133.273c.24-6.016-3.151-18.256-19.084-22.646m-95.417-1.132c28.333-7.805 67.396-7.805 95.729 0 17.083 4.706 20.416 18.185 19.911 24.413l-.044.54H51.539l-.044-.54c-.504-6.228 2.828-19.707 19.911-24.413" clip-rule="evenodd"/><path fill="#FFA400" d="M113.152 115.929a1.761 1.761 0 1 1-3.522.076 1.761 1.761 0 0 1 3.522-.076M103.761 118.403a1.76 1.76 0 1 0-.078-3.52 1.76 1.76 0 0 0 .078 3.52M97.813 117.286a1.76 1.76 0 1 1-3.52.077 1.76 1.76 0 0 1 3.52-.077M88.427 119.99a1.76 1.76 0 1 0-.076-3.52 1.76 1.76 0 0 0 .076 3.52M82.49 119.381a1.762 1.762 0 1 1-3.522.076 1.762 1.762 0 0 1 3.522-.076M73.126 123.107a1.76 1.76 0 1 0-.075-3.52 1.76 1.76 0 0 0 .075 3.52M65.75 125.79a1.762 1.762 0 1 0-.078-3.522 1.762 1.762 0 0 0 .079 3.522M119.111 117.56a1.76 1.76 0 1 0-.078-3.52 1.76 1.76 0 0 0 .078 3.52M124.989 115.881a1.761 1.761 0 1 0 3.522.046 1.761 1.761 0 0 0-3.522-.046M134.401 118.274a1.76 1.76 0 1 1 .046-3.52 1.76 1.76 0 0 1-.046 3.52M140.339 117.107a1.76 1.76 0 1 0 3.521.046 1.76 1.76 0 1 0-3.521-.046M149.748 119.731a1.761 1.761 0 1 1 .048-3.522 1.761 1.761 0 0 1-.048 3.522M155.679 119.071a1.761 1.761 0 1 0 3.522.046 1.761 1.761 0 0 0-3.522-.046M165.074 122.717a1.76 1.76 0 1 1 .046-3.52 1.76 1.76 0 0 1-.046 3.52M172.473 125.337a1.76 1.76 0 1 1 .046-3.52 1.76 1.76 0 0 1-.046 3.52"/><path fill="#FFA400" d="M119.044 117.563a1.761 1.761 0 1 1 .048-3.522 1.761 1.761 0 0 1-.048 3.522"/><path fill="#DB4747" d="M76.497 102.63c-4.29-.214 1.787-5.076 5.362-7.48 10.298-1.425 32.734-4.436 40.088-5.077s28.258 3.117 37.79 5.077c1.873 3.206 6.375 9.232 1.788 7.48-4.098-1.564-21.966-4.307-41.588-4.307-29.894 0-38.078 2.37-43.44 4.307"/></g><path fill="#AADBFF" d="M197.632 137.113c0 10.568-34.757 19.136-77.632 19.136s-77.631-8.568-77.631-19.136c0-10.569 34.756-19.136 77.631-19.136s77.632 8.567 77.632 19.136"/><path fill="#AADBFF" d="M42.4 136.825h155.232v19.304H42.4z"/><path fill="#82C2F1" d="M197.632 156.25c0 10.568-34.757 19.136-77.632 19.136s-77.631-8.568-77.631-19.136c0-10.569 34.756-19.137 77.631-19.137s77.632 8.568 77.632 19.137"/><path fill="#AADBFF" d="M167.629 160.314c0-1.007-1.232-2.004-3.625-2.935-2.394-.93-5.902-1.775-10.325-2.487s-9.673-1.277-15.452-1.662a276 276 0 0 0-18.227-.584c-6.255 0-12.448.198-18.227.584-5.778.385-11.029.95-15.452 1.662-4.422.712-7.93 1.557-10.324 2.487s-3.626 1.928-3.626 2.935z"/><path fill="#AADBFF" d="M167.698 160.307c-11.83 6.055-28.048 28.885-28.048 71.761 0 36.892 8.772 47.815 11.221 49.215h.628c0 .204-.231.228-.628 0H120V160.307zM72.302 160.307c11.83 6.055 28.048 28.885 28.048 71.761 0 36.892-8.772 47.815-11.221 49.215h-.628c0 .204.23.228.628 0H120V160.307zM44.901 148.412c0 6.615-5.363 11.978-11.978 11.978s-11.978-5.363-11.978-11.978c0-6.616 5.363-11.978 11.978-11.978S44.9 141.796 44.9 148.412"/><path fill="#4793CC" d="M44.901 148.412c0 6.615-5.363 11.978-11.978 11.978s-11.978-5.363-11.978-11.978c0-6.616 5.363-11.978 11.978-11.978S44.9 141.796 44.9 148.412" opacity=".75"/><path fill="#4793CC" d="M38.194 157.166c0 .861-2.36 1.559-5.271 1.559s-5.271-.698-5.271-1.559 2.36-1.559 5.27-1.559c2.912 0 5.272.698 5.272 1.559"/><path fill="#4793CC" d="M27.652 157.154h10.542V240H27.652z"/><path fill="#AADBFF" d="M219.055 148.412c0 6.615-5.362 11.978-11.978 11.978s-11.978-5.363-11.978-11.978c0-6.616 5.363-11.978 11.978-11.978 6.616 0 11.978 5.362 11.978 11.978"/><path fill="#4793CC" d="M219.055 148.412c0 6.615-5.362 11.978-11.978 11.978s-11.978-5.363-11.978-11.978c0-6.616 5.363-11.978 11.978-11.978 6.616 0 11.978 5.362 11.978 11.978" opacity=".75"/><path fill="#4793CC" d="M212.348 157.166c0 .861-2.36 1.559-5.271 1.559s-5.271-.698-5.271-1.559 2.36-1.559 5.271-1.559 5.271.698 5.271 1.559"/><path fill="#4793CC" d="M201.806 157.154h10.542V240h-10.542z"/><path fill="#82C2F1" fill-rule="evenodd" d="M120.332 149.223a2 2 0 0 1 2.793.445c1.04 1.434 2.144 3.016 3.314 4.692 4.08 5.847 8.966 12.847 14.745 18.756 7.442 7.609 15.887 12.892 25.349 11.736 19.051-2.329 29.735-14.275 36.191-22.762a2 2 0 1 1 3.183 2.422c-6.646 8.737-18.191 21.78-38.889 24.31-11.361 1.389-20.988-5.031-28.693-12.909-6.038-6.174-11.191-13.56-15.284-19.428a318 318 0 0 0-3.154-4.469 2 2 0 0 1 .445-2.793" clip-rule="evenodd"/><path fill="#82C2F1" fill-rule="evenodd" d="M119.668 149.223a2 2 0 0 1 .445 2.793 309 309 0 0 0-3.154 4.469c-4.093 5.868-9.246 13.254-15.284 19.428-7.705 7.878-17.332 14.298-28.693 12.909-20.698-2.53-32.243-15.573-38.89-24.31a2 2 0 0 1 3.184-2.422c6.456 8.487 17.14 20.433 36.191 22.762 9.462 1.156 17.907-4.127 25.348-11.736 5.78-5.909 10.665-12.909 14.746-18.756 1.17-1.676 2.274-3.258 3.314-4.692a2 2 0 0 1 2.793-.445" clip-rule="evenodd"/><path fill="#AADBFF" d="M131.978 135.224c0 6.616-5.363 11.978-11.978 11.978s-11.978-5.362-11.978-11.978 5.363-11.978 11.978-11.978 11.978 5.363 11.978 11.978"/><path fill="#4793CC" d="M131.978 135.224c0 6.616-5.363 11.978-11.978 11.978s-11.978-5.362-11.978-11.978 5.363-11.978 11.978-11.978 11.978 5.363 11.978 11.978" opacity=".75"/><path fill="#4793CC" d="M125.271 143.978c0 .861-2.36 1.559-5.271 1.559s-5.271-.698-5.271-1.559 2.36-1.559 5.271-1.559 5.271.698 5.271 1.559"/><path fill="#4793CC" d="M114.729 143.966h10.542v82.846h-10.542z"/></g><path fill="#FAA31A" d="M92.886 42.12c-1.327 2.43-3.993 13.776-3.993 13.776l15.879-3.559-8.01-10.687s-2.549-1.962-3.876.47M147.113 42.131c1.328 2.42 3.994 13.765 3.994 13.765v.012l-15.88-3.547 8.011-10.688s2.548-1.962 3.875.458"/><path fill="#FFC612" d="M68.316 36.058c0 26.426 7.47 42.317 7.47 42.317v-.012h88.439l-.011.024.012-.024h-.001c.317-.688 7.459-16.455 7.459-42.293a252 252 0 0 1-2.747-1.567l.01-.007s-.266-.144-.01.007l-12.475 8.978s-14.822 12.438-18.533 1.303a276 276 0 0 1-1.456-4.565c-3.404-10.885-7.681-24.562-16.467-24.562-8.765 0-13.041 13.644-16.451 24.521a263 263 0 0 1-1.472 4.607c-3.711 11.134-18.533-1.316-18.533-1.316l-12.474-8.977c.247-.146-.011-.008-.011-.008l.01.008c-.236.14-.933.539-2.759 1.566"/><path fill="#FFC612" d="M113.276 8.67a7.224 7.224 0 0 0 4.087 9.36 7.226 7.226 0 0 0 9.361-4.087 7.225 7.225 0 0 0-4.088-9.36 7.224 7.224 0 0 0-9.36 4.087M167.491 36.246a7.224 7.224 0 0 1-4.087-9.36 7.224 7.224 0 0 1 9.36-4.088 7.225 7.225 0 0 1 4.088 9.361 7.226 7.226 0 0 1-9.361 4.087M67.235 36.258a7.225 7.225 0 0 1-4.087-9.361 7.225 7.225 0 0 1 9.36-4.087 7.225 7.225 0 0 1 4.088 9.36 7.225 7.225 0 0 1-9.36 4.088"/><path fill="#FAA31A" d="M86.873 35.542a7.225 7.225 0 0 0 4.087 9.36 7.225 7.225 0 0 0 9.361-4.087 7.224 7.224 0 0 0-4.087-9.36 7.225 7.225 0 0 0-9.36 4.087M139.667 35.542a7.225 7.225 0 0 0 4.088 9.36 7.224 7.224 0 0 0 9.36-4.087 7.224 7.224 0 0 0-4.087-9.36 7.226 7.226 0 0 0-9.361 4.087"/><path fill="#F78C22" d="M127.217 81.899c16.678 0 28.563-7.458 36.268-11.31-7.822-3.712-28.305-7.917-44.595-7.917-16.69 0-35.81 5.121-43.504 8.974 7.822 3.7 26.45 11.58 42.74 11.58z"/><path fill="#F78C22" d="M75.269 76.437c0 7.035 20.025 12.732 44.737 12.732 20.953 0 38.535-4.1 43.409-9.631v-.024c.869-.986 1.327-2.008 1.327-3.077v-.14c-.023-.917-.399-1.798-1.092-2.655-.071.094-.141.188-.223.282v.023c-4.886 5.532-22.468 9.631-43.421 9.631s-39.182-4.252-43.656-9.936c-.705.904-1.081 1.832-1.081 2.795"/><path fill="#F08521" d="M75.258 75.78c4.486 5.684 22.315 9.936 43.656 9.936s38.535-4.1 43.409-9.631v-.024a62 62 0 0 0 1.668-2.02c-1.057-1.339-1.456-2.102-3.876-3.241-7.705 3.852-24.535 9.055-41.213 9.055-16.29 0-34.424-3.253-40.661-7.998-1.809.951-2.819 3.218-2.971 3.922z"/><path fill="#FAA31A" fill-rule="evenodd" d="M119.994 51.797v-.012l.035-.011c22.75 0 42.106 4.745 49.212 11.369.152.235 1.762 2.854.258 5.038-.841 1.218-1.89 2.224-2.684 2.897l.03.028c.141.223 1.679 2.713.246 4.792-1.503 2.16-3.687 3.629-3.687 3.629v-.023c.869-.987 1.327-2.009 1.327-3.078v-.14c-.27-6.965-20.19-12.591-44.737-12.591s-44.466 5.626-44.736 12.59v.141c0 1.056.447 2.054 1.284 3.04-.35-.238-2.292-1.608-3.645-3.568-1.394-2.023.024-4.434.221-4.769l.014-.023.033-.031c-.79-.673-1.823-1.669-2.653-2.87-1.503-2.185.106-4.804.258-5.039 7.117-6.635 26.467-11.367 49.224-11.369m0 3.57c-25.787.002-46.71 5.91-46.992 13.237v.153c0 .685.178 1.35.521 1.997 7.063-6.134 25.206-10.477 46.46-10.465h.011c21.267 0 39.419 4.348 46.473 10.477.348-.655.53-1.327.53-2.02v-.153c-.293-7.318-21.223-13.226-47.003-13.226" clip-rule="evenodd"/><path fill="#FAA31A" d="m76.542 79.467.055.037h-.024z"/><path fill="#E9504A" d="M65.369 50.61c-1.022-4.662.317-8.925 3.006-9.513 2.69-.587 5.697 2.713 6.718 7.376 1.022 4.663-.317 8.926-3.006 9.514-2.69.587-5.697-2.714-6.718-7.376"/><path fill="#DB4747" d="M67.284 55.223c1.36 2.007 3.142 3.127 4.803 2.764 2.69-.587 4.028-4.85 3.007-9.513a14.7 14.7 0 0 0-.698-2.289c.626 4.921-.959 9.146-3.864 9.78-1.074.235-2.191-.05-3.248-.742"/><path fill="#E9504A" d="M174.926 50.61c1.022-4.662-.317-8.925-3.007-9.513s-5.696 2.713-6.718 7.376.317 8.926 3.007 9.514 5.696-2.714 6.718-7.376"/><path fill="#DB4747" d="M173.01 55.223c-1.36 2.007-3.142 3.127-4.802 2.764-2.69-.587-4.029-4.85-3.007-9.513a14.7 14.7 0 0 1 .698-2.289c-.627 4.921.959 9.146 3.863 9.78 1.075.235 2.192-.05 3.248-.742"/><path fill="#E9504A" d="M114.286 37.62c0-5.19 2.572-9.395 5.732-9.395 3.171 0 5.731 4.204 5.731 9.396 0 5.19-2.572 9.395-5.731 9.395-3.171 0-5.732-4.204-5.732-9.395"/><path fill="#DB4747" d="M114.403 35.725a15 15 0 0 0-.117 1.897c0 5.19 2.561 9.396 5.732 9.396 3.159 0 5.731-4.205 5.731-9.396q0-.978-.117-1.9c-.536 4.28-2.85 7.499-5.614 7.499-2.774 0-5.08-3.216-5.615-7.496"/><path fill="#FFC79D" fill-rule="evenodd" d="M143.167 20.057a8.17 8.17 0 0 0 8.168-8.168 8.17 8.17 0 0 0 8.168 8.168 8.17 8.17 0 0 0-8.168 8.168 8.17 8.17 0 0 0-8.168-8.168M44.901 62.183c5.558 0 10.063-4.505 10.063-10.063 0 5.558 4.505 10.063 10.062 10.063-5.557 0-10.062 4.505-10.062 10.062 0-5.557-4.505-10.062-10.063-10.062M167.29 83.705c5.557 0 10.062-4.505 10.062-10.062 0 5.557 4.505 10.062 10.062 10.062-5.557 0-10.062 4.505-10.062 10.063 0-5.558-4.505-10.063-10.062-10.063" clip-rule="evenodd"/></g><defs><clipPath id="9Sset2ix3o_a"><path fill="#fff" d="M0 0h240v240H0z"/></clipPath><clipPath id="9Sset2ix3o_b"><rect width="200" height="200" x="20" y="20" fill="#fff" rx="100"/></clipPath></defs></svg>