<svg xmlns="http://www.w3.org/2000/svg" width="16" height="16" fill="none" class="persona-icon"><path fill="currentColor" d="M5.29 2.872C5.29 1.838 6.159 1 7.23 1h.879c.388 0 .76.15 1.035.414l2.437 2.353c.274.266.429.626.429 1v2.221c0 1.034-.868 1.872-1.939 1.872H7.23c-1.07 0-1.938-.838-1.938-1.872V2.872ZM7.23 2c-.499 0-.903.39-.903.872v4.116c0 .482.404.872.903.872h2.841c.499 0 .903-.39.903-.872v-2.22a.408.408 0 0 0-.126-.293L8.412 2.121A.437.437 0 0 0 8.108 2h-.88Z"/><path fill="currentColor" d="M7.982 1.831c0-.567.711-.852 1.127-.45l2.506 2.42c.415.401.121 1.088-.467 1.088h-1.7c-.81 0-1.466-.634-1.466-1.415V1.831Zm1.036.876v.767c0 .23.192.415.43.415h.793L9.018 2.707ZM6.487 13.056c0-1.074.901-1.945 2.013-1.945 1.112 0 2.013.87 2.013 1.945C10.513 14.129 9.612 15 8.5 15c-1.112 0-2.013-.87-2.013-1.944ZM8.5 12.11c-.54 0-.978.423-.978.945 0 .521.438.944.978.944s.978-.423.978-.944c0-.522-.438-.945-.978-.945Z"/><path fill="currentColor" d="M2 13.056c0-.277.232-.5.518-.5h4.486a.51.51 0 0 1 .518.5.51.51 0 0 1-.518.5H2.518a.51.51 0 0 1-.518-.5ZM9.478 13.056c0-.277.232-.5.518-.5h4.486a.51.51 0 0 1 .518.5.51.51 0 0 1-.518.5H9.996a.51.51 0 0 1-.518-.5ZM8.5 12.111a.51.51 0 0 1-.518-.5V8.722c0-.276.232-.5.518-.5a.51.51 0 0 1 .518.5v2.89a.51.51 0 0 1-.518.5Z"/></svg>