<svg xmlns="http://www.w3.org/2000/svg" width="16" height="16" fill="none" class="persona-icon" viewBox="0 0 16 16"><path fill="currentColor" fill-rule="evenodd" d="M8.474 2.278q.04.03.078.067l.022.022.006.006 2.02 2.02a1.274 1.274 0 0 1 .345.872v1.879a1.66 1.66 0 0 1-1.662 1.661H8.5v1.824c.549.167.982.6 1.148 1.149H12.5a.5.5 0 1 1 0 1H9.648a1.723 1.723 0 0 1-3.297 0H3.5a.5.5 0 0 1 0-1h2.851c.167-.55.6-.982 1.149-1.149V8.805H6.96a1.66 1.66 0 0 1-1.66-1.661V3.661C5.3 2.744 6.043 2 6.96 2h.718c.29 0 .57.099.794.278M6.96 3a.66.66 0 0 0-.66.661v3.483a.66.66 0 0 0 .66.661h2.322a.66.66 0 0 0 .661-.661v-1.7h-1.17c-.704 0-1.274-.57-1.274-1.274V3zm1.539.707v.463c0 .152.123.274.274.274h.463zM8 11.556A.722.722 0 1 0 8 13a.722.722 0 0 0 0-1.444" clip-rule="evenodd"/></svg>