<svg xmlns="http://www.w3.org/2000/svg" width="20" height="20" fill="none" class="persona-icon" viewBox="0 0 20 20"><path fill="currentColor" fill-rule="evenodd" d="M10.576 3.306a1.53 1.53 0 0 0-.949-.331h-.836a1.976 1.976 0 0 0-1.976 1.976v4.053c0 1.091.885 1.976 1.976 1.976h.584v2.048a2.05 2.05 0 0 0-1.325 1.325H4.6a.625.625 0 1 0 0 1.25h3.45a2.048 2.048 0 0 0 3.9 0h3.45a.625.625 0 1 0 0-1.25h-3.45a2.05 2.05 0 0 0-1.325-1.325V10.98h.868a1.976 1.976 0 0 0 1.976-1.976V6.818a1.53 1.53 0 0 0-.413-1.046l-2.35-2.35-.004-.004-.03-.03a1 1 0 0 0-.096-.082m-1.785.919h.584v1.319c0 .842.683 1.525 1.526 1.525h1.318v1.935a.726.726 0 0 1-.726.726H8.791a.726.726 0 0 1-.726-.726V4.95c0-.401.325-.726.726-.726M10 14.181a.797.797 0 1 1 0 1.594.797.797 0 0 1 0-1.594m.625-9.072.71.71h-.434a.276.276 0 0 1-.276-.275z" clip-rule="evenodd"/></svg>