<svg xmlns="http://www.w3.org/2000/svg" width="24" height="24" fill="none" class="persona-icon" viewBox="0 0 24 24"><path fill="currentColor" fill-rule="evenodd" d="M12.71 3.416A1.9 1.9 0 0 0 11.519 3h-1.077A2.49 2.49 0 0 0 7.95 5.492v5.224a2.49 2.49 0 0 0 2.492 2.492h.808v2.736a2.59 2.59 0 0 0-1.723 1.723H4.75a.75.75 0 0 0 0 1.5h4.777a2.584 2.584 0 0 0 4.946 0h4.777a.75.75 0 1 0 0-1.5h-4.777a2.59 2.59 0 0 0-1.723-1.723v-2.736h1.175a2.49 2.49 0 0 0 2.491-2.492V7.898a1.9 1.9 0 0 0-.516-1.309l-3.072-3.072a1 1 0 0 0-.118-.1M10.442 4.5h.808v1.756c0 1.055.855 1.91 1.911 1.91h1.755v2.55a.99.99 0 0 1-.991.992h-3.483a.99.99 0 0 1-.992-.992V5.492c0-.548.444-.992.992-.992m2.633 13.78a.8.8 0 0 0 0 .272 1.083 1.083 0 0 1-2.15.001.8.8 0 0 0 0-.273 1.084 1.084 0 0 1 2.15 0M12.75 5.56l1.106 1.107h-.695a.41.41 0 0 1-.411-.411z" clip-rule="evenodd"/></svg>