<svg xmlns="http://www.w3.org/2000/svg" width="24" height="24" fill="none" class="persona-icon" viewBox="0 0 24 24"><path fill="currentColor" fill-rule="evenodd" d="M12.71 3.416q.06.045.118.101L15.9 6.589a1.911 1.911 0 0 1 .517 1.308v2.82a2.49 2.49 0 0 1-2.492 2.49H12.75v2.737c.823.25 1.473.9 1.723 1.723h4.777a.75.75 0 0 1 0 1.5h-4.777a2.584 2.584 0 0 1-4.946 0H4.75a.75.75 0 1 1 0-1.5h4.777a2.59 2.59 0 0 1 1.723-1.723v-2.736h-.808a2.49 2.49 0 0 1-2.492-2.492V5.492A2.49 2.49 0 0 1 10.442 3h1.077c.435 0 .854.148 1.19.416M10.442 4.5a.99.99 0 0 0-.992.992v5.224c0 .548.444.992.992.992h3.483a.99.99 0 0 0 .991-.992v-2.55h-1.755a1.91 1.91 0 0 1-1.911-1.91V4.5zm2.633 13.78a1.084 1.084 0 0 0-2.15 0 .8.8 0 0 1 0 .273 1.083 1.083 0 0 0 2.15 0 .8.8 0 0 1 0-.272M12.75 5.56v.696c0 .227.184.41.411.41h.695z" clip-rule="evenodd"/></svg>