<svg xmlns="http://www.w3.org/2000/svg" width="32" height="32" fill="none" class="persona-icon" viewBox="0 0 32 32"><path fill="currentColor" fill-rule="evenodd" d="M16.946 4.555A2.55 2.55 0 0 0 15.36 4h-1.437A3.32 3.32 0 0 0 10.6 7.322v6.966a3.32 3.32 0 0 0 3.322 3.322H15v3.649a3.45 3.45 0 0 0-2.297 2.297H6.5a1 1 0 1 0 0 2h6.203a3.446 3.446 0 0 0 6.594 0H25.5a1 1 0 1 0 0-2h-6.203A3.45 3.45 0 0 0 17 21.259V17.61h1.567a3.32 3.32 0 0 0 3.322-3.322V10.53c0-.578-.197-1.135-.552-1.583a1.3 1.3 0 0 0-.137-.162L17.103 4.69a1.3 1.3 0 0 0-.157-.134M13.922 6H15v2.34a2.55 2.55 0 0 0 2.548 2.549h2.34v3.4c0 .73-.591 1.321-1.322 1.321h-4.644c-.73 0-1.322-.592-1.322-1.322V7.322c0-.73.592-1.322 1.322-1.322M16 23.111a1.444 1.444 0 1 1 0 2.89 1.444 1.444 0 0 1 0-2.89m1-15.697 1.474 1.475h-.926A.55.55 0 0 1 17 8.34z" clip-rule="evenodd"/></svg>