<svg xmlns="http://www.w3.org/2000/svg" width="32" height="32" fill="none" class="persona-icon" viewBox="0 0 32 32"><path fill="currentColor" fill-rule="evenodd" d="M9.33 5.747a3.736 3.736 0 0 1 3.728-3.745h1.69c.747 0 1.463.299 1.992.83l4.685 4.705c.528.53.825 1.25.825 2v4.442a3.736 3.736 0 0 1-3.728 3.744h-5.464A3.736 3.736 0 0 1 9.33 13.98zm3.728-1.745a1.74 1.74 0 0 0-1.737 1.745v8.232a1.74 1.74 0 0 0 1.737 1.744h5.464c.959 0 1.736-.78 1.736-1.744V9.538a.831.831 0 0 0-.241-.587l-4.685-4.706a.824.824 0 0 0-.584-.243z" clip-rule="evenodd"/><path fill="currentColor" fill-rule="evenodd" d="M14.507 3.665c0-1.136 1.366-1.704 2.166-.901l4.819 4.84c.8.803.233 2.176-.897 2.176h-3.271a2.823 2.823 0 0 1-2.817-2.83zm1.99 1.752V6.95c0 .458.37.83.827.83h1.527zM11.63 26.113a3.88 3.88 0 0 1 3.872-3.889 3.88 3.88 0 0 1 3.872 3.89 3.88 3.88 0 0 1-3.872 3.888 3.88 3.88 0 0 1-3.872-3.889m3.872-1.889c-1.038 0-1.88.846-1.88 1.89 0 1.043.842 1.888 1.88 1.888 1.039 0 1.88-.845 1.88-1.889a1.885 1.885 0 0 0-1.88-1.889" clip-rule="evenodd"/><path fill="currentColor" fill-rule="evenodd" d="M3.002 26.113c0-.552.446-1 .996-1h8.628c.55 0 .996.448.996 1 0 .553-.446 1-.996 1H3.998a.998.998 0 0 1-.996-1M17.383 26.113c0-.552.445-1 .995-1h8.629c.55 0 .995.448.995 1 0 .553-.445 1-.995 1h-8.629a.998.998 0 0 1-.995-1M15.502 24.225a.998.998 0 0 1-.995-1v-5.778c0-.552.445-1 .995-1s.996.448.996 1v5.778c0 .552-.446 1-.996 1" clip-rule="evenodd"/></svg>