<svg xmlns="http://www.w3.org/2000/svg" width="20" height="20" fill="none" class="persona-icon" viewBox="0 0 20 20"><path fill="currentColor" fill-rule="evenodd" d="M8.085 12.047c-.976 0-1.902.428-2.536 1.17-.209.245-.324.557-.324.879v.17c0 .834.675 1.51 1.508 1.51h2.58a.625.625 0 1 1 0 1.25h-2.58a2.76 2.76 0 0 1-2.758-2.76v-.17c0-.62.221-1.22.624-1.691a4.58 4.58 0 0 1 3.486-1.608h1.228a.625.625 0 1 1 0 1.25zM6.108 6.444a3.47 3.47 0 1 1 6.94 0 3.47 3.47 0 0 1-6.94 0m3.47-2.219a2.22 2.22 0 1 0 0 4.439 2.22 2.22 0 0 0 0-4.439m.682 9.733a3.885 3.885 0 1 1 7.77 0 3.885 3.885 0 0 1-7.77 0m1.633-1.368a2.635 2.635 0 0 0 3.62 3.62zm.883-.884 3.621 3.62a2.635 2.635 0 0 0-3.62-3.62" clip-rule="evenodd"/></svg>