<svg xmlns="http://www.w3.org/2000/svg" width="20" height="20" fill="none" class="persona-icon" viewBox="0 0 20 20"><path fill="currentColor" fill-rule="evenodd" d="M3.576 13.079a3.74 3.74 0 0 1 2.841-1.31h1.636a.6.6 0 1 0 0-1.2H6.417a4.94 4.94 0 0 0-3.754 1.73A2.77 2.77 0 0 0 2 14.098v.187a2.937 2.937 0 0 0 2.937 2.937h3.116a.6.6 0 0 0 0-1.2H4.937c-.96 0-1.737-.778-1.737-1.737v-.187c0-.373.133-.734.375-1.018M8.053 2a3.716 3.716 0 1 0 0 7.432 3.716 3.716 0 0 0 0-7.432M5.537 5.716a2.516 2.516 0 1 1 5.031 0 2.516 2.516 0 0 1-5.031 0m7.968 3.295a4.495 4.495 0 1 0 0 8.989 4.495 4.495 0 0 0 0-8.99m-2.715 2.628 4.582 4.582a3.295 3.295 0 0 1-4.582-4.582m.849-.849a3.295 3.295 0 0 1 4.582 4.582z" clip-rule="evenodd"/></svg>