<svg xmlns="http://www.w3.org/2000/svg" width="24" height="24" fill="none" class="persona-icon" viewBox="0 0 24 24"><path fill="currentColor" fill-rule="evenodd" d="M9.284 14.584a4.35 4.35 0 0 0-3.311 1.526c-.279.326-.431.741-.431 1.17v.22a2 2 0 0 0 2 2h3.324a.75.75 0 0 1 0 1.5H7.542a3.5 3.5 0 0 1-3.5-3.5v-.22c0-.786.28-1.546.79-2.144a5.85 5.85 0 0 1 4.452-2.052h1.582a.75.75 0 0 1 0 1.5zM6.79 7.417a4.417 4.417 0 1 1 8.834 0 4.417 4.417 0 0 1-8.833 0m5.349 9.633a4.95 4.95 0 1 1 9.9 0 4.95 4.95 0 0 1-9.9 0M11.208 4.5a2.917 2.917 0 1 0 0 5.834 2.917 2.917 0 0 0 0-5.834m2.97 10.699a3.45 3.45 0 0 0 4.763 4.763zm1.06-1.06 4.764 4.762a3.45 3.45 0 0 0-4.763-4.763" clip-rule="evenodd"/></svg>