<svg xmlns="http://www.w3.org/2000/svg" width="32" height="32" fill="none" class="persona-icon" viewBox="0 0 32 32"><path fill="currentColor" fill-rule="evenodd" d="M12.378 19.445a5.8 5.8 0 0 0-4.414 2.035 2.4 2.4 0 0 0-.575 1.56v.293A2.667 2.667 0 0 0 10.055 26h4.433a1 1 0 0 1 0 2h-4.433a4.667 4.667 0 0 1-4.666-4.667v-.293c0-1.048.373-2.061 1.054-2.858a7.8 7.8 0 0 1 5.935-2.737h2.11a1 1 0 1 1 0 2zM9.055 9.889a5.889 5.889 0 1 1 11.778 0 5.889 5.889 0 0 1-11.778 0M14.945 6a3.889 3.889 0 1 0 0 7.778 3.889 3.889 0 0 0 0-7.778m1.241 16.733a6.6 6.6 0 1 1 13.2 0 6.6 6.6 0 0 1-13.2 0m2.718-2.468a4.6 4.6 0 0 0 6.35 6.35zm1.414-1.414 6.351 6.35a4.6 4.6 0 0 0-6.35-6.35" clip-rule="evenodd"/></svg>