<svg xmlns="http://www.w3.org/2000/svg" width="32" height="32" fill="none" class="persona-icon" viewBox="0 0 32 32"><path fill="currentColor" fill-rule="evenodd" d="M10.19 18.895a6.03 6.03 0 0 0-4.587 2.115A2.52 2.52 0 0 0 5 22.644v.303a2.79 2.79 0 0 0 2.79 2.79h5.052a1 1 0 0 1 0 2H7.79A4.79 4.79 0 0 1 3 22.947v-.303c0-1.075.383-2.115 1.081-2.932a8.03 8.03 0 0 1 6.11-2.817h2.651a1 1 0 0 1 0 2zm-3.4-9.842a6.053 6.053 0 1 1 12.105 0 6.053 6.053 0 0 1-12.105 0M12.842 5a4.053 4.053 0 1 0 0 8.105 4.053 4.053 0 0 0 0-8.105m8.842 9.368a7.316 7.316 0 1 0 0 14.632 7.316 7.316 0 0 0 0-14.632M17.285 18.7l7.384 7.384a5.316 5.316 0 0 1-7.384-7.384m1.414-1.414a5.316 5.316 0 0 1 7.384 7.384z" clip-rule="evenodd"/></svg>