<svg xmlns="http://www.w3.org/2000/svg" width="16" height="16" fill="none"><path fill="#000" fill-rule="evenodd" d="M2.854 2.146a.5.5 0 1 0-.708.708l1.906 1.905a4.52 4.52 0 0 0-.17.775L3.29 9.352c-.03.192-.1.375-.208.537l-.998 1.5a.5.5 0 0 0 .416.778h3.22a2.333 2.333 0 0 0 4.56 0h1.18l1.686 1.687a.5.5 0 0 0 .708-.708L5 4.293a.495.495 0 0 0-.016-.016l-2.13-2.13Zm2.032 3.447-.015.094-.593 3.819a2.34 2.34 0 0 1-.363.937l-.482.724h7.027L4.886 5.593Zm4.35 6.574H6.764a1.333 1.333 0 0 0 2.472 0Z" clip-rule="evenodd"/><path fill="#000" d="M8.99 3.147c-1.061-.325-2.272-.109-3.106.619a.5.5 0 1 1-.657-.754c1.116-.974 2.693-1.238 4.055-.822 1.382.423 2.557 1.55 2.835 3.344l.593 3.818c.03.192.1.375.208.537l.795 1.195a.5.5 0 0 1-.832.554l-.796-1.195a2.341 2.341 0 0 1-.363-.937l-.593-3.819c-.215-1.389-1.099-2.222-2.14-2.54Z"/></svg>