<svg xmlns="http://www.w3.org/2000/svg" width="40" height="40" fill="none" class="persona-ilustration" viewBox="0 0 40 40"><g clip-path="url(#P42n9jhIvLMrh_d9iesgmqp9E__ca2t9XxX_oaKnwPs_a)"><path fill="#7AC5E8" d="M16.98 29.38 3.975 31.82h4.678l1.81-.457h8.513l-.624.457h4.49l13.316-2.44z"/><path fill="#FF8D18" d="M31.393 9.238c-.174-.677-.959-1.225-1.76-1.225H10.27l.002.009c.691.067 1.337.525 1.548 1.1l4.902 19.731c.076.304.39.549.701.549h3.762c.313 0 .506-.246.431-.55l-.684-2.788c-.075-.304.118-.55.43-.55h8.592c.313 0 .628.246.702.55l.685 2.788c.075.304.389.55.702.55h3.759c.313 0 .506-.247.43-.55L31.426 9.332a1 1 0 0 0-.032-.095"/><path fill="#FEE283" d="M8.662 9.264c.226-.702.97-1.25 1.727-1.25h19.362l-.002.009c-.743.081-1.433.667-1.588 1.377l-.304 1.387h-.007l-4.576 20.648a.74.74 0 0 1-.688.552h-3.76c-.314 0-.513-.248-.446-.554l.712-3.25c.067-.306-.132-.554-.445-.554h-8.592a.74.74 0 0 0-.687.553l-.713 3.251a.74.74 0 0 1-.688.554H4.208c-.313 0-.512-.248-.445-.554L8.6 9.43a.6.6 0 0 1 .062-.166"/><path fill="#DB4747" fill-rule="evenodd" d="m19.497 12.011 2.183 8.184c.418 1.568-.961 3.53-2.481 3.53h-7.952c-1.52 0-2.039-1.962-.934-3.53l5.77-8.184c1.102-1.564 2.997-1.564 3.414 0m-3.14 6.543c.278 0 .563-.27.636-.601l.843-3.846c.072-.332-.094-.601-.373-.601s-.563.269-.636.6l-.843 3.847c-.073.332.094.6.373.6m.108 2.572c.098-.442-.125-.801-.496-.801-.372 0-.751.359-.848.801-.098.443.125.802.496.802.372 0 .752-.359.848-.802" clip-rule="evenodd"/></g><defs><clipPath id="P42n9jhIvLMrh_d9iesgmqp9E__ca2t9XxX_oaKnwPs_a"><path fill="#fff" d="M0 0h40v40H0z"/></clipPath></defs></svg>