<svg xmlns="http://www.w3.org/2000/svg" width="16" height="16" fill="none" class="persona-icon" viewBox="0 0 16 16"><path fill="currentColor" d="M3.723 2ZM7.695 6.778a.917.917 0 1 0 0-1.833.917.917 0 0 0 0 1.833ZM7.037 9.576a.5.5 0 0 1 0-.707l3.666-3.667a.5.5 0 0 1 .707.707L7.744 9.576a.5.5 0 0 1-.707 0ZM10.75 9.834A.917.917 0 1 0 10.752 8a.917.917 0 0 0 0 1.834Z"/><path fill="currentColor" d="M3.715 2A1.722 1.722 0 0 0 2 3.722V7.39a.5.5 0 0 0 .5.5h1.944V13.5a.5.5 0 0 0 .854.354l1.274-1.275a.722.722 0 0 1 1.022 0l.41.41a1.722 1.722 0 0 0 2.436 0l.41-.41a.722.722 0 0 1 1.021 0l1.275 1.275a.5.5 0 0 0 .854-.354V3.723C14 2.77 13.23 2 12.278 2H3.723m.722 4.889H3.001V3.722a.722.722 0 0 1 1.444 0V6.89ZM5.287 3h6.991c.4 0 .723.324.723.723v8.57l-.421-.421a1.722 1.722 0 0 0-2.436 0l-.41.41a.722.722 0 0 1-1.022 0l-.41-.41a1.722 1.722 0 0 0-2.436 0l-.42.42v-8.57c0-.257-.058-.502-.16-.722Z"/></svg>