<svg xmlns="http://www.w3.org/2000/svg" width="16" height="16" fill="none" class="persona-icon" viewBox="0 0 16 16"><path fill="currentColor" d="M7.695 6.778a.917.917 0 1 1 0-1.833.917.917 0 0 1 0 1.833M7.037 9.576a.5.5 0 0 1 0-.707l3.666-3.667a.5.5 0 0 1 .707.707L7.744 9.576a.5.5 0 0 1-.707 0M10.75 9.834A.917.917 0 1 1 10.752 8a.917.917 0 0 1 0 1.834"/><path fill="currentColor" fill-rule="evenodd" d="M3.723 2h8.555c.952 0 1.723.771 1.723 1.723V13.5a.5.5 0 0 1-.854.354l-1.274-1.275a.72.72 0 0 0-1.022 0l-.41.41a1.72 1.72 0 0 1-2.436 0l-.41-.41a.72.72 0 0 0-1.022 0L5.3 13.854a.5.5 0 0 1-.854-.354V7.889H2.501a.5.5 0 0 1-.5-.5V3.722c0-.948.767-1.717 1.714-1.722m.73 4.889V3.723a.722.722 0 0 0-1.444 0v3.166zM5.287 3c.101.22.158.465.158.723v8.57l.421-.421a1.72 1.72 0 0 1 2.436 0l.41.41a.72.72 0 0 0 1.022 0l.41-.41a1.72 1.72 0 0 1 2.436 0l.42.42v-8.57A.72.72 0 0 0 12.279 3z" clip-rule="evenodd"/></svg>