<svg xmlns="http://www.w3.org/2000/svg" width="24" height="24" fill="none" class="persona-icon" viewBox="0 0 24 24"><path fill="currentColor" d="M11.542 10.167a1.375 1.375 0 1 0 0-2.75 1.375 1.375 0 0 0 0 2.75M10.553 14.364a.75.75 0 0 1 0-1.061l5.5-5.5a.75.75 0 0 1 1.06 1.06l-5.5 5.5a.75.75 0 0 1-1.06 0M16.125 14.75a1.375 1.375 0 1 0 0-2.75 1.375 1.375 0 0 0 0 2.75"/><path fill="currentColor" fill-rule="evenodd" d="M5.582 3A2.583 2.583 0 0 0 3 5.583v5.5c0 .415.336.75.75.75h2.916v8.417a.75.75 0 0 0 1.28.53l1.912-1.912a1.083 1.083 0 0 1 1.533 0l.615.616a2.583 2.583 0 0 0 3.654 0l.615-.616a1.083 1.083 0 0 1 1.532 0l1.912 1.912a.75.75 0 0 0 1.28-.53V5.583A2.583 2.583 0 0 0 18.417 3H5.583zm.001 1.5c.598 0 1.083.485 1.083 1.083v4.75H4.5v-4.75c0-.598.485-1.083 1.083-1.083m2.346 0h10.487c.599 0 1.084.485 1.084 1.083V18.44l-.632-.631a2.583 2.583 0 0 0-3.653 0l-.616.615a1.083 1.083 0 0 1-1.532 0l-.616-.615a2.583 2.583 0 0 0-3.653 0l-.632.631V5.583c0-.386-.085-.753-.237-1.083" clip-rule="evenodd"/></svg>