<svg xmlns="http://www.w3.org/2000/svg" width="24" height="24" fill="none" class="persona-icon" viewBox="0 0 24 24"><path fill="currentColor" d="M11.542 10.167a1.375 1.375 0 1 1 0-2.75 1.375 1.375 0 0 1 0 2.75M10.553 14.364a.75.75 0 0 1 0-1.061l5.5-5.5a.75.75 0 0 1 1.06 1.06l-5.5 5.5a.75.75 0 0 1-1.06 0M16.125 14.75a1.375 1.375 0 1 1 0-2.75 1.375 1.375 0 0 1 0 2.75"/><path fill="currentColor" fill-rule="evenodd" d="M5.582 3h12.834A2.583 2.583 0 0 1 21 5.583V20.25a.75.75 0 0 1-1.28.53l-1.913-1.912a1.083 1.083 0 0 0-1.532 0l-.615.616a2.583 2.583 0 0 1-3.654 0l-.615-.616a1.083 1.083 0 0 0-1.533 0L7.946 20.78a.75.75 0 0 1-1.28-.53v-8.417H3.75a.75.75 0 0 1-.75-.75v-5.5A2.583 2.583 0 0 1 5.582 3m.001 1.5c-.598 0-1.083.485-1.083 1.083v4.75h2.166v-4.75c0-.598-.485-1.083-1.083-1.083m2.346 0c.152.33.237.697.237 1.083V18.44l.632-.631a2.583 2.583 0 0 1 3.653 0l.616.615a1.083 1.083 0 0 0 1.532 0l.615-.615a2.583 2.583 0 0 1 3.654 0l.632.631V5.583c0-.598-.485-1.083-1.084-1.083z" clip-rule="evenodd"/></svg>