<svg xmlns="http://www.w3.org/2000/svg" width="32" height="32" fill="none" class="persona-icon" viewBox="0 0 32 32"><path fill="currentColor" d="M14.07 17.737a1 1 0 0 0 1.415 1.415l7.333-7.334a1 1 0 1 0-1.414-1.414l-7.334 7.333ZM17.222 11.722a1.833 1.833 0 1 1-3.666 0 1.833 1.833 0 0 1 3.666 0ZM21.5 19.667a1.833 1.833 0 1 0 0-3.667 1.833 1.833 0 0 0 0 3.667Z"/><path fill="currentColor" fill-rule="evenodd" d="M4 7.444A3.444 3.444 0 0 1 7.444 4h17.111A3.444 3.444 0 0 1 28 7.444V27a1 1 0 0 1-1.707.707l-2.55-2.55a1.444 1.444 0 0 0-2.042 0l-.821.822a3.444 3.444 0 0 1-4.871 0l-.821-.821a1.444 1.444 0 0 0-2.043 0l-2.55 2.55A1 1 0 0 1 8.89 27V15.778H5a1 1 0 0 1-1-1V7.444Zm4.889 0a1.444 1.444 0 0 0-2.889 0v6.334h2.889V7.444ZM10.572 6c.203.44.317.929.317 1.444v17.142l.842-.842a3.444 3.444 0 0 1 4.871 0l.821.82a1.444 1.444 0 0 0 2.043 0l.82-.82a3.445 3.445 0 0 1 4.872 0l.842.842V7.444C26 6.647 25.353 6 24.555 6H10.572Z" clip-rule="evenodd"/></svg>