<svg xmlns="http://www.w3.org/2000/svg" width="20" height="20" fill="none" class="persona-icon" viewBox="0 0 20 20"><path fill="currentColor" d="M6.393 10.747h-.917v.917h.917zM5.476 12.581h.917v.918h-.917zM8.228 10.747H7.31v.917h.918zM7.31 12.581h.918v.918H7.31z"/><path fill="currentColor" fill-rule="evenodd" d="M3.975 5.371a2.94 2.94 0 0 1 2.94-2.94h3.495c.6 0 1.175.25 1.585.69l3.447 3.693c.375.402.583.93.583 1.48v6.334a2.94 2.94 0 0 1-2.939 2.94h-1.504a.625.625 0 0 1-.602.454H2.724a.625.625 0 0 1 0-1.25h.292v-7.86c0-.345.28-.625.625-.625h.334zm5.463 11.402V9.537H4.266v7.236h1.64v-2.074c0-.156.128-.283.284-.283h1.32c.156 0 .283.127.283.283v2.074zm1.958-12.461v1.83c0 .508.411.919.918.919h1.648z" clip-rule="evenodd"/></svg>