<svg xmlns="http://www.w3.org/2000/svg" width="32" height="32" fill="none" class="persona-icon" viewBox="0 0 32 32"><path fill="currentColor" d="M9.988 17.244v1.529H8.46v-1.529zM8.46 20.302h1.528v1.529H8.46zM13.046 17.244v1.529h-1.529v-1.529zM11.517 20.302h1.53v1.529h-1.53z"/><path fill="currentColor" fill-rule="evenodd" d="M6 8.285a4.857 4.857 0 0 1 4.857-4.857h5.826c.99 0 1.935.41 2.61 1.135l5.747 6.156c.617.661.96 1.532.96 2.437v10.558a4.857 4.857 0 0 1-4.857 4.857h-2.54a1 1 0 0 1-.97.758H3.873a1 1 0 1 1 0-2h.529V14.186a1 1 0 0 1 1-1H6zm.402 19.044h2.776v-3.498c0-.26.211-.471.471-.471h2.2c.26 0 .472.21.472.471v3.498h2.783V15.186H6.402zM18.285 6.414V9.57c0 .868.704 1.572 1.572 1.572h2.842z" clip-rule="evenodd"/></svg>