<svg xmlns="http://www.w3.org/2000/svg" width="16" height="16" fill="none" class="persona-icon" viewBox="0 0 16 16"><path fill="currentColor" fill-rule="evenodd" d="M8.947 2.91c0-.81.98-1.215 1.552-.643l3.234 3.234c.573.573.167 1.552-.643 1.552h-1.096L9.586 9.9c.052.066.107.14.162.216.152.216.313.49.394.819.176.714-.068 1.487-.92 2.34a.5.5 0 0 1-.707 0l-2.541-2.541-3.12 3.12a.5.5 0 1 1-.707-.708l3.12-3.12-2.541-2.54a.5.5 0 0 1 0-.707c.852-.853 1.625-1.097 2.34-.921.329.08.602.242.818.394.077.055.15.11.216.162l2.847-2.408zm1 .22v1.108a.5.5 0 0 1-.177.381L6.437 7.44a.5.5 0 0 1-.614.024c-.08-.058-.164-.123-.239-.183l-.025-.02a5.738 5.738 0 0 0-.251-.19 1.456 1.456 0 0 0-.481-.241c-.21-.051-.532-.05-1.02.324l5.04 5.04c.374-.488.376-.81.324-1.02a1.459 1.459 0 0 0-.24-.48 5.76 5.76 0 0 0-.211-.277c-.06-.075-.125-.158-.183-.239a.5.5 0 0 1 .024-.614l2.82-3.333a.5.5 0 0 1 .381-.177h1.109z" clip-rule="evenodd"/></svg>