<svg xmlns="http://www.w3.org/2000/svg" width="20" height="20" fill="none" class="persona-icon" viewBox="0 0 20 20"><path fill="currentColor" fill-rule="evenodd" d="M11.084 4.077c0-.958 1.16-1.439 1.837-.76l3.763 3.762c.678.678.198 1.837-.761 1.837h-1.267l-2.787 3.295q.088.113.18.241c.177.252.366.572.461.958.207.84-.081 1.746-1.076 2.74a.6.6 0 0 1-.848 0l-2.944-2.943-3.618 3.617a.6.6 0 1 1-.848-.849l3.617-3.617L3.85 9.414a.6.6 0 0 1 0-.848c.994-.995 1.9-1.283 2.74-1.076.386.095.705.284.958.462q.129.09.241.18l3.295-2.788zm1.2.3v1.245a.6.6 0 0 1-.213.458L8.193 9.36a.6.6 0 0 1-.737.03c-.094-.067-.19-.144-.279-.213l-.03-.024a7 7 0 0 0-.29-.22 1.7 1.7 0 0 0-.554-.278c-.234-.058-.6-.059-1.154.361l5.835 5.835c.42-.554.419-.92.361-1.154a1.7 1.7 0 0 0-.277-.554 7 7 0 0 0-.221-.29l-.024-.03c-.07-.088-.146-.185-.213-.279a.6.6 0 0 1 .03-.737l3.28-3.878a.6.6 0 0 1 .458-.213h1.246z" clip-rule="evenodd"/></svg>