<svg xmlns="http://www.w3.org/2000/svg" width="24" height="24" fill="none" class="persona-icon" viewBox="0 0 24 24"><path fill="currentColor" d="M6.103 7.897A5.897 5.897 0 1 1 17.06 10.93l-4.394 7.61a.77.77 0 0 1-1.332 0l-4.393-7.61a5.874 5.874 0 0 1-.838-3.032ZM12 3.538a4.359 4.359 0 0 0-3.738 6.604l.008.012L12 16.615l3.738-6.473A4.359 4.359 0 0 0 12 3.539ZM9.18 7.896a2.82 2.82 0 1 0 5.641 0 2.82 2.82 0 0 0-5.64 0ZM12 6.614a1.282 1.282 0 1 1 0 2.565 1.282 1.282 0 0 1 0-2.565ZM2 21.23a.77.77 0 0 1 .77-.768h18.46a.77.77 0 0 1 0 1.538H2.77a.77.77 0 0 1-.77-.77Z"/></svg>