<svg xmlns="http://www.w3.org/2000/svg" width="24" height="24" fill="none" class="persona-icon" viewBox="0 0 24 24"><path fill="currentColor" fill-rule="evenodd" d="M11.563 2.134a.78.78 0 0 1 .874 0c1.595 1.082 3.706 3.08 5.29 5.541 1.58 2.457 2.7 5.48 2.116 8.57l-.006.03c-.586 2.531-1.971 3.998-3.54 4.806-1.532.788-3.182.919-4.297.919s-2.765-.131-4.297-.92c-1.569-.807-2.954-2.274-3.54-4.805l-.006-.03c-.584-3.09.536-6.113 2.116-8.57 1.584-2.461 3.695-4.459 5.29-5.541M5.676 15.945c.484 2.075 1.57 3.168 2.74 3.77 1.208.621 2.566.747 3.584.747s2.376-.126 3.585-.748c1.169-.601 2.255-1.694 2.739-3.769.476-2.546-.433-5.158-1.902-7.44C15.1 6.446 13.373 4.741 12 3.715c-1.373 1.026-3.099 2.73-4.422 4.788-1.47 2.283-2.378 4.895-1.902 7.441" clip-rule="evenodd"/><path fill="currentColor" fill-rule="evenodd" d="M12 11.23c.428 0 .774.345.774.77v5.641c0 .425-.346.77-.774.77a.77.77 0 0 1-.774-.77V12c0-.425.346-.77.774-.77" clip-rule="evenodd"/><path fill="currentColor" fill-rule="evenodd" d="M15.613 14.82c0 .425-.347.77-.774.77H9.16a.77.77 0 0 1-.774-.77c0-.424.347-.769.774-.769h5.678c.427 0 .774.345.774.77" clip-rule="evenodd"/></svg>