<svg xmlns="http://www.w3.org/2000/svg" width="24" height="24" fill="none" class="persona-icon" viewBox="0 0 24 24"><path fill="currentColor" fill-rule="evenodd" d="M11.577 2.38a.75.75 0 0 1 .846 0c1.545 1.056 3.59 3.004 5.125 5.404 1.531 2.394 2.616 5.342 2.05 8.355l-.006.029c-.567 2.468-1.91 3.898-3.43 4.686-1.484.768-3.082.896-4.162.896s-2.678-.128-4.163-.896c-1.52-.788-2.862-2.218-3.429-4.686l-.006-.03c-.566-3.012.519-5.96 2.05-8.355 1.534-2.4 3.58-4.347 5.125-5.402M5.874 15.848c.468 2.022 1.52 3.088 2.653 3.675 1.171.606 2.486.728 3.473.728s2.302-.122 3.473-.729c1.132-.586 2.185-1.652 2.654-3.674.46-2.483-.42-5.03-1.843-7.255C15.002 6.586 13.33 4.922 12 3.923c-1.33 1-3.002 2.663-4.284 4.669-1.423 2.225-2.304 4.772-1.843 7.255M12 11.25a.75.75 0 0 1 .75.75v2h2a.75.75 0 0 1 0 1.5h-2v2a.75.75 0 0 1-1.5 0v-2h-2a.75.75 0 0 1 0-1.5h2v-2a.75.75 0 0 1 .75-.75" clip-rule="evenodd"/></svg>