<svg xmlns="http://www.w3.org/2000/svg" width="32" height="32" fill="none" class="persona-icon" viewBox="0 0 32 32"><path fill="currentColor" fill-rule="evenodd" d="M15.436 3.174a1 1 0 0 1 1.128 0c2.06 1.407 4.788 4.004 6.834 7.204 2.04 3.193 3.487 7.123 2.733 11.14l-.009.04c-.756 3.29-2.545 5.197-4.572 6.247C19.571 28.829 17.44 29 16 29s-3.571-.17-5.55-1.195c-2.027-1.05-3.816-2.957-4.572-6.248l-.009-.039c-.755-4.017.692-7.947 2.733-11.14 2.046-3.2 4.773-5.797 6.834-7.204M7.831 21.13c.625 2.697 2.029 4.118 3.538 4.9 1.562.808 3.316.971 4.631.971s3.07-.163 4.63-.971c1.51-.782 2.914-2.203 3.539-4.9.614-3.31-.56-6.706-2.457-9.674-1.71-2.674-3.938-4.89-5.712-6.224-1.774 1.333-4.003 3.55-5.712 6.224C8.39 14.423 7.216 17.82 7.83 21.13M16 15a1 1 0 0 1 1 1v2.667h2.667a1 1 0 0 1 0 2H17v2.666a1 1 0 1 1-2 0v-2.666h-2.667a1 1 0 1 1 0-2H15V16a1 1 0 0 1 1-1" clip-rule="evenodd"/></svg>