<svg xmlns="http://www.w3.org/2000/svg" width="40" height="40" fill="none" class="persona-ilustration" viewBox="0 0 40 40"><g clip-path="url(#qs4lbFCpYLh9Ftg0tIsOFIS-bdDh7MoxPSA5eOH1DVw_a)"><path fill="#4793CC" d="m11.089 15.169 17.133-.003L31.7 31.627a43181 43181 0 0 0-23.325 0z"/><mask id="qs4lbFCpYLh9Ftg0tIsOFIS-bdDh7MoxPSA5eOH1DVw_b" width="24" height="21" x="8" y="9" maskUnits="userSpaceOnUse" style="mask-type:alpha"><path fill="#fff" d="M10.697 9.794 8.754 24.336c-.235.146-.634.544-.352.971.281.427.439.65.482.707-.121.028-.363.301-.363 1.175s.418 1.727.628 2.044c.408-.18 1.31-.73 1.654-1.48 1.464.972 2.214.405 2.406 0 .446.44 1.495 1.186 2.132.659.636-.527 1.41.07 1.718.434.477.241 1.572.579 2.132 0 .34-.352.635-.472.847-.49.212.018.507.138.847.49.56.579 1.655.241 2.132 0 .308-.364 1.082-.961 1.718-.434.637.527 1.687-.22 2.132-.66.192.406.942.973 2.406 0 .344.75 1.246 1.3 1.654 1.481.21-.317.628-1.17.628-2.044s-.242-1.147-.363-1.175c.043-.058.2-.28.482-.707s-.117-.825-.352-.97L29.38 9.793A.915.915 0 0 0 28.472 9H11.604a.915.915 0 0 0-.907.794"/></mask><g mask="url(#qs4lbFCpYLh9Ftg0tIsOFIS-bdDh7MoxPSA5eOH1DVw_b)"><path fill="#FFF9E1" d="M31.322 24.336 29.379 9.794A.915.915 0 0 0 28.472 9H19.74v19.412c.148-.097.585-.145 1.145.434s1.654.241 2.132 0c.307-.364 1.082-.961 1.718-.434s1.686-.22 2.132-.66c.191.406.941.973 2.406 0 .343.75 1.246 1.3 1.654 1.481.21-.317.628-1.17.628-2.044s-.242-1.147-.363-1.175c.043-.058.2-.28.482-.707s-.117-.825-.352-.97"/><path fill="#FFF9E1" d="m8.754 24.336 1.943-14.542A.915.915 0 0 1 11.604 9h8.732v19.412c-.148-.097-.585-.145-1.145.434s-1.655.241-2.132 0c-.308-.364-1.082-.961-1.718-.434-.637.527-1.686-.22-2.132-.66-.192.406-.942.973-2.406 0-.344.75-1.246 1.3-1.654 1.481-.21-.317-.628-1.17-.628-2.044s.242-1.147.363-1.175c-.043-.058-.2-.28-.482-.707s.117-.825.352-.97"/><path fill="#FEE283" d="M10.5 26.423c.333 2.528-.2 2.9-.334 3.77l-1.01-.852c-.505-2.037.267-2.918 1.344-2.918"/><path fill="#FEE283" d="M10.27 20.117c-.282 1.832.428 7.087.818 9.485l-.253-.09c-.426-1.994-1.134-6.666-.566-9.395"/><path fill="#FEE283" d="M10.565 26.269c0 .624-1.648-.145-2.157-.423-.335-.447-.89-1.22-.427-.74.58.602 1.272.746 2.584 1.163M14.584 23.297c-.253 2.144.745 6.125 2.698 8.632-.289-.562 1.436-.11 1.191-.677-1.179-2.201-1.341-2.152-2.536-3.724s-1.353-4.23-1.353-4.23M14.139 30.143c-2.197.227-1.8-9.696-.871-10.14-.896 3.634-.18 9.366.871 10.14M29.576 26.423c-.333 2.528.2 2.899.334 3.77l1.01-.852c.505-2.037-.267-2.918-1.344-2.918"/><path fill="#FEE283" d="M29.807 20.117c.28 1.832-.43 7.086-.82 9.485l.254-.09c.425-1.994 1.134-6.666.566-9.395"/><path fill="#FEE283" d="M29.51 26.269c0 .624 1.649-.145 2.157-.423.336-.447.891-1.22.427-.74-.58.602-1.272.746-2.583 1.163M25.491 23.297c.254 2.144-.745 6.125-2.698 8.632.29-.562-1.436-.11-1.191-.677 1.179-2.201 1.342-2.152 2.537-3.724s1.352-4.23 1.352-4.23M25.937 30.143c2.197.227 1.8-9.696.87-10.14.896 3.634.181 9.366-.87 10.14"/><path fill="#FFC509" d="M19.566 10.93c.142-.252.527-.252.685-.002.436.646.898 1.286 1.39 1.932.074.093.195.16.326.18q1.371.203 2.783.404c.374.052.627.394.444.6a43 43 0 0 1-1.586 1.598.255.255 0 0 0-.067.293q.47 1.09.955 2.18c.124.283-.298.493-.741.37a261 261 0 0 1-3.282-.944.9.9 0 0 0-.484 0q-1.557.474-3.177.945c-.43.12-.875-.09-.784-.37q.36-1.09.71-2.183a.28.28 0 0 0-.096-.291 47 47 0 0 1-1.745-1.597c-.201-.209.02-.549.387-.603q1.39-.197 2.74-.402a.47.47 0 0 0 .314-.18q.654-.968 1.228-1.93"/></g></g><defs><clipPath id="qs4lbFCpYLh9Ftg0tIsOFIS-bdDh7MoxPSA5eOH1DVw_a"><path fill="#fff" d="M0 0h40v40H0z"/></clipPath></defs></svg>