<svg xmlns="http://www.w3.org/2000/svg" width="16" height="16" fill="none" class="persona-icon" viewBox="0 0 16 16"><path fill="currentColor" d="M8.243 2.063a.5.5 0 0 0-.486 0l-5.5 3.056a.5.5 0 0 0 0 .874l5.5 3.055a.5.5 0 0 0 .486 0l5.5-3.055a.5.5 0 0 0 0-.874z"/><path fill="currentColor" d="M2.063 7.757a.5.5 0 0 1 .68-.194L8 10.483l5.257-2.92a.5.5 0 0 1 .486.874l-5.5 3.056a.5.5 0 0 1-.486 0l-5.5-3.056a.5.5 0 0 1-.194-.68"/><path fill="currentColor" d="M2.743 10.008a.5.5 0 1 0-.486.874l5.5 3.055a.5.5 0 0 0 .486 0l5.5-3.055a.5.5 0 1 0-.486-.874L8 12.928z"/></svg>