<svg xmlns="http://www.w3.org/2000/svg" width="20" height="20" fill="none" class="persona-icon" viewBox="0 0 20 20"><path fill="currentColor" d="M10.304 3.054a.63.63 0 0 0-.607 0l-6.4 3.555a.625.625 0 0 0 0 1.093l6.4 3.555a.63.63 0 0 0 .607 0l6.4-3.555a.625.625 0 0 0 0-1.093z"/><path fill="currentColor" d="M3.054 9.697a.625.625 0 0 1 .85-.243L10 12.84l6.096-3.387a.625.625 0 1 1 .607 1.092l-6.4 3.556a.63.63 0 0 1-.607 0l-6.4-3.556a.625.625 0 0 1-.242-.85"/><path fill="currentColor" d="M3.904 12.298a.625.625 0 0 0-.607 1.093l6.4 3.555a.63.63 0 0 0 .607 0l6.4-3.555a.625.625 0 0 0-.608-1.093L10 15.685z"/></svg>