<svg xmlns="http://www.w3.org/2000/svg" width="24" height="24" fill="none" class="persona-icon" viewBox="0 0 24 24"><path fill="currentColor" d="m12.364 3.094 8.25 4.584a.75.75 0 0 1 0 1.311l-8.25 4.583a.75.75 0 0 1-.728 0L3.386 8.99a.75.75 0 0 1 0-1.311l8.25-4.584a.75.75 0 0 1 .728 0"/><path fill="currentColor" d="M3.094 11.636a.75.75 0 0 1 1.02-.291L12 15.724l7.886-4.38a.75.75 0 1 1 .728 1.31l-8.25 4.584a.75.75 0 0 1-.728 0l-8.25-4.583a.75.75 0 0 1-.292-1.02"/><path fill="currentColor" d="M4.114 15.011 12 19.392l7.886-4.38a.75.75 0 1 1 .728 1.31l-8.25 4.584a.75.75 0 0 1-.728 0l-8.25-4.583a.75.75 0 1 1 .728-1.312"/></svg>