<svg xmlns="http://www.w3.org/2000/svg" width="32" height="32" fill="none" class="persona-icon" viewBox="0 0 32 32"><path fill="currentColor" d="M16.486 4.126a1 1 0 0 0-.972 0l-11 6.111a1 1 0 0 0 0 1.749l11 6.11a1 1 0 0 0 .972 0l11-6.11a1 1 0 0 0 0-1.749z"/><path fill="currentColor" d="M4.126 15.515a1 1 0 0 1 1.36-.389L16 20.967l10.514-5.841a1 1 0 0 1 .972 1.748l-11 6.111a1 1 0 0 1-.972 0l-11-6.11a1 1 0 0 1-.388-1.36"/><path fill="currentColor" d="M5.486 20.015a1 1 0 1 0-.972 1.748l11 6.111a1 1 0 0 0 .972 0l11-6.11a1 1 0 1 0-.972-1.749L16 25.856z"/></svg>