<svg xmlns="http://www.w3.org/2000/svg" width="16" height="16" fill="none" class="persona-icon" viewBox="0 0 16 16"><path fill="currentColor" fill-rule="evenodd" d="M3.47 2.279C3.47 1.573 4.028 1 4.717 1h6.566c.689 0 1.247.573 1.247 1.279v3.365c0 .046-.002.091-.007.136 1.133.27 1.977 1.313 1.977 2.556v2.02c0 1.241-.84 2.281-1.97 2.555v.81c0 .706-.558 1.279-1.247 1.279H4.717c-.689 0-1.247-.573-1.247-1.279v-.81c-1.13-.274-1.97-1.314-1.97-2.555v-2.02c0-1.243.844-2.285 1.977-2.556a1.327 1.327 0 0 1-.007-.136V2.28Zm1.237 4.644h-.646c-.762 0-1.38.633-1.38 1.413v2.02c0 .564.323 1.05.789 1.277v-1.281c.002-.705.56-1.275 1.247-1.275h6.566c.689 0 1.247.572 1.247 1.279v1.277c.466-.227.788-.713.788-1.277v-2.02c0-.78-.617-1.413-1.379-1.413H4.707Zm-.055 6.798c0 .037.029.068.065.068h6.566c.036 0 .066-.03.066-.068v-3.365a.066.066 0 0 0-.066-.067H4.717a.066.066 0 0 0-.065.067v3.365Zm6.633-8.01h-6.57a.067.067 0 0 1-.063-.067V2.28c0-.037.029-.067.065-.067h6.566c.036 0 .066.03.066.067v3.365a.067.067 0 0 1-.064.067Z" clip-rule="evenodd"/></svg>