<svg xmlns="http://www.w3.org/2000/svg" width="16" height="16" fill="none" class="persona-icon" viewBox="0 0 16 16"><path fill="currentColor" d="M10.334 7a.333.333 0 0 0-.334.333V8c0 .184.15.333.334.333H11c.184 0 .334-.149.334-.333v-.667A.333.333 0 0 0 11 7z"/><path fill="currentColor" fill-rule="evenodd" d="M5.105 2c-.595 0-1.078.483-1.078 1.079v2.363a2.24 2.24 0 0 0-1.737 2.18V9.36c0 1.063.742 1.953 1.737 2.18v1.381c0 .596.483 1.08 1.078 1.08h5.79c.596 0 1.079-.484 1.079-1.08v-1.38A2.24 2.24 0 0 0 13.71 9.36V7.623a2.24 2.24 0 0 0-1.737-2.18V3.078c0-.596-.483-1.079-1.08-1.079zm-1.078 8.026v.465A1.24 1.24 0 0 1 3.29 9.36V7.623c0-.683.553-1.237 1.236-1.237h6.948c.683 0 1.237.554 1.237 1.237V9.36c0 .505-.303.94-.737 1.131v-.465c0-.596-.483-1.08-1.08-1.08H5.106c-.595 0-1.078.484-1.078 1.08m6.947-4.64H5.027V3.079c0-.044.035-.079.078-.079h5.79c.043 0 .079.035.079.079zm-5.869 4.56h5.79c.043 0 .079.036.079.08v2.895a.08.08 0 0 1-.08.08H5.106a.08.08 0 0 1-.079-.08v-2.895c0-.044.036-.08.08-.08" clip-rule="evenodd"/></svg>