<svg xmlns="http://www.w3.org/2000/svg" width="24" height="24" fill="none" class="persona-icon" viewBox="0 0 24 24"><path fill="currentColor" d="M15.5 10.5a.5.5 0 0 0-.5.5v1a.5.5 0 0 0 .5.5h1a.5.5 0 0 0 .5-.5v-1a.5.5 0 0 0-.5-.5z"/><path fill="currentColor" fill-rule="evenodd" d="M7.658 3c-.894 0-1.619.725-1.619 1.618v3.545a3.36 3.36 0 0 0-2.605 3.271v2.605a3.356 3.356 0 0 0 2.605 3.272v2.07c0 .894.725 1.619 1.619 1.619h8.684c.894 0 1.618-.725 1.618-1.619v-2.07a3.36 3.36 0 0 0 2.606-3.272v-2.605a3.36 3.36 0 0 0-2.606-3.271V4.618c0-.893-.724-1.618-1.618-1.618zM6.039 15.038v.699a1.86 1.86 0 0 1-1.105-1.698v-2.605c0-1.024.83-1.855 1.855-1.855H17.21c1.025 0 1.856.83 1.856 1.855v2.605c0 .758-.455 1.41-1.106 1.698v-.699c0-.893-.724-1.618-1.618-1.618H7.658c-.894 0-1.619.725-1.619 1.618m10.421-6.96H7.54v-3.46c0-.065.053-.118.118-.118h8.684c.065 0 .118.053.118.118zM7.658 14.92h8.684c.065 0 .118.053.118.118v4.343a.12.12 0 0 1-.118.119H7.658a.12.12 0 0 1-.119-.119v-4.343c0-.065.054-.118.119-.118" clip-rule="evenodd"/></svg>