<svg xmlns="http://www.w3.org/2000/svg" width="32" height="32" fill="none" class="persona-icon"><path fill="currentColor" d="M7.002 4.807c0-1.273 1.045-2.305 2.333-2.305H22.67c1.288 0 2.333 1.032 2.333 2.305v6.586c0 .143-.013.284-.038.42 2.301.443 4.038 2.445 4.038 4.848v3.951c0 2.39-1.718 4.383-4 4.84v1.746c0 1.273-1.044 2.304-2.333 2.304H9.335c-1.288 0-2.333-1.031-2.333-2.304v-1.745c-2.282-.458-4-2.451-4-4.84V16.66c0-2.403 1.737-4.405 4.039-4.848a2.295 2.295 0 0 1-.039-.42V4.807Zm0 18.6v-2.795c0-.278.05-.545.142-.792a2.333 2.333 0 0 1 2.191-1.513H22.67c1.127 0 2.068.79 2.286 1.84.03.15.047.306.047.465v2.795a2.967 2.967 0 0 0 2-2.795v-3.951c0-1.637-1.343-2.963-3-2.963h-16c-1.657 0-3 1.326-3 2.963v3.951c0 1.29.835 2.388 2 2.795Zm2 3.79c0 .182.15.33.333.33H22.67a.331.331 0 0 0 .333-.33v-6.585a.333.333 0 0 0-.333-.33l-13.334.001a.332.332 0 0 0-.333.33v6.585Zm.333-22.719a.331.331 0 0 0-.333.33v6.585c0 .181.15.329.333.329H22.67a.331.331 0 0 0 .333-.33V4.808c0-.182-.149-.329-.333-.329H9.335Z"/></svg>