<svg xmlns="http://www.w3.org/2000/svg" width="32" height="32" fill="none" class="persona-icon" viewBox="0 0 32 32"><path fill="currentColor" d="M20.667 14H22c.368 0 .667.299.667.667V16a.667.667 0 0 1-.667.667h-1.333A.667.667 0 0 1 20 16v-1.333c0-.368.299-.667.667-.667"/><path fill="currentColor" fill-rule="evenodd" d="M10.21 4h11.58c1.191 0 2.157.966 2.157 2.158v4.726a4.475 4.475 0 0 1 3.474 4.361v3.474a4.475 4.475 0 0 1-3.474 4.362v2.761A2.16 2.16 0 0 1 21.79 28H10.21a2.16 2.16 0 0 1-2.157-2.158v-2.761a4.475 4.475 0 0 1-3.474-4.362v-3.474a4.475 4.475 0 0 1 3.474-4.361V6.158C8.053 4.966 9.019 4 10.21 4M8.054 20.051c0-1.192.966-2.158 2.158-2.158H21.79c1.191 0 2.157.966 2.157 2.158v.931a2.47 2.47 0 0 0 1.474-2.263v-3.474a2.474 2.474 0 0 0-2.474-2.473H9.053a2.474 2.474 0 0 0-2.474 2.473v3.474c0 1.01.606 1.88 1.474 2.263zm13.894-9.28V6.159A.16.16 0 0 0 21.79 6H10.21a.16.16 0 0 0-.157.158v4.614zm-11.736 9.122a.16.16 0 0 0-.158.158v5.791c0 .087.07.158.158.158H21.79c.087 0 .157-.07.157-.158v-5.79a.16.16 0 0 0-.157-.159z" clip-rule="evenodd"/></svg>