<svg xmlns="http://www.w3.org/2000/svg" width="16" height="16" fill="none" class="persona-icon" viewBox="0 0 16 16"><path fill="currentColor" fill-rule="evenodd" d="M5.572 2.857c0-.631.511-1.143 1.142-1.143h2.572c.631 0 1.143.512 1.143 1.143v.074h.142A2.43 2.43 0 0 1 13 5.36v6.496a2.43 2.43 0 0 1-2.429 2.428H5.43A2.43 2.43 0 0 1 3 11.857V5.36A2.43 2.43 0 0 1 5.429 2.93h.143zm1.142-.143a.143.143 0 0 0-.143.143v1.285c0 .08.065.143.143.143h2.572a.143.143 0 0 0 .143-.143V2.858a.143.143 0 0 0-.143-.143zM10.23 8.51a.5.5 0 0 0-.707-.707L7.375 9.95l-.898-.898a.5.5 0 0 0-.707.707l1.251 1.252a.5.5 0 0 0 .707 0z" clip-rule="evenodd"/></svg>