<svg xmlns="http://www.w3.org/2000/svg" width="20" height="20" fill="none" class="persona-icon" viewBox="0 0 20 20"><path fill="currentColor" fill-rule="evenodd" d="M7.06 3.828c0-.771.626-1.396 1.397-1.396h3.086c.771 0 1.396.625 1.396 1.396v.065h.147a2.94 2.94 0 0 1 2.939 2.94v7.795a2.94 2.94 0 0 1-2.94 2.939h-6.17a2.94 2.94 0 0 1-2.94-2.94V6.833a2.94 2.94 0 0 1 2.94-2.939h.146zm1.397-.146a.146.146 0 0 0-.146.146v1.543c0 .08.065.146.146.146h3.086c.08 0 .146-.065.146-.146V3.828a.146.146 0 0 0-.146-.146zm4.237 6.947a.625.625 0 1 0-.884-.884l-2.56 2.56-1.06-1.06a.625.625 0 1 0-.884.885l1.501 1.5c.245.245.64.245.884 0z" clip-rule="evenodd"/></svg>