<svg xmlns="http://www.w3.org/2000/svg" width="32" height="32" fill="none" class="persona-icon" viewBox="0 0 32 32"><path fill="currentColor" fill-rule="evenodd" d="M11.143 5.714a2.286 2.286 0 0 1 2.285-2.286h5.143a2.286 2.286 0 0 1 2.286 2.286v.15h.286A4.857 4.857 0 0 1 26 10.722v12.992a4.857 4.857 0 0 1-4.857 4.857H10.857A4.857 4.857 0 0 1 6 23.714V10.722a4.857 4.857 0 0 1 4.857-4.858h.286zm2.285-.286a.286.286 0 0 0-.285.286v2.572c0 .157.128.285.285.285h5.143a.286.286 0 0 0 .286-.285V5.714a.286.286 0 0 0-.286-.286zM20.46 17.02a1 1 0 0 0-1.414-1.415l-4.297 4.297-1.795-1.795a1 1 0 0 0-1.414 1.415l2.502 2.501a1 1 0 0 0 1.414 0z" clip-rule="evenodd"/></svg>