<svg xmlns="http://www.w3.org/2000/svg" width="16" height="16" fill="none" class="persona-icon" viewBox="0 0 16 16"><path fill="currentColor" fill-rule="evenodd" d="M4.333 2A2.333 2.333 0 0 0 2 4.333v7.334A2.333 2.333 0 0 0 4.333 14h7.334A2.333 2.333 0 0 0 14 11.667V4.333A2.333 2.333 0 0 0 11.667 2zm6.723 6.111c-.614 0-1.112.498-1.112 1.111 0 .737-.597 1.334-1.333 1.334H7.39a1.333 1.333 0 0 1-1.333-1.334c0-.613-.498-1.11-1.112-1.11H3V4.332C3 3.597 3.597 3 4.333 3h7.334C12.403 3 13 3.597 13 4.333v3.778z" clip-rule="evenodd"/></svg>