<svg xmlns="http://www.w3.org/2000/svg" width="20" height="20" fill="none" class="persona-icon" viewBox="0 0 20 20"><path fill="currentColor" fill-rule="evenodd" d="M5.733 2.975a2.76 2.76 0 0 0-2.758 2.758v8.534a2.76 2.76 0 0 0 2.758 2.758h8.534a2.76 2.76 0 0 0 2.758-2.758V5.733a2.76 2.76 0 0 0-2.758-2.758zm7.822 7.111c-.738 0-1.336.598-1.336 1.336 0 .833-.675 1.509-1.508 1.509H9.289a1.51 1.51 0 0 1-1.509-1.509c0-.738-.598-1.336-1.336-1.336h-2.22V5.733c0-.833.676-1.508 1.51-1.508h8.533c.833 0 1.508.675 1.508 1.508v4.353z" clip-rule="evenodd"/></svg>