<svg xmlns="http://www.w3.org/2000/svg" width="32" height="32" fill="none"><path fill="#000" fill-rule="evenodd" d="M22.3 15.286a1 1 0 0 1 1.4 0l1.628 1.594 2.279.024a1 1 0 0 1 .99.99l.023 2.278 1.594 1.628a1 1 0 0 1 0 1.4l-1.594 1.628-.024 2.279a1 1 0 0 1-.99.99l-2.278.023-1.628 1.594a1 1 0 0 1-1.4 0l-1.628-1.594-2.279-.024a1 1 0 0 1-.99-.99l-.023-2.278-1.594-1.628a1 1 0 0 1 0-1.4l1.594-1.628.024-2.279a1 1 0 0 1 .99-.99l2.278-.023 1.628-1.594ZM23 17.4l-1.216 1.19a1 1 0 0 1-.689.286l-1.701.018-.018 1.701a1 1 0 0 1-.286.69L17.9 22.5l1.19 1.216a1 1 0 0 1 .286.689l.018 1.701 1.701.018a1 1 0 0 1 .69.286L23 27.6l1.216-1.19a1 1 0 0 1 .689-.286l1.701-.018.018-1.701a1 1 0 0 1 .286-.69L28.1 22.5l-1.19-1.216a1 1 0 0 1-.286-.689l-.018-1.701-1.701-.018a1 1 0 0 1-.69-.286L23 17.4Zm2.643 3.08a1 1 0 0 1 .028 1.413l-2.5 2.6a1 1 0 0 1-1.465-.025l-1.4-1.56a1 1 0 1 1 1.488-1.336l.681.759 1.754-1.824a1 1 0 0 1 1.414-.028Z" clip-rule="evenodd"/><path fill="#000" fill-rule="evenodd" d="M7.532 8c0-1.657 1.365-3 3.049-3h5.758v4.333c0 2.025 1.668 3.667 3.726 3.667h5.419c.404 0 .77-.236.932-.601a.988.988 0 0 0-.19-1.081l-6.783-7.153A3.754 3.754 0 0 0 16.719 3h-6.138C7.775 3 5.5 5.239 5.5 8v16c0 2.761 2.275 5 5.08 5h2.71c.562 0 1.016-.448 1.016-1s-.454-1-1.016-1h-2.71c-1.683 0-3.048-1.343-3.048-3V8Zm15.499 3h-2.966c-.936 0-1.694-.746-1.694-1.667V6.414L23.031 11Z" clip-rule="evenodd"/></svg>