<svg xmlns="http://www.w3.org/2000/svg" width="16" height="16" fill="none"><path fill="#000" fill-rule="evenodd" d="M6.754 1.327a4.744 4.744 0 0 1 2.02-.317 4.91 4.91 0 0 1 3.344 1.608A5.344 5.344 0 0 1 13.5 6.224a5.344 5.344 0 0 1-1.386 3.604 4.925 4.925 0 0 1-3.01 1.574 2.52 2.52 0 0 1-.034.103c-.256.732-.706 1.342-1.204 1.85a5.495 5.495 0 0 1-1.785 1.218A5.395 5.395 0 0 1 3.98 15H3.5V6.262c0-.713.137-1.418.403-2.074a5.275 5.275 0 0 1 1.146-1.74 4.95 4.95 0 0 1 1.705-1.121Zm1.478.681-.005 8.924c-.01.075-.026.143-.057.23-.19.546-.539 1.034-.974 1.478a4.54 4.54 0 0 1-1.474 1.006c-.404.171-.83.281-1.264.328V6.262c0-.579.111-1.152.327-1.684a4.273 4.273 0 0 1 .928-1.408 3.998 3.998 0 0 1 1.376-.906c.368-.144.753-.23 1.143-.256Zm.963 8.37a3.992 3.992 0 0 0 2.227-1.24 4.32 4.32 0 0 0 1.12-2.914c0-1.086-.4-2.13-1.117-2.915a3.991 3.991 0 0 0-2.23-1.245v8.314Z" clip-rule="evenodd"/></svg>