<svg xmlns="http://www.w3.org/2000/svg" width="24" height="24" fill="none"><path fill="#000" fill-rule="evenodd" d="M9.88 2.468a7.425 7.425 0 0 1 3.032-.454 7.51 7.51 0 0 1 5.015 2.303A7.457 7.457 0 0 1 20 9.478a7.457 7.457 0 0 1-2.08 5.16 7.509 7.509 0 0 1-4.477 2.248 3.448 3.448 0 0 1-.04.112c-.384 1.05-1.06 1.924-1.805 2.65a8.264 8.264 0 0 1-2.675 1.741c-1 .404-2.07.61-3.15.611H5L5 9.532c0-1.02.205-2.03.605-2.968.399-.939.983-1.786 1.718-2.49A7.467 7.467 0 0 1 9.88 2.468Zm2.162 1.086-.008 12.606a1.39 1.39 0 0 1-.08.31c-.28.765-.792 1.45-1.436 2.077a6.72 6.72 0 0 1-2.175 1.416 6.855 6.855 0 0 1-1.798.455V9.532c-.001-.814.163-1.62.481-2.368a5.993 5.993 0 0 1 1.368-1.981 5.921 5.921 0 0 1 3.648-1.629Zm1.551 11.752a5.96 5.96 0 0 0 3.212-1.732 5.921 5.921 0 0 0 .005-8.195 5.96 5.96 0 0 0-3.217-1.737v11.664Z" clip-rule="evenodd"/></svg>