<svg xmlns="http://www.w3.org/2000/svg" width="16" height="16" fill="none" class="persona-icon" viewBox="0 0 16 16"><path fill="currentColor" d="M11.354 8.378c.004-.46.128-.911.36-1.311s.565-.736.967-.975a2.84 2.84 0 0 0-.98-.86 2.9 2.9 0 0 0-1.268-.34c-.958-.096-1.842.546-2.352.546s-1.228-.534-2.027-.522a3.1 3.1 0 0 0-1.476.431c-.445.266-.813.64-1.066 1.087-1.08 1.836-.276 4.565.804 6.047.492.726 1.106 1.548 1.917 1.518s1.074-.492 2.014-.492 1.228.492 2.026.474c.799-.018 1.364-.744 1.88-1.47.365-.527.65-1.103.847-1.71a2.7 2.7 0 0 1-1.194-.97 2.6 2.6 0 0 1-.452-1.453M9.807 3.914c.232-.262.409-.565.52-.894.112-.328.156-.675.13-1.02a2.75 2.75 0 0 0-1.842.912 2.5 2.5 0 0 0-.5.866 2.45 2.45 0 0 0-.114.988 2.3 2.3 0 0 0 1.005-.22c.313-.148.587-.364.8-.632"/></svg>