<svg xmlns="http://www.w3.org/2000/svg" width="20" height="20" fill="none"><path fill="#000" d="M12.168 5.392A3.339 3.339 0 0 0 12.949 3c-.855.07-1.65.48-2.21 1.14a3.143 3.143 0 0 0-.6 1.083 3.18 3.18 0 0 0-.138 1.234c.418.004.83-.09 1.206-.275.375-.185.704-.455.96-.79Zm1.857 5.58a3.43 3.43 0 0 1 .432-1.639c.279-.5.678-.919 1.16-1.218a3.455 3.455 0 0 0-1.175-1.075 3.389 3.389 0 0 0-1.522-.425c-1.15-.12-2.211.682-2.823.682-.611 0-1.474-.667-2.432-.652a3.58 3.58 0 0 0-1.771.54c-.535.332-.976.8-1.28 1.357-1.297 2.295-.331 5.707.966 7.56.59.907 1.326 1.934 2.299 1.897.973-.037 1.29-.615 2.417-.615 1.128 0 1.474.615 2.432.593.958-.023 1.636-.93 2.255-1.838A8.312 8.312 0 0 0 16 14.002a3.264 3.264 0 0 1-1.433-1.214 3.349 3.349 0 0 1-.542-1.816Z"/></svg>