<svg xmlns="http://www.w3.org/2000/svg" width="20" height="20" fill="none" class="persona-icon" viewBox="0 0 20 20"><path fill="currentColor" d="M14.025 10.972a3.4 3.4 0 0 1 .432-1.638c.279-.5.678-.92 1.16-1.22a3.45 3.45 0 0 0-1.175-1.074 3.4 3.4 0 0 0-1.522-.425c-1.15-.12-2.211.682-2.823.682-.611 0-1.474-.667-2.432-.652a3.6 3.6 0 0 0-1.771.54c-.535.332-.976.8-1.28 1.357-1.297 2.295-.331 5.707.966 7.56.59.907 1.326 1.935 2.299 1.897.973-.037 1.29-.615 2.417-.615 1.128 0 1.474.615 2.432.593s1.636-.93 2.255-1.838A8.3 8.3 0 0 0 16 14.002a3.26 3.26 0 0 1-1.433-1.214 3.35 3.35 0 0 1-.542-1.816m-1.857-5.58A3.339 3.339 0 0 0 12.949 3c-.855.07-1.65.48-2.21 1.14a3.1 3.1 0 0 0-.6 1.083 3.2 3.2 0 0 0-.138 1.234c.418.004.83-.09 1.206-.275.375-.185.704-.455.96-.79"/></svg>