<svg xmlns="http://www.w3.org/2000/svg" width="20" height="20" fill="none" class="persona-icon" viewBox="0 0 20 20"><path fill="currentColor" d="M14.025 10.972c.002.646.19 1.277.542 1.816.35.538.849.96 1.433 1.214a8.3 8.3 0 0 1-1.017 2.137c-.619.908-1.297 1.815-2.255 1.838-.958.022-1.304-.593-2.432-.593s-1.444.578-2.417.615-1.71-.99-2.3-1.897c-1.296-1.853-2.262-5.265-.965-7.56a3.66 3.66 0 0 1 1.28-1.358 3.6 3.6 0 0 1 1.771-.54c.958-.014 1.82.653 2.432.653s1.673-.802 2.823-.682c.533.02 1.054.165 1.522.425.469.26.87.629 1.175 1.075-.482.3-.881.719-1.16 1.219a3.4 3.4 0 0 0-.432 1.638m-1.857-5.58a2.7 2.7 0 0 1-.961.79A2.7 2.7 0 0 1 10 6.457a3.2 3.2 0 0 1 .138-1.234c.127-.399.33-.767.6-1.083A3.25 3.25 0 0 1 12.948 3c.031.432-.022.865-.156 1.276-.134.41-.346.79-.625 1.116"/></svg>