<svg xmlns="http://www.w3.org/2000/svg" width="24" height="24" fill="none" class="persona-icon"><path fill="currentColor" d="M17.367 12.63a4.572 4.572 0 0 1 .576-2.185 4.476 4.476 0 0 1 1.546-1.625 4.608 4.608 0 0 0-1.566-1.433 4.518 4.518 0 0 0-2.03-.567c-1.533-.16-2.948.91-3.763.91-.816 0-1.966-.89-3.243-.87a4.773 4.773 0 0 0-2.362.719 4.883 4.883 0 0 0-1.706 1.81C3.09 12.45 4.377 17 6.106 19.47c.786 1.21 1.769 2.58 3.066 2.53 1.297-.05 1.72-.82 3.223-.82s1.965.82 3.242.79c1.278-.03 2.182-1.24 3.007-2.45A11.083 11.083 0 0 0 20 16.669a4.351 4.351 0 0 1-1.911-1.619 4.465 4.465 0 0 1-.722-2.42ZM14.89 5.19A4.45 4.45 0 0 0 15.933 2a4.337 4.337 0 0 0-2.949 1.52c-.358.422-.63.913-.799 1.443a4.24 4.24 0 0 0-.183 1.647 3.574 3.574 0 0 0 1.607-.367c.5-.247.94-.607 1.282-1.053Z"/></svg>