<svg xmlns="http://www.w3.org/2000/svg" width="32" height="32" fill="none" class="persona-icon" viewBox="0 0 32 32"><path fill="currentColor" d="M19.613 7.987a4.55 4.55 0 0 1-1.602 1.316 4.5 4.5 0 0 1-2.009.46 5.3 5.3 0 0 1 .23-2.059c.21-.663.55-1.277.999-1.804A5.42 5.42 0 0 1 20.915 4a5.6 5.6 0 0 1-.26 2.126 5.5 5.5 0 0 1-1.042 1.861m3.095 9.3a5.6 5.6 0 0 0 .903 3.026A5.44 5.44 0 0 0 26 22.336a13.9 13.9 0 0 1-1.695 3.563c-1.032 1.512-2.162 3.024-3.758 3.062s-2.174-.988-4.053-.988-2.408.963-4.029 1.025c-1.621.063-2.85-1.65-3.832-3.162-2.162-3.087-3.77-8.774-1.609-12.6a6.1 6.1 0 0 1 2.133-2.263 5.97 5.97 0 0 1 2.952-.898c1.597-.025 3.034 1.087 4.053 1.087s2.788-1.337 4.704-1.137a5.65 5.65 0 0 1 2.538.71 5.76 5.76 0 0 1 1.957 1.79 5.6 5.6 0 0 0-1.932 2.03 5.7 5.7 0 0 0-.72 2.732"/></svg>