<svg xmlns="http://www.w3.org/2000/svg" width="80" height="80" fill="none" class="persona-ilustration" viewBox="0 0 80 80"><g clip-path="url(#8v_a)"><path fill="#FFF9E1" d="M32.969 21.815a3.95 3.95 0 0 1 3.948-3.948H62.18a3.95 3.95 0 0 1 3.948 3.948V62.87a3.95 3.95 0 0 1-3.948 3.947H36.917a3.95 3.95 0 0 1-3.948-3.947z"/><path fill="#FFB26F" d="M39.285 26.946c0-.654.53-1.184 1.184-1.184h18.16a1.184 1.184 0 1 1 0 2.368h-18.16c-.654 0-1.184-.53-1.184-1.184M39.285 36.84c0-.653.53-1.184 1.185-1.184h18.159a1.184 1.184 0 0 1 0 2.37h-18.16c-.653 0-1.184-.531-1.184-1.185M39.285 46.735c0-.654.53-1.184 1.184-1.184h18.16a1.184 1.184 0 1 1 0 2.369h-18.16c-.654 0-1.184-.53-1.184-1.185M39.285 56.63c0-.654.53-1.184 1.184-1.184h18.16a1.184 1.184 0 0 1 0 2.369h-18.16c-.654 0-1.184-.53-1.184-1.185"/><mask id="8w_b" width="23" height="23" x="52" y="5" maskUnits="userSpaceOnUse" style="mask-type:alpha"><path fill="#009444" d="M63.755 27.575C69.965 27.575 75 22.54 75 16.33S69.965 5.085 63.755 5.085 52.51 10.12 52.51 16.33s5.035 11.245 11.245 11.245"/></mask><g mask="url(#8w_b)"><path fill="#239842" d="M63.755 27.575C69.965 27.575 75 22.54 75 16.33S69.965 5.085 63.755 5.085 52.51 10.12 52.51 16.33s5.035 11.245 11.245 11.245"/><path fill="#38BA58" d="M61.09 24.983c6.211 0 11.246-5.035 11.246-11.245S67.3 2.493 61.09 2.493 49.846 7.527 49.846 13.738 54.88 24.983 61.09 24.983"/><path fill="#F8F8F8" fill-rule="evenodd" d="M69.91 11.996a2.106 2.106 0 0 1 0 2.978l-5.691 5.688a2.106 2.106 0 0 1-2.978 0l-3.644-3.646a2.106 2.106 0 0 1 2.98-2.977l2.154 2.156 4.201-4.2a2.106 2.106 0 0 1 2.978 0" clip-rule="evenodd"/></g><path fill="#3E68F5" d="M5 28.571A3.57 3.57 0 0 1 8.571 25H31.43A3.57 3.57 0 0 1 35 28.571V51.43A3.57 3.57 0 0 1 31.429 55H8.57A3.57 3.57 0 0 1 5 51.429z"/><path fill="#F8F8F8" fill-rule="evenodd" d="M20.802 36.49c.493 0 .893.4.893.894v1.863c0 .9-.473 1.733-1.246 2.195l-.609.365a.893.893 0 1 1-.916-1.533l.609-.364a.77.77 0 0 0 .376-.663v-1.863c0-.493.4-.893.893-.893M24.977 33.828c.493 0 .892.4.892.893v1.476a.893.893 0 0 1-1.785 0V34.72c0-.493.4-.893.893-.893M15.207 33.828c.493 0 .893.4.893.893v1.476a.893.893 0 1 1-1.786 0V34.72c0-.493.4-.893.893-.893M25.069 42.874c.392.3.466.86.167 1.252-1.07 1.399-3.024 2.245-5.144 2.245s-4.074-.846-5.143-2.245a.893.893 0 1 1 1.418-1.084c.658.86 2.028 1.543 3.725 1.543s3.067-.683 3.725-1.544a.893.893 0 0 1 1.252-.167M12.143 30.893c-.69 0-1.25.56-1.25 1.25v4.122a.893.893 0 0 1-1.786 0v-4.122a3.036 3.036 0 0 1 3.036-3.036h4.122a.893.893 0 1 1 0 1.786zM23.025 30.015c0-.493.4-.893.893-.893h4.123a3.036 3.036 0 0 1 3.035 3.036v4.122a.893.893 0 1 1-1.785 0v-4.122c0-.69-.56-1.25-1.25-1.25h-4.123a.893.893 0 0 1-.893-.893M30.184 43.04c.493 0 .892.4.892.892v4.122a3.036 3.036 0 0 1-3.035 3.036h-4.123a.893.893 0 1 1 0-1.786h4.123c.69 0 1.25-.56 1.25-1.25v-4.122c0-.493.4-.893.892-.893M10 43.04c.493 0 .893.4.893.892v4.122c0 .69.56 1.25 1.25 1.25h4.122a.893.893 0 1 1 0 1.786h-4.122a3.036 3.036 0 0 1-3.036-3.036v-4.122c0-.493.4-.893.893-.893" clip-rule="evenodd"/><path fill="#fff" d="M7.764 59.237c0-.843.683-1.526 1.526-1.526h20.352a1.526 1.526 0 0 1 0 3.053H9.29a1.526 1.526 0 0 1-1.526-1.527"/><path fill="#38BA58" d="M7.764 59.237c0-.843.683-1.526 1.526-1.526h15.264a1.526 1.526 0 1 1 0 3.053H9.29a1.526 1.526 0 0 1-1.526-1.527"/><path fill="#38BA58" fill-rule="evenodd" d="M24.554 58.729H9.29a.509.509 0 0 0 0 1.017h15.264a.509.509 0 0 0 0-1.018M9.29 57.71a1.526 1.526 0 0 0 0 3.053h15.264a1.526 1.526 0 1 0 0-3.053z" clip-rule="evenodd"/></g><defs><clipPath id="8v_a"><path fill="#fff" d="M0 0h80v80H0z"/></clipPath></defs></svg>