<svg xmlns="http://www.w3.org/2000/svg" width="300" height="300" fill="none" class="persona-ilustration" viewBox="0 0 300 300"><g clip-path="url(#UEWXLeBJWY_a)"><g clip-path="url(#UEWXLeBJWY_b)"><rect width="250" height="250" x="25" y="25" fill="#D3EDFF" rx="125"/><path fill="#30457A" d="M144.402 163.375c-46.687-56.088-66.642-64.14-88.59-51.415s38.485 220.724 38.485 220.724l98.265 5.9-.161-.945c-7.923-46.283-25.126-146.783-47.999-174.264"/><path fill="#3F568E" d="M196.943 126.023c-19.693-30.136-110.651-24.204-134.314-17.44-23.664 6.764 25.685 159.439 25.685 159.439l108.63 60.447c-7.849-45.846 19.691-172.309-.001-202.446"/><path fill="#EFEFEF" d="M236.475 255.251c7.921 4.93 35.002 11.429 43.813-7.591-8.97-19.682-46.082-134.56-88.184-107.056-11.357 7.419 39.827 94.206 44.371 114.647"/><mask id="UEWXLeBJWY_c" width="164" height="236" x="79" y="121" maskUnits="userSpaceOnUse" style="mask-type:alpha"><path fill="#666" d="M234.254 161.326s-11.165-24.053-30.03-25.84c-22.096-2.094-59.071-14.787-68.59-13.591s-39.252 8.81-27.935 52.126c16.845 64.472-28.557 179.646-28.557 179.646s108.811 7.477 148.494-.28c6.074-43.234 8.536-60.358 13.202-126.628 6.002-50.111-6.584-65.433-6.584-65.433"/></mask><g mask="url(#UEWXLeBJWY_c)"><path fill="#666" d="M230.358 161.651s-7.273-24.378-26.138-26.165c-22.096-2.093-59.071-14.787-68.59-13.591-9.518 1.196-39.252 8.81-27.934 52.127 16.845 64.471-28.557 179.646-28.557 179.646s96.461 7.757 136.143 0c6.075-43.234 8.537-60.358 13.203-126.628 6.001-50.112 1.873-65.389 1.873-65.389"/><path fill="#F8F8F8" d="M202.016 131.298c8.133 8.534 2.775 33.693-2.114 43.083-3.239 6.22-20.964-12.3-45.614-51.448-5.5-11.167 37.56-2.302 47.728 8.365"/><path fill="#8E8E8E" fill-rule="evenodd" d="M190.984 120.208c5.504 2.206 10.77 5.018 13.927 8.331 2.834 2.973 4.223 7.071 4.848 11.168.634 4.158.55 8.767.06 13.247-.974 8.893-3.642 18.036-6.369 23.274-.474.911-1.185 1.784-2.2 2.42a6.1 6.1 0 0 1-3.168.913c-1.935.028-3.758-.772-5.236-1.643-3.046-1.793-6.668-5.124-10.687-9.564-8.141-8.992-18.877-23.629-31.256-43.29a4 4 0 0 1-.204-.364c-1.117-2.267-1.452-5.185.57-7.611 1.623-1.949 4.115-2.679 6.066-3.005 4.138-.693 9.89-.186 15.687.914 5.911 1.122 12.325 2.951 17.962 5.21m-32.547 1.805c11.94 18.866 22.119 32.651 29.652 40.972 3.899 4.306 6.856 6.886 8.815 8.039l.137.079c1.972-4.425 4.025-11.708 4.825-19.02.444-4.05.48-7.918-.016-11.17-.505-3.314-1.497-5.562-2.73-6.855-1.926-2.021-5.856-4.317-11.113-6.425-5.125-2.054-11.039-3.743-16.476-4.775-5.552-1.054-10.17-1.337-12.876-.884z" clip-rule="evenodd"/></g><path fill="#8E8E8E" d="M129.191 201.192c-8.025 4.76-29.758 6.356-38.162-12.847 0-26.262 36.673-80.073 52.693-63.73 11.196 7.659 7.009 86.817-14.531 76.577"/><path fill="#EFEFEF" d="M135.51 203.805c-8.024 4.76-42.452 4.903-50.856-14.3 0-26.263 36.673-80.073 52.693-63.731 11.196 7.659 3.142 57.692-1.837 78.031"/><mask id="UEWXLeBJWY_d" width="45" height="80" x="160" y="69" maskUnits="userSpaceOnUse" style="mask-type:alpha"><path fill="#000" d="M204.845 100.727s-9.945 31.673-7.951 44.937c1.953 13.011-35.437-18.284-35.437-18.284s-3.21-15.749 1.932-47.573c5.142-31.825 41.466 20.917 41.466 20.917z"/></mask><g mask="url(#UEWXLeBJWY_d)"><path fill="#F1AA90" d="M204.843 100.727s-9.945 31.673-7.951 44.937c1.953 13.011-38.747-18.771-38.747-18.771s5.196-9.028 10.338-40.853c5.142-31.824 36.37 14.684 36.37 14.684z"/><path fill="#000" fill-opacity=".5" d="M160.723 78.556s.537 18.897 18.185 37.924c27.964 21.216 42.037 7.946 42.037 7.946l-51.857-53.994z" style="mix-blend-mode:overlay"/></g><path fill="#E4E4E4" d="m196.242 150.248-9.459-12.269s-21.699-8.685-23.124-27.841c-.865 13.59-8.928 13.13-8.928 13.13s15.975 28.379 40.863 29.191z"/><path fill="#E4E4E4" d="M198.286 126.669c2.397 9.074 3.737 12.117 3.737 12.117s2.087 13.463-7.313 13.669l1.373-13.669c.79-4.069 1.769-9.27 2.203-12.117"/><path fill="#F8F8F8" d="M151.203 121.848c1.913 12.434 16.151 28.315 16.151 28.315s4.676 1.637 12.576-4.46c7.9-6.098 6.958-7.748 6.958-7.748-11.269-5.122-22.395-15.883-23.228-27.847 0 0-10.362 5.455-12.457 11.74M198.698 125.391s6.656 11.439 13.964 21.44c-4.184 1.44-6.438-.49-9.36-1.538-3.026-1.086-7.118-7.537-7.118-7.537z"/></g><path fill="#F1AA90" d="M232.806 55.508c-2.78-32.088-25.388-38.68-46.001-32.91-16.999 4.757-26.318 12.409-26.135 34.353.238 28.603 16.38 55.362 26.444 62.255 6.799 4.656 15.508 8.513 25.337 3.379l.11-.057c8.549-4.466 15.341-8.013 19.301-31.904 0 0 1.643-27.054.944-35.116"/><path fill="#411917" d="M183.975 64.13s5.785-3.152 10.468-2.791c3.241.248 7.453 2.494 7.453 2.494s1.175.09-.3-2.859-8.843-2.308-8.843-2.308-4.354.457-8.022 2.9c-1.526 1.022-1.773 2.732-1.773 2.732s.142.674 1.016-.178zM193.024 74.915c1.248-.028 2.222-1.766 2.175-3.882-.046-2.116-1.095-3.81-2.342-3.783s-2.222 1.765-2.175 3.882c.046 2.116 1.095 3.81 2.342 3.782"/><path fill="#411917" fill-rule="evenodd" d="M202.766 69.05s.001.002-.875.462l.876-.46a1.009 1.009 0 1 1-1.788.935 1 1 0 0 0-.074-.108 3 3 0 0 0-.394-.435c-.38-.353-1.023-.806-2.035-1.1-2.019-.59-5.681-.595-11.883 2.446a1.01 1.01 0 0 1-.888-1.812c6.457-3.165 10.658-3.352 13.336-2.571 1.338.39 2.252 1.01 2.843 1.559.293.272.504.525.646.718a4 4 0 0 1 .164.242q.03.047.047.079.01.015.016.028l.006.01.002.005z" clip-rule="evenodd"/><path fill="#411917" d="M230.42 60.877s-5.513-2.607-9.727-1.817c-2.916.546-6.542 3.17-6.542 3.17s-1.058.197.028-2.875 7.819-3.112 7.819-3.112 3.985.054 7.518 2.15c1.47.878 1.84 2.557 1.84 2.557s-.071.685-.936-.083zM220.707 73.622c-1.133-.095-1.935-1.883-1.793-3.993.143-2.111 1.177-3.746 2.31-3.651 1.133.094 1.936 1.882 1.793 3.992s-1.177 3.746-2.31 3.651"/><path fill="#411917" fill-rule="evenodd" d="m215.273 68.138.809.605-.81-.604a1.01 1.01 0 0 0 1.617 1.212l.004-.005.028-.035q.042-.053.137-.159a7.35 7.35 0 0 1 2.863-1.924c1.917-.7 4.891-.818 8.876 2.208a1.008 1.008 0 1 0 1.216-1.606c-4.472-3.395-8.16-3.457-10.79-2.497a9.35 9.35 0 0 0-3.666 2.466 6 6 0 0 0-.258.304l-.017.023-.006.007-.002.003zm1.618 1.211h.001l-.786-.588z" clip-rule="evenodd"/><path fill="#000" fill-opacity=".5" d="M219.9 87.494c-.142.856-3.759 2.573-5.549 3.325-7.29-.786-6.427-1.548-4.303-3.243s10.029-1.151 9.852-.082" style="mix-blend-mode:overlay"/><path fill="#411917" fill-rule="evenodd" d="m211.904 73.005.001.003.001.014.008.061.035.249a31.975 31.975 0 0 0 .892 4.059c.721 2.482 1.897 5.318 3.714 7.162l-.718.708.717-.71c.542.549.871 1.232.903 1.972s-.237 1.442-.716 2.023a1.009 1.009 0 1 1-1.557-1.282c.206-.25.265-.477.257-.654-.007-.176-.084-.4-.322-.64l-.001-.001c-2.176-2.209-3.467-5.442-4.215-8.016a34 34 0 0 1-.95-4.33 11 11 0 0 1-.049-.354l-.002-.02-.001-.007v-.002s-.001-.001 1.001-.118l-1.002.117a1.009 1.009 0 0 1 2.004-.234" clip-rule="evenodd"/><mask id="UEWXLeBJWY_e" width="22" height="13" x="194" y="96" maskUnits="userSpaceOnUse" style="mask-type:alpha"><path fill="#411917" d="m215.077 99.573-20.729-3.339c.37 2.669-.865 9.589 11.878 11.703 6.345 1.053 9.813-5.213 8.851-8.364"/></mask><g mask="url(#UEWXLeBJWY_e)"><path fill="#411917" d="m215.077 99.573-20.729-3.339c.37 2.669-.865 9.589 11.878 11.703 6.345 1.053 9.813-5.213 8.851-8.364"/><path fill="#F8F8F8" d="M216.262 101.181c-7.452 1.183-20.02-2.346-23.348-3.19l-.465-2.773 24.753 2.178c.393-.095.45 1.382-.94 3.785"/><path fill="#EA4F4A" d="M211.71 107.216c-.092 1.684-3.595 2.862-7.825 2.631s-7.584-1.783-7.493-3.467c.092-1.684 3.596-2.862 7.826-2.631s7.584 1.783 7.492 3.467"/></g><path fill="#212121" d="m172.66 83.327-2.915 1.764c-.601-3.219-2.17-10.393-3.633-13.342-1.828-3.686-7.933-.251-12.504-3.068s-6.102-21.63-3.737-29.687c1.892-6.445 11.403-6.44 15.922-5.632 2.154.511 6.968 3.665 8.985 12.193 2.521 10.66-3.176 12.294-4.172 19.705-.797 5.929 1.037 14.515 2.054 18.067"/><path fill="#fff" d="m172.66 83.327-2.915 1.764c-.601-3.219-2.17-10.393-3.633-13.342-1.828-3.686-7.933-.251-12.504-3.068s-6.102-21.63-3.737-29.687c1.892-6.445 11.403-6.44 15.922-5.632 2.154.511 6.968 3.665 8.985 12.193 2.521 10.66-3.176 12.294-4.172 19.705-.797 5.929 1.037 14.515 2.054 18.067" opacity=".5" style="mix-blend-mode:overlay"/><path fill="#212121" d="M220.324 40.02c-20.524 1.904-40.571-2.682-45.149 7.855-3.258 1.325-16.409-8.269-20.092-11.892-4.605-4.528-3.35-15.15 15.902-26.057 15.401-8.725 32.656-8.9 40.253 2.766 1.648-.954 13.502-3.598 20.604 7.906 5.654 9.159 1.254 21.547.238 28.585-.956-1.872-2.849-9.988-11.756-9.162"/><path fill="#F1AA90" d="M152.221 66.92c2.678-4.29 11.951.264 12.974 5.263 1.7 8.295 3.843 16.987 3.843 16.987-1.498 7.264-5.412 4.695-7.88 3.076l-.058-.038c-5.562-2.955-11.558-20.997-8.879-25.287"/><path fill="#000" fill-opacity=".5" d="M161.732 72.546s-7.92-5.772-4.514 6.292c1.885 6.675 3.604-3.963 6.776.233-.099-2.248-.246-3.943-2.262-6.525" style="mix-blend-mode:overlay"/><path fill="#411917" fill-rule="evenodd" d="M158.831 75.456a1.12 1.12 0 0 0 .462 1.513c2.226 1.185 3.26 2.84 3.86 4.675-.492-.246-1.065-.405-1.7-.349-.725.064-1.392.397-1.999.938a1.118 1.118 0 1 0 1.489 1.67c.337-.3.569-.367.707-.379.144-.013.329.02.591.169.574.325 1.148.97 1.868 1.779l.072.081a1.12 1.12 0 0 0 1.937-.943l-.043-.24c-.537-2.983-1.26-6.997-5.731-9.376a1.12 1.12 0 0 0-1.513.462" clip-rule="evenodd"/><path fill="#F8F8F8" d="M121.461 65.664 12.355 76.895c4.207 45.857 10.73 104.246 15.665 152.186 14.448-.213 63.573-6.545 109.107-11.232-3.737-25.06-12.088-109.558-15.666-152.185"/><path fill="#3F568E" fill-rule="evenodd" d="M112.275 91.486a2.695 2.695 0 0 1-2.386 2.972l-38 4.16a2.695 2.695 0 1 1-.586-5.358l38-4.16a2.695 2.695 0 0 1 2.972 2.386M100.182 104.594a2.696 2.696 0 0 1-2.394 2.965l-23.246 2.477a2.696 2.696 0 0 1-.57-5.36l23.245-2.476a2.695 2.695 0 0 1 2.965 2.394" clip-rule="evenodd"/><mask id="UEWXLeBJWY_f" width="34" height="34" x="30" y="88" maskUnits="userSpaceOnUse" style="mask-type:alpha"><path fill="#39B54A" d="M46.38 121.262c9.074.163 16.56-7.06 16.724-16.133.163-9.073-7.06-16.56-16.133-16.723s-16.56 7.06-16.723 16.133 7.06 16.56 16.133 16.723"/></mask><g mask="url(#UEWXLeBJWY_f)"><path fill="#8FC7B8" d="M46.38 121.262c9.074.163 16.56-7.06 16.724-16.133.163-9.073-7.06-16.56-16.133-16.723s-16.56 7.06-16.723 16.133 7.06 16.56 16.133 16.723"/><path fill="#F8F8F8" d="M45.849 106.217a6.858 6.858 0 1 0 .246-13.714 6.858 6.858 0 0 0-.246 13.714M48.805 136.234c7.47.134 13.633-5.812 13.767-13.282s-5.812-13.633-13.282-13.768c-7.47-.134-13.633 5.813-13.767 13.282s5.812 13.634 13.282 13.768"/></g><path fill="#293A6E" fill-rule="evenodd" d="m38.199 142.265 52.452-5.399a2.435 2.435 0 1 1 .499 4.845l-47.607 4.901 5.681 55.189 58.417-6.013-2.841-27.595a2.435 2.435 0 1 1 4.846-.499l3.339 32.44-68.107 7.011z" clip-rule="evenodd"/><path fill="#43826E" fill-rule="evenodd" d="M114.234 138.266a7.49 7.49 0 0 1 1.085 10.537l-29.421 36.173a7.49 7.49 0 0 1-10.536 1.084l-20.974-17.057a7.49 7.49 0 0 1 9.452-11.621l15.163 12.332 24.695-30.363a7.49 7.49 0 0 1 10.536-1.085" clip-rule="evenodd"/><path fill="#F1AA90" d="M3.241 150.21c-.773 6.984 6.294 7.245 12.299 7.779 8.318.74 14.81-.613 15.395-7.184.49-5.508-6.38-8.34-14.697-9.08-2.954-.263-12.046-.113-12.997 8.485"/><path fill="#F1AA90" d="M4.005 162.873c-3.255 13.047 9.135 9.924 11.073 10.086 8.321.699 20.849.795 21.617-8.361.54-6.434-12.679-7.207-21-7.906-2.01-.168-9.595-2.212-11.69 6.181"/><path fill="#F1AA90" d="M6.41 179.379c-1.698 8.482 2.13 8.811 12.884 9.207 8.345.307 14.759-1.381 15.002-7.974.203-5.526-6.804-7.997-15.15-8.304-8.344-.307-11.463.712-12.736 7.071"/><path fill="#F1AA90" d="M12.89 197.616c1.553 6.02 6.118 7.338 10.652 6.538 7.076-1.247 11.968-4.036 10.298-10.351-1.4-5.293-7.97-6.351-15.046-5.103-7.076 1.247-7.076 4.379-5.905 8.916"/></g><defs><clipPath id="UEWXLeBJWY_a"><path fill="#fff" d="M0 0h300v300H0z"/></clipPath><clipPath id="UEWXLeBJWY_b"><rect width="250" height="250" x="25" y="25" fill="#fff" rx="125"/></clipPath></defs></svg>