<svg xmlns="http://www.w3.org/2000/svg" width="240" height="240" fill="none" class="persona-ilustration" viewBox="0 0 240 240"><g clip-path="url(#cqJRjsGpbb_a)"><g clip-path="url(#cqJRjsGpbb_b)"><rect width="200" height="200" x="20" y="20" fill="#D3EDFF" rx="100"/><rect width="73.722" height="73.722" x="123.854" y="180.396" fill="#FFC509" rx="8.776"/><rect width="73.722" height="108.827" x="40.147" y="201.694" fill="#FFF9E1" rx="8.776"/><rect width="45.637" height="5.266" x="54.189" y="219.247" fill="#FFB26F" rx="2.633"/></g><path fill="#3E68F5" d="M40.802 12.546A8.776 8.776 0 0 1 49.58 3.77h56.168a8.777 8.777 0 0 1 8.777 8.776v56.169a8.777 8.777 0 0 1-8.777 8.776H49.579a8.776 8.776 0 0 1-8.777-8.776z"/><path fill="#F8F8F8" fill-rule="evenodd" d="M79.633 32.01c1.212 0 2.194.982 2.194 2.194v4.578a6.29 6.29 0 0 1-3.06 5.396l-1.496.895a2.194 2.194 0 0 1-2.253-3.766l1.497-.895c.573-.343.924-.962.924-1.63v-4.578c0-1.212.983-2.194 2.194-2.194M89.893 25.463c1.212 0 2.194.982 2.194 2.194v3.626a2.194 2.194 0 0 1-4.388 0v-3.626c0-1.212.982-2.194 2.194-2.194M65.885 25.463c1.212 0 2.194.982 2.194 2.194v3.626a2.194 2.194 0 1 1-4.388 0v-3.626c0-1.212.982-2.194 2.194-2.194M90.118 47.691a2.194 2.194 0 0 1 .41 3.076c-2.627 3.437-7.429 5.517-12.64 5.517-5.21 0-10.011-2.08-12.639-5.516a2.194 2.194 0 0 1 3.486-2.666c1.618 2.116 4.984 3.794 9.154 3.794s7.536-1.678 9.154-3.794a2.194 2.194 0 0 1 3.075-.41M58.355 18.25a3.07 3.07 0 0 0-3.072 3.073v10.13a2.194 2.194 0 1 1-4.388 0v-10.13a7.46 7.46 0 0 1 7.46-7.46h10.13a2.194 2.194 0 0 1 0 4.388zM85.099 16.09c0-1.211.982-2.193 2.194-2.193h10.13a7.46 7.46 0 0 1 7.46 7.46v10.13a2.194 2.194 0 1 1-4.388 0v-10.13a3.07 3.07 0 0 0-3.072-3.072h-10.13a2.194 2.194 0 0 1-2.194-2.194M102.689 48.101c1.212 0 2.194.983 2.194 2.194v10.13a7.46 7.46 0 0 1-7.46 7.46h-10.13a2.194 2.194 0 0 1 0-4.388h10.13a3.07 3.07 0 0 0 3.072-3.072v-10.13c0-1.211.982-2.194 2.194-2.194M53.09 48.101c1.212 0 2.194.983 2.194 2.194v10.13a3.07 3.07 0 0 0 3.072 3.072h10.13a2.194 2.194 0 1 1 0 4.388h-10.13a7.46 7.46 0 0 1-7.46-7.46v-10.13c0-1.211.982-2.194 2.194-2.194" clip-rule="evenodd"/><path fill="#3FB4FF" d="M40.802 112.292a8.776 8.776 0 0 1 8.777-8.776h56.168a8.777 8.777 0 0 1 8.777 8.776v56.169a8.777 8.777 0 0 1-8.777 8.776H49.579a8.776 8.776 0 0 1-8.777-8.776z"/><path fill="#3FB4FF" d="M53.09 123.855a2.786 2.786 0 0 1 2.786-2.786h44.578a2.786 2.786 0 0 1 2.787 2.786v33.434a2.786 2.786 0 0 1-2.787 2.786H55.876a2.786 2.786 0 0 1-2.786-2.786z"/><path fill="#fff" fill-rule="evenodd" d="M50.896 123.855a4.98 4.98 0 0 1 4.98-4.98h44.578a4.98 4.98 0 0 1 4.981 4.98v33.434a4.98 4.98 0 0 1-4.981 4.98H55.876a4.98 4.98 0 0 1-4.98-4.98zm4.98-.592a.59.59 0 0 0-.592.592v33.434c0 .327.265.592.592.592h44.578a.59.59 0 0 0 .592-.592v-33.434a.59.59 0 0 0-.592-.592z" clip-rule="evenodd"/><path fill="#fff" fill-rule="evenodd" d="M59.254 129.427c0-1.212.982-2.195 2.194-2.195h33.434a2.195 2.195 0 0 1 0 4.389H61.448a2.194 2.194 0 0 1-2.194-2.194M59.254 137.785c0 1.212.982 2.194 2.194 2.194h8.358a2.194 2.194 0 1 0 0-4.388h-8.358a2.194 2.194 0 0 0-2.194 2.194M59.254 146.144c0 1.212.982 2.194 2.194 2.194h8.358a2.194 2.194 0 1 0 0-4.388h-8.358a2.194 2.194 0 0 0-2.194 2.194" clip-rule="evenodd"/><path fill="#3FB4FF" d="M83.737 137.785h11.145v13.931H83.737z"/><path fill="#fff" fill-rule="evenodd" d="M81.543 137.785c0-1.212.982-2.194 2.194-2.194h11.145c1.211 0 2.194.982 2.194 2.194v13.931a2.194 2.194 0 0 1-2.194 2.194H83.737a2.194 2.194 0 0 1-2.194-2.194zm4.388 2.194v9.543h6.757v-9.543z" clip-rule="evenodd"/><path fill="#FFF9E1" d="M124.556 55.694a8.776 8.776 0 0 1 8.776-8.777h56.169a8.776 8.776 0 0 1 8.776 8.777v91.274a8.776 8.776 0 0 1-8.776 8.776h-56.169a8.776 8.776 0 0 1-8.776-8.776z"/><path fill="#FFB26F" d="M138.598 67.103a2.633 2.633 0 0 1 2.633-2.632h40.371a2.633 2.633 0 0 1 0 5.265h-40.371a2.633 2.633 0 0 1-2.633-2.633M138.598 84.656a2.633 2.633 0 0 1 2.633-2.633h40.371a2.633 2.633 0 0 1 0 5.266h-40.371a2.633 2.633 0 0 1-2.633-2.633M138.598 102.208a2.633 2.633 0 0 1 2.633-2.633h40.371a2.633 2.633 0 0 1 0 5.266h-40.371a2.633 2.633 0 0 1-2.633-2.633M138.598 119.761a2.633 2.633 0 0 1 2.633-2.633h40.371a2.633 2.633 0 0 1 0 5.266h-40.371a2.633 2.633 0 0 1-2.633-2.633M138.598 137.314a2.633 2.633 0 0 1 2.633-2.633h40.371a2.633 2.633 0 0 1 0 5.266h-40.371a2.633 2.633 0 0 1-2.633-2.633"/><mask id="cqJRjsGpbb_c" width="51" height="51" x="167" y="18" maskUnits="userSpaceOnUse" style="mask-type:alpha"><path fill="#009444" d="M192.999 68.499c13.807 0 25-11.193 25-25s-11.193-25-25-25-25 11.192-25 25 11.193 25 25 25"/></mask><g mask="url(#cqJRjsGpbb_c)"><path fill="#239842" d="M192.999 68.499c13.807 0 25-11.193 25-25s-11.193-25-25-25-25 11.192-25 25 11.193 25 25 25"/><path fill="#38BA58" d="M187.077 62.74c13.807 0 25-11.193 25-25s-11.193-25-25-25-25 11.193-25 25 11.193 25 25 25"/><path fill="#F8F8F8" fill-rule="evenodd" d="M206.684 33.862a4.68 4.68 0 0 1-.002 6.621L194.03 53.13a4.68 4.68 0 0 1-6.621-.002l-8.099-8.105a4.681 4.681 0 1 1 6.623-6.618l4.79 4.793 9.34-9.336a4.68 4.68 0 0 1 6.621.001" clip-rule="evenodd"/></g><path fill="#fff" d="M51.459 86.508a3.394 3.394 0 0 1 3.393-3.393h45.247a3.394 3.394 0 0 1 0 6.787H54.852a3.393 3.393 0 0 1-3.393-3.394"/><path fill="#38BA58" d="M51.459 86.508a3.394 3.394 0 0 1 3.393-3.393h33.935a3.394 3.394 0 0 1 0 6.787H54.852a3.393 3.393 0 0 1-3.393-3.394"/><path fill="#38BA58" fill-rule="evenodd" d="M88.787 85.377H54.852a1.131 1.131 0 1 0 0 2.263h33.935a1.131 1.131 0 1 0 0-2.263m-33.935-2.262a3.394 3.394 0 0 0 0 6.787h33.935a3.394 3.394 0 1 0 0-6.787z" clip-rule="evenodd"/><path fill="#fff" d="M51.459 186.052a3.393 3.393 0 0 1 3.393-3.393h45.247a3.394 3.394 0 1 1 0 6.787H54.852a3.394 3.394 0 0 1-3.393-3.394"/><path fill="#38BA58" d="M51.459 186.052a3.393 3.393 0 0 1 3.393-3.393h15.837a3.393 3.393 0 1 1 0 6.787H54.852a3.394 3.394 0 0 1-3.393-3.394"/><path fill="#38BA58" fill-rule="evenodd" d="M70.689 184.921H54.852a1.13 1.13 0 1 0 0 2.262h15.837a1.13 1.13 0 1 0 0-2.262m-15.837-2.262a3.393 3.393 0 1 0 0 6.787h15.837a3.394 3.394 0 0 0 0-6.787z" clip-rule="evenodd"/><path fill="#38BA58" d="M132.904 163.429a3.393 3.393 0 0 1 3.393-3.394h45.247a3.394 3.394 0 1 1 0 6.787h-45.247a3.393 3.393 0 0 1-3.393-3.393"/><path fill="#38BA58" fill-rule="evenodd" d="M181.544 162.298h-45.247a1.13 1.13 0 1 0 0 2.262h45.247a1.131 1.131 0 0 0 0-2.262m-45.247-2.263a3.393 3.393 0 0 0 0 6.787h45.247a3.394 3.394 0 1 0 0-6.787z" clip-rule="evenodd"/></g><defs><clipPath id="cqJRjsGpbb_a"><path fill="#fff" d="M0 0h240v240H0z"/></clipPath><clipPath id="cqJRjsGpbb_b"><rect width="200" height="200" x="20" y="20" fill="#fff" rx="100"/></clipPath></defs></svg>