<svg xmlns="http://www.w3.org/2000/svg" width="150" height="150" fill="none" class="persona-ilustration" viewBox="0 0 150 150"><g clip-path="url(#tpiseD05cI_a)"><g clip-path="url(#tpiseD05cI_b)"><rect width="125" height="125" x="12.5" y="12.5" fill="#D3EDFF" rx="62.5"/><path fill="#30457A" d="M72.2 81.688C48.859 53.643 38.88 49.617 27.907 55.98s19.243 110.362 19.243 110.362l49.132 2.95-.08-.472c-3.962-23.142-12.563-73.392-24-87.132"/><path fill="#3F568E" d="M98.471 63.012c-9.846-15.068-55.325-12.102-67.157-8.72s12.843 79.719 12.843 79.719l54.315 30.224c-3.924-22.923 9.845-86.155 0-101.223"/><path fill="#EFEFEF" d="M118.238 127.625c3.96 2.466 17.501 5.715 21.906-3.795-4.485-9.841-23.041-67.28-44.092-53.528-5.678 3.71 19.914 47.103 22.186 57.323"/><mask id="tpiseD05cI_c" width="83" height="119" x="39" y="60" maskUnits="userSpaceOnUse" style="mask-type:alpha"><path fill="#666" d="M117.127 80.663s-5.583-12.027-15.015-12.92c-11.048-1.047-29.535-7.394-34.295-6.796S48.191 65.352 53.85 87.011c8.422 32.235-14.279 89.823-14.279 89.823s54.406 3.738 74.247-.14c3.037-21.617 4.268-30.179 6.601-63.314 3.001-25.056-3.292-32.717-3.292-32.717"/></mask><g mask="url(#tpiseD05cI_c)"><path fill="#666" d="M115.179 80.825s-3.636-12.189-13.069-13.082c-11.048-1.047-29.535-7.394-34.295-6.796S48.19 65.352 53.848 87.011c8.422 32.235-14.279 89.823-14.279 89.823s48.231 3.878 68.072 0c3.037-21.617 4.268-30.179 6.602-63.314 3-25.056.936-32.695.936-32.695"/><path fill="#F8F8F8" d="M101.008 65.65c4.067 4.266 1.388 16.846-1.057 21.54-1.62 3.11-10.482-6.15-22.807-25.723-2.75-5.584 18.78-1.151 23.864 4.182"/><path fill="#8E8E8E" fill-rule="evenodd" d="M95.492 60.104c2.752 1.103 5.385 2.51 6.964 4.165 1.417 1.487 2.111 3.536 2.423 5.584.317 2.08.276 4.384.03 6.624-.486 4.447-1.82 9.018-3.184 11.637a3.1 3.1 0 0 1-1.1 1.21c-.51.32-1.062.449-1.584.457-.968.014-1.879-.387-2.618-.822-1.523-.896-3.334-2.562-5.344-4.782-4.07-4.496-9.438-11.815-15.628-21.645a2 2 0 0 1-.101-.182c-.559-1.133-.726-2.592.285-3.806.811-.974 2.057-1.339 3.033-1.502 2.069-.346 4.944-.093 7.843.457 2.956.561 6.163 1.475 8.98 2.605m-16.273.903c5.97 9.432 11.059 16.325 14.826 20.486 1.949 2.153 3.428 3.443 4.407 4.02l.069.039c.986-2.213 2.012-5.854 2.412-9.51.222-2.025.24-3.96-.008-5.585-.253-1.657-.748-2.781-1.365-3.428-.963-1.01-2.928-2.158-5.556-3.212-2.563-1.027-5.52-1.872-8.239-2.388-2.775-.527-5.084-.668-6.437-.442z" clip-rule="evenodd"/></g><path fill="#8E8E8E" d="M64.595 100.596c-4.012 2.38-14.879 3.178-19.08-6.423 0-13.132 18.336-40.037 26.346-31.866 5.598 3.83 3.504 43.409-7.266 38.289"/><path fill="#EFEFEF" d="M67.755 101.902c-4.012 2.381-21.226 2.452-25.428-7.15 0-13.131 18.336-40.036 26.346-31.865 5.598 3.83 1.572 28.846-.918 39.015"/><mask id="tpiseD05cI_d" width="23" height="41" x="80" y="34" maskUnits="userSpaceOnUse" style="mask-type:alpha"><path fill="#000" d="M102.422 50.363S97.45 66.2 98.447 72.832c.977 6.506-17.719-9.142-17.719-9.142s-1.604-7.875.967-23.787c2.57-15.912 20.732 10.459 20.732 10.459z"/></mask><g mask="url(#tpiseD05cI_d)"><path fill="#F1AA90" d="M102.422 50.363S97.449 66.2 98.446 72.832c.977 6.506-19.373-9.385-19.373-9.385s2.598-4.515 5.169-20.427 18.185 7.342 18.185 7.342z"/><path fill="#000" fill-opacity=".5" d="M80.361 39.278s.27 9.449 9.093 18.962c13.982 10.608 21.018 3.973 21.018 3.973L84.544 35.216z" style="mix-blend-mode:overlay"/></g><path fill="#E4E4E4" d="m98.121 75.124-4.73-6.134s-10.85-4.343-11.561-13.92c-.433 6.794-4.464 6.564-4.464 6.564s7.987 14.19 20.431 14.596z"/><path fill="#E4E4E4" d="M99.143 63.335c1.198 4.536 1.869 6.058 1.869 6.058s1.043 6.732-3.657 6.835l.687-6.835c.395-2.034.884-4.635 1.101-6.059"/><path fill="#F8F8F8" d="M75.602 60.924c.956 6.217 8.075 14.157 8.075 14.157s2.338.82 6.288-2.23c3.95-3.048 3.479-3.874 3.479-3.874-5.634-2.56-11.197-7.941-11.614-13.923 0 0-5.181 2.728-6.228 5.87M99.349 62.695s3.328 5.72 6.982 10.72c-2.092.72-3.219-.244-4.68-.769-1.513-.543-3.56-3.768-3.56-3.768z"/></g><path fill="#F1AA90" d="M116.403 27.754c-1.39-16.044-12.694-19.34-23-16.455-8.5 2.379-13.16 6.204-13.068 17.177.119 14.3 8.19 27.68 13.222 31.127 3.4 2.328 7.754 4.256 12.668 1.69l.055-.03c4.275-2.232 7.671-4.005 9.651-15.951 0 0 .821-13.527.472-17.558"/><path fill="#411917" d="M91.988 32.065s2.892-1.576 5.234-1.396c1.62.124 3.726 1.247 3.726 1.247s.588.045-.15-1.43-4.422-1.153-4.422-1.153-2.176.228-4.01 1.45c-.764.51-.887 1.366-.887 1.366s.07.337.508-.09zM96.512 37.457c.624-.013 1.11-.882 1.088-1.94-.024-1.059-.548-1.906-1.172-1.892s-1.11.883-1.087 1.94c.023 1.06.547 1.906 1.17 1.892"/><path fill="#411917" fill-rule="evenodd" d="m101.383 34.525-.438.23.439-.23a.505.505 0 0 1-.89.476l-.005-.008-.036-.054a1.6 1.6 0 0 0-.198-.217c-.19-.177-.511-.403-1.017-.55-1.01-.295-2.84-.298-5.942 1.223a.504.504 0 0 1-.444-.906c3.229-1.583 5.33-1.676 6.669-1.286.668.195 1.126.505 1.421.78a2.6 2.6 0 0 1 .405.48l.024.04.007.013.003.006.002.002" clip-rule="evenodd"/><path fill="#411917" d="M115.21 30.438s-2.756-1.303-4.863-.908c-1.459.273-3.272 1.585-3.272 1.585s-.529.098.014-1.437c.544-1.537 3.91-1.556 3.91-1.556s1.992.027 3.759 1.075c.735.438.92 1.278.92 1.278s-.036.342-.468-.042zM110.353 36.81c-.566-.046-.967-.94-.896-1.996.071-1.055.588-1.872 1.155-1.825.566.047.968.94.896 1.996s-.588 1.873-1.155 1.826"/><path fill="#411917" fill-rule="evenodd" d="m107.637 34.069.404.303-.405-.303a.506.506 0 0 0 .809.607l.001-.003.015-.018a3 3 0 0 1 .358-.362 3.7 3.7 0 0 1 1.142-.679c.958-.35 2.445-.409 4.438 1.104a.503.503 0 1 0 .607-.803c-2.236-1.697-4.079-1.729-5.395-1.249a4.7 4.7 0 0 0-1.832 1.233 3 3 0 0 0-.101.117l-.028.036-.009.01-.003.005zm.808.606.001-.001-.393-.293c.39.291.393.293.392.294" clip-rule="evenodd"/><path fill="#000" fill-opacity=".5" d="M109.95 43.747c-.071.428-1.879 1.286-2.775 1.662-3.644-.393-3.213-.774-2.151-1.621s5.015-.576 4.926-.041" style="mix-blend-mode:overlay"/><path fill="#411917" fill-rule="evenodd" d="m105.952 36.503.001.008.004.03.017.125a16.259 16.259 0 0 0 .446 2.03c.361 1.24.949 2.658 1.858 3.58l-.36.354.359-.354c.271.274.436.615.451.985s-.118.721-.357 1.012a.504.504 0 0 1-.779-.641.48.48 0 0 0 .129-.327.5.5 0 0 0-.161-.32h-.001c-1.088-1.105-1.733-2.722-2.107-4.008a17 17 0 0 1-.495-2.305l-.005-.038-.001-.01-.001-.003v-.001l.501-.059-.501.058a.504.504 0 0 1 1.002-.117" clip-rule="evenodd"/><mask id="tpiseD05cI_e" width="11" height="7" x="97" y="48" maskUnits="userSpaceOnUse" style="mask-type:alpha"><path fill="#411917" d="m107.538 49.786-10.364-1.669c.185 1.334-.433 4.795 5.939 5.852 3.172.526 4.906-2.607 4.425-4.183"/></mask><g mask="url(#tpiseD05cI_e)"><path fill="#411917" d="m107.538 49.786-10.364-1.669c.185 1.334-.433 4.795 5.939 5.852 3.172.526 4.906-2.607 4.425-4.183"/><path fill="#F8F8F8" d="M108.131 50.59c-3.726.592-10.01-1.172-11.674-1.595l-.232-1.386 12.376 1.09c.196-.049.225.69-.47 1.891"/><path fill="#EA4F4A" d="M105.855 53.608c-.046.842-1.798 1.431-3.913 1.316-2.115-.116-3.792-.892-3.746-1.734s1.798-1.43 3.913-1.315 3.792.891 3.746 1.733"/></g><path fill="#212121" d="m86.33 41.664-1.458.882c-.3-1.61-1.085-5.197-1.816-6.671-.914-1.843-3.967-.126-6.252-1.535-2.286-1.408-3.051-10.814-1.869-14.843.946-3.222 5.702-3.22 7.961-2.816 1.078.256 3.484 1.833 4.493 6.097 1.26 5.33-1.588 6.147-2.086 9.852-.398 2.965.519 7.258 1.027 9.034"/><path fill="#fff" d="m86.33 41.664-1.458.882c-.3-1.61-1.085-5.197-1.816-6.671-.914-1.843-3.967-.126-6.252-1.535-2.286-1.408-3.051-10.814-1.869-14.843.946-3.222 5.702-3.22 7.961-2.816 1.078.256 3.484 1.833 4.493 6.097 1.26 5.33-1.588 6.147-2.086 9.852-.398 2.965.519 7.258 1.027 9.034" opacity=".5" style="mix-blend-mode:overlay"/><path fill="#212121" d="M110.162 20.01c-10.262.952-20.286-1.34-22.575 3.927-1.628.663-8.204-4.134-10.046-5.945-2.302-2.265-1.675-7.576 7.951-13.029C93.193.601 101.821.513 105.62 6.346c.824-.477 6.751-1.799 10.302 3.953 2.827 4.58.627 10.774.119 14.293-.478-.936-1.424-4.995-5.878-4.582"/><path fill="#F1AA90" d="M76.11 33.46c1.34-2.145 5.976.132 6.487 2.631.85 4.148 1.922 8.494 1.922 8.494-.749 3.632-2.706 2.348-3.94 1.538l-.029-.02c-2.78-1.477-5.779-10.497-4.44-12.643"/><path fill="#000" fill-opacity=".5" d="M80.866 36.273s-3.96-2.886-2.257 3.146c.942 3.337 1.802-1.982 3.388.117-.05-1.125-.123-1.972-1.131-3.263" style="mix-blend-mode:overlay"/><path fill="#411917" fill-rule="evenodd" d="M79.416 37.728a.56.56 0 0 0 .23.757c1.114.592 1.63 1.42 1.93 2.337a1.6 1.6 0 0 0-.85-.175c-.362.033-.696.199-1 .47a.56.56 0 1 0 .745.835c.169-.15.285-.184.354-.19a.5.5 0 0 1 .296.084c.287.163.574.485.933.89l.037.04a.56.56 0 0 0 .968-.471l-.022-.12c-.268-1.491-.63-3.499-2.865-4.688a.56.56 0 0 0-.757.23" clip-rule="evenodd"/><path fill="#F8F8F8" d="M60.73 32.832 6.178 38.447c2.104 22.929 5.366 52.123 7.833 76.093 7.224-.106 31.787-3.272 54.553-5.615-1.868-12.53-6.043-54.78-7.832-76.093"/><path fill="#3F568E" fill-rule="evenodd" d="M56.138 45.743a1.347 1.347 0 0 1-1.193 1.486l-19 2.08a1.347 1.347 0 0 1-.293-2.68l19-2.079a1.347 1.347 0 0 1 1.486 1.193M50.09 52.297a1.35 1.35 0 0 1-1.196 1.483L37.27 55.018a1.347 1.347 0 1 1-.285-2.68L48.608 51.1a1.347 1.347 0 0 1 1.483 1.197" clip-rule="evenodd"/><mask id="tpiseD05cI_f" width="17" height="17" x="15" y="44" maskUnits="userSpaceOnUse" style="mask-type:alpha"><path fill="#39B54A" d="M23.19 60.631a8.215 8.215 0 1 0 .295-16.428 8.215 8.215 0 0 0-.295 16.428"/></mask><g mask="url(#tpiseD05cI_f)"><path fill="#8FC7B8" d="M23.19 60.631a8.215 8.215 0 1 0 .295-16.428 8.215 8.215 0 0 0-.295 16.428"/><path fill="#F8F8F8" d="M22.924 53.108a3.429 3.429 0 1 0 .123-6.856 3.429 3.429 0 0 0-.123 6.856M24.402 68.117a6.763 6.763 0 1 0 .243-13.525 6.763 6.763 0 0 0-.243 13.525"/></g><path fill="#293A6E" fill-rule="evenodd" d="m19.1 71.133 26.225-2.7a1.218 1.218 0 1 1 .25 2.423l-23.803 2.45 2.84 27.595 29.209-3.007-1.42-13.797a1.218 1.218 0 1 1 2.422-.25l1.67 16.22-34.054 3.506z" clip-rule="evenodd"/><path fill="#43826E" fill-rule="evenodd" d="M57.117 69.133a3.745 3.745 0 0 1 .542 5.268L42.95 92.488a3.745 3.745 0 0 1-5.268.542l-10.487-8.529a3.745 3.745 0 0 1 4.726-5.81l7.581 6.166L51.85 69.676a3.745 3.745 0 0 1 5.268-.543" clip-rule="evenodd"/><path fill="#F1AA90" d="M1.62 75.105c-.386 3.492 3.147 3.622 6.15 3.89 4.159.37 7.405-.307 7.697-3.593.245-2.754-3.19-4.17-7.348-4.54-1.477-.13-6.023-.056-6.499 4.243"/><path fill="#F1AA90" d="M2.003 81.436C.375 87.96 6.57 86.398 7.538 86.48c4.16.349 10.424.397 10.809-4.181.27-3.217-6.34-3.604-10.5-3.953-1.006-.084-4.798-1.106-5.845 3.09"/><path fill="#F1AA90" d="M3.205 89.69c-.85 4.24 1.065 4.405 6.442 4.603 4.172.153 7.38-.69 7.5-3.987.102-2.763-3.401-3.999-7.574-4.152-4.172-.154-5.732.356-6.368 3.536"/><path fill="#F1AA90" d="M6.444 98.808c.777 3.01 3.06 3.669 5.327 3.269 3.538-.623 5.984-2.018 5.149-5.175-.7-2.647-3.985-3.176-7.523-2.552s-3.538 2.19-2.953 4.458"/></g><defs><clipPath id="tpiseD05cI_a"><path fill="#fff" d="M0 0h150v150H0z"/></clipPath><clipPath id="tpiseD05cI_b"><rect width="125" height="125" x="12.5" y="12.5" fill="#fff" rx="62.5"/></clipPath></defs></svg>