<svg xmlns="http://www.w3.org/2000/svg" width="16" height="16" fill="none" class="persona-icon" viewBox="0 0 16 16"><path fill="currentColor" fill-rule="evenodd" d="M4.589 2.627A2.59 2.59 0 0 0 2 5.215v5.57a2.59 2.59 0 0 0 2.589 2.588h9.746a.5.5 0 0 0 .445-.728L14 11.128V5.215a2.59 2.59 0 0 0-2.589-2.588zM3 5.215c0-.877.711-1.588 1.589-1.588h6.822c.878 0 1.589.71 1.589 1.588v6.155l.516 1.003H4.589A1.59 1.59 0 0 1 3 10.785zm2.981.893a.5.5 0 0 0 0 1h4.177a.5.5 0 0 0 0-1zm0 2.784a.5.5 0 0 0 0 1h2.61a.5.5 0 1 0 0-1z" clip-rule="evenodd"/></svg>