<svg xmlns="http://www.w3.org/2000/svg" width="16" height="16" fill="none" class="persona-icon" viewBox="0 0 16 16"><path fill="currentColor" d="M1 4.864C1 3.282 2.251 2 3.794 2h7.483c1.543 0 2.794 1.282 2.794 2.864v6.669l.873 1.718c.08.159.074.35-.017.502A.497.497 0 0 1 14.5 14H3.794C2.251 14 1 12.718 1 11.136V4.864Zm2.794-1.839C2.804 3.025 2 3.85 2 4.865v6.27c0 1.016.803 1.84 1.794 1.84h9.882l-.605-1.191v-6.92c0-1.015-.803-1.839-1.794-1.839H3.794Z"/><path fill="currentColor" d="M4.824 6.432c0-.283.223-.512.5-.512h4.588c.276 0 .5.23.5.512a.506.506 0 0 1-.5.513H5.323c-.276 0-.5-.23-.5-.513Zm0 3.136c0-.283.223-.513.5-.513H8.19c.276 0 .5.23.5.513a.506.506 0 0 1-.5.512H5.323c-.276 0-.5-.23-.5-.512Z"/></svg>