<svg xmlns="http://www.w3.org/2000/svg" width="16" height="16" fill="none" class="persona-icon" viewBox="0 0 16 16"><path fill="currentColor" d="M5.932 6.09a.51.51 0 0 0-.506.511.51.51 0 0 0 .506.512h4.23a.51.51 0 0 0 .507-.512.51.51 0 0 0-.506-.511zM5.932 8.94a.51.51 0 0 0-.506.512.51.51 0 0 0 .506.512h2.644a.51.51 0 0 0 .507-.512.51.51 0 0 0-.507-.512z"/><path fill="currentColor" fill-rule="evenodd" d="M4.522 2.527c-1.448 0-2.622 1.186-2.622 2.65v5.7c0 1.463 1.174 2.65 2.622 2.65h9.872c.176 0 .34-.093.432-.246a.52.52 0 0 0 .018-.5l-.79-1.553V5.176c0-1.463-1.174-2.65-2.622-2.65zm-1.61 2.65c0-.899.721-1.627 1.61-1.627h6.91c.889 0 1.61.728 1.61 1.626v6.3l.522 1.027H4.522a1.62 1.62 0 0 1-1.61-1.626z" clip-rule="evenodd"/></svg>