<svg xmlns="http://www.w3.org/2000/svg" width="20" height="20" fill="none" class="persona-icon" viewBox="0 0 20 20"><path fill="currentColor" fill-rule="evenodd" d="M6.03 3.704h7.94a3.055 3.055 0 0 1 3.055 3.056v6.87l.903 1.755a.625.625 0 0 1-.556.91H6.03a3.055 3.055 0 0 1-3.055-3.055V6.76A3.055 3.055 0 0 1 6.03 3.704M4.225 6.76v6.48c0 .998.808 1.806 1.805 1.806h10.318l-.573-1.114V6.76c0-.998-.808-1.806-1.805-1.806H6.03c-.997 0-1.805.808-1.805 1.806m3.426.995h4.86a.625.625 0 0 1 0 1.25h-4.86a.625.625 0 1 1 0-1.25m0 3.24h3.038a.625.625 0 0 1 0 1.25H7.65a.625.625 0 0 1 0-1.25" clip-rule="evenodd"/></svg>