<svg xmlns="http://www.w3.org/2000/svg" width="24" height="24" fill="none" class="persona-icon" viewBox="0 0 24 24"><path fill="currentColor" fill-rule="evenodd" d="M6.883 3.94h10.234A3.883 3.883 0 0 1 21 7.823v8.87l1.17 2.275a.75.75 0 0 1-.667 1.093H6.883A3.883 3.883 0 0 1 3 16.178V7.823A3.883 3.883 0 0 1 6.883 3.94M4.5 7.823v8.355a2.383 2.383 0 0 0 2.383 2.383h13.391l-.774-1.506V7.823a2.383 2.383 0 0 0-2.383-2.383H6.883A2.383 2.383 0 0 0 4.5 7.823m4.472 1.339h6.265a.75.75 0 1 1 0 1.5H8.972a.75.75 0 1 1 0-1.5m0 4.177h3.916a.75.75 0 0 1 0 1.5H8.972a.75.75 0 1 1 0-1.5" clip-rule="evenodd"/></svg>