<svg xmlns="http://www.w3.org/2000/svg" width="24" height="24" fill="none" class="persona-icon" viewBox="0 0 24 24"><path fill="currentColor" fill-rule="evenodd" d="M6.883 3.94A3.883 3.883 0 0 0 3 7.823v8.355a3.883 3.883 0 0 0 3.883 3.883h14.62a.75.75 0 0 0 .667-1.093L21 16.692V7.823a3.883 3.883 0 0 0-3.883-3.883zM4.5 7.823A2.383 2.383 0 0 1 6.883 5.44h10.234A2.383 2.383 0 0 1 19.5 7.823v9.232l.774 1.506H6.883A2.383 2.383 0 0 1 4.5 16.178zm4.472 1.339h6.265a.75.75 0 1 1 0 1.5H8.972a.75.75 0 1 1 0-1.5m0 4.177h3.916a.75.75 0 0 1 0 1.5H8.972a.75.75 0 1 1 0-1.5" clip-rule="evenodd"/></svg>