<svg xmlns="http://www.w3.org/2000/svg" width="16" height="16" fill="none" class="persona-icon" viewBox="0 0 16 16"><path fill="currentColor" fill-rule="evenodd" d="M6.19 9.722c-.85 0-1.657.372-2.208 1.018a1.2 1.2 0 0 0-.288.78v.147c0 .736.597 1.333 1.334 1.333H6.86a.5.5 0 1 1 0 1H5.028a2.333 2.333 0 0 1-2.334-2.333v-.147a2.2 2.2 0 0 1 .527-1.43A3.9 3.9 0 0 1 6.19 8.723h1.055a.5.5 0 1 1 0 1zM4.527 4.945a2.944 2.944 0 1 1 5.888 0 2.944 2.944 0 0 1-5.888 0M7.472 3a1.944 1.944 0 1 0 0 3.889 1.944 1.944 0 0 0 0-3.889m1.475 8.89a.5.5 0 0 1 .5.5v.497a.5.5 0 1 1-1 0v-.497a.5.5 0 0 1 .5-.5m2.138-3.926a2.79 2.79 0 0 1 2.93 2.522.5.5 0 1 1-.996.095 1.79 1.79 0 0 0-3.572.194.5.5 0 1 1-1 .014 2.79 2.79 0 0 1 2.638-2.825m-.612 3.894a.5.5 0 0 1 .5.5v.975a.5.5 0 1 1-1 0v-.975a.5.5 0 0 1 .5-.5m-.13-1.88a1.261 1.261 0 0 1 2.152.883 1 1 0 0 1 .005.068v2.57a.5.5 0 1 1-1 0v-2.562a1 1 0 0 1-.005-.068.26.26 0 1 0-.522 0 .5.5 0 0 1-1 0c0-.334.133-.655.37-.892m3.184 1.618a.5.5 0 0 1 .5.5V13a.5.5 0 1 1-1 0v-.904a.5.5 0 0 1 .5-.5" clip-rule="evenodd"/></svg>