<svg xmlns="http://www.w3.org/2000/svg" width="16" height="16" fill="none" class="persona-icon" viewBox="0 0 16 16"><path fill="currentColor" fill-rule="evenodd" d="M3.737 5.212c0-1.498 1.26-2.712 2.816-2.712s2.815 1.214 2.815 2.712-1.26 2.712-2.815 2.712c-1.556 0-2.816-1.214-2.816-2.712m2.816-1.749c-1.003 0-1.816.783-1.816 1.749s.813 1.749 1.816 1.749 1.815-.783 1.815-1.749-.812-1.749-1.815-1.749M5.337 9.597c-.797 0-1.553.336-2.07.92-.173.193-.267.44-.267.695v.134c0 .658.554 1.19 1.237 1.19h2.026c.276 0 .5.216.5.482a.49.49 0 0 1-.5.482H4.237C3.002 13.5 2 12.536 2 11.346v-.134c0-.484.18-.953.506-1.32a3.78 3.78 0 0 1 2.831-1.258h1.216c.276 0 .5.215.5.481a.49.49 0 0 1-.5.482zM8.968 8.439a.47.47 0 0 1-.016.68 2.26 2.26 0 0 0-.742 1.669v2.231a.49.49 0 0 1-.5.481.49.49 0 0 1-.5-.482v-2.23c0-.93.404-1.77 1.051-2.365a.514.514 0 0 1 .707.016m1.637.043q-.247 0-.48.046a.5.5 0 0 1-.589-.376.48.48 0 0 1 .39-.568q.33-.065.68-.066c1.874 0 3.394 1.464 3.394 3.27a.49.49 0 0 1-.5.482.49.49 0 0 1-.5-.482c0-1.274-1.072-2.306-2.395-2.306M13.5 11.7c.276 0 .5.215.5.481v.836a.49.49 0 0 1-.5.482.49.49 0 0 1-.5-.482v-.836c0-.266.224-.482.5-.482" clip-rule="evenodd"/><path fill="currentColor" fill-rule="evenodd" d="M9.91 10.118c-.147.141-.252.361-.252.67a.49.49 0 0 1-.5.482.49.49 0 0 1-.5-.482c0-.528.185-1.005.544-1.351s.855-.525 1.403-.525c.543 0 1.035.175 1.394.516a.47.47 0 0 1 .005.681.514.514 0 0 1-.707.005c-.147-.14-.374-.238-.692-.238-.32 0-.549.1-.696.242M9.157 11.7c.276 0 .5.216.5.482v.836a.49.49 0 0 1-.5.482.49.49 0 0 1-.5-.482v-.836c0-.266.224-.482.5-.482m1.447-1.393c.276 0 .5.215.5.481v2.23a.49.49 0 0 1-.5.482.49.49 0 0 1-.5-.482v-2.23c0-.266.224-.482.5-.482m1.448.278c.276 0 .5.216.5.482v1.951a.49.49 0 0 1-.5.482.49.49 0 0 1-.5-.482v-1.951c0-.266.223-.482.5-.482" clip-rule="evenodd"/></svg>