<svg xmlns="http://www.w3.org/2000/svg" width="20" height="20" fill="none" class="persona-icon" viewBox="0 0 20 20"><path fill="currentColor" fill-rule="evenodd" d="M6.077 12.455c-.968 0-1.888.426-2.517 1.165a1.36 1.36 0 0 0-.322.878v.17c0 .831.67 1.505 1.498 1.505h2.47a.62.62 0 0 1 .618.621.62.62 0 0 1-.618.622h-2.47A2.74 2.74 0 0 1 2 14.668v-.17a2.6 2.6 0 0 1 .619-1.684 4.54 4.54 0 0 1 3.458-1.602h1.482a.62.62 0 0 1 .618.621.62.62 0 0 1-.618.622zm-1.96-5.583a3.45 3.45 0 0 1 3.442-3.456c1.9 0 3.441 1.547 3.441 3.456a3.45 3.45 0 0 1-3.441 3.457 3.45 3.45 0 0 1-3.442-3.457M7.559 4.66c-1.218 0-2.204.99-2.204 2.213s.986 2.214 2.204 2.214a2.21 2.21 0 0 0 2.203-2.214A2.21 2.21 0 0 0 7.56 4.66M11.053 11.19a.6.6 0 0 1-.02.848 2.8 2.8 0 0 0-.873 2.04v2.738a.6.6 0 1 1-1.2 0v-2.737c0-1.144.478-2.177 1.245-2.909a.6.6 0 0 1 .848.02m1.928.068q-.292.001-.565.056a.6.6 0 0 1-.239-1.176q.391-.08.804-.08c2.22 0 4.021 1.8 4.021 4.02a.6.6 0 1 1-1.2 0 2.82 2.82 0 0 0-2.82-2.82m3.421 3.931a.6.6 0 0 1 .6.6v1.027a.6.6 0 0 1-1.2 0v-1.027a.6.6 0 0 1 .6-.6" clip-rule="evenodd"/><path fill="currentColor" fill-rule="evenodd" d="M12.165 13.263c-.171.172-.294.44-.294.816a.6.6 0 1 1-1.2 0c0-.65.219-1.238.646-1.665.427-.426 1.015-.646 1.664-.646.644 0 1.227.216 1.653.635a.6.6 0 1 1-.842.855c-.171-.169-.437-.29-.81-.29-.378 0-.645.123-.817.295m-.894 1.926a.6.6 0 0 1 .6.6v1.027a.6.6 0 0 1-1.2 0v-1.027a.6.6 0 0 1 .6-.6m1.71-1.71a.6.6 0 0 1 .6.6v2.737a.6.6 0 0 1-1.2 0v-2.737a.6.6 0 0 1 .6-.6m1.71.342a.6.6 0 0 1 .6.6v2.395a.6.6 0 0 1-1.2 0V14.42a.6.6 0 0 1 .6-.6" clip-rule="evenodd"/></svg>