<svg xmlns="http://www.w3.org/2000/svg" width="24" height="24" fill="none" class="persona-icon" viewBox="0 0 24 24"><path fill="currentColor" fill-rule="evenodd" d="M9.284 14.584a4.35 4.35 0 0 0-3.311 1.526c-.279.326-.431.741-.431 1.17v.22a2 2 0 0 0 2 2h2.75a.75.75 0 0 1 0 1.5h-2.75a3.5 3.5 0 0 1-3.5-3.5v-.22c0-.786.28-1.546.79-2.144a5.85 5.85 0 0 1 4.452-2.052h1.582a.75.75 0 0 1 0 1.5zM6.79 7.417a4.417 4.417 0 1 1 8.834 0 4.417 4.417 0 0 1-8.833 0m6.629 10.417a.75.75 0 0 1 .75.75v.747a.75.75 0 1 1-1.5 0v-.746a.75.75 0 0 1 .75-.75m3.207-5.888a4.185 4.185 0 0 1 4.394 3.783.75.75 0 1 1-1.493.142 2.685 2.685 0 0 0-5.358.292.75.75 0 0 1-1.5.02 4.185 4.185 0 0 1 3.957-4.237m-.917 5.84a.75.75 0 0 1 .75.75V20a.75.75 0 0 1-1.5 0v-1.463a.75.75 0 0 1 .75-.75m-.196-2.82a1.891 1.891 0 0 1 3.229 1.325 1 1 0 0 1 .007.103v3.856a.75.75 0 0 1-1.5 0v-3.844a1 1 0 0 1-.007-.102.392.392 0 1 0-.783 0 .75.75 0 0 1-1.5 0c0-.502.2-.983.554-1.338m4.776 2.427a.75.75 0 0 1 .75.75V19.5a.75.75 0 0 1-1.5 0v-1.357a.75.75 0 0 1 .75-.75M11.208 4.5a2.917 2.917 0 1 0 0 5.834 2.917 2.917 0 0 0 0-5.834" clip-rule="evenodd"/></svg>