<svg xmlns="http://www.w3.org/2000/svg" width="32" height="32" fill="none" class="persona-icon" viewBox="0 0 32 32"><path fill="currentColor" fill-rule="evenodd" d="M9.055 9.89a5.889 5.889 0 1 1 11.778 0 5.889 5.889 0 0 1-11.778 0m13.115 6.038a5.58 5.58 0 0 1 5.858 5.043 1 1 0 0 1-1.99.19 3.58 3.58 0 0 0-7.144.39 1 1 0 0 1-2 .028 5.58 5.58 0 0 1 5.276-5.65m-9.792 3.517a5.8 5.8 0 0 0-4.414 2.035 2.4 2.4 0 0 0-.575 1.56v.294A2.667 2.667 0 0 0 10.055 26h3.667a1 1 0 1 1 0 2h-3.667a4.667 4.667 0 0 1-4.666-4.666v-.294c0-1.048.373-2.061 1.054-2.858a7.8 7.8 0 0 1 5.935-2.737h2.11a1 1 0 0 1 0 2zm8.307.51a2.522 2.522 0 0 1 4.306 1.767q.009.067.009.136V27a1 1 0 1 1-2 0v-5.126a1 1 0 0 1-.01-.136.522.522 0 0 0-1.043 0 1 1 0 1 1-2 0c0-.669.265-1.31.738-1.783m6.368 3.236a1 1 0 0 1 1 1V26a1 1 0 1 1-2 0V24.19a1 1 0 0 1 1-1m-6.106.524a1 1 0 0 1 1 1v1.951a1 1 0 1 1-2 0v-1.95a1 1 0 0 1 1-1m-3.054.064a1 1 0 0 1 1 1v.995a1 1 0 1 1-2 .001v-.996a1 1 0 0 1 1-1M14.944 6a3.889 3.889 0 1 0 0 7.778 3.889 3.889 0 0 0 0-7.778" clip-rule="evenodd"/></svg>