<svg xmlns="http://www.w3.org/2000/svg" width="32" height="32" fill="none"><path fill="#000" fill-rule="evenodd" d="M12.842 5.521c-2.238 0-4.053 1.834-4.053 4.096s1.815 4.096 4.053 4.096 4.053-1.834 4.053-4.096-1.815-4.096-4.053-4.096ZM6.79 9.617C6.79 6.239 9.5 3.5 12.842 3.5s6.053 2.739 6.053 6.117-2.71 6.117-6.053 6.117S6.79 12.995 6.79 9.617ZM10.19 19.564a6.006 6.006 0 0 0-4.588 2.138A2.559 2.559 0 0 0 5 23.352v.308c0 1.556 1.249 2.819 2.79 2.819h4.42c.553 0 1 .452 1 1.01s-.447 1.011-1 1.011H7.79C5.143 28.5 3 26.333 3 23.66v-.307c0-1.087.383-2.137 1.081-2.963a7.997 7.997 0 0 1 6.11-2.847h2.651c.552 0 1 .452 1 1.01s-.448 1.01-1 1.01H10.19ZM21.684 17.01c-.365 0-.721.038-1.064.108a1 1 0 0 1-1.179-.79 1.01 1.01 0 0 1 .781-1.19 7.277 7.277 0 0 1 1.462-.149c4.04 0 7.316 3.31 7.316 7.394 0 .558-.448 1.01-1 1.01s-1-.452-1-1.01c0-2.967-2.38-5.372-5.316-5.372Zm-3.637.058a1.018 1.018 0 0 1-.033 1.429 5.382 5.382 0 0 0-1.646 3.886v5.107c0 .558-.448 1.01-1 1.01-.553 0-1-.453-1-1.011v-5.106c0-2.104.87-4.003 2.265-5.348a.992.992 0 0 1 1.414.033ZM28 24.564c.552 0 1 .452 1 1.01v1.915c0 .558-.448 1.011-1 1.011s-1-.453-1-1.01v-1.915c0-.559.448-1.011 1-1.011Z" clip-rule="evenodd"/><path fill="#000" fill-rule="evenodd" d="M20.102 20.784c-.34.343-.576.871-.576 1.599 0 .558-.447 1.01-1 1.01-.552 0-1-.452-1-1.01 0-1.187.396-2.255 1.162-3.028.765-.774 1.822-1.174 2.996-1.174 1.164 0 2.213.393 2.977 1.154.393.391.398 1.031.01 1.429a.992.992 0 0 1-1.414.01c-.34-.338-.859-.572-1.573-.572-.72 0-1.242.238-1.582.582Zm1.582.588c.552 0 1 .453 1 1.011v5.106c0 .558-.448 1.011-1 1.011s-1-.453-1-1.01v-5.107c0-.558.448-1.01 1-1.01Zm3.158.639c.552 0 1 .452 1 1.01v4.468c0 .558-.448 1.011-1 1.011s-1-.453-1-1.01V23.02c0-.558.448-1.01 1-1.01Zm-6.316 2.553c.553 0 1 .452 1 1.01v1.915c0 .558-.447 1.011-1 1.011-.552 0-1-.453-1-1.01v-1.915c0-.559.448-1.011 1-1.011Z" clip-rule="evenodd"/></svg>