<svg xmlns="http://www.w3.org/2000/svg" width="16" height="16" fill="none" class="persona-icon" viewBox="0 0 16 16"><path fill="currentColor" fill-rule="evenodd" d="M2 5a2.333 2.333 0 0 1 2.333-2.333h7.334A2.333 2.333 0 0 1 14 5v4.333a2.333 2.333 0 0 1-2.333 2.334H8.5v.666h3.167a.5.5 0 0 1 0 1H4.333a.5.5 0 1 1 0-1H7.5v-.666H4.333A2.333 2.333 0 0 1 2 9.333zm8.944 5.667h.723c.736 0 1.333-.597 1.333-1.334V5c0-.736-.597-1.333-1.333-1.333H4.333C3.597 3.667 3 4.264 3 5v4.333c0 .737.597 1.334 1.333 1.334h.723v-.377a1.4 1.4 0 0 1 .475-1.052c.42-.368.959-.571 1.517-.571h1.904c.558 0 1.097.203 1.517.571a1.4 1.4 0 0 1 .475 1.052zm-1-.167v-.21a.4.4 0 0 0-.135-.3 1.3 1.3 0 0 0-.857-.323H7.048c-.315 0-.62.114-.857.323a.4.4 0 0 0-.135.3v.21zm.611-5.722a.5.5 0 0 1 .5-.5h.612a.5.5 0 1 1 0 1h-.611a.5.5 0 0 1-.5-.5M6.279 6.722a1.722 1.722 0 1 1 3.444 0 1.722 1.722 0 0 1-3.444 0M8 6a.722.722 0 1 0 0 1.445A.722.722 0 0 0 8 6" clip-rule="evenodd"/></svg>