<svg xmlns="http://www.w3.org/2000/svg" width="20" height="20" fill="none" class="persona-icon" viewBox="0 0 20 20"><path fill="currentColor" fill-rule="evenodd" d="M2.975 6.51a2.76 2.76 0 0 1 2.758-2.76h8.534a2.76 2.76 0 0 1 2.758 2.76v5.042a2.76 2.76 0 0 1-2.758 2.758h-3.642V15h3.642a.625.625 0 0 1 0 1.25H5.733a.625.625 0 0 1 0-1.25h3.642v-.69H5.733a2.76 2.76 0 0 1-2.758-2.758zm10.494 6.55h.798c.833 0 1.508-.676 1.508-1.508V6.509c0-.833-.675-1.508-1.508-1.508H5.733c-.833 0-1.508.675-1.508 1.508v5.043c0 .832.675 1.508 1.508 1.508h.798v-.396c0-.48.207-.938.568-1.255a2.72 2.72 0 0 1 1.793-.677h2.216c.66 0 1.297.24 1.793.677.361.317.568.774.568 1.255zm-1.25-.194v-.202a.42.42 0 0 0-.143-.316 1.47 1.47 0 0 0-.968-.366H8.892c-.356 0-.7.13-.968.366a.42.42 0 0 0-.144.316v.202zm.712-6.616c0-.345.28-.625.625-.625h.71a.625.625 0 0 1 0 1.25h-.71a.625.625 0 0 1-.625-.625M7.953 8.513a2.047 2.047 0 1 1 4.094 0 2.047 2.047 0 0 1-4.094 0M10 7.716a.797.797 0 1 0 0 1.594.797.797 0 0 0 0-1.594" clip-rule="evenodd"/></svg>