<svg xmlns="http://www.w3.org/2000/svg" width="32" height="32" fill="none" class="persona-icon" viewBox="0 0 32 32"><path fill="currentColor" fill-rule="evenodd" d="M12.556 9.889a3.444 3.444 0 1 1 6.888 0 3.444 3.444 0 0 1-6.888 0ZM16 8.445a1.444 1.444 0 1 0 0 2.888 1.444 1.444 0 0 0 0-2.889Z" clip-rule="evenodd"/><path fill="currentColor" d="M22.11 7.667a1 1 0 1 0 0 2h1.223a1 1 0 1 0 0-2H22.11Z"/><path fill="currentColor" fill-rule="evenodd" d="M7 4a3 3 0 0 0-3 3v13.111a3 3 0 0 0 3 3h5.556V26H8.667a1 1 0 1 0 0 2h14.667a1 1 0 0 0 0-2h-3.89v-2.889H25a3 3 0 0 0 3-3V7a3 3 0 0 0-3-3H7ZM6 17.445V7a1 1 0 0 1 1-1h18a1 1 0 0 1 1 1v10.445h-4.112v-.422c0-.805-.347-1.57-.951-2.102a4.596 4.596 0 0 0-3.034-1.143h-3.808a4.596 4.596 0 0 0-3.033 1.143 2.798 2.798 0 0 0-.952 2.102v.422H6Zm0 2.666v-.666h20v.666a1 1 0 0 1-1 1H7a1 1 0 0 1-1-1Zm6.11-2.666h7.778v-.422a.798.798 0 0 0-.271-.6 2.596 2.596 0 0 0-1.714-.645h-3.808c-.63 0-1.24.23-1.713.646a.798.798 0 0 0-.272.6v.42Zm2.446 5.666V26h2.889v-2.889h-2.89Z" clip-rule="evenodd"/></svg>