<svg xmlns="http://www.w3.org/2000/svg" width="24" height="24" fill="none"><path fill="#000" fill-rule="evenodd" d="M6.243 15.582c.436.504.646 1.15.854 1.973v2.137A2.315 2.315 0 0 0 9.419 22h5.162a2.315 2.315 0 0 0 2.322-2.308v-1.987c.004-.033.006-.064.008-.094a3.44 3.44 0 0 1 .846-2.029C18.811 14.367 20 12.415 20 9.95 20 5.269 16.399 2 12 2S4 5.269 4 9.949c0 2.466 1.19 4.418 2.243 5.633ZM12 3.538c-3.583 0-6.452 2.619-6.452 6.41 0 1.966.952 3.573 1.868 4.63.72.832.998 1.852 1.211 2.716.052.013.137.03.273.045.277.03.647.042 1.153.046h1.173v-1.99L9.388 13.57a.766.766 0 0 1 0-1.088c.302-.3.793-.3 1.095 0L12 13.989l1.517-1.507c.302-.3.793-.3 1.095 0 .302.3.302.787 0 1.088l-1.838 1.825v1.99h2.602a4.979 4.979 0 0 1 1.208-2.806c.916-1.058 1.868-2.665 1.868-4.63 0-3.792-2.87-6.41-6.452-6.41Zm0 15.385-.765.001h-.003c-.443.001-.838.002-1.186 0h-1.4v.768c0 .425.346.77.773.77h5.162a.772.772 0 0 0 .774-.77v-.695c-.297.01-.675-.005-1.117-.023l-.152-.006A51.03 51.03 0 0 0 12 18.923Z" clip-rule="evenodd"/></svg>