<svg xmlns="http://www.w3.org/2000/svg" width="32" height="32" fill="none"><path fill="#000" fill-rule="evenodd" d="M8.806 20.634c.563.676.832 1.54 1.094 2.62v2.805C9.9 27.683 11.176 29 12.75 29h6.5c1.574 0 2.85-1.317 2.85-2.94v-2.603l.01-.125a4.67 4.67 0 0 1 1.084-2.698C24.514 19.052 26 16.518 26 13.318 26 7.242 21.5 3 16 3S6 7.242 6 13.318c0 3.2 1.486 5.734 2.806 7.316ZM16 4.857c-4.551 0-8.2 3.457-8.2 8.46 0 2.595 1.21 4.715 2.37 6.106.906 1.085 1.25 2.422 1.52 3.562a2.449 2.449 0 0 0 .397.074c.353.04.823.055 1.463.06h1.55v-2.71l-2.336-2.411a.95.95 0 0 1 0-1.313.88.88 0 0 1 1.272 0L16 18.71l1.964-2.026a.88.88 0 0 1 1.272 0 .95.95 0 0 1 0 1.313l-2.336 2.41v2.711h3.42a6.558 6.558 0 0 1 1.51-3.696c1.16-1.391 2.37-3.51 2.37-6.105 0-5.004-3.649-8.46-8.2-8.46Zm-4.3 20.12h1.842c.437.003.931.002 1.489 0h1.014c1.065 0 1.91.031 2.585.058l.19.008c.582.024 1.072.044 1.45.027l.03-.001v.99c0 .599-.47 1.084-1.05 1.084h-6.5c-.58 0-1.05-.485-1.05-1.084v-1.083Z" clip-rule="evenodd"/></svg>