<svg xmlns="http://www.w3.org/2000/svg" width="24" height="24" fill="none"><path fill="#000" fill-rule="evenodd" d="M9.949 3.538a3.333 3.333 0 1 0 0 6.667 3.333 3.333 0 0 0 0-6.667ZM5.077 6.872a4.872 4.872 0 1 1 9.744 0 4.872 4.872 0 0 1-9.744 0ZM2.868 15.554a6.48 6.48 0 0 1 4.927-2.272h4.307c1.896 0 3.697.83 4.928 2.272.56.656.867 1.49.867 2.353v.247A3.846 3.846 0 0 1 14.051 22H5.846A3.846 3.846 0 0 1 2 18.154v-.247c0-.862.308-1.697.868-2.353Zm12.992 1a4.94 4.94 0 0 0-3.758-1.733H7.795a4.94 4.94 0 0 0-3.757 1.732c-.322.378-.5.858-.5 1.354v.247a2.308 2.308 0 0 0 2.308 2.308h8.205a2.308 2.308 0 0 0 2.308-2.308v-.247c0-.496-.177-.976-.5-1.354ZM21.775 8.38c.3.3.3.787 0 1.087l-3.077 3.077c-.3.3-.788.3-1.088 0l-2.051-2.051a.77.77 0 1 1 1.088-1.088l1.507 1.507 2.533-2.533c.3-.3.787-.3 1.088 0Z" clip-rule="evenodd"/></svg>