<svg xmlns="http://www.w3.org/2000/svg" width="16" height="16" fill="none" class="persona-icon" viewBox="0 0 16 16"><path fill="currentColor" fill-rule="evenodd" d="M5.429 1.714H8.34c.495 0 .968.205 1.306.567L12.52 5.36c.309.331.48.766.48 1.219v3.265a3.377 3.377 0 1 0-4.322 4.442h-3.25A2.43 2.43 0 0 1 3 11.857V4.142A2.43 2.43 0 0 1 5.43 1.714m3.714 3.072c0 .434.352.785.786.785h1.421L9.143 3.207z" clip-rule="evenodd"/><path fill="currentColor" fill-rule="evenodd" d="M7.5 11.128a2.377 2.377 0 1 1 4.373 1.29l1.484 1.484a.5.5 0 1 1-.707.707l-1.484-1.485A2.376 2.376 0 0 1 7.5 11.127M9.877 9.75a1.377 1.377 0 1 0 0 2.753 1.377 1.377 0 0 0 0-2.753" clip-rule="evenodd"/></svg>