<svg xmlns="http://www.w3.org/2000/svg" width="20" height="20" fill="none" class="persona-icon" viewBox="0 0 20 20"><path fill="currentColor" fill-rule="evenodd" d="M6.915 2.432h3.495c.6 0 1.175.25 1.585.689l3.447 3.693c.375.402.583.93.583 1.48v3.786a4.128 4.128 0 1 0-5.351 5.487h-3.76a2.94 2.94 0 0 1-2.939-2.939V5.371a2.94 2.94 0 0 1 2.94-2.94m4.481 3.711c0 .507.411.918.918.918h1.648l-2.566-2.75z" clip-rule="evenodd"/><path fill="currentColor" fill-rule="evenodd" d="M9.375 13.753a2.877 2.877 0 1 1 5.305 1.544l1.767 1.767a.625.625 0 1 1-.884.884l-1.767-1.767a2.877 2.877 0 0 1-4.42-2.428m2.877-1.627a1.627 1.627 0 1 0 0 3.254 1.627 1.627 0 0 0 0-3.254" clip-rule="evenodd"/></svg>