<svg xmlns="http://www.w3.org/2000/svg" width="24" height="24" fill="none" class="persona-icon" viewBox="0 0 24 24"><path fill="currentColor" fill-rule="evenodd" d="M7.889 2h4.657a2.8 2.8 0 0 1 2.05.892l4.594 4.92a2.8 2.8 0 0 1 .754 1.915v5.504A5.252 5.252 0 0 0 9.75 17c0 2.34 1.53 4.322 3.645 5H7.89a3.833 3.833 0 0 1-3.833-3.833V5.834A3.833 3.833 0 0 1 7.889 2m9.58 6.167-3.691-3.954v2.649c0 .72.584 1.305 1.305 1.305z" clip-rule="evenodd"/><path fill="currentColor" fill-rule="evenodd" d="M11.25 17a3.75 3.75 0 1 1 6.879 2.068l2.401 2.402a.75.75 0 1 1-1.06 1.06l-2.402-2.401A3.75 3.75 0 0 1 11.25 17M15 14.75a2.25 2.25 0 1 0 0 4.5 2.25 2.25 0 0 0 0-4.5" clip-rule="evenodd"/></svg>