<svg xmlns="http://www.w3.org/2000/svg" width="32" height="32" fill="none" class="persona-icon" viewBox="0 0 32 32"><path fill="currentColor" fill-rule="evenodd" d="M10.857 3.428h5.826c.99 0 1.935.41 2.61 1.135l5.747 6.156c.617.661.96 1.532.96 2.437v6.53a6.755 6.755 0 0 0-13 2.569c0 2.886 1.81 5.35 4.358 6.316h-6.5A4.857 4.857 0 0 1 6 23.714V8.285a4.857 4.857 0 0 1 4.857-4.857m7.429 6.143c0 .868.703 1.572 1.57 1.572H22.7l-4.414-4.73z" clip-rule="evenodd"/><path fill="currentColor" fill-rule="evenodd" d="M15 22.255a4.753 4.753 0 1 1 8.746 2.579l2.969 2.969a1 1 0 0 1-1.414 1.414l-2.97-2.969A4.753 4.753 0 0 1 15 22.255m4.753-2.753a2.753 2.753 0 1 0 0 5.506 2.753 2.753 0 0 0 0-5.506" clip-rule="evenodd"/></svg>