<svg xmlns="http://www.w3.org/2000/svg" width="20" height="20" fill="none" class="persona-icon"><g clip-path="url(#a)"><path fill="currentColor" d="M9.799 5.666c-.008-.001-.026-.004-.065.02a15.583 15.583 0 0 0-4.937 4.68c-1.107 1.665-1.612 3.198-1.612 4.132a.588.588 0 0 1-.592.582.588.588 0 0 1-.593-.582c0-1.25.634-3.008 1.805-4.77a16.758 16.758 0 0 1 5.312-5.037c.584-.35 1.212-.18 1.592.194.37.364.549.96.288 1.535-1.04 2.288-2.263 5.506-2.916 7.644 2.305-2.145 4.149-2.842 5.286-3.047.475-.085.907.106 1.148.466.228.34.252.776.09 1.16a27.406 27.406 0 0 0-.624 1.603c.646-.514 1.248-.842 1.902-.874.669-.032 1.26.252 1.854.641.272.179.345.54.163.808a.6.6 0 0 1-.822.16c-.537-.352-.86-.459-1.136-.445-.281.013-.646.158-1.243.638-.404.324-.953.439-1.412.196-.504-.268-.655-.831-.476-1.36a27.57 27.57 0 0 1 .707-1.835c-.899.175-2.531.775-4.668 2.778-.388.364-.945.518-1.427.279-.518-.257-.68-.827-.52-1.362.658-2.191 1.93-5.546 3.012-7.925a.205.205 0 0 0-.045-.238.139.139 0 0 0-.071-.04Zm4.123 8.774v-.002.002Z"/></g><defs><clipPath id="a"><path fill="#fff" d="M0 0h20v20H0z"/></clipPath></defs></svg>