<svg xmlns="http://www.w3.org/2000/svg" width="20" height="20" fill="none" class="persona-icon" viewBox="0 0 20 20"><path fill="currentColor" fill-rule="evenodd" d="M2.43 13.753c0-.345.28-.625.625-.625h.563a.625.625 0 0 1 0 1.25h-.563a.625.625 0 0 1-.625-.625m3.868-2.278A5.8 5.8 0 0 1 4.671 9.99c-.641-.843-1.081-1.84-1.238-2.776-.154-.912-.056-1.905.58-2.574.666-.703 1.714-.838 2.97-.48C8.46 4.58 9.4 5.467 9.929 6.579c.387.816.543 1.73.558 2.633q.068-.015.133-.028c.293-.058.595-.088.87-.048.28.041.615.172.813.51.186.32.162.675.09.963a2 2 0 0 0-.057.336q.043-.024.1-.06a7 7 0 0 0 .58-.477l.086-.074a8.5 8.5 0 0 1 .934-.733c.307-.197.75-.427 1.222-.371.575.067.923.5 1.099 1.03.086.258.16.433.221.547a.625.625 0 0 1 .525 1.12 1.3 1.3 0 0 1-.42.19.92.92 0 0 1-.705-.128 1.5 1.5 0 0 1-.466-.527 4.6 4.6 0 0 1-.341-.808.7.7 0 0 0-.082-.18 1 1 0 0 0-.079.022 1.6 1.6 0 0 0-.298.157 7 7 0 0 0-.79.624l-.091.08c-.233.203-.488.426-.705.57-.248.164-.519.29-.8.326a1.05 1.05 0 0 1-.875-.264c-.239-.225-.333-.527-.359-.797a2.6 2.6 0 0 1 .072-.823 2 2 0 0 0-.302.041 5 5 0 0 0-.443.112l-.001.007c-.153 1.301-.858 2.853-1.7 3.948-.42.548-.916 1.035-1.449 1.309-.553.283-1.23.366-1.827-.086a1.69 1.69 0 0 1-.691-1.276c-.028-.466.12-.93.328-1.342.282-.559.723-1.115 1.22-1.607m1.027-.875a6.4 6.4 0 0 1 1.232-.719q.35-.148.677-.274c.028-.911-.096-1.778-.435-2.491-.377-.792-1.033-1.434-2.157-1.753-1.04-.296-1.513-.083-1.723.138-.242.255-.379.764-.254 1.507.121.719.472 1.53 1.001 2.227.459.603 1.029 1.09 1.66 1.365m.251 1.395.107.023a.625.625 0 0 0 .748-.658c.217-.137.426-.248.615-.328l.004-.002a8 8 0 0 1-1.324 2.686c-.367.477-.729.804-1.029.957-.279.144-.409.101-.501.03a.44.44 0 0 1-.198-.352c-.01-.164.042-.4.196-.705.272-.539.787-1.139 1.382-1.651m2.174 1.758c0-.345.28-.625.625-.625h6.57a.625.625 0 0 1 0 1.25h-6.57a.625.625 0 0 1-.625-.625m1.445-3.55v.002zm1.151.927v-.002zm2.72-.678q0-.002.014.01-.014-.007-.014-.01" clip-rule="evenodd"/></svg>