<svg xmlns="http://www.w3.org/2000/svg" width="20" height="20" fill="none" class="persona-icon" viewBox="0 0 20 20"><path fill="currentColor" fill-rule="evenodd" d="M9.791 5.972H9.79C7.636 7.217 6.02 8.842 4.947 10.4 3.859 11.98 3.37 13.42 3.37 14.284c0 .36-.307.65-.685.65-.379 0-.686-.29-.686-.65 0-1.216.637-2.908 1.799-4.593 1.175-1.705 2.933-3.473 5.277-4.828a1.414 1.414 0 0 1 1.695.2c.392.371.582.98.305 1.567-.97 2.059-2.101 4.908-2.765 6.93 2.16-1.865 3.897-2.493 4.996-2.684.508-.088.975.11 1.235.485.246.353.27.802.098 1.194-.154.352-.334.78-.5 1.216.546-.38 1.082-.626 1.664-.653.694-.033 1.3.252 1.891.626.315.2.4.603.19.901a.71.71 0 0 1-.952.18c-.525-.333-.821-.42-1.061-.41-.245.012-.585.135-1.169.587-.422.327-1.008.451-1.505.197-.55-.282-.707-.871-.518-1.408.197-.56.43-1.128.629-1.587-.899.206-2.418.814-4.375 2.583-.406.367-1 .532-1.524.282-.564-.27-.733-.866-.564-1.409.65-2.091 1.909-5.29 2.978-7.56a.092.092 0 0 0 .009-.063.115.115 0 0 0-.042-.064Zm-1.867 7.917.007-.003c-.005.001-.007.002-.007.003Zm.229.175Zm5.227-2.03v.002-.002Zm.385 2s.003-.002.008-.002c-.005.002-.008.002-.008.001Z" clip-rule="evenodd"/></svg>