<svg xmlns="http://www.w3.org/2000/svg" width="24" height="24" fill="none" class="persona-icon" viewBox="0 0 24 24"><path fill="currentColor" d="M11.765 7.468h-.001c-2.424 1.4-4.24 3.23-5.45 4.982-1.223 1.776-1.771 3.398-1.771 4.369 0 .403-.346.73-.772.73-.426 0-.771-.327-.771-.73 0-1.37.717-3.273 2.023-5.168 1.322-1.918 3.3-3.907 5.938-5.431a1.591 1.591 0 0 1 1.906.224c.441.418.655 1.104.344 1.764-1.092 2.315-2.365 5.521-3.112 7.796 2.431-2.098 4.385-2.805 5.62-3.02.573-.099 1.098.124 1.391.546.276.398.303.902.11 1.344a30.59 30.59 0 0 0-.563 1.368c.615-.429 1.217-.705 1.872-.736.781-.037 1.464.284 2.128.705.354.224.45.678.213 1.014a.798.798 0 0 1-1.07.201c-.591-.374-.925-.472-1.194-.46-.275.014-.658.15-1.315.66-.475.368-1.134.508-1.693.221-.618-.316-.795-.98-.583-1.584.222-.629.484-1.268.708-1.785-1.011.232-2.72.916-4.923 2.906-.456.413-1.125.598-1.713.317-.636-.303-.826-.974-.636-1.585.733-2.352 2.148-5.952 3.35-8.505a.104.104 0 0 0 .011-.07.131.131 0 0 0-.047-.073Zm-2.1 8.907.008-.003c-.006 0-.009.002-.009.003Zm.257.196v.001Zm5.88-2.283v.002-.002Zm.434 2.25.008-.002c-.005 0-.008.001-.008.002Z"/></svg>