<svg xmlns="http://www.w3.org/2000/svg" width="32" height="32" fill="none" class="persona-icon" viewBox="0 0 32 32"><path fill="currentColor" fill-rule="evenodd" d="M15.645 8.456c-.023-.004-.066-.007-.141.038-3.857 2.284-6.748 5.264-8.672 8.123C4.888 19.507 4 22.168 4 23.793c0 .54-.448.976-1 .976s-1-.437-1-.976c0-2.16 1.11-5.199 3.16-8.248 2.072-3.08 5.174-6.274 9.307-8.721 1.007-.596 2.09-.302 2.743.339.639.627.946 1.65.493 2.635-1.845 4.013-4.016 9.664-5.15 13.365l.019-.016c4.079-3.776 7.337-4.996 9.339-5.354.82-.146 1.562.183 1.976.798.392.583.433 1.33.151 1.99-.35.819-.774 1.862-1.13 2.88.015-.01.03-.02.046-.033 1.153-.915 2.218-1.496 3.37-1.552 1.16-.057 2.19.429 3.23 1.104.46.298.585.904.279 1.353-.306.45-.926.572-1.386.273-.945-.612-1.522-.804-2.023-.78-.507.025-1.158.284-2.209 1.118-.699.554-1.645.748-2.43.332-.863-.457-1.123-1.418-.812-2.322a47.58 47.58 0 0 1 1.22-3.125.329.329 0 0 0 .027-.105c-1.576.291-4.472 1.322-8.272 4.84-.673.623-1.631.882-2.456.473-.886-.438-1.166-1.41-.887-2.327 1.153-3.792 3.379-9.591 5.273-13.712a.396.396 0 0 0-.086-.458.284.284 0 0 0-.147-.084M12.5 23.412zm10.345.283v-.001z" clip-rule="evenodd"/></svg>