<svg xmlns="http://www.w3.org/2000/svg" width="150" height="150" fill="none" class="persona-ilustration" viewBox="0 0 150 150"><g clip-path="url(#3m_a)"><g clip-path="url(#3n_b)"><rect width="125" height="125" x="12.64" y="12.5" fill="#D3EDFF" rx="62.5"/><path fill="#4793CC" fill-rule="evenodd" d="M4.087 63.072c13.535.823 34.909 1.231 44.041-3.444 12.467-10.945 102.525-8.459 102.525-8.459l-3.868-2.486s-.319-.151-.879-.408h21.815v96.999H4.087z" clip-rule="evenodd" opacity=".3"/><path fill="#AADBFF" d="M109.495 33.632c7.512-.786 8.284 1.283 19.334 2.166l21.824 15.398-19.822-2.19s-30.348 0-57.031-1.242c-21.183 4.79-99.949 3.432-99.949 3.432l3.868-2.166s8.875-3.66 14.917-5.052c8.8-2.029 14.138-1.221 23.206-1.925 11.967-.929 18.698-1.226 30.664-2.165 6.8-.534 24.512 3.228 31.176 1.936 6.361-1.233 6.315-3.597 15.746-4.812 9.432-1.214 9.063-2.647 16.067-3.38" opacity=".5"/><mask id="3o_c" width="178" height="38" x="-27" y="30" maskUnits="userSpaceOnUse" style="mask-type:alpha"><path fill="#AADBFF" d="M31.588 31.003c-1.864-1.266-24.863 1.473-35.913 2.486l-21.824 17.68 18.304 10.936s17.454 10.01 37.16 3.803c16.527-5.205 39.878 1.086 24.206-5.43 7.074-10.552 97.132-9.309 97.132-9.309l-3.868-2.486s-8.874-4.202-14.917-5.801c-8.8-2.33-14.138-1.402-23.205-2.21-11.967-1.067-18.699-1.408-30.664-2.486-6.8-.613-10.74-.175-17.404-1.658-6.362-1.416-12.248-5.71-15.747-5.525s-9.599 2.486-13.26 0"/></mask><g mask="url(#3o_c)"><path fill="#AADBFF" d="M31.588 31.003c-1.864-1.266-24.863 1.473-35.913 2.486l-21.824 17.68 18.304 10.936s17.454 10.01 37.16 3.803c16.527-5.205 39.878 1.086 24.206-5.43 7.074-10.552 97.132-9.309 97.132-9.309l-3.868-2.486s-8.874-4.202-14.917-5.801c-8.8-2.33-14.138-1.402-23.205-2.21-11.967-1.067-18.699-1.408-30.664-2.486-6.8-.613-10.74-.175-17.404-1.658-6.362-1.416-12.248-5.71-15.747-5.525s-9.599 2.486-13.26 0"/><path fill="#82C2F1" d="M51.905 41.773c-2.064-2.58-10.607-8.386-14.62-10.966 2.005-.715 6.344-1.59 7.654.62s3.617 4.334 4.607 5.118c1.535 1.743 4.913 5.554 6.142 6.859 1.228 1.305 3.723 2.896 4.817 3.529-2.006-.645-6.536-2.58-8.6-5.16M88.643 41.518c-3.372-.987-17.331-3.209-23.889-4.196 3.277-.274 10.367-.609 12.508.237s5.91 1.659 7.526 1.959c2.51.667 8.029 2.125 10.036 2.624s6.084 1.109 7.872 1.35c-3.28-.246-10.68-.986-14.053-1.974M49.979 57.53c6.565 4.677 15.52 9.473 20.687 11.83-.608.987-2.371 3.42-4.56 5.243s-20.367 3.04-29.182 3.42h-57.226C-15.21 64.952-3.567 35.982 2.27 24.673 8.106 13.366 22.94 29.386 29.628 38.81c2.05 9.283 7.448 11.645 9.272 13.469 2.28 2.28 4.755.746 11.079 5.252" opacity=".75"/></g><path fill="#C3CADD" d="M62.316 107.955v14.281c0 5.435-.065 5.793-2.198 8.805-2.48 3.505-2.324 23.183-2.233 34.685.015 1.857.028 3.501.028 4.829l-9.406-3.424c0-1.328.013-2.962.028-4.808.09-11.436.247-31-2.234-36.31-2.133-4.566-2.197-4.971-2.197-10.405v-14.282z"/><path fill="#9DA8C4" d="M53.155 111.074v14.281c0 5.434-.065 5.792-2.197 8.805-2.481 3.504-2.325 23.182-2.234 34.685.015 1.857.028 3.5.028 4.828l-9.406-3.423c0-1.328.013-2.962.028-4.808.091-11.437.247-31.001-2.233-36.311-2.133-4.565-2.198-4.97-2.198-10.405v-14.281z"/><mask id="3p_d" width="122" height="58" x="-42" y="84" maskUnits="userSpaceOnUse" style="mask-type:alpha"><path fill="#9DA8C4" d="m-41.55 106.539 79.15-22.26 2.61 2.246h4.732l.816 1.637 3.62 1.357 1.375.906 1.039 1.804 6.18 1.207.905 1.973 1.352 1.648 4.375.754 2.559 1.805 1.207 2.263 2.866.452.905 1.811 2.257.994 1.322 1.888 1.243 1.793.905 3.602 1.841.639-51.02 28.006z"/></mask><g mask="url(#3p_d)"><path fill="#9DA8C4" d="m-41.55 106.539 79.15-22.26 2.61 2.246h4.732l.816 1.637 3.62 1.357 1.375.906 1.039 1.804 6.18 1.207.905 1.973 1.352 1.648 4.375.754 2.559 1.805 1.207 2.263 2.866.452.905 1.811 2.257.994 1.322 1.888 1.243 1.793.905 3.602 1.841.639-51.02 28.006z"/><path fill="#F7E891" fill-rule="evenodd" d="m-7.023 114.807 81.162-30.954.357.934-81.163 30.954zM-5.016 117.193l81.163-30.954.356.934-81.162 30.954z" clip-rule="evenodd" style="mix-blend-mode:lighten"/></g><path fill="#C3CADD" d="M120.422 78.635v14.28c0 5.435-.065 5.793-2.198 8.806-2.481 3.504-2.324 23.182-2.233 34.685.015 1.857.028 3.5.028 4.828l-9.406-3.423c0-1.328.013-2.962.027-4.808.092-11.437.248-31.001-2.233-36.31-2.133-4.566-2.197-4.971-2.197-10.406v-14.28z"/><path fill="#9DA8C4" d="M111.261 81.753v14.282c0 5.434-.065 5.792-2.198 8.805-2.48 3.504-2.324 23.182-2.233 34.685.015 1.856.028 3.5.028 4.828l-9.406-3.423c0-1.329.013-2.963.028-4.809.091-11.436.247-31-2.234-36.31-2.132-4.565-2.197-4.97-2.197-10.405V75.125z"/><path fill="#3F568E" d="m69.035 75.445 4.05.648v5.587l-4.05-.648z"/><path fill="#394E85" d="m73.085 76.093 1.537 1.346v5.588l-1.537-1.347z"/><path fill="#30457A" d="m74.622 77.44 2.727 1.603v5.587l-2.727-1.603z"/><path fill="#394E85" d="M77.349 79.043h3.693v5.588h-3.693z"/><path fill="#30457A" d="m81.042 81.133 2.408 1.581v5.587l-2.408-1.58z"/><path fill="#394E85" d="m83.45 82.714 3.045.822v5.587L83.45 88.3z"/><path fill="#30457A" d="m86.495 83.535 1.766 1.442v5.587l-1.766-1.441z"/><path fill="#394E85" d="m88.26 84.977 2.403.804v5.588l-2.402-.805z"/><path fill="#30457A" d="m90.663 85.781 2.09 2.084v5.588l-2.09-2.084z"/><path fill="#394E85" d="M92.753 87.866h3.045v5.587h-3.045z"/><path fill="#3F568E" d="m95.798 87.866 2.084 2.084v5.587l-2.084-2.084zM97.882 89.95l8.308 4.369v5.587l-8.308-4.37z"/><mask id="3q_e" width="93" height="45" x="66" y="50" maskUnits="userSpaceOnUse" style="mask-type:alpha"><path fill="#9DA8C4" d="m106.19 94.32-8.308-4.37-2.084-2.084h-3.045l-2.09-2.084-2.402-.805-1.766-1.441-3.045-.822-2.408-1.581v-2.09h-3.693l-2.727-1.603-1.537-1.347-4.05-.648-2.99-1.57 83-23.327 9.365 10.85z"/></mask><g mask="url(#3q_e)"><path fill="#9DA8C4" d="m106.19 94.32-8.308-4.37-2.084-2.084h-3.045l-2.09-2.084-2.402-.805-1.766-1.441-3.045-.822-2.408-1.581v-2.09h-3.693l-2.727-1.603-1.537-1.347-4.05-.648-2.99-1.57 83-23.327 9.365 10.85z"/><path fill="#F7E891" fill-rule="evenodd" d="m81.431 82.715 82.957-30.796.348.938-82.957 30.796zM19.555 109.095l144.662-55.703.36.933-144.663 55.703z" clip-rule="evenodd" style="mix-blend-mode:lighten"/></g><path fill="#E8EAF1" d="M37.6 74.953v9.331l-79.15 22.255-1.224-13.326z"/><path fill="#C3CADD" d="m37.6 74.953-80.374 18.26-3.9-1.42L34.94 73.338z"/><path fill="#E8EAF1" d="m162.265 46.637-3.823 3.105-89.408 25.703v-7.632z"/><path fill="#C3CADD" d="m69.035 67.813-.226-.104-2.764-1.405 86.979-19.667h9.241z"/><path fill="#C3CADD" fill-rule="evenodd" d="M66.045 72.974v-6.67l2.99 1.509v13.219l-2.99-1.57z" clip-rule="evenodd"/><path fill="#E8EAF1" d="m106.19 94.32 70.712-34.715v5.587L106.19 99.907z"/><path fill="#E8EAF1" d="M203.331 42.368v4.269L106.19 94.319v-9.057z"/><path fill="#C3CADD" d="m185.729 49.932-79.539 35.33-3.901-1.565 76.132-31.708zM102.29 83.747l-.389 13.926 4.289 2.237V85.262zM80.063 99.908l-61.031 29.188-7.954-2.709 65.614-28.238z"/><path fill="#E8EAF1" d="m79.797 108.201.119-8.288L12.864 132.2v18.129l66.933-37.18z"/><path fill="#30457A" fill-rule="evenodd" d="M159.673 20.703 87.096 62.496l-.499-.867 72.577-41.792z" clip-rule="evenodd"/><path fill="#9DA8C4" d="M89.203 61.215c-.453-.062-.613-.136-.862-.587l-4.666.8 2.707 1.789 2.698-.517s-.143-.04.123-1.485"/><path fill="#3F568E" d="M86.283 62.959 83.67 61.43v.845l2.613 1.619 2.792-.622v-.716z"/><path fill="#30457A" fill-rule="evenodd" d="M185.033 15.198 129.601 73.75l-.726-.688 55.432-58.551z" clip-rule="evenodd"/><path fill="#9DA8C4" d="M130.247 73.168c-.501-.219-.791-.46-.688-.856l-4.84 1.069 2.707 1.79 2.699-.518s-.144-.04.122-1.485"/><path fill="#3F568E" d="m127.14 74.91-2.426-1.527v1.126l2.19 1.628 3.215-1.228v-1.027z"/><path fill="#30457A" fill-rule="evenodd" d="m183.285 10.426-63.077 44.518-.577-.818L182.708 9.61z" clip-rule="evenodd"/><path fill="#9DA8C4" d="M121.679 53.943c-.454-.063-.614-.137-.863-.587l-4.666.799 2.707 1.79 2.699-.518s-.144-.04.123-1.484"/><path fill="#3F568E" d="m118.759 55.686-2.614-1.529v.845l2.614 1.62 2.791-.623v-.716z"/><path fill="#30457A" fill-rule="evenodd" d="m172.895 15.073-67.036 42.908-.539-.843 67.036-42.907z" clip-rule="evenodd"/><path fill="#9DA8C4" d="M105.923 56.758c.249.45.359.642.813.704-.228 1.235-.181 1.344-.163 1.35h.005-.005l-2.694.517-2.707-1.79z"/><path fill="#3F568E" d="m103.781 59.07-2.614-1.528v.844l2.614 1.62 2.792-.622v-.716z"/></g><path fill="#3F568E" d="M63.564 27.919c-.375.155-1.842.784-2.22 1.227 0 0-.203-.095-.375.096 0 0-.739-.574-1.653-.21-.03.013-.024.057.008.06.318.033 1.166.145 1.3.439.167.362.567.722 1.354.271 0 0 .529.067.757-.1.227-.165-.745-.128-.745-.128s-.123-.437.363-.658c.455-.207 1.092-.495 1.268-.938.015-.038-.02-.075-.058-.06M58.47 32.25c-.69.287-3.392 1.443-4.087 2.26 0 0-.373-.175-.69.176 0 0-1.36-1.056-3.045-.385-.056.023-.044.104.015.11.586.06 2.148.266 2.395.807.306.668 1.042 1.33 2.492.5 0 0 .974.123 1.393-.183.42-.305-1.37-.237-1.37-.237s-.227-.804.668-1.212c.837-.381 2.01-.91 2.335-1.728.027-.068-.038-.136-.106-.108M68.398 31.116c-.42.174-2.06.876-2.482 1.373 0 0-.227-.107-.42.106 0 0-.826-.642-1.85-.233-.033.013-.026.063.01.066.355.036 1.304.162 1.455.49.185.406.633.808 1.513.304 0 0 .592.075.847-.111.254-.186-.833-.144-.833-.144s-.138-.489.406-.736c.508-.232 1.22-.554 1.418-1.05.017-.041-.023-.083-.064-.066M24.509 19.852c-1.584.658-7.787 3.313-9.383 5.19 0 0-.858-.403-1.586.403 0 0-3.123-2.426-6.991-.883-.127.05-.1.238.035.252 1.345.136 4.931.61 5.5 1.853.702 1.534 2.393 3.053 5.721 1.15 0 0 2.237.28 3.2-.422.962-.702-3.148-.546-3.148-.546s-.52-1.846 1.535-2.782c1.92-.875 4.615-2.09 5.361-3.967.063-.157-.088-.313-.244-.249M52.988 25.021c-1.022.447-5.024 2.25-6.053 3.525 0 0-.554-.274-1.024.274 0 0-2.014-1.648-4.51-.6-.082.034-.064.162.023.171.867.093 3.181.415 3.548 1.259.453 1.041 1.544 2.073 3.691.78 0 0 1.443.19 2.064-.286.62-.477-2.03-.37-2.03-.37s-.336-1.254.99-1.89c1.24-.594 2.978-1.42 3.459-2.694.04-.106-.057-.212-.157-.169M68.242 27.12c.017-.355.215-.334.338-.287.3-.125.797.25 1.079.354.239.089.522.063.635.048a.063.063 0 0 1 .071.058c.016.2-.553.134-.553.134.5.385.502.684.454.835-.01.033-.055.035-.07.004-.141-.29-.991-.805-1.254-.92-.299-.129-1.077.844-1.157.977s.026.684-.206.16c-.18-.406.302-1.005.663-1.364M37.602 35.577c.04-.813.496-.766.778-.657.688-.288 1.83.574 2.478.814.55.202 1.2.144 1.459.11a.145.145 0 0 1 .164.132c.037.46-1.272.307-1.272.307 1.148.886 1.155 1.574 1.044 1.92-.023.075-.127.079-.161.008-.325-.665-2.277-1.85-2.881-2.111-.686-.298-2.475 1.938-2.658 2.243-.184.305.06 1.572-.474.366-.412-.93.695-2.307 1.523-3.132M27.057 30.833c.056-1.155.704-1.088 1.104-.933.977-.41 2.6.815 3.52 1.155.779.288 1.703.205 2.07.155a.206.206 0 0 1 .234.189c.052.652-1.806.436-1.806.436 1.63 1.259 1.64 2.234 1.482 2.726-.034.107-.18.112-.23.011-.46-.944-3.233-2.626-4.09-2.997-.974-.422-3.514 2.752-3.774 3.185s.087 2.232-.673.52c-.585-1.322.987-3.276 2.163-4.447M32.733 19.065c.067-1.327.842-1.25 1.32-1.072 1.168-.471 3.108.936 4.209 1.328.931.33 2.037.235 2.476.178a.246.246 0 0 1 .28.216c.061.75-2.16.502-2.16.502 1.949 1.448 1.96 2.569 1.772 3.133-.04.123-.217.13-.275.014-.55-1.086-3.867-3.019-4.892-3.446-1.164-.485-4.202 3.164-4.513 3.662s.103 2.565-.804.598c-.7-1.52 1.18-3.766 2.587-5.113"/></g><defs><clipPath id="3m_a"><path fill="#fff" d="M0 0h150v150H0z"/></clipPath><clipPath id="3n_b"><rect width="125" height="125" x="12.64" y="12.5" fill="#fff" rx="62.5"/></clipPath></defs></svg>