<svg xmlns="http://www.w3.org/2000/svg" width="16" height="16" fill="none" class="persona-icon" viewBox="0 0 16 16"><path fill="currentColor" fill-rule="evenodd" d="M3 2.944C3 1.871 3.9 1 5.011 1h5.978C12.098 1 13 1.87 13 2.944v10.112C13 14.129 12.1 15 10.989 15H5.01C3.901 15 3 14.13 3 13.056V2.944ZM5.011 2c-.54 0-.976.423-.976.944v10.112c0 .521.437.944.976.944h5.978c.54 0 .976-.423.976-.944V2.944c0-.521-.437-.944-.976-.944H5.01Z" clip-rule="evenodd"/><path fill="currentColor" fill-rule="evenodd" d="M6.736 3.667c0-.276.231-.5.517-.5h1.494c.286 0 .517.224.517.5s-.231.5-.517.5H7.253a.509.509 0 0 1-.517-.5Z" clip-rule="evenodd"/><path fill="currentColor" d="M8.747 12.333a.735.735 0 0 1-.747.723.735.735 0 0 1-.747-.723c0-.399.334-.722.747-.722s.747.323.747.722Z"/></svg>