<svg xmlns="http://www.w3.org/2000/svg" width="20" height="20" fill="none" class="persona-icon" viewBox="0 0 20 20"><path fill="currentColor" d="M8.494 4.729a.6.6 0 0 1 .607-.593H10.9a.6.6 0 0 1 .607.593.6.6 0 0 1-.607.593H9.1a.6.6 0 0 1-.607-.593M10 16.15a.89.89 0 0 0 .899-.878.89.89 0 0 0-.899-.88.89.89 0 0 0-.899.88c0 .485.403.878.899.878"/><path fill="currentColor" fill-rule="evenodd" d="M4 3.85C4 2.552 5.077 1.5 6.404 1.5h7.192C14.923 1.5 16 2.552 16 3.85v12.3c0 1.298-1.076 2.35-2.405 2.35h-7.19C5.076 18.5 4 17.448 4 16.15zm2.404-1.164c-.657 0-1.19.521-1.19 1.164v12.3c0 .643.533 1.164 1.19 1.164h7.192c.657 0 1.19-.521 1.19-1.164V3.85c0-.643-.533-1.164-1.19-1.164z" clip-rule="evenodd"/></svg>