<svg xmlns="http://www.w3.org/2000/svg" width="32" height="32" fill="none" class="persona-icon" viewBox="0 0 32 32"><path fill="currentColor" fill-rule="evenodd" d="M7.865 7.378A3.38 3.38 0 0 1 11.243 4h9.514a3.38 3.38 0 0 1 3.378 3.378v17.244A3.38 3.38 0 0 1 20.757 28h-9.514a3.38 3.38 0 0 1-3.378-3.378zM11.243 6c-.76 0-1.378.617-1.378 1.378v17.244c0 .76.617 1.378 1.378 1.378h9.514c.761 0 1.378-.617 1.378-1.378V7.378c0-.76-.617-1.378-1.378-1.378z" clip-rule="evenodd"/><path fill="currentColor" fill-rule="evenodd" d="M13.811 8.568a1 1 0 0 1 1-1h2.378a1 1 0 1 1 0 2h-2.378a1 1 0 0 1-1-1" clip-rule="evenodd"/><path fill="currentColor" d="M17.19 24.027a1.19 1.19 0 1 1-2.379 0 1.19 1.19 0 0 1 2.378 0"/></svg>