<svg xmlns="http://www.w3.org/2000/svg" width="20" height="20" fill="none" class="persona-icon" viewBox="0 0 20 20"><path fill="currentColor" fill-rule="evenodd" d="M11.684 17.025a.625.625 0 1 1 0-1.25h1.432v-3.006c-.217-.172-.455-.3-.734-.45q-.034-.016-.068-.035c-.371-.2-.838-.456-1.188-.94-.357-.494-.541-1.145-.555-2.045-.014-.894.139-2.083.503-3.703a.625.625 0 0 1 .61-.488h4.267c.293 0 .547.205.61.491.356 1.622.493 2.815.459 3.714-.035.908-.247 1.559-.627 2.048-.37.475-.85.729-1.227.926l-.033.017c-.3.157-.548.286-.767.462v3.009h1.585a.625.625 0 0 1 0 1.25zm2.055-5.35a6 6 0 0 1 .848-.496c.388-.203.636-.35.819-.585.172-.222.336-.593.365-1.33.025-.665-.062-1.592-.327-2.906h-3.256c-.276 1.318-.378 2.25-.368 2.921.012.744.162 1.115.32 1.332.164.228.391.37.765.571l.087.047c.22.117.481.256.746.445M4.454 3.6c0-.345.28-.625.625-.625h2.845c.345 0 .625.28.625.625v2.133a1 1 0 0 1-.006.081v1.792c.654.652 1.235 1.31 1.428 2.566.198 1.285-.013 3.169-.732 6.365a.625.625 0 0 1-.61.488H4.364a.625.625 0 0 1-.61-.491c-.702-3.197-.903-5.08-.706-6.362.193-1.253.763-1.91 1.402-2.562V5.733q0-.04.005-.08zm.356 7.467a1.692 1.692 0 1 0 3.383 0 1.692 1.692 0 0 0-3.383 0m2.489-6.842H5.704v.883H7.3z" clip-rule="evenodd"/></svg>