<svg xmlns="http://www.w3.org/2000/svg" width="24" height="24" fill="none" class="persona-icon" viewBox="0 0 24 24"><path fill="currentColor" fill-rule="evenodd" d="M4.907 3.75a.75.75 0 0 1 .75-.75h3.666a.75.75 0 0 1 .75.75V6.5a1 1 0 0 1-.006.1v2.337c.847.844 1.593 1.682 1.841 3.293.253 1.645-.016 4.064-.943 8.185a.75.75 0 0 1-.732.585h-5.5a.75.75 0 0 1-.732-.59c-.905-4.12-1.161-6.537-.909-8.18.248-1.607.98-2.443 1.808-3.287V6.5q0-.05.007-.1zm2.583 7.5a2.125 2.125 0 1 0 0 4.25 2.125 2.125 0 0 0 0-4.25m-1.083-5.5h2.166V4.5H6.407zM14.17 21a.75.75 0 0 1 0-1.5h1.902v-3.957c-.29-.234-.606-.403-.974-.6l-.088-.048c-.48-.257-1.07-.583-1.513-1.195-.451-.624-.688-1.451-.706-2.605-.018-1.146.179-2.673.648-4.76a.75.75 0 0 1 .732-.585h5.5a.75.75 0 0 1 .732.59c.459 2.088.635 3.62.59 4.772-.044 1.163-.316 1.99-.796 2.608-.468.603-1.077.925-1.564 1.18l-.045.023c-.394.205-.723.377-1.016.616V19.5h2.099a.75.75 0 0 1 0 1.5zm2.65-6.773c.36-.262.721-.45 1.028-.61l.09-.047c.5-.261.83-.455 1.074-.77.232-.298.446-.788.482-1.745.034-.872-.082-2.086-.431-3.805h-4.288c-.363 1.725-.498 2.944-.484 3.822.015.966.21 1.456.421 1.749.22.304.525.494 1.007.752l.112.06c.293.156.639.34.988.594" clip-rule="evenodd"/></svg>