<svg xmlns="http://www.w3.org/2000/svg" width="32" height="32" fill="none" class="persona-icon" viewBox="0 0 32 32"><path fill="currentColor" fill-rule="evenodd" d="M6.542 5a1 1 0 0 1 1-1h4.89a1 1 0 0 1 1 1v3.667q0 .068-.01.133v3.116c1.13 1.126 2.125 2.243 2.456 4.39.337 2.194-.022 5.42-1.258 10.914a1 1 0 0 1-.975.78H6.31a1 1 0 0 1-.976-.786c-1.207-5.495-1.548-8.717-1.211-10.908.33-2.142 1.306-3.257 2.41-4.383V8.667q0-.067.008-.133zm2 1v1.667h2.89V6zm1.445 9a2.833 2.833 0 1 0 0 5.667 2.833 2.833 0 0 0 0-5.667M18.894 28a1 1 0 1 1 0-2h2.536v-5.276c-.387-.312-.809-.538-1.3-.8l-.117-.064c-.639-.342-1.427-.777-2.017-1.593-.602-.832-.917-1.935-.941-3.473-.024-1.529.238-3.565.864-6.347a1 1 0 0 1 .975-.78h7.333a1 1 0 0 1 .977.785c.611 2.786.846 4.828.787 6.364-.06 1.55-.421 2.653-1.062 3.478-.624.803-1.435 1.232-2.085 1.571l-.06.032c-.525.274-.964.504-1.354.822V26h2.797a1 1 0 0 1 0 2zm3.532-9.03c.48-.35.962-.601 1.371-.814l.121-.063c.666-.348 1.106-.607 1.431-1.026.309-.397.595-1.052.644-2.328.044-1.162-.11-2.78-.576-5.072H19.7c-.484 2.3-.664 3.925-.645 5.095.02 1.288.28 1.942.561 2.332.294.407.7.66 1.342 1.004l.15.08c.39.207.852.453 1.318.791" clip-rule="evenodd"/></svg>