<svg xmlns="http://www.w3.org/2000/svg" width="16" height="16" fill="none" class="persona-icon" viewBox="0 0 16 16"><path fill="currentColor" fill-rule="evenodd" d="M4.528 4.945a2.944 2.944 0 1 1 5.889 0 2.944 2.944 0 0 1-5.89 0m7.03 2.647a.5.5 0 0 1 .385 0l2.445 1.018a.5.5 0 0 1 .307.462v2.716c0 .931-.7 1.656-1.291 2.098-.313.234-.636.42-.91.55a4 4 0 0 1-.378.156 1.2 1.2 0 0 1-.365.072c-.13 0-.268-.04-.365-.072a4 4 0 0 1-.379-.156 5.5 5.5 0 0 1-.909-.55c-.591-.442-1.291-1.167-1.291-2.098V9.072a.5.5 0 0 1 .307-.462zM6.19 9.722c-.85 0-1.656.372-2.207 1.018a1.2 1.2 0 0 0-.288.78v.147c0 .736.597 1.333 1.334 1.333h2.818a.5.5 0 0 1 0 1H5.028a2.333 2.333 0 0 1-2.334-2.333v-.147c0-.524.187-1.03.527-1.43A3.9 3.9 0 0 1 6.19 8.723h1.055a.5.5 0 0 1 0 1zM7.472 3a1.944 1.944 0 1 0 0 3.89 1.944 1.944 0 0 0 0-3.89m2.335 6.405v2.383c0 .427.347.89.89 1.297.255.19.521.344.74.447a3 3 0 0 0 .314.127l.046-.015q.104-.034.269-.111c.218-.104.484-.257.739-.448.543-.406.89-.87.89-1.297V9.405l-1.944-.81zm3.336.74a.5.5 0 0 1 0 .706l-1.222 1.223a.5.5 0 0 1-.707 0l-.611-.611a.5.5 0 0 1 .707-.708l.257.258.87-.869a.5.5 0 0 1 .706 0" clip-rule="evenodd"/></svg>