<svg xmlns="http://www.w3.org/2000/svg" width="16" height="16" fill="none" class="persona-icon" viewBox="0 0 16 16"><path fill="currentColor" fill-rule="evenodd" d="M6.523 9.722c-.85 0-1.656.372-2.208 1.018a1.2 1.2 0 0 0-.287.78v.147c0 .736.597 1.333 1.333 1.333H8.18a.5.5 0 0 1 0 1H5.36a2.333 2.333 0 0 1-2.333-2.333v-.147c0-.524.187-1.03.527-1.43a3.9 3.9 0 0 1 2.968-1.368h1.055a.5.5 0 0 1 0 1zM4.86 4.945a2.945 2.945 0 1 1 5.89 0 2.945 2.945 0 0 1-5.89 0M7.806 3a1.945 1.945 0 1 0 0 3.89 1.945 1.945 0 0 0 0-3.89m4.086 4.429a.5.5 0 0 1 .385 0l2.444 1.018a.5.5 0 0 1 .308.462v2.716c0 .93-.7 1.655-1.292 2.098a5.5 5.5 0 0 1-.909.55 4 4 0 0 1-.379.156 1.2 1.2 0 0 1-.364.072c-.131 0-.268-.04-.365-.072a4 4 0 0 1-.38-.157 5.5 5.5 0 0 1-.908-.55c-.591-.442-1.292-1.166-1.292-2.097V8.909a.5.5 0 0 1 .308-.462zM10.14 9.242v2.383c0 .427.347.89.89 1.297.256.19.522.343.74.447a3 3 0 0 0 .315.126l.045-.014q.104-.034.27-.112c.217-.104.483-.257.738-.447.544-.407.89-.87.89-1.297V9.242l-1.944-.81zm3.337.739a.5.5 0 0 1 0 .707l-1.223 1.222a.5.5 0 0 1-.707 0l-.61-.61a.5.5 0 0 1 .706-.708l.258.258.869-.869a.5.5 0 0 1 .707 0" clip-rule="evenodd"/></svg>