<svg xmlns="http://www.w3.org/2000/svg" width="20" height="20" fill="none" class="persona-icon" viewBox="0 0 20 20"><path fill="currentColor" fill-rule="evenodd" d="M8.143 12.177a3.4 3.4 0 0 0-2.586 1.193c-.214.25-.332.57-.332.9v.174c0 .853.691 1.544 1.544 1.544h3.249a.625.625 0 1 1 0 1.25h-3.25a2.794 2.794 0 0 1-2.793-2.794v-.174c0-.627.224-1.234.632-1.712a4.65 4.65 0 0 1 3.536-1.63H9.39a.625.625 0 1 1 0 1.25zm-2-5.685a3.517 3.517 0 1 1 7.034 0 3.517 3.517 0 0 1-7.033 0m3.518-2.267a2.267 2.267 0 1 0 0 4.534 2.267 2.267 0 0 0 0-4.534m4.607 5.368a.63.63 0 0 1 .48 0l2.893 1.205a.63.63 0 0 1 .384.577v3.214c0 1.118-.84 1.984-1.542 2.508-.371.278-.756.5-1.08.654-.163.077-.317.14-.453.187a1.5 1.5 0 0 1-.442.087 1.5 1.5 0 0 1-.442-.087 4 4 0 0 1-.452-.187 6.5 6.5 0 0 1-1.081-.654c-.701-.524-1.542-1.39-1.542-2.509v-3.213c0-.252.152-.48.385-.577zm-2.027 2.199v2.797c0 .488.399 1.028 1.04 1.507.3.224.613.404.87.526a3 3 0 0 0 .357.145l.044-.014c.078-.027.186-.07.314-.13.256-.123.569-.303.869-.527.641-.48 1.04-1.02 1.04-1.508v-2.796l-2.267-.945zm3.938.828a.625.625 0 0 1 0 .884l-1.446 1.446a.625.625 0 0 1-.884 0l-.723-.723a.625.625 0 0 1 .884-.884l.281.281 1.004-1.004a.625.625 0 0 1 .884 0" clip-rule="evenodd"/></svg>