<svg xmlns="http://www.w3.org/2000/svg" width="20" height="20" fill="none"><path fill="currentColor" d="M6.853 11.768a3.66 3.66 0 0 0-2.8 1.31c-.24.285-.37.646-.37 1.02v.186c0 .96.766 1.737 1.711 1.737h3.07c.327 0 .592.269.592.6 0 .331-.265.6-.591.6h-3.07c-1.6 0-2.895-1.315-2.895-2.937v-.187c0-.659.232-1.296.653-1.797a4.836 4.836 0 0 1 3.7-1.732h1.612c.326 0 .591.27.591.6 0 .332-.265.6-.591.6H6.853Zm-2.05-6.052C4.803 3.664 6.443 2 8.465 2c2.022 0 3.662 1.664 3.662 3.716 0 2.052-1.64 3.715-3.662 3.715-2.023 0-3.662-1.663-3.662-3.715ZM8.465 3.2c-1.37 0-2.48 1.126-2.48 2.516 0 1.39 1.11 2.516 2.48 2.516 1.369 0 2.479-1.127 2.479-2.516 0-1.39-1.11-2.516-2.48-2.516Zm5.146 5.857a.584.584 0 0 1 .455 0l3.07 1.298a.6.6 0 0 1 .364.554v3.462c0 1.168-.867 2.082-1.608 2.644-.39.296-.794.533-1.135.697-.17.082-.331.15-.473.198a1.45 1.45 0 0 1-.446.09c-.158 0-.325-.05-.446-.09a4.343 4.343 0 0 1-.473-.198c-.34-.164-.744-.4-1.135-.697-.74-.562-1.608-1.476-1.608-2.644v-3.462a.6.6 0 0 1 .364-.554l3.07-1.298Zm-2.252 2.252v3.062c0 .563.449 1.164 1.133 1.683.323.245.659.441.935.574a3.182 3.182 0 0 0 .411.166c.016-.005.039-.011.07-.022a3.19 3.19 0 0 0 .341-.144c.276-.133.612-.33.935-.574.684-.52 1.133-1.12 1.133-1.683v-3.062l-2.479-1.048-2.48 1.048Zm4.202.993c.23.234.23.614 0 .848l-1.535 1.558a.585.585 0 0 1-.836 0l-.768-.778a.606.606 0 0 1 0-.849.585.585 0 0 1 .836 0l.35.355 1.117-1.134a.585.585 0 0 1 .836 0Z"/></svg>