<svg xmlns="http://www.w3.org/2000/svg" width="32" height="32" fill="none" class="persona-icon" viewBox="0 0 32 32"><path fill="currentColor" fill-rule="evenodd" d="M12.99 19.445a5.8 5.8 0 0 0-4.415 2.035A2.4 2.4 0 0 0 8 23.04v.294A2.667 2.667 0 0 0 10.667 26h5.636a1 1 0 1 1 0 2h-5.636A4.667 4.667 0 0 1 6 23.334v-.294c0-1.048.374-2.061 1.054-2.858a7.8 7.8 0 0 1 5.935-2.737h2.11a1 1 0 1 1 0 2zM9.667 9.889a5.889 5.889 0 1 1 11.777 0 5.889 5.889 0 0 1-11.777 0m5.889-3.888a3.889 3.889 0 1 0 0 7.777 3.889 3.889 0 0 0 0-7.778m8.168 8.856a1 1 0 0 1 .77 0l4.888 2.037a1 1 0 0 1 .616.923v5.432c0 1.863-1.401 3.312-2.584 4.196-.625.468-1.272.84-1.817 1.1a7 7 0 0 1-.759.312c-.194.066-.468.145-.73.145-.26 0-.535-.08-.728-.145a7 7 0 0 1-.759-.312 11 11 0 0 1-1.817-1.1c-1.183-.884-2.584-2.334-2.584-4.196v-5.432a1 1 0 0 1 .615-.923zm-3.504 3.627v4.765c0 .854.694 1.782 1.781 2.595.51.38 1.042.687 1.479.894a5 5 0 0 0 .629.252q.034-.009.092-.028c.135-.046.319-.12.537-.224a9 9 0 0 0 1.478-.895c1.087-.812 1.782-1.74 1.782-2.594v-4.765l-3.89-1.62zm6.673 1.478a1 1 0 0 1 0 1.414l-2.444 2.445a1 1 0 0 1-1.414 0l-1.223-1.223a1 1 0 0 1 1.415-1.414l.515.515 1.737-1.737a1 1 0 0 1 1.414 0" clip-rule="evenodd"/></svg>