<svg xmlns="http://www.w3.org/2000/svg" width="24" height="24" fill="none"><path fill="#000" fill-rule="evenodd" d="M12 3.538a8.462 8.462 0 1 0 0 16.924 8.462 8.462 0 0 0 0-16.924ZM2 12C2 6.477 6.477 2 12 2s10 4.477 10 10-4.477 10-10 10S2 17.523 2 12Z" clip-rule="evenodd"/><path fill="#000" fill-rule="evenodd" d="M7.897 12.256a.77.77 0 0 1 .77.77 3.334 3.334 0 0 0 6.666 0 .77.77 0 0 1 1.539 0 4.873 4.873 0 0 1-9.744 0 .77.77 0 0 1 .77-.77Z" clip-rule="evenodd"/><path fill="#000" d="M9.949 8.923a1.026 1.026 0 1 1-2.052 0 1.026 1.026 0 0 1 2.052 0ZM16.103 8.923a1.026 1.026 0 1 1-2.052 0 1.026 1.026 0 0 1 2.052 0Z"/></svg>