<svg xmlns="http://www.w3.org/2000/svg" width="24" height="24" fill="none" class="persona-icon" viewBox="0 0 24 24"><path fill="currentColor" d="M8.639 13.028a.75.75 0 0 0-1.5 0 4.861 4.861 0 0 0 9.722 0 .75.75 0 1 0-1.5 0 3.362 3.362 0 1 1-6.722 0M9.945 8.917a1.028 1.028 0 1 1-2.056 0 1.028 1.028 0 0 1 2.055 0M15.083 9.945a1.028 1.028 0 1 0 0-2.056 1.028 1.028 0 0 0 0 2.055"/><path fill="currentColor" fill-rule="evenodd" d="M12 2C6.477 2 2 6.477 2 12s4.477 10 10 10 10-4.477 10-10S17.523 2 12 2M3.5 12a8.5 8.5 0 1 1 17 0 8.5 8.5 0 0 1-17 0" clip-rule="evenodd"/></svg>