<svg xmlns="http://www.w3.org/2000/svg" width="32" height="32" fill="none" class="persona-icon" viewBox="0 0 32 32"><path fill="currentColor" d="M11.222 17.444a1 1 0 0 0-2 0 6.778 6.778 0 1 0 13.556 0 1 1 0 0 0-2 0 4.778 4.778 0 0 1-9.556 0M13.111 11.667a1.444 1.444 0 1 1-2.889 0 1.444 1.444 0 0 1 2.89 0M20.333 13.111a1.444 1.444 0 1 0 0-2.889 1.444 1.444 0 0 0 0 2.89"/><path fill="currentColor" fill-rule="evenodd" d="M16 2C8.268 2 2 8.268 2 16s6.268 14 14 14 14-6.268 14-14S23.732 2 16 2M4 16C4 9.373 9.373 4 16 4s12 5.373 12 12-5.373 12-12 12S4 22.627 4 16" clip-rule="evenodd"/></svg>