<svg xmlns="http://www.w3.org/2000/svg" width="32" height="32" fill="none"><path fill="#000" d="M16 8.443c.552 0 1 .441 1 .986v1.643h1.667c.552 0 1 .44 1 .985a.993.993 0 0 1-1 .986H17v1.643a.993.993 0 0 1-1 .985c-.552 0-1-.441-1-.985v-1.643h-1.667c-.552 0-1-.441-1-.986a.993.993 0 0 1 1-.986H15V9.43a.993.993 0 0 1 1-.986Z"/><path fill="#000" fill-rule="evenodd" d="M8.333 5.486a.993.993 0 0 1 1-.986h13.334c.552 0 1 .441 1 .986v4.271h3c.552 0 1 .442 1 .986v14.786H28c.552 0 1 .44 1 .985a.993.993 0 0 1-1 .986H4c-.552 0-1-.441-1-.986a.993.993 0 0 1 1-.985h.333V10.743a.993.993 0 0 1 1-.986h3V5.486Zm4 20.042h-2v-5.914h11.334v5.914h-2v-2.956a.993.993 0 0 0-1-.986h-5.334c-.552 0-1 .441-1 .986v2.956Zm2 0h3.334v-1.97h-3.334v1.97Zm-4-7.885h11.334V6.47H10.333v11.172Zm-2-5.914h-2v13.8h2v-13.8Zm17.334 13.8h-2v-13.8h2v13.8Z" clip-rule="evenodd"/></svg>