<svg xmlns="http://www.w3.org/2000/svg" width="20" height="20" fill="none" class="persona-icon" viewBox="0 0 20 20"><path fill="currentColor" d="M10 6.156c-1.058 0-2.067.77-2.067 2.042a.6.6 0 0 1-1.2 0c0-2.043 1.659-3.242 3.267-3.242 1.614 0 3.267 1.237 3.267 3.242 0 1.205-1.01 1.806-1.651 2.148q-.197.104-.357.185c-.203.104-.369.188-.514.283a1 1 0 0 0-.145.11v.83a.6.6 0 0 1-1.2 0v-.89c0-.554.429-.885.688-1.054.2-.131.461-.265.698-.386l.265-.137c.693-.37 1.016-.669 1.016-1.089 0-1.244-1.014-2.042-2.067-2.042M10 15.333a.889.889 0 1 0 0-1.777.889.889 0 0 0 0 1.777"/><path fill="currentColor" fill-rule="evenodd" d="M2 10a8 8 0 1 1 16 0 8 8 0 0 1-16 0m8-6.8a6.8 6.8 0 1 0 0 13.6 6.8 6.8 0 0 0 0-13.6" clip-rule="evenodd"/></svg>