<svg xmlns="http://www.w3.org/2000/svg" width="24" height="24" fill="none" class="persona-icon" viewBox="0 0 24 24"><path fill="currentColor" d="M12 7.195c-1.323 0-2.584.962-2.584 2.553a.75.75 0 0 1-1.5 0c0-2.554 2.074-4.053 4.084-4.053 2.017 0 4.083 1.547 4.083 4.053 0 1.506-1.263 2.258-2.064 2.684q-.245.13-.445.231c-.255.13-.462.236-.643.354a1.2 1.2 0 0 0-.181.14v1.035a.75.75 0 1 1-1.5 0v-1.11c0-.695.536-1.108.86-1.32.25-.163.576-.33.873-.482.117-.06.23-.117.33-.171.867-.462 1.27-.836 1.27-1.361 0-1.556-1.267-2.554-2.583-2.553M12 18.667a1.111 1.111 0 1 1 0-2.223 1.111 1.111 0 0 1 0 2.223"/><path fill="currentColor" fill-rule="evenodd" d="M2 12C2 6.477 6.477 2 12 2s10 4.477 10 10-4.477 10-10 10S2 17.523 2 12m10-8.5a8.5 8.5 0 1 0 0 17 8.5 8.5 0 0 0 0-17" clip-rule="evenodd"/></svg>