<svg xmlns="http://www.w3.org/2000/svg" width="16" height="16" fill="none" class="persona-icon" viewBox="0 0 16 16"><path fill="currentColor" d="M3.045 5.27a.912.912 0 1 0 0-1.824.912.912 0 0 0 0 1.824M5.39 3.856a.501.501 0 1 0 0 1.003h7.943a.502.502 0 0 0 0-1.003zM5.39 7.546a.501.501 0 1 0 0 1.003h7.943a.501.501 0 1 0 0-1.003zM4.888 11.738c0-.277.224-.502.501-.502h7.944a.502.502 0 0 1 0 1.003H5.39a.5.5 0 0 1-.501-.501M3.957 8.048a.912.912 0 1 1-1.824 0 .912.912 0 0 1 1.824 0M3.045 12.65a.912.912 0 1 0 0-1.824.912.912 0 0 0 0 1.823"/></svg>