<svg xmlns="http://www.w3.org/2000/svg" width="16" height="16" fill="none" class="persona-icon"><g fill="currentColor" clip-path="url(#a)"><path d="M5 4a.5.5 0 0 1 .5-.5h8a.5.5 0 0 1 0 1h-8A.5.5 0 0 1 5 4ZM5 8a.5.5 0 0 1 .5-.5h8a.5.5 0 0 1 0 1h-8A.5.5 0 0 1 5 8ZM5 12a.5.5 0 0 1 .5-.5h8a.5.5 0 0 1 0 1h-8A.5.5 0 0 1 5 12ZM4 4a1 1 0 1 1-2 0 1 1 0 0 1 2 0ZM4 8a1 1 0 1 1-2 0 1 1 0 0 1 2 0ZM4 12a1 1 0 1 1-2 0 1 1 0 0 1 2 0Z"/></g><defs><clipPath id="a"><path fill="#fff" d="M0 0h16v16H0z"/></clipPath></defs></svg>