<svg xmlns="http://www.w3.org/2000/svg" width="24" height="24" fill="none" class="persona-icon" viewBox="0 0 24 24"><path fill="currentColor" d="M7.5 6.072a.75.75 0 0 1 .75-.75h12a.75.75 0 0 1 0 1.5h-12a.75.75 0 0 1-.75-.75ZM7.5 12a.75.75 0 0 1 .75-.75h12a.75.75 0 0 1 0 1.5h-12A.75.75 0 0 1 7.5 12ZM7.5 18.072a.75.75 0 0 1 .75-.75h12a.75.75 0 0 1 0 1.5h-12a.75.75 0 0 1-.75-.75ZM6 6.072a1.5 1.5 0 1 1-3 0 1.5 1.5 0 0 1 3 0ZM6 12a1.5 1.5 0 1 1-3 0 1.5 1.5 0 0 1 3 0ZM6 18.072a1.5 1.5 0 1 1-3 0 1.5 1.5 0 0 1 3 0Z"/></svg>