<svg xmlns="http://www.w3.org/2000/svg" width="16" height="16" fill="none" class="persona-icon" viewBox="0 0 16 16"><path fill="currentColor" fill-rule="evenodd" d="M10.236 8.756c.107-.477.53-.817 1.02-.817h.407c.49 0 .913.34 1.02.817l.017.08c.001.005.014.04.079.076q.056.03.11.064c.063.038.1.031.105.03l.14-.044c.466-.146.97.05 1.216.472l.2.346c.248.425.165.965-.199 1.296l-.124.114c-.003.003-.028.031-.028.103v.01q0 .068-.003.133a.2.2 0 0 0 .01.084.1.1 0 0 0 .017.028l.13.118c.363.331.446.871.199 1.296l-.201.347c-.245.422-.75.618-1.216.472l-.307-.096h-.013999999999999999a.2.2 0 0 0-.052.018.2.2 0 0 0-.05.039l-.008.013-.022.095c-.106.477-.53.817-1.019.817h-.407c-.49 0-.913-.34-1.02-.817l-.021-.096-.008-.012a.2.2 0 0 0-.05-.039.2.2 0 0 0-.052-.018h-.013000000000000001l-.308.096c-.466.146-.97-.05-1.216-.472l-.2-.347a1.044 1.044 0 0 1 .199-1.296l.13-.118a.1.1 0 0 0 .016-.028.2.2 0 0 0 .01-.084l-.003-.133v-.01c0-.072-.025-.1-.028-.103l-.124-.114a1.044 1.044 0 0 1-.2-1.296l.201-.346c.245-.422.75-.618 1.215-.472l.141.044c.005.001.042.008.105-.03l.11-.063c.065-.036.077-.072.078-.077zm1.02.183a.045.045 0 0 0-.044.035l-.018.08c-.078.35-.32.597-.574.736l-.069.04a1.13 1.13 0 0 1-.924.13l-.141-.044a.045.045 0 0 0-.052.02l-.201.346a.045.045 0 0 0 .008.056l.125.113c.26.237.355.562.354.846v.006q0 .043.002.085c.014.299-.077.648-.351.899l-.13.118a.044.044 0 0 0-.009.055l.201.346c.01.019.032.027.052.02l.308-.096c.306-.095.607-.032.838.093.247.133.484.373.56.713l.021.096c.005.02.023.035.044.035h.407c.02 0 .039-.015.043-.035l.022-.096c.076-.34.313-.58.56-.713.231-.125.533-.188.838-.093l.308.097a.044.044 0 0 0 .052-.02l.2-.347a.045.045 0 0 0-.008-.055l-.13-.118c-.274-.251-.365-.6-.35-.9l.002-.084v-.006a1.13 1.13 0 0 1 .354-.846l.124-.113a.045.045 0 0 0 .008-.056l-.201-.346a.044.044 0 0 0-.052-.02l-.14.044c-.342.107-.678.02-.925-.13l-.07-.04a1.13 1.13 0 0 1-.574-.736l-.018-.08a.044.044 0 0 0-.043-.035zM4.528 4.945a2.944 2.944 0 1 1 5.889 0 2.944 2.944 0 0 1-5.89 0M7.472 3a1.944 1.944 0 1 0 0 3.89 1.944 1.944 0 0 0 0-3.89M6.19 9.722c-.85 0-1.657.372-2.208 1.018a1.2 1.2 0 0 0-.288.78v.147c0 .736.597 1.333 1.334 1.333h2.216a.5.5 0 0 1 0 1H5.028a2.333 2.333 0 0 1-2.334-2.333v-.147c0-.524.187-1.03.527-1.43A3.9 3.9 0 0 1 6.19 8.723h1.055a.5.5 0 0 1 0 1z" clip-rule="evenodd"/><path fill="currentColor" d="M12.422 11.303c0 .527-.43.955-.96.955a.957.957 0 0 1-.96-.955c0-.527.43-.954.96-.954s.96.427.96.954"/></svg>