<svg xmlns="http://www.w3.org/2000/svg" width="20" height="20" fill="none" class="persona-icon" viewBox="0 0 20 20"><path fill="currentColor" fill-rule="evenodd" d="M12.568 10.873a1.26 1.26 0 0 1 1.23-.985h.476c.59 0 1.1.409 1.23.985l.02.092q0 .002.01.014.015.022.061.049.066.036.13.075.046.025.072.03h.017l.164-.051a1.26 1.26 0 0 1 1.466.57l.235.404a1.26 1.26 0 0 1-.24 1.564l-.145.132-.008.014a.2.2 0 0 0-.012.076v.012q0 .078-.003.157a.2.2 0 0 0 .01.082q.006.015.007.016l.151.137c.439.4.539 1.051.24 1.564l-.234.404a1.26 1.26 0 0 1-1.466.57l-.354-.11h-.003a.1.1 0 0 0-.046.016.2.2 0 0 0-.046.035l-.003.003-.023.106a1.26 1.26 0 0 1-1.23.986h-.476a1.26 1.26 0 0 1-1.23-.986l-.023-.106-.003-.003a.2.2 0 0 0-.045-.035.1.1 0 0 0-.046-.017h-.003l-.354.111a1.26 1.26 0 0 1-1.467-.57l-.234-.404a1.26 1.26 0 0 1 .24-1.564l.152-.138q.001 0 .007-.016a.2.2 0 0 0 .01-.081l-.004-.157v-.012a.2.2 0 0 0-.011-.075q-.007-.015-.008-.015l-.145-.132a1.26 1.26 0 0 1-.24-1.564l.234-.404a1.26 1.26 0 0 1 1.467-.57l.163.051h.017a.2.2 0 0 0 .072-.03q.064-.039.13-.075a.2.2 0 0 0 .061-.048q.01-.013.01-.014zm1.23.264a.01.01 0 0 0-.01.008l-.02.094a1.36 1.36 0 0 1-.69.885l-.08.046c-.296.18-.7.286-1.112.156l-.165-.051a.01.01 0 0 0-.012.005l-.234.404a.01.01 0 0 0 .002.012l.145.133c.313.285.428.678.426 1.017v.008l.003.096c.017.358-.092.779-.424 1.082l-.151.138a.01.01 0 0 0-.002.012l.234.404a.01.01 0 0 0 .012.005l.36-.112c.369-.116.732-.039 1.01.11.296.16.582.45.673.86l.025.112a.01.01 0 0 0 .01.009h.476a.01.01 0 0 0 .01-.009l.025-.111c.091-.411.377-.7.674-.86.278-.15.641-.227 1.01-.111l.36.112a.01.01 0 0 0 .011-.005l.235-.404a.01.01 0 0 0-.002-.012l-.151-.138c-.332-.303-.441-.724-.424-1.082l.003-.096v-.008c-.002-.34.113-.732.426-1.018l.145-.132a.01.01 0 0 0 .002-.012l-.235-.404a.01.01 0 0 0-.012-.005l-.164.051a1.36 1.36 0 0 1-1.112-.156l-.08-.046a1.36 1.36 0 0 1-.69-.886l-.021-.092a.01.01 0 0 0-.01-.009zM5.907 6.435a3.477 3.477 0 1 1 6.954 0 3.477 3.477 0 0 1-6.954 0M9.384 4.21a2.227 2.227 0 1 0 0 4.453 2.227 2.227 0 0 0 0-4.454M7.887 12.051c-.978 0-1.907.429-2.543 1.173a1.36 1.36 0 0 0-.325.883v.17c0 .837.677 1.515 1.513 1.515h2.586a.625.625 0 0 1 0 1.25H6.532a2.764 2.764 0 0 1-2.763-2.764v-.171c0-.622.221-1.222.624-1.695a4.6 4.6 0 0 1 3.494-1.611h1.231a.625.625 0 0 1 0 1.25z" clip-rule="evenodd"/><path fill="currentColor" d="M15.16 13.854c0 .615-.502 1.113-1.12 1.113s-1.12-.498-1.12-1.114c0-.614.501-1.113 1.12-1.113.618 0 1.12.498 1.12 1.114"/></svg>