<svg xmlns="http://www.w3.org/2000/svg" width="20" height="20" fill="none" class="persona-icon" viewBox="0 0 20 20"><path fill="currentColor" fill-rule="evenodd" d="M9.66 2.975a3.517 3.517 0 1 0 0 7.034 3.517 3.517 0 0 0 0-7.034M7.394 6.492a2.267 2.267 0 1 1 4.533 0 2.267 2.267 0 0 1-4.533 0" clip-rule="evenodd"/><path fill="currentColor" d="M5.557 13.37a3.4 3.4 0 0 1 2.586-1.193H9.39a.625.625 0 1 0 0-1.25H8.143a4.65 4.65 0 0 0-3.536 1.631 2.64 2.64 0 0 0-.632 1.712v.174a2.794 2.794 0 0 0 2.794 2.794H9.39a.625.625 0 0 0 0-1.25H6.769a1.544 1.544 0 0 1-1.544-1.544v-.174c0-.33.118-.65.332-.9M14.225 15.174c.617 0 1.117-.498 1.117-1.111 0-.614-.5-1.111-1.117-1.111s-1.118.497-1.118 1.11.5 1.112 1.118 1.112"/><path fill="currentColor" fill-rule="evenodd" d="M12.797 11.099c.124-.556.617-.95 1.186-.95h.475c.569 0 1.062.394 1.186.95l.02.092c.002.006.017.048.092.09q.065.035.128.073c.073.045.117.037.122.035l.164-.051c.542-.17 1.13.058 1.415.55l.234.403c.287.494.19 1.123-.232 1.508l-.145.132c-.004.004-.033.036-.032.12v.012q0 .077-.004.155a.3.3 0 0 0 .012.097c.008.022.016.03.019.033l.15.137c.423.386.52 1.014.233 1.509l-.235.403c-.285.491-.872.72-1.414.55l-.358-.112h-.016a.2.2 0 0 0-.06.021.2.2 0 0 0-.059.045l-.01.015-.024.111c-.124.556-.617.95-1.186.95h-.475c-.569 0-1.062-.394-1.186-.95l-.025-.112-.01-.014a.2.2 0 0 0-.057-.045.2.2 0 0 0-.06-.021l-.013-.001h-.002l-.36.113a1.216 1.216 0 0 1-1.414-.55l-.234-.403a1.216 1.216 0 0 1 .232-1.509l.152-.137a.1.1 0 0 0 .018-.033.3.3 0 0 0 .012-.097l-.003-.155v-.011c0-.085-.029-.117-.033-.121l-.145-.132a1.215 1.215 0 0 1-.232-1.508l.234-.404c.285-.49.873-.719 1.415-.55l.164.052c.005.002.049.01.122-.035q.063-.038.127-.073c.075-.041.09-.083.091-.089zm1.186.213a.05.05 0 0 0-.05.04l-.02.094c-.092.406-.374.694-.669.856q-.04.021-.08.046a1.32 1.32 0 0 1-1.076.152l-.164-.052a.05.05 0 0 0-.06.024l-.234.403a.05.05 0 0 0 .01.064l.144.132c.302.276.413.654.412.985v.007q0 .05.003.098c.016.348-.09.755-.41 1.047l-.15.137a.05.05 0 0 0-.01.064l.234.404c.012.02.037.03.06.023l.359-.112c.355-.111.706-.038.975.107.287.155.563.435.65.83l.026.112c.005.024.026.04.05.04h.475a.05.05 0 0 0 .05-.04l.025-.11c.088-.396.364-.677.652-.831.27-.146.62-.22.976-.108l.358.112a.05.05 0 0 0 .06-.023l.234-.404a.05.05 0 0 0-.01-.064l-.15-.137c-.32-.292-.426-.699-.41-1.046l.003-.099v-.007c-.001-.33.11-.71.412-.985l.144-.132a.05.05 0 0 0 .01-.064l-.234-.403a.05.05 0 0 0-.06-.024l-.164.052a1.32 1.32 0 0 1-1.075-.152l-.082-.047a1.32 1.32 0 0 1-.668-.856l-.02-.093a.05.05 0 0 0-.051-.04z" clip-rule="evenodd"/></svg>