<svg xmlns="http://www.w3.org/2000/svg" width="32" height="32" fill="none" class="persona-icon" viewBox="0 0 32 32"><path fill="currentColor" fill-rule="evenodd" d="M6.787 8.629c0-3.385 2.708-6.129 6.049-6.129 3.34 0 6.05 2.744 6.05 6.129s-2.71 6.128-6.05 6.128-6.05-2.744-6.05-6.128m6.049-4.103c-2.236 0-4.05 1.837-4.05 4.103s1.814 4.102 4.05 4.102 4.05-1.837 4.05-4.102-1.814-4.103-4.05-4.103M10.186 18.594a6 6 0 0 0-4.584 2.142A2.57 2.57 0 0 0 5 22.389v.307c0 1.56 1.248 2.824 2.787 2.824h5.049c.552 0 1 .453 1 1.013s-.448 1.013-1 1.013h-5.05C5.144 27.546 3 25.375 3 22.696v-.307c0-1.088.383-2.141 1.08-2.969a7.98 7.98 0 0 1 6.106-2.852h2.65c.552 0 1 .453 1 1.013s-.448 1.013-1 1.013zM18.992 15.803A2.27 2.27 0 0 1 21.2 14.01h.94a2.27 2.27 0 0 1 2.208 1.793l.041.189c.015.066.08.185.261.286q.125.069.246.144c.176.109.31.107.375.087l.322-.102a2.25 2.25 0 0 1 2.634 1.038l.466.815a2.314 2.314 0 0 1-.43 2.84l-.29.268c-.05.046-.117.16-.117.363v.024q0 .154-.007.307c-.01.217.061.34.113.388l.302.28c.785.727.964 1.909.431 2.84l-.466.816a2.25 2.25 0 0 1-2.634 1.038l-.71-.225c-.04-.013-.135-.02-.274.055-.156.085-.204.185-.213.226l-.05.227A2.27 2.27 0 0 1 22.14 29.5h-.94a2.27 2.27 0 0 1-2.208-1.793l-.05-.228c-.01-.042-.058-.14-.213-.225-.138-.076-.233-.068-.273-.056l-.71.226a2.25 2.25 0 0 1-2.634-1.038l-.466-.815a2.314 2.314 0 0 1 .43-2.841l.303-.28c.052-.048.123-.17.113-.388a6 6 0 0 1-.008-.307v-.024c.001-.203-.066-.317-.116-.362l-.29-.269a2.314 2.314 0 0 1-.43-2.84l.466-.816a2.25 2.25 0 0 1 2.634-1.037l.322.102c.064.02.199.022.375-.087q.12-.075.244-.143c.18-.1.246-.22.261-.286zm2.208.233a.26.26 0 0 0-.256.208l-.042.19c-.168.764-.693 1.311-1.25 1.62a4 4 0 0 0-.165.098c-.544.336-1.276.525-2.016.29l-.321-.102a.26.26 0 0 0-.306.12l-.466.815a.27.27 0 0 0 .05.33l.29.268c.56.518.769 1.234.767 1.866v.016q0 .106.005.208c.031.666-.169 1.434-.761 1.982l-.303.28a.27.27 0 0 0-.05.33l.466.815a.26.26 0 0 0 .306.12l.71-.225c.659-.21 1.314-.072 1.821.206.54.296 1.052.826 1.215 1.567l.05.228a.26.26 0 0 0 .256.208h.94c.122 0 .229-.087.256-.208l.05-.227c.163-.742.674-1.272 1.215-1.568.508-.277 1.164-.415 1.823-.206l.709.225a.26.26 0 0 0 .305-.12l.467-.815a.27.27 0 0 0-.05-.33l-.303-.28c-.592-.548-.792-1.316-.76-1.982q.004-.103.004-.208v-.016c-.002-.632.208-1.348.767-1.866l.29-.268a.27.27 0 0 0 .05-.33l-.466-.815a.26.26 0 0 0-.306-.12l-.321.102c-.74.235-1.472.046-2.016-.29a4 4 0 0 0-.166-.098c-.557-.31-1.082-.856-1.25-1.621l-.042-.189a.26.26 0 0 0-.256-.208zm-2.745 5.72c0 1.801 1.446 3.256 3.222 3.256s3.223-1.455 3.223-3.257-1.446-3.257-3.223-3.257-3.222 1.455-3.222 3.257m3.222-1.232c.679 0 1.223.555 1.223 1.231 0 .677-.544 1.23-1.223 1.23a1.227 1.227 0 0 1-1.222-1.23c0-.676.544-1.23 1.222-1.23" clip-rule="evenodd"/></svg>