<svg xmlns="http://www.w3.org/2000/svg" width="32" height="32" fill="none" class="persona-icon" viewBox="0 0 32 32"><path fill="currentColor" fill-rule="evenodd" d="M20.472 17.512a2.09 2.09 0 0 1 2.04-1.633h.814a2.09 2.09 0 0 1 2.039 1.633l.035.16c.002.009.027.081.157.152q.112.061.22.127c.126.077.201.063.21.06l.282-.088c.932-.292 1.94.1 2.43.945l.403.692c.494.85.327 1.93-.399 2.593l-.248.226c-.008.007-.057.063-.056.207v.02q0 .135-.007.266a.5.5 0 0 0 .021.168.14.14 0 0 0 .032.056l.26.236a2.09 2.09 0 0 1 .398 2.592l-.402.693a2.09 2.09 0 0 1-2.43.945l-.616-.193h-.028a.3.3 0 0 0-.103.037.3.3 0 0 0-.1.078.1.1 0 0 0-.017.025l-.042.19a2.09 2.09 0 0 1-2.039 1.634h-.815a2.09 2.09 0 0 1-2.039-1.633l-.043-.192a.1.1 0 0 0-.016-.025.3.3 0 0 0-.099-.077.3.3 0 0 0-.103-.037h-.026l-.617.193c-.932.291-1.94-.101-2.43-.945l-.403-.693a2.09 2.09 0 0 1 .399-2.592l.26-.237a.14.14 0 0 0 .031-.056.5.5 0 0 0 .021-.167 6 6 0 0 1-.007-.266v-.02c.001-.144-.048-.2-.055-.207l-.249-.227a2.09 2.09 0 0 1-.399-2.592l.402-.692a2.09 2.09 0 0 1 2.431-.945l.282.088c.009.003.084.017.21-.06q.108-.064.219-.126c.13-.071.154-.143.157-.153zm2.04.366a.09.09 0 0 0-.088.07l-.035.16c-.157.699-.642 1.193-1.148 1.47l-.139.081c-.494.301-1.165.475-1.849.26l-.281-.088a.09.09 0 0 0-.104.04l-.402.693a.09.09 0 0 0 .017.11l.249.228c.518.473.71 1.124.708 1.692v.012q-.001.085.004.17c.029.597-.153 1.296-.703 1.797l-.26.237a.09.09 0 0 0-.017.11l.403.693c.02.036.064.052.103.04l.616-.193c.611-.191 1.214-.064 1.677.185.493.266.966.747 1.118 1.426l.043.193c.01.04.046.07.087.07h.815a.09.09 0 0 0 .087-.07l.043-.192c.152-.68.625-1.16 1.12-1.427.463-.25 1.066-.376 1.677-.185l.615.193a.09.09 0 0 0 .104-.04l.402-.693a.09.09 0 0 0-.017-.11l-.26-.237c-.55-.501-.731-1.2-.702-1.797q.004-.085.004-.17v-.013c-.002-.567.189-1.218.708-1.692l.248-.226a.09.09 0 0 0 .017-.11l-.402-.693a.09.09 0 0 0-.104-.04l-.281.088c-.684.214-1.355.04-1.849-.26l-.14-.082c-.506-.277-.991-.771-1.148-1.47l-.035-.16a.09.09 0 0 0-.087-.07zM9.055 9.89a5.889 5.889 0 1 1 11.778 0 5.889 5.889 0 0 1-11.778 0M14.945 6a3.889 3.889 0 1 0 0 7.778 3.889 3.889 0 0 0 0-7.778M12.378 19.445a5.8 5.8 0 0 0-4.414 2.035 2.4 2.4 0 0 0-.575 1.56v.293A2.667 2.667 0 0 0 10.055 26h4.433a1 1 0 0 1 0 2h-4.433a4.667 4.667 0 0 1-4.666-4.667v-.293c0-1.048.373-2.061 1.054-2.858a7.8 7.8 0 0 1 5.935-2.737h2.11a1 1 0 1 1 0 2z" clip-rule="evenodd"/><path fill="currentColor" d="M24.845 22.606c0 1.054-.86 1.91-1.92 1.91s-1.92-.856-1.92-1.91.86-1.91 1.92-1.91 1.92.856 1.92 1.91"/></svg>