<svg xmlns="http://www.w3.org/2000/svg" width="16" height="16" fill="none" class="persona-icon" viewBox="0 0 16 16"><path fill="currentColor" fill-rule="evenodd" d="M3 4.142A2.43 2.43 0 0 1 5.43 1.714H8.34c.495 0 .968.205 1.306.567L12.52 5.36c.309.331.48.766.48 1.219v.541l-1.209-.503a1.5 1.5 0 0 0-1.153 0L8.066 7.687a1.5 1.5 0 0 0-.923 1.385v2.857c0 1.004.504 1.796 1.036 2.356h-2.75A2.43 2.43 0 0 1 3 11.857zm6.143-.935v1.579c0 .434.352.785.786.785h1.421z" clip-rule="evenodd"/><path fill="currentColor" fill-rule="evenodd" d="M11.407 7.539a.5.5 0 0 0-.385 0L8.451 8.61a.5.5 0 0 0-.308.462v2.857c0 .966.728 1.722 1.349 2.186.327.245.666.44.951.576.143.067.278.123.396.163.102.034.242.075.375.075.134 0 .274-.04.376-.075.118-.04.253-.095.396-.163.285-.136.624-.331.951-.576.621-.464 1.349-1.22 1.349-2.186V9.072a.5.5 0 0 0-.308-.462zm.226 3.649.224 1.12h-1.285l.224-1.12a.641.641 0 0 1 .418-1.13.643.643 0 0 1 .42 1.13" clip-rule="evenodd"/></svg>