<svg xmlns="http://www.w3.org/2000/svg" width="20" height="20" fill="none" class="persona-icon" viewBox="0 0 20 20"><path fill="currentColor" fill-rule="evenodd" d="M3.975 5.371a2.94 2.94 0 0 1 2.94-2.94h3.495c.6 0 1.175.25 1.585.69l3.447 3.693c.375.402.583.93.583 1.48v.578l-1.447-.602a1.88 1.88 0 0 0-1.442 0L10.05 9.555a1.875 1.875 0 0 0-1.154 1.731v3.429c0 1.214.601 2.172 1.239 2.852h-3.22a2.94 2.94 0 0 1-2.94-2.939zm7.421-1.06v1.832c0 .507.411.918.918.918h1.648z" clip-rule="evenodd"/><path fill="currentColor" fill-rule="evenodd" d="m14.098 9.423 3.085 1.286a.63.63 0 0 1 .385.577v3.429c0 1.172-.882 2.085-1.628 2.643-.394.295-.802.53-1.146.693a5 5 0 0 1-.478.197 1.5 1.5 0 0 1-.459.092c-.164 0-.336-.05-.458-.092a5 5 0 0 1-.478-.197 7 7 0 0 1-1.146-.693c-.747-.558-1.629-1.471-1.629-2.643v-3.429c0-.252.152-.48.385-.577l3.086-1.286a.63.63 0 0 1 .48 0m.262 4.402a.77.77 0 0 0-.503-1.356.771.771 0 0 0-.503 1.356l-.268 1.344h1.543z" clip-rule="evenodd"/></svg>