<svg xmlns="http://www.w3.org/2000/svg" width="32" height="32" fill="none" class="persona-icon" viewBox="0 0 32 32"><path fill="currentColor" fill-rule="evenodd" d="M6 8.285a4.857 4.857 0 0 1 4.857-4.857h5.826c.99 0 1.935.41 2.61 1.135l5.747 6.156c.617.661.96 1.532.96 2.437v1.082l-2.418-1.007a3 3 0 0 0-2.307 0l-5.143 2.143a3 3 0 0 0-1.846 2.769v5.714c0 2.009 1.007 3.593 2.072 4.714h-5.5A4.857 4.857 0 0 1 6 23.714zm12.285-1.871V9.57c0 .868.704 1.572 1.572 1.572h2.842z" clip-rule="evenodd"/><path fill="currentColor" fill-rule="evenodd" d="m22.813 15.077 5.143 2.143a1 1 0 0 1 .615.923v5.714c0 1.933-1.455 3.444-2.697 4.373-.654.489-1.332.88-1.903 1.151a7 7 0 0 1-.792.326c-.203.069-.484.15-.75.15-.267 0-.548-.081-.751-.15a7 7 0 0 1-.792-.326 11.5 11.5 0 0 1-1.903-1.151c-1.242-.93-2.697-2.44-2.697-4.373v-5.714a1 1 0 0 1 .615-.923l5.143-2.143a1 1 0 0 1 .77 0m.453 7.298a1.286 1.286 0 1 0-1.676 0l-.447 2.24h2.571z" clip-rule="evenodd"/></svg>