<svg xmlns="http://www.w3.org/2000/svg" width="16" height="16" fill="none" class="persona-icon"><path fill="currentColor" d="M11.745 6.427c.13.001.261.051.361.151.347.347.593.593.795.774.2.181.332.274.443.33.212.106.417.117 1.142.117.284 0 .514.23.514.514 0 1.54-.63 2.611-1.474 3.738-.57.76-1.49 1.488-2.428 2.024-.927.53-1.964.925-2.784.925a.514.514 0 0 1-.515-.514c0-.725-.01-.93-.117-1.142-.055-.11-.148-.242-.33-.443-.179-.2-.421-.442-.762-.783a.514.514 0 0 1-.162-.376V9c0-.126.046-.248.13-.342L1.435 3.534a1.484 1.484 0 0 1 2.099-2.1l5.123 5.124a.514.514 0 0 1 .342-.13h2.746ZM2.162 2.162a.455.455 0 0 0 0 .644L7.285 7.93l.644-.644-5.123-5.123a.455.455 0 0 0-.644 0Zm7.05 5.294L7.456 9.212v1.289l3.045-3.045H9.212Zm-1.095 4.757c.205.228.37.439.485.671.161.322.208.647.221 1.025.472-.104 1.048-.332 1.642-.659l-1.144-1.144a.514.514 0 0 1 .728-.727l1.309 1.31c.55-.394 1.027-.832 1.345-1.255l.026-.035-1.35-1.35a.514.514 0 1 1 .727-.728l1.213 1.213c.332-.552.547-1.089.622-1.71-.392-.012-.726-.056-1.057-.222a3.072 3.072 0 0 1-.671-.485 14.216 14.216 0 0 1-.47-.448L7.67 11.743c.175.177.324.33.449.47Z"/></svg>