<svg xmlns="http://www.w3.org/2000/svg" width="20" height="20" fill="none" class="persona-icon" viewBox="0 0 20 20"><path fill="currentColor" fill-rule="evenodd" d="M14.264 8.185c.157 0 .313.06.432.178.395.396.675.675.904.882.229.205.377.31.5.372.235.117.463.13 1.29.13a.61.61 0 0 1 .61.61c0 1.762-.72 2.988-1.685 4.273-.652.87-1.703 1.7-2.774 2.312-1.056.604-2.243 1.058-3.183 1.058a.61.61 0 0 1-.61-.61c0-.828-.013-1.055-.131-1.29-.062-.124-.167-.272-.372-.5-.204-.227-.479-.502-.866-.89a.61.61 0 0 1-.194-.446V11.14c0-.143.05-.28.14-.39L2.502 4.928a1.715 1.715 0 0 1 2.425-2.424l5.822 5.822a.61.61 0 0 1 .39-.14h3.126Zm-10.9-4.82a.496.496 0 0 0 0 .7l5.82 5.82.702-.7-5.82-5.82a.496.496 0 0 0-.702 0Zm8.027 6.039L9.404 11.39v1.402l3.389-3.39H11.39Zm-1.24 5.38c.235.26.423.503.556.77.182.363.237.73.253 1.15.523-.119 1.156-.37 1.81-.727l-1.281-1.282a.61.61 0 0 1 .862-.862l1.478 1.478c.618-.444 1.154-.937 1.511-1.412l.018-.024-1.524-1.524a.61.61 0 1 1 .862-.862l1.36 1.36c.364-.61.6-1.204.688-1.888-.437-.014-.815-.067-1.189-.254-.267-.134-.51-.322-.77-.556a15.997 15.997 0 0 1-.52-.495l-4.61 4.61c.193.194.358.364.496.518Z" clip-rule="evenodd"/></svg>