<svg xmlns="http://www.w3.org/2000/svg" width="20" height="20" fill="none" class="persona-icon" viewBox="0 0 20 20"><path fill="currentColor" fill-rule="evenodd" d="M7.47 10.046 2.486 5.064A1.75 1.75 0 0 1 4.961 2.59l4.936 4.936a4.02 4.02 0 0 1 3.631.207c.33.189.657.45.957.695l.123.101c.269.221.529.434.804.627.631.442 1.225.69 1.88.576a.625.625 0 0 1 .733.615c0 1.794-.734 3.043-1.715 4.35-.986 1.316-2.91 2.643-4.533 3.192a.63.63 0 0 1-.546-.07A13.2 13.2 0 0 1 8.93 15.86c-.66-.708-1.227-1.494-1.47-2.216-.462-1.327-.398-2.567.01-3.599M3.37 3.474a.5.5 0 0 0 0 .706l4.74 4.739q.31-.401.692-.72L4.077 3.474a.5.5 0 0 0-.706 0m5.27 9.763.003.008c.157.47.582 1.1 1.2 1.765a12 12 0 0 0 1.82 1.59 9 9 0 0 0 1.281-.641c-.683-.406-1.44-.953-1.992-1.64a.625.625 0 0 1 .974-.783c.551.686 1.422 1.242 2.162 1.63.489-.393.916-.812 1.221-1.219l.047-.062a2.4 2.4 0 0 1-.366-.188 2.5 2.5 0 0 1-.693-.689.625.625 0 0 1 1.02-.72c.141.198.245.291.343.354.093.06.213.11.417.172.34-.586.565-1.16.654-1.814-.798-.062-1.478-.429-2.037-.82a15 15 0 0 1-.884-.688l-.117-.096c-.308-.252-.559-.448-.786-.578-2.205-1.26-5.48.954-4.267 4.419" clip-rule="evenodd"/><path fill="currentColor" d="M17.996 8.478a.6.6 0 1 1-1.2 0 .6.6 0 0 1 1.2 0M16.6 7.488a.6.6 0 1 0 0-1.2.6.6 0 0 0 0 1.2"/></svg>