<svg xmlns="http://www.w3.org/2000/svg" width="20" height="20" fill="none" class="persona-icon" viewBox="0 0 20 20"><path fill="currentColor" fill-rule="evenodd" d="M14.264 8.185c.157 0 .313.06.432.178.395.396.675.675.904.882.229.205.377.31.5.372.235.117.463.13 1.29.13a.61.61 0 0 1 .61.61c0 1.762-.72 2.988-1.685 4.273-.652.87-1.703 1.7-2.774 2.312-1.056.604-2.243 1.058-3.183 1.058a.61.61 0 0 1-.61-.61c0-.828-.013-1.055-.131-1.29-.062-.124-.167-.272-.372-.5-.204-.227-.479-.502-.866-.89a.61.61 0 0 1-.194-.446V11.14c0-.143.05-.28.14-.39L2.502 4.928a1.715 1.715 0 0 1 2.425-2.424l5.822 5.822a.61.61 0 0 1 .39-.14h3.126Zm-10.9-4.82a.496.496 0 0 0 0 .7l5.82 5.82.702-.7-5.82-5.82a.496.496 0 0 0-.702 0Zm8.027 6.039L9.404 11.39v1.402l3.389-3.39H11.39Zm-1.24 5.38a15.997 15.997 0 0 0-.495-.519l4.61-4.61c.194.193.365.357.519.496.26.234.503.422.77.556.374.187.752.24 1.189.254-.087.684-.324 1.278-.688 1.889l-1.36-1.361a.61.61 0 1 0-.862.862l1.524 1.524-.018.024c-.357.475-.893.968-1.511 1.412l-1.478-1.478a.61.61 0 1 0-.862.862l1.282 1.282c-.655.358-1.288.608-1.81.727-.017-.42-.072-.787-.254-1.15-.133-.267-.322-.51-.556-.77Z" clip-rule="evenodd"/></svg>