<svg xmlns="http://www.w3.org/2000/svg" width="24" height="24" fill="none"><path fill="#000" fill-rule="evenodd" d="M17.367 10.004a.719.719 0 0 1 .582.207c.486.485.83.83 1.113 1.084.28.253.465.383.62.461.296.148.583.164 1.598.164a.72.72 0 0 1 .72.72c0 2.155-.881 3.655-2.064 5.232-.798 1.064-2.086 2.083-3.399 2.833C15.24 21.446 13.788 22 12.64 22a.72.72 0 0 1-.72-.72c0-1.015-.016-1.302-.164-1.598-.078-.155-.208-.34-.461-.62a32.772 32.772 0 0 0-1.084-1.113.719.719 0 0 1-.207-.582.726.726 0 0 1-.004-.073V13.53c0-.124.033-.246.094-.352L2.638 5.721a2.18 2.18 0 0 1 3.083-3.083l7.456 7.456a.706.706 0 0 1 .352-.094h3.765a.7.7 0 0 1 .073.004Zm-5.002 8.094c-.175-.194-.383-.41-.628-.657l5.704-5.704c.247.245.463.453.657.628.32.287.615.517.94.679.463.232.931.294 1.48.31-.105.868-.405 1.617-.867 2.388l-1.554-1.554a.643.643 0 0 0-.909.91l1.715 1.714.016.015-.135.181c-.47.626-1.19 1.276-2.017 1.85l-1.67-1.67a.643.643 0 0 0-.909.91l1.457 1.456c-.829.456-1.633.774-2.292.919-.019-.53-.084-.984-.309-1.435-.162-.325-.392-.62-.679-.94ZM4.653 3.707l7.439 7.439-.947.946-7.438-7.44a.669.669 0 0 1 .946-.945Zm6.759 11.883v-1.612a.756.756 0 0 0 .352-.2l2.015-2.014a.755.755 0 0 0 .199-.352h1.612l-4.178 4.178Z" clip-rule="evenodd"/></svg>