<svg xmlns="http://www.w3.org/2000/svg" width="24" height="24" fill="none" class="persona-icon" viewBox="0 0 24 24"><path fill="currentColor" d="M17.367 10.004a.719.719 0 0 1 .582.207c.486.485.83.83 1.113 1.084.28.253.465.383.62.461.296.148.583.164 1.598.164a.72.72 0 0 1 .72.72c0 2.155-.881 3.655-2.064 5.232-.798 1.064-2.086 2.083-3.399 2.833C15.24 21.446 13.788 22 12.64 22a.72.72 0 0 1-.72-.72c0-1.015-.016-1.302-.164-1.598-.078-.155-.208-.34-.461-.62a32.772 32.772 0 0 0-1.084-1.113.719.719 0 0 1-.207-.582.726.726 0 0 1-.004-.073V13.53c0-.124.033-.246.094-.352L2.64 5.721A2.18 2.18 0 1 1 5.72 2.638l7.456 7.456a.706.706 0 0 1 .352-.094h3.765a.7.7 0 0 1 .073.004ZM4.653 3.707a.669.669 0 0 0-.946.946l7.439 7.439.946-.947-7.44-7.438Zm6.759 11.883 4.178-4.178h-1.612a.755.755 0 0 1-.2.352l-2.014 2.015a.756.756 0 0 1-.352.199v1.612Zm.953 2.508c.287.32.517.615.679.94.225.45.29.905.309 1.434.66-.144 1.463-.462 2.292-.918l-1.457-1.456a.643.643 0 1 1 .91-.91l1.67 1.67c.825-.574 1.546-1.224 2.016-1.85l.135-.18a.574.574 0 0 1-.016-.016l-1.715-1.715a.643.643 0 1 1 .91-.909l1.553 1.554c.462-.77.762-1.52.867-2.388-.549-.016-1.017-.078-1.48-.31-.325-.162-.62-.392-.94-.679a19.96 19.96 0 0 1-.657-.628l-5.704 5.704c.245.247.453.463.628.657Z"/></svg>