<svg xmlns="http://www.w3.org/2000/svg" width="32" height="32" fill="none"><path fill="#000" fill-rule="evenodd" d="M23.348 12.974c.208.028.409.122.569.282.669.668 1.143 1.143 1.533 1.493.387.348.64.528.854.635.409.204.804.226 2.202.226.548 0 .992.444.992.992 0 2.97-1.214 5.035-2.844 7.209-1.099 1.465-2.873 2.87-4.682 3.903-1.787 1.02-3.788 1.784-5.37 1.784a.992.992 0 0 1-.991-.992c0-1.398-.022-1.794-.226-2.202-.107-.214-.287-.467-.635-.854-.347-.386-.815-.854-1.472-1.512a.992.992 0 0 1-.313-.723v-5.29c0-.244.09-.479.251-.66l-9.88-9.88a2.863 2.863 0 0 1 4.048-4.049l9.88 9.88a.992.992 0 0 1 .66-.251h5.29c.046 0 .09.003.134.009Zm-7.124 11.148c-.24-.267-.528-.565-.865-.905l7.858-7.858c.34.336.638.624.905.865.44.395.848.711 1.295.935.639.32 1.283.405 2.039.427-.145 1.199-.56 2.234-1.2 3.3l-2.339-2.34a.992.992 0 1 0-1.403 1.403l2.604 2.603-.05.068c-.613.816-1.534 1.66-2.594 2.42l-2.525-2.526a.992.992 0 1 0-1.403 1.403l2.206 2.206c-1.145.63-2.256 1.07-3.167 1.27-.026-.729-.115-1.355-.425-1.976-.224-.448-.54-.855-.936-1.295Zm2.112-9.173-3.387 3.387v2.484l5.871-5.871h-2.484ZM4.739 4.739a.878.878 0 0 0 0 1.242l9.879 9.88 1.242-1.243L5.981 4.74a.878.878 0 0 0-1.242 0Z" clip-rule="evenodd"/></svg>