<svg xmlns="http://www.w3.org/2000/svg" width="20" height="20" fill="none" class="persona-icon" viewBox="0 0 20 20"><path fill="currentColor" d="M10.625 12.844a.625.625 0 1 1-1.25 0v-7.69l-2.39 2.494a.625.625 0 0 1-.903-.866L9.55 3.168a.625.625 0 0 1 .902 0l3.467 3.614a.625.625 0 1 1-.902.865l-2.391-2.492z"/><path fill="currentColor" d="M4.225 12.133a.625.625 0 0 0-1.25 0v2.134a2.76 2.76 0 0 0 2.758 2.758h8.534a2.76 2.76 0 0 0 2.758-2.758v-2.134a.625.625 0 0 0-1.25 0v2.134c0 .833-.675 1.508-1.508 1.508H5.733a1.51 1.51 0 0 1-1.508-1.508z"/></svg>