<svg xmlns="http://www.w3.org/2000/svg" width="24" height="24" fill="none" class="persona-icon" viewBox="0 0 24 24"><path fill="currentColor" fill-rule="evenodd" d="M2.77 14.308a.77.77 0 0 1 .769.769v3.077a2.308 2.308 0 0 0 2.307 2.308h12.308a2.308 2.308 0 0 0 2.308-2.308v-3.077a.77.77 0 0 1 1.538 0v3.077A3.846 3.846 0 0 1 18.154 22H5.846A3.846 3.846 0 0 1 2 18.154v-3.077a.77.77 0 0 1 .77-.77" clip-rule="evenodd"/><path fill="currentColor" fill-rule="evenodd" d="M12 16.872a.77.77 0 0 0 .77-.77V4.627l2.789 2.79a.77.77 0 0 0 1.088-1.088l-4.103-4.103a.77.77 0 0 0-1.088 0L7.354 6.328A.77.77 0 1 0 8.44 7.416l2.79-2.79v11.477c0 .424.344.769.769.769" clip-rule="evenodd"/></svg>