<svg xmlns="http://www.w3.org/2000/svg" width="32" height="32" fill="none" class="persona-icon" viewBox="0 0 32 32"><path fill="currentColor" d="M17 20.889a1 1 0 1 1-2 0V7.487l-4.237 4.418a1 1 0 1 1-1.443-1.384l5.958-6.213a1 1 0 0 1 1.444 0l5.958 6.213a1 1 0 0 1-1.443 1.384L17 7.487z"/><path fill="currentColor" d="M6 19.667v3.667a2.667 2.667 0 0 0 2.667 2.667h14.666A2.667 2.667 0 0 0 26 23.334v-3.667a1 1 0 1 1 2 0v3.667a4.667 4.667 0 0 1-4.667 4.667H8.667A4.667 4.667 0 0 1 4 23.334v-3.667a1 1 0 0 1 2 0"/></svg>