<svg xmlns="http://www.w3.org/2000/svg" width="16" height="16" fill="none"><path fill="#000" d="M14 4.198c-.451.2-.928.333-1.416.393.515-.315.9-.81 1.086-1.394a4.857 4.857 0 0 1-1.566.614 2.444 2.444 0 0 0-1.398-.776 2.41 2.41 0 0 0-1.57.262c-.48.263-.862.682-1.085 1.19a2.573 2.573 0 0 0-.147 1.621 6.858 6.858 0 0 1-2.809-.765 7.018 7.018 0 0 1-2.261-1.87 2.602 2.602 0 0 0-.041 2.46c.19.365.466.676.803.906a2.387 2.387 0 0 1-1.116-.313v.03c.003.581.202 1.142.562 1.59.361.448.862.754 1.418.867a2.308 2.308 0 0 1-.66.105 2.874 2.874 0 0 1-.462-.043c.158.5.465.935.877 1.248.412.313.908.486 1.421.496A4.86 4.86 0 0 1 2 11.863 6.825 6.825 0 0 0 5.774 13c.924.01 1.84-.17 2.696-.526a6.945 6.945 0 0 0 2.287-1.553 7.132 7.132 0 0 0 1.523-2.337c.35-.875.527-1.813.52-2.758V5.5c.47-.36.877-.8 1.2-1.302Z"/></svg>