<svg xmlns="http://www.w3.org/2000/svg" width="16" height="16" fill="none" class="persona-icon" viewBox="0 0 16 16"><path fill="currentColor" d="M14 4.198A5.1 5.1 0 0 1 12.8 5.5v.326a7.3 7.3 0 0 1-.52 2.758 7.1 7.1 0 0 1-1.523 2.338 6.9 6.9 0 0 1-2.287 1.552A6.8 6.8 0 0 1 5.774 13 6.83 6.83 0 0 1 2 11.863q.3.039.6.037a4.86 4.86 0 0 0 3.036-1.08 2.43 2.43 0 0 1-1.421-.497 2.52 2.52 0 0 1-.877-1.248q.23.04.462.043.337-.005.66-.105a2.45 2.45 0 0 1-1.418-.867 2.56 2.56 0 0 1-.562-1.59v-.03c.342.195.725.302 1.116.313a2.5 2.5 0 0 1-.803-.907 2.602 2.602 0 0 1 .04-2.459 7 7 0 0 0 2.262 1.87c.874.454 1.83.715 2.809.765a2.57 2.57 0 0 1 .147-1.62 2.5 2.5 0 0 1 1.085-1.19 2.4 2.4 0 0 1 1.57-.263 2.44 2.44 0 0 1 1.398.776 4.9 4.9 0 0 0 1.566-.614 2.53 2.53 0 0 1-1.086 1.394c.488-.06.965-.193 1.416-.393"/></svg>