<svg xmlns="http://www.w3.org/2000/svg" width="16" height="16" fill="none" class="persona-icon" viewBox="0 0 16 16"><path fill="currentColor" d="M14 4.198c-.451.2-.928.333-1.416.393.515-.315.9-.81 1.086-1.394a4.9 4.9 0 0 1-1.566.614 2.44 2.44 0 0 0-1.398-.776 2.4 2.4 0 0 0-1.57.262c-.48.263-.862.681-1.085 1.19a2.57 2.57 0 0 0-.147 1.621 6.9 6.9 0 0 1-2.809-.765 7 7 0 0 1-2.261-1.87 2.6 2.6 0 0 0-.04 2.46c.19.365.465.676.802.906a2.4 2.4 0 0 1-1.116-.313v.03c.003.581.202 1.143.562 1.59s.862.754 1.418.867a2.3 2.3 0 0 1-.66.105 3 3 0 0 1-.462-.043c.158.5.465.935.877 1.248a2.43 2.43 0 0 0 1.421.496A4.86 4.86 0 0 1 2 11.863 6.83 6.83 0 0 0 5.774 13c.924.01 1.84-.17 2.696-.526a6.9 6.9 0 0 0 2.287-1.553 7.1 7.1 0 0 0 1.523-2.337c.35-.875.527-1.813.52-2.758V5.5c.47-.36.877-.8 1.2-1.302"/></svg>