<svg xmlns="http://www.w3.org/2000/svg" width="32" height="32" fill="none"><path fill="#000" d="M29 8.396c-.94.4-1.933.666-2.95.786a5.09 5.09 0 0 0 2.262-2.788 10.372 10.372 0 0 1-3.262 1.228 5.152 5.152 0 0 0-2.913-1.551 5.204 5.204 0 0 0-3.27.523 5.073 5.073 0 0 0-2.26 2.38 4.956 4.956 0 0 0-.307 3.242 14.751 14.751 0 0 1-5.852-1.53 14.505 14.505 0 0 1-4.71-3.74A5.042 5.042 0 0 0 5.05 9.49a4.955 4.955 0 0 0 .602 2.376c.397.73.972 1.354 1.673 1.813A5.13 5.13 0 0 1 5 13.052v.061a4.984 4.984 0 0 0 1.172 3.18 5.142 5.142 0 0 0 2.953 1.734 4.996 4.996 0 0 1-1.375.209 6.233 6.233 0 0 1-.963-.086c.33.998.969 1.87 1.827 2.496a5.196 5.196 0 0 0 2.961.992A10.39 10.39 0 0 1 4 23.727a14.647 14.647 0 0 0 7.863 2.272 14.71 14.71 0 0 0 5.616-1.051 14.508 14.508 0 0 0 4.765-3.105 14.223 14.223 0 0 0 3.172-4.675c.73-1.75 1.099-3.625 1.084-5.517v-.65c.98-.72 1.827-1.6 2.5-2.605Z"/></svg>