<svg xmlns="http://www.w3.org/2000/svg" width="32" height="32" fill="none" class="persona-icon" viewBox="0 0 32 32"><path fill="currentColor" d="M29 8.396A10.4 10.4 0 0 1 26.5 11v.651a14 14 0 0 1-1.084 5.517 14.2 14.2 0 0 1-3.172 4.675 14.5 14.5 0 0 1-4.765 3.105 14.7 14.7 0 0 1-5.616 1.051A14.65 14.65 0 0 1 4 23.727q.623.075 1.25.073a10.4 10.4 0 0 0 6.325-2.162 5.2 5.2 0 0 1-2.961-.992 5.05 5.05 0 0 1-1.827-2.496q.479.08.963.086c.466-.006.93-.076 1.375-.21a5.14 5.14 0 0 1-2.953-1.734A4.98 4.98 0 0 1 5 13.113v-.061a5.1 5.1 0 0 0 2.325.626 5.06 5.06 0 0 1-1.673-1.813 4.96 4.96 0 0 1-.602-2.376c0-.892.236-1.768.688-2.542a14.5 14.5 0 0 0 4.71 3.739c1.82.908 3.814 1.43 5.852 1.53a4.96 4.96 0 0 1 .307-3.241 5.07 5.07 0 0 1 2.26-2.38 5.2 5.2 0 0 1 3.27-.524 5.15 5.15 0 0 1 2.913 1.551 10.4 10.4 0 0 0 3.262-1.228 5.1 5.1 0 0 1-2.262 2.788c1.017-.12 2.01-.385 2.95-.786"/></svg>