<svg xmlns="http://www.w3.org/2000/svg" width="80" height="80" fill="none" class="persona-ilustration" viewBox="0 0 80 80"><g clip-path="url(#58cZNe9nz6_a)"><path fill="#C93E41" d="M16.385 60.984c6.287 0 11.385-3.505 11.385-7.827 0-4.323-5.098-7.827-11.385-7.827C10.097 45.33 5 48.834 5 53.157c0 4.322 5.097 7.827 11.385 7.827"/><path fill="#E79EA1" d="M12.223 27.541c-.11 8.263-1.88 12.757-3.301 16.368-.972 2.466-1.78 4.52-1.787 7.082v.031c0 2.751 4.141 4.981 9.25 4.981s9.25-2.23 9.25-4.98c0-2.577-.811-4.638-1.786-7.114-1.422-3.61-3.192-8.105-3.301-16.368z"/><path fill="#C93E41" d="M24.212 28.253c0 2.75-3.345 4.98-7.471 4.98s-7.471-2.23-7.471-4.98 3.345-4.981 7.47-4.981c4.127 0 7.472 2.23 7.472 4.98"/><circle cx="16.62" cy="22.057" r="5.901" fill="#E79EA1"/><path fill="#239842" d="M63.023 61.347c6.288 0 11.385-3.504 11.385-7.827s-5.097-7.827-11.385-7.827-11.385 3.504-11.385 7.827 5.098 7.827 11.385 7.827"/><path fill="#A1DCAC" d="m72.274 51.385-.001-.07c-.015-2.543-.82-4.59-1.787-7.043-1.421-3.61-3.19-8.105-3.3-16.368H58.86c-.11 8.264-1.88 12.758-3.301 16.368-.975 2.477-1.787 4.538-1.787 7.114 0 2.75 4.142 4.98 9.25 4.98 5.11 0 9.25-2.23 9.25-4.981"/><path fill="#239842" d="M70.85 28.615c0 2.75-3.345 4.98-7.471 4.98-4.127 0-7.472-2.23-7.472-4.98s3.345-4.98 7.472-4.98c4.126 0 7.47 2.23 7.47 4.98"/><circle cx="63.258" cy="22.42" r="5.901" fill="#A1DCAC"/><path fill="#442EA4" d="M41.023 46.48c6.288 0 11.385-3.504 11.385-7.827s-5.097-7.827-11.385-7.827-11.385 3.504-11.385 7.827 5.098 7.827 11.385 7.827"/><path fill="#A4A1E0" d="M36.86 13.039c-.109 8.263-1.879 12.757-3.3 16.367-.972 2.467-1.78 4.522-1.787 7.084v.03c0 2.75 4.142 4.98 9.25 4.98 5.109 0 9.25-2.23 9.25-4.98 0-2.576-.81-4.637-1.786-7.114-1.422-3.61-3.191-8.104-3.301-16.367z"/><path fill="#442EA4" d="M48.85 13.75c0 2.75-3.345 4.98-7.47 4.98-4.127 0-7.472-2.23-7.472-4.98s3.345-4.981 7.471-4.981 7.471 2.23 7.471 4.98"/><circle cx="41.258" cy="7.554" r="5.901" fill="#A4A1E0"/><path fill="#FFA400" d="M41.385 78.414c6.287 0 11.385-3.505 11.385-7.827 0-4.323-5.098-7.827-11.385-7.827C35.097 62.76 30 66.264 30 70.587c0 4.322 5.097 7.827 11.385 7.827"/><path fill="#FEE283" d="M37.222 44.97c-.11 8.264-1.879 12.758-3.3 16.369-.972 2.466-1.78 4.52-1.787 7.082v.03c0 2.752 4.141 4.982 9.25 4.982 5.108 0 9.25-2.23 9.25-4.981V68.4c-.011-2.552-.818-4.601-1.787-7.061-1.422-3.61-3.191-8.105-3.3-16.368z"/><path fill="#FFA400" d="M49.212 45.683c0 2.75-3.346 4.98-7.472 4.98s-7.471-2.23-7.471-4.98 3.345-4.981 7.471-4.981c4.127 0 7.471 2.23 7.471 4.98"/><circle cx="41.62" cy="39.487" r="5.901" fill="#FEE283"/></g><defs><clipPath id="58cZNe9nz6_a"><path fill="#fff" d="M0 0h80v80H0z"/></clipPath></defs></svg>