<svg xmlns="http://www.w3.org/2000/svg" width="20" height="20" fill="none" class="persona-icon" viewBox="0 0 20 20"><path fill="currentColor" fill-rule="evenodd" d="M9.617 2.975a3.47 3.47 0 1 0 0 6.939 3.47 3.47 0 0 0 0-6.939m-2.219 3.47a2.22 2.22 0 1 1 4.439 0 2.22 2.22 0 0 1-4.439 0M8.105 10.733a4.64 4.64 0 0 0-3.525 1.625 2.63 2.63 0 0 0-.63 1.708v.2a2.76 2.76 0 0 0 2.758 2.759h5.818a2.76 2.76 0 0 0 2.758-2.758v-.201a2.63 2.63 0 0 0-.63-1.708 4.64 4.64 0 0 0-3.525-1.626zM5.53 13.17a3.39 3.39 0 0 1 2.575-1.187h3.024c.991 0 1.932.433 2.575 1.187.213.25.33.567.33.896v.2c0 .834-.675 1.509-1.508 1.509H6.708A1.51 1.51 0 0 1 5.2 14.267v-.201c0-.329.117-.646.33-.896" clip-rule="evenodd"/><path fill="currentColor" d="M14.95 10.711a.711.711 0 1 1 1.422 0 .711.711 0 0 1-1.422 0M15.036 8.294a.625.625 0 0 0 1.25 0V5.966a.625.625 0 1 0-1.25 0z"/></svg>