<svg xmlns="http://www.w3.org/2000/svg" width="24" height="24" fill="none" class="persona-icon" viewBox="0 0 24 24"><path fill="currentColor" fill-rule="evenodd" d="M11.253 3a4.417 4.417 0 1 0 0 8.833 4.417 4.417 0 0 0 0-8.833M8.336 7.417a2.917 2.917 0 1 1 5.833 0 2.917 2.917 0 0 1-5.833 0M9.303 13a5.92 5.92 0 0 0-4.502 2.076 3.34 3.34 0 0 0-.798 2.165v.259a3.5 3.5 0 0 0 3.5 3.5h7.5a3.5 3.5 0 0 0 3.5-3.5v-.259c0-.793-.283-1.561-.799-2.165A5.92 5.92 0 0 0 13.202 13zm-3.36 3.05a4.42 4.42 0 0 1 3.36-1.55h3.9a4.42 4.42 0 0 1 3.36 1.55c.284.332.44.755.44 1.191v.259a2 2 0 0 1-2 2h-7.5a2 2 0 0 1-2-2v-.259c0-.436.156-.859.44-1.191" clip-rule="evenodd"/><path fill="currentColor" d="M18.42 12.917a.917.917 0 1 1 1.833 0 .917.917 0 0 1-1.833 0M18.587 9.8a.75.75 0 0 0 1.5 0v-3a.75.75 0 1 0-1.5 0z"/></svg>