<svg xmlns="http://www.w3.org/2000/svg" width="32" height="32" fill="none" class="persona-icon" viewBox="0 0 32 32"><path fill="currentColor" fill-rule="evenodd" d="M15.67 4a5.889 5.889 0 1 0 0 11.778A5.889 5.889 0 0 0 15.67 4m-3.888 5.889a3.889 3.889 0 1 1 7.778 0 3.889 3.889 0 0 1-7.778 0M13.071 17.333a7.9 7.9 0 0 0-6.002 2.769 4.45 4.45 0 0 0-1.065 2.886v.345A4.667 4.667 0 0 0 10.67 28h10a4.667 4.667 0 0 0 4.666-4.667v-.345a4.45 4.45 0 0 0-1.064-2.886 7.9 7.9 0 0 0-6.003-2.769zM8.59 21.4a5.9 5.9 0 0 1 4.481-2.067h5.199c1.724 0 3.362.756 4.482 2.067.378.443.585 1.006.585 1.588v.345A2.667 2.667 0 0 1 20.671 26h-10a2.667 2.667 0 0 1-2.667-2.667v-.345c0-.582.208-1.145.586-1.588" clip-rule="evenodd"/><path fill="currentColor" d="M24.56 17.222a1.222 1.222 0 1 1 2.444 0 1.222 1.222 0 0 1-2.444 0M24.782 13.067a1 1 0 1 0 2 0v-4a1 1 0 1 0-2 0z"/></svg>