<svg xmlns="http://www.w3.org/2000/svg" width="40" height="40" fill="none" class="persona-ilustration" viewBox="0 0 40 40"><g clip-path="url(#Thr3MGH1eZc3j2eqiCYImuYgc0UOO-eEaNEFrACo7EY_a)"><rect width="20.523" height="14.97" x="18.168" y="12.515" fill="#EFEFEF" rx="1.153"/><path fill="#666" fill-rule="evenodd" d="M30.175 24.672a.3.3 0 0 0 .062 0 3.87 3.87 0 0 0 2.325-.806 3.8 3.8 0 0 0 .674-.675l.002-.004c.517-.669.81-1.502.81-2.358v-.01a3.86 3.86 0 0 0-.802-2.332l-.01-.02a.3.3 0 0 0-.057-.066 3.8 3.8 0 0 0-1.256-1.011 3.8 3.8 0 0 0-1.6-.399 1 1 0 0 0-.107-.005h-.023a1 1 0 0 0-.11.006 3.797 3.797 0 0 0-2.909 1.476l-.003.004a3.9 3.9 0 0 0-.809 2.377 3.8 3.8 0 0 0 .812 2.342.3.3 0 0 0 .053.064 3.86 3.86 0 0 0 1.977 1.287c.315.084.641.128.97.13m1.404-.896a3.2 3.2 0 0 0 .94-.662 4 4 0 0 0-.528-.209 5 5 0 0 1-.198.483c-.059.124-.13.256-.214.388m1.322-1.131c.303-.453.493-.98.543-1.527h-1.122a6.3 6.3 0 0 1-.165 1.22c.27.084.515.186.744.307m.542-2.119a3.3 3.3 0 0 0-.544-1.511 4.4 4.4 0 0 1-.75.309q.033.147.063.303.084.448.106.9zm-.926-1.98a3.2 3.2 0 0 0-.945-.669c.167.258.304.546.416.877q.284-.09.529-.209m-3.69 5.23a3.9 3.9 0 0 1-.41-.88q-.276.093-.525.216c.269.273.585.499.935.664m-1.318-1.131q.349-.186.746-.317a6.4 6.4 0 0 1-.153-1.21h-1.137a3.2 3.2 0 0 0 .544 1.527m-.54-2.119H28.1c.014-.405.067-.81.156-1.195a4.7 4.7 0 0 1-.747-.317c-.302.45-.488.972-.54 1.512m.92-1.98q.25.123.528.216.174-.51.408-.876a3.2 3.2 0 0 0-.935.66m3.742 1.19q.073.395.095.79H30.5v-.919a7.794 7.794 0 0 0 1.075-.138q.03.129.056.268m-1.722-.123v.913h-1.217a6 6 0 0 1 .135-1.042c.346.073.71.117 1.082.13m0 1.505h-1.215q.024.576.133 1.057c.346-.073.71-.117 1.082-.13zm1.822 0H30.5v.934q.24.013.482.043.318.039.602.097c.081-.345.13-.706.145-1.074m-1.23 2.896c.356-.162.606-.56.757-.878q.086-.182.157-.375a7 7 0 0 0-.915-.117zm0-5v-1.368c.257.12.45.368.534.492.15.22.275.47.378.76a7 7 0 0 1-.913.117m-.592.008v-1.376a1 1 0 0 0-.124.07c-.33.218-.59.61-.795 1.198q.442.09.92.108m0 4.986v-1.371a5.6 5.6 0 0 0-.919.107c.13.38.322.783.633 1.07q.138.127.286.194" clip-rule="evenodd"/><path fill="#666" d="M18.168 13.668c0-.637.516-1.153 1.153-1.153h18.216c.637 0 1.153.516 1.153 1.153v.667H18.168z"/><rect width="16.895" height="32.5" x="6.536" y="3.75" fill="#353535" rx="1.104"/><rect width="15.32" height="30.886" x="7.372" y="4.465" fill="#F8F8F8" rx="1.104"/><path fill="#353535" d="M16.235 4.383a1.199 1.199 0 1 1-2.398 0z"/><path fill="#EA4F4A" fill-rule="evenodd" d="M10.624 23.411a3.43 3.43 0 0 0 2.431 1.007c.95 0 1.81-.385 2.432-1.007l4.863-4.861a3.43 3.43 0 0 0-2.431-1.007c-.95 0-1.81.385-2.432 1.007a3.43 3.43 0 0 0-2.432-1.007c-2.04 0-3.332 1.534-3.438 3.488a3.43 3.43 0 0 0 1.006 2.38" clip-rule="evenodd"/><path fill="url(#Thr3MGH1eZc3j2eqiCYImuYgc0UOO-eEaNEFrACo7EY_b)" fill-rule="evenodd" d="M15.51 18.554a3.44 3.44 0 0 0-2.441-1.011c-2.05 0-3.345 1.54-3.452 3.503a3.44 3.44 0 0 0 1.01 2.39z" clip-rule="evenodd"/></g><defs><linearGradient id="Thr3MGH1eZc3j2eqiCYImuYgc0UOO-eEaNEFrACo7EY_b" x1="11.898" x2="15.51" y1="19.72" y2="23.436" gradientUnits="userSpaceOnUse"><stop stop-opacity="0"/><stop offset=".103" stop-opacity=".054"/><stop offset=".197" stop-opacity=".106"/><stop offset=".303" stop-opacity=".192"/><stop offset=".387" stop-opacity=".245"/><stop offset="1"/></linearGradient><clipPath id="Thr3MGH1eZc3j2eqiCYImuYgc0UOO-eEaNEFrACo7EY_a"><path fill="#fff" d="M0 0h40v40H0z"/></clipPath></defs></svg>