<svg xmlns="http://www.w3.org/2000/svg" width="240" height="240" fill="none" class="persona-ilustration" viewBox="0 0 240 240"><g clip-path="url(#5c_a)"><g clip-path="url(#5d_b)"><rect width="200" height="200" x="20" y="20" fill="#D3EDFF" rx="100"/><path fill="#82C2F1" d="M122.958 136.594v-5.186h106.244v5.186zM122.958 180.372v-5.186h106.244v5.186zM122.958 224.152v-5.187h106.244v5.187z"/><path fill="#AADBFF" d="M122.958 114.915h5.187v125.73h-5.187zM196.387 187.62h6.845v31.628h-6.845zM204.105 187.62h6.845v31.628h-6.845zM211.823 187.62h6.845v31.628h-6.845z"/><path fill="#82C2F1" d="m157.801 145.566 6.464-2.254 10.415 29.864-6.464 2.254z"/><path fill="#AADBFF" d="M134.371 143.557h6.845v31.628h-6.845zM142.181 143.557h6.845v31.628h-6.845zM149.991 143.557h6.845v31.628h-6.845z"/><path fill="#82C2F1" d="M189.783 157.89H217v17.295h-27.217z"/><path fill="#AADBFF" d="M187.003 157.89h32.775v4.88h-32.775zM169.431 202.224c4.028 2.681 6.373 9.78 7.041 12.994-2.723-1.505-8.699-5.229-10.819-8.086-2.65-3.571-1.257-8.26 3.778-4.908"/><path fill="#AADBFF" d="M179.452 200.408c1.615 4.561-.765 11.647-2.157 14.62-1.277-2.837-3.826-9.4-3.81-12.958.021-4.447 3.947-7.364 5.967-1.662"/><path fill="#AADBFF" d="M187.745 203.115c-.605 4.801-5.915 10.063-8.494 12.094.133-3.108.804-10.117 2.416-13.288 2.016-3.964 6.834-4.807 6.078 1.194"/><path fill="#AADBFF" d="M186.723 211.929c-.509 2.434-2.635 7.302-7.064 7.302h-5.886c-4.429 0-6.555-4.868-7.064-7.302zM152.393 195.339c-.353 7.964-1.829 23.892-4.904 23.892h-4.085c-3.075 0-4.551-15.928-4.904-23.892zM28 116h66v101.632H28z"/><path fill="#AADBFF" stroke="#82C2F1" stroke-width="2" d="M34.239 121.871h53.523v26.659H34.239zM34.239 153.486h53.523v26.659H34.239zM34.239 185.103h53.523v26.659H34.239z"/><rect width="12.46" height="2.652" x="54.77" y="125.46" fill="#82C2F1" rx="1.326"/><rect width="12.46" height="2.652" x="54.77" y="156.683" fill="#82C2F1" rx="1.326"/><rect width="12.46" height="2.652" x="54.77" y="188.715" fill="#82C2F1" rx="1.326"/><path fill="#FFC79D" d="m60.099 192.557 41.279 21.971-22.963 43.143-41.28-21.972z"/><path fill="#FFC79D" d="m68.025 152.831-8.457 44.12 34.603 19.281c6.358 3.543 28.122-20.854 32.41-40.058l-48.968-27.285z"/><path fill="#FFB26F" d="m90.437 181.846-16.826 12.447c9.611 5.356 18.287 6.43 20.117 6.636 9.945 1.122 44.175-4.5 33.34-42.284l-25.832 14.05z"/><path fill="#FFB26F" fill-rule="evenodd" d="M61.716 198.363a.91.91 0 0 1 1.276-.164c3.033 2.341 8.38 5.907 14.516 8.953 6.152 3.053 13.007 5.539 19.081 5.811a.91.91 0 0 1-.081 1.818c-6.45-.288-13.574-2.904-19.81-5.999-6.25-3.103-11.698-6.733-14.818-9.143a.91.91 0 0 1-.164-1.276" clip-rule="evenodd"/></g><rect width="106.78" height="77.887" x="124.149" y="81.057" fill="#EFEFEF" rx="6"/><path fill="#666" fill-rule="evenodd" d="M181.418 144.307a1.6 1.6 0 0 0 .322-.001c4.388-.048 8.678-1.532 12.1-4.193a19.8 19.8 0 0 0 3.28-3.23 1.5 1.5 0 0 0 .224-.279l.013-.022c2.692-3.481 4.218-7.816 4.218-12.268v-.053c-.013-4.436-1.539-8.699-4.174-12.135a1.6 1.6 0 0 0-.352-.445 19.9 19.9 0 0 0-6.537-5.263 19.95 19.95 0 0 0-8.32-2.073 7 7 0 0 0-.617-.031l-.06.002a7 7 0 0 0-.575.032c-4.233.143-8.34 1.61-11.631 4.168a19.8 19.8 0 0 0-3.277 3.227 1.6 1.6 0 0 0-.226.282l-.015.025a20.27 20.27 0 0 0-4.208 12.067 1.4 1.4 0 0 0-.002.302c.002 1.334.139 2.677.417 4.008a19.86 19.86 0 0 0 3.767 8.107l.041.07q.119.188.277.329c2.614 3.2 6.198 5.597 10.284 6.696 1.638.441 3.337.669 5.051.678m7.305-4.661a16.7 16.7 0 0 0 3.229-1.962 17 17 0 0 0 1.662-1.482 20 20 0 0 0-2.746-1.086q-.458 1.299-1.033 2.514a18 18 0 0 1-1.112 2.016m6.878-5.884a17.1 17.1 0 0 0 2.828-7.946h-5.84a33 33 0 0 1-.855 6.347c1.398.439 2.678.968 3.867 1.599m2.821-11.023a17 17 0 0 0-2.83-7.867 23 23 0 0 1-3.903 1.609q.175.764.329 1.58c.291 1.55.474 3.116.553 4.678zm-4.818-10.308a16.8 16.8 0 0 0-4.915-3.476c.867 1.342 1.581 2.841 2.166 4.562a20 20 0 0 0 2.749-1.086m-19.198 27.213c-.957-1.471-1.626-3.07-2.131-4.575-.957.32-1.871.695-2.734 1.122a17 17 0 0 0 4.865 3.453m-6.859-5.884a24.3 24.3 0 0 1 3.885-1.647c-.447-1.927-.71-4.01-.796-6.297h-5.918q.085.993.291 1.981a16.7 16.7 0 0 0 2.538 5.963m-2.811-11.021h5.89c.073-2.11.347-4.214.807-6.221a24.4 24.4 0 0 1-3.885-1.648 17.2 17.2 0 0 0-2.812 7.869m4.793-10.307c.865.429 1.783.805 2.743 1.127.606-1.776 1.311-3.291 2.125-4.56a16.6 16.6 0 0 0-4.868 3.433m19.464 6.198c.256 1.362.421 2.738.497 4.109h-6.377v-4.784a36 36 0 0 0 2.513-.223 41 41 0 0 0 3.079-.494q.153.671.288 1.392m-8.957-.644v4.753h-6.331c.07-1.843.308-3.675.702-5.425 1.802.381 3.691.608 5.629.672m0 7.83h-6.321c.081 2.004.31 3.824.691 5.5a32.5 32.5 0 0 1 5.63-.672zm9.477 0h-6.4v4.86q1.251.066 2.513.222c1.102.136 2.142.303 3.129.504a29.7 29.7 0 0 0 .758-5.586m-6.4 15.066c1.856-.841 3.156-2.91 3.941-4.568q.447-.946.816-1.951a38 38 0 0 0-2.62-.412 34 34 0 0 0-2.137-.195zm0-26.009v-7.12c1.341.628 2.342 1.912 2.784 2.561.781 1.143 1.427 2.441 1.962 3.955q-1.235.24-2.61.409-1.073.132-2.136.195m-3.077.037v-7.157a5 5 0 0 0-.647.364c-1.712 1.136-3.066 3.177-4.136 6.235 1.53.311 3.134.498 4.783.558m0 25.943v-7.134c-1.648.06-3.251.247-4.78.557.679 1.976 1.672 4.074 3.293 5.565.478.439.979.779 1.487 1.012" clip-rule="evenodd"/><path fill="#666" d="M124.149 87.057a6 6 0 0 1 6-6h94.78a6 6 0 0 1 6 6v3.47h-106.78z"/><rect width="69.664" height="134.012" x="66.546" y="62.17" fill="#353535" rx="4.551"/><rect width="63.173" height="127.354" x="69.994" y="65.118" fill="#F8F8F8" rx="4.551"/><path fill="#353535" d="M106.537 64.78a4.94 4.94 0 0 1-4.943 4.944 4.943 4.943 0 0 1-4.944-4.944h9.887"/><path fill="#FFC79D" d="m60.118 194.396 10.6 3.566s10.067-.239 11.319-7.83c2.246-13.618-.3-28.552-9.76-33.509-9.43-7.326-4.034-29.145-5.73-34.395s-6.01-3.872-9.858 0-3.222 15.463-3.81 26.755c-.59 11.292 1.696 30.001 7.24 45.413M143.956 144.392c1.736 7.213-1.856 7.532-6.135 8.562-4.278 1.03-8.468-1.134-9.359-4.834-.89-3.699 1.857-7.532 6.136-8.562 4.278-1.029 7.857-1.406 9.358 4.834"/><path fill="#FFC79D" d="M144.104 157.197c1.807 6.569-1.629 7.01-5.71 8.133s-8.14-.697-9.067-4.066 1.629-7.01 5.71-8.133 7.503-1.616 9.067 4.066"/><path fill="#FFC79D" d="M144.203 170.755c1.701 6.898-1.619 7.194-5.565 8.166-3.945.973-7.85-1.107-8.722-4.644s1.619-7.194 5.564-8.167 7.252-1.323 8.723 4.645"/><path fill="#EA4F4A" fill-rule="evenodd" d="M83.655 136.888a14.96 14.96 0 0 0 10.611 4.393c4.144 0 7.895-1.679 10.611-4.393l21.221-21.213a14.96 14.96 0 0 0-10.61-4.394 14.96 14.96 0 0 0-10.611 4.394 14.96 14.96 0 0 0-10.61-4.394c-8.906 0-14.54 6.693-15.005 15.223a14.95 14.95 0 0 0 4.393 10.384" clip-rule="evenodd"/><path fill="url(#5e_c)" fill-rule="evenodd" d="M104.976 115.693a15.02 15.02 0 0 0-10.652-4.412c-8.939 0-14.596 6.721-15.062 15.287a15.02 15.02 0 0 0 4.41 10.428z" clip-rule="evenodd"/></g><defs><clipPath id="5c_a"><path fill="#fff" d="M0 0h240v240H0z"/></clipPath><clipPath id="5d_b"><rect width="200" height="200" x="20" y="20" fill="#fff" rx="100"/></clipPath><linearGradient id="5e_c" x1="89.217" x2="104.976" y1="120.782" y2="136.996" gradientUnits="userSpaceOnUse"><stop stop-opacity="0"/><stop offset=".103" stop-opacity=".054"/><stop offset=".197" stop-opacity=".106"/><stop offset=".303" stop-opacity=".192"/><stop offset=".387" stop-opacity=".245"/><stop offset="1"/></linearGradient></defs></svg>