<svg xmlns="http://www.w3.org/2000/svg" width="16" height="16" fill="none"><path fill="currentColor" d="M5.152 1c.269 0 .487.224.487.5v.8h4.09v-.8c0-.276.217-.5.486-.5.27 0 .487.224.487.5v.8h.78c1.317 0 2.385 1.097 2.385 2.45v1.3c0 .276-.218.5-.487.5H2.474v5.35c0 .8.632 1.45 1.412 1.45h1.899c.269 0 .486.224.486.5s-.217.5-.486.5h-1.9c-1.317 0-2.385-1.097-2.385-2.45V4.75c0-1.353 1.068-2.45 2.386-2.45h.779v-.8c0-.276.218-.5.487-.5Zm7.741 3.75c0-.8-.632-1.45-1.412-1.45h-.779v.8c0 .276-.218.5-.487.5a.494.494 0 0 1-.487-.5v-.8h-4.09v.8c0 .276-.217.5-.486.5a.494.494 0 0 1-.487-.5v-.8h-.78c-.779 0-1.411.65-1.411 1.45v.8h10.42v-.8Z"/><path fill="currentColor" d="M11.323 9.95c0-.276-.218-.5-.487-.5a.494.494 0 0 0-.487.5v1.51l1.121 1.123c.192.193.5.189.688-.009a.51.51 0 0 0-.008-.707l-.827-.828V9.95Z"/><path fill="currentColor" d="M10.848 7.5c-2.017 0-3.651 1.679-3.651 3.75 0 2.071 1.635 3.75 3.651 3.75 2.017 0 3.652-1.679 3.652-3.75 0-2.071-1.635-3.75-3.652-3.75ZM8.17 11.25c0-1.519 1.2-2.75 2.678-2.75 1.48 0 2.678 1.231 2.678 2.75S12.327 14 10.848 14C9.37 14 8.17 12.769 8.17 11.25Z"/></svg>