<svg xmlns="http://www.w3.org/2000/svg" width="20" height="20" fill="none" class="persona-icon"><path fill="currentColor" d="M7.551 2.583c0-.322-.274-.583-.612-.583-.338 0-.612.26-.612.583v.873h-.919c-1.606 0-2.908 1.24-2.908 2.767v8.01C2.5 15.761 3.802 17 5.408 17h2.296c.338 0 .612-.26.612-.582 0-.322-.274-.583-.612-.583H5.408c-.93 0-1.684-.717-1.684-1.602v-5.97h13.164c.338 0 .612-.262.612-.583V6.223c0-1.528-1.302-2.767-2.908-2.767h-.918v-.873c0-.322-.275-.583-.613-.583-.338 0-.612.26-.612.583v.873H7.551v-.873Zm8.725 4.514H3.724v-.874c0-.884.754-1.602 1.684-1.602h.918v.874c0 .322.275.583.613.583.338 0 .612-.261.612-.583v-.874h4.898v.874c0 .322.274.583.612.583.338 0 .613-.261.613-.583v-.874h.918c.93 0 1.684.718 1.684 1.602v.874Z"/><path fill="currentColor" d="M13 11.328a.62.62 0 0 1 .62.62v1.295l.983.982a.62.62 0 1 1-.878.878l-1.346-1.346v-1.809a.62.62 0 0 1 .621-.62Z"/><path fill="currentColor" d="M8.5 13.5a4.5 4.5 0 1 1 9 0 4.5 4.5 0 0 1-9 0Zm4.5-3.259a3.259 3.259 0 1 0 0 6.518 3.259 3.259 0 0 0 0-6.518Z"/></svg>