<svg xmlns="http://www.w3.org/2000/svg" width="32" height="32" fill="none" class="persona-icon" viewBox="0 0 32 32"><path fill="currentColor" fill-rule="evenodd" d="M10.084 2c.559 0 1.011.448 1.011 1v1.6h8.495V3c0-.552.453-1 1.011-1 .559 0 1.011.448 1.011 1v1.6h1.618c2.737 0 4.955 2.194 4.955 4.9v2.6c0 .552-.452 1-1.01 1H4.522v10.7c0 1.602 1.312 2.9 2.932 2.9H11.4c.558 0 1.011.448 1.011 1s-.453 1-1.011 1H7.455c-2.737 0-4.955-2.194-4.955-4.9V9.5c0-2.706 2.218-4.9 4.955-4.9h1.618V3c0-.552.453-1 1.011-1m16.079 7.5c0-1.602-1.313-2.9-2.933-2.9h-1.618v1.6c0 .552-.452 1-1.01 1a1.006 1.006 0 0 1-1.012-1V6.6h-8.494v1.6c0 .552-.453 1-1.012 1a1.006 1.006 0 0 1-1.011-1V6.6H7.455c-1.62 0-2.932 1.298-2.932 2.9v1.6h21.64V9.5" clip-rule="evenodd"/><path fill="currentColor" d="M22.927 19.9c0-.552-.453-1-1.011-1-.559 0-1.012.448-1.012 1v3.014l2.269 2.243a1.02 1.02 0 0 0 1.43 0 .992.992 0 0 0 0-1.414l-1.676-1.657z"/><path fill="currentColor" fill-rule="evenodd" d="M21.916 15c-4.189 0-7.584 3.358-7.584 7.5 0 4.142 3.395 7.5 7.584 7.5 4.188 0 7.584-3.358 7.584-7.5 0-4.142-3.396-7.5-7.584-7.5m-5.562 7.5c0-3.038 2.49-5.5 5.562-5.5 3.071 0 5.561 2.462 5.561 5.5s-2.49 5.5-5.561 5.5c-3.072 0-5.562-2.462-5.562-5.5" clip-rule="evenodd"/></svg>