<svg xmlns="http://www.w3.org/2000/svg" width="32" height="32" fill="none" class="persona-icon" viewBox="0 0 32 32"><path fill="currentColor" fill-rule="evenodd" d="M11.111 2.166a1 1 0 0 1 1 1v1.445h7.778V3.166a1 1 0 1 1 2 0v1.445h1.444A4.667 4.667 0 0 1 28 9.278a3.444 3.444 0 0 1-3.445 3.444H6v10a2.667 2.667 0 0 0 2.667 2.667h3.666a1 1 0 1 1 0 2H8.667A4.667 4.667 0 0 1 4 22.722V9.278A4.667 4.667 0 0 1 8.667 4.61h1.444V3.166a1 1 0 0 1 1-1m-1 4.445H8.667A2.667 2.667 0 0 0 6 9.278v1.444h18.556c.797 0 1.444-.647 1.444-1.444a2.667 2.667 0 0 0-2.667-2.667H21.89v1.444a1 1 0 1 1-2 0V6.611H12.11v1.444a1 1 0 1 1-2 0zM15 22.166a7.111 7.111 0 1 1 14.222 0 7.111 7.111 0 0 1-14.222 0m7.111-5.11a5.111 5.111 0 1 0 0 10.221 5.111 5.111 0 0 0 0-10.222m0 1.666a1 1 0 0 1 1 1v2.03l1.54 1.54a1 1 0 0 1-1.414 1.415l-2.126-2.126v-2.859a1 1 0 0 1 1-1" clip-rule="evenodd"/></svg>