<svg xmlns="http://www.w3.org/2000/svg" width="32" height="32" fill="none"><path fill="#000" fill-rule="evenodd" d="M13.056 4a1.74 1.74 0 0 0-1.737 1.744v8.233a1.74 1.74 0 0 0 1.737 1.744h5.464c.959 0 1.736-.78 1.736-1.744V9.536c0-.22-.087-.431-.242-.587L15.33 4.243A.824.824 0 0 0 14.744 4h-1.69ZM9.328 5.744A3.736 3.736 0 0 1 13.056 2h1.69a2.81 2.81 0 0 1 1.992.829l4.684 4.706c.529.53.825 1.25.825 2v4.442a3.736 3.736 0 0 1-3.727 3.744h-5.464a3.736 3.736 0 0 1-3.728-3.744V5.744Z" clip-rule="evenodd"/><path fill="#000" fill-rule="evenodd" d="M16.496 5.414v1.534c0 .458.37.83.825.83h1.528l-2.353-2.364Zm-1.992-1.751c0-1.136 1.367-1.704 2.166-.902l4.82 4.841c.8.803.233 2.176-.897 2.176H17.32a2.823 2.823 0 0 1-2.817-2.83V3.663ZM15.5 24.222c-1.039 0-1.88.846-1.88 1.89 0 1.042.841 1.888 1.88 1.888s1.88-.846 1.88-1.889a1.885 1.885 0 0 0-1.88-1.889Zm-3.872 1.89a3.88 3.88 0 0 1 3.872-3.89 3.88 3.88 0 0 1 3.872 3.89A3.88 3.88 0 0 1 15.5 30a3.88 3.88 0 0 1-3.872-3.889Z" clip-rule="evenodd"/><path fill="#000" fill-rule="evenodd" d="M3 26.111c0-.552.446-1 .996-1h8.628c.55 0 .995.448.995 1s-.445 1-.995 1H3.996a.998.998 0 0 1-.996-1ZM17.38 26.111c0-.552.446-1 .996-1h8.628c.55 0 .996.448.996 1s-.446 1-.996 1h-8.628a.998.998 0 0 1-.995-1ZM15.5 24.222a.998.998 0 0 1-.996-1v-5.778c0-.552.446-1 .996-1s.996.448.996 1v5.778c0 .552-.446 1-.996 1Z" clip-rule="evenodd"/></svg>