<svg xmlns="http://www.w3.org/2000/svg" width="16" height="16" fill="none" class="persona-icon" viewBox="0 0 16 16"><path fill="currentColor" fill-rule="evenodd" d="M.973 8a7.027 7.027 0 1 1 14.054 0A7.027 7.027 0 0 1 .973 8M8 3.14a.527.527 0 0 0-.527.527v.957a2.7 2.7 0 0 0-1.594.86c-.219.272-.354.561-.391.862-.038.303.03.576.147.806.224.435.636.727.919.891.194.113.37.19.473.226l.14.05c.255.09.535.163.786.228q.162.042.302.08c.34.095.699.236.974.414.277.18.386.345.41.47.015.227-.193.546-.607.703-.516.195-1.106.178-1.665.058a5.1 5.1 0 0 1-1.283-.467.527.527 0 0 0-.5.927 6.2 6.2 0 0 0 1.89.63v.971a.527.527 0 0 0 1.053 0V11.4c.292-.027.588-.09.878-.2.644-.243 1.377-.903 1.281-1.81l-.003-.023c-.085-.566-.492-.956-.88-1.208-.397-.259-.867-.435-1.263-.546q-.204-.056-.38-.101a7 7 0 0 1-.64-.186l-.14-.05a2 2 0 0 1-.298-.144c-.229-.132-.425-.298-.51-.461a.32.32 0 0 1-.038-.194c.008-.064.04-.17.155-.317.428-.444.984-.568 1.548-.506.587.065 1.113.328 1.37.555a.527.527 0 1 0 .698-.79c-.399-.353-1.057-.674-1.778-.79v-.961A.527.527 0 0 0 8 3.14" clip-rule="evenodd"/></svg>