<svg xmlns="http://www.w3.org/2000/svg" width="20" height="20" fill="none" class="persona-icon" viewBox="0 0 20 20"><path fill="currentColor" fill-rule="evenodd" d="M2 10a8 8 0 1 1 16 0 8 8 0 0 1-16 0m8-5.533a.6.6 0 0 0-.6.6v1.09a3.08 3.08 0 0 0-1.815.978c-.249.31-.403.64-.445.982-.043.345.034.656.168.917.255.496.723.829 1.045 1.015.221.128.422.215.54.257l.158.057c.291.103.61.186.895.26q.186.048.344.091c.387.109.796.268 1.109.472.315.205.44.392.467.535.017.257-.22.62-.692.8-.586.222-1.258.202-1.895.065a5.8 5.8 0 0 1-1.46-.531.6.6 0 0 0-.57 1.056 7 7 0 0 0 2.151.717v1.105a.6.6 0 1 0 1.2 0V13.87a3.8 3.8 0 0 0 1-.227c.732-.278 1.567-1.03 1.458-2.061l-.004-.027c-.097-.644-.56-1.088-1-1.375-.453-.295-.989-.495-1.44-.621-.155-.044-.298-.08-.433-.116a8 8 0 0 1-.728-.211l-.16-.057a2.3 2.3 0 0 1-.338-.164c-.26-.151-.485-.34-.58-.525a.37.37 0 0 1-.044-.221c.009-.073.046-.193.176-.361.487-.505 1.12-.647 1.763-.576.668.074 1.267.373 1.559.631a.6.6 0 1 0 .795-.898c-.454-.402-1.203-.768-2.024-.899V5.067a.6.6 0 0 0-.6-.6" clip-rule="evenodd"/></svg>