<svg xmlns="http://www.w3.org/2000/svg" width="32" height="32" fill="none" class="persona-icon" viewBox="0 0 32 32"><path fill="currentColor" fill-rule="evenodd" d="M1.946 16C1.946 8.238 8.238 1.946 16 1.946S30.054 8.238 30.054 16 23.762 30.054 16 30.054 1.946 23.762 1.946 16M16 6.28c-.582 0-1.054.471-1.054 1.053v1.914a5.4 5.4 0 0 0-3.188 1.72c-.437.546-.708 1.123-.783 1.724-.075.607.06 1.153.296 1.613.448.87 1.27 1.454 1.836 1.783.388.224.74.377.947.45l.28.1c.51.182 1.07.327 1.572.457.215.056.42.109.604.16.68.19 1.398.471 1.947.829.554.36.773.689.82.94.031.452-.385 1.09-1.214 1.405-1.03.39-2.211.356-3.33.115a10.3 10.3 0 0 1-2.565-.933 1.054 1.054 0 1 0-1.001 1.855c.64.345 1.78.85 3.123 1.139q.317.07.656.12v1.942a1.054 1.054 0 0 0 2.108 0v-1.868a6.7 6.7 0 0 0 1.756-.399c1.287-.488 2.753-1.808 2.562-3.62l-.006-.048c-.171-1.13-.985-1.911-1.759-2.415-.795-.517-1.736-.87-2.528-1.091a38 38 0 0 0-.76-.203c-.451-.116-.856-.22-1.28-.371l-.275-.099-.005-.001a4 4 0 0 1-.595-.289c-.458-.265-.85-.597-1.018-.922a.64.64 0 0 1-.079-.389c.016-.128.081-.339.31-.634.856-.887 1.97-1.136 3.097-1.011 1.174.13 2.226.655 2.74 1.109a1.054 1.054 0 0 0 1.396-1.58c-.797-.704-2.114-1.348-3.556-1.577V7.333c0-.582-.472-1.054-1.054-1.054" clip-rule="evenodd"/></svg>