<svg xmlns="http://www.w3.org/2000/svg" width="16" height="16" fill="none" class="persona-icon" viewBox="0 0 16 16"><path fill="currentColor" fill-rule="evenodd" d="M5.429 2.714c-.79 0-1.429.64-1.429 1.429v7.714c0 .789.64 1.428 1.429 1.428h1.308a.5.5 0 1 1 0 1H5.43A2.43 2.43 0 0 1 3 11.857V4.143a2.43 2.43 0 0 1 2.429-2.43H8.34c.495 0 .968.206 1.306.568L12.52 5.36c.142.152.255.327.336.515a.5.5 0 0 1-.46.697H9.93c-.986 0-1.786-.8-1.786-1.786V2.714zm5.926 6.097a1 1 0 0 1 .047-.047l.746-.746c.21-.21.545-.443.966-.503.45-.064.925.08 1.347.503.422.422.567.896.503 1.347-.06.42-.293.755-.503.965l-3.854 3.854a.5.5 0 0 1-.353.147H8.648a.5.5 0 0 1-.5-.5v-1.606a.5.5 0 0 1 .147-.354zM9.143 3.207v1.578c0 .434.352.786.786.786h1.42zm3.488 7.54-.899-.9-2.584 2.585v.899h.899zm.624-2.242a.75.75 0 0 0-.4.22l-.416.416.899.898.416-.416a.75.75 0 0 0 .22-.4c.016-.11 0-.278-.22-.498s-.388-.236-.499-.22" clip-rule="evenodd"/></svg>