<svg xmlns="http://www.w3.org/2000/svg" width="16" height="16" fill="none" class="persona-icon" viewBox="0 0 16 16"><path fill="currentColor" fill-rule="evenodd" d="M3.968 4c0-.828.65-1.5 1.451-1.5h2.742v2.167c0 1.012.795 1.833 1.774 1.833h2.581a.484.484 0 0 0 .444-.3.513.513 0 0 0-.09-.541L9.64 2.082A1.748 1.748 0 0 0 8.342 1.5H5.42C4.083 1.5 3 2.62 3 4v8c0 1.38 1.083 2.5 2.42 2.5h1.29a.492.492 0 0 0 .484-.5c0-.276-.217-.5-.484-.5H5.42c-.802 0-1.452-.672-1.452-1.5V4m7.38 1.5H9.935a.82.82 0 0 1-.806-.833v-1.46L11.348 5.5" clip-rule="evenodd"/><path fill="currentColor" fill-rule="evenodd" d="M14.472 8.028c-.431-.431-.916-.579-1.374-.513-.43.061-.771.299-.986.513l-3.966 3.966a.5.5 0 0 0-.146.354V14a.5.5 0 0 0 .5.5h1.652a.5.5 0 0 0 .354-.146l3.966-3.966c.215-.215.452-.556.513-.985.066-.46-.082-.943-.513-1.375m-2.798 1.853.945.945L9.945 13.5H9v-.945l2.674-2.674m1.146-1.146a.79.79 0 0 1 .419-.23c.12-.017.296 0 .526.23.23.23.247.407.23.526a.789.789 0 0 1-.23.42l-.439.438-.945-.945.438-.439" clip-rule="evenodd"/></svg>