<svg xmlns="http://www.w3.org/2000/svg" width="20" height="20" fill="none" class="persona-icon" viewBox="0 0 20 20"><path fill="currentColor" fill-rule="evenodd" d="M6.914 3.682a1.69 1.69 0 0 0-1.689 1.69v9.256c0 .933.756 1.69 1.69 1.69h1.57a.625.625 0 1 1 0 1.25h-1.57a2.94 2.94 0 0 1-2.94-2.94V5.371a2.94 2.94 0 0 1 2.94-2.94h3.494c.601 0 1.175.25 1.585.69l3.448 3.693c.172.185.31.396.407.624a.625.625 0 0 1-.574.872h-2.96a2.17 2.17 0 0 1-2.168-2.168v-2.46zm4.483.63v1.83c0 .507.41.918.917.918h1.647z" clip-rule="evenodd"/><path fill="currentColor" fill-rule="evenodd" d="M14.008 10.955a1 1 0 0 1 .057-.057l.895-.895c.254-.255.66-.537 1.173-.61.549-.08 1.126.098 1.638.61.511.511.689 1.089.61 1.638-.073.512-.356.918-.61 1.172l-4.625 4.625a.63.63 0 0 1-.442.183h-1.927a.625.625 0 0 1-.624-.625V15.07c0-.166.065-.325.182-.442zm2.301-.325a.88.88 0 0 0-.465.257l-.482.481 1.043 1.043.482-.481a.88.88 0 0 0 .257-.466c.018-.125.002-.318-.257-.577-.26-.26-.453-.275-.578-.257m-.788 2.665-1.043-1.043-3.075 3.076v1.043h1.042z" clip-rule="evenodd"/></svg>