<svg xmlns="http://www.w3.org/2000/svg" width="20" height="20" fill="none" class="persona-icon" viewBox="0 0 20 20"><path fill="currentColor" fill-rule="evenodd" d="M6.914 3.682a1.69 1.69 0 0 0-1.689 1.69v9.256c0 .933.756 1.69 1.69 1.69h1.57a.625.625 0 1 1 0 1.25h-1.57a2.94 2.94 0 0 1-2.94-2.94V5.371a2.94 2.94 0 0 1 2.94-2.94h3.494c.601 0 1.175.25 1.585.69l3.448 3.693c.172.185.31.396.407.624a.625.625 0 0 1-.574.872h-2.96a2.17 2.17 0 0 1-2.168-2.168v-2.46zm4.483.63v1.83c0 .507.41.918.917.918h1.647z" clip-rule="evenodd"/><path fill="currentColor" fill-rule="evenodd" d="m14.008 10.955-3.672 3.672a.63.63 0 0 0-.184.442v1.927c0 .345.28.625.626.625h1.926a.63.63 0 0 0 .442-.183l4.625-4.624c.254-.255.537-.661.61-1.173.079-.55-.099-1.127-.61-1.638-.512-.512-1.09-.69-1.638-.61-.512.073-.919.355-1.173.61l-.895.895a1 1 0 0 0-.057.057m1.513 2.34-3.076 3.076h-1.043v-1.043l3.077-3.076zm.788-2.665c.125-.018.319-.003.578.257.26.259.275.452.257.577a.88.88 0 0 1-.257.466l-.482.481-1.043-1.043.482-.481a.88.88 0 0 1 .465-.257" clip-rule="evenodd"/></svg>