<svg xmlns="http://www.w3.org/2000/svg" width="24" height="24" fill="none" class="persona-icon" viewBox="0 0 24 24"><path fill="currentColor" d="M19.646 11.522c.689-.098 1.415.123 2.062.77.647.647.868 1.373.77 2.062-.092.643-.448 1.156-.77 1.478l-5.949 5.948a.75.75 0 0 1-.53.22H12.75a.75.75 0 0 1-.75-.75v-2.479a.75.75 0 0 1 .22-.53l5.949-5.949c.321-.322.834-.678 1.477-.77Zm-.717 4.967-1.418-1.418-4.011 4.011V20.5h1.418l4.01-4.01Zm.93-3.482c-.225.032-.456.172-.63.346l-.658.658 1.418 1.418.658-.658c.174-.174.314-.405.346-.63.025-.178-.001-.444-.346-.788-.344-.345-.61-.371-.789-.346Z"/><path fill="currentColor" d="M7.871 3.538a2.315 2.315 0 0 0-2.323 2.308v12.308a2.315 2.315 0 0 0 2.323 2.308h2.064c.428 0 .775.344.775.769 0 .425-.347.769-.775.769H7.871C5.733 22 4 20.278 4 18.154V5.846C4 3.722 5.733 2 7.871 2h4.677c.787 0 1.538.325 2.075.896l5.169 5.502c.21.224.267.55.144.832a.774.774 0 0 1-.71.462h-4.13a2.83 2.83 0 0 1-2.838-2.82V3.539H7.871Zm5.935 1.088v2.246c0 .708.578 1.282 1.29 1.282h2.26l-3.55-3.528Z"/></svg>