<svg xmlns="http://www.w3.org/2000/svg" width="24" height="24" fill="none" class="persona-icon" viewBox="0 0 24 24"><path fill="currentColor" fill-rule="evenodd" d="M7.889 3.5a2.333 2.333 0 0 0-2.333 2.333v12.334A2.333 2.333 0 0 0 7.889 20.5H9.98a.75.75 0 0 1 0 1.5H7.89a3.833 3.833 0 0 1-3.833-3.833V5.833A3.833 3.833 0 0 1 7.889 2h4.657c.777 0 1.52.323 2.05.891l4.594 4.922c.223.239.4.513.527.808a.75.75 0 0 1-.69 1.045h-3.944a2.806 2.806 0 0 1-2.805-2.805V3.5zm9.515 9.826-4.899 4.898a.75.75 0 0 0-.22.53v2.567c0 .415.337.75.75.75h2.568a.75.75 0 0 0 .53-.22l6.162-6.16c.33-.331.695-.857.79-1.516.1-.704-.126-1.448-.79-2.112-.665-.665-1.41-.89-2.113-.79-.659.094-1.184.459-1.515.79l-1.199 1.198a1 1 0 0 0-.064.065m-3.626-9.114v2.649c0 .721.584 1.305 1.305 1.305h2.385zm5.695 12.179-4.18 4.18h-1.507v-1.506l4.18-4.18zm.921-3.633c.195-.028.478.003.84.365s.393.645.365.84c-.034.24-.182.484-.365.667l-.7.7-1.507-1.506.7-.7c.183-.184.428-.332.667-.366" clip-rule="evenodd"/></svg>