<svg xmlns="http://www.w3.org/2000/svg" width="32" height="32" fill="none" class="persona-icon" viewBox="0 0 32 32"><path fill="currentColor" fill-rule="evenodd" d="M10.857 5.428A2.857 2.857 0 0 0 8 8.286v15.428a2.857 2.857 0 0 0 2.857 2.857h2.617a1 1 0 1 1 0 2h-2.617A4.857 4.857 0 0 1 6 23.714V8.286a4.857 4.857 0 0 1 4.857-4.858h5.826a3.57 3.57 0 0 1 2.61 1.135l5.746 6.156c.284.305.51.654.672 1.03a1 1 0 0 1-.946 1.394h-4.908a3.57 3.57 0 0 1-3.571-3.572V5.428zm7.429.987V9.57c0 .868.703 1.572 1.571 1.572H22.7z" clip-rule="evenodd"/><path fill="currentColor" fill-rule="evenodd" d="M22.712 17.619a1 1 0 0 1 .09-.09l1.494-1.494c.42-.42 1.09-.886 1.93-1.006.902-.129 1.852.161 2.696 1.006.844.844 1.134 1.793 1.005 2.695-.12.841-.585 1.51-1.005 1.93l-7.708 7.708a1 1 0 0 1-.707.293h-3.211a1 1 0 0 1-1-1v-3.212a1 1 0 0 1 .293-.707zm2.549 3.874-1.797-1.797-5.168 5.167v1.798h1.797zm1.249-4.484c-.283.04-.577.217-.8.44l-.832.832 1.797 1.798.833-.833c.222-.223.4-.517.44-.8.031-.222 0-.557-.44-.997s-.776-.472-.998-.44" clip-rule="evenodd"/></svg>