<svg xmlns="http://www.w3.org/2000/svg" width="32" height="32" fill="none" class="persona-icon" viewBox="0 0 32 32"><path fill="currentColor" fill-rule="evenodd" d="M10.857 5.428A2.857 2.857 0 0 0 8 8.286v15.428a2.857 2.857 0 0 0 2.857 2.857h2.617a1 1 0 1 1 0 2h-2.617A4.857 4.857 0 0 1 6 23.714V8.286a4.857 4.857 0 0 1 4.857-4.858h5.826a3.57 3.57 0 0 1 2.61 1.135l5.746 6.156c.284.305.51.654.672 1.03a1 1 0 0 1-.946 1.394h-4.908a3.57 3.57 0 0 1-3.571-3.572V5.428zm7.429.987V9.57c0 .868.703 1.572 1.571 1.572H22.7z" clip-rule="evenodd"/><path fill="currentColor" fill-rule="evenodd" d="m22.712 17.619-6.123 6.123a1 1 0 0 0-.293.707v3.212a1 1 0 0 0 1 1h3.211a1 1 0 0 0 .707-.293l7.708-7.708c.42-.42.885-1.089 1.005-1.93.13-.902-.16-1.851-1.005-2.695-.844-.845-1.794-1.135-2.695-1.006-.842.12-1.511.586-1.93 1.006L22.8 17.53a1 1 0 0 0-.089.089m2.549 3.874-5.168 5.168h-1.797v-1.798l5.168-5.167zm1.249-4.484c.222-.032.557 0 .998.44s.471.775.44.998c-.04.282-.218.576-.44.799l-.833.833-1.797-1.798.832-.832c.223-.223.517-.4.8-.44" clip-rule="evenodd"/></svg>