<svg xmlns="http://www.w3.org/2000/svg" width="24" height="24" fill="none"><path fill="#000" d="M3.538 5.846a2.308 2.308 0 0 1 2.308-2.308h2.692a.77.77 0 1 0 0-1.538H5.846A3.846 3.846 0 0 0 2 5.846v2.692a.77.77 0 1 0 1.538 0V5.846ZM15.461 2a.77.77 0 0 0 0 1.538h2.693a2.308 2.308 0 0 1 2.308 2.308v2.692a.77.77 0 0 0 1.538 0V5.846A3.846 3.846 0 0 0 18.154 2H15.46Z"/><path fill="#000" fill-rule="evenodd" d="M2 18.154V16.75h-.233A.759.759 0 0 1 1 16c0-.414.344-.75.767-.75h20.466c.423 0 .767.336.767.75s-.344.75-.767.75H22v1.404A3.846 3.846 0 0 1 18.154 22H15.46a.77.77 0 0 1 0-1.538h1.42a1.91 1.91 0 0 0 .369-1.134v-.105c0-.39-.139-.766-.392-1.063a4.022 4.022 0 0 0-3.059-1.41h-3.598a4.022 4.022 0 0 0-3.06 1.41 1.636 1.636 0 0 0-.391 1.063v.105c0 .425.137.816.37 1.134h1.418a.77.77 0 0 1 0 1.538H5.846A3.846 3.846 0 0 1 2 18.154Zm3.43 2.27a3.417 3.417 0 0 1-.18-1.096v-.105c0-.747.266-1.469.75-2.036.132-.154.271-.3.417-.437H3.538v1.404c0 1.132.816 2.074 1.891 2.27Zm12.153-3.674c.146.137.285.283.416.437.485.567.751 1.29.751 2.036v.105c0 .383-.063.752-.18 1.096a2.308 2.308 0 0 0 1.892-2.27V16.75h-2.879ZM12 6.25a3.75 3.75 0 1 0 0 7.5 3.75 3.75 0 0 0 0-7.5ZM9.75 10a2.25 2.25 0 1 1 4.5 0 2.25 2.25 0 0 1-4.5 0Z" clip-rule="evenodd"/></svg>