<svg xmlns="http://www.w3.org/2000/svg" width="20" height="20" fill="none" class="persona-icon" viewBox="0 0 20 20"><path fill="currentColor" fill-rule="evenodd" d="M7.602 6.61a2.53 2.53 0 0 1 2.539 2.52 2.53 2.53 0 0 1-2.54 2.522 2.53 2.53 0 0 1-2.538-2.521 2.53 2.53 0 0 1 2.539-2.522m-1.34 2.52a1.33 1.33 0 0 0 1.34 1.322A1.33 1.33 0 0 0 8.94 9.131a1.33 1.33 0 0 0-1.34-1.322 1.33 1.33 0 0 0-1.338 1.322" clip-rule="evenodd"/><path fill="currentColor" d="M12.957 8.358a2.05 2.05 0 0 1 2.06 2.04 2.05 2.05 0 0 1-2.06 2.041 2.05 2.05 0 0 1-2.06-2.04 2.05 2.05 0 0 1 2.06-2.04"/><path fill="currentColor" fill-rule="evenodd" d="M5.736 3.055h8.534a2.733 2.733 0 0 1 2.733 2.734v8.416a2.733 2.733 0 0 1-2.733 2.733H5.726a2.73 2.73 0 0 1-2.546-1.751l-.057-.148.003-.02a2.7 2.7 0 0 1-.123-.814V5.789a2.733 2.733 0 0 1 2.733-2.734m6.818 12.683h1.386c-.092-.76-.434-1.385-.797-1.84h.702a2.36 2.36 0 0 1 1.844.888 1.5 1.5 0 0 0 .114-.581V5.789c0-.847-.687-1.534-1.533-1.534H5.736c-.847 0-1.533.687-1.533 1.534v7.496a3.7 3.7 0 0 1 2.235-.75h2.327c1.708 0 2.964 1.153 3.437 1.752l.03.037.023.041c.214.383.331.739.331 1.076q0 .159-.032.297m-8.182-.833c.254.495.77.833 1.364.833h5.331c.041-.034.079-.061.103-.079l.027-.019c.1-.072.137-.1.169-.136.014-.017.02-.025.02-.063 0-.056-.02-.194-.155-.447-.389-.473-1.317-1.258-2.466-1.258H6.438c-.729 0-1.42.316-1.891.863a.9.9 0 0 0-.175.306" clip-rule="evenodd"/></svg>