<svg xmlns="http://www.w3.org/2000/svg" width="20" height="20" fill="none" class="persona-icon" viewBox="0 0 20 20"><path fill="currentColor" fill-rule="evenodd" d="M7.602 6.61a2.53 2.53 0 0 0-2.54 2.52 2.53 2.53 0 0 0 2.54 2.522 2.53 2.53 0 0 0 2.539-2.521 2.53 2.53 0 0 0-2.54-2.522m-1.34 2.52a1.33 1.33 0 0 1 1.34-1.32c.745 0 1.339.596 1.339 1.32a1.33 1.33 0 0 1-1.34 1.322 1.33 1.33 0 0 1-1.338-1.321" clip-rule="evenodd"/><path fill="currentColor" d="M12.957 8.358a2.05 2.05 0 0 0-2.06 2.04 2.05 2.05 0 0 0 2.06 2.041 2.05 2.05 0 0 0 2.06-2.04 2.05 2.05 0 0 0-2.06-2.04"/><path fill="currentColor" fill-rule="evenodd" d="M5.736 3.055A2.733 2.733 0 0 0 3.003 5.79v8.416c0 .283.043.557.123.814l-.003.02.056.148a2.733 2.733 0 0 0 2.548 1.751h8.543a2.733 2.733 0 0 0 2.733-2.733V5.789a2.733 2.733 0 0 0-2.733-2.734zm6.818 12.683a1.34 1.34 0 0 0 .032-.297c0-.337-.117-.693-.332-1.076l-.023-.041-.029-.037c-.473-.6-1.729-1.751-3.437-1.751H6.438c-.814 0-1.598.267-2.235.75V5.788c0-.847.686-1.534 1.533-1.534h8.534c.847 0 1.533.687 1.533 1.534v8.416c0 .206-.04.402-.114.581a2.359 2.359 0 0 0-1.844-.888h-.702c.363.455.705 1.08.797 1.84zm-8.182-.833a.924.924 0 0 1 .175-.306 2.496 2.496 0 0 1 1.891-.863h2.327c1.149 0 2.077.785 2.466 1.258.136.253.155.391.155.447 0 .038-.006.046-.02.063-.032.037-.07.064-.17.136l-.026.02a1.773 1.773 0 0 0-.103.078h-5.33c-.595 0-1.111-.338-1.365-.833" clip-rule="evenodd"/></svg>