<svg xmlns="http://www.w3.org/2000/svg" width="24" height="24" fill="none" class="persona-icon" viewBox="0 0 24 24"><path fill="currentColor" fill-rule="evenodd" d="M8.905 7.624a3.25 3.25 0 1 1 0 6.5 3.25 3.25 0 0 1 0-6.5m-1.75 3.25a1.75 1.75 0 1 0 3.5 0 1.75 1.75 0 0 0-3.5 0" clip-rule="evenodd"/><path fill="currentColor" d="M13.154 12.523a2.655 2.655 0 1 1 5.31 0 2.655 2.655 0 0 1-5.31 0"/><path fill="currentColor" fill-rule="evenodd" d="M6.5 3h11A3.5 3.5 0 0 1 21 6.5v11a3.5 3.5 0 0 1-3.5 3.5H6.455a3.5 3.5 0 0 1-3.256-2.333l-.042-.111.002-.01A3.5 3.5 0 0 1 3 17.5v-11A3.5 3.5 0 0 1 6.5 3m-.006 16.5h6.886c.055-.047.105-.083.138-.107l.035-.026c.127-.092.178-.13.22-.18.023-.026.035-.045.035-.104 0-.081-.028-.268-.206-.602-.387-.476-1.187-1.194-2.215-1.5l-.004.004a3.2 3.2 0 0 0-.978-.151H7.406c-.944 0-1.84.413-2.454 1.131q-.164.194-.24.433A2 2 0 0 0 6.488 19.5zM4.5 16.333a4.73 4.73 0 0 1 2.906-1h2.999c2.195 0 3.809 1.495 4.415 2.27l.036.046.029.052c.275.495.423.952.423 1.382q-.001.225-.05.417h1.82c-.112-1.002-.558-1.827-1.031-2.424h.905a3.03 3.03 0 0 1 2.304 1.062q.05.06.094.123c.097-.235.15-.492.15-.761v-11a2 2 0 0 0-2-2h-11a2 2 0 0 0-2 2z" clip-rule="evenodd"/></svg>