<svg xmlns="http://www.w3.org/2000/svg" width="24" height="24" fill="none" class="persona-icon" viewBox="0 0 24 24"><path fill="currentColor" d="M10.726 1.254a.77.77 0 0 0-1.087-.057.766.766 0 0 0-.057 1.084l.69.765H5.847A3.842 3.842 0 0 0 2 6.885V12a.768.768 0 0 0 1.538 0V6.884A2.305 2.305 0 0 1 5.846 4.58h4.427l-.69.766a.766.766 0 0 0 .056 1.084.77.77 0 0 0 1.087-.057l1.846-2.047a.766.766 0 0 0 0-1.026l-1.846-2.047ZM7.897 19.565a.768.768 0 1 0 0 1.535h1.136v1.133a.768.768 0 0 0 1.538 0V21.1h8.755c.425 0 .77-.344.77-.768v-8.734h1.135a.768.768 0 1 0 0-1.535h-1.136V8.93a.768.768 0 0 0-1.538 0v1.133H9.802a.768.768 0 0 0-.769.768v8.734H7.897Zm10.66 0H10.57v-7.967h7.986v7.967Z"/></svg>