<svg xmlns="http://www.w3.org/2000/svg" width="24" height="24" fill="none" class="persona-icon" viewBox="0 0 24 24"><path fill="currentColor" fill-rule="evenodd" d="M10.057 1.427a.75.75 0 0 1 1.058-.078l2.125 1.833a.75.75 0 0 1 0 1.136L11.115 6.15a.75.75 0 1 1-.98-1.135l.598-.516H6.75A2.25 2.25 0 0 0 4.5 6.75v5a.75.75 0 0 1-1.5 0v-5A3.75 3.75 0 0 1 6.75 3h3.983l-.598-.515a.75.75 0 0 1-.078-1.058m-1.7 7.68a.75.75 0 0 1 .75-.75h11a.75.75 0 0 1 .75.75v11a.75.75 0 0 1-.75.75h-11a.75.75 0 0 1-.75-.75zm1.5.75v9.5h9.5v-9.5z" clip-rule="evenodd"/></svg>