<svg xmlns="http://www.w3.org/2000/svg" width="16" height="16" fill="none" class="persona-icon" viewBox="0 0 16 16"><path fill="currentColor" fill-rule="evenodd" d="M6.6 1.142a7 7 0 0 1 8.228 8.393c-.172.657-.53 1.137-.999 1.426a2.2 2.2 0 0 1-1.505.28c-.662-.108-1.318-.509-1.67-1.133a3.389 3.389 0 1 1-.265-4.512v-.485a.5.5 0 0 1 1 0v3.972c0 .601.483 1.071 1.096 1.17.295.049.585 0 .82-.144.229-.14.445-.396.56-.84v-.001a6 6 0 1 0-3.678 4.32.5.5 0 0 1 .365.93A7 7 0 1 1 6.599 1.142m3.789 6.856a2.389 2.389 0 1 0 0 .004v-.004" clip-rule="evenodd"/></svg>