<svg xmlns="http://www.w3.org/2000/svg" width="24" height="24" fill="none" class="persona-icon" viewBox="0 0 24 24"><path fill="currentColor" fill-rule="evenodd" d="M9.999 2.202a10 10 0 0 1 11.755 11.993c-.248.943-.762 1.634-1.439 2.05-.673.415-1.45.521-2.167.405-.935-.152-1.863-.711-2.377-1.582a4.861 4.861 0 1 1-.41-6.58v-.6a.75.75 0 0 1 1.5 0v5.654c0 .831.67 1.488 1.528 1.627.412.067.815 0 1.14-.2.317-.195.619-.55.779-1.172v-.003a8.5 8.5 0 1 0-5.21 6.121.75.75 0 0 1 .548 1.397 10 10 0 1 1-5.647-19.11M15.36 12a3.361 3.361 0 1 0-6.722 0 3.361 3.361 0 0 0 6.722 0" clip-rule="evenodd"/></svg>