<svg xmlns="http://www.w3.org/2000/svg" width="16" height="16" fill="none" class="persona-icon" viewBox="0 0 16 16"><path fill="currentColor" fill-rule="evenodd" d="M4.066 2.505a.5.5 0 0 1 .5-.5h6.868a.5.5 0 0 1 .5.5v2.248h1.56a.5.5 0 0 1 .5.5v7.742h.188a.5.5 0 0 1 0 1H1.818a.5.5 0 1 1 0-1h.187V5.253a.5.5 0 0 1 .5-.5h1.56zm0 3.248h-1.06v7.242h1.06zm6.868 4.12H5.066v3.122h1.06v-1.56a.5.5 0 0 1 .5-.5h2.748a.5.5 0 0 1 .5.5v1.56h1.06zM8.5 4.567a.5.5 0 0 0-1 0v.759h-.76a.5.5 0 0 0 0 1h.76v.76a.5.5 0 1 0 1 0v-.76h.76a.5.5 0 1 0 0-1H8.5zm.374 7.368H7.126v1.06h1.748zm4.12-6.181h-1.06v7.242h1.06z" clip-rule="evenodd"/></svg>