<svg xmlns="http://www.w3.org/2000/svg" width="20" height="20" fill="none" class="persona-icon" viewBox="0 0 20 20"><path fill="currentColor" fill-rule="evenodd" d="M5.425 3.68c0-.344.28-.624.625-.624h7.9c.345 0 .624.28.624.625v2.534h1.745c.345 0 .625.28.625.625v8.854h.165a.625.625 0 0 1 0 1.25H2.89a.625.625 0 0 1 0-1.25h.166V6.841c0-.346.28-.626.625-.626h1.744zm0 3.785h-1.12v8.23h1.12zm6.78 8.23h1.12v-3.49h-6.65v3.49h1.12V13.95c0-.346.28-.625.625-.625h3.16c.345 0 .625.28.625.625zm-1.58-9.645a.625.625 0 0 0-1.25 0v.824h-.823a.625.625 0 0 0 0 1.25h.823v.823a.625.625 0 0 0 1.25 0v-.823h.823a.625.625 0 0 0 0-1.25h-.823zm.33 9.644v-1.12h-1.91v1.12zm4.74-8.228h-1.12v8.228h1.12z" clip-rule="evenodd"/></svg>