<svg xmlns="http://www.w3.org/2000/svg" width="24" height="24" fill="none" class="persona-icon" viewBox="0 0 24 24"><path fill="currentColor" fill-rule="evenodd" d="M6.098 3.758a.75.75 0 0 1 .75-.75h10.303a.75.75 0 0 1 .75.75v3.37h2.342a.75.75 0 0 1 .75.75v11.614h.28a.75.75 0 1 1 0 1.5H2.727a.75.75 0 0 1 0-1.5h.28V7.88a.75.75 0 0 1 .75-.75h2.341zm0 4.87h-1.59v10.864h1.59zm8.713 10.864h1.59V14.81H7.6v4.682h1.59v-2.34a.75.75 0 0 1 .75-.75h4.122a.75.75 0 0 1 .75.75zM12.75 6.848a.75.75 0 0 0-1.5 0v1.14h-1.139a.75.75 0 0 0 0 1.5h1.139v1.138a.75.75 0 0 0 1.5 0V9.487h1.139a.75.75 0 0 0 0-1.5H12.75zm.56 12.644v-1.59h-2.62v1.59zM19.493 8.63h-1.59v10.863h1.59z" clip-rule="evenodd"/></svg>