<svg xmlns="http://www.w3.org/2000/svg" width="32" height="32" fill="none" class="persona-icon" viewBox="0 0 32 32"><path fill="currentColor" fill-rule="evenodd" d="M8.131 5.01a1 1 0 0 1 1-1H22.87a1 1 0 0 1 1 1v4.495h3.12a1 1 0 0 1 1 1V25.99h.374a1 1 0 1 1 0 2H3.636a1 1 0 0 1 0-2h.374V10.505a1 1 0 0 1 1-1h3.121zm17.859 6.495h-2.121V25.99h2.12zm-17.859 0H6.01V25.99h2.121zm9.616 14.485v-2.121h-3.495v2.12zm2 0h2.122v-6.243H10.13v6.243h2.121v-3.121a1 1 0 0 1 1-1h5.495a1 1 0 0 1 1 1zM17 9.13a1 1 0 1 0-2 0v1.519h-1.519a1 1 0 0 0 0 2H15v1.518a1 1 0 1 0 2 0V12.65h1.518a1 1 0 1 0 0-2H17z" clip-rule="evenodd"/></svg>