<svg xmlns="http://www.w3.org/2000/svg" width="80" height="80" fill="none" class="persona-ilustration" viewBox="0 0 80 80"><g clip-path="url(#FEJ8c7L8VGNsTPYgJo7cURfsM8kiZNMOJQvafQzbXj0_a)"><path fill="#FEE283" d="M61.58 28.005c0-11.508-9.33-20.838-20.838-20.838-11.51 0-20.839 9.33-20.839 20.838v19.802c0 5.07-2.014 9.933-5.6 13.518l-1.707 1.708a5.08 5.08 0 0 0-1.487 3.59h59.265a5.08 5.08 0 0 0-1.487-3.59l-1.708-1.708a19.12 19.12 0 0 1-5.6-13.518z"/><path fill="#FFC509" d="M61.58 35.214c-4.565-1.584-12.175-2.621-20.79-2.621-8.677 0-16.333 1.052-20.887 2.654v5.036c4.554-1.602 12.21-2.654 20.886-2.654 8.616 0 16.226 1.037 20.79 2.62zM61.58 44.391c-4.565-1.584-12.175-2.621-20.79-2.621-8.677 0-16.333 1.052-20.887 2.654v3.383q0 .844-.073 1.68c4.544-1.618 12.236-2.681 20.96-2.681 8.66 0 16.304 1.048 20.86 2.645a19 19 0 0 1-.07-1.644z"/><path fill="#FFF9E1" fill-rule="evenodd" d="M38.354 11.468a1.196 1.196 0 0 1-.965 1.39 14.325 14.325 0 0 0-11.746 15.065 1.196 1.196 0 1 1-2.387.162 16.72 16.72 0 0 1 13.708-17.581 1.196 1.196 0 0 1 1.39.964" clip-rule="evenodd"/><path fill="#FFC509" d="M70.374 66.623c0 3.062-13.267 5.544-29.632 5.544s-29.633-2.482-29.633-5.544 13.267-5.544 29.633-5.544c16.365 0 29.632 2.482 29.632 5.544"/><path fill="#FFF9E1" d="M32.078 61.32c2.74-.157 5.65-.241 8.664-.241 3.248 0 6.375.097 9.3.278a8.985 8.985 0 0 1-17.964-.038"/></g><defs><clipPath id="FEJ8c7L8VGNsTPYgJo7cURfsM8kiZNMOJQvafQzbXj0_a"><path fill="#fff" d="M0 0h80v80H0z"/></clipPath></defs></svg>