<svg xmlns="http://www.w3.org/2000/svg" width="80" height="80" fill="none" class="persona-ilustration" viewBox="0 0 80 80"><g clip-path="url(#zOfcUPFbzJ_a)"><g clip-path="url(#zOfcUPFbzJ_b)"><rect width="66.667" height="66.667" x="6.666" y="6.667" fill="#D3EDFF" rx="33.333"/><rect width="38.4" height="54.4" x="21.066" y="24" fill="#353535" rx="2.667"/><rect width="38.4" height="54.4" x="21.066" y="24" fill="#353535" rx="2.667"/><rect width="35.2" height="49.6" x="22.666" y="26.666" fill="#F8F8F8" rx="1.6"/></g><rect width="38.4" height="35.2" x="21.066" y="23.467" fill="#353535" rx="2.667"/><rect width="35.2" height="32" x="22.666" y="26.667" fill="#fff" rx="1.6"/><rect width="48.533" height="16.533" x="15.733" y="42.133" fill="#375FE9" rx="2.133"/><circle cx="26.4" cy="50.666" r="2.133" fill="#FFB26F"/><circle cx="33.334" cy="50.666" r="2.133" fill="#FFB26F"/><circle cx="40.267" cy="50.666" r="2.133" fill="#FFB26F"/><circle cx="47.201" cy="50.666" r="2.133" fill="#FFB26F"/><circle cx="54.133" cy="50.666" r="2.133" fill="#FFB26F"/><circle cx="40.001" cy="16.065" r="14.723" fill="#DB4747"/><path fill="#DB4747" d="M36.746 27.689a.93.93 0 0 0-.858 1.287l3.125 7.5c.318.764 1.4.764 1.717 0l3.125-7.5a.93.93 0 0 0-.858-1.287z"/><path fill="#F8F8F8" d="M40.027 24.287c1.63 0 2.95-1.468 2.95-3.278s-1.32-3.278-2.95-3.278-2.95 1.467-2.95 3.278 1.32 3.278 2.95 3.278"/><path fill="#F8F8F8" fill-rule="evenodd" d="M40.027 7.242c.32 0 .58.278.58.621v.666c2.964.322 5.22 3.022 5.22 6.246v2.88l1.571 1.696c.109.118.17.279.168.446v1.883c0 .346-.26.627-.58.627h-4.059v.013h-5.8v-.013h-4.059c-.32 0-.58-.28-.58-.627v-1.883c0-.167.06-.328.169-.446l1.571-1.695v-2.881c0-3.224 2.256-5.924 5.22-6.246v-.666c0-.343.26-.621.58-.621" clip-rule="evenodd"/></g><defs><clipPath id="zOfcUPFbzJ_a"><path fill="#fff" d="M0 0h80v80H0z"/></clipPath><clipPath id="zOfcUPFbzJ_b"><rect width="66.667" height="66.667" x="6.666" y="6.667" fill="#fff" rx="33.333"/></clipPath></defs></svg>