<svg xmlns="http://www.w3.org/2000/svg" width="20" height="20" fill="none"><path fill="#000" d="M5.297 1.5C3.477 1.5 2 2.935 2 4.705V15.15c0 1.77 1.476 3.204 3.297 3.204H8.88c.337 0 .61-.265.61-.593a.602.602 0 0 0-.61-.593H5.297c-1.147 0-2.077-.904-2.077-2.018V4.705c0-1.115.93-2.019 2.077-2.019h8.958c1.147 0 2.077.904 2.077 2.019v6.964c0 .327.273.593.61.593.337 0 .61-.266.61-.593V4.705c0-1.77-1.476-3.205-3.297-3.205H5.297Z"/><path fill="#000" fill-rule="evenodd" d="M6.641 4.111c-1.079 0-1.954.85-1.954 1.9 0 1.048.875 1.898 1.954 1.898h6.27c1.08 0 1.954-.85 1.954-1.899 0-1.048-.875-1.899-1.954-1.899h-6.27Zm-.733 1.9c0-.394.328-.714.733-.714h6.27c.405 0 .734.32.734.713a.723.723 0 0 1-.734.713h-6.27a.723.723 0 0 1-.733-.713Z" clip-rule="evenodd"/><path fill="#000" d="M4.593 9.928c0-.328.273-.593.61-.593h1.085c.337 0 .61.265.61.593a.602.602 0 0 1-.61.593H5.203a.602.602 0 0 1-.61-.593ZM5.203 11.907a.602.602 0 0 0-.61.593c0 .328.273.593.61.593h1.085c.337 0 .61-.265.61-.593a.602.602 0 0 0-.61-.593H5.203ZM4.593 15.072c0-.327.273-.593.61-.593h1.085c.337 0 .61.266.61.593a.602.602 0 0 1-.61.593H5.203a.602.602 0 0 1-.61-.593ZM9.234 9.335a.602.602 0 0 0-.61.593c0 .327.273.593.61.593h1.084c.338 0 .61-.266.61-.593a.602.602 0 0 0-.61-.593H9.234ZM8.623 12.5c0-.328.274-.593.61-.593h1.085c.338 0 .61.265.61.593a.602.602 0 0 1-.61.593H9.234a.602.602 0 0 1-.61-.593ZM13.264 9.335a.602.602 0 0 0-.61.593c0 .327.273.593.61.593h1.085c.337 0 .61-.266.61-.593a.602.602 0 0 0-.61-.593h-1.085ZM12.654 12.5c0-.328.273-.593.61-.593h1.085c.337 0 .61.265.61.593a.602.602 0 0 1-.61.593h-1.085a.602.602 0 0 1-.61-.593ZM17.821 14.7a.581.581 0 0 0 0-.84.623.623 0 0 0-.863 0l-3.285 3.194-1.66-1.728a.623.623 0 0 0-.862-.029.581.581 0 0 0-.03.838l2.09 2.177a.619.619 0 0 0 .878.014l3.732-3.627Z"/></svg>