<svg xmlns="http://www.w3.org/2000/svg" width="16" height="16" fill="none" class="persona-icon" viewBox="0 0 16 16"><path fill="currentColor" d="M9.7 3.6a1.6 1.6 0 1 1 3.2 0 1.6 1.6 0 0 1-3.2 0M3.1 9.1a1.6 1.6 0 1 1 3.2 0 1.6 1.6 0 0 1-3.2 0M2.33 11.589a2.25 2.25 0 0 1 1.71-.789h1.32a2.25 2.25 0 0 1 1.71.789c.213.249.33.565.33.893v.038A1.48 1.48 0 0 1 5.92 14H3.48A1.48 1.48 0 0 1 2 12.52v-.038c0-.328.117-.644.33-.893M8.93 6.089a2.25 2.25 0 0 1 1.71-.789h1.32a2.25 2.25 0 0 1 1.71.789c.213.249.33.565.33.893v.038a1.48 1.48 0 0 1-1.48 1.48h-2.44A1.48 1.48 0 0 1 8.6 7.02v-.038c0-.328.117-.644.33-.893M3.55 4.7c0-.635.515-1.15 1.15-1.15h2.75a.5.5 0 1 0 0-1H4.7A2.15 2.15 0 0 0 2.55 4.7v1.65a.5.5 0 0 0 1 0zM13.45 9.925a.5.5 0 1 0-1 0V11.3a1.15 1.15 0 0 1-1.15 1.15H9.1a.5.5 0 1 0 0 1h2.2a2.15 2.15 0 0 0 2.15-2.15z"/></svg>