<svg xmlns="http://www.w3.org/2000/svg" width="24" height="24" fill="none" class="persona-icon" viewBox="0 0 24 24"><path fill="currentColor" d="M14.55 5.4a2.4 2.4 0 1 1 4.8 0 2.4 2.4 0 0 1-4.8 0M4.65 13.65a2.4 2.4 0 1 1 4.8 0 2.4 2.4 0 0 1-4.8 0M3.494 17.384A3.37 3.37 0 0 1 6.06 16.2h1.98c.987 0 1.925.433 2.566 1.184.319.373.494.848.494 1.338v.058A2.22 2.22 0 0 1 8.88 21H5.22A2.22 2.22 0 0 1 3 18.78v-.058c0-.49.175-.965.494-1.338M13.394 9.134A3.37 3.37 0 0 1 15.96 7.95h1.98c.987 0 1.925.433 2.566 1.183.319.374.494.849.494 1.34v.057a2.22 2.22 0 0 1-2.22 2.22h-3.66a2.22 2.22 0 0 1-2.22-2.22v-.058c0-.49.175-.965.494-1.338M5.325 7.05c0-.953.772-1.725 1.725-1.725h4.125a.75.75 0 0 0 0-1.5H7.05A3.225 3.225 0 0 0 3.825 7.05v2.475a.75.75 0 0 0 1.5 0zM20.175 14.888a.75.75 0 0 0-1.5 0v2.062c0 .953-.773 1.725-1.725 1.725h-3.3a.75.75 0 0 0 0 1.5h3.3a3.225 3.225 0 0 0 3.225-3.225z"/></svg>