<svg xmlns="http://www.w3.org/2000/svg" width="80" height="80" fill="none" class="persona-ilustration" viewBox="0 0 80 80"><g clip-path="url(#VJ_UrPibcYzL53FG-0BaaLQgbMnMbw1Rf3SFb0UhjKs_a)"><path fill="#E4E4E4" d="M74.51 51.804c.311-.18.466-.414.466-.65 0-.234-.155-.47-.465-.648l-21.458-12.39-30.388 17.545L44.123 68.05c.621.358 1.628.358 2.249 0z"/><path fill="#E4E4E4" d="M53.052 37.252 74.51 49.64v.866l-21.458-12.39z"/><path fill="#E4E4E4" d="m22.665 54.796 30.388-17.544v.865L22.665 55.66zM74.976 50.29c0-.236-.155-.47-.466-.65v.866c.31.179.466.414.466.649z"/><path fill="#FF8D18" d="M74.51 50.938c.31-.179.466-.414.466-.649v.866c0 .235-.155.47-.466.649zM74.51 50.939 46.373 67.185v.865L74.51 51.804zM44.123 67.185l-21.458-12.39v.866l21.458 12.39zM46.371 67.185c-.62.358-1.627.358-2.248 0v.865c.62.358 1.628.358 2.248 0z"/><path fill="#FF8D18" d="M22.718 54.668v1.017c-2.404-.79-3.912-4.724-1.264-6.605z"/><path fill="#E4E4E4" d="M72.992 50.252 52.647 38.505 24.879 54.537l20.345 11.746z"/><path fill="#FF8D18" d="m52.084 32.692-16.076-19.87c-.448-.554-1.695-.704-2.49-.3L6.077 26.477c-.264.134-.482.29-.652.46-.496.495-.573 1.11-.159 1.654l16.43 21.646z"/><path fill="#FF8D18" d="M34.13 11.91c.796-.404 2.042-.254 2.491.3l-.612.613c-.449-.555-1.695-.705-2.49-.3z"/><path fill="#FF8D18" d="m36.62 12.21 16.076 19.87-.612.611-16.076-19.868zM6.69 25.864l27.44-13.953-.613.612-27.44 13.953z"/><path fill="#FF8D18" d="M52.696 32.08 22.308 49.624l-.612.612 30.388-17.544zM6.039 26.323q.255-.256.651-.459l-.612.612c-.264.134-.482.29-.651.459z"/><path fill="#FF8D18" d="M5.88 27.978c-.415-.545-.338-1.159.158-1.654l-.612.61c-.496.497-.573 1.11-.159 1.656z"/><path fill="#FF8D18" d="M22.308 49.624 5.878 27.978l-.611.612 16.43 21.646z"/><path fill="#FFDCC5" d="M52.696 32.08 36.62 12.21c-.449-.554-1.695-.704-2.49-.3L6.69 25.865c-1.038.528-1.366 1.383-.81 2.114l16.429 21.646z"/><path fill="#FF9300" fill-rule="evenodd" d="M31.889 23.577c2.326-1.225 5.325-.647 6.7 1.266 1.367 1.902.627 4.432-1.656 5.664-2.283 1.233-5.302.709-6.715-1.2-1.421-1.922-.67-4.498 1.667-5.73zM22.94 26.021c1.948.224 3.65 1.14 4.663 2.507l2.306 3.108c.998 1.343 1.22 3.003.62 4.547-.273.697-.831 1.301-1.575 1.706l-.215.12c-1.84 1-4.259.611-5.395-.883l-4.517-5.937c-1.166-1.533-.57-3.593 1.329-4.586l.223-.116a4.5 4.5 0 0 1 2.56-.466" clip-rule="evenodd"/><path fill="#FFA400" d="M74.534 50.926c.612-.354.622-.925.023-1.285L53.127 36.76l-30.46 18.036 21.457 12.389c.621.358 1.628.358 2.249 0z"/><path fill="#FFA400" d="M22.157 49.896 52.54 32.348s-.782.379-1.04.83c-.178.314-.236.894-.236.894l1.854 2.706-14.65 9.306-15.806 8.712z"/><path fill="#FFA400" d="M22.752 54.817c-.478-.276-1.165-.816-1.502-1.417-.338-.6-.384-1.233-.384-1.807s.114-.852.384-1.232c.223-.24.587-.468.909-.468z"/><path fill="#E4E4E4" d="M52.686 34.179 73.03 45.925v4.327L52.686 38.505zM24.919 50.21l27.767-16.032v4.327L24.92 54.537z"/><path fill="#E4E4E4" d="M73.031 45.925 45.263 61.957v4.326l27.768-16.031z"/><path fill="#F8F8F8" d="M72.991 45.925 52.842 34.292c-.62-.359-1.627-.359-2.248 0l-27.366 15.8 21.274 12.282z"/><path fill="#EFEFEF" d="M45.263 61.957 24.577 50.034v4.327l20.686 11.921z"/><path fill="#EFEFEF" d="M24.663 54.413c-.478-.275-.936-.768-1.273-1.368-.338-.601-.528-1.261-.528-1.835s.19-1.015.528-1.226c.337-.211.795-.175 1.273.1z"/><path fill="#E4E4E4" d="M54.345 40.832c-1.484.861-3.742.935-5.05.173-1.306-.761-1.167-2.077.308-2.938 1.475-.86 3.743-.947 5.058-.182 1.316.766 1.173 2.086-.316 2.947M65.186 47.589l-9.666-5.63c-.113-.064-.1-.177.026-.25l.489-.282c.125-.073.32-.082.433-.013l9.674 5.63c.113.065.1.177-.025.25l-.494.282a.49.49 0 0 1-.437.013M60.778 49.81l-15.616-9.07c-.113-.064-.1-.177.026-.25l.489-.286c.125-.074.32-.082.432-.017l15.633 9.073c.113.065.1.178-.03.251l-.497.281a.49.49 0 0 1-.437.014zM45.607 45.566c-1.484.86-3.743.934-5.05.172-1.307-.761-1.168-2.076.307-2.937 1.476-.861 3.743-.948 5.059-.182 1.315.766 1.172 2.085-.316 2.947M56.448 52.322l-9.667-5.629c-.112-.065-.1-.177.026-.25l.49-.282c.125-.074.32-.082.432-.013l9.675 5.63c.112.064.1.177-.026.25l-.493.282a.49.49 0 0 1-.437.012M52.04 54.908l-15.617-9.07c-.112-.065-.1-.177.026-.25l.49-.286c.125-.074.32-.083.432-.018l15.633 9.074c.113.065.1.177-.03.25l-.498.282a.49.49 0 0 1-.437.013zM37.232 50.663c-1.484.86-3.742.934-5.05.173-1.306-.762-1.168-2.077.308-2.938s3.743-.948 5.058-.182c1.316.766 1.173 2.086-.316 2.947M48.073 57.42l-9.666-5.63c-.113-.064-.1-.177.026-.25l.489-.282c.125-.073.32-.082.432-.013l9.675 5.63c.113.065.1.177-.026.25l-.493.282a.49.49 0 0 1-.437.013"/></g><defs><clipPath id="VJ_UrPibcYzL53FG-0BaaLQgbMnMbw1Rf3SFb0UhjKs_a"><path fill="#fff" d="M0 0h80v80H0z"/></clipPath></defs></svg>