<svg xmlns="http://www.w3.org/2000/svg" width="40" height="40" fill="none" class="persona-ilustration" viewBox="0 0 40 40"><g clip-path="url(#_5C3DEfEWnOZ-_iDLvZGxlyHtbxW-vQgnW4-y62-gPw_a)"><path fill="#E4E4E4" d="M37.255 25.902c.156-.09.233-.207.233-.325 0-.117-.077-.234-.233-.324l-10.729-6.194-15.193 8.772 10.729 6.194c.31.18.813.18 1.124 0zM26.526 18.626l10.73 6.194v.433l-10.73-6.195z"/><path fill="#E4E4E4" d="m11.333 27.398 15.193-8.772v.432l-15.193 8.773zM37.488 25.145c0-.118-.078-.235-.233-.325v.433c.155.09.233.207.233.324z"/><path fill="#FF8D18" d="M37.255 25.47c.155-.09.233-.208.233-.325v.432c0 .118-.078.235-.233.325zM37.255 25.47l-14.07 8.122v.433l14.07-8.123zM22.062 33.592l-10.73-6.194v.433l10.73 6.194z"/><path fill="#FF8D18" d="M23.186 33.592c-.31.18-.814.18-1.125 0v.433c.311.18.814.18 1.125 0zM11.36 27.334v.509c-1.203-.395-1.957-2.363-.633-3.303z"/><path fill="#E4E4E4" d="m36.496 25.126-10.173-5.873-13.883 8.015 10.172 5.874z"/><path fill="#FF8D18" d="m26.042 16.346-8.038-9.934c-.224-.278-.847-.353-1.245-.15l-13.72 6.976a1.3 1.3 0 0 0-.326.23c-.248.248-.286.555-.08.827l8.215 10.823z"/><path fill="#FF8D18" d="M17.065 5.955c.398-.202 1.021-.127 1.246.15l-.306.306c-.225-.277-.848-.352-1.246-.15z"/><path fill="#FF8D18" d="m18.31 6.105 8.038 9.935-.306.306-8.038-9.935zM3.345 12.932l13.72-6.977-.306.306-13.72 6.977z"/><path fill="#FF8D18" d="m26.348 16.04-15.194 8.772-.306.306 15.194-8.772zM3.02 13.162q.127-.129.325-.23l-.306.306a1.3 1.3 0 0 0-.326.23z"/><path fill="#FF8D18" d="M2.94 13.99c-.207-.273-.169-.58.079-.828l-.306.306c-.248.248-.286.555-.08.827zM11.154 24.812 2.94 13.99l-.306.306 8.215 10.823z"/><path fill="#FFDCC5" d="M26.348 16.04 18.31 6.105c-.224-.277-.847-.352-1.245-.15l-13.72 6.977c-.52.264-.683.691-.405 1.057l8.214 10.823z"/><path fill="#FF9300" fill-rule="evenodd" d="M15.945 11.788c1.162-.612 2.662-.323 3.35.634.683.95.313 2.216-.828 2.832s-2.651.354-3.358-.6c-.71-.962-.335-2.25.834-2.866zM11.47 13.01c.974.113 1.825.57 2.332 1.254l1.153 1.554c.498.672.61 1.502.31 2.274-.137.348-.416.65-.788.853l-.108.06c-.92.5-2.129.305-2.697-.442l-2.258-2.968c-.584-.767-.285-1.797.664-2.293l.112-.058c.383-.2.837-.283 1.28-.233" clip-rule="evenodd"/><path fill="#FFA400" d="M37.267 25.463c.306-.177.311-.462.011-.642L26.563 18.38l-15.23 9.018 10.73 6.195c.31.179.813.179 1.123 0z"/><path fill="#FFA400" d="m11.078 24.948 15.192-8.774s-.391.19-.52.415c-.09.157-.118.447-.118.447l.927 1.353-7.325 4.653-7.903 4.356z"/><path fill="#FFA400" d="M11.376 27.409c-.239-.138-.582-.408-.751-.709-.169-.3-.192-.616-.192-.903s.057-.427.192-.616c.111-.12.293-.234.454-.234z"/><path fill="#E4E4E4" d="m26.343 17.09 10.173 5.872v2.164l-10.173-5.873z"/><path fill="#E4E4E4" d="m12.46 25.105 13.883-8.016v2.164l-13.884 8.015zM36.516 22.962l-13.884 8.016v2.164l13.884-8.016z"/><path fill="#F8F8F8" d="M36.496 22.962 26.42 17.146c-.31-.18-.814-.18-1.124 0l-13.683 7.9 10.637 6.14z"/><path fill="#EFEFEF" d="m22.632 30.978-10.343-5.96v2.163l10.343 5.96z"/><path fill="#EFEFEF" d="M12.331 27.207c-.239-.138-.467-.384-.636-.685-.169-.3-.264-.63-.264-.917s.095-.508.264-.613c.169-.106.397-.087.636.05z"/><path fill="#E4E4E4" d="M27.173 20.416c-.742.43-1.872.468-2.525.087-.654-.381-.584-1.039.154-1.47.737-.43 1.87-.473 2.529-.09.657.383.586 1.043-.158 1.473M32.593 23.795 27.76 20.98c-.056-.033-.05-.089.013-.126l.244-.14c.063-.037.16-.041.217-.007l4.837 2.815c.056.032.05.089-.013.125l-.246.141a.24.24 0 0 1-.219.006M30.389 24.905 22.58 20.37c-.056-.032-.05-.088.013-.125l.244-.143c.063-.037.16-.041.217-.009l7.816 4.537c.056.033.05.089-.015.126l-.249.14a.24.24 0 0 1-.218.007zM22.803 22.783c-.742.43-1.871.467-2.524.086-.654-.38-.584-1.038.153-1.469.738-.43 1.872-.473 2.53-.09s.586 1.042-.159 1.473M28.224 26.162l-4.833-2.815c-.057-.033-.05-.089.013-.126l.244-.14c.063-.037.16-.041.216-.007l4.838 2.815c.056.032.05.089-.013.125l-.247.141a.24.24 0 0 1-.218.006M26.02 27.454l-7.808-4.535c-.057-.032-.05-.089.013-.125l.244-.143c.063-.037.16-.041.216-.009l7.817 4.537c.056.032.05.089-.015.126l-.249.14a.24.24 0 0 1-.218.007zM18.616 25.332c-.742.43-1.871.467-2.525.086-.653-.38-.584-1.038.154-1.469.738-.43 1.871-.474 2.53-.09.657.382.585 1.042-.159 1.473M24.037 28.71l-4.834-2.815c-.056-.032-.05-.088.013-.125l.245-.14c.063-.037.16-.042.216-.007l4.838 2.814c.056.033.05.09-.013.126l-.247.14a.24.24 0 0 1-.218.007"/></g><defs><clipPath id="_5C3DEfEWnOZ-_iDLvZGxlyHtbxW-vQgnW4-y62-gPw_a"><path fill="#fff" d="M0 0h40v40H0z"/></clipPath></defs></svg>