<svg xmlns="http://www.w3.org/2000/svg" width="150" height="150" fill="none" class="persona-ilustration" viewBox="0 0 150 150"><g clip-path="url(#OABCojKP9Cge1JFevpmLeKm_UXJXSBn2xJ20mZ7qOFk_a)"><g clip-path="url(#OABCojKP9Cge1JFevpmLeKm_UXJXSBn2xJ20mZ7qOFk_b)"><rect width="125" height="125" x="12.64" y="12.5" fill="#D3EDFF" rx="62.5"/><path fill="#AADBFF" d="M171.147 102.874 28.982 18.89-86.643 80.337l138.865 97.247z"/></g><path fill="#4793CC" d="m141.16 97.238-3.53 1.707.896 1.401c.839-.433 2.697-1.399 3.415-1.802.429-.571-.191-1.456-.781-1.306"/><path fill="#D3EDFF" d="M138.624 97.98c.973.414 1.468 1.528 1.359 2.431-.091.764-1.115 1.441-3.117 2.595"/><path fill="#D3EDFF" d="M138.624 97.98c.973.414 1.468 1.528 1.359 2.431-.091.764-1.115 1.441-3.117 2.595-1.695-.565-2.509-1.933-2.303-3.664 2.637-1.334 3.135-1.625 4.061-1.363"/><path fill="#82C2F1" d="M97.751 120.664s6.501-4.872 9.056-6.184 27.716-15.118 27.716-15.118 2.078.493 2.294 3.655c-6.816 3.711-28.397 15.757-28.397 15.757s-7.717 3.811-9.563 3.989-1.106-2.099-1.106-2.099"/><path fill="#4793CC" d="m134.95 103.287-.249-.267a.74.74 0 0 0-.326-.213c-.513-.147-.739.098-.82.379-.066.227.048.457.203.635l.265.303a.625.625 0 1 0 .927-.837"/><path fill="#D3EDFF" d="m125.116 109.029 10.507-5.894a.741.741 0 0 1 .725 1.293l-10.506 5.894a.741.741 0 0 1-.726-1.293"/><path fill="#4793CC" d="M94.719 123.424c-.072-.27 2.984-2.756 2.984-2.756s1.157.826 1.105 2.099c-3.105.753-4.042.834-4.09.657"/><path fill="#E4E4E4" d="M127.414 91.53c.533-.308.799-.712.799-1.115s-.266-.806-.799-1.114L90.581 68.035 38.419 98.151l36.834 21.265c1.066.616 2.793.616 3.86 0z"/><path fill="#E4E4E4" d="m90.58 66.55 36.833 21.266V89.3L90.579 68.035z"/><path fill="#E4E4E4" d="M38.419 96.665 90.58 66.55v1.485L38.419 98.15zM128.212 88.93c0-.404-.266-.807-.799-1.114V89.3c.533.308.799.71.799 1.114z"/><path fill="#FF8D18" d="M127.413 90.044c.533-.308.799-.71.799-1.114v1.485c0 .403-.266.807-.799 1.114z"/><path fill="#FF8D18" d="M127.414 90.044 79.112 117.93v1.485l48.302-27.887zM75.252 117.931 38.42 96.665v1.486l36.833 21.266z"/><path fill="#FF8D18" d="M79.112 117.931c-1.066.615-2.794.615-3.86 0v1.485c1.066.616 2.794.616 3.86 0zM38.51 96.446v1.746c-4.127-1.355-6.715-8.11-2.17-11.338z"/><path fill="#E4E4E4" d="M124.806 88.865 89.883 68.702 42.22 96.221l34.923 20.163z"/><path fill="#FF8D18" d="M88.918 58.723 61.323 24.617c-.77-.952-2.91-1.21-4.276-.515l-47.1 23.951c-.454.231-.829.498-1.12.789-.85.85-.983 1.905-.272 2.84l28.202 37.156z"/><path fill="#FF8D18" d="M58.099 23.051c1.366-.695 3.505-.437 4.276.516l-1.05 1.05c-.771-.953-2.91-1.21-4.277-.515z"/><path fill="#FF8D18" d="m62.373 23.567 27.595 34.105-1.05 1.05-27.595-34.105zM10.997 47.003l47.1-23.952-1.05 1.05-47.1 23.953z"/><path fill="#FF8D18" d="m89.967 57.672-52.16 30.115-1.051 1.05 52.161-30.115zM9.88 47.791c.29-.29.664-.557 1.118-.788l-1.05 1.05c-.454.23-.829.498-1.12.788z"/><path fill="#FF8D18" d="M9.605 50.632c-.71-.936-.579-1.99.272-2.84l-1.05 1.05c-.85.85-.983 1.904-.272 2.84z"/><path fill="#FF8D18" d="M37.806 87.788 9.604 50.633l-1.05 1.05 28.202 37.155z"/><path fill="#FFDCC5" d="M89.968 57.672 62.373 23.567c-.77-.953-2.91-1.21-4.276-.516l-47.1 23.952c-1.782.906-2.345 2.374-1.392 3.63l28.202 37.154z"/><path fill="#FF9300" fill-rule="evenodd" d="M54.252 43.076c3.992-2.101 9.14-1.11 11.5 2.175 2.347 3.265 1.078 7.608-2.842 9.723s-9.101 1.216-11.527-2.062c-2.439-3.299-1.15-7.72 2.862-9.836zM38.89 47.273c3.345.384 6.266 1.957 8.005 4.303l3.959 5.334c1.712 2.307 2.095 5.156 1.064 7.806-.47 1.196-1.428 2.234-2.703 2.928l-.37.205c-3.16 1.718-7.31 1.05-9.26-1.514L31.83 56.143c-2.002-2.63-.978-6.166 2.28-7.872l.384-.198c1.315-.687 2.875-.972 4.395-.8" clip-rule="evenodd"/><path fill="#FFA400" d="M127.454 90.022c1.05-.607 1.067-1.587.038-2.206L90.707 65.705 38.42 96.665l36.833 21.266c1.066.615 2.794.615 3.86 0z"/><path fill="#FFA400" d="M37.546 88.255 89.7 58.133s-1.342.65-1.784 1.425c-.307.539-.406 1.535-.406 1.535l3.182 4.645L65.546 81.71 38.413 96.665z"/><path fill="#FFA400" d="M38.568 96.701c-.82-.473-2-1.4-2.579-2.43-.58-1.032-.66-2.117-.66-3.103 0-.985.197-1.464.66-2.115.383-.412 1.007-.803 1.56-.803z"/><path fill="#E4E4E4" d="m89.95 61.275 34.924 20.163v7.427L89.951 68.702z"/><path fill="#E4E4E4" d="m42.287 88.794 47.664-27.52v7.428L42.287 96.22zM124.874 81.438 77.21 108.957v7.427l47.664-27.519z"/><path fill="#F8F8F8" d="M124.806 81.438 90.219 61.469c-1.066-.615-2.793-.615-3.86 0l-46.973 27.12 36.516 21.083z"/><path fill="#EFEFEF" d="M77.21 108.957 41.7 88.494v7.427l35.509 20.463z"/><path fill="#EFEFEF" d="M41.848 96.009c-.82-.474-1.606-1.319-2.185-2.35-.58-1.031-.905-2.164-.905-3.15s.325-1.742.905-2.104 1.365-.3 2.185.174z"/><path fill="#E4E4E4" d="M92.799 72.696c-2.548 1.478-6.425 1.604-8.668.297s-2.005-3.565.528-5.043 6.424-1.627 8.682-.312 2.013 3.58-.542 5.058M110.408 84.295l-16.593-9.663c-.193-.112-.17-.305.045-.43l.84-.484c.215-.126.549-.14.742-.022l16.607 9.663c.193.111.171.305-.044.43l-.847.483c-.223.127-.557.134-.75.023M103.84 88.107 77.035 72.539c-.193-.111-.17-.304.045-.43l.84-.49c.215-.127.549-.142.742-.03l26.835 15.575c.193.111.171.304-.052.43l-.854.483c-.223.127-.557.134-.751.023zM77.799 80.821c-2.548 1.478-6.425 1.604-8.668.297s-2.005-3.565.528-5.043 6.424-1.627 8.682-.312 2.013 3.58-.542 5.058M95.408 92.42l-16.593-9.663c-.193-.112-.17-.305.045-.43l.84-.484c.215-.126.549-.14.742-.022l16.607 9.663c.193.111.171.305-.044.43l-.847.483c-.223.127-.557.134-.75.023M88.84 96.857 62.035 81.289c-.193-.111-.17-.304.045-.43l.84-.49c.215-.127.549-.142.742-.03l26.835 15.575c.193.111.17.304-.052.43l-.854.483c-.223.127-.557.134-.75.023zM63.424 89.571c-2.548 1.478-6.425 1.604-8.668.297s-2.005-3.565.528-5.043 6.424-1.627 8.682-.312 2.013 3.58-.542 5.058M81.033 101.17 64.44 91.507c-.193-.112-.17-.305.045-.43l.84-.484c.215-.126.549-.14.742-.022l16.607 9.663c.193.111.171.304-.044.431l-.847.482c-.223.127-.557.134-.75.023"/></g><defs><clipPath id="OABCojKP9Cge1JFevpmLeKm_UXJXSBn2xJ20mZ7qOFk_a"><path fill="#fff" d="M0 0h150v150H0z"/></clipPath><clipPath id="OABCojKP9Cge1JFevpmLeKm_UXJXSBn2xJ20mZ7qOFk_b"><rect width="125" height="125" x="12.64" y="12.5" fill="#fff" rx="62.5"/></clipPath></defs></svg>