<svg xmlns="http://www.w3.org/2000/svg" width="16" height="16" fill="none" class="persona-icon" viewBox="0 0 16 16"><path fill="currentColor" fill-rule="evenodd" d="M14 10.378a1.69 1.69 0 0 1-1.69 1.69H3.69A1.69 1.69 0 0 1 2 10.378V5.622c0-.933.756-1.69 1.69-1.69h8.62c.934 0 1.69.757 1.69 1.69zm-1.69.69a.69.69 0 0 0 .69-.69V5.622a.69.69 0 0 0-.69-.69H3.69a.69.69 0 0 0-.69.69v4.756c0 .38.309.69.69.69z" clip-rule="evenodd"/><path fill="currentColor" fill-rule="evenodd" d="M11.716 9.095a.5.5 0 0 1-.5-.5v-1.19a.5.5 0 0 1 1 0v1.19a.5.5 0 0 1-.5.5" clip-rule="evenodd"/><path fill="currentColor" d="M3.987 8.595a.595.595 0 1 1 0-1.19.595.595 0 0 1 0 1.19"/></svg>