<svg xmlns="http://www.w3.org/2000/svg" width="20" height="20" fill="none" class="persona-icon" viewBox="0 0 20 20"><path fill="currentColor" fill-rule="evenodd" d="M2.001 6.8a2.2 2.2 0 0 1 2.2-2.2h11.6a2.2 2.2 0 0 1 2.2 2.2v6.4a2.2 2.2 0 0 1-2.2 2.2h-11.6a2.2 2.2 0 0 1-2.2-2.2V6.8Zm2.2-1a1 1 0 0 0-1 1v6.4a1 1 0 0 0 1 1h11.6a1 1 0 0 0 1-1V6.8a1 1 0 0 0-1-1h-11.6Zm.8 2.8a.6.6 0 0 0-.6.6v1.6a.6.6 0 1 0 1.2 0V9.2a.6.6 0 0 0-.6-.6Z" clip-rule="evenodd"/><path fill="currentColor" d="M15.4 9.2a.8.8 0 1 1 0 1.6.8.8 0 0 1 0-1.6Z"/></svg>