<svg xmlns="http://www.w3.org/2000/svg" width="20" height="20" fill="none" class="persona-icon" viewBox="0 0 20 20"><path fill="currentColor" fill-rule="evenodd" d="M17.025 12.768c0 1.109-.9 2.008-2.009 2.008H4.984c-1.11 0-2.01-.899-2.01-2.008V7.232c0-1.109.9-2.008 2.01-2.008h10.032c1.11 0 2.009.899 2.009 2.008zm-2.009.758c.42 0 .759-.34.759-.758V7.232a.76.76 0 0 0-.759-.758H4.984a.76.76 0 0 0-.76.758v5.536c0 .419.34.758.76.758z" clip-rule="evenodd"/><path fill="currentColor" fill-rule="evenodd" d="M14.324 11.317a.625.625 0 0 1-.625-.625V9.308a.625.625 0 0 1 1.25 0v1.384c0 .345-.28.625-.625.625" clip-rule="evenodd"/><path fill="currentColor" d="M5.33 10.692a.692.692 0 1 1 0-1.384.692.692 0 0 1 0 1.384"/></svg>