<svg xmlns="http://www.w3.org/2000/svg" width="24" height="24" fill="none" class="persona-icon" viewBox="0 0 24 24"><path fill="currentColor" fill-rule="evenodd" d="M2 8a2.75 2.75 0 0 1 2.75-2.75h14.5A2.75 2.75 0 0 1 22 8v8a2.75 2.75 0 0 1-2.75 2.75H4.75A2.75 2.75 0 0 1 2 16V8Zm2.75-1.25c-.69 0-1.25.56-1.25 1.25v8c0 .69.56 1.25 1.25 1.25h14.5c.69 0 1.25-.56 1.25-1.25V8c0-.69-.56-1.25-1.25-1.25H4.75Zm1 3.5a.75.75 0 0 1 .75.75v2A.75.75 0 0 1 5 13v-2a.75.75 0 0 1 .75-.75Z" clip-rule="evenodd"/><path fill="currentColor" d="M18.75 11a1 1 0 1 1 0 2 1 1 0 0 1 0-2Z"/></svg>