<svg xmlns="http://www.w3.org/2000/svg" width="24" height="24" fill="none" class="persona-icon" viewBox="0 0 24 24"><path fill="currentColor" fill-rule="evenodd" d="M21 15.568c0 1.399-1.134 2.533-2.534 2.533H5.534A2.534 2.534 0 0 1 3 15.568V8.433c0-1.4 1.134-2.534 2.534-2.534h12.932c1.4 0 2.534 1.134 2.534 2.533zM18.466 16.6c.571 0 1.034-.462 1.034-1.033V8.433c0-.571-.463-1.034-1.034-1.034H5.534c-.571 0-1.034.463-1.034 1.033v7.136c0 .57.463 1.033 1.034 1.033z" clip-rule="evenodd"/><path fill="currentColor" fill-rule="evenodd" d="M17.574 13.642a.75.75 0 0 1-.75-.75v-1.784a.75.75 0 1 1 1.5 0v1.784a.75.75 0 0 1-.75.75" clip-rule="evenodd"/><path fill="currentColor" d="M5.98 12.892a.892.892 0 1 1 0-1.784.892.892 0 0 1 0 1.784"/></svg>