<svg xmlns="http://www.w3.org/2000/svg" width="32" height="32" fill="none" class="persona-icon" viewBox="0 0 32 32"><path fill="currentColor" fill-rule="evenodd" d="M28 20.757a3.38 3.38 0 0 1-3.378 3.378H7.378A3.38 3.38 0 0 1 4 20.757v-9.514a3.38 3.38 0 0 1 3.378-3.378h17.244A3.38 3.38 0 0 1 28 11.243zm-3.378 1.378c.76 0 1.378-.617 1.378-1.378v-9.514c0-.761-.617-1.378-1.378-1.378H7.378c-.76 0-1.378.617-1.378 1.378v9.514c0 .76.617 1.378 1.378 1.378z" clip-rule="evenodd"/><path fill="currentColor" fill-rule="evenodd" d="M23.432 18.189a1 1 0 0 1-1-1v-2.378a1 1 0 1 1 2 0v2.378a1 1 0 0 1-1 1" clip-rule="evenodd"/><path fill="currentColor" d="M7.973 17.189a1.19 1.19 0 1 1 0-2.378 1.19 1.19 0 0 1 0 2.378"/></svg>