<svg xmlns="http://www.w3.org/2000/svg" width="32" height="32" fill="none" class="persona-icon" viewBox="0 0 32 32"><path fill="currentColor" fill-rule="evenodd" d="M2 10.378a3.81 3.81 0 0 1 3.81-3.81h20.38a3.81 3.81 0 0 1 3.81 3.81v11.244a3.81 3.81 0 0 1-3.81 3.81H5.81A3.81 3.81 0 0 1 2 21.623zm3.81-1.81c-1 0-1.81.81-1.81 1.81v11.244c0 1 .81 1.81 1.81 1.81h20.38c1 0 1.81-.81 1.81-1.81V10.378c0-1-.81-1.81-1.81-1.81zm1.406 5.027a1 1 0 0 0-1 1v2.81a1 1 0 0 0 2 0v-2.81a1 1 0 0 0-1-1" clip-rule="evenodd"/><path fill="currentColor" d="M25.487 14.595a1.405 1.405 0 1 1 0 2.81 1.405 1.405 0 0 1 0-2.81"/></svg>