<svg xmlns="http://www.w3.org/2000/svg" width="32" height="32" fill="none"><path fill="#000" fill-rule="evenodd" d="M16 11.667a4.333 4.333 0 1 0 0 8.666 4.333 4.333 0 0 0 0-8.666ZM9.667 16a6.333 6.333 0 1 1 12.666 0 6.333 6.333 0 0 1-12.666 0ZM16 3a1 1 0 0 1 1 1v2.667a1 1 0 1 1-2 0V4a1 1 0 0 1 1-1ZM6.809 6.808a1 1 0 0 1 1.414 0l1.885 1.885a1 1 0 0 1-1.414 1.415L6.81 8.222a1 1 0 0 1 0-1.414ZM3 16a1 1 0 0 1 1-1h2.667a1 1 0 1 1 0 2H4a1 1 0 0 1-1-1ZM6.806 25.193a1 1 0 0 1 0-1.414l1.886-1.886a1 1 0 1 1 1.414 1.414L8.22 25.193a1 1 0 0 1-1.414 0ZM16 24.333a1 1 0 0 1 1 1V28a1 1 0 1 1-2 0v-2.667a1 1 0 0 1 1-1ZM21.892 21.892a1 1 0 0 1 1.414 0l1.886 1.886a1 1 0 0 1-1.415 1.414l-1.885-1.885a1 1 0 0 1 0-1.415ZM24.333 16.001a1 1 0 0 1 1-1H28a1 1 0 1 1 0 2h-2.667a1 1 0 0 1-1-1ZM21.892 10.109a1 1 0 0 1 0-1.414l1.886-1.886a1 1 0 1 1 1.414 1.414l-1.886 1.886a1 1 0 0 1-1.414 0Z" clip-rule="evenodd"/></svg>