<svg xmlns="http://www.w3.org/2000/svg" width="80" height="80" fill="none" class="persona-ilustration" viewBox="0 0 80 80"><g clip-path="url(#s2n6BY60dswmT6XM2hO7vRmbtb9Uuv0eQ5pxDsiI0dY_a)"><mask id="s2n6BY60dswmT6XM2hO7vRmbtb9Uuv0eQ5pxDsiI0dY_b" width="71" height="45" x="5" y="17" maskUnits="userSpaceOnUse" style="mask-type:alpha"><path fill="#F8F8F8" d="M20.578 17.91h39.446l15.28 43.43-70-.25z"/></mask><g mask="url(#s2n6BY60dswmT6XM2hO7vRmbtb9Uuv0eQ5pxDsiI0dY_b)"><path fill="#F8F8F8" d="M20.578 17.91h39.446l15.28 43.43-70-.25z"/><path fill="#E4E4E4" d="m56.687 29.282-33.08-.032c-.328 0-.561-.159-.508-.35l.2-.773c.043-.185.35-.333.679-.333l32.36.026c.328 0 .63.148.678.339l.196.773c.047.19-.186.35-.52.35zM57.487 32.311l-34.569-.042c-.35 0-.582-.17-.535-.376l.218-.843c.047-.2.37-.365.71-.365l33.784.032c.339 0 .662.164.71.365l.217.842c.053.207-.186.382-.535.376zM58.302 35.674l-36.22-.053c-.366 0-.615-.185-.556-.418l.238-.927c.058-.222.392-.403.747-.403l35.362.048c.36 0 .694.18.753.403l.233.927c.052.227-.191.418-.557.418zM59.637 39.662l-38.773-.058c-.387 0-.657-.19-.599-.434l.25-.959c.057-.233.418-.413.794-.413l37.852.047c.386 0 .746.191.81.419l.26.958c.063.234-.202.435-.589.435zM36.032 23.932H25.048c-.302-.005-.514-.137-.477-.296l.725-2.839c.038-.143.308-.265.588-.265h10.38c.292 0 .52.117.51.27l-.175 2.844c-.011.16-.265.292-.578.292h.01zM54.865 21.782H44.458c-.296 0-.54-.127-.55-.275l-.043-.71c-.01-.143.222-.265.508-.265H54.57c.291 0 .556.117.593.27l.18.71c.042.148-.17.275-.466.275h-.005zM55.453 23.938h-8.04c-.307 0-.566-.138-.588-.297l-.08-.763c-.02-.159.218-.286.515-.286h7.87c.302 0 .577.133.62.292l.196.762c.042.164-.175.291-.482.291h-.011M38.044 43.888l-18.536-.031c-.392 0-.657-.212-.588-.477l.275-1.06c.064-.254.424-.455.805-.455l18.07.032c.382 0 .684.201.684.456l-.016 1.064c0 .265-.323.477-.715.477h.016zM44.574 54.392l18.537-.032c.392 0 .657-.212.588-.477l-.275-1.059c-.064-.254-.424-.455-.805-.455l-18.071.031c-.381 0-.683.202-.683.456l.016 1.064c0 .265.323.477.715.477h-.016z"/></g><path fill="#DB4747" d="M27.875 27.04c7.06-3.452 17.61-3.459 24.663-.02 7.736 3.778 9.472 10.75 2.524 15.705-7.78 5.544-21.85 5.576-29.674.057-6.997-4.937-5.275-11.94 2.48-15.736zm2.637 1.521c-5.23 2.657-6.64 7.136-3.157 10.706l20.503-11.595c-5.337-1.88-12.447-1.598-17.346.89m20.91 12.06c4.856-3.29 4.568-7.925.289-11L31.208 41.841c6.164 2.763 14.978 2.324 20.215-1.228z"/></g><defs><clipPath id="s2n6BY60dswmT6XM2hO7vRmbtb9Uuv0eQ5pxDsiI0dY_a"><path fill="#fff" d="M0 0h80v80H0z"/></clipPath></defs></svg>