<svg xmlns="http://www.w3.org/2000/svg" width="150" height="150" fill="none" class="persona-ilustration" viewBox="0 0 150 150"><g clip-path="url(#ZFpu3Fl07F_a)"><g clip-path="url(#ZFpu3Fl07F_b)"><rect width="125" height="125" x="12.624" y="12.459" fill="#D3EDFF" rx="62.5"/><path fill="#AADBFF" d="M-13.335 43.2h176.671v100.955H-13.335z"/><path fill="#4793CC" d="M-13.125 122.5h176.25V140h-176.25zM66.953 45.278l-.44.92h8.497v-.92z"/><path fill="#4793CC" d="m83.047 45.278.44.92H74.99v-.92z"/><path fill="#82C2F1" d="m51.888 44.427-1.273 2.664h24.598v-2.664z"/><path fill="#82C2F1" d="m98.48 44.427 1.272 2.664H75.154v-2.664zM50.765 56.25l3.125-5.625h42.5l3.125 5.625z"/><path fill="#4793CC" d="m52.604 53.061-1.991-5.973H99.76l-1.991 5.973zM50.786 56.257h48.639v2.241H50.786z"/><path fill="#F8F8F8" d="m65.01 39.927 2.048 6.252h7.946v-6.252z"/><path fill="#F8F8F8" d="m84.995 39.927-2.049 6.252H75v-6.252z"/><path fill="#A4A1E0" d="m56.832 25.515 2.513 19.701c.833 1.188 1.654.495 1.96 0-.5-5.663-1.374-15.233-1.834-19.912-.633.668-2.215.52-2.639.21"/><path fill="#F8F8F8" d="m59.362 23.082.146 2.512c-1.148 1.041-2.25.483-2.662.049-.067-.49-.099-.658-.26-2.394.909-1.588 2.342-.768 2.776-.167"/><path fill="#E4E4E4" d="M58.446 22.869c-.165.331-1.042.373-1.09.08-.093-.567-.114-.969-.227-1.916.413-.61.907-.356 1.106-.101.054.338.107.937.211 1.937"/><path fill="#E4E4E4" fill-rule="evenodd" d="m60.14 27.75-1.165-.596c-.15-.18-.03-.557.285-.557l1.165.596z" clip-rule="evenodd"/><path fill="#F8F8F8" d="m61.182 32.004-.418-5.008a.462.462 0 1 0-.922.08l.45 5.005a.447.447 0 0 0 .89-.077M58.64 40.307l.693 5.193c.817 1.136 2.033.355 2.102-.15-.083-.836-.295-3.151-.527-5.191-.63.53-1.75.369-2.268.148"/><path fill="#A4A1E0" d="M93.724 25.515 91.21 45.216c-.833 1.188-1.654.495-1.96 0 .5-5.663 1.374-15.233 1.834-19.912.633.668 2.214.52 2.639.21"/><path fill="#F8F8F8" d="m91.194 23.082-.146 2.512c1.148 1.041 2.25.483 2.662.049.067-.49.099-.658.26-2.394-.909-1.588-2.342-.768-2.776-.167"/><path fill="#E4E4E4" d="M92.11 22.869c.165.331 1.042.373 1.09.08.093-.567.114-.969.227-1.916-.413-.61-.907-.356-1.106-.101-.055.338-.107.937-.211 1.937"/><path fill="#E4E4E4" fill-rule="evenodd" d="m90.416 27.75 1.165-.596c.151-.18.03-.557-.285-.557l-1.164.596z" clip-rule="evenodd"/><path fill="#F8F8F8" d="m89.375 32.004.418-5.008a.462.462 0 1 1 .921.08l-.449 5.005a.447.447 0 0 1-.89-.077M91.916 40.306l-.693 5.194c-.817 1.136-2.033.354-2.102-.15.083-.837.295-3.152.527-5.192.63.531 1.75.37 2.268.148"/></g><mask id="ZFpu3Fl07F_c" width="83" height="52" x="35" y="63" maskUnits="userSpaceOnUse" style="mask-type:alpha"><path fill="#F8F8F8" d="M53.025 63.75h46.55L117.606 115 35 114.706z"/></mask><g mask="url(#ZFpu3Fl07F_c)"><path fill="#F8F8F8" d="M53.025 63.75h46.55L117.606 115 35 114.706z"/><path fill="#E4E4E4" d="M95.638 77.169 56.6 77.13c-.387 0-.662-.187-.6-.412l.238-.913c.05-.218.412-.393.8-.393l38.187.03c.388 0 .744.176.8.4l.231.913c.057.225-.218.413-.612.413zM96.581 80.744l-40.793-.05c-.413 0-.688-.2-.632-.444l.257-.994c.056-.237.437-.43.837-.43l39.869.037c.4 0 .781.193.837.43l.257.995c.062.243-.22.45-.632.443zM97.544 84.713 54.8 84.65c-.431 0-.725-.218-.656-.493l.281-1.094c.069-.263.463-.475.881-.475l41.732.056c.425 0 .818.213.887.475l.275 1.094c.063.269-.225.494-.656.494zM99.119 89.419l-45.756-.069c-.457 0-.775-.225-.707-.512l.294-1.132c.069-.275.494-.487.938-.487l44.668.056c.457 0 .882.225.957.494l.306 1.131c.075.275-.238.512-.694.512zM71.262 70.856H58.3c-.356-.006-.606-.162-.563-.35l.857-3.35c.043-.169.362-.312.693-.312h12.25c.344 0 .613.137.6.319l-.206 3.356c-.012.187-.312.343-.681.343h.012zM93.488 68.319H81.206c-.35 0-.637-.15-.65-.325l-.05-.838c-.012-.169.263-.312.6-.312h12.032c.343 0 .656.137.7.319l.212.837c.05.175-.2.325-.55.325h-.006zM94.18 70.862h-9.487c-.362 0-.668-.162-.693-.35l-.094-.9c-.025-.187.256-.337.606-.337H93.8c.356 0 .68.156.73.344l.232.9c.05.193-.206.343-.569.343h-.012M73.638 94.406l-21.876-.037c-.462 0-.775-.25-.693-.563l.325-1.25c.075-.3.5-.537.95-.537l21.325.037c.45 0 .806.238.806.538l-.019 1.256c0 .312-.381.562-.844.562h.02zM81.343 106.801l21.875-.037c.463 0 .775-.25.694-.563l-.325-1.25c-.075-.3-.5-.537-.95-.537l-21.325.037c-.45 0-.806.238-.806.538l.019 1.256c0 .312.38.562.843.562h-.018z"/></g><mask id="ZFpu3Fl07F_d" width="31" height="18" x="104" y="42" maskUnits="userSpaceOnUse" style="mask-type:alpha"><path fill="#fff" d="M119.995 43.677c-6.572-4.03-16.793 1.516-15.028 8.935 1.406 5.914 10.503 7.177 15.028 7.074 4.416.103 13.291-1.16 14.664-7.074 1.721-7.419-8.251-12.964-14.664-8.935"/></mask><g mask="url(#ZFpu3Fl07F_d)"><path fill="#F8F8F8" d="M119.995 43.677c-6.572-4.03-16.793 1.516-15.028 8.935 1.406 5.914 10.503 7.177 15.028 7.074 4.416.103 13.291-1.16 14.664-7.074 1.721-7.419-8.251-12.964-14.664-8.935"/><path fill="#AADBFF" fill-rule="evenodd" d="M123.176 42.797c-.976-.064-1.987.308-2.908 1.306l-.339.367-.343-.363c-.944-.998-1.985-1.375-2.994-1.31-1.023.066-2.074.59-3.004 1.51-1.861 1.842-3.149 5.192-2.614 9.07.419 3.044 1.974 4.864 3.751 5.923 1.796 1.07 3.835 1.372 5.182 1.319l.018-.001h.019c1.31.053 3.296-.246 5.045-1.315 1.73-1.057 3.249-2.876 3.659-5.924.522-3.882-.736-7.235-2.552-9.076-.907-.92-1.929-1.44-2.92-1.506m3.585.85c2.042 2.071 3.368 5.723 2.812 9.857-.449 3.342-2.14 5.4-4.097 6.596-1.928 1.178-4.095 1.508-5.551 1.453-1.488.055-3.705-.274-5.679-1.45-2.001-1.194-3.736-3.252-4.197-6.598-.571-4.138.79-7.792 2.882-9.862 1.047-1.036 2.3-1.694 3.601-1.778 1.182-.076 2.355.326 3.389 1.264 1.01-.936 2.157-1.34 3.317-1.264 1.276.084 2.501.746 3.523 1.782" clip-rule="evenodd"/><path fill="#AADBFF" fill-rule="evenodd" d="M119.658 61.393V44.667h.934v16.726z" clip-rule="evenodd"/></g><ellipse cx="119.844" cy="44.666" fill="#AADBFF" rx="10.41" ry="3.203"/><path fill="#4793CC" d="M114.765 38.448c-.835-4.304-3.021-13.383-5.092-15.356l-.016-.015.016.015c2.743 2.593 5.708 7.54 6.85 9.693.307-4.686.737-14.623 0-16.888 1.474 2.346 2.903 10.955 3.433 14.966l5.275-16.989-2.679 19.518c2.149-4.079 6.765-12.358 8.037-12.843-2.612 6.067-4.214 14.46-4.688 17.9z"/><path fill="#82C2F1" d="M103.293 40.616c5.961-1.093 8.401 2.405 8.876 4.29 3.473 3.296 11.613 2.978 14.568 0 2.881-1.403 8.01-2.6 10.215-3.023-1.982-.422-6.648-.858-9.461.78 1.005-2.243 4.521-8.289 9.461-12.97-1.842 0-9.545 4.681-12.894 7.412-.134-1.638 1.061-10.369 1.675-14.53l-4.689 10.63-.921-9.557-.837 9.557c-1.228-3.348-4.27-9.713-6.615-8.387 3.266 1.073 2.847 11.41 1.842 9.556-1.004-1.852-8.623-5.46-7.033-4.68 1.591.78 5.108 7.8 3.601 5.948-1.507-1.853-9.713-1.853-6.196-1.268 2.813.468 5.303 3.836 6.196 5.461-2.456-.715-7.452-1.56-7.788.78"/><path fill="#AADBFF" d="M113.254 40.047c.831 2.431 1.038 5.114 1.038 6.152 5.16 2.016 9.365.84 10.823 0 .074-.988.563-3.691 1.927-6.597-1.482.593-3.583 2.965-4.448 4.077V35.45l-2.372 9.118-2.52-9.118v9.118c-.445-1.507-1.957-4.521-4.448-4.521"/><path fill="#D3EDFF" d="M42.085 30.822H5.675l3.21 28.828 37.593-1.803z"/><path fill="#F8F8F8" d="m41.934 29.92-36.259.902 2.671 24 37.368-1.667z"/><mask id="ZFpu3Fl07F_e" width="33" height="18" x="9" y="34" maskUnits="userSpaceOnUse" style="mask-type:alpha"><path fill="#fff" d="m38.896 34.054-29.367.59 1.917 17.196 30.163-1.15z"/></mask><g mask="url(#ZFpu3Fl07F_e)"><path fill="#D3EDFF" d="m38.896 34.054-29.367.59 1.917 17.196 30.163-1.15z"/><path fill="#AADBFF" d="M8.862 37.764v-3.45l30.672-.538 1 2.94z"/><path fill="#AADBFF" fill-rule="evenodd" d="m39.645 33.618 1.106 3.247-32.045 1.06V34.16zm-30.626.85v3.134l31.3-1.035-.896-2.632z" clip-rule="evenodd"/><path fill="#AADBFF" fill-rule="evenodd" d="m15.675 53.819-2.897-20.11.31-.044 2.897 20.11zM19.403 53.686l-2.897-20.11.31-.044 2.897 20.11zM23.135 53.552l-2.898-20.11.31-.043 2.897 20.11zM26.864 53.42l-2.897-20.11.309-.044 2.897 20.11zM30.59 53.286l-2.897-20.11.31-.043 2.897 20.11zM34.32 53.154l-2.897-20.11.31-.044 2.897 20.11zM38.05 53.02l-2.898-20.11.31-.043 2.897 20.11z" clip-rule="evenodd"/><path fill="#AADBFF" fill-rule="evenodd" d="m7.117 37.569 33.841-1.15.01.313-33.841 1.149zM7.32 41.137l33.84-1.149.01.313-33.84 1.148zM7.56 44.616l33.84-1.15.01.313-33.84 1.149zM7.799 48.094l33.84-1.15.01.313-33.841 1.149z" clip-rule="evenodd"/></g><path fill="#DB4747" d="M61.637 74.523c8.331-4.073 20.78-4.08 29.104-.022 9.13 4.457 11.178 12.685 2.98 18.533-9.182 6.542-25.786 6.58-35.019.066-8.257-5.825-6.224-14.09 2.928-18.57zm3.112 1.796c-6.173 3.135-7.836 8.42-3.726 12.634L85.22 75.27c-6.298-2.218-14.689-1.885-20.47 1.05m24.676 14.23c5.73-3.88 5.39-9.35.34-12.98L65.57 91.992c7.274 3.26 17.675 2.742 23.855-1.45z"/></g><defs><clipPath id="ZFpu3Fl07F_a"><path fill="#fff" d="M0 0h150v150H0z"/></clipPath><clipPath id="ZFpu3Fl07F_b"><rect width="125" height="125" x="12.624" y="12.459" fill="#fff" rx="62.5"/></clipPath></defs></svg>