<svg xmlns="http://www.w3.org/2000/svg" width="16" height="16" fill="none" class="persona-icon"><path fill="currentColor" d="M6.629 1.5a.507.507 0 0 0-.515.5c0 .276.23.5.515.5H9.37a.507.507 0 0 0 .515-.5c0-.276-.23-.5-.514-.5H6.628ZM8 4.833c.284 0 .514.224.514.5v3.182L9.8 10.39c.158.23.094.54-.142.694a.523.523 0 0 1-.714-.139L7.486 8.818V5.333c0-.276.23-.5.514-.5Z"/><path fill="currentColor" d="M4.137 4.203A6.079 6.079 0 0 1 8 2.833c1.472 0 2.82.515 3.864 1.37l.572-.557a.525.525 0 0 1 .728 0c.2.196.2.512 0 .708l-.573.557A5.715 5.715 0 0 1 14 8.667c0 3.221-2.686 5.833-6 5.833s-6-2.612-6-5.833c0-1.431.53-2.742 1.41-3.756l-.574-.557a.49.49 0 0 1 0-.708.525.525 0 0 1 .728 0l.573.557ZM8 3.833c-2.746 0-4.971 2.164-4.971 4.834C3.029 11.336 5.254 13.5 8 13.5s4.971-2.164 4.971-4.833c0-2.67-2.225-4.834-4.971-4.834Z"/></svg>