<svg xmlns="http://www.w3.org/2000/svg" width="16" height="16" fill="none" class="persona-icon" viewBox="0 0 16 16"><path fill="currentColor" fill-rule="evenodd" d="M4.007 3.3A6.14 6.14 0 0 1 8 1.833c1.523 0 2.917.552 3.993 1.467l.612-.612a.5.5 0 1 1 .707.707l-.612.612a6.167 6.167 0 1 1-9.4 0l-.612-.612a.5.5 0 0 1 .707-.707zM6.083.917a.5.5 0 0 1 .5-.5h2.834a.5.5 0 0 1 0 1H6.583a.5.5 0 0 1-.5-.5M8 2.833a5.167 5.167 0 1 0 0 10.334A5.167 5.167 0 0 0 8 2.833M8 4.5a.5.5 0 0 1 .5.5V7.85l1.333 1.999a.5.5 0 1 1-.832.554L7.5 8.153V5a.5.5 0 0 1 .5-.5" clip-rule="evenodd"/></svg>