<svg xmlns="http://www.w3.org/2000/svg" width="20" height="20" fill="none" class="persona-icon" viewBox="0 0 20 20"><path fill="currentColor" fill-rule="evenodd" d="M5.14 4.255A7.5 7.5 0 0 1 10 2.475c1.853 0 3.55.67 4.86 1.78l.736-.734a.625.625 0 0 1 .884.883l-.735.735a7.525 7.525 0 1 1-11.49 0l-.734-.735a.625.625 0 1 1 .884-.883zm4.86-.53a6.275 6.275 0 1 0 0 12.55 6.275 6.275 0 0 0 0-12.55m-2.35-2.35c0-.345.28-.625.625-.625h3.45a.625.625 0 1 1 0 1.25h-3.45a.625.625 0 0 1-.625-.625M10 5.722a.625.625 0 0 0-.625.625v3.842l1.83 2.745a.625.625 0 0 0 1.04-.693l-1.62-2.43V6.347A.625.625 0 0 0 10 5.722" clip-rule="evenodd"/></svg>