<svg xmlns="http://www.w3.org/2000/svg" width="24" height="24" fill="none" class="persona-icon" viewBox="0 0 24 24"><path fill="currentColor" d="M9.943 2a.77.77 0 1 0 0 1.539h4.114a.77.77 0 1 0 0-1.539zM12 7.128a.77.77 0 0 1 .771.77v4.895l1.928 2.883a.77.77 0 0 1-.214 1.067.773.773 0 0 1-1.07-.214l-2.186-3.27V7.897A.77.77 0 0 1 12 7.128"/><path fill="currentColor" fill-rule="evenodd" d="M6.205 6.16A8.98 8.98 0 0 1 12 4.05c2.208 0 4.23.793 5.795 2.108l.86-.857c.3-.3.79-.3 1.09 0 .302.3.302.788 0 1.088l-.859.857A8.92 8.92 0 0 1 21 13.026C21 17.982 16.97 22 12 22s-9-4.018-9-8.974c0-2.202.795-4.218 2.114-5.779l-.86-.857a.77.77 0 0 1 0-1.088c.302-.3.79-.3 1.092 0zM12 5.59c-4.118 0-7.457 3.329-7.457 7.436S7.882 20.462 12 20.462s7.457-3.33 7.457-7.436c0-4.107-3.338-7.436-7.457-7.436" clip-rule="evenodd"/></svg>