<svg xmlns="http://www.w3.org/2000/svg" width="24" height="24" fill="none" class="persona-icon" viewBox="0 0 24 24"><path fill="currentColor" fill-rule="evenodd" d="M9.125 1.375a.75.75 0 0 1 .75-.75h4.25a.75.75 0 0 1 0 1.5h-4.25a.75.75 0 0 1-.75-.75M6.011 4.95A9.2 9.2 0 0 1 12 2.75c2.284 0 4.375.828 5.989 2.2l.918-.918a.75.75 0 1 1 1.06 1.06l-.917.919A9.2 9.2 0 0 1 21.25 12a9.25 9.25 0 1 1-16.3-5.989l-.918-.918a.75.75 0 1 1 1.06-1.06zM12 4.25a7.75 7.75 0 1 0 0 15.5 7.75 7.75 0 0 0 0-15.5m0 2.5a.75.75 0 0 1 .75.75v4.273l1.999 2.999a.75.75 0 1 1-1.248.832l-2.251-3.377V7.5a.75.75 0 0 1 .75-.75" clip-rule="evenodd"/></svg>