<svg xmlns="http://www.w3.org/2000/svg" width="32" height="32" fill="none" class="persona-icon" viewBox="0 0 32 32"><path fill="currentColor" fill-rule="evenodd" d="M8.015 6.6A12.28 12.28 0 0 1 16 3.667c3.046 0 5.834 1.104 7.985 2.933l1.225-1.224a1 1 0 0 1 1.414 1.414L25.4 8.015A12.28 12.28 0 0 1 28.333 16c0 6.811-5.521 12.333-12.333 12.333C9.19 28.333 3.667 22.811 3.667 16c0-3.046 1.104-5.834 2.934-7.985L5.376 6.79A1 1 0 0 1 6.79 5.376zM16 5.667C10.293 5.667 5.667 10.293 5.667 16S10.293 26.333 16 26.333 26.333 21.707 26.333 16 21.707 5.667 16 5.667m-3.833-3.834a1 1 0 0 1 1-1h5.666a1 1 0 1 1 0 2h-5.666a1 1 0 0 1-1-1M16 9a1 1 0 0 0-1 1v6.303l3.001 4.502a1 1 0 1 0 1.665-1.11L17 15.697V10a1 1 0 0 0-1-1" clip-rule="evenodd"/></svg>