<?xml version="1.0" encoding="UTF-8"?>
<svg width="204px" height="131px" viewBox="0 0 204 131" version="1.1" xmlns="http://www.w3.org/2000/svg" xmlns:xlink="http://www.w3.org/1999/xlink">
    <!-- Generator: Sketch 56.2 (81672) - https://sketch.com -->
    <title>Logo / Negative / Icon</title>
    <desc>Created with Sketch.</desc>
    <defs>
        <linearGradient x1="38.7719181%" y1="36.9455946%" x2="99.7458708%" y2="100%" id="linearGradient-1">
            <stop stop-color="#000000" stop-opacity="0" offset="0%"></stop>
            <stop stop-color="#000000" stop-opacity="0.0536334208" offset="10.2711585%"></stop>
            <stop stop-color="#000000" stop-opacity="0.105631912" offset="19.6570832%"></stop>
            <stop stop-color="#000000" stop-opacity="0.191598599" offset="30.3099808%"></stop>
            <stop stop-color="#000000" stop-opacity="0.245360094" offset="38.6504069%"></stop>
            <stop stop-color="#000000" offset="100%"></stop>
        </linearGradient>
    </defs>
    <g id="Logo-/-Negative-/-Icon" stroke="none" stroke-width="1" fill="none" fill-rule="evenodd">
        <path d="M19.1359203,111.815313 C30.9636339,123.668638 47.3036075,131 65.352117,131 C83.4004497,131 99.7402465,123.668638 111.567783,111.815313 L204,19.1846867 C192.172286,7.33136183 175.832313,0 157.78398,0 C139.735471,0 123.395674,7.33136183 111.568137,19.1845095 L111.56796,19.1846867 C99.7402465,7.33136183 83.4004497,0 65.3522937,0 C26.5673268,0 2.02528496,29.2248333 0,66.4713328 C0.256828333,84.1728482 7.52049215,100.17473 19.1359203,111.815313 Z" id="Path" fill="#FFFFFF"></path>
        <path d="M112,19.2653956 C100.126484,7.36220448 83.7234126,0 65.6053663,0 C26.6702071,0 2.03312774,29.3477806 0,66.7509741 C0.257822885,84.5269588 7.54961478,100.59616 19.2100229,112.285714 L112,19.2653956 Z" id="Path" fill="url(#linearGradient-1)"></path>
    </g>
</svg>