<svg xmlns="http://www.w3.org/2000/svg" width="16" height="16" fill="none" class="persona-icon" viewBox="0 0 16 16"><path fill="currentColor" fill-rule="evenodd" d="M5.429 1.714A2.43 2.43 0 0 0 3 4.142v7.586a.5.5 0 0 1 .125-.207l1.928-1.929a.5.5 0 1 1 .708.707l-1.075 1.075h2.667a.75.75 0 0 0 .75-.75V9.25a.5.5 0 1 1 1 0v1.372a1.75 1.75 0 0 1-1.75 1.751H4.686L5.76 13.45a.5.5 0 0 1-.221.836h5.032A2.43 2.43 0 0 0 13 11.857v-5.28c0-.452-.171-.887-.48-1.218L9.647 2.281a1.79 1.79 0 0 0-1.306-.567zm3.714 3.072v-1.58l2.207 2.365H9.929a.786.786 0 0 1-.786-.785" clip-rule="evenodd"/><path fill="currentColor" d="M5.253 14.279a.5.5 0 0 1-.2-.123l-1.928-1.928a.5.5 0 0 1-.118-.186 2.43 2.43 0 0 0 2.246 2.237"/></svg>