<svg xmlns="http://www.w3.org/2000/svg" width="20" height="20" fill="none" class="persona-icon" viewBox="0 0 20 20"><path fill="currentColor" fill-rule="evenodd" d="M6.915 2.432a2.94 2.94 0 0 0-2.94 2.94v9.098a.6.6 0 0 1 .157-.263l2.314-2.314a.625.625 0 1 1 .884.884l-1.247 1.247h3.14a.876.876 0 0 0 .877-.876v-1.647a.625.625 0 1 1 1.25 0v1.647a2.126 2.126 0 0 1-2.126 2.126H6.083l1.247 1.248a.625.625 0 0 1-.28 1.045h6.036a2.94 2.94 0 0 0 2.94-2.939V8.294c0-.55-.21-1.078-.584-1.48l-3.447-3.693a2.17 2.17 0 0 0-1.585-.69zm4.481 3.711V4.312l2.566 2.749h-1.648a.92.92 0 0 1-.918-.918" clip-rule="evenodd"/><path fill="currentColor" d="M6.7 17.56a.6.6 0 0 1-.254-.154L4.132 15.09a.6.6 0 0 1-.148-.236A2.94 2.94 0 0 0 6.7 17.56"/></svg>