<svg xmlns="http://www.w3.org/2000/svg" width="20" height="20" fill="none" class="persona-icon" viewBox="0 0 20 20"><path fill="currentColor" fill-rule="evenodd" d="M6.915 2.432h3.495c.6 0 1.175.25 1.585.689l3.447 3.693c.375.402.583.93.583 1.48v6.334a2.94 2.94 0 0 1-2.94 2.94H7.05a.625.625 0 0 0 .28-1.046l-1.247-1.248h3.14a2.126 2.126 0 0 0 2.127-2.126v-1.647a.625.625 0 1 0-1.25 0v1.647a.876.876 0 0 1-.876.876H6.083l1.247-1.247a.625.625 0 0 0-.884-.884l-2.314 2.314a.6.6 0 0 0-.157.263V5.371a2.94 2.94 0 0 1 2.94-2.94m4.481 3.711c0 .507.411.918.918.918h1.648l-2.566-2.75z" clip-rule="evenodd"/><path fill="currentColor" d="M6.7 17.56a2.94 2.94 0 0 1-2.716-2.705c.03.088.08.17.148.236l2.314 2.315q.113.11.254.154"/></svg>