<svg xmlns="http://www.w3.org/2000/svg" width="24" height="24" fill="none" class="persona-icon" viewBox="0 0 24 24"><path fill="currentColor" fill-rule="evenodd" d="M7.889 2a3.833 3.833 0 0 0-3.833 3.834v12.135a.75.75 0 0 1 .185-.305l3.083-3.083a.75.75 0 1 1 1.06 1.06l-1.802 1.803h4.384c.69 0 1.25-.56 1.25-1.25V14a.75.75 0 1 1 1.5 0v2.194a2.75 2.75 0 0 1-2.75 2.75H6.582l1.803 1.803A.75.75 0 0 1 8.056 22h8.055a3.833 3.833 0 0 0 3.833-3.833v-8.44a2.8 2.8 0 0 0-.754-1.914l-4.593-4.921A2.8 2.8 0 0 0 12.546 2zm9.58 6.167h-2.386a1.306 1.306 0 0 1-1.305-1.305v-2.65z" clip-rule="evenodd"/><path fill="currentColor" d="M7.622 21.991a.75.75 0 0 1-.298-.183l-3.083-3.083a.75.75 0 0 1-.175-.275 3.834 3.834 0 0 0 3.556 3.541"/></svg>