<svg xmlns="http://www.w3.org/2000/svg" width="20" height="20" fill="none"><path fill="#000" fill-rule="evenodd" d="M3.173 3.165a.613.613 0 0 1 .837 0l2.972 2.828c.03.023.057.05.081.078l9.764 9.29a.544.544 0 0 1 0 .796.613.613 0 0 1-.837 0l-3.765-3.582-3.806 4.228a.612.612 0 0 1-.707.14.556.556 0 0 1-.323-.613l.97-4.75H5.016a.602.602 0 0 1-.48-.234.54.54 0 0 1-.082-.506L5.93 6.584 3.173 3.96a.544.544 0 0 1 0-.796Zm3.693 4.31-1.032 2.978h3.243c.177 0 .344.076.456.205.113.13.158.3.125.466l-.68 3.328 2.408-2.676-4.52-4.3Zm.169-4.077A.589.589 0 0 1 7.6 3h5.908c.189 0 .367.086.478.232a.54.54 0 0 1 .084.504l-1.477 4.346h2.391c.228 0 .435.124.534.319a.541.541 0 0 1-.072.595l-1.424 1.694a.612.612 0 0 1-.831.088.545.545 0 0 1-.093-.79l.656-.78H11.78a.602.602 0 0 1-.478-.232.54.54 0 0 1-.085-.504l1.477-4.346H8.037l-.207.64a.597.597 0 0 1-.739.373.559.559 0 0 1-.391-.704l.335-1.037Z" clip-rule="evenodd"/></svg>