<svg xmlns="http://www.w3.org/2000/svg" width="20" height="20" fill="none" class="persona-icon"><path fill="currentColor" d="M3.173 3.165a.613.613 0 0 1 .837 0l2.972 2.828c.03.023.057.05.081.078l9.764 9.29a.544.544 0 0 1 0 .796.613.613 0 0 1-.837 0l-3.765-3.582-3.806 4.228a.612.612 0 0 1-.707.14.556.556 0 0 1-.323-.613l.97-4.75H5.016a.601.601 0 0 1-.48-.234.54.54 0 0 1-.082-.506L5.93 6.584 3.173 3.961a.544.544 0 0 1 0-.796Zm3.693 4.31-1.032 2.978h3.243c.177 0 .344.076.456.205.113.13.158.3.125.466l-.68 3.328 2.408-2.676-4.52-4.3Zm.169-4.077-.336 1.037a.559.559 0 0 0 .392.704.598.598 0 0 0 .74-.373l.206-.64h4.657l-1.477 4.346a.54.54 0 0 0 .085.504c.111.146.289.232.478.232h1.974l-.656.78a.545.545 0 0 0 .093.79.612.612 0 0 0 .831-.088l1.424-1.694c.142-.168.17-.4.072-.595a.595.595 0 0 0-.534-.32h-2.39l1.476-4.345a.54.54 0 0 0-.084-.504.602.602 0 0 0-.479-.232H7.6c-.26 0-.489.161-.565.397Z"/></svg>