<svg xmlns="http://www.w3.org/2000/svg" width="20" height="20" fill="none" class="persona-icon" viewBox="0 0 20 20"><path fill="currentColor" fill-rule="evenodd" d="M3.158 3.158a.625.625 0 0 1 .884 0l12.8 12.8a.625.625 0 1 1-.884.884l-3.843-3.843L8.28 17.79a.625.625 0 0 1-1.1-.514l1.098-5.484H4.4a.625.625 0 0 1-.607-.772l1.23-5.064.01-.04-1.875-1.875a.625.625 0 0 1 0-.884m2.91 3.793-.873 3.593H9.04a.625.625 0 0 1 .613.747l-.743 3.712 2.315-2.894zm-.195-4.498a.625.625 0 0 1 .607-.478h6.72a.625.625 0 0 1 .558.908l-2.1 4.134H15.6a.625.625 0 0 1 .488 1.016l-2.227 2.783a.625.625 0 1 1-.976-.781L14.3 8.267h-3.66a.625.625 0 0 1-.557-.908l2.099-4.134h-5.21l-.138.566a.625.625 0 1 1-1.214-.295z" clip-rule="evenodd"/></svg>