<svg xmlns="http://www.w3.org/2000/svg" width="32" height="32" fill="none" class="persona-icon" viewBox="0 0 32 32"><path fill="currentColor" fill-rule="evenodd" d="M8.844 2.764A1 1 0 0 1 9.816 2h11.806a1 1 0 0 1 .891 1.453l-3.76 7.405h7.085a1 1 0 0 1 .78 1.624l-3.912 4.89a1 1 0 1 1-1.561-1.25l2.612-3.264h-6.633a1 1 0 0 1-.891-1.453L19.993 4h-9.39l-.26 1.069A1 1 0 0 1 8.4 4.597zM4.293 4.293a1 1 0 0 1 1.414 0l22 22a1 1 0 0 1-1.414 1.414l-6.587-6.586-6.804 8.504a1 1 0 0 1-1.761-.821l1.952-9.751h-6.93a1 1 0 0 1-.973-1.236L7.35 8.92a1 1 0 0 1 .037-.12L4.293 5.707a1 1 0 0 1 0-1.414m4.744 6.158-1.603 6.602h6.88a1 1 0 0 1 .98 1.196l-1.385 6.916 4.375-5.467z" clip-rule="evenodd"/></svg>