<svg xmlns="http://www.w3.org/2000/svg" width="32" height="32" fill="none" class="persona-icon" viewBox="0 0 32 32"><path fill="currentColor" fill-rule="evenodd" d="M4.71 3.28a1.037 1.037 0 0 0-1.415 0 .919.919 0 0 0 0 1.346L8.503 9.58 5.72 17.607c-.1.29-.049.608.14.855.187.247.489.394.81.394h6.391l-1.842 9.013a.94.94 0 0 0 .546 1.038c.41.188.9.09 1.195-.237l7.204-7.999 7.132 6.784c.39.372 1.023.372 1.414 0a.919.919 0 0 0 0-1.345L10.423 8.716a.979.979 0 0 0-.145-.137L4.71 3.28m5.377 7.807 8.657 8.235-4.84 5.374 1.351-6.61a.917.917 0 0 0-.21-.786 1.021 1.021 0 0 0-.771-.347H8.052l2.035-5.866" clip-rule="evenodd"/><path fill="currentColor" d="M11.508 3.002a.995.995 0 0 0-.956.672l-.627 1.942c-.163.503.134 1.035.662 1.189.528.154 1.087-.128 1.25-.63l.41-1.27h8.948l-2.811 8.268a.913.913 0 0 0 .143.852c.188.246.488.392.808.392h3.92l-1.367 1.625a.92.92 0 0 0 .156 1.337c.431.328 1.06.262 1.406-.148l2.666-3.171a.914.914 0 0 0 .12-1.006 1.005 1.005 0 0 0-.9-.54H20.71l2.811-8.268a.913.913 0 0 0-.143-.852 1.017 1.017 0 0 0-.808-.392H11.508"/></svg>