<svg xmlns="http://www.w3.org/2000/svg" width="32" height="32" fill="none"><path fill="#000" fill-rule="evenodd" d="M8 5a3 3 0 0 0-3 3v3.5a1 1 0 1 1-2 0V8a5 5 0 0 1 5-5h3.5a1 1 0 1 1 0 2H8Zm11.5-1a1 1 0 0 1 1-1H24a5 5 0 0 1 5 5v3.5a1 1 0 1 1-2 0V8a3 3 0 0 0-3-3h-3.5a1 1 0 0 1-1-1ZM4 19.5a1 1 0 0 1 1 1V24a3 3 0 0 0 3 3h3.5a1 1 0 1 1 0 2H8a5 5 0 0 1-5-5v-3.5a1 1 0 0 1 1-1Zm24 0a1 1 0 0 1 1 1V24a5 5 0 0 1-5 5h-3.5a1 1 0 1 1 0-2H24a3 3 0 0 0 3-3v-3.5a1 1 0 0 1 1-1ZM8.333 10.667a1 1 0 0 1 1-1h13.334a1 1 0 0 1 0 2H9.333a1 1 0 0 1-1-1ZM8.333 16a1 1 0 0 1 1-1h13.334a1 1 0 1 1 0 2H9.333a1 1 0 0 1-1-1ZM8.333 21.333a1 1 0 0 1 1-1H16a1 1 0 1 1 0 2H9.333a1 1 0 0 1-1-1Z" clip-rule="evenodd"/></svg>