<svg xmlns="http://www.w3.org/2000/svg" width="24" height="24" fill="none" class="persona-icon"><path fill="currentColor" d="M2 5.846A3.846 3.846 0 0 1 5.846 2h3.077a.77.77 0 0 1 0 1.538H5.846a2.308 2.308 0 0 0-2.308 2.308v3.077a.77.77 0 0 1-1.538 0V5.846Zm.77 8.462a.77.77 0 0 1 .768.769v3.077a2.308 2.308 0 0 0 2.308 2.308h3.077a.77.77 0 0 1 0 1.538H5.846A3.846 3.846 0 0 1 2 18.154v-3.077a.77.77 0 0 1 .77-.77ZM11.28 9.75a10.383 10.383 0 0 0-2.578 2.653c-.752 1.13-1.062 2.127-1.062 2.674a.77.77 0 1 1-1.538 0c0-.973.484-2.27 1.32-3.526a11.978 11.978 0 0 1 3.82-3.613c.564-.335 1.17-.158 1.523.201.342.348.509.918.26 1.465a51.66 51.66 0 0 0-1.615 4.075c1.203-.909 2.19-1.259 2.876-1.379.465-.082.903.114 1.145.486.227.348.242.779.088 1.144l-.052.125c.18-.067.369-.11.566-.122.587-.036 1.083.216 1.517.501a.77.77 0 0 1-.846 1.286c-.358-.236-.502-.256-.578-.252-.085.006-.272.055-.681.388-.359.293-.89.426-1.36.17-.526-.286-.657-.877-.49-1.371.069-.209.146-.419.223-.62-.596.243-1.414.72-2.404 1.657-.345.326-.884.5-1.38.247-.543-.276-.68-.873-.534-1.366.393-1.317 1.106-3.243 1.78-4.823Zm3.027-6.98a.77.77 0 0 1 .769-.77h3.077A3.846 3.846 0 0 1 22 5.846v3.077a.77.77 0 0 1-1.538 0V5.846a2.308 2.308 0 0 0-2.308-2.308h-3.077a.77.77 0 0 1-.77-.769Zm6.923 11.538a.77.77 0 0 1 .769.769v3.077A3.846 3.846 0 0 1 18.154 22h-3.077a.77.77 0 0 1 0-1.538h3.077a2.308 2.308 0 0 0 2.308-2.308v-3.077a.77.77 0 0 1 .769-.77Z"/></svg>