<svg xmlns="http://www.w3.org/2000/svg" width="24" height="24" fill="none" class="persona-icon" viewBox="0 0 24 24"><path fill="currentColor" fill-rule="evenodd" d="M2 17a.75.75 0 0 1 .75-.75h.75a.75.75 0 0 1 0 1.5h-.75A.75.75 0 0 1 2 17m5.204-3.052c-.88-.506-1.635-1.219-2.236-2.01-.847-1.113-1.427-2.429-1.634-3.66-.202-1.204-.07-2.494.75-3.359.859-.904 2.217-1.088 3.876-.617 1.942.552 3.176 1.718 3.869 3.177.525 1.104.728 2.347.738 3.575q.14-.033.274-.06c.386-.076.778-.115 1.13-.063.36.053.778.22 1.024.64.232.398.204.847.11 1.22-.069.272-.086.47-.08.601.066-.027.154-.072.263-.145.194-.129.447-.349.78-.64l.116-.1c.364-.316.799-.688 1.235-.968.407-.262.974-.552 1.573-.482.722.084 1.166.627 1.395 1.315a4.6 4.6 0 0 0 .335.804.75.75 0 0 1 .692 1.322c-.1.066-.291.188-.533.242-.282.062-.59.023-.876-.16-.253-.162-.442-.407-.593-.673a6 6 0 0 1-.448-1.062c-.066-.197-.128-.274-.15-.296l-.003-.003c-.054-.002-.233.031-.58.254-.334.214-.692.517-1.062.839l-.122.106c-.311.271-.647.565-.93.753-.324.214-.673.376-1.03.422-.375.049-.78-.032-1.099-.331-.299-.281-.419-.66-.453-1.01-.034-.352.012-.744.115-1.154l.004-.017a2.5 2.5 0 0 0-.524.058 7 7 0 0 0-.65.166l-.007.064c-.2 1.715-1.133 3.768-2.248 5.218-.556.724-1.207 1.363-1.901 1.719-.719.369-1.585.47-2.347-.106a2.17 2.17 0 0 1-.887-1.638c-.036-.601.153-1.203.428-1.747.385-.762.998-1.524 1.686-2.194m1.244-1.054a8.6 8.6 0 0 1 1.662-.976q.494-.21.95-.383c.045-1.242-.12-2.431-.586-3.412C9.963 7.048 9.07 6.177 7.55 5.745c-1.4-.398-2.068-.12-2.378.207-.348.367-.527 1.076-.358 2.077.163.972.636 2.065 1.348 3.002.628.826 1.413 1.493 2.286 1.863m.302 1.674.18.04a.75.75 0 0 0 .893-.839 6 6 0 0 1 1.032-.537c-.3 1.258-.995 2.696-1.819 3.768-.492.64-.983 1.086-1.397 1.298-.39.2-.599.152-.756.033-.208-.158-.284-.327-.296-.53-.014-.24.06-.569.27-.982.373-.74 1.08-1.558 1.893-2.251m3 2.432a.75.75 0 0 1 .75-.75h8.75a.75.75 0 0 1 0 1.5H12.5a.75.75 0 0 1-.75-.75m3.299-3.463-.001-.002z" clip-rule="evenodd"/></svg>