<svg xmlns="http://www.w3.org/2000/svg" width="16" height="16" fill="none" class="persona-icon" viewBox="0 0 16 16"><path fill="currentColor" fill-rule="evenodd" d="M5.429 2.714c-.79 0-1.429.64-1.429 1.429v7.714c0 .789.64 1.428 1.429 1.428h1.928a.5.5 0 1 1 0 1H5.43A2.43 2.43 0 0 1 3 11.857V4.143a2.43 2.43 0 0 1 2.429-2.43H8.34c.495 0 .968.206 1.306.568L12.52 5.36c.309.331.48.766.48 1.219v2.707a.5.5 0 1 1-1 0V6.572H9.93c-.986 0-1.786-.8-1.786-1.786V2.714zm8.39 8.147a.5.5 0 0 1 0 .707l-2.68 2.678a.5.5 0 0 1-.718-.012l-1.5-1.607a.5.5 0 0 1 .73-.683l1.147 1.23 2.313-2.313a.5.5 0 0 1 .707 0M9.142 3.207v1.579c0 .434.352.786.786.786h1.421z" clip-rule="evenodd"/></svg>