<svg xmlns="http://www.w3.org/2000/svg" width="20" height="20" fill="none" class="persona-icon" viewBox="0 0 20 20"><path fill="currentColor" d="M17 13.415a.625.625 0 0 1 0 .884l-3.215 3.214a.625.625 0 0 1-.899-.016l-1.8-1.928a.625.625 0 1 1 .914-.853l1.358 1.456 2.757-2.757a.625.625 0 0 1 .884 0"/><path fill="currentColor" fill-rule="evenodd" d="M5.225 5.371v9.257c0 .933.756 1.69 1.69 1.69h2.314a.625.625 0 1 1 0 1.25H6.914a2.94 2.94 0 0 1-2.939-2.94V5.371a2.94 2.94 0 0 1 2.94-2.94h3.495c.6 0 1.175.25 1.585.69l3.447 3.693c.375.402.583.93.583 1.48v3.249a.625.625 0 1 1-1.25 0V8.31h-2.46a2.17 2.17 0 0 1-2.168-2.168V3.682H6.914a1.69 1.69 0 0 0-1.689 1.69m6.172.772c0 .507.41.918.917.918h1.648l-2.565-2.749z" clip-rule="evenodd"/></svg>