<svg xmlns="http://www.w3.org/2000/svg" width="24" height="24" fill="none" class="persona-icon" viewBox="0 0 24 24"><path fill="currentColor" fill-rule="evenodd" d="M7.889 3.5a2.333 2.333 0 0 0-2.333 2.333v12.334A2.333 2.333 0 0 0 7.889 20.5h3.083a.75.75 0 0 1 0 1.5H7.89a3.833 3.833 0 0 1-3.833-3.833V5.833A3.833 3.833 0 0 1 7.889 2h4.657c.777 0 1.52.323 2.05.891l4.594 4.922c.485.52.754 1.203.754 1.914v4.329a.75.75 0 0 1-1.5 0v-4.33l-.001-.06h-3.36a2.806 2.806 0 0 1-2.805-2.805V3.5zm13.377 13.109a.75.75 0 0 1 0 1.06l-4.282 4.283a.75.75 0 0 1-1.079-.019l-2.398-2.57a.75.75 0 1 1 1.097-1.023l1.868 2.002 3.734-3.733a.75.75 0 0 1 1.06 0M13.778 4.212v2.65c0 .72.584 1.305 1.305 1.305h2.385z" clip-rule="evenodd"/></svg>