<svg xmlns="http://www.w3.org/2000/svg" width="24" height="24" fill="none"><path fill="#000" fill-rule="evenodd" d="M20.78 16.553a.75.75 0 0 1 0 1.06l-4.166 4.167a.75.75 0 0 1-1.079-.018l-2.333-2.5a.75.75 0 0 1 1.096-1.024l1.804 1.933 3.618-3.618a.75.75 0 0 1 1.06 0Z" clip-rule="evenodd"/><path fill="#000" fill-rule="evenodd" d="M7.871 3.538a2.315 2.315 0 0 0-2.323 2.308v12.308a2.315 2.315 0 0 0 2.323 2.308h3.097c.427 0 .774.344.774.769 0 .425-.347.769-.774.769H7.87C5.733 22 4 20.278 4 18.154V5.846C4 3.722 5.733 2 7.871 2h4.677c.787 0 1.538.324 2.075.896l4.614 4.911c.49.522.763 1.21.763 1.925v4.32c0 .424-.347.768-.774.768a.772.772 0 0 1-.774-.769v-4.32l-.001-.039h-3.354a2.83 2.83 0 0 1-2.839-2.82V3.538H7.871Zm5.935 1.088v2.246c0 .708.578 1.282 1.29 1.282h2.26l-3.55-3.528Z" clip-rule="evenodd"/></svg>