<svg xmlns="http://www.w3.org/2000/svg" width="32" height="32" fill="none"><path fill="#000" fill-rule="evenodd" d="M17.695 6.328c1.519-2.691 4.906-3.635 7.547-2.075 2.645 1.562 3.538 5.027 2.016 7.725l-4.487 7.952c-1.53 2.71-4.941 3.661-7.6 2.09-2.627-1.551-3.514-4.991-2.002-7.67a1 1 0 0 1 1.741.984c-.989 1.752-.388 3.98 1.278 4.964 1.671.988 3.849.409 4.841-1.35l4.487-7.953c1-1.772.394-4.025-1.292-5.02-1.652-.976-3.805-.404-4.787 1.336l-.283.501a1 1 0 1 1-1.741-.983l.282-.501ZM9.23 12.07c1.53-2.711 4.941-3.661 7.6-2.09 2.627 1.551 3.514 4.99 2.002 7.67a1 1 0 1 1-1.741-.984c.988-1.752.388-3.98-1.278-4.965-1.671-.987-3.848-.408-4.841 1.351l-4.487 7.953c-1 1.772-.394 4.025 1.292 5.02 1.652.976 3.805.404 4.787-1.336l.283-.501a1 1 0 1 1 1.742.983l-.283.501c-1.519 2.691-4.906 3.635-7.547 2.075-2.645-1.563-3.538-5.027-2.016-7.725l4.487-7.952Z" clip-rule="evenodd"/></svg>