<svg xmlns="http://www.w3.org/2000/svg" width="32" height="32" fill="none"><path fill="#000" fill-rule="evenodd" d="M14.152 6.642c.756-1.523 2.94-1.523 3.696 0l2.261 4.555a.09.09 0 0 0 .068.049l5.056.73c1.69.244 2.366 2.309 1.142 3.494l-3.659 3.545a.09.09 0 0 0-.025.08l.863 5.006c.29 1.673-1.478 2.95-2.99 2.16l-4.522-2.364a.09.09 0 0 0-.084 0l-4.523 2.363c-1.511.79-3.278-.486-2.99-2.16l.864-5.006a.089.089 0 0 0-.025-.079l-3.66-3.545c-1.222-1.185-.548-3.25 1.143-3.494l5.056-.73a.09.09 0 0 0 .068-.05l2.261-4.554Zm1.799.83c-.007.003-.019.011-.031.037l-2.262 4.555a2.06 2.06 0 0 1-1.551 1.12l-5.057.731c-.029.004-.04.013-.046.018a.098.098 0 0 0-.026.043.097.097 0 0 0-.004.05c.002.008.006.02.026.04l3.66 3.546a2.04 2.04 0 0 1 .592 1.814l-.864 5.006c-.005.028 0 .042.003.049.005.01.015.025.033.038a.099.099 0 0 0 .047.02c.008 0 .022 0 .047-.013l4.523-2.364a2.071 2.071 0 0 1 1.918 0l4.523 2.364c.025.013.04.013.047.012a.099.099 0 0 0 .047-.019.099.099 0 0 0 .033-.038c.003-.008.008-.02.003-.049l-.864-5.006a2.04 2.04 0 0 1 .593-1.814L25 14.067c.02-.02.024-.034.026-.041a.097.097 0 0 0-.004-.05.098.098 0 0 0-.026-.043c-.006-.005-.017-.014-.046-.018l-5.057-.73a2.06 2.06 0 0 1-1.551-1.121L16.08 7.509c-.012-.026-.024-.034-.03-.038A.098.098 0 0 0 16 7.46a.098.098 0 0 0-.05.012Z" clip-rule="evenodd"/></svg>