<svg xmlns="http://www.w3.org/2000/svg" width="24" height="24" fill="none"><path fill="#000" fill-rule="evenodd" d="M21.775 3.563a.77.77 0 1 0-1.088-1.088L2.225 20.937a.77.77 0 0 0 1.088 1.088l5.62-5.62a16.298 16.298 0 0 0 9.82 4.092c.986.061 1.747-.744 1.747-1.671v-2.949c0-.433-.166-.918-.579-1.244-1.008-.795-2.373-1.114-4.222-1.14a1.676 1.676 0 0 0-.811.198l-.502.267a.203.203 0 0 1-.198.005 11.805 11.805 0 0 1-1.642-1.171l9.229-9.229ZM11.51 13.827 9.968 15.37a14.84 14.84 0 0 0 8.875 3.67c.086.005.197-.067.197-.214v-2.949a.213.213 0 0 0-.014-.083c-.004-.01-.009-.015-.009-.015-.636-.502-1.613-.803-3.338-.827a.217.217 0 0 0-.105.027l-.502.267a1.661 1.661 0 0 1-1.627-.027 13.266 13.266 0 0 1-1.934-1.392Z" clip-rule="evenodd"/><path fill="#000" d="M9.351 11.438a.73.73 0 0 0 1.194-.84c-.261-.37-.501-.757-.719-1.158a.203.203 0 0 1 .007-.19l.303-.577a1.68 1.68 0 0 0 .192-.8c-.009-.708-.06-1.245-.206-1.783-.143-.528-.368-1.023-.673-1.643A1.698 1.698 0 0 0 7.925 3.5h-2.75c-.928 0-1.733.761-1.672 1.748a16.298 16.298 0 0 0 3.025 8.483.73.73 0 1 0 1.185-.85A14.84 14.84 0 0 1 4.96 5.156c-.005-.086.067-.197.214-.197h2.75c.094 0 .177.053.215.131.302.614.47 1 .574 1.38.1.373.147.775.156 1.42a.221.221 0 0 1-.026.104l-.303.577a1.662 1.662 0 0 0 .004 1.566c.245.45.514.884.807 1.3Z"/></svg>