<svg xmlns="http://www.w3.org/2000/svg" width="32" height="32" fill="none"><path fill="#000" fill-rule="evenodd" d="M28.707 4.907a1 1 0 0 0-1.414-1.414l-24 24a1 1 0 1 0 1.414 1.414l6.931-6.931a22.04 22.04 0 0 0 13.462 5.72c1.355.085 2.4-1.021 2.4-2.294v-3.954c0-.593-.227-1.26-.796-1.708-1.365-1.073-3.21-1.502-5.7-1.538a2.301 2.301 0 0 0-1.114.271l-.664.354a.277.277 0 0 1-.271.007 15.95 15.95 0 0 1-2.417-1.758l12.17-12.169ZM15.12 18.496l-2.063 2.062a20.035 20.035 0 0 0 12.171 5.138c.117.007.27-.091.27-.294v-3.954c0-.052-.01-.09-.02-.113a.078.078 0 0 0-.012-.02c-.855-.672-2.169-1.077-4.49-1.11a.298.298 0 0 0-.144.037l-.664.354a2.28 2.28 0 0 1-2.234-.038 17.94 17.94 0 0 1-2.814-2.062Z" clip-rule="evenodd"/><path fill="#000" d="M12.408 15.45a1.002 1.002 0 0 0 1.638-1.153 15.934 15.934 0 0 1-.965-1.554.278.278 0 0 1 .01-.26l.4-.766c.175-.333.27-.71.265-1.1-.012-.952-.083-1.677-.279-2.402-.192-.714-.495-1.38-.905-2.215a2.33 2.33 0 0 0-2.092-1.3H6.798c-1.273 0-2.38 1.045-2.293 2.4A22.038 22.038 0 0 0 8.592 18.55a1.002 1.002 0 1 0 1.628-1.168A20.038 20.038 0 0 1 6.504 6.973c-.007-.117.091-.27.294-.27h3.682c.128 0 .242.073.294.18.405.824.631 1.342.77 1.854.134.5.197 1.04.21 1.907 0 .044-.011.094-.037.143l-.401.766a2.28 2.28 0 0 0 .005 2.149c.33.605.693 1.188 1.087 1.748Z"/></svg>