<svg xmlns="http://www.w3.org/2000/svg" width="16" height="16" fill="none" class="persona-icon" viewBox="0 0 16 16"><path fill="currentColor" fill-rule="evenodd" d="M2 4.839v-.026c0-1.185.961-2.146 2.147-2.146h7.706c1.186 0 2.147.96 2.147 2.146V8a.5.5 0 1 1-1 0V5.819L8.75 8.927a1.3 1.3 0 0 1-1.514 0l-.005-.004L3 5.82v5.367c0 .633.513 1.146 1.147 1.146H8a.5.5 0 1 1 0 1H4.147A2.147 2.147 0 0 1 2 11.187zm7.813 5.19a.5.5 0 0 1 .707 0l1.1 1.1a.5.5 0 0 1 0 .708l-1.1 1.1a.5.5 0 1 1-.707-.707l.746-.747-.746-.746a.5.5 0 0 1 0-.707m2 0a.5.5 0 0 1 .707 0l1.1 1.1a.5.5 0 0 1 0 .708l-1.1 1.1a.5.5 0 1 1-.707-.707l.746-.747-.746-.746a.5.5 0 0 1 0-.707m1.166-5.434a1.15 1.15 0 0 0-1.126-.928H4.147c-.559 0-1.024.4-1.126.928l4.798 3.52a.3.3 0 0 0 .349 0z" clip-rule="evenodd"/></svg>