<svg xmlns="http://www.w3.org/2000/svg" width="16" height="16" fill="none" class="persona-icon" viewBox="0 0 16 16"><path fill="currentColor" fill-rule="evenodd" d="M2 4.839v6.348c0 1.185.961 2.146 2.147 2.146H8a.5.5 0 0 0 0-1H4.147A1.147 1.147 0 0 1 3 11.187V5.82l4.23 3.103.006.004a1.3 1.3 0 0 0 1.515 0L13 5.819V8a.5.5 0 1 0 1 0V4.813a2.147 2.147 0 0 0-2.147-2.146H4.147A2.147 2.147 0 0 0 2 4.813v.026m7.813 5.19a.5.5 0 0 1 .707 0l1.1 1.1a.5.5 0 0 1 0 .708l-1.1 1.1a.5.5 0 1 1-.707-.707l.746-.747-.746-.746a.5.5 0 0 1 0-.707m2 0a.5.5 0 0 1 .707 0l1.1 1.1a.5.5 0 0 1 0 .708l-1.1 1.1a.5.5 0 1 1-.707-.707l.746-.747-.746-.746a.5.5 0 0 1 0-.707m1.166-5.434-4.811 3.52a.3.3 0 0 1-.349 0l-4.798-3.52a1.15 1.15 0 0 1 1.126-.928h7.706c.559 0 1.024.4 1.126.928" clip-rule="evenodd"/></svg>