<svg xmlns="http://www.w3.org/2000/svg" width="16" height="16" fill="none" class="persona-icon" viewBox="0 0 16 16"><path fill="currentColor" fill-rule="evenodd" d="M4.15 2.55A2.15 2.15 0 0 0 2 4.7v6.35c0 1.181.956 2.167 2.15 2.167H8a.5.5 0 0 0 0-1H4.15c-.629 0-1.15-.525-1.15-1.167V5.685l4.263 3.117.004.003a1.26 1.26 0 0 0 1.484.005l.007-.006L13 5.688v2.979a.5.5 0 0 0 1 0V4.7a2.15 2.15 0 0 0-2.15-2.15zm8.826 1.915L8.17 7.995a.26.26 0 0 1-.32-.002l-4.826-3.53A1.15 1.15 0 0 1 4.15 3.55h7.7a1.15 1.15 0 0 1 1.126.915" clip-rule="evenodd"/><path fill="currentColor" d="M11.813 10.03a.5.5 0 0 1 .707 0l1.1 1.1a.5.5 0 0 1 0 .707l-1.1 1.1a.5.5 0 1 1-.707-.707l.747-.747-.747-.746a.5.5 0 0 1 0-.707"/><path fill="currentColor" d="M10.52 10.03a.5.5 0 1 0-.707.707l.747.746-.747.747a.5.5 0 0 0 .707.707l1.1-1.1a.5.5 0 0 0 0-.707z"/></svg>