<svg xmlns="http://www.w3.org/2000/svg" width="20" height="20" fill="none"><path fill="currentColor" d="M1.5 5.035C1.5 3.359 2.808 2 4.422 2h11.156C17.192 2 18.5 3.359 18.5 5.035v7.034a.542.542 0 0 1-.531.552.542.542 0 0 1-.532-.552V5.034c0-1.066-.832-1.93-1.859-1.93H4.422c-1.027 0-1.86.864-1.86 1.93v9.932c0 1.066.833 1.93 1.86 1.93h5.976c.294 0 .532.248.532.552a.542.542 0 0 1-.532.552H4.422C2.808 18 1.5 16.641 1.5 14.966V5.035Z"/><path fill="currentColor" d="M4.787 6.368a.519.519 0 0 1 .741-.127L9.67 9.323c.223.166.471.167.693.003l4.112-3.02a.519.519 0 0 1 .74.13.565.565 0 0 1-.126.77l-4.112 3.021a1.577 1.577 0 0 1-1.926-.007L4.91 7.138a.565.565 0 0 1-.123-.77ZM15.203 13.748a.517.517 0 0 1 .75 0l1.595 1.655a.567.567 0 0 1 0 .78l-1.594 1.655a.517.517 0 0 1-.752 0 .567.567 0 0 1 0-.78l1.219-1.265-1.218-1.265a.567.567 0 0 1 0-.78Z"/><path fill="currentColor" d="M12.812 13.748a.517.517 0 0 1 .751 0l1.594 1.655a.567.567 0 0 1 0 .78l-1.594 1.655a.517.517 0 0 1-.751 0 .567.567 0 0 1 0-.78l1.218-1.265-1.218-1.265a.567.567 0 0 1 0-.78Z"/></svg>