<svg xmlns="http://www.w3.org/2000/svg" width="20" height="20" fill="none" class="persona-icon" viewBox="0 0 20 20"><path fill="currentColor" fill-rule="evenodd" d="M1.5 5.035C1.5 3.359 2.808 2 4.422 2h11.156C17.192 2 18.5 3.359 18.5 5.035v7.034a.542.542 0 0 1-.531.552.542.542 0 0 1-.532-.552V5.035c0-1.067-.832-1.932-1.859-1.932H4.422c-1.027 0-1.86.865-1.86 1.932v9.93c0 1.067.833 1.932 1.86 1.932h5.976c.294 0 .532.247.532.551a.542.542 0 0 1-.532.552H4.422C2.808 18 1.5 16.641 1.5 14.966z" clip-rule="evenodd"/><path fill="currentColor" fill-rule="evenodd" d="M4.787 6.368a.519.519 0 0 1 .741-.127L9.67 9.323c.223.166.471.167.693.003l4.112-3.02a.519.519 0 0 1 .74.13.565.565 0 0 1-.126.77l-4.112 3.021a1.577 1.577 0 0 1-1.926-.007L4.91 7.138a.565.565 0 0 1-.123-.77M15.203 13.748a.517.517 0 0 1 .75 0l1.595 1.655a.567.567 0 0 1 0 .78l-1.594 1.655a.517.517 0 0 1-.751 0 .567.567 0 0 1 0-.78l1.218-1.265-1.218-1.265a.567.567 0 0 1 0-.78" clip-rule="evenodd"/><path fill="currentColor" fill-rule="evenodd" d="M12.812 13.748a.517.517 0 0 1 .751 0l1.594 1.655a.567.567 0 0 1 0 .78l-1.594 1.655a.517.517 0 0 1-.751 0 .567.567 0 0 1 0-.78l1.218-1.265-1.218-1.265a.567.567 0 0 1 0-.78" clip-rule="evenodd"/></svg>