<svg xmlns="http://www.w3.org/2000/svg" width="20" height="20" fill="none" class="persona-icon" viewBox="0 0 20 20"><path fill="currentColor" fill-rule="evenodd" d="M5.52 3.605A2.545 2.545 0 0 0 2.975 6.15v7.39c0 1.397 1.131 2.564 2.545 2.564H10a.625.625 0 1 0 0-1.25H5.52c-.707 0-1.295-.591-1.295-1.315V7.381l4.892 3.577.004.003a1.5 1.5 0 0 0 1.777.006l.01-.006 4.867-3.576v3.38a.625.625 0 0 0 1.25 0V6.15a2.545 2.545 0 0 0-2.545-2.545zm10.222 2.253-5.57 4.091q-.16.113-.32-.002l-5.594-4.09A1.296 1.296 0 0 1 5.52 4.855h8.96c.615 0 1.13.428 1.262 1.003" clip-rule="evenodd"/><path fill="currentColor" d="M14.407 12.322a.625.625 0 0 1 .883 0l1.28 1.28a.625.625 0 0 1 0 .883l-1.28 1.28a.625.625 0 1 1-.883-.883l.838-.839-.838-.838a.625.625 0 0 1 0-.883"/><path fill="currentColor" d="M12.963 12.322a.625.625 0 1 0-.884.883l.838.838-.838.839a.625.625 0 1 0 .884.883l1.28-1.28a.625.625 0 0 0 0-.883z"/></svg>