<svg xmlns="http://www.w3.org/2000/svg" width="24" height="24" fill="none" class="persona-icon" viewBox="0 0 24 24"><path fill="currentColor" fill-rule="evenodd" d="M3 7.258v9.522A3.22 3.22 0 0 0 6.22 20H12a.75.75 0 0 0 0-1.5H6.22c-.95 0-1.72-.77-1.72-1.72V8.73l6.346 4.655.008.005c.68.487 1.591.487 2.272 0L19.5 8.728V12a.75.75 0 0 0 1.5 0V7.22A3.22 3.22 0 0 0 17.78 4H6.22A3.22 3.22 0 0 0 3 7.22v.038m16.469-.366-7.218 5.28a.45.45 0 0 1-.522 0L4.53 6.892A1.72 1.72 0 0 1 6.22 5.5h11.56c.838 0 1.536.6 1.689 1.392m-4.75 8.153a.75.75 0 0 1 1.061 0l1.65 1.65a.75.75 0 0 1 0 1.06l-1.65 1.65a.75.75 0 1 1-1.06-1.06l1.12-1.12-1.12-1.12a.75.75 0 0 1 0-1.06m3 0a.75.75 0 0 1 1.061 0l1.65 1.65a.75.75 0 0 1 0 1.06l-1.65 1.65a.75.75 0 1 1-1.06-1.06l1.12-1.12-1.12-1.12a.75.75 0 0 1 0-1.06" clip-rule="evenodd"/></svg>