<svg xmlns="http://www.w3.org/2000/svg" width="32" height="32" fill="none" class="persona-icon" viewBox="0 0 32 32"><path fill="currentColor" fill-rule="evenodd" d="M4 9.678v-.051a4.293 4.293 0 0 1 4.293-4.294h15.414A4.293 4.293 0 0 1 28 9.627V16a1 1 0 1 1-2 0v-4.363l-8.499 6.217a2.6 2.6 0 0 1-3.029 0l-.01-.008L6 11.64v10.733a2.293 2.293 0 0 0 2.293 2.294H16a1 1 0 0 1 0 2H8.293A4.293 4.293 0 0 1 4 22.373zM19.626 20.06a1 1 0 0 1 1.414 0l2.2 2.2a1 1 0 0 1 0 1.414l-2.2 2.2a1 1 0 0 1-1.414-1.414l1.493-1.493-1.493-1.493a1 1 0 0 1 0-1.414m4 0a1 1 0 0 1 1.414 0l2.2 2.2a1 1 0 0 1 0 1.414l-2.2 2.2a1 1 0 0 1-1.414-1.414l1.493-1.493-1.493-1.493a1 1 0 0 1 0-1.414m2.332-10.87a2.294 2.294 0 0 0-2.251-1.857H8.293c-1.117 0-2.048.8-2.251 1.857l9.597 7.039c.21.148.486.148.696 0z" clip-rule="evenodd"/></svg>