<svg xmlns="http://www.w3.org/2000/svg" width="150" height="150" fill="none" class="persona-ilustration" viewBox="0 0 150 150"><g clip-path="url(#FkjgSF2caa_a)"><g clip-path="url(#FkjgSF2caa_b)"><rect width="125" height="125" x="12.5" y="12.5" fill="#D3EDFF" rx="62.5"/><path fill="#FEEDB4" d="M102.97 139.437H-43.109V15.707H69.514c0 2.108 33.455 123.73 33.455 123.73"/><path fill="#FFF9E1" d="M110.604 134.235h-146.08V10.505l112.625-.001c0 2.108 33.455 123.731 33.455 123.731"/><path fill="#FEEDB4" d="m100.201 131.83-.259-.938.365.978h7.212l4.343-6.278H98.486C91.655 100.724 66.746 9.919 66.746 8.1H-45.88v123.73z"/><path fill="#FFF9E1" d="M111.807 126.065H-34.272V-32.42H71.045s2.12 11.398 7.307 34.754c0 2.108 33.455 123.731 33.455 123.731"/><path fill="#fff" d="M111.807 126.065H-34.272V-32.42H71.045s2.12 11.398 7.307 34.754c0 2.108 33.455 123.731 33.455 123.731" opacity=".75" style="mix-blend-mode:overlay"/><path fill="#E0F5F8" d="M31.398 47.613H60.78c3.819 0 7.674 3.093 8.611 6.912l7.213 29.382c.938 3.819-1.398 6.912-5.217 6.912H42.005c-3.818 0-7.674-3.093-8.611-6.912L26.18 54.525c-.938-3.819 1.398-6.912 5.217-6.912"/><path fill="#80D6E2" fill-rule="evenodd" d="M27.854 47.558c1.007-.61 2.214-.94 3.544-.94h3.06a.994.994 0 1 1 0 1.99h-3.06c-.998 0-1.844.245-2.513.65a.995.995 0 0 1-1.03-1.7m9.283.055c0-.55.445-.995.994-.995h6.121a.994.994 0 1 1 0 1.99h-6.12a.994.994 0 0 1-.995-.995m9.794 0c0-.55.445-.995.994-.995h6.121a.994.994 0 1 1 0 1.99h-6.121a.994.994 0 0 1-.994-.995m9.793 0c0-.55.446-.995.995-.995h3.06c1.385 0 2.752.356 3.997.964a.994.994 0 0 1-.872 1.787c-1.01-.492-2.08-.762-3.125-.762h-3.06a.994.994 0 0 1-.995-.994m10.419 2.847a.995.995 0 0 1 1.396.167c.845 1.076 1.489 2.32 1.818 3.661l.751 3.06a.994.994 0 1 1-1.931.475l-.752-3.06c-.254-1.037-.76-2.028-1.45-2.906a.995.995 0 0 1 .168-1.397m-40.727-.034c.53.141.847.685.707 1.216-.203.766-.218 1.663.023 2.646l.752 3.06a.995.995 0 0 1-1.932.475l-.751-3.06c-.314-1.277-.31-2.513-.015-3.63a.995.995 0 0 1 1.216-.707m1.18 9.867a.994.994 0 0 1 1.203.728l1.503 6.121a.994.994 0 1 1-1.932.475l-1.502-6.122a.994.994 0 0 1 .728-1.202m43.211 0a.994.994 0 0 1 1.203.728l1.503 6.121a.995.995 0 0 1-1.932.475l-1.503-6.122a.994.994 0 0 1 .729-1.202m-40.806 9.794a.994.994 0 0 1 1.203.728l1.502 6.121a.994.994 0 1 1-1.931.474l-1.503-6.12a.994.994 0 0 1 .729-1.204m43.21 0a.994.994 0 0 1 1.203.728l1.503 6.121a.995.995 0 0 1-1.932.474l-1.502-6.12a.994.994 0 0 1 .728-1.204M32.405 79.88a.994.994 0 0 1 1.203.729l.751 3.06c.255 1.037.76 2.028 1.45 2.906a.995.995 0 0 1-1.563 1.23c-.846-1.076-1.489-2.32-1.818-3.661l-.751-3.06a.994.994 0 0 1 .728-1.204m43.21 0a.994.994 0 0 1 1.204.729l.751 3.06c.313 1.276.31 2.513.015 3.63a.994.994 0 0 1-1.923-.51c.203-.765.218-1.662-.024-2.645l-.751-3.06a.994.994 0 0 1 .729-1.204m-38.064 9.64a.994.994 0 0 1 1.33-.457c1.01.492 2.08.762 3.124.762h3.06a.994.994 0 1 1 0 1.989h-3.06c-1.385 0-2.751-.357-3.996-.964a.994.994 0 0 1-.458-1.33m37.714-.011a.994.994 0 0 1-.335 1.365c-1.006.61-2.214.94-3.543.94h-3.06a.994.994 0 0 1 0-1.99h3.06c.998 0 1.843-.245 2.513-.65a.994.994 0 0 1 1.365.334m-27.521 1.31c0-.549.445-.994.995-.994h6.12a.994.994 0 1 1 0 1.989h-6.12a.995.995 0 0 1-.995-.995m9.794 0c0-.549.445-.994.994-.994h6.121a.994.994 0 0 1 0 1.989h-6.12a.995.995 0 0 1-.995-.995" clip-rule="evenodd"/><path fill="#293A6E" d="M35.192 58.169c-.305-1.242.453-2.248 1.695-2.248h1.871c.746 0 1.203-.605 1.018-1.35-.184-.746-.934-1.351-1.679-1.351h-1.871c-2.733 0-4.4 2.216-3.731 4.945l.46 1.871c.185.745.934 1.35 1.68 1.35s1.202-.605 1.018-1.35l-.461-1.871zM56.833 53.22c-.745 0-1.202.605-1.018 1.35.185.745.934 1.35 1.68 1.35h1.87c1.243 0 2.497 1.006 2.802 2.249l.46 1.871c.185.745.934 1.35 1.68 1.35s1.202-.605 1.018-1.35l-.461-1.871c-.67-2.733-3.43-4.945-6.16-4.945h-1.87zM40.25 78.772c-.183-.745-.933-1.35-1.678-1.35s-1.202.605-1.018 1.35l.46 1.872c.67 2.733 3.431 4.945 6.16 4.945h1.871c.746 0 1.203-.605 1.018-1.35-.184-.746-.933-1.351-1.679-1.351h-1.871c-1.242 0-2.497-1.006-2.801-2.248l-.461-1.872zM69.924 78.772c-.184-.745-.933-1.35-1.679-1.35-.745 0-1.202.605-1.018 1.35l.461 1.872c.305 1.242-.453 2.248-1.695 2.248h-1.871c-.746 0-1.203.605-1.018 1.35.184.746.933 1.35 1.679 1.35h1.871c2.733 0 4.4-2.215 3.731-4.944l-.46-1.872z"/><path fill="#293A6E" fill-rule="evenodd" d="M42.262 70.005a15.4 15.4 0 0 0 2.957 2.152c-.32.44-.61.901-.842 1.366-.48.946-.817 2.048-.717 3.166.108 1.21.754 2.46 2.12 3.334 1.395.89 2.68.717 3.606.176.886-.52 1.591-1.438 2.12-2.452 1.046-1.996 1.647-4.813 1.37-7.213.334-.1.626-.173.87-.209.024.449.1.886.24 1.295.181.524.514 1.13 1.11 1.587.642.488 1.331.617 1.904.536.537-.072 1.002-.32 1.395-.629.344-.272.721-.689 1.054-1.062l.132-.144c.4-.445.781-.845 1.146-1.126a2 2 0 0 1 .417-.256c.028.04.056.088.092.152q.529.92 1.014 1.515c.316.388.701.773 1.174 1.038.541.3 1.066.364 1.507.26.373-.088.629-.284.75-.377.52-.413.484-1.25-.081-1.867-.417-.457-.998-.67-1.487-.585-.14-.193-.312-.465-.529-.834-.585-1.01-1.482-1.887-2.68-2.023-.97-.109-1.72.344-2.197.709-.525.4-1.01.926-1.402 1.358l-.12.133a14 14 0 0 1-.674.717v-.14c.005-.673-.188-1.62-1.074-2.325-.789-.633-1.674-.685-2.256-.653a6 6 0 0 0-.861.12c-.409-1.462-1.022-2.937-1.924-4.287-1.502-2.252-3.754-4.08-6.892-4.913-2.589-.69-4.593-.409-5.506 1.07-.854 1.378-.461 3.362.332 5.121.822 1.815 2.22 3.727 3.924 5.29zm6.063 3.31c-.037-.008-.069-.012-.105-.02a8.6 8.6 0 0 0-1.29 1.851c-.397.785-.549 1.467-.5 1.956.035.396.171.589.456.769.104.068.276.164.685-.076.445-.26.946-.834 1.399-1.7.661-1.266 1.094-2.905 1.182-4.42-.172.1-.349.217-.525.341q.025.12.032.24c.032.73-.565 1.203-1.33 1.055zm-4.428-5.05c.957.882 2 1.583 3.045 2.016.613-.533 1.258-.97 1.888-1.27q.512-.24 1.005-.457c-.332-1.479-.87-2.881-1.663-4.071-1.022-1.531-2.504-2.765-4.768-3.367-2.068-.548-2.717-.104-2.934.24-.276.446-.276 1.391.369 2.806.617 1.358 1.703 2.865 3.053 4.1zm9.837 1.531v-.008zm7.306.597s.004 0 .016.016q-.017-.014-.016-.016m-4.404 1.03v-.004z" clip-rule="evenodd"/><path fill="#F1AA90" d="M137.603 132.805c8.53-19.313 25.912-22.456 33.537-21.613-8.562-5.276-25.756-13.88-41.938-22.835-15.199-4.06-27.737 20.913-32.264 33.768 12.135 7.303 17.631 8.32 40.665 10.68"/><path fill="#F1AA90" d="M136.594 132.134c5.856 3.534 17.208 18.891 22.153 26.127l3.238 4.815 19.143-41.899-9.79-10.059-12.759-3.091c-9.768 6.563-27.84 20.572-21.985 24.107M88.683 108.871c-.779-4.24-.215-12.289.164-15.783 1.831-4.686 10.773-.956 9.811 1.937-.769 2.314-.493 12.08-.259 16.674-2.914.824-8.938 1.411-9.716-2.828"/><path fill="#000" d="M88.683 108.871c-.779-4.24-.215-12.289.164-15.783 1.831-4.686 10.773-.956 9.811 1.937-.769 2.314-.493 12.08-.259 16.674-2.914.824-8.938 1.411-9.716-2.828" opacity=".5" style="mix-blend-mode:overlay"/><path fill="#F1AA90" d="M107.982 114.357c-4.305.221-12.212-1.383-15.628-2.212-4.409-2.424.45-10.805 3.195-9.477 2.194 1.063 11.914 2.057 16.499 2.422.438 2.996.239 9.045-4.066 9.267"/><path fill="#000" d="M107.982 114.357c-4.305.221-12.212-1.383-15.628-2.212-4.409-2.424.45-10.805 3.195-9.477 2.194 1.063 11.914 2.057 16.499 2.422.438 2.996.239 9.045-4.066 9.267" opacity=".5" style="mix-blend-mode:overlay"/><path fill="#F1AA90" d="M97.62 110.575c-.859-3.975-.296-11.31.092-14.481 1.942-4.115 11.566.236 10.549 2.794-.814 2.046-.466 11.045-.19 15.289-3.126.456-9.593.372-10.451-3.602"/><path fill="#000" d="M97.62 110.575c-.859-3.975-.296-11.31.092-14.481 1.942-4.115 11.566.236 10.549 2.794-.814 2.046-.466 11.045-.19 15.289-3.126.456-9.593.372-10.451-3.602" opacity=".75" style="mix-blend-mode:overlay"/><path fill="#F1AA90" d="m118.99 82.384 11.015 6.432c-5.332-1.44-16.95-4.96-20.756-7.516 4.202-1.663 8.245.03 9.741 1.084"/><mask id="FkjgSF2caa_c" width="38" height="23" x="93" y="79" maskUnits="userSpaceOnUse" style="mask-type:alpha"><path fill="#FFC7B6" d="m105.673 79.424 25.175 9.89-17.069 12.162c-4.26-3.244-14.286-10.766-20.31-14.9 5.867-6.8 10.581-7.601 12.204-7.152"/></mask><g mask="url(#FkjgSF2caa_c)"><path fill="#F1AA90" d="m105.672 79.424 25.685 9.746-17.578 12.306c-4.26-3.245-14.286-10.767-20.31-14.9 5.867-6.8 10.58-7.602 12.203-7.152"/><path fill="#000" d="M115.712 88.69 96.17 83.897l-1.619-.72 2.015-.167 22.224 4.861c.252.055.547.15.582.406a.47.47 0 0 1-.309.51l-.054.019zM117.849 84.742l-17.091-7.676-1.438-1.037 2.006.248 20.765 9.293c.236.106.505.259.487.516a.47.47 0 0 1-.406.436l-.056.008z" opacity=".5" style="mix-blend-mode:overlay"/></g><path fill="#F1AA90" d="M66.716 84.756c-4.492-2.724-2.845-5.628-1.94-6.46.997-.916 7.086.197 13.415 1.657 4.049.935 8.274 1.074 17.681 3.69l10.079 2.151 15.367 3.534q.052-.044.01.002l-.01-.002c-.599.502-10.409 9.804-18.769 20.086 2.688-5.695 3.832-6.001-1.52-10.677-5.552-5.525-29.524-11.078-34.313-13.981"/><path fill="#F1AA90" d="M81.977 108.342c5.336 4.715 8.444 9.183 15.617 14.129 4.368.797 11.514 3.637 16.644-10.104 3.077-6.283-5.89-11.721-7.972-8.978-7.473 9.846-18.393-4.364-24.29-4.699s-5.336 4.937 0 9.652"/><path fill="#293A6E" d="M9.056 95.665c-.212-.582.118-1.054.738-1.054h76.02c.619 0 1.293.472 1.504 1.054s-.118 1.054-.737 1.054H10.56c-.62 0-1.293-.472-1.505-1.054M22.463 77.971c-.69-.529-1.578-.529-1.984 0l-3.307 4.31-5.618-4.31c-.689-.529-1.577-.529-1.983 0s-.176 1.387.513 1.916l5.618 4.31-3.307 4.31c-.406.53-.176 1.387.513 1.916s1.577.529 1.983 0l3.307-4.31 5.618 4.31c.689.529 1.577.529 1.983 0 .406-.53.176-1.387-.514-1.916l-5.617-4.31 3.308-4.31c.406-.53.176-1.387-.514-1.916"/></g><mask id="FkjgSF2caa_d" width="44" height="30" x="102" y="42" maskUnits="userSpaceOnUse" style="mask-type:alpha"><path fill="#fff" d="M124.506 44.299c-9.499-6.811-24.269 2.564-21.72 15.106 2.033 9.997 15.18 12.133 21.72 11.959 6.382.174 19.21-1.962 21.193-11.96 2.487-12.541-11.924-21.916-21.193-15.105"/></mask><g mask="url(#FkjgSF2caa_d)"><path fill="#F8F8F8" d="M124.506 44.299c-9.499-6.811-24.269 2.564-21.72 15.106 2.033 9.997 15.18 12.133 21.72 11.959 6.382.174 19.21-1.962 21.193-11.96 2.487-12.541-11.924-21.916-21.193-15.105"/><path fill="#AADBFF" fill-rule="evenodd" d="M129.104 42.811c-1.41-.109-2.872.521-4.202 2.208l-.49.621-.497-.614c-1.364-1.688-2.869-2.325-4.327-2.215-1.478.112-2.997.998-4.341 2.553-2.69 3.114-4.551 8.778-3.778 15.334.606 5.146 2.853 8.222 5.421 10.012 2.596 1.81 5.543 2.319 7.489 2.23l.027-.002.027.001c1.893.09 4.763-.417 7.292-2.224 2.5-1.787 4.694-4.862 5.287-10.014.755-6.564-1.064-12.232-3.688-15.344-1.311-1.554-2.788-2.435-4.22-2.546m5.181 1.438c2.952 3.5 4.868 9.674 4.065 16.662-.65 5.65-3.094 9.13-5.922 11.151-2.787 1.992-5.918 2.55-8.022 2.456-2.151.093-5.355-.462-8.208-2.451-2.892-2.017-5.4-5.497-6.066-11.153-.825-6.996 1.142-13.173 4.166-16.672 1.513-1.751 3.323-2.865 5.204-3.006 1.708-.13 3.403.55 4.898 2.136 1.459-1.583 3.117-2.266 4.793-2.136 1.845.142 3.615 1.26 5.092 3.013" clip-rule="evenodd"/><path fill="#AADBFF" fill-rule="evenodd" d="M124.021 74.249V45.972h1.349v28.277z" clip-rule="evenodd"/></g><ellipse cx="124.288" cy="47.131" fill="#AADBFF" rx="15.046" ry="7.156"/><path fill="#4793CC" d="M115.704 39.365c-1.207-6.22-4.366-19.341-7.359-22.193l-.023-.022.023.022c3.963 3.747 8.25 10.897 9.9 14.009.444-6.772 1.065-21.134 0-24.408 2.13 3.39 4.195 15.833 4.961 21.63L130.83 3.85l-3.873 28.208c3.106-5.895 9.778-17.86 11.617-18.562-3.775 8.77-6.091 20.9-6.776 25.87z"/><path fill="#82C2F1" d="M99.124 42.499c8.615-1.579 12.141 3.476 12.827 6.201 5.02 4.762 16.785 4.303 21.055 0 4.163-2.03 11.576-3.758 14.763-4.37-2.864-.61-9.608-1.24-13.674 1.128 1.452-3.242 6.535-11.98 13.674-18.744-2.662 0-13.795 6.764-18.635 10.711-.193-2.368 1.533-14.986 2.42-20.999l-6.776 15.362-1.331-13.812-1.21 13.812c-1.775-4.839-6.171-14.037-9.559-12.12 4.719 1.55 4.114 16.488 2.662 13.81s-12.464-7.892-10.165-6.764c2.299 1.127 7.381 11.274 5.203 8.596s-14.036-2.677-8.954-1.832c4.066.677 7.664 5.544 8.954 7.893-3.549-1.034-10.77-2.255-11.254 1.128"/><path fill="#AADBFF" d="M113.521 41.675c1.2 3.514 1.5 7.502 1.5 9.001 7.267 3.169 13.535 1.104 15.641-.11.107-1.428.814-5.335 2.786-9.534-2.143.857-5.178 4.285-6.428 5.892V35.032l-3.429 13.178-3.642-13.178V48.21c-.643-2.179-2.829-6.535-6.428-6.535"/></g><defs><clipPath id="FkjgSF2caa_a"><path fill="#fff" d="M0 0h150v150H0z"/></clipPath><clipPath id="FkjgSF2caa_b"><rect width="125" height="125" x="12.5" y="12.5" fill="#fff" rx="62.5"/></clipPath></defs></svg>