<svg xmlns="http://www.w3.org/2000/svg" width="16" height="16" fill="none" class="persona-icon" viewBox="0 0 16 16"><path fill="currentColor" fill-rule="evenodd" d="M8.394 1.15a.527.527 0 0 0-.788 0L6.672 2.2 5.298 1.9a.527.527 0 0 0-.638.463l-.138 1.4-1.288.564a.527.527 0 0 0-.244.749l.711 1.213-.71 1.214a.527.527 0 0 0 .243.75l1.288.563.138 1.4q.013.121.076.225V14.5a.527.527 0 0 0 .843.422L8 13.106l2.42 1.816a.527.527 0 0 0 .844-.422v-4.06a.5.5 0 0 0 .076-.224l.138-1.4 1.288-.564a.527.527 0 0 0 .244-.75l-.711-1.213.71-1.213a.527.527 0 0 0-.243-.75l-1.288-.563-.138-1.4a.527.527 0 0 0-.638-.463L9.328 2.2zM5.79 13.446V10.57l.882-.193.934 1.05a.527.527 0 0 0 .788 0l.934-1.05.882.193v2.875l-1.894-1.42a.53.53 0 0 0-.632 0z" clip-rule="evenodd"/></svg>