<svg xmlns="http://www.w3.org/2000/svg" width="16" height="16" fill="none" class="persona-icon" viewBox="0 0 16 16"><path fill="currentColor" fill-rule="evenodd" d="M8.394 1.15 9.328 2.2l1.374-.301a.527.527 0 0 1 .638.463l.138 1.4 1.288.564a.527.527 0 0 1 .244.749l-.711 1.213.71 1.214a.527.527 0 0 1-.243.75l-1.288.563-.138 1.4a.5.5 0 0 1-.076.225V14.5a.527.527 0 0 1-.843.422L8 13.106l-2.42 1.816a.527.527 0 0 1-.844-.422v-4.06a.5.5 0 0 1-.076-.224l-.138-1.4-1.288-.564a.527.527 0 0 1-.244-.75l.711-1.213-.71-1.213a.527.527 0 0 1 .243-.75l1.288-.563.138-1.4a.53.53 0 0 1 .215-.375c.122-.088.276-.12.423-.088l1.374.301.934-1.051a.527.527 0 0 1 .788 0M5.79 13.446l1.894-1.42a.53.53 0 0 1 .632 0l1.894 1.42V10.57l-.882-.193-.934 1.05a.527.527 0 0 1-.788 0l-.934-1.05-.882.193z" clip-rule="evenodd"/></svg>