<svg xmlns="http://www.w3.org/2000/svg" width="24" height="24" fill="none" class="persona-icon" viewBox="0 0 24 24"><path fill="currentColor" fill-rule="evenodd" d="M12.56 2.252a.75.75 0 0 0-1.12 0l-1.33 1.496-1.956-.429a.75.75 0 0 0-.907.66L7.051 5.97l-1.834.802a.75.75 0 0 0-.346 1.067l1.012 1.727-1.012 1.727a.75.75 0 0 0 .346 1.066l1.834.802.196 1.992a.75.75 0 0 0 .108.32v5.777a.75.75 0 0 0 1.2.6L12 19.266l3.445 2.584a.75.75 0 0 0 1.2-.6v-5.777a.75.75 0 0 0 .108-.32l.196-1.992 1.834-.802a.75.75 0 0 0 .346-1.066l-1.012-1.727 1.012-1.727a.75.75 0 0 0-.346-1.067l-1.834-.802-.197-1.992a.75.75 0 0 0-.906-.659l-1.956.429zM8.856 19.75v-4.091l1.255-.275 1.33 1.496a.75.75 0 0 0 1.12 0l1.33-1.496 1.255.275v4.091l-2.695-2.021a.75.75 0 0 0-.9 0z" clip-rule="evenodd"/></svg>