<svg xmlns="http://www.w3.org/2000/svg" width="24" height="24" fill="none" class="persona-icon" viewBox="0 0 24 24"><path fill="currentColor" fill-rule="evenodd" d="m12.56 2.252 1.33 1.496 1.955-.429a.75.75 0 0 1 .908.66l.196 1.991 1.834.802a.75.75 0 0 1 .346 1.067l-1.012 1.727 1.012 1.727a.75.75 0 0 1-.346 1.066l-1.834.802-.197 1.992a.75.75 0 0 1-.107.32v5.777a.75.75 0 0 1-1.2.6L12 19.266 8.555 21.85a.75.75 0 0 1-1.2-.6v-5.777a.75.75 0 0 1-.108-.32l-.196-1.992-1.834-.802a.75.75 0 0 1-.346-1.066l1.012-1.727L4.87 7.839a.75.75 0 0 1 .346-1.067l1.834-.802.196-1.992a.75.75 0 0 1 .907-.659l1.956.429 1.33-1.496a.75.75 0 0 1 1.12 0M8.856 19.75l2.695-2.021a.75.75 0 0 1 .9 0l2.695 2.021v-4.091l-1.255-.275-1.33 1.496a.75.75 0 0 1-1.12 0l-1.33-1.496-1.255.275z" clip-rule="evenodd"/></svg>