<svg xmlns="http://www.w3.org/2000/svg" width="32" height="32" fill="none" class="persona-icon" viewBox="0 0 32 32"><path fill="currentColor" fill-rule="evenodd" d="M16.747 2.336a1 1 0 0 0-1.495 0l-1.89 2.126-2.778-.61a1 1 0 0 0-1.21.88l-.279 2.83-2.606 1.14a1 1 0 0 0-.462 1.422l1.438 2.455-1.438 2.454a1 1 0 0 0 .462 1.422l2.606 1.14.28 2.831a1 1 0 0 0 .151.44V29a1 1 0 0 0 1.6.8L16 26.145l4.874 3.655a1 1 0 0 0 1.6-.8v-8.134a1 1 0 0 0 .151-.44l.28-2.83 2.606-1.141a1 1 0 0 0 .462-1.422l-1.438-2.454 1.438-2.455a1 1 0 0 0-.462-1.421l-2.606-1.14-.28-2.832a1 1 0 0 0-1.209-.878l-2.779.609zM11.527 27v-5.902l1.836-.402 1.89 2.126a1 1 0 0 0 1.494 0l1.89-2.126 1.837.402V27L16.6 24.095a1 1 0 0 0-1.2 0z" clip-rule="evenodd"/></svg>