<svg xmlns="http://www.w3.org/2000/svg" width="16" height="16" fill="none" class="persona-icon" viewBox="0 0 16 16"><path fill="currentColor" d="M8.5 9.516a.5.5 0 1 0-1 0v1.222a.5.5 0 0 0 1 0z"/><path fill="currentColor" fill-rule="evenodd" d="M7.008 1.95a2.946 2.946 0 0 1 3.916 2.94l-.076 1.376h.039c1.167 0 2.114.946 2.114 2.113v3.495a2.114 2.114 0 0 1-2.114 2.114H5.114a2.114 2.114 0 0 1-2.113-2.114V8.379c0-1.167.946-2.113 2.113-2.113h4.733l.078-1.432a1.945 1.945 0 0 0-3.883-.213.5.5 0 0 1-.998-.054A2.94 2.94 0 0 1 7.008 1.95M5.114 7.266C4.5 7.265 4 7.764 4 8.378v3.495c0 .615.5 1.114 1.114 1.114h5.773c.615 0 1.114-.499 1.114-1.114V8.379c0-.615-.5-1.113-1.114-1.113z" clip-rule="evenodd"/></svg>