<svg xmlns="http://www.w3.org/2000/svg" width="24" height="24" fill="none" class="persona-icon" viewBox="0 0 24 24"><path fill="currentColor" d="M12.75 14.462v1.969a.75.75 0 0 1-1.5 0v-1.97a.75.75 0 0 1 1.5 0"/><path fill="currentColor" fill-rule="evenodd" d="M10.419 2.325a4.69 4.69 0 0 1 6.235 4.68l-.125 2.276h.121c1.85 0 3.35 1.5 3.35 3.35v5.63c0 1.85-1.5 3.35-3.35 3.35h-9.3A3.35 3.35 0 0 1 4 18.261v-5.63c0-1.85 1.5-3.35 3.35-3.35h7.677l.13-2.358a3.189 3.189 0 0 0-6.368-.35.75.75 0 0 1-1.497-.082 4.69 4.69 0 0 1 3.127-4.166M7.35 10.781a1.85 1.85 0 0 0-1.85 1.85v5.63a1.85 1.85 0 0 0 1.85 1.85h9.3a1.85 1.85 0 0 0 1.85-1.85v-5.63a1.85 1.85 0 0 0-1.85-1.85z" clip-rule="evenodd"/></svg>