<svg xmlns="http://www.w3.org/2000/svg" width="300" height="300" fill="none" class="persona-ilustration" viewBox="0 0 300 300"><g clip-path="url(#k3kBlpsLdeMKwVFWIDDB6RT2tkaxOvO6URURAyCfv-o_a)"><g clip-path="url(#k3kBlpsLdeMKwVFWIDDB6RT2tkaxOvO6URURAyCfv-o_b)"><rect width="250" height="250" x="25.281" y="25" fill="#D3EDFF" rx="125"/><path fill="#A4A1E0" d="M169.952 223.602s-21.96 40.439-19.447 65.211 19.334 28.28 19.334 28.28 22.603-36.649 22.161-56.027c-.45-19.388-12.78-52.882-12.78-52.882z"/><path fill="#FFC7B6" d="M100.008 192.862c11.9 7.66 63.54 94.8 63.54 94.8l-43.32-3.04-27.76-38.99z"/><mask id="k3kBlpsLdeMKwVFWIDDB6RT2tkaxOvO6URURAyCfv-o_c" width="51" height="83" x="92" y="192" maskUnits="userSpaceOnUse" style="mask-type:alpha"><path fill="#000" d="M100.008 192.863c11.9 7.66 38.93 49.08 42.23 59.82-11.94-2.1-30.35 13.76-32.99 21.93-4.86-3.82-16.78-28.98-16.78-28.98z"/></mask><g mask="url(#k3kBlpsLdeMKwVFWIDDB6RT2tkaxOvO6URURAyCfv-o_c)"><path fill="#8FC7B8" d="M100.008 192.863c11.9 7.66 38.93 49.08 42.23 59.82-11.94-2.1-30.35 13.76-32.99 21.93-4.86-3.82-16.78-28.98-16.78-28.98z"/><path fill="#498F79" d="m98.568 215.153 24.06 55.14-26.1 10.98-7.15-42.77"/></g><mask id="k3kBlpsLdeMKwVFWIDDB6RT2tkaxOvO6URURAyCfv-o_d" width="119" height="110" x="-13" y="169" maskUnits="userSpaceOnUse" style="mask-type:alpha"><path fill="#000" d="M-7.542 169.046s66.37 2.9 107.69 23.88c10.88 27.9 3.23 81.02 3.23 81.02s-42.96 16.33-74.99-11.43-49.66-76.51-35.94-93.46z"/></mask><g mask="url(#k3kBlpsLdeMKwVFWIDDB6RT2tkaxOvO6URURAyCfv-o_d)"><path fill="#8FC7B8" d="M-7.54 169.043s66.37 2.9 107.689 23.88c10.88 27.9 3.23 81.02 3.23 81.02s-42.96 16.33-74.99-11.43-49.66-76.51-35.94-93.46z"/><path fill="#498F79" d="M22.118 153.545c8.72-9.44 28.02-5.78 43.11 8.16s21.16 43.56 12.44 52.99c-8.72 9.44-34.03-4.54-46.39-20.17-12.75-16.11-17.87-31.55-9.15-40.98z"/><path fill="#F29B7C" d="M28.718 154.545c5.93-6.42 19.05-3.93 29.31 5.55s14.38 29.61 8.46 36.03c-5.93 6.42-23.13-3.09-31.54-13.71-8.67-10.95-12.15-21.45-6.22-27.86z"/><path stroke="#498F79" stroke-miterlimit="10" stroke-width="2" d="M24.198 150.915c7.16-7.75 23.02-4.75 35.41 6.7s17.38 35.78 10.22 43.53-27.95-3.73-38.11-16.57-14.68-25.91-7.52-33.66Z"/></g><path stroke="#498F79" stroke-linecap="round" stroke-miterlimit="10" stroke-width="2" d="M103.388 273.942s6.53-33.68-1.12-54.59"/><mask id="k3kBlpsLdeMKwVFWIDDB6RT2tkaxOvO6URURAyCfv-o_e" width="136" height="139" x="168" y="173" maskUnits="userSpaceOnUse" style="mask-type:alpha"><path fill="#897ECD" d="M260.735 174.455s15.663-4.579 32.474 12.221 8.694 39.563.586 56.285-42.356 68.137-42.356 68.137-54.503 2.962-77.413-13.401c-7.019-5.006 3.456-12.885-1.233-29.129-13.68-47.393 8.35-75.103 42.497-85.26 8.719-2.593 45.445-8.853 45.445-8.853"/></mask><g mask="url(#k3kBlpsLdeMKwVFWIDDB6RT2tkaxOvO6URURAyCfv-o_e)"><path fill="#A4A1E0" d="M260.735 174.455s15.663-4.579 32.474 12.221 8.694 39.563.586 56.285-42.356 68.137-42.356 68.137-54.503 2.962-77.413-13.401c-7.019-5.006 3.456-12.885-1.233-29.129-13.68-47.393 8.35-75.103 42.497-85.26 8.719-2.593 45.445-8.853 45.445-8.853"/><path fill="#FCECEF" d="M223.463 194.946s28.367-20.36 37.988-21.071c8.765 1.665 6.993 2.027 8.766 4.528 0 5.815-3.876 10.5-20.695 11.049 2.02 23.662-28.955 16.697-26.056 5.481z"/><path fill="#FCECEF" d="m222.863 181.029.61 13.923s-16.729 14.261-12.652-.954c1.509-5.638 7.586-6.029 7.586-6.029l-1.489-6.941z"/><path fill="#FCECEF" d="M223.526 190.123c-11.184 22.615-13.886 42.059-8.933 41.148 4.953-.912 2.919-25.8 14.468-39.441-5.709 3.856-5.523-1.703-5.523-1.703s-.01-.008-.012-.004"/></g><path fill="#5141BA" d="m176.762 247.673-15.375 48.297c8.193 0 22.587-10.664 18.074-22.913s-4.579-16.52-2.699-25.384" opacity=".5"/></g><path fill="#F29B7C" d="M29.478 125.762c1.697 22.292 1.09 47.466.25 47.812l38.93 9.458c-3.054-21.181-2.99-32.757.85-53.15z"/><path fill="#FFC7B6" d="M20.6 97.148s.29 5.25.71 14.48c.54 11.77 6.25-2.89 8.55 16.58s-.89 15.42 15.43 29.53c10.09 6.23 21.16 13.62 29.6 14.24 2.01.15 3.87-.09 5.53-.81 10.88-4.73 15.4-9.55 15.9-15.81.98-12.27 2.62-40.16 2.18-50.21-.98-22.34-9.27-25.1-17.34-29.98s-55.2-11.61-60.55 22z"/><path fill="#F29B7C" d="M21.502 108.899s4.56.35 5.48 2.75l.93 2.4-6.41-3.62z"/><path fill="#422A24" d="M21.562 118.27s-.71-8.83 2.89-8.26 7.45 3.33 7.89 8.37c.22 2.57.37 4.31.45 5.39.07.88.73 1.6 1.6 1.75l1.18.21c.76.14 1.44-.49 1.37-1.26-.49-5.48-2.11-20.66-1.62-21.15.58-.58 5.55-4.39 5.55-4.39s.49-.85-.05-6.32c31.34-21.43 56.49 2.29 56.49 2.29s-1.27-9.66-7.31-17.29-21.81-15.02-38.38-11.53c-15.54 3.27-27.63 12.83-31.8 27.07s-.79 23.43.22 26.16 1.53-1.06 1.53-1.06z"/><path fill="#422A24" d="M61.911 105.96s6.03-2.51 10.61-1.67c3.17.58 7.09 3.23 7.09 3.23s1.15.21 0-2.85-8.48-3.19-8.48-3.19-4.34 0-8.21 2.03c-1.61.85-2.03 2.51-2.03 2.51s.07.68 1.02-.07z"/><path fill="#411917" d="M73.793 119.051c1.235-.078 2.128-1.839 1.995-3.934-.133-2.094-1.241-3.729-2.476-3.65-1.234.078-2.128 1.839-1.995 3.934.133 2.094 1.242 3.729 2.476 3.65"/><path stroke="#411917" stroke-linecap="round" stroke-miterlimit="10" stroke-width="2" d="M78.64 114.469s-1.76-6.3-15.32-2.91"/><path fill="#F29B7C" d="M93.791 137.81s-1.54-2.92-2.24-3.73-2.51-1.16-3.7-.88c-2.93.69-7.37 1.27-4.53 4.65 3.1 3.69 9.44 3.15 10.46-.03z"/><path stroke="#411917" stroke-linecap="round" stroke-linejoin="round" stroke-width="2" d="M84.14 116.62s3.96 9.84 7.39 15.03c.67 1.01.69 2.31.09 3.36-.84 1.47-2.15 3.34-3.55 3.89"/><path fill="#FFC7B6" d="M27.91 114.039s-11.16-9.6-12.69-.27c-1.53 9.34 4.48 26.46 9.47 22.84s5.17-8.4 5.17-8.4z"/><path stroke="#F29B7C" stroke-linecap="round" stroke-linejoin="round" stroke-width="2" d="M26.53 126.219c-4.43 14.75-13.19-11.87-3.94-10.96"/><path fill="#F29B7C" d="M19.261 125.078s.61 13.7 0-7.32c-.14-4.92 4.23-3.27 3.94-2.19-3.2 11.79-.68 13.89-.68 13.89"/><path stroke="#A36654" stroke-linecap="round" stroke-linejoin="round" stroke-width="2" d="M24.545 122.959s-.34-3.898-3.453-3.491M24.292 122.976s-3.482-1.786-4.793 1.067"/><path stroke="#A36654" stroke-linecap="round" stroke-miterlimit="10" stroke-width="2" d="M68.598 170.612c-19.891-7.096-36.418-24.991-36.418-24.991"/><path fill="#422A24" d="M98.54 112.76s-2.28-2.78-6.9-3.27c-3.21-.34-3.2-.26-3.2-.26s-1.49-.4.8-2.73c.54-.55 3.05-.11 4.26.26 1.56.48 3.64 1.24 5.08 3.6.23.39.2.63.2.63s.15 1.64-.23 1.76z"/><path fill="#411917" d="M96.994 120.26c.133-2.095-.76-3.856-1.995-3.935-1.234-.078-2.343 1.557-2.476 3.651-.132 2.094.76 3.856 1.995 3.934s2.344-1.556 2.476-3.65"/><path stroke="#411917" stroke-linecap="round" stroke-miterlimit="10" stroke-width="2" d="M89.24 115.95s2.57-4.18 8.72 1.67"/><mask id="k3kBlpsLdeMKwVFWIDDB6RT2tkaxOvO6URURAyCfv-o_f" width="22" height="12" x="70" y="143" maskUnits="userSpaceOnUse" style="mask-type:alpha"><path fill="#411917" d="m91.208 145.201-20.7-2.184c.51 2.621-.338 9.539 12.39 10.943 6.339.699 9.433-5.691 8.31-8.759"/></mask><g mask="url(#k3kBlpsLdeMKwVFWIDDB6RT2tkaxOvO6URURAyCfv-o_f)"><path fill="#411917" d="m91.208 145.201-20.7-2.184c.51 2.621-.338 9.539 12.39 10.943 6.339.699 9.433-5.691 8.31-8.759"/><path fill="#F8F8F8" d="M92.47 146.728c-7.313 1.574-19.946-1.24-23.286-1.896l-.61-2.72 24.621.819c.384-.115.52 1.343-.725 3.797"/><path fill="#EA4F4A" d="M88.287 152.949c0 1.672-3.404 3.027-7.604 3.027s-7.604-1.355-7.604-3.027 3.404-3.028 7.604-3.028 7.604 1.356 7.604 3.028"/></g><path fill="#212121" d="M254.48 106.853s11.675-26.341 29.307-14.6c33.958 22.607-1.013 48.409-12.269 64.901-11.662 17.081-6.885 16.983-6.885 16.983l-17.534 2.488-3.029-67.718z" style="mix-blend-mode:darken"/><path fill="#E79EA1" d="M265.541 88.373s14.977 9.243 2.546 34.303c2.883 5.859 4.047 1.176 4.047 1.176s13.154-14.485 3.354-29.671c-8.585-13.292-9.934-5.811-9.934-5.811z"/><mask id="k3kBlpsLdeMKwVFWIDDB6RT2tkaxOvO6URURAyCfv-o_g" width="42" height="66" x="215" y="128" maskUnits="userSpaceOnUse" style="mask-type:alpha"><path fill="#000" d="M215.31 158.673s8.979 18.139 7.416 30.553c-1.531 12.177 33.64-6.669 33.64-6.669s2.641-14.758-2.866-44.32c-5.507-29.561-38.199 20.433-38.199 20.433z"/></mask><g mask="url(#k3kBlpsLdeMKwVFWIDDB6RT2tkaxOvO6URURAyCfv-o_g)"><path fill="#FCDCD2" d="M215.31 158.673s8.978 18.139 7.415 30.553c-1.15 9.154 18.441.775 28.238-3.948 3.444-1.661 5.77-4.921 5.939-8.74.303-6.873.075-19.636-3.402-38.301-5.507-29.561-38.199 20.433-38.199 20.433z"/><path fill="#000" fill-opacity=".5" d="M256.083 142.158s-2.096 29.778-15.567 37.487-30.979.553-30.979.553L248.1 134.77z" style="mix-blend-mode:overlay"/></g><path fill="#FCDCD2" d="M222.281 80.526c-12.92 4.692-27.022 15.974-28.925 44.185-1.317 19.478-4.536 28.133 16.079 46.29 10.119 8.909 36.881-2.825 42.604-18.783 6.663-18.58 21.181-29.101 17.147-45.056-3.352-13.251-24.518-34.772-46.909-26.649z"/><path fill="#411917" d="M233.289 112.678c-4.428-1.418-9.377-3.04-14.045-2.277-2.131.33-2.677-2.836-.558-3.238 5.465-.324 10.411 1.848 15.326 3.906 1.021.502.328 2.042-.728 1.617zM222.462 124.837c1.573.21 3.074-1.32 3.354-3.416s-.768-3.967-2.341-4.177c-1.572-.209-3.074 1.32-3.354 3.417-.279 2.096.769 3.966 2.341 4.176"/><path fill="#411917" fill-rule="evenodd" d="M236.254 119.441a.94.94 0 0 1-.476 1.239l-3.297 1.468a.94.94 0 0 1-1.135-.298l-.001-.001-.001-.001-.011-.014-.051-.066q-.072-.091-.218-.262a12 12 0 0 0-.859-.897c-.753-.712-1.814-1.544-3.085-2.091-1.261-.543-2.71-.799-4.286-.404-1.58.397-3.395 1.474-5.337 3.789a.94.94 0 0 1-1.439-1.206c2.128-2.538 4.263-3.888 6.319-4.404 2.06-.516 3.933-.168 5.485.5 1.542.664 2.785 1.649 3.633 2.452.358.339.651.65.872.899l2.647-1.179a.94.94 0 0 1 1.24.476" clip-rule="evenodd"/><path fill="#411917" d="M193.568 113.007c2.2-2.383 4.517-4.838 7.604-5.961 1.29-.469 3.19-.869 3.552 1.021.156 1.043-.759 1.99-1.808 1.872-.961-.024-2.141.292-3.029.722a28.3 28.3 0 0 0-5.046 3.558c-.793.735-1.974-.392-1.281-1.216zM199.454 124.706c1.159-.067 2.007-1.716 1.892-3.682-.114-1.967-1.146-3.507-2.305-3.44s-2.007 1.716-1.893 3.683 1.146 3.507 2.306 3.439"/><path fill="#411917" fill-rule="evenodd" d="m207.692 121.098-.806.467za.939.939 0 0 1-1.624.941l-.001-.001-.009-.015-.04-.066a11.466 11.466 0 0 0-.838-1.155c-.587-.712-1.399-1.522-2.352-2.047-.934-.516-1.961-.738-3.073-.38-1.139.366-2.528 1.39-4.051 3.717a.938.938 0 1 1-1.571-1.028c1.654-2.527 3.348-3.931 5.048-4.477 1.726-.554 3.292-.172 4.554.524 1.243.685 2.231 1.693 2.893 2.496a13 13 0 0 1 .985 1.36l.056.092.016.026.005.009.002.003z" clip-rule="evenodd"/><path fill="#000" fill-opacity=".5" d="M213.581 139.489s1.673-.888.619-1.691-4.104-1.34-5.53-1.274c-2.594.139-5.192 2.422-3.822 2.942 1.369.519 3.06 1.214 8.733.023" style="mix-blend-mode:overlay"/><path fill="#411917" d="M209.706 125.023s-.792 9.407-2.549 13.802z"/><path fill="#411917" fill-rule="evenodd" d="M209.785 124.088c.516.043.9.497.856 1.014l-.935-.079.935.079-.002.029-.007.082-.029.311a106.112 106.112 0 0 1-.583 4.886c-.418 2.898-1.066 6.45-1.991 8.763a.938.938 0 1 1-1.743-.697c.832-2.081 1.457-5.43 1.875-8.334a101 101 0 0 0 .573-4.794l.028-.301.006-.077.002-.025" clip-rule="evenodd"/><mask id="k3kBlpsLdeMKwVFWIDDB6RT2tkaxOvO6URURAyCfv-o_h" width="19" height="10" x="208" y="147" maskUnits="userSpaceOnUse" style="mask-type:alpha"><path fill="#411917" d="m208.661 149.146 17.428-1.839c-.43 2.207.284 8.031-10.432 9.213-5.336.588-7.941-4.792-6.996-7.374"/></mask><g mask="url(#k3kBlpsLdeMKwVFWIDDB6RT2tkaxOvO6URURAyCfv-o_h)"><path fill="#411917" d="m208.661 149.146 17.428-1.839c-.43 2.207.284 8.031-10.432 9.213-5.336.589-7.941-4.791-6.996-7.374"/><path fill="#F8F8F8" d="M207.599 150.431c6.157 1.325 16.792-1.044 19.605-1.596l.513-2.29-20.729.689c-.323-.097-.438 1.131.611 3.197"/><path fill="#EA4F4A" d="M211.12 155.668c0 1.408 2.866 2.549 6.402 2.549s6.402-1.141 6.402-2.549-2.866-2.548-6.402-2.548-6.402 1.141-6.402 2.548"/></g><path fill="#FCDCD2" d="M259.97 127.553s15.246-3.164 13.876 5.855c-1.365 9.01-13.45 21.306-17.693 15.701-4.244-5.604-2.895-9.93-2.895-9.93z"/><path fill="#000" fill-opacity=".5" d="M264.099 135.29s2.122 1.28-1.64 5.243-5.977.852-5.044-.669c.932-1.521 2.477-5.117 6.684-4.574" style="mix-blend-mode:overlay"/><path fill="#411917" fill-rule="evenodd" d="M268.802 132.008a.94.94 0 0 1-.856 1.015c-4.059.346-6.601 2.219-8.14 3.994q-.338.392-.615.77c1.574-.587 3.745-.93 5.711.385a.939.939 0 0 1-1.044 1.561c-1.279-.856-2.791-.669-4.146-.135a9.8 9.8 0 0 0-2.127 1.177l-.12.091-.027.021-.004.003a.94.94 0 0 1-1.486-1.014l.894.285-.894-.286.001-.001v-.003l.003-.008.008-.023.027-.077q.034-.097.101-.267c.09-.225.227-.54.418-.917a14 14 0 0 1 1.881-2.792c1.801-2.077 4.771-4.24 9.4-4.635a.94.94 0 0 1 1.015.856" clip-rule="evenodd"/><path fill="#212121" d="M215.493 83.327s3.376 10.317 23.988 19.995c13.898 6.529 19.478 23.581 24.771 23.689 5.292.107 6.718.529 6.718.529s6.512-18.114 2.888-28.64c-3.628-10.538-16.063-22.042-26.844-26.294-8.545-3.372-27.514 2.954-31.521 10.721"/><path fill="#212121" d="M218.971 86.484s-11.507 10.732-20.634 18.166c-4.095 3.337-1.362-12.623 5.207-20.114 12.988-14.799 24.245-9.383 26.856-9.025 5.34.72-8.903 7.423-11.429 10.973"/><path fill="#54D9FF" d="M114.351 158.475c0-13.159 15.961-23.826 35.65-23.826 19.69 0 35.651 10.667 35.651 23.826 0 13.158-15.961 23.825-35.651 23.825-19.689 0-35.65-10.667-35.65-23.825"/><path fill="#54D9FF" d="M200.509 167.234c-6.4 5.489-25.244 11.503-33.645 11.697l5.038-15.642c4.62 1.994 12.787 5.61 28.607 3.945"/><path fill="#FFB26F" d="M185.652 103.003c0 13.158-15.961 23.825-35.651 23.825-19.689 0-35.65-10.667-35.65-23.825s15.961-23.825 35.65-23.825c19.69 0 35.651 10.667 35.651 23.825"/><path fill="#FFB26F" d="M109.395 135.73c8.388-.839 25.751-10.316 31.693-16.258l-14.793-7.158c-1.748 4.719-4.772 13.123-16.9 23.416"/></g><defs><clipPath id="k3kBlpsLdeMKwVFWIDDB6RT2tkaxOvO6URURAyCfv-o_a"><path fill="#fff" d="M0 0h300v300H0z"/></clipPath><clipPath id="k3kBlpsLdeMKwVFWIDDB6RT2tkaxOvO6URURAyCfv-o_b"><rect width="250" height="250" x="25.281" y="25" fill="#fff" rx="125"/></clipPath></defs></svg>