<svg xmlns="http://www.w3.org/2000/svg" width="80" height="80" fill="none" class="persona-ilustration" viewBox="0 0 80 80"><g clip-path="url(#pO7LHFjWez5Hzpe0Ub7OeAqWMTqnnrWXFXf8vwy9bmw_a)"><mask id="pO7LHFjWez5Hzpe0Ub7OeAqWMTqnnrWXFXf8vwy9bmw_b" width="71" height="45" x="5" y="17" maskUnits="userSpaceOnUse" style="mask-type:alpha"><path fill="#F8F8F8" d="M20.578 17.91h39.446l15.28 43.43-70-.25z"/></mask><g mask="url(#pO7LHFjWez5Hzpe0Ub7OeAqWMTqnnrWXFXf8vwy9bmw_b)"><path fill="#FFF9E1" fill-rule="evenodd" d="M60.024 17.91H20.578L13.683 37.4l3.203.9-3.855.943-7.728 21.848 70 .249-3.556-10.11-5.848-.823 5.258-.851-8.134-23.12-3.655-.758 2.905-1.373z" clip-rule="evenodd"/><path fill="#FEEDB4" d="M23.27 53.939c6.098.317 10.669 5.648 11.057 8.537H1.152l6.985-20.049c.928-2.657 5.173-.69 6.338 0 1.164.863 3.207 3.105 2.07 5.174-1.14 2.07-.475 3.45 0 3.88.775.863 3.21 2.275 6.725 2.458M66.405 56.756c-6.099.317-10.67 5.648-11.058 8.536h33.175l-6.985-20.048c-.927-2.657-5.173-.69-6.337 0-1.164.862-3.208 3.105-2.07 5.174s.475 3.449 0 3.88c-.776.862-3.21 2.275-6.725 2.458M20.565 22.88c-.674 1.638-3.41 3.17-4.694 3.732L19 15.779c6.178-.2 18.127-.097 16.49 1.926-2.047 2.527-10.954 1.926-12.157 2.046-1.204.12-1.926 1.083-2.769 3.13M61.823 22.88c.673 1.638 3.41.312 4.694.873l-3.13-7.974c-6.178-.2-18.127-.097-16.49 1.926 2.046 2.527 10.953 1.926 12.157 2.046s1.926 1.083 2.768 3.13M49.595 44.19c.663-1.252 2.532-1.792 3.389-.786.632 1.21 2.825.794 3.116.436.427-.452 2.037-1.172 5.056-.436s1.995 1.534 1.105 1.841c-1.442.215-4.437.94-4.88 2.118-.552 1.473 4.328 2.485 1.105 3.314-3.222.828-3.037-1.565-9.574-1.657-5.229-.074-3.651-1.626-2.21-2.394.86-.245 2.23-1.184 2.893-2.436"/></g><path fill="#F7E891" d="m56.687 29.282-33.08-.032c-.328 0-.561-.159-.508-.35l.2-.773c.043-.185.35-.333.679-.333l32.36.026c.328 0 .63.148.678.339l.196.773c.047.19-.186.35-.52.35zM57.487 32.311l-34.568-.042c-.35 0-.583-.17-.535-.376l.217-.842c.047-.201.37-.366.71-.366l33.784.032c.339 0 .662.164.71.366l.217.842c.053.206-.186.38-.535.376zM58.303 35.674l-36.221-.053c-.366 0-.614-.185-.556-.418l.238-.927c.058-.222.392-.403.747-.403l35.363.048c.36 0 .694.18.752.403l.233.927c.053.227-.19.418-.556.418zM59.637 39.662l-38.773-.058c-.387 0-.657-.19-.599-.434l.25-.959c.057-.233.418-.413.794-.413l37.852.047c.386 0 .746.191.81.419l.26.958c.063.234-.202.435-.589.435zM36.032 23.933H25.048c-.302-.006-.514-.138-.477-.297l.725-2.839c.038-.143.308-.265.588-.265h10.38c.292 0 .52.117.51.27l-.175 2.845c-.011.159-.265.29-.578.29h.01zM54.865 21.782H44.458c-.296 0-.54-.127-.55-.275l-.043-.71c-.01-.143.222-.265.508-.265H54.57c.291 0 .556.117.593.27l.18.71c.042.149-.17.276-.466.276h-.005zM55.453 23.938h-8.04c-.307 0-.566-.138-.588-.297l-.08-.762c-.02-.16.218-.287.515-.287h7.87c.302 0 .577.133.62.292l.196.762c.042.165-.175.292-.482.292h-.011M38.044 43.889l-18.536-.032c-.392 0-.657-.212-.588-.477l.275-1.059c.064-.254.424-.456.805-.456l18.07.032c.382 0 .684.202.684.456l-.016 1.064c0 .265-.323.477-.715.477h.016zM44.574 54.392l18.537-.032c.392 0 .657-.212.588-.476l-.275-1.06c-.064-.254-.424-.455-.805-.455l-18.071.032c-.381 0-.683.2-.683.455l.016 1.065c0 .264.323.476.715.476h-.016z"/></g><defs><clipPath id="pO7LHFjWez5Hzpe0Ub7OeAqWMTqnnrWXFXf8vwy9bmw_a"><path fill="#fff" d="M0 0h80v80H0z"/></clipPath></defs></svg>