<svg xmlns="http://www.w3.org/2000/svg" width="40" height="40" fill="none" class="persona-ilustration" viewBox="0 0 40 40"><g clip-path="url(#fj_a)"><mask id="fk_b" width="36" height="23" x="2" y="8" maskUnits="userSpaceOnUse" style="mask-type:alpha"><path fill="#F8F8F8" d="M10.289 8.955h19.723l7.64 21.714-35-.124z"/></mask><g mask="url(#fk_b)"><path fill="#FFF9E1" fill-rule="evenodd" d="M30.012 8.955H10.289L6.842 18.7l1.601.45-1.927.471-3.864 10.924 35 .124-1.779-5.054-2.924-.412 2.63-.425-4.067-11.56-1.828-.379 1.453-.687z" clip-rule="evenodd"/><path fill="#FEEDB4" d="M11.635 26.97c3.049.158 5.334 2.823 5.528 4.268H.576l3.492-10.025c.464-1.328 2.587-.344 3.17 0 .581.432 1.603 1.553 1.034 2.587-.57 1.035-.237 1.725 0 1.94.388.432 1.606 1.138 3.363 1.23M33.202 28.378c-3.049.158-5.334 2.824-5.528 4.268H44.26l-3.492-10.024c-.464-1.329-2.587-.345-3.17 0-.581.431-1.603 1.552-1.034 2.587.57 1.035.237 1.724 0 1.94-.388.431-1.605 1.137-3.363 1.229M10.283 11.44c-.338.819-1.706 1.585-2.348 1.866L9.5 7.889c3.09-.1 9.064-.048 8.245.963-1.023 1.264-5.477.963-6.078 1.023-.602.06-.963.542-1.384 1.565M30.911 11.44c.337.819 1.705.156 2.347.436L31.694 7.89c-3.09-.1-9.064-.048-8.246.963 1.023 1.264 5.477.963 6.079 1.023s.963.542 1.384 1.565M24.798 22.095c.33-.626 1.265-.896 1.694-.393.316.605 1.412.397 1.558.218.213-.226 1.018-.586 2.528-.218s.997.767.552.92c-.72.108-2.218.47-2.44 1.06-.275.736 2.164 1.242.553 1.656-1.61.415-1.519-.782-4.787-.828-2.614-.037-1.826-.814-1.105-1.197.43-.123 1.115-.592 1.447-1.218"/></g><path fill="#F7E891" d="m28.343 14.64-16.54-.015c-.164 0-.28-.08-.254-.175l.1-.387c.022-.092.176-.167.34-.167l16.18.014c.164 0 .315.074.339.17l.098.386c.023.095-.093.175-.26.175zM28.743 16.155l-17.284-.02c-.175 0-.291-.086-.267-.189l.108-.421c.024-.1.186-.183.355-.183l16.893.016c.169 0 .33.082.354.183l.109.42c.026.104-.093.192-.268.189zM29.151 17.837l-18.11-.027c-.183 0-.307-.092-.278-.209l.119-.463c.03-.111.196-.202.373-.202l17.682.024c.18 0 .347.09.376.202l.116.463c.027.114-.095.21-.278.21zM29.819 19.83l-19.387-.028c-.194 0-.328-.096-.3-.218l.125-.479c.03-.116.21-.206.397-.206l18.926.023c.194 0 .374.096.406.21l.13.479c.031.116-.101.217-.295.217zM18.016 11.966h-5.492c-.151-.003-.257-.069-.239-.148l.363-1.42c.019-.071.154-.132.294-.132h5.19c.146 0 .26.058.255.135l-.088 1.422c-.005.08-.132.146-.288.146h.005zM27.433 10.89h-5.204c-.148 0-.27-.063-.275-.137l-.021-.355c-.006-.071.11-.132.254-.132h5.097c.146 0 .278.058.297.135l.09.355c.021.074-.085.137-.233.137h-.003zM27.727 11.969h-4.02c-.154 0-.284-.07-.294-.149l-.04-.381c-.01-.08.108-.143.257-.143h3.935c.15 0 .289.066.31.146l.098.38c.02.083-.088.147-.241.147h-.005M19.022 21.944l-9.268-.016c-.196 0-.328-.106-.294-.238l.138-.53c.032-.127.212-.228.402-.228l9.036.016c.19 0 .341.1.341.228l-.008.532c0 .133-.161.239-.357.239h.008zM22.287 27.196l9.269-.016c.196 0 .328-.106.293-.239l-.137-.53c-.032-.126-.212-.227-.403-.227l-9.035.016c-.19 0-.342.1-.342.228l.008.532c0 .132.162.238.358.238h-.008z"/></g><defs><clipPath id="fj_a"><path fill="#fff" d="M0 0h40v40H0z"/></clipPath></defs></svg>