<svg xmlns="http://www.w3.org/2000/svg" width="150" height="150" fill="none" class="persona-ilustration" viewBox="0 0 150 150"><g clip-path="url(#EvX0wPUXG7o1PIyRs00OSf6BRTlubCXIjD5IF-oVsoc_a)"><g clip-path="url(#EvX0wPUXG7o1PIyRs00OSf6BRTlubCXIjD5IF-oVsoc_b)"><rect width="125" height="125" x="12.624" y="12.458" fill="#D3EDFF" rx="62.5"/><path fill="#AADBFF" d="M-13.335 43.2h176.671v100.955H-13.335z"/><path fill="#4793CC" d="M-13.125 122.5h176.25V140h-176.25zM66.953 45.278l-.44.92h8.497v-.92z"/><path fill="#4793CC" d="m83.047 45.278.44.92H74.99v-.92z"/><path fill="#82C2F1" d="m51.888 44.427-1.273 2.664h24.598v-2.664z"/><path fill="#82C2F1" d="m98.48 44.427 1.272 2.664H75.154v-2.664zM50.765 56.25l3.125-5.626h42.5l3.125 5.625z"/><path fill="#4793CC" d="m52.604 53.06-1.991-5.972H99.76l-1.991 5.973zM50.786 56.256h48.639v2.241H50.786z"/><path fill="#F8F8F8" d="m65.01 39.927 2.048 6.252h7.946v-6.252z"/><path fill="#F8F8F8" d="m84.995 39.927-2.049 6.252H75v-6.252z"/><path fill="#A4A1E0" d="m56.832 25.515 2.513 19.701c.833 1.188 1.654.495 1.96 0-.5-5.663-1.374-15.233-1.834-19.912-.633.668-2.215.52-2.639.21"/><path fill="#F8F8F8" d="m59.362 23.081.146 2.512c-1.148 1.042-2.25.483-2.662.05-.067-.49-.099-.659-.26-2.395.909-1.588 2.342-.768 2.776-.167"/><path fill="#E4E4E4" d="M58.446 22.869c-.165.331-1.042.373-1.09.08-.093-.567-.114-.97-.227-1.916.413-.61.907-.356 1.106-.101.054.338.107.937.211 1.937"/><path fill="#E4E4E4" fill-rule="evenodd" d="m60.14 27.749-1.165-.596c-.15-.18-.03-.556.285-.556l1.165.595z" clip-rule="evenodd"/><path fill="#F8F8F8" d="m61.182 32.004-.418-5.008a.462.462 0 1 0-.922.08l.45 5.005a.447.447 0 0 0 .89-.077M58.64 40.306l.693 5.194c.817 1.136 2.033.355 2.102-.15-.083-.836-.295-3.151-.527-5.192-.63.531-1.75.37-2.268.148"/><path fill="#A4A1E0" d="M93.724 25.514 91.21 45.216c-.833 1.187-1.654.494-1.96 0 .5-5.663 1.374-15.234 1.834-19.913.633.669 2.214.52 2.639.211"/><path fill="#F8F8F8" d="m91.194 23.081-.146 2.512c1.148 1.042 2.25.483 2.662.05.067-.49.099-.659.26-2.395-.909-1.588-2.342-.768-2.776-.167"/><path fill="#E4E4E4" d="M92.11 22.869c.165.331 1.042.373 1.09.08.093-.567.114-.97.227-1.916-.413-.61-.907-.356-1.106-.101-.055.338-.107.937-.211 1.937"/><path fill="#E4E4E4" fill-rule="evenodd" d="m90.416 27.749 1.165-.596c.151-.18.03-.556-.285-.556l-1.164.595z" clip-rule="evenodd"/><path fill="#F8F8F8" d="m89.375 32.004.418-5.008a.462.462 0 1 1 .921.08l-.449 5.005a.447.447 0 0 1-.89-.077M91.916 40.306l-.693 5.194c-.817 1.136-2.033.354-2.102-.15.083-.837.295-3.152.527-5.192.63.531 1.75.37 2.268.148"/></g><mask id="EvX0wPUXG7o1PIyRs00OSf6BRTlubCXIjD5IF-oVsoc_c" width="84" height="52" x="34" y="63" maskUnits="userSpaceOnUse" style="mask-type:alpha"><path fill="#F8F8F8" d="M52.978 63.75h46.55L117.559 115l-82.606-.294z"/></mask><g mask="url(#EvX0wPUXG7o1PIyRs00OSf6BRTlubCXIjD5IF-oVsoc_c)"><path fill="#FFF9E1" fill-rule="evenodd" d="M99.528 63.75h-46.55l-8.136 23 3.78 1.062-4.55 1.112-9.12 25.782 82.607.294-4.197-11.929-6.901-.972 6.205-1.005-9.599-27.283-4.313-.894 3.428-1.622z" clip-rule="evenodd"/><path fill="#FEEDB4" d="M56.155 106.267c7.196.374 12.59 6.665 13.048 10.074H30.054s7.774-22.318 8.243-23.66c1.095-3.135 6.105-.813 7.479 0 1.373 1.019 3.785 3.664 2.442 6.107s-.56 4.07 0 4.578c.916 1.018 3.789 2.685 7.937 2.901M107.058 109.591c-7.196.374-12.59 6.665-13.049 10.074h39.149l-8.242-23.66c-1.095-3.135-6.105-.813-7.479 0-1.374 1.019-3.786 3.664-2.442 6.107s.559 4.07 0 4.579c-.916 1.017-3.79 2.684-7.937 2.9M52.963 69.615c-.795 1.932-4.025 3.74-5.54 4.403l3.693-12.784c7.292-.236 21.392-.114 19.46 2.273-2.414 2.983-12.926 2.273-14.346 2.415s-2.273 1.278-3.267 3.693M101.65 69.615c.796 1.932 4.025.367 5.54 1.03l-3.693-9.41c-7.292-.237-21.392-.114-19.46 2.272 2.415 2.983 12.926 2.273 14.346 2.415s2.273 1.278 3.267 3.693M87.221 94.762c.782-1.478 2.988-2.115 3.999-.928.746 1.428 3.333.938 3.677.514.504-.533 2.404-1.383 5.967-.514 3.563.87 2.354 1.811 1.304 2.173-1.702.254-5.237 1.108-5.758 2.499-.652 1.738 5.106 2.933 1.303 3.911s-3.585-1.847-11.298-1.955c-6.17-.087-4.31-1.92-2.607-2.825 1.014-.29 2.63-1.397 3.413-2.875"/></g><path fill="#F7E891" d="m95.59 77.169-39.037-.038c-.388 0-.663-.187-.6-.412l.237-.913c.05-.218.413-.393.8-.393l38.188.03c.387 0 .743.176.8.4l.231.913c.056.225-.219.413-.612.413zM96.534 80.744l-40.794-.05c-.412 0-.687-.2-.631-.444l.256-.994c.056-.237.438-.43.838-.43l39.868.037c.4 0 .782.193.838.43l.256.995c.063.243-.219.45-.631.443zM97.497 84.713l-42.744-.063c-.431 0-.725-.219-.656-.494l.28-1.093c.07-.263.463-.475.882-.475l41.731.056c.425 0 .82.212.888.475l.275 1.094c.062.268-.225.493-.656.493zM99.072 89.419l-45.757-.069c-.456 0-.775-.225-.706-.512l.294-1.132c.069-.275.494-.487.937-.487l44.67.056c.455 0 .88.225.955.494l.307 1.131c.075.275-.238.512-.694.512zM71.215 70.856H58.253c-.356-.006-.606-.162-.563-.35l.857-3.35c.043-.169.362-.312.693-.312h12.25c.344 0 .613.137.6.319l-.206 3.356c-.013.187-.312.343-.681.343h.012zM93.44 68.319H81.16c-.35 0-.638-.15-.65-.325l-.05-.838c-.013-.169.262-.312.6-.312H93.09c.344 0 .656.137.7.319l.213.837c.05.175-.2.325-.55.325h-.007zM94.134 70.862h-9.488c-.362 0-.669-.162-.694-.35l-.093-.9c-.025-.187.256-.337.606-.337h9.287c.357 0 .681.156.732.344l.23.9c.05.193-.206.343-.568.343h-.013000000000000001M73.59 94.406l-21.875-.037c-.462 0-.775-.25-.694-.563l.325-1.25c.075-.3.5-.537.95-.537l21.325.037c.45 0 .807.238.807.538l-.02 1.256c0 .313-.38.563-.843.563h.019zM81.296 106.801l21.875-.037c.462 0 .775-.25.694-.563l-.325-1.25c-.075-.3-.5-.537-.95-.537l-21.325.037c-.45 0-.806.238-.806.538l.018 1.256c0 .313.382.563.844.563h-.019z"/><mask id="EvX0wPUXG7o1PIyRs00OSf6BRTlubCXIjD5IF-oVsoc_d" width="31" height="18" x="104" y="42" maskUnits="userSpaceOnUse" style="mask-type:alpha"><path fill="#fff" d="M119.995 43.676c-6.572-4.029-16.793 1.517-15.028 8.936 1.406 5.913 10.503 7.177 15.028 7.074 4.416.103 13.291-1.16 14.664-7.074 1.721-7.42-8.251-12.965-14.664-8.936"/></mask><g mask="url(#EvX0wPUXG7o1PIyRs00OSf6BRTlubCXIjD5IF-oVsoc_d)"><path fill="#F8F8F8" d="M119.995 43.676c-6.572-4.029-16.793 1.517-15.028 8.936 1.406 5.913 10.503 7.177 15.028 7.074 4.416.103 13.291-1.16 14.664-7.074 1.721-7.42-8.251-12.965-14.664-8.936"/><path fill="#AADBFF" fill-rule="evenodd" d="M123.176 42.797c-.976-.065-1.987.308-2.908 1.306l-.339.367-.343-.363c-.944-.999-1.985-1.375-2.994-1.31-1.023.066-2.074.59-3.004 1.51-1.861 1.841-3.149 5.192-2.614 9.07.419 3.044 1.974 4.863 3.751 5.923 1.796 1.07 3.835 1.371 5.182 1.318h.037c1.31.053 3.296-.247 5.045-1.316 1.73-1.057 3.249-2.876 3.659-5.923.522-3.883-.736-7.235-2.552-9.076-.907-.92-1.929-1.441-2.92-1.506m3.585.85c2.042 2.07 3.368 5.723 2.812 9.856-.449 3.342-2.14 5.401-4.097 6.596-1.928 1.179-4.095 1.508-5.551 1.453-1.488.055-3.705-.273-5.679-1.45-2.001-1.193-3.736-3.251-4.197-6.597-.571-4.138.79-7.792 2.882-9.862 1.047-1.036 2.3-1.695 3.601-1.779 1.182-.076 2.355.327 3.389 1.265 1.01-.937 2.157-1.34 3.317-1.264 1.276.084 2.501.746 3.523 1.782" clip-rule="evenodd"/><path fill="#AADBFF" fill-rule="evenodd" d="M119.658 61.393V44.666h.934v16.727z" clip-rule="evenodd"/></g><ellipse cx="119.844" cy="44.666" fill="#AADBFF" rx="10.41" ry="3.203"/><path fill="#4793CC" d="M114.765 38.448c-.835-4.304-3.021-13.383-5.092-15.356l-.016-.015.016.015c2.743 2.593 5.708 7.54 6.85 9.693.307-4.686.737-14.623 0-16.888 1.474 2.346 2.903 10.955 3.433 14.966l5.275-16.989-2.679 19.518c2.149-4.079 6.765-12.358 8.037-12.843-2.612 6.067-4.214 14.46-4.688 17.9z"/><path fill="#82C2F1" d="M103.293 40.616c5.961-1.093 8.401 2.405 8.876 4.29 3.473 3.296 11.613 2.978 14.568 0 2.881-1.403 8.01-2.6 10.215-3.023-1.982-.422-6.648-.858-9.461.78 1.005-2.243 4.521-8.289 9.461-12.97-1.842 0-9.545 4.681-12.894 7.412-.134-1.638 1.061-10.369 1.675-14.53l-4.689 10.63-.921-9.557-.837 9.557c-1.228-3.348-4.27-9.713-6.615-8.387 3.266 1.073 2.847 11.41 1.842 9.556-1.004-1.852-8.623-5.46-7.033-4.68 1.591.78 5.108 7.8 3.601 5.948-1.507-1.853-9.713-1.853-6.196-1.268 2.813.468 5.303 3.836 6.196 5.461-2.456-.715-7.452-1.56-7.788.78"/><path fill="#AADBFF" d="M113.254 40.046c.831 2.432 1.038 5.115 1.038 6.153 5.16 2.016 9.365.84 10.823 0 .074-.989.563-3.692 1.927-6.597-1.482.593-3.583 2.965-4.448 4.077V35.45l-2.372 9.118-2.52-9.118v9.118c-.445-1.507-1.957-4.522-4.448-4.522"/><path fill="#D3EDFF" d="M42.085 30.822H5.675l3.21 28.828 37.593-1.803z"/><path fill="#F8F8F8" d="m41.934 29.92-36.259.902 2.671 24 37.368-1.667z"/><mask id="EvX0wPUXG7o1PIyRs00OSf6BRTlubCXIjD5IF-oVsoc_e" width="33" height="18" x="9" y="34" maskUnits="userSpaceOnUse" style="mask-type:alpha"><path fill="#fff" d="m38.896 34.054-29.367.59 1.917 17.196 30.163-1.15z"/></mask><g mask="url(#EvX0wPUXG7o1PIyRs00OSf6BRTlubCXIjD5IF-oVsoc_e)"><path fill="#D3EDFF" d="m38.896 34.054-29.367.59 1.917 17.196 30.163-1.15z"/><path fill="#AADBFF" d="M8.862 37.764v-3.45l30.672-.538 1 2.94z"/><path fill="#AADBFF" fill-rule="evenodd" d="m39.645 33.618 1.106 3.247-32.045 1.06V34.16zm-30.626.85v3.134l31.3-1.035-.896-2.632z" clip-rule="evenodd"/><path fill="#AADBFF" fill-rule="evenodd" d="m15.675 53.819-2.897-20.11.31-.044 2.897 20.11zM19.403 53.686l-2.897-20.11.31-.044 2.897 20.11zM23.135 53.552l-2.898-20.11.31-.043 2.897 20.11zM26.864 53.419l-2.897-20.11.309-.044 2.897 20.11zM30.59 53.286l-2.897-20.11.31-.043 2.897 20.11zM34.32 53.153l-2.897-20.11.31-.044 2.897 20.11zM38.05 53.02l-2.898-20.11.31-.043 2.897 20.11z" clip-rule="evenodd"/><path fill="#AADBFF" fill-rule="evenodd" d="m7.117 37.569 33.841-1.15.01.313-33.841 1.149zM7.32 41.137l33.84-1.149.01.312-33.84 1.15zM7.56 44.615l33.84-1.148.01.312-33.84 1.149zM7.799 48.094l33.84-1.15.01.313-33.841 1.149z" clip-rule="evenodd"/></g></g><defs><clipPath id="EvX0wPUXG7o1PIyRs00OSf6BRTlubCXIjD5IF-oVsoc_a"><path fill="#fff" d="M0 0h150v150H0z"/></clipPath><clipPath id="EvX0wPUXG7o1PIyRs00OSf6BRTlubCXIjD5IF-oVsoc_b"><rect width="125" height="125" x="12.624" y="12.458" fill="#fff" rx="62.5"/></clipPath></defs></svg>