<svg xmlns="http://www.w3.org/2000/svg" width="300" height="300" fill="none" class="persona-ilustration" viewBox="0 0 300 300"><g clip-path="url(#cUJhkrCleHwUZjXqzSda5-IDSZJsUHkFbxKmAimAaow_a)"><g clip-path="url(#cUJhkrCleHwUZjXqzSda5-IDSZJsUHkFbxKmAimAaow_b)"><rect width="250" height="250" x="25.248" y="24.916" fill="#D3EDFF" rx="125"/><path fill="#AADBFF" d="M-26.671 86.399h353.342v201.909H-26.671z"/><path fill="#4793CC" d="M-26.25 245h352.5v35h-352.5zM133.907 90.556l-.88 1.84h16.993v-1.84z"/><path fill="#4793CC" d="m166.093 90.556.879 1.84h-16.993v-1.84z"/><path fill="#82C2F1" d="m103.776 88.855-2.546 5.328h49.196v-5.328z"/><path fill="#82C2F1" d="m196.959 88.855 2.545 5.328h-49.195v-5.328zM101.531 112.5l6.25-11.25h85l6.25 11.25z"/><path fill="#4793CC" d="m105.208 106.122-3.982-11.945h98.295l-3.981 11.945zM101.572 112.514h97.278v4.482h-97.278z"/><path fill="#F8F8F8" d="m130.02 79.855 4.096 12.503h15.893V79.855z"/><path fill="#F8F8F8" d="m169.989 79.855-4.097 12.503H150V79.855z"/><path fill="#A4A1E0" d="m113.665 51.03 5.026 39.402c1.664 2.375 3.307.99 3.92 0-1.001-11.325-2.75-30.467-3.669-39.825-1.267 1.337-4.429 1.04-5.277.422"/><path fill="#F8F8F8" d="m118.725 46.163.29 5.024c-2.295 2.083-4.499.965-5.323.098-.134-.98-.198-1.316-.518-4.788 1.815-3.177 4.683-1.536 5.551-.334"/><path fill="#E4E4E4" d="M116.892 45.737c-.33.663-2.084.747-2.18.16-.186-1.134-.229-1.937-.454-3.83.825-1.222 1.815-.713 2.213-.204.108.676.213 1.875.421 3.874"/><path fill="#E4E4E4" fill-rule="evenodd" d="m120.28 55.498-2.33-1.191c-.302-.36-.061-1.113.569-1.113l2.33 1.19z" clip-rule="evenodd"/><path fill="#F8F8F8" d="m122.364 64.008-.837-10.016a.924.924 0 1 0-1.842.16l.897 10.01a.894.894 0 0 0 1.782-.154M117.28 80.613 118.665 91c1.635 2.272 4.067.709 4.205-.3-.166-1.673-.59-6.303-1.055-10.383-1.26 1.061-3.498.738-4.535.296"/><path fill="#A4A1E0" d="m187.447 51.029-5.026 39.403c-1.665 2.375-3.307.99-3.92 0 1-11.326 2.75-30.467 3.669-39.825 1.267 1.337 4.429 1.039 5.277.422"/><path fill="#F8F8F8" d="m182.387 46.163-.29 5.024c2.295 2.083 4.499.965 5.323.098.134-.98.198-1.316.518-4.788-1.815-3.177-4.683-1.536-5.551-.334"/><path fill="#E4E4E4" d="M184.22 45.737c.33.663 2.084.747 2.18.16.186-1.134.229-1.937.454-3.83-.825-1.222-1.815-.713-2.213-.204-.108.676-.213 1.875-.421 3.874"/><path fill="#E4E4E4" fill-rule="evenodd" d="m180.833 55.498 2.329-1.191c.302-.36.061-1.113-.569-1.113l-2.329 1.19z" clip-rule="evenodd"/><path fill="#F8F8F8" d="m178.749 64.008.836-10.016a.925.925 0 1 1 1.843.16l-.898 10.01a.894.894 0 0 1-1.781-.154M183.832 80.612 182.447 91c-1.636 2.271-4.067.708-4.205-.3.166-1.673.59-6.303 1.055-10.384 1.26 1.062 3.498.739 4.535.296"/></g><mask id="cUJhkrCleHwUZjXqzSda5-IDSZJsUHkFbxKmAimAaow_c" width="61" height="36" x="209" y="84" maskUnits="userSpaceOnUse" style="mask-type:alpha"><path fill="#fff" d="M239.991 87.353c-13.145-8.058-33.586 3.033-30.057 17.871 2.812 11.827 21.006 14.354 30.057 14.148 8.831.206 26.582-2.321 29.327-14.148 3.442-14.838-16.501-25.93-29.327-17.871"/></mask><g mask="url(#cUJhkrCleHwUZjXqzSda5-IDSZJsUHkFbxKmAimAaow_c)"><path fill="#F8F8F8" d="M239.991 87.353c-13.145-8.058-33.586 3.033-30.057 17.871 2.812 11.827 21.006 14.354 30.057 14.148 8.831.206 26.582-2.321 29.327-14.148 3.442-14.838-16.501-25.93-29.327-17.871"/><path fill="#AADBFF" fill-rule="evenodd" d="M246.352 85.593c-1.951-.13-3.973.616-5.815 2.612l-.678.734-.687-.726c-1.888-1.997-3.97-2.75-5.988-2.62-2.045.132-4.147 1.18-6.007 3.02-3.723 3.683-6.298 10.384-5.229 18.141.839 6.087 3.948 9.727 7.502 11.845 3.592 2.141 7.671 2.743 10.364 2.637l.037-.002.037.002c2.62.105 6.592-.494 10.091-2.632 3.46-2.114 6.497-5.751 7.317-11.847 1.044-7.765-1.472-14.47-5.103-18.152-1.814-1.84-3.859-2.882-5.841-3.012m7.171 1.7c4.084 4.142 6.736 11.445 5.624 19.713-.899 6.684-4.281 10.802-8.194 13.192-3.857 2.357-8.191 3.016-11.103 2.906-2.976.11-7.409-.547-11.357-2.901-4.003-2.386-7.473-6.502-8.395-13.194-1.141-8.276 1.58-15.584 5.765-19.724 2.094-2.072 4.599-3.389 7.201-3.556 2.365-.153 4.71.651 6.779 2.528 2.019-1.874 4.314-2.681 6.632-2.528 2.553.168 5.004 1.492 7.048 3.564" clip-rule="evenodd"/><path fill="#AADBFF" fill-rule="evenodd" d="M239.316 122.785V89.332h1.868v33.453z" clip-rule="evenodd"/></g><ellipse cx="239.688" cy="89.332" fill="#AADBFF" rx="20.821" ry="6.406"/><path fill="#4793CC" d="M229.531 76.896c-1.672-8.608-6.042-26.766-10.185-30.713l-.032-.03.032.03c5.485 5.186 11.417 15.08 13.701 19.387.614-9.372 1.473-29.247 0-33.777 2.947 4.692 5.805 21.91 6.865 29.934l10.55-33.98-5.359 39.036c4.298-8.157 13.53-24.715 16.076-25.686-5.225 12.135-8.429 28.922-9.378 35.799z"/><path fill="#82C2F1" d="M206.587 81.231c11.921-2.184 16.801 4.811 17.75 8.582 6.947 6.59 23.228 5.955 29.138 0 5.76-2.808 16.019-5.2 20.429-6.046-3.963-.846-13.296-1.717-18.922 1.56 2.009-4.486 9.042-16.578 18.922-25.94-3.684 0-19.09 9.362-25.788 14.823-.268-3.276 2.121-20.737 3.349-29.059l-9.377 21.258-1.842-19.113-1.675 19.113c-2.455-6.696-8.54-19.425-13.228-16.773 6.53 2.146 5.693 22.818 3.684 19.113-2.01-3.706-17.248-10.922-14.066-9.362 3.181 1.56 10.214 15.603 7.2 11.897s-19.424-3.706-12.391-2.535c5.626.936 10.605 7.671 12.391 10.922-4.912-1.43-14.903-3.12-15.574 1.56"/><path fill="#AADBFF" d="M226.508 80.092c1.662 4.863 2.076 10.23 2.076 12.305 10.32 4.032 18.73 1.68 21.645 0 .148-1.977 1.127-7.383 3.855-13.195-2.965 1.186-7.166 5.93-8.896 8.155V70.899l-4.744 18.236-5.041-18.236v18.236c-.89-3.014-3.914-9.043-8.895-9.043"/><path fill="#D3EDFF" d="M84.169 61.644H11.35l6.418 57.656 75.188-3.605z"/><path fill="#F8F8F8" d="M83.867 59.841 11.35 61.644l5.341 48.001 74.736-3.335z"/><mask id="cUJhkrCleHwUZjXqzSda5-IDSZJsUHkFbxKmAimAaow_d" width="65" height="36" x="19" y="68" maskUnits="userSpaceOnUse" style="mask-type:alpha"><path fill="#fff" d="M77.791 68.108 19.058 69.29l3.834 34.391 60.327-2.3z"/></mask><g mask="url(#cUJhkrCleHwUZjXqzSda5-IDSZJsUHkFbxKmAimAaow_d)"><path fill="#D3EDFF" d="M77.791 68.108 19.058 69.29l3.834 34.391 60.327-2.3z"/><path fill="#AADBFF" d="M17.724 75.527v-6.899l61.343-1.075 2.002 5.88z"/><path fill="#AADBFF" fill-rule="evenodd" d="M79.29 67.237 81.5 73.73l-64.09 2.12v-7.53zm-61.253 1.698v6.27l62.6-2.071-1.792-5.264z" clip-rule="evenodd"/><path fill="#AADBFF" fill-rule="evenodd" d="m31.35 107.638-5.795-40.22.619-.087 5.795 40.22zM38.806 107.372l-5.795-40.22.619-.087 5.795 40.22zM46.269 107.105l-5.795-40.22.618-.087 5.795 40.22zM53.728 106.838l-5.795-40.22.618-.087 5.795 40.22zM61.18 106.573l-5.794-40.22.618-.087 5.796 40.219zM68.64 106.306l-5.795-40.22.619-.087 5.795 40.22zM76.1 106.04l-5.796-40.22.619-.087 5.795 40.22z" clip-rule="evenodd"/><path fill="#AADBFF" fill-rule="evenodd" d="m14.234 75.138 67.682-2.298.018.625-67.681 2.297zM14.64 82.274l67.68-2.297.019.624L14.658 82.9zM15.12 89.23l67.68-2.297.019.625-67.681 2.297zM15.597 96.188l67.68-2.298.02.625-67.682 2.297z" clip-rule="evenodd"/></g><mask id="cUJhkrCleHwUZjXqzSda5-IDSZJsUHkFbxKmAimAaow_e" width="167" height="103" x="69" y="127" maskUnits="userSpaceOnUse" style="mask-type:alpha"><path fill="#F8F8F8" d="M105.955 127.5h93.1L235.118 230l-165.213-.588z"/></mask><g mask="url(#cUJhkrCleHwUZjXqzSda5-IDSZJsUHkFbxKmAimAaow_e)"><path fill="#FFF9E1" fill-rule="evenodd" d="M199.055 127.5h-93.1l-16.271 45.999 7.56 2.126-9.099 2.224-18.24 51.563 165.213.588-8.395-23.859-13.802-1.943 12.412-2.01-19.198-54.566-8.627-1.789 6.857-3.242z" clip-rule="evenodd"/><path fill="#FEEDB4" d="M112.31 212.533c14.392.749 25.181 13.33 26.096 20.148H60.108s15.548-44.635 16.485-47.317c2.19-6.272 12.21-1.628 14.958 0 2.748 2.035 7.571 7.327 4.885 12.211s-1.12 8.14 0 9.158c1.831 2.035 7.578 5.369 15.874 5.8M214.115 219.181c-14.392.749-25.181 13.33-26.096 20.148h78.298s-15.548-44.635-16.485-47.318c-2.19-6.272-12.211-1.628-14.958 0-2.748 2.036-7.571 7.327-4.885 12.212s1.12 8.14 0 9.158c-1.831 2.035-7.578 5.368-15.874 5.8M105.926 139.23c-1.591 3.864-8.049 7.481-11.08 8.807l7.387-25.568c14.583-.474 42.783-.228 38.92 4.545-4.83 5.965-25.852 4.545-28.693 4.83-2.841.284-4.545 2.556-6.534 7.386M203.301 139.23c1.591 3.864 8.049.734 11.079 2.059l-7.386-18.82c-14.583-.474-42.783-.228-38.92 4.545 4.83 5.965 25.852 4.545 28.693 4.83 2.841.284 4.545 2.556 6.534 7.386M174.442 189.524c1.564-2.955 5.976-4.229 7.998-1.855 1.491 2.855 6.666 1.875 7.355 1.028 1.008-1.067 4.806-2.766 11.933-1.028s4.708 3.621 2.607 4.346c-3.404.507-10.472 2.216-11.515 4.997-1.304 3.477 10.212 5.867 2.607 7.822s-7.17-3.694-22.597-3.911c-12.341-.174-8.619-3.838-5.215-5.649 2.028-.58 5.263-2.794 6.827-5.75"/></g><path fill="#F7E891" d="m191.18 154.338-78.075-.075c-.775 0-1.325-.375-1.2-.825l.475-1.825c.1-.438.825-.788 1.6-.788l76.375.063c.775 0 1.488.35 1.6.8l.463 1.825c.112.45-.438.825-1.225.825zM193.068 161.488l-81.588-.1c-.825 0-1.375-.4-1.262-.888l.512-1.987c.113-.475.875-.863 1.675-.863l79.738.075c.8 0 1.562.388 1.675.863l.512 1.987c.125.488-.437.9-1.262.888zM194.993 169.425l-85.487-.125c-.863 0-1.45-.437-1.313-.987l.563-2.188c.137-.525.925-.95 1.762-.95l83.463.113c.85 0 1.637.425 1.775.95l.55 2.187c.125.538-.45.988-1.313.988zM198.143 178.838l-91.513-.138c-.912 0-1.55-.45-1.412-1.025l.587-2.262c.138-.55.988-.975 1.875-.975l89.338.112c.912 0 1.762.45 1.912.988l.613 2.262c.15.55-.475 1.025-1.388 1.025zM142.43 141.712h-25.925c-.712-.012-1.212-.324-1.125-.699l1.713-6.701c.087-.337.725-.624 1.387-.624h24.5c.688 0 1.225.275 1.2.637l-.412 6.713c-.025.375-.625.687-1.363.687h.025zM186.88 136.638h-24.562c-.7 0-1.275-.3-1.3-.65l-.1-1.676c-.025-.337.525-.624 1.2-.624h24.062c.688 0 1.313.275 1.4.637l.425 1.675c.1.35-.4.65-1.1.65h-.012zM188.267 141.725h-18.975c-.725 0-1.337-.325-1.387-.7l-.188-1.8c-.05-.375.513-.675 1.213-.675h18.575c.712 0 1.362.312 1.462.687l.463 1.8c.1.388-.413.688-1.138.688h-.025M147.18 188.813l-43.75-.075c-.925 0-1.55-.5-1.387-1.125l.65-2.5c.15-.6 1-1.075 1.9-1.075l42.65.075c.9 0 1.612.475 1.612 1.075l-.037 2.512c0 .625-.763 1.125-1.688 1.125h.038zM162.592 213.603l43.75-.075c.925 0 1.55-.5 1.388-1.125l-.65-2.5c-.15-.6-1-1.075-1.9-1.075l-42.65.075c-.9 0-1.613.475-1.613 1.075l.038 2.512c0 .625.762 1.125 1.687 1.125h-.037z"/></g><defs><clipPath id="cUJhkrCleHwUZjXqzSda5-IDSZJsUHkFbxKmAimAaow_a"><path fill="#fff" d="M0 0h300v300H0z"/></clipPath><clipPath id="cUJhkrCleHwUZjXqzSda5-IDSZJsUHkFbxKmAimAaow_b"><rect width="250" height="250" x="25.248" y="24.916" fill="#fff" rx="125"/></clipPath></defs></svg>