<svg xmlns="http://www.w3.org/2000/svg" width="20" height="20" fill="none"><path fill="#000" fill-rule="evenodd" d="M5.016 3a2.016 2.016 0 1 0 .944 3.797l1.226 1.225A3.424 3.424 0 0 0 6.56 10c0 .736.232 1.418.625 1.978L5.96 13.203a2.016 2.016 0 1 0 .837.836l1.225-1.224c.56.394 1.242.625 1.978.625s1.418-.231 1.978-.625l1.225 1.225a2.016 2.016 0 1 0 .837-.836l-1.225-1.226c.394-.56.625-1.242.625-1.978s-.232-1.418-.626-1.978l1.226-1.225a2.016 2.016 0 1 0-.837-.837l-1.225 1.226A3.424 3.424 0 0 0 10 6.56c-.736 0-1.418.232-1.978.626L6.797 5.96A2.016 2.016 0 0 0 5.016 3Zm-.833 2.016a.833.833 0 1 1 1.665 0 .833.833 0 0 1-1.665 0ZM7.743 10a2.257 2.257 0 1 1 4.514 0 2.257 2.257 0 0 1-4.514 0Zm-2.727 4.152a.833.833 0 1 0 0 1.665.833.833 0 0 0 0-1.665Zm9.136-9.136a.833.833 0 1 1 1.665 0 .833.833 0 0 1-1.665 0Zm.832 9.136a.833.833 0 1 0 0 1.665.833.833 0 0 0 0-1.665Z" clip-rule="evenodd"/></svg>