<svg xmlns="http://www.w3.org/2000/svg" width="16" height="16" fill="none"><path fill="#000" fill-rule="evenodd" d="M4.554 2.188A.5.5 0 0 1 4.944 2h6.112a.5.5 0 0 1 .39.188l2.441 3.051a.498.498 0 0 1 .113.31v.035a.497.497 0 0 1-.092.26L8.415 13.78a.5.5 0 0 1-.83 0L2.092 5.845a.498.498 0 0 1 .02-.606l2.442-3.051Zm-1.1 3.868 3.472 5.015L5.77 6.056H3.454Zm2.329-1H3.54L5.185 3H6.33l-.548 2.056Zm1.012 1L8 11.276l1.205-5.22h-2.41Zm2.388-1H6.817L7.366 3h1.268l.549 2.056Zm1.048 1L9.074 11.07l3.472-5.015H10.23Zm2.229-1h-2.243L9.67 3h1.146l1.645 2.056Z" clip-rule="evenodd"/></svg>