<svg xmlns="http://www.w3.org/2000/svg" width="80" height="80" fill="none" class="persona-ilustration" viewBox="0 0 80 80"><g clip-path="url(#9n_a)"><path fill="#E7F7EA" d="M35.913 30.315a4.78 4.78 0 0 1 4.782-4.782h31.062a4.78 4.78 0 0 1 4.782 4.782v19.37a4.78 4.78 0 0 1-4.782 4.782H40.695a4.78 4.78 0 0 1-4.782-4.782z"/><path fill="#80D6E2" d="M38.041 31.216a2.956 2.956 0 0 1 2.956-2.956h29.956a2.956 2.956 0 0 1 2.956 2.956v17.737a2.956 2.956 0 0 1-2.956 2.957H40.997a2.956 2.956 0 0 1-2.956-2.957z"/><path fill="#EFFAFF" d="M62.873 37.72h7.095v9.066h-7.095zM47.895 33.188c0-.544.44-.986.985-.986h13.796a.985.985 0 0 1 0 1.971H48.88a.985.985 0 0 1-.985-.985M43.559 39.706c0-.545.441-.986.985-.986H58.34a.985.985 0 0 1 0 1.971H44.544a.985.985 0 0 1-.985-.985M43.559 44.8c0-.544.441-.985.985-.985H58.34a.985.985 0 0 1 0 1.97H44.544a.985.985 0 0 1-.985-.985"/><path fill="#38BA58" fill-rule="evenodd" d="M34.718 30.316a5.476 5.476 0 0 1 5.475-5.476h10.64a.693.693 0 1 1 0 1.386h-10.64a4.09 4.09 0 0 0-4.09 4.09v6.067a.693.693 0 0 1-1.386 0zm25.705-4.783c0-.382.31-.693.693-.693h10.64a5.476 5.476 0 0 1 5.476 5.476v6.067a.693.693 0 0 1-1.386 0v-6.067a4.09 4.09 0 0 0-4.09-4.09h-10.64a.693.693 0 0 1-.693-.693M35.41 42.923c.383 0 .694.311.694.694v6.068a4.09 4.09 0 0 0 4.089 4.089h10.64a.693.693 0 1 1 0 1.386h-10.64a5.475 5.475 0 0 1-5.475-5.475v-6.068c0-.383.31-.693.692-.693m41.13 0c.382 0 .692.311.692.694v6.068a5.475 5.475 0 0 1-5.475 5.475H61.116a.693.693 0 0 1 0-1.386h10.64a4.09 4.09 0 0 0 4.09-4.09v-6.067c0-.383.31-.693.693-.693" clip-rule="evenodd"/><rect width="33.789" height="65" x="13.072" y="7.5" fill="#353535" rx="2.207"/><rect width="30.641" height="61.771" x="14.744" y="8.93" fill="#F8F8F8" rx="2.207"/><path fill="#353535" d="M32.47 8.766a2.398 2.398 0 1 1-4.797 0z"/><mask id="9o_b" width="19" height="19" x="22" y="30" maskUnits="userSpaceOnUse" style="mask-type:alpha"><path fill="#239842" d="M31.399 48.458a8.851 8.851 0 1 0 0-17.702 8.851 8.851 0 0 0 0 17.702"/></mask><g mask="url(#9o_b)"><path fill="#239842" d="M31.399 48.46a8.851 8.851 0 1 0 0-17.703 8.851 8.851 0 0 0 0 17.703"/><path fill="#38BA58" d="M29.302 46.42a8.851 8.851 0 1 0 0-17.703 8.851 8.851 0 0 0 0 17.703"/><path stroke="#F8F8F8" stroke-linecap="round" stroke-linejoin="round" stroke-width="3.315" d="m27.725 38.976 2.868 2.87 4.48-4.478"/></g></g><defs><clipPath id="9n_a"><path fill="#fff" d="M0 0h80v80H0z"/></clipPath></defs></svg>