<svg xmlns="http://www.w3.org/2000/svg" width="40" height="40" fill="none" class="persona-ilustration" viewBox="0 0 40 40"><g clip-path="url(#usa6R2fJLQ_a)"><path fill="#E7F7EA" d="M18.082 14.961c0-1.32 1.07-2.39 2.39-2.39h15.532c1.32 0 2.39 1.07 2.39 2.39v9.685c0 1.32-1.07 2.39-2.39 2.39H20.473a2.39 2.39 0 0 1-2.391-2.39z"/><path fill="#80D6E2" d="M19.146 15.411c0-.816.661-1.478 1.478-1.478h14.978c.816 0 1.478.662 1.478 1.478v8.869c0 .816-.662 1.478-1.478 1.478H20.624a1.48 1.48 0 0 1-1.479-1.478z"/><path fill="#EFFAFF" d="M31.562 18.663h3.547v4.533H31.56zM24.072 16.397c0-.272.22-.492.493-.492h6.898a.493.493 0 0 1 0 .985h-6.898a.493.493 0 0 1-.493-.493M21.904 20.93c0-.272.22-.493.493-.493h6.898a.493.493 0 1 1 0 .986h-6.898a.493.493 0 0 1-.493-.493"/><path fill="#38BA58" fill-rule="evenodd" d="M17.484 14.961a2.74 2.74 0 0 1 2.738-2.737h5.32a.347.347 0 0 1 0 .693h-5.32c-1.13 0-2.045.915-2.045 2.044v3.034a.346.346 0 1 1-.693 0zm12.853-2.39c0-.192.155-.347.346-.347h5.32a2.74 2.74 0 0 1 2.738 2.737v3.034a.346.346 0 1 1-.693 0v-3.034c0-1.129-.915-2.044-2.044-2.044h-5.32a.347.347 0 0 1-.347-.347M17.83 21.264c.192 0 .347.155.347.347v3.034c0 1.129.915 2.044 2.045 2.044h5.32a.347.347 0 0 1 0 .694h-5.32a2.74 2.74 0 0 1-2.738-2.738v-3.034c0-.191.155-.347.346-.347m20.565 0c.191 0 .346.155.346.347v3.034a2.74 2.74 0 0 1-2.737 2.738h-5.32a.347.347 0 0 1 0-.694h5.32c1.129 0 2.044-.915 2.044-2.044v-3.034c0-.191.155-.347.347-.347" clip-rule="evenodd"/><rect width="16.895" height="32.5" x="6.536" y="3.75" fill="#353535" rx="1.104"/><rect width="15.32" height="30.886" x="7.372" y="4.465" fill="#F8F8F8" rx="1.104"/><path fill="#353535" d="M16.235 4.383a1.2 1.2 0 0 1-2.398 0z"/><mask id="usa6R2fJLQ_b" width="10" height="10" x="11" y="15" maskUnits="userSpaceOnUse" style="mask-type:alpha"><path fill="#239842" d="M15.825 24.23a4.426 4.426 0 1 0 0-8.852 4.426 4.426 0 0 0 0 8.851"/></mask><g mask="url(#usa6R2fJLQ_b)"><path fill="#239842" d="M15.825 24.23a4.426 4.426 0 1 0 0-8.851 4.426 4.426 0 0 0 0 8.851"/><path fill="#38BA58" d="M14.776 23.21a4.426 4.426 0 1 0 0-8.852 4.426 4.426 0 0 0 0 8.852"/><path stroke="#F8F8F8" stroke-linecap="round" stroke-linejoin="round" stroke-width="1.658" d="m13.988 19.488 1.434 1.434 2.24-2.238"/></g></g><defs><clipPath id="usa6R2fJLQ_a"><path fill="#fff" d="M0 0h40v40H0z"/></clipPath></defs></svg>