<svg xmlns="http://www.w3.org/2000/svg" width="16" height="16" fill="none"><path fill="#000" fill-rule="evenodd" d="M5.111 5.527c.901 0 1.659-.635 1.88-1.496H14.5a.51.51 0 0 0 .5-.518.51.51 0 0 0-.5-.517H6.99C6.77 2.135 6.013 1.5 5.112 1.5c-.9 0-1.659.635-1.88 1.496H1.5a.51.51 0 0 0-.5.517.51.51 0 0 0 .5.518h1.732c.22.861.978 1.496 1.88 1.496Zm0-2.992c-.521 0-.944.438-.944.978s.423.978.944.978c.52 0 .943-.436.945-.974V3.51c-.002-.538-.425-.974-.945-.974ZM1 12.487c0-.286.224-.518.5-.518h7.51c.22-.861.978-1.495 1.879-1.495.9 0 1.659.634 1.88 1.495H14.5c.276 0 .5.232.5.518a.509.509 0 0 1-.5.517h-1.732c-.22.862-.978 1.496-1.88 1.496-.9 0-1.658-.634-1.879-1.496H1.5a.509.509 0 0 1-.5-.517Zm10.833-.004v.007c-.001.538-.424.975-.944.975-.522 0-.945-.438-.945-.978s.423-.978.945-.978c.52 0 .943.436.944.974Z" clip-rule="evenodd"/><path fill="#000" d="M1.5 7.482A.51.51 0 0 0 1 8a.51.51 0 0 0 .5.518h13A.51.51 0 0 0 15 8a.51.51 0 0 0-.5-.518h-13Z"/></svg>