<svg xmlns="http://www.w3.org/2000/svg" width="20" height="20" fill="none"><path fill="#000" fill-rule="evenodd" d="M5.05 4.049A7.003 7.003 0 0 1 17 8.979v4.842a2.973 2.973 0 0 1-2.974 2.972H12.16A1.364 1.364 0 0 1 10.805 18h-1.61c-.753 0-1.364-.61-1.364-1.363v-.804c0-.753.61-1.363 1.364-1.363h1.61c.7 0 1.278.528 1.355 1.207h1.866c.923 0 1.689-.673 1.832-1.555a2.168 2.168 0 0 1-3.196-1.91v-1.608a2.168 2.168 0 0 1 3.213-1.9 5.885 5.885 0 0 0-11.751 0 2.168 2.168 0 0 1 3.213 1.9v1.609a2.168 2.168 0 0 1-4.337 0V8.994C3 7.14 3.737 5.36 5.05 4.05Zm6.002 12.171v-.387a.246.246 0 0 0-.247-.247h-1.61a.246.246 0 0 0-.247.247v.804c0 .136.11.247.247.247h1.61c.136 0 .247-.11.247-.247V16.22Zm4.83-5.616V12.219a1.051 1.051 0 0 1-2.103-.006v-1.61a1.051 1.051 0 0 1 2.104 0Zm-11.765 0v1.609a1.051 1.051 0 0 0 2.104 0v-1.61a1.051 1.051 0 0 0-2.104 0Z" clip-rule="evenodd"/></svg>