<svg xmlns="http://www.w3.org/2000/svg" width="16" height="16" fill="none" class="persona-icon" viewBox="0 0 16 16"><path fill="currentColor" d="M13.5 2a.5.5 0 0 1 .5.5v9.167A2.333 2.333 0 0 1 11.667 14H2.5a.5.5 0 0 1 0-1h9.167c.736 0 1.333-.597 1.333-1.333V2.5a.5.5 0 0 1 .5-.5ZM3.222 3.722v2.75a.5.5 0 0 0 .5.5h2.75a.5.5 0 0 0 .5-.5v-2.75a.5.5 0 0 0-.5-.5h-2.75a.5.5 0 0 0-.5.5Zm0 4.584v2.75a.5.5 0 0 0 .5.5h2.75a.5.5 0 0 0 .5-.5v-2.75a.5.5 0 0 0-.5-.5h-2.75a.5.5 0 0 0-.5.5Zm1-4.084v1.75h1.75v-1.75h-1.75Zm0 4.584v1.75h1.75v-1.75h-1.75Zm4.567 1.75a.5.5 0 0 0-.985.121v.379a.5.5 0 0 0 .5.5h.912a.5.5 0 1 0 0-1h-.427Zm-.984-6.834v2.75a.5.5 0 0 0 .5.5h2.75a.5.5 0 0 0 .5-.5v-2.75a.5.5 0 0 0-.5-.5h-2.75a.5.5 0 0 0-.5.5Zm.5 4.084a.5.5 0 0 0-.5.5v1.167a.5.5 0 0 0 .5.5h.949a.5.5 0 0 0 1-.017v-.483a.5.5 0 0 0-.5-.5h-.95v-.667a.5.5 0 0 0-.5-.5Zm.5-3.584v1.75h1.75v-1.75h-1.75Zm.473 4.084a.5.5 0 0 0 .5.5h.777v.448a.5.5 0 0 0 1 0v-.948a.5.5 0 0 0-.5-.5H9.778a.5.5 0 0 0-.5.5Zm1.777 1.639a.5.5 0 0 0-.5.5v.11h-.111a.5.5 0 1 0 0 1h.61a.5.5 0 0 0 .5-.5v-.61a.5.5 0 0 0-.5-.5Z"/></svg>