<svg xmlns="http://www.w3.org/2000/svg" width="16" height="16" fill="none" class="persona-icon" viewBox="0 0 16 16"><path fill="currentColor" fill-rule="evenodd" d="M13.5 2a.5.5 0 0 1 .5.5v9.167A2.333 2.333 0 0 1 11.667 14H2.5a.5.5 0 0 1 0-1h9.167c.736 0 1.333-.597 1.333-1.333V2.5a.5.5 0 0 1 .5-.5M3.222 3.722a.5.5 0 0 1 .5-.5h2.75a.5.5 0 0 1 .5.5v2.75a.5.5 0 0 1-.5.5h-2.75a.5.5 0 0 1-.5-.5zm0 4.584a.5.5 0 0 1 .5-.5h2.75a.5.5 0 0 1 .5.5v2.75a.5.5 0 0 1-.5.5h-2.75a.5.5 0 0 1-.5-.5zm1-4.084v1.75h1.75v-1.75zm0 4.584v1.75h1.75v-1.75zm4.567 1.75a.5.5 0 0 0-.985.121v.379a.5.5 0 0 0 .5.5h.912a.5.5 0 1 0 0-1zm-.984-6.834a.5.5 0 0 1 .5-.5h2.75a.5.5 0 0 1 .5.5v2.75a.5.5 0 0 1-.5.5h-2.75a.5.5 0 0 1-.5-.5zm.5 4.084a.5.5 0 0 1 .5.5v.667h.948a.5.5 0 0 1 .5.5v.483a.5.5 0 0 1-1 .017h-.948a.5.5 0 0 1-.5-.5V8.306a.5.5 0 0 1 .5-.5m.5-3.584v1.75h1.75v-1.75zm.473 4.084a.5.5 0 0 1 .5-.5h1.277a.5.5 0 0 1 .5.5v.948a.5.5 0 1 1-1 0v-.448h-.777a.5.5 0 0 1-.5-.5m1.777 1.639a.5.5 0 0 1 .5.5v.61a.5.5 0 0 1-.5.5h-.611a.5.5 0 1 1 0-1h.11v-.11a.5.5 0 0 1 .5-.5" clip-rule="evenodd"/></svg>