<svg xmlns="http://www.w3.org/2000/svg" width="24" height="24" fill="none" class="persona-icon" viewBox="0 0 24 24"><path fill="currentColor" fill-rule="evenodd" d="M5.25 6A.75.75 0 0 1 6 5.25h4.5a.75.75 0 0 1 .75.75v4.5a.75.75 0 0 1-.75.75H6a.75.75 0 0 1-.75-.75zm0 7.5a.75.75 0 0 1 .75-.75h4.5a.75.75 0 0 1 .75.75V18a.75.75 0 0 1-.75.75H6a.75.75 0 0 1-.75-.75zm7.5-7.5a.75.75 0 0 1 .75-.75H18a.75.75 0 0 1 .75.75v4.5a.75.75 0 0 1-.75.75h-4.5a.75.75 0 0 1-.75-.75zm.75 6.75a.75.75 0 0 1 .75.75V15h1.25a.75.75 0 0 1 0 1.5h-1.25V18a.75.75 0 0 1-1.5 0v-4.5a.75.75 0 0 1 .75-.75m7.75 1.5A.75.75 0 0 1 22 15v3.5a3.5 3.5 0 0 1-3.5 3.5H15a.75.75 0 0 1 0-1.5h3.5a2 2 0 0 0 2-2V15a.75.75 0 0 1 .75-.75M16 12.75h2a.75.75 0 0 1 .75.75v1a.75.75 0 0 1-1.5 0v-.25H16a.75.75 0 0 1 0-1.5m2 3.5a.75.75 0 0 1 .75.75v1a.75.75 0 0 1-.75.75h-2a.75.75 0 0 1 0-1.5h1.25V17a.75.75 0 0 1 .75-.75M6.75 6.75v3h3v-3zm0 7.5v3h3v-3zm7.5-7.5v3h3v-3z" clip-rule="evenodd"/></svg>