<svg xmlns="http://www.w3.org/2000/svg" width="32" height="32" fill="none" class="persona-icon" viewBox="0 0 32 32"><path fill="currentColor" fill-rule="evenodd" d="M27 4a1 1 0 0 1 1 1v18.333A4.667 4.667 0 0 1 23.333 28H5a1 1 0 1 1 0-2h18.333A2.667 2.667 0 0 0 26 23.333V5a1 1 0 0 1 1-1M6.443 7.444a1 1 0 0 1 1-1h5.5a1 1 0 0 1 1 1v5.5a1 1 0 0 1-1 1h-5.5a1 1 0 0 1-1-1zm0 9.167a1 1 0 0 1 1-1h5.5a1 1 0 0 1 1 1v5.5a1 1 0 0 1-1 1h-5.5a1 1 0 0 1-1-1zm2-8.167v3.5h3.5v-3.5zm0 9.167v3.5h3.5v-3.5zm9.136 3.5a1 1 0 0 0-1.97.243v.757a1 1 0 0 0 1 1h1.824a1 1 0 1 0 0-2zM15.61 7.444a1 1 0 0 1 1-1h5.5a1 1 0 0 1 1 1v5.5a1 1 0 0 1-1 1h-5.5a1 1 0 0 1-1-1zm1 8.167a1 1 0 0 1 1 1v1.336h1.898a1 1 0 0 1 1 1v.964a1 1 0 0 1-2 .036H16.61a1 1 0 0 1-1-1V16.61a1 1 0 0 1 1-1m1-7.167v3.5h3.5v-3.5zm.947 8.167a1 1 0 0 1 1-1h2.554a1 1 0 0 1 1 1v1.896a1 1 0 0 1-2 0v-.896h-1.554a1 1 0 0 1-1-1m3.553 3.278a1 1 0 0 1 1 1v1.222a1 1 0 0 1-1 1h-1.222a1 1 0 0 1 0-2h.222v-.222a1 1 0 0 1 1-1" clip-rule="evenodd"/></svg>