<svg xmlns="http://www.w3.org/2000/svg" width="16" height="16" fill="none"><path fill="#000" fill-rule="evenodd" d="M3.2 2.5a.7.7 0 1 0 0 1.4.7.7 0 0 0 0-1.4Zm-1.7.7a1.7 1.7 0 0 1 3.325-.5h6.35A1.7 1.7 0 1 1 13.3 4.825v6.35a1.7 1.7 0 1 1-2.125 2.125h-6.35A1.7 1.7 0 1 1 2.7 11.175v-6.35A1.7 1.7 0 0 1 1.5 3.2Zm2.2 1.625v6.35c.537.165.96.588 1.125 1.125h6.35c.165-.537.588-.96 1.125-1.125v-6.35A1.704 1.704 0 0 1 11.175 3.7h-6.35c-.165.537-.588.96-1.125 1.125ZM12.8 2.5a.7.7 0 1 0 0 1.4.7.7 0 0 0 0-1.4ZM7.462 6.833a6.006 6.006 0 0 0-1.349 1.43C5.676 8.922 5.5 9.495 5.5 9.8a.5.5 0 0 1-1 0c0-.583.289-1.352.78-2.09a7.057 7.057 0 0 1 2.252-2.13.77.77 0 0 1 .952.126.817.817 0 0 1 .162.913 29.976 29.976 0 0 0-.89 2.227c.65-.465 1.19-.652 1.573-.72a.704.704 0 0 1 .72.307c.138.21.151.467.067.688.078-.021.158-.035.24-.04.361-.022.662.133.919.301a.5.5 0 1 1-.55.836c-.207-.137-.28-.14-.308-.139-.034.002-.133.022-.37.216-.221.18-.553.266-.85.104-.334-.181-.414-.555-.311-.862.028-.085.059-.17.09-.254-.332.152-.767.424-1.284.913-.213.201-.55.313-.864.153-.344-.175-.429-.552-.338-.858.217-.726.599-1.767.972-2.658ZM3.2 12.1a.7.7 0 1 0 0 1.4.7.7 0 0 0 0-1.4Zm9.6 0a.7.7 0 1 0 0 1.4.7.7 0 0 0 0-1.4Z" clip-rule="evenodd"/></svg>