<svg xmlns="http://www.w3.org/2000/svg" width="16" height="16" fill="none" class="persona-icon" viewBox="0 0 16 16"><path fill="currentColor" d="M1.5 3.2a1.7 1.7 0 0 1 3.325-.5h6.35A1.7 1.7 0 1 1 13.3 4.825v6.35a1.7 1.7 0 1 1-2.125 2.125h-6.35A1.7 1.7 0 1 1 2.7 11.175v-6.35A1.7 1.7 0 0 1 1.5 3.2Zm1.7-.7a.7.7 0 1 0 0 1.4.7.7 0 0 0 0-1.4Zm0 9.6a.7.7 0 1 0 0 1.4.7.7 0 0 0 0-1.4Zm.5-7.275v6.35c.537.165.96.588 1.125 1.125h6.35c.165-.537.588-.96 1.125-1.125v-6.35A1.704 1.704 0 0 1 11.175 3.7h-6.35c-.165.537-.588.96-1.125 1.125Zm3.762 2.008a29.199 29.199 0 0 0-.971 2.658c-.092.306-.007.683.337.858.313.16.651.048.864-.153.517-.489.952-.761 1.284-.913a8.771 8.771 0 0 0-.09.254c-.103.307-.023.68.31.862.298.162.63.077.851-.104.237-.194.336-.214.37-.216.028-.002.1.002.308.139a.5.5 0 1 0 .55-.836c-.257-.168-.558-.323-.918-.301-.083.005-.163.019-.24.04a.762.762 0 0 0-.067-.688.704.704 0 0 0-.721-.307c-.384.068-.922.255-1.573.72.262-.74.595-1.578.89-2.227a.817.817 0 0 0-.162-.913.77.77 0 0 0-.952-.125A7.055 7.055 0 0 0 5.28 7.71C4.789 8.448 4.5 9.217 4.5 9.8a.5.5 0 0 0 1 0c0-.306.176-.88.613-1.536a6.004 6.004 0 0 1 1.35-1.431ZM12.8 2.5a.7.7 0 1 0 0 1.4.7.7 0 0 0 0-1.4Zm0 9.6a.7.7 0 1 0 0 1.4.7.7 0 0 0 0-1.4Z"/></svg>