<svg xmlns="http://www.w3.org/2000/svg" width="20" height="20" fill="none" class="persona-icon" viewBox="0 0 20 20"><path fill="currentColor" d="M7.752 10.358a7.2 7.2 0 0 1 1.434-1.574A35 35 0 0 0 8.094 11.8c-.118.396-.01.893.445 1.125.414.21.856.062 1.13-.197.554-.524 1.028-.84 1.405-1.033l-.055.16c-.134.398-.03.89.41 1.13.392.213.826.1 1.112-.134.286-.233.393-.247.414-.249.012 0 .086-.005.335.159a.676.676 0 1 0 .744-1.13c-.317-.208-.7-.406-1.162-.378q-.098.006-.191.024a.99.99 0 0 0-.124-.786.925.925 0 0 0-.946-.403c-.445.079-1.052.285-1.778.773.308-.851.681-1.786 1.015-2.52a1.06 1.06 0 0 0-.21-1.188 1.005 1.005 0 0 0-1.243-.163 8.7 8.7 0 0 0-2.77 2.618c-.603.907-.963 1.858-.963 2.588a.676.676 0 1 0 1.352 0c0-.355.207-1.042.737-1.839"/><path fill="currentColor" fill-rule="evenodd" d="M4.14 2a2.14 2.14 0 0 0-.675 4.173v7.654a2.142 2.142 0 1 0 2.708 2.708h7.654a2.142 2.142 0 1 0 2.708-2.708V6.173a2.142 2.142 0 1 0-2.708-2.708H6.173A2.14 2.14 0 0 0 4.14 2m-.788 2.14a.789.789 0 1 1 1.577 0 .789.789 0 0 1-1.577 0m.789 10.93a.789.789 0 1 1 0 1.578.789.789 0 0 1 0-1.578M6.173 4.817h7.654a2.15 2.15 0 0 0 1.356 1.356v7.654a2.15 2.15 0 0 0-1.356 1.356H6.173a2.15 2.15 0 0 0-1.356-1.356V6.173a2.15 2.15 0 0 0 1.356-1.356m8.897-.676a.789.789 0 1 1 1.578 0 .789.789 0 0 1-1.578 0m.79 10.93a.789.789 0 1 1 0 1.577.789.789 0 0 1 0-1.578" clip-rule="evenodd"/></svg>