<svg xmlns="http://www.w3.org/2000/svg" width="20" height="20" fill="none" class="persona-icon" viewBox="0 0 20 20"><path fill="currentColor" fill-rule="evenodd" d="M3.6 13.416c.345 0 .625.28.625.624v.809c0 .511.415.926.927.926h.808a.625.625 0 1 1 0 1.25h-.808a2.176 2.176 0 0 1-2.177-2.176v-.809c0-.345.28-.624.625-.624m1.552-9.19a.926.926 0 0 0-.927.926v.808a.625.625 0 1 1-1.25 0v-.808c0-1.202.974-2.177 2.177-2.177h.808a.625.625 0 1 1 0 1.25zm8.263-.626c0-.345.28-.625.625-.625h.809c1.201 0 2.176.975 2.176 2.177v.808a.625.625 0 1 1-1.25 0v-.808a.926.926 0 0 0-.927-.927h-.808a.625.625 0 0 1-.625-.625m2.985 9.816c.345 0 .625.28.625.624v.809a2.177 2.177 0 0 1-2.176 2.176h-.809a.625.625 0 1 1 0-1.25h.809a.926.926 0 0 0 .926-.926v-.809c0-.345.28-.624.625-.624M6.958 11.195a4.7 4.7 0 0 1-1.014-.908 5.4 5.4 0 0 1-1.141-2.301c-.159-.764-.12-1.636.407-2.246.568-.656 1.482-.774 2.534-.475 1.278.363 2.066 1.16 2.482 2.144.241.572.352 1.194.376 1.814q.18-.034.34-.043c.257-.015.65.008.937.294.302.3.305.69.243.983q.111-.095.268-.23l.065-.058c.215-.187.482-.415.754-.59.246-.158.63-.362 1.051-.313.524.061.83.458.978.902.046.141.088.247.124.326a.625.625 0 0 1 .413 1.143c-.062.04-.198.13-.377.169a.86.86 0 0 1-.655-.119 1.3 1.3 0 0 1-.412-.462 3.8 3.8 0 0 1-.287-.684 1.3 1.3 0 0 0-.16.09c-.184.119-.388.29-.608.482l-.072.062c-.183.16-.392.343-.571.461a1.65 1.65 0 0 1-.687.28.96.96 0 0 1-.799-.244 1.1 1.1 0 0 1-.324-.713 2 2 0 0 1 .023-.51q-.133.022-.305.07c-.143 1.039-.7 2.245-1.36 3.104-.338.44-.743.841-1.188 1.07-.466.239-1.06.318-1.583-.08-.513-.388-.662-.944-.579-1.479.076-.492.343-.973.652-1.385q.214-.284.475-.554m1.005-.867c.316-.224.637-.41.937-.537q.232-.1.457-.187c.01-.623-.073-1.212-.283-1.71-.274-.647-.773-1.171-1.672-1.427-.825-.234-1.133-.04-1.246.09-.154.179-.255.57-.13 1.174a4.1 4.1 0 0 0 .874 1.75c.311.37.673.663 1.063.847m.25 1.396c-.27.237-.525.504-.73.777-.254.336-.385.623-.417.825-.024.158.01.224.099.291l.003.002c.021.017.07.056.254-.038.212-.11.484-.35.768-.72a6.3 6.3 0 0 0 .94-1.794l-.147.085a.625.625 0 0 1-.77.571" clip-rule="evenodd"/></svg>