<svg xmlns="http://www.w3.org/2000/svg" width="24" height="24" fill="none" class="persona-icon" viewBox="0 0 24 24"><path fill="currentColor" d="M8.711 12.403a10.4 10.4 0 0 1 2.572-2.648c-.673 1.576-1.385 3.498-1.776 4.812-.146.492-.009 1.087.532 1.363.495.252 1.033.078 1.377-.247.988-.934 1.804-1.41 2.399-1.653-.077.2-.154.41-.224.619-.165.492-.034 1.082.49 1.368.47.255 1 .123 1.357-.17.407-.332.594-.381.68-.387.076-.004.219.016.577.25a.767.767 0 1 0 .843-1.281c-.433-.285-.928-.536-1.514-.5a2 2 0 0 0-.565.121l.053-.125a1.22 1.22 0 0 0-.088-1.14 1.11 1.11 0 0 0-1.143-.486c-.683.12-1.668.47-2.869 1.376a52 52 0 0 1 1.612-4.065 1.31 1.31 0 0 0-.26-1.462c-.352-.358-.957-.535-1.519-.2a11.95 11.95 0 0 0-3.812 3.604c-.834 1.253-1.317 2.547-1.317 3.518a.767.767 0 0 0 1.535 0c0-.546.31-1.54 1.06-2.668"/><path fill="currentColor" fill-rule="evenodd" d="M3.814 1a2.814 2.814 0 0 0-.768 5.522v10.956a2.815 2.815 0 1 0 3.476 3.475h10.956a2.815 2.815 0 1 0 3.475-3.475V6.522a2.815 2.815 0 1 0-3.475-3.476H6.522A2.815 2.815 0 0 0 3.814 1m-1.28 2.814a1.279 1.279 0 1 1 2.559 0 1.279 1.279 0 0 1-2.558 0m1.28 15.093a1.279 1.279 0 1 1 0 2.558 1.279 1.279 0 0 1 0-2.558M6.522 4.581h10.956a2.82 2.82 0 0 0 1.94 1.941v10.956a2.82 2.82 0 0 0-1.94 1.94H6.522a2.82 2.82 0 0 0-1.94-1.94V6.522a2.82 2.82 0 0 0 1.94-1.94m12.385-.767a1.279 1.279 0 1 1 2.558 0 1.279 1.279 0 0 1-2.558 0m1.279 15.093a1.279 1.279 0 1 1 0 2.558 1.279 1.279 0 0 1 0-2.558" clip-rule="evenodd"/></svg>