<svg xmlns="http://www.w3.org/2000/svg" width="16" height="16" fill="none" class="persona-icon" viewBox="0 0 16 16"><path fill="currentColor" fill-rule="evenodd" d="m2.854 2.147 11 11a.5.5 0 0 1-.708.707l-1.57-1.571C7.96 14.336 2.963 13.027 1.125 8.4a1.16 1.16 0 0 1 0-.85c.555-1.398 1.403-2.5 2.422-3.296l-1.4-1.4a.5.5 0 1 1 .707-.707m6.56 7.975L5.872 6.578a2.555 2.555 0 0 0 3.543 3.543" clip-rule="evenodd"/><path fill="currentColor" d="M14.875 7.549c.108.272.11.577 0 .85a8 8 0 0 1-1.359 2.278l-.373.436-7.776-7.958.891-.22c3.31-.816 7.078.737 8.617 4.614"/></svg>