<svg xmlns="http://www.w3.org/2000/svg" width="24" height="24" fill="none" class="persona-icon" viewBox="0 0 24 24"><path fill="currentColor" fill-rule="evenodd" d="m4.28 3.22 16.5 16.5a.75.75 0 1 1-1.06 1.06l-2.646-2.645c-5.16 2.905-12.276 1.03-14.895-5.565a1.65 1.65 0 0 1 0-1.215c.787-1.984 1.987-3.55 3.43-4.685l-2.39-2.39A.75.75 0 1 1 4.28 3.22m9.71 11.83L8.937 9.999a3.65 3.65 0 0 0 5.05 5.05" clip-rule="evenodd"/><path fill="currentColor" d="M21.821 11.354c.154.388.155.824 0 1.214a11.5 11.5 0 0 1-1.942 3.254l-.533.624L8.238 5.078l1.274-.315c4.728-1.166 10.11 1.053 12.309 6.59"/></svg>