<svg xmlns="http://www.w3.org/2000/svg" width="32" height="32" fill="none" class="persona-icon" viewBox="0 0 32 32"><path fill="currentColor" fill-rule="evenodd" d="m5.707 4.293 22 22a1 1 0 0 1-1.414 1.414l-3.142-3.141c-7.228 4.105-17.225 1.487-20.9-7.765a2.3 2.3 0 0 1-.002-1.702c1.11-2.796 2.807-5 4.844-6.591l-2.8-2.8a1 1 0 0 1 1.414-1.415m13.122 15.95-7.086-7.086a5.11 5.11 0 0 0 7.087 7.087" clip-rule="evenodd"/><path fill="currentColor" d="M29.751 15.098a2.3 2.3 0 0 1 0 1.7 16.1 16.1 0 0 1-2.719 4.556l-.746.873L10.734 6.31l1.783-.44c6.62-1.633 14.154 1.473 17.234 9.227"/></svg>