<svg xmlns="http://www.w3.org/2000/svg" width="24" height="24" fill="none"><path fill="#000" fill-rule="evenodd" d="M5.093 5.86c0-.423.344-.767.767-.767h4.605c.424 0 .768.344.768.767v4.605a.767.767 0 0 1-.768.768H5.86a.767.767 0 0 1-.767-.768V5.86Zm1.535.768v3.07h3.07v-3.07h-3.07ZM5.093 13.535c0-.424.344-.768.767-.768h4.605c.424 0 .768.344.768.768v4.605a.767.767 0 0 1-.768.767H5.86a.767.767 0 0 1-.767-.767v-4.605Zm1.535.767v3.07h3.07v-3.07h-3.07ZM12.767 5.86c0-.423.344-.767.768-.767h4.605c.423 0 .767.344.767.767v4.605a.767.767 0 0 1-.767.768h-4.605a.767.767 0 0 1-.768-.768V5.86Zm1.535.768v3.07h3.07v-3.07h-3.07ZM15.234 13.535c0-.424.344-.768.768-.768h2.138c.424 0 .767.344.767.768v1.587a.767.767 0 0 1-1.535 0v-.82h-1.37a.767.767 0 0 1-.768-.767ZM17.372 17.372v-.256a.767.767 0 1 1 1.535 0v1.024a.767.767 0 0 1-.767.767h-1.024a.767.767 0 1 1 0-1.535h.256ZM14.29 17.372h.772a.767.767 0 1 1 0 1.535h-1.527a.767.767 0 0 1-.768-.767v-.634a.767.767 0 0 1 1.524-.134Z" clip-rule="evenodd"/><path fill="#000" fill-rule="evenodd" d="M13.535 12.767c.424 0 .767.344.767.768v1.188h1.659c.423 0 .767.343.767.767v.808a.767.767 0 0 1-1.535 0v-.04h-1.658a.767.767 0 0 1-.768-.768v-1.955c0-.424.344-.768.768-.768ZM4.837 2.535a2.302 2.302 0 0 0-2.302 2.302v3.326a.767.767 0 1 1-1.535 0V4.837A3.837 3.837 0 0 1 4.837 1h3.326a.767.767 0 0 1 0 1.535H4.837Zm10.233-.768c0-.423.343-.767.767-.767h3.326A3.837 3.837 0 0 1 23 4.837v3.326a.767.767 0 1 1-1.535 0V4.837a2.302 2.302 0 0 0-2.302-2.302h-3.326a.767.767 0 0 1-.767-.768ZM1.767 15.07c.424 0 .768.343.768.767v3.326a2.302 2.302 0 0 0 2.302 2.302h3.326a.767.767 0 0 1 0 1.535H4.837A3.837 3.837 0 0 1 1 19.163v-3.326c0-.424.344-.767.767-.767Zm20.466 0c.423 0 .767.343.767.767v3.326A3.837 3.837 0 0 1 19.163 23h-3.326a.767.767 0 0 1 0-1.535h3.326a2.302 2.302 0 0 0 2.302-2.302v-3.326c0-.424.344-.767.768-.767Z" clip-rule="evenodd"/></svg>