<svg xmlns="http://www.w3.org/2000/svg" width="32" height="32" fill="none"><path fill="#000" fill-rule="evenodd" d="M7.802 8.802a1 1 0 0 1 1-1h5.4a1 1 0 0 1 1 1v5.4a1 1 0 0 1-1 1h-5.4a1 1 0 0 1-1-1v-5.4Zm2 1v3.4h3.4v-3.4h-3.4ZM7.802 17.802a1 1 0 0 1 1-1h5.4a1 1 0 0 1 1 1v5.4a1 1 0 0 1-1 1h-5.4a1 1 0 0 1-1-1v-5.4Zm2 1v3.4h3.4v-3.4h-3.4ZM16.802 8.802a1 1 0 0 1 1-1h5.4a1 1 0 0 1 1 1v5.4a1 1 0 0 1-1 1h-5.4a1 1 0 0 1-1-1v-5.4Zm2 1v3.4h3.4v-3.4h-3.4ZM19.695 17.802a1 1 0 0 1 1-1h2.508a1 1 0 0 1 1 1v1.861a1 1 0 1 1-2 0v-.86h-1.508a1 1 0 0 1-1-1ZM22.202 22.202v-.2a1 1 0 1 1 2 0v1.2a1 1 0 0 1-1 1h-1.2a1 1 0 1 1 0-2h.2ZM18.769 22.202h.824a1 1 0 1 1 0 2h-1.79a1 1 0 0 1-1-1v-.743a1 1 0 0 1 1.966-.257Z" clip-rule="evenodd"/><path fill="#000" fill-rule="evenodd" d="M17.802 16.802a1 1 0 0 1 1 1v1.293h1.845a1 1 0 0 1 1 1v.947a1 1 0 0 1-1.999.053h-1.846a1 1 0 0 1-1-1v-2.293a1 1 0 0 1 1-1ZM7.602 5.002a2.6 2.6 0 0 0-2.6 2.6v3.9a1 1 0 1 1-2 0v-3.9a4.6 4.6 0 0 1 4.6-4.6h3.9a1 1 0 1 1 0 2h-3.9Zm11.9-1a1 1 0 0 1 1-1h3.9a4.6 4.6 0 0 1 4.6 4.6v3.9a1 1 0 1 1-2 0v-3.9a2.6 2.6 0 0 0-2.6-2.6h-3.9a1 1 0 0 1-1-1Zm-15.5 15.5a1 1 0 0 1 1 1v3.9a2.6 2.6 0 0 0 2.6 2.6h3.9a1 1 0 1 1 0 2h-3.9a4.6 4.6 0 0 1-4.6-4.6v-3.9a1 1 0 0 1 1-1Zm24 0a1 1 0 0 1 1 1v3.9a4.6 4.6 0 0 1-4.6 4.6h-3.9a1 1 0 1 1 0-2h3.9a2.6 2.6 0 0 0 2.6-2.6v-3.9a1 1 0 0 1 1-1Z" clip-rule="evenodd"/></svg>