<svg xmlns="http://www.w3.org/2000/svg" width="24" height="24" fill="none"><path fill="#000" fill-rule="evenodd" d="M18.976 1c.444 0 .805.36.805.805V4.22h2.414a.805.805 0 0 1 0 1.61H19.78v2.414a.805.805 0 0 1-1.61 0V5.829h-2.414a.805.805 0 0 1 0-1.61h2.415V1.806c0-.445.36-.805.805-.805ZM5.024 3.683A2.415 2.415 0 0 0 2.61 6.098v3.22a.805.805 0 1 1-1.61 0v-3.22a4.024 4.024 0 0 1 4.024-4.025h8.05a.805.805 0 0 1 0 1.61h-8.05Zm5.687 6.5a10.864 10.864 0 0 0-2.697 2.776c-.787 1.182-1.112 2.225-1.112 2.797a.805.805 0 0 1-1.61 0c0-1.018.507-2.375 1.382-3.69a12.533 12.533 0 0 1 3.998-3.78c.59-.35 1.223-.165 1.593.21.358.365.532.961.272 1.534a54.015 54.015 0 0 0-1.69 4.263c1.259-.95 2.293-1.317 3.009-1.442a1.17 1.17 0 0 1 1.199.508c.237.364.253.815.091 1.197l-.054.13c.19-.07.386-.114.592-.127.615-.037 1.133.226 1.588.525a.805.805 0 1 1-.885 1.345c-.375-.247-.526-.268-.605-.263-.09.005-.286.056-.713.406-.375.306-.93.445-1.422.178-.551-.3-.688-.919-.515-1.435.074-.219.154-.439.234-.649-.623.255-1.479.754-2.515 1.734-.36.34-.925.522-1.444.258-.568-.289-.712-.913-.558-1.43.41-1.377 1.157-3.393 1.862-5.045Zm10.411-.061c.445 0 .805.36.805.805v8.049A4.024 4.024 0 0 1 17.902 23h-3.22a.805.805 0 0 1 0-1.61h3.22a2.415 2.415 0 0 0 2.415-2.414v-8.05c0-.444.36-.804.805-.804Zm-19.317 4.83c.444 0 .805.36.805.804v3.22a2.415 2.415 0 0 0 2.414 2.414h3.22a.805.805 0 0 1 0 1.61h-3.22A4.024 4.024 0 0 1 1 18.976v-3.22c0-.444.36-.805.805-.805Z" clip-rule="evenodd"/></svg>