<svg xmlns="http://www.w3.org/2000/svg" width="32" height="32" fill="none"><path fill="#000" fill-rule="evenodd" d="M24.895 2a1 1 0 0 1 1 1v3.105H29a1 1 0 1 1 0 2h-3.105v3.105a1 1 0 1 1-2 0V8.105H20.79a1 1 0 1 1 0-2h3.105V3a1 1 0 0 1 1-1ZM7.105 5.368A3.105 3.105 0 0 0 4 8.474v4.105a1 1 0 1 1-2 0V8.474a5.105 5.105 0 0 1 5.105-5.106h10.263a1 1 0 1 1 0 2H7.105Zm7.313 8.239a13.888 13.888 0 0 0-3.522 3.6c-1.006 1.511-1.422 2.846-1.422 3.582a1 1 0 1 1-2 0c0-1.29.643-3.016 1.757-4.69a15.952 15.952 0 0 1 5.089-4.812c.74-.44 1.535-.207 1.999.264.45.458.669 1.207.342 1.926-.732 1.61-1.566 3.732-2.185 5.52 1.634-1.248 2.973-1.724 3.895-1.887.61-.107 1.184.15 1.503.638.297.456.317 1.021.114 1.5l-.093.224a2.62 2.62 0 0 1 .804-.183c.775-.047 1.43.285 2.008.665a1 1 0 1 1-1.099 1.67c-.48-.315-.677-.345-.787-.338-.123.007-.378.077-.924.523-.473.386-1.17.56-1.784.224-.69-.375-.862-1.15-.644-1.798.1-.298.21-.598.32-.883-.803.32-1.918.958-3.272 2.239-.454.429-1.162.656-1.812.325-.71-.361-.89-1.142-.697-1.791.53-1.78 1.5-4.396 2.41-6.518Zm13.214.025a1 1 0 0 1 1 1v10.263A5.105 5.105 0 0 1 23.526 30h-4.105a1 1 0 1 1 0-2h4.105a3.105 3.105 0 0 0 3.106-3.105V14.632a1 1 0 0 1 1-1ZM3 19.79a1 1 0 0 1 1 1v4.105A3.105 3.105 0 0 0 7.105 28h4.105a1 1 0 1 1 0 2H7.105A5.105 5.105 0 0 1 2 24.895V20.79a1 1 0 0 1 1-1Z" clip-rule="evenodd"/></svg>