<svg xmlns="http://www.w3.org/2000/svg" width="20" height="20" fill="none" class="persona-icon" viewBox="0 0 20 20"><path fill="currentColor" fill-rule="evenodd" d="M2.928 8.096c0-.345.28-.625.625-.625H5.37a.625.625 0 1 1 0 1.25H3.553a.625.625 0 0 1-.625-.625m4.78.544a.625.625 0 0 1 0 .884l-2.272 2.272a1.945 1.945 0 1 0 2.75 2.75l2.272-2.271a.625.625 0 0 1 .884.884L9.07 15.43a3.195 3.195 0 0 1-4.518-4.518L6.824 8.64a.625.625 0 0 1 .883 0m-3.61-4.543a.625.625 0 0 1 .884 0L6.345 5.46a.625.625 0 1 1-.884.884L4.098 4.981a.625.625 0 0 1 0-.884m3.998-1.17c.345 0 .625.28.625.626V5.37a.625.625 0 1 1-1.25 0V3.553c0-.345.28-.625.625-.625m2.817 1.625A3.195 3.195 0 0 1 15.43 9.07l-2.271 2.272a.625.625 0 1 1-.884-.884l2.271-2.272a1.945 1.945 0 1 0-2.75-2.75L9.525 7.707a.625.625 0 1 1-.884-.884zm.896 9.357c.345 0 .625.28.625.625v1.818a.625.625 0 1 1-1.25 0v-1.818c0-.345.28-.625.625-.625m1.712-.109a.625.625 0 0 1 .839-.28l1.363.682a.625.625 0 0 1-.56 1.118l-1.362-.681a.625.625 0 0 1-.28-.839m.39-1.992c0-.345.28-.625.625-.625h1.817a.625.625 0 1 1 0 1.25h-1.817a.625.625 0 0 1-.625-.625" clip-rule="evenodd"/></svg>