<svg xmlns="http://www.w3.org/2000/svg" width="24" height="24" fill="none" class="persona-icon" viewBox="0 0 24 24"><path fill="currentColor" fill-rule="evenodd" d="M9.55 2.944a.75.75 0 0 1 .75.75v2.342a.75.75 0 0 1-1.5 0V3.694a.75.75 0 0 1 .75-.75m3.67 2.077a4.063 4.063 0 0 1 5.746 5.746l-2.928 2.928a.75.75 0 1 1-1.06-1.06l2.928-2.93a2.563 2.563 0 1 0-3.625-3.623L11.352 9.01a.75.75 0 1 1-1.06-1.061zm-8.785-.586a.75.75 0 0 1 1.06 0l1.758 1.757a.75.75 0 0 1-1.061 1.06L4.435 5.497a.75.75 0 0 1 0-1.06M2.944 9.55a.75.75 0 0 1 .75-.75h2.342a.75.75 0 0 1 0 1.5H3.694a.75.75 0 0 1-.75-.75m6.065.742a.75.75 0 0 1 0 1.06L6.081 14.28a2.563 2.563 0 1 0 3.625 3.625l2.928-2.928a.75.75 0 0 1 1.061 1.06l-2.928 2.929A4.063 4.063 0 0 1 5.02 13.22l.53.53-.53-.53 2.929-2.928a.75.75 0 0 1 1.06 0m8.092 4.044a.75.75 0 0 1 .75-.75h2.343a.75.75 0 0 1 0 1.5H17.85a.75.75 0 0 1-.75-.75m-.508 2.593a.75.75 0 0 1 1.006-.336l1.757.879a.75.75 0 1 1-.67 1.341l-1.757-.878a.75.75 0 0 1-.336-1.006m-2.257.17a.75.75 0 0 1 .75.75v2.343a.75.75 0 1 1-1.5 0V17.85a.75.75 0 0 1 .75-.75" clip-rule="evenodd"/></svg>