<svg xmlns="http://www.w3.org/2000/svg" width="32" height="32" fill="none" class="persona-icon" viewBox="0 0 32 32"><path fill="currentColor" fill-rule="evenodd" d="M12.733 3.925a1 1 0 0 1 1 1v3.123a1 1 0 1 1-2 0V4.925a1 1 0 0 1 1-1m4.894 2.77a5.418 5.418 0 0 1 7.661 7.66l-3.904 3.904a1 1 0 1 1-1.415-1.414l3.905-3.904a3.417 3.417 0 1 0-4.833-4.833l-3.905 3.905a1 1 0 0 1-1.414-1.415zM5.914 5.912a1 1 0 0 1 1.414 0L9.67 8.256A1 1 0 0 1 8.256 9.67L5.913 7.327a1 1 0 0 1 0-1.414m-1.99 6.82a1 1 0 0 1 1-1h3.124a1 1 0 1 1 0 2H4.925a1 1 0 0 1-1-1m8.089.989a1 1 0 0 1 0 1.414L8.108 19.04a3.417 3.417 0 1 0 4.833 4.833l3.905-3.904a1 1 0 0 1 1.414 1.414l-3.905 3.904a5.418 5.418 0 0 1-7.661-7.661l3.904-3.904a1 1 0 0 1 1.415 0M22.8 19.114a1 1 0 0 1 1-1h3.124a1 1 0 1 1 0 2H23.8a1 1 0 0 1-1-1m-.677 3.457a1 1 0 0 1 1.342-.447l2.342 1.171a1 1 0 0 1-.894 1.79l-2.343-1.172a1 1 0 0 1-.447-1.342m-3.01.228a1 1 0 0 1 1 1v3.124a1 1 0 0 1-2 0v-3.124a1 1 0 0 1 1-1" clip-rule="evenodd"/></svg>