<svg xmlns="http://www.w3.org/2000/svg" width="32" height="32" fill="none" class="persona-icon" viewBox="0 0 32 32"><path fill="currentColor" d="M12.66 3.502a.98.98 0 0 0-.98.98v3.272a.98.98 0 0 0 1.96 0V4.482a.98.98 0 0 0-.98-.98ZM28.502 19.343a.98.98 0 0 1-.98.98H24.25a.98.98 0 0 1 0-1.96h3.27a.98.98 0 0 1 .981.98ZM25.446 25.536a.98.98 0 1 0 .877-1.754l-2.453-1.227a.98.98 0 1 0-.877 1.754l2.453 1.227ZM5.565 5.565a.98.98 0 0 0 0 1.387L8.02 9.405a.98.98 0 1 0 1.386-1.387L6.952 5.565a.98.98 0 0 0-1.387 0ZM18.362 27.521a.98.98 0 0 0 1.961 0v-3.27a.98.98 0 1 0-1.96 0v3.27ZM3.502 12.66c0 .542.44.981.98.981h3.272a.98.98 0 0 0 0-1.96H4.483a.98.98 0 0 0-.98.98ZM25.76 6.383a5.607 5.607 0 0 0-7.928 0l-4.09 4.089a.98.98 0 0 0 1.387 1.386l4.09-4.089a3.646 3.646 0 0 1 5.155 5.156l-4.089 4.09a.98.98 0 0 0 1.387 1.386l4.089-4.09a5.607 5.607 0 0 0 0-7.928ZM11.858 15.13a.98.98 0 1 0-1.386-1.387l-4.09 4.09a5.607 5.607 0 0 0 7.93 7.928l4.089-4.089a.98.98 0 1 0-1.387-1.387l-4.089 4.09a3.646 3.646 0 1 1-5.156-5.156l4.09-4.09Z"/></svg>