<svg xmlns="http://www.w3.org/2000/svg" width="16" height="16" fill="none" class="persona-icon" viewBox="0 0 16 16"><path fill="currentColor" fill-rule="evenodd" d="M8 15A7 7 0 1 1 8 1a7 7 0 0 1 0 14M8 2a6 6 0 0 0-4.472 10q.078-.119.171-.227A3.95 3.95 0 0 1 6.7 10.389h2.6c1.154 0 2.251.506 3.001 1.384q.093.109.17.228A6 6 0 0 0 8 2m3.722 10.706a1.2 1.2 0 0 0-.182-.284A2.95 2.95 0 0 0 9.3 11.39H6.7c-.862 0-1.68.377-2.24 1.033a1.2 1.2 0 0 0-.182.284 5.97 5.97 0 0 0 3.413 1.286 6 6 0 0 0 .631 0 5.97 5.97 0 0 0 3.4-1.286m-6.389-6.15a2.667 2.667 0 1 1 5.334 0 2.667 2.667 0 0 1-5.334 0M8 4.889a1.667 1.667 0 1 0 0 3.333A1.667 1.667 0 0 0 8 4.89" clip-rule="evenodd"/></svg>