<svg xmlns="http://www.w3.org/2000/svg" width="20" height="20" fill="none" class="persona-icon" viewBox="0 0 20 20"><path fill="currentColor" fill-rule="evenodd" d="M6.938 8.354a3.062 3.062 0 1 1 6.124 0 3.062 3.062 0 0 1-6.124 0ZM10 6.477a1.876 1.876 0 1 0 0 3.753 1.876 1.876 0 0 0 0-3.753Z" clip-rule="evenodd"/><path fill="currentColor" fill-rule="evenodd" d="M10.844 17.956A8.001 8.001 0 1 0 4.7 15.994l.007.006a7.972 7.972 0 0 0 6.136 1.956ZM10 3.186a6.815 6.815 0 0 1 5.098 11.336 2.574 2.574 0 0 0-.18-.237 4.52 4.52 0 0 0-3.437-1.585H8.519a4.52 4.52 0 0 0-3.438 1.585 2.542 2.542 0 0 0-.18.237A6.815 6.815 0 0 1 10 3.185Zm4.213 12.17A6.786 6.786 0 0 1 10 16.816a6.786 6.786 0 0 1-4.213-1.458c.051-.108.117-.21.196-.303a3.334 3.334 0 0 1 2.536-1.17h2.962c.976 0 1.903.428 2.536 1.17.08.093.145.194.196.303Z" clip-rule="evenodd"/></svg>