<svg xmlns="http://www.w3.org/2000/svg" width="24" height="24" fill="none" class="persona-icon" viewBox="0 0 24 24"><path fill="currentColor" fill-rule="evenodd" d="M8.154 9.949a3.846 3.846 0 1 1 7.692 0 3.846 3.846 0 0 1-7.692 0ZM12 7.64a2.308 2.308 0 1 0 0 4.615 2.308 2.308 0 0 0 0-4.615Z" clip-rule="evenodd"/><path fill="currentColor" fill-rule="evenodd" d="M18.619 19.497A9.976 9.976 0 0 0 22 12c0-5.523-4.477-10-10-10S2 6.477 2 12s4.477 10 10 10a9.96 9.96 0 0 0 6.614-2.5l.005-.003ZM12 3.538a8.461 8.461 0 0 1 6.357 14.047 3.22 3.22 0 0 0-.204-.265 5.663 5.663 0 0 0-4.307-1.987h-3.692a5.663 5.663 0 0 0-4.307 1.987c-.073.085-.14.174-.204.265A8.461 8.461 0 0 1 12 3.538Zm5.212 15.128a8.425 8.425 0 0 1-5.647 1.785 8.421 8.421 0 0 1-4.777-1.785c.061-.124.138-.24.23-.348a4.125 4.125 0 0 1 3.136-1.446h3.692c1.207 0 2.353.529 3.137 1.447.091.106.168.223.229.347Z" clip-rule="evenodd"/></svg>