<svg xmlns="http://www.w3.org/2000/svg" width="32" height="32" fill="none" class="persona-icon" viewBox="0 0 32 32"><path fill="currentColor" fill-rule="evenodd" d="M25.27 26.49A13.97 13.97 0 0 0 30 16c0-7.732-6.268-14-14-14S2 8.268 2 16a13.97 13.97 0 0 0 4.97 10.699A13.94 13.94 0 0 0 16 30a13.94 13.94 0 0 0 9.27-3.51M16 4c6.627 0 12 5.373 12 12 0 3.074-1.156 5.878-3.057 8.001a4 4 0 0 0-.34-.455 7.9 7.9 0 0 0-6.004-2.768h-5.198a7.9 7.9 0 0 0-6.003 2.768 5 5 0 0 0-.341.456A11.96 11.96 0 0 1 4 16C4 9.373 9.373 4 16 4m7.444 21.413A11.95 11.95 0 0 1 16 28a11.95 11.95 0 0 1-7.444-2.587q.141-.308.363-.569a5.9 5.9 0 0 1 4.482-2.066h5.198c1.725 0 3.362.755 4.482 2.067.148.172.27.364.363.568M10.667 13.11a5.333 5.333 0 1 0 10.666 0 5.333 5.333 0 0 0-10.666 0M16 9.778a3.333 3.333 0 1 1 0 6.667 3.333 3.333 0 0 1 0-6.667" clip-rule="evenodd"/></svg>