<svg xmlns="http://www.w3.org/2000/svg" width="32" height="32" fill="none" class="persona-icon" viewBox="0 0 32 32"><path fill="currentColor" fill-rule="evenodd" d="M11 13.333a5 5 0 1 1 10 0 5 5 0 0 1-10 0m5-3a3 3 0 1 0 0 6 3 3 0 0 0 0-6" clip-rule="evenodd"/><path fill="currentColor" fill-rule="evenodd" d="M24.555 25.789A12.97 12.97 0 0 0 29 16c0-7.18-5.82-13-13-13S3 8.82 3 16s5.82 13 13 13a12.95 12.95 0 0 0 8.555-3.211M16 5c6.075 0 11 4.925 11 11 0 2.782-1.033 5.323-2.736 7.26a4 4 0 0 0-.265-.344 7.36 7.36 0 0 0-5.6-2.583h-4.798c-2.155 0-4.201.944-5.6 2.583q-.141.166-.265.345A10.96 10.96 0 0 1 5 16C5 9.925 9.925 5 16 5m6.776 19.666A10.95 10.95 0 0 1 16 27q-.354 0-.703-.022a10.95 10.95 0 0 1-6.072-2.312q.12-.242.297-.452a5.36 5.36 0 0 1 4.079-1.88h4.798c1.57 0 3.06.687 4.079 1.88q.178.209.297.452" clip-rule="evenodd"/></svg>