<svg xmlns="http://www.w3.org/2000/svg" width="32" height="32" fill="none"><path fill="#000" fill-rule="evenodd" d="M17.569 8.1C17.134 8.779 17 9.287 17 9.45c0 .286-.123.56-.339.749l-.002.002a1.003 1.003 0 0 1-1.073.16.996.996 0 0 1-.588-.907v-.004c0-.163-.133-.671-.568-1.348a6.197 6.197 0 0 0-1.772-1.804c-.753-.493-1.647-.816-2.67-.805-1.016.01-2.236.351-3.645 1.305-1.913 1.504-2.49 3.215-2.314 5.009.184 1.884 1.213 3.952 2.728 5.997 2.803 3.782 6.998 7.127 9.242 8.538 2.244-1.41 6.44-4.756 9.242-8.538 1.515-2.045 2.544-4.113 2.728-5.997.176-1.794-.401-3.505-2.314-5.01-1.41-.953-2.629-1.293-3.644-1.304-1.024-.011-1.918.312-2.67.805a6.197 6.197 0 0 0-1.773 1.804Zm-1.054 20.258c-.3.18-.687.196-1.013.01-2.27-1.297-7.14-5.047-10.353-9.383-1.605-2.165-2.874-4.58-3.11-6.986-.243-2.488.633-4.866 3.096-6.79a1 1 0 0 1 .053-.037C6.878 4.02 8.484 3.516 9.967 3.5c1.481-.016 2.76.457 3.792 1.135A8.18 8.18 0 0 1 16 6.853a8.18 8.18 0 0 1 2.24-2.218c1.033-.678 2.312-1.15 3.793-1.135 1.482.016 3.09.52 4.78 1.672.017.012.035.024.052.038 2.463 1.923 3.34 4.3 3.096 6.789-.235 2.405-1.505 4.821-3.11 6.986-3.204 4.325-8.059 8.067-10.336 9.373Z" clip-rule="evenodd"/><path fill="#000" fill-rule="evenodd" d="M16 12.507c.552 0 1 .446 1 .996v2.96h2.972c.552 0 1 .445 1 .995s-.448.996-1 .996H17v2.96c0 .55-.448.995-1 .995s-1-.446-1-.996v-2.96h-2.972c-.553 0-1-.445-1-.995s.447-.996 1-.996H15v-2.96c0-.55.448-.995 1-.995Z" clip-rule="evenodd"/></svg>