<svg xmlns="http://www.w3.org/2000/svg" width="24" height="24" fill="none" class="persona-icon" viewBox="0 0 24 24"><path fill="currentColor" fill-rule="evenodd" d="M4.056 5.834A3.833 3.833 0 0 1 7.889 2h4.657a2.8 2.8 0 0 1 2.05.892l4.594 4.92a2.8 2.8 0 0 1 .754 1.915v.574A7.389 7.389 0 0 0 11.574 22H7.89a3.833 3.833 0 0 1-3.833-3.833zm11.027 2.333h2.386l-3.691-3.954v2.649c0 .72.584 1.305 1.305 1.305" clip-rule="evenodd"/><path fill="currentColor" fill-rule="evenodd" d="M17.139 11.25a5.889 5.889 0 1 1 0 11.778 5.889 5.889 0 0 1 0-11.778m0 3.083a.75.75 0 0 0-.75.75v2.367l1.761 1.76a.75.75 0 1 0 1.06-1.06l-1.321-1.322v-1.745a.75.75 0 0 0-.75-.75" clip-rule="evenodd"/></svg>