<svg xmlns="http://www.w3.org/2000/svg" width="16" height="16" fill="none" class="persona-icon" viewBox="0 0 16 16"><path fill="currentColor" fill-rule="evenodd" d="M2.701 3.284a1.7 1.7 0 0 0-1.7 1.7v6.032a1.7 1.7 0 0 0 1.7 1.7h7.086a1.7 1.7 0 0 0 1.7-1.7v-.65l2.727 1.908a.5.5 0 0 0 .787-.41V4.136a.5.5 0 0 0-.787-.41l-2.726 1.91v-.651a1.7 1.7 0 0 0-1.7-1.7H2.7Zm7.787 3.298a.53.53 0 0 0 0 .013v4.421a.7.7 0 0 1-.7.7H2.7a.7.7 0 0 1-.7-.7V4.984a.7.7 0 0 1 .7-.7h7.086a.7.7 0 0 1 .7.7v1.598Zm1 2.563v-2.29L14 5.095v5.81l-2.513-1.76Z" clip-rule="evenodd"/></svg>