<svg xmlns="http://www.w3.org/2000/svg" width="32" height="32" fill="none" class="persona-icon" viewBox="0 0 32 32"><path fill="currentColor" fill-rule="evenodd" d="M27.374 7.74a1 1 0 0 1 .626.926v14.667a1 1 0 0 1-1.628.778l-3.26-2.633v.633a2.22 2.22 0 0 1-2.223 2.222H6.222A2.22 2.22 0 0 1 4 22.111V9.889c0-1.227.995-2.222 2.222-2.222H20.89c1.227 0 2.222.995 2.222 2.222v1.374l3.169-3.29a1 1 0 0 1 1.094-.234M23.11 18.906 26 21.24V11.147l-2.889 3zm-2-5.171V9.889c0-.123-.1-.223-.222-.223H6.222c-.123 0-.222.1-.222.223V22.11c0 .123.1.222.222.222H20.89c.123 0 .222-.1.222-.222v-8.375" clip-rule="evenodd"/></svg>