<svg xmlns="http://www.w3.org/2000/svg" width="32" height="32" fill="none"><path fill="#000" fill-rule="evenodd" d="M20.5 17a2 2 0 0 0-2 2v.75a1 1 0 1 1-2 0V19a4 4 0 0 1 4-4h.75a1 1 0 1 1 0 2h-.75Zm4.25-1a1 1 0 0 1 1-1h.75a4 4 0 0 1 4 4v.75a1 1 0 1 1-2 0V19a2 2 0 0 0-2-2h-.75a1 1 0 0 1-1-1Zm-.616 3.009c.433.46.637 1.21.303 1.916-.072.15-.143.304-.213.458a5.4 5.4 0 0 1 .752-.26c.34-.088.852-.121 1.295.164.25.16.472.426.549.787l.003.014a1 1 0 0 1 .05 2h-.005a.462.462 0 0 0-.076.032 1.472 1.472 0 0 1-.962.135 1.359 1.359 0 0 1-.82-.533 1.456 1.456 0 0 1-.208-.405 5.87 5.87 0 0 0-.811.487c-.445.315-1.135.501-1.744.118-.69-.433-.732-1.227-.513-1.789.09-.23.189-.472.293-.719-.456.472-.772.942-.955 1.333a1 1 0 0 1-1.811-.848c.483-1.031 1.445-2.206 2.851-3.135.749-.495 1.567-.24 2.022.245ZM17.5 23.25a1 1 0 0 1 1 1V25a2 2 0 0 0 2 2h.75a1 1 0 1 1 0 2h-.75a4 4 0 0 1-4-4v-.75a1 1 0 0 1 1-1Zm12 0a1 1 0 0 1 1 1V25a4 4 0 0 1-4 4h-.75a1 1 0 1 1 0-2h.75a2 2 0 0 0 2-2v-.75a1 1 0 0 1 1-1Z" clip-rule="evenodd"/><path fill="#000" fill-rule="evenodd" d="M7.532 8c0-1.657 1.365-3 3.049-3h5.758v4.333c0 2.025 1.668 3.667 3.726 3.667h5.419c.404 0 .77-.236.932-.601a.988.988 0 0 0-.19-1.081l-6.783-7.153A3.754 3.754 0 0 0 16.719 3h-6.138C7.775 3 5.5 5.239 5.5 8v16c0 2.761 2.275 5 5.08 5h2.71c.562 0 1.016-.448 1.016-1s-.454-1-1.016-1h-2.71c-1.683 0-3.048-1.343-3.048-3V8Zm15.499 3h-2.966c-.936 0-1.694-.746-1.694-1.667V6.414L23.031 11Z" clip-rule="evenodd"/></svg>