<svg xmlns="http://www.w3.org/2000/svg" width="80" height="80" fill="none" class="persona-ilustration" viewBox="0 0 80 80"><g clip-path="url(#3s_a)"><path fill="#D3EDFF" d="m12.833 13.981 3.02.618a.47.47 0 0 0 .465-.174l1.66-2.174a.47.47 0 0 1 .443-.178l4.074.664a.47.47 0 0 0 .435-.166l1.647-2.02a.47.47 0 0 1 .431-.166l4.028.634a.47.47 0 0 0 .494-.257l.75-1.568a.47.47 0 0 1 .47-.261l3.916.419a.48.48 0 0 0 .423-.183l1.194-1.593a.46.46 0 0 1 .415-.182l3.987.352a.46.46 0 0 0 .464-.274l.51-1.144a.46.46 0 0 1 .49-.27l3.082.431c.162.021.32-.041.423-.161l.98-1.183c.194-.236.489-.153.737.03 5.746 4.206 21.285 24.528 19.642 54.333-36.185 17.369-32.55 15.427-32.55 15.427s-.694-34.932-22.074-60.182c-.286-.336.017-.842.449-.755z"/><path fill="#82C2F1" fill-rule="evenodd" d="M47.862 4.506c.411.3.86.672 1.339 1.108a.83.83 0 1 1-1.119 1.226q-.571-.52-1.046-.88l-.009.01a.8.8 0 0 1-.317.236.8.8 0 0 1-.172.355l-.25.302-.005.006a1.3 1.3 0 0 1-.239.217.8.8 0 0 1-.293.13.8.8 0 0 1-.305.098 1.3 1.3 0 0 1-.32-.002h-.01l-.77-.109a.83.83 0 0 1-.696-.643.83.83 0 0 1-.846.428l-.5-.07-.014.034a.8.8 0 0 1-.184.261.8.8 0 0 1-.071.311l-.127.283a1.3 1.3 0 0 1-.215.337.8.8 0 0 1-.33.227.8.8 0 0 1-.355.176q-.193.042-.392.026h-.005l-.996-.088a.83.83 0 1 1 .146-1.653l.736.065.022-.048a.8.8 0 0 1 .183-.262.8.8 0 0 1 .072-.31l.127-.284q.087-.198.23-.352a.8.8 0 0 1 .347-.225.8.8 0 0 1 .373-.171 1.3 1.3 0 0 1 .415-.008l.769.107a.83.83 0 0 1 .695.644.83.83 0 0 1 .846-.428l.57.08.114-.137a.8.8 0 0 1 .317-.236.8.8 0 0 1 .172-.355l.244-.294c.133-.161.305-.292.51-.37.194-.073.4-.07.58-.002a.83.83 0 0 1 .471.073q.171.084.308.187M36.776 6.568l.992.088a.83.83 0 1 1-.146 1.652l-.798-.07-.176.234a.83.83 0 0 1-.431.3.83.83 0 0 1-.166.497l-.306.408a1.3 1.3 0 0 1-.234.233.8.8 0 0 1-.29.145.8.8 0 0 1-.306.113q-.162.025-.334.01l-.004-.001-.979-.105a.83.83 0 1 1 .177-1.65l.775.083.174-.232a.83.83 0 0 1 .431-.298c0-.174.054-.349.166-.498l.296-.395.002-.002q.1-.135.23-.238a.8.8 0 0 1 .293-.15.8.8 0 0 1 .309-.114q.16-.025.325-.01m13.62 1.408a.83.83 0 0 1 1.17.076c.683.776 1.399 1.65 2.133 2.619a.83.83 0 1 1-1.321 1.003 45 45 0 0 0-2.057-2.527.83.83 0 0 1 .075-1.17m-19.955.15q.194-.038.396-.018l.98.105a.83.83 0 1 1-.177 1.65l-.722-.078-.077.16a.83.83 0 0 1-.298.338.83.83 0 0 1-.077.446l-.19.398-.004.006a1.3 1.3 0 0 1-.235.33.8.8 0 0 1-.343.211.8.8 0 0 1-.373.164 1.3 1.3 0 0 1-.416 0h-.002L27.9 11.68a.83.83 0 1 1 .259-1.639l.74.117.07-.146a.83.83 0 0 1 .299-.339.83.83 0 0 1 .077-.445l.19-.398q.089-.18.223-.322a.8.8 0 0 1 .328-.213q.151-.125.355-.168m-5.642 1.431q.166-.018.336.008h.003l1.007.159a.83.83 0 1 1-.259 1.639l-.798-.126-.28.343a.83.83 0 0 1-.656.305c.053.24 0 .5-.167.705l-.409.502-.002.002q-.11.135-.248.234a.8.8 0 0 1-.307.137.8.8 0 0 1-.318.1q-.164.017-.33-.008l-.01-.001-1.018-.166a.83.83 0 0 1 .267-1.638l.81.132.279-.342a.83.83 0 0 1 .656-.306c-.053-.24 0-.5.167-.705l.41-.501.001-.002q.109-.135.245-.232a.8.8 0 0 1 .304-.138.8.8 0 0 1 .317-.1m-6.597 1.69q.168-.02.34.005l.012.002 1.019.166a.83.83 0 1 1-.267 1.638l-.801-.13-.283.37a.83.83 0 0 1-.7.326.83.83 0 0 1-.13.761l-.415.543a1.3 1.3 0 0 1-.258.255.8.8 0 0 1-.325.146.8.8 0 0 1-.344.106q-.18.015-.366-.023l-.752-.154a.83.83 0 0 1-.65-.666.83.83 0 0 1-.364.305l.043.174-.27-.054.385.472a.83.83 0 0 1-1.289 1.044 74 74 0 0 0-1.03-1.244l.554-.47a.83.83 0 0 1-.568-.96.8.8 0 0 1 .176-.115l-.047-.187a.83.83 0 0 1 .345-.287c.2-.09.422-.128.649-.106a.83.83 0 0 1 .772.616l.001.004.001.004m-.874 1.042a.83.83 0 0 1-.455-.01l-.553.47a1.3 1.3 0 0 1-.306-.732.83.83 0 0 1 .291-.7.8.8 0 0 1 .129-.301l-.163-.653 2.046.419a.83.83 0 0 1 .65.666.83.83 0 0 1 .86-.357l.531.109.277-.363a.83.83 0 0 1 .7-.325.83.83 0 0 1 .13-.762l.413-.54.001-.002q.109-.141.247-.247a.8.8 0 0 1 .313-.147.8.8 0 0 1 .325-.108m36.294 1.93a.83.83 0 0 1 1.151.227 65 65 0 0 1 1.795 2.834.83.83 0 0 1-1.425.851 63 63 0 0 0-1.748-2.76.83.83 0 0 1 .227-1.152M14.934 17.92a.83.83 0 0 1 1.16.172 80 80 0 0 1 1.908 2.684.83.83 0 1 1-1.372.934 79 79 0 0 0-1.868-2.629.83.83 0 0 1 .172-1.16m43.035.897a.83.83 0 0 1 1.123.34q.767 1.436 1.508 2.991a.83.83 0 0 1-1.499.713 71 71 0 0 0-1.473-2.922.83.83 0 0 1 .341-1.122m-39.313 4.452a.83.83 0 0 1 1.143.264 87 87 0 0 1 1.689 2.823.83.83 0 1 1-1.44.825 85 85 0 0 0-1.656-2.77.83.83 0 0 1 .264-1.142m42.225 1.49a.83.83 0 0 1 1.087.442 75 75 0 0 1 1.232 3.117.83.83 0 1 1-1.556.575 74 74 0 0 0-1.205-3.048.83.83 0 0 1 .442-1.087m-38.932 4.13a.83.83 0 0 1 1.12.35 94 94 0 0 1 1.479 2.938.83.83 0 1 1-1.495.72A93 93 0 0 0 21.6 30.01a.83.83 0 0 1 .349-1.12m41.299 2.054a.83.83 0 0 1 1.043.537q.504 1.568.952 3.211a.83.83 0 1 1-1.6.437 75 75 0 0 0-.932-3.142.83.83 0 0 1 .537-1.043M24.83 34.74a.83.83 0 0 1 1.094.424 102 102 0 0 1 1.277 3.03.83.83 0 0 1-1.54.62q-.596-1.486-1.256-2.98a.83.83 0 0 1 .425-1.094m40.23 2.57a.83.83 0 0 1 .992.627q.365 1.611.67 3.286a.83.83 0 0 1-1.634.295 75 75 0 0 0-.654-3.215.83.83 0 0 1 .626-.992m-37.745 3.456a.83.83 0 0 1 1.065.493q.573 1.562 1.084 3.096a.83.83 0 1 1-1.574.526 108 108 0 0 0-1.068-3.05.83.83 0 0 1 .493-1.065m38.996 3.047a.83.83 0 0 1 .934.71q.224 1.635.381 3.325a.83.83 0 0 1-1.652.153 76 76 0 0 0-.373-3.254.83.83 0 0 1 .71-.934m-36.887 3.119a.83.83 0 0 1 1.034.554q.484 1.606.905 3.16a.83.83 0 0 1-1.602.435 115 115 0 0 0-.891-3.115.83.83 0 0 1 .554-1.034m37.571 3.471a.83.83 0 0 1 .87.788q.083 1.647.096 3.341a.83.83 0 1 1-1.66.013 77 77 0 0 0-.093-3.272.83.83 0 0 1 .787-.87m-35.82 2.806a.83.83 0 0 1 1.002.612q.397 1.644.73 3.205a.83.83 0 1 1-1.623.346q-.327-1.538-.72-3.161a.83.83 0 0 1 .612-1.002m35.94 3.809a.83.83 0 0 1 .8.857 81 81 0 0 1-.074 1.679l-.027.49-2.106 1.01a.83.83 0 0 1-.718-1.496l1.22-.585q.027-.58.048-1.154a.83.83 0 0 1 .857-.801m-34.533 2.556a.83.83 0 0 1 .967.664c.21 1.13.395 2.214.557 3.243a.83.83 0 0 1-1.639.259q-.239-1.525-.55-3.199a.83.83 0 0 1 .665-.967m30.247 1.941a.83.83 0 0 1-.39 1.107l-3.267 1.566a.83.83 0 0 1-.716-1.497l3.266-1.565a.83.83 0 0 1 1.107.39m-6.524 3.126a.83.83 0 0 1-.39 1.107l-3.278 1.566a.83.83 0 0 1-.715-1.497l3.276-1.566a.83.83 0 0 1 1.107.39m-22.66 1.374a.83.83 0 0 1 .929.716c.156 1.202.278 2.294.373 3.26a.83.83 0 0 1-1.65.164c-.095-.951-.215-2.027-.369-3.21a.83.83 0 0 1 .717-.93m16.111 1.756a.83.83 0 0 1-.392 1.106l-3.278 1.561a.83.83 0 1 1-.713-1.498l3.277-1.561a.83.83 0 0 1 1.106.392m-6.548 3.116a.83.83 0 0 1-.394 1.105c-1.283.608-2.366 1.12-3.28 1.55a.83.83 0 0 1-.707-1.501c.912-.43 1.994-.94 3.276-1.548a.83.83 0 0 1 1.105.394m-8.873 1.6a.83.83 0 0 1 .879.777l.026.449.316-.145a.83.83 0 1 1 .694 1.507c-1.032.475-1.448.656-1.6.706h-.002a1 1 0 0 1-.321.048.834.834 0 0 1-.792-.741.83.83 0 0 1 .086-.468l-.002-.069c-.011-.268-.03-.667-.062-1.185a.83.83 0 0 1 .778-.88M50.269 16.073a1.867 1.867 0 0 1-1.713 2.01c-2.845.226-6.984 1.098-10.885 2.29-3.974 1.216-7.344 2.657-8.868 3.882a1.867 1.867 0 0 1-2.339-2.91c2.135-1.716 6.129-3.323 10.115-4.542 4.06-1.24 8.478-2.188 11.681-2.443a1.867 1.867 0 0 1 2.009 1.713M53.818 23.456a.83.83 0 0 1-.753.9l-1.071.092c-1.398.118-2.94.247-3.984.434a.83.83 0 1 1-.292-1.634c1.13-.202 2.786-.34 4.19-.458l1.01-.087a.83.83 0 0 1 .9.753M45.696 24.474a.83.83 0 0 1-.609 1.003c-4.26 1.04-8.019 2.768-13.174 5.538a.83.83 0 1 1-.785-1.462c5.19-2.789 9.098-4.596 13.566-5.688a.83.83 0 0 1 1.002.61M51.104 31.688q-.403.08-.768.146a.83.83 0 0 1-.296-1.632q.33-.061.715-.137c1.326-.258 3.137-.61 5.278-.61a.83.83 0 1 1 0 1.658c-1.966 0-3.602.318-4.929.575M48.246 31.388a.83.83 0 0 1-.623.994c-4.007.92-7.648 2.3-12.743 5.319a.83.83 0 1 1-.845-1.428c5.226-3.096 9.026-4.545 13.217-5.508a.83.83 0 0 1 .994.623M54.14 38.877q-.393.092-.809.18a.83.83 0 1 1-.338-1.625q.365-.076.74-.165c1.25-.29 2.66-.615 4.882-.443a.83.83 0 1 1-.128 1.654c-1.954-.15-3.12.117-4.346.399M51.238 38.62a.83.83 0 0 1-.608 1.003c-4.179 1.024-7.888 2.682-12.78 5.458a.83.83 0 0 1-.82-1.443c4.964-2.816 8.821-4.552 13.204-5.627a.83.83 0 0 1 1.004.609M56.307 46.425l-.728.156a.83.83 0 0 1-.338-1.625q.317-.066.669-.144c1.256-.274 2.823-.616 4.39-.616a.83.83 0 1 1 0 1.66c-1.371 0-2.732.295-3.993.569M53.194 46.278a.83.83 0 0 1-.577 1.021c-3.804 1.058-7.486 2.632-12.614 5.171a.83.83 0 1 1-.736-1.487c5.16-2.555 8.952-4.183 12.905-5.282a.83.83 0 0 1 1.022.577M61.164 53.621c-1.184 0-2.855.174-4.136.684a.83.83 0 1 1-.613-1.542c1.555-.618 3.461-.801 4.749-.801a.83.83 0 0 1 0 1.66M54.505 54.043a.83.83 0 0 1-.577 1.022c-3.804 1.057-7.487 2.632-12.614 5.17a.83.83 0 0 1-.737-1.486c5.16-2.555 8.953-4.184 12.906-5.283a.83.83 0 0 1 1.022.577" clip-rule="evenodd"/></g><defs><clipPath id="3s_a"><path fill="#fff" d="M0 0h80v80H0z"/></clipPath></defs></svg>