<svg xmlns="http://www.w3.org/2000/svg" width="20" height="20" fill="none" class="persona-icon" viewBox="0 0 20 20"><path fill="currentColor" d="M11.224 6.776a.6.6 0 0 0-.848.848l.976.976H7.199a.6.6 0 0 0-.6.6V12a.6.6 0 1 0 1.2 0V9.8h3.553l-.976.976a.6.6 0 0 0 .848.848l2-2a.6.6 0 0 0 0-.848z"/><path fill="currentColor" fill-rule="evenodd" d="M12.139 3.255a3.025 3.025 0 0 0-4.278 0L3.255 7.861a3.025 3.025 0 0 0 0 4.278l4.606 4.606a3.025 3.025 0 0 0 4.278 0l4.606-4.606a3.025 3.025 0 0 0 0-4.278zm-3.394.884a1.775 1.775 0 0 1 2.51 0l4.606 4.606a1.775 1.775 0 0 1 0 2.51l-4.606 4.606a1.775 1.775 0 0 1-2.51 0l-4.606-4.606a1.775 1.775 0 0 1 0-2.51z" clip-rule="evenodd"/></svg>