<svg xmlns="http://www.w3.org/2000/svg" width="20" height="20" fill="none" class="persona-icon" viewBox="0 0 20 20"><path fill="currentColor" fill-rule="evenodd" d="M11.566 2.648a2.214 2.214 0 0 0-3.13 0L2.649 8.435a2.214 2.214 0 0 0 0 3.13l5.787 5.787a2.214 2.214 0 0 0 3.13 0l5.787-5.787a2.214 2.214 0 0 0 0-3.13zm-2.282.849a1.014 1.014 0 0 1 1.434 0l5.786 5.786a1.014 1.014 0 0 1 0 1.434l-5.786 5.786a1.014 1.014 0 0 1-1.434 0l-5.786-5.786a1.014 1.014 0 0 1 0-1.434zm1.948 3.255 2.017 2.017a.6.6 0 0 1 0 .848l-2.017 2.017a.6.6 0 0 1-.848-.848l.992-.993h-3.6v2.224a.6.6 0 0 1-1.2 0V9.193a.6.6 0 0 1 .6-.6h4.2l-.992-.993a.6.6 0 0 1 .848-.848" clip-rule="evenodd"/></svg>