<svg xmlns="http://www.w3.org/2000/svg" width="24" height="24" fill="none" class="persona-icon" viewBox="0 0 24 24"><path fill="currentColor" d="m13.53 7.97 2.5 2.5a.75.75 0 0 1 0 1.06l-2.5 2.5a.75.75 0 0 1-1.06-1.06l1.22-1.22H9.25v2.75a.75.75 0 1 1-1.5 0V11a.75.75 0 0 1 .75-.75h5.19l-1.22-1.22a.75.75 0 0 1 1.06-1.06"/><path fill="currentColor" fill-rule="evenodd" d="m14.652 3.591 5.757 5.757a3.75 3.75 0 0 1 0 5.304l-5.757 5.757a3.75 3.75 0 0 1-5.304 0l-5.757-5.757a3.75 3.75 0 0 1 0-5.304l5.757-5.757a3.75 3.75 0 0 1 5.304 0m-4.243 1.06L4.652 10.41a2.25 2.25 0 0 0 0 3.182l5.757 5.757a2.25 2.25 0 0 0 3.182 0l5.757-5.757a2.25 2.25 0 0 0 0-3.182l-5.757-5.757a2.25 2.25 0 0 0-3.182 0" clip-rule="evenodd"/></svg>