<svg xmlns="http://www.w3.org/2000/svg" width="24" height="24" fill="none" class="persona-icon" viewBox="0 0 24 24"><path fill="currentColor" d="M13.53 7.97a.75.75 0 0 0-1.06 1.06l1.22 1.22H8.5a.75.75 0 0 0-.75.75v3.5a.75.75 0 1 0 1.5 0v-2.75h4.44l-1.22 1.22a.75.75 0 0 0 1.06 1.06l2.5-2.5a.75.75 0 0 0 0-1.06z"/><path fill="currentColor" fill-rule="evenodd" d="M14.652 3.591a3.75 3.75 0 0 0-5.304 0L3.591 9.348a3.75 3.75 0 0 0 0 5.304l5.757 5.757a3.75 3.75 0 0 0 5.304 0l5.757-5.757a3.75 3.75 0 0 0 0-5.304zm-4.243 1.06a2.25 2.25 0 0 1 3.182 0l5.757 5.758a2.25 2.25 0 0 1 0 3.182l-5.757 5.757a2.25 2.25 0 0 1-3.182 0l-5.757-5.757a2.25 2.25 0 0 1 0-3.182z" clip-rule="evenodd"/></svg>