<svg xmlns="http://www.w3.org/2000/svg" width="32" height="32" fill="none" class="persona-icon" viewBox="0 0 32 32"><path fill="currentColor" d="M18.126 10.332a1 1 0 0 0-1.415 1.414l1.837 1.836h-7.51a1 1 0 0 0-1 1v4.962a1 1 0 1 0 2 0v-3.962h6.51L16.71 17.42a1 1 0 1 0 1.415 1.414l3.543-3.543a1 1 0 0 0 0-1.415z"/><path fill="currentColor" fill-rule="evenodd" d="M18.713 3.123a3.835 3.835 0 0 0-5.423 0L3.125 13.288a3.835 3.835 0 0 0 0 5.424L13.29 28.877a3.835 3.835 0 0 0 5.423 0l10.165-10.165a3.835 3.835 0 0 0 0-5.424zm-4.009 1.414a1.835 1.835 0 0 1 2.595 0l10.165 10.165a1.835 1.835 0 0 1 0 2.595L17.299 27.462a1.835 1.835 0 0 1-2.595 0L4.539 17.298a1.835 1.835 0 0 1 0-2.595z" clip-rule="evenodd"/></svg>