<svg xmlns="http://www.w3.org/2000/svg" width="16" height="16" fill="none" class="persona-icon" viewBox="0 0 16 16"><path fill="currentColor" fill-rule="evenodd" d="M2.041 4.199a2.255 2.255 0 0 1 2.254-2.255h7.019A2.255 2.255 0 0 1 13.568 4.2v1.009a.5.5 0 1 1-1 0v-1.01c0-.692-.562-1.254-1.254-1.254H4.296c-.693 0-1.255.562-1.255 1.255v7.026c0 .692.562 1.254 1.254 1.254h.371a.5.5 0 1 1 0 1h-.37a2.255 2.255 0 0 1-2.255-2.254zm4.8 7.28a2.31 2.31 0 0 1 1.757-.81h1.363a2.31 2.31 0 0 1 1.757.81c.217.254.336.577.336.912v.079c0 .814-.66 1.474-1.475 1.474H7.98c-.814 0-1.475-.66-1.475-1.474v-.08c0-.334.12-.657.336-.911m.64-3.097a1.8 1.8 0 1 1 3.6 0 1.8 1.8 0 0 1-3.6 0m1.117 3.286a1.31 1.31 0 0 0-.996.46.4.4 0 0 0-.097.262v.08c0 .262.213.474.475.474h2.6a.475.475 0 0 0 .474-.474v-.08a.4.4 0 0 0-.097-.262 1.31 1.31 0 0 0-.996-.46zm.682-4.086a.8.8 0 1 0 .001 1.6.8.8 0 0 0 0-1.6m2.202.455a.5.5 0 0 1 .5-.5 1.475 1.475 0 0 1 0 2.95.5.5 0 1 1 0-1 .475.475 0 0 0 0-.95.5.5 0 0 1-.5-.5m.596 3.146a.5.5 0 0 1 .593-.384l.166.035c.409.087.769.325 1.009.667l-.41.288.41-.288.02.028a.97.97 0 0 1-.232 1.347l-.168.12a.5.5 0 0 1-.58-.815l.144-.102-.002-.003a.66.66 0 0 0-.4-.264l-.165-.035a.5.5 0 0 1-.385-.594" clip-rule="evenodd"/></svg>