<svg xmlns="http://www.w3.org/2000/svg" width="32" height="32" fill="none"><path fill="#000" fill-rule="evenodd" d="M18.192 28.46C17.884 29.317 17.099 30 16 30 8.268 30 2 23.732 2 16S8.268 2 16 2s14 6.268 14 14v.014c0 1.085 0 1.866-.012 2.454-.052 2.545-1.615 5.309-4.222 6.164-1.513.496-3.928.657-8.617.344l.025.043c.157.263.362.556.594.86l-.795.607.795-.607c.59.773.72 1.757.424 2.58Zm-1.294-4.047.002.011a.057.057 0 0 1-.002-.01Zm-.376.527a.053.053 0 0 1-.014.003s.004-.002.014-.003Zm-.212 2.843a.749.749 0 0 0-.132-.69 11.36 11.36 0 0 1-.722-1.05c-.202-.338-.396-.724-.491-1.108-.088-.354-.155-.985.308-1.492.44-.483 1.073-.528 1.52-.496 5.033.36 7.2.162 8.35-.215 1.62-.532 2.807-2.402 2.845-4.304C28 17.863 28 17.102 28 16c0-6.627-5.373-12-12-12S4 9.373 4 16s5.373 12 12 12c.11 0 .167-.03.199-.053a.344.344 0 0 0 .111-.164Zm6.19-8.45a1.167 1.167 0 1 0 0-2.333 1.167 1.167 0 0 0 0 2.333Zm3.167-1.166a3.167 3.167 0 1 1-6.334 0 3.167 3.167 0 0 1 6.334 0ZM9.192 19.333a1.167 1.167 0 1 0 0-2.333 1.167 1.167 0 0 0 0 2.333Zm3.167-1.166a3.167 3.167 0 1 1-6.333 0 3.167 3.167 0 0 1 6.333 0Zm10.628-7.713a3.167 3.167 0 1 1-6.333 0 3.167 3.167 0 0 1 6.333 0Zm-3.166 1.167a1.167 1.167 0 1 0 0-2.334 1.167 1.167 0 0 0 0 2.334Zm-4.912-1.167a3.167 3.167 0 1 1-6.334 0 3.167 3.167 0 0 1 6.334 0Zm-3.167 1.167a1.167 1.167 0 1 0 0-2.334 1.167 1.167 0 0 0 0 2.334Z" clip-rule="evenodd"/></svg>