<svg xmlns="http://www.w3.org/2000/svg" width="150" height="150" fill="none" class="persona-ilustration" viewBox="0 0 150 150"><g clip-path="url(#1u_a)"><g clip-path="url(#1v_b)"><rect width="125" height="125" x="12.64" y="12.5" fill="#D3EDFF" rx="62.5"/><path fill="#7AC5E8" d="M124.249 112.677c-17.389-14.722-36.333-54.6-36.013-81.323.033-2.78-2.964-4.86-5.424-3.567L43.249 48.566a3.37 3.37 0 0 0-1.486 1.555L29.568 76.134a3.25 3.25 0 0 0-.314 1.429c.336 22.945 16.06 50.592 35.434 69.557.934.914 2.32 1.178 3.539.707 9.976-3.849 15.447-5.768 55.669-28.829 2.256-1.293 2.338-4.641.353-6.321"/><path fill="#4793CC" d="M51.217 66.754c-4.005-6.21-9.486-16.736-9.486-16.736l-12.16 26.227s12.528.552 20.982-5.123c1.43-.96 1.598-2.92.664-4.368"/><path fill="#DFF1FA" fill-rule="evenodd" d="M85.933 66.379c.31.148.545.418.65.745 1.884 5.866 3.36 9.499 4.758 12.256 1.29 2.544 2.526 4.367 4.02 6.572l.379.558a1.25 1.25 0 0 1-.526 1.842c-5.621 2.508-15.788 6.193-24.963 9.431a2761 2761 0 0 1-8.699 3.05c-5.293 1.85-9.329 3.259-10.534 3.769a1.25 1.25 0 0 1-1.487-.401c-2.71-3.614-6.254-9.96-8.188-20.026a1.25 1.25 0 0 1 .78-1.403L84.945 66.34a1.25 1.25 0 0 1 .988.04m-41.81 18.91 20.261 1.272c-3.986 3.88-8.17 8.22-13.77 14.848-2.201-3.274-4.82-8.458-6.49-16.12m10.442 15.345c1.78-.63 3.952-1.389 6.361-2.23 2.616-.914 5.512-1.926 8.493-2.978 6.89-2.432 14.264-5.09 19.848-7.304l-21.503-1.35c-3.958 3.793-7.936 7.782-13.199 13.862m15.669-16.211 22.013 1.381c-1.082-1.625-2.096-3.243-3.136-5.293-1.305-2.574-2.643-5.809-4.248-10.608-5.776 6.138-10.066 10.2-14.047 13.969zm10.474-13.78L48.374 83.051l18.454 1.158c.754-.719 1.509-1.433 2.274-2.157 3.416-3.235 7.028-6.654 11.606-11.409M99.235 96.46a1.25 1.25 0 0 1-.44 1.713c-1.329.784-3.935 1.959-7.2 3.322-3.293 1.376-7.337 2.977-11.598 4.621a1249 1249 0 0 1-24.012 8.941 1.25 1.25 0 1 1-.847-2.352c6.059-2.184 15.458-5.643 23.96-8.922 4.25-1.64 8.27-3.231 11.534-4.595 3.293-1.375 5.736-2.486 6.89-3.168a1.25 1.25 0 0 1 1.713.44M79.956 41.838a1.25 1.25 0 0 1-.44 1.712c-5.015 2.963-8.76 4.853-19.638 10.118a1.25 1.25 0 1 1-1.09-2.25c10.881-5.267 14.54-7.116 19.456-10.02a1.25 1.25 0 0 1 1.712.44M73.74 53.717a1.25 1.25 0 0 1-.455 1.708c-3.626 2.1-6.37 3.478-10.398 5.247a1.25 1.25 0 0 1-1.006-2.289c3.95-1.735 6.613-3.073 10.151-5.121a1.25 1.25 0 0 1 1.708.455M105.103 105.657a1.25 1.25 0 0 1-.441 1.712c-1.328.785-3.934 1.959-7.198 3.323-3.294 1.375-7.338 2.977-11.6 4.62a1256 1256 0 0 1-24.01 8.942 1.25 1.25 0 0 1-.849-2.352 1246 1246 0 0 0 23.96-8.923c4.251-1.639 8.272-3.231 11.535-4.594 3.293-1.376 5.736-2.486 6.891-3.168a1.25 1.25 0 0 1 1.712.44M110.377 114.458a1.25 1.25 0 0 1-.44 1.713c-1.328.784-3.934 1.959-7.199 3.322-3.293 1.376-7.338 2.977-11.599 4.621a1249 1249 0 0 1-24.011 8.941 1.25 1.25 0 1 1-.848-2.352c6.06-2.184 15.458-5.643 23.96-8.922 4.251-1.64 8.271-3.231 11.535-4.595 3.292-1.375 5.736-2.486 6.89-3.168a1.25 1.25 0 0 1 1.712.44" clip-rule="evenodd"/></g><path fill="#1835B7" d="M142.965 21.682a.7.7 0 0 0 .123-.15c.513-.839-.846-2.604-3.036-3.942-2.085-1.275-4.171-1.703-4.808-1.017l-.055-.036-36.977 55.88s-4.94 14.797-4.182 15.361c.887.662 12-10.187 12-10.187l36.977-55.881z"/><path fill="#CBD3FF" d="m97.933 72.255 15.934-23.824 8.063 5.393-15.933 23.824zM116.247 44.91l-1.195 1.787 8.063 5.392 1.195-1.786zM118.402 41.716l-1.195 1.787 8.064 5.393 1.195-1.787z"/><path fill="#F8F8F8" d="m97.937 85.85-3.194-2.236-1.757 6.947z"/></g><defs><clipPath id="1u_a"><path fill="#fff" d="M0 0h150v150H0z"/></clipPath><clipPath id="1v_b"><rect width="125" height="125" x="12.64" y="12.5" fill="#fff" rx="62.5"/></clipPath></defs></svg>