<svg xmlns="http://www.w3.org/2000/svg" width="240" height="240" fill="none" class="persona-ilustration" viewBox="0 0 240 240"><g clip-path="url(#6fH1OLX4Vf27LH6mLAtNFgCwbsVarmJN33tOAq450hM_a)"><g clip-path="url(#6fH1OLX4Vf27LH6mLAtNFgCwbsVarmJN33tOAq450hM_b)"><rect width="200" height="200" x="20.225" y="20" fill="#D3EDFF" rx="100"/><path fill="#7AC5E8" d="M198.799 180.283c-27.824-23.555-58.134-87.36-57.621-130.117.053-4.447-4.742-7.774-8.679-5.707l-63.3 33.246a5.4 5.4 0 0 0-2.379 2.488l-19.512 41.621a5.2 5.2 0 0 0-.502 2.287c.538 36.713 25.696 80.947 56.695 111.29 1.494 1.463 3.711 1.885 5.662 1.133 15.962-6.159 24.715-9.229 89.07-46.127 3.609-2.07 3.741-7.426.566-10.114"/><path fill="#4793CC" d="M81.948 106.806c-6.41-9.935-15.177-26.777-15.177-26.777l-19.458 41.964s20.045.882 33.572-8.198c2.289-1.536 2.557-4.673 1.063-6.989"/><path fill="#DFF1FA" fill-rule="evenodd" d="M137.493 106.206c.496.238.872.669 1.04 1.192 3.014 9.386 5.375 15.198 7.612 19.61 2.065 4.07 4.041 6.986 6.433 10.514l.605.895a1.997 1.997 0 0 1-.841 2.947c-8.993 4.012-25.26 9.908-39.941 15.089a4219 4219 0 0 1-13.917 4.88c-8.47 2.959-14.927 5.215-16.855 6.03a2 2 0 0 1-2.38-.641c-4.336-5.783-10.006-15.937-13.1-32.042a2 2 0 0 1 1.248-2.244l68.516-26.293a2 2 0 0 1 1.58.063m-66.896 30.257 32.417 2.034c-6.377 6.209-13.073 13.152-22.032 23.757-3.522-5.238-7.711-13.532-10.385-25.791m16.707 24.552c2.848-1.009 6.322-2.222 10.178-3.57 4.185-1.462 8.819-3.08 13.588-4.764 11.024-3.891 22.823-8.143 31.757-11.686l-34.405-2.159c-6.333 6.068-12.698 12.451-21.118 22.179m25.07-25.939 35.221 2.211c-1.731-2.601-3.353-5.189-5.017-8.47-2.089-4.118-4.229-9.294-6.797-16.971-9.242 9.82-16.106 16.318-22.476 22.349zm16.759-22.047-51.734 19.853 29.526 1.853c1.206-1.15 2.414-2.294 3.638-3.453 5.467-5.175 11.245-10.646 18.57-18.253M158.776 154.337a2 2 0 0 1-.705 2.739c-2.125 1.256-6.295 3.134-11.518 5.316-5.27 2.202-11.741 4.763-18.558 7.393-13.638 5.259-28.705 10.805-38.418 14.307a2 2 0 0 1-1.357-3.763c9.695-3.495 24.733-9.03 38.335-14.276 6.802-2.624 13.235-5.171 18.456-7.352 5.268-2.2 9.178-3.977 11.025-5.069a2 2 0 0 1 2.74.705M127.93 66.94a2 2 0 0 1-.705 2.74c-8.024 4.74-14.016 7.764-31.42 16.189a2 2 0 1 1-1.743-3.6c17.409-8.427 23.264-11.386 31.129-16.033a2 2 0 0 1 2.739.704M117.984 85.948a2 2 0 0 1-.728 2.733c-5.801 3.358-10.193 5.564-16.637 8.394a2 2 0 0 1-1.609-3.662c6.321-2.776 10.58-4.916 16.241-8.194a2 2 0 0 1 2.733.729M168.164 169.051a2 2 0 0 1-.704 2.739c-2.125 1.256-6.295 3.135-11.518 5.317-5.27 2.201-11.741 4.763-18.559 7.392-13.637 5.26-28.704 10.805-38.418 14.307a2 2 0 0 1-1.356-3.763c9.694-3.495 24.733-9.03 38.335-14.276 6.802-2.623 13.235-5.17 18.456-7.351 5.268-2.201 9.178-3.978 11.025-5.069a2 2 0 0 1 2.739.704M176.604 183.134a2 2 0 0 1-.705 2.739c-2.125 1.256-6.294 3.134-11.518 5.316-5.27 2.201-11.74 4.763-18.558 7.393-13.637 5.259-28.705 10.805-38.418 14.306a2 2 0 0 1-1.357-3.763c9.695-3.494 24.733-9.029 38.335-14.275 6.803-2.624 13.235-5.171 18.456-7.352 5.268-2.2 9.178-3.978 11.025-5.069a2 2 0 0 1 2.74.705" clip-rule="evenodd"/></g><path fill="#1835B7" d="M228.744 34.692q.116-.108.197-.24c.821-1.343-1.354-4.167-4.857-6.309-3.336-2.04-6.674-2.724-7.693-1.626l-.089-.058-59.163 89.41s-7.903 23.673-6.691 24.576c1.42 1.058 19.2-16.299 19.2-16.299l59.164-89.41z"/><path fill="#CBD3FF" d="m156.693 115.607 25.494-38.117 12.902 8.629-25.494 38.117zM185.995 71.856l-1.912 2.859 12.901 8.628 1.912-2.858zM189.444 66.746l-1.912 2.858 12.901 8.629 1.912-2.859z"/><path fill="#F8F8F8" d="m156.698 137.359-5.11-3.577-2.81 11.115z"/></g><defs><clipPath id="6fH1OLX4Vf27LH6mLAtNFgCwbsVarmJN33tOAq450hM_a"><path fill="#fff" d="M0 0h240v240H0z"/></clipPath><clipPath id="6fH1OLX4Vf27LH6mLAtNFgCwbsVarmJN33tOAq450hM_b"><rect width="200" height="200" x="20.225" y="20" fill="#fff" rx="100"/></clipPath></defs></svg>