<svg xmlns="http://www.w3.org/2000/svg" width="24" height="24" fill="none" class="persona-icon" viewBox="0 0 24 24"><path fill="currentColor" fill-rule="evenodd" d="M12.167 3.84a.75.75 0 0 1 .75-.75h.542a3.5 3.5 0 0 1 1.941.588l.267.177.266-.177a3.5 3.5 0 0 1 1.941-.588h.543a.75.75 0 0 1 0 1.5h-.543a2 2 0 0 0-1.11.336l-.347.232v6.182H17.5a.75.75 0 0 1 0 1.5h-1.083v6.182l.348.232a2 2 0 0 0 1.11.336h.542a.75.75 0 0 1 0 1.5h-.543a3.5 3.5 0 0 1-1.941-.588l-.266-.177-.267.177a3.5 3.5 0 0 1-1.941.588h-.542a.75.75 0 1 1 0-1.5h.542a2 2 0 0 0 1.11-.336l.348-.232V12.84h-1.084a.75.75 0 1 1 0-1.5h1.084V5.158l-.349-.232a2 2 0 0 0-1.109-.336h-.542a.75.75 0 0 1-.75-.75" clip-rule="evenodd"/><path fill="currentColor" d="M13.417 7.673h-8.75C3.747 7.673 3 8.42 3 9.34v5.5c0 .92.746 1.667 1.667 1.667h8.75V14.3a2.25 2.25 0 0 1 0-4.423zM17.917 16.507V14.3a2.25 2.25 0 0 0 0-4.423V7.673h1.416c.92 0 1.667.746 1.667 1.667v5.5c0 .92-.746 1.667-1.667 1.667z"/></svg>