<svg xmlns="http://www.w3.org/2000/svg" width="20" height="20" fill="none" class="persona-icon" viewBox="0 0 20 20"><path fill="currentColor" fill-rule="evenodd" d="M4.375 7.95c0-3.078 2.526-5.558 5.625-5.558s5.625 2.48 5.625 5.558a5.5 5.5 0 0 1-.802 2.861l-3.593 6.141c-.55.94-1.91.94-2.46 0l-3.593-6.14a5.5 5.5 0 0 1-.802-2.862M10 3.642c-2.424 0-4.375 1.936-4.375 4.308 0 .81.227 1.568.622 2.215l.006.01 3.596 6.146a.175.175 0 0 0 .302 0l3.602-6.156a4.24 4.24 0 0 0 .622-2.215c0-2.372-1.95-4.308-4.375-4.308" clip-rule="evenodd"/><path fill="currentColor" d="M11.645 7.95a1.644 1.644 0 1 1-3.29 0 1.644 1.644 0 0 1 3.29 0"/></svg>