<svg xmlns="http://www.w3.org/2000/svg" width="24" height="24" fill="none" class="persona-icon" viewBox="0 0 24 24"><path fill="currentColor" fill-rule="evenodd" d="M5 9.417C5 5.587 8.143 2.5 12 2.5s7 3.087 7 6.917c0 1.301-.364 2.52-.998 3.56l-4.492 7.677a1.75 1.75 0 0 1-3.02 0l-4.492-7.677A6.83 6.83 0 0 1 5 9.417M12 4C8.953 4 6.5 6.435 6.5 9.417c0 1.02.285 1.971.782 2.785l.007.012 4.495 7.682a.25.25 0 0 0 .432 0l4.502-7.694a5.33 5.33 0 0 0 .782-2.785C17.5 6.435 15.047 4 12 4" clip-rule="evenodd"/><path fill="currentColor" d="M14.056 9.417a2.056 2.056 0 1 1-4.112 0 2.056 2.056 0 0 1 4.112 0"/></svg>