<svg xmlns="http://www.w3.org/2000/svg" width="32" height="32" fill="none"><path fill="#000" fill-rule="evenodd" d="M3.002 11.336a8.333 8.333 0 1 1 16.276 2.528l9.431 9.431a1 1 0 0 1 .293.707v4a1 1 0 0 1-1 1h-4a1 1 0 0 1-.707-.293l-9.431-9.43a8.333 8.333 0 0 1-10.862-7.942Zm8.334-6.334a6.333 6.333 0 1 0 2.405 12.194 1 1 0 0 1 1.087.218l9.588 9.588h2.586v-2.585l-9.588-9.589a1 1 0 0 1-.218-1.087 6.333 6.333 0 0 0-5.86-8.739Z" clip-rule="evenodd"/><path fill="#000" fill-rule="evenodd" d="M21.376 21.295a1 1 0 0 1 0 1.414l-1.333 1.334a1 1 0 0 1-1.415-1.415l1.334-1.333a1 1 0 0 1 1.414 0Zm2.667 2.667a1 1 0 0 1 0 1.414l-1.334 1.333a1 1 0 1 1-1.414-1.414l1.333-1.333a1 1 0 0 1 1.415 0Z" clip-rule="evenodd"/><path fill="#000" d="M10.669 9.336a1.333 1.333 0 1 1-2.667 0 1.333 1.333 0 0 1 2.667 0Z"/></svg>