<svg xmlns="http://www.w3.org/2000/svg" width="32" height="32" fill="none"><path fill="#000" fill-rule="evenodd" d="M7.8 8.8a1 1 0 0 1 1-1h5.4a1 1 0 0 1 1 1v5.4a1 1 0 0 1-1 1H8.8a1 1 0 0 1-1-1V8.8Zm2 1v3.4h3.4V9.8H9.8ZM7.8 17.8a1 1 0 0 1 1-1h5.4a1 1 0 0 1 1 1v5.4a1 1 0 0 1-1 1H8.8a1 1 0 0 1-1-1v-5.4Zm2 1v3.4h3.4v-3.4H9.8ZM16.8 8.8a1 1 0 0 1 1-1h5.4a1 1 0 0 1 1 1v5.4a1 1 0 0 1-1 1h-5.4a1 1 0 0 1-1-1V8.8Zm2 1v3.4h3.4V9.8h-3.4ZM19.693 17.8a1 1 0 0 1 1-1h2.508a1 1 0 0 1 1 1v1.861a1 1 0 1 1-2 0V18.8h-1.508a1 1 0 0 1-1-1ZM22.2 22.2V22a1 1 0 1 1 2 0v1.2a1 1 0 0 1-1 1H22a1 1 0 1 1 0-2h.2ZM18.767 22.2h.823a1 1 0 1 1 0 2H17.8a1 1 0 0 1-1-1v-.744a1 1 0 0 1 1.967-.256Z" clip-rule="evenodd"/><path fill="#000" fill-rule="evenodd" d="M17.8 16.8a1 1 0 0 1 1 1v1.293h1.845a1 1 0 0 1 1 1v.947a1 1 0 0 1-1.999.053H17.8a1 1 0 0 1-1-1V17.8a1 1 0 0 1 1-1ZM7.6 5A2.6 2.6 0 0 0 5 7.6v3.9a1 1 0 1 1-2 0V7.6A4.6 4.6 0 0 1 7.6 3h3.9a1 1 0 1 1 0 2H7.6Zm11.9-1a1 1 0 0 1 1-1h3.9A4.6 4.6 0 0 1 29 7.6v3.9a1 1 0 1 1-2 0V7.6A2.6 2.6 0 0 0 24.4 5h-3.9a1 1 0 0 1-1-1ZM4 19.5a1 1 0 0 1 1 1v3.9A2.6 2.6 0 0 0 7.6 27h3.9a1 1 0 1 1 0 2H7.6A4.6 4.6 0 0 1 3 24.4v-3.9a1 1 0 0 1 1-1Zm24 0a1 1 0 0 1 1 1v3.9a4.6 4.6 0 0 1-4.6 4.6h-3.9a1 1 0 1 1 0-2h3.9a2.6 2.6 0 0 0 2.6-2.6v-3.9a1 1 0 0 1 1-1Z" clip-rule="evenodd"/></svg>