<svg xmlns="http://www.w3.org/2000/svg" width="16" height="16" fill="none" class="persona-icon" viewBox="0 0 16 16"><path fill="currentColor" fill-rule="evenodd" d="M3 4.142A2.43 2.43 0 0 1 5.43 1.714H8.34c.495 0 .968.205 1.306.567L12.52 5.36c.296.317.466.73.48 1.162l-.028.004c-.7.1-1.222.477-1.53.785l-3.855 3.854a1.5 1.5 0 0 0-.439 1.06v1.607q.001.237.07.454h-1.79A2.43 2.43 0 0 1 3 11.857zm6.143-.935v1.579c0 .434.352.785.786.785h1.421z" clip-rule="evenodd"/><path fill="currentColor" fill-rule="evenodd" d="m8.295 11.871 3.06-3.06a.4.4 0 0 1 .048-.048l.745-.745c.21-.21.545-.443.966-.503.45-.064.925.08 1.347.503.422.422.567.896.503 1.347-.06.42-.293.755-.503.965l-3.854 3.854a.5.5 0 0 1-.353.147H8.648a.5.5 0 0 1-.5-.5v-1.606a.5.5 0 0 1 .146-.354m3.437-2.023-2.584 2.584v.899h.899l2.584-2.585z" clip-rule="evenodd"/></svg>