<svg xmlns="http://www.w3.org/2000/svg" width="32" height="32" fill="none"><path fill="#000" fill-rule="evenodd" d="M15.81 4.5c-1.067 0-1.879.958-1.703 2.011l.11.659L16 9.4l1.784-2.23.11-.659A1.727 1.727 0 0 0 16.19 4.5h-.38Zm3.56 3.887L18.08 10h3.602a1.33 1.33 0 0 0-1.71-1.914l-.601.301ZM17 12v3.5h8.8a.2.2 0 0 0 .2-.2v-3.1a.2.2 0 0 0-.2-.2H17Zm9.5 5.386A2.201 2.201 0 0 0 28 15.3v-3.1a2.2 2.2 0 0 0-2.2-2.2h-1.983a3.33 3.33 0 0 0-3.905-3.99A3.73 3.73 0 0 0 16.19 2.5h-.38a3.73 3.73 0 0 0-3.722 3.51A3.33 3.33 0 0 0 8.184 10H6.2A2.2 2.2 0 0 0 4 12.2v3.1c0 .97.628 1.794 1.5 2.086V25.5a4 4 0 0 0 4 4h13a4 4 0 0 0 4-4v-8.114Zm-2 .114H17v10h5.5a2 2 0 0 0 2-2v-8Zm-9.5 10v-10H7.5v8a2 2 0 0 0 2 2H15Zm0-12V12H6.2a.2.2 0 0 0-.2.2v3.1c0 .11.09.2.2.2H15ZM13.92 10h-3.601a1.33 1.33 0 0 1 1.708-1.914l.602.301L13.92 10Z" clip-rule="evenodd"/></svg>