<svg xmlns="http://www.w3.org/2000/svg" width="16" height="16" fill="none" class="persona-icon" viewBox="0 0 16 16"><path fill="currentColor" fill-rule="evenodd" d="M2 4.839v6.348c0 1.185.961 2.146 2.147 2.146H6.79a.5.5 0 1 0 0-1H4.147A1.147 1.147 0 0 1 3 11.187V5.82l3.277 2.403a.5.5 0 0 0 .591-.806L3.021 4.595a1.15 1.15 0 0 1 1.126-.928h7.706c.559 0 1.024.4 1.126.928L9.988 6.783a.5.5 0 1 0 .59.807L13 5.819v3.7a.5.5 0 1 0 1 0V4.814a2.147 2.147 0 0 0-2.147-2.146H4.147A2.147 2.147 0 0 0 2 4.813v.026m6.71 7.452a3.573 3.573 0 0 1-1.397-2.227c-.083-.5-.038-1.085.348-1.492.412-.434 1.04-.494 1.726-.299.82.233 1.35.731 1.647 1.356.186.391.274.819.3 1.243.126-.017.257-.023.384-.005.176.026.41.112.55.351.07.121.095.247.097.364l.015-.013.04-.035c.143-.124.323-.279.509-.398.165-.106.44-.257.752-.22.393.046.615.343.718.655q.031.092.056.154a.5.5 0 0 1 .266.916.8.8 0 0 1-.279.125.65.65 0 0 1-.499-.09.94.94 0 0 1-.3-.336 2.4 2.4 0 0 1-.163-.37l-.01.007a4 4 0 0 0-.393.311l-.047.041c-.12.105-.263.23-.387.312a1.2 1.2 0 0 1-.49.198.72.72 0 0 1-.6-.184.82.82 0 0 1-.24-.525 1.3 1.3 0 0 1 0-.236l-.023.005c-.109.691-.476 1.475-.908 2.036-.227.295-.504.572-.815.732-.326.167-.757.228-1.138-.061a1.06 1.06 0 0 1-.43-.794c-.016-.286.074-.56.19-.79.128-.254.312-.503.522-.73m.79-.688c.196-.135.398-.251.593-.334q.128-.055.25-.103c.001-.415-.064-.796-.212-1.108-.176-.369-.48-.67-1.017-.823-.514-.146-.681-.024-.727.025-.072.076-.149.274-.087.639.058.345.228.743.49 1.087.204.268.447.483.71.617m.49 1.07a.5.5 0 0 1-.291.046c-.272.245-.498.517-.617.754-.073.144-.087.236-.084.28.001.02.002.03.032.054a.3.3 0 0 0 .08-.03c.125-.064.295-.212.48-.452.148-.193.285-.418.4-.651m1.376-1.087v.005zm.942.452v-.001zm1.85-.224.003-.002z" clip-rule="evenodd"/></svg>