<svg xmlns="http://www.w3.org/2000/svg" width="16" height="16" fill="none" class="persona-icon" viewBox="0 0 16 16"><path fill="currentColor" d="M2 4.7a2.15 2.15 0 0 1 2.15-2.15h7.7A2.15 2.15 0 0 1 14 4.7v4.675a.5.5 0 0 1-1 0V5.688l-2.37 1.741a.5.5 0 0 1-.593-.806l2.939-2.158a1.15 1.15 0 0 0-1.126-.915h-7.7a1.15 1.15 0 0 0-1.126.914l3.938 2.879a.5.5 0 1 1-.59.807L3 5.685v5.365c0 .642.521 1.167 1.15 1.167h2.517a.5.5 0 1 1 0 1H4.15C2.956 13.217 2 12.23 2 11.05z"/><path fill="currentColor" fill-rule="evenodd" d="M8.107 11.733c.174.205.376.397.604.558a4 4 0 0 0-.25.3c-.209.277-.394.609-.448.955-.059.38.047.78.416 1.06.381.289.812.228 1.138.06.31-.159.588-.436.815-.731.432-.562.8-1.345.908-2.036l.022-.005q-.01.12 0 .236c.016.165.075.37.242.525.178.168.404.21.598.184.182-.023.35-.104.491-.198a4 4 0 0 0 .387-.312l.047-.04c.146-.128.276-.237.393-.312l.01-.006q.075.213.163.369a.94.94 0 0 0 .3.335c.16.103.338.126.5.09a.8.8 0 0 0 .278-.124.5.5 0 0 0-.265-.916 3 3 0 0 1-.056-.154c-.104-.312-.326-.61-.719-.655-.311-.037-.587.114-.752.22a5 5 0 0 0-.508.398l-.056.048a.7.7 0 0 0-.207-.505c-.217-.216-.51-.229-.685-.219q-.067.004-.138.014a3.5 3.5 0 0 0-.251-1.132c-.284-.673-.826-1.22-1.697-1.467-.71-.202-1.357-.13-1.764.341-.375.433-.396 1.044-.289 1.56.112.536.385 1.099.773 1.559m.765-.645a2.64 2.64 0 0 1-.559-1.118c-.08-.39-.01-.614.066-.702.044-.05.205-.183.735-.033.568.162.877.489 1.049.894.126.3.181.656.18 1.037q-.123.048-.25.103a3.4 3.4 0 0 0-.593.334 2.1 2.1 0 0 1-.628-.515m.827 1.631a.5.5 0 0 0 .29-.045 4 4 0 0 1-.4.651c-.184.24-.354.388-.478.452a.3.3 0 0 1-.08.03c-.028-.02-.042-.032-.03-.108.018-.113.095-.29.259-.507.124-.165.277-.327.439-.473" clip-rule="evenodd"/></svg>