<svg xmlns="http://www.w3.org/2000/svg" width="20" height="20" fill="none" class="persona-icon" viewBox="0 0 20 20"><path fill="currentColor" fill-rule="evenodd" d="M2.975 6.32v7.388a2.54 2.54 0 0 0 2.541 2.541h3.077a.625.625 0 0 0 0-1.25H5.516a1.29 1.29 0 0 1-1.291-1.291v-6.16l3.744 2.746a.625.625 0 1 0 .74-1.008L4.253 6.02a1.29 1.29 0 0 1 1.262-1.018h8.968c.62 0 1.137.436 1.262 1.018l-3.458 2.53a.625.625 0 1 0 .738 1.009l2.749-2.011v4.221a.625.625 0 1 0 1.25 0V6.292a2.54 2.54 0 0 0-2.541-2.541H5.516a2.54 2.54 0 0 0-2.541 2.54v.029M10.763 15a4 4 0 0 1-.805-.796 4.2 4.2 0 0 1-.8-1.795c-.098-.587-.046-1.286.417-1.774.495-.521 1.245-.588 2.05-.359.966.275 1.594.863 1.944 1.6.213.448.317.934.351 1.417a1.6 1.6 0 0 1 .413 0 .9.9 0 0 1 .67.43.9.9 0 0 1 .115.355c.164-.143.376-.325.594-.465.194-.125.526-.307.904-.263.48.056.748.42.872.791q.03.089.054.151a.624.624 0 0 1 .302 1.145c-.05.033-.174.114-.338.15a.8.8 0 0 1-.614-.11 1.13 1.13 0 0 1-.364-.406 3 3 0 0 1-.174-.385c-.124.084-.262.2-.418.336l-.054.048a5 5 0 0 1-.455.367 1.4 1.4 0 0 1-.59.237.89.89 0 0 1-.731-.226 1 1 0 0 1-.292-.615 5.8 5.8 0 0 1-1.008 2.099c-.266.346-.593.674-.962.864-.39.2-.91.275-1.371-.075a1.27 1.27 0 0 1-.517-.956c-.02-.343.088-.669.226-.941.144-.286.348-.566.58-.824m.98-.857c.223-.153.453-.285.676-.38l.264-.109c-.001-.466-.077-.892-.243-1.24-.198-.42-.542-.76-1.156-.935-.59-.168-.765-.023-.803.017-.07.074-.16.287-.09.706.067.395.262.851.562 1.246.229.3.5.541.79.695m.483 1.375a.6.6 0 0 1-.235.019c-.306.278-.56.585-.694.85-.083.165-.095.264-.093.304v.005q-.002.006.006.014a.4.4 0 0 0 .063-.026c.136-.07.33-.237.542-.514.15-.196.29-.42.411-.652m5.404-1.04" clip-rule="evenodd"/></svg>