<svg xmlns="http://www.w3.org/2000/svg" width="20" height="20" fill="none" class="persona-icon" viewBox="0 0 20 20"><path fill="currentColor" d="M2.975 6.16A2.545 2.545 0 0 1 5.52 3.615h8.96a2.545 2.545 0 0 1 2.545 2.545v5.44a.625.625 0 1 1-1.25 0V7.394l-2.69 1.977a.625.625 0 1 1-.74-1.008l3.397-2.495a1.295 1.295 0 0 0-1.262-1.003H5.52c-.614 0-1.129.428-1.262 1.002L8.818 9.2a.625.625 0 0 1-.738 1.01L4.225 7.39v6.16c0 .723.588 1.313 1.295 1.313h2.928a.625.625 0 0 1 0 1.25H5.52c-1.414 0-2.545-1.166-2.545-2.564z"/><path fill="currentColor" fill-rule="evenodd" d="M10.092 14.371c.194.23.418.445.67.63q-.14.155-.26.316c-.245.324-.466.717-.53 1.13-.07.454.058.938.501 1.274.461.35.98.275 1.37.075.37-.19.697-.518.963-.864a5.8 5.8 0 0 0 1.008-2.1 1 1 0 0 0 .292.616c.22.207.495.257.731.226.22-.029.421-.126.59-.237a5 5 0 0 0 .455-.367l.054-.048c.156-.136.294-.252.418-.336q.082.22.174.385c.08.14.194.297.364.406a.8.8 0 0 0 .614.11c.164-.036.288-.117.338-.15a.625.625 0 0 0-.302-1.145 3 3 0 0 1-.054-.15c-.124-.372-.392-.736-.872-.792-.378-.044-.71.138-.904.263-.218.14-.43.322-.595.465a.85.85 0 0 0-.248-.528c-.267-.265-.623-.28-.83-.268l-.119.011a4 4 0 0 0-.292-1.285c-.335-.795-.975-1.44-2.002-1.732-.835-.237-1.608-.155-2.097.41-.45.52-.472 1.246-.346 1.851.131.633.453 1.293.909 1.834m.955-.806a3 3 0 0 1-.64-1.282c-.093-.447-.008-.692.067-.779.035-.04.201-.198.81-.025.648.184.999.555 1.193 1.015.14.335.205.732.207 1.16q-.132.053-.265.11a4 4 0 0 0-.676.379 2.4 2.4 0 0 1-.696-.578m.944 1.972a.6.6 0 0 0 .235-.02c-.12.234-.26.458-.41.653-.213.277-.407.444-.543.514a.4.4 0 0 1-.064.026c-.007-.009-.008-.026-.001-.072.019-.122.104-.32.293-.57.139-.186.309-.367.49-.531" clip-rule="evenodd"/></svg>