<svg xmlns="http://www.w3.org/2000/svg" width="24" height="24" fill="none" class="persona-icon" viewBox="0 0 24 24"><path fill="currentColor" fill-rule="evenodd" d="M1 5.786C1 3.696 2.718 2 4.837 2h14.326C21.282 2 23 3.695 23 5.786v11.612a.76.76 0 0 1-.767.757.76.76 0 0 1-.768-.757V5.786c0-1.254-1.03-2.271-2.302-2.271H4.837c-1.271 0-2.302 1.017-2.302 2.271v12.116c0 1.255 1.03 2.272 2.302 2.272H8.93c.424 0 .768.34.768.758a.76.76 0 0 1-.768.757H4.837C2.718 21.689 1 19.994 1 17.902z" clip-rule="evenodd"/><path fill="currentColor" fill-rule="evenodd" d="M5.237 7.365a.774.774 0 0 1 1.07-.175l5.318 3.76a.65.65 0 0 0 .79.004l5.281-3.686a.774.774 0 0 1 1.07.18.75.75 0 0 1-.183 1.056l-5.28 3.686a2.2 2.2 0 0 1-2.573-.008l-5.317-3.76a.75.75 0 0 1-.176-1.058M16.4 15.688a10.3 10.3 0 0 0-2.573 2.612c-.75 1.112-1.06 2.093-1.06 2.631a.76.76 0 0 1-.767.758.76.76 0 0 1-.768-.758c0-.958.484-2.234 1.318-3.47.85-1.261 2.12-2.564 3.811-3.557a1.24 1.24 0 0 1 1.52.198c.34.342.507.903.26 1.442a50 50 0 0 0-1.613 4.011c1.2-.894 2.186-1.239 2.87-1.357a1.12 1.12 0 0 1 1.143.479c.226.342.24.766.087 1.125l-.052.123q.27-.1.564-.12c.587-.035 1.081.213 1.514.494.354.23.453.7.22 1.049a.774.774 0 0 1-1.063.216c-.358-.232-.501-.252-.577-.247-.086.005-.272.053-.68.382-.358.288-.887.42-1.356.167-.525-.282-.656-.864-.49-1.35.07-.205.146-.412.223-.61-.595.24-1.41.71-2.399 1.631-.343.32-.882.492-1.377.243-.54-.272-.678-.859-.531-1.345.39-1.296 1.102-3.192 1.775-4.747" clip-rule="evenodd"/></svg>