<svg xmlns="http://www.w3.org/2000/svg" width="24" height="24" fill="none" class="persona-icon" viewBox="0 0 24 24"><path fill="currentColor" d="M6.406 4.075A3.157 3.157 0 0 0 3.25 7.232v9.325c0 1.734 1.403 3.182 3.156 3.182H10.1a.734.734 0 0 0 0-1.469H6.406c-.923 0-1.688-.77-1.688-1.713V8.68l4.949 3.62a.734.734 0 1 0 .866-1.186l-5.78-4.228a1.69 1.69 0 0 1 1.653-1.341h11.302c.814 0 1.493.576 1.652 1.342l-4.313 3.17a.735.735 0 0 0 .87 1.184l3.479-2.557v5.415a.734.734 0 1 0 1.468 0V7.232a3.157 3.157 0 0 0-3.156-3.157z"/><path fill="currentColor" fill-rule="evenodd" d="M12.214 17.56c.255.302.552.584.886.82a6 6 0 0 0-.367.44c-.306.407-.578.894-.657 1.402-.087.558.07 1.147.61 1.557.56.424 1.192.335 1.671.09.456-.235.863-.642 1.197-1.076.633-.824 1.172-1.974 1.331-2.989l.034-.008a2 2 0 0 0 0 .346 1.2 1.2 0 0 0 .354.773c.262.246.593.307.878.27.268-.035.512-.153.72-.291.183-.12.393-.305.569-.458l.069-.06c.215-.187.405-.348.576-.457l.015-.01q.11.314.24.542c.098.174.236.363.44.493.236.151.496.185.733.133.197-.044.346-.142.408-.183a.734.734 0 0 0-.389-1.346 4 4 0 0 1-.082-.226c-.152-.457-.478-.895-1.055-.962-.456-.053-.86.167-1.104.323a7 7 0 0 0-.745.584l-.082.072a1.04 1.04 0 0 0-.304-.741c-.319-.318-.748-.337-1.006-.323q-.098.006-.203.02a5.1 5.1 0 0 0-.368-1.661c-.417-.989-1.211-1.79-2.49-2.154-1.044-.297-1.992-.19-2.59.5-.55.636-.581 1.532-.424 2.29a5.34 5.34 0 0 0 1.135 2.29m1.122-.947a3.9 3.9 0 0 1-.82-1.642c-.118-.571-.014-.902.098-1.03.063-.074.3-.27 1.077-.049.834.237 1.289.718 1.54 1.313.186.44.267.963.265 1.522q-.182.073-.366.151c-.28.12-.577.288-.871.492a3 3 0 0 1-.923-.757m1.214 2.396a.73.73 0 0 0 .427-.068 5.7 5.7 0 0 1-.587.957c-.27.353-.52.57-.703.663a.4.4 0 0 1-.118.044c-.04-.03-.06-.046-.043-.158.026-.166.14-.425.38-.744a5 5 0 0 1 .644-.694" clip-rule="evenodd"/></svg>