<svg xmlns="http://www.w3.org/2000/svg" width="32" height="32" fill="none" class="persona-icon" viewBox="0 0 32 32"><path fill="currentColor" fill-rule="evenodd" d="M4 9.678v-.051a4.293 4.293 0 0 1 4.293-4.294h15.414A4.293 4.293 0 0 1 28 9.627v9.411a1 1 0 1 1-2 0v-7.4l-4.843 3.542a1 1 0 1 1-1.181-1.614l5.982-4.376a2.294 2.294 0 0 0-2.251-1.857H8.293c-1.117 0-2.048.8-2.251 1.857l7.694 5.644a1 1 0 1 1-1.183 1.613L6 11.64v10.733a2.293 2.293 0 0 0 2.293 2.294h5.289a1 1 0 0 1 0 2H8.293A4.293 4.293 0 0 1 4 22.373zm13.422 14.905a6.6 6.6 0 0 1-1.435-1.402c-.7-.921-1.185-2.015-1.36-3.052-.168-1-.077-2.171.696-2.986.824-.868 2.078-.986 3.45-.596 1.64.465 2.7 1.461 3.295 2.71.372.783.549 1.638.601 2.486.25-.034.514-.046.767-.008.352.052.82.224 1.098.702.142.241.193.493.197.726l.029-.025.082-.071c.283-.247.645-.557 1.016-.795.33-.213.882-.513 1.504-.44.785.091 1.23.686 1.437 1.31q.06.183.112.307a.999.999 0 0 1 .53 1.833 1.7 1.7 0 0 1-.557.25 1.3 1.3 0 0 1-.997-.181c-.279-.178-.467-.435-.602-.672a4.7 4.7 0 0 1-.326-.737l-.02.012c-.233.15-.492.368-.785.622l-.094.082c-.24.21-.526.46-.774.624-.284.188-.618.35-.982.397-.389.05-.839-.032-1.197-.368-.332-.313-.45-.72-.483-1.052a2.6 2.6 0 0 1 0-.471l-.045.011c-.217 1.381-.951 2.948-1.814 4.07-.455.591-1.01 1.145-1.63 1.464-.654.335-1.514.457-2.277-.121a2.11 2.11 0 0 1-.859-1.59c-.034-.57.146-1.117.38-1.579.255-.506.624-1.004 1.043-1.46M19 23.207a7 7 0 0 1 1.186-.67q.254-.107.5-.206c.002-.828-.129-1.59-.425-2.215-.351-.738-.959-1.34-2.035-1.646-1.026-.291-1.36-.047-1.453.05-.144.152-.297.548-.174 1.277.116.691.457 1.488.979 2.174.408.537.896.967 1.422 1.236m.978 2.14a1 1 0 0 1-.581.092c-.543.488-.995 1.033-1.235 1.506-.145.289-.172.473-.167.56.002.04.003.061.064.109a.6.6 0 0 0 .162-.06c.248-.128.588-.424.957-.904a8 8 0 0 0 .8-1.303m2.754-2.174-.001.009zm1.883.903v-.003zm4.44-.334.002.003z" clip-rule="evenodd"/></svg>