<svg xmlns="http://www.w3.org/2000/svg" width="32" height="32" fill="none" class="persona-icon" viewBox="0 0 32 32"><path fill="currentColor" d="M8.319 5.1C5.933 5.1 4 7.063 4 9.485v12.951c0 2.409 1.92 4.42 4.319 4.42h5.054c.555 0 1.005-.457 1.005-1.02 0-.564-.45-1.02-1.005-1.02H8.32c-1.263 0-2.31-1.071-2.31-2.38V11.494l6.772 5.028a.995.995 0 0 0 1.403-.221 1.03 1.03 0 0 0-.218-1.425L6.057 9.003C6.277 7.94 7.205 7.14 8.32 7.14h15.466c1.113 0 2.043.8 2.26 1.866l-5.901 4.403a1.03 1.03 0 0 0-.215 1.426.994.994 0 0 0 1.404.218l4.761-3.552v7.52c0 .563.45 1.02 1.005 1.02s1.004-.457 1.004-1.02V9.485c0-2.422-1.934-4.385-4.318-4.385z"/><path fill="currentColor" fill-rule="evenodd" d="M16.267 23.829c.348.42.754.81 1.213 1.14q-.272.3-.504.611c-.418.565-.79 1.24-.898 1.946-.119.775.095 1.593.835 2.163.766.59 1.63.465 2.287.124.623-.325 1.18-.89 1.637-1.493.866-1.145 1.604-2.743 1.822-4.151l.046-.012a2.7 2.7 0 0 0 0 .481c.032.338.15.754.484 1.073a1.44 1.44 0 0 0 1.202.375c.366-.048.701-.212.986-.404.249-.167.537-.423.778-.637l.094-.083a7.4 7.4 0 0 1 .789-.635l.02-.013q.152.436.327.753c.135.241.324.503.604.685.322.21.678.256 1.002.183.27-.06.474-.196.56-.253a1.03 1.03 0 0 0 .282-1.414 1 1 0 0 0-.815-.456 5 5 0 0 1-.113-.313c-.208-.636-.654-1.243-1.443-1.337-.625-.074-1.178.233-1.51.45-.373.243-.736.559-1.02.81l-.113.1a1.45 1.45 0 0 0-.415-1.03c-.437-.44-1.024-.467-1.377-.447a3 3 0 0 0-.278.028c-.047-.786-.199-1.575-.503-2.308-.571-1.373-1.658-2.487-3.409-2.992-1.427-.412-2.726-.264-3.543.696-.752.883-.796 2.127-.58 3.18.224 1.095.773 2.241 1.553 3.18m1.535-1.315c-.574-.691-.968-1.531-1.122-2.281-.162-.793-.019-1.252.133-1.43.087-.102.41-.375 1.475-.068 1.141.33 1.764.997 2.107 1.823.254.611.365 1.337.363 2.114q-.25.1-.502.21c-.383.166-.79.4-1.191.683a4.2 4.2 0 0 1-1.263-1.051m1.662 3.327a1 1 0 0 0 .583-.093c-.23.475-.504.934-.803 1.329-.37.49-.712.791-.962.92a.6.6 0 0 1-.161.062c-.055-.042-.082-.065-.058-.22.035-.231.19-.59.52-1.034.249-.337.555-.666.88-.964" clip-rule="evenodd"/></svg>