<svg xmlns="http://www.w3.org/2000/svg" width="24" height="24" fill="none"><path fill="#000" fill-rule="evenodd" d="M2.77 2a.77.77 0 0 0-.77.77v3.076c0 .425.344.77.77.77h3.076a.77.77 0 0 0 .77-.77V2.77A.77.77 0 0 0 5.845 2H2.77Zm.768 3.077V3.538h1.539v1.539H3.538Zm13.847-2.308A.77.77 0 0 1 18.154 2h3.077a.77.77 0 0 1 .769.77v3.076a.77.77 0 0 1-.77.77h-3.076a.77.77 0 0 1-.77-.77V2.77Zm1.538.77v1.538h1.539V3.538h-1.539ZM7.128 8.922c0-.991.804-1.795 1.795-1.795h6.154c.991 0 1.795.804 1.795 1.795v6.154c0 .991-.804 1.795-1.795 1.795H8.923a1.795 1.795 0 0 1-1.795-1.795V8.923Zm1.795-.256a.256.256 0 0 0-.256.256v6.154c0 .142.114.256.256.256h6.154a.256.256 0 0 0 .256-.256V8.923a.256.256 0 0 0-.256-.256H8.923Zm8.462 9.487a.77.77 0 0 1 .769-.77h3.077a.77.77 0 0 1 .769.77v3.077a.77.77 0 0 1-.77.769h-3.076a.77.77 0 0 1-.77-.77v-3.076Zm1.538.77v1.538h1.539v-1.539h-1.539ZM2.77 17.383a.77.77 0 0 0-.769.77v3.077c0 .425.344.769.77.769h3.076a.77.77 0 0 0 .77-.77v-3.076a.77.77 0 0 0-.77-.77H2.77Zm.77 3.078v-1.539h1.538v1.539H3.538ZM2 8.923a.77.77 0 0 1 .77-.77h2.05a.77.77 0 1 1 0 1.54H3.539v1.281a.77.77 0 0 1-1.538 0v-2.05Zm2.82 3.333a.77.77 0 0 1 .77.77v2.05a.77.77 0 0 1-.77.77H2.77a.77.77 0 0 1 0-1.538H4.05v-1.282a.77.77 0 0 1 .77-.77Zm14.36-4.102a.77.77 0 0 0-.77.77v2.05a.77.77 0 0 0 1.539 0V9.692h1.282a.77.77 0 0 0 0-1.538h-2.052ZM22 13.026a.77.77 0 0 0-1.538 0v1.282H19.18a.77.77 0 0 0 0 1.538h2.05a.77.77 0 0 0 .77-.77v-2.05ZM8.923 5.59a.77.77 0 0 1-.77-.77V2.77a.77.77 0 1 1 1.54 0V4.05h1.281a.77.77 0 0 1 0 1.539h-2.05Zm3.333-2.82a.77.77 0 0 1 .77-.77h2.05a.77.77 0 0 1 .77.77v2.05a.77.77 0 0 1-1.538 0V3.539h-1.282a.77.77 0 0 1-.77-.769ZM8.154 21.23c0 .426.344.77.77.77h2.05a.77.77 0 0 0 0-1.538H9.692V19.18a.77.77 0 0 0-1.538 0v2.05Zm4.872-2.82a.77.77 0 0 0 0 1.539h1.282v1.282a.77.77 0 0 0 1.538 0v-2.052a.77.77 0 0 0-.77-.769h-2.05Z" clip-rule="evenodd"/></svg>