<svg xmlns="http://www.w3.org/2000/svg" width="32" height="32" fill="none"><path fill="#000" fill-rule="evenodd" d="M12.002 7.669a1 1 0 0 1-1-1V4.002a1 1 0 1 1 2 0V5.67h1.667a1 1 0 0 1 0 2h-2.667Zm4.333-3.667a1 1 0 0 1 1-1h2.667a1 1 0 0 1 1 1V6.67a1 1 0 1 1-2 0V5.002h-1.666a1 1 0 0 1-1-1Zm-12.333-1a1 1 0 0 0-1 1v4a1 1 0 0 0 1 1h4a1 1 0 0 0 1-1v-4a1 1 0 0 0-1-1h-4Zm1 4v-2h2v2h-2Zm18-3a1 1 0 0 1 1-1h4a1 1 0 0 1 1 1v4a1 1 0 0 1-1 1h-4a1 1 0 0 1-1-1v-4Zm2 1v2h2v-2h-2Zm-15.333 7a2.333 2.333 0 0 1 2.333-2.333h8a2.333 2.333 0 0 1 2.334 2.333v8a2.333 2.333 0 0 1-2.334 2.334h-8a2.333 2.333 0 0 1-2.333-2.334v-8Zm2.333-.333a.333.333 0 0 0-.333.333v8c0 .184.15.334.333.334h8c.184 0 .334-.15.334-.334v-8a.333.333 0 0 0-.334-.333h-8Zm11 12.333a1 1 0 0 1 1-1h4a1 1 0 0 1 1 1v4a1 1 0 0 1-1 1h-4a1 1 0 0 1-1-1v-4Zm2 1v2h2v-2h-2Zm-21-2a1 1 0 0 0-1 1v4a1 1 0 0 0 1 1h4a1 1 0 0 0 1-1v-4a1 1 0 0 0-1-1h-4Zm1 4v-2h2v2h-2Zm-2-15a1 1 0 0 1 1-1H6.67a1 1 0 0 1 0 2H5.002v1.667a1 1 0 1 1-2 0v-2.667Zm3.667 4.334a1 1 0 0 1 1 1v2.666a1 1 0 0 1-1 1H4.002a1 1 0 1 1 0-2H5.67v-1.666a1 1 0 0 1 1-1Zm18.666-5.334a1 1 0 0 0-1 1v2.667a1 1 0 1 0 2 0v-1.667h1.667a1 1 0 1 0 0-2h-2.666Zm3.667 6.334a1 1 0 1 0-2 0v1.666h-1.666a1 1 0 0 0 0 2h2.666a1 1 0 0 0 1-1v-2.666Zm-18 10.666a1 1 0 0 0 1 1h2.667a1 1 0 0 0 0-2h-1.667v-1.666a1 1 0 1 0-2 0v2.666Zm6.333-3.666a1 1 0 1 0 0 2h1.667v1.666a1 1 0 1 0 2 0v-2.666a1 1 0 0 0-1-1h-2.666Z" clip-rule="evenodd"/></svg>