<svg xmlns="http://www.w3.org/2000/svg" width="16" height="16" fill="none" class="persona-icon" viewBox="0 0 16 16"><path fill="currentColor" fill-rule="evenodd" d="M2 4.333A2.333 2.333 0 0 1 4.333 2h7.334A2.333 2.333 0 0 1 14 4.333v7.334A2.333 2.333 0 0 1 11.667 14h-.353.001-6.63.001-.353A2.333 2.333 0 0 1 2 11.667zm1.88 8.588q.213.078.453.079h7.334q.24-.001.454-.08.045-.213.046-.442v-.064c0-.466-.167-.917-.47-1.271A3.42 3.42 0 0 0 9.1 9.944H6.9c-1 0-1.949.438-2.598 1.199a1.96 1.96 0 0 0-.469 1.27v.065q0 .228.046.443M8 4.445A2.333 2.333 0 1 0 8 9.11a2.333 2.333 0 0 0 0-4.667" clip-rule="evenodd"/></svg>