<svg xmlns="http://www.w3.org/2000/svg" width="16" height="16" fill="none" class="persona-icon"><path fill="currentColor" d="M4.889 10.86c0 .17.055.351.186.54a2 2 0 0 0 .629.552c.287.17.637.312 1.035.41.396.097.825.148 1.261.148.436 0 .865-.051 1.261-.149a3.826 3.826 0 0 0 1.035-.409 2 2 0 0 0 .629-.552.94.94 0 0 0 .186-.54h1c0 .394-.132.77-.363 1.102-.23.33-.554.612-.937.84-.384.227-.83.402-1.309.52S8.512 13.5 8 13.5c-.513 0-1.023-.06-1.503-.178a4.826 4.826 0 0 1-1.308-.52 2.99 2.99 0 0 1-.937-.84 1.92 1.92 0 0 1-.363-1.102h1Z"/><path fill="currentColor" d="M4.389 7.862c.276 0 .5.222.5.495v2.503a.498.498 0 0 1-.5.495.498.498 0 0 1-.5-.495V8.358c0-.274.224-.496.5-.496Zm7.222 0c.276 0 .5.222.5.495v2.503a.497.497 0 0 1-.5.495.498.498 0 0 1-.5-.495V8.358c0-.274.224-.496.5-.496Z"/><path fill="currentColor" d="M7.757 2.562a.504.504 0 0 1 .486 0l6.5 3.575a.494.494 0 0 1 0 .866l-6.5 3.575a.504.504 0 0 1-.486 0l-6.5-3.575a.494.494 0 0 1 0-.866l6.5-3.575ZM2.53 6.57 8 9.58l5.47-3.009L8 3.561l-5.47 3.01Z"/><path fill="currentColor" d="M1 6.57c0-.273.224-.495.5-.495H8c.276 0 .5.222.5.495a.498.498 0 0 1-.5.495H2v3.08a.498.498 0 0 1-.5.495.498.498 0 0 1-.5-.495V6.57Z"/></svg>