<svg xmlns="http://www.w3.org/2000/svg" width="20" height="20" fill="none" class="persona-icon" viewBox="0 0 20 20"><path fill="currentColor" fill-rule="evenodd" d="M9.696 3.954a.63.63 0 0 1 .607 0l7.072 3.928a.625.625 0 0 1 0 1.093l-2.821 1.567v2.6c0 .452-.15.88-.41 1.258-.258.374-.62.69-1.044.945a5.3 5.3 0 0 1-1.446.582 7 7 0 0 1-1.654.198 7 7 0 0 1-1.654-.198 5.3 5.3 0 0 1-1.445-.582 3.34 3.34 0 0 1-1.045-.945 2.2 2.2 0 0 1-.41-1.257v-2.6l-.714-.397v2.997a.625.625 0 1 1-1.25 0V9.45l-.857-.476a.625.625 0 0 1 0-1.093zM6.25 9.559l.086.048a1 1 0 0 1 .076.042L10 11.642l3.589-1.993a1 1 0 0 1 .075-.042l2.12-1.178L10 5.215 4.215 8.429l.204.113 5.498-.733a.625.625 0 1 1 .166 1.239zm.446 1.678v1.906c0 .167.054.352.189.547.136.198.354.4.659.584a4 4 0 0 0 1.103.44c.425.105.885.16 1.353.16s.928-.055 1.353-.16a4 4 0 0 0 1.103-.44c.306-.184.522-.386.66-.584a.96.96 0 0 0 .188-.547v-1.906l-3 1.666a.63.63 0 0 1-.607 0z" clip-rule="evenodd"/></svg>