<svg xmlns="http://www.w3.org/2000/svg" width="20" height="20" fill="none" class="persona-icon" viewBox="0 0 20 20"><path fill="currentColor" fill-rule="evenodd" d="M9.712 3.576a.58.58 0 0 1 .576 0l7.407 4.21c.188.107.305.31.305.53s-.117.423-.305.53l-2.987 1.698v2.824c0 .47-.152.916-.418 1.31a3.5 3.5 0 0 1-1.075.996c-.44.27-.95.477-1.497.616A7 7 0 0 1 10 16.5c-.586 0-1.17-.07-1.718-.21a5.4 5.4 0 0 1-1.497-.616 3.5 3.5 0 0 1-1.075-.995 2.34 2.34 0 0 1-.418-1.311v-2.824L3.185 9.347v3.179a.6.6 0 0 1-.592.606.6.6 0 0 1-.593-.606v-4.21c0-.233.129-.436.318-.537zM10 11.832l6.187-3.516L10 4.8 4.88 7.71H10a.6.6 0 0 1 .593.606.6.6 0 0 1-.593.606H4.88zm-3.523-.615v2.15c0 .195.061.405.209.623.149.221.383.444.709.644s.722.365 1.173.48c.45.114.937.174 1.432.174s.982-.06 1.432-.175.848-.28 1.173-.479c.326-.2.56-.423.71-.644.146-.218.208-.428.208-.622v-2.15l-3.235 1.838a.58.58 0 0 1-.576 0z" clip-rule="evenodd"/></svg>