<svg xmlns="http://www.w3.org/2000/svg" width="24" height="24" fill="none" class="persona-icon" viewBox="0 0 24 24"><path fill="currentColor" fill-rule="evenodd" d="M7.641 16.129c0 .23.074.482.254.745.183.267.472.538.875.78.401.243.894.445 1.453.585s1.163.213 1.777.213 1.218-.074 1.777-.213a5.3 5.3 0 0 0 1.453-.584c.403-.243.692-.514.875-.78.18-.264.254-.515.254-.746h1.538c0 .583-.191 1.136-.526 1.625-.332.484-.8.897-1.349 1.229a6.9 6.9 0 0 1-1.874.758A9 9 0 0 1 12 20a9 9 0 0 1-2.148-.259 6.9 6.9 0 0 1-1.874-.758c-.55-.332-1.016-.745-1.349-1.229a2.86 2.86 0 0 1-.526-1.625z" clip-rule="evenodd"/><path fill="currentColor" fill-rule="evenodd" d="M6.872 11.742c.425 0 .769.347.769.774v3.613a.77.77 0 0 1-.77.774.77.77 0 0 1-.768-.774v-3.613c0-.427.344-.774.769-.774m10.256 0c.425 0 .77.347.77.774v3.613a.77.77 0 0 1-.77.774.77.77 0 0 1-.769-.774v-3.613c0-.427.344-.774.77-.774" clip-rule="evenodd"/><path fill="currentColor" fill-rule="evenodd" d="M11.626 4.097a.77.77 0 0 1 .748 0l9.23 5.162a.775.775 0 0 1 0 1.353l-9.23 5.162a.77.77 0 0 1-.748 0l-9.23-5.162a.775.775 0 0 1 0-1.353zM4.353 9.936 12 14.21l7.647-4.275L12 5.66z" clip-rule="evenodd"/><path fill="currentColor" fill-rule="evenodd" d="M2 9.936c0-.428.344-.775.77-.775H12c.425 0 .77.347.77.774a.77.77 0 0 1-.77.775H3.539v4.387a.77.77 0 0 1-.77.774.77.77 0 0 1-.769-.774z" clip-rule="evenodd"/></svg>