<svg xmlns="http://www.w3.org/2000/svg" width="32" height="32" fill="none"><path fill="#000" fill-rule="evenodd" d="M9.78 21.722c0 .339.11.703.373 1.08.266.38.682.763 1.257 1.105.573.34 1.275.622 2.07.818.793.195 1.651.297 2.522.297.871 0 1.73-.102 2.523-.297.794-.196 1.496-.477 2.07-.818.575-.342.99-.724 1.257-1.105.262-.377.372-.741.372-1.08h2c0 .789-.263 1.54-.726 2.204-.46.66-1.108 1.224-1.874 1.679-.768.456-1.659.806-2.617 1.041-.959.236-1.98.356-3.005.356s-2.046-.12-3.005-.355c-.958-.236-1.849-.586-2.616-1.042-.766-.455-1.414-1.019-1.874-1.678-.464-.665-.727-1.416-.727-2.205h2Z" clip-rule="evenodd"/><path fill="#000" fill-rule="evenodd" d="M8.78 15.727c.552 0 1 .444 1 .99v5.005c0 .547-.448.99-1 .99s-1-.443-1-.99v-5.005c0-.546.448-.99 1-.99Zm14.444 0c.553 0 1 .444 1 .99v5.005c0 .547-.447.99-1 .99-.552 0-1-.443-1-.99v-5.005c0-.546.448-.99 1-.99Z" clip-rule="evenodd"/><path fill="#000" fill-rule="evenodd" d="M15.517 5.127c.302-.166.669-.166.97 0l13 7.15a.989.989 0 0 1 .515.866c0 .36-.197.69-.514.865l-13 7.15c-.302.166-.67.166-.971 0l-13-7.15a.988.988 0 0 1-.515-.865c0-.36.197-.691.515-.866l13-7.15ZM5.06 13.142l10.941 6.018 10.941-6.018-10.94-6.017L5.06 13.143Z" clip-rule="evenodd"/><path fill="#000" fill-rule="evenodd" d="M2.002 13.143c0-.547.448-.99 1-.99h13c.553 0 1 .443 1 .99 0 .546-.447.99-1 .99h-12v6.16c0 .546-.448.99-1 .99s-1-.444-1-.99v-7.15Z" clip-rule="evenodd"/></svg>