<svg xmlns="http://www.w3.org/2000/svg" width="32" height="32" fill="none" class="persona-icon" viewBox="0 0 32 32"><path fill="currentColor" fill-rule="evenodd" d="M15.514 6.126a1 1 0 0 1 .972 0l11.571 6.429a1 1 0 0 1 0 1.748l-4.628 2.571v4.269c0 .734-.243 1.43-.667 2.044-.42.608-1.01 1.125-1.702 1.54a8.7 8.7 0 0 1-2.359.95C17.84 25.89 16.921 26 16 26s-1.838-.109-2.701-.323a8.7 8.7 0 0 1-2.36-.95c-.691-.415-1.281-.931-1.701-1.54-.424-.614-.666-1.31-.666-2.044v-4.269L7.357 16.2v4.943a1 1 0 0 1-2 0v-6.054l-1.414-.786a1 1 0 0 1 0-1.748zm-5.72 9.139.201.112q.063.03.12.067L16 18.714l5.884-3.27a1 1 0 0 1 .121-.067l3.507-1.948L16 8.144l-9.512 5.285.376.209 9.004-1.2a1 1 0 1 1 .264 1.982zm.777 2.72v3.158c0 .279.09.585.313.908.226.327.583.66 1.085.962.5.3 1.114.55 1.812.723A9.3 9.3 0 0 0 16 24a9.3 9.3 0 0 0 2.219-.264 6.7 6.7 0 0 0 1.812-.723c.502-.301.86-.635 1.085-.962.223-.322.313-.63.313-.908v-3.158l-4.943 2.746a1 1 0 0 1-.972 0z" clip-rule="evenodd"/></svg>