<svg xmlns="http://www.w3.org/2000/svg" width="32" height="32" fill="none"><path fill="#000" fill-rule="evenodd" d="M3 4a1 1 0 0 1 1-1h9.333a1 1 0 0 1 1 1v9.333a1 1 0 0 1-1 1H4a1 1 0 0 1-1-1V4Zm2 1v7.333h7.333V5H5Z" clip-rule="evenodd"/><path fill="#000" fill-rule="evenodd" d="M7 8a1 1 0 0 1 1-1h1.333a1 1 0 0 1 1 1v1.333a1 1 0 0 1-1 1H8a1 1 0 0 1-1-1V8ZM3 18.667a1 1 0 0 1 1-1h9.333a1 1 0 0 1 1 1V28a1 1 0 0 1-1 1H4a1 1 0 0 1-1-1v-9.333Zm2 1V27h7.333v-7.333H5ZM17.667 4a1 1 0 0 1 1-1H28a1 1 0 0 1 1 1v9.333a1 1 0 0 1-1 1h-9.333a1 1 0 0 1-1-1V4Zm2 1v7.333H27V5h-7.333Z" clip-rule="evenodd"/><path fill="#000" fill-rule="evenodd" d="M21.667 8a1 1 0 0 1 1-1H24a1 1 0 0 1 1 1v1.333a1 1 0 0 1-1 1h-1.333a1 1 0 0 1-1-1V8ZM7 22.667a1 1 0 0 1 1-1h1.333a1 1 0 0 1 1 1V24a1 1 0 0 1-1 1H8a1 1 0 0 1-1-1v-1.333ZM21 18.667a1 1 0 0 1 1-1h6a1 1 0 0 1 1 1v4.666a1 1 0 1 1-2 0v-.166h-1a1 1 0 1 1 0-2h1v-1.5h-5a1 1 0 0 1-1-1ZM27 27v-.333a1 1 0 1 1 2 0V28a1 1 0 0 1-1 1h-2.667a1 1 0 1 1 0-2H27ZM22.333 28a1 1 0 0 1-1 1h-2.666a1 1 0 0 1-1-1v-2.667a1 1 0 1 1 2 0V27h1.666a1 1 0 0 1 1 1Z" clip-rule="evenodd"/><path fill="#000" fill-rule="evenodd" d="M18.667 17.667a1 1 0 0 1 1 1V21h3a1 1 0 0 1 1 1v2.333h1a1 1 0 1 1 0 2h-2a1 1 0 0 1-1-1V23h-3a1 1 0 0 1-1-1v-3.333a1 1 0 0 1 1-1Z" clip-rule="evenodd"/></svg>