<svg xmlns="http://www.w3.org/2000/svg" width="16" height="16" fill="none" class="persona-icon" viewBox="0 0 16 16"><path fill="currentColor" d="M8 1c.29 0 .525.235.525.525v1.439a.525.525 0 0 1-1.05 0V1.525C7.475 1.235 7.71 1 8 1M8 4.597a3.403 3.403 0 1 0 0 6.806 3.403 3.403 0 0 0 0-6.806M3.793 3.05a.525.525 0 0 0-.742.743L4.068 4.81a.525.525 0 0 0 .743-.742zM1 8c0-.29.235-.525.525-.525h1.439a.525.525 0 1 1 0 1.05H1.525A.525.525 0 0 1 1 8M3.05 12.208a.525.525 0 0 0 .742.742l1.017-1.018a.525.525 0 0 0-.742-.742zM8 12.511c.29 0 .525.235.525.525v1.439a.525.525 0 0 1-1.05 0v-1.439c0-.29.235-.525.525-.525M11.932 11.19a.525.525 0 0 0-.742.742l1.017 1.018a.525.525 0 1 0 .742-.743zM12.51 8c0-.29.236-.524.526-.524h1.439a.525.525 0 1 1 0 1.05h-1.44A.525.525 0 0 1 12.512 8M11.19 4.068a.525.525 0 0 0 .742.743l1.017-1.018a.525.525 0 1 0-.742-.742z"/></svg>