<svg xmlns="http://www.w3.org/2000/svg" width="24" height="24" fill="none" class="persona-icon" viewBox="0 0 24 24"><path fill="currentColor" d="M12 2a.75.75 0 0 1 .75.75v2.056a.75.75 0 0 1-1.5 0V2.75A.75.75 0 0 1 12 2M12 7.139a4.861 4.861 0 1 1 0 9.722 4.861 4.861 0 0 1 0-9.722M5.99 4.93l1.454 1.453a.75.75 0 0 1-1.06 1.06L4.93 5.99a.75.75 0 0 1 1.06-1.06M2 12a.75.75 0 0 1 .75-.75h2.056a.75.75 0 0 1 0 1.5H2.75A.75.75 0 0 1 2 12M4.928 18.01l1.453-1.453a.75.75 0 1 1 1.06 1.06l-1.453 1.454a.75.75 0 0 1-1.06-1.06M12 18.445a.75.75 0 0 1 .75.75v2.055a.75.75 0 0 1-1.5 0v-2.055a.75.75 0 0 1 .75-.75M17.617 16.557l1.454 1.453a.75.75 0 0 1-1.061 1.061l-1.454-1.453a.75.75 0 1 1 1.061-1.061M18.444 12.001a.75.75 0 0 1 .75-.75h2.056a.75.75 0 0 1 0 1.5h-2.056a.75.75 0 0 1-.75-.75M16.556 6.384 18.01 4.93a.75.75 0 0 1 1.06 1.06l-1.453 1.454a.75.75 0 0 1-1.06-1.06"/></svg>