<svg xmlns="http://www.w3.org/2000/svg" width="16" height="16" fill="none" class="persona-icon" viewBox="0 0 16 16"><path fill="currentColor" fill-rule="evenodd" d="M3.662 4.999a3 3 0 1 1 6 0 3 3 0 0 1-6 0Zm3-1.958a1.958 1.958 0 1 0 0 3.915 1.958 1.958 0 0 0 0-3.915ZM2.516 10.175A3.81 3.81 0 0 1 5.414 8.84H7.91a3.81 3.81 0 0 1 2.897 1.336c.333.39.516.887.516 1.4v.143A2.284 2.284 0 0 1 9.04 14H4.284A2.284 2.284 0 0 1 2 11.718v-.143c0-.513.183-1.01.516-1.4Zm7.532.65a2.81 2.81 0 0 0-2.138-.986H5.415a2.81 2.81 0 0 0-2.137.986c-.179.209-.277.475-.277.75v.143C3 12.427 3.575 13 4.284 13H9.04c.71 0 1.284-.574 1.284-1.283v-.143c0-.275-.098-.541-.276-.75ZM11.582 5.799a1.582 1.582 0 1 0 .738 2.982l.88.88A.468.468 0 1 0 13.864 9l-.88-.88a1.582 1.582 0 0 0-1.4-2.32Zm-.645 1.582a.646.646 0 1 1 1.29 0 .646.646 0 0 1-1.29 0Z" clip-rule="evenodd"/></svg>