<svg xmlns="http://www.w3.org/2000/svg" width="16" height="16" fill="none" class="persona-icon" viewBox="0 0 16 16"><path fill="currentColor" fill-rule="evenodd" d="M3.2 10.05a3.95 3.95 0 0 1 3.002-1.383h2.6c1.154 0 2.251.505 3 1.384.344.402.533.914.533 1.443v.173A2.333 2.333 0 0 1 10.002 14h-5a2.333 2.333 0 0 1-2.333-2.333v-.173c0-.529.188-1.04.532-1.443m3.002-.383c-.862 0-1.68.377-2.24 1.033a1.22 1.22 0 0 0-.294.794v.173c0 .736.597 1.333 1.334 1.333h5c.736 0 1.333-.597 1.333-1.333v-.173c0-.291-.104-.573-.293-.794a2.95 2.95 0 0 0-2.24-1.033zM4.557 4.944a2.944 2.944 0 1 1 5.89 0 2.944 2.944 0 0 1-5.89 0M7.502 3a1.944 1.944 0 1 0 0 3.889 1.944 1.944 0 0 0 0-3.889M11 7.045a1.712 1.712 0 1 1 3.224.805l.963.963a.5.5 0 1 1-.707.707l-.964-.963A1.712 1.712 0 0 1 11 7.045m1.712-.712a.712.712 0 1 0 0 1.424.712.712 0 0 0 0-1.424" clip-rule="evenodd"/></svg>