<svg xmlns="http://www.w3.org/2000/svg" width="20" height="20" fill="none" class="persona-icon" viewBox="0 0 20 20"><path fill="currentColor" fill-rule="evenodd" d="M4.636 12.358a4.64 4.64 0 0 1 3.525-1.625h3.025c1.356 0 2.644.594 3.525 1.625a2.63 2.63 0 0 1 .63 1.708v.2a2.76 2.76 0 0 1-2.759 2.76H6.764a2.76 2.76 0 0 1-2.758-2.76v-.2c0-.626.223-1.232.63-1.708l.47.401zm3.525-.375c-.99 0-1.931.433-2.575 1.187a1.38 1.38 0 0 0-.33.896v.2c0 .834.675 1.51 1.508 1.51h5.818c.833 0 1.509-.676 1.509-1.51v-.2a1.38 1.38 0 0 0-.33-.896 3.39 3.39 0 0 0-2.575-1.187zM6.204 6.444a3.47 3.47 0 1 1 6.939 0 3.47 3.47 0 0 1-6.94 0m3.47-2.219a2.22 2.22 0 1 0 0 4.439 2.22 2.22 0 0 0 0-4.439m4.25 4.664a2.035 2.035 0 1 1 3.848.928l1.099 1.099a.625.625 0 0 1-.884.883l-1.099-1.098a2.035 2.035 0 0 1-2.963-1.812m2.036-.786a.786.786 0 1 0 0 1.571.786.786 0 0 0 0-1.57" clip-rule="evenodd"/></svg>