<svg xmlns="http://www.w3.org/2000/svg" width="32" height="32" fill="none" class="persona-icon" viewBox="0 0 32 32"><path fill="currentColor" d="M6.5 9.5a6.5 6.5 0 1 1 13 0 6.5 6.5 0 0 1-13 0ZM13 5.1a4.4 4.4 0 1 0 0 8.8 4.4 4.4 0 0 0 0-8.8ZM4.095 20.863A8.154 8.154 0 0 1 10.298 18h5.404a8.154 8.154 0 0 1 6.203 2.863A4.579 4.579 0 0 1 23 23.834v.31A4.854 4.854 0 0 1 18.148 29H7.853A4.854 4.854 0 0 1 3 24.144v-.31c0-1.089.388-2.143 1.095-2.971Zm16.3 1.289a6.17 6.17 0 0 0-4.693-2.167h-5.404a6.17 6.17 0 0 0-4.694 2.167c-.4.469-.62 1.066-.62 1.682v.31a2.87 2.87 0 0 0 2.869 2.87h10.295a2.87 2.87 0 0 0 2.868-2.87v-.31c0-.616-.22-1.213-.62-1.682ZM23.541 12a3.541 3.541 0 1 0 1.71 6.644l2.067 2.067a.985.985 0 1 0 1.393-1.393l-2.067-2.067A3.541 3.541 0 0 0 23.542 12Zm-1.57 3.541a1.571 1.571 0 1 1 3.142 0 1.571 1.571 0 0 1-3.143 0Z"/></svg>