<svg xmlns="http://www.w3.org/2000/svg" width="16" height="16" fill="none" class="persona-icon" viewBox="0 0 16 16"><path fill="currentColor" fill-rule="evenodd" d="M5.96 3.058a.5.5 0 0 0-.46-.308.5.5 0 0 0-.46.308l-4 9.484a.511.511 0 0 0 .263.667.497.497 0 0 0 .657-.267l1.298-3.08h4.484l1.299 3.08a.497.497 0 0 0 .656.267.511.511 0 0 0 .263-.667l-4-9.484m-.46 1.49 1.813 4.299H3.687l1.813-4.3m7.302-2.39a.499.499 0 0 1 .718-.01l1.333 1.332a.5.5 0 1 1-.707.707l-.48-.48V6.5a.5.5 0 1 1-1 0V3.707l-.48.48a.5.5 0 1 1-.707-.707l1.323-1.323m.864 7.342a.5.5 0 1 0-1 0v2.793l-.48-.48a.5.5 0 1 0-.707.707l1.322 1.322a.499.499 0 0 0 .719.011l1.333-1.333a.5.5 0 1 0-.707-.707l-.48.48z" clip-rule="evenodd"/></svg>