<svg xmlns="http://www.w3.org/2000/svg" width="20" height="20" fill="none" class="persona-icon" viewBox="0 0 20 20"><path fill="currentColor" fill-rule="evenodd" d="m8.313 4.354 4.629 10.8a.625.625 0 0 1-1.149.492l-1.49-3.478H5.175l-1.491 3.478a.625.625 0 0 1-1.15-.492l4.63-10.8a.625.625 0 0 1 1.148 0m1.454 6.564L7.739 6.187l-2.028 4.73z" clip-rule="evenodd"/><path fill="currentColor" d="m15.842 4.158 1.49 1.49a.625.625 0 0 1-.884.884l-.423-.423v2.588a.625.625 0 1 1-1.25 0V6.109l-.423.423a.625.625 0 1 1-.884-.884l1.49-1.49a.625.625 0 0 1 .884 0M16.025 11.303v2.588l.423-.423a.625.625 0 1 1 .883.884l-1.483 1.484a.63.63 0 0 1-.65.155.6.6 0 0 1-.24-.15l-1.49-1.489a.625.625 0 0 1 .884-.884l.423.423v-2.588a.625.625 0 0 1 1.25 0"/></svg>