<svg xmlns="http://www.w3.org/2000/svg" width="20" height="20" fill="none" class="persona-icon" viewBox="0 0 20 20"><path fill="currentColor" d="M16.233 2.5a.598.598 0 0 0-.438.19l-1.652 1.652a.6.6 0 1 0 .848.849l.642-.642V8.1a.6.6 0 1 0 1.2 0V4.548l.643.643a.6.6 0 1 0 .848-.849l-1.666-1.666a.6.6 0 0 0-.425-.176ZM16.832 11.9a.6.6 0 0 0-1.2 0v3.551l-.642-.642a.6.6 0 0 0-.848.849l1.651 1.651a.599.599 0 0 0 .864.015l1.666-1.666a.6.6 0 0 0-.848-.849l-.643.643V11.9Z"/><path fill="currentColor" fill-rule="evenodd" d="M7.652 3.867A.6.6 0 0 0 7.1 3.5a.6.6 0 0 0-.551.367l-5 11.788c-.13.308.01.664.315.796a.598.598 0 0 0 .788-.319l1.63-3.842h5.637l1.63 3.842c.13.308.483.45.787.319a.608.608 0 0 0 .316-.796l-5-11.788Zm1.753 7.21h-4.61L7.1 5.646l2.305 5.433Z" clip-rule="evenodd"/></svg>