<svg xmlns="http://www.w3.org/2000/svg" width="24" height="24" fill="none" class="persona-icon" viewBox="0 0 24 24"><path fill="currentColor" fill-rule="evenodd" d="m9.654 4.455 6.214 14.5a.75.75 0 0 1-1.379.59l-2.024-4.724H5.464l-2.025 4.724a.75.75 0 0 1-1.378-.59l6.214-14.5a.75.75 0 0 1 1.379 0m2.168 8.866L8.964 6.654 6.107 13.32z" clip-rule="evenodd"/><path fill="currentColor" d="m19.78 4.22 2 2a.75.75 0 1 1-1.06 1.06L20 6.56v3.69a.75.75 0 0 1-1.5 0V6.56l-.72.72a.75.75 0 1 1-1.06-1.06l2-2a.75.75 0 0 1 1.06 0M19.25 13a.75.75 0 0 1 .75.75v3.69l.72-.72a.75.75 0 1 1 1.06 1.06l-2 2a.75.75 0 0 1-1.063-.002L16.72 17.78a.75.75 0 1 1 1.06-1.06l.72.72v-3.69a.75.75 0 0 1 .75-.75"/></svg>