<svg xmlns="http://www.w3.org/2000/svg" width="32" height="32" fill="none" class="persona-icon" viewBox="0 0 32 32"><path fill="currentColor" d="M25.7 6.293a1 1 0 0 0-1.414 0l-2.483 2.482a1 1 0 0 0 1.414 1.415l.776-.776v4.414a1 1 0 0 0 2 0V9.414l.775.776a1 1 0 1 0 1.415-1.415zM24.993 17.172a1 1 0 0 1 1 1v4.414l.775-.776a1 1 0 0 1 1.415 1.414L25.707 25.7a1 1 0 0 1-.714.301 1 1 0 0 1-.714-.3l-2.476-2.476a1 1 0 0 1 1.414-1.414l.776.776v-4.414a1 1 0 0 1 1-1"/><path fill="currentColor" fill-rule="evenodd" d="M13.144 6.606a1 1 0 0 0-1.839 0l-7.714 18a1 1 0 1 0 1.838.788l2.496-5.823h8.6l2.495 5.823a1 1 0 0 0 1.838-.788zm2.523 10.965H8.782l3.442-8.032z" clip-rule="evenodd"/></svg>