<svg xmlns="http://www.w3.org/2000/svg" width="20" height="20" fill="none"><path fill="#000" fill-rule="evenodd" d="M5.383 8.194C5.833 5.81 7.907 4 10.412 4c2.835 0 5.119 2.322 5.119 5.168 0 .24-.016.475-.048.707A3.082 3.082 0 0 1 18 12.913C18 14.609 16.638 16 14.938 16H5.885C3.73 16 2 14.237 2 12.08c0-1.985 1.468-3.638 3.383-3.886Zm5.029-3.014c-2.045 0-3.737 1.585-3.919 3.624a.592.592 0 0 1-.591.538h-.017c-1.483 0-2.7 1.217-2.7 2.739 0 1.52 1.217 2.739 2.7 2.739h9.053c1.028 0 1.877-.845 1.877-1.907s-.849-1.907-1.877-1.907c-.044 0-.087.002-.13.005a.594.594 0 0 1-.612-.748c.097-.347.15-.715.15-1.095 0-2.211-1.77-3.988-3.934-3.988Z" clip-rule="evenodd"/></svg>