<svg xmlns="http://www.w3.org/2000/svg" width="32" height="32" fill="none"><path fill="#000" fill-rule="evenodd" d="M7.934 12.852C8.716 8.666 12.353 5.5 16.722 5.5c4.94 0 8.945 4.047 8.945 9.04 0 .427-.03.847-.086 1.258 2.51.438 4.419 2.65 4.419 5.312 0 2.977-2.388 5.39-5.333 5.39H8.777C5.036 26.5 2 23.433 2 19.65c0-3.495 2.589-6.378 5.934-6.798Zm8.788-5.33c-3.622 0-6.597 2.803-6.916 6.379-.046.522-.48.921-.999.92h-.03C6.137 14.82 4 16.983 4 19.65s2.14 4.829 4.778 4.829h15.889c1.84 0 3.333-1.509 3.333-3.37 0-1.86-1.492-3.368-3.333-3.368-.079 0-.157.002-.234.008a.995.995 0 0 1-.845-.372 1.019 1.019 0 0 1-.185-.913c.172-.61.264-1.255.264-1.924 0-3.876-3.11-7.019-6.945-7.019Z" clip-rule="evenodd"/></svg>