<svg xmlns="http://www.w3.org/2000/svg" width="16" height="16" fill="none" class="persona-icon" viewBox="0 0 16 16"><path fill="currentColor" d="M3.541 2.745V5.33h-.72V3.582l-.55.176v-.632l1.068-.381zM5.39 3.906a.5.5 0 1 0 0 1h7.943a.5.5 0 1 0 0-1zM5.39 7.61a.5.5 0 1 0 0 1h7.943a.5.5 0 0 0 0-1zM4.89 11.815a.5.5 0 0 1 .5-.5h7.943a.5.5 0 0 1 0 1H5.39a.5.5 0 0 1-.5-.5M4.01 8.43v.62H2.162v-.488l.785-.841q.108-.122.166-.207a.7.7 0 0 0 .08-.146v-.002a.294.294 0 0 0-.001-.226.13.13 0 0 0-.053-.06v-.001a.2.2 0 0 0-.098-.022.2.2 0 0 0-.108.028.2.2 0 0 0-.068.085.4.4 0 0 0-.028.154v.131h-.721v-.13a.88.88 0 0 1 .443-.769 1 1 0 0 1 .492-.12c.175 0 .333.028.466.092q.202.093.312.278a.8.8 0 0 1 .106.417q0 .136-.044.265a1.2 1.2 0 0 1-.118.245 2 2 0 0 1-.175.233 5 5 0 0 1-.215.231l-.207.233zM2.632 11.208h.376q.094-.002.133-.024a.13.13 0 0 0 .058-.058v-.001a.25.25 0 0 0 .024-.114.2.2 0 0 0-.02-.099L3.2 10.91a.1.1 0 0 0-.049-.05H3.15a.23.23 0 0 0-.112-.024.2.2 0 0 0-.1.021.16.16 0 0 0-.064.052.12.12 0 0 0-.02.07v.131h-.72v-.13q-.002-.229.126-.41a.8.8 0 0 1 .329-.263q.201-.092.436-.092.257 0 .464.087a.74.74 0 0 1 .333.269.77.77 0 0 1 .12.436.6.6 0 0 1-.064.271.7.7 0 0 1-.169.218.68.68 0 0 1 .272.553.74.74 0 0 1-.288.606.9.9 0 0 1-.303.155 1.27 1.27 0 0 1-.688.006H2.7a1 1 0 0 1-.293-.142h-.002a.8.8 0 0 1-.219-.25v-.002a.76.76 0 0 1-.083-.36v-.13h.721v.13a.16.16 0 0 0 .025.09q.024.039.071.064a.3.3 0 0 0 .118.026.3.3 0 0 0 .128-.026.16.16 0 0 0 .067-.063.2.2 0 0 0 .027-.11.27.27 0 0 0-.028-.136.14.14 0 0 0-.072-.062.4.4 0 0 0-.152-.026h-.376z"/></svg>