<svg xmlns="http://www.w3.org/2000/svg" width="16" height="16" fill="none" class="persona-icon" viewBox="0 0 16 16"><path fill="currentColor" d="M5 3.823a.5.5 0 0 1 .5-.5h8a.5.5 0 0 1 0 1h-8a.5.5 0 0 1-.5-.5ZM5 8a.5.5 0 0 1 .5-.5h8a.5.5 0 0 1 0 1h-8A.5.5 0 0 1 5 8ZM5 12.155a.5.5 0 0 1 .5-.5h8a.5.5 0 0 1 0 1h-8a.5.5 0 0 1-.5-.5ZM2.157 4.763c0 .104.028.203.1.279l.005.005c.076.073.177.1.282.1H3.72a.385.385 0 0 0 .281-.103.385.385 0 0 0 .106-.28.374.374 0 0 0-.107-.28.386.386 0 0 0-.28-.1h-.133V3.024l.009-.005h-.009v-.133a.371.371 0 0 0-.113-.285.406.406 0 0 0-.287-.102c-.07 0-.138.01-.204.029h-.002a.745.745 0 0 0-.182.085l-.458.285a.399.399 0 0 0-.175.196.393.393 0 0 0 .087.426.37.37 0 0 0 .201.104h.006a.382.382 0 0 0 .25-.062v.82h-.166a.397.397 0 0 0-.282.1l-.003.003a.38.38 0 0 0-.102.277ZM2.091 8.923c0 .109.026.213.098.293l.005.005c.08.08.193.106.307.106h1.16a.385.385 0 0 0 .281-.103.385.385 0 0 0 .106-.28.374.374 0 0 0-.107-.28.386.386 0 0 0-.28-.1h-.343l.153-.152a2.01 2.01 0 0 0 .26-.303 1.07 1.07 0 0 0 .2-.616.809.809 0 0 0-.117-.445.739.739 0 0 0-.343-.284 1.276 1.276 0 0 0-.51-.09c-.12 0-.241.013-.362.04a1.358 1.358 0 0 0-.351.132.394.394 0 0 0-.212.399v.005c.014.071.043.136.089.191l.003.004a.36.36 0 0 0 .19.115.39.39 0 0 0 .248-.031l.003-.002.003-.002a.677.677 0 0 1 .162-.061l.004-.002a.545.545 0 0 1 .137-.019c.089 0 .136.019.159.037.015.011.03.03.03.083a.27.27 0 0 1-.039.135l-.001.003c-.028.051-.08.121-.163.21l-.583.61a.929.929 0 0 0-.128.168l-.002.004a.475.475 0 0 0-.057.23ZM3.023 11.752a.1.1 0 0 0 .046-.03.095.095 0 0 0 .012-.052c0-.036-.01-.048-.024-.058l-.002-.001c-.018-.014-.061-.03-.15-.03a.803.803 0 0 0-.342.077l-.003.002a.374.374 0 0 1-.248.022h-.001a.363.363 0 0 1-.183-.12l-.003-.004-.002-.003a.423.423 0 0 1-.077-.19.385.385 0 0 1 .035-.219.393.393 0 0 1 .187-.179 1.45 1.45 0 0 1 .334-.117c.12-.027.241-.04.362-.04.188 0 .356.027.501.087.145.06.262.149.343.271a.724.724 0 0 1 .123.422c0 .106-.02.207-.061.3a.626.626 0 0 1-.14.201.72.72 0 0 1 .275.585.76.76 0 0 1-.135.447.822.822 0 0 1-.376.287l-.002.001c-.156.06-.338.09-.541.09-.122 0-.244-.013-.366-.037a1.333 1.333 0 0 1-.325-.104.46.46 0 0 1-.207-.175l-.002-.004a.394.394 0 0 1 .031-.433l.003-.003a.373.373 0 0 1 .194-.123.395.395 0 0 1 .268.026.982.982 0 0 0 .2.065c.06.011.12.017.18.017a.511.511 0 0 0 .159-.02.112.112 0 0 0 .054-.032.108.108 0 0 0 .014-.061c0-.042-.012-.052-.022-.058l-.005-.003c-.02-.015-.067-.033-.16-.033h-.18a.402.402 0 0 1-.284-.1.369.369 0 0 1-.109-.276c0-.104.03-.203.108-.277.078-.073.18-.1.286-.1h.12a.31.31 0 0 0 .113-.017h.002Z"/></svg>