<svg xmlns="http://www.w3.org/2000/svg" width="20" height="20" fill="none" class="persona-icon" viewBox="0 0 20 20"><path fill="currentColor" d="M4.573 3.925v3.133H3.7V4.941l-.668.212v-.766l1.294-.462zM6.82 4.945a.625.625 0 1 0 0 1.25h9.647a.625.625 0 1 0 0-1.25zM6.82 9.426a.625.625 0 0 0 0 1.25h9.647a.625.625 0 1 0 0-1.25zM6.195 14.531c0-.345.28-.625.625-.625h9.647a.625.625 0 0 1 0 1.25H6.82a.625.625 0 0 1-.625-.625M5.14 11.558v-.75H4.13l.252-.282q.141-.145.26-.28.123-.142.212-.283a1.4 1.4 0 0 0 .143-.297q.053-.156.053-.322a.97.97 0 0 0-.128-.505.83.83 0 0 0-.378-.337 1.3 1.3 0 0 0-.565-.111c-.222 0-.423.046-.596.146a1.03 1.03 0 0 0-.397.393q-.14.247-.14.538v.158h.874v-.158a.5.5 0 0 1 .033-.187.24.24 0 0 1 .082-.103.23.23 0 0 1 .132-.035.2.2 0 0 1 .117.027h.002a.16.16 0 0 1 .063.074v.001a.36.36 0 0 1 .003.274l-.001.001a1 1 0 0 1-.097.177 3 3 0 0 1-.202.25l-.95 1.02v.591zM3.471 14.166h.455a.36.36 0 0 0 .162-.03.16.16 0 0 0 .07-.07v-.002a.3.3 0 0 0 .03-.138q-.001-.076-.026-.12l-.002-.003a.13.13 0 0 0-.058-.06l-.003-.002a.3.3 0 0 0-.136-.027.3.3 0 0 0-.122.025.2.2 0 0 0-.077.062.14.14 0 0 0-.023.086v.159h-.874v-.159a.83.83 0 0 1 .153-.495v-.001a1 1 0 0 1 .398-.32q.245-.11.53-.11.311 0 .562.105.253.107.403.326c.1.15.146.329.146.528a.74.74 0 0 1-.078.329.9.9 0 0 1-.204.263.82.82 0 0 1 .329.67.897.897 0 0 1-.348.735q-.16.126-.368.189h-.002a1.54 1.54 0 0 1-.832.007h-.003a1.2 1.2 0 0 1-.355-.172l-.002-.001a.9.9 0 0 1-.265-.303l-.001-.002a.9.9 0 0 1-.1-.435v-.158h.874v.158q0 .065.03.108.029.048.086.077.06.03.143.031a.34.34 0 0 0 .155-.03.2.2 0 0 0 .082-.076v-.002a.26.26 0 0 0 .032-.131.3.3 0 0 0-.034-.165v-.002a.17.17 0 0 0-.087-.074.5.5 0 0 0-.185-.031h-.455z"/></svg>