<svg xmlns="http://www.w3.org/2000/svg" width="20" height="20" fill="none" class="persona-icon"><path fill="currentColor" d="M6.25 4.654c0-.345.28-.625.625-.625h10a.625.625 0 1 1 0 1.25h-10a.625.625 0 0 1-.625-.625ZM6.25 10c0-.345.28-.625.625-.625h10a.625.625 0 1 1 0 1.25h-10A.625.625 0 0 1 6.25 10ZM6.25 15.319c0-.346.28-.625.625-.625h10a.625.625 0 1 1 0 1.25h-10a.625.625 0 0 1-.625-.625ZM2.696 5.83c0 .128.035.252.125.347l.006.006a.496.496 0 0 0 .352.125H4.65a.48.48 0 0 0 .351-.128.48.48 0 0 0 .132-.35A.467.467 0 0 0 5 5.48a.482.482 0 0 0-.35-.126h-.167V3.657l.012-.007h-.011v-.167a.464.464 0 0 0-.141-.355.508.508 0 0 0-.36-.128.908.908 0 0 0-.255.036h-.001a.927.927 0 0 0-.228.106l-.573.357a.5.5 0 0 0-.219.244.492.492 0 0 0 .109.533c.07.07.155.113.251.13h.007a.478.478 0 0 0 .314-.077v1.025h-.209a.497.497 0 0 0-.352.125l-.003.003a.475.475 0 0 0-.128.347ZM2.613 11.154a.53.53 0 0 0 .122.366l.006.006c.1.1.242.132.384.132h1.45a.48.48 0 0 0 .352-.128.48.48 0 0 0 .132-.35.467.467 0 0 0-.134-.35.482.482 0 0 0-.35-.126h-.429l.192-.19a2.5 2.5 0 0 0 .325-.378 1.337 1.337 0 0 0 .25-.77c0-.21-.046-.398-.147-.556a.923.923 0 0 0-.429-.355 1.594 1.594 0 0 0-.637-.113c-.15 0-.302.016-.452.05a1.7 1.7 0 0 0-.44.166.492.492 0 0 0-.264.498v.007c.017.089.054.17.111.239l.004.004a.451.451 0 0 0 .236.144h.002a.488.488 0 0 0 .309-.04l.004-.001.004-.003a.839.839 0 0 1 .202-.077l.005-.001a.685.685 0 0 1 .171-.024c.111 0 .17.023.2.045.018.015.038.04.038.105 0 .05-.014.106-.05.168l-.002.004c-.034.065-.1.152-.203.264l-.729.762a1.168 1.168 0 0 0-.16.209l-.003.005a.594.594 0 0 0-.07.288ZM3.78 14.815a.126.126 0 0 0 .056-.037.119.119 0 0 0 .015-.066c0-.045-.013-.06-.03-.072l-.002-.002c-.023-.016-.076-.038-.189-.038a1.004 1.004 0 0 0-.426.098l-.005.001a.467.467 0 0 1-.308.028h-.002a.454.454 0 0 1-.229-.15l-.003-.004-.003-.005a.529.529 0 0 1-.097-.236v-.001a.478.478 0 0 1 .044-.274.492.492 0 0 1 .234-.223 1.82 1.82 0 0 1 .417-.147c.15-.033.302-.05.453-.05.235 0 .445.034.626.109a.905.905 0 0 1 .583.867.923.923 0 0 1-.077.375.782.782 0 0 1-.175.25.9.9 0 0 1 .343.732.95.95 0 0 1-.167.56c-.113.16-.273.278-.47.358h-.003A1.873 1.873 0 0 1 3.69 17c-.153 0-.305-.015-.457-.045a1.664 1.664 0 0 1-.407-.13.574.574 0 0 1-.259-.22l-.003-.004a.493.493 0 0 1 .04-.54l.003-.005a.466.466 0 0 1 .243-.154.494.494 0 0 1 .335.033 1.188 1.188 0 0 0 .475.103.64.64 0 0 0 .198-.025.14.14 0 0 0 .068-.04.135.135 0 0 0 .018-.077c0-.053-.015-.064-.027-.072l-.007-.005c-.026-.018-.084-.04-.2-.04h-.224a.502.502 0 0 1-.357-.125.46.46 0 0 1-.135-.346.46.46 0 0 1 .135-.345.502.502 0 0 1 .357-.125h.15c.066 0 .112-.01.142-.022l.002-.001Z"/></svg>