<svg xmlns="http://www.w3.org/2000/svg" width="24" height="24" fill="none" class="persona-icon" viewBox="0 0 24 24"><path fill="currentColor" fill-rule="evenodd" d="M7.25 6.405a.75.75 0 0 1 .75-.75h12.2a.75.75 0 0 1 0 1.5H8a.75.75 0 0 1-.75-.75M7.25 12.072a.75.75 0 0 1 .75-.75h12.2a.75.75 0 0 1 0 1.5H8a.75.75 0 0 1-.75-.75M7.25 17.739a.75.75 0 0 1 .75-.75h12.2a.75.75 0 0 1 0 1.5H8a.75.75 0 0 1-.75-.75M5.158 8.4H4.055V5.722l-.845.268v-.968l1.638-.584h.31zM5.876 14.2H3.044v-.747l1.203-1.29a3 3 0 0 0 .255-.316q.09-.137.122-.224l.001-.002a.45.45 0 0 0-.002-.346v-.002a.2.2 0 0 0-.08-.092l-.003-.002a.3.3 0 0 0-.148-.033.3.3 0 0 0-.167.044.3.3 0 0 0-.104.13.6.6 0 0 0-.042.236v.2H2.973v-.2q0-.368.178-.68.18-.315.502-.497.332-.187.753-.185c.27 0 .51.044.715.141.206.095.368.237.478.426.111.186.162.402.162.639q0 .209-.066.407a1.8 1.8 0 0 1-.182.376 3 3 0 0 1-.267.357q-.15.171-.33.354l-.318.357h1.278zM3.764 17.218h.576l.05-.002a.4.4 0 0 0 .154-.036.2.2 0 0 0 .089-.089v-.001a.4.4 0 0 0 .037-.175.3.3 0 0 0-.032-.151l-.002-.005a.16.16 0 0 0-.074-.076l-.003-.002a.35.35 0 0 0-.172-.035q-.089 0-.155.032a.24.24 0 0 0-.097.079.2.2 0 0 0-.03.109v.2H3v-.2c0-.233.063-.445.194-.627l.001-.001q.193-.263.503-.404.31-.14.67-.14.393-.002.71.133.321.135.51.412c.127.19.185.416.185.668a.9.9 0 0 1-.098.416q-.095.188-.26.333.023.017.044.035.184.15.28.362.094.21.093.451a1.2 1.2 0 0 1-.115.532q-.117.235-.326.397-.203.159-.464.239h-.002a1.95 1.95 0 0 1-1.054.008H3.87a1.5 1.5 0 0 1-.45-.217l-.002-.002a1.2 1.2 0 0 1-.336-.382l-.001-.003a1.16 1.16 0 0 1-.126-.55v-.2h1.105v.2q.001.083.037.137c.026.04.06.072.11.097a.4.4 0 0 0 .18.04.4.4 0 0 0 .197-.04.24.24 0 0 0 .103-.096h.001a.33.33 0 0 0 .04-.167.4.4 0 0 0-.043-.21v-.001a.22.22 0 0 0-.11-.094.6.6 0 0 0-.234-.04h-.576z" clip-rule="evenodd"/></svg>