<svg xmlns="http://www.w3.org/2000/svg" width="24" height="24" fill="none" class="persona-icon" viewBox="0 0 24 24"><path fill="currentColor" fill-rule="evenodd" d="M7.5 6a.75.75 0 0 1 .75-.75h12a.75.75 0 0 1 0 1.5h-12A.75.75 0 0 1 7.5 6M7.5 12a.75.75 0 0 1 .75-.75h12a.75.75 0 0 1 0 1.5h-12A.75.75 0 0 1 7.5 12M7.5 18a.75.75 0 0 1 .75-.75h12a.75.75 0 0 1 0 1.5h-12A.75.75 0 0 1 7.5 18M3.236 7.394c0 .155.042.303.15.417l.007.008c.115.11.266.15.423.15h1.765c.156 0 .308-.04.421-.154a.577.577 0 0 0 .159-.421.56.56 0 0 0-.16-.418.578.578 0 0 0-.42-.152h-.2V4.787l.013-.008h-.013v-.2a.558.558 0 0 0-.169-.427A.61.61 0 0 0 4.781 4c-.105 0-.207.014-.306.043h-.002a1.12 1.12 0 0 0-.274.128l-.687.428a.6.6 0 0 0-.262.293.591.591 0 0 0 .13.64.555.555 0 0 0 .302.155l.008.001a.574.574 0 0 0 .376-.093v1.23h-.25a.595.595 0 0 0-.423.15l-.003.003a.57.57 0 0 0-.154.417M3.137 13.369c0 .162.038.32.146.439l.007.007c.12.12.29.159.462.159h1.74c.155 0 .308-.04.42-.154a.577.577 0 0 0 .16-.421.56.56 0 0 0-.16-.419.578.578 0 0 0-.42-.151h-.516l.23-.228c.16-.156.29-.307.39-.454a1.604 1.604 0 0 0 .3-.923c0-.252-.054-.479-.176-.668a1.108 1.108 0 0 0-.514-.426 1.913 1.913 0 0 0-.765-.136c-.181 0-.362.02-.542.06-.183.04-.359.107-.528.199a.591.591 0 0 0-.318.598l.002.008a.62.62 0 0 0 .132.287l.005.005a.541.541 0 0 0 .283.172h.002a.586.586 0 0 0 .37-.047l.006-.002.005-.003c.092-.047.172-.077.242-.092l.007-.002a.816.816 0 0 1 .204-.028c.134 0 .204.027.24.054.022.017.045.047.045.126 0 .06-.016.127-.059.201l-.002.005c-.041.077-.12.182-.244.316l-.874.915c-.076.08-.14.163-.193.25l-.003.007a.714.714 0 0 0-.085.346M4.535 17.38a.151.151 0 0 0 .068-.045.142.142 0 0 0 .018-.079c0-.054-.015-.072-.035-.087l-.004-.002c-.026-.02-.091-.046-.226-.046a1.204 1.204 0 0 0-.512.117l-.005.003a.562.562 0 0 1-.37.033h-.002a.544.544 0 0 1-.275-.18l-.004-.005-.004-.006a.634.634 0 0 1-.116-.283v-.002a.573.573 0 0 1 .053-.328.591.591 0 0 1 .281-.268c.155-.077.323-.136.5-.176.181-.04.363-.06.544-.06.282 0 .535.041.751.13.218.09.393.224.515.408.126.182.184.396.184.632 0 .16-.03.31-.092.451a.937.937 0 0 1-.21.301 1.078 1.078 0 0 1 .412.878c0 .25-.065.476-.2.67a1.233 1.233 0 0 1-.565.43l-.002.002a2.247 2.247 0 0 1-.813.133 2.85 2.85 0 0 1-.548-.053 2.004 2.004 0 0 1-.488-.156.689.689 0 0 1-.31-.264l-.004-.006a.59.59 0 0 1 .048-.648l.004-.006a.559.559 0 0 1 .29-.184.594.594 0 0 1 .403.039c.113.049.213.08.298.097.091.018.182.026.272.026a.77.77 0 0 0 .237-.03.17.17 0 0 0 .082-.047.162.162 0 0 0 .021-.093c0-.062-.018-.077-.032-.086l-.008-.005c-.032-.023-.101-.049-.24-.049h-.27a.602.602 0 0 1-.427-.15.553.553 0 0 1-.163-.415c0-.156.046-.304.163-.415.116-.11.27-.15.427-.15h.18c.08 0 .135-.01.171-.025l.003-.002" clip-rule="evenodd"/></svg>