<svg xmlns="http://www.w3.org/2000/svg" width="32" height="32" fill="none" class="persona-icon" viewBox="0 0 32 32"><path fill="currentColor" d="M6.89 5.237v5.31H5.394V6.98l-1.126.358v-1.32l2.194-.782zM10.667 7.54a1 1 0 0 0 0 2h16.266a1 1 0 1 0 0-2zM10.667 15.096a1 1 0 1 0 0 2h16.266a1 1 0 1 0 0-2zM9.667 23.651a1 1 0 0 1 1-1h16.266a1 1 0 1 1 0 2H10.667a1 1 0 0 1-1-1M7.848 18.28v-1.292H6.16l.403-.453q.24-.244.44-.474.208-.239.358-.477.156-.246.243-.502v-.001q.09-.267.09-.548a1.65 1.65 0 0 0-.218-.858 1.4 1.4 0 0 0-.643-.574c-.275-.13-.598-.189-.959-.189a2 2 0 0 0-1.011.248 1.76 1.76 0 0 0-.674.668q-.24.42-.239.914v.28h1.5v-.28q.002-.185.056-.31a.4.4 0 0 1 .134-.168.38.38 0 0 1 .215-.056c.095 0 .154.02.19.043l.003.001a.25.25 0 0 1 .102.118l.001.002a.59.59 0 0 1 .002.45v.004a1.5 1.5 0 0 1-.162.296 4 4 0 0 1-.34.42l-1.606 1.723v1.015zM5.006 22.277h.781c.13 0 .213-.022.266-.05a.26.26 0 0 0 .112-.111l.001-.003a.5.5 0 0 0 .047-.227.4.4 0 0 0-.04-.195l-.004-.007a.2.2 0 0 0-.093-.096l-.004-.002a.45.45 0 0 0-.223-.045.5.5 0 0 0-.2.042.3.3 0 0 0-.125.1.23.23 0 0 0-.036.138v.28H3.987v-.28c0-.313.085-.599.26-.844l.002-.002c.172-.235.4-.415.676-.541q.415-.19.898-.189c.35 0 .67.057.953.18.286.12.518.304.685.553.172.255.25.56.25.898q-.001.293-.133.56v.002a1.5 1.5 0 0 1-.336.436l.045.037q.247.201.377.488.126.282.125.606.001.388-.155.715v.002a1.5 1.5 0 0 1-.438.533q-.272.212-.623.32H6.57a2.6 2.6 0 0 1-1.412.012l-.004-.001a2 2 0 0 1-.603-.291l-.004-.003a1.6 1.6 0 0 1-.45-.514l-.003-.003c-.116-.22-.169-.47-.169-.74v-.28h1.5v.28c0 .072.018.127.048.175a.35.35 0 0 0 .14.125.5.5 0 0 0 .236.051c.116 0 .198-.02.256-.05a.3.3 0 0 0 .132-.123v-.002a.4.4 0 0 0 .051-.216.53.53 0 0 0-.054-.271l-.001-.003a.28.28 0 0 0-.139-.119.8.8 0 0 0-.307-.053h-.781z"/></svg>