<svg xmlns="http://www.w3.org/2000/svg" width="32" height="32" fill="none"><path fill="#000" fill-rule="evenodd" d="M8.333 10.667a7.667 7.667 0 1 1 14.244 3.94L16.866 24.5a1 1 0 0 1-1.732 0l-5.711-9.892a7.635 7.635 0 0 1-1.09-3.941ZM16 5a5.667 5.667 0 0 0-4.859 8.584l.01.016L16 22l4.85-8.4.009-.016A5.667 5.667 0 0 0 16 5Zm.001 3.999a1.667 1.667 0 1 0 0 3.333 1.667 1.667 0 0 0 0-3.333Zm-3.667 1.666a3.667 3.667 0 1 1 7.334 0 3.667 3.667 0 0 1-7.334 0ZM3 28a1 1 0 0 1 1-1h24a1 1 0 1 1 0 2H4a1 1 0 0 1-1-1Z" clip-rule="evenodd"/></svg>