<svg xmlns="http://www.w3.org/2000/svg" width="16" height="16" fill="none" class="persona-icon" viewBox="0 0 16 16"><path fill="currentColor" fill-rule="evenodd" d="M2.688 6.671A1.19 1.19 0 0 1 2 5.594V3.53c0-.656.532-1.187 1.188-1.187h9.625c.655 0 1.187.531 1.187 1.187v2.063c0 .477-.281.888-.687 1.077v5.798c0 .656-.532 1.187-1.188 1.187h-8.25a1.187 1.187 0 0 1-1.187-1.187zm.5-.89h9.625A.19.19 0 0 0 13 5.594V3.53a.187.187 0 0 0-.187-.187H3.188A.19.19 0 0 0 3 3.53v2.063c0 .103.084.187.188.187m2.937 2.563a.5.5 0 0 0 .5.5h2.75a.5.5 0 0 0 0-1h-2.75a.5.5 0 0 0-.5.5" clip-rule="evenodd"/></svg>