<svg xmlns="http://www.w3.org/2000/svg" width="24" height="24" fill="none" class="persona-icon" viewBox="0 0 24 24"><path fill="currentColor" fill-rule="evenodd" d="M4.031 10.007A1.78 1.78 0 0 1 3 8.39V5.297c0-.984.797-1.781 1.781-1.781H19.22c.983 0 1.781.797 1.781 1.78v3.095c0 .716-.422 1.333-1.031 1.616v8.696c0 .984-.798 1.781-1.782 1.781H5.813a1.78 1.78 0 0 1-1.78-1.78zm.75-1.335H19.22a.28.28 0 0 0 .281-.281V5.297a.28.28 0 0 0-.281-.281H4.78a.28.28 0 0 0-.281.28v3.095c0 .155.126.28.281.28m4.407 3.844c0 .414.335.75.75.75h4.124a.75.75 0 0 0 0-1.5H9.939a.75.75 0 0 0-.75.75" clip-rule="evenodd"/></svg>