<svg xmlns="http://www.w3.org/2000/svg" width="20" height="20" fill="none"><path fill="#000" fill-rule="evenodd" d="M15.3 3.054c.213.1.351.322.351.567v4.34h.083c.7 0 1.266.596 1.266 1.33V10c0 .735-.567 1.33-1.266 1.33h-.083v5.048c0 .257-.15.487-.378.58a.572.572 0 0 1-.651-.162l-.001-.001-.007-.007-.026-.03-.105-.117a18.54 18.54 0 0 0-1.812-1.723c-.572-.472-1.212-.932-1.86-1.273-.644-.338-1.257-.537-1.797-.543h-.783v2.213c0 .93-.718 1.685-1.604 1.685-.885 0-1.603-.754-1.603-1.684v-3.12a2.774 2.774 0 0 1-.505-.866h-.253C3.566 11.33 3 10.735 3 10V9.29c0-.734.567-1.33 1.266-1.33h.253c.375-1.036 1.328-1.772 2.445-1.772h2.024c1.167 0 2.56-.707 3.728-1.496A17.67 17.67 0 0 0 14.63 3.19l.026-.024.006-.005V3.16a.57.57 0 0 1 .637-.106ZM5.532 10.36V8.93c.004-.829.644-1.499 1.432-1.499h1.433v4.427H6.964c-.788 0-1.428-.67-1.432-1.498Zm8.936 4.532a19.152 19.152 0 0 0-1.067-.953c-.609-.502-1.318-1.016-2.061-1.406-.557-.293-1.155-.528-1.76-.626V7.391c1.353-.184 2.735-.95 3.776-1.652.42-.284.797-.566 1.112-.816v9.97Zm-8.261-1.908v2.33c0 .244.188.442.42.442.232 0 .42-.198.42-.441v-2.214h-.083c-.263 0-.517-.04-.757-.117Z" clip-rule="evenodd"/></svg>