<svg xmlns="http://www.w3.org/2000/svg" width="16" height="16" fill="none"><path fill="currentColor" d="M10.105 3.079a.5.5 0 0 1 .5-.5H13.5a.5.5 0 1 1 0 1h-2.895a.5.5 0 0 1-.5-.5ZM10.105 5.395a.5.5 0 0 1 .5-.5H13.5a.5.5 0 0 1 0 1h-2.895a.5.5 0 0 1-.5-.5ZM10.105 7.71a.5.5 0 0 1 .5-.5h1.158a.5.5 0 0 1 0 1h-1.158a.5.5 0 0 1-.5-.5ZM3.662 4.999a3 3 0 1 1 6 0 3 3 0 0 1-6 0Zm3-1.958a1.958 1.958 0 1 0 0 3.915 1.958 1.958 0 0 0 0-3.915ZM2.516 10.175A3.81 3.81 0 0 1 5.414 8.84H7.91a3.81 3.81 0 0 1 2.897 1.336c.333.39.516.887.516 1.4v.143A2.284 2.284 0 0 1 9.04 14H4.284A2.284 2.284 0 0 1 2 11.718v-.143c0-.513.183-1.01.516-1.4Zm7.532.65a2.81 2.81 0 0 0-2.138-.986H5.415a2.81 2.81 0 0 0-2.137.986c-.179.209-.277.475-.277.75v.143C3 12.427 3.575 13 4.284 13H9.04c.71 0 1.284-.574 1.284-1.283v-.143c0-.275-.098-.541-.276-.75Z"/></svg>