<svg xmlns="http://www.w3.org/2000/svg" width="20" height="20" fill="none" class="persona-icon" viewBox="0 0 20 20"><path fill="currentColor" fill-rule="evenodd" d="M3.592 12.366a4.64 4.64 0 0 1 3.533-1.63h3.032c1.36 0 2.65.596 3.534 1.63.407.477.63 1.083.63 1.71v.202a2.764 2.764 0 0 1-2.763 2.764H5.724a2.764 2.764 0 0 1-2.764-2.764v-.202c0-.627.224-1.233.632-1.71l.473.403zm1.572-5.93a3.477 3.477 0 1 1 6.954 0 3.477 3.477 0 0 1-6.954 0m7.843-2.14c0-.345.28-.625.625-.625h3.565a.625.625 0 1 1 0 1.25h-3.565a.625.625 0 0 1-.625-.625m0 2.852c0-.345.28-.625.625-.625h3.565a.625.625 0 0 1 0 1.25h-3.565a.625.625 0 0 1-.625-.625m0 2.852c0-.345.28-.625.625-.625h1.426a.625.625 0 0 1 0 1.25h-1.426a.625.625 0 0 1-.625-.625m-5.882 1.986c-.994 0-1.938.435-2.583 1.191-.214.25-.332.57-.332.9v.2c0 .837.678 1.515 1.514 1.515h5.834c.836 0 1.514-.678 1.514-1.514v-.202c0-.33-.118-.648-.332-.899a3.4 3.4 0 0 0-2.583-1.19zM8.64 4.208a2.227 2.227 0 1 0 0 4.454 2.227 2.227 0 0 0 0-4.454" clip-rule="evenodd"/></svg>