<svg xmlns="http://www.w3.org/2000/svg" width="20" height="20" fill="none" class="persona-icon" viewBox="0 0 20 20"><path fill="currentColor" fill-rule="evenodd" d="M13 3.72c0-.398.29-.72.65-.72h3.7c.36 0 .65.322.65.72s-.29.719-.65.719h-3.7c-.36 0-.65-.322-.65-.72M13 7c0-.397.29-.72.65-.72h3.7c.36 0 .65.323.65.72s-.29.72-.65.72h-3.7c-.36 0-.65-.323-.65-.72M13 10.28c0-.396.29-.718.65-.718h1.48c.358 0 .649.322.649.719s-.29.719-.65.719h-1.48c-.358 0-.649-.322-.649-.72M2.709 12.852a5.35 5.35 0 0 1 4.028-1.817h3.526c1.55 0 3.022.664 4.028 1.817.458.524.709 1.19.709 1.879v.197C15 16.625 13.594 18 11.86 18H5.14C3.407 18 2 16.625 2 14.928v-.197c0-.689.251-1.355.708-1.88m4.028-.601a4.1 4.1 0 0 0-3.083 1.39c-.265.304-.411.69-.411 1.09v.197c0 1.025.85 1.856 1.898 1.856h6.718c1.048 0 1.898-.83 1.898-1.856v-.197c0-.4-.146-.786-.41-1.09a4.1 4.1 0 0 0-3.084-1.39zM4.519 5.893C4.52 3.743 6.302 2 8.5 2s3.98 1.743 3.98 3.893-1.782 3.894-3.98 3.894-3.98-1.744-3.98-3.894M8.5 3.216c-1.512 0-2.738 1.198-2.738 2.677S6.988 8.571 8.5 8.571s2.738-1.199 2.738-2.678S10.012 3.216 8.5 3.216" clip-rule="evenodd"/></svg>