<svg xmlns="http://www.w3.org/2000/svg" width="20" height="20" fill="none" class="persona-icon" viewBox="0 0 20 20"><path fill="currentColor" fill-rule="evenodd" d="M5.733 4.225c-.833 0-1.508.675-1.508 1.508V7.6a.625.625 0 1 1-1.25 0V5.733a2.76 2.76 0 0 1 2.758-2.758H7.6a.625.625 0 1 1 0 1.25zm6.042-.625c0-.345.28-.625.625-.625h1.867a2.76 2.76 0 0 1 2.758 2.758V7.6a.625.625 0 1 1-1.25 0V5.733c0-.833-.675-1.508-1.508-1.508H12.4a.625.625 0 0 1-.625-.625M5.82 7.156c0-.345.28-.625.625-.625h7.11a.625.625 0 1 1 0 1.25h-7.11a.625.625 0 0 1-.625-.625m0 2.844c0-.345.28-.625.625-.625h7.11a.625.625 0 1 1 0 1.25h-7.11A.625.625 0 0 1 5.82 10M3.6 11.775c.345 0 .625.28.625.625v1.867c0 .833.675 1.508 1.508 1.508H7.6a.625.625 0 1 1 0 1.25H5.733a2.76 2.76 0 0 1-2.758-2.758V12.4c0-.345.28-.625.625-.625m12.8 0c.345 0 .625.28.625.625v1.867a2.76 2.76 0 0 1-2.758 2.758H12.4a.625.625 0 1 1 0-1.25h1.867c.833 0 1.508-.675 1.508-1.508V12.4c0-.345.28-.625.625-.625m-10.58 1.07c0-.346.28-.626.625-.626H10a.625.625 0 1 1 0 1.25H6.445a.625.625 0 0 1-.625-.624" clip-rule="evenodd"/></svg>