<svg xmlns="http://www.w3.org/2000/svg" width="20" height="20" fill="none" class="persona-icon" viewBox="0 0 20 20"><path fill="currentColor" d="M3.116 5.039c0-1.062.861-1.923 1.923-1.923h2.17A.558.558 0 1 0 7.21 2H5.04A3.04 3.04 0 0 0 2 5.039v2.17a.558.558 0 1 0 1.116 0zM12.79 2a.558.558 0 1 0 0 1.116h2.171c1.062 0 1.923.861 1.923 1.923v2.17a.558.558 0 1 0 1.116 0V5.04A3.04 3.04 0 0 0 14.961 2zM3.116 12.79a.558.558 0 1 0-1.116 0v2.171A3.04 3.04 0 0 0 5.039 18h2.17a.558.558 0 1 0 0-1.116H5.04a1.92 1.92 0 0 1-1.923-1.923zM18 12.79a.558.558 0 1 0-1.116 0v2.171c0 1.062-.861 1.923-1.923 1.923h-2.17a.558.558 0 1 0 0 1.116h2.17A3.04 3.04 0 0 0 18 14.961zM5.866 6.134a.558.558 0 0 0 0 1.116h8.268a.558.558 0 1 0 0-1.116zM5.308 10c0-.308.25-.558.558-.558h8.268a.558.558 0 0 1 0 1.116H5.866A.56.56 0 0 1 5.308 10M5.866 12.75a.558.558 0 1 0 0 1.116H10a.558.558 0 0 0 0-1.117z"/></svg>