<svg xmlns="http://www.w3.org/2000/svg" width="24" height="24" fill="none" class="persona-icon" viewBox="0 0 24 24"><path fill="currentColor" fill-rule="evenodd" d="M6.5 4.5a2 2 0 0 0-2 2v2.406a.75.75 0 0 1-1.5 0V6.5A3.5 3.5 0 0 1 6.5 3h2.406a.75.75 0 0 1 0 1.5zm7.844-.75a.75.75 0 0 1 .75-.75H17.5A3.5 3.5 0 0 1 21 6.5v2.406a.75.75 0 0 1-1.5 0V6.5a2 2 0 0 0-2-2h-2.406a.75.75 0 0 1-.75-.75M6.667 8.333a.75.75 0 0 1 .75-.75h9.166a.75.75 0 0 1 0 1.5H7.417a.75.75 0 0 1-.75-.75m0 3.667a.75.75 0 0 1 .75-.75h9.166a.75.75 0 0 1 0 1.5H7.417a.75.75 0 0 1-.75-.75M3.75 14.344a.75.75 0 0 1 .75.75V17.5a2 2 0 0 0 2 2h2.406a.75.75 0 0 1 0 1.5H6.5A3.5 3.5 0 0 1 3 17.5v-2.406a.75.75 0 0 1 .75-.75m16.5 0a.75.75 0 0 1 .75.75V17.5a3.5 3.5 0 0 1-3.5 3.5h-2.406a.75.75 0 1 1 0-1.5H17.5a2 2 0 0 0 2-2v-2.406a.75.75 0 0 1 .75-.75M6.667 15.667a.75.75 0 0 1 .75-.75H12a.75.75 0 0 1 0 1.5H7.417a.75.75 0 0 1-.75-.75" clip-rule="evenodd"/></svg>