<svg xmlns="http://www.w3.org/2000/svg" width="24" height="24" fill="none" class="persona-icon" viewBox="0 0 24 24"><path fill="currentColor" fill-rule="evenodd" d="M5.846 3.539A2.308 2.308 0 0 0 3.54 5.845V8.54a.77.77 0 0 1-1.539 0V5.846A3.846 3.846 0 0 1 5.846 2H8.54a.77.77 0 0 1 0 1.539zM2.77 14.692a.77.77 0 0 1 .77.77v2.692a2.308 2.308 0 0 0 2.307 2.308H8.54a.77.77 0 0 1 0 1.538H5.846A3.846 3.846 0 0 1 2 18.154V15.46a.77.77 0 0 1 .77-.769M14.692 2.77a.77.77 0 0 1 .77-.769h2.692A3.846 3.846 0 0 1 22 5.846V8.54a.77.77 0 0 1-1.538 0V5.846a2.308 2.308 0 0 0-2.308-2.307H15.46a.77.77 0 0 1-.769-.77m6.539 11.923a.77.77 0 0 1 .769.77v2.692A3.846 3.846 0 0 1 18.154 22H15.46a.77.77 0 0 1 0-1.538h2.693a2.308 2.308 0 0 0 2.308-2.308V15.46a.77.77 0 0 1 .769-.769M6.103 7.897a.77.77 0 0 1 .769-.769h10.256a.77.77 0 0 1 0 1.539H6.872a.77.77 0 0 1-.77-.77M6.103 12a.77.77 0 0 1 .769-.77h10.256a.77.77 0 0 1 0 1.54H6.872a.77.77 0 0 1-.77-.77M6.103 16.103a.77.77 0 0 1 .769-.77H12a.77.77 0 0 1 0 1.539H6.872a.77.77 0 0 1-.77-.77" clip-rule="evenodd"/></svg>