<svg xmlns="http://www.w3.org/2000/svg" width="32" height="32" fill="none"><path fill="#000" fill-rule="evenodd" d="M8.002 5.002a3 3 0 0 0-3 3v3.5a1 1 0 1 1-2 0v-3.5a5 5 0 0 1 5-5h3.5a1 1 0 1 1 0 2h-3.5Zm11.5-1a1 1 0 0 1 1-1h3.5a5 5 0 0 1 5 5v3.5a1 1 0 1 1-2 0v-3.5a3 3 0 0 0-3-3h-3.5a1 1 0 0 1-1-1Zm-15.5 15.5a1 1 0 0 1 1 1v3.5a3 3 0 0 0 3 3h3.5a1 1 0 0 1 0 2h-3.5a5 5 0 0 1-5-5v-3.5a1 1 0 0 1 1-1Zm24 0a1 1 0 0 1 1 1v3.5a5 5 0 0 1-5 5h-3.5a1 1 0 1 1 0-2h3.5a3 3 0 0 0 3-3v-3.5a1 1 0 0 1 1-1ZM8.336 10.67a1 1 0 0 1 1-1h13.333a1 1 0 0 1 0 2H9.336a1 1 0 0 1-1-1ZM8.336 16.002a1 1 0 0 1 1-1h13.333a1 1 0 0 1 0 2H9.336a1 1 0 0 1-1-1ZM8.336 21.336a1 1 0 0 1 1-1h6.666a1 1 0 1 1 0 2H9.336a1 1 0 0 1-1-1Z" clip-rule="evenodd"/></svg>