<svg xmlns="http://www.w3.org/2000/svg" width="24" height="24" fill="none"><path fill="#000" d="M13.25 6a.75.75 0 0 1 .75-.75h4a.747.747 0 0 1 .75.75v4a.75.75 0 0 1-1.5 0V7.81l-3.72 3.72a.75.75 0 1 1-1.06-1.06l3.72-3.72H14a.75.75 0 0 1-.75-.75Z"/><path fill="#000" fill-rule="evenodd" d="M6 2.25A3.75 3.75 0 0 0 2.25 6v12A3.75 3.75 0 0 0 6 21.75h12A3.75 3.75 0 0 0 21.75 18V6A3.75 3.75 0 0 0 18 2.25H6Zm6 18h6A2.25 2.25 0 0 0 20.25 18V6A2.25 2.25 0 0 0 18 3.75H6A2.25 2.25 0 0 0 3.75 6v6A3.734 3.734 0 0 1 6 11.25h3A3.75 3.75 0 0 1 12.75 15v3c0 .844-.279 1.623-.75 2.25ZM3.75 15v3A2.25 2.25 0 0 0 6 20.25h3A2.25 2.25 0 0 0 11.25 18v-3A2.25 2.25 0 0 0 9 12.75H6A2.25 2.25 0 0 0 3.75 15Z" clip-rule="evenodd"/></svg>