<svg xmlns="http://www.w3.org/2000/svg" width="16" height="16" fill="none" class="persona-icon" viewBox="0 0 16 16"><path fill="currentColor" d="M13.1 5.844c1.105 0 2-.905 2-2.022a2.01 2.01 0 0 0-2-2.022c-1.104 0-2 .905-2 2.022s.896 2.022 2 2.022"/><path fill="currentColor" d="M9.434 2.434c.276 0 .5.226.5.505 0 .28-.224.506-.5.506h-4.41c-.878 0-1.589.719-1.589 1.606v6.223L2.92 12.29h8.926c.877 0 1.589-.72 1.589-1.606V7.53c0-.28.223-.506.5-.506.276 0 .5.226.5.505v3.154c0 1.445-1.16 2.617-2.589 2.617H2.1a.5.5 0 0 1-.427-.242.51.51 0 0 1-.018-.495l.78-1.533V5.05c0-1.445 1.16-2.617 2.589-2.617z"/></svg>