<svg xmlns="http://www.w3.org/2000/svg" width="20" height="20" fill="none" class="persona-icon" viewBox="0 0 20 20"><path fill="currentColor" fill-rule="evenodd" d="M11.764 4.33a.6.6 0 0 0-.6-.6H6.03A3.03 3.03 0 0 0 3 6.76v6.876l-.906 1.76a.6.6 0 0 0 .534.875H13.97a3.03 3.03 0 0 0 3.03-3.03V9.612a.6.6 0 1 0-1.2 0v3.629c0 1.01-.82 1.83-1.83 1.83H3.61l.59-1.145V6.76c0-1.011.819-1.83 1.83-1.83h5.133a.6.6 0 0 0 .6-.6Z" clip-rule="evenodd"/><path fill="currentColor" d="M17.758 5.345a2.327 2.327 0 1 1-4.655 0 2.327 2.327 0 0 1 4.655 0Z"/></svg>