<svg xmlns="http://www.w3.org/2000/svg" width="20" height="20" fill="none" class="persona-icon" viewBox="0 0 20 20"><path fill="currentColor" d="M15.307 7.695A2.29 2.29 0 0 0 17.6 5.412a2.29 2.29 0 0 0-2.293-2.283 2.29 2.29 0 0 0-2.294 2.283 2.29 2.29 0 0 0 2.294 2.283"/><path fill="currentColor" d="M11.102 3.827a.59.59 0 0 1 .592.588.59.59 0 0 1-.592.59H6.044A1.8 1.8 0 0 0 4.24 6.8v7.029l-.58 1.123h10.207a1.8 1.8 0 0 0 1.804-1.795v-3.56a.59.59 0 0 1 .591-.588.59.59 0 0 1 .591.588v3.56a2.98 2.98 0 0 1-2.986 2.972H2.691a.586.586 0 0 1-.526-.858l.893-1.727V6.8a2.98 2.98 0 0 1 2.986-2.973z"/></svg>