<svg xmlns="http://www.w3.org/2000/svg" width="24" height="24" fill="none" class="persona-icon" viewBox="0 0 24 24"><path fill="currentColor" fill-rule="evenodd" d="M14.25 4.69a.75.75 0 0 0-.75-.75H6.883A3.883 3.883 0 0 0 3 7.823v8.87l-1.17 2.275a.75.75 0 0 0 .667 1.093h14.62A3.883 3.883 0 0 0 21 16.178V11.5a.75.75 0 0 0-1.5 0v4.678a2.383 2.383 0 0 1-2.383 2.383H3.726l.774-1.506V7.823A2.383 2.383 0 0 1 6.883 5.44H13.5a.75.75 0 0 0 .75-.75Z" clip-rule="evenodd"/><path fill="currentColor" d="M22 6a3 3 0 1 1-6 0 3 3 0 0 1 6 0Z"/></svg>