<svg xmlns="http://www.w3.org/2000/svg" width="32" height="32" fill="none" class="persona-icon" viewBox="0 0 32 32"><path fill="currentColor" fill-rule="evenodd" d="M19 7.254a1 1 0 0 0-1-1H9.177A5.177 5.177 0 0 0 4 11.43v11.826L2.44 26.29a1 1 0 0 0 .89 1.458h19.493A5.177 5.177 0 0 0 28 22.57v-6.237a1 1 0 1 0-2 0v6.237a3.177 3.177 0 0 1-3.177 3.178H4.968L6 23.74V11.43a3.177 3.177 0 0 1 3.177-3.177H18a1 1 0 0 0 1-1" clip-rule="evenodd"/><path fill="currentColor" d="M29.333 9a4 4 0 1 1-8 0 4 4 0 0 1 8 0"/></svg>