<svg xmlns="http://www.w3.org/2000/svg" width="16" height="16" fill="none" class="persona-icon" viewBox="0 0 16 16"><path fill="currentColor" fill-rule="evenodd" d="M13.964 7.187c-.08.452-.294.874-.616 1.209L12.725 14h-9.45l-.623-5.604a2.334 2.334 0 0 1-.616-1.209A.497.497 0 0 1 2 7v-.222c0-.074.016-.144.045-.207l1.05-2.45A3.5 3.5 0 0 1 6.31 2h3.377a3.5 3.5 0 0 1 3.217 2.121l1.05 2.448c.029.064.045.134.045.209V7c0 .066-.013.13-.036.187Zm-4.13-.91a.5.5 0 0 1 .5.5 1.334 1.334 0 0 0 2.663.096l-1.01-2.358A2.5 2.5 0 0 0 9.687 3H6.311a2.5 2.5 0 0 0-2.297 1.515l-1.01 2.357a1.33 1.33 0 0 0 1.33 1.24 1.334 1.334 0 0 0 1.333-1.326v-.008a.5.5 0 1 1 1 0v.008a1.333 1.333 0 0 0 2.666-.008.5.5 0 0 1 .5-.5Zm1.833 2.834c.206 0 .409-.027.604-.08l-.44 3.97H9.721v-2.556a.5.5 0 0 0-.5-.5H6.778a.5.5 0 0 0-.5.5V13H4.17l-.441-3.969a2.336 2.336 0 0 0 2.438-.81 2.333 2.333 0 0 0 3.667 0 2.34 2.34 0 0 0 1.833.89Zm-4.39 3.89h1.445v-2.056H7.278V13Z" clip-rule="evenodd"/></svg>