<svg xmlns="http://www.w3.org/2000/svg" width="16" height="16" fill="none" class="persona-icon"><path fill="currentColor" d="M13.964 7.187c-.08.452-.294.874-.616 1.209L12.725 14h-9.45l-.623-5.604a2.334 2.334 0 0 1-.616-1.209A.497.497 0 0 1 2 7v-.222c0-.074.016-.144.045-.207l1.05-2.45A3.5 3.5 0 0 1 6.31 2h3.377a3.5 3.5 0 0 1 3.217 2.121l1.05 2.448c.029.064.045.134.045.209V7c0 .066-.013.13-.036.187Zm-4.13-.91a.5.5 0 0 1 .5.5 1.334 1.334 0 0 0 2.663.096l-1.01-2.358A2.5 2.5 0 0 0 9.687 3H6.311a2.5 2.5 0 0 0-2.297 1.515l-1.01 2.357a1.33 1.33 0 0 0 1.33 1.24 1.334 1.334 0 0 0 1.333-1.326v-.008a.5.5 0 1 1 1 0v.008a1.333 1.333 0 0 0 2.666-.008.5.5 0 0 1 .5-.5Zm1.833 2.834a2.333 2.333 0 0 1-1.834-.89 2.333 2.333 0 0 1-3.667 0 2.342 2.342 0 0 1-.94.713 2.333 2.333 0 0 1-1.497.098L4.169 13h2.109v-2.556a.5.5 0 0 1 .5-.5h2.444a.5.5 0 0 1 .5.5V13h2.108l.441-3.969a2.33 2.33 0 0 1-.604.08Zm-4.39 3.89v-2.056h1.445V13H7.278Z"/></svg>