<svg xmlns="http://www.w3.org/2000/svg" width="20" height="20" fill="none" class="persona-icon" viewBox="0 0 20 20"><path fill="currentColor" fill-rule="evenodd" d="M4.605 4.647A2.76 2.76 0 0 1 7.14 2.975h5.72c1.104 0 2.1.658 2.535 1.672l1.58 3.685q.05.117.05.246c0 .709-.273 1.39-.76 1.902l-.666 5.989a.625.625 0 0 1-.621.556H5.022a.625.625 0 0 1-.621-.556l-.665-5.99a2.76 2.76 0 0 1-.76-1.901q0-.128.05-.246zm.172 5.097a1.4 1.4 0 0 0 .278.181q.05.025.101.046A1.508 1.508 0 0 0 7.242 8.58a.625.625 0 0 1 1.25 0c0 .4.159.783.441 1.065l-.441.442.441-.442a1.508 1.508 0 0 0 2.575-1.066.625.625 0 1 1 1.25 0 1.508 1.508 0 0 0 3.013.117L14.246 5.14a1.51 1.51 0 0 0-1.386-.914H7.14c-.603 0-1.148.36-1.386.914L4.23 8.695a1.5 1.5 0 0 0 .547 1.049m9.49 1.592a2.76 2.76 0 0 1-2.134-1.01q-.085.105-.183.202a2.76 2.76 0 0 1-4.083-.202 2.76 2.76 0 0 1-2.787.931l.502 4.518h2.37v-2.93c0-.346.28-.626.626-.626h2.844c.345 0 .625.28.625.625v2.931h2.371l.502-4.517a2.8 2.8 0 0 1-.653.078m-3.47 4.439v-2.306H9.203v2.306z" clip-rule="evenodd"/></svg>