<svg xmlns="http://www.w3.org/2000/svg" width="20" height="20" fill="none" class="persona-icon" viewBox="0 0 20 20"><path fill="currentColor" fill-rule="evenodd" d="M4.416 5.151A3.55 3.55 0 0 1 7.678 3h4.644a3.55 3.55 0 0 1 3.262 2.151l1.368 3.192a.6.6 0 0 1 .048.233c0 .705-.273 1.382-.76 1.89l-.668 6.008a.59.59 0 0 1-.588.526H5.016a.59.59 0 0 1-.588-.526l-.668-6.01A2.73 2.73 0 0 1 3 8.577q0-.122.048-.233zm10.949 4.517c.263-.263.421-.611.448-.98l-1.316-3.07a2.37 2.37 0 0 0-2.175-1.435H7.678c-.947 0-1.802.564-2.175 1.434l-1.316 3.07a1.543 1.543 0 0 0 3.085-.11l.001-.037a.592.592 0 0 1 1.182.036 1.545 1.545 0 0 0 3.09 0 .592.592 0 0 1 1.183 0 1.545 1.545 0 0 0 2.559 1.164l.005-.004q.037-.033.072-.068m-3.35 6.149h2.44l.511-4.603a2.73 2.73 0 0 1-2.83-.942 2.728 2.728 0 0 1-4.272 0 2.75 2.75 0 0 1-1.093.824 2.73 2.73 0 0 1-1.706.126l-.031-.008.511 4.603h2.44v-2.969c0-.327.264-.591.591-.591h2.848c.327 0 .592.264.592.591zm-1.182 0V13.44H9.168v2.377z" clip-rule="evenodd"/></svg>