<svg xmlns="http://www.w3.org/2000/svg" width="24" height="24" fill="none" class="persona-icon" viewBox="0 0 24 24"><path fill="currentColor" fill-rule="evenodd" d="M5.096 5.121A3.5 3.5 0 0 1 8.313 3h7.374a3.5 3.5 0 0 1 3.217 2.121l2.035 4.75a.8.8 0 0 1 .061.296 3.5 3.5 0 0 1-.978 2.427l-.86 7.739a.75.75 0 0 1-.745.667H5.583a.75.75 0 0 1-.745-.667l-.86-7.74A3.5 3.5 0 0 1 3 10.168a.8.8 0 0 1 .06-.296zM10 10.167a2 2 0 0 0 4 0 .75.75 0 0 1 1.5 0 2 2 0 0 0 3.314 1.508l.003-.003q.05-.045.097-.091a2 2 0 0 0 .58-1.272l-1.969-4.597A2 2 0 0 0 15.687 4.5H8.313a2 2 0 0 0-1.838 1.212l-1.97 4.597a1.999 1.999 0 0 0 3.995-.142.75.75 0 0 1 1.5 0m-4.407 3.38.662 5.953h3.162v-3.833a.75.75 0 0 1 .75-.75h3.666a.75.75 0 0 1 .75.75V19.5h3.162l.662-5.953a3.5 3.5 0 0 1-3.657-1.215 3.5 3.5 0 0 1-5.5 0A3.5 3.5 0 0 1 7.84 13.4a3.5 3.5 0 0 1-2.247.147m7.49 5.953v-3.083h-2.166V19.5z" clip-rule="evenodd"/></svg>