<svg xmlns="http://www.w3.org/2000/svg" width="32" height="32" fill="none" class="persona-icon" viewBox="0 0 32 32"><path fill="currentColor" fill-rule="evenodd" d="M6.795 6.828A4.67 4.67 0 0 1 11.085 4h9.83a4.67 4.67 0 0 1 4.29 2.828l2.714 6.334a1 1 0 0 1 .081.394 4.67 4.67 0 0 1-1.304 3.235l-1.147 10.32a1 1 0 0 1-.994.889H7.445a1 1 0 0 1-.995-.89L5.305 16.791A4.67 4.67 0 0 1 4 13.556a1 1 0 0 1 .08-.394zm.5 9.015a2.65 2.65 0 0 0 1.372.38 2.667 2.667 0 0 0 2.667-2.696 1 1 0 0 1 2 .029 2.667 2.667 0 0 0 5.333 0 1 1 0 1 1 2 0 2.667 2.667 0 0 0 4.418 2.01l.005-.004q.066-.058.129-.12a2.67 2.67 0 0 0 .774-1.697l-2.626-6.129A2.67 2.67 0 0 0 20.916 6h-9.831c-1.067 0-2.031.636-2.452 1.616l-2.626 6.13a2.67 2.67 0 0 0 1.289 2.097m16.038 2.38a4.67 4.67 0 0 1-3.666-1.78 4.667 4.667 0 0 1-7.333 0 4.67 4.67 0 0 1-3.667 1.78q-.617-.001-1.21-.16L8.34 26h4.217v-5.111a1 1 0 0 1 1-1h4.888a1 1 0 0 1 1 1V26h4.217l.881-7.937c-.39.105-.797.16-1.209.16M17.444 26v-4.111h-2.888V26z" clip-rule="evenodd"/></svg>