<svg xmlns="http://www.w3.org/2000/svg" width="16" height="16" fill="none" class="persona-icon"><path fill="currentColor" d="M6.813 3.188a1.188 1.188 0 1 0 2.375 0 1.188 1.188 0 0 0-2.376 0ZM6.813 8a1.188 1.188 0 1 0 2.375 0 1.188 1.188 0 0 0-2.376 0ZM2 12.813a1.188 1.188 0 1 0 2.375 0 1.188 1.188 0 0 0-2.375 0ZM6.813 12.813a1.188 1.188 0 1 0 2.375 0 1.188 1.188 0 0 0-2.376 0ZM11.625 12.813a1.188 1.188 0 1 0 2.375 0 1.188 1.188 0 0 0-2.375 0ZM11.625 8A1.188 1.188 0 1 0 14 8a1.188 1.188 0 0 0-2.375 0ZM2 8a1.188 1.188 0 1 0 2.375 0A1.188 1.188 0 0 0 2 8ZM11.625 3.188a1.188 1.188 0 1 0 2.375 0 1.188 1.188 0 0 0-2.375 0ZM2 3.188a1.188 1.188 0 1 0 2.375 0 1.188 1.188 0 0 0-2.375 0Z"/></svg>