<svg xmlns="http://www.w3.org/2000/svg" width="32" height="32" fill="none" class="persona-icon" viewBox="0 0 32 32"><path fill="currentColor" d="M9.333 7.333a2 2 0 1 1-4 0 2 2 0 0 1 4 0M18 7.333a2 2 0 1 1-4 0 2 2 0 0 1 4 0M26.667 7.333a2 2 0 1 1-4 0 2 2 0 0 1 4 0M9.333 16a2 2 0 1 1-4 0 2 2 0 0 1 4 0M18 16a2 2 0 1 1-4 0 2 2 0 0 1 4 0M26.667 16a2 2 0 1 1-4 0 2 2 0 0 1 4 0M9.333 24.667a2 2 0 1 1-4 0 2 2 0 0 1 4 0M18 24.667a2 2 0 1 1-4 0 2 2 0 0 1 4 0M26.667 24.667a2 2 0 1 1-4 0 2 2 0 0 1 4 0"/></svg>