<svg xmlns="http://www.w3.org/2000/svg" width="16" height="16" fill="none" class="persona-icon" viewBox="0 0 16 16"><path fill="currentColor" d="m4.016 4.83-.585 2.934a2.636 2.636 0 0 1 3.358.817 1.72 1.72 0 0 1 2.422 0 2.635 2.635 0 0 1 3.358-.816l-.585-2.934a.72.72 0 0 0-.709-.581H9.834a.5.5 0 0 1 0-1h1.441c.822 0 1.529.58 1.69 1.385l1.025 5.142a.5.5 0 0 1 .005.173q.004.08.004.161a2.639 2.639 0 1 1-5.268-.217 1 1 0 0 1-.008-.089.722.722 0 1 0-1.445 0 .5.5 0 0 1-.009.095q.009.105.009.211a2.639 2.639 0 1 1-5.273-.164.5.5 0 0 1 .005-.17l1.026-5.142A1.72 1.72 0 0 1 4.725 3.25h1.442a.5.5 0 0 1 0 1H4.725a.72.72 0 0 0-.708.58"/></svg>