<svg xmlns="http://www.w3.org/2000/svg" width="20" height="20" fill="none" class="persona-icon" viewBox="0 0 20 20"><path fill="currentColor" d="M5.383 6.361a.82.82 0 0 1 .806-.661h1.678a.6.6 0 0 0 0-1.2H6.189c-.964 0-1.794.68-1.983 1.626l-1.083 5.421a3 3 0 0 0-.103.516l-.008.039a.6.6 0 0 0-.009.177l-.002.132a3.089 3.089 0 1 0 6.167-.246.6.6 0 0 0 .01-.11.822.822 0 0 1 1.644 0q0 .06.011.115-.01.12-.01.241a3.089 3.089 0 1 0 6.175-.145.6.6 0 0 0-.01-.164l-.004-.02a3 3 0 0 0-.11-.553l-1.08-5.403A2.02 2.02 0 0 0 13.811 4.5h-1.678a.6.6 0 1 0 0 1.2h1.678c.392 0 .73.277.806.661l.655 3.276a3.085 3.085 0 0 0-3.864.967 2.02 2.02 0 0 0-2.814 0 3.084 3.084 0 0 0-3.866-.966z"/></svg>