<svg xmlns="http://www.w3.org/2000/svg" width="20" height="20" fill="none" class="persona-icon" viewBox="0 0 20 20"><path fill="currentColor" d="m5.383 6.361-.655 3.277a3.084 3.084 0 0 1 3.865.965 2.02 2.02 0 0 1 2.815 0 3.085 3.085 0 0 1 3.864-.966l-.655-3.276a.82.82 0 0 0-.806-.661h-1.678a.6.6 0 1 1 0-1.2h1.678c.964 0 1.794.68 1.983 1.626l1.08 5.403q.079.268.11.553l.004.02a.6.6 0 0 1 .01.164q.003.072.003.145a3.089 3.089 0 1 1-6.168-.241.6.6 0 0 1-.01-.114.822.822 0 0 0-1.645 0 1 1 0 0 1-.01.109q.01.121.01.246a3.089 3.089 0 1 1-6.175-.132.6.6 0 0 1 .01-.177l.007-.039q.03-.265.103-.516l1.083-5.421A2.02 2.02 0 0 1 6.189 4.5h1.678a.6.6 0 0 1 0 1.2H6.189a.82.82 0 0 0-.806.661"/></svg>