<svg xmlns="http://www.w3.org/2000/svg" width="24" height="24" fill="none" class="persona-icon" viewBox="0 0 24 24"><path fill="currentColor" d="M6.022 7.37 5.19 11.5a3.94 3.94 0 0 1 1.768-.417c1.33 0 2.508.657 3.226 1.664a2.58 2.58 0 0 1 3.632-.001 3.95 3.95 0 0 1 3.225-1.663c.636 0 1.236.15 1.769.416l-.832-4.13a1.08 1.08 0 0 0-1.062-.869H14.75a.75.75 0 0 1 0-1.5h2.166c1.23 0 2.29.867 2.532 2.073l1.36 6.747q.137.424.177.882.022.107.012.21.003.064.003.13a3.958 3.958 0 1 1-7.904-.323 1 1 0 0 1-.012-.136 1.084 1.084 0 0 0-2.167 0 1 1 0 0 1-.013.14q.012.157.013.319a3.958 3.958 0 1 1-7.915-.133.8.8 0 0 1 .012-.204 4 4 0 0 1 .179-.888l1.359-6.744A2.58 2.58 0 0 1 7.084 5H9.25a.75.75 0 0 1 0 1.5H7.084c-.516 0-.96.364-1.062.87"/></svg>