<svg xmlns="http://www.w3.org/2000/svg" width="32" height="32" fill="none" class="persona-icon" viewBox="0 0 32 32"><path fill="currentColor" d="M8.026 9.906A1.444 1.444 0 0 1 9.44 8.75h2.892a1 1 0 1 0 0-2H9.441a3.444 3.444 0 0 0-3.375 2.757l-1.784 8.76a5.3 5.3 0 0 0-.268 1.315 1 1 0 0 0-.012.238L4 19.972a5.278 5.278 0 1 0 10.539-.426q.016-.09.017-.185a1.444 1.444 0 0 1 2.889 0q0 .094.016.184a5.278 5.278 0 1 0 10.536.276 1 1 0 0 0-.012-.24 5.3 5.3 0 0 0-.266-1.313l-1.785-8.761a3.444 3.444 0 0 0-3.375-2.757h-2.892a1 1 0 1 0 0 2h2.892c.686 0 1.278.483 1.415 1.156l1.087 5.333a5.26 5.26 0 0 0-2.339-.545 5.27 5.27 0 0 0-4.3 2.218 3.446 3.446 0 0 0-4.844 0 5.27 5.27 0 0 0-4.3-2.217c-.84 0-1.634.196-2.339.544z"/></svg>