<svg xmlns="http://www.w3.org/2000/svg" width="24" height="24" fill="none" class="persona-icon" viewBox="0 0 24 24"><path fill="currentColor" d="M11.208 3a4.417 4.417 0 1 0 0 8.834 4.417 4.417 0 0 0 0-8.834"/><path fill="currentColor" fill-rule="evenodd" d="M17.09 12.1a4.95 4.95 0 1 0 0 9.9 4.95 4.95 0 0 0 0-9.9m0 2.52a.75.75 0 0 1 .75.75v1.37l1.04 1.04a.75.75 0 0 1-1.06 1.06l-1.48-1.48v-1.99a.75.75 0 0 1 .75-.75" clip-rule="evenodd"/><path fill="currentColor" d="M10.64 17.05c0-1.496.51-2.873 1.364-3.966h-2.72c-1.713 0-3.34.75-4.452 2.052a3.3 3.3 0 0 0-.79 2.144v.22a3.5 3.5 0 0 0 3.5 3.5h4.449a6.42 6.42 0 0 1-1.35-3.95"/></svg>