<svg xmlns="http://www.w3.org/2000/svg" width="32" height="32" fill="none" class="persona-icon" viewBox="0 0 32 32"><path fill="currentColor" d="M14.945 4a5.889 5.889 0 1 0 0 11.778 5.889 5.889 0 0 0 0-11.778"/><path fill="currentColor" fill-rule="evenodd" d="M16.186 22.734a6.6 6.6 0 1 1 13.2 0 6.6 6.6 0 0 1-13.2 0m7.6-2.24a1 1 0 1 0-2 0v2.654l1.973 1.973a1 1 0 0 0 1.415-1.415l-1.387-1.386z" clip-rule="evenodd"/><path fill="currentColor" d="M14.187 22.733c0-1.994.678-3.83 1.818-5.288h-3.627c-2.283 0-4.452 1-5.935 2.737a4.4 4.4 0 0 0-1.054 2.858v.293A4.667 4.667 0 0 0 10.055 28h5.932a8.56 8.56 0 0 1-1.8-5.267"/></svg>