<svg xmlns="http://www.w3.org/2000/svg" width="24" height="24" fill="none" class="persona-icon" viewBox="0 0 24 24"><path fill="currentColor" fill-rule="evenodd" d="M8.25 3.75A.75.75 0 0 1 9 3h6a.75.75 0 0 1 .75.75v4.5h4.5A.75.75 0 0 1 21 9v6a.75.75 0 0 1-.75.75h-4.5v4.5A.75.75 0 0 1 15 21H9a.75.75 0 0 1-.75-.75v-4.5h-4.5A.75.75 0 0 1 3 15V9a.75.75 0 0 1 .75-.75h4.5zm1.5.75V9a.75.75 0 0 1-.75.75H4.5v4.5H9a.75.75 0 0 1 .75.75v4.5h4.5V15a.75.75 0 0 1 .75-.75h4.5v-4.5H15a.75.75 0 0 1-.75-.75V4.5z" clip-rule="evenodd"/></svg>