<svg xmlns="http://www.w3.org/2000/svg" width="32" height="32" fill="none"><path fill="#000" fill-rule="evenodd" d="M11.076 2c.557 0 1.008.45 1.008 1.007v3.02h7.06a1.008 1.008 0 1 1 0 2.013h-3.156c-.379 2.048-1.522 5.069-3.94 7.918 1.336 1.346 3.068 2.438 5.259 2.835a1.007 1.007 0 1 1-.361 1.98c-2.647-.48-4.718-1.791-6.281-3.348a20.504 20.504 0 0 1-4.49 3.245 1.01 1.01 0 0 1-1.365-.41c-.264-.489-.08-1.1.41-1.363a18.466 18.466 0 0 0 4.12-2.994C7.913 14.015 7.08 12 6.737 10.633a1.009 1.009 0 0 1 1.957-.488c.266 1.062.921 2.682 2.037 4.245 1.893-2.322 2.833-4.709 3.2-6.35H3.008a1.008 1.008 0 1 1 0-2.014h7.06v-3.02c0-.555.45-1.006 1.008-1.006Z" clip-rule="evenodd"/><path fill="#000" d="M18.035 30c-.302 0-.546-.069-.734-.207a.845.845 0 0 1-.32-.545c-.038-.238.006-.5.131-.789l4.97-10.992c.163-.363.357-.62.583-.77.239-.163.509-.245.81-.245.288 0 .546.082.772.245.238.15.439.407.602.77l4.988 10.992c.138.288.189.551.15.79a.857.857 0 0 1-.32.563c-.175.125-.407.188-.696.188-.351 0-.627-.081-.828-.244-.188-.176-.358-.439-.508-.79l-.94-2.18h-6.474l-.925 2.18c-.163.364-.333.627-.508.79-.176.163-.427.244-.753.244Zm5.402-10.785-2.382 5.655h4.819l-2.4-5.655h-.037Z"/></svg>