<svg xmlns="http://www.w3.org/2000/svg" width="20" height="20" fill="none" class="persona-icon" viewBox="0 0 20 20"><path fill="currentColor" fill-rule="evenodd" d="M5.733 4.225c-.833 0-1.508.675-1.508 1.508v8.534c0 .833.675 1.508 1.508 1.508H10a.625.625 0 1 1 0 1.25H5.733a2.76 2.76 0 0 1-2.758-2.758V5.733a2.76 2.76 0 0 1 2.758-2.758H10a.625.625 0 1 1 0 1.25zm6.67 1.777a.625.625 0 0 1 .883 0l3.556 3.556a.625.625 0 0 1 0 .884l-3.555 3.555a.625.625 0 1 1-.884-.884l2.488-2.488H7.867a.625.625 0 1 1 0-1.25h7.024l-2.488-2.489a.625.625 0 0 1 0-.884" clip-rule="evenodd"/></svg>