<svg xmlns="http://www.w3.org/2000/svg" width="16" height="16" fill="none" class="persona-icon" viewBox="0 0 16 16"><path fill="currentColor" fill-rule="evenodd" d="M3 4.142A2.43 2.43 0 0 1 5.43 1.714H8.34c.495 0 .968.205 1.306.567L12.52 5.36c.309.331.48.766.48 1.219v.425a4.44 4.44 0 0 0-4.95 7.282H5.43A2.43 2.43 0 0 1 3 11.857zm6.143-.935v1.579c0 .434.352.785.786.785h1.421z" clip-rule="evenodd"/><path fill="currentColor" fill-rule="evenodd" d="M14.446 10.97a3.44 3.44 0 1 1-6.88.001 3.44 3.44 0 0 1 6.88 0m-4.373-.173c0 .23.187.417.417.417h.1v.885h-.444a.417.417 0 0 0 0 .833h1.72a.417.417 0 1 0 0-.833h-.444v-1.302a.417.417 0 0 0-.416-.417h-.516a.417.417 0 0 0-.417.417m.33-1.542a.503.503 0 1 0 1.006 0 .503.503 0 0 0-1.006 0" clip-rule="evenodd"/></svg>