<svg xmlns="http://www.w3.org/2000/svg" width="20" height="20" fill="none" class="persona-icon" viewBox="0 0 20 20"><path fill="currentColor" d="M9.128 14.364a.873.873 0 1 1 1.745 0 .873.873 0 0 1-1.745 0M9.375 11.309a.625.625 0 0 0 1.25 0V6.807a.625.625 0 1 0-1.25 0z"/><path fill="currentColor" fill-rule="evenodd" d="M8.116 3.861c.838-1.448 2.93-1.448 3.768 0l5.846 10.096c.84 1.451-.207 3.268-1.885 3.268H4.155c-1.678 0-2.725-1.817-1.885-3.268zm2.687.627a.927.927 0 0 0-1.606 0L3.353 14.583a.927.927 0 0 0 .803 1.392h11.69a.927.927 0 0 0 .803-1.392z" clip-rule="evenodd"/></svg>