<svg xmlns="http://www.w3.org/2000/svg" width="20" height="20" fill="none"><path fill="currentColor" d="M9.228 14.23c0-.443.346-.803.772-.803.427 0 .772.36.772.804 0 .444-.345.804-.772.804-.426 0-.772-.36-.772-.804ZM10 11.637a.578.578 0 0 1-.566-.59V7.19c0-.326.253-.59.566-.59.313 0 .566.264.566.59v3.857c0 .326-.253.59-.566.59Z"/><path fill="currentColor" d="M8.112 3.633a2.14 2.14 0 0 1 3.776 0l5.815 10.458c.842 1.514-.207 3.409-1.888 3.409H4.185c-1.68 0-2.73-1.895-1.888-3.409L8.112 3.633Zm2.673.665a.89.89 0 0 0-1.57 0L3.399 14.756c-.35.63.087 1.418.786 1.418h11.63c.7 0 1.136-.789.786-1.418L10.785 4.298Z"/></svg>