<svg xmlns="http://www.w3.org/2000/svg" width="20" height="20" fill="none" class="persona-icon" viewBox="0 0 20 20"><path fill="currentColor" d="M9.128 14.364a.873.873 0 1 1 1.745 0 .873.873 0 0 1-1.745 0M9.4 11.309a.6.6 0 0 0 1.2 0V6.807a.6.6 0 0 0-1.2 0z"/><path fill="currentColor" fill-rule="evenodd" d="M8.137 3.874c.83-1.432 2.897-1.432 3.726 0l5.845 10.095c.831 1.435-.205 3.23-1.862 3.23H4.154c-1.658 0-2.694-1.795-1.863-3.23zm2.687.601a.952.952 0 0 0-1.648 0L3.331 14.571A.952.952 0 0 0 4.155 16h11.69a.952.952 0 0 0 .825-1.43z" clip-rule="evenodd"/></svg>