<svg xmlns="http://www.w3.org/2000/svg" width="24" height="24" fill="none" class="persona-icon" viewBox="0 0 24 24"><path fill="currentColor" d="M10.98 17.402c0-.567.456-1.026 1.02-1.026.564 0 1.02.46 1.02 1.026 0 .567-.456 1.027-1.02 1.027-.564 0-1.02-.46-1.02-1.027ZM12 14.107a.768.768 0 0 1-.766-.77V8.411c0-.425.343-.77.766-.77s.766.345.766.77v4.926c0 .425-.343.77-.766.77Z"/><path fill="currentColor" d="M9.57 3.909c1.082-1.878 3.778-1.878 4.86 0l7.688 13.354c1.084 1.881-.267 4.237-2.43 4.237H4.312c-2.163 0-3.514-2.355-2.43-4.238L9.57 3.91Zm3.534.771a1.273 1.273 0 0 0-2.208 0L3.207 18.034c-.492.856.122 1.926 1.105 1.926h15.376c.983 0 1.597-1.07 1.105-1.926L13.104 4.68Z"/></svg>