<svg xmlns="http://www.w3.org/2000/svg" width="24" height="24" fill="none" class="persona-icon" viewBox="0 0 24 24"><path fill="currentColor" d="M10.91 17.454a1.09 1.09 0 1 1 2.181 0 1.09 1.09 0 0 1-2.182 0M11.25 13.636a.75.75 0 0 0 1.5 0V8.01a.75.75 0 0 0-1.5 0z"/><path fill="currentColor" fill-rule="evenodd" d="M9.672 4.342c1.036-1.79 3.62-1.79 4.656 0l7.307 12.62C22.673 18.755 21.379 21 19.307 21H4.693c-2.072 0-3.367-2.245-2.328-4.038zm3.358.752a1.19 1.19 0 0 0-2.06 0l-7.307 12.62a1.19 1.19 0 0 0 1.03 1.786h14.614a1.19 1.19 0 0 0 1.03-1.787z" clip-rule="evenodd"/></svg>