<svg xmlns="http://www.w3.org/2000/svg" width="32" height="32" fill="none" class="persona-icon" viewBox="0 0 32 32"><path fill="currentColor" d="M14.467 23.666a1.533 1.533 0 1 1 3.067 0 1.533 1.533 0 0 1-3.067 0M15 18.3a1 1 0 1 0 2 0v-7.91a1 1 0 1 0-2 0z"/><path fill="currentColor" fill-rule="evenodd" d="M12.775 5.265c1.435-2.48 5.015-2.48 6.45 0L29.496 23c1.438 2.485-.355 5.595-3.226 5.595H5.73c-2.87 0-4.664-3.11-3.225-5.595zm4.72 1.002c-.666-1.149-2.324-1.149-2.99 0L4.237 24.003c-.667 1.15.164 2.592 1.494 2.592H26.27c1.33 0 2.161-1.441 1.495-2.592z" clip-rule="evenodd"/></svg>