<svg xmlns="http://www.w3.org/2000/svg" width="24" height="24" fill="none"><path fill="#000" fill-rule="evenodd" d="M14.085 3.181c-.944-1.575-3.226-1.575-4.17 0A2.43 2.43 0 0 1 7.239 4.29c-1.782-.447-3.396 1.167-2.95 2.949a2.43 2.43 0 0 1-1.108 2.676c-1.575.944-1.575 3.226 0 4.17a2.43 2.43 0 0 1 1.109 2.676c-.447 1.782 1.167 3.396 2.949 2.95a2.431 2.431 0 0 1 2.676 1.108c.944 1.575 3.226 1.575 4.17 0a2.431 2.431 0 0 1 2.676-1.109c1.782.447 3.396-1.168 2.95-2.949a2.431 2.431 0 0 1 1.108-2.676c1.575-.944 1.575-3.226 0-4.17a2.431 2.431 0 0 1-1.109-2.676c.447-1.782-1.168-3.396-2.949-2.95a2.43 2.43 0 0 1-2.676-1.108Zm2.558 7.313a.769.769 0 1 0-1.087-1.087l-4.58 4.58-2.532-2.53a.769.769 0 1 0-1.087 1.086l3.075 3.075c.3.3.786.3 1.087 0l5.124-5.124Z" clip-rule="evenodd"/></svg>