<svg xmlns="http://www.w3.org/2000/svg" width="32" height="32" fill="none"><path fill="#000" fill-rule="evenodd" d="M18.71 4.536c-1.226-2.048-4.194-2.048-5.42 0a3.16 3.16 0 0 1-3.48 1.44c-2.315-.58-4.413 1.519-3.833 3.834a3.16 3.16 0 0 1-1.441 3.48c-2.048 1.226-2.048 4.194 0 5.42a3.16 3.16 0 0 1 1.44 3.48c-.58 2.315 1.519 4.413 3.834 3.833a3.16 3.16 0 0 1 3.48 1.441c1.226 2.048 4.194 2.048 5.42 0a3.16 3.16 0 0 1 3.48-1.44c2.315.58 4.413-1.519 3.833-3.834a3.16 3.16 0 0 1 1.441-3.48c2.048-1.226 2.048-4.194 0-5.42a3.16 3.16 0 0 1-1.44-3.48c.58-2.315-1.519-4.413-3.834-3.833a3.16 3.16 0 0 1-3.48-1.441Zm3.326 9.506a1 1 0 0 0-1.413-1.413l-5.955 5.955-3.29-3.29a1 1 0 1 0-1.414 1.413l3.997 3.997a1 1 0 0 0 1.413 0l6.662-6.662Z" clip-rule="evenodd"/></svg>