<svg xmlns="http://www.w3.org/2000/svg" width="16" height="16" fill="none" class="persona-icon" viewBox="0 0 16 16"><path fill="currentColor" fill-rule="evenodd" d="M8.523 4.225q.037-.025.076-.05c.63-.392 1.34-.571 2.025-.644a5.4 5.4 0 0 1 2.104.19 5.5 5.5 0 0 1 1.885.982l.387.308-5.132 6.559c-.42.536-.941.981-1.534 1.31a5 5 0 0 1-1.914.596 4.89 4.89 0 0 1-3.691-1.18l-.032-.03-.022-.018a5.032 5.032 0 0 1-.607-6.85 4.94 4.94 0 0 1 3.199-1.85 4.92 4.92 0 0 1 3.256.677m-.701.741a3.94 3.94 0 0 0-2.419-.432 3.96 3.96 0 0 0-2.562 1.482 4.03 4.03 0 0 0 .14 5.137zm-4.098 6.85a3.9 3.9 0 0 0 2.6.67 4 4 0 0 0 1.537-.48 4.1 4.1 0 0 0 1.233-1.053L13.6 5.197a4.5 4.5 0 0 0-1.147-.52 4.4 4.4 0 0 0-1.724-.157c-.595.064-1.147.213-1.611.502a1 1 0 0 0-.175.134z" clip-rule="evenodd"/></svg>