<svg xmlns="http://www.w3.org/2000/svg" width="20" height="20" fill="none"><path fill="#000" fill-rule="evenodd" d="m4.412 14.852 6.782-8.761c.067-.068.137-.122.236-.184.608-.383 1.33-.58 2.104-.665a5.715 5.715 0 0 1 2.247.207 5.88 5.88 0 0 1 1.538.714l-5.858 7.578a5.322 5.322 0 0 1-1.61 1.391 5.153 5.153 0 0 1-2.005.633 5.046 5.046 0 0 1-3.434-.913Zm6.275-9.894a6.253 6.253 0 0 0-4.207-.895 6.334 6.334 0 0 0-4.108 2.405 6.598 6.598 0 0 0-1.344 4.638 6.549 6.549 0 0 0 2.192 4.33 6.208 6.208 0 0 0 4.74 1.534 6.318 6.318 0 0 0 2.46-.777 6.513 6.513 0 0 0 1.97-1.702L19 5.94l-.465-.375a7.08 7.08 0 0 0-2.423-1.277 6.876 6.876 0 0 0-2.703-.248c-.883.095-1.793.328-2.6.837a2.87 2.87 0 0 0-.122.08Zm-.839.9a5.086 5.086 0 0 0-3.204-.597 5.156 5.156 0 0 0-3.343 1.958 5.37 5.37 0 0 0-1.094 3.774 5.346 5.346 0 0 0 1.312 3.052l6.33-8.187Z" clip-rule="evenodd"/></svg>