<svg xmlns="http://www.w3.org/2000/svg" width="20" height="20" fill="none" class="persona-icon" viewBox="0 0 20 20"><path fill="currentColor" fill-rule="evenodd" d="M10.687 4.958q.058-.04.121-.08c.808-.51 1.718-.743 2.6-.838a6.9 6.9 0 0 1 2.704.248 7.1 7.1 0 0 1 2.423 1.277L19 5.94l-6.61 8.55a6.5 6.5 0 0 1-1.97 1.703 6.3 6.3 0 0 1-2.46.776 6.2 6.2 0 0 1-4.808-1.596 6.55 6.55 0 0 1-2.124-4.267 6.6 6.6 0 0 1 1.344-4.638A6.33 6.33 0 0 1 6.48 4.063a6.25 6.25 0 0 1 4.207.895m-.839.9a5.1 5.1 0 0 0-3.204-.597 5.16 5.16 0 0 0-3.343 1.957 5.37 5.37 0 0 0-1.094 3.775 5.35 5.35 0 0 0 1.312 3.052zm-5.436 8.994a5.05 5.05 0 0 0 3.434.913 5.15 5.15 0 0 0 2.005-.633 5.3 5.3 0 0 0 1.61-1.391l5.858-7.578a5.9 5.9 0 0 0-1.538-.714 5.7 5.7 0 0 0-2.248-.207c-.774.084-1.495.282-2.103.665a1.3 1.3 0 0 0-.236.184z" clip-rule="evenodd"/></svg>