<svg xmlns="http://www.w3.org/2000/svg" width="24" height="24" fill="none" class="persona-icon" viewBox="0 0 24 24"><path fill="currentColor" fill-rule="evenodd" d="m12.729 6.996.079-.05c.904-.55 1.92-.8 2.897-.903a7.9 7.9 0 0 1 3.006.267 8 8 0 0 1 2.695 1.373l.594.464-7.316 9.151a7.19 7.19 0 0 1-4.932 2.669 7.1 7.1 0 0 1-2.84-.3 7 7 0 0 1-2.516-1.42 6.97 6.97 0 0 1-2.365-4.594 6.94 6.94 0 0 1 1.497-4.995 7.1 7.1 0 0 1 4.575-2.59 7.16 7.16 0 0 1 4.626.928m-1.083 1.116a5.63 5.63 0 0 0-3.333-.562 5.6 5.6 0 0 0-3.597 2.036 5.456 5.456 0 0 0 .15 7.007zm-5.64 9.48a5.602 5.602 0 0 0 3.599.886 5.68 5.68 0 0 0 3.89-2.107l6.35-7.943a6.4 6.4 0 0 0-1.558-.682 6.4 6.4 0 0 0-2.422-.215c-.84.088-1.614.294-2.262.689-.098.06-.167.11-.235.176z" clip-rule="evenodd"/></svg>