<svg xmlns="http://www.w3.org/2000/svg" width="24" height="24" fill="none" class="persona-icon" viewBox="0 0 24 24"><path fill="currentColor" d="M12.729 6.996a7.159 7.159 0 0 0-4.626-.928 7.106 7.106 0 0 0-4.575 2.59 6.94 6.94 0 0 0-1.497 4.995 6.971 6.971 0 0 0 2.441 4.662 7.017 7.017 0 0 0 2.44 1.353c.915.29 1.881.391 2.84.299a7.207 7.207 0 0 0 4.932-2.669L22 8.147l-.594-.464A7.966 7.966 0 0 0 18.71 6.31c-.977-.282-2-.373-3.006-.267-.978.102-1.993.352-2.897.903a3.775 3.775 0 0 0-.08.05Zm-1.083 1.116-6.78 8.48a5.456 5.456 0 0 1-.15-7.007 5.587 5.587 0 0 1 3.597-2.035 5.63 5.63 0 0 1 3.333.562Zm-5.64 9.48 7.362-9.196c.068-.065.137-.116.235-.176.649-.395 1.422-.601 2.262-.69a6.363 6.363 0 0 1 2.422.216 6.443 6.443 0 0 1 1.558.682l-6.35 7.943a5.678 5.678 0 0 1-3.89 2.106 5.602 5.602 0 0 1-2.23-.234 5.512 5.512 0 0 1-1.368-.652Z"/></svg>