<svg xmlns="http://www.w3.org/2000/svg" width="24" height="24" fill="none" class="persona-icon" viewBox="0 0 24 24"><path fill="currentColor" fill-rule="evenodd" d="M12.729 6.996a7.16 7.16 0 0 0-4.626-.928 7.1 7.1 0 0 0-4.575 2.59 6.94 6.94 0 0 0-1.497 4.995 6.97 6.97 0 0 0 2.441 4.662 7 7 0 0 0 2.44 1.353c.915.29 1.881.391 2.84.299a7.2 7.2 0 0 0 4.932-2.669L22 8.147l-.594-.464A8 8 0 0 0 18.71 6.31c-.977-.282-2-.373-3.006-.267-.978.102-1.993.352-2.897.903zm-1.083 1.116-6.78 8.48a5.456 5.456 0 0 1-.15-7.007 5.6 5.6 0 0 1 3.597-2.035 5.63 5.63 0 0 1 3.333.562m-5.64 9.48 7.362-9.196c.068-.065.137-.116.235-.176.649-.395 1.422-.601 2.262-.69a6.4 6.4 0 0 1 2.422.216 6.4 6.4 0 0 1 1.558.682l-6.35 7.943a5.68 5.68 0 0 1-3.89 2.106 5.6 5.6 0 0 1-2.23-.234 5.5 5.5 0 0 1-1.368-.652" clip-rule="evenodd"/></svg>