<svg xmlns="http://www.w3.org/2000/svg" width="32" height="32" fill="none" class="persona-icon" viewBox="0 0 32 32"><path fill="currentColor" fill-rule="evenodd" d="M17.046 8.45q.074-.05.152-.1c1.262-.784 2.68-1.142 4.05-1.289 1.41-.151 2.84-.02 4.208.382s2.65 1.07 3.77 1.963l.774.617L19.736 23.14a10.1 10.1 0 0 1-3.067 2.618 9.9 9.9 0 0 1-3.83 1.195 9.753 9.753 0 0 1-7.382-2.36l-.063-.06-.043-.037a10.03 10.03 0 0 1-3.308-6.563 10.06 10.06 0 0 1 2.093-7.136 9.9 9.9 0 0 1 6.397-3.7 9.83 9.83 0 0 1 6.513 1.352m-1.402 1.482a7.88 7.88 0 0 0-4.837-.865 7.92 7.92 0 0 0-5.124 2.964 8.06 8.06 0 0 0 .279 10.274zm-8.197 13.7a7.78 7.78 0 0 0 5.201 1.34 8 8 0 0 0 3.073-.959 8.1 8.1 0 0 0 2.468-2.107l9.009-11.513a9 9 0 0 0-2.294-1.04 8.9 8.9 0 0 0-3.448-.313c-1.19.127-2.294.427-3.223 1.004-.146.09-.249.17-.35.268z" clip-rule="evenodd"/></svg>