<svg xmlns="http://www.w3.org/2000/svg" width="32" height="32" fill="none"><path fill="currentColor" d="M17.046 8.45a9.834 9.834 0 0 0-6.513-1.353 9.889 9.889 0 0 0-6.397 3.7 10.064 10.064 0 0 0-2.093 7.136 10.032 10.032 0 0 0 3.414 6.66 9.753 9.753 0 0 0 7.383 2.36 9.925 9.925 0 0 0 3.829-1.195 10.108 10.108 0 0 0 3.067-2.618L30 10.023l-.774-.617a11.062 11.062 0 0 0-3.77-1.963 10.823 10.823 0 0 0-4.208-.382c-1.37.147-2.788.505-4.05 1.29a4.65 4.65 0 0 0-.152.098Zm-1.402 1.482L5.962 22.305a8.062 8.062 0 0 1-.28-10.274 7.921 7.921 0 0 1 5.125-2.964 7.875 7.875 0 0 1 4.837.865Zm-8.197 13.7 10.437-13.32c.1-.099.203-.177.35-.268.928-.578 2.032-.877 3.222-1.004a8.869 8.869 0 0 1 3.448.313c.809.238 1.58.588 2.294 1.04l-9.01 11.514a8.13 8.13 0 0 1-2.467 2.106 7.966 7.966 0 0 1-3.073.96 7.782 7.782 0 0 1-5.2-1.34Z"/></svg>