<svg xmlns="http://www.w3.org/2000/svg" width="24" height="24" fill="none"><path fill="#000" fill-rule="evenodd" d="M7.871 3.538a2.315 2.315 0 0 0-2.323 2.308v12.308a2.315 2.315 0 0 0 2.323 2.308h8.258a2.315 2.315 0 0 0 2.323-2.308V9.732l-.001-.04h-3.354a2.83 2.83 0 0 1-2.839-2.82V3.538H7.871Zm5.935 1.088v2.246c0 .708.578 1.282 1.29 1.282h2.26l-3.55-3.528ZM4 5.846C4 3.722 5.733 2 7.871 2h4.677c.787 0 1.538.324 2.075.896l4.614 4.911c.49.522.763 1.21.763 1.925v8.422C20 20.278 18.267 22 16.129 22H7.871C5.733 22 4 20.278 4 18.154V5.846Zm3.097 3.077c0-.425.346-.77.774-.77h2.064c.428 0 .775.345.775.77 0 .425-.347.77-.775.77H7.871a.772.772 0 0 1-.774-.77Zm0 4.103c0-.425.346-.77.774-.77h8.258c.428 0 .774.345.774.77 0 .425-.346.769-.774.769H7.871a.772.772 0 0 1-.774-.77Zm0 4.102c0-.425.346-.769.774-.769h8.258c.428 0 .774.344.774.77 0 .424-.346.768-.774.768H7.871a.772.772 0 0 1-.774-.769Z" clip-rule="evenodd"/></svg>