<svg xmlns="http://www.w3.org/2000/svg" width="16" height="16" fill="none" class="persona-icon" viewBox="0 0 16 16"><path fill="currentColor" d="M10.324 7.618a.5.5 0 0 0-.708-.708L7.803 8.723l-1.09-1.09a.5.5 0 1 0-.708.707L7.45 9.784a.5.5 0 0 0 .707 0z"/><path fill="currentColor" fill-rule="evenodd" d="M8.196 1.04a.5.5 0 0 0-.392 0L2.71 3.207a.5.5 0 0 0-.304.46v5.777c0 1.692 1.262 3.086 2.47 4.009.62.473 1.264.852 1.803 1.113.27.131.519.235.73.308.196.067.411.126.591.126s.395-.059.59-.126c.213-.073.462-.177.731-.308.54-.261 1.183-.64 1.803-1.113 1.208-.923 2.47-2.317 2.47-4.009V3.667a.5.5 0 0 0-.304-.46zm-4.79 8.404V3.997L8 2.043l4.595 1.954v5.447c0 1.197-.921 2.331-2.078 3.214a10 10 0 0 1-1.632 1.008 6 6 0 0 1-.62.262A2 2 0 0 1 8 14l-.065-.012a2 2 0 0 1-.2-.06 6 6 0 0 1-.62-.262 10 10 0 0 1-1.632-1.008c-1.156-.883-2.077-2.017-2.077-3.214" clip-rule="evenodd"/></svg>