<svg xmlns="http://www.w3.org/2000/svg" width="16" height="16" fill="none" class="persona-icon" viewBox="0 0 16 16"><path fill="currentColor" fill-rule="evenodd" d="M7.805 1.04a.5.5 0 0 1 .39 0L13.2 3.207a.5.5 0 0 1 .3.46v5.777c0 1.69-1.24 3.084-2.428 4.008-.609.473-1.24.852-1.77 1.114a7 7 0 0 1-.72.308C8.39 14.94 8.178 15 8 15s-.39-.06-.582-.126a7 7 0 0 1-.72-.309c-.53-.261-1.161-.64-1.77-1.113C3.739 12.528 2.5 11.135 2.5 9.444V3.667a.5.5 0 0 1 .3-.46zM3.49 3.996v5.448c0 1.2.906 2.333 2.041 3.215.553.43 1.127.773 1.603 1.008.237.117.445.205.607.262q.123.042.197.059.053.01.062.012.008 0 .062-.012.075-.017.197-.06a6 6 0 0 0 .607-.26 9.6 9.6 0 0 0 1.603-1.009c1.135-.882 2.041-2.016 2.041-3.215V3.996L8 2.044z" clip-rule="evenodd"/><path fill="currentColor" fill-rule="evenodd" d="M10.3 6.793a.504.504 0 0 1 0 .707L8.155 9.666a.493.493 0 0 1-.7 0l-1.43-1.444a.504.504 0 0 1 0-.707.49.49 0 0 1 .7 0l1.08 1.09L9.6 6.794a.49.49 0 0 1 .7 0" clip-rule="evenodd"/></svg>