<svg xmlns="http://www.w3.org/2000/svg" width="20" height="20" fill="none" class="persona-icon" viewBox="0 0 20 20"><path fill="currentColor" d="m12.685 9.604-2.467 2.467a.625.625 0 0 1-.884 0L7.69 10.426a.625.625 0 0 1 .883-.884l1.203 1.203 2.025-2.025a.625.625 0 1 1 .884.884"/><path fill="currentColor" fill-rule="evenodd" d="m10.245 2.025 5.8 2.467c.23.098.38.324.38.575v6.578c0 1.953-1.456 3.555-2.835 4.608-.71.54-1.444.973-2.061 1.273-.309.15-.595.269-.839.353-.223.076-.475.146-.69.146s-.467-.07-.69-.146a8 8 0 0 1-.839-.353c-.617-.3-1.352-.732-2.061-1.273-1.379-1.053-2.835-2.655-2.835-4.608V5.067c0-.25.15-.477.38-.575l5.8-2.467a.63.63 0 0 1 .49 0m-5.42 9.62c0 1.335 1.03 2.61 2.343 3.614.638.486 1.3.876 1.849 1.142.274.133.513.232.699.296.175.06.262.074.28.077h.007a2 2 0 0 0 .281-.078c.186-.063.425-.162.699-.295a11 11 0 0 0 1.848-1.142c1.314-1.003 2.344-2.28 2.344-3.614V5.48L10 3.28l-5.175 2.2z" clip-rule="evenodd"/></svg>