<svg xmlns="http://www.w3.org/2000/svg" width="16" height="16" fill="none" class="persona-icon" viewBox="0 0 16 16"><path fill="currentColor" d="M11.46 6.962 7.302 10.86a.5.5 0 0 1-.684 0L4.54 8.91a.5.5 0 0 1 .684-.729L6.96 9.81l3.817-3.578a.5.5 0 0 1 .683.73"/><path fill="currentColor" fill-rule="evenodd" d="M9.744 2.15a.897.897 0 0 0 1.159.48c1.549-.62 3.087.918 2.466 2.467a.897.897 0 0 0 .48 1.159c1.535.656 1.535 2.832 0 3.488a.897.897 0 0 0-.48 1.159c.621 1.549-.917 3.087-2.466 2.466a.897.897 0 0 0-1.159.48c-.656 1.534-2.832 1.534-3.488 0a.897.897 0 0 0-1.159-.48c-1.549.621-3.087-.917-2.466-2.466a.897.897 0 0 0-.48-1.159c-1.535-.656-1.535-2.832 0-3.488a.897.897 0 0 0 .48-1.159c-.621-1.549.917-3.087 2.466-2.466a.897.897 0 0 0 1.159-.48c.656-1.535 2.832-1.535 3.488 0m-2.569.394a1.897 1.897 0 0 1-2.45 1.015c-.732-.294-1.46.434-1.166 1.166a1.897 1.897 0 0 1-1.015 2.45c-.725.31-.725 1.34 0 1.65a1.897 1.897 0 0 1 1.015 2.45c-.294.732.434 1.46 1.166 1.166a1.897 1.897 0 0 1 2.45 1.015c.31.725 1.34.725 1.65 0a1.897 1.897 0 0 1 2.45-1.015c.732.293 1.46-.434 1.166-1.167a1.897 1.897 0 0 1 1.015-2.45c.725-.31.725-1.338 0-1.649a1.897 1.897 0 0 1-1.015-2.45c.294-.732-.434-1.46-1.166-1.166a1.897 1.897 0 0 1-2.45-1.015c-.31-.725-1.34-.725-1.65 0" clip-rule="evenodd"/></svg>