<svg xmlns="http://www.w3.org/2000/svg" width="20" height="20" fill="none" class="persona-icon" viewBox="0 0 20 20"><path fill="currentColor" d="m13.961 8.84-4.734 4.438a.6.6 0 0 1-.82 0L6.04 11.059a.6.6 0 1 1 .82-.875l1.957 1.834 4.323-4.053a.6.6 0 0 1 .821.875"/><path fill="currentColor" fill-rule="evenodd" d="M12.014 3.329a.99.99 0 0 0 1.28.53c1.788-.717 3.564 1.059 2.847 2.848a.99.99 0 0 0 .53 1.279c1.772.758 1.772 3.27 0 4.028a.99.99 0 0 0-.53 1.279c.717 1.789-1.059 3.565-2.848 2.848a.99.99 0 0 0-1.279.53c-.758 1.772-3.27 1.772-4.028 0a.99.99 0 0 0-1.28-.53c-1.788.717-3.564-1.06-2.847-2.848a.99.99 0 0 0-.53-1.28c-1.772-.757-1.772-3.269 0-4.027a.99.99 0 0 0 .53-1.28C3.142 4.919 4.918 3.143 6.707 3.86a.99.99 0 0 0 1.279-.53c.758-1.772 3.27-1.772 4.028 0M9.089 3.8a2.19 2.19 0 0 1-2.828 1.172c-.81-.324-1.612.479-1.288 1.288A2.19 2.19 0 0 1 3.8 9.089C3 9.432 3 10.568 3.8 10.911a2.19 2.19 0 0 1 1.172 2.828c-.324.81.479 1.612 1.288 1.288A2.19 2.19 0 0 1 9.089 16.2c.343.801 1.479.801 1.822 0a2.19 2.19 0 0 1 2.828-1.172c.81.324 1.612-.479 1.288-1.288a2.19 2.19 0 0 1 1.172-2.828c.801-.343.801-1.479 0-1.822a2.19 2.19 0 0 1-1.172-2.828c.325-.81-.479-1.612-1.288-1.288A2.19 2.19 0 0 1 10.911 3.8C10.568 3 9.432 3 9.089 3.8" clip-rule="evenodd"/></svg>