<svg xmlns="http://www.w3.org/2000/svg" width="24" height="24" fill="none" class="persona-icon" viewBox="0 0 24 24"><path fill="currentColor" d="m16.951 10.55-5.917 5.548a.75.75 0 0 1-1.026 0l-2.959-2.774a.75.75 0 0 1 1.026-1.094l2.446 2.292 5.404-5.066a.75.75 0 0 1 1.026 1.094"/><path fill="currentColor" fill-rule="evenodd" d="M14.518 3.661c.264.618.974.912 1.598.662 2.237-.896 4.457 1.324 3.56 3.56-.25.625.045 1.335.663 1.6 2.215.947 2.215 4.087 0 5.034a1.24 1.24 0 0 0-.662 1.6c.896 2.235-1.324 4.455-3.56 3.56a1.24 1.24 0 0 0-1.6.662c-.947 2.215-4.087 2.215-5.034 0a1.24 1.24 0 0 0-1.6-.662c-2.236.895-4.456-1.325-3.56-3.56a1.24 1.24 0 0 0-.662-1.6c-2.215-.947-2.215-4.087 0-5.035.618-.264.913-.974.662-1.598-.896-2.237 1.324-4.457 3.56-3.56a1.24 1.24 0 0 0 1.6-.663c.947-2.215 4.087-2.215 5.034 0m-3.656.59a2.74 2.74 0 0 1-3.536 1.465c-1.011-.405-2.015.598-1.61 1.61a2.74 2.74 0 0 1-1.465 3.536c-1.001.428-1.001 1.848 0 2.276a2.74 2.74 0 0 1 1.465 3.536c-.405 1.011.598 2.015 1.61 1.61a2.74 2.74 0 0 1 3.536 1.465c.428 1.001 1.848 1.001 2.276 0a2.74 2.74 0 0 1 3.536-1.465c1.012.405 2.015-.599 1.61-1.61a2.74 2.74 0 0 1 1.465-3.536c1.001-.428 1.001-1.848 0-2.277a2.74 2.74 0 0 1-1.465-3.535c.405-1.012-.598-2.015-1.61-1.61a2.74 2.74 0 0 1-3.536-1.465c-.428-1.001-1.848-1.001-2.276 0" clip-rule="evenodd"/></svg>