<svg xmlns="http://www.w3.org/2000/svg" width="32" height="32" fill="none" class="persona-icon" viewBox="0 0 32 32"><path fill="currentColor" d="M22.922 13.923a1 1 0 1 0-1.368-1.46L13.92 19.62l-3.474-3.257a1 1 0 0 0-1.368 1.46l4.158 3.897a1 1 0 0 0 1.368 0z"/><path fill="currentColor" fill-rule="evenodd" d="M19.488 4.302c-1.313-3.07-5.663-3.07-6.976 0a1.794 1.794 0 0 1-2.317.96C7.096 4.02 4.02 7.095 5.26 10.194a1.794 1.794 0 0 1-.96 2.316c-3.068 1.314-3.068 5.664 0 6.977a1.794 1.794 0 0 1 .96 2.317c-1.241 3.099 1.835 6.175 4.934 4.933a1.794 1.794 0 0 1 2.317.96c1.313 3.069 5.663 3.069 6.976 0a1.794 1.794 0 0 1 2.317-.96c3.099 1.242 6.175-1.834 4.934-4.933a1.794 1.794 0 0 1 .96-2.317c3.068-1.313 3.068-5.663 0-6.976a1.794 1.794 0 0 1-.96-2.318c1.241-3.098-1.835-6.174-4.934-4.933a1.794 1.794 0 0 1-2.317-.96m-5.138.786c.621-1.45 2.679-1.45 3.3 0a3.794 3.794 0 0 0 4.9 2.03c1.465-.587 2.92.867 2.332 2.333a3.794 3.794 0 0 0 2.03 4.9c1.45.62 1.45 2.677 0 3.298a3.794 3.794 0 0 0-2.03 4.9c.587 1.465-.867 2.92-2.333 2.333a3.794 3.794 0 0 0-4.9 2.03c-.62 1.45-2.678 1.45-3.299 0a3.794 3.794 0 0 0-4.9-2.03c-1.464.587-2.92-.868-2.332-2.333a3.794 3.794 0 0 0-2.03-4.9c-1.45-.62-1.45-2.678 0-3.299a3.794 3.794 0 0 0 2.03-4.9c-.587-1.464.867-2.92 2.333-2.332a3.795 3.795 0 0 0 4.9-2.03" clip-rule="evenodd"/></svg>