<svg xmlns="http://www.w3.org/2000/svg" width="32" height="32" fill="none" class="persona-icon"><path fill="currentColor" d="M12.512 4.302c1.313-3.07 5.663-3.07 6.976 0a1.794 1.794 0 0 0 2.317.96c3.099-1.242 6.175 1.834 4.934 4.933a1.794 1.794 0 0 0 .96 2.317c3.068 1.313 3.068 5.663 0 6.976a1.794 1.794 0 0 0-.96 2.317c1.241 3.099-1.835 6.175-4.934 4.934a1.794 1.794 0 0 0-2.317.96c-1.313 3.068-5.663 3.068-6.976 0a1.794 1.794 0 0 0-2.317-.96C7.096 27.98 4.02 24.904 5.26 21.805a1.794 1.794 0 0 0-.96-2.317c-3.068-1.313-3.068-5.663 0-6.976a1.794 1.794 0 0 0 .96-2.317C4.02 7.096 7.096 4.02 10.195 5.26a1.794 1.794 0 0 0 2.317-.96Zm5.138.786c-.621-1.45-2.679-1.45-3.3 0a3.794 3.794 0 0 1-4.9 2.03c-1.464-.587-2.92.867-2.332 2.333a3.794 3.794 0 0 1-2.03 4.9c-1.45.62-1.45 2.678 0 3.299a3.794 3.794 0 0 1 2.03 4.9c-.587 1.465.867 2.92 2.333 2.332a3.794 3.794 0 0 1 4.9 2.03c.62 1.45 2.678 1.45 3.299 0a3.794 3.794 0 0 1 4.9-2.03c1.465.587 2.92-.867 2.332-2.333a3.794 3.794 0 0 1 2.03-4.9c1.45-.62 1.45-2.678 0-3.299a3.794 3.794 0 0 1-2.03-4.9c.587-1.464-.867-2.92-2.333-2.332a3.794 3.794 0 0 1-4.9-2.03Z"/><path fill="currentColor" d="M22.5 12.72a1 1 0 0 1-.047 1.413l-7.692 7.212a1 1 0 0 1-1.368 0L9.546 17.74a1 1 0 0 1 1.368-1.459l3.163 2.965 7.009-6.57a1 1 0 0 1 1.413.045Z"/></svg>