<svg xmlns="http://www.w3.org/2000/svg" width="32" height="32" fill="none" class="persona-icon" viewBox="0 0 32 32"><path fill="currentColor" d="m22.922 13.923-8.317 7.796a1 1 0 0 1-1.368 0L9.08 17.821a1 1 0 0 1 1.368-1.459l3.474 3.257 7.633-7.155a1 1 0 1 1 1.368 1.459"/><path fill="currentColor" fill-rule="evenodd" d="M19.488 4.302a1.794 1.794 0 0 0 2.317.96c3.099-1.242 6.175 1.834 4.934 4.933a1.794 1.794 0 0 0 .96 2.316c3.068 1.314 3.068 5.664 0 6.977a1.794 1.794 0 0 0-.96 2.317c1.241 3.099-1.835 6.175-4.934 4.933a1.794 1.794 0 0 0-2.317.96c-1.313 3.069-5.663 3.069-6.976 0a1.794 1.794 0 0 0-2.317-.96C7.096 27.98 4.02 24.904 5.26 21.805a1.794 1.794 0 0 0-.96-2.317c-3.068-1.313-3.068-5.663 0-6.976a1.794 1.794 0 0 0 .96-2.318C4.02 7.097 7.096 4.02 10.195 5.262a1.794 1.794 0 0 0 2.317-.96c1.313-3.068 5.663-3.068 6.976 0m-5.138.786a3.795 3.795 0 0 1-4.9 2.03c-1.464-.587-2.92.867-2.332 2.333a3.794 3.794 0 0 1-2.03 4.9c-1.45.62-1.45 2.677 0 3.298a3.794 3.794 0 0 1 2.03 4.9c-.587 1.465.867 2.92 2.333 2.333a3.794 3.794 0 0 1 4.9 2.03c.62 1.45 2.678 1.45 3.299 0a3.794 3.794 0 0 1 4.9-2.03c1.465.587 2.92-.868 2.332-2.333a3.794 3.794 0 0 1 2.03-4.9c1.45-.62 1.45-2.678 0-3.299a3.794 3.794 0 0 1-2.03-4.9c.587-1.464-.867-2.92-2.333-2.332a3.794 3.794 0 0 1-4.9-2.03c-.62-1.45-2.678-1.45-3.299 0" clip-rule="evenodd"/></svg>