<svg xmlns="http://www.w3.org/2000/svg" width="16" height="16" fill="none" class="persona-icon" viewBox="0 0 16 16"><path fill="currentColor" fill-rule="evenodd" d="M4.7 3.1a.7.7 0 0 0-.7.7v2.115c.764.438 1.331.624 1.873.624.544 0 1.129-.187 1.927-.629V3.8a.7.7 0 0 0-.7-.7.5.5 0 1 1 0-1 1.7 1.7 0 0 1 1.7 1.7v2.4a2.9 2.9 0 0 1-2.4 2.857V10.7a2.2 2.2 0 1 0 4.4 0v-.474a1.701 1.701 0 1 1 1 0v.474a3.202 3.202 0 0 1-4.425 2.957A3.2 3.2 0 0 1 5.4 10.7V9.057A2.9 2.9 0 0 1 3 6.2V3.8a1.7 1.7 0 0 1 1.7-1.7.5.5 0 0 1 0 1m2.843 4.054c-.575.249-1.117.385-1.67.385-.54 0-1.061-.13-1.606-.367a1.902 1.902 0 0 0 2.976.372q.178-.178.3-.39M11.3 7.9a.7.7 0 1 0 0 1.4.7.7 0 0 0 0-1.4" clip-rule="evenodd"/></svg>