<svg xmlns="http://www.w3.org/2000/svg" width="16" height="16" fill="none"><path fill="currentColor" d="M4.261 2c-.54 0-.978.423-.978.944v2.39h.23a.51.51 0 0 1 .518.5c0 .218.045.435.131.637.087.202.214.386.374.54.16.156.35.278.56.362a1.777 1.777 0 0 0 1.88-.361c.161-.155.288-.339.375-.54.087-.203.131-.42.131-.639 0-.276.232-.5.518-.5h.23V2.944c0-.521-.438-.944-.978-.944a.51.51 0 0 1-.518-.5c0-.276.232-.5.518-.5 1.112 0 2.013.87 2.013 1.944v2.39h.23a.51.51 0 0 1 .518.5A4.04 4.04 0 0 1 8.767 8.74a4.317 4.317 0 0 1-2.493 1.174v2.058c0 .246.065.495.196.732.131.24.33.465.59.661.261.196.577.356.933.467.355.11.739.168 1.129.168s.773-.058 1.129-.168c.355-.111.671-.271.932-.467s.46-.422.59-.66c.132-.238.196-.487.196-.733v-1.37c-.861-.22-1.495-.979-1.495-1.88 0-1.074.9-1.944 2.013-1.944 1.112 0 2.013.87 2.013 1.944 0 .901-.634 1.66-1.496 1.88v1.731a.486.486 0 0 1-.086.277c-.053.194-.13.383-.23.565a3.123 3.123 0 0 1-.869.98 4.12 4.12 0 0 1-1.25.629A4.885 4.885 0 0 1 9.121 15c-.495 0-.986-.073-1.447-.216a4.118 4.118 0 0 1-1.25-.63 3.123 3.123 0 0 1-.87-.98c-.1-.18-.176-.37-.23-.564a.486.486 0 0 1-.086-.277v-2.42A4.317 4.317 0 0 1 2.747 8.74 4.041 4.041 0 0 1 1.5 5.833c0-.276.232-.5.518-.5h.23V2.944C2.248 1.871 3.149 1 4.26 1a.51.51 0 0 1 .518.5.51.51 0 0 1-.518.5ZM2.577 6.333c.108.64.421 1.236.902 1.7a3.28 3.28 0 0 0 2.278.911 3.28 3.28 0 0 0 2.277-.91c.481-.465.794-1.06.902-1.7h-.467a2.662 2.662 0 0 1-.76 1.386 2.77 2.77 0 0 1-.896.577 2.847 2.847 0 0 1-2.113 0 2.77 2.77 0 0 1-.896-.578 2.662 2.662 0 0 1-.76-1.386h-.467Zm9.91 1.445c-.54 0-.978.423-.978.944 0 .522.438.945.978.945s.978-.423.978-.945c0-.521-.438-.944-.978-.944Z"/></svg>