<svg xmlns="http://www.w3.org/2000/svg" width="20" height="20" fill="none" class="persona-icon" viewBox="0 0 20 20"><path fill="currentColor" fill-rule="evenodd" d="M6.2 3.185c-.609 0-1.101.472-1.101 1.054v2.7h.24c.342 0 .62.265.62.592 0 .246.05.49.149.718s.243.434.425.609c.182.174.398.312.636.407a2.04 2.04 0 0 0 1.501 0 2 2 0 0 0 .636-.407c.183-.175.327-.381.426-.609s.149-.472.149-.718c0-.327.277-.593.619-.593h.24v-2.7c0-.581-.492-1.053-1.1-1.053a.606.606 0 0 1-.62-.592c0-.328.278-.593.62-.593 1.292 0 2.34 1.002 2.34 2.239v2.7h.24c.342 0 .62.265.62.592a4.6 4.6 0 0 1-1.441 3.329 5 5 0 0 1-2.86 1.341v2.326c0 .276.073.556.222.824s.375.523.673.745c.297.221.658.403 1.065.528s.845.19 1.291.19.885-.065 1.291-.19a3.5 3.5 0 0 0 1.066-.528c.297-.222.523-.477.672-.745s.222-.548.222-.824v-1.544c-.991-.26-1.72-1.129-1.72-2.16 0-1.236 1.047-2.239 2.34-2.239S18 9.587 18 10.823c0 1.031-.729 1.9-1.72 2.16v1.955c0 .12-.037.232-.101.325a3 3 0 0 1-.266.645c-.24.43-.585.81-1.006 1.123a4.8 4.8 0 0 1-1.446.721c-.533.164-1.1.248-1.67.248-.572 0-1.14-.084-1.672-.248a4.8 4.8 0 0 1-1.446-.72 3.6 3.6 0 0 1-1.005-1.124 3 3 0 0 1-.266-.645.57.57 0 0 1-.101-.325v-2.737a5 5 0 0 1-2.86-1.341A4.6 4.6 0 0 1 3 7.53c0-.326.277-.592.62-.592h.24v-2.7C3.86 3.003 4.907 2 6.2 2c.342 0 .619.265.619.593a.606.606 0 0 1-.62.592M4.29 8.123a3.47 3.47 0 0 0 1.026 1.899 3.77 3.77 0 0 0 2.603 1.031c.976 0 1.912-.37 2.603-1.031a3.47 3.47 0 0 0 1.026-1.899h-.49q-.062.297-.183.58c-.161.371-.397.709-.694.993s-.65.51-1.038.664a3.32 3.32 0 0 1-2.449 0 3.2 3.2 0 0 1-1.038-.664 3.1 3.1 0 0 1-.693-.993 3 3 0 0 1-.183-.58zm11.37 1.647c-.608 0-1.101.471-1.101 1.053s.492 1.053 1.1 1.053 1.102-.471 1.102-1.053-.493-1.053-1.101-1.053" clip-rule="evenodd"/></svg>