<svg xmlns="http://www.w3.org/2000/svg" width="32" height="32" fill="none" class="persona-icon" viewBox="0 0 32 32"><path fill="currentColor" fill-rule="evenodd" d="M13.2 5.2a1 1 0 0 1 1-1 3.4 3.4 0 0 1 3.4 3.4v4.8a5.8 5.8 0 0 1-4.8 5.713V21.4a4.4 4.4 0 1 0 8.8 0v-.95a3.402 3.402 0 0 1 1-6.65 3.4 3.4 0 0 1 1 6.65v.95a6.402 6.402 0 0 1-8.85 5.913A6.4 6.4 0 0 1 10.8 21.4v-3.286A5.8 5.8 0 0 1 6 12.4V7.6a3.4 3.4 0 0 1 3.4-3.4 1 1 0 0 1 0 2A1.4 1.4 0 0 0 8 7.6v4.23c1.528.876 2.662 1.247 3.745 1.247 1.089 0 2.258-.373 3.855-1.257V7.6a1.4 1.4 0 0 0-1.4-1.4 1 1 0 0 1-1-1m1.887 9.107c-1.151.498-2.234.77-3.343.77-1.08 0-2.12-.26-3.21-.733A3.8 3.8 0 0 0 11.8 16.2a3.8 3.8 0 0 0 3.287-1.893M22.6 15.8a1.4 1.4 0 1 0 0 2.8 1.4 1.4 0 0 0 0-2.8" clip-rule="evenodd"/></svg>