<svg xmlns="http://www.w3.org/2000/svg" width="16" height="16" fill="none" class="persona-icon" viewBox="0 0 16 16"><path fill="currentColor" d="M6.778 3.833a.5.5 0 0 0-.5.5v2.5a.5.5 0 0 0 .5.5h4.889a.5.5 0 0 0 .5-.5v-2.5a.5.5 0 0 0-.5-.5zM6.778 8.5a.5.5 0 1 0 0 1h4.889a.5.5 0 0 0 0-1zM6.778 10.833a.5.5 0 1 0 0 1h4.889a.5.5 0 1 0 0-1z"/><path fill="currentColor" fill-rule="evenodd" d="M4.333 2A2.333 2.333 0 0 0 2 4.333v7.334A2.333 2.333 0 0 0 4.333 14h7.334A2.333 2.333 0 0 0 14 11.667V4.333A2.333 2.333 0 0 0 11.667 2zm1.111 11V3h6.223C12.403 3 13 3.597 13 4.333v7.334c0 .736-.597 1.333-1.333 1.333z" clip-rule="evenodd"/></svg>