<svg xmlns="http://www.w3.org/2000/svg" width="20" height="20" fill="none" class="persona-icon" viewBox="0 0 20 20"><path fill="currentColor" d="M8.578 5.108a.625.625 0 0 0-.625.625v2.91c0 .345.28.624.625.624h5.689c.345 0 .625-.28.625-.625V5.733a.625.625 0 0 0-.625-.625zM8.578 10.539a.625.625 0 1 0 0 1.25h5.689a.625.625 0 1 0 0-1.25zM8.578 13.254a.625.625 0 1 0 0 1.25h5.689a.625.625 0 1 0 0-1.25z"/><path fill="currentColor" fill-rule="evenodd" d="M5.733 2.975a2.76 2.76 0 0 0-2.758 2.758v8.534a2.76 2.76 0 0 0 2.758 2.758h8.534a2.76 2.76 0 0 0 2.758-2.758V5.733a2.76 2.76 0 0 0-2.758-2.758zm1.337 12.8V4.225h7.197c.833 0 1.508.675 1.508 1.508v8.534c0 .833-.675 1.508-1.508 1.508z" clip-rule="evenodd"/></svg>