<svg xmlns="http://www.w3.org/2000/svg" width="24" height="24" fill="none" class="persona-icon" viewBox="0 0 24 24"><path fill="currentColor" d="M10.167 5.75H17.5a.75.75 0 0 1 .75.75v3.75a.75.75 0 0 1-.75.75h-7.333a.75.75 0 0 1-.75-.75V6.5a.75.75 0 0 1 .75-.75M10.167 12.75H17.5a.75.75 0 0 1 0 1.5h-7.333a.75.75 0 0 1 0-1.5M10.167 16.25H17.5a.75.75 0 0 1 0 1.5h-7.333a.75.75 0 0 1 0-1.5"/><path fill="currentColor" fill-rule="evenodd" d="M6.5 3h11A3.5 3.5 0 0 1 21 6.5v11a3.5 3.5 0 0 1-3.5 3.5h-11A3.5 3.5 0 0 1 3 17.5v-11A3.5 3.5 0 0 1 6.5 3m1.667 16.5H17.5a2 2 0 0 0 2-2v-11a2 2 0 0 0-2-2H8.167z" clip-rule="evenodd"/></svg>