<svg xmlns="http://www.w3.org/2000/svg" width="32" height="32" fill="none" class="persona-icon" viewBox="0 0 32 32"><path fill="currentColor" d="M13.556 7.667h9.777a1 1 0 0 1 1 1v5a1 1 0 0 1-1 1h-9.777a1 1 0 0 1-1-1v-5a1 1 0 0 1 1-1M13.556 17h9.777a1 1 0 1 1 0 2h-9.777a1 1 0 1 1 0-2M13.556 21.667h9.777a1 1 0 1 1 0 2h-9.777a1 1 0 1 1 0-2"/><path fill="currentColor" fill-rule="evenodd" d="M8.667 4h14.666A4.667 4.667 0 0 1 28 8.667v14.666A4.667 4.667 0 0 1 23.333 28H8.667A4.667 4.667 0 0 1 4 23.333V8.667A4.667 4.667 0 0 1 8.667 4m2.222 22h12.444A2.667 2.667 0 0 0 26 23.333V8.667A2.667 2.667 0 0 0 23.333 6H10.89z" clip-rule="evenodd"/></svg>