<svg xmlns="http://www.w3.org/2000/svg" width="16" height="16" fill="none" class="persona-icon" viewBox="0 0 16 16"><path fill="currentColor" d="M8.722 4.333a.5.5 0 0 1 .5-.5h2.445a.5.5 0 0 1 .5.5v2.445a.5.5 0 1 1-1 0V5.54L8.965 7.742a.5.5 0 1 1-.707-.707l2.202-2.202H9.222a.5.5 0 0 1-.5-.5Z"/><path fill="currentColor" fill-rule="evenodd" d="M4.333 2A2.333 2.333 0 0 0 2 4.333v7.334A2.333 2.333 0 0 0 4.333 14h7.334A2.333 2.333 0 0 0 14 11.667V4.333A2.333 2.333 0 0 0 11.667 2H4.333Zm3.749 11c.263-.378.418-.838.418-1.333V9.833A2.333 2.333 0 0 0 6.167 7.5H4.333c-.495 0-.955.155-1.333.418V4.333C3 3.597 3.597 3 4.333 3h7.334C12.403 3 13 3.597 13 4.333v7.334c0 .736-.597 1.333-1.333 1.333H8.082ZM3 9.833v1.834C3 12.403 3.597 13 4.333 13h1.834c.736 0 1.333-.597 1.333-1.333V9.833c0-.736-.597-1.333-1.333-1.333H4.333C3.597 8.5 3 9.097 3 9.833Z" clip-rule="evenodd"/></svg>