<svg xmlns="http://www.w3.org/2000/svg" width="20" height="20" fill="none" class="persona-icon" viewBox="0 0 20 20"><path fill="currentColor" fill-rule="evenodd" d="M2.975 11.546v.006zm0-5.813a2.76 2.76 0 0 1 2.758-2.758h8.534a2.76 2.76 0 0 1 2.758 2.758v8.534a2.76 2.76 0 0 1-2.758 2.758H5.733a2.76 2.76 0 0 1-2.758-2.758m0-8.534v5.813zm7.444 10.042h3.848c.833 0 1.508-.675 1.508-1.508V5.733c0-.833-.675-1.508-1.508-1.508H5.733c-.833 0-1.508.675-1.508 1.508v3.849c.281-.133.595-.207.927-.207h3.297c.373 0 .725.094 1.032.26l2.54-2.54h-1.47a.625.625 0 0 1 0-1.25h2.979a.625.625 0 0 1 .625.625v2.98a.625.625 0 1 1-1.25 0V7.98l-2.54 2.539c.166.307.26.659.26 1.033v3.297c0 .33-.074.645-.206.926m-1.964 0H5.733a1.51 1.51 0 0 1-1.508-1.508v-2.719a.927.927 0 0 1 .927-.923h3.297c.511 0 .926.415.926.927v3.297c0 .509-.411.922-.92.926" clip-rule="evenodd"/></svg>