<svg xmlns="http://www.w3.org/2000/svg" width="24" height="24" fill="none" class="persona-icon" viewBox="0 0 24 24"><path fill="currentColor" fill-rule="evenodd" d="M3 6.5A3.5 3.5 0 0 1 6.5 3h11A3.5 3.5 0 0 1 21 6.5v11a3.5 3.5 0 0 1-3.5 3.5h-11A3.5 3.5 0 0 1 3 17.5zm9.45 13h5.05a2 2 0 0 0 2-2v-11a2 2 0 0 0-2-2h-11a2 2 0 0 0-2 2v5.05c.375-.192.8-.3 1.25-.3H10c.487 0 .944.127 1.34.348l3.4-3.398h-2.03a.75.75 0 0 1 0-1.5h3.84a.75.75 0 0 1 .75.75v3.84a.75.75 0 0 1-1.5 0V9.26l-3.399 3.4c.223.396.349.853.349 1.34v4.25c0 .45-.108.875-.3 1.25M4.5 14v3.5a2 2 0 0 0 2 2H10c.69 0 1.25-.56 1.25-1.25V14c0-.69-.56-1.25-1.25-1.25H5.75c-.69 0-1.25.56-1.25 1.25" clip-rule="evenodd"/></svg>