<svg xmlns="http://www.w3.org/2000/svg" width="32" height="32" fill="none" class="persona-icon" viewBox="0 0 32 32"><path fill="currentColor" fill-rule="evenodd" d="M4 8.667A4.667 4.667 0 0 1 8.667 4h14.666A4.667 4.667 0 0 1 28 8.667v14.666A4.667 4.667 0 0 1 23.333 28H8.667A4.667 4.667 0 0 1 4 23.333zM16.6 26h6.733A2.667 2.667 0 0 0 26 23.333V8.667A2.667 2.667 0 0 0 23.333 6H8.667A2.667 2.667 0 0 0 6 8.667V15.4c.5-.256 1.066-.4 1.667-.4h5.666c.65 0 1.26.169 1.788.465l4.531-4.532h-2.705a1 1 0 1 1 0-2h5.12a1 1 0 0 1 1 1v5.12a1 1 0 0 1-2 0v-2.706l-4.532 4.532A3.65 3.65 0 0 1 17 18.667v5.666c0 .6-.144 1.167-.4 1.667M6 18.667v4.666A2.667 2.667 0 0 0 8.667 26h4.666c.92 0 1.667-.746 1.667-1.667v-5.666c0-.92-.746-1.667-1.667-1.667H7.667C6.747 17 6 17.746 6 18.667" clip-rule="evenodd"/></svg>