<svg xmlns="http://www.w3.org/2000/svg" width="32" height="32" fill="none" class="persona-icon" viewBox="0 0 32 32"><path fill="currentColor" d="M17.667 8a1 1 0 0 1 1-1H24a.996.996 0 0 1 .902.569c.063.13.098.277.098.431v5.333a1 1 0 1 1-2 0v-2.919l-4.96 4.96a1 1 0 0 1-1.414-1.414L21.586 9h-2.92a1 1 0 0 1-1-1Z"/><path fill="currentColor" d="M8 3a5 5 0 0 0-5 5v16a5 5 0 0 0 5 5h16a5 5 0 0 0 5-5V8a5 5 0 0 0-5-5H8Zm8 24c.628-.836 1-1.874 1-3v-4a5 5 0 0 0-5-5H8a4.978 4.978 0 0 0-3 1V8a3 3 0 0 1 3-3h16a3 3 0 0 1 3 3v16a3 3 0 0 1-3 3h-8ZM5 20a3 3 0 0 1 3-3h4a3 3 0 0 1 3 3v4a3 3 0 0 1-3 3H8a3.001 3.001 0 0 1-3-3v-4Z"/></svg>