<svg xmlns="http://www.w3.org/2000/svg" width="20" height="20" fill="none" class="persona-icon" viewBox="0 0 20 20"><path fill="currentColor" fill-rule="evenodd" d="M4.312 7.756a.111.111 0 0 0-.111.11v4.267c0 .062.05.112.11.112h6.4a.6.6 0 1 1 0 1.2h-6.4a1.311 1.311 0 0 1-1.31-1.312V7.867c0-.724.587-1.311 1.31-1.311h6.4a.6.6 0 1 1 0 1.2zm5.8-4.156a.6.6 0 0 1 .6-.6h.42c.54 0 1.068.16 1.517.46l.196.13.196-.13c.45-.3.977-.46 1.517-.46h.42a.6.6 0 1 1 0 1.2h-.42c-.303 0-.6.09-.851.257l-.262.175V9.4h.822a.6.6 0 1 1 0 1.2h-.822v4.768l.262.175c.252.167.548.257.85.257h.421a.6.6 0 1 1 0 1.2h-.42c-.54 0-1.068-.16-1.517-.46l-.196-.13-.196.13c-.45.3-.977.46-1.517.46h-.42a.6.6 0 0 1 0-1.2h.42c.303 0 .6-.09.85-.258l.263-.174V10.6h-.822a.6.6 0 1 1 0-1.2h.822V4.632l-.262-.175a1.533 1.533 0 0 0-.85-.257h-.421a.6.6 0 0 1-.6-.6m4.267 3.556a.6.6 0 0 1 .6-.6h.71c.725 0 1.312.587 1.312 1.31v4.267c0 .725-.587 1.312-1.311 1.312h-.711a.6.6 0 0 1 0-1.2h.71c.062 0 .112-.05.112-.112V7.867a.111.111 0 0 0-.111-.111h-.711a.6.6 0 0 1-.6-.6" clip-rule="evenodd"/></svg>