<svg xmlns="http://www.w3.org/2000/svg" width="32" height="32" fill="none" class="persona-icon" viewBox="0 0 32 32"><path fill="currentColor" fill-rule="evenodd" d="M16.222 5.12a1 1 0 0 1 1-1h.723c.922 0 1.822.272 2.589.783l-.555.832.555-.832.355.237.355-.237a4.67 4.67 0 0 1 2.588-.783h.723a1 1 0 1 1 0 2h-.723c-.526 0-1.04.155-1.479.447l-.464.31v8.243h1.444a1 1 0 0 1 0 2H21.89v8.242l.464.31c.438.292.953.448 1.48.448h.723a1 1 0 1 1 0 2h-.724a4.67 4.67 0 0 1-2.588-.784l-.355-.237-.355.237a4.67 4.67 0 0 1-2.589.784h-.723a1 1 0 0 1 0-2h.723c.527 0 1.041-.156 1.48-.448l.464-.31V17.12h-1.445a1 1 0 1 1 0-2h1.445V6.877l-.465-.31a2.67 2.67 0 0 0-1.479-.447h-.723a1 1 0 0 1-1-1m-10 7.11c-.123 0-.222.1-.222.223v7.333c0 .123.1.223.222.223h11a1 1 0 1 1 0 2h-11A2.22 2.22 0 0 1 4 19.786v-7.333c0-1.227.995-2.222 2.222-2.222h11a1 1 0 0 1 0 2zm17.334-1a1 1 0 0 1 1-1h1.222c1.227 0 2.222.996 2.222 2.223v7.333a2.22 2.22 0 0 1-2.222 2.223h-1.222a1 1 0 1 1 0-2h1.222c.123 0 .222-.1.222-.223v-7.333c0-.123-.1-.222-.222-.222h-1.222a1 1 0 0 1-1-1" clip-rule="evenodd"/></svg>