<svg xmlns="http://www.w3.org/2000/svg" width="150" height="150" fill="none" class="persona-ilustration" viewBox="0 0 150 150"><g clip-path="url(#8gO5ZI7s0O_a)"><g clip-path="url(#8gO5ZI7s0O_b)"><mask id="8gO5ZI7s0O_c" width="126" height="126" x="12" y="12" maskUnits="userSpaceOnUse" style="mask-type:alpha"><path fill="#D9D9D9" d="M137.503 75c0 34.519-27.983 62.503-62.503 62.503S12.497 109.519 12.497 75c0-34.52 27.984-62.503 62.503-62.503 34.52 0 62.503 27.983 62.503 62.503"/></mask><g mask="url(#8gO5ZI7s0O_c)"><path fill="#D3EDFF" d="M137.503 75c0 34.519-27.983 62.503-62.503 62.503S12.497 109.519 12.497 75c0-34.52 27.984-62.503 62.503-62.503 34.52 0 62.503 27.983 62.503 62.503"/><mask id="8gO5ZI7s0O_d" width="158" height="50" x="-4" y="101" maskUnits="userSpaceOnUse" style="mask-type:alpha"><path fill="#5BA57C" d="M75 101.357c19.277 0 42.321 2.405 47.399 3.597s11.343 3.864 16.083 10.733 12.132 26.236 15.235 35.061H-3.719c3.104-8.825 10.496-28.192 15.236-35.061s11.004-9.54 16.082-10.733c5.079-1.192 28.122-3.597 47.4-3.597"/></mask><g mask="url(#8gO5ZI7s0O_d)"><path fill="#8FC7B8" d="M75 101.357c19.277 0 42.321 2.405 47.399 3.597s11.343 3.864 16.083 10.733 12.132 26.236 15.235 35.061H-3.719c3.104-8.825 10.496-28.192 15.236-35.061s11.004-9.54 16.082-10.733c5.079-1.192 28.122-3.597 47.4-3.597"/><path fill="#498F79" d="M102.781 105.215c0 13.213-12.093 23.924-27.01 23.924s-27.012-10.711-27.012-23.924S60.853 81.29 75.77 81.29s27.011 10.712 27.011 23.925"/><path fill="#3D7360" fill-rule="evenodd" d="M75.855 83.22c-12.585 0-22.717 9.193-22.717 20.452 0 11.258 10.132 20.451 22.717 20.451s22.716-9.193 22.716-20.451S88.439 83.22 75.855 83.22m-23.488 20.452c0-11.758 10.554-21.223 23.488-21.223s23.487 9.465 23.487 21.223-10.554 21.223-23.487 21.223c-12.934 0-23.488-9.466-23.488-21.223" clip-rule="evenodd"/><path fill="#F29B7C" d="M56.177 103.672c0 9.803 8.81 17.75 19.68 17.75 10.868 0 19.679-7.947 19.679-17.75s-8.811-17.75-19.68-17.75-19.68 7.947-19.68 17.75"/></g><path fill="#F29B7C" d="M61.108 102.128c0 7.245 6.565 13.119 14.663 13.119s14.663-5.874 14.663-13.119c0-7.246-6.565-13.12-14.663-13.12s-14.663 5.874-14.663 13.12"/><path fill="#F29B7C" d="M90.434 50.42V102.9H61.108V50.421z"/><mask id="8gO5ZI7s0O_e" width="20" height="16" x="101" y="106" maskUnits="userSpaceOnUse" style="mask-type:alpha"><path fill="#F29B7C" d="M108.529 113.402c3.639 1.769 7.423 6.188 8.602 8.526l3.443-7.423c-1.59-1.38-6.05-3.978-9.108-6.126-3.822-2.684-7.928-1.042-9.633 1.106-1.706 2.148 2.147 1.706 6.696 3.917"/></mask><g mask="url(#8gO5ZI7s0O_e)"><path fill="#F29B7C" d="M108.529 113.402c3.639 1.769 7.423 6.188 8.602 8.526l3.443-7.423c-1.59-1.38-6.05-3.978-9.108-6.126-3.822-2.684-7.928-1.042-9.633 1.106-1.706 2.148 2.147 1.706 6.696 3.917"/><path fill="#E38969" d="M106.914 110.431c-1.755.524-3.441-.86-3.893-1.875 3.595-3.414 10.412-2.041 8.708-1.753s-2.622 2.973-4.815 3.628"/></g><path fill="#3F568E" d="M82.137 117.181c-3.738-3.107-3.441-8.989-3.408-12.508 9.364-6.375 24.704-2.889 25.7 0s-1.663 10.715-3.157 12.508c-2.33 1.679-10.875 4.926-19.135 0M66.234 117.181c3.738-3.107 3.44-8.988 3.408-12.508-9.364-6.375-24.704-2.889-25.7 0s1.662 10.715 3.157 12.508c2.33 1.679 10.875 4.926 19.135 0"/><path fill="#30457A" fill-rule="evenodd" d="M93.996 99.765c5.2.525 9.755 2.317 12.404 3.84a1.292 1.292 0 1 1-1.29 2.242c-2.361-1.359-6.569-3.024-11.374-3.509-4.791-.483-10.082.216-14.75 3.451a1.294 1.294 0 0 1-1.473-2.126c5.312-3.68 11.269-4.423 16.483-3.898M54.372 99.766c-5.2.524-9.755 2.316-12.404 3.839a1.294 1.294 0 0 0 1.29 2.242c2.361-1.359 6.569-3.024 11.374-3.509 4.791-.483 10.082.216 14.75 3.451a1.294 1.294 0 0 0 1.473-2.126c-5.312-3.68-11.27-4.423-16.483-3.897" clip-rule="evenodd"/><path fill="#30457A" fill-rule="evenodd" d="M75.065 102.415c1.593.161 2.988.706 3.83 1.19a1.294 1.294 0 0 1-1.29 2.242c-.554-.32-1.602-.738-2.8-.859-1.183-.119-2.418.059-3.488.801a1.294 1.294 0 0 1-1.473-2.126c1.713-1.187 3.615-1.41 5.221-1.248" clip-rule="evenodd"/><mask id="8gO5ZI7s0O_f" width="33" height="33" x="111" y="94" maskUnits="userSpaceOnUse" style="mask-type:alpha"><path fill="#F29B7C" d="M142.946 121.083c-.818 3.314-6.613 4.516-11.103 5.189-3.731.399-16.578-3.494-20.81-11.091l8.12-.897-8.12-9.869c4.139-2.402 13.038-7.412 15.523-8.231 2.486-.82 4.027-2.86 6.624-1.64 4.375 2.058 8.042 4.128 9.766 6.714 1.724 8.619.579 17.478 0 19.825"/></mask><g mask="url(#8gO5ZI7s0O_f)"><path fill="#F29B7C" d="M146.337 120.11c-.818 3.314-10.003 5.489-14.493 6.162-3.732.4-10.21-4.361-12.983-6.792l1.528-7.769-9.355-7.296c4.139-2.402 13.038-7.412 15.523-8.231 2.486-.82 4.027-2.859 6.623-1.639 4.376 2.057 6.156 3.724 8.043 6.713 4.575 7.248 5.694 16.505 5.114 18.852"/><path fill="#F29B7C" d="M142.945 121.083c-.818 3.315-6.613 4.516-11.103 5.189-3.731.4-16.578-3.494-20.81-11.09l8.12-.898-8.12-9.868c4.139-2.403 13.038-7.412 15.523-8.232 2.486-.82 4.027-2.859 6.623-1.639 4.376 2.057 8.043 4.127 9.767 6.713 1.724 8.62.579 17.479 0 19.825"/><path fill="#FFC7B6" d="M127.278 123.195c-2.456 0-7.779-.444-10.729-.862l-.548 1.488 13.47 6.97 8.066-19.89c-2.297 3.837-6.109 12.294-10.259 12.294"/><path fill="#E38969" d="M118.215 107.69c-1.152 1.344-3.799 2.399-4.979 2.759l-7.738-1.319 6.838-15.956 18.115-.96.54 5.999c-1.199 3.679-3.875 8.793-5.458 11.576-.727 1.278-1.776 1.597-2.836 1.471-2.164-.258-2.886-2.868-2.29-4.965l.507-1.784c-.42.5-1.548 1.835-2.699 3.179"/><path fill="#FFC7B6" d="M130.017 99.534c-2.586.862-1.15.862-2.586.862l6.033-8.62 24.126 24.12c-6.56 6.56-26.651 14.846-28.435 11.221 8.782-14.411 6.885-16.832 6.885-22.426.872-2.627-3.12-3.415-6.023-5.157"/></g><mask id="8gO5ZI7s0O_g" width="23" height="7" x="96" y="96" maskUnits="userSpaceOnUse" style="mask-type:alpha"><path fill="#FFC7B6" d="m117.628 98.417 1.349 2.697s-11.137 2.497-21.169-.614c-.873-.942-1.67-1.707-.873-3.147.64-1.155 9.429-.033 15.308-1.133 2.037-.381 4.458.344 5.385 2.197"/></mask><g mask="url(#8gO5ZI7s0O_g)"><path fill="#FFC7B6" d="m117.628 98.418 1.349 2.697s-11.137 2.497-21.169-.614c-.873-.942-1.67-1.707-.873-3.147.64-1.155 9.429-.033 15.308-1.133 2.037-.381 4.458.343 5.385 2.197"/><path fill="#F29B7C" d="m116.173 99.27 4.461 6.38-22.53-.953c-.867-.037-2.577-1.647-1.073-4.361 3.591.163 8.336 1.608 13.346-1.753 1.862-1.249 4.511-1.15 5.796.687"/></g><mask id="8gO5ZI7s0O_h" width="22" height="18" x="101" y="94" maskUnits="userSpaceOnUse" style="mask-type:alpha"><path fill="#FFC7B6" d="m116.772 94.05 5.368.49-15.951 15.941c-.613.613-3.199 1.61-4.179-1.334-.901-2.704 7.865-10.696 12.311-14.356a3.36 3.36 0 0 1 2.451-.74"/></mask><g mask="url(#8gO5ZI7s0O_h)"><path fill="#FFC7B6" d="m116.772 94.05 5.368.49-15.951 15.941c-.613.613-3.199 1.611-4.179-1.334-.901-2.704 7.865-10.695 12.311-14.356a3.36 3.36 0 0 1 2.451-.74"/><path fill="#F29B7C" d="m118.848 96.469 5.739.17-14.946 16.887c-.575.649-5.291 1.849-4.253-1.076.786-2.217 7.161-12 11.582-15.423.533-.412 1.205-.578 1.878-.558"/></g><mask id="8gO5ZI7s0O_i" width="19" height="17" x="110" y="93" maskUnits="userSpaceOnUse" style="mask-type:alpha"><path fill="#FFC7B6" d="M120.915 94.54c3.885-3.066 4.936.168 7.359 1.229-4.294 3.065-14.724 13.488-14.724 13.488-.613.613-2.085 1.103-3.066-1.841s6.545-9.811 10.431-12.876"/></mask><g mask="url(#8gO5ZI7s0O_i)"><path fill="#FFC7B6" d="M120.914 94.54c3.885-3.065 4.936.168 7.359 1.23-4.294 3.065-14.723 13.487-14.723 13.487-.614.614-2.086 1.104-3.066-1.84-.981-2.945 6.545-9.811 10.43-12.877"/><path fill="#F29B7C" d="M123.438 98.6c3.885-3.066 4.935.167 7.359 1.229-4.294 3.065-14.724 13.487-14.724 13.487-.613.614-2.086 1.104-3.066-1.841-.98-2.944 6.545-9.81 10.431-12.875"/></g><path fill="#FFC7B6" d="M120.296 108.646c-1.962-1.963 2.865-10.22 5.524-14.104 3.435-1.47 6.338-.611 7.36.003l-7.364 12.263c-1.022 1.431-3.558 3.802-5.52 1.838"/></g></g><path fill="#FFC7B6" d="M103.632 51.128s7.257-8.474 8.252-.239c.995 8.244-2.913 23.355-6.158 20.16s-3.362-7.414-3.362-7.414z"/><path fill="#F29B7C" fill-rule="evenodd" d="M106.623 65.508c-.307-.508-.659-1.507-.989-3.219a.867.867 0 0 0-1.702.328c.339 1.755.736 3.006 1.208 3.787.236.39.542.75.952.951a1.51 1.51 0 0 0 1.355-.004c.376-.184.67-.494.897-.807a6 6 0 0 0 .63-1.133c.374-.845.693-1.907.94-3.047.493-2.27.729-4.987.466-7.12-.13-1.054-.393-2.066-.889-2.808-.255-.381-.589-.718-1.022-.933a2.38 2.38 0 0 0-1.44-.208.867.867 0 0 0 .263 1.713.65.65 0 0 1 .405.046c.101.05.223.15.353.345.273.408.492 1.102.61 2.057.232 1.884.026 4.397-.439 6.54-.232 1.07-.521 2.01-.832 2.714a4.5 4.5 0 0 1-.447.816 1.6 1.6 0 0 1-.166.197 1.5 1.5 0 0 1-.153-.215" clip-rule="evenodd"/><path fill="#A36654" fill-rule="evenodd" d="m104.09 58.5.769.086zc-.037.523.277.986.703 1.033.424.046.798-.338.836-.86l.002-.018.009-.085a5 5 0 0 1 .05-.332c.051-.283.138-.639.276-.971.14-.335.313-.6.519-.767.191-.154.458-.264.868-.198.423.068.81-.299.865-.82s-.245-.998-.668-1.066c-.758-.122-1.4.077-1.915.493-.498.403-.827.968-1.044 1.487a7 7 0 0 0-.409 1.423 8 8 0 0 0-.072.474l-.015.142-.003.043-.002.014v.008" clip-rule="evenodd"/><path fill="#A36654" fill-rule="evenodd" d="m104.57 57.837.482.764zc-.386.243-.484.784-.218 1.206.267.422.795.566 1.182.323l.01-.006.062-.035a3 3 0 0 1 .25-.122c.219-.096.497-.189.779-.219s.508.01.68.106c.152.086.365.274.545.758.174.466.669.727 1.105.583.435-.143.648-.638.474-1.104-.311-.833-.794-1.428-1.409-1.774-.595-.336-1.208-.378-1.702-.325a4.3 4.3 0 0 0-1.233.338 5 5 0 0 0-.477.241l-.032.02-.01.006-.004.002z" clip-rule="evenodd"/><path fill="#FFC7B6" d="M47.867 51.297s-7.258-8.473-8.253-.239c-.995 8.244 2.914 23.355 6.159 20.16s3.362-7.414 3.362-7.414z"/><path fill="#F29B7C" fill-rule="evenodd" d="M44.875 65.676c.306-.508.659-1.507.989-3.219a.866.866 0 1 1 1.701.328c-.338 1.755-.735 3.006-1.207 3.787-.236.39-.542.75-.952.951a1.51 1.51 0 0 1-1.355-.004c-.376-.184-.67-.494-.897-.807a6.2 6.2 0 0 1-.63-1.133c-.374-.845-.693-1.907-.94-3.047-.493-2.27-.729-4.987-.466-7.12.13-1.054.393-2.066.889-2.808.255-.381.589-.718 1.022-.933.441-.22.93-.286 1.44-.208a.866.866 0 0 1-.263 1.713.65.65 0 0 0-.406.046c-.1.05-.223.15-.352.345-.273.408-.492 1.102-.61 2.057-.232 1.884-.026 4.397.44 6.54.23 1.07.52 2.01.83 2.714.156.353.308.624.448.816q.102.138.166.197c.04-.045.09-.113.153-.215" clip-rule="evenodd"/><path fill="#A36654" fill-rule="evenodd" d="m47.41 58.67-.77.084zc.037.523-.277.986-.702 1.033s-.799-.338-.837-.86l-.002-.018-.008-.085a6 6 0 0 0-.05-.332 5 5 0 0 0-.277-.971c-.14-.335-.313-.6-.52-.767-.19-.154-.457-.264-.867-.198-.423.068-.81-.299-.865-.82s.245-.998.668-1.066c.758-.122 1.4.077 1.915.493.498.403.827.967 1.044 1.486.217.522.34 1.043.41 1.423a8 8 0 0 1 .086.617l.003.043.002.014v.008" clip-rule="evenodd"/><path fill="#A36654" fill-rule="evenodd" d="m46.931 58.005-.482.765zc.387.244.484.784.218 1.206-.267.422-.795.567-1.181.324l.002.001-.013-.008-.062-.035a3 3 0 0 0-.25-.121 2.7 2.7 0 0 0-.779-.22c-.282-.03-.508.01-.68.106-.152.086-.364.274-.545.76-.174.465-.669.726-1.105.582s-.648-.638-.474-1.104c.311-.834.794-1.428 1.41-1.775.594-.335 1.207-.378 1.7-.325a4.3 4.3 0 0 1 1.234.339 5 5 0 0 1 .477.24l.032.02.01.007.004.002z" clip-rule="evenodd"/><path fill="#FFC7B6" d="M75.75 16.005c12.148 0 24.764 5.193 27.94 20.567 2.459 8.998.346 37.275-2.114 43.702C97.85 90.011 81.825 98.27 75.751 98.27v-.02.02c-6.074 0-22.1-8.258-25.826-17.995-2.46-6.427-4.573-34.704-2.114-43.702 3.176-15.374 15.792-20.566 27.94-20.567v.033z"/><path fill="#411917" d="M62.743 54.532c1.356.025 2.482-1.424 2.515-3.235.034-1.812-1.038-3.3-2.394-3.325s-2.483 1.423-2.516 3.234c-.033 1.812 1.039 3.3 2.395 3.326"/><path fill="#411917" fill-rule="evenodd" d="m70.039 50.53-.798.328za.863.863 0 0 1-1.592.668l-.007-.013a2.705 2.705 0 0 0-.355-.501c-.295-.332-.806-.77-1.644-1.102-1.674-.665-4.793-.965-10.324 1.125a.863.863 0 0 1-.61-1.615c5.757-2.176 9.352-1.996 11.571-1.115 1.108.44 1.838 1.043 2.297 1.558.228.256.387.488.492.664a3 3 0 0 1 .154.29l.011.026.005.01.001.003z" clip-rule="evenodd"/><path fill="#411917" d="M88.106 54.532c-1.356.025-2.482-1.424-2.515-3.235-.034-1.812 1.038-3.3 2.394-3.326 1.356-.025 2.483 1.424 2.516 3.235.033 1.812-1.039 3.3-2.395 3.325"/><path fill="#411917" fill-rule="evenodd" d="m80.811 50.53.798.328za.863.863 0 0 0 1.592.668l.007-.013a2.705 2.705 0 0 1 .355-.501c.295-.332.807-.77 1.645-1.102 1.673-.665 4.792-.965 10.323 1.125a.863.863 0 0 0 .61-1.615c-5.757-2.176-9.352-1.996-11.57-1.115-1.109.44-1.838 1.043-2.297 1.558a4.4 4.4 0 0 0-.493.664 3 3 0 0 0-.154.29l-.011.026-.004.01-.002.003z" clip-rule="evenodd"/><path fill="#422A24" d="M54.182 44.14s5.206-2.168 9.16-1.442c2.737.5 6.12 2.788 6.12 2.788s.994.182 0-2.46c-.992-2.642-7.32-2.754-7.32-2.754s-3.747 0-7.088 1.752c-1.39.734-1.753 2.167-1.753 2.167s.06.587.88-.06zM96.67 44.14s-5.205-2.168-9.16-1.443c-2.736.501-6.12 2.789-6.12 2.789s-.993.181 0-2.46c.992-2.642 7.32-2.754 7.32-2.754s3.747 0 7.089 1.752c1.39.734 1.752 2.167 1.752 2.167s-.06.587-.88-.06z"/><path fill="#F29B7C" d="M79.822 70.473c0 .666-2.159 1.206-4.822 1.206s-4.822-.54-4.822-1.206 2.16-1.205 4.822-1.205 4.822.54 4.822 1.205"/><path fill="#411917" fill-rule="evenodd" d="M75 56.332c.479 0 .867.389.867.868v12.068a.868.868 0 0 1-1.736 0V57.2c0-.48.389-.868.868-.868M67.05 78.386a.863.863 0 0 1 1.196-.241c3.37 2.238 6.73 2.239 9.28 1.67a14.7 14.7 0 0 0 3.094-1.069 12 12 0 0 0 1.075-.578l.05-.033.01-.006m0 0a.864.864 0 0 1 .958 1.436l-.453-.68.453.68-.001.002-.003.001-.006.004-.021.014a6 6 0 0 1-.34.206c-.23.133-.56.313-.98.513-.834.398-2.027.875-3.46 1.195-2.874.641-6.748.65-10.611-1.917a.863.863 0 0 1-.241-1.197" clip-rule="evenodd"/><path fill="#422A24" d="M102.429 43.267a6 6 0 0 0-.014.357V54.65s1.476.401 2.046-.742c.193-.387.152-1.114.111-1.847-.043-.769-.086-1.542.14-1.932 2.254-2.669 4.657-2.811 4.657-2.811 1.49-13.566-3.342-38.44-33.62-38.57h-.237c-30.277.13-35.126 25.147-33.636 38.712 0 0 2.42 0 4.673 2.67.227.389.183 1.162.14 1.931-.041.733-.082 1.46.111 1.847.57 1.143 2.047.742 2.047.742V43.624c0-.122-.008-.242-.015-.357-.038-.61-.069-1.104 1.05-1.29.66-.108 1.2-.62 1.262-1.286.2-2.152.94-3.903 2.064-5.329q.3-.229.61-.47c3.072-2.386 7.173-5.572 21.813-5.742 14.64.17 18.74 3.356 21.812 5.742q.31.241.61.47c1.124 1.426 1.864 3.177 2.065 5.33.062.664.601 1.177 1.261 1.286 1.12.185 1.088.68 1.05 1.289"/></g><defs><clipPath id="8gO5ZI7s0O_a"><path fill="#fff" d="M0 0h150v150H0z"/></clipPath><clipPath id="8gO5ZI7s0O_b"><path fill="#fff" d="M12.497 12.497h125.006v125.006H12.497z"/></clipPath></defs></svg>