<svg xmlns="http://www.w3.org/2000/svg" width="20" height="20" fill="none" class="persona-icon" viewBox="0 0 20 20"><path fill="currentColor" fill-rule="evenodd" d="M10.8 1.174a.625.625 0 0 0-.625.625v7.4c0 .345.28.625.625.625h7.4c.345 0 .625-.28.625-.625A8.025 8.025 0 0 0 10.8 1.174m.625 7.4v-6.12a6.776 6.776 0 0 1 6.121 6.12z" clip-rule="evenodd"/><path fill="currentColor" d="M8.53 3.386a.625.625 0 1 0-.27-1.22 8.024 8.024 0 1 0 9.571 9.586.625.625 0 0 0-1.22-.273 6.775 6.775 0 1 1-8.08-8.093"/></svg>