<svg xmlns="http://www.w3.org/2000/svg" width="24" height="24" fill="none" class="persona-icon" viewBox="0 0 24 24"><path fill="currentColor" fill-rule="evenodd" d="M10.699 2.83a.77.77 0 0 1-.58.92 8.467 8.467 0 0 0-5.936 5.012 8.461 8.461 0 1 0 16.12 4.868.77.77 0 0 1 1.51.296 10.006 10.006 0 0 1-5.986 7.313A10 10 0 1 1 9.777 2.25a.77.77 0 0 1 .922.58Z" clip-rule="evenodd"/><path fill="currentColor" fill-rule="evenodd" d="M12.256 2.77a.77.77 0 0 1 .77-.77A8.974 8.974 0 0 1 22 10.974a.77.77 0 0 1-.77.77h-8.204a.77.77 0 0 1-.77-.77V2.77Zm1.539.808v6.627h6.627a7.434 7.434 0 0 0-6.627-6.627Z" clip-rule="evenodd"/></svg>