<svg xmlns="http://www.w3.org/2000/svg" width="16" height="16" fill="none" class="persona-icon" viewBox="0 0 16 16"><path fill="currentColor" fill-rule="evenodd" d="M5.572 3v1.625a.5.5 0 0 0 1 0V3h6.014a1.7 1.7 0 0 1 1.7 1.7v1.371a.5.5 0 0 1-.5.5 1.429 1.429 0 1 0 0 2.857.5.5 0 0 1 .5.5V11.3a1.7 1.7 0 0 1-1.7 1.7H6.572v-1.625a.5.5 0 1 0-1 0V13H3.414a1.7 1.7 0 0 1-1.7-1.7V9.928a.5.5 0 0 1 .5-.5 1.429 1.429 0 1 0 0-2.857.5.5 0 0 1-.5-.5V4.7a1.7 1.7 0 0 1 1.7-1.7zm1 3.875a.5.5 0 1 0-1 0v2.25a.5.5 0 0 0 1 0z" clip-rule="evenodd"/></svg>