<svg xmlns="http://www.w3.org/2000/svg" width="20" height="20" fill="none" class="persona-icon" viewBox="0 0 20 20"><path fill="currentColor" fill-rule="evenodd" d="M7.06 4H4.658a2.2 2.2 0 0 0-2.2 2.2v1.486a.6.6 0 0 0 .6.6 1.714 1.714 0 0 1 0 3.428.6.6 0 0 0-.6.6V13.8a2.2 2.2 0 0 0 2.2 2.2h2.404v-1.95a.625.625 0 1 1 1.25 0V16h7.032a2.2 2.2 0 0 0 2.2-2.2v-1.486a.6.6 0 0 0-.6-.6 1.714 1.714 0 1 1 0-3.428.6.6 0 0 0 .6-.6V6.2a2.2 2.2 0 0 0-2.2-2.2H8.31v1.95a.625.625 0 1 1-1.25 0zm1.25 4.65v2.7a.625.625 0 0 1-1.25 0v-2.7a.625.625 0 1 1 1.25 0" clip-rule="evenodd"/></svg>