<svg xmlns="http://www.w3.org/2000/svg" width="16" height="16" fill="none" class="persona-icon" viewBox="0 0 16 16"><path fill="currentColor" fill-rule="evenodd" d="M2 4.333A2.333 2.333 0 0 1 4.333 2h7.334A2.333 2.333 0 0 1 14 4.333v7.333A2.333 2.333 0 0 1 11.667 14H4.333A2.333 2.333 0 0 1 2 11.666zM4.444 3h-.11C3.596 3 3 3.597 3 4.333v7.333C3 12.404 3.597 13 4.333 13h.111zm1 10h6.223c.736 0 1.333-.597 1.333-1.334V4.333C13 3.597 12.403 3 11.667 3H5.445zm.834-8.667a.5.5 0 0 1 .5-.5h4.889a.5.5 0 0 1 .5.5v2.5a.5.5 0 0 1-.5.5h-4.89a.5.5 0 0 1-.5-.5zm0 4.667a.5.5 0 0 1 .5-.5h4.889a.5.5 0 1 1 0 1h-4.89a.5.5 0 0 1-.5-.5m0 2.333a.5.5 0 0 1 .5-.5h4.889a.5.5 0 1 1 0 1h-4.89a.5.5 0 0 1-.5-.5m1-6.5v1.5h3.889v-1.5z" clip-rule="evenodd"/></svg>