<svg xmlns="http://www.w3.org/2000/svg" width="20" height="20" fill="none" class="persona-icon" viewBox="0 0 20 20"><path fill="currentColor" d="M15.154 14.554a.6.6 0 0 0-.6-.6H8.292a.6.6 0 1 0 0 1.2h6.262a.6.6 0 0 0 .6-.6M14.554 10.6a.6.6 0 1 0 0-1.2H8.292a.6.6 0 1 0 0 1.2zM15.154 12.277a.6.6 0 0 1-.6.6H8.292a.6.6 0 1 1 0-1.2h6.262a.6.6 0 0 1 .6.6"/><path fill="currentColor" fill-rule="evenodd" d="M8.292 4.846a.6.6 0 0 0-.6.6v2.277a.6.6 0 0 0 .6.6h6.262a.6.6 0 0 0 .6-.6V5.446a.6.6 0 0 0-.6-.6zm.6 2.277V6.046h5.062v1.077z" clip-rule="evenodd"/><path fill="currentColor" fill-rule="evenodd" d="M5.067 2A3.067 3.067 0 0 0 2 5.067v9.866A3.067 3.067 0 0 0 5.067 18h9.867A3.067 3.067 0 0 0 18 14.933V5.067A3.067 3.067 0 0 0 14.933 2zm-.22 1.213v13.574A1.867 1.867 0 0 1 3.2 14.933V5.067c0-.957.72-1.745 1.646-1.854m1.2 13.587V3.2h8.886c1.031 0 1.867.836 1.867 1.867v9.866a1.867 1.867 0 0 1-1.867 1.867z" clip-rule="evenodd"/></svg>