<svg xmlns="http://www.w3.org/2000/svg" width="24" height="24" fill="none" class="persona-icon" viewBox="0 0 24 24"><path fill="currentColor" d="M18.923 18.154a.77.77 0 0 0-.77-.77H9.95a.77.77 0 0 0 0 1.54h8.205a.77.77 0 0 0 .77-.77M18.154 12.77a.77.77 0 1 0 0-1.54H9.949a.77.77 0 0 0 0 1.54h8.205M18.923 15.077a.77.77 0 0 1-.77.77H9.95a.77.77 0 0 1 0-1.54h8.205a.77.77 0 0 1 .77.77"/><path fill="currentColor" fill-rule="evenodd" d="M9.949 5.077a.77.77 0 0 0-.77.77v3.076c0 .425.345.77.77.77h8.205a.77.77 0 0 0 .77-.77V5.846a.77.77 0 0 0-.77-.77H9.949m.769 3.077V6.615h6.667v1.539h-6.667" clip-rule="evenodd"/><path fill="currentColor" fill-rule="evenodd" d="M5.846 2A3.846 3.846 0 0 0 2 5.846v12.308A3.846 3.846 0 0 0 5.846 22h12.308A3.846 3.846 0 0 0 22 18.154V5.846A3.846 3.846 0 0 0 18.154 2H5.846m.257 1.539v16.923h-.257a2.308 2.308 0 0 1-2.307-2.308V5.846A2.308 2.308 0 0 1 5.845 3.54h.257M7.64 20.461V3.539h10.513a2.308 2.308 0 0 1 2.308 2.307v12.308a2.308 2.308 0 0 1-2.308 2.308H7.64" clip-rule="evenodd"/></svg>