<svg xmlns="http://www.w3.org/2000/svg" width="24" height="24" fill="none" class="persona-icon" viewBox="0 0 24 24"><path fill="currentColor" fill-rule="evenodd" d="M3 6.5A3.5 3.5 0 0 1 6.5 3h11A3.5 3.5 0 0 1 21 6.5v11a3.5 3.5 0 0 1-3.5 3.5h-11A3.5 3.5 0 0 1 3 17.5zm3.667-2H6.5a2 2 0 0 0-2 2v11a2 2 0 0 0 2 2h.167zm1.5 15H17.5a2 2 0 0 0 2-2v-11a2 2 0 0 0-2-2H8.167zm1.25-6a.75.75 0 0 1 .75-.75H17.5a.75.75 0 0 1 0 1.5h-7.333a.75.75 0 0 1-.75-.75m0 3.5a.75.75 0 0 1 .75-.75H17.5a.75.75 0 0 1 0 1.5h-7.333a.75.75 0 0 1-.75-.75m0-10.5a.75.75 0 0 1 .75-.75H17.5a.75.75 0 0 1 .75.75v3.75a.75.75 0 0 1-.75.75h-7.333a.75.75 0 0 1-.75-.75zm1.5.75V9.5h5.833V7.25z" clip-rule="evenodd"/></svg>