<svg xmlns="http://www.w3.org/2000/svg" width="16" height="16" fill="none" class="persona-icon" viewBox="0 0 16 16"><path fill="currentColor" fill-rule="evenodd" d="M5.429 2.714c-.79 0-1.429.64-1.429 1.429v7.714c0 .789.64 1.429 1.429 1.429h1.633a.5.5 0 0 1 0 1H5.429A2.43 2.43 0 0 1 3 11.857V4.143a2.43 2.43 0 0 1 2.429-2.429H8.34c.495 0 .968.206 1.306.567L12.52 5.36c.308.33.48.766.48 1.218v2.047a.5.5 0 1 1-1 0V6.571H9.929c-.987 0-1.786-.8-1.786-1.785V2.714zm2.664 4.932a.5.5 0 0 1 0 .707L7.018 9.428H9.98a2.429 2.429 0 0 1 0 4.858h-.73a.5.5 0 1 1 0-1h.73a1.428 1.428 0 1 0 0-2.858H7.018l1.075 1.075a.5.5 0 1 1-.707.707l-1.929-1.928a.5.5 0 0 1 0-.707l1.929-1.929a.5.5 0 0 1 .707 0m1.05-4.439v1.579c0 .434.352.785.786.785h1.42z" clip-rule="evenodd"/></svg>