<svg xmlns="http://www.w3.org/2000/svg" width="20" height="20" fill="none" class="persona-icon" viewBox="0 0 20 20"><path fill="currentColor" fill-rule="evenodd" d="M6.914 3.682a1.69 1.69 0 0 0-1.689 1.69v9.257c0 .933.756 1.689 1.69 1.689h1.96a.625.625 0 0 1 0 1.25h-1.96a2.94 2.94 0 0 1-2.94-2.94V5.372a2.94 2.94 0 0 1 2.94-2.939h3.495c.6 0 1.175.25 1.585.689l3.447 3.694c.375.401.583.93.583 1.479v2.457a.625.625 0 0 1-1.25 0V8.31h-2.46a2.17 2.17 0 0 1-2.168-2.168v-2.46zm3.215 5.876a.625.625 0 0 1 0 .884l-1.247 1.247h3.495a2.94 2.94 0 0 1 0 5.879H11.5a.625.625 0 0 1 0-1.25h.876a1.69 1.69 0 1 0 0-3.379H8.882l1.247 1.248a.625.625 0 1 1-.884.883l-2.314-2.314a.625.625 0 0 1 0-.884l2.314-2.314a.625.625 0 0 1 .884 0m1.268-5.246v1.831c0 .507.41.918.917.918h1.648z" clip-rule="evenodd"/></svg>