<svg xmlns="http://www.w3.org/2000/svg" width="32" height="32" fill="none" class="persona-icon" viewBox="0 0 32 32"><path fill="currentColor" fill-rule="evenodd" d="M7.535 8.002c0-1.657 1.364-3 3.048-3h5.758v4.334c0 2.025 1.668 3.666 3.726 3.666h5.419c.405 0 .77-.236.932-.601a.988.988 0 0 0-.19-1.081l-6.783-7.153a3.754 3.754 0 0 0-2.724-1.165h-6.138c-2.806 0-5.08 2.239-5.08 5v16c0 2.762 2.274 5 5.08 5h2.71c.56 0 1.016-.447 1.016-1 0-.552-.455-1-1.016-1h-2.71c-1.684 0-3.048-1.343-3.048-3v-16Zm15.498 3h-2.966c-.936 0-1.694-.746-1.694-1.666v-2.92l4.66 4.586Z" clip-rule="evenodd"/><path fill="currentColor" fill-rule="evenodd" d="M24.5 27a3 3 0 1 0 0-6h-4.253l2.293 2.293a1 1 0 1 1-1.414 1.414l-4-4a1 1 0 0 1 0-1.414l4-4a1 1 0 0 1 1.414 1.414L20.247 19H24.5a5 5 0 0 1 0 10h-6.667a1 1 0 1 1 0-2H24.5Z" clip-rule="evenodd"/></svg>