<svg xmlns="http://www.w3.org/2000/svg" width="16" height="16" fill="none" class="persona-icon" viewBox="0 0 16 16"><path fill="currentColor" fill-rule="evenodd" d="M2.5 2a.5.5 0 0 0-.5.5v9.167A2.333 2.333 0 0 0 4.333 14H13.5a.5.5 0 0 0 0-1H4.333A1.333 1.333 0 0 1 3 11.667V2.5a.5.5 0 0 0-.5-.5" clip-rule="evenodd"/><path fill="currentColor" fill-rule="evenodd" d="M4.444 3.722a.5.5 0 0 1 .5-.5h2.75a.5.5 0 0 1 .5.5v2.75a.5.5 0 0 1-.5.5h-2.75a.5.5 0 0 1-.5-.5zm1 .5v1.75h1.75v-1.75zM4.444 8.306a.5.5 0 0 1 .5-.5h2.75a.5.5 0 0 1 .5.5v2.75a.5.5 0 0 1-.5.5h-2.75a.5.5 0 0 1-.5-.5zm1 .5v1.75h1.75v-1.75zM9.028 3.722a.5.5 0 0 1 .5-.5h2.75a.5.5 0 0 1 .5.5v2.75a.5.5 0 0 1-.5.5h-2.75a.5.5 0 0 1-.5-.5zm1 .5v1.75h1.75v-1.75zM10.502 8.306a.5.5 0 0 1 .5-.5h1.277a.5.5 0 0 1 .5.5v.947a.5.5 0 0 1-1 0v-.447h-.777a.5.5 0 0 1-.5-.5M11.778 10.556v-.111a.5.5 0 1 1 1 0v.61a.5.5 0 0 1-.5.5h-.61a.5.5 0 0 1 0-1zM10.013 10.556h.427a.5.5 0 0 1 0 1h-.912a.5.5 0 0 1-.5-.5v-.38a.5.5 0 0 1 .985-.12" clip-rule="evenodd"/><path fill="currentColor" fill-rule="evenodd" d="M9.528 7.806a.5.5 0 0 1 .5.5v.667h.949a.5.5 0 0 1 .5.5v.482a.5.5 0 0 1-1 .018h-.949a.5.5 0 0 1-.5-.5V8.305a.5.5 0 0 1 .5-.5" clip-rule="evenodd"/></svg>