<svg xmlns="http://www.w3.org/2000/svg" width="16" height="16" fill="none" class="persona-icon" viewBox="0 0 16 16"><path fill="currentColor" fill-rule="evenodd" d="m2.368 3.074-.721-.72a.503.503 0 0 1 0-.707.503.503 0 0 1 .706 0l.987.986a.5.5 0 0 1 .1.1l9.857 9.857.033.034 1.023 1.023a.503.503 0 0 1 0 .706.495.495 0 0 1-.707 0l-.721-.721a2.563 2.563 0 0 1-.633.284 2.4 2.4 0 0 1-.608.09 2 2 0 0 1-.365-.006H4.333A2.336 2.336 0 0 1 2 11.667V4.592a2 2 0 0 1 0-.276c.002-.239.045-.447.092-.613l.001-.003a2.4 2.4 0 0 1 .275-.626M7.467 9.66l.74-.746-5.098-5.099q-.027.07-.055.164A1.3 1.3 0 0 0 3 4.33v.223l.003.025A.5.5 0 0 1 3 4.722v5.738l1.767-1.773a1.114 1.114 0 0 1 1.573 0l.973.973c.04.04.114.04.154 0M4.593 2.853A.5.5 0 0 1 4.946 2h6.72A2.336 2.336 0 0 1 14 4.333v7.927L9.787 8.047a.503.503 0 0 1 0-.707l.48-.487a1.115 1.115 0 0 1 1.573 0L13 8.013v-3.68C13 3.6 12.4 3 11.667 3h-6.72a.48.48 0 0 1-.354-.147M14 9.22c0 1.48 0-.434 0 0" clip-rule="evenodd"/></svg>