<svg xmlns="http://www.w3.org/2000/svg" width="24" height="24" fill="none" class="persona-icon" viewBox="0 0 24 24"><path fill="currentColor" fill-rule="evenodd" d="M3.551 4.611 2.47 3.53a.754.754 0 0 1 0-1.06c.29-.29.77-.29 1.06 0l1.48 1.48a.8.8 0 0 1 .15.15l14.785 14.785.05.05 1.535 1.535c.29.29.29.77 0 1.06-.15.15-.34.22-.53.22s-.38-.07-.53-.22l-1.083-1.083a3.848 3.848 0 0 1-.95.426c-.249.069-.56.134-.912.137-.166.01-.35.01-.546-.01H6.5C4.57 21 3 19.43 3 17.5V6.888a3 3 0 0 1 0-.413c.003-.36.068-.672.139-.921l.001-.004a3.6 3.6 0 0 1 .411-.939M11.2 14.49l1.11-1.12-7.647-7.647q-.041.104-.082.245c-.047.163-.08.34-.081.527v.335l.004.037a.8.8 0 0 1-.004.216v8.607l2.65-2.66c.66-.65 1.71-.65 2.36 0l1.46 1.46c.06.06.17.06.23 0M6.89 4.28A.749.749 0 0 1 7.42 3H17.5C19.43 3 21 4.57 21 6.5v11.89l-6.32-6.32a.754.754 0 0 1 0-1.06l.72-.73c.66-.65 1.71-.65 2.36 0l1.74 1.74V6.5c0-1.1-.9-2-2-2H7.42c-.21 0-.4-.08-.53-.22M21 13.83c0-.652 0 2.221 0 0" clip-rule="evenodd"/></svg>