<svg xmlns="http://www.w3.org/2000/svg" width="32" height="32" fill="none" class="persona-icon" viewBox="0 0 32 32"><path fill="currentColor" fill-rule="evenodd" d="M4.735 6.149 3.293 4.707a1.006 1.006 0 0 1 0-1.414 1.006 1.006 0 0 1 1.414 0l1.972 1.973a1 1 0 0 1 .2.2L26.594 25.18q.036.033.067.067l2.047 2.046a1.006 1.006 0 0 1 0 1.414A1 1 0 0 1 28 29a1 1 0 0 1-.707-.293l-1.443-1.444a5.124 5.124 0 0 1-1.267.568c-.332.091-.748.178-1.216.182a4.5 4.5 0 0 1-.729-.013H8.667A4.67 4.67 0 0 1 4 23.333V9.184a4 4 0 0 1 0-.551c.004-.478.09-.895.185-1.228l.002-.005a4.8 4.8 0 0 1 .548-1.251M14.933 19.32l1.48-1.492L6.218 7.63a4 4 0 0 0-.11.326A2.6 2.6 0 0 0 6 8.66v.446l.006.05A1 1 0 0 1 6 9.444V20.92l3.533-3.547a2.23 2.23 0 0 1 3.147 0l1.947 1.947c.08.08.226.08.306 0M9.187 5.707A.999.999 0 0 1 9.894 4h13.44A4.67 4.67 0 0 1 28 8.667V24.52l-8.427-8.427a1.006 1.006 0 0 1 0-1.413l.96-.973a2.23 2.23 0 0 1 3.147 0l2.32 2.32v-7.36C26 7.2 24.8 6 23.333 6H9.893a.96.96 0 0 1-.706-.293M28 18.44c0-.869 0 2.961 0 0" clip-rule="evenodd"/></svg>