<svg xmlns="http://www.w3.org/2000/svg" width="16" height="16" fill="none" class="persona-icon" viewBox="0 0 16 16"><path fill="currentColor" fill-rule="evenodd" d="M8 1a7 7 0 1 0 .756 13.96.5.5 0 1 0-.107-.995Q8.33 14 8 14c-.08 0-.236-.048-.45-.32-.21-.267-.421-.683-.608-1.242a10 10 0 0 1-.264-.97 11 11 0 0 1 1.994-.059.5.5 0 1 0 .06-.998 12 12 0 0 0-2.23.07A17 17 0 0 1 6.34 8.5h5.174a.5.5 0 0 0 0-1h-.854c-.018-.755-.08-1.48-.176-2.15q.176-.04.349-.083a8.4 8.4 0 0 0 2.026-.788 5.97 5.97 0 0 1 1.106 2.872.5.5 0 1 0 .995-.107A7 7 0 0 0 8 1m3.197 12a.5.5 0 0 1 .456-.296h2.886a.5.5 0 0 1 0 1h-1.77l.412.461a.5.5 0 1 1-.747.666l-1.154-1.295a.5.5 0 0 1-.083-.537m1.856-3.406a.5.5 0 0 1 .706.04l1.154 1.295a.5.5 0 0 1-.373.833h-2.886a.5.5 0 1 1 0-1h1.77l-.412-.462a.5.5 0 0 1 .04-.706M2.02 7.5a5.97 5.97 0 0 1 1.12-3.02 8.3 8.3 0 0 0 1.934.763q.218.058.44.106A18 18 0 0 0 5.34 7.5zm3.318 1c.019.755.08 1.48.176 2.15q-.176.04-.349.083a8.4 8.4 0 0 0-2.025.787A5.97 5.97 0 0 1 2.02 8.5zm.352 3.136q.131.605.302 1.118c.128.383.275.735.442 1.04a6 6 0 0 1-2.624-1.499 7.6 7.6 0 0 1 1.602-.593q.138-.034.278-.066m-1.88-7.932a6 6 0 0 1 2.624-1.498 6.4 6.4 0 0 0-.442 1.04q-.17.513-.302 1.118a9 9 0 0 1-.36-.088 7.6 7.6 0 0 1-1.52-.572m5.687 1.814c.087.613.144 1.28.162 1.982H6.34c.018-.702.074-1.37.162-1.982a12 12 0 0 0 2.996 0M8 2c.08 0 .236.048.45.32.21.267.421.683.607 1.242q.148.44.264.97a11 11 0 0 1-2.643 0q.117-.53.264-.97c.186-.56.397-.975.607-1.242C7.764 2.048 7.92 2 8 2m2.308 2.364a11 11 0 0 0-.302-1.118 6.4 6.4 0 0 0-.441-1.04 6 6 0 0 1 2.624 1.498 7.6 7.6 0 0 1-1.603.594 10 10 0 0 1-.278.066" clip-rule="evenodd"/></svg>