<svg xmlns="http://www.w3.org/2000/svg" width="16" height="16" fill="none" class="persona-icon" viewBox="0 0 16 16"><path fill="currentColor" fill-rule="evenodd" d="M8 1a7 7 0 0 1 6.96 6.244.5.5 0 1 1-.995.107 5.97 5.97 0 0 0-1.106-2.872 8.4 8.4 0 0 1-2.026.788q-.173.045-.349.082c.097.672.158 1.396.176 2.151h.854a.5.5 0 0 1 0 1H6.34c.018.702.074 1.37.162 1.982a12 12 0 0 1 2.23-.071.5.5 0 1 1-.06.998 11 11 0 0 0-1.994.059q.117.53.264.97c.186.56.397.975.607 1.242.215.272.37.32.451.32q.33 0 .65-.035a.5.5 0 0 1 .106.995Q8.384 15 8 15A7 7 0 1 1 8 1m3.197 12a.5.5 0 0 1 .456-.296h2.886a.5.5 0 0 1 0 1h-1.77l.412.461a.5.5 0 1 1-.747.666l-1.154-1.295a.5.5 0 0 1-.083-.537m1.856-3.406a.5.5 0 0 1 .706.04l1.154 1.295a.5.5 0 0 1-.373.833h-2.886a.5.5 0 1 1 0-1h1.77l-.412-.462a.5.5 0 0 1 .04-.706M2.02 7.5h3.318c.019-.755.08-1.48.176-2.15a10 10 0 0 1-.44-.107 8.3 8.3 0 0 1-1.934-.764A5.97 5.97 0 0 0 2.02 7.5m3.318 1H2.021a5.97 5.97 0 0 0 1.12 3.02 8.4 8.4 0 0 1 2.025-.787q.173-.044.35-.083a18 18 0 0 1-.177-2.15m.352 3.136q-.14.03-.278.066a7.6 7.6 0 0 0-1.602.593 6 6 0 0 0 2.624 1.499 6.4 6.4 0 0 1-.442-1.04 11 11 0 0 1-.302-1.118m-1.88-7.932c.444.229.955.423 1.52.572q.178.048.36.088.131-.605.302-1.118c.128-.383.275-.735.442-1.04a6 6 0 0 0-2.624 1.498m5.687 1.814a12 12 0 0 1-2.996 0c-.088.613-.144 1.28-.162 1.982h3.32a17 17 0 0 0-.162-1.982M8 2c-.08 0-.236.048-.45.32-.21.267-.421.683-.608 1.242a10 10 0 0 0-.264.97 11 11 0 0 0 2.643 0 10 10 0 0 0-.264-.97c-.186-.56-.397-.975-.606-1.242C8.236 2.048 8.08 2 8 2m2.308 2.364q.14-.03.278-.066a7.6 7.6 0 0 0 1.603-.594 6 6 0 0 0-2.624-1.498c.167.305.314.657.441 1.04q.171.513.302 1.118" clip-rule="evenodd"/></svg>