<svg xmlns="http://www.w3.org/2000/svg" width="24" height="24" fill="none" class="persona-icon" viewBox="0 0 24 24"><path fill="currentColor" fill-rule="evenodd" d="M12 2c5.158 0 9.403 3.905 9.942 8.92a.75.75 0 0 1-1.491.16 8.45 8.45 0 0 0-1.547-4.04c-.841.467-1.812.84-2.863 1.108q-.23.058-.462.11c.133.936.218 1.942.245 2.992H17a.75.75 0 0 1 0 1.5H9.677c.027.97.105 1.89.224 2.74a17 17 0 0 1 3.144-.097.75.75 0 0 1-.09 1.497 16 16 0 0 0-2.789.078q.162.726.365 1.336c.265.793.563 1.38.858 1.755.301.383.514.441.611.441q.467 0 .92-.05a.75.75 0 1 1 .16 1.492Q12.547 22 12 22C6.477 22 2 17.523 2 12S6.477 2 12 2m4.515 17.098a.75.75 0 0 1 .685-.443h4.106a.75.75 0 0 1 0 1.5h-2.433l.529.593a.75.75 0 0 1-1.12.998l-1.642-1.842a.75.75 0 0 1-.125-.806m2.65-4.858a.75.75 0 0 1 1.059.06l1.642 1.843a.75.75 0 0 1-.56 1.25H17.2a.75.75 0 0 1 0-1.5h2.433l-.529-.594a.75.75 0 0 1 .06-1.059M3.533 11.25h4.644c.027-1.05.111-2.056.245-2.992q-.3-.066-.594-.144A12 12 0 0 1 5.096 7.04a8.46 8.46 0 0 0-1.563 4.21m4.644 1.5H3.533a8.46 8.46 0 0 0 1.563 4.21c.84-.467 1.811-.84 2.863-1.108q.23-.059.463-.11a26 26 0 0 1-.245-2.992m.509 4.47q-.18.04-.357.086c-.827.21-1.576.488-2.225.817a8.5 8.5 0 0 0 3.593 2.061 9.3 9.3 0 0 1-.589-1.406q-.238-.718-.422-1.558M6.104 5.877c.617.313 1.326.58 2.108.787q.234.062.474.116.184-.841.422-1.558c.172-.513.367-.988.589-1.406a8.5 8.5 0 0 0-3.593 2.061M14.1 8.511a17.2 17.2 0 0 1-4.199 0 25 25 0 0 0-.224 2.739h4.646c-.026-.97-.104-1.89-.223-2.74M12 3.5c-.097 0-.31.059-.611.441-.295.374-.593.962-.858 1.755q-.202.609-.365 1.336a15.7 15.7 0 0 0 3.668 0 14 14 0 0 0-.365-1.335c-.265-.794-.563-1.382-.858-1.756C12.31 3.56 12.097 3.5 12 3.5m3.314 3.28q.18-.04.357-.086a11 11 0 0 0 2.225-.817 8.5 8.5 0 0 0-3.592-2.061c.22.418.417.893.588 1.406q.239.716.422 1.558" clip-rule="evenodd"/></svg>