<svg xmlns="http://www.w3.org/2000/svg" width="32" height="32" fill="none" class="persona-icon" viewBox="0 0 32 32"><path fill="currentColor" fill-rule="evenodd" d="M16.001 2c-7.732 0-14 6.268-14 14s6.268 14 14 14q.766 0 1.512-.08a1 1 0 1 0-.214-1.99q-.64.07-1.298.07c-.16 0-.473-.097-.901-.64-.42-.533-.842-1.366-1.214-2.484a19 19 0 0 1-.528-1.94 22 22 0 0 1 3.988-.118 1 1 0 1 0 .12-1.996 24.3 24.3 0 0 0-4.461.142A35 35 0 0 1 12.68 17h10.347a1 1 0 0 0 0-2h-1.706a37 37 0 0 0-.352-4.302q.351-.076.696-.164c1.492-.38 2.866-.911 4.053-1.576a11.93 11.93 0 0 1 2.213 5.743 1 1 0 1 0 1.988-.213C29.165 7.467 23.222 2 16.001 2m6.394 23.998a1 1 0 0 1 .913-.59h5.77a1 1 0 1 1 0 2H25.54l.824.923a1 1 0 0 1-1.493 1.33l-2.309-2.588a1 1 0 0 1-.166-1.075m3.71-6.81a1 1 0 0 1 1.413.082l2.308 2.589a1 1 0 0 1-.746 1.665h-5.771a1 1 0 1 1 0-2h3.54l-.824-.923a1 1 0 0 1 .08-1.412M4.043 15a11.94 11.94 0 0 1 2.24-6.041c1.138.637 2.448 1.15 3.869 1.527q.435.116.882.213A37 37 0 0 0 10.68 15zm6.638 2c.038 1.51.16 2.959.353 4.301a21 21 0 0 0-.699.165c-1.491.38-2.865.91-4.051 1.575A11.94 11.94 0 0 1 4.043 17zm.705 6.272c.174.804.376 1.554.603 2.237.256.765.55 1.468.883 2.079a12 12 0 0 1-5.248-2.997c.931-.48 2.01-.883 3.205-1.187q.276-.07.557-.133M7.623 7.409a12 12 0 0 1 5.248-2.997c-.333.61-.627 1.314-.883 2.08-.227.682-.43 1.432-.603 2.236a18 18 0 0 1-.722-.175 15 15 0 0 1-3.04-1.144m11.375 3.627c.174 1.225.287 2.56.324 3.964h-6.64c.036-1.405.148-2.738.323-3.964a24.068 24.068 0 0 0 5.993 0M16 4c.16 0 .473.097.901.64.42.533.842 1.366 1.215 2.484.195.587.372 1.237.527 1.94a22 22 0 0 1-5.286 0 19 19 0 0 1 .528-1.94c.372-1.118.794-1.95 1.214-2.483.428-.544.74-.641.901-.641m4.617 4.728a21 21 0 0 0-.604-2.237 13 13 0 0 0-.883-2.079 12 12 0 0 1 5.247 2.996c-.93.48-2.011.883-3.205 1.188q-.274.069-.555.132" clip-rule="evenodd"/></svg>