<svg xmlns="http://www.w3.org/2000/svg" width="16" height="16" fill="none" class="persona-icon" viewBox="0 0 16 16"><path fill="currentColor" fill-rule="evenodd" d="M1.714 4.143C1.714 3.512 2.226 3 2.857 3h10.286c.631 0 1.143.512 1.143 1.143v7.714c0 .631-.512 1.143-1.143 1.143H2.857a1.143 1.143 0 0 1-1.143-1.143zm2.429.786a.5.5 0 0 0 0 1h7.714a.5.5 0 1 0 0-1zm0 2.928H6.07a.5.5 0 0 0 0-1H4.143a.5.5 0 1 0 0 1m-.5 1.429a.5.5 0 0 0 .5.5H6.07a.5.5 0 0 0 0-1H4.143a.5.5 0 0 0-.5.5m5.143-1.929v3.215a.5.5 0 0 0 .5.5h2.571a.5.5 0 0 0 .5-.5V7.357a.5.5 0 0 0-.5-.5H9.286a.5.5 0 0 0-.5.5" clip-rule="evenodd"/></svg>