<svg xmlns="http://www.w3.org/2000/svg" width="20" height="20" fill="none" class="persona-icon" viewBox="0 0 20 20"><path fill="currentColor" fill-rule="evenodd" d="M2.432 5.372c0-.772.625-1.397 1.397-1.397H16.17c.772 0 1.397.625 1.397 1.397v9.257c0 .77-.625 1.396-1.397 1.396H3.83a1.396 1.396 0 0 1-1.397-1.396zm2.314 1.542c0 .346.28.625.625.625h9.258a.625.625 0 1 0 0-1.25H5.37a.625.625 0 0 0-.625.625m0 2.315c0 .345.28.625.625.625h2.315a.625.625 0 1 0 0-1.25H5.37a.625.625 0 0 0-.625.625m.625 2.94h2.315a.625.625 0 1 0 0-1.25H5.37a.625.625 0 0 0 0 1.25m6.172-3.565a.625.625 0 0 0-.625.625v3.857c0 .345.28.625.625.625h3.085c.346 0 .625-.28.625-.625V9.229a.625.625 0 0 0-.625-.625z" clip-rule="evenodd"/></svg>