<svg xmlns="http://www.w3.org/2000/svg" width="32" height="32" fill="none" class="persona-icon" viewBox="0 0 32 32"><path fill="currentColor" fill-rule="evenodd" d="M3.429 8.286A2.286 2.286 0 0 1 5.714 6h20.572a2.286 2.286 0 0 1 2.285 2.286v15.428A2.286 2.286 0 0 1 26.286 26H5.714a2.286 2.286 0 0 1-2.286-2.286zm4.857 1.571a1 1 0 0 0 0 2h15.428a1 1 0 1 0 0-2zm0 5.857h3.857a1 1 0 1 0 0-2H8.286a1 1 0 0 0 0 2m-1 2.857a1 1 0 0 0 1 1h3.857a1 1 0 1 0 0-2H8.286a1 1 0 0 0-1 1m10.285-3.857v6.429a1 1 0 0 0 1 1h5.143a1 1 0 0 0 1-1v-6.429a1 1 0 0 0-1-1h-5.143a1 1 0 0 0-1 1" clip-rule="evenodd"/></svg>