<svg xmlns="http://www.w3.org/2000/svg" width="16" height="16" fill="none" class="persona-icon" viewBox="0 0 16 16"><path fill="currentColor" fill-rule="evenodd" d="M5.44 1.637a.5.5 0 0 1 .707 0l3.585 3.585a.5.5 0 0 1 .14.438l-.328 1.91 3.366 3.365a1.396 1.396 0 1 1-1.975 1.975L7.57 9.544 5.66 9.87a.5.5 0 0 1-.438-.14L1.637 6.148a.5.5 0 0 1 0-.707l1.266-1.267h.001l.002-.002zM3.258 5.233l-.56.56 2.28 2.28 3.096-3.095-2.28-2.28-.561.56.914.914a.5.5 0 0 1-.707.707l-.914-.914-.56.56.913.915a.5.5 0 1 1-.707.707zm2.489 3.609 1.908-.328a.5.5 0 0 1 .438.14l3.55 3.549a.396.396 0 0 0 .56-.56l-3.55-3.55a.5.5 0 0 1-.138-.438l.327-1.909-.06-.06L5.685 8.78z" clip-rule="evenodd"/></svg>