<svg xmlns="http://www.w3.org/2000/svg" width="16" height="16" fill="none"><path fill="#000" fill-rule="evenodd" d="M6.496 2.146a.5.5 0 0 0-.707 0L4.578 3.357l-.003.003-.004.004-2.425 2.425a.5.5 0 0 0 0 .707l3.03 3.03.005.005.607.607a.5.5 0 0 0 .354.146h1.614l3.192 3.192a1.788 1.788 0 0 0 2.528-2.528l-3.192-3.192V6.142a.5.5 0 0 0-.146-.353l-.602-.603-.005-.004-3.035-3.036ZM4.928 4.421l-.507.507.86.86a.5.5 0 1 1-.706.708l-.861-.86-.507.506L5.535 8.47 8.47 5.535 6.142 3.207l-.507.507.86.86a.5.5 0 1 1-.706.708l-.86-.86Zm6.727 8.348L8.33 9.443a.5.5 0 0 0-.383-.159H6.349l-.107-.107 2.935-2.935.107.107v1.614a.5.5 0 0 0 .157.364l3.328 3.328a.788.788 0 0 1-1.114 1.114Z" clip-rule="evenodd"/></svg>