<svg xmlns="http://www.w3.org/2000/svg" width="24" height="24" fill="none" class="persona-icon" viewBox="0 0 24 24"><path fill="currentColor" fill-rule="evenodd" d="M8.338 2.225c.3-.3.787-.3 1.088 0l6.112 6.113a.77.77 0 0 1 .225.544v2.738l5.379 5.377a2.93 2.93 0 0 1-4.144 4.145l-5.379-5.378H8.882a.77.77 0 0 1-.544-.225L2.224 9.425a.77.77 0 0 1 0-1.088l2.038-2.037V6.3L6.3 4.263l2.038-2.038Zm-1.494 3.67-.95.95 1.494 1.493A.77.77 0 1 1 6.3 9.426L4.807 7.932l-.95.95 4.006 4.006 5.025-5.025-4.006-4.006-.95.95L9.426 6.3a.77.77 0 0 1-1.088 1.088L6.844 5.895Zm2.107 8.08 5.025-5.024.249.25v2.737c0 .204.081.4.225.544l5.604 5.603a1.392 1.392 0 0 1-1.969 1.969l-5.603-5.603a.77.77 0 0 0-.544-.226H9.2l-.25-.25Z" clip-rule="evenodd"/></svg>