<svg xmlns="http://www.w3.org/2000/svg" width="32" height="32" fill="none" class="persona-icon" viewBox="0 0 32 32"><path fill="currentColor" fill-rule="evenodd" d="M10.88 3.274a1 1 0 0 1 1.414 0l5.976 5.975 1.195 1.195a1 1 0 0 1 .278.876l-.655 3.818 6.732 6.733a2.793 2.793 0 0 1-3.95 3.95l-6.732-6.733-3.817.654a1 1 0 0 1-.876-.278l-7.171-7.17a1 1 0 0 1 0-1.415l5.053-5.052.035-.036zM9.052 7.93 7.93 9.052 9.76 10.88a1 1 0 1 1-1.415 1.414l-1.828-1.828-1.12 1.12 4.561 4.561 6.191-6.191-4.561-4.561-1.121 1.121 1.828 1.828a1 1 0 0 1-1.415 1.414zm2.441 9.754 3.817-.655a1 1 0 0 1 .877.279l7.098 7.098a.793.793 0 1 0 1.121-1.121l-7.098-7.099a1 1 0 0 1-.279-.876l.655-3.818-.122-.122-6.191 6.192z" clip-rule="evenodd"/></svg>