<svg xmlns="http://www.w3.org/2000/svg" width="32" height="32" fill="none"><path fill="#000" d="M16.99 19.611c0-.552-.443-1-.99-1a.995.995 0 0 0-.99 1V22.5c0 .552.443 1 .99 1 .547 0 .99-.448.99-1v-2.889Z"/><path fill="#000" fill-rule="evenodd" d="M13.432 2.516a6.652 6.652 0 0 1 5.136 0c.814.34 1.554.84 2.177 1.47a6.782 6.782 0 0 1 1.454 2.198c.337.822.511 1.704.511 2.594v3.427c2.443.468 4.29 2.636 4.29 5.24v7.222C27 27.612 24.636 30 21.72 30H10.28C7.364 30 5 27.612 5 24.667v-7.223c0-2.603 1.847-4.771 4.29-5.24V8.779c0-.89.174-1.772.51-2.594a6.783 6.783 0 0 1 1.455-2.199 6.706 6.706 0 0 1 2.177-1.47Zm8.301 11.595H10.267c-1.817.007-3.287 1.497-3.287 3.333v7.223c0 1.84 1.477 3.333 3.3 3.333h11.44c1.823 0 3.3-1.492 3.3-3.333v-7.223c0-1.836-1.47-3.326-3.287-3.333ZM20.73 8.778v3.333h-9.46V8.778a4.818 4.818 0 0 1 1.385-3.379c.44-.443.961-.795 1.535-1.035a4.689 4.689 0 0 1 5.155 1.035 4.82 4.82 0 0 1 1.385 3.378Z" clip-rule="evenodd"/></svg>