<svg xmlns="http://www.w3.org/2000/svg" width="24" height="24" fill="none" class="persona-icon" viewBox="0 0 24 24"><path fill="currentColor" fill-rule="evenodd" d="M12 21.75c-5.385 0-9.75-4.365-9.75-9.75S6.615 2.25 12 2.25s9.75 4.365 9.75 9.75-4.365 9.75-9.75 9.75ZM3.75 12a8.25 8.25 0 1 0 16.5 0 8.25 8.25 0 0 0-16.5 0Z" clip-rule="evenodd"/><path fill="currentColor" fill-rule="evenodd" d="M12 7a.79.79 0 0 1 .79.79v3.42h3.42a.79.79 0 0 1 0 1.58h-3.42v3.42a.79.79 0 0 1-1.58 0v-3.42H7.79a.79.79 0 0 1 0-1.58h3.42V7.79A.79.79 0 0 1 12 7Z" clip-rule="evenodd"/></svg>