<svg xmlns="http://www.w3.org/2000/svg" width="32" height="32" fill="none" class="persona-icon" viewBox="0 0 32 32"><path fill="currentColor" d="M16 29C8.82 29 3 23.18 3 16S8.82 3 16 3s13 5.82 13 13-5.82 13-13 13ZM5 16c0 6.075 4.925 11 11 11s11-4.925 11-11S22.075 5 16 5 5 9.925 5 16Z"/><path fill="currentColor" d="M16 9.5c.567 0 1.026.46 1.026 1.026v4.448h4.448a1.026 1.026 0 0 1 0 2.052h-4.448v4.448a1.026 1.026 0 0 1-2.052 0v-4.448h-4.448a1.026 1.026 0 0 1 0-2.052h4.448v-4.448c0-.566.46-1.026 1.026-1.026Z"/></svg>