<svg xmlns="http://www.w3.org/2000/svg" width="32" height="32" fill="none"><path fill="#000" fill-rule="evenodd" d="M2 9.99C2 6.958 4.502 4.5 7.588 4.5h14.967c3.086 0 5.588 2.458 5.588 5.49V22.77l1.744 3.293c.161.305.15.67-.032.963A1.004 1.004 0 0 1 29 27.5H7.588C4.502 27.5 2 25.042 2 22.01V9.99Zm5.588-3.525C5.607 6.465 4 8.043 4 9.99v12.02c0 1.947 1.607 3.525 3.588 3.525h19.764l-1.21-2.283V9.99c0-1.947-1.606-3.525-3.587-3.525H7.588Z" clip-rule="evenodd"/><path fill="#000" fill-rule="evenodd" d="M9.647 12.995a.991.991 0 0 1 1-.982h9.176c.553 0 1 .44 1 .982a.991.991 0 0 1-1 .982h-9.176c-.552 0-1-.44-1-.982Zm0 6.01a.991.991 0 0 1 1-.982h5.735c.553 0 1 .44 1 .982a.991.991 0 0 1-1 .982h-5.735c-.552 0-1-.44-1-.982Z" clip-rule="evenodd"/></svg>