<svg xmlns="http://www.w3.org/2000/svg" width="16" height="16" fill="none" class="persona-icon" viewBox="0 0 16 16"><path fill="currentColor" fill-rule="evenodd" d="M7.804 1.04a.5.5 0 0 1 .392 0l5.094 2.167a.5.5 0 0 1 .305.46v5.777c0 1.692-1.263 3.086-2.471 4.009-.62.473-1.263.852-1.803 1.113-.27.131-.518.235-.73.308-.196.067-.411.126-.59.126-.18 0-.396-.059-.591-.126a7 7 0 0 1-.731-.308c-.54-.261-1.182-.64-1.803-1.113-1.208-.923-2.47-2.317-2.47-4.009V3.667a.5.5 0 0 1 .304-.46zm1.994 8.758a.5.5 0 0 0 0-.707L8.708 8l1.09-1.09a.5.5 0 1 0-.707-.708l-1.09 1.09-1.092-1.09a.5.5 0 1 0-.707.707L7.293 8l-1.09 1.09a.5.5 0 0 0 .706.708L8 8.708l1.091 1.09a.5.5 0 0 0 .707 0" clip-rule="evenodd"/></svg>