<svg xmlns="http://www.w3.org/2000/svg" width="20" height="20" fill="none" class="persona-icon" viewBox="0 0 20 20"><path fill="currentColor" fill-rule="evenodd" d="M9.764 2.049a.6.6 0 0 1 .472 0l5.756 2.466a.6.6 0 0 1 .364.552v6.577c0 1.94-1.436 3.535-2.804 4.587-.702.54-1.431.972-2.042 1.271-.306.15-.589.27-.83.353-.221.076-.47.145-.68.145s-.459-.069-.68-.145a8 8 0 0 1-.83-.353 12.3 12.3 0 0 1-2.042-1.27c-1.368-1.053-2.804-2.648-2.804-4.588V5.067a.6.6 0 0 1 .364-.552zm2.305 10.02a.6.6 0 0 0 0-.849L10.849 10l1.22-1.22a.6.6 0 1 0-.849-.849L10 9.151l-1.22-1.22a.6.6 0 0 0-.849.849L9.151 10l-1.22 1.22a.6.6 0 0 0 .849.849l1.22-1.22 1.22 1.22a.6.6 0 0 0 .849 0" clip-rule="evenodd"/></svg>