<svg xmlns="http://www.w3.org/2000/svg" width="20" height="20" fill="none" class="persona-icon" viewBox="0 0 20 20"><path fill="currentColor" d="m9.284 4.77.045-.014a2.33 2.33 0 0 1 1.391.014c.148-.377.41-.674.761-.882.513-.304 1.16-.388 1.767-.388s1.254.084 1.767.388c.563.335.898.897.898 1.659 0 1.46-1.204 2.625-2.665 2.625-1.278 0-2.36-.89-2.61-2.092a.5.5 0 0 0-.069-.059.8.8 0 0 0-.242-.117 1.13 1.13 0 0 0-.65 0 .8.8 0 0 0-.242.117.5.5 0 0 0-.069.06c-.25 1.2-1.332 2.091-2.61 2.091-1.46 0-2.665-1.164-2.665-2.625 0-.762.334-1.324.898-1.66.513-.303 1.16-.387 1.767-.387s1.254.084 1.767.388c.35.208.613.505.76.882"/><path fill="currentColor" fill-rule="evenodd" d="M14.245 14.844c-1.115 1.008-2.83 1.656-4.243 1.656s-3.127-.648-4.241-1.655c-.88-.149-1.533-.55-1.984-1.123-.471-.6-.682-1.335-.763-2.038-.096-.836.312-1.521.908-1.922A2.57 2.57 0 0 1 6.03 9.44l.083.023c.886-.012 1.352-.214 1.809-.43l.09-.042c.495-.235 1.055-.5 1.99-.5.98 0 1.541.27 2.04.51l.071.035c.448.214.894.415 1.775.427l.083-.023a2.57 2.57 0 0 1 2.107.322c.597.4 1.005 1.086.909 1.922-.081.703-.292 1.439-.763 2.038-.45.572-1.102.973-1.98 1.122m-8.811-1.33v-2.966a1.35 1.35 0 0 0-.842.21c-.278.187-.423.46-.386.789.067.577.23 1.071.514 1.433.17.215.397.403.714.534m2.455-1.224c.296-.111.52-.218.717-.312.431-.205.738-.352 1.396-.352.698 0 1.01.151 1.445.361.19.092.403.195.681.301a.6.6 0 1 0 .429-1.12c-.139-.053-.282-.123-.437-.197-.502-.243-1.126-.545-2.118-.545-.946 0-1.572.298-2.08.539-.161.076-.31.147-.454.201a.6.6 0 1 0 .42 1.124m6.681-1.742v2.965c.315-.131.542-.319.71-.533.285-.362.448-.856.514-1.433.038-.33-.107-.602-.385-.79a1.34 1.34 0 0 0-.839-.21" clip-rule="evenodd"/></svg>