<svg xmlns="http://www.w3.org/2000/svg" width="24" height="24" fill="none" class="persona-icon" viewBox="0 0 24 24"><path fill="currentColor" d="m11.065 5.173.073-.024a2.933 2.933 0 0 1 1.8.023c.186-.498.522-.89.977-1.165.657-.397 1.488-.507 2.271-.507s1.614.11 2.27.507c.72.436 1.143 1.163 1.143 2.143a3.413 3.413 0 0 1-6.758.678.7.7 0 0 0-.1-.09 1 1 0 0 0-.317-.156 1.44 1.44 0 0 0-.843 0 1 1 0 0 0-.318.157.7.7 0 0 0-.1.09 3.413 3.413 0 0 1-6.758-.679c0-.98.422-1.707 1.142-2.143.657-.397 1.488-.507 2.27-.507.784 0 1.615.11 2.272.507.455.276.79.667.976 1.166"/><path fill="currentColor" fill-rule="evenodd" d="M17.465 18.326c-1.432 1.32-3.64 2.174-5.463 2.174s-4.03-.853-5.462-2.173c-1.133-.195-1.971-.72-2.548-1.467-.602-.78-.87-1.737-.974-2.654-.122-1.074.391-1.96 1.155-2.484.75-.513 1.751-.69 2.706-.42l.11.03c1.144-.015 1.745-.28 2.337-.564l.116-.056c.637-.308 1.358-.657 2.56-.657 1.26 0 1.982.355 2.624.67l.092.045c.579.283 1.156.547 2.294.562l.108-.03c.956-.27 1.958-.093 2.707.42.764.523 1.277 1.41 1.155 2.484-.103.917-.372 1.875-.974 2.654-.575.745-1.412 1.27-2.543 1.466M6.137 16.665v-3.982a1.72 1.72 0 0 0-1.117.277c-.364.25-.563.622-.512 1.078.086.764.298 1.422.671 1.905.228.294.533.548.958.722m3.137-1.848c.38-.145.668-.285.922-.409.557-.27.956-.464 1.806-.464.902 0 1.308.2 1.869.476.244.12.518.256.876.395a.75.75 0 1 0 .544-1.398 7 7 0 0 1-.527-.241l-.038-.019c-.647-.318-1.448-.713-2.724-.713-1.217 0-2.02.39-2.674.706-.209.1-.402.194-.589.265a.75.75 0 0 0 .535 1.402m8.594-2.134v3.98a2.26 2.26 0 0 0 .953-.72c.372-.483.584-1.14.67-1.905.052-.456-.147-.829-.511-1.078a1.72 1.72 0 0 0-1.112-.277" clip-rule="evenodd"/></svg>