<svg xmlns="http://www.w3.org/2000/svg" width="32" height="32" fill="none" class="persona-icon" viewBox="0 0 32 32"><path fill="currentColor" d="M17.252 7.23a3.02 3.02 0 0 1 1.302-1.553C19.43 5.147 20.538 5 21.582 5s2.152.147 3.028.677c.96.58 1.522 1.55 1.522 2.857a4.55 4.55 0 0 1-9.01.905 1 1 0 0 0-.133-.12 1.4 1.4 0 0 0-.424-.21 2 2 0 0 0-.562-.082c-.197 0-.389.03-.562.083a1.4 1.4 0 0 0-.424.208 1 1 0 0 0-.134.123 4.55 4.55 0 0 1-9.01-.907c0-1.308.563-2.277 1.523-2.857C8.27 5.147 9.379 5 10.423 5s2.152.147 3.028.677c.607.367 1.055.889 1.302 1.554l.098-.032a4 4 0 0 1 1.152-.172 3.9 3.9 0 0 1 1.249.203"/><path fill="currentColor" fill-rule="evenodd" d="M23.286 24.102C21.376 25.862 18.432 27 16.002 27s-5.373-1.137-7.282-2.897c-1.512-.26-2.63-.961-3.398-1.957-.801-1.039-1.16-2.315-1.299-3.538-.161-1.432.523-2.614 1.54-3.312 1-.684 2.336-.92 3.61-.56l.144.04c1.527-.02 2.328-.374 3.116-.752l.156-.075c.849-.41 1.81-.876 3.413-.876 1.68 0 2.643.473 3.498.893l.124.06c.771.378 1.54.73 3.059.75l.145-.04c1.273-.36 2.609-.124 3.608.56 1.018.698 1.702 1.88 1.54 3.312-.138 1.223-.497 2.5-1.298 3.538-.768.995-1.884 1.695-3.392 1.956M8.182 21.887v-5.31a2.3 2.3 0 0 0-1.488.37c-.486.332-.752.83-.683 1.437.115 1.02.397 1.896.894 2.54.303.392.71.73 1.277.963m5.413-3.009c.743-.36 1.274-.619 2.408-.619 1.203 0 1.744.267 2.492.635.326.16.69.34 1.167.526a1 1 0 1 0 .727-1.863 10 10 0 0 1-.754-.347c-.863-.425-1.931-.95-3.632-.95-1.623 0-2.694.518-3.566.94-.278.134-.536.26-.784.354a1 1 0 0 0 .713 1.869c.506-.193.89-.38 1.23-.545m10.228-2.3v5.307c.564-.232.97-.57 1.271-.96.497-.645.78-1.522.895-2.541.069-.608-.197-1.105-.683-1.437a2.3 2.3 0 0 0-1.483-.37" clip-rule="evenodd"/></svg>