<svg xmlns="http://www.w3.org/2000/svg" width="16" height="16" fill="none" class="persona-icon" viewBox="0 0 16 16"><path fill="currentColor" fill-rule="evenodd" d="M6.961 2h.718c.338 0 .662.134.901.373l1.991 1.991c.24.24.373.563.373.901v1.879c0 .917-.743 1.661-1.66 1.661H8.5v1.824c.55.167.982.6 1.149 1.149h3.185a.5.5 0 0 1 0 1H9.649a1.723 1.723 0 0 1-3.297 0H3.166a.5.5 0 1 1 0-1h3.185c.166-.55.599-.982 1.148-1.149V8.805h-.539a1.66 1.66 0 0 1-1.66-1.661V3.661C5.3 2.744 6.043 2 6.96 2m1.04 9.556a.72.72 0 0 0-.717.63.5.5 0 0 1 0 .183.722.722 0 0 0 1.433 0 .5.5 0 0 1 0-.182.72.72 0 0 0-.717-.631m2.332-7.09L8.5 2.667v1.467c0 .184.15.334.333.334z" clip-rule="evenodd"/></svg>