<svg xmlns="http://www.w3.org/2000/svg" width="20" height="20" fill="none" class="persona-icon" viewBox="0 0 20 20"><path fill="currentColor" fill-rule="evenodd" d="M8.781 2.938h.843c.397 0 .777.157 1.058.438l2.337 2.337c.28.28.438.66.438 1.057v2.206a1.95 1.95 0 0 1-1.95 1.95h-.88v2.113a2.07 2.07 0 0 1 1.338 1.338h3.71a.625.625 0 1 1 0 1.25h-3.709a2.06 2.06 0 0 1-3.927 0H4.326a.625.625 0 1 1 0-1.25H8.04a2.06 2.06 0 0 1 1.337-1.337v-2.114H8.78a1.95 1.95 0 0 1-1.95-1.95V4.887a1.95 1.95 0 0 1 1.95-1.95m1.222 11.255a.81.81 0 0 0-.804.71.6.6 0 0 1 0 .198.81.81 0 0 0 1.605.015.6.6 0 0 1 0-.228.81.81 0 0 0-.801-.695m2.738-8.36L10.589 3.72v1.722c0 .216.175.391.39.391z" clip-rule="evenodd"/></svg>