<svg xmlns="http://www.w3.org/2000/svg" width="20" height="20" fill="none" class="persona-icon" viewBox="0 0 20 20"><path fill="currentColor" fill-rule="evenodd" d="M8.781 2.938a1.95 1.95 0 0 0-1.95 1.95v4.088a1.95 1.95 0 0 0 1.95 1.95h.595v2.114a2.06 2.06 0 0 0-1.336 1.337H4.326a.625.625 0 1 0 0 1.25H8.04a2.06 2.06 0 0 0 3.927 0h3.708a.625.625 0 1 0 0-1.25h-3.709a2.07 2.07 0 0 0-1.338-1.338v-2.113h.88a1.95 1.95 0 0 0 1.95-1.95V6.77c0-.396-.158-.777-.438-1.057l-2.337-2.337c-.28-.28-.661-.438-1.058-.438zm1.222 11.255a.81.81 0 0 1 .801.695.6.6 0 0 0 0 .228.81.81 0 0 1-1.605-.015.6.6 0 0 0 0-.198c.049-.4.39-.71.804-.71m2.738-8.36H10.98a.39.39 0 0 1-.392-.391V3.72z" clip-rule="evenodd"/></svg>