<svg xmlns="http://www.w3.org/2000/svg" width="24" height="24" fill="none" class="persona-icon" viewBox="0 0 24 24"><path fill="currentColor" fill-rule="evenodd" d="M10.442 3h1.077c.507 0 .993.201 1.351.56l2.987 2.986c.358.359.56.845.56 1.352v2.818a2.49 2.49 0 0 1-2.492 2.492H12.75v2.736c.823.25 1.473.9 1.723 1.723h4.777a.75.75 0 0 1 0 1.5h-4.777a2.584 2.584 0 0 1-4.946 0H4.75a.75.75 0 0 1 0-1.5h4.777c.25-.824.9-1.474 1.723-1.723v-2.736h-.808a2.49 2.49 0 0 1-2.492-2.492V5.492A2.49 2.49 0 0 1 10.442 3M15.5 6.7 12.75 4v2.2a.5.5 0 0 0 .5.5zM12 17.333c-.552 0-1.008.413-1.075.947a.8.8 0 0 1 0 .273 1.084 1.084 0 0 0 2.15 0 .8.8 0 0 1 0-.272A1.083 1.083 0 0 0 12 17.333" clip-rule="evenodd"/></svg>