<svg xmlns="http://www.w3.org/2000/svg" width="32" height="32" fill="none" class="persona-icon" viewBox="0 0 32 32"><path fill="currentColor" fill-rule="evenodd" d="M13.923 4h1.436c.676 0 1.324.269 1.802.746l3.981 3.982c.478.478.747 1.126.747 1.802v3.758a3.32 3.32 0 0 1-3.322 3.322H17v3.649a3.45 3.45 0 0 1 2.297 2.296h6.37a1 1 0 0 1 0 2h-6.37a3.446 3.446 0 0 1-6.594 0h-6.37a1 1 0 1 1 0-2h6.37A3.45 3.45 0 0 1 15 21.26V17.61h-1.077a3.32 3.32 0 0 1-3.322-3.322V7.322A3.32 3.32 0 0 1 13.923 4M16 23.111c-.736 0-1.344.55-1.433 1.263a1 1 0 0 1 0 .363 1.445 1.445 0 0 0 2.866 0 1 1 0 0 1 0-.362A1.445 1.445 0 0 0 16 23.11m4.667-14.178L17 5.333v2.934c0 .368.299.666.667.666z" clip-rule="evenodd"/></svg>