<svg xmlns="http://www.w3.org/2000/svg" width="32" height="32" fill="none" class="persona-icon" viewBox="0 0 32 32"><path fill="currentColor" fill-rule="evenodd" d="M13.923 4A3.32 3.32 0 0 0 10.6 7.322v6.966a3.32 3.32 0 0 0 3.322 3.322H15v3.649a3.45 3.45 0 0 0-2.297 2.296h-6.37a1 1 0 0 0 0 2h6.37a3.446 3.446 0 0 0 6.594 0h6.37a1 1 0 1 0 0-2h-6.37A3.45 3.45 0 0 0 17 21.26V17.61h1.567a3.32 3.32 0 0 0 3.322-3.322V10.53c0-.676-.269-1.324-.747-1.802l-3.981-3.982A2.55 2.55 0 0 0 15.359 4zM16 23.111c.737 0 1.344.551 1.433 1.264a1 1 0 0 0 0 .361 1.445 1.445 0 0 1-2.866.001 1 1 0 0 0 0-.363A1.445 1.445 0 0 1 16 23.11m4.667-14.178h-3A.667.667 0 0 1 17 8.267V5.333z" clip-rule="evenodd"/></svg>