<svg xmlns="http://www.w3.org/2000/svg" width="32" height="32" fill="none"><path fill="#000" fill-rule="evenodd" d="M10.48 3.638c.134-.38.514-.638.942-.638H22.69c.318 0 .616.142.803.382.187.24.24.55.142.832L20.76 12.53h4.747c.388 0 .74.211.902.54a.881.881 0 0 1-.148.993l-13.38 14.612a1.04 1.04 0 0 1-1.186.232c-.406-.183-.629-.6-.543-1.013l1.883-9.06H6.493c-.319 0-.618-.142-.805-.384a.88.88 0 0 1-.138-.835l4.93-13.977Zm1.66 1.22-4.275 12.12h6.374c.297 0 .578.123.766.337a.885.885 0 0 1 .209.768l-1.396 6.714 9.532-10.41h-3.955c-.317 0-.615-.142-.802-.382a.88.88 0 0 1-.142-.832l2.875-8.316H12.14Z" clip-rule="evenodd"/></svg>