<svg xmlns="http://www.w3.org/2000/svg" width="32" height="32" fill="none"><path fill="#000" fill-rule="evenodd" d="M21.502 17.002a5 5 0 1 0 0 10 5 5 0 0 0 0-10Zm-7 5a7 7 0 1 1 14 0 7 7 0 0 1-14 0Z" clip-rule="evenodd"/><path fill="#000" fill-rule="evenodd" d="M21.502 18.603a1 1 0 0 1 1 1v1.986l1.507 1.507a1 1 0 0 1-1.414 1.414l-2.093-2.093v-2.814a1 1 0 0 1 1-1Z" clip-rule="evenodd"/><path fill="#000" fill-rule="evenodd" d="M7.535 8.002c0-1.657 1.364-3 3.048-3h5.758v4.334c0 2.025 1.668 3.666 3.726 3.666h5.419c.405 0 .77-.236.932-.601a.988.988 0 0 0-.189-1.081l-6.784-7.153a3.754 3.754 0 0 0-2.724-1.165h-6.138c-2.806 0-5.08 2.239-5.08 5v16c0 2.762 2.274 5 5.08 5h2.71c.56 0 1.016-.447 1.016-1 0-.552-.455-1-1.016-1h-2.71c-1.684 0-3.048-1.343-3.048-3v-16Zm15.498 3h-2.966c-.936 0-1.694-.746-1.694-1.666v-2.92l4.66 4.586Z" clip-rule="evenodd"/></svg>