<svg xmlns="http://www.w3.org/2000/svg" width="40" height="40" fill="none" class="persona-ilustration" viewBox="0 0 40 40"><g clip-path="url(#BwuN8huM5dCXRRBnXYvpvlmHmOSuP-j_8jtOioj6jTg_a)"><g clip-path="url(#BwuN8huM5dCXRRBnXYvpvlmHmOSuP-j_8jtOioj6jTg_b)"><rect width="33.333" height="33.333" x="3.333" y="3.333" fill="#D3EDFF" rx="16.667"/><path fill="#AADBFF" d="m90.867 29.29-96.46 26.852-24.483-37.37 97.323-9.055z"/><path fill="#EFEFEF" d="M36.732 35.854c5.243-5.93 12.4 3.393 7.915 11.325-2.898 5.126-12.425 25.072-18.31 23.439-3.31-.92-3.35-4.35-2.899-5.871 2.44-8.693 9.1-24.15 13.294-28.893"/><path fill="#F1AA90" d="M17.547 36.259c-3.053-2.13-5.831.015-5.842 1.08l4.384 18.53c1.3 4.207 1.949 6.975 4.601 7.341 3.986.55 7.293-4.294 7.574-6.598-2.046-7.758-10.311-19.206-10.717-20.353"/><path fill="#EFEFEF" d="M18.779 37.806c-2.604-1.74-6.438 1.136-6.448 2.2l3.757 15.868c1.3 4.206 1.95 6.975 4.602 7.34 3.986.551 7.293-4.293 7.574-6.598-2.046-7.757-9.08-17.663-9.485-18.81"/><path fill="#F1AA90" d="m13.018 23.447-1.087 2.033 1.098 1.324 1.424-1.296c1.029.351 3.155.959 3.434.577s.106-.62-.016-.693z"/><mask id="BwuN8huM5dCXRRBnXYvpvlmHmOSuP-j_8jtOioj6jTg_c" width="8" height="5" x="11" y="21" maskUnits="userSpaceOnUse" style="mask-type:alpha"><path fill="#FFC7B6" d="m17.587 23.287-3.215-1.999c-1.306-.478-2.078.35-2.3.823L11.1 24.33l1.189 1.426.88-1.945c.486.027 1.645.137 2.396.356.938.275 1.795.64 2.315.21.416-.343-.022-.87-.293-1.09"/></mask><g mask="url(#BwuN8huM5dCXRRBnXYvpvlmHmOSuP-j_8jtOioj6jTg_c)"><path fill="#F1AA90" d="m17.587 23.287-3.215-1.998c-1.306-.479-2.078.348-2.3.822L11.1 24.33l1.189 1.426.88-1.945c.486.027 1.645.137 2.395.356.939.275 1.796.64 2.316.21.416-.343-.022-.87-.293-1.09"/><path fill="#000" d="m18.73 23.792-3.213-1.998c-1.307-.478-2.078.35-2.3.823l-.973 2.219 1.19 1.426.88-1.945c.485.027 1.644.136 2.395.356.938.275 1.796.64 2.315.21.416-.343-.022-.87-.293-1.09" opacity=".5" style="mix-blend-mode:overlay"/></g><mask id="BwuN8huM5dCXRRBnXYvpvlmHmOSuP-j_8jtOioj6jTg_d" width="9" height="6" x="9" y="19" maskUnits="userSpaceOnUse" style="mask-type:alpha"><path fill="#FFC7B6" d="m10.577 20.926-1.462 2.787 2.47.993.775-2.147c.123-.111.782-.42 2.428-.77 2.057-.436 2.402-.942 2.4-1.5 0-.445-.528-.568-.792-.574-1.116.127-3.58.41-4.502.529-.923.12-1.262.504-1.317.682"/></mask><g mask="url(#BwuN8huM5dCXRRBnXYvpvlmHmOSuP-j_8jtOioj6jTg_d)"><path fill="#F1AA90" d="m10.576 20.926-1.462 2.787 2.47.993.775-2.147c.123-.111.782-.42 2.428-.77 2.057-.437 2.402-.942 2.401-1.5-.001-.446-.529-.568-.793-.574-1.116.127-3.579.41-4.502.529s-1.262.504-1.317.681"/><path fill="#000" fill-opacity=".5" d="m12.31 21.869-1.462 2.787 2.47.993.775-2.147c.123-.111.781-.42 2.427-.77 2.058-.436 2.403-.942 2.402-1.5-.002-.445-.53-.568-.793-.574-1.116.127-3.58.41-4.502.529-.923.12-1.263.504-1.317.682" style="mix-blend-mode:overlay"/></g><path fill="#F1AA90" d="M8.055 28.967c1.024 1.253 2.837 6.039 3.616 8.275l2.802-1.116-.221-9.227c-.647-.543-2.055-1.797-2.519-2.462s-1.911-.815-2.577-.806l-.672 1.068c-.57.9-1.453 3.015-.429 4.268"/><path fill="#000" d="M13.312 27.613c-.206-.567-1.504-2.653-2.122-3.6.216.103.377.214.503.36 1.062.767 1.565 1.92 1.764 2.266.12.656.062 1.54-.145.974" opacity=".5" style="mix-blend-mode:overlay"/></g><path fill="#F8F8F8" d="M25.405 1.157 7.24 5.177c1.921 7.5 5.095 19.037 7.556 24.292 2.393-.42 10.36-2.474 16.71-4.982-1.288-4.06-4.37-16.348-6.101-23.33"/><path fill="#3F568E" fill-rule="evenodd" d="M24.278 5.087a.453.453 0 0 1-.341.542l-6.268 1.425a.453.453 0 0 1-.2-.883l6.267-1.426a.453.453 0 0 1 .542.342M22.509 7.509a.453.453 0 0 1-.343.54l-3.835.861a.453.453 0 1 1-.198-.884l3.835-.86a.453.453 0 0 1 .54.343M24.448 11.19a.32.32 0 0 1 .384.218l1.287 4.224a.32.32 0 0 1-.228.403l-10.962 2.751a.32.32 0 0 1-.38-.206l-1.439-4.176a.32.32 0 0 1 .225-.415zm-10.62 3.335 1.23 3.57 10.35-2.598-1.099-3.611zM26.243 17.328a.32.32 0 0 1 .385.217l1.286 4.224a.32.32 0 0 1-.228.403l-10.962 2.751a.32.32 0 0 1-.38-.206l-1.439-4.176a.32.32 0 0 1 .225-.415zm-10.62 3.334 1.23 3.57 10.35-2.598-1.099-3.611z" clip-rule="evenodd"/><mask id="BwuN8huM5dCXRRBnXYvpvlmHmOSuP-j_8jtOioj6jTg_e" width="7" height="6" x="10" y="6" maskUnits="userSpaceOnUse" style="mask-type:alpha"><path fill="#39B54A" d="M14.055 11.637a2.762 2.762 0 1 0-.746-5.475 2.762 2.762 0 0 0 .746 5.475"/></mask><g mask="url(#BwuN8huM5dCXRRBnXYvpvlmHmOSuP-j_8jtOioj6jTg_e)"><path fill="#8FC7B8" d="M14.055 11.637a2.763 2.763 0 1 0-.747-5.475 2.763 2.763 0 0 0 .747 5.475"/><path fill="#F8F8F8" d="M13.522 9.166a1.153 1.153 0 1 0-.311-2.285 1.153 1.153 0 0 0 .311 2.285M14.785 14.077a2.274 2.274 0 1 0-.615-4.507 2.274 2.274 0 0 0 .615 4.507"/></g><path fill="#F1AA90" d="M17.979 29.248c.889 1.513.056 5.485-.472 7.282-1.838-1.398-3.245-.796-3.835-1.489l-.762-6.548a11 11 0 0 0 .762-2.379c.243-1.29-.095-3.124.055-4.989.12-1.491.91-1.835 1.291-1.821.382.006 1.161.489 1.227 2.375.082 2.358.623 5.677 1.734 7.569"/></g><defs><clipPath id="BwuN8huM5dCXRRBnXYvpvlmHmOSuP-j_8jtOioj6jTg_a"><path fill="#fff" d="M0 0h40v40H0z"/></clipPath><clipPath id="BwuN8huM5dCXRRBnXYvpvlmHmOSuP-j_8jtOioj6jTg_b"><rect width="33.333" height="33.333" x="3.333" y="3.333" fill="#fff" rx="16.667"/></clipPath></defs></svg>