<svg xmlns="http://www.w3.org/2000/svg" width="240" height="240" fill="none" class="persona-ilustration" viewBox="0 0 240 240"><g clip-path="url(#c7_a)"><g clip-path="url(#c8_b)"><rect width="200" height="200" x="20" y="20" fill="#D3EDFF" rx="100"/><path fill="#82C2F1" d="M-8.9 207.455v12.944l293.052-88.537v-7.249z"/><path fill="#AADBFF" d="M291.868 126.499-9.653 210.437-86.187 93.621l304.223-28.304z"/><path fill="#F1AA90" d="M158.237 117.73c-10.995-1.18-15.165 8.378-13.67 11.165l37.912 41.989c9.398 9.095 15.048 15.376 22.478 12.536 11.167-4.266 12.853-21.61 10.289-28.012-16.421-17.277-54.313-35.271-57.009-37.678"/><path fill="#EFEFEF" d="M163.657 119.996c-9.267-.809-15.14 12.164-13.645 14.951l32.473 35.948c9.398 9.094 15.048 15.375 22.478 12.536 11.167-4.267 12.853-21.61 10.289-28.013-16.421-17.276-48.899-33.016-51.595-35.422"/><path fill="#E4E4E4" d="m156.715 143.557-7.033-8.549c-.557-2.553-.402-3.808 3.128-9.45 2.824-4.513 8.916-6.324 11.083-6.085l9.483 5.839c-.181.027-2.781-.232-6.137.965-4.657 1.662-11.063 13.223-10.524 17.28"/><path fill="#D3EDFF" d="m131.874 147.819-80.217 18.754a3.2 3.2 0 0 1-3.478-1.479l-14.814-24.888c-1.116-1.875-.07-4.292 2.061-4.762l77.928-17.161a3.2 3.2 0 0 1 3.268 1.231l17.103 23.295c1.358 1.851.384 4.487-1.851 5.01"/><mask id="c9_c" width="100" height="127" x="125" y="115" maskUnits="userSpaceOnUse" style="mask-type:alpha"><path fill="#666" d="M176.531 122.667c12.84-4.16 41.632-8.492 48.112-6.156v56.004l-91.649 68.587c-1.897-16.073-5.87-52.294-6.589-68.587s-1.542-27.733 3.725-31.22c7.761-4.822 33.561-14.468 46.401-18.628"/></mask><g mask="url(#c9_c)"><path fill="#666" d="M176.532 122.667c12.84-4.16 41.631-8.492 48.111-6.156v56.004l-91.648 68.587c-1.897-16.073-5.871-52.294-6.59-68.587s-1.541-27.733 3.726-31.22c7.761-4.822 33.561-14.468 46.401-18.628"/><path fill="#8E8E8E" d="M147.564 140.43c-9.396-4.794-19.655-2.557-23.61-.838-9.827 15.22.959 47.937 7.55 59.682 5.274 9.396 16.179-.16 20.973-6.112l4.914-26.965c.639-6.592-.432-20.973-9.827-25.767"/></g><path fill="#EFEFEF" d="M122.65 147.018c16.387-18.534 38.759 10.608 24.741 35.403-9.059 16.023-38.839 78.372-57.237 73.265-10.346-2.872-10.47-13.598-9.06-18.351 7.624-27.174 28.446-75.49 41.556-90.317"/><path fill="#F1AA90" d="M62.68 148.282c-9.542-6.656-18.229.047-18.261 3.375l13.703 57.927c4.062 13.147 6.092 21.801 14.383 22.946 12.46 1.719 22.798-13.423 23.676-20.627-6.396-24.25-32.232-60.036-33.5-63.621"/><path fill="#EFEFEF" d="M66.531 153.119c-8.137-5.439-20.123 3.552-20.156 6.88l11.746 49.6c4.063 13.147 6.093 21.801 14.384 22.946 12.46 1.719 22.798-13.423 23.675-20.627-6.396-24.25-28.38-55.214-29.649-58.799"/><path fill="#E4E4E4" d="m48.197 171.333-2.157-11.446c.779-2.637 1.558-3.716 7.67-7.132 4.89-2.733 11.426-1.318 13.304 0l5.79 10.188c-.181-.067-2.448-1.622-6.15-2.217-5.136-.826-16.9 6.592-18.457 10.607"/><path fill="#E4E4E4" fill-rule="evenodd" d="M113.079 162.453a1.6 1.6 0 0 1 .76 2.132c-1.429 3.013-3.538 7.093-5.899 11.661-1.45 2.806-2.996 5.797-4.537 8.837-4.08 8.045-8.154 16.481-10.559 23.103a1.6 1.6 0 0 1-3.007-1.092c2.478-6.825 6.634-15.416 10.712-23.458 1.576-3.109 3.137-6.129 4.592-8.944 2.336-4.519 4.398-8.508 5.807-11.479a1.6 1.6 0 0 1 2.131-.76" clip-rule="evenodd"/><path fill="#3F568E" d="M148.692 169.559c15.754-14.726 49.088-19.264 68.923-21.832s-20.548 77.913-20.548 77.913l-86.904 29.539c6.279-22.404 22.775-70.893 38.529-85.62"/><path fill="#30457A" d="M152.197 174.504c15.753-14.727 49.088-19.264 68.923-21.833s-20.548 77.914-20.548 77.914l-86.904 29.539c6.279-22.404 22.775-70.893 38.529-85.62"/><path fill="#82C2F1" d="M83.151 84.668c29.407 7.942 39.903 25.069 16.618 16.039-11.021-4.273-26.201-6.89-33.662-5.94-10.227 1.302-13.93 3.36-22.12 9.757s-11.24 11.678-15.992 11.678c-4.75 0-1.758-8.571 11.777-21.435 15.227-14.472 26.689-14.607 43.38-10.099"/><path fill="#82C2F1" d="M55.025 72.349v18.63h17.033V68.091z"/><path fill="#AADBFF" d="M139.169-18.49-9.013-8.586a2.4 2.4 0 0 0-2.24 2.395v81.426a2.4 2.4 0 0 0 2.601 2.392l144.575-12.143a2.4 2.4 0 0 0 2.196-2.282l3.608-79.186a2.4 2.4 0 0 0-2.558-2.504"/><path fill="#D3EDFF" d="M137.12-13.947-7.332-4.809v77.705L133.466 61.68z"/><path fill="#82C2F1" fill-rule="evenodd" d="M114.654 76.466c1.316 1.616 1.522 3.782.346 6.544-.759 1.781-.421 3.49.749 5.175 1.191 1.714 3.219 3.352 5.711 4.847 4.973 2.985 11.541 5.257 16.08 6.431l-.376 1.453c-4.613-1.194-11.333-3.511-16.476-6.598-2.566-1.54-4.803-3.308-6.171-5.278-1.389-2-1.905-4.252-.897-6.618 1.032-2.423.73-3.954-.129-5.01-.926-1.136-2.639-1.912-4.836-2.448-2.171-.528-4.66-.788-6.99-1.003l-.725-.066c-2.019-.183-3.909-.355-5.202-.684l.37-1.453c1.169.297 2.928.457 4.991.645l.704.065c2.322.214 4.915.48 7.207 1.04 2.265.55 4.394 1.422 5.644 2.958" clip-rule="evenodd"/><mask id="ca_d" width="19" height="19" x="121" y="95" maskUnits="userSpaceOnUse" style="mask-type:alpha"><path fill="#D3EDFF" d="M123.042 96.626c-1.69 1.253-1.059 6.338-.754 8.698l5.785 8.22 10.124-.761 1.218-15.528-6.318-1.903c-2.512.38-7.695-.476-10.055 1.274"/></mask><g mask="url(#ca_d)"><path fill="#D3EDFF" d="M123.042 96.626c-1.69 1.253-1.059 6.338-.754 8.698l5.785 8.22 10.124-.761 1.218-15.528-6.318-1.903c-2.512.38-7.695-.476-10.055 1.274"/><path fill="#D3EDFF" d="M126.508 102.788c-.712-2.492-3.634-4.561-5.006-5.284l1.168-4.784 6.23-1.112c3.06.278 9.49 2.314 10.736 8.232 1.246 5.919-2.813 8.001-5.539 8.056-1.872-.5-6.877-2.615-7.589-5.108"/><path fill="#82C2F1" fill-rule="evenodd" d="m128.882 91.205.054.005c1.58.143 4.012.737 6.217 2.056 2.211 1.322 4.222 3.393 4.874 6.492.645 3.064-.075 5.205-1.381 6.584-1.288 1.361-3.094 1.925-4.541 1.955l-.057.001-.054-.015c-.971-.259-2.722-.927-4.326-1.847-.803-.46-1.581-.991-2.21-1.575-.624-.581-1.128-1.24-1.335-1.963-.327-1.144-1.175-2.224-2.143-3.122-.963-.893-2.007-1.572-2.665-1.918l-.276-.146 1.304-5.34zm.035.806-5.921 1.057-1.033 4.233a14.5 14.5 0 0 1 2.561 1.889c1.014.94 1.983 2.141 2.368 3.489.15.523.538 1.063 1.111 1.596.569.529 1.292 1.025 2.063 1.467 1.514.869 3.165 1.501 4.079 1.753 1.269-.039 2.825-.546 3.92-1.703 1.094-1.155 1.78-3.015 1.179-5.87-.593-2.819-2.421-4.725-4.502-5.97-2.061-1.233-4.344-1.798-5.825-1.94" clip-rule="evenodd"/></g><path fill="#F1AA90" d="M144.509 129.036c.723.611 8.649-8.155 13.523-10.844-1.346-2.186-3.66-5.484-3.66-11.255-.659-1.107-2.219-3.017-5.516-5.978s-9.947-2.542-12.86-1.963c-1.621.73-4.926 5.12-7.366 8.987s-1.014 8.397-.547 10.209c1.728 1.682 13.456 8.334 16.426 10.844"/><path fill="#F1AA90" d="m130.799 94.127 6.023 7.829c-3.381 3.427-9.239 11.068-8.456 7.673.978-4.245-1.582-10.597-2.406-11.823-.659-.981-2.299-1.1-3.037-1.038v-1.037c.069-.535.69-1.746 2.625-2.311 1.936-.566 4.307.235 5.251.707"/><path fill="#F1AA90" d="M123.592 103.747c-1.152-1.547-2.985-1.337-3.757-1.038-1.277.717-1.013 3.003-.721 4.056.429 1.556 1.379 4.838 1.75 5.517s6.846 6.007 8.734 7.202l.44-8.184c-.516-.543-2.845-1.724-4.186-3.286-1.337-1.557-1.684-3.495-2.26-4.267M132.818 92.71c-1.366.231-1.798.975-1.843 1.318-.164.631-.332 1.812.315 1.482.648-.329 2.158.138 2.832.412l2.877 5.931h6.878c-.899-2.17-2.85-6.77-3.461-7.825s-1.723-1.318-2.203-1.318c-1.229-.096-4.028-.23-5.395 0M151.654 99.919l2.832 7.536-5.664-2.636c-.674-1.771-1.753-5.46-.674-6.054 1.079-.593 2.787.522 3.506 1.154"/><path fill="#82C2F1" d="M133.746 94.938c-.817-.175-1.288.34-1.422.62 0 .189.065.373.185.52l1.629 2.009c.198.244.496.386.81.386.255-.097.766-.496.766-1.312 0-1.02-.948-2.005-1.968-2.223"/><path fill="#F1AA90" d="M147.204 96.54c-.791-1.35-4.046-.562-5.575 0l3.822 8.732 4.765.247c-.675-2.43-2.221-7.627-3.012-8.978"/></g><path fill="#F1AA90" d="m48.523 108.234-3.397 6.357 3.433 4.138 4.45-4.053c3.215 1.099 9.863 2.999 10.735 1.805.873-1.194.33-1.941-.05-2.165z"/><mask id="cb_e" width="23" height="15" x="42" y="101" maskUnits="userSpaceOnUse" style="mask-type:alpha"><path fill="#FFC7B6" d="m62.805 107.733-10.048-6.246c-4.084-1.495-6.495 1.091-7.191 2.571l-3.038 6.936 3.716 4.459 2.753-6.081c1.518.085 5.14.427 7.487 1.114 2.933.859 5.613 1.997 7.238.656 1.3-1.073-.07-2.72-.918-3.409"/></mask><g mask="url(#cb_e)"><path fill="#F1AA90" d="m62.804 107.733-10.047-6.246c-4.084-1.494-6.496 1.091-7.191 2.571l-3.038 6.937 3.716 4.458 2.753-6.081c1.518.085 5.14.427 7.487 1.114 2.933.859 5.613 1.997 7.238.656 1.3-1.073-.07-2.72-.918-3.409"/><path fill="#000" d="m66.381 109.314-10.047-6.246c-4.084-1.494-6.496 1.091-7.191 2.571l-3.038 6.937 3.716 4.458 2.753-6.081c1.518.085 5.14.427 7.487 1.115 2.933.858 5.613 1.996 7.238.655 1.3-1.073-.07-2.72-.918-3.409" opacity=".5" style="mix-blend-mode:overlay"/></g><mask id="cc_f" width="26" height="17" x="36" y="96" maskUnits="userSpaceOnUse" style="mask-type:alpha"><path fill="#FFC7B6" d="m40.893 100.353-4.57 8.714 7.719 3.102 2.424-6.711c.386-.347 2.444-1.314 7.589-2.406 6.43-1.365 7.51-2.946 7.506-4.688-.004-1.394-1.653-1.777-2.477-1.794-3.49.395-11.19 1.28-14.074 1.652-2.884.373-3.947 1.576-4.117 2.131"/></mask><g mask="url(#cc_f)"><path fill="#F1AA90" d="m40.893 100.353-4.57 8.714 7.718 3.102 2.425-6.711c.386-.347 2.444-1.315 7.588-2.406 6.431-1.365 7.511-2.946 7.507-4.688-.004-1.394-1.653-1.777-2.478-1.794-3.49.395-11.189 1.28-14.073 1.652-2.884.373-3.947 1.576-4.117 2.131"/><path fill="#000" fill-opacity=".5" d="m46.31 103.3-4.57 8.714 7.72 3.103 2.423-6.711c.386-.348 2.444-1.315 7.59-2.407 6.43-1.364 7.51-2.945 7.505-4.687-.003-1.394-1.653-1.777-2.477-1.794-3.49.395-11.19 1.279-14.073 1.652-2.885.372-3.947 1.575-4.118 2.13" style="mix-blend-mode:overlay"/></g><path fill="#F1AA90" d="M33.008 125.49c3.2 3.917 8.87 18.877 11.304 25.867l8.757-3.489-.69-28.843c-2.02-1.699-6.423-5.616-7.873-7.697s-5.975-2.546-8.056-2.519l-2.1 3.338c-1.78 2.816-4.542 9.427-1.342 13.343"/><path fill="#000" d="M49.44 121.256c-.645-1.771-4.7-8.294-6.633-11.254.676.324 1.178.67 1.573 1.125 3.318 2.4 4.892 6.006 5.514 7.085.373 2.049.192 4.814-.453 3.044" opacity=".5" style="mix-blend-mode:overlay"/><path fill="#F8F8F8" d="m87.244 38.56-56.78 12.562c6.004 23.445 15.923 59.509 23.618 75.936 7.48-1.314 32.386-7.731 52.235-15.573-4.028-12.693-13.664-51.103-19.073-72.925"/><path fill="#3F568E" fill-rule="evenodd" d="M83.723 50.841a1.416 1.416 0 0 1-1.067 1.695l-19.59 4.456a1.416 1.416 0 0 1-.628-2.762l19.59-4.456a1.416 1.416 0 0 1 1.695 1.067M78.192 58.412a1.416 1.416 0 0 1-1.072 1.692l-11.988 2.69a1.416 1.416 0 1 1-.62-2.764l11.987-2.69a1.416 1.416 0 0 1 1.693 1.072M84.252 69.922a1 1 0 0 1 1.201.678l4.021 13.204a1 1 0 0 1-.713 1.261l-34.266 8.6a1 1 0 0 1-1.189-.645l-4.495-13.055a1 1 0 0 1 .701-1.295zM51.056 80.343l3.842 11.158 32.357-8.12-3.438-11.287zM89.866 89.106a1 1 0 0 1 1.2.679l4.022 13.204a1 1 0 0 1-.713 1.261l-34.266 8.599a1 1 0 0 1-1.19-.644L54.425 99.15a1 1 0 0 1 .702-1.296zM56.67 99.528l3.842 11.158 32.356-8.12-3.437-11.288z" clip-rule="evenodd"/><mask id="cd_g" width="19" height="18" x="41" y="54" maskUnits="userSpaceOnUse" style="mask-type:alpha"><path fill="#39B54A" d="M51.767 71.316a8.635 8.635 0 1 0-2.333-17.113 8.635 8.635 0 0 0 2.333 17.113"/></mask><g mask="url(#cd_g)"><path fill="#8FC7B8" d="M51.767 71.316a8.635 8.635 0 1 0-2.333-17.113 8.635 8.635 0 0 0 2.333 17.113"/><path fill="#F8F8F8" d="M50.1 63.592a3.604 3.604 0 1 0-.973-7.143 3.604 3.604 0 0 0 .973 7.143M54.046 78.945a7.11 7.11 0 1 0-1.92-14.088 7.11 7.11 0 0 0 1.92 14.088"/></g><path fill="#F1AA90" d="M64.03 126.366c2.778 4.731.175 17.147-1.474 22.764-5.51 3.715-10.573.315-12.416-1.849l-1.953-23.274c.54-1.135 1.774-4.211 2.382-7.436.76-4.031-.299-9.767.17-15.595.376-4.662 2.847-5.739 4.036-5.694 1.193.018 3.63 1.529 3.836 7.425.257 7.37 1.947 17.744 5.42 23.659"/><mask id="ce_h" width="32" height="48" x="180" y="79" maskUnits="userSpaceOnUse" style="mask-type:alpha"><path fill="#FFC7B6" d="M208.22 118.13c.562-6.574 2.213-29 3.262-38.16l-25.874 13.069c-1.266 9.609-4.425 21.206-5.032 28.303 10.924 11.079 27.166 2.377 27.644-3.212"/></mask><g mask="url(#ce_h)"><path fill="#F1AA90" d="M208.22 118.13c.562-6.574 2.213-29 3.262-38.16l-25.874 13.068c-1.265 9.61-4.425 21.207-5.032 28.303 10.925 11.08 27.167 2.378 27.644-3.211"/><path fill="#000" d="M209.378 92.244c-8.73 19.938-24.575 22.824-31.407 21.775l-4.446-14.435 8.186-14.316c8.344-2.874 36.396-12.963 27.667 6.976" opacity=".5" style="mix-blend-mode:overlay"/><path fill="#E4E4E4" d="M194.929 122.116c8.415-.377 11.049-5.19 13.6-7.442 1.834 1.348 5.585.114 6.693 1.61-3.664 5.414-6.693 11.798-16.047 12.953-11.796 1.458-18.654-2.936-24.06-6.037l5.818-5.294c2.454 1.415 8.628 4.45 13.996 4.21"/></g><path fill="#F1AA90" d="M169.227 48.647c10.395-23.576 29.215-22.726 43.331-13.032 11.642 7.994 16.721 16.194 10.913 32.762-7.57 21.595-26.706 37.685-36.106 40.303-6.351 1.769-13.941 2.439-20.056-3.987l-.069-.072c-5.319-5.59-9.545-10.03-6.37-29.142 0 0 5.745-20.908 8.357-26.832"/><path fill="#411917" d="M203.969 67.793s-3.565-3.882-7.204-4.818c-2.518-.65-6.287-.037-6.287-.037s-.913-.236.966-2.087 7.291.537 7.291.537 3.178 1.47 5.325 4.268c.891 1.168.636 2.526.636 2.526s-.281.474-.723-.397zM193.707 73.563c-.822-.566-.71-2.156.251-3.55.96-1.396 2.405-2.068 3.227-1.501.823.566.71 2.156-.25 3.55-.96 1.395-2.406 2.067-3.228 1.5"/><path fill="#411917" fill-rule="evenodd" d="M188.474 66.663s-.002 0 .543.576l-.545-.575a.807.807 0 0 0 1.102 1.179l.011-.009a2.484 2.484 0 0 1 .495-.29c.378-.17.982-.346 1.824-.308 1.681.076 4.455 1.018 8.365 4.922a.808.808 0 0 0 1.141-1.142c-4.071-4.065-7.204-5.291-9.433-5.392-1.114-.05-1.966.183-2.555.446-.293.13-.518.267-.675.377a3 3 0 0 0-.187.14l-.056.048-.019.017-.007.007-.003.002z" clip-rule="evenodd"/><path fill="#411917" d="M169.647 53.328s4.847-.55 7.834 1.137c2.067 1.166 4.134 4.09 4.134 4.09s.75.423.722-2.184c-.029-2.606-5.116-4.376-5.116-4.376s-3.032-.988-6.248-.315c-1.34.285-2.053 1.461-2.053 1.461s-.124.537.73.179zM174.039 64.778c.882.221 1.951-.925 2.389-2.56s.076-3.14-.806-3.361-1.952.925-2.389 2.56-.077 3.14.806 3.361"/><path fill="#411917" fill-rule="evenodd" d="m179.239 62.738-.769.25.769-.249a.807.807 0 0 1-.522 1.016.806.806 0 0 1-1.015-.515l-.002-.005-.012-.035a5.321 5.321 0 0 0-.355-.734 5.9 5.9 0 0 0-1.378-1.617c-1.271-1.025-3.492-1.883-7.291-.622a.806.806 0 1 1-.506-1.53c4.264-1.415 7.072-.51 8.815.897a7.5 7.5 0 0 1 2.139 2.814 5 5 0 0 1 .116.297l.007.022.003.007zm-1.538.5v-.002l.746-.24z" clip-rule="evenodd"/><path fill="#000" fill-opacity=".5" d="M170.736 76.2c-.114.684 2.181 2.92 3.342 3.951 5.722 1.288 5.266.489 4.096-1.343s-7.296-3.463-7.438-2.608" style="mix-blend-mode:overlay"/><path fill="#411917" fill-rule="evenodd" d="m180.531 67.294-.001.002-.005.01-.022.044-.09.18c-.081.156-.202.385-.359.668-.317.565-.78 1.34-1.365 2.174-1.188 1.693-2.811 3.537-4.663 4.463l.361.722-.36-.722c-.552.275-.977.707-1.193 1.26-.215.55-.193 1.152.019 1.716a.808.808 0 0 0 1.511-.569c-.092-.243-.078-.43-.026-.562.051-.13.167-.28.409-.4l.001-.001c2.219-1.11 4.031-3.225 5.262-4.98a27 27 0 0 0 1.839-3.033l.128-.256.007-.015.002-.004.001-.002-.728-.348.729.347a.807.807 0 0 0-1.457-.694" clip-rule="evenodd"/><mask id="cf_i" width="18" height="10" x="170" y="86" maskUnits="userSpaceOnUse" style="mask-type:alpha"><path fill="#411917" d="m171.266 86.59 16.558 2.828c-.97 1.925-1.823 7.484-12.017 5.792-5.076-.842-6.083-6.482-4.541-8.62"/></mask><g mask="url(#cf_i)"><path fill="#411917" d="m171.267 86.59 16.557 2.828c-.97 1.925-1.823 7.484-12.017 5.792-5.076-.842-6.083-6.482-4.54-8.62"/><path fill="#F8F8F8" d="M169.953 87.502c5.336 2.821 15.764 3.397 18.502 3.617l1.068-1.98-19.304-4.745c-.273-.174-.698.93-.266 3.108"/><path fill="#EA4F4A" d="M171.842 93.248c-.365 1.299 1.983 3.096 5.245 4.014s6.203.609 6.569-.69-1.983-3.096-5.245-4.014-6.203-.609-6.569.69"/></g><path fill="#212121" d="m207.578 85.249 1.751 2.088c1.287-2.282 4.328-7.308 6.198-9.163 2.336-2.318 6.071 1.86 10.26.907 4.189-.952 10.208-14.8 10.499-21.51.233-5.37-6.97-7.823-10.6-8.378-1.763-.17-6.222.974-9.953 6.91-4.663 7.42-.771 10.129-1.932 15.997-.929 4.695-4.536 10.722-6.223 13.149"/><path fill="#fff" d="m207.578 85.249 1.751 2.088c1.287-2.282 4.328-7.308 6.198-9.163 2.336-2.318 6.071 1.86 10.26.907 4.189-.952 10.208-14.8 10.499-21.51.233-5.37-6.97-7.823-10.6-8.378-1.763-.17-6.222.974-9.953 6.91-4.663 7.42-.771 10.129-1.932 15.997-.929 4.695-4.536 10.722-6.223 13.149" opacity=".5" style="mix-blend-mode:overlay"/><path fill="#212121" d="M182.677 40.144c15.048 6.744 31.411 8.451 32.156 17.612 2.124 1.845 14.559-2.022 18.284-3.813 4.657-2.24 6.451-10.606-5.308-23.837-9.406-10.585-22.425-15.176-31.191-8.306-1.002-1.148-9.293-6.212-17.643.663-6.647 5.473-6.516 15.99-7.566 21.581 1.208-1.17 4.738-6.826 11.268-3.9"/><path fill="#F1AA90" d="M227.294 78.107c-.919-3.941-9.117-2.888-11.183.632-3.43 5.841-7.298 11.869-7.298 11.869-.743 5.887 2.884 4.953 5.171 4.364l.053-.014c4.975-.8 14.176-12.91 13.257-16.851"/><path fill="#000" fill-opacity=".5" d="M218.638 79.908s7.487-2.323 1.792 5.93c-3.152 4.567-1.705-3.932-5.191-1.574.656-1.677 1.205-2.922 3.399-4.356" style="mix-blend-mode:overlay"/><path fill="#411917" fill-rule="evenodd" d="M220.084 82.862a.896.896 0 0 1-.741 1.026c-1.991.322-3.202 1.308-4.131 2.543a2.5 2.5 0 0 1 1.378.175c.532.236.951.66 1.271 1.227a.895.895 0 0 1-1.559.88c-.177-.315-.336-.426-.437-.47-.106-.047-.255-.07-.491-.025-.519.097-1.12.438-1.874.864l-.076.043a.894.894 0 0 1-1.223-1.215l.095-.17c1.177-2.12 2.761-4.972 6.761-5.619a.896.896 0 0 1 1.027.741" clip-rule="evenodd"/></g><defs><clipPath id="c7_a"><path fill="#fff" d="M0 0h240v240H0z"/></clipPath><clipPath id="c8_b"><rect width="200" height="200" x="20" y="20" fill="#fff" rx="100"/></clipPath></defs></svg>