<svg xmlns="http://www.w3.org/2000/svg" width="150" height="150" fill="none" class="persona-ilustration" viewBox="0 0 150 150"><g clip-path="url(#DYzEhHWnj6_a)"><g clip-path="url(#DYzEhHWnj6_b)"><rect width="125" height="125" x="12.5" y="12.5" fill="#D3EDFF" rx="62.5"/><path fill="#82C2F1" d="M-5.563 129.66v8.089l183.158-55.335v-4.53z"/><path fill="#AADBFF" d="m182.417 79.062-188.45 52.461-47.834-73.01 190.139-17.69z"/><path fill="#F1AA90" d="M98.898 73.582c-6.871-.738-9.478 5.235-8.543 6.977l23.694 26.244c5.874 5.684 9.405 9.609 14.049 7.835 6.98-2.667 8.033-13.507 6.431-17.508-10.263-10.798-33.946-22.044-35.63-23.548"/><path fill="#EFEFEF" d="M102.286 74.998c-5.792-.506-9.463 7.602-8.528 9.344l20.295 22.467c5.874 5.684 9.405 9.61 14.049 7.835 6.98-2.666 8.033-13.506 6.431-17.508-10.263-10.797-30.562-20.634-32.247-22.138"/><path fill="#E4E4E4" d="M97.947 89.723 93.55 84.38c-.348-1.595-.25-2.38 1.955-5.906 1.765-2.82 5.573-3.953 6.927-3.803l5.927 3.649c-.113.017-1.738-.145-3.835.604-2.911 1.038-6.915 8.263-6.578 10.8"/><path fill="#D3EDFF" d="m82.421 92.387-50.135 11.721a2 2 0 0 1-2.174-.924l-9.26-15.555a2 2 0 0 1 1.29-2.976l48.704-10.727a2 2 0 0 1 2.043.77l10.689 14.56a2 2 0 0 1-1.157 3.13"/><mask id="DYzEhHWnj6_c" width="63" height="79" x="78" y="72" maskUnits="userSpaceOnUse" style="mask-type:alpha"><path fill="#666" d="M110.332 76.667c8.025-2.6 26.02-5.308 30.07-3.847v35.002l-57.28 42.867c-1.186-10.046-3.67-32.684-4.119-42.867s-.963-17.333 2.329-19.512c4.85-3.014 20.975-9.043 29-11.643"/></mask><g mask="url(#DYzEhHWnj6_c)"><path fill="#666" d="M110.333 76.667c8.025-2.6 26.019-5.308 30.069-3.847v35.002l-57.28 42.867c-1.186-10.046-3.669-32.684-4.118-42.867s-.964-17.333 2.328-19.512c4.85-3.014 20.976-9.043 29.001-11.643"/><path fill="#8E8E8E" d="M92.227 87.769c-5.872-2.997-12.284-1.598-14.755-.524-6.142 9.513.599 29.961 4.719 37.301 3.295 5.873 10.111-.1 13.108-3.82l3.07-16.853c.4-4.12-.27-13.108-6.142-16.104"/></g><path fill="#EFEFEF" d="M76.656 91.886c10.242-11.584 24.225 6.63 15.463 22.127-5.662 10.014-24.274 48.983-35.772 45.791-6.467-1.795-6.545-8.499-5.663-11.47 4.765-16.984 17.779-47.181 25.972-56.448"/><path fill="#F1AA90" d="M39.175 92.676c-5.964-4.16-11.393.03-11.413 2.11l8.564 36.204c2.539 8.217 3.808 13.626 8.99 14.341 7.787 1.075 14.248-8.389 14.797-12.891-3.998-15.157-20.145-37.523-20.938-39.764"/><path fill="#EFEFEF" d="M41.582 95.7c-5.086-3.4-12.577 2.22-12.598 4.3l7.341 30.999c2.54 8.218 3.808 13.626 8.99 14.341 7.788 1.075 14.249-8.389 14.797-12.891-3.997-15.156-17.738-34.509-18.53-36.75"/><path fill="#E4E4E4" d="m30.123 107.083-1.349-7.154c.487-1.648.974-2.322 4.794-4.457 3.057-1.708 7.142-.824 8.315 0l3.619 6.367c-.113-.042-1.53-1.014-3.843-1.386-3.21-.516-10.563 4.121-11.536 6.63"/><path fill="#E4E4E4" fill-rule="evenodd" d="M70.674 101.533a1 1 0 0 1 .475 1.332c-.893 1.884-2.21 4.434-3.686 7.289-.907 1.754-1.873 3.623-2.836 5.523-2.55 5.028-5.096 10.3-6.6 14.439a1 1 0 0 1-1.88-.683c1.55-4.265 4.147-9.635 6.696-14.661.985-1.942 1.96-3.83 2.87-5.589 1.46-2.825 2.749-5.318 3.63-7.175a1 1 0 0 1 1.331-.475" clip-rule="evenodd"/><path fill="#3F568E" d="M92.932 105.975c9.846-9.205 30.68-12.04 43.077-13.646 12.397-1.605-12.843 48.696-12.843 48.696l-54.314 18.462c3.924-14.002 14.234-44.308 24.08-53.512"/><path fill="#30457A" d="M95.123 109.065c9.846-9.204 30.68-12.04 43.077-13.645s-12.843 48.695-12.843 48.695l-54.314 18.462c3.924-14.002 14.234-44.308 24.08-53.512"/><path fill="#82C2F1" d="M51.97 52.918c18.379 4.963 24.939 15.667 10.385 10.024-6.888-2.671-16.375-4.306-21.038-3.713-6.392.814-8.707 2.1-13.826 6.098s-7.025 7.3-9.994 7.3c-2.97 0-1.099-5.358 7.36-13.398 9.517-9.044 16.68-9.129 27.112-6.312"/><path fill="#82C2F1" d="M34.39 45.218v11.644h10.646V42.557z"/><path fill="#AADBFF" d="M86.98-11.556-5.632-5.367a1.5 1.5 0 0 0-1.4 1.497V47.02a1.5 1.5 0 0 0 1.625 1.495l90.36-7.589a1.5 1.5 0 0 0 1.372-1.426L88.58-9.991a1.5 1.5 0 0 0-1.598-1.565"/><path fill="#D3EDFF" d="M85.7-8.717-4.583-3.006V45.56l87.998-7.01z"/><path fill="#82C2F1" fill-rule="evenodd" d="M71.659 47.79c.822 1.011.951 2.365.216 4.09-.474 1.114-.263 2.183.468 3.235.744 1.072 2.012 2.095 3.57 3.03 3.108 1.865 7.213 3.285 10.05 4.02l-.235.907c-2.884-.746-7.084-2.194-10.298-4.123-1.604-.963-3.002-2.068-3.857-3.299-.868-1.25-1.19-2.658-.56-4.136.644-1.515.456-2.471-.081-3.131-.579-.71-1.65-1.196-3.023-1.53-1.357-.33-2.912-.493-4.368-.627l-.453-.041c-1.262-.115-2.443-.222-3.252-.428l.232-.909c.73.186 1.83.287 3.12.404l.439.04c1.451.134 3.072.3 4.504.65 1.416.345 2.746.89 3.528 1.849" clip-rule="evenodd"/><mask id="DYzEhHWnj6_d" width="12" height="12" x="76" y="59" maskUnits="userSpaceOnUse" style="mask-type:alpha"><path fill="#D3EDFF" d="M76.901 60.391c-1.056.784-.661 3.962-.471 5.436l3.616 5.138 6.327-.475.761-9.705-3.948-1.19c-1.57.238-4.81-.297-6.285.796"/></mask><g mask="url(#DYzEhHWnj6_d)"><path fill="#D3EDFF" d="M76.9 60.391c-1.055.783-.66 3.961-.47 5.436l3.615 5.138 6.328-.476.761-9.705-3.949-1.189c-1.57.238-4.81-.298-6.284.796"/><path fill="#D3EDFF" d="M79.067 64.243c-.445-1.558-2.271-2.851-3.128-3.303l.73-2.99 3.893-.695c1.913.173 5.932 1.446 6.71 5.145.779 3.7-1.758 5-3.461 5.035-1.17-.313-4.299-1.635-4.744-3.192"/><path fill="#82C2F1" fill-rule="evenodd" d="m80.551 57.003.034.003c.987.09 2.507.46 3.886 1.285 1.381.827 2.638 2.12 3.046 4.058.403 1.915-.047 3.253-.863 4.115-.805.85-1.934 1.203-2.838 1.221h-.036l-.034-.008c-.607-.162-1.701-.58-2.704-1.154-.502-.288-.988-.62-1.38-.985-.39-.363-.706-.775-.835-1.227-.205-.715-.734-1.39-1.34-1.951a8.4 8.4 0 0 0-1.665-1.199l-.173-.091.815-3.337zm.022.504-3.7.66-.646 2.646c.44.251 1.04.66 1.6 1.18.634.588 1.24 1.338 1.48 2.18.094.328.337.665.695.998.355.331.807.641 1.29.918.945.543 1.977.938 2.549 1.095.793-.024 1.765-.341 2.45-1.064.683-.722 1.112-1.884.736-3.668-.37-1.763-1.513-2.954-2.813-3.732a9.2 9.2 0 0 0-3.641-1.213" clip-rule="evenodd"/></g><path fill="#F1AA90" d="M90.318 80.648c.452.381 5.406-5.097 8.451-6.778-.84-1.366-2.287-3.427-2.287-7.034-.412-.692-1.386-1.886-3.447-3.737-2.061-1.85-6.217-1.588-8.037-1.226-1.014.456-3.08 3.2-4.605 5.617s-.633 5.247-.341 6.38c1.08 1.051 8.41 5.209 10.266 6.778"/><path fill="#F1AA90" d="m81.75 58.83 3.763 4.892c-2.112 2.142-5.774 6.918-5.285 4.796.612-2.653-.988-6.623-1.503-7.39-.412-.612-1.437-.687-1.898-.648v-.648c.043-.334.43-1.091 1.64-1.445 1.21-.353 2.692.148 3.282.442"/><path fill="#F1AA90" d="M77.245 64.842c-.72-.967-1.866-.835-2.349-.649-.797.448-.632 1.877-.45 2.535.268.973.862 3.024 1.094 3.449.231.424 4.279 3.754 5.458 4.5l.275-5.114c-.322-.34-1.778-1.078-2.616-2.054-.835-.973-1.052-2.185-1.412-2.667M83.011 57.944c-.854.144-1.123.609-1.152.823-.103.395-.207 1.133.197.927.405-.206 1.349.086 1.77.258l1.798 3.706h4.3c-.563-1.355-1.782-4.232-2.164-4.89a1.69 1.69 0 0 0-1.377-.824c-.768-.06-2.517-.144-3.372 0M94.784 62.45l1.77 4.71-3.54-1.648c-.422-1.107-1.096-3.413-.422-3.784.674-.37 1.742.326 2.192.721"/><path fill="#82C2F1" d="M83.59 59.336c-.51-.11-.804.213-.888.387 0 .119.041.234.116.326l1.018 1.255c.124.153.31.242.506.242.16-.061.479-.31.479-.82 0-.638-.593-1.253-1.23-1.39"/><path fill="#F1AA90" d="M92.002 60.338c-.494-.844-2.529-.352-3.484 0l2.388 5.457 2.978.154c-.42-1.518-1.387-4.767-1.882-5.61"/></g><path fill="#F1AA90" d="m30.327 67.647-2.123 3.972 2.145 2.587 2.781-2.533c2.01.687 6.164 1.874 6.71 1.128.545-.746.206-1.213-.032-1.353z"/><mask id="DYzEhHWnj6_e" width="15" height="10" x="26" y="63" maskUnits="userSpaceOnUse" style="mask-type:alpha"><path fill="#FFC7B6" d="m39.253 67.333-6.28-3.904c-2.552-.934-4.06.682-4.494 1.607l-1.899 4.335 2.323 2.787 1.72-3.8c.95.053 3.213.266 4.68.696 1.833.537 3.508 1.248 4.524.41.812-.671-.044-1.7-.574-2.13"/></mask><g mask="url(#DYzEhHWnj6_e)"><path fill="#F1AA90" d="m39.253 67.333-6.28-3.903c-2.552-.935-4.06.682-4.494 1.607l-1.9 4.335 2.324 2.787 1.72-3.802c.949.054 3.213.268 4.68.697 1.833.537 3.508 1.248 4.523.41.813-.67-.044-1.7-.573-2.13"/><path fill="#000" d="m41.489 68.321-6.28-3.903c-2.552-.935-4.06.682-4.495 1.606l-1.898 4.336 2.323 2.787 1.72-3.802c.949.054 3.212.268 4.68.697 1.832.537 3.508 1.248 4.523.41.813-.67-.044-1.7-.573-2.13" opacity=".5" style="mix-blend-mode:overlay"/></g><mask id="DYzEhHWnj6_f" width="17" height="11" x="22" y="60" maskUnits="userSpaceOnUse" style="mask-type:alpha"><path fill="#FFC7B6" d="m25.558 62.72-2.856 5.447 4.824 1.939 1.515-4.195c.241-.217 1.527-.821 4.743-1.504 4.02-.852 4.694-1.84 4.691-2.93-.002-.87-1.033-1.11-1.548-1.12-2.18.246-6.993.799-8.796 1.032s-2.466.985-2.573 1.332"/></mask><g mask="url(#DYzEhHWnj6_f)"><path fill="#F1AA90" d="m25.558 62.72-2.856 5.447 4.824 1.939 1.515-4.195c.241-.217 1.527-.821 4.743-1.504 4.019-.852 4.694-1.84 4.691-2.93-.002-.87-1.033-1.11-1.548-1.12-2.181.246-6.993.799-8.796 1.032s-2.467.985-2.573 1.331"/><path fill="#000" fill-opacity=".5" d="m28.944 64.563-2.856 5.446 4.824 1.939 1.515-4.194c.241-.218 1.527-.822 4.743-1.504 4.019-.853 4.694-1.841 4.691-2.93-.002-.871-1.033-1.11-1.548-1.121-2.181.247-6.993.799-8.796 1.032s-2.467.985-2.573 1.332" style="mix-blend-mode:overlay"/></g><path fill="#F1AA90" d="M20.63 78.432c2 2.447 5.543 11.797 7.065 16.166l5.473-2.18-.432-18.027c-1.262-1.062-4.013-3.51-4.92-4.81-.906-1.301-3.734-1.592-5.035-1.575l-1.312 2.086c-1.113 1.76-2.84 5.892-.839 8.34"/><path fill="#000" d="M30.9 75.785c-.403-1.107-2.938-5.183-4.146-7.034.423.203.737.42.983.704 2.074 1.5 3.058 3.753 3.447 4.427.233 1.281.12 3.01-.283 1.903" opacity=".5" style="mix-blend-mode:overlay"/><path fill="#F8F8F8" d="M54.528 24.1 19.04 31.95c3.752 14.654 9.952 37.193 14.761 47.46 4.675-.82 20.241-4.832 32.647-9.733-2.517-7.933-8.54-31.94-11.92-45.578"/><path fill="#3F568E" fill-rule="evenodd" d="M52.327 31.776a.885.885 0 0 1-.667 1.06L39.416 35.62a.885.885 0 1 1-.392-1.726l12.244-2.785a.885.885 0 0 1 1.06.667M48.87 36.508a.885.885 0 0 1-.67 1.057l-7.493 1.681a.885.885 0 1 1-.387-1.727l7.492-1.681a.885.885 0 0 1 1.058.67M52.658 43.701a.625.625 0 0 1 .75.424l2.513 8.253a.625.625 0 0 1-.446.788L34.06 58.54a.625.625 0 0 1-.743-.402l-2.81-8.16a.625.625 0 0 1 .439-.81zM31.91 50.215l2.401 6.973 20.223-5.075-2.148-7.054zM56.166 55.692a.625.625 0 0 1 .75.424l2.514 8.252a.625.625 0 0 1-.446.788l-21.416 5.375a.625.625 0 0 1-.743-.403l-2.81-8.16a.625.625 0 0 1 .439-.809zM35.42 62.205l2.401 6.974 20.223-5.075-2.149-7.055z" clip-rule="evenodd"/><mask id="DYzEhHWnj6_g" width="12" height="12" x="26" y="33" maskUnits="userSpaceOnUse" style="mask-type:alpha"><path fill="#39B54A" d="M32.354 44.572a5.397 5.397 0 1 0-1.458-10.695 5.397 5.397 0 0 0 1.458 10.695"/></mask><g mask="url(#DYzEhHWnj6_g)"><path fill="#8FC7B8" d="M32.354 44.572a5.397 5.397 0 1 0-1.458-10.695 5.397 5.397 0 0 0 1.458 10.695"/><path fill="#F8F8F8" d="M31.313 39.745a2.253 2.253 0 1 0-.608-4.464 2.253 2.253 0 0 0 .608 4.464M33.779 49.34a4.443 4.443 0 1 0-1.2-8.804 4.443 4.443 0 0 0 1.2 8.805"/></g><path fill="#F1AA90" d="M40.019 78.979c1.736 2.957.11 10.717-.921 14.227-3.444 2.322-6.609.197-7.76-1.155l-1.221-14.547c.338-.709 1.109-2.631 1.489-4.647.474-2.52-.187-6.104.106-9.747.235-2.913 1.78-3.587 2.523-3.559.745.012 2.268.956 2.397 4.64.16 4.607 1.217 11.091 3.387 14.788"/><mask id="DYzEhHWnj6_h" width="21" height="31" x="112" y="49" maskUnits="userSpaceOnUse" style="mask-type:alpha"><path fill="#FFC7B6" d="M130.138 73.832c.351-4.11 1.383-18.125 2.038-23.851l-16.171 8.168c-.791 6.006-2.766 13.254-3.145 17.69 6.828 6.924 16.979 1.486 17.278-2.007"/></mask><g mask="url(#DYzEhHWnj6_h)"><path fill="#F1AA90" d="M130.138 73.831c.351-4.109 1.383-18.125 2.039-23.85l-16.172 8.168c-.79 6.006-2.765 13.254-3.145 17.69 6.828 6.924 16.98 1.486 17.278-2.008"/><path fill="#000" d="M130.861 57.652c-5.456 12.462-15.359 14.265-19.629 13.61l-2.779-9.022 5.116-8.947c5.216-1.797 22.748-8.102 17.292 4.36" opacity=".5" style="mix-blend-mode:overlay"/><path fill="#E4E4E4" d="M121.831 76.322c5.259-.235 6.905-3.243 8.5-4.65 1.146.842 3.49.07 4.183 1.005-2.29 3.384-4.183 7.374-10.03 8.096-7.372.911-11.658-1.835-15.037-3.773l3.636-3.309c1.534.885 5.393 2.781 8.748 2.631"/></g><path fill="#F1AA90" d="M105.767 30.405c6.497-14.736 18.26-14.205 27.082-8.146 7.276 4.996 10.45 10.122 6.82 20.477-4.731 13.496-16.69 23.552-22.566 25.19-3.969 1.105-8.713 1.523-12.535-2.493l-.043-.045c-3.324-3.494-5.965-6.269-3.981-18.214 0 0 3.591-13.067 5.223-16.77"/><path fill="#411917" d="M127.481 42.37s-2.229-2.425-4.503-3.01c-1.574-.407-3.929-.024-3.929-.024s-.571-.147.603-1.304c1.175-1.157 4.557.335 4.557.335s1.987.92 3.328 2.668c.557.73.398 1.579.398 1.579s-.176.296-.452-.248zM121.067 45.977c-.514-.354-.444-1.348.156-2.22.601-.871 1.504-1.291 2.018-.937s.444 1.347-.157 2.219c-.6.872-1.503 1.292-2.017.938"/><path fill="#411917" fill-rule="evenodd" d="M117.796 41.664s-.001.001.34.36l-.341-.359a.504.504 0 0 0 .689.737l.006-.005.053-.04c.052-.036.137-.089.257-.142.236-.106.614-.216 1.14-.192 1.051.047 2.784.636 5.228 3.076a.505.505 0 0 0 .713-.714c-2.544-2.54-4.502-3.307-5.896-3.37-.695-.031-1.228.114-1.596.279a2.6 2.6 0 0 0-.539.323l-.035.03-.012.01-.004.005z" clip-rule="evenodd"/><path fill="#411917" d="M106.029 33.33s3.03-.344 4.896.71c1.292.73 2.584 2.557 2.584 2.557s.469.264.451-1.365-3.197-2.735-3.197-2.735-1.895-.618-3.905-.197c-.838.178-1.284.913-1.284.913s-.077.336.457.112zM108.774 40.486c.551.139 1.22-.578 1.493-1.6s.048-1.962-.503-2.1c-.552-.139-1.22.578-1.494 1.6-.273 1.021-.047 1.962.504 2.1"/><path fill="#411917" fill-rule="evenodd" d="m112.024 39.211-.48.156za.504.504 0 0 1-.96.313l-.001-.003-.008-.022-.039-.097a3.691 3.691 0 0 0-1.044-1.373c-.794-.64-2.183-1.176-4.557-.388a.504.504 0 1 1-.316-.956c2.664-.885 4.42-.319 5.509.56a4.7 4.7 0 0 1 1.337 1.759 4 4 0 0 1 .072.186l.005.013.001.005zm-.961.312.467-.151z" clip-rule="evenodd"/><path fill="#000" fill-opacity=".5" d="M106.71 47.625c-.071.428 1.363 1.825 2.089 2.47 3.576.805 3.291.305 2.56-.84-.732-1.145-4.56-2.165-4.649-1.63" style="mix-blend-mode:overlay"/><path fill="#411917" fill-rule="evenodd" d="m112.832 42.059-.001.001-.003.006-.013.028-.057.112a16.36 16.36 0 0 1-1.077 1.777c-.743 1.058-1.757 2.21-2.915 2.79l.226.45-.225-.451a1.5 1.5 0 0 0-.746.787c-.134.345-.12.72.012 1.073a.505.505 0 0 0 .944-.356.49.49 0 0 1-.016-.35.5.5 0 0 1 .256-.251h.001c1.386-.694 2.519-2.016 3.288-3.113a17 17 0 0 0 1.149-1.895l.064-.126.017-.034.004-.01.002-.003-.455-.218.455.217a.504.504 0 0 0-.91-.434" clip-rule="evenodd"/><mask id="DYzEhHWnj6_i" width="12" height="6" x="106" y="54" maskUnits="userSpaceOnUse" style="mask-type:alpha"><path fill="#411917" d="m107.042 54.12 10.348 1.767c-.606 1.203-1.139 4.677-7.511 3.62-3.172-.527-3.801-4.052-2.837-5.388"/></mask><g mask="url(#DYzEhHWnj6_i)"><path fill="#411917" d="m107.042 54.119 10.348 1.767c-.606 1.203-1.139 4.678-7.51 3.62-3.173-.526-3.802-4.051-2.838-5.387"/><path fill="#F8F8F8" d="M106.22 54.689c3.336 1.763 9.853 2.123 11.564 2.26l.668-1.237-12.065-2.966c-.171-.108-.436.581-.167 1.943"/><path fill="#EA4F4A" d="M107.401 58.28c-.228.812 1.24 1.935 3.278 2.508 2.039.574 3.877.381 4.106-.43.228-.812-1.239-1.935-3.278-2.509s-3.877-.38-4.106.43"/></g><path fill="#212121" d="m129.736 53.28 1.095 1.306c.804-1.426 2.705-4.568 3.873-5.727 1.461-1.45 3.795 1.162 6.413.567s6.38-9.25 6.562-13.445c.145-3.355-4.356-4.888-6.625-5.236-1.102-.106-3.889.61-6.221 4.32-2.914 4.637-.482 6.33-1.207 9.998-.581 2.934-2.835 6.7-3.89 8.217"/><path fill="#fff" d="m129.736 53.28 1.095 1.306c.804-1.426 2.705-4.568 3.873-5.727 1.461-1.45 3.795 1.162 6.413.567s6.38-9.25 6.562-13.445c.145-3.355-4.356-4.888-6.625-5.236-1.102-.106-3.889.61-6.221 4.32-2.914 4.637-.482 6.33-1.207 9.998-.581 2.934-2.835 6.7-3.89 8.217" opacity=".5" style="mix-blend-mode:overlay"/><path fill="#212121" d="M114.173 25.09c9.405 4.215 19.632 5.282 20.097 11.007 1.328 1.153 9.1-1.263 11.428-2.383 2.911-1.4 4.032-6.628-3.317-14.898-5.879-6.615-14.016-9.485-19.495-5.19-.626-.718-5.808-3.884-11.026.413-4.155 3.421-4.073 9.994-4.729 13.489.755-.732 2.961-4.267 7.042-2.438"/><path fill="#F1AA90" d="M142.059 48.817c-.575-2.463-5.698-1.805-6.99.395-2.143 3.65-4.561 7.418-4.561 7.418-.464 3.68 1.803 3.096 3.232 2.728l.034-.009c3.109-.5 8.859-8.07 8.285-10.532"/><path fill="#000" fill-opacity=".5" d="M136.649 49.943s4.679-1.453 1.119 3.706c-1.969 2.854-1.065-2.457-3.244-.984.41-1.048.754-1.826 2.125-2.722" style="mix-blend-mode:overlay"/><path fill="#411917" fill-rule="evenodd" d="M137.552 51.789a.56.56 0 0 1-.463.641c-1.244.202-2.001.818-2.581 1.59.272-.038.569-.02.861.109.332.147.594.412.794.767a.56.56 0 1 1-.974.55c-.111-.197-.21-.266-.274-.294a.5.5 0 0 0-.306-.016c-.325.061-.7.274-1.172.54l-.047.027a.56.56 0 0 1-.764-.759l.059-.107c.736-1.324 1.726-3.107 4.226-3.511a.56.56 0 0 1 .641.463" clip-rule="evenodd"/></g><defs><clipPath id="DYzEhHWnj6_a"><path fill="#fff" d="M0 0h150v150H0z"/></clipPath><clipPath id="DYzEhHWnj6_b"><rect width="125" height="125" x="12.5" y="12.5" fill="#fff" rx="62.5"/></clipPath></defs></svg>