<svg xmlns="http://www.w3.org/2000/svg" width="16" height="16" fill="none" class="persona-icon" viewBox="0 0 16 16"><path fill="currentColor" fill-rule="evenodd" d="M4 5.204v5.906c0 1.095.888 1.983 1.983 1.983h4.974a.5.5 0 1 1 0 1H5.983A2.983 2.983 0 0 1 3 11.11V5.204a.5.5 0 0 1 1 0m8.514-.397c.312.325.486.757.486 1.207v3.85a2.364 2.364 0 0 1-2.364 2.364H6.482a1.617 1.617 0 0 1-1.618-1.617v-6.34A2.364 2.364 0 0 1 7.23 1.907h1.758c.475 0 .929.193 1.258.536zm-1.916.707h1.398L9.459 2.946v1.398c0 .686.452 1.17 1.139 1.17" clip-rule="evenodd"/></svg>