<svg xmlns="http://www.w3.org/2000/svg" width="20" height="20" fill="none" class="persona-icon" viewBox="0 0 20 20"><path fill="currentColor" fill-rule="evenodd" d="M9.074 2.663h2.111c.576 0 1.128.235 1.527.651l2.723 2.837c.379.394.59.92.59 1.466v4.62a2.86 2.86 0 0 1-2.862 2.862H8.178a1.966 1.966 0 0 1-1.966-1.966V5.525a2.86 2.86 0 0 1 2.862-2.862M5.225 6.644v7.088c0 1.3 1.054 2.355 2.354 2.355h5.97a.625.625 0 0 1 0 1.25h-5.97a3.604 3.604 0 0 1-3.604-3.605V6.644a.625.625 0 1 1 1.25 0m7.893.373h1.677l-3.044-3.082v1.678c0 .823.543 1.404 1.367 1.404" clip-rule="evenodd"/></svg>