<svg xmlns="http://www.w3.org/2000/svg" width="32" height="32" fill="none" class="persona-icon" viewBox="0 0 32 32"><path fill="currentColor" fill-rule="evenodd" d="M8 10.408a1 1 0 1 0-2 0V22.22a5.966 5.966 0 0 0 5.966 5.965h9.948a1 1 0 0 0 0-2h-9.949A3.965 3.965 0 0 1 8 22.221zm17.029-.794-4.54-4.728a3.49 3.49 0 0 0-2.514-1.072h-3.518A4.73 4.73 0 0 0 9.73 8.543v12.68a3.234 3.234 0 0 0 3.234 3.234h8.308A4.73 4.73 0 0 0 26 19.728v-7.7c0-.9-.348-1.765-.971-2.414m-3.833 1.414c-1.373 0-2.277-.967-2.277-2.34V5.892l5.073 5.136z" clip-rule="evenodd"/></svg>