<svg xmlns="http://www.w3.org/2000/svg" width="32" height="32" fill="none" class="persona-icon" viewBox="0 0 32 32"><path fill="currentColor" fill-rule="evenodd" d="M25.029 9.614c.623.65.971 1.514.971 2.414v7.7a4.73 4.73 0 0 1-4.729 4.729h-8.308a3.234 3.234 0 0 1-3.234-3.235V8.542a4.73 4.73 0 0 1 4.728-4.728h3.518c.949 0 1.857.387 2.514 1.072zM8 10.408V22.22a3.965 3.965 0 0 0 3.966 3.965h9.948a1 1 0 0 1 0 2h-9.949A5.966 5.966 0 0 1 6 22.221V10.408a1 1 0 1 1 2 0m13.196.62h2.796L18.92 5.892v2.796c0 1.373.904 2.34 2.277 2.34" clip-rule="evenodd"/></svg>