<svg xmlns="http://www.w3.org/2000/svg" width="16" height="16" fill="none"><path fill="currentColor" d="M9.096 14.23C8.942 14.658 8.55 15 8 15a7 7 0 1 1 7-7c0 1.039-.292 2.117-.86 2.966-.572.855-1.445 1.499-2.583 1.575-.71.047-1.662.035-2.983-.053l.013.022c.078.131.18.278.297.43.295.386.36.878.212 1.29Zm-.941-.339a.375.375 0 0 0-.066-.345c-.13-.17-.256-.349-.36-.524a2.122 2.122 0 0 1-.247-.555c-.043-.177-.077-.492.154-.746.22-.241.537-.264.76-.248 1.433.103 2.408.116 3.095.07.762-.05 1.378-.476 1.818-1.133C13.754 9.745 14 8.866 14 8a6 6 0 1 0-6 6c.055 0 .084-.015.1-.027a.173.173 0 0 0 .055-.082ZM6.18 9.083a1.583 1.583 0 1 0-3.167 0 1.583 1.583 0 0 0 3.167 0Zm-1.584.584a.583.583 0 1 1 0-1.167.583.583 0 0 1 0 1.167Zm2.858-4.44a1.583 1.583 0 1 0-3.166 0 1.583 1.583 0 0 0 3.166 0Zm-1.583.583a.583.583 0 1 1 0-1.166.583.583 0 0 1 0 1.166Zm5.623-.583a1.583 1.583 0 1 0-3.167 0 1.583 1.583 0 0 0 3.167 0ZM9.91 5.81a.583.583 0 1 1 0-1.166.583.583 0 0 1 0 1.166Zm2.923 3.273a1.583 1.583 0 1 0-3.166 0 1.583 1.583 0 0 0 3.166 0Zm-1.583.584a.583.583 0 1 1 0-1.167.583.583 0 0 1 0 1.167Z"/></svg>