<svg xmlns="http://www.w3.org/2000/svg" width="20" height="20" fill="none" class="persona-icon" viewBox="0 0 20 20"><path fill="currentColor" fill-rule="evenodd" d="M2 10a8 8 0 0 1 16 0c0 1.188-.333 2.422-.984 3.393-.655.98-1.655 1.717-2.96 1.805-.803.053-1.877.04-3.36-.058.088.146.201.308.33.476.34.446.416 1.015.244 1.492A1.32 1.32 0 0 1 10 18a8 8 0 0 1-8-8m8-6.815a6.815 6.815 0 0 0 0 13.63c.058 0 .086-.016.1-.026a.17.17 0 0 0 .055-.083.4.4 0 0 0-.072-.371 7 7 0 0 1-.412-.6 2.5 2.5 0 0 1-.283-.638c-.05-.204-.09-.573.18-.871.26-.283.629-.309.886-.29 1.632.116 2.741.131 3.522.08.861-.058 1.557-.538 2.056-1.283.503-.752.783-1.75.783-2.733A6.815 6.815 0 0 0 10 3.185m-5.706 8.05a1.827 1.827 0 1 0 3.654 0 1.827 1.827 0 0 0-3.654 0m1.827-.642a.642.642 0 1 1 0 1.284.642.642 0 0 1 0-1.284M5.747 6.84a1.827 1.827 0 1 0 3.654 0 1.827 1.827 0 0 0-3.654 0m1.827-.642a.642.642 0 1 1 0 1.284.642.642 0 0 1 0-1.284m2.776.642a1.827 1.827 0 1 0 3.654 0 1.827 1.827 0 0 0-3.654 0m1.827-.642a.642.642 0 1 1 0 1.284.642.642 0 0 1 0-1.284m-.3 5.037a1.827 1.827 0 1 0 3.654 0 1.827 1.827 0 0 0-3.655 0m1.827-.642a.642.642 0 1 1 0 1.284.642.642 0 0 1 0-1.284" clip-rule="evenodd"/></svg>