<svg xmlns="http://www.w3.org/2000/svg" width="20" height="20" fill="none" class="persona-icon" viewBox="0 0 20 20"><path fill="currentColor" d="M2 10a8 8 0 0 1 16 0c0 1.188-.333 2.421-.984 3.392-.655.98-1.655 1.718-2.96 1.805-.803.054-1.877.04-3.36-.057.088.146.201.307.33.475.34.447.416 1.016.244 1.492A1.324 1.324 0 0 1 10 18a8 8 0 0 1-8-8Zm8-6.815a6.815 6.815 0 0 0 0 13.63c.058 0 .086-.016.1-.026a.173.173 0 0 0 .055-.083.404.404 0 0 0-.072-.372 6.476 6.476 0 0 1-.412-.6 2.446 2.446 0 0 1-.283-.638c-.05-.204-.09-.573.18-.87.26-.284.629-.309.886-.29 1.632.116 2.741.13 3.522.079.861-.058 1.557-.537 2.056-1.282.503-.753.783-1.75.783-2.733A6.815 6.815 0 0 0 10 3.185Zm-5.706 8.05a1.827 1.827 0 1 0 3.654 0 1.827 1.827 0 0 0-3.654 0Zm1.827-.643a.642.642 0 1 1 0 1.284.642.642 0 0 1 0-1.284ZM5.747 6.84a1.827 1.827 0 1 0 3.654 0 1.827 1.827 0 0 0-3.654 0Zm1.827-.642a.642.642 0 1 1 0 1.284.642.642 0 0 1 0-1.284Zm2.776.642a1.827 1.827 0 1 0 3.654 0 1.827 1.827 0 0 0-3.654 0Zm1.827-.642a.642.642 0 1 1 0 1.284.642.642 0 0 1 0-1.284Zm-.3 5.036a1.827 1.827 0 1 0 3.654 0 1.827 1.827 0 0 0-3.655 0Zm1.827-.642a.642.642 0 1 1 0 1.284.642.642 0 0 1 0-1.284Z"/></svg>