<svg xmlns="http://www.w3.org/2000/svg" width="24" height="24" fill="none" class="persona-icon" viewBox="0 0 24 24"><path fill="currentColor" fill-rule="evenodd" d="M13.612 20.867A1.68 1.68 0 0 1 12 22C6.477 22 2 17.523 2 12S6.477 2 12 2s10 4.477 10 10v.658c-.002 1.277-.366 2.608-1.065 3.678-.703 1.075-1.775 1.926-3.18 2.105-1.054.134-2.556.147-4.83 0 .104.166.233.349.377.538.431.565.527 1.285.31 1.888Zm-1.447-.52a.473.473 0 0 0-.086-.434 8.101 8.101 0 0 1-.516-.751 3.076 3.076 0 0 1-.356-.804c-.064-.257-.116-.73.233-1.113.332-.364.805-.394 1.128-.371 2.512.18 4.024.165 4.992.041.857-.11 1.57-.628 2.087-1.42.522-.8.813-1.834.814-2.838V12A8.461 8.461 0 1 0 12 20.462c.066 0 .094-.018.106-.027a.187.187 0 0 0 .059-.089Zm-2.691-6.809a2.308 2.308 0 1 1-4.615 0 2.308 2.308 0 0 1 4.615 0Zm-2.308.77a.77.77 0 1 0 0-1.539.77.77 0 0 0 0 1.539Zm4.118-6.246a2.308 2.308 0 1 1-4.615 0 2.308 2.308 0 0 1 4.615 0Zm-2.307.77a.77.77 0 1 0 0-1.54.77.77 0 0 0 0 1.54Zm3.403 9.575a.054.054 0 0 1-.012.001l.012-.001Zm4.64-10.345a2.308 2.308 0 1 1-4.615 0 2.308 2.308 0 0 1 4.616 0Zm-2.307.77a.77.77 0 1 0 0-1.54.77.77 0 0 0 0 1.54Zm4.21 4.707a2.308 2.308 0 1 1-4.615 0 2.308 2.308 0 0 1 4.615 0Zm-2.308.769a.77.77 0 1 0 0-1.539.77.77 0 0 0 0 1.539Z" clip-rule="evenodd"/></svg>