<svg xmlns="http://www.w3.org/2000/svg" width="32" height="32" fill="none" class="persona-icon" viewBox="0 0 32 32"><path fill="currentColor" fill-rule="evenodd" d="M2 16C2 8.268 8.268 2 16 2s14 6.268 14 14c0 2.789-.837 4.35-1.808 5.342-.906.925-2.133 1.8-3.606 2.011-1.335.191-2.669-.085-3.754-.309l-.069-.014c-1.037-.214-1.814-.364-2.468-.287-.546.064-1.014.288-1.437.994-.154.256-.185.55-.067.946.125.419.403.887.782 1.36.566.71.708 1.638.47 2.416-.248.814-.959 1.54-2.043 1.54-7.732 0-14-6.267-14-14M16 4C9.373 4 4 9.372 4 16c0 6.627 5.373 12 12 12a.2.2 0 0 0 .058-.007l.012-.007c.008-.007.038-.036.06-.112a.67.67 0 0 0-.12-.583c-.457-.572-.908-1.271-1.136-2.036-.235-.789-.244-1.693.268-2.547.75-1.25 1.773-1.817 2.92-1.952 1.009-.119 2.094.106 3.023.298l.083.017c1.164.24 2.177.44 3.134.302.865-.124 1.713-.667 2.46-1.43C27.326 19.367 28 18.328 28 16c0-6.628-5.373-12-12-12M6.333 18.167a3.167 3.167 0 1 0 6.334 0 3.167 3.167 0 0 0-6.334 0M9.5 17a1.167 1.167 0 1 1 0 2.333A1.167 1.167 0 0 1 9.5 17m-1-6.056a3.167 3.167 0 1 0 6.333 0 3.167 3.167 0 0 0-6.333 0m3.167-1.166a1.167 1.167 0 1 1 0 2.333 1.167 1.167 0 0 1 0-2.333m4.777-.278a3.167 3.167 0 1 0 6.334 0 3.167 3.167 0 0 0-6.334 0m3.167-1.167a1.167 1.167 0 1 1 0 2.334 1.167 1.167 0 0 1 0-2.334m-.278 8.389a3.167 3.167 0 1 0 6.334 0 3.167 3.167 0 0 0-6.334 0m3.167-1.167a1.167 1.167 0 1 1 0 2.334 1.167 1.167 0 0 1 0-2.334" clip-rule="evenodd"/></svg>