<svg xmlns="http://www.w3.org/2000/svg" width="32" height="32" fill="none"><path fill="#000" fill-rule="evenodd" d="M18.194 28.462c-.308.857-1.092 1.54-2.192 1.54-7.732 0-14-6.268-14-14s6.268-14 14-14 14 6.268 14 14v.014c0 1.086 0 1.867-.012 2.455-.051 2.545-1.615 5.308-4.221 6.163-1.514.497-3.929.658-8.618.345l.025.043c.157.262.362.556.594.86l-.795.606.795-.606c.59.772.72 1.757.424 2.58ZM16.9 24.416l.002.01a.057.057 0 0 1-.002-.01Zm-.375.527a.055.055 0 0 1-.014.002l.014-.002Zm-.213 2.842a.749.749 0 0 0-.132-.69 11.36 11.36 0 0 1-.722-1.05c-.201-.338-.396-.724-.491-1.108-.088-.354-.155-.984.308-1.492.44-.483 1.073-.528 1.52-.496 5.033.36 7.2.162 8.35-.215 1.62-.531 2.807-2.402 2.846-4.304.011-.565.011-1.326.011-2.428 0-6.627-5.372-12-12-12-6.627 0-12 5.373-12 12 0 6.628 5.373 12 12 12 .111 0 .167-.03.199-.053a.344.344 0 0 0 .111-.164Zm6.19-8.45a1.167 1.167 0 1 0 0-2.333 1.167 1.167 0 0 0 0 2.334Zm3.167-1.166a3.167 3.167 0 1 1-6.333 0 3.167 3.167 0 0 1 6.333 0ZM9.195 19.336a1.167 1.167 0 1 0 0-2.334 1.167 1.167 0 0 0 0 2.334Zm3.166-1.167a3.167 3.167 0 1 1-6.333 0 3.167 3.167 0 0 1 6.333 0Zm10.629-7.713a3.167 3.167 0 1 1-6.334 0 3.167 3.167 0 0 1 6.334 0Zm-3.167 1.167a1.167 1.167 0 1 0 0-2.333 1.167 1.167 0 0 0 0 2.333Zm-4.912-1.167a3.167 3.167 0 1 1-6.333 0 3.167 3.167 0 0 1 6.333 0Zm-3.167 1.167a1.167 1.167 0 1 0 0-2.333 1.167 1.167 0 0 0 0 2.333Z" clip-rule="evenodd"/></svg>