<svg xmlns="http://www.w3.org/2000/svg" width="20" height="20" fill="none" class="persona-icon" viewBox="0 0 20 20"><path fill="currentColor" fill-rule="evenodd" d="M6.526 4.266a.79.79 0 0 1 .802-.268L7.336 4l.396.1h.001c.307.077.56.257.739.509l.003.004L11.44 8.88c.061.088.089.107.09.108l.007.003a.3.3 0 0 0 .054.014l.008.001 3.491.695h.001c.597.117 1.168.385 1.585.769.417.382.738.944.633 1.603l-.002.012c-.129.708-.66 1.133-1.235 1.32-.566.185-1.236.172-1.865.002l-9.603-2.584c-.588-.158-1.17-.513-1.319-1.214v-.005L2.69 6.701V6.7a.86.86 0 0 1 .115-.646.86.86 0 0 1 .564-.373l.204-.043a1.1 1.1 0 0 1 .559.008c.216.063.368.191.476.316l.004.003 1.714 2.003.773.152-.735-3.113a.87.87 0 0 1 .161-.741M3.342 15.4c0-.345.28-.625.625-.625h12.066a.625.625 0 0 1 0 1.25H3.967a.625.625 0 0 1-.625-.625m4.526-9.47.895 3.79L5.66 9.11 4.083 7.268l.425 2.082c.009.037.025.069.072.108a.9.9 0 0 0 .347.156l9.607 2.585c.447.122.862.111 1.15.017.273-.089.366-.222.391-.348.015-.11-.024-.277-.244-.48-.223-.204-.574-.382-.98-.461h-.003l-3.49-.695a1.4 1.4 0 0 1-.538-.217 1.6 1.6 0 0 1-.405-.42v-.001z" clip-rule="evenodd"/></svg>