<svg xmlns="http://www.w3.org/2000/svg" width="24" height="24" fill="none" class="persona-icon" viewBox="0 0 24 24"><path fill="currentColor" fill-rule="evenodd" d="M7.406 4.357a.97.97 0 0 1 .987-.329l.009.003.532.135h.001c.39.098.713.326.94.647l.005.006 3.98 5.727c.087.123.13.157.144.167.007.005.03.02.117.037l.009.002 4.687.932h.001c.788.155 1.539.508 2.085 1.01.545.501.957 1.228.821 2.073v.008l-.002.007c-.165.91-.846 1.458-1.598 1.704-.74.242-1.62.226-2.452 0L4.779 13.018c-.775-.207-1.517-.669-1.706-1.562l-.001-.006-.798-3.896V7.55a1.07 1.07 0 0 1 .143-.8c.169-.262.43-.41.7-.463l.275-.058a1.4 1.4 0 0 1 .706.01c.269.079.46.238.598.397l.004.004L7.02 9.353l1.205.236-1.019-4.312c-.065-.291-.029-.64.199-.92M3.15 19.25a.75.75 0 0 1 .75-.75h16.2a.75.75 0 0 1 0 1.5H3.9a.75.75 0 0 1-.75-.75M8.943 6.1l1.277 5.41-4-.785L3.9 8.013l.64 3.132c.022.1.11.285.627.423h.001l12.896 3.47c.613.167 1.189.155 1.595.022.39-.127.545-.328.585-.537.027-.185-.045-.438-.356-.724-.313-.288-.8-.533-1.359-.642h-.002l-4.686-.934a1.75 1.75 0 0 1-.69-.276 2.1 2.1 0 0 1-.52-.543z" clip-rule="evenodd"/></svg>