<svg xmlns="http://www.w3.org/2000/svg" width="20" height="20" fill="none" class="persona-icon" viewBox="0 0 20 20"><path fill="currentColor" fill-rule="evenodd" d="M10 2.775a3.557 3.557 0 0 1 3.558 3.558V7.91a2.56 2.56 0 0 1 2.467 2.56v4.193a2.56 2.56 0 0 1-2.561 2.562H6.537a2.56 2.56 0 0 1-2.562-2.562V10.47a2.56 2.56 0 0 1 2.467-2.56V6.333A3.56 3.56 0 0 1 10 2.775m2.308 5.133V6.333a2.309 2.309 0 1 0-4.616 0v1.575zM10 11.208a.625.625 0 0 0-.625.625V13.3a.625.625 0 1 0 1.25 0v-1.467a.625.625 0 0 0-.625-.625" clip-rule="evenodd"/></svg>