<svg xmlns="http://www.w3.org/2000/svg" width="32" height="32" fill="none" class="persona-icon" viewBox="0 0 32 32"><path fill="currentColor" fill-rule="evenodd" d="M16 4a5.89 5.89 0 0 1 5.889 5.889v2.668a4.23 4.23 0 0 1 4.11 4.226v6.99A4.23 4.23 0 0 1 21.773 28H10.227A4.227 4.227 0 0 1 6 23.772v-6.989a4.23 4.23 0 0 1 4.111-4.226V9.889A5.89 5.89 0 0 1 16 3.999m3.889 8.555V9.89a3.888 3.888 0 0 0-6.639-2.75 3.9 3.9 0 0 0-1.139 2.75v2.666zm-3.89 5.5a1 1 0 0 0-1 1V21.5a1 1 0 1 0 2 0v-2.445a1 1 0 0 0-1-1" clip-rule="evenodd"/></svg>