<svg xmlns="http://www.w3.org/2000/svg" width="20" height="20" fill="none" class="persona-icon" viewBox="0 0 20 20"><path fill="currentColor" d="M9.877 10.801a5.12 5.12 0 0 0-1.06 3.127c0 1.17.392 2.25 1.05 3.114H6.532a2.764 2.764 0 0 1-2.763-2.764v-.171c0-.621.221-1.222.624-1.695a4.6 4.6 0 0 1 3.494-1.61zM9.384 2.959a3.477 3.477 0 1 1 0 6.953 3.477 3.477 0 0 1 0-6.954"/><path fill="currentColor" fill-rule="evenodd" d="M10.067 13.928a3.892 3.892 0 1 1 7.783 0 3.892 3.892 0 0 1-7.783 0m1.634-1.373a2.642 2.642 0 0 0 3.63 3.63zm.884-.884 3.63 3.63a2.642 2.642 0 0 0-3.63-3.63" clip-rule="evenodd"/></svg>