<svg xmlns="http://www.w3.org/2000/svg" width="24" height="24" fill="none" class="persona-icon" viewBox="0 0 24 24"><path fill="currentColor" d="M12.004 13.084a6.42 6.42 0 0 0-1.364 3.966c0 1.488.504 2.859 1.35 3.95H7.543a3.5 3.5 0 0 1-3.5-3.5v-.22c0-.786.28-1.546.79-2.144a5.85 5.85 0 0 1 4.452-2.052zM14.875 7.417a3.667 3.667 0 1 1-7.333 0 3.667 3.667 0 0 1 7.333 0"/><path fill="currentColor" fill-rule="evenodd" d="M12.14 17.05a4.95 4.95 0 1 1 9.9 0 4.95 4.95 0 0 1-9.9 0m2.038-1.851a3.45 3.45 0 0 0 4.763 4.763zm1.06-1.06 4.764 4.762a3.45 3.45 0 0 0-4.763-4.763" clip-rule="evenodd"/></svg>