<svg xmlns="http://www.w3.org/2000/svg" width="32" height="32" fill="none" class="persona-icon" viewBox="0 0 32 32"><path fill="currentColor" d="M14.945 4a5.889 5.889 0 1 1 0 11.778 5.889 5.889 0 0 1 0-11.778M16.005 17.445a8.56 8.56 0 0 0-1.818 5.288c0 1.985.672 3.812 1.8 5.267h-5.932a4.667 4.667 0 0 1-4.666-4.667v-.293c0-1.048.373-2.061 1.054-2.858a7.8 7.8 0 0 1 5.935-2.737z"/><path fill="currentColor" fill-rule="evenodd" d="M16.187 22.733a6.6 6.6 0 1 1 13.2 0 6.6 6.6 0 0 1-13.2 0m2.717-2.468a4.6 4.6 0 0 0 6.35 6.35zm1.415-1.414 6.35 6.35a4.6 4.6 0 0 0-6.35-6.35" clip-rule="evenodd"/></svg>