<svg xmlns="http://www.w3.org/2000/svg" width="80" height="80" fill="none" class="persona-ilustration" viewBox="0 0 80 80"><g clip-path="url(#PbMTPVNzdLnFOtkYWHZt8aRPJ3CI5n63SJxrJHOWhr0_a)"><g clip-path="url(#PbMTPVNzdLnFOtkYWHZt8aRPJ3CI5n63SJxrJHOWhr0_b)"><rect width="66.667" height="66.667" x="6.667" y="6.667" fill="#D3EDFF" rx="33.333"/><path fill="#30457A" d="M46.039 52.087C31.099 34.138 24.713 31.562 17.69 35.634s12.315 70.632 12.315 70.632l31.445 1.888-.051-.303c-2.536-14.81-8.04-46.97-15.36-55.764"/><path fill="#3F568E" d="M62.852 40.134c-6.302-9.643-35.408-7.745-42.98-5.58-7.573 2.164 8.219 51.02 8.219 51.02l34.761 19.343c-2.511-14.67 6.301-55.14 0-64.783"/><path fill="#EFEFEF" d="M75.502 81.487c2.535 1.578 11.2 3.657 14.02-2.43C86.652 72.76 74.776 36 61.303 44.8c-3.634 2.374 12.745 30.146 14.2 36.687"/><mask id="PbMTPVNzdLnFOtkYWHZt8aRPJ3CI5n63SJxrJHOWhr0_c" width="53" height="77" x="25" y="38" maskUnits="userSpaceOnUse" style="mask-type:alpha"><path fill="#666" d="M74.792 51.43s-3.573-7.696-9.61-8.268c-7.07-.67-18.903-4.732-21.949-4.35-3.046.384-12.56 2.82-8.939 16.681 5.39 20.631-9.138 57.487-9.138 57.487s34.82 2.393 47.518-.09c1.944-13.835 2.731-19.314 4.225-40.52 1.92-16.036-2.107-20.94-2.107-20.94"/></mask><g mask="url(#PbMTPVNzdLnFOtkYWHZt8aRPJ3CI5n63SJxrJHOWhr0_c)"><path fill="#666" d="M73.545 51.535s-2.327-7.801-8.364-8.373c-7.07-.67-18.903-4.732-21.949-4.35-3.046.384-12.56 2.82-8.939 16.681 5.39 20.631-9.138 57.487-9.138 57.487s30.868 2.482 43.566 0c1.944-13.835 2.731-19.315 4.225-40.521 1.92-16.036.599-20.924.599-20.924"/><path fill="#F8F8F8" d="M64.475 41.822c2.603 2.73.888 10.782-.676 13.786-1.036 1.99-6.709-3.935-14.597-16.463-1.76-3.573 12.02-.737 15.273 2.677"/><path fill="#8E8E8E" fill-rule="evenodd" d="M60.945 38.272c1.761.706 3.447 1.606 4.457 2.666.907.952 1.351 2.263 1.551 3.574.203 1.33.176 2.805.02 4.24-.312 2.845-1.166 5.77-2.039 7.447-.151.291-.379.57-.704.774a1.95 1.95 0 0 1-1.013.292c-.62.01-1.203-.247-1.676-.525-.975-.574-2.134-1.64-3.42-3.06-2.605-2.878-6.04-7.562-10.002-13.853a1 1 0 0 1-.065-.117c-.357-.726-.465-1.66.182-2.436.52-.623 1.317-.857 1.942-.961 1.324-.222 3.164-.06 5.02.292a32 32 0 0 1 5.747 1.667m-10.415.578c3.821 6.037 7.078 10.448 9.489 13.111 1.247 1.378 2.194 2.203 2.82 2.573l.044.025c.632-1.416 1.288-3.747 1.544-6.087.142-1.296.154-2.533-.005-3.574-.161-1.06-.479-1.78-.873-2.193-.617-.647-1.874-1.382-3.556-2.056a29.4 29.4 0 0 0-5.273-1.529c-1.776-.337-3.254-.427-4.12-.282z" clip-rule="evenodd"/></g><path fill="#8E8E8E" d="M41.171 64.188c-2.568 1.523-9.522 2.034-12.211-4.11 0-8.405 11.735-25.624 16.861-20.394 3.583 2.45 2.243 27.781-4.65 24.504"/><path fill="#EFEFEF" d="M43.194 65.024c-2.568 1.524-13.585 1.57-16.274-4.576 0-8.404 11.735-25.623 16.861-20.394 3.583 2.451 1.006 18.462-.587 24.97"/><mask id="PbMTPVNzdLnFOtkYWHZt8aRPJ3CI5n63SJxrJHOWhr0_d" width="15" height="26" x="51" y="22" maskUnits="userSpaceOnUse" style="mask-type:alpha"><path fill="#000" d="M65.38 32.039s-3.182 10.135-2.544 14.38c.625 4.163-11.34-5.851-11.34-5.851s-1.027-5.04.619-15.224c1.645-10.183 13.269 6.694 13.269 6.694z"/></mask><g mask="url(#PbMTPVNzdLnFOtkYWHZt8aRPJ3CI5n63SJxrJHOWhr0_d)"><path fill="#F1AA90" d="M65.38 32.039s-3.183 10.135-2.544 14.38c.625 4.164-12.4-6.007-12.4-6.007s1.663-2.889 3.309-13.073c1.645-10.183 11.638 4.699 11.638 4.699z"/><path fill="#000" fill-opacity=".5" d="M51.262 24.944s.172 6.047 5.819 12.136c8.948 6.789 13.451 2.543 13.451 2.543L53.939 22.345z" style="mix-blend-mode:overlay"/></g><path fill="#E4E4E4" d="M62.628 47.886 59.6 43.96s-6.944-2.78-7.4-8.91c-.277 4.35-2.857 4.202-2.857 4.202s5.112 9.081 13.076 9.341z"/><path fill="#E4E4E4" d="M63.282 40.34c.767 2.904 1.196 3.878 1.196 3.878s.667 4.308-2.34 4.374l.439-4.374c.253-1.302.566-2.966.705-3.877"/><path fill="#F8F8F8" d="M48.215 38.798c.612 3.979 5.168 9.06 5.168 9.06s1.497.525 4.025-1.427c2.528-1.95 2.226-2.479 2.226-2.479-3.605-1.64-7.166-5.082-7.433-8.911 0 0-3.315 1.746-3.986 3.757M63.414 39.931s2.13 3.661 4.468 6.861c-1.339.461-2.06-.156-2.995-.492-.968-.347-2.278-2.412-2.278-2.412z"/></g><path fill="#F1AA90" d="M74.328 17.569C73.438 7.3 66.204 5.19 59.608 7.037c-5.44 1.523-8.422 3.971-8.363 10.994.076 9.152 5.242 17.715 8.462 19.921 2.175 1.49 4.962 2.724 8.108 1.081l.035-.018c2.736-1.429 4.909-2.564 6.176-10.21 0 0 .526-8.656.302-11.236"/><path fill="#411917" d="M61.6 23.779c.398-.009.71-.565.695-1.242-.014-.677-.35-1.22-.75-1.21-.398.008-.71.564-.695 1.242.014.677.35 1.219.75 1.21"/><path stroke="#411917" stroke-linecap="round" stroke-miterlimit="10" stroke-width=".646" d="M64.43 22.053s-.981-1.87-5.032.116"/><path fill="#411917" d="M58.702 20.328s1.852-1.009 3.35-.893c1.037.08 2.385.798 2.385.798s.376.029-.096-.915-2.83-.739-2.83-.739-1.393.146-2.567.928c-.488.327-.567.874-.567.874s.045.216.325-.056zM70.456 23.365c-.363-.03-.62-.602-.574-1.277.046-.676.377-1.199.74-1.169.362.03.619.602.573 1.278-.046.675-.376 1.198-.74 1.168"/><path stroke="#411917" stroke-linecap="round" stroke-miterlimit="10" stroke-width=".646" d="M68.976 21.804s1.557-2.09 4.263-.035"/><path fill="#411917" d="M73.565 19.287s-1.764-.834-3.113-.581c-.933.174-2.093 1.014-2.093 1.014s-.34.063.009-.92c.347-.983 2.501-.996 2.501-.996s1.276.018 2.406.688c.47.281.589.819.589.819s-.023.219-.3-.027z"/><path fill="#000" fill-opacity=".5" d="M70.2 27.805c-.046.273-1.203.823-1.776 1.063-2.333-.251-2.057-.495-1.377-1.037.68-.543 3.21-.369 3.153-.026" style="mix-blend-mode:overlay"/><path stroke="#411917" stroke-linecap="round" stroke-linejoin="round" stroke-width=".646" d="M67.32 23.206s.302 2.587 1.58 3.884c.249.252.259.58.04.846"/><mask id="PbMTPVNzdLnFOtkYWHZt8aRPJ3CI5n63SJxrJHOWhr0_e" width="6" height="4" x="62" y="31" maskUnits="userSpaceOnUse" style="mask-type:alpha"><path fill="#411917" d="M67.382 32.959c.59 1.44-.374 2.134-1.616 1.526-.858-.347-1.577-.697-2.33-.92-.94-.28-1.31-.774-.743-1.41.589-.662 3.601-1.855 4.689.804"/></mask><g mask="url(#PbMTPVNzdLnFOtkYWHZt8aRPJ3CI5n63SJxrJHOWhr0_e)"><path fill="#411917" d="M67.382 32.959c.59 1.44-.374 2.134-1.616 1.526-.858-.347-1.577-.697-2.33-.92-.94-.28-1.31-.774-.743-1.41.589-.662 3.601-1.855 4.689.804"/><path fill="#EA4F4A" d="M62.123 34.682c-1.516-.867-2.438-2.055-2.06-2.655s1.915-.383 3.43.484c1.517.867 2.439 2.055 2.06 2.654-.379.6-1.914.383-3.43-.483"/></g><path fill="#212121" d="m55.081 26.471-.932.564c-.193-1.03-.695-3.325-1.163-4.269-.585-1.18-2.538-.08-4.001-.982-1.463-.901-1.953-6.921-1.196-9.5.605-2.062 3.649-2.06 5.095-1.802.69.164 2.23 1.173 2.875 3.902.807 3.411-1.016 3.934-1.335 6.306-.255 1.897.332 4.644.657 5.781"/><path fill="#fff" d="m55.081 26.471-.932.564c-.193-1.03-.695-3.325-1.163-4.269-.585-1.18-2.538-.08-4.001-.982-1.463-.901-1.953-6.921-1.196-9.5.605-2.062 3.649-2.06 5.095-1.802.69.164 2.23 1.173 2.875 3.902.807 3.411-1.016 3.934-1.335 6.306-.255 1.897.332 4.644.657 5.781" opacity=".5" style="mix-blend-mode:overlay"/><path fill="#212121" d="M70.334 12.613c-6.568.61-12.983-.858-14.448 2.513-1.042.424-5.25-2.646-6.43-3.805-1.473-1.45-1.071-4.848 5.09-8.338 4.928-2.792 10.45-2.849 12.88.885.528-.306 4.321-1.152 6.594 2.53 1.81 2.93.401 6.895.076 9.147-.306-.6-.912-3.196-3.762-2.932"/><path fill="#F1AA90" d="M48.54 21.221c.858-1.373 3.825.084 4.153 1.684a163 163 0 0 0 1.23 5.436c-.48 2.324-1.733 1.502-2.522.984l-.019-.012c-1.78-.946-3.698-6.719-2.841-8.092"/><path fill="#000" fill-opacity=".5" d="M51.584 23.022s-2.534-1.847-1.444 2.013c.603 2.136 1.153-1.268 2.168.075-.031-.72-.079-1.262-.724-2.088" style="mix-blend-mode:overlay"/><path fill="#411917" fill-rule="evenodd" d="M50.656 23.953a.36.36 0 0 1 .485-.148c1.43.761 1.661 2.046 1.833 3l.014.077a.358.358 0 0 1-.62.302l-.023-.026c-.23-.26-.414-.465-.597-.57a.33.33 0 0 0-.19-.054c-.044.004-.118.026-.226.122a.358.358 0 1 1-.477-.535c.195-.173.408-.28.64-.3.204-.018.387.033.544.112-.192-.587-.523-1.117-1.235-1.496a.36.36 0 0 1-.148-.484" clip-rule="evenodd"/><path fill="#F1AA90" d="m38.305 73.58 1.379-1.692c3.088-4.549 5.775-11.338 6.124-16.846.073-1.199.302-2.38.68-3.521l1.025-3.099a1.097 1.097 0 0 0-.863-1.427 3.92 3.92 0 0 0-3.657 1.354 16.7 16.7 0 0 0-3.038 5.429l-.293.874a1.81 1.81 0 0 1-2.08 1.2l-1.938-7.195-4.8-18.607a2.61 2.61 0 0 0-1.667-1.816 1.978 1.978 0 0 0-2.587 2.274l2.88 17.169a.28.28 0 0 1-.538.145l-4.509-12.208-2.351-6.66a2.235 2.235 0 0 0-3.815-.364l-.134.18a2.23 2.23 0 0 0-.346 1.955l5.538 18.611a.28.28 0 0 1-.136.325l-.212.114-6.165-15.541c-.885-2.053-2.254-2.108-3.033-1.775-1.314.559-1.607 1.511-1.228 2.945 1.119 4.217 5.157 16.066 5.685 17.61a.27.27 0 0 1-.07.29l-.218.211-6.51-12.401a1.95 1.95 0 0 0-2.893-.012c-.612.67-.511 1.314-.167 2.424 0 0 5.054 11.973 6.135 14.285 1.086 7.455 2.258 11 5.825 15.693 3.003 6.41 13.496 3.574 17.977.076"/><path fill="#000" fill-rule="evenodd" d="M33.992 55.89a.32.32 0 0 1-.004.453c-1.357 1.332-3.4 3.51-5.112 5.706-.856 1.099-1.625 2.196-2.184 3.19-.566 1.006-.893 1.866-.915 2.5a.32.32 0 1 1-.64-.02c.028-.797.422-1.77.997-2.793.58-1.033 1.37-2.158 2.237-3.27 1.735-2.225 3.797-4.423 5.169-5.77a.32.32 0 0 1 .452.005M33.213 54.93a.32.32 0 0 1-.198.407 65 65 0 0 0-6.537 2.687c-1.187.572-2.327 1.18-3.283 1.792-.962.615-1.717 1.219-2.156 1.775a.32.32 0 0 1-.503-.397c.507-.64 1.334-1.29 2.314-1.917.986-.63 2.15-1.251 3.35-1.83a66 66 0 0 1 6.606-2.715.32.32 0 0 1 .407.198" clip-rule="evenodd" opacity=".5" style="mix-blend-mode:overlay"/></g><defs><clipPath id="PbMTPVNzdLnFOtkYWHZt8aRPJ3CI5n63SJxrJHOWhr0_a"><path fill="#fff" d="M0 0h80v80H0z"/></clipPath><clipPath id="PbMTPVNzdLnFOtkYWHZt8aRPJ3CI5n63SJxrJHOWhr0_b"><rect width="66.667" height="66.667" x="6.667" y="6.667" fill="#fff" rx="33.333"/></clipPath></defs></svg>