<svg xmlns="http://www.w3.org/2000/svg" width="150" height="150" fill="none" class="persona-ilustration" viewBox="0 0 150 150"><g clip-path="url(#Gf39ZQKStY_a)"><g clip-path="url(#Gf39ZQKStY_b)"><rect width="125" height="125" x="12.5" y="12.5" fill="#D3EDFF" rx="62.5"/><path fill="#30457A" d="M72.2 81.688C48.859 53.643 38.88 49.617 27.907 55.98s19.243 110.362 19.243 110.362l49.132 2.95-.08-.472c-3.962-23.142-12.563-73.392-24-87.132"/><path fill="#3F568E" d="M98.471 63.012c-9.846-15.068-55.325-12.102-67.157-8.72s12.843 79.719 12.843 79.719l54.315 30.224c-3.924-22.923 9.845-86.155 0-101.223"/><path fill="#EFEFEF" d="M118.238 127.626c3.96 2.465 17.501 5.714 21.906-3.795-4.485-9.841-23.041-67.28-44.092-53.529-5.678 3.71 19.914 47.103 22.186 57.324"/><mask id="Gf39ZQKStY_c" width="83" height="119" x="39" y="60" maskUnits="userSpaceOnUse" style="mask-type:alpha"><path fill="#666" d="M117.127 80.664s-5.583-12.027-15.015-12.92c-11.048-1.047-29.535-7.394-34.295-6.796S48.191 65.353 53.85 87.01c8.422 32.236-14.279 89.823-14.279 89.823s54.406 3.739 74.247-.14c3.037-21.617 4.268-30.179 6.601-63.314 3.001-25.055-3.292-32.716-3.292-32.716"/></mask><g mask="url(#Gf39ZQKStY_c)"><path fill="#666" d="M115.179 80.826s-3.636-12.19-13.069-13.083c-11.048-1.046-29.535-7.393-34.295-6.795S48.19 65.353 53.848 87.01c8.422 32.236-14.279 89.823-14.279 89.823s48.231 3.879 68.072 0c3.037-21.617 4.268-30.179 6.602-63.314 3-25.055.936-32.694.936-32.694"/><path fill="#F8F8F8" d="M101.008 65.65c4.067 4.266 1.388 16.846-1.057 21.54-1.62 3.11-10.482-6.149-22.807-25.723-2.75-5.584 18.78-1.151 23.864 4.183"/><path fill="#8E8E8E" fill-rule="evenodd" d="M95.492 60.104c2.752 1.103 5.385 2.51 6.964 4.165 1.417 1.487 2.111 3.536 2.423 5.584.317 2.08.276 4.384.03 6.624-.486 4.447-1.82 9.018-3.184 11.637a3.1 3.1 0 0 1-1.1 1.21c-.51.32-1.062.449-1.584.457-.968.014-1.879-.387-2.618-.822-1.523-.896-3.334-2.562-5.344-4.782-4.07-4.496-9.438-11.815-15.628-21.645a2 2 0 0 1-.101-.182c-.559-1.133-.726-2.592.285-3.806.811-.974 2.057-1.339 3.033-1.502 2.069-.346 4.944-.093 7.843.457 2.956.561 6.163 1.475 8.98 2.605m-16.273.903c5.97 9.432 11.059 16.325 14.826 20.486 1.949 2.153 3.428 3.443 4.407 4.02l.069.039c.986-2.213 2.012-5.854 2.412-9.51.222-2.025.24-3.96-.008-5.585-.253-1.657-.748-2.781-1.365-3.428-.963-1.01-2.928-2.158-5.556-3.212-2.563-1.027-5.52-1.872-8.239-2.388-2.775-.527-5.084-.668-6.437-.442z" clip-rule="evenodd"/></g><path fill="#8E8E8E" d="M64.595 100.596c-4.012 2.38-14.879 3.178-19.08-6.423 0-13.132 18.336-40.037 26.346-31.865 5.598 3.83 3.504 43.408-7.266 38.288"/><path fill="#EFEFEF" d="M67.755 101.903c-4.012 2.38-21.226 2.451-25.428-7.15 0-13.132 18.336-40.037 26.346-31.866 5.598 3.83 1.572 28.846-.918 39.016"/><mask id="Gf39ZQKStY_d" width="23" height="41" x="80" y="34" maskUnits="userSpaceOnUse" style="mask-type:alpha"><path fill="#000" d="M102.422 50.364S97.45 66.2 98.447 72.832c.976 6.506-17.719-9.142-17.719-9.142s-1.605-7.874.966-23.786 20.733 10.458 20.733 10.458z"/></mask><g mask="url(#Gf39ZQKStY_d)"><path fill="#F1AA90" d="M102.421 50.364S97.449 66.2 98.446 72.832c.976 6.506-19.374-9.385-19.374-9.385s2.598-4.514 5.169-20.426c2.571-15.913 18.185 7.341 18.185 7.341z"/><path fill="#000" fill-opacity=".5" d="M80.361 39.279s.27 9.448 9.093 18.962c13.982 10.608 21.018 3.973 21.018 3.973L84.544 35.217z" style="mix-blend-mode:overlay"/></g><path fill="#E4E4E4" d="m98.121 75.124-4.73-6.134s-10.85-4.343-11.561-13.92c-.433 6.794-4.464 6.564-4.464 6.564s7.987 14.19 20.431 14.596z"/><path fill="#E4E4E4" d="M99.143 63.335c1.198 4.537 1.869 6.058 1.869 6.058s1.043 6.732-3.657 6.835l.687-6.835c.395-2.034.884-4.635 1.101-6.058"/><path fill="#F8F8F8" d="M75.602 60.924c.956 6.217 8.075 14.158 8.075 14.158s2.338.819 6.288-2.23 3.479-3.874 3.479-3.874c-5.634-2.561-11.197-7.942-11.614-13.924 0 0-5.181 2.728-6.228 5.87M99.349 62.695s3.328 5.72 6.982 10.72c-2.092.72-3.219-.244-4.68-.769-1.513-.543-3.56-3.768-3.56-3.768z"/></g><path fill="#F1AA90" d="M116.403 27.753c-1.39-16.044-12.694-19.34-23-16.455-8.5 2.379-13.16 6.205-13.068 17.177.119 14.301 8.19 27.681 13.222 31.127 3.4 2.329 7.754 4.257 12.668 1.69l.055-.029c4.275-2.232 7.671-4.006 9.651-15.951 0 0 .821-13.527.472-17.559"/><path fill="#411917" d="M96.514 37.457c.624-.013 1.11-.882 1.088-1.94-.024-1.059-.548-1.906-1.172-1.892s-1.11.883-1.087 1.94c.023 1.06.547 1.906 1.17 1.892"/><path stroke="#411917" stroke-linecap="round" stroke-miterlimit="10" stroke-width="1.009" d="M100.937 34.76s-1.533-2.921-7.862.181"/><path fill="#411917" d="M91.988 32.065s2.892-1.577 5.234-1.396c1.62.124 3.726 1.247 3.726 1.247s.588.045-.15-1.43-4.422-1.154-4.422-1.154-2.176.229-4.01 1.45c-.764.512-.887 1.366-.887 1.366s.07.338.508-.088zM110.353 36.81c-.567-.047-.968-.94-.897-1.996.072-1.056.589-1.873 1.155-1.826s.968.941.897 1.997c-.072 1.055-.589 1.873-1.155 1.825"/><path stroke="#411917" stroke-linecap="round" stroke-miterlimit="10" stroke-width="1.009" d="M108.04 34.371s2.433-3.265 6.662-.055"/><path fill="#411917" d="M115.21 30.439s-2.756-1.304-4.863-.909c-1.459.273-3.272 1.585-3.272 1.585s-.529.099.014-1.437c.544-1.536 3.91-1.556 3.91-1.556s1.992.027 3.759 1.075c.735.438.92 1.278.92 1.278s-.036.343-.468-.042z"/><path fill="#000" fill-opacity=".5" d="M109.952 43.747c-.071.428-1.879 1.286-2.775 1.662-3.644-.393-3.213-.774-2.151-1.621s5.015-.576 4.926-.041" style="mix-blend-mode:overlay"/><path stroke="#411917" stroke-linecap="round" stroke-linejoin="round" stroke-width="1.009" d="M105.453 36.561s.471 4.043 2.467 6.07c.39.394.406.905.063 1.321"/><mask id="Gf39ZQKStY_e" width="9" height="6" x="97" y="49" maskUnits="userSpaceOnUse" style="mask-type:alpha"><path fill="#411917" d="M105.55 51.8c.92 2.25-.584 3.335-2.525 2.386-1.34-.543-2.465-1.09-3.64-1.439-1.469-.436-2.048-1.209-1.162-2.204.92-1.033 5.627-2.896 7.327 1.257"/></mask><g mask="url(#Gf39ZQKStY_e)"><path fill="#411917" d="M105.55 51.8c.92 2.25-.584 3.335-2.525 2.386-1.34-.543-2.465-1.09-3.64-1.439-1.469-.436-2.048-1.209-1.162-2.204.92-1.033 5.627-2.896 7.327 1.257"/><path fill="#EA4F4A" d="M97.332 54.493c-2.369-1.355-3.81-3.211-3.218-4.148s2.992-.598 5.36.756 3.81 3.21 3.218 4.148c-.591.936-2.991.598-5.36-.756"/></g><path fill="#212121" d="m86.33 41.664-1.458.882c-.3-1.61-1.085-5.197-1.816-6.671-.914-1.843-3.967-.126-6.252-1.535-2.286-1.408-3.051-10.814-1.869-14.843.946-3.222 5.702-3.22 7.961-2.816 1.078.256 3.484 1.833 4.493 6.097 1.26 5.33-1.588 6.147-2.086 9.852-.398 2.965.519 7.258 1.027 9.034"/><path fill="#fff" d="m86.33 41.664-1.458.882c-.3-1.61-1.085-5.197-1.816-6.671-.914-1.843-3.967-.126-6.252-1.535-2.286-1.408-3.051-10.814-1.869-14.843.946-3.222 5.702-3.22 7.961-2.816 1.078.256 3.484 1.833 4.493 6.097 1.26 5.33-1.588 6.147-2.086 9.852-.398 2.965.519 7.258 1.027 9.034" opacity=".5" style="mix-blend-mode:overlay"/><path fill="#212121" d="M110.162 20.01c-10.262.952-20.286-1.341-22.575 3.927-1.629.663-8.204-4.134-10.046-5.946-2.302-2.264-1.675-7.575 7.951-13.028C93.192.6 101.82.513 105.62 6.346c.824-.477 6.751-1.8 10.302 3.953 2.827 4.579.627 10.773.119 14.293-.478-.937-1.425-4.995-5.878-4.582"/><path fill="#F1AA90" d="M76.11 33.46c1.34-2.145 5.975.132 6.487 2.631.85 4.148 1.922 8.494 1.922 8.494-.75 3.632-2.706 2.348-3.94 1.538l-.029-.02c-2.781-1.477-5.78-10.497-4.44-12.643"/><path fill="#000" fill-opacity=".5" d="M80.866 36.273s-3.96-2.886-2.257 3.146c.942 3.338 1.802-1.982 3.388.117-.05-1.125-.123-1.972-1.131-3.263" style="mix-blend-mode:overlay"/><path fill="#411917" fill-rule="evenodd" d="M79.415 37.728a.56.56 0 0 1 .757-.231c2.235 1.19 2.597 3.197 2.865 4.688l.022.12a.56.56 0 0 1-.969.472l-.036-.041c-.36-.405-.647-.727-.934-.89a.5.5 0 0 0-.295-.084c-.07.006-.185.04-.354.19a.56.56 0 0 1-.745-.835c.304-.271.638-.437 1-.47.318-.028.604.052.85.175-.3-.918-.817-1.745-1.93-2.337a.56.56 0 0 1-.23-.757" clip-rule="evenodd"/><path fill="#F1AA90" d="m60.117 115.27 2.154-2.643c4.825-7.108 9.023-17.715 9.568-26.322a21.7 21.7 0 0 1 1.063-5.502l1.602-4.841c.33-1-.309-2.057-1.348-2.23a6.13 6.13 0 0 0-5.715 2.115 26.1 26.1 0 0 0-4.746 8.483l-.458 1.366a2.826 2.826 0 0 1-3.25 1.874L55.96 76.329l-7.501-29.074a4.08 4.08 0 0 0-2.603-2.838 3.08 3.08 0 0 0-3.088.62 3.09 3.09 0 0 0-.954 2.933l4.5 26.827a.439.439 0 0 1-.841.227l-7.046-19.076-3.674-10.407a3.493 3.493 0 0 0-5.96-.567l-.21.28a3.49 3.49 0 0 0-.54 3.055l8.653 29.08a.44.44 0 0 1-.212.508l-.332.179-9.632-24.284c-1.383-3.208-3.523-3.293-4.74-2.773-2.053.873-2.511 2.361-1.919 4.602 1.748 6.589 8.058 25.102 8.883 27.514a.43.43 0 0 1-.11.453l-.34.331L18.12 64.542a3.05 3.05 0 0 0-4.519-.019c-.956 1.047-.799 2.054-.261 3.788 0 0 7.898 18.708 9.586 22.32 1.697 11.649 3.528 17.188 9.102 24.521 4.693 10.016 21.087 5.585 28.089.118"/><path fill="#000" fill-rule="evenodd" d="M53.378 87.631a.5.5 0 0 1-.007.707c-2.12 2.081-5.311 5.483-7.987 8.916-1.338 1.716-2.54 3.431-3.413 4.985-.884 1.57-1.395 2.914-1.429 3.906a.5.5 0 0 1-.999-.033c.042-1.245.657-2.766 1.556-4.363.908-1.615 2.142-3.373 3.496-5.11 2.71-3.476 5.933-6.91 8.076-9.014a.5.5 0 0 1 .707.006M52.16 86.13a.5.5 0 0 1-.31.635c-2.526.871-6.504 2.412-10.213 4.2-1.855.893-3.635 1.844-5.13 2.8-1.503.96-2.682 1.904-3.369 2.773a.5.5 0 1 1-.785-.62c.792-1.002 2.084-2.017 3.616-2.996 1.54-.985 3.358-1.955 5.234-2.859 3.751-1.807 7.766-3.362 10.322-4.243a.5.5 0 0 1 .636.31" clip-rule="evenodd" opacity=".5" style="mix-blend-mode:overlay"/></g><defs><clipPath id="Gf39ZQKStY_a"><path fill="#fff" d="M0 0h150v150H0z"/></clipPath><clipPath id="Gf39ZQKStY_b"><rect width="125" height="125" x="12.5" y="12.5" fill="#fff" rx="62.5"/></clipPath></defs></svg>