<svg xmlns="http://www.w3.org/2000/svg" width="16" height="16" fill="none" class="persona-icon" viewBox="0 0 16 16"><path fill="currentColor" fill-rule="evenodd" d="M3.162 4.416a.5.5 0 0 1 .162.689 5.5 5.5 0 0 0 .898 6.893l-.08-.771a.5.5 0 1 1 .994-.105l.202 1.925a.502.502 0 0 1-.535.553l-1.954.037a.5.5 0 0 1-.018-1l.601-.012a6.5 6.5 0 0 1-1.76-3.137 6.5 6.5 0 0 1 .801-4.91.5.5 0 0 1 .689-.162M6.038.514a.5.5 0 0 1 .266.655l-.268.635a6.5 6.5 0 0 1 7.65 3.045.5.5 0 0 1-.876.485 5.5 5.5 0 0 0-6.266-2.637l.613.198a.5.5 0 0 1-.308.951l-1.885-.61a.5.5 0 0 1-.314-.718L5.383.78a.5.5 0 0 1 .655-.266m3.374 4.484h.534a.5.5 0 1 1 0 1h-.072c-.052.751-.226 1.286-.519 1.676a2 2 0 0 1-.31.326q.166.134.311.326c.293.39.467.925.519 1.676h.071a.5.5 0 0 1 0 1H6.054a.5.5 0 0 1 0-1h.072c.051-.751.225-1.286.518-1.677.096-.128.202-.235.31-.325a2 2 0 0 1-.309-.325c-.293-.39-.467-.926-.518-1.677h-.073a.5.5 0 1 1 0-1h3.358m3.91 4.39-.647.476a.5.5 0 0 1-.593-.806l1.582-1.164a.498.498 0 0 1 .769.136l.993 1.65a.5.5 0 0 1-.857.516l-.296-.492a6.5 6.5 0 0 1-1.888 3.094 6.5 6.5 0 0 1-4.676 1.696.5.5 0 1 1 .044-1 5.5 5.5 0 0 0 5.57-4.107M8 8.54c-.252.108-.421.205-.556.385-.133.178-.267.488-.315 1.077h1.743c-.049-.589-.182-.898-.316-1.076-.135-.18-.304-.278-.556-.386m0-1.08c.252-.108.42-.206.555-.386.134-.178.267-.487.316-1.076H7.129c.049.59.183.899.316 1.077.135.18.303.277.555.384" clip-rule="evenodd"/></svg>