<svg xmlns="http://www.w3.org/2000/svg" width="16" height="16" fill="none" class="persona-icon" viewBox="0 0 16 16"><path fill="currentColor" fill-rule="evenodd" d="M3.162 4.416a.5.5 0 0 1 .162.689 5.5 5.5 0 0 0 .898 6.893l-.08-.771a.5.5 0 1 1 .994-.105l.202 1.925a.502.502 0 0 1-.535.553l-1.954.037a.5.5 0 0 1-.018-1l.601-.012a6.5 6.5 0 0 1-1.76-3.137 6.5 6.5 0 0 1 .801-4.91.5.5 0 0 1 .689-.162M6.038.514a.5.5 0 0 1 .266.655l-.268.635a6.5 6.5 0 0 1 7.65 3.045.5.5 0 0 1-.876.485 5.5 5.5 0 0 0-6.266-2.637l.613.198a.5.5 0 0 1-.308.951l-1.885-.61a.5.5 0 0 1-.314-.718L5.383.78a.5.5 0 0 1 .655-.266m3.374 4.484H6.054a.5.5 0 1 0 0 1h.073c.051.751.225 1.286.518 1.677q.145.19.31.325-.166.134-.311.325c-.293.39-.467.926-.518 1.677h-.072a.5.5 0 0 0 0 1h3.892a.5.5 0 0 0 0-1h-.071c-.052-.75-.226-1.286-.519-1.676A2 2 0 0 0 9.046 8a2 2 0 0 0 .31-.326c.292-.39.466-.925.518-1.676h.072a.5.5 0 1 0 0-1zM8 8.54c.252.108.421.206.556.386.134.178.268.487.316 1.076H7.129c.048-.59.182-.899.315-1.077.135-.18.304-.277.556-.385m0-1.08c.252-.108.42-.206.555-.386.134-.178.267-.487.316-1.076H7.129c.049.59.183.899.316 1.077.135.18.303.277.555.384m5.322 1.927a5.5 5.5 0 0 1-5.569 4.108.5.5 0 0 0-.044.999 6.5 6.5 0 0 0 6.564-4.79l.296.492a.5.5 0 1 0 .857-.516l-.993-1.65a.5.5 0 0 0-.769-.136l-1.582 1.165a.5.5 0 0 0 .593.805z" clip-rule="evenodd"/></svg>