<svg xmlns="http://www.w3.org/2000/svg" width="20" height="20" fill="none" class="persona-icon" viewBox="0 0 20 20"><path fill="currentColor" fill-rule="evenodd" d="M4.451 7.356a6.146 6.146 0 0 1 2.286-2.565.623.623 0 0 0-.662-1.057 7.394 7.394 0 0 0-3.437 5.584l-.575-.575a.624.624 0 0 0-.881.882l1.795 1.795a.623.623 0 0 0 .881 0l1.795-1.795a.624.624 0 0 0-.881-.882l-.909.909a6.147 6.147 0 0 1 .588-2.296m2.93 8.204a6.146 6.146 0 0 1-2.575-2.274.623.623 0 1 0-1.053.667 7.393 7.393 0 0 0 5.563 3.408l-.574.575a.624.624 0 0 0 .881.882l1.603-1.603a.623.623 0 0 0 .126-.126l.066-.066a.624.624 0 0 0 0-.882l-1.794-1.795a.624.624 0 0 0-.882.882l.908.908a6.145 6.145 0 0 1-2.269-.576m3.984-13.496a.624.624 0 0 0-.882-.882L8.688 2.977a.624.624 0 0 0 0 .882l1.795 1.795a.623.623 0 1 0 .882-.882l-.9-.9a6.147 6.147 0 0 1 4.799 2.958.624.624 0 0 0 1.068-.644A7.392 7.392 0 0 0 10.78 2.65l.585-.585Zm1.817 13.194a.623.623 0 1 0 .646 1.067 7.393 7.393 0 0 0 3.523-5.543l.584.584a.623.623 0 1 0 .881-.882l-1.795-1.795a.623.623 0 0 0-.881 0l-1.795 1.795a.624.624 0 0 0 .881.882l.902-.902a6.145 6.145 0 0 1-2.946 4.794" clip-rule="evenodd"/></svg>