<svg xmlns="http://www.w3.org/2000/svg" width="20" height="20" fill="none" class="persona-icon" viewBox="0 0 20 20"><path fill="currentColor" fill-rule="evenodd" d="M4.037 5.573a.625.625 0 0 1 .203.86 6.775 6.775 0 0 0 1.09 8.476l-.097-.929a.625.625 0 0 1 1.243-.13l.25 2.374a.62.62 0 0 1-.091.397.63.63 0 0 1-.578.294l-2.41.045a.625.625 0 0 1-.022-1.25l.722-.014a8.03 8.03 0 0 1-1.17-9.92.625.625 0 0 1 .86-.203M7.584.759c.318.134.467.501.333.82l-.324.766A8.02 8.02 0 0 1 17.02 6.11a.625.625 0 0 1-1.093.606A6.776 6.776 0 0 0 8.234 3.46l.73.236a.625.625 0 0 1-.386 1.189l-2.325-.753a.623.623 0 0 1-.393-.896l.905-2.144A.625.625 0 0 1 7.584.76m.691 5.53H7.6a.625.625 0 1 0 0 1.25h.082c.064.923.279 1.582.64 2.065q.177.231.376.396-.2.163-.377.396c-.361.483-.576 1.142-.64 2.065H7.6a.625.625 0 1 0 0 1.25h4.8a.625.625 0 1 0 0-1.25h-.081c-.064-.923-.279-1.582-.64-2.065a2.4 2.4 0 0 0-.378-.396q.2-.164.377-.396c.361-.482.576-1.142.64-2.065h.081a.625.625 0 0 0 0-1.25H8.276M10 10.675c.309.132.515.252.68.471.162.217.326.595.386 1.315H8.934c.06-.72.224-1.098.387-1.315.165-.22.37-.339.68-.47m1.065-3.136h-2.13c.06.72.224 1.098.387 1.315.165.219.37.338.678.47.308-.132.514-.251.678-.47.163-.217.327-.595.387-1.315m5.485 4.193a6.77 6.77 0 0 1-1.98 3.269 6.78 6.78 0 0 1-4.874 1.767.625.625 0 1 0-.056 1.25 8.026 8.026 0 0 0 8.1-5.895l.354.59a.625.625 0 1 0 1.071-.644l-1.221-2.032a.624.624 0 0 0-.965-.173l-1.95 1.435a.625.625 0 0 0 .742 1.007z" clip-rule="evenodd"/></svg>