<svg xmlns="http://www.w3.org/2000/svg" width="32" height="32" fill="none" class="persona-icon" viewBox="0 0 32 32"><path fill="currentColor" fill-rule="evenodd" d="M6.111 8.7a1 1 0 0 1 .324 1.377 11.25 11.25 0 0 0 1.879 14.139l-.171-1.632a1 1 0 0 1 1.989-.208l.412 3.93a.994.994 0 0 1-.145.635 1 1 0 0 1-.928.47l-3.987.075a1 1 0 0 1-.037-2l1.277-.024a13.25 13.25 0 0 1-1.99-16.438 1 1 0 0 1 1.377-.323M11.987.736a1 1 0 0 1 .532 1.31l-.565 1.338A13.25 13.25 0 0 1 24.25 5.631a13.3 13.3 0 0 1 3.34 3.946 1 1 0 0 1-1.75.97A11.25 11.25 0 0 0 12.957 5.17l1.317.426a1 1 0 1 1-.616 1.903L9.81 6.254a.997.997 0 0 1-.632-1.436l1.498-3.55a1 1 0 0 1 1.31-.533M13.12 9.89h-1.093a1 1 0 1 0 0 2h.168c.103 1.54.458 2.634 1.055 3.43.201.269.422.49.65.677-.23.187-.45.41-.652.678-.597.797-.952 1.89-1.055 3.432h-.166a1 1 0 1 0 0 2h7.947a1 1 0 1 0 0-2h-.166c-.103-1.542-.458-2.636-1.056-3.432a4 4 0 0 0-.65-.678c.228-.186.448-.408.649-.676.597-.796.952-1.89 1.055-3.43h.168a1 1 0 1 0 0-2H13.12m13.78 8.89a11.25 11.25 0 0 1-11.405 8.458 1 1 0 1 0-.09 1.998A13.25 13.25 0 0 0 28.8 19.425l.63 1.047a1 1 0 0 0 1.714-1.03l-2.028-3.372a1 1 0 0 0-1.542-.268l-3.226 2.376a1 1 0 0 0 1.185 1.61zM16.001 17.08c.52.222.871.423 1.151.797.278.37.553 1.012.65 2.232h-3.604c.098-1.22.373-1.862.65-2.232.281-.374.632-.575 1.153-.797m1.8-5.188c-.098 1.22-.373 1.861-.65 2.231-.28.373-.63.575-1.15.796-.52-.221-.87-.423-1.15-.796-.278-.37-.554-1.012-.65-2.23z" clip-rule="evenodd"/></svg>