<svg xmlns="http://www.w3.org/2000/svg" width="32" height="32" fill="none" class="persona-icon" viewBox="0 0 32 32"><path fill="currentColor" fill-rule="evenodd" d="M6.111 8.7a1 1 0 0 1 .324 1.377 11.25 11.25 0 0 0 1.879 14.139l-.171-1.632a1 1 0 0 1 1.989-.208l.412 3.93a.994.994 0 0 1-.145.635 1 1 0 0 1-.928.47l-3.987.075a1 1 0 0 1-.037-2l1.277-.024a13.25 13.25 0 0 1-1.99-16.438 1 1 0 0 1 1.377-.323M11.987.736a1 1 0 0 1 .532 1.31l-.565 1.338A13.25 13.25 0 0 1 24.25 5.631a13.3 13.3 0 0 1 3.34 3.946 1 1 0 0 1-1.75.97A11.25 11.25 0 0 0 12.957 5.17l1.317.426a1 1 0 1 1-.616 1.903L9.81 6.254a.997.997 0 0 1-.632-1.436l1.498-3.55a1 1 0 0 1 1.31-.533M13.12 9.89h6.854a1 1 0 1 1 0 2h-.168c-.103 1.541-.458 2.635-1.055 3.431-.201.268-.421.49-.65.676.23.187.45.41.651.678.598.796.953 1.89 1.056 3.432h.166a1 1 0 1 1 0 2h-7.947a1 1 0 1 1 0-2h.166c.103-1.541.458-2.635 1.056-3.432.201-.268.422-.49.65-.678a4 4 0 0 1-.649-.676c-.597-.797-.952-1.89-1.055-3.43h-.168a1 1 0 1 1 0-2zm13.78 8.89-1.368 1.007a1 1 0 1 1-1.185-1.61l3.226-2.376a1 1 0 0 1 1.541.268l2.029 3.371a1 1 0 0 1-1.714 1.032l-.63-1.048a13.25 13.25 0 0 1-13.393 9.812 1 1 0 1 1 .09-1.998A11.25 11.25 0 0 0 26.9 18.78M16.001 17.08c-.52.222-.872.423-1.153.797-.277.37-.552 1.012-.65 2.232h3.604c-.097-1.22-.372-1.862-.65-2.232-.28-.374-.631-.575-1.151-.797m1.8-5.188h-3.6c.096 1.22.372 1.86.65 2.23.28.374.63.576 1.15.797.52-.221.87-.422 1.15-.796.277-.37.552-1.011.65-2.23" clip-rule="evenodd"/></svg>