<svg xmlns="http://www.w3.org/2000/svg" width="32" height="32" fill="none"><path fill="#000" fill-rule="evenodd" d="M3 8a5 5 0 0 1 5-5h16a5 5 0 0 1 5 5v16a5 5 0 0 1-5 5H8a5 5 0 0 1-5-5V8Zm5-3a3 3 0 0 0-3 3v16a3 3 0 0 0 3 3h16a3 3 0 0 0 3-3V8a3 3 0 0 0-3-3H8Z" clip-rule="evenodd"/><path fill="#000" fill-rule="evenodd" d="M29 10.667a1 1 0 0 1-1 1H4a1 1 0 1 1 0-2h24a1 1 0 0 1 1 1Z" clip-rule="evenodd"/><path fill="#000" fill-rule="evenodd" d="M12.333 10.667V4h2v6.667h-2ZM9.333 17.667a1 1 0 0 1 1 1v4a1 1 0 1 1-2 0v-4a1 1 0 0 1 1-1ZM13.333 15a1 1 0 0 1 1 1v6.667a1 1 0 1 1-2 0V16a1 1 0 0 1 1-1ZM19.821 15.083A4.333 4.333 0 0 1 25 19.333a1 1 0 1 1-2 0 2.333 2.333 0 1 0-2.333 2.334 1 1 0 1 1 0 2 4.334 4.334 0 0 1-.846-8.584Z" clip-rule="evenodd"/></svg>