<svg xmlns="http://www.w3.org/2000/svg" width="16" height="16" fill="none" class="persona-icon" viewBox="0 0 16 16"><path fill="currentColor" fill-rule="evenodd" d="M14 10.73c0-.303-.116-.64-.403-.867-.708-.56-1.669-.784-2.973-.803a1.2 1.2 0 0 0-.566.138l-.355.19a.16.16 0 0 1-.155.002 8.4 8.4 0 0 1-1.29-.94l5.596-5.596a.5.5 0 0 0-.708-.707L5.371 9.922l-.003.003-.002.002-3.22 3.22a.5.5 0 1 0 .708.707l2.875-2.876a11.5 11.5 0 0 0 7.053 3c.687.043 1.218-.519 1.218-1.165zm-7.563-.46L7.55 9.158q.688.617 1.49 1.093c.357.212.788.203 1.134.019l.355-.19a.2.2 0 0 1 .081-.02c1.22.017 1.915.23 2.369.588q.001-.001.01.017a.2.2 0 0 1 .012.064v2.084c0 .112-.085.17-.156.166a10.5 10.5 0 0 1-6.407-2.71" clip-rule="evenodd"/><path fill="currentColor" d="M6.152 7.584a.5.5 0 1 0 .817-.576 8 8 0 0 1-.509-.82.16.16 0 0 1 .005-.148l.214-.408c.088-.17.137-.361.134-.558-.006-.5-.043-.878-.145-1.255-.1-.372-.259-.72-.474-1.159C5.994 2.254 5.58 2 5.13 2H3.187c-.646 0-1.208.53-1.164 1.218a11.5 11.5 0 0 0 2.134 5.987l.141.196a.5.5 0 0 0 .811-.585l-.14-.195A10.5 10.5 0 0 1 3.02 3.156c-.004-.07.055-.156.167-.156h1.944c.071 0 .135.04.165.102.213.433.333.707.407.978.071.265.104.55.11 1.007a.2.2 0 0 1-.02.08l-.213.409c-.175.332-.188.742.002 1.09q.26.477.57.918"/></svg>