<svg xmlns="http://www.w3.org/2000/svg" width="16" height="16" fill="none" class="persona-icon" viewBox="0 0 16 16"><path fill="currentColor" fill-rule="evenodd" d="M13.854 2.147a.5.5 0 0 1 0 .707L8.258 8.45q.597.53 1.29.94a.16.16 0 0 0 .155-.003l.355-.189c.17-.09.365-.14.566-.138 1.304.019 2.265.244 2.973.803.287.227.403.564.403.866v2.084c0 .646-.53 1.208-1.218 1.165a11.5 11.5 0 0 1-7.052-3l-2.877 2.876a.5.5 0 1 1-.707-.708l11-11a.5.5 0 0 1 .708 0M2.023 3.218C1.979 2.531 2.54 2 3.188 2H5.13c.449 0 .863.254 1.063.66.215.439.373.787.474 1.159.102.377.139.756.145 1.255.003.197-.045.389-.134.558l-.214.408a.16.16 0 0 0-.005.149q.232.426.51.82a.5.5 0 0 1-.818.575 9 9 0 0 1-.57-.917 1.16 1.16 0 0 1-.002-1.091l.213-.408a.2.2 0 0 0 .02-.081c-.005-.457-.039-.742-.11-1.007-.074-.271-.194-.545-.407-.978A.18.18 0 0 0 5.131 3H3.188c-.113 0-.172.085-.167.156A10.5 10.5 0 0 0 4.969 8.62a.5.5 0 1 1-.813.583 11.5 11.5 0 0 1-2.133-5.986m4.414 7.052a10.5 10.5 0 0 0 6.407 2.71c.07.004.156-.055.156-.168V10.73a.2.2 0 0 0-.011-.064q-.01-.018-.011-.017c-.454-.358-1.148-.57-2.369-.588a.2.2 0 0 0-.081.02l-.355.19a1.16 1.16 0 0 1-1.134-.019 9.4 9.4 0 0 1-1.49-1.093z" clip-rule="evenodd"/></svg>