<svg xmlns="http://www.w3.org/2000/svg" width="20" height="20" fill="none" class="persona-icon" viewBox="0 0 20 20"><path fill="currentColor" fill-rule="evenodd" d="M15.958 3.158a.625.625 0 1 1 .884.884l-6.48 6.48q.679.595 1.461 1.059c.03.018.082.025.138-.005l.413-.22c.205-.109.438-.169.68-.166 1.521.022 2.65.285 3.486.944.347.273.485.68.485 1.042V15.6c0 .776-.637 1.45-1.463 1.399a13.42 13.42 0 0 1-8.203-3.474l-3.317 3.317a.625.625 0 1 1-.884-.884zM3.001 4.438c-.051-.826.623-1.463 1.399-1.463h2.261c.539 0 1.036.305 1.276.793.25.51.436.918.555 1.355.12.445.163.889.17 1.471.003.237-.055.467-.161.67l-.248.475c-.029.054-.023.103-.007.133q.269.493.59.95a.625.625 0 0 1-1.022.719q-.363-.515-.666-1.072a1.39 1.39 0 0 1-.003-1.31l.249-.475a.16.16 0 0 0 .018-.073c-.006-.53-.045-.858-.127-1.161-.084-.311-.222-.626-.47-1.13a.17.17 0 0 0-.154-.095H4.4c-.05 0-.09.02-.117.047a.11.11 0 0 0-.034.088 12.17 12.17 0 0 0 2.259 6.338.625.625 0 1 1-1.016.728 13.43 13.43 0 0 1-2.49-6.987m5.243 8.202a12.18 12.18 0 0 0 7.396 3.111.11.11 0 0 0 .088-.034.16.16 0 0 0 .047-.117v-2.424a.2.2 0 0 0-.01-.058c-.004-.009-.005-.007 0-.003-.516-.408-1.313-.655-2.73-.675a.15.15 0 0 0-.073.02l-.413.22a1.39 1.39 0 0 1-1.362-.024 11 11 0 0 1-1.71-1.25z" clip-rule="evenodd"/></svg>