<svg xmlns="http://www.w3.org/2000/svg" width="20" height="20" fill="none" class="persona-icon" viewBox="0 0 20 20"><path fill="currentColor" fill-rule="evenodd" d="M17.025 13.176c0-.362-.139-.769-.485-1.042-.836-.66-1.965-.922-3.487-.944a1.4 1.4 0 0 0-.679.166l-.413.22c-.056.03-.108.023-.138.005a9.7 9.7 0 0 1-1.46-1.06l6.479-6.479a.625.625 0 1 0-.884-.884l-9.04 9.04-.011.011-.01.01-3.739 3.74a.625.625 0 0 0 .884.883l3.317-3.317a13.43 13.43 0 0 0 8.202 3.474c.827.052 1.464-.623 1.464-1.399zm-8.78-.536 1.232-1.233q.79.705 1.71 1.25c.43.254.947.244 1.362.022l.413-.22a.16.16 0 0 1 .074-.019c1.413.02 2.21.266 2.726.673l.003.005c.004.01.01.03.01.058V15.6c0 .05-.02.09-.047.117a.11.11 0 0 1-.088.034 12.17 12.17 0 0 1-7.396-3.111" clip-rule="evenodd"/><path fill="currentColor" d="M7.814 9.54a.625.625 0 0 0 1.022-.719 10 10 0 0 1-.59-.95c-.016-.029-.022-.078.006-.132l.249-.475c.106-.203.164-.433.161-.67-.007-.582-.05-1.026-.17-1.47-.119-.438-.304-.846-.555-1.356a1.42 1.42 0 0 0-1.276-.793H4.4c-.776 0-1.45.637-1.399 1.464a13.4 13.4 0 0 0 2.491 6.987l.165.23a.625.625 0 0 0 1.014-.731l-.163-.228a12.2 12.2 0 0 1-2.26-6.337.11.11 0 0 1 .035-.088.16.16 0 0 1 .117-.047H6.66c.067 0 .127.038.154.094.248.504.386.82.47 1.13.082.304.12.632.127 1.162a.16.16 0 0 1-.018.073l-.249.475c-.209.399-.225.89.003 1.31q.303.556.666 1.072"/></svg>