<svg xmlns="http://www.w3.org/2000/svg" width="24" height="24" fill="none" class="persona-icon" viewBox="0 0 24 24"><path fill="currentColor" fill-rule="evenodd" d="M21.775 3.563a.77.77 0 0 0-1.088-1.088L2.225 20.937a.77.77 0 0 0 1.088 1.088l5.62-5.62a16.297 16.297 0 0 0 9.82 4.092c.986.061 1.747-.744 1.747-1.671v-2.949c0-.433-.166-.918-.579-1.244-1.008-.795-2.373-1.114-4.222-1.14a1.676 1.676 0 0 0-.811.198l-.502.267a.203.203 0 0 1-.198.005 11.805 11.805 0 0 1-1.642-1.171zM11.51 13.827c.6.519 1.246.985 1.934 1.392.513.304 1.13.292 1.627.027l.502-.267a.217.217 0 0 1 .104-.027c1.726.024 2.703.325 3.339.827 0 0 .005.006.009.015a.213.213 0 0 1 .014.083v2.949c0 .147-.11.22-.197.214a14.838 14.838 0 0 1-8.875-3.67z" clip-rule="evenodd"/><path fill="currentColor" d="M9.352 11.438a.73.73 0 1 0 1.193-.84 11.81 11.81 0 0 1-.719-1.158.203.203 0 0 1 .007-.19l.303-.577c.127-.243.196-.518.192-.8-.009-.708-.06-1.245-.206-1.783-.143-.528-.368-1.022-.673-1.643A1.698 1.698 0 0 0 7.925 3.5h-2.75c-.928 0-1.733.761-1.672 1.748a16.299 16.299 0 0 0 3.024 8.483.73.73 0 1 0 1.186-.85A14.841 14.841 0 0 1 4.96 5.156c-.005-.086.067-.197.214-.197h2.75c.094 0 .177.053.215.131.302.614.47 1 .574 1.38.1.373.148.775.156 1.42a.222.222 0 0 1-.026.104l-.303.577a1.661 1.661 0 0 0 .004 1.566c.245.45.514.884.807 1.3"/></svg>