<svg xmlns="http://www.w3.org/2000/svg" width="24" height="24" fill="none" class="persona-icon" viewBox="0 0 24 24"><path fill="currentColor" fill-rule="evenodd" d="M21 16.094c0-.453-.173-.96-.604-1.3-1.063-.838-2.503-1.176-4.46-1.204-.302-.004-.593.07-.85.207l-.531.284a.24.24 0 0 1-.233.005 12.5 12.5 0 0 1-1.936-1.412L20.78 4.28a.75.75 0 0 0-1.06-1.06l-16.5 16.5a.75.75 0 1 0 1.06 1.06l4.314-4.314a17.25 17.25 0 0 0 10.579 4.5c1.03.065 1.827-.777 1.827-1.747zm-11.344-.69 1.668-1.667a14 14 0 0 0 2.234 1.64 1.74 1.74 0 0 0 1.702.028l.532-.284a.25.25 0 0 1 .122-.031c1.83.026 2.872.345 3.553.882q.001-.002.016.025.015.031.017.097v3.125c0 .168-.128.257-.234.25a15.75 15.75 0 0 1-9.61-4.064" clip-rule="evenodd"/><path fill="currentColor" d="M9.227 11.376a.75.75 0 0 0 1.227-.864 13 13 0 0 1-.764-1.229.24.24 0 0 1 .008-.224l.32-.611c.133-.254.206-.542.202-.838-.01-.748-.065-1.315-.218-1.882-.151-.558-.388-1.08-.712-1.737C8.99 3.38 8.37 3 7.696 3H4.781c-.97 0-1.812.796-1.747 1.827a17.25 17.25 0 0 0 3.2 8.98l.213.294a.75.75 0 0 0 1.217-.876l-.211-.294A15.75 15.75 0 0 1 4.53 4.734c-.007-.106.082-.234.25-.234h2.915c.108 0 .204.061.248.152.32.65.5 1.061.61 1.468.107.397.157.825.166 1.51q0 .058-.03.122l-.32.611A1.74 1.74 0 0 0 8.372 10q.389.714.854 1.376"/></svg>