<svg xmlns="http://www.w3.org/2000/svg" width="32" height="32" fill="none" class="persona-icon" viewBox="0 0 32 32"><path fill="currentColor" fill-rule="evenodd" d="M28 21.459v4.166c0 1.294-1.061 2.416-2.437 2.33a23 23 0 0 1-14.104-6l-5.752 5.752a1 1 0 0 1-1.414-1.414l22-22a1 1 0 0 1 1.414 1.414L16.515 16.9a16.7 16.7 0 0 0 2.581 1.882.32.32 0 0 0 .31-.007l.71-.378c.341-.182.73-.282 1.131-.276 2.61.037 4.53.488 5.947 1.606.575.453.806 1.129.806 1.733m-15.125-.92a21 21 0 0 0 12.813 5.42c.141.009.312-.109.312-.334V21.46a.3.3 0 0 0-.023-.13.1.1 0 0 0-.022-.033c-.907-.716-2.296-1.141-4.736-1.176a.34.34 0 0 0-.163.042l-.71.378a2.32 2.32 0 0 1-2.268-.038 18.7 18.7 0 0 1-2.98-2.186z" clip-rule="evenodd"/><path fill="currentColor" d="M12.303 15.168q-.62-.881-1.14-1.835a2.32 2.32 0 0 1-.004-2.182l.427-.815a.34.34 0 0 0 .04-.162c-.011-.913-.077-1.484-.22-2.014-.148-.542-.387-1.09-.814-1.957a.37.37 0 0 0-.33-.203H6.374c-.225 0-.343.17-.334.312a21 21 0 0 0 3.896 10.93l.282.39a1 1 0 1 1-1.623 1.17l-.284-.394A23 23 0 0 1 4.045 6.436C3.959 5.062 5.08 4 6.375 4h3.886c.898 0 1.727.508 2.126 1.32.431.877.748 1.574.949 2.317.204.756.278 1.512.29 2.51.006.395-.09.778-.268 1.117l-.427.815a.32.32 0 0 0-.01.299q.463.851 1.017 1.639a1 1 0 1 1-1.635 1.15"/></svg>