<svg xmlns="http://www.w3.org/2000/svg" width="32" height="32" fill="none" class="persona-icon" viewBox="0 0 32 32"><path fill="currentColor" fill-rule="evenodd" d="M28 21.459c0-.604-.231-1.28-.806-1.733-1.417-1.118-3.337-1.569-5.947-1.606a2.34 2.34 0 0 0-1.131.276l-.71.378a.32.32 0 0 1-.31.007 16.7 16.7 0 0 1-2.581-1.882L27.707 5.707a1 1 0 0 0-1.414-1.414l-22 22a1 1 0 0 0 1.414 1.414l5.752-5.752a23 23 0 0 0 14.104 6C26.94 28.041 28 26.92 28 25.625zm-15.125-.92 2.223-2.223a18.7 18.7 0 0 0 2.98 2.186 2.32 2.32 0 0 0 2.268.038l.71-.378a.34.34 0 0 1 .163-.042c2.44.035 3.83.46 4.736 1.176 0 0 .01.008.022.034a.3.3 0 0 1 .023.129v4.166c0 .225-.171.343-.312.334a21 21 0 0 1-12.813-5.42" clip-rule="evenodd"/><path fill="currentColor" d="M12.303 15.168a1 1 0 1 0 1.635-1.151q-.554-.788-1.017-1.64a.32.32 0 0 1 .01-.298l.427-.815c.177-.339.274-.722.269-1.117-.013-.998-.087-1.754-.291-2.51-.201-.743-.518-1.44-.949-2.316A2.37 2.37 0 0 0 10.261 4H6.375C5.081 4 3.959 5.06 4.045 6.436a23 23 0 0 0 4.268 11.972l.283.394a1 1 0 1 0 1.623-1.17l-.282-.39a21 21 0 0 1-3.896-10.93C6.032 6.17 6.151 6 6.375 6h3.886c.144 0 .272.082.332.203.426.867.665 1.415.812 1.957.144.53.21 1.1.222 2.014q.001.076-.04.162l-.428.815a2.32 2.32 0 0 0 .005 2.182q.518.954 1.14 1.835"/></svg>