<svg xmlns="http://www.w3.org/2000/svg" width="32" height="32" fill="none" class="persona-icon" viewBox="0 0 32 32"><path fill="currentColor" d="M28.71 4.91a1 1 0 0 0-1.415-1.415l-24 24A1 1 0 0 0 4.71 28.91l6.931-6.93a22.04 22.04 0 0 0 13.462 5.719c1.356.086 2.4-1.02 2.4-2.293V21.45c0-.593-.227-1.26-.796-1.708-1.365-1.073-3.209-1.502-5.7-1.538a2.301 2.301 0 0 0-1.114.272l-.664.354a.277.277 0 0 1-.271.007 15.942 15.942 0 0 1-2.417-1.758l12.17-12.17ZM15.12 18.497a17.946 17.946 0 0 0 2.816 2.062 2.28 2.28 0 0 0 2.233.038l.665-.354c.05-.027.1-.037.143-.037 2.321.034 3.635.438 4.49 1.11a.078.078 0 0 1 .012.02c.01.023.02.061.02.113v3.955c0 .202-.153.3-.27.293a20.035 20.035 0 0 1-12.17-5.138l2.062-2.062ZM12.41 15.453a1.002 1.002 0 0 0 1.638-1.154 15.934 15.934 0 0 1-.965-1.553.278.278 0 0 1 .01-.261l.4-.766c.175-.333.27-.71.265-1.1-.012-.951-.082-1.677-.278-2.402-.193-.714-.496-1.38-.905-2.215a2.33 2.33 0 0 0-2.093-1.3H6.8c-1.273 0-2.38 1.045-2.293 2.4a22.04 22.04 0 0 0 4.088 11.45 1.002 1.002 0 1 0 1.627-1.169A20.039 20.039 0 0 1 6.506 6.975c-.007-.117.091-.27.294-.27h3.682c.129 0 .242.074.295.18.404.825.63 1.342.769 1.854.135.5.198 1.04.21 1.908 0 .043-.011.093-.037.142l-.401.766a2.28 2.28 0 0 0 .005 2.149c.33.605.693 1.189 1.087 1.749Z"/></svg>