<svg xmlns="http://www.w3.org/2000/svg" width="32" height="32" fill="none" class="persona-icon" viewBox="0 0 32 32"><path fill="currentColor" fill-rule="evenodd" d="M28.71 4.91a1 1 0 0 0-1.415-1.415l-24 24a1 1 0 1 0 1.414 1.414l6.931-6.93a22.04 22.04 0 0 0 13.462 5.719c1.355.086 2.4-1.02 2.4-2.293V21.45c0-.593-.227-1.26-.796-1.708-1.365-1.073-3.21-1.502-5.7-1.538a2.3 2.3 0 0 0-1.114.272l-.665.354a.28.28 0 0 1-.27.007 16 16 0 0 1-2.417-1.758zM15.12 18.497a18 18 0 0 0 2.815 2.062c.705.418 1.553.4 2.234.038l.664-.354q.076-.039.144-.037c2.321.034 3.635.438 4.49 1.11l.012.02c.01.023.02.061.02.113v3.955c0 .202-.153.3-.27.293a20.04 20.04 0 0 1-12.17-5.138z" clip-rule="evenodd"/><path fill="currentColor" d="M12.41 15.453a1.002 1.002 0 1 0 1.638-1.154 16 16 0 0 1-.966-1.553.28.28 0 0 1 .01-.261l.402-.766c.174-.333.27-.71.264-1.1-.012-.951-.083-1.677-.279-2.402-.192-.714-.495-1.38-.905-2.215a2.33 2.33 0 0 0-2.092-1.3H6.8c-1.273 0-2.38 1.045-2.293 2.4a22.04 22.04 0 0 0 4.087 11.45 1.002 1.002 0 1 0 1.628-1.169A20.03 20.03 0 0 1 6.506 6.975c-.007-.117.091-.27.294-.27h3.682c.128 0 .242.074.294.18.405.825.63 1.342.77 1.854.134.5.197 1.04.209 1.908 0 .043-.01.093-.036.142l-.401.766a2.28 2.28 0 0 0 .005 2.149q.495.908 1.087 1.749"/></svg>