<svg xmlns="http://www.w3.org/2000/svg" width="32" height="32" fill="none"><path fill="#000" fill-rule="evenodd" d="M16.665 3.729a1 1 0 0 1-.462 1.137 8.001 8.001 0 1 0 10.931 10.931 1 1 0 0 1 1.866.525C28.828 23.353 23.074 29 16.002 29 8.822 29 3 23.179 3 15.998 3 8.926 8.647 3.172 15.678 3a1 1 0 0 1 .987.729Zm-4.33 1.893C8.062 7.132 5 11.208 5 15.998 5 22.074 9.926 27 16.002 27c4.79 0 8.866-3.062 10.376-7.335a9.959 9.959 0 0 1-6.175 2.134c-5.524 0-10.002-4.478-10.002-10.002 0-2.33.798-4.475 2.134-6.175Z" clip-rule="evenodd"/></svg>