<svg xmlns="http://www.w3.org/2000/svg" width="20" height="20" fill="none"><path fill="#000" fill-rule="evenodd" d="M5.556 10.593a.889.889 0 1 0 0 1.777.889.889 0 0 0 0-1.777Zm-2.074.889a2.074 2.074 0 1 1 4.148 0 2.074 2.074 0 0 1-4.148 0ZM14.444 3.185a.889.889 0 1 0 0 1.778.889.889 0 0 0 0-1.778Zm-2.074.89a2.074 2.074 0 1 1 4.149 0 2.074 2.074 0 0 1-4.149 0ZM5.556 3.185a.889.889 0 1 0 0 1.778.889.889 0 0 0 0-1.778Zm-2.074.89a2.074 2.074 0 1 1 4.148 0 2.074 2.074 0 0 1-4.148 0ZM2.424 14.886a2.95 2.95 0 0 1 2.243-1.034h1.777a2.95 2.95 0 0 1 2.243 1.034c.274.32.424.729.424 1.15v.052A1.912 1.912 0 0 1 7.2 18H3.912A1.912 1.912 0 0 1 2 16.088v-.052c0-.422.15-.83.424-1.15Zm5.362.77a1.764 1.764 0 0 0-1.342-.619H4.667c-.516 0-1.006.226-1.342.619a.586.586 0 0 0-.14.38v.052c0 .401.326.727.727.727h3.287a.727.727 0 0 0 .727-.727v-.052c0-.14-.05-.274-.14-.38ZM11.313 7.479a2.95 2.95 0 0 1 2.243-1.035h1.777c.863 0 1.683.378 2.243 1.035.274.32.424.728.424 1.15V10a.593.593 0 1 1-1.185 0V8.628c0-.139-.05-.274-.14-.38a1.764 1.764 0 0 0-1.342-.618h-1.777c-.516 0-1.007.226-1.342.618a.586.586 0 0 0-.14.38V10a.593.593 0 1 1-1.185 0V8.628c0-.421.15-.829.424-1.15Z" clip-rule="evenodd"/><path fill="#000" fill-rule="evenodd" d="M2.424 7.479a2.949 2.949 0 0 1 2.243-1.035h1.777c.863 0 1.683.378 2.243 1.035.274.32.424.728.424 1.15V10a.593.593 0 1 1-1.185 0V8.628c0-.139-.05-.274-.14-.38a1.764 1.764 0 0 0-1.342-.618H4.667c-.516 0-1.006.226-1.342.618a.586.586 0 0 0-.14.38V10A.593.593 0 1 1 2 10V8.628c0-.421.15-.829.424-1.15ZM11.313 14.886a2.95 2.95 0 0 1 2.243-1.034h1.777c.863 0 1.683.378 2.243 1.034.274.32.424.729.424 1.15v.052A1.912 1.912 0 0 1 16.088 18h-3.287a1.912 1.912 0 0 1-1.912-1.912v-.052c0-.422.15-.83.424-1.15Zm5.362.77a1.764 1.764 0 0 0-1.342-.619h-1.777c-.516 0-1.007.226-1.342.619a.586.586 0 0 0-.14.38v.052c0 .401.325.727.727.727h3.287a.727.727 0 0 0 .727-.727v-.052c0-.14-.05-.274-.14-.38ZM14.444 10.593a.889.889 0 1 0 0 1.777.889.889 0 0 0 0-1.777Zm-2.074.889a2.074 2.074 0 1 1 4.149 0 2.074 2.074 0 0 1-4.149 0Z" clip-rule="evenodd"/></svg>