<svg xmlns="http://www.w3.org/2000/svg" width="20" height="20" fill="none"><path fill="#000" fill-rule="evenodd" d="M4.884 4.105c-.976 0-1.768.784-1.768 1.75v8.29c0 .966.792 1.75 1.768 1.75h10.232c.976 0 1.768-.784 1.768-1.75v-6.14c0-.967-.792-1.75-1.768-1.75h-3.998c-.323 0-.635-.117-.878-.327l-1.604-1.39a1.778 1.778 0 0 0-1.164-.433H4.884ZM2 5.855C2 4.278 3.291 3 4.884 3h2.588a2.9 2.9 0 0 1 1.9.706l1.603 1.39c.04.034.09.053.143.053h3.998C16.71 5.15 18 6.427 18 8.004v6.14C18 15.723 16.709 17 15.116 17H4.884C3.29 17 2 15.722 2 14.145v-8.29Z" clip-rule="evenodd"/></svg>