<svg xmlns="http://www.w3.org/2000/svg" width="32" height="32" fill="none" class="persona-icon" viewBox="0 0 32 32"><path fill="currentColor" fill-rule="evenodd" d="M4 9.889a4.667 4.667 0 0 1 4.667-4.667h3.495c1.142 0 2.246.42 3.1 1.179l2.277 2.024c.041.036.093.056.148.056h5.646A4.667 4.667 0 0 1 28 13.148v8.963a4.667 4.667 0 0 1-4.667 4.667H8.667A4.667 4.667 0 0 1 4 22.11zm4.667-2.667A2.667 2.667 0 0 0 6 9.89V22.11a2.667 2.667 0 0 0 2.667 2.667h14.666A2.667 2.667 0 0 0 26 22.11v-8.963a2.667 2.667 0 0 0-2.667-2.667h-5.646c-.544 0-1.07-.2-1.477-.56l-2.277-2.025a2.67 2.67 0 0 0-1.771-.674z" clip-rule="evenodd"/></svg>