<svg xmlns="http://www.w3.org/2000/svg" width="32" height="32" fill="none"><path fill="#000" fill-rule="evenodd" d="M12.842 5.021c-2.238 0-4.053 1.834-4.053 4.096s1.815 4.096 4.053 4.096 4.053-1.834 4.053-4.096-1.815-4.096-4.053-4.096ZM6.79 9.117C6.79 5.739 9.5 3 12.842 3s6.053 2.739 6.053 6.117-2.71 6.117-6.053 6.117S6.79 12.495 6.79 9.117ZM4.081 19.89a7.997 7.997 0 0 1 6.11-2.847h5.303c2.35 0 4.583 1.04 6.109 2.847a4.593 4.593 0 0 1 1.081 2.963v.307c0 2.673-2.144 4.84-4.79 4.84H7.79C5.144 28 3 25.833 3 23.16v-.307c0-1.087.383-2.137 1.081-2.963Zm16 1.312a6.006 6.006 0 0 0-4.587-2.138H10.19a6.006 6.006 0 0 0-4.588 2.138A2.559 2.559 0 0 0 5 22.852v.308c0 1.556 1.249 2.819 2.79 2.819h10.105c1.54 0 2.79-1.262 2.79-2.82v-.306c0-.605-.214-1.19-.603-1.651ZM24.21 11.456a3.417 3.417 0 0 0-.545-.407 2.645 2.645 0 0 0-1.32-.39c-.516-.007-1.031.147-1.522.464-.954.617-1.369 1.47-1.4 2.32-.029.779.266 1.46.548 1.87.038.056.081.107.13.153l3.417 3.316a.992.992 0 0 0 1.385 0l3.418-3.315c.048-.047.091-.098.129-.153.282-.41.577-1.092.548-1.872-.032-.849-.446-1.702-1.4-2.319-.49-.317-1.006-.471-1.523-.463-.509.008-.955.171-1.32.389-.199.12-.38.258-.544.407Zm-1.895 1.225c-.086-.001-.22.02-.414.145-.413.267-.473.519-.48.692a1.16 1.16 0 0 0 .15.574l2.64 2.56 2.639-2.56a1.16 1.16 0 0 0 .15-.574c-.007-.173-.067-.425-.48-.692-.193-.125-.328-.146-.415-.145a.67.67 0 0 0-.332.108c-.285.17-.542.498-.676.758a.999.999 0 0 1-.887.543.999.999 0 0 1-.886-.543c-.134-.26-.391-.588-.676-.758a.669.669 0 0 0-.332-.108Z" clip-rule="evenodd"/></svg>