<svg xmlns="http://www.w3.org/2000/svg" width="16" height="16" fill="none" class="persona-icon" viewBox="0 0 16 16"><path fill="currentColor" d="M6.169 3.889a.504.504 0 0 0-.507.5c0 .276.227.5.507.5h5.127c.28 0 .507-.224.507-.5s-.227-.5-.507-.5H6.169ZM6.169 7.5a.504.504 0 0 0-.507.5c0 .276.227.5.507.5h5.127c.28 0 .507-.224.507-.5s-.227-.5-.507-.5H6.169ZM6.169 11.111a.504.504 0 0 0-.507.5c0 .276.227.5.507.5h5.127c.28 0 .507-.224.507-.5s-.227-.5-.507-.5H6.169Z"/><path fill="currentColor" fill-rule="evenodd" d="M2.732 3.667C2.732 2.194 3.943 1 5.437 1h5.859C12.789 1 14 2.194 14 3.667v8.666C14 13.806 12.79 15 11.296 15h-5.86c-1.493 0-2.704-1.194-2.704-2.667v-.222h-.225a.504.504 0 0 1-.507-.5c0-.276.227-.5.507-.5h.225V8.5h-.225A.504.504 0 0 1 2 8c0-.276.227-.5.507-.5h.225V4.889h-.225a.504.504 0 0 1-.507-.5c0-.276.227-.5.507-.5h.225v-.222Zm1.014 8.666c0 .92.757 1.667 1.69 1.667h5.86c.933 0 1.69-.746 1.69-1.667V3.667c0-.92-.757-1.667-1.69-1.667h-5.86c-.933 0-1.69.746-1.69 1.667v.222h.226c.28 0 .507.224.507.5s-.227.5-.507.5h-.225V7.5h.225c.28 0 .507.224.507.5s-.227.5-.507.5h-.225v2.611h.225c.28 0 .507.224.507.5s-.227.5-.507.5h-.225v.222Z" clip-rule="evenodd"/></svg>