<svg xmlns="http://www.w3.org/2000/svg" width="20" height="20" fill="none" class="persona-icon" viewBox="0 0 20 20"><path fill="currentColor" fill-rule="evenodd" d="M6.998 1.682c.345 0 .625.28.625.625v.125h1.752v-.125a.625.625 0 0 1 1.25 0v.125h1.752v-.125a.625.625 0 0 1 1.25 0v.175a2.94 2.94 0 0 1 2.398 2.89v2.593a.625.625 0 1 1-1.25 0V5.372a1.69 1.69 0 0 0-1.148-1.601v.787a.625.625 0 1 1-1.25 0v-.876h-1.752v.876a.625.625 0 0 1-1.25 0v-.876H7.623v.876a.625.625 0 0 1-1.25 0v-.787a1.69 1.69 0 0 0-1.148 1.6v9.258c0 .933.756 1.689 1.69 1.689H8.58a.625.625 0 1 1 0 1.25H6.914a2.94 2.94 0 0 1-2.939-2.94V5.373a2.94 2.94 0 0 1 2.398-2.89v-.175c0-.345.28-.625.625-.625m7.013 9.27-3.675 3.676a.63.63 0 0 0-.184.442v1.927c0 .345.28.625.626.625h1.926a.63.63 0 0 0 .442-.183l4.625-4.625c.254-.254.537-.66.61-1.172.079-.55-.099-1.127-.61-1.639-.512-.511-1.089-.689-1.638-.61-.512.073-.918.356-1.173.61l-.898.898a1 1 0 0 0-.051.052m1.51 2.344-3.076 3.076h-1.043v-1.043l3.076-3.076zm.788-2.666c.125-.018.319-.002.578.257.26.26.275.453.257.578a.88.88 0 0 1-.257.465l-.482.482-1.043-1.043.482-.482a.88.88 0 0 1 .465-.257" clip-rule="evenodd"/></svg>