<svg xmlns="http://www.w3.org/2000/svg" width="32" height="32" fill="none"><path fill="currentColor" d="M12.34 7.78c-.56 0-1.014.448-1.014 1s.454 1 1.014 1h10.254c.56 0 1.014-.448 1.014-1s-.454-1-1.014-1H12.34ZM12.34 15.002c-.56 0-1.014.448-1.014 1 0 .553.454 1 1.014 1h10.254c.56 0 1.014-.447 1.014-1 0-.552-.454-1-1.014-1H12.34ZM12.34 22.224c-.56 0-1.014.448-1.014 1 0 .553.454 1 1.014 1h10.254c.56 0 1.014-.447 1.014-1 0-.552-.454-1-1.014-1H12.34Z"/><path fill="currentColor" d="M5.467 7.335c0-2.945 2.421-5.333 5.408-5.333h11.719c2.987 0 5.408 2.388 5.408 5.333V24.67c0 2.945-2.421 5.333-5.408 5.333H10.875c-2.987 0-5.408-2.388-5.408-5.333v-.445h-.45c-.56 0-1.015-.447-1.015-1 0-.552.454-1 1.014-1h.451v-5.222h-.45c-.56 0-1.015-.447-1.015-1 0-.552.454-1 1.014-1h.451V9.78h-.45c-.56 0-1.015-.448-1.015-1s.454-1 1.014-1h.451v-.445ZM7.495 24.67c0 1.84 1.514 3.333 3.38 3.333h11.719c1.867 0 3.38-1.492 3.38-3.333V7.335c0-1.84-1.513-3.333-3.38-3.333H10.875c-1.866 0-3.38 1.493-3.38 3.333v.445h.45c.56 0 1.015.448 1.015 1s-.454 1-1.014 1h-.45v5.222h.45c.56 0 1.014.448 1.014 1 0 .553-.454 1-1.014 1h-.45v5.222h.45c.56 0 1.014.448 1.014 1 0 .553-.454 1-1.014 1h-.45v.445Z"/></svg>