<svg xmlns="http://www.w3.org/2000/svg" width="32" height="32" fill="none" class="persona-icon" viewBox="0 0 32 32"><path fill="currentColor" fill-rule="evenodd" d="M10.996 2.178a1 1 0 0 1 1 1v.25H15v-.25a1 1 0 0 1 2 0v.25h3.004v-.25a1 1 0 0 1 2 0v.327A4.86 4.86 0 0 1 26 8.285v4.324a1 1 0 1 1-2 0V8.286c0-1.278-.839-2.36-1.996-2.725v1.37a1 1 0 1 1-2 0V5.429H17V6.93a1 1 0 1 1-2 0V5.429h-3.004V6.93a1 1 0 1 1-2 0V5.56A2.86 2.86 0 0 0 8 8.286v15.428a2.857 2.857 0 0 0 2.857 2.858h2.778a1 1 0 1 1 0 2h-2.778A4.857 4.857 0 0 1 6 23.714V8.286a4.86 4.86 0 0 1 3.996-4.781v-.327a1 1 0 0 1 1-1m11.719 15.438-6.126 6.126a1 1 0 0 0-.293.707v3.212a1 1 0 0 0 1 1h3.211a1 1 0 0 0 .707-.293l7.708-7.708c.42-.42.885-1.089 1.005-1.93.13-.902-.16-1.851-1.005-2.695s-1.794-1.135-2.695-1.006c-.842.12-1.511.586-1.93 1.006l-1.498 1.497a1 1 0 0 0-.084.084m2.546 3.877-5.168 5.168h-1.797v-1.797l5.168-5.168zm1.249-4.484c-.283.04-.577.218-.8.44l-.832.833 1.797 1.797.833-.833c.222-.222.4-.516.44-.799.031-.223 0-.557-.44-.998s-.776-.472-.998-.44" clip-rule="evenodd"/></svg>