<svg xmlns="http://www.w3.org/2000/svg" width="32" height="32" fill="none"><path fill="#000" d="M12.34 7.78c-.56 0-1.014.448-1.014 1s.454 1 1.014 1h10.254c.56 0 1.014-.448 1.014-1s-.454-1-1.014-1H12.34ZM12.34 15.002c-.56 0-1.014.448-1.014 1 0 .553.454 1 1.014 1h10.254c.56 0 1.014-.447 1.014-1 0-.552-.454-1-1.014-1H12.34ZM12.34 22.224c-.56 0-1.014.448-1.014 1 0 .553.454 1 1.014 1h10.254c.56 0 1.014-.447 1.014-1 0-.552-.454-1-1.014-1H12.34Z"/><path fill="#000" fill-rule="evenodd" d="M5.467 7.336c0-2.946 2.421-5.334 5.408-5.334h11.719c2.987 0 5.408 2.388 5.408 5.334v17.333c0 2.945-2.421 5.333-5.408 5.333H10.875c-2.987 0-5.408-2.388-5.408-5.333v-.445h-.45c-.56 0-1.015-.447-1.015-1 0-.552.454-1 1.014-1h.451v-5.222h-.45c-.56 0-1.015-.447-1.015-1 0-.552.454-1 1.014-1h.451V9.78h-.45c-.56 0-1.015-.448-1.015-1s.454-1 1.014-1h.451v-.444Zm2.028 17.333v-.445h.45c.56 0 1.015-.447 1.015-1 0-.552-.454-1-1.014-1h-.45v-5.222h.45c.56 0 1.014-.447 1.014-1 0-.552-.454-1-1.014-1h-.45V9.78h.45c.56 0 1.014-.448 1.014-1s-.454-1-1.014-1h-.45v-.444c0-1.841 1.513-3.334 3.38-3.334h11.718c1.867 0 3.38 1.493 3.38 3.334v17.333c0 1.84-1.513 3.333-3.38 3.333H10.875c-1.866 0-3.38-1.492-3.38-3.333Z" clip-rule="evenodd"/></svg>