<svg xmlns="http://www.w3.org/2000/svg" width="24" height="24" fill="none"><path fill="#000" fill-rule="evenodd" d="M20.462 12a8.461 8.461 0 1 0-16.923 0 8.461 8.461 0 0 0 16.922 0ZM12 2c5.523 0 10 4.477 10 10s-4.477 10-10 10S2 17.523 2 12 6.477 2 12 2Z" clip-rule="evenodd"/><path fill="#000" fill-rule="evenodd" d="M15.766 12.494a.782.782 0 0 1 0 1.117l-3.2 3.158a.808.808 0 0 1-1.132 0l-3.2-3.158a.782.782 0 0 1 0-1.117.808.808 0 0 1 1.132 0l1.834 1.81V7.79c0-.436.358-.789.8-.789.442 0 .8.353.8.79v6.515l1.834-1.81a.808.808 0 0 1 1.132 0Z" clip-rule="evenodd"/></svg>