<svg xmlns="http://www.w3.org/2000/svg" width="32" height="32" fill="none"><path fill="#000" fill-rule="evenodd" d="M16 5C9.925 5 5 9.925 5 16s4.925 11 11 11 11-4.925 11-11S22.075 5 16 5ZM3 16C3 8.82 8.82 3 16 3s13 5.82 13 13-5.82 13-13 13S3 23.18 3 16Z" clip-rule="evenodd"/><path fill="#000" fill-rule="evenodd" d="M14.12 7.83C13.44 9.877 13 12.765 13 16c0 3.236.439 6.124 1.12 8.17.343 1.027.729 1.786 1.108 2.268.39.493.657.562.772.562.115 0 .383-.069.772-.562.38-.482.765-1.241 1.108-2.269C18.56 22.124 19 19.236 19 16c0-3.236-.439-6.124-1.12-8.17-.343-1.027-.729-1.786-1.108-2.268C16.382 5.069 16.115 5 16 5c-.115 0-.383.069-.772.562-.38.482-.765 1.241-1.108 2.269Zm-.462-3.506C14.226 3.603 15.01 3 16 3s1.774.603 2.342 1.324c.578.733 1.054 1.73 1.435 2.874C20.543 9.497 21 12.608 21 16c0 3.391-.457 6.503-1.223 8.802-.381 1.143-.857 2.142-1.435 2.874C17.774 28.397 16.99 29 16 29s-1.774-.603-2.342-1.324c-.578-.732-1.054-1.73-1.435-2.874C11.457 22.503 11 19.392 11 16c0-3.391.457-6.503 1.223-8.802.381-1.144.857-2.141 1.435-2.874Z" clip-rule="evenodd"/><path fill="#000" fill-rule="evenodd" d="M10.75 20.971a21.45 21.45 0 0 1 5.343-.637 21.32 21.32 0 0 1 5.326.681c1.671.443 3.18 1.092 4.406 1.92l-1.119 1.657c-1.006-.678-2.298-1.246-3.799-1.643a19.314 19.314 0 0 0-4.822-.616 19.452 19.452 0 0 0-4.84.576c-1.512.385-2.822.943-3.849 1.615L6.3 22.851c1.246-.816 2.769-1.451 4.45-1.88ZM10.58 10.985c-1.67-.443-3.178-1.092-4.405-1.92l1.119-1.657c1.006.679 2.298 1.246 3.799 1.643 1.498.397 3.145.609 4.822.615 1.678.007 3.331-.19 4.84-.575 1.512-.385 2.822-.943 3.849-1.615L25.7 9.149c-1.246.816-2.769 1.451-4.45 1.88a21.45 21.45 0 0 1-5.343.637 21.32 21.32 0 0 1-5.326-.681ZM3 16a1 1 0 0 1 1-1h24a1 1 0 1 1 0 2H4a1 1 0 0 1-1-1Z" clip-rule="evenodd"/></svg>