<svg xmlns="http://www.w3.org/2000/svg" width="32" height="32" fill="none" class="persona-icon" viewBox="0 0 32 32"><path fill="currentColor" fill-rule="evenodd" d="M16 2c7.732 0 14 6.268 14 14s-6.268 14-14 14a13.94 13.94 0 0 1-9.274-3.512l.003.002A13.97 13.97 0 0 1 2 16C2 8.268 8.268 2 16 2m0 5.778a5.333 5.333 0 1 0 0 10.666 5.333 5.333 0 0 0 0-10.666m8.943 16.224a5 5 0 0 0-.341-.456 7.9 7.9 0 0 0-6.003-2.768h-5.198a7.9 7.9 0 0 0-6.003 2.768 4.4 4.4 0 0 0-.341.455q.689.77 1.5 1.412A11.95 11.95 0 0 0 16 28c2.813 0 5.398-.967 7.444-2.587q.81-.642 1.499-1.411" clip-rule="evenodd"/></svg>