<svg xmlns="http://www.w3.org/2000/svg" width="16" height="16" fill="none" class="persona-icon" viewBox="0 0 16 16"><path fill="currentColor" fill-rule="evenodd" d="M8.2 9.461v1.122c0 .523-.251.97-.626 1.216-.379.248-.88.287-1.318 0l-3.93-2.584c-.835-.548-.835-1.882 0-2.43L6.256 4.2a1.18 1.18 0 0 1 1.318 0c.375.247.626.693.626 1.216v1.122l3.556-2.337a1.18 1.18 0 0 1 1.318 0c.375.246.626.692.626 1.215v5.167c0 .522-.251.968-.626 1.215-.379.249-.88.287-1.318 0zM6.79 5.084 2.858 7.668A.39.39 0 0 0 2.7 8c0 .15.064.27.159.332l3.93 2.584a.215.215 0 0 0 .252 0 .39.39 0 0 0 .159-.333V5.417a.39.39 0 0 0-.159-.333.215.215 0 0 0-.252 0M8.2 8c0 .15.064.27.159.332l3.93 2.584a.215.215 0 0 0 .252 0 .39.39 0 0 0 .159-.332V5.417a.39.39 0 0 0-.159-.333.215.215 0 0 0-.252 0L8.36 7.668A.39.39 0 0 0 8.2 8" clip-rule="evenodd"/></svg>