<svg xmlns="http://www.w3.org/2000/svg" width="16" height="16" fill="none" class="persona-icon" viewBox="0 0 16 16"><path fill="currentColor" fill-rule="evenodd" d="M8.5 6.598v-1.28A1.427 1.427 0 0 0 6.36 4.082L1.714 6.764a1.428 1.428 0 0 0 0 2.472l4.645 2.683A1.427 1.427 0 0 0 8.5 10.682v-1.28l4.359 2.517A1.427 1.427 0 0 0 15 10.682V5.318a1.427 1.427 0 0 0-2.141-1.236L8.5 6.598Zm-1-1.28V10.682c0 .33-.356.535-.641.37L2.214 8.37a.428.428 0 0 1 0-.74l4.645-2.683a.427.427 0 0 1 .641.37Zm1 2.692v-.02a.423.423 0 0 1 .214-.36l4.645-2.683a.427.427 0 0 1 .641.37v5.365c0 .33-.356.535-.641.37L8.714 8.37a.423.423 0 0 1-.214-.36Z" clip-rule="evenodd"/></svg>