<svg xmlns="http://www.w3.org/2000/svg" width="20" height="20" fill="none" class="persona-icon" viewBox="0 0 20 20"><path fill="currentColor" fill-rule="evenodd" d="M10.6 8.35V6.947a1.656 1.656 0 0 0-2.484-1.434L2.828 8.566a1.656 1.656 0 0 0 0 2.868l5.288 3.054a1.656 1.656 0 0 0 2.484-1.434v-1.405l4.916 2.839A1.656 1.656 0 0 0 18 13.054V6.946a1.656 1.656 0 0 0-2.484-1.434zM9.4 6.947V9.95a1.674 1.674 0 0 0 0 .1v3.004c0 .35-.38.57-.684.395l-5.288-3.054a.456.456 0 0 1 0-.79l5.288-3.054a.456.456 0 0 1 .684.395m1.2 3.08v-.052a.45.45 0 0 1 .227-.369l5.289-3.054a.456.456 0 0 1 .684.395v6.108c0 .35-.38.57-.684.395l-5.289-3.054a.451.451 0 0 1-.227-.369" clip-rule="evenodd"/></svg>