<svg xmlns="http://www.w3.org/2000/svg" width="20" height="20" fill="none" class="persona-icon" viewBox="0 0 20 20"><path fill="currentColor" fill-rule="evenodd" d="M10.625 11.717v1.209c0 .603-.303 1.12-.756 1.405a1.48 1.48 0 0 1-1.593 0L3.63 11.405c-1.008-.635-1.008-2.176 0-2.81l4.645-2.926a1.48 1.48 0 0 1 1.593 0c.453.285.756.802.756 1.405v1.21l4.15-2.615a1.48 1.48 0 0 1 1.594 0c.453.285.756.802.756 1.405v5.852c0 .604-.303 1.12-.756 1.405a1.48 1.48 0 0 1-1.593 0zm-1.683-4.99L4.297 9.651a.4.4 0 0 0-.172.348.4.4 0 0 0 .172.347l4.645 2.926c.09.057.178.053.261 0a.4.4 0 0 0 .172-.347V7.074a.4.4 0 0 0-.172-.348.23.23 0 0 0-.261 0M10.625 10a.4.4 0 0 0 .172.348l4.645 2.926a.23.23 0 0 0 .261 0 .4.4 0 0 0 .172-.348V7.074a.4.4 0 0 0-.172-.347.23.23 0 0 0-.261 0l-4.645 2.926a.4.4 0 0 0-.172.347" clip-rule="evenodd"/></svg>