<svg xmlns="http://www.w3.org/2000/svg" width="32" height="32" fill="none" class="persona-icon" viewBox="0 0 32 32"><path fill="currentColor" fill-rule="evenodd" d="M17 11.172c0-1.955-2.071-3.408-3.877-2.298L5.26 13.702c-1.682 1.033-1.682 3.563 0 4.596l7.861 4.828C14.93 24.236 17 22.782 17 20.828v-2.076l7.122 4.374C25.93 24.236 28 22.783 28 20.828v-9.656c0-1.955-2.071-3.407-3.878-2.298L17 13.248zm-2.83-.594c.177-.11.36-.1.522 0a.68.68 0 0 1 .308.594v9.656a.68.68 0 0 1-.308.594.48.48 0 0 1-.523 0l-7.86-4.829A.68.68 0 0 1 6 16c0-.261.119-.478.308-.594zM17 16c0-.261.119-.477.308-.594l7.861-4.828c.178-.109.361-.1.523 0a.68.68 0 0 1 .308.594v9.656a.68.68 0 0 1-.308.594.48.48 0 0 1-.523 0l-7.86-4.828A.68.68 0 0 1 17 16" clip-rule="evenodd"/></svg>