<svg xmlns="http://www.w3.org/2000/svg" width="32" height="32" fill="none" class="persona-icon" viewBox="0 0 32 32"><path fill="currentColor" fill-rule="evenodd" d="M17 11.172v2.076l7.122-4.374C25.93 7.764 28 9.217 28 11.172v9.656c0 1.955-2.071 3.407-3.878 2.298L17 18.752v2.076c0 1.954-2.071 3.407-3.878 2.298l-7.86-4.828c-1.682-1.033-1.682-3.563 0-4.596l7.86-4.828C14.93 7.764 17 9.217 17 11.172m-2.83-.594-7.862 4.828A.68.68 0 0 0 6 16c0 .261.119.477.308.593l7.861 4.829c.178.109.361.099.523 0a.68.68 0 0 0 .308-.594v-9.656a.68.68 0 0 0-.308-.594.48.48 0 0 0-.523 0M17 16c0 .261.119.477.308.594l7.861 4.828c.178.109.361.1.523 0a.68.68 0 0 0 .308-.594v-9.656a.68.68 0 0 0-.308-.594.48.48 0 0 0-.523 0l-7.86 4.828A.68.68 0 0 0 17 16" clip-rule="evenodd"/></svg>