<svg xmlns="http://www.w3.org/2000/svg" width="16" height="16" fill="none" class="persona-icon" viewBox="0 0 16 16"><path fill="currentColor" fill-rule="evenodd" d="M2 3.722a1.722 1.722 0 1 1 3.241.812l1.06 1.06A2.93 2.93 0 0 1 8 5.057c.633 0 1.219.2 1.698.539l1.06-1.06a1.722 1.722 0 1 1 .707.707l-1.06 1.06c.34.48.54 1.066.54 1.698 0 .633-.2 1.219-.54 1.699l1.06 1.06a1.722 1.722 0 1 1-.707.707l-1.06-1.06c-.48.34-1.065.539-1.698.539s-1.218-.2-1.698-.54l-1.06 1.061a1.722 1.722 0 1 1-.707-.707l1.06-1.06A2.93 2.93 0 0 1 5.055 8c0-.632.2-1.218.54-1.698l-1.061-1.06A1.722 1.722 0 0 1 2 3.721M3.722 3a.722.722 0 1 0 0 1.444.722.722 0 0 0 0-1.444m0 8.556a.722.722 0 1 0 0 1.444.722.722 0 0 0 0-1.444M8 6.056a1.945 1.945 0 1 0 0 3.889 1.945 1.945 0 0 0 0-3.89M12.278 3a.722.722 0 1 0 0 1.444.722.722 0 0 0 0-1.444m0 8.556a.722.722 0 1 0 0 1.444.722.722 0 0 0 0-1.444" clip-rule="evenodd"/></svg>