<svg xmlns="http://www.w3.org/2000/svg" width="24" height="24" fill="none" class="persona-icon" viewBox="0 0 24 24"><path fill="currentColor" fill-rule="evenodd" d="M3 5.583a2.583 2.583 0 1 1 4.862 1.219l1.59 1.59A4.4 4.4 0 0 1 12 7.583c.949 0 1.828.3 2.548.809l1.59-1.59a2.583 2.583 0 1 1 1.06 1.06l-1.59 1.59c.51.72.809 1.6.809 2.548 0 .949-.3 1.828-.809 2.548l1.59 1.59a2.583 2.583 0 1 1-1.06 1.06l-1.59-1.59c-.72.51-1.6.809-2.548.809-.949 0-1.828-.3-2.547-.809l-1.59 1.59a2.583 2.583 0 1 1-1.06-1.06l1.589-1.59A4.4 4.4 0 0 1 7.583 12c0-.949.3-1.828.809-2.547l-1.59-1.59A2.583 2.583 0 0 1 3 5.583M5.583 4.5a1.083 1.083 0 1 0 0 2.167 1.083 1.083 0 0 0 0-2.167m0 12.833a1.083 1.083 0 1 0 0 2.167 1.083 1.083 0 0 0 0-2.167M12 9.083a2.917 2.917 0 1 0 0 5.834 2.917 2.917 0 0 0 0-5.834M18.417 4.5a1.083 1.083 0 1 0 0 2.167 1.083 1.083 0 0 0 0-2.167m0 12.833a1.083 1.083 0 1 0 0 2.167 1.083 1.083 0 0 0 0-2.167" clip-rule="evenodd"/></svg>