<svg xmlns="http://www.w3.org/2000/svg" width="32" height="32" fill="none" class="persona-icon" viewBox="0 0 32 32"><path fill="currentColor" fill-rule="evenodd" d="M4 7.445a3.444 3.444 0 1 1 6.483 1.624l2.12 2.12A5.86 5.86 0 0 1 16 10.111c1.265 0 2.437.399 3.397 1.078l2.12-2.12a3.444 3.444 0 1 1 1.414 1.414l-2.12 2.12A5.86 5.86 0 0 1 21.89 16a5.86 5.86 0 0 1-1.078 3.397l2.12 2.12a3.444 3.444 0 1 1-1.414 1.414l-2.12-2.12A5.86 5.86 0 0 1 16 21.89a5.86 5.86 0 0 1-3.397-1.078l-2.12 2.12a3.444 3.444 0 1 1-1.414-1.414l2.12-2.12A5.86 5.86 0 0 1 10.111 16c0-1.265.399-2.437 1.078-3.397l-2.12-2.12A3.444 3.444 0 0 1 4 7.445M7.444 6a1.444 1.444 0 1 0 0 2.889 1.444 1.444 0 0 0 0-2.889m17.111 0a1.444 1.444 0 1 0 0 2.889 1.444 1.444 0 0 0 0-2.889M16 12.111a3.889 3.889 0 1 0 0 7.778 3.889 3.889 0 0 0 0-7.778m-8.555 11a1.444 1.444 0 1 0 0 2.889 1.444 1.444 0 0 0 0-2.889m17.11 0a1.444 1.444 0 1 0 0 2.889 1.444 1.444 0 0 0 0-2.889" clip-rule="evenodd"/></svg>