<svg xmlns="http://www.w3.org/2000/svg" width="24" height="24" fill="none"><path fill="#000" d="M18.923 18.154a.77.77 0 0 0-.77-.77H9.95a.77.77 0 1 0 0 1.54h8.205a.77.77 0 0 0 .77-.77ZM18.154 12.77a.77.77 0 1 0 0-1.54H9.949a.77.77 0 1 0 0 1.54h8.205ZM18.923 15.077a.77.77 0 0 1-.77.77H9.95a.77.77 0 0 1 0-1.54h8.205a.77.77 0 0 1 .77.77Z"/><path fill="#000" fill-rule="evenodd" d="M9.949 5.077a.77.77 0 0 0-.77.77v3.076c0 .425.345.77.77.77h8.205a.77.77 0 0 0 .77-.77V5.846a.77.77 0 0 0-.77-.77H9.949Zm.769 3.077V6.615h6.667v1.539h-6.667Z" clip-rule="evenodd"/><path fill="#000" fill-rule="evenodd" d="M5.846 2A3.846 3.846 0 0 0 2 5.846v12.308A3.846 3.846 0 0 0 5.846 22h12.308A3.846 3.846 0 0 0 22 18.154V5.846A3.846 3.846 0 0 0 18.154 2H5.846Zm.257 1.538h-.257a2.308 2.308 0 0 0-2.308 2.308v12.308a2.308 2.308 0 0 0 2.308 2.308h.257V3.538ZM7.64 20.462V3.538h10.513a2.308 2.308 0 0 1 2.308 2.308v12.308a2.308 2.308 0 0 1-2.308 2.308H7.64Z" clip-rule="evenodd"/></svg>