<svg xmlns="http://www.w3.org/2000/svg" width="32" height="32" fill="none"><path fill="#000" fill-rule="evenodd" d="M3 6.559A3.559 3.559 0 0 1 6.559 3h3.882A3.559 3.559 0 0 1 14 6.559v3.882A3.559 3.559 0 0 1 10.441 14H6.56A3.559 3.559 0 0 1 3 10.441V6.56ZM6.559 4.94c-.894 0-1.618.724-1.618 1.618v3.882c0 .894.724 1.618 1.618 1.618h3.882c.894 0 1.618-.724 1.618-1.618V6.56c0-.894-.724-1.618-1.618-1.618H6.56ZM18 6.559A3.559 3.559 0 0 1 21.559 3h3.882A3.559 3.559 0 0 1 29 6.559v3.882A3.559 3.559 0 0 1 25.441 14H21.56A3.559 3.559 0 0 1 18 10.441V6.56Zm3.559-1.618c-.894 0-1.618.724-1.618 1.618v3.882c0 .894.724 1.618 1.618 1.618h3.882c.894 0 1.618-.724 1.618-1.618V6.56c0-.894-.724-1.618-1.618-1.618H21.56ZM6.667 18C4.642 18 3 19.593 3 21.559v3.882C3 27.407 4.642 29 6.667 29h18.666C27.358 29 29 27.407 29 25.441V21.56C29 19.593 27.358 18 25.333 18H6.667ZM5 21.559c0-.894.746-1.618 1.667-1.618h18.666c.92 0 1.667.724 1.667 1.618v3.882c0 .894-.746 1.618-1.667 1.618H6.667c-.92 0-1.667-.724-1.667-1.618V21.56Z" clip-rule="evenodd"/></svg>