<svg xmlns="http://www.w3.org/2000/svg" width="32" height="32" fill="none"><path fill="#000" fill-rule="evenodd" d="M29.444 16.056c-.863-.863-1.831-1.157-2.749-1.026-.858.122-1.541.597-1.97 1.026l-7.932 7.932a1 1 0 0 0-.293.707V28a1 1 0 0 0 1 1h3.305a1 1 0 0 0 .707-.293l7.932-7.932c.429-.429.904-1.112 1.026-1.97.131-.918-.163-1.886-1.026-2.749Zm-3.305 1.415c.232-.232.54-.419.839-.461.239-.035.592.001 1.052.46.459.46.494.813.46 1.052-.042.3-.228.607-.46.84l-.878.876-1.89-1.89.877-.877Zm-2.291 2.29L18.5 25.11V27h1.89l5.348-5.347-1.89-1.891Z" clip-rule="evenodd"/><path fill="#000" fill-rule="evenodd" d="M7.532 8c0-1.657 1.365-3 3.049-3h5.758v4.333c0 2.025 1.668 3.667 3.726 3.667h5.419c.404 0 .77-.236.932-.601a.988.988 0 0 0-.19-1.081l-6.783-7.153A3.754 3.754 0 0 0 16.719 3h-6.138C7.775 3 5.5 5.239 5.5 8v16c0 2.761 2.275 5 5.08 5h2.71c.562 0 1.016-.448 1.016-1s-.454-1-1.016-1h-2.71c-1.683 0-3.048-1.343-3.048-3V8Zm15.499 3h-2.966c-.936 0-1.694-.746-1.694-1.667V6.414L23.031 11Z" clip-rule="evenodd"/></svg>