<svg xmlns="http://www.w3.org/2000/svg" width="40" height="40" fill="none" viewBox="0 0 40 40"><mask id="a" width="34" height="34" x="3" y="3" maskUnits="userSpaceOnUse" style="mask-type:alpha"><circle cx="20.0003" cy="20.0007" r="16.6667" fill="#D9D9D9"/></mask><g mask="url(#a)"><circle cx="20.0003" cy="20.0007" r="16.6667" fill="#D3EDFF"/><path fill="#3F568E" fill-rule="evenodd" d="M.976 10.59c-.27-.754-.227-1.455.117-1.927l.027-.035 1.188-1.522-.002.003-.014.017a1.5 1.5 0 0 0-.251.581l.405-.52c.248-.317.646-.482 1.119-.463l-1.2 1.537a2 2 0 0 0-.205.003q.022.358.16.75l-.107.139 12.928 36.21c.549 1.36 1.484 2.171 2.553 2.253q.225.017.458-.01l12.424-1.429.074-.094a2.7 2.7 0 0 0-.165-.934l.214-.275-.216.276-12.015-34.03c-.433-1.222-1.604-2.253-2.636-2.332l1.2-1.537c1.032.08 2.203 1.108 2.635 2.331l12.017 34.03c.244.687.219 1.35-.066 1.819l-.183.234.183-.234a2 2 0 0 1-.087.126l-.386.495q.3-.13.508-.394l-1.198 1.534a1.32 1.32 0 0 1-.915.504l-12.587 1.447q-.232.027-.46.01c-1.069-.082-2.003-.894-2.552-2.254l1.183-1.514-1.185 1.514z" clip-rule="evenodd"/><path fill="#3F568E" d="m2.32 7.091-.012.015zm13.51 1.697 1.202-1.537-13.467-.527-1.2 1.537z"/><path fill="#FFF9E1" fill-rule="evenodd" d="M31.75 45.514c.308-.503.337-1.21.078-1.939l-.001-.002L19.81 9.544c-.453-1.281-1.689-2.36-2.849-2.45L3.557 6.573c-.538-.02-.988.177-1.263.554-.344.471-.386 1.172-.117 1.926l12.964 36.31c.549 1.36 1.483 2.171 2.552 2.254.15.01.306.008.46-.01l12.587-1.448a1.33 1.33 0 0 0 1.01-.644" clip-rule="evenodd"/><path fill="#3F568E" d="m31.954 47.726-13.54 1.563c-1.101.127-2.386-.868-2.863-2.224L8.333 26.539 2.172 9.018c-.477-1.356.083-2.425 1.24-2.388l14.242.454c1.043.033 2.247 1.093 2.696 2.366l6.013 17.09 6.57 18.672c.448 1.275.013 2.4-.98 2.513"/><path fill="#F8F8F8" d="m31.537 46.91-13.291 1.493c-.74.083-1.604-.586-1.923-1.497l-7.139-20.3L3.032 9.11c-.32-.91.053-1.628.831-1.607l13.954.404c.703.02 1.515.734 1.818 1.594l6.018 17.104 6.548 18.61c.303.86.006 1.619-.663 1.693z"/></g><circle cx="9.08234" cy="9.08234" r="9.08234" fill="#FFC509" transform="matrix(-1 0 0 1 38.4 .834)"/><circle cx="9.08234" cy="9.08234" r="9.08234" fill="#FEE283" transform="matrix(-1 0 0 1 36.907 .834)"/><circle cx="6.90119" cy="6.90119" r="6.90119" fill="#FFF9E1" transform="matrix(-1 0 0 1 34.726 3.014)"/><path fill="#FFC509" d="M27.444 4.676a.4.4 0 0 1 .761 0l.969 2.983a.4.4 0 0 0 .38.276h3.136a.4.4 0 0 1 .236.724l-2.537 1.843a.4.4 0 0 0-.146.447l.97 2.983a.4.4 0 0 1-.616.447l-2.537-1.843a.4.4 0 0 0-.47 0l-2.538 1.843a.4.4 0 0 1-.615-.447l.969-2.982a.4.4 0 0 0-.146-.448L22.724 8.66a.4.4 0 0 1 .235-.724h3.136a.4.4 0 0 0 .38-.276z"/><path fill="#3F568E" fill-rule="evenodd" d="M.975 10.59c-.269-.754-.226-1.455.117-1.927l.027-.035 1.189-1.522-.003.003-.013.017a1.5 1.5 0 0 0-.252.581l.405-.52c.249-.317.646-.482 1.12-.463l-1.2 1.537a2 2 0 0 0-.206.003q.023.358.161.75l-.108.139 5.564 15.583 15.216-.713-4.525-12.904c-.432-1.221-1.603-2.252-2.635-2.33l1.2-1.538c1.032.08 2.203 1.108 2.635 2.331l5.18 14.67-18.82.484z" clip-rule="evenodd"/><path fill="#3F568E" d="m2.319 7.091-.011.015zM15.83 8.788l1.202-1.537-13.468-.527-1.2 1.537z"/><path fill="#3F568E" fill-rule="evenodd" d="M25.483 24.125 20.334 9.542c-.452-1.28-1.527-2.65-3.372-2.448L3.556 6.572c-.538-.02-.987.177-1.263.554-.343.471-.386 1.172-.117 1.926l5.711 15.995z" clip-rule="evenodd"/><path fill="#F8F8F8" d="M8.633 25.02 3.03 9.11c-.32-.908.053-1.627.831-1.606l13.954.404c.704.02 1.515.734 1.818 1.594l5.199 14.775z"/><path fill="#3F568E" d="M12.338 7.717c.144.407.146.796.008 1.078-.14.283-.409.437-.75.429s-.729-.18-1.073-.476a2.7 2.7 0 0 1-.767-1.107l2.583.074z"/><path fill="#EA4F4A" d="m15.64 18.93-3.549 6.157c-.767-.637-1.348-1.453-1.646-2.324-.348-1.017-.283-2.032.18-2.833s1.288-1.328 2.306-1.47c.87-.12 1.822.047 2.71.47m1.011.162-3.78 6.544c.398.233.82.416 1.25.54a4.6 4.6 0 0 0 1.696.168 3.5 3.5 0 0 0 1.482-.475 2.9 2.9 0 0 0 1.028-1.044l3.266-5.666a6.3 6.3 0 0 0-1.396-.557 5.1 5.1 0 0 0-1.829-.155c-.6.062-1.14.21-1.555.5a.7.7 0 0 0-.162.145"/></svg>