<svg xmlns="http://www.w3.org/2000/svg" width="30" height="22" fill="none" viewBox="0 0 30 22"><circle cx="10.503" cy="10.895" r="10.248" fill="#E42E2C"/><circle cx="10.503" cy="10.895" r="10.248" fill="url(#a)" fill-opacity=".2" style="mix-blend-mode:multiply"/><path fill="#E42E2C" d="M15.428 19.87a10.45 10.45 0 0 0 3.178-2.689l11.087-14.04a11.6 11.6 0 0 0-3.945-2.035A11.4 11.4 0 0 0 21.352.71c-1.471.156-2.92.53-4.177 1.306-.557.343-.793.645-1.19 1.155l-.024.031L3.777 18.63a10.1 10.1 0 0 0 3.581 2.029c1.322.424 2.719.573 4.106.437a10.3 10.3 0 0 0 3.964-1.225"/><defs><linearGradient id="a" x1="10.503" x2="6.335" y1="10.895" y2="7.411" gradientUnits="userSpaceOnUse"><stop offset=".158"/><stop offset=".366" stop-opacity=".75"/><stop offset=".573" stop-opacity=".5"/><stop offset=".802" stop-opacity=".25"/><stop offset="1" stop-opacity="0"/></linearGradient></defs></svg>