<svg xmlns="http://www.w3.org/2000/svg" width="96" height="96" fill="none" viewBox="0 0 96 96"><g clip-path="url(#a)"><path fill="#464C59" d="M0 0h96v96H0z"/><path fill="#fff" d="M15 25h130v44H15z"/><path fill="#232323" fill-rule="evenodd" d="M36.136 52V40.8h4.224q1.745 0 2.64.816.896.816.896 2.048 0 1.072-.576 1.712a2.9 2.9 0 0 1-1.392.848 2.7 2.7 0 0 1 1.136.512q.512.384.8.96t.288 1.248q0 .864-.432 1.568-.416.688-1.232 1.088t-2 .4zm1.696-6.4h2.32q.976 0 1.488-.448.512-.464.512-1.264 0-.785-.512-1.248-.495-.465-1.52-.464h-2.288zm0 5.008h2.432q1.024 0 1.584-.48.576-.48.576-1.344t-.592-1.36q-.592-.512-1.6-.512h-2.4zm11.293 1.584q-1.44 0-2.272-.896-.816-.896-.816-2.672v-4.56h1.696v4.384q0 2.304 1.888 2.304.945 0 1.552-.672t.608-1.92v-4.096h1.696V52h-1.504l-.128-1.392q-.368.735-1.088 1.168-.704.416-1.632.416M59.212 52q-1.167 0-1.856-.56-.687-.576-.687-2.032v-3.92h-1.36v-1.424h1.36l.208-2.016h1.487v2.016h2.24v1.424h-2.24v3.92q0 .656.273.912.287.24.975.24h.913V52zm6.72 0q-1.17 0-1.857-.56-.687-.576-.688-2.032v-3.92h-1.36v-1.424h1.36l.208-2.016h1.488v2.016h2.24v1.424h-2.24v3.92q0 .656.272.912.288.24.976.24h.912V52zm6.899.192q-1.136 0-2.048-.512a3.9 3.9 0 0 1-1.424-1.456q-.528-.944-.528-2.192t.528-2.176a3.8 3.8 0 0 1 1.456-1.456 4 4 0 0 1 2.032-.528q1.136 0 2.032.528a3.7 3.7 0 0 1 1.44 1.456q.543.928.544 2.176 0 1.248-.544 2.192a3.85 3.85 0 0 1-1.44 1.456q-.912.512-2.048.512m0-1.456q.607 0 1.12-.304.528-.304.848-.896.32-.608.32-1.504t-.32-1.488a2.1 2.1 0 0 0-.832-.912 2.15 2.15 0 0 0-1.12-.304q-.608 0-1.136.304-.512.304-.832.912-.32.592-.32 1.488t.32 1.504q.32.592.832.896t1.12.304m6.116-6.672h1.504l.128 1.392q.368-.736 1.072-1.152.72-.432 1.648-.432 1.44 0 2.256.896.832.896.832 2.672V52h-1.68v-4.384q0-2.304-1.888-2.304-.945 0-1.568.672-.608.672-.608 1.92V52h-1.696zM95.604 52v-9.824h-3.312V40.8h8.304v1.376H97.3V52zm9.039.192q-1.167 0-2.08-.512a3.8 3.8 0 0 1-1.408-1.456q-.512-.928-.512-2.16 0-1.248.496-2.192a3.75 3.75 0 0 1 1.408-1.472q.912-.528 2.112-.528 1.168 0 2.032.528.864.512 1.344 1.376t.48 1.904q0 .16-.016.352 0 .175-.016.4h-6.176q.08 1.152.752 1.76.688.592 1.584.592.72 0 1.2-.32.496-.336.736-.896h1.696q-.32 1.12-1.28 1.872-.944.752-2.352.752m0-6.928a2.38 2.38 0 0 0-1.504.512q-.656.495-.8 1.504h4.48q-.048-.929-.656-1.472-.608-.544-1.52-.544M109.288 52l2.816-3.968-2.816-3.968h1.808l2.128 3.04 2.112-3.04h1.824l-2.816 3.968L117.16 52h-1.824l-2.112-3.04-2.128 3.04zm12.831 0q-1.169 0-1.856-.56-.688-.576-.688-2.032v-3.92h-1.36v-1.424h1.36l.208-2.016h1.488v2.016h2.24v1.424h-2.24v3.92q0 .656.272.912.288.24.976.24h.912V52z" clip-rule="evenodd"/><path fill="#fff" d="M15 25v-1h-1v1zm130 0h1v-1h-1zm0 44v1h1v-1zM15 69h-1v1h1zm0-43h130v-2H15zm129-1v44h2V25zm1 43H15v2h130zM16 69V25h-2v44z"/></g><defs><clipPath id="a"><path fill="#fff" d="M0 0h96v96H0z"/></clipPath></defs></svg>