<svg xmlns="http://www.w3.org/2000/svg" width="96" height="96" fill="none" viewBox="0 0 96 96"><g clip-path="url(#a)"><path fill="#464C59" d="M0 0h96v96H0z"/><rect width="915.719" height="72.254" x="20.372" y="17.372" fill="#fff" rx="11.53"/><path fill="#56585D" d="M29.534 26.695v-6.249h1.142v5.356h2.768v.893zm6.714.107q-.572 0-.938-.178a1.3 1.3 0 0 1-.544-.491 1.3 1.3 0 0 1-.179-.67q0-.615.482-1 .482-.384 1.446-.384h1.125v-.107q0-.454-.259-.67a.97.97 0 0 0-.643-.213q-.348 0-.607.17a.7.7 0 0 0-.32.481h-1.117q.045-.481.322-.839.285-.358.732-.544.445-.197 1-.197.945 0 1.49.473.545.474.545 1.34v2.722h-.973l-.108-.714q-.195.357-.553.589-.349.232-.901.232m.258-.893q.491 0 .76-.321.276-.321.347-.794h-.973q-.454 0-.651.17a.5.5 0 0 0-.197.4q0 .26.197.403.196.142.517.142m6.289.893q-.5 0-.875-.187t-.607-.527l-.125.607H40.17v-6.427h1.143V22.9q.214-.294.563-.518.357-.223.919-.223.624 0 1.116.304.49.303.776.83.285.527.286 1.196 0 .67-.286 1.196-.285.518-.776.822-.492.294-1.116.294m-.241-1q.544 0 .901-.366.358-.366.358-.946t-.358-.955a1.2 1.2 0 0 0-.901-.375q-.553 0-.91.375-.35.367-.349.946 0 .58.348.955.358.366.91.366m5.889 1q-.67 0-1.188-.286a2.07 2.07 0 0 1-.812-.803 2.4 2.4 0 0 1-.294-1.196q0-.687.285-1.223.295-.536.803-.83.518-.304 1.215-.304.651 0 1.151.286.5.285.777.785.285.492.285 1.098 0 .099-.009.206 0 .106-.008.223h-3.366q.036.518.357.812.33.295.795.295.348 0 .58-.152a1 1 0 0 0 .357-.41h1.16q-.124.42-.42.767-.285.34-.713.536-.42.196-.955.196m.009-3.713q-.42 0-.741.24-.322.232-.411.715h2.205a.96.96 0 0 0-.322-.697 1.07 1.07 0 0 0-.731-.258m3.472 3.606v-6.427h1.142v6.427z"/><path fill="#0D1117" d="M31.405 50.304v-6.571H29.23v-.719h5.228v.719H32.28v6.571zm5.603.125q-.74 0-1.312-.333a2.5 2.5 0 0 1-.906-.948q-.323-.604-.323-1.427 0-.812.323-1.416.323-.614.896-.948.583-.343 1.343-.343.75 0 1.291.343.553.334.844.886a2.5 2.5 0 0 1 .281 1.416v.26h-4.113q.03.594.27.99.25.385.615.583.375.198.791.198.541 0 .906-.25a1.43 1.43 0 0 0 .532-.677h.864a2.35 2.35 0 0 1-.802 1.198q-.584.468-1.5.468m0-4.676q-.624 0-1.114.386-.48.375-.552 1.103h3.25q-.032-.698-.48-1.093-.447-.396-1.104-.396M40 50.304l1.791-2.583L40 45.14h.947l1.447 2.135 1.459-2.135h.937l-1.791 2.582 1.79 2.583h-.937l-1.458-2.135-1.447 2.135zm7.898 0q-.708 0-1.115-.343-.405-.345-.406-1.24v-2.843h-.895v-.74h.895l.115-1.239h.76v1.24h1.52v.74h-1.52v2.842q0 .49.198.667.197.166.698.166h.541v.75zm8.289.125q-1.073 0-1.854-.468a3.25 3.25 0 0 1-1.197-1.323q-.427-.855-.427-1.979 0-1.114.427-1.958a3.23 3.23 0 0 1 1.197-1.333q.78-.48 1.854-.479 1.25 0 2.03.604.792.594 1.01 1.666h-.968a1.9 1.9 0 0 0-.687-1.083q-.51-.416-1.385-.416-.781 0-1.364.364-.584.354-.907 1.031-.312.668-.312 1.604 0 .937.313 1.614.322.667.906 1.031.582.354 1.364.354.875 0 1.385-.395.52-.407.687-1.073h.969q-.22 1.052-1.01 1.646-.781.593-2.031.593m6.749 0q-.73 0-1.313-.333a2.45 2.45 0 0 1-.927-.937q-.333-.615-.333-1.438t.344-1.426q.343-.615.927-.948a2.66 2.66 0 0 1 1.322-.333q.73 0 1.313.333t.916.948q.345.604.344 1.426 0 .823-.344 1.438-.344.604-.937.937a2.6 2.6 0 0 1-1.312.333m0-.75q.447 0 .833-.218.386-.219.624-.657.24-.436.24-1.083 0-.645-.24-1.083a1.56 1.56 0 0 0-.614-.656 1.64 1.64 0 0 0-.823-.218 1.66 1.66 0 0 0-.833.218 1.63 1.63 0 0 0-.625.656q-.24.438-.24 1.083 0 .646.24 1.084.24.437.615.656.385.218.822.218m3.958.625V45.14h.791l.052.927q.25-.49.719-.771a2 2 0 0 1 1.062-.281q.917 0 1.458.562.552.552.552 1.708v3.02h-.875v-2.926q0-1.614-1.333-1.614-.666 0-1.114.489-.437.48-.437 1.375v2.676zm8.15 0q-.709 0-1.115-.343-.405-.345-.406-1.24v-2.843h-.896v-.74h.896l.115-1.239h.76v1.24h1.52v.74h-1.52v2.842q0 .49.198.667.198.166.698.166h.541v.75zm4.315.125a2.56 2.56 0 0 1-1.313-.333 2.5 2.5 0 0 1-.906-.948q-.322-.604-.322-1.427 0-.812.322-1.416.323-.614.896-.948.584-.343 1.343-.343.75 0 1.292.343.552.334.843.886a2.5 2.5 0 0 1 .282 1.416v.26H77.68q.03.594.27.99.25.385.615.583.375.198.792.198.54 0 .906-.25a1.43 1.43 0 0 0 .53-.677h.865a2.35 2.35 0 0 1-.802 1.198q-.582.468-1.5.468m0-4.676q-.625 0-1.115.386-.48.375-.552 1.103h3.25q-.03-.698-.48-1.093-.447-.396-1.103-.396m3.755 4.551V45.14h.792l.052.927q.25-.49.718-.771a2 2 0 0 1 1.063-.281q.916 0 1.458.562.552.552.552 1.708v3.02h-.875v-2.926q0-1.614-1.333-1.614-.667 0-1.115.489-.437.48-.437 1.375v2.676zm8.15 0q-.708 0-1.114-.343-.406-.345-.406-1.24v-2.843h-.896v-.74h.896l.114-1.239h.76v1.24h1.52v.74h-1.52v2.842q0 .49.198.667.198.166.698.166h.541v.75z"/><rect width="34.902" height="14.976" x="92.927" y="39.316" fill="#F2F7FD" rx="4.463"/><path fill="#9EA0A2" d="M32.328 63.411q-.92 0-1.59-.401a2.8 2.8 0 0 1-1.026-1.134q-.366-.732-.366-1.696 0-.955.366-1.678a2.77 2.77 0 0 1 1.027-1.143q.67-.41 1.589-.41 1.071 0 1.74.517.679.51.866 1.428h-.83a1.64 1.64 0 0 0-.59-.928q-.436-.357-1.186-.357-.67 0-1.17.313a2 2 0 0 0-.776.883q-.268.572-.268 1.375t.268 1.383q.276.572.776.884.5.304 1.17.304.75 0 1.187-.34.446-.348.59-.919h.83q-.188.902-.867 1.41-.669.51-1.74.51m5.41 0q-.555 0-.92-.187a1.27 1.27 0 0 1-.723-1.178q0-.678.518-1.045.517-.366 1.41-.366h1.196v-.053q0-.58-.303-.875-.303-.304-.812-.304-.438 0-.76.223-.31.215-.392.634h-.767q.044-.482.32-.812.286-.33.706-.5.42-.178.893-.178.928 0 1.392.5.474.49.473 1.312v2.722h-.67l-.044-.794q-.188.375-.553.642-.357.26-.964.26m.116-.633q.428 0 .732-.224.312-.222.473-.58.16-.357.16-.75v-.009h-1.133q-.66 0-.937.232a.7.7 0 0 0-.268.563q0 .349.25.562.258.206.723.206m3.538 2.49v-6.391h.678l.072.732q.213-.322.607-.58.401-.26 1.017-.26.66 0 1.152.304.49.304.759.83.276.527.276 1.196 0 .67-.276 1.197a2.04 2.04 0 0 1-.768.82q-.49.295-1.152.295-.544 0-.973-.223a1.55 1.55 0 0 1-.642-.625v2.705zm2.285-2.508q.447 0 .786-.206a1.5 1.5 0 0 0 .535-.589q.197-.375.197-.875t-.197-.874-.535-.58a1.44 1.44 0 0 0-.786-.215q-.446 0-.785.214-.34.205-.536.58a1.86 1.86 0 0 0-.197.875q0 .5.197.875.196.374.535.59.34.204.786.205m5.193.544q-.607 0-.955-.294t-.348-1.063V59.51h-.768v-.633h.768l.098-1.063h.651v1.063h1.304v.633h-1.304v2.437q0 .42.17.572.17.142.598.142h.464v.643zm2.455-5.41a.53.53 0 0 1-.375-.142.53.53 0 0 1-.143-.375q0-.215.143-.357a.53.53 0 0 1 .375-.143q.215 0 .366.143a.47.47 0 0 1 .152.357.5.5 0 0 1-.152.375.52.52 0 0 1-.366.143m-.375 5.41V58.88h.75v4.427zm4.37.107q-.623 0-1.124-.285a2.1 2.1 0 0 1-.795-.804q-.285-.526-.285-1.232 0-.705.294-1.223.296-.525.795-.812.508-.285 1.134-.285.624 0 1.124.285t.786.813q.294.517.294 1.222t-.294 1.232a2.1 2.1 0 0 1-.804.804q-.5.285-1.124.285m0-.642q.385 0 .715-.188.33-.187.535-.562t.206-.929-.206-.928a1.34 1.34 0 0 0-.526-.562 1.4 1.4 0 0 0-.705-.188q-.385 0-.715.188-.33.187-.535.562t-.206.928.206.929.526.562q.33.188.706.188m3.563.535V58.88h.679l.045.794q.214-.42.615-.66.402-.242.911-.242.785 0 1.25.483.473.473.473 1.463v2.59h-.75v-2.51q0-1.383-1.143-1.383-.57 0-.955.42-.375.41-.375 1.178v2.294z"/><rect width="915.719" height="72.254" x="20.372" y="17.372" stroke="#DCDCDC" stroke-width=".744" rx="11.53"/></g><defs><clipPath id="a"><path fill="#fff" d="M0 0h96v96H0z"/></clipPath></defs></svg>