<svg xmlns="http://www.w3.org/2000/svg" width="284" height="242" fill="none" viewBox="0 0 284 242"><path fill="url(#a)" d="M213.156 79.046q96.793 0 61.339 35.56c-35.454 35.561-84.21 29.195-72.774 60.154s118.129-2.246 65.748 44.211C215.088 265.43-35.7 235.257 22.782 184.625s67-72.94 41.451-72.94c-25.548 0-78.304-15.196-26.82-64.134C88.893-1.387 210.877-6.501 189.716 23.95c-21.161 30.453-48.027 43.49-21.161 49.293q26.865 5.802 44.6 5.802"/><g filter="url(#b)"><path fill="#E9EAED" d="M213.156 79.046q96.793 0 61.339 35.56c-35.454 35.561-84.21 29.195-72.774 60.154s118.129-2.246 65.748 44.211C215.088 265.43-35.7 235.257 22.782 184.625s67-72.94 41.451-72.94c-25.548 0-78.304-15.196-26.82-64.134C88.893-1.387 210.877-6.501 189.716 23.95c-21.161 30.453-48.027 43.49-21.161 49.293q26.865 5.802 44.6 5.802"/></g><path fill="#F3F3F3" fill-rule="evenodd" d="M40.907 28.116c5.752 9.534-29.07 39.706-37.745 26.159s31.994-35.693 37.745-26.16" clip-rule="evenodd"/><path fill="#F1F1F1" fill-rule="evenodd" d="M252.062 161.111c-.095 26.746-43.208 22.916-44.994 7.065-1.788-15.851 45.089-33.81 44.994-7.065" clip-rule="evenodd"/><g filter="url(#c)"><path fill="#E9EAED" d="M135.5 216c52.191 0 94.5-6.044 94.5-13.5S187.691 189 135.5 189c-52.19 0-94.5 6.044-94.5 13.5S83.31 216 135.5 216"/></g><path fill="url(#d)" fill-rule="evenodd" d="M149.24 127.155h104.806c2.714 0 4.641 1.693 4.305 3.783a3.3 3.3 0 0 1-.281.89L222.811 206l-176.11-3.116c-1.81 0-3.095-1.13-2.87-2.522q.047-.302.186-.594l34.464-72.613 2.917-6.137c1.86-3.912 7.767-7.082 13.195-7.082h51.103c5.428 0 8.32 3.17 6.461 7.082z" clip-rule="evenodd"/><path fill="url(#e)" fill-rule="evenodd" d="M136.555 103.306h109.782a1 1 0 0 1 .972 1.235L222.811 206H53.702c-5.523 0-10-4.477-10-10 0-.79.094-1.579.28-2.347l21.813-90.348 1.93-7.994c1.23-5.094 6.628-9.224 12.055-9.224h51.104c5.428 0 8.83 4.13 7.6 9.224l-1.93 7.994z" clip-rule="evenodd"/><g filter="url(#f)"><path fill="#000" d="M120.067 96.272h106.138c2.714 0 4.747 2.207 4.54 4.928L222.811 206H47.471a6 6 0 0 1-5.982-6.453l7.82-103.275.645-8.541c.412-5.443 5.147-9.856 10.574-9.856h51.104c5.427 0 9.493 4.413 9.081 9.856z"/></g><path fill="url(#g)" d="M120.067 96.272h106.138c2.714 0 4.747 2.207 4.54 4.928L222.811 206H47.471a6 6 0 0 1-5.982-6.453l7.82-103.275.645-8.541c.412-5.443 5.147-9.856 10.574-9.856h51.104c5.427 0 9.493 4.413 9.081 9.856z"/><path fill="url(#h)" d="M120.067 96.272h106.138c2.714 0 4.747 2.207 4.54 4.928L222.811 206H47.471a6 6 0 0 1-5.982-6.453l7.82-103.275.645-8.541c.412-5.443 5.147-9.856 10.574-9.856h51.104c5.427 0 9.493 4.413 9.081 9.856z"/><path stroke="#CCC" stroke-dasharray="4 6 4 6" stroke-linecap="round" stroke-linejoin="round" d="M165.335 93.535q-29.637-28.82-16.535-43.86c13.102-15.04 95.558 2.84 95.558-15.04s-57.697-48.272-66.824-25.492 4.74 56.184 26.93 56.184 36.302-11.89 65.428-2.328"/><path fill="#000" d="M275.579 67.911c.786 0 1.422-.638 1.422-1.424a1.423 1.423 0 1 0-2.844 0c0 .786.637 1.424 1.422 1.424"/><path fill="#000" d="M276.29 68.198a1 1 0 1 0 0-2 1 1 0 0 0 0 2"/><defs><linearGradient id="a" x1="111.761" x2="127.027" y1="42.4361" y2="215.202" gradientUnits="userSpaceOnUse"><stop stop-color="#FAFAFA"/><stop offset="1" stop-color="#F5F5F5"/></linearGradient><linearGradient id="d" x1="144.979" x2="131.982" y1="153.731" y2="182.392" gradientUnits="userSpaceOnUse"><stop stop-color="#784B01"/><stop offset="1"/></linearGradient><linearGradient id="e" x1="139.714" x2="124.308" y1="129.688" y2="179.516" gradientUnits="userSpaceOnUse"><stop stop-color="#D38503"/><stop offset="1" stop-color="#652F04"/></linearGradient><linearGradient id="g" x1="136.115" x2="87.0776" y1="112.524" y2="195.997" gradientUnits="userSpaceOnUse"><stop stop-color="#F5A623"/><stop offset="1" stop-color="#F07E25"/></linearGradient><linearGradient id="h" x1="130.719" x2="61.1821" y1="124.463" y2="288.911" gradientUnits="userSpaceOnUse"><stop stop-color="#F5A623"/><stop offset="1" stop-color="#F07E25"/></linearGradient><filter id="b" width="270" height="250" x="13.9995" y="-8.00049" color-interpolation-filters="sRGB" filterUnits="userSpaceOnUse"><feFlood flood-opacity="0" result="BackgroundImageFix"/><feBlend in="SourceGraphic" in2="BackgroundImageFix" result="shape"/><feColorMatrix in="SourceAlpha" result="hardAlpha" values="0 0 0 0 0 0 0 0 0 0 0 0 0 0 0 0 0 0 127 0"/><feOffset dy="-13"/><feGaussianBlur stdDeviation="250"/><feComposite in2="hardAlpha" k2="-1" k3="1" operator="arithmetic"/><feColorMatrix values="0 0 0 0 0 0 0 0 0 0 0 0 0 0 0 0 0 0 0.02 0"/><feBlend in2="shape" result="effect1_innerShadow_501_11643"/></filter><filter id="c" width="205" height="43" x="33" y="183" color-interpolation-filters="sRGB" filterUnits="userSpaceOnUse"><feFlood flood-opacity="0" result="BackgroundImageFix"/><feColorMatrix in="SourceAlpha" result="hardAlpha" values="0 0 0 0 0 0 0 0 0 0 0 0 0 0 0 0 0 0 127 0"/><feOffset dy="2"/><feGaussianBlur stdDeviation="4"/><feColorMatrix values="0 0 0 0 0 0 0 0 0 0 0 0 0 0 0 0 0 0 0.02 0"/><feBlend in2="BackgroundImageFix" result="effect1_dropShadow_501_11643"/><feBlend in="SourceGraphic" in2="effect1_dropShadow_501_11643" result="shape"/></filter><filter id="f" width="209.289" height="148.125" x="41.4712" y="67.875" color-interpolation-filters="sRGB" filterUnits="userSpaceOnUse"><feFlood flood-opacity="0" result="BackgroundImageFix"/><feColorMatrix in="SourceAlpha" result="hardAlpha" values="0 0 0 0 0 0 0 0 0 0 0 0 0 0 0 0 0 0 127 0"/><feOffset dx="10"/><feGaussianBlur stdDeviation="5"/><feColorMatrix values="0 0 0 0 0 0 0 0 0 0 0 0 0 0 0 0 0 0 0.04 0"/><feBlend in2="BackgroundImageFix" result="effect1_dropShadow_501_11643"/><feBlend in="SourceGraphic" in2="effect1_dropShadow_501_11643" result="shape"/></filter></defs></svg>