<svg xmlns="http://www.w3.org/2000/svg" width="1706.667" height="853.333" version="1.0" viewBox="0 0 1280 640"><path d="M1118.1 63.5c-3.5.8-9.8 2.5-14 3.9-7.4 2.4-31.3 9-45.6 12.6-3.8 1-14.9 3.9-24.5 6.4-19 5-19.6 5.2-47.5 12.7-10.4 2.8-22.4 5.9-26.5 6.9-10.3 2.4-35 8.7-43.5 11-11.9 3.3-18.7 5.1-27 7.1-4.4 1-10.2 2.5-13 3.3-2.7.8-11.3 3.1-19 5.1-7.7 2.1-17.8 4.8-22.5 6.1-4.7 1.2-13 3.5-18.5 4.9-5.5 1.5-11.3 3.1-13 3.5-7.4 2-24.4 6.5-40 10.5-9.3 2.4-19.7 5.1-23 6-21.3 5.7-53.6 13.9-83 21-10.4 2.5-21.8 5.3-25.3 6.2-4.9 1.3-6.8 1.4-8.8.4-1.8-.8-3.6-.8-6.2-.1-3.8 1-12.5 3-22.4 5.1-5 1-6 1-7.5-.3-2.9-2.6-9.2-3.8-19.9-3.8-17.5 0-33.9 3.9-40.8 9.7-2.9 2.4-3.4 2.5-10.6 1.8-12.9-1.3-20.2-1.1-23.8.9-3.1 1.6-4.6 1.6-16 .7-7-.6-18.1-1.5-24.7-2.1-6.6-.5-23.7-2.3-38-4s-38.6-4.4-54-6-32-3.4-37-4c-4.9-.6-17.5-1.9-28-3-44.8-4.5-114.1-12.1-127.5-13.9-21.3-2.9-31.6-4-50.5-5.6-46.4-3.9-74.4-6.6-88-8.5-3.8-.5-11.6-1.2-17.1-1.6-9.9-.6-10.2-.6-10.9 1.6-.4 1.4-.2 2.7.6 3.6.9.8 12.4 2.5 34.4 4.9C96 173 159.9 180 225 187.1c135.2 14.6 158 17.1 211.5 22.9 30.3 3.3 55.3 6 55.6 6s1.1 1.1 1.7 2.5c.8 1.8 1.9 2.5 4 2.5 1.6 0 3.1.3 3.4.6.4.3 5.3.6 11.1.7 12.3.2 13.3.8 17.9 10.3 4.3 9 3.8 10.8-4.7 16.6-6.7 4.6-10.4 8-12.3 11.4-.5 1-5.2 2.7-12.1 4.5-20.4 5.2-33 12.9-56.4 34.8l-8.8 8.2-6.2-.3c-4.2-.2-6.5.1-7.2 1s-4.3 1.5-10.1 1.7c-5 .2-10.2.9-11.8 1.4-1.5.6-6.6 2-11.4 3.1-4.8 1.2-11.6 2.8-15.1 3.6-7.7 1.8-11.7 3.8-15.2 7.5-3.4 3.6-4.4 3.6-5.8.1-.6-1.5-2.3-4.1-3.7-5.7l-2.5-3 2.1 4.2c3 6.3 2.6 7.7-3.2 11.9-6.4 4.5-27.1 22.7-54.3 47.7-1.1 1.1-8.9 8-17.2 15.5-8.4 7.4-15.3 13.9-15.3 14.4 0 1.6-1.9.8-2.5-1.2-1.1-3.3-4.1-2.3-8.9 3.1-4.4 4.9-5.6 8.1-1.8 4.6 2.3-2.1 3.2-2.1 3.2 0 0 .9-4.6 6.4-10.3 12.2-12.7 13.1-16.2 19.3-16.2 29.2 0 5.9.4 7.2 3.4 11.6 5.2 7.6 18.1 15.1 36.4 21.2 10.5 3.5 47.3 9.5 67.7 11.1 6.9.5 27 1 44.7 1 19.7 0 32.4.4 32.8 1 .9 1.4-.7 1.7-23.8 3.6-4.3.4-8 1.1-8.3 1.5-.8 1.4 3.5 4.9 6.1 4.9 1.7 0 4.6 1.9 8.9 5.9 3.5 3.2 7.4 6.2 8.7 6.5 7 1.9 9.9 3 9.9 3.7 0 1.1-2 1.5-20 3.3-36.3 3.8-50 5.6-50 6.7s5.4 3.9 7.7 3.9c1 0 4.3 2.5 7.3 5.5 4 4 6.2 5.5 8.2 5.5 2.8 0 12.2 3.3 23.8 8.3 7.3 3.2 21.8 8.6 28.2 10.6 9.2 2.9 23.6 2.8 51.8-.4 12.4-1.4 28.6-3.2 36-4s17.6-1.9 22.5-2.5c5-.5 12.8-1.4 17.5-2 4.7-.5 15.9-1.7 25-2.6 9.1-.8 20.1-1.9 24.5-2.4 21.5-2.3 28.7-3 37-3.5 27.3-1.5 119.3-7.6 121.1-8 3.5-.8 4.2-5.6 1-6.8-.6-.3-20 .8-43.1 2.4-42.7 2.9-54.3 3.3-58.2 2.3-2.3-.6-4.2-4.3-4.6-8.9-.2-2.7.1-3 3.8-3.7 6.3-1.2 42.2-3.7 89.8-6.2 43.5-2.4 46.7-2.8 46.7-6.1 0-3.5-2.4-3.8-23.8-2.6-24.8 1.4-34.9 1.6-42.2.6-5.1-.6-5.7-1-7.7-4.4-3.4-5.9-9.9-35.8-8.7-40.1.4-1.4.6-3.5.5-4.7-.1-1.3.5-2.3 1.6-2.7 1-.3 2.7-2 3.6-3.6 1.6-2.7 1.7-3.1.2-3.6-.8-.4-3.5-.3-6 0-4.4.7-4.4.7-6-3-.9-2.1-1.3-4.4-1.1-5.1.6-1.4 15.9-9.2 50-25.3 23.6-11.1 24.1-11.3 40.5-14.7 9.1-1.8 21.8-4.2 28.2-5.3s12.8-2.4 14.1-2.9c1.4-.5 10.5-2.6 20.4-4.6 16.5-3.3 35-7.3 149.4-32.5 62.6-13.8 130.9-28.6 147.9-32.1l15.5-3.2 2.2 2.7c1.3 1.4 2.6 2.6 2.9 2.6.9 0 7.5 5 10 7.5 4.3 4.3 22.4 18.8 30.9 24.9 4 2.8 6.8 5.9 10.3 11.7 4.3 7.1 5.3 8.1 10.4 10.3 3.2 1.4 10.4 3.7 16.1 5.1 5.6 1.5 15 4 20.7 5.6 11.1 3.1 17 3.9 11.6 1.5-1.6-.7-5.9-2-9.5-3-12.1-3.2-23.5-6.8-24.4-7.7-1.7-1.5 2.6-5 11.9-9.6 5-2.5 9.1-4.7 9.3-4.8.3-.3-3.4-10.4-6.8-18.5-4.6-10.7-15-37.5-15-38.5s11.2-3.8 20.6-5.2c3.8-.6 8-4 8.9-7.2l.7-2.4-16.1.7c-13.9.6-16.1.5-16.1-.8 0-.8 1.7-8.4 3.9-16.8 2.1-8.4 5.9-24.1 8.5-34.8s5-20.9 5.5-22.5c.8-2.6 4.9-19.1 12.2-48.9 1-4.4 1.9-8.3 1.9-8.8 0-.4-3.6-.8-8-.8h-8l-1.4-3.5c-2.7-6.3-6.6-5.6-6.6 1.2 0 3-.3 3.3-2.9 3.3-1.6 0-3.8.8-4.9 1.7-1.7 1.6-13.1 26.5-13.2 28.9-.1.5-.9 2.7-2 4.9s-1.9 4.3-2 4.7c0 .4-1.3 3.5-2.9 7-4.8 10.4-6.8 15.2-7.6 17.8-.4 1.4-1.1 3-1.6 3.6s-1.5 2.8-2.3 5c-.7 2.1-2.3 5.9-3.4 8.4s-3.6 8.5-5.7 13.5c-2 4.9-4.9 11.9-6.4 15.5l-2.7 6.5-9 .7c-4.9.4-16.8 1.1-26.4 1.7-9.7.5-18.8 1.5-20.4 2.1-2.5.9-3.2.7-6-1.8-3.8-3.4-20.4-20.8-30.7-32.3-8.9-9.8-11.8-11.7-15.3-10.1-1.4.6-3.2 2.3-4.2 3.6-1.5 2.4-1.5 2.9.1 6.8 2 5.1 4.3 7.8 20.8 24.8 8.6 8.8 12.5 13.6 11.9 14.2s-10.9 1.4-22.9 1.9-29.4 1.3-38.8 1.9c-9.3.5-31.8 1.7-50 2.5-32.5 1.4-53 2.6-83.5 4.6-24.1 1.5-53.5 2.9-77.2 3.6l-21.6.6-2.2-4.4c-2.2-4.4-5.8-8.9-7-8.9-.4 0-7.3-3.6-15.5-8.1-8.2-4.4-17.6-9.3-21-10.9-7.1-3.4-20.4-10.7-22.5-12.4-3.5-2.9-8.5-3.7-27.5-4.4l-19.9-.7-1.3-4.4c-1.4-4.8-3.8-8.1-6-8.1-.8 0-3.2.9-5.4 2.1-3.9 1.9-4.2 1.9-6 .3-1-.9-2.4-3.2-3.1-5.2l-1.3-3.4-30.5.7c-16.8.4-32.3 1-34.5 1.5-9.8 2-27.5 3.3-29.8 2.3-1.2-.6-2.9-1.3-3.8-1.6-1.9-.6-2.9-7.2-2.9-18.8 0-4.9.4-8 1.3-8.7.6-.5 37.9-10.7 82.7-22.7 167.2-44.5 251.3-67.4 309-84.2 16.2-4.7 38.5-11 49.5-14 11-2.9 24.7-6.9 30.5-8.7 12-3.9 26.1-7.9 47.5-13.4 16.5-4.4 34.3-9.6 35.1-10.5 1.7-1.7-3.7-9.7-6.4-9.6-.9 0-4.6.7-8.1 1.4M671.4 459.1c4.2 3.3 3.3 4.6-3.6 5.3-3.5.4-7.8.9-9.5 1.3-2.6.4-3.3.2-3.3-1.2 0-1 2.2-2.7 6.3-4.5 3.4-1.6 6.5-2.9 6.8-3 .4 0 1.8.9 3.3 2.1m21.1 13.5c0 1.1.5 2.7 1.2 3.5 1.1 1.4 3.8 11.8 6.8 26.4 1.1 5.3 1.4 9.9 1 13.7-.8 6.8.6 6.2-20.5 7.8-7.4.5-18.6 1.5-24.8 2.1s-11.6.8-12 .4-.9-9.1-1.2-19.3c-.3-10.3-.8-19.2-1.2-19.8s-.3-3.9.3-7.3c.9-5 1.5-6.2 3.3-6.5 1.1-.3 10.2-1 20.1-1.6s19.1-1.3 20.5-1.4c5-.6 6.5-.2 6.5 2m-57.7 10.2c.3 9.9.9 9.5-15.8 11.2-12 1.1-23.3 2.4-36 4-4.1.5-12.7 1.4-19 2s-12.4 1.3-13.6 1.5c-2.9.6-5.4-6.3-3.5-9.8 1.1-2.1 3.2-2.7 19.4-5.6 10-1.8 19.8-3.7 21.7-4.2 14.7-3.7 26.2-6.1 33.7-6.8 13.7-1.3 12.8-1.9 13.1 7.7m-.9 19c.9 1.6 1.6 7.2 1.9 14.3.4 10.6.2 11.7-1.4 12.3-1 .4-9.3 1.1-18.4 1.6-9.1.6-23.5 1.7-32 2.5-8.5.9-18.4 1.5-22 1.3l-6.5-.3-2.7-5.5c-3.4-6.7-5.4-17.9-3.5-19.6.6-.6 9.1-1.8 18.7-2.8s26.1-2.8 36.5-4c26.5-3.2 27.7-3.2 29.4.2M487 506.9c0 .5-.9 1.3-2 1.6-3.2 1-2.3 3.3 2 5.5 4.6 2.3 4.9 3.8 1.6 6.9-2 1.9-4.7 2.5-19.2 4.1-9.3 1.1-21.6 2.6-27.4 3.4-9.9 1.3-10.8 1.2-15.5-.6-6.9-2.7-8.5-4.4-8.5-9 0-3.3.5-4.1 3.3-5.8 4.3-2.7 5.4-2.5 7.2 1 2.1 4 4.8 3.8 7.3-.4s3.1-4.3 25.3-6c21.3-1.7 25.9-1.8 25.9-.7m55.3 9.6c1.7 7 1.6 15.4-.2 18.4-.7 1-6.2 1.9-18.8 3.2-9.8 1-19.3 1.9-21 1.9H499v-8.1c0-4.4.5-9 1.1-10.2.9-1.6.9-2.2 0-2.5-1.7-.6-1.3-2.7.7-4.5 1.2-1.1 5.2-2 12.3-2.8 5.7-.6 13.1-1.4 16.4-1.9 10.8-1.4 10.8-1.4 12.8 6.5m-134.9-.9c.3.9.6 2.5.6 3.5 0 1.8-.6 2-5.1 1.7-5.5-.3-7.8-2.1-6.6-5.2.9-2.3 10.2-2.3 11.1 0m84.9 18.4c.6 4.8.5 6.6-.5 7.2-.7.5-7.8.7-15.8.5-12.3-.4-15.6-.8-21.9-3-4-1.4-7.6-2.9-8-3.2-1.7-1.8 4.5-3.3 20.5-4.9 9.7-1 18.8-2.2 20.3-2.6 4.1-1.3 4.5-.8 5.4 6m144.7 4.9c0 4-1.9 9-3.9 10-1.8 1-2.4 1.1-58.6 7.1-38.2 4.1-67.1 7-69.2 7-1.8 0-4.4-6.9-4.1-10.5l.3-3 11-1.2c14.3-1.6 48.2-5.1 66.5-6.8 8-.8 19.5-1.9 25.5-2.5 6.1-.6 15.2-1.5 20.4-2 5.2-.6 9.6-1.2 9.9-1.5 1-1 2.2.8 2.2 3.4m-200.8 2c20.2 8.1 29.1 10.1 44.1 10.1H493v3c0 1.7-.6 4.6-1.4 6.5-1.1 2.6-2.3 3.6-5.3 4.4-8.2 2.1-47.4 5.3-59.1 4.9-11.6-.4-11.9-.5-21.4-5.1-5.4-2.6-10.1-4.7-10.6-4.7-2 0-12.8-5.3-14.9-7.3-1.5-1.3-2.3-3.2-2.3-5.4 0-3.1.4-3.6 4.6-5.4 2.5-1.2 8.6-2.5 13.7-3s12.4-1.3 16.2-1.8c3.9-.4 8-.9 9.2-1 1.3 0 7.8 2.1 14.5 4.8m-67.8 3.7c1.6 4.2.8 5.4-3.7 5.4-4.6 0-6.7-1.3-6.7-4.1s9.4-4 10.4-1.3"/></svg>