<svg xmlns="http://www.w3.org/2000/svg" width="96" height="96" fill="none" viewBox="0 0 96 96"><g clip-path="url(#a)"><path fill="#464C59" d="M0 0h96v96H0z"/><path fill="#FEF5F4" d="M16 32a8 8 0 0 1 8-8h329a8 8 0 0 1 8 8v29.116a8 8 0 0 1-8 8H24a8 8 0 0 1-8-8z"/><path fill="#E42E2C" fill-rule="evenodd" d="M31.025 33.824a5.18 5.18 0 0 0-5.2 5.201 5.18 5.18 0 0 0 5.2 5.201 5.18 5.18 0 0 0 5.201-5.2 5.18 5.18 0 0 0-5.2-5.202m-.462 2.312h.867v4.045h-.867zm.462 6.356c-.347 0-.578-.23-.578-.577s.231-.578.578-.578.578.23.578.578c0 .346-.231.578-.578.578" clip-rule="evenodd"/><path fill="#232323" d="M46.041 42.246v-2.385l-2.145-4.087h1.11l1.525 3.125 1.517-3.125h1.1L47.02 39.86v2.385zm5.299.111q-.657 0-1.184-.296a2.25 2.25 0 0 1-.823-.841q-.305-.546-.305-1.267t.305-1.257q.314-.546.842-.842a2.3 2.3 0 0 1 1.174-.305q.656 0 1.174.305.527.296.832.842.315.536.315 1.257t-.315 1.267q-.304.536-.832.841a2.4 2.4 0 0 1-1.184.296m0-.841q.351 0 .647-.176.304-.176.49-.518.185-.351.185-.869t-.185-.86a1.25 1.25 0 0 0-1.128-.703q-.351.001-.657.176a1.3 1.3 0 0 0-.48.527q-.186.342-.185.86 0 .517.184.87.186.341.481.517.296.176.648.176m5.168.841q-.832 0-1.313-.518-.471-.518-.471-1.544V37.66h.98v2.534q0 1.33 1.09 1.331.547 0 .898-.388.351-.39.351-1.11V37.66h.98v4.586h-.869l-.074-.804a1.6 1.6 0 0 1-.629.675 1.8 1.8 0 0 1-.943.24m3.849-.11V37.66h.878l.083.87q.24-.454.666-.713.435-.267 1.045-.268v1.026h-.268q-.408 0-.73.14-.315.128-.51.452-.184.315-.184.879v2.2zm6.052 0v-6.473h4.115v.795h-3.135v2.016h2.857v.776H67.39v2.09h3.135v.795zm5.332 0V37.66h.87l.073.805q.213-.426.62-.666.416-.25.952-.25.833 0 1.304.518.48.518.48 1.544v2.635h-.97v-2.533q0-1.332-1.091-1.332-.546 0-.906.389-.352.387-.352 1.11v2.366zm7.464 0q-.675 0-1.073-.324-.397-.333-.397-1.175v-2.265h-.786v-.823h.786l.12-1.165h.86v1.165h1.294v.823h-1.294v2.265q0 .38.157.527.167.14.564.14h.527v.831zm3.93.11q-.675 0-1.203-.296a2.2 2.2 0 0 1-.813-.841q-.296-.537-.296-1.248 0-.721.286-1.267.297-.546.814-.85a2.4 2.4 0 0 1 1.22-.306q.675 0 1.175.305.5.296.776.795a2.23 2.23 0 0 1 .269 1.304q0 .102-.01.231h-3.569q.047.666.435 1.017.397.343.915.343.417 0 .694-.185.286-.195.425-.518h.98q-.185.647-.74 1.082-.544.434-1.359.434m0-4.003q-.49 0-.87.295-.38.287-.462.87h2.589q-.028-.537-.38-.851-.35-.315-.878-.314m3.34 3.892V37.66h.879l.083.87q.24-.454.666-.713.435-.267 1.045-.268v1.026h-.269q-.406 0-.73.14-.315.128-.508.452-.186.315-.185.879v2.2zm3.6 2.034v-6.62h.878l.102.712q.222-.324.61-.573.389-.25.999-.25.665 0 1.174.315t.795.86q.296.545.296 1.238 0 .694-.296 1.24a2.2 2.2 0 0 1-.795.85 2.26 2.26 0 0 1-1.184.305q-.536 0-.952-.212a1.64 1.64 0 0 1-.647-.602v2.737zm2.413-2.773q.63 0 1.035-.426.407-.435.407-1.128 0-.453-.185-.804a1.36 1.36 0 0 0-.508-.546 1.4 1.4 0 0 0-.75-.203q-.627 0-1.035.434-.397.435-.397 1.12 0 .693.397 1.127.408.425 1.036.425m3.588.74V37.66h.878l.083.87q.24-.454.666-.713.435-.267 1.045-.268v1.026h-.268q-.408 0-.73.14-.315.128-.51.452-.184.315-.184.879v2.2zm4.154-5.456a.67.67 0 0 1-.463-.166.6.6 0 0 1-.175-.435.56.56 0 0 1 .175-.425.65.65 0 0 1 .463-.176q.277 0 .453.176a.55.55 0 0 1 .185.425.58.58 0 0 1-.185.434.63.63 0 0 1-.453.167m-.49 5.455V37.66h.98v4.586zm4.191.111q-.869 0-1.433-.425a1.6 1.6 0 0 1-.647-1.128h.989q.074.315.351.545.278.222.731.222.444 0 .647-.185a.56.56 0 0 0 .203-.425q0-.35-.286-.472a3.6 3.6 0 0 0-.777-.23 6 6 0 0 1-.777-.223 1.8 1.8 0 0 1-.638-.388q-.249-.26-.249-.693 0-.602.462-.999.462-.407 1.295-.407.767 0 1.239.37.48.37.564 1.045h-.944a.67.67 0 0 0-.277-.462q-.222-.167-.601-.167-.37 0-.573.157a.46.46 0 0 0-.204.389q0 .24.278.379.286.138.749.25.462.1.85.24.398.129.638.388.241.259.241.758.01.63-.49 1.045-.49.416-1.341.416m5.132 0q-.674 0-1.202-.296a2.2 2.2 0 0 1-.813-.841q-.296-.537-.296-1.248 0-.721.287-1.267a2.16 2.16 0 0 1 .813-.85 2.4 2.4 0 0 1 1.221-.306q.675 0 1.174.305.5.296.777.795t.277 1.1q0 .093-.009.204 0 .102-.009.231h-3.569q.045.666.434 1.017.398.343.915.343.417 0 .694-.185.287-.195.425-.518h.98a2.07 2.07 0 0 1-.739 1.082q-.546.434-1.36.434m0-4.003q-.49 0-.869.295-.379.287-.462.87h2.589q-.028-.537-.379-.851-.351-.315-.879-.314m5.795 3.892v-6.472h2.265q.759 0 1.258.259.5.249.739.693.25.435.25.99 0 .526-.24.97-.231.435-.731.694t-1.276.259h-1.285v2.607zm.98-3.412h1.239q.693 0 .989-.296.306-.304.306-.822 0-.536-.306-.833-.296-.305-.989-.305h-1.239zm4.551 3.412V37.66h.878l.083.87q.24-.454.666-.713.435-.267 1.045-.268v1.026h-.268q-.408 0-.731.14a1.06 1.06 0 0 0-.508.452q-.186.315-.185.879v2.2zm4.154-5.455a.67.67 0 0 1-.463-.166.6.6 0 0 1-.175-.435.56.56 0 0 1 .175-.425.65.65 0 0 1 .463-.176q.276 0 .453.176a.55.55 0 0 1 .185.425.58.58 0 0 1-.185.434.64.64 0 0 1-.453.167m-.491 5.455V37.66h.981v4.586zm3.646 0-1.719-4.586h1.026l1.276 3.652 1.276-3.652h1.017l-1.711 4.586zm4.304 2.034 1.101-2.413h-.269l-1.812-4.207h1.064l1.405 3.394 1.47-3.394h1.036l-2.959 6.62zm7.34-2.034v-6.472h2.441q1.008 0 1.526.471.518.473.518 1.184 0 .62-.333.99a1.7 1.7 0 0 1-.804.49q.37.073.656.295.296.222.462.555t.167.721q0 .5-.25.906-.24.398-.712.63-.47.23-1.156.23zm.981-3.698h1.34q.564 0 .86-.26.296-.267.296-.73 0-.453-.296-.72-.287-.27-.878-.269h-1.322zm0 2.894h1.405q.592 0 .915-.278.333-.276.333-.776t-.342-.786q-.342-.296-.925-.296h-1.386zm6.329.915q-.583 0-.961-.194a1.34 1.34 0 0 1-.564-.508 1.4 1.4 0 0 1-.185-.703q0-.666.517-1.054.519-.39 1.48-.389h1.202v-.083q0-.536-.296-.804-.287-.269-.749-.268-.407 0-.712.203a.83.83 0 0 0-.361.582h-.98q.046-.498.333-.85a1.9 1.9 0 0 1 .74-.546q.453-.194.989-.194.962 0 1.489.509.527.5.527 1.368v2.82h-.851l-.083-.786a1.74 1.74 0 0 1-.564.638q-.37.26-.971.26m.194-.795q.397 0 .666-.185.278-.195.425-.509.157-.314.195-.693h-1.092q-.582 0-.832.204a.64.64 0 0 0-.24.508q0 .314.231.5.24.175.647.175m3.504.684V35.59h.98v6.657zm3.862.111q-.583 0-.962-.194a1.34 1.34 0 0 1-.564-.508 1.4 1.4 0 0 1-.185-.703q0-.666.518-1.054.517-.39 1.479-.389h1.202v-.083q0-.536-.296-.804-.286-.269-.749-.268a1.25 1.25 0 0 0-.711.203.82.82 0 0 0-.361.582h-.98q.046-.498.333-.85.296-.36.739-.546.453-.194.99-.194.961 0 1.488.509.528.5.527 1.368v2.82h-.85l-.083-.786q-.195.38-.564.638-.37.26-.971.26m.194-.795q.397 0 .666-.185.276-.195.425-.509.157-.314.194-.693H154.6q-.583 0-.832.204a.64.64 0 0 0-.241.508q0 .314.232.5.24.175.647.175m3.504.684V37.66h.869l.074.805q.213-.426.619-.666.417-.25.953-.25.832 0 1.304.518.48.518.48 1.544v2.635h-.97v-2.533q0-1.332-1.092-1.332-.544 0-.906.389-.351.387-.351 1.11v2.366zm7.713.111q-.674 0-1.211-.305a2.2 2.2 0 0 1-.832-.841 2.6 2.6 0 0 1-.296-1.258q0-.712.296-1.248.305-.546.832-.85a2.4 2.4 0 0 1 1.211-.306q.85 0 1.424.444.583.444.749 1.202h-1.026a.97.97 0 0 0-.407-.592 1.3 1.3 0 0 0-.74-.212q-.36 0-.665.184a1.27 1.27 0 0 0-.491.527q-.184.343-.184.851 0 .51.184.86.186.342.491.527t.665.185q.425 0 .74-.213a.97.97 0 0 0 .407-.6h1.026q-.157.738-.74 1.192-.582.453-1.433.453m5.468 0q-.675 0-1.202-.296a2.2 2.2 0 0 1-.814-.841q-.296-.537-.296-1.248 0-.721.287-1.267.295-.546.814-.85a2.4 2.4 0 0 1 1.22-.306q.675 0 1.174.305.5.296.777.795t.277 1.1q0 .093-.009.204 0 .102-.009.231h-3.569q.046.666.435 1.017.397.343.915.343.416 0 .693-.185.286-.195.426-.518h.98q-.185.647-.74 1.082-.546.434-1.359.434m0-4.003q-.49 0-.869.295-.38.287-.463.87h2.589q-.027-.537-.379-.851-.351-.315-.878-.314m5.794 3.892v-6.472h.98v6.472zm4.174.111q-.869 0-1.433-.425a1.6 1.6 0 0 1-.647-1.128h.989q.075.315.352.545.277.222.73.222.444 0 .647-.185a.56.56 0 0 0 .204-.425q0-.35-.287-.472a3.6 3.6 0 0 0-.777-.23 6 6 0 0 1-.776-.223 1.8 1.8 0 0 1-.638-.388q-.25-.26-.25-.693 0-.602.462-.999.463-.407 1.295-.407.767 0 1.239.37.48.37.564 1.045h-.943a.68.68 0 0 0-.278-.462q-.222-.167-.601-.167-.369 0-.573.157a.46.46 0 0 0-.203.389q0 .24.277.379.287.138.749.25.462.1.851.24.397.129.638.388.24.259.24.758.01.63-.49 1.045-.49.416-1.341.416m5.441-.11v-6.473h2.228q.768 0 1.258.259.499.258.74.703.24.435.24.97 0 .602-.324 1.091-.314.49-.989.703l1.378 2.746h-1.138l-1.257-2.607h-1.156v2.607zm.98-3.348h1.193q.665 0 .971-.324.314-.323.314-.84 0-.519-.305-.824-.305-.315-.989-.314h-1.184zm6.387 3.458q-.832 0-1.313-.518-.471-.518-.471-1.544V37.66h.98v2.534q0 1.33 1.091 1.331.544 0 .897-.388.351-.39.351-1.11V37.66h.98v4.586h-.869l-.074-.804a1.6 1.6 0 0 1-.629.675q-.406.24-.943.24m3.849-.11V37.66h.869l.074.805q.213-.426.619-.666.416-.25.953-.25.832 0 1.303.518.481.518.481 1.544v2.635h-.971v-2.533q0-1.332-1.091-1.332-.545 0-.906.389-.351.387-.351 1.11v2.366zm5.54 0V37.66h.869l.074.805a1.6 1.6 0 0 1 .62-.666q.416-.25.952-.25.832 0 1.304.518.48.518.481 1.544v2.635h-.971v-2.533q0-1.332-1.091-1.332-.546 0-.906.389-.352.387-.352 1.11v2.366zm6.095-5.456a.67.67 0 0 1-.462-.166.6.6 0 0 1-.176-.435.56.56 0 0 1 .176-.425.65.65 0 0 1 .462-.176q.278 0 .453.176a.54.54 0 0 1 .185.425.57.57 0 0 1-.185.434.63.63 0 0 1-.453.167m-.49 5.455V37.66h.98v4.586zm2.361 0V37.66h.869l.074.805q.213-.426.62-.666a1.8 1.8 0 0 1 .952-.25q.832 0 1.304.518.48.518.48 1.544v2.635h-.97v-2.533q0-1.332-1.091-1.332-.546 0-.907.389-.351.387-.351 1.11v2.366zm7.417-1.405q-.36 0-.665-.083l-.398.388q.102.065.25.11.147.048.416.084.268.038.73.074.916.083 1.323.444.406.352.406.943 0 .407-.222.767-.212.37-.675.592-.453.231-1.165.231-.961 0-1.562-.37-.592-.36-.592-1.1 0-.286.148-.573.157-.277.49-.527a3 3 0 0 1-.342-.176 3 3 0 0 1-.25-.203v-.222l.796-.814q-.537-.462-.537-1.211 0-.453.213-.823a1.6 1.6 0 0 1 .638-.601q.416-.222.998-.222.389 0 .722.111h1.71v.647l-.813.047q.221.379.221.841t-.221.832a1.54 1.54 0 0 1-.629.592q-.406.222-.99.222m0-.768q.426 0 .685-.222.268-.231.268-.647 0-.425-.268-.647-.26-.222-.685-.222-.433 0-.702.222-.26.222-.259.647 0 .416.259.647.269.222.702.222m-1.229 2.756q0 .397.351.591.351.204.878.204.51 0 .823-.222a.66.66 0 0 0 .315-.573.6.6 0 0 0-.213-.463q-.213-.185-.804-.23a8 8 0 0 1-.786-.084q-.324.175-.444.38a.8.8 0 0 0-.12.397m10.062-.472q-.961 0-1.683-.425a3 3 0 0 1-1.128-1.174q-.407-.759-.407-1.748 0-.99.407-1.738.406-.759 1.128-1.184t1.683-.425 1.683.425q.72.425 1.119 1.184.406.748.406 1.738t-.406 1.748q-.398.748-1.119 1.174t-1.683.425m0-.878q.666 0 1.156-.296a2 2 0 0 0 .776-.85q.278-.555.278-1.323t-.278-1.322a2 2 0 0 0-.776-.85q-.49-.297-1.156-.297t-1.165.296q-.5.296-.777.85-.268.555-.268 1.323t.268 1.322q.278.556.777.85.5.297 1.165.297m6.042.878q-.832 0-1.313-.518-.472-.518-.472-1.544V37.66h.981v2.534q0 1.33 1.091 1.331.545 0 .897-.388.351-.39.351-1.11V37.66h.98v4.586h-.869l-.074-.804a1.6 1.6 0 0 1-.629.675q-.406.24-.943.24m5.772-.11q-.675 0-1.073-.324-.397-.333-.397-1.175v-2.265h-.786v-.823h.786l.12-1.165h.86v1.165h1.294v.823h-1.294v2.265q0 .38.157.527.167.14.564.14h.527v.831zm2.29.055a.65.65 0 0 1-.463-.176.6.6 0 0 1-.175-.435.6.6 0 0 1 .175-.434.63.63 0 0 1 .463-.185q.278 0 .453.185a.6.6 0 0 1 .175.434.6.6 0 0 1-.175.435.6.6 0 0 1-.453.176m4.156-.056v-6.472h2.265q.759 0 1.258.259.5.249.739.693.25.435.25.99 0 .526-.24.97-.231.435-.731.694t-1.276.259h-1.285v2.607zm.98-3.412h1.239q.693 0 .989-.296.305-.304.305-.822 0-.536-.305-.833-.296-.305-.989-.305h-1.239zm4.55 3.412V35.59h.981v6.657zm4.454.111q-.675 0-1.202-.296a2.17 2.17 0 0 1-.814-.841q-.296-.537-.296-1.248 0-.721.287-1.267a2.16 2.16 0 0 1 .813-.85 2.4 2.4 0 0 1 1.221-.306q.675 0 1.174.305.5.296.777.795t.277 1.1q0 .093-.009.204 0 .102-.009.231h-3.569q.045.666.434 1.017.397.343.916.343.416 0 .693-.185.287-.195.425-.518h.98a2.07 2.07 0 0 1-.739 1.082q-.546.434-1.359.434m0-4.003q-.49 0-.87.295-.378.287-.462.87h2.589q-.027-.537-.379-.851-.351-.315-.878-.314m4.894 4.003q-.582 0-.961-.194a1.34 1.34 0 0 1-.564-.508 1.4 1.4 0 0 1-.185-.703q0-.666.517-1.054.519-.39 1.48-.389h1.202v-.083q0-.536-.296-.804-.287-.269-.749-.268-.407 0-.712.203a.83.83 0 0 0-.361.582h-.98q.046-.498.333-.85a1.9 1.9 0 0 1 .74-.546q.453-.194.989-.194.961 0 1.489.509.527.5.527 1.368v2.82h-.851l-.083-.786a1.74 1.74 0 0 1-.564.638q-.37.26-.971.26m.194-.795q.398 0 .666-.185.278-.195.425-.509.158-.314.195-.693h-1.092q-.582 0-.832.204a.64.64 0 0 0-.24.508q0 .314.231.5.24.175.647.175m5.335.795q-.869 0-1.433-.425a1.6 1.6 0 0 1-.647-1.128h.989q.073.315.351.545.278.222.731.222.443 0 .647-.185a.56.56 0 0 0 .204-.425q0-.35-.287-.472a3.6 3.6 0 0 0-.777-.23 6 6 0 0 1-.776-.223 1.8 1.8 0 0 1-.638-.388q-.25-.26-.25-.693 0-.602.462-.999.462-.407 1.295-.407.767 0 1.239.37.48.37.564 1.045h-.943a.68.68 0 0 0-.278-.462q-.222-.167-.601-.167-.37 0-.573.157a.46.46 0 0 0-.204.389q0 .24.278.379.287.138.749.25.462.1.85.24.399.129.638.388.241.259.241.758.01.63-.49 1.045-.49.416-1.341.416m5.133 0q-.675 0-1.202-.296a2.17 2.17 0 0 1-.814-.841q-.296-.537-.296-1.248 0-.721.287-1.267a2.16 2.16 0 0 1 .813-.85 2.4 2.4 0 0 1 1.221-.306q.675 0 1.174.305.5.296.777.795t.277 1.1q0 .093-.009.204 0 .102-.009.231h-3.569q.045.666.434 1.017.397.343.916.343.416 0 .693-.185.287-.195.425-.518h.981q-.186.647-.74 1.082-.546.434-1.359.434m0-4.003q-.49 0-.87.295-.378.287-.462.87h2.589q-.027-.537-.379-.851-.351-.315-.878-.314m7.311 3.892V36.57h-1.914v-.795h4.798v.795h-1.904v5.677zm5.166.111q-.657 0-1.184-.296a2.25 2.25 0 0 1-.823-.841q-.305-.546-.305-1.267t.305-1.257q.315-.546.842-.842a2.3 2.3 0 0 1 1.174-.305q.657 0 1.174.305.527.296.832.842.315.536.315 1.257t-.315 1.267a2.2 2.2 0 0 1-.832.841 2.4 2.4 0 0 1-1.183.296m0-.841q.351 0 .647-.176.305-.176.49-.518.185-.351.185-.869t-.185-.86a1.24 1.24 0 0 0-1.128-.703q-.351.001-.657.176a1.3 1.3 0 0 0-.48.527q-.185.342-.185.86 0 .517.185.87.185.341.48.517.296.176.648.176m3.476 2.764v-6.62h.879l.101.712q.222-.324.611-.573.388-.25.998-.25.666 0 1.174.315.51.315.796.86.296.545.296 1.238 0 .694-.296 1.24a2.2 2.2 0 0 1-.796.85 2.25 2.25 0 0 1-1.183.305 2.06 2.06 0 0 1-.952-.212 1.64 1.64 0 0 1-.648-.602v2.737zm2.414-2.773q.629 0 1.035-.426.407-.435.407-1.128 0-.453-.185-.804a1.36 1.36 0 0 0-.509-.546 1.37 1.37 0 0 0-.748-.203q-.63 0-1.036.434-.398.435-.398 1.12 0 .693.398 1.127.406.425 1.036.425m5.279.85q-.831 0-1.313-.518-.471-.518-.471-1.544V37.66h.98v2.534q0 1.33 1.091 1.331.546 0 .897-.388.351-.39.351-1.11V37.66h.98v4.586h-.869l-.074-.804a1.6 1.6 0 0 1-.629.675q-.406.24-.943.24m3.849 1.923v-6.62h.878l.102.712q.222-.324.61-.573.389-.25.999-.25.666 0 1.174.315t.795.86q.296.545.296 1.238 0 .694-.296 1.24a2.2 2.2 0 0 1-.795.85 2.26 2.26 0 0 1-1.183.305q-.537 0-.953-.212a1.64 1.64 0 0 1-.647-.602v2.737zm2.413-2.773q.628 0 1.036-.426.406-.435.406-1.128 0-.453-.184-.804a1.36 1.36 0 0 0-.509-.546 1.4 1.4 0 0 0-.749-.203q-.628 0-1.036.434-.397.435-.397 1.12 0 .693.397 1.127.408.425 1.036.425m6.041.74v-6.473h.98l3.246 4.873v-4.873h.98v6.472h-.98l-3.246-4.873v4.873zm8.714.11q-.656 0-1.183-.296a2.25 2.25 0 0 1-.823-.841q-.306-.546-.305-1.267 0-.72.305-1.257.314-.546.841-.842a2.3 2.3 0 0 1 1.174-.305q.657 0 1.175.305.527.296.832.842.314.536.314 1.257t-.314 1.267a2.2 2.2 0 0 1-.832.841 2.4 2.4 0 0 1-1.184.296m0-.841q.351 0 .647-.176.305-.176.491-.518.184-.351.184-.869t-.184-.86a1.2 1.2 0 0 0-.481-.527 1.29 1.29 0 0 0-1.304 0 1.3 1.3 0 0 0-.481.527q-.185.342-.185.86 0 .517.185.87.185.341.481.517t.647.176m4.221.73-1.35-4.586h.98l.888 3.458.998-3.458h1.091l.999 3.458.887-3.458h.98l-1.349 4.586h-1.008l-1.054-3.606-1.054 3.606zm6.512.056a.64.64 0 0 1-.462-.176.6.6 0 0 1-.176-.435.6.6 0 0 1 .176-.434.63.63 0 0 1 .462-.185q.278 0 .453.185a.6.6 0 0 1 .176.434.6.6 0 0 1-.176.435.6.6 0 0 1-.453.176"/><path fill="#5A5A5A" d="M45.745 56.87v-2.153l-1.844-3.511h.768l1.416 2.864 1.416-2.864h.76l-1.836 3.511v2.152zm4.507.096q-.567 0-1.02-.258a1.9 1.9 0 0 1-.72-.729q-.258-.477-.258-1.116t.267-1.108a1.9 1.9 0 0 1 .72-.737q.461-.258 1.027-.259.566 0 1.02.26.453.258.711.736.267.468.267 1.108 0 .639-.267 1.116a1.9 1.9 0 0 1-.728.729 2 2 0 0 1-1.02.258m0-.582q.348 0 .647-.17t.486-.51.186-.841-.186-.841a1.2 1.2 0 0 0-.478-.51q-.3-.17-.639-.17a1.3 1.3 0 0 0-.647.17q-.3.17-.486.51t-.186.84q0 .503.186.842.187.34.478.51.3.17.639.17m4.568.582q-.711 0-1.133-.428-.42-.438-.42-1.335v-2.347h.68v2.274q0 1.254 1.027 1.254.526 0 .866-.372.347-.38.347-1.076v-2.08h.68v4.013h-.615l-.048-.72q-.186.38-.559.599a1.57 1.57 0 0 1-.825.218m3.31-.097v-4.013h.615l.057.77q.186-.398.566-.632t.938-.235v.712h-.186q-.355 0-.655.13a.97.97 0 0 0-.477.42q-.178.3-.178.826v2.022zm7.173.097a2 2 0 0 1-1.019-.258 1.9 1.9 0 0 1-.704-.737q-.25-.469-.25-1.108 0-.631.25-1.1.252-.478.696-.737.453-.267 1.044-.267.582 0 1.003.267.429.26.655.688a1.95 1.95 0 0 1 .219 1.1v.203H64q.024.46.21.768.195.3.478.453.291.154.615.154.42 0 .703-.194a1.1 1.1 0 0 0 .413-.526h.671a1.82 1.82 0 0 1-.622.93q-.453.364-1.165.364m0-3.632q-.485 0-.865.3-.372.29-.429.857h2.524q-.024-.543-.372-.85a1.25 1.25 0 0 0-.858-.307m2.947 3.535v-4.013h.615l.04.72q.195-.38.559-.598.363-.219.825-.219.712 0 1.132.437.43.429.43 1.327v2.346h-.68v-2.273q0-1.254-1.036-1.254-.518 0-.866.38-.34.372-.34 1.068v2.08zm6.36 0q-.55 0-.866-.267t-.315-.962v-2.21h-.696v-.574h.696l.089-.962h.59v.962h1.182v.575h-1.181v2.209q0 .38.153.517.154.13.542.13h.421v.582zm3.381.097a2 2 0 0 1-1.02-.258 1.9 1.9 0 0 1-.703-.737q-.25-.469-.25-1.108 0-.631.25-1.1.25-.478.696-.737.453-.267 1.043-.267.583 0 1.003.267.43.26.656.688a1.95 1.95 0 0 1 .218 1.1v.203H76.69q.024.46.21.768.194.3.477.453.292.154.615.154.42 0 .704-.194a1.1 1.1 0 0 0 .413-.526h.671a1.82 1.82 0 0 1-.623.93q-.453.364-1.165.364m0-3.632q-.485 0-.865.3-.373.29-.43.857h2.525q-.024-.543-.372-.85a1.25 1.25 0 0 0-.858-.307m2.947 3.535v-4.013h.614l.057.77q.186-.398.567-.632t.938-.235v.712h-.186q-.356 0-.656.13a.97.97 0 0 0-.477.42q-.177.3-.178.826v2.022zm3.083 1.78v-5.793h.615l.065.664q.195-.291.55-.526.364-.234.922-.235.6 0 1.044.275.445.276.688.753.25.477.25 1.084 0 .606-.25 1.084-.243.47-.696.744a2 2 0 0 1-1.044.267 1.9 1.9 0 0 1-.882-.202 1.4 1.4 0 0 1-.582-.566v2.451zm2.071-2.273q.405 0 .712-.186.308-.195.486-.534.178-.34.178-.793t-.178-.793a1.31 1.31 0 0 0-1.198-.72q-.405 0-.712.194-.307.186-.485.526t-.178.793.178.793.485.534q.308.186.712.186m3.154.493v-4.013h.615l.056.77q.186-.398.567-.632t.938-.235v.712h-.186q-.356 0-.655.13a.97.97 0 0 0-.478.42q-.177.3-.177.826v2.022zm3.496-4.902a.48.48 0 0 1-.34-.13.48.48 0 0 1-.13-.34.44.44 0 0 1 .13-.323.48.48 0 0 1 .34-.13q.194 0 .332.13a.43.43 0 0 1 .137.323.46.46 0 0 1-.137.34.47.47 0 0 1-.332.13m-.34 4.902v-4.013h.68v4.013zm3.545.097q-.72.001-1.198-.364a1.42 1.42 0 0 1-.558-.987h.696q.065.316.332.55.274.227.736.227.429 0 .631-.178a.58.58 0 0 0 .202-.437q0-.364-.267-.485a3.4 3.4 0 0 0-.736-.219 4 4 0 0 1-.647-.186 1.5 1.5 0 0 1-.542-.34.82.82 0 0 1-.219-.59q0-.526.389-.858.396-.34 1.068-.34.64 0 1.043.324.412.315.478.906h-.672a.68.68 0 0 0-.267-.477q-.218-.178-.59-.178-.364 0-.567.153a.49.49 0 0 0-.194.405q0 .243.25.38.26.138.697.235.372.08.703.202.34.114.55.348.219.227.219.663.008.543-.413.898-.413.348-1.124.348m4.457 0q-.575 0-1.02-.258a1.9 1.9 0 0 1-.704-.737q-.25-.469-.25-1.108 0-.631.25-1.1.251-.478.696-.737.453-.267 1.044-.267.582 0 1.003.267.429.26.655.688a1.95 1.95 0 0 1 .219 1.1v.203h-3.196q.024.46.21.768.195.3.478.453.291.154.615.154.42 0 .703-.194.284-.195.413-.526h.672a1.83 1.83 0 0 1-.623.93q-.454.364-1.165.364m0-3.632q-.486 0-.866.3-.372.29-.429.857h2.524q-.024-.543-.372-.85a1.25 1.25 0 0 0-.857-.307m5.272 3.535v-5.663h1.861q.663 0 1.092.218.429.219.631.591.21.372.21.841 0 .462-.202.834a1.5 1.5 0 0 1-.631.599q-.429.218-1.1.218h-1.181v2.362zm.68-2.937h1.165q.68 0 .962-.283.292-.29.292-.793 0-.51-.292-.792-.282-.292-.962-.292h-1.165zm4.109 2.937v-4.013h.615l.057.77q.186-.398.566-.632t.939-.235v.712h-.186q-.357 0-.656.13a.98.98 0 0 0-.477.42q-.178.3-.178.826v2.022zm3.496-4.902a.48.48 0 0 1-.339-.13.47.47 0 0 1-.13-.34q0-.194.13-.323a.48.48 0 0 1 .339-.13q.195 0 .332.13a.43.43 0 0 1 .138.323.46.46 0 0 1-.138.34.47.47 0 0 1-.332.13m-.339 4.902v-4.013h.679v4.013zm3.164 0-1.521-4.013h.712l1.205 3.358 1.214-3.358h.696l-1.521 4.013zm3.643 1.78.996-2.168h-.235l-1.594-3.625h.736l1.327 3.123 1.408-3.123h.704l-2.63 5.793zm6.53-1.78v-5.663h1.99q.599 0 .987.194.396.186.591.518.194.323.194.728 0 .55-.3.866-.29.315-.703.437.315.056.574.25.259.195.404.486.154.291.154.639 0 .428-.21.785-.21.348-.623.558-.413.202-1.003.202zm.679-3.187h1.262q.543 0 .834-.251.291-.26.291-.712a.88.88 0 0 0-.291-.688q-.283-.258-.858-.259h-1.238zm0 2.621h1.303q.583 0 .898-.267.315-.275.315-.76 0-.478-.331-.761-.332-.291-.898-.291h-1.287zm5.627.663q-.502 0-.834-.17a1.16 1.16 0 0 1-.655-1.067q0-.615.469-.947.47-.332 1.278-.332h1.085v-.048q0-.526-.276-.793-.274-.276-.736-.275-.396 0-.687.202a.86.86 0 0 0-.356.575h-.696q.04-.437.291-.737.26-.3.639-.453.38-.162.809-.162.842 0 1.262.453.429.446.429 1.19v2.467h-.607l-.04-.72q-.17.34-.502.583-.323.234-.873.234m.105-.574q.388 0 .663-.202.283-.202.429-.526t.146-.68v-.008h-1.028q-.599 0-.849.21a.64.64 0 0 0-.243.51q0 .315.226.51.235.186.656.186m3.081.477v-5.825h.68v5.825zm3.273.097q-.501 0-.833-.17a1.16 1.16 0 0 1-.656-1.067q0-.615.47-.947.469-.332 1.278-.332h1.084v-.048q0-.526-.275-.793-.275-.276-.736-.275-.397 0-.688.202a.86.86 0 0 0-.356.575h-.696q.04-.437.292-.737.258-.3.639-.453.38-.162.809-.162.841 0 1.262.453.429.446.429 1.19v2.467h-.607l-.041-.72q-.17.34-.501.583-.324.234-.874.234m.105-.574q.388 0 .664-.202.282-.202.428-.526t.146-.68v-.008h-1.027q-.6 0-.85.21a.64.64 0 0 0-.243.51q0 .315.227.51.234.186.655.186m3.082.477v-4.013h.614l.041.72q.194-.38.558-.598.364-.219.825-.219.713 0 1.133.437.429.429.429 1.327v2.346h-.68v-2.273q0-1.254-1.035-1.254-.518 0-.866.38-.34.372-.34 1.068v2.08zm6.619.097q-.575 0-1.036-.258a1.97 1.97 0 0 1-.72-.737 2.3 2.3 0 0 1-.259-1.108q0-.631.259-1.1.267-.478.72-.737a2.03 2.03 0 0 1 1.036-.267q.711 0 1.197.373.494.372.623.995h-.696a.88.88 0 0 0-.396-.575 1.3 1.3 0 0 0-.736-.21q-.34 0-.64.17a1.27 1.27 0 0 0-.485.51q-.186.34-.186.84 0 .503.186.842.186.34.485.518.3.17.64.17.42 0 .736-.202a.9.9 0 0 0 .396-.59h.696a1.6 1.6 0 0 1-.615.986q-.494.38-1.205.38m4.718 0q-.575 0-1.02-.258a1.93 1.93 0 0 1-.704-.737q-.25-.469-.25-1.108 0-.631.25-1.1.252-.478.696-.737.453-.267 1.044-.267.583 0 1.003.267.429.26.655.688a1.95 1.95 0 0 1 .219 1.1v.203h-3.196q.024.46.211.768.194.3.477.453a1.3 1.3 0 0 0 .615.154q.42 0 .704-.194.282-.195.412-.526h.672a1.83 1.83 0 0 1-.623.93q-.453.364-1.165.364m0-3.632q-.486 0-.866.3-.372.29-.429.857h2.524q-.024-.543-.372-.85a1.25 1.25 0 0 0-.857-.307m5.644-1.367a.48.48 0 0 1-.339-.13.47.47 0 0 1-.13-.34q0-.194.13-.323a.48.48 0 0 1 .339-.13q.195 0 .332.13a.43.43 0 0 1 .138.323.46.46 0 0 1-.138.34.47.47 0 0 1-.332.13m-.339 4.902v-4.013h.679v4.013zm3.544.097q-.72.001-1.197-.364a1.42 1.42 0 0 1-.558-.987h.695q.065.316.332.55.275.227.736.227.429 0 .631-.178a.58.58 0 0 0 .203-.437q0-.364-.267-.485a3.4 3.4 0 0 0-.737-.219 4 4 0 0 1-.647-.186 1.5 1.5 0 0 1-.542-.34q-.218-.225-.218-.59 0-.526.388-.858.396-.34 1.068-.34.639 0 1.044.324.412.315.477.906h-.672a.68.68 0 0 0-.267-.477q-.218-.178-.59-.178-.364 0-.567.153a.5.5 0 0 0-.194.405q0 .243.251.38.26.138.696.235.372.08.704.202.34.114.55.348.218.227.218.663.008.543-.412.898-.412.348-1.125.348m4.938-.097v-4.013h.615l.057.77q.186-.398.566-.632t.939-.235v.712h-.186q-.356 0-.656.13a.98.98 0 0 0-.477.42q-.178.3-.178.826v2.022zm4.548.097q-.712 0-1.132-.428-.421-.438-.421-1.335v-2.347h.679v2.274q0 1.254 1.028 1.254.526 0 .866-.372.348-.38.348-1.076v-2.08h.679v4.013h-.615l-.048-.72q-.186.38-.559.599a1.57 1.57 0 0 1-.825.218m3.31-.097v-4.013h.615l.041.72q.194-.38.558-.598.364-.219.825-.219.712 0 1.133.437.429.429.428 1.327v2.346h-.679v-2.273q0-1.254-1.036-1.254-.517 0-.865.38-.34.372-.34 1.068v2.08zm4.775 0v-4.013h.614l.041.72q.194-.38.558-.598.364-.219.825-.219.713 0 1.133.437.429.429.429 1.327v2.346h-.68v-2.273q0-1.254-1.035-1.254-.518 0-.866.38-.34.372-.34 1.068v2.08zm5.187-4.902a.48.48 0 0 1-.34-.13.47.47 0 0 1-.13-.34q0-.194.13-.323a.48.48 0 0 1 .34-.13q.194 0 .331.13a.43.43 0 0 1 .138.323.46.46 0 0 1-.138.34.47.47 0 0 1-.331.13m-.34 4.902v-4.013h.679v4.013zm2.007 0v-4.013h.615l.04.72a1.46 1.46 0 0 1 .559-.598q.363-.219.825-.219.712 0 1.133.437.428.429.428 1.327v2.346h-.679v-2.273q0-1.254-1.036-1.254-.518 0-.865.38-.34.372-.34 1.068v2.08zm6.36-1.262q-.34 0-.623-.089l-.404.38q.089.065.218.114.138.04.388.08.251.033.704.074.81.056 1.157.372.348.315.348.825 0 .348-.194.663-.186.315-.583.518-.387.202-1.003.202-.542 0-.962-.145a1.36 1.36 0 0 1-.656-.43q-.234-.282-.234-.72 0-.225.121-.493.121-.259.453-.493a2 2 0 0 1-.307-.154 2 2 0 0 1-.227-.194v-.186l.688-.68q-.478-.404-.478-1.068 0-.396.186-.72a1.3 1.3 0 0 1 .543-.51q.355-.194.865-.194.348 0 .631.097h1.481v.51l-.753.032q.235.34.235.785 0 .398-.194.72a1.36 1.36 0 0 1-.542.518q-.348.186-.858.186m0-.558q.43 0 .68-.218.258-.227.259-.648 0-.413-.259-.63-.25-.227-.68-.227-.437 0-.696.226-.25.219-.25.631 0 .42.25.648.26.218.696.218m-1.181 2.338q0 .405.34.599.339.202.849.202.502 0 .801-.218a.68.68 0 0 0 .308-.583.6.6 0 0 0-.211-.453q-.21-.186-.776-.218a10 10 0 0 1-.769-.081q-.332.177-.437.38a.85.85 0 0 0-.105.372m8.318-.42q-.567 0-1.019-.26a1.9 1.9 0 0 1-.721-.728q-.258-.477-.258-1.116t.267-1.108q.267-.478.72-.737a2.06 2.06 0 0 1 1.027-.259q.566 0 1.02.26.453.258.711.736.267.468.267 1.108 0 .639-.267 1.116-.266.47-.728.729a2 2 0 0 1-1.019.258m0-.583q.348 0 .647-.17t.486-.51q.186-.34.186-.841 0-.502-.186-.841a1.2 1.2 0 0 0-.478-.51 1.27 1.27 0 0 0-.639-.17q-.348 0-.647.17t-.486.51q-.186.34-.186.84 0 .503.186.842.187.34.478.51.299.17.639.17m4.568.582q-.712 0-1.132-.428-.421-.438-.421-1.335v-2.347h.679v2.274q0 1.254 1.028 1.254.526 0 .866-.372.348-.38.348-1.076v-2.08h.679v4.013h-.615l-.048-.72q-.186.38-.559.599a1.57 1.57 0 0 1-.825.218m4.896-.097q-.55 0-.866-.267t-.315-.962v-2.21h-.696v-.574h.696l.089-.962h.59v.962h1.182v.575h-1.182v2.209q0 .38.154.517.154.13.542.13h.421v.582zm1.922.04a.48.48 0 0 1-.34-.129.47.47 0 0 1-.129-.331.44.44 0 0 1 .129-.324.46.46 0 0 1 .34-.138q.194 0 .324.138a.43.43 0 0 1 .137.324.454.454 0 0 1-.461.46m3.816-.04v-5.663h1.861q.663 0 1.092.218.429.219.631.591.21.372.211.841 0 .462-.203.834a1.5 1.5 0 0 1-.631.599q-.428.218-1.1.218h-1.181v2.362zm.68-2.937h1.165q.68 0 .963-.283.291-.29.291-.793 0-.51-.291-.792-.284-.292-.963-.292h-1.165zm4.109 2.937v-5.825h.68v5.825zm3.742.097q-.573 0-1.019-.258a1.9 1.9 0 0 1-.704-.737q-.25-.469-.251-1.108 0-.631.251-1.1.25-.478.696-.737.453-.267 1.044-.267.582 0 1.003.267.429.26.655.688a1.95 1.95 0 0 1 .219 1.1v.203h-3.196q.024.46.21.768.195.3.478.453.291.154.614.154.422 0 .704-.194.284-.195.413-.526h.671a1.8 1.8 0 0 1-.623.93q-.453.364-1.165.364m0-3.632q-.485 0-.865.3-.372.29-.429.857h2.524q-.024-.543-.372-.85a1.25 1.25 0 0 0-.858-.307m4.282 3.632q-.502 0-.833-.17a1.15 1.15 0 0 1-.656-1.067q0-.615.469-.947.47-.332 1.279-.332h1.084v-.048q0-.526-.275-.793-.276-.276-.736-.275-.397 0-.688.202a.86.86 0 0 0-.356.575h-.696q.04-.437.291-.737.26-.3.64-.453.38-.162.809-.162.841 0 1.262.453.428.446.428 1.19v2.467h-.606l-.041-.72q-.17.34-.501.583-.324.234-.874.234m.105-.574q.388 0 .663-.202.283-.202.429-.526t.146-.68v-.008h-1.028q-.599 0-.849.21a.64.64 0 0 0-.243.51q0 .315.227.51.234.186.655.186m4.619.574q-.72.001-1.198-.364a1.42 1.42 0 0 1-.558-.987h.696q.065.316.332.55.274.227.736.227.429 0 .631-.178a.57.57 0 0 0 .202-.437q0-.364-.267-.485a3.4 3.4 0 0 0-.736-.219 4 4 0 0 1-.647-.186 1.5 1.5 0 0 1-.542-.34.8.8 0 0 1-.219-.59q0-.526.388-.858.397-.34 1.068-.34.64 0 1.044.324.413.315.477.906h-.671a.68.68 0 0 0-.267-.477q-.219-.178-.591-.178-.363 0-.566.153a.5.5 0 0 0-.194.405q0 .243.251.38.258.138.695.235.373.08.704.202.34.114.55.348.219.227.219.663.008.543-.413.898-.413.348-1.124.348m4.456 0q-.574 0-1.019-.258a1.9 1.9 0 0 1-.704-.737q-.25-.469-.251-1.108 0-.631.251-1.1.25-.478.696-.737.453-.267 1.044-.267.582 0 1.003.267.429.26.655.688a1.95 1.95 0 0 1 .219 1.1v.203h-3.196q.024.46.21.768.195.3.477.453.292.154.615.154.421 0 .704-.194.284-.195.413-.526h.671a1.82 1.82 0 0 1-.623.93q-.453.364-1.165.364m0-3.632q-.485 0-.865.3-.372.29-.429.857h2.524q-.024-.543-.372-.85a1.25 1.25 0 0 0-.858-.307m6.818 3.535q-.55 0-.865-.267-.316-.267-.316-.962v-2.21h-.696v-.574h.696l.089-.962h.591v.962h1.181v.575h-1.181v2.209q0 .38.153.517.154.13.542.13h.421v.582zm3.405.097q-.566 0-1.019-.258a1.9 1.9 0 0 1-.72-.729q-.26-.477-.259-1.116 0-.64.267-1.108.267-.478.72-.737.462-.258 1.028-.259.566 0 1.019.26.453.258.712.736.267.468.267 1.108 0 .639-.267 1.116a1.9 1.9 0 0 1-.728.729 2 2 0 0 1-1.02.258m0-.582q.348 0 .648-.17a1.27 1.27 0 0 0 .485-.51q.186-.34.186-.841 0-.502-.186-.841a1.2 1.2 0 0 0-.477-.51q-.3-.17-.639-.17-.348 0-.648.17a1.27 1.27 0 0 0-.485.51q-.186.34-.186.84 0 .503.186.842.186.34.477.51.3.17.639.17m3.104 2.265v-5.793h.615l.065.664q.194-.291.55-.526.364-.234.922-.235.6 0 1.044.275.445.276.688.753.25.477.251 1.084 0 .606-.251 1.084-.243.47-.696.744a2 2 0 0 1-1.044.267q-.494 0-.881-.202a1.4 1.4 0 0 1-.583-.566v2.451zm2.072-2.273q.404 0 .712-.186.306-.195.485-.534.178-.34.178-.793t-.178-.793a1.32 1.32 0 0 0-1.197-.72q-.405 0-.712.194-.308.186-.486.526-.177.34-.178.793 0 .453.178.793.179.339.486.534.307.186.712.186m4.617.59q-.712 0-1.132-.428-.421-.438-.421-1.335v-2.347h.68v2.274q0 1.254 1.027 1.254.526 0 .866-.372.348-.38.348-1.076v-2.08h.679v4.013h-.614l-.049-.72a1.4 1.4 0 0 1-.558.599 1.6 1.6 0 0 1-.826.218m3.31 1.683v-5.793h.615l.065.664q.195-.291.55-.526.364-.234.923-.235.599 0 1.043.275.445.276.688.753.25.477.251 1.084 0 .606-.251 1.084-.243.47-.696.744a2 2 0 0 1-1.044.267q-.494 0-.881-.202a1.4 1.4 0 0 1-.583-.566v2.451zm2.072-2.273q.404 0 .712-.186.307-.195.485-.534.178-.34.178-.793t-.178-.793a1.31 1.31 0 0 0-1.197-.72q-.405 0-.712.194-.308.186-.486.526t-.178.793.178.793.486.534q.307.186.712.186m5.439.493v-4.013h.615l.04.72q.195-.38.558-.598.364-.219.826-.219.711 0 1.132.437.429.429.429 1.327v2.346h-.68v-2.273q0-1.254-1.035-1.254-.518 0-.866.38-.34.372-.34 1.068v2.08zm6.603.097q-.567 0-1.02-.258a1.9 1.9 0 0 1-.72-.729 2.3 2.3 0 0 1-.259-1.116q0-.64.267-1.108.267-.478.72-.737.461-.258 1.028-.259.566 0 1.019.26.454.258.712.736.267.468.267 1.108 0 .639-.267 1.116a1.9 1.9 0 0 1-.728.729 2 2 0 0 1-1.019.258m0-.582q.348 0 .647-.17a1.27 1.27 0 0 0 .485-.51q.186-.34.186-.841 0-.502-.186-.841a1.2 1.2 0 0 0-.477-.51q-.3-.17-.639-.17-.348 0-.647.17t-.486.51q-.186.34-.186.84 0 .503.186.842.186.34.477.51.3.17.64.17m3.762.485-1.173-4.013h.68l.849 3.148.939-3.148h.769l.946 3.148.842-3.148h.687l-1.173 4.013h-.696l-.987-3.309-.987 3.31zm5.393.04a.48.48 0 0 1-.339-.129.46.46 0 0 1-.13-.331q0-.195.13-.324a.46.46 0 0 1 .339-.138q.195 0 .324.138a.43.43 0 0 1 .138.324q0 .195-.138.331a.44.44 0 0 1-.324.13"/></g><defs><clipPath id="a"><path fill="#fff" d="M0 0h96v96H0z"/></clipPath></defs></svg>