<svg xmlns="http://www.w3.org/2000/svg" width="96" height="96" fill="none" viewBox="0 0 96 96"><g clip-path="url(#a)"><path fill="#464C59" d="M0 0h96v96H0z"/><path fill="#fff" d="M15 12h425v72H15z"/><path fill="#0065D1" d="M25 34h26.625a2 2 0 1 1 0 4H25z"/><rect width="20" height="20" x="65.625" y="26" fill="#fff" rx="10"/><rect width="20" height="20" x="65.625" y="26" stroke="#0065D1" stroke-width="8" rx="10"/><path fill="#0D1117" d="M61.2 70v-8.4h1.009v7.596h3.912V70zm8.426.144q-.744 0-1.236-.252a1.71 1.71 0 0 1-.972-1.584q0-.912.696-1.404t1.896-.492h1.608v-.072q0-.78-.408-1.176-.408-.408-1.092-.408-.588 0-1.02.3-.42.288-.528.852h-1.032q.06-.648.432-1.092.384-.444.948-.672.564-.24 1.2-.24 1.248 0 1.872.672.636.66.636 1.764V70h-.9l-.06-1.068a2.4 2.4 0 0 1-.744.864q-.48.348-1.296.348m.156-.852q.576 0 .984-.3.42-.3.636-.78a2.4 2.4 0 0 0 .216-1.008v-.012h-1.524q-.888 0-1.26.312-.36.3-.36.756 0 .468.336.756.348.276.972.276m7.736.852q-.732 0-1.308-.3-.564-.3-.864-.84L75.25 70h-.912v-8.64h1.008v3.672q.288-.432.816-.78.54-.348 1.368-.348.888 0 1.548.408t1.02 1.116q.372.708.372 1.608t-.372 1.608q-.36.696-1.032 1.104-.66.396-1.548.396m-.108-.876q.6 0 1.056-.276.456-.288.72-.792t.264-1.176-.264-1.176a1.94 1.94 0 0 0-.72-.78 1.94 1.94 0 0 0-1.056-.288q-.6 0-1.056.288a1.94 1.94 0 0 0-.72.78q-.264.504-.264 1.176t.264 1.176.72.792q.456.276 1.056.276m7.339.876q-.852 0-1.512-.384a2.86 2.86 0 0 1-1.044-1.092q-.372-.696-.372-1.644 0-.936.372-1.632a2.67 2.67 0 0 1 1.032-1.092q.672-.396 1.548-.396.864 0 1.488.396.636.384.972 1.02a2.9 2.9 0 0 1 .324 1.632v.3h-4.74q.036.684.312 1.14.288.444.708.672.432.228.912.228.624 0 1.044-.288t.612-.78h.996a2.7 2.7 0 0 1-.924 1.38q-.672.54-1.728.54m0-5.388q-.72 0-1.284.444-.552.432-.636 1.272h3.744q-.036-.804-.552-1.26t-1.272-.456M89.105 70v-8.64h1.008V70z"/></g><defs><clipPath id="a"><path fill="#fff" d="M0 0h96v96H0z"/></clipPath></defs></svg>