<svg xmlns="http://www.w3.org/2000/svg" width="96" height="96" fill="none" viewBox="0 0 96 96"><g clip-path="url(#a)"><path fill="#464C59" d="M0 0h96v96H0z"/><mask id="c" fill="#fff"><path d="M28 34a8 8 0 0 1 8-8h214a8 8 0 0 1 8 8v36H28z"/></mask><path fill="#FAFAFA" d="M28 34a8 8 0 0 1 8-8h214a8 8 0 0 1 8 8v36H28z"/><g clip-path="url(#b)"><path fill="#56585D" fill-rule="evenodd" d="M50 44.25A3.75 3.75 0 0 0 46.25 48v5a3.75 3.75 0 1 0 7.5 0v-5A3.75 3.75 0 0 0 50 44.25m-2.656 4.919h5.312v2.656h-5.312zM50 55.656A2.67 2.67 0 0 1 47.344 53v-.081h5.312V53A2.67 2.67 0 0 1 50 55.656m2.656-7.581h-5.312V48a2.656 2.656 0 1 1 5.312 0zm6.507 1.931L55 46.125v5.688a2.5 2.5 0 0 0 5 0 2.4 2.4 0 0 0-.837-1.807M57.5 53.22c-.777 0-1.406-.63-1.406-1.407v-3.187l2.325 2.169c.283.238.449.586.456.956A1.406 1.406 0 0 1 57.5 53.22M40 51.812a2.5 2.5 0 0 0 5 0v-5.687l-4.163 3.881A2.42 2.42 0 0 0 40 51.812m1.55-.974 2.356-2.213v3.188a1.406 1.406 0 1 1-2.812 0 1.28 1.28 0 0 1 .456-.976m7.825-9.4a2.188 2.188 0 1 0-4.375 0 2.188 2.188 0 0 0 4.375 0m-3.281 0a1.094 1.094 0 1 1 1.093 1.093 1.106 1.106 0 0 1-1.093-1.093m6.718-2.188a2.188 2.188 0 1 0 0 4.375 2.188 2.188 0 0 0 0-4.375m0 3.281a1.094 1.094 0 1 1 1.094-1.093 1.106 1.106 0 0 1-1.093 1.093" clip-rule="evenodd"/></g><path fill="#0D1117" d="M75.808 53V42.904h-3.344V41.8h8.032v1.104h-3.344V53zm8.628.192q-1.12 0-2.016-.512a3.77 3.77 0 0 1-1.424-1.44q-.512-.944-.512-2.208t.528-2.192a3.74 3.74 0 0 1 1.424-1.456 4.1 4.1 0 0 1 2.032-.512q1.119 0 2.016.512a3.63 3.63 0 0 1 1.408 1.456q.528.929.528 2.192 0 1.265-.528 2.208a3.74 3.74 0 0 1-1.44 1.44q-.897.512-2.016.512m0-1.152a2.55 2.55 0 0 0 1.28-.336q.591-.336.96-1.008.368-.672.368-1.664t-.368-1.664q-.353-.672-.944-1.008a2.5 2.5 0 0 0-1.264-.336 2.55 2.55 0 0 0-1.28.336q-.593.336-.96 1.008-.368.672-.368 1.664t.368 1.664.944 1.008a2.5 2.5 0 0 0 1.264.336m14.135 1.152q-1.233 0-2.144-.448-.913-.449-1.408-1.248-.496-.8-.496-1.856h1.408q0 .656.304 1.216.303.544.88.88.591.32 1.456.32 1.136 0 1.76-.544a1.73 1.73 0 0 0 .624-1.36q0-.672-.288-1.072a2.1 2.1 0 0 0-.784-.672 6 6 0 0 0-1.12-.448 37 37 0 0 1-1.312-.432q-1.296-.448-1.92-1.104-.624-.673-.624-1.744-.016-.896.416-1.584.432-.705 1.216-1.088.8-.4 1.888-.4 1.071 0 1.856.4a2.96 2.96 0 0 1 1.232 1.104 3.03 3.03 0 0 1 .464 1.6h-1.408q0-.464-.24-.912-.24-.465-.736-.752-.48-.288-1.216-.288-.913-.015-1.504.464-.576.48-.576 1.328 0 .72.4 1.104.416.384 1.152.64.736.24 1.696.56a8 8 0 0 1 1.44.672q.64.384.992.992.368.608.368 1.552 0 .8-.416 1.52-.417.704-1.264 1.152-.833.448-2.096.448m6.618-9.888a.94.94 0 0 1-.672-.256.94.94 0 0 1-.256-.672q0-.385.256-.64a.94.94 0 0 1 .672-.256q.383 0 .656.256.272.255.272.64 0 .4-.272.672a.92.92 0 0 1-.656.256M104.517 53v-7.936h1.344V53zm7.02-2.496q-.672 0-1.232-.176l-.8.752q.175.128.432.224.271.08.768.16.497.064 1.392.144 1.6.112 2.288.736t.688 1.632q0 .688-.384 1.312-.368.624-1.152 1.024-.768.4-1.984.4-1.072 0-1.904-.288-.833-.272-1.296-.848-.464-.56-.464-1.424 0-.448.24-.976.24-.512.896-.976a4 4 0 0 1-.608-.304 4 4 0 0 1-.448-.384v-.368l1.36-1.344q-.944-.8-.944-2.112 0-.784.368-1.424a2.6 2.6 0 0 1 1.072-1.008q.704-.384 1.712-.384.689 0 1.248.192h2.928v1.008l-1.488.064q.464.672.464 1.552 0 .784-.384 1.424a2.7 2.7 0 0 1-1.072 1.024q-.688.368-1.696.368m0-1.104q.848 0 1.344-.432.512-.448.512-1.28 0-.816-.512-1.248-.496-.448-1.344-.448-.864 0-1.376.448-.496.432-.496 1.248 0 .832.496 1.28.512.432 1.376.432m-2.336 4.624q0 .8.672 1.184.672.4 1.68.4.992 0 1.584-.432.608-.432.608-1.152 0-.512-.416-.896-.416-.368-1.536-.432a20 20 0 0 1-1.52-.16q-.655.352-.864.752-.208.416-.208.736M117.429 53v-7.936h1.216l.08 1.424a2.9 2.9 0 0 1 1.104-1.184 3.1 3.1 0 0 1 1.632-.432q1.408 0 2.24.864.848.848.848 2.624V53h-1.344v-4.496q0-2.48-2.048-2.48-1.024 0-1.712.752-.672.736-.672 2.112V53z"/><path fill="#DBDBDC" d="M27 34a9 9 0 0 1 9-9h214a9 9 0 0 1 9 9h-2a7 7 0 0 0-7-7H36a7 7 0 0 0-7 7zm231 36H28zM27 70V34a9 9 0 0 1 9-9v2a7 7 0 0 0-7 7v36zm223-45a9 9 0 0 1 9 9v36h-2V34a7 7 0 0 0-7-7z" mask="url(#c)"/><path fill="#DBDBDC" d="M650 69H20v2h630z" mask="url(#path-1-inside-1_1397_77424)"/></g><defs><clipPath id="a"><path fill="#fff" d="M0 0h96v96H0z"/></clipPath><clipPath id="b"><path fill="#fff" d="M40 38h20v20H40z"/></clipPath></defs></svg>