<svg xmlns="http://www.w3.org/2000/svg" width="390" height="57" fill="none" viewBox="0 0 390 57"><g clip-path="url(#a)"><path fill="url(#b)" d="M0 8.011a8 8 0 0 1 8-8h374a8 8 0 0 1 8 8v40a8 8 0 0 1-8 8H8a8 8 0 0 1-8-8z"/><g fill="#FFC79D" fill-rule="evenodd" clip-path="url(#c)" clip-rule="evenodd"><path d="M25.099 18.091a9.223 9.223 0 0 1-9.223-9.222 9.223 9.223 0 0 1-9.222 9.222 9.223 9.223 0 0 1 9.222 9.223A9.22 9.22 0 0 1 25.1 18.09M36.081 42.3a5.29 5.29 0 0 1-5.29-5.289 5.29 5.29 0 0 1-5.29 5.29 5.29 5.29 0 0 1 5.29 5.29 5.29 5.29 0 0 1 5.29-5.29"/></g><g fill="#FFC79D" fill-rule="evenodd" clip-path="url(#d)" clip-rule="evenodd"><path d="M364.389 18.091a9.223 9.223 0 0 0 9.223-9.222 9.22 9.22 0 0 0 9.222 9.222 9.22 9.22 0 0 0-9.222 9.223 9.223 9.223 0 0 0-9.223-9.223M353.407 42.3a5.29 5.29 0 0 0 5.289-5.289 5.29 5.29 0 0 0 5.29 5.29 5.29 5.29 0 0 0-5.29 5.29 5.29 5.29 0 0 0-5.289-5.29"/></g></g><defs><clipPath id="a"><path fill="#fff" d="M0 8.011a8 8 0 0 1 8-8h374a8 8 0 0 1 8 8v40a8 8 0 0 1-8 8H8a8 8 0 0 1-8-8z"/></clipPath><clipPath id="c"><path fill="#fff" d="M67.488 8.604H3v64.488h64.488z"/></clipPath><clipPath id="d"><path fill="#fff" d="M322 8.604h64.488v64.488H322z"/></clipPath><linearGradient id="b" x1="-183.11" x2="24.1521" y1="-28.9889" y2="286.744" gradientUnits="userSpaceOnUse"><stop stop-color="#0165D1" stop-opacity="0.17"/><stop offset="1" stop-color="#D2E8FF" stop-opacity="0.1"/></linearGradient></defs></svg>