<svg xmlns="http://www.w3.org/2000/svg" width="40" height="24" fill="none" viewBox="0 0 40 24"><g stroke="#E8178A" clip-path="url(#a)"><path d="M25 .5h15M32.5 25V1M25 23.5h15"/></g><path fill="#E8178A" d="M11.72 17v-1.32H7.085L9.3 13.316q.437-.465.807-.902.375-.438.65-.868.266-.431.416-.868.157-.444.157-.916 0-.63-.205-1.149a2.5 2.5 0 0 0-.594-.902 2.8 2.8 0 0 0-.978-.588 3.8 3.8 0 0 0-1.306-.212q-.779 0-1.415.253-.628.253-1.066.684a3 3 0 0 0-.684 1.011q-.24.575-.239 1.224h1.64q0-.43.11-.766.11-.341.328-.58a1.4 1.4 0 0 1 .533-.35 2.1 2.1 0 0 1 .76-.122q.34 0 .614.116.28.116.479.321t.3.492q.104.288.103.636 0 .26-.075.52a2.5 2.5 0 0 1-.232.547 6 6 0 0 1-.445.649q-.274.349-.676.793l-3.24 3.527V17zm7.304-3.548V7.047h-1.681l-4.3 6.726.041 1.005h4.307V17h1.633v-2.222h1.251v-1.326zm-4.313 0 2.488-3.862.192-.356v4.218z"/><defs><clipPath id="a"><path fill="#fff" d="M25 0h15v24H25z"/></clipPath></defs></svg>