<svg xmlns="http://www.w3.org/2000/svg" width="121" height="128" fill="none" viewBox="0 0 121 128"><g clip-path="url(#a)"><g clip-path="url(#b)"><rect width="121" height="121" y="6.5" fill="url(#c)" rx="60.124"/><rect width="121" height="121" y="6.5" fill="#fff" fill-opacity=".8" rx="60.124"/><path fill="#8AAED8" d="M9 54.5h104v68.869a4.114 4.114 0 0 1-4.114 4.114H13.114A4.114 4.114 0 0 1 9 123.369z"/><path fill="#BFD6F0" d="M9 29.5h104v25H9z"/><rect width="84" height="54" x="22" y="18.5" fill="#DDE6F4" rx="4.509"/><path fill="#fff" d="M9 54.5h2a5 5 0 0 1 5 5v68H9zm104 0h-2a5 5 0 0 0-5 5v68h7z"/><path fill="#F5F7F9" d="M9 64.5a4 4 0 0 1 4-4h96a4 4 0 0 1 4 4v63H9z"/><path fill="url(#d)" d="M9 64.5a4 4 0 0 1 4-4h44a4 4 0 0 1 4 4v63H9z"/><path fill="url(#e)" d="M113 64.5a4 4 0 0 0-4-4H65a4 4 0 0 0-4 4v63h52z"/></g><path fill="#BFD6F0" d="M9 30.5a4 4 0 0 1 4-4h96a4 4 0 0 1 4 4v11H9z"/><rect width="80" height="35" x="26" y="12.5" fill="#DDE6F4" rx="4.509"/><g filter="url(#f)"><circle cx="9.5" cy="12" r="8.5" fill="#91ACF1"/><path fill="#fff" d="M12.91 15.814H6.09a.38.38 0 0 1-.379-.423 3.812 3.812 0 0 1 7.578 0 .382.382 0 0 1-.38.423"/><path fill="#fff" d="m9.77 14.405 1.795-1.798a3.81 3.81 0 0 0-4.132.002l1.797 1.797a.38.38 0 0 0 .54 0"/><path fill="#fff" d="M9.498 12.763a2.288 2.288 0 1 1 0-4.576 2.288 2.288 0 0 1 0 4.576"/><path fill="#fff" d="M7.246 10.856a2.285 2.285 0 0 0 4.508 0z"/></g><g filter="url(#g)"><rect width="86" height="66" x="18" y=".5" fill="#fff" rx="4.509"/><rect width="85.248" height="65.248" x="18.376" y=".876" stroke="#F4F6F7" stroke-width=".752" rx="4.134"/></g><path fill="#F5F7F9" d="M9 64.5a4 4 0 0 1 4-4h96a4 4 0 0 1 4 4v23H9z"/><path stroke="#EAECF0" d="M61 60.5V127"/><rect width="12" height="12" x="55" y="80.5" fill="#235AE3" rx="6"/><rect width="4" height="4" x="59" y="84.5" fill="#C8D6F8" rx="2"/><rect width="2" height="2" x="60" y="85.5" fill="#fff" rx="1"/><rect width="32.107" height="4" x="25" y="8.5" fill="#AAB8C5" rx="1.503"/><rect width="51.6" height="4" x="25" y="15.5" fill="#D7DDE2" rx="1.503"/><rect width="72" height="4" x="25" y="29.5" fill="#D7DDE2" rx="1.503"/><rect width="72" height="4" x="25" y="37.5" fill="#D7DDE2" rx="1.503"/><rect width="72" height="4" x="25" y="45.5" fill="#D7DDE2" rx="1.503"/><rect width="72" height="4" x="25" y="53.5" fill="#D7DDE2" rx="1.503"/><g filter="url(#h)"><circle cx="106.5" cy="20" r="8.5" fill="#F6D789"/><path fill="#fff" d="M109.91 23.814h-6.82a.38.38 0 0 1-.379-.423 3.814 3.814 0 0 1 6.332-2.42 3.8 3.8 0 0 1 1.246 2.42.4.4 0 0 1-.095.296.4.4 0 0 1-.284.127"/><path fill="#fff" d="m106.77 22.405 1.795-1.798a3.81 3.81 0 0 0-4.132.002l1.797 1.797a.384.384 0 0 0 .54 0"/><path fill="#fff" d="M106.498 20.763a2.288 2.288 0 1 1 0-4.575 2.288 2.288 0 0 1 0 4.575"/><path fill="#fff" d="M104.246 18.856a2.28 2.28 0 0 0 2.254 1.907 2.28 2.28 0 0 0 2.254-1.907z"/></g><g filter="url(#i)"><path fill="#fff" d="M39.236 35.865a2.3 2.3 0 0 0-1.925-.459 18.33 18.33 0 0 1-14.255-2.91 2.29 2.29 0 0 0-2.612 0 18.33 18.33 0 0 1-14.254 2.91 2.29 2.29 0 0 0-2.552 1.256c-.147.31-.222.648-.221.99v17.073a20.63 20.63 0 0 0 8.64 16.798l8.364 5.958a2.29 2.29 0 0 0 2.658 0l8.365-5.958a20.63 20.63 0 0 0 8.64-16.798V37.652a2.3 2.3 0 0 0-.849-1.788"/></g><path fill="#5AC571" d="M34.8 62.708a17.5 17.5 0 0 0 1.934-8.004V38.971A24.97 24.97 0 0 1 21.75 35.5a24.97 24.97 0 0 1-14.984 3.471v15.733A17.5 17.5 0 0 0 8.7 62.708c1.6 2.851 2.766 4.23 5.383 6.231l7.667 5.47 7.667-5.47c2.703-2.213 3.871-3.594 5.383-6.23"/><path fill="#fff" d="M29.657 48.853c-.457-.47-1.143-.47-1.6 0l-8.571 8.823-3.543-3.647c-.457-.47-1.143-.47-1.6 0a1.16 1.16 0 0 0 0 1.647l4.343 4.471c.228.235.457.353.8.353s.571-.118.8-.353l9.371-9.647a1.16 1.16 0 0 0 0-1.647"/></g><defs><filter id="f" width="23" height="23" x="-2" y=".5" color-interpolation-filters="sRGB" filterUnits="userSpaceOnUse"><feFlood flood-opacity="0" result="BackgroundImageFix"/><feBlend in="SourceGraphic" in2="BackgroundImageFix" result="shape"/><feGaussianBlur result="effect1_foregroundBlur_644_13029" stdDeviation="1.5"/></filter><filter id="g" width="110" height="90" x="6" y="-3.5" color-interpolation-filters="sRGB" filterUnits="userSpaceOnUse"><feFlood flood-opacity="0" result="BackgroundImageFix"/><feColorMatrix in="SourceAlpha" result="hardAlpha" values="0 0 0 0 0 0 0 0 0 0 0 0 0 0 0 0 0 0 127 0"/><feMorphology in="SourceAlpha" radius="5" result="effect1_dropShadow_644_13029"/><feOffset dy="8"/><feGaussianBlur stdDeviation="8.5"/><feColorMatrix values="0 0 0 0 0.568627 0 0 0 0 0.592157 0 0 0 0 0.639216 0 0 0 0.5 0"/><feBlend in2="BackgroundImageFix" result="effect1_dropShadow_644_13029"/><feBlend in="SourceGraphic" in2="effect1_dropShadow_644_13029" result="shape"/></filter><filter id="h" width="19" height="19" x="97" y="10.5" color-interpolation-filters="sRGB" filterUnits="userSpaceOnUse"><feFlood flood-opacity="0" result="BackgroundImageFix"/><feBlend in="SourceGraphic" in2="BackgroundImageFix" result="shape"/><feGaussianBlur result="effect1_foregroundBlur_644_13029" stdDeviation=".5"/></filter><filter id="i" width="48.667" height="57.819" x="-2.583" y="28.087" color-interpolation-filters="sRGB" filterUnits="userSpaceOnUse"><feFlood flood-opacity="0" result="BackgroundImageFix"/><feColorMatrix in="SourceAlpha" result="hardAlpha" values="0 0 0 0 0 0 0 0 0 0 0 0 0 0 0 0 0 0 127 0"/><feOffset dy="2"/><feGaussianBlur stdDeviation="3"/><feColorMatrix values="0 0 0 0 0.155625 0 0 0 0 0.273375 0 0 0 0 0.45 0 0 0 0.21 0"/><feBlend in2="BackgroundImageFix" result="effect1_dropShadow_644_13029"/><feBlend in="SourceGraphic" in2="effect1_dropShadow_644_13029" result="shape"/></filter><radialGradient id="d" cx="0" cy="0" r="1" gradientTransform="matrix(-108.49954 39.00022 -30.2689 -84.20882 61 77)" gradientUnits="userSpaceOnUse"><stop offset=".418" stop-color="#C4C4C4" stop-opacity="0"/><stop offset="1" stop-color="#C4C4C4"/></radialGradient><radialGradient id="e" cx="0" cy="0" r="1" gradientTransform="matrix(108.49968 38.99984 -30.26861 84.20893 61 77)" gradientUnits="userSpaceOnUse"><stop offset=".418" stop-color="#C4C4C4" stop-opacity="0"/><stop offset="1" stop-color="#C4C4C4"/></radialGradient><clipPath id="a"><path fill="#fff" d="M0 .5h121v127H0z"/></clipPath><clipPath id="b"><rect width="121" height="121" y="6.5" fill="#fff" rx="60.124"/></clipPath><linearGradient id="c" x1="60.5" x2="60.5" y1="6.5" y2="127.5" gradientUnits="userSpaceOnUse"><stop stop-color="#BCCEDF"/><stop offset="1" stop-color="#2869A5"/></linearGradient></defs></svg>