<svg xmlns="http://www.w3.org/2000/svg" width="204" height="131" viewBox="0 0 204 131"><defs><linearGradient id="a" x1="38.772%" x2="99.746%" y1="36.946%" y2="100%"><stop offset="0%" stop-opacity="0"/><stop offset="10.271%" stop-opacity=".054"/><stop offset="19.657%" stop-opacity=".106"/><stop offset="30.31%" stop-opacity=".192"/><stop offset="38.65%" stop-opacity=".245"/><stop offset="100%"/></linearGradient></defs><g fill="none" fill-rule="evenodd"><path fill="#E42E2C" d="M20.136 112.815C31.964 124.67 48.304 132 66.352 132s34.388-7.331 46.216-19.185L205 20.185C193.172 8.33 176.832 1 158.784 1s-34.388 7.331-46.216 19.185C100.74 8.33 84.4 1 66.352 1 27.567 1 3.025 30.225 1 67.471c.257 17.702 7.52 33.704 19.136 45.344"/><path fill="url(#a)" d="M113 20.265C101.126 8.362 84.723 1 66.605 1 27.67 1 3.033 30.348 1 67.751c.258 17.776 7.55 33.845 19.21 45.535z"/></g></svg>