<svg xmlns="http://www.w3.org/2000/svg" width="405" height="99" fill="none" viewBox="0 0 405 99"><path fill="#E42E2C" fill-rule="evenodd" d="M15.102 84.396c8.87 8.868 21.126 14.352 34.662 14.352s25.791-5.484 34.662-14.352L153.75 15.1C144.879 6.233 132.624.748 119.088.748S93.297 6.233 84.426 15.1C75.556 6.233 63.3.748 49.764.748 20.675.748 2.27 22.611.75 50.475c.193 13.242 5.64 25.213 14.352 33.921" clip-rule="evenodd"/><path fill="url(#a)" fill-rule="evenodd" d="M84.75 15.16C75.845 6.256 63.543.748 49.954.748 20.753.748 2.274 22.703.75 50.684c.193 13.298 5.662 25.32 14.408 34.064z" clip-rule="evenodd"/><path fill="#E42E2C" fill-rule="evenodd" d="M272.231 14.08a5.036 5.036 0 0 0 5.031-5.04A5.036 5.036 0 0 0 272.231 4a5.035 5.035 0 0 0-5.031 5.04 5.035 5.035 0 0 0 5.031 5.04m-4.042 6.882h7.99v56.153h-7.99zm-43.241 27.786h-.002v28.367h7.99V48.747h.002c.151-10.958 9.065-19.796 20.04-19.796 1.792 0 3.529.236 5.182.678l2.038-7.618a28 28 0 0 0-7.274-.957c-15.34 0-27.796 12.368-27.976 27.694m-63.947.283H161v44.951h7.99V68.696c5.079 5.195 12.157 8.42 19.988 8.42 15.452 0 27.978-12.55 27.978-28.031s-12.526-28.03-27.978-28.03c-15.434 0-27.948 12.52-27.977 27.976m48.072 0c0-11.09-8.973-20.08-20.041-20.08-11.069 0-20.042 8.99-20.042 20.08s8.973 20.079 20.042 20.079c11.068 0 20.041-8.99 20.041-20.08m107.586 19.096 23.466-47.078.043-.087h-8.932l-.043.087-19.009 38.136-19.082-38.136-.044-.087h-8.931l.043.087 23.557 47.078 4.474 8.943zm42.126 25.855 12.888-25.855-23.557-47.078-.044-.087h8.932l.044.087 19.082 38.136 19.009-38.136.043-.087h8.932l-.043.087-23.466 47.078-4.458 8.943-8.43 16.912z" clip-rule="evenodd"/><defs><linearGradient id="a" x1="6.787" x2="58.267" y1="57.522" y2="110.488" gradientUnits="userSpaceOnUse"><stop stop-opacity=".01"/><stop offset=".103" stop-opacity=".054"/><stop offset=".197" stop-opacity=".106"/><stop offset=".303" stop-opacity=".192"/><stop offset=".387" stop-opacity=".245"/><stop offset="1"/></linearGradient></defs></svg>