<svg xmlns="http://www.w3.org/2000/svg" width="80" height="80" fill="none" class="persona-ilustration" viewBox="0 0 80 80"><g clip-path="url(#bUQavlPNu0_a)"><g clip-path="url(#bUQavlPNu0_b)"><rect width="66.67" height="66.67" x="6.665" y="6.665" fill="#D3EDFF" rx="33.335"/><path fill="#F8F8F8" d="M45.417 42.097c0 .636.73 1.15 1.63 1.15s1.63-.514 1.63-1.15-.73-1.15-1.63-1.15-1.63.515-1.63 1.15M50.106 40.759c0 .9 1.474 1.63 3.292 1.63s3.291-.73 3.291-1.63-1.474-1.63-3.291-1.63c-1.818 0-3.292.73-3.292 1.63M48.708 35.812a13.71 13.71 0 0 0 12.586 1.415 5.138 5.138 0 0 0 6.961-5.943l.075-.132a7.244 7.244 0 0 0 1.01-12.917 5.14 5.14 0 0 0-4.89-4.94 13.72 13.72 0 0 0-11.98-2.07 13.7 13.7 0 0 0-3.875 1.84 5.138 5.138 0 0 0-5.689 6.145 5.138 5.138 0 0 0-.153 9.423 5.137 5.137 0 0 0 5.955 7.178"/><path fill="#FFC509" d="M59.555 28.174c-.616.59-.97 1.128-.97 1.965v.092c0 .342-.275.62-.615.62h-4.1a.62.62 0 0 1-.615-.62v-.092c0-.844-.35-1.367-.985-1.98a5.27 5.27 0 0 1-1.619-3.82c0-1.456.558-2.77 1.57-3.773a5.21 5.21 0 0 1 3.699-1.526h.075a5.22 5.22 0 0 1 3.618 1.53 5.28 5.28 0 0 1 1.574 3.615 5.33 5.33 0 0 1-1.632 3.989m-4.53-7.39a2.7 2.7 0 0 0-2.698 2.699.441.441 0 1 0 .882 0c0-1.001.815-1.817 1.816-1.817a.44.44 0 1 0 0-.882"/><path fill="#CC6E08" d="M53.706 32.11c0-.342.275-.62.615-.62h3.198c.34 0 .616.278.616.62s-.276.62-.616.62h-3.197a.62.62 0 0 1-.616-.62M55.92 34.338c-.685 0-1.29-.406-1.643-1.02h3.286c-.353.614-.957 1.02-1.643 1.02"/><path fill="#FFC509" d="M55.92 18.152a.59.59 0 0 0 .589-.588v-1.858a.588.588 0 0 0-1.177 0v1.858c0 .325.264.588.588.588M51.113 20.144a.589.589 0 0 0 .416-1.005l-1.314-1.314a.588.588 0 1 0-.832.832l1.314 1.314a.59.59 0 0 0 .416.173M47.263 24.952h1.858a.588.588 0 0 0 0-1.177h-1.858a.588.588 0 0 0 0 1.177M60.729 20.144c.15 0 .301-.057.416-.172l1.314-1.314a.589.589 0 0 0-.832-.832l-1.314 1.314a.589.589 0 0 0 .416 1.004M51.113 28.584a.587.587 0 0 1 .416 1.004l-1.314 1.314a.588.588 0 1 1-.832-.832l1.314-1.314a.59.59 0 0 1 .416-.172M60.729 28.584c.15 0 .301.057.416.172l1.314 1.314a.589.589 0 0 1-.832.832l-1.314-1.314a.589.589 0 0 1 .416-1.005M62.72 24.952h1.859a.588.588 0 0 0 0-1.177H62.72a.588.588 0 0 0 0 1.177"/><mask id="bUQavlPNu0_c" width="84" height="27" x="-21" y="54" maskUnits="userSpaceOnUse" style="mask-type:alpha"><path fill="#5BA57C" d="M20.765 54.131c10.157 0 22.299 1.267 24.975 1.896 2.675.628 5.975 2.035 8.473 5.655 2.497 3.619 6.392 13.823 8.027 18.473h-82.95c1.635-4.65 5.53-14.854 8.028-18.473 2.497-3.62 5.797-5.027 8.473-5.655s14.817-1.896 24.974-1.896"/></mask><g mask="url(#bUQavlPNu0_c)"><path fill="#8FC7B8" d="M20.765 54.132c10.157 0 22.299 1.267 24.975 1.895 2.675.628 5.975 2.036 8.473 5.655 2.497 3.62 6.392 13.823 8.027 18.473h-82.95c1.635-4.65 5.53-14.854 8.028-18.473 2.497-3.62 5.797-5.027 8.473-5.655s14.817-1.895 24.974-1.895"/><path fill="#498F79" d="M35.404 56.165c0 6.962-6.372 12.605-14.232 12.605S6.94 63.127 6.94 56.165 13.312 43.56 21.172 43.56s14.232 5.643 14.232 12.605"/><path fill="#3D7360" fill-rule="evenodd" d="M21.216 44.576c-6.63 0-11.969 4.843-11.969 10.775s5.339 10.776 11.97 10.776c6.63 0 11.968-4.844 11.968-10.776s-5.338-10.775-11.969-10.775M8.841 55.35c0-6.195 5.56-11.182 12.375-11.182s12.376 4.987 12.376 11.182-5.561 11.182-12.376 11.182S8.841 61.546 8.841 55.351" clip-rule="evenodd"/><path fill="#F29B7C" d="M10.847 55.352c0 5.165 4.642 9.352 10.369 9.352s10.369-4.187 10.369-9.352S26.942 46 21.216 46c-5.727 0-10.369 4.187-10.369 9.352"/></g><rect width="19.639" height="34.461" x="41.52" y="44.444" fill="#442EA4" rx="3.025"/><rect width="6.537" height="3.001" x="43.721" y="46.794" fill="#310A81" rx="1.501"/><path fill="#FFC7B6" d="m73.638 68.226-11.052-7.073-3.979 1.547-3.758 11.052 18.789 4.863z"/><mask id="bUQavlPNu0_d" width="22" height="13" x="43" y="51" maskUnits="userSpaceOnUse" style="mask-type:alpha"><path fill="#FFC7B6" d="m54.55 55.56 7.75 5.09 2.47 1.68-4.942 1.43-6.777-3.788-8.127-5.656c-.727-.478-1.459-1.175-1.35-2.127.2-1.732 2.618-.63 3.232-.45z"/></mask><g mask="url(#bUQavlPNu0_d)"><path fill="#FFC7B6" d="m54.55 55.56 7.75 5.09 2.47 1.68-4.942 1.429-6.777-3.787-8.127-5.657c-.727-.478-1.459-1.174-1.35-2.127.2-1.732 2.618-.63 3.232-.45z"/><path fill="#F29B7C" d="m46.414 55.069-1.216-.617 2.985 3.49 10.426 6.727 3.405-.295-7.803-4.699-2.782-1.514z"/></g><mask id="bUQavlPNu0_e" width="24" height="9" x="38" y="59" maskUnits="userSpaceOnUse" style="mask-type:alpha"><path fill="#FFC7B6" d="M39.892 59.955c-1.354.744-1.154 2.53-.134 2.962.72.306 3.362-.137 4.942-.137 2.572.465 3.496.697 5.971 1.116l10.881 3.506-.066-4.257-9.905-3.53c-2.223-.465-4.437-.512-7.06-.564-1.229-.025-4.038.665-4.63.904"/></mask><g mask="url(#bUQavlPNu0_e)"><path fill="#FFC7B6" d="M39.892 59.955c-1.353.744-1.154 2.53-.133 2.962.72.306 3.362-.137 4.941-.137 2.572.465 3.497.697 5.972 1.116l10.88 3.506-.065-4.257-9.906-3.53c-2.222-.465-4.436-.512-7.059-.564-1.229-.025-4.039.665-4.63.904"/><path fill="#F29B7C" d="m44.657 62.118-5.246.55-1.157 3.358 16.62.539 3.373-.7-2.523-.974-4.722-1.574z"/><path fill="#F29B7C" fill-rule="evenodd" d="M44.367 59.343a.167.167 0 0 0-.217.093c-.06.152-.14.4-.188.664-.047.257-.069.557.015.794.139.393.273.683.325.784a.167.167 0 0 0 .296-.155 7 7 0 0 1-.306-.74c-.053-.151-.046-.379-.002-.623.043-.239.117-.466.17-.6a.167.167 0 0 0-.093-.217" clip-rule="evenodd"/></g><mask id="bUQavlPNu0_f" width="24" height="9" x="39" y="63" maskUnits="userSpaceOnUse" style="mask-type:alpha"><path fill="#FFC7B6" d="M40.649 64.469c-1.354.743-1.154 2.53-.133 2.962.72.305 3.361-.138 4.941-.138 2.572.465 3.497.697 5.971 1.116l10.882 3.506-.066-4.257-9.906-3.53c-2.222-.465-4.436-.512-7.059-.564-1.23-.025-4.04.665-4.63.905"/></mask><g mask="url(#bUQavlPNu0_f)"><path fill="#FFC7B6" d="M40.649 64.47c-1.354.742-1.154 2.529-.133 2.961.72.305 3.361-.137 4.941-.137 2.572.465 3.497.697 5.971 1.115l10.882 3.506-.066-4.256-9.906-3.53c-2.222-.465-4.436-.512-7.059-.565-1.23-.024-4.04.666-4.63.905"/><path fill="#F29B7C" fill-rule="evenodd" d="M45.02 63.988a.136.136 0 0 0-.183.058c-.06.118-.145.313-.203.522-.058.204-.098.445-.049.643.082.329.168.573.203.658a.136.136 0 0 0 .25-.102 5 5 0 0 1-.19-.622c-.031-.126-.008-.309.047-.503.053-.19.13-.368.183-.472a.136.136 0 0 0-.058-.182" clip-rule="evenodd"/><path fill="#F29B7C" d="m45.414 66.631-5.246.55-1.156 3.358 16.62.539 3.372-.7-2.523-.974-4.721-1.574z"/></g><mask id="bUQavlPNu0_g" width="24" height="9" x="41" y="67" maskUnits="userSpaceOnUse" style="mask-type:alpha"><path fill="#FFC7B6" d="M42.816 69.23c-1.336.775-1.03 1.719 0 2.127.727.288 3.357-.217 4.936-.255 2.583.403 3.513.614 5.997.973L64.71 75.32l-.167-4.253-9.913-3.028c-2.232-.411-3.89.108-6.514.118-1.23.005-4.715.819-5.3 1.072"/></mask><g mask="url(#bUQavlPNu0_g)"><path fill="#FFC7B6" d="M42.816 69.23c-1.336.775-1.03 1.719 0 2.127.727.288 3.357-.217 4.936-.255 2.583.403 3.513.614 5.997.973L64.71 75.32l-.167-4.253-9.913-3.028c-2.232-.411-3.89.108-6.514.118-1.23.005-4.715.819-5.3 1.072"/><path fill="#F29B7C" d="m47.694 70.442-5.231.674-1.076 3.385 16.628.142 3.355-.78-2.546-.913-4.758-1.461z"/></g></g><path fill="#FFC7B6" d="M35.851 27.666s3.824-4.465 4.348-.126c.524 4.343-1.535 12.305-3.244 10.621s-1.772-3.906-1.772-3.906z"/><path fill="#F29B7C" fill-rule="evenodd" d="M37.428 35.241c-.162-.267-.348-.794-.522-1.696a.457.457 0 0 0-.896.173c.178.925.387 1.584.636 1.995.125.206.286.396.502.502a.8.8 0 0 0 .714-.003c.198-.096.353-.26.472-.425.124-.17.234-.374.332-.597.197-.445.365-1.005.495-1.605.26-1.197.384-2.628.246-3.751-.069-.556-.207-1.09-.468-1.48a1.4 1.4 0 0 0-.539-.492 1.25 1.25 0 0 0-.758-.11.456.456 0 0 0 .138.903c.1-.015.164 0 .213.025.054.026.118.079.186.181.144.215.26.581.322 1.084.122.993.013 2.317-.232 3.447a7.7 7.7 0 0 1-.438 1.43 2.4 2.4 0 0 1-.235.429 1 1 0 0 1-.088.104 1 1 0 0 1-.08-.114" clip-rule="evenodd"/><path fill="#A36654" fill-rule="evenodd" d="m36.092 31.55.402.044zc-.02.276.147.52.37.544.224.024.422-.179.441-.454v.001l.001-.01.005-.044a3 3 0 0 1 .172-.687c.074-.176.165-.316.273-.404.1-.081.242-.139.458-.104.223.036.427-.158.455-.432s-.129-.526-.352-.562c-.4-.064-.737.04-1.008.26-.263.212-.436.51-.55.783a3.7 3.7 0 0 0-.254 1l-.008.075-.002.022v.012" clip-rule="evenodd"/><path fill="#A36654" fill-rule="evenodd" d="m36.345 31.2.248.394zc-.204.128-.255.413-.115.635s.419.299.622.17v.001l.006-.004.033-.018q.046-.026.131-.065c.116-.05.262-.1.41-.115a.6.6 0 0 1 .359.056c.08.045.192.144.287.4.092.245.352.383.582.307s.342-.337.25-.582c-.164-.44-.418-.753-.742-.935a1.5 1.5 0 0 0-.897-.171c-.26.027-.49.109-.65.178a3 3 0 0 0-.25.127l-.018.01-.005.003zm.507.806-.253-.402c.253.4.253.402.253.402" clip-rule="evenodd"/><path fill="#FFC7B6" d="M6.47 27.755s-3.825-4.464-4.349-.125c-.524 4.343 1.535 12.305 3.245 10.621s1.771-3.906 1.771-3.906z"/><path fill="#F29B7C" fill-rule="evenodd" d="M4.893 35.331c.162-.267.347-.794.521-1.696a.456.456 0 1 1 .897.173c-.178.925-.388 1.584-.637 1.995-.124.206-.285.396-.501.502a.8.8 0 0 1-.714-.003 1.3 1.3 0 0 1-.473-.425 3.3 3.3 0 0 1-.332-.597c-.196-.445-.365-1.005-.495-1.605-.26-1.197-.384-2.628-.245-3.752.068-.555.207-1.088.468-1.48.134-.2.31-.377.539-.49.232-.116.49-.151.758-.11a.456.456 0 1 1-.138.902.34.34 0 0 0-.214.025.5.5 0 0 0-.186.181c-.144.215-.26.581-.321 1.084-.122.993-.014 2.317.231 3.446.122.563.275 1.06.438 1.43q.124.277.236.43.054.072.088.103a1 1 0 0 0 .08-.113" clip-rule="evenodd"/><path fill="#A36654" fill-rule="evenodd" d="m6.228 31.64-.402.044zc.02.275-.146.52-.37.544s-.421-.179-.44-.454v.001l-.002-.01-.004-.044a2.9 2.9 0 0 0-.173-.687 1 1 0 0 0-.273-.404c-.1-.081-.241-.14-.457-.104-.223.035-.427-.158-.456-.432-.028-.275.13-.526.352-.562.4-.064.738.04 1.009.26.263.212.436.51.55.783a3.7 3.7 0 0 1 .253 1q.006.046.008.075l.002.022v.008l.001.002z" clip-rule="evenodd"/><path fill="#A36654" fill-rule="evenodd" d="m5.976 31.29-.248.394zc.203.129.255.413.114.636-.14.222-.418.298-.622.17h.001l-.007-.003-.032-.019a2 2 0 0 0-.132-.064c-.115-.05-.262-.1-.41-.115a.6.6 0 0 0-.358.056c-.08.045-.193.144-.288.4-.092.245-.352.382-.582.306-.23-.075-.341-.336-.25-.581.164-.44.419-.753.743-.935.313-.177.636-.2.896-.172.261.028.491.11.65.179a3 3 0 0 1 .251.127l.017.01.006.003.002.002m-.508.806.254-.403z" clip-rule="evenodd"/><path fill="#F29B7C" d="M13.445 54.537c0 3.818 3.46 6.913 7.726 6.913 4.267 0 7.726-3.095 7.726-6.913s-3.46-6.913-7.726-6.913c-4.267 0-7.726 3.095-7.726 6.913"/><path fill="#F29B7C" d="M28.897 27.294v27.65H13.445v-27.65z"/><path fill="#FFC7B6" d="M21.16 9.16c6.4 0 13.048 2.736 14.721 10.836 1.296 4.741.182 19.64-1.114 23.026-1.963 5.13-10.406 9.482-13.607 9.482v-.012.012c-3.2 0-11.643-4.352-13.606-9.482-1.296-3.386-2.41-18.285-1.114-23.026 1.673-8.1 8.32-10.836 14.72-10.836v.017z"/><path fill="#411917" d="M28.796 28.481c-.717.013-1.313-.752-1.33-1.71s.613-.558 1.33-.571 1.249-.435 1.266.523c.018.958-.55 1.745-1.266 1.758"/><path fill="#411917" fill-rule="evenodd" d="m23.783 27.333.42.173za.457.457 0 0 0 .842.353l.004-.007.028-.052c.03-.05.08-.125.16-.213a2.26 2.26 0 0 1 .869-.583c.885-.351 2.534-.51 5.458.595a.457.457 0 0 0 .323-.854c-3.044-1.15-4.945-1.055-6.118-.59a3.2 3.2 0 0 0-1.214.825 2.3 2.3 0 0 0-.325.467l-.017.037-.006.014-.002.005-.001.002" clip-rule="evenodd"/><path fill="#411917" d="M15.848 28.778c.717.013 1.313-.753 1.33-1.71.018-.958-.613-1.116-1.33-1.129s-1.248.123-1.266 1.08c-.018.959.55 1.746 1.266 1.759"/><path fill="#411917" fill-rule="evenodd" d="m18.538 27.333-.42.173za.457.457 0 0 1-.842.353l-.004-.007-.028-.052c-.03-.05-.08-.125-.16-.213a2.26 2.26 0 0 0-.869-.583c-.885-.351-2.534-.51-5.458.595a.457.457 0 0 1-.323-.854c3.044-1.15 4.945-1.055 6.118-.59.586.234.972.552 1.214.825a2.3 2.3 0 0 1 .325.467l.017.037.006.014.002.005.001.002" clip-rule="evenodd"/><path fill="#422A24" d="M32.168 23.954s-2.753-1.146-4.844-.763c-1.447.265-3.236 1.475-3.236 1.475s-.525.096 0-1.301 3.87-1.456 3.87-1.456 1.982 0 3.749.926c.735.388.926 1.146.926 1.146s-.032.31-.465-.032zM10.153 23.954s2.753-1.146 4.843-.763c1.448.265 3.237 1.475 3.237 1.475s.525.096 0-1.301-3.871-1.456-3.871-1.456-1.981 0-3.748.926c-.735.388-.927 1.146-.927 1.146s.032.31.466-.032z"/><path fill="#F29B7C" d="M18.61 37.878c0 .352 1.142.637 2.55.637 1.409 0 2.55-.285 2.55-.637s-1.141-.638-2.55-.638-2.55.286-2.55.638"/><path fill="#411917" fill-rule="evenodd" d="M21.22 30.4a.46.46 0 0 0-.458.46v6.38a.459.459 0 0 0 .918 0v-6.38a.46.46 0 0 0-.46-.46" clip-rule="evenodd"/><mask id="bUQavlPNu0_h" width="11" height="5" x="16" y="41" maskUnits="userSpaceOnUse" style="mask-type:alpha"><path fill="#F8F8F8" d="M26.16 41.006c-3.716.232-6.467.403-9.88.181-.206 3.413 3.376 4.265 5.162 4.05 1.511.033 4.57-.766 4.717-4.23"/></mask><g mask="url(#bUQavlPNu0_h)"><path fill="#411917" d="M26.159 41.006c-3.715.232-6.467.403-9.88.181-.205 3.413 3.376 4.265 5.162 4.05 1.512.033 4.572-.766 4.718-4.23"/><path fill="#EA4F4A" d="M24.547 45.13c0 .743-1.577 1.345-3.522 1.345s-3.522-.602-3.522-1.345c0-.744 1.577-1.346 3.522-1.346s3.522.602 3.522 1.346"/><path fill="#F8F8F8" d="M26.443 42.032c-4.111 1.036-8.895.432-10.773 0l-.343-1.789h11.345c.215-.076.472.175-.229 1.79"/></g><path fill="#422A24" d="M35.218 23.524q-.007.09-.008.188v5.81s.778.21 1.078-.392c.102-.203.08-.587.059-.973-.023-.405-.046-.812.074-1.018 1.187-1.406 2.453-1.481 2.453-1.481.785-7.148-1.76-20.253-17.713-20.322h-.125C5.083 5.404 2.528 18.586 3.313 25.733c0 0 1.275 0 2.463 1.406.119.206.096.613.073 1.018-.021.386-.043.77.059.973.3.603 1.078.391 1.078.391v-5.81q-.001-.096-.008-.187c-.02-.321-.036-.582.554-.68.347-.057.632-.327.664-.678.106-1.133.496-2.056 1.088-2.807q.158-.12.322-.248c1.618-1.257 3.779-2.936 11.492-3.025 7.713.09 9.874 1.768 11.493 3.025q.163.128.321.248c.592.75.982 1.674 1.088 2.807.032.351.317.62.664.678.59.098.574.359.554.68"/></g><defs><clipPath id="bUQavlPNu0_a"><path fill="#fff" d="M0 0h80v80H0z"/></clipPath><clipPath id="bUQavlPNu0_b"><rect width="66.67" height="66.67" x="6.665" y="6.665" fill="#fff" rx="33.335"/></clipPath></defs></svg>