<svg xmlns="http://www.w3.org/2000/svg" width="150" height="150" fill="none" class="persona-ilustration" viewBox="0 0 150 150"><g clip-path="url(#3xcFSb53bj_a)"><g clip-path="url(#3xcFSb53bj_b)"><rect width="125.006" height="125.006" x="12.497" y="12.497" fill="#D3EDFF" rx="62.503"/><path fill="#F8F8F8" d="M85.157 78.933c0 1.19 1.368 2.156 3.056 2.156s3.056-.965 3.056-2.156-1.368-2.157-3.056-2.157-3.056.966-3.056 2.157M93.95 76.423c0 1.688 2.762 3.056 6.17 3.056s6.172-1.368 6.172-3.056-2.763-3.056-6.172-3.056-6.17 1.368-6.17 3.056M91.328 67.147c6.143 4.117 14.005 5.571 21.652 3.312a26 26 0 0 0 1.945-.659 9.6 9.6 0 0 0 6.413.338 9.63 9.63 0 0 0 6.639-11.48l.141-.247c6.403-2.59 9.914-9.672 7.916-16.434a13.53 13.53 0 0 0-6.02-7.787 9.7 9.7 0 0 0-.391-2.368 9.64 9.64 0 0 0-8.779-6.895c-6.253-4.546-14.475-6.238-22.463-3.879a25.7 25.7 0 0 0-7.266 3.45 9.6 9.6 0 0 0-3.966.317c-4.848 1.432-7.72 6.342-6.7 11.204-4.497 1.86-6.954 6.855-5.544 11.626a9.61 9.61 0 0 0 5.257 6.043 9.6 9.6 0 0 0-.545 6.879c1.482 5.016 6.687 7.917 11.71 6.58"/><path fill="#FFC509" d="M111.666 52.826c-1.155 1.107-1.818 2.115-1.818 3.685v.172c0 .642-.517 1.162-1.154 1.162h-7.686c-.638 0-1.155-.52-1.155-1.162v-.172c0-1.583-.655-2.563-1.847-3.714a9.88 9.88 0 0 1-3.035-7.162c0-2.729 1.046-5.193 2.944-7.074a9.78 9.78 0 0 1 6.934-2.86h.142a9.8 9.8 0 0 1 6.784 2.867 9.9 9.9 0 0 1 2.951 6.778 10 10 0 0 1-3.06 7.48m-8.494-13.857c-2.79 0-5.06 2.27-5.06 5.062a.827.827 0 1 0 1.655 0 3.41 3.41 0 0 1 3.405-3.407.827.827 0 1 0 0-1.655"/><path fill="#CC6E08" d="M100.697 60.206c0-.641.517-1.16 1.155-1.16h5.995c.637 0 1.154.518 1.154 1.16s-.517 1.162-1.154 1.162h-5.995c-.638 0-1.155-.52-1.155-1.162M104.85 64.384c-1.284 0-2.418-.761-3.08-1.913h6.162c-.662 1.152-1.795 1.913-3.082 1.913"/><path fill="#FFC509" d="M104.851 34.036c.609 0 1.103-.494 1.103-1.103v-3.485a1.103 1.103 0 0 0-2.206 0v3.484c0 .61.494 1.104 1.103 1.104M95.837 37.77a1.104 1.104 0 0 0 .78-1.883l-2.463-2.465a1.103 1.103 0 0 0-1.56 1.56l2.463 2.464c.215.216.497.324.78.324M88.618 46.784h3.485a1.103 1.103 0 0 0 0-2.206h-3.485a1.103 1.103 0 0 0 0 2.206M113.866 37.77c.283 0 .565-.107.781-.323l2.464-2.464a1.103 1.103 0 0 0-1.56-1.56l-2.464 2.464a1.103 1.103 0 0 0 .779 1.883M95.837 53.594a1.104 1.104 0 0 1 .78 1.883l-2.463 2.465a1.103 1.103 0 0 1-1.56-1.56l2.463-2.465c.215-.215.497-.323.78-.323M113.866 53.594c.283 0 .565.108.781.323l2.464 2.465a1.103 1.103 0 0 1-1.56 1.56l-2.464-2.465a1.103 1.103 0 0 1 .779-1.883M117.602 46.784h3.484a1.103 1.103 0 1 0 0-2.206h-3.484a1.103 1.103 0 0 0 0 2.206"/><mask id="3xcFSb53bj_c" width="156" height="50" x="-39" y="101" maskUnits="userSpaceOnUse" style="mask-type:alpha"><path fill="#5BA57C" d="M38.934 101.496c19.044 0 41.81 2.376 46.826 3.554 5.017 1.178 11.205 3.817 15.888 10.603s11.985 25.919 15.051 34.637H-38.832c3.066-8.718 10.368-27.851 15.051-34.637s10.87-9.425 15.888-10.603c5.017-1.178 27.782-3.554 46.826-3.554"/></mask><g mask="url(#3xcFSb53bj_c)"><path fill="#8FC7B8" d="M38.934 101.497c19.045 0 41.81 2.376 46.827 3.554s11.205 3.817 15.887 10.603 11.986 25.919 15.052 34.637H-38.832c3.066-8.718 10.369-27.851 15.052-34.637s10.87-9.425 15.887-10.603 27.782-3.554 46.827-3.554"/><path fill="#498F79" d="M66.381 105.309c0 13.053-11.947 23.635-26.684 23.635s-26.685-10.582-26.685-23.635S24.96 81.675 39.697 81.675 66.38 92.256 66.38 105.309"/><path fill="#3D7360" fill-rule="evenodd" d="M39.78 83.58c-12.433 0-22.442 9.081-22.442 20.204 0 11.122 10.01 20.203 22.441 20.203 12.432 0 22.442-9.081 22.442-20.203S52.21 83.58 39.78 83.58m-23.204 20.204c0-11.616 10.426-20.967 23.204-20.967 12.777 0 23.203 9.351 23.203 20.967S52.557 124.75 39.78 124.75c-12.778 0-23.204-9.351-23.204-20.966" clip-rule="evenodd"/><path fill="#F29B7C" d="M20.338 103.785c0 9.684 8.705 17.535 19.442 17.535s19.441-7.851 19.441-17.535S50.517 86.25 39.78 86.25s-19.442 7.85-19.442 17.535"/></g><rect width="36.823" height="64.614" x="77.851" y="83.332" fill="#442EA4" rx="5.671"/><rect width="12.258" height="5.627" x="81.978" y="87.738" fill="#310A81" rx="2.814"/><path fill="#FFC7B6" d="m138.072 127.924-20.723-13.263-7.46 2.902-7.046 20.722 35.229 9.118z"/><mask id="3xcFSb53bj_d" width="41" height="24" x="81" y="96" maskUnits="userSpaceOnUse" style="mask-type:alpha"><path fill="#FFC7B6" d="m102.283 104.176 14.529 9.544 4.633 3.149-9.267 2.68-12.706-7.101-15.238-10.605c-1.365-.897-2.736-2.203-2.531-3.989.372-3.248 4.907-1.182 6.06-.844z"/></mask><g mask="url(#3xcFSb53bj_d)"><path fill="#FFC7B6" d="m102.283 104.174 14.529 9.544 4.633 3.15-9.267 2.68-12.706-7.101-15.238-10.606c-1.365-.896-2.736-2.202-2.531-3.988.372-3.248 4.907-1.183 6.06-.844z"/><path fill="#F29B7C" d="m87.028 103.254-2.28-1.156 5.596 6.543 19.549 12.613 6.385-.552-14.631-8.811-5.216-2.839z"/></g><mask id="3xcFSb53bj_e" width="43" height="17" x="73" y="110" maskUnits="userSpaceOnUse" style="mask-type:alpha"><path fill="#FFC7B6" d="M74.797 112.416c-2.537 1.394-2.163 4.743-.25 5.554 1.352.573 6.304-.257 9.266-.257 4.822.871 6.556 1.307 11.196 2.092l20.402 6.573-.124-7.98-18.573-6.621c-4.166-.871-8.317-.959-13.235-1.057-2.305-.046-7.574 1.248-8.682 1.696"/></mask><g mask="url(#3xcFSb53bj_e)"><path fill="#FFC7B6" d="M74.797 112.416c-2.537 1.394-2.163 4.743-.25 5.554 1.352.573 6.304-.257 9.266-.257 4.822.871 6.556 1.307 11.196 2.092l20.402 6.573-.124-7.98-18.573-6.621c-4.166-.871-8.317-.959-13.235-1.057-2.305-.046-7.574 1.248-8.682 1.696"/><path fill="#F29B7C" d="m83.731 116.472-9.836 1.03-2.169 6.297 31.162 1.01 6.324-1.311-4.731-1.827-8.853-2.951z"/><path fill="#F29B7C" fill-rule="evenodd" d="M83.188 111.268a.313.313 0 0 0-.407.175c-.113.284-.264.75-.354 1.244-.087.482-.128 1.045.03 1.489.26.738.51 1.281.609 1.469a.312.312 0 1 0 .555-.289 12 12 0 0 1-.575-1.389c-.1-.283-.086-.709-.003-1.168.081-.447.22-.873.32-1.124a.314.314 0 0 0-.175-.407" clip-rule="evenodd"/></g><mask id="3xcFSb53bj_f" width="43" height="16" x="74" y="119" maskUnits="userSpaceOnUse" style="mask-type:alpha"><path fill="#FFC7B6" d="M76.215 120.879c-2.537 1.393-2.163 4.742-.25 5.553 1.352.573 6.304-.257 9.266-.257 4.822.871 6.556 1.307 11.196 2.092l20.402 6.573-.124-7.98-18.573-6.62c-4.166-.871-8.317-.96-13.235-1.058-2.305-.046-7.574 1.248-8.682 1.697"/></mask><g mask="url(#3xcFSb53bj_f)"><path fill="#FFC7B6" d="M76.215 120.879c-2.538 1.394-2.163 4.743-.25 5.554 1.351.573 6.303-.257 9.266-.257 4.822.871 6.556 1.307 11.196 2.092l20.402 6.573-.124-7.98-18.573-6.621c-4.167-.871-8.318-.959-13.236-1.057-2.305-.046-7.573 1.248-8.681 1.696"/><path fill="#F29B7C" fill-rule="evenodd" d="M84.41 119.977a.254.254 0 0 0-.342.11 5.6 5.6 0 0 0-.382.978c-.108.383-.183.834-.09 1.205.153.617.314 1.075.38 1.235a.255.255 0 0 0 .47-.192 10 10 0 0 1-.358-1.166c-.059-.236-.015-.58.087-.944.1-.355.245-.689.345-.884a.254.254 0 0 0-.11-.342" clip-rule="evenodd"/><path fill="#F29B7C" d="m85.15 124.933-9.837 1.031-2.169 6.296 31.163 1.01 6.323-1.311-4.731-1.827-8.852-2.951z"/></g><mask id="3xcFSb53bj_g" width="44" height="15" x="78" y="127" maskUnits="userSpaceOnUse" style="mask-type:alpha"><path fill="#FFC7B6" d="M80.28 129.805c-2.504 1.454-1.933 3.224 0 3.989 1.364.54 6.295-.407 9.256-.478 4.842.756 6.586 1.151 11.243 1.824l20.553 6.086-.314-7.976-18.586-5.676c-4.186-.772-7.296.201-12.214.22-2.305.009-8.841 1.536-9.938 2.011"/></mask><g mask="url(#3xcFSb53bj_g)"><path fill="#FFC7B6" d="M80.28 129.805c-2.504 1.454-1.933 3.224 0 3.989 1.364.54 6.295-.407 9.256-.478 4.842.756 6.586 1.151 11.243 1.824l20.553 6.086-.314-7.976-18.586-5.676c-4.186-.772-7.296.201-12.214.22-2.305.009-8.841 1.536-9.938 2.011"/><path fill="#F29B7C" d="m89.427 132.078-9.809 1.265-2.018 6.346 31.178.267 6.29-1.462-4.773-1.713-8.921-2.739z"/></g></g><path fill="#FFC7B6" d="M67.223 51.873s7.169-8.371 8.152-.236c.983 8.144-2.878 23.072-6.084 19.916-3.206-3.157-3.321-7.325-3.321-7.325z"/><path fill="#F29B7C" fill-rule="evenodd" d="M70.178 66.077c-.303-.501-.651-1.489-.977-3.18a.856.856 0 1 0-1.681.325c.334 1.733.727 2.97 1.193 3.74.234.387.536.742.94.94.453.222.927.197 1.34-.004.37-.181.661-.488.886-.797a6 6 0 0 0 .622-1.12c.369-.834.684-1.883.928-3.01.487-2.243.72-4.926.46-7.033-.128-1.042-.388-2.042-.878-2.774-.251-.377-.581-.71-1.01-.922a2.35 2.35 0 0 0-1.422-.205.856.856 0 1 0 .26 1.692.64.64 0 0 1 .4.046c.1.05.22.148.35.34.269.404.485 1.09.601 2.032.23 1.862.026 4.344-.433 6.462-.23 1.055-.515 1.986-.822 2.68a4.5 4.5 0 0 1-.441.806 1.5 1.5 0 0 1-.165.195 1.5 1.5 0 0 1-.15-.213" clip-rule="evenodd"/><path fill="#A36654" fill-rule="evenodd" d="m67.675 59.156.754.084zc-.036.517.275.974.695 1.02s.789-.335.826-.851v.002l.001-.018.01-.084c.008-.077.024-.19.049-.328.05-.28.136-.63.273-.96.138-.33.309-.592.513-.757.188-.152.452-.26.857-.195.418.067.8-.296.854-.81.054-.515-.241-.986-.66-1.054-.749-.12-1.383.077-1.89.487-.493.399-.819.956-1.032 1.469a7 7 0 0 0-.405 1.406 8 8 0 0 0-.085.609l-.004.043-.001.013v.008" clip-rule="evenodd"/><path fill="#A36654" fill-rule="evenodd" d="m68.147 58.5.465.739zc-.381.24-.478.775-.215 1.192.264.416.786.56 1.168.319l-.002.001.012-.007.061-.035c.057-.03.142-.074.247-.12a2.7 2.7 0 0 1 .77-.216c.278-.03.501.009.671.104.15.085.36.27.54.75.171.46.66.718 1.09.575.43-.142.64-.63.469-1.09-.308-.824-.785-1.411-1.392-1.753-.588-.332-1.193-.374-1.681-.322a4.2 4.2 0 0 0-1.219.335 5 5 0 0 0-.47.238l-.032.019-.01.006-.004.003zm.953 1.512-.476-.755z" clip-rule="evenodd"/><path fill="#FFC7B6" d="M12.13 52.041s-7.17-8.37-8.153-.235c-.983 8.144 2.878 23.072 6.084 19.915s3.321-7.324 3.321-7.324z"/><path fill="#F29B7C" fill-rule="evenodd" d="M9.175 66.246c.303-.501.65-1.489.977-3.18a.856.856 0 0 1 1.68.324c-.333 1.734-.726 2.97-1.192 3.741-.234.386-.536.742-.94.94a1.49 1.49 0 0 1-1.34-.004c-.37-.182-.661-.488-.886-.797a6 6 0 0 1-.622-1.12c-.369-.834-.684-1.884-.929-3.01-.486-2.243-.72-4.927-.46-7.034.129-1.041.389-2.041.878-2.774.252-.376.582-.709 1.01-.922.436-.217.92-.282 1.422-.205a.856.856 0 1 1-.259 1.692.64.64 0 0 0-.4.046c-.1.05-.221.148-.35.34-.269.404-.485 1.09-.602 2.033-.229 1.861-.025 4.343.434 6.461.23 1.056.514 1.986.822 2.681.153.348.304.616.441.805.067.093.123.155.165.195.038-.044.09-.111.15-.212" clip-rule="evenodd"/><path fill="#A36654" fill-rule="evenodd" d="m11.678 59.325-.754.083zc.036.517-.275.974-.695 1.02s-.79-.334-.826-.85v.002l-.002-.019-.008-.083a5.3 5.3 0 0 0-.323-1.288c-.138-.33-.309-.593-.513-.758-.188-.151-.452-.26-.857-.195-.418.067-.8-.295-.854-.81-.054-.514.241-.986.66-1.053.749-.12 1.382.076 1.89.487.493.398.818.956 1.032 1.468.215.515.336 1.03.405 1.406a8 8 0 0 1 .085.61l.004.042.001.014v.007" clip-rule="evenodd"/><path fill="#A36654" fill-rule="evenodd" d="m11.206 58.67-.465.737zc.381.241.478.775.215 1.192-.264.417-.786.56-1.167.32h.002l-.013-.007-.061-.035a3 3 0 0 0-.247-.12 2.7 2.7 0 0 0-.77-.216c-.278-.03-.501.009-.671.105-.15.084-.36.27-.54.749-.171.46-.66.718-1.09.576s-.64-.63-.469-1.09c.308-.824.785-1.412 1.392-1.754.588-.331 1.193-.373 1.681-.321.49.052.921.205 1.219.334a5 5 0 0 1 .47.238l.033.02.01.006.004.002zm-.952 1.51.475-.755z" clip-rule="evenodd"/><path fill="#F29B7C" d="M25.21 102.257c0 7.158 6.485 12.961 14.486 12.961 8 0 14.486-5.803 14.486-12.961s-6.486-12.961-14.486-12.961-14.486 5.803-14.486 12.961"/><path fill="#F29B7C" d="M54.182 51.175v51.844H25.21V51.175z"/><path fill="#FFC7B6" d="M39.677 17.175c12.001 0 24.464 5.13 27.602 20.318 2.43 8.889.341 36.824-2.089 43.174-3.68 9.618-19.512 17.778-25.513 17.777v-.02.02c-6 0-21.832-8.159-25.513-17.777-2.43-6.35-4.518-34.285-2.088-43.174 3.138-15.188 15.6-20.317 27.601-20.318v.032z"/><path fill="#411917" d="M53.991 53.402c-1.344.025-2.46-1.41-2.494-3.207-.033-1.796 1.15-1.046 2.494-1.07s2.342-.815 2.374.98c.034 1.797-1.03 3.273-2.374 3.297"/><path fill="#411917" fill-rule="evenodd" d="M44.594 51.249s-.001.002.786.324za.856.856 0 0 0 1.579.662l.006-.013q.014-.028.054-.098c.055-.092.15-.233.298-.399.293-.329.8-.762 1.63-1.092 1.66-.66 4.753-.957 10.235 1.115a.856.856 0 1 0 .606-1.6c-5.708-2.158-9.272-1.98-11.472-1.106-1.099.436-1.822 1.034-2.277 1.544a4.4 4.4 0 0 0-.488.659 3 3 0 0 0-.153.288l-.011.024-.004.01-.002.004z" clip-rule="evenodd"/><path fill="#411917" d="M29.717 53.959c1.344.024 2.46-1.412 2.494-3.207.033-1.796-1.15-2.091-2.494-2.116s-2.341.23-2.374 2.026c-.034 1.796 1.03 3.272 2.374 3.297"/><path fill="#411917" fill-rule="evenodd" d="M34.759 51.249s0 .002-.787.324za.856.856 0 0 1-1.578.662l-.006-.013a2.67 2.67 0 0 0-.352-.497c-.293-.329-.8-.762-1.63-1.092-1.66-.66-4.753-.957-10.235 1.115a.856.856 0 0 1-.606-1.6c5.708-2.158 9.272-1.98 11.472-1.106 1.099.436 1.822 1.033 2.277 1.544.226.254.384.484.489.659a3 3 0 0 1 .152.288l.011.024.004.01.002.004z" clip-rule="evenodd"/><path fill="#422A24" d="M60.315 44.913s-5.161-2.148-9.081-1.43c-2.714.497-6.069 2.766-6.069 2.766s-.984.18 0-2.44 7.258-2.73 7.258-2.73 3.715 0 7.027 1.737c1.378.728 1.738 2.149 1.738 2.149s-.06.582-.873-.06zM19.037 44.913s5.161-2.148 9.081-1.43c2.714.497 6.069 2.766 6.069 2.766s.984.18 0-2.44-7.258-2.73-7.258-2.73-3.715 0-7.027 1.737c-1.379.728-1.738 2.149-1.738 2.149s.06.582.873-.06z"/><path fill="#F29B7C" d="M34.896 71.02c0 .66 2.14 1.196 4.78 1.196s4.781-.535 4.781-1.195-2.14-1.196-4.78-1.196-4.781.535-4.781 1.195"/><path fill="#411917" fill-rule="evenodd" d="M39.789 57.002a.86.86 0 0 0-.86.86v11.964a.86.86 0 0 0 1.72 0V57.862a.86.86 0 0 0-.86-.86" clip-rule="evenodd"/><mask id="3xcFSb53bj_h" width="20" height="9" x="30" y="76" maskUnits="userSpaceOnUse" style="mask-type:alpha"><path fill="#F8F8F8" d="M49.05 76.887c-6.966.434-12.125.755-18.525.34-.385 6.397 6.33 7.996 9.68 7.591 2.834.063 8.57-1.435 8.845-7.931"/></mask><g mask="url(#3xcFSb53bj_h)"><path fill="#411917" d="M49.048 76.887c-6.966.434-12.125.755-18.525.34-.385 6.397 6.33 7.996 9.68 7.591 2.834.063 8.57-1.435 8.845-7.931"/><path fill="#EA4F4A" d="M46.026 84.618c0 1.394-2.956 2.523-6.604 2.523-3.647 0-6.604-1.13-6.604-2.523s2.957-2.524 6.604-2.524 6.604 1.13 6.604 2.524"/><path fill="#F8F8F8" d="M49.581 78.81c-7.709 1.942-16.678.81-20.2 0l-.642-3.355h21.27c.405-.142.886.329-.428 3.355"/></g><path fill="#422A24" d="M66.032 44.107q-.012.172-.014.352v10.893s1.458.397 2.022-.733c.19-.382.15-1.1.11-1.824-.043-.76-.086-1.524.138-1.909 2.226-2.637 4.6-2.778 4.6-2.778 1.473-13.4-3.302-37.974-33.213-38.103h-.234C9.53 10.133 4.739 34.848 6.21 48.249c0 0 2.391 0 4.617 2.637.224.385.18 1.15.138 1.909-.04.723-.08 1.442.11 1.824.563 1.13 2.022.733 2.022.733V44.46q-.002-.18-.014-.352c-.038-.602-.069-1.091 1.038-1.274.65-.108 1.184-.614 1.245-1.27.198-2.127.93-3.857 2.04-5.265q.297-.226.602-.465c3.035-2.357 7.087-5.504 21.549-5.672 14.462.168 18.514 3.315 21.548 5.672q.307.239.603.465c1.11 1.408 1.842 3.138 2.04 5.264.061.657.594 1.163 1.245 1.271 1.107.183 1.076.672 1.038 1.274"/></g><defs><clipPath id="3xcFSb53bj_a"><path fill="#fff" d="M0 0h150v150H0z"/></clipPath><clipPath id="3xcFSb53bj_b"><rect width="125.006" height="125.006" x="12.497" y="12.497" fill="#fff" rx="62.503"/></clipPath></defs></svg>