<svg xmlns="http://www.w3.org/2000/svg" width="16" height="16" fill="none" class="persona-icon" viewBox="0 0 16 16"><path fill="currentColor" fill-rule="evenodd" d="M2 5.033A2.333 2.333 0 0 1 4.333 2.7h7.334A2.333 2.333 0 0 1 14 5.033v4.334a2.333 2.333 0 0 1-2.333 2.333H8.5v.667h2.167a.5.5 0 0 1 0 1H5.333a.5.5 0 1 1 0-1H7.5V11.7H4.333A2.333 2.333 0 0 1 2 9.367zM4.333 3.7C3.597 3.7 3 4.297 3 5.033v4.334c0 .736.597 1.333 1.333 1.333h7.334c.736 0 1.333-.597 1.333-1.333V5.033c0-.736-.597-1.333-1.333-1.333z" clip-rule="evenodd"/></svg>