<svg xmlns="http://www.w3.org/2000/svg" width="20" height="20" fill="none" class="persona-icon" viewBox="0 0 20 20"><path fill="currentColor" fill-rule="evenodd" d="M2.975 6.533a2.76 2.76 0 0 1 2.758-2.758h8.534a2.76 2.76 0 0 1 2.758 2.758v5.003a2.76 2.76 0 0 1-2.758 2.758h-3.642v.681h2.478a.625.625 0 1 1 0 1.25H6.897a.625.625 0 1 1 0-1.25h2.478v-.681H5.733a2.76 2.76 0 0 1-2.758-2.758zm2.758-1.508c-.833 0-1.508.675-1.508 1.508v5.003c0 .833.675 1.508 1.508 1.508h8.534c.833 0 1.508-.675 1.508-1.508V6.533c0-.833-.675-1.508-1.508-1.508z" clip-rule="evenodd"/></svg>