<svg xmlns="http://www.w3.org/2000/svg" width="24" height="24" fill="none"><path fill="currentColor" d="M2 5.846A3.846 3.846 0 0 1 5.846 2h12.308A3.846 3.846 0 0 1 22 5.846v8.205a3.846 3.846 0 0 1-3.846 3.846H5.846A3.846 3.846 0 0 1 2 14.051V5.846Zm3.846-2.308a2.308 2.308 0 0 0-2.308 2.308v8.205a2.308 2.308 0 0 0 2.308 2.308h12.308a2.308 2.308 0 0 0 2.308-2.308V5.846a2.308 2.308 0 0 0-2.308-2.308H5.846Z"/><path fill="currentColor" d="M2 14.051a.77.77 0 0 1 .77-.769h18.46a.77.77 0 1 1 0 1.538H2.77a.77.77 0 0 1-.77-.769ZM9.18 16.359h5.64V22H9.18v-5.641Zm1.538 1.538v2.565h2.564v-2.565h-2.564Z"/><path fill="currentColor" d="M5.077 21.23a.77.77 0 0 1 .77-.768h12.307a.77.77 0 1 1 0 1.538H5.846a.77.77 0 0 1-.77-.77Z"/></svg>