<svg xmlns="http://www.w3.org/2000/svg" width="32" height="32" fill="none" class="persona-icon" viewBox="0 0 32 32"><path fill="currentColor" fill-rule="evenodd" d="M3.002 8.002a5 5 0 0 1 5-5h16a5 5 0 0 1 5 5V18.67a5 5 0 0 1-5 5h-16a5 5 0 0 1-5-5V8.002Zm5-3a3 3 0 0 0-3 3V18.67a3 3 0 0 0 3 3h16a3 3 0 0 0 3-3V8.002a3 3 0 0 0-3-3h-16Z" clip-rule="evenodd"/><path fill="currentColor" fill-rule="evenodd" d="M3.002 18.669a1 1 0 0 1 1-1h24a1 1 0 1 1 0 2h-24a1 1 0 0 1-1-1ZM12.335 21.669h7.334v7.333h-7.334V21.67Zm2 2v3.333h3.334V23.67h-3.334Z" clip-rule="evenodd"/><path fill="currentColor" fill-rule="evenodd" d="M7.002 28.002a1 1 0 0 1 1-1h16a1 1 0 1 1 0 2h-16a1 1 0 0 1-1-1Z" clip-rule="evenodd"/></svg>