<svg xmlns="http://www.w3.org/2000/svg" width="16" height="16" fill="none" class="persona-icon" viewBox="0 0 16 16"><path fill="currentColor" fill-rule="evenodd" d="M4.945 2.43c-1.28 0-2.334 1.02-2.334 2.299v4.05l-.556 1.087a.5.5 0 0 0 .445.728h1.944v.643a2.333 2.333 0 0 0 2.334 2.333H13.5a.5.5 0 0 0 .445-.727l-.556-1.088V7.75c0-1.117-.785-2.051-1.833-2.28v-.741c0-1.279-1.054-2.3-2.334-2.3zm-.5 5.295v1.869H3.317l.238-.466a.5.5 0 0 0 .055-.228V4.729c0-.709.588-1.3 1.333-1.3h4.278c.745 0 1.334.591 1.334 1.3v.686H6.778c-1.28 0-2.333 1.02-2.333 2.299zm3.84.575a.5.5 0 1 1-1 0c0-.498.291-.843.633-1.04.327-.187.725-.26 1.089-.26.363 0 .762.073 1.089.26.341.197.633.542.633 1.04 0 .53-.238.94-.591 1.201-.192.142-.41.236-.631.29V9.9a.5.5 0 0 1-1 0v-.548a.5.5 0 0 1 .5-.5.92.92 0 0 0 .536-.154c.109-.08.186-.197.186-.397 0-.05-.014-.105-.13-.172C9.467 8.053 9.255 8 9.006 8s-.46.053-.592.128c-.116.067-.13.121-.13.172m1.314 3.12a.6.6 0 1 1-1.202-.001.6.6 0 0 1 1.202.002" clip-rule="evenodd"/></svg>