<svg xmlns="http://www.w3.org/2000/svg" width="16" height="16" fill="none" class="persona-icon" viewBox="0 0 16 16"><path fill="currentColor" fill-rule="evenodd" d="M4.945 2.43h4.277c1.28 0 2.334 1.02 2.334 2.299v.741a2.334 2.334 0 0 1 1.833 2.28v4.005l.556 1.088a.5.5 0 0 1-.445.727H6.778a2.333 2.333 0 0 1-2.334-2.333v-.643H2.5a.5.5 0 0 1-.445-.728L2.61 8.78V4.73c0-1.279 1.054-2.3 2.333-2.3m-.5 5.295v-.011c0-1.279 1.053-2.3 2.333-2.3h3.778V4.73c0-.709-.588-1.3-1.334-1.3H4.945c-.746 0-1.334.591-1.334 1.3v4.17a.5.5 0 0 1-.055.229l-.238.466h1.126v-1.87m3.84.575c0-.05.014-.105.13-.172.132-.075.344-.128.592-.128s.46.053.591.128c.117.067.131.121.131.172 0 .2-.077.316-.186.397a.92.92 0 0 1-.536.154.5.5 0 0 0-.5.5v.548a.5.5 0 0 0 1 0v-.108c.221-.054.439-.148.63-.29A1.45 1.45 0 0 0 10.73 8.3c0-.498-.291-.844-.633-1.04C9.769 7.074 9.37 7 9.006 7c-.363 0-.761.073-1.088.26-.342.197-.633.542-.633 1.04a.5.5 0 1 0 1 0m1.314 3.12a.6.6 0 1 0-1.202.002.6.6 0 0 0 1.202-.002" clip-rule="evenodd"/></svg>