<svg xmlns="http://www.w3.org/2000/svg" width="20" height="20" fill="none" class="persona-icon" viewBox="0 0 20 20"><path fill="currentColor" fill-rule="evenodd" d="M6.445 3.475c-1.513 0-2.759 1.206-2.759 2.719v4.703l-.642 1.255a.625.625 0 0 0 .556.91h2.22v.705a2.76 2.76 0 0 0 2.758 2.758H16.4a.625.625 0 0 0 .556-.91l-.642-1.256v-4.65a2.76 2.76 0 0 0-2.133-2.687v-.828c0-1.513-1.246-2.719-2.759-2.719zM5.82 9.674v2.138H4.621l.246-.48a.6.6 0 0 0 .068-.285V6.194c0-.8.664-1.469 1.508-1.469h4.978c.845 0 1.509.669 1.509 1.469v.755H8.578c-1.512 0-2.758 1.206-2.758 2.718zm4.554.675a.625.625 0 0 1-1.25 0c0-.599.352-1.013.759-1.247.389-.223.86-.309 1.289-.309s.9.086 1.288.31c.407.233.759.647.759 1.246 0 .631-.284 1.12-.706 1.433-.219.161-.465.27-.716.336v.092a.625.625 0 1 1-1.25 0v-.638c0-.345.28-.625.624-.625.244 0 .46-.068.598-.17.117-.086.2-.209.2-.428 0-.04-.005-.09-.13-.162-.145-.083-.384-.144-.668-.144-.283 0-.522.06-.666.144-.127.072-.13.123-.13.162m.786 4.33a.699.699 0 1 1-.002-1.399.699.699 0 0 1 .002 1.398" clip-rule="evenodd"/></svg>