<svg xmlns="http://www.w3.org/2000/svg" width="24" height="24" fill="none" class="persona-icon" viewBox="0 0 24 24"><path fill="currentColor" fill-rule="evenodd" d="M7.417 3.5a3.5 3.5 0 0 0-3.5 3.5v6.198l-.837 1.666a.75.75 0 0 0 .67 1.087h2.917V17a3.5 3.5 0 0 0 3.5 3.5H20.25a.75.75 0 0 0 .67-1.086l-.837-1.668v-6.18a3.5 3.5 0 0 0-2.75-3.42V7a3.5 3.5 0 0 0-3.5-3.5zm-2 3.5a2 2 0 0 1 2-2h6.416a2 2 0 0 1 2 2v1.063h-5.666a3.5 3.5 0 0 0-3.5 3.5v2.888H4.966l.37-.739a.75.75 0 0 0 .08-.336zm7.01 5.458a.75.75 0 0 1-1.5 0c0-.747.43-1.272.944-1.573.492-.287 1.092-.4 1.64-.4.546 0 1.147.113 1.638.4.515.301.944.826.944 1.573 0 .8-.351 1.42-.882 1.821a2.6 2.6 0 0 1-.95.445v.178a.75.75 0 0 1-1.5 0v-.837a.75.75 0 0 1 .75-.75c.318 0 .607-.09.797-.233.164-.124.285-.307.285-.624 0-.09-.028-.177-.2-.278-.197-.114-.514-.194-.883-.194-.37 0-.686.08-.882.194-.173.101-.201.188-.201.278m1.083 5.687a.917.917 0 1 1 0-1.833.917.917 0 0 1 0 1.833" clip-rule="evenodd"/></svg>