<svg xmlns="http://www.w3.org/2000/svg" width="24" height="24" fill="none" class="persona-icon" viewBox="0 0 24 24"><path fill="currentColor" fill-rule="evenodd" d="M7.417 3.5h6.416a3.5 3.5 0 0 1 3.5 3.5v1.146a3.5 3.5 0 0 1 2.75 3.42v6.18l.837 1.668a.75.75 0 0 1-.67 1.086H10.167a3.5 3.5 0 0 1-3.5-3.5v-1.05H3.75a.75.75 0 0 1-.67-1.086l.837-1.666V7a3.5 3.5 0 0 1 3.5-3.5m-2 3.5v6.376a.75.75 0 0 1-.08.336l-.371.739h1.7v-2.888a3.5 3.5 0 0 1 3.5-3.5h5.667V7a2 2 0 0 0-2-2H7.417a2 2 0 0 0-2 2m7.01 5.458c0-.09.028-.177.201-.278.196-.114.513-.194.882-.194.37 0 .686.08.882.194.173.101.201.188.201.278 0 .317-.12.5-.285.624-.19.143-.479.233-.798.233a.75.75 0 0 0-.75.75v.838a.75.75 0 0 0 1.5 0v-.18a2.6 2.6 0 0 0 .951-.444c.53-.4.882-1.021.882-1.82 0-.748-.43-1.273-.944-1.574-.491-.287-1.092-.4-1.639-.4s-1.147.113-1.639.4c-.515.301-.944.826-.944 1.573a.75.75 0 1 0 1.5 0m1.083 5.687a.917.917 0 1 0 0-1.833.917.917 0 0 0 0 1.833" clip-rule="evenodd"/></svg>