<svg xmlns="http://www.w3.org/2000/svg" width="32" height="32" fill="none" class="persona-icon" viewBox="0 0 32 32"><path fill="currentColor" fill-rule="evenodd" d="M9.889 4.5h8.555c2.593 0 4.667 2.131 4.667 4.726v1.566a4.67 4.67 0 0 1 3.667 4.56v8.44l1.118 2.265A1 1 0 0 1 27 27.5H13.555a4.667 4.667 0 0 1-4.666-4.666v-1.498H5a1 1 0 0 1-.896-1.443l1.118-2.263V9.226C5.222 6.63 7.296 4.5 9.89 4.5m2.034 6.478a4.6 4.6 0 0 1 1.633-.296h7.555V9.226c0-1.52-1.209-2.726-2.667-2.726H9.89c-1.458 0-2.667 1.205-2.667 2.726v8.637a1 1 0 0 1-.103.444l-.51 1.03h2.28v-3.985a4.67 4.67 0 0 1 3.034-4.374m4.646 5.643c0-.138.047-.259.274-.394.26-.154.68-.262 1.17-.262s.91.107 1.17.262c.228.135.275.256.275.394 0 .441-.167.694-.387.862-.252.193-.635.314-1.058.314a1 1 0 0 0-1 1v1.136a1 1 0 0 0 2 0v-.258a3.5 3.5 0 0 0 1.275-.605c.706-.541 1.17-1.377 1.17-2.45 0-.997-.565-1.704-1.254-2.113-.656-.39-1.459-.542-2.19-.542-.733 0-1.535.152-2.192.542-.689.41-1.253 1.116-1.253 2.114a1 1 0 0 0 2 0m1.444 7.66a1.221 1.221 0 1 0 .002-2.442 1.221 1.221 0 0 0-.002 2.443" clip-rule="evenodd"/></svg>