<svg xmlns="http://www.w3.org/2000/svg" width="150" height="150" fill="none" class="persona-ilustration" viewBox="0 0 150 150"><g clip-path="url(#IFXUM1THaH_a)"><g clip-path="url(#IFXUM1THaH_b)"><rect width="125" height="125" x="12.5" y="12.5" fill="#D3EDFF" rx="62.5"/><path fill="#AADBFF" d="M151.914 84.477 0 106.291v52.751l214.332-36.019z"/><path fill="#AADBFF" d="m85.999 62.397 2.8.582v43.405l-2.8-.88z"/><path fill="#82C2F1" d="m91.593 62.397-2.8.582v43.405l2.8-.465zM71.974 51.09v4.105l115.334 14.294v-18.4z"/><path fill="#AADBFF" d="M75.495 61.758V55.46l94.054 9.98v9.276z"/><path fill="#D3EDFF" d="m121.685 25.563-7.51 18.513 21.075 1.572 8.965-21.89z"/><path fill="#8E8E8E" d="M54.677 98.834h5.02v13.275h-5.02z"/><path fill="#666" d="M57.19 111.227c1.31 0 2.386-.307 2.492-.698h.009v11.752l.001.024c0 .42-1.12.761-2.501.761-1.382 0-2.502-.341-2.502-.761h-.001v-11.776h.008c.106.391 1.182.698 2.493.698"/><path fill="#2E2E2E" d="M33.682 117.324a2.282 2.282 0 1 0 0-4.565 2.282 2.282 0 0 0 0 4.565"/><path fill="#666" d="M36.455 114.927a2.784 2.784 0 0 0-3.954-2.513c-.991.432-1.59 1.464-1.585 2.553 0 .346 1.24.623 2.767.623s2.766-.277 2.766-.623c0-.011-.011-.023-.017-.035h.017z"/><path fill="#535353" d="M54.677 112.885v5.569l-22.583-5.412v-2.104z"/><path fill="#8E8E8E" d="m54.688 112.443-22.243-1.914-.352.41 22.595 2.023z"/><path fill="#2E2E2E" d="M67.651 112.893a2.184 2.184 0 1 0 0-4.369 2.184 2.184 0 0 0 0 4.369"/><path fill="#666" d="M70.296 110.6a2.67 2.67 0 0 0-3.787-2.41c-.951.415-1.522 1.407-1.516 2.444 0 .329 1.187.594 2.651.594s2.652-.265 2.652-.594c0-.011-.012-.023-.018-.034z"/><path fill="#535353" d="m59.689 112.101 7.96-6.464v2.3l-7.937 9.271z"/><path fill="#8E8E8E" d="m59.691 111.539 7.355-5.902h.605l-7.96 6.473z"/><path fill="#2E2E2E" d="M90.51 124.691a2.37 2.37 0 1 0 0-4.739 2.37 2.37 0 0 0 0 4.739"/><path fill="#666" d="M93.387 122.201a2.9 2.9 0 0 0-4.11-2.617c-1.031.45-1.654 1.528-1.648 2.652 0 .357 1.29.645 2.876.645s2.876-.288 2.876-.645c0-.012-.011-.023-.017-.035h.023"/><path fill="#535353" d="m59.688 113.409 31.663 4.036v2.403l-31.663-.5z"/><path fill="#8E8E8E" d="m59.698 113.026 31.245 4.079.41.34-31.655-4.05z"/><path fill="#2E2E2E" d="M67.045 143.471a3.113 3.113 0 1 0 0-6.226 3.113 3.113 0 0 0 0 6.226"/><path fill="#666" d="M70.826 140.203a3.8 3.8 0 0 0-5.395-3.43c-1.354.588-2.173 2-2.161 3.481 0 .467 1.694.848 3.781.848s3.781-.381 3.781-.848c0-.017-.017-.034-.023-.046h.023z"/><path fill="#535353" d="M58.216 114.04v6.306l8.83 17.418v-3.302z"/><path fill="#8E8E8E" d="M58.216 114.04h.484l8.952 20.358v3.366h-.606v-3.302z"/><path fill="#2E2E2E" d="M27.696 137.101a2.651 2.651 0 1 0 0-5.303 2.651 2.651 0 0 0 0 5.303"/><path fill="#666" d="M30.917 134.317a3.242 3.242 0 0 0-4.6-2.928c-1.158.501-1.85 1.706-1.844 2.968 0 .398 1.441.72 3.222.72s3.222-.322 3.222-.72c0-.012-.017-.029-.017-.04z"/><path fill="#8E8E8E" d="m26.888 132.461-.674-.524v-2.611l28.474-15.978v.692l-27.8 15.516z"/><path fill="#535353" d="M54.688 114.04 26.89 129.556v2.905l27.8-11.914z"/></g><path fill="#666" d="m67.044 92.091 1.464-22.133h6.335l-2.115 22.133z"/><path fill="#535353" d="m53.736 69.958-.409-1.32 36.042 1.948s-.415 1.044-.519 1.257c-1.014 2.006-27.569.784-35.114-1.885"/><path fill="#666" d="M64.123 66.494s16.513.836 21.926 1.839c.933.172 5.118 1.62 2.438 2.922-2.317 1.13-27.782-.329-34.538-2.104-1.4-.369-.45-2.444 2.986-2.836 3.435-.392 7.188.173 7.188.173z"/><path fill="#FFC509" d="M14.594 33.237c12.149-3.152 19.106-4.459 30.686 1.447 0 0 3.93 1.363 4.634 4.309.703 2.945 9.31 29.795 9.73 34.988.422 5.194-1.993 17.044-1.008 19.425.986 2.38-29.033 6.173-29.033 6.173-4.346-1.545-3.504-5.188-3.925-16.969S14.594 33.237 14.594 33.237"/><path fill="#FF9300" d="M28.578 102.726q-.217 0-.444-.034c-5.337-.819-5.153-9.516-4.934-19.586.017-.784.035-1.539.046-2.242.075-4.761-6.317-28.958-10.634-44.06a2.88 2.88 0 1 1 5.539-1.584c1.124 3.93 10.963 38.595 10.853 45.73-.011.715-.028 1.482-.046 2.277-.075 3.608-.253 11.856.755 13.966a2.885 2.885 0 0 1 1.706 3.084 2.885 2.885 0 0 1-2.847 2.444z"/><path fill="#FFB700" d="M63.472 84.478s-33.218 3.797-35.858 11.884c-1.158 3.55 24.326 8.611 24.326 8.611l38.501-8.611c1.349-.283 2.594-1.546 2.998-2.86.403-1.314.04-2.387-2.998-4.116-6.075-3.453-26.963-4.908-26.963-4.908z"/><path fill="#FF9300" d="M25.354 101.072c-1.487-2.53 3.199-8.623 8.928-7.626s18.43 6.738 18.435 10.819c0 1.463-5.331 1.463-5.331 1.463s-19.45-.27-22.032-4.656"/><path fill="#535353" d="m32.38 104.579 2.32-27.14h6.335l-2.296 27.665c-2.526 1.066-3.926.557-6.359-.525"/><path fill="#535353" d="m19.92 77.44-.409-1.32 36.042 1.948s-.415 1.043-.519 1.256c-1.014 2.006-27.569.784-35.114-1.884"/><path fill="#666" d="M30.312 73.981s16.513.836 21.925 1.839c.934.173 5.119 1.62 2.438 2.922-2.317 1.13-27.781-.328-34.537-2.104-1.4-.369-.45-2.444 2.986-2.836 3.435-.392 7.188.173 7.188.173zM105.198 49.712l8.344-21.167c.158-.399.508-.689.929-.77l22.632-4.316a.625.625 0 0 1 .707.823l-9.027 25.43z"/><rect width="38.709" height="1.44" x="90.281" y="49.712" fill="#353535" rx=".313"/><path fill="#F8F8F8" d="m114.123 29.216-6.837 17.575a.625.625 0 0 0 .583.852h19.487a1.25 1.25 0 0 0 1.174-.822l7.824-21.49a.625.625 0 0 0-.705-.828l-20.596 3.939a1.25 1.25 0 0 0-.93.774"/></g><defs><clipPath id="IFXUM1THaH_a"><path fill="#fff" d="M0 0h150v150H0z"/></clipPath><clipPath id="IFXUM1THaH_b"><rect width="125" height="125" x="12.5" y="12.5" fill="#fff" rx="62.5"/></clipPath></defs></svg>