<svg xmlns="http://www.w3.org/2000/svg" width="300" height="300" fill="none" class="persona-ilustration" viewBox="0 0 300 300"><g clip-path="url(#5UdYhk7yWh_a)"><g clip-path="url(#5UdYhk7yWh_b)"><rect width="250" height="250" x="25" y="25" fill="#D3EDFF" rx="125"/><path fill="#AADBFF" d="M303.828 168.954 0 212.583v105.501l428.663-72.038z"/><path fill="#AADBFF" d="m171.997 124.793 5.6 1.166v86.808l-5.6-1.76z"/><path fill="#82C2F1" d="m183.186 124.793-5.6 1.166v86.808l5.6-.929zM143.948 102.179v8.21l230.668 28.588v-36.798z"/><path fill="#AADBFF" d="M150.989 123.515v-12.594l188.109 19.959v18.551z"/><path fill="#D3EDFF" d="M243.371 51.126 228.35 88.153l42.15 3.143 17.931-43.78z"/><path fill="#8E8E8E" d="M109.353 197.668h10.039v26.55h-10.039z"/><path fill="#666" d="M114.379 222.453c2.622 0 4.774-.613 4.986-1.394h.017v23.504l.002.048c0 .84-2.24 1.521-5.003 1.521s-5.003-.681-5.003-1.521v-.002h-.003v-23.55h.018c.212.781 2.363 1.394 4.986 1.394"/><path fill="#2E2E2E" d="M67.365 234.649a4.565 4.565 0 1 0 0-9.13 4.565 4.565 0 0 0 0 9.13"/><path fill="#666" d="M72.91 229.853a5.568 5.568 0 0 0-7.908-5.026c-1.982.865-3.181 2.928-3.17 5.107 0 .692 2.479 1.245 5.533 1.245s5.534-.553 5.534-1.245c0-.023-.023-.046-.035-.069h.035z"/><path fill="#535353" d="M109.353 225.769v11.139l-45.165-10.823v-4.208z"/><path fill="#8E8E8E" d="m109.376 224.886-44.486-3.827-.703.818 45.189 4.046z"/><path fill="#2E2E2E" d="M135.303 225.787a4.369 4.369 0 1 0 0-8.738 4.369 4.369 0 0 0 0 8.738"/><path fill="#666" d="M140.591 221.199c0-3.643-3.758-6.478-7.573-4.818-1.902.83-3.044 2.812-3.032 4.887 0 .657 2.375 1.188 5.303 1.188s5.302-.531 5.302-1.188c0-.023-.023-.046-.034-.069z"/><path fill="#535353" d="m119.378 224.202 15.921-12.929v4.6l-15.876 18.543z"/><path fill="#8E8E8E" d="m119.383 223.078 14.709-11.805h1.211l-15.92 12.946z"/><path fill="#2E2E2E" d="M181.022 249.382a4.738 4.738 0 1 0 0-9.477 4.738 4.738 0 0 0 0 9.477"/><path fill="#666" d="M186.774 244.402c0-3.954-4.081-7.032-8.219-5.234-2.064.9-3.309 3.055-3.297 5.303 0 .715 2.582 1.291 5.752 1.291s5.752-.576 5.752-1.291c0-.023-.023-.046-.034-.069h.046"/><path fill="#535353" d="m119.376 226.818 63.326 8.072v4.807l-63.326-1z"/><path fill="#8E8E8E" d="m119.396 226.053 62.49 8.158.818.68-63.308-8.1z"/><path fill="#2E2E2E" d="M134.09 286.941a6.225 6.225 0 1 0 0-12.45 6.225 6.225 0 0 0 0 12.45"/><path fill="#666" d="M141.653 280.405c0-5.187-5.349-9.234-10.79-6.859-2.709 1.176-4.346 4-4.323 6.963 0 .934 3.389 1.695 7.562 1.695s7.562-.761 7.562-1.695c0-.035-.034-.069-.046-.092h.046z"/><path fill="#535353" d="M116.432 228.08v12.611l17.661 34.837v-6.605z"/><path fill="#8E8E8E" d="M116.432 228.08h.969l17.902 40.716v6.732h-1.21v-6.605z"/><path fill="#2E2E2E" d="M55.391 274.202a5.303 5.303 0 1 0 0-10.605 5.303 5.303 0 0 0 0 10.605"/><path fill="#666" d="M61.834 268.633c0-4.426-4.565-7.873-9.199-5.856-2.317 1.003-3.7 3.412-3.689 5.937 0 .795 2.882 1.441 6.444 1.441 3.563 0 6.444-.646 6.444-1.441 0-.023-.034-.058-.034-.081z"/><path fill="#8E8E8E" d="m53.776 264.922-1.348-1.049v-5.222l56.947-31.955v1.384l-55.599 31.032z"/><path fill="#535353" d="m109.377 228.079-55.599 31.033v5.81l55.599-23.828z"/><path fill="#D3EDFF" d="m126.415 116.117-131.769 5.666h-11.057V-59.311h142.826z"/><path fill="#82C2F1" d="m126.284 118.213 11.744 2.763V4.39l-11.744 8.033z"/><path fill="#AADBFF" d="m126.502 118.12 11.682 2.827-146.225 7.181-8.053-4.228zM134.089 115.826l-6.425-10.388-144.087-2.45 5.55 12.775 144.962.05zM134.089 104.413l-6.425-10.488L-16.423 89.2l5.55 12.863zM134.089 93.013l-6.425-10.588L-16.423 75.4l5.55 12.95L134.089 93zM134.089 81.6l-6.425-10.688-144.087-9.3 5.55 13.038zM134.089 70.189l-6.425-10.8-144.087-11.576 5.55 13.125zM134.089 58.789l-6.425-10.9-144.087-13.875 5.55 13.212 144.962 11.55zM134.089 47.376l-6.425-11-144.087-16.15 5.55 13.3zM134.089 35.976l-6.425-11.1-144.087-18.45 5.55 13.387 144.962 16.15z"/></g><path fill="#666" d="m134.089 184.183 2.928-44.267h12.669l-4.231 44.267z"/><path fill="#535353" d="m107.473 139.916-.819-2.64 72.084 3.897s-.83 2.086-1.038 2.513c-2.029 4.011-55.137 1.568-70.227-3.77"/><path fill="#666" d="M128.245 132.988s33.027 1.671 43.852 3.677c1.867.346 10.237 3.239 4.876 5.845-4.634 2.259-55.564-.657-69.074-4.208-2.802-.738-.899-4.888 5.971-5.672 6.871-.784 14.375.346 14.375.346z"/><path fill="#FFC509" d="M29.189 66.473C53.485 60.17 67.4 57.556 90.56 69.368c0 0 7.86 2.727 9.267 8.617s18.62 59.591 19.462 69.978-3.989 34.087-2.018 38.848-58.065 12.347-58.065 12.347c-8.692-3.09-7.01-10.375-7.85-33.938-.842-23.563-22.168-98.747-22.168-98.747"/><path fill="#FF9300" d="M57.156 205.453c-.288 0-.588-.023-.888-.069-10.675-1.637-10.306-19.033-9.868-39.172.035-1.567.07-3.078.093-4.484.15-9.522-12.635-57.916-21.27-88.118a5.761 5.761 0 1 1 11.079-3.17C38.55 78.3 58.228 147.63 58.009 161.9c-.023 1.429-.058 2.963-.093 4.553-.15 7.217-.507 23.713 1.51 27.932a5.77 5.77 0 0 1 3.413 6.168 5.77 5.77 0 0 1-5.695 4.887z"/><path fill="#FFB700" d="M126.944 168.955s-66.435 7.594-71.715 23.768c-2.317 7.101 48.65 17.224 48.65 17.224l77.003-17.224c2.698-.565 5.189-3.09 5.996-5.719.807-2.628.079-4.774-5.996-8.232-12.15-6.905-53.927-9.817-53.927-9.817z"/><path fill="#FF9300" d="M50.707 202.144c-2.974-5.061 6.398-17.246 17.857-15.252 11.459 1.995 36.858 13.476 36.87 21.638 0 2.927-10.663 2.927-10.663 2.927s-38.9-.541-44.064-9.313"/><path fill="#535353" d="m64.76 209.158 4.641-54.28h12.67l-4.593 55.33c-5.052 2.132-7.853 1.115-12.718-1.05"/><path fill="#535353" d="m39.84 154.879-.818-2.64 72.083 3.897s-.83 2.086-1.037 2.513c-2.029 4.011-55.137 1.567-70.227-3.77"/><path fill="#666" d="M60.623 147.962s33.027 1.672 43.852 3.678c1.867.346 10.236 3.239 4.876 5.844-4.634 2.26-55.564-.657-69.075-4.207-2.8-.738-.899-4.888 5.972-5.672 6.87-.784 14.375.346 14.375.346zM210.397 99.425l16.688-42.335a2.5 2.5 0 0 1 1.857-1.539l45.265-8.634a1.25 1.25 0 0 1 1.412 1.646l-18.053 50.862z"/><rect width="77.417" height="2.88" x="180.562" y="99.424" fill="#353535" rx=".625"/><path fill="#F8F8F8" d="m228.246 58.432-13.673 35.151a1.25 1.25 0 0 0 1.165 1.703h38.973a2.5 2.5 0 0 0 2.349-1.644l15.648-42.981a1.25 1.25 0 0 0-1.41-1.656l-41.192 7.878a2.5 2.5 0 0 0-1.86 1.55"/></g><defs><clipPath id="5UdYhk7yWh_a"><path fill="#fff" d="M0 0h300v300H0z"/></clipPath><clipPath id="5UdYhk7yWh_b"><rect width="250" height="250" x="25" y="25" fill="#fff" rx="125"/></clipPath></defs></svg>