<svg xmlns="http://www.w3.org/2000/svg" width="24" height="24" fill="none"><path fill="#000" fill-rule="evenodd" d="M9.089 3.406A1.763 1.763 0 0 1 10.8 2h2.4c.822 0 1.533.584 1.711 1.406l.262 1.206a.35.35 0 0 0 .198.226c.36.177.703.382 1.028.612.112.079.22.086.291.063l1.33-.428a1.735 1.735 0 0 1 2.045.814l1.2 2.128c.41.729.272 1.652-.333 2.22l-1.087 1.021c-.053.05-.1.146-.093.281a8.227 8.227 0 0 1-.03 1.29c-.016.144.033.248.09.3l1.12 1.053c.605.569.744 1.492.333 2.22l-1.2 2.128a1.735 1.735 0 0 1-2.045.815l-1.776-.573c-.065-.02-.164-.017-.272.049-.195.119-.395.23-.6.331a.35.35 0 0 0-.199.226l-.262 1.206A1.763 1.763 0 0 1 13.2 22h-2.4a1.763 1.763 0 0 1-1.711-1.405l-.262-1.207a.35.35 0 0 0-.198-.226 7.71 7.71 0 0 1-.601-.331c-.108-.066-.207-.07-.272-.049l-1.776.573a1.735 1.735 0 0 1-2.045-.815l-1.2-2.128a1.826 1.826 0 0 1 .333-2.22l1.12-1.053c.057-.052.106-.156.09-.3a8.22 8.22 0 0 1-.03-1.29c.008-.135-.04-.23-.093-.28l-1.087-1.022a1.826 1.826 0 0 1-.333-2.22l1.2-2.128a1.735 1.735 0 0 1 2.045-.814l1.33.428c.07.023.179.016.29-.063.326-.23.67-.435 1.029-.612a.35.35 0 0 0 .198-.226l.262-1.206Zm1.711.132a.252.252 0 0 0-.245.201l-.261 1.207a1.877 1.877 0 0 1-1.012 1.277c-.29.143-.566.308-.829.494-.44.31-1.025.447-1.594.264l-1.33-.429a.248.248 0 0 0-.293.116l-1.2 2.128a.26.26 0 0 0 .048.318l1.087 1.02c.428.402.607.969.578 1.501a6.671 6.671 0 0 0 .024 1.044c.058.56-.115 1.169-.568 1.594l-1.121 1.053a.26.26 0 0 0-.048.317l1.2 2.128c.059.104.18.152.292.116l1.777-.572a1.803 1.803 0 0 1 1.493.195c.157.096.318.185.484.267.479.236.883.684 1.012 1.277l.261 1.207c.026.117.128.2.245.2h2.4a.252.252 0 0 0 .245-.2l.261-1.207a1.877 1.877 0 0 1 1.012-1.277c.166-.082.327-.171.485-.267.425-.26.966-.365 1.492-.195l1.777.572a.248.248 0 0 0 .292-.116l1.2-2.128a.26.26 0 0 0-.048-.317l-1.12-1.053c-.454-.425-.627-1.034-.57-1.594a6.639 6.639 0 0 0 .025-1.044c-.029-.532.15-1.099.578-1.5l1.087-1.021a.26.26 0 0 0 .048-.318l-1.2-2.128a.248.248 0 0 0-.292-.116l-1.33.429a1.806 1.806 0 0 1-1.595-.264 6.224 6.224 0 0 0-.829-.494 1.877 1.877 0 0 1-1.012-1.277l-.261-1.207a.252.252 0 0 0-.245-.2h-2.4ZM12 9.692c-1.245 0-2.254 1.034-2.254 2.308 0 1.274 1.01 2.308 2.254 2.308 1.245 0 2.254-1.034 2.254-2.308 0-1.274-1.01-2.308-2.254-2.308ZM8.243 12c0-2.124 1.682-3.846 3.757-3.846S15.757 9.876 15.757 12 14.075 15.846 12 15.846 8.243 14.124 8.243 12Z" clip-rule="evenodd"/></svg>