<svg xmlns="http://www.w3.org/2000/svg" width="16" height="16" fill="none" class="persona-icon" viewBox="0 0 16 16"><path fill="currentColor" fill-rule="evenodd" d="M8 3.979c.226-.312.529-.625.906-.873a2.9 2.9 0 0 1 1.647-.495c.645.007 1.34.228 2.065.724l.026.019c1.063.833 1.445 1.869 1.339 2.952-.101 1.043-.648 2.083-1.33 3.007-1.367 1.852-3.436 3.452-4.404 4.008a.5.5 0 0 1-.498 0c-.968-.556-3.038-2.156-4.404-4.008-.682-.924-1.228-1.964-1.33-3.007-.106-1.083.276-2.119 1.339-2.952l.026-.02c.725-.495 1.42-.716 2.065-.723.644-.007 1.2.2 1.647.495.377.248.68.561.906.873m0 2.459a.5.5 0 0 0-.5.5v1.18H6.32a.5.5 0 1 0 0 1H7.5V10.3a.5.5 0 1 0 1 0V9.12h1.18a.5.5 0 1 0 0-1H8.5V6.937a.5.5 0 0 0-.5-.5" clip-rule="evenodd"/></svg>