<svg xmlns="http://www.w3.org/2000/svg" width="20" height="20" fill="none" class="persona-icon" viewBox="0 0 20 20"><path fill="currentColor" fill-rule="evenodd" d="M10 5.248c.261-.35.606-.7 1.03-.979a3.43 3.43 0 0 1 1.942-.583c.76.009 1.576.269 2.426.85l.033.024c1.248.978 1.698 2.198 1.574 3.474-.12 1.224-.76 2.441-1.556 3.52-1.594 2.16-4.007 4.026-5.138 4.675a.63.63 0 0 1-.622 0c-1.131-.65-3.544-2.515-5.138-4.675-.796-1.079-1.437-2.296-1.556-3.52-.125-1.276.326-2.496 1.574-3.474l.033-.024c.85-.581 1.666-.841 2.426-.85a3.43 3.43 0 0 1 1.942.583c.424.28.769.628 1.03.978m0 2.891a.625.625 0 0 0-.625.625v1.33h-1.33a.625.625 0 1 0 0 1.25h1.33v1.331a.625.625 0 1 0 1.25 0v-1.33h1.33a.625.625 0 0 0 0-1.25h-1.33v-1.33A.625.625 0 0 0 10 8.138" clip-rule="evenodd"/></svg>