<svg xmlns="http://www.w3.org/2000/svg" width="16" height="16" fill="none" class="persona-icon" viewBox="0 0 16 16"><path fill="currentColor" fill-rule="evenodd" d="M2 3.833C2 2.821 2.82 2 3.833 2H4.5a.5.5 0 0 1 0 1h-.667A.833.833 0 0 0 3 3.833V4.5a.5.5 0 1 1-1 0zM2.5 11a.5.5 0 0 1 .5.5v.666c0 .46.373.834.833.834H4.5a.5.5 0 0 1 0 1h-.667A1.833 1.833 0 0 1 2 12.166V11.5a.5.5 0 0 1 .5-.5m2.944-1.98c-.409-.26-.76-.603-1.044-.976-.442-.582-.746-1.27-.855-1.918-.106-.63-.042-1.333.413-1.813.48-.506 1.227-.593 2.093-.347 1.023.291 1.679.909 2.047 1.683.255.538.365 1.136.384 1.727h.002c.203-.04.418-.063.617-.033.203.03.456.126.606.383.14.241.12.506.068.71l-.012.053c.082-.063.184-.152.315-.266l.056-.05c.185-.16.413-.355.644-.503.21-.136.53-.305.879-.264.43.05.684.376.809.75.046.137.086.237.12.309a.5.5 0 0 1 .357.91.9.9 0 0 1-.312.14.7.7 0 0 1-.535-.096 1.1 1.1 0 0 1-.341-.385 3 3 0 0 1-.238-.562l-.02-.056a1 1 0 0 0-.179.095 5 5 0 0 0-.527.417l-.062.054c-.157.137-.335.293-.487.393a1.4 1.4 0 0 1-.575.234.8.8 0 0 1-.655-.2.9.9 0 0 1-.268-.588 1.7 1.7 0 0 1 .029-.48q-.043.006-.095.016a3 3 0 0 0-.247.06c-.116.89-.595 1.933-1.164 2.673-.289.376-.633.717-1.01.91-.391.2-.885.265-1.32-.065a1.22 1.22 0 0 1-.499-.922c-.02-.335.086-.663.23-.95.184-.363.462-.721.776-1.043m6.834-7.631a.5.5 0 0 1 .5.5v1.333h1.333a.5.5 0 1 1 0 1h-1.333v1.333a.5.5 0 1 1-1 0V4.222h-1.334a.5.5 0 1 1 0-1h1.334V1.889a.5.5 0 0 1 .5-.5m1.222 9.61a.5.5 0 0 1 .5.5v.667C14 13.18 13.18 14 12.167 14H11.5a.5.5 0 0 1 0-1h.667c.46 0 .833-.373.833-.834V11.5a.5.5 0 0 1 .5-.5M6.253 8.326c.27-.194.55-.358.816-.471q.213-.09.415-.169c.013-.592-.072-1.15-.29-1.607-.246-.518-.675-.939-1.416-1.15-.694-.197-.98-.048-1.095.074-.14.148-.235.463-.152.958.08.475.312 1.015.665 1.479.296.39.66.702 1.057.886m.2 1.116c-.387.338-.717.727-.892 1.073-.101.2-.13.347-.125.44.005.07.027.124.105.184.032.024.087.06.26-.028.19-.097.427-.309.673-.629.36-.469.67-1.077.841-1.639q-.109.056-.226.127 0 .045-.01.089a.5.5 0 0 1-.589.39zm5.016-1.074.005.005z" clip-rule="evenodd"/></svg>