<svg xmlns="http://www.w3.org/2000/svg" width="24" height="24" fill="none" class="persona-icon" viewBox="0 0 24 24"><path fill="currentColor" fill-rule="evenodd" d="M18.417 2.083a.75.75 0 0 1 .75.75v2h2a.75.75 0 0 1 0 1.5h-2v2a.75.75 0 0 1-1.5 0v-2h-2a.75.75 0 1 1 0-1.5h2v-2a.75.75 0 0 1 .75-.75M3 5.75A2.75 2.75 0 0 1 5.75 3h1a.75.75 0 0 1 0 1.5h-1c-.69 0-1.25.56-1.25 1.25v1a.75.75 0 0 1-1.5 0zm5.166 7.78A6.1 6.1 0 0 1 6.6 12.066c-.663-.872-1.12-1.905-1.283-2.877-.159-.944-.063-2 .62-2.719.72-.76 1.84-.89 3.14-.52 1.534.436 2.518 1.362 3.07 2.523.383.808.547 1.704.576 2.591h.003c.304-.06.627-.094.925-.05.305.045.684.19.91.575.21.362.179.76.102 1.065l-.018.08c.122-.095.275-.228.471-.4l.086-.073c.277-.242.618-.534.964-.756.316-.203.796-.457 1.32-.396.645.076 1.026.564 1.213 1.126.068.205.129.355.18.463a.75.75 0 0 1 .535 1.365c-.08.053-.248.162-.467.21a1.05 1.05 0 0 1-.803-.145c-.228-.146-.39-.361-.512-.577a5 5 0 0 1-.357-.843l-.03-.084a1.6 1.6 0 0 0-.268.143 7.4 7.4 0 0 0-.791.625l-.093.081c-.236.206-.502.44-.73.59-.26.173-.553.31-.862.351a1.19 1.19 0 0 1-.984-.3c-.27-.254-.373-.591-.4-.883a2.6 2.6 0 0 1 .042-.72q-.063.009-.143.024-.165.033-.37.09c-.174 1.336-.892 2.9-1.745 4.01-.434.565-.95 1.076-1.514 1.365-.588.302-1.328.398-1.981-.098a1.83 1.83 0 0 1-.749-1.383c-.03-.502.129-.994.346-1.425.275-.543.691-1.081 1.163-1.564M3.75 16.5a.75.75 0 0 1 .75.75v1c0 .69.56 1.25 1.25 1.25h1a.75.75 0 0 1 0 1.5h-1A2.75 2.75 0 0 1 3 18.25v-1a.75.75 0 0 1 .75-.75m16.5 0a.75.75 0 0 1 .75.75v1A2.75 2.75 0 0 1 18.25 21h-1a.75.75 0 0 1 0-1.5h1c.69 0 1.25-.56 1.25-1.25v-1a.75.75 0 0 1 .75-.75M9.68 14.161c-.58.508-1.076 1.091-1.338 1.61-.152.3-.196.52-.187.66.006.105.039.187.157.276.048.037.13.092.39-.042.284-.145.64-.463 1.01-.943a8.1 8.1 0 0 0 1.261-2.459 5 5 0 0 0-.339.19.75.75 0 0 1-.9.72zm-.3-1.674c.405-.29.824-.536 1.224-.706q.32-.136.622-.253c.02-.889-.108-1.724-.435-2.41-.369-.778-1.012-1.41-2.125-1.726-1.04-.295-1.47-.071-1.642.11-.21.223-.353.696-.228 1.438.12.713.469 1.523.998 2.218.444.585.989 1.054 1.586 1.33m7.823.063.008.01q-.008-.011-.008-.01" clip-rule="evenodd"/></svg>