<svg xmlns="http://www.w3.org/2000/svg" width="32" height="32" fill="none" class="persona-icon" viewBox="0 0 32 32"><path fill="currentColor" fill-rule="evenodd" d="M4 7.667A3.667 3.667 0 0 1 7.667 4H9a1 1 0 1 1 0 2H7.667C6.747 6 6 6.746 6 7.667V9a1 1 0 1 1-2 0zM5 22a1 1 0 0 1 1 1v1.333C6 25.253 6.746 26 7.667 26H9a1 1 0 1 1 0 2H7.667A3.667 3.667 0 0 1 4 24.333V23a1 1 0 0 1 1-1m5.888-3.96A8.1 8.1 0 0 1 8.8 16.088c-.885-1.163-1.493-2.54-1.71-3.837-.212-1.258-.085-2.665.825-3.624.962-1.013 2.455-1.187 4.187-.694 2.046.581 3.357 1.817 4.093 3.365.512 1.076.73 2.271.77 3.454h.003c.406-.08.836-.125 1.233-.067.406.06.912.254 1.212.768.282.482.24 1.012.138 1.42q-.015.054-.025.104c.164-.125.367-.303.629-.53l.114-.1c.37-.322.825-.71 1.286-1.008.421-.27 1.06-.608 1.759-.527.86.101 1.369.751 1.618 1.5.091.275.172.475.24.618a1 1 0 0 1 .714 1.82 1.9 1.9 0 0 1-.623.281 1.4 1.4 0 0 1-1.071-.194c-.304-.194-.52-.481-.683-.769a6.4 6.4 0 0 1-.475-1.124 2 2 0 0 0-.042-.112 2 2 0 0 0-.355.19c-.324.208-.677.505-1.056.835l-.123.107c-.315.275-.67.586-.974.787-.347.23-.737.414-1.15.468-.436.056-.925-.037-1.311-.4-.36-.339-.497-.789-.535-1.178a3.4 3.4 0 0 1 .058-.96q-.085.012-.191.033-.221.044-.493.12c-.232 1.78-1.19 3.867-2.328 5.347-.578.752-1.267 1.433-2.018 1.819-.784.402-1.771.53-2.642-.13a2.44 2.44 0 0 1-.998-1.844c-.04-.67.172-1.326.462-1.9.366-.725.921-1.442 1.55-2.086M24.555 2.778a1 1 0 0 1 1 1v2.666h2.667a1 1 0 1 1 0 2h-2.667v2.667a1 1 0 1 1-2 0V8.444H20.89a1 1 0 0 1 0-2h2.666V3.778a1 1 0 0 1 1-1M27 22a1 1 0 0 1 1 1v1.333A3.667 3.667 0 0 1 24.333 28H23a1 1 0 1 1 0-2h1.333c.92 0 1.667-.746 1.667-1.667V23a1 1 0 0 1 1-1m-14.493-5.35a8.8 8.8 0 0 1 1.631-.942q.428-.181.83-.338c.026-1.185-.144-2.298-.58-3.214-.492-1.036-1.35-1.878-2.833-2.3-1.386-.393-1.96-.095-2.189.147-.281.297-.47.928-.304 1.917.16.95.624 2.03 1.33 2.958.592.779 1.318 1.405 2.115 1.772m.4 2.232c-.775.676-1.435 1.454-1.784 2.145-.203.401-.261.695-.25.88.008.14.052.25.21.369.064.05.174.122.52-.055.379-.195.853-.618 1.345-1.259.721-.937 1.34-2.154 1.683-3.278a7 7 0 0 0-.452.254 1 1 0 0 1-1.272.944m10.031-2.149q0 0 .01.012-.01-.01-.01-.012" clip-rule="evenodd"/></svg>