<svg xmlns="http://www.w3.org/2000/svg" width="32" height="32" fill="none" class="persona-icon" viewBox="0 0 32 32"><path fill="currentColor" fill-rule="evenodd" d="M6.445 7.444A3.444 3.444 0 0 1 9.889 4H22.11a3.444 3.444 0 0 1 3.445 3.444V9.89a3.444 3.444 0 0 1-3.445 3.444H17v2.89h7.556a1 1 0 0 1 1 1v3.888h.222c1.227 0 2.222.995 2.222 2.222v2.445A2.22 2.22 0 0 1 25.778 28h-2.445a2.22 2.22 0 0 1-2.222-2.222v-2.445c0-1.227.995-2.222 2.222-2.222h.223v-2.889H17v3.037A3.446 3.446 0 0 1 16 28a3.445 3.445 0 0 1-1-6.741v-3.037H8.445v2.89h.222c1.227 0 2.222.994 2.222 2.221v2.445A2.22 2.22 0 0 1 8.667 28H6.222A2.22 2.22 0 0 1 4 25.778v-2.445c0-1.227.995-2.222 2.222-2.222h.222v-3.889a1 1 0 0 1 1-1H15v-2.889H9.889A3.444 3.444 0 0 1 6.445 9.89zM22.11 8.667a1.222 1.222 0 1 0-2.444 0 1.222 1.222 0 0 0 2.444 0m-12 0a1 1 0 0 0 1 1H16a1 1 0 1 0 0-2h-4.889a1 1 0 0 0-1 1" clip-rule="evenodd"/></svg>