<svg xmlns="http://www.w3.org/2000/svg" width="16" height="16" fill="none" class="persona-icon" viewBox="0 0 16 16"><path fill="currentColor" fill-rule="evenodd" d="M2 3.722C2 2.772 2.771 2 3.722 2h8.556C13.228 2 14 2.771 14 3.722V7.58a4.556 4.556 0 0 0-7.278 4.885.7.7 0 0 0-.15.115l-1.274 1.275a.5.5 0 0 1-.854-.354V7.889H2.5a.5.5 0 0 1-.5-.5zm2.444 0a.722.722 0 0 0-1.444 0V6.89h1.444zm2.945.722a.5.5 0 0 0 0 1h3.667a.5.5 0 1 0 0-1z" clip-rule="evenodd"/><path fill="currentColor" fill-rule="evenodd" d="M13.195 13.896c.312-.236.585-.522.805-.847a3.54 3.54 0 0 0 .611-1.993A3.552 3.552 0 0 0 11.055 7.5a3.556 3.556 0 1 0 2.14 6.396m-2.14-4.563a.5.5 0 0 1 .5.5v1.015l.77.77a.5.5 0 1 1-.706.708l-1.063-1.063v-1.43a.5.5 0 0 1 .5-.5" clip-rule="evenodd"/></svg>