<svg xmlns="http://www.w3.org/2000/svg" width="20" height="20" fill="none" class="persona-icon" viewBox="0 0 20 20"><path fill="currentColor" fill-rule="evenodd" d="M2.975 5.022c0-1.13.916-2.046 2.046-2.047h9.957c1.13 0 2.047.917 2.047 2.047v4.356a5.43 5.43 0 0 0-8.608 5.938l-.047.043-1.484 1.483A.625.625 0 0 1 5.82 16.4V9.914H3.6a.625.625 0 0 1-.625-.625zM5.82 8.664V5.022a.797.797 0 1 0-1.594 0v3.642zm2.845-2.22c0 .346.28.625.625.625h4.267a.625.625 0 0 0 0-1.25H9.289a.625.625 0 0 0-.625.625" clip-rule="evenodd"/><path fill="currentColor" fill-rule="evenodd" d="M9.375 13.556a4.18 4.18 0 1 1 8.361 0 4.18 4.18 0 0 1-8.361 0m4.806-1.423a.625.625 0 0 0-1.25 0v1.681l1.25 1.25a.625.625 0 1 0 .883-.884l-.883-.883z" clip-rule="evenodd"/></svg>