<svg xmlns="http://www.w3.org/2000/svg" width="32" height="32" fill="none" class="persona-icon" viewBox="0 0 32 32"><path fill="currentColor" fill-rule="evenodd" d="M4 7.444A3.444 3.444 0 0 1 7.443 4h17.112A3.444 3.444 0 0 1 28 7.444v7.715a9.111 9.111 0 0 0-14.556 9.77 1.5 1.5 0 0 0-.299.229l-2.55 2.55A1 1 0 0 1 8.89 27V15.778H5a1 1 0 0 1-1-1zm2 0v6.334h2.889V7.444a1.444 1.444 0 0 0-2.889 0m8.778 1.445a1 1 0 0 0 0 2h7.333a1 1 0 1 0 0-2z" clip-rule="evenodd"/><path fill="currentColor" fill-rule="evenodd" d="M26.39 27.792A7.2 7.2 0 0 0 28 26.099a7.08 7.08 0 0 0 1.222-3.988c0-1.478-.45-2.85-1.222-3.987a7.111 7.111 0 1 0-1.61 9.668m-4.279-9.125a1 1 0 0 1 1 1v2.03l1.54 1.54a1 1 0 1 1-1.414 1.415l-2.126-2.127v-2.858a1 1 0 0 1 1-1" clip-rule="evenodd"/></svg>