<svg xmlns="http://www.w3.org/2000/svg" width="24" height="24" fill="none" class="persona-icon" viewBox="0 0 24 24"><path fill="currentColor" fill-rule="evenodd" d="M4.056 5.834A3.833 3.833 0 0 1 7.889 2h4.657a2.8 2.8 0 0 1 2.05.892l4.594 4.92a2.8 2.8 0 0 1 .754 1.915V13h-8v9H7.89a3.833 3.833 0 0 1-3.833-3.833zm11.027 2.333h2.386l-3.691-3.954v2.649c0 .72.584 1.305 1.305 1.305" clip-rule="evenodd"/><path fill="currentColor" d="M17 14a.75.75 0 0 1 .75.75v2.5h2.5a.75.75 0 0 1 0 1.5h-2.5v2.5a.75.75 0 0 1-1.5 0v-2.5h-2.5a.75.75 0 1 1 0-1.5h2.5v-2.5A.75.75 0 0 1 17 14"/></svg>