<svg xmlns="http://www.w3.org/2000/svg" width="20" height="20" fill="none" class="persona-icon" viewBox="0 0 20 20"><path fill="currentColor" fill-rule="evenodd" d="M4.442 4.244a2.27 2.27 0 1 1 2.894 2.183v4.402c.217-.133.458-.243.72-.34.487-.18 1.09-.329 1.813-.484l.425-.09c.524-.112.94-.2 1.28-.286.435-.11.678-.202.824-.29a.39.39 0 0 0 .191-.228q.03-.084.049-.225a2.27 2.27 0 1 1 1.256.013c-.02.22-.057.429-.124.622a1.63 1.63 0 0 1-.72.884c-.317.193-.717.32-1.168.435-.367.093-.814.188-1.342.3l-.41.088c-.715.153-1.243.287-1.641.434-.396.146-.62.29-.759.438-.228.24-.352.61-.385 1.476a2.27 2.27 0 1 1-1.259-.003V6.427a2.27 2.27 0 0 1-1.644-2.183m2.27-1.019a1.02 1.02 0 1 0 0 2.039 1.02 1.02 0 0 0 0-2.039m0 11.511a1.02 1.02 0 1 0 0 2.039 1.02 1.02 0 0 0 0-2.039m6.577-9.044a1.02 1.02 0 1 0 0 2.039 1.02 1.02 0 0 0 0-2.04" clip-rule="evenodd"/></svg>