<svg xmlns="http://www.w3.org/2000/svg" width="24" height="24" fill="none" class="persona-icon" viewBox="0 0 24 24"><path fill="currentColor" fill-rule="evenodd" d="M5.083 4.806A2.806 2.806 0 1 1 8.64 7.51v5.583a5 5 0 0 1 .941-.451c.608-.225 1.36-.41 2.263-.604l.53-.114c.655-.139 1.176-.25 1.603-.358.543-.138.85-.253 1.037-.367a.5.5 0 0 0 .253-.3c.028-.08.05-.18.066-.314a2.807 2.807 0 0 1 .78-5.502 2.806 2.806 0 0 1 .726 5.516c-.024.281-.07.547-.155.791a2 2 0 0 1-.887 1.09c-.392.239-.887.397-1.452.54-.457.116-1.016.235-1.674.375q-.248.052-.513.11c-.895.191-1.557.359-2.057.543-.497.184-.78.366-.96.556-.295.311-.45.789-.49 1.89a2.807 2.807 0 1 1-1.511-.004V7.51a2.81 2.81 0 0 1-2.056-2.704M7.89 3.5a1.306 1.306 0 1 0 0 2.611 1.306 1.306 0 0 0 0-2.611m0 14.389a1.306 1.306 0 1 0 0 2.611 1.306 1.306 0 0 0 0-2.611M16.11 6.583a1.306 1.306 0 1 0 0 2.612 1.306 1.306 0 0 0 0-2.612" clip-rule="evenodd"/></svg>