<svg xmlns="http://www.w3.org/2000/svg" width="80" height="80" fill="none" class="persona-ilustration" viewBox="0 0 80 80"><g clip-path="url(#4x_a)"><path fill="#FFDCC5" d="m5.59 41.34 3.473 19.931 32.892 10.246 2.357-20.615z"/><path fill="#FFC79D" d="M59.996 39.5 44.31 50.903 41.955 71.52 55.8 56.43z"/><path fill="#FFDCC5" d="m5.59 41.342 18.514-8.846L59.996 39.5 44.312 50.903z"/><path fill="#E79EA1" d="m9.918 40.901 14.38-6.873 32.11 6.265-12.407 9.02zM26.208 31.415l7.845-17.23 33.699 4.74-8.613 18.915z"/><path fill="#F18513" d="m69.902 17.744-9.906 21.755s7.26 1.967 11.823-8.46c1.789-4.257 2.61-10.906-1.917-13.295"/><path fill="#FFC79D" d="M70.558 21.966c.165.496.286 1.104.328 1.854.103 1.87-.355 4.22-1.225 6.295-1.831 4.172-4.04 5.977-5.873 6.715l6.767-14.864z"/><path fill="#C93E41" d="m35.79 16.507-6.032 13.93s4.68-.563 6.921-5.016c.984-2.025 1.831-5.654-.888-8.914"/><path fill="#FFB26F" d="m44.312 50.902-.467 4.086-17.872-4.683-.6-.16-4.32-1.13L6.25 45.132l-.659-3.791z"/><path fill="#FFB26F" fill-rule="evenodd" d="m25.373 50.146.6.159 17.872 4.683.467-4.087-38.722-9.56.659 3.791zm-4.245-1.417 4.321 1.131.598.16h.002l17.541 4.596.399-3.49-38.03-9.39.548 3.159z" clip-rule="evenodd"/><path fill="#FFB26F" d="m8.401 57.48.662 3.79 32.893 10.246.498-4.37z"/><path fill="#FFB26F" fill-rule="evenodd" d="m9.323 61.042-.55-3.15 33.36 9.47-.43 3.766zm32.633 10.474L9.063 61.27 8.4 57.48l34.054 9.666z" clip-rule="evenodd"/><path fill="#F18513" d="m43.845 54.99 12.667-9.49 2.45-1.837 1.034-4.163L44.31 50.903zM42.454 67.147l-.499 4.37L55.8 56.43l.98-3.962z"/><path fill="#FFB26F" d="m6.252 45.133 2.15 12.348 3.416.971-2.165-12.427z"/><path fill="#FFB26F" fill-rule="evenodd" d="M8.66 57.248 6.623 45.535l2.773.727 2.051 11.778zm3.158 1.204-3.416-.971-2.15-12.348 3.401.892z" clip-rule="evenodd"/><path fill="#FFB26F" d="m43.845 54.99-1.39 12.159-3.32-.942 1.202-12.139z"/><path fill="#FFB26F" fill-rule="evenodd" d="m43.522 55.21-2.925-.768-1.144 11.548 2.747.78zm.323-.22-3.508-.922-1.202 12.139 3.32.942z" clip-rule="evenodd"/><path fill="#F18513" d="m46.662 52.878-2.817 2.111-1.39 12.16 2.583-2.65zM54.32 54.99l2.192-9.49 2.45-1.837-2.182 8.805z"/><path fill="#FFB26F" d="M25.373 50.147v2.578c0 1.222-.969 1.972-2.162 1.677-1.19-.295-2.158-1.53-2.158-2.752v-2.636l4.32 1.13z"/><path fill="#FFB26F" fill-rule="evenodd" d="m25.373 50.145-4.32-1.131v2.636c0 1.223.968 2.457 2.158 2.752 1.193.295 2.162-.455 2.162-1.677zm-.296.227-3.729-.976v2.254c0 1.086.875 2.203 1.934 2.466.52.128.965.025 1.276-.216.311-.242.52-.644.52-1.175z" clip-rule="evenodd"/><path fill="#FFDCC5" d="m33.174 12.58-9.071 19.916 35.89 7.003 9.906-21.755zm25.965 25.26-32.93-6.425 7.845-17.229 33.698 4.74z"/><path fill="#F18513" d="M24.298 34.028v3.812L15.18 42.2l-5.262-1.299z"/><path fill="#FFB26F" d="m24.298 37.84 28.012 5.435 4.098-2.982-32.11-6.265z"/><path fill="#FFB26F" fill-rule="evenodd" d="m52.24 42.961 3.446-2.508-31.093-6.067v3.21zM24.298 37.84l28.012 5.435 4.098-2.982-32.11-6.265z" clip-rule="evenodd"/><path fill="#C93E41" d="M24.298 37.84v6.611l-9.118-2.25z"/><path fill="#FFB26F" d="m59.913 36.141-30.156-5.698-3.549.974 32.931 6.425z"/><path fill="#FFB26F" fill-rule="evenodd" d="m29.77 30.746 29.718 5.616-.521 1.146-31.466-6.14zm29.37 7.096.773-1.7-30.156-5.7-3.549.975z" clip-rule="evenodd"/><path fill="#F18513" d="m34.053 14.186 1.736 2.32-6.032 13.934-3.549.975z"/><path fill="#FFB26F" d="M66.622 21.411 35.79 16.507l-1.736-2.321 33.699 4.739z"/><path fill="#FFB26F" fill-rule="evenodd" d="m66.447 21.084.874-1.922-32.605-4.585 1.239 1.657zM35.79 16.507l30.832 4.904 1.131-2.486-33.699-4.74zM59.94 39.79l-35.893-7.004.113-.58 35.893 7.004z" clip-rule="evenodd"/></g><defs><clipPath id="4x_a"><path fill="#fff" d="M0 0h80v80H0z"/></clipPath></defs></svg>