<svg xmlns="http://www.w3.org/2000/svg" width="40" height="40" fill="none" class="persona-ilustration" viewBox="0 0 40 40"><g clip-path="url(#58_a)"><path fill="#FFDCC5" d="m2.795 20.67 1.737 9.966 16.446 5.122 1.178-10.307z"/><path fill="#FFC79D" d="m29.998 19.75-7.842 5.701-1.178 10.308 6.922-7.544z"/><path fill="#FFDCC5" d="m2.795 20.671 9.257-4.423 17.946 3.502-7.842 5.701z"/><path fill="#E79EA1" d="m4.96 20.45 7.19-3.436 16.054 3.133-6.203 4.51zM13.104 15.707l3.923-8.614 16.849 2.37-4.306 9.457z"/><path fill="#F18513" d="M34.951 8.872 29.998 19.75s3.63.983 5.911-4.23c.895-2.129 1.305-5.454-.958-6.648"/><path fill="#FFC79D" d="M35.28 10.983c.082.248.142.552.163.927.052.935-.177 2.11-.612 3.148-.916 2.086-2.02 2.988-2.937 3.357l3.384-7.432z"/><path fill="#C93E41" d="m17.896 8.254-3.017 6.965s2.34-.282 3.46-2.508c.492-1.013.916-2.828-.444-4.457"/><path fill="#FFB26F" d="m22.156 25.45-.233 2.044-8.936-2.341-.3-.08-2.16-.566-7.402-1.941-.33-1.896z"/><path fill="#FFB26F" fill-rule="evenodd" d="m12.687 25.073.3.08 8.936 2.341.233-2.043-19.36-4.78.329 1.895zm-2.123-.709 2.16.566.3.08 8.771 2.298.2-1.745L2.98 20.868l.274 1.58z" clip-rule="evenodd"/><path fill="#FFB26F" d="m4.2 28.74.331 1.895 16.447 5.123.25-2.185z"/><path fill="#FFB26F" fill-rule="evenodd" d="m4.661 30.521-.274-1.575 16.68 4.735-.216 1.883zm16.317 5.237L4.53 30.635l-.33-1.896 17.026 4.834z" clip-rule="evenodd"/><path fill="#F18513" d="m21.922 27.495 6.334-4.745 1.225-.919.517-2.081-7.842 5.701zM21.227 33.574l-.25 2.185 6.923-7.544.49-1.982z"/><path fill="#FFB26F" d="m3.126 22.566 1.075 6.174 1.708.486-1.082-6.214z"/><path fill="#FFB26F" fill-rule="evenodd" d="m4.33 28.624-1.02-5.857 1.388.364 1.025 5.889zm1.579.602L4.2 28.74l-1.075-6.174 1.7.446z" clip-rule="evenodd"/><path fill="#FFB26F" d="m21.923 27.495-.696 6.08-1.66-.472.602-6.069z"/><path fill="#FFB26F" fill-rule="evenodd" d="m21.761 27.605-1.462-.384-.572 5.774 1.373.39zm.162-.11-1.754-.46-.601 6.068 1.66.471z" clip-rule="evenodd"/><path fill="#F18513" d="m23.33 26.439-1.408 1.055-.695 6.08 1.292-1.324zM27.16 27.495l1.096-4.745 1.225-.919-1.09 4.403z"/><path fill="#FFB26F" d="M12.686 25.074v1.288c0 .612-.484.987-1.08.84-.595-.149-1.08-.766-1.08-1.377v-1.318l2.16.565z"/><path fill="#FFB26F" fill-rule="evenodd" d="m12.686 25.072-2.16-.565v1.318c0 .611.485 1.228 1.08 1.376s1.08-.227 1.08-.838zm-.147.114-1.865-.488v1.127c0 .543.438 1.101.967 1.233.26.064.482.012.638-.108s.26-.322.26-.587z" clip-rule="evenodd"/><path fill="#FFDCC5" d="m16.587 6.29-4.535 9.958 17.945 3.502L34.95 8.872zM29.57 18.92l-16.466-3.213 3.923-8.614 16.85 2.37z"/><path fill="#F18513" d="M12.15 17.014v1.906L7.59 21.1l-2.63-.65z"/><path fill="#FFB26F" d="m12.149 18.92 14.006 2.718 2.05-1.491-16.056-3.133z"/><path fill="#FFB26F" fill-rule="evenodd" d="m26.12 21.48 1.723-1.253-15.546-3.034v1.605zm-13.971-2.56 14.006 2.718 2.05-1.491-16.056-3.133z" clip-rule="evenodd"/><path fill="#C93E41" d="M12.15 18.92v3.306L7.59 21.1z"/><path fill="#FFB26F" d="M29.956 18.07 14.88 15.222l-1.775.488L29.57 18.92z"/><path fill="#FFB26F" fill-rule="evenodd" d="m14.885 15.373 14.86 2.808-.262.573-15.733-3.07zM29.57 18.92l.386-.85-15.077-2.85-1.775.488z" clip-rule="evenodd"/><path fill="#F18513" d="m17.027 7.093.868 1.16-3.016 6.967-1.775.487z"/><path fill="#FFB26F" d="M33.311 10.706 17.895 8.253l-.868-1.16 16.85 2.37z"/><path fill="#FFB26F" fill-rule="evenodd" d="m33.224 10.542.437-.96-16.303-2.294.62.829zM17.895 8.253l15.416 2.453.566-1.244-16.85-2.37zM29.97 19.895l-17.947-3.502.057-.29 17.946 3.502z" clip-rule="evenodd"/></g><defs><clipPath id="58_a"><path fill="#fff" d="M0 0h40v40H0z"/></clipPath></defs></svg>