<svg xmlns="http://www.w3.org/2000/svg" width="300" height="300" fill="none" class="persona-ilustration" viewBox="0 0 300 300"><g clip-path="url(#62_a)"><g clip-path="url(#63_b)"><rect width="250" height="250" x="25" y="25" fill="#D3EDFF" rx="125"/><path fill="#AADBFF" d="m217.284 178.822-32.339 32.172s18.938 16.213 24.379 26.579c5.512 10.51 4.875 32.561 4.875 32.561-20.377 4.085-38.025 4.857-38.025 4.857s-148.153 1.223-150.776-25.419c-5.521-55.994 48.24-77.046 48.24-77.046 40.426-22.549 145.673-1.11 145.673-1.11s18.35 1.906 34.131 14.829c-10.064-3.748-22.022-6.49-36.158-7.423"/><path fill="#82C2F1" d="M208.369 273.803s-2.284-22.123-7.797-33.642c-3.174-6.637-13.043-17.989-20.662-24.264l39.871-48.934s.667-1.424 2.63-1.15c6.504.91 20.967 7.802 31.031 11.909 9.451 8.488 17.986 21.303 21.098 40.605 4.925 30.566-36.449 48.945-66.171 55.476"/><path fill="#A4A1E0" d="M88.474 197.396c1.294-1.579 3.832-1.026 4.352.948l2.562 9.739a2.5 2.5 0 0 0 1.508 1.692l9.38 3.664c1.901.742 2.159 3.327.442 4.431l-8.47 5.446a2.5 2.5 0 0 0-1.144 1.958l-.585 10.052c-.12 2.038-2.498 3.082-4.078 1.79l-7.797-6.372a2.5 2.5 0 0 0-2.215-.483l-9.742 2.549c-1.974.517-3.703-1.422-2.962-3.325l3.65-9.384a2.5 2.5 0 0 0-.224-2.256l-5.435-8.477c-1.102-1.718.209-3.961 2.247-3.845l10.053.573a2.5 2.5 0 0 0 2.076-.912z"/><path fill="#5141BA" fill-rule="evenodd" d="M90.213 199.498c.506.11.826.61.716 1.115l-3.46 15.877 15.952-1.653a.938.938 0 0 1 .193 1.865l-15.954 1.653 6.864 15.37a.937.937 0 1 1-1.712.765l-6.862-15.365-12.403 11.352a.938.938 0 0 1-1.266-1.384l12.429-11.374-13.748-8.135a.938.938 0 0 1 .954-1.614l13.72 8.118 3.461-15.874a.937.937 0 0 1 1.116-.716" clip-rule="evenodd"/><path fill="#F8F8F8" d="M239.305 198.818c-6.103-11.343-16.507-8.361-22.089-6.243 10.164 8.662 16.362 25.65 18.191 33.061l9.706-5.752c1.641-.972.951-3.488-.956-3.488h-4.852c.433-1.492 4.617-8.998 0-17.578"/><path fill="#E4E4E4" fill-rule="evenodd" d="M224.293 196.256a.625.625 0 0 1 .881-.071c2.974 2.527 5.172 4.709 6.805 7.916 1.625 3.193 2.666 7.351 3.439 13.796a.625.625 0 1 1-1.241.149c-.768-6.396-1.787-10.382-3.312-13.378-1.519-2.983-3.564-5.035-6.5-7.531a.626.626 0 0 1-.072-.881" clip-rule="evenodd"/><path fill="#E4E4E4" fill-rule="evenodd" d="M227.326 195.087a.626.626 0 0 1 .79-.398c6.353 2.092 10.678 9.974 9.844 21.897a.625.625 0 1 1-1.247-.087c.818-11.689-3.444-18.797-8.988-20.623a.625.625 0 0 1-.399-.789" clip-rule="evenodd"/></g><path fill="#FFDCC5" d="m59.765 117.387 12.039 69.097 114.036 35.522 8.169-71.473z"/><path fill="#FFC79D" d="m248.386 110.999-54.377 39.534-8.169 71.473 48-52.31z"/><path fill="#C93E41" fill-rule="evenodd" d="m178.437 184.289-98.258-28.18.565-1.968L179 182.321zM232.051 148.999l-40.617 37.896-12.128-3.302.538-1.976 11.028 3.003 39.782-37.118z" clip-rule="evenodd"/><path fill="#FFDCC5" d="m59.765 117.387 64.184-30.67L248.387 111l-54.378 39.534z"/><path fill="#E79EA1" d="m74.771 115.862 49.853-23.831 111.324 21.722-43.015 31.273zM131.245 82.97l27.199-59.73 116.832 16.43-29.861 65.576z"/><path fill="#C93E41" fill-rule="evenodd" d="m257.201 85.503-97.055-17.74.369-2.014 97.054 17.74zM266.149 63.877 165.839 47.58l.329-2.021 100.309 16.297z" clip-rule="evenodd"/><path fill="#F18513" d="M282.73 35.575 248.386 111s25.172 6.818 40.988-29.328c6.203-14.761 9.049-37.814-6.644-46.096"/><path fill="#FFC79D" d="M285.004 50.214c.573 1.72.992 3.828 1.136 6.428.358 6.48-1.229 14.628-4.248 21.825-6.347 14.464-14.004 20.719-20.361 23.278l23.462-51.531z"/><path fill="#C93E41" d="m164.467 31.286-20.914 48.297s16.225-1.956 23.995-17.392c3.409-7.023 6.347-19.604-3.081-30.905"/><path fill="#FFB26F" d="m194.009 150.533-1.617 14.168-61.963-16.236-2.078-.552-14.976-3.921-51.327-13.461-2.283-13.144z"/><path fill="#FFB26F" fill-rule="evenodd" d="m128.351 147.913 2.078.552 61.963 16.236 1.617-14.168-134.244-33.146 2.283 13.144zm.263-.99 2.075.552.003.001 60.817 15.935 1.381-12.1-131.848-32.555 1.902 10.951 50.69 13.295z" clip-rule="evenodd"/><path fill="#FFB26F" d="m69.51 173.341 2.293 13.144 114.037 35.521 1.73-15.15z"/><path fill="#FFB26F" fill-rule="evenodd" d="M72.704 185.693 70.8 174.771l115.655 32.832-1.491 13.058zm113.136 36.313L71.803 186.485l-2.293-13.144 118.06 33.515z" clip-rule="evenodd"/><path fill="#F18513" d="m192.39 164.701 43.916-32.901 8.496-6.367 3.583-14.434-54.377 39.534zM187.57 206.855l-1.73 15.151 48-52.31 3.398-13.737z"/><path fill="#C93E41" d="M130.428 148.465v7.872c0 3.993-2.928 6.716-7.78 6.552 3.265 0 5.692-2.426 5.692-6.03v-8.936l2.088.553z"/><path fill="#FFB26F" d="m62.058 130.531 7.452 42.809 11.844 3.368-7.504-43.086z"/><path fill="#FFB26F" fill-rule="evenodd" d="m70.408 172.532-7.069-40.607 9.616 2.521 7.11 40.832zm10.946 4.176L69.51 173.34l-7.452-42.809 11.792 3.091z" clip-rule="evenodd"/><path fill="#FFB26F" d="m192.391 164.701-4.821 42.154-11.507-3.265 4.167-42.083z"/><path fill="#FFB26F" fill-rule="evenodd" d="m191.273 165.465-10.143-2.663-3.963 40.037 9.522 2.702zm1.118-.764-12.161-3.194-4.167 42.083 11.507 3.265z" clip-rule="evenodd"/><path fill="#F18513" d="m202.156 157.382-9.766 7.319-4.821 42.154 8.957-9.182zM228.709 164.701l7.596-32.901 8.497-6.367-7.565 30.525z"/><path fill="#FFB26F" d="M128.349 147.913v8.936c0 4.238-3.358 6.838-7.493 5.815-4.126-1.024-7.483-5.303-7.483-9.541v-9.141l14.976 3.92z"/><path fill="#FFB26F" fill-rule="evenodd" d="m128.349 147.902-14.976-3.92v9.141c0 4.238 3.357 8.517 7.483 9.541 4.135 1.023 7.493-1.577 7.493-5.815zm-1.024.79-12.929-3.384v7.815c0 3.765 3.035 7.636 6.706 8.547m6.223-12.978v8.157c0 1.84-.721 3.235-1.799 4.072-1.079.836-2.623 1.195-4.424.749" clip-rule="evenodd"/><path fill="#C93E41" d="m81.355 176.709 3.183-1.669-7.104-40.476-3.583-.942z"/><path fill="#C93E41" fill-rule="evenodd" d="m83.4 174.48-1.278.67-6.989-40.132 1.406.369zm-5.966-39.916 7.104 40.476-3.183 1.669-7.504-43.087z" clip-rule="evenodd"/><path fill="#C93E41" d="m84.54 175.04 91.844 25.346-.318 3.204-94.71-26.882z"/><path fill="#C93E41" fill-rule="evenodd" d="m84.657 176.134-.553.29 91.064 25.847.112-1.128zm91.727 24.252L84.54 175.04l-3.184 1.668 94.71 26.882z" clip-rule="evenodd"/><path fill="#C93E41" d="m233.523 133.878-7.135 30.209 2.324.614 7.596-32.901zM197.039 193.998l29.349-29.911 2.324.614-32.185 32.972z"/><path fill="#FFDCC5" d="m155.396 17.671-31.447 69.047 124.427 24.281 34.344-75.424zm90.021 87.575-114.17-22.275 27.199-59.731 116.832 16.43z"/><path fill="#F18513" d="M124.624 92.03v13.216l-31.611 15.12-18.242-4.504z"/><path fill="#FFB26F" d="m124.625 105.246 97.115 18.846 14.209-10.339L124.625 92.03z"/><path fill="#FFB26F" fill-rule="evenodd" d="m221.498 123.002 11.948-8.695-107.798-21.034v11.129zm-96.873-17.756 97.115 18.846 14.209-10.339L124.625 92.03z" clip-rule="evenodd"/><path fill="#C93E41" d="M124.625 105.246v22.92l-31.611-7.8z"/><path fill="#FFB26F" d="M248.097 99.35 143.55 79.593l-12.305 3.378 114.17 22.275z"/><path fill="#FFB26F" fill-rule="evenodd" d="m143.592 80.643 103.033 19.471-1.807 3.973-109.092-21.285zm101.823 24.603 2.682-5.896L143.55 79.593l-12.305 3.378z" clip-rule="evenodd"/><path fill="#F18513" d="m158.444 23.24 6.019 8.046-20.913 48.307-12.305 3.378z"/><path fill="#FFB26F" d="M271.358 48.289 164.466 31.286l-6.019-8.046 116.832 16.43z"/><path fill="#FFB26F" fill-rule="evenodd" d="m270.749 47.156 3.031-6.663-113.04-15.897 4.297 5.744zm-106.283-15.87 106.892 17.003 3.921-8.62-116.832-16.43zM248.19 112.004 123.752 87.722l.393-2.009 124.437 24.281z" clip-rule="evenodd"/><path fill="#AADBFF" d="M175.069 207.675c6.433.934 7.737 2.548 12.302 6.387l1.727 11.371-122.42-35.898s-3.794-4.856 2.385-9.65c6.45 2.147 82.846 30.478 106.006 27.79"/><path fill="#82C2F1" d="M233.832 166.502c-3.725 2.16-7.179 2.492-15.498 11.98-5.518 8.788-12.26 17.708-21.355 23.235-1.085.661-3.535 2.981-4.396 4.628-5.357 5.558-10.826 12.899 0 22.055l44.117-56.312s.7-4.073-2.868-5.586"/></g><defs><clipPath id="62_a"><path fill="#fff" d="M0 0h300v300H0z"/></clipPath><clipPath id="63_b"><rect width="250" height="250" x="25" y="25" fill="#fff" rx="125"/></clipPath></defs></svg>