<svg xmlns="http://www.w3.org/2000/svg" width="16" height="16" fill="none"><path fill="#000" fill-rule="evenodd" d="M11.745 6.427c.13.001.261.051.361.151.347.347.593.593.795.774.2.181.332.274.443.33.212.106.417.117 1.142.117.284 0 .514.23.514.514 0 1.54-.63 2.611-1.474 3.738-.57.76-1.49 1.488-2.428 2.024-.927.53-1.964.925-2.784.925a.514.514 0 0 1-.515-.514c0-.725-.01-.93-.117-1.142-.055-.11-.148-.242-.33-.443-.179-.2-.421-.442-.762-.783a.514.514 0 0 1-.162-.376V9c0-.126.046-.248.13-.342L1.435 3.534a1.484 1.484 0 0 1 2.099-2.1l5.123 5.124a.514.514 0 0 1 .342-.13h2.746Zm-3.628 5.786a14.241 14.241 0 0 0-.448-.47l4.074-4.074c.177.174.331.323.47.448.228.205.44.369.671.485.331.166.665.21 1.057.222-.075.621-.29 1.158-.622 1.71l-1.213-1.213a.514.514 0 1 0-.727.728l1.35 1.35-.026.035c-.317.423-.795.861-1.345 1.254l-1.31-1.31a.514.514 0 0 0-.727.728l1.144 1.144c-.594.327-1.17.555-1.642.659-.013-.378-.06-.703-.22-1.025a3.071 3.071 0 0 0-.486-.671Zm1.095-4.757L7.456 9.212v1.289l3.045-3.045H9.212Zm-7.05-5.294a.456.456 0 0 0 0 .644L7.285 7.93l.644-.644-5.123-5.123a.455.455 0 0 0-.644 0Z" clip-rule="evenodd"/></svg>