<svg xmlns="http://www.w3.org/2000/svg" width="32" height="32" fill="none"><path fill="#000" fill-rule="evenodd" d="M14.273 5.001 2.771 24.987C2.001 26.325 2.961 28 4.498 28h23.004c1.537 0 2.497-1.675 1.727-3.013L17.727 5.001a1.99 1.99 0 0 0-3.454 0ZM16 19.171c-.564 0-1.02-.459-1.02-1.025V11.58c0-.567.456-1.027 1.02-1.027.563 0 1.02.46 1.02 1.027v6.566c0 .566-.457 1.026-1.02 1.026Zm-1.36 4.393c0-.756.609-1.368 1.36-1.368.751 0 1.36.612 1.36 1.368 0 .756-.609 1.369-1.36 1.369-.751 0-1.36-.613-1.36-1.369Z" clip-rule="evenodd"/></svg>