<svg xmlns="http://www.w3.org/2000/svg" width="20" height="20" fill="none" class="persona-icon" viewBox="0 0 20 20"><path fill="currentColor" fill-rule="evenodd" d="M6.915 2.432h3.495c.6 0 1.175.25 1.585.688l3.447 3.694c.375.402.583.93.583 1.48v6.334a2.94 2.94 0 0 1-2.939 2.94H6.915a2.94 2.94 0 0 1-2.94-2.94V5.371a2.94 2.94 0 0 1 2.94-2.94m4.482 3.71c0 .508.41.919.917.919h1.648l-2.565-2.75zm-4.483 7.09a.625.625 0 1 0 0 1.25h6.172a.625.625 0 0 0 0-1.25zm-.625-2.46c0 .344.28.624.625.624h6.172a.625.625 0 1 0 0-1.25H6.914a.625.625 0 0 0-.625.625m.625-3.712a.625.625 0 0 0 0 1.25h1.543a.625.625 0 0 0 0-1.25z" clip-rule="evenodd"/></svg>