<svg xmlns="http://www.w3.org/2000/svg" width="24" height="24" fill="none" class="persona-icon" viewBox="0 0 24 24"><path fill="currentColor" fill-rule="evenodd" d="M7.889 2a3.833 3.833 0 0 0-3.833 3.834v12.333A3.833 3.833 0 0 0 7.889 22h8.222a3.833 3.833 0 0 0 3.833-3.833v-8.44a2.8 2.8 0 0 0-.754-1.914l-4.593-4.921A2.8 2.8 0 0 0 12.546 2zm0 6.167h2.055a.75.75 0 1 1 0 1.5H7.89a.75.75 0 0 1 0-1.5m-.75 4.86a.75.75 0 0 1 .75-.75h8.222a.75.75 0 1 1 0 1.5H7.89a.75.75 0 0 1-.75-.75m.75 3.362h8.222a.75.75 0 1 1 0 1.5H7.89a.75.75 0 0 1 0-1.5m9.58-8.222h-2.386a1.306 1.306 0 0 1-1.305-1.305v-2.65z" clip-rule="evenodd"/></svg>