<svg xmlns="http://www.w3.org/2000/svg" width="32" height="32" fill="none" class="persona-icon" viewBox="0 0 32 32"><path fill="currentColor" fill-rule="evenodd" d="M10.857 3.428h5.826c.99 0 1.935.41 2.61 1.135l5.747 6.156c.617.661.96 1.532.96 2.437v10.558a4.857 4.857 0 0 1-4.857 4.857H10.857A4.857 4.857 0 0 1 6 23.714V8.285a4.857 4.857 0 0 1 4.857-4.857m7.429 6.143c0 .868.703 1.572 1.57 1.572H22.7l-4.414-4.73zm-7.429 11.857a1 1 0 1 0 0 2h10.286a1 1 0 1 0 0-2zm-1-4.143a1 1 0 0 0 1 1h10.286a1 1 0 1 0 0-2H10.857a1 1 0 0 0-1 1m1-6.142a1 1 0 1 0 0 2h2.572a1 1 0 1 0 0-2z" clip-rule="evenodd"/></svg>