<svg xmlns="http://www.w3.org/2000/svg" width="16" height="16" fill="none"><path fill="#000" fill-rule="evenodd" d="M8 1c-1.007 0-1.824.837-1.824 1.868 0 1.032.817 1.869 1.824 1.869 1.007 0 1.824-.837 1.824-1.869C9.824 1.837 9.007 1 8 1Zm-.848 1.868c0-.48.38-.868.848-.868.468 0 .848.389.848.868 0 .48-.38.869-.848.869a.858.858 0 0 1-.848-.869ZM7.199 5.105c-.765 0-1.491.343-1.988.939-.108.13-.194.275-.256.43h-.963c-.638 0-1.156.53-1.156 1.184v3.673a1.863 1.863 0 0 0-1.336 1.8C1.5 14.165 2.317 15 3.324 15c1.008 0 1.824-.836 1.824-1.868 0-.86-.565-1.583-1.336-1.801V7.658c0-.102.08-.184.18-.184h.883c.158.78.833 1.368 1.643 1.368h.994v2.489a1.863 1.863 0 0 0-1.336 1.8C6.176 14.165 6.993 15 8 15c1.007 0 1.824-.836 1.824-1.868 0-.86-.565-1.583-1.336-1.801V8.842h.994c.81 0 1.485-.587 1.643-1.368h.883c.1 0 .18.082.18.184v3.673a1.863 1.863 0 0 0-1.336 1.8c0 1.033.816 1.869 1.824 1.869 1.007 0 1.824-.836 1.824-1.868 0-.86-.566-1.583-1.336-1.801V7.658c0-.654-.518-1.184-1.156-1.184h-.963a1.598 1.598 0 0 0-.256-.43A2.588 2.588 0 0 0 8.8 5.105H7.2Zm1.602 1c.48 0 .934.215 1.245.588a.597.597 0 0 1 .138.382v.048a.71.71 0 0 1-.702.72H6.518a.71.71 0 0 1-.702-.72v-.048c0-.14.049-.275.138-.382a1.621 1.621 0 0 1 1.245-.588H8.8Zm-5.477 6.158a.858.858 0 0 0-.848.869c0 .48.38.868.848.868a.858.858 0 0 0 .848-.868c0-.48-.38-.869-.848-.869Zm3.828.869c0-.48.38-.869.848-.869.468 0 .848.389.848.869S8.468 14 8 14a.858.858 0 0 1-.848-.868Zm5.524-.869a.858.858 0 0 0-.848.869c0 .48.38.868.848.868a.858.858 0 0 0 .848-.868c0-.48-.38-.869-.848-.869Z" clip-rule="evenodd"/></svg>