<svg xmlns="http://www.w3.org/2000/svg" width="16" height="16" fill="none" class="persona-icon" viewBox="0 0 16 16"><path fill="currentColor" fill-rule="evenodd" d="M3.722 2C2.772 2 2 2.771 2 3.722V7.39a.5.5 0 0 0 .5.5h1.944V13.5a.5.5 0 0 0 .854.354l1.275-1.275a.72.72 0 0 1 1.021 0l.41.41a1.72 1.72 0 0 0 2.436 0l.41-.41a.72.72 0 0 1 1.022 0l1.274 1.275A.5.5 0 0 0 14 13.5V3.722C14 2.772 13.229 2 12.278 2zm0 1c.4 0 .722.323.722.722V6.89H3V3.722C3 3.323 3.323 3 3.722 3M7.39 4.444h3.667a.5.5 0 0 1 0 1H7.389a.5.5 0 1 1 0-1m0 1.834h1.833a.5.5 0 1 1 0 1H7.39a.5.5 0 0 1 0-1m0 1.833h1.833a.5.5 0 1 1 0 1H7.39a.5.5 0 0 1 0-1m3.667-.667a.667.667 0 1 1 0-1.333.667.667 0 0 1 0 1.333m0 1.834a.667.667 0 1 1 0-1.334.667.667 0 0 1 0 1.334" clip-rule="evenodd"/></svg>