<svg xmlns="http://www.w3.org/2000/svg" width="20" height="20" fill="none" class="persona-icon" viewBox="0 0 20 20"><path fill="currentColor" fill-rule="evenodd" d="M2.975 5.022c0-1.13.916-2.047 2.046-2.047h9.956c1.131 0 2.048.916 2.048 2.047V16.4a.625.625 0 0 1-1.067.442l-1.483-1.483a.797.797 0 0 0-1.128 0l-.477.477c-.8.8-2.096.8-2.896 0l-.477-.477a.797.797 0 0 0-1.128 0l-1.483 1.483A.625.625 0 0 1 5.82 16.4V9.914H3.6a.625.625 0 0 1-.624-.625zm2.844 3.642V5.022a.797.797 0 1 0-1.594 0v3.642zm3.47-2.845a.625.625 0 1 0 0 1.25h4.266a.625.625 0 1 0 0-1.25zm-.625 2.759c0 .345.28.625.625.625h2.133a.625.625 0 1 0 0-1.25H9.289a.625.625 0 0 0-.625.625m.625 1.508a.625.625 0 0 0 0 1.25h2.133a.625.625 0 1 0 0-1.25zm5.042-1.508a.776.776 0 1 0-1.551 0 .776.776 0 0 0 1.551 0m-.776 2.909a.776.776 0 1 0 0-1.552.776.776 0 0 0 0 1.552" clip-rule="evenodd"/></svg>