<svg xmlns="http://www.w3.org/2000/svg" width="16" height="16" fill="none" class="persona-icon" viewBox="0 0 16 16"><path fill="currentColor" fill-rule="evenodd" d="M13.597 9.863c.287.227.403.564.403.866v2.084c0 .646-.53 1.208-1.218 1.165a11.5 11.5 0 0 1-10.76-10.76C1.98 2.531 2.542 2 3.189 2H5.13c.449 0 .863.254 1.063.66.215.439.373.787.474 1.159.102.377.139.756.145 1.255.003.197-.045.389-.134.558l-.214.408a.16.16 0 0 0-.005.149A8.36 8.36 0 0 0 9.548 9.39a.16.16 0 0 0 .155-.003l.355-.189c.17-.09.365-.14.566-.138 1.304.019 2.265.244 2.973.803m-.62.785c-.453-.358-1.147-.57-2.368-.588a.2.2 0 0 0-.081.02l-.355.19a1.16 1.16 0 0 1-1.134-.019 9.36 9.36 0 0 1-3.457-3.584 1.16 1.16 0 0 1-.002-1.091l.213-.408a.2.2 0 0 0 .02-.081c-.005-.457-.039-.742-.11-1.007-.074-.271-.194-.545-.407-.978A.19.19 0 0 0 5.131 3H3.187c-.112 0-.17.085-.166.156a10.5 10.5 0 0 0 9.823 9.824c.07.004.156-.055.156-.168V10.73a.2.2 0 0 0-.012-.064q-.009-.018-.01-.017" clip-rule="evenodd"/></svg>