<svg xmlns="http://www.w3.org/2000/svg" width="16" height="16" fill="none" class="persona-icon" viewBox="0 0 16 16"><path fill="currentColor" fill-rule="evenodd" d="M13.591 9.859c.292.23.409.572.409.878v2.081c0 .655-.537 1.223-1.234 1.18a11.501 11.501 0 0 1-9.91-7.08 11.504 11.504 0 0 1-.854-3.684C1.96 2.537 2.527 2 3.182 2h1.941c.455 0 .874.257 1.076.668.216.438.374.787.475 1.16.103.38.14.759.146 1.258.003.2-.046.394-.136.565l-.213.408a.143.143 0 0 0-.006.134 8.337 8.337 0 0 0 3.08 3.193c.032.02.085.025.14-.004l.354-.189c.172-.092.37-.142.572-.14 1.305.02 2.269.244 2.98.806Zm-.638.809c-.449-.355-1.139-.567-2.356-.584a.155.155 0 0 0-.074.019l-.355.188c-.35.187-.786.196-1.148-.019a9.367 9.367 0 0 1-3.46-3.587 1.173 1.173 0 0 1-.002-1.104l.213-.408A.156.156 0 0 0 5.79 5.1c-.006-.456-.04-.74-.11-1.002-.073-.27-.192-.542-.405-.975a.169.169 0 0 0-.152-.093H3.182c-.104 0-.155.079-.151.14a10.477 10.477 0 0 0 9.8 9.8c.06.003.139-.048.139-.152v-2.081a.15.15 0 0 0-.01-.059.043.043 0 0 0-.007-.01Zm0 0Z" clip-rule="evenodd"/></svg>