<svg xmlns="http://www.w3.org/2000/svg" width="32" height="32" fill="none" class="persona-icon"><path fill="currentColor" d="M26.706 19.542c.57.448.796 1.115.796 1.708v3.955c0 1.272-1.044 2.379-2.4 2.293A22.038 22.038 0 0 1 4.507 6.902c-.086-1.355 1.02-2.4 2.293-2.4h3.682c.884 0 1.7.5 2.093 1.3.41.834.712 1.501.905 2.215.195.725.266 1.45.278 2.403.006.389-.09.766-.264 1.1l-.401.765a.278.278 0 0 0-.01.26 15.944 15.944 0 0 0 5.874 6.092c.063.037.165.05.27-.008l.665-.353a2.301 2.301 0 0 1 1.114-.272c2.491.036 4.335.465 5.7 1.538Zm-1.238 1.575c-.856-.672-2.17-1.076-4.491-1.11a.298.298 0 0 0-.143.037l-.665.354c-.681.363-1.529.38-2.233-.038a17.947 17.947 0 0 1-6.613-6.856 2.28 2.28 0 0 1-.005-2.149l.401-.766c.026-.05.037-.1.036-.142-.011-.867-.075-1.408-.21-1.908-.138-.512-.364-1.03-.768-1.853a.327.327 0 0 0-.295-.18H6.8c-.203 0-.301.152-.294.27A20.037 20.037 0 0 0 25.23 25.497c.117.008.27-.09.27-.293V21.25c0-.052-.01-.09-.02-.113a.078.078 0 0 0-.011-.02Zm-.001 0h.001-.001Z"/></svg>