<svg xmlns="http://www.w3.org/2000/svg" width="32" height="32" fill="none" class="persona-icon" viewBox="0 0 32 32"><path fill="currentColor" d="M26.706 19.542c.569.448.796 1.115.796 1.708v3.955c0 1.272-1.045 2.379-2.4 2.293A22.037 22.037 0 0 1 4.507 6.902c-.087-1.355 1.02-2.4 2.293-2.4h3.682c.883 0 1.699.5 2.092 1.3.41.834.713 1.501.905 2.215.196.725.267 1.45.28 2.403.005.389-.091.766-.265 1.1l-.402.765a.278.278 0 0 0-.01.26 15.943 15.943 0 0 0 5.875 6.092c.063.037.164.05.27-.008l.665-.353a2.302 2.302 0 0 1 1.113-.272c2.492.036 4.336.465 5.7 1.538Zm-1.239 1.575c-.855-.672-2.169-1.076-4.49-1.11a.298.298 0 0 0-.144.037l-.664.354c-.681.363-1.529.38-2.234-.038a17.948 17.948 0 0 1-6.612-6.856 2.28 2.28 0 0 1-.005-2.149l.4-.766c.027-.05.038-.1.037-.142-.012-.867-.075-1.408-.21-1.908-.138-.512-.364-1.03-.769-1.853a.327.327 0 0 0-.294-.18H6.8c-.203 0-.301.152-.294.27A20.032 20.032 0 0 0 25.23 25.497c.117.008.27-.09.27-.293V21.25c0-.052-.01-.09-.02-.113a.078.078 0 0 0-.012-.02Zm0 0Z"/></svg>