<svg xmlns="http://www.w3.org/2000/svg" width="20" height="20" fill="none" class="persona-icon" viewBox="0 0 20 20"><path fill="currentColor" d="M9.384 2.959a3.477 3.477 0 1 0 0 6.953 3.477 3.477 0 0 0 0-6.954"/><path fill="currentColor" fill-rule="evenodd" d="M14.136 9.485a.63.63 0 0 1 .48 0l2.852 1.189a.63.63 0 0 1 .385.577v3.168c0 1.108-.832 1.964-1.524 2.481a6.4 6.4 0 0 1-1.067.646 4 4 0 0 1-.447.184 1.4 1.4 0 0 1-.439.087c-.16 0-.325-.049-.438-.087a4 4 0 0 1-.447-.184c-.321-.152-.7-.371-1.068-.646-.692-.517-1.524-1.373-1.524-2.48v-3.17c0-.252.152-.48.385-.576zm1.894 3.871a.625.625 0 0 0-.884-.884l-.984.984-.27-.27a.625.625 0 1 0-.885.883l.713.713c.244.244.64.244.884 0z" clip-rule="evenodd"/><path fill="currentColor" d="M9.65 11.25q0-.23.054-.449H7.887a4.6 4.6 0 0 0-3.494 1.611 2.6 2.6 0 0 0-.624 1.695v.17a2.764 2.764 0 0 0 2.763 2.765h4.199c-.568-.64-1.082-1.519-1.082-2.623z"/></svg>