<svg xmlns="http://www.w3.org/2000/svg" width="24" height="24" fill="none" class="persona-icon" viewBox="0 0 24 24"><path fill="currentColor" d="M6.792 7.417a4.417 4.417 0 1 1 8.833 0 4.417 4.417 0 0 1-8.833 0"/><path fill="currentColor" fill-rule="evenodd" d="m17.915 11.388 3.667 1.527a.75.75 0 0 1 .461.693v4.074c0 1.397-1.05 2.483-1.937 3.147-.47.35-.954.63-1.364.825a5 5 0 0 1-.568.234 1.8 1.8 0 0 1-.547.109c-.197 0-.402-.06-.547-.109a5 5 0 0 1-.57-.234 8.2 8.2 0 0 1-1.362-.825c-.887-.664-1.938-1.75-1.938-3.147v-4.074a.75.75 0 0 1 .461-.693l3.667-1.527a.75.75 0 0 1 .577 0m1.8 3.829a.75.75 0 0 0-1.06 0L17.35 16.52l-.386-.387a.75.75 0 0 0-1.06 1.06l.916.917a.75.75 0 0 0 1.06 0l1.834-1.833a.75.75 0 0 0 0-1.06" clip-rule="evenodd"/><path fill="currentColor" d="M11.71 13.608v4.074c0 1.399.667 2.513 1.398 3.318H7.542a3.5 3.5 0 0 1-3.5-3.5v-.22c0-.786.28-1.546.79-2.144a5.85 5.85 0 0 1 4.452-2.052h2.488q-.061.255-.062.524"/></svg>