<svg xmlns="http://www.w3.org/2000/svg" width="32" height="32" fill="none" class="persona-icon" viewBox="0 0 32 32"><path fill="currentColor" d="M14.945 4a5.889 5.889 0 1 0 0 11.778 5.889 5.889 0 0 0 0-11.778M15.696 17.445q-.082.339-.083.699v5.432c0 1.865.89 3.35 1.864 4.424h-7.422a4.667 4.667 0 0 1-4.666-4.667v-.293c0-1.048.373-2.061 1.054-2.858a7.8 7.8 0 0 1 5.935-2.737z"/><path fill="currentColor" fill-rule="evenodd" d="M23.887 15.184a1 1 0 0 0-.77 0L18.23 17.22a1 1 0 0 0-.616.923v5.432c0 1.862 1.401 3.311 2.584 4.196.625.467 1.272.84 1.817 1.1.273.129.532.236.759.312.194.065.468.145.73.145.26 0 .535-.08.729-.145.227-.076.485-.183.758-.313.546-.259 1.193-.632 1.817-1.1 1.183-.884 2.584-2.333 2.584-4.195v-5.432a1 1 0 0 0-.615-.923zm2.4 5.105a1 1 0 0 1 0 1.414l-2.445 2.444a1 1 0 0 1-1.414 0l-1.223-1.222a1 1 0 0 1 1.415-1.414l.515.515 1.737-1.737a1 1 0 0 1 1.414 0" clip-rule="evenodd"/></svg>