<svg xmlns="http://www.w3.org/2000/svg" width="24" height="24" fill="none" class="persona-icon" viewBox="0 0 24 24"><path fill="currentColor" d="M7.406 4.357a.97.97 0 0 1 .987-.329l.009.002.532.135h.001c.39.098.713.327.94.648l.005.006 3.98 5.727c.087.123.13.157.144.167.007.005.03.02.117.037l.009.001 4.687.933h.001c.788.155 1.539.508 2.085 1.01.545.501.957 1.228.821 2.073v.008l-.002.007c-.165.909-.846 1.458-1.598 1.704-.74.242-1.62.226-2.452 0l-12.893-3.47c-.775-.207-1.517-.668-1.706-1.562l-.001-.005-.798-3.896V7.55a1.07 1.07 0 0 1 .143-.801c.169-.26.43-.41.7-.462l.275-.058c.205-.045.45-.067.706.01.269.079.46.238.598.396l.004.005L7.02 9.353l1.205.236-1.019-4.313c-.065-.29-.029-.639.199-.919M3.9 18.5a.75.75 0 1 0 0 1.5h16.2a.75.75 0 0 0 0-1.5z"/></svg>