<svg xmlns="http://www.w3.org/2000/svg" width="32" height="32" fill="none" class="persona-icon" viewBox="0 0 32 32"><path fill="currentColor" d="M11.538 6.037a1.27 1.27 0 0 0-1.295.432 1.4 1.4 0 0 0-.26 1.2l1.24 5.25-1.367-.268L6.99 9.303l-.005-.006a1.64 1.64 0 0 0-.775-.515 1.8 1.8 0 0 0-.91-.012l-.342.072c-.35.068-.691.262-.913.603-.22.339-.254.72-.187 1.046v.002l.99 4.837.002.007c.243 1.146 1.194 1.731 2.168 1.992l16.005 4.307c1.043.283 2.15.304 3.084-.002.95-.31 1.82-1.008 2.03-2.168l.001-.01.002-.01c.173-1.08-.354-2.003-1.04-2.635-.69-.633-1.634-1.077-2.623-1.27h-.001l-5.819-1.159-.012-.002a.6.6 0 0 1-.118-.035.8.8 0 0 1-.16-.19l-4.943-7.11-.005-.006a2.1 2.1 0 0 0-1.207-.831h-.002l-.66-.168zM4.945 25a1 1 0 0 1 1-1h20.11a1 1 0 1 1 0 2H5.946a1 1 0 0 1-1-1"/></svg>