<svg xmlns="http://www.w3.org/2000/svg" width="32" height="32" fill="none" class="persona-icon" viewBox="0 0 32 32"><path fill="currentColor" d="m11.538 6.037.012.003.66.167h.002c.5.126.915.42 1.207.832l.005.007 4.942 7.11a.8.8 0 0 0 .161.19l.02.009a1 1 0 0 0 .098.025l.012.002 5.819 1.159h.001c.989.193 1.933.637 2.622 1.27.687.632 1.214 1.555 1.04 2.636v.01l-.002.01c-.21 1.16-1.08 1.857-2.03 2.167-.934.306-2.041.285-3.084.002L7.018 17.33c-.974-.26-1.925-.846-2.168-1.992l-.001-.007-.99-4.837v-.002a1.4 1.4 0 0 1 .186-1.046c.222-.341.564-.535.913-.604L5.3 8.77c.26-.057.577-.086.91.012.35.104.598.311.775.515l.005.005 2.866 3.35 1.367.267-1.24-5.25a1.4 1.4 0 0 1 .26-1.2 1.27 1.27 0 0 1 1.295-.432M4.945 25a1 1 0 0 1 1-1h20.11a1 1 0 1 1 0 2H5.946a1 1 0 0 1-1-1"/></svg>