<svg xmlns="http://www.w3.org/2000/svg" width="16" height="16" fill="none" class="persona-icon"><path fill="currentColor" d="M4.152 6.267c-.791-.791-1.217-2.394-.033-3.578 1.19-1.19 2.782-.738 3.582.062l4.77 4.77c.74.74 1.168 1.62 1.205 2.526.037.912-.324 1.794-1.052 2.521-.726.727-1.62 1.1-2.543 1.078-.921-.023-1.822-.438-2.577-1.192L2.442 7.392a.5.5 0 1 1 .707-.707l5.062 5.062c.602.602 1.268.884 1.894.899.624.015 1.26-.232 1.812-.785.552-.552.784-1.17.76-1.774-.025-.609-.315-1.26-.914-1.86l-4.77-4.77c-.54-.539-1.487-.741-2.167-.06-.687.686-.483 1.647.033 2.163l4.982 4.982.004.003a.841.841 0 0 0 .27.143c.138.043.297.05.489-.14a.415.415 0 0 0 .131-.227.438.438 0 0 0-.024-.211.897.897 0 0 0-.151-.271l-.005-.007-2.74-2.739a.5.5 0 1 1 .708-.707l2.75 2.75.023.024c.01.012-.007-.007-.007-.007l.001.001.002.002.004.004.01.012a1.686 1.686 0 0 1 .127.167c.071.106.162.261.226.451.064.191.107.432.063.697a1.41 1.41 0 0 1-.411.768c-.505.504-1.073.517-1.489.39a1.854 1.854 0 0 1-.635-.346l-.013-.011-.004-.004-.002-.002a.543.543 0 0 1-.02-.018L4.152 6.267Zm7.144 2.893-.007-.007a.476.476 0 0 0-.015-.016l.022.023Z"/></svg>