<svg xmlns="http://www.w3.org/2000/svg" width="20" height="20" fill="none" class="persona-icon" viewBox="0 0 20 20"><path fill="currentColor" fill-rule="evenodd" d="M5.413 8.052c-.956-.956-1.473-2.896-.04-4.328 1.44-1.44 3.367-.893 4.334.074l5.628 5.628c.893.893 1.41 1.953 1.454 3.048.045 1.102-.391 2.167-1.269 3.045-.876.876-1.954 1.327-3.07 1.3-1.113-.027-2.2-.528-3.11-1.437L3.267 9.307a.625.625 0 1 1 .884-.884l6.075 6.075c.718.718 1.511 1.053 2.255 1.071.741.019 1.497-.275 2.156-.934.658-.658.933-1.393.904-2.11-.03-.723-.373-1.5-1.088-2.215l-5.63-5.629c-.64-.64-1.761-.877-2.565-.074-.811.812-.573 1.949.04 2.561l5.882 5.883.004.003.07.05c.065.042.151.089.246.117.158.049.34.06.561-.162.11-.11.141-.198.151-.258a.5.5 0 0 0-.028-.242 1 1 0 0 0-.182-.324L9.715 8.949a.625.625 0 1 1 .884-.884l3.3 3.301-.44.443.46-.423.001.001.002.002.005.006.013.015.039.046q.046.058.115.156c.086.128.196.317.274.548s.13.525.076.847c-.056.331-.216.652-.5.936-.613.613-1.305.629-1.811.474a2.3 2.3 0 0 1-.771-.42l-.016-.013-.005-.005-.003-.002v-.001c-.001 0-.002-.001.417-.465l-.419.464-.023-.022zm8.045 3.757.46-.423-.018-.02z" clip-rule="evenodd"/></svg>