<svg xmlns="http://www.w3.org/2000/svg" width="20" height="20" fill="none"><path fill="#000" fill-rule="evenodd" d="M5.571 7.997c-.914-.914-1.414-2.76-.06-4.115 1.362-1.362 3.196-.832 4.12.093l5.497 5.496c.855.855 1.351 1.867 1.4 2.91.048 1.048-.362 2.06-1.193 2.89-.83.83-1.853 1.254-2.916 1.223-1.059-.032-2.096-.514-2.967-1.385L3.619 9.276a.583.583 0 0 1-.004-.825.584.584 0 0 1 .825.004l5.833 5.833c.691.692 1.454 1.018 2.169 1.04.711.02 1.435-.258 2.064-.886.627-.628.888-1.332.856-2.02-.032-.696-.367-1.442-1.055-2.13L8.81 4.795c-.62-.62-1.7-.855-2.47-.085-.777.778-.54 1.874.051 2.466l5.74 5.74a.982.982 0 0 0 .311.167c.156.048.334.06.55-.156a.46.46 0 0 0 .146-.253.493.493 0 0 0-.029-.237 1.034 1.034 0 0 0-.173-.309l-.005-.006-3.156-3.156a.583.583 0 0 1-.004-.825.584.584 0 0 1 .825.004l3.17 3.17-.41.41.427-.391.002.001.001.002.005.005.013.014.036.045a2.216 2.216 0 0 1 .373.67c.075.22.126.497.077.802-.051.313-.202.616-.47.884-.577.578-1.233.59-1.713.44a2.159 2.159 0 0 1-.734-.402l-.015-.013-.005-.005-.002-.001-.001-.001s-.001-.001.388-.432l-.389.431a.587.587 0 0 1-.021-.02L5.57 7.997Zm7.785 3.73.428-.392a.637.637 0 0 0-.018-.02l-.41.412Z" clip-rule="evenodd"/></svg>