<svg xmlns="http://www.w3.org/2000/svg" width="16" height="16" fill="none" class="persona-icon" viewBox="0 0 16 16"><path fill="currentColor" fill-rule="evenodd" d="M1.5 3.647C1.5 2.185 2.703 1 4.187 1h7.263c1.484 0 2.687 1.185 2.687 2.647v5.725c0 .276-.227.5-.508.5a.504.504 0 0 1-.507-.5V3.647A1.66 1.66 0 0 0 11.45 2H4.187a1.66 1.66 0 0 0-1.672 1.647v8.587c0 .91.748 1.647 1.672 1.647h2.905c.28 0 .508.224.508.5s-.228.5-.508.5H4.187c-1.484 0-2.687-1.185-2.687-2.647z" clip-rule="evenodd"/><path fill="currentColor" fill-rule="evenodd" d="M3.68 4.72c0-.869.714-1.573 1.596-1.573h5.085c.882 0 1.597.704 1.597 1.573 0 .87-.715 1.574-1.597 1.574H5.276A1.585 1.585 0 0 1 3.68 4.72m1.596-.573a.58.58 0 0 0-.582.573c0 .317.26.574.582.574h5.085a.58.58 0 0 0 .582-.574.58.58 0 0 0-.582-.573zM3.535 7.94c0-.276.227-.5.507-.5h1.015c.28 0 .508.224.508.5s-.227.5-.508.5H4.042a.504.504 0 0 1-.507-.5M3.535 10.055c0-.276.227-.5.507-.5h1.015c.28 0 .508.224.508.5s-.227.5-.508.5H4.042a.504.504 0 0 1-.507-.5M3.535 12.17c0-.277.227-.5.507-.5h1.015c.28 0 .508.223.508.5 0 .276-.227.5-.508.5H4.042a.504.504 0 0 1-.507-.5M6.803 7.94c0-.276.228-.5.508-.5h1.015c.28 0 .507.224.507.5s-.227.5-.507.5H7.31a.504.504 0 0 1-.508-.5M6.803 10.055c0-.276.228-.5.508-.5h1.015c.28 0 .507.224.507.5s-.227.5-.507.5H7.31a.504.504 0 0 1-.508-.5M10.072 7.94c0-.276.227-.5.508-.5h1.015c.28 0 .507.224.507.5s-.227.5-.507.5h-1.016a.504.504 0 0 1-.507-.5M10.072 10.055c0-.276.227-.5.508-.5h1.015c.28 0 .507.224.507.5s-.227.5-.507.5h-1.016a.504.504 0 0 1-.507-.5M14.351 11.165a.495.495 0 0 1 0 .707l-3.026 2.982a.51.51 0 0 1-.73-.013L8.9 13.052a.495.495 0 0 1 .025-.707.513.513 0 0 1 .717.025l1.337 1.41 2.655-2.615a.513.513 0 0 1 .717 0" clip-rule="evenodd"/></svg>