<svg xmlns="http://www.w3.org/2000/svg" width="20" height="20" fill="none" class="persona-icon" viewBox="0 0 20 20"><path fill="currentColor" fill-rule="evenodd" d="M3.686 5.733a2.76 2.76 0 0 1 2.758-2.758h7.112a2.76 2.76 0 0 1 2.758 2.758v5.69a.625.625 0 1 1-1.25 0v-5.69c0-.833-.675-1.508-1.508-1.508H6.444c-.833 0-1.508.675-1.508 1.508v8.534c0 .833.675 1.508 1.508 1.508H9.29a.625.625 0 1 1 0 1.25H6.444a2.76 2.76 0 0 1-2.758-2.758zm2.133.711c0-.737.599-1.336 1.337-1.336h5.688c.738 0 1.337.599 1.337 1.336v.712c0 .737-.599 1.336-1.337 1.336H7.156a1.336 1.336 0 0 1-1.337-1.337zm0 3.556c0-.345.28-.625.625-.625h.712a.625.625 0 1 1 0 1.25h-.712A.625.625 0 0 1 5.82 10m0 2.101c0-.345.28-.625.625-.625h.712a.625.625 0 1 1 0 1.25h-.712a.625.625 0 0 1-.625-.625m0 2.102c0-.345.28-.625.625-.625h.712a.625.625 0 1 1 0 1.25h-.712a.625.625 0 0 1-.625-.625m1.337-7.845a.086.086 0 0 0-.087.086v.712c0 .047.039.086.087.086h5.688a.086.086 0 0 0 .087-.087v-.71a.086.086 0 0 0-.087-.087zM9.019 10c0-.345.28-.625.625-.625h.711a.625.625 0 1 1 0 1.25h-.71A.625.625 0 0 1 9.018 10m0 2.101c0-.345.28-.625.625-.625h.711a.625.625 0 1 1 0 1.25h-.71a.625.625 0 0 1-.626-.625m7.467 1.012a.625.625 0 0 1 0 .884l-2.963 2.963a.625.625 0 0 1-.899-.015l-1.659-1.778a.625.625 0 0 1 .914-.853l1.218 1.305 2.505-2.505a.625.625 0 0 1 .884 0M12.22 10c0-.345.28-.625.625-.625h.712a.625.625 0 1 1 0 1.25h-.712A.625.625 0 0 1 12.22 10m0 2.101c0-.345.28-.625.625-.625h.712a.625.625 0 1 1 0 1.25h-.712a.625.625 0 0 1-.625-.625" clip-rule="evenodd"/></svg>