<svg xmlns="http://www.w3.org/2000/svg" width="24" height="24" fill="none" class="persona-icon" viewBox="0 0 24 24"><path fill="currentColor" fill-rule="evenodd" d="M3.917 6.5a3.5 3.5 0 0 1 3.5-3.5h9.166a3.5 3.5 0 0 1 3.5 3.5v7.333a.75.75 0 0 1-1.5 0V6.5a2 2 0 0 0-2-2H7.417a2 2 0 0 0-2 2v11a2 2 0 0 0 2 2h3.666a.75.75 0 0 1 0 1.5H7.417a3.5 3.5 0 0 1-3.5-3.5zm2.75.917c0-.92.746-1.667 1.666-1.667h7.334c.92 0 1.666.746 1.666 1.667v.916c0 .92-.746 1.667-1.666 1.667H8.333c-.92 0-1.666-.746-1.666-1.667zm0 4.583a.75.75 0 0 1 .75-.75h.916a.75.75 0 0 1 0 1.5h-.916a.75.75 0 0 1-.75-.75m0 2.709a.75.75 0 0 1 .75-.75h.916a.75.75 0 0 1 0 1.5h-.916a.75.75 0 0 1-.75-.75m0 2.709a.75.75 0 0 1 .75-.75h.916a.75.75 0 0 1 0 1.5h-.916a.75.75 0 0 1-.75-.75M8.333 7.25a.167.167 0 0 0-.166.167v.916c0 .092.074.167.166.167h7.334a.167.167 0 0 0 .166-.167v-.916a.167.167 0 0 0-.166-.167zM10.792 12a.75.75 0 0 1 .75-.75h.916a.75.75 0 0 1 0 1.5h-.916a.75.75 0 0 1-.75-.75m0 2.709a.75.75 0 0 1 .75-.75h.916a.75.75 0 0 1 0 1.5h-.916a.75.75 0 0 1-.75-.75m9.53 1.344a.75.75 0 0 1 0 1.06l-3.82 3.82a.75.75 0 0 1-1.078-.018l-2.139-2.292a.75.75 0 0 1 1.097-1.024l1.609 1.724 3.27-3.27a.75.75 0 0 1 1.061 0M14.917 12a.75.75 0 0 1 .75-.75h.916a.75.75 0 0 1 0 1.5h-.916a.75.75 0 0 1-.75-.75m0 2.709a.75.75 0 0 1 .75-.75h.916a.75.75 0 0 1 0 1.5h-.916a.75.75 0 0 1-.75-.75" clip-rule="evenodd"/></svg>