<svg xmlns="http://www.w3.org/2000/svg" width="24" height="24" fill="none" class="persona-icon" viewBox="0 0 24 24"><path fill="currentColor" fill-rule="evenodd" d="M3 5.814C3 3.707 4.679 2 6.75 2h10c2.071 0 3.75 1.707 3.75 3.814v8.135a.756.756 0 0 1-.75.763.756.756 0 0 1-.75-.763V5.814c0-1.264-1.007-2.289-2.25-2.289h-10c-1.243 0-2.25 1.025-2.25 2.289v12.203c0 1.264 1.007 2.288 2.25 2.288h4c.414 0 .75.342.75.763a.756.756 0 0 1-.75.762h-4C4.679 21.83 3 20.124 3 18.018z" clip-rule="evenodd"/><path fill="currentColor" fill-rule="evenodd" d="M6 7.339c0-1.264 1.007-2.288 2.25-2.288h7c1.243 0 2.25 1.024 2.25 2.288s-1.007 2.288-2.25 2.288h-7C7.007 9.627 6 8.603 6 7.34m2.25-.763a.756.756 0 0 0-.75.763c0 .421.336.763.75.763h7c.414 0 .75-.342.75-.763a.756.756 0 0 0-.75-.763zM6 11.915c0-.421.336-.762.75-.762h1c.414 0 .75.341.75.762a.756.756 0 0 1-.75.763h-1a.756.756 0 0 1-.75-.763M6 14.92c0-.42.336-.762.75-.762h1c.414 0 .75.341.75.763a.756.756 0 0 1-.75.762h-1a.756.756 0 0 1-.75-.762M6 17.926c0-.422.336-.763.75-.763h1c.414 0 .75.341.75.763a.756.756 0 0 1-.75.762h-1a.756.756 0 0 1-.75-.762M10.5 11.915c0-.421.336-.762.75-.762h1c.414 0 .75.341.75.762a.756.756 0 0 1-.75.763h-1a.756.756 0 0 1-.75-.763M10.5 14.92c0-.42.336-.762.75-.762h1c.414 0 .75.341.75.763a.756.756 0 0 1-.75.762h-1a.756.756 0 0 1-.75-.762M15 11.915c0-.421.336-.762.75-.762h1c.414 0 .75.341.75.762a.756.756 0 0 1-.75.763h-1a.756.756 0 0 1-.75-.763M15 14.92c0-.42.336-.762.75-.762h1c.414 0 .75.341.75.763a.756.756 0 0 1-.75.762h-1a.756.756 0 0 1-.75-.762M20.78 16.46a.77.77 0 0 1 0 1.08l-4.166 4.237a.743.743 0 0 1-1.079-.02l-2.333-2.542a.77.77 0 0 1 .036-1.078.74.74 0 0 1 1.06.037l1.804 1.966 3.618-3.68a.74.74 0 0 1 1.06 0" clip-rule="evenodd"/></svg>