<svg xmlns="http://www.w3.org/2000/svg" width="32" height="32" fill="none" class="persona-icon" viewBox="0 0 32 32"><path fill="currentColor" d="M3.002 7.296c0-2.924 2.406-5.294 5.373-5.294h14.528c2.967 0 5.373 2.37 5.373 5.294v11.45c0 .552-.455 1-1.015 1-.56 0-1.015-.448-1.015-1V7.295c0-1.82-1.497-3.294-3.343-3.294H8.375c-1.846 0-3.343 1.475-3.343 3.294V24.47c0 1.82 1.497 3.294 3.343 3.294h5.811c.56 0 1.015.448 1.015 1s-.454 1-1.015 1h-5.81c-2.968 0-5.374-2.37-5.374-5.294V7.296Z"/><path fill="currentColor" d="M7.36 9.443c0-1.738 1.43-3.147 3.195-3.147h10.169c1.764 0 3.194 1.409 3.194 3.147 0 1.738-1.43 3.146-3.194 3.146h-10.17c-1.764 0-3.194-1.408-3.194-3.146Zm3.195-1.147c-.643 0-1.165.513-1.165 1.147 0 .633.522 1.146 1.165 1.146h10.169c.642 0 1.164-.513 1.164-1.146 0-.634-.522-1.147-1.165-1.147H10.556ZM7.36 15.883c0-.552.455-1 1.015-1h1.453c.56 0 1.015.448 1.015 1s-.454 1-1.015 1H8.375c-.56 0-1.015-.448-1.015-1ZM7.36 20.113c0-.553.455-1 1.015-1h1.453c.56 0 1.015.447 1.015 1 0 .552-.454 1-1.015 1H8.375c-.56 0-1.015-.448-1.015-1ZM7.36 24.342c0-.553.455-1 1.015-1h1.453c.56 0 1.015.447 1.015 1 0 .552-.454 1-1.015 1H8.375c-.56 0-1.015-.448-1.015-1ZM13.898 15.883c0-.552.454-1 1.015-1h1.452c.561 0 1.015.448 1.015 1s-.454 1-1.015 1h-1.452c-.56 0-1.015-.448-1.015-1ZM13.898 20.113c0-.553.454-1 1.015-1h1.452c.561 0 1.015.447 1.015 1 0 .552-.454 1-1.015 1h-1.452c-.56 0-1.015-.448-1.015-1ZM20.435 15.883c0-.552.454-1 1.015-1h1.453c.56 0 1.015.448 1.015 1s-.455 1-1.015 1H21.45c-.56 0-1.015-.448-1.015-1ZM20.435 20.113c0-.553.454-1 1.015-1h1.453c.56 0 1.015.447 1.015 1 0 .552-.455 1-1.015 1H21.45c-.56 0-1.015-.448-1.015-1ZM28.705 22.332a.99.99 0 0 1 0 1.414l-6.053 5.963a1.023 1.023 0 0 1-1.46-.024l-3.39-3.578a.99.99 0 0 1 .05-1.414 1.026 1.026 0 0 1 1.434.049l2.673 2.821 5.31-5.231c.397-.39 1.04-.39 1.436 0Z"/></svg>