<svg xmlns="http://www.w3.org/2000/svg" width="32" height="32" fill="none" class="persona-icon" viewBox="0 0 32 32"><path fill="currentColor" fill-rule="evenodd" d="M5.222 8.667A4.667 4.667 0 0 1 9.89 4H22.11a4.667 4.667 0 0 1 4.667 4.667v9.777a1 1 0 1 1-2 0V8.667A2.667 2.667 0 0 0 22.11 6H9.89a2.667 2.667 0 0 0-2.667 2.667v14.666A2.667 2.667 0 0 0 9.89 26h4.889a1 1 0 1 1 0 2h-4.89a4.667 4.667 0 0 1-4.666-4.667zM8.89 9.889c0-1.227.995-2.222 2.222-2.222h9.778c1.227 0 2.222.995 2.222 2.222v1.222a2.22 2.22 0 0 1-2.222 2.222H11.11a2.22 2.22 0 0 1-2.222-2.222zm0 6.111a1 1 0 0 1 1-1h1.222a1 1 0 0 1 0 2H9.89a1 1 0 0 1-1-1m0 3.612a1 1 0 0 1 1-1h1.222a1 1 0 0 1 0 2H9.89a1 1 0 0 1-1-1m0 3.612a1 1 0 0 1 1-1h1.222a1 1 0 0 1 0 2H9.89a1 1 0 0 1-1-1M11.11 9.667c-.123 0-.222.1-.222.222v1.222c0 .123.1.222.222.222h9.778c.123 0 .222-.1.222-.222V9.89c0-.123-.1-.222-.222-.222zM14.39 16a1 1 0 0 1 1-1h1.222a1 1 0 0 1 0 2H15.39a1 1 0 0 1-1-1m0 3.612a1 1 0 0 1 1-1h1.222a1 1 0 0 1 0 2H15.39a1 1 0 0 1-1-1m12.707 1.792a1 1 0 0 1 0 1.414l-5.093 5.093a1 1 0 0 1-1.438-.025l-2.852-3.055a1 1 0 0 1 1.462-1.365l2.146 2.299 4.36-4.361a1 1 0 0 1 1.415 0M19.889 16a1 1 0 0 1 1-1h1.222a1 1 0 0 1 0 2H20.89a1 1 0 0 1-1-1m0 3.612a1 1 0 0 1 1-1h1.222a1 1 0 0 1 0 2H20.89a1 1 0 0 1-1-1" clip-rule="evenodd"/></svg>