<svg xmlns="http://www.w3.org/2000/svg" width="16" height="16" fill="none" class="persona-icon" viewBox="0 0 16 16"><path fill="currentColor" fill-rule="evenodd" d="M3.699 10.05A3.95 3.95 0 0 1 6.7 8.668h2.6c1.154 0 2.251.505 3 1.384.344.402.533.914.533 1.443v.173A2.333 2.333 0 0 1 10.5 14h-5a2.333 2.333 0 0 1-2.333-2.333v-.173c0-.529.188-1.04.532-1.443M6.7 9.668c-.862 0-1.68.377-2.24 1.033a1.22 1.22 0 0 0-.293.794v.173c0 .736.596 1.333 1.333 1.333h5c.736 0 1.333-.597 1.333-1.333v-.173c0-.291-.104-.573-.293-.794A2.95 2.95 0 0 0 9.3 9.667zM5.055 4.944a2.944 2.944 0 1 1 5.89 0 2.944 2.944 0 0 1-5.89 0M8 3a1.945 1.945 0 1 0 0 3.889A1.945 1.945 0 0 0 8 3" clip-rule="evenodd"/></svg>