<svg xmlns="http://www.w3.org/2000/svg" width="16" height="16" fill="none" class="persona-icon" viewBox="0 0 16 16"><path fill="currentColor" fill-rule="evenodd" d="M3.763 10.064a3.9 3.9 0 0 1 2.992-1.398h2.49c1.155 0 2.25.512 2.992 1.398.331.396.513.896.513 1.413v.19A2.333 2.333 0 0 1 10.417 14H5.583a2.333 2.333 0 0 1-2.333-2.334v-.19c0-.516.182-1.016.513-1.412m2.992-.398c-.859 0-1.673.381-2.225 1.04a1.2 1.2 0 0 0-.28.77v.19c0 .737.597 1.334 1.333 1.334h4.834c.736 0 1.333-.597 1.333-1.334v-.19a1.2 1.2 0 0 0-.28-.77 2.9 2.9 0 0 0-2.225-1.04zm-1.7-4.722a2.944 2.944 0 1 1 5.89 0 2.944 2.944 0 0 1-5.89 0M8 3a1.945 1.945 0 1 0 0 3.889A1.945 1.945 0 0 0 8 3" clip-rule="evenodd"/></svg>