<svg xmlns="http://www.w3.org/2000/svg" width="20" height="20" fill="none" class="persona-icon" viewBox="0 0 20 20"><path fill="currentColor" fill-rule="evenodd" d="M5.078 12.362a4.55 4.55 0 0 1 3.488-1.63h2.868c1.347 0 2.624.597 3.488 1.63.39.466.603 1.053.603 1.66v.202a2.76 2.76 0 0 1-2.758 2.759H7.234a2.76 2.76 0 0 1-2.759-2.759v-.202c0-.607.214-1.194.603-1.66m3.488-.38c-.976 0-1.903.433-2.53 1.183-.2.24-.31.544-.31.857v.202c0 .833.674 1.508 1.508 1.508h5.533c.833 0 1.508-.675 1.508-1.508v-.202c0-.313-.11-.617-.311-.857a3.3 3.3 0 0 0-2.53-1.182zM6.531 6.406a3.47 3.47 0 1 1 6.939 0 3.47 3.47 0 0 1-6.94 0M10 4.185a2.22 2.22 0 1 0 0 4.439 2.22 2.22 0 0 0 0-4.439" clip-rule="evenodd"/></svg>