<svg xmlns="http://www.w3.org/2000/svg" width="20" height="20" fill="none" class="persona-icon" viewBox="0 0 20 20"><path fill="currentColor" fill-rule="evenodd" d="M6.89 6.762a.625.625 0 0 1-.007.884L4.49 10l2.392 2.355a.625.625 0 1 1-.877.89L2.709 10l3.297-3.245a.625.625 0 0 1 .884.007M11.596 4.5a.625.625 0 0 1 .426.774l-2.844 9.8a.625.625 0 0 1-1.2-.348l2.844-9.8a.625.625 0 0 1 .774-.426m1.514 2.262a.625.625 0 0 1 .884-.007L17.29 10l-3.297 3.246a.625.625 0 0 1-.877-.891L15.509 10l-2.392-2.354a.625.625 0 0 1-.007-.884" clip-rule="evenodd"/></svg>