<svg xmlns="http://www.w3.org/2000/svg" width="20" height="20" fill="none" class="persona-icon" viewBox="0 0 20 20"><path fill="currentColor" d="M12.216 4.273a.608.608 0 0 0-.407-.75.59.59 0 0 0-.733.417L7.784 15.727a.608.608 0 0 0 .407.75.59.59 0 0 0 .733-.417zM6.304 13.797a.583.583 0 0 1-.838 0l-3.292-3.368a.613.613 0 0 1 0-.857l3.292-3.368a.583.583 0 0 1 .838 0 .616.616 0 0 1 0 .857l-2.873 2.94 2.873 2.938a.616.616 0 0 1 0 .858M13.696 13.797a.583.583 0 0 0 .838 0l3.292-3.368a.613.613 0 0 0 0-.857l-3.292-3.368a.583.583 0 0 0-.838 0 .616.616 0 0 0 0 .857l2.873 2.94-2.873 2.938a.616.616 0 0 0 0 .858"/></svg>