<svg xmlns="http://www.w3.org/2000/svg" width="24" height="24" fill="none" class="persona-icon" viewBox="0 0 24 24"><path fill="currentColor" fill-rule="evenodd" d="M7.954 7.905a.75.75 0 0 1-.014 1.061L4.825 12l3.115 3.034a.75.75 0 0 1-1.047 1.075l-3.666-3.572a.75.75 0 0 1 0-1.074l3.666-3.571a.75.75 0 0 1 1.061.013m6.09-2.875a.75.75 0 0 1 .509.931l-3.667 12.5a.75.75 0 1 1-1.439-.422l3.667-12.5a.75.75 0 0 1 .93-.509m2.002 2.875a.75.75 0 0 1 1.06-.014l3.667 3.572a.75.75 0 0 1 0 1.074l-3.666 3.572a.75.75 0 1 1-1.047-1.075L19.175 12 16.06 8.966a.75.75 0 0 1-.014-1.06" clip-rule="evenodd"/></svg>