<svg xmlns="http://www.w3.org/2000/svg" width="24" height="24" fill="none" class="persona-icon" viewBox="0 0 24 24"><path fill="currentColor" fill-rule="evenodd" d="M7.954 7.905a.75.75 0 0 1-.014 1.061L4.825 12l3.115 3.034a.75.75 0 1 1-1.047 1.075L2.675 12l4.218-4.108a.75.75 0 0 1 1.06.013m6.09-2.875a.75.75 0 0 1 .509.931l-3.667 12.5a.75.75 0 1 1-1.44-.422l3.668-12.5a.75.75 0 0 1 .93-.509m2.002 2.875a.75.75 0 0 1 1.06-.014l4.219 4.11-4.218 4.108a.75.75 0 1 1-1.047-1.075L19.175 12 16.06 8.966a.75.75 0 0 1-.014-1.06" clip-rule="evenodd"/></svg>