<svg xmlns="http://www.w3.org/2000/svg" width="32" height="32" fill="none" class="persona-icon"><path fill="currentColor" d="M9.487 22.422a1.007 1.007 0 0 1-1.414 0l-5.778-5.72a.985.985 0 0 1 0-1.4l5.778-5.72a1.007 1.007 0 0 1 1.414 0 .983.983 0 0 1 0 1.4l-5.07 5.02 5.07 5.02a.983.983 0 0 1 0 1.4ZM22.517 22.422c.39.387 1.024.387 1.415 0l5.777-5.72a.985.985 0 0 0 0-1.4l-5.777-5.72a1.007 1.007 0 0 0-1.415 0 .983.983 0 0 0 0 1.4l5.071 5.02-5.07 5.02a.983.983 0 0 0 0 1.4ZM19.166 5.04c.53.15.838.699.687 1.224l-5.778 20.02c-.152.526-.705.83-1.236.68a.989.989 0 0 1-.687-1.224L17.93 5.72c.151-.525.705-.83 1.236-.68Z"/></svg>