<svg xmlns="http://www.w3.org/2000/svg" width="32" height="32" fill="none" class="persona-icon" viewBox="0 0 32 32"><path fill="currentColor" fill-rule="evenodd" d="M18.72 6.539a1 1 0 0 1 .686 1.237l-4.89 17a1 1 0 1 1-1.921-.552l4.888-17a1 1 0 0 1 1.238-.685m-8.122 3.9a1 1 0 0 1-.004 1.413L6.419 16l4.175 4.148a1 1 0 1 1-1.41 1.419l-4.889-4.858a1 1 0 0 1 0-1.418l4.89-4.857a1 1 0 0 1 1.413.004m10.804 0a1 1 0 0 1 1.414-.005l4.889 4.857a1 1 0 0 1 0 1.418l-4.89 4.858a1 1 0 0 1-1.409-1.42L25.581 16l-4.175-4.148a1 1 0 0 1-.004-1.414" clip-rule="evenodd"/></svg>