<svg xmlns="http://www.w3.org/2000/svg" width="16" height="16" fill="none" class="persona-icon"><path fill="currentColor" fill-rule="evenodd" d="M8 1a7 7 0 1 0 1.513 13.836.5.5 0 0 0 .014-.973 6.3 6.3 0 0 0 .48-1.109c.375-1.126.613-2.616.654-4.254h1.556a.5.5 0 1 0 0-1H10.66a19 19 0 0 0-.176-2.15q.175-.04.348-.083a8.4 8.4 0 0 0 2.026-.788A5.97 5.97 0 0 1 14 8a.5.5 0 0 0 1 0 7 7 0 0 0-7-7m5.051 8.595a.5.5 0 0 1 .706.04l1.155 1.295a.5.5 0 0 1-.374.833h-2.885a.5.5 0 1 1 0-1h1.77l-.412-.462a.5.5 0 0 1 .04-.706M11.198 13a.5.5 0 0 1 .456-.295h2.885a.5.5 0 1 1 0 1h-1.77l.412.461a.5.5 0 1 1-.746.666l-1.154-1.295a.5.5 0 0 1-.084-.537M2.02 7.5a5.97 5.97 0 0 1 1.121-3.02 8.3 8.3 0 0 0 1.934.763q.217.058.441.106A18 18 0 0 0 5.34 7.5Zm1.12 4.02A5.97 5.97 0 0 1 2.02 8.5h3.32c.018.755.08 1.48.176 2.15q-.177.04-.35.083a8.4 8.4 0 0 0-2.025.787m.67-7.816a6 6 0 0 1 2.624-1.498 6.4 6.4 0 0 0-.441 1.04q-.171.513-.302 1.118a9 9 0 0 1-.36-.088 7.6 7.6 0 0 1-1.52-.572m2.623 10.09a6 6 0 0 1-2.624-1.499 7.6 7.6 0 0 1 1.602-.593q.138-.035.279-.066.13.605.302 1.118c.127.383.274.735.441 1.04M9.5 5.518c.087.613.143 1.28.162 1.982H6.34c.017-.702.074-1.37.161-1.982a12 12 0 0 0 2.997 0M9.66 8.5a17 17 0 0 1-.163 1.982 12 12 0 0 0-2.996 0A17 17 0 0 1 6.34 8.5Zm-.34 2.968a10 10 0 0 1-.263.97c-.187.56-.397.975-.607 1.242-.215.272-.37.32-.451.32-.08 0-.236-.048-.45-.32-.21-.267-.421-.683-.608-1.242a10 10 0 0 1-.263-.97 11 11 0 0 1 2.643 0M8 2c.08 0 .236.048.45.32.21.267.422.683.608 1.242q.147.44.264.97a11 11 0 0 1-2.643 0q.117-.53.263-.97c.187-.56.398-.975.607-1.242C7.764 2.048 7.92 2 8 2m2.309 2.364a11 11 0 0 0-.302-1.118 6.4 6.4 0 0 0-.442-1.04 6 6 0 0 1 2.624 1.498 7.6 7.6 0 0 1-1.603.594 9 9 0 0 1-.277.066" clip-rule="evenodd"/></svg>