<svg xmlns="http://www.w3.org/2000/svg" width="20" height="20" fill="none" class="persona-icon"><path fill="currentColor" fill-rule="evenodd" d="M9.999 2a8 8 0 1 0 1.73 15.813.6.6 0 0 0 .054-1.158c.201-.36.378-.777.53-1.233.425-1.278.696-2.967.745-4.822h1.74a.6.6 0 1 0 0-1.2h-1.74c-.022-.84-.09-1.645-.196-2.394q.186-.041.37-.088a9.6 9.6 0 0 0 2.29-.886A6.77 6.77 0 0 1 16.799 10a.6.6 0 0 0 1.2 0 8 8 0 0 0-8-8m3.612 13.678a.6.6 0 0 1 .548-.355h3.285a.6.6 0 0 1 0 1.2h-1.946l.423.474a.6.6 0 1 1-.896.8l-1.314-1.475a.6.6 0 0 1-.1-.644m2.12-3.887a.6.6 0 0 1 .847.049l1.314 1.473a.6.6 0 0 1-.448 1h-3.285a.6.6 0 1 1 0-1.2h1.946l-.423-.475a.6.6 0 0 1 .049-.847M3.225 9.4a6.76 6.76 0 0 1 1.251-3.368 9.6 9.6 0 0 0 2.185.86q.235.06.475.114A21 21 0 0 0 6.94 9.4Zm1.251 4.568a6.76 6.76 0 0 1-1.25-3.368H6.94c.022.84.09 1.645.196 2.394q-.187.04-.37.088a9.6 9.6 0 0 0-2.29.886m.806-8.867a6.8 6.8 0 0 1 2.874-1.65 7.5 7.5 0 0 0-.47 1.126q-.192.572-.338 1.246-.193-.043-.38-.093a8.6 8.6 0 0 1-1.686-.63m2.874 11.448a6.8 6.8 0 0 1-2.874-1.65 8.7 8.7 0 0 1 1.78-.653q.142-.036.285-.069.147.673.338 1.246c.138.411.294.79.471 1.125m3.522-9.341c.096.68.158 1.416.18 2.192H8.14a20 20 0 0 1 .18-2.191 13.7 13.7 0 0 0 3.358 0m.18 3.392a20 20 0 0 1-.18 2.191 13.7 13.7 0 0 0-3.359 0 20 20 0 0 1-.179-2.19ZM9.999 3.2c.078 0 .248.047.489.353.236.3.474.77.686 1.404q.163.487.292 1.069a12.6 12.6 0 0 1-2.934 0q.13-.582.292-1.069c.212-.635.45-1.105.686-1.404.241-.306.411-.353.489-.353m1.467 10.773q-.13.582-.292 1.069c-.212.635-.45 1.105-.686 1.404-.241.306-.411.353-.489.353s-.248-.047-.489-.353c-.236-.3-.474-.77-.686-1.404a11 11 0 0 1-.292-1.069 12.5 12.5 0 0 1 2.934 0m1.184-8.149q-.146-.673-.338-1.246a7.5 7.5 0 0 0-.47-1.125A6.8 6.8 0 0 1 14.715 5.1a8.7 8.7 0 0 1-1.78.654q-.141.036-.285.069" clip-rule="evenodd"/></svg>