<svg xmlns="http://www.w3.org/2000/svg" width="24" height="24" fill="none" class="persona-icon"><path fill="currentColor" fill-rule="evenodd" d="M12 2C6.477 2 2 6.477 2 12s4.477 10 10 10a10 10 0 0 0 2.161-.234.75.75 0 0 0 .069-1.447c.252-.45.472-.971.662-1.541.533-1.598.872-3.709.932-6.028H18a.75.75 0 0 0 0-1.5h-2.176a26 26 0 0 0-.245-2.992q.233-.052.462-.11c1.051-.268 2.022-.641 2.863-1.108A8.46 8.46 0 0 1 20.5 12a.75.75 0 0 0 1.5 0c0-5.523-4.477-10-10-10m4.515 17.098a.75.75 0 0 1 .685-.443h4.106a.75.75 0 0 1 0 1.5h-2.433l.529.593a.75.75 0 0 1-1.12.998l-1.642-1.842a.75.75 0 0 1-.125-.806m2.65-4.858a.75.75 0 0 1 1.059.06l1.642 1.843a.75.75 0 0 1-.56 1.25H17.2a.75.75 0 0 1 0-1.5h2.433l-.529-.594a.75.75 0 0 1 .06-1.059M3.533 11.25a8.46 8.46 0 0 1 1.563-4.21c.806.447 1.73.809 2.732 1.074q.293.078.594.144a26 26 0 0 0-.245 2.992Zm1.563 5.71a8.46 8.46 0 0 1-1.563-4.21h4.644a26 26 0 0 0 .245 2.992q-.234.051-.463.11c-1.052.268-2.022.641-2.863 1.108m4.6 3.224a8.5 8.5 0 0 1-3.592-2.061 11 11 0 0 1 2.225-.817q.177-.045.357-.086.184.841.422 1.558c.172.513.367.988.589 1.406M6.105 5.877a8.5 8.5 0 0 1 3.593-2.061 9.3 9.3 0 0 0-.589 1.406q-.238.717-.422 1.558-.24-.054-.474-.116a10.8 10.8 0 0 1-2.108-.787M14.1 8.511c.119.848.197 1.77.223 2.739H9.677a25 25 0 0 1 .224-2.74 17.2 17.2 0 0 0 4.199 0m.223 4.239a25 25 0 0 1-.223 2.74 17 17 0 0 0-4.199 0 25 25 0 0 1-.224-2.74Zm-.489 4.219q-.162.727-.365 1.335c-.265.794-.563 1.382-.858 1.756-.301.382-.514.441-.611.441s-.31-.058-.611-.441c-.295-.374-.593-.962-.858-1.755a14 14 0 0 1-.365-1.336 15.7 15.7 0 0 1 3.668 0M12 3.5c.097 0 .31.059.611.441.295.374.593.962.858 1.756q.203.607.365 1.335a15.7 15.7 0 0 1-3.668 0q.162-.727.365-1.336c.265-.793.563-1.38.858-1.755.301-.382.514-.441.611-.441m3.314 3.28a15 15 0 0 0-.422-1.558 9.3 9.3 0 0 0-.588-1.406 8.5 8.5 0 0 1 3.592 2.061c-.65.329-1.398.607-2.226.817q-.176.045-.356.086" clip-rule="evenodd"/></svg>