<svg xmlns="http://www.w3.org/2000/svg" width="32" height="32" fill="none" class="persona-icon" viewBox="0 0 32 32"><path fill="currentColor" fill-rule="evenodd" d="M16.001 2c-7.732 0-14 6.268-14 14s6.268 14 14 14c1.038 0 2.05-.113 3.026-.328a1 1 0 0 0 .027-1.947c.366-.641.685-1.393.96-2.216.75-2.253 1.227-5.233 1.308-8.509h3.111a1 1 0 1 0 0-2h-3.11a37 37 0 0 0-.353-4.302q.351-.076.696-.164c1.492-.38 2.866-.911 4.053-1.576A11.95 11.95 0 0 1 28 16a1 1 0 1 0 2 0c0-7.732-6.268-14-14-14M4.042 15a11.94 11.94 0 0 1 2.24-6.041c1.138.637 2.447 1.15 3.869 1.527q.435.116.882.213A37 37 0 0 0 10.68 15zm2.24 8.041A11.94 11.94 0 0 1 4.043 17h6.638c.038 1.51.16 2.959.353 4.301a21 21 0 0 0-.699.165c-1.491.38-2.865.91-4.051 1.575m6.59 4.547a12 12 0 0 1-5.25-2.997c.932-.48 2.012-.883 3.206-1.187q.276-.07.557-.133c.174.805.376 1.555.603 2.238.256.765.55 1.468.883 2.079m-5.25-20.18a12 12 0 0 1 5.25-2.996c-.334.61-.628 1.314-.884 2.08-.227.682-.43 1.432-.603 2.236a18 18 0 0 1-.722-.175 15 15 0 0 1-3.04-1.144m11.376 3.628c.174 1.225.287 2.56.324 3.964h-6.64c.036-1.405.148-2.738.323-3.964a24.068 24.068 0 0 0 5.993 0M19.322 17a35 35 0 0 1-.324 3.964 24.07 24.07 0 0 0-5.993 0A35 35 0 0 1 12.68 17zM16 4c.16 0 .473.097.901.64.42.533.842 1.366 1.215 2.484.195.587.372 1.237.527 1.94a22 22 0 0 1-5.286 0 19 19 0 0 1 .528-1.94c.372-1.118.794-1.95 1.214-2.483.428-.544.74-.641.901-.641m2.643 18.936a19 19 0 0 1-.527 1.94c-.373 1.118-.795 1.95-1.215 2.483-.428.544-.74.641-.901.641-.16 0-.473-.097-.901-.64-.42-.533-.842-1.366-1.214-2.484a19 19 0 0 1-.528-1.94 22 22 0 0 1 5.286 0m1.974-14.208a21 21 0 0 0-.604-2.237 13 13 0 0 0-.883-2.079 12 12 0 0 1 5.247 2.996c-.93.48-2.011.883-3.205 1.188q-.274.069-.555.132m1.777 17.27a1 1 0 0 1 .913-.59h5.77a1 1 0 1 1 0 2H25.54l.824.923a1 1 0 0 1-1.493 1.33l-2.309-2.588a1 1 0 0 1-.166-1.075m3.71-6.81a1 1 0 0 1 1.413.082l2.308 2.589a1 1 0 0 1-.746 1.665h-5.771a1 1 0 1 1 0-2h3.54l-.824-.923a1 1 0 0 1 .08-1.412" clip-rule="evenodd"/></svg>