<svg xmlns="http://www.w3.org/2000/svg" width="16" height="16" fill="none" class="persona-icon" viewBox="0 0 16 16"><path fill="currentColor" d="M8.643 3.012a.5.5 0 0 0 0 1h5.143a.5.5 0 0 0 0-1z"/><path fill="currentColor" fill-rule="evenodd" d="M6.53 3.315a.5.5 0 0 0-.918 0l-3.857 9a.5.5 0 1 0 .919.394L3.92 9.798h4.3l1.248 2.911a.5.5 0 1 0 .919-.394zm1.263 5.483H4.35L6.071 4.78z" clip-rule="evenodd"/><path fill="currentColor" d="M8.975 5.44a.5.5 0 0 1 .5-.5h4.31a.5.5 0 0 1 0 1h-4.31a.5.5 0 0 1-.5-.5M10.32 6.869a.5.5 0 1 0 0 1h3.466a.5.5 0 1 0 0-1z"/></svg>