<svg xmlns="http://www.w3.org/2000/svg" width="16" height="16" fill="none" class="persona-icon" viewBox="0 0 16 16"><path fill="currentColor" d="M8.643 3.012h5.143a.5.5 0 0 1 0 1H8.643a.5.5 0 0 1 0-1"/><path fill="currentColor" fill-rule="evenodd" d="m6.53 3.315 3.858 9a.5.5 0 0 1-.92.394L8.222 9.798h-4.3l-1.247 2.911a.5.5 0 1 1-.92-.394l3.858-9a.5.5 0 0 1 .919 0m1.263 5.483L6.07 4.78 4.35 8.798z" clip-rule="evenodd"/><path fill="currentColor" d="M8.975 5.44a.5.5 0 0 1 .5-.5h4.31a.5.5 0 0 1 0 1h-4.31a.5.5 0 0 1-.5-.5M10.32 6.869h3.466a.5.5 0 1 1 0 1H10.32a.5.5 0 1 1 0-1"/></svg>