<svg xmlns="http://www.w3.org/2000/svg" width="16" height="16" fill="none" class="persona-icon" viewBox="0 0 16 16"><path fill="currentColor" d="M8.667 3.25a.5.5 0 0 1 .5-.5H14.5a.5.5 0 1 1 0 1H9.167a.5.5 0 0 1-.5-.5M9.53 5.25a.5.5 0 0 1 .5-.5h4.47a.5.5 0 1 1 0 1h-4.47a.5.5 0 0 1-.5-.5M10.906 6.75a.5.5 0 0 0 0 1H14.5a.5.5 0 0 0 0-1h-3.594"/><path fill="currentColor" fill-rule="evenodd" d="M5.5 2.75a.5.5 0 0 1 .46.308l4 9.484a.511.511 0 0 1-.263.667.497.497 0 0 1-.656-.267l-1.3-3.08H3.259l-1.298 3.08a.497.497 0 0 1-.657.267.511.511 0 0 1-.262-.667l4-9.484a.5.5 0 0 1 .46-.308M3.687 8.847h3.626L5.5 4.547l-1.813 4.3" clip-rule="evenodd"/></svg>