<svg xmlns="http://www.w3.org/2000/svg" width="20" height="20" fill="none" class="persona-icon" viewBox="0 0 20 20"><path fill="currentColor" d="M10.771 3.99a.625.625 0 1 0 0 1.25h6.172a.625.625 0 1 0 0-1.25z"/><path fill="currentColor" fill-rule="evenodd" d="M8.26 4.369a.625.625 0 0 0-1.149 0l-4.628 10.8a.625.625 0 1 0 1.148.492l1.491-3.478h5.127l1.49 3.478a.625.625 0 1 0 1.15-.492zm1.453 6.564H5.658l2.028-4.731z" clip-rule="evenodd"/><path fill="currentColor" d="M11.145 6.93c0-.346.28-.626.625-.626h5.173a.625.625 0 1 1 0 1.25H11.77a.625.625 0 0 1-.625-.625M12.784 8.619a.625.625 0 0 0 0 1.25h4.159a.625.625 0 1 0 0-1.25z"/></svg>