<svg xmlns="http://www.w3.org/2000/svg" width="24" height="24" fill="none" class="persona-icon" viewBox="0 0 24 24"><path fill="currentColor" d="M13.028 4.074h8.222a.75.75 0 0 1 0 1.5h-8.222a.75.75 0 0 1 0-1.5"/><path fill="currentColor" fill-rule="evenodd" d="m9.606 4.528 6.167 14.39a.75.75 0 1 1-1.38.59l-2.007-4.684h-6.94L3.44 19.508a.75.75 0 0 1-1.378-.59l6.166-14.39a.75.75 0 0 1 1.379 0m2.137 8.796L8.917 6.728 6.09 13.324z" clip-rule="evenodd"/><path fill="currentColor" d="M13.609 7.907a.75.75 0 0 1 .75-.75h6.891a.75.75 0 0 1 0 1.5h-6.891a.75.75 0 0 1-.75-.75M15.71 10.24h5.54a.75.75 0 0 1 0 1.5h-5.54a.75.75 0 0 1 0-1.5"/></svg>