<svg xmlns="http://www.w3.org/2000/svg" width="32" height="32" fill="none" class="persona-icon" viewBox="0 0 32 32"><path fill="currentColor" fill-rule="evenodd" d="M13.062 6.63a1 1 0 0 0-1.838 0l-7.715 18a1 1 0 0 0 1.839.788l2.495-5.823h8.6l2.495 5.823a1 1 0 1 0 1.838-.788zm2.523 10.965H8.7l3.443-8.032z" clip-rule="evenodd"/><path fill="currentColor" d="M17.286 6.024a1 1 0 1 0 0 2H27.57a1 1 0 1 0 0-2zM17.95 10.88a1 1 0 0 1 1-1h8.62a1 1 0 1 1 0 2h-8.62a1 1 0 0 1-1-1M20.64 13.738a1 1 0 1 0 0 2h6.931a1 1 0 1 0 0-2z"/></svg>