<svg xmlns="http://www.w3.org/2000/svg" width="32" height="32" fill="none"><path fill="#000" fill-rule="evenodd" d="M10.58 3C7.776 3 5.5 5.239 5.5 8v16c0 2.761 2.275 5 5.08 5h10.84c2.805 0 5.08-2.239 5.08-5V13.051c0-.929-.358-1.823-1.002-2.502l-6.055-6.384A3.754 3.754 0 0 0 16.719 3h-6.138ZM7.533 8c0-1.657 1.365-3 3.049-3h5.758v4.333c0 2.025 1.668 3.667 3.726 3.667h4.402v11c0 1.657-1.364 3-3.048 3H10.581c-1.684 0-3.049-1.343-3.049-3V8Zm10.839 1.333V6.414L23.031 11h-2.966c-.936 0-1.694-.746-1.694-1.667Z" clip-rule="evenodd"/></svg>