<svg xmlns="http://www.w3.org/2000/svg" width="150" height="150" fill="none" class="persona-ilustration" viewBox="0 0 150 150"><g clip-path="url(#fIh3xE1w33_a)"><g clip-path="url(#fIh3xE1w33_b)"><rect width="125" height="125" x="12.498" y="12.503" fill="#D3EDFF" rx="62.5"/><mask id="fIh3xE1w33_c" width="115" height="73" x="17" y="65" maskUnits="userSpaceOnUse" style="mask-type:alpha"><rect width="113.904" height="71.712" x="17.757" y="65.792" fill="#F6D789" rx="5.646"/></mask><g mask="url(#fIh3xE1w33_c)"><rect width="113.904" height="71.712" x="17.757" y="65.792" fill="#FFDCC5" rx="5.646"/><path fill="#FFB26F" d="M71.102 111.457a6.774 6.774 0 0 0 8.223 0l57.108-43.603c1.717-1.31.79-4.053-1.371-4.053H15.365c-2.16 0-3.088 2.742-1.37 4.053z"/><path fill="#FFF9E1" fill-rule="evenodd" d="M79.325 111.458a6.774 6.774 0 0 1-8.223 0L24.579 75.937V65.793h99.25v11.685z" clip-rule="evenodd"/><path fill="#FFB26F" d="M78.318 91.838a6.775 6.775 0 0 0-8.223 0L12.987 135.44c-1.717 1.311-.79 4.053 1.37 4.053h119.698c2.161 0 3.088-2.742 1.371-4.053z"/></g></g><path fill="#FFF9E1" d="M24.463 20.153a3.39 3.39 0 0 1 3.388-3.387h92.596a3.387 3.387 0 0 1 3.387 3.387v57.415H24.463z"/><path fill="#3F568E" fill-rule="evenodd" d="M86.513 29.828a25.876 25.876 0 1 0-2.081 47.266 3.2 3.2 0 1 0-2.334-5.96 19.473 19.473 0 1 1 12.366-18.697h-.027v1.5c0 .332-.043.951-.145 1.706q-.105.766-.27 1.525-.03.128-.046.255c-.117.514-.243.957-.37 1.298q-.091.247-.147.35a3.1 3.1 0 0 1-5.183-2.29V42.921a3.2 3.2 0 0 0-6.188-1.15 13.2 13.2 0 0 0-7.09-2.05c-7.333 0-13.278 5.944-13.278 13.278 0 7.333 5.945 13.278 13.278 13.278 3.472 0 6.633-1.334 8.998-3.514q.31.382.661.733a9.5 9.5 0 0 0 13.434 0c.8-.8 1.255-1.839 1.52-2.557.299-.809.527-1.694.698-2.52.133-.64.242-1.293.326-1.912a25.88 25.88 0 0 0-14.122-26.68M68.121 53a6.877 6.877 0 1 1 13.754 0 6.877 6.877 0 0 1-13.754 0" clip-rule="evenodd"/></g><defs><clipPath id="fIh3xE1w33_a"><path fill="#fff" d="M0 0h150v150H0z"/></clipPath><clipPath id="fIh3xE1w33_b"><rect width="125" height="125" x="12.498" y="12.503" fill="#fff" rx="62.5"/></clipPath></defs></svg>