<svg xmlns="http://www.w3.org/2000/svg" width="16" height="16" fill="none" class="persona-icon" viewBox="0 0 16 16"><path fill="currentColor" fill-rule="evenodd" d="m4.017 5-.078-.022a2.47 2.47 0 0 0-2.055.319c-.577.395-.962 1.062-.87 1.87.08.712.288 1.448.748 2.044.45.583 1.111.992 2.017 1.132C4.888 11.35 6.588 12 7.987 12c1.396 0 3.093-.648 4.202-1.652.923-.136 1.594-.547 2.05-1.137.459-.596.667-1.332.748-2.044.091-.808-.294-1.475-.87-1.87a2.47 2.47 0 0 0-2.055-.32L11.983 5c-.954-.003-1.431-.22-1.903-.45l-.072-.035C9.507 4.27 8.955 4 7.987 4c-.924 0-1.474.265-1.973.505l-.09.044c-.477.228-.969.444-1.907.45m-.548 4.243a1.9 1.9 0 0 1-.915-.643c-.308-.398-.478-.934-.547-1.545-.045-.396.131-.72.442-.933a1.46 1.46 0 0 1 1.02-.224zm3.053-2.187c-.199.097-.42.204-.705.313a.5.5 0 1 1-.357-.934c.157-.06.315-.136.483-.218.513-.248 1.118-.54 2.053-.54.98 0 1.585.297 2.093.547.161.079.313.153.463.212a.5.5 0 0 1-.363.932 8 8 0 0 1-.67-.302c-.45-.222-.791-.39-1.523-.39-.69 0-1.026.163-1.474.38m5.983 2.196v-3.35c.387-.063.768.029 1.046.22.31.212.487.537.442.933-.069.61-.24 1.147-.546 1.545a1.9 1.9 0 0 1-.942.652" clip-rule="evenodd"/></svg>