<svg xmlns="http://www.w3.org/2000/svg" width="20" height="20" fill="none" class="persona-icon" viewBox="0 0 20 20"><path fill="currentColor" fill-rule="evenodd" d="M5.482 6.614c1.057-.01 1.613-.249 2.152-.5l.104-.05c.57-.267 1.2-.564 2.258-.564 1.108 0 1.741.302 2.314.576l.082.04c.53.251 1.066.49 2.127.498l.139-.038A2.83 2.83 0 0 1 17 6.953c.657.455 1.094 1.222.982 2.15-.096.792-.34 1.61-.87 2.274-.516.643-1.264 1.091-2.278 1.25-1.27 1.138-3.23 1.873-4.838 1.873-1.61 0-3.57-.735-4.84-1.875-1.009-.16-1.753-.607-2.267-1.248-.53-.663-.774-1.482-.87-2.275-.112-.927.325-1.694.983-2.149a2.83 2.83 0 0 1 2.341-.377zm9.698 4.698a2.1 2.1 0 0 0 .995-.685c.342-.427.535-1.004.616-1.669.052-.431-.136-.784-.474-1.018a1.6 1.6 0 0 0-1.137-.25zm-10.369-.004v-3.62a1.6 1.6 0 0 0-1.126.252c-.339.234-.527.587-.475 1.018.08.665.274 1.242.616 1.669.228.284.541.526.985.681M8.328 8.98c.508-.24.886-.42 1.668-.42.829 0 1.213.185 1.724.43.217.104.458.22.767.337a.6.6 0 1 0 .426-1.122c-.17-.064-.341-.146-.524-.234-.579-.277-1.272-.61-2.393-.61-1.069 0-1.764.328-2.348.603-.19.09-.37.174-.546.24a.6.6 0 0 0 .419 1.125c.327-.122.58-.242.807-.35" clip-rule="evenodd"/></svg>