<svg xmlns="http://www.w3.org/2000/svg" width="24" height="24" fill="none" class="persona-icon" viewBox="0 0 24 24"><path fill="currentColor" fill-rule="evenodd" d="M6.357 7.678c1.315-.013 2.006-.318 2.678-.64l.13-.063c.712-.343 1.503-.725 2.828-.725 1.39 0 2.183.389 2.899.74l.103.05c.662.323 1.328.627 2.648.638l.143-.04c1.04-.295 2.131-.099 2.945.461.827.57 1.379 1.531 1.248 2.694-.114 1.02-.411 2.075-1.071 2.931-.641.833-1.58 1.418-2.863 1.624-1.587 1.458-4.036 2.402-6.052 2.402s-4.468-.945-6.054-2.405c-1.274-.209-2.208-.792-2.847-1.62-.66-.857-.957-1.913-1.071-2.932C1.89 9.63 2.44 8.67 3.27 8.1c.813-.56 1.903-.756 2.944-.461zM18.472 13.7c.563-.2.959-.516 1.248-.891.431-.56.672-1.316.769-2.183.061-.548-.18-.996-.609-1.291a2 2 0 0 0-1.408-.312zm-12.957-.005V9.021a2 2 0 0 0-1.395.314c-.428.294-.67.742-.609 1.291.098.867.338 1.623.77 2.183.286.372.678.686 1.234.886m4.404-3.025c.633-.307 1.1-.534 2.074-.534 1.032 0 1.507.234 2.144.547.273.134.575.283.962.434a.75.75 0 1 0 .545-1.398 9 9 0 0 1-.651-.298c-.724-.357-1.595-.785-3-.785-1.34 0-2.213.422-2.943.776-.238.115-.46.222-.679.306a.75.75 0 0 0 .535 1.401c.412-.157.729-.311 1.013-.449" clip-rule="evenodd"/></svg>