<svg xmlns="http://www.w3.org/2000/svg" width="24" height="24" fill="none" class="persona-icon" viewBox="0 0 24 24"><path fill="currentColor" fill-rule="evenodd" d="m6.357 7.678-.143-.04c-1.04-.295-2.13-.099-2.945.461-.827.57-1.379 1.531-1.248 2.694.114 1.02.412 2.075 1.071 2.931.639.83 1.573 1.412 2.847 1.62 1.586 1.461 4.037 2.406 6.054 2.406 2.016 0 4.466-.944 6.052-2.402 1.283-.207 2.222-.791 2.863-1.624.66-.856.957-1.912 1.071-2.93.13-1.164-.42-2.125-1.248-2.695-.814-.56-1.904-.756-2.945-.461l-.143.04c-1.32-.011-1.986-.315-2.648-.638l-.103-.05c-.716-.351-1.51-.74-2.899-.74-1.325 0-2.117.382-2.828.725l-.13.063c-.672.322-1.363.627-2.678.64m-.842 6.017a2.65 2.65 0 0 1-1.235-.886c-.43-.56-.671-1.316-.769-2.183-.061-.548.18-.996.609-1.291a2 2 0 0 1 1.395-.314zm4.404-3.025c-.284.138-.601.292-1.013.449a.75.75 0 0 1-.535-1.401c.219-.084.441-.191.679-.306.73-.354 1.603-.776 2.943-.776 1.405 0 2.276.428 3 .785.227.112.44.216.651.299a.75.75 0 0 1-.545 1.397c-.387-.151-.69-.3-.962-.434-.637-.313-1.112-.547-2.144-.547-.973 0-1.44.227-2.074.534m8.553 3.03V9.023a2 2 0 0 1 1.408.312c.428.294.67.742.609 1.291-.098.867-.338 1.623-.77 2.183a2.65 2.65 0 0 1-1.247.891" clip-rule="evenodd"/></svg>