<svg xmlns="http://www.w3.org/2000/svg" width="32" height="32" fill="none" class="persona-icon" viewBox="0 0 32 32"><path fill="currentColor" fill-rule="evenodd" d="m8.059 10-.22-.062c-1.445-.406-2.959-.133-4.087.644-1.147.79-1.91 2.122-1.725 3.733.162 1.417.58 2.88 1.5 4.064.888 1.143 2.185 1.947 3.955 2.237C9.702 22.669 13.155 24 15.99 24s6.285-1.33 8.504-3.38c1.782-.287 3.087-1.093 3.979-2.24.92-1.185 1.338-2.648 1.5-4.065.184-1.61-.578-2.942-1.725-3.733-1.128-.777-2.642-1.05-4.088-.644l-.22.062c-1.873-.016-2.82-.445-3.755-.9l-.145-.07C19.035 8.54 17.93 8 15.99 8c-1.85 0-2.952.53-3.95 1.01h-.002l-.181.088c-.951.454-1.933.883-3.798.901m-1.122 8.43c-.828-.282-1.41-.736-1.83-1.278-.614-.79-.955-1.851-1.093-3.064-.09-.79.259-1.435.873-1.859.547-.377 1.29-.56 2.05-.444zm6.106-4.317c-.399.193-.842.408-1.412.625a1 1 0 1 1-.713-1.868c.313-.12.63-.273.966-.435 1.026-.496 2.237-1.082 4.106-1.082 1.961 0 3.17.595 4.186 1.094.323.159.625.308.927.425a1 1 0 1 1-.726 1.864c-.538-.21-.96-.417-1.341-.605-.9-.443-1.582-.778-3.046-.778-1.381 0-2.052.325-2.947.76m12 4.323v-6.648c.767-.122 1.519.061 2.07.441.614.424.963 1.07.873 1.86-.139 1.212-.479 2.274-1.092 3.063-.425.546-1.012 1.003-1.85 1.284" clip-rule="evenodd"/></svg>