<svg xmlns="http://www.w3.org/2000/svg" width="32" height="32" fill="none"><path fill="#000" fill-rule="evenodd" d="M22.25 16.5a5.25 5.25 0 1 0 0 10.5 5.25 5.25 0 0 0 0-10.5ZM15 21.75a7.25 7.25 0 1 1 14.5 0 7.25 7.25 0 0 1-14.5 0Z" clip-rule="evenodd"/><path fill="#000" fill-rule="evenodd" d="M7.532 8c0-1.657 1.365-3 3.049-3h5.758v4.333c0 2.025 1.668 3.667 3.726 3.667h5.419c.404 0 .77-.236.932-.601a.988.988 0 0 0-.19-1.081l-6.783-7.153A3.754 3.754 0 0 0 16.719 3h-6.138C7.775 3 5.5 5.239 5.5 8v16c0 2.761 2.275 5 5.08 5h2.71c.562 0 1.016-.448 1.016-1s-.454-1-1.016-1h-2.71c-1.683 0-3.048-1.343-3.048-3V8Zm15.499 3h-2.966c-.936 0-1.694-.746-1.694-1.667V6.414L23.031 11Z" clip-rule="evenodd"/></svg>