<svg xmlns="http://www.w3.org/2000/svg" width="32" height="32" fill="none"><path fill="#000" fill-rule="evenodd" d="M6.526 3A3.526 3.526 0 0 0 3 6.526v7.58a1 1 0 0 0 1 1h4.053v11.63a1 1 0 0 0 1.707.708l2.526-2.526a1 1 0 0 0-1.414-1.415l-.82.82V6.526c0-.546-.124-1.064-.346-1.526h14.505c.843 0 1.526.683 1.526 1.526v6.316a1 1 0 1 0 2 0V6.526A3.526 3.526 0 0 0 24.21 3H6.526Zm0 2C5.683 5 5 5.683 5 6.526v6.58h3.053v-6.58C8.053 5.683 7.369 5 6.526 5Z" clip-rule="evenodd"/><path fill="#000" d="M13.105 9.053a1 1 0 0 1 1-1h7.58a1 1 0 1 1 0 2h-7.58a1 1 0 0 1-1-1ZM14.105 11.842a1 1 0 1 0 0 2h2.526a1 1 0 1 0 0-2h-2.526ZM21.684 18.158a1 1 0 0 1 1 1v2.112l1.602 1.602a1 1 0 0 1-1.414 1.414l-2.188-2.188v-2.94a1 1 0 0 1 1-1Z"/><path fill="#000" fill-rule="evenodd" d="M21.684 14.368a7.316 7.316 0 1 0 0 14.632 7.316 7.316 0 0 0 0-14.632Zm-5.316 7.316a5.316 5.316 0 1 1 10.632 0 5.316 5.316 0 0 1-10.632 0Z" clip-rule="evenodd"/></svg>