<svg xmlns="http://www.w3.org/2000/svg" width="16" height="16" fill="none" class="persona-icon" viewBox="0 0 16 16"><path fill="currentColor" fill-rule="evenodd" d="M3.22 4.333A2.33 2.33 0 0 1 5.553 2h4.887a2.33 2.33 0 0 1 2.333 2.333v6.72a1.11 1.11 0 0 1-1.106 1.114h-.114v.413a1.416 1.416 0 1 1-2.833 0v-.413H7.273v.413a1.416 1.416 0 1 1-2.833 0v-.413h-.107a1.11 1.11 0 0 1-1.113-1.114zm1 .5V7.5h7.553V4.833zm1.22 7.747a.416.416 0 1 0 .833 0v-.413H5.44zm4.28-.413v.413a.416.416 0 1 0 .833 0v-.413zM5.553 9.333a.5.5 0 0 0 0 1h.614a.5.5 0 1 0 0-1zm3.78.5a.5.5 0 0 0 .5.5h.607a.5.5 0 1 0 0-1h-.607a.5.5 0 0 0-.5.5" clip-rule="evenodd"/><path fill="currentColor" d="M3 4.94v1.833a.5.5 0 0 1-1 0V4.94a.5.5 0 0 1 1 0M14 4.94v1.833a.5.5 0 0 1-1 0V4.94a.5.5 0 0 1 1 0"/></svg>