<svg xmlns="http://www.w3.org/2000/svg" width="20" height="20" fill="none" class="persona-icon"><path fill="currentColor" d="M5.873 6.698a.825.825 0 1 0 0-1.65.825.825 0 0 0 0 1.65Z"/><path fill="currentColor" d="M2 7.111a5.111 5.111 0 1 1 9.974 1.578l5.859 5.86a.571.571 0 0 1 .167.403v2.477a.571.571 0 0 1-.571.571h-2.477a.571.571 0 0 1-.404-.167l-1.233-1.234-.005-.005-.004-.004-1.642-1.642-.005-.004-.004-.005-2.966-2.965A5.111 5.111 0 0 1 2 7.11Zm13.19 9.746h1.667V15.19l-5.95-5.95a.571.571 0 0 1-.124-.62 3.968 3.968 0 1 0-2.165 2.165.571.571 0 0 1 .622.124l2.823 2.824.422-.422a.572.572 0 0 1 .808.808l-.421.422.842.842.422-.421a.572.572 0 0 1 .808.808l-.422.421.667.667Z"/></svg>