<svg xmlns="http://www.w3.org/2000/svg" width="20" height="20" fill="none" class="persona-icon" viewBox="0 0 20 20"><path fill="currentColor" fill-rule="evenodd" d="M3 7.511a4.511 4.511 0 1 1 8.823 1.33l5.001 5.001a.6.6 0 0 1 .176.425V16.4a.6.6 0 0 1-.6.6h-2.133a.6.6 0 0 1-.425-.176l-5.001-5.001A4.511 4.511 0 0 1 3 7.51M7.511 4.2a3.311 3.311 0 1 0 1.258 6.375.6.6 0 0 1 .652.13l5.094 5.095H15.8v-1.285l-5.094-5.094a.6.6 0 0 1-.13-.652A3.311 3.311 0 0 0 7.511 4.2" clip-rule="evenodd"/><path fill="currentColor" fill-rule="evenodd" d="M12.93 12.758a.625.625 0 0 1 0 .884l-.71.711a.625.625 0 1 1-.884-.884l.711-.711a.625.625 0 0 1 .884 0m1.423 1.422a.625.625 0 0 1 0 .884l-.711.711a.625.625 0 0 1-.884-.884l.711-.71a.625.625 0 0 1 .884 0" clip-rule="evenodd"/><path fill="currentColor" d="M7.156 6.445a.711.711 0 1 1-1.423 0 .711.711 0 0 1 1.423 0"/></svg>