<svg xmlns="http://www.w3.org/2000/svg" width="32" height="32" fill="none" class="persona-icon" viewBox="0 0 32 32"><path fill="currentColor" fill-rule="evenodd" d="M4 11.722a7.722 7.722 0 1 1 15.098 2.295l8.61 8.61a1 1 0 0 1 .292.706V27a1 1 0 0 1-1 1h-3.667a1 1 0 0 1-.707-.293l-8.61-8.61A7.722 7.722 0 0 1 4 11.723M11.722 6a5.722 5.722 0 1 0 2.174 11.017 1 1 0 0 1 1.087.218L23.747 26H26v-2.252l-8.765-8.765a1 1 0 0 1-.218-1.087A5.722 5.722 0 0 0 11.722 6" clip-rule="evenodd"/><path fill="currentColor" fill-rule="evenodd" d="M20.985 20.793a1 1 0 0 1 0 1.414l-1.222 1.222a1 1 0 0 1-1.415-1.414l1.223-1.222a1 1 0 0 1 1.414 0m2.444 2.444a1 1 0 0 1 0 1.414l-1.222 1.223a1 1 0 0 1-1.414-1.415l1.222-1.222a1 1 0 0 1 1.414 0" clip-rule="evenodd"/><path fill="currentColor" d="M11.111 9.889a1.222 1.222 0 1 1-2.444 0 1.222 1.222 0 0 1 2.444 0"/></svg>