<svg xmlns="http://www.w3.org/2000/svg" width="80" height="80" fill="none" class="persona-ilustration" viewBox="0 0 80 80"><g clip-path="url(#m90peVe9eO_a)"><path fill="#F9CFD5" d="M60.92 6.543 21.66 17.155s5.73 40.449 4.476 57.639c3.3 1.877 38.654-9.632 45.867-12.013a1.83 1.83 0 0 0 1.259-1.79c-.17-6.26-1.007-31.802-12.336-54.442z"/><path fill="#E79EA1" d="M21.66 17.155s-6.507-1.143-11-2.364c-4.854 26.756-4.466 47.17-2.758 50.722 1.68 3.491 13.835 8.132 18.235 9.276a1.975 1.975 0 0 0 2.479-1.943c-.066-3.787 1.418-12.336-1.05-28.48-.006-.044-4.165-22.187-5.906-27.216z"/><path fill="#C93E41" d="m60.92 6.543-10.409.514L49.493 5 10.66 14.785s1.658.651 4.909 1.302c.69.137 1.444.274 2.276.41 2.184.351 3.815.658 3.815.658L60.926 6.548z"/><path fill="#E79EA1" d="m21.66 17.155-1.128-2.008s-7.498-.356-9.873-.356c-.186 2.808 11 2.364 11 2.364"/><path fill="#C93E41" d="M27.29 74.748c-1.581-1.46-7.859-12.001-7.859-12.001l-.021-.186c-3.043-23.692.279-47.301.311-47.537l1.626.236c-.033.235-3.306 23.505-.334 46.907l7.438 11.498s-.247.75-1.16 1.083"/><path fill="#C93E41" d="m8.246 66.255-.69-1.489c1.166-.541 10.6-2.687 12.484-3.108l.36 1.603c-4.284.969-11.377 2.638-12.154 3z"/><mask id="m90peVe9eO_b" width="4" height="5" x="52" y="14" maskUnits="userSpaceOnUse" style="mask-type:alpha"><path fill="#5141BA" d="M54.32 18.127c.724-.247 1.06-1.182.75-2.09-.309-.906-1.146-1.441-1.87-1.194s-1.06 1.182-.75 2.089c.309.907 1.146 1.442 1.87 1.195"/></mask><g mask="url(#m90peVe9eO_b)"><path fill="#C93E41" d="M54.32 18.127c.724-.247 1.06-1.182.75-2.09-.309-.906-1.146-1.441-1.87-1.194s-1.06 1.182-.75 2.089c.309.907 1.146 1.442 1.87 1.195"/><path fill="#4C39B0" d="M52.798 19.102c1.18 0 2.135-.75 2.135-1.675 0-.924-.956-1.674-2.135-1.674s-2.134.75-2.134 1.674c0 .925.956 1.675 2.134 1.675"/></g><mask id="m90peVe9eO_c" width="4" height="4" x="35" y="20" maskUnits="userSpaceOnUse" style="mask-type:alpha"><path fill="#5141BA" d="M37.432 23.434c.724-.247 1.06-1.182.75-2.089-.309-.906-1.146-1.442-1.87-1.195s-1.06 1.182-.75 2.09c.309.906 1.146 1.441 1.87 1.194"/></mask><g mask="url(#m90peVe9eO_c)"><path fill="#C93E41" d="M37.433 23.434c.724-.247 1.06-1.182.75-2.089-.309-.906-1.146-1.442-1.87-1.195s-1.06 1.182-.75 2.09c.309.906 1.146 1.441 1.87 1.194"/><path fill="#4C39B0" d="M37.913 24.385c1.179 0 2.135-.75 2.135-1.675s-.956-1.675-2.135-1.675-2.134.75-2.134 1.675.955 1.675 2.134 1.675"/></g><path fill="#5141BA" fill-rule="evenodd" d="M53.075 16.474a1.05 1.05 0 0 1 1.483-.068c.448.408.879 1.044 1.282 1.759.417.737.852 1.646 1.289 2.671.873 2.052 1.774 4.627 2.557 7.357 1.551 5.403 2.708 11.634 2.144 15.64-.61 4.329-4.527 7.504-8.67 8.356-2.101.433-4.346.292-6.362-.644-2.03-.943-3.758-2.661-4.85-5.25v-.001c-3.028-7.192-4.947-12.66-5.87-16.593-.46-1.963-.686-3.594-.658-4.892.028-1.265.302-2.409 1.053-3.167a1.05 1.05 0 1 1 1.492 1.478c-.184.186-.422.66-.445 1.735-.023 1.046.16 2.482.602 4.366.883 3.76 2.748 9.1 5.762 16.258.901 2.139 2.27 3.452 3.799 4.162 1.543.716 3.319.848 5.055.491 3.533-.726 6.56-3.38 7.013-6.592.497-3.53-.538-9.386-2.083-14.768-.765-2.663-1.638-5.155-2.471-7.114a25 25 0 0 0-1.185-2.46c-.379-.671-.677-1.065-.869-1.24a1.05 1.05 0 0 1-.068-1.484" clip-rule="evenodd"/></g><defs><clipPath id="m90peVe9eO_a"><path fill="#fff" d="M0 0h80v80H0z"/></clipPath></defs></svg>