<svg xmlns="http://www.w3.org/2000/svg" width="32" height="32" fill="none"><path fill="#000" fill-rule="evenodd" d="M16 11.628c-2.945 0-5.333 2.377-5.333 5.31s2.388 5.31 5.333 5.31c2.945 0 5.333-2.378 5.333-5.31 0-2.932-2.387-5.31-5.333-5.31Zm-3.333 5.31A3.326 3.326 0 0 1 16 13.619a3.326 3.326 0 0 1 3.333 3.319A3.326 3.326 0 0 1 16 20.257a3.326 3.326 0 0 1-3.333-3.319Z" clip-rule="evenodd"/><path fill="#000" fill-rule="evenodd" d="M14.308 3c-1.032 0-2.02.408-2.75 1.134l-3.194 3.18h-1.03C4.387 7.314 2 9.691 2 12.624V22.69C2 25.623 4.388 28 7.333 28h17.334C27.612 28 30 25.623 30 22.69V12.624c0-2.933-2.388-5.31-5.333-5.31h-1.03l-3.195-3.18A3.898 3.898 0 0 0 17.692 3h-3.384Zm-1.336 2.542c.354-.353.835-.55 1.336-.55h3.384c.501 0 .982.197 1.336.55l3.487 3.472c.188.186.442.291.707.291h1.445A3.326 3.326 0 0 1 28 12.624V22.69a3.326 3.326 0 0 1-3.333 3.319H7.333A3.326 3.326 0 0 1 4 22.69V12.624a3.326 3.326 0 0 1 3.333-3.319h1.445c.265 0 .52-.105.707-.291l3.487-3.472Z" clip-rule="evenodd"/></svg>