<svg xmlns="http://www.w3.org/2000/svg" width="20" height="20" fill="none" class="persona-icon" viewBox="0 0 20 20"><path fill="currentColor" fill-rule="evenodd" d="M5.21 5.022c0-1.13.916-2.047 2.047-2.047h5.688c1.131 0 2.047.917 2.047 2.047v4.202c0 .345-.28.625-.625.625H10.63v3.941a.711.711 0 1 0 0 .953V16.4c0 .345-.28.625-.625.625H7.257a2.047 2.047 0 0 1-2.048-2.047zm4.18.086a.625.625 0 1 0 0 1.25h1.422a.625.625 0 1 0 0-1.25z" clip-rule="evenodd"/><path fill="currentColor" d="M11.792 14.709a.625.625 0 0 1 .884-.884l1.067 1.066v-3.34a.625.625 0 1 1 1.25 0v3.34l1.066-1.066a.625.625 0 1 1 .884.884l-2.133 2.133a.624.624 0 0 1-.884 0z"/></svg>