<svg xmlns="http://www.w3.org/2000/svg" width="16" height="16" fill="none" class="persona-icon" viewBox="0 0 16 16"><path fill="currentColor" d="M8 1a.5.5 0 0 0 0 1c.974 0 1.932.24 2.791.702a6 6 0 0 1 1.814 1.501h-.847a.5.5 0 0 0 0 1h1.954a.5.5 0 0 0 .5-.49l.038-2.108a.5.5 0 1 0-1-.018l-.014.811a7 7 0 0 0-1.972-1.578A6.9 6.9 0 0 0 8 1"/><path fill="currentColor" fill-rule="evenodd" d="M10.035 5.423v.531h.521c.986 0 1.778.805 1.778 1.788v2.835c0 .984-.792 1.788-1.778 1.788h-2.81a1.783 1.783 0 0 1-1.779-1.788v-.53h-.521a1.783 1.783 0 0 1-1.778-1.79V5.424c0-.984.792-1.788 1.778-1.788h2.81c.987 0 1.779.805 1.779 1.788m-5.367 0v2.835c0 .44.352.788.778.788h.522V7.742c0-.983.792-1.788 1.777-1.788h1.29v-.53a.783.783 0 0 0-.778-.79H5.446a.783.783 0 0 0-.778.79" clip-rule="evenodd"/><path fill="currentColor" d="M2.29 10.782a.5.5 0 0 0-.5.49l-.04 2.168a.5.5 0 0 0 1 .019l.016-.857a7 7 0 0 0 2.054 1.621c.983.51 2.074.777 3.18.777a.5.5 0 1 0 0-1 5.9 5.9 0 0 1-2.72-.665 6 6 0 0 1-1.896-1.553h.907a.5.5 0 0 0 0-1z"/></svg>