<svg xmlns="http://www.w3.org/2000/svg" width="20" height="20" fill="none" class="persona-icon" viewBox="0 0 20 20"><path fill="currentColor" fill-rule="evenodd" d="M9.375 2.6c0-.345.28-.625.625-.625a8.02 8.02 0 0 1 5.96 2.651l.015-.79a.625.625 0 0 1 1.25.023l-.044 2.399a.625.625 0 0 1-.625.614h-2.243a.625.625 0 1 1 0-1.25h.857A6.78 6.78 0 0 0 10 3.225a.625.625 0 0 1-.625-.625m3.01 5.015h.549c1.155 0 2.091.936 2.091 2.092v3.226a2.09 2.09 0 0 1-2.091 2.092H9.707a2.09 2.09 0 0 1-2.092-2.091v-.549h-.548a2.09 2.09 0 0 1-2.092-2.092V7.066c0-1.155.937-2.091 2.092-2.091h3.227c1.155 0 2.092.936 2.092 2.091zm-9.565 6.11a.625.625 0 0 1 .625-.614H5.74a.625.625 0 0 1 0 1.25h-.926A6.77 6.77 0 0 0 10 16.775a.625.625 0 1 1 0 1.25 8.03 8.03 0 0 1-5.96-2.652l-.015.842a.625.625 0 0 1-1.25-.023zm4.247-7.5a.84.84 0 0 0-.842.841v3.227c0 .465.377.842.842.842h.548V9.707c0-1.156.937-2.092 2.092-2.092h1.429v-.549a.84.84 0 0 0-.842-.841z" clip-rule="evenodd"/></svg>