<svg xmlns="http://www.w3.org/2000/svg" width="24" height="24" fill="none" class="persona-icon" viewBox="0 0 24 24"><path fill="currentColor" d="M12 2a10 10 0 0 1 7.48 3.364l.02-1.067a.75.75 0 0 1 1.499.027l-.054 2.999a.75.75 0 0 1-.75.736H17.39a.75.75 0 0 1 0-1.5h1.138a8.5 8.5 0 0 0-6.53-3.058.75.75 0 1 1 0-1.5"/><path fill="currentColor" fill-rule="evenodd" d="M14.95 8.333v.717h.717a2.583 2.583 0 0 1 2.583 2.583v4.034a2.583 2.583 0 0 1-2.583 2.583h-4.034a2.583 2.583 0 0 1-2.583-2.583v-.717h-.716a2.583 2.583 0 0 1-2.584-2.583V8.333A2.583 2.583 0 0 1 8.334 5.75h4.033a2.583 2.583 0 0 1 2.583 2.583m-7.7 0v4.034c0 .598.485 1.083 1.084 1.083h.716v-1.817a2.583 2.583 0 0 1 2.583-2.583h1.817v-.717c0-.598-.485-1.083-1.083-1.083H8.334c-.599 0-1.084.485-1.084 1.083" clip-rule="evenodd"/><path fill="currentColor" d="M3.807 15.92h2.87a.75.75 0 1 1 0 1.5H5.453a8.5 8.5 0 0 0 6.546 3.08.75.75 0 0 1 0 1.5 10 10 0 0 1-7.479-3.363L4.5 19.768a.75.75 0 1 1-1.5-.028l.058-3.084a.75.75 0 0 1 .75-.736"/></svg>