<svg xmlns="http://www.w3.org/2000/svg" width="24" height="24" fill="none" class="persona-icon" viewBox="0 0 24 24"><path fill="currentColor" d="M12 2a.75.75 0 1 0 0 1.5 8.5 8.5 0 0 1 6.529 3.059H17.39a.75.75 0 0 0 0 1.5h2.804a.75.75 0 0 0 .75-.736l.054-2.999a.75.75 0 0 0-1.5-.027l-.02 1.068A10 10 0 0 0 12 2"/><path fill="currentColor" fill-rule="evenodd" d="M14.95 8.333v.717h.717a2.583 2.583 0 0 1 2.583 2.583v4.034a2.583 2.583 0 0 1-2.583 2.583h-4.034a2.583 2.583 0 0 1-2.583-2.583v-.717h-.716a2.583 2.583 0 0 1-2.584-2.583V8.333A2.583 2.583 0 0 1 8.334 5.75h4.033a2.583 2.583 0 0 1 2.583 2.583m-7.7 0v4.034c0 .598.485 1.083 1.084 1.083h.716v-1.817a2.583 2.583 0 0 1 2.583-2.583h1.817v-.717c0-.598-.485-1.083-1.083-1.083H8.334c-.599 0-1.084.485-1.084 1.083" clip-rule="evenodd"/><path fill="currentColor" d="M3.807 15.92a.75.75 0 0 0-.75.736l-.058 3.084a.75.75 0 1 0 1.5.028l.021-1.131A10 10 0 0 0 12 21.999a.75.75 0 1 0 0-1.5 8.5 8.5 0 0 1-6.546-3.079h1.224a.75.75 0 0 0 0-1.5z"/></svg>