<svg xmlns="http://www.w3.org/2000/svg" width="32" height="32" fill="none" class="persona-icon" viewBox="0 0 32 32"><path fill="currentColor" d="M16.002 2a1 1 0 1 0 0 2c1.945 0 3.862.482 5.58 1.403 1.398.75 2.631 1.772 3.629 3.004h-1.695a1 1 0 1 0 0 2h3.909a1 1 0 0 0 1-.982L28.5 5.21a1 1 0 0 0-2-.036l-.029 1.622a13.9 13.9 0 0 0-3.944-3.156A13.8 13.8 0 0 0 16.002 2"/><path fill="currentColor" fill-rule="evenodd" d="M20.07 10.847v1.061h1.043c1.971 0 3.555 1.61 3.555 3.577v5.669c0 1.967-1.584 3.576-3.555 3.576H15.49c-1.971 0-3.555-1.609-3.555-3.577v-1.06H10.89c-1.971 0-3.555-1.61-3.555-3.578v-5.668c0-1.968 1.584-3.577 3.555-3.577h5.623c1.971 0 3.555 1.609 3.555 3.577m-10.734 0v5.669c0 .878.704 1.576 1.555 1.576h1.044v-2.607c0-1.968 1.585-3.577 3.556-3.577h2.578v-1.061c0-.879-.704-1.577-1.555-1.577H10.89c-.851 0-1.555.698-1.555 1.577" clip-rule="evenodd"/><path fill="currentColor" d="M4.58 21.564a1 1 0 0 0-1 .981L3.5 26.88a1 1 0 0 0 2 .037l.032-1.714a13.9 13.9 0 0 0 4.107 3.243A13.8 13.8 0 0 0 16 30a1 1 0 0 0 0-2c-1.891 0-3.756-.456-5.44-1.33a11.9 11.9 0 0 1-3.792-3.106h1.813a1 1 0 0 0 0-2z"/></svg>