<svg xmlns="http://www.w3.org/2000/svg" width="32" height="32" fill="none" class="persona-icon" viewBox="0 0 32 32"><path fill="currentColor" d="M16.002 2c2.276 0 4.517.563 6.525 1.64a13.9 13.9 0 0 1 3.944 3.157l.03-1.622a1 1 0 1 1 1.999.036l-.076 4.214a1 1 0 0 1-1 .982h-3.908a1 1 0 0 1 0-2h1.695a11.9 11.9 0 0 0-3.629-3.004A11.8 11.8 0 0 0 16.002 4a1 1 0 1 1 0-2"/><path fill="currentColor" fill-rule="evenodd" d="M20.07 10.847v1.061h1.043c1.971 0 3.555 1.61 3.555 3.577v5.669c0 1.967-1.584 3.576-3.555 3.576H15.49c-1.971 0-3.555-1.609-3.555-3.577v-1.06H10.89c-1.971 0-3.555-1.61-3.555-3.578v-5.668c0-1.968 1.584-3.577 3.555-3.577h5.623c1.971 0 3.555 1.609 3.555 3.577m-10.734 0v5.669c0 .878.704 1.576 1.555 1.576h1.044v-2.607c0-1.968 1.585-3.577 3.556-3.577h2.578v-1.061c0-.879-.704-1.577-1.555-1.577H10.89c-.851 0-1.555.698-1.555 1.577" clip-rule="evenodd"/><path fill="currentColor" d="M4.58 21.564h4.001a1 1 0 0 1 0 2H6.768a11.9 11.9 0 0 0 3.793 3.107A11.8 11.8 0 0 0 16 28a1 1 0 1 1 0 2c-2.214 0-4.395-.533-6.362-1.554a13.9 13.9 0 0 1-4.107-3.243L5.5 26.917a1 1 0 1 1-2-.037l.08-4.335a1 1 0 0 1 1-.981"/></svg>