<svg xmlns="http://www.w3.org/2000/svg" width="16" height="16" fill="none" class="persona-icon" viewBox="0 0 16 16"><path fill="currentColor" fill-rule="evenodd" d="M8.895 2.558A.5.5 0 0 1 9.16 3v10a.5.5 0 0 1-.782.413l-4.168-2.844H2.575c-.87 0-1.574-.705-1.574-1.574v-1.99c0-.87.705-1.574 1.574-1.574h1.636l4.168-2.844a.5.5 0 0 1 .516-.03ZM8.16 3.946 4.647 6.344a.5.5 0 0 1-.282.087h-1.79a.574.574 0 0 0-.574.574v1.99c0 .317.257.574.574.574h1.79a.5.5 0 0 1 .282.087l3.514 2.398V3.946Zm6.478 1.944a.5.5 0 0 1 0 .707L13.236 8l1.403 1.403a.5.5 0 1 1-.707.707l-1.404-1.403-1.402 1.403a.5.5 0 0 1-.708-.707L11.821 8l-1.403-1.403a.5.5 0 0 1 .708-.707l1.402 1.403 1.403-1.403a.5.5 0 0 1 .708 0Z" clip-rule="evenodd"/></svg>