<svg xmlns="http://www.w3.org/2000/svg" width="24" height="24" fill="none" class="persona-icon" viewBox="0 0 24 24"><path fill="currentColor" fill-rule="evenodd" d="M13.288 4.085a.75.75 0 0 1 .402.665v14.5a.75.75 0 0 1-1.178.616l-5.92-4.116H4.278A2.28 2.28 0 0 1 2 13.471V10.53A2.28 2.28 0 0 1 4.279 8.25H6.59l5.921-4.116a.75.75 0 0 1 .776-.049m-1.098 2.1-4.936 3.43a.75.75 0 0 1-.428.135H4.28a.78.78 0 0 0-.779.779v2.942c0 .43.349.779.779.779h2.547a.75.75 0 0 1 .428.134l4.936 3.431zm3.225 2.785a.75.75 0 0 1 1.06 0l1.97 1.97 1.97-1.97a.75.75 0 1 1 1.06 1.06L19.507 12l1.97 1.97a.75.75 0 0 1-1.061 1.06l-1.97-1.97-1.97 1.97a.75.75 0 1 1-1.06-1.06l1.97-1.97-1.97-1.97a.75.75 0 0 1 0-1.06" clip-rule="evenodd"/></svg>