<svg xmlns="http://www.w3.org/2000/svg" width="32" height="32" fill="none" class="persona-icon" viewBox="0 0 32 32"><path fill="currentColor" fill-rule="evenodd" d="M17.788 5.116a1 1 0 0 1 .533.884v20a1 1 0 0 1-1.564.826L8.42 21.138H5.15a3.15 3.15 0 0 1-3.148-3.148v-3.98a3.15 3.15 0 0 1 3.148-3.148H8.42l8.337-5.688a1 1 0 0 1 1.031-.058m-1.467 2.777-7.029 4.795a1 1 0 0 1-.563.174h-3.58c-.634 0-1.148.514-1.148 1.148v3.98c0 .634.514 1.148 1.148 1.148h3.58a1 1 0 0 1 .564.174l7.028 4.795zm12.955 3.887a1 1 0 0 1 0 1.414L26.47 16l2.806 2.807a1 1 0 0 1-1.414 1.414l-2.806-2.806-2.806 2.806a1 1 0 1 1-1.414-1.414L23.642 16l-2.806-2.807a1 1 0 1 1 1.414-1.414l2.806 2.806 2.806-2.806a1 1 0 0 1 1.414 0" clip-rule="evenodd"/></svg>