<svg xmlns="http://www.w3.org/2000/svg" width="16" height="16" fill="none" class="persona-icon" viewBox="0 0 16 16"><path fill="currentColor" fill-rule="evenodd" d="M2.326 6.028a2.26 2.26 0 0 1 1.721-.799h1.306c.663 0 1.293.292 1.721.799l-.381.323.381-.323c.21.249.326.564.326.89V7.95a.5.5 0 0 1-1 0V6.918a.38.38 0 0 0-.09-.244 1.25 1.25 0 0 0-.957-.445H4.047c-.369 0-.72.163-.958.445A.38.38 0 0 0 3 6.918V7.95a.5.5 0 0 1-1 0V6.918c0-.326.115-.641.326-.89m0 5.55a2.26 2.26 0 0 1 1.721-.798h1.306c.663 0 1.293.292 1.721.798.21.25.326.564.326.89v.041A1.49 1.49 0 0 1 5.91 14H3.49A1.49 1.49 0 0 1 2 12.51v-.042c0-.326.115-.64.326-.89M3.2 3.51C3.2 2.68 3.867 2 4.7 2s1.5.68 1.5 1.51c0 .828-.667 1.508-1.5 1.508s-1.5-.68-1.5-1.509m0 5.55c0-.829.667-1.509 1.5-1.509s1.5.68 1.5 1.51c0 .829-.667 1.509-1.5 1.509s-1.5-.68-1.5-1.51m5.726-3.031a2.26 2.26 0 0 1 1.721-.799h1.306c.663 0 1.293.292 1.721.799.21.249.326.564.326.89V7.95a.5.5 0 0 1-1 0V6.918a.38.38 0 0 0-.09-.244 1.25 1.25 0 0 0-.957-.445h-1.306c-.369 0-.72.163-.958.445a.38.38 0 0 0-.089.244V7.95a.5.5 0 0 1-1 0V6.918c0-.326.115-.641.326-.89m0 5.55a2.26 2.26 0 0 1 1.721-.798h1.306c.663 0 1.293.292 1.721.798.21.25.326.564.326.89v.041A1.49 1.49 0 0 1 12.51 14h-2.42a1.49 1.49 0 0 1-1.49-1.49v-.042c0-.326.115-.64.326-.89M9.8 3.51C9.8 2.68 10.467 2 11.3 2s1.5.68 1.5 1.51c0 .828-.667 1.508-1.5 1.508s-1.5-.68-1.5-1.509m0 5.55c0-.829.667-1.509 1.5-1.509s1.5.68 1.5 1.51c0 .829-.667 1.509-1.5 1.509s-1.5-.68-1.5-1.51m-5.753 2.72c-.369 0-.72.163-.958.445a.38.38 0 0 0-.089.244v.041c0 .271.22.491.49.491h2.42c.27 0 .49-.22.49-.49v-.042a.38.38 0 0 0-.09-.244 1.25 1.25 0 0 0-.957-.444zM4.7 3c-.272 0-.5.224-.5.51 0 .285.228.508.5.508s.5-.223.5-.509A.505.505 0 0 0 4.7 3m0 5.55c-.272 0-.5.224-.5.51 0 .285.228.509.5.509s.5-.224.5-.51a.505.505 0 0 0-.5-.509m5.947 3.23c-.369 0-.72.162-.958.444a.38.38 0 0 0-.089.244v.041c0 .271.22.491.49.491h2.42c.27 0 .49-.22.49-.49v-.042a.38.38 0 0 0-.09-.244 1.25 1.25 0 0 0-.957-.444zM11.3 3c-.272 0-.5.224-.5.51 0 .285.228.508.5.508s.5-.223.5-.509A.505.505 0 0 0 11.3 3m0 5.55c-.272 0-.5.224-.5.51 0 .285.228.509.5.509s.5-.224.5-.51a.505.505 0 0 0-.5-.509" clip-rule="evenodd"/></svg>