<svg xmlns="http://www.w3.org/2000/svg" width="16" height="16" fill="none" class="persona-icon"><path fill="currentColor" d="M3.1 9.1a1.6 1.6 0 1 1 3.2 0 1.6 1.6 0 0 1-3.2 0Zm1.6-.6a.6.6 0 1 0 0 1.2.6.6 0 0 0 0-1.2ZM9.7 3.6a1.6 1.6 0 1 1 3.2 0 1.6 1.6 0 0 1-3.2 0Zm1.6-.6a.6.6 0 1 0 0 1.2.6.6 0 0 0 0-1.2ZM3.1 3.6a1.6 1.6 0 1 1 3.2 0 1.6 1.6 0 0 1-3.2 0ZM4.7 3a.6.6 0 1 0 0 1.2.6.6 0 0 0 0-1.2ZM2.33 11.589a2.25 2.25 0 0 1 1.71-.789h1.32a2.25 2.25 0 0 1 1.71.789c.213.249.33.565.33.893v.038A1.48 1.48 0 0 1 5.92 14H3.48A1.48 1.48 0 0 1 2 12.52v-.038c0-.328.117-.644.33-.893Zm3.98.65a1.25 1.25 0 0 0-.95-.439H4.04c-.365 0-.713.16-.95.438a.374.374 0 0 0-.09.244v.038c0 .265.215.48.48.48h2.44a.48.48 0 0 0 .48-.48v-.038a.375.375 0 0 0-.09-.244ZM8.93 6.089a2.25 2.25 0 0 1 1.71-.789h1.32a2.25 2.25 0 0 1 1.71.789c.213.249.33.565.33.893V8a.5.5 0 0 1-1 0V6.982a.375.375 0 0 0-.09-.244 1.25 1.25 0 0 0-.95-.438h-1.32c-.366 0-.713.16-.95.438a.374.374 0 0 0-.09.244V8a.5.5 0 0 1-1 0V6.982c0-.328.117-.644.33-.893Z"/><path fill="currentColor" d="M2.33 6.089A2.25 2.25 0 0 1 4.04 5.3h1.32a2.25 2.25 0 0 1 1.71.789c.213.249.33.565.33.893V8a.5.5 0 0 1-1 0V6.982a.375.375 0 0 0-.09-.244 1.25 1.25 0 0 0-.95-.438H4.04c-.365 0-.713.16-.95.438a.374.374 0 0 0-.09.244V8a.5.5 0 0 1-1 0V6.982c0-.328.117-.644.33-.893ZM8.93 11.589a2.25 2.25 0 0 1 1.71-.789h1.32a2.25 2.25 0 0 1 1.71.789c.213.249.33.565.33.893v.038A1.48 1.48 0 0 1 12.52 14h-2.44a1.48 1.48 0 0 1-1.48-1.48v-.038c0-.328.117-.644.33-.893Zm3.98.65a1.25 1.25 0 0 0-.95-.439h-1.32c-.366 0-.713.16-.95.438a.374.374 0 0 0-.09.244v.038c0 .265.215.48.48.48h2.44a.48.48 0 0 0 .48-.48v-.038a.375.375 0 0 0-.09-.244ZM9.7 9.1a1.6 1.6 0 1 1 3.2 0 1.6 1.6 0 0 1-3.2 0Zm1.6-.6a.6.6 0 1 0 0 1.2.6.6 0 0 0 0-1.2Z"/></svg>