<svg xmlns="http://www.w3.org/2000/svg" width="20" height="20" fill="none" class="persona-icon" viewBox="0 0 20 20"><path fill="currentColor" fill-rule="evenodd" d="M3.364 7.677a2.67 2.67 0 0 1 2.037-.944H6.92c.784 0 1.529.345 2.036.944.251.298.39.674.39 1.064v1.2a.625.625 0 0 1-1.25 0v-1.2A.4.4 0 0 0 8 8.485a1.42 1.42 0 0 0-1.081-.502H5.4c-.416 0-.812.183-1.081.502a.4.4 0 0 0-.094.256v1.2a.625.625 0 0 1-1.25 0v-1.2c0-.39.138-.766.39-1.064m0 6.46a2.67 2.67 0 0 1 2.037-.946H6.92c.784 0 1.529.346 2.036.945.251.297.39.674.39 1.063v.048c0 .982-.797 1.778-1.779 1.778H4.754a1.78 1.78 0 0 1-1.778-1.778V15.2c0-.39.138-.766.39-1.063m1.008-9.363c0-.988.795-1.799 1.788-1.799s1.789.811 1.789 1.8c0 .988-.796 1.799-1.789 1.799a1.794 1.794 0 0 1-1.788-1.8m0 6.459c0-.988.795-1.8 1.788-1.8s1.789.812 1.789 1.8-.796 1.8-1.789 1.8-1.788-.812-1.788-1.8m6.672-3.556a2.67 2.67 0 0 1 2.037-.944H14.6c.784 0 1.529.345 2.036.944.251.298.39.674.39 1.064v1.2a.625.625 0 1 1-1.25 0v-1.2a.4.4 0 0 0-.095-.256 1.42 1.42 0 0 0-1.081-.502h-1.52c-.416 0-.812.183-1.081.502a.4.4 0 0 0-.094.256v1.2a.625.625 0 1 1-1.25 0v-1.2c0-.39.138-.766.39-1.064m0 6.46a2.67 2.67 0 0 1 2.037-.946H14.6c.784 0 1.529.346 2.036.945.251.297.39.674.39 1.063v.048c0 .982-.797 1.778-1.778 1.778h-2.815a1.78 1.78 0 0 1-1.778-1.778V15.2c0-.389.138-.766.39-1.063m1.008-9.363c0-.988.795-1.799 1.788-1.799s1.789.811 1.789 1.8c0 .988-.796 1.799-1.789 1.799a1.794 1.794 0 0 1-1.788-1.8m0 6.459c0-.988.795-1.8 1.788-1.8s1.789.812 1.789 1.8-.796 1.8-1.789 1.8-1.788-.812-1.788-1.8M5.4 14.441c-.417 0-.813.184-1.082.502a.4.4 0 0 0-.094.256v.048c0 .292.236.528.528.528h2.815a.53.53 0 0 0 .527-.528V15.2a.4.4 0 0 0-.094-.256 1.42 1.42 0 0 0-1.081-.502zm.76-10.216a.544.544 0 0 0-.54.55c0 .308.247.549.54.549.291 0 .538-.24.538-.55a.544.544 0 0 0-.539-.549m0 6.459a.544.544 0 0 0-.54.549c0 .309.247.55.54.55.291 0 .538-.241.538-.55a.544.544 0 0 0-.539-.55m6.92 3.758c-.417 0-.813.183-1.082.501a.4.4 0 0 0-.094.256v.048c0 .292.236.528.528.528h2.815a.53.53 0 0 0 .527-.528V15.2a.4.4 0 0 0-.094-.256 1.42 1.42 0 0 0-1.081-.502zm.76-10.217a.544.544 0 0 0-.54.55c0 .308.247.549.54.549.291 0 .538-.24.538-.55a.544.544 0 0 0-.539-.549m0 6.459a.544.544 0 0 0-.54.549c0 .309.247.55.54.55.291 0 .538-.241.538-.55a.544.544 0 0 0-.539-.55" clip-rule="evenodd"/></svg>