<svg xmlns="http://www.w3.org/2000/svg" width="20" height="20" fill="none" class="persona-icon" viewBox="0 0 20 20"><path fill="currentColor" fill-rule="evenodd" d="M4.372 4.774c0-.988.795-1.799 1.788-1.799s1.789.811 1.789 1.8c0 .988-.796 1.799-1.789 1.799a1.794 1.794 0 0 1-1.788-1.8m7.68 0c0-.988.795-1.799 1.788-1.799s1.789.811 1.789 1.8c0 .988-.796 1.799-1.789 1.799a1.794 1.794 0 0 1-1.788-1.8M3.364 7.677a2.67 2.67 0 0 1 2.037-.944H6.92c.784 0 1.529.345 2.036.944.251.298.39.674.39 1.064v1.2a.625.625 0 0 1-1.25 0v-1.2A.4.4 0 0 0 8 8.485a1.42 1.42 0 0 0-1.081-.502H5.4c-.416 0-.812.183-1.081.502a.4.4 0 0 0-.094.256v1.2a.625.625 0 0 1-1.25 0v-1.2c0-.39.138-.766.39-1.064m7.68 0a2.67 2.67 0 0 1 2.037-.944H14.6c.784 0 1.529.345 2.036.944.251.298.39.674.39 1.064v1.2a.625.625 0 1 1-1.25 0v-1.2a.4.4 0 0 0-.095-.256 1.42 1.42 0 0 0-1.081-.502h-1.52c-.416 0-.812.183-1.081.502a.4.4 0 0 0-.094.256v1.2a.625.625 0 1 1-1.25 0v-1.2c0-.39.138-.766.39-1.064m-6.672 3.556c0-.988.795-1.8 1.788-1.8s1.789.812 1.789 1.8-.796 1.8-1.789 1.8-1.788-.812-1.788-1.8m7.68 0c0-.988.795-1.8 1.788-1.8s1.789.812 1.789 1.8-.796 1.8-1.789 1.8-1.788-.812-1.788-1.8m-8.688 2.903a2.67 2.67 0 0 1 2.037-.944H6.92c.784 0 1.529.345 2.036.944.251.297.39.674.39 1.063v.048c0 .982-.797 1.778-1.779 1.778H4.754a1.78 1.78 0 0 1-1.778-1.778V15.2c0-.39.138-.766.39-1.063m7.68 0a2.67 2.67 0 0 1 2.037-.944H14.6c.784 0 1.529.345 2.036.944.251.297.39.674.39 1.063v.048c0 .982-.797 1.778-1.778 1.778h-2.815a1.78 1.78 0 0 1-1.778-1.778V15.2c0-.389.138-.766.39-1.063M6.16 4.225a.544.544 0 0 0-.538.55c0 .308.246.549.538.549s.539-.24.539-.55a.544.544 0 0 0-.539-.549m7.68 0a.544.544 0 0 0-.538.55c0 .308.246.549.538.549s.539-.24.539-.55a.544.544 0 0 0-.539-.549m-7.68 6.459a.544.544 0 0 0-.538.549c0 .309.246.55.538.55s.539-.241.539-.55a.544.544 0 0 0-.539-.55m7.68 0a.544.544 0 0 0-.538.549c0 .309.246.55.538.55s.539-.241.539-.55a.544.544 0 0 0-.539-.55M5.4 14.442c-.416 0-.812.183-1.081.501a.4.4 0 0 0-.094.256v.048c0 .292.236.528.528.528h2.815a.53.53 0 0 0 .527-.528V15.2a.4.4 0 0 0-.094-.256 1.42 1.42 0 0 0-1.081-.502zm7.68 0c-.416 0-.812.183-1.081.501a.4.4 0 0 0-.094.256v.048c0 .292.236.528.528.528h2.815a.53.53 0 0 0 .527-.528V15.2a.4.4 0 0 0-.094-.256 1.42 1.42 0 0 0-1.081-.502z" clip-rule="evenodd"/></svg>