<svg xmlns="http://www.w3.org/2000/svg" width="24" height="24" fill="none" class="persona-icon" viewBox="0 0 24 24"><path fill="currentColor" fill-rule="evenodd" d="M4.8 5.264C4.8 4.02 5.801 3 7.05 3S9.3 4.02 9.3 5.264a2.257 2.257 0 0 1-2.25 2.263c-1.249 0-2.25-1.02-2.25-2.263m9.9 0C14.7 4.02 15.701 3 16.95 3s2.25 1.02 2.25 2.264-1 2.263-2.25 2.263-2.25-1.02-2.25-2.263M3.49 9.042A3.38 3.38 0 0 1 6.07 7.844H8.03c.995 0 1.94.438 2.582 1.198.316.373.489.846.489 1.334v1.548a.75.75 0 0 1-1.5 0v-1.548a.57.57 0 0 0-.134-.365 1.88 1.88 0 0 0-1.437-.667H6.07c-.554 0-1.08.244-1.437.667a.57.57 0 0 0-.134.365v1.548a.75.75 0 0 1-1.5 0v-1.548c0-.488.173-.961.489-1.334m9.9 0a3.38 3.38 0 0 1 2.582-1.198h1.958c.995 0 1.94.438 2.582 1.198.316.373.489.846.489 1.334v1.548a.75.75 0 0 1-1.5 0v-1.548a.57.57 0 0 0-.134-.365 1.88 1.88 0 0 0-1.437-.667H15.97c-.554 0-1.08.244-1.437.667a.57.57 0 0 0-.134.365v1.548a.75.75 0 0 1-1.5 0v-1.548c0-.488.173-.961.489-1.334M4.8 13.589c0-1.243 1.001-2.263 2.25-2.263s2.25 1.02 2.25 2.263a2.257 2.257 0 0 1-2.25 2.264c-1.249 0-2.25-1.02-2.25-2.264m9.9 0c0-1.243 1.001-2.263 2.25-2.263s2.25 1.02 2.25 2.263c0 1.244-1 2.264-2.25 2.264s-2.25-1.02-2.25-2.264M3.49 17.368A3.38 3.38 0 0 1 6.07 16.17H8.03c.995 0 1.94.438 2.582 1.198.316.373.489.846.489 1.334v.062A2.236 2.236 0 0 1 8.864 21H5.236A2.236 2.236 0 0 1 3 18.764v-.062c0-.489.173-.961.489-1.334m9.9 0a3.38 3.38 0 0 1 2.582-1.198h1.958c.995 0 1.94.438 2.582 1.198.316.373.489.846.489 1.334v.062A2.236 2.236 0 0 1 18.764 21h-3.628a2.236 2.236 0 0 1-2.236-2.236v-.062c0-.489.173-.961.489-1.334M7.05 4.5a.757.757 0 0 0-.75.764c0 .428.342.763.75.763s.75-.335.75-.763a.757.757 0 0 0-.75-.764m9.9 0a.757.757 0 0 0-.75.764c0 .428.342.763.75.763s.75-.335.75-.763a.757.757 0 0 0-.75-.764m-9.9 8.326a.757.757 0 0 0-.75.763c0 .429.342.764.75.764s.75-.335.75-.764a.757.757 0 0 0-.75-.763m9.9 0a.757.757 0 0 0-.75.763c0 .429.342.764.75.764s.75-.335.75-.764a.757.757 0 0 0-.75-.763M6.071 17.67c-.554 0-1.08.244-1.437.666a.57.57 0 0 0-.134.366v.062c0 .407.33.736.736.736h3.628c.407 0 .736-.33.736-.736v-.062a.57.57 0 0 0-.134-.366 1.88 1.88 0 0 0-1.437-.666zm9.9 0c-.554 0-1.08.244-1.437.666a.57.57 0 0 0-.134.366v.062c0 .407.33.736.736.736h3.628c.407 0 .736-.33.736-.736v-.062a.57.57 0 0 0-.134-.366 1.88 1.88 0 0 0-1.437-.666z" clip-rule="evenodd"/></svg>