<svg xmlns="http://www.w3.org/2000/svg" width="32" height="32" fill="none"><path fill="currentColor" d="M5.4 18.4a3.4 3.4 0 1 1 6.8 0 3.4 3.4 0 0 1-6.8 0ZM8.8 17a1.4 1.4 0 1 0 0 2.8 1.4 1.4 0 0 0 0-2.8ZM19.8 6.4a3.4 3.4 0 1 1 6.8 0 3.4 3.4 0 0 1-6.8 0ZM23.2 5a1.4 1.4 0 1 0 0 2.8 1.4 1.4 0 0 0 0-2.8ZM5.4 6.4a3.4 3.4 0 1 1 6.8 0 3.4 3.4 0 0 1-6.8 0ZM8.8 5a1.4 1.4 0 1 0 0 2.8 1.4 1.4 0 0 0 0-2.8ZM3.696 23.89A4.817 4.817 0 0 1 7.36 22.2h2.88c1.41 0 2.748.617 3.663 1.69.45.526.697 1.196.697 1.888v.085A3.137 3.137 0 0 1 11.463 29H6.138A3.137 3.137 0 0 1 3 25.863v-.085c0-.692.247-1.362.696-1.888Zm8.686 1.298a2.817 2.817 0 0 0-2.142-.988H7.36c-.824 0-1.607.361-2.142.988a.908.908 0 0 0-.218.59v.085C5 26.49 5.51 27 6.138 27h5.325c.628 0 1.137-.51 1.137-1.137v-.085a.909.909 0 0 0-.218-.59ZM18.096 11.89a4.817 4.817 0 0 1 3.664-1.69h2.88c1.41 0 2.748.617 3.663 1.69.45.526.697 1.196.697 1.888V16a1 1 0 1 1-2 0v-2.222a.909.909 0 0 0-.218-.59 2.817 2.817 0 0 0-2.142-.988h-2.88c-.824 0-1.607.361-2.142.988a.909.909 0 0 0-.218.59V16a1 1 0 1 1-2 0v-2.222c0-.692.247-1.362.697-1.888Z"/><path fill="currentColor" d="M3.696 11.89A4.817 4.817 0 0 1 7.36 10.2h2.88c1.41 0 2.748.617 3.663 1.69.45.526.697 1.196.697 1.888V16a1 1 0 1 1-2 0v-2.222a.909.909 0 0 0-.218-.59 2.817 2.817 0 0 0-2.142-.988H7.36c-.824 0-1.607.361-2.142.988a.908.908 0 0 0-.218.59V16a1 1 0 1 1-2 0v-2.222c0-.692.247-1.362.696-1.888ZM18.096 23.89a4.817 4.817 0 0 1 3.664-1.69h2.88c1.41 0 2.748.617 3.663 1.69.45.526.697 1.196.697 1.888v.085A3.137 3.137 0 0 1 25.863 29h-5.325a3.137 3.137 0 0 1-3.138-3.137v-.085c0-.692.247-1.362.697-1.888Zm8.686 1.298a2.817 2.817 0 0 0-2.142-.988h-2.88c-.824 0-1.607.361-2.142.988a.909.909 0 0 0-.218.59v.085c0 .628.51 1.137 1.138 1.137h5.325C26.49 27 27 26.49 27 25.863v-.085a.909.909 0 0 0-.218-.59ZM19.8 18.4a3.4 3.4 0 1 1 6.8 0 3.4 3.4 0 0 1-6.8 0Zm3.4-1.4a1.4 1.4 0 1 0 0 2.8 1.4 1.4 0 0 0 0-2.8Z"/></svg>