<svg xmlns="http://www.w3.org/2000/svg" width="32" height="32" fill="none" class="persona-icon" viewBox="0 0 32 32"><path fill="currentColor" fill-rule="evenodd" d="M5.4 18.4a3.4 3.4 0 1 1 6.8 0 3.4 3.4 0 0 1-6.8 0M8.8 17a1.4 1.4 0 1 0 0 2.8 1.4 1.4 0 0 0 0-2.8M19.8 6.4a3.4 3.4 0 1 1 6.8 0 3.4 3.4 0 0 1-6.8 0M23.2 5a1.4 1.4 0 1 0 0 2.8 1.4 1.4 0 0 0 0-2.8M5.4 6.4a3.4 3.4 0 1 1 6.8 0 3.4 3.4 0 0 1-6.8 0M8.8 5a1.4 1.4 0 1 0 0 2.8 1.4 1.4 0 0 0 0-2.8M3.697 23.89A4.82 4.82 0 0 1 7.36 22.2h2.88c1.41 0 2.748.617 3.663 1.69.45.526.697 1.196.697 1.888v.085A3.137 3.137 0 0 1 11.463 29H6.138A3.137 3.137 0 0 1 3 25.863v-.085c0-.692.247-1.362.696-1.888m8.685 1.298a2.82 2.82 0 0 0-2.142-.988H7.36c-.824 0-1.607.361-2.142.988a.9.9 0 0 0-.218.59v.085C5 26.49 5.51 27 6.138 27h5.325c.628 0 1.137-.51 1.137-1.137v-.085a.9.9 0 0 0-.218-.59M18.097 11.89a4.82 4.82 0 0 1 3.663-1.69h2.88c1.41 0 2.748.617 3.663 1.69.45.526.697 1.196.697 1.888V16a1 1 0 1 1-2 0v-2.222a.9.9 0 0 0-.218-.59 2.82 2.82 0 0 0-2.142-.988h-2.88c-.824 0-1.607.361-2.142.988a.9.9 0 0 0-.218.59V16a1 1 0 1 1-2 0v-2.222c0-.692.247-1.362.697-1.888" clip-rule="evenodd"/><path fill="currentColor" fill-rule="evenodd" d="M3.697 11.89A4.82 4.82 0 0 1 7.36 10.2h2.88c1.41 0 2.748.617 3.663 1.69.45.526.697 1.196.697 1.888V16a1 1 0 1 1-2 0v-2.222a.9.9 0 0 0-.218-.59 2.82 2.82 0 0 0-2.142-.988H7.36c-.824 0-1.607.361-2.142.988a.9.9 0 0 0-.218.59V16a1 1 0 1 1-2 0v-2.222c0-.692.247-1.362.696-1.888M18.097 23.89a4.82 4.82 0 0 1 3.663-1.69h2.88c1.41 0 2.748.617 3.663 1.69.45.526.697 1.196.697 1.888v.085A3.137 3.137 0 0 1 25.863 29h-5.325a3.137 3.137 0 0 1-3.138-3.137v-.085c0-.692.247-1.362.697-1.888m8.685 1.298a2.82 2.82 0 0 0-2.142-.988h-2.88c-.824 0-1.607.361-2.142.988a.9.9 0 0 0-.218.59v.085c0 .628.51 1.137 1.138 1.137h5.325C26.49 27 27 26.49 27 25.863v-.085a.9.9 0 0 0-.218-.59M19.8 18.4a3.4 3.4 0 1 1 6.8 0 3.4 3.4 0 0 1-6.8 0m3.4-1.4a1.4 1.4 0 1 0 0 2.8 1.4 1.4 0 0 0 0-2.8" clip-rule="evenodd"/></svg>