<svg xmlns="http://www.w3.org/2000/svg" width="32" height="32" fill="none" class="persona-icon" viewBox="0 0 32 32"><path fill="currentColor" fill-rule="evenodd" d="M4.652 12.056a4.51 4.51 0 0 1 3.443-1.597h2.61a4.51 4.51 0 0 1 3.443 1.597c.421.497.652 1.128.652 1.78v2.063a1 1 0 1 1-2 0v-2.064a.76.76 0 0 0-.179-.487 2.51 2.51 0 0 0-1.916-.89h-2.61a2.51 2.51 0 0 0-1.916.89.76.76 0 0 0-.179.487V15.9a1 1 0 1 1-2 0v-2.064c0-.651.23-1.282.652-1.78l.763.647zm0 11.1a4.51 4.51 0 0 1 3.443-1.596h2.61a4.51 4.51 0 0 1 3.443 1.597c.421.497.652 1.128.652 1.78v.082A2.98 2.98 0 0 1 11.819 28H6.98A2.98 2.98 0 0 1 4 25.019v-.083c0-.651.23-1.282.652-1.78m3.443.404a2.51 2.51 0 0 0-1.916.889.76.76 0 0 0-.179.487v.083c0 .542.44.981.981.981h4.838c.542 0 .981-.44.981-.981v-.083a.76.76 0 0 0-.179-.488 2.51 2.51 0 0 0-1.916-.888zM6.4 7.018C6.4 5.36 7.735 4 9.4 4s3 1.36 3 3.018c0 1.659-1.335 3.019-3 3.019s-3-1.36-3-3.019m0 11.101c0-1.658 1.335-3.018 3-3.018s3 1.36 3 3.018c0 1.659-1.335 3.019-3 3.019s-3-1.36-3-3.019M9.4 6c-.544 0-1 .447-1 1.018a1.01 1.01 0 0 0 1 1.019c.544 0 1-.448 1-1.019A1.01 1.01 0 0 0 9.4 6m0 11.101c-.544 0-1 .447-1 1.018a1.01 1.01 0 0 0 1 1.019c.544 0 1-.448 1-1.019a1.01 1.01 0 0 0-1-1.018m8.452-5.045a4.51 4.51 0 0 1 3.443-1.597h2.61a4.51 4.51 0 0 1 3.443 1.597l-.763.646.763-.646c.421.497.652 1.128.652 1.78v2.063a1 1 0 1 1-2 0v-2.064a.76.76 0 0 0-.178-.487 2.51 2.51 0 0 0-1.917-.89h-2.61a2.51 2.51 0 0 0-1.916.89.76.76 0 0 0-.179.487V15.9a1 1 0 1 1-2 0v-2.064c0-.651.23-1.282.652-1.78m0 11.1a4.51 4.51 0 0 1 3.443-1.596h2.61a4.51 4.51 0 0 1 3.443 1.597c.421.497.652 1.128.652 1.78v.082A2.98 2.98 0 0 1 25.02 28h-4.838a2.98 2.98 0 0 1-2.98-2.981v-.083c0-.651.23-1.282.65-1.78m3.443.404a2.51 2.51 0 0 0-1.916.889.76.76 0 0 0-.179.487v.083c0 .542.44.981.981.981h4.838c.542 0 .981-.44.981-.981v-.083a.76.76 0 0 0-.178-.488 2.51 2.51 0 0 0-1.917-.888zM19.6 18.12c0-1.659 1.335-3.019 3-3.019s3 1.36 3 3.018c0 1.659-1.335 3.019-3 3.019s-3-1.36-3-3.019m0-11.102C19.6 5.36 20.935 4 22.6 4s3 1.36 3 3.018c0 1.659-1.335 3.019-3 3.019s-3-1.36-3-3.019M22.6 6c-.544 0-1 .447-1 1.018a1.01 1.01 0 0 0 1 1.019c.544 0 1-.448 1-1.019A1.01 1.01 0 0 0 22.6 6m0 11.101c-.544 0-1 .447-1 1.018a1.01 1.01 0 0 0 1 1.019c.544 0 1-.448 1-1.019a1.01 1.01 0 0 0-1-1.018" clip-rule="evenodd"/></svg>