<svg xmlns="http://www.w3.org/2000/svg" width="20" height="20" fill="none" class="persona-icon" viewBox="0 0 20 20"><path fill="currentColor" d="M13.281 6.378a4.46 4.46 0 0 0-3.12-1.196c-2.086.025-3.923 1.352-4.566 3.297a4.64 4.64 0 0 0 0 3.04q.194.572.527 1.08c1.469 2.242 4.514 2.893 6.803 1.454l-.006.003.003-.002.003-.001a3.68 3.68 0 0 0 1.628-2.415h-4.392V8.544h7.686q.15.812.149 1.637a7.72 7.72 0 0 1-2.434 5.878 7.89 7.89 0 0 1-5.4 1.938c-3.086.001-5.909-1.704-7.294-4.406a7.87 7.87 0 0 1 0-7.184C4.253 3.705 7.076 1.999 10.161 2a7.93 7.93 0 0 1 5.46 2.083z"/></svg>