<svg xmlns="http://www.w3.org/2000/svg" width="24" height="24" fill="none" class="persona-icon" viewBox="0 0 24 24"><path fill="currentColor" d="M16.101 7.472a5.57 5.57 0 0 0-3.9-1.495c-2.607.032-4.904 1.69-5.708 4.122a5.8 5.8 0 0 0 0 3.8c.162.474.383.928.66 1.349 1.835 2.803 5.643 3.617 8.503 1.818l-.01.005.006-.003.004-.002a4.6 4.6 0 0 0 2.035-3.018h-5.49v-3.867h9.608q.186 1.014.185 2.045a9.65 9.65 0 0 1-3.041 7.348 9.86 9.86 0 0 1-6.751 2.422c-3.857.002-7.386-2.13-9.117-5.507a9.83 9.83 0 0 1 0-8.98C4.817 4.13 8.345 1.999 12.201 2a9.91 9.91 0 0 1 6.826 2.604z"/></svg>