<svg xmlns="http://www.w3.org/2000/svg" width="32" height="32" fill="none" class="persona-icon"><path fill="currentColor" d="M21.127 10.114a6.818 6.818 0 0 0-4.875-1.944c-3.26.042-6.13 2.197-7.135 5.359a7.824 7.824 0 0 0 0 4.939c.201.617.478 1.206.823 1.754 2.295 3.645 7.054 4.703 10.63 2.364l-.013.007.008-.005.005-.002a5.987 5.987 0 0 0 2.544-3.924h-6.863v-5.027h12.01c.155.877.233 1.767.232 2.658.118 3.59-1.264 7.062-3.802 9.554a12.04 12.04 0 0 1-8.44 3.148c-4.82.002-9.23-2.769-11.395-7.16a13.238 13.238 0 0 1 0-11.674C7.021 5.77 11.431 3 16.253 3.001a12.129 12.129 0 0 1 8.532 3.385l-3.657 3.728Z"/></svg>