<svg xmlns="http://www.w3.org/2000/svg" width="16" height="16" fill="none" class="persona-icon" viewBox="0 0 16 16"><path fill="currentColor" d="M6.572 6.875v2.25a.5.5 0 1 1-1 0v-2.25a.5.5 0 1 1 1 0"/><path fill="currentColor" fill-rule="evenodd" d="M3.414 3h9.172a1.7 1.7 0 0 1 1.7 1.7V6.07a.5.5 0 0 1-.5.5 1.429 1.429 0 1 0 0 2.857.5.5 0 0 1 .5.5V11.3a1.7 1.7 0 0 1-1.7 1.7H3.414a1.7 1.7 0 0 1-1.7-1.7V9.928a.5.5 0 0 1 .5-.5 1.429 1.429 0 1 0 0-2.857.5.5 0 0 1-.5-.5V4.7a1.7 1.7 0 0 1 1.7-1.7m2.158 1H3.414a.7.7 0 0 0-.7.7v.922a2.43 2.43 0 0 1 0 4.755v.923a.7.7 0 0 0 .7.7h2.158v-.625a.5.5 0 1 1 1 0V12h6.014a.7.7 0 0 0 .7-.7v-.923a2.43 2.43 0 0 1 0-4.755V4.7a.7.7 0 0 0-.7-.7H6.572v.625a.5.5 0 1 1-1 0z" clip-rule="evenodd"/></svg>