<svg xmlns="http://www.w3.org/2000/svg" width="20" height="20" fill="none" class="persona-icon" viewBox="0 0 20 20"><path fill="currentColor" d="M8.31 8.65v2.7a.625.625 0 0 1-1.25 0v-2.7a.625.625 0 1 1 1.25 0"/><path fill="currentColor" fill-rule="evenodd" d="M7.862 4h7.481a2.2 2.2 0 0 1 2.2 2.2v1.486a.6.6 0 0 1-.6.6 1.714 1.714 0 0 0 0 3.428.6.6 0 0 1 .6.6V13.8a2.2 2.2 0 0 1-2.2 2.2H7.861a.63.63 0 0 1-.35 0H4.657a2.2 2.2 0 0 1-2.2-2.2v-1.486a.6.6 0 0 1 .6-.6 1.714 1.714 0 1 0 0-3.428.6.6 0 0 1-.6-.6V6.2a2.2 2.2 0 0 1 2.2-2.2H7.51a.63.63 0 0 1 .352 0M7.06 5.2H4.657a1 1 0 0 0-1 1v.947a2.915 2.915 0 0 1 0 5.705v.948a1 1 0 0 0 1 1h2.404v-.75a.625.625 0 1 1 1.25 0v.75h7.032a1 1 0 0 0 1-1v-.948a2.915 2.915 0 0 1 0-5.705V6.2a1 1 0 0 0-1-1H8.311v.75a.625.625 0 0 1-1.25 0z" clip-rule="evenodd"/></svg>