<svg xmlns="http://www.w3.org/2000/svg" width="20" height="20" fill="none" class="persona-icon" viewBox="0 0 20 20"><path fill="currentColor" d="M8.124 7.053a.6.6 0 0 0-.593-.606.6.6 0 0 0-.593.606v1.965a.6.6 0 0 0 .593.606.6.6 0 0 0 .593-.606zM8.124 10.982a.6.6 0 0 0-.593-.606.6.6 0 0 0-.593.606v1.965a.6.6 0 0 0 .593.606.6.6 0 0 0 .593-.606z"/><path fill="currentColor" fill-rule="evenodd" d="M4.568 3.5C3.15 3.5 2 4.676 2 6.127v1.347a.6.6 0 0 0 .593.606c1.036 0 1.876.86 1.876 1.92s-.84 1.92-1.876 1.92a.6.6 0 0 0-.593.606v1.347c0 1.45 1.15 2.627 2.568 2.627h10.864C16.85 16.5 18 15.324 18 13.873v-1.347a.6.6 0 0 0-.593-.606c-1.036 0-1.876-.86-1.876-1.92s.84-1.92 1.876-1.92A.6.6 0 0 0 18 7.474V6.127c0-1.45-1.15-2.627-2.568-2.627zm2.37 1.212v.377a.6.6 0 0 0 .593.606.6.6 0 0 0 .593-.607v-.376h7.308c.764 0 1.383.634 1.383 1.415v.8c-1.408.282-2.47 1.55-2.47 3.073s1.063 2.791 2.47 3.073v.8c0 .781-.62 1.415-1.383 1.415H8.124v-.377a.6.6 0 0 0-.593-.606.6.6 0 0 0-.593.607v.376h-2.37c-.764 0-1.383-.634-1.383-1.415v-.8c1.408-.282 2.47-1.55 2.47-3.073s-1.062-2.791-2.47-3.073v-.8c0-.781.62-1.415 1.383-1.415z" clip-rule="evenodd"/></svg>