<svg xmlns="http://www.w3.org/2000/svg" width="24" height="24" fill="none"><path fill="currentColor" d="M9.692 8.628a.772.772 0 0 0-.769-.774.772.772 0 0 0-.77.774v1.927c0 .427.345.774.77.774.425 0 .77-.347.77-.774V8.628ZM9.692 13.445a.772.772 0 0 0-.769-.774.772.772 0 0 0-.77.774v1.927c0 .428.345.774.77.774.425 0 .77-.346.77-.774v-1.927Z"/><path fill="currentColor" d="M4.82 4A2.83 2.83 0 0 0 2 6.839v2.064c0 .428.344.774.77.774A2.315 2.315 0 0 1 5.076 12a2.315 2.315 0 0 1-2.308 2.323.772.772 0 0 0-.769.774v2.064A2.83 2.83 0 0 0 4.82 20h14.36A2.83 2.83 0 0 0 22 17.161v-2.064a.772.772 0 0 0-.77-.774A2.315 2.315 0 0 1 18.924 12a2.315 2.315 0 0 1 2.308-2.323c.425 0 .769-.346.769-.774V6.84A2.83 2.83 0 0 0 19.18 4H4.82Zm3.334 1.548v.19c0 .427.344.774.77.774.424 0 .768-.347.768-.774v-.19h9.488c.707 0 1.282.578 1.282 1.29v1.369A3.866 3.866 0 0 0 17.385 12a3.866 3.866 0 0 0 3.076 3.793v1.368c0 .713-.573 1.29-1.281 1.29H9.692v-.189a.772.772 0 0 0-.769-.774.772.772 0 0 0-.77.774v.19H4.82a1.286 1.286 0 0 1-1.282-1.29v-1.368A3.866 3.866 0 0 0 6.615 12a3.866 3.866 0 0 0-3.077-3.793V6.838c0-.713.575-1.29 1.283-1.29h3.333Z"/></svg>