<svg xmlns="http://www.w3.org/2000/svg" width="24" height="24" fill="none" class="persona-icon" viewBox="0 0 24 24"><path fill="currentColor" d="M9.667 10.201V13.8a.75.75 0 0 1-1.5 0V10.2a.75.75 0 1 1 1.5 0"/><path fill="currentColor" fill-rule="evenodd" d="M8.936 4.056H19.25A2.75 2.75 0 0 1 22 6.806v2.11a.75.75 0 0 1-.75.75 2.333 2.333 0 1 0 0 4.667.75.75 0 0 1 .75.75v2.112a2.75 2.75 0 0 1-2.75 2.75H4.75A2.75 2.75 0 0 1 2 17.195v-2.112a.75.75 0 0 1 .75-.75 2.333 2.333 0 1 0 0-4.666.75.75 0 0 1-.75-.75V6.806a2.75 2.75 0 0 1 2.75-2.75h4.187m-.77 1.5H4.75c-.69 0-1.25.56-1.25 1.25V8.24a3.835 3.835 0 0 1 0 7.52v1.435c0 .69.56 1.25 1.25 1.25h3.417v-1.05a.75.75 0 1 1 1.5 0v1.05h9.583c.69 0 1.25-.56 1.25-1.25V15.76a3.835 3.835 0 0 1 0-7.52V6.806c0-.69-.56-1.25-1.25-1.25H9.667v1.048a.75.75 0 0 1-1.5 0z" clip-rule="evenodd"/></svg>