<svg xmlns="http://www.w3.org/2000/svg" width="32" height="32" fill="none"><path fill="#000" d="M12.228 16.53a12.014 12.014 0 0 1 2.699-2.862c-.747 1.782-1.512 3.864-1.944 5.316-.182.612-.013 1.366.674 1.716.627.32 1.303.097 1.729-.305 1.035-.978 1.905-1.523 2.567-1.826-.062.167-.122.338-.18.508-.205.613-.044 1.36.623 1.724.593.323 1.258.153 1.701-.21.473-.386.672-.427.74-.43.056-.004.201.004.616.277a1 1 0 1 0 1.099-1.671c-.513-.337-1.116-.647-1.837-.603-.165.01-.325.038-.48.081a1.524 1.524 0 0 0-.133-1.377 1.407 1.407 0 0 0-1.442-.613c-.767.135-1.844.51-3.146 1.44a59.949 59.949 0 0 1 1.78-4.454 1.633 1.633 0 0 0-.325-1.826c-.44-.447-1.198-.67-1.903-.251a14.113 14.113 0 0 0-4.503 4.258c-.983 1.477-1.56 3.014-1.56 4.18a1 1 0 1 0 2 0c0-.612.35-1.758 1.225-3.072Z"/><path fill="#000" fill-rule="evenodd" d="M6.402 3.002a3.4 3.4 0 0 0-1 6.65v12.7a3.401 3.401 0 1 0 4.25 4.25h12.7a3.401 3.401 0 1 0 4.25-4.25v-12.7a3.402 3.402 0 0 0-1-6.65 3.402 3.402 0 0 0-3.25 2.4h-12.7a3.402 3.402 0 0 0-3.25-2.4Zm3.25 4.4a3.408 3.408 0 0 1-2.25 2.25v12.7a3.408 3.408 0 0 1 2.25 2.25h12.7a3.408 3.408 0 0 1 2.25-2.25v-12.7a3.407 3.407 0 0 1-2.25-2.25h-12.7Zm-4.65-1a1.4 1.4 0 1 1 2.8 0 1.4 1.4 0 0 1-2.8 0Zm0 19.2a1.4 1.4 0 1 1 2.8 0 1.4 1.4 0 0 1-2.8 0Zm19.2-19.2a1.4 1.4 0 1 1 2.8 0 1.4 1.4 0 0 1-2.8 0Zm1.4 17.8a1.4 1.4 0 1 0 0 2.8 1.4 1.4 0 0 0 0-2.8Z" clip-rule="evenodd"/></svg>