<svg xmlns="http://www.w3.org/2000/svg" width="16" height="16" fill="none" class="persona-icon"><path fill="currentColor" d="M13.728 2.061a.516.516 0 0 0-.53.026l-3.37 2.246-3.37-2.246a.515.515 0 0 0-.572 0L2.23 4.524a.516.516 0 0 0-.23.43v8.53a.516.516 0 0 0 .802.43l3.37-2.247 3.37 2.246a.515.515 0 0 0 .572 0l3.656-2.437a.516.516 0 0 0 .23-.43v-8.53a.516.516 0 0 0-.272-.455Zm-.76 1.418v7.292l-3.14 2.094-3.37-2.247a.516.516 0 0 0-.572 0L3.03 12.52V5.229l3.14-2.094 3.371 2.247a.516.516 0 0 0 .572 0L12.97 3.48Z"/><path fill="currentColor" d="M10.344 13.484V4.953H9.313v8.531h1.03ZM6.688 11.047V2.516H5.656v8.53h1.032Z"/></svg>