<svg xmlns="http://www.w3.org/2000/svg" width="32" height="32" fill="none" class="persona-icon" viewBox="0 0 32 32"><path fill="currentColor" fill-rule="evenodd" d="M27.472 4.118A1 1 0 0 1 28 5v17.111a1 1 0 0 1-.445.832l-7.334 4.89a1 1 0 0 1-1.109 0l-6.779-4.52-6.778 4.52A1 1 0 0 1 4 27V9.889a1 1 0 0 1 .445-.832l7.334-4.889a1 1 0 0 1 1.109 0l6.779 4.519 6.778-4.519a1 1 0 0 1 1.027-.05M11.333 21.576V6.869L6 10.424v14.708zm7.334-11.152L13.333 6.87v14.707l5.334 3.555zm2 14.708L26 21.575V6.869l-5.333 3.555z" clip-rule="evenodd"/></svg>