<svg xmlns="http://www.w3.org/2000/svg" width="24" height="24" fill="none" class="persona-icon" viewBox="0 0 24 24"><path fill="currentColor" fill-rule="evenodd" d="M12 22C6.477 22 2 17.523 2 12S6.477 2 12 2s10 4.477 10 10-4.477 10-10 10M3.539 12a8.461 8.461 0 1 0 16.922 0A8.461 8.461 0 0 0 3.54 12" clip-rule="evenodd"/><path fill="currentColor" fill-rule="evenodd" d="M8.234 13.756a.858.858 0 0 1 0-1.179l3.2-3.333a.777.777 0 0 1 1.132 0l3.2 3.333a.858.858 0 0 1 0 1.179.777.777 0 0 1-1.132 0L12 11.012l-2.634 2.744a.777.777 0 0 1-1.132 0" clip-rule="evenodd"/></svg>