<svg xmlns="http://www.w3.org/2000/svg" width="24" height="24" fill="none" class="persona-icon" viewBox="0 0 24 24"><path fill="currentColor" fill-rule="evenodd" d="M8.667 2.268a.769.769 0 0 0-1.539 0v1.28H5.846A3.844 3.844 0 0 0 2 7.39V18.66A3.844 3.844 0 0 0 5.846 22.5h12.308A3.844 3.844 0 0 0 22 18.659V7.39a3.844 3.844 0 0 0-3.846-3.841h-1.282v-1.28a.769.769 0 0 0-1.539 0v1.28H8.667v-1.28m11.795 6.403H3.539V7.39a2.306 2.306 0 0 1 2.307-2.306h1.282v1.28a.769.769 0 0 0 1.539 0v-1.28h6.666v1.28a.769.769 0 0 0 1.539 0v-1.28h1.282a2.306 2.306 0 0 1 2.308 2.305v1.28M3.539 10.207h16.923v8.452a2.306 2.306 0 0 1-2.308 2.304H5.846a2.306 2.306 0 0 1-2.307-2.305v-8.45Z" clip-rule="evenodd"/></svg>