<svg xmlns="http://www.w3.org/2000/svg" width="24" height="24" fill="none" class="persona-icon" viewBox="0 0 24 24"><path fill="currentColor" fill-rule="evenodd" d="M8.333 1.625a.75.75 0 0 1 .75.75v1.083h5.834V2.375a.75.75 0 1 1 1.5 0v1.083H17.5a3.5 3.5 0 0 1 3.5 3.5v10.084a3.5 3.5 0 0 1-3.5 3.5h-11a3.5 3.5 0 0 1-3.5-3.5V6.958a3.5 3.5 0 0 1 3.5-3.5h1.083V2.375a.75.75 0 0 1 .75-.75m-.75 3.333H6.5a2 2 0 0 0-2 2v1.083h15V6.958a2 2 0 0 0-2-2h-1.083v1.084a.75.75 0 0 1-1.5 0V4.958H9.083v1.084a.75.75 0 1 1-1.5 0zM19.5 9.541h-15v7.5a2 2 0 0 0 2 2h11a2 2 0 0 0 2-2z" clip-rule="evenodd"/></svg>