<svg xmlns="http://www.w3.org/2000/svg" width="32" height="32" fill="none" class="persona-icon" viewBox="0 0 32 32"><path fill="currentColor" fill-rule="evenodd" d="M11.111 2.166a1 1 0 0 1 1 1v1.445h7.778V3.166a1 1 0 0 1 2 0v1.445h1.444A4.667 4.667 0 0 1 28 9.278v13.444a4.667 4.667 0 0 1-4.667 4.667H8.667A4.667 4.667 0 0 1 4 22.722V9.278A4.667 4.667 0 0 1 8.667 4.61h1.444V3.166a1 1 0 0 1 1-1m-1 4.445H8.667A2.667 2.667 0 0 0 6 9.278v1.444h20V9.278a2.667 2.667 0 0 0-2.667-2.667H21.89v1.444a1 1 0 1 1-2 0V6.611H12.11v1.444a1 1 0 1 1-2 0zM26 12.722H6v10a2.667 2.667 0 0 0 2.667 2.667h14.666A2.667 2.667 0 0 0 26 22.722z" clip-rule="evenodd"/></svg>