<svg xmlns="http://www.w3.org/2000/svg" width="32" height="32" fill="none" class="persona-icon" viewBox="0 0 32 32"><path fill="currentColor" fill-rule="evenodd" d="M11.464 3c0-.552-.453-1-1.013-1-.56 0-1.014.448-1.014 1v1.737H7.676C4.817 4.737 2.5 7.023 2.5 9.842v15.053C2.5 27.715 4.817 30 7.676 30h16.648c2.859 0 5.176-2.286 5.176-5.105V9.842c0-2.82-2.317-5.105-5.176-5.105h-1.76V3c0-.552-.455-1-1.015-1-.56 0-1.013.448-1.013 1v1.737h-9.072V3m16.008 8.579H4.528V9.842c0-1.715 1.41-3.105 3.148-3.105h1.76v1.737c0 .552.455 1 1.015 1 .56 0 1.013-.448 1.013-1V6.737h9.072v1.737c0 .552.453 1 1.013 1 .56 0 1.014-.448 1.014-1V6.737h1.761c1.739 0 3.148 1.39 3.148 3.105v1.737Zm-22.944 2h22.944v11.316c0 1.715-1.41 3.105-3.148 3.105H7.676c-1.739 0-3.148-1.39-3.148-3.105V13.579Z" clip-rule="evenodd"/></svg>