<svg xmlns="http://www.w3.org/2000/svg" width="20" height="20" fill="none" class="persona-icon" viewBox="0 0 20 20"><path fill="currentColor" fill-rule="evenodd" d="M4.311 2.975H15.69c.738 0 1.336.598 1.336 1.336v9.158h-.003l.003.087v2.133c0 .738-.598 1.336-1.336 1.336H4.311a1.336 1.336 0 0 1-1.336-1.336v-2.133q0-.044.003-.087h-.003V4.311c0-.738.598-1.336 1.336-1.336m-.086 10.58v2.134c0 .047.039.086.086.086H15.69a.086.086 0 0 0 .086-.086v-2.133a.086.086 0 0 0-.086-.087H4.311a.086.086 0 0 0-.086.087" clip-rule="evenodd"/></svg>