<svg xmlns="http://www.w3.org/2000/svg" width="24" height="24" fill="none" class="persona-icon" viewBox="0 0 24 24"><path fill="currentColor" fill-rule="evenodd" d="M12 22C6.477 22 2 17.523 2 12S6.477 2 12 2s10 4.477 10 10-4.477 10-10 10M3.539 12a8.461 8.461 0 1 0 16.922 0A8.461 8.461 0 0 0 3.54 12" clip-rule="evenodd"/><path fill="currentColor" fill-rule="evenodd" d="M7.354 7.354c.3-.3.787-.3 1.087 0l8.205 8.205a.77.77 0 0 1-1.087 1.088L7.354 8.44a.77.77 0 0 1 0-1.088" clip-rule="evenodd"/><path fill="currentColor" fill-rule="evenodd" d="M7.354 16.647a.77.77 0 0 1 0-1.088l8.205-8.205a.77.77 0 0 1 1.088 1.087L8.44 16.646c-.3.3-.787.3-1.088 0" clip-rule="evenodd"/></svg>