<svg xmlns="http://www.w3.org/2000/svg" width="32" height="32" fill="none" class="persona-icon" viewBox="0 0 32 32"><path fill="currentColor" d="M9.047 22.954a1 1 0 0 1 0-1.415L14.587 16l-5.54-5.539a1 1 0 0 1 1.414-1.414l5.54 5.539 5.539-5.54a1 1 0 0 1 1.414 1.415l-5.54 5.54 5.54 5.538a1 1 0 0 1-1.414 1.414L16 17.414l-5.539 5.54a1 1 0 0 1-1.414 0"/><path fill="currentColor" fill-rule="evenodd" d="M2 16c0 7.732 6.268 14 14 14s14-6.268 14-14S23.732 2 16 2 2 8.268 2 16m14 12C9.373 28 4 22.627 4 16S9.373 4 16 4c6.628 0 12 5.373 12 12s-5.372 12-12 12" clip-rule="evenodd"/></svg>