<svg xmlns="http://www.w3.org/2000/svg" width="24" height="24" fill="none" class="persona-icon" viewBox="0 0 24 24"><path fill="currentColor" fill-rule="evenodd" d="M12 22C6.477 22 2 17.523 2 12S6.477 2 12 2s10 4.477 10 10-4.477 10-10 10M3.5 12a8.5 8.5 0 1 0 17 0 8.5 8.5 0 0 0-17 0" clip-rule="evenodd"/><path fill="currentColor" d="M10.919 16.865a1.081 1.081 0 1 1 2.162 0 1.081 1.081 0 0 1-2.162 0"/><path fill="currentColor" fill-rule="evenodd" d="M12 13.831a.75.75 0 0 1-.75-.75V6.812a.75.75 0 0 1 1.5 0v6.27a.75.75 0 0 1-.75.75" clip-rule="evenodd"/></svg>