<svg xmlns="http://www.w3.org/2000/svg" width="24" height="24" fill="none"><path fill="#000" d="M12 6.086a.77.77 0 0 1 .77.771v1.286h1.281a.77.77 0 0 1 0 1.543H12.77v1.285a.77.77 0 1 1-1.538 0V9.686H9.949a.77.77 0 0 1 0-1.543h1.282V6.857A.77.77 0 0 1 12 6.086Z"/><path fill="#000" fill-rule="evenodd" d="M6.103 3.771A.77.77 0 0 1 6.872 3h10.256a.77.77 0 0 1 .77.771v3.343h2.307a.77.77 0 0 1 .77.772v11.571h.256a.77.77 0 0 1 0 1.543H2.769a.77.77 0 0 1 0-1.543h.257V7.886a.77.77 0 0 1 .769-.772h2.308V3.771Zm3.076 15.686H7.641V14.83h8.718v4.628H14.82v-2.314a.77.77 0 0 0-.769-.772H9.95a.77.77 0 0 0-.77.772v2.314Zm1.539 0v-1.543h2.564v1.543h-2.564ZM7.64 13.286h8.718V4.543H7.641v8.743ZM6.103 8.657H4.564v10.8h1.539v-10.8Zm13.333 10.8h-1.539v-10.8h1.539v10.8Z" clip-rule="evenodd"/></svg>