<svg xmlns="http://www.w3.org/2000/svg" width="32" height="32" fill="none"><path fill="#000" fill-rule="evenodd" d="M11 7h10v2.82a3 3 0 0 0 1.374 2.521l.337.218A5 5 0 0 1 25 16.76V24a5 5 0 0 1-5 5h-8a5 5 0 0 1-5-5v-7.24a5 5 0 0 1 2.29-4.201l.336-.218A3 3 0 0 0 11 9.821V7Zm2 2v.82a5 5 0 0 1-2.29 4.202l-.336.217A3 3 0 0 0 9 16.76V24a3 3 0 0 0 3 3h8a3 3 0 0 0 3-3v-7.24a3 3 0 0 0-1.374-2.52l-.337-.218A5 5 0 0 1 19 9.82V9h-6Z" clip-rule="evenodd"/><path fill="#000" fill-rule="evenodd" d="M16 17.667a1 1 0 0 1 1 1V24a1 1 0 1 1-2 0v-5.333a1 1 0 0 1 1-1Z" clip-rule="evenodd"/><path fill="#000" fill-rule="evenodd" d="M19.667 21.333a1 1 0 0 1-1 1h-5.334a1 1 0 1 1 0-2h5.334a1 1 0 0 1 1 1ZM8.333 6a3 3 0 0 1 3-3h9.334a3 3 0 0 1 0 6h-9.334a3 3 0 0 1-3-3Zm3-1a1 1 0 1 0 0 2h9.334a1 1 0 1 0 0-2h-9.334ZM7.667 14.667a1 1 0 0 1 1-1h14.666a1 1 0 1 1 0 2H8.667a1 1 0 0 1-1-1Z" clip-rule="evenodd"/></svg>