<svg xmlns="http://www.w3.org/2000/svg" width="16" height="16" fill="none" class="persona-icon" viewBox="0 0 16 16"><path fill="currentColor" d="M4.296 1.944A2.255 2.255 0 0 0 2.042 4.2v7.026a2.255 2.255 0 0 0 2.254 2.254h.37a.5.5 0 1 0 0-1h-.37a1.255 1.255 0 0 1-1.255-1.254V4.199c0-.693.562-1.255 1.255-1.255h7.018c.693 0 1.255.562 1.255 1.255v1.009a.5.5 0 1 0 1 0v-1.01a2.255 2.255 0 0 0-2.255-2.254z"/><path fill="currentColor" d="M9.28 6.582a1.8 1.8 0 1 0 .002 3.6 1.8 1.8 0 0 0-.001-3.6M8.598 10.668a2.31 2.31 0 0 0-1.757.81 1.4 1.4 0 0 0-.336.912v.08c0 .814.66 1.474 1.475 1.474h2.6c.814 0 1.474-.66 1.474-1.475v-.079c0-.334-.119-.657-.336-.911a2.31 2.31 0 0 0-1.757-.81zM12.132 10.48a3.3 3.3 0 0 0-.61-.42 2.8 2.8 0 0 0 .428-2.523h.032a1.475 1.475 0 0 1 .15 2.943M12.976 13.088q.076-.297.078-.619v-.079a2.4 2.4 0 0 0-.612-1.602h.051q.126 0 .25.026l.094.02c.408.087.769.326 1.009.667l.02.028a.97.97 0 0 1-.232 1.347l-.168.12a.5.5 0 0 1-.29.092z"/></svg>