<svg xmlns="http://www.w3.org/2000/svg" width="20" height="20" fill="none" class="persona-icon" viewBox="0 0 20 20"><path fill="currentColor" d="M5.694 2.905a2.667 2.667 0 0 0-2.667 2.667v8.175a2.667 2.667 0 0 0 2.667 2.667h.431a.625.625 0 1 0 0-1.25h-.431a1.417 1.417 0 0 1-1.417-1.417V5.572c0-.782.635-1.417 1.417-1.417h8.166c.783 0 1.417.635 1.417 1.417v1.174a.625.625 0 1 0 1.25 0V5.572a2.667 2.667 0 0 0-2.667-2.667z"/><path fill="currentColor" d="M11.494 8.302a2.138 2.138 0 1 0 0 4.275 2.138 2.138 0 0 0 0-4.275M10.7 13.057c-.8 0-1.558.35-2.077.958-.259.304-.401.69-.401 1.09v.091c0 .972.787 1.76 1.759 1.76h3.024a1.76 1.76 0 0 0 1.76-1.76v-.092c0-.399-.143-.785-.402-1.089a2.73 2.73 0 0 0-2.077-.958zM14.825 12.889a4 4 0 0 0-.712-.49c.409-.546.65-1.224.65-1.958 0-.343-.052-.675-.15-.986h.036a1.721 1.721 0 0 1 .176 3.434M15.809 15.932q.09-.348.091-.722v-.093a2.8 2.8 0 0 0-.713-1.87h.059q.148 0 .292.032l.11.023c.475.102.896.38 1.176.778l.023.033a1.13 1.13 0 0 1-.27 1.57l-.196.14a.6.6 0 0 1-.338.109z"/></svg>