<svg xmlns="http://www.w3.org/2000/svg" width="32" height="32" fill="none" class="persona-icon" viewBox="0 0 32 32"><path fill="currentColor" d="M8.593 3.889a4.51 4.51 0 0 0-4.51 4.509v14.051a4.51 4.51 0 0 0 4.51 4.51h.74a1 1 0 1 0 0-2h-.74a2.51 2.51 0 0 1-2.51-2.51V8.398a2.51 2.51 0 0 1 2.51-2.51h14.036a2.51 2.51 0 0 1 2.509 2.51v2.018a1 1 0 1 0 2 0V8.398a4.51 4.51 0 0 0-4.51-4.51z"/><path fill="currentColor" d="M18.562 13.163a3.6 3.6 0 0 0-3.6 3.601 3.6 3.6 0 1 0 3.6-3.6M17.197 21.336a4.62 4.62 0 0 0-3.514 1.621 2.8 2.8 0 0 0-.672 1.823v.159a2.95 2.95 0 0 0 2.95 2.95h5.198a2.95 2.95 0 0 0 2.95-2.95v-.159a2.8 2.8 0 0 0-.672-1.823 4.62 4.62 0 0 0-3.514-1.62zM24.265 20.96a6.6 6.6 0 0 0-1.22-.84 5.58 5.58 0 0 0 1.116-3.356 5.6 5.6 0 0 0-.26-1.69h.063a2.95 2.95 0 0 1 .301 5.886M25.952 26.177q.154-.595.156-1.238v-.159a4.8 4.8 0 0 0-1.223-3.204h.101q.254 0 .501.052l.188.04a3.3 3.3 0 0 1 2.017 1.334l.04.056a1.94 1.94 0 0 1-.463 2.694l-.337.24a1 1 0 0 1-.58.185z"/></svg>