<svg xmlns="http://www.w3.org/2000/svg" width="32" height="32" fill="none"><path fill="#000" fill-rule="evenodd" d="M13.198 2.283a14 14 0 0 1 16.478 16.713 1 1 0 0 1-1.954-.428 12 12 0 1 0-7.347 8.606 1 1 0 0 1 .729 1.863 14 14 0 1 1-7.906-26.754Z" clip-rule="evenodd"/><path fill="#000" fill-rule="evenodd" d="M21.778 9.222a1 1 0 0 1 1 1v8.667a1 1 0 1 1-2 0v-8.667a1 1 0 0 1 1-1Z" clip-rule="evenodd"/><path fill="#000" fill-rule="evenodd" d="M16 11.222a4.778 4.778 0 1 0 0 9.556 4.778 4.778 0 0 0 0-9.556ZM9.222 16a6.778 6.778 0 1 1 13.556 0 6.778 6.778 0 0 1-13.556 0Z" clip-rule="evenodd"/><path fill="#000" fill-rule="evenodd" d="M27.736 18.531c.165-.792.244-1.599.244-1.993h2c0 .563-.1 1.509-.286 2.4a9.45 9.45 0 0 1-.366 1.325c-.141.383-.351.838-.678 1.165a4.611 4.611 0 0 1-7.872-3.26h2a2.611 2.611 0 0 0 4.457 1.846c.004-.005.03-.035.07-.108.044-.082.095-.194.147-.336.106-.287.203-.647.284-1.039Z" clip-rule="evenodd"/></svg>