<svg xmlns="http://www.w3.org/2000/svg" width="16" height="16" fill="none" class="persona-icon" viewBox="0 0 16 16"><path fill="currentColor" d="M10.624 3.53a1.847 1.847 0 1 0 0 3.694 1.847 1.847 0 0 0 0-3.695Zm-.859 1.846a.859.859 0 1 1 1.717 0 .859.859 0 0 1-1.717 0Z"/><path fill="currentColor" d="M9.367 1.5c-.669 0-1.31.266-1.784.74L2.239 7.582a2.524 2.524 0 0 0 0 3.569l2.61 2.609a2.524 2.524 0 0 0 3.568 0l5.344-5.344c.473-.473.739-1.115.739-1.784V2.67A1.17 1.17 0 0 0 13.33 1.5H9.366ZM8.282 2.938c.288-.288.678-.45 1.085-.45h3.962c.1 0 .182.082.182.183v3.962c0 .407-.161.797-.45 1.085l-5.343 5.344c-.6.6-1.571.6-2.17 0l-2.61-2.61c-.6-.599-.6-1.57 0-2.17l5.344-5.344Z"/></svg>