<svg xmlns="http://www.w3.org/2000/svg" width="16" height="16" fill="none" class="persona-icon" viewBox="0 0 16 16"><path fill="currentColor" fill-rule="evenodd" d="M7.585 2.69A2.36 2.36 0 0 1 9.252 2h3.628C13.5 2 14 2.501 14 3.12v3.628c0 .625-.248 1.225-.69 1.667L8.414 13.31a2.36 2.36 0 0 1-3.335 0l-2.39-2.39a2.36 2.36 0 0 1 0-3.335zM9.252 3c-.36 0-.706.143-.96.398L3.398 8.292c-.53.53-.53 1.39 0 1.92l2.39 2.39c.53.53 1.39.53 1.92 0l4.894-4.894c.255-.254.398-.6.398-.96V3.119A.12.12 0 0 0 12.88 3z" clip-rule="evenodd"/><path fill="currentColor" d="M11.73 4.925a.667.667 0 1 1-1.333 0 .667.667 0 0 1 1.333 0"/></svg>