<svg xmlns="http://www.w3.org/2000/svg" width="20" height="20" fill="none" class="persona-icon" viewBox="0 0 20 20"><path fill="currentColor" fill-rule="evenodd" d="M9.486 3.792a2.79 2.79 0 0 1 1.971-.817h4.222c.744 0 1.346.603 1.346 1.346v4.222c0 .74-.294 1.448-.816 1.971l-5.695 5.695a2.79 2.79 0 0 1-3.942 0l-2.78-2.78a2.79 2.79 0 0 1 0-3.943zm1.971.433c-.408 0-.799.162-1.087.45L4.675 10.37c-.6.6-.6 1.574 0 2.174l2.78 2.78c.601.601 1.575.601 2.175 0l5.695-5.694c.288-.288.45-.68.45-1.087V4.321a.096.096 0 0 0-.096-.096z" clip-rule="evenodd"/><path fill="currentColor" d="M14.341 6.422a.776.776 0 1 1-1.551 0 .776.776 0 0 1 1.551 0"/></svg>