<svg xmlns="http://www.w3.org/2000/svg" width="24" height="24" fill="none" class="persona-icon" viewBox="0 0 24 24"><path fill="currentColor" fill-rule="evenodd" d="M11.377 4.036A3.54 3.54 0 0 1 13.878 3h5.443C20.248 3 21 3.752 21 4.68v5.442c0 .938-.373 1.838-1.036 2.501l-7.34 7.34a3.537 3.537 0 0 1-5.004 0L4.036 16.38a3.54 3.54 0 0 1 0-5.003zm2.501.464c-.54 0-1.059.215-1.44.597l-7.341 7.34a2.04 2.04 0 0 0 0 2.882l3.584 3.584a2.04 2.04 0 0 0 2.882 0l7.34-7.34c.382-.383.597-.9.597-1.441V4.679a.18.18 0 0 0-.18-.179z" clip-rule="evenodd"/><path fill="currentColor" d="M17.596 7.388a1 1 0 1 1-2 0 1 1 0 0 1 2 0"/></svg>