<svg xmlns="http://www.w3.org/2000/svg" width="32" height="32" fill="none" class="persona-icon" viewBox="0 0 32 32"><path fill="currentColor" fill-rule="evenodd" d="M21.247 7.059a3.694 3.694 0 1 0 0 7.388 3.694 3.694 0 0 0 0-7.388m-1.717 3.694a1.717 1.717 0 1 1 3.434 0 1.717 1.717 0 0 1-3.434 0" clip-rule="evenodd"/><path fill="currentColor" fill-rule="evenodd" d="M18.735 3a5.05 5.05 0 0 0-3.57 1.478L4.479 15.166a5.047 5.047 0 0 0 0 7.137l5.219 5.219a5.047 5.047 0 0 0 7.137 0l10.688-10.688A5.05 5.05 0 0 0 29 13.266V5.341A2.34 2.34 0 0 0 26.659 3zm-2.171 2.876a3.07 3.07 0 0 1 2.17-.899h7.925c.2 0 .364.163.364.364v7.924a3.07 3.07 0 0 1-.9 2.171L15.437 26.124a3.07 3.07 0 0 1-4.341 0l-5.219-5.219a3.07 3.07 0 0 1 0-4.341z" clip-rule="evenodd"/></svg>