<svg xmlns="http://www.w3.org/2000/svg" width="32" height="32" fill="none" class="persona-icon" viewBox="0 0 32 32"><path fill="currentColor" fill-rule="evenodd" d="M15.169 5.382A4.72 4.72 0 0 1 18.504 4h7.257A2.24 2.24 0 0 1 28 6.239v7.257c0 1.25-.497 2.45-1.381 3.335l-9.788 9.788a4.717 4.717 0 0 1-6.67 0l-4.78-4.78a4.717 4.717 0 0 1 0-6.67zM18.504 6c-.72 0-1.411.286-1.92.796l-9.788 9.787a2.717 2.717 0 0 0 0 3.842l4.779 4.78a2.717 2.717 0 0 0 3.842 0l9.787-9.788c.51-.51.796-1.2.796-1.921V6.239A.24.24 0 0 0 25.761 6z" clip-rule="evenodd"/><path fill="currentColor" d="M23.46 9.85a1.333 1.333 0 1 1-2.666 0 1.333 1.333 0 0 1 2.667 0"/></svg>