<svg xmlns="http://www.w3.org/2000/svg" width="16" height="16" fill="none" class="persona-icon" viewBox="0 0 16 16"><path fill="currentColor" fill-rule="evenodd" d="M1.649 1.646a.5.5 0 0 1 .707 0l.535.535a.505.505 0 0 1 .095.094L9 8.287 10.51 6.78a1.167 1.167 0 0 1 1.65 0L13.5 8.12V3.998A1.5 1.5 0 0 0 12 2.499H4.67a.5.5 0 1 1 0-.999H12c1.38 0 2.499 1.118 2.499 2.498V11.324a.5.5 0 0 1-1 0V9.533l-2.048-2.047a.167.167 0 0 0-.236 0L9.708 8.993l4.044 4.041c.01.01.02.018.028.028l.574.573a.5.5 0 1 1-.707.707l-.267-.267c-.05.033-.106.067-.165.1-.364.2-.893.373-1.577.313H4.002c-1.38 0-2.5-1.118-2.5-2.497V4.21a2.743 2.743 0 0 1 .413-1.592l-.266-.265a.5.5 0 0 1 0-.707m.853 2.541.007.097a.502.502 0 0 1-.007.142v6.358L4.51 8.778a1.167 1.167 0 0 1 1.65 0l1.057 1.056c.065.065.17.065.236 0l.841-.84-5.644-5.64a1.729 1.729 0 0 0-.148.644v.19m.013 7.998a1.5 1.5 0 0 0 1.487 1.304H12c.025 0 .049.002.072.005.237-.02.428-.082.575-.151L9.001 9.7l-.841.84a1.167 1.167 0 0 1-1.65 0L5.453 9.484a.167.167 0 0 0-.236 0l-2.702 2.7" clip-rule="evenodd"/></svg>