<svg xmlns="http://www.w3.org/2000/svg" width="16" height="16" fill="none" class="persona-icon" viewBox="0 0 16 16"><path fill="currentColor" fill-rule="evenodd" d="m2.354 1.647.987.987a.5.5 0 0 1 .093.093l5.829 5.829.007.007.007.007 4.021 4.021q.018.016.033.033l1.023 1.022a.5.5 0 0 1-.708.708l-.72-.721q-.06.038-.126.074c-.339.186-.83.348-1.465.293H4.333A2.333 2.333 0 0 1 2 11.666v-7.14a2.56 2.56 0 0 1 .366-1.452l-.72-.72a.5.5 0 1 1 .708-.707m9.833 11.247-3.27-3.27-.742.742a1.11 1.11 0 0 1-1.572 0l-.969-.97a.11.11 0 0 0-.157 0L3.014 11.86c.093.645.649 1.14 1.32 1.14h7.333a1 1 0 0 1 .066.004 1.5 1.5 0 0 0 .454-.11M3 4.323v.181l.006.088A.5.5 0 0 1 3 4.731v5.728l1.77-1.77a1.11 1.11 0 0 1 1.571 0l.97.97a.11.11 0 0 0 .157 0l.742-.742-5.102-5.102A1.6 1.6 0 0 0 3 4.323" clip-rule="evenodd"/><path fill="currentColor" d="M4.444 2.5a.5.5 0 0 1 .5-.5h6.723A2.333 2.333 0 0 1 14 4.333v6.723a.5.5 0 0 1-1 0V9.429l-1.866-1.866a.11.11 0 0 0-.157 0l-.485.485a.5.5 0 0 1-.707-.707l.485-.485a1.11 1.11 0 0 1 1.571 0L13 8.015V4.333C13 3.597 12.403 3 11.667 3H4.944a.5.5 0 0 1-.5-.5"/></svg>