<svg xmlns="http://www.w3.org/2000/svg" width="20" height="20" fill="none"><path fill="currentColor" d="M15.112 2H6.663a.584.584 0 1 0 0 1.168h8.449c.95 0 1.72.77 1.72 1.72v4.734L15.3 8.09a1.352 1.352 0 0 0-1.913 0l-1.732 1.732L5.03 3.196a.581.581 0 0 0-.5-.5l-.525-.525a.584.584 0 0 0-.826.826l.374.375a2.875 2.875 0 0 0-.545 1.513c-.009.132-.01.27 0 .414v8.806a2.888 2.888 0 0 0 2.888 2.888h8.76c.148.01.29.01.425 0h.032a.588.588 0 0 0 .138-.017 2.77 2.77 0 0 0 1.352-.555l.4.4a.584.584 0 0 0 .827-.826l-.626-.625a.582.582 0 0 0-.381-.382l-4.34-4.34 1.732-1.731a.184.184 0 0 1 .26 0l2.357 2.357v2.063a.584.584 0 1 0 1.169 0V4.887A2.888 2.888 0 0 0 15.112 2ZM4.175 12.694V4.93c.025-.296.116-.533.22-.715l6.434 6.434-.964.963a.184.184 0 0 1-.26 0l-1.218-1.218a1.352 1.352 0 0 0-1.912 0l-2.3 2.3Zm11.589 2.89a1.611 1.611 0 0 1-.73.24h-.337l-.023-.002a.584.584 0 0 0-.127.002H5.895a1.72 1.72 0 0 1-1.705-1.492l3.111-3.111a.184.184 0 0 1 .26 0l1.218 1.218a1.352 1.352 0 0 0 1.913 0l.963-.964 4.109 4.108Z"/></svg>