<svg xmlns="http://www.w3.org/2000/svg" width="20" height="20" fill="none" class="persona-icon" viewBox="0 0 20 20"><path fill="currentColor" fill-rule="evenodd" d="M15.112 2H6.663a.584.584 0 1 0 0 1.168h8.449c.95 0 1.72.77 1.72 1.72v4.734L15.3 8.09a1.35 1.35 0 0 0-1.913 0l-1.732 1.732L5.03 3.196a.58.58 0 0 0-.5-.5l-.525-.525a.584.584 0 0 0-.826.826l.374.375-.05.07a2.9 2.9 0 0 0-.495 1.443q-.014.198 0 .414v8.806a2.89 2.89 0 0 0 2.888 2.888h8.76q.222.015.425 0h.032a.6.6 0 0 0 .138-.017 2.77 2.77 0 0 0 1.352-.555l.4.4a.584.584 0 0 0 .827-.826l-.626-.625a.58.58 0 0 0-.381-.382l-4.34-4.34 1.732-1.731a.184.184 0 0 1 .26 0l2.357 2.358v2.061a.584.584 0 1 0 1.169 0V4.888A2.89 2.89 0 0 0 15.112 2M4.175 12.694V4.93c.025-.296.116-.533.22-.715l6.434 6.434-.964.963a.184.184 0 0 1-.26 0l-1.218-1.218a1.35 1.35 0 0 0-1.912 0zm11.589 2.89a1.6 1.6 0 0 1-.73.24h-.337l-.023-.002a.6.6 0 0 0-.127.002H5.895a1.72 1.72 0 0 1-1.705-1.492l3.111-3.111a.184.184 0 0 1 .26 0l1.218 1.218a1.35 1.35 0 0 0 1.913 0l.963-.964z" clip-rule="evenodd"/></svg>