<svg xmlns="http://www.w3.org/2000/svg" width="24" height="24" fill="none" class="persona-icon" viewBox="0 0 24 24"><path fill="currentColor" fill-rule="evenodd" d="M2.23 2.225c.3-.3.787-.3 1.087 0l.823.822a.769.769 0 0 1 .146.146l9.254 9.248 2.32-2.319c.701-.7 1.837-.7 2.538 0l2.064 2.063V5.843a2.306 2.306 0 0 0-2.307-2.306H6.875a.769.769 0 1 1 0-1.537h11.28A3.844 3.844 0 0 1 22 5.843v11.271a.769.769 0 0 1-1.538 0v-2.756L17.31 11.21c-.1-.1-.263-.1-.363 0l-2.32 2.319 6.22 6.216a.75.75 0 0 1 .045.044l.882.882a.768.768 0 1 1-1.088 1.086l-.41-.41c-.078.051-.163.103-.254.153-.56.308-1.373.575-2.427.483H5.85a3.844 3.844 0 0 1-3.845-3.843V6.168a4.22 4.22 0 0 1 .487-2.197c.048-.09.098-.174.147-.25l-.409-.409c-.3-.3-.3-.787 0-1.087Zm10.223 11.303L3.77 4.85a2.656 2.656 0 0 0-.228.971v.311l.01.15a.77.77 0 0 1-.01.219v9.782l3.09-3.087c.7-.7 1.836-.7 2.537 0l1.626 1.625c.1.1.263.1.363 0l1.295-1.294Zm-8.892 4.91a2.307 2.307 0 0 0 2.288 2.007h11.736a.761.761 0 0 1 .074 0h.496c.037 0 .074.002.11.007.365-.03.658-.126.884-.232l-5.609-5.605-1.294 1.293c-.701.7-1.838.7-2.538 0L8.08 14.284c-.1-.1-.262-.1-.362 0l-4.158 4.154Z" clip-rule="evenodd"/></svg>