<svg xmlns="http://www.w3.org/2000/svg" width="32" height="32" fill="none" class="persona-icon" viewBox="0 0 32 32"><path fill="currentColor" fill-rule="evenodd" d="m4.707 3.293 1.977 1.976a1 1 0 0 1 .182.183L18.534 17.12l.006.006.006.006 8.054 8.053.06.06 2.047 2.048a1 1 0 0 1-1.414 1.414l-1.442-1.442q-.117.075-.251.15c-.678.372-1.662.695-2.933.585h-14A4.667 4.667 0 0 1 4 23.333V9.056c-.046-1.14.251-2.032.59-2.662a5 5 0 0 1 .143-.247l-1.44-1.44a1 1 0 0 1 1.414-1.414M6 8.643v.368l.012.173A1 1 0 0 1 6 9.461V20.92l3.54-3.54a2.22 2.22 0 0 1 3.143 0l1.938 1.938a.22.22 0 0 0 .314 0l1.484-1.484L6.216 7.631A3.1 3.1 0 0 0 6 8.644M24.374 25.79l-6.54-6.542-1.485 1.485a2.22 2.22 0 0 1-3.143 0l-1.938-1.938a.22.22 0 0 0-.314 0L6.028 23.72A2.67 2.67 0 0 0 8.667 26h13.98q.051-.003.102 0h.584q.068 0 .133.009c.364-.032.665-.119.908-.22" clip-rule="evenodd"/><path fill="currentColor" d="M8.889 5a1 1 0 0 1 1-1h13.444A4.667 4.667 0 0 1 28 8.667V22.11a1 1 0 1 1-2 0V18.86l-3.732-3.732a.22.22 0 0 0-.314 0l-.97.969a1 1 0 1 1-1.413-1.414l.969-.97a2.22 2.22 0 0 1 3.143 0L26 16.03V8.667A2.667 2.667 0 0 0 23.333 6H9.89a1 1 0 0 1-1-1"/></svg>