<svg xmlns="http://www.w3.org/2000/svg" width="32" height="32" fill="none" class="persona-icon" viewBox="0 0 32 32"><path fill="currentColor" fill-rule="evenodd" d="M4.707 3.293a1 1 0 0 0-1.414 1.414l1.44 1.44a5 5 0 0 0-.143.247c-.339.63-.636 1.523-.59 2.662v14.277A4.667 4.667 0 0 0 8.667 28h14c1.271.11 2.255-.213 2.933-.586q.134-.074.251-.149l1.442 1.442a1 1 0 0 0 1.414-1.414l-2.047-2.047-.06-.06-8.054-8.054-.006-.006-.006-.006L6.866 5.452a1 1 0 0 0-.182-.183zM6 8.643a3.1 3.1 0 0 1 .216-1.013L16.42 17.834l-1.484 1.485a.22.22 0 0 1-.314 0l-1.939-1.939a2.22 2.22 0 0 0-3.142 0L6 20.92V9.461a1 1 0 0 0 .012-.277L6 9.011v-.367M24.374 25.79a3 3 0 0 1-.908.22 1 1 0 0 0-.133-.009h-.584a1 1 0 0 0-.101 0H8.667a2.67 2.67 0 0 1-2.64-2.28l4.927-4.926a.22.22 0 0 1 .314 0l1.938 1.938a2.22 2.22 0 0 0 3.143 0l1.484-1.485z" clip-rule="evenodd"/><path fill="currentColor" d="M8.889 5a1 1 0 0 1 1-1h13.444A4.667 4.667 0 0 1 28 8.667V22.11a1 1 0 1 1-2 0V18.86l-3.732-3.732a.22.22 0 0 0-.314 0l-.97.969a1 1 0 1 1-1.413-1.414l.969-.97a2.22 2.22 0 0 1 3.143 0L26 16.03V8.667A2.667 2.667 0 0 0 23.333 6H9.89a1 1 0 0 1-1-1"/></svg>