<svg xmlns="http://www.w3.org/2000/svg" width="40" height="40" fill="none" class="persona-ilustration" viewBox="0 0 40 40"><g clip-path="url(#B0jXUu1mSaHHwBHlSKEi72Hqfp7Xbx4kZrSJMARqQGU_a)"><path fill="#E4E4E4" d="m8.098 12.522 1.238.175a.19.19 0 0 0 .183-.082l.617-.922a.19.19 0 0 1 .175-.083l1.665.167a.19.19 0 0 0 .172-.079l.616-.858a.2.2 0 0 1 .172-.078l1.645.158a.19.19 0 0 0 .193-.117l.265-.653a.19.19 0 0 1 .184-.118l1.595.071a.19.19 0 0 0 .166-.085l.444-.675a.19.19 0 0 1 .163-.085l1.622.044a.19.19 0 0 0 .181-.124l.179-.476a.19.19 0 0 1 .191-.122l1.259.098a.19.19 0 0 0 .166-.076l.367-.504c.073-.1.195-.075.3-.006 2.428 1.56 9.223 9.398 9.297 21.5-14.212 7.926-12.789 7.05-12.789 7.05s-1.148-14.12-10.426-23.807a.188.188 0 0 1 .163-.317z"/><path fill="#F8F8F8" fill-rule="evenodd" d="M23.29 12.44a.75.75 0 0 1-.637.848c-1.146.162-2.8.618-4.35 1.197-1.578.59-2.907 1.258-3.494 1.793a.75.75 0 1 1-1.01-1.11c.821-.746 2.396-1.495 3.979-2.087 1.611-.603 3.375-1.096 4.664-1.279a.75.75 0 0 1 .848.638M24.915 15.338a.333.333 0 0 1-.279.38l-.463.069c-.554.08-1.16.169-1.57.269a.333.333 0 1 1-.158-.648c.445-.108 1.098-.203 1.656-.285l.434-.064a.333.333 0 0 1 .38.28M21.653 15.953a.333.333 0 0 1-.22.417c-1.699.527-3.175 1.32-5.193 2.568a.333.333 0 1 1-.351-.567c2.032-1.257 3.565-2.085 5.346-2.638a.333.333 0 0 1 .418.22M26.315 18.026a.333.333 0 0 1-.312.353c-.797.05-1.453.22-1.983.356l-.305.077a.333.333 0 0 1-.159-.647l.284-.073c.53-.137 1.255-.324 2.122-.378a.333.333 0 0 1 .353.312M22.857 18.69a.333.333 0 0 1-.225.413c-1.6.471-3.038 1.118-5.026 2.468a.333.333 0 1 1-.374-.552c2.039-1.384 3.538-2.063 5.211-2.555a.333.333 0 0 1 .414.225M25.43 21.569l-.323.093a.333.333 0 0 1-.176-.643q.147-.04.296-.086c.499-.148 1.061-.314 1.964-.3a.333.333 0 0 1-.01.667c-.795-.013-1.261.124-1.751.269M24.248 21.54a.333.333 0 0 1-.22.417c-1.666.517-3.125 1.281-5.037 2.526a.333.333 0 0 1-.364-.559c1.939-1.262 3.456-2.061 5.203-2.604a.333.333 0 0 1 .418.22M28.409 23.883a.333.333 0 0 1-.313.353c-.557.034-1.105.19-1.61.333l-.282.08a.333.333 0 0 1-.177-.644l.26-.073c.504-.143 1.132-.322 1.768-.361a.333.333 0 0 1 .354.312M25.229 24.59a.333.333 0 0 1-.206.423c-1.512.524-2.965 1.252-4.976 2.406a.333.333 0 1 1-.332-.578c2.024-1.162 3.519-1.914 5.09-2.458a.333.333 0 0 1 .424.206M28.952 27.005a.333.333 0 0 1-.313.353c-.478.028-1.151.142-1.658.38a.333.333 0 0 1-.284-.603c.614-.289 1.38-.412 1.902-.443a.333.333 0 0 1 .353.313M25.953 27.7a.333.333 0 0 1-.206.423c-1.513.523-2.965 1.251-4.977 2.406a.333.333 0 1 1-.332-.578c2.025-1.162 3.52-1.914 5.09-2.458a.333.333 0 0 1 .425.206" clip-rule="evenodd"/><path fill="#EFEFEF" d="m9.028 9.923 1.238.175a.19.19 0 0 0 .183-.081l.617-.922a.19.19 0 0 1 .175-.083l1.665.166a.19.19 0 0 0 .172-.078l.616-.858a.2.2 0 0 1 .172-.079l1.645.159a.19.19 0 0 0 .193-.117l.265-.653a.19.19 0 0 1 .184-.119l1.595.072a.19.19 0 0 0 .166-.085l.444-.675a.19.19 0 0 1 .163-.085l1.622.043a.19.19 0 0 0 .181-.123l.179-.477a.19.19 0 0 1 .191-.121l1.259.098a.19.19 0 0 0 .166-.077l.367-.503c.073-.1.195-.075.3-.007 2.428 1.56 9.223 9.399 9.297 21.5-14.212 7.927-12.789 7.05-12.789 7.05s-1.148-14.12-10.426-23.806a.189.189 0 0 1 .163-.317z"/><path fill="#F8F8F8" fill-rule="evenodd" d="M24.222 9.843a.75.75 0 0 1-.637.848c-1.146.162-2.8.618-4.35 1.197-1.578.59-2.907 1.258-3.494 1.793a.75.75 0 1 1-1.01-1.11c.821-.746 2.396-1.495 3.979-2.087 1.611-.603 3.375-1.096 4.664-1.278a.75.75 0 0 1 .848.637M25.846 12.741a.333.333 0 0 1-.28.38l-.462.069c-.555.08-1.16.169-1.57.269a.333.333 0 0 1-.158-.648c.444-.108 1.097-.203 1.656-.285q.232-.033.434-.064a.333.333 0 0 1 .38.28M22.584 13.356a.333.333 0 0 1-.22.417c-1.698.527-3.174 1.32-5.192 2.568a.333.333 0 0 1-.351-.567c2.031-1.257 3.565-2.085 5.346-2.638a.333.333 0 0 1 .417.22M27.245 15.43a.333.333 0 0 1-.312.353c-.796.049-1.453.218-1.983.355q-.16.041-.305.077a.333.333 0 1 1-.158-.647l.284-.072c.53-.138 1.255-.325 2.121-.379a.333.333 0 0 1 .353.312M23.787 16.092a.333.333 0 0 1-.225.414c-1.6.471-3.038 1.119-5.026 2.468a.333.333 0 0 1-.374-.552c2.039-1.384 3.538-2.063 5.212-2.555a.333.333 0 0 1 .413.225M26.362 18.972q-.158.047-.323.093a.333.333 0 0 1-.176-.643q.146-.04.296-.086c.499-.147 1.061-.314 1.964-.3a.333.333 0 0 1-.01.667c-.796-.013-1.261.125-1.751.269M25.178 18.943a.333.333 0 0 1-.22.417c-1.666.517-3.125 1.281-5.037 2.526a.333.333 0 0 1-.364-.559c1.939-1.262 3.456-2.061 5.203-2.604a.333.333 0 0 1 .418.22M29.34 21.286a.333.333 0 0 1-.312.353c-.557.034-1.105.19-1.61.333l-.282.08a.333.333 0 0 1-.177-.644l.26-.073c.503-.143 1.132-.322 1.768-.361a.333.333 0 0 1 .353.312M26.16 21.993a.333.333 0 0 1-.207.424c-1.512.523-2.964 1.25-4.976 2.405a.333.333 0 0 1-.332-.578c2.025-1.162 3.52-1.914 5.09-2.457a.333.333 0 0 1 .424.206M29.884 24.408a.333.333 0 0 1-.313.353c-.478.029-1.151.142-1.658.38a.333.333 0 1 1-.284-.603c.613-.288 1.38-.411 1.902-.442a.333.333 0 0 1 .353.312M26.883 25.102a.333.333 0 0 1-.206.424c-1.513.523-2.965 1.252-4.977 2.406a.333.333 0 1 1-.331-.578c2.024-1.162 3.519-1.914 5.09-2.458a.333.333 0 0 1 .424.206" clip-rule="evenodd"/><path fill="#fff" d="m10.101 6.977 1.225.25a.19.19 0 0 0 .188-.07l.672-.882a.19.19 0 0 1 .18-.072l1.652.269a.2.2 0 0 0 .176-.067l.669-.818a.19.19 0 0 1 .175-.067l1.633.258a.19.19 0 0 0 .2-.105l.305-.636a.19.19 0 0 1 .19-.107l1.587.17a.19.19 0 0 0 .171-.075l.485-.647a.2.2 0 0 1 .169-.075l1.615.142a.19.19 0 0 0 .188-.112l.207-.465a.19.19 0 0 1 .198-.11l1.25.175a.19.19 0 0 0 .172-.066l.396-.479c.08-.095.199-.061.299.012 2.328 1.705 8.63 9.945 7.963 22.028-14.67 7.042-13.197 6.254-13.197 6.254s-.281-14.164-8.948-24.4a.189.189 0 0 1 .182-.307z"/><path fill="#E4E4E4" fill-rule="evenodd" d="M25.27 7.827a.75.75 0 0 1-.688.807c-1.154.092-2.832.445-4.414.928-1.611.493-2.978 1.078-3.597 1.575a.75.75 0 0 1-.94-1.168c.865-.696 2.483-1.347 4.099-1.841 1.645-.503 3.436-.886 4.733-.99a.75.75 0 0 1 .807.689M26.715 10.817a.333.333 0 0 1-.302.363l-.476.041c-.556.047-1.16.098-1.575.172a.333.333 0 1 1-.116-.657c.447-.079 1.1-.134 1.66-.181l.446-.04a.333.333 0 0 1 .363.302M23.423 11.233a.333.333 0 0 1-.245.402c-1.728.422-3.25 1.12-5.34 2.245a.333.333 0 0 1-.317-.587c2.106-1.132 3.688-1.863 5.5-2.305a.333.333 0 0 1 .402.245M25.604 14.156l-.298.057a.333.333 0 0 1-.12-.656l.279-.053c.539-.106 1.276-.25 2.151-.25a.333.333 0 0 1 0 .667c-.805 0-1.473.13-2.012.235M24.456 14.035a.333.333 0 0 1-.25.4c-1.627.373-3.101.932-5.168 2.156a.333.333 0 0 1-.34-.573c2.12-1.256 3.658-1.843 5.358-2.233.18-.042.359.07.4.25M26.84 17.07l-.319.07a.333.333 0 0 1-.137-.652q.146-.03.295-.066c.509-.117 1.08-.25 1.984-.18a.333.333 0 1 1-.05.665c-.797-.061-1.272.048-1.772.163M25.668 16.967a.333.333 0 0 1-.244.403c-1.694.415-3.197 1.087-5.182 2.213a.333.333 0 0 1-.329-.58c2.013-1.141 3.576-1.845 5.352-2.28a.333.333 0 0 1 .403.244M27.722 20.129l-.29.062a.333.333 0 1 1-.136-.653q.128-.026.267-.057c.51-.112 1.147-.251 1.783-.251a.333.333 0 0 1 0 .666c-.557 0-1.111.121-1.624.233M26.462 20.072a.333.333 0 0 1-.231.41c-1.542.43-3.037 1.07-5.115 2.098a.333.333 0 0 1-.296-.597c2.091-1.035 3.63-1.696 5.232-2.143a.333.333 0 0 1 .41.232M29.698 23.044c-.48 0-1.159.072-1.679.279a.333.333 0 0 1-.246-.62c.63-.25 1.402-.325 1.925-.325a.333.333 0 1 1 0 .666M26.994 23.22a.333.333 0 0 1-.232.41c-1.541.43-3.036 1.07-5.115 2.098a.333.333 0 0 1-.295-.597c2.091-1.035 3.63-1.696 5.231-2.143a.333.333 0 0 1 .41.232" clip-rule="evenodd"/></g><defs><clipPath id="B0jXUu1mSaHHwBHlSKEi72Hqfp7Xbx4kZrSJMARqQGU_a"><path fill="#fff" d="M0 0h40v40H0z"/></clipPath></defs></svg>