<svg xmlns="http://www.w3.org/2000/svg" width="80" height="80" fill="none" class="persona-ilustration" viewBox="0 0 80 80"><g clip-path="url(#CvFu16wDsI_a)"><path fill="#E4E4E4" d="m16.195 25.043 2.477.35a.38.38 0 0 0 .366-.163l1.234-1.844a.38.38 0 0 1 .35-.166l3.33.333a.38.38 0 0 0 .343-.157l1.233-1.716c.08-.11.21-.167.344-.157l3.29.317a.38.38 0 0 0 .387-.234l.53-1.306a.38.38 0 0 1 .366-.237l3.19.143a.38.38 0 0 0 .334-.17l.886-1.35a.38.38 0 0 1 .327-.17l3.243.087a.38.38 0 0 0 .364-.247l.356-.953a.38.38 0 0 1 .383-.243l2.517.196c.13.01.257-.046.334-.153l.733-1.007c.146-.2.39-.15.6-.013 4.856 3.12 18.446 18.797 18.593 43-28.423 15.853-25.577 14.1-25.577 14.1s-2.296-28.24-20.853-47.613a.377.377 0 0 1 .327-.634z"/><path fill="#F8F8F8" fill-rule="evenodd" d="M46.58 24.88a1.5 1.5 0 0 1-1.275 1.695c-2.292.325-5.6 1.236-8.698 2.395-3.156 1.181-5.814 2.516-6.99 3.586a1.5 1.5 0 1 1-2.018-2.22c1.64-1.493 4.791-2.991 7.957-4.175 3.223-1.206 6.75-2.191 9.328-2.557a1.5 1.5 0 0 1 1.696 1.275M49.83 30.676a.667.667 0 0 1-.558.76l-.925.137c-1.11.161-2.32.338-3.141.538a.667.667 0 1 1-.315-1.296c.889-.216 2.195-.406 3.312-.57.308-.044.601-.087.868-.128a.667.667 0 0 1 .76.559M43.305 31.905a.667.667 0 0 1-.439.834c-3.398 1.055-6.35 2.639-10.387 5.137a.667.667 0 0 1-.701-1.134c4.063-2.515 7.13-4.17 10.693-5.276a.667.667 0 0 1 .834.439M52.63 36.052a.667.667 0 0 1-.624.706c-1.593.099-2.906.438-3.967.711q-.32.083-.609.155a.667.667 0 1 1-.317-1.296q.261-.064.568-.144c1.06-.274 2.51-.65 4.243-.757a.667.667 0 0 1 .706.624M45.715 37.378a.667.667 0 0 1-.452.828c-3.2.942-6.075 2.236-10.05 4.935a.667.667 0 0 1-.75-1.103c4.079-2.768 7.078-4.126 10.424-5.111a.667.667 0 0 1 .828.451M50.86 43.137q-.315.094-.646.186a.667.667 0 0 1-.351-1.287q.291-.08.59-.17c.999-.296 2.124-.629 3.93-.6a.667.667 0 1 1-.022 1.334c-1.59-.026-2.521.248-3.502.537M48.495 43.079a.667.667 0 0 1-.439.834c-3.332 1.035-6.25 2.563-10.074 5.052a.667.667 0 1 1-.727-1.117c3.876-2.524 6.91-4.123 10.406-5.208a.667.667 0 0 1 .834.439M56.817 47.766a.667.667 0 0 1-.625.706c-1.114.068-2.21.379-3.22.666l-.564.158a.667.667 0 1 1-.353-1.286q.247-.068.52-.146c1.006-.287 2.264-.645 3.536-.723a.667.667 0 0 1 .706.625M50.458 49.178a.667.667 0 0 1-.412.848c-3.025 1.046-5.929 2.502-9.953 4.812a.667.667 0 1 1-.664-1.157c4.05-2.324 7.039-3.828 10.181-4.915a.667.667 0 0 1 .848.412M57.904 54.01a.667.667 0 0 1-.626.705c-.956.057-2.303.284-3.316.76a.667.667 0 1 1-.568-1.206c1.227-.577 2.76-.823 3.804-.886a.667.667 0 0 1 .706.626M51.905 55.398a.667.667 0 0 1-.412.848c-3.025 1.047-5.929 2.502-9.953 4.812a.667.667 0 0 1-.663-1.157c4.05-2.324 7.038-3.828 10.18-4.915a.667.667 0 0 1 .848.412" clip-rule="evenodd"/><path fill="#EFEFEF" d="m18.056 19.846 2.476.35a.38.38 0 0 0 .367-.163l1.233-1.844a.38.38 0 0 1 .35-.166l3.33.333a.38.38 0 0 0 .343-.157l1.234-1.716c.08-.11.21-.167.343-.157l3.29.317a.38.38 0 0 0 .387-.233l.53-1.307a.38.38 0 0 1 .367-.237l3.19.143a.38.38 0 0 0 .333-.17l.886-1.35a.38.38 0 0 1 .327-.17l3.243.087a.38.38 0 0 0 .364-.247l.356-.953a.38.38 0 0 1 .384-.243l2.517.197c.13.01.256-.047.333-.154L44.972 11c.147-.2.39-.15.6-.013 4.857 3.12 18.447 18.797 18.593 43-28.423 15.854-25.576 14.1-25.576 14.1s-2.297-28.24-20.853-47.613a.377.377 0 0 1 .326-.633z"/><path fill="#F8F8F8" fill-rule="evenodd" d="M48.444 19.686a1.5 1.5 0 0 1-1.275 1.695c-2.292.325-5.599 1.236-8.698 2.396-3.156 1.18-5.814 2.515-6.99 3.585a1.5 1.5 0 1 1-2.018-2.219c1.64-1.494 4.791-2.992 7.957-4.176 3.223-1.206 6.75-2.191 9.328-2.556a1.5 1.5 0 0 1 1.696 1.274M51.691 25.482a.667.667 0 0 1-.558.76l-.926.137c-1.109.162-2.32.338-3.14.538a.667.667 0 0 1-.316-1.295c.89-.216 2.195-.407 3.312-.57l.868-.128a.667.667 0 0 1 .76.558M45.169 26.711a.667.667 0 0 1-.44.835c-3.397 1.054-6.35 2.638-10.386 5.137a.667.667 0 0 1-.702-1.134c4.064-2.515 7.131-4.171 10.694-5.277a.667.667 0 0 1 .834.44M54.49 30.858a.667.667 0 0 1-.623.706c-1.594.1-2.907.438-3.967.711q-.32.084-.61.155a.667.667 0 0 1-.316-1.295q.261-.065.567-.145c1.06-.274 2.51-.649 4.243-.756a.667.667 0 0 1 .707.624M47.575 32.184a.667.667 0 0 1-.452.828c-3.2.942-6.074 2.237-10.05 4.935a.667.667 0 1 1-.749-1.103c4.078-2.768 7.077-4.126 10.423-5.111a.667.667 0 0 1 .828.451M52.723 37.944q-.313.094-.646.185a.667.667 0 1 1-.35-1.286q.29-.08.59-.17c.999-.296 2.123-.63 3.93-.6a.667.667 0 1 1-.023 1.333c-1.59-.026-2.52.249-3.501.538M50.355 37.885a.667.667 0 0 1-.439.834c-3.332 1.035-6.25 2.563-10.074 5.052a.667.667 0 0 1-.727-1.117c3.877-2.524 6.911-4.123 10.406-5.208a.667.667 0 0 1 .834.439M58.68 42.572a.667.667 0 0 1-.624.706c-1.114.069-2.21.38-3.22.666q-.288.082-.564.158a.667.667 0 0 1-.353-1.285q.246-.068.52-.147c1.006-.287 2.263-.645 3.535-.723a.667.667 0 0 1 .707.625M52.319 43.985a.667.667 0 0 1-.412.848c-3.025 1.046-5.93 2.502-9.953 4.811a.667.667 0 1 1-.664-1.156c4.05-2.324 7.039-3.829 10.18-4.916a.667.667 0 0 1 .849.412M59.768 48.816a.667.667 0 0 1-.626.706c-.956.057-2.303.284-3.316.76a.667.667 0 0 1-.568-1.206c1.227-.577 2.76-.823 3.804-.885a.667.667 0 0 1 .706.625M53.766 50.205a.667.667 0 0 1-.413.848c-3.024 1.046-5.928 2.502-9.952 4.811a.667.667 0 0 1-.664-1.156c4.05-2.324 7.038-3.828 10.18-4.915a.667.667 0 0 1 .849.412" clip-rule="evenodd"/><path fill="#fff" d="m20.202 13.953 2.45.5a.38.38 0 0 0 .377-.14l1.343-1.764a.38.38 0 0 1 .36-.143l3.303.537c.134.02.267-.03.354-.133l1.337-1.637a.37.37 0 0 1 .35-.133l3.266.516a.38.38 0 0 0 .4-.21l.61-1.273a.38.38 0 0 1 .38-.213l3.174.34a.38.38 0 0 0 .343-.15l.97-1.294a.39.39 0 0 1 .337-.15l3.23.284a.38.38 0 0 0 .376-.224l.413-.93a.38.38 0 0 1 .397-.22l2.5.35c.13.017.26-.033.343-.133l.794-.957c.16-.19.396-.123.596.024 4.657 3.41 17.26 19.89 15.927 44.056C34.792 64.94 37.74 63.363 37.74 63.363s-.563-28.327-17.897-48.8a.378.378 0 0 1 .364-.614z"/><path fill="#E4E4E4" fill-rule="evenodd" d="M50.54 15.654a1.5 1.5 0 0 1-1.376 1.614c-2.307.183-5.664.89-8.828 1.857-3.222.985-5.956 2.154-7.194 3.15a1.5 1.5 0 1 1-1.88-2.338c1.73-1.391 4.965-2.693 8.197-3.681 3.29-1.006 6.872-1.772 9.468-1.979a1.5 1.5 0 0 1 1.614 1.377M53.43 21.635a.667.667 0 0 1-.604.724c-.3.028-.622.055-.952.083-1.111.094-2.322.197-3.149.343a.667.667 0 0 1-.233-1.313c.894-.158 2.199-.268 3.32-.363.316-.027.619-.052.893-.077a.667.667 0 0 1 .724.603M46.846 22.465a.667.667 0 0 1-.49.805c-3.456.843-6.5 2.24-10.682 4.49a.667.667 0 0 1-.631-1.175c4.211-2.264 7.374-3.726 10.998-4.61a.667.667 0 0 1 .805.49M51.207 28.312q-.312.061-.595.113a.667.667 0 1 1-.24-1.312q.258-.046.557-.106c1.078-.21 2.553-.498 4.303-.498a.667.667 0 1 1 0 1.334c-1.61 0-2.947.26-4.025.469M48.912 28.07a.667.667 0 0 1-.5.799c-3.254.746-6.203 1.865-10.337 4.314a.667.667 0 1 1-.68-1.148c4.24-2.51 7.317-3.685 10.718-4.466a.667.667 0 0 1 .799.501M53.682 34.14c-.21.047-.42.096-.64.142a.667.667 0 0 1-.273-1.305q.29-.062.588-.132c1.018-.235 2.162-.5 3.97-.36a.667.667 0 1 1-.102 1.329c-1.593-.122-2.543.096-3.543.325M51.336 33.934a.667.667 0 0 1-.489.806c-3.387.83-6.394 2.175-10.363 4.426a.667.667 0 0 1-.657-1.16c4.024-2.282 7.15-3.69 10.703-4.56a.667.667 0 0 1 .806.488M55.445 40.257l-.58.125a.667.667 0 1 1-.272-1.305q.252-.054.533-.115c1.02-.224 2.294-.503 3.566-.503a.667.667 0 0 1 0 1.334c-1.114 0-2.223.241-3.247.464M52.924 40.144a.667.667 0 0 1-.463.82c-3.083.86-6.073 2.14-10.23 4.196a.667.667 0 1 1-.591-1.195c4.183-2.07 7.26-3.391 10.463-4.285a.667.667 0 0 1 .821.464M59.395 46.089c-.96 0-2.317.143-3.357.556a.667.667 0 0 1-.492-1.24c1.26-.5 2.803-.65 3.85-.65a.667.667 0 1 1 0 1.334M53.988 46.44a.667.667 0 0 1-.463.82c-3.084.86-6.073 2.14-10.23 4.196a.667.667 0 0 1-.592-1.195c4.183-2.07 7.26-3.391 10.463-4.284a.667.667 0 0 1 .822.463" clip-rule="evenodd"/></g><defs><clipPath id="CvFu16wDsI_a"><path fill="#fff" d="M0 0h80v80H0z"/></clipPath></defs></svg>