<svg xmlns="http://www.w3.org/2000/svg" width="240" height="240" fill="none" class="persona-ilustration" viewBox="0 0 240 240"><g clip-path="url(#1p_a)"><g clip-path="url(#1q_b)"><rect width="200" height="200" x="20" y="20" fill="#D3EDFF" rx="100"/><path fill="#E4E4E4" d="m48.6 124.552 7.43 1.05c.43.06.86-.13 1.1-.49l3.7-5.53c.23-.35.64-.54 1.05-.5l9.99 1c.4.04.8-.14 1.03-.47l3.7-5.15c.24-.33.63-.5 1.03-.47l9.87.95c.5.05.97-.24 1.16-.7l1.59-3.92c.18-.44.62-.73 1.1-.71l9.57.43c.4.02.78-.18 1-.51l2.66-4.05c.22-.33.58-.52.98-.51l9.73.26c.48.01.92-.28 1.09-.74l1.07-2.86c.18-.47.65-.77 1.15-.73l7.55.59c.39.03.77-.14 1-.46l2.2-3.02c.44-.6 1.17-.45 1.8-.04 14.57 9.36 55.34 56.39 55.78 129-85.27 47.56-76.73 42.3-76.73 42.3s-6.89-84.72-62.56-142.84c-.74-.77-.09-2.05.98-1.9z"/><path fill="#F8F8F8" fill-rule="evenodd" d="M139.755 124.061a4.5 4.5 0 0 1-3.824 5.087c-6.877.974-16.798 3.708-26.095 7.186-9.468 3.543-17.442 7.548-20.968 10.756a4.5 4.5 0 1 1-6.057-6.656c4.924-4.481 14.375-8.976 23.872-12.529 9.668-3.617 20.252-6.573 27.985-7.668a4.5 4.5 0 0 1 5.087 3.824M149.507 141.451a2 2 0 0 1-1.675 2.279c-.876.134-1.814.271-2.777.411-3.326.486-6.959 1.016-9.423 1.615a1.998 1.998 0 1 1-.945-3.886c2.667-.649 6.586-1.22 9.936-1.709.925-.135 1.806-.263 2.605-.385a2 2 0 0 1 2.279 1.675M129.93 145.138a2 2 0 0 1-1.317 2.503c-10.194 3.164-19.051 7.916-31.16 15.411a2 2 0 0 1-2.106-3.401c12.191-7.546 21.394-12.513 32.08-15.83a2 2 0 0 1 2.503 1.317M157.906 157.578a2 2 0 0 1-1.872 2.12c-4.781.296-8.719 1.312-11.901 2.133q-.958.25-1.828.464a2 2 0 0 1-.951-3.886c.523-.128 1.091-.275 1.703-.433 3.18-.822 7.531-1.948 12.729-2.27a2 2 0 0 1 2.12 1.872M137.158 161.557a2 2 0 0 1-1.354 2.484c-9.601 2.825-18.224 6.71-30.151 14.806a2 2 0 0 1-2.247-3.31c12.234-8.304 21.23-12.379 31.269-15.334a2 2 0 0 1 2.483 1.354M152.593 178.836c-.632.186-1.271.374-1.937.556a2 2 0 1 1-1.053-3.859c.585-.159 1.171-.333 1.773-.511 2.994-.887 6.369-1.887 11.786-1.799a2 2 0 0 1-.065 3.999c-4.769-.077-7.564.747-10.504 1.614M145.5 178.66a2 2 0 0 1-1.317 2.503c-9.996 3.104-18.752 7.688-30.222 15.156a2 2 0 0 1-2.183-3.352c11.631-7.573 20.734-12.368 31.219-15.624a2 2 0 0 1 2.503 1.317M170.466 192.72a2 2 0 0 1-1.874 2.119c-3.343.205-6.63 1.137-9.663 1.998q-.86.245-1.69.474a2 2 0 1 1-1.059-3.857c.492-.135 1.013-.284 1.559-.439 3.02-.86 6.792-1.935 10.608-2.169a2 2 0 0 1 2.119 1.874M151.39 196.958a2 2 0 0 1-1.237 2.544c-9.074 3.139-17.787 7.507-29.858 14.435a2 2 0 1 1-1.991-3.47c12.148-6.972 21.115-11.484 30.542-14.745a2 2 0 0 1 2.544 1.236M173.726 211.451a2 2 0 0 1-1.877 2.117c-2.869.172-6.908.853-9.948 2.283a2 2 0 0 1-1.703-3.62c3.68-1.73 8.281-2.468 11.412-2.656a2 2 0 0 1 2.116 1.876M155.73 215.618a2 2 0 0 1-1.236 2.544c-9.074 3.139-17.787 7.507-29.858 14.435a2 2 0 1 1-1.991-3.469c12.148-6.972 21.115-11.485 30.541-14.746a2 2 0 0 1 2.544 1.236" clip-rule="evenodd"/><path fill="#EFEFEF" d="m54.18 108.961 7.43 1.05c.43.06.86-.13 1.1-.49l3.7-5.53c.23-.35.64-.54 1.05-.5l9.99 1c.4.04.8-.14 1.03-.47l3.7-5.15c.24-.33.63-.5 1.03-.47l9.87.95c.5.05.97-.24 1.16-.7l1.59-3.92c.18-.44.62-.73 1.1-.71l9.57.43c.4.02.78-.18 1-.51l2.66-4.05c.22-.33.58-.52.98-.51l9.73.26c.48.01.92-.28 1.09-.74l1.07-2.86c.18-.47.65-.77 1.15-.73l7.55.59c.39.03.77-.14 1-.46l2.2-3.02c.44-.6 1.17-.45 1.8-.04 14.57 9.36 55.34 56.39 55.78 129-85.27 47.56-76.73 42.3-76.73 42.3s-6.89-84.72-62.56-142.84c-.74-.77-.09-2.05.98-1.9z"/><path fill="#F8F8F8" fill-rule="evenodd" d="M145.346 108.48a4.5 4.5 0 0 1-3.824 5.087c-6.876.974-16.798 3.709-26.095 7.187-9.468 3.542-17.442 7.547-20.967 10.756a4.5 4.5 0 0 1-6.058-6.657c4.924-4.481 14.375-8.976 23.872-12.529 9.668-3.617 20.252-6.572 27.985-7.668a4.5 4.5 0 0 1 5.087 3.824M155.087 125.87a2 2 0 0 1-1.675 2.279c-.876.134-1.813.271-2.777.411-3.326.486-6.958 1.016-9.422 1.616a2 2 0 0 1-.945-3.887c2.667-.649 6.585-1.22 9.936-1.709.924-.134 1.805-.263 2.605-.385a2 2 0 0 1 2.278 1.675M135.52 129.558a2 2 0 0 1-1.317 2.503c-10.193 3.163-19.051 7.915-31.16 15.41a2 2 0 0 1-2.105-3.401c12.19-7.545 21.393-12.513 32.079-15.83a2 2 0 0 1 2.503 1.318M163.486 141.997a2 2 0 0 1-1.872 2.12c-4.781.297-8.719 1.312-11.9 2.133q-.96.25-1.828.464a2 2 0 1 1-.951-3.885q.784-.194 1.702-.434c3.18-.822 7.531-1.948 12.73-2.27a2 2 0 0 1 2.119 1.872M142.739 145.976a2 2 0 0 1-1.354 2.484c-9.601 2.825-18.225 6.71-30.151 14.806a2 2 0 0 1-2.247-3.31c12.233-8.304 21.23-12.379 31.269-15.334a2 2 0 0 1 2.483 1.354M158.184 163.255c-.632.186-1.271.375-1.937.556a2 2 0 1 1-1.053-3.859c.585-.159 1.172-.333 1.774-.511 2.993-.887 6.368-1.887 11.785-1.799a2 2 0 1 1-.065 4c-4.768-.078-7.563.746-10.504 1.613M151.08 163.079a2 2 0 0 1-1.317 2.503c-9.996 3.104-18.752 7.688-30.222 15.156a2 2 0 1 1-2.182-3.352c11.63-7.572 20.734-12.368 31.218-15.624a2 2 0 0 1 2.503 1.317M176.056 177.139a2 2 0 0 1-1.874 2.119c-3.342.205-6.63 1.138-9.662 1.998q-.86.245-1.691.474a1.999 1.999 0 1 1-1.059-3.857 157 157 0 0 0 1.559-.439c3.02-.86 6.792-1.934 10.608-2.168a2 2 0 0 1 2.119 1.873M156.97 181.377a2 2 0 0 1-1.236 2.544c-9.074 3.139-17.787 7.507-29.859 14.435a2 2 0 1 1-1.991-3.469c12.149-6.972 21.116-11.485 30.542-14.746a2 2 0 0 1 2.544 1.236M179.317 195.872a2 2 0 0 1-1.876 2.117c-2.87.172-6.909.853-9.949 2.283a2 2 0 1 1-1.702-3.62c3.679-1.73 8.28-2.468 11.411-2.656a2 2 0 0 1 2.116 1.876M161.311 200.038a2 2 0 0 1-1.236 2.544c-9.074 3.139-17.787 7.506-29.859 14.434a2 2 0 1 1-1.991-3.469c12.149-6.972 21.116-11.485 30.542-14.746a2 2 0 0 1 2.544 1.237" clip-rule="evenodd"/><path fill="#fff" d="m60.62 91.282 7.35 1.5c.43.09.86-.08 1.13-.42l4.03-5.29c.25-.33.67-.5 1.08-.43l9.91 1.61c.4.06.8-.09 1.06-.4l4.01-4.91c.25-.31.66-.47 1.05-.4l9.801 1.55c.49.08.98-.18 1.2-.63l1.83-3.82c.21-.43.66-.69 1.14-.64l9.52 1.02c.4.04.79-.13 1.03-.45l2.91-3.88c.23-.31.62-.48 1.01-.45l9.69.85c.48.04.94-.23 1.13-.67l1.24-2.79c.21-.46.69-.73 1.19-.66l7.5 1.05c.39.05.78-.1 1.03-.4l2.38-2.87c.48-.57 1.19-.37 1.79.07 13.97 10.23 51.78 59.67 47.78 132.17-88.02 42.25-79.18 37.519-79.18 37.519s-1.69-84.98-53.69-146.4c-.69-.82.04-2.05 1.09-1.84z"/><path fill="#E4E4E4" fill-rule="evenodd" d="M151.636 96.384a4.5 4.5 0 0 1-4.129 4.842c-6.924.551-16.994 2.671-26.486 5.572-9.667 2.954-17.868 6.462-21.58 9.449a4.5 4.5 0 1 1-5.642-7.013c5.188-4.173 14.896-8.08 24.592-11.043 9.871-3.017 20.616-5.317 28.402-5.936a4.5 4.5 0 0 1 4.843 4.129M160.301 114.328a2 2 0 0 1-1.809 2.174c-.901.082-1.865.164-2.856.247-3.335.283-6.965.59-9.447 1.03a2 2 0 1 1-.698-3.938c2.681-.476 6.595-.806 9.956-1.091.951-.08 1.858-.157 2.681-.232a2 2 0 0 1 2.173 1.81M140.553 116.817a2 2 0 0 1-1.47 2.417c-10.369 2.529-19.5 6.722-32.046 13.469a2 2 0 0 1-1.895-3.523c12.634-6.794 22.123-11.181 32.994-13.832a2 2 0 0 1 2.417 1.469M153.634 134.359q-.936.184-1.785.34a2 2 0 0 1-.718-3.935c.515-.094 1.072-.203 1.671-.319 3.234-.631 7.659-1.494 12.908-1.494a2 2 0 0 1 0 4c-4.829 0-8.84.779-12.076 1.408M146.749 133.633a2 2 0 0 1-1.502 2.397c-9.758 2.239-18.607 5.595-31.008 12.941a2 2 0 0 1-2.039-3.441c12.719-7.534 21.95-11.058 32.152-13.399a2 2 0 0 1 2.397 1.502M161.059 151.841c-.627.144-1.26.289-1.919.427a2 2 0 0 1-.819-3.915 92 92 0 0 0 1.764-.395c3.054-.705 6.487-1.498 11.908-1.082a2 2 0 1 1-.306 3.988c-4.777-.366-7.628.288-10.628.977M154.023 151.226a2 2 0 0 1-1.467 2.418c-10.162 2.489-19.183 6.525-31.089 13.277a2 2 0 1 1-1.973-3.479c12.074-6.848 21.453-11.073 32.11-13.683a2 2 0 0 1 2.419 1.467M166.347 170.195q-.884.195-1.738.374a2 2 0 0 1-.818-3.916q.758-.159 1.601-.345c3.062-.671 6.881-1.507 10.698-1.507a2 2 0 1 1 0 4c-3.343 0-6.67.725-9.743 1.394M158.787 169.854a2 2 0 0 1-1.39 2.463c-9.25 2.58-18.218 6.416-30.69 12.586a1.999 1.999 0 1 1-1.774-3.585c12.549-6.209 21.78-10.173 31.39-12.854a2 2 0 0 1 2.464 1.39M178.199 187.69c-2.882 0-6.95.429-10.071 1.669a2 2 0 0 1-1.477-3.718c3.779-1.501 8.411-1.951 11.548-1.951a2 2 0 1 1 0 4M161.976 188.742a2 2 0 0 1-1.389 2.464c-9.25 2.58-18.219 6.415-30.69 12.586a2 2 0 1 1-1.774-3.585c12.548-6.209 21.779-10.174 31.389-12.854a2 2 0 0 1 2.464 1.389" clip-rule="evenodd"/></g></g><defs><clipPath id="1p_a"><path fill="#fff" d="M0 0h240v240H0z"/></clipPath><clipPath id="1q_b"><rect width="200" height="200" x="20" y="20" fill="#fff" rx="100"/></clipPath></defs></svg>