<svg xmlns="http://www.w3.org/2000/svg" width="16" height="16" fill="none" class="persona-icon" viewBox="0 0 16 16"><path fill="currentColor" d="M2.001 4.333a.5.5 0 0 1 .5-.5h6.111a.5.5 0 0 1 0 1H2.501a.5.5 0 0 1-.5-.5Zm0 2.445a.5.5 0 0 1 .5-.5h6.111a.5.5 0 1 1 0 1H2.501a.5.5 0 0 1-.5-.5Zm0 2.444a.5.5 0 0 1 .5-.5h6.111a.5.5 0 0 1 0 1H2.501a.5.5 0 0 1-.5-.5Zm0 2.445a.5.5 0 0 1 .5-.5h2.444a.5.5 0 1 1 0 1H2.501a.5.5 0 0 1-.5-.5ZM9.334 2.5a.5.5 0 0 1 .5-.5h.361c.461 0 .911.137 1.295.392l.177.118.178-.118A2.333 2.333 0 0 1 13.139 2h.361a.5.5 0 1 1 0 1h-.361c-.263 0-.52.078-.74.224l-.232.155V7.5h.722a.5.5 0 1 1 0 1h-.722v4.121l.232.155c.22.146.477.224.74.224h.361a.5.5 0 1 1 0 1h-.361c-.46 0-.911-.136-1.294-.392l-.178-.118-.177.118a2.333 2.333 0 0 1-1.295.392h-.361a.5.5 0 1 1 0-1h.361c.264 0 .52-.078.74-.224l.232-.155v-4.12h-.722a.5.5 0 1 1 0-1h.722V3.378l-.232-.155a1.333 1.333 0 0 0-.74-.224h-.361a.5.5 0 0 1-.5-.5Z"/></svg>