<svg xmlns="http://www.w3.org/2000/svg" width="24" height="24" fill="none" class="persona-icon" viewBox="0 0 24 24"><path fill="currentColor" fill-rule="evenodd" d="M14.063 3.75c0-.38.307-.687.687-.687h.542c.679 0 1.342.2 1.907.577l.301.2.3-.2a3.44 3.44 0 0 1 1.908-.578h.542a.687.687 0 1 1 0 1.376h-.542c-.408 0-.806.12-1.144.346l-.377.25v6.279h1.146a.687.687 0 1 1 0 1.374h-1.145v6.278l.376.251c.338.226.736.346 1.144.346h.542a.687.687 0 1 1 0 1.375h-.542c-.679 0-1.342-.2-1.907-.577l-.301-.2-.3.2a3.44 3.44 0 0 1-1.908.578h-.542a.687.687 0 1 1 0-1.375h.542c.408 0 .806-.121 1.144-.347l.377-.25v-6.279h-1.146a.687.687 0 1 1 0-1.374h1.146V5.035l-.377-.251a2.06 2.06 0 0 0-1.144-.346h-.542a.687.687 0 0 1-.687-.688m-11 2.75c0-.38.307-.687.687-.687h9.167a.687.687 0 1 1 0 1.375H3.75a.687.687 0 0 1-.687-.688m0 3.667c0-.38.307-.688.687-.688h9.167a.687.687 0 1 1 0 1.375H3.75a.687.687 0 0 1-.687-.687m0 3.666c0-.38.307-.687.687-.687h9.167a.687.687 0 1 1 0 1.375H3.75a.687.687 0 0 1-.687-.688m0 3.667c0-.38.307-.687.687-.687h3.667a.687.687 0 1 1 0 1.375H3.75a.687.687 0 0 1-.687-.688" clip-rule="evenodd"/></svg>