<svg xmlns="http://www.w3.org/2000/svg" width="32" height="32" fill="none" class="persona-icon" viewBox="0 0 32 32"><path fill="currentColor" d="M4 8.667a1 1 0 0 1 1-1h12.222a1 1 0 1 1 0 2H5a1 1 0 0 1-1-1Zm0 4.889a1 1 0 0 1 1-1h12.222a1 1 0 1 1 0 2H5a1 1 0 0 1-1-1Zm0 4.889a1 1 0 0 1 1-1h12.222a1 1 0 1 1 0 2H5a1 1 0 0 1-1-1Zm0 4.888a1 1 0 0 1 1-1h4.889a1 1 0 1 1 0 2H5a1 1 0 0 1-1-1ZM18.667 5a1 1 0 0 1 1-1h.723c.921 0 1.822.273 2.588.784l.355.236.355-.236A4.666 4.666 0 0 1 26.277 4H27a1 1 0 1 1 0 2h-.723c-.527 0-1.041.156-1.48.448l-.464.31V15h1.445a1 1 0 1 1 0 2h-1.445v8.243l.465.31c.438.291.952.447 1.479.447H27a1 1 0 1 1 0 2h-.723a4.666 4.666 0 0 1-2.589-.784l-.355-.236-.355.236A4.666 4.666 0 0 1 20.39 28h-.723a1 1 0 1 1 0-2h.723c.526 0 1.041-.156 1.479-.448l.464-.31V17H20.89a1 1 0 1 1 0-2h1.444V6.757l-.464-.31.555-.831-.555.832A2.666 2.666 0 0 0 20.389 6h-.722a1 1 0 0 1-1-1Z"/></svg>