<svg xmlns="http://www.w3.org/2000/svg" width="16" height="16" fill="none" class="persona-icon" viewBox="0 0 16 16"><path fill="currentColor" d="M8 2a.5.5 0 0 1 .5.5v.64a.5.5 0 1 1-1 0V2.5A.5.5 0 0 1 8 2M8 4.11a.5.5 0 0 1 .5.5v1.28a.5.5 0 1 1-1 0V4.61a.5.5 0 0 1 .5-.5M8 6.86a.5.5 0 0 1 .5.5v1.28a.5.5 0 1 1-1 0V7.36a.5.5 0 0 1 .5-.5M8 9.61a.5.5 0 0 1 .5.5v1.28a.5.5 0 1 1-1 0v-1.28a.5.5 0 0 1 .5-.5M8 12.36a.5.5 0 0 1 .5.5v.64a.5.5 0 1 1-1 0v-.64a.5.5 0 0 1 .5-.5M14 3.722a.5.5 0 0 0-.73-.443l-3.667 1.9a.5.5 0 0 0-.27.444v4.753a.5.5 0 0 0 .27.444l3.667 1.901a.5.5 0 0 0 .73-.443zM2 3.722a.5.5 0 0 1 .73-.443l3.667 1.9a.5.5 0 0 1 .27.444v4.753a.5.5 0 0 1-.27.444L2.73 12.721a.5.5 0 0 1-.73-.443z"/></svg>