<svg xmlns="http://www.w3.org/2000/svg" width="24" height="24" fill="none" class="persona-icon" viewBox="0 0 24 24"><path fill="currentColor" d="M12 3a.75.75 0 0 1 .75.75v.96a.75.75 0 0 1-1.5 0v-.96A.75.75 0 0 1 12 3M12 6.166a.75.75 0 0 1 .75.75v1.918a.75.75 0 1 1-1.5 0V6.916a.75.75 0 0 1 .75-.75M12 10.29a.75.75 0 0 1 .75.75v1.92a.75.75 0 0 1-1.5 0v-1.92a.75.75 0 0 1 .75-.75M12 14.416a.75.75 0 0 1 .75.75v1.918a.75.75 0 0 1-1.5 0v-1.918a.75.75 0 0 1 .75-.75M12 18.54a.75.75 0 0 1 .75.75v.96a.75.75 0 0 1-1.5 0v-.96a.75.75 0 0 1 .75-.75M21 5.584a.75.75 0 0 0-1.095-.666l-5.5 2.851a.75.75 0 0 0-.405.666v7.13c0 .28.156.536.405.665l5.5 2.852A.75.75 0 0 0 21 18.416zM3 5.584a.75.75 0 0 1 1.096-.666l5.5 2.851a.75.75 0 0 1 .404.666v7.13a.75.75 0 0 1-.405.665l-5.5 2.852A.75.75 0 0 1 3 18.416z"/></svg>