<svg xmlns="http://www.w3.org/2000/svg" width="32" height="32" fill="none" class="persona-icon" viewBox="0 0 32 32"><path fill="currentColor" d="M16 4a1 1 0 0 1 1 1v1.28a1 1 0 1 1-2 0V5a1 1 0 0 1 1-1M16 8.221a1 1 0 0 1 1 1v2.558a1 1 0 1 1-2 0V9.221a1 1 0 0 1 1-1M16 13.72a1 1 0 0 1 1 1v2.559a1 1 0 1 1-2 0V14.72a1 1 0 0 1 1-1M16 19.22a1 1 0 0 1 1 1v2.559a1 1 0 0 1-2 0V20.22a1 1 0 0 1 1-1M16 24.72a1 1 0 0 1 1 1V27a1 1 0 1 1-2 0v-1.28a1 1 0 0 1 1-1M28 7.445v17.11a1 1 0 0 1-1.46.888l-7.334-3.803a1 1 0 0 1-.54-.887v-9.506a1 1 0 0 1 .54-.888l7.333-3.802a1 1 0 0 1 1.46.888M4 7.445a1 1 0 0 1 1.46-.888l7.334 3.802a1 1 0 0 1 .54.888v9.506a1 1 0 0 1-.54.887L5.46 25.444A1 1 0 0 1 4 24.555z"/></svg>