<svg xmlns="http://www.w3.org/2000/svg" width="16" height="16" fill="none" class="persona-icon" viewBox="0 0 16 16"><path fill="currentColor" d="M6.167 6.889h3.666a.5.5 0 1 1 0 1H6.167a.5.5 0 1 1 0-1"/><path fill="currentColor" fill-rule="evenodd" d="M6.64 2.27a3.556 3.556 0 0 1 4.895 2.903 2.33 2.33 0 0 1 1.58 1.896l.592 4.278A2.333 2.333 0 0 1 11.395 14h-6.79a2.333 2.333 0 0 1-2.312-2.653l.593-4.278a2.33 2.33 0 0 1 1.579-1.896 3.55 3.55 0 0 1 2.174-2.902M5.196 6.057c-.666 0-1.23.49-1.32 1.15l-.593 4.278A1.333 1.333 0 0 0 4.604 13h6.791c.81 0 1.432-.715 1.321-1.516l-.592-4.278a1.33 1.33 0 0 0-1.32-1.15zm5.164-1.478a2.555 2.555 0 0 0-4.867.478h5.012a2.6 2.6 0 0 0-.145-.478" clip-rule="evenodd"/></svg>