<svg xmlns="http://www.w3.org/2000/svg" width="20" height="20" fill="none" class="persona-icon" viewBox="0 0 20 20"><path fill="currentColor" fill-rule="evenodd" d="M8.118 1.88a4.861 4.861 0 0 1 5.36 1.08 4.99 4.99 0 0 1 1.066 1.618c.19.464.308.954.354 1.453a3.217 3.217 0 0 1 2.231 2.648l.84 6.15c.265 1.94-1.222 3.671-3.154 3.671h-9.63c-1.932 0-3.42-1.73-3.154-3.671l.84-6.15A3.217 3.217 0 0 1 5.103 6.03c.045-.499.164-.989.354-1.453A4.99 4.99 0 0 1 6.523 2.96c.456-.463.999-.83 1.595-1.08m-2.093 5.2A2.024 2.024 0 0 0 4.03 8.841l-.84 6.15c-.167 1.227.774 2.322 1.996 2.322h9.63c1.222 0 2.163-1.095 1.996-2.323l-.84-6.15a2.024 2.024 0 0 0-1.996-1.762zm7.438-2.048a3.804 3.804 0 0 0-.813-1.233 3.744 3.744 0 0 0-1.216-.824A3.703 3.703 0 0 0 7.35 3.8a3.806 3.806 0 0 0-1.052 2.094h7.404a3.836 3.836 0 0 0-.24-.861M7.4 8.529a.589.589 0 0 0-.585.593c0 .327.262.593.585.593h5.2a.589.589 0 0 0 .585-.593.589.589 0 0 0-.585-.593z" clip-rule="evenodd"/></svg>