<svg xmlns="http://www.w3.org/2000/svg" width="24" height="24" fill="none" class="persona-icon" viewBox="0 0 24 24"><path fill="currentColor" d="M9.25 10.333a.75.75 0 1 0 0 1.5h5.5a.75.75 0 0 0 0-1.5z"/><path fill="currentColor" fill-rule="evenodd" d="M9.96 3.406a5.334 5.334 0 0 1 7.342 4.353 3.5 3.5 0 0 1 2.37 2.844l.888 6.417A3.5 3.5 0 0 1 17.093 21H6.907a3.5 3.5 0 0 1-3.467-3.98l.889-6.417A3.5 3.5 0 0 1 6.698 7.76a5.33 5.33 0 0 1 3.261-4.353M7.795 9.083a2 2 0 0 0-1.982 1.726l-.888 6.417A2 2 0 0 0 6.907 19.5h10.186a2 2 0 0 0 1.981-2.274l-.888-6.417a2 2 0 0 0-1.981-1.726zm7.746-2.217a3.832 3.832 0 0 0-7.301.717h7.518a4 4 0 0 0-.217-.717" clip-rule="evenodd"/></svg>