<svg xmlns="http://www.w3.org/2000/svg" width="16" height="16" fill="none" class="persona-icon" viewBox="0 0 16 16"><path fill="currentColor" fill-rule="evenodd" d="M6.256 2.15c.656-1.534 2.832-1.534 3.488 0a.897.897 0 0 0 1.159.48c1.549-.62 3.087.918 2.466 2.467a.897.897 0 0 0 .48 1.159c1.535.656 1.535 2.832 0 3.488a.897.897 0 0 0-.48 1.159c.621 1.549-.917 3.087-2.466 2.466a.897.897 0 0 0-1.159.48c-.656 1.534-2.832 1.534-3.488 0a.897.897 0 0 0-1.159-.48c-1.549.62-3.087-.917-2.466-2.466a.897.897 0 0 0-.48-1.159c-1.535-.656-1.535-2.832 0-3.488a.897.897 0 0 0 .48-1.159c-.621-1.55.917-3.087 2.466-2.466a.897.897 0 0 0 1.159-.48m5.204 4.812a.5.5 0 1 0-.684-.73L6.96 9.81 5.223 8.18a.5.5 0 1 0-.684.73l2.08 1.949a.5.5 0 0 0 .683 0z" clip-rule="evenodd"/></svg>