<svg xmlns="http://www.w3.org/2000/svg" width="16" height="16" fill="none" class="persona-icon" viewBox="0 0 16 16"><path fill="currentColor" fill-rule="evenodd" d="M9.355 2.268a1.58 1.58 0 0 0-2.71 0 1.58 1.58 0 0 1-1.74.72 1.58 1.58 0 0 0-1.917 1.917 1.58 1.58 0 0 1-.72 1.74 1.58 1.58 0 0 0 0 2.71 1.58 1.58 0 0 1 .72 1.74 1.58 1.58 0 0 0 1.917 1.917 1.58 1.58 0 0 1 1.74.72 1.58 1.58 0 0 0 2.71 0 1.58 1.58 0 0 1 1.74-.72 1.58 1.58 0 0 0 1.917-1.917 1.58 1.58 0 0 1 .72-1.74 1.58 1.58 0 0 0 0-2.71 1.58 1.58 0 0 1-.72-1.74 1.58 1.58 0 0 0-1.917-1.917 1.58 1.58 0 0 1-1.74-.72m1.663 4.753-3.33 3.33a.5.5 0 0 1-.707 0L4.982 8.354a.5.5 0 0 1 .707-.706l1.645 1.645 2.977-2.978a.5.5 0 0 1 .707.707" clip-rule="evenodd"/></svg>