<svg xmlns="http://www.w3.org/2000/svg" width="20" height="20" fill="none" class="persona-icon" viewBox="0 0 20 20"><path fill="currentColor" fill-rule="evenodd" d="M7.963 3.319c.767-1.792 3.307-1.792 4.074 0a.965.965 0 0 0 1.247.516c1.81-.724 3.606 1.072 2.88 2.881a.966.966 0 0 0 .517 1.247c1.792.767 1.792 3.307 0 4.074a.966.966 0 0 0-.516 1.247c.725 1.809-1.072 3.605-2.881 2.88a.966.966 0 0 0-1.247.517c-.767 1.792-3.307 1.792-4.074 0a.966.966 0 0 0-1.247-.517c-1.81.725-3.605-1.071-2.88-2.88a.966.966 0 0 0-.517-1.247c-1.792-.767-1.792-3.307 0-4.074a.966.966 0 0 0 .517-1.247c-.725-1.81 1.07-3.605 2.88-2.88a.965.965 0 0 0 1.247-.517m6.015 5.54a.625.625 0 0 0-.855-.913l-4.306 4.038-1.94-1.819a.625.625 0 1 0-.854.912l2.367 2.22c.24.225.614.225.854 0z" clip-rule="evenodd"/></svg>