<svg xmlns="http://www.w3.org/2000/svg" width="24" height="24" fill="none" class="persona-icon" viewBox="0 0 24 24"><path fill="currentColor" fill-rule="evenodd" d="M9.483 3.661c.947-2.215 4.087-2.215 5.034 0 .265.618.975.913 1.6.662 2.236-.896 4.456 1.324 3.56 3.56-.25.625.044 1.335.662 1.6 2.215.947 2.215 4.087 0 5.034a1.24 1.24 0 0 0-.662 1.6c.896 2.235-1.324 4.456-3.56 3.56a1.24 1.24 0 0 0-1.6.662c-.947 2.215-4.087 2.215-5.034 0a1.24 1.24 0 0 0-1.6-.662c-2.236.896-4.456-1.325-3.56-3.56a1.24 1.24 0 0 0-.662-1.6c-2.215-.947-2.215-4.087 0-5.034.618-.265.913-.975.662-1.6-.896-2.236 1.324-4.456 3.56-3.56a1.24 1.24 0 0 0 1.6-.662m7.468 6.89a.75.75 0 0 0-1.026-1.095l-5.404 5.066-2.446-2.293a.75.75 0 0 0-1.026 1.095l2.959 2.774a.75.75 0 0 0 1.026 0z" clip-rule="evenodd"/></svg>