<svg xmlns="http://www.w3.org/2000/svg" width="32" height="32" fill="none" class="persona-icon" viewBox="0 0 32 32"><path fill="currentColor" fill-rule="evenodd" d="M12.512 4.302c1.313-3.07 5.663-3.07 6.976 0a1.794 1.794 0 0 0 2.317.96c3.099-1.242 6.175 1.834 4.934 4.933a1.794 1.794 0 0 0 .96 2.316c3.068 1.314 3.068 5.664 0 6.977a1.794 1.794 0 0 0-.96 2.317c1.241 3.099-1.835 6.175-4.934 4.933a1.794 1.794 0 0 0-2.317.96c-1.313 3.069-5.663 3.069-6.976 0a1.794 1.794 0 0 0-2.317-.96C7.096 27.98 4.02 24.904 5.26 21.805a1.794 1.794 0 0 0-.96-2.317c-3.068-1.313-3.068-5.663 0-6.976a1.794 1.794 0 0 0 .96-2.317C4.02 7.096 7.096 4.02 10.195 5.26a1.794 1.794 0 0 0 2.317-.96m10.41 9.62a1 1 0 1 0-1.368-1.458l-7.633 7.155-3.474-3.257a1 1 0 0 0-1.368 1.46l4.158 3.897a1 1 0 0 0 1.368 0z" clip-rule="evenodd"/></svg>