<svg xmlns="http://www.w3.org/2000/svg" width="16" height="16" fill="none" class="persona-icon" viewBox="0 0 16 16"><path fill="currentColor" fill-rule="evenodd" d="M2 4.839v-.026c0-1.185.961-2.146 2.147-2.146h7.706c1.186 0 2.147.96 2.147 2.146v1.594a.5.5 0 0 1-1 0v-.588L8.75 8.927a1.3 1.3 0 0 1-1.514 0l-.005-.004L3 5.82v5.367c0 .633.513 1.146 1.147 1.146h3.635a.5.5 0 1 1 0 1H4.147A2.147 2.147 0 0 1 2 11.187zm7.595 7.238c.387-.34.884-.527 1.398-.527h1.714c.514 0 1.011.187 1.398.527l.04.035a1.193 1.193 0 0 1-.787 2.088h-3.016a1.192 1.192 0 0 1-.787-2.088zm.655-2.594a1.6 1.6 0 1 1 3.2 0 1.6 1.6 0 0 1-3.2 0m2.73-4.888a1.15 1.15 0 0 0-1.127-.928H4.147c-.559 0-1.024.4-1.126.928l4.798 3.52a.3.3 0 0 0 .349 0zm-1.987 7.955c-.271 0-.534.099-.738.278l-.04.035a.192.192 0 0 0 .127.337h3.016a.192.192 0 0 0 .127-.337l-.04-.035a1.12 1.12 0 0 0-.738-.278zm.857-3.667a.6.6 0 1 0 0 1.2.6.6 0 0 0 0-1.2" clip-rule="evenodd"/></svg>