<svg xmlns="http://www.w3.org/2000/svg" width="16" height="16" fill="none" class="persona-icon" viewBox="0 0 16 16"><path fill="currentColor" fill-rule="evenodd" d="M2 4.839v6.348c0 1.185.961 2.146 2.147 2.146h3.635a.5.5 0 1 0 0-1H4.147A1.147 1.147 0 0 1 3 11.187V5.82l4.23 3.103.006.004a1.3 1.3 0 0 0 1.515 0L13 5.819v.588a.5.5 0 1 0 1 0V4.813a2.147 2.147 0 0 0-2.147-2.146H4.147A2.147 2.147 0 0 0 2 4.813v.026m10.98-.244-4.812 3.52a.3.3 0 0 1-.349 0l-4.798-3.52a1.15 1.15 0 0 1 1.126-.928h7.706c.559 0 1.024.4 1.126.928m-3.385 7.482c.387-.34.884-.527 1.398-.527h1.714c.514 0 1.011.187 1.398.527l.04.035a1.193 1.193 0 0 1-.787 2.088h-3.016a1.192 1.192 0 0 1-.787-2.088zm1.398.473c-.271 0-.534.099-.738.278l-.04.035a.192.192 0 0 0 .127.337h3.016a.192.192 0 0 0 .127-.337l-.04-.035a1.12 1.12 0 0 0-.738-.278zm-.743-3.067a1.6 1.6 0 1 1 3.2 0 1.6 1.6 0 0 1-3.2 0m1.6-.6a.6.6 0 1 0 0 1.2.6.6 0 0 0 0-1.2" clip-rule="evenodd"/></svg>