<svg xmlns="http://www.w3.org/2000/svg" width="16" height="16" fill="none" class="persona-icon"><path fill="currentColor" d="M1 4.008C1 2.623 2.097 1.5 3.45 1.5h9.1C13.903 1.5 15 2.623 15 4.008v2.329a.506.506 0 0 1-.5.511c-.276 0-.5-.229-.5-.511v-2.33c0-.819-.65-1.483-1.45-1.483h-9.1c-.8 0-1.45.664-1.45 1.484v7.984c0 .82.65 1.484 1.45 1.484h3.9c.276 0 .5.23.5.512a.506.506 0 0 1-.5.512h-3.9C2.097 14.5 1 13.377 1 11.992V4.008Z"/><path fill="currentColor" d="M10.1 9.33c0-1.017.806-1.842 1.8-1.842s1.8.825 1.8 1.843c0 1.017-.806 1.842-1.8 1.842s-1.8-.825-1.8-1.842Zm1.8-.818a.81.81 0 0 0-.8.819.81.81 0 0 0 .8.819.81.81 0 0 0 .8-.82.81.81 0 0 0-.8-.818ZM9.295 12.095a2.381 2.381 0 0 1 1.592-.615h2.025c.587 0 1.153.219 1.593.615l.047.042c.285.256.448.625.448 1.014 0 .745-.59 1.349-1.318 1.349h-3.564c-.728 0-1.318-.604-1.318-1.35 0-.388.163-.757.448-1.013l.047-.042ZM9.8 13.15c0 .18.143.325.318.325h3.564a.322.322 0 0 0 .318-.325.33.33 0 0 0-.108-.245l-.047-.042a1.394 1.394 0 0 0-.933-.36h-2.025c-.343 0-.674.128-.932.36l-.047.042a.33.33 0 0 0-.108.245ZM3.694 5.04a.493.493 0 0 1 .697-.117L7.77 7.4c.158.116.33.116.488.002l3.354-2.43a.493.493 0 0 1 .697.123.52.52 0 0 1-.12.713L8.835 8.24a1.367 1.367 0 0 1-1.648-.006L3.81 5.755a.52.52 0 0 1-.115-.715Z"/></svg>