<svg xmlns="http://www.w3.org/2000/svg" width="16" height="16" fill="none" class="persona-icon" viewBox="0 0 16 16"><path fill="currentColor" fill-rule="evenodd" d="M4.159 2.55A2.16 2.16 0 0 0 2 4.71v6.628c0 1.192.966 2.159 2.159 2.159h3.196a.502.502 0 0 0 0-1.005H4.159a1.155 1.155 0 0 1-1.155-1.155V5.699l4.28 3.13.004.004a1.26 1.26 0 0 0 1.49.005l.007-.006 4.259-3.13v.942a.502.502 0 1 0 1.004 0V4.709c0-1.192-.967-2.159-2.159-2.159zm8.86 1.923L8.196 8.019a.26.26 0 0 1-.32-.003L3.027 4.472c.11-.524.574-.918 1.13-.918h7.731c.557 0 1.022.394 1.13.919M9.625 12.118c.389-.341.887-.53 1.404-.53h1.72c.517 0 1.016.189 1.404.53l.04.035a1.198 1.198 0 0 1-.79 2.097h-3.027a1.197 1.197 0 0 1-.79-2.097zm.663.754-.04.035a.193.193 0 0 0 .128.339h3.027a.193.193 0 0 0 .127-.339l-.04-.035a1.12 1.12 0 0 0-.74-.28h-1.72c-.274 0-.537.1-.742.28" clip-rule="evenodd"/><path fill="currentColor" fill-rule="evenodd" d="M11.89 7.906a1.607 1.607 0 1 0 0 3.214 1.607 1.607 0 0 0 0-3.214m-.603 1.607a.603.603 0 1 1 1.205 0 .603.603 0 0 1-1.205 0" clip-rule="evenodd"/></svg>