<svg xmlns="http://www.w3.org/2000/svg" width="20" height="20" fill="none" class="persona-icon" viewBox="0 0 20 20"><path fill="currentColor" fill-rule="evenodd" d="M2.975 6.32v7.388a2.54 2.54 0 0 0 2.541 2.541h4.23a.625.625 0 1 0 0-1.25h-4.23a1.29 1.29 0 0 1-1.291-1.29v-6.16l4.855 3.56.006.005c.543.388 1.27.388 1.813 0l4.876-3.567v.599a.625.625 0 1 0 1.25 0V6.292a2.54 2.54 0 0 0-2.541-2.541H5.516a2.54 2.54 0 0 0-2.541 2.54v.029m12.771-.3-5.576 4.078a.31.31 0 0 1-.355 0L4.254 6.02a1.29 1.29 0 0 1 1.262-1.018h8.968c.62 0 1.137.436 1.262 1.018m-3.918 8.692a2.5 2.5 0 0 1 1.655-.624h1.994c.61 0 1.198.221 1.655.624l.047.04a1.43 1.43 0 0 1-.945 2.506h-3.508a1.43 1.43 0 0 1-.945-2.506zm1.655.626c-.306 0-.6.11-.83.313l-.047.04a.18.18 0 0 0 .12.317h3.508a.18.18 0 0 0 .12-.317l-.047-.04a1.26 1.26 0 0 0-.83-.313zm-.908-3.612a1.905 1.905 0 1 1 3.81 0 1.905 1.905 0 0 1-3.81 0m1.905-.655a.655.655 0 1 0 0 1.31.655.655 0 0 0 0-1.31" clip-rule="evenodd"/></svg>