<svg xmlns="http://www.w3.org/2000/svg" width="20" height="20" fill="none" class="persona-icon" viewBox="0 0 20 20"><path fill="currentColor" d="M4.465 2C2.828 2 1.5 3.378 1.5 5.077v9.846C1.5 16.623 2.828 18 4.465 18H9.21a.604.604 0 0 0 .593-.615.604.604 0 0 0-.593-.616H4.465c-.982 0-1.779-.826-1.779-1.846V5.077c0-1.02.797-1.846 1.78-1.846h11.069c.982 0 1.779.826 1.779 1.846v2.872c0 .34.265.615.593.615a.604.604 0 0 0 .593-.615V5.077C18.5 3.377 17.172 2 15.535 2z"/><path fill="currentColor" fill-rule="evenodd" d="M15 10.25a2 2 0 1 0 0 4 2 2 0 0 0 0-4m-1 2a1 1 0 1 1 2 0 1 1 0 0 1-2 0M12.045 15.423a2.7 2.7 0 0 1 1.787-.673h2.336c.658 0 1.293.24 1.787.673l.054.048A1.444 1.444 0 0 1 17.056 18h-4.112a1.444 1.444 0 0 1-.953-2.53zm.455 1.133c0 .245.199.444.444.444h4.112a.444.444 0 0 0 .293-.778l-.054-.047a1.7 1.7 0 0 0-1.127-.425h-2.336c-.415 0-.815.15-1.127.425l-.054.047a.44.44 0 0 0-.151.334" clip-rule="evenodd"/><path fill="currentColor" d="M6.291 6.594a.5.5 0 0 0-.582.812L9.606 10.2a1.53 1.53 0 0 0 1.813.006l3.87-2.738a.5.5 0 1 0-.578-.816l-3.87 2.738a.53.53 0 0 1-.652-.003z"/></svg>