<svg xmlns="http://www.w3.org/2000/svg" width="20" height="20" fill="none" class="persona-icon" viewBox="0 0 20 20"><path fill="currentColor" fill-rule="evenodd" d="M2.975 6.32v-.028A2.54 2.54 0 0 1 5.516 3.75h8.968a2.54 2.54 0 0 1 2.541 2.54v1.855a.625.625 0 1 1-1.25 0v-.6l-4.876 3.568a1.56 1.56 0 0 1-1.813 0l-.006-.005-4.855-3.56v6.16c0 .712.578 1.29 1.291 1.29h4.23a.625.625 0 1 1 0 1.25h-4.23a2.54 2.54 0 0 1-2.541-2.54zm9.6 5.406a1.905 1.905 0 1 1 3.81 0 1.905 1.905 0 0 1-3.81 0m-.747 2.986a2.5 2.5 0 0 1 1.655-.624h1.994c.61 0 1.198.221 1.655.624l.047.04a1.43 1.43 0 0 1-.945 2.506h-3.508a1.43 1.43 0 0 1-.945-2.506zm3.918-8.693a1.29 1.29 0 0 0-1.262-1.018H5.516c-.62 0-1.137.436-1.262 1.018l5.56 4.08a.31.31 0 0 0 .356-.001zm-1.266 5.052a.655.655 0 1 0 0 1.31.655.655 0 0 0 0-1.31m-.997 4.267c-.306 0-.6.11-.83.313l-.047.04a.18.18 0 0 0 .12.317h3.508a.18.18 0 0 0 .12-.317l-.047-.04a1.26 1.26 0 0 0-.83-.313z" clip-rule="evenodd"/></svg>