<svg xmlns="http://www.w3.org/2000/svg" width="24" height="24" fill="none" class="persona-icon" viewBox="0 0 24 24"><path fill="currentColor" fill-rule="evenodd" d="M3 7.258v9.522A3.22 3.22 0 0 0 6.22 20h5.454a.75.75 0 0 0 0-1.5H6.22c-.95 0-1.72-.77-1.72-1.72V8.73l6.346 4.655.008.005c.68.487 1.591.487 2.272 0L19.5 8.728v.882a.75.75 0 0 0 1.5 0V7.22A3.22 3.22 0 0 0 17.78 4H6.22A3.22 3.22 0 0 0 3 7.22v.038m16.469-.366-7.218 5.28a.45.45 0 0 1-.522 0L4.53 6.892A1.72 1.72 0 0 1 6.22 5.5h11.56c.838 0 1.536.6 1.689 1.392m-5.076 11.223c.58-.51 1.325-.79 2.097-.79h2.57c.772 0 1.517.28 2.097.79l.06.053a1.789 1.789 0 0 1-1.18 3.132h-4.523a1.789 1.789 0 0 1-1.18-3.132zm2.097.71c-.408 0-.801.148-1.107.417l-.06.053a.288.288 0 0 0 .19.505h4.523a.289.289 0 0 0 .19-.505l-.059-.053a1.68 1.68 0 0 0-1.107-.417zm-1.115-4.6a2.4 2.4 0 1 1 4.8 0 2.4 2.4 0 0 1-4.8 0m2.4-.9a.9.9 0 1 0 0 1.8.9.9 0 0 0 0-1.8" clip-rule="evenodd"/></svg>