<svg xmlns="http://www.w3.org/2000/svg" width="24" height="24" fill="none" class="persona-icon" viewBox="0 0 24 24"><path fill="currentColor" fill-rule="evenodd" d="M6.225 3.825A3.225 3.225 0 0 0 3 7.05v9.9a3.225 3.225 0 0 0 3.225 3.225H11a.75.75 0 0 0 0-1.5H6.225A1.725 1.725 0 0 1 4.5 16.95V8.527l6.394 4.676.006.004c.68.487 1.543.49 2.226.007l.01-.007L19.5 8.53v1.406a.75.75 0 0 0 1.5 0V7.05a3.225 3.225 0 0 0-3.225-3.225zm13.239 2.872-7.209 5.296a.385.385 0 0 1-.479-.004l-7.24-5.293a1.726 1.726 0 0 1 1.689-1.371h11.55c.832 0 1.526.588 1.689 1.372M14.393 18.115c.58-.509 1.325-.79 2.097-.79h2.57c.772 0 1.517.281 2.097.79l.06.053a1.789 1.789 0 0 1-1.18 3.132h-4.523a1.789 1.789 0 0 1-1.18-3.132zm.99 1.127-.06.053a.288.288 0 0 0 .19.505h4.523a.289.289 0 0 0 .19-.505l-.059-.053a1.68 1.68 0 0 0-1.107-.417h-2.57c-.408 0-.801.148-1.107.417" clip-rule="evenodd"/><path fill="currentColor" fill-rule="evenodd" d="M17.775 11.825a2.4 2.4 0 1 0 0 4.8 2.4 2.4 0 0 0 0-4.8m-.9 2.4a.9.9 0 1 1 1.8 0 .9.9 0 0 1-1.8 0" clip-rule="evenodd"/></svg>