<svg xmlns="http://www.w3.org/2000/svg" width="32" height="32" fill="none" class="persona-icon" viewBox="0 0 32 32"><path fill="currentColor" fill-rule="evenodd" d="M8.3 5.1A4.3 4.3 0 0 0 4 9.4v13.2a4.3 4.3 0 0 0 4.3 4.3h6.367a1 1 0 1 0 0-2H8.3A2.3 2.3 0 0 1 6 22.6V11.37l8.526 6.234.007.005c.907.65 2.057.655 2.968.01l.008-.005L26 11.375v1.875a1 1 0 1 0 2 0V9.4a4.3 4.3 0 0 0-4.3-4.3zm17.652 3.829-9.612 7.062a.514.514 0 0 1-.638-.005L6.049 8.928A2.3 2.3 0 0 1 8.3 7.1h15.4a2.3 2.3 0 0 1 2.252 1.829M19.19 24.154a4.24 4.24 0 0 1 2.796-1.054h3.427c1.03 0 2.024.375 2.797 1.054l.08.07a2.385 2.385 0 0 1-1.575 4.176h-6.03a2.385 2.385 0 0 1-1.574-4.176zm1.32 1.502-.08.07a.385.385 0 0 0 .255.674h6.03a.385.385 0 0 0 .254-.674l-.08-.07a2.24 2.24 0 0 0-1.476-.556h-3.427c-.543 0-1.068.198-1.476.556" clip-rule="evenodd"/><path fill="currentColor" fill-rule="evenodd" d="M23.7 15.767a3.2 3.2 0 1 0 0 6.4 3.2 3.2 0 0 0 0-6.4m-1.2 3.2a1.2 1.2 0 1 1 2.4 0 1.2 1.2 0 0 1-2.4 0" clip-rule="evenodd"/></svg>