<svg xmlns="http://www.w3.org/2000/svg" width="32" height="32" fill="none" class="persona-icon" viewBox="0 0 32 32"><path fill="currentColor" fill-rule="evenodd" d="M7.783 4.6C5.418 4.6 3.5 6.5 3.5 8.845v13.03c0 2.344 1.918 4.244 4.283 4.244h6.341c.55 0 .996-.442.996-.987a.99.99 0 0 0-.996-.987H7.783a2.28 2.28 0 0 1-2.291-2.27V10.789l8.492 6.154.007.005a2.52 2.52 0 0 0 2.956.01l.008-.005 8.457-6.158v1.85c0 .545.446.987.996.987s.996-.442.996-.987v-3.8c0-2.345-1.917-4.245-4.282-4.245zm17.581 3.78-9.573 6.97a.515.515 0 0 1-.636-.004L5.54 8.378a2.29 2.29 0 0 1 2.243-1.804h15.339c1.104 0 2.026.775 2.242 1.806M18.63 23.409c.77-.671 1.76-1.04 2.785-1.04h3.413c1.025 0 2.015.369 2.785 1.04l.08.068c.513.447.807 1.092.807 1.769 0 1.3-1.063 2.354-2.375 2.354h-6.007a2.365 2.365 0 0 1-2.375-2.354c0-.677.294-1.322.808-1.769zm1.315 1.483-.08.069a.378.378 0 0 0 .253.665h6.007a.378.378 0 0 0 .253-.665l-.08-.07a2.24 2.24 0 0 0-1.47-.548h-3.413a2.24 2.24 0 0 0-1.47.549" clip-rule="evenodd"/><path fill="currentColor" fill-rule="evenodd" d="M23.122 15.13c-1.76 0-3.188 1.414-3.188 3.158 0 1.745 1.427 3.159 3.188 3.159 1.76 0 3.187-1.414 3.187-3.159s-1.427-3.159-3.187-3.159m-1.196 3.158a1.19 1.19 0 0 1 1.196-1.184c.66 0 1.195.53 1.195 1.184a1.19 1.19 0 0 1-1.195 1.185 1.19 1.19 0 0 1-1.196-1.185" clip-rule="evenodd"/></svg>