<svg xmlns="http://www.w3.org/2000/svg" width="32" height="32" fill="none"><path fill="#000" fill-rule="evenodd" d="M2 8.323C2 5.659 4.194 3.5 6.9 3.5h18.2c2.706 0 4.9 2.16 4.9 4.823V12.8a.992.992 0 0 1-1 .984c-.552 0-1-.44-1-.984V8.323c0-1.577-1.298-2.855-2.9-2.855H6.9C5.298 5.468 4 6.746 4 8.323v15.354c0 1.577 1.298 2.855 2.9 2.855h7.8c.552 0 1 .44 1 .984a.992.992 0 0 1-1 .984H6.9c-2.706 0-4.9-2.16-4.9-4.823V8.323Z" clip-rule="evenodd"/><path fill="#000" fill-rule="evenodd" d="M23.8 16.984c-.884 0-1.6.705-1.6 1.575s.716 1.575 1.6 1.575c.884 0 1.6-.705 1.6-1.575s-.716-1.575-1.6-1.575Zm-3.6 1.575c0-1.957 1.612-3.543 3.6-3.543s3.6 1.586 3.6 3.543-1.612 3.543-3.6 3.543-3.6-1.586-3.6-3.543ZM18.59 23.874a4.87 4.87 0 0 1 3.185-1.181h4.05a4.87 4.87 0 0 1 3.185 1.181l.094.081c.57.493.896 1.204.896 1.95 0 1.433-1.18 2.595-2.637 2.595h-7.126c-1.457 0-2.637-1.162-2.637-2.595 0-.747.327-1.457.896-1.95l.094-.08Zm1.01 2.031c0 .346.285.627.637.627h7.126c.352 0 .637-.281.637-.627a.622.622 0 0 0-.216-.47l-.094-.082a2.852 2.852 0 0 0-1.865-.692h-4.05c-.686 0-1.35.246-1.865.692l-.094.081a.622.622 0 0 0-.216.471ZM7.387 10.309a1.01 1.01 0 0 1 1.396-.227l6.755 4.765c.317.224.66.225.976.004l6.709-4.67a1.01 1.01 0 0 1 1.393.234.975.975 0 0 1-.238 1.372l-6.709 4.671a2.822 2.822 0 0 1-3.296-.01l-6.756-4.766a.974.974 0 0 1-.23-1.373Z" clip-rule="evenodd"/></svg>