<svg xmlns="http://www.w3.org/2000/svg" width="20" height="20" fill="none"><path fill="#000" fill-rule="evenodd" d="M10.514 2.547a.579.579 0 0 1 .646.132l6.666 6.888a.627.627 0 0 1 0 .866L11.16 17.32a.579.579 0 0 1-.646.132.613.613 0 0 1-.366-.565v-3.24c-.748-.04-1.86-.072-3.084.325-1.284.415-2.725 1.313-3.978 3.254a.583.583 0 0 1-.665.247.61.61 0 0 1-.421-.586c0-4.159 1.558-6.821 3.457-8.433 1.601-1.358 3.422-1.95 4.691-2.093v-3.25c0-.247.145-.47.366-.565Zm.82 2.043V6.94a.603.603 0 0 1-.593.612c-.983 0-2.885.454-4.532 1.85-1.33 1.129-2.514 2.89-2.896 5.588 1.102-1.166 2.285-1.825 3.397-2.185 1.511-.489 2.864-.414 3.622-.372h.012a8.1 8.1 0 0 0 .397.017c.327 0 .592.274.592.612v2.349L16.57 10l-5.236-5.41Z" clip-rule="evenodd"/></svg>