<svg xmlns="http://www.w3.org/2000/svg" width="16" height="16" fill="none" class="persona-icon" viewBox="0 0 16 16"><path fill="currentColor" fill-rule="evenodd" d="M5.542 2h4.916c.933 0 1.777.556 2.144 1.414l1.358 3.167q.04.095.04.197c0 .604-.234 1.183-.652 1.618l-.573 5.16a.5.5 0 0 1-.497.444H3.722a.5.5 0 0 1-.497-.445l-.573-5.16A2.33 2.33 0 0 1 2 6.779q0-.103.04-.197l1.358-3.167A2.33 2.33 0 0 1 5.542 2m4.291 6.221a2.334 2.334 0 0 1-3.667 0 2.33 2.33 0 0 1-2.437.81l.44 3.97h2.109v-2.556a.5.5 0 0 1 .5-.5h2.444a.5.5 0 0 1 .5.5V13h2.108l.441-3.969a2.33 2.33 0 0 1-2.438-.81" clip-rule="evenodd"/></svg>