<svg xmlns="http://www.w3.org/2000/svg" width="16" height="16" fill="none" class="persona-icon" viewBox="0 0 16 16"><path fill="currentColor" fill-rule="evenodd" d="M5.542 2c-.933 0-1.777.556-2.144 1.414L2.04 6.581a.5.5 0 0 0-.04.197 2.33 2.33 0 0 0 .652 1.618l.573 5.16a.5.5 0 0 0 .497.444h8.556a.5.5 0 0 0 .497-.445l.573-5.16A2.33 2.33 0 0 0 14 6.779a.5.5 0 0 0-.04-.197l-1.358-3.167A2.33 2.33 0 0 0 10.458 2zm4.291 6.221q.085.108.184.207a2.33 2.33 0 0 0 2.254.603l-.44 3.97H9.721v-2.556a.5.5 0 0 0-.5-.5H6.778a.5.5 0 0 0-.5.5V13H4.17l-.441-3.969a2.33 2.33 0 0 0 2.438-.81q.085.108.183.207a2.334 2.334 0 0 0 3.483-.207" clip-rule="evenodd"/></svg>