<svg xmlns="http://www.w3.org/2000/svg" width="20" height="20" fill="none" class="persona-icon" viewBox="0 0 20 20"><path fill="currentColor" fill-rule="evenodd" d="M7.14 3h5.72c1.093 0 2.082.652 2.512 1.657l1.58 3.684a.6.6 0 0 1 .048.237c0 .705-.273 1.382-.76 1.89l-.666 5.998a.6.6 0 0 1-.596.534h-3.38a.6.6 0 0 1-.176.025H8.578A.6.6 0 0 1 8.402 17h-3.38a.6.6 0 0 1-.596-.534l-.667-5.998A2.73 2.73 0 0 1 3 8.579a.6.6 0 0 1 .049-.237l1.579-3.684A2.73 2.73 0 0 1 7.14 3m4.907 12.8h2.394l.508-4.575a2.73 2.73 0 0 1-2.816-.938 2.733 2.733 0 0 1-4.266 0 2.7 2.7 0 0 1-1.088.816 2.73 2.73 0 0 1-1.728.122l.508 4.575h2.394v-2.956c0-.345.28-.625.625-.625h2.844c.345 0 .625.28.625.625z" clip-rule="evenodd"/></svg>