<svg xmlns="http://www.w3.org/2000/svg" width="20" height="20" fill="none" class="persona-icon" viewBox="0 0 20 20"><path fill="currentColor" fill-rule="evenodd" d="M7.14 3a2.73 2.73 0 0 0-2.512 1.657L3.048 8.34A.6.6 0 0 0 3 8.578a2.73 2.73 0 0 0 .76 1.89l.666 5.998a.6.6 0 0 0 .596.534h3.38a.6.6 0 0 0 .176.025h2.844q.092 0 .176-.025h3.38a.6.6 0 0 0 .596-.534l.666-5.997c.487-.509.76-1.186.76-1.891a.6.6 0 0 0-.049-.237l-1.579-3.684A2.73 2.73 0 0 0 12.86 3zm4.907 12.8v-2.956a.625.625 0 0 0-.625-.625H8.578a.625.625 0 0 0-.625.625V15.8H5.559l-.508-4.575a2.73 2.73 0 0 0 2.816-.938 2.733 2.733 0 0 0 4.266 0 3 3 0 0 0 .2.223 2.73 2.73 0 0 0 2.616.715l-.508 4.575z" clip-rule="evenodd"/></svg>