<svg xmlns="http://www.w3.org/2000/svg" width="24" height="24" fill="none" class="persona-icon" viewBox="0 0 24 24"><path fill="currentColor" fill-rule="evenodd" d="M8.313 3a3.5 3.5 0 0 0-3.217 2.121l-2.035 4.75a.8.8 0 0 0-.061.296 3.5 3.5 0 0 0 .978 2.427l.86 7.739a.75.75 0 0 0 .745.667h12.834a.75.75 0 0 0 .745-.667l.86-7.74A3.5 3.5 0 0 0 21 10.167a.8.8 0 0 0-.06-.296l-2.036-4.75A3.5 3.5 0 0 0 15.687 3zm6.27 16.5v-3.833a.75.75 0 0 0-.75-.75h-3.666a.75.75 0 0 0-.75.75V19.5H6.255l-.662-5.953a3.5 3.5 0 0 0 3.657-1.215q.128.162.275.31a3.5 3.5 0 0 0 5.225-.31q.128.162.275.31a3.5 3.5 0 0 0 3.382.905l-.662 5.953z" clip-rule="evenodd"/></svg>