<svg xmlns="http://www.w3.org/2000/svg" width="32" height="32" fill="none" class="persona-icon" viewBox="0 0 32 32"><path fill="currentColor" fill-rule="evenodd" d="M11.085 4a4.67 4.67 0 0 0-4.29 2.828l-2.714 6.334a1 1 0 0 0-.081.394 4.67 4.67 0 0 0 1.304 3.235l1.147 10.32a1 1 0 0 0 .994.889h17.111a1 1 0 0 0 .993-.89l1.147-10.319A4.67 4.67 0 0 0 28 13.556a1 1 0 0 0-.08-.394l-2.715-6.334A4.67 4.67 0 0 0 20.915 4zm8.36 22v-5.111a1 1 0 0 0-1-1h-4.89a1 1 0 0 0-1 1V26H8.34l-.882-7.937a4.67 4.67 0 0 0 4.875-1.62 4.67 4.67 0 0 0 4.975 1.592 4.67 4.67 0 0 0 2.359-1.593 4.67 4.67 0 0 0 4.875 1.62L23.662 26z" clip-rule="evenodd"/></svg>