<svg xmlns="http://www.w3.org/2000/svg" width="32" height="32" fill="none" class="persona-icon" viewBox="0 0 32 32"><path fill="currentColor" fill-rule="evenodd" d="M11.085 4h9.83a4.67 4.67 0 0 1 4.29 2.828l2.714 6.334a1 1 0 0 1 .081.394 4.67 4.67 0 0 1-1.304 3.235l-1.147 10.32a1 1 0 0 1-.993.889H7.445a1 1 0 0 1-.994-.89L5.304 16.791A4.67 4.67 0 0 1 4 13.556a1 1 0 0 1 .08-.394l2.715-6.334A4.67 4.67 0 0 1 11.085 4m8.36 22h4.216l.881-7.937a4.67 4.67 0 0 1-4.875-1.62A4.67 4.67 0 0 1 16 18.222a4.67 4.67 0 0 1-3.667-1.78 4.7 4.7 0 0 1-1.88 1.424 4.66 4.66 0 0 1-2.995.196L8.34 26h4.216v-5.111a1 1 0 0 1 1-1h4.889a1 1 0 0 1 1 1z" clip-rule="evenodd"/></svg>