<svg xmlns="http://www.w3.org/2000/svg" width="24" height="24" fill="none"><path fill="#000" d="M12.774 14.564a.772.772 0 0 0-.774-.77.772.772 0 0 0-.774.77v2.051c0 .425.346.77.774.77a.772.772 0 0 0 .774-.77v-2.05Z"/><path fill="#000" fill-rule="evenodd" d="M10.124 2.37a4.93 4.93 0 0 1 5.343 1.057 4.87 4.87 0 0 1 1.436 3.445v2.384A3.854 3.854 0 0 1 20 13.026v5.128C20 20.278 18.267 22 16.129 22H7.871C5.733 22 4 20.278 4 18.154v-5.128c0-2.124 1.733-3.847 3.871-3.847h7.484V6.872a3.315 3.315 0 0 0-.983-2.357A3.355 3.355 0 0 0 12 3.538a3.373 3.373 0 0 0-2.372.977 3.332 3.332 0 0 0-.983 2.357c0 .425-.346.769-.774.769a.772.772 0 0 1-.774-.77 4.845 4.845 0 0 1 1.436-3.444 4.905 4.905 0 0 1 1.59-1.056ZM5.548 13.027a2.315 2.315 0 0 1 2.323-2.308h8.258a2.315 2.315 0 0 1 2.323 2.308v5.128a2.315 2.315 0 0 1-2.323 2.308H7.871a2.315 2.315 0 0 1-2.323-2.308v-5.128Z" clip-rule="evenodd"/></svg>