<svg xmlns="http://www.w3.org/2000/svg" width="24" height="24" fill="none" class="persona-icon" viewBox="0 0 24 24"><path fill="currentColor" fill-rule="evenodd" d="M8.472 3h.295a.75.75 0 0 1 .75.75v4.377a.9.9 0 0 0 .9.9h5.25a.9.9 0 0 0 .9-.9V3.75a.75.75 0 0 1 .75-.75h.183A3.5 3.5 0 0 1 21 6.5v11a3.5 3.5 0 0 1-3.5 3.5h-11A3.5 3.5 0 0 1 3 17.5V8.472a3.5 3.5 0 0 1 1.025-2.474l1.973-1.973A3.5 3.5 0 0 1 8.472 3M14.5 14.25a2.5 2.5 0 1 0-5 0 2.5 2.5 0 0 0 5 0" clip-rule="evenodd"/><path fill="currentColor" d="M12.5 5v2.5H11V5z"/></svg>