<svg xmlns="http://www.w3.org/2000/svg" width="32" height="32" fill="none" class="persona-icon" viewBox="0 0 32 32"><path fill="currentColor" fill-rule="evenodd" d="M11.297 4h.392a1 1 0 0 1 1 1v5.835a1.2 1.2 0 0 0 1.2 1.2h7a1.2 1.2 0 0 0 1.2-1.2V5a1 1 0 0 1 1-1h.244A4.667 4.667 0 0 1 28 8.667v14.666A4.667 4.667 0 0 1 23.333 28H8.667A4.667 4.667 0 0 1 4 23.333V11.297c0-1.238.492-2.425 1.367-3.3l2.63-2.63A4.67 4.67 0 0 1 11.297 4m8.036 15a3.333 3.333 0 1 0-6.666 0 3.333 3.333 0 0 0 6.666 0" clip-rule="evenodd"/><path fill="currentColor" d="M16.667 6.667V10h-2V6.667z"/></svg>