<svg xmlns="http://www.w3.org/2000/svg" width="16" height="16" fill="none" class="persona-icon" viewBox="0 0 16 16"><path fill="currentColor" d="M4.11 6.484a4.315 4.315 0 0 1 8.48 1.607.5.5 0 0 1-.492.409h-1.062A2.536 2.536 0 0 0 8.5 11.037v1.495a.5.5 0 0 1-.5.5 82 82 0 0 1-2.869-.038 19 19 0 0 1-1.015-.06c-.258-.023-.509-.056-.678-.116a3.275 3.275 0 0 1 .672-6.334M9.895 12.203a.5.5 0 1 1 .664-.748l.838.745v-2.176a.5.5 0 1 1 1 0V12.2l.838-.745a.5.5 0 1 1 .664.748l-1.67 1.484a.5.5 0 0 1-.664 0z"/></svg>