<svg xmlns="http://www.w3.org/2000/svg" width="20" height="20" fill="none" class="persona-icon" viewBox="0 0 20 20"><path fill="currentColor" d="M5.311 8.158a5.204 5.204 0 0 1 10.22 1.955.625.625 0 0 1-.614.512h-1.273a3.02 3.02 0 0 0-3.019 3.018v1.795c0 .345-.28.625-.625.626-1.293 0-2.497-.012-3.443-.047-.473-.017-.888-.04-1.22-.07-.309-.03-.613-.07-.82-.143a3.955 3.955 0 0 1 .794-7.646M12.257 15.06a.625.625 0 1 1 .83-.935l.964.857v-2.555a.625.625 0 0 1 1.25 0v2.555l.964-.857a.625.625 0 1 1 .83.934l-2.003 1.782a.625.625 0 0 1-.831 0z"/></svg>