<svg xmlns="http://www.w3.org/2000/svg" width="24" height="24" fill="none" class="persona-icon" viewBox="0 0 24 24"><path fill="currentColor" d="M5.95 9.676a6.71 6.71 0 0 1 13.189 2.477.75.75 0 0 1-.738.614h-1.658a3.993 3.993 0 0 0-3.993 3.993v2.337a.75.75 0 0 1-.75.75c-1.683 0-3.25-.015-4.48-.06a30 30 0 0 1-1.584-.093c-.403-.037-.792-.089-1.052-.181A5.085 5.085 0 0 1 5.95 9.676M14.98 18.559a.75.75 0 0 1 .997-1.122l1.36 1.21v-3.468a.75.75 0 0 1 1.5 0v3.468l1.36-1.21a.75.75 0 1 1 .997 1.122l-2.608 2.319a.75.75 0 0 1-.997 0z"/></svg>