<svg xmlns="http://www.w3.org/2000/svg" width="32" height="32" fill="none" class="persona-icon" viewBox="0 0 32 32"><path fill="currentColor" d="M8.22 12.968a8.629 8.629 0 0 1 16.958 3.214 1 1 0 0 1-.982.818h-2.123A5.073 5.073 0 0 0 17 22.073v2.992a1 1 0 0 1-1 1 165 165 0 0 1-5.737-.077 38 38 0 0 1-2.03-.118c-.516-.048-1.019-.115-1.358-.235a6.55 6.55 0 0 1 1.346-12.667M19.79 24.405a1 1 0 1 1 1.328-1.494l1.676 1.49v-4.352a1 1 0 1 1 2 0V24.4l1.675-1.49a1 1 0 0 1 1.33 1.495l-3.34 2.97a1 1 0 0 1-1.33 0z"/></svg>