<svg xmlns="http://www.w3.org/2000/svg" width="20" height="20" fill="none" class="persona-icon" viewBox="0 0 20 20"><path fill="currentColor" fill-rule="evenodd" d="M2.432 5.372c0-.772.625-1.397 1.397-1.397H16.17c.772 0 1.397.625 1.397 1.397v9.257c0 .77-.625 1.396-1.397 1.396H3.83a1.396 1.396 0 0 1-1.397-1.396zm1.397-.147a.146.146 0 0 0-.147.147v9.257c0 .08.066.146.147.146H16.17c.081 0 .147-.066.147-.146V5.372a.146.146 0 0 0-.147-.147zm.917 1.69c0-.346.28-.626.625-.626h9.258a.625.625 0 0 1 0 1.25H5.37a.625.625 0 0 1-.625-.625m0 2.314c0-.345.28-.625.625-.625h2.315a.625.625 0 0 1 0 1.25H5.37a.625.625 0 0 1-.625-.625m0 2.314c0-.345.28-.625.625-.625h2.315a.625.625 0 1 1 0 1.25H5.37a.625.625 0 0 1-.625-.625m6.172-2.314c0-.345.28-.625.625-.625h3.086c.345 0 .625.28.625.625v3.857c0 .345-.28.625-.625.625h-3.086a.625.625 0 0 1-.625-.625zm1.25.625v2.607h1.836V9.854z" clip-rule="evenodd"/></svg>