<svg xmlns="http://www.w3.org/2000/svg" width="20" height="20" fill="none" class="persona-icon" viewBox="0 0 20 20"><path fill="currentColor" d="M4.47 6.632a.6.6 0 0 1 .592-.606h9.876a.6.6 0 0 1 .593.606.6.6 0 0 1-.593.606H5.062a.6.6 0 0 1-.593-.606M5.062 9.764a.6.6 0 0 1-.593-.606.6.6 0 0 1 .593-.606H7.53a.6.6 0 0 1 .593.606.6.6 0 0 1-.593.606zM4.47 11.684a.6.6 0 0 0 .592.606H7.53a.6.6 0 0 0 .593-.606.6.6 0 0 0-.593-.606H5.06a.6.6 0 0 0-.592.606"/><path fill="currentColor" fill-rule="evenodd" d="M11.646 8.552a.6.6 0 0 0-.593.606v4.21a.6.6 0 0 0 .593.606h3.292a.6.6 0 0 0 .593-.606v-4.21a.6.6 0 0 0-.593-.606zm.593 4.21V9.764h2.107v2.998z" clip-rule="evenodd"/><path fill="currentColor" fill-rule="evenodd" d="M2 4.948c0-.8.634-1.448 1.416-1.448h13.168c.782 0 1.416.648 1.416 1.448v10.104c0 .8-.634 1.448-1.416 1.448H3.416C2.634 16.5 2 15.852 2 15.052zm1.416-.236a.233.233 0 0 0-.23.236v10.104c0 .13.102.236.23.236h13.168c.128 0 .23-.106.23-.236V4.948a.233.233 0 0 0-.23-.236z" clip-rule="evenodd"/></svg>