<svg xmlns="http://www.w3.org/2000/svg" width="24" height="24" fill="none" class="persona-icon" viewBox="0 0 24 24"><path fill="currentColor" fill-rule="evenodd" d="M2 5.833c0-.982.796-1.777 1.778-1.777h16.444c.982 0 1.778.795 1.778 1.777v12.334c0 .981-.796 1.777-1.778 1.777H3.778A1.78 1.78 0 0 1 2 18.167zm1.778-.277a.28.28 0 0 0-.278.277v12.334c0 .153.124.277.278.277h16.444a.28.28 0 0 0 .278-.277V5.833a.28.28 0 0 0-.278-.277zm1.305 2.333a.75.75 0 0 1 .75-.75h12.334a.75.75 0 0 1 0 1.5H5.833a.75.75 0 0 1-.75-.75m0 3.083a.75.75 0 0 1 .75-.75h3.084a.75.75 0 0 1 0 1.5H5.833a.75.75 0 0 1-.75-.75m8.223 0a.75.75 0 0 1 .75-.75h4.11a.75.75 0 0 1 .75.75v5.14a.75.75 0 0 1-.75.75h-4.11a.75.75 0 0 1-.75-.75zm-8.223 3.084a.75.75 0 0 1 .75-.75h3.084a.75.75 0 0 1 0 1.5H5.833a.75.75 0 0 1-.75-.75m9.723-2.334v3.64h2.61v-3.64z" clip-rule="evenodd"/></svg>