<svg xmlns="http://www.w3.org/2000/svg" width="32" height="32" fill="none" class="persona-icon" viewBox="0 0 32 32"><path fill="currentColor" fill-rule="evenodd" d="M2.002 7.422c0-1.336 1.095-2.42 2.445-2.42h23.11c1.35 0 2.445 1.084 2.445 2.42v17.16c0 1.337-1.094 2.42-2.444 2.42H4.447c-1.35 0-2.445-1.083-2.445-2.42zm2.445-.44a.44.44 0 0 0-.445.44v17.16c0 .243.2.44.445.44h23.11a.44.44 0 0 0 .445-.44V7.422a.44.44 0 0 0-.444-.44z" clip-rule="evenodd"/><path fill="currentColor" fill-rule="evenodd" d="M6.336 10.282c0-.546.447-.99 1-.99h17.333c.552 0 1 .444 1 .99 0 .547-.448.99-1 .99H7.336c-.553 0-1-.443-1-.99M6.336 14.572c0 .547.447.99 1 .99h4.333c.552 0 1-.443 1-.99a.995.995 0 0 0-1-.99H7.335c-.552 0-1 .444-1 .99M6.336 18.862c0 .547.447.99 1 .99h4.333c.552 0 1-.443 1-.99a.995.995 0 0 0-1-.99H7.335c-.552 0-1 .444-1 .99M17.891 14.572c0-.546.448-.99 1-.99h5.778c.552 0 1 .444 1 .99v7.15c0 .547-.448.99-1 .99H18.89c-.552 0-1-.443-1-.99zm2 .99v5.17h3.778v-5.17z" clip-rule="evenodd"/></svg>