<svg xmlns="http://www.w3.org/2000/svg" width="16" height="16" fill="none" class="persona-icon" viewBox="0 0 16 16"><path fill="currentColor" fill-rule="evenodd" d="M2 5a2.333 2.333 0 0 1 2.333-2.333h7.334A2.333 2.333 0 0 1 14 5v4.333a2.333 2.333 0 0 1-2.333 2.334H8.5v.666h3.167a.5.5 0 1 1 0 1H4.333a.5.5 0 0 1 0-1H7.5v-.666H4.333A2.333 2.333 0 0 1 2 9.333zm9.056-.722a.5.5 0 0 0 0 1h.61a.5.5 0 1 0 0-1zM8 5a1.722 1.722 0 1 0 0 3.444A1.722 1.722 0 0 0 8 5m-.952 3.667c-.558 0-1.097.203-1.517.571a1.4 1.4 0 0 0-.475 1.051v.378h5.888v-.378c0-.402-.173-.785-.475-1.05a2.3 2.3 0 0 0-1.517-.572z" clip-rule="evenodd"/></svg>