<svg xmlns="http://www.w3.org/2000/svg" width="20" height="20" fill="none" class="persona-icon" viewBox="0 0 20 20"><path fill="currentColor" fill-rule="evenodd" d="M3.1 6.525a2.683 2.683 0 0 1 2.683-2.683h8.434A2.683 2.683 0 0 1 16.9 6.525v4.983a2.683 2.683 0 0 1-2.683 2.684h-3.592v.716h3.592a.625.625 0 1 1 0 1.25H5.784a.625.625 0 1 1 0-1.25h3.591v-.716H5.783A2.683 2.683 0 0 1 3.1 11.508zm10.414-.83a.575.575 0 0 0 0 1.15h.703a.575.575 0 0 0 0-1.15zM10 6.525a1.98 1.98 0 1 0 0 3.961 1.98 1.98 0 0 0 0-3.96m-1.095 4.217c-.642 0-1.262.233-1.744.657a1.6 1.6 0 0 0-.547 1.209v.434h6.772v-.434c0-.463-.2-.903-.547-1.209a2.64 2.64 0 0 0-1.744-.657z" clip-rule="evenodd"/></svg>