<svg xmlns="http://www.w3.org/2000/svg" width="24" height="24" fill="none" class="persona-icon" viewBox="0 0 24 24"><path fill="currentColor" fill-rule="evenodd" d="M3 7.5A3.5 3.5 0 0 1 6.5 4h11A3.5 3.5 0 0 1 21 7.5V14a3.5 3.5 0 0 1-3.5 3.5h-4.75v1h4.75a.75.75 0 0 1 0 1.5h-11a.75.75 0 0 1 0-1.5h4.75v-1H6.5A3.5 3.5 0 0 1 3 14zm7.572 5.5c-.837 0-1.646.305-2.275.857a2.1 2.1 0 0 0-.714 1.577V16h8.834v-.566c0-.604-.26-1.178-.714-1.576A3.45 3.45 0 0 0 13.428 13zM12 7.5a2.583 2.583 0 1 0 0 5.167A2.583 2.583 0 0 0 12 7.5m4.583-1.083a.75.75 0 1 0 0 1.5h.917a.75.75 0 0 0 0-1.5z" clip-rule="evenodd"/></svg>