<svg xmlns="http://www.w3.org/2000/svg" width="32" height="32" fill="none" class="persona-icon" viewBox="0 0 32 32"><path fill="currentColor" fill-rule="evenodd" d="M4 10a4.667 4.667 0 0 1 4.667-4.667h14.666A4.667 4.667 0 0 1 28 10v8.667a4.667 4.667 0 0 1-4.667 4.666H17v1.334h6.333a1 1 0 1 1 0 2H8.667a1 1 0 1 1 0-2H15v-1.334H8.667A4.667 4.667 0 0 1 4 18.667zm10.096 7.333a4.6 4.6 0 0 0-3.034 1.144 2.8 2.8 0 0 0-.951 2.102v.754h11.778v-.754c0-.805-.347-1.571-.952-2.102a4.6 4.6 0 0 0-3.033-1.144zM16 10a3.444 3.444 0 1 0 0 6.889A3.444 3.444 0 0 0 16 10m6.111-1.444a1 1 0 0 0 0 2h1.222a1 1 0 1 0 0-2z" clip-rule="evenodd"/></svg>