<svg xmlns="http://www.w3.org/2000/svg" width="32" height="32" fill="none" class="persona-icon" viewBox="0 0 32 32"><path fill="currentColor" d="M14.934 2.076a1.006 1.006 0 0 0-1.093.217l-13.047 13a.998.998 0 0 0 0 1.414l13.047 13c.287.286.718.372 1.093.217a1 1 0 0 0 .62-.924v-6.262c1.466-.078 3.73-.17 6.239.612 2.546.794 5.396 2.51 7.868 6.205A1.005 1.005 0 0 0 31.5 29c0-7.803-3.028-12.784-6.709-15.795-3.168-2.592-6.778-3.692-9.237-3.931V3a1 1 0 0 0-.62-.924Zm-1.387 3.338v4.808a.998.998 0 0 0 1.003 1c1.957 0 5.715.868 8.967 3.529 2.714 2.22 5.115 5.719 5.788 11.12-2.232-2.4-4.649-3.724-6.913-4.43-2.931-.915-5.554-.775-7.037-.696l-.02.001a16.52 16.52 0 0 1-.785.032 1.006 1.006 0 0 0-1.003 1v4.808L2.923 16 13.547 5.414Z"/></svg>