<svg xmlns="http://www.w3.org/2000/svg" width="80" height="80" fill="none" class="persona-ilustration" viewBox="0 0 80 80"><g clip-path="url(#LPtmzRbZ88_a)"><g clip-path="url(#LPtmzRbZ88_b)"><rect width="66.667" height="66.667" x="6.667" y="6.667" fill="#D3EDFF" rx="33.333"/><path fill="#293A6E" fill-rule="evenodd" d="M6.841 23.386c-.68-1.903-.572-3.674.296-4.865.02-.028.044-.06.068-.088l3.001-3.845-.005.007-.034.044a3.8 3.8 0 0 0-.636 1.467l1.024-1.311c.627-.803 1.63-1.22 2.826-1.171l-3.03 3.881a5 5 0 0 0-.52.01c.039.599.174 1.237.408 1.893l-.273.35 32.651 91.453c1.387 3.433 3.75 5.484 6.448 5.692q.57.042 1.159-.024l31.378-3.61.186-.24c.008-.742-.13-1.543-.417-2.358l.54-.693-.544.697-30.348-85.95c-1.09-3.086-4.049-5.689-6.655-5.889l3.03-3.88c2.606.199 5.564 2.797 6.655 5.887L84.4 106.791l.001-.002c.616 1.735.552 3.41-.168 4.593l-.462.593v-.001l.462-.592c-.068.112-.144.22-.22.32l-.975 1.249a3.25 3.25 0 0 0 1.283-.995l-3.026 3.875c-.563.724-1.355 1.16-2.31 1.272l-31.79 3.656-.001.001c-.388.044-.78.052-1.16.024-2.701-.208-5.06-2.258-6.447-5.692l2.987-3.826-2.99 3.826z" clip-rule="evenodd"/><path fill="#293A6E" d="m10.235 14.552-.029.036zM44.36 18.837l3.034-3.882-34.013-1.331-3.03 3.881z"/><path fill="#FFF9E1" fill-rule="evenodd" d="M84.57 111.596c.775-1.271.847-3.058.195-4.897l-.004-.004-30.348-85.95c-1.143-3.234-4.265-5.96-7.195-6.184l-33.857-1.32c-1.36-.047-2.495.448-3.19 1.4-.867 1.19-.975 2.962-.296 4.864l32.742 91.707c1.387 3.434 3.746 5.484 6.448 5.692.38.028.771.02 1.16-.024l31.79-3.657c1.1-.132 1.983-.692 2.554-1.627" clip-rule="evenodd"/><path fill="#293A6E" d="m85.081 117.183-34.196 3.949c-2.781.322-6.027-2.192-7.231-5.617L9.864 19.422c-1.205-3.426.208-6.123 3.132-6.031l35.97 1.146c2.634.083 5.675 2.76 6.809 5.977l31.778 90.32c1.134 3.221.034 6.061-2.472 6.349"/><path fill="#FFF9E1" d="m84.028 115.126-33.57 3.769c-1.869.209-4.048-1.481-4.855-3.781L12.034 19.656c-.807-2.296.134-4.11 2.1-4.056l35.242 1.02c1.777.05 3.827 1.853 4.592 4.024l31.737 90.203c.765 2.171.016 4.087-1.673 4.275z"/></g><path fill="#293A6E" fill-rule="evenodd" d="M6.842 23.385c-.68-1.902-.572-3.673.295-4.864a1 1 0 0 1 .068-.088l3.002-3.845-.006.007-.034.044a3.8 3.8 0 0 0-.635 1.467l1.023-1.311c.628-.804 1.63-1.22 2.826-1.171l-3.03 3.881a5 5 0 0 0-.519.009c.038.6.173 1.238.407 1.894l-.273.35 14.052 39.358 38.429-1.802-11.427-32.59c-1.091-3.086-4.05-5.688-6.656-5.888l3.03-3.881c2.607.2 5.565 2.798 6.656 5.888l13.084 37.051-47.536 1.221z" clip-rule="evenodd"/><path fill="#293A6E" d="m10.235 14.551-.028.037zM44.36 18.836l3.034-3.881-34.013-1.331-3.03 3.881z"/><path fill="#293A6E" fill-rule="evenodd" d="m68.74 57.575-13.004-36.83c-1.143-3.235-3.858-6.694-8.517-6.185L13.36 13.241c-1.359-.048-2.494.448-3.19 1.4-.867 1.19-.975 2.961-.295 4.864l14.423 40.398z" clip-rule="evenodd"/><path fill="#FFF9E1" d="M26.182 59.838 12.034 19.656c-.807-2.296.134-4.111 2.1-4.057l35.242 1.02c1.777.05 3.827 1.853 4.592 4.024l13.13 37.318z"/><path fill="#293A6E" d="M35.54 16.139c.363 1.029.367 2.012.02 2.723-.351.715-1.033 1.104-1.895 1.083-.861-.02-1.84-.452-2.71-1.2a6.73 6.73 0 0 1-1.936-2.799l6.524.189z"/><mask id="LPtmzRbZ88_c" width="24" height="23" x="49" y="7" maskUnits="userSpaceOnUse" style="mask-type:alpha"><path fill="#009444" d="M61.331 30c6.26 0 11.334-5.074 11.334-11.333S67.59 7.333 61.33 7.333s-11.333 5.074-11.333 11.334S55.072 30 61.331 30"/></mask><g mask="url(#LPtmzRbZ88_c)"><path fill="#F18513" d="M61.331 30c6.26 0 11.334-5.074 11.334-11.333S67.59 7.333 61.33 7.333s-11.333 5.074-11.333 11.334S55.072 30 61.331 30"/><path fill="#FFB700" d="M58.646 27.39c6.26 0 11.334-5.075 11.334-11.334 0-6.26-5.074-11.333-11.334-11.333S47.313 9.797 47.313 16.056s5.074 11.333 11.333 11.333"/><circle cx="61.292" cy="24.633" r="1.705" fill="#6C3820"/><path fill="#6C3820" d="M59.653 12.698a1.64 1.64 0 1 1 3.278 0l-.311 8.1a1.329 1.329 0 0 1-2.656 0z"/></g><path fill="#EA4F4A" fill-rule="evenodd" d="M34.24 33.117c.501-.704 1.38-1.099 2.445-1.099h3.385c1.066 0 2.232.395 3.246 1.099l4.183 2.904h.953c3.029 0 6.324 2.307 7.36 5.153l3.366 9.248c1.036 2.846-.58 5.154-3.609 5.154H38.334c-3.028 0-6.323-2.308-7.36-5.154l-3.365-9.248c-1.036-2.846.58-5.153 3.608-5.153h.954zm3.432 12.03c-1.036-2.846.58-5.154 3.609-5.154s6.323 2.308 7.359 5.154-.58 5.153-3.608 5.153-6.324-2.307-7.36-5.153" clip-rule="evenodd"/></g><defs><clipPath id="LPtmzRbZ88_a"><path fill="#fff" d="M0 0h80v80H0z"/></clipPath><clipPath id="LPtmzRbZ88_b"><rect width="66.667" height="66.667" x="6.667" y="6.667" fill="#fff" rx="33.333"/></clipPath></defs></svg>