<svg xmlns="http://www.w3.org/2000/svg" width="80" height="80" fill="none" class="persona-ilustration" viewBox="0 0 80 80"><g clip-path="url(#6hMLCw5Q37rGOLwBkTfS_s1gWFwaPnR4T0TWWxBotko_a)"><path fill="#F8F8F8" d="M20.578 17.91h39.446l15.28 43.43-70-.25z"/><path fill="#E4E4E4" d="m56.687 29.282-33.08-.032c-.328 0-.561-.159-.508-.35l.2-.773c.043-.185.35-.333.679-.333l32.36.026c.328 0 .63.148.678.339l.196.773c.047.19-.186.35-.52.35zM57.487 32.311l-34.569-.042c-.35 0-.582-.17-.535-.376l.218-.843c.047-.2.37-.365.71-.365l33.784.032c.339 0 .662.164.71.365l.217.842c.053.207-.186.382-.535.376zM58.302 35.674l-36.22-.053c-.366 0-.615-.185-.556-.418l.238-.927c.058-.223.392-.403.747-.403l35.362.048c.36 0 .694.18.753.403l.233.926c.052.228-.191.419-.557.419zM59.637 39.662l-38.773-.058c-.387 0-.657-.191-.599-.435l.25-.958c.057-.233.418-.413.794-.413l37.852.047c.386 0 .746.19.81.419l.26.958c.063.233-.202.435-.588.435zM36.032 23.932H25.048c-.302-.005-.514-.137-.477-.296l.725-2.839c.038-.143.308-.265.588-.265h10.38c.292 0 .52.117.51.27l-.175 2.844c-.011.16-.265.292-.578.292h.01zM54.865 21.782H44.458c-.296 0-.54-.127-.55-.275l-.043-.71c-.01-.143.222-.265.508-.265H54.57c.291 0 .556.117.593.27l.18.71c.042.148-.17.275-.466.275h-.005zM55.453 23.938h-8.04c-.307 0-.567-.138-.588-.297l-.08-.763c-.02-.159.218-.286.514-.286h7.87c.303 0 .578.133.62.292l.196.762c.043.164-.175.291-.482.291h-.01M38.044 43.888l-18.536-.031c-.392 0-.657-.212-.588-.477l.275-1.06c.064-.254.424-.455.805-.455l18.07.032c.382 0 .684.201.684.456l-.016 1.064c0 .265-.323.477-.715.477h.016zM44.574 54.392l18.537-.032c.392 0 .657-.212.588-.477l-.275-1.059c-.064-.254-.424-.455-.805-.455l-18.071.031c-.381 0-.683.202-.683.456l.016 1.064c0 .265.323.477.715.477h-.016z"/><path fill="#E4E4E4" d="M32.029 29.691h14.459c1 6.148 4.679 14.447 6.393 17.828H25.696c1.698-3.381 5.342-11.68 6.333-17.828"/><mask id="6hMLCw5Q37rGOLwBkTfS_s1gWFwaPnR4T0TWWxBotko_b" width="32" height="19" x="23" y="26" maskUnits="userSpaceOnUse" style="mask-type:alpha"><path fill="#fff" d="M30.603 26.63h17.192c1.106 6.148 5.174 14.447 7.07 17.828H23.533c1.896-3.381 5.964-11.68 7.07-17.828"/></mask><g mask="url(#6hMLCw5Q37rGOLwBkTfS_s1gWFwaPnR4T0TWWxBotko_b)"><path fill="#FEEDB4" d="M30.603 26.63h17.192c1.106 6.148 5.174 14.447 7.07 17.828H23.533c1.896-3.381 5.964-11.68 7.07-17.828"/><path fill="#FEE283" d="M48.926 28.595H29.794v-3.024h18.211z"/></g><path fill="#498F79" fill-rule="evenodd" d="M45.856 31.472c.605.584.621 1.549.036 2.154-3.322 3.436-5.159 5.75-6.125 7.085a1.523 1.523 0 0 1-2.06.387l-4.54-2.93a1.523 1.523 0 1 1 1.652-2.56l3.35 2.162c1.15-1.476 2.902-3.541 5.533-6.262a1.523 1.523 0 0 1 2.154-.036" clip-rule="evenodd"/></g><defs><clipPath id="6hMLCw5Q37rGOLwBkTfS_s1gWFwaPnR4T0TWWxBotko_a"><path fill="#fff" d="M0 0h80v80H0z"/></clipPath></defs></svg>