<svg xmlns="http://www.w3.org/2000/svg" width="32" height="32" fill="none" class="persona-icon" viewBox="0 0 32 32"><path fill="currentColor" d="M9.115 9.889a5.889 5.889 0 1 1 11.778 0 5.889 5.889 0 0 1-11.778 0M6.402 20.101a7.9 7.9 0 0 1 6.002-2.768h5.199a7.9 7.9 0 0 1 6.003 2.768 4.45 4.45 0 0 1 1.064 2.887v.345A4.667 4.667 0 0 1 20.004 28h-10a4.667 4.667 0 0 1-4.667-4.667v-.345c0-1.058.377-2.082 1.065-2.887M29.707 13.651a1 1 0 0 0-1.414-1.414l-2.96 2.96-1.737-1.737a1 1 0 1 0-1.414 1.414l2.444 2.444a1 1 0 0 0 1.414 0z"/></svg>