<svg xmlns="http://www.w3.org/2000/svg" width="16" height="16" fill="none" class="persona-icon" viewBox="0 0 16 16"><path fill="currentColor" fill-rule="evenodd" d="M1 3.71c0-.668.547-1.21 1.222-1.21h11.556c.675 0 1.222.542 1.222 1.21v8.58c0 .668-.547 1.21-1.222 1.21H2.222A1.216 1.216 0 0 1 1 12.29zm1.222-.22A.22.22 0 0 0 2 3.71v8.58c0 .122.1.22.222.22h11.556a.22.22 0 0 0 .222-.22V3.71c0-.122-.1-.22-.222-.22z" clip-rule="evenodd"/><path fill="currentColor" fill-rule="evenodd" d="M3.167 10.86c0-.273.224-.495.5-.495H8c.276 0 .5.222.5.495a.5.5 0 0 1-.5.495H3.667a.497.497 0 0 1-.5-.495M3.167 8.715c0-.273.224-.495.5-.495h2.166c.276 0 .5.222.5.495a.497.497 0 0 1-.5.495H3.667a.497.497 0 0 1-.5-.495M10.389 5.14c0-.273.224-.495.5-.495h1.083c.276 0 .5.222.5.495v1.073a.497.497 0 0 1-.5.494H10.89a.497.497 0 0 1-.5-.494z" clip-rule="evenodd"/></svg>