<svg xmlns="http://www.w3.org/2000/svg" width="16" height="16" fill="none" class="persona-icon" viewBox="0 0 16 16"><path fill="currentColor" fill-rule="evenodd" d="M2 4.334c0-.614.498-1.112 1.111-1.112h9.778c.614 0 1.111.498 1.111 1.112v7.333c0 .614-.498 1.11-1.111 1.11H3.11A1.11 1.11 0 0 1 2 11.668zm1.111-.112A.11.11 0 0 0 3 4.333v7.334c0 .061.05.11.111.11h9.778c.061 0 .111-.049.111-.11V4.334a.11.11 0 0 0-.111-.112zm.722 4.389a.5.5 0 0 0 .5.5h1.834a.5.5 0 0 0 0-1H4.333a.5.5 0 0 0-.5.5m0 1.833a.5.5 0 0 0 .5.5H8a.5.5 0 1 0 0-1H4.333a.5.5 0 0 0-.5.5m6.111-4.889v.917a.5.5 0 0 0 .5.5h.917a.5.5 0 0 0 .5-.5v-.917a.5.5 0 0 0-.5-.5h-.917a.5.5 0 0 0-.5.5" clip-rule="evenodd"/></svg>