<svg xmlns="http://www.w3.org/2000/svg" width="20" height="20" fill="none" class="persona-icon" viewBox="0 0 20 20"><path fill="currentColor" d="M5.286 12.518H10a.625.625 0 1 1 0 1.25H5.286a.625.625 0 0 1 0-1.25M4.66 10.786c0-.345.28-.625.626-.625h2.357a.625.625 0 0 1 0 1.25H5.286a.625.625 0 0 1-.625-.625M13.143 6.232h1.178c.346 0 .625.28.625.625v1.179c0 .345-.28.625-.625.625h-1.178a.625.625 0 0 1-.625-.625v-1.18c0-.344.28-.624.625-.624"/><path fill="currentColor" fill-rule="evenodd" d="M3.714 3.875h12.572c.779 0 1.41.632 1.41 1.41v9.43c0 .778-.631 1.41-1.41 1.41H3.714a1.41 1.41 0 0 1-1.41-1.41v-9.43c0-.778.631-1.41 1.41-1.41m-.16 1.41v9.43c0 .088.071.16.16.16h12.572a.16.16 0 0 0 .16-.16v-9.43a.16.16 0 0 0-.16-.16H3.714a.16.16 0 0 0-.16.16" clip-rule="evenodd"/></svg>