<svg xmlns="http://www.w3.org/2000/svg" width="24" height="24" fill="none" class="persona-icon" viewBox="0 0 24 24"><path fill="currentColor" d="M5.833 15.361a.75.75 0 1 0 0 1.5H12a.75.75 0 0 0 0-1.5zM5.083 13.028a.75.75 0 0 1 .75-.75h3.084a.75.75 0 0 1 0 1.5H5.833a.75.75 0 0 1-.75-.75"/><path fill="currentColor" fill-rule="evenodd" d="M16.111 7.139a.75.75 0 0 0-.75.75V9.43c0 .414.336.75.75.75h1.542a.75.75 0 0 0 .75-.75V7.889a.75.75 0 0 0-.75-.75zm.75 1.542v-.042h.042v.042z" clip-rule="evenodd"/><path fill="currentColor" fill-rule="evenodd" d="M3.778 4.056C2.796 4.056 2 4.85 2 5.833v12.334c0 .981.796 1.777 1.778 1.777h16.444c.982 0 1.778-.796 1.778-1.777V5.833c0-.982-.796-1.777-1.778-1.777zM3.5 5.833c0-.153.124-.277.278-.277h16.444c.154 0 .278.124.278.277v12.334a.28.28 0 0 1-.278.277H3.778a.28.28 0 0 1-.278-.277z" clip-rule="evenodd"/></svg>