<svg xmlns="http://www.w3.org/2000/svg" width="24" height="24" fill="none" class="persona-icon" viewBox="0 0 24 24"><path fill="currentColor" fill-rule="evenodd" d="M2 5.807A1.8 1.8 0 0 1 3.795 4h16.41A1.8 1.8 0 0 1 22 5.806v12.388A1.8 1.8 0 0 1 20.205 20H3.795A1.8 1.8 0 0 1 2 18.194zm1.795-.259a.257.257 0 0 0-.256.258v12.388c0 .142.114.258.256.258h16.41a.257.257 0 0 0 .257-.259V5.807a.257.257 0 0 0-.257-.258z" clip-rule="evenodd"/><path fill="currentColor" fill-rule="evenodd" d="M5.077 16.129c0-.428.344-.774.77-.774H12c.425 0 .77.346.77.774a.77.77 0 0 1-.77.774H5.846a.77.77 0 0 1-.77-.774M5.077 13.032c0-.427.344-.774.77-.774h3.076c.425 0 .77.347.77.774a.77.77 0 0 1-.77.774H5.846a.77.77 0 0 1-.77-.774M15.333 7.871c0-.428.345-.774.77-.774h1.538c.425 0 .77.346.77.774v1.548a.77.77 0 0 1-.77.774h-1.538a.77.77 0 0 1-.77-.774z" clip-rule="evenodd"/></svg>