<svg xmlns="http://www.w3.org/2000/svg" width="32" height="32" fill="none" class="persona-icon" viewBox="0 0 32 32"><path fill="currentColor" d="M8.286 20.143a1 1 0 1 0 0 2H16a1 1 0 1 0 0-2zM7.286 17.286a1 1 0 0 1 1-1h3.857a1 1 0 1 1 0 2H8.286a1 1 0 0 1-1-1M21.143 9.857a1 1 0 0 0-1 1v1.929a1 1 0 0 0 1 1h1.928a1 1 0 0 0 1-1v-1.929a1 1 0 0 0-1-1z"/><path fill="currentColor" fill-rule="evenodd" d="M5.714 6A2.286 2.286 0 0 0 3.43 8.286v15.428A2.286 2.286 0 0 0 5.714 26h20.572a2.286 2.286 0 0 0 2.285-2.286V8.286A2.286 2.286 0 0 0 26.286 6zM5.43 8.286c0-.158.128-.286.285-.286h20.572c.157 0 .285.128.285.286v15.428a.286.286 0 0 1-.285.286H5.714a.286.286 0 0 1-.285-.286z" clip-rule="evenodd"/></svg>