<svg xmlns="http://www.w3.org/2000/svg" width="16" height="16" fill="none" class="persona-icon" viewBox="0 0 16 16"><path fill="currentColor" d="M4.877 3.622a.5.5 0 0 1 .5-.5h3.002a.5.5 0 1 1 0 1H5.377a.5.5 0 0 1-.5-.5M10.624 4.247a.626.626 0 1 0 0-1.25.626.626 0 0 0 0 1.25"/><path fill="currentColor" fill-rule="evenodd" d="M4.126 1.714C3.504 1.714 3 2.218 3 2.84v2.189a.5.5 0 0 0 .5.5h9a.5.5 0 0 0 .5-.5v-2.19c0-.62-.504-1.125-1.126-1.125zM4 2.84c0-.07.056-.126.125-.126h7.75c.069 0 .125.057.125.126v1.689H4z" clip-rule="evenodd"/><path fill="currentColor" d="M4.877 8a.5.5 0 0 1 .5-.5h3.002a.5.5 0 1 1 0 1H5.377a.5.5 0 0 1-.5-.5M10.624 8.626a.626.626 0 1 0 0-1.251.626.626 0 0 0 0 1.25"/><path fill="currentColor" fill-rule="evenodd" d="M3 6.593a.5.5 0 0 1 .5-.5h9a.5.5 0 0 1 .5.5v2.815a.5.5 0 0 1-.5.5h-9a.5.5 0 0 1-.5-.5zm1 .5v1.815h8V7.093z" clip-rule="evenodd"/><path fill="currentColor" d="M5.377 11.879a.5.5 0 1 0 0 1h3.002a.5.5 0 1 0 0-1zM11.25 12.379a.626.626 0 1 1-1.252 0 .626.626 0 0 1 1.251 0"/><path fill="currentColor" fill-rule="evenodd" d="M3 10.971a.5.5 0 0 1 .5-.5h9a.5.5 0 0 1 .5.5v2.19c0 .621-.504 1.125-1.126 1.125H4.126A1.125 1.125 0 0 1 3 13.16zm1 .5v1.69c0 .069.056.125.125.125h7.75c.069 0 .125-.056.125-.126v-1.689z" clip-rule="evenodd"/></svg>