<svg xmlns="http://www.w3.org/2000/svg" width="32" height="32" fill="none" class="persona-icon" viewBox="0 0 32 32"><path fill="currentColor" d="M9.753 7.243a1 1 0 0 1 1-1h6.005a1 1 0 1 1 0 2h-6.005a1 1 0 0 1-1-1M21.247 8.494a1.251 1.251 0 1 0 0-2.502 1.251 1.251 0 0 0 0 2.502"/><path fill="currentColor" fill-rule="evenodd" d="M8.251 3.429A2.25 2.25 0 0 0 6 5.679v4.38a1 1 0 0 0 1 1h18a1 1 0 0 0 1-1v-4.38a2.25 2.25 0 0 0-2.251-2.25zM8 5.679c0-.138.112-.25.251-.25h15.498c.139 0 .251.112.251.25v3.38H8z" clip-rule="evenodd"/><path fill="currentColor" d="M9.753 16a1 1 0 0 1 1-1h6.005a1 1 0 1 1 0 2h-6.005a1 1 0 0 1-1-1M21.247 17.251a1.251 1.251 0 1 0 0-2.502 1.251 1.251 0 0 0 0 2.502"/><path fill="currentColor" fill-rule="evenodd" d="M6 13.185a1 1 0 0 1 1-1h18a1 1 0 0 1 1 1v5.63a1 1 0 0 1-1 1H7a1 1 0 0 1-1-1zm2 1v3.63h16v-3.63z" clip-rule="evenodd"/><path fill="currentColor" d="M10.753 23.757a1 1 0 1 0 0 2h6.005a1 1 0 1 0 0-2zM22.498 24.757a1.251 1.251 0 1 1-2.502 0 1.251 1.251 0 0 1 2.502 0"/><path fill="currentColor" fill-rule="evenodd" d="M6 21.942a1 1 0 0 1 1-1h18a1 1 0 0 1 1 1v4.378a2.25 2.25 0 0 1-2.251 2.252H8.251A2.25 2.25 0 0 1 6 26.32zm2 1v3.378c0 .14.112.252.251.252h15.498A.25.25 0 0 0 24 26.32v-3.378z" clip-rule="evenodd"/></svg>