<svg xmlns="http://www.w3.org/2000/svg" width="32" height="32" fill="none"><path fill="#000" fill-rule="evenodd" d="M3 11.333a8.333 8.333 0 1 1 16.276 2.529l9.431 9.43A1 1 0 0 1 29 24v4a1 1 0 0 1-1 1h-4a1 1 0 0 1-.707-.293l-9.431-9.431A8.333 8.333 0 0 1 3 11.333ZM11.333 5a6.333 6.333 0 1 0 2.406 12.194 1 1 0 0 1 1.087.218L24.414 27H27v-2.586l-9.588-9.588a1 1 0 0 1-.218-1.087A6.333 6.333 0 0 0 11.334 5Z" clip-rule="evenodd"/><path fill="#000" fill-rule="evenodd" d="M21.374 21.293a1 1 0 0 1 0 1.414L20.04 24.04a1 1 0 1 1-1.414-1.414l1.334-1.333a1 1 0 0 1 1.414 0Zm2.666 2.667a1 1 0 0 1 0 1.414l-1.333 1.333a1 1 0 0 1-1.414-1.414l1.333-1.333a1 1 0 0 1 1.414 0Z" clip-rule="evenodd"/><path fill="#000" d="M10.667 9.333a1.333 1.333 0 1 1-2.667 0 1.333 1.333 0 0 1 2.667 0Z"/></svg>