<svg xmlns="http://www.w3.org/2000/svg" width="32" height="32" fill="none"><path fill="#000" fill-rule="evenodd" d="M17.698 6.33c1.518-2.69 4.905-3.635 7.546-2.075 2.645 1.563 3.538 5.028 2.016 7.725l-4.487 7.953c-1.53 2.71-4.94 3.66-7.6 2.09-2.627-1.552-3.514-4.992-2.002-7.67a1 1 0 0 1 1.742.983c-.99 1.752-.39 3.98 1.277 4.965 1.671.987 3.849.408 4.841-1.351l4.488-7.953c1-1.772.393-4.024-1.292-5.02-1.653-.976-3.806-.404-4.788 1.336l-.282.502a1 1 0 1 1-1.742-.983l.283-.502ZM9.23 12.072c1.53-2.71 4.941-3.661 7.6-2.09 2.627 1.552 3.514 4.991 2.003 7.67a1 1 0 1 1-1.742-.983c.989-1.753.389-3.98-1.278-4.965-1.67-.987-3.848-.408-4.84 1.35l-4.488 7.953c-1 1.772-.393 4.025 1.292 5.02 1.652.977 3.805.404 4.787-1.335l.283-.502a1 1 0 1 1 1.742.983l-.283.501C12.788 28.366 9.4 29.31 6.76 27.75c-2.646-1.563-3.54-5.028-2.017-7.726l4.487-7.952Z" clip-rule="evenodd"/></svg>