<svg xmlns="http://www.w3.org/2000/svg" width="20" height="20" fill="none" class="persona-icon" viewBox="0 0 20 20"><path fill="currentColor" fill-rule="evenodd" d="M10 2c-1.171 0-2.12.963-2.12 2.152S8.828 6.304 10 6.304c1.171 0 2.12-.963 2.12-2.152S11.172 2 10 2m-.953 2.152A.96.96 0 0 1 10 3.185a.96.96 0 0 1 .953.967.96.96 0 0 1-.953.967.96.96 0 0 1-.953-.967M9.078 6.678a3.01 3.01 0 0 0-2.303 1.078c-.123.146-.22.308-.292.482H5.389c-.747 0-1.352.614-1.352 1.372v4.169A2.149 2.149 0 0 0 2.5 15.848C2.5 17.036 3.45 18 4.62 18c1.172 0 2.122-.963 2.122-2.152 0-.983-.65-1.812-1.537-2.07V9.61c0-.103.082-.187.184-.187h.998a1.96 1.96 0 0 0 1.908 1.56h1.121v2.795a2.149 2.149 0 0 0-1.537 2.07C7.88 17.036 8.83 18 10 18s2.12-.963 2.12-2.152c0-.983-.649-1.812-1.536-2.07v-2.796h1.121a1.96 1.96 0 0 0 1.908-1.559h.998c.101 0 .184.084.184.187v4.169a2.149 2.149 0 0 0-1.537 2.069c0 1.188.95 2.152 2.121 2.152s2.121-.963 2.121-2.152c0-.983-.65-1.812-1.537-2.07V9.61c0-.758-.605-1.372-1.352-1.372h-1.094a1.835 1.835 0 0 0-.292-.482 3.01 3.01 0 0 0-2.303-1.078H9.078m-4.457 8.203a.96.96 0 0 1 .953.967.96.96 0 0 1-.953.967.96.96 0 0 1-.953-.967.96.96 0 0 1 .953-.967m6.3-7.017a1.85 1.85 0 0 1 1.416.662.653.653 0 0 1 .153.42v.055a.79.79 0 0 1-.785.796h-3.41a.79.79 0 0 1-.785-.796v-.055c0-.154.054-.303.153-.42a1.85 1.85 0 0 1 1.415-.662h1.844m-1.874 7.984A.96.96 0 0 1 10 14.88a.96.96 0 0 1 .953.967.96.96 0 0 1-.953.967.96.96 0 0 1-.953-.967m6.332-.967a.96.96 0 0 1 .953.967.96.96 0 0 1-.953.967.96.96 0 0 1-.953-.967.96.96 0 0 1 .953-.967" clip-rule="evenodd"/></svg>