<svg xmlns="http://www.w3.org/2000/svg" width="24" height="24" fill="none" class="persona-icon" viewBox="0 0 24 24"><path fill="currentColor" fill-rule="evenodd" d="M8.112 9.724A3.67 3.67 0 0 1 10.9 8.438h2.2c1.072 0 2.092.47 2.788 1.286.172.201.305.43.394.675H17.5c.92 0 1.667.746 1.667 1.667v3.836a2.584 2.584 0 1 1-1.5 0v-3.836a.167.167 0 0 0-.167-.167h-1.18a2.38 2.38 0 0 1-2.286 1.706H12.75v2.297a2.585 2.585 0 1 1-1.5 0v-2.297H9.966c-1.08 0-1.993-.72-2.285-1.706H6.5a.167.167 0 0 0-.168.167v3.836a2.585 2.585 0 1 1-1.5 0v-3.836c0-.92.747-1.667 1.667-1.667h1.218c.09-.245.222-.474.394-.675m-2.529 7.568a1.083 1.083 0 1 0 0 2.166 1.083 1.083 0 0 0 0-2.166M10.9 9.938c-.633 0-1.235.278-1.647.76a.7.7 0 0 0-.17.46v.064c0 .488.396.883.883.883h4.068a.883.883 0 0 0 .883-.883v-.064a.7.7 0 0 0-.17-.46 2.17 2.17 0 0 0-1.647-.76zM9.417 5.543a2.583 2.583 0 1 1 5.166 0 2.583 2.583 0 0 1-5.166 0M12 4.46a1.083 1.083 0 1 0 0 2.167 1.083 1.083 0 0 0 0-2.167m0 12.832a1.083 1.083 0 1 0 0 2.166 1.083 1.083 0 0 0 0-2.166m6.417 0a1.083 1.083 0 1 0 0 2.166 1.083 1.083 0 0 0 0-2.166" clip-rule="evenodd"/></svg>