<svg xmlns="http://www.w3.org/2000/svg" width="16" height="16" fill="none" class="persona-icon" viewBox="0 0 16 16"><path fill="currentColor" fill-rule="evenodd" d="M3.968 4v8c0 .828.65 1.5 1.451 1.5h1.29c.268 0 .485.224.485.5s-.217.5-.484.5H5.42C4.082 14.5 3 13.38 3 12V4c0-1.38 1.083-2.5 2.42-2.5h2.922c.492 0 .962.21 1.297.582l3.23 3.577a.51.51 0 0 1 .09.54.48.48 0 0 1-.443.301h-2.58c-.98 0-1.775-.82-1.775-1.833V2.5H5.42c-.801 0-1.451.672-1.451 1.5m7.38 1.5L9.129 3.207v1.46c0 .46.361.833.806.833z" clip-rule="evenodd"/><path fill="currentColor" fill-rule="evenodd" d="M10.18 7.63a.456.456 0 0 1 .64 0l.765.75 1.072.011c.248.003.449.204.452.452l.01 1.072.75.766a.456.456 0 0 1 0 .638l-.75.766-.01 1.072a.457.457 0 0 1-.452.452l-1.072.01-.766.75a.456.456 0 0 1-.638 0l-.766-.75-1.072-.01a.457.457 0 0 1-.452-.452l-.01-1.072-.75-.766a.456.456 0 0 1 0-.638l.75-.766.01-1.072a.457.457 0 0 1 .452-.452l1.072-.01zm.32.965-.577.566a.46.46 0 0 1-.315.13L8.8 9.3l-.009.808a.46.46 0 0 1-.13.315L8.096 11l.565.577c.082.085.13.197.13.315l.009.808.808.009c.118 0 .23.048.315.13l.577.566.577-.566a.46.46 0 0 1 .315-.13l.808-.009.009-.808a.46.46 0 0 1 .13-.315l.566-.577-.566-.577a.46.46 0 0 1-.13-.315L12.2 9.3l-.808-.009a.46.46 0 0 1-.315-.13zm1.23 1.467a.457.457 0 0 1 .012.646l-1.17 1.217a.457.457 0 0 1-.67-.011l-.655-.73a.457.457 0 0 1 .68-.61l.327.364.83-.863a.457.457 0 0 1 .646-.013" clip-rule="evenodd"/></svg>