<svg xmlns="http://www.w3.org/2000/svg" width="20" height="20" fill="none" class="persona-icon" viewBox="0 0 20 20"><path fill="currentColor" fill-rule="evenodd" d="M4.712 5.062v9.876c0 1.037.86 1.877 1.92 1.877h1.684a.6.6 0 0 1 .606.592.6.6 0 0 1-.606.593H6.632C4.902 18 3.5 16.63 3.5 14.938V5.062C3.5 3.37 4.902 2 6.632 2h3.815c.635 0 1.241.258 1.674.711l4.216 4.416c.165.172.209.424.113.64a.61.61 0 0 1-.556.356h-3.368c-1.265 0-2.29-1.002-2.29-2.238v-2.7H6.632c-1.06 0-1.92.84-1.92 1.877m9.718 1.876-2.982-2.915v1.862c0 .582.483 1.053 1.078 1.053z" clip-rule="evenodd"/><path fill="currentColor" d="m14.588 13.106-1.512 1.573a.566.566 0 0 1-.83-.014l-.848-.944a.567.567 0 0 1 .844-.757l.44.49 1.09-1.133a.566.566 0 0 1 .816.785"/><path fill="currentColor" fill-rule="evenodd" d="m13.396 9.162.997.976 1.394.014a.566.566 0 0 1 .56.56l.015 1.395.976.997a.567.567 0 0 1 0 .792l-.976.997-.014 1.394a.566.566 0 0 1-.56.56l-1.395.015-.997.976a.566.566 0 0 1-.792 0l-.997-.976-1.394-.014a.566.566 0 0 1-.56-.56l-.015-1.395-.976-.997a.567.567 0 0 1 0-.792l.976-.997.014-1.394a.566.566 0 0 1 .56-.56l1.395-.015.997-.976a.566.566 0 0 1 .792 0m-1.159 1.944a.57.57 0 0 1-.39.162l-1.068.011-.01 1.068a.57.57 0 0 1-.163.39l-.747.763.747.763c.103.104.16.244.162.39l.011 1.068 1.068.01c.146.002.286.06.39.163l.763.747.763-.747a.57.57 0 0 1 .39-.162l1.068-.011.01-1.068a.57.57 0 0 1 .163-.39l.747-.763-.747-.763a.57.57 0 0 1-.162-.39l-.011-1.068-1.068-.01a.57.57 0 0 1-.39-.163L13 10.36z" clip-rule="evenodd"/></svg>