<svg xmlns="http://www.w3.org/2000/svg" width="32" height="32" fill="none"><path fill="currentColor" d="M22.302 15.288a1 1 0 0 1 1.4 0l1.628 1.595 2.279.023a1 1 0 0 1 .99.99l.023 2.279 1.595 1.628a1 1 0 0 1 0 1.4l-1.595 1.627-.024 2.279a1 1 0 0 1-.99.99l-2.278.023-1.628 1.595a1 1 0 0 1-1.4 0l-1.628-1.595-2.278-.023a1 1 0 0 1-.99-.99l-.024-2.279-1.594-1.628a1 1 0 0 1 0-1.4l1.594-1.627.024-2.28a1 1 0 0 1 .99-.989l2.278-.023 1.628-1.595Zm.7 2.114-1.215 1.19a1 1 0 0 1-.69.286l-1.701.018-.018 1.701a1 1 0 0 1-.285.69l-1.191 1.215 1.19 1.216a1 1 0 0 1 .286.69l.018 1.7 1.701.018a1 1 0 0 1 .69.286l1.215 1.19 1.216-1.19a1 1 0 0 1 .69-.285l1.7-.018.018-1.702a1 1 0 0 1 .286-.689l1.19-1.216-1.19-1.215a1 1 0 0 1-.286-.69l-.017-1.701-1.702-.018a1 1 0 0 1-.69-.285l-1.215-1.19Zm2.643 3.08a1 1 0 0 0-1.414.027l-1.754 1.824-.68-.758a1 1 0 1 0-1.489 1.335l1.4 1.56a1 1 0 0 0 1.465.026l2.5-2.6a1 1 0 0 0-.028-1.414Z"/><path fill="currentColor" d="M7.535 8.002c0-1.656 1.364-3 3.048-3h5.758v4.334c0 2.025 1.668 3.667 3.726 3.667h5.419c.405 0 .77-.237.932-.602a.988.988 0 0 0-.19-1.08l-6.783-7.154a3.754 3.754 0 0 0-2.724-1.165h-6.138c-2.806 0-5.08 2.239-5.08 5v16c0 2.762 2.274 5 5.08 5h2.71c.56 0 1.016-.447 1.016-1 0-.552-.455-1-1.016-1h-2.71c-1.684 0-3.048-1.343-3.048-3v-16Zm15.498 3h-.934a.78.78 0 0 0-.015 0h-2.017c-.936 0-1.694-.746-1.694-1.666v-2.92l4.66 4.586Z"/></svg>