<svg xmlns="http://www.w3.org/2000/svg" width="32" height="32" fill="none" class="persona-icon" viewBox="0 0 32 32"><path fill="currentColor" fill-rule="evenodd" d="M22.303 15.288a1 1 0 0 1 1.399 0l1.628 1.595 2.279.023a1 1 0 0 1 .99.99l.023 2.279 1.595 1.628a1 1 0 0 1 0 1.4l-1.595 1.627-.024 2.279a1 1 0 0 1-.99.99l-2.278.023-1.628 1.595a1 1 0 0 1-1.4 0l-1.628-1.595-2.278-.023a1 1 0 0 1-.99-.99l-.024-2.279-1.594-1.628a1 1 0 0 1 0-1.4l1.594-1.627.024-2.28a1 1 0 0 1 .99-.989l2.278-.023zm.7 2.114-1.216 1.19a1 1 0 0 1-.69.286l-1.701.018-.018 1.701a1 1 0 0 1-.285.69l-1.191 1.215 1.19 1.216a1 1 0 0 1 .286.69l.018 1.7 1.701.018a1 1 0 0 1 .69.286l1.215 1.19 1.216-1.19a1 1 0 0 1 .69-.285l1.7-.018.018-1.702a1 1 0 0 1 .286-.689l1.19-1.216-1.19-1.215a1 1 0 0 1-.286-.69l-.017-1.701-1.702-.018a1 1 0 0 1-.69-.285zm2.642 3.08a1 1 0 0 1 .028 1.413l-2.5 2.6a1 1 0 0 1-1.465-.025l-1.4-1.56a1 1 0 0 1 1.488-1.335l.681.758 1.754-1.824a1 1 0 0 1 1.414-.027" clip-rule="evenodd"/><path fill="currentColor" fill-rule="evenodd" d="M7.535 8.002v16c0 1.657 1.364 3 3.048 3h2.71c.56 0 1.016.448 1.016 1 0 .553-.455 1-1.016 1h-2.71c-2.806 0-5.08-2.238-5.08-5v-16c0-2.761 2.274-5 5.08-5h6.138c1.033 0 2.02.422 2.724 1.165l6.784 7.153c.276.291.35.716.189 1.081a1.02 1.02 0 0 1-.932.601h-5.419c-2.058 0-3.726-1.641-3.726-3.666V5.002h-5.758c-1.684 0-3.048 1.344-3.048 3m15.498 3-4.66-4.585v2.919c0 .92.758 1.667 1.694 1.667h2.966" clip-rule="evenodd"/></svg>