<svg xmlns="http://www.w3.org/2000/svg" width="32" height="32" fill="none" class="persona-icon"><path fill="currentColor" d="M10.482 3.64c.134-.38.514-.638.943-.638h11.268c.317 0 .615.142.802.383.187.24.24.55.142.832l-2.875 8.315h4.748c.387 0 .74.211.901.54a.882.882 0 0 1-.148.993l-13.38 14.613a1.04 1.04 0 0 1-1.186.232c-.406-.184-.628-.6-.542-1.014l1.882-9.06H6.495c-.319 0-.618-.142-.805-.384a.88.88 0 0 1-.138-.835l4.93-13.977Zm1.66 1.22L7.867 16.98h6.375c.296 0 .577.124.765.338a.885.885 0 0 1 .209.767L13.82 24.8l9.532-10.41h-3.954c-.318 0-.616-.142-.803-.382a.88.88 0 0 1-.142-.832l2.875-8.316h-9.186Z"/></svg>