<svg xmlns="http://www.w3.org/2000/svg" width="40" height="40" fill="none" class="persona-ilustration" viewBox="0 0 40 40"><g clip-path="url(#oTkEnPGjDESwyU5e87pj2x8OIxGcAE8rG-Kpk7BcTys_a)"><g clip-path="url(#oTkEnPGjDESwyU5e87pj2x8OIxGcAE8rG-Kpk7BcTys_b)"><rect width="33.333" height="33.333" x="3.333" y="3.333" fill="#D3EDFF" rx="16.667"/><path fill="#212121" d="M-5.277-7.634s-.846-7.919 4.998-7.545c11.253.719 6.448 11.728 6.033 17.232-.431 5.7 3.964 11.212 3.964 11.212l-10.765 4.081-6.438-23.05z"/><path fill="#000" fill-opacity=".2" d="M-5.277-7.634s-.846-7.919 4.998-7.545c11.253.719 6.448 11.728 6.033 17.232-.431 5.7 3.964 11.212 3.964 11.212l-10.765 4.081-6.438-23.05z" style="mix-blend-mode:darken"/><mask id="oTkEnPGjDESwyU5e87pj2x8OIxGcAE8rG-Kpk7BcTys_c" width="34" height="40" x="-16" y="11" maskUnits="userSpaceOnUse" style="mask-type:alpha"><path fill="#000" d="M4.293 12.319s3.669-2.232 9.087.893 4.906 9.463 3.985 14.266c-.92 4.802-6.12 20.205-6.12 20.205s-13.652 4.468-20.59 1.87c-2.125-.793 0-3.51-2.299-7.32-6.707-11.112-2.997-19.657 4.99-24.566 2.04-1.254 10.947-5.348 10.947-5.348"/></mask><g mask="url(#oTkEnPGjDESwyU5e87pj2x8OIxGcAE8rG-Kpk7BcTys_c)"><path fill="#A4A1E0" d="M4.293 12.32s3.669-2.232 9.087.893 4.906 9.463 3.985 14.266c-.92 4.802-6.12 20.205-6.12 20.205s-13.652 4.468-20.59 1.87c-2.125-.794 0-3.51-2.299-7.32-6.707-11.112-2.997-19.657 4.99-24.566 2.04-1.253 10.947-5.348 10.947-5.348"/><path fill="#5141BA" d="M13.426 9.496S24.223 37.633-3.326 41.93c-5.713.893 19.108 1.453 19.108 1.453l4.25-22.496-6.606-11.388z" opacity=".5" style="mix-blend-mode:darken"/></g><mask id="oTkEnPGjDESwyU5e87pj2x8OIxGcAE8rG-Kpk7BcTys_d" width="13" height="19" x="-8" y="-1" maskUnits="userSpaceOnUse" style="mask-type:alpha"><path fill="#000" d="M-7.77 9.047s3.519 3.999 3.967 7.26c.442 3.2 8.096-3.988 8.096-3.988S3.958 8.39.543 1.25C-2.87-5.888-7.771 9.047-7.771 9.047z"/></mask><g mask="url(#oTkEnPGjDESwyU5e87pj2x8OIxGcAE8rG-Kpk7BcTys_d)"><path fill="#FCDCD2" d="M-7.77 9.047s3.519 3.999 3.968 7.26c.44 3.2 8.095-3.988 8.095-3.988S3.96 8.39.543 1.25C-2.87-5.888-7.771 9.047-7.771 9.047z"/></g><path fill="#FFF0F0" d="M-3.328 18.245s5.76-5.296 7.62-5.927 1.789-.776 2.51-.773-1.985 3.324-5.273 4.29c1.604 4.56-4.857 4.766-4.857 2.407z"/><path fill="#FCDCD2" d="m-3.328 18.245 7.621-5.927s-7.67 3.213-8.127 3.859c-.456.646.509 2.068.509 2.068z"/></g><path fill="#A4A1E0" d="M10.83 12.064s18.63 11.487 22.093 18.78-8.222 7.071-8.222 7.071S8.76 28.657 8.304 23.642s2.525-11.578 2.525-11.578"/><path fill="#A4A1E0" d="M33.566 32.33s-4.815-9.766-11.476-6.22c-2.335 1.246-4.287 7.663-2.89 9.801.799 1.227 5.503 2.006 5.503 2.006s9.219.685 8.863-5.587"/><path fill="#5141BA" d="M33.566 32.33s-4.815-9.766-11.476-6.22c-2.335 1.246-4.287 7.663-2.89 9.801.799 1.227 5.503 2.006 5.503 2.006s9.219.685 8.863-5.587" opacity=".5" style="mix-blend-mode:darken"/><path fill="#A4A1E0" d="M22.949 37.133c3.105 0 5.623-2.378 5.623-5.312 0-2.933-2.518-5.311-5.623-5.311s-5.623 2.378-5.623 5.311c0 2.934 2.518 5.312 5.623 5.312"/><path fill="#5141BA" d="M22.949 37.133c3.105 0 5.622-2.378 5.622-5.311 0-2.934-2.517-5.312-5.622-5.312s-5.623 2.378-5.623 5.312c0 2.933 2.517 5.311 5.623 5.311" opacity=".5" style="mix-blend-mode:darken"/><path fill="#FCDCD2" d="m18.286 33.824 2.909 3.044s4.39.993 6.022-1.591 1.152-2.377 1.188-4.5c.037-2.122-10.12 3.047-10.12 3.047"/><path fill="#000" fill-opacity=".5" d="m18.286 33.824 2.909 3.044s4.39.993 6.022-1.591 1.152-2.377 1.188-4.5c.037-2.122-10.12 3.047-10.12 3.047" style="mix-blend-mode:overlay"/><path fill="#FCDCD2" d="M11.812 23.819c.21-2.071-1.248-4.476-.95-5.159s2.079.265 2.079.265.202 1.113.345 2.218c.166 1.272.389 2.787.389 2.787l.719 5.031s7.478-.358 10.062-2.851c1.25-1.207 2.392-.408 3.236.742 1.092 1.487 1.17 3.882-.405 4.842-4.697 2.862-7.501 3.16-9.782 2.779-1.996-.332-3.389-1.866-4.24-3.39-.75-1.338-1.692-4.924-1.456-7.264zM28.75 22.562c.493-.163 1.336 1.253.916 2.774-.42 1.52-1.435 1.822-1.964 1.243-.53-.579-.628-3.462 1.048-4.017"/><path fill="#000" fill-opacity=".3" d="M28.75 22.562c.493-.163 1.336 1.253.916 2.774-.42 1.52-1.435 1.822-1.964 1.243-.53-.579-.628-3.462 1.048-4.017" style="mix-blend-mode:darken"/><path fill="#FCDCD2" d="M28.13 18.259c.493-.163 1.336 1.253.916 2.774-.42 1.52-1.435 1.821-1.965 1.243-.529-.579-.628-3.462 1.049-4.017"/><path fill="#000" fill-opacity=".3" d="M28.13 18.259c.493-.163 1.336 1.253.916 2.774-.42 1.52-1.435 1.821-1.965 1.243-.529-.579-.628-3.462 1.049-4.017" style="mix-blend-mode:darken"/><path fill="#FCDCD2" d="M26.643 14.126c.517-.229 2.055.682 1.767 2.35s-1.352 2.1-1.99 1.54c-.638-.561-1.53-3.117.223-3.89"/><path fill="#000" fill-opacity=".3" d="M26.643 14.126c.517-.229 2.055.682 1.767 2.35s-1.352 2.1-1.99 1.54c-.638-.561-1.53-3.117.223-3.89" style="mix-blend-mode:darken"/><path fill="#2B2B2B" d="M24.259 5.378 11.982 7.18a.76.76 0 0 0-.64.86l3.6 24.52c.06.413.445.7.86.64l12.276-1.803c.414-.06.7-.445.64-.86l-3.6-24.52a.76.76 0 0 0-.86-.639"/><path fill="#FFF3F3" d="M23.706 6.04 12.669 7.66a.76.76 0 0 0-.64.86l3.41 23.23c.06.415.446.701.86.64l11.036-1.62c.414-.06.7-.445.64-.86l-3.41-23.23a.76.76 0 0 0-.86-.64"/><path fill="#2E2E2E" d="M17.337 7.538c-.38-.344-.73-.37-1.085-.414l1.905-.342.13 1.03c-.258.032-.57.071-.95-.274"/><path fill="#2E2E2E" d="M19.042 7.285c.264-.44.59-.568.917-.711l-1.922.225.175 1.023c.256-.044.566-.097.83-.537"/><mask id="oTkEnPGjDESwyU5e87pj2x8OIxGcAE8rG-Kpk7BcTys_e" width="8" height="8" x="15" y="11" maskUnits="userSpaceOnUse" style="mask-type:alpha"><path fill="#39B54A" d="M19.266 18.772a3.612 3.612 0 1 0 0-7.224 3.612 3.612 0 0 0 0 7.224"/></mask><g mask="url(#oTkEnPGjDESwyU5e87pj2x8OIxGcAE8rG-Kpk7BcTys_e)"><path fill="#39B54A" d="M19.266 18.772a3.612 3.612 0 1 0 0-7.224 3.612 3.612 0 0 0 0 7.224"/><path fill="#FFF0F0" d="M19.012 15.476a1.507 1.507 0 1 0 0-3.015 1.507 1.507 0 0 0 0 3.015M19.78 22.062a2.974 2.974 0 1 0 0-5.947 2.974 2.974 0 0 0 0 5.947"/></g><path fill="#39B54A" fill-rule="evenodd" d="M24.889 19.944a.52.52 0 0 1-.44.588l-8.448 1.222a.52.52 0 0 1-.149-1.027l8.449-1.223a.52.52 0 0 1 .588.44M25.276 22.152a.52.52 0 0 1-.44.588l-8.448 1.222a.52.52 0 0 1-.149-1.027l8.449-1.223a.52.52 0 0 1 .588.44M25.65 24.6a.52.52 0 0 1-.44.588l-8.448 1.223a.519.519 0 0 1-.15-1.028l8.45-1.222a.52.52 0 0 1 .587.44" clip-rule="evenodd"/><path fill="#FCDCD2" d="M26.607 13.455c.433-.283 1.951.353 1.93 1.946-.023 1.593-.923 2.143-1.577 1.707-.654-.433-1.824-2.693-.353-3.653M27.357 17.661c.516-.228 2.055.683 1.767 2.351s-1.352 2.1-1.99 1.539c-.639-.56-1.531-3.117.223-3.89M28.146 22.117c.493-.164 1.697 1.014 1.627 2.592-.08 1.845-1.671 1.575-2.2.996-.53-.578-1.103-3.036.573-3.588"/><mask id="oTkEnPGjDESwyU5e87pj2x8OIxGcAE8rG-Kpk7BcTys_f" width="12" height="12" x="27" y="1" maskUnits="userSpaceOnUse" style="mask-type:alpha"><path fill="#009444" d="M33.025 12.448a5.667 5.667 0 1 0 0-11.333 5.667 5.667 0 0 0 0 11.333"/></mask><g mask="url(#oTkEnPGjDESwyU5e87pj2x8OIxGcAE8rG-Kpk7BcTys_f)"><path fill="#239842" d="M33.025 12.448a5.667 5.667 0 1 0 0-11.333 5.667 5.667 0 0 0 0 11.333"/><path fill="#38BA58" d="M31.683 11.142a5.667 5.667 0 1 0 0-11.333 5.667 5.667 0 0 0 0 11.333"/><path stroke="#F8F8F8" stroke-linecap="round" stroke-linejoin="round" stroke-width="2.122" d="m30.673 6.377 1.836 1.837 2.867-2.866"/></g></g><defs><clipPath id="oTkEnPGjDESwyU5e87pj2x8OIxGcAE8rG-Kpk7BcTys_a"><path fill="#fff" d="M0 0h40v40H0z"/></clipPath><clipPath id="oTkEnPGjDESwyU5e87pj2x8OIxGcAE8rG-Kpk7BcTys_b"><rect width="33.333" height="33.333" x="3.333" y="3.333" fill="#fff" rx="16.667"/></clipPath></defs></svg>