<svg xmlns="http://www.w3.org/2000/svg" width="150" height="150" fill="none" class="persona-ilustration" viewBox="0 0 150 150"><g clip-path="url(#x26mAksfCga55IZ1IEXemigohL9y6oCZhcjquAUlaMw_a)"><g clip-path="url(#x26mAksfCga55IZ1IEXemigohL9y6oCZhcjquAUlaMw_b)"><rect width="125" height="125" x="12.5" y="12.5" fill="#D3EDFF" rx="62.5"/><path fill="#212121" d="M60.25 41.99s-1.63-15.26 9.63-14.54c21.685 1.384 12.425 22.6 11.625 33.204-.83 10.985 7.64 21.606 7.64 21.606L68.4 90.124 55.995 45.71z"/><path fill="#000" fill-opacity=".2" d="M60.25 41.99s-1.63-15.26 9.63-14.54c21.685 1.384 12.425 22.6 11.625 33.204-.83 10.985 7.64 21.606 7.64 21.606L68.4 90.124 55.995 45.71z" style="mix-blend-mode:darken"/><path fill="#F5A7A3" d="M60.43 30.52s9.37.274 10.31 15.144c2.89 1.935 2.18-.535 2.18-.535s2.21-10.185-6.355-14.58c-7.5-3.845-6.13-.035-6.13-.035z"/><mask id="x26mAksfCga55IZ1IEXemigohL9y6oCZhcjquAUlaMw_c" width="64" height="76" x="41" y="78" maskUnits="userSpaceOnUse" style="mask-type:alpha"><path fill="#000" d="M78.69 80.438s7.07-4.3 17.51 1.72 9.455 18.235 7.68 27.49-11.795 38.935-11.795 38.935-26.305 8.61-39.675 3.605c-4.095-1.53 0-6.765-4.43-14.105-12.925-21.415-5.775-37.88 9.615-47.34 3.93-2.415 21.095-10.305 21.095-10.305"/></mask><g mask="url(#x26mAksfCga55IZ1IEXemigohL9y6oCZhcjquAUlaMw_c)"><path fill="#A4A1E0" d="M78.69 80.44s7.07-4.3 17.51 1.72 9.455 18.235 7.68 27.49-11.795 38.935-11.795 38.935-26.305 8.61-39.675 3.605c-4.095-1.53 0-6.765-4.43-14.105-12.925-21.415-5.775-37.88 9.615-47.34 3.93-2.416 21.095-10.306 21.095-10.306"/><path fill="#5141BA" d="M96.29 74.999s20.805 54.22-32.28 62.5c-11.01 1.72 36.82 2.8 36.82 2.8l8.19-43.35-12.73-21.945z" opacity=".5" style="mix-blend-mode:darken"/></g></g><path fill="#A4A1E0" d="M57.6 90.746S21.745 110.3 18.96 120.57s10.02 13.335 10.02 13.335 25.22-12.62 28.62-20.505c3.395-7.89 0-22.65 0-22.65z"/><mask id="x26mAksfCga55IZ1IEXemigohL9y6oCZhcjquAUlaMw_d" width="24" height="35" x="55" y="55" maskUnits="userSpaceOnUse" style="mask-type:alpha"><path fill="#000" d="M55.445 74.135s6.78 7.705 7.645 13.99c.85 6.165 15.6-7.685 15.6-7.685s-.645-7.575-7.225-21.33S55.44 74.135 55.44 74.135z"/></mask><g mask="url(#x26mAksfCga55IZ1IEXemigohL9y6oCZhcjquAUlaMw_d)"><path fill="#FCDCD2" d="M55.446 74.135s6.78 7.705 7.645 13.99c.85 6.165 15.6-7.685 15.6-7.685s-.645-7.575-7.225-21.33S55.44 74.135 55.44 74.135z"/><path fill="#000" fill-opacity=".5" d="M73.245 60.691s2.885 14.86-2.7 20.405-15.1 4.34-15.1 4.34l12.92-27.315z" style="mix-blend-mode:overlay"/></g><path fill="#FCDCD2" d="M38.385 38.42c-4.71 5.606-8.21 14.566-1.575 28.086 4.58 9.335 5.4 14.185 19.745 17.07 7.04 1.415 16.26-11.125 14.65-20.01-1.875-10.345 2.02-19.065-4.09-25.35-5.075-5.22-20.57-9.51-28.735.2z"/><path fill="#FCDCD2" d="M68.294 50.075s6.19-5.52 7.96-.995c1.77 4.52-.53 13.41-3.98 11.955s-3.98-3.81-3.98-3.81z"/><path fill="#000" fill-opacity=".5" d="M72.259 52.545s1.32.025.64 2.855-2.53 1.985-2.505 1.035-.22-3.02 1.865-3.89" style="mix-blend-mode:overlay"/><path fill="#411917" fill-rule="evenodd" d="M73.554 49.779a.5.5 0 0 1-.124.696c-1.78 1.24-2.454 2.781-2.692 4.01q-.051.27-.078.519c.57-.69 1.48-1.426 2.737-1.343a.5.5 0 1 1-.066.997c-.818-.054-1.465.435-1.948 1.043a5.2 5.2 0 0 0-.7 1.183l-.006.017-.001.002a.5.5 0 0 1-.956-.072l.489-.107-.489.107v-.003l-.001-.004-.003-.013a2 2 0 0 1-.032-.193 6 6 0 0 1-.052-.534 7.4 7.4 0 0 1 .125-1.789c.277-1.437 1.071-3.226 3.1-4.64a.5.5 0 0 1 .697.124" clip-rule="evenodd"/><path fill="#411917" d="M52.025 50.32c-2.42.525-5.135 1.095-7.085 2.69-.895.72-1.99-.595-1.12-1.345 2.435-1.605 5.295-1.92 8.11-2.28.605-.04.695.855.095.94zM52 57.812c.782-.322 1.067-1.427.638-2.469-.43-1.041-1.41-1.625-2.192-1.303-.781.322-1.066 1.428-.637 2.47.43 1.041 1.41 1.624 2.192 1.302"/><path fill="#411917" fill-rule="evenodd" d="M55.195 52.65a.5.5 0 0 1 .11.699l-1.13 1.555a.5.5 0 0 1-.603.165h-.001l-.009-.005-.041-.016-.17-.063a7 7 0 0 0-.636-.185c-.537-.128-1.248-.23-1.98-.143-.726.085-1.462.353-2.084.955-.623.604-1.174 1.584-1.453 3.17a.5.5 0 0 1-.985-.174c.306-1.737.931-2.929 1.742-3.714.813-.787 1.77-1.125 2.663-1.23.888-.105 1.724.019 2.33.163.255.061.473.127.64.183l.908-1.25a.5.5 0 0 1 .699-.11" clip-rule="evenodd"/><path fill="#411917" d="M33.79 61.05c.38-1.684.795-3.434 1.92-4.774.47-.56 1.24-1.25 1.91-.475.35.44.18 1.12-.335 1.345-.45.245-.91.705-1.205 1.14-.56.92-1.045 1.98-1.38 2.985-.17.55-1.015.345-.915-.22zM41.352 63.88c.517-.34.468-1.326-.108-2.203s-1.463-1.312-1.98-.972-.468 1.326.108 2.203 1.463 1.312 1.98.972"/><path fill="#411917" fill-rule="evenodd" d="m42.46 61.021-.248.43za.5.5 0 0 1-.498.867l-.01-.005-.035-.02-.149-.075a6 6 0 0 0-.545-.234c-.461-.172-1.051-.33-1.63-.318-.569.011-1.102.182-1.52.643-.427.472-.795 1.315-.878 2.794a.5.5 0 0 1-.998-.056c.09-1.606.497-2.705 1.136-3.41.648-.715 1.473-.956 2.24-.97.756-.016 1.48.186 2 .38a7 7 0 0 1 .866.393l.015.008.004.002.002.001" clip-rule="evenodd"/><path fill="#000" fill-opacity=".5" d="M50.075 67.936s.535-.855-.165-.945-2.25.475-2.89.885c-1.16.755-1.75 2.5-.98 2.375s1.735-.255 4.035-2.315" style="mix-blend-mode:overlay"/><path fill="#411917" d="M44.435 62.295s2.14 4.55 2.5 7.045z"/><path fill="#411917" fill-rule="evenodd" d="M44.222 61.843a.5.5 0 0 1 .666.24l-.453.212.453-.213.006.014.019.04a32 32 0 0 1 .32.706c.207.47.489 1.122.781 1.854.58 1.448 1.226 3.26 1.416 4.573a.5.5 0 0 1-.99.142c-.17-1.181-.773-2.892-1.354-4.343a55 55 0 0 0-1.08-2.51l-.018-.038-.005-.012" clip-rule="evenodd"/><mask id="x26mAksfCga55IZ1IEXemigohL9y6oCZhcjquAUlaMw_e" width="9" height="9" x="51" y="68" maskUnits="userSpaceOnUse" style="mask-type:alpha"><path fill="#000" d="M52.235 75.545a1.075 1.075 0 0 1 .22-1.59c1.415-.935 4.15-2.865 5.105-4.355 1.315-2.045 2.625-.62 2.35 1.64s-2.2 4.81-4.67 5.165c-1.74.25-2.455-.205-3.01-.86z"/></mask><g mask="url(#x26mAksfCga55IZ1IEXemigohL9y6oCZhcjquAUlaMw_e)"><path fill="#411917" d="M52.236 75.544a1.075 1.075 0 0 1 .22-1.59c1.415-.935 4.15-2.865 5.105-4.355 1.315-2.045 2.625-.62 2.35 1.64s-2.2 4.81-4.67 5.165c-1.74.25-2.455-.205-3.01-.86z"/><path fill="#F26764" d="M53.736 76.395s5.245 1.29 10.53-4.105-6.725.97-6.725.97-4.995 1.485-3.805 3.135"/></g><path fill="#212121" d="M36 41.52s4.305 3.86 16.39 2.835c8.15-.69 15.265 5.69 17.735 4.33s3.24-1.545 3.24-1.545-1.82-10.09-6.295-13.98c-4.48-3.895-13.28-5.89-19.385-4.98-4.84.72-11.905 8.69-11.685 13.34"/><path fill="#212121" d="M38.445 42.05s-2.45 8.015-4.68 13.875c-1 2.63-3.99-5.46-2.955-10.665 2.05-10.285 8.685-10.785 9.985-11.315 2.655-1.09-2.13 5.795-2.35 8.105"/><path fill="#A4A1E0" d="M91.286 79.95s35.9 22.135 42.575 36.19-15.845 13.625-15.845 13.625-30.716-17.84-31.595-27.505c-.88-9.665 4.864-22.31 4.864-22.31"/><path fill="#A4A1E0" d="M135.1 119s-9.28-18.82-22.115-11.985c-4.5 2.4-8.26 14.765-5.57 18.885 1.54 2.365 10.605 3.865 10.605 3.865s17.765 1.32 17.08-10.765"/><path fill="#5141BA" d="M135.1 119s-9.28-18.82-22.115-11.985c-4.5 2.4-8.26 14.765-5.57 18.885 1.54 2.365 10.605 3.865 10.605 3.865s17.765 1.32 17.08-10.765" opacity=".5" style="mix-blend-mode:darken"/><path fill="#A4A1E0" d="M114.641 128.255c5.984 0 10.835-4.582 10.835-10.235s-4.851-10.235-10.835-10.235-10.835 4.583-10.835 10.235c0 5.653 4.851 10.235 10.835 10.235"/><path fill="#5141BA" d="M114.64 128.256c5.984 0 10.835-4.583 10.835-10.235 0-5.653-4.851-10.235-10.835-10.235s-10.835 4.582-10.835 10.235 4.851 10.235 10.835 10.235" opacity=".5" style="mix-blend-mode:darken"/><path fill="#FCDCD2" d="m105.655 121.88 5.605 5.865s8.46 1.915 11.605-3.065 2.22-4.58 2.29-8.67-19.5 5.87-19.5 5.87"/><path fill="#000" fill-opacity=".5" d="m105.655 121.88 5.605 5.865s8.46 1.915 11.605-3.065 2.22-4.58 2.29-8.67-19.5 5.87-19.5 5.87" style="mix-blend-mode:overlay"/><path fill="#FCDCD2" d="M93.18 102.599c.405-3.99-2.405-8.625-1.83-9.94s4.005.51 4.005.51.39 2.145.665 4.275c.32 2.45.75 5.37.75 5.37l1.385 9.695s14.41-.69 19.39-5.495c2.41-2.325 4.61-.785 6.235 1.43 2.105 2.865 2.255 7.48-.78 9.33-9.05 5.515-14.455 6.09-18.85 5.355-3.845-.64-6.53-3.595-8.17-6.53-1.445-2.58-3.26-9.49-2.805-14zM125.819 100.176c.95-.315 2.575 2.415 1.765 5.345s-2.765 3.51-3.785 2.395-1.21-6.67 2.02-7.74"/><path fill="#000" fill-opacity=".3" d="M125.819 100.176c.95-.315 2.575 2.415 1.765 5.345s-2.765 3.51-3.785 2.395-1.21-6.67 2.02-7.74" style="mix-blend-mode:darken"/><path fill="#FCDCD2" d="M124.625 91.885c.95-.315 2.575 2.415 1.765 5.345s-2.765 3.51-3.785 2.395-1.21-6.67 2.02-7.74"/><path fill="#000" fill-opacity=".3" d="M124.625 91.885c.95-.315 2.575 2.415 1.765 5.345s-2.765 3.51-3.785 2.395-1.21-6.67 2.02-7.74" style="mix-blend-mode:darken"/><path fill="#FCDCD2" d="M121.76 83.92c.995-.44 3.96 1.316 3.405 4.53-.555 3.216-2.605 4.046-3.835 2.966s-2.95-6.005.43-7.495"/><path fill="#000" fill-opacity=".3" d="M121.76 83.92c.995-.44 3.96 1.316 3.405 4.53-.555 3.216-2.605 4.046-3.835 2.966s-2.95-6.005.43-7.495" style="mix-blend-mode:darken"/><path fill="#2B2B2B" d="m117.164 67.067-23.656 3.472a1.46 1.46 0 0 0-1.233 1.656l6.935 47.249c.117.798.859 1.35 1.657 1.232l23.656-3.472a1.46 1.46 0 0 0 1.233-1.656l-6.935-47.249a1.46 1.46 0 0 0-1.657-1.233"/><path fill="#FFF3F3" d="m116.099 68.34-21.268 3.122A1.46 1.46 0 0 0 93.6 73.12l6.57 44.765a1.46 1.46 0 0 0 1.657 1.233l21.267-3.122a1.46 1.46 0 0 0 1.233-1.656l-6.571-44.766a1.46 1.46 0 0 0-1.656-1.232"/><path fill="#2E2E2E" d="M103.826 71.227c-.732-.664-1.407-.715-2.089-.798l3.67-.66.249 1.984c-.496.063-1.097.138-1.83-.526"/><path fill="#2E2E2E" d="M107.112 70.74c.508-.849 1.138-1.094 1.767-1.37l-3.703.433.338 1.971c.493-.084 1.09-.187 1.598-1.035"/><mask id="x26mAksfCga55IZ1IEXemigohL9y6oCZhcjquAUlaMw_f" width="15" height="15" x="100" y="78" maskUnits="userSpaceOnUse" style="mask-type:alpha"><path fill="#39B54A" d="M107.544 92.872a6.96 6.96 0 1 0 0-13.92 6.96 6.96 0 0 0 0 13.92"/></mask><g mask="url(#x26mAksfCga55IZ1IEXemigohL9y6oCZhcjquAUlaMw_f)"><path fill="#39B54A" d="M107.544 92.872a6.96 6.96 0 1 0 0-13.92 6.96 6.96 0 0 0 0 13.92"/><path fill="#FFF0F0" d="M107.055 86.522a2.905 2.905 0 1 0 0-5.81 2.905 2.905 0 0 0 0 5.81M108.535 99.212a5.73 5.73 0 1 0 0-11.46 5.73 5.73 0 0 0 0 11.46"/></g><path fill="#39B54A" fill-rule="evenodd" d="M118.379 95.131a1 1 0 0 1-.846 1.133l-16.28 2.355a1 1 0 0 1-.287-1.98l16.28-2.354a1 1 0 0 1 1.133.846M119.124 99.387a1 1 0 0 1-.846 1.133l-16.28 2.355a1 1 0 0 1-.287-1.98l16.28-2.355a1 1 0 0 1 1.133.847M119.845 104.106a1 1 0 0 1-.847 1.133l-16.28 2.355a1 1 0 1 1-.286-1.98l16.28-2.355c.546-.079 1.053.3 1.133.847" clip-rule="evenodd"/><path fill="#FCDCD2" d="M121.69 82.626c.835-.545 3.76.68 3.72 3.75-.045 3.07-1.78 4.13-3.04 3.29-1.26-.835-3.515-5.19-.68-7.04M123.135 90.731c.995-.44 3.96 1.315 3.405 4.53s-2.605 4.045-3.835 2.965-2.95-6.005.43-7.495M124.655 99.315c.95-.315 3.27 1.955 3.135 4.995-.155 3.555-3.22 3.035-4.24 1.92s-2.125-5.85 1.105-6.915"/><path fill="#FFF0F0" d="M64.005 91.859s11.1-10.205 14.685-11.42 3.445-1.495 4.835-1.49-3.825 6.405-10.16 8.265c3.09 8.79-9.36 9.185-9.36 4.64z"/><path fill="#FFF0F0" d="m63.03 87.875.98 3.984s-4.955 7.06-4.9.88c.02-2.29 2.29-3.035 2.29-3.035L60.8 89z"/><path fill="#FFF0F0" d="M63.555 90.02s-4.73 18.506-2.55 18.506c3.41 0 3.95-12.236 4.82-18.4-1.79 2.024-2.265-.106-2.265-.106z"/><path fill="#FCDCD2" d="M64.005 91.86 78.69 80.44s-14.78 6.19-15.66 7.435.98 3.985.98 3.985z"/><path fill="#A4A1E0" d="M41.526 105.519s5.815-4.15 7.825 11.49c1.685 13.105-1.42 14.705-3.57 15.775-1.825.91-6.945-2.245-6.945-2.245l-4.58-18.21 7.27-6.805z"/><path fill="#4C39B0" d="M41.526 105.519s5.815-4.15 7.825 11.49c1.685 13.105-1.42 14.705-3.57 15.775-1.825.91-6.945-2.245-6.945-2.245l-4.58-18.21 7.27-6.805z" opacity=".5" style="mix-blend-mode:darken"/><path fill="#FCDCD2" d="M48.456 105.811c6.54-7.885 5.623-10.383 5.876-15.22 0-1.739.696-2.53 2.276-1.96 1.367.492 2.595 3.189 2.593 4.964-.005 3.006-1.109 7.048-1.109 7.048l-9.631 5.166z"/><path fill="#000" fill-opacity=".5" d="M48.456 105.81c6.54-7.885 5.623-10.383 5.876-15.22 0-1.74.696-2.53 2.276-1.961 1.367.492 2.595 3.19 2.593 4.964-.005 3.007-1.109 7.048-1.109 7.048l-9.631 5.167z" style="mix-blend-mode:overlay"/><path fill="#FCDCD2" d="M29.84 112.325s14.336-8.95 18.14-9.825c1.956 9.11-.834 19.82-.834 19.82s-6.96 3.5-12.89 6.97c-6.36 3.72-4.415-16.965-4.415-16.965"/><path fill="#FCDCD2" d="m45.56 103.558 13.497-3.211 2.028 21.423-15.545 1.13s-4.015-6.772.02-19.342"/><mask id="x26mAksfCga55IZ1IEXemigohL9y6oCZhcjquAUlaMw_g" width="26" height="9" x="46" y="100" maskUnits="userSpaceOnUse" style="mask-type:alpha"><path fill="#000" d="M47.397 102.647s7.085-2.238 14.355-2.503c6.04-.22 6.612-.001 8.285.004 1.925-.085 1.88 2.54 1.88 2.54s-.34 2.065-1.46 2.43c-.97.315-2.185.346-8.305.816-7.44.57-15.495 2.92-15.495 2.92l.24-5.969z"/></mask><g mask="url(#x26mAksfCga55IZ1IEXemigohL9y6oCZhcjquAUlaMw_g)"><path fill="#FCDCD2" d="M47.317 102.669s7.165-2.256 14.435-2.521c6.04-.22 6.73.071 8.304.001 1.925-.085 1.88 2.54 1.88 2.54s-.34 2.065-1.46 2.43c-.97.315-2.204.349-8.324.819-7.44.57-15.495 2.92-15.495 2.92l.206-6.03z"/><path fill="#FCDCD2" d="M59.107 99.374s4.46 2.205 2.764 4.45c-1.695 2.245-3.705 3.285-3.705 3.285l17.43-3.075 1.23-4.115-2.204-1.67-15.52 1.125z"/><path fill="#000" fill-opacity=".5" d="M59.107 99.374s4.46 2.205 2.764 4.45c-1.695 2.245-3.705 3.285-3.705 3.285l17.43-3.075 1.23-4.115-2.204-1.67-15.52 1.125z" style="mix-blend-mode:overlay"/><path fill="#000" fill-opacity=".5" d="M59.987 106.008s1.525-1.62 3.32-1.52c9.645.535 11.625-1.17 11.625-1.17l-1.095 1.9z" style="mix-blend-mode:overlay"/></g><mask id="x26mAksfCga55IZ1IEXemigohL9y6oCZhcjquAUlaMw_h" width="26" height="10" x="48" y="105" maskUnits="userSpaceOnUse" style="mask-type:alpha"><path fill="#FCDCD2" d="M48.6 107.781s7.585-2.155 14.855-2.42c6.04-.22 6.3.07 7.875 0 1.925-.085 1.88 2.54 1.88 2.54s-.34 2.065-1.46 2.43c-.97.315-1.775.35-7.895.82-7.44.57-15.495 2.92-15.495 2.92l.235-6.295z"/></mask><g mask="url(#x26mAksfCga55IZ1IEXemigohL9y6oCZhcjquAUlaMw_h)"><path fill="#FCDCD2" d="M48.747 107.563s7.81-2.205 15.294-2.476c6.219-.226 6.402.071 8.023-.001 1.982-.087 1.936 2.599 1.936 2.599s-.35 2.114-1.503 2.487c-.999.323-1.743.359-8.044.84C56.793 111.595 48.5 114 48.5 114l.242-6.442z"/><path fill="#000" fill-opacity=".5" d="M60.81 104.586s4.46 2.205 2.765 4.45-3.705 3.285-3.705 3.285L77.5 109.5l1.03-4.369-2.205-1.67-15.52 1.125z" style="mix-blend-mode:overlay"/><path fill="#000" fill-opacity=".5" d="M61.69 111.22s1.525-1.62 3.32-1.52c9.645.535 11.625-1.17 11.625-1.17l-1.095 1.9z" style="mix-blend-mode:overlay"/></g><mask id="x26mAksfCga55IZ1IEXemigohL9y6oCZhcjquAUlaMw_i" width="17" height="8" x="55" y="114" maskUnits="userSpaceOnUse" style="mask-type:alpha"><path fill="#FCDCD2" d="M55.445 117.231s-2.145-1.94 5.125-2.2c6.04-.22 7.89-.155 9.465-.15 2.215.005 1.34 3.22 1.34 3.22s0 1.06-1.61 1.655c-.955.355-2.56 1.55-8.68 2.02-7.44.57-5.095-2.425-5.095-2.425l-.55-2.12z"/></mask><g mask="url(#x26mAksfCga55IZ1IEXemigohL9y6oCZhcjquAUlaMw_i)"><path fill="#FCDCD2" d="M55.445 117.229s-2.145-1.94 5.125-2.2c6.04-.22 7.934-.175 9.509-.17 2.215.005 1.34 3.22 1.34 3.22s0 1.06-1.61 1.655c-.955.355-2.604 1.57-8.724 2.04-7.44.57-5.095-2.425-5.095-2.425l-.55-2.12z"/><path fill="#000" fill-opacity=".5" d="M61.54 114.705s7.065 1.525 1.87 7.325c-2.36 2.64 7.82-1.29 7.82-1.29l4.83-3.07-2.525-4.71-11.995 1.75z" style="mix-blend-mode:overlay"/><path fill="#000" fill-opacity=".5" d="m75.845 117.556-12.935 4.915s1.84-1.971 3.09-2.221" style="mix-blend-mode:overlay"/></g><mask id="x26mAksfCga55IZ1IEXemigohL9y6oCZhcjquAUlaMw_j" width="27" height="10" x="47" y="110" maskUnits="userSpaceOnUse" style="mask-type:alpha"><path fill="#FCDCD2" d="M47.69 113.066s7.585-2.155 14.855-2.42c6.04-.22 7.532-.163 9.107-.228 2.425-.095 1.8 2.535 1.8 2.535s.235 2.025-2.065 2.34c-1.01.14-2.322.673-8.442 1.143-7.44.57-15.495 2.921-15.495 2.921l.235-6.296z"/></mask><g mask="url(#x26mAksfCga55IZ1IEXemigohL9y6oCZhcjquAUlaMw_j)"><path fill="#FCDCD2" d="M47.745 112.775s7.743-2.304 15.163-2.588c6.166-.235 6.974-.182 9.266-.181 2.476-.102 1.716 2.892 1.716 2.892s.24 2.165-2.107 2.502c-1.031.15-2.22.475-8.466.978-7.595.609-15.817 3.122-15.817 3.122l.24-6.731z"/><path fill="#000" fill-opacity=".5" d="M62.08 110.665c.15-.23 4.46 1.6 2.526 4.46-1.52 2.245-3.345 3.27-3.345 3.27l15.79-3.01 1.1-4.11-2.005-1.675z" style="mix-blend-mode:overlay"/><path fill="#000" fill-opacity=".5" d="M63.606 116.404s.86-1.34 3.46-1.38 10.844-1.195 10.844-1.195l-2.53 2.575z" style="mix-blend-mode:overlay"/></g><path fill="#000" fill-opacity=".5" fill-rule="evenodd" d="M43.396 108.133a.5.5 0 0 1 .406.578c-.695 3.967-.078 7.214.71 9.468.394 1.127.831 2.005 1.167 2.599a11 11 0 0 0 .524.836l.028.039.006.009.001.001a.5.5 0 1 1-.797.604l.399-.302-.399.302v-.001l-.001-.001-.004-.004-.01-.015-.038-.051-.132-.193a12 12 0 0 1-.447-.732 17 17 0 0 1-1.24-2.761c-.834-2.384-1.482-5.806-.752-9.97a.5.5 0 0 1 .579-.406" clip-rule="evenodd" style="mix-blend-mode:overlay"/><path fill="#5141BA" fill-rule="evenodd" d="m41.394 105.73-.001.001-.01.008-.047.037-.185.16a10 10 0 0 0-.668.656 13 13 0 0 0-1.897 2.655c-1.277 2.355-2.291 5.903-1.173 10.666a.5.5 0 1 1-.973.228c-1.181-5.027-.113-8.826 1.267-11.371a14 14 0 0 1 1.376-2.082 114 114 0 0 0-4.834 2.166c-3.863 1.844-8.331 4.279-10.943 6.695a.5.5 0 1 1-.679-.734c2.733-2.529 7.327-5.019 11.191-6.863a114 114 0 0 1 6.947-3.029l.11-.043.027-.011.01-.003.18.466-.18-.467a.5.5 0 0 1 .482.865" clip-rule="evenodd" opacity=".5" style="mix-blend-mode:darken"/><path fill="#A4A1E0" d="M18.88 123.495s-3.275-7.665 22.645-17.98c-7.615 7.095-4.51 16.7-.735 22.415 1.935 2.93 4.05 4.835 4.99 4.85-2.42 1.42-12.765 3.39-12.765 3.39s-6.95 1.16-11.105-3.4c-.87-.955-1.62-2.165-2.155-3.69s-.855-3.365-.875-5.585"/><mask id="x26mAksfCga55IZ1IEXemigohL9y6oCZhcjquAUlaMw_k" width="28" height="32" x="18" y="105" maskUnits="userSpaceOnUse" style="mask-type:alpha"><path fill="#000" d="M18.88 123.494s-3.275-7.665 22.645-17.98c-7.615 7.095-4.51 16.7-.735 22.415 1.935 2.93 4.05 4.835 4.99 4.85-2.42 1.42-12.765 3.39-12.765 3.39s-6.95 1.16-11.105-3.4c-.87-.955-1.62-2.165-2.155-3.69s-.855-3.365-.875-5.585"/></mask><g mask="url(#x26mAksfCga55IZ1IEXemigohL9y6oCZhcjquAUlaMw_k)"><path fill="#5141BA" d="M14.476 128.419s13.045 6.31 27.5 0 4.525 8.405 4.525 8.405l-21.915 1.885-10.115-10.29z" opacity=".5" style="mix-blend-mode:darken"/></g><mask id="x26mAksfCga55IZ1IEXemigohL9y6oCZhcjquAUlaMw_l" width="43" height="43" x="93" y="14" maskUnits="userSpaceOnUse" style="mask-type:alpha"><path fill="#009444" d="M114.625 56.687c11.736 0 21.25-9.514 21.25-21.25s-9.514-21.25-21.25-21.25-21.25 9.514-21.25 21.25 9.513 21.25 21.25 21.25"/></mask><g mask="url(#x26mAksfCga55IZ1IEXemigohL9y6oCZhcjquAUlaMw_l)"><path fill="#239842" d="M114.625 56.687c11.736 0 21.25-9.514 21.25-21.25s-9.514-21.25-21.25-21.25-21.25 9.514-21.25 21.25 9.513 21.25 21.25 21.25"/><path fill="#38BA58" d="M109.59 51.792c11.736 0 21.25-9.514 21.25-21.25s-9.514-21.25-21.25-21.25-21.25 9.513-21.25 21.25 9.514 21.25 21.25 21.25"/><path fill="#F8F8F8" fill-rule="evenodd" d="M126.257 27.246a3.98 3.98 0 0 1-.002 5.628l-10.754 10.749a3.98 3.98 0 0 1-5.628-.002l-6.885-6.89a3.98 3.98 0 0 1 5.63-5.625l4.071 4.074 7.94-7.936a3.98 3.98 0 0 1 5.628.002" clip-rule="evenodd"/></g></g><defs><clipPath id="x26mAksfCga55IZ1IEXemigohL9y6oCZhcjquAUlaMw_a"><path fill="#fff" d="M0 0h150v150H0z"/></clipPath><clipPath id="x26mAksfCga55IZ1IEXemigohL9y6oCZhcjquAUlaMw_b"><rect width="125" height="125" x="12.5" y="12.5" fill="#fff" rx="62.5"/></clipPath></defs></svg>