<svg xmlns="http://www.w3.org/2000/svg" width="240" height="240" fill="none" class="persona-ilustration" viewBox="0 0 240 240"><g clip-path="url(#2VPDNJnu3N8QY3b2JlEuR1Bt5_Qa76rE9T4i2BOSIQs_a)"><g clip-path="url(#2VPDNJnu3N8QY3b2JlEuR1Bt5_Qa76rE9T4i2BOSIQs_b)"><rect width="200" height="200" x="20" y="20" fill="#D3EDFF" rx="100"/><path fill="#82C2F1" d="M119.558 98.195v-5.187h106.244v5.187zM119.558 141.972v-5.186h106.244v5.186zM119.558 185.753v-5.187h106.244v5.187z"/><path fill="#AADBFF" d="M119.559 76.515h5.186v125.729h-5.186zM192.987 149.22h6.845v31.629h-6.845zM200.705 149.22h6.846v31.629h-6.846zM208.423 149.22h6.846v31.628h-6.846z"/><path fill="#82C2F1" d="m154.402 107.166 6.463-2.254 10.415 29.865-6.463 2.254z"/><path fill="#AADBFF" d="M130.971 105.157h6.846v31.629h-6.846zM138.781 105.157h6.846v31.629h-6.846zM146.592 105.157h6.845v31.629h-6.845z"/><path fill="#82C2F1" d="M186.383 119.49h27.216v17.296h-27.216z"/><path fill="#AADBFF" d="M183.603 119.49h32.775v4.88h-32.775zM166.031 163.824c4.028 2.681 6.373 9.78 7.041 12.994-2.723-1.505-8.698-5.229-10.819-8.086-2.65-3.571-1.257-8.26 3.778-4.908"/><path fill="#AADBFF" d="M176.052 162.008c1.616 4.561-.765 11.647-2.157 14.62-1.277-2.837-3.826-9.4-3.81-12.958.021-4.447 3.947-7.364 5.967-1.662"/><path fill="#AADBFF" d="M184.345 164.715c-.605 4.801-5.915 10.063-8.494 12.094.134-3.108.804-10.117 2.416-13.288 2.016-3.964 6.835-4.807 6.078 1.194"/><path fill="#AADBFF" d="M183.323 173.529c-.509 2.434-2.635 7.302-7.064 7.303h-5.886c-4.429 0-6.555-4.869-7.064-7.303zM148.993 156.939c-.354 7.964-1.829 23.892-4.904 23.892h-4.086c-3.074 0-4.55-15.928-4.903-23.892zM24.6 77.6h66v101.632h-66z"/><path fill="#AADBFF" d="M29.839 82.47h55.523v28.66H29.839z"/><path fill="#82C2F1" fill-rule="evenodd" d="M83.362 84.47H31.839v24.66h51.523zm-53.523-2v28.66h55.523V82.47z" clip-rule="evenodd"/><path fill="#AADBFF" d="M29.839 114.086h55.523v28.659H29.839z"/><path fill="#82C2F1" fill-rule="evenodd" d="M83.362 116.086H31.839v24.659h51.523zm-53.523-2v28.659h55.523v-28.659z" clip-rule="evenodd"/><path fill="#AADBFF" d="M29.839 145.703h55.523v28.659H29.839z"/><path fill="#82C2F1" fill-rule="evenodd" d="M83.362 147.703H31.839v24.659h51.523zm-53.523-2v28.659h55.523v-28.659z" clip-rule="evenodd"/><path fill="#82C2F1" d="M51.37 88.386c0-.732.594-1.325 1.326-1.325h9.808a1.326 1.326 0 0 1 0 2.651h-9.808a1.326 1.326 0 0 1-1.326-1.326M51.37 119.609c0-.733.594-1.326 1.326-1.326h9.808a1.326 1.326 0 1 1 0 2.652h-9.808a1.326 1.326 0 0 1-1.326-1.326M51.37 151.641c0-.732.594-1.326 1.326-1.326h9.808a1.326 1.326 0 0 1 0 2.652h-9.808a1.326 1.326 0 0 1-1.326-1.326"/><path fill="#212121" d="M96.4 67.183s-2.608-24.416 15.408-23.264c34.696 2.216 19.88 36.16 18.6 53.128-1.328 17.576 12.224 34.568 12.224 34.568l-33.192 12.584-19.848-71.064z"/><path fill="#000" fill-opacity=".2" d="M96.4 67.183s-2.608-24.416 15.408-23.264c34.696 2.216 19.88 36.16 18.6 53.128-1.328 17.576 12.224 34.568 12.224 34.568l-33.192 12.584-19.848-71.064z" style="mix-blend-mode:darken"/><path fill="#F5A7A3" d="M96.688 48.83s14.992.44 16.496 24.233c4.624 3.096 3.488-.856 3.488-.856s3.536-16.296-10.168-23.328c-12-6.152-9.808-.056-9.808-.056z"/><mask id="2VPDNJnu3N8QY3b2JlEuR1Bt5_Qa76rE9T4i2BOSIQs_c" width="102" height="121" x="66" y="126" maskUnits="userSpaceOnUse" style="mask-type:alpha"><path fill="#000" d="M125.904 128.701s11.312-6.88 28.016 2.752 15.128 29.176 12.288 43.984-18.872 62.296-18.872 62.296-42.088 13.776-63.48 5.768c-6.552-2.448 0-10.824-7.088-22.568-20.68-34.264-9.24-60.608 15.384-75.744 6.288-3.864 33.752-16.488 33.752-16.488"/></mask><g mask="url(#2VPDNJnu3N8QY3b2JlEuR1Bt5_Qa76rE9T4i2BOSIQs_c)"><path fill="#A4A1E0" d="M125.904 128.703s11.312-6.88 28.016 2.752 15.128 29.176 12.288 43.984-18.872 62.296-18.872 62.296-42.088 13.776-63.48 5.768c-6.552-2.448 0-10.824-7.088-22.568-20.68-34.264-9.24-60.608 15.384-75.744 6.288-3.864 33.752-16.488 33.752-16.488"/><path fill="#5141BA" d="M154.064 119.999s33.288 86.752-51.648 100c-17.616 2.752 58.912 4.48 58.912 4.48l13.104-69.36-20.368-35.112z" opacity=".5" style="mix-blend-mode:darken"/></g></g><path fill="#A4A1E0" d="M92.16 145.193s-57.367 31.288-61.823 47.72 16.031 21.336 16.031 21.336 40.353-20.192 45.793-32.808c5.432-12.624 0-36.24 0-36.24z"/><mask id="2VPDNJnu3N8QY3b2JlEuR1Bt5_Qa76rE9T4i2BOSIQs_d" width="38" height="56" x="88" y="88" maskUnits="userSpaceOnUse" style="mask-type:alpha"><path fill="#000" d="M88.712 118.617s10.848 12.328 12.232 22.384c1.36 9.864 24.96-12.296 24.96-12.296s-1.032-12.12-11.56-34.129c-10.528-22.007-25.64 24.041-25.64 24.041z"/></mask><g mask="url(#2VPDNJnu3N8QY3b2JlEuR1Bt5_Qa76rE9T4i2BOSIQs_d)"><path fill="#FCDCD2" d="M88.713 118.617s10.848 12.328 12.232 22.384c1.36 9.864 24.96-12.296 24.96-12.296s-1.032-12.12-11.56-34.129c-10.528-22.007-25.64 24.041-25.64 24.041z"/><path fill="#000" fill-opacity=".5" d="M117.192 97.106s4.616 23.776-4.32 32.648-24.16 6.944-24.16 6.944l20.672-43.704z" style="mix-blend-mode:overlay"/></g><path fill="#FCDCD2" d="M61.416 61.473c-7.536 8.968-13.136 23.304-2.52 44.936 7.328 14.936 8.64 22.696 31.592 27.312 11.264 2.264 26.016-17.8 23.44-32.016-3-16.552 3.232-30.504-6.544-40.56-8.12-8.352-32.912-15.216-45.976.32z"/><path fill="#FCDCD2" d="M109.271 80.121s9.904-8.832 12.736-1.592c2.832 7.232-.848 21.456-6.368 19.128s-6.368-6.096-6.368-6.096z"/><path fill="#000" fill-opacity=".5" d="M115.615 84.072s2.112.04 1.024 4.568-4.048 3.176-4.008 1.656-.352-4.832 2.984-6.224" style="mix-blend-mode:overlay"/><path fill="#411917" fill-rule="evenodd" d="M117.687 79.646a.8.8 0 0 1-.199 1.114c-2.848 1.984-3.926 4.45-4.306 6.416q-.083.433-.125.83c.911-1.103 2.367-2.282 4.378-2.149a.8.8 0 0 1-.105 1.597c-1.309-.087-2.345.695-3.117 1.667a8.3 8.3 0 0 0-1.069 1.775l-.05.118-.011.027-.001.004h-.001a.799.799 0 0 1-1.528-.115l.781-.17-.781.17-.001-.002v-.002l-.001-.007-.005-.02-.013-.069a9 9 0 0 1-.121-1.095 11.8 11.8 0 0 1 .199-2.862c.444-2.3 1.714-5.163 4.962-7.426a.8.8 0 0 1 1.114.199" clip-rule="evenodd"/><path fill="#411917" d="M83.24 80.512c-3.871.84-8.215 1.752-11.335 4.304-1.432 1.152-3.184-.952-1.792-2.152 3.896-2.568 8.472-3.072 12.976-3.648.968-.064 1.112 1.368.152 1.504zM83.202 92.5c1.25-.516 1.706-2.284 1.02-3.951-.688-1.667-2.258-2.6-3.508-2.085s-1.706 2.284-1.02 3.95c.688 1.667 2.258 2.6 3.508 2.085"/><path fill="#411917" fill-rule="evenodd" d="M88.31 84.24a.8.8 0 0 1 .178 1.118l-1.808 2.488a.8.8 0 0 1-.965.264h-.001v-.001l-.015-.006-.066-.027a10.515 10.515 0 0 0-1.289-.397c-.859-.204-1.996-.366-3.168-.228-1.162.137-2.34.565-3.335 1.529-.997.965-1.878 2.534-2.325 5.07a.8.8 0 1 1-1.575-.277c.49-2.78 1.49-4.686 2.787-5.943 1.3-1.258 2.831-1.8 4.261-1.968 1.42-.167 2.758.03 3.726.261.409.098.758.203 1.026.292l1.452-1.998a.8.8 0 0 1 1.118-.177" clip-rule="evenodd"/><path fill="#411917" d="M54.064 97.681c.608-2.696 1.272-5.496 3.072-7.64.752-.896 1.984-2 3.056-.76.56.704.288 1.792-.536 2.152-.72.392-1.456 1.128-1.928 1.824a24 24 0 0 0-2.208 4.776c-.272.88-1.624.552-1.464-.352zM66.163 102.208c.827-.543.75-2.121-.172-3.524s-2.34-2.1-3.167-1.556c-.827.543-.75 2.121.172 3.524s2.34 2.1 3.167 1.556"/><path fill="#411917" fill-rule="evenodd" d="m67.935 97.634-.396.688za.8.8 0 0 1-.797 1.387h-.001l-.014-.008-.058-.031a9.853 9.853 0 0 0-1.11-.495c-.737-.276-1.681-.528-2.608-.51-.91.018-1.762.292-2.43 1.03-.685.755-1.274 2.103-1.406 4.469a.8.8 0 0 1-1.598-.089c.144-2.57.796-4.328 1.818-5.455 1.038-1.145 2.357-1.53 3.584-1.554 1.21-.024 2.369.299 3.2.61a12 12 0 0 1 1.306.583l.08.044.023.013.008.004.002.001z" clip-rule="evenodd"/><path fill="#000" fill-opacity=".5" d="M80.12 108.698s.856-1.368-.264-1.512-3.6.76-4.623 1.416c-1.857 1.208-2.8 4-1.569 3.8 1.233-.2 2.776-.408 6.457-3.704" style="mix-blend-mode:overlay"/><path fill="#411917" d="M71.096 99.672s3.424 7.28 4 11.272z"/><path fill="#411917" fill-rule="evenodd" d="M70.756 98.948a.8.8 0 0 1 1.064.384l-.723.34.723-.34.011.023.03.063.111.242a89.42 89.42 0 0 1 1.651 3.854c.927 2.317 1.962 5.215 2.265 7.316a.8.8 0 0 1-1.583.229c-.273-1.891-1.238-4.629-2.167-6.951a89 89 0 0 0-1.729-4.016l-.027-.06-.01-.019" clip-rule="evenodd"/><mask id="2VPDNJnu3N8QY3b2JlEuR1Bt5_Qa76rE9T4i2BOSIQs_e" width="13" height="14" x="83" y="109" maskUnits="userSpaceOnUse" style="mask-type:alpha"><path fill="#000" d="M83.576 120.872a1.72 1.72 0 0 1 .352-2.544c2.264-1.496 6.64-4.584 8.168-6.968 2.104-3.272 4.2-.992 3.76 2.624s-3.52 7.696-7.472 8.264c-2.784.4-3.928-.328-4.816-1.376z"/></mask><g mask="url(#2VPDNJnu3N8QY3b2JlEuR1Bt5_Qa76rE9T4i2BOSIQs_e)"><path fill="#411917" d="M83.577 120.871a1.72 1.72 0 0 1 .352-2.544c2.264-1.496 6.64-4.584 8.168-6.968 2.104-3.272 4.2-.992 3.76 2.624s-3.52 7.696-7.472 8.264c-2.784.4-3.928-.328-4.816-1.376z"/><path fill="#F26764" d="M85.977 122.233s8.392 2.064 16.848-6.568-10.76 1.552-10.76 1.552-7.992 2.376-6.088 5.016"/></g><path fill="#212121" d="M57.6 66.433s6.888 6.176 26.224 4.536c13.04-1.104 24.424 9.104 28.376 6.928s5.184-2.472 5.184-2.472-2.912-16.144-10.072-22.368c-7.168-6.232-21.248-9.424-31.016-7.968C68.552 46.24 57.248 58.993 57.6 66.433"/><path fill="#212121" d="M61.513 67.28s-3.92 12.825-7.488 22.2c-1.6 4.209-6.384-8.735-4.728-17.063 3.28-16.456 13.896-17.256 15.976-18.104 4.248-1.744-3.408 9.272-3.76 12.968"/><path fill="#A4A1E0" d="M146.056 127.92s57.44 35.416 68.12 57.904-25.352 21.8-25.352 21.8-49.144-28.544-50.552-44.008 7.784-35.696 7.784-35.696"/><path fill="#A4A1E0" d="M216.159 190.4s-14.848-30.112-35.384-19.176c-7.2 3.84-13.216 23.624-8.912 30.216 2.464 3.784 16.968 6.184 16.968 6.184s28.424 2.112 27.328-17.224"/><path fill="#5141BA" d="M216.159 190.4s-14.848-30.112-35.384-19.176c-7.2 3.84-13.216 23.624-8.912 30.216 2.464 3.784 16.968 6.184 16.968 6.184s28.424 2.112 27.328-17.224" opacity=".5" style="mix-blend-mode:darken"/><path fill="#A4A1E0" d="M183.424 205.208c9.575 0 17.336-7.332 17.336-16.376s-7.761-16.376-17.336-16.376-17.336 7.332-17.336 16.376 7.762 16.376 17.336 16.376"/><path fill="#5141BA" d="M183.424 205.209c9.574 0 17.336-7.332 17.336-16.376s-7.762-16.376-17.336-16.376c-9.575 0-17.336 7.332-17.336 16.376s7.761 16.376 17.336 16.376" opacity=".5" style="mix-blend-mode:darken"/><path fill="#FCDCD2" d="m169.048 195.008 8.968 9.384s13.536 3.064 18.568-4.904 3.552-7.328 3.664-13.872-31.2 9.392-31.2 9.392"/><path fill="#000" fill-opacity=".5" d="m169.048 195.008 8.968 9.384s13.536 3.064 18.568-4.904 3.552-7.328 3.664-13.872-31.2 9.392-31.2 9.392" style="mix-blend-mode:overlay"/><path fill="#FCDCD2" d="M149.088 164.158c.648-6.384-3.848-13.8-2.928-15.904s6.408.816 6.408.816.624 3.432 1.064 6.84c.512 3.92 1.2 8.592 1.2 8.592l2.216 15.512s23.056-1.104 31.024-8.792c3.856-3.72 7.376-1.256 9.976 2.288 3.368 4.584 3.608 11.968-1.248 14.928-14.48 8.824-23.128 9.744-30.16 8.568-6.152-1.024-10.448-5.752-13.072-10.448-2.312-4.128-5.216-15.184-4.488-22.4zM201.311 160.282c1.52-.504 4.12 3.864 2.824 8.552s-4.424 5.616-6.056 3.832-1.936-10.672 3.232-12.384"/><path fill="#000" fill-opacity=".3" d="M201.311 160.282c1.52-.504 4.12 3.864 2.824 8.552s-4.424 5.616-6.056 3.832-1.936-10.672 3.232-12.384" style="mix-blend-mode:darken"/><path fill="#FCDCD2" d="M199.399 147.016c1.52-.504 4.12 3.864 2.824 8.552s-4.424 5.616-6.056 3.832-1.936-10.672 3.232-12.384"/><path fill="#000" fill-opacity=".3" d="M199.399 147.016c1.52-.504 4.12 3.864 2.824 8.552s-4.424 5.616-6.056 3.832-1.936-10.672 3.232-12.384" style="mix-blend-mode:darken"/><path fill="#FCDCD2" d="M194.816 134.273c1.592-.704 6.336 2.104 5.448 7.248s-4.168 6.472-6.136 4.744-4.72-9.608.688-11.992"/><path fill="#000" fill-opacity=".3" d="M194.816 134.273c1.592-.704 6.336 2.104 5.448 7.248s-4.168 6.472-6.136 4.744-4.72-9.608.688-11.992" style="mix-blend-mode:darken"/><path fill="#2B2B2B" d="m187.462 107.306-37.85 5.556a2.335 2.335 0 0 0-1.972 2.65l11.096 75.598a2.335 2.335 0 0 0 2.65 1.972l37.851-5.555a2.337 2.337 0 0 0 1.972-2.651l-11.096-75.598a2.337 2.337 0 0 0-2.651-1.972"/><path fill="#FFF3F3" d="m185.757 109.346-34.027 4.994a2.337 2.337 0 0 0-1.972 2.651l10.513 71.624a2.335 2.335 0 0 0 2.65 1.972l34.028-4.994a2.337 2.337 0 0 0 1.972-2.651l-10.513-71.624a2.336 2.336 0 0 0-2.651-1.972"/><path fill="#2E2E2E" d="M166.122 113.963c-1.173-1.062-2.251-1.144-3.343-1.276l5.872-1.057.398 3.175c-.794.1-1.755.221-2.927-.842"/><path fill="#2E2E2E" d="M171.379 113.183c.813-1.357 1.821-1.749 2.828-2.192l-5.926.694.541 3.154c.788-.135 1.744-.299 2.557-1.656"/><mask id="2VPDNJnu3N8QY3b2JlEuR1Bt5_Qa76rE9T4i2BOSIQs_f" width="24" height="23" x="160" y="126" maskUnits="userSpaceOnUse" style="mask-type:alpha"><path fill="#39B54A" d="M172.071 148.594c6.15 0 11.136-4.985 11.136-11.136s-4.986-11.136-11.136-11.136-11.136 4.986-11.136 11.136c0 6.151 4.986 11.136 11.136 11.136"/></mask><g mask="url(#2VPDNJnu3N8QY3b2JlEuR1Bt5_Qa76rE9T4i2BOSIQs_f)"><path fill="#39B54A" d="M172.071 148.594c6.15 0 11.136-4.985 11.136-11.136s-4.986-11.136-11.136-11.136-11.136 4.986-11.136 11.136c0 6.151 4.986 11.136 11.136 11.136"/><path fill="#FFF0F0" d="M171.288 138.435a4.648 4.648 0 1 0 0-9.296 4.648 4.648 0 0 0 0 9.296M173.656 158.739a9.168 9.168 0 1 0 0-18.337 9.168 9.168 0 0 0 0 18.337"/></g><path fill="#39B54A" fill-rule="evenodd" d="M189.406 152.21a1.6 1.6 0 0 1-1.354 1.813l-26.048 3.768a1.6 1.6 0 0 1-.458-3.167l26.048-3.768a1.6 1.6 0 0 1 1.812 1.354M190.599 159.019a1.6 1.6 0 0 1-1.355 1.812l-26.048 3.768a1.6 1.6 0 1 1-.458-3.167l26.048-3.768a1.6 1.6 0 0 1 1.813 1.355M191.751 166.569a1.6 1.6 0 0 1-1.354 1.813l-26.048 3.768a1.6 1.6 0 0 1-.459-3.167l26.048-3.768a1.6 1.6 0 0 1 1.813 1.354" clip-rule="evenodd"/><path fill="#FCDCD2" d="M194.703 132.201c1.336-.872 6.016 1.088 5.952 6-.072 4.912-2.848 6.608-4.864 5.264-2.016-1.336-5.624-8.304-1.088-11.264M197.015 145.17c1.592-.704 6.336 2.104 5.448 7.248s-4.168 6.472-6.136 4.744-4.72-9.608.688-11.992M199.448 158.904c1.52-.504 5.232 3.128 5.016 7.992-.248 5.688-5.152 4.856-6.784 3.072s-3.4-9.36 1.768-11.064"/><path fill="#FFF0F0" d="M102.407 146.974s17.76-16.328 23.496-18.272 5.512-2.392 7.736-2.384-6.12 10.248-16.256 13.224c4.944 14.064-14.976 14.696-14.976 7.424z"/><path fill="#FFF0F0" d="m100.848 140.6 1.568 6.376s-7.928 11.296-7.84 1.408c.032-3.664 3.664-4.856 3.664-4.856l-.96-1.128z"/><path fill="#FFF0F0" d="M101.687 144.033s-7.568 29.608-4.08 29.608c5.456 0 6.32-19.576 7.712-29.44-2.864 3.24-3.624-.168-3.624-.168z"/><path fill="#FCDCD2" d="m102.408 146.976 23.496-18.272s-23.648 9.904-25.056 11.896 1.568 6.376 1.568 6.376z"/><path fill="#A4A1E0" d="M66.44 168.831s9.305-6.64 12.52 18.384c2.697 20.968-2.271 23.528-5.711 25.24-2.92 1.456-11.112-3.592-11.112-3.592l-7.328-29.136 11.632-10.888z"/><path fill="#4C39B0" d="M66.44 168.831s9.305-6.64 12.52 18.384c2.697 20.968-2.271 23.528-5.711 25.24-2.92 1.456-11.112-3.592-11.112-3.592l-7.328-29.136 11.632-10.888z" opacity=".5" style="mix-blend-mode:darken"/><path fill="#FCDCD2" d="M77.53 169.298c10.463-12.616 8.995-16.613 9.4-24.353.001-2.782 1.114-4.047 3.643-3.137 2.188.788 4.151 5.103 4.149 7.944-.01 4.809-1.775 11.276-1.775 11.276l-15.41 8.267z"/><path fill="#000" fill-opacity=".5" d="M77.53 169.296c10.463-12.616 8.995-16.613 9.4-24.353.001-2.782 1.114-4.047 3.643-3.137 2.188.788 4.151 5.104 4.149 7.944-.01 4.809-1.775 11.276-1.775 11.276l-15.41 8.267z" style="mix-blend-mode:overlay"/><path fill="#FCDCD2" d="M47.744 179.721s22.936-14.32 29.024-15.72c3.128 14.576-1.336 31.712-1.336 31.712s-11.136 5.6-20.624 11.152c-10.176 5.952-7.064-27.144-7.064-27.144"/><path fill="#FCDCD2" d="m72.894 165.693 21.596-5.138 3.246 34.277-24.872 1.808s-6.426-10.835.03-30.947"/><mask id="2VPDNJnu3N8QY3b2JlEuR1Bt5_Qa76rE9T4i2BOSIQs_g" width="42" height="15" x="74" y="160" maskUnits="userSpaceOnUse" style="mask-type:alpha"><path fill="#000" d="M75.834 164.236s11.337-3.581 22.969-4.005c9.664-.352 10.579-.002 13.255.005 3.08-.136 3.008 4.064 3.008 4.064s-.544 3.304-2.336 3.888c-1.552.504-3.495.555-13.287 1.307-11.904.912-24.792 4.672-24.792 4.672l.384-9.551z"/></mask><g mask="url(#2VPDNJnu3N8QY3b2JlEuR1Bt5_Qa76rE9T4i2BOSIQs_g)"><path fill="#FCDCD2" d="M75.707 164.27s11.463-3.61 23.095-4.034c9.664-.352 10.767.114 13.287.002 3.08-.136 3.008 4.064 3.008 4.064s-.544 3.304-2.336 3.888c-1.552.504-3.527.558-13.319 1.31-11.904.912-24.792 4.672-24.792 4.672l.33-9.648z"/><path fill="#FCDCD2" d="M94.57 158.998s7.136 3.528 4.424 7.12-5.928 5.256-5.928 5.256l27.888-4.92 1.968-6.584-3.528-2.672-24.832 1.8z"/><path fill="#000" fill-opacity=".5" d="M94.57 158.998s7.136 3.528 4.424 7.12-5.928 5.256-5.928 5.256l27.888-4.92 1.968-6.584-3.528-2.672-24.832 1.8z" style="mix-blend-mode:overlay"/><path fill="#000" fill-opacity=".5" d="M95.978 169.614s2.44-2.592 5.312-2.432c15.432.856 18.6-1.872 18.6-1.872l-1.752 3.04z" style="mix-blend-mode:overlay"/></g><mask id="2VPDNJnu3N8QY3b2JlEuR1Bt5_Qa76rE9T4i2BOSIQs_h" width="41" height="15" x="77" y="168" maskUnits="userSpaceOnUse" style="mask-type:alpha"><path fill="#FCDCD2" d="M77.76 172.45s12.136-3.448 23.768-3.872c9.664-.352 10.079.111 12.599-.001 3.08-.136 3.008 4.064 3.008 4.064s-.544 3.304-2.336 3.888c-1.552.504-2.839.561-12.631 1.313-11.904.912-24.792 4.672-24.792 4.672l.376-10.072z"/></mask><g mask="url(#2VPDNJnu3N8QY3b2JlEuR1Bt5_Qa76rE9T4i2BOSIQs_h)"><path fill="#FCDCD2" d="M77.995 172.1s12.495-3.528 24.471-3.962c9.949-.361 10.242.113 12.837-.001 3.171-.139 3.097 4.159 3.097 4.159s-.56 3.381-2.405 3.979c-1.598.516-2.789.574-12.87 1.344-12.256.933-25.525 4.781-25.525 4.781l.387-10.308z"/><path fill="#000" fill-opacity=".5" d="M97.296 167.338s7.136 3.528 4.424 7.12-5.928 5.256-5.928 5.256L124 175.2l1.648-6.99-3.528-2.672-24.832 1.8z" style="mix-blend-mode:overlay"/><path fill="#000" fill-opacity=".5" d="M98.704 177.952s2.44-2.592 5.312-2.432c15.432.856 18.6-1.872 18.6-1.872l-1.752 3.04z" style="mix-blend-mode:overlay"/></g><mask id="2VPDNJnu3N8QY3b2JlEuR1Bt5_Qa76rE9T4i2BOSIQs_i" width="27" height="12" x="88" y="183" maskUnits="userSpaceOnUse" style="mask-type:alpha"><path fill="#FCDCD2" d="M88.711 187.57s-3.432-3.104 8.2-3.52c9.664-.352 12.624-.249 15.144-.241 3.544.008 2.144 5.152 2.144 5.152s0 1.696-2.576 2.648c-1.528.568-4.096 2.481-13.888 3.233-11.904.912-8.152-3.88-8.152-3.88l-.88-3.392z"/></mask><g mask="url(#2VPDNJnu3N8QY3b2JlEuR1Bt5_Qa76rE9T4i2BOSIQs_i)"><path fill="#FCDCD2" d="M88.712 187.567s-3.432-3.104 8.2-3.52c9.664-.352 12.694-.28 15.214-.272 3.544.008 2.144 5.152 2.144 5.152s0 1.696-2.576 2.648c-1.528.568-4.166 2.512-13.958 3.264-11.904.912-8.152-3.88-8.152-3.88l-.88-3.392z"/><path fill="#000" fill-opacity=".5" d="M98.464 183.528s11.304 2.44 2.992 11.72c-3.776 4.224 12.512-2.064 12.512-2.064l7.728-4.912-4.04-7.536-19.192 2.8z" style="mix-blend-mode:overlay"/><path fill="#000" fill-opacity=".5" d="m121.352 188.089-20.696 7.864s2.944-3.153 4.944-3.553" style="mix-blend-mode:overlay"/></g><mask id="2VPDNJnu3N8QY3b2JlEuR1Bt5_Qa76rE9T4i2BOSIQs_j" width="43" height="15" x="75" y="176" maskUnits="userSpaceOnUse" style="mask-type:alpha"><path fill="#FCDCD2" d="M76.304 180.906s12.136-3.448 23.768-3.872c9.664-.352 12.051-.262 14.571-.366 3.88-.152 2.88 4.056 2.88 4.056s.376 3.24-3.304 3.744c-1.616.224-3.715 1.078-13.507 1.83-11.904.912-24.792 4.672-24.792 4.672l.376-10.072z"/></mask><g mask="url(#2VPDNJnu3N8QY3b2JlEuR1Bt5_Qa76rE9T4i2BOSIQs_j)"><path fill="#FCDCD2" d="M76.392 180.44s12.388-3.687 24.261-4.14c9.864-.377 11.157-.292 14.825-.291 3.961-.163 2.746 4.628 2.746 4.628s.384 3.464-3.372 4.003c-1.65.239-3.551.761-13.546 1.565C89.156 187.18 76 191.2 76 191.2l.384-10.769z"/><path fill="#000" fill-opacity=".5" d="M99.328 177.064c.24-.368 7.136 2.56 4.04 7.136-2.432 3.592-5.352 5.232-5.352 5.232l25.264-4.816 1.76-6.576-3.208-2.68z" style="mix-blend-mode:overlay"/><path fill="#000" fill-opacity=".5" d="M101.77 186.247s1.374-2.144 5.534-2.208 17.352-1.912 17.352-1.912l-4.048 4.12z" style="mix-blend-mode:overlay"/></g><path fill="#000" fill-opacity=".5" fill-rule="evenodd" d="M69.433 173.012a.8.8 0 0 1 .65.926c-1.112 6.346-.124 11.543 1.136 15.148a25.7 25.7 0 0 0 1.867 4.158 17 17 0 0 0 .838 1.339l.045.063.01.013.001.001v.001a.8.8 0 0 1-1.274.967l.637-.484c-.637.484-.638.484-.638.483v-.001l-.002-.002-.005-.007-.017-.023-.06-.082q-.076-.107-.212-.308a19 19 0 0 1-.716-1.171 27.4 27.4 0 0 1-1.984-4.419c-1.334-3.814-2.37-9.29-1.202-15.952a.8.8 0 0 1 .926-.65" clip-rule="evenodd" style="mix-blend-mode:overlay"/><path fill="#5141BA" fill-rule="evenodd" d="m66.23 169.169-.002.001-.016.013-.074.059q-.102.083-.297.255c-.26.23-.63.58-1.068 1.05a21 21 0 0 0-3.036 4.248c-2.043 3.768-3.666 9.446-1.876 17.066a.8.8 0 1 1-1.558.366c-1.89-8.045-.18-14.123 2.028-18.195a23 23 0 0 1 2.202-3.331 181 181 0 0 0-7.735 3.466c-6.18 2.95-13.33 6.846-17.509 10.712a.8.8 0 0 1-1.086-1.175c4.373-4.046 11.723-8.03 17.905-10.981a182 182 0 0 1 10.446-4.582l.844-.333.045-.017.015-.006.288.747-.287-.747a.8.8 0 0 1 .772 1.383z" clip-rule="evenodd" opacity=".5" style="mix-blend-mode:darken"/><path fill="#A4A1E0" d="M30.208 197.591s-5.24-12.264 36.232-28.768c-12.184 11.352-7.216 26.72-1.176 35.864 3.096 4.688 6.48 7.736 7.984 7.76-3.872 2.272-20.424 5.424-20.424 5.424s-11.12 1.856-17.768-5.44c-1.392-1.528-2.592-3.464-3.448-5.904s-1.368-5.384-1.4-8.936"/><mask id="2VPDNJnu3N8QY3b2JlEuR1Bt5_Qa76rE9T4i2BOSIQs_k" width="45" height="51" x="29" y="168" maskUnits="userSpaceOnUse" style="mask-type:alpha"><path fill="#000" d="M30.208 197.59s-5.24-12.264 36.232-28.768c-12.184 11.352-7.216 26.72-1.176 35.864 3.096 4.688 6.48 7.736 7.984 7.76-3.872 2.272-20.424 5.424-20.424 5.424s-11.12 1.856-17.768-5.44c-1.392-1.528-2.592-3.464-3.448-5.904s-1.368-5.384-1.4-8.936"/></mask><g mask="url(#2VPDNJnu3N8QY3b2JlEuR1Bt5_Qa76rE9T4i2BOSIQs_k)"><path fill="#5141BA" d="M23.161 205.47s20.872 10.096 44 0 7.24 13.448 7.24 13.448l-35.064 3.016-16.184-16.464z" opacity=".5" style="mix-blend-mode:darken"/></g><mask id="2VPDNJnu3N8QY3b2JlEuR1Bt5_Qa76rE9T4i2BOSIQs_l" width="69" height="69" x="149" y="22" maskUnits="userSpaceOnUse" style="mask-type:alpha"><path fill="#009444" d="M183.399 90.698c18.778 0 34-15.222 34-34s-15.222-34-34-34-34 15.223-34 34 15.222 34 34 34"/></mask><g mask="url(#2VPDNJnu3N8QY3b2JlEuR1Bt5_Qa76rE9T4i2BOSIQs_l)"><path fill="#239842" d="M183.399 90.698c18.778 0 34-15.222 34-34s-15.222-34-34-34-34 15.223-34 34 15.222 34 34 34"/><path fill="#38BA58" d="M175.344 82.867c18.778 0 34-15.223 34-34s-15.222-34-34-34-34 15.222-34 34 15.223 34 34 34"/><path fill="#F8F8F8" fill-rule="evenodd" d="M202.01 43.593a6.367 6.367 0 0 1-.002 9.004l-17.207 17.2a6.366 6.366 0 0 1-9.005-.003L164.781 58.77a6.367 6.367 0 0 1 9.008-9.001l6.514 6.518 12.703-12.697a6.367 6.367 0 0 1 9.004.002" clip-rule="evenodd"/></g></g><defs><clipPath id="2VPDNJnu3N8QY3b2JlEuR1Bt5_Qa76rE9T4i2BOSIQs_a"><path fill="#fff" d="M0 0h240v240H0z"/></clipPath><clipPath id="2VPDNJnu3N8QY3b2JlEuR1Bt5_Qa76rE9T4i2BOSIQs_b"><rect width="200" height="200" x="20" y="20" fill="#fff" rx="100"/></clipPath></defs></svg>