<svg xmlns="http://www.w3.org/2000/svg" width="16" height="16" fill="none" class="persona-icon" viewBox="0 0 16 16"><path fill="currentColor" d="M3.722 2h1.834c.95 0 1.722.771 1.722 1.722v1.834c0 .95-.771 1.722-1.722 1.722H3.722A1.72 1.72 0 0 1 2 5.556V3.722C2 2.772 2.771 2 3.722 2M10.444 2h1.834C13.228 2 14 2.771 14 3.722v1.834c0 .95-.771 1.722-1.722 1.722h-1.834a1.72 1.72 0 0 1-1.722-1.722V3.722c0-.95.771-1.722 1.722-1.722M3.722 8.722h8.556c.95 0 1.722.771 1.722 1.723v1.833c0 .951-.771 1.722-1.722 1.722H3.722A1.72 1.72 0 0 1 2 12.278v-1.834c0-.95.771-1.722 1.722-1.722"/></svg>