<svg xmlns="http://www.w3.org/2000/svg" width="24" height="24" fill="none" class="persona-icon" viewBox="0 0 24 24"><path fill="currentColor" d="M5.583 3h2.75a2.583 2.583 0 0 1 2.584 2.583v2.75a2.583 2.583 0 0 1-2.584 2.584h-2.75A2.583 2.583 0 0 1 3 8.333v-2.75A2.583 2.583 0 0 1 5.583 3M15.667 3h2.75A2.583 2.583 0 0 1 21 5.583v2.75a2.583 2.583 0 0 1-2.583 2.584h-2.75a2.583 2.583 0 0 1-2.584-2.584v-2.75A2.583 2.583 0 0 1 15.667 3M5.583 13.083h12.834A2.583 2.583 0 0 1 21 15.667v2.75A2.583 2.583 0 0 1 18.417 21H5.583A2.583 2.583 0 0 1 3 18.417v-2.75a2.583 2.583 0 0 1 2.583-2.584"/></svg>