<svg xmlns="http://www.w3.org/2000/svg" width="32" height="32" fill="none" class="persona-icon" viewBox="0 0 32 32"><path fill="currentColor" d="M7.444 4A3.444 3.444 0 0 0 4 7.444v3.667a3.444 3.444 0 0 0 3.444 3.445h3.667a3.445 3.445 0 0 0 3.445-3.445V7.444A3.444 3.444 0 0 0 11.11 4zM20.889 4a3.444 3.444 0 0 0-3.445 3.444v3.667a3.444 3.444 0 0 0 3.445 3.445h3.666A3.445 3.445 0 0 0 28 11.11V7.444A3.444 3.444 0 0 0 24.555 4zM7.444 17.445A3.444 3.444 0 0 0 4 20.889v3.667A3.444 3.444 0 0 0 7.444 28h17.112A3.444 3.444 0 0 0 28 24.556v-3.667a3.444 3.444 0 0 0-3.444-3.444z"/></svg>