<svg xmlns="http://www.w3.org/2000/svg" width="20" height="20" fill="none" class="persona-icon" viewBox="0 0 20 20"><path fill="currentColor" fill-rule="evenodd" d="M6.097 5.288a2.1 2.1 0 0 1 1.689-.846h7.008c1.164 0 2.108.944 2.108 2.108v6.9a2.11 2.11 0 0 1-2.108 2.108H7.786c-.665 0-1.291-.313-1.69-.846l-2.577-3.45a2.11 2.11 0 0 1 0-2.524zm3.315 2.197a.575.575 0 0 0-.814.813L10.3 10l-1.702 1.702a.575.575 0 0 0 .814.813l1.701-1.702 1.702 1.702a.575.575 0 0 0 .813-.813L11.927 10l1.701-1.702a.575.575 0 0 0-.813-.813l-1.702 1.702z" clip-rule="evenodd"/></svg>