<svg xmlns="http://www.w3.org/2000/svg" width="32" height="32" fill="none" class="persona-icon" viewBox="0 0 32 32"><path fill="currentColor" fill-rule="evenodd" d="M9.21 7.805a3.67 3.67 0 0 1 2.936-1.472h12.188A3.667 3.667 0 0 1 28 10v12a3.667 3.667 0 0 1-3.666 3.667H12.146a3.67 3.67 0 0 1-2.937-1.472l-4.483-6a3.67 3.67 0 0 1 0-4.39zm5.764 3.821a1 1 0 0 0-1.414 1.414L16.52 16l-2.96 2.96a1 1 0 0 0 1.414 1.414l2.96-2.96 2.96 2.96a1 1 0 0 0 1.413-1.414L19.347 16l2.96-2.96a1 1 0 0 0-1.414-1.414l-2.96 2.96z" clip-rule="evenodd"/></svg>