<svg xmlns="http://www.w3.org/2000/svg" width="16" height="16" fill="none" class="persona-icon" viewBox="0 0 16 16"><path fill="currentColor" d="M8.002 1a.5.5 0 0 1 .5.5v1.697c1.124.126 2.165.62 2.762 1.147a.5.5 0 1 1-.662.75c-.433-.383-1.28-.8-2.216-.904-.914-.1-1.852.101-2.574.857-.284.36-.345.641-.326.85.02.219.138.447.37.677.478.473 1.313.819 2.016.932.57.092 1.435.317 2.196.7.73.37 1.53.969 1.669 1.886l.003.022c.018.18.02.405-.013.642-.107.747-.681 1.25-1.203 1.534a4.64 4.64 0 0 1-2.022.537V14.5a.5.5 0 1 1-1 0v-1.71a7 7 0 0 1-.486-.073 9 9 0 0 1-2.504-.874.5.5 0 0 1 .475-.88 8 8 0 0 0 2.21.77c.956.176 1.978.15 2.85-.322.4-.217.648-.505.69-.797.02-.141.02-.278.01-.383-.067-.399-.458-.792-1.13-1.131a7 7 0 0 0-1.904-.607c-.836-.135-1.889-.545-2.56-1.208-.342-.338-.614-.773-.662-1.296-.05-.53.14-1.066.553-1.583l.026-.03A3.8 3.8 0 0 1 7.502 3.19V1.5a.5.5 0 0 1 .5-.5"/></svg>