<svg xmlns="http://www.w3.org/2000/svg" width="32" height="32" fill="none" class="persona-icon" viewBox="0 0 32 32"><path fill="currentColor" d="M16.002 2a1 1 0 0 1 1 1v3.395c2.249.25 4.331 1.238 5.525 2.294a1 1 0 0 1-1.325 1.498c-.865-.765-2.559-1.599-4.43-1.806-1.828-.202-3.705.202-5.148 1.714-.693.878-.729 1.456-.626 1.832.12.443.516.93 1.26 1.427 1.493.998 3.75 1.636 5.201 2.043 1.17.327 2.72.879 3.95 1.776 1.245.909 2.307 2.297 2.054 4.23-.2 1.534-1.33 2.64-2.449 3.265-1.273.711-2.657 1.005-4.012 1.049V29a1 1 0 1 1-2 0v-3.384a15.04 15.04 0 0 1-.944-.152 18.657 18.657 0 0 1-5.035-1.778 1 1 0 1 1 .95-1.76c.849.458 2.542 1.204 4.464 1.574 1.935.373 3.96.34 5.602-.578.82-.457 1.354-1.11 1.441-1.778.121-.93-.327-1.681-1.25-2.355-.94-.686-2.218-1.16-3.31-1.467l-.084-.023c-1.391-.39-3.917-1.097-5.69-2.282-.905-.606-1.772-1.438-2.078-2.565-.324-1.19.046-2.424 1.02-3.639.016-.02.034-.041.052-.06 1.426-1.514 3.155-2.2 4.862-2.373V3a1 1 0 0 1 1-1"/></svg>