<svg xmlns="http://www.w3.org/2000/svg" width="16" height="16" fill="none" class="persona-icon" viewBox="0 0 16 16"><path fill="currentColor" fill-rule="evenodd" d="M4 4.142c0-.789.64-1.428 1.429-1.428h2.714v2.071c0 .986.8 1.786 1.786 1.786h2.467a.5.5 0 0 0 .46-.697 1.8 1.8 0 0 0-.336-.515L9.647 2.281a1.79 1.79 0 0 0-1.306-.567H5.43A2.43 2.43 0 0 0 3 4.142v7.715a2.43 2.43 0 0 0 2.429 2.428h1.308a.5.5 0 0 0 0-1H5.429c-.79 0-1.429-.64-1.429-1.428zm5.143.643V3.207L11.35 5.57H9.929a.786.786 0 0 1-.786-.786" clip-rule="evenodd"/><path fill="currentColor" fill-rule="evenodd" d="M14.372 10.927a3.44 3.44 0 1 0-6.88 0 3.44 3.44 0 0 0 6.88 0M10 10.753c0-.23.186-.417.416-.417h.516c.23 0 .417.187.417.417v1.302h.442a.417.417 0 0 1 0 .834h-1.718a.417.417 0 1 1 0-.834h.442v-.885h-.099a.417.417 0 0 1-.416-.417m.33-1.542a.503.503 0 1 1 1.005 0 .503.503 0 0 1-1.005 0" clip-rule="evenodd"/></svg>