<svg xmlns="http://www.w3.org/2000/svg" width="16" height="16" fill="none" class="persona-icon" viewBox="0 0 16 16"><path fill="currentColor" fill-rule="evenodd" d="M3.968 4c0-.828.65-1.5 1.451-1.5h2.742v2.167c0 1.012.795 1.833 1.774 1.833h2.581a.484.484 0 0 0 .444-.3.513.513 0 0 0-.09-.541L9.64 2.082A1.748 1.748 0 0 0 8.342 1.5H5.42C4.083 1.5 3 2.62 3 4v8c0 1.38 1.083 2.5 2.42 2.5h1.29a.492.492 0 0 0 .484-.5c0-.276-.217-.5-.484-.5H5.42c-.802 0-1.452-.672-1.452-1.5zm7.38 1.5H9.935a.82.82 0 0 1-.806-.833v-1.46z" clip-rule="evenodd"/><path fill="currentColor" fill-rule="evenodd" d="M10.5 7.5a3.5 3.5 0 1 1 0 7 3.5 3.5 0 0 1 0-7m-.525 2.9a.424.424 0 0 0 0 .847h.101v.9h-.45a.424.424 0 1 0 0 .849h1.748a.424.424 0 0 0 0-.848h-.45v-1.325a.424.424 0 0 0-.424-.424zm.424-1.658a.511.511 0 1 0 0 1.023.511.511 0 0 0 0-1.023" clip-rule="evenodd"/></svg>