<svg xmlns="http://www.w3.org/2000/svg" width="20" height="20" fill="none" class="persona-icon" viewBox="0 0 20 20"><path fill="currentColor" fill-rule="evenodd" d="M5.225 5.371c0-.933.756-1.689 1.69-1.689h3.232v2.46c0 1.198.97 2.169 2.167 2.169h2.961a.625.625 0 0 0 .575-.872 2.2 2.2 0 0 0-.408-.624L11.995 3.12a2.17 2.17 0 0 0-1.585-.689H6.914a2.94 2.94 0 0 0-2.939 2.94v9.257a2.94 2.94 0 0 0 2.94 2.939h1.57a.625.625 0 1 0 0-1.25h-1.57a1.69 1.69 0 0 1-1.69-1.69zm6.172.772v-1.83l2.565 2.748h-1.648a.92.92 0 0 1-.917-.918" clip-rule="evenodd"/><path fill="currentColor" fill-rule="evenodd" d="M17.735 13.565a4.128 4.128 0 1 0-8.256 0 4.128 4.128 0 0 0 8.256 0m-5.247-.208a.5.5 0 0 1 .5-.5h.619a.5.5 0 0 1 .5.5v1.562h.531a.5.5 0 1 1 0 1h-2.062a.5.5 0 0 1 0-1h.531v-1.062h-.119a.5.5 0 0 1-.5-.5m.396-1.851a.603.603 0 1 1 1.206 0 .603.603 0 0 1-1.206 0" clip-rule="evenodd"/></svg>