<svg xmlns="http://www.w3.org/2000/svg" width="24" height="24" fill="none" class="persona-icon" viewBox="0 0 24 24"><path fill="currentColor" fill-rule="evenodd" d="M5.556 5.833v12.334A2.333 2.333 0 0 0 7.889 20.5H9.98a.75.75 0 0 1 0 1.5H7.89a3.833 3.833 0 0 1-3.833-3.833V5.833A3.833 3.833 0 0 1 7.889 2h4.657c.777 0 1.52.323 2.05.891l4.594 4.922c.223.239.4.513.527.808a.75.75 0 0 1-.69 1.045h-3.944a2.806 2.806 0 0 1-2.805-2.805V3.5h-4.39a2.333 2.333 0 0 0-2.332 2.333m8.222 1.028c0 .721.584 1.305 1.305 1.305h2.385l-3.69-3.954z" clip-rule="evenodd"/><path fill="currentColor" fill-rule="evenodd" d="M22.306 16.75a5.5 5.5 0 1 1-11 0 5.5 5.5 0 0 1 11 0m-6.991-.278c0 .368.298.666.666.666h.158v1.416h-.708a.666.666 0 1 0 0 1.332h2.748a.666.666 0 1 0 0-1.332h-.707v-2.082a.666.666 0 0 0-.667-.666h-.824a.666.666 0 0 0-.666.666m.527-2.466a.804.804 0 1 0 1.608 0 .804.804 0 0 0-1.607 0" clip-rule="evenodd"/></svg>