<svg xmlns="http://www.w3.org/2000/svg" width="24" height="24" fill="none" class="persona-icon" viewBox="0 0 24 24"><path fill="currentColor" fill-rule="evenodd" d="M5.556 5.833A2.333 2.333 0 0 1 7.889 3.5h4.389v3.361a2.806 2.806 0 0 0 2.805 2.805h3.945a.75.75 0 0 0 .69-1.045 2.8 2.8 0 0 0-.528-.808L14.597 2.89A2.8 2.8 0 0 0 12.546 2H7.889a3.833 3.833 0 0 0-3.833 3.833v12.334A3.833 3.833 0 0 0 7.889 22H9.98a.75.75 0 0 0 0-1.5H7.89a2.333 2.333 0 0 1-2.333-2.333zm8.222 1.028V4.212l3.69 3.954h-2.385a1.306 1.306 0 0 1-1.305-1.305" clip-rule="evenodd"/><path fill="currentColor" fill-rule="evenodd" d="M22.187 16.68a5.5 5.5 0 1 0-11 0 5.5 5.5 0 0 0 11 0m-6.99-.279c0-.367.298-.666.666-.666h.824c.368 0 .666.299.666.666v2.082h.708a.666.666 0 0 1 0 1.332h-2.748a.666.666 0 0 1 0-1.332h.708v-1.416h-.158a.666.666 0 0 1-.666-.666m.527-2.466a.803.803 0 1 1 1.607 0 .803.803 0 0 1-1.607 0" clip-rule="evenodd"/></svg>