<svg xmlns="http://www.w3.org/2000/svg" width="32" height="32" fill="none" class="persona-icon" viewBox="0 0 32 32"><path fill="currentColor" fill-rule="evenodd" d="M10.857 5.429A2.857 2.857 0 0 0 8 8.285v15.428a2.857 2.857 0 0 0 2.857 2.857h2.617a1 1 0 0 1 0 2h-2.617A4.857 4.857 0 0 1 6 23.714V8.286a4.857 4.857 0 0 1 4.857-4.857h5.826c.99 0 1.935.41 2.61 1.134l5.747 6.157c.284.304.51.652.67 1.028a1 1 0 0 1-.918 1.395h-4.935a3.57 3.57 0 0 1-3.571-3.572V5.43zm7.429 4.142c0 .868.703 1.572 1.571 1.572H22.7l-4.413-4.728z" clip-rule="evenodd"/><path fill="currentColor" fill-rule="evenodd" d="M28.892 21.942a6.88 6.88 0 1 1-13.76 0 6.88 6.88 0 0 1 13.76 0m-8.745-.348c0 .46.373.833.833.833h.198v1.771h-.886a.833.833 0 0 0 0 1.667h3.438a.833.833 0 0 0 0-1.667h-.885v-2.604a.833.833 0 0 0-.834-.833H20.98a.833.833 0 0 0-.833.833m.66-3.085a1.005 1.005 0 1 0 2.01 0 1.005 1.005 0 0 0-2.01 0" clip-rule="evenodd"/></svg>