<svg xmlns="http://www.w3.org/2000/svg" width="32" height="32" fill="none" class="persona-icon" viewBox="0 0 32 32"><path fill="currentColor" fill-rule="evenodd" d="M8 8.285a2.857 2.857 0 0 1 2.857-2.857h5.429v4.143a3.57 3.57 0 0 0 3.571 3.572h4.908a1 1 0 0 0 .945-1.394 3.6 3.6 0 0 0-.67-1.03l-5.747-6.156a3.57 3.57 0 0 0-2.61-1.135h-5.826A4.857 4.857 0 0 0 6 8.285v15.429a4.857 4.857 0 0 0 4.857 4.857h2.617a1 1 0 1 0 0-2h-2.617A2.857 2.857 0 0 1 8 23.714zm10.286 1.286V6.414l4.413 4.729h-2.842a1.57 1.57 0 0 1-1.571-1.572" clip-rule="evenodd"/><path fill="currentColor" fill-rule="evenodd" d="M28.744 21.854a6.88 6.88 0 1 0-13.76 0 6.88 6.88 0 0 0 13.76 0m-8.745-.348c0-.46.373-.833.833-.833h1.031c.46 0 .834.373.834.833v2.604h.885a.833.833 0 0 1 0 1.667h-3.437a.833.833 0 0 1 0-1.667h.885v-1.77h-.198a.833.833 0 0 1-.833-.834m.66-3.085a1.005 1.005 0 1 1 2.01 0 1.005 1.005 0 0 1-2.01 0" clip-rule="evenodd"/></svg>