<svg xmlns="http://www.w3.org/2000/svg" width="16" height="16" fill="none" class="persona-icon" viewBox="0 0 16 16"><path fill="currentColor" fill-rule="evenodd" d="M8.459 1.539a.49.49 0 0 1 .545.11l5.85 5.99a.52.52 0 0 1 0 .723l-5.85 5.988a.49.49 0 0 1-.545.111.51.51 0 0 1-.309-.473v-2.836c-.657-.035-1.644-.067-2.732.282-1.132.363-2.4 1.146-3.502 2.838a.494.494 0 0 1-.56.206.51.51 0 0 1-.356-.49c0-3.61 1.364-5.918 3.027-7.315C5.436 5.489 7.039 4.976 8.15 4.856V2.012c0-.207.122-.394.309-.473m.691 1.708V5.34a.52.52 0 0 1-.146.361.5.5 0 0 1-.354.15c-.867 0-2.54.396-3.989 1.614-1.18.992-2.231 2.546-2.557 4.932.977-1.039 2.027-1.622 3.015-1.939 1.323-.424 2.506-.359 3.172-.322h.01c.155.009.266.015.349.015.133 0 .26.053.354.15a.52.52 0 0 1 .146.361v2.092L13.793 8z" clip-rule="evenodd"/></svg>