<svg xmlns="http://www.w3.org/2000/svg" width="32" height="32" fill="none" class="persona-icon" viewBox="0 0 32 32"><path fill="currentColor" fill-rule="evenodd" d="M16.917 3.575a1.01 1.01 0 0 1 1.09.213l11.7 11.516a.973.973 0 0 1 0 1.392l-11.7 11.516a1.01 1.01 0 0 1-1.09.213.98.98 0 0 1-.617-.91v-5.453c-1.314-.067-3.287-.129-5.465.542-2.262.698-4.799 2.204-7.003 5.458-.244.36-.7.521-1.122.396a.99.99 0 0 1-.71-.942c0-6.941 2.729-11.382 6.053-14.068 2.818-2.278 6.026-3.264 8.247-3.495V4.484c0-.398.244-.757.617-.909M18.3 6.861v4.02a.98.98 0 0 1-.293.697 1 1 0 0 1-.707.288c-1.733 0-5.08.762-7.978 3.103-2.362 1.909-4.463 4.897-5.114 9.486 1.954-1.999 4.055-3.12 6.03-3.73 2.646-.815 5.013-.69 6.344-.62l.02.001c.31.016.532.028.698.028.265 0 .52.104.707.288a.98.98 0 0 1 .293.696v4.022L27.586 16z" clip-rule="evenodd"/></svg>