<svg xmlns="http://www.w3.org/2000/svg" width="32" height="32" fill="none" class="persona-icon" viewBox="0 0 32 32"><path fill="currentColor" fill-rule="evenodd" d="M16.742 4.066a1 1 0 0 1 1.101.265l9.9 11a1 1 0 0 1 0 1.338l-9.9 11A1 1 0 0 1 16.1 27v-5.642c-1.105-.054-2.687-.077-4.424.467-1.882.589-4 1.863-5.844 4.63A1 1 0 0 1 4 25.9c0-6.012 2.329-9.873 5.178-12.213 2.352-1.93 5.021-2.795 6.922-3.023V5a1 1 0 0 1 .642-.934m1.358 3.54V11.6a1 1 0 0 1-1 1c-1.433 0-4.23.644-6.653 2.633-1.889 1.55-3.585 3.947-4.201 7.593 1.576-1.53 3.25-2.415 4.832-2.91 2.266-.71 4.291-.6 5.42-.54h.02c.263.015.447.024.582.024a1 1 0 0 1 1 1v3.994L25.655 16z" clip-rule="evenodd"/></svg>