<svg xmlns="http://www.w3.org/2000/svg" width="16" height="16" fill="none" class="persona-icon" viewBox="0 0 16 16"><path fill="currentColor" d="M6.835 2a2.944 2.944 0 1 0 0 5.889 2.944 2.944 0 0 0 0-5.889M10.041 7.243a3.93 3.93 0 0 0 .739-2.298c0-.858-.274-1.652-.739-2.299q.197-.035.403-.035a2.333 2.333 0 1 1-.403 4.632M2.534 10.05a3.95 3.95 0 0 1 3.002-1.383h2.599a3.95 3.95 0 0 1 3.001 1.384c.344.402.533.914.533 1.443v.173A2.333 2.333 0 0 1 9.335 14h-5a2.333 2.333 0 0 1-2.333-2.333v-.173c0-.529.189-1.04.532-1.443M12.669 11.667q0 .255-.038.5h.181a.5.5 0 0 0 .29-.093l.317-.225a1.38 1.38 0 0 0 .33-1.92l-.038-.053A2.67 2.67 0 0 0 12.084 8.8l-.177-.038a2 2 0 0 0-.38-.04h-.338q.385.301.708.68c.498.583.771 1.325.771 2.092z"/></svg>