<svg xmlns="http://www.w3.org/2000/svg" width="20" height="20" fill="none" class="persona-icon" viewBox="0 0 20 20"><path fill="currentColor" d="M8.64 2.958a3.477 3.477 0 1 1 .001 6.954 3.477 3.477 0 0 1 0-6.954M12.493 9.176c.55-.773.875-1.72.875-2.74a4.7 4.7 0 0 0-.875-2.741q.175-.024.36-.024a2.764 2.764 0 1 1-.36 5.505M3.592 12.365a4.64 4.64 0 0 1 3.533-1.629h3.032c1.36 0 2.65.595 3.534 1.63.407.476.63 1.083.63 1.71v.202a2.764 2.764 0 0 1-2.763 2.764H5.724a2.764 2.764 0 0 1-2.764-2.764v-.202c0-.627.224-1.234.632-1.71M15.572 14.278v-.202c0-.925-.33-1.819-.93-2.522a6 6 0 0 0-.773-.753h.247q.227 0 .45.047l.207.044c.779.167 1.466.62 1.924 1.272l.044.062a1.653 1.653 0 0 1-.394 2.298l-.37.263a.63.63 0 0 1-.363.116h-.09q.047-.306.048-.625"/></svg>