<svg xmlns="http://www.w3.org/2000/svg" width="24" height="24" fill="none" class="persona-icon" viewBox="0 0 24 24"><path fill="currentColor" d="M10.253 3a4.417 4.417 0 1 0 0 8.833 4.417 4.417 0 0 0 0-8.833M15.062 10.865a5.9 5.9 0 0 0 1.107-3.448 5.9 5.9 0 0 0-1.107-3.448q.294-.051.605-.052a3.5 3.5 0 1 1-.605 6.948M3.801 15.076A5.92 5.92 0 0 1 8.303 13h3.9a5.92 5.92 0 0 1 4.501 2.076c.516.604.799 1.372.799 2.165v.259a3.5 3.5 0 0 1-3.5 3.5h-7.5a3.5 3.5 0 0 1-3.5-3.5v-.259c0-.793.283-1.561.798-2.165M19.003 17.5q-.001.383-.056.75h.272a.75.75 0 0 0 .434-.139l.476-.338a2.07 2.07 0 0 0 .494-2.88l-.056-.08a4 4 0 0 0-2.442-1.613l-.265-.057a2.7 2.7 0 0 0-.568-.06h-.509q.578.452 1.062 1.02a4.83 4.83 0 0 1 1.158 3.138z"/></svg>