<svg xmlns="http://www.w3.org/2000/svg" width="32" height="32" fill="none" class="persona-icon" viewBox="0 0 32 32"><path fill="currentColor" d="M13.67 4a5.889 5.889 0 1 0 0 11.778A5.889 5.889 0 0 0 13.67 4M20.082 14.486a7.85 7.85 0 0 0 1.477-4.597 7.85 7.85 0 0 0-1.477-4.597 4.667 4.667 0 1 1 0 9.194M5.069 20.101a7.9 7.9 0 0 1 6.002-2.768h5.199a7.9 7.9 0 0 1 6.003 2.768 4.45 4.45 0 0 1 1.064 2.887v.345A4.667 4.667 0 0 1 18.671 28h-10a4.667 4.667 0 0 1-4.667-4.667v-.345c0-1.058.377-2.082 1.065-2.887M25.337 23.333q0 .51-.074 1h.362a1 1 0 0 0 .58-.185l.634-.45a2.76 2.76 0 0 0 .659-3.84l-.075-.106a5.34 5.34 0 0 0-3.255-2.152l-.354-.076a3.6 3.6 0 0 0-.758-.08h-.678q.77.604 1.416 1.359a6.45 6.45 0 0 1 1.543 4.185z"/></svg>