<svg xmlns="http://www.w3.org/2000/svg" width="24" height="24" fill="none" class="persona-icon" viewBox="0 0 24 24"><path fill="currentColor" fill-rule="evenodd" d="M9.022 4.89A2.75 2.75 0 0 1 11.635 3h.73c1.188 0 2.241.762 2.613 1.89.169.513.648.86 1.188.86h3.084a.75.75 0 0 1 0 1.5h-1.062V17.5a3.5 3.5 0 0 1-3.5 3.5H9.311a3.5 3.5 0 0 1-3.5-3.5V7.25H4.75a.75.75 0 0 1 0-1.5h3.084c.54 0 1.019-.347 1.188-.86m1.915 6.193a.75.75 0 0 0-1.5 0v5.5a.75.75 0 0 0 1.5 0zm-.653-5.333h3.432a3 3 0 0 1-.163-.39 1.25 1.25 0 0 0-1.188-.86h-.73c-.54 0-1.02.347-1.188.86a3 3 0 0 1-.163.39m3.528 4.583a.75.75 0 0 0-.75.75v5.5a.75.75 0 0 0 1.5 0v-5.5a.75.75 0 0 0-.75-.75" clip-rule="evenodd"/></svg>