<svg xmlns="http://www.w3.org/2000/svg" width="32" height="32" fill="none" class="persona-icon" viewBox="0 0 32 32"><path fill="currentColor" fill-rule="evenodd" d="M12.03 6.52A3.67 3.67 0 0 1 15.513 4h.972a3.67 3.67 0 0 1 3.485 2.52 1.67 1.67 0 0 0 1.584 1.147h4.112a1 1 0 1 1 0 2H24.25v13.666A4.667 4.667 0 0 1 19.583 28h-7.166a4.667 4.667 0 0 1-4.667-4.667V9.667H6.333a1 1 0 0 1 0-2h4.112c.72 0 1.359-.462 1.584-1.147m2.553 8.258a1 1 0 1 0-2 0v7.333a1 1 0 1 0 2 0zm-.871-7.111h4.576a4 4 0 0 1-.217-.52A1.67 1.67 0 0 0 16.486 6h-.972c-.72 0-1.36.462-1.585 1.146a4 4 0 0 1-.217.52m4.705 6.11a1 1 0 0 0-1 1v7.334a1 1 0 1 0 2 0v-7.333a1 1 0 0 0-1-1" clip-rule="evenodd"/></svg>