<svg xmlns="http://www.w3.org/2000/svg" width="24" height="24" fill="none" class="persona-icon" viewBox="0 0 24 24"><path fill="currentColor" d="M6.22 4A3.22 3.22 0 0 0 3 7.22v9.56A3.22 3.22 0 0 0 6.22 20h4.332c.093-.514.291-.977.515-1.371l-.053-.063a6.95 6.95 0 0 1-1.481-3c-.2-.964-.243-2.457.767-3.625q.229-.264.483-.463L4.531 6.893A1.72 1.72 0 0 1 6.22 5.5h11.56c.838 0 1.536.6 1.689 1.392l-5.423 3.967q.228.046.445.108c1.762.501 2.92 1.649 3.517 3.06q.19.452.301.914c.2.069.408.166.611.303.398-.208 1.028-.448 1.776-.36q.158.019.304.052V7.22A3.22 3.22 0 0 0 17.78 4z"/><path fill="currentColor" fill-rule="evenodd" d="M19.951 18.15q.135-.106.253-.184l.015-.01q.114.322.245.553c.1.178.242.37.45.504a.98.98 0 0 0 .75.135c.2-.044.353-.144.417-.186a.75.75 0 0 0-.398-1.375 4 4 0 0 1-.084-.23c-.155-.468-.489-.915-1.078-.984-.466-.054-.88.172-1.128.33-.278.18-.55.412-.762.597l-.084.073a1.06 1.06 0 0 0-.31-.757c-.326-.324-.764-.344-1.028-.329q-.1.006-.207.02a5.2 5.2 0 0 0-.376-1.697c-.427-1.01-1.239-1.829-2.546-2.2-1.066-.303-2.035-.194-2.646.511-.561.65-.594 1.565-.433 2.339a5.45 5.45 0 0 0 1.16 2.34c.26.308.563.595.905.837a6 6 0 0 0-.375.45c-.312.415-.591.912-.671 1.431-.089.57.07 1.172.623 1.59.572.434 1.218.343 1.708.092.466-.24.882-.655 1.222-1.098.648-.842 1.199-2.017 1.361-3.053l.035-.009q-.017.18 0 .354c.023.25.112.555.361.79.269.251.607.313.898.275.273-.035.524-.156.736-.297.186-.123.401-.311.58-.468l.072-.062q.177-.155.335-.282m-6.644-1.518a3.96 3.96 0 0 1-.837-1.678c-.122-.583-.014-.92.099-1.051.065-.075.306-.276 1.101-.05.852.242 1.317.733 1.574 1.34.19.45.272.984.27 1.556q-.185.073-.374.154c-.286.122-.59.294-.89.502a3.1 3.1 0 0 1-.943-.773m1.241 2.447a.75.75 0 0 0 .436-.069c-.171.35-.377.688-.6.978-.276.36-.532.582-.718.677a.4.4 0 0 1-.12.045c-.041-.03-.062-.048-.044-.162.026-.17.143-.433.388-.76.186-.248.415-.49.658-.709" clip-rule="evenodd"/></svg>