<svg xmlns="http://www.w3.org/2000/svg" width="20" height="20" fill="none" class="persona-icon" viewBox="0 0 20 20"><path fill="currentColor" d="M8.042 9.111c0-.345.28-.625.625-.625H10c.345 0 .625.28.625.625v3.82h1.597a.625.625 0 1 1 0 1.25H7.778a.625.625 0 0 1 0-1.25h1.597V9.736h-.708a.625.625 0 0 1-.625-.625M10 7.31a.889.889 0 1 0 0-1.778.889.889 0 0 0 0 1.777"/><path fill="currentColor" fill-rule="evenodd" d="M10 18.025a8.025 8.025 0 1 1 0-16.05 8.025 8.025 0 0 1 0 16.05M3.225 10a6.775 6.775 0 1 0 13.55 0 6.775 6.775 0 0 0-13.55 0" clip-rule="evenodd"/></svg>