<svg xmlns="http://www.w3.org/2000/svg" width="32" height="32" fill="none" class="persona-icon" viewBox="0 0 32 32"><path fill="currentColor" d="M12.658 14.438a1 1 0 0 1 1-1H16a1 1 0 0 1 1 1v6.808h2.904a1 1 0 1 1 0 2h-7.808a1 1 0 1 1 0-2H15v-5.808h-1.342a1 1 0 0 1-1-1M16 11.273a1.562 1.562 0 1 1 0-3.123 1.562 1.562 0 0 1 0 3.123"/><path fill="currentColor" fill-rule="evenodd" d="M16 30C8.268 30 2 23.732 2 16S8.268 2 16 2s14 6.268 14 14-6.268 14-14 14M4 16c0 6.628 5.373 12 12 12 6.628 0 12-5.372 12-12 0-6.627-5.372-12-12-12C9.373 4 4 9.373 4 16" clip-rule="evenodd"/></svg>