<svg xmlns="http://www.w3.org/2000/svg" width="16" height="16" fill="none" class="persona-icon" viewBox="0 0 16 16"><path fill="currentColor" fill-rule="evenodd" d="M4.333 3C3.597 3 3 3.597 3 4.333v1.604a.5.5 0 1 1-1 0V4.334A2.333 2.333 0 0 1 4.333 2h1.604a.5.5 0 1 1 0 1zm5.23-.5a.5.5 0 0 1 .5-.5h1.604A2.333 2.333 0 0 1 14 4.333v1.604a.5.5 0 1 1-1 0V4.334C13 3.597 12.403 3 11.667 3h-1.604a.5.5 0 0 1-.5-.5M6.779 3.722a3.73 3.73 0 0 1 4 .838c.183.184.354.387.504.604a.5.5 0 0 1-.821.57 3.4 3.4 0 0 0-.39-.467 2.74 2.74 0 0 0-2.93-.614.5.5 0 0 1-.363-.931m-.576.838a.5.5 0 0 1 0 .707c-.388.388-.647.88-.75 1.411a.5.5 0 1 1-.982-.191A3.74 3.74 0 0 1 5.496 4.56a.5.5 0 0 1 .707 0m1.124.685c.257-.106.532-.161.81-.161.418 0 .784.147 1.059.31a2.5 2.5 0 0 1 .628.527q.165.217.27.47a.5.5 0 0 1-.924.383 1 1 0 0 0-.135-.238 1.5 1.5 0 0 0-.35-.282 1.1 1.1 0 0 0-.548-.17 1.12 1.12 0 0 0-1.032.69.5.5 0 1 1-.924-.383 2.12 2.12 0 0 1 1.146-1.146M1.389 8a.5.5 0 0 1 .5-.5H14.11a.5.5 0 1 1 0 1h-2.097q-.005.115-.014.235a.5.5 0 1 1-.997-.07l.01-.165h-.78l-.015.235-.001.013c-.07.713-.151 1.115-.314 1.794-.128.568-.303 1.17-.616 1.734a.5.5 0 1 1-.875-.485c.247-.444.397-.94.516-1.472l.002-.006c.156-.653.228-1.006.29-1.656q.007-.08.011-.157h-.594l-.024.289c-.098.533-.179.891-.306 1.346a.5.5 0 0 1-.963-.27c.116-.414.19-.738.28-1.232l.01-.133h-.59a6 6 0 0 1-.016.266 6.8 6.8 0 0 1-.49 1.874q-.16.344-.387.711a.5.5 0 0 1-.85-.527q.192-.311.323-.592c.23-.586.322-.928.411-1.583l.008-.149h-.617a3 3 0 0 1-.043.315l-.23.967a.5.5 0 1 1-.973-.23l.227-.954.014-.098H1.889a.5.5 0 0 1-.5-.5m9.892 1.943a.5.5 0 0 1 .369.603 11 11 0 0 1-.199.727.5.5 0 0 1-.953-.3 10 10 0 0 0 .18-.661.5.5 0 0 1 .603-.369M2.5 9.944a.5.5 0 0 1 .5.5v1.223C3 12.403 3.597 13 4.333 13h1.604a.5.5 0 1 1 0 1H4.334A2.333 2.333 0 0 1 2 11.667v-1.223a.5.5 0 0 1 .5-.5m11 0a.5.5 0 0 1 .5.5v1.223A2.333 2.333 0 0 1 11.667 14h-1.604a.5.5 0 0 1 0-1h1.604c.736 0 1.333-.597 1.333-1.333v-1.223a.5.5 0 0 1 .5-.5m-5.942.987a.5.5 0 0 1 .27.653c-.115.279-.258.586-.389.756a.5.5 0 0 1-.79-.612c.037-.05.135-.235.255-.526a.5.5 0 0 1 .654-.27" clip-rule="evenodd"/></svg>