<svg xmlns="http://www.w3.org/2000/svg" width="20" height="20" fill="none" class="persona-icon" viewBox="0 0 20 20"><path fill="currentColor" fill-rule="evenodd" d="M2.264 10c0-.345.28-.625.625-.625H17.11a.625.625 0 1 1 0 1.25h-2.4q-.005.114-.014.233a.625.625 0 1 1-1.246-.088l.009-.145h-.821l-.015.233-.002.016c-.08.833-.176 1.302-.365 2.094-.15.662-.355 1.366-.722 2.029a.625.625 0 1 1-1.093-.606c.284-.512.457-1.085.596-1.701l.002-.009c.18-.758.264-1.167.337-1.92l.01-.136h-.606l-.018.242-.008.059a16 16 0 0 1-.357 1.57.625.625 0 1 1-1.203-.337c.134-.48.22-.856.325-1.428l.008-.106h-.6a7 7 0 0 1-.016.272c-.119.878-.25 1.371-.56 2.159l-.015.034a8 8 0 0 1-.452.832.625.625 0 0 1-1.062-.658 7 7 0 0 0 .373-.684 6.7 6.7 0 0 0 .474-1.83l.007-.125h-.633a4 4 0 0 1-.048.333l-.267 1.126a.625.625 0 1 1-1.216-.289l.263-1.108.01-.062H2.889A.625.625 0 0 1 2.264 10m3.47-5.775c-.834 0-1.51.675-1.51 1.508V7.6a.625.625 0 0 1-1.25 0V5.733a2.76 2.76 0 0 1 2.76-2.758H7.6a.625.625 0 1 1 0 1.25zM3.6 12.219c.345 0 .625.28.625.625v1.423c0 .833.675 1.508 1.508 1.508H7.6a.625.625 0 0 1 0 1.25H5.733a2.76 2.76 0 0 1-2.758-2.758v-1.423c0-.345.28-.625.625-.625m4.34-6.252a.625.625 0 0 1 0 .884 3.14 3.14 0 0 0-.862 1.619.625.625 0 0 1-1.227-.24 4.4 4.4 0 0 1 1.204-2.263.625.625 0 0 1 .884 0m1.26.787c.304-.126.63-.19.96-.19.496 0 .93.174 1.253.366a2.9 2.9 0 0 1 .744.625q.195.256.319.556a.625.625 0 0 1-1.155.478 1.3 1.3 0 0 0-.15-.266 1.7 1.7 0 0 0-.396-.318 1.23 1.23 0 0 0-.616-.192 1.26 1.26 0 0 0-1.161.776.625.625 0 1 1-1.155-.478c.126-.304.31-.58.543-.813l.38.379-.38-.38c.233-.232.51-.417.814-.543m-.636-1.772a4.39 4.39 0 0 1 4.7.985c.215.216.415.453.591.708a.625.625 0 0 1-1.026.713 4 4 0 0 0-.45-.537 3.14 3.14 0 0 0-3.361-.705.625.625 0 0 1-.454-1.165m.938 8.389c.318.132.47.497.338.816-.134.324-.302.686-.459.89a.625.625 0 1 1-.989-.766h.001l.002-.003.008-.011.025-.042a3 3 0 0 0 .073-.137c.056-.112.12-.252.184-.409a.625.625 0 0 1 .816-.338M11.775 3.6c0-.345.28-.625.625-.625h1.866a2.76 2.76 0 0 1 2.759 2.758V7.6a.625.625 0 0 1-1.25 0V5.733c0-.833-.675-1.508-1.509-1.508H12.4a.625.625 0 0 1-.625-.625m4.625 8.62c.345 0 .625.28.625.624v1.423a2.76 2.76 0 0 1-2.759 2.758H12.4a.625.625 0 1 1 0-1.25h1.866c.834 0 1.509-.675 1.509-1.508v-1.423c0-.345.28-.625.625-.625m-2.572-.001c.335.08.542.418.46.754a13 13 0 0 1-.23.848.625.625 0 1 1-1.193-.376c.082-.262.148-.515.208-.765a.625.625 0 0 1 .755-.461" clip-rule="evenodd"/></svg>