<svg xmlns="http://www.w3.org/2000/svg" width="20" height="20" fill="none" class="persona-icon" viewBox="0 0 20 20"><path fill="currentColor" d="M5.077 3.23c-1.02 0-1.846.827-1.846 1.847V7.23A.615.615 0 0 1 2 7.23V5.077C2 3.377 3.378 2 5.077 2H7.23a.615.615 0 0 1 0 1.23zM12.154 2.615c0-.34.275-.615.615-.615h2.154C16.623 2 18 3.378 18 5.077V7.23a.615.615 0 0 1-1.23 0V5.077c0-1.02-.827-1.846-1.847-1.846H12.77a.615.615 0 0 1-.615-.616M1.628 13.825H2v1.098C2 16.623 3.378 18 5.077 18H7.23a.615.615 0 0 0 0-1.23H5.077a1.846 1.846 0 0 1-1.846-1.847v-1.098h3.171a10 10 0 0 1-.4.605.625.625 0 0 0 1.017.726c.332-.464.6-.906.814-1.33h.942c-.06.165-.124.335-.19.498-.174.426-.322.714-.384.794a.625.625 0 0 0 .989.765c.182-.236.387-.68.553-1.089.127-.311.251-.654.35-.969h1.065c-.138.486-.31.946-.546 1.373a.625.625 0 1 0 1.093.606c.356-.642.58-1.32.747-1.979h1.082a9 9 0 0 1-.325.941.625.625 0 0 0 1.158.473c.206-.506.349-.978.463-1.414h1.94v1.098c0 1.02-.827 1.846-1.847 1.846H12.77a.615.615 0 0 0 0 1.231h2.154c1.7 0 3.077-1.378 3.077-3.077v-1.098h.372c.347 0 .628-.28.628-.625a.626.626 0 0 0-.628-.625H1.628A.626.626 0 0 0 1 13.2c0 .345.281.625.628.625M10.187 3.875c-.633 0-1.253.119-1.831.344a.625.625 0 0 0 .454 1.165 3.79 3.79 0 0 1 4.054.85q.299.298.54.643a.625.625 0 0 0 1.026-.712 6 6 0 0 0-.682-.815 5.04 5.04 0 0 0-3.561-1.475M7.51 6.234a.625.625 0 1 0-.885-.884A5.04 5.04 0 0 0 5.15 8.91v.007c.004.283.017.535.028.756l.004.062c.012.241.021.44.016.634-.004.16-.017.314-.046.473a.625.625 0 0 0 1.23.221c.043-.232.06-.45.066-.663a10 10 0 0 0-.018-.73l-.003-.06c-.012-.223-.024-.449-.027-.703.001-1.003.4-1.965 1.11-2.674"/><path fill="currentColor" d="M10.187 6.08a2.83 2.83 0 0 0-2.615 1.748.625.625 0 1 0 1.154.478 1.58 1.58 0 0 1 1.46-.976c.266 0 .534.095.777.24.236.14.411.304.493.398a1.6 1.6 0 0 1 .312.943v.007c.004.403.006.895-.016 1.442a19 19 0 0 1-.031.55.625.625 0 1 0 1.247.088q.021-.302.033-.587c.024-.578.021-1.094.017-1.504a2.83 2.83 0 0 0-.594-1.73 3.3 3.3 0 0 0-.822-.682c-.37-.219-.858-.415-1.415-.415M15.258 8.055a.625.625 0 0 0-1.225.25q.029.133.059.226l.014.048.03.104c.021.078.04.17.042.322l.002.204c.005.377.01.755-.002 1.158a13 13 0 0 1-.027.543.625.625 0 1 0 1.247.088q.021-.307.03-.594c.012-.432.007-.839.002-1.216l-.002-.197c-.005-.404-.114-.754-.155-.885q-.013-.038-.015-.05"/><path fill="currentColor" d="M10.81 8.863a.625.625 0 1 0-1.246.096c.027.361.038.846.013 1.398q-.012.264-.035.544a.625.625 0 1 0 1.245.106q.025-.305.039-.593c.027-.598.016-1.134-.016-1.55M8.637 9.875a.625.625 0 0 0-1.25.037q.008.235.007.47 0 .262-.018.528a.625.625 0 1 0 1.247.087q.02-.315.02-.609.002-.264-.007-.513"/></svg>