<svg xmlns="http://www.w3.org/2000/svg" width="24" height="24" fill="none" class="persona-icon" viewBox="0 0 24 24"><path fill="currentColor" fill-rule="evenodd" d="M2.084 12a.75.75 0 0 1 .75-.75h18.333a.75.75 0 1 1 0 1.5H18.02a15 15 0 0 1-.02.352.75.75 0 1 1-1.497-.106l.015-.246h-1.17q-.01.174-.022.352l-.002.02c-.103 1.07-.226 1.672-.47 2.691-.192.852-.455 1.754-.925 2.601a.75.75 0 1 1-1.311-.727c.37-.667.595-1.41.774-2.208l.002-.01c.234-.979.342-1.508.437-2.483l.015-.236h-.892q-.01.178-.027.363l-.01.07a20 20 0 0 1-.458 2.02.75.75 0 0 1-1.444-.405c.174-.62.285-1.107.42-1.848l.016-.2h-.887a10 10 0 0 1-.022.4c-.152 1.127-.32 1.758-.72 2.769l-.017.04q-.239.517-.58 1.067a.75.75 0 1 1-1.274-.79q.288-.466.485-.889c.345-.878.482-1.39.616-2.374q.007-.112.011-.223H8.14a5 5 0 0 1-.065.472l-.344 1.451a.75.75 0 1 1-1.46-.346l.34-1.43q.012-.074.022-.147H2.834a.75.75 0 0 1-.75-.75M6.5 4.5a2 2 0 0 0-2 2v2.406a.75.75 0 1 1-1.5 0V6.5A3.5 3.5 0 0 1 6.5 3h2.406a.75.75 0 1 1 0 1.5zM3.75 14.917a.75.75 0 0 1 .75.75V17.5a2 2 0 0 0 2 2h2.406a.75.75 0 1 1 0 1.5H6.5A3.5 3.5 0 0 1 3 17.5v-1.833a.75.75 0 0 1 .75-.75M9.305 6.84a.75.75 0 0 1 0 1.061 4.1 4.1 0 0 0-1.126 2.116.75.75 0 1 1-1.472-.287 5.6 5.6 0 0 1 1.537-2.89.75.75 0 0 1 1.06 0m1.685 1.027c.386-.16.799-.241 1.216-.241.627 0 1.176.22 1.588.465a3.7 3.7 0 0 1 .942.791q.247.326.404.704a.75.75 0 1 1-1.386.575 1.7 1.7 0 0 0-.201-.357 2.3 2.3 0 0 0-.525-.424c-.261-.155-.545-.254-.822-.254a1.675 1.675 0 0 0-1.549 1.035.75.75 0 1 1-1.386-.575 3.18 3.18 0 0 1 1.72-1.719m-.821-2.284a5.6 5.6 0 0 1 5.999 1.257q.415.417.757.905a.75.75 0 0 1-1.232.856 5 5 0 0 0-.586-.7 4.1 4.1 0 0 0-4.393-.921.75.75 0 1 1-.545-1.397m1.167 10.814a.75.75 0 0 1 .407.98c-.173.417-.387.878-.584 1.133a.75.75 0 1 1-1.187-.918c.057-.074.204-.352.385-.79a.75.75 0 0 1 .98-.405M14.345 3.75a.75.75 0 0 1 .75-.75H17.5A3.5 3.5 0 0 1 21 6.5v2.406a.75.75 0 1 1-1.5 0V6.5a2 2 0 0 0-2-2h-2.406a.75.75 0 0 1-.75-.75m5.906 11.167a.75.75 0 0 1 .75.75V17.5a3.5 3.5 0 0 1-3.5 3.5h-2.406a.75.75 0 0 1 0-1.5H17.5a2 2 0 0 0 2-2v-1.833a.75.75 0 0 1 .75-.75m-3.329-.002a.75.75 0 0 1 .554.905c-.082.339-.176.703-.298 1.089a.75.75 0 1 1-1.43-.45c.106-.34.191-.668.27-.991a.75.75 0 0 1 .904-.553" clip-rule="evenodd"/></svg>