<svg xmlns="http://www.w3.org/2000/svg" width="32" height="32" fill="none" class="persona-icon" viewBox="0 0 32 32"><path fill="currentColor" fill-rule="evenodd" d="M2.778 16a1 1 0 0 1 1-1h24.444a1 1 0 1 1 0 2h-4.194q-.01.23-.028.469a1 1 0 1 1-1.995-.14q.012-.166.02-.329h-1.56a29 29 0 0 1-.031.495c-.139 1.428-.303 2.23-.627 3.589-.256 1.136-.607 2.339-1.233 3.468a1 1 0 1 1-1.75-.97c.494-.889.794-1.88 1.033-2.943l.003-.013c.312-1.306.455-2.012.582-3.311l.02-.315h-1.189q-.015.239-.035.483a1 1 0 0 1-.013.095 27 27 0 0 1-.612 2.692 1 1 0 1 1-1.925-.54c.231-.827.38-1.476.56-2.463q.012-.135.02-.267h-1.181a13 13 0 0 1-.03.532c-.203 1.503-.427 2.345-.96 3.693l-.023.055q-.318.689-.772 1.422a1 1 0 0 1-1.7-1.053c.258-.416.47-.81.646-1.186.461-1.172.644-1.855.822-3.166q.01-.15.015-.297h-1.233a6 6 0 0 1-.086.63l-.46 1.934a1 1 0 1 1-1.945-.462l.452-1.906q.017-.098.029-.196H3.778a1 1 0 0 1-1-1M8.667 6A2.667 2.667 0 0 0 6 8.667v3.208a1 1 0 1 1-2 0V8.667A4.667 4.667 0 0 1 8.667 4h3.208a1 1 0 1 1 0 2zM5 19.889a1 1 0 0 1 1 1v2.444A2.667 2.667 0 0 0 8.667 26h3.208a1 1 0 1 1 0 2H8.667A4.667 4.667 0 0 1 4 23.333V20.89a1 1 0 0 1 1-1M12.406 9.12a1 1 0 0 1 0 1.415 5.47 5.47 0 0 0-1.501 2.821 1 1 0 1 1-1.963-.383 7.47 7.47 0 0 1 2.05-3.853 1 1 0 0 1 1.414 0m2.247 1.37a4.2 4.2 0 0 1 1.621-.322c.837 0 1.569.293 2.118.62a5 5 0 0 1 1.256 1.055q.33.433.539.939a1 1 0 1 1-1.848.765q-.105-.255-.27-.475a3 3 0 0 0-.698-.565c-.349-.207-.727-.34-1.097-.34a2.235 2.235 0 0 0-2.065 1.38 1 1 0 1 1-1.848-.765 4.24 4.24 0 0 1 2.292-2.292M13.56 7.444a7.47 7.47 0 0 1 7.998 1.676 9 9 0 0 1 1.01 1.207 1 1 0 1 1-1.644 1.14 7 7 0 0 0-.78-.932 5.47 5.47 0 0 0-5.857-1.228 1 1 0 1 1-.727-1.863m1.556 14.418a1 1 0 0 1 .542 1.307c-.23.557-.516 1.17-.779 1.51a1 1 0 0 1-1.582-1.223c.076-.099.272-.47.513-1.052a1 1 0 0 1 1.306-.542M19.125 5a1 1 0 0 1 1-1h3.208A4.667 4.667 0 0 1 28 8.667v3.208a1 1 0 1 1-2 0V8.667A2.667 2.667 0 0 0 23.333 6h-3.208a1 1 0 0 1-1-1M27 19.889a1 1 0 0 1 1 1v2.444A4.667 4.667 0 0 1 23.333 28h-3.208a1 1 0 1 1 0-2h3.208A2.667 2.667 0 0 0 26 23.333V20.89a1 1 0 0 1 1-1m-4.438-.003a1 1 0 0 1 .737 1.207c-.109.452-.234.938-.396 1.452a1 1 0 1 1-1.908-.6c.143-.453.256-.89.36-1.321a1 1 0 0 1 1.207-.738" clip-rule="evenodd"/></svg>