<svg xmlns="http://www.w3.org/2000/svg" width="16" height="16" fill="none"><path fill="#000" fill-rule="evenodd" d="M2 9.5a.5.5 0 0 1 .5.5v2A1.5 1.5 0 0 0 4 13.5h8a1.5 1.5 0 0 0 1.5-1.5v-2a.5.5 0 0 1 1 0v2a2.5 2.5 0 0 1-2.5 2.5H4A2.5 2.5 0 0 1 1.5 12v-2a.5.5 0 0 1 .5-.5Z" clip-rule="evenodd"/><path fill="#000" fill-rule="evenodd" d="M8 11.167a.5.5 0 0 0 .5-.5v-7.46l1.813 1.813a.5.5 0 1 0 .707-.707L8.354 1.646a.5.5 0 0 0-.708 0L4.98 4.313a.5.5 0 0 0 .707.707L7.5 3.207v7.46a.5.5 0 0 0 .5.5Z" clip-rule="evenodd"/></svg>