<svg xmlns="http://www.w3.org/2000/svg" width="16" height="16" fill="none" class="persona-icon" viewBox="0 0 16 16"><path fill="currentColor" fill-rule="evenodd" d="M5.429 1.714A2.43 2.43 0 0 0 3 4.142v7.715a2.43 2.43 0 0 0 2.429 2.428h5.143A2.43 2.43 0 0 0 13 11.857v-5.28c0-.452-.171-.887-.48-1.218L9.647 2.281a1.79 1.79 0 0 0-1.306-.567zm-.5 7.25V8a.5.5 0 0 1 .5-.5h1.285a.5.5 0 1 1 0 1H5.93v.464a.5.5 0 0 1-1 0m1.785 3.393H5.43a.5.5 0 0 1-.5-.5v-.964a.5.5 0 1 1 1 0v.464h.785a.5.5 0 0 1 0 1m3.357-3.393V8.5h-.785a.5.5 0 0 1 0-1h1.285a.5.5 0 0 1 .5.5v.964a.5.5 0 1 1-1 0m.5 3.393H9.286a.5.5 0 1 1 0-1h.785v-.464a.5.5 0 0 1 1 0v.964a.5.5 0 0 1-.5.5M9.143 4.786v-1.58l2.207 2.365H9.929a.786.786 0 0 1-.786-.785" clip-rule="evenodd"/></svg>