<svg xmlns="http://www.w3.org/2000/svg" width="20" height="20" fill="none" class="persona-icon" viewBox="0 0 20 20"><path fill="currentColor" fill-rule="evenodd" d="M6.915 2.432h3.495c.6 0 1.175.25 1.585.689l3.447 3.693c.375.402.583.93.583 1.48v6.334a2.94 2.94 0 0 1-2.94 2.94h-6.17a2.94 2.94 0 0 1-2.94-2.94V5.371a2.94 2.94 0 0 1 2.94-2.94m-.626 8.725a.625.625 0 1 0 1.25 0v-.532h.918a.625.625 0 0 0 0-1.25H6.914A.625.625 0 0 0 6.29 10zm2.168 4.097a.625.625 0 1 0 0-1.25H7.54v-.533a.625.625 0 0 0-1.25 0v1.158c0 .345.28.625.625.625zm4.004-4.097a.625.625 0 1 0 1.25 0V10a.625.625 0 0 0-.625-.625h-1.543a.625.625 0 0 0 0 1.25h.918zm.625 4.097c.345 0 .625-.28.625-.625V13.47a.625.625 0 1 0-1.25 0v.533h-.918a.625.625 0 0 0 0 1.25zm-1.69-9.111c0 .507.411.918.918.918h1.648l-2.566-2.75z" clip-rule="evenodd"/></svg>