<svg xmlns="http://www.w3.org/2000/svg" width="24" height="24" fill="none" class="persona-icon" viewBox="0 0 24 24"><path fill="currentColor" fill-rule="evenodd" d="M7.889 2h4.657a2.8 2.8 0 0 1 2.05.892l4.594 4.92a2.8 2.8 0 0 1 .754 1.915v8.44A3.833 3.833 0 0 1 16.111 22H7.89a3.833 3.833 0 0 1-3.833-3.833V5.834A3.833 3.833 0 0 1 7.889 2m9.58 6.167-3.691-3.954v2.649c0 .72.584 1.305 1.305 1.305zm-1.358 10.75a.75.75 0 0 0 .75-.75v-1.542a.75.75 0 1 0-1.5 0v.792h-1.306a.75.75 0 0 0 0 1.5zm-6.167 0a.75.75 0 0 0 0-1.5H8.64v-.792a.75.75 0 1 0-1.5 0v1.542c0 .414.336.75.75.75zm5.417-5.375a.75.75 0 0 0 1.5 0V12a.75.75 0 0 0-.75-.75h-2.056a.75.75 0 1 0 0 1.5h1.306zm-8.222 0a.75.75 0 0 0 1.5 0v-.792h1.305a.75.75 0 0 0 0-1.5H7.89a.75.75 0 0 0-.75.75z" clip-rule="evenodd"/></svg>