<svg xmlns="http://www.w3.org/2000/svg" width="32" height="32" fill="none" class="persona-icon" viewBox="0 0 32 32"><path fill="currentColor" fill-rule="evenodd" d="M10.857 3.428h5.826c.99 0 1.935.41 2.61 1.135l5.747 6.156c.617.661.96 1.532.96 2.437v10.558a4.857 4.857 0 0 1-4.857 4.857H10.857A4.857 4.857 0 0 1 6 23.714V8.285a4.857 4.857 0 0 1 4.857-4.857m-1 14.5a1 1 0 0 0 2 0V17h1.572a1 1 0 1 0 0-2h-2.572a1 1 0 0 0-1 1zm3.572 6.786a1 1 0 1 0 0-2h-1.572v-.928a1 1 0 1 0-2 0v1.928a1 1 0 0 0 1 1zm6.714-6.785a1 1 0 0 0 2 0v-1.93a1 1 0 0 0-1-1H18.57a1 1 0 1 0 0 2h1.572zm1 6.785a1 1 0 0 0 1-1v-1.928a1 1 0 1 0-2 0v.928H18.57a1 1 0 1 0 0 2zM18.286 9.571c0 .868.703 1.572 1.571 1.572H22.7l-4.413-4.73z" clip-rule="evenodd"/></svg>