<svg xmlns="http://www.w3.org/2000/svg" width="150" height="150" fill="none" class="persona-ilustration" viewBox="0 0 150 150"><g clip-path="url(#beasadtiZx0w8d3tuPRv__muW-tbjwy-DPmh7cSmd8s_a)"><g clip-path="url(#beasadtiZx0w8d3tuPRv__muW-tbjwy-DPmh7cSmd8s_b)"><rect width="125" height="125" x="12.5" y="12.5" fill="#D3EDFF" rx="62.5"/><rect width="69.903" height="46.09" x="73.004" y="53.812" fill="#80D6E2" rx="5.761"/><path fill="#F8F8F8" d="M121.398 72.248h13.827v17.668h-13.827z"/><rect width="30.726" height="3.841" x="92.208" y="61.494" fill="#F8F8F8" rx="1.92"/><rect width="30.726" height="3.841" x="83.758" y="72.248" fill="#F8F8F8" rx="1.92"/><rect width="30.726" height="3.841" x="83.758" y="79.161" fill="#F8F8F8" rx="1.92"/><rect width="30.726" height="3.841" x="83.758" y="86.075" fill="#F8F8F8" rx="1.92"/></g><path fill="#3E68F5" d="M7.094 39.89c0-6.31 5.115-11.427 11.426-11.427h68.558c6.31 0 11.426 5.116 11.426 11.427v68.558c0 6.311-5.115 11.426-11.426 11.426H18.52c-6.31 0-11.426-5.115-11.426-11.426z"/><path fill="#F8F8F8" fill-rule="evenodd" d="M52.291 59.741a7.657 7.657 0 1 0 0 15.314 7.657 7.657 0 0 0 0-15.314m-12.656 7.657c0-6.99 5.666-12.657 12.656-12.657s12.657 5.667 12.657 12.657-5.667 12.657-12.657 12.657-12.656-5.667-12.656-12.657M32.485 46.199a7.657 7.657 0 0 0-7.656 7.656v8.887a2.5 2.5 0 0 1-5 0v-8.887c0-6.99 5.666-12.656 12.656-12.656h8.888a2.5 2.5 0 0 1 0 5zm29.24-2.5a2.5 2.5 0 0 1 2.5-2.5h8.888c6.99 0 12.656 5.666 12.656 12.656v8.887a2.5 2.5 0 1 1-5 0v-8.887a7.657 7.657 0 0 0-7.657-7.656h-8.887a2.5 2.5 0 0 1-2.5-2.5M22.33 85.21a2.5 2.5 0 0 1 2.5 2.5v6.771a7.657 7.657 0 0 0 7.656 7.657h8.888a2.5 2.5 0 1 1 0 5h-8.888c-6.99 0-12.656-5.667-12.656-12.657v-6.77a2.5 2.5 0 0 1 2.5-2.5m60.94 0a2.5 2.5 0 0 1 2.5 2.5v6.771c0 6.99-5.666 12.657-12.657 12.657h-8.887a2.5 2.5 0 1 1 0-5h8.888a7.657 7.657 0 0 0 7.656-7.657v-6.77a2.5 2.5 0 0 1 2.5-2.5" clip-rule="evenodd"/><path fill="#F8F8F8" fill-rule="evenodd" d="M33.026 91.754a18.66 18.66 0 0 1 14.188-6.543H59.4a18.66 18.66 0 0 1 14.189 6.543 10.58 10.58 0 0 1 2.533 6.868v.357c0 2.732-.952 5.248-2.54 7.226a2.5 2.5 0 0 1-3.899-3.131 6.5 6.5 0 0 0 1.439-4.095v-.357a5.58 5.58 0 0 0-1.336-3.621 13.66 13.66 0 0 0-10.386-4.79H47.215c-3.996 0-7.792 1.75-10.386 4.79a5.58 5.58 0 0 0-1.336 3.621v.357c0 1.553.538 2.973 1.439 4.095a2.5 2.5 0 0 1-3.898 3.131 11.5 11.5 0 0 1-2.54-7.226v-.357c0-2.518.898-4.953 2.532-6.868" clip-rule="evenodd"/><path fill="#3D2397" d="M98.184 123.95a3.109 3.109 0 1 0 4.396-4.397L76.986 93.959a3.109 3.109 0 1 0-4.397 4.396z"/><path fill="#3D2397" d="M72.589 54.392c10.926 10.926 10.926 28.64 0 39.567s-28.641 10.926-39.567 0-10.926-28.64 0-39.567 28.64-10.926 39.567 0"/><path fill="#310A81" d="M69.99 98.156a3.39 3.39 0 0 1 0-4.797l2-1.998a3.391 3.391 0 1 1 4.795 4.796l-1.998 1.999a3.39 3.39 0 0 1-4.796 0"/><mask id="beasadtiZx0w8d3tuPRv__muW-tbjwy-DPmh7cSmd8s_c" width="48" height="48" x="29" y="50" maskUnits="userSpaceOnUse" style="mask-type:alpha"><path fill="#F9F9F9" d="M69.392 57.589c9.38 9.38 9.56 24.412.4 33.572s-24.192 8.981-33.573-.4-9.56-24.412-.4-33.572 24.191-8.981 33.572.4"/></mask><g mask="url(#beasadtiZx0w8d3tuPRv__muW-tbjwy-DPmh7cSmd8s_c)"><path fill="#A6B7FF" d="M69.392 57.589c9.38 9.38 9.56 24.412.4 33.572s-24.192 8.981-33.573-.4-9.56-24.412-.4-33.572 24.191-8.981 33.572.4" opacity=".75"/><path fill="#F8F8F8" fill-rule="evenodd" d="M51.877 60.342a8.066 8.066 0 1 0 0 16.13 8.066 8.066 0 0 0 0-16.13m-13.443 8.065c0-7.424 6.019-13.443 13.443-13.443S65.32 60.983 65.32 68.407 59.3 81.85 51.877 81.85 38.434 75.83 38.434 68.407M30.906 48.05a8.066 8.066 0 0 0-8.065 8.066v9.41a2.689 2.689 0 1 1-5.378 0v-9.41c0-7.424 6.019-13.442 13.443-13.442h9.41a2.689 2.689 0 1 1 0 5.377zm30.919-2.688a2.69 2.69 0 0 1 2.688-2.688h9.41c7.424 0 13.443 6.018 13.443 13.442v9.41a2.689 2.689 0 1 1-5.377 0v-9.41a8.066 8.066 0 0 0-8.066-8.065h-9.41a2.69 2.69 0 0 1-2.688-2.689M20.152 89.275a2.69 2.69 0 0 1 2.688 2.689v7.17a8.066 8.066 0 0 0 8.066 8.065h9.41a2.689 2.689 0 0 1 0 5.377h-9.41c-7.424 0-13.443-6.018-13.443-13.443v-7.17a2.69 2.69 0 0 1 2.689-2.688m64.525 0a2.69 2.69 0 0 1 2.689 2.689v7.17c0 7.424-6.019 13.442-13.443 13.442h-9.41a2.689 2.689 0 0 1 0-5.377h9.41a8.066 8.066 0 0 0 8.066-8.066v-7.17a2.69 2.69 0 0 1 2.688-2.688" clip-rule="evenodd"/><path fill="#F8F8F8" fill-rule="evenodd" d="M31.447 94.17a19.8 19.8 0 0 1 15.055-6.943h12.901a19.8 19.8 0 0 1 15.055 6.942 11.24 11.24 0 0 1 2.691 7.299v.378c0 2.902-1.011 5.576-2.698 7.677a2.689 2.689 0 0 1-4.193-3.367 6.85 6.85 0 0 0 1.514-4.31v-.378a5.86 5.86 0 0 0-1.404-3.808 14.42 14.42 0 0 0-10.965-5.056H46.502a14.42 14.42 0 0 0-10.965 5.056 5.86 5.86 0 0 0-1.404 3.808v.378c0 1.634.565 3.129 1.513 4.31a2.688 2.688 0 1 1-4.192 3.367 12.23 12.23 0 0 1-2.699-7.677v-.378c0-2.676.955-5.264 2.692-7.299" clip-rule="evenodd"/></g><mask id="beasadtiZx0w8d3tuPRv__muW-tbjwy-DPmh7cSmd8s_d" width="32" height="32" x="73" y="17" maskUnits="userSpaceOnUse" style="mask-type:alpha"><path fill="#009444" d="M88.75 48.438c8.63 0 15.625-6.996 15.625-15.626S97.379 17.188 88.75 17.188c-8.63 0-15.625 6.995-15.625 15.625s6.996 15.624 15.625 15.624"/></mask><g mask="url(#beasadtiZx0w8d3tuPRv__muW-tbjwy-DPmh7cSmd8s_d)"><path fill="#F18513" d="M88.75 48.438c8.63 0 15.625-6.996 15.625-15.626S97.379 17.188 88.75 17.188c-8.63 0-15.625 6.995-15.625 15.625s6.996 15.624 15.625 15.624"/><path fill="#FFB700" d="M85.048 44.838c8.63 0 15.625-6.995 15.625-15.625s-6.995-15.625-15.625-15.625-15.625 6.996-15.625 15.625c0 8.63 6.996 15.625 15.625 15.625"/><circle cx="88.697" cy="41.037" r="2.35" fill="#7B3328"/><path fill="#7B3328" d="M86.437 24.584a2.262 2.262 0 1 1 4.52 0l-.43 11.167a1.832 1.832 0 0 1-3.661 0z"/></g></g><defs><clipPath id="beasadtiZx0w8d3tuPRv__muW-tbjwy-DPmh7cSmd8s_a"><path fill="#fff" d="M0 0h150v150H0z"/></clipPath><clipPath id="beasadtiZx0w8d3tuPRv__muW-tbjwy-DPmh7cSmd8s_b"><rect width="125" height="125" x="12.5" y="12.5" fill="#fff" rx="62.5"/></clipPath></defs></svg>