<svg xmlns="http://www.w3.org/2000/svg" width="150" height="150" fill="none" class="persona-ilustration" viewBox="0 0 150 150"><g clip-path="url(#bvnhMrRLpv_a)"><rect width="125" height="125" x="12.5" y="12.5" fill="#D3EDFF" rx="62.5"/><path fill="#3E68F5" d="M15.502 82.844a5.485 5.485 0 0 1 5.486-5.486h35.105a5.485 5.485 0 0 1 5.485 5.486v35.105a5.485 5.485 0 0 1-5.485 5.485H20.988a5.485 5.485 0 0 1-5.486-5.485z"/><path fill="#F8F8F8" fill-rule="evenodd" d="M39.772 95.009c.757 0 1.37.614 1.37 1.37v2.862a3.93 3.93 0 0 1-1.911 3.373l-.936.559a1.371 1.371 0 0 1-1.408-2.353l.936-.56c.358-.214.577-.601.577-1.019V96.38c0-.757.614-1.371 1.372-1.371M46.184 90.917c.758 0 1.372.614 1.372 1.371v2.266a1.371 1.371 0 1 1-2.743 0v-2.266c0-.757.614-1.371 1.371-1.371M31.18 90.917c.757 0 1.37.614 1.37 1.371v2.266a1.371 1.371 0 1 1-2.742 0v-2.266c0-.757.614-1.371 1.371-1.371M46.325 104.81c.601.46.716 1.32.256 1.922-1.642 2.148-4.643 3.448-7.9 3.448-3.256 0-6.257-1.3-7.9-3.448a1.371 1.371 0 0 1 2.18-1.666c1.01 1.323 3.114 2.372 5.72 2.372s4.71-1.05 5.722-2.372a1.37 1.37 0 0 1 1.922-.256M26.473 86.41c-1.06 0-1.92.859-1.92 1.919v6.331a1.371 1.371 0 0 1-2.742 0V88.33a4.663 4.663 0 0 1 4.662-4.662h6.331a1.371 1.371 0 1 1 0 2.742zM43.188 85.06c0-.758.613-1.372 1.37-1.372h6.332a4.663 4.663 0 0 1 4.663 4.662v6.332a1.371 1.371 0 1 1-2.743 0V88.35c0-1.06-.86-1.92-1.92-1.92H44.56a1.37 1.37 0 0 1-1.371-1.37M54.181 105.065c.758 0 1.372.614 1.372 1.372v6.331a4.663 4.663 0 0 1-4.663 4.663H44.56a1.372 1.372 0 0 1 0-2.743h6.331c1.06 0 1.92-.86 1.92-1.92v-6.331c0-.758.614-1.372 1.371-1.372M23.182 105.065c.757 0 1.371.614 1.371 1.372v6.331c0 1.06.86 1.92 1.92 1.92h6.331a1.371 1.371 0 1 1 0 2.743h-6.331a4.663 4.663 0 0 1-4.662-4.663v-6.331c0-.758.613-1.372 1.37-1.372" clip-rule="evenodd"/><rect width="65.621" height="96.869" x="67.737" y="26.565" fill="#FFF9E1" rx="7.812"/><rect width="65.621" height="62.496" x="67.737" y="26.566" fill="#FFF9E1" rx="7.812"/><rect width="40.623" height="4.687" x="80.236" y="42.19" fill="#FFB26F" rx="2.344"/><rect width="40.623" height="4.687" x="80.236" y="57.814" fill="#FFB26F" rx="2.344"/><rect width="40.623" height="4.687" x="80.236" y="73.438" fill="#FFB26F" rx="2.344"/><rect width="40.623" height="4.687" x="80.236" y="89.062" fill="#FFB26F" rx="2.344"/><rect width="40.623" height="4.687" x="80.236" y="104.686" fill="#FFB26F" rx="2.344"/><path fill="#3FB4FF" d="M15.502 32.06a5.485 5.485 0 0 1 5.486-5.485h35.105a5.485 5.485 0 0 1 5.485 5.485v35.105a5.485 5.485 0 0 1-5.485 5.486H20.988a5.485 5.485 0 0 1-5.486-5.486z"/><path fill="#3FB4FF" d="M23.182 39.287c0-.962.78-1.742 1.741-1.742h27.862c.961 0 1.74.78 1.74 1.741v20.897c0 .961-.779 1.741-1.74 1.741H24.923c-.962 0-1.741-.78-1.741-1.741z"/><path fill="#fff" fill-rule="evenodd" d="M21.81 39.287a3.113 3.113 0 0 1 3.113-3.113h27.862a3.113 3.113 0 0 1 3.112 3.112v20.897a3.113 3.113 0 0 1-3.112 3.112H24.923a3.113 3.113 0 0 1-3.112-3.112zm3.113-.37a.37.37 0 0 0-.37.37v20.896c0 .204.166.37.37.37h27.862a.37.37 0 0 0 .37-.37V39.286a.37.37 0 0 0-.37-.37z" clip-rule="evenodd"/><path fill="#fff" fill-rule="evenodd" d="M27.035 42.769c0-.757.614-1.371 1.371-1.371h20.896a1.371 1.371 0 1 1 0 2.742H28.406a1.37 1.37 0 0 1-1.371-1.371M27.035 47.993c0 .758.614 1.371 1.371 1.371h5.224a1.371 1.371 0 1 0 0-2.742h-5.224c-.757 0-1.371.614-1.371 1.371M27.035 53.217c0 .758.614 1.372 1.371 1.372h5.224a1.371 1.371 0 1 0 0-2.743h-5.224c-.757 0-1.371.614-1.371 1.371" clip-rule="evenodd"/><path fill="#3FB4FF" d="M42.337 47.993h6.965V56.7h-6.965z"/><path fill="#fff" fill-rule="evenodd" d="M40.965 47.993c0-.757.614-1.371 1.372-1.371h6.965c.757 0 1.371.614 1.371 1.371V56.7c0 .757-.614 1.371-1.371 1.371h-6.965a1.37 1.37 0 0 1-1.372-1.371zm2.743 1.371v5.965h4.223v-5.965z" clip-rule="evenodd"/></g><defs><clipPath id="bvnhMrRLpv_a"><path fill="#fff" d="M0 0h150v150H0z"/></clipPath></defs></svg>