<svg xmlns="http://www.w3.org/2000/svg" width="240" height="240" fill="none" class="persona-ilustration" viewBox="0 0 240 240"><g clip-path="url(#Zw6wkawUxr_a)"><rect width="200" height="200" x="20" y="20" fill="#D3EDFF" rx="100"/><path fill="#3E68F5" d="M24.804 132.55a8.777 8.777 0 0 1 8.776-8.777H89.75a8.777 8.777 0 0 1 8.776 8.777v56.169a8.776 8.776 0 0 1-8.776 8.776H33.58a8.776 8.776 0 0 1-8.776-8.776z"/><path fill="#F8F8F8" fill-rule="evenodd" d="M63.635 152.014c1.212 0 2.194.982 2.194 2.194v4.578a6.29 6.29 0 0 1-3.06 5.396l-1.497.895a2.195 2.195 0 0 1-2.252-3.766l1.497-.895a1.9 1.9 0 0 0 .924-1.63v-4.578c0-1.212.982-2.194 2.194-2.194M73.894 145.467c1.212 0 2.194.982 2.194 2.194v3.626a2.194 2.194 0 0 1-4.388 0v-3.626c0-1.212.983-2.194 2.194-2.194M49.886 145.467c1.212 0 2.194.982 2.194 2.194v3.626a2.194 2.194 0 0 1-4.388 0v-3.626c0-1.212.982-2.194 2.194-2.194M74.12 167.695a2.195 2.195 0 0 1 .41 3.076c-2.628 3.437-7.43 5.517-12.64 5.517s-10.012-2.08-12.64-5.516a2.194 2.194 0 0 1 3.486-2.666c1.618 2.116 4.984 3.794 9.154 3.794s7.536-1.678 9.154-3.794a2.194 2.194 0 0 1 3.075-.411M42.356 138.255a3.07 3.07 0 0 0-3.071 3.071v10.13a2.195 2.195 0 1 1-4.388 0v-10.13a7.46 7.46 0 0 1 7.46-7.46h10.13a2.195 2.195 0 0 1 0 4.389zM69.1 136.094c0-1.211.982-2.194 2.194-2.194h10.13a7.46 7.46 0 0 1 7.46 7.46v10.13a2.195 2.195 0 1 1-4.388 0v-10.13a3.07 3.07 0 0 0-3.072-3.071h-10.13a2.195 2.195 0 0 1-2.194-2.195M86.69 168.105c1.212 0 2.194.982 2.194 2.194v10.13a7.46 7.46 0 0 1-7.46 7.46h-10.13a2.194 2.194 0 1 1 0-4.388h10.13a3.07 3.07 0 0 0 3.072-3.072v-10.13c0-1.212.982-2.194 2.194-2.194M37.09 168.105c1.212 0 2.195.982 2.195 2.194v10.13a3.07 3.07 0 0 0 3.071 3.072h10.13a2.194 2.194 0 1 1 0 4.388h-10.13a7.46 7.46 0 0 1-7.46-7.46v-10.13c0-1.212.983-2.194 2.195-2.194" clip-rule="evenodd"/><rect width="104.994" height="154.991" x="108.38" y="42.505" fill="#FFF9E1" rx="12.499"/><rect width="104.994" height="99.994" x="108.38" y="42.505" fill="#FFF9E1" rx="12.499"/><rect width="64.996" height="7.5" x="128.378" y="67.504" fill="#FFB26F" rx="3.75"/><rect width="64.996" height="7.5" x="128.378" y="92.502" fill="#FFB26F" rx="3.75"/><rect width="64.996" height="7.5" x="128.378" y="117.501" fill="#FFB26F" rx="3.75"/><rect width="64.996" height="7.5" x="128.378" y="142.499" fill="#FFB26F" rx="3.75"/><rect width="64.996" height="7.5" x="128.378" y="167.498" fill="#FFB26F" rx="3.75"/><path fill="#3FB4FF" d="M24.804 51.296a8.776 8.776 0 0 1 8.776-8.776H89.75a8.776 8.776 0 0 1 8.776 8.776v56.169a8.776 8.776 0 0 1-8.776 8.776H33.58a8.776 8.776 0 0 1-8.776-8.776z"/><path fill="#3FB4FF" d="M37.091 62.858a2.786 2.786 0 0 1 2.786-2.786h44.579a2.786 2.786 0 0 1 2.786 2.786v33.434a2.786 2.786 0 0 1-2.786 2.786H39.877a2.786 2.786 0 0 1-2.786-2.786z"/><path fill="#fff" fill-rule="evenodd" d="M34.897 62.858a4.98 4.98 0 0 1 4.98-4.98h44.578a4.98 4.98 0 0 1 4.98 4.98v33.434a4.98 4.98 0 0 1-4.98 4.98H39.877a4.98 4.98 0 0 1-4.98-4.98zm4.98-.592a.59.59 0 0 0-.592.592v33.434c0 .327.265.592.592.592h44.578a.59.59 0 0 0 .592-.592V62.858a.59.59 0 0 0-.592-.592z" clip-rule="evenodd"/><path fill="#fff" fill-rule="evenodd" d="M43.255 68.43c0-1.211.982-2.194 2.194-2.194h33.434a2.194 2.194 0 0 1 0 4.388H45.449a2.194 2.194 0 0 1-2.194-2.194M43.255 76.79c0 1.21.982 2.193 2.194 2.193h8.358a2.194 2.194 0 0 0 0-4.388H45.45a2.194 2.194 0 0 0-2.194 2.194M43.255 85.148c0 1.212.982 2.194 2.194 2.194h8.358a2.194 2.194 0 1 0 0-4.388H45.45a2.194 2.194 0 0 0-2.194 2.194" clip-rule="evenodd"/><path fill="#3FB4FF" d="M67.738 76.79h11.145v13.93H67.738z"/><path fill="#fff" fill-rule="evenodd" d="M65.544 76.79c0-1.213.982-2.195 2.194-2.195h11.145c1.211 0 2.194.982 2.194 2.194v13.93a2.194 2.194 0 0 1-2.194 2.195H67.738a2.194 2.194 0 0 1-2.194-2.194zm4.388 2.193v9.543h6.757v-9.543z" clip-rule="evenodd"/></g><defs><clipPath id="Zw6wkawUxr_a"><path fill="#fff" d="M0 0h240v240H0z"/></clipPath></defs></svg>