<svg xmlns="http://www.w3.org/2000/svg" width="16" height="16" fill="none" class="persona-icon" viewBox="0 0 16 16"><path fill="currentColor" fill-rule="evenodd" d="M5.152 1c.269 0 .487.224.487.5v.8h4.09v-.8c0-.276.217-.5.486-.5.27 0 .487.224.487.5v.8h.78c1.317 0 2.385 1.097 2.385 2.45v1.3c0 .276-.218.5-.487.5H2.474v5.35c0 .8.632 1.45 1.412 1.45h1.899c.269 0 .486.224.486.5s-.217.5-.486.5h-1.9c-1.317 0-2.385-1.097-2.385-2.45V4.75c0-1.353 1.068-2.45 2.386-2.45h.779v-.8c0-.276.218-.5.487-.5m7.741 3.75c0-.8-.632-1.45-1.412-1.45h-.779v.8c0 .276-.218.5-.487.5a.494.494 0 0 1-.487-.5v-.8h-4.09v.8c0 .276-.217.5-.486.5a.494.494 0 0 1-.487-.5v-.8h-.78c-.779 0-1.411.65-1.411 1.45v.8h10.42z" clip-rule="evenodd"/><path fill="currentColor" fill-rule="evenodd" d="M10.096 8.376a.81.81 0 0 1 1.452 0l.698 1.414 1.56.227a.81.81 0 0 1 .449 1.38l-1.13 1.101.267 1.554a.81.81 0 0 1-1.174.853l-1.396-.733-1.395.733a.81.81 0 0 1-1.175-.853l.267-1.554-1.13-1.1a.81.81 0 0 1 .45-1.381l1.56-.227zm.726.79-.571 1.156a.81.81 0 0 1-.61.443l-1.277.186.925.9a.81.81 0 0 1 .232.717l-.218 1.273 1.142-.601a.81.81 0 0 1 .754 0l1.142.6-.218-1.272a.81.81 0 0 1 .233-.716l.924-.901-1.277-.186a.81.81 0 0 1-.61-.443z" clip-rule="evenodd"/></svg>