<svg xmlns="http://www.w3.org/2000/svg" width="32" height="32" fill="none" class="persona-icon" viewBox="0 0 32 32"><path fill="currentColor" fill-rule="evenodd" d="M12.111 3.167V4.61h7.778V3.167a1 1 0 1 1 2 0V4.61h1.444A4.667 4.667 0 0 1 28 9.278v2.444a1 1 0 0 1-1 1H6v10a2.667 2.667 0 0 0 2.667 2.667h3.666a1 1 0 1 1 0 2H8.667A4.667 4.667 0 0 1 4 22.722V9.278A4.667 4.667 0 0 1 8.667 4.61h1.444V3.167a1 1 0 1 1 2 0m7.778 4.888V6.611H12.11v1.444a1 1 0 1 1-2 0V6.611H8.667A2.667 2.667 0 0 0 6 9.278v1.444h20V9.278a2.667 2.667 0 0 0-2.667-2.667H21.89v1.444a1 1 0 1 1-2 0" clip-rule="evenodd"/><path fill="currentColor" fill-rule="evenodd" d="m23.556 16.168 1.374 2.785 3.074.446c1.322.192 1.85 1.816.893 2.748l-2.224 2.168.525 3.061c.226 1.317-1.156 2.32-2.338 1.699l-2.749-1.445-2.749 1.445c-1.182.621-2.563-.382-2.337-1.698l.524-3.062-2.223-2.168c-.957-.932-.43-2.556.892-2.748l3.074-.446 1.374-2.785c.591-1.198 2.299-1.198 2.89 0m-2.561 3.853a1.61 1.61 0 0 1-1.213.881l-2.496.363 1.806 1.76c.38.371.553.904.463 1.427l-.426 2.486 2.232-1.174a1.61 1.61 0 0 1 1.5 0l2.232 1.174-.426-2.486a1.61 1.61 0 0 1 .463-1.426l1.807-1.76-2.497-.363a1.61 1.61 0 0 1-1.213-.882l-1.116-2.262z" clip-rule="evenodd"/></svg>