<svg xmlns="http://www.w3.org/2000/svg" width="16" height="16" fill="none" class="persona-icon" viewBox="0 0 16 16"><path fill="currentColor" fill-rule="evenodd" d="M4.639 2a.5.5 0 0 1 .5.5v1.64h1.64a.5.5 0 0 1 0 1h-1.64v1.638a.5.5 0 0 1-1 0V5.14H2.5a.5.5 0 1 1 0-1H4.14V2.5a.5.5 0 0 1 .5-.5m4.083 1.112C8.722 2.498 9.22 2 9.833 2h3.056C13.503 2 14 2.498 14 3.112v3.055c0 .614-.498 1.111-1.111 1.111H9.833a1.11 1.11 0 0 1-1.11-1.11zM2 9.833c0-.614.498-1.111 1.111-1.111h3.056c.613 0 1.11.497 1.11 1.111v3.056c0 .613-.497 1.11-1.11 1.11H3.11A1.11 1.11 0 0 1 2 12.89zm6.722 0c0-.614.498-1.111 1.111-1.111h3.056c.614 0 1.111.497 1.111 1.111v3.056c0 .613-.498 1.11-1.111 1.11H9.833a1.11 1.11 0 0 1-1.11-1.11zM9.833 3a.11.11 0 0 0-.11.111v3.056c0 .061.05.111.11.111h3.056c.061 0 .111-.05.111-.11V3.111A.11.11 0 0 0 12.889 3zM3.111 9.722A.11.11 0 0 0 3 9.833v3.056c0 .06.05.11.111.11h3.056c.06 0 .11-.05.11-.11V9.833a.11.11 0 0 0-.11-.111zm6.722 0a.11.11 0 0 0-.11.111v3.056c0 .06.05.11.11.11h3.056c.061 0 .111-.05.111-.11V9.833a.11.11 0 0 0-.111-.111z" clip-rule="evenodd"/></svg>