<svg xmlns="http://www.w3.org/2000/svg" width="24" height="24" fill="none" class="persona-icon" viewBox="0 0 24 24"><path fill="currentColor" fill-rule="evenodd" d="M13.282 3.795c0-.991.804-1.795 1.795-1.795h5.128C21.196 2 22 2.804 22 3.795v5.128c0 .991-.804 1.795-1.795 1.795h-5.128a1.795 1.795 0 0 1-1.795-1.795zm1.795-.256a.256.256 0 0 0-.257.256v5.128c0 .142.115.257.257.257h5.128a.256.256 0 0 0 .257-.257V3.795a.256.256 0 0 0-.257-.256zM2 15.077c0-.991.804-1.795 1.795-1.795h5.128c.991 0 1.795.804 1.795 1.795v5.128c0 .991-.804 1.795-1.795 1.795H3.795A1.795 1.795 0 0 1 2 20.205zm1.795-.257a.256.256 0 0 0-.256.257v5.128c0 .142.114.257.256.257h5.128a.256.256 0 0 0 .257-.257v-5.128a.256.256 0 0 0-.257-.257zM13.282 15.077c0-.991.804-1.795 1.795-1.795h5.128c.991 0 1.795.804 1.795 1.795v5.128c0 .991-.804 1.795-1.795 1.795h-5.128a1.795 1.795 0 0 1-1.795-1.795zm1.795-.257a.256.256 0 0 0-.257.257v5.128c0 .142.115.257.257.257h5.128a.256.256 0 0 0 .257-.257v-5.128a.256.256 0 0 0-.257-.257zM6.359 2a.77.77 0 0 1 .77.77v7.179a.77.77 0 1 1-1.54 0v-7.18A.77.77 0 0 1 6.36 2" clip-rule="evenodd"/><path fill="currentColor" fill-rule="evenodd" d="M10.718 6.359a.77.77 0 0 1-.77.77H2.77a.77.77 0 0 1 0-1.54h7.18a.77.77 0 0 1 .769.77" clip-rule="evenodd"/></svg>