<svg xmlns="http://www.w3.org/2000/svg" width="16" height="16" fill="none" class="persona-icon" viewBox="0 0 16 16"><path fill="currentColor" fill-rule="evenodd" d="M5.429 1.714H8.34c.495 0 .968.205 1.306.567L12.52 5.36c.309.331.48.766.48 1.219v5.167a.5.5 0 0 0-.13-.224l-1.928-1.929a.5.5 0 1 0-.707.707l1.075 1.075H8.643a.75.75 0 0 1-.751-.75V9.25a.5.5 0 0 0-1 0v1.373c0 .966.784 1.75 1.75 1.75h2.668l-1.075 1.075a.5.5 0 0 0 .22.836H5.43A2.43 2.43 0 0 1 3 11.857V4.142A2.43 2.43 0 0 1 5.43 1.714m3.714 3.072c0 .434.352.785.786.785h1.421L9.143 3.207z" clip-rule="evenodd"/><path fill="currentColor" d="M12.995 12.024a2.43 2.43 0 0 1-2.254 2.255.5.5 0 0 0 .201-.123l1.929-1.928a.5.5 0 0 0 .124-.204"/></svg>