<svg xmlns="http://www.w3.org/2000/svg" width="20" height="20" fill="none" class="persona-icon" viewBox="0 0 20 20"><path fill="currentColor" fill-rule="evenodd" d="M6.915 2.432a2.94 2.94 0 0 0-2.94 2.939v9.257a2.94 2.94 0 0 0 2.94 2.94h6.029a.625.625 0 0 1-.279-1.045l1.247-1.248h-3.14a2.126 2.126 0 0 1-2.127-2.127v-1.647a.625.625 0 1 1 1.25 0v1.647c0 .484.393.877.876.877h3.141l-1.247-1.248a.625.625 0 0 1 .884-.884l2.314 2.315c.081.08.135.179.162.282V8.293c0-.549-.208-1.077-.583-1.479L11.995 3.12a2.17 2.17 0 0 0-1.585-.688zm4.482 3.71v-1.83l2.565 2.749h-1.648a.92.92 0 0 1-.918-.918" clip-rule="evenodd"/><path fill="currentColor" d="M16.018 14.834a.6.6 0 0 1-.155.258l-2.314 2.314a.6.6 0 0 1-.255.154 2.94 2.94 0 0 0 2.724-2.726"/></svg>