<svg xmlns="http://www.w3.org/2000/svg" width="32" height="32" fill="none"><path fill="#000" fill-rule="evenodd" d="M7.532 8c0-1.657 1.365-3 3.049-3h5.758v4.333c0 2.025 1.668 3.667 3.726 3.667h5.419c.404 0 .77-.236.932-.601a.988.988 0 0 0-.19-1.081l-6.783-7.153A3.754 3.754 0 0 0 16.719 3h-6.138C7.775 3 5.5 5.239 5.5 8v16c0 2.761 2.275 5 5.08 5h2.71c.562 0 1.016-.448 1.016-1s-.454-1-1.016-1h-2.71c-1.683 0-3.048-1.343-3.048-3V8Zm15.499 3h-2.966c-.936 0-1.694-.746-1.694-1.667V6.414L23.031 11Z" clip-rule="evenodd"/><path fill="#000" fill-rule="evenodd" d="M28.5 22a7 7 0 1 1-14 0 7 7 0 0 1 14 0Zm-7-4.348c-.625 0-1.31.128-1.871.456-.587.342-1.077.94-1.077 1.792a.848.848 0 0 0 1.697 0c0-.069.015-.118.043-.162a.55.55 0 0 1 .193-.166c.227-.132.591-.224 1.015-.224.425 0 .79.092 1.016.224a.55.55 0 0 1 .193.166.283.283 0 0 1 .043.162c0 .367-.14.579-.331.723-.22.165-.553.27-.92.27a.848.848 0 0 0-.849.847v.96a.848.848 0 0 0 1.697 0v-.213c.383-.095.762-.26 1.094-.51.604-.456 1.006-1.164 1.006-2.077 0-.852-.49-1.45-1.077-1.792-.56-.328-1.246-.456-1.872-.456ZM20.476 25.5a1.023 1.023 0 1 1 2.047 0 1.023 1.023 0 0 1-2.047 0Z" clip-rule="evenodd"/></svg>