<svg xmlns="http://www.w3.org/2000/svg" width="32" height="32" fill="none"><path fill="#000" fill-rule="evenodd" d="M15.442 2.174a.982.982 0 0 1 1.116 0c2.201 1.518 5.118 4.323 7.306 7.78 2.183 3.45 3.724 7.686 2.92 12.008a1.297 1.297 0 0 1-.008.04c-.806 3.54-2.709 5.586-4.861 6.712C19.809 29.816 17.54 30 16 30s-3.81-.184-5.915-1.286c-2.152-1.126-4.055-3.172-4.86-6.712a1.028 1.028 0 0 1-.009-.04c-.804-4.322.736-8.557 2.92-12.008 2.188-3.457 5.105-6.262 7.306-7.78Zm-8.283 19.4c.675 2.946 2.196 4.506 3.837 5.364C12.688 27.823 14.584 28 16 28c1.416 0 3.312-.177 5.004-1.062 1.64-.858 3.162-2.418 3.837-5.365.666-3.615-.604-7.317-2.645-10.541C20.34 8.1 17.918 5.676 16 4.229c-1.918 1.447-4.341 3.872-6.196 6.803-2.04 3.224-3.311 6.926-2.645 10.541Z" clip-rule="evenodd"/><path fill="#000" fill-rule="evenodd" d="M16 15c.547 0 .99.448.99 1v7.944c0 .553-.443 1-.99 1a.995.995 0 0 1-.99-1V16c0-.552.443-1 .99-1Z" clip-rule="evenodd"/><path fill="#000" fill-rule="evenodd" d="M20.922 19.972c0 .552-.443 1-.99 1h-7.864a.995.995 0 0 1-.99-1c0-.552.443-1 .99-1h7.864c.547 0 .99.448.99 1Z" clip-rule="evenodd"/></svg>