<?xml version="1.0" encoding="UTF-8"?>
<svg width="204px" height="131px" viewBox="0 0 204 131" version="1.1" xmlns="http://www.w3.org/2000/svg" xmlns:xlink="http://www.w3.org/1999/xlink">
    <!-- Generator: Sketch 56.2 (81672) - https://sketch.com -->
    <title>Logo / Official / Icon</title>
    <desc>Created with Sketch.</desc>
    <defs>
        <linearGradient x1="38.7719181%" y1="36.9455946%" x2="99.7458708%" y2="100%" id="linearGradient-1">
            <stop stop-color="#000000" stop-opacity="0" offset="0%"></stop>
            <stop stop-color="#000000" stop-opacity="0.0536334208" offset="10.2711585%"></stop>
            <stop stop-color="#000000" stop-opacity="0.105631912" offset="19.6570832%"></stop>
            <stop stop-color="#000000" stop-opacity="0.191598599" offset="30.3099808%"></stop>
            <stop stop-color="#000000" stop-opacity="0.245360094" offset="38.6504069%"></stop>
            <stop stop-color="#000000" offset="100%"></stop>
        </linearGradient>
    </defs>
    <g id="Logo-/-Official-/-Icon" stroke="none" stroke-width="1" fill="none" fill-rule="evenodd">
        <path d="M20.1359203,112.815313 C31.9636339,124.668638 48.3036075,132 66.352117,132 C84.4004497,132 100.740247,124.668638 112.567783,112.815313 L205,20.1846867 C193.172286,8.33136183 176.832313,1 158.78398,1 C140.735471,1 124.395674,8.33136183 112.568137,20.1845095 L112.56796,20.1846867 C100.740247,8.33136183 84.4004497,1 66.3522937,1 C27.5673268,1 3.02528496,30.2248333 1,67.4713328 C1.25682833,85.1728482 8.52049215,101.17473 20.1359203,112.815313 Z" id="Path" fill="#E42E2C"></path>
        <path d="M113,20.2653956 C101.126484,8.36220448 84.7234126,1 66.6053663,1 C27.6702071,1 3.03312774,30.3477806 1,67.7509741 C1.25782288,85.5269588 8.54961478,101.59616 20.2100229,113.285714 L113,20.2653956 Z" id="Path" fill="url(#linearGradient-1)"></path>
    </g>
</svg>