<svg xmlns="http://www.w3.org/2000/svg" xmlns:xlink="http://www.w3.org/1999/xlink" width="204" height="131" version="1.1" viewBox="0 0 204 131"><title>Logo / Official / Icon</title><desc>Created with Sketch.</desc><defs><linearGradient id="linearGradient-1" x1="38.772%" x2="99.746%" y1="36.946%" y2="100%"><stop offset="0%" stop-color="#000" stop-opacity="0"/><stop offset="10.271%" stop-color="#000" stop-opacity=".054"/><stop offset="19.657%" stop-color="#000" stop-opacity=".106"/><stop offset="30.31%" stop-color="#000" stop-opacity=".192"/><stop offset="38.65%" stop-color="#000" stop-opacity=".245"/><stop offset="100%" stop-color="#000"/></linearGradient></defs><g id="Logo-/-Official-/-Icon" fill="none" fill-rule="evenodd" stroke="none" stroke-width="1"><path id="Path" fill="#E42E2C" d="M20.1359203,112.815313 C31.9636339,124.668638 48.3036075,132 66.352117,132 C84.4004497,132 100.740247,124.668638 112.567783,112.815313 L205,20.1846867 C193.172286,8.33136183 176.832313,1 158.78398,1 C140.735471,1 124.395674,8.33136183 112.568137,20.1845095 L112.56796,20.1846867 C100.740247,8.33136183 84.4004497,1 66.3522937,1 C27.5673268,1 3.02528496,30.2248333 1,67.4713328 C1.25682833,85.1728482 8.52049215,101.17473 20.1359203,112.815313 Z"/><path id="Path" fill="url(#linearGradient-1)" d="M113,20.2653956 C101.126484,8.36220448 84.7234126,1 66.6053663,1 C27.6702071,1 3.03312774,30.3477806 1,67.7509741 C1.25782288,85.5269588 8.54961478,101.59616 20.2100229,113.285714 L113,20.2653956 Z"/></g></svg>