<svg xmlns="http://www.w3.org/2000/svg" width="16" height="16" fill="none" class="persona-icon" viewBox="0 0 16 16"><path fill="currentColor" fill-rule="evenodd" d="M4.557 4.944a2.944 2.944 0 1 1 5.89 0 2.944 2.944 0 0 1-5.89 0m8.11.278a.5.5 0 0 1 .5.5v1h1a.5.5 0 1 1 0 1h-1v1a.5.5 0 0 1-1 0v-1h-1a.5.5 0 1 1 0-1h1v-1a.5.5 0 0 1 .5-.5M3.2 10.051a3.95 3.95 0 0 1 3.001-1.384h2.6c1.154 0 2.251.505 3 1.384.344.402.533.914.533 1.443v.173A2.333 2.333 0 0 1 10.002 14h-5a2.333 2.333 0 0 1-2.333-2.333v-.173c0-.529.188-1.04.532-1.443M7.5 3a1.944 1.944 0 1 0 0 3.889 1.944 1.944 0 0 0 0-3.889M6.203 9.667c-.862 0-1.68.377-2.24 1.033a1.22 1.22 0 0 0-.294.794v.173c0 .736.597 1.333 1.334 1.333h5c.736 0 1.333-.597 1.333-1.333v-.173c0-.291-.104-.573-.293-.794a2.95 2.95 0 0 0-2.24-1.033z" clip-rule="evenodd"/></svg>