<svg xmlns="http://www.w3.org/2000/svg" width="20" height="20" fill="none" class="persona-icon" viewBox="0 0 20 20"><path fill="currentColor" fill-rule="evenodd" d="M3.636 12.358a4.64 4.64 0 0 1 3.525-1.626h3.025c1.356 0 2.644.595 3.525 1.626a2.63 2.63 0 0 1 .63 1.708v.2a2.76 2.76 0 0 1-2.759 2.759H5.764a2.76 2.76 0 0 1-2.758-2.758v-.201c0-.626.223-1.232.63-1.708m3.525-.376c-.99 0-1.931.434-2.575 1.188a1.38 1.38 0 0 0-.33.896v.2c0 .834.675 1.509 1.508 1.509h5.818c.833 0 1.509-.675 1.509-1.508v-.201a1.38 1.38 0 0 0-.33-.896 3.39 3.39 0 0 0-2.575-1.187zM5.204 6.445a3.47 3.47 0 1 1 6.939 0 3.47 3.47 0 0 1-6.939 0m3.47-2.22a2.22 2.22 0 1 0 0 4.44 2.22 2.22 0 0 0 0-4.44m6.815 2.306c.345 0 .625.28.625.625V8.47h1.315a.625.625 0 0 1 0 1.25h-1.315v1.314a.625.625 0 1 1-1.25 0V9.72H13.55a.625.625 0 1 1 0-1.25h1.314V7.155c0-.345.28-.625.625-.625" clip-rule="evenodd"/></svg>