<svg xmlns="http://www.w3.org/2000/svg" width="24" height="24" fill="none" class="persona-icon" viewBox="0 0 24 24"><path fill="currentColor" fill-rule="evenodd" d="M3.801 15.076A5.92 5.92 0 0 1 8.303 13h3.9a5.92 5.92 0 0 1 4.501 2.076c.516.604.799 1.372.799 2.165v.259a3.5 3.5 0 0 1-3.5 3.5h-7.5a3.5 3.5 0 0 1-3.5-3.5v-.259c0-.793.283-1.561.798-2.165m4.502-.576a4.42 4.42 0 0 0-3.36 1.55c-.284.332-.44.755-.44 1.191v.259a2 2 0 0 0 2 2h7.5a2 2 0 0 0 2-2v-.259c0-.436-.156-.859-.44-1.191a4.42 4.42 0 0 0-3.36-1.55zM5.836 7.417a4.417 4.417 0 1 1 8.834 0 4.417 4.417 0 0 1-8.834 0M10.253 4.5a2.917 2.917 0 1 0 0 5.833 2.917 2.917 0 0 0 0-5.833m8.497 3.083a.75.75 0 0 1 .75.75v1.75h1.75a.75.75 0 0 1 0 1.5H19.5v1.75a.75.75 0 0 1-1.5 0v-1.75h-1.75a.75.75 0 0 1 0-1.5H18v-1.75a.75.75 0 0 1 .75-.75" clip-rule="evenodd"/></svg>