<svg xmlns="http://www.w3.org/2000/svg" width="16" height="16" fill="none" class="persona-icon" viewBox="0 0 16 16"><path fill="currentColor" d="M3.722 4.333a.611.611 0 1 1 0-1.222.611.611 0 0 1 0 1.222M5.556 3.222h7.333a.5.5 0 0 1 0 1H5.556a.5.5 0 1 1 0-1M5.556 11.778h7.333a.5.5 0 0 1 0 1H5.556a.5.5 0 1 1 0-1M5.056 8a.5.5 0 0 1 .5-.5h7.333a.5.5 0 0 1 0 1H5.556a.5.5 0 0 1-.5-.5M4.333 8a.611.611 0 1 1-1.222 0 .611.611 0 0 1 1.222 0M3.722 12.889a.611.611 0 1 1 0-1.222.611.611 0 0 1 0 1.222"/></svg>