<svg xmlns="http://www.w3.org/2000/svg" width="20" height="20" fill="none" class="persona-icon" viewBox="0 0 20 20"><path fill="currentColor" d="M5.022 5.733a.711.711 0 1 0 0-1.422.711.711 0 0 0 0 1.422M7.156 4.397a.625.625 0 1 0 0 1.25h8.533a.625.625 0 1 0 0-1.25zM7.156 14.353a.625.625 0 1 0 0 1.25h8.533a.625.625 0 1 0 0-1.25zM6.53 10c0-.345.28-.625.626-.625h8.533a.625.625 0 1 1 0 1.25H7.156A.625.625 0 0 1 6.53 10M5.733 10a.711.711 0 1 1-1.422 0 .711.711 0 0 1 1.422 0M5.022 15.689a.711.711 0 1 0 0-1.422.711.711 0 0 0 0 1.422"/></svg>