<svg xmlns="http://www.w3.org/2000/svg" width="24" height="24" fill="none" class="persona-icon" viewBox="0 0 24 24"><path fill="currentColor" fill-rule="evenodd" d="M6.799 5c0-.414.34-.75.76-.75h12.18c.42 0 .761.336.761.75s-.34.75-.761.75H7.559A.756.756 0 0 1 6.8 5M6.799 19c0-.414.34-.75.76-.75h12.18c.42 0 .761.336.761.75s-.34.75-.761.75H7.559A.756.756 0 0 1 6.8 19M6.799 12c0-.414.34-.75.76-.75h12.18c.42 0 .761.336.761.75s-.34.75-.761.75H7.559A.756.756 0 0 1 6.8 12" clip-rule="evenodd"/><path fill="currentColor" d="M5.53 5c0 .552-.455 1-1.015 1S3.5 5.552 3.5 5s.454-1 1.015-1 1.015.448 1.015 1M5.53 12c0 .552-.455 1-1.015 1S3.5 12.552 3.5 12s.454-1 1.015-1 1.015.448 1.015 1M5.53 19c0 .552-.455 1-1.015 1S3.5 19.552 3.5 19s.454-1 1.015-1 1.015.448 1.015 1"/></svg>