<svg xmlns="http://www.w3.org/2000/svg" width="32" height="32" fill="none" class="persona-icon" viewBox="0 0 32 32"><path fill="currentColor" d="M7.444 8.667a1.222 1.222 0 1 0 0-2.445 1.222 1.222 0 0 0 0 2.445M11.11 6.444a1 1 0 0 0 0 2h14.668a1 1 0 1 0 0-2zM11.11 23.556a1 1 0 0 0 0 2h14.668a1 1 0 1 0 0-2zM10.11 16a1 1 0 0 1 1-1h14.668a1 1 0 1 1 0 2H11.11a1 1 0 0 1-1-1M8.667 16a1.222 1.222 0 1 1-2.445 0 1.222 1.222 0 0 1 2.445 0M7.444 25.778a1.222 1.222 0 1 0 0-2.445 1.222 1.222 0 0 0 0 2.445"/></svg>