<svg xmlns="http://www.w3.org/2000/svg" width="32" height="32" fill="none" class="persona-icon" viewBox="0 0 32 32"><path fill="currentColor" fill-rule="evenodd" d="M8.667 4A4.667 4.667 0 0 0 4 8.667v14.666A4.667 4.667 0 0 0 8.667 28h14.666A4.667 4.667 0 0 0 28 23.333V8.667A4.667 4.667 0 0 0 23.333 4zM6 8.667A2.667 2.667 0 0 1 8.667 6H11v20H8.667A2.667 2.667 0 0 1 6 23.333zM13 26V6h10.333A2.667 2.667 0 0 1 26 8.667v14.666A2.667 2.667 0 0 1 23.333 26z" clip-rule="evenodd"/><path fill="currentColor" fill-rule="evenodd" d="M4 8.667A4.667 4.667 0 0 1 8.667 4h14.666A4.667 4.667 0 0 1 28 8.667v14.666A4.667 4.667 0 0 1 23.333 28H8.667A4.667 4.667 0 0 1 4 23.333zM13 26h10.333A2.667 2.667 0 0 0 26 23.333V8.667A2.667 2.667 0 0 0 23.333 6H13z" clip-rule="evenodd"/></svg>