<svg xmlns="http://www.w3.org/2000/svg" width="16" height="16" fill="none" class="persona-icon" viewBox="0 0 16 16"><path fill="currentColor" fill-rule="evenodd" d="M5.43 2.715C4.64 2.715 4 3.355 4 4.143v7.714c0 .788.64 1.428 1.428 1.428H8a.5.5 0 1 1 0 1H5.43A2.43 2.43 0 0 1 3 11.857V4.143a2.43 2.43 0 0 1 2.428-2.428h2.913c.495 0 .967.205 1.305.567L12.52 5.36c.308.33.48.766.48 1.218v2.047a.5.5 0 1 1-1 0V6.572H9.93c-.986 0-1.786-.8-1.786-1.786V2.715zm5.698 6.505a.5.5 0 0 1 .5.5v1.532h1.532a.5.5 0 0 1 0 1h-1.532v1.533a.5.5 0 1 1-1 0v-1.533H9.095a.5.5 0 1 1 0-1h1.533V9.72a.5.5 0 0 1 .5-.5M9.144 3.209v1.577c0 .434.352.786.786.786h1.42z" clip-rule="evenodd"/></svg>