<svg xmlns="http://www.w3.org/2000/svg" width="16" height="16" fill="none" class="persona-icon" viewBox="0 0 16 16"><path fill="currentColor" fill-rule="evenodd" d="M4 4.143c0-.789.64-1.428 1.429-1.428h2.715v2.071c0 .986.8 1.786 1.785 1.786H12v2.053a.5.5 0 0 0 1 0V6.578c0-.452-.171-.887-.48-1.218L9.647 2.282a1.79 1.79 0 0 0-1.306-.567H5.43A2.43 2.43 0 0 0 3 4.143v7.714a2.43 2.43 0 0 0 2.428 2.428H8a.5.5 0 0 0 0-1H5.429c-.789 0-1.428-.64-1.428-1.428zm7.349 1.429h-1.42a.786.786 0 0 1-.785-.786V3.209z" clip-rule="evenodd"/><path fill="currentColor" d="M11.128 9.22a.5.5 0 0 1 .5.5v1.532h1.532a.5.5 0 0 1 0 1h-1.533v1.533a.5.5 0 1 1-1 0v-1.533H9.095a.5.5 0 1 1 0-1h1.534V9.72a.5.5 0 0 1 .5-.5"/></svg>