<svg xmlns="http://www.w3.org/2000/svg" width="20" height="20" fill="none" class="persona-icon" viewBox="0 0 20 20"><path fill="currentColor" fill-rule="evenodd" d="M5.223 5.37c0-.933.757-1.69 1.69-1.69h3.234v2.462c0 1.197.97 2.168 2.168 2.168h2.462v2.44a.625.625 0 1 0 1.25 0V8.294c0-.549-.209-1.078-.583-1.48l-3.45-3.694a2.17 2.17 0 0 0-1.584-.689H6.913a2.94 2.94 0 0 0-2.94 2.94v9.26a2.94 2.94 0 0 0 2.94 2.94H10a.625.625 0 1 0 0-1.25H6.913a1.69 1.69 0 0 1-1.69-1.69zm8.74 1.69h-1.648a.92.92 0 0 1-.918-.918V4.31z" clip-rule="evenodd"/><path fill="currentColor" d="M13.755 11.44c.345 0 .625.28.625.625v1.815h1.815a.625.625 0 0 1 0 1.25H14.38v1.815a.625.625 0 1 1-1.25 0V15.13h-1.815a.625.625 0 1 1 0-1.25h1.815v-1.815c0-.345.28-.625.625-.625"/></svg>