<svg xmlns="http://www.w3.org/2000/svg" width="24" height="24" fill="none" class="persona-icon" viewBox="0 0 24 24"><path fill="currentColor" fill-rule="evenodd" d="M5.556 5.833A2.333 2.333 0 0 1 7.889 3.5h4.389v3.361a2.806 2.806 0 0 0 2.805 2.806h3.36l.001.06V13a.75.75 0 0 0 1.5 0V9.727c0-.71-.27-1.395-.754-1.914L14.597 2.89A2.8 2.8 0 0 0 12.546 2H7.889a3.833 3.833 0 0 0-3.833 3.833v12.334A3.833 3.833 0 0 0 7.889 22h4.11a.75.75 0 0 0 0-1.5H7.89a2.333 2.333 0 0 1-2.333-2.333zm11.912 2.334h-2.385a1.306 1.306 0 0 1-1.305-1.306V4.212z" clip-rule="evenodd"/><path fill="currentColor" d="M17 14a.75.75 0 0 1 .75.75v2.5h2.5a.75.75 0 0 1 0 1.5h-2.5v2.5a.75.75 0 0 1-1.5 0v-2.5h-2.5a.75.75 0 0 1 0-1.5h2.5v-2.5A.75.75 0 0 1 17 14"/></svg>