<svg xmlns="http://www.w3.org/2000/svg" width="24" height="24" fill="none" class="persona-icon" viewBox="0 0 24 24"><path fill="currentColor" fill-rule="evenodd" d="M5.556 5.833v12.334A2.333 2.333 0 0 0 7.889 20.5h4.11a.75.75 0 0 1 0 1.5H7.89a3.833 3.833 0 0 1-3.833-3.833V5.833A3.833 3.833 0 0 1 7.889 2h4.657c.777 0 1.52.323 2.05.891l4.594 4.922c.485.52.754 1.203.754 1.914V13a.75.75 0 0 1-1.5 0V9.727l-.001-.06h-3.36a2.806 2.806 0 0 1-2.805-2.806V3.5h-4.39a2.333 2.333 0 0 0-2.332 2.333m11.912 2.334-3.69-3.955v2.65c0 .72.584 1.305 1.305 1.305z" clip-rule="evenodd"/><path fill="currentColor" d="M17 14a.75.75 0 0 1 .75.75v2.5h2.5a.75.75 0 0 1 0 1.5h-2.5v2.5a.75.75 0 0 1-1.5 0v-2.5h-2.5a.75.75 0 0 1 0-1.5h2.5v-2.5A.75.75 0 0 1 17 14"/></svg>