<svg xmlns="http://www.w3.org/2000/svg" width="32" height="32" fill="none"><path fill="#000" d="M12.338 7.778c-.56 0-1.014.447-1.014 1 0 .552.454 1 1.014 1h10.254c.56 0 1.014-.448 1.014-1 0-.553-.454-1-1.014-1H12.338ZM12.338 15c-.56 0-1.014.448-1.014 1s.454 1 1.014 1h10.254c.56 0 1.014-.448 1.014-1s-.454-1-1.014-1H12.338ZM12.338 22.222c-.56 0-1.014.448-1.014 1s.454 1 1.014 1h10.254c.56 0 1.014-.448 1.014-1s-.454-1-1.014-1H12.338Z"/><path fill="#000" fill-rule="evenodd" d="M5.465 7.333C5.465 4.388 7.886 2 10.873 2h11.719C25.578 2 28 4.388 28 7.333v17.334C28 27.612 25.579 30 22.591 30H10.873c-2.987 0-5.408-2.388-5.408-5.333v-.445h-.45c-.561 0-1.015-.448-1.015-1s.454-1 1.014-1h.45V17h-.45C4.454 17 4 16.552 4 16s.454-1 1.014-1h.45V9.778h-.45c-.56 0-1.014-.448-1.014-1 0-.553.454-1 1.014-1h.45v-.445Zm2.028 17.334v-.445h.45c.56 0 1.015-.448 1.015-1s-.454-1-1.014-1h-.451V17h.45c.56 0 1.015-.448 1.015-1s-.454-1-1.014-1h-.451V9.778h.45c.56 0 1.015-.448 1.015-1 0-.553-.454-1-1.014-1h-.451v-.445C7.493 5.493 9.006 4 10.873 4h11.719c1.866 0 3.38 1.492 3.38 3.333v17.334c0 1.84-1.514 3.333-3.38 3.333H10.873c-1.867 0-3.38-1.492-3.38-3.333Z" clip-rule="evenodd"/></svg>