<svg xmlns="http://www.w3.org/2000/svg" width="16" height="16" fill="none" class="persona-icon" viewBox="0 0 16 16"><path fill="currentColor" fill-rule="evenodd" d="M4 4.143V5.7a.5.5 0 0 1-1 0V4.143a2.43 2.43 0 0 1 2.429-2.429H8.34c.495 0 .968.206 1.306.567L12.52 5.36c.308.33.48.766.48 1.218v5.331a2.376 2.376 0 0 1-2.376 2.377H5.429a2.42 2.42 0 0 1-1.488-.51.5.5 0 1 1 .613-.79c.241.188.544.3.875.3h5.195c.76 0 1.376-.617 1.376-1.377V6.571H9.928c-.986 0-1.785-.8-1.785-1.785V2.714H5.429c-.79 0-1.429.64-1.429 1.429m7.35 1.428L9.143 3.207v1.579c0 .434.352.785.785.785z" clip-rule="evenodd"/><path fill="currentColor" d="M5.81 10.393a.856.856 0 1 1 0-1.711.856.856 0 0 1 0 1.711"/><path fill="currentColor" fill-rule="evenodd" d="M5.81 6.927c1.325 0 2.616.797 3.235 2.311a.8.8 0 0 1 0 .599c-.619 1.514-1.91 2.312-3.234 2.312s-2.616-.798-3.235-2.312a.8.8 0 0 1 0-.599c.62-1.514 1.91-2.311 3.235-2.311m-2.274 2.61c.48 1.1 1.394 1.611 2.275 1.611.88 0 1.794-.511 2.275-1.61-.481-1.1-1.394-1.612-2.275-1.612s-1.794.512-2.275 1.611" clip-rule="evenodd"/></svg>