<svg xmlns="http://www.w3.org/2000/svg" width="20" height="20" fill="none" class="persona-icon" viewBox="0 0 20 20"><path fill="currentColor" fill-rule="evenodd" d="M5.225 5.371c0-.933.756-1.689 1.69-1.689h3.232v2.461c0 1.197.97 2.168 2.168 2.168h2.46v6.38c0 .898-.728 1.627-1.627 1.627H6.914a1.68 1.68 0 0 1-1.034-.354.625.625 0 0 0-.767.988 2.93 2.93 0 0 0 1.801.616h6.234a2.877 2.877 0 0 0 2.877-2.877V8.294c0-.55-.208-1.078-.583-1.48l-3.447-3.693a2.17 2.17 0 0 0-1.585-.689H6.914a2.94 2.94 0 0 0-2.939 2.94v1.87a.625.625 0 1 0 1.25 0zm8.737 1.69h-1.647a.92.92 0 0 1-.918-.918v-1.83z" clip-rule="evenodd"/><path fill="currentColor" d="M7.373 12.872a1.027 1.027 0 1 0 0-2.054 1.027 1.027 0 0 0 0 2.054"/><path fill="currentColor" fill-rule="evenodd" d="M7.373 8.687c1.6 0 3.158.963 3.904 2.79a.98.98 0 0 1 0 .737c-.746 1.826-2.304 2.79-3.904 2.79s-3.158-.964-3.904-2.79a.98.98 0 0 1 0-.738c.746-1.826 2.304-2.789 3.904-2.789M4.67 11.845c.575 1.303 1.659 1.908 2.703 1.908s2.128-.604 2.703-1.908c-.575-1.303-1.659-1.908-2.703-1.908s-2.128.605-2.703 1.908" clip-rule="evenodd"/></svg>