<svg xmlns="http://www.w3.org/2000/svg" width="24" height="24" fill="none" class="persona-icon" viewBox="0 0 24 24"><path fill="currentColor" fill-rule="evenodd" d="M7.871 3.539a2.315 2.315 0 0 0-2.323 2.307v12.308a2.315 2.315 0 0 0 2.323 2.308h3.097c.427 0 .774.344.774.769 0 .425-.347.769-.774.769H7.87C5.733 22 4 20.278 4 18.154V5.846C4 3.722 5.733 2 7.871 2h4.677c.787 0 1.538.325 2.075.896l4.614 4.911c.49.522.763 1.21.763 1.925v4.32c0 .424-.347.768-.774.768a.772.772 0 0 1-.774-.769v-4.32l-.001-.039h-3.354a2.83 2.83 0 0 1-2.839-2.82V3.539zm5.935 1.087v2.246c0 .708.578 1.282 1.29 1.282h2.26z" clip-rule="evenodd"/><path fill="currentColor" d="M17.25 18c-.695 0-1.258.56-1.258 1.25s.563 1.25 1.258 1.25c.695 0 1.258-.56 1.258-1.25S17.945 18 17.25 18"/><path fill="currentColor" fill-rule="evenodd" d="M17.25 15.5c1.911 0 3.772 1.144 4.663 3.31.116.28.116.6 0 .88-.89 2.166-2.752 3.31-4.663 3.31-1.911 0-3.772-1.144-4.663-3.31a1.162 1.162 0 0 1 0-.88c.89-2.166 2.752-3.31 4.663-3.31m-3.211 3.75c.684 1.537 1.971 2.25 3.211 2.25 1.24 0 2.527-.713 3.211-2.25C19.777 17.713 18.49 17 17.25 17c-1.24 0-2.527.713-3.211 2.25" clip-rule="evenodd"/></svg>