<svg xmlns="http://www.w3.org/2000/svg" width="24" height="24" fill="none" class="persona-icon" viewBox="0 0 24 24"><path fill="currentColor" fill-rule="evenodd" d="M5.556 5.833A2.333 2.333 0 0 1 7.889 3.5h4.389v3.361a2.806 2.806 0 0 0 2.805 2.806h3.36l.001.06v8.523a2.25 2.25 0 0 1-2.25 2.25H7.89a2.32 2.32 0 0 1-1.43-.489.75.75 0 1 0-.919 1.185A3.82 3.82 0 0 0 7.89 22h8.305a3.75 3.75 0 0 0 3.75-3.75V9.727c0-.71-.27-1.395-.754-1.914L14.597 2.89A2.8 2.8 0 0 0 12.546 2H7.889a3.833 3.833 0 0 0-3.833 3.833v2.491a.75.75 0 0 0 1.5 0zm11.913 2.334h-2.386a1.306 1.306 0 0 1-1.305-1.306V4.212z" clip-rule="evenodd"/><path fill="currentColor" d="M8.5 15.827a1.368 1.368 0 1 0 0-2.737 1.368 1.368 0 0 0 0 2.737"/><path fill="currentColor" fill-rule="evenodd" d="M8.5 10.334c2.097 0 4.143 1.262 5.125 3.664.12.294.12.627 0 .92-.982 2.403-3.028 3.666-5.125 3.666s-4.143-1.263-5.125-3.665a1.22 1.22 0 0 1 0-.92c.982-2.403 3.028-3.665 5.125-3.665m-3.691 4.125c.774 1.788 2.257 2.625 3.691 2.625s2.917-.837 3.691-2.625c-.774-1.789-2.257-2.625-3.691-2.625s-2.917.836-3.691 2.625" clip-rule="evenodd"/></svg>