<svg xmlns="http://www.w3.org/2000/svg" width="32" height="32" fill="none" class="persona-icon" viewBox="0 0 32 32"><path fill="currentColor" fill-rule="evenodd" d="M7.535 8.002c0-1.656 1.364-3 3.048-3h5.758v4.334c0 2.025 1.668 3.667 3.726 3.667h4.402v5.666c0 .552.456 1 1.017 1s1.016-.448 1.016-1v-5.616c0-.928-.358-1.822-1.002-2.501l-6.055-6.385a3.75 3.75 0 0 0-2.724-1.165h-6.138c-2.806 0-5.08 2.239-5.08 5v16c0 2.762 2.274 5 5.08 5h4.064c.562 0 1.017-.447 1.017-1s-.455-1-1.017-1h-4.064c-1.684 0-3.048-1.343-3.048-3zm10.838 1.334v-2.92l4.66 4.587h-2.966c-.936 0-1.694-.747-1.694-1.667" clip-rule="evenodd"/><path fill="currentColor" d="M22.252 23.336c-.914 0-1.655.746-1.655 1.667 0 .92.74 1.666 1.655 1.666s1.656-.746 1.656-1.666-.741-1.667-1.656-1.667"/><path fill="currentColor" fill-rule="evenodd" d="M22.252 20.002c2.515 0 4.964 1.525 6.136 4.413.152.375.152.8 0 1.175-1.172 2.888-3.62 4.412-6.136 4.412s-4.963-1.524-6.136-4.412a1.57 1.57 0 0 1 0-1.175c1.173-2.888 3.621-4.413 6.136-4.413m-4.225 5c.9 2.05 2.594 3 4.225 3s3.326-.95 4.226-3c-.9-2.05-2.595-3-4.226-3s-3.325.95-4.225 3" clip-rule="evenodd"/></svg>