<svg xmlns="http://www.w3.org/2000/svg" width="32" height="32" fill="none" class="persona-icon" viewBox="0 0 32 32"><path fill="currentColor" fill-rule="evenodd" d="M8 8.286v3.116a1 1 0 1 1-2 0V8.286a4.857 4.857 0 0 1 4.857-4.857h5.826c.99 0 1.935.41 2.61 1.134l5.747 6.157c.617.661.96 1.532.96 2.437v10.662a4.753 4.753 0 0 1-4.753 4.753h-10.39a4.84 4.84 0 0 1-2.976-1.019 1 1 0 1 1 1.226-1.58 2.84 2.84 0 0 0 1.75.599h10.39A2.753 2.753 0 0 0 24 23.819V13.143h-4.143a3.57 3.57 0 0 1-3.571-3.571V5.429h-5.429A2.857 2.857 0 0 0 8 8.286m14.699 2.857-4.413-4.728v3.157c0 .868.703 1.571 1.571 1.571z" clip-rule="evenodd"/><path fill="currentColor" d="M11.622 20.787a1.712 1.712 0 1 1 0-3.423 1.712 1.712 0 0 1 0 3.423"/><path fill="currentColor" fill-rule="evenodd" d="M11.622 13.854c2.649 0 5.23 1.595 6.468 4.623.157.382.157.815 0 1.197-1.237 3.029-3.82 4.624-6.468 4.624-2.65 0-5.231-1.595-6.469-4.623a1.6 1.6 0 0 1 0-1.198c1.238-3.029 3.82-4.623 6.469-4.623m-4.55 5.222c.962 2.198 2.788 3.221 4.55 3.221s3.588-1.023 4.55-3.221c-.962-2.199-2.788-3.222-4.55-3.222s-3.588 1.023-4.55 3.222" clip-rule="evenodd"/></svg>