<svg xmlns="http://www.w3.org/2000/svg" width="32" height="32" fill="none"><path fill="#000" fill-rule="evenodd" d="M7.532 8c0-1.657 1.365-3 3.049-3h5.758v4.333c0 2.025 1.668 3.667 3.726 3.667h4.402v5.667c0 .552.456 1 1.017 1 .561 0 1.016-.448 1.016-1V13.05c0-.929-.358-1.823-1.002-2.502l-6.055-6.384A3.754 3.754 0 0 0 16.719 3h-6.138C7.775 3 5.5 5.239 5.5 8v16c0 2.761 2.275 5 5.08 5h4.065c.561 0 1.016-.448 1.016-1s-.455-1-1.016-1h-4.064c-1.684 0-3.049-1.343-3.049-3V8Zm10.839 1.333V6.414L23.031 11h-2.966c-.936 0-1.694-.746-1.694-1.667Z" clip-rule="evenodd"/><path fill="#000" d="M22.25 23.334c-.914 0-1.655.746-1.655 1.666 0 .92.74 1.667 1.655 1.667.914 0 1.656-.746 1.656-1.667 0-.92-.742-1.666-1.656-1.666Z"/><path fill="#000" fill-rule="evenodd" d="M22.25 20c2.515 0 4.963 1.525 6.136 4.413.152.375.152.8 0 1.174C27.214 28.475 24.765 30 22.25 30s-4.963-1.525-6.136-4.413a1.567 1.567 0 0 1 0-1.174C17.286 21.525 19.735 20 22.25 20Zm-4.225 5c.9 2.05 2.594 3 4.225 3 1.631 0 3.325-.95 4.225-3-.9-2.05-2.594-3-4.225-3-1.631 0-3.325.95-4.225 3Z" clip-rule="evenodd"/></svg>