<svg xmlns="http://www.w3.org/2000/svg" width="16" height="16" fill="none" class="persona-icon" viewBox="0 0 16 16"><path fill="currentColor" d="M5.056 4.944a2.944 2.944 0 1 1 5.888 0 2.944 2.944 0 0 1-5.888 0"/><path fill="currentColor" fill-rule="evenodd" d="M6.7 8.722A3.95 3.95 0 0 0 3.7 10.106a2.22 2.22 0 0 0-.532 1.444v.172A2.333 2.333 0 0 0 5.5 14.056h5a2.333 2.333 0 0 0 2.333-2.334v-.172c0-.53-.189-1.041-.532-1.444A3.95 3.95 0 0 0 9.3 8.722h-.062a.5.5 0 0 0-.3.1L8 9.526l-.938-.704a.5.5 0 0 0-.3-.1zm1.793 1.643.306 1.888a.5.5 0 0 1-.125.418l-.306.334a.5.5 0 0 1-.737 0l-.305-.334a.5.5 0 0 1-.125-.418l.305-1.888a.5.5 0 0 1 .987 0" clip-rule="evenodd"/></svg>