<svg xmlns="http://www.w3.org/2000/svg" width="16" height="16" fill="none" class="persona-icon" viewBox="0 0 16 16"><path fill="currentColor" d="M5.056 4.944a2.944 2.944 0 1 1 5.888 0 2.944 2.944 0 0 1-5.888 0"/><path fill="currentColor" fill-rule="evenodd" d="M6.7 8.722h.062a.5.5 0 0 1 .3.1L8 9.526l.938-.704a.5.5 0 0 1 .3-.1H9.3c1.154 0 2.251.506 3 1.384.344.403.533.915.533 1.444v.172a2.333 2.333 0 0 1-2.333 2.334h-5a2.333 2.333 0 0 1-2.333-2.334v-.172c0-.53.188-1.041.532-1.444A3.95 3.95 0 0 1 6.7 8.722m1.793 1.643a.5.5 0 0 0-.987 0l-.305 1.888a.5.5 0 0 0 .125.418l.305.334a.5.5 0 0 0 .737 0l.306-.334a.5.5 0 0 0 .125-.418z" clip-rule="evenodd"/></svg>