<svg xmlns="http://www.w3.org/2000/svg" width="20" height="20" fill="none" class="persona-icon" viewBox="0 0 20 20"><path fill="currentColor" d="M6.545 6.465a3.455 3.455 0 1 1 6.91 0 3.455 3.455 0 0 1-6.91 0"/><path fill="currentColor" fill-rule="evenodd" d="M8.495 10.793c-1.35 0-2.633.591-3.51 1.618a2.62 2.62 0 0 0-.627 1.701v.2a2.75 2.75 0 0 0 2.748 2.748h5.788a2.75 2.75 0 0 0 2.748-2.748v-.2a2.62 2.62 0 0 0-.627-1.7 4.62 4.62 0 0 0-3.51-1.62h-.072a.63.63 0 0 0-.375.126L10 11.712l-1.059-.794a.63.63 0 0 0-.375-.125zm2.122 1.94.354 2.187a.63.63 0 0 1-.156.522l-.354.386a.625.625 0 0 1-.921 0l-.354-.386a.63.63 0 0 1-.156-.522l.353-2.187a.625.625 0 0 1 1.234 0" clip-rule="evenodd"/></svg>