<svg xmlns="http://www.w3.org/2000/svg" width="24" height="24" fill="none" class="persona-icon" viewBox="0 0 24 24"><path fill="currentColor" d="M7.584 7.417a4.417 4.417 0 1 1 8.833 0 4.417 4.417 0 0 1-8.833 0"/><path fill="currentColor" fill-rule="evenodd" d="M10.05 13.083h.093a.75.75 0 0 1 .45.15L12 14.29l1.407-1.056a.75.75 0 0 1 .45-.15h.093a5.92 5.92 0 0 1 4.502 2.076c.515.604.798 1.372.798 2.165v.26a3.5 3.5 0 0 1-3.5 3.5h-7.5a3.5 3.5 0 0 1-3.5-3.5v-.26c0-.793.283-1.561.798-2.165a5.92 5.92 0 0 1 4.502-2.076m2.69 2.464a.75.75 0 0 0-1.48 0L10.8 18.38a.75.75 0 0 0 .188.627l.458.5a.75.75 0 0 0 1.106 0l.458-.5a.75.75 0 0 0 .188-.627z" clip-rule="evenodd"/></svg>