<svg xmlns="http://www.w3.org/2000/svg" width="24" height="24" fill="none" class="persona-icon" viewBox="0 0 24 24"><path fill="currentColor" d="M7.584 7.417a4.417 4.417 0 1 1 8.833 0 4.417 4.417 0 0 1-8.833 0"/><path fill="currentColor" fill-rule="evenodd" d="M10.05 13.083a5.92 5.92 0 0 0-4.502 2.076 3.34 3.34 0 0 0-.798 2.165v.26a3.5 3.5 0 0 0 3.5 3.5h7.5a3.5 3.5 0 0 0 3.5-3.5v-.26c0-.793-.283-1.561-.799-2.165a5.92 5.92 0 0 0-4.501-2.076h-.093a.75.75 0 0 0-.45.15L12 14.29l-1.407-1.056a.75.75 0 0 0-.45-.15zm2.69 2.464.459 2.833a.75.75 0 0 1-.188.627l-.458.5a.75.75 0 0 1-1.106 0l-.458-.5a.75.75 0 0 1-.188-.627l.458-2.833a.75.75 0 0 1 1.481 0" clip-rule="evenodd"/></svg>