<svg xmlns="http://www.w3.org/2000/svg" width="32" height="32" fill="none" class="persona-icon" viewBox="0 0 32 32"><path fill="currentColor" d="M10.111 9.889a5.889 5.889 0 1 1 11.778 0 5.889 5.889 0 0 1-11.778 0"/><path fill="currentColor" fill-rule="evenodd" d="M13.4 17.444a7.9 7.9 0 0 0-6.002 2.768A4.45 4.45 0 0 0 6.334 23.1v.345A4.667 4.667 0 0 0 11 28.111h10a4.667 4.667 0 0 0 4.667-4.667V23.1a4.45 4.45 0 0 0-1.065-2.887 7.9 7.9 0 0 0-6.003-2.768h-.123a1 1 0 0 0-.6.2L16 19.052l-1.876-1.408a1 1 0 0 0-.6-.2zm3.587 3.285.611 3.778a1 1 0 0 1-.25.835l-.61.667a1 1 0 0 1-1.475 0l-.611-.667a1 1 0 0 1-.25-.835l.61-3.778a1 1 0 0 1 1.975 0" clip-rule="evenodd"/></svg>