<svg xmlns="http://www.w3.org/2000/svg" width="32" height="32" fill="none" class="persona-icon" viewBox="0 0 32 32"><path fill="currentColor" d="M10.111 9.889a5.889 5.889 0 1 1 11.778 0 5.889 5.889 0 0 1-11.778 0"/><path fill="currentColor" fill-rule="evenodd" d="M13.4 17.444h.124a1 1 0 0 1 .6.2L16 19.052l1.876-1.408a1 1 0 0 1 .6-.2h.123a7.9 7.9 0 0 1 6.003 2.768 4.45 4.45 0 0 1 1.065 2.887v.345A4.667 4.667 0 0 1 21 28.111H11a4.667 4.667 0 0 1-4.666-4.667V23.1c0-1.058.377-2.082 1.064-2.887a7.9 7.9 0 0 1 6.003-2.768m3.587 3.285a1 1 0 0 0-1.974 0l-.611 3.778a1 1 0 0 0 .25.835l.61.667a1 1 0 0 0 1.475 0l.611-.667a1 1 0 0 0 .25-.835z" clip-rule="evenodd"/></svg>