<svg xmlns="http://www.w3.org/2000/svg" width="32" height="32" fill="none"><path fill="#000" fill-rule="evenodd" d="M8.49 9.722a8.333 8.333 0 0 1 16.44 2.697 5.002 5.002 0 0 1-.93 9.914h-1.333a1 1 0 1 1 0-2H24a3 3 0 1 0-.21-5.992 1 1 0 0 1-1.03-1.272 6.333 6.333 0 1 0-12.4-2.313 1 1 0 0 1-1 .91h-.027a4.333 4.333 0 1 0 0 8.667 1 1 0 1 1 0 2 6.333 6.333 0 0 1-.844-12.61Z" clip-rule="evenodd"/><path fill="#000" fill-rule="evenodd" d="M20.707 23.293a1 1 0 0 1 0 1.414l-4 4a1 1 0 0 1-1.414 0l-4-4a1 1 0 0 1 1.414-1.414L15 25.586v-10.92a1 1 0 1 1 2 0v10.92l2.293-2.293a1 1 0 0 1 1.414 0Z" clip-rule="evenodd"/></svg>