<svg xmlns="http://www.w3.org/2000/svg" width="32" height="32" fill="none"><path fill="#000" fill-rule="evenodd" d="M5.667 8a5 5 0 0 1 5-5h10.666a5 5 0 0 1 5 5v.333H28a1 1 0 0 1 1 1v5.334a1 1 0 1 1-2 0v-4.334h-.667v12.334A2.333 2.333 0 0 1 24 25h-.333v1a3 3 0 0 1-6 0v-1h-3.334v1a3 3 0 1 1-6 0v-1H8a2.333 2.333 0 0 1-2.333-2.333V10.333H5v4.334a1 1 0 1 1-2 0V9.333a1 1 0 0 1 1-1h1.667V8Zm2 7h16.666V9H7.667v6Zm16.496-8a3.001 3.001 0 0 0-2.83-2H10.667a3.001 3.001 0 0 0-2.83 2h16.326Zm.17 10H7.667v5.667c0 .184.149.333.333.333h16c.184 0 .333-.15.333-.333V17Zm-14 8v1a1 1 0 1 0 2 0v-1h-2Zm9.334 0v1a1 1 0 1 0 2 0v-1h-2Zm-10-5a1 1 0 0 1 1-1H12a1 1 0 1 1 0 2h-1.333a1 1 0 0 1-1-1ZM19 20a1 1 0 0 1 1-1h1.333a1 1 0 1 1 0 2H20a1 1 0 0 1-1-1Z" clip-rule="evenodd"/></svg>