<svg xmlns="http://www.w3.org/2000/svg" width="16" height="16" fill="none" class="persona-icon" viewBox="0 0 16 16"><path fill="currentColor" d="M10.372 9.339c0-.074.06-.134.133-.134h.657c.073 0 .133.06.133.133v.657c0 .074-.06.133-.133.133h-.657a.133.133 0 0 1-.133-.133v-.656M10.505 10.539a.133.133 0 0 0-.133.133v.656c0 .074.06.133.133.133h.657c.073 0 .133-.06.133-.133v-.656a.133.133 0 0 0-.133-.133h-.657M11.704 9.339c0-.074.06-.134.133-.134h.657c.074 0 .133.06.133.133v.657c0 .074-.06.133-.133.133h-.657a.133.133 0 0 1-.133-.133v-.656M11.837 10.539a.133.133 0 0 0-.133.133v.656c0 .074.06.133.133.133h.657c.074 0 .133-.06.133-.133v-.656a.133.133 0 0 0-.133-.133h-.657"/><path fill="currentColor" fill-rule="evenodd" d="M9.166 7.5a.5.5 0 0 0-.5.5v5.5H8.5a.5.5 0 0 0 0 1h6a.5.5 0 0 0 0-1h-.167V8a.5.5 0 0 0-.5-.5H9.166m4.167 6h-1.167v-1.3a.2.2 0 0 0-.2-.2h-.933a.2.2 0 0 0-.2.2v1.3H9.666v-5h3.667v5" clip-rule="evenodd"/><path fill="currentColor" fill-rule="evenodd" d="M3.968 4c0-.828.65-1.5 1.451-1.5h2.742v2.167c0 1.012.795 1.833 1.774 1.833h2.581a.484.484 0 0 0 .444-.3.513.513 0 0 0-.09-.541L9.64 2.082A1.748 1.748 0 0 0 8.342 1.5H5.42C4.083 1.5 3 2.62 3 4v8c0 1.38 1.083 2.5 2.42 2.5h1.29a.492.492 0 0 0 .484-.5c0-.276-.217-.5-.484-.5H5.42c-.802 0-1.452-.672-1.452-1.5V4m7.38 1.5H9.935a.82.82 0 0 1-.806-.833v-1.46L11.348 5.5" clip-rule="evenodd"/></svg>