<svg xmlns="http://www.w3.org/2000/svg" width="20" height="20" fill="none" class="persona-icon" viewBox="0 0 20 20"><path fill="currentColor" d="M6.914 3.657c-.947 0-1.715.768-1.715 1.714v9.32c0 .912.74 1.652 1.652 1.652h6.234c.947 0 1.714-.768 1.714-1.714v-4.254a.6.6 0 1 1 1.2 0v4.254a2.914 2.914 0 0 1-2.914 2.914H6.851a2.85 2.85 0 0 1-2.852-2.852v-9.32a2.914 2.914 0 0 1 2.915-2.914h3.495c.594 0 1.161.247 1.566.68L13.7 4.986a.6.6 0 0 1-.877.819L11.37 4.249v1.894c0 .208.067.4.18.555a.6.6 0 1 1-.969.708 2.14 2.14 0 0 1-.411-1.263V3.657z"/><path fill="currentColor" d="M12.627 13.248a.6.6 0 1 1 0 1.2H8.498a.6.6 0 0 1-.6-.6V10a.6.6 0 0 1 1.2 0v2.4l7.327-7.328a.6.6 0 0 1 .849.849l-7.327 7.327z"/></svg>