<svg xmlns="http://www.w3.org/2000/svg" width="24" height="24" fill="none" class="persona-icon" viewBox="0 0 24 24"><path fill="currentColor" d="M16.138 13.881a.21.21 0 0 0-.21.21v.628c0 .116.094.21.21.21h.629a.21.21 0 0 0 .21-.21v-.628a.21.21 0 0 0-.21-.21h-.629ZM15.929 16.186a.21.21 0 0 1 .21-.21h.628a.21.21 0 0 1 .21.21v.628a.21.21 0 0 1-.21.21h-.629a.21.21 0 0 1-.21-.21v-.628ZM18.233 13.881a.21.21 0 0 0-.21.21v.628c0 .116.095.21.21.21h.629a.21.21 0 0 0 .21-.21v-.628a.21.21 0 0 0-.21-.21h-.629ZM18.024 16.186a.21.21 0 0 1 .21-.21h.628a.21.21 0 0 1 .21.21v.628a.21.21 0 0 1-.21.21h-.629a.21.21 0 0 1-.21-.21v-.628Z"/><path fill="currentColor" fill-rule="evenodd" d="M13.048 11.786c0-.434.351-.786.785-.786h7.334c.434 0 .785.352.785.786v8.643h.262a.786.786 0 1 1 0 1.571h-9.428a.786.786 0 0 1 0-1.571h.262v-8.643Zm7.333.785h-5.762v7.858H16.5V18.3a.3.3 0 0 1 .3-.3h1.4a.3.3 0 0 1 .3.3v2.129h1.881V12.57Z" clip-rule="evenodd"/><path fill="currentColor" fill-rule="evenodd" d="M7.871 3.538a2.315 2.315 0 0 0-2.323 2.308v12.308a2.315 2.315 0 0 0 2.323 2.308h2.064c.428 0 .775.344.775.769 0 .425-.347.769-.775.769H7.871C5.733 22 4 20.278 4 18.154V5.846C4 3.722 5.733 2 7.871 2h4.677c.787 0 1.538.325 2.075.896l5.169 5.502c.21.224.267.55.144.832a.774.774 0 0 1-.71.462h-4.13a2.83 2.83 0 0 1-2.838-2.82V3.539H7.871Zm5.935 1.088v2.246c0 .708.578 1.282 1.29 1.282h2.26l-3.55-3.528Z" clip-rule="evenodd"/></svg>