<svg xmlns="http://www.w3.org/2000/svg" width="32" height="32" fill="none" class="persona-icon" viewBox="0 0 32 32"><path fill="currentColor" d="M21.505 18.93c0-.148.12-.267.267-.267h.8c.147 0 .266.119.266.266v.8c0 .148-.12.267-.266.267h-.8a.267.267 0 0 1-.267-.267v-.8M21.772 21.33a.267.267 0 0 0-.267.266v.8c0 .147.12.267.267.267h.8c.147 0 .266-.12.266-.267v-.8a.267.267 0 0 0-.266-.267h-.8M24.17 18.93c0-.148.12-.267.268-.267h.8c.147 0 .266.119.266.266v.8c0 .148-.12.267-.266.267h-.8a.267.267 0 0 1-.267-.267v-.8M24.438 21.33a.267.267 0 0 0-.267.266v.8c0 .147.12.267.267.267h.8c.147 0 .266-.12.266-.267v-.8a.267.267 0 0 0-.266-.267h-.8"/><path fill="currentColor" fill-rule="evenodd" d="M18.839 14.996a1 1 0 0 0-1 1v11h-.336a1 1 0 1 0 0 2h12a1 1 0 0 0 0-2h-.33v-11a1 1 0 0 0-1-1h-9.334m8.334 12h-2.335v-2.6a.4.4 0 0 0-.4-.4H22.57a.4.4 0 0 0-.4.4v2.6h-2.332v-10h7.334v10" clip-rule="evenodd"/><path fill="currentColor" fill-rule="evenodd" d="M7.537 7.998c0-1.657 1.365-3 3.048-3h5.759v4.334c0 2.025 1.668 3.666 3.726 3.666h5.419c.404 0 .77-.236.932-.601a.988.988 0 0 0-.19-1.081l-6.783-7.153a3.754 3.754 0 0 0-2.724-1.165h-6.139c-2.805 0-5.08 2.239-5.08 5v16c0 2.761 2.275 5 5.08 5h2.71c.561 0 1.016-.448 1.016-1s-.455-1-1.016-1h-2.71c-1.683 0-3.048-1.343-3.048-3v-16Zm15.499 3H20.07c-.936 0-1.694-.746-1.694-1.666v-2.92l4.66 4.586" clip-rule="evenodd"/></svg>