<svg xmlns="http://www.w3.org/2000/svg" width="32" height="32" fill="none" class="persona-icon" viewBox="0 0 32 32"><path fill="currentColor" d="M10.857 5.429A2.857 2.857 0 0 0 8 8.285v15.532a2.753 2.753 0 0 0 2.753 2.753h10.39A2.857 2.857 0 0 0 24 23.714v-7.089a1 1 0 1 1 2 0v7.09a4.857 4.857 0 0 1-4.857 4.856h-10.39A4.753 4.753 0 0 1 6 23.818V8.286a4.857 4.857 0 0 1 4.857-4.857h5.826c.99 0 1.935.41 2.61 1.134l2.874 3.078a1 1 0 0 1-1.463 1.365l-2.419-2.592v3.157c0 .348.112.666.302.926a1 1 0 1 1-1.615 1.18 3.56 3.56 0 0 1-.687-2.106V5.43z"/><path fill="currentColor" d="M21.378 22.413a1 1 0 0 1-1 1h-6.88a1 1 0 0 1-1-1V16a1 1 0 0 1 2 0v3.999l12.21-12.212a1 1 0 1 1 1.415 1.414L15.912 21.413h4.466a1 1 0 0 1 1 1"/></svg>