<svg xmlns="http://www.w3.org/2000/svg" width="16" height="16" fill="none" class="persona-icon" viewBox="0 0 16 16"><path fill="currentColor" fill-rule="evenodd" d="M7.717 1.074a.584.584 0 0 1 .566 0L14.7 4.638a.584.584 0 0 1 0 1.02L8.283 9.223a.583.583 0 0 1-.566 0L1.3 5.658a.583.583 0 0 1 0-1.02l6.417-3.564ZM2.785 5.148 8 8.046l5.215-2.898L8 2.251 2.785 5.148" clip-rule="evenodd"/><path fill="currentColor" fill-rule="evenodd" d="M1.074 7.717a.583.583 0 0 1 .793-.227L8 10.898l6.133-3.408a.583.583 0 1 1 .567 1.02l-6.417 3.565a.584.584 0 0 1-.566 0L1.3 8.51a.583.583 0 0 1-.227-.793" clip-rule="evenodd"/><path fill="currentColor" fill-rule="evenodd" d="M1.074 10.569a.583.583 0 0 1 .793-.227L8 13.75l6.133-3.407a.583.583 0 1 1 .567 1.02l-6.417 3.565a.584.584 0 0 1-.566 0L1.3 11.362a.583.583 0 0 1-.227-.793" clip-rule="evenodd"/></svg>