<svg xmlns="http://www.w3.org/2000/svg" width="20" height="20" fill="none" class="persona-icon" viewBox="0 0 20 20"><path fill="currentColor" fill-rule="evenodd" d="M3.054 9.697a.625.625 0 0 1 .85-.243L10 12.84l6.096-3.387a.625.625 0 0 1 .607 1.092l-6.4 3.556a.63.63 0 0 1-.607 0l-6.4-3.556a.625.625 0 0 1-.242-.85m0 2.844a.625.625 0 0 1 .85-.243L10 15.685l6.096-3.387a.625.625 0 1 1 .607 1.093l-6.4 3.555a.63.63 0 0 1-.607 0l-6.4-3.555a.625.625 0 0 1-.242-.85m6.642-9.487a.63.63 0 0 1 .607 0l6.4 3.555a.625.625 0 0 1 0 1.093l-6.4 3.555a.63.63 0 0 1-.607 0l-6.4-3.555a.625.625 0 0 1 0-1.093zm-4.81 4.102L10 9.996l5.113-2.84L10 4.315z" clip-rule="evenodd"/></svg>