<svg xmlns="http://www.w3.org/2000/svg" width="24" height="24" fill="none" class="persona-icon" viewBox="0 0 24 24"><path fill="currentColor" fill-rule="evenodd" d="M3.094 11.636a.75.75 0 0 1 1.02-.291L12 15.724l7.886-4.38a.75.75 0 1 1 .728 1.31l-8.25 4.584a.75.75 0 0 1-.728 0l-8.25-4.583a.75.75 0 0 1-.292-1.02m0 3.667a.75.75 0 0 1 1.02-.292L12 19.392l7.886-4.38a.75.75 0 1 1 .728 1.31l-8.25 4.584a.75.75 0 0 1-.728 0l-8.25-4.583a.75.75 0 0 1-.292-1.02m8.542-12.209a.75.75 0 0 1 .728 0l8.25 4.584a.75.75 0 0 1 0 1.311l-8.25 4.583a.75.75 0 0 1-.728 0L3.386 8.99a.75.75 0 0 1 0-1.311zm-6.342 5.24L12 12.059l6.706-3.725L12 4.608z" clip-rule="evenodd"/></svg>