<svg xmlns="http://www.w3.org/2000/svg" width="32" height="32" fill="none" class="persona-icon" viewBox="0 0 32 32"><path fill="currentColor" fill-rule="evenodd" d="M4.126 15.515a1 1 0 0 1 1.36-.389L16 20.967l10.514-5.841a1 1 0 1 1 .972 1.748l-11 6.111a1 1 0 0 1-.972 0l-11-6.11a1 1 0 0 1-.388-1.36m0 4.889a1 1 0 0 1 1.36-.389L16 25.856l10.514-5.841a1 1 0 0 1 .972 1.748l-11 6.111a1 1 0 0 1-.972 0l-11-6.11a1 1 0 0 1-.388-1.36M15.514 4.126a1 1 0 0 1 .972 0l11 6.111a1 1 0 0 1 0 1.749l-11 6.11a1 1 0 0 1-.972 0l-11-6.11a1 1 0 0 1 0-1.749zM7.06 11.11 16 16.078l8.942-4.967L16 6.144z" clip-rule="evenodd"/></svg>