<svg xmlns="http://www.w3.org/2000/svg" width="16" height="16" fill="none" class="persona-icon" viewBox="0 0 16 16"><path fill="currentColor" d="M3 5.833C3 3.164 5.239 1 8 1s5 2.164 5 4.833c0 .908-.26 1.76-.711 2.486L8.448 14.75A.52.52 0 0 1 8 15a.52.52 0 0 1-.448-.25L3.711 8.319A4.693 4.693 0 0 1 3 5.833ZM8 2C5.81 2 4.035 3.716 4.035 5.833c0 .723.206 1.398.565 1.974l.005.008L8 13.5l3.4-5.693c.359-.576.566-1.25.566-1.974C11.966 3.716 10.19 2 8 2ZM5.989 5.833c0 1.074.9 1.945 2.011 1.945 1.11 0 2.011-.87 2.011-1.945 0-1.074-.9-1.944-2.011-1.944-1.11 0-2.011.87-2.011 1.944ZM8 4.89c.54 0 .977.423.977.944 0 .522-.437.945-.977.945s-.977-.423-.977-.945c0-.521.437-.944.977-.944Z"/></svg>