<svg xmlns="http://www.w3.org/2000/svg" width="16" height="16" fill="none" class="persona-icon" viewBox="0 0 16 16"><path fill="currentColor" d="M8.817 1.165a.52.52 0 0 1 .723-.037c.21.185.227.501.038.707L9.15 2.3h2.843c1.385 0 2.508 1.097 2.508 2.45V8c0 .276-.23.5-.512.5a.506.506 0 0 1-.512-.5V4.75c0-.8-.664-1.45-1.484-1.45H9.15l.43.466a.492.492 0 0 1-.039.706.52.52 0 0 1-.723-.038l-1.197-1.3a.491.491 0 0 1 0-.668l1.197-1.3ZM10.661 12.793c.283 0 .512.224.512.5s-.229.5-.512.5h-.723v.707c0 .276-.23.5-.512.5a.506.506 0 0 1-.512-.5v-.707H3.248a.506.506 0 0 1-.512-.5V7.757h-.724a.506.506 0 0 1-.512-.5c0-.276.23-.5.512-.5h.724V6.05c0-.276.229-.5.511-.5.283 0 .512.224.512.5v.707h5.667c.282 0 .512.224.512.5v5.536h.723Zm-6.902 0h5.155V7.757H3.759v5.036Z"/></svg>