<svg xmlns="http://www.w3.org/2000/svg" width="16" height="16" fill="none" class="persona-icon" viewBox="0 0 16 16"><path fill="currentColor" fill-rule="evenodd" d="M2 2.5a.5.5 0 0 1 .5-.5h9.167A2.333 2.333 0 0 1 14 4.333V13.5a.5.5 0 1 1-1 0V4.333C13 3.597 12.403 3 11.667 3H2.5a.5.5 0 0 1-.5-.5m1.222 2.444a.5.5 0 0 1 .5-.5h2.75a.5.5 0 0 1 .5.5v2.75a.5.5 0 0 1-.5.5h-2.75a.5.5 0 0 1-.5-.5v-2.75m0 4.584a.5.5 0 0 1 .5-.5h2.75a.5.5 0 0 1 .5.5v2.75a.5.5 0 0 1-.5.5h-2.75a.5.5 0 0 1-.5-.5v-2.75m1-4.084v1.75h1.75v-1.75h-1.75m0 4.584v1.75h1.75v-1.75h-1.75m4.567 1.75a.5.5 0 0 0-.985.121v.379a.5.5 0 0 0 .5.5h.912a.5.5 0 1 0 0-1h-.427m-.984-6.834a.5.5 0 0 1 .5-.5h2.75a.5.5 0 0 1 .5.5v2.75a.5.5 0 0 1-.5.5h-2.75a.5.5 0 0 1-.5-.5v-2.75m.5 4.084a.5.5 0 0 1 .5.5v.667h.948a.5.5 0 0 1 .5.5v.483a.5.5 0 0 1-1 .017h-.948a.5.5 0 0 1-.5-.5V9.528a.5.5 0 0 1 .5-.5m.5-3.584v1.75h1.75v-1.75h-1.75m.473 4.084a.5.5 0 0 1 .5-.5h1.277a.5.5 0 0 1 .5.5v.947a.5.5 0 1 1-1 0v-.447h-.777a.5.5 0 0 1-.5-.5m1.777 1.639a.5.5 0 0 1 .5.5v.61a.5.5 0 0 1-.5.5h-.611a.5.5 0 1 1 0-1h.11v-.11a.5.5 0 0 1 .5-.5" clip-rule="evenodd"/></svg>