<svg xmlns="http://www.w3.org/2000/svg" width="16" height="16" fill="none" class="persona-icon" viewBox="0 0 16 16"><path fill="currentColor" fill-rule="evenodd" d="M3.737 4.712C3.737 3.214 4.997 2 6.553 2c1.555 0 2.815 1.214 2.815 2.712 0 1.498-1.26 2.712-2.815 2.712-1.556 0-2.816-1.214-2.816-2.712m2.816-1.749c-1.003 0-1.816.783-1.816 1.749 0 .966.813 1.749 1.816 1.749 1.003 0 1.815-.783 1.815-1.749 0-.966-.812-1.749-1.815-1.749M2.506 9.391a3.783 3.783 0 0 1 2.831-1.257h2.431c1.09 0 2.124.46 2.832 1.257.326.368.505.837.505 1.32v.135c0 1.19-1.001 2.154-2.237 2.154H4.237C3.002 13 2 12.036 2 10.846v-.134c0-.484.18-.953.506-1.32m7.333.626a2.767 2.767 0 0 0-2.07-.92H5.336c-.797 0-1.553.336-2.07.92-.173.193-.267.44-.267.695v.134c0 .658.554 1.19 1.237 1.19h4.631c.684 0 1.237-.532 1.237-1.19v-.134c0-.255-.094-.502-.266-.695M11.763 5.68a1.588 1.588 0 0 0-.229-.159 1.298 1.298 0 0 0-.625-.175 1.327 1.327 0 0 0-.72.208c-.45.277-.647.661-.662 1.046a1.39 1.39 0 0 0 .259.842c.019.026.04.05.064.072l1.567 1.449a.514.514 0 0 0 .692 0l1.567-1.449a.489.489 0 0 0 .064-.072c.134-.185.273-.491.26-.842-.016-.385-.213-.77-.662-1.046a1.327 1.327 0 0 0-.72-.208 1.299 1.299 0 0 0-.626.175c-.083.047-.16.101-.229.16m-.869.629c.034 0 .077.01.132.042a.86.86 0 0 1 .294.314c.086.16.257.26.443.26.187 0 .357-.1.444-.26a.86.86 0 0 1 .293-.314.275.275 0 0 1 .132-.042c.031 0 .085.006.167.057.098.06.144.115.166.153a.24.24 0 0 1 .035.117.45.45 0 0 1-.06.224l-1.177 1.088-1.176-1.088a.448.448 0 0 1-.06-.224.238.238 0 0 1 .034-.117.475.475 0 0 1 .166-.153.307.307 0 0 1 .167-.057" clip-rule="evenodd"/></svg>