<svg xmlns="http://www.w3.org/2000/svg" width="16" height="16" fill="none" class="persona-icon" viewBox="0 0 16 16"><path fill="currentColor" d="M7.13 3.563a.953.953 0 0 1 1.74 0l1.019 2.15 2.28.345c.795.12 1.113 1.138.537 1.722l-1.65 1.674.39 2.364c.136.824-.696 1.453-1.407 1.064L8 11.766l-2.04 1.116c-.71.39-1.542-.24-1.406-1.064l.39-2.364-1.65-1.674c-.576-.584-.258-1.601.537-1.722l2.28-.345 1.02-2.15ZM9.02 6.16 8 4.01 6.98 6.16a.973.973 0 0 1-.73.552l-2.28.345 1.65 1.674c.229.232.333.566.28.894l-.39 2.364 2.039-1.117a.935.935 0 0 1 .902 0l2.04 1.117-.39-2.364c-.054-.328.05-.662.279-.894l1.65-1.674-2.28-.345a.973.973 0 0 1-.73-.552Z"/></svg>