<svg xmlns="http://www.w3.org/2000/svg" width="16" height="16" fill="none" class="persona-icon" viewBox="0 0 16 16"><path fill="currentColor" d="M7.389 4.445a.5.5 0 1 0 0 1h3.667a.5.5 0 0 0 0-1H7.389M6.889 6.778a.5.5 0 0 1 .5-.5h1.833a.5.5 0 1 1 0 1H7.39a.5.5 0 0 1-.5-.5M7.389 8.111a.5.5 0 1 0 0 1h1.833a.5.5 0 0 0 0-1H7.39M11.667 6.778a.611.611 0 1 1-1.223 0 .611.611 0 0 1 1.223 0M11.055 9.222a.611.611 0 1 0 0-1.222.611.611 0 0 0 0 1.222"/><path fill="currentColor" fill-rule="evenodd" d="M2 3.722C2 2.772 2.771 2 3.722 2h8.556C13.228 2 14 2.771 14 3.722V13.5a.5.5 0 0 1-.854.354l-1.274-1.275a.722.722 0 0 0-1.022 0l-.41.41a1.722 1.722 0 0 1-2.436 0l-.41-.41a.722.722 0 0 0-1.021 0l-1.275 1.275a.5.5 0 0 1-.854-.354V7.889H2.5a.5.5 0 0 1-.5-.5V3.722m2.444 0a.722.722 0 0 0-1.444 0V6.89h1.444V3.722M5.286 3c.102.22.158.464.158.722v8.57l.422-.42a1.722 1.722 0 0 1 2.435 0l.41.41a.722.722 0 0 0 1.022 0l.41-.41a1.722 1.722 0 0 1 2.436 0l.42.42v-8.57A.722.722 0 0 0 12.279 3H5.286" clip-rule="evenodd"/></svg>