<svg xmlns="http://www.w3.org/2000/svg" width="16" height="16" fill="none" class="persona-icon" viewBox="0 0 16 16"><path fill="currentColor" fill-rule="evenodd" d="M3.208 5.173a.483.483 0 0 1 .247.646 4.766 4.766 0 0 0-.368 2.935.489.489 0 0 1-.4.57.5.5 0 0 1-.583-.389 5.719 5.719 0 0 1 .442-3.522.505.505 0 0 1 .663-.24Zm2.553-.195c.195.19.195.499 0 .69a3.05 3.05 0 0 0-.928 2.18c.003.208.012.383.022.557.004.09.01.179.013.272.011.264.012.533-.034.829-.093.6-.369 1.237-.997 2.186a.508.508 0 0 1-.692.144.48.48 0 0 1-.148-.674c.595-.897.785-1.4.848-1.803.032-.205.034-.403.024-.643l-.012-.233c-.01-.185-.021-.398-.024-.627v-.005c0-1.078.44-2.111 1.22-2.873a.51.51 0 0 1 .708 0Zm1.526-2.936c1.494-.175 3 .204 4.22 1.062a.48.48 0 0 1 .114.68.508.508 0 0 1-.698.111 5.096 5.096 0 0 0-3.517-.885 5.04 5.04 0 0 0-3.204 1.67.509.509 0 0 1-.705.053.48.48 0 0 1-.055-.687A6.047 6.047 0 0 1 7.287 2.04ZM6.177 8.16a.495.495 0 0 1 .515.473c.017.557.012 1.185-.168 1.898-.18.715-.53 1.493-1.173 2.37a.508.508 0 0 1-.697.114.48.48 0 0 1-.117-.68c.578-.789.87-1.454 1.016-2.037.147-.585.155-1.109.14-1.636a.493.493 0 0 1 .484-.502Zm.93-2.411c.283-.114.587-.173.893-.173.943 0 1.622.593 1.86.901a2.258 2.258 0 0 1 .473 1.371c.015 1.28.012 3.946-1.302 5.929a.508.508 0 0 1-.692.145.48.48 0 0 1-.148-.674c1.13-1.705 1.158-4.08 1.142-5.391V7.85a1.272 1.272 0 0 0-.27-.786l-.002-.001C8.935 6.9 8.521 6.55 8 6.55a1.363 1.363 0 0 0-.943.38c-.124.121-.222.265-.289.422a.505.505 0 0 1-.653.264.483.483 0 0 1-.27-.637 2.27 2.27 0 0 1 .505-.738 2.34 2.34 0 0 1 .757-.493Zm.48 5.875c.256.1.38.385.276.634-.243.59-.578 1.151-1.037 1.6a.51.51 0 0 1-.707 0 .479.479 0 0 1 0-.69c.337-.33.607-.768.817-1.275a.504.504 0 0 1 .65-.27ZM6.485 4.066A4.259 4.259 0 0 1 8 3.788c1.105 0 2.165.428 2.946 1.19.206.2.397.421.565.658a.48.48 0 0 1-.126.678.508.508 0 0 1-.696-.122 3.878 3.878 0 0 0-.45-.525A3.208 3.208 0 0 0 8 4.763c-.398 0-.788.073-1.151.211a.504.504 0 0 1-.648-.277.484.484 0 0 1 .284-.631Zm1.477 3.299c.275-.02.515.18.537.449.055.703.036 1.85-.204 3.006a.5.5 0 0 1-.589.381.488.488 0 0 1-.39-.574 10.42 10.42 0 0 0 .186-2.739.492.492 0 0 1 .46-.523Zm3.644-.584a.5.5 0 0 1 .59.38 2.43 2.43 0 0 1 .14.754l.002.163c.017 1.28.038 2.826-1.004 5.178a.505.505 0 0 1-.657.254.483.483 0 0 1-.261-.64c.957-2.162.939-3.543.922-4.78 0-.054 0-.109-.002-.163a.978.978 0 0 0-.034-.265c-.008-.03-.016-.054-.026-.086a1.938 1.938 0 0 1-.06-.22.488.488 0 0 1 .39-.575Zm.47-2.563a.509.509 0 0 1 .701.093 5.75 5.75 0 0 1 1.21 3.93.496.496 0 0 1-.533.453.492.492 0 0 1-.465-.519 4.792 4.792 0 0 0-1.008-3.274.48.48 0 0 1 .096-.683Z" clip-rule="evenodd"/></svg>