<svg xmlns="http://www.w3.org/2000/svg" width="16" height="16" fill="none" class="persona-icon" viewBox="0 0 16 16"><path fill="currentColor" d="M12.012 11.007a.5.5 0 0 1 .592-.374l.178.036c.41.083.772.312 1.015.642l.022.03a.916.916 0 0 1-.232 1.312l-.175.119a.51.51 0 0 1-.696-.12.475.475 0 0 1 .124-.674l.147-.1-.002-.004a.673.673 0 0 0-.408-.257l-.178-.037a.485.485 0 0 1-.387-.573ZM7.479 9.078c0-.968.81-1.752 1.808-1.752.999 0 1.808.784 1.808 1.752s-.81 1.752-1.808 1.752c-.999 0-1.808-.784-1.808-1.752Zm1.808-.784a.797.797 0 0 0-.809.784c0 .433.362.784.809.784.447 0 .809-.351.809-.784a.797.797 0 0 0-.809-.784ZM11.199 8.127c0-.268.223-.484.5-.484.819 0 1.498.634 1.498 1.435 0 .8-.68 1.435-1.499 1.435a.492.492 0 0 1-.5-.484c0-.267.224-.484.5-.484.285 0 .5-.217.5-.467s-.215-.467-.5-.467a.492.492 0 0 1-.5-.484Z"/><path fill="currentColor" d="M6.834 11.601a2.352 2.352 0 0 1 1.765-.788h1.374c.68 0 1.324.288 1.765.788.218.248.338.562.338.888v.076c0 .792-.663 1.435-1.481 1.435H7.978c-.818 0-1.481-.643-1.481-1.435v-.076c0-.326.12-.64.337-.888Zm4.144.63a1.34 1.34 0 0 0-1.005-.45H8.6a1.34 1.34 0 0 0-1.005.45.391.391 0 0 0-.098.258v.076c0 .258.216.467.482.467h2.617a.474.474 0 0 0 .482-.467v-.076a.391.391 0 0 0-.099-.259Z"/><path fill="currentColor" d="M2 4.196C2 2.983 3.015 2 4.266 2h7.066c1.252 0 2.266.983 2.266 2.196v2.283a.492.492 0 0 1-.5.484.492.492 0 0 1-.499-.484V4.196c0-.678-.567-1.228-1.267-1.228H4.266c-.7 0-1.267.55-1.267 1.228v6.847c0 .678.567 1.228 1.267 1.228h1.178c.276 0 .5.217.5.484a.492.492 0 0 1-.5.484H4.266C3.015 13.24 2 12.256 2 11.043V4.196Z"/></svg>