<svg xmlns="http://www.w3.org/2000/svg" width="16" height="16" fill="none" class="persona-icon" viewBox="0 0 16 16"><path fill="currentColor" fill-rule="evenodd" d="M6.754 1.327a4.744 4.744 0 0 1 2.02-.317 4.91 4.91 0 0 1 3.344 1.608A5.344 5.344 0 0 1 13.5 6.224a5.344 5.344 0 0 1-1.386 3.604 4.925 4.925 0 0 1-3.01 1.574 2.65 2.65 0 0 1-.034.103c-.256.732-.706 1.342-1.204 1.85a5.496 5.496 0 0 1-1.785 1.218A5.394 5.394 0 0 1 3.98 15H3.5V6.262c0-.713.137-1.418.403-2.074a5.275 5.275 0 0 1 1.146-1.74 4.952 4.952 0 0 1 1.705-1.121m1.478.681c-.39.026-.775.112-1.143.256-.512.2-.98.508-1.376.906a4.274 4.274 0 0 0-.928 1.408 4.477 4.477 0 0 0-.327 1.684v7.712c.434-.047.86-.157 1.264-.328a4.539 4.539 0 0 0 1.474-1.006c.435-.444.783-.932.974-1.478.03-.087.048-.155.057-.23l.005-8.924m.963 8.37a3.992 3.992 0 0 0 2.227-1.24 4.32 4.32 0 0 0 1.12-2.914c0-1.086-.4-2.13-1.117-2.915a3.991 3.991 0 0 0-2.23-1.245v8.314" clip-rule="evenodd"/></svg>