<svg xmlns="http://www.w3.org/2000/svg" width="16" height="16" fill="none" class="persona-icon" viewBox="0 0 16 16"><path fill="currentColor" d="M3.968 4c0-.828.65-1.5 1.451-1.5h2.742v2.167c0 1.012.795 1.833 1.774 1.833h2.581a.484.484 0 0 0 .444-.3.513.513 0 0 0-.09-.541L9.64 2.082A1.748 1.748 0 0 0 8.341 1.5H5.42C4.083 1.5 3 2.62 3 4v8c0 1.38 1.083 2.5 2.42 2.5h1.29a.492.492 0 0 0 .484-.5c0-.276-.217-.5-.484-.5H5.42c-.802 0-1.452-.672-1.452-1.5V4Zm7.38 1.5H9.935a.82.82 0 0 1-.806-.833v-1.46L11.348 5.5Z"/><path fill="currentColor" d="M10.18 7.63a.456.456 0 0 1 .64 0l.765.75 1.072.011c.248.003.449.204.452.452l.01 1.072.75.766a.456.456 0 0 1 0 .638l-.75.766-.01 1.072a.457.457 0 0 1-.452.452l-1.072.01-.766.75a.456.456 0 0 1-.638 0l-.766-.75-1.072-.01a.457.457 0 0 1-.452-.452l-.01-1.072-.75-.766a.456.456 0 0 1 0-.638l.75-.766.01-1.072a.457.457 0 0 1 .452-.452l1.072-.01.766-.75Zm.32.965-.577.566a.456.456 0 0 1-.315.13L8.8 9.3l-.009.808a.456.456 0 0 1-.13.315L8.096 11l.565.577c.082.085.13.197.13.315l.009.808.808.009c.118 0 .23.048.315.13l.577.566.577-.566a.456.456 0 0 1 .315-.13l.808-.009.009-.808a.456.456 0 0 1 .13-.315l.566-.577-.566-.577a.456.456 0 0 1-.13-.315L12.2 9.3l-.808-.009a.456.456 0 0 1-.315-.13l-.577-.566Zm1.23 1.467a.457.457 0 0 0-.646.013l-.83.863-.327-.365a.456.456 0 1 0-.68.61l.656.73a.456.456 0 0 0 .669.012l1.17-1.217a.457.457 0 0 0-.013-.646Z"/></svg>