<svg xmlns="http://www.w3.org/2000/svg" width="16" height="16" fill="none" class="persona-icon" viewBox="0 0 16 16"><path fill="currentColor" d="M5.42 1.5C4.082 1.5 3 2.62 3 4v8c0 1.38 1.083 2.5 2.42 2.5h5.16c1.337 0 2.42-1.12 2.42-2.5V6.526c0-.465-.17-.912-.477-1.251L9.64 2.082A1.748 1.748 0 0 0 8.342 1.5H5.42ZM3.967 4c0-.828.65-1.5 1.451-1.5h2.742v2.167c0 1.012.795 1.833 1.774 1.833h2.097V12c0 .828-.65 1.5-1.451 1.5H5.419c-.801 0-1.451-.672-1.451-1.5V4Zm5.161.667c0 .46.361.833.806.833h1.413L9.129 3.207v1.46Z"/></svg>