<svg xmlns="http://www.w3.org/2000/svg" width="16" height="16" fill="none" class="persona-icon" viewBox="0 0 16 16"><path fill="currentColor" fill-rule="evenodd" d="M2 8a6 6 0 1 1 12 0A6 6 0 0 1 2 8m6-5a5 5 0 1 0 0 10A5 5 0 0 0 8 3" clip-rule="evenodd"/><path fill="currentColor" fill-rule="evenodd" d="M5.556 8.111a.5.5 0 0 1 .5.5 1.944 1.944 0 1 0 3.888 0 .5.5 0 0 1 1 0 2.944 2.944 0 1 1-5.888 0 .5.5 0 0 1 .5-.5" clip-rule="evenodd"/><path fill="currentColor" d="M6.778 6.167a.611.611 0 1 1-1.222 0 .611.611 0 0 1 1.222 0M10.444 6.167a.611.611 0 1 1-1.222 0 .611.611 0 0 1 1.222 0"/></svg>