<svg xmlns="http://www.w3.org/2000/svg" width="16" height="16" fill="none" class="persona-icon" viewBox="0 0 16 16"><path fill="currentColor" fill-rule="evenodd" d="M5.005 2.004A1.102 1.102 0 0 1 6.1 1h3.8c.574 0 1.045.441 1.095 1.004h.62c1.06 0 1.885.894 1.885 1.952v9.092c0 1.058-.824 1.952-1.885 1.952h-7.23c-1.06 0-1.885-.894-1.885-1.952V3.956c0-1.058.824-1.952 1.885-1.952h.62m0 1.004h-.62c-.47 0-.885.404-.885.948v9.092c0 .544.416.948.885.948h7.23c.47 0 .885-.404.885-.948V3.956c0-.544-.416-.948-.885-.948h-.62A1.102 1.102 0 0 1 9.9 4.012H6.1a1.102 1.102 0 0 1-1.095-1.004M6.1 2.004a.1.1 0 0 0-.1.1v.804a.1.1 0 0 0 .1.1h3.8a.1.1 0 0 0 .1-.1v-.804a.1.1 0 0 0-.1-.1z" clip-rule="evenodd"/></svg>