<svg xmlns="http://www.w3.org/2000/svg" width="16" height="16" fill="none" class="persona-icon"><path fill="currentColor" d="M4.333 3C3.597 3 3 3.597 3 4.333v1.604a.5.5 0 0 1-1 0V4.333A2.333 2.333 0 0 1 4.333 2h1.604a.5.5 0 0 1 0 1H4.333ZM2.5 9.563a.5.5 0 0 1 .5.5v1.604C3 12.403 3.597 13 4.333 13h1.604a.5.5 0 0 1 0 1H4.333A2.333 2.333 0 0 1 2 11.667v-1.604a.5.5 0 0 1 .5-.5ZM9.563 2.5a.5.5 0 0 1 .5-.5h1.604A2.333 2.333 0 0 1 14 4.333v1.604a.5.5 0 0 1-1 0V4.333C13 3.597 12.403 3 11.667 3h-1.604a.5.5 0 0 1-.5-.5ZM13.5 9.563a.5.5 0 0 1 .5.5v1.604A2.333 2.333 0 0 1 11.667 14h-1.604a.5.5 0 0 1 0-1h1.604c.736 0 1.333-.597 1.333-1.333v-1.604a.5.5 0 0 1 .5-.5ZM4.444 5.556a.5.5 0 0 1 .5-.5h6.112a.5.5 0 1 1 0 1H4.944a.5.5 0 0 1-.5-.5ZM4.444 8a.5.5 0 0 1 .5-.5h6.112a.5.5 0 0 1 0 1H4.944a.5.5 0 0 1-.5-.5ZM4.444 10.444a.5.5 0 0 1 .5-.5H8a.5.5 0 0 1 0 1H4.944a.5.5 0 0 1-.5-.5Z"/></svg>