<svg xmlns="http://www.w3.org/2000/svg" width="16" height="16" fill="none" class="persona-icon" viewBox="0 0 16 16"><path fill="currentColor" fill-rule="evenodd" d="M13.814 1A1.176 1.176 0 0 1 15 2.186a25.897 25.897 0 0 1-.13 2.557c-.097.882-.272 1.788-.605 2.455-.948 1.896-2.628 3.383-4.36 4.449-1.735 1.066-3.572 1.74-4.894 1.98a.5.5 0 0 1-.443-.138l-2.053-2.054a.5.5 0 0 1-.138-.443c.24-1.323.914-3.16 1.98-4.895C5.42 4.365 6.908 2.684 8.803 1.736c.666-.333 1.573-.508 2.454-.605A25.88 25.88 0 0 1 13.814 1M14 2.178A.175.175 0 0 0 13.823 2c-.725.006-1.61.03-2.455.123-.857.095-1.616.256-2.117.506-1.67.835-3.033 2.349-4.042 3.991C4.27 8.15 3.665 9.746 3.41 10.917l1.675 1.675c1.171-.253 2.767-.859 4.294-1.797 1.642-1.01 3.156-2.374 3.99-4.044.251-.502.411-1.26.506-2.118.093-.844.118-1.73.124-2.455" clip-rule="evenodd"/><path fill="currentColor" fill-rule="evenodd" d="M8.528 5.605a1.869 1.869 0 1 1 3.737 0 1.869 1.869 0 0 1-3.738 0m1.868-.869a.869.869 0 1 0 0 1.738.869.869 0 0 0 0-1.738M1.694 6.192a.5.5 0 0 1 .49-.402h2.644a.5.5 0 0 1 .416.777c-.652.978-1.225 2.303-1.559 3.304a.5.5 0 0 1-.474.342H1.5a.5.5 0 0 1-.491-.599l.684-3.422m.9.598L2.11 9.212h.745c.27-.748.646-1.625 1.087-2.422H2.594M10.494 14.306a.5.5 0 0 0 .402-.49V11.17a.5.5 0 0 0-.777-.417c-.978.652-2.302 1.226-3.302 1.56a.5.5 0 0 0-.343.474V14.5a.5.5 0 0 0 .599.49l3.421-.684m-.598-.9-2.421.484v-.746c.748-.269 1.625-.646 2.421-1.087v1.348" clip-rule="evenodd"/><path fill="currentColor" fill-rule="evenodd" d="M3.778 8.83a.5.5 0 0 1 .656-.262c.87.373 2.796 1.611 3.685 3.686a.5.5 0 0 1-.92.394c-.753-1.76-2.432-2.849-3.159-3.16a.5.5 0 0 1-.262-.657" clip-rule="evenodd"/></svg>