<svg xmlns="http://www.w3.org/2000/svg" width="16" height="16" fill="none" class="persona-icon" viewBox="0 0 16 16"><path fill="currentColor" d="M2 4.333A2.333 2.333 0 0 1 4.333 2h7.334A2.333 2.333 0 0 1 14 4.333v4.89a2.333 2.333 0 0 1-2.333 2.333H4.333A2.333 2.333 0 0 1 2 9.222V4.333ZM4.333 3C3.597 3 3 3.597 3 4.333v4.89c0 .736.597 1.333 1.333 1.333h7.334c.736 0 1.333-.597 1.333-1.334V4.333C13 3.597 12.403 3 11.667 3H4.333Z"/><path fill="currentColor" d="M2 9.222a.5.5 0 0 1 .5-.5h11a.5.5 0 0 1 0 1h-11a.5.5 0 0 1-.5-.5ZM6.278 10.556h3.444V14H6.278v-3.444Zm1 1V13h1.444v-1.444H7.278Z"/><path fill="currentColor" d="M3.833 13.5a.5.5 0 0 1 .5-.5h7.334a.5.5 0 0 1 0 1H4.333a.5.5 0 0 1-.5-.5Z"/></svg>