<svg xmlns="http://www.w3.org/2000/svg" width="16" height="16" fill="none" class="persona-icon" viewBox="0 0 16 16"><path fill="currentColor" fill-rule="evenodd" d="M6.496 2.147a.5.5 0 0 0-.707 0l-1.211 1.21-.003.003-.004.004-2.424 2.425a.5.5 0 0 0 0 .707l3.03 3.03.005.005.606.607a.5.5 0 0 0 .354.146h1.614l3.192 3.192a1.788 1.788 0 0 0 2.528-2.528l-3.192-3.192V6.142a.5.5 0 0 0-.146-.353l-.602-.603-.005-.004-3.035-3.036M4.928 4.42l.86.86a.5.5 0 0 0 .708-.707l-.86-.86.506-.507L8.47 5.535 5.535 8.47 3.207 6.142l.507-.507.86.86a.5.5 0 1 0 .708-.706l-.86-.86.506-.508m6.727 8.348L8.33 9.443a.5.5 0 0 0-.383-.159H6.349l-.107-.107 2.935-2.935.107.107v1.614a.5.5 0 0 0 .157.364l3.328 3.328a.788.788 0 0 1-1.114 1.114Z" clip-rule="evenodd"/></svg>