<svg xmlns="http://www.w3.org/2000/svg" width="16" height="16" fill="none" class="persona-icon" viewBox="0 0 16 16"><mask id="a" fill="#fff"><path fill-rule="evenodd" d="M2.667 2H4c.368 0 .667.299.667.667V4A.667.667 0 0 1 4 4.667H2.667A.667.667 0 0 1 2 4V2.667C2 2.299 2.299 2 2.667 2M3 3h.667v.667H3zm9-1h1.333c.368 0 .667.299.667.667V4a.667.667 0 0 1-.667.667H12A.667.667 0 0 1 11.333 4V2.667c0-.368.299-.667.667-.667m.333 1v.667H13V3zM5.944 5.333h4.112a.61.61 0 0 1 .61.611v4.112a.61.61 0 0 1-.61.61H5.944a.61.61 0 0 1-.61-.61V5.945a.61.61 0 0 1 .61-.612m.39 1v3.334h3.333V6.333zM11.333 12c0-.368.299-.667.667-.667h1.333c.368 0 .667.299.667.667v1.333a.667.667 0 0 1-.667.667H12a.667.667 0 0 1-.667-.667zm1 1H13v-.667h-.667zM2 12c0-.368.299-.667.667-.667H4c.368 0 .667.299.667.667v1.333A.667.667 0 0 1 4 14H2.667A.667.667 0 0 1 2 13.333zm1 1h.667v-.667H3z" clip-rule="evenodd"/><path d="M6 3c0-.184.15-.333.333-.333H7c.184 0 .333.149.333.333v.667A.334.334 0 0 1 7 4h-.667A.333.333 0 0 1 6 3.667zm.333 9H7c.184 0 .333.15.333.333V13a.333.333 0 0 1-.333.333h-.667A.333.333 0 0 1 6 13v-.667c0-.184.15-.333.333-.333M2.667 6.333C2.667 6.15 2.816 6 3 6h.667C3.85 6 4 6.15 4 6.333V7c0 .184-.15.333-.333.333H3A.333.333 0 0 1 2.667 7zM12.333 6H13c.184 0 .333.15.333.333V7a.333.333 0 0 1-.333.333h-.667A.333.333 0 0 1 12 7v-.667c0-.184.15-.333.333-.333M2.667 9c0-.184.149-.333.333-.333h.667C3.85 8.667 4 8.816 4 9v.667c0 .184-.15.333-.333.333H3a.333.333 0 0 1-.333-.333zM9 2.667h.667c.184 0 .333.149.333.333v.667C10 3.85 9.85 4 9.667 4H9a.333.333 0 0 1-.333-.333V3c0-.184.149-.333.333-.333M12 9c0-.184.15-.333.333-.333H13c.184 0 .333.149.333.333v.667A.333.333 0 0 1 13 10h-.667A.333.333 0 0 1 12 9.667zm-3 3h.667c.184 0 .333.15.333.333V13c0 .184-.15.333-.333.333H9A.333.333 0 0 1 8.667 13v-.667c0-.184.149-.333.333-.333"/></mask><path fill="currentColor" fill-rule="evenodd" d="M2.667 2H4c.368 0 .667.299.667.667V4A.667.667 0 0 1 4 4.667H2.667A.667.667 0 0 1 2 4V2.667C2 2.299 2.299 2 2.667 2M3 3h.667v.667H3zm9-1h1.333c.368 0 .667.299.667.667V4a.667.667 0 0 1-.667.667H12A.667.667 0 0 1 11.333 4V2.667c0-.368.299-.667.667-.667m.333 1v.667H13V3zM5.944 5.333h4.112a.61.61 0 0 1 .61.611v4.112a.61.61 0 0 1-.61.61H5.944a.61.61 0 0 1-.61-.61V5.945a.61.61 0 0 1 .61-.612m.39 1v3.334h3.333V6.333zM11.333 12c0-.368.299-.667.667-.667h1.333c.368 0 .667.299.667.667v1.333a.667.667 0 0 1-.667.667H12a.667.667 0 0 1-.667-.667zm1 1H13v-.667h-.667zM2 12c0-.368.299-.667.667-.667H4c.368 0 .667.299.667.667v1.333A.667.667 0 0 1 4 14H2.667A.667.667 0 0 1 2 13.333zm1 1h.667v-.667H3z" clip-rule="evenodd"/><path fill="currentColor" d="M6 3c0-.184.15-.333.333-.333H7c.184 0 .333.149.333.333v.667A.334.334 0 0 1 7 4h-.667A.333.333 0 0 1 6 3.667zm.333 9H7c.184 0 .333.15.333.333V13a.333.333 0 0 1-.333.333h-.667A.333.333 0 0 1 6 13v-.667c0-.184.15-.333.333-.333M2.667 6.333C2.667 6.15 2.816 6 3 6h.667C3.85 6 4 6.15 4 6.333V7c0 .184-.15.333-.333.333H3A.333.333 0 0 1 2.667 7zM12.333 6H13c.184 0 .333.15.333.333V7a.333.333 0 0 1-.333.333h-.667A.333.333 0 0 1 12 7v-.667c0-.184.15-.333.333-.333M2.667 9c0-.184.149-.333.333-.333h.667C3.85 8.667 4 8.816 4 9v.667c0 .184-.15.333-.333.333H3a.333.333 0 0 1-.333-.333zM9 2.667h.667c.184 0 .333.149.333.333v.667C10 3.85 9.85 4 9.667 4H9a.333.333 0 0 1-.333-.333V3c0-.184.149-.333.333-.333M12 9c0-.184.15-.333.333-.333H13c.184 0 .333.149.333.333v.667A.333.333 0 0 1 13 10h-.667A.333.333 0 0 1 12 9.667zm-3 3h.667c.184 0 .333.15.333.333V13c0 .184-.15.333-.333.333H9A.333.333 0 0 1 8.667 13v-.667c0-.184.149-.333.333-.333"/><path stroke="#000" stroke-width="2" d="M2.667 2H4c.368 0 .667.299.667.667V4A.667.667 0 0 1 4 4.667H2.667A.667.667 0 0 1 2 4V2.667C2 2.299 2.299 2 2.667 2ZM3 3h.667v.667H3zm9-1h1.333c.368 0 .667.299.667.667V4a.667.667 0 0 1-.667.667H12A.667.667 0 0 1 11.333 4V2.667c0-.368.299-.667.667-.667Zm.333 1v.667H13V3zM5.944 5.333h4.112a.61.61 0 0 1 .61.611v4.112a.61.61 0 0 1-.61.61H5.944a.61.61 0 0 1-.61-.61V5.945a.61.61 0 0 1 .61-.612Zm.39 1v3.334h3.333V6.333zM11.333 12c0-.368.299-.667.667-.667h1.333c.368 0 .667.299.667.667v1.333a.667.667 0 0 1-.667.667H12a.667.667 0 0 1-.667-.667zm1 1H13v-.667h-.667zM2 12c0-.368.299-.667.667-.667H4c.368 0 .667.299.667.667v1.333A.667.667 0 0 1 4 14H2.667A.667.667 0 0 1 2 13.333zm1 1h.667v-.667H3z" clip-rule="evenodd" mask="url(#a)"/><path stroke="#000" stroke-width="2" d="M6 3c0-.184.15-.333.333-.333H7c.184 0 .333.149.333.333v.667A.334.334 0 0 1 7 4h-.667A.333.333 0 0 1 6 3.667zm.333 9H7c.184 0 .333.15.333.333V13a.333.333 0 0 1-.333.333h-.667A.333.333 0 0 1 6 13v-.667c0-.184.15-.333.333-.333ZM2.667 6.333C2.667 6.15 2.816 6 3 6h.667C3.85 6 4 6.15 4 6.333V7c0 .184-.15.333-.333.333H3A.333.333 0 0 1 2.667 7zM12.333 6H13c.184 0 .333.15.333.333V7a.333.333 0 0 1-.333.333h-.667A.333.333 0 0 1 12 7v-.667c0-.184.15-.333.333-.333ZM2.667 9c0-.184.149-.333.333-.333h.667C3.85 8.667 4 8.816 4 9v.667c0 .184-.15.333-.333.333H3a.333.333 0 0 1-.333-.333zM9 2.667h.667c.184 0 .333.149.333.333v.667C10 3.85 9.85 4 9.667 4H9a.333.333 0 0 1-.333-.333V3c0-.184.149-.333.333-.333ZM12 9c0-.184.15-.333.333-.333H13c.184 0 .333.149.333.333v.667A.333.333 0 0 1 13 10h-.667A.333.333 0 0 1 12 9.667zm-3 3h.667c.184 0 .333.15.333.333V13c0 .184-.15.333-.333.333H9A.333.333 0 0 1 8.667 13v-.667c0-.184.149-.333.333-.333Z" mask="url(#a)"/></svg>