<svg xmlns="http://www.w3.org/2000/svg" width="16" height="16" fill="none" class="persona-icon" viewBox="0 0 16 16"><path fill="currentColor" fill-rule="evenodd" d="M10.916 2.536a1.8 1.8 0 1 1 2.546 2.547l-5.093 5.093a1.8 1.8 0 0 1-1.87.426 2.24 2.24 0 0 1 .075 1.564c-.224.711-.805 1.331-1.728 1.553-.907.218-2.086.042-3.535-.683a.491.491 0 0 1 .266-.928c.59.055.8-.05.875-.114.08-.066.137-.184.188-.476l.025-.161c.036-.243.085-.574.205-.855.175-.411.501-.753 1.076-.919.558-.161 1.063-.147 1.485.006a1.801 1.801 0 0 1 .392-1.96l5.093-5.093m-5.46 8.229c-.203-.24-.584-.428-1.238-.238-.28.08-.381.21-.445.36-.066.154-.09.313-.123.531-.012.08-.026.168-.043.267-.05.295-.143.704-.466 1.01.624.16 1.111.157 1.475.07.582-.14.899-.505 1.022-.895.129-.408.044-.836-.182-1.105m7.312-7.534a.819.819 0 0 0-1.158 0L6.517 8.324A.819.819 0 0 0 7.675 9.48l5.093-5.093a.819.819 0 0 0 0-1.157Z" clip-rule="evenodd"/></svg>