<svg xmlns="http://www.w3.org/2000/svg" width="16" height="16" fill="none" class="persona-icon" viewBox="0 0 16 16"><path fill="currentColor" d="m8.147 3.64-5.873 7.753A5.101 5.101 0 0 1 1.02 8.466 5.149 5.149 0 0 1 2.034 4.9a4.76 4.76 0 0 1 3.098-1.85 4.635 4.635 0 0 1 3.015.591ZM9.276 3.844l-6.25 8.24a4.589 4.589 0 0 0 3.22.892 4.707 4.707 0 0 0 1.858-.598 4.958 4.958 0 0 0 1.49-1.315L15 3.928a5.395 5.395 0 0 0-1.464-.702 5.19 5.19 0 0 0-2.08-.195c-.715.08-1.384.265-1.95.63a1.21 1.21 0 0 0-.23.183Z"/></svg>