<svg xmlns="http://www.w3.org/2000/svg" width="16" height="16" fill="none" class="persona-icon" viewBox="0 0 16 16"><path fill="currentColor" fill-rule="evenodd" d="M2 8a6 6 0 1 1 12 0A6 6 0 0 1 2 8m6-5a5 5 0 1 0 0 10A5 5 0 0 0 8 3" clip-rule="evenodd"/><path fill="currentColor" fill-rule="evenodd" d="M6.992 5.673c-.23.134-.325.294-.325.494a.5.5 0 0 1-1 0c0-.638.362-1.09.82-1.357.442-.259.995-.366 1.513-.366.518 0 1.07.107 1.513.366.457.267.82.719.82 1.357 0 .72-.313 1.267-.782 1.621-.312.235-.68.377-1.051.442v.381a.5.5 0 1 1-1 0v-.838a.5.5 0 0 1 .5-.5c.36 0 .706-.1.948-.283.226-.17.385-.426.385-.823 0-.2-.095-.36-.325-.494C8.763 5.53 8.4 5.444 8 5.444s-.763.086-1.008.23" clip-rule="evenodd"/><path fill="currentColor" d="M8.611 11.056a.611.611 0 1 1-1.222 0 .611.611 0 0 1 1.222 0"/></svg>