<svg xmlns="http://www.w3.org/2000/svg" width="20" height="20" fill="none" class="persona-icon" viewBox="0 0 20 20"><path fill="currentColor" fill-rule="evenodd" d="M9.992 7.17a.61.61 0 0 1 .845 0l2.488 2.42a.57.57 0 0 1 0 .82l-2.488 2.42a.61.61 0 0 1-.845 0 .57.57 0 0 1 0-.821L12.058 10 9.992 7.991a.57.57 0 0 1 0-.82Z" clip-rule="evenodd"/><path fill="currentColor" fill-rule="evenodd" d="M6.675 7.17a.61.61 0 0 1 .844 0l2.489 2.42a.57.57 0 0 1 0 .82l-2.489 2.42a.61.61 0 0 1-.844 0 .57.57 0 0 1 0-.821L8.74 10 6.675 7.991a.57.57 0 0 1 0-.82Z" clip-rule="evenodd"/></svg>