<svg xmlns="http://www.w3.org/2000/svg" width="20" height="20" fill="none" class="persona-icon" viewBox="0 0 20 20"><path fill="currentColor" fill-rule="evenodd" d="M11.027 3.567a.6.6 0 0 1 .324.533v11.8a.6.6 0 0 1-.946.49L5.67 13.04H3.823A1.823 1.823 0 0 1 2 11.22V8.78c0-1.006.816-1.822 1.823-1.822H5.67l4.735-3.349a.6.6 0 0 1 .622-.043ZM10.15 5.26l-3.944 2.79a.6.6 0 0 1-.347.11H3.823a.623.623 0 0 0-.623.622v2.438c0 .344.279.622.623.622H5.86a.6.6 0 0 1 .347.11l3.944 2.79V5.259Zm2.58 2.317a.6.6 0 0 1 .848 0l1.575 1.576 1.576-1.575a.6.6 0 1 1 .848.848L16.003 10l1.575 1.575a.6.6 0 0 1-.848.849l-1.576-1.575-1.575 1.575a.6.6 0 1 1-.849-.849L14.306 10 12.73 8.425a.6.6 0 0 1 0-.849Z" clip-rule="evenodd"/></svg>