<svg xmlns="http://www.w3.org/2000/svg" width="20" height="20" fill="none" class="persona-icon" viewBox="0 0 20 20"><path fill="currentColor" fill-rule="evenodd" d="M13.373 3.622a2.124 2.124 0 1 1 3.003 3.004l-5.926 5.926c-.58.58-1.413.755-2.145.523.229.557.248 1.199.064 1.782-.265.837-.948 1.565-2.033 1.826-1.063.256-2.443.048-4.132-.798a.6.6 0 0 1 .325-1.134c.683.065.918-.059.998-.125.083-.07.149-.198.208-.537l.028-.185c.042-.282.1-.673.241-1.004.207-.486.593-.89 1.27-1.085.63-.182 1.203-.174 1.687-.013a2.124 2.124 0 0 1 .486-2.254l5.926-5.926m-6.355 9.614c-.227-.27-.658-.486-1.41-.269-.318.092-.429.237-.5.404-.075.175-.103.356-.14.608-.015.094-.03.197-.05.314-.058.333-.161.797-.515 1.155.699.173 1.245.166 1.653.068.667-.16 1.028-.577 1.168-1.02.148-.468.05-.956-.206-1.26m8.51-8.765a.924.924 0 0 0-1.307 0l-5.926 5.926a.924.924 0 1 0 1.306 1.306l5.927-5.926a.924.924 0 0 0 0-1.306Z" clip-rule="evenodd"/></svg>