<svg xmlns="http://www.w3.org/2000/svg" width="20" height="20" fill="none" class="persona-icon" viewBox="0 0 20 20"><path fill="currentColor" d="M8.165 9.34a.66.66 0 1 0 0 1.32h3.67a.66.66 0 0 0 0-1.32h-3.67"/><path fill="currentColor" fill-rule="evenodd" d="M2 6.33c0 .654.397 1.215.964 1.454-.03.122-.046.25-.046.381v8.257c0 .872.706 1.578 1.578 1.578h11.009c.871 0 1.578-.706 1.578-1.578V8.165c0-.131-.016-.259-.046-.38.566-.24.963-.801.963-1.455V3.578C18 2.707 17.294 2 16.422 2H3.578C2.707 2 2 2.707 2 3.578V6.33m1.578.257a.257.257 0 0 1-.257-.257V3.578c0-.142.115-.257.257-.257h12.844c.142 0 .257.115.257.257V6.33a.257.257 0 0 1-.257.257H3.578Zm.66 1.578c0-.142.116-.257.258-.257h11.009c.142 0 .257.115.257.257v8.257a.257.257 0 0 1-.257.257H4.495a.257.257 0 0 1-.256-.257V8.165" clip-rule="evenodd"/></svg>