<svg xmlns="http://www.w3.org/2000/svg" width="20" height="20" fill="none" class="persona-icon" viewBox="0 0 20 20"><path fill="currentColor" fill-rule="evenodd" d="M10.472 2.401A1.653 1.653 0 0 0 9.396 2h-.98C7.151 2 6.197 3.076 6.197 4.316v5.052c0 1.24.955 2.316 2.218 2.316h.951v1.987a2.22 2.22 0 0 0-1.492 1.487h-4.74a.633.633 0 1 0 0 1.263h4.74A2.218 2.218 0 0 0 10 18a2.218 2.218 0 0 0 2.126-1.579h4.74a.633.633 0 1 0 0-1.263h-4.74a2.22 2.22 0 0 0-1.492-1.487v-1.987h.95c1.264 0 2.219-1.076 2.219-2.316V6.643a1.798 1.798 0 0 0-.442-1.185l-2.795-2.97a.814.814 0 0 0-.094-.087m-2.056.862h.783v1.792c0 .93.72 1.754 1.69 1.754h1.646v2.56c0 .62-.463 1.052-.95 1.052h-3.17c-.487 0-.95-.432-.95-1.053V4.316c0-.62.463-1.053.95-1.053M10 14.843c.525 0 .95.423.95.947a.949.949 0 0 1-.95.947.949.949 0 0 1-.95-.947c0-.524.425-.948.95-.948m.467-10.614 1.24 1.317h-.818c-.195 0-.422-.18-.422-.491v-.826" clip-rule="evenodd"/></svg>