<svg xmlns="http://www.w3.org/2000/svg" width="20" height="20" fill="none" class="persona-icon" viewBox="0 0 20 20"><path fill="currentColor" fill-rule="evenodd" d="M11.668 2.945c-.755-1.26-2.58-1.26-3.336 0a1.945 1.945 0 0 1-2.14.887c-1.426-.357-2.717.934-2.36 2.359.208.831-.152 1.7-.887 2.14-1.26.756-1.26 2.582 0 3.337.735.44 1.095 1.31.887 2.141-.357 1.425.934 2.716 2.36 2.36.83-.21 1.7.15 2.14.886.755 1.26 2.581 1.26 3.336 0a1.945 1.945 0 0 1 2.141-.887c1.425.357 2.716-.934 2.36-2.359-.21-.831.151-1.7.886-2.14 1.26-.756 1.26-2.582 0-3.337a1.945 1.945 0 0 1-.887-2.141c.357-1.425-.934-2.716-2.359-2.36a1.945 1.945 0 0 1-2.14-.886m2.046 5.85-4.099 4.1c-.24.24-.63.24-.87 0l-2.46-2.46a.615.615 0 0 1 .87-.87L9.18 11.59l3.665-3.665a.615.615 0 0 1 .87.87" clip-rule="evenodd"/></svg>