<svg xmlns="http://www.w3.org/2000/svg" width="20" height="20" fill="none" class="persona-icon" viewBox="0 0 20 20"><path fill="currentColor" fill-rule="evenodd" d="M3.11 3.176a.6.6 0 0 1 .849 0l12.8 12.8a.6.6 0 0 1-.849.848l-4.558-4.558V15.8a.6.6 0 0 1-.942.492L5.673 13h-1.85A1.823 1.823 0 0 1 2 11.177V8.823C2 7.816 2.816 7 3.823 7h2.263L3.11 4.024a.6.6 0 0 1 0-.848Zm4.173 5.021a.615.615 0 0 1-.06.003h-3.4a.623.623 0 0 0-.623.623v2.354c0 .344.279.623.623.623H5.86a.6.6 0 0 1 .343.107l3.949 2.745v-3.585l-2.87-2.87ZM11.03 3.67a.6.6 0 0 1 .322.531V8a.6.6 0 1 1-1.2 0V5.348l-1.197.833a.6.6 0 1 1-.685-.986l2.14-1.487a.6.6 0 0 1 .62-.04Zm1.406 3.86a.6.6 0 0 1 .733-.427c.645.17 1.217.544 1.627 1.067.41.524.633 1.168.633 1.831a2.97 2.97 0 0 1-.633 1.83.6.6 0 0 1-.945-.739 1.77 1.77 0 0 0 .378-1.09 1.77 1.77 0 0 0-.378-1.092 1.85 1.85 0 0 0-.988-.647.6.6 0 0 1-.427-.733Zm1.463-2.078a.6.6 0 0 1 .781-.33 5.35 5.35 0 0 1 2.411 1.94c.592.868.909 1.89.909 2.937a5.217 5.217 0 0 1-1.456 3.616.6.6 0 0 1-.867-.829A4.017 4.017 0 0 0 16.8 9.998c0-.804-.244-1.59-.7-2.261a4.15 4.15 0 0 0-1.871-1.505.6.6 0 0 1-.33-.781Z" clip-rule="evenodd"/></svg>