<svg xmlns="http://www.w3.org/2000/svg" width="20" height="20" fill="none" class="persona-icon"><g fill="currentColor" clip-path="url(#a)"><path d="M12.967 1.5a.6.6 0 1 0 0 1.2h3.484L9.665 9.488a.6.6 0 0 0 .849.849L17.3 3.549v3.485a.6.6 0 0 0 1.2 0V2.1a.6.6 0 0 0-.6-.6h-4.933Z"/><path d="M3.7 6.212c0-1.031.836-1.867 1.866-1.867h4.112a.6.6 0 0 0 0-1.2H5.566A3.066 3.066 0 0 0 2.5 6.212v8.222A3.066 3.066 0 0 0 5.566 17.5h8.222a3.067 3.067 0 0 0 3.067-3.066v-4.111a.6.6 0 0 0-1.2 0v4.11c0 1.031-.836 1.867-1.867 1.867H5.566A1.867 1.867 0 0 1 3.7 14.433V6.213Z"/></g><defs><clipPath id="a"><path fill="#fff" d="M0 0h20v20H0z"/></clipPath></defs></svg>