<svg xmlns="http://www.w3.org/2000/svg" width="20" height="20" fill="none" class="persona-icon"><path fill="currentColor" d="M6.605 2.632c0-.35.283-.632.632-.632h5.526c.349 0 .632.283.632.632v3.973h3.973c.35 0 .632.283.632.632v5.526a.632.632 0 0 1-.632.632h-3.973v3.973a.632.632 0 0 1-.632.632H7.237a.632.632 0 0 1-.632-.632v-3.973H2.632A.632.632 0 0 1 2 12.763V7.237c0-.349.283-.632.632-.632h3.973V2.632Zm1.263.631v3.974a.632.632 0 0 1-.631.631H3.263v4.264h3.974c.349 0 .631.282.631.631v3.974h4.264v-3.974c0-.349.282-.631.631-.631h3.974V7.868h-3.974a.632.632 0 0 1-.631-.631V3.263H7.868Z"/></svg>