<svg xmlns="http://www.w3.org/2000/svg" width="20" height="20" fill="none" class="persona-icon" viewBox="0 0 20 20"><path fill="currentColor" fill-rule="evenodd" d="M9.729 2.07a.559.559 0 0 1 .542 0l7.442 4.135a.558.558 0 0 1 .287.488v6.615c0 .202-.11.389-.287.487L10.27 17.93a.559.559 0 0 1-.542 0l-7.442-4.135A.558.558 0 0 1 2 13.307V6.693c0-.203.11-.39.287-.488L9.73 2.07m-.287 14.423v-5.338L3.116 7.641v5.338l6.326 3.514M6.62 5.074 3.707 6.693 10 10.188l2.613-1.451L6.62 5.074Zm7.114 3.04 2.559-1.421L10 3.197 7.741 4.45l5.993 3.663m3.15-.473-6.326 3.514v5.338l6.326-3.514V7.641" clip-rule="evenodd"/></svg>