<svg xmlns="http://www.w3.org/2000/svg" width="20" height="20" fill="none" class="persona-icon" viewBox="0 0 20 20"><path fill="currentColor" d="M5.062 12.762a.6.6 0 0 0-.593.606.6.6 0 0 0 .593.606H10a.6.6 0 0 0 .593-.606.6.6 0 0 0-.593-.606H5.062Z"/><path fill="currentColor" d="M2 4.948c0-.8.634-1.448 1.416-1.448h13.168c.782 0 1.416.648 1.416 1.448v10.104c0 .8-.634 1.448-1.416 1.448H3.416C2.634 16.5 2 15.852 2 15.052V4.948Zm14.815 0a.233.233 0 0 0-.23-.236H3.414a.233.233 0 0 0-.23.236v2.34h13.63v-2.34Zm0 3.553H3.185v6.55c0 .131.103.237.23.237h13.17c.127 0 .23-.106.23-.236v-6.55Z"/></svg>