<svg xmlns="http://www.w3.org/2000/svg" width="20" height="20" fill="none" class="persona-icon" viewBox="0 0 20 20"><path fill="currentColor" fill-rule="evenodd" d="M5.062 3.185c-1.037 0-1.877.84-1.877 1.877v9.876c0 1.037.84 1.877 1.877 1.877H10A.593.593 0 1 1 10 18H5.062A3.062 3.062 0 0 1 2 14.938V5.062C2 3.37 3.37 2 5.062 2H10a.593.593 0 1 1 0 1.185H5.062Zm7.811 2.28a.592.592 0 0 1 .838 0l4.115 4.116a.592.592 0 0 1 0 .838l-4.115 4.115a.593.593 0 0 1-.838-.838l3.104-3.103H7.53a.593.593 0 1 1 0-1.186h8.446l-3.104-3.103a.592.592 0 0 1 0-.838Z" clip-rule="evenodd"/></svg>