<svg xmlns="http://www.w3.org/2000/svg" width="20" height="20" fill="none" class="persona-icon" viewBox="0 0 20 20"><path fill="currentColor" fill-rule="evenodd" d="M2.5 4.625c0-.345.288-.625.643-.625h13.714c.355 0 .643.28.643.625a.634.634 0 0 1-.643.625H3.143a.634.634 0 0 1-.643-.625M2.5 8.208c0-.345.288-.625.643-.625h13.714c.355 0 .643.28.643.625a.634.634 0 0 1-.643.625H3.143a.634.634 0 0 1-.643-.625M2.5 15.375c0-.345.288-.625.643-.625h13.714c.355 0 .643.28.643.625a.634.634 0 0 1-.643.625H3.143a.634.634 0 0 1-.643-.625M2.5 11.792c0-.345.288-.625.643-.625h13.714c.355 0 .643.28.643.625a.634.634 0 0 1-.643.625H3.143a.634.634 0 0 1-.643-.625" clip-rule="evenodd"/></svg>