<svg xmlns="http://www.w3.org/2000/svg" width="20" height="20" fill="none" class="persona-icon" viewBox="0 0 20 20"><path fill="currentColor" d="M8.608 4.393a1.393 1.393 0 1 0 2.785 0 1.393 1.393 0 0 0-2.785 0ZM8.608 10a1.393 1.393 0 1 0 2.785 0 1.393 1.393 0 0 0-2.785 0ZM3 15.607a1.393 1.393 0 1 0 2.786 0 1.393 1.393 0 0 0-2.785 0ZM8.608 15.607a1.393 1.393 0 1 0 2.785 0 1.393 1.393 0 0 0-2.785 0ZM14.215 15.607a1.393 1.393 0 1 0 2.786 0 1.393 1.393 0 0 0-2.786 0ZM14.215 10a1.393 1.393 0 1 0 2.786 0 1.393 1.393 0 0 0-2.786 0ZM3 10a1.393 1.393 0 1 0 2.786 0A1.393 1.393 0 0 0 3 10ZM14.215 4.393a1.393 1.393 0 1 0 2.786 0 1.393 1.393 0 0 0-2.786 0ZM3 4.393a1.393 1.393 0 1 0 2.786 0 1.393 1.393 0 0 0-2.785 0Z"/></svg>