<svg xmlns="http://www.w3.org/2000/svg" width="20" height="20" fill="none" class="persona-icon" viewBox="0 0 20 20"><path fill="currentColor" fill-rule="evenodd" d="M10.582 4.207c0-.345.28-.625.625-.625h6.667a.625.625 0 1 1 0 1.25h-6.667a.625.625 0 0 1-.625-.625M11.661 6.707c0-.345.28-.625.625-.625h5.588a.625.625 0 1 1 0 1.25h-5.588a.625.625 0 0 1-.625-.625M12.756 9.207c0-.346.28-.625.625-.625h4.492a.625.625 0 1 1 0 1.25h-4.492a.625.625 0 0 1-.625-.625M7.1 3.5a.6.6 0 0 1 .552.367l5 11.788a.608.608 0 0 1-.316.796.598.598 0 0 1-.787-.319l-1.63-3.842H4.282l-1.63 3.842a.598.598 0 0 1-.788.319.608.608 0 0 1-.315-.796l5-11.788A.6.6 0 0 1 7.1 3.5m-2.304 7.578h4.609L7.1 5.645l-2.304 5.433" clip-rule="evenodd"/></svg>