<svg xmlns="http://www.w3.org/2000/svg" width="20" height="20" fill="none" class="persona-icon" viewBox="0 0 20 20"><path fill="currentColor" d="M10.593 17.407a.593.593 0 0 0-.593-.592H5.062a1.876 1.876 0 0 1-1.877-1.877V5.062c0-1.037.84-1.877 1.877-1.877H10A.593.593 0 1 0 10 2H5.062A3.062 3.062 0 0 0 2 5.062v9.876C2 16.63 3.37 18 5.062 18H10a.593.593 0 0 0 .593-.593Z"/><path fill="currentColor" d="M18 10a.593.593 0 0 0-.593-.593H8.961l3.104-3.103a.593.593 0 0 0-.838-.838L7.112 9.58a.593.593 0 0 0 0 .838l4.115 4.115a.593.593 0 1 0 .838-.838l-3.104-3.103h8.446A.593.593 0 0 0 18 10Z"/></svg>