<svg xmlns="http://www.w3.org/2000/svg" width="20" height="20" fill="none" class="persona-icon" viewBox="0 0 20 20"><path fill="currentColor" d="M6.936 7.755a.55.55 0 0 0-.558.543c0 .3.25.543.558.543h5.253a.55.55 0 0 0 .558-.543.55.55 0 0 0-.558-.543H6.936ZM6.936 11.16a.55.55 0 0 0-.558.542c0 .3.25.543.558.543h3.283a.55.55 0 0 0 .558-.543.55.55 0 0 0-.558-.542H6.936Z"/><path fill="currentColor" fill-rule="evenodd" d="M5.185 3.5C3.425 3.5 2 4.886 2 6.596v6.808c0 1.71 1.426 3.096 3.185 3.096h12.257a.562.562 0 0 0 .477-.261.53.53 0 0 0 .018-.532l-1-1.868V6.596c0-1.71-1.426-3.096-3.185-3.096H5.185ZM3.116 6.596c0-1.11.926-2.01 2.069-2.01h8.567c1.143 0 2.069.9 2.069 2.01v7.508l.701 1.31H5.185c-1.143 0-2.069-.9-2.069-2.01V6.596Z" clip-rule="evenodd"/></svg>