<svg xmlns="http://www.w3.org/2000/svg" width="20" height="20" fill="none" class="persona-icon" viewBox="0 0 20 20"><path fill="currentColor" d="M6 4.333a1.333 1.333 0 1 0 2.667 0 1.333 1.333 0 0 0-2.667 0M6 10a1.333 1.333 0 1 0 2.667 0A1.333 1.333 0 0 0 6 10M6 15.667a1.333 1.333 0 1 0 2.667 0 1.333 1.333 0 0 0-2.667 0M11.333 15.667a1.333 1.333 0 1 0 2.667 0 1.333 1.333 0 0 0-2.667 0M11.333 10A1.333 1.333 0 1 0 14 10a1.333 1.333 0 0 0-2.667 0M11.333 4.333a1.333 1.333 0 1 0 2.667 0 1.333 1.333 0 0 0-2.667 0"/></svg>