<svg xmlns="http://www.w3.org/2000/svg" width="20" height="20" fill="none" class="persona-icon" viewBox="0 0 20 20"><path fill="currentColor" fill-rule="evenodd" d="M2.5 8.002a.61.61 0 0 1 .61-.61h1.956a.61.61 0 0 1 0 1.22H3.11a.61.61 0 0 1-.61-.61m5.038.63a.61.61 0 0 1 0 .863L5.092 11.94a2.157 2.157 0 1 0 3.05 3.05l2.447-2.445a.61.61 0 1 1 .862.862l-2.446 2.446a3.377 3.377 0 1 1-4.775-4.776l2.446-2.446a.61.61 0 0 1 .862 0M3.741 3.741a.61.61 0 0 1 .862 0l1.468 1.467a.61.61 0 0 1-.863.863L3.741 4.603a.61.61 0 0 1 0-.862M8 2.5a.61.61 0 0 1 .61.61v1.956a.61.61 0 1 1-1.22 0V3.11a.61.61 0 0 1 .61-.61m3.077 1.73a3.377 3.377 0 1 1 4.775 4.776l-2.445 2.445a.61.61 0 0 1-.863-.862l2.446-2.446a2.157 2.157 0 1 0-3.05-3.05L9.493 7.538a.61.61 0 0 1-.862-.862l2.446-2.446m.92 10.093a.61.61 0 0 1 .61.61v1.957a.61.61 0 0 1-1.22 0v-1.957a.61.61 0 0 1 .61-.61m1.803-.226a.61.61 0 0 1 .848-.154l1.468 1.017a.61.61 0 1 1-.695 1.002l-1.467-1.016a.61.61 0 0 1-.154-.849m.523-2.099a.61.61 0 0 1 .61-.61h1.956a.61.61 0 1 1 0 1.22h-1.957a.61.61 0 0 1-.61-.61" clip-rule="evenodd"/></svg>