<svg xmlns="http://www.w3.org/2000/svg" width="20" height="20" fill="none" class="persona-icon" viewBox="0 0 20 20"><path fill="currentColor" d="M11.424 5.136a.592.592 0 1 0 0 1.183h1.42l-2.55 2.55a.592.592 0 0 0 .836.837l2.55-2.55v1.42a.591.591 0 1 0 1.184 0V5.728a.592.592 0 0 0-.388-.556"/><path fill="currentColor" d="M5.728 3A2.728 2.728 0 0 0 3 5.728v8.544A2.728 2.728 0 0 0 5.728 17h8.544A2.728 2.728 0 0 0 17 14.272V5.728A2.728 2.728 0 0 0 14.272 3H5.728Zm4.384 12.817c.303-.44.48-.971.48-1.545v-2.136A2.728 2.728 0 0 0 7.864 9.41H5.728c-.574 0-1.106.176-1.545.479v-4.16c0-.853.692-1.545 1.545-1.545h8.544c.853 0 1.545.692 1.545 1.545v8.544c0 .853-.692 1.545-1.545 1.545h-4.16Zm-5.929-3.68c0-.854.692-1.546 1.545-1.546h2.136c.853 0 1.545.692 1.545 1.545v2.136c0 .853-.692 1.545-1.545 1.545H5.728a1.545 1.545 0 0 1-1.545-1.545v-2.136Z"/></svg>