<svg xmlns="http://www.w3.org/2000/svg" width="20" height="20" fill="none" class="persona-icon" viewBox="0 0 20 20"><path fill="currentColor" fill-rule="evenodd" d="M4.152 2A2.152 2.152 0 0 0 2 4.152V8.83c0 .328.265.593.593.593h2.526v7.205a.593.593 0 0 0 1.011.419l1.56-1.56a.593.593 0 0 0-.838-.838l-.548.548V4.152c0-.348-.082-.676-.229-.967h8.993c.534 0 .967.433.967.967v3.899a.593.593 0 1 0 1.185 0V4.152A2.152 2.152 0 0 0 15.068 2H4.152Zm0 1.185c.534 0 .967.433.967.967v4.086H3.185V4.152c0-.534.433-.967.967-.967Z" clip-rule="evenodd"/><path fill="currentColor" d="M8.238 5.711c0-.327.265-.592.593-.592h4.678a.593.593 0 1 1 0 1.185H8.83a.593.593 0 0 1-.593-.593ZM8.83 7.458a.593.593 0 1 0 0 1.185h1.56a.593.593 0 1 0 0-1.185H8.83ZM13.509 11.357c.327 0 .592.265.592.592v1.314l.996.996a.593.593 0 0 1-.838.838l-1.343-1.343V11.95c0-.327.265-.592.593-.592Z"/><path fill="currentColor" fill-rule="evenodd" d="M13.509 9.018a4.491 4.491 0 1 0 0 8.982 4.491 4.491 0 0 0 0-8.982Zm-3.306 4.49a3.306 3.306 0 1 1 6.612 0 3.306 3.306 0 0 1-6.612 0Z" clip-rule="evenodd"/></svg>