<svg xmlns="http://www.w3.org/2000/svg" width="20" height="20" fill="none" class="persona-icon" viewBox="0 0 20 20"><path fill="currentColor" fill-rule="evenodd" d="M10 8a3 3 0 1 0 0 6 3 3 0 0 0 0-6m-1.839 3a1.839 1.839 0 1 1 3.678 0 1.839 1.839 0 0 1-3.678 0" clip-rule="evenodd"/><path fill="currentColor" fill-rule="evenodd" d="M9.024 3c-.584 0-1.145.228-1.563.635L5.644 5.403h-.582A3.059 3.059 0 0 0 2 8.46v5.484A3.06 3.06 0 0 0 5.062 17h9.876A3.06 3.06 0 0 0 18 13.944V8.459a3.059 3.059 0 0 0-3.062-3.056h-.582L12.54 3.635A2.24 2.24 0 0 0 10.976 3H9.024m-.736 1.482c.197-.192.46-.299.736-.299h1.952c.275 0 .54.107.736.299l1.99 1.936c.11.108.259.168.413.168h.823c1.037 0 1.877.839 1.877 1.874v5.484c0 1.034-.84 1.873-1.877 1.873H5.062a1.875 1.875 0 0 1-1.877-1.873V8.459c0-1.034.84-1.873 1.877-1.873h.823c.154 0 .303-.06.414-.168l1.99-1.936" clip-rule="evenodd"/></svg>