<svg xmlns="http://www.w3.org/2000/svg" width="20" height="20" fill="none" class="persona-icon" viewBox="0 0 20 20"><path fill="currentColor" fill-rule="evenodd" d="M6.25 5.25c0-.345.28-.625.625-.625h10a.625.625 0 1 1 0 1.25h-10a.625.625 0 0 1-.625-.625M6.25 10c0-.345.28-.625.625-.625h10a.625.625 0 1 1 0 1.25h-10A.625.625 0 0 1 6.25 10M6.25 14.75c0-.345.28-.625.625-.625h10a.625.625 0 1 1 0 1.25h-10a.625.625 0 0 1-.625-.625" clip-rule="evenodd"/><path fill="currentColor" d="M5 5.25a1.25 1.25 0 1 1-2.5 0 1.25 1.25 0 0 1 2.5 0M5 10a1.25 1.25 0 1 1-2.5 0A1.25 1.25 0 0 1 5 10M5 14.75a1.25 1.25 0 1 1-2.5 0 1.25 1.25 0 0 1 2.5 0"/></svg>