<svg xmlns="http://www.w3.org/2000/svg" width="20" height="20" fill="none" class="persona-icon" viewBox="0 0 20 20"><path fill="currentColor" fill-rule="evenodd" d="M9.761 2.048a.619.619 0 0 1 .478 0l5.894 2.47a.592.592 0 0 1 .367.544v6.584c0 1.938-1.467 3.532-2.868 4.585-.719.54-1.464.973-2.09 1.271-.312.15-.602.27-.849.353-.226.076-.48.145-.693.145-.214 0-.467-.069-.693-.145a7.836 7.836 0 0 1-.85-.352c-.625-.3-1.37-.731-2.09-1.272-1.4-1.053-2.867-2.648-2.867-4.585V5.062c0-.237.144-.452.367-.545l5.894-2.47ZM4.712 5.452v6.194c0 1.355 1.06 2.641 2.395 3.646.65.488 1.325.879 1.883 1.146.28.133.523.233.713.297.19.064.282.078.295.08h.004c.013-.003.104-.016.295-.08.19-.064.433-.164.713-.297a11.4 11.4 0 0 0 1.883-1.146c1.336-1.005 2.395-2.291 2.395-3.646V5.452L10 3.237 4.712 5.452Z" clip-rule="evenodd"/></svg>