<svg xmlns="http://www.w3.org/2000/svg" width="20" height="20" fill="none" class="persona-icon"><path fill="currentColor" d="M4.47 5.885a3.885 3.885 0 1 1 7.769 0 3.885 3.885 0 0 1-7.77 0Zm3.884-2.7a2.7 2.7 0 1 0 0 5.4 2.7 2.7 0 0 0 0-5.4ZM2.69 12.868a5.174 5.174 0 0 1 3.936-1.815h3.456c1.514 0 2.952.664 3.935 1.815.446.522.69 1.186.69 1.873v.197c0 1.691-1.37 3.062-3.06 3.062H5.061A3.062 3.062 0 0 1 2 14.938v-.197c0-.687.245-1.35.69-1.873Zm10.426.77a3.99 3.99 0 0 0-3.034-1.4H6.626a3.99 3.99 0 0 0-3.034 1.4 1.698 1.698 0 0 0-.407 1.103v.197c0 1.037.84 1.877 1.877 1.877h6.584c1.036 0 1.877-.84 1.877-1.877v-.197c0-.405-.145-.796-.407-1.103ZM17.826 7.112a.593.593 0 0 1 0 .838l-2.469 2.469a.593.593 0 0 1-.838 0l-1.646-1.646a.593.593 0 0 1 .838-.838l1.227 1.227 2.05-2.05a.593.593 0 0 1 .838 0Z"/></svg>