<svg xmlns="http://www.w3.org/2000/svg" width="20" height="20" fill="none" class="persona-icon"><path fill="currentColor" d="M2 2.676C2 2.303 2.303 2 2.676 2h2.441c.374 0 .676.303.676.676v2.441a.676.676 0 0 1-.676.676h-2.44A.676.676 0 0 1 2 5.117v-2.44ZM2 7.56c0-.374.303-.676.676-.676h1.628a.676.676 0 1 1 0 1.352h-.952v.951a.676.676 0 1 1-1.352 0V7.56Zm2.304 2.579c.373 0 .676.302.676.676v1.627a.676.676 0 0 1-.676.676H2.676a.676.676 0 1 1 0-1.352h.951v-.951c0-.374.303-.676.677-.676ZM2 14.883c0-.374.303-.676.676-.676h2.441c.374 0 .676.302.676.676v2.441a.676.676 0 0 1-.676.676h-2.44A.676.676 0 0 1 2 17.324v-2.441Zm1.352-11.53V4.44h1.09V3.352h-1.09Zm0 12.206v1.089h1.09v-1.09h-1.09Zm2.717-8c0-.823.667-1.49 1.49-1.49h4.882c.823 0 1.49.667 1.49 1.49v4.882a1.49 1.49 0 0 1-1.49 1.49H7.56a1.49 1.49 0 0 1-1.49-1.49V7.56ZM7.559 2c.373 0 .676.303.676.676v.952h.951a.676.676 0 1 1 0 1.352H7.56a.677.677 0 0 1-.676-.676V2.676c0-.373.302-.676.676-.676Zm0 13.02c.373 0 .676.303.676.676v.952h.951a.676.676 0 1 1 0 1.352H7.56a.676.676 0 0 1-.676-.676v-1.628c0-.373.302-.676.676-.676Zm0-7.599a.138.138 0 0 0-.138.138v4.882c0 .076.062.138.138.138h4.882a.138.138 0 0 0 .138-.138V7.56a.138.138 0 0 0-.138-.138H7.56Zm4.206-4.069h-.951a.676.676 0 1 1 0-1.352h1.627a.676.676 0 0 1 .676.676v1.628a.676.676 0 1 1-1.352 0v-.952Zm0 13.02h-.951a.676.676 0 1 1 0-1.352h1.627a.676.676 0 0 1 .676.676v1.628a.676.676 0 0 1-1.352 0v-.952Zm2.442-13.696c0-.373.302-.676.676-.676h2.44c.374 0 .677.303.677.676v2.441a.676.676 0 0 1-.676.676h-2.441a.676.676 0 0 1-.676-.676v-2.44Zm0 12.207c0-.374.302-.676.676-.676h2.44c.374 0 .677.302.677.676v2.441a.676.676 0 0 1-.676.676h-2.441a.676.676 0 0 1-.676-.676v-2.441Zm.813-7.324c0-.374.303-.676.676-.676h1.628a.676.676 0 1 1 0 1.352h-.952v.951a.676.676 0 1 1-1.352 0V7.56Zm2.304 2.579c.373 0 .676.302.676.676v1.627a.676.676 0 0 1-.676.676h-1.628a.676.676 0 1 1 0-1.352h.952v-.951c0-.374.303-.676.676-.676Zm-1.765-6.786v1.09h1.089v-1.09h-1.09Zm0 12.207v1.089h1.089v-1.09h-1.09Z"/></svg>