<svg xmlns="http://www.w3.org/2000/svg" width="20" height="20" fill="none" class="persona-icon"><path fill="currentColor" d="M8.286 2a.63.63 0 0 0-.643.615c0 .34.288.616.643.616h3.428a.63.63 0 0 0 .643-.616.63.63 0 0 0-.643-.615H8.286ZM10 6.103a.63.63 0 0 1 .643.615v3.916l1.606 2.307a.6.6 0 0 1-.178.853.66.66 0 0 1-.892-.17l-1.822-2.617v-4.29A.63.63 0 0 1 10 6.104Z"/><path fill="currentColor" d="M5.17 5.327A7.705 7.705 0 0 1 10 3.6c1.84 0 3.525.675 4.83 1.727l.716-.685a.663.663 0 0 1 .909 0c.25.24.25.63 0 .87l-.716.686c1.099 1.249 1.56 2.862 1.56 4.622 0 3.966-3.157 7.18-7.3 7.18C5.859 18 2.7 14.786 2.7 10.82c0-1.76.462-3.373 1.561-4.623l-.716-.685a.597.597 0 0 1 0-.87.663.663 0 0 1 .91 0l.716.685ZM10 4.8c-3.432 0-6.1 2.735-6.1 6.02 0 3.286 2.668 5.98 6.1 5.98 3.432 0 6.1-2.694 6.1-5.98 0-3.285-2.668-6.02-6.1-6.02Z"/></svg>