<svg xmlns="http://www.w3.org/2000/svg" width="20" height="20" fill="none" class="persona-icon" viewBox="0 0 20 20"><path fill="currentColor" fill-rule="evenodd" d="M5.728 3A2.728 2.728 0 0 0 3 5.728v5.696a2.728 2.728 0 0 0 2.728 2.728h2.256v1.665H5.728a.592.592 0 1 0 0 1.183h8.544a.591.591 0 1 0 0-1.183h-2.256v-1.665h2.256A2.728 2.728 0 0 0 17 11.426l-1.183-.884v-.002l1.183.884V5.728A2.728 2.728 0 0 0 14.272 3H5.728ZM7.31 4.183l8.506 6.359v.29H4.183V5.729c0-.853.692-1.545 1.545-1.545H7.31M4.3 12.016H15.7c-.233.56-.784.953-1.428.953H5.728a1.545 1.545 0 0 1-1.427-.953m3.01-7.833h6.961c.853 0 1.545.692 1.545 1.545v4.812L7.31 4.183m3.521 11.634H9.168v-1.665h1.665v1.665" clip-rule="evenodd"/></svg>