<svg xmlns="http://www.w3.org/2000/svg" width="20" height="20" fill="none" class="persona-icon" viewBox="0 0 20 20"><path fill="currentColor" d="M17.952 6.704a6.074 6.074 0 0 0-.368-1.944 3.951 3.951 0 0 0-.928-1.416 3.76 3.76 0 0 0-1.416-.92 5.84 5.84 0 0 0-1.944-.376C12.448 2 12.176 2 10 2c-2.176 0-2.448 0-3.296.048a5.84 5.84 0 0 0-1.944.376 3.825 3.825 0 0 0-1.416.92 3.76 3.76 0 0 0-.92 1.416 5.84 5.84 0 0 0-.376 1.944C2 7.552 2 7.824 2 10c0 2.176 0 2.448.048 3.296a5.84 5.84 0 0 0 .376 1.944c.195.536.51 1.02.92 1.416.398.408.881.723 1.416.92a5.84 5.84 0 0 0 1.944.376C7.552 18 7.824 18 10 18c2.176 0 2.448 0 3.296-.048a5.84 5.84 0 0 0 1.944-.376 3.76 3.76 0 0 0 1.416-.92c.41-.398.727-.881.928-1.416.228-.623.352-1.28.368-1.944 0-.848.048-1.12.048-3.296 0-2.176 0-2.448-.048-3.296m-1.44 6.496a4.487 4.487 0 0 1-.272 1.488 2.448 2.448 0 0 1-.6.92c-.26.264-.573.47-.92.6-.477.174-.98.266-1.488.272-.8.04-1.096.048-3.2.048s-2.4 0-3.2-.048a4.583 4.583 0 0 1-1.552-.24 2.616 2.616 0 0 1-.88-.6 2.4 2.4 0 0 1-.592-.92 4.433 4.433 0 0 1-.32-1.52c0-.8-.048-1.096-.048-3.2s0-2.4.048-3.2c.004-.52.098-1.034.28-1.52.14-.338.357-.639.632-.88.243-.275.543-.494.88-.64a4.584 4.584 0 0 1 1.52-.272c.8 0 1.096-.048 3.2-.048s2.4 0 3.2.048a4.487 4.487 0 0 1 1.488.272c.364.135.69.354.952.64.262.246.467.546.6.88.178.487.27 1.001.272 1.52.04.8.048 1.096.048 3.2s-.008 2.4-.048 3.2M10 5.896A4.096 4.096 0 0 1 14.112 10 4.104 4.104 0 1 1 10 5.896m0 6.768a2.664 2.664 0 1 0 0-5.328 2.664 2.664 0 0 0 0 5.328m4.272-7.896a.96.96 0 1 1 0 1.92.96.96 0 0 1 0-1.92"/></svg>