<svg xmlns="http://www.w3.org/2000/svg" width="20" height="20" fill="none" class="persona-icon" viewBox="0 0 20 20"><path fill="currentColor" d="M9.278 5.789a.6.6 0 1 0 0 1.2h4.333a.6.6 0 1 0 0-1.2H9.278ZM8.678 8.556a.6.6 0 0 1 .6-.6h2.166a.6.6 0 1 1 0 1.2H9.278a.6.6 0 0 1-.6-.6ZM9.278 10.122a.6.6 0 1 0 0 1.2h2.166a.6.6 0 1 0 0-1.2H9.278ZM14.333 8.556a.722.722 0 1 1-1.444 0 .722.722 0 0 1 1.444 0ZM13.611 11.444a.722.722 0 1 0 0-1.444.722.722 0 0 0 0 1.444Z"/><path fill="currentColor" d="M2.9 4.944c0-1.129.915-2.044 2.044-2.044h10.111c1.13 0 2.045.915 2.045 2.044V16.5a.6.6 0 0 1-1.024.424l-1.507-1.506a.844.844 0 0 0-1.194 0l-.485.485a2.044 2.044 0 0 1-2.891 0l-.485-.485a.844.844 0 0 0-1.194 0l-1.507 1.506A.6.6 0 0 1 5.79 16.5V9.878h-2.29a.6.6 0 0 1-.6-.6V4.944Zm1.2 0v3.734h1.689V4.944a.844.844 0 1 0-1.69 0ZM6.807 4.1c.117.257.182.543.182.845v10.107l.482-.483a2.044 2.044 0 0 1 2.891 0l.485.485c.33.33.865.33 1.194 0l.486-.485a2.044 2.044 0 0 1 2.89 0l.483.482V4.945a.844.844 0 0 0-.845-.844H6.808Z"/></svg>