<svg xmlns="http://www.w3.org/2000/svg" width="20" height="20" fill="none" class="persona-icon" viewBox="0 0 20 20"><path fill="currentColor" fill-rule="evenodd" d="M14.244 14.844c.877-.15 1.53-.55 1.98-1.122.47-.6.681-1.335.762-2.038.096-.836-.311-1.521-.908-1.922a2.574 2.574 0 0 0-2.108-.322l-.083.023c-.88-.012-1.327-.213-1.774-.427L12.041 9c-.498-.24-1.06-.51-2.04-.51-.934 0-1.495.265-1.99.5l-.09.043c-.457.215-.922.417-1.808.429L6.03 9.44a2.574 2.574 0 0 0-2.108.322c-.596.4-1.004 1.086-.908 1.922.08.703.292 1.439.763 2.038.45.573 1.104.974 1.983 1.123 1.115 1.007 2.83 1.655 4.242 1.655 1.413 0 3.127-.648 4.242-1.656ZM9.284 4.77a1.763 1.763 0 0 0-.761-.882C8.01 3.584 7.363 3.5 6.756 3.5c-.608 0-1.254.084-1.767.388-.564.335-.899.897-.899 1.659 0 1.46 1.205 2.625 2.666 2.625 1.277 0 2.359-.89 2.61-2.09.018-.02.04-.04.07-.061a.808.808 0 0 1 .242-.117 1.125 1.125 0 0 1 .648 0c.1.03.182.072.243.117.028.02.05.04.068.06.251 1.2 1.333 2.091 2.61 2.091 1.462 0 2.666-1.164 2.666-2.625 0-.762-.335-1.324-.899-1.66-.512-.303-1.159-.387-1.766-.387-.608 0-1.255.084-1.767.388-.351.208-.613.505-.761.882a2.325 2.325 0 0 0-1.436 0Zm-3.85 8.744a1.727 1.727 0 0 1-.714-.534c-.284-.362-.447-.856-.514-1.433-.038-.33.107-.602.385-.79.225-.15.527-.233.843-.21v2.967ZM5.6 4.92c-.183.109-.31.27-.31.627 0 .776.644 1.425 1.465 1.425a1.454 1.454 0 0 0 1.453-1.24c.008-.061.012-.123.012-.185 0-.357-.127-.518-.31-.627-.236-.14-.622-.22-1.155-.22-.534 0-.92.08-1.155.22Zm1.033 5.717c.817-.076 1.34-.302 1.799-.518l.08-.038c.473-.223.827-.39 1.489-.39.704 0 1.062.172 1.526.395l.066.032c.451.216.962.442 1.776.518v3.38c-.892.77-2.275 1.284-3.368 1.284s-2.476-.515-3.368-1.285v-3.378Zm1.972 1.341c.431-.205.738-.352 1.396-.352.698 0 1.01.151 1.445.361.19.092.402.195.68.301a.6.6 0 1 0 .43-1.12c-.14-.053-.282-.123-.437-.197-.502-.243-1.127-.545-2.118-.545-.946 0-1.573.298-2.08.539-.161.076-.31.147-.454.201a.6.6 0 0 0 .42 1.124c.296-.111.52-.218.718-.312Zm3.197-6.188a1.385 1.385 0 0 1-.021-.243c0-.357.128-.518.311-.627.235-.14.621-.22 1.155-.22.533 0 .919.08 1.154.22.183.109.311.27.311.627 0 .776-.645 1.425-1.465 1.425a1.454 1.454 0 0 1-1.444-1.182Zm2.767 4.757c.315-.022.615.06.839.21.278.188.423.46.385.79-.066.577-.23 1.071-.514 1.433a1.726 1.726 0 0 1-.71.533v-2.966Z" clip-rule="evenodd"/></svg>