<svg xmlns="http://www.w3.org/2000/svg" width="24" height="24" fill="none" class="persona-icon" viewBox="0 0 24 24"><path fill="currentColor" fill-rule="evenodd" d="M9.754 2.449a5.844 5.844 0 0 1 6.396 1.278 5.899 5.899 0 0 1 1.72 4.17h-1.532a4.378 4.378 0 0 0-1.27-3.082A4.335 4.335 0 0 0 12 3.538a4.32 4.32 0 0 0-3.068 1.277 4.36 4.36 0 0 0-1.27 3.082H6.13a5.923 5.923 0 0 1 1.719-4.17A5.867 5.867 0 0 1 9.754 2.45Z" clip-rule="evenodd"/><path fill="currentColor" fill-rule="evenodd" d="M3.526 10.447a3.834 3.834 0 0 1 3.792-3.319h9.364a3.834 3.834 0 0 1 3.792 3.319l.99 7.18C21.781 19.937 19.993 22 17.67 22H6.33c-2.323 0-4.11-2.062-3.792-4.374l.99-7.18Zm3.792-1.78a2.3 2.3 0 0 0-2.275 1.99l-.99 7.18a2.304 2.304 0 0 0 2.276 2.625H17.67a2.304 2.304 0 0 0 2.276-2.625l-.99-7.18a2.3 2.3 0 0 0-2.275-1.99H7.318Z" clip-rule="evenodd"/><path fill="currentColor" fill-rule="evenodd" d="M8.172 10.974c0-.425.343-.769.766-.769h6.124c.423 0 .766.345.766.77 0 .424-.343.769-.766.769H8.938a.767.767 0 0 1-.766-.77Z" clip-rule="evenodd"/></svg>