<svg xmlns="http://www.w3.org/2000/svg" width="24" height="24" fill="none" class="persona-icon"><g fill="currentColor" clip-path="url(#a)"><path d="M15.334 1.75c0 .414.335.75.75.75h4.356l-8.484 8.484a.75.75 0 1 0 1.06 1.06L21.5 3.561v4.356a.75.75 0 0 0 1.5 0V1.75a.75.75 0 0 0-.75-.75h-6.166a.75.75 0 0 0-.75.75Z"/><path d="M4.5 6.889a2.333 2.333 0 0 1 2.333-2.333h5.14a.75.75 0 1 0 0-1.5h-5.14A3.833 3.833 0 0 0 3 6.889v10.278A3.833 3.833 0 0 0 6.833 21h10.278a3.833 3.833 0 0 0 3.833-3.833v-5.14a.75.75 0 1 0-1.5 0v5.14a2.333 2.333 0 0 1-2.333 2.333H6.833A2.333 2.333 0 0 1 4.5 17.167V6.889Z"/></g><defs><clipPath id="a"><path fill="#fff" d="M0 0h24v24H0z"/></clipPath></defs></svg>