<svg xmlns="http://www.w3.org/2000/svg" width="24" height="24" fill="none" class="persona-icon"><path fill="currentColor" d="M3.046 14.046a2.814 2.814 0 1 1 5.628 0 2.814 2.814 0 0 1-5.627 0Zm2.815-1.279a1.28 1.28 0 1 0 0 2.559 1.28 1.28 0 0 0 0-2.559ZM15.326 3.814a2.814 2.814 0 1 1 5.628 0 2.814 2.814 0 0 1-5.628 0Zm2.814-1.28a1.279 1.279 0 1 0 0 2.559 1.279 1.279 0 0 0 0-2.558ZM3.046 3.814a2.814 2.814 0 1 1 5.629 0 2.814 2.814 0 0 1-5.629 0Zm2.815-1.28a1.28 1.28 0 1 0 0 2.559 1.28 1.28 0 0 0 0-2.558ZM1.573 18.783a4.023 4.023 0 0 1 3.06-1.41h2.455c1.177 0 2.295.515 3.06 1.41.37.433.573.985.573 1.555v.072A2.59 2.59 0 0 1 8.13 23H3.59A2.59 2.59 0 0 1 1 20.41v-.072c0-.57.203-1.122.573-1.555Zm7.407.996a2.488 2.488 0 0 0-1.892-.872H4.633c-.728 0-1.42.319-1.892.872a.86.86 0 0 0-.206.559v.072c0 .583.472 1.055 1.055 1.055h4.54c.584 0 1.056-.472 1.056-1.055v-.072a.86.86 0 0 0-.206-.559ZM13.853 8.55a4.022 4.022 0 0 1 3.059-1.41h2.455c1.177 0 2.295.515 3.06 1.41.37.434.573.985.573 1.555V12a.767.767 0 0 1-1.535 0v-1.895a.86.86 0 0 0-.206-.558 2.488 2.488 0 0 0-1.892-.873h-2.455c-.728 0-1.42.32-1.892.873a.86.86 0 0 0-.206.558V12a.767.767 0 0 1-1.535 0v-1.895c0-.57.203-1.121.574-1.555Z"/><path fill="currentColor" d="M1.573 8.55a4.022 4.022 0 0 1 3.06-1.41h2.455c1.177 0 2.295.515 3.06 1.41.37.434.573.985.573 1.555V12a.767.767 0 0 1-1.535 0v-1.895a.86.86 0 0 0-.206-.558 2.488 2.488 0 0 0-1.892-.873H4.633c-.728 0-1.42.32-1.892.873a.86.86 0 0 0-.206.558V12A.767.767 0 0 1 1 12v-1.895c0-.57.203-1.121.573-1.555ZM13.853 18.783a4.022 4.022 0 0 1 3.059-1.41h2.455c1.177 0 2.295.515 3.06 1.41.37.433.573.985.573 1.555v.072A2.59 2.59 0 0 1 20.41 23h-4.54a2.59 2.59 0 0 1-2.59-2.59v-.072c0-.57.202-1.122.573-1.555Zm7.406.996a2.488 2.488 0 0 0-1.892-.872h-2.455c-.728 0-1.42.319-1.892.872a.86.86 0 0 0-.206.559v.072c0 .583.472 1.055 1.055 1.055h4.54c.584 0 1.056-.472 1.056-1.055v-.072a.86.86 0 0 0-.206-.559ZM15.326 14.046a2.814 2.814 0 1 1 5.627 0 2.814 2.814 0 0 1-5.627 0Zm2.814-1.279a1.279 1.279 0 1 0 0 2.558 1.279 1.279 0 0 0 0-2.558Z"/></svg>