<svg xmlns="http://www.w3.org/2000/svg" width="24" height="24" fill="none" class="persona-icon" viewBox="0 0 24 24"><path fill="currentColor" d="M5.575 1.808C3.163.602.603 3.161 1.808 5.573L5.024 12l-3.216 6.427c-1.206 2.412 1.354 4.97 3.768 3.765l15.372-7.682c2.07-1.034 2.07-3.986 0-5.02L5.575 1.808Zm-2.397 3.08c-.548-1.096.616-2.259 1.713-1.71l15.372 7.681c.94.47.94 1.812 0 2.282L4.89 20.823c-1.097.548-2.261-.615-1.713-1.712L6.236 13h6.528c.407 0 .736-.448.736-1s-.33-1-.736-1H6.236L3.178 4.889Z"/></svg>