<svg xmlns="http://www.w3.org/2000/svg" width="24" height="24" fill="none" class="persona-icon" viewBox="0 0 24 24"><path fill="currentColor" d="m13.416 3.916.006-.006 1.011-1.011c.584-.584 1.49-1.203 2.594-1.361 1.15-.164 2.402.189 3.573 1.36 1.172 1.172 1.525 2.424 1.361 3.574-.158 1.103-.776 2.01-1.36 2.594l-1.012 1.011-.006.006-.006.006L8.39 21.276a.764.764 0 0 1-.54.224H2.762A.763.763 0 0 1 2 20.737v-5.088c0-.202.08-.396.224-.54L13.409 3.923l.007-.007ZM7.534 19.974l5.662-5.662-4.008-4.009-5.663 5.662v4.009h4.009ZM12.938 19.974a.763.763 0 0 0 0 1.526h8.14a.763.763 0 1 0 0-1.526h-8.14Z"/></svg>