<svg xmlns="http://www.w3.org/2000/svg" width="24" height="24" fill="none" class="persona-icon"><path fill="currentColor" d="M5 8.923C5 5.1 8.134 2 12 2s7 3.1 7 6.923c0 1.3-.363 2.52-.995 3.56l-5.331 9.132A.78.78 0 0 1 12 22a.78.78 0 0 1-.674-.385l-5.33-9.132A6.837 6.837 0 0 1 5 8.923Zm7-5.385c-3.007 0-5.444 2.411-5.444 5.385 0 1.016.283 1.963.776 2.773l.007.012L12 19.692l4.668-7.996c.493-.81.776-1.757.776-2.773 0-2.974-2.437-5.385-5.444-5.385ZM9.148 8.924c0 1.558 1.277 2.82 2.852 2.82s2.852-1.262 2.852-2.82c0-1.558-1.277-2.82-2.852-2.82s-2.852 1.262-2.852 2.82ZM12 7.641a1.29 1.29 0 0 1 1.296 1.282A1.29 1.29 0 0 1 12 10.205a1.29 1.29 0 0 1-1.296-1.282c0-.708.58-1.282 1.296-1.282Z"/></svg>