<svg xmlns="http://www.w3.org/2000/svg" width="24" height="24" fill="none" class="persona-icon" viewBox="0 0 24 24"><path fill="currentColor" fill-rule="evenodd" d="M9.417 7.417a2.583 2.583 0 1 1 5.167 0 2.583 2.583 0 0 1-5.167 0ZM12 6.333A1.083 1.083 0 1 0 12 8.5a1.083 1.083 0 0 0 0-2.167Z" clip-rule="evenodd"/><path fill="currentColor" d="M16.583 5.75a.75.75 0 0 0 0 1.5h.917a.75.75 0 0 0 0-1.5h-.917Z"/><path fill="currentColor" fill-rule="evenodd" d="M5.25 3A2.25 2.25 0 0 0 3 5.25v9.833a2.25 2.25 0 0 0 2.25 2.25h4.167V19.5H6.5a.75.75 0 0 0 0 1.5h11a.75.75 0 0 0 0-1.5h-2.916v-2.167h4.166a2.25 2.25 0 0 0 2.25-2.25V5.25A2.25 2.25 0 0 0 18.75 3H5.25ZM4.5 13.083V5.25a.75.75 0 0 1 .75-.75h13.5a.75.75 0 0 1 .75.75v7.833h-3.084v-.316c0-.603-.26-1.178-.713-1.576a3.447 3.447 0 0 0-2.275-.858h-2.856c-.838 0-1.646.305-2.275.858a2.099 2.099 0 0 0-.714 1.576v.316H4.5Zm0 2v-.5h15v.5a.75.75 0 0 1-.75.75H5.25a.75.75 0 0 1-.75-.75Zm10.416-2H9.083v-.316c0-.172.074-.336.204-.45a1.948 1.948 0 0 1 1.285-.484h2.856c.473 0 .93.173 1.285.485.13.113.203.277.203.45v.315Zm-3.999 4.25h2.167V19.5h-2.167v-2.167Z" clip-rule="evenodd"/></svg>