<svg xmlns="http://www.w3.org/2000/svg" width="24" height="24" fill="none" class="persona-icon" viewBox="0 0 24 24"><path fill="currentColor" fill-rule="evenodd" d="M2 12C2 6.477 6.477 2 12 2s10 4.477 10 10-4.477 10-10 10S2 17.523 2 12m10-8.461a8.461 8.461 0 1 0 0 16.922A8.461 8.461 0 0 0 12 3.54" clip-rule="evenodd"/><path fill="currentColor" fill-rule="evenodd" d="M12.494 8.234a.782.782 0 0 1 1.117 0l3.158 3.2a.808.808 0 0 1 0 1.132l-3.158 3.2a.782.782 0 0 1-1.117 0 .808.808 0 0 1 0-1.132l1.81-1.834H7.79A.795.795 0 0 1 7 12c0-.442.354-.8.79-.8h6.515l-1.81-1.834a.808.808 0 0 1 0-1.132" clip-rule="evenodd"/></svg>