<svg xmlns="http://www.w3.org/2000/svg" width="24" height="24" fill="none" class="persona-icon" viewBox="0 0 24 24"><path fill="currentColor" fill-rule="evenodd" d="M19 17.387a.678.678 0 0 1 .805-.514l.282.06c.652.136 1.227.51 1.61 1.047l.035.047a1.436 1.436 0 0 1-.352 2.017l-.287.201a.686.686 0 0 1-.946-.157.66.66 0 0 1 .16-.93l.286-.202a.116.116 0 0 0 .029-.162l-.034-.047a1.287 1.287 0 0 0-.784-.51l-.282-.058a.668.668 0 0 1-.522-.792M11.688 13.72c0-1.57 1.294-2.843 2.89-2.843s2.89 1.272 2.89 2.842-1.294 2.843-2.89 2.843-2.89-1.273-2.89-2.843m2.89-1.509a1.52 1.52 0 0 0-1.533 1.508 1.52 1.52 0 0 0 1.533 1.508 1.52 1.52 0 0 0 1.533-1.508 1.52 1.52 0 0 0-1.533-1.508M17.99 12.088c0-.369.303-.667.678-.667 1.29 0 2.337 1.029 2.337 2.299s-1.046 2.298-2.337 2.298a.673.673 0 0 1-.679-.667c0-.369.304-.668.679-.668.541 0 .98-.431.98-.963a.972.972 0 0 0-.98-.965.673.673 0 0 1-.679-.667M10.56 18.154a3.782 3.782 0 0 1 2.856-1.296h2.322c1.099 0 2.143.474 2.856 1.296.343.395.531.897.531 1.416v.131c0 1.27-1.046 2.299-2.337 2.299h-4.422c-1.291 0-2.337-1.03-2.337-2.299v-.13c0-.52.188-1.022.53-1.417m7.002.867a2.415 2.415 0 0 0-1.824-.828h-2.322c-.702 0-1.369.303-1.824.828a.838.838 0 0 0-.206.55v.13c0 .532.438.964.98.964h4.422c.541 0 .98-.431.98-.964v-.13a.838.838 0 0 0-.206-.55" clip-rule="evenodd"/><path fill="currentColor" fill-rule="evenodd" d="M2 5.67C2 3.645 3.67 2 5.732 2h11.94c2.062 0 3.732 1.644 3.732 3.67v3.916a.74.74 0 0 1-.746.734.74.74 0 0 1-.746-.734V5.671c0-1.217-1.003-2.203-2.24-2.203H5.733c-1.237 0-2.24.986-2.24 2.203v11.746c0 1.217 1.003 2.203 2.24 2.203h1.99a.74.74 0 0 1 .746.734.74.74 0 0 1-.746.734h-1.99C3.67 21.088 2 19.445 2 17.418V5.67" clip-rule="evenodd"/></svg>