<svg xmlns="http://www.w3.org/2000/svg" width="24" height="24" fill="none" class="persona-icon" viewBox="0 0 24 24"><path fill="currentColor" fill-rule="evenodd" d="M4.837 3.539a2.305 2.305 0 0 0-2.302 2.307v12.308a2.305 2.305 0 0 0 2.302 2.308h14.326a2.305 2.305 0 0 0 2.302-2.308v-3.846a.768.768 0 1 1 1.535 0v3.846A3.842 3.842 0 0 1 19.163 22H4.837A3.842 3.842 0 0 1 1 18.154V5.846A3.842 3.842 0 0 1 4.837 2h9.21a.768.768 0 0 1 0 1.539h-9.21Z" clip-rule="evenodd"/><path fill="currentColor" fill-rule="evenodd" d="M15.52 7.728a.77.77 0 0 0 .063 1.086l3.07 2.735c.29.26.729.26 1.02 0l3.07-2.735a.77.77 0 0 0 .063-1.086.766.766 0 0 0-1.083-.064L19.93 9.261V2.77a.768.768 0 1 0-1.535 0v6.492l-1.792-1.597a.766.766 0 0 0-1.084.064M5.237 7.45a.766.766 0 0 1 1.07-.178l5.318 3.82a.64.64 0 0 0 .79.003l1.321-.936a.766.766 0 0 1 1.07.184.77.77 0 0 1-.183 1.072l-1.32.936c-.791.561-1.785.557-2.572-.008l-5.318-3.82a.77.77 0 0 1-.176-1.074" clip-rule="evenodd"/></svg>