<svg xmlns="http://www.w3.org/2000/svg" width="24" height="24" fill="none" class="persona-icon" viewBox="0 0 24 24"><path fill="currentColor" d="M9.47 3.67c.952-2.227 4.108-2.227 5.06 0 .26.607.958.896 1.571.65 2.248-.9 4.48 1.331 3.579 3.579-.246.613.043 1.31.65 1.57 2.227.953 2.227 4.109 0 5.062-.607.26-.896.957-.65 1.57.9 2.248-1.331 4.48-3.579 3.579a1.216 1.216 0 0 0-1.57.65c-.953 2.227-4.109 2.227-5.062 0a1.216 1.216 0 0 0-1.57-.65c-2.248.9-4.48-1.331-3.579-3.579a1.216 1.216 0 0 0-.65-1.57c-2.227-.953-2.227-4.109 0-5.062.607-.26.896-.957.65-1.57-.9-2.248 1.331-4.48 3.579-3.579a1.216 1.216 0 0 0 1.57-.65Zm3.648.604c-.42-.983-1.815-.983-2.236 0a2.753 2.753 0 0 1-3.554 1.472c-.994-.398-1.98.588-1.582 1.582a2.753 2.753 0 0 1-1.472 3.554c-.983.42-.983 1.815 0 2.236a2.753 2.753 0 0 1 1.472 3.554c-.398.994.588 1.98 1.582 1.582a2.753 2.753 0 0 1 3.554 1.472c.42.983 1.815.983 2.236 0a2.753 2.753 0 0 1 3.554-1.472c.994.397 1.98-.588 1.582-1.582a2.753 2.753 0 0 1 1.472-3.554c.983-.42.983-1.815 0-2.236a2.753 2.753 0 0 1-1.472-3.554c.397-.994-.588-1.98-1.582-1.582a2.753 2.753 0 0 1-3.554-1.472Z"/><path fill="currentColor" d="M16.658 9.63c.29.31.274.797-.035 1.087l-5.463 5.121a.768.768 0 0 1-1.051 0l-2.732-2.56a.768.768 0 0 1 1.051-1.121l2.206 2.068 4.938-4.63a.768.768 0 0 1 1.086.036Z"/></svg>