<svg xmlns="http://www.w3.org/2000/svg" width="24" height="24" fill="none" class="persona-icon" viewBox="0 0 24 24"><path fill="currentColor" fill-rule="evenodd" d="M19.921 14.633c.413.326.579.812.579 1.244v2.949c0 .927-.761 1.732-1.748 1.67A16.299 16.299 0 0 1 3.503 5.249C3.442 4.26 4.247 3.5 5.174 3.5h2.75c.644 0 1.238.364 1.525.947.305.62.53 1.115.673 1.643.145.538.197 1.075.206 1.782.004.283-.065.558-.192.8l-.303.578a.203.203 0 0 0-.007.19 11.811 11.811 0 0 0 4.362 4.523c.046.028.12.036.198-.005l.502-.267c.245-.13.524-.203.811-.199 1.849.027 3.214.346 4.222 1.141m-.904 1.146c-.636-.502-1.613-.803-3.338-.827a.217.217 0 0 0-.105.027l-.502.267a1.661 1.661 0 0 1-1.627-.027 13.272 13.272 0 0 1-4.901-5.081 1.661 1.661 0 0 1-.004-1.565l.303-.578a.222.222 0 0 0 .026-.104c-.008-.645-.055-1.047-.156-1.42-.103-.38-.272-.766-.574-1.38a.239.239 0 0 0-.214-.131h-2.75c-.148 0-.22.11-.215.197A14.838 14.838 0 0 0 18.843 19.04c.086.005.197-.067.197-.214v-2.949a.213.213 0 0 0-.014-.083.053.053 0 0 0-.009-.015m0 0" clip-rule="evenodd"/></svg>