<svg xmlns="http://www.w3.org/2000/svg" width="24" height="24" fill="none" class="persona-icon" viewBox="0 0 24 24"><path fill="currentColor" fill-rule="evenodd" d="M7.128 12a4.872 4.872 0 1 1 9.744 0 4.872 4.872 0 0 1-9.744 0ZM12 8.667a3.333 3.333 0 1 0 0 6.666 3.333 3.333 0 0 0 0-6.666ZM12 2a.77.77 0 0 1 .77.77v2.05a.77.77 0 1 1-1.54 0V2.77A.77.77 0 0 1 12 2ZM4.93 4.93c.3-.301.787-.301 1.088 0l1.45 1.45A.77.77 0 0 1 6.38 7.468L4.93 6.017a.77.77 0 0 1 0-1.088ZM2 12a.77.77 0 0 1 .77-.77h2.05a.77.77 0 1 1 0 1.54H2.77A.77.77 0 0 1 2 12ZM4.928 19.071a.77.77 0 0 1 0-1.088l1.45-1.45a.77.77 0 0 1 1.088 1.088l-1.45 1.45c-.3.3-.788.3-1.088 0ZM12 18.41a.77.77 0 0 1 .77.77v2.05a.77.77 0 0 1-1.54 0v-2.05a.77.77 0 0 1 .77-.77ZM16.532 16.533c.3-.3.788-.3 1.088 0l1.45 1.45a.77.77 0 1 1-1.087 1.088l-1.45-1.45a.77.77 0 0 1 0-1.088ZM18.41 12.001a.77.77 0 0 1 .77-.77h2.05a.77.77 0 0 1 0 1.54h-2.05a.77.77 0 0 1-.77-.77ZM16.532 7.468a.77.77 0 0 1 0-1.088l1.45-1.45a.77.77 0 1 1 1.088 1.088l-1.45 1.45c-.3.3-.787.3-1.088 0Z" clip-rule="evenodd"/></svg>