<svg xmlns="http://www.w3.org/2000/svg" width="24" height="24" fill="none" class="persona-icon" viewBox="0 0 24 24"><path fill="currentColor" d="M2 12C2 6.477 6.477 2 12 2s10 4.477 10 10-4.477 10-10 10S2 17.523 2 12Zm10-8.462a8.461 8.461 0 1 0 0 16.923A8.461 8.461 0 0 0 12 3.54Z"/><path fill="currentColor" d="M7.897 12.256a.77.77 0 0 1 .77.77 3.334 3.334 0 1 0 6.666 0 .77.77 0 0 1 1.539 0 4.873 4.873 0 0 1-9.744 0 .77.77 0 0 1 .77-.77ZM9.949 8.923a1.026 1.026 0 1 1-2.052 0 1.026 1.026 0 0 1 2.052 0ZM16.103 8.923a1.026 1.026 0 1 1-2.052 0 1.026 1.026 0 0 1 2.052 0Z"/></svg>