<svg xmlns="http://www.w3.org/2000/svg" width="24" height="24" fill="none" class="persona-icon" viewBox="0 0 24 24"><path fill="currentColor" d="M12.165 6.875 3.79 17.718a7.074 7.074 0 0 1-1.76-4.066A7.108 7.108 0 0 1 3.476 8.66a6.817 6.817 0 0 1 4.422-2.591 6.723 6.723 0 0 1 4.267.808ZM13.866 7.176 4.922 18.74a6.669 6.669 0 0 0 4.567 1.227 6.81 6.81 0 0 0 2.651-.838 7.037 7.037 0 0 0 2.129-1.841L22 7.278a7.772 7.772 0 0 0-2.058-.961 7.55 7.55 0 0 0-2.971-.273c-1.023.11-1.978.372-2.784.88-.134.084-.23.159-.321.252Z"/></svg>