<svg xmlns="http://www.w3.org/2000/svg" width="24" height="24" fill="none" class="persona-icon" viewBox="0 0 24 24"><path fill="currentColor" d="M6.272 9.698c-1.181-1.185-1.817-3.586-.05-5.359 1.778-1.781 4.155-1.105 5.35.093l7.124 7.143c1.107 1.11 1.745 2.426 1.8 3.783.056 1.366-.483 2.687-1.57 3.777-1.085 1.088-2.419 1.647-3.799 1.613-1.376-.033-2.721-.655-3.848-1.784l-7.56-7.582a.75.75 0 0 1 0-1.059.745.745 0 0 1 1.056 0l7.56 7.582c.899.901 1.893 1.323 2.829 1.346.931.023 1.88-.347 2.706-1.175.824-.827 1.17-1.753 1.134-2.657-.037-.912-.47-1.888-1.364-2.785l-7.124-7.143c-.806-.809-2.22-1.112-3.237-.093-1.026 1.029-.722 2.468.049 3.24l7.44 7.462.007.005a1.271 1.271 0 0 0 .403.214c.206.064.445.076.73-.21.142-.142.183-.257.197-.34a.657.657 0 0 0-.036-.316 1.351 1.351 0 0 0-.226-.406l-.008-.01-4.09-4.102a.75.75 0 0 1 0-1.059.745.745 0 0 1 1.056 0l4.108 4.12a.715.715 0 0 1 .023.024l.001.002.003.002.006.007.016.018c.012.015.029.034.047.058a2.862 2.862 0 0 1 .48.868c.095.285.159.646.093 1.042-.068.407-.265.801-.614 1.15-.753.756-1.602.775-2.223.585a2.763 2.763 0 0 1-.948-.518l-.02-.016-.006-.006-.003-.003-.001-.001-.029-.027-7.462-7.483Z"/></svg>