<svg xmlns="http://www.w3.org/2000/svg" width="24" height="24" fill="none" class="persona-icon" viewBox="0 0 24 24"><path fill="currentColor" fill-rule="evenodd" d="M13.282 3.795c0-.991.804-1.795 1.795-1.795h5.128C21.196 2 22 2.804 22 3.795v5.128c0 .991-.804 1.795-1.795 1.795h-5.128a1.795 1.795 0 0 1-1.795-1.795V3.795m1.795-.256a.256.256 0 0 0-.257.256v5.128c0 .142.115.257.257.257h5.128a.256.256 0 0 0 .257-.257V3.795a.256.256 0 0 0-.257-.256h-5.128M13.282 15.077c0-.991.804-1.795 1.795-1.795h5.128c.991 0 1.795.804 1.795 1.795v5.128c0 .991-.804 1.795-1.795 1.795h-5.128a1.795 1.795 0 0 1-1.795-1.795v-5.128m1.795-.257a.256.256 0 0 0-.257.257v5.128c0 .142.115.257.257.257h5.128a.256.256 0 0 0 .257-.257v-5.128a.256.256 0 0 0-.257-.257h-5.128M2 15.077c0-.991.804-1.795 1.795-1.795h5.128c.991 0 1.795.804 1.795 1.795v5.128c0 .991-.804 1.795-1.795 1.795H3.795A1.795 1.795 0 0 1 2 20.205v-5.128m1.795-.257a.256.256 0 0 0-.256.257v5.128c0 .142.114.257.256.257h5.128a.256.256 0 0 0 .257-.257v-5.128a.256.256 0 0 0-.257-.257H3.795M2 3.795C2 2.804 2.804 2 3.795 2h5.128c.991 0 1.795.804 1.795 1.795v5.128c0 .991-.804 1.795-1.795 1.795H3.795A1.795 1.795 0 0 1 2 8.923V3.795m1.795-.256a.256.256 0 0 0-.256.256v5.128c0 .142.114.257.256.257h5.128a.256.256 0 0 0 .257-.257V3.795a.256.256 0 0 0-.257-.256H3.795" clip-rule="evenodd"/></svg>