<svg xmlns="http://www.w3.org/2000/svg" width="24" height="24" fill="none" class="persona-icon" viewBox="0 0 24 24"><path fill="currentColor" d="M3 3.75A.75.75 0 0 1 3.75 3H17.5A3.5 3.5 0 0 1 21 6.5v13.75a.75.75 0 0 1-1.5 0V6.5a2 2 0 0 0-2-2H3.75A.75.75 0 0 1 3 3.75Zm1.833 3.667v4.125c0 .414.336.75.75.75h4.125a.75.75 0 0 0 .75-.75V7.417a.75.75 0 0 0-.75-.75H5.583a.75.75 0 0 0-.75.75Zm0 6.875v4.125c0 .414.336.75.75.75h4.125a.75.75 0 0 0 .75-.75v-4.125a.75.75 0 0 0-.75-.75H5.583a.75.75 0 0 0-.75.75Zm1.5-6.125v2.625h2.625V8.167H6.333Zm0 6.875v2.625h2.625v-2.625H6.333Zm6.852 2.625a.75.75 0 0 0-1.478.182v.568c0 .414.336.75.75.75h1.368a.75.75 0 0 0 0-1.5h-.64Zm-1.477-10.25v4.125c0 .414.336.75.75.75h4.125a.75.75 0 0 0 .75-.75V7.417a.75.75 0 0 0-.75-.75h-4.125a.75.75 0 0 0-.75.75Zm.75 6.125a.75.75 0 0 0-.75.75v1.751c0 .415.336.75.75.75h1.423a.75.75 0 0 0 1.5-.026v-.724a.75.75 0 0 0-.75-.75h-1.423v-1.001a.75.75 0 0 0-.75-.75Zm.75-5.375v2.625h2.625V8.167h-2.625Zm.71 6.125c0 .414.336.75.75.75h1.165v.671a.75.75 0 0 0 1.5 0v-1.421a.75.75 0 0 0-.75-.75h-1.915a.75.75 0 0 0-.75.75Zm2.665 2.458a.75.75 0 0 0-.75.75v.167h-.167a.75.75 0 0 0 0 1.5h.917a.75.75 0 0 0 .75-.75V17.5a.75.75 0 0 0-.75-.75Z"/></svg>