<svg xmlns="http://www.w3.org/2000/svg" width="24" height="24" fill="none" class="persona-icon" viewBox="0 0 24 24"><path fill="currentColor" fill-rule="evenodd" d="M2 12C2 6.477 6.477 2 12 2s10 4.477 10 10-4.477 10-10 10S2 17.523 2 12m10-8.461a8.461 8.461 0 1 0 0 16.922A8.461 8.461 0 0 0 12 3.54" clip-rule="evenodd"/><path fill="currentColor" fill-rule="evenodd" d="M10.198 3.019C10.635 2.464 11.238 2 12 2s1.365.464 1.802 1.019c.444.563.81 1.33 1.104 2.21.589 1.769.94 4.162.94 6.771s-.351 5.002-.94 6.77c-.294.88-.66 1.648-1.104 2.212C13.365 21.536 12.762 22 12 22s-1.365-.464-1.802-1.018c-.444-.564-.81-1.332-1.104-2.212-.589-1.768-.94-4.161-.94-6.77s.351-5.002.94-6.77c.294-.88.66-1.648 1.104-2.212m.356 2.697C10.03 7.29 9.692 9.511 9.692 12c0 2.49.338 4.711.862 6.284.264.79.56 1.375.852 1.745.3.38.506.433.594.433.088 0 .294-.053.594-.433.292-.37.588-.955.852-1.745.524-1.573.862-3.795.862-6.284 0-2.49-.338-4.711-.862-6.284-.264-.79-.56-1.375-.852-1.745-.3-.38-.506-.433-.594-.433-.088 0-.294.053-.594.433-.292.37-.588.955-.852 1.745" clip-rule="evenodd"/><path fill="currentColor" fill-rule="evenodd" d="M7.962 15.824a16.503 16.503 0 0 1 4.11-.49 16.4 16.4 0 0 1 4.097.524c1.285.34 2.445.84 3.389 1.476l-.861 1.276c-.774-.523-1.768-.96-2.922-1.265a14.859 14.859 0 0 0-3.71-.473 14.966 14.966 0 0 0-3.723.443c-1.163.296-2.17.725-2.96 1.242l-.843-1.287c.958-.627 2.13-1.116 3.423-1.446M7.831 8.142c-1.285-.34-2.445-.84-3.389-1.476l.861-1.276c.774.523 1.768.96 2.922 1.265 1.152.305 2.42.468 3.71.473 1.29.005 2.562-.147 3.723-.443 1.163-.296 2.17-.725 2.96-1.242l.843 1.287c-.958.627-2.13 1.116-3.423 1.446-1.295.33-2.697.496-4.11.49a16.4 16.4 0 0 1-4.097-.524M2 12a.77.77 0 0 1 .77-.77h18.46a.77.77 0 0 1 0 1.54H2.77A.77.77 0 0 1 2 12" clip-rule="evenodd"/></svg>