<svg xmlns="http://www.w3.org/2000/svg" width="24" height="24" fill="none" class="persona-icon" viewBox="0 0 24 24"><path fill="currentColor" d="M12 3c-2.137 0-4.204.78-5.832 2.2a9.288 9.288 0 0 0-3.052 5.55A9.424 9.424 0 0 0 4.3 17.005a9.045 9.045 0 0 0 4.854 3.977c.45.081.619-.196.619-.438 0-.22-.012-.946-.012-1.719-2.261.427-2.846-.565-3.026-1.084a3.352 3.352 0 0 0-.923-1.303c-.315-.173-.764-.6-.01-.612.287.032.563.135.804.3.24.164.44.386.579.646.123.227.289.427.487.588.199.16.426.28.67.35a1.878 1.878 0 0 0 1.464-.177c.04-.469.243-.907.574-1.234-2.003-.23-4.095-1.026-4.095-4.556a3.643 3.643 0 0 1 .922-2.48 3.394 3.394 0 0 1 .09-2.445s.754-.242 2.476.946a8.282 8.282 0 0 1 4.5 0c1.72-1.2 2.474-.946 2.474-.946.333.774.366 1.648.09 2.445.607.675.938 1.563.923 2.48 0 3.541-2.104 4.326-4.106 4.556.214.224.38.492.485.786.104.295.146.609.122.921 0 1.235-.011 2.227-.011 2.538 0 .242.169.53.619.438a9.052 9.052 0 0 0 4.84-3.987 9.429 9.429 0 0 0 1.173-6.253 9.292 9.292 0 0 0-3.054-5.544A8.873 8.873 0 0 0 12 3"/></svg>