<svg xmlns="http://www.w3.org/2000/svg" width="24" height="24" fill="none" class="persona-icon" viewBox="0 0 24 24"><path fill="currentColor" fill-rule="evenodd" d="M4.573 6.366a4.866 4.866 0 1 1 9.732 0 4.866 4.866 0 0 1-9.732 0m4.866-3.33a3.33 3.33 0 1 0 0 6.66 3.33 3.33 0 0 0 0-6.66M7.288 14.305a4.934 4.934 0 0 0-3.753 1.73 2.083 2.083 0 0 0-.498 1.353v.246a2.305 2.305 0 0 0 2.305 2.305h4.097a.768.768 0 0 1 0 1.537H5.342A3.842 3.842 0 0 1 1.5 17.634v-.246c0-.862.307-1.695.867-2.35a6.471 6.471 0 0 1 4.921-2.27H9.44a.768.768 0 0 1 0 1.537h-2.15M10.72 16.61a5.89 5.89 0 1 1 11.78 0 5.89 5.89 0 0 1-11.78 0m5.89-4.354a4.354 4.354 0 1 0 0 8.707 4.354 4.354 0 0 0 0-8.707" clip-rule="evenodd"/><path fill="currentColor" fill-rule="evenodd" d="M16.61 13.793c.424 0 .768.344.768.768v1.73l1.312 1.312a.768.768 0 0 1-1.087 1.087l-1.762-1.762v-2.367c0-.424.344-.768.769-.768" clip-rule="evenodd"/></svg>