<svg xmlns="http://www.w3.org/2000/svg" width="24" height="24" fill="none" class="persona-icon" viewBox="0 0 24 24"><path fill="currentColor" fill-rule="evenodd" d="M12 22C6.477 22 2 17.523 2 12S6.477 2 12 2s10 4.477 10 10-4.477 10-10 10ZM3.538 12a8.461 8.461 0 1 0 16.923 0A8.461 8.461 0 0 0 3.54 12Z" clip-rule="evenodd"/><path fill="currentColor" d="M10.974 17.103a1.026 1.026 0 1 1 2.052 0 1.026 1.026 0 0 1-2.052 0Z"/><path fill="currentColor" fill-rule="evenodd" d="M12 13.77a.77.77 0 0 1-.77-.77V6.846a.77.77 0 1 1 1.54 0V13a.77.77 0 0 1-.77.77Z" clip-rule="evenodd"/></svg>