<svg xmlns="http://www.w3.org/2000/svg" width="24" height="24" fill="none" class="persona-icon"><g fill="currentColor" clip-path="url(#a)"><path d="M17.023 5.962c-.915-.877-2.52-1.704-4.257-1.912-1.766-.211-3.749.211-5.27 1.962a.73.73 0 0 0-.038.047c-.461.625-.723 1.252-.794 1.875a3.068 3.068 0 0 0 .287 1.682c.343.725.92 1.286 1.456 1.688H3.771a.761.761 0 0 0-.771.75c0 .414.345.75.771.75H20.23a.761.761 0 0 0 .771-.75.761.761 0 0 0-.771-.75H12.01a.738.738 0 0 0-.088-.037 47.733 47.733 0 0 1-1.496-.561l-.003-.001a4.941 4.941 0 0 1-.762-.399c-.55-.345-1.103-.821-1.363-1.37a1.477 1.477 0 0 1-.145-.82c.033-.29.16-.654.48-1.093 1.117-1.27 2.562-1.602 3.96-1.435 1.435.172 2.739.865 3.41 1.508a.734.734 0 0 0 1.059-.04.792.792 0 0 0-.04-1.094ZM17.734 15.536a.757.757 0 0 0-.82-.694.768.768 0 0 0-.672.848c.005.05.008.102.008.157.008.863-.646 1.73-1.592 2.151-1.307.58-2.785.541-4.146.232A11.687 11.687 0 0 1 7.37 17a.738.738 0 0 0-1.022.293.788.788 0 0 0 .282 1.055 13.15 13.15 0 0 0 3.56 1.395c1.528.347 3.358.434 5.06-.322 1.314-.584 2.515-1.914 2.5-3.59 0-.1-.006-.199-.016-.295Z"/></g><defs><clipPath id="a"><path fill="#fff" d="M0 0h24v24H0z"/></clipPath></defs></svg>