<svg xmlns="http://www.w3.org/2000/svg" width="24" height="24" fill="none" class="persona-icon" viewBox="0 0 24 24"><path fill="currentColor" fill-rule="evenodd" d="M2 5.846A3.846 3.846 0 0 1 5.846 2h12.308A3.846 3.846 0 0 1 22 5.846v12.308A3.846 3.846 0 0 1 18.154 22H5.846A3.846 3.846 0 0 1 2 18.154V5.846M5.846 3.54A2.308 2.308 0 0 0 3.54 5.845v12.308a2.308 2.308 0 0 0 2.307 2.308h12.308a2.308 2.308 0 0 0 2.308-2.308V5.846a2.308 2.308 0 0 0-2.308-2.307H5.846" clip-rule="evenodd"/><path fill="currentColor" fill-rule="evenodd" d="M22 7.897a.77.77 0 0 1-.77.77H2.77a.77.77 0 0 1 0-1.539h18.46a.77.77 0 0 1 .77.77" clip-rule="evenodd"/><path fill="currentColor" fill-rule="evenodd" d="M9.18 7.897V2.77h1.538v5.128H9.18M6.872 13.282a.77.77 0 0 1 .769.77v3.076a.77.77 0 0 1-1.538 0v-3.077a.77.77 0 0 1 .769-.769M9.949 11.23a.77.77 0 0 1 .769.77v5.128a.77.77 0 1 1-1.538 0V12a.77.77 0 0 1 .769-.77M14.94 11.295a3.334 3.334 0 0 1 3.983 3.27.77.77 0 0 1-1.538 0 1.795 1.795 0 1 0-1.795 1.794.77.77 0 1 1 0 1.538 3.334 3.334 0 0 1-.65-6.602" clip-rule="evenodd"/></svg>