<svg xmlns="http://www.w3.org/2000/svg" width="24" height="24" fill="none" class="persona-icon" viewBox="0 0 24 24"><path fill="currentColor" d="M16.101 7.472a5.573 5.573 0 0 0-3.9-1.495c-2.607.032-4.904 1.69-5.708 4.122a5.8 5.8 0 0 0 0 3.8c.162.474.383.928.66 1.349 1.835 2.803 5.643 3.617 8.503 1.818l-.01.005a.1.1 0 0 1 .006-.003l.004-.002a4.595 4.595 0 0 0 2.035-3.018h-5.49v-3.867h9.608c.124.675.186 1.359.185 2.045a9.652 9.652 0 0 1-3.041 7.348 9.858 9.858 0 0 1-6.751 2.422c-3.857.002-7.386-2.13-9.117-5.507a9.832 9.832 0 0 1 0-8.98C4.817 4.13 8.345 1.999 12.201 2a9.915 9.915 0 0 1 6.826 2.604l-2.926 2.867"/></svg>