<svg xmlns="http://www.w3.org/2000/svg" width="24" height="24" fill="none" class="persona-icon" viewBox="0 0 24 24"><path fill="currentColor" fill-rule="evenodd" d="M2 12C2 6.477 6.477 2 12 2s10 4.477 10 10-4.477 10-10 10S2 17.523 2 12m10-8.461a8.461 8.461 0 1 0 0 16.922A8.461 8.461 0 0 0 12 3.54" clip-rule="evenodd"/><path fill="currentColor" fill-rule="evenodd" d="M12 6.103a.77.77 0 0 1 .77.769v4.81l2.85 2.851a.77.77 0 0 1-1.087 1.088l-3.302-3.302V6.872a.77.77 0 0 1 .769-.77" clip-rule="evenodd"/></svg>