<svg xmlns="http://www.w3.org/2000/svg" width="24" height="24" fill="none" class="persona-icon" viewBox="0 0 24 24"><path fill="currentColor" fill-rule="evenodd" d="M7.871 3.538a2.315 2.315 0 0 0-2.323 2.308v12.308a2.315 2.315 0 0 0 2.323 2.308h3.097c.427 0 .774.344.774.769 0 .425-.347.769-.774.769H7.87C5.733 22 4 20.278 4 18.154V5.846C4 3.722 5.733 2 7.871 2h4.677c.787 0 1.538.325 2.075.896l4.614 4.911c.49.522.763 1.21.763 1.925v4.32c0 .424-.347.768-.774.768a.772.772 0 0 1-.774-.769v-4.32l-.001-.039h-3.354a2.83 2.83 0 0 1-2.839-2.82V3.539H7.871Zm5.935 1.088v2.246c0 .708.578 1.282 1.29 1.282h2.26l-3.55-3.528Z" clip-rule="evenodd"/><path fill="currentColor" fill-rule="evenodd" d="M11.25 16.5a3.25 3.25 0 1 1 6.017 1.706l2.263 2.264a.75.75 0 1 1-1.06 1.06l-2.264-2.263A3.25 3.25 0 0 1 11.25 16.5Zm3.25-1.75a1.75 1.75 0 1 0 0 3.5 1.75 1.75 0 0 0 0-3.5Z" clip-rule="evenodd"/></svg>