<svg xmlns="http://www.w3.org/2000/svg" width="24" height="24" fill="none" class="persona-icon" viewBox="0 0 24 24"><path fill="currentColor" fill-rule="evenodd" d="M9.88 2.468a7.425 7.425 0 0 1 3.032-.454 7.51 7.51 0 0 1 5.015 2.303A7.457 7.457 0 0 1 20 9.478a7.457 7.457 0 0 1-2.08 5.16 7.509 7.509 0 0 1-4.477 2.248 3.448 3.448 0 0 1-.04.112c-.384 1.05-1.06 1.924-1.805 2.65a8.264 8.264 0 0 1-2.675 1.741c-1 .404-2.07.61-3.15.611H5L5 9.532c0-1.02.205-2.03.605-2.968.399-.939.983-1.786 1.718-2.49A7.468 7.468 0 0 1 9.88 2.468Zm2.162 1.087c-.553.04-1.098.16-1.62.354a5.921 5.921 0 0 0-2.028 1.274 5.992 5.992 0 0 0-1.368 1.981 6.045 6.045 0 0 0-.482 2.368v10.886a6.854 6.854 0 0 0 1.8-.455 6.72 6.72 0 0 0 2.174-1.416c.644-.627 1.155-1.312 1.435-2.076a1.39 1.39 0 0 0 .081-.311l.008-12.605Zm1.551 11.75a5.96 5.96 0 0 0 3.212-1.731 5.921 5.921 0 0 0 .005-8.195 5.96 5.96 0 0 0-3.217-1.737v11.664Z" clip-rule="evenodd"/></svg>