<svg xmlns="http://www.w3.org/2000/svg" width="24" height="24" fill="none" class="persona-icon" viewBox="0 0 24 24"><path fill="currentColor" fill-rule="evenodd" d="M3.143 3.22a.75.75 0 0 1 1.06 0l16.5 16.5a.75.75 0 1 1-1.06 1.06l-5.952-5.952v4.422a.75.75 0 0 1-1.179.616l-5.92-4.116H4.278A2.279 2.279 0 0 1 2 13.471V10.53A2.279 2.279 0 0 1 4.279 8.25h2.833l-3.97-3.97a.75.75 0 0 1 0-1.06Zm5.465 6.526a.735.735 0 0 1-.08.004h-4.25a.779.779 0 0 0-.778.779v2.942c0 .43.349.779.779.779h2.547a.75.75 0 0 1 .428.134l4.937 3.431v-4.487L8.608 9.746Zm4.68-5.66a.75.75 0 0 1 .403.664V9.5a.75.75 0 0 1-1.5 0V6.185l-1.497 1.04a.75.75 0 1 1-.857-1.231l2.675-1.86a.75.75 0 0 1 .776-.049Zm1.756 4.825a.75.75 0 0 1 .916-.534 3.81 3.81 0 0 1 2.034 1.335c.513.655.791 1.459.791 2.288 0 .83-.278 1.633-.79 2.288a.75.75 0 1 1-1.182-.924c.307-.393.472-.872.472-1.364 0-.492-.165-.971-.472-1.364a2.311 2.311 0 0 0-1.234-.808.75.75 0 0 1-.535-.916Zm1.83-2.598a.75.75 0 0 1 .977-.413 6.688 6.688 0 0 1 3.013 2.426A6.521 6.521 0 0 1 22 11.997a6.521 6.521 0 0 1-1.82 4.521.75.75 0 1 1-1.084-1.036c.194-.203.372-.423.53-.656.571-.839.875-1.823.874-2.828 0-1.005-.304-1.99-.875-2.827a5.188 5.188 0 0 0-2.339-1.88.75.75 0 0 1-.413-.978Z" clip-rule="evenodd"/></svg>