<svg xmlns="http://www.w3.org/2000/svg" width="24" height="24" fill="none" class="persona-icon" viewBox="0 0 24 24"><path fill="currentColor" d="M4.34 4.331A3.846 3.846 0 0 1 7.875 2h8.25c1.538 0 2.929.917 3.535 2.331l2.278 5.315a.77.77 0 0 1 .062.303 3.846 3.846 0 0 1-1.091 2.684L19.868 22H4.132l-1.04-9.367A3.846 3.846 0 0 1 2 9.949a.77.77 0 0 1 .062-.303L4.34 4.33Zm-.126 7.25a2.309 2.309 0 0 0 3.94-1.632.77.77 0 1 1 1.538 0 2.308 2.308 0 1 0 4.616 0 .77.77 0 0 1 1.538 0 2.308 2.308 0 0 0 4.61.147l-2.21-5.159a2.308 2.308 0 0 0-2.121-1.399h-8.25c-.923 0-1.757.55-2.121 1.4l-2.21 5.158a2.306 2.306 0 0 0 .67 1.485Zm13.94 2.214a3.846 3.846 0 0 1-3.077-1.539 3.846 3.846 0 0 1-6.154 0 3.838 3.838 0 0 1-1.605 1.246 3.846 3.846 0 0 1-2.567.133l.758 6.827h3.67v-4.36a.77.77 0 0 1 .77-.769h4.102a.77.77 0 0 1 .77.77v4.358h3.67l.759-6.825c-.353.104-.722.159-1.096.159Zm-7.436 6.667v-3.59h2.564v3.59h-2.564Z"/></svg>