<svg xmlns="http://www.w3.org/2000/svg" width="24" height="24" fill="none" class="persona-icon" viewBox="0 0 24 24"><path fill="currentColor" fill-rule="evenodd" d="M3 3.75A.75.75 0 0 1 3.75 3H17.5A3.5 3.5 0 0 1 21 6.5v13.75a.75.75 0 0 1-1.5 0V6.5a2 2 0 0 0-2-2H3.75A.75.75 0 0 1 3 3.75m1.833 3.667a.75.75 0 0 1 .75-.75h4.125a.75.75 0 0 1 .75.75v4.125a.75.75 0 0 1-.75.75H5.583a.75.75 0 0 1-.75-.75V7.417m0 6.875a.75.75 0 0 1 .75-.75h4.125a.75.75 0 0 1 .75.75v4.125a.75.75 0 0 1-.75.75H5.583a.75.75 0 0 1-.75-.75v-4.125m1.5-6.125v2.625h2.625V8.167H6.333m0 6.875v2.625h2.625v-2.625H6.333m6.852 2.625a.75.75 0 0 0-1.478.182v.568c0 .414.336.75.75.75h1.368a.75.75 0 0 0 0-1.5h-.64m-1.477-10.25a.75.75 0 0 1 .75-.75h4.125a.75.75 0 0 1 .75.75v4.125a.75.75 0 0 1-.75.75h-4.125a.75.75 0 0 1-.75-.75V7.417Zm.75 6.125a.75.75 0 0 1 .75.75v1.001h1.423a.75.75 0 0 1 .75.75v.724a.75.75 0 0 1-1.5.026h-1.423a.75.75 0 0 1-.75-.75v-1.751a.75.75 0 0 1 .75-.75m.75-5.375v2.625h2.625V8.167h-2.625m.71 6.125a.75.75 0 0 1 .75-.75h1.915a.75.75 0 0 1 .75.75v1.421a.75.75 0 1 1-1.5 0v-.671h-1.165a.75.75 0 0 1-.75-.75m2.665 2.458a.75.75 0 0 1 .75.75v.917a.75.75 0 0 1-.75.75h-.917a.75.75 0 0 1 0-1.5h.167V17.5a.75.75 0 0 1 .75-.75" clip-rule="evenodd"/></svg>