<svg xmlns="http://www.w3.org/2000/svg" width="32" height="32" fill="none" class="persona-icon"><g fill="currentColor" clip-path="url(#a)"><path d="M13.885 6.114a2.118 2.118 0 1 0 4.236 0 2.118 2.118 0 0 0-4.236 0ZM13.885 15.996a2.118 2.118 0 1 0 4.236 0 2.118 2.118 0 0 0-4.236 0ZM4.003 25.878a2.118 2.118 0 1 0 4.235 0 2.118 2.118 0 0 0-4.235 0ZM13.885 25.878a2.118 2.118 0 1 0 4.236 0 2.118 2.118 0 0 0-4.236 0ZM23.768 25.878a2.118 2.118 0 1 0 4.235 0 2.118 2.118 0 0 0-4.235 0ZM23.768 15.996a2.118 2.118 0 1 0 4.235 0 2.118 2.118 0 0 0-4.235 0ZM4.003 15.996a2.118 2.118 0 1 0 4.235 0 2.118 2.118 0 0 0-4.235 0ZM23.768 6.114a2.118 2.118 0 1 0 4.235 0 2.118 2.118 0 0 0-4.235 0ZM4.003 6.114a2.118 2.118 0 1 0 4.235 0 2.118 2.118 0 0 0-4.235 0Z"/></g><defs><clipPath id="a"><path fill="#fff" d="M0 0h32v32H0z"/></clipPath></defs></svg>