<svg xmlns="http://www.w3.org/2000/svg" width="32" height="32" fill="none" class="persona-icon" viewBox="0 0 32 32"><path fill="currentColor" fill-rule="evenodd" d="M8.202 5.47c-1.601 0-2.9 1.279-2.9 2.855v3.359a.992.992 0 0 1-1 .984c-.552 0-1-.44-1-.984V8.325c0-2.663 2.194-4.823 4.9-4.823h3.413c.552 0 1 .44 1 .984a.992.992 0 0 1-1 .985H8.202Zm-3.9 14.666c.553 0 1 .44 1 .984v2.56c0 1.576 1.299 2.854 2.9 2.854h3.413c.552 0 1 .44 1 .984a.992.992 0 0 1-1 .984H8.202c-2.706 0-4.9-2.16-4.9-4.823V21.12a.992.992 0 0 1 1-.984ZM19.39 4.486a.992.992 0 0 1 1-.984h3.412c2.706 0 4.9 2.16 4.9 4.823v3.359a.992.992 0 0 1-1 .984c-.552 0-1-.44-1-.984V8.325c0-1.576-1.298-2.854-2.9-2.854H20.39c-.553 0-1-.441-1-.985Zm8.312 15.65c.552 0 1 .44 1 .984v2.56c0 2.663-2.194 4.822-4.9 4.822H20.39c-.553 0-1-.44-1-.984a.992.992 0 0 1 1-.984h3.412c1.602 0 2.9-1.278 2.9-2.855V21.12a.992.992 0 0 1 1-.984Z" clip-rule="evenodd"/><path fill="currentColor" fill-rule="evenodd" d="M2.002 21.12a.992.992 0 0 1 1-.984h26c.553 0 1 .44 1 .984a.992.992 0 0 1-1 .985h-26c-.552 0-1-.441-1-.985Z" clip-rule="evenodd"/></svg>