<svg xmlns="http://www.w3.org/2000/svg" width="32" height="32" fill="none" class="persona-icon" viewBox="0 0 32 32"><path fill="currentColor" fill-rule="evenodd" d="M15.444 2.177a.982.982 0 0 1 1.117 0c2.2 1.518 5.118 4.323 7.305 7.78 2.184 3.45 3.724 7.685 2.92 12.008a1.297 1.297 0 0 1-.008.039c-.805 3.54-2.709 5.587-4.861 6.713-2.106 1.1-4.375 1.285-5.915 1.285s-3.809-.184-5.914-1.285c-2.153-1.126-4.056-3.172-4.861-6.713a1.297 1.297 0 0 1-.009-.04c-.803-4.322.737-8.557 2.92-12.007 2.188-3.457 5.105-6.262 7.306-7.78M7.16 21.576c.675 2.947 2.197 4.506 3.837 5.365 1.692.885 3.588 1.061 5.004 1.061 1.416 0 3.313-.176 5.004-1.061 1.64-.858 3.162-2.418 3.838-5.365.665-3.616-.605-7.317-2.646-10.542-1.855-2.931-4.278-5.356-6.196-6.802-1.918 1.446-4.34 3.871-6.196 6.802-2.04 3.225-3.31 6.926-2.645 10.542" clip-rule="evenodd"/><path fill="currentColor" fill-rule="evenodd" d="M16.002 15.002c.547 0 .99.448.99 1v7.945c0 .552-.443 1-.99 1a.995.995 0 0 1-.99-1v-7.945c0-.552.443-1 .99-1" clip-rule="evenodd"/><path fill="currentColor" fill-rule="evenodd" d="M20.925 19.975c0 .552-.444 1-.99 1H12.07a.995.995 0 0 1-.99-1c0-.553.443-1 .99-1h7.865c.546 0 .99.447.99 1" clip-rule="evenodd"/></svg>