<svg xmlns="http://www.w3.org/2000/svg" width="32" height="32" fill="none" class="persona-icon" viewBox="0 0 32 32"><path fill="currentColor" fill-rule="evenodd" d="M11.103 25.002H4.002a1 1 0 0 1-.833-1.553l2.178-3.275c.242-.363.402-.775.469-1.207l1.293-8.332c1.58-10.177 16.207-10.177 17.786 0l1.293 8.332c.067.432.227.844.469 1.207l2.178 3.274a1 1 0 0 1-.833 1.554h-7.101a5 5 0 0 1-9.798 0Zm-2.018-14.06-1.293 8.331a5.014 5.014 0 0 1-.78 2.009l-1.144 1.72h20.268l-1.145-1.72a5.013 5.013 0 0 1-.78-2.009l-1.292-8.331c-1.23-7.92-12.605-7.92-13.834 0Zm4.088 14.06a3 3 0 0 0 5.657 0h-5.656Z" clip-rule="evenodd"/></svg>