<svg xmlns="http://www.w3.org/2000/svg" width="32" height="32" fill="none" class="persona-icon" viewBox="0 0 32 32"><path fill="currentColor" d="M2.002 29.01a.996.996 0 0 1 1-.993h26c.553 0 1 .445 1 .993a.996.996 0 0 1-1 .992h-26c-.552 0-1-.444-1-.992ZM16.146 2.062a1.005 1.005 0 0 1 1.05.23l3.043 3.021a.99.99 0 0 1 .284.565l1.392 9.885 3.604.995a3.84 3.84 0 0 1 2.7 4.71c-.562 2.064-2.71 3.29-4.791 2.73L8.638 20.21a3.85 3.85 0 0 1-2.845-3.383.989.989 0 0 1-.013-.124L5.302 6.1a.991.991 0 0 1 .522-.916 1.006 1.006 0 0 1 1.058.064l3.555 2.514c.19.135.326.33.386.554l1.265 4.736 2.461.679.943-10.82a.994.994 0 0 1 .654-.848ZM7.774 16.514c.004.03.007.06.008.09a1.86 1.86 0 0 0 1.381 1.691l14.79 3.987a1.91 1.91 0 0 0 2.336-1.332 1.858 1.858 0 0 0-1.306-2.28l-4.235-1.17a.995.995 0 0 1-.723-.818l-1.436-10.2-1.29-1.279-.861 9.889a.99.99 0 0 1-.426.73c-.245.168-.552.22-.838.14L11 14.81a.996.996 0 0 1-.7-.701l-1.319-4.94-1.59-1.124.382 8.47Z"/></svg>