<svg xmlns="http://www.w3.org/2000/svg" width="32" height="32" fill="none" class="persona-icon" viewBox="0 0 32 32"><path fill="currentColor" d="M9 6.272c0 1.186.951 2.148 2.125 2.148a2.136 2.136 0 0 0 2.125-2.148 2.136 2.136 0 0 0-2.125-2.147A2.136 2.136 0 0 0 9 6.272ZM9 16.125c0 1.186.951 2.147 2.125 2.147a2.136 2.136 0 0 0 2.125-2.147 2.136 2.136 0 0 0-2.125-2.147A2.136 2.136 0 0 0 9 16.125ZM9 25.978c0 1.186.951 2.147 2.125 2.147a2.136 2.136 0 0 0 2.125-2.147 2.136 2.136 0 0 0-2.125-2.148A2.136 2.136 0 0 0 9 25.978ZM18.75 25.978c0 1.186.951 2.147 2.125 2.147A2.136 2.136 0 0 0 23 25.978a2.136 2.136 0 0 0-2.125-2.148 2.136 2.136 0 0 0-2.125 2.148ZM18.75 16.125c0 1.186.951 2.147 2.125 2.147A2.136 2.136 0 0 0 23 16.125a2.136 2.136 0 0 0-2.125-2.147 2.136 2.136 0 0 0-2.125 2.147ZM18.75 6.272c0 1.186.951 2.148 2.125 2.148A2.136 2.136 0 0 0 23 6.272a2.136 2.136 0 0 0-2.125-2.147 2.136 2.136 0 0 0-2.125 2.147Z"/></svg>