<svg xmlns="http://www.w3.org/2000/svg" width="32" height="32" fill="none" class="persona-icon" viewBox="0 0 32 32"><path fill="currentColor" d="M10.583 21.67c-.561 0-1.016.447-1.016 1 0 .551.455 1 1.016 1h10.839c.56 0 1.016-.449 1.016-1 0-.553-.455-1-1.016-1h-10.84M9.567 17.336c0-.553.455-1 1.016-1h10.839c.56 0 1.016.447 1.016 1 0 .552-.455 1-1.016 1h-10.84a1.008 1.008 0 0 1-1.015-1M10.583 11.002c-.561 0-1.016.448-1.016 1 0 .553.455 1 1.016 1h2.71c.56 0 1.016-.447 1.016-1 0-.552-.455-1-1.016-1h-2.71"/><path fill="currentColor" fill-rule="evenodd" d="M5.502 8.002c0-2.761 2.275-5 5.08-5h6.14c1.032 0 2.019.422 2.723 1.165l6.055 6.385a3.635 3.635 0 0 1 1.002 2.501v10.95c0 2.76-2.274 5-5.08 5h-10.84c-2.805 0-5.08-2.24-5.08-5v-16Zm5.08-3c-1.683 0-3.048 1.344-3.048 3v16c0 1.657 1.365 3 3.049 3h10.839c1.683 0 3.048-1.343 3.048-3V13.003h-4.403c-2.058 0-3.726-1.642-3.726-3.668V5.002h-5.758m7.791 1.414v2.92c0 .92.758 1.666 1.694 1.666h2.966l-4.66-4.586" clip-rule="evenodd"/></svg>