<svg xmlns="http://www.w3.org/2000/svg" width="32" height="32" fill="none" class="persona-icon" viewBox="0 0 32 32"><path fill="currentColor" fill-rule="evenodd" d="M10.002 4.429c0-1.323 1.057-2.427 2.4-2.427h7.2c1.343 0 2.4 1.104 2.4 2.427v.12h1.033c2.248 0 3.967 1.918 3.967 4.154v17.146c0 2.235-1.72 4.153-3.967 4.153H8.97c-2.247 0-3.967-1.918-3.967-4.153V8.703c0-2.236 1.72-4.153 3.967-4.153h1.033v-.121m0 2.12H8.97c-1.03 0-1.967.906-1.967 2.154v17.146c0 1.247.937 2.153 1.967 2.153h14.066c1.03 0 1.967-.905 1.967-2.153V8.703c0-1.248-.937-2.153-1.967-2.153h-1.033v.12c0 1.323-1.057 2.427-2.4 2.427h-7.2c-1.343 0-2.4-1.104-2.4-2.427v-.12m2.4-2.547c-.203 0-.4.174-.4.427V6.67c0 .253.197.427.4.427h7.2c.204 0 .4-.174.4-.427V4.43a.414.414 0 0 0-.4-.427h-7.2" clip-rule="evenodd"/></svg>