<svg xmlns="http://www.w3.org/2000/svg" width="32" height="32" fill="none" class="persona-icon" viewBox="0 0 32 32"><path fill="currentColor" d="M28 16c0 6.627-5.373 12-12 12S4 22.627 4 16 9.373 4 16 4s12 5.373 12 12Zm-14.02-4.64c.497-.29 1.227-.46 2.02-.46.793 0 1.523.17 2.021.46.47.275.679.612.679 1.04 0 .807-.326 1.333-.788 1.682-.493.371-1.19.573-1.912.573a.9.9 0 0 0-.9.9V17.2a.9.9 0 1 0 1.8 0v-.817c.74-.121 1.477-.397 2.096-.864.901-.68 1.504-1.733 1.504-3.119 0-1.217-.69-2.08-1.571-2.594C18.077 9.308 17.007 9.1 16 9.1s-2.077.208-2.93.706c-.88.515-1.57 1.378-1.57 2.594a.9.9 0 1 0 1.8 0c0-.428.21-.765.68-1.04ZM16 23.2a1.2 1.2 0 1 0 0-2.4 1.2 1.2 0 0 0 0 2.4Z"/></svg>