<svg xmlns="http://www.w3.org/2000/svg" width="32" height="32" fill="none" class="persona-icon" viewBox="0 0 32 32"><path fill="currentColor" fill-rule="evenodd" d="M27 6H8.667A2.667 2.667 0 0 0 6 8.667V27a1 1 0 1 1-2 0V8.667A4.667 4.667 0 0 1 8.667 4H27a1 1 0 1 1 0 2ZM8.89 9.889a1 1 0 0 1 1-1h5.5a1 1 0 0 1 1 1v5.5a1 1 0 0 1-1 1h-5.5a1 1 0 0 1-1-1v-5.5Zm0 9.166a1 1 0 0 1 1-1h5.5a1 1 0 0 1 1 1v5.5a1 1 0 0 1-1 1h-5.5a1 1 0 0 1-1-1v-5.5Zm2-8.166v3.5h3.5v-3.5h-3.5Zm0 9.166v3.5h3.5v-3.5h-3.5Zm9.136 3.5a1 1 0 0 0-1.97.243v.758a1 1 0 0 0 1 1h1.823a1 1 0 1 0 0-2h-.854ZM18.056 9.89a1 1 0 0 1 1-1h5.5a1 1 0 0 1 1 1v5.5a1 1 0 0 1-1 1h-5.5a1 1 0 0 1-1-1v-5.5Zm1 8.166a1 1 0 0 1 1 1v1.336h1.897a1 1 0 0 1 1 1v.965a1 1 0 0 1-2 .035h-1.897a1 1 0 0 1-1-1v-2.335a1 1 0 0 1 1-1Zm1-7.166v3.5h3.5v-3.5h-3.5Zm.947 8.166a1 1 0 0 1 1-1h2.553a1 1 0 0 1 1 1v1.896a1 1 0 1 1-2 0v-.896h-1.553a1 1 0 0 1-1-1Zm3.553 3.278a1 1 0 0 1 1 1v1.223a1 1 0 0 1-1 1h-1.223a1 1 0 0 1 0-2h.223v-.223a1 1 0 0 1 1-1Z" clip-rule="evenodd"/></svg>