<svg xmlns="http://www.w3.org/2000/svg" width="32" height="32" fill="none" class="persona-icon" viewBox="0 0 32 32"><path fill="currentColor" fill-rule="evenodd" d="M15.517 3.128a1 1 0 0 1 .97 0l12 6.667a1 1 0 0 1 .515.874v10.667a1 1 0 0 1-.514.874l-12 6.666a1 1 0 0 1-.971 0l-12-6.666a1 1 0 0 1-.515-.874V10.669a1 1 0 0 1 .515-.874l6.927-3.848.08-.131.074.045 4.918-2.733Zm-.515 23.175v-8.379l-10-5.555v8.378l10 5.556ZM10.55 8.175 6.06 10.67l9.941 5.523 4.015-2.23-9.467-5.787Zm11.476 4.67 3.917-2.176-9.94-5.523-3.444 1.913 9.467 5.786Zm4.976-.476-10 5.555v8.379l10-5.556V12.37Z" clip-rule="evenodd"/></svg>