<svg xmlns="http://www.w3.org/2000/svg" width="32" height="32" fill="none" class="persona-icon" viewBox="0 0 32 32"><path fill="currentColor" fill-rule="evenodd" d="M24.88 22.892a1 1 0 0 1 1.186-.757l.365.077a3.542 3.542 0 0 1 2.156 1.402l.044.06a1.975 1.975 0 0 1-.485 2.777l-.37.259a1.01 1.01 0 0 1-1.395-.232.974.974 0 0 1 .236-1.372l.37-.259a.03.03 0 0 0 .008-.04l-.044-.062a1.54 1.54 0 0 0-.937-.609l-.365-.077a.984.984 0 0 1-.77-1.167ZM15.43 18.179c0-2.096 1.727-3.795 3.857-3.795s3.858 1.699 3.858 3.795c0 2.095-1.727 3.794-3.858 3.794-2.13 0-3.857-1.699-3.857-3.794Zm3.857-1.827c-1.025 0-1.857.817-1.857 1.827 0 1.009.832 1.827 1.857 1.827 1.026 0 1.858-.818 1.858-1.827 0-1.01-.832-1.827-1.858-1.827ZM23.571 16.07a.992.992 0 0 1 1-.983c1.736 0 3.143 1.384 3.143 3.092 0 1.707-1.407 3.092-3.143 3.092-.552 0-1-.44-1-.984a.992.992 0 0 1 1-.984c.632 0 1.143-.503 1.143-1.124 0-.621-.511-1.125-1.143-1.125-.552 0-1-.44-1-.983ZM14.001 23.83a5.01 5.01 0 0 1 3.785-1.717h3a5.01 5.01 0 0 1 3.784 1.718c.462.532.716 1.209.716 1.908v.17c0 1.707-1.407 3.091-3.143 3.091h-5.714c-1.736 0-3.143-1.384-3.143-3.092v-.169c0-.7.253-1.376.715-1.909Zm9.048 1.278a2.997 2.997 0 0 0-2.264-1.027h-2.999c-.87 0-1.698.375-2.264 1.027a.963.963 0 0 0-.236.631v.17c0 .62.511 1.123 1.143 1.123h5.714c.631 0 1.143-.503 1.143-1.124v-.169a.963.963 0 0 0-.237-.631Z" clip-rule="evenodd"/><path fill="currentColor" fill-rule="evenodd" d="M3 7.778C3 5.14 5.175 3 7.857 3h15.429c2.682 0 4.857 2.14 4.857 4.778v5.06a.992.992 0 0 1-1 .984c-.552 0-1-.44-1-.984v-5.06c0-1.552-1.28-2.81-2.857-2.81H7.857C6.28 4.968 5 6.226 5 7.778v15.179c0 1.552 1.28 2.81 2.857 2.81h2.572c.552 0 1 .441 1 .985a.992.992 0 0 1-1 .983H7.857C5.175 27.735 3 25.596 3 22.957V7.778Z" clip-rule="evenodd"/></svg>