<svg xmlns="http://www.w3.org/2000/svg" width="32" height="32" fill="none" class="persona-icon" viewBox="0 0 32 32"><path fill="currentColor" d="M20.164 15.84c.612-1.238 2.378-1.238 2.99 0l1.52 3.082 3.4.494c1.367.199 1.913 1.879.924 2.843l-2.46 2.398.58 3.387c.234 1.361-1.195 2.4-2.418 1.757l-3.041-1.6-3.041 1.6c-1.223.643-2.652-.396-2.419-1.757l.581-3.387-2.46-2.398c-.99-.964-.444-2.644.923-2.843l3.4-.494 1.521-3.081Zm1.495 1.491-1.3 2.633a1.667 1.667 0 0 1-1.254.912l-2.906.422 2.103 2.05c.392.382.572.934.479 1.475l-.496 2.893 2.598-1.366a1.667 1.667 0 0 1 1.551 0l2.599 1.366-.496-2.893a1.667 1.667 0 0 1 .479-1.476l2.102-2.049-2.905-.422a1.667 1.667 0 0 1-1.255-.912l-1.3-2.633Z"/><path fill="currentColor" d="M10.087 1.996c.559 0 1.011.447 1.011 1v1.6h8.495v-1.6c0-.553.453-1 1.011-1 .559 0 1.011.447 1.011 1v1.6h1.618c2.737 0 4.955 2.194 4.955 4.9v2.6c0 .552-.452 1-1.01 1H4.524v10.7c0 1.601 1.313 2.9 2.933 2.9h3.944c.558 0 1.011.447 1.011 1 0 .552-.453 1-1.011 1H7.458c-2.737 0-4.955-2.194-4.955-4.9v-14.3c0-2.706 2.218-4.9 4.955-4.9h1.618v-1.6c0-.553.453-1 1.011-1Zm16.079 7.5c0-1.602-1.313-2.9-2.933-2.9h-1.618v1.6c0 .552-.452 1-1.01 1a1.006 1.006 0 0 1-1.012-1v-1.6h-8.495v1.6c0 .552-.452 1-1.01 1a1.006 1.006 0 0 1-1.012-1v-1.6H7.458c-1.62 0-2.933 1.298-2.933 2.9v1.6h21.64v-1.6Z"/></svg>