<svg xmlns="http://www.w3.org/2000/svg" width="32" height="32" fill="none" class="persona-icon" viewBox="0 0 32 32"><path fill="currentColor" d="M3.002 6.561a3.559 3.559 0 0 1 3.559-3.559h3.882a3.559 3.559 0 0 1 3.56 3.56v3.881a3.559 3.559 0 0 1-3.56 3.56H6.561a3.559 3.559 0 0 1-3.559-3.56V6.562Zm3.559-1.617c-.893 0-1.618.724-1.618 1.617v3.883c0 .893.725 1.617 1.618 1.617h3.882c.894 0 1.618-.724 1.618-1.617V6.56c0-.893-.724-1.617-1.618-1.617H6.561ZM18.002 6.561a3.559 3.559 0 0 1 3.559-3.559h3.882a3.559 3.559 0 0 1 3.56 3.56v3.881a3.559 3.559 0 0 1-3.56 3.56h-3.882a3.559 3.559 0 0 1-3.559-3.56V6.562Zm3.559-1.617c-.893 0-1.618.724-1.618 1.617v3.883c0 .893.725 1.617 1.618 1.617h3.882c.894 0 1.618-.724 1.618-1.617V6.56c0-.893-.724-1.617-1.618-1.617h-3.882ZM6.669 18.002c-2.025 0-3.667 1.594-3.667 3.56v3.881c0 1.966 1.642 3.56 3.667 3.56h18.666c2.026 0 3.667-1.594 3.667-3.56v-3.882c0-1.965-1.641-3.559-3.666-3.559H6.668Zm-1.667 3.56c0-.894.746-1.619 1.667-1.619h18.666c.921 0 1.667.725 1.667 1.618v3.883c0 .893-.746 1.617-1.666 1.617H6.668c-.92 0-1.667-.724-1.667-1.617V21.56Z"/></svg>