<svg xmlns="http://www.w3.org/2000/svg" width="32" height="32" fill="none" class="persona-icon" viewBox="0 0 32 32"><path fill="currentColor" d="M16 28a1 1 0 1 1 0 2H7.333A5.333 5.333 0 0 1 2 24.667V7.333A5.333 5.333 0 0 1 7.333 2H16a1 1 0 1 1 0 2H7.333A3.333 3.333 0 0 0 4 7.333v17.334A3.333 3.333 0 0 0 7.333 28z"/><path fill="currentColor" d="M29.017 15.027c.543 0 .983.436.983.973 0 .537-.44.973-.983.973H14.355l5.42 5.366a.966.966 0 0 1 0 1.376.99.99 0 0 1-1.39 0l-7.097-7.027a.968.968 0 0 1 0-1.376l7.098-7.027a.99.99 0 0 1 1.39 0 .966.966 0 0 1 0 1.376l-5.42 5.366h14.661"/></svg>