<svg xmlns="http://www.w3.org/2000/svg" width="32" height="32" fill="none" class="persona-icon" viewBox="0 0 32 32"><path fill="currentColor" fill-rule="evenodd" d="M17.669 5.336a2.333 2.333 0 0 1 2.333-2.334h6.667a2.333 2.333 0 0 1 2.333 2.334v6.666a2.333 2.333 0 0 1-2.333 2.334h-6.667a2.333 2.333 0 0 1-2.333-2.334V5.336m2.333-.334a.333.333 0 0 0-.333.334v6.666c0 .184.15.334.333.334h6.667c.184 0 .333-.15.333-.334V5.336a.333.333 0 0 0-.333-.334h-6.667M3.002 20.002a2.333 2.333 0 0 1 2.334-2.333h6.666a2.333 2.333 0 0 1 2.333 2.333v6.667a2.333 2.333 0 0 1-2.333 2.333H5.335a2.333 2.333 0 0 1-2.333-2.333v-6.667m2.334-.333a.333.333 0 0 0-.334.333v6.667c0 .184.15.333.333.333h6.667c.184 0 .333-.149.333-.333v-6.667a.333.333 0 0 0-.333-.333H5.335M17.669 20.002a2.333 2.333 0 0 1 2.333-2.333h6.667a2.333 2.333 0 0 1 2.333 2.333v6.667a2.333 2.333 0 0 1-2.333 2.333h-6.667a2.333 2.333 0 0 1-2.333-2.333v-6.667m2.333-.333a.333.333 0 0 0-.333.333v6.667c0 .184.15.333.333.333h6.667c.184 0 .333-.149.333-.333v-6.667a.333.333 0 0 0-.333-.333h-6.667M8.669 3.002a1 1 0 0 1 1 1v9.334a1 1 0 1 1-2 0V4.002a1 1 0 0 1 1-1" clip-rule="evenodd"/><path fill="currentColor" fill-rule="evenodd" d="M14.336 8.669a1 1 0 0 1-1 1H4.002a1 1 0 1 1 0-2h9.334a1 1 0 0 1 1 1" clip-rule="evenodd"/></svg>