<svg xmlns="http://www.w3.org/2000/svg" width="32" height="32" fill="none" class="persona-icon" viewBox="0 0 32 32"><path fill="currentColor" d="M3.002 4.002a1 1 0 0 1 1-1c1.979 0 3.65 1.47 3.903 3.432l1.8 13.952a3 3 0 0 0 2.976 2.616h11.321a1 1 0 1 1 0 2H12.681a5 5 0 0 1-4.96-4.36L5.922 6.69a1.935 1.935 0 0 0-1.919-1.688 1 1 0 0 1-1-1Z"/><path fill="currentColor" d="M8.335 26.002a3 3 0 1 1 6 0 3 3 0 0 1-6 0Zm3-1a1 1 0 1 0 0 2 1 1 0 0 0 0-2ZM20.335 26.002a3 3 0 1 1 6 0 3 3 0 0 1-6 0Zm3-1a1 1 0 1 0 0 2 1 1 0 0 0 0-2ZM7.002 8.002a1 1 0 0 1 1-1h20a1 1 0 0 1 .976 1.217l-2.666 12a1 1 0 0 1-.977.783h-16a1 1 0 0 1 0-2h15.198l2.223-10H8.002a1 1 0 0 1-1-1Z"/></svg>