<svg xmlns="http://www.w3.org/2000/svg" width="32" height="32" fill="none" class="persona-icon" viewBox="0 0 32 32"><path fill="currentColor" d="M5.002 8.002a3 3 0 0 1 3-3h3.5a1 1 0 1 0 0-2h-3.5a5 5 0 0 0-5 5v3.5a1 1 0 1 0 2 0v-3.5ZM20.502 3.002a1 1 0 1 0 0 2h3.5a3 3 0 0 1 3 3v3.5a1 1 0 1 0 2 0v-3.5a5 5 0 0 0-5-5h-3.5ZM4.02 20.336H2.05c-.578 0-1.047.448-1.047 1s.469 1 1.047 1h.953v1.666a5 5 0 0 0 5 5h3.5a1 1 0 1 0 0-2h-3.5a3 3 0 0 1-3-3v-1.666h5.112c-.155.245-.325.496-.509.754a1 1 0 0 0 1.627 1.163c.476-.666.869-1.303 1.192-1.917h1.54c-.072.196-.148.393-.226.584-.277.683-.514 1.143-.614 1.271a1 1 0 0 0 1.582 1.224c.292-.377.62-1.09.885-1.742.174-.429.346-.895.492-1.337h1.71a9.965 9.965 0 0 1-.812 1.983 1 1 0 0 0 1.75.97c.53-.959.88-1.967 1.139-2.953h1.723c-.126.418-.274.847-.456 1.292a1 1 0 1 0 1.852.756c.297-.727.511-1.411.684-2.048h3.33v1.666a3 3 0 0 1-3 3h-3.5a1 1 0 1 0 0 2h3.5a5 5 0 0 0 5-5v-1.666h.953c.578 0 1.046-.448 1.046-1s-.468-1-1.046-1H23.16l-.022-.006a.995.995 0 0 0-.492.006h-3.298a.996.996 0 0 0-.514 0H15.602a.996.996 0 0 0-.512 0H12.08a.996.996 0 0 0-.515 0H4.02ZM13.372 6.753a8.055 8.055 0 0 1 8.627 1.809c.398.398.766.835 1.091 1.304a1 1 0 0 1-1.643 1.14 7.556 7.556 0 0 0-.862-1.03 6.058 6.058 0 0 0-6.486-1.36 1 1 0 1 1-.727-1.863ZM12.017 8.562a1 1 0 0 1 0 1.414 6.058 6.058 0 0 0-1.774 4.278c.004.408.023.77.042 1.126l.005.096c.02.382.039.772.029 1.167-.008.34-.038.69-.104 1.062a1 1 0 1 1-1.969-.353c.046-.255.067-.5.073-.757.008-.31-.006-.629-.026-1.015l-.005-.099c-.019-.354-.04-.757-.045-1.21v-.011c0-2.137.849-4.187 2.36-5.698a1 1 0 0 1 1.414 0Z"/><path fill="currentColor" d="M14.568 10.075a4.53 4.53 0 0 1 1.733-.344c.892 0 1.674.313 2.264.663a5.313 5.313 0 0 1 1.344 1.128 4.53 4.53 0 0 1 .921 2.732c.008.655.012 1.48-.027 2.407-.012.302-.03.616-.053.938a1 1 0 0 1-1.994-.142c.02-.3.037-.595.049-.88.036-.875.033-1.66.025-2.306v-.011a2.529 2.529 0 0 0-.499-1.509 3.39 3.39 0 0 0-.787-.637c-.39-.231-.819-.383-1.243-.383a2.53 2.53 0 0 0-2.337 1.561 1 1 0 0 1-1.847-.765 4.53 4.53 0 0 1 2.45-2.451ZM23.235 12.11a1 1 0 0 1 1.18.781c.002.013.01.04.023.08.066.21.24.771.248 1.416l.004.316a44.84 44.84 0 0 1-.004 1.946c-.01.306-.024.622-.047.95a1 1 0 1 1-1.995-.141c.02-.297.034-.586.043-.869.019-.644.011-1.248.003-1.852l-.004-.327a1.95 1.95 0 0 0-.065-.514c-.015-.056-.03-.104-.049-.167l-.023-.077a3.949 3.949 0 0 1-.094-.362 1 1 0 0 1 .78-1.18Z"/><path fill="currentColor" d="M16.224 13.263a1 1 0 0 1 1.074.92c.051.667.07 1.525.025 2.482-.014.306-.034.623-.062.948a1 1 0 1 1-1.992-.17c.025-.298.044-.589.056-.87.04-.882.024-1.658-.021-2.236a1 1 0 0 1 .92-1.074ZM12.791 14.833a1 1 0 0 1 1.03.97c.007.264.013.538.011.82 0 .314-.01.639-.034.974a1 1 0 1 1-1.995-.138c.02-.284.028-.565.03-.844 0-.252-.004-.502-.012-.753a1 1 0 0 1 .97-1.03Z"/></svg>