<svg xmlns="http://www.w3.org/2000/svg" width="32" height="32" fill="none" class="persona-icon"><g fill="currentColor" clip-path="url(#a)"><path d="M10 8a1 1 0 0 1 1-1h16a1 1 0 1 1 0 2H11a1 1 0 0 1-1-1ZM10 16.096a1 1 0 0 1 1-1h16a1 1 0 1 1 0 2H11a1 1 0 0 1-1-1ZM10 24a1 1 0 0 1 1-1h16a1 1 0 1 1 0 2H11a1 1 0 0 1-1-1ZM8 8a2 2 0 1 1-4 0 2 2 0 0 1 4 0ZM8 16.096a2 2 0 1 1-4 0 2 2 0 0 1 4 0ZM8 24a2 2 0 1 1-4 0 2 2 0 0 1 4 0Z"/></g><defs><clipPath id="a"><path fill="#fff" d="M0 0h32v32H0z"/></clipPath></defs></svg>