<svg xmlns="http://www.w3.org/2000/svg" width="32" height="32" fill="none" class="persona-icon" viewBox="0 0 32 32"><path fill="currentColor" fill-rule="evenodd" d="M10.11 9.889a3.444 3.444 0 1 1 6.89 0 3.444 3.444 0 0 1-6.89 0m3.445-1.444a1.444 1.444 0 1 0 0 2.888 1.444 1.444 0 0 0 0-2.889" clip-rule="evenodd"/><path fill="currentColor" fill-rule="evenodd" d="M7 4a3 3 0 0 0-3 3v9.444a3 3 0 0 0 3 3h11.598a4.056 4.056 0 1 0 4.513-6.556V7a3 3 0 0 0-3-3zm14.111 8.574a4.056 4.056 0 0 0-3.104 1.974c-.75-.5-1.636-.77-2.547-.77h-3.808a4.596 4.596 0 0 0-3.034 1.143 2.798 2.798 0 0 0-.951 2.102v.421H7a1 1 0 0 1-1-1V7a1 1 0 0 1 1-1h13.111a1 1 0 0 1 1 1v5.574m-3.666 4.87H9.667v-.42c0-.23.099-.449.271-.6a2.596 2.596 0 0 1 1.714-.646h3.808c.63 0 1.24.23 1.713.646.173.151.272.37.272.6v.42m4.055-2.888a2.056 2.056 0 1 1 0 4.11 2.056 2.056 0 0 1 0-4.11" clip-rule="evenodd"/><path fill="currentColor" fill-rule="evenodd" d="M19.631 21.111c-1.42 0-2.78.58-3.764 1.604A3.114 3.114 0 0 0 15 24.871 3.129 3.129 0 0 0 18.125 28h6.75A3.129 3.129 0 0 0 28 24.87c0-.801-.31-1.575-.867-2.155a5.22 5.22 0 0 0-3.764-1.604H19.63M18.125 26A1.129 1.129 0 0 1 17 24.87c0-.287.111-.564.31-.77a3.219 3.219 0 0 1 2.321-.989h3.738c.876 0 1.715.357 2.322.99.198.205.309.482.309.77 0 .624-.506 1.129-1.125 1.129h-6.75" clip-rule="evenodd"/></svg>