<svg xmlns="http://www.w3.org/2000/svg" width="32" height="32" fill="none" class="persona-icon" viewBox="0 0 32 32"><path fill="currentColor" fill-rule="evenodd" d="M2 7.938C2 5.21 4.194 3 6.9 3h18.2C27.806 3 30 5.21 30 7.938v15.065c0 .557-.448 1.008-1 1.008s-1-.451-1-1.008V7.938c0-1.614-1.299-2.923-2.9-2.923H6.9C5.298 5.015 4 6.324 4 7.938v15.72c0 1.614 1.298 2.923 2.9 2.923h5.2c.552 0 1 .45 1 1.007 0 .557-.448 1.008-1 1.008H6.9c-2.706 0-4.9-2.21-4.9-4.938V7.938Z" clip-rule="evenodd"/><path fill="currentColor" fill-rule="evenodd" d="M7.387 9.97a.995.995 0 0 1 1.396-.231l6.755 4.879c.317.229.66.23.976.004l6.708-4.783a.995.995 0 0 1 1.394.241 1.013 1.013 0 0 1-.239 1.405l-6.708 4.782c-1.013.723-2.288.718-3.296-.01l-6.756-4.88a1.013 1.013 0 0 1-.23-1.406M21.53 20.858a13.187 13.187 0 0 0-3.188 3.33C17.39 25.629 17 26.897 17 27.588c0 .557-.448 1.008-1 1.008s-1-.451-1-1.008c0-1.25.616-2.911 1.677-4.517a15.26 15.26 0 0 1 4.851-4.623c.726-.435 1.506-.204 1.96.261.44.451.656 1.19.335 1.9a66.18 66.18 0 0 0-2.02 5.124c1.5-1.126 2.731-1.564 3.59-1.716.6-.107 1.165.148 1.479.632.292.452.31 1.011.113 1.484l-.045.107a2.48 2.48 0 0 1 .67-.138c.754-.046 1.388.279 1.94.645.46.305.589.93.285 1.395a.995.995 0 0 1-1.385.288c-.453-.3-.63-.322-.717-.316-.1.006-.333.064-.85.49-.46.379-1.144.552-1.75.22-.68-.374-.848-1.143-.635-1.783.082-.247.172-.497.263-.738-.747.316-1.762.924-2.986 2.09-.442.42-1.137.648-1.778.319-.7-.36-.877-1.136-.688-1.775.49-1.66 1.377-4.077 2.222-6.079" clip-rule="evenodd"/></svg>