<svg xmlns="http://www.w3.org/2000/svg" width="32" height="32" fill="none" class="persona-icon" viewBox="0 0 32 32"><path fill="currentColor" d="M15.612 2.083a.981.981 0 0 1 .78 0l10.01 4.333a1 1 0 0 1 .6.92V18.89c0 3.38-2.478 6.168-4.855 8.015a21.258 21.258 0 0 1-3.543 2.227c-.53.262-1.02.47-1.438.617-.383.134-.808.252-1.164.252-.356 0-.78-.118-1.164-.252a13.089 13.089 0 0 1-1.438-.617 21.258 21.258 0 0 1-3.543-2.227c-2.376-1.847-4.855-4.634-4.855-8.015V7.336a1 1 0 0 1 .6-.92l10.01-4.333Zm-8.63 5.912V18.89c0 2.397 1.812 4.665 4.083 6.43a19.292 19.292 0 0 0 3.205 2.015c.475.235.89.41 1.215.524.163.056.294.095.393.118.072.017.111.022.124.024.013-.002.052-.007.124-.024.1-.023.23-.062.393-.118.326-.114.74-.289 1.216-.523.95-.47 2.1-1.158 3.205-2.016 2.27-1.765 4.082-4.033 4.082-6.43V7.995l-9.02-3.905-9.02 3.905Z"/><path fill="currentColor" d="M20.603 13.588c.386.39.386 1.023 0 1.414l-4.29 4.333a.985.985 0 0 1-1.4 0l-2.86-2.889a1.007 1.007 0 0 1 0-1.414.983.983 0 0 1 1.4 0l2.16 2.182 3.59-3.626a.983.983 0 0 1 1.4 0Z"/></svg>