<svg xmlns="http://www.w3.org/2000/svg" width="32" height="32" fill="none" class="persona-icon" viewBox="0 0 32 32"><path fill="currentColor" d="M8.502 4.627a1 1 0 0 1 1-1h19.5a1 1 0 1 1 0 2h-19.5a1 1 0 0 1-1-1ZM8.502 27.377a1 1 0 0 1 1-1h19.5a1 1 0 1 1 0 2h-19.5a1 1 0 0 1-1-1ZM8.502 16.002a1 1 0 0 1 1-1h19.5a1 1 0 1 1 0 2h-19.5a1 1 0 0 1-1-1ZM6.252 4.627a1.625 1.625 0 1 1-3.25 0 1.625 1.625 0 0 1 3.25 0ZM6.252 16.002a1.625 1.625 0 1 1-3.25 0 1.625 1.625 0 0 1 3.25 0ZM6.252 27.377a1.625 1.625 0 1 1-3.25 0 1.625 1.625 0 0 1 3.25 0Z"/></svg>