<svg xmlns="http://www.w3.org/2000/svg" width="32" height="32" fill="none" class="persona-icon" viewBox="0 0 32 32"><path fill="currentColor" d="M12.752 15.002a1 1 0 1 0 0 2h6.5a1 1 0 1 0 0-2h-6.5"/><path fill="currentColor" fill-rule="evenodd" d="M2.002 9.502c0 1.14.727 2.11 1.742 2.473a2.622 2.622 0 0 0-.117.777v14.625a2.625 2.625 0 0 0 2.625 2.625h19.5a2.625 2.625 0 0 0 2.625-2.625V12.752c0-.27-.04-.531-.117-.777a2.626 2.626 0 0 0 1.742-2.473V4.627a2.625 2.625 0 0 0-2.625-2.625H4.627a2.625 2.625 0 0 0-2.625 2.625v4.875m2.625.625a.625.625 0 0 1-.625-.625V4.627c0-.345.28-.625.625-.625h22.75c.345 0 .625.28.625.625v4.875c0 .345-.28.625-.625.625H4.627Zm1 2.625c0-.345.28-.625.625-.625h19.5c.345 0 .625.28.625.625v14.625c0 .346-.28.625-.625.625h-19.5a.625.625 0 0 1-.625-.625V12.752" clip-rule="evenodd"/></svg>