<svg xmlns="http://www.w3.org/2000/svg" width="32" height="32" fill="none" class="persona-icon" viewBox="0 0 32 32"><path fill="currentColor" d="M28.707 12.293a1 1 0 0 1 0 1.414l-4 4a1 1 0 0 1-1.414 0l-2.667-2.667a1 1 0 0 1 1.414-1.414l1.96 1.96 3.293-3.293a1 1 0 0 1 1.414 0ZM6.5 9.5a6.5 6.5 0 1 1 13 0 6.5 6.5 0 0 1-13 0ZM13 5.1a4.4 4.4 0 1 0 0 8.8 4.4 4.4 0 0 0 0-8.8ZM4.095 20.863A8.154 8.154 0 0 1 10.298 18h5.404a8.154 8.154 0 0 1 6.203 2.863A4.579 4.579 0 0 1 23 23.834v.31A4.854 4.854 0 0 1 18.148 29H7.853A4.854 4.854 0 0 1 3 24.144v-.31c0-1.089.388-2.143 1.095-2.971Zm16.3 1.289a6.17 6.17 0 0 0-4.693-2.167h-5.404a6.17 6.17 0 0 0-4.694 2.167c-.4.469-.62 1.066-.62 1.682v.31a2.87 2.87 0 0 0 2.869 2.87h10.295a2.87 2.87 0 0 0 2.868-2.87v-.31c0-.616-.22-1.213-.62-1.682Z"/></svg>