<svg xmlns="http://www.w3.org/2000/svg" width="32" height="32" fill="none" class="persona-icon" viewBox="0 0 32 32"><path fill="currentColor" fill-rule="evenodd" d="M3.3 3.295a1 1 0 0 1 1.414 0l1.07 1.069a1.001 1.001 0 0 1 .19.19l12.03 12.022 3.017-3.014a2.334 2.334 0 0 1 3.299 0l2.683 2.68V7.999a2.998 2.998 0 0 0-3-2.997H9.34a1 1 0 1 1 0-1.999h14.664a4.997 4.997 0 0 1 5 4.996V22.65a1 1 0 0 1-2 0v-3.582l-4.097-4.094a.333.333 0 0 0-.471 0l-3.017 3.014 8.088 8.081c.02.018.039.038.057.057l1.146 1.146a.999.999 0 1 1-1.414 1.413l-.533-.533c-.1.066-.211.133-.33.199-.727.4-1.785.746-3.154.627H8.005a4.997 4.997 0 0 1-4.998-4.996V8.422c-.05-1.225.269-2.184.632-2.858a4.99 4.99 0 0 1 .192-.325L3.3 4.708a.998.998 0 0 1 0-1.413ZM5.303 6.71a3.451 3.451 0 0 0-.296 1.289v.378c.003.064.008.129.014.194a.996.996 0 0 1-.014.285V21.57l4.016-4.013a2.334 2.334 0 0 1 3.3 0l2.113 2.113c.13.13.341.13.471 0l1.683-1.682L5.303 6.709Zm-.27 17.663a3 3 0 0 0 2.973 2.608h15.256a.967.967 0 0 1 .097 0h.644c.049 0 .097.004.144.01.474-.04.856-.163 1.15-.302l-7.293-7.286-1.683 1.681c-.91.91-2.388.91-3.299 0l-2.114-2.112a.333.333 0 0 0-.471 0l-5.405 5.401Z" clip-rule="evenodd"/></svg>