<svg xmlns="http://www.w3.org/2000/svg" width="32" height="32" fill="none" class="persona-icon" viewBox="0 0 32 32"><mask id="a" fill="#fff"><path fill-rule="evenodd" d="M26.667 28c.736 0 1.333-.597 1.333-1.333V24c0-.736-.597-1.333-1.333-1.333H24c-.736 0-1.333.597-1.333 1.333v2.667c0 .736.597 1.333 1.333 1.333zM26 26h-1.333v-1.333H26zM8 28c.736 0 1.333-.597 1.333-1.333V24c0-.736-.597-1.333-1.333-1.333H5.333C4.597 22.667 4 23.264 4 24v2.667C4 27.403 4.597 28 5.333 28zm-.667-2H6v-1.333h1.333zm12.778-4.667c.675 0 1.222-.547 1.222-1.222V11.89c0-.675-.547-1.222-1.222-1.222h-8.222c-.675 0-1.222.547-1.222 1.222v8.222c0 .675.547 1.222 1.222 1.222zm-.778-2h-6.666v-6.666h6.666zM9.333 8c0 .736-.597 1.333-1.333 1.333H5.333A1.333 1.333 0 0 1 4 8V5.333C4 4.597 4.597 4 5.333 4H8c.736 0 1.333.597 1.333 1.333zm-2-2H6v1.333h1.333zM28 8c0 .736-.597 1.333-1.333 1.333H24A1.333 1.333 0 0 1 22.667 8V5.333C22.667 4.597 23.264 4 24 4h2.667C27.403 4 28 4.597 28 5.333zm-2-2h-1.333v1.333H26z" clip-rule="evenodd"/><path d="M20 26a.667.667 0 0 1-.667.667H18a.667.667 0 0 1-.667-.667v-1.333c0-.369.299-.667.667-.667h1.333c.369 0 .667.298.667.667zm-.667-18A.667.667 0 0 0 20 7.333V6a.667.667 0 0 0-.667-.667H18a.667.667 0 0 0-.667.667v1.333c0 .369.299.667.667.667zm7.334 11.333A.667.667 0 0 1 26 20h-1.333a.667.667 0 0 1-.667-.667V18c0-.368.299-.667.667-.667H26c.368 0 .667.299.667.667zM7.333 20A.667.667 0 0 0 8 19.333V18a.667.667 0 0 0-.667-.667H6a.667.667 0 0 0-.667.667v1.333c0 .369.299.667.667.667zm19.334-6a.667.667 0 0 1-.667.667h-1.333A.667.667 0 0 1 24 14v-1.333c0-.369.299-.667.667-.667H26c.368 0 .667.298.667.667zM14 26.667a.667.667 0 0 0 .667-.667v-1.333A.667.667 0 0 0 14 24h-1.333a.667.667 0 0 0-.667.667V26c0 .368.299.667.667.667zM8 14a.667.667 0 0 1-.667.667H6A.667.667 0 0 1 5.333 14v-1.333c0-.369.299-.667.667-.667h1.333c.369 0 .667.298.667.667zm6-6a.667.667 0 0 0 .667-.667V6A.667.667 0 0 0 14 5.333h-1.333A.667.667 0 0 0 12 6v1.333c0 .369.299.667.667.667z"/></mask><path fill="currentColor" fill-rule="evenodd" d="M26.667 28c.736 0 1.333-.597 1.333-1.333V24c0-.736-.597-1.333-1.333-1.333H24c-.736 0-1.333.597-1.333 1.333v2.667c0 .736.597 1.333 1.333 1.333zM26 26h-1.333v-1.333H26zM8 28c.736 0 1.333-.597 1.333-1.333V24c0-.736-.597-1.333-1.333-1.333H5.333C4.597 22.667 4 23.264 4 24v2.667C4 27.403 4.597 28 5.333 28zm-.667-2H6v-1.333h1.333zm12.778-4.667c.675 0 1.222-.547 1.222-1.222V11.89c0-.675-.547-1.222-1.222-1.222h-8.222c-.675 0-1.222.547-1.222 1.222v8.222c0 .675.547 1.222 1.222 1.222zm-.778-2h-6.666v-6.666h6.666zM9.333 8c0 .736-.597 1.333-1.333 1.333H5.333A1.333 1.333 0 0 1 4 8V5.333C4 4.597 4.597 4 5.333 4H8c.736 0 1.333.597 1.333 1.333zm-2-2H6v1.333h1.333zM28 8c0 .736-.597 1.333-1.333 1.333H24A1.333 1.333 0 0 1 22.667 8V5.333C22.667 4.597 23.264 4 24 4h2.667C27.403 4 28 4.597 28 5.333zm-2-2h-1.333v1.333H26z" clip-rule="evenodd"/><path fill="currentColor" d="M20 26a.667.667 0 0 1-.667.667H18a.667.667 0 0 1-.667-.667v-1.333c0-.369.299-.667.667-.667h1.333c.369 0 .667.298.667.667zm-.667-18A.667.667 0 0 0 20 7.333V6a.667.667 0 0 0-.667-.667H18a.667.667 0 0 0-.667.667v1.333c0 .369.299.667.667.667zm7.334 11.333A.667.667 0 0 1 26 20h-1.333a.667.667 0 0 1-.667-.667V18c0-.368.299-.667.667-.667H26c.368 0 .667.299.667.667zM7.333 20A.667.667 0 0 0 8 19.333V18a.667.667 0 0 0-.667-.667H6a.667.667 0 0 0-.667.667v1.333c0 .369.299.667.667.667zm19.334-6a.667.667 0 0 1-.667.667h-1.333A.667.667 0 0 1 24 14v-1.333c0-.369.299-.667.667-.667H26c.368 0 .667.298.667.667zM14 26.667a.667.667 0 0 0 .667-.667v-1.333A.667.667 0 0 0 14 24h-1.333a.667.667 0 0 0-.667.667V26c0 .368.299.667.667.667zM8 14a.667.667 0 0 1-.667.667H6A.667.667 0 0 1 5.333 14v-1.333c0-.369.299-.667.667-.667h1.333c.369 0 .667.298.667.667zm6-6a.667.667 0 0 0 .667-.667V6A.667.667 0 0 0 14 5.333h-1.333A.667.667 0 0 0 12 6v1.333c0 .369.299.667.667.667z"/><path stroke="#000" stroke-width="4" d="M26.667 28c.736 0 1.333-.597 1.333-1.333V24c0-.736-.597-1.333-1.333-1.333H24c-.736 0-1.333.597-1.333 1.333v2.667c0 .736.597 1.333 1.333 1.333zM26 26h-1.333v-1.333H26zM8 28c.736 0 1.333-.597 1.333-1.333V24c0-.736-.597-1.333-1.333-1.333H5.333C4.597 22.667 4 23.264 4 24v2.667C4 27.403 4.597 28 5.333 28zm-.667-2H6v-1.333h1.333zm12.778-4.667c.675 0 1.222-.547 1.222-1.222V11.89c0-.675-.547-1.222-1.222-1.222h-8.222c-.675 0-1.222.547-1.222 1.222v8.222c0 .675.547 1.222 1.222 1.222zm-.778-2h-6.666v-6.666h6.666zM9.333 8c0 .736-.597 1.333-1.333 1.333H5.333A1.333 1.333 0 0 1 4 8V5.333C4 4.597 4.597 4 5.333 4H8c.736 0 1.333.597 1.333 1.333zm-2-2H6v1.333h1.333zM28 8c0 .736-.597 1.333-1.333 1.333H24A1.333 1.333 0 0 1 22.667 8V5.333C22.667 4.597 23.264 4 24 4h2.667C27.403 4 28 4.597 28 5.333zm-2-2h-1.333v1.333H26z" clip-rule="evenodd" mask="url(#a)"/><path stroke="#000" stroke-width="4" d="M20 26a.667.667 0 0 1-.667.667H18a.667.667 0 0 1-.667-.667v-1.333c0-.369.299-.667.667-.667h1.333c.369 0 .667.298.667.667zm-.667-18A.667.667 0 0 0 20 7.333V6a.667.667 0 0 0-.667-.667H18a.667.667 0 0 0-.667.667v1.333c0 .369.299.667.667.667zm7.334 11.333A.667.667 0 0 1 26 20h-1.333a.667.667 0 0 1-.667-.667V18c0-.368.299-.667.667-.667H26c.368 0 .667.299.667.667zM7.333 20A.667.667 0 0 0 8 19.333V18a.667.667 0 0 0-.667-.667H6a.667.667 0 0 0-.667.667v1.333c0 .369.299.667.667.667zm19.334-6a.667.667 0 0 1-.667.667h-1.333A.667.667 0 0 1 24 14v-1.333c0-.369.299-.667.667-.667H26c.368 0 .667.298.667.667zM14 26.667a.667.667 0 0 0 .667-.667v-1.333A.667.667 0 0 0 14 24h-1.333a.667.667 0 0 0-.667.667V26c0 .368.299.667.667.667zM8 14a.667.667 0 0 1-.667.667H6A.667.667 0 0 1 5.333 14v-1.333c0-.369.299-.667.667-.667h1.333c.369 0 .667.298.667.667zm6-6a.667.667 0 0 0 .667-.667V6A.667.667 0 0 0 14 5.333h-1.333A.667.667 0 0 0 12 6v1.333c0 .369.299.667.667.667z" mask="url(#a)"/></svg>