<svg xmlns="http://www.w3.org/2000/svg" width="32" height="32" fill="none" class="persona-icon"><path fill="currentColor" d="M16.667 3.731a1 1 0 0 1-.462 1.137 8.001 8.001 0 1 0 10.931 10.931 1 1 0 0 1 1.866.525c-.172 7.032-5.925 12.678-12.998 12.678-7.18 0-13.002-5.82-13.002-13.002 0-7.072 5.647-12.825 12.678-12.997a1 1 0 0 1 .987.728Zm-4.33 1.894C8.064 7.135 5.002 11.21 5.002 16c0 6.077 4.926 11.002 11.002 11.002 4.79 0 8.866-3.061 10.376-7.335a9.959 9.959 0 0 1-6.175 2.134c-5.524 0-10.002-4.477-10.002-10.001 0-2.331.798-4.476 2.134-6.176Z"/></svg>