<svg xmlns="http://www.w3.org/2000/svg" width="32" height="32" fill="none" class="persona-icon" viewBox="0 0 32 32"><path fill="currentColor" fill-rule="evenodd" d="M12.964 2.63a10.04 10.04 0 0 1 3.947-.62c.03.001.058.004.087.007a10.147 10.147 0 0 1 6.829 3.104 10.036 10.036 0 0 1 2.798 6.954 10.036 10.036 0 0 1-2.807 6.951 10.145 10.145 0 0 1-6.096 3.036 4.74 4.74 0 0 1-.068.198c-.518 1.412-1.43 2.588-2.438 3.568a11.166 11.166 0 0 1-3.614 2.348A11.4 11.4 0 0 1 7.346 29h-.97l-.001-16.851c0-1.375.277-2.736.816-4a10.147 10.147 0 0 1 2.32-3.355 10.081 10.081 0 0 1 3.453-2.163m2.993 1.315c-.79.05-1.569.215-2.314.492a8.143 8.143 0 0 0-2.787 1.747 8.218 8.218 0 0 0-1.88 2.717 8.275 8.275 0 0 0-.662 3.247l.001 14.874a9.435 9.435 0 0 0 2.559-.633 9.225 9.225 0 0 0 2.986-1.94c.881-.857 1.586-1.797 1.972-2.85.062-.168.096-.3.115-.445l.01-17.21Zm1.95 16.14a8.198 8.198 0 0 0 4.51-2.392 8.113 8.113 0 0 0 2.268-5.619 8.113 8.113 0 0 0-2.262-5.622 8.198 8.198 0 0 0-4.517-2.4v16.034" clip-rule="evenodd"/></svg>