<svg xmlns="http://www.w3.org/2000/svg" width="40" height="40" fill="none" class="persona-ilustration" viewBox="0 0 40 40"><g clip-path="url(#a)"><g clip-path="url(#b)"><path fill="#80D6E2" d="M19.468 15.886c0-.849.688-1.536 1.536-1.536h15.568c.849 0 1.536.687 1.536 1.536v9.218c0 .848-.687 1.536-1.536 1.536H21.004a1.536 1.536 0 0 1-1.536-1.536z"/><path fill="#F8F8F8" d="M32.373 19.266h3.687v4.711h-3.687zm-7.784-2.356c0-.282.23-.512.512-.512h7.17a.512.512 0 0 1 0 1.025H25.1a.51.51 0 0 1-.512-.512m-2.253 4.668c0-.283.23-.513.513-.513h7.169a.512.512 0 1 1 0 1.025h-7.17a.51.51 0 0 1-.512-.513"/><path fill="#3E68F5" d="M1.892 10.637A3.047 3.047 0 0 1 4.939 7.59H23.22a3.047 3.047 0 0 1 3.047 3.047v18.282a3.047 3.047 0 0 1-3.047 3.047H4.939a3.047 3.047 0 0 1-3.047-3.047z"/><path fill="#F8F8F8" fill-rule="evenodd" d="M13.944 15.93a2.042 2.042 0 1 0 0 4.084 2.042 2.042 0 0 0 0-4.084m-3.375 2.042a3.375 3.375 0 1 1 6.75 0 3.375 3.375 0 0 1-6.75 0m-1.906-5.653A2.04 2.04 0 0 0 6.62 14.36v2.37a.667.667 0 1 1-1.333 0v-2.37a3.375 3.375 0 0 1 3.375-3.375h2.37a.667.667 0 0 1 0 1.333zm7.797-.667c0-.368.299-.666.667-.666h2.37a3.375 3.375 0 0 1 3.375 3.375v2.37a.667.667 0 0 1-1.334 0v-2.37a2.04 2.04 0 0 0-2.041-2.042h-2.37a.667.667 0 0 1-.667-.667M5.954 22.722c.368 0 .667.299.667.667v1.806c0 1.127.914 2.041 2.042 2.041h2.37a.667.667 0 0 1 0 1.334h-2.37a3.375 3.375 0 0 1-3.375-3.375v-1.806c0-.368.298-.667.666-.667m16.251 0c.368 0 .667.299.667.667v1.806a3.375 3.375 0 0 1-3.375 3.375h-2.37a.667.667 0 0 1 0-1.334h2.37a2.04 2.04 0 0 0 2.041-2.041v-1.806c0-.368.299-.667.667-.667" clip-rule="evenodd"/><path fill="#F8F8F8" fill-rule="evenodd" d="M8.807 24.467a4.97 4.97 0 0 1 3.784-1.745h3.249a4.97 4.97 0 0 1 3.783 1.745c.436.51.676 1.16.676 1.831v.095c0 .729-.254 1.4-.678 1.927a.667.667 0 0 1-1.04-.835c.241-.299.384-.678.384-1.092v-.095c0-.354-.126-.696-.356-.966a3.64 3.64 0 0 0-2.77-1.277h-3.248a3.64 3.64 0 0 0-2.77 1.277c-.23.27-.356.612-.356.966v.095c0 .414.143.793.384 1.092a.667.667 0 0 1-1.04.835 3.07 3.07 0 0 1-.677-1.927v-.095c0-.671.24-1.32.675-1.831" clip-rule="evenodd"/><path fill="#3D2397" d="M26.182 33.054a.829.829 0 1 0 1.173-1.173l-6.826-6.825a.829.829 0 0 0-1.172 1.172z"/><path fill="#3D2397" d="M19.357 14.505a7.46 7.46 0 1 1-10.551 10.55 7.46 7.46 0 0 1 10.551-10.55"/><path fill="#310A81" d="M18.664 26.176a.904.904 0 0 1 0-1.28l.533-.532a.904.904 0 1 1 1.28 1.279l-.534.533a.904.904 0 0 1-1.279 0"/><mask id="c" width="14" height="14" x="7" y="13" maskUnits="userSpaceOnUse" style="mask-type:alpha"><path fill="#F9F9F9" d="M18.504 15.358c2.502 2.501 2.55 6.51.107 8.952s-6.451 2.395-8.953-.106-2.55-6.51-.106-8.953c2.442-2.442 6.45-2.395 8.952.107"/></mask><g mask="url(#c)"><path fill="#A6B7FF" d="M18.504 15.358c2.502 2.501 2.55 6.51.107 8.952s-6.451 2.395-8.953-.106-2.55-6.51-.106-8.953c2.442-2.442 6.45-2.395 8.952.107" opacity=".75"/><path fill="#F8F8F8" fill-rule="evenodd" d="M13.834 16.091a2.15 2.15 0 1 0 0 4.302 2.15 2.15 0 0 0 0-4.302m-3.585 2.151a3.585 3.585 0 1 1 7.17 0 3.585 3.585 0 0 1-7.17 0m-2.008-5.428a2.15 2.15 0 0 0-2.15 2.15v2.51a.717.717 0 1 1-1.434 0v-2.51A3.585 3.585 0 0 1 8.24 11.38h2.51a.717.717 0 1 1 0 1.434zm8.245-.717c0-.396.321-.717.717-.717h2.51a3.585 3.585 0 0 1 3.584 3.585v2.509a.717.717 0 1 1-1.434 0v-2.51a2.15 2.15 0 0 0-2.15-2.15h-2.51a.717.717 0 0 1-.717-.717M5.374 23.807c.396 0 .717.321.717.717v1.912a2.15 2.15 0 0 0 2.15 2.15h2.51a.717.717 0 1 1 0 1.435H8.24a3.585 3.585 0 0 1-3.584-3.585v-1.912c0-.396.32-.717.717-.717m17.207 0c.395 0 .716.321.716.717v1.912a3.585 3.585 0 0 1-3.584 3.584h-2.51a.717.717 0 1 1 0-1.433h2.51a2.15 2.15 0 0 0 2.15-2.151v-1.912c0-.396.322-.717.718-.717" clip-rule="evenodd"/><path fill="#F8F8F8" fill-rule="evenodd" d="M8.386 25.112a5.28 5.28 0 0 1 4.014-1.851h3.44c1.545 0 3.012.676 4.015 1.851a3 3 0 0 1 .718 1.946v.101a3.26 3.26 0 0 1-.72 2.047.717.717 0 1 1-1.118-.898c.253-.314.404-.713.404-1.149v-.1c0-.373-.133-.733-.374-1.016l.545-.465-.545.465a3.85 3.85 0 0 0-2.924-1.348H12.4a3.85 3.85 0 0 0-2.925 1.348 1.56 1.56 0 0 0-.374 1.015v.101c0 .436.15.835.404 1.15a.717.717 0 1 1-1.118.897 3.26 3.26 0 0 1-.72-2.047v-.1c0-.714.254-1.404.718-1.947" clip-rule="evenodd"/></g><mask id="d" width="11" height="11" x="19" y="2" maskUnits="userSpaceOnUse" style="mask-type:alpha"><path fill="#009444" d="M24.667 12.25a5 5 0 1 0 0-10 5 5 0 0 0 0 10"/></mask><g mask="url(#d)"><path fill="#F18513" d="M24.667 12.25a5 5 0 1 0 0-10 5 5 0 0 0 0 10"/><path fill="#FFB700" d="M23.482 11.098a5 5 0 1 0 0-10 5 5 0 0 0 0 10"/><path fill="#7B3328" d="M25.402 9.882a.752.752 0 1 1-1.505 0 .752.752 0 0 1 1.505 0m-1.476-5.265a.724.724 0 1 1 1.447 0l-.138 3.573a.586.586 0 0 1-1.171 0z"/></g></g></g><defs><clipPath id="a"><path fill="#fff" d="M0 0h40v40H0z"/></clipPath><clipPath id="b"><path fill="#fff" d="M0 0h40v40H0z"/></clipPath></defs></svg>