<svg xmlns="http://www.w3.org/2000/svg" width="80" height="80" fill="none" class="persona-ilustration" viewBox="0 0 80 80"><g clip-path="url(#a)"><g clip-path="url(#b)"><rect width="66.667" height="66.667" x="6.667" y="6.667" fill="#D3EDFF" rx="33.333"/><path fill="#293A6E" fill-rule="evenodd" d="M1.95 21.175c-.537-1.507-.452-2.91.235-3.853l.054-.07 2.377-3.044-.005.006-.027.035a3 3 0 0 0-.503 1.161l.81-1.038c.497-.636 1.292-.966 2.238-.928l-2.4 3.074a4 4 0 0 0-.41.007c.03.475.137.98.322 1.5l-.216.277 25.856 72.42c1.098 2.718 2.97 4.342 5.106 4.507q.451.033.917-.02l24.848-2.858.148-.19a5.5 5.5 0 0 0-.33-1.867l.428-.549-.432.552-24.031-68.062c-.864-2.444-3.207-4.504-5.27-4.663l2.399-3.073c2.063.158 4.406 2.215 5.27 4.662l24.034 68.06c.488 1.373.438 2.7-.132 3.636l-.366.47v-.001l.366-.469a3 3 0 0 1-.174.254l-.772.989a2.6 2.6 0 0 0 1.015-.789l-2.396 3.07c-.446.572-1.073.917-1.83 1.006l-25.173 2.896a5 5 0 0 1-.919.02c-2.14-.165-4.007-1.789-5.105-4.508l2.365-3.03-2.369 3.03z" clip-rule="evenodd"/><path fill="#293A6E" d="m4.638 14.179-.022.029zm27.023 3.393 2.403-3.073-26.935-1.055-2.4 3.074z"/><path fill="#FFF9E1" fill-rule="evenodd" d="M63.502 91.027c.614-1.007.67-2.422.155-3.878l-.003-.003-24.032-68.063c-.905-2.56-3.378-4.72-5.698-4.896l-26.81-1.045c-1.077-.038-1.976.354-2.527 1.108-.687.943-.772 2.345-.234 3.852l25.928 72.62c1.098 2.72 2.966 4.344 5.106 4.508.3.022.61.016.917-.019l25.175-2.896c.87-.105 1.57-.548 2.023-1.288" clip-rule="evenodd"/><path fill="#293A6E" d="m63.907 95.451-27.079 3.127c-2.203.255-4.773-1.736-5.727-4.448L4.345 18.036c-.954-2.713.165-4.849 2.48-4.776l28.484.907c2.086.067 4.494 2.186 5.392 4.733l25.165 71.524c.897 2.55.026 4.799-1.958 5.027"/><path fill="#FFF9E1" d="M63.073 93.822 36.49 96.806c-1.48.166-3.206-1.172-3.846-2.994L6.063 18.222c-.64-1.819.106-3.256 1.663-3.213l27.907.808c1.407.04 3.03 1.467 3.636 3.186l25.132 71.43c.606 1.72.013 3.237-1.325 3.386z"/><path fill="#3E68F5" d="M29.412 55.403c-.577-1.473.237-2.698 1.819-2.736l8.59-.21c1.581-.039 3.331 1.124 3.908 2.597l3.135 8c.578 1.474-.237 2.699-1.818 2.737l-8.59.21c-1.582.038-3.332-1.124-3.909-2.597z"/><path fill="#EAEEFF" fill-rule="evenodd" d="M36.516 54.691a.4.4 0 0 1 .293-.007l4.01 1.292a.57.57 0 0 1 .35.31l1.438 3.671c.426 1.087-.094 2-.689 2.608a4.6 4.6 0 0 1-.955.74 3 3 0 0 1-.424.21 1.2 1.2 0 0 1-.381.092 1.8 1.8 0 0 1-.445-.072 7 7 0 0 1-.58-.185 12 12 0 0 1-1.51-.68c-1.057-.567-2.275-1.439-2.701-2.525l-1.438-3.67c-.054-.138-.014-.265.101-.322zm-2.2 1.992 1.35 3.444c.293.748 1.19 1.447 2.196 1.987.488.262.97.47 1.356.61.193.07.357.122.483.155.117.03.173.038.185.04h.004a1 1 0 0 0 .15-.048c.098-.039.22-.097.354-.175.27-.157.582-.384.857-.665.567-.578.905-1.307.612-2.056l-1.35-3.443-3.58-1.153z" clip-rule="evenodd"/><path fill="#EAEEFF" fill-rule="evenodd" d="M39.712 58.308c.198.131.283.35.19.487l-.947 1.413c-.093.138-.328.143-.526.013l-1.351-.894c-.198-.13-.284-.349-.19-.487.092-.138.327-.143.525-.012l.993.656.78-1.163c.093-.138.328-.143.526-.013" clip-rule="evenodd"/><path fill="#3E68F5" d="M11.28 55.937c-.578-1.473.236-2.699 1.818-2.737l8.59-.21c1.582-.038 3.332 1.124 3.909 2.597l3.135 8.001c.577 1.473-.238 2.698-1.819 2.737l-8.59.21c-1.582.038-3.332-1.125-3.909-2.598z"/><path fill="#EAEEFF" fill-rule="evenodd" d="M19 55.505c-1.154-.122-2.177.143-2.867.742-.116.102-.08.298.082.439.162.14.388.173.505.071.583-.507 1.45-.73 2.426-.628.977.103 1.994.526 2.85 1.185.17.131.392.147.495.034s.048-.311-.124-.443c-1.01-.779-2.212-1.278-3.366-1.4m1.11 1.422a4 4 0 0 0-1.192-.194c-.82 0-1.496.298-1.882.829q-.154.21-.252.459c-.056.142.054.338.245.437.192.099.393.064.449-.079q.08-.2.205-.373c.3-.412.826-.644 1.463-.644.302 0 .617.052.928.15.2.064.37-.016.38-.178s-.144-.344-.344-.407m-4.155.103c-.189-.105-.394-.078-.459.06-.365.785-.33 1.76.1 2.744a.52.52 0 0 0 .472.293c.185-.012.273-.162.198-.335-.364-.833-.394-1.657-.085-2.322.065-.138-.037-.335-.226-.44m4.962.532c-.09.123-.017.322.162.444.6.413 1.056.971 1.269 1.554.051.147.09.271.127.394l.06.19a3.4 3.4 0 0 0 .235.578c.22.415.585.86 1.297 1.525.155.146.383.188.508.093.125-.094.1-.288-.056-.434-.677-.632-.952-.99-1.105-1.279a2.7 2.7 0 0 1-.185-.458l-.052-.165c-.04-.13-.085-.279-.141-.438l-.002-.004c-.273-.75-.86-1.47-1.632-2-.178-.123-.396-.123-.485 0m1.953.143c-.146.072-.153.259-.017.416.562.651.924 1.378 1.035 2.082.027.17.21.334.407.367.198.032.337-.08.31-.25-.131-.832-.559-1.691-1.224-2.46-.136-.158-.365-.227-.51-.155m-2.795.405a2.2 2.2 0 0 0-.7-.12c-.692 0-1.043.41-1.14.623a1 1 0 0 0-.091.348c-.017.19.013.393.087.6.317.9 1 2.766 2.482 4.153.156.145.383.187.508.093s.1-.289-.056-.434c-1.29-1.208-1.922-2.887-2.246-3.807l-.001-.004a.84.84 0 0 1-.053-.36.6.6 0 0 1 .055-.21c.055-.12.281-.373.684-.373.135 0 .278.025.42.072a1.65 1.65 0 0 1 .742.51c.131.16.36.237.51.17s.168-.25.037-.41a2.74 2.74 0 0 0-1.238-.85m-3.097.727c-.198-.034-.34.076-.315.246l.002.04c.002.083.007.266.084.485l.04.114c.315.898.694 1.981 2.07 3.63.134.159.362.232.511.163s.162-.254.029-.413c-1.274-1.525-1.616-2.501-1.92-3.372l-.041-.115a.7.7 0 0 1-.043-.193l-.003-.062-.001-.027a1 1 0 0 0-.01-.125c-.024-.17-.204-.336-.403-.37m2.881.412c-.193-.014-.311.116-.263.289a9.6 9.6 0 0 0 .918 2.106c.1.17.32.28.494.246.173-.034.233-.2.134-.37a9 9 0 0 1-.844-1.934c-.049-.173-.245-.324-.439-.337m1.54.559c-.19-.005-.299.131-.241.305.13.39.293.829.607 1.327.316.499.773 1.042 1.477 1.657.161.142.387.174.505.073s.082-.297-.08-.438c-.637-.557-1.028-1.029-1.29-1.442a5 5 0 0 1-.527-1.159.52.52 0 0 0-.45-.323m-.156 2.434c-.152.065-.17.248-.04.409a5.6 5.6 0 0 0 1.175 1.114c.178.123.396.123.485 0 .09-.122.017-.321-.162-.444a4.6 4.6 0 0 1-.948-.906c-.13-.16-.358-.239-.51-.173" clip-rule="evenodd"/></g><path fill="#38BA58" fill-rule="evenodd" d="M59.978 3.2c-1.762-2.94-6.023-2.94-7.785 0a4.54 4.54 0 0 1-4.995 2.069c-3.325-.833-6.338 2.18-5.505 5.505a4.54 4.54 0 0 1-2.069 4.995c-2.94 1.762-2.94 6.023 0 7.785a4.54 4.54 0 0 1 2.07 4.995c-.834 3.325 2.179 6.338 5.504 5.505a4.54 4.54 0 0 1 4.995 2.069c1.762 2.94 6.023 2.94 7.785 0a4.54 4.54 0 0 1 4.995-2.07c3.325.834 6.338-2.179 5.505-5.504a4.54 4.54 0 0 1 2.069-4.995c2.94-1.762 2.94-6.023 0-7.785a4.54 4.54 0 0 1-2.07-4.995c.834-3.325-2.179-6.338-5.504-5.505a4.54 4.54 0 0 1-4.995-2.07m4.774 13.65a1.435 1.435 0 0 0-2.029-2.03l-8.55 8.551-4.725-4.724a1.435 1.435 0 1 0-2.03 2.029l5.74 5.74c.56.56 1.469.56 2.029 0z" clip-rule="evenodd"/><path fill="#fff" d="M64.753 14.82c.56.56.56 1.469 0 2.03l-9.565 9.564c-.56.56-1.47.56-2.03 0l-5.739-5.739a1.435 1.435 0 1 1 2.03-2.029l4.724 4.725 8.55-8.551c.561-.56 1.47-.56 2.03 0"/><path fill="#293A6E" fill-rule="evenodd" d="M1.95 21.175c-.538-1.507-.453-2.91.234-3.852l.054-.07 2.377-3.045-.005.006-.027.035a3 3 0 0 0-.503 1.161l.81-1.038c.497-.636 1.292-.965 2.238-.927l-2.4 3.073a4 4 0 0 0-.41.007c.03.475.137.98.322 1.5l-.216.277 11.128 31.167 30.43-1.427-9.048-25.807c-.864-2.444-3.207-4.504-5.27-4.663l2.399-3.073c2.063.158 4.406 2.216 5.27 4.662l10.36 29.34-37.641.968z" clip-rule="evenodd"/><path fill="#293A6E" d="m4.637 14.18-.022.028zm27.023 3.392 2.403-3.073-26.935-1.054-2.4 3.073z"/><path fill="#293A6E" fill-rule="evenodd" d="M50.966 48.25 40.668 19.083c-.905-2.561-3.056-5.3-6.745-4.897l-26.81-1.045c-1.077-.038-1.976.355-2.527 1.108-.687.943-.772 2.346-.234 3.852l11.421 31.99z" clip-rule="evenodd"/><path fill="#FFF9E1" d="M17.266 50.041 6.063 18.221c-.64-1.817.106-3.255 1.663-3.212l27.907.808c1.407.04 3.03 1.468 3.636 3.186l10.398 29.552z"/><path fill="#293A6E" d="M24.676 15.437c.288.815.292 1.593.017 2.156-.279.566-.818.874-1.5.858-.683-.017-1.458-.358-2.147-.95a5.33 5.33 0 0 1-1.533-2.217l5.166.15z"/><path fill="#9DA8C4" d="m39.357 43.297-14.451.375c-.624.017-1.342-.578-1.605-1.327-.263-.75.029-1.368.652-1.38l14.48-.297c.586-.011 1.267.566 1.525 1.29.254.724-.012 1.325-.598 1.34zm-1.216 4.452-8.786.306c-.612.02-1.325-.567-1.588-1.31s.026-1.365.641-1.382l8.804-.26c.592-.018 1.278.557 1.533 1.287.258.73-.014 1.336-.604 1.356z"/><path fill="#627EBE" d="M25.075 22.87c3.525.054 7.548 3.512 9.03 7.727s-.106 7.676-3.594 7.73c-3.536.055-7.673-3.404-9.192-7.73-1.522-4.323.18-7.785 3.756-7.73z"/><path fill="#fff" d="M25.85 25.398c1.406.014 3.025 1.413 3.626 3.121.6 1.71-.037 3.099-1.436 3.101-1.405.003-3.045-1.393-3.651-3.121-.607-1.728.051-3.116 1.462-3.101m8.368 10.517c-.632 1.46-1.92 2.384-3.708 2.412-1.838.028-3.838-.892-5.55-2.39.222-1.69 1.592-2.87 3.644-2.88h.003c2.063-.01 4.24 1.165 5.61 2.857"/><path fill="#3E68F5" d="M48.33 50.392a46.4 46.4 0 0 0 8.765-3.497c1.543-.807 3.246-.303 3.864 1.244l3.35 8.402c.619 1.548-.083 3.55-1.628 4.357a46.4 46.4 0 0 1-8.765 3.497c-1.674.476-3.563-.492-4.18-2.04q-1.677-4.2-3.352-8.401c-.618-1.548.272-3.086 1.946-3.562"/><path fill="#EAEEFF" fill-rule="evenodd" d="M56.85 49.276c.199-.097.421-.02.5.177l.424 1.065c.428-.217.641-.327 1.063-.553.194-.105.414-.032.493.165a.45.45 0 0 1-.21.544c-.422.226-.636.336-1.064.553l.424 1.064a.43.43 0 0 1-.216.532c-.199.097-.423.015-.5-.18l-.423-1.064c-.433.209-.65.31-1.086.504a.37.37 0 0 1-.506-.191.41.41 0 0 1 .223-.517c.437-.197.654-.298 1.086-.505l-.424-1.064a.43.43 0 0 1 .217-.53m-5.936 3.764c-.631.2-.957.824-.72 1.413l.565 1.417c.079.197-.03.406-.243.465a.45.45 0 0 1-.527-.25c-.226-.566-.34-.85-.565-1.417-.392-.98.156-2.003 1.207-2.337 1.52-.484 2.27-.759 3.745-1.372a.383.383 0 0 1 .51.199.4.4 0 0 1-.227.51 38 38 0 0 1-3.745 1.372m3.801 1.926a5.3 5.3 0 0 0-.765 1.688c-.159.65-.13 1.16-.03 1.413a.363.363 0 0 1-.236.481.424.424 0 0 1-.522-.23c-.18-.449-.179-1.121.003-1.84a6.1 6.1 0 0 1 1.198-2.34.67.67 0 0 1 .771-.199.63.63 0 0 1 .394.624c-.042.654-.05 1.491-.03 2.19.414-.645.823-1.003 1.128-1.197a.58.58 0 0 1 .635-.013c.17.114.257.309.251.507l-.002.068q.112-.103.246-.176c.27-.142.551-.134.807-.099.209.03.343.228.3.443a.42.42 0 0 1-.462.334c-.214-.032-.285-.011-.32.008-.038.02-.12.083-.252.323-.116.21-.345.38-.615.359-.305-.027-.477-.274-.488-.535a8 8 0 0 1-.007-.33c-.24.23-.545.614-.851 1.231-.108.216-.337.395-.623.368a.564.564 0 0 1-.512-.534 25 25 0 0 1-.022-2.547zm4.687-2.153c.196-.102.416-.027.495.168l1.416 3.546c.391.98-.08 2.198-1.075 2.673-.575.275-.866.409-1.452.664a.38.38 0 0 1-.507-.196.403.403 0 0 1 .225-.513c.585-.255.875-.389 1.452-.663.596-.285.883-1.007.65-1.596L59.19 53.35a.44.44 0 0 1 .212-.537m-8.035 5.648a.444.444 0 0 1 .525.245l.565 1.417c.234.589.94.915 1.57.716.61-.193.911-.295 1.512-.51a.41.41 0 0 1 .518.218.375.375 0 0 1-.233.491c-.601.215-.903.317-1.512.51-1.05.334-2.231-.229-2.623-1.21l-.565-1.417c-.079-.197.03-.4.243-.462z" clip-rule="evenodd"/><path fill="#3E68F5" d="M64.816 41.82a46.3 46.3 0 0 0 6.798-6.81c1.129-1.396 2.466-1.355 3.081.19l3.352 8.402c.617 1.547.282 4.015-.847 5.41a46 46 0 0 1-6.798 6.81c-1.365 1.107-3.032.661-3.65-.886l-3.351-8.402c-.618-1.548.05-3.608 1.415-4.715"/><path fill="#EAEEFF" fill-rule="evenodd" d="M65.948 44.313c-.166.134-.24.397-.164.584l.543 1.363c.075.187.271.232.436.098.48-.391.717-.592 1.183-1a.57.57 0 0 0 .156-.596c-.219-.546-.325-.817-.543-1.363-.075-.187-.267-.225-.428-.083-.466.408-.704.608-1.183 1zm.842 1.114c-.11-.271-.164-.408-.27-.68.237-.197.356-.298.591-.5l.273.68c-.235.202-.354.303-.592.5zm4.628-5.893c-.075-.188-.019-.472.125-.636.414-.475.617-.715 1.016-1.205.137-.169.31-.155.384.034l.543 1.363c.075.187.025.479-.112.648-.399.49-.601.732-1.015 1.204-.144.164-.321.144-.396-.046l-.543-1.362zm.653-.251c.11.271.164.408.27.68.205-.24.307-.36.507-.603-.11-.271-.163-.408-.27-.68-.2.243-.302.365-.507.603m-3.232 6.664c-.176-.44-.015-1.064.351-1.406a39 39 0 0 0 2.207-2.208c.344-.37.76-.32.933.118l1.086 2.722c.176.44.045 1.101-.302 1.468a39 39 0 0 1-2.206 2.208c-.366.342-.81.257-.986-.183-.433-1.088-.652-1.633-1.086-2.722zm.622-.726a.2.2 0 0 0-.05.203c.433 1.088.652 1.633 1.086 2.722.024.062.086.073.14.025a39 39 0 0 0 2.207-2.208.22.22 0 0 0 .044-.208L71.8 43.033c-.024-.062-.084-.07-.134-.018a39 39 0 0 1-2.206 2.208zm4.672 1.12c-.074-.188-.019-.472.125-.636.415-.475.617-.715 1.016-1.205.137-.17.31-.156.384.034l.543 1.362c.075.188.026.48-.111.649-.4.49-.602.732-1.016 1.204-.144.164-.32.144-.395-.046l-.543-1.362zm.653-.254.273.68c.205-.24.306-.36.507-.602l-.273-.68c-.2.242-.302.364-.507.602m-6.12 5.033c-.166.134-.241.394-.164.584l.543 1.362c.075.188.27.233.436.098.48-.39.717-.59 1.183-.999.161-.142.23-.41.155-.596l-.543-1.363c-.074-.187-.266-.225-.428-.083a38 38 0 0 1-1.183 1zm.84 1.114-.273-.68c.237-.198.356-.298.591-.5.11.27.164.408.273.68-.235.202-.354.302-.592.5m-2.636-4.615c-.074-.187 0-.45.164-.584.319-.26.477-.393.791-.661.164-.14.356-.102.43.088.075.187.004.454-.157.594-.195.168-.294.25-.492.416l.226.567a.55.55 0 0 1-.164.587c-.166.134-.362.091-.436-.098-.146-.363-.219-.546-.362-.909m1.683.569c.163-.14.355-.102.43.088.145.363.218.546.36.908.076.188.005.455-.156.595-.315.267-.473.4-.792.66-.165.136-.362.093-.436-.097a.55.55 0 0 1 .164-.584c.2-.163.299-.246.496-.411-.09-.226-.135-.342-.226-.567a.56.56 0 0 1 .16-.592m4.418-6.965c-.142.166-.196.45-.12.638.145.363.217.546.36.908.075.188.252.208.394.042.141-.167.192-.454.118-.641-.091-.226-.135-.341-.227-.567.17-.203.254-.303.42-.508.136-.169.185-.458.11-.648-.074-.187-.246-.203-.383-.034-.267.327-.401.487-.672.807zm1.78 1.04c-.074-.187-.246-.203-.384-.033-.137.169-.19.456-.113.646l.226.567c-.168.202-.251.302-.423.502-.142.166-.195.451-.12.638.074.188.25.209.392.042.274-.32.408-.482.672-.807a.72.72 0 0 0 .112-.649c-.145-.363-.218-.545-.361-.908zm-5.833 1.595c-.157.147-.347.112-.422-.076-.145-.362-.218-.545-.36-.908-.075-.187-.009-.457.148-.604s.344-.114.419.074l.226.567c.187-.178.282-.27.467-.45.154-.15.338-.122.412.066a.61.61 0 0 1-.142.613c-.297.29-.447.435-.75.718zm.714-2.422c-.075-.187-.013-.465.138-.619.29-.297.436-.45.72-.755.148-.159.327-.136.401.054.146.363.219.545.362.908.075.188.017.47-.132.629-.148.159-.329.133-.403-.056l-.227-.568c-.18.19-.27.283-.451.47-.15.155-.336.127-.41-.06zm1.762 9.607c.074.188.264.223.421.076.304-.282.453-.428.75-.718a.61.61 0 0 0 .143-.613c-.075-.188-.26-.218-.413-.066-.185.182-.28.272-.466.45l-.226-.567c-.075-.188-.263-.22-.42-.074s-.223.417-.148.604l.361.908zm1.273-2.965c-.15.154-.213.431-.138.619.075.187.26.215.41.061.183-.185.274-.28.452-.47l.226.567c.075.188.256.213.404.056.148-.159.206-.439.131-.628l-.36-.908c-.076-.188-.254-.21-.403-.054-.284.305-.429.455-.72.755z" clip-rule="evenodd"/></g><defs><clipPath id="a"><path fill="#fff" d="M0 0h80v80H0z"/></clipPath><clipPath id="b"><rect width="66.667" height="66.667" x="6.667" y="6.667" fill="#fff" rx="33.333"/></clipPath></defs></svg>