<svg xmlns="http://www.w3.org/2000/svg" width="40" height="40" fill="none" class="persona-ilustration" viewBox="0 0 40 40"><g clip-path="url(#mWWtAOT2po_a)"><path fill="#3E68F5" d="M11.11 9.476H2.842l1.803 18.261v.016c0 1.087 2.896 1.967 6.465 1.967s6.263-.821 6.454-1.853h.007l1.819-18.39h-8.282"/><mask id="mWWtAOT2po_b" width="18" height="10" x="2" y="7" maskUnits="userSpaceOnUse" style="mask-type:alpha"><path fill="#EAEEFF" d="M2.358 9.476a.6.6 0 0 0 .011.112l.419 4.343c0 1.178 3.728 2.133 8.33 2.133 4.6 0 8.329-.955 8.329-2.133l.43-4.455h-.014c0-1.237-3.919-2.24-8.752-2.24S2.358 8.24 2.358 9.476"/></mask><g mask="url(#mWWtAOT2po_b)"><path fill="#EAEEFF" d="M2.358 9.476a.6.6 0 0 0 .011.112l.419 4.343c0 1.178 3.728 2.133 8.33 2.133 4.6 0 8.329-.955 8.329-2.133l.43-4.455h-.014c0-1.237-3.919-2.24-8.752-2.24S2.358 8.24 2.358 9.476"/><path fill="#A6B7FF" d="M12.695 13.5c.098-1.18-.6-1.982-.961-2.235l.202-2.263s2.026-1.412 5.343-1.208c.78.048 2.624.494 2.624.494v1.106l-.124 1.87c-.068.105-.225.23-.312-.107-.088-.338-.234-.14-.297 0 0 .451-.106 1.206-.53.608s-.561-.125-.577.186c.057.453.15 1.46.063 1.873-.088.411-.016 1.82-.136 1.701-.005-.223-.574.351-.786.15-.11-.105-.147-.777-.162-1.38a.45.45 0 0 1-.117.246c-.213.187-.36-.078-.406-.234.01-.816-.04-2.53-.327-2.854s-.451-.051-.498.126c.084.365.202 1.173 0 1.477s-.372.015-.432-.168c-.016-.312-.132-1.011-.469-1.31-.336-.298-.46-.084-.48.06.042.143.085.518-.085.874s-.38.148-.464 0a.78.78 0 0 0-.397-.56c-.294-.171-.322.412-.3.725.023.66.055 2.044 0 2.291-.054.248-.151.222-.193.178-.1-.058-.277-.468-.179-1.647"/><path fill="#A6B7FF" d="M14.204 13.694c.095-.363-.04-.597-.119-.669-.233-.086-.27.266-.259.453.086.223.283.579.378.216M18.581 12.441c.096-.363-.04-.597-.118-.669-.233-.086-.27.266-.26.453.087.223.283.579.378.216"/></g><mask id="mWWtAOT2po_c" width="18" height="5" x="2" y="7" maskUnits="userSpaceOnUse" style="mask-type:alpha"><path fill="#2C54DC" d="M11.11 11.29c-5.385 0-8.324-1.198-8.324-1.812s2.939-1.814 8.325-1.814 8.325 1.198 8.325 1.811c0 .614-2.94 1.812-8.325 1.812z"/></mask><g mask="url(#mWWtAOT2po_c)"><path fill="#2C54DC" d="M11.11 11.29c-5.385 0-8.324-1.198-8.324-1.812s2.939-1.814 8.325-1.814 8.325 1.198 8.325 1.811c0 .614-2.94 1.812-8.325 1.812z"/><path fill="#A6B7FF" d="M15.038 11.251v-3.64l4.862 1.12.403.686-1.372 1.461z" style="mix-blend-mode:multiply"/></g><path fill="#A6B7FF" d="M6.484 22.184c.011.056.034.23.034.23s-.223-.003-.239.222c-.027.364.182.41.182.41s-.148.477-.311.251c-.164-.225-.082-.886-.007-1.052.048-.103.127-.253.207-.255.048 0 .107.046.136.194zM17.955 11.86h.723v1.64h-.723c-.262 0-.473-.367-.473-.821 0-.455.211-.821.473-.821z"/><path fill="#3E68F5" d="M18.678 13.502c-.261 0-.473-.368-.473-.821s.212-.82.473-.82.473.367.473.82-.212.82-.473.82"/><path fill="#A6B7FF" d="M8.491 23.234q.741-.001 1.475-.1c1.885-.26 3.522-.983 4.495-1.983 1.71-1.764 5.126-8.052 5.27-8.318a.31.31 0 0 0-.008-.316.33.33 0 0 0-.274-.157h-.771a.32.32 0 1 0 0 .641h.227c-.843 1.523-3.524 6.277-4.908 7.705-1.248 1.286-4.224 2.323-7.395 1.725a9.8 9.8 0 0 1-2.455-.807.32.32 0 1 0-.278.577 10.7 10.7 0 0 0 4.622 1.035z"/><path fill="#A6B7FF" d="m3.837 21.172 2.51.818-.16.737.042.63-2.394-.878s-.186-.082-.186-.673c0-.59.186-.632.186-.632z"/><path fill="#E47D10" d="m18.613 27.13.477.1s3.946-2.37 4.599-2.284c1.414.184 3.453 2.15 5.255 4.12a.7.7 0 0 0 .872.129l2.487-1.48-.067-.874-2.158 1.257a.7.7 0 0 1-.852-.119c-1.086-1.122-4.234-4.228-5.456-3.82-1.489.496-5.157 2.972-5.157 2.972"/><path fill="#FF8D18" d="M19.397 17.917c-.01.134.04.273.153.372.874.763 2.714 2.512 3.048 3.977.051.226-.213.547-.65.905-1.466 1.203-4.882 2.838-4.882 2.838s-6.386 3.798-6.703 4.731.423 1.167.423 1.167 2.488-.659 4.018-1.805c1.532-1.145 3.81-2.971 3.81-2.971s3.667-2.476 5.156-2.972c1.222-.408 4.37 2.698 5.456 3.82a.7.7 0 0 0 .852.119l2.158-1.257-11.028-10.3-1.605 1.03a.45.45 0 0 0-.206.346"/><path fill="#E47D10" d="m19.397 17.917-.096.307a1.2 1.2 0 0 0 .311 1.22l.293.285c2.389 2.104 2.042 3.442 2.042 3.442.438-.358.702-.679.65-.905-.333-1.465-2.173-3.214-3.047-3.977a.45.45 0 0 1-.153-.373M15.16 30.512a7.3 7.3 0 0 1-1.371.792c-.844.371-2.134.927-2.235.904-.15-.034-.769-.3-.769-.3s2.807-.956 3.247-1.323c.231-.192 4.88-3.708 4.88-3.708l2.93-1.238z"/><path fill="#FEE283" d="M32.303 27.716s5.165-3.543 6.072-6.73c-4.524 4.84-6.139 5.855-6.139 5.855z"/><path fill="#FEEDB4" d="M21.208 16.541s3.5-1.66 5.85-5.529c1.086.89 3.484 2.996 5.794 5.045l1.447 1.285c2.235 1.99 4.076 3.643 4.076 3.643s-2.832 3.774-6.139 5.856z"/><path fill="#3E68F5" d="M34.209 25.893c-.102.243.307-.026.593-.196 2.308-1.999 3.389-3.82 3.573-4.712-3.3-2.92-7.689-7-11.317-9.972-1.735 2.723-3.026 3.553-4.095 4.442.242.102.722.452.641.949s.86.939 1.342 1.098c.36.156 1.144.603 1.39 1.139.307.67 1.397.93 1.546.848.119-.066.549.192.75.328.315.245.897.844.703 1.28s.778 1.123 1.289 1.412c.44.075 1.355.425 1.488 1.218.132.793 1.404 1.436 2.024 1.658a.48.48 0 0 1 .073.508" opacity=".75"/></g><defs><clipPath id="mWWtAOT2po_a"><path fill="#fff" d="M0 0h40v40H0z"/></clipPath></defs></svg>