<svg xmlns="http://www.w3.org/2000/svg" width="80" height="80" fill="none" class="persona-ilustration" viewBox="0 0 80 80"><g clip-path="url(#a)"><path fill="#8E8E8E" d="M23.481 47.578h1.55v4.1h-1.55z"/><path fill="#666" d="M24.257 55.063c.427 0 .772-.105.772-.235s-.345-.235-.772-.235-.773.105-.773.235.346.235.773.235"/><path fill="#666" fill-rule="evenodd" d="M25.027 51.19c-.033.122-.365.216-.77.216s-.738-.094-.77-.215h-.003v3.637h1.546v-3.637z" clip-rule="evenodd"/><path fill="#2E2E2E" d="M16.997 53.29a.705.705 0 1 0 0-1.41.705.705 0 0 0 0 1.41"/><path fill="#666" d="M17.854 52.55a.86.86 0 0 0-1.221-.777.85.85 0 0 0-.49.789c0 .106.383.192.854.192.472 0 .855-.086.855-.192q-.001-.006-.005-.011h.005z"/><path fill="#535353" d="M23.48 51.918v1.72l-6.975-1.671v-.65z"/><path fill="#8E8E8E" d="m23.484 51.782-6.87-.591-.11.126 6.98.625z"/><path fill="#2E2E2E" d="M27.487 51.92a.675.675 0 1 0 0-1.35.675.675 0 0 0 0 1.35"/><path fill="#666" d="M28.304 51.212a.825.825 0 0 0-1.17-.745.81.81 0 0 0-.468.755c0 .102.367.184.819.184s.819-.082.819-.184l-.005-.01z"/><path fill="#535353" d="m25.028 51.676 2.459-1.997v.71l-2.452 2.864z"/><path fill="#8E8E8E" d="M25.028 51.502 27.3 49.68h.187l-2.459 2z"/><path fill="#2E2E2E" d="M34.548 55.565a.732.732 0 1 0 0-1.464.732.732 0 0 0 0 1.464"/><path fill="#666" d="M35.437 54.796a.895.895 0 0 0-1.27-.809c-.318.14-.51.472-.509.82 0 .11.399.199.889.199s.888-.09.888-.2l-.005-.01z"/><path fill="#535353" d="m25.028 52.08 9.78 1.246v.743l-9.78-.155z"/><path fill="#8E8E8E" d="m25.03 51.962 9.651 1.26.127.105-9.778-1.251z"/><path fill="#2E2E2E" d="M27.303 61.366a.962.962 0 1 0 0-1.924.962.962 0 0 0 0 1.923"/><path fill="#666" d="M28.471 60.356c0-.801-.826-1.426-1.666-1.06-.419.182-.671.618-.668 1.076 0 .144.524.262 1.168.262.645 0 1.168-.118 1.168-.262q-.002-.008-.007-.014h.007z"/><path fill="#535353" d="M24.575 52.275v1.947l2.728 5.38v-1.02z"/><path fill="#8E8E8E" d="M24.575 52.275h.15l2.765 6.288v1.04h-.187v-1.02z"/><path fill="#2E2E2E" d="M15.148 59.398a.819.819 0 1 0 0-1.638.819.819 0 0 0 0 1.638"/><path fill="#666" d="M16.143 58.538c0-.684-.705-1.216-1.42-.905-.359.155-.572.527-.57.917 0 .123.445.223.995.223s.995-.1.995-.223c0-.003-.005-.009-.005-.012z"/><path fill="#8E8E8E" d="m14.897 57.965-.209-.162v-.807l8.796-4.935v.213l-8.587 4.793z"/><path fill="#535353" d="m23.484 52.274-8.587 4.793v.897l8.587-3.68z"/><path fill="#666" d="m27.3 42.944.453-6.836h1.956l-.653 6.836z"/><path fill="#535353" d="m23.19 36.108-.126-.408 11.133.602s-.128.322-.16.388c-.314.62-8.516.242-10.847-.582"/><path fill="#666" d="M26.399 35.038s5.1.258 6.772.568c.289.053 1.581.5.753.902-.715.35-8.581-.101-10.668-.65-.433-.113-.139-.755.922-.875 1.061-.122 2.22.053 2.22.053z"/><path fill="#FFC509" d="M11.098 24.765c3.753-.974 5.58-1.156 9.23-.697 0 0 1.213.421 1.43 1.331.218.91 3.126 10.347 3.256 11.952.13 1.604-.616 5.264-.312 6 .305.735-8.968 1.906-8.968 1.906-1.342-.477-1.082-1.602-1.212-5.241-.13-3.64-3.424-15.251-3.424-15.251"/><path fill="#FF9300" d="M15.418 46.23a1 1 0 0 1-.137-.011c-1.648-.253-1.591-2.94-1.524-6.05q.01-.364.014-.693c.024-1.47-1.95-8.944-3.284-13.609a.89.89 0 0 1 1.71-.49c.348 1.215 3.387 11.922 3.353 14.126-.003.22-.009.458-.014.703-.023 1.115-.078 3.663.233 4.314a.891.891 0 0 1-.352 1.708z"/><path fill="#FFB700" d="M26.196 40.593s-10.26 1.173-11.076 3.67c-.358 1.098 7.514 2.661 7.514 2.661l11.893-2.66c.416-.087.801-.477.926-.883.124-.406.012-.738-.926-1.272-1.877-1.066-8.329-1.516-8.329-1.516z"/><path fill="#FF9300" d="M14.423 45.719c-.46-.782.988-2.663 2.758-2.355s5.692 2.08 5.694 3.341c0 .452-1.647.452-1.647.452s-6.007-.083-6.805-1.438"/><path fill="#535353" d="m16.593 46.803.717-8.384h1.957l-.71 8.546c-.78.329-1.212.172-1.964-.162"/><path fill="#535353" d="m12.746 38.419-.127-.408 11.133.602s-.128.322-.16.388c-.313.62-8.516.242-10.846-.582"/><path fill="#666" d="M15.955 37.35s5.101.259 6.773.569c.288.053 1.58.5.753.903-.716.348-8.582-.102-10.668-.65-.433-.114-.139-.755.922-.876s2.22.053 2.22.053zm27.179-.106.343-5.181h1.483l-.495 5.18z"/><path fill="#535353" d="m40.02 32.063-.096-.31 8.436.457s-.097.244-.121.294c-.237.47-6.453.183-8.22-.441"/><path fill="#666" d="M42.451 31.252s3.866.196 5.133.43c.218.04 1.198.38.57.684-.542.265-6.503-.077-8.084-.492-.328-.086-.105-.572.699-.664s1.682.04 1.682.04z"/><path fill="#FFC509" d="M30.857 23.467c2.843-.738 4.495-.835 6.99-.458 0 0 .92.32 1.085 1.009.165.69 2.371 7.77 2.47 8.986.098 1.216-.467 3.99-.237 4.547s-6.795 1.445-6.795 1.445c-1.017-.362-.82-1.215-.919-3.972-.099-2.758-2.594-11.557-2.594-11.557"/><path fill="#FF9300" d="M34.13 39.732a1 1 0 0 1-.104-.008c-1.249-.191-1.206-2.227-1.155-4.584q.008-.277.011-.525c.018-1.114-1.478-6.778-2.489-10.313a.674.674 0 0 1 1.297-.37c.263.92 2.566 9.033 2.54 10.703l-.01.533c-.018.845-.06 2.775.176 3.27a.675.675 0 0 1-.267 1.293z"/><path fill="#FFB700" d="M42.3 35.46s-7.775.89-8.393 2.783c-.271.83 5.694 2.015 5.694 2.015l9.012-2.015c.316-.067.607-.362.702-.67.094-.307.009-.558-.702-.963-1.422-.808-6.312-1.15-6.312-1.15"/><path fill="#FF9300" d="M33.378 39.345c-.348-.592.749-2.018 2.09-1.785s4.313 1.577 4.315 2.532c0 .343-1.248.343-1.248.343s-4.553-.063-5.157-1.09"/><path fill="#535353" d="m35.019 40.167.543-6.353h1.482l-.537 6.476c-.591.25-.92.13-1.488-.123"/><path fill="#535353" d="m32.103 33.814-.096-.309 8.436.456s-.097.244-.121.294c-.238.47-6.454.184-8.22-.44"/><path fill="#666" d="M34.535 33.004s3.865.196 5.132.43c.219.041 1.198.38.57.685-.541.264-6.502-.077-8.083-.493-.328-.086-.106-.572.699-.663s1.682.04 1.682.04z"/><path fill="#8B532F" d="m13.591 38.91-.07 21.945 26.066 4.323V41.414z"/><path fill="#7A4727" d="M41.227 41.325V64.35l-1.921.857V41.791z"/><path fill="#8E8E8E" d="M55.538 50.859h1.568v4.148h-1.568z"/><path fill="#666" d="M56.322 58.43c.432 0 .782-.106.782-.237s-.35-.238-.782-.238c-.431 0-.781.107-.781.238s.35.238.781.238"/><path fill="#666" fill-rule="evenodd" d="M57.101 54.514c-.033.122-.37.217-.779.217s-.745-.095-.779-.217h-.002v3.679h1.563v-3.68z" clip-rule="evenodd"/><path fill="#2E2E2E" d="M48.978 56.637a.713.713 0 1 0 0-1.426.713.713 0 0 0 0 1.426"/><path fill="#666" d="M49.845 55.888a.87.87 0 0 0-1.235-.785.86.86 0 0 0-.495.797c0 .108.387.195.864.195s.864-.087.864-.195q-.001-.005-.005-.01h.005z"/><path fill="#535353" d="M55.537 55.25v1.74l-7.056-1.691v-.657z"/><path fill="#8E8E8E" d="m55.54 55.112-6.95-.598-.109.127 7.06.633z"/><path fill="#2E2E2E" d="M59.59 55.251a.682.682 0 1 0 0-1.365.682.682 0 0 0 0 1.365"/><path fill="#666" d="M60.416 54.535a.834.834 0 0 0-1.183-.753.82.82 0 0 0-.474.763c0 .103.371.186.829.186s.828-.083.828-.186q-.001-.005-.005-.01z"/><path fill="#535353" d="m57.102 55.004 2.487-2.02v.719l-2.48 2.897z"/><path fill="#8E8E8E" d="m57.103 54.829 2.297-1.845h.19l-2.488 2.023z"/><path fill="#2E2E2E" d="M66.732 58.938a.74.74 0 1 0 0-1.48.74.74 0 0 0 0 1.48"/><path fill="#666" d="M67.63 58.16a.906.906 0 0 0-1.283-.818c-.323.14-.517.478-.515.829 0 .111.403.202.898.202s.899-.09.899-.202l-.005-.011h.007"/><path fill="#535353" d="m57.102 55.413 9.893 1.261v.75l-9.893-.155z"/><path fill="#8E8E8E" d="m57.105 55.294 9.762 1.274.128.106-9.89-1.265z"/><path fill="#2E2E2E" d="M59.403 64.805a.972.972 0 1 0 0-1.945.972.972 0 0 0 0 1.945"/><path fill="#666" d="M60.585 63.784c0-.81-.836-1.442-1.685-1.071-.424.183-.68.624-.676 1.087 0 .146.53.265 1.182.265s1.18-.119 1.18-.265c0-.005-.005-.01-.006-.014h.007z"/><path fill="#535353" d="M56.645 55.61v1.97l2.759 5.442V61.99z"/><path fill="#8E8E8E" d="M56.645 55.61h.15l2.798 6.36v1.052h-.19V61.99z"/><path fill="#2E2E2E" d="M47.109 62.815a.828.828 0 1 0 0-1.657.828.828 0 0 0 0 1.657"/><path fill="#666" d="M48.116 61.945c0-.691-.713-1.23-1.437-.915-.362.157-.579.533-.577.928 0 .124.45.225 1.007.225s1.007-.101 1.007-.225c0-.004-.006-.01-.006-.013z"/><path fill="#8E8E8E" d="m46.855 61.366-.211-.164v-.816l8.896-4.992v.216l-8.685 4.848z"/><path fill="#535353" d="m55.541 55.61-8.685 4.848v.908l8.685-3.723z"/><path fill="#8E8E8E" d="M68.772 40.974h1.142v3.02h-1.142z"/><path fill="#666" d="M69.343 46.486c.314 0 .569-.078.569-.173 0-.096-.255-.174-.57-.174s-.568.078-.568.174.254.173.569.173"/><path fill="#666" fill-rule="evenodd" d="M69.91 43.634c-.024.089-.268.159-.567.159s-.543-.07-.567-.159h-.002v2.678h1.138v-2.678z" clip-rule="evenodd"/><path fill="#2E2E2E" d="M63.994 45.18a.52.52 0 1 0 0-1.038.52.52 0 0 0 0 1.038"/><path fill="#666" d="M64.626 44.635a.633.633 0 0 0-.9-.572.63.63 0 0 0-.36.581c0 .079.282.142.63.142.347 0 .629-.063.629-.142l-.004-.008z"/><path fill="#535353" d="M68.77 44.17v1.267l-5.136-1.23v-.48z"/><path fill="#8E8E8E" d="m68.773 44.07-5.06-.436-.08.093 5.14.46z"/><path fill="#2E2E2E" d="M71.721 44.172a.497.497 0 1 0 0-.994.497.497 0 0 0 0 .994"/><path fill="#666" d="M72.323 43.65a.607.607 0 0 0-.861-.548.6.6 0 0 0-.345.556c0 .075.27.135.603.135s.603-.06.603-.135l-.004-.008z"/><path fill="#535353" d="m69.91 43.992 1.811-1.47v.522l-1.806 2.11z"/><path fill="#8E8E8E" d="m69.911 43.864 1.673-1.343h.138l-1.81 1.473z"/><path fill="#2E2E2E" d="M76.92 46.855a.539.539 0 1 0 0-1.077.539.539 0 0 0 0 1.077"/><path fill="#666" d="M77.575 46.289a.66.66 0 0 0-.934-.595.65.65 0 0 0-.376.603c0 .081.294.147.655.147.36 0 .654-.066.654-.147l-.004-.008z"/><path fill="#535353" d="m69.91 44.29 7.203.917v.547l-7.203-.114z"/><path fill="#8E8E8E" d="m69.912 44.202 7.108.928.093.077-7.2-.921z"/><path fill="#2E2E2E" d="M71.588 51.127a.708.708 0 1 0 0-1.416.708.708 0 0 0 0 1.416"/><path fill="#666" d="M72.449 50.384a.864.864 0 0 0-1.228-.78.85.85 0 0 0-.491.791c0 .106.385.193.86.193.474 0 .86-.087.86-.193l-.005-.01z"/><path fill="#535353" d="M69.579 44.432v1.435l2.008 3.962v-.751z"/><path fill="#8E8E8E" d="M69.579 44.432h.11l2.036 4.631v.766h-.138v-.751z"/><path fill="#2E2E2E" d="M62.635 49.678a.603.603 0 1 0 0-1.206.603.603 0 0 0 0 1.206"/><path fill="#666" d="M63.367 49.045a.738.738 0 0 0-1.046-.666.73.73 0 0 0-.42.675c0 .09.328.164.733.164s.733-.074.733-.164l-.004-.01z"/><path fill="#8E8E8E" d="m62.45 48.623-.154-.12v-.594l6.477-3.634v.157l-6.323 3.53z"/><path fill="#535353" d="m68.774 44.432-6.323 3.53v.66l6.323-2.71z"/><path fill="#8B532F" d="m56.868 30.81.03 8.546 14.37 1.167v-8.496z"/><path fill="#7A4727" d="M71.928 31.726v8.21l-.66.587v-8.497z"/><path fill="#FFB700" d="M68.321 35.925s-6.212 1.611-6.83 3.503c-.27.83 6.83 1.863 6.83 1.863l6.658-3.734c.315-.066.607-.361.701-.669.094-.307.01-.558-.701-.963-1.422-.808-4.32-.316-4.32-.316z"/><path fill="#FF9300" d="M61.353 39.839c-.348-.592 1.938-1.757 7.64-.547 1.341.233 1.521 1.563.956 2.021 0 .343-1.69.253-1.69.253s-6.301-.701-6.906-1.727"/><path fill="#535353" d="m66.08 41.345.77-6.326-1.45-.304-.8 6.445c.527.366.872.316 1.48.185"/><path fill="#535353" d="m70.233 35.727.157-.283-8.347-1.28s.045.258.059.312c.136.508 6.275 1.5 8.13 1.25"/><path fill="#666" d="M68.02 34.437s-3.822-.6-5.11-.63c-.222-.004-1.25.126-.698.553.476.37 6.378 1.256 8.01 1.173.338-.017.22-.538-.548-.792s-1.654-.305-1.654-.305z"/><path fill="#FFB700" d="M54.92 43.925s-8.533 2.212-9.382 4.811c-.372 1.141 9.382 2.559 9.382 2.559l9.144-5.129c.434-.09.834-.496.963-.918.13-.423.013-.767-.963-1.323-1.952-1.11-5.935-.434-5.935-.434z"/><path fill="#FF9300" d="M45.348 49.3c-.478-.813 2.66-2.413 10.494-.75 1.841.32 2.088 2.147 1.312 2.776 0 .47-2.321.347-2.321.347s-8.656-.963-9.485-2.373"/><path fill="#535353" d="m51.84 51.37 1.057-8.69-1.993-.417-1.099 8.853c.725.502 1.199.434 2.035.254"/><path fill="#535353" d="m57.545 43.652.215-.388-11.465-1.76s.062.356.081.43c.187.698 8.62 2.061 11.169 1.718"/><path fill="#666" d="M54.504 41.88s-5.249-.823-7.017-.864c-.305-.007-1.717.173-.96.759.655.508 8.76 1.725 11.002 1.611.465-.024.302-.739-.752-1.088s-2.273-.419-2.273-.419z"/><path fill="#DDAC8E" d="m73.973 28.18-23.934-1.201L3.305 38.286l45.284 4.428z"/><path fill="#7A4727" d="M74.024 28.13v1.815L48.565 44.918v-2.203z"/><path fill="#7A4727" d="M3.236 38.214v1.914l45.33 4.775V42.7z"/><path fill="#FFC509" d="M78.497 23.286c-.329-.386-2.808.175-5.86.96 0 0-1.117.343-1.282 1.083-.164.74-1.36 6.173-1.459 7.478s.175 7.944-.056 8.543c.416.501 5.733-4.164 5.733-4.164 1.735-1.513 1.415-1.21 1.514-4.17.142-4.286 1.012-6.313 1.64-8.77.15-.585-.23-.96-.23-.96"/><mask id="b" width="5" height="18" x="68" y="24" maskUnits="userSpaceOnUse" style="mask-type:alpha"><path fill="#fff" d="M69.362 41.568a1 1 0 0 0 .115-.014c1.375-.256 1.237-2.338 1.076-4.748l-.035-.537c-.07-1.14 1.337-7.01 2.3-10.678.097-.372-.15-.744-.55-.831-.402-.088-.805.142-.903.513-.25.955-2.442 9.372-2.34 11.081q.016.258.036.545c.057.864.189 2.839-.05 3.355-.3.135-.477.443-.411.759.071.338.4.569.763.553z"/></mask><g mask="url(#b)"><path fill="#FF9300" d="M69.362 41.568a1 1 0 0 0 .115-.014c1.376-.256 1.237-2.338 1.076-4.748l-.035-.537c-.07-1.14 1.337-7.01 2.3-10.678.098-.372-.149-.744-.55-.831-.402-.088-.805.142-.903.513-.25.955-2.442 9.372-2.34 11.081l.036.545c.057.864.189 2.839-.05 3.355-.3.135-.477.443-.411.759.072.338.4.569.764.553z"/><path fill="#535353" d="m70.233 35.727.157-.282-8.347-1.281s.045.258.058.312c.137.508 6.276 1.5 8.132 1.251"/><path fill="#666" d="M68.02 34.438s-3.822-.6-5.11-.63c-.222-.005-1.25.126-.698.552.476.37 6.378 1.256 8.01 1.174.338-.018.22-.538-.548-.793-.768-.254-1.654-.305-1.654-.305z"/></g><path fill="#FFC509" d="M68.897 26.564c-.452-.53-3.857.24-8.05 1.318 0 0-1.401.368-1.627 1.385s-2.002 8.582-2.137 10.375.24 10.912-.077 11.734c.572.688 7.875-5.719 7.875-5.719 2.383-2.078 1.944-1.661 2.079-5.728.196-5.888 1.39-8.672 2.254-12.047.205-.803-.317-1.318-.317-1.318"/><mask id="c" width="7" height="24" x="55" y="28" maskUnits="userSpaceOnUse" style="mask-type:alpha"><path fill="#fff" d="M56.348 51.675q.078-.003.157-.018c1.89-.352 1.7-3.212 1.478-6.523-.017-.257-.034-.506-.048-.737-.094-1.566 1.837-9.629 3.16-14.666.134-.512-.205-1.022-.755-1.142-.553-.12-1.107.196-1.24.705-.345 1.312-3.355 12.873-3.215 15.22l.05.749c.078 1.187.259 3.899-.07 4.609-.412.185-.655.608-.564 1.04.098.466.55.783 1.049.761z"/></mask><g mask="url(#c)"><path fill="#FF9300" d="M56.348 51.675q.077-.003.157-.018c1.89-.352 1.7-3.212 1.478-6.523-.017-.257-.034-.506-.048-.737-.095-1.566 1.837-9.629 3.16-14.666.133-.512-.205-1.022-.756-1.142-.552-.12-1.106.196-1.24.705-.344 1.312-3.354 12.873-3.214 15.22l.05.749c.077 1.187.259 3.899-.07 4.609-.412.185-.655.608-.564 1.04.098.466.55.783 1.049.761z"/><path fill="#535353" d="m57.545 43.653.216-.389-11.465-1.76s.062.356.08.43c.188.698 8.62 2.062 11.17 1.719"/><path fill="#666" d="M54.505 41.882s-5.25-.824-7.018-.865c-.305-.007-1.717.172-.96.758.655.508 8.76 1.726 11.002 1.612.465-.024.303-.739-.752-1.088s-2.272-.42-2.272-.42z"/></g></g><defs><clipPath id="a"><path fill="#fff" d="M0 0h80v80H0z"/></clipPath></defs></svg>