<svg xmlns="http://www.w3.org/2000/svg" width="40" height="40" fill="none" class="persona-ilustration" viewBox="0 0 40 40"><g clip-path="url(#a)"><g clip-path="url(#b)"><mask id="c" width="34" height="34" x="3" y="3" maskUnits="userSpaceOnUse" style="mask-type:alpha"><path fill="#D9D9D9" d="M36.668 20c0 9.205-7.463 16.667-16.668 16.667S3.333 29.205 3.333 20 10.795 3.333 20 3.333 36.667 10.795 36.667 20"/></mask><g mask="url(#c)"><path fill="#D3EDFF" d="M36.668 20c0 9.205-7.463 16.667-16.668 16.667S3.333 29.205 3.333 20 10.795 3.333 20 3.333 36.667 10.795 36.667 20"/><mask id="d" width="42" height="14" x="-1" y="27" maskUnits="userSpaceOnUse" style="mask-type:alpha"><path fill="#5BA57C" d="M20 27.028c5.14 0 11.285.642 12.64.96 1.354.318 3.024 1.03 4.288 2.862s3.236 6.996 4.063 9.35H-.992c.828-2.354 2.8-7.518 4.063-9.35 1.264-1.832 2.934-2.544 4.289-2.862s7.499-.96 12.64-.96"/></mask><g mask="url(#d)"><path fill="#8FC7B8" d="M20 27.028c5.141 0 11.286.642 12.64.96s3.025 1.03 4.289 2.862 3.235 6.996 4.063 9.35H-.991c.827-2.354 2.799-7.518 4.063-9.35s2.934-2.544 4.288-2.862 7.5-.96 12.64-.96"/><path fill="#498F79" d="M27.408 28.057c0 3.524-3.225 6.38-7.203 6.38s-7.203-2.856-7.203-6.38 3.225-6.38 7.203-6.38 7.203 2.857 7.203 6.38"/><path fill="#3D7360" fill-rule="evenodd" d="M20.228 22.192c-3.356 0-6.058 2.451-6.058 5.454s2.702 5.453 6.058 5.453 6.057-2.451 6.057-5.453-2.701-5.454-6.057-5.454m-6.264 5.454c0-3.136 2.815-5.66 6.264-5.66s6.263 2.524 6.263 5.66c0 3.135-2.814 5.66-6.263 5.66-3.45 0-6.264-2.525-6.264-5.66" clip-rule="evenodd"/><path fill="#F29B7C" d="M14.98 27.646c0 2.614 2.35 4.733 5.248 4.733s5.248-2.119 5.248-4.733-2.35-4.733-5.248-4.733-5.248 2.119-5.248 4.733"/></g><path fill="#F29B7C" d="M16.295 27.234c0 1.932 1.751 3.499 3.91 3.499s3.91-1.567 3.91-3.499-1.75-3.499-3.91-3.499c-2.159 0-3.91 1.567-3.91 3.5"/><path fill="#F29B7C" d="M24.116 13.446V27.44h-7.82V13.446z"/><mask id="e" width="6" height="5" x="27" y="28" maskUnits="userSpaceOnUse" style="mask-type:alpha"><path fill="#F29B7C" d="M28.941 30.24c.97.472 1.98 1.65 2.294 2.274l.918-1.98c-.424-.367-1.613-1.06-2.429-1.633a1.89 1.89 0 0 0-2.569.295c-.454.573.573.455 1.786 1.044"/></mask><g mask="url(#e)"><path fill="#F29B7C" d="M28.941 30.24c.97.472 1.98 1.65 2.294 2.274l.918-1.98c-.424-.367-1.613-1.06-2.429-1.633a1.89 1.89 0 0 0-2.569.295c-.454.573.573.455 1.786 1.044"/><path fill="#E38969" d="M28.51 29.448c-.468.14-.917-.229-1.038-.5.959-.91 2.777-.544 2.322-.467-.454.077-.699.793-1.284.967"/></g><path fill="#3F568E" d="M21.903 31.248c-.997-.828-.918-2.397-.91-3.335 2.498-1.7 6.588-.77 6.854 0s-.443 2.857-.842 3.335c-.621.448-2.9 1.314-5.102 0m-4.241 0c.997-.828.918-2.397.909-3.335-2.497-1.7-6.588-.77-6.853 0-.266.77.443 2.857.841 3.335.622.448 2.9 1.314 5.103 0"/><path fill="#30457A" fill-rule="evenodd" d="M25.065 26.604c1.387.14 2.601.618 3.308 1.024a.345.345 0 1 1-.344.598c-.63-.363-1.752-.807-3.033-.936-1.278-.129-2.689.058-3.934.92a.345.345 0 0 1-.393-.567c1.417-.981 3.006-1.18 4.396-1.039m-10.565 0c-1.387.14-2.602.618-3.309 1.024a.345.345 0 1 0 .344.598c.63-.363 1.752-.807 3.033-.936 1.278-.129 2.689.058 3.934.92a.345.345 0 0 0 .393-.567c-1.417-.981-3.005-1.18-4.396-1.039" clip-rule="evenodd"/><path fill="#30457A" fill-rule="evenodd" d="M20.017 27.31a2.7 2.7 0 0 1 1.021.318.345.345 0 0 1-.344.598 2 2 0 0 0-.746-.23c-.316-.031-.645.017-.93.214a.345.345 0 1 1-.393-.567c.456-.316.963-.376 1.392-.332" clip-rule="evenodd"/><mask id="f" width="10" height="9" x="29" y="25" maskUnits="userSpaceOnUse" style="mask-type:alpha"><path fill="#F29B7C" d="M38.119 32.289c-.218.884-1.764 1.204-2.961 1.383-.995.107-4.42-.931-5.55-2.957l2.166-.24-2.165-2.63c1.103-.642 3.477-1.977 4.14-2.196s1.073-.762 1.765-.437c1.167.548 2.145 1.1 2.605 1.79.46 2.299.154 4.661 0 5.287"/></mask><g mask="url(#f)"><path fill="#F29B7C" d="M39.023 32.03c-.218.883-2.667 1.463-3.865 1.643-.995.106-2.722-1.163-3.462-1.812l.408-2.071-2.495-1.946c1.104-.64 3.477-1.976 4.14-2.195s1.073-.762 1.766-.437c1.167.549 1.641.993 2.144 1.79 1.22 1.933 1.519 4.402 1.364 5.027"/><path fill="#F29B7C" d="M38.12 32.289c-.22.884-1.764 1.204-2.962 1.384-.995.106-4.42-.932-5.55-2.958l2.166-.24-2.165-2.63c1.104-.642 3.477-1.977 4.14-2.196.662-.218 1.073-.762 1.766-.437 1.167.549 2.144 1.1 2.604 1.79.46 2.299.154 4.661 0 5.287"/><path fill="#FFC7B6" d="M33.941 32.852c-.655 0-2.074-.118-2.86-.23l-.147.397 3.592 1.859 2.151-5.305c-.613 1.024-1.629 3.279-2.736 3.279"/><path fill="#E38969" d="M31.524 28.717c-.307.359-1.013.64-1.328.736l-2.063-.352 1.823-4.255 4.831-.256.144 1.6c-.32.981-1.033 2.345-1.456 3.087-.193.34-.473.426-.756.392-.577-.069-.77-.765-.61-1.324l.135-.475c-.112.133-.413.49-.72.847"/><path fill="#FFC7B6" d="M34.67 26.543c-.689.23-.306.23-.689.23l1.609-2.3 6.433 6.433c-1.749 1.749-7.107 3.958-7.582 2.992 2.342-3.843 1.836-4.489 1.836-5.98.232-.7-.832-.911-1.607-1.375"/></g><mask id="g" width="7" height="3" x="25" y="25" maskUnits="userSpaceOnUse" style="mask-type:alpha"><path fill="#FFC7B6" d="m31.367 26.245.36.719s-2.97.666-5.645-.164c-.233-.251-.446-.455-.233-.839.17-.308 2.514-.009 4.082-.302.543-.102 1.189.091 1.436.586"/></mask><g mask="url(#g)"><path fill="#FFC7B6" d="m31.367 26.245.36.72s-2.97.665-5.645-.165c-.233-.25-.446-.455-.233-.839.17-.308 2.514-.009 4.082-.302.543-.102 1.189.092 1.436.586"/><path fill="#F29B7C" d="m30.979 26.472 1.19 1.701-6.008-.254c-.232-.01-.688-.439-.287-1.163.958.044 2.223.43 3.56-.467.496-.333 1.203-.307 1.545.183"/></g><mask id="h" width="6" height="5" x="27" y="25" maskUnits="userSpaceOnUse" style="mask-type:alpha"><path fill="#FFC7B6" d="m31.14 25.08 1.43.13-4.253 4.252c-.163.163-.853.43-1.114-.356-.24-.721 2.097-2.852 3.283-3.828a.9.9 0 0 1 .653-.198"/></mask><g mask="url(#h)"><path fill="#FFC7B6" d="m31.14 25.08 1.431.13-4.253 4.252c-.164.163-.853.43-1.115-.356-.24-.721 2.098-2.852 3.283-3.828a.9.9 0 0 1 .654-.198"/><path fill="#F29B7C" d="m31.693 25.725 1.53.046-3.985 4.503c-.154.173-1.411.493-1.134-.287.21-.591 1.91-3.2 3.088-4.113a.77.77 0 0 1 .5-.149"/></g><mask id="i" width="6" height="6" x="29" y="24" maskUnits="userSpaceOnUse" style="mask-type:alpha"><path fill="#FFC7B6" d="M32.244 25.21c1.036-.817 1.316.045 1.962.328-1.145.818-3.926 3.597-3.926 3.597-.164.163-.556.294-.818-.49-.261-.786 1.746-2.617 2.782-3.434"/></mask><g mask="url(#i)"><path fill="#FFC7B6" d="M32.243 25.211c1.036-.817 1.316.045 1.963.328-1.145.817-3.927 3.596-3.927 3.596-.163.164-.556.295-.817-.49-.262-.785 1.745-2.617 2.781-3.434"/><path fill="#F29B7C" d="M32.917 26.293c1.036-.817 1.316.045 1.962.328-1.145.817-3.926 3.597-3.926 3.597-.164.163-.556.294-.818-.491s1.745-2.617 2.781-3.434"/></g><path fill="#FFC7B6" d="M32.079 28.972c-.523-.523.764-2.725 1.473-3.76.916-.393 1.69-.164 1.963 0l-1.964 3.27c-.273.382-.949 1.014-1.472.49"/></g></g><path fill="#FFC7B6" d="M27.636 13.634s1.935-2.26 2.2-.064c.265 2.199-.777 6.228-1.642 5.376s-.897-1.977-.897-1.977z"/><path fill="#F29B7C" fill-rule="evenodd" d="M28.433 17.469c-.082-.136-.176-.402-.264-.859a.231.231 0 1 0-.453.088c.09.468.196.801.322 1.01a.64.64 0 0 0 .253.253c.122.06.25.053.362 0a.7.7 0 0 0 .24-.216c.062-.086.117-.19.167-.302.1-.225.185-.509.25-.813.132-.605.195-1.33.125-1.898-.035-.281-.105-.551-.237-.75a.7.7 0 0 0-.273-.248.63.63 0 0 0-.384-.055.231.231 0 1 0 .07.456q.073-.009.109.013c.027.013.06.04.094.092.073.109.13.294.162.548.062.503.007 1.173-.117 1.744a4 4 0 0 1-.222.724 1.2 1.2 0 0 1-.119.218.4.4 0 0 1-.044.052.4.4 0 0 1-.04-.057" clip-rule="evenodd"/><path fill="#A36654" fill-rule="evenodd" d="m27.758 15.6.205.023zc-.01.14.074.263.187.275s.213-.09.223-.229v-.005a1 1 0 0 1 .016-.11 1.3 1.3 0 0 1 .074-.26.5.5 0 0 1 .138-.204.28.28 0 0 1 .232-.053c.113.018.216-.08.23-.219s-.065-.266-.178-.284a.63.63 0 0 0-.51.131 1 1 0 0 0-.279.397 1.9 1.9 0 0 0-.132.544v.011l-.001.004z" clip-rule="evenodd"/><path fill="#A36654" fill-rule="evenodd" d="m27.886 15.423.128.204zc-.103.065-.13.21-.058.322.07.112.212.15.315.086l.002-.002.017-.01a.9.9 0 0 1 .274-.09.3.3 0 0 1 .182.028c.04.023.097.073.145.203.046.124.178.193.295.155s.172-.17.126-.294a.87.87 0 0 0-.376-.474.75.75 0 0 0-.453-.086 1.1 1.1 0 0 0-.457.154l-.008.005-.003.002z" clip-rule="evenodd"/><path fill="#FFC7B6" d="M12.765 13.68s-1.936-2.26-2.2-.064c-.266 2.198.776 6.227 1.641 5.375.866-.851.897-1.977.897-1.977z"/><path fill="#F29B7C" fill-rule="evenodd" d="M11.967 17.514c.082-.136.176-.402.264-.859a.231.231 0 1 1 .453.088c-.09.468-.196.801-.322 1.01a.64.64 0 0 1-.254.253.4.4 0 0 1-.36 0 .7.7 0 0 1-.24-.216 1.7 1.7 0 0 1-.168-.302 4.4 4.4 0 0 1-.25-.813c-.132-.605-.195-1.33-.125-1.898.035-.282.105-.551.237-.75a.7.7 0 0 1 .273-.248.63.63 0 0 1 .383-.055.231.231 0 1 1-.07.456.17.17 0 0 0-.108.013.26.26 0 0 0-.094.091c-.073.11-.131.295-.162.55-.062.502-.007 1.172.117 1.743.062.285.139.536.221.724q.063.14.12.217a.4.4 0 0 0 .044.053.4.4 0 0 0 .04-.057" clip-rule="evenodd"/><path fill="#A36654" fill-rule="evenodd" d="m12.643 15.645-.205.023zc.01.14-.074.263-.187.276-.114.012-.213-.09-.223-.23v-.005l-.003-.022-.014-.089a1.3 1.3 0 0 0-.073-.259.5.5 0 0 0-.139-.204.28.28 0 0 0-.231-.053c-.113.018-.216-.08-.23-.219-.015-.138.065-.266.177-.284a.63.63 0 0 1 .51.132 1 1 0 0 1 .28.396 1.9 1.9 0 0 1 .132.544v.015z" clip-rule="evenodd"/><path fill="#A36654" fill-rule="evenodd" d="m12.515 15.468-.128.204zc.103.065.13.21.058.322-.07.112-.212.15-.315.086l-.003-.002a1 1 0 0 0-.083-.042.7.7 0 0 0-.207-.058.3.3 0 0 0-.182.028c-.04.023-.097.073-.145.203-.047.124-.178.193-.295.155s-.172-.17-.126-.294a.87.87 0 0 1 .376-.474.75.75 0 0 1 .453-.086 1.1 1.1 0 0 1 .456.154l.009.005.003.002z" clip-rule="evenodd"/><path fill="#FFC7B6" d="M20.2 4.268c3.24 0 6.604 1.385 7.45 5.485.656 2.399.093 9.94-.563 11.654-.994 2.596-5.267 4.798-6.887 4.798V26.2v.005c-1.62 0-5.893-2.202-6.887-4.798-.656-1.714-1.22-9.255-.564-11.654.848-4.1 4.212-5.485 7.451-5.485v.009z"/><path fill="#411917" d="M16.731 14.542c.362.006.662-.38.67-.863.01-.483-.276-.88-.638-.887-.361-.006-.662.38-.67.863-.01.483.276.88.638.887"/><path fill="#411917" fill-rule="evenodd" d="m18.677 13.474-.213.088za.23.23 0 0 1-.425.178l-.001-.003-.015-.026a1 1 0 0 0-.08-.108 1.14 1.14 0 0 0-.439-.294c-.446-.177-1.278-.257-2.752.3a.23.23 0 1 1-.163-.43c1.535-.58 2.494-.533 3.085-.297.296.117.49.278.613.415a1.2 1.2 0 0 1 .172.255l.003.006z" clip-rule="evenodd"/><path fill="#411917" d="M23.495 14.542c-.361.006-.662-.38-.67-.863-.01-.483.276-.88.638-.887.362-.006.662.38.67.863.01.483-.276.88-.638.887"/><path fill="#411917" fill-rule="evenodd" d="m21.55 13.474.212.088za.23.23 0 0 0 .425.178l.002-.003.014-.026a1 1 0 0 1 .08-.108 1.14 1.14 0 0 1 .439-.294c.446-.177 1.278-.257 2.753.3a.23.23 0 1 0 .163-.43c-1.536-.58-2.494-.533-3.086-.297-.295.117-.49.278-.612.415a1.2 1.2 0 0 0-.173.255l-.003.006v.003z" clip-rule="evenodd"/><path fill="#422A24" d="M14.448 11.77s1.388-.578 2.442-.384c.73.133 1.633.743 1.633.743s.264.049 0-.656c-.265-.704-1.953-.734-1.953-.734s-.999 0-1.89.467c-.37.196-.467.578-.467.578s.016.157.235-.016zm11.33 0s-1.388-.577-2.443-.384c-.73.134-1.632.744-1.632.744s-.265.048 0-.657c.265-.704 1.952-.734 1.952-.734s1 0 1.89.467c.371.196.468.578.468.578s-.016.157-.235-.016z"/><path fill="#F29B7C" d="M21.286 18.793c0 .177-.576.321-1.286.321s-1.286-.144-1.286-.321.576-.322 1.286-.322 1.286.144 1.286.322"/><path fill="#411917" fill-rule="evenodd" d="M20 15.022c.127 0 .231.104.231.231v3.218a.232.232 0 0 1-.463 0v-3.218c0-.127.104-.231.232-.231m-2.12 5.881a.23.23 0 0 1 .319-.064c.898.597 1.794.597 2.474.445a4 4 0 0 0 1.054-.405l.058-.034.013-.009.003-.002m0 0a.23.23 0 0 1 .255.383l-.12-.181.12.181v.001l-.003.001-.005.004-.02.012-.07.043q-.093.054-.262.137c-.223.106-.54.233-.923.318-.766.171-1.8.174-2.83-.51a.23.23 0 0 1-.064-.32" clip-rule="evenodd"/><path fill="#422A24" d="M27.315 11.538q-.003.046-.004.095v2.94s.394.108.546-.197c.051-.103.04-.297.03-.493-.012-.205-.024-.411.037-.515.6-.712 1.242-.75 1.242-.75.397-3.617-.892-10.25-8.966-10.285h-.063c-8.074.035-9.367 6.706-8.97 10.323 0 0 .646 0 1.247.712.06.104.048.31.037.515-.011.196-.022.39.03.493.152.305.545.198.545.198v-2.94q0-.05-.004-.096c-.01-.162-.018-.294.28-.344a.394.394 0 0 0 .337-.343c.053-.574.25-1.04.55-1.42l.163-.126c.82-.637 1.913-1.486 5.817-1.531 3.904.045 4.997.894 5.816 1.53l.163.126c.3.38.497.847.55 1.421a.395.395 0 0 0 .337.343c.298.05.29.182.28.344"/></g><defs><clipPath id="a"><path fill="#fff" d="M0 0h40v40H0z"/></clipPath><clipPath id="b"><path fill="#fff" d="M3.333 3.333h33.335v33.335H3.333z"/></clipPath></defs></svg>