<svg xmlns="http://www.w3.org/2000/svg" width="40" height="40" fill="none" class="persona-ilustration" viewBox="0 0 40 40"><g clip-path="url(#a)"><path fill="#8E8E8E" d="M11.741 23.789h.775v2.05h-.775z"/><path fill="#666" d="M12.128 27.531c.214 0 .387-.052.387-.117s-.173-.118-.387-.118c-.213 0-.386.053-.386.118s.173.117.386.117"/><path fill="#666" fill-rule="evenodd" d="M12.514 25.595c-.017.06-.183.108-.385.108-.203 0-.37-.047-.386-.108v1.819h.772z" clip-rule="evenodd"/><path fill="#2E2E2E" d="M8.498 26.645a.353.353 0 1 0 0-.705.353.353 0 0 0 0 .705"/><path fill="#666" d="M8.927 26.275a.43.43 0 0 0-.61-.389.42.42 0 0 0-.246.395c0 .053.192.096.428.096s.427-.043.427-.096l-.003-.006z"/><path fill="#535353" d="M11.74 25.959v.86l-3.488-.836v-.325z"/><path fill="#8E8E8E" d="m11.742 25.89-3.435-.295-.055.064 3.49.312z"/><path fill="#2E2E2E" d="M13.744 25.96a.337.337 0 1 0 0-.675.337.337 0 0 0 0 .675"/><path fill="#666" d="M14.152 25.606c0-.282-.29-.5-.585-.372a.41.41 0 0 0-.234.377c0 .05.183.092.41.092s.409-.041.409-.092q0-.002-.003-.005z"/><path fill="#535353" d="m12.514 25.838 1.23-.998v.355l-1.227 1.432z"/><path fill="#8E8E8E" d="m12.514 25.751 1.136-.912h.093l-1.229 1z"/><path fill="#2E2E2E" d="M17.274 27.782a.366.366 0 1 0 0-.731.366.366 0 0 0 0 .731"/><path fill="#666" d="M17.718 27.398a.448.448 0 0 0-.634-.404.44.44 0 0 0-.255.41c0 .054.2.099.444.099.245 0 .445-.045.445-.1q0-.002-.003-.005z"/><path fill="#535353" d="m12.514 26.04 4.89.623v.371l-4.89-.077z"/><path fill="#8E8E8E" d="m12.515 25.98 4.826.63.063.053-4.889-.625z"/><path fill="#2E2E2E" d="M13.651 30.683a.48.48 0 1 0 0-.962.48.48 0 0 0 0 .962"/><path fill="#666" d="M14.236 30.178c0-.4-.413-.713-.834-.53a.58.58 0 0 0-.333.538c0 .072.261.13.583.13.323 0 .585-.058.585-.13q-.001-.005-.004-.007z"/><path fill="#535353" d="M12.288 26.137v.974l1.363 2.69v-.51z"/><path fill="#8E8E8E" d="M12.288 26.137h.074l1.383 3.144v.52h-.094v-.51z"/><path fill="#2E2E2E" d="M7.574 29.699a.41.41 0 1 0 0-.82.41.41 0 0 0 0 .82"/><path fill="#666" d="M8.072 29.269a.5.5 0 0 0-.71-.452.49.49 0 0 0-.286.458c0 .062.223.111.498.111s.498-.05.498-.11l-.003-.007z"/><path fill="#8E8E8E" d="m7.448 28.982-.104-.08v-.404l4.398-2.468v.107l-4.294 2.397z"/><path fill="#535353" d="M11.742 26.137 7.45 28.534v.448l4.293-1.84z"/><path fill="#666" d="m13.65 21.472.226-3.418h.979l-.327 3.418z"/><path fill="#535353" d="m11.595 18.054-.063-.204 5.566.301s-.064.161-.08.194c-.156.31-4.257.121-5.423-.291"/><path fill="#666" d="M13.2 17.519s2.55.129 3.386.284c.144.026.79.25.376.451-.358.175-4.29-.05-5.334-.325-.216-.057-.07-.377.461-.438.53-.06 1.11.027 1.11.027"/><path fill="#FFC509" d="M5.55 12.382c1.875-.486 2.789-.577 4.614-.348 0 0 .607.21.715.665.109.455 1.563 5.174 1.628 5.976s-.308 2.633-.156 3c.152.368-4.484.954-4.484.954-.671-.239-.541-.802-.606-2.621-.065-1.82-1.712-7.626-1.712-7.626"/><path fill="#FF9300" d="m7.71 23.115-.07-.006c-.824-.126-.795-1.47-.761-3.025l.007-.346c.011-.735-.976-4.472-1.643-6.805a.445.445 0 0 1 .856-.244c.173.607 1.693 5.96 1.676 7.062l-.007.352c-.012.557-.04 1.831.117 2.157a.446.446 0 0 1-.177.854z"/><path fill="#FFB700" d="M13.098 20.297s-5.13.586-5.538 1.835c-.179.548 3.757 1.33 3.757 1.33l5.946-1.33c.209-.044.401-.239.463-.442.063-.203.007-.368-.463-.635-.938-.534-4.164-.758-4.164-.758"/><path fill="#FF9300" d="M7.212 22.86c-.23-.391.494-1.332 1.378-1.178.885.154 2.847 1.04 2.848 1.67 0 .227-.824.227-.824.227s-3.004-.042-3.402-.72"/><path fill="#535353" d="m8.297 23.401.358-4.191h.978l-.354 4.272c-.39.165-.607.087-.982-.08"/><path fill="#535353" d="m6.373 19.21-.063-.204 5.566.3s-.064.162-.08.194c-.157.31-4.258.122-5.423-.29"/><path fill="#666" d="M7.978 18.675s2.55.13 3.386.284c.144.027.79.25.377.452-.358.174-4.291-.051-5.335-.325-.216-.057-.069-.378.462-.438a5 5 0 0 1 1.11.027m13.589-.053.171-2.59h.742l-.248 2.59z"/><path fill="#535353" d="m20.01 16.031-.048-.154 4.218.228s-.048.122-.06.147c-.12.235-3.227.091-4.11-.22"/><path fill="#666" d="M21.226 15.626s1.933.098 2.566.215c.11.02.599.19.285.342-.27.132-3.251-.038-4.042-.246-.164-.043-.052-.286.35-.332s.84.02.84.02"/><path fill="#FFC509" d="M15.428 11.734c1.422-.37 2.248-.418 3.496-.23 0 0 .46.16.542.505s1.185 3.885 1.235 4.493c.049.608-.234 1.995-.118 2.273.115.279-3.398.723-3.398.723-.509-.18-.41-.607-.46-1.986-.049-1.379-1.297-5.779-1.297-5.779"/><path fill="#FF9300" d="m17.065 19.866-.052-.004c-.625-.096-.603-1.114-.577-2.292l.005-.262c.009-.558-.74-3.39-1.244-5.157a.337.337 0 1 1 .648-.185c.131.46 1.283 4.517 1.27 5.352l-.005.266c-.01.422-.03 1.388.088 1.635a.338.338 0 0 1-.134.646z"/><path fill="#FFB700" d="M21.15 17.73s-3.888.445-4.196 1.391c-.136.416 2.846 1.008 2.846 1.008l4.506-1.008a.51.51 0 0 0 .351-.334c.047-.154.005-.28-.35-.482-.712-.404-3.156-.575-3.156-.575"/><path fill="#FF9300" d="M16.689 19.673c-.174-.297.374-1.01 1.045-.893s2.157.789 2.157 1.266c0 .172-.624.172-.624.172s-2.276-.032-2.578-.546"/><path fill="#535353" d="m17.51 20.083.27-3.176h.742l-.268 3.238c-.296.125-.46.065-.745-.062"/><path fill="#535353" d="m16.051 16.907-.048-.154 4.218.228s-.048.122-.06.147c-.119.234-3.227.091-4.11-.221"/><path fill="#666" d="M17.268 16.502s1.932.098 2.566.215c.109.02.599.19.285.342-.271.133-3.252-.038-4.042-.246-.164-.043-.053-.286.35-.332.401-.046.84.02.84.02z"/><path fill="#8B532F" d="m6.795 19.455-.034 10.972 13.033 2.162V20.707z"/><path fill="#7A4727" d="M20.613 20.663v11.512l-.96.428V20.896z"/><path fill="#8E8E8E" d="M27.769 25.43h.784v2.074h-.784z"/><path fill="#666" d="M28.161 29.215c.216 0 .39-.053.39-.119 0-.065-.174-.118-.39-.118s-.39.053-.39.118c0 .066.174.12.39.12"/><path fill="#666" fill-rule="evenodd" d="M28.55 27.257c-.016.061-.184.109-.389.109s-.373-.048-.39-.109v1.84h.78v-1.84" clip-rule="evenodd"/><path fill="#2E2E2E" d="M24.489 28.319a.357.357 0 1 0 0-.714.357.357 0 0 0 0 .713"/><path fill="#666" d="M24.923 27.944a.435.435 0 0 0-.618-.393.43.43 0 0 0-.248.4c0 .053.194.096.433.096.238 0 .432-.043.432-.097q0-.003-.003-.005h.003z"/><path fill="#535353" d="M27.768 27.625v.87l-3.527-.845v-.33z"/><path fill="#8E8E8E" d="m27.77 27.556-3.475-.299-.055.064 3.53.316z"/><path fill="#2E2E2E" d="M29.795 27.626a.341.341 0 1 0 0-.683.341.341 0 0 0 0 .683"/><path fill="#666" d="M30.208 27.267a.417.417 0 0 0-.591-.376.41.41 0 0 0-.237.382c0 .051.185.093.414.093s.414-.042.414-.093l-.003-.006z"/><path fill="#535353" d="m28.551 27.502 1.244-1.01v.36l-1.24 1.448z"/><path fill="#8E8E8E" d="m28.551 27.414 1.15-.922h.094l-1.244 1.011z"/><path fill="#2E2E2E" d="M33.366 29.469a.37.37 0 1 0 0-.74.37.37 0 0 0 0 .74"/><path fill="#666" d="M33.815 29.08a.453.453 0 0 0-.642-.409.45.45 0 0 0-.257.414c0 .056.202.101.45.101.247 0 .449-.045.449-.1l-.003-.006z"/><path fill="#535353" d="m28.551 27.707 4.946.63v.376l-4.946-.079z"/><path fill="#8E8E8E" d="m28.552 27.647 4.881.637.064.053-4.945-.633z"/><path fill="#2E2E2E" d="M29.702 32.403a.486.486 0 1 0 0-.973.486.486 0 0 0 0 .973"/><path fill="#666" d="M30.293 31.892a.594.594 0 0 0-.843-.536.58.58 0 0 0-.338.544c0 .073.265.133.59.133.327 0 .591-.06.591-.133q0-.004-.003-.007z"/><path fill="#535353" d="M28.322 27.805v.985l1.38 2.721v-.516z"/><path fill="#8E8E8E" d="M28.322 27.805h.076l1.398 3.18v.526h-.094v-.516z"/><path fill="#2E2E2E" d="M23.554 31.408a.414.414 0 1 0 0-.829.414.414 0 0 0 0 .828"/><path fill="#666" d="M24.058 30.973a.507.507 0 0 0-.719-.458.5.5 0 0 0-.288.464c0 .062.225.112.504.112.278 0 .503-.05.503-.112l-.003-.006z"/><path fill="#8E8E8E" d="m23.427 30.683-.105-.082v-.408l4.448-2.496v.108l-4.343 2.424z"/><path fill="#535353" d="m27.77 27.805-4.342 2.424v.454l4.342-1.861z"/><path fill="#8E8E8E" d="M34.386 20.487h.571v1.51h-.571z"/><path fill="#666" d="M34.671 23.243c.157 0 .285-.039.285-.087s-.128-.086-.285-.086-.284.038-.284.086.127.087.284.087"/><path fill="#666" fill-rule="evenodd" d="M34.955 21.817c-.012.044-.134.08-.283.08-.15 0-.272-.036-.284-.08v1.34h.568z" clip-rule="evenodd"/><path fill="#2E2E2E" d="M31.997 22.59a.26.26 0 1 0 0-.519.26.26 0 0 0 0 .52"/><path fill="#666" d="M32.313 22.317a.317.317 0 0 0-.45-.285.31.31 0 0 0-.18.29c0 .04.14.07.315.07.173 0 .314-.03.314-.07l-.002-.004z"/><path fill="#535353" d="M34.385 22.085v.633l-2.568-.615v-.24z"/><path fill="#8E8E8E" d="m34.387 22.035-2.53-.218-.04.047 2.57.23z"/><path fill="#2E2E2E" d="M35.86 22.086a.248.248 0 1 0 0-.497.248.248 0 0 0 0 .497"/><path fill="#666" d="M36.162 21.825a.304.304 0 0 0-.431-.274.3.3 0 0 0-.173.278c0 .037.136.067.302.067s.301-.03.301-.067l-.001-.004z"/><path fill="#535353" d="m34.955 21.996.906-.735v.261l-.903 1.055z"/><path fill="#8E8E8E" d="m34.956 21.932.836-.671h.069l-.905.736z"/><path fill="#2E2E2E" d="M38.46 23.428a.27.27 0 1 0 0-.54.27.27 0 0 0 0 .54"/><path fill="#666" d="M38.788 23.144a.33.33 0 0 0-.468-.297.33.33 0 0 0-.187.301c0 .041.147.074.327.074s.327-.033.327-.074l-.002-.004z"/><path fill="#535353" d="m34.955 22.144 3.601.46v.273l-3.6-.057z"/><path fill="#8E8E8E" d="m34.956 22.101 3.554.464.046.039-3.6-.461z"/><path fill="#2E2E2E" d="M35.794 25.563a.354.354 0 1 0 0-.708.354.354 0 0 0 0 .708"/><path fill="#666" d="M36.224 25.192a.432.432 0 0 0-.613-.39.43.43 0 0 0-.246.396c0 .053.193.096.43.096s.43-.043.43-.096l-.003-.006z"/><path fill="#535353" d="M34.79 22.216v.717l1.004 1.981v-.375z"/><path fill="#8E8E8E" d="M34.79 22.216h.054l1.018 2.316v.382h-.068v-.375z"/><path fill="#2E2E2E" d="M31.317 24.839a.302.302 0 1 0 0-.603.302.302 0 0 0 0 .603"/><path fill="#666" d="M31.684 24.522a.37.37 0 0 0-.524-.333.36.36 0 0 0-.21.338c0 .045.165.082.367.082.203 0 .366-.037.366-.082l-.002-.005z"/><path fill="#8E8E8E" d="m31.225 24.311-.077-.06v-.296l3.238-1.817v.078l-3.161 1.765z"/><path fill="#535353" d="m34.387 22.216-3.162 1.765v.33l3.162-1.355z"/><path fill="#8B532F" d="m28.434 15.405.015 4.273 7.185.584v-4.249z"/><path fill="#7A4727" d="M35.964 15.863v4.105l-.33.293v-4.248z"/><path fill="#FFB700" d="M34.16 17.963s-3.105.805-3.414 1.75c-.136.416 3.415.932 3.415.932l3.328-1.866a.51.51 0 0 0 .351-.335c.047-.154.005-.28-.35-.482-.711-.403-2.161-.157-2.161-.157z"/><path fill="#FF9300" d="M30.677 19.92c-.174-.297.968-.88 3.82-.274.67.117.76.781.477 1.01 0 .172-.844.127-.844.127s-3.151-.35-3.453-.864"/><path fill="#535353" d="m33.04 20.673.385-3.164-.725-.151-.4 3.222c.263.183.436.158.74.093"/><path fill="#535353" d="m35.116 17.863.079-.14-4.174-.642s.023.13.03.157c.068.254 3.138.75 4.065.625"/><path fill="#666" d="M34.01 17.219s-1.911-.3-2.555-.315c-.11-.003-.625.063-.349.276.238.185 3.189.628 4.005.587.169-.009.11-.27-.274-.396-.384-.128-.827-.153-.827-.153"/><path fill="#FFB700" d="M27.46 21.962s-4.267 1.107-4.69 2.406c-.187.57 4.69 1.28 4.69 1.28l4.572-2.565c.217-.045.417-.248.482-.46.064-.21.006-.383-.482-.66-.976-.555-2.967-.217-2.967-.217z"/><path fill="#FF9300" d="M22.674 24.65c-.24-.406 1.33-1.206 5.247-.375.92.16 1.044 1.073.656 1.388 0 .235-1.16.174-1.16.174s-4.328-.482-4.743-1.187"/><path fill="#535353" d="m25.92 25.685.528-4.345-.996-.208-.55 4.426c.363.25.6.217 1.018.127"/><path fill="#535353" d="m28.772 21.826.108-.194-5.732-.88s.03.178.04.215c.094.349 4.31 1.03 5.584.86"/><path fill="#666" d="M27.252 20.94s-2.624-.412-3.509-.432c-.152-.003-.858.086-.48.38.328.253 4.38.862 5.502.805.232-.012.15-.37-.377-.544s-1.136-.21-1.136-.21z"/><path fill="#DDAC8E" d="m36.986 14.09-11.966-.6-23.368 5.653 22.642 2.214z"/><path fill="#7A4727" d="M37.012 14.065v.908l-12.73 7.486v-1.101z"/><path fill="#7A4727" d="M1.618 19.107v.957l22.665 2.387v-1.1z"/><path fill="#FFC509" d="M39.249 11.643c-.165-.193-1.404.087-2.93.48 0 0-.56.172-.641.542-.083.37-.68 3.086-.73 3.739-.05.652.087 3.972-.028 4.27.208.252 2.867-2.08 2.867-2.08.867-.757.707-.606.756-2.086.072-2.143.507-3.157.82-4.385.075-.292-.114-.48-.114-.48"/><mask id="b" width="3" height="9" x="34" y="12" maskUnits="userSpaceOnUse" style="mask-type:alpha"><path fill="#fff" d="M34.681 20.784a.4.4 0 0 0 .057-.007c.688-.128.62-1.169.538-2.374l-.017-.269c-.035-.57.669-3.505 1.15-5.338.049-.187-.075-.372-.275-.416-.201-.044-.403.071-.452.257-.125.477-1.22 4.686-1.17 5.54l.019.273c.028.431.094 1.419-.026 1.677a.34.34 0 0 0-.205.38c.036.169.2.284.382.276z"/></mask><g mask="url(#b)"><path fill="#FF9300" d="M34.681 20.784a.4.4 0 0 0 .058-.007c.687-.128.618-1.169.538-2.374l-.018-.269c-.035-.57.669-3.505 1.15-5.338.049-.187-.075-.372-.275-.416s-.403.071-.451.257c-.126.477-1.221 4.686-1.17 5.54l.018.273c.028.431.094 1.419-.026 1.677a.34.34 0 0 0-.205.38c.036.169.2.284.382.276"/><path fill="#535353" d="m35.116 17.864.079-.142-4.174-.64s.023.13.03.156c.068.254 3.137.75 4.065.626"/><path fill="#666" d="M34.01 17.219s-1.911-.3-2.555-.315c-.11-.003-.625.063-.349.276.238.185 3.189.628 4.005.587.17-.009.11-.27-.274-.396-.384-.128-.827-.153-.827-.153"/></g><path fill="#FFC509" d="M34.449 13.282c-.226-.265-1.929.12-4.025.659 0 0-.701.184-.814.692-.113.509-1 4.292-1.068 5.188s.12 5.456-.039 5.867c.286.344 3.938-2.86 3.938-2.86 1.19-1.039.971-.83 1.039-2.863.098-2.944.695-4.336 1.127-6.024a.71.71 0 0 0-.158-.659"/><mask id="c" width="4" height="12" x="27" y="14" maskUnits="userSpaceOnUse" style="mask-type:alpha"><path fill="#fff" d="m28.174 25.838.079-.01c.944-.175.85-1.605.739-3.26l-.024-.37c-.048-.782.918-4.814 1.58-7.333.066-.255-.103-.51-.378-.57-.276-.061-.553.097-.62.352-.173.656-1.678 6.437-1.607 7.61l.024.374c.04.594.13 1.95-.035 2.305a.47.47 0 0 0-.281.52c.049.233.274.391.524.38z"/></mask><g mask="url(#c)"><path fill="#FF9300" d="m28.174 25.838.079-.01c.944-.175.85-1.605.739-3.26q-.014-.195-.024-.37c-.048-.782.918-4.814 1.58-7.333.066-.255-.103-.51-.378-.57-.277-.061-.553.097-.62.352-.173.656-1.678 6.437-1.607 7.61l.024.374c.04.594.13 1.95-.035 2.305a.47.47 0 0 0-.282.52c.05.233.275.391.525.38z"/><path fill="#535353" d="m28.773 21.826.107-.194-5.732-.88s.031.178.04.215c.094.349 4.31 1.03 5.585.86"/><path fill="#666" d="M27.252 20.94s-2.624-.411-3.508-.432c-.153-.003-.859.087-.48.38.327.254 4.38.862 5.5.805.233-.011.152-.369-.375-.544-.528-.174-1.136-.21-1.136-.21z"/></g></g><defs><clipPath id="a"><path fill="#fff" d="M0 0h40v40H0z"/></clipPath></defs></svg>