<svg xmlns="http://www.w3.org/2000/svg" width="40" height="40" fill="none" class="persona-ilustration" viewBox="0 0 40 40"><g clip-path="url(#a)"><path fill="#EFFAFF" d="m16.95 30.622 2.867-9.947c-4.87-1.404-11.444 6.341-11.745 7.387"/><path fill="#D0F3FF" d="m16.945 30.62 2.866-9.946c4.87 1.404 6.313 11.457 6.012 12.504"/><mask id="b" width="8" height="20" x="6" y="7" maskUnits="userSpaceOnUse" style="mask-type:alpha"><path fill="#FFB26F" d="M12.717 7.9c-.46-.133-.878-.09-.931.094L6.642 25.845l1.668.481 5.145-17.85c.053-.186-.278-.444-.738-.577"/></mask><g mask="url(#b)"><path fill="#FFB26F" d="M12.717 7.9c-.46-.133-.878-.09-.931.094L6.642 25.845l1.668.481 5.145-17.85c.053-.186-.278-.444-.738-.577"/><path fill="#FFC79D" d="M12.077 7.38c-.461-.133-.878-.09-.932.095l-5.144 17.85 1.668.482 5.145-17.851c.053-.185-.277-.443-.737-.576"/></g><mask id="c" width="8" height="20" x="26" y="13" maskUnits="userSpaceOnUse" style="mask-type:alpha"><path fill="#FF8D18" d="M32.624 13.637c-.462-.132-.878-.09-.932.095l-5.144 17.851 1.668.482 5.145-17.851c.053-.185-.278-.444-.737-.577"/></mask><g mask="url(#c)"><path fill="#FF8D18" d="M32.624 13.637c-.462-.132-.878-.09-.932.095l-5.144 17.851 1.668.482 5.145-17.851c.053-.185-.278-.444-.737-.577"/><path fill="#FFB26F" d="M31.983 13.118c-.461-.133-.878-.09-.931.095l-5.145 17.85 1.669.482 5.144-17.85c.054-.186-.277-.444-.737-.577"/></g><path fill="#FFDCC5" d="M4.314 28.312s.193-1.377 1.761-2.666c1.028-1.02 6.168-.572 11.992 1.106l-.71 2.46-.71 2.461-.052.18-.76 2.639c-6.739-1.942-11.94-4.732-11.523-6.18z"/><path fill="#FFB26F" d="m16.59 31.852-.76 2.639c-6.739-1.942-11.94-4.732-11.523-6.18s6.305-1.042 13.044.9l-.76 2.64"/><path fill="#FFC79D" d="M28.874 35.39s.57-1.269-.073-3.193c-.327-1.41-4.918-3.768-10.74-5.445l-.71 2.46-.709 2.46-.052.18-.76 2.639c6.738 1.942 12.626 2.348 13.043.9"/><path fill="#FFB26F" d="m16.591 31.85-.76 2.64c6.738 1.941 12.626 2.348 13.043.9.417-1.449-4.784-4.239-11.523-6.18l-.76 2.639z"/><path fill="#FFDCC5" d="M18.054 26.753s.815 1.276-.704 2.459zM11.15 4.59s-.569 1.27.073 3.195c.328 1.41 4.918 3.767 10.74 5.445l.71-2.46.71-2.46.052-.18.76-2.64c-6.74-1.94-12.627-2.347-13.045-.9"/><path fill="#FFC79D" d="m22.672 10.768-.71 2.46c-6.28-1.81-11.127-4.41-10.737-5.758.389-1.35 5.876-.972 12.156.838z"/><path fill="#FFC79D" d="M35.71 11.668s-.194 1.378-1.763 2.666c-1.027 1.02-6.167.573-11.99-1.106l.709-2.46.71-2.46.052-.18.76-2.639c6.739 1.942 11.94 4.732 11.523 6.18z"/><path fill="#FFB26F" d="m22.666 10.768-.71 2.46c6.28 1.81 11.768 2.188 12.157.839.39-1.35-4.459-3.95-10.737-5.76z"/><path fill="#FFDCC5" d="M24.188 5.487s.587 1.283-.813 2.82z"/><path fill="#D0F3FF" d="m22.523 11.266-2.866 9.946c4.87 1.404 11.443-6.34 11.744-7.386.302-1.048-3.458-3.064-8.328-4.468z"/><path fill="#EFFAFF" d="m21.614 19.098-1.953 2.115C14.792 19.81 13.349 9.756 13.65 8.71s4.558-.754 9.428.65l2.664.862-.325 1.743c-.864 3.907-3.196 6.294-3.803 7.133"/><mask id="d" width="5" height="10" x="9" y="7" maskUnits="userSpaceOnUse" style="mask-type:alpha"><path fill="#FFB26F" d="M12.766 7.732c-.461-.133-.878-.09-.932.095l-2.342 8.178 1.669.481 2.342-8.178c.053-.185-.277-.443-.737-.576"/></mask><g mask="url(#d)"><path fill="#FFB26F" d="M12.766 7.732c-.461-.133-.878-.09-.932.095l-2.342 8.178 1.669.481 2.342-8.178c.053-.185-.277-.443-.737-.576"/><path fill="#FFC79D" d="M12.125 7.213c-.461-.133-.878-.09-.931.095l-5.145 17.85 1.669.482 5.144-17.851c.054-.185-.277-.443-.737-.576"/></g><mask id="e" width="5" height="10" x="29" y="13" maskUnits="userSpaceOnUse" style="mask-type:alpha"><path fill="#FF8D18" d="M32.675 13.508c-.46-.132-.878-.09-.931.096l-2.342 8.178 1.668.48 2.343-8.177c.053-.185-.278-.444-.738-.577"/></mask><g mask="url(#e)"><path fill="#FF8D18" d="M32.675 13.508c-.46-.132-.878-.09-.931.096l-2.342 8.178 1.668.48 2.343-8.177c.053-.185-.278-.444-.738-.577"/><path fill="#FFB26F" d="M32.035 12.989c-.461-.133-.878-.09-.932.095l-5.144 17.85 1.669.482 5.144-17.85c.053-.186-.277-.444-.737-.577"/></g><mask id="f" width="4" height="5" x="8" y="14" maskUnits="userSpaceOnUse" style="mask-type:alpha"><path fill="#FFC79D" d="M10.689 18.176a1.725 1.725 0 1 0-.893-3.333 1.725 1.725 0 0 0 .893 3.333"/></mask><g mask="url(#f)"><path fill="#FFC79D" d="M10.689 18.176a1.725 1.725 0 1 0-.893-3.333 1.725 1.725 0 0 0 .893 3.333"/><path fill="#FFDCC5" d="M9.61 17.501a1.877 1.877 0 1 0-.971-3.627 1.877 1.877 0 0 0 .972 3.627"/></g><mask id="g" width="4" height="4" x="28" y="20" maskUnits="userSpaceOnUse" style="mask-type:alpha"><path fill="#FFC79D" d="M30.583 23.928a1.725 1.725 0 1 0-.893-3.334 1.725 1.725 0 0 0 .893 3.334"/></mask><g mask="url(#g)"><path fill="#FFC79D" d="M30.583 23.928a1.725 1.725 0 1 0-.893-3.334 1.725 1.725 0 0 0 .893 3.334"/><path fill="#FFDCC5" d="M29.505 23.253a1.877 1.877 0 1 0-.972-3.626 1.877 1.877 0 0 0 .972 3.626"/></g><mask id="h" width="16" height="18" x="12" y="11" maskUnits="userSpaceOnUse" style="mask-type:alpha"><path fill="#DDAC8E" fill-rule="evenodd" d="M15.513 12.217s1.383-.966 6.592.502h.003c5.193 1.53 5.849 3.083 5.849 3.083-3.626 3.202-5.453 3.86-6.488 4.234-.589.212-.92.332-1.181.776-.318.543-.423 1.31-.452 1.879-.024.467.149.92.48 1.25l1.152 1.149s1.03 1.18 2.013 3.556a49 49 0 0 0-5.414-1.893 49 49 0 0 0-5.597-1.281c2.095-1.488 3.595-1.939 3.595-1.939l1.585-.358a1.64 1.64 0 0 0 1.073-.804c.277-.498.598-1.203.616-1.832.015-.514-.202-.792-.587-1.285-.677-.866-1.873-2.396-3.24-7.038" clip-rule="evenodd"/></mask><g mask="url(#h)"><path fill="#DDAC8E" d="M15.512 12.216s1.384-.966 6.593.502h.003c5.192 1.53 5.849 3.084 5.849 3.084-3.626 3.201-5.453 3.86-6.488 4.233-.589.213-.92.333-1.181.776-.318.544-.423 1.31-.452 1.88-.024.466.149.92.48 1.25l1.152 1.149s1.03 1.18 2.013 3.556a49 49 0 0 0-5.414-1.893 49 49 0 0 0-5.598-1.281c2.095-1.489 3.595-1.94 3.595-1.94l1.586-.358a1.64 1.64 0 0 0 1.073-.803c.277-.499.598-1.203.616-1.833.015-.514-.202-.791-.587-1.284-.677-.867-1.873-2.397-3.24-7.038"/><path fill="#FFE8CA" d="m21.615 19.098-1.344 1.115c-.543.587-.766 1.384-.905 2.171-.47 2.662 4.019 6.856 2.395 7.645-.431.209-10.835-2.67-11.176-3.048C7.624 23.71 13.406 9.56 13.65 8.71c.302-1.047 4.558-.754 9.429.65l2.663.862-.324 1.743c-.864 3.907-3.197 6.294-3.804 7.133z"/></g></g><defs><clipPath id="a"><path fill="#fff" d="M0 0h40v40H0z"/></clipPath></defs></svg>