<svg xmlns="http://www.w3.org/2000/svg" width="80" height="80" fill="none" class="persona-ilustration" viewBox="0 0 80 80"><g clip-path="url(#a)"><g clip-path="url(#b)"><rect width="66.667" height="66.667" x="6.667" y="6.667" fill="#D3EDFF" rx="33.333"/><path fill="#82C2F1" d="M-6.184 95.928v7.129l161.406-48.764V50.3z"/><path fill="#AADBFF" d="M159.471 51.339-6.599 97.57l-42.153-64.34 167.558-15.588z"/><path fill="#D3EDFF" d="M71.351 63.081 27.17 73.411a1.76 1.76 0 0 1-1.916-.815l-8.16-13.708a1.762 1.762 0 0 1 1.136-2.622l42.921-9.453a1.76 1.76 0 0 1 1.8.678l9.42 12.83a1.763 1.763 0 0 1-1.02 2.76"/><mask id="c" width="55" height="70" x="68" y="45" maskUnits="userSpaceOnUse" style="mask-type:alpha"><path fill="#666" d="M95.947 49.228c7.072-2.291 22.929-4.677 26.498-3.39v30.845L71.968 114.46c-1.045-8.853-3.234-28.802-3.63-37.776S67.49 61.41 70.39 59.488c4.275-2.656 18.485-7.969 25.557-10.26"/></mask><g mask="url(#c)"><path fill="#666" d="M95.947 49.228c7.072-2.291 22.93-4.677 26.499-3.39v30.845L71.968 114.46c-1.045-8.853-3.233-28.802-3.63-37.776-.395-8.974-.848-15.274 2.053-17.195 4.274-2.656 18.484-7.969 25.556-10.26"/><path fill="#8E8E8E" d="M79.993 59.012c-5.175-2.641-10.826-1.409-13.004-.462-5.413 8.383.528 26.403 4.159 32.872 2.904 5.175 8.91-.088 11.551-3.367l2.706-14.852c.352-3.63-.237-11.551-5.412-14.192"/></g><path fill="#EFEFEF" d="M66.27 62.64c9.026-10.208 21.348 5.842 13.627 19.499-4.99 8.825-21.392 43.166-31.525 40.353-5.698-1.582-5.767-7.49-4.99-10.108 4.2-14.967 15.668-41.578 22.888-49.744"/><path fill="#F1AA90" d="M33.24 63.337c-5.256-3.666-10.04.025-10.058 1.858L30.73 97.1c2.238 7.241 3.356 12.008 7.922 12.638 6.863.947 12.557-7.393 13.04-11.36C48.17 85.02 33.94 65.31 33.241 63.337"/><path fill="#EFEFEF" d="M35.361 66c-4.482-2.995-11.084 1.957-11.102 3.79l6.47 27.318c2.238 7.242 3.355 12.008 7.922 12.638 6.863.947 12.557-7.393 13.04-11.36C48.168 85.029 36.059 67.976 35.36 66"/><path fill="#E4E4E4" d="m25.263 76.033-1.188-6.305c.429-1.452.858-2.046 4.224-3.928 2.694-1.505 6.294-.726 7.328 0l3.189 5.612c-.1-.038-1.348-.894-3.387-1.222-2.83-.454-9.308 3.631-10.166 5.843"/><path fill="#E4E4E4" fill-rule="evenodd" d="M61 71.142a.88.88 0 0 1 .418 1.174c-.787 1.66-1.949 3.906-3.249 6.422a699 699 0 0 0-2.499 4.867c-2.247 4.431-4.49 9.078-5.815 12.725a.881.881 0 0 1-1.657-.602c1.365-3.758 3.654-8.49 5.9-12.92a699 699 0 0 1 2.53-4.925c1.286-2.49 2.422-4.686 3.198-6.323a.88.88 0 0 1 1.173-.418" clip-rule="evenodd"/><path fill="#82C2F1" d="M44.515 28.3c16.197 4.373 21.978 13.806 9.153 8.833-6.07-2.354-14.431-3.795-18.54-3.272-5.633.717-7.673 1.85-12.184 5.374s-6.19 6.432-8.807 6.432-.969-4.72 6.486-11.806c8.386-7.97 14.7-8.045 23.892-5.562"/><path fill="#82C2F1" d="M29.023 21.514v10.261h9.382V19.17z"/><path fill="#AADBFF" d="m75.369-28.517-81.615 5.453a1.32 1.32 0 0 0-1.234 1.32v44.847a1.32 1.32 0 0 0 1.432 1.317l79.628-6.687a1.32 1.32 0 0 0 1.21-1.257l1.987-43.614a1.322 1.322 0 0 0-1.408-1.38"/><path fill="#D3EDFF" d="m74.24-26.016-79.562 5.033v42.798l77.548-6.177z"/><path fill="#82C2F1" fill-rule="evenodd" d="M61.866 23.782c.725.89.838 2.083.19 3.604-.418.981-.232 1.922.413 2.85.656.945 1.773 1.846 3.145 2.67 2.74 1.644 6.357 2.895 8.857 3.542l-.207.8c-2.541-.657-6.242-1.934-9.075-3.634-1.413-.848-2.645-1.822-3.399-2.907-.765-1.1-1.049-2.342-.494-3.645.569-1.334.403-2.177-.07-2.759-.51-.626-1.454-1.053-2.664-1.348-1.196-.291-2.567-.434-3.85-.553l-.4-.036c-1.111-.101-2.152-.196-2.864-.377l.203-.8c.644.163 1.613.252 2.75.355l.387.036c1.279.118 2.707.265 3.969.572 1.248.304 2.42.784 3.109 1.63" clip-rule="evenodd"/><mask id="d" width="11" height="11" x="65" y="34" maskUnits="userSpaceOnUse" style="mask-type:alpha"><path fill="#D3EDFF" d="M66.486 34.886c-.93.69-.583 3.49-.415 4.79l3.186 4.528 5.576-.42.67-8.552-3.48-1.048c-1.383.21-4.237-.262-5.537.702"/></mask><g mask="url(#d)"><path fill="#D3EDFF" d="M66.486 34.886c-.93.69-.583 3.49-.415 4.79l3.186 4.528 5.576-.42.67-8.552-3.48-1.048c-1.383.21-4.237-.262-5.537.702"/><path fill="#D3EDFF" d="M68.395 38.28c-.392-1.373-2.002-2.513-2.757-2.91l.643-2.636 3.431-.612c1.685.153 5.227 1.274 5.913 4.534.687 3.26-1.549 4.406-3.05 4.437-1.032-.276-3.788-1.44-4.18-2.813"/><path fill="#82C2F1" fill-rule="evenodd" d="m69.703 31.9.03.002c.87.08 2.21.406 3.424 1.133 1.218.728 2.325 1.869 2.684 3.576.356 1.687-.041 2.866-.76 3.626-.71.75-1.705 1.06-2.501 1.076h-.032l-.03-.007c-.534-.143-1.499-.51-2.382-1.017a6.7 6.7 0 0 1-1.217-.868c-.344-.32-.622-.683-.736-1.08-.18-.631-.647-1.226-1.18-1.72a7.4 7.4 0 0 0-1.468-1.057l-.152-.08.718-2.942zm.019.444-3.26.582-.57 2.331a8 8 0 0 1 1.41 1.04c.559.518 1.093 1.18 1.305 1.922.082.288.296.586.612.88.313.29.711.564 1.136.808.834.478 1.743.826 2.247.965.699-.022 1.555-.3 2.159-.938.602-.637.98-1.66.65-3.233-.328-1.553-1.335-2.603-2.48-3.288a8.1 8.1 0 0 0-3.21-1.07" clip-rule="evenodd"/></g><path fill="#F1AA90" d="M78.31 52.736c.398.337 4.763-4.491 7.447-5.972-.74-1.204-2.015-3.02-2.015-6.2-.363-.61-1.222-1.661-3.038-3.292s-5.479-1.4-7.083-1.081c-.893.402-2.713 2.82-4.057 4.95s-.559 4.625-.302 5.623c.952.926 7.412 4.59 9.048 5.972"/><path fill="#F1AA90" d="m70.758 33.51 3.317 4.311c-1.862 1.888-5.088 6.096-4.657 4.226.538-2.337-.871-5.836-1.325-6.512-.363-.54-1.267-.606-1.673-.571v-.571c.038-.295.38-.962 1.446-1.273 1.066-.312 2.372.13 2.892.39"/><path fill="#F1AA90" d="M66.789 38.807c-.635-.852-1.645-.736-2.07-.571-.703.395-.557 1.654-.397 2.233.236.858.76 2.666.964 3.04.204.373 3.77 3.308 4.81 3.966l.243-4.507c-.284-.3-1.567-.95-2.306-1.81-.736-.858-.927-1.926-1.244-2.35m5.081-6.079c-.753.127-.99.537-1.015.726-.09.347-.183.998.173.816.357-.181 1.189.076 1.56.227l1.585 3.267h3.788c-.495-1.195-1.57-3.73-1.906-4.31a1.48 1.48 0 0 0-1.214-.726c-.676-.053-2.218-.127-2.971 0"/><path fill="#82C2F1" d="M72.38 33.956a.69.69 0 0 0-.783.34c0 .105.036.207.102.288l.897 1.106c.11.135.273.213.447.213.14-.054.421-.273.421-.723 0-.562-.522-1.104-1.084-1.224"/></g><path fill="#F1AA90" d="m25.443 41.279-1.872 3.5 1.89 2.28 2.452-2.232c1.77.605 5.432 1.652 5.913.994s.181-1.069-.028-1.192z"/><mask id="e" width="13" height="9" x="22" y="37" maskUnits="userSpaceOnUse" style="mask-type:alpha"><path fill="#FFC7B6" d="m33.308 41.003-5.534-3.44c-2.25-.823-3.578.601-3.96 1.416L22.14 42.8l2.047 2.456 1.516-3.35c.836.048 2.831.236 4.124.615 1.615.473 3.091 1.1 3.986.36.716-.59-.038-1.497-.505-1.877"/></mask><g mask="url(#e)"><path fill="#F1AA90" d="m33.308 41.003-5.534-3.44c-2.25-.823-3.578.601-3.96 1.416l-1.674 3.82 2.047 2.456 1.516-3.35c.836.047 2.831.236 4.124.615 1.615.473 3.091 1.1 3.986.36.716-.59-.038-1.497-.505-1.877"/><path fill="#000" d="m35.279 41.874-5.534-3.44c-2.25-.823-3.578.6-3.96 1.416l-1.674 3.82 2.047 2.456 1.516-3.35c.836.047 2.831.236 4.123.614 1.616.474 3.092 1.1 3.987.361.716-.59-.038-1.497-.505-1.877" opacity=".5" style="mix-blend-mode:overlay"/></g><mask id="f" width="15" height="10" x="18" y="34" maskUnits="userSpaceOnUse" style="mask-type:alpha"><path fill="#FFC7B6" d="m21.24 36.938-2.516 4.8 4.251 1.708 1.335-3.696c.213-.191 1.346-.724 4.18-1.325 3.542-.752 4.137-1.623 4.134-2.582-.002-.768-.91-.979-1.364-.988a767 767 0 0 0-7.751.91c-1.59.205-2.174.867-2.268 1.173"/></mask><g mask="url(#f)"><path fill="#F1AA90" d="m21.24 36.938-2.517 4.8 4.251 1.708 1.335-3.696c.213-.191 1.346-.724 4.18-1.325 3.542-.752 4.137-1.623 4.134-2.582-.002-.768-.91-.979-1.364-.989-1.922.218-6.163.705-7.752.91s-2.173.868-2.267 1.174"/><path fill="#000" fill-opacity=".5" d="m24.223 38.562-2.517 4.799 4.252 1.709 1.335-3.697c.213-.19 1.346-.724 4.18-1.325 3.541-.751 4.136-1.622 4.134-2.582-.002-.768-.91-.979-1.365-.988a767 767 0 0 0-7.75.91c-1.59.205-2.175.868-2.269 1.174" style="mix-blend-mode:overlay"/></g><path fill="#F1AA90" d="M16.898 50.783c1.762 2.157 4.885 10.397 6.226 14.247l4.823-1.922-.38-15.886c-1.113-.935-3.538-3.093-4.336-4.24-.799-1.145-3.291-1.402-4.438-1.387l-1.156 1.839c-.981 1.55-2.502 5.192-.74 7.35"/><path fill="#000" d="M25.949 48.451c-.356-.975-2.59-4.568-3.654-6.198.372.178.649.369.866.62 1.828 1.322 2.695 3.307 3.037 3.902.206 1.129.106 2.651-.25 1.676" opacity=".5" style="mix-blend-mode:overlay"/><path fill="#F8F8F8" d="M46.77 2.904 15.495 9.823c3.307 12.913 8.77 32.776 13.008 41.824 4.12-.724 17.838-4.259 28.77-8.578-2.218-6.99-7.526-28.146-10.505-40.165"/><path fill="#3F568E" fill-rule="evenodd" d="M44.83 9.669a.78.78 0 0 1-.588.933l-10.79 2.454a.78.78 0 1 1-.346-1.521l10.79-2.454a.78.78 0 0 1 .933.588m-3.046 4.169a.78.78 0 0 1-.59.932l-6.603 1.48a.78.78 0 0 1-.341-1.522l6.602-1.481a.78.78 0 0 1 .932.59m3.338 6.34a.55.55 0 0 1 .662.374l2.215 7.273a.55.55 0 0 1-.393.694l-18.873 4.736a.55.55 0 0 1-.655-.355l-2.476-7.19a.55.55 0 0 1 .386-.713zm-18.283 5.74 2.116 6.146 17.821-4.472-1.893-6.217zm21.375 4.827a.55.55 0 0 1 .661.373l2.215 7.273a.55.55 0 0 1-.393.695L31.823 43.82a.55.55 0 0 1-.654-.355l-2.476-7.19a.55.55 0 0 1 .386-.714zm-18.284 5.74 2.116 6.145 17.822-4.472-1.894-6.217z" clip-rule="evenodd"/><mask id="g" width="11" height="10" x="21" y="11" maskUnits="userSpaceOnUse" style="mask-type:alpha"><path fill="#39B54A" d="M27.229 20.945a4.756 4.756 0 1 0-1.285-9.425 4.756 4.756 0 0 0 1.285 9.425"/></mask><g mask="url(#g)"><path fill="#8FC7B8" d="M27.229 20.945a4.756 4.756 0 1 0-1.285-9.425 4.756 4.756 0 0 0 1.285 9.425"/><path fill="#F8F8F8" d="M26.311 16.69a1.985 1.985 0 1 0-.536-3.933 1.985 1.985 0 0 0 .536 3.934m2.174 8.456a3.916 3.916 0 1 0-1.058-7.76 3.916 3.916 0 0 0 1.058 7.76"/></g><path fill="#F1AA90" d="M33.983 51.266c1.53 2.605.097 9.444-.812 12.538-3.035 2.046-5.823.173-6.838-1.019l-1.076-12.819c.298-.625.977-2.319 1.312-4.095.419-2.22-.164-5.38.094-8.59.207-2.567 1.568-3.16 2.223-3.136.657.01 1.999.842 2.112 4.09.142 4.06 1.073 9.773 2.985 13.03"/></g><defs><clipPath id="a"><path fill="#fff" d="M0 0h80v80H0z"/></clipPath><clipPath id="b"><rect width="66.667" height="66.667" x="6.667" y="6.667" fill="#fff" rx="33.333"/></clipPath></defs></svg>