<svg xmlns="http://www.w3.org/2000/svg" width="40" height="40" fill="none" class="persona-ilustration" viewBox="0 0 40 40"><g clip-path="url(#a)"><g clip-path="url(#b)"><rect width="33.333" height="33.333" x="3.333" y="3.333" fill="#D3EDFF" rx="16.667"/><path fill="#293A6E" fill-rule="evenodd" d="M.975 10.587c-.27-.753-.226-1.454.117-1.926l.027-.035 1.188-1.522-.002.003-.013.017a1.5 1.5 0 0 0-.252.58l.405-.518c.249-.318.646-.483 1.12-.464l-1.2 1.537a2 2 0 0 0-.206.003q.023.358.161.75l-.108.139L15.14 45.36c.55 1.359 1.485 2.17 2.553 2.253q.226.017.459-.01l12.424-1.429.073-.095a2.7 2.7 0 0 0-.165-.933l.214-.275-.215.276-12.016-34.03c-.432-1.223-1.603-2.253-2.635-2.332l1.2-1.537c1.031.08 2.202 1.108 2.634 2.331l12.018 34.03c.244.687.218 1.35-.067 1.818l-.183.235.183-.235a2 2 0 0 1-.087.127l-.386.495q.3-.131.508-.395l-1.198 1.535a1.32 1.32 0 0 1-.915.503L16.952 49.14q-.231.027-.459.01c-1.07-.082-2.003-.894-2.553-2.254l1.183-1.515-1.184 1.515z" clip-rule="evenodd"/><path fill="#293A6E" d="m2.319 7.09-.012.014zM15.83 8.786l1.201-1.537-13.467-.527-1.2 1.537z"/><path fill="#FFF9E1" fill-rule="evenodd" d="M31.75 45.513c.307-.503.336-1.21.078-1.939l-.002-.001L19.81 9.54c-.452-1.28-1.688-2.36-2.848-2.448L3.556 6.571c-.538-.02-.987.177-1.263.554-.343.471-.386 1.172-.117 1.926L15.14 45.36c.55 1.36 1.483 2.172 2.553 2.254q.227.016.459-.01l12.587-1.448a1.33 1.33 0 0 0 1.011-.644" clip-rule="evenodd"/><path fill="#293A6E" d="m31.953 47.725-13.54 1.564c-1.1.127-2.386-.868-2.863-2.224L2.171 9.018c-.477-1.357.083-2.425 1.24-2.388l14.242.453c1.044.034 2.248 1.093 2.696 2.367l12.583 35.762c.449 1.275.013 2.4-.979 2.513"/><path fill="#FFF9E1" d="m31.536 46.911-13.29 1.492c-.741.083-1.604-.586-1.923-1.497L3.03 9.111c-.32-.91.053-1.628.832-1.607l13.953.405c.704.02 1.516.733 1.819 1.593L32.2 45.217c.304.86.007 1.618-.662 1.692z"/><path fill="#3E68F5" d="M14.706 27.701c-.288-.736.119-1.349.91-1.368l4.294-.105c.791-.02 1.666.562 1.955 1.298l1.567 4c.289.737-.118 1.35-.91 1.37L18.229 33c-.791.02-1.666-.562-1.955-1.299z"/><path fill="#EAEEFF" fill-rule="evenodd" d="M18.259 27.345c.04-.02.092-.02.146-.003l2.005.646a.28.28 0 0 1 .175.155l.719 1.835c.213.544-.047 1-.344 1.304a2.3 2.3 0 0 1-.478.37q-.115.067-.212.105a.6.6 0 0 1-.19.046 1 1 0 0 1-.223-.036 3 3 0 0 1-.29-.092 6 6 0 0 1-.755-.34c-.528-.284-1.138-.72-1.35-1.263l-.72-1.835c-.027-.07-.007-.132.051-.161zm-1.1.996.674 1.722c.147.374.596.723 1.098.994a5 5 0 0 0 .678.305q.147.052.242.077a1 1 0 0 0 .094.02.4.4 0 0 0 .076-.024q.075-.029.177-.088c.135-.078.29-.191.428-.332.283-.29.453-.653.306-1.028l-.675-1.721-1.79-.577z" clip-rule="evenodd"/><path fill="#EAEEFF" fill-rule="evenodd" d="M19.857 29.154c.099.065.141.174.095.243l-.474.707c-.046.068-.164.071-.263.006l-.676-.447c-.099-.065-.141-.174-.095-.243.046-.07.164-.072.263-.007l.496.329.39-.582c.047-.069.165-.072.264-.006" clip-rule="evenodd"/><path fill="#3E68F5" d="M5.639 27.968c-.289-.736.118-1.349.909-1.368l4.295-.105c.79-.02 1.666.562 1.954 1.299l1.568 4c.288.736-.119 1.349-.91 1.368l-4.295.105c-.79.02-1.665-.562-1.954-1.299z"/><path fill="#EAEEFF" fill-rule="evenodd" d="M9.5 27.753c-.578-.061-1.09.071-1.434.37-.059.051-.04.15.04.22.082.07.195.087.253.036.292-.254.725-.366 1.213-.314s.997.263 1.425.592c.085.066.196.074.248.017s.023-.155-.062-.221c-.505-.39-1.106-.64-1.684-.7m.554.71a2 2 0 0 0-.596-.096c-.41 0-.748.149-.941.414q-.077.105-.126.23c-.028.07.027.169.123.218.096.05.196.032.224-.04a.8.8 0 0 1 .102-.186c.15-.206.414-.322.732-.322q.228 0 .464.075c.1.032.185-.008.19-.089s-.072-.172-.172-.203m-2.077.052c-.095-.052-.198-.039-.23.03-.182.393-.165.88.05 1.372a.26.26 0 0 0 .236.146c.092-.005.137-.08.099-.167-.182-.416-.197-.828-.042-1.16.032-.07-.019-.168-.113-.22m2.48.266c-.044.062-.008.161.081.222.3.206.529.486.635.777.026.074.045.136.063.197l.03.095c.03.093.063.186.118.289.11.208.293.43.648.763.078.073.192.094.254.046.063-.047.05-.144-.028-.217-.338-.316-.475-.495-.552-.64a1.3 1.3 0 0 1-.092-.228l-.026-.083q-.03-.099-.071-.219v-.002c-.137-.375-.43-.735-.817-1-.09-.061-.198-.061-.242 0m.977.072c-.073.036-.077.129-.008.208.28.325.462.689.517 1.04.014.086.105.168.204.184s.168-.04.155-.125c-.066-.416-.28-.846-.612-1.23-.068-.079-.183-.114-.256-.077m-1.397.202a1.1 1.1 0 0 0-.35-.06c-.346 0-.522.205-.57.311a.5.5 0 0 0-.046.174.7.7 0 0 0 .044.3c.158.45.5 1.384 1.24 2.077.078.073.192.094.255.047.062-.047.05-.145-.028-.218-.646-.603-.961-1.443-1.123-1.903l-.001-.002a.4.4 0 0 1-.027-.18.3.3 0 0 1 .028-.105.38.38 0 0 1 .342-.186.7.7 0 0 1 .21.036.8.8 0 0 1 .371.255c.066.08.18.118.255.085s.084-.125.018-.206a1.37 1.37 0 0 0-.619-.425m-1.549.364c-.099-.017-.17.037-.158.123l.001.02a.8.8 0 0 0 .043.242l.02.057c.157.45.346.99 1.035 1.815.066.08.18.116.255.082.075-.035.08-.127.014-.207-.637-.762-.808-1.25-.96-1.686l-.02-.057a.4.4 0 0 1-.023-.128v-.013l-.006-.063c-.012-.085-.102-.168-.2-.185m1.44.206c-.096-.007-.155.058-.13.144.068.246.221.648.458 1.053.05.085.16.14.247.123s.117-.1.067-.185a4.4 4.4 0 0 1-.422-.967c-.024-.086-.122-.162-.22-.168m.771.28c-.096-.003-.15.065-.121.152.065.195.147.414.304.663.158.25.386.521.738.829.08.07.194.087.253.036s.04-.148-.04-.219a3.3 3.3 0 0 1-.645-.721 2.5 2.5 0 0 1-.264-.58.26.26 0 0 0-.225-.16m-.078 1.216c-.076.032-.085.124-.02.205.165.205.36.401.587.557.09.061.198.061.242 0 .045-.061.009-.161-.08-.222a2.3 2.3 0 0 1-.474-.453c-.065-.08-.18-.12-.255-.087" clip-rule="evenodd"/></g><path fill="#38BA58" fill-rule="evenodd" d="M29.989 1.6c-.881-1.47-3.012-1.47-3.893 0A2.27 2.27 0 0 1 23.6 2.634c-1.663-.416-3.17 1.09-2.753 2.753a2.27 2.27 0 0 1-1.034 2.497c-1.47.881-1.47 3.012 0 3.893a2.27 2.27 0 0 1 1.034 2.497c-.416 1.663 1.09 3.17 2.753 2.752a2.27 2.27 0 0 1 2.497 1.035c.881 1.47 3.012 1.47 3.892 0a2.27 2.27 0 0 1 2.498-1.035c1.663.417 3.17-1.09 2.753-2.752a2.27 2.27 0 0 1 1.034-2.497c1.47-.881 1.47-3.012 0-3.893a2.27 2.27 0 0 1-1.035-2.497c.417-1.663-1.09-3.17-2.752-2.753A2.27 2.27 0 0 1 29.99 1.6m2.387 6.825A.717.717 0 1 0 31.36 7.41l-4.275 4.275-2.363-2.362a.717.717 0 0 0-1.014 1.015l2.87 2.87c.28.28.734.28 1.014 0z" clip-rule="evenodd"/><path fill="#fff" d="M32.376 7.41c.28.28.28.734 0 1.014l-4.783 4.783a.717.717 0 0 1-1.014 0l-2.87-2.87a.717.717 0 0 1 1.015-1.014l2.362 2.362 4.276-4.275a.717.717 0 0 1 1.014 0"/><path fill="#293A6E" fill-rule="evenodd" d="M.975 10.587c-.27-.753-.226-1.454.117-1.926l.027-.035 1.188-1.522-.002.003-.013.017a1.5 1.5 0 0 0-.252.581l.405-.519c.249-.318.646-.483 1.12-.464l-1.2 1.537a2 2 0 0 0-.206.004c.015.237.069.49.161.75l-.108.138 5.564 15.583 15.215-.713-4.524-12.904c-.432-1.221-1.603-2.252-2.635-2.33l1.2-1.538c1.031.08 2.202 1.108 2.634 2.332l5.181 14.67-18.821.483z" clip-rule="evenodd"/><path fill="#293A6E" d="m2.319 7.09-.012.014zM15.83 8.786l1.201-1.537-13.467-.527-1.2 1.537z"/><path fill="#293A6E" fill-rule="evenodd" d="M25.483 24.125 20.334 9.542c-.453-1.28-1.528-2.65-3.372-2.449L3.556 6.571c-.538-.019-.987.177-1.263.554-.343.472-.386 1.173-.117 1.926l5.71 15.995z" clip-rule="evenodd"/><path fill="#FFF9E1" d="M8.633 25.02 3.031 9.11c-.32-.908.053-1.627.832-1.605l13.953.404c.704.02 1.516.733 1.819 1.593l5.198 14.775z"/><path fill="#293A6E" d="M12.338 7.718c.144.408.145.797.008 1.078-.14.284-.41.438-.75.43-.341-.009-.729-.18-1.073-.476a2.7 2.7 0 0 1-.767-1.108l2.583.075z"/><path fill="#9DA8C4" d="m19.678 21.649-7.225.187c-.312.008-.671-.29-.803-.664s.014-.684.326-.69l7.24-.148c.293-.006.634.283.762.645s-.005.662-.299.67zm-.608 2.225-4.392.153c-.307.01-.663-.283-.794-.655-.132-.372.012-.682.32-.69l4.402-.13c.296-.01.64.278.766.643.13.365-.007.668-.301.678z"/><path fill="#627EBE" d="M12.537 11.435c1.762.027 3.774 1.756 4.515 3.863s-.053 3.838-1.797 3.866c-1.768.027-3.837-1.703-4.596-3.866-.761-2.161.09-3.892 1.878-3.865z"/><path fill="#fff" d="M12.925 12.699c.702.007 1.512.707 1.812 1.56.3.856-.018 1.55-.718 1.551-.702.002-1.522-.697-1.825-1.56-.303-.865.026-1.558.731-1.551m4.184 5.258c-.316.73-.96 1.192-1.854 1.206-.92.015-1.92-.446-2.775-1.195.111-.845.796-1.434 1.822-1.44h.002c1.031-.005 2.12.583 2.805 1.43"/><path fill="#3E68F5" d="M24.165 25.196a23 23 0 0 0 4.382-1.749c.772-.403 1.623-.151 1.932.622l1.676 4.201c.309.774-.042 1.775-.815 2.179a23 23 0 0 1-4.382 1.748c-.837.238-1.781-.246-2.09-1.02l-1.676-4.2c-.309-.774.136-1.543.973-1.781"/><path fill="#EAEEFF" fill-rule="evenodd" d="M28.425 24.638c.1-.049.21-.01.25.088l.212.532c.214-.108.32-.163.531-.276.097-.052.207-.016.247.082a.224.224 0 0 1-.105.272c-.211.113-.318.169-.532.277l.212.532a.214.214 0 0 1-.108.266c-.1.048-.212.007-.25-.09l-.212-.532a17 17 0 0 1-.543.252.186.186 0 0 1-.252-.096.205.205 0 0 1 .111-.258c.218-.099.327-.15.543-.252l-.212-.533a.214.214 0 0 1 .108-.264m-2.968 1.881c-.316.101-.478.413-.36.707l.282.709c.04.098-.015.202-.12.232a.22.22 0 0 1-.265-.125l-.282-.708c-.196-.49.078-1.002.604-1.169a19 19 0 0 0 1.872-.686.19.19 0 0 1 .255.1.2.2 0 0 1-.114.254c-.736.307-1.111.445-1.872.687m1.9.964a2.7 2.7 0 0 0-.382.844c-.08.325-.065.58-.015.706a.18.18 0 0 1-.118.24.21.21 0 0 1-.26-.114c-.09-.225-.09-.561 0-.92.092-.367.282-.78.6-1.17a.33.33 0 0 1 .385-.1.31.31 0 0 1 .197.312c-.021.327-.025.746-.015 1.095.207-.323.411-.502.564-.599a.29.29 0 0 1 .318-.006.29.29 0 0 1 .125.254v.034a.6.6 0 0 1 .122-.089.65.65 0 0 1 .403-.049.18.18 0 0 1 .15.222.21.21 0 0 1-.23.166c-.107-.016-.143-.005-.16.004-.02.01-.06.042-.126.162a.33.33 0 0 1-.308.18c-.152-.014-.238-.138-.244-.268l-.003-.165a2.2 2.2 0 0 0-.426.615.32.32 0 0 1-.312.184.28.28 0 0 1-.255-.267c-.026-.338-.03-.847-.012-1.273zm2.344-1.077c.098-.051.208-.014.248.084l.707 1.773c.196.49-.04 1.1-.537 1.337-.287.137-.433.204-.726.331a.19.19 0 0 1-.253-.098.2.2 0 0 1 .112-.256c.293-.128.437-.194.726-.332a.64.64 0 0 0 .325-.797l-.708-1.774a.22.22 0 0 1 .106-.268m-4.018 2.824a.22.22 0 0 1 .263.122l.282.71c.118.293.47.456.785.357.305-.096.456-.148.757-.255a.205.205 0 0 1 .259.109.19.19 0 0 1-.117.245c-.3.108-.451.159-.756.255-.525.167-1.115-.114-1.311-.604l-.283-.709c-.04-.098.015-.2.121-.231z" clip-rule="evenodd"/><path fill="#3E68F5" d="M32.407 20.91a23 23 0 0 0 3.4-3.405c.564-.698 1.232-.678 1.54.095l1.676 4.2c.309.774.141 2.008-.423 2.706a23 23 0 0 1-3.4 3.405c-.682.553-1.516.33-1.825-.443L31.7 23.267c-.31-.774.025-1.804.707-2.358"/><path fill="#EAEEFF" fill-rule="evenodd" d="M32.973 22.156a.27.27 0 0 0-.082.292l.272.681c.037.094.135.117.218.05.24-.196.358-.296.591-.5a.29.29 0 0 0 .078-.298c-.11-.273-.163-.409-.272-.682-.037-.093-.133-.112-.214-.041-.233.204-.352.304-.591.5zm.421.557-.135-.34c.118-.099.178-.149.296-.25l.136.34c-.118.101-.177.151-.296.25zm2.314-2.947a.34.34 0 0 1 .063-.317c.207-.238.308-.358.507-.603.069-.084.155-.078.192.017l.272.681a.36.36 0 0 1-.056.325c-.2.244-.3.366-.508.602-.072.082-.16.072-.197-.023zm.327-.125.135.34c.102-.12.153-.18.253-.301l-.135-.34c-.1.121-.151.182-.253.301m-1.617 3.332c-.087-.22-.007-.532.176-.703a19 19 0 0 0 1.103-1.104c.172-.184.38-.16.467.06l.543 1.36c.088.22.023.55-.15.734a19 19 0 0 1-1.104 1.104c-.183.17-.405.129-.493-.091l-.543-1.361zm.312-.363a.1.1 0 0 0-.026.101l.543 1.362c.012.03.044.036.07.012.455-.425.677-.646 1.104-1.104a.11.11 0 0 0 .022-.104l-.543-1.36c-.012-.032-.042-.036-.068-.01a19 19 0 0 1-1.103 1.104zm2.336.56a.34.34 0 0 1 .062-.318c.207-.238.309-.358.508-.602.069-.085.155-.078.192.017.11.272.163.408.272.68a.36.36 0 0 1-.056.325c-.2.245-.301.366-.508.602-.072.082-.16.072-.198-.023zm.326-.127.137.34c.102-.12.153-.18.253-.301l-.136-.34c-.1.121-.151.182-.254.301m-3.06 2.517a.27.27 0 0 0-.082.292c.109.272.162.408.272.68.037.095.135.117.218.05.24-.196.358-.296.591-.5a.29.29 0 0 0 .078-.298l-.272-.681c-.037-.094-.133-.113-.214-.042-.233.204-.352.304-.591.5zm.42.557-.137-.34c.12-.1.178-.15.296-.25l.136.34zm-1.318-2.308a.28.28 0 0 1 .082-.292c.16-.13.239-.197.396-.33.081-.07.178-.051.215.044a.28.28 0 0 1-.079.297l-.246.208.113.283a.28.28 0 0 1-.082.293c-.083.068-.18.046-.218-.049zm.841.285c.082-.07.178-.051.215.044.073.181.11.272.181.454a.28.28 0 0 1-.079.297c-.157.134-.236.2-.395.33-.083.068-.181.046-.219-.049a.27.27 0 0 1 .082-.292c.1-.081.15-.122.249-.205l-.113-.284a.28.28 0 0 1 .08-.295m2.21-3.483a.35.35 0 0 0-.06.32l.18.453c.037.094.125.104.196.021a.35.35 0 0 0 .06-.32l-.114-.284c.085-.101.127-.151.21-.254a.36.36 0 0 0 .055-.324c-.037-.093-.123-.101-.192-.017-.133.164-.2.244-.336.404m.89.52c-.038-.093-.124-.101-.192-.017a.36.36 0 0 0-.057.323l.113.284c-.084.101-.126.151-.212.251a.35.35 0 0 0-.06.32c.038.093.126.103.197.02.136-.16.204-.241.336-.404a.36.36 0 0 0 .056-.324zm-2.917.798c-.078.073-.173.056-.21-.038-.073-.182-.11-.273-.181-.454a.3.3 0 0 1 .074-.302c.078-.074.172-.057.21.037l.113.283.233-.225c.077-.075.169-.06.206.033a.31.31 0 0 1-.07.307 18 18 0 0 1-.376.359zm.357-1.211a.32.32 0 0 1 .069-.31c.145-.149.218-.225.36-.377.074-.08.163-.068.2.027.073.181.11.272.181.454a.33.33 0 0 1-.065.314c-.074.08-.165.067-.202-.028l-.113-.284-.226.235c-.075.078-.168.063-.205-.03zm.88 4.803c.038.094.133.112.212.038.151-.141.226-.214.375-.359a.31.31 0 0 0 .07-.307c-.036-.093-.13-.109-.205-.033-.093.092-.14.137-.234.226l-.113-.284c-.037-.094-.13-.11-.21-.037a.3.3 0 0 0-.074.302c.073.182.11.273.181.454zm.638-1.482a.32.32 0 0 0-.07.309c.038.094.13.108.206.03.091-.092.136-.14.225-.234l.114.283c.037.094.127.107.202.028a.33.33 0 0 0 .065-.314l-.18-.454c-.038-.094-.127-.105-.201-.027-.142.153-.215.228-.36.378z" clip-rule="evenodd"/></g><defs><clipPath id="a"><path fill="#fff" d="M0 0h40v40H0z"/></clipPath><clipPath id="b"><rect width="33.333" height="33.333" x="3.333" y="3.333" fill="#fff" rx="16.667"/></clipPath></defs></svg>