<svg xmlns="http://www.w3.org/2000/svg" width="40" height="40" fill="none" class="persona-ilustration" viewBox="0 0 40 40"><g clip-path="url(#nBLkObuMRu_a)"><g clip-path="url(#nBLkObuMRu_b)"><rect width="33.333" height="33.333" x="3.333" y="3.333" fill="#D3EDFF" rx="16.667"/><path fill="#FFC7B6" d="M17.155 32.97c.519-3.627 3.817-4.594 5.83-1.533a256 256 0 0 1 3.681 5.793c1.431 2.313-.367 5.235-3.08 5.044a3.37 3.37 0 0 1-2.51-1.408l-3.04-4.269a5.03 5.03 0 0 1-.88-3.627"/><mask id="nBLkObuMRu_c" width="9" height="11" x="16" y="28" maskUnits="userSpaceOnUse" style="mask-type:alpha"><path fill="#fff" d="M17.323 31.797c.44-3.079 3.476-4.107 5.247-1.55a59 59 0 0 1 1.578 2.4c.99 1.593-.522 3.95-2.002 5.102-1.378 1.073-3.29 1.084-4.106-.46a65 65 0 0 1-.698-1.364 3.45 3.45 0 0 1-.319-2.03z"/></mask><g mask="url(#nBLkObuMRu_c)"><path fill="#8FC7B8" d="M17.323 31.797c.44-3.079 3.476-4.107 5.247-1.55a59 59 0 0 1 1.578 2.4c.99 1.593-.522 3.95-2.002 5.102-1.378 1.073-3.29 1.084-4.106-.46a65 65 0 0 1-.698-1.364 3.45 3.45 0 0 1-.319-2.03z"/><path fill="#43826E" d="m17.998 29.329 3.514 8.054a2.296 2.296 0 1 1-4.37 1.296l-.842-5.036"/></g><mask id="nBLkObuMRu_d" width="23" height="21" x="-3" y="20" maskUnits="userSpaceOnUse" style="mask-type:alpha"><path fill="#fff" d="M-1.606 20.813q0-.002.002-.002c.044.002 7.47.332 14.35 2.305 3.677 1.054 6.583 5.643 6.621 9.468.056 5.655-4.042 9.475-9.51 8.032a11.94 11.94 0 0 1-4.824-2.538C-.884 32.95-4.14 23.944-1.607 20.813"/></mask><g mask="url(#nBLkObuMRu_d)"><path fill="#8FC7B8" d="M-1.606 20.813q0-.002.002-.002c.044.002 7.47.332 14.35 2.305 3.677 1.054 6.583 5.643 6.621 9.468.056 5.655-4.042 9.475-9.51 8.032a11.94 11.94 0 0 1-4.824-2.538C-.884 32.95-4.14 23.944-1.607 20.813"/><path fill="#498F79" d="M3.876 17.948c1.61-1.744 5.175-1.067 7.963 1.507 2.787 2.576 3.909 8.048 2.298 9.79-1.611 1.743-6.287-.84-8.57-3.727-2.355-2.975-3.3-5.827-1.69-7.57z"/><path fill="#FFC7B6" d="M5.095 18.134v-.002c1.096-1.185 3.519-.725 5.414 1.026s2.656 5.47 1.563 6.656c-1.096 1.186-4.273-.57-5.827-2.533-1.601-2.022-2.244-3.961-1.15-5.145z"/><path fill="#000" fill-opacity=".5" d="M5.095 18.134v-.002c1.096-1.185 3.519-.725 5.414 1.026s2.656 5.47 1.563 6.656c-1.096 1.186-4.273-.57-5.827-2.533-1.601-2.022-2.244-3.961-1.15-5.145z" style="mix-blend-mode:overlay"/><path fill="#3D7360" fill-rule="evenodd" d="M7.133 16.933c-1.148-.217-2.136.003-2.738.655-.605.654-.73 1.543-.462 2.585.269 1.044.93 2.218 1.86 3.393.92 1.163 2.327 2.269 3.663 2.905.668.318 1.306.513 1.85.546.542.032.967-.098 1.247-.4.292-.317.475-.82.536-1.456.062-.632.002-1.374-.17-2.143-.346-1.542-1.134-3.157-2.244-4.182-1.123-1.038-2.397-1.687-3.542-1.903m.069-.363c1.223.231 2.558.917 3.724 1.994 1.18 1.09 1.996 2.78 2.353 4.373.179.798.244 1.58.178 2.26-.066.675-.264 1.27-.633 1.67-.381.413-.932.555-1.54.518-.608-.036-1.295-.251-1.987-.58-1.385-.66-2.837-1.8-3.794-3.01-.946-1.196-1.641-2.416-1.928-3.53-.288-1.117-.17-2.15.548-2.928.72-.78 1.859-.998 3.079-.767" clip-rule="evenodd"/></g><path fill="#3D7360" fill-rule="evenodd" d="M18.618 29.931a.185.185 0 0 1 .237.11c.72 1.97.77 4.522.644 6.566a33 33 0 0 1-.38 3.339l-.046.26-.002.014-.001.003v.002l-.18-.035.18.035a.185.185 0 1 1-.363-.07v-.005l.003-.013.01-.051.035-.202a32.747 32.747 0 0 0 .375-3.3c.125-2.033.07-4.522-.622-6.416a.185.185 0 0 1 .11-.237" clip-rule="evenodd"/><path fill="#FFC7B6" d="M34.146 24.13a2.08 2.08 0 0 0-2.649 1.508l-2.206 9.344a2.565 2.565 0 1 0 5.04.926l1.257-9.52a2.08 2.08 0 0 0-1.442-2.259"/><mask id="nBLkObuMRu_e" width="2" height="6" x="32" y="10" maskUnits="userSpaceOnUse" style="mask-type:alpha"><path fill="#fff" d="M33.764 12.507zc.056.652.118 1.213.171 1.65.079.643-.406 1.444-.758.9-.152-.234-.276-.636-.326-1.305-.17-2.304.095-2.718.896-2.812.235-.028-.014 1.219.015 1.566z"/></mask><g mask="url(#nBLkObuMRu_e)"><path fill="#FFC7B6" d="M33.764 12.507zc.056.652.118 1.213.171 1.65.079.643-.406 1.444-.758.9-.152-.234-.276-.636-.326-1.305-.17-2.304.095-2.718.896-2.812.235-.028-.014 1.219.015 1.566z"/><path fill="#FFC7B6" d="M32.435 13.79c.263.242.67-.05.524-.377a.33.33 0 1 0-.524.377"/><path fill="#000" fill-opacity=".5" d="M32.435 13.79c.263.242.67-.05.524-.377a.33.33 0 1 0-.524.377" style="mix-blend-mode:overlay"/></g></g><path fill="url(#nBLkObuMRu_f)" d="m29.358 4.26-18.759.653s-3.656 3.024-2.78 5.94c.876 2.918 1.001 6.378 2.091 7.53s3.883 2.631 5.424 2.498c1.027-.089 13.88-15.193 13.88-15.193l.15-1.427z" opacity=".25"/><path fill="#A4A1E0" d="m26.706 2.89 4.958 1.51c.527.16.874.591.863 1.072l-.362 15.772c-.007.337-.336.602-.726.588l-5.597-.198c-.704-.024-1.253-.532-1.233-1.138l.586-16.715c.024-.66.787-1.11 1.511-.888z"/><path fill="#442EA4" d="m27.264 3.044 4.958 1.495c.526.159.874.586.863 1.06l-.362 15.616c-.008.332-.337.595-.726.582l-5.598-.196c-.704-.024-1.252-.526-1.232-1.127l.586-16.55c.024-.654.787-1.1 1.51-.881z"/><path fill="#310A81" d="M26.465 4.338c.134-.32.409-.313.607-.276l1.239.35c.365.068.628.359.42.778-.15.306-.462.3-.67.257l-1.233-.31c-.367-.074-.53-.401-.363-.8"/><mask id="nBLkObuMRu_g" width="7" height="12" x="29" y="13" maskUnits="userSpaceOnUse" style="mask-type:alpha"><path fill="#fff" d="M35.817 24.653s-3.908.543-5.043-1.52c-.486-.883-1.692-3.161-1.692-3.161l1.39-1.22.755-3.238 1.572-1.723 1.275 1.213s1.743 6.236 1.742 9.651z"/></mask><g mask="url(#nBLkObuMRu_g)"><path fill="#FFC7B6" d="M35.817 24.653s-3.908.543-5.043-1.52c-.486-.883-1.692-3.161-1.692-3.161l1.39-1.22.755-3.238 1.572-1.723 1.275 1.213s1.743 6.236 1.742 9.651z"/><path fill="#FFC7B6" d="M29.057 19.72c2.729 1.825 3.334 4.88 4.665 5.167 1.332.286-5.076 0-5.076 0z"/><path fill="#000" fill-opacity=".5" d="M29.057 19.72c2.729 1.825 1.97 4.073 5.29 4.958 1.332.287-5.701.209-5.701.209z" style="mix-blend-mode:overlay"/><path fill="#FFC7B6" d="m34.188 24.606-.832-.186a2.18 2.18 0 0 1-1.256-.582l-.423-.401"/><path fill="#000" fill-opacity=".5" d="m34.188 24.606-.832-.186a2.18 2.18 0 0 1-1.256-.582l-.423-.401" style="mix-blend-mode:overlay"/><path fill="#FFC7B6" d="M32.24 15.281s.923.368.964 1.092-.09-.107-.272-.406c-.083-.137-.69-.686-.69-.686z"/><path fill="#000" fill-opacity=".5" d="M32.24 15.281s.923.368.964 1.092-.09-.107-.272-.406c-.083-.137-.69-.686-.69-.686z" style="mix-blend-mode:overlay"/><path fill="#FFC7B6" d="M31.249 16.867s.924.367.964 1.091c.041.725-.088-.107-.271-.406-.083-.137-.691-.685-.691-.685z"/><path fill="#000" fill-opacity=".5" d="M31.249 16.867s.924.367.964 1.091c.041.725-.088-.107-.271-.406-.083-.137-.691-.685-.691-.685z" style="mix-blend-mode:overlay"/><path fill="#FFC7B6" d="M30.421 18.625s.985.148 1.186.846c.202.698-.11-.085-.358-.334-.113-.115-.83-.512-.83-.512z"/><path fill="#000" fill-opacity=".5" d="M30.421 18.625s.985.148 1.186.846c.202.698-.11-.085-.358-.334-.113-.115-.83-.512-.83-.512z" style="mix-blend-mode:overlay"/></g><mask id="nBLkObuMRu_h" width="7" height="9" x="26" y="7" maskUnits="userSpaceOnUse" style="mask-type:alpha"><path fill="#fff" d="m27.399 7.608 5.4 6.183-1.11 1.215s-1.447-1.056-2.47-2.36c-.682-.869-1.98-2.792-2.288-3.68-.118-.34-.212-1.36.468-1.36z"/></mask><g mask="url(#nBLkObuMRu_h)"><path fill="#FFC7B6" d="m27.399 7.608 5.4 6.183-1.11 1.215s-1.447-1.056-2.47-2.36c-.682-.869-1.98-2.792-2.288-3.68-.118-.34-.212-1.36.468-1.36z"/><path fill="#FFC7B6" d="M26.73 7.426c.163 1.73 1.342 3.14 2.021 4.042.599.795 3.616 3.726 3.616 3.726l-3.065-1.474L26.775 10l-.55-2.067z"/><path fill="#000" fill-opacity=".5" d="M26.73 7.426c.163 1.73 1.342 3.14 2.021 4.042.599.795 3.616 3.726 3.616 3.726l-3.065-1.474L26.775 10l-.55-2.067z" style="mix-blend-mode:overlay"/></g><mask id="nBLkObuMRu_i" width="9" height="6" x="24" y="11" maskUnits="userSpaceOnUse" style="mask-type:alpha"><path fill="#fff" d="M30.994 16.792s-2.692-2.183-4.064-2.717c-1.373-.534-2.895-1.095-2.76-1.827s2.897.183 2.897.183 1.814.491 2.377.864c.64.423 2.627 1.55 2.627 1.55l-1.079 1.947z"/></mask><g mask="url(#nBLkObuMRu_i)"><path fill="#FFC7B6" d="M30.994 16.792s-2.692-2.183-4.064-2.717c-1.373-.534-2.895-1.095-2.76-1.827s2.897.183 2.897.183 1.814.491 2.377.864c.64.423 2.627 1.55 2.627 1.55l-1.079 1.947z"/><path fill="#FFC7B6" d="M24.011 12.17s.955.85 1.672 1.088c.534.178 1.478.577 1.927.769q.246.105.467.255l2.302 1.552.93 1.247-3.478-2.07-3.558-2.122-.264-.717z"/><path fill="#000" fill-opacity=".5" d="M24.011 12.17s.955.85 1.672 1.088c.534.178 1.478.577 1.927.769q.246.105.467.255l2.302 1.552.93 1.247-3.478-2.07-3.558-2.122-.264-.717z" style="mix-blend-mode:overlay"/></g><mask id="nBLkObuMRu_j" width="8" height="5" x="24" y="14" maskUnits="userSpaceOnUse" style="mask-type:alpha"><path fill="#fff" d="M24.14 15.44c-.039.258.08.94.685.862s1.506 0 1.506 0l2.72 1.325 1.54 1.326.51-2.111s-.942-.867-1.833-1.192c-.648-.236-2.394-.992-3.524-.9-.74.06-1.53.193-1.604.69"/></mask><g mask="url(#nBLkObuMRu_j)"><path fill="#FFC7B6" d="M24.14 15.44c-.039.258.08.94.685.862s1.506 0 1.506 0l2.72 1.325 1.54 1.326.51-2.111s-.942-.867-1.833-1.192c-.648-.236-2.394-.992-3.524-.9-.74.06-1.53.193-1.604.69"/><path fill="#FFC7B6" d="M24.07 16.106s.248.523.708.484c.46-.038 1.243-.21 1.51-.075.268.134 2.009.936 2.009.936l1.3.88 1.11.822-.698-1.031s-.545-.748-1.234-1.073c-.689-.326-1.898-1.017-2.434-1.038-.536-.02-1.826.133-2.291-.244-.266-.217.02.338.02.338z"/><path fill="#000" fill-opacity=".5" d="M24.07 16.106s.248.523.708.484c.46-.038 1.243-.21 1.51-.075.268.134 2.009.936 2.009.936l1.3.88 1.11.822-.698-1.031s-.545-.748-1.234-1.073c-.689-.326-1.898-1.017-2.434-1.038-.536-.02-1.826.133-2.291-.244-.266-.217.02.338.02.338z" style="mix-blend-mode:overlay"/></g><mask id="nBLkObuMRu_k" width="8" height="4" x="23" y="17" maskUnits="userSpaceOnUse" style="mask-type:alpha"><path fill="#fff" d="M29.949 20.348s-3.714-1.644-4.739-1.714-1.347-.414-1.36-.903c-.01-.429.248-.702 1.64-.51 1.394.192 5.101 1.45 5.101 1.45z"/></mask><g mask="url(#nBLkObuMRu_k)"><path fill="#FFC7B6" d="M29.949 20.348s-3.714-1.644-4.739-1.714-1.347-.414-1.36-.903c-.01-.429.248-.702 1.64-.51 1.394.192 5.101 1.45 5.101 1.45z"/><path fill="#FFC7B6" d="M30.627 21.427s-4.389-1.414-5.41-1.528-1.328-.47-1.32-.96c.007-.429.182-.835 1.565-.584 2.895.65 4.137 1.663 4.137 1.663z"/><path fill="#000" fill-opacity=".5" d="M30.627 21.427s-4.389-1.414-5.41-1.528-1.328-.47-1.32-.96c.007-.429.182-.835 1.565-.584 2.895.65 4.137 1.663 4.137 1.663z" style="mix-blend-mode:overlay"/></g><path fill="#FFC7B6" d="M5.235 12.816v8.79l7.238 1.79.157-9.82z"/><path fill="#000" d="M5.235 12.816v8.79l7.238 1.79.157-9.82z" opacity=".5" style="mix-blend-mode:overlay"/><path fill="#FFC7B6" d="M3.594 7.53s.054.97.131 2.675c.1 2.174 1.155-.534 1.58 3.063.425 3.596-.165 2.848 2.85 5.455 1.864 1.15 3.91 2.516 5.469 2.63a2.14 2.14 0 0 0 1.021-.15c2.01-.873 2.845-1.763 2.937-2.92.181-2.267.484-7.419.403-9.275-.181-4.127-1.712-4.637-3.203-5.539C13.29 2.568 4.584 1.325 3.596 7.534z"/><path fill="#FFC7B6" d="M3.76 9.7s.843.065 1.013.509l.172.443-1.184-.669z"/><path fill="#000" fill-opacity=".5" d="M3.76 9.7s.843.065 1.013.509l.172.443-1.184-.669z" style="mix-blend-mode:overlay"/><path fill="#411917" d="M3.772 11.432S3.64 9.8 4.306 9.906s1.376.615 1.457 1.546c.04.475.069.796.083.996a.36.36 0 0 0 .296.323l.218.039c.14.026.266-.09.253-.233-.09-1.012-.39-3.817-.3-3.907.108-.107 1.026-.811 1.026-.811s.09-.157-.01-1.168c5.79-3.958 10.436.423 10.436.423s-.234-1.784-1.35-3.194-4.029-2.774-7.09-2.13c-2.87.604-5.104 2.37-5.875 5.001-.77 2.63-.146 4.329.041 4.833s.283-.196.283-.196z"/><path fill="#411917" fill-rule="evenodd" d="m5.87 16.359.002.002.006.006a4 4 0 0 0 .127.133c.09.091.221.224.392.388.34.327.833.778 1.44 1.27 1.214.983 2.877 2.123 4.687 2.769a.185.185 0 0 1-.124.348c-1.866-.666-3.566-1.834-4.796-2.83a23 23 0 0 1-1.864-1.687l-.132-.138-.007-.008-.002-.002.135-.126-.136.125a.185.185 0 1 1 .272-.25" clip-rule="evenodd"/><path fill="#FFC7B6" d="M4.945 10.65S2.883 8.876 2.6 10.6c-.282 1.725.828 4.888 1.75 4.22.922-.67.955-1.553.955-1.553z"/><path fill="#FFC7B6" d="M3.347 12.689s.112 2.53 0-1.352c-.026-.91.781-.604.728-.405-.592 2.178-.126 2.566-.126 2.566"/><path fill="#000" fill-opacity=".5" d="M3.347 12.689s.112 2.53 0-1.352c-.026-.91.781-.604.728-.405-.592 2.178-.126 2.566-.126 2.566" style="mix-blend-mode:overlay"/><path fill="#FFC7B6" fill-rule="evenodd" d="M4.219 13.462c.09-.096.194-.285.294-.615a.185.185 0 0 1 .354.106q-.157.525-.38.762a.6.6 0 0 1-.26.172q-.15.044-.292-.001c-.178-.056-.325-.204-.438-.369a2.5 2.5 0 0 1-.294-.612c-.153-.453-.229-1-.145-1.436.042-.219.128-.428.283-.577.161-.154.378-.226.639-.2a.185.185 0 1 1-.036.367c-.167-.016-.273.029-.347.1-.08.077-.142.204-.176.38-.068.353-.008.833.132 1.248.07.206.156.386.248.52.096.14.183.207.245.226a.1.1 0 0 0 .07.001.25.25 0 0 0 .103-.072" clip-rule="evenodd"/><path fill="#000" fill-opacity=".5" fill-rule="evenodd" d="M4.219 13.462c.09-.096.194-.285.294-.615a.185.185 0 0 1 .354.106q-.157.525-.38.762a.6.6 0 0 1-.26.172q-.15.044-.292-.001c-.178-.056-.325-.204-.438-.369a2.5 2.5 0 0 1-.294-.612c-.153-.453-.229-1-.145-1.436.042-.219.128-.428.283-.577.161-.154.378-.226.639-.2a.185.185 0 1 1-.036.367c-.167-.016-.273.029-.347.1-.08.077-.142.204-.176.38-.068.353-.008.833.132 1.248.07.206.156.386.248.52.096.14.183.207.245.226a.1.1 0 0 0 .07.001.25.25 0 0 0 .103-.072" clip-rule="evenodd" style="mix-blend-mode:overlay"/><path fill="#411917" fill-rule="evenodd" d="m4.507 12.281-.179.016za.185.185 0 0 1-.369.032l.184-.016-.184.016v.001-.004a1 1 0 0 0-.015-.084.8.8 0 0 0-.069-.195.4.4 0 0 0-.129-.155.3.3 0 0 0-.217-.04.185.185 0 1 1-.048-.367.67.67 0 0 1 .468.098c.122.08.202.192.255.295a1.2 1.2 0 0 1 .122.406v.012z" clip-rule="evenodd"/><path fill="#411917" fill-rule="evenodd" d="m4.36 12.136-.081.16za.185.185 0 0 1-.168.329l.084-.165-.084.165-.003-.002-.016-.007a1 1 0 0 0-.265-.07.4.4 0 0 0-.2.026.3.3 0 0 0-.15.163.185.185 0 1 1-.335-.155.67.67 0 0 1 .717-.403 1.2 1.2 0 0 1 .409.113l.007.004.003.001zM12.84 15.947a.185.185 0 0 1 .26.037c.453.606 1.173.875 1.805.988a5 5 0 0 0 1.111.067h.016l.004-.001a.185.185 0 1 1 .034.368l-.016-.172.016.172h-.008l-.093.006a5.33 5.33 0 0 1-1.128-.077c-.672-.12-1.503-.414-2.038-1.13a.185.185 0 0 1 .038-.258" clip-rule="evenodd"/><path fill="#FFC7B6" d="M17.115 15.04s-.284-.538-.414-.688c-.129-.15-.463-.214-.683-.163-.541.128-1.362.235-.837.86.573.681 1.744.581 1.932-.006z"/><path fill="#000" fill-opacity=".5" d="M17.115 15.04s-.284-.538-.414-.688c-.129-.15-.463-.214-.683-.163-.541.128-1.362.235-.837.86.573.681 1.744.581 1.932-.006z" style="mix-blend-mode:overlay"/><path fill="#411917" fill-rule="evenodd" d="M15.268 10.966a.173.173 0 0 1 .225.096l-.16.064-.16.065a.173.173 0 0 1 .095-.225m1.575 2.842a.77.77 0 0 1 .022.802c-.08.14-.186.305-.307.448-.119.14-.267.279-.436.345a.173.173 0 1 1-.127-.322.84.84 0 0 0 .298-.246c.103-.122.197-.267.271-.397a.42.42 0 0 0-.01-.44c-.325-.49-.671-1.196-.934-1.771a30 30 0 0 1-.415-.955l-.024-.06-.006-.015-.003-.006.16-.065.161-.064.002.005.007.015.114.276c.079.184.19.44.32.725.261.574.598 1.257.907 1.724" clip-rule="evenodd"/><path fill="#411917" d="M11.226 9.157s1.113-.464 1.96-.309c.585.108 1.31.597 1.31.597s.212.039 0-.526c-.213-.566-1.567-.59-1.567-.59s-.802 0-1.517.375c-.297.157-.375.464-.375.464s.013.126.188-.013zM13.421 11.345c.228-.015.393-.34.369-.727s-.23-.689-.458-.674-.393.34-.368.726c.024.387.23.69.457.675"/><path fill="#411917" fill-rule="evenodd" d="m14.495 10.68-.175.048za.185.185 0 0 1-.356.101v-.002.002-.003l-.01-.022a.6.6 0 0 0-.054-.093.9.9 0 0 0-.322-.275c-.339-.183-.994-.324-2.222-.017a.185.185 0 1 1-.09-.359c1.278-.319 2.038-.192 2.488.051.224.121.364.267.449.388a1 1 0 0 1 .114.22l.001.005.001.002z" clip-rule="evenodd"/><path fill="#411917" d="M17.992 10.414s-.42-.514-1.274-.604c-.593-.063-.591-.048-.591-.048s-.276-.074.147-.505c.1-.101.564-.02.787.048.288.09.673.23.939.666.042.072.037.116.037.116s.027.303-.043.325zM17.476 11.338c.024-.387-.14-.713-.369-.727s-.433.287-.457.674.14.713.368.727c.229.014.433-.287.458-.674"/><path fill="#411917" fill-rule="evenodd" d="m16.43 11.101.002-.001.01-.013a.455.455 0 0 1 .253-.155c.175-.04.517-.006 1.063.513a.185.185 0 1 0 .255-.268c-.59-.561-1.054-.682-1.4-.606a.82.82 0 0 0-.484.318l-.008.01-.002.004-.001.002.157.098-.158-.097a.185.185 0 0 0 .314.195" clip-rule="evenodd"/></g><defs><clipPath id="nBLkObuMRu_a"><path fill="#fff" d="M0 0h40v40H0z"/></clipPath><clipPath id="nBLkObuMRu_b"><rect width="33.333" height="33.333" x="3.333" y="3.333" fill="#fff" rx="16.667"/></clipPath><linearGradient id="nBLkObuMRu_f" x1="9.338" x2="29.093" y1="14.689" y2="4.981" gradientUnits="userSpaceOnUse"><stop stop-color="#fff" stop-opacity=".5"/><stop offset=".4" stop-color="#F47398" stop-opacity=".8"/><stop offset=".64" stop-color="#ED1B57"/></linearGradient></defs></svg>