<svg xmlns="http://www.w3.org/2000/svg" width="40" height="40" fill="none" class="persona-ilustration" viewBox="0 0 40 40"><g clip-path="url(#a)"><g clip-path="url(#b)"><rect width="33.335" height="33.335" x="3.333" y="3.333" fill="#D3EDFF" rx="16.668"/><path fill="#F8F8F8" d="M22.709 21.049c0 .317.364.575.814.575s.815-.258.815-.575c0-.318-.364-.576-.815-.576s-.814.258-.814.576m2.344-.669c0 .45.737.814 1.646.814s1.646-.365 1.646-.815-.737-.815-1.646-.815-1.646.365-1.646.815m-.699-2.473a6.86 6.86 0 0 0 6.293.707 2.569 2.569 0 0 0 3.48-2.971l.038-.066a3.622 3.622 0 0 0 .505-6.46 2.574 2.574 0 0 0-2.445-2.47 6.86 6.86 0 0 0-5.99-1.033 6.9 6.9 0 0 0-1.938.92 2.57 2.57 0 0 0-2.844 3.073 2.569 2.569 0 0 0-.076 4.71 2.569 2.569 0 0 0 2.978 3.59"/><path fill="#FFC509" d="M29.778 14.087c-.308.295-.485.564-.485.983v.046a.31.31 0 0 1-.308.31h-2.05a.31.31 0 0 1-.307-.31v-.046c0-.422-.175-.684-.493-.99a2.63 2.63 0 0 1-.81-1.91c0-.728.28-1.386.786-1.887a2.6 2.6 0 0 1 1.887-.763c.678.01 1.32.281 1.809.765a2.64 2.64 0 0 1 .787 1.807 2.66 2.66 0 0 1-.817 1.995m-2.265-3.695c-.744 0-1.35.605-1.35 1.35a.22.22 0 1 0 .442 0 .91.91 0 0 1 .908-.909.22.22 0 1 0 0-.441"/><path fill="#CC6E08" d="M26.853 16.055a.31.31 0 0 1 .308-.31h1.599c.17 0 .308.139.308.31s-.138.31-.308.31h-1.6a.31.31 0 0 1-.308-.31m1.108 1.115c-.343 0-.645-.204-.822-.511h1.643c-.176.307-.478.51-.822.51"/><path fill="#FFC509" d="M27.96 9.076a.294.294 0 0 0 .294-.294v-.93a.294.294 0 0 0-.588 0v.93c0 .162.132.294.294.294m-2.403.996a.293.293 0 0 0 .208-.502l-.657-.657a.294.294 0 1 0-.416.416l.657.657a.3.3 0 0 0 .207.086m-1.924 2.404h.929a.294.294 0 0 0 0-.589h-.93a.294.294 0 1 0 0 .589m6.733-2.404a.3.3 0 0 0 .209-.086l.657-.657a.294.294 0 1 0-.416-.416l-.658.657a.294.294 0 0 0 .208.502m-4.807 4.22a.294.294 0 0 1 .208.502l-.657.657a.294.294 0 1 1-.416-.416l.657-.657a.3.3 0 0 1 .207-.086m4.808 0c.076 0 .151.028.209.086l.657.657a.294.294 0 1 1-.416.416l-.658-.657a.294.294 0 0 1 .208-.502m.996-1.816h.93a.294.294 0 1 0 0-.589h-.93a.294.294 0 1 0 0 .589"/><mask id="c" width="43" height="14" x="-11" y="27" maskUnits="userSpaceOnUse" style="mask-type:alpha"><path fill="#5BA57C" d="M10.383 27.066c5.078 0 11.149.633 12.487.947s2.988 1.018 4.236 2.828c1.25 1.81 3.197 6.911 4.014 9.236h-41.475c.818-2.325 2.765-7.427 4.014-9.236 1.248-1.81 2.899-2.514 4.236-2.828 1.338-.314 7.409-.947 12.488-.947"/></mask><g mask="url(#c)"><path fill="#8FC7B8" d="M10.383 27.066c5.078 0 11.149.634 12.487.948s2.988 1.018 4.236 2.827c1.25 1.81 3.197 6.912 4.014 9.237h-41.475c.818-2.325 2.765-7.427 4.014-9.237 1.248-1.81 2.899-2.513 4.236-2.827 1.338-.314 7.409-.948 12.488-.948"/><path fill="#498F79" d="M17.702 28.083c0 3.48-3.186 6.302-7.116 6.302S3.47 31.564 3.47 28.083s3.186-6.303 7.116-6.303 7.116 2.822 7.116 6.303"/><path fill="#3D7360" fill-rule="evenodd" d="M10.608 22.288c-3.315 0-5.984 2.422-5.984 5.388s2.669 5.387 5.984 5.387 5.985-2.421 5.985-5.387-2.67-5.388-5.985-5.388M4.42 27.676c0-3.098 2.78-5.591 6.188-5.591s6.188 2.493 6.188 5.59-2.78 5.592-6.188 5.592-6.188-2.494-6.188-5.591" clip-rule="evenodd"/><path fill="#F29B7C" d="M5.424 27.676c0 2.583 2.321 4.676 5.184 4.676s5.185-2.093 5.185-4.676c0-2.582-2.321-4.676-5.185-4.676s-5.184 2.094-5.184 4.676"/></g><rect width="9.819" height="17.23" x="20.76" y="22.222" fill="#442EA4" rx="1.512"/><rect width="3.269" height="1.501" x="21.861" y="23.397" fill="#310A81" rx=".75"/><mask id="d" width="12" height="7" x="21" y="25" maskUnits="userSpaceOnUse" style="mask-type:alpha"><path fill="#FFC7B6" d="m27.275 27.78 3.875 2.545 1.235.84-2.471.715-3.388-1.894-4.064-2.828c-.364-.24-.73-.587-.675-1.064.1-.866 1.309-.315 1.616-.225z"/></mask><g mask="url(#d)"><path fill="#FFC7B6" d="m27.275 27.78 3.875 2.545 1.235.84-2.471.714-3.388-1.893-4.064-2.828c-.364-.24-.73-.588-.675-1.064.1-.866 1.309-.316 1.616-.225z"/><path fill="#F29B7C" d="m23.207 27.534-.608-.308 1.493 1.745 5.213 3.363 1.702-.147-3.901-2.35-1.391-.756z"/></g><mask id="e" width="12" height="5" x="19" y="29" maskUnits="userSpaceOnUse" style="mask-type:alpha"><path fill="#FFC7B6" d="M19.946 29.978c-.677.371-.577 1.264-.067 1.48.36.153 1.681-.068 2.471-.068 1.286.232 1.748.349 2.986.558l5.44 1.753-.033-2.128-4.953-1.766c-1.11-.232-2.218-.256-3.53-.282-.614-.012-2.019.333-2.314.453"/></mask><g mask="url(#e)"><path fill="#FFC7B6" d="M19.946 29.978c-.676.371-.577 1.264-.066 1.48.36.153 1.68-.068 2.47-.068 1.286.232 1.749.349 2.986.558l5.44 1.753-.032-2.128-4.953-1.766c-1.111-.232-2.218-.256-3.53-.282-.614-.012-2.02.333-2.315.453"/><path fill="#F29B7C" d="m22.328 31.059-2.623.275-.578 1.679 8.31.27 1.686-.35-1.261-.488-2.361-.787z"/><path fill="#F29B7C" fill-rule="evenodd" d="M22.184 29.672a.083.083 0 0 0-.109.046c-.03.076-.07.2-.094.332a.8.8 0 0 0 .007.397c.07.197.137.341.163.392a.084.084 0 0 0 .148-.077 3 3 0 0 1-.153-.37.66.66 0 0 1-.001-.312c.021-.12.058-.233.085-.3a.083.083 0 0 0-.047-.108" clip-rule="evenodd"/></g><mask id="f" width="13" height="5" x="19" y="31" maskUnits="userSpaceOnUse" style="mask-type:alpha"><path fill="#FFC7B6" d="M20.324 32.234c-.677.372-.577 1.265-.066 1.481.36.153 1.68-.069 2.47-.069 1.286.233 1.749.35 2.986.558l5.44 1.753-.032-2.128-4.953-1.765c-1.111-.233-2.218-.256-3.53-.282-.614-.012-2.02.332-2.315.452"/></mask><g mask="url(#f)"><path fill="#FFC7B6" d="M20.324 32.235c-.677.371-.577 1.264-.066 1.48.36.153 1.68-.068 2.47-.068 1.286.232 1.749.349 2.986.558l5.44 1.753-.032-2.128-4.953-1.766c-1.111-.232-2.218-.256-3.53-.282-.614-.012-2.02.333-2.315.453"/><path fill="#F29B7C" fill-rule="evenodd" d="M22.51 31.994a.07.07 0 0 0-.092.029 1.5 1.5 0 0 0-.101.26.66.66 0 0 0-.025.322c.041.165.084.287.102.33a.068.068 0 1 0 .125-.052 3 3 0 0 1-.095-.31.54.54 0 0 1 .023-.252 1.4 1.4 0 0 1 .092-.236.07.07 0 0 0-.03-.091" clip-rule="evenodd"/><path fill="#F29B7C" d="m22.707 33.315-2.623.275-.579 1.68 8.31.269 1.686-.35-1.261-.487-2.36-.787z"/></g><mask id="g" width="13" height="5" x="20" y="33" maskUnits="userSpaceOnUse" style="mask-type:alpha"><path fill="#FFC7B6" d="M21.408 34.615c-.668.387-.516.86 0 1.063.364.144 1.679-.108 2.468-.127 1.291.201 1.756.307 2.998.486l5.481 1.623-.084-2.127-4.956-1.514c-1.116-.205-1.945.054-3.257.06-.615.002-2.358.409-2.65.535"/></mask><g mask="url(#g)"><path fill="#FFC7B6" d="M21.408 34.615c-.668.387-.516.86 0 1.063.364.144 1.679-.108 2.468-.127 1.291.201 1.756.307 2.998.486l5.481 1.623-.084-2.127-4.956-1.513c-1.116-.206-1.945.053-3.257.058-.615.003-2.358.41-2.65.537"/><path fill="#F29B7C" d="m23.847 35.22-2.616.338-.538 1.692 8.314.072 1.678-.39-1.273-.457-2.379-.73z"/></g></g><path fill="#FFC7B6" d="M17.925 13.833s1.912-2.232 2.174-.063c.262 2.172-.767 6.153-1.622 5.31-.855-.841-.886-1.952-.886-1.952z"/><path fill="#F29B7C" fill-rule="evenodd" d="M18.714 17.62c-.081-.133-.174-.396-.261-.847a.228.228 0 1 0-.448.086q.133.691.318.998a.63.63 0 0 0 .25.25.4.4 0 0 0 .358 0 .7.7 0 0 0 .236-.213c.062-.085.117-.188.166-.299a4.3 4.3 0 0 0 .248-.802c.13-.599.191-1.314.122-1.876-.034-.278-.103-.545-.234-.74a.7.7 0 0 0-.27-.246.63.63 0 0 0-.379-.054.228.228 0 1 0 .07.45.17.17 0 0 1 .107.013.3.3 0 0 1 .093.09c.071.108.13.291.16.543.061.496.007 1.158-.116 1.723-.06.281-.137.53-.219.715a1.2 1.2 0 0 1-.117.214.4.4 0 0 1-.044.052.4.4 0 0 1-.04-.056" clip-rule="evenodd"/><path fill="#A36654" fill-rule="evenodd" d="m18.046 15.775.201.022zc-.01.138.072.26.184.272s.21-.09.22-.227l.001-.004.002-.023.014-.087a1.2 1.2 0 0 1 .073-.256.5.5 0 0 1 .136-.202c.05-.04.12-.07.229-.052.111.018.213-.079.228-.216.014-.137-.065-.263-.176-.28a.62.62 0 0 0-.505.129 1 1 0 0 0-.275.391 1.9 1.9 0 0 0-.13.538l-.001.011z" clip-rule="evenodd"/><path fill="#A36654" fill-rule="evenodd" d="m18.172 15.6.124.197zc-.102.065-.127.207-.057.318s.21.15.31.085l.004-.002.016-.009.066-.032a.7.7 0 0 1 .205-.058.3.3 0 0 1 .18.028c.04.023.095.073.143.2.046.123.176.192.29.154.116-.038.172-.168.126-.291a.86.86 0 0 0-.371-.468.74.74 0 0 0-.449-.085 1.1 1.1 0 0 0-.45.152l-.009.006-.002.001zm.254.403-.127-.201z" clip-rule="evenodd"/><path fill="#FFC7B6" d="M3.235 13.878s-1.912-2.233-2.174-.063c-.262 2.172.767 6.152 1.622 5.31.855-.841.886-1.953.886-1.953z"/><path fill="#F29B7C" fill-rule="evenodd" d="M2.447 17.666c.08-.134.173-.398.26-.848a.228.228 0 0 1 .448.086q-.132.691-.318.998a.63.63 0 0 1-.25.25.4.4 0 0 1-.358 0 .66.66 0 0 1-.236-.213 1.6 1.6 0 0 1-.166-.299 4.3 4.3 0 0 1-.247-.803c-.13-.598-.192-1.313-.123-1.875.034-.278.103-.545.234-.74a.7.7 0 0 1 .27-.246.63.63 0 0 1 .379-.055.228.228 0 0 1-.07.452.17.17 0 0 0-.106.012.25.25 0 0 0-.093.09c-.072.108-.13.291-.161.543-.061.496-.007 1.158.116 1.723.06.281.137.53.219.715q.06.139.117.214a.4.4 0 0 0 .044.052.4.4 0 0 0 .04-.056" clip-rule="evenodd"/><path fill="#A36654" fill-rule="evenodd" d="m3.114 15.82-.2.022zc.01.138-.073.26-.185.272s-.21-.09-.22-.227v-.004a1 1 0 0 0-.016-.11 1.3 1.3 0 0 0-.073-.256.5.5 0 0 0-.137-.202.27.27 0 0 0-.229-.052c-.111.018-.213-.079-.227-.216s.064-.263.176-.281c.2-.032.368.02.504.13a1 1 0 0 1 .275.391 1.9 1.9 0 0 1 .13.538l.002.011z" clip-rule="evenodd"/><path fill="#A36654" fill-rule="evenodd" d="m2.988 15.645-.124.197zc.101.064.127.207.057.318s-.21.15-.311.085l-.003-.002-.016-.009-.066-.032a.7.7 0 0 0-.205-.057.3.3 0 0 0-.18.027c-.04.023-.096.072-.143.2-.046.123-.176.192-.291.154s-.17-.168-.125-.291a.86.86 0 0 1 .371-.468.74.74 0 0 1 .448-.085 1.1 1.1 0 0 1 .45.152l.01.005.002.002zm-.254.403.127-.201z" clip-rule="evenodd"/><path fill="#F29B7C" d="M6.723 27.269c0 1.909 1.73 3.456 3.863 3.456s3.862-1.547 3.862-3.456-1.729-3.456-3.863-3.456-3.862 1.547-3.862 3.456"/><path fill="#F29B7C" d="M14.448 13.647v13.825H6.723V13.647z"/><path fill="#FFC7B6" d="M10.58 4.58c3.2 0 6.524 1.368 7.36 5.418.648 2.37.091 9.82-.556 11.513-.982 2.565-5.204 4.741-6.804 4.74v-.005.006c-1.6 0-5.822-2.176-6.803-4.74-.648-1.694-1.205-9.144-.557-11.514.836-4.05 4.16-5.418 7.36-5.418v.009z"/><path fill="#411917" d="M14.398 14.24c-.358.008-.656-.375-.665-.854-.009-.48.307-.28.665-.286s.625-.217.633.262c.01.479-.274.872-.633.879"/><path fill="#411917" fill-rule="evenodd" d="m11.892 13.667.21.086za.229.229 0 0 0 .42.176l.002-.003.015-.026a1 1 0 0 1 .08-.107 1.1 1.1 0 0 1 .434-.291c.442-.176 1.267-.255 2.73.297a.228.228 0 1 0 .16-.427c-1.522-.575-2.472-.527-3.059-.294a1.6 1.6 0 0 0-.607.411 1.2 1.2 0 0 0-.17.253l-.004.006v.003z" clip-rule="evenodd"/><path fill="#411917" d="M7.924 14.39c.358.006.656-.377.665-.856s-.307-.558-.665-.564c-.359-.007-.624.061-.633.54s.274.873.633.88"/><path fill="#411917" fill-rule="evenodd" d="m9.269 13.667-.21.086za.229.229 0 0 1-.421.176l-.002-.003-.014-.026a1 1 0 0 0-.08-.107 1.1 1.1 0 0 0-.434-.291c-.443-.176-1.268-.255-2.73.297a.228.228 0 1 1-.161-.427c1.522-.575 2.472-.527 3.06-.294.292.116.485.275.606.411a1.2 1.2 0 0 1 .171.253l.003.006.001.003z" clip-rule="evenodd"/><path fill="#422A24" d="M16.084 11.977s-1.376-.573-2.422-.381c-.723.132-1.618.737-1.618.737s-.263.048 0-.65c.262-.699 1.935-.728 1.935-.728s.991 0 1.874.463c.368.194.464.573.464.573s-.016.155-.233-.016zm-11.007 0s1.376-.573 2.421-.381c.724.132 1.619.737 1.619.737s.262.048 0-.65c-.263-.699-1.936-.728-1.936-.728s-.99 0-1.874.463a.98.98 0 0 0-.463.573s.016.155.233-.016z"/><path fill="#F29B7C" d="M9.305 18.94c0 .175.57.318 1.275.318.704 0 1.275-.143 1.275-.319s-.571-.319-1.275-.319-1.275.143-1.275.32"/><path fill="#411917" fill-rule="evenodd" d="M10.61 15.2a.23.23 0 0 0-.23.23v3.19a.23.23 0 1 0 .46 0v-3.19a.23.23 0 0 0-.23-.23" clip-rule="evenodd"/><mask id="h" width="6" height="3" x="8" y="20" maskUnits="userSpaceOnUse" style="mask-type:alpha"><path fill="#F8F8F8" d="M13.08 20.503c-1.858.116-3.234.202-4.94.09-.103 1.707 1.688 2.133 2.58 2.026.756.016 2.286-.383 2.36-2.116"/></mask><g mask="url(#h)"><path fill="#411917" d="M13.079 20.503c-1.858.116-3.233.202-4.94.09-.103 1.707 1.688 2.133 2.581 2.026.756.016 2.286-.383 2.359-2.116"/><path fill="#EA4F4A" d="M12.273 22.565c0 .372-.788.673-1.761.673s-1.761-.301-1.761-.673.788-.673 1.761-.673 1.761.301 1.761.673"/><path fill="#F8F8F8" d="M13.221 21.016c-2.056.518-4.448.216-5.387 0l-.17-.894h5.671c.108-.038.236.087-.114.894"/></g><path fill="#422A24" d="M17.61 11.762q-.005.045-.005.094v2.905s.39.105.54-.196c.05-.102.04-.293.029-.486-.012-.203-.023-.407.037-.51.593-.703 1.226-.74 1.226-.74.393-3.574-.88-10.127-8.856-10.16l-.032-.001h-.031c-7.976.034-9.254 6.625-8.861 10.198 0 0 .637 0 1.231.704.06.102.048.306.037.509-.011.192-.022.384.03.486.15.301.538.196.538.196v-2.905q0-.049-.004-.094c-.01-.16-.018-.291.277-.34a.39.39 0 0 0 .332-.339 2.6 2.6 0 0 1 .544-1.404l.161-.124c.81-.628 1.89-1.467 5.746-1.512 3.857.045 4.937.884 5.747 1.512l.16.124c.296.376.491.837.544 1.404a.39.39 0 0 0 .332.34c.295.048.287.178.277.339"/></g><defs><clipPath id="a"><path fill="#fff" d="M0 0h40v40H0z"/></clipPath><clipPath id="b"><rect width="33.335" height="33.335" x="3.333" y="3.333" fill="#fff" rx="16.668"/></clipPath></defs></svg>