<svg xmlns="http://www.w3.org/2000/svg" width="80" height="80" fill="none" class="persona-ilustration" viewBox="0 0 80 80"><g clip-path="url(#a)"><g clip-path="url(#b)"><rect width="66.67" height="66.67" x="6.665" y="6.665" fill="#D3EDFF" rx="33.335"/><mask id="c" width="58" height="19" x="28" y="48" maskUnits="userSpaceOnUse" style="mask-type:alpha"><path fill="#5BA57C" d="M56.602 48.324c6.996 0 15.359.873 17.202 1.305 1.843.433 4.116 1.403 5.836 3.895s4.403 9.522 5.53 12.724H28.034c1.127-3.202 3.81-10.23 5.53-12.724 1.72-2.492 3.992-3.462 5.836-3.895 1.843-.432 10.205-1.305 17.201-1.305"/></mask><g mask="url(#c)"><path fill="#535353" d="M56.602 48.324c6.996 0 15.359.872 17.202 1.305s4.116 1.402 5.836 3.895 4.403 9.521 5.53 12.724H28.034c1.127-3.203 3.81-10.231 5.53-12.724s3.992-3.462 5.836-3.895c1.843-.433 10.205-1.305 17.201-1.305"/><path fill="#A36654" d="M49.771 49.164c0 3.557 3.197 6.441 7.142 6.441 3.944 0 7.142-2.884 7.142-6.441s-3.198-6.442-7.142-6.442-7.142 2.884-7.142 6.442"/></g><path fill="#A36654" d="M51.561 48.604c0 2.63 2.383 4.761 5.321 4.761 2.94 0 5.322-2.132 5.322-4.761s-2.383-4.761-5.322-4.761-5.321 2.131-5.321 4.76"/><path fill="#A36654" d="M62.204 29.839v19.045H51.56V29.839z"/><path fill="#F29B7C" d="M66.994 30.095s2.634-3.075 2.995-.086c.36 2.992-1.058 8.475-2.235 7.316-1.178-1.16-1.22-2.69-1.22-2.69z"/><path fill="#F29B7C" fill-rule="evenodd" d="M68.08 35.314c-.111-.184-.24-.547-.36-1.168a.314.314 0 0 0-.617.119c.123.636.267 1.09.439 1.374a.87.87 0 0 0 .345.345.55.55 0 0 0 .492-.002.9.9 0 0 0 .325-.292c.086-.117.161-.258.23-.411.135-.307.25-.693.34-1.106.179-.824.265-1.81.17-2.584-.048-.383-.144-.75-.323-1.02a.97.97 0 0 0-.371-.338.86.86 0 0 0-.523-.075.314.314 0 0 0 .096.621c.068-.01.113 0 .147.017a.35.35 0 0 1 .128.125c.099.148.178.4.221.747.084.684.01 1.595-.16 2.373-.084.388-.188.73-.301.985a1.6 1.6 0 0 1-.162.296 1 1 0 0 1-.06.072 1 1 0 0 1-.056-.078" clip-rule="evenodd"/><path fill="#A36654" fill-rule="evenodd" d="m67.16 32.77.276.031zc-.014.19.1.358.255.374.154.017.29-.123.303-.312v-.006l.004-.03.018-.121a2 2 0 0 1 .1-.353.7.7 0 0 1 .19-.278.38.38 0 0 1 .314-.072c.154.025.294-.108.314-.297.02-.19-.089-.363-.243-.387a.85.85 0 0 0-.694.179c-.181.146-.3.35-.38.539a2.6 2.6 0 0 0-.18.74v.016l-.001.005z" clip-rule="evenodd"/><path fill="#A36654" fill-rule="evenodd" d="m67.334 32.53.17.269zc-.14.088-.175.285-.079.438.097.153.289.205.43.117l-.176-.277.175.277.004-.002.022-.013a1.1 1.1 0 0 1 .374-.124.4.4 0 0 1 .246.039c.055.031.133.1.198.275.063.17.243.264.401.212s.235-.232.172-.401c-.113-.302-.288-.518-.511-.644a1.02 1.02 0 0 0-.618-.118 1.55 1.55 0 0 0-.62.21l-.012.007-.004.003z" clip-rule="evenodd"/><path fill="#F29B7C" d="M46.756 30.157s-2.634-3.075-2.995-.087c-.36 2.992 1.058 8.476 2.235 7.316 1.178-1.16 1.22-2.69 1.22-2.69z"/><path fill="#F29B7C" fill-rule="evenodd" d="M45.67 35.375c.112-.184.24-.547.36-1.168a.314.314 0 1 1 .617.12c-.123.636-.267 1.09-.438 1.373a.87.87 0 0 1-.346.346.55.55 0 0 1-.492-.002.9.9 0 0 1-.325-.293 2.3 2.3 0 0 1-.229-.411 6 6 0 0 1-.341-1.106c-.179-.824-.264-1.81-.169-2.584.047-.382.143-.75.323-1.019a1 1 0 0 1 .37-.338.86.86 0 0 1 .523-.076.314.314 0 1 1-.095.622.24.24 0 0 0-.147.017.35.35 0 0 0-.129.125c-.099.148-.178.4-.22.746-.085.684-.01 1.596.159 2.374.084.388.188.73.301.985q.086.191.162.296a1 1 0 0 0 .061.071 1 1 0 0 0 .055-.078" clip-rule="evenodd"/><path fill="#A36654" fill-rule="evenodd" d="m46.59 32.832-.276.03zc.014.19-.1.358-.255.375-.154.017-.29-.123-.303-.313v-.006l-.004-.03a2 2 0 0 0-.119-.473.7.7 0 0 0-.188-.279.38.38 0 0 0-.315-.072c-.154.025-.294-.108-.314-.297-.02-.19.089-.362.242-.387a.85.85 0 0 1 .695.179c.181.146.3.35.38.54a2.6 2.6 0 0 1 .18.74v.015l.001.005z" clip-rule="evenodd"/><path fill="#A36654" fill-rule="evenodd" d="m46.416 32.591-.17.27zc.14.089.176.285.079.438s-.289.206-.429.117l.175-.277-.175.277.001.001-.005-.003-.022-.012a1.1 1.1 0 0 0-.373-.124.4.4 0 0 0-.247.038c-.055.031-.133.1-.198.276-.063.169-.243.263-.4.211-.159-.052-.236-.232-.173-.4.113-.303.288-.519.511-.645a1.03 1.03 0 0 1 .618-.118 1.55 1.55 0 0 1 .62.21l.012.008.004.002z" clip-rule="evenodd"/><path fill="#F29B7C" d="M56.876 17.35c4.408 0 8.986 1.884 10.139 7.463.892 3.265.125 13.528-.767 15.86-1.353 3.533-7.168 6.53-9.372 6.53v-.007.007c-2.205 0-8.02-2.997-9.373-6.53-.892-2.333-1.66-12.595-.767-15.86 1.153-5.58 5.731-7.463 10.14-7.463v.011z"/><path fill="#422A24" d="M64.456 27.539s-1.896-.79-3.336-.526c-.996.183-2.229 1.016-2.229 1.016s-.361.066 0-.896c.362-.962 2.666-1.003 2.666-1.003s1.365 0 2.582.638c.506.267.638.79.638.79s-.022.213-.32-.023zm-15.163 0s1.896-.79 3.336-.526c.997.183 2.23 1.016 2.23 1.016s.361.066 0-.896c-.362-.962-2.667-1.003-2.667-1.003s-1.364 0-2.581.638c-.506.267-.638.79-.638.79s.022.213.32-.023z"/><path fill="#F29B7C" d="M55.119 37.13c0 .242.786.438 1.756.438s1.756-.196 1.756-.439c0-.242-.786-.439-1.756-.439s-1.756.197-1.756.44"/><path fill="#411917" fill-rule="evenodd" d="M56.916 31.98a.316.316 0 0 0-.316.315v4.395a.316.316 0 1 0 .632 0v-4.395a.316.316 0 0 0-.316-.316m-1.861 7.951.012.006.05.027q.072.036.212.094c.187.074.46.165.8.224.678.117 1.62.11 2.673-.4a.301.301 0 1 1 .262.542c-1.187.574-2.26.586-3.038.45a4.6 4.6 0 0 1-.92-.257 4 4 0 0 1-.346-.161l-.006-.004h-.002s-.001-.002.15-.261l-.151.26a.301.301 0 0 1 .304-.52m0 0" clip-rule="evenodd"/><mask id="d" width="85" height="28" x="-22" y="53" maskUnits="userSpaceOnUse" style="mask-type:alpha"><path fill="#5BA57C" d="M20.171 53.83c10.275 0 22.557 1.281 25.264 1.917 2.706.635 6.045 2.06 8.571 5.72 2.526 3.661 6.466 13.984 8.12 18.687h-83.91c1.654-4.703 5.594-15.026 8.12-18.687 2.527-3.66 5.865-5.085 8.572-5.72 2.707-.636 14.989-1.918 25.263-1.918"/></mask><g mask="url(#d)"><path fill="#8FC7B8" d="M20.171 53.83c10.275 0 22.557 1.281 25.264 1.917 2.706.636 6.045 2.06 8.571 5.72 2.526 3.662 6.466 13.984 8.12 18.687h-83.91c1.654-4.703 5.594-15.025 8.12-18.686 2.527-3.662 5.865-5.085 8.572-5.721S9.897 53.83 20.171 53.83"/><path fill="#498F79" d="M34.979 55.886c0 7.042-6.446 12.751-14.397 12.751-7.95 0-14.396-5.709-14.396-12.75 0-7.043 6.446-12.752 14.396-12.752s14.397 5.71 14.397 12.751"/><path fill="#3D7360" fill-rule="evenodd" d="M20.627 44.164c-6.708 0-12.108 4.9-12.108 10.9s5.4 10.9 12.108 10.9c6.707 0 12.107-4.9 12.107-10.9s-5.4-10.9-12.108-10.9m-12.52 10.9c0-6.267 5.626-11.312 12.52-11.312s12.518 5.045 12.518 11.312-5.625 11.311-12.519 11.311c-6.893 0-12.518-5.045-12.518-11.311" clip-rule="evenodd"/><path fill="#F29B7C" d="M10.138 55.064c0 5.225 4.696 9.46 10.489 9.46 5.792 0 10.488-4.235 10.488-9.46s-4.696-9.46-10.488-9.46c-5.793 0-10.49 4.235-10.49 9.46"/></g><path fill="#EA4F4A" d="M76.998 31.393c0 11.265-9.132 20.397-20.397 20.397s-20.397-9.132-20.397-20.397 9.132-20.397 20.397-20.397 20.397 9.132 20.397 20.397m-36.366 0c0 8.82 7.15 15.97 15.97 15.97s15.968-7.15 15.968-15.97-7.15-15.97-15.969-15.97c-8.82 0-15.97 7.15-15.97 15.97"/><path fill="#EA4F4A" d="m41.43 19.64 3.418-3.42 26.926 26.927-3.419 3.419z"/><path fill="#442EA4" d="M41.167 47.09a3.06 3.06 0 0 1 3.06-3.06h13.746a3.06 3.06 0 0 1 3.06 3.06v28.74a3.06 3.06 0 0 1-3.06 3.06H44.226a3.06 3.06 0 0 1-3.06-3.06z"/><path fill="#310A81" d="M43.392 47.925c0-.838.68-1.518 1.517-1.518h3.578a1.518 1.518 0 0 1 0 3.036h-3.578c-.838 0-1.517-.68-1.517-1.518"/><path fill="#FFC7B6" d="M74.523 68.412 63.47 61.338l-3.98 1.547-3.757 11.053 18.79 4.862z"/><mask id="e" width="22" height="14" x="43" y="50" maskUnits="userSpaceOnUse" style="mask-type:alpha"><path fill="#FFC7B6" d="m54.348 55.275 7.838 5.149 2.5 1.699-5 1.446-6.855-3.831-8.22-5.722c-.737-.484-1.477-1.188-1.367-2.152.201-1.752 2.648-.638 3.27-.455z"/></mask><g mask="url(#e)"><path fill="#FFC7B6" d="m54.348 55.274 7.838 5.15 2.5 1.699-5 1.445-6.855-3.83-8.22-5.722c-.737-.484-1.477-1.188-1.367-2.152.201-1.752 2.648-.638 3.27-.455z"/><path fill="#F29B7C" d="m46.117 54.778-1.23-.624 3.019 3.53 10.547 6.805 3.444-.298-7.893-4.754-2.814-1.53z"/></g><mask id="f" width="24" height="10" x="38" y="58" maskUnits="userSpaceOnUse" style="mask-type:alpha"><path fill="#FFC7B6" d="M39.519 59.722c-1.37.752-1.167 2.559-.135 2.996.729.31 3.4-.139 4.999-.139 2.602.47 3.537.706 6.04 1.129l11.007 3.546-.067-4.305-10.02-3.572c-2.248-.47-4.487-.517-7.14-.57-1.244-.025-4.086.673-4.684.915"/></mask><g mask="url(#f)"><path fill="#FFC7B6" d="M39.519 59.722c-1.37.752-1.167 2.559-.135 2.996.729.309 3.4-.139 4.999-.139 2.602.47 3.537.706 6.04 1.129l11.007 3.546-.067-4.305-10.02-3.572c-2.248-.47-4.487-.518-7.14-.57-1.244-.025-4.086.673-4.684.915"/><path fill="#F29B7C" d="m44.34 61.91-5.307.556-1.17 3.397 16.812.545 3.411-.708-2.552-.985-4.776-1.592z"/><path fill="#F29B7C" fill-rule="evenodd" d="M44.046 59.102a.17.17 0 0 0-.22.095 3.7 3.7 0 0 0-.19.67c-.047.26-.07.564.015.804.141.398.276.691.33.793a.169.169 0 0 0 .299-.156 7 7 0 0 1-.31-.75c-.054-.152-.047-.382-.002-.63.044-.241.118-.47.172-.606a.17.17 0 0 0-.094-.22" clip-rule="evenodd"/></g><mask id="g" width="24" height="9" x="39" y="63" maskUnits="userSpaceOnUse" style="mask-type:alpha"><path fill="#FFC7B6" d="M40.285 64.287c-1.37.751-1.167 2.558-.135 2.996.73.309 3.4-.139 4.999-.139 2.602.47 3.537.705 6.04 1.129l11.007 3.546-.066-4.306-10.02-3.571c-2.249-.47-4.488-.518-7.141-.57-1.244-.025-4.086.672-4.684.915"/></mask><g mask="url(#g)"><path fill="#FFC7B6" d="M40.285 64.287c-1.37.752-1.167 2.559-.135 2.996.73.309 3.4-.139 4.999-.139 2.602.47 3.537.706 6.04 1.129l11.007 3.546-.066-4.305-10.02-3.572c-2.249-.47-4.488-.518-7.141-.57-1.244-.025-4.086.673-4.684.915"/><path fill="#F29B7C" fill-rule="evenodd" d="M44.705 63.8a.137.137 0 0 0-.184.06 3 3 0 0 0-.206.527c-.058.206-.1.45-.05.65.084.333.17.58.206.666a.137.137 0 0 0 .254-.103 5 5 0 0 1-.193-.63c-.032-.127-.009-.312.047-.509a2.7 2.7 0 0 1 .185-.477.137.137 0 0 0-.059-.184" clip-rule="evenodd"/><path fill="#F29B7C" d="m45.106 66.474-5.307.556-1.17 3.397 16.812.545 3.411-.707-2.552-.986-4.776-1.592z"/></g><mask id="h" width="24" height="9" x="41" y="67" maskUnits="userSpaceOnUse" style="mask-type:alpha"><path fill="#FFC7B6" d="M42.476 69.102c-1.35.785-1.042 1.74 0 2.153.736.291 3.397-.22 4.994-.258 2.613.407 3.553.62 6.066.984l11.088 3.283-.17-4.303L54.429 67.9c-2.259-.416-3.936.108-6.59.119-1.244.004-4.77.828-5.362 1.084"/></mask><g mask="url(#h)"><path fill="#FFC7B6" d="M42.476 69.103c-1.35.784-1.043 1.74 0 2.152.736.291 3.396-.22 4.994-.258 2.612.408 3.553.62 6.065.984l11.089 3.283-.17-4.302-10.027-3.063c-2.258-.416-3.936.109-6.59.119-1.243.005-4.77.828-5.361 1.085"/><path fill="#F29B7C" d="m47.411 70.329-5.292.682-1.088 3.424 16.82.144 3.394-.789-2.575-.924-4.813-1.478z"/></g></g><path fill="#F29B7C" d="M12.767 54.241c0 3.862 3.5 6.993 7.815 6.993s7.815-3.131 7.815-6.993-3.499-6.992-7.815-6.992-7.815 3.13-7.815 6.992"/><path fill="#F29B7C" d="M28.397 26.682v27.97h-15.63v-27.97z"/><path fill="#FFC7B6" d="M35.432 27.058s3.868-4.516 4.398-.127c.53 4.394-1.552 12.448-3.282 10.745s-1.792-3.952-1.792-3.952z"/><path fill="#F29B7C" fill-rule="evenodd" d="M37.027 34.722c-.164-.27-.352-.803-.528-1.715a.462.462 0 0 0-.907.175c.18.935.392 1.601.644 2.018.126.208.289.4.508.507.243.12.5.106.722-.003.2-.097.357-.263.478-.43.125-.171.236-.379.336-.604.199-.45.369-1.016.5-1.623.263-1.21.389-2.658.249-3.795-.07-.562-.21-1.101-.474-1.497a1.4 1.4 0 0 0-.545-.497 1.27 1.27 0 0 0-.767-.11.462.462 0 0 0 .14.912c.1-.015.166 0 .216.025a.5.5 0 0 1 .188.183c.146.218.262.588.325 1.097.124 1.004.014 2.343-.234 3.486a8 8 0 0 1-.443 1.446 2.4 2.4 0 0 1-.238.435 1 1 0 0 1-.09.105 1 1 0 0 1-.08-.115" clip-rule="evenodd"/><path fill="#A36654" fill-rule="evenodd" d="m35.676 30.988.4.044zc-.02.278.148.525.374.55.227.025.426-.18.446-.458l.001-.01q0-.014.005-.045a3 3 0 0 1 .174-.695c.074-.178.167-.32.277-.408.101-.082.243-.141.462-.106.226.036.432-.16.461-.437s-.13-.532-.356-.568a1.25 1.25 0 0 0-1.02.263c-.266.214-.441.515-.557.792a3.8 3.8 0 0 0-.256 1.011l-.008.076-.002.023v.007l-.001.003zm.512.053-.257-.407z" clip-rule="evenodd"/><path fill="#FFC7B6" d="M5.71 27.149s-3.868-4.516-4.398-.127c-.53 4.394 1.553 12.447 3.282 10.744s1.792-3.951 1.792-3.951z"/><path fill="#F29B7C" fill-rule="evenodd" d="M4.116 34.813c.164-.27.352-.803.528-1.716a.462.462 0 1 1 .906.175c-.18.935-.392 1.602-.643 2.018-.126.209-.29.4-.508.507a.8.8 0 0 1-.722-.002 1.34 1.34 0 0 1-.478-.43 3.3 3.3 0 0 1-.336-.604c-.199-.45-.369-1.016-.5-1.624-.263-1.21-.389-2.658-.249-3.795.07-.562.21-1.1.474-1.496.136-.203.314-.383.545-.498.235-.117.496-.152.767-.11a.462.462 0 1 1-.14.913.35.35 0 0 0-.216.024.5.5 0 0 0-.188.184c-.146.218-.263.588-.325 1.096-.124 1.005-.014 2.344.234 3.486a8 8 0 0 0 .443 1.447q.126.28.238.434.054.074.09.105a1 1 0 0 0 .08-.114" clip-rule="evenodd"/><path fill="#A36654" fill-rule="evenodd" d="m5.467 31.078-.4.044zc.02.279-.148.525-.375.55-.226.025-.425-.18-.446-.458v-.01l-.005-.045a3 3 0 0 0-.175-.694 1 1 0 0 0-.276-.41c-.102-.081-.244-.14-.463-.105-.225.037-.431-.159-.46-.436-.03-.278.13-.532.356-.569a1.25 1.25 0 0 1 1.02.263c.266.215.441.516.556.792a3.8 3.8 0 0 1 .257 1.011l.008.076.002.023zm-.511.054.257-.408z" clip-rule="evenodd"/><path fill="#FFC7B6" d="M20.572 8.34c6.474 0 13.198 2.767 14.891 10.96 1.31 4.796.184 19.868-1.127 23.293-1.986 5.19-10.527 9.592-13.764 9.591v-.011.011c-3.237 0-11.779-4.401-13.765-9.59C5.497 39.167 4.37 24.095 5.681 19.3 7.374 11.107 14.098 8.34 20.57 8.339v.017z"/><path fill="#411917" d="M31.255 26.942c0 .944-.62 1.709-1.385 1.709-.764 0-1.384-.765-1.384-1.71 0-.943.62-1.015 1.384-1.015.765 0 1.385.072 1.385 1.016"/><path fill="#411917" fill-rule="evenodd" d="m23.225 26.721.426.176za.463.463 0 0 0 .851.357l.004-.007.029-.052c.03-.05.08-.127.16-.216.159-.177.432-.411.88-.59.895-.355 2.564-.515 5.522.603a.462.462 0 1 0 .326-.864c-3.08-1.164-5.002-1.068-6.189-.597a3.2 3.2 0 0 0-1.228.834 2.4 2.4 0 0 0-.328.472l-.018.038-.006.014-.002.005-.001.002zm-5.307 0-.427.176za.463.463 0 0 1-.852.357l-.003-.007-.03-.052a1.4 1.4 0 0 0-.16-.216 2.3 2.3 0 0 0-.88-.59c-.895-.355-2.563-.515-5.521.603a.462.462 0 1 1-.327-.864c3.08-1.164 5.003-1.068 6.19-.597.592.236.982.558 1.228.834a2.4 2.4 0 0 1 .328.472l.018.038.006.014.002.005v.002z" clip-rule="evenodd"/><path fill="#411917" d="M17.786 26.942c0 .944-.62 1.709-1.384 1.709-.765 0-1.385-.765-1.385-1.71 0-.943.62-1.015 1.385-1.015.764 0 1.384.072 1.384 1.016"/><path fill="#422A24" d="M31.706 23.303s-2.784-1.159-4.9-.771c-1.463.268-3.273 1.491-3.273 1.491s-.531.098 0-1.316c.53-1.413 3.916-1.473 3.916-1.473s2.004 0 3.79.938c.744.392.938 1.159.938 1.159s-.032.314-.47-.032zm-22.27 0s2.784-1.16 4.9-.771c1.463.267 3.273 1.491 3.273 1.491s.531.097 0-1.316c-.53-1.413-3.916-1.473-3.916-1.473s-2.004 0-3.79.938c-.744.392-.938 1.159-.938 1.159s.032.314.47-.033z"/><path fill="#F29B7C" d="M17.992 37.388c0 .356 1.154.645 2.579.645 1.424 0 2.579-.289 2.579-.645s-1.155-.645-2.58-.645c-1.424 0-2.578.289-2.578.645"/><path fill="#411917" fill-rule="evenodd" d="M20.632 29.824a.464.464 0 0 0-.464.464v6.455a.464.464 0 1 0 .928 0v-6.455a.464.464 0 0 0-.464-.464M17.43 43.118l.001-.001.019-.01.086-.045c.078-.039.198-.095.355-.158a6.8 6.8 0 0 1 1.346-.377c1.14-.197 2.725-.185 4.498.672a.506.506 0 1 0 .441-.912c-1.997-.966-3.803-.985-5.112-.758a7.8 7.8 0 0 0-1.55.435 6 6 0 0 0-.58.27l-.01.006-.004.002h-.001s-.001.001.255.439l-.256-.438a.506.506 0 1 0 .511.875m-.002 0" clip-rule="evenodd"/><path fill="#422A24" d="M34.79 22.869q-.006.092-.007.19v5.877s.787.213 1.091-.396c.103-.206.081-.594.06-.984-.024-.41-.047-.822.074-1.03 1.2-1.423 2.482-1.498 2.482-1.498.794-7.23-1.782-20.488-17.919-20.557h-.126C4.307 4.54 1.723 17.872 2.517 25.102c0 0 1.29 0 2.491 1.423.12.208.098.62.075 1.03-.022.39-.044.778.059.984.304.61 1.09.396 1.09.396v-5.877q0-.098-.007-.19c-.02-.325-.037-.589.56-.688.351-.058.639-.33.672-.685.107-1.147.501-2.08 1.1-2.84l.325-.251c1.638-1.272 3.823-2.97 11.626-3.06 7.803.09 9.988 1.788 11.625 3.06q.165.129.326.25c.598.76.993 1.694 1.1 2.84.033.355.32.628.672.686.597.099.58.363.56.688"/></g><defs><clipPath id="a"><path fill="#fff" d="M0 0h80v80H0z"/></clipPath><clipPath id="b"><rect width="66.67" height="66.67" x="6.665" y="6.665" fill="#fff" rx="33.335"/></clipPath></defs></svg>