<svg xmlns="http://www.w3.org/2000/svg" width="40" height="40" fill="none" class="persona-ilustration" viewBox="0 0 40 40"><g clip-path="url(#a)"><path fill="#D3EDFF" d="m6.417 6.99 1.51.31a.23.23 0 0 0 .232-.088l.83-1.086a.24.24 0 0 1 .222-.09l2.036.332a.23.23 0 0 0 .218-.083l.824-1.01a.23.23 0 0 1 .215-.083l2.014.318a.235.235 0 0 0 .247-.129l.375-.784a.23.23 0 0 1 .235-.13l1.958.209a.24.24 0 0 0 .211-.091l.598-.797a.23.23 0 0 1 .207-.091l1.993.176a.23.23 0 0 0 .233-.137l.255-.572a.23.23 0 0 1 .245-.135l1.54.216a.24.24 0 0 0 .212-.081l.49-.591c.097-.119.244-.077.369.014 2.872 2.103 10.642 12.264 9.82 27.167-18.092 8.684-16.275 7.714-16.275 7.714S16.885 20 6.195 7.376c-.143-.168.008-.42.224-.377z"/><path fill="#82C2F1" fill-rule="evenodd" d="M23.931 2.253q.31.226.67.554a.415.415 0 1 1-.56.613 8 8 0 0 0-.523-.44l-.004.005a.4.4 0 0 1-.159.118.4.4 0 0 1-.086.178l-.125.15-.003.004a.7.7 0 0 1-.119.108.4.4 0 0 1-.146.065.4.4 0 0 1-.153.05.7.7 0 0 1-.16-.002h-.005l-.385-.054a.415.415 0 0 1-.348-.322.415.415 0 0 1-.423.214l-.25-.035-.007.017a.4.4 0 0 1-.092.13.4.4 0 0 1-.036.156l-.063.141a.6.6 0 0 1-.107.17.4.4 0 0 1-.165.112.4.4 0 0 1-.178.088.7.7 0 0 1-.196.014h-.002l-.498-.045a.415.415 0 1 1 .073-.826l.368.033.01-.025a.4.4 0 0 1 .092-.13.4.4 0 0 1 .036-.156l.063-.142a.6.6 0 0 1 .115-.176.4.4 0 0 1 .174-.112.4.4 0 0 1 .187-.086.7.7 0 0 1 .207-.004l.384.054a.415.415 0 0 1 .348.322.415.415 0 0 1 .423-.214l.285.04.057-.068a.4.4 0 0 1 .159-.118.4.4 0 0 1 .086-.178l.122-.147a.6.6 0 0 1 .254-.185.4.4 0 0 1 .29-.001c.078-.01.16 0 .236.037a1 1 0 0 1 .154.093m-5.543 1.03.496.045a.415.415 0 0 1-.073.826l-.399-.035-.088.117a.4.4 0 0 1-.216.15.4.4 0 0 1-.082.248l-.154.205a.7.7 0 0 1-.116.116.4.4 0 0 1-.146.073.4.4 0 0 1-.152.056.7.7 0 0 1-.167.005h-.002l-.49-.053a.415.415 0 0 1 .088-.825l.388.042.087-.116a.4.4 0 0 1 .216-.15c0-.086.027-.174.082-.249l.149-.197V3.54a.6.6 0 0 1 .115-.119.4.4 0 0 1 .147-.075.4.4 0 0 1 .154-.057.6.6 0 0 1 .163-.005m6.81.705a.415.415 0 0 1 .585.038q.515.582 1.067 1.31a.415.415 0 1 1-.661.5q-.535-.703-1.029-1.262a.415.415 0 0 1 .038-.586m-9.978.075a.7.7 0 0 1 .199-.01l.49.053a.415.415 0 1 1-.089.825l-.361-.038-.038.08a.4.4 0 0 1-.15.169.4.4 0 0 1-.038.222l-.095.2-.002.003a.7.7 0 0 1-.117.164.4.4 0 0 1-.172.106.4.4 0 0 1-.187.082.6.6 0 0 1-.209 0l-.5-.079a.415.415 0 1 1 .128-.82l.37.059.036-.073a.4.4 0 0 1 .149-.17.4.4 0 0 1 .038-.222l.096-.199a.7.7 0 0 1 .11-.16.4.4 0 0 1 .165-.108q.076-.062.177-.084m-2.82.716a.7.7 0 0 1 .167.003h.002l.503.08a.415.415 0 1 1-.129.82l-.4-.063-.139.171a.41.41 0 0 1-.328.153c.026.12 0 .25-.084.352l-.204.25v.002a.6.6 0 0 1-.125.117.4.4 0 0 1-.153.069.4.4 0 0 1-.16.05.7.7 0 0 1-.164-.004l-.005-.001-.51-.083a.415.415 0 0 1 .134-.819l.405.066.14-.171a.41.41 0 0 1 .328-.153c-.027-.12 0-.25.083-.352l.205-.251v-.001a.7.7 0 0 1 .123-.116.4.4 0 0 1 .152-.069.4.4 0 0 1 .159-.05m-3.3.844a.7.7 0 0 1 .17.003l.007.001.51.083a.415.415 0 0 1-.134.819l-.4-.065-.142.185a.41.41 0 0 1-.35.163.41.41 0 0 1-.065.38l-.207.272a.7.7 0 0 1-.13.127.4.4 0 0 1-.162.074.4.4 0 0 1-.172.052.6.6 0 0 1-.183-.011l-.376-.077a.415.415 0 0 1-.325-.333.4.4 0 0 1-.182.153l.022.087-.136-.028q.098.118.193.237a.415.415 0 0 1-.644.522q-.254-.313-.516-.623l.277-.234a.415.415 0 0 1-.283-.48.4.4 0 0 1 .088-.058l-.024-.094q.063-.092.172-.143a.64.64 0 0 1 .39-.045c.151.03.28.142.321.3v.002l.001.002m-.437.52a.4.4 0 0 1-.228-.004l-.276.235a.64.64 0 0 1-.153-.366.41.41 0 0 1 .146-.35.4.4 0 0 1 .064-.15l-.082-.327 1.023.21c.172.035.296.17.326.332a.415.415 0 0 1 .43-.178l.265.054.139-.18a.41.41 0 0 1 .35-.163.41.41 0 0 1 .064-.381l.207-.27v-.002a.6.6 0 0 1 .124-.123.4.4 0 0 1 .156-.074.4.4 0 0 1 .163-.054m18.147.966a.415.415 0 0 1 .576.113q.448.666.897 1.417a.415.415 0 1 1-.712.426 32 32 0 0 0-.874-1.38.415.415 0 0 1 .113-.576M7.467 8.96a.415.415 0 0 1 .58.086q.494.666.954 1.342a.415.415 0 0 1-.686.467q-.45-.663-.934-1.314a.415.415 0 0 1 .086-.58m21.518.448a.415.415 0 0 1 .561.171q.383.717.754 1.495a.415.415 0 1 1-.75.356q-.36-.76-.736-1.46a.415.415 0 0 1 .17-.562M9.328 11.634a.415.415 0 0 1 .572.133q.438.703.844 1.411a.415.415 0 1 1-.72.412 43 43 0 0 0-.828-1.384.415.415 0 0 1 .132-.572m21.113.745a.415.415 0 0 1 .543.221q.319.756.616 1.559a.415.415 0 1 1-.778.288 37 37 0 0 0-.603-1.524.415.415 0 0 1 .222-.544m-19.467 2.066a.415.415 0 0 1 .56.174q.386.735.74 1.47a.415.415 0 1 1-.748.36 46 46 0 0 0-.726-1.444.415.415 0 0 1 .174-.56m20.65 1.027c.218-.07.452.05.522.268q.25.783.476 1.606a.415.415 0 0 1-.8.218 37 37 0 0 0-.466-1.57.415.415 0 0 1 .268-.522M12.415 17.37a.415.415 0 0 1 .547.212q.335.76.639 1.515a.415.415 0 0 1-.77.31q-.298-.743-.628-1.49a.415.415 0 0 1 .212-.547m20.115 1.285c.224-.05.446.09.496.313q.183.806.335 1.643a.415.415 0 0 1-.816.148 38 38 0 0 0-.328-1.607.415.415 0 0 1 .313-.497m-18.872 1.728a.415.415 0 0 1 .533.247q.285.78.542 1.548a.415.415 0 1 1-.787.262 54 54 0 0 0-.534-1.524.415.415 0 0 1 .246-.533m19.498 1.524a.415.415 0 0 1 .467.354q.112.819.19 1.663a.415.415 0 1 1-.825.077 38 38 0 0 0-.187-1.627.415.415 0 0 1 .355-.467m-18.443 1.559a.416.416 0 0 1 .517.277q.24.803.452 1.58a.415.415 0 1 1-.8.217 58 58 0 0 0-.447-1.557.415.415 0 0 1 .278-.517m18.785 1.736a.415.415 0 0 1 .435.393q.041.825.048 1.671a.415.415 0 0 1-.83.007 39 39 0 0 0-.047-1.636.415.415 0 0 1 .394-.435m-17.91 1.403a.415.415 0 0 1 .501.305q.199.822.365 1.603a.415.415 0 1 1-.811.173q-.165-.77-.36-1.58a.415.415 0 0 1 .305-.501m17.97 1.904c.23.008.408.2.4.429q-.014.417-.037.839l-.014.245-1.052.505a.415.415 0 0 1-.36-.748l.61-.292q.015-.29.024-.578a.415.415 0 0 1 .43-.4m-17.267 1.278a.415.415 0 0 1 .484.332q.157.849.279 1.621a.415.415 0 1 1-.82.13 60 60 0 0 0-.275-1.6.415.415 0 0 1 .332-.483m15.124.97a.415.415 0 0 1-.195.554l-1.633.783a.415.415 0 1 1-.359-.748l1.634-.783a.415.415 0 0 1 .553.195m-3.262 1.564a.415.415 0 0 1-.195.553l-1.639.783a.415.415 0 0 1-.357-.748l1.637-.784a.415.415 0 0 1 .554.196m-11.33.687c.227-.03.435.13.465.358.077.6.138 1.146.186 1.63a.415.415 0 0 1-.825.081 54 54 0 0 0-.184-1.605.415.415 0 0 1 .358-.464m8.056.877a.415.415 0 0 1-.196.553l-1.64.781a.415.415 0 1 1-.356-.749l1.639-.78a.415.415 0 0 1 .553.195m-3.274 1.559a.415.415 0 0 1-.198.552l-1.64.775a.415.415 0 0 1-.353-.75c.456-.215.997-.47 1.638-.775a.415.415 0 0 1 .553.198m-4.437.8a.415.415 0 0 1 .44.388l.012.224.158-.072a.415.415 0 1 1 .347.754c-.515.237-.723.327-.8.353a.43.43 0 0 1-.335-.023.416.416 0 0 1-.179-.558l-.001-.034a28 28 0 0 0-.03-.593.415.415 0 0 1 .388-.44m7.966-28.207a.933.933 0 0 1-.857 1.004c-1.422.113-3.492.55-5.443 1.146-1.987.607-3.671 1.328-4.433 1.94a.933.933 0 0 1-1.17-1.454c1.068-.858 3.065-1.662 5.058-2.271 2.03-.62 4.239-1.094 5.84-1.222a.933.933 0 0 1 1.005.857m1.774 3.691a.415.415 0 0 1-.376.45l-.536.046c-.7.059-1.47.123-1.992.217a.415.415 0 0 1-.146-.817c.565-.1 1.393-.17 2.095-.229l.505-.043c.228-.02.43.148.45.376m-4.061.509a.415.415 0 0 1-.304.501c-2.13.52-4.01 1.384-6.587 2.769a.415.415 0 1 1-.393-.73c2.595-1.395 4.549-2.299 6.783-2.845a.415.415 0 0 1 .501.305m2.704 3.607q-.201.04-.384.073a.415.415 0 0 1-.148-.816l.357-.068c.663-.13 1.569-.306 2.64-.306a.415.415 0 1 1 0 .83c-.984 0-1.802.159-2.465.287m-1.429-.15a.415.415 0 0 1-.312.497c-2.003.46-3.824 1.15-6.37 2.66a.415.415 0 1 1-.424-.715c2.614-1.548 4.514-2.272 6.609-2.754a.415.415 0 0 1 .497.312m2.947 3.744q-.197.046-.404.09a.415.415 0 1 1-.17-.812q.184-.038.37-.083c.626-.144 1.33-.307 2.441-.22a.415.415 0 1 1-.064.826c-.977-.075-1.56.058-2.173.2m-1.451-.129a.415.415 0 0 1-.304.502c-2.09.512-3.944 1.34-6.39 2.728a.415.415 0 1 1-.41-.721c2.482-1.408 4.41-2.276 6.602-2.813a.415.415 0 0 1 .502.304m2.535 3.902q-.186.041-.365.078a.415.415 0 0 1-.168-.812l.334-.072c.628-.137 1.411-.308 2.195-.308a.415.415 0 0 1 0 .83c-.685 0-1.366.148-1.996.284m-1.557-.073a.415.415 0 0 1-.289.51c-1.901.53-3.743 1.316-6.307 2.586a.415.415 0 1 1-.368-.744c2.58-1.277 4.476-2.091 6.453-2.64.22-.062.45.067.511.288m3.985 3.671c-.592 0-1.427.088-2.068.343a.415.415 0 0 1-.307-.771c.778-.31 1.731-.401 2.375-.401a.415.415 0 1 1 0 .83m-3.33.211a.415.415 0 0 1-.288.51c-1.902.53-3.743 1.316-6.307 2.586a.415.415 0 1 1-.368-.744c2.58-1.277 4.476-2.091 6.453-2.641a.415.415 0 0 1 .51.289" clip-rule="evenodd"/></g><defs><clipPath id="a"><path fill="#fff" d="M0 0h40v40H0z"/></clipPath></defs></svg>