<svg xmlns="http://www.w3.org/2000/svg" width="40" height="40" fill="none" class="persona-ilustration" viewBox="0 0 40 40"><g clip-path="url(#a)"><rect width="16.895" height="32.5" x="11.553" y="3.75" fill="#353535" rx="1.104"/><rect width="15.32" height="30.886" x="12.389" y="4.465" fill="#F8F8F8" rx="1.104"/><path fill="#353535" d="M21.251 4.383a1.199 1.199 0 1 1-2.398 0z"/><path fill="#375FE9" d="M2.5 13.39c0-.706.572-1.278 1.278-1.278H16.97c.706 0 1.278.572 1.278 1.278v13.192c0 .706-.572 1.278-1.278 1.278H3.778A1.28 1.28 0 0 1 2.5 26.582z"/><path fill="#F8F8F8" fill-rule="evenodd" d="M9.893 16.12a3.86 3.86 0 0 1 2.986.971.213.213 0 0 1-.286.317 3.43 3.43 0 0 0-4.014-.425.213.213 0 1 1-.213-.37c.469-.27.99-.438 1.527-.494M7.47 17.64c.095.07.116.202.047.297a3.44 3.44 0 0 0-.643 2.349.213.213 0 0 1-.424.04 3.86 3.86 0 0 1 .723-2.64.213.213 0 0 1 .297-.046m6.07.642a.213.213 0 0 1 .282.108c.214.482.44 1.257.44 1.81a.213.213 0 1 1-.426 0c0-.47-.203-1.185-.404-1.637a.213.213 0 0 1 .108-.281" clip-rule="evenodd"/><path fill="#F8F8F8" fill-rule="evenodd" d="M10.222 17.21a.213.213 0 0 1-.19.234 2.53 2.53 0 0 0-1.783 1.027.213.213 0 1 1-.344-.251 2.96 2.96 0 0 1 2.082-1.2.213.213 0 0 1 .235.19m.719.076a.213.213 0 0 1 .268-.137c.394.128.756.338 1.064.615.145.13.264.245.379.397a3.4 3.4 0 0 1 .346.605c.19.477.324.912.359 1.498.034.58-.03 1.298-.217 2.343a.213.213 0 1 1-.42-.075c.186-1.032.243-1.712.211-2.243-.03-.522-.147-.91-.326-1.359a3 3 0 0 0-.294-.513 2.3 2.3 0 0 0-.323-.337 2.5 2.5 0 0 0-.91-.526.213.213 0 0 1-.137-.268M7.605 19.32a.213.213 0 0 1 .213.231c0 .207 0 .634-.063 1.077s-.195.96-.507 1.267a.213.213 0 1 1-.299-.304c.202-.199.322-.587.384-1.023.059-.412.059-.814.059-1.02v-.015c0-.118.095-.213.213-.213" clip-rule="evenodd"/><path fill="#F8F8F8" fill-rule="evenodd" d="M10.081 17.92a2.05 2.05 0 0 1 1.586.516.213.213 0 1 1-.285.317 1.623 1.623 0 0 0-2.676.867.3.3 0 0 0-.01.104l.004.039.003.03q.005.043.007.107v.013c.005.102.023.616-.098 1.199a.213.213 0 1 1-.417-.087 4.7 4.7 0 0 0 .09-1.113l-.007-.09-.006-.067a.8.8 0 0 1 .017-.224 2.05 2.05 0 0 1 1.792-1.611m1.931 1.355a.213.213 0 0 1 .264.146c.078.273.146.667.153 1.148a.213.213 0 0 1-.427.006 4 4 0 0 0-.136-1.036.213.213 0 0 1 .146-.264m.166 2.045a.213.213 0 0 1 .178.244 6.8 6.8 0 0 1-.641 1.979.213.213 0 0 1-.382-.19 6.4 6.4 0 0 0 .602-1.856.213.213 0 0 1 .243-.177m-3.953.367a.213.213 0 0 1 .093.287 2.2 2.2 0 0 1-.521.677.213.213 0 1 1-.278-.324 1.8 1.8 0 0 0 .42-.547.213.213 0 0 1 .286-.093" clip-rule="evenodd"/><path fill="#F8F8F8" fill-rule="evenodd" d="M10.176 18.82a1.145 1.145 0 0 1 1.165.674c.08.183.556 1.818-.78 4.218a.213.213 0 0 1-.373-.208c.637-1.143.834-2.088.868-2.755a3.8 3.8 0 0 0-.035-.784 2 2 0 0 0-.045-.218q-.022-.078-.025-.08a.717.717 0 0 0-1.238-.13.7.7 0 0 0-.12.263v.381a8 8 0 0 1-.062.892c-.092.684-.318 1.529-.894 2.124a.213.213 0 1 1-.306-.296c.48-.497.69-1.23.777-1.884.043-.323.056-.618.059-.841v-.37c0-.018 0-.055.008-.086a1.145 1.145 0 0 1 1-.9" clip-rule="evenodd"/><path fill="#F8F8F8" fill-rule="evenodd" d="M10.278 19.804a.213.213 0 0 1 .251.166c.038.184.035.497.007.823-.028.334-.085.71-.169 1.031a.213.213 0 1 1-.412-.107c.076-.292.13-.644.157-.96.027-.324.024-.583 0-.701a.213.213 0 0 1 .166-.252m-.366 2.705c.107.05.153.176.104.283a6.4 6.4 0 0 1-.532.938.213.213 0 0 1-.35-.244 6 6 0 0 0 .495-.873.213.213 0 0 1 .283-.104m-5.077-6.251c0-1 .81-1.81 1.81-1.81H8.51a.213.213 0 1 1 0 .425H6.646c-.765 0-1.385.62-1.385 1.385v1.864a.213.213 0 1 1-.426 0zm7.19-1.598c0-.117.095-.213.213-.213h1.864c1 0 1.81.811 1.81 1.811v1.864a.213.213 0 1 1-.425 0v-1.864c0-.765-.62-1.385-1.385-1.385h-1.864a.213.213 0 0 1-.213-.213m-6.977 6.977c.118 0 .213.096.213.213v1.864c0 .765.62 1.385 1.385 1.385H8.51a.213.213 0 0 1 0 .426H6.646c-1 0-1.811-.81-1.811-1.81V21.85c0-.117.095-.213.213-.213m10.652 0c.117 0 .213.096.213.213v1.864c0 1-.81 1.811-1.811 1.811h-1.864a.213.213 0 0 1 0-.426h1.864c.765 0 1.385-.62 1.385-1.385V21.85c0-.117.095-.213.213-.213" clip-rule="evenodd"/><path fill="#375FE9" d="M21.752 13.418c0-.706.572-1.278 1.278-1.278h13.192c.706 0 1.278.572 1.278 1.278V26.61c0 .706-.572 1.278-1.278 1.278H23.03a1.28 1.28 0 0 1-1.278-1.278z"/><path fill="#fff" fill-rule="evenodd" d="M24.028 16.258c0-1 .811-1.81 1.811-1.81h1.864a.213.213 0 1 1 0 .425H25.84c-.765 0-1.385.62-1.385 1.385v1.864a.213.213 0 1 1-.426 0zm7.19-1.598c0-.117.096-.213.213-.213h1.864c1 0 1.811.811 1.811 1.811v1.864a.213.213 0 1 1-.426 0v-1.864c0-.765-.62-1.385-1.385-1.385h-1.864a.213.213 0 0 1-.213-.213m-6.977 6.977c.118 0 .213.096.213.213v1.864c0 .765.62 1.385 1.385 1.385h1.864a.213.213 0 0 1 0 .426H25.84c-1 0-1.81-.81-1.81-1.81V21.85c0-.117.095-.213.212-.213m10.652 0c.118 0 .213.096.213.213v1.864c0 1-.81 1.811-1.81 1.811H31.43a.213.213 0 1 1 0-.426h1.864c.765 0 1.385-.62 1.385-1.385V21.85c0-.117.096-.213.213-.213m-6.713-4.024c.118 0 .213.095.213.213v.971a.213.213 0 0 1-.426 0v-.971c0-.118.095-.213.213-.213m2.776 0c.118 0 .213.095.213.213v.971a.213.213 0 0 1-.426 0v-.971c0-.118.096-.213.213-.213m.791 3.632a.213.213 0 0 1 .093.287c-.233.453-.993 1.365-2.203 1.365-.605 0-1.12-.23-1.513-.508a3.1 3.1 0 0 1-.819-.842.213.213 0 0 1 .362-.225c.115.185.359.476.703.72.342.242.773.429 1.267.429.986 0 1.63-.754 1.824-1.134a.213.213 0 0 1 .286-.092" clip-rule="evenodd"/></g><defs><clipPath id="a"><path fill="#fff" d="M0 0h40v40H0z"/></clipPath></defs></svg>