<svg xmlns="http://www.w3.org/2000/svg" width="80" height="80" fill="none" class="persona-ilustration" viewBox="0 0 80 80"><g clip-path="url(#a)"><rect width="33.789" height="65" x="23.105" y="7.5" fill="#353535" rx="2.207"/><rect width="30.641" height="61.771" x="24.778" y="8.93" fill="#F8F8F8" rx="2.207"/><path fill="#353535" d="M42.502 8.766a2.398 2.398 0 1 1-4.796 0z"/><path fill="#375FE9" d="M5 26.78a2.556 2.556 0 0 1 2.556-2.556H33.94a2.556 2.556 0 0 1 2.556 2.557v26.383a2.556 2.556 0 0 1-2.556 2.557H7.556A2.556 2.556 0 0 1 5 53.164z"/><path fill="#F8F8F8" fill-rule="evenodd" d="M19.787 32.239a7.72 7.72 0 0 1 5.97 1.943.426.426 0 0 1-.57.633 6.87 6.87 0 0 0-8.029-.849.426.426 0 0 1-.425-.738 7.7 7.7 0 0 1 3.054-.99m-4.846 3.04c.19.14.232.406.093.596a6.87 6.87 0 0 0-1.285 4.696.426.426 0 0 1-.848.081 7.72 7.72 0 0 1 1.445-5.279.426.426 0 0 1 .595-.093m12.14 1.284a.426.426 0 0 1 .563.217c.428.963.88 2.515.88 3.619a.426.426 0 0 1-.852 0c0-.94-.405-2.369-.807-3.273a.426.426 0 0 1 .216-.562" clip-rule="evenodd"/><path fill="#F8F8F8" fill-rule="evenodd" d="M20.443 34.42a.426.426 0 0 1-.38.467 5.06 5.06 0 0 0-3.564 2.054.426.426 0 1 1-.69-.502 5.9 5.9 0 0 1 4.166-2.4.426.426 0 0 1 .468.38m1.438.151a.426.426 0 0 1 .538-.273 5.9 5.9 0 0 1 2.127 1.23c.29.261.529.49.757.793.227.302.434.663.682 1.185l.011.026c.38.953.648 1.823.717 2.996.07 1.16-.057 2.596-.432 4.686a.426.426 0 1 1-.84-.15c.371-2.065.485-3.425.422-4.486-.062-1.045-.296-1.82-.653-2.718-.234-.49-.41-.79-.588-1.026-.177-.236-.366-.42-.646-.673a5.1 5.1 0 0 0-1.821-1.053.426.426 0 0 1-.274-.537m-6.671 4.07a.426.426 0 0 1 .426.463c0 .413 0 1.268-.126 2.154-.125.885-.39 1.92-1.013 2.533a.426.426 0 1 1-.598-.607c.404-.398.644-1.174.768-2.046.117-.825.117-1.63.116-2.04v-.03c0-.236.191-.427.427-.427" clip-rule="evenodd"/><path fill="#F8F8F8" fill-rule="evenodd" d="M20.163 35.84a4.1 4.1 0 0 1 3.17 1.032.426.426 0 1 1-.57.633 3.25 3.25 0 0 0-5.352 1.734.7.7 0 0 0-.018.21l.008.076.006.059q.008.089.014.216v.026c.008.205.046 1.232-.197 2.398a.426.426 0 1 1-.834-.174c.221-1.062.187-2.002.18-2.2l-.001-.026a2 2 0 0 0-.013-.181l-.012-.133a1.5 1.5 0 0 1 .034-.45 4.1 4.1 0 0 1 3.585-3.22m3.862 2.71a.426.426 0 0 1 .527.293c.156.546.292 1.332.305 2.295a.426.426 0 1 1-.852.011c-.012-.891-.138-1.603-.272-2.072a.426.426 0 0 1 .292-.527m.332 4.09a.426.426 0 0 1 .355.487 13.6 13.6 0 0 1-1.282 3.958.426.426 0 0 1-.763-.38 12.8 12.8 0 0 0 1.203-3.71.426.426 0 0 1 .487-.355m-7.906.734c.21.107.292.364.185.573a4.4 4.4 0 0 1-1.043 1.355.426.426 0 1 1-.555-.647c.35-.3.625-.677.84-1.096a.426.426 0 0 1 .573-.185" clip-rule="evenodd"/><path fill="#F8F8F8" fill-rule="evenodd" d="M20.351 37.642a2.29 2.29 0 0 1 2.33 1.346c.162.365 1.112 3.635-1.56 8.435a.426.426 0 1 1-.745-.415c1.273-2.286 1.668-4.177 1.737-5.51a7.5 7.5 0 0 0-.071-1.57 4 4 0 0 0-.09-.434 2 2 0 0 0-.05-.16 1.438 1.438 0 0 0-2.715.265l-.001.03v.216c0 .135.002.31 0 .517a15 15 0 0 1-.125 1.785c-.182 1.366-.635 3.056-1.788 4.247a.426.426 0 0 1-.612-.593c.962-.993 1.381-2.46 1.556-3.767.086-.646.11-1.236.116-1.683q.004-.298 0-.5v-.24c.002-.036.003-.108.016-.17a2.29 2.29 0 0 1 2.002-1.8" clip-rule="evenodd"/><path fill="#F8F8F8" fill-rule="evenodd" d="M20.556 39.608a.426.426 0 0 1 .503.332c.076.367.07.993.014 1.646-.057.668-.171 1.42-.338 2.062a.426.426 0 0 1-.825-.215c.152-.584.26-1.287.314-1.92.055-.646.05-1.165 0-1.402a.426.426 0 0 1 .332-.503m-.731 5.41a.426.426 0 0 1 .207.566 13 13 0 0 1-1.064 1.875.426.426 0 1 1-.7-.487c.233-.334.624-.952.991-1.746a.426.426 0 0 1 .566-.208M9.67 32.516c0-2 1.622-3.622 3.622-3.622h3.728a.426.426 0 1 1 0 .852h-3.728a2.77 2.77 0 0 0-2.77 2.77v3.728a.426.426 0 0 1-.852 0zm14.38-3.196c0-.235.191-.426.426-.426h3.729c2 0 3.621 1.622 3.621 3.622v3.728a.426.426 0 0 1-.852 0v-3.728a2.77 2.77 0 0 0-2.77-2.77h-3.728a.426.426 0 0 1-.426-.426M10.097 43.274c.235 0 .426.19.426.426v3.728a2.77 2.77 0 0 0 2.769 2.77h3.728a.426.426 0 0 1 0 .852h-3.728c-2 0-3.622-1.621-3.622-3.622V43.7c0-.235.191-.426.427-.426m21.303 0c.235 0 .426.19.426.426v3.728c0 2-1.621 3.622-3.622 3.622h-3.728a.426.426 0 1 1 0-.852h3.729a2.77 2.77 0 0 0 2.769-2.77V43.7c0-.235.19-.426.426-.426" clip-rule="evenodd"/><path fill="#375FE9" d="M43.503 26.836a2.556 2.556 0 0 1 2.557-2.557h26.383A2.556 2.556 0 0 1 75 26.836v26.383a2.556 2.556 0 0 1-2.557 2.557H46.06a2.556 2.556 0 0 1-2.557-2.557z"/><path fill="#fff" fill-rule="evenodd" d="M48.056 32.516c0-2 1.622-3.622 3.622-3.622h3.728a.426.426 0 1 1 0 .852h-3.728a2.77 2.77 0 0 0-2.77 2.77v3.728a.426.426 0 0 1-.852 0zm14.38-3.196c0-.235.19-.426.426-.426h3.728c2 0 3.622 1.622 3.622 3.622v3.728a.426.426 0 1 1-.852 0v-3.728a2.77 2.77 0 0 0-2.77-2.77h-3.728a.426.426 0 0 1-.426-.426M48.482 43.274c.236 0 .426.19.426.426v3.728a2.77 2.77 0 0 0 2.77 2.77h3.728a.426.426 0 0 1 0 .852h-3.728c-2 0-3.622-1.621-3.622-3.622V43.7c0-.235.19-.426.426-.426m21.304 0c.235 0 .426.19.426.426v3.728c0 2-1.622 3.622-3.622 3.622h-3.728a.426.426 0 1 1 0-.852h3.728a2.77 2.77 0 0 0 2.77-2.77V43.7c0-.235.19-.426.426-.426m-13.428-8.049c.235 0 .426.191.426.426v1.944a.426.426 0 0 1-.852 0V35.65c0-.235.19-.426.426-.426m5.552.001c.235 0 .426.191.426.426v1.944a.426.426 0 1 1-.852 0V35.65c0-.235.19-.426.426-.426m1.583 7.266c.21.107.292.364.185.573-.466.908-1.986 2.73-4.406 2.73-1.21 0-2.24-.458-3.026-1.014-.784-.555-1.35-1.222-1.638-1.685a.426.426 0 1 1 .724-.45c.23.37.718.952 1.406 1.439.685.484 1.546.858 2.534.858 1.972 0 3.258-1.508 3.647-2.266a.426.426 0 0 1 .574-.185" clip-rule="evenodd"/></g><defs><clipPath id="a"><path fill="#fff" d="M0 0h80v80H0z"/></clipPath></defs></svg>