<svg xmlns="http://www.w3.org/2000/svg" width="40" height="40" fill="none" class="persona-ilustration" viewBox="0 0 40 40"><g clip-path="url(#a)"><g clip-path="url(#b)"><rect width="33.333" height="33.333" x="3.333" y="3.333" fill="#D3EDFF" rx="16.667"/><path fill="#293A6E" fill-rule="evenodd" d="M3.42 11.693c-.34-.951-.286-1.837.148-2.432l.034-.044 1.5-1.923-.002.004-.017.022a1.9 1.9 0 0 0-.318.733l.512-.655c.313-.402.815-.61 1.413-.586l-1.515 1.94a2 2 0 0 0-.26.005c.02.3.087.62.204.947l-.137.175 16.326 45.727c.693 1.716 1.875 2.742 3.224 2.846q.285.021.58-.012L40.8 56.634l.093-.12a3.5 3.5 0 0 0-.208-1.178l.27-.347-.272.349-15.174-42.976c-.546-1.543-2.025-2.844-3.328-2.944l1.515-1.94c1.303.1 2.782 1.399 3.328 2.944l15.175 42.973c.309.867.277 1.705-.083 2.296l-.231.296.23-.296q-.05.084-.109.16l-.488.625q.38-.165.642-.498l-1.513 1.938c-.282.362-.678.58-1.155.635L23.597 60.38q-.294.033-.58.012c-1.351-.104-2.53-1.129-3.224-2.846l1.493-1.913-1.495 1.913z" clip-rule="evenodd"/><path fill="#293A6E" d="m5.117 7.276-.015.018zM22.18 9.418l1.516-1.94L6.69 6.812l-1.515 1.94z"/><path fill="#FFF9E1" fill-rule="evenodd" d="M42.284 55.798c.388-.636.424-1.529.098-2.448l-.002-.002-15.174-42.975c-.572-1.617-2.133-2.98-3.598-3.092L6.68 6.62c-.68-.024-1.247.224-1.595.7-.434.595-.488 1.48-.148 2.432l16.37 45.853c.694 1.717 1.874 2.742 3.225 2.846q.287.021.58-.012l15.895-1.828a1.68 1.68 0 0 0 1.277-.814" clip-rule="evenodd"/><path fill="#293A6E" d="m42.54 58.592-17.098 1.974c-1.39.161-3.014-1.096-3.616-2.809L4.931 9.711c-.602-1.713.104-3.062 1.566-3.016l17.985.573c1.317.042 2.838 1.38 3.405 2.989l15.889 45.16c.566 1.61.016 3.03-1.236 3.175"/><path fill="#FFF9E1" d="M42.013 57.563 25.23 59.447c-.935.105-2.024-.74-2.428-1.89L6.017 9.828c-.404-1.148.067-2.055 1.05-2.028l17.62.51c.89.025 1.914.927 2.296 2.012l15.869 45.102c.383 1.085.008 2.043-.837 2.137z"/></g><path fill="#293A6E" fill-rule="evenodd" d="M3.42 11.693c-.34-.952-.286-1.837.148-2.433l.034-.044 1.5-1.922-.002.004q-.007.011-.017.022a1.9 1.9 0 0 0-.318.733l.512-.656c.314-.401.815-.61 1.413-.585l-1.515 1.94a2 2 0 0 0-.26.005c.02.3.087.619.204.947l-.136.175 7.026 19.679 19.214-.901-5.713-16.295c-.546-1.543-2.025-2.844-3.328-2.944l1.515-1.94c1.303.1 2.782 1.398 3.328 2.943l6.541 18.526-23.767.61z" clip-rule="evenodd"/><path fill="#293A6E" d="m5.117 7.276-.014.018zM22.18 9.418l1.517-1.94L6.69 6.811l-1.515 1.94z"/><path fill="#293A6E" fill-rule="evenodd" d="m34.37 28.788-6.502-18.416c-.572-1.617-1.93-3.347-4.26-3.092L6.68 6.62c-.68-.023-1.247.225-1.595.7-.433.596-.487 1.481-.148 2.433l7.212 20.199z" clip-rule="evenodd"/><path fill="#FFF9E1" d="M13.09 29.92 6.018 9.827c-.404-1.148.067-2.055 1.05-2.028l17.62.51c.89.025 1.914.926 2.296 2.012l6.565 18.659z"/><path fill="#293A6E" d="M17.769 8.07c.182.514.184 1.005.01 1.36-.175.359-.516.553-.947.543s-.92-.226-1.355-.6a3.4 3.4 0 0 1-.968-1.4l3.262.094z"/><mask id="c" width="13" height="12" x="24" y="3" maskUnits="userSpaceOnUse" style="mask-type:alpha"><path fill="#009444" d="M30.666 15a5.667 5.667 0 1 0 0-11.333 5.667 5.667 0 0 0 0 11.333"/></mask><g mask="url(#c)"><path fill="#F18513" d="M30.666 15a5.667 5.667 0 1 0 0-11.333 5.667 5.667 0 0 0 0 11.333"/><path fill="#FFB700" d="M29.323 13.695a5.667 5.667 0 1 0 0-11.334 5.667 5.667 0 0 0 0 11.334"/><circle cx="30.646" cy="12.316" r=".852" fill="#6C3820"/><path fill="#6C3820" d="M29.827 6.35a.82.82 0 1 1 1.639 0l-.156 4.05a.664.664 0 0 1-1.327 0z"/></g><path fill="#EA4F4A" fill-rule="evenodd" d="M17.12 16.558c.25-.352.69-.549 1.223-.549h1.692c.533 0 1.116.197 1.623.55l2.091 1.451h.477c1.514 0 3.162 1.154 3.68 2.577l1.683 4.624c.518 1.423-.29 2.577-1.804 2.577h-8.618c-1.514 0-3.162-1.154-3.68-2.577l-1.683-4.624c-.518-1.423.29-2.576 1.805-2.576h.476zm1.716 6.015c-.518-1.423.29-2.576 1.804-2.576s3.162 1.153 3.68 2.576-.29 2.577-1.804 2.577-3.162-1.154-3.68-2.577" clip-rule="evenodd"/></g><defs><clipPath id="a"><path fill="#fff" d="M0 0h40v40H0z"/></clipPath><clipPath id="b"><rect width="33.333" height="33.333" x="3.333" y="3.333" fill="#fff" rx="16.667"/></clipPath></defs></svg>