<svg xmlns="http://www.w3.org/2000/svg" width="80" height="80" fill="none" class="persona-ilustration" viewBox="0 0 80 80"><g clip-path="url(#a)"><g clip-path="url(#b)"><g clip-path="url(#c)"><rect width="66.667" height="66.667" x="6.667" y="6.667" fill="#D3EDFF" rx="33.33"/><path fill="#FFC509" d="M66.338 104.082c-3.739 2.716-22.09 2.029-26.159-8.334C44.464 84.97 52.582 55.39 70.402 58.525c6.287 1.106-1.856 34.379-4.064 45.557"/><mask id="d" width="82" height="111" x="43" y="51" maskUnits="userSpaceOnUse" style="mask-type:alpha"><path fill="#4C4C4C" d="M51.298 69.93s12.033-11.315 14.109-12.122c9.712-3.778 27.74-6.922 32.208-6.357 4.469.565 18.426 4.15 13.097 24.484-7.932 30.264 13.343 84.355 13.343 84.355s-57.309 3.598-75.937-.058c-2.837-20.301-2.454-29.634-4.62-60.75.015-20.472 7.8-29.553 7.8-29.553"/></mask><g mask="url(#d)"><path fill="#FFC509" d="M51.298 69.928S63.33 58.614 65.406 57.807c9.712-3.778 27.74-6.922 32.209-6.357s18.426 4.15 13.097 24.484c-7.932 30.264 13.343 84.355 13.343 84.355s-51.09 3.472-69.718-.185c-2.837-20.3-3.987-28.341-6.154-59.457-2.8-23.53 3.115-30.719 3.115-30.719"/><path fill="#FF7300" fill-rule="evenodd" d="M88.96 52.869c.982-1.529 1.981-3.034 3.16-4.471l.89.73c-1.133 1.383-2.101 2.84-3.08 4.364l-.5.782c-.816 1.277-1.66 2.597-2.616 3.927-2.32 3.225-5.317 6.526-10.348 9.67-3.311 2.07-5.851 2.734-7.795 2.254-1.986-.49-3.143-2.115-3.817-4.08s-.911-4.393-.986-6.738c-.051-1.58-.028-3.161-.008-4.558.01-.672.02-1.301.02-1.867h1.152c0 .597-.01 1.243-.02 1.925-.02 1.381-.042 2.91.007 4.463.075 2.318.31 4.605.925 6.402.617 1.797 1.567 2.98 3.003 3.334 1.479.365 3.674-.09 6.908-2.112 4.881-3.05 7.774-6.239 10.023-9.366.937-1.302 1.76-2.59 2.576-3.867q.253-.398.507-.792" clip-rule="evenodd"/></g><mask id="e" width="23" height="51" x="65" y="26" maskUnits="userSpaceOnUse" style="mask-type:alpha"><path fill="#FFC7B6" d="M65.127 41.488s2.91 20.195 2.91 21.302c1.728 29.372 6.46 4.131 19.296-10.435-.924-4.877-.332-5.731-2.735-20.675-2.402-14.943-19.475 9.806-19.475 9.806z"/></mask><g mask="url(#e)"><path fill="#F1AA90" d="M65.127 41.488s2.91 20.195 2.91 21.302c2.99 5.833 6.46 4.131 19.296-10.435-.924-4.877-.332-5.731-2.735-20.675-2.402-14.943-19.475 9.806-19.475 9.806z"/><path fill="#000" fill-opacity=".5" d="M85.851 31.094s-.26 8.872-8.552 17.799c-13.137 9.95-19.739 3.716-19.739 3.716l24.366-25.332z" style="mix-blend-mode:overlay"/></g><path fill="#FFC7B6" d="M28.54 82.502 27.253 78.9v-6.483l4.477 4.991 1.08 4.785z"/><path fill="#FFC7B6" d="M28.54 82.502 27.253 78.9v-6.483l4.477 4.991 1.08 4.785z"/><path fill="#000" d="M28.54 82.502 27.254 78.9v-6.483l4.476 4.991 1.08 4.785z" opacity=".75" style="mix-blend-mode:overlay"/><path fill="#F1AA90" d="m89.933 104.134-31.35-38.86-12.2 6.17c8.55 13.802 23.972 47.878 29.676 50.979 7.13 3.878 11.036.197 13.874-3.355 3.482-4.356 2.773-12.238 0-14.934"/><path fill="#EE9574" d="M52.008 74.222c-1.971.36-3.975 0-3.975 0l-2.595-3.86 12.857-2.558s.026 1.417-1.024 3.07c-1.347 2.12-2.924 2.92-5.263 3.348"/><mask id="f" width="9" height="16" x="34" y="52" maskUnits="userSpaceOnUse" style="mask-type:alpha"><path fill="#F1AA90" d="M36.542 52.35c1.425 0 2.26 4.584 2.873 6.782l2.813 3.637-.291 4.705h-2.861l-4.899-6.79v-5.05c-.032-.743 0-3.285 2.365-3.285"/></mask><g mask="url(#f)"><path fill="#F1AA90" d="M36.542 52.35c1.425 0 2.26 4.584 2.873 6.782l2.813 3.637-.291 4.705h-2.861l-4.899-6.79v-5.05c-.032-.743 0-3.285 2.365-3.285"/></g><mask id="g" width="12" height="16" x="36" y="36" maskUnits="userSpaceOnUse" style="mask-type:alpha"><path fill="#F1AA90" d="m40.258 45.666 1.31 6.062 5.577-2.134-1.843-5.48c-.47-.889-2.202-3.327-5.383-5.965-2.512-2.083-3.436-.998-3.674.314-.122.675.139 1.346.517 1.917z"/></mask><g mask="url(#g)"><path fill="#F1AA90" d="m40.258 45.666 1.31 6.062 5.577-2.134-1.843-5.48c-.47-.889-2.202-3.327-5.383-5.965-2.512-2.083-3.436-.998-3.674.314-.122.675.139 1.346.517 1.917z"/><path fill="#000" fill-opacity=".5" d="m38.644 46.2.39 6.19 5.832-1.277-1.003-5.694c-.331-.95-1.68-3.618-4.432-6.702-2.172-2.434-3.248-1.5-3.679-.238-.222.649-.064 1.35.224 1.973z" style="mix-blend-mode:overlay"/></g><mask id="h" width="21" height="19" x="39" y="54" maskUnits="userSpaceOnUse" style="mask-type:alpha"><path fill="#F1AA90" d="M56.069 57.173c1.334 1.053 2.78 5.238 3.335 7.198.458 6.002-5.876 8.876-8.472 7.34-1.113.9-4.238 1.165-7.258-.424-3.095-1.63-3.723-2.618-4.629-3.846l3.25-12.803c4.035.406 12.44 1.482 13.774 2.535"/></mask><g mask="url(#h)"><path fill="#F1AA90" d="M56.069 57.173c1.334 1.053 2.78 5.238 3.335 7.198.458 6.002-5.876 8.876-8.472 7.34-1.113.9-4.238 1.165-7.258-.424-3.095-1.63-3.723-2.618-4.629-3.846l3.25-12.803c4.035.406 12.44 1.482 13.774 2.535"/><path fill="#000" fill-opacity=".5" d="M39.05 61.454c.69-1.684 1.609-3.322 2.427-4.873l8.143-2.114c2.23.616 5.39 3.039 5.049 4.019-1.69 4.866-3.357 6.531-3.945 9.863-1.884-2.988-4.247-2.784-4.584-3.63-1.044 1.049-2.78 1.354-3.7-1.07-1.163 1.248-2.846-1.502-3.39-2.195" style="mix-blend-mode:overlay"/></g><mask id="i" width="13" height="16" x="38" y="47" maskUnits="userSpaceOnUse" style="mask-type:alpha"><path fill="#F1AA90" d="M45.302 47.995c1.979.233 4.219 2.134 5.092 3.055-2.56 1.242-5.238 4.72-6.256 6.305-.194.76-.747 2.822-1.407 4.995-2.522 1.474-3.605-.065-3.831-1.019l.63-5.625c1.1-2.668 3.793-7.944 5.772-7.711"/></mask><g mask="url(#i)"><path fill="#F1AA90" d="M45.302 47.995c1.979.233 4.219 2.134 5.092 3.055-2.56 1.242-5.238 4.72-6.256 6.305-.194.76-.747 2.822-1.407 4.995-2.522 1.474-3.605-.065-3.831-1.019l.63-5.625c1.1-2.668 3.793-7.944 5.772-7.711"/><path fill="#000" fill-opacity=".5" d="M48.063 50.527c1.979.233 4.22 2.134 5.092 3.055-2.56 1.242-5.238 4.72-6.256 6.305-.194.76-.747 2.822-1.407 4.995-2.521 1.474-3.604-.065-3.83-1.018l.63-5.626c1.099-2.667 3.792-7.944 5.771-7.711" style="mix-blend-mode:overlay"/></g><mask id="j" width="13" height="15" x="42" y="50" maskUnits="userSpaceOnUse" style="mask-type:alpha"><path fill="#F1AA90" d="M51.024 50.856c2.444.466 3.12 2.845 3.152 3.977l-5.771 3.394-1.697 4.753c-.55.582-1.863 1.649-2.716 1.26-.854-.387-1.358-1.325-1.504-1.745l.97-5.286 2.813-3.977c.566-.986 2.309-2.842 4.753-2.376"/></mask><g mask="url(#j)"><path fill="#F1AA90" d="M51.024 50.856c2.444.466 3.12 2.845 3.152 3.977l-5.771 3.394-1.697 4.753c-.55.582-1.863 1.649-2.716 1.26-.854-.387-1.358-1.325-1.504-1.745l.97-5.286 2.813-3.977c.566-.986 2.309-2.842 4.753-2.376"/><path fill="#F1AA90" d="M51.024 50.856c2.444.466 3.12 2.845 3.152 3.977l-5.771 3.394-1.697 4.753c-.55.582-1.863 1.649-2.716 1.26-.854-.387-1.358-1.325-1.504-1.745l.97-5.286 2.813-3.977c.566-.986 2.309-2.842 4.753-2.376"/><path fill="#000" fill-opacity=".5" d="M54.286 53.728c2.226 1.112 2.89 1.678 2.922 2.81l-5.772 3.394-1.697 4.753c-.55.582-1.862 1.649-2.716 1.26-.854-.387-1.358-1.325-1.504-1.745l1.359-5.757a1.92 1.92 0 0 1 .635-1.03l3.478-2.917c.566-.986 2.527-1.152 3.295-.768" style="mix-blend-mode:overlay"/></g><mask id="k" width="11" height="11" x="46" y="54" maskUnits="userSpaceOnUse" style="mask-type:alpha"><path fill="#F1AA90" d="m51.523 60.121 4.787-2.476c0-3.415-2.78-3.524-4.17-3.153l-4.104 3.257a1.5 1.5 0 0 0-.5.718c-.442 1.381-1.119 3.718-1.119 4.658 0 1.31.485 1.698 1.988 1.698.978 0 1.701-1.88 2.077-3.346.147-.577.513-1.082 1.041-1.356"/></mask><g mask="url(#k)"><path fill="#F1AA90" d="m51.523 60.121 4.787-2.476c0-3.415-2.78-3.524-4.17-3.153l-4.462 3.54c-.42 1.262-1.261 4.046-1.261 5.093 0 1.31.485 1.698 1.988 1.698.978 0 1.701-1.88 2.077-3.346.147-.577.513-1.082 1.041-1.356"/></g><path fill="#3F568E" d="m20.372 51.157-1.04 1.359 1.123-.595z"/><path fill="#3F568E" d="m32.586 50.614-11.839-.003c-.505 0-.977.248-1.264.663l-.639.924 6.31 15.214 6.024 15.954 14.3 2.611.746-.843a1.54 1.54 0 0 0 .284-1.567L34.38 51.848a1.92 1.92 0 0 0-1.793-1.234"/><path fill="#293A6E" d="m18.396 53.969 5.802 14.7 6.46 16.758 13.857.947a1.153 1.153 0 0 0 1.154-1.564L33.427 53.099a1.92 1.92 0 0 0-1.792-1.23l-11.81-.001a1.537 1.537 0 0 0-1.43 2.1"/><path fill="#202A55" d="M21.618 53.07h-1.214a.768.768 0 0 0-.707 1.069l1.987 4.679c.25.59.841.962 1.482.934l.94-.041a.768.768 0 0 0 .672-1.072l-2.102-4.872a1.15 1.15 0 0 0-1.058-.696"/><mask id="l" width="13" height="11" x="20" y="63" maskUnits="userSpaceOnUse" style="mask-type:alpha"><path fill="#F1AA90" d="M23.443 67.13c-1.21 1.142-2.428 2.52-2.428 2.52-.563 1.92 1.64 3.297 2.561 3.396l2.783-3.088 5.192-3.451c.3-.17 1.204-1.22.82-1.919-.695-1.264-3.05-.272-3.378-.14 0 0-3.876 1.1-5.55 2.681"/></mask><g mask="url(#l)"><path fill="#F1AA90" d="M23.443 67.13c-1.21 1.143-2.428 2.521-2.428 2.521-.563 1.92 1.64 3.297 2.561 3.396l2.783-3.088 5.192-3.451c.3-.17 1.204-1.22.82-1.918-.695-1.265-3.05-.273-3.378-.14 0 0-3.876 1.098-5.55 2.68"/><path fill="#000" d="M26.176 69.117c-3.79 1.915-4.98 3.076-4.98 3.076-.563 1.92 3.847 2.67 4.77 2.768l2.782-3.087 5.211-4.005c.3-.17 1.23-1.238.676-1.82-.554-.581-2.839-.132-3.167 0 0 0-3.142 1.982-5.292 3.068" opacity=".25" style="mix-blend-mode:overlay"/></g><mask id="m" width="17" height="12" x="20" y="65" maskUnits="userSpaceOnUse" style="mask-type:alpha"><path fill="#FFC7B6" d="M20.578 74.193c-.49-1.937 8.054-5.993 12.388-7.778 2-.858 2.785-.325 3.438.476.522.64-1.316 2.225-2.3 2.938-2.961 2.174-9.137 6.574-10.149 6.779-1.265.256-2.762.007-3.377-2.415"/></mask><g mask="url(#m)"><path fill="#F1AA90" d="M20.578 74.194c-.49-1.937 8.054-5.993 12.388-7.779 2-.857 2.785-.324 3.438.477.522.64-1.316 2.225-2.3 2.938-2.961 2.174-9.137 6.574-10.149 6.779-1.265.256-2.762.007-3.377-2.415"/><path fill="#000" d="M24.07 77.03c1.768-2.395 10.48-7.771 12.728-10.448 1.887-1.033 1.358 1.036 2.123 1.763.612.582-1.011 2.316-1.899 3.11-2.667 2.421-8.249 7.338-9.234 7.635-1.233.371-2.768.267-3.718-2.06" opacity=".25" style="mix-blend-mode:overlay"/></g><mask id="n" width="15" height="12" x="22" y="71" maskUnits="userSpaceOnUse" style="mask-type:alpha"><path fill="#F1AA90" d="M33.746 71.362c-1.867.423-7.657 3.513-10.051 4.828-1.026.554-1.14 1.364-1.068 1.7l1.11 4.902 5.602-.855-1.522-2.853c1.973-1.476 6.121-4.54 6.928-4.988 1.009-.562 1.66-.955 1.66-1.96 0-.762-.327-1.303-2.66-.774"/></mask><g mask="url(#n)"><path fill="#F1AA90" d="M33.746 71.362c-1.867.423-7.657 3.513-10.051 4.828-1.026.554-1.14 1.364-1.068 1.7l2.409 4.865 4.303-.818-1.522-2.853c1.973-1.476 6.121-4.54 6.928-4.988 1.009-.562 1.66-.955 1.66-1.96 0-.762-.327-1.303-2.66-.774"/></g><path fill="#F1AA90" d="M92.03 20.169s-.608 2.69-1.625 7.435c-1.302 6.046-2.987-2.039-5.868 7.843S70.16 49.896 66.302 51.224c-7.762 1.49-8.97 1.201-10.611-.66-2.96-6.05-7.035-11.11-7.117-14.706-.187-8.215 1.317-13.14 2.417-18.307 2.444-11.483 6.977-12.195 11.58-14.02s29.59-1.227 29.445 16.642l.001-.013z"/><path fill="#000" fill-opacity=".5" d="M54.53 32.26c.417-.23 1.288-.657 1.892-.46 1.473.481 2.352.722 2.42 1.44.057.617-1.995 1.196-3.437.357-.324-.148-1.848-.801-.876-1.337" style="mix-blend-mode:overlay"/><path fill="#411917" fill-rule="evenodd" d="M58.1 24.276a.34.34 0 0 1 .317.358l-.338-.02.338.02v.004l-.001.009-.002.03-.011.114q-.014.149-.054.421c-.055.36-.15.874-.316 1.49a15.5 15.5 0 0 1-2.072 4.571c-.267.4-.383.72-.407.97-.022.24.038.43.158.588.257.341.832.592 1.635.698a.338.338 0 1 1-.088.672c-.849-.112-1.66-.395-2.087-.962a1.48 1.48 0 0 1-.292-1.06q.058-.598.518-1.282a14.8 14.8 0 0 0 1.98-4.37c.16-.59.25-1.077.301-1.416a9 9 0 0 0 .061-.512v-.006a.34.34 0 0 1 .36-.317m7.63 13.946a.395.395 0 0 1 .134.543c-.816 1.352-2.147 2.208-3.442 2.732-1.296.525-2.596.733-3.411.764a.395.395 0 1 1-.03-.79c.732-.028 1.94-.22 3.144-.707 1.206-.488 2.366-1.255 3.062-2.408a.395.395 0 0 1 .543-.134" clip-rule="evenodd"/><path fill="#411917" d="M69.803 21.511s-3.208-1.815-5.655-1.743c-3.252.095-3.656 1.148-3.656 1.148s-.959-.094-.12-1.594c1.639-1.62 4.69-.837 4.69-.837s2.5.642 3.715 1.634c.766.57 1.55 1.5 1.55 1.5s-.093.35-.523-.114zM62.7 27.39c-.777-.183-1.207-1.199-.952-2.275.247-1.07 1.085-1.793 1.862-1.61.777.181 1.207 1.197.952 2.273-.247 1.07-1.085 1.793-1.862 1.611"/><path fill="#411917" fill-rule="evenodd" d="M60.619 25.08a.338.338 0 0 1-.616-.281l.309.14-.308-.14v-.003l.003-.005.006-.012.018-.036q.025-.045.07-.118a2.6 2.6 0 0 1 .293-.368c.272-.289.706-.633 1.365-.894 1.32-.521 3.496-.69 7.016.509a.338.338 0 1 1-.218.64c-3.428-1.166-5.43-.962-6.55-.519-.56.222-.912.507-1.12.728a2 2 0 0 0-.26.344z" clip-rule="evenodd"/><path fill="#411917" d="M51.31 21.855s1.29-1.377 3.73-1.47c2.135-.081 2.427.517 2.427.517s.793-1.02-.15-1.8c-.262-.309-.808-.46-2.226-.2-1.228.224-3.253 1.26-3.766 2.51 0 0-.214.358-.015.43zm1.408 4.043c.112-1.095.729-1.933 1.377-1.866s1.08 1.01.968 2.105-.73 1.932-1.377 1.866c-.648-.066-1.081-1.01-.968-2.105"/><path fill="#411917" fill-rule="evenodd" d="m56.587 25.039-.314.127za.339.339 0 0 1-.626.257m0 0-.005-.01-.027-.052a1.48 1.48 0 0 0-.728-.635c-.556-.225-1.598-.26-3.395.958a.339.339 0 0 1-.38-.56c1.89-1.281 3.177-1.37 4.029-1.026a2.15 2.15 0 0 1 1.113 1.024l.013.029.004.01.001.003v.002" clip-rule="evenodd"/><path fill="#411917" d="M78.347 14.46c-.24-.907-.613-1.013-1.1-2.9 0 .86-4.541 1.885-8.715 1.885-6.69 0-13.903-1.582-16.089 1.902-1.748 2.788-2.026 4.693-2.875 8.84-1.682-1.94-5.04-3.077-2.423-8.574C44.2 8.743 51.723.86 54.81-1.236c5.158-3.5 23.584-7.326 29.718 4.67 3.435-3.272 7.087-.762 9.864 4.484 2.18 4.116 3.919 8.196 2.466 17.977-.974 6.563-4.04 9.018-6.148 9.71.508-1.78 5.555-10.824-5.3-7.299-5.494 1.784-4.493-4.119-7.063-13.847"/></g><path fill="#FFB26F" d="M33.237 5.924c-.185-.962-1.13-1.741-2.109-1.741H3.903c-.98 0-1.624.78-1.439 1.741l1.763 9.162c.185.961 1.129 1.741 2.108 1.741h27.226c.98 0 1.623-.78 1.438-1.741z"/><path fill="#4C39B0" d="M22.86 10.557c.448 2.328 2.733 4.215 5.103 4.215s3.93-1.887 3.481-4.215c-.448-2.328-2.732-4.215-5.103-4.215s-3.929 1.887-3.481 4.215"/><path fill="#F8F8F8" d="M27.278 10.987c-.943 0-1.852-.751-2.03-1.678-.179-.926.441-1.677 1.385-1.677.943 0 1.852.75 2.03 1.677.179.927-.442 1.678-1.385 1.678m.106.773c1.433 0 2.791.679 3.483 1.64-.623.843-1.65 1.371-2.904 1.371s-2.485-.528-3.432-1.37c.322-.962 1.419-1.64 2.853-1.64"/><path fill="#CC6E08" d="M19.183 10.435c-.111-.577-.68-1.054-1.267-1.054H7.269c-.588 0-.973.477-.862 1.054s.68 1.054 1.267 1.054h10.647c.588 0 .973-.477.862-1.054"/><path fill="#0090D5" d="M36.13 20.96c-.186-.962-1.13-1.741-2.11-1.741H6.796c-.98 0-1.623.78-1.438 1.741l1.763 9.162c.185.962 1.128 1.741 2.108 1.741h27.226c.979 0 1.623-.78 1.438-1.741z"/><path fill="#004380" d="M25.753 25.593c.447 2.328 2.732 4.215 5.102 4.215s3.93-1.887 3.482-4.215-2.733-4.215-5.103-4.215-3.93 1.887-3.482 4.215"/><path fill="#F8F8F8" d="M30.171 26.025c-.943 0-1.852-.751-2.03-1.678-.179-.926.441-1.677 1.385-1.677.943 0 1.852.75 2.03 1.677.179.927-.442 1.678-1.385 1.678m.106.774c1.433 0 2.791.678 3.483 1.64-.623.842-1.65 1.37-2.904 1.37s-2.485-.528-3.432-1.37c.322-.962 1.419-1.64 2.853-1.64"/><path fill="#DFF1FA" d="M22.075 25.471c-.11-.577-.679-1.053-1.267-1.053H10.161c-.588 0-.972.476-.861 1.053s.679 1.054 1.267 1.054h10.647c.588 0 .972-.477.861-1.054"/><path fill="#EFEFEF" d="M39.022 35.995c-.185-.962-1.129-1.742-2.108-1.742H9.688c-.98 0-1.623.78-1.438 1.742l1.763 9.162c.185.961 1.129 1.741 2.108 1.741h27.226c.979 0 1.623-.78 1.438-1.741z"/><path fill="#8E8E8E" d="M28.646 40.628c.447 2.328 2.732 4.215 5.103 4.215s3.929-1.887 3.48-4.215c-.447-2.328-2.732-4.215-5.102-4.215s-3.93 1.887-3.481 4.215m-3.678-.122c-.11-.577-.679-1.054-1.267-1.054H13.055c-.587 0-.972.477-.861 1.054s.679 1.054 1.267 1.054h10.647c.588 0 .972-.477.861-1.054"/></g></g><defs><clipPath id="a"><path fill="#fff" d="M0 0h80v80H0z"/></clipPath><clipPath id="b"><path fill="#fff" d="M0 0h80v80H0z"/></clipPath><clipPath id="c"><rect width="66.667" height="66.667" x="6.667" y="6.667" fill="#fff" rx="33.33"/></clipPath></defs></svg>