<svg xmlns="http://www.w3.org/2000/svg" width="80" height="80" fill="none" class="persona-ilustration" viewBox="0 0 80 80"><g clip-path="url(#a)"><g clip-path="url(#b)"><mask id="c" width="68" height="68" x="6" y="6" maskUnits="userSpaceOnUse" style="mask-type:alpha"><path fill="#D9D9D9" d="M73.335 40c0 18.41-14.925 33.335-33.335 33.335S6.665 58.41 6.665 40 21.59 6.665 40 6.665 73.335 21.59 73.335 40"/></mask><g mask="url(#c)"><path fill="#D3EDFF" d="M73.335 40c0 18.41-14.925 33.335-33.335 33.335S6.665 58.41 6.665 40 21.59 6.665 40 6.665 73.335 21.59 73.335 40"/><mask id="d" width="84" height="27" x="-2" y="54" maskUnits="userSpaceOnUse" style="mask-type:alpha"><path fill="#5BA57C" d="M40 54.057c10.281 0 22.571 1.282 25.28 1.919 2.708.636 6.049 2.06 8.577 5.724 2.528 3.663 6.47 13.992 8.126 18.7H-1.983c1.655-4.708 5.597-15.037 8.125-18.7 2.528-3.664 5.869-5.088 8.578-5.724s14.998-1.92 25.28-1.92"/></mask><g mask="url(#d)"><path fill="#8FC7B8" d="M40 54.057c10.282 0 22.572 1.282 25.28 1.919 2.709.636 6.05 2.06 8.577 5.724 2.528 3.663 6.47 13.992 8.126 18.7H-1.983c1.655-4.708 5.598-15.037 8.126-18.7 2.528-3.664 5.868-5.088 8.577-5.724s14.998-1.92 25.28-1.92"/><path fill="#498F79" d="M54.817 56.115c0 7.046-6.45 12.759-14.406 12.759s-14.406-5.713-14.406-12.76 6.45-12.759 14.406-12.759 14.406 5.713 14.406 12.76"/><path fill="#3D7360" fill-rule="evenodd" d="M40.456 44.384c-6.712 0-12.115 4.903-12.115 10.908 0 6.004 5.404 10.907 12.115 10.907s12.115-4.903 12.115-10.907-5.403-10.908-12.115-10.908M27.93 55.292c0-6.271 5.63-11.32 12.527-11.32 6.898 0 12.527 5.049 12.527 11.32 0 6.27-5.629 11.319-12.527 11.319S27.93 61.562 27.93 55.29" clip-rule="evenodd"/><path fill="#F29B7C" d="M29.96 55.292c0 5.228 4.7 9.466 10.497 9.466s10.495-4.238 10.495-9.466c0-5.229-4.699-9.467-10.495-9.467-5.797 0-10.496 4.238-10.496 9.467"/></g><path fill="#F29B7C" d="M32.59 54.468c0 3.864 3.502 6.997 7.821 6.997 4.32 0 7.82-3.133 7.82-6.997s-3.5-6.997-7.82-6.997c-4.319 0-7.82 3.133-7.82 6.997"/><path fill="#F29B7C" d="M48.232 26.891V54.88H32.59V26.89z"/><mask id="e" width="11" height="9" x="54" y="57" maskUnits="userSpaceOnUse" style="mask-type:alpha"><path fill="#F29B7C" d="M57.882 60.481c1.94.943 3.959 3.3 4.588 4.547l1.836-3.959c-.848-.735-3.226-2.121-4.857-3.267-2.039-1.431-4.229-.555-5.138.59-.91 1.146 1.145.91 3.571 2.089"/></mask><g mask="url(#e)"><path fill="#F29B7C" d="M57.882 60.481c1.94.943 3.959 3.3 4.588 4.547l1.836-3.959c-.848-.735-3.226-2.121-4.857-3.267-2.039-1.431-4.229-.555-5.138.59-.91 1.146 1.145.91 3.571 2.089"/><path fill="#E38969" d="M57.02 58.896c-.935.28-1.835-.458-2.076-1 1.918-1.82 5.554-1.088 4.645-.934-.91.153-1.399 1.585-2.568 1.934"/></g><path fill="#3F568E" d="M43.805 62.497c-1.994-1.658-1.835-4.794-1.818-6.671 4.994-3.4 13.176-1.541 13.707 0s-.887 5.715-1.684 6.67c-1.243.896-5.8 2.628-10.205 0m-8.481.001c1.994-1.658 1.835-4.794 1.818-6.671-4.994-3.4-13.176-1.541-13.707 0s.887 5.715 1.684 6.67c1.243.896 5.8 2.628 10.205 0"/><path fill="#30457A" fill-rule="evenodd" d="M50.13 53.208c2.773.28 5.203 1.236 6.615 2.048a.69.69 0 0 1-.687 1.196c-1.26-.725-3.504-1.613-6.066-1.871-2.556-.258-5.378.114-7.868 1.84a.69.69 0 0 1-.785-1.134c2.833-1.963 6.01-2.359 8.79-2.079m-21.131 0c-2.774.28-5.203 1.236-6.616 2.048a.69.69 0 0 0 .688 1.196c1.26-.725 3.503-1.613 6.066-1.871 2.556-.258 5.377.114 7.867 1.84a.69.69 0 0 0 .786-1.134c-2.833-1.963-6.01-2.359-8.791-2.079" clip-rule="evenodd"/><path fill="#30457A" fill-rule="evenodd" d="M40.033 54.621c.85.086 1.594.377 2.043.635a.69.69 0 1 1-.687 1.196 4 4 0 0 0-1.494-.458c-.631-.064-1.29.031-1.86.427a.69.69 0 1 1-.786-1.134c.914-.633 1.928-.752 2.784-.666" clip-rule="evenodd"/><mask id="f" width="18" height="18" x="59" y="50" maskUnits="userSpaceOnUse" style="mask-type:alpha"><path fill="#F29B7C" d="M76.238 64.578c-.437 1.767-3.527 2.408-5.922 2.767-1.99.213-8.841-1.863-11.099-5.915l4.331-.479-4.33-5.263c2.207-1.281 6.953-3.953 8.279-4.39s2.147-1.525 3.532-.874c2.334 1.097 4.29 2.201 5.209 3.58.92 4.597.309 9.322 0 10.574"/></mask><g mask="url(#f)"><path fill="#F29B7C" d="M78.047 64.059c-.437 1.767-5.336 2.927-7.73 3.286-1.99.213-5.446-2.326-6.925-3.622l.815-4.144-4.99-3.89c2.208-1.282 6.954-3.954 8.28-4.39 1.326-.438 2.148-1.526 3.532-.875 2.334 1.097 3.283 1.986 4.29 3.58 2.44 3.866 3.036 8.803 2.727 10.055"/><path fill="#F29B7C" d="M76.238 64.578c-.437 1.767-3.527 2.408-5.922 2.767-1.99.213-8.842-1.863-11.099-5.915l4.331-.478-4.33-5.264c2.207-1.281 6.953-3.953 8.279-4.39s2.147-1.525 3.532-.874c2.334 1.097 4.29 2.201 5.209 3.58.92 4.598.309 9.322 0 10.574"/><path fill="#FFC7B6" d="M67.882 65.704c-1.31 0-4.149-.237-5.722-.46l-.292.794 7.184 3.717 4.301-10.608c-1.225 2.047-3.257 6.557-5.471 6.557"/><path fill="#E38969" d="M63.048 57.435c-.614.716-2.026 1.28-2.656 1.471l-4.126-.703 3.647-8.51 9.661-.512.288 3.2c-.64 1.961-2.067 4.689-2.911 6.173-.388.682-.947.852-1.512.785-1.155-.138-1.54-1.53-1.222-2.648l.27-.952c-.224.267-.825.98-1.44 1.696"/><path fill="#FFC7B6" d="M69.342 53.085c-1.38.46-.613.46-1.38.46l3.218-4.598 12.867 12.864c-3.498 3.499-14.214 7.918-15.165 5.985 4.684-7.686 3.672-8.978 3.672-11.961.465-1.4-1.664-1.82-3.212-2.75"/></g><mask id="g" width="13" height="4" x="51" y="51" maskUnits="userSpaceOnUse" style="mask-type:alpha"><path fill="#FFC7B6" d="m62.735 52.49.72 1.437s-5.94 1.333-11.291-.327c-.466-.502-.891-.91-.466-1.678.342-.616 5.029-.018 8.164-.605 1.087-.203 2.378.184 2.873 1.172"/></mask><g mask="url(#g)"><path fill="#FFC7B6" d="m62.735 52.49.72 1.438s-5.94 1.332-11.29-.328c-.466-.502-.892-.91-.466-1.678.341-.616 5.028-.018 8.164-.604 1.086-.203 2.378.183 2.872 1.172"/><path fill="#F29B7C" d="m61.96 52.944 2.378 3.403-12.016-.509c-.462-.02-1.374-.878-.572-2.326 1.915.088 4.446.858 7.118-.934.993-.666 2.406-.614 3.091.366"/></g><mask id="h" width="12" height="10" x="54" y="50" maskUnits="userSpaceOnUse" style="mask-type:alpha"><path fill="#FFC7B6" d="m62.278 50.16 2.863.262-8.507 8.501c-.327.327-1.706.86-2.23-.711-.48-1.442 4.196-5.705 6.567-7.657a1.8 1.8 0 0 1 1.307-.395"/></mask><g mask="url(#h)"><path fill="#FFC7B6" d="m62.279 50.16 2.863.262-8.508 8.502c-.327.327-1.706.858-2.229-.712-.48-1.442 4.195-5.704 6.567-7.657a1.8 1.8 0 0 1 1.307-.394"/><path fill="#F29B7C" d="m63.385 51.45 3.061.091-7.971 9.006c-.307.347-2.822.986-2.268-.573.42-1.183 3.819-6.4 6.177-8.226.284-.22.642-.309 1.001-.298"/></g><mask id="i" width="11" height="10" x="58" y="49" maskUnits="userSpaceOnUse" style="mask-type:alpha"><path fill="#FFC7B6" d="M64.488 50.421c2.072-1.635 2.632.09 3.925.656-2.29 1.635-7.853 7.193-7.853 7.193-.327.327-1.112.589-1.635-.982s3.49-5.232 5.563-6.867"/></mask><g mask="url(#i)"><path fill="#FFC7B6" d="M64.487 50.422c2.073-1.635 2.633.09 3.925.655-2.29 1.635-7.852 7.194-7.852 7.194-.328.327-1.113.588-1.636-.982s3.491-5.233 5.563-6.867"/><path fill="#F29B7C" d="M65.833 52.587c2.072-1.635 2.633.09 3.925.655-2.29 1.635-7.853 7.194-7.853 7.194-.327.327-1.112.588-1.635-.982s3.49-5.233 5.563-6.867"/></g><path fill="#FFC7B6" d="M64.158 57.945c-1.047-1.047 1.528-5.451 2.946-7.523 1.832-.784 3.38-.325 3.925.002l-3.927 6.54c-.545.764-1.898 2.028-2.944.98"/></g></g><path fill="#FFC7B6" d="M55.27 27.268s3.871-4.519 4.402-.127c.53 4.397-1.554 12.456-3.285 10.752-1.73-1.704-1.793-3.955-1.793-3.955z"/><path fill="#F29B7C" fill-rule="evenodd" d="M56.866 34.937c-.163-.27-.351-.803-.527-1.716a.462.462 0 1 0-.908.175c.18.935.393 1.603.645 2.02.125.208.288.4.507.507.244.12.5.106.723-.003.2-.098.357-.263.478-.43.125-.172.237-.38.336-.604.2-.45.37-1.018.502-1.625.262-1.211.388-2.66.248-3.798-.07-.562-.21-1.102-.474-1.497a1.4 1.4 0 0 0-.545-.498 1.27 1.27 0 0 0-.768-.11.462.462 0 1 0 .14.913c.1-.016.167 0 .216.025.054.026.12.08.188.183.146.218.263.588.326 1.097.123 1.006.014 2.345-.235 3.489a8 8 0 0 1-.443 1.447 2.4 2.4 0 0 1-.238.435 1 1 0 0 1-.09.105 1 1 0 0 1-.08-.115" clip-rule="evenodd"/><path fill="#A36654" fill-rule="evenodd" d="m55.515 31.2.41.046zc-.02.279.148.526.374.55.227.026.426-.18.447-.458v-.01l.005-.045a2.8 2.8 0 0 1 .175-.695c.074-.178.166-.32.276-.409.102-.082.244-.14.463-.105.226.036.432-.16.461-.437.03-.278-.13-.533-.356-.57a1.25 1.25 0 0 0-1.02.264c-.267.215-.442.516-.558.793a3.8 3.8 0 0 0-.256 1.011l-.008.076-.002.023v.008l-.001.002z" clip-rule="evenodd"/><path fill="#A36654" fill-rule="evenodd" d="m55.77 30.846.257.408zc-.206.13-.258.418-.116.643s.424.303.63.173l.006-.004a1.4 1.4 0 0 1 .166-.083 1.5 1.5 0 0 1 .416-.117.6.6 0 0 1 .362.057c.081.045.195.146.291.404.093.249.357.388.59.311s.345-.34.252-.589c-.166-.444-.423-.761-.751-.946a1.5 1.5 0 0 0-.908-.174 2.3 2.3 0 0 0-.658.181 3 3 0 0 0-.254.128l-.017.01-.006.004z" clip-rule="evenodd"/><path fill="#FFC7B6" d="M25.529 27.358s-3.87-4.519-4.401-.127c-.531 4.397 1.553 12.456 3.284 10.752s1.793-3.954 1.793-3.954z"/><path fill="#F29B7C" fill-rule="evenodd" d="M23.934 35.027c.163-.27.351-.804.527-1.717a.462.462 0 0 1 .908.175c-.18.936-.393 1.603-.645 2.02-.125.208-.288.4-.507.507a.8.8 0 0 1-.723-.002 1.34 1.34 0 0 1-.478-.43 3.3 3.3 0 0 1-.336-.605c-.2-.45-.37-1.017-.502-1.625-.262-1.21-.388-2.66-.248-3.797.07-.562.21-1.102.474-1.498a1.43 1.43 0 0 1 .545-.497c.236-.117.497-.153.768-.111a.462.462 0 1 1-.14.913.35.35 0 0 0-.216.025.5.5 0 0 0-.189.184c-.145.218-.262.588-.325 1.097-.123 1.005-.014 2.345.235 3.488.123.57.277 1.073.443 1.448q.126.282.238.434.055.074.09.106a1 1 0 0 0 .08-.115" clip-rule="evenodd"/><path fill="#A36654" fill-rule="evenodd" d="m25.286 31.29-.41.046zc.02.28-.149.526-.375.55-.227.026-.426-.18-.446-.458l-.001-.01-.005-.045a3 3 0 0 0-.174-.695 1 1 0 0 0-.277-.409c-.102-.082-.244-.14-.463-.105-.226.036-.432-.16-.461-.437-.029-.278.13-.533.356-.569a1.25 1.25 0 0 1 1.021.263c.266.215.442.516.557.793a3.8 3.8 0 0 1 .257 1.012l.008.076.002.023v.011" clip-rule="evenodd"/><path fill="#A36654" fill-rule="evenodd" d="m25.03 30.936-.257.408zc.206.13.258.418.116.643s-.424.302-.63.173l-.006-.004-.033-.018a2 2 0 0 0-.133-.065 1.5 1.5 0 0 0-.416-.117.6.6 0 0 0-.362.056c-.081.046-.195.146-.291.405-.093.248-.357.388-.59.31-.232-.076-.345-.34-.252-.588.166-.445.423-.762.751-.946a1.5 1.5 0 0 1 .908-.174c.264.028.497.11.658.18a3 3 0 0 1 .254.13l.017.01.005.003.003.001z" clip-rule="evenodd"/><path fill="#FFC7B6" d="M40.4 8.536c6.48 0 13.208 2.77 14.901 10.969 1.312 4.799.185 19.88-1.127 23.308-1.987 5.193-10.534 9.598-13.773 9.597v-.01.011c-3.24 0-11.787-4.404-13.774-9.597-1.312-3.428-2.44-18.51-1.127-23.308 1.694-8.2 8.422-10.969 14.9-10.969v.017z"/><path fill="#411917" d="M33.463 29.083c.723.014 1.324-.759 1.341-1.725.018-.966-.554-1.76-1.277-1.773-.723-.014-1.324.759-1.342 1.725-.017.966.554 1.76 1.278 1.773"/><path fill="#411917" fill-rule="evenodd" d="m37.354 26.949-.425.175za.461.461 0 0 1-.849.356l-.003-.007-.03-.053a1.4 1.4 0 0 0-.16-.215 2.3 2.3 0 0 0-.877-.587c-.892-.355-2.556-.515-5.506.6a.46.46 0 1 1-.325-.861c3.07-1.16 4.988-1.065 6.171-.595a3.2 3.2 0 0 1 1.225.831 2.4 2.4 0 0 1 .327.471l.018.038.006.013.002.005z" clip-rule="evenodd"/><path fill="#411917" d="M46.991 29.083c-.723.014-1.324-.759-1.342-1.725-.017-.966.554-1.76 1.278-1.773.723-.014 1.323.759 1.341 1.725s-.554 1.76-1.277 1.773"/><path fill="#411917" fill-rule="evenodd" d="m43.1 26.949.426.175za.461.461 0 0 0 .85.356l.003-.007.028-.053c.03-.05.081-.125.16-.215a2.3 2.3 0 0 1 .878-.587c.892-.355 2.556-.515 5.506.6a.46.46 0 1 0 .325-.861c-3.07-1.16-4.987-1.065-6.17-.595-.592.235-.98.556-1.226.831a2.4 2.4 0 0 0-.327.471l-.018.038-.006.013-.002.005z" clip-rule="evenodd"/><path fill="#422A24" d="M28.897 23.54s2.776-1.155 4.885-.768c1.46.267 3.265 1.487 3.265 1.487s.53.097 0-1.312-3.905-1.469-3.905-1.469-1.998 0-3.78.935c-.741.391-.935 1.156-.935 1.156s.032.313.47-.033zm22.66 0s-2.776-1.155-4.885-.768c-1.46.267-3.265 1.487-3.265 1.487s-.53.097 0-1.312 3.905-1.469 3.905-1.469 1.998 0 3.78.935c.741.391.935 1.156.935 1.156s-.032.313-.47-.033z"/><path fill="#F29B7C" d="M42.572 37.585c0 .355-1.152.643-2.572.643s-2.572-.288-2.572-.643 1.152-.642 2.572-.642 2.572.287 2.572.642"/><path fill="#411917" fill-rule="evenodd" d="M40 30.044c.255 0 .462.207.462.462v6.437a.463.463 0 1 1-.925 0v-6.436c0-.256.207-.463.462-.463M35.76 41.806a.46.46 0 0 1 .638-.129c1.797 1.194 3.589 1.194 4.949.89a8 8 0 0 0 1.65-.57 7 7 0 0 0 .6-.325l.006-.003m0 0a.46.46 0 0 1 .51.766l-.241-.363.242.363h-.001l-.002.001-.003.003-.011.007-.04.025-.142.085a8.8 8.8 0 0 1-2.368.91c-1.532.343-3.598.347-5.659-1.022a.46.46 0 0 1-.128-.638" clip-rule="evenodd"/><path fill="#422A24" d="M54.63 23.076q-.007.092-.008.19v5.88s.787.215 1.091-.395c.103-.206.081-.594.06-.985-.024-.41-.047-.823.074-1.03 1.202-1.424 2.483-1.5 2.483-1.5.796-7.235-1.782-20.501-17.93-20.57h-.127c-16.147.069-18.734 13.411-17.939 20.646 0 0 1.29 0 2.493 1.424.12.207.097.62.074 1.03-.022.39-.043.779.06.985.304.61 1.091.396 1.091.396v-5.881q-.001-.098-.008-.19c-.02-.325-.037-.59.56-.688.352-.058.64-.331.673-.686.107-1.148.502-2.082 1.101-2.842l.326-.251c1.638-1.273 3.825-2.972 11.633-3.062 7.808.09 9.995 1.79 11.633 3.062q.165.13.325.25c.6.761.995 1.695 1.102 2.843.033.355.32.628.672.686.597.099.58.363.56.688"/></g><defs><clipPath id="a"><path fill="#fff" d="M0 0h80v80H0z"/></clipPath><clipPath id="b"><path fill="#fff" d="M6.665 6.665h66.67v66.67H6.665z"/></clipPath></defs></svg>