<svg xmlns="http://www.w3.org/2000/svg" width="80" height="80" fill="none" class="persona-ilustration" viewBox="0 0 80 80"><g clip-path="url(#i9_a)"><g clip-path="url(#ia_b)"><rect width="66.667" height="66.666" x="6.667" y="6.667" fill="#D3EDFF" rx="33.333"/><path fill="#82C2F1" d="m10.242 75.524 65.42-13.16-9.085-7.442-78.4 9.918z"/><path fill="#AADBFF" d="m18.175 68.404 65.42-13.159-7.089-9.732-87.876 6.02z"/><path fill="#535353" d="M75.351 48.82c.078-3.502-2.611-6.437-6.108-6.616-13.868-.708-46.364-1.922-50.936 1.964-5.836 4.961-9.874 44.884-9.874 44.884l65.955 3.25z"/><mask id="ib_c" width="51" height="48" x="12" y="43" maskUnits="userSpaceOnUse" style="mask-type:alpha"><path fill="#FFC509" d="M14.383 59.654c3.364-11.07 4.568-14.416 13.532-15.62s27.535-1.574 29.977 1.142c5.749 6.406 5.232 15.26 1.662 30.364-3.57 15.103-17.91 14.486-17.91 14.486H15.497s-5.743-15.142-1.114-30.372"/></mask><g mask="url(#ib_c)"><path fill="#EA4F4A" d="M14.383 59.654c3.364-11.07 4.568-14.416 13.532-15.62s27.535-1.574 29.977 1.142c5.749 6.406 5.232 15.26 1.662 30.364-3.57 15.103-17.91 14.486-17.91 14.486H15.497s-5.743-15.142-1.114-30.372"/><path fill="#BB393A" d="m38.787 69.31-25.524.783v25.126h34.222z"/></g><path fill="#EA4F4A" d="M38.583 43.68s-9.64.09-12.054 2.118c-3.766 2.124-5.828 5.024-8.139 9.09C12.372 65.478 7.255 75.38 6.704 81.214c-.32 3.405 1.495 6.723 4.637 8.073 2.09.896 4.607.83 7.05-2.093M55.935 44.863s13.193-5.715 17.53 12.306c2.849 11.845 2.036 23.2.947 28.957-.633 3.361-3.295 6.05-6.687 6.473-2.255.284-4.655-.476-6.193-3.964"/><path fill="#F1AA90" d="M28.739 58.336c-.018 1.807-.428 4.208-2.12 5.915-1.69 1.708 6.766 5.404 6.766 5.404l4.865-10.334s-7.478-2.355-9.507-.985z"/><path fill="#000" d="M28.739 58.336c-.018 1.807-.428 4.208-2.12 5.915-1.69 1.708 6.766 5.404 6.766 5.404l4.865-10.334s-7.478-2.355-9.507-.985z" opacity=".5" style="mix-blend-mode:overlay"/><mask id="ic_d" width="15" height="29" x="26" y="38" maskUnits="userSpaceOnUse" style="mask-type:alpha"><path fill="#E58061" d="M37.974 62.29c-.834 2.169-1.707 3.719-1.782 3.866-.516 1.028-1.762.108-4.765-1.024-1.56-.585-3.208-5.184-3.597-7.986-.896-6.477-1.11-8.352-1.49-10.63-.158-.956.96-1.089 1.258-.903.223.142 2.006 6.306 2.006 6.306s-2.373-7.914-1.875-9.008c.498-1.099 1.316-1.018 1.547-.366.193.537 2.352 8.124 2.352 8.124l-2.631-10.73s-.005-.077-.014-.172c-.021-.29.11-.58.35-.713.315-.176.791-.224 1.298.494.883 1.26 3.37 10.198 3.37 10.198l-1.897-7.829a1 1 0 0 1 .075-.685c.231-.461.738-1.065 1.569-.028 1.128 1.403 2.832 8.499 3.024 9.298q.015.063.022.133l.346 1.494c-.123.342.035.366 0 0 .502-1.427.677-4.785 1.333-5.408.795-.761 1.884.166 1.547 1.365-.63 2.24-.625 6.173-.712 7.548-.097 1.527-.283 1.884-.573 3.58z"/></mask><g mask="url(#ic_d)"><path fill="#F1AA90" d="M37.974 62.29c-.834 2.169-1.707 3.719-1.782 3.866-.516 1.028-1.762.108-4.765-1.024-1.56-.585-3.208-5.184-3.597-7.986-.896-6.477-1.11-8.352-1.49-10.63-.158-.956.96-1.089 1.258-.903.223.142 2.006 6.306 2.006 6.306s-2.373-7.914-1.875-9.008c.498-1.099 1.316-1.018 1.547-.366.193.537 2.352 8.124 2.352 8.124l-2.631-10.73s-.005-.077-.014-.172c-.021-.29.11-.58.35-.713.315-.176.791-.224 1.298.494.883 1.26 3.37 10.198 3.37 10.198l-1.897-7.829a1 1 0 0 1 .075-.685c.231-.461.738-1.065 1.569-.028 1.128 1.403 2.832 8.499 3.024 9.298q.015.063.022.133l.346 1.494c-.123.342.035.366 0 0 .502-1.427.677-4.785 1.333-5.408.795-.761 1.884.166 1.547 1.365-.63 2.24-.625 6.173-.712 7.548-.097 1.527-.283 1.884-.573 3.58z"/><path fill="#000" d="M37.974 62.29c-.834 2.169-1.707 3.719-1.782 3.866-.516 1.028-1.762.108-4.765-1.024-1.56-.585-3.208-5.184-3.597-7.986-.896-6.477-1.11-8.352-1.49-10.63-.158-.956.96-1.089 1.258-.903.223.142 2.006 6.306 2.006 6.306s-2.373-7.914-1.875-9.008c.498-1.099 1.316-1.018 1.547-.366.193.537 2.352 8.124 2.352 8.124l-2.631-10.73s-.005-.077-.014-.172c-.021-.29.11-.58.35-.713.315-.176.791-.224 1.298.494.883 1.26 3.37 10.198 3.37 10.198l-1.897-7.829a1 1 0 0 1 .075-.685c.231-.461.738-1.065 1.569-.028 1.128 1.403 2.832 8.499 3.024 9.298q.015.063.022.133l.346 1.494c-.123.342.035.366 0 0 .502-1.427.677-4.785 1.333-5.408.795-.761 1.884.166 1.547 1.365-.63 2.24-.625 6.173-.712 7.548-.097 1.527-.283 1.884-.573 3.58z" opacity=".5" style="mix-blend-mode:overlay"/></g><mask id="id_e" width="19" height="34" x="26" y="38" maskUnits="userSpaceOnUse" style="mask-type:alpha"><path fill="#000" d="M44.095 65.758c-.472 1.05-3.051 7.113-5.639 5.101-1.226-.955-2.86-4.51-4.229-6.669-3.154-.514-4.497-5.944-4.796-7.598-1.168-6.425-1.963-8.157-2.44-10.411-.2-.947.997-1.25 1.22-.966.376.495 2.269 6.198 2.269 6.198s-2.706-7.786-2.251-8.909c.454-1.122 1.267-1.084 1.53-.442.213.528 2.692 8 2.692 8l-3.082-10.587s-.008-.076-.021-.167c-.035-.29.082-.585.319-.727.305-.19.782-.267 1.315.432.936 1.213 3.799 10.017 3.799 10.017L32.556 41.3a1 1 0 0 1 .048-.685c.21-.475.69-1.099 1.565-.11 1.184 1.347 3.19 8.353 3.413 9.142a.7.7 0 0 1 .026.129l.407 1.474c.052.362.332.495.441.148.442-1.451.32-3.53.944-4.19.761-.805 1.81-.828 1.522.39-.534 2.268-.564 5.669-.595 7.043-.03 1.532-.225 2.224-.225 3.727 2.32 5.962 4.32 6.653 3.993 7.389"/></mask><g mask="url(#id_e)"><path fill="#F1AA90" d="M44.095 65.758c-.472 1.05-3.051 7.113-5.639 5.101-1.226-.955-2.86-4.51-4.229-6.669-3.154-.514-4.497-5.944-4.796-7.598-1.168-6.425-1.963-8.157-2.44-10.411-.2-.947.997-1.25 1.22-.966.376.495 2.269 6.198 2.269 6.198s-2.706-7.786-2.251-8.909c.454-1.122 1.267-1.084 1.53-.442.213.528 2.692 8 2.692 8l-3.082-10.587s-.008-.076-.021-.167c-.035-.29.082-.585.319-.727.305-.19.782-.267 1.315.432.936 1.213 3.799 10.017 3.799 10.017L32.556 41.3a1 1 0 0 1 .048-.685c.21-.475.69-1.099 1.565-.11 1.184 1.347 3.19 8.353 3.413 9.142a.7.7 0 0 1 .026.129l.407 1.474c.052.362.332.495.441.148.442-1.451.32-3.53.944-4.19.761-.805 1.81-.828 1.522.39-.534 2.268-.564 5.669-.595 7.043-.03 1.532-.225 2.224-.225 3.727 2.32 5.962 4.32 6.653 3.993 7.389"/><path fill="#000" d="M33.277 39.576c-1.159-.134.839 5.502 1.197 6.839.206.761.302 2.611.302 2.611l-2.522-7.757s.72-1.727 1.023-1.693M30.257 37.92c-.227.59-.62.585-.424 1.436.197.852 1.084 3.567 1.084 3.567s1.233 4.305 1.36 5.204c.06.428.043 1.503.043 1.503l-3.012-9.275-.113-1.574.468-.21zM28.958 41.503s-.55.947-.49 1.503c.062.557.98 3.539.98 3.539s.424 1.783.489 2.292c.066.51.044 1.09.044 1.09l-1.303-3.658-.76-3.957.459-.852.585.043z" opacity=".25" style="mix-blend-mode:overlay"/><path fill="#000" d="M27.949 44.86s-.83.862-.494 1.827c.336.966 2.829 9.671 2.829 9.671s1.48 6.759 3.962 7.927c2.015 1.69 3.817 4.9 3.817 4.9l-2.38 1.604-7.14-13.98-1.337-8.448-.73-2.768z" opacity=".25" style="mix-blend-mode:overlay"/></g><path fill="#EA4F4A" d="M44.201 63.374c-5.072 3.214-7.457 7.368-7.457 7.368s1.384 4.913 12.68 16.596c10.596 13.633 21.137 4.305 21.137 4.305"/><path fill="#AD2F2E" fill-rule="evenodd" d="M57.72 60.904c.239-.04.464.12.504.358l-.43.073-.432.072a.437.437 0 0 1 .359-.503m.073.43-.43.073.09.54c.057.344.139.838.236 1.434.196 1.192.455 2.794.711 4.434s.508 3.318.688 4.66c.09.672.162 1.256.207 1.71.048.471.062.756.052.859a.437.437 0 1 0 .87.083c.02-.205-.006-.581-.052-1.03a55 55 0 0 0-.21-1.738 238 238 0 0 0-.691-4.678 585 585 0 0 0-.95-5.878l-.09-.54zM25.602 59.545a.437.437 0 0 0-.53.317l.423.107.424.106a.437.437 0 0 0-.317-.53m-.107.424.424.106-.133.531a649 649 0 0 0-1.412 5.775c-.385 1.615-.77 3.266-1.056 4.59-.143.662-.262 1.24-.343 1.687-.085.467-.121.75-.12.853a.437.437 0 1 1-.874.014c-.003-.206.053-.58.134-1.023.084-.462.204-1.05.349-1.716.288-1.333.674-2.991 1.06-4.608a585 585 0 0 1 1.414-5.783l.133-.533z" clip-rule="evenodd"/><path fill="#EA4F4A" d="M27.204 62.954c3.453 7.485 7.907 6.786 7.907 6.786s-2.415 8.246-14.457 20.23c-4.961 3.121-10.315-1.363-8.655-6.11 2.859-8.156 15.205-20.906 15.205-20.906"/><path fill="#AD2F2E" fill-rule="evenodd" d="M27.594 62.83a.437.437 0 0 0-.746-.14A648 648 0 0 0 18.1 73.205a429 429 0 0 0-2.975 3.698l-.156.198-.053.067.344.27-.344-.27a.437.437 0 0 0 .687.54l.052-.066.155-.196.61-.767c.538-.673 1.332-1.662 2.358-2.923a643 643 0 0 1 8.272-9.953q.076.173.177.379c.309.629.782 1.47 1.442 2.312 1.316 1.683 3.415 3.42 6.454 3.42a.437.437 0 1 0 0-.874c-2.665 0-4.537-1.515-5.766-3.084a12.4 12.4 0 0 1-1.74-3.063l-.018-.049-.004-.011z" clip-rule="evenodd"/><path fill="#BB393A" d="M41.944 78.045s13.718 9.31 19.588 10.596c2.758.603 5.184-.17 6.915-1.115 1.031-.564 3.662-2.937 4.082-4.034.822-2.146 1.692-8.698 1.622-13.34-.105-6.836-.376-11.627-.376-11.627s2.128 10.036 1.643 17.1c-.485 7.063-.468 11.136-2.483 13.951-1.735 2.426-7.928 6.245-12.797 5.104-4.599-1.075-8.681-3.067-18.194-16.635M6.735 83.397s6.727 5.752 10.053 3.366c5.973-1.445 18.305-17.348 18.305-17.348l-2.647 5.865S21.848 91.443 17.418 92.349s-11.523.353-10.683-8.947z"/><path fill="#AD2F2E" fill-rule="evenodd" d="M42.98 64.531c-.227.228-.485.487-.775.742-1.328 1.172-2.586 2.648-3.517 3.84a41 41 0 0 0-1.38 1.874c.195.389.565 1.017 1.106 1.851a78 78 0 0 0 2.596 3.72 128 128 0 0 0 8.551 10.36.437.437 0 1 1-.644.591 128 128 0 0 1-8.61-10.432 79 79 0 0 1-2.626-3.763c-.652-1.004-1.096-1.77-1.276-2.198l-.092-.216.13-.196.364.242-.364-.242.002-.003.006-.008.021-.032.083-.122a42.462 42.462 0 0 1 1.444-1.965c.945-1.209 2.241-2.733 3.628-3.956.267-.235.504-.473.731-.702l.106-.106c.251-.25.507-.501.763-.678.257-.179.576-.327.943-.28.366.048.672.277.94.6l.02.024.016.026c.13.212.553.758 1.145 1.489a202 202 0 0 0 2.005 2.43 464 464 0 0 0 2.51 2.971l.229.27.028.033.021.038c.054.096.23.325.538.682.297.343.688.776 1.144 1.266.91.981 2.066 2.184 3.204 3.353a505 505 0 0 0 4.093 4.153l.378.38-.309.309-.309.309-.38-.38a541 541 0 0 1-4.1-4.162c-1.139-1.17-2.3-2.379-3.218-3.367a50 50 0 0 1-1.165-1.29c-.274-.318-.5-.597-.615-.785l-.206-.242a513 513 0 0 1-2.513-2.978 202 202 0 0 1-2.015-2.44c-.556-.688-1.01-1.269-1.191-1.552-.19-.222-.309-.263-.363-.27-.056-.007-.153.006-.332.13-.18.127-.384.32-.643.58zm17.152 16.345-.309.309a.437.437 0 1 0 .618-.619zM35.246 69.103c.224.09.332.345.241.569-2.14 5.289-4.947 9.48-7.218 12.348a45 45 0 0 1-2.858 3.289 30 30 0 0 1-1.082 1.07l-.062.055-.016.015-.004.004-.002.001-.291-.325.29.326a.437.437 0 0 1-.581-.653l.003-.003.014-.012a15 15 0 0 0 .276-.258c.192-.185.473-.461.825-.826a44 44 0 0 0 2.803-3.225c2.233-2.821 4.99-6.94 7.093-12.134a.437.437 0 0 1 .57-.241" clip-rule="evenodd"/></g><mask id="ie_f" width="16" height="19" x="39" y="29" maskUnits="userSpaceOnUse" style="mask-type:alpha"><path fill="#000" d="m39.935 31.899 1.618 12.924 1.176 2.826 12.078-4.072-2.772-14.434z"/></mask><g mask="url(#ie_f)"><path fill="#F1AA90" d="m39.935 31.899 1.618 12.924 1.176 2.826 12.078-4.072-2.772-14.434z"/><path fill="#000" d="M51.369 29.957c-1.03 6.979-2.687 12.204-8.102 13.319C37.124 44.542 34.891 40 34.891 40l4.018-8.709 9.982-3.94 2.474 2.605z" opacity=".5" style="mix-blend-mode:overlay"/></g><path fill="#EFEFEF" d="M39.947 58.558c-.148-.814 1.17-7.767 1.849-11.141l1.988-.509-1.805 10.827c-.114.687-.564 1.356-1.26 1.36-.375 0-.698-.13-.772-.537"/><path fill="#EFEFEF" d="m45.154 43.769-1.613.533-.86 3.053.108.837 4.703-2.207z"/><path fill="#EFEFEF" d="m42.791 48.19-.517-3.922-.812-.209-1.379 2.104z"/><path fill="#F8F8F8" d="M42.299 44.27s-.99.723-1.454 1.197c-.737.75-.623 1.478-.864 2.55-.992-.403-1.118-3.472-1.017-4.368.1-.896 2.157-2.158 2.157-2.158zM43.539 44.26s2.132 1.219 2.132 4.113c2.28 1.204 9.987-2.556 11.017-4.921.329-.759-1.87-3.573-2.644-3.863-2.973 2.597-10.502 4.672-10.502 4.672z"/><path fill="#F1AA90" d="M28.575 14.712c-.542 21.177.495 24.165 9.5 25.545 4.537.695 10.488-1.333 12.385-5.858 1.252-2.986 2.421-8.995 2.08-15.912s-2.56-8.49-5.084-9.965c-1.552-.905-18.3-5.148-18.877 6.186z"/><path fill="#411917" fill-rule="evenodd" d="M55.35 20.602a.275.275 0 0 1 .386.047c1.065 1.358 1.097 3.207.81 4.793-.29 1.593-.915 3.001-1.268 3.546v.001c-.132.202-.36.486-.652.746-.291.26-.664.51-1.086.62a1.65 1.65 0 0 1-1.374-.239c-.454-.303-.874-.85-1.244-1.703a.275.275 0 0 1 .505-.22c.348.803.712 1.244 1.044 1.466.322.215.635.24.93.163.308-.08.604-.27.86-.498.253-.225.449-.471.555-.635.31-.477.91-1.815 1.188-3.345.278-1.536.216-3.186-.701-4.356a.275.275 0 0 1 .047-.386" clip-rule="evenodd"/><path fill="#411917" d="M29.24 15.972c2.842-3.116 9.616-3.156 16.308-2.153 5.644.843 6.828 6.845 6.828 6.845s.573-.534 1.479-.743 4.196-10.08-3.712-11.574c-4.645-9.154-16.59-4.39-19.273-2.825s-6.15 7.7-2.3 11.13z"/><path fill="#411917" d="M49.322 15.06s1.343 2.257.793 6.662c-.441 3.537 1.018 3.774 1.018 3.774s.333-3.627 1.247-4.827c.913-1.2-1.084-3.863-1.084-3.863l-1.974-1.742z"/><path fill="#2C54DC" d="M51.749 27.255c-1.429-1.784-2.056-5.732.38-8.516 2.546-1.443 2.964-.181 2.964-.181s1.154 2.694.728 5.65c-.337 2.335.735 3.957-1.963 4.22-.65.062-1.544-.469-2.11-1.173"/><path fill="#A6B7FF" d="M49.581 7.354s1.89 3.863 2.276 5.663a170 170 0 0 1 1.266 6.69l1.684-.996s-.352-2.403-1.247-5.98c-.267-1.065-.708-2.729-1.827-3.917-1.118-1.189-2.152-1.46-2.152-1.46"/><path fill="#A4A1E0" d="M53.197 26.937c-.844-1.44-1.227-4.955-.074-7.23 1.467-2.892 3.182-.33 3.182-.33s1.246 1.862.82 4.82c-.336 2.334-1.013 4.044-2.26 3.951-.65-.046-1.211-.433-1.668-1.211"/><path fill="#2C54DC" d="M54.223 25.173c-.414-.705-.6-2.423-.035-3.538.72-1.413 2.106-.604 2.106-.604s.062 1.355-.147 2.798c-.163 1.142.67 2.06-.654 2.13-.825.042-1.045-.411-1.27-.79z"/><path fill="#A4A1E0" d="M55.25 25.164c-.415-.704-.6-2.423-.036-3.538.72-1.412 1.556-.158 1.556-.158s.608.91.403 2.357c-.163 1.142-.496 1.978-1.107 1.936-.318-.024-.592-.213-.817-.593z"/><path fill="#2449CF" fill-rule="evenodd" d="M54.404 25.287a.58.58 0 0 1 .137.81l-.445-.317.445.317-.003.004-.008.011-.03.04-.11.152a29.485 29.485 0 0 1-1.845 2.236 19 19 0 0 1-1.968 1.887c-.703.571-1.469 1.072-2.233 1.326a.58.58 0 0 1-.367-1.101c.572-.19 1.212-.593 1.867-1.126a18 18 0 0 0 1.843-1.77 28 28 0 0 0 1.874-2.285l.026-.036.006-.009.001-.002a.58.58 0 0 1 .81-.137" clip-rule="evenodd"/><path fill="#A6B7FF" d="M56.039 22.192c.425-.039.86.39.495 1.75-.364 1.358-2.756 3.7-3.2 2.76-.187-.396-.264-.516-.009-.996.256-.48 1.862-3.44 2.714-3.514M46.148 33.23c-.712-.059-1.359-.736-.855-1.623.638-1.13 2.044-1.095 2.044-1.095s1.021.023 1.075.832c.043.639-.212 1.246-1.037 1.626-.433.197-.844.29-1.227.26"/><mask id="if_g" width="7" height="4" x="37" y="32" maskUnits="userSpaceOnUse" style="mask-type:alpha"><path fill="#411917" d="M43.2 35.206c.142-1.184-2.27-3.112-4.216-2.643-.774.185-1.506.491-1.61 1.362-.128 1.045.6 1.398 1.502 1.432.99.039 1.64-.05 2.341.186.77.26 1.158.383 1.576.283.228-.054.383-.372.414-.62z"/></mask><g mask="url(#if_g)"><path fill="#2E2E2E" d="M43.2 35.206c.142-1.184-2.27-3.112-4.216-2.643-.774.185-1.506.491-1.61 1.362-.128 1.045.6 1.398 1.502 1.432.99.039 1.64-.05 2.341.186.77.26 1.158.383 1.576.283.228-.054.383-.372.414-.62z"/><path fill="#EA4F4A" d="M42.552 38.327c2.026 0 3.67-.863 3.67-1.928s-1.644-1.927-3.67-1.927c-2.027 0-3.67.863-3.67 1.927s1.643 1.928 3.67 1.928"/></g><ellipse cx="37.981" cy="29.071" fill="#000" opacity=".25" rx="1.81" ry=".641" style="mix-blend-mode:overlay"/><path fill="#411917" fill-rule="evenodd" d="M37.934 23.885c.154.06.23.232.17.386l-1.714 4.422c.145.266.722.808 2.376.362a.298.298 0 1 1 .156.576c-2.002.54-2.952-.196-3.14-.854l-.027-.096 1.794-4.626a.3.3 0 0 1 .385-.17" clip-rule="evenodd"/><path fill="#411917" d="M34.143 23.895c.495.01.906-.52.919-1.181.012-.662-.38-1.206-.875-1.215s-.907.52-.919 1.182.38 1.205.875 1.214"/><path fill="#411917" fill-rule="evenodd" d="m35.856 22.373-.257.181za.316.316 0 0 1-.515.363l-.007-.009-.037-.045c-.035-.04-.091-.099-.168-.166-.154-.134-.391-.3-.717-.42-.64-.233-1.68-.305-3.203.52a.315.315 0 1 1-.3-.553c1.654-.898 2.883-.864 3.719-.559.412.15.714.361.915.537a2.4 2.4 0 0 1 .288.298l.017.022.005.008.002.002z" clip-rule="evenodd"/><path fill="#411917" d="M30.783 19.258c.825-.238 5.514-1.362 5.262.227a.596.596 0 0 1-.794.43c-1.344-.465-2.916-.232-4.301-.04-.401.09-.555-.493-.167-.617M43.974 23.823c-.495.003-.9-.532-.903-1.194s.396-1.2.891-1.202.9.532.903 1.193c.003.662-.395 1.2-.89 1.203"/><path fill="#411917" fill-rule="evenodd" d="m41.228 22.073.237.207za.316.316 0 0 0 .474.416l.007-.008.039-.037q.054-.053.173-.14c.16-.111.405-.25.742-.344.666-.186 1.73-.208 3.24.577a.315.315 0 0 0 .291-.56c-1.632-.848-2.86-.859-3.7-.625-.416.116-.727.29-.936.437a2.3 2.3 0 0 0-.321.274l-.006.006-.002.003z" clip-rule="evenodd"/><path fill="#411917" d="M45.664 19.567c-1.392-.185-2.968-.411-4.315.069-.735.259-1.137-.83-.409-1.112 1.662-.386 3.276.043 4.886.425.392.119.237.705-.162.618"/></g><defs><clipPath id="i9_a"><path fill="#fff" d="M0 0h80v80H0z"/></clipPath><clipPath id="ia_b"><rect width="66.667" height="66.666" x="6.667" y="6.667" fill="#fff" rx="33.333"/></clipPath></defs></svg>