<?xml version="1.0" standalone="no"?>
<!DOCTYPE svg PUBLIC "-//W3C//DTD SVG 20010904//EN"
 "http://www.w3.org/TR/2001/REC-SVG-20010904/DTD/svg10.dtd">
<svg version="1.0" xmlns="http://www.w3.org/2000/svg"
 width="1280.000000pt" height="640.000000pt" viewBox="0 0 1280.000000 640.000000"
 preserveAspectRatio="xMidYMid meet">
<metadata>
Created by potrace 1.15, written by Peter Selinger 2001-2017
</metadata>
<g transform="translate(0.000000,640.000000) scale(0.100000,-0.100000)"
fill="#000000" stroke="none">
<path d="M11181 5765 c-35 -8 -98 -25 -140 -39 -74 -24 -313 -90 -456 -126
-38 -10 -149 -39 -245 -64 -190 -50 -196 -52 -475 -127 -104 -28 -224 -59
-265 -69 -103 -24 -350 -87 -435 -110 -119 -33 -187 -51 -270 -71 -44 -10
-102 -25 -130 -33 -27 -8 -113 -31 -190 -51 -77 -21 -178 -48 -225 -61 -47
-12 -130 -35 -185 -49 -55 -15 -113 -31 -130 -35 -74 -20 -244 -65 -400 -105
-93 -24 -197 -51 -230 -60 -213 -57 -536 -139 -830 -210 -104 -25 -218 -53
-253 -62 -49 -13 -68 -14 -88 -4 -18 8 -36 8 -62 1 -38 -10 -125 -30 -224 -51
-50 -10 -60 -10 -75 3 -29 26 -92 38 -199 38 -175 0 -339 -39 -408 -97 -29
-24 -34 -25 -106 -18 -129 13 -202 11 -238 -9 -31 -16 -46 -16 -160 -7 -70 6
-181 15 -247 21 -66 5 -237 23 -380 40 -143 17 -386 44 -540 60 -154 16 -320
34 -370 40 -49 6 -175 19 -280 30 -448 45 -1141 121 -1275 139 -213 29 -316
40 -505 56 -464 39 -744 66 -880 85 -38 5 -116 12 -171 16 -99 6 -102 6 -109
-16 -4 -14 -2 -27 6 -36 9 -8 124 -25 344 -49 605 -65 1244 -135 1895 -206
1352 -146 1580 -171 2115 -229 303 -33 553 -60 556 -60 3 0 11 -11 17 -25 8
-18 19 -25 40 -25 16 0 31 -3 34 -6 4 -3 53 -6 111 -7 123 -2 133 -8 179 -103
43 -90 38 -108 -47 -166 -67 -46 -104 -80 -123 -114 -5 -10 -52 -27 -121 -45
-204 -52 -330 -129 -564 -348 l-88 -82 -62 3 c-42 2 -65 -1 -72 -10 -7 -9 -43
-15 -101 -17 -50 -2 -102 -9 -118 -14 -15 -6 -66 -20 -114 -31 -48 -12 -116
-28 -151 -36 -77 -18 -117 -38 -152 -75 -34 -36 -44 -36 -58 -1 -6 15 -23 41
-37 57 l-25 30 21 -42 c30 -63 26 -77 -32 -119 -64 -45 -271 -227 -543 -477
-11 -11 -89 -80 -172 -155 -84 -74 -153 -139 -153 -144 0 -16 -19 -8 -25 12
-11 33 -41 23 -89 -31 -44 -49 -56 -81 -18 -46 23 21 32 21 32 0 0 -9 -46 -64
-103 -122 -127 -131 -162 -193 -162 -292 0 -59 4 -72 34 -116 52 -76 181 -151
364 -212 105 -35 473 -95 677 -111 69 -5 270 -10 447 -10 197 0 324 -4 328
-10 9 -14 -7 -17 -238 -36 -43 -4 -80 -11 -83 -15 -8 -14 35 -49 61 -49 17 0
46 -19 89 -59 35 -32 74 -62 87 -65 70 -19 99 -30 99 -37 0 -11 -20 -15 -200
-33 -363 -38 -500 -56 -500 -67 0 -11 54 -39 77 -39 10 0 43 -25 73 -55 40
-40 62 -55 82 -55 28 0 122 -33 238 -83 73 -32 218 -86 282 -106 92 -29 236
-28 518 4 124 14 286 32 360 40 74 8 176 19 225 25 50 5 128 14 175 20 47 5
159 17 250 26 91 8 201 19 245 24 215 23 287 30 370 35 273 15 1193 76 1211
80 35 8 42 56 10 68 -6 3 -200 -8 -431 -24 -427 -29 -543 -33 -582 -23 -23 6
-42 43 -46 89 -2 27 1 30 38 37 63 12 422 37 898 62 435 24 467 28 467 61 0
35 -24 38 -238 26 -248 -14 -349 -16 -422 -6 -51 6 -57 10 -77 44 -34 59 -99
358 -87 401 4 14 6 35 5 47 -1 13 5 23 16 27 10 3 27 20 36 36 16 27 17 31 2
36 -8 4 -35 3 -60 0 -44 -7 -44 -7 -60 30 -9 21 -13 44 -11 51 6 14 159 92
500 253 236 111 241 113 405 147 91 18 218 42 282 53 64 11 128 24 141 29 14
5 105 26 204 46 165 33 350 73 1494 325 626 138 1309 286 1479 321 l155 32 22
-27 c13 -14 26 -26 29 -26 9 0 75 -50 100 -75 43 -43 224 -188 309 -249 40
-28 68 -59 103 -117 43 -71 53 -81 104 -103 32 -14 104 -37 161 -51 56 -15
150 -40 207 -56 111 -31 170 -39 116 -15 -16 7 -59 20 -95 30 -121 32 -235 68
-244 77 -17 15 26 50 119 96 50 25 91 47 93 48 3 3 -34 104 -68 185 -46 107
-150 375 -150 385 0 10 112 38 206 52 38 6 80 40 89 72 l7 24 -161 -7 c-139
-6 -161 -5 -161 8 0 8 17 84 39 168 21 84 59 241 85 348 26 107 50 209 55 225
8 26 49 191 122 489 10 44 19 83 19 88 0 4 -36 8 -80 8 l-80 0 -14 35 c-27 63
-66 56 -66 -12 0 -30 -3 -33 -29 -33 -16 0 -38 -8 -49 -17 -17 -16 -131 -265
-132 -289 -1 -5 -9 -27 -20 -49 -11 -22 -19 -43 -20 -47 0 -4 -13 -35 -29 -70
-48 -104 -68 -152 -76 -178 -4 -14 -11 -30 -16 -36 -5 -6 -15 -28 -23 -50 -7
-21 -23 -59 -34 -84 -11 -25 -36 -85 -57 -135 -20 -49 -49 -119 -64 -155 l-27
-65 -90 -7 c-49 -4 -168 -11 -264 -17 -97 -5 -188 -15 -204 -21 -25 -9 -32 -7
-60 18 -38 34 -204 208 -307 323 -89 98 -118 117 -153 101 -14 -6 -32 -23 -42
-36 -15 -24 -15 -29 1 -68 20 -51 43 -78 208 -248 86 -88 125 -136 119 -142
-6 -6 -109 -14 -229 -19 -120 -5 -294 -13 -388 -19 -93 -5 -318 -17 -500 -25
-325 -14 -530 -26 -835 -46 -241 -15 -535 -29 -772 -36 l-216 -6 -22 44 c-22
44 -58 89 -70 89 -4 0 -73 36 -155 81 -82 44 -176 93 -210 109 -71 34 -204
107 -225 124 -35 29 -85 37 -275 44 l-199 7 -13 44 c-14 48 -38 81 -60 81 -8
0 -32 -9 -54 -21 -39 -19 -42 -19 -60 -3 -10 9 -24 32 -31 52 l-13 34 -305 -7
c-168 -4 -323 -10 -345 -15 -98 -20 -275 -33 -298 -23 -12 6 -29 13 -38 16
-19 6 -29 72 -29 188 0 49 4 80 13 87 6 5 379 107 827 227 1672 445 2513 674
3090 842 162 47 385 110 495 140 110 29 247 69 305 87 120 39 261 79 475 134
165 44 343 96 351 105 17 17 -37 97 -64 96 -9 0 -46 -7 -81 -14z m-4467 -3956
c42 -33 33 -46 -36 -53 -35 -4 -78 -9 -95 -13 -26 -4 -33 -2 -33 12 0 10 22
27 63 45 34 16 65 29 68 30 4 0 18 -9 33 -21z m211 -135 c0 -11 5 -27 12 -35
11 -14 38 -118 68 -264 11 -53 14 -99 10 -137 -8 -68 6 -62 -205 -78 -74 -5
-186 -15 -248 -21 -62 -6 -116 -8 -120 -4 -4 4 -9 91 -12 193 -3 103 -8 192
-12 198 -4 6 -3 39 3 73 9 50 15 62 33 65 11 3 102 10 201 16 99 6 191 13 205
14 50 6 65 2 65 -20z m-577 -102 c3 -99 9 -95 -158 -112 -120 -11 -233 -24
-360 -40 -41 -5 -127 -14 -190 -20 -63 -6 -124 -13 -136 -15 -29 -6 -54 63
-35 98 11 21 32 27 194 56 100 18 198 37 217 42 147 37 262 61 337 68 137 13
128 19 131 -77z m-9 -190 c9 -16 16 -72 19 -143 4 -106 2 -117 -14 -123 -10
-4 -93 -11 -184 -16 -91 -6 -235 -17 -320 -25 -85 -9 -184 -15 -220 -13 l-65
3 -27 55 c-34 67 -54 179 -35 196 6 6 91 18 187 28 96 10 261 28 365 40 265
32 277 32 294 -2z m-1469 -51 c0 -5 -9 -13 -20 -16 -32 -10 -23 -33 20 -55 46
-23 49 -38 16 -69 -20 -19 -47 -25 -192 -41 -93 -11 -216 -26 -274 -34 -99
-13 -108 -12 -155 6 -69 27 -85 44 -85 90 0 33 5 41 33 58 43 27 54 25 72 -10
21 -40 48 -38 73 4 25 42 31 43 253 60 213 17 259 18 259 7z m553 -96 c17 -70
16 -154 -2 -184 -7 -10 -62 -19 -188 -32 -98 -10 -193 -19 -210 -19 l-33 0 0
81 c0 44 5 90 11 102 9 16 9 22 0 25 -17 6 -13 27 7 45 12 11 52 20 123 28 57
6 131 14 164 19 108 14 108 14 128 -65z m-1349 9 c3 -9 6 -25 6 -35 0 -18 -6
-20 -51 -17 -55 3 -78 21 -66 52 9 23 102 23 111 0z m849 -184 c6 -48 5 -66
-5 -72 -7 -5 -78 -7 -158 -5 -123 4 -156 8 -219 30 -40 14 -76 29 -80 32 -17
18 45 33 205 49 97 10 188 22 203 26 41 13 45 8 54 -60z m1447 -49 c0 -40 -19
-90 -39 -100 -18 -10 -24 -11 -586 -71 -382 -41 -671 -70 -692 -70 -18 0 -44
69 -41 105 l3 30 110 12 c143 16 482 51 665 68 80 8 195 19 255 25 61 6 152
15 204 20 52 6 96 12 99 15 10 10 22 -8 22 -34z m-2008 -20 c202 -81 291 -101
441 -101 l127 0 0 -30 c0 -17 -6 -46 -14 -65 -11 -26 -23 -36 -53 -44 -82 -21
-474 -53 -591 -49 -116 4 -119 5 -214 51 -54 26 -101 47 -106 47 -20 0 -128
53 -149 73 -15 13 -23 32 -23 54 0 31 4 36 46 54 25 12 86 25 137 30 51 5 124
13 162 18 39 4 80 9 92 10 13 0 78 -21 145 -48z m-678 -37 c16 -42 8 -54 -37
-54 -46 0 -67 13 -67 41 0 28 94 40 104 13z"/>
</g>
</svg>
