<svg xmlns="http://www.w3.org/2000/svg" width="595" height="842" aria-labelledby="loading-aria" preserveAspectRatio="none" role="img" viewBox="0 0 595 842"><title id="loading-aria">Loading...</title><rect width="100%" height="100%" x="0" y="0" clip-path="url(#clip-path)" style="fill:url(#fill)"/><defs><clipPath id="clip-path"><rect width="191" height="14" x="44" y="64" rx="2.068"/><rect width="140" height="14" x="44" y="94" rx="2.068"/><rect width="507" height="14" x="44" y="152" rx="7"/><rect width="507" height="14" x="44" y="182" rx="7"/><rect width="507" height="14" x="44" y="212" rx="7"/><rect width="507" height="14" x="44" y="242" rx="7"/><rect width="507" height="14" x="44" y="272" rx="7"/><rect width="507" height="14" x="44" y="302" rx="7"/><rect width="349" height="14" x="44" y="332" rx="7"/><rect width="507" height="14" x="44" y="390" rx="7"/><rect width="507" height="14" x="44" y="420" rx="7"/><rect width="507" height="14" x="44" y="450" rx="7"/><rect width="507" height="14" x="44" y="480" rx="7"/><rect width="507" height="14" x="44" y="510" rx="7"/><rect width="507" height="14" x="44" y="540" rx="7"/><rect width="183" height="14" x="44" y="570" rx="7"/><rect width="191" height="14" x="360" y="628" rx="2.068"/><rect width="140" height="14" x="411" y="678" rx="2.068"/><rect width="191" height="14" x="44" y="64" rx="2.068"/><rect width="140" height="14" x="44" y="94" rx="2.068"/><rect width="507" height="14" x="44" y="152" rx="7"/><rect width="507" height="14" x="44" y="182" rx="7"/><rect width="507" height="14" x="44" y="212" rx="7"/><rect width="507" height="14" x="44" y="242" rx="7"/><rect width="507" height="14" x="44" y="272" rx="7"/><rect width="507" height="14" x="44" y="302" rx="7"/><rect width="349" height="14" x="44" y="332" rx="7"/><rect width="507" height="14" x="44" y="390" rx="7"/><rect width="507" height="14" x="44" y="420" rx="7"/><rect width="507" height="14" x="44" y="450" rx="7"/><rect width="507" height="14" x="44" y="480" rx="7"/><rect width="507" height="14" x="44" y="510" rx="7"/><rect width="507" height="14" x="44" y="540" rx="7"/><rect width="183" height="14" x="44" y="570" rx="7"/><rect width="191" height="14" x="360" y="628" rx="2.068"/><rect width="140" height="14" x="411" y="678" rx="2.068"/></clipPath><linearGradient id="fill"><stop offset=".6" stop-color="#E7E7E8" stop-opacity="1"><animate attributeName="offset" dur="2s" keyTimes="0; 0.25; 1" repeatCount="indefinite" values="-2; -2; 1"/></stop><stop offset="1.6" stop-color="#CFCFD1" stop-opacity="1"><animate attributeName="offset" dur="2s" keyTimes="0; 0.25; 1" repeatCount="indefinite" values="-1; -1; 2"/></stop><stop offset="2.6" stop-color="#E7E7E8" stop-opacity="1"><animate attributeName="offset" dur="2s" keyTimes="0; 0.25; 1" repeatCount="indefinite" values="0; 0; 3"/></stop></linearGradient></defs></svg>