<?xml version="1.0" standalone="no"?>
<!DOCTYPE svg PUBLIC "-//W3C//DTD SVG 1.1//EN" "http://www.w3.org/Graphics/SVG/1.1/DTD/svg11.dtd" >
<svg xmlns="http://www.w3.org/2000/svg">
<defs>
  <font id="Persona Icon" horiz-adv-x="1000">
    <font-face font-family="Persona Icon"
      units-per-em="1000" ascent="1000"
      descent="0" />
    <missing-glyph horiz-adv-x="0" />
    <glyph glyph-name="activity"
      unicode="&#xEA01;"
      horiz-adv-x="1000" d="M125 729.1875A145.8125 145.8125 0 0 0 270.8125 875H729.1875A145.8125 145.8125 0 0 0 875 729.1875V270.8125A145.8125 145.8125 0 0 0 729.1875 125H270.8125A145.8125 145.8125 0 0 0 125 270.8125zM270.8125 812.5C224.8125 812.5 187.5 775.1875 187.5 729.1875V270.8125C187.5 224.8125 224.8125 187.5 270.8125 187.5H729.1875C775.1875 187.5 812.5 224.8125 812.5 270.8125V729.1875C812.5 775.1875 775.1875 812.5 729.1875 812.5zM444.9375 588.4375A31.25 31.25 0 0 0 467.6875 576.0625L560.6875 452.0625L668.875 560.3125A31.25 31.25 0 0 0 713.0625 516.125L579.375 382.375A31.25 31.25 0 0 0 532.3125 385.75L439.3125 509.6875L331.125 401.5625A31.25 31.25 0 0 0 286.9375 445.6875L420.625 579.4375A31.25 31.25 0 0 0 444.9375000000001 588.4375" />
    <glyph glyph-name="activity-1"
      unicode="&#x31;&#x36;"
      horiz-adv-x="1000" d="M125 729.1875A145.8125 145.8125 0 0 0 270.8125 875H729.1875A145.8125 145.8125 0 0 0 875 729.1875V270.8125A145.8125 145.8125 0 0 0 729.1875 125H270.8125A145.8125 145.8125 0 0 0 125 270.8125zM270.8125 812.5C224.8125 812.5 187.5 775.1875 187.5 729.1875V270.8125C187.5 224.8125 224.8125 187.5 270.8125 187.5H729.1875C775.1875 187.5 812.5 224.8125 812.5 270.8125V729.1875C812.5 775.1875 775.1875 812.5 729.1875 812.5zM444.9375 588.4375A31.25 31.25 0 0 0 467.6875 576.0625L560.6875 452.0625L668.875 560.3125A31.25 31.25 0 0 0 713.0625 516.125L579.375 382.375A31.25 31.25 0 0 0 532.3125 385.75L439.3125 509.6875L331.125 401.5625A31.25 31.25 0 0 0 286.9375 445.6875L420.625 579.4375A31.25 31.25 0 0 0 444.9375000000001 588.4375" />
    <glyph glyph-name="add-circle"
      unicode="&#xEA02;"
      horiz-adv-x="1000" d="M500 125A375 375 0 1 0 500 875A375 375 0 0 0 500 125M187.5 500A312.5 312.5 0 1 1 812.5 500A312.5 312.5 0 0 1 187.5 500M500 687.5A31.875 31.875 0 0 0 531.875 655.625V531.875H655.625A31.875 31.875 0 0 0 655.625 468.125H531.875V344.375A31.875 31.875 0 1 0 468.125 344.375V468.125H344.375A31.875 31.875 0 1 0 344.375 531.875H468.125V655.625A31.875 31.875 0 0 0 500 687.5" />
    <glyph glyph-name="add-circle-1"
      unicode="&#x31;&#x36;"
      horiz-adv-x="1000" d="M500 125A375 375 0 1 0 500 875A375 375 0 0 0 500 125M187.5 500A312.5 312.5 0 1 1 812.5 500A312.5 312.5 0 0 1 187.5 500M500 687.5A31.875 31.875 0 0 0 531.875 655.625V531.875H655.625A31.875 31.875 0 0 0 655.625 468.125H531.875V344.375A31.875 31.875 0 1 0 468.125 344.375V468.125H344.375A31.875 31.875 0 1 0 344.375 531.875H468.125V655.625A31.875 31.875 0 0 0 500 687.5" />
    <glyph glyph-name="add-plus"
      unicode="&#xEA03;"
      horiz-adv-x="1000" d="M187.5 500A31.25 31.25 0 0 0 218.75 531.25H468.75V781.25A31.25 31.25 0 0 0 531.25 781.25V531.25H781.25A31.25 31.25 0 0 0 781.25 468.75H531.25V218.75A31.25 31.25 0 0 0 468.75 218.75V468.75H218.75A31.25 31.25 0 0 0 187.5 500" />
    <glyph glyph-name="add-plus-1"
      unicode="&#x31;&#x36;"
      horiz-adv-x="1000" d="M187.5 500A31.25 31.25 0 0 0 218.75 531.25H468.75V781.25A31.25 31.25 0 0 0 531.25 781.25V531.25H781.25A31.25 31.25 0 0 0 781.25 468.75H531.25V218.75A31.25 31.25 0 0 0 468.75 218.75V468.75H218.75A31.25 31.25 0 0 0 187.5 500" />
    <glyph glyph-name="address"
      unicode="&#xEA04;"
      horiz-adv-x="1000" d="M418.75 898A406.25 406.25 0 0 0 896.8750000000001 413A31.25 31.25 0 1 0 835.8125000000001 426.4375A343.75 343.75 0 1 1 625.3125 179.9375000000001A31.25 31.25 0 1 0 648.1250000000001 121.6875000000001A406.25 406.25 0 1 0 418.75 898M666.6875 697.9375A31.25 31.25 0 0 0 697.9375 666.6875V416.6875A31.25 31.25 0 1 0 635.4375 416.6875V666.6875A31.25 31.25 0 0 0 666.6875 697.9375M302.0625 500A197.9375 197.9375 0 1 0 697.9375 500A197.9375 197.9375 0 0 0 302.0625 500M500 635.4375A135.4375 135.4375 0 1 1 500 364.5625A135.4375 135.4375 0 0 1 500 635.4375M836.1875 427.5C840.8749999999999 450.1875 843.1875 473.3125 843.1875 484.5H905.6875C905.6875 468.0625 902.7499999999998 440.5625000000001 897.375 414.7500000000001C894.6875000000001 401.75 891.125 388.1875 886.75 376.1875000000001C882.625 365.0625000000001 876.4375000000001 351.5625000000001 866.5625 341.6875000000001A135.4375 135.4375 0 0 0 635.4375 437.5H697.9375A72.9375 72.9375 0 0 1 822.375 385.9375C822.6249999999999 386.2500000000001 824.9375 389.375 828.0624999999999 397.8125C831.1249999999999 405.9375000000001 833.8749999999999 416.25 836.1875 427.5" />
    <glyph glyph-name="address-1"
      unicode="&#x31;&#x36;"
      horiz-adv-x="1000" d="M418.75 898A406.25 406.25 0 0 0 896.8750000000001 413A31.25 31.25 0 1 0 835.8125000000001 426.4375A343.75 343.75 0 1 1 625.3125 179.9375000000001A31.25 31.25 0 1 0 648.1250000000001 121.6875000000001A406.25 406.25 0 1 0 418.75 898M666.6875 697.9375A31.25 31.25 0 0 0 697.9375 666.6875V416.6875A31.25 31.25 0 1 0 635.4375 416.6875V666.6875A31.25 31.25 0 0 0 666.6875 697.9375M302.0625 500A197.9375 197.9375 0 1 0 697.9375 500A197.9375 197.9375 0 0 0 302.0625 500M500 635.4375A135.4375 135.4375 0 1 1 500 364.5625A135.4375 135.4375 0 0 1 500 635.4375M836.1875 427.5C840.8749999999999 450.1875 843.1875 473.3125 843.1875 484.5H905.6875C905.6875 468.0625 902.7499999999998 440.5625000000001 897.375 414.7500000000001C894.6875000000001 401.75 891.125 388.1875 886.75 376.1875000000001C882.625 365.0625000000001 876.4375000000001 351.5625000000001 866.5625 341.6875000000001A135.4375 135.4375 0 0 0 635.4375 437.5H697.9375A72.9375 72.9375 0 0 1 822.375 385.9375C822.6249999999999 386.2500000000001 824.9375 389.375 828.0624999999999 397.8125C831.1249999999999 405.9375000000001 833.8749999999999 416.25 836.1875 427.5" />
    <glyph glyph-name="adjust"
      unicode="&#xEA05;"
      horiz-adv-x="1000" d="M319.4375 654.5625C375.75 654.5625 423.125 694.25 436.9375 748.0625H906.25A31.875 31.875 0 0 1 937.5 780.4375A31.875 31.875 0 0 1 906.25 812.75H436.875C423.125 866.5625 375.8125 906.25 319.5 906.25C263.25 906.25 215.8125 866.5625 202 812.75H93.75A31.875 31.875 0 0 1 62.5 780.4375A31.875 31.875 0 0 1 93.75 748.0625H202C215.75 694.25 263.125 654.5625 319.5 654.5625M319.5 841.5625C352 841.5625 378.4375 814.3125 378.5625 780.6875V780.1875C378.4375000000001 746.5625 352.0000000000001 719.3125 319.5 719.3125C286.9375 719.3125 260.5 746.6875 260.5 780.4375S286.9375 841.5625 319.5 841.5625M62.5 219.5625A31.875 31.875 0 0 0 93.75 251.9375H563.125C576.875 305.7500000000001 624.25 345.375 680.5625 345.375C736.8125 345.375 784.25 305.75 798.0624999999999 251.9374999999999H906.25C923.5 251.9374999999999 937.5 237.4375 937.5 219.5624999999999A31.8125 31.8125 0 0 0 906.25 187.2499999999999H798C784.25 133.3749999999999 736.8750000000001 93.7499999999999 680.5000000000001 93.7499999999999C624.2500000000001 93.7499999999999 576.8750000000001 133.3749999999999 563.0625000000001 187.2499999999999H93.75A31.8125 31.8125 0 0 0 62.5 219.5624999999999M739.5625 219.8124999999999C739.5 253.4374999999999 713.0625 280.6874999999999 680.5625 280.6874999999999C647.9375 280.6874999999999 621.5625 253.3124999999998 621.5625 219.5624999999999S647.9375 158.4374999999999 680.5625 158.4374999999999C713.0624999999999 158.4374999999999 739.4999999999999 185.7499999999999 739.5624999999999 219.3749999999999V219.5624999999999zM93.75 532.375A31.875 31.875 0 0 1 62.5 500A31.875 31.875 0 0 1 93.75 467.625H906.25A31.875 31.875 0 0 1 937.5 500A31.875 31.875 0 0 1 906.25 532.375z" />
    <glyph glyph-name="adjust-1"
      unicode="&#x31;&#x36;"
      horiz-adv-x="1000" d="M319.4375 654.5625C375.75 654.5625 423.125 694.25 436.9375 748.0625H906.25A31.875 31.875 0 0 1 937.5 780.4375A31.875 31.875 0 0 1 906.25 812.75H436.875C423.125 866.5625 375.8125 906.25 319.5 906.25C263.25 906.25 215.8125 866.5625 202 812.75H93.75A31.875 31.875 0 0 1 62.5 780.4375A31.875 31.875 0 0 1 93.75 748.0625H202C215.75 694.25 263.125 654.5625 319.5 654.5625M319.5 841.5625C352 841.5625 378.4375 814.3125 378.5625 780.6875V780.1875C378.4375000000001 746.5625 352.0000000000001 719.3125 319.5 719.3125C286.9375 719.3125 260.5 746.6875 260.5 780.4375S286.9375 841.5625 319.5 841.5625M62.5 219.5625A31.875 31.875 0 0 0 93.75 251.9375H563.125C576.875 305.7500000000001 624.25 345.375 680.5625 345.375C736.8125 345.375 784.25 305.75 798.0624999999999 251.9374999999999H906.25C923.5 251.9374999999999 937.5 237.4375 937.5 219.5624999999999A31.8125 31.8125 0 0 0 906.25 187.2499999999999H798C784.25 133.3749999999999 736.8750000000001 93.7499999999999 680.5000000000001 93.7499999999999C624.2500000000001 93.7499999999999 576.8750000000001 133.3749999999999 563.0625000000001 187.2499999999999H93.75A31.8125 31.8125 0 0 0 62.5 219.5624999999999M739.5625 219.8124999999999C739.5 253.4374999999999 713.0625 280.6874999999999 680.5625 280.6874999999999C647.9375 280.6874999999999 621.5625 253.3124999999998 621.5625 219.5624999999999S647.9375 158.4374999999999 680.5625 158.4374999999999C713.0624999999999 158.4374999999999 739.4999999999999 185.7499999999999 739.5624999999999 219.3749999999999V219.5624999999999zM93.75 532.375A31.875 31.875 0 0 1 62.5 500A31.875 31.875 0 0 1 93.75 467.625H906.25A31.875 31.875 0 0 1 937.5 500A31.875 31.875 0 0 1 906.25 532.375z" />
    <glyph glyph-name="admin-center-apps"
      unicode="&#xEA06;"
      horiz-adv-x="1000" d="M938.3125 500C938.3125 518 928.8125 534.4375 909.8125 567.3125L763.25 821.25C744.3124999999999 854.0625 734.8125 870.5 719.1875 879.5C703.5625 888.5625 684.6249999999999 888.5625 646.6875 888.5625H353.375C315.4375 888.5625 296.5 888.5625 280.875 879.5C265.25 870.5 255.75 854.0625 236.75 821.25L90.125 567.3125C71.1875 534.375 61.6875 518 61.6875 500C61.6875 481.9375 71.1875 465.5625 90.125 432.6875L236.7500000000001 178.6875C255.7500000000001 145.875 265.1875 129.4375 280.8125 120.4375C296.4375 111.375 315.4375000000001 111.375 353.3125000000001 111.375H646.625C684.5625 111.375 703.5 111.375 719.125 120.4375C734.75 129.4375 744.25 145.875 763.1875 178.6875L909.8125 432.6875C928.8125 465.5625 938.3125 481.9375 938.3125 500M500 348.6875A151.25 151.25 0 1 0 500 651.1875A151.25 151.25 0 0 0 500 348.6875M938.3125 500C938.3125 518 928.8125 534.4375 909.8125 567.3125L763.25 821.25C744.3124999999999 854.0625 734.8125 870.5 719.1875 879.5C703.5625 888.5625 684.6249999999999 888.5625 646.6875 888.5625H353.375C315.4375 888.5625 296.5 888.5625 280.875 879.5C265.25 870.5 255.75 854.0625 236.75 821.25L90.125 567.3125C71.1875 534.375 61.6875 518 61.6875 500C61.6875 481.9375 71.1875 465.5625 90.125 432.6875L236.7500000000001 178.6875C255.7500000000001 145.875 265.1875 129.4375 280.8125 120.4375C296.4375 111.375 315.4375000000001 111.375 353.3125000000001 111.375H646.625C684.5625 111.375 703.5 111.375 719.125 120.4375C734.75 129.4375 744.25 145.875 763.1875 178.6875L909.8125 432.6875C928.8125 465.5625 938.3125 481.9375 938.3125 500M500 348.6875A151.25 151.25 0 1 0 500 651.1875A151.25 151.25 0 0 0 500 348.6875M62.5 500A437.5 437.5 0 0 1 937.5 500A437.5 437.5 0 0 1 62.5 500" />
    <glyph glyph-name="admin-center-apps-1"
      unicode="&#x31;&#x36;"
      horiz-adv-x="1000" d="M938.3125 500C938.3125 518 928.8125 534.4375 909.8125 567.3125L763.25 821.25C744.3124999999999 854.0625 734.8125 870.5 719.1875 879.5C703.5625 888.5625 684.6249999999999 888.5625 646.6875 888.5625H353.375C315.4375 888.5625 296.5 888.5625 280.875 879.5C265.25 870.5 255.75 854.0625 236.75 821.25L90.125 567.3125C71.1875 534.375 61.6875 518 61.6875 500C61.6875 481.9375 71.1875 465.5625 90.125 432.6875L236.7500000000001 178.6875C255.7500000000001 145.875 265.1875 129.4375 280.8125 120.4375C296.4375 111.375 315.4375000000001 111.375 353.3125000000001 111.375H646.625C684.5625 111.375 703.5 111.375 719.125 120.4375C734.75 129.4375 744.25 145.875 763.1875 178.6875L909.8125 432.6875C928.8125 465.5625 938.3125 481.9375 938.3125 500M500 348.6875A151.25 151.25 0 1 0 500 651.1875A151.25 151.25 0 0 0 500 348.6875M938.3125 500C938.3125 518 928.8125 534.4375 909.8125 567.3125L763.25 821.25C744.3124999999999 854.0625 734.8125 870.5 719.1875 879.5C703.5625 888.5625 684.6249999999999 888.5625 646.6875 888.5625H353.375C315.4375 888.5625 296.5 888.5625 280.875 879.5C265.25 870.5 255.75 854.0625 236.75 821.25L90.125 567.3125C71.1875 534.375 61.6875 518 61.6875 500C61.6875 481.9375 71.1875 465.5625 90.125 432.6875L236.7500000000001 178.6875C255.7500000000001 145.875 265.1875 129.4375 280.8125 120.4375C296.4375 111.375 315.4375000000001 111.375 353.3125000000001 111.375H646.625C684.5625 111.375 703.5 111.375 719.125 120.4375C734.75 129.4375 744.25 145.875 763.1875 178.6875L909.8125 432.6875C928.8125 465.5625 938.3125 481.9375 938.3125 500M500 348.6875A151.25 151.25 0 1 0 500 651.1875A151.25 151.25 0 0 0 500 348.6875M62.5 500A437.5 437.5 0 0 1 937.5 500A437.5 437.5 0 0 1 62.5 500" />
    <glyph glyph-name="align-center"
      unicode="&#xEA07;"
      horiz-adv-x="1000" d="M125 780.375C125 798.125 139.375 812.5 157.125 812.5H842.8749999999999A32.125 32.125 0 1 0 842.8749999999999 748.3125H157.125A32.125 32.125 0 0 0 125 780.4375M302.125 592.5625A31.25 31.25 0 0 0 333.375 623.8125H666.6875A31.25 31.25 0 1 0 666.6875 561.3125H333.375A31.25 31.25 0 0 0 302.125 592.5625M125 405.625C125 422.875 139.375 436.875 157.125 436.875H842.875C860.6250000000001 436.875 875 422.875 875 405.625S860.625 374.375 842.875 374.375H157.125A31.6875 31.6875 0 0 0 125 405.625M302.125 218.75A31.25 31.25 0 0 0 333.375 249.875H666.6875A31.25 31.25 0 1 0 666.6875 187.5H333.375A31.25 31.25 0 0 0 302.125 218.75" />
    <glyph glyph-name="align-center-1"
      unicode="&#x31;&#x36;"
      horiz-adv-x="1000" d="M125 780.375C125 798.125 139.375 812.5 157.125 812.5H842.8749999999999A32.125 32.125 0 1 0 842.8749999999999 748.3125H157.125A32.125 32.125 0 0 0 125 780.4375M302.125 592.5625A31.25 31.25 0 0 0 333.375 623.8125H666.6875A31.25 31.25 0 1 0 666.6875 561.3125H333.375A31.25 31.25 0 0 0 302.125 592.5625M125 405.625C125 422.875 139.375 436.875 157.125 436.875H842.875C860.6250000000001 436.875 875 422.875 875 405.625S860.625 374.375 842.875 374.375H157.125A31.6875 31.6875 0 0 0 125 405.625M302.125 218.75A31.25 31.25 0 0 0 333.375 249.875H666.6875A31.25 31.25 0 1 0 666.6875 187.5H333.375A31.25 31.25 0 0 0 302.125 218.75" />
    <glyph glyph-name="align-justify"
      unicode="&#xEA08;"
      horiz-adv-x="1000" d="M125 780.375C125 798.125 139.375 812.5 157.125 812.5H842.8749999999999A32.125 32.125 0 1 0 842.8749999999999 748.3125H157.125A32.125 32.125 0 0 0 125 780.4375M125 592.875C125 610.625 139.375 625 157.125 625H842.8749999999999A32.125 32.125 0 1 0 842.8749999999999 560.8125H157.125A32.125 32.125 0 0 0 125 592.9375M125 405.625C125 422.875 139.375 436.875 157.125 436.875H842.875C860.6250000000001 436.875 875 422.875 875 405.625S860.625 374.375 842.875 374.375H157.125A31.6875 31.6875 0 0 0 125 405.625M125 217.875C125 235.6250000000001 139.375 250 157.125 250H842.875A32.125 32.125 0 1 0 842.875 185.8125H157.125A32.125 32.125 0 0 0 125 217.875" />
    <glyph glyph-name="align-justify-1"
      unicode="&#x31;&#x36;"
      horiz-adv-x="1000" d="M125 780.375C125 798.125 139.375 812.5 157.125 812.5H842.8749999999999A32.125 32.125 0 1 0 842.8749999999999 748.3125H157.125A32.125 32.125 0 0 0 125 780.4375M125 592.875C125 610.625 139.375 625 157.125 625H842.8749999999999A32.125 32.125 0 1 0 842.8749999999999 560.8125H157.125A32.125 32.125 0 0 0 125 592.9375M125 405.625C125 422.875 139.375 436.875 157.125 436.875H842.875C860.6250000000001 436.875 875 422.875 875 405.625S860.625 374.375 842.875 374.375H157.125A31.6875 31.6875 0 0 0 125 405.625M125 217.875C125 235.6250000000001 139.375 250 157.125 250H842.875A32.125 32.125 0 1 0 842.875 185.8125H157.125A32.125 32.125 0 0 0 125 217.875" />
    <glyph glyph-name="align-left"
      unicode="&#xEA09;"
      horiz-adv-x="1000" d="M125 780.375C125 798.125 139.375 812.5 157.125 812.5H842.8749999999999A32.125 32.125 0 1 0 842.8749999999999 748.3125H157.125A32.125 32.125 0 0 0 125 780.4375M125 592.5625A31.25 31.25 0 0 0 156.25 623.8125H489.5625A31.25 31.25 0 1 0 489.5625 561.3125H156.25A31.25 31.25 0 0 0 125 592.5625M125 405.625C125 422.875 139.375 436.875 157.125 436.875H842.875C860.6250000000001 436.875 875 422.875 875 405.625S860.625 374.4375 842.875 374.4375H157.125A31.6875 31.6875 0 0 0 125 405.6875M125 218.75A31.25 31.25 0 0 0 156.25 249.9375H489.5625A31.25 31.25 0 1 0 489.5625 187.5H156.25A31.25 31.25 0 0 0 125 218.75" />
    <glyph glyph-name="align-left-1"
      unicode="&#x31;&#x36;"
      horiz-adv-x="1000" d="M125 780.375C125 798.125 139.375 812.5 157.125 812.5H842.8749999999999A32.125 32.125 0 1 0 842.8749999999999 748.3125H157.125A32.125 32.125 0 0 0 125 780.4375M125 592.5625A31.25 31.25 0 0 0 156.25 623.8125H489.5625A31.25 31.25 0 1 0 489.5625 561.3125H156.25A31.25 31.25 0 0 0 125 592.5625M125 405.625C125 422.875 139.375 436.875 157.125 436.875H842.875C860.6250000000001 436.875 875 422.875 875 405.625S860.625 374.4375 842.875 374.4375H157.125A31.6875 31.6875 0 0 0 125 405.6875M125 218.75A31.25 31.25 0 0 0 156.25 249.9375H489.5625A31.25 31.25 0 1 0 489.5625 187.5H156.25A31.25 31.25 0 0 0 125 218.75" />
    <glyph glyph-name="align-right"
      unicode="&#xEA0A;"
      horiz-adv-x="1000" d="M125 780.375C125 798.125 139.375 812.5 157.125 812.5H842.8749999999999A32.125 32.125 0 1 0 842.8749999999999 748.3125H157.125A32.125 32.125 0 0 0 125 780.4375M479.1875 592.5625A31.25 31.25 0 0 0 510.4375 623.8125H843.75A31.25 31.25 0 1 0 843.75 561.3125H510.4375A31.25 31.25 0 0 0 479.1875 592.5625M125 405.625C125 422.875 139.375 436.875 157.125 436.875H842.875C860.6250000000001 436.875 875 422.875 875 405.625S860.625 374.375 842.875 374.375H157.125A31.6875 31.6875 0 0 0 125 405.625M479.1875 218.75A31.25 31.25 0 0 0 510.4375 249.875H843.75A31.25 31.25 0 1 0 843.75 187.5H510.4375A31.25 31.25 0 0 0 479.1875 218.75" />
    <glyph glyph-name="align-right-1"
      unicode="&#x31;&#x36;"
      horiz-adv-x="1000" d="M125 780.375C125 798.125 139.375 812.5 157.125 812.5H842.8749999999999A32.125 32.125 0 1 0 842.8749999999999 748.3125H157.125A32.125 32.125 0 0 0 125 780.4375M479.1875 592.5625A31.25 31.25 0 0 0 510.4375 623.8125H843.75A31.25 31.25 0 1 0 843.75 561.3125H510.4375A31.25 31.25 0 0 0 479.1875 592.5625M125 405.625C125 422.875 139.375 436.875 157.125 436.875H842.875C860.6250000000001 436.875 875 422.875 875 405.625S860.625 374.375 842.875 374.375H157.125A31.6875 31.6875 0 0 0 125 405.625M479.1875 218.75A31.25 31.25 0 0 0 510.4375 249.875H843.75A31.25 31.25 0 1 0 843.75 187.5H510.4375A31.25 31.25 0 0 0 479.1875 218.75" />
    <glyph glyph-name="api"
      unicode="&#xEA0B;"
      horiz-adv-x="1000" d="M232.625 875A107.625 107.625 0 1 1 283.375 672.4375L349.625 606.1875A183.125 183.125 0 0 1 316 499.9375000000001C316 460.4375 328.4375 423.8125 349.625 393.875L283.375 327.625A107.625 107.625 0 1 1 327.5625 283.4374999999999L393.8124999999999 349.6874999999999C423.8125 328.4374999999999 460.4374999999999 315.9375 499.9999999999999 315.9375S576.1874999999999 328.4374999999999 606.1249999999999 349.6874999999999L672.375 283.4374999999999A107.625 107.625 0 1 1 716.5625 327.625L650.3125 393.875C671.5625 423.875 684.0625 460.4375 684.0625 500C684.0625 539.5 671.5625000000001 576.125 650.3125000000001 606.125L716.5625000000001 672.375A107.625 107.625 0 1 1 672.375 716.5625L606.125 650.3125A183.125 183.125 0 0 1 500 684.0625C460.4375 684.0625 423.875 671.5625 393.875 650.3125L327.625 716.5625A107.625 107.625 0 0 1 232.5625 875M187.5 767.375A45.125 45.125 0 1 0 277.8125 767.375A45.125 45.125 0 0 0 187.5 767.375M232.625 277.75A45.125 45.125 0 1 0 232.625 187.5A45.125 45.125 0 0 0 232.625 277.7499999999999M378.5 500A121.5 121.5 0 1 0 621.4999999999999 500A121.5 121.5 0 0 0 378.4375 500M722.1875 767.375A45.125 45.125 0 1 0 812.4374999999999 767.375A45.125 45.125 0 0 0 722.1875 767.375M767.3125 277.7499999999999A45.125 45.125 0 1 0 767.3125 187.5A45.125 45.125 0 0 0 767.3125 277.7499999999999" />
    <glyph glyph-name="api-1"
      unicode="&#x31;&#x36;"
      horiz-adv-x="1000" d="M232.625 875A107.625 107.625 0 1 1 283.375 672.4375L349.625 606.1875A183.125 183.125 0 0 1 316 499.9375000000001C316 460.4375 328.4375 423.8125 349.625 393.875L283.375 327.625A107.625 107.625 0 1 1 327.5625 283.4374999999999L393.8124999999999 349.6874999999999C423.8125 328.4374999999999 460.4374999999999 315.9375 499.9999999999999 315.9375S576.1874999999999 328.4374999999999 606.1249999999999 349.6874999999999L672.375 283.4374999999999A107.625 107.625 0 1 1 716.5625 327.625L650.3125 393.875C671.5625 423.875 684.0625 460.4375 684.0625 500C684.0625 539.5 671.5625000000001 576.125 650.3125000000001 606.125L716.5625000000001 672.375A107.625 107.625 0 1 1 672.375 716.5625L606.125 650.3125A183.125 183.125 0 0 1 500 684.0625C460.4375 684.0625 423.875 671.5625 393.875 650.3125L327.625 716.5625A107.625 107.625 0 0 1 232.5625 875M187.5 767.375A45.125 45.125 0 1 0 277.8125 767.375A45.125 45.125 0 0 0 187.5 767.375M232.625 277.75A45.125 45.125 0 1 0 232.625 187.5A45.125 45.125 0 0 0 232.625 277.7499999999999M378.5 500A121.5 121.5 0 1 0 621.4999999999999 500A121.5 121.5 0 0 0 378.4375 500M722.1875 767.375A45.125 45.125 0 1 0 812.4374999999999 767.375A45.125 45.125 0 0 0 722.1875 767.375M767.3125 277.7499999999999A45.125 45.125 0 1 0 767.3125 187.5A45.125 45.125 0 0 0 767.3125 277.7499999999999" />
    <glyph glyph-name="apple"
      unicode="&#xEA0C;"
      horiz-adv-x="1000" d="M709.625 476.375C709.8749999999999 505.125 717.625 533.3125 732.1249999999999 558.3125C746.6249999999999 583.3125 767.4374999999999 604.3125 792.5625 619.25A177.5 177.5 0 0 1 731.3124999999999 673A182.0625 182.0625 0 0 1 652.0624999999999 694.25C592.1874999999999 700.25 536.9374999999999 660.125 505.0624999999999 660.125C473.1874999999999 660.125 428.3124999999999 693.5 378.3749999999999 692.75A192.0625 192.0625 0 0 1 286.1249999999999 665.8125C258.3124999999999 649.1875 235.3124999999999 625.8125 219.4999999999999 597.875C151.9999999999999 483.125 202.2499999999999 312.5625 269.7499999999999 219.9375C300.4999999999999 174.5625 338.8749999999999 123.1875 389.5624999999999 125.0625C440.1874999999999 126.9374999999999 456.6874999999998 155.8124999999999 515.4374999999999 155.8124999999999C574.1874999999999 155.8124999999999 592.1874999999999 125.0624999999999 642.0624999999999 126.1874999999999C691.9999999999999 127.3124999999999 727.3124999999999 172.6874999999999 759.5624999999999 218.0624999999999C782.3749999999999 250.9999999999999 800.1874999999999 286.9999999999999 812.4999999999999 324.9374999999999A168.4375 168.4375 0 0 0 737.8749999999999 385.5624999999999A162.6875 162.6875 0 0 0 709.6249999999999 476.3749999999999M612.9375 755.375C627.4375 771.75 638.5000000000001 790.6875 645.4375 811.25C652.4375 831.75 655.1875 853.4375 653.5625 875A171.8125 171.8125 0 0 1 538.4375 818A155.375 155.375 0 0 1 507.1875 763.875A153 153 0 0 1 500.0624999999999 702.125A144.375 144.375 0 0 1 562.875 715.875C582.4375 725.125 599.5625 738.625 612.8750000000001 755.375" />
    <glyph glyph-name="apple-1"
      unicode="&#x31;&#x36;"
      horiz-adv-x="1000" d="M709.625 476.375C709.8749999999999 505.125 717.625 533.3125 732.1249999999999 558.3125C746.6249999999999 583.3125 767.4374999999999 604.3125 792.5625 619.25A177.5 177.5 0 0 1 731.3124999999999 673A182.0625 182.0625 0 0 1 652.0624999999999 694.25C592.1874999999999 700.25 536.9374999999999 660.125 505.0624999999999 660.125C473.1874999999999 660.125 428.3124999999999 693.5 378.3749999999999 692.75A192.0625 192.0625 0 0 1 286.1249999999999 665.8125C258.3124999999999 649.1875 235.3124999999999 625.8125 219.4999999999999 597.875C151.9999999999999 483.125 202.2499999999999 312.5625 269.7499999999999 219.9375C300.4999999999999 174.5625 338.8749999999999 123.1875 389.5624999999999 125.0625C440.1874999999999 126.9374999999999 456.6874999999998 155.8124999999999 515.4374999999999 155.8124999999999C574.1874999999999 155.8124999999999 592.1874999999999 125.0624999999999 642.0624999999999 126.1874999999999C691.9999999999999 127.3124999999999 727.3124999999999 172.6874999999999 759.5624999999999 218.0624999999999C782.3749999999999 250.9999999999999 800.1874999999999 286.9999999999999 812.4999999999999 324.9374999999999A168.4375 168.4375 0 0 0 737.8749999999999 385.5624999999999A162.6875 162.6875 0 0 0 709.6249999999999 476.3749999999999M612.9375 755.375C627.4375 771.75 638.5000000000001 790.6875 645.4375 811.25C652.4375 831.75 655.1875 853.4375 653.5625 875A171.8125 171.8125 0 0 1 538.4375 818A155.375 155.375 0 0 1 507.1875 763.875A153 153 0 0 1 500.0624999999999 702.125A144.375 144.375 0 0 1 562.875 715.875C582.4375 725.125 599.5625 738.625 612.8750000000001 755.375" />
    <glyph glyph-name="appreance"
      unicode="&#xEA0D;"
      horiz-adv-x="1000" d="M682.25 841.5A112.5 112.5 0 1 0 841.375 682.3125L523.0625 364A112.5 112.5 0 0 0 406.1875 337.375A140 140 0 0 0 410.875 239.625C396.875 195.1875 360.5625 156.4375 302.875 142.5624999999999C246.1875 128.9374999999999 172.5 139.9374999999999 81.9375 185.2499999999999A30.6875 30.6875 0 0 0 98.5625 243.25C135.4375 239.8125 148.5625 246.375 153.25 250.375C158.25 254.5000000000001 161.8125 261.875 165 280.125L166.5625 290.1874999999999C168.8125 305.375 171.875 326.0624999999999 179.375 343.625C190.3125 369.3124999999999 210.6875 390.6875 246.625 401.0625C281.5 411.125 313.0625 410.25 339.4375 400.6875A112.5625 112.5625 0 0 0 363.9375 523.1875zM341 327.1875000000001C328.3125 342.1875000000001 304.5000000000001 353.9375000000001 263.625 342.0625C246.125 337.0625 239.8125 328.9375 235.8125 319.5625000000001C231.6875000000001 309.9375000000001 230.1875000000001 300 228.1250000000001 286.375C227.3750000000001 281.375 226.5000000000001 275.8750000000001 225.4375 269.6875000000001C222.3125 251.2500000000001 216.5 225.6875 196.3125 206.5625000000001C235.3125 196.5625000000001 265.75 196.7500000000001 288.5 202.1875000000001C324.875 210.9375000000001 344.6875 233.7500000000001 352.375 258.125C360.4375 283.625 355.125 310.3750000000001 341 327.1875000000001M798 798.0625A51.1875 51.1875 0 0 1 725.6250000000001 798.0625L407.3125 479.75A51.1875 51.1875 0 0 1 479.6875 407.5L798 725.8125A51.1875 51.1875 0 0 1 798 798.125" />
    <glyph glyph-name="appreance-1"
      unicode="&#x31;&#x36;"
      horiz-adv-x="1000" d="M682.25 841.5A112.5 112.5 0 1 0 841.375 682.3125L523.0625 364A112.5 112.5 0 0 0 406.1875 337.375A140 140 0 0 0 410.875 239.625C396.875 195.1875 360.5625 156.4375 302.875 142.5624999999999C246.1875 128.9374999999999 172.5 139.9374999999999 81.9375 185.2499999999999A30.6875 30.6875 0 0 0 98.5625 243.25C135.4375 239.8125 148.5625 246.375 153.25 250.375C158.25 254.5000000000001 161.8125 261.875 165 280.125L166.5625 290.1874999999999C168.8125 305.375 171.875 326.0624999999999 179.375 343.625C190.3125 369.3124999999999 210.6875 390.6875 246.625 401.0625C281.5 411.125 313.0625 410.25 339.4375 400.6875A112.5625 112.5625 0 0 0 363.9375 523.1875zM341 327.1875000000001C328.3125 342.1875000000001 304.5000000000001 353.9375000000001 263.625 342.0625C246.125 337.0625 239.8125 328.9375 235.8125 319.5625000000001C231.6875000000001 309.9375000000001 230.1875000000001 300 228.1250000000001 286.375C227.3750000000001 281.375 226.5000000000001 275.8750000000001 225.4375 269.6875000000001C222.3125 251.2500000000001 216.5 225.6875 196.3125 206.5625000000001C235.3125 196.5625000000001 265.75 196.7500000000001 288.5 202.1875000000001C324.875 210.9375000000001 344.6875 233.7500000000001 352.375 258.125C360.4375 283.625 355.125 310.3750000000001 341 327.1875000000001M798 798.0625A51.1875 51.1875 0 0 1 725.6250000000001 798.0625L407.3125 479.75A51.1875 51.1875 0 0 1 479.6875 407.5L798 725.8125A51.1875 51.1875 0 0 1 798 798.125" />
    <glyph glyph-name="apps"
      unicode="&#xEA0E;"
      horiz-adv-x="1000" d="M545.125 805.5625C545.125 843.9375 576.25 875 614.5625 875H805.5625C843.9375 875 875 843.875 875 805.5625V614.5625C875 576.25 843.875 545.1875 805.5625 545.1875H614.5625A69.4375 69.4375 0 0 0 545.1875 614.5625zM614.5625 812.5A6.9375 6.9375 0 0 1 607.6875 805.5625V614.5625C607.6875 610.75 610.75 607.6875 614.5625 607.6875H805.5625C809.375 607.6875 812.5 610.75 812.5 614.5625V805.625A6.9375 6.9375 0 0 1 805.5625 812.5zM125 385.4375C125 423.75 156.125 454.8125 194.4375 454.8125H385.4375C423.75 454.8125 454.8125 423.75 454.8125 385.4375V194.4375C454.8125 156.0625 423.75 125 385.4375 125H194.375A69.4375 69.4375 0 0 0 125 194.4375zM194.4375 392.3125A6.9375 6.9375 0 0 1 187.5 385.4375V194.4375C187.5 190.625 190.625 187.5 194.4375 187.5H385.4375C389.25 187.5 392.3125 190.625 392.3125 194.4375V385.4375A6.9375 6.9375 0 0 1 385.4375 392.3125zM545.125 385.4375C545.125 423.75 576.2499999999999 454.8125 614.5625 454.8125H805.5625C843.9375 454.8125 875 423.75 875 385.4375V194.4375C875 156.0625 843.875 125 805.5625 125H614.5625A69.4375 69.4375 0 0 0 545.1875 194.4375zM614.5625 392.3125A6.9375 6.9375 0 0 1 607.6875 385.4375V194.4375C607.6875 190.625 610.75 187.5 614.5625 187.5H805.5625C809.375 187.5 812.5 190.625 812.5 194.4375V385.4375A6.9375 6.9375 0 0 1 805.5625 392.3125zM289.9375 875A31.25 31.25 0 0 0 321.1875 843.75V576.375A31.25 31.25 0 0 0 258.6875 576.375V843.75A31.25 31.25 0 0 0 289.9375 875M454.875 710.0625A31.25 31.25 0 0 0 423.625 678.8125H156.25A31.25 31.25 0 0 0 156.25 741.3125H423.625A31.25 31.25 0 0 0 454.875 710.0625" />
    <glyph glyph-name="apps-1"
      unicode="&#x31;&#x36;"
      horiz-adv-x="1000" d="M545.125 805.5625C545.125 843.9375 576.25 875 614.5625 875H805.5625C843.9375 875 875 843.875 875 805.5625V614.5625C875 576.25 843.875 545.1875 805.5625 545.1875H614.5625A69.4375 69.4375 0 0 0 545.1875 614.5625zM614.5625 812.5A6.9375 6.9375 0 0 1 607.6875 805.5625V614.5625C607.6875 610.75 610.75 607.6875 614.5625 607.6875H805.5625C809.375 607.6875 812.5 610.75 812.5 614.5625V805.625A6.9375 6.9375 0 0 1 805.5625 812.5zM125 385.4375C125 423.75 156.125 454.8125 194.4375 454.8125H385.4375C423.75 454.8125 454.8125 423.75 454.8125 385.4375V194.4375C454.8125 156.0625 423.75 125 385.4375 125H194.375A69.4375 69.4375 0 0 0 125 194.4375zM194.4375 392.3125A6.9375 6.9375 0 0 1 187.5 385.4375V194.4375C187.5 190.625 190.625 187.5 194.4375 187.5H385.4375C389.25 187.5 392.3125 190.625 392.3125 194.4375V385.4375A6.9375 6.9375 0 0 1 385.4375 392.3125zM545.125 385.4375C545.125 423.75 576.2499999999999 454.8125 614.5625 454.8125H805.5625C843.9375 454.8125 875 423.75 875 385.4375V194.4375C875 156.0625 843.875 125 805.5625 125H614.5625A69.4375 69.4375 0 0 0 545.1875 194.4375zM614.5625 392.3125A6.9375 6.9375 0 0 1 607.6875 385.4375V194.4375C607.6875 190.625 610.75 187.5 614.5625 187.5H805.5625C809.375 187.5 812.5 190.625 812.5 194.4375V385.4375A6.9375 6.9375 0 0 1 805.5625 392.3125zM289.9375 875A31.25 31.25 0 0 0 321.1875 843.75V576.375A31.25 31.25 0 0 0 258.6875 576.375V843.75A31.25 31.25 0 0 0 289.9375 875M454.875 710.0625A31.25 31.25 0 0 0 423.625 678.8125H156.25A31.25 31.25 0 0 0 156.25 741.3125H423.625A31.25 31.25 0 0 0 454.875 710.0625" />
    <glyph glyph-name="archive-box"
      unicode="&#xEA0F;"
      horiz-adv-x="1000" d="M414.3125 532.125A32.125 32.125 0 1 1 414.3125 467.875H585.625A32.125 32.125 0 1 1 585.625 532.125zM125 671.4375C125 640.75 143.4375 614.375 169.8125 602.75C168.5625 597.25 167.875 591.5625 167.875 585.6875V200A75 75 0 0 1 242.875 125H757.125A75 75 0 0 1 832.125 200V585.6875C832.125 591.5625 831.5 597.25 830.25 602.75A75 75 0 0 1 875 671.4375V800A75 75 0 0 1 800 875H200A75 75 0 0 1 125 800zM200 660.6875A10.6875 10.6875 0 0 0 189.3125 671.4375V800C189.3125 805.9375 194.0625 810.6875 200 810.6875H800C805.9375000000001 810.6875 810.6875 805.9375 810.6875 800V671.4375A10.6875 10.6875 0 0 0 800 660.6875zM232.1250000000001 585.6875C232.1250000000001 591.625 236.9375000000001 596.4375 242.8750000000001 596.4375H757.125C763.0625000000001 596.4375 767.8750000000001 591.625 767.8750000000001 585.6875V200A10.6875 10.6875 0 0 0 757.125 189.3125H242.875A10.6875 10.6875 0 0 0 232.125 200z" />
    <glyph glyph-name="archive-box-1"
      unicode="&#x31;&#x36;"
      horiz-adv-x="1000" d="M414.3125 532.125A32.125 32.125 0 1 1 414.3125 467.875H585.625A32.125 32.125 0 1 1 585.625 532.125zM125 671.4375C125 640.75 143.4375 614.375 169.8125 602.75C168.5625 597.25 167.875 591.5625 167.875 585.6875V200A75 75 0 0 1 242.875 125H757.125A75 75 0 0 1 832.125 200V585.6875C832.125 591.5625 831.5 597.25 830.25 602.75A75 75 0 0 1 875 671.4375V800A75 75 0 0 1 800 875H200A75 75 0 0 1 125 800zM200 660.6875A10.6875 10.6875 0 0 0 189.3125 671.4375V800C189.3125 805.9375 194.0625 810.6875 200 810.6875H800C805.9375000000001 810.6875 810.6875 805.9375 810.6875 800V671.4375A10.6875 10.6875 0 0 0 800 660.6875zM232.1250000000001 585.6875C232.1250000000001 591.625 236.9375000000001 596.4375 242.8750000000001 596.4375H757.125C763.0625000000001 596.4375 767.8750000000001 591.625 767.8750000000001 585.6875V200A10.6875 10.6875 0 0 0 757.125 189.3125H242.875A10.6875 10.6875 0 0 0 232.125 200z" />
    <glyph glyph-name="arrow-circle-down"
      unicode="&#xEA10;"
      horiz-adv-x="1000" d="M500 875A375 375 0 1 0 500 125A375 375 0 0 0 500 875M812.5 500A312.5 312.5 0 1 1 187.5 500A312.5 312.5 0 0 1 812.5 500M646.4375 483.625C659.5625 471.125 659.5625 451 646.4375 438.6249999999999L523.75 321.75A34.75 34.75 0 0 0 476.3750000000001 321.75L353.5625 438.5625A30.75 30.75 0 0 0 353.5625 483.5625A34.75 34.75 0 0 0 400.9375 483.5625L466.5625 421.1875V655.6875C466.5625 673.1875 481.5625 687.5 500 687.5C518.5 687.5 533.5 673.25 533.5 655.625V421.25L599.125 483.625A34.75 34.75 0 0 0 646.4375 483.625" />
    <glyph glyph-name="arrow-circle-down-1"
      unicode="&#x31;&#x36;"
      horiz-adv-x="1000" d="M500 875A375 375 0 1 0 500 125A375 375 0 0 0 500 875M812.5 500A312.5 312.5 0 1 1 187.5 500A312.5 312.5 0 0 1 812.5 500M646.4375 483.625C659.5625 471.125 659.5625 451 646.4375 438.6249999999999L523.75 321.75A34.75 34.75 0 0 0 476.3750000000001 321.75L353.5625 438.5625A30.75 30.75 0 0 0 353.5625 483.5625A34.75 34.75 0 0 0 400.9375 483.5625L466.5625 421.1875V655.6875C466.5625 673.1875 481.5625 687.5 500 687.5C518.5 687.5 533.5 673.25 533.5 655.625V421.25L599.125 483.625A34.75 34.75 0 0 0 646.4375 483.625" />
    <glyph glyph-name="arrow-circle-left"
      unicode="&#xEA11;"
      horiz-adv-x="1000" d="M875 500A375 375 0 1 0 125 500A375 375 0 0 0 875 500M500 187.5A312.5 312.5 0 1 1 500 812.5A312.5 312.5 0 0 1 500 187.5M483.625 353.5625A30.75 30.75 0 0 0 438.6250000000001 353.5625L321.75 476.25A34.75 34.75 0 0 0 321.75 523.625L438.5 646.375A30.75 30.75 0 0 0 483.5 646.375A34.75 34.75 0 0 0 483.5 599L421.125 533.375H655.6249999999999C673.1249999999999 533.375 687.4374999999999 518.375 687.4374999999999 499.9374999999999A32.6875 32.6875 0 0 0 655.5624999999999 466.4375H421.25L483.625 400.8124999999999A34.75 34.75 0 0 0 483.625 353.4999999999999" />
    <glyph glyph-name="arrow-circle-left-1"
      unicode="&#x31;&#x36;"
      horiz-adv-x="1000" d="M875 500A375 375 0 1 0 125 500A375 375 0 0 0 875 500M500 187.5A312.5 312.5 0 1 1 500 812.5A312.5 312.5 0 0 1 500 187.5M483.625 353.5625A30.75 30.75 0 0 0 438.6250000000001 353.5625L321.75 476.25A34.75 34.75 0 0 0 321.75 523.625L438.5 646.375A30.75 30.75 0 0 0 483.5 646.375A34.75 34.75 0 0 0 483.5 599L421.125 533.375H655.6249999999999C673.1249999999999 533.375 687.4374999999999 518.375 687.4374999999999 499.9374999999999A32.6875 32.6875 0 0 0 655.5624999999999 466.4375H421.25L483.625 400.8124999999999A34.75 34.75 0 0 0 483.625 353.4999999999999" />
    <glyph glyph-name="arrow-circle-right"
      unicode="&#xEA12;"
      horiz-adv-x="1000" d="M125 500A375 375 0 1 0 875 500A375 375 0 0 0 125 500M500 812.5A312.5 312.5 0 1 1 500 187.5A312.5 312.5 0 0 1 500 812.5M516.125 636.6875A31.25 31.25 0 0 1 516.125 592.5L577.375 531.25H347.1875A31.25 31.25 0 1 1 347.1875 468.75H577.25L516 407.5A31.25 31.25 0 1 1 560.25 363.3124999999999L674.8125 477.8749999999999A31.25 31.25 0 0 1 674.8125 522.0625L560.3125 636.6875A31.25 31.25 0 0 1 516.125 636.6875" />
    <glyph glyph-name="arrow-circle-right-1"
      unicode="&#x31;&#x36;"
      horiz-adv-x="1000" d="M125 500A375 375 0 1 0 875 500A375 375 0 0 0 125 500M500 812.5A312.5 312.5 0 1 1 500 187.5A312.5 312.5 0 0 1 500 812.5M516.125 636.6875A31.25 31.25 0 0 1 516.125 592.5L577.375 531.25H347.1875A31.25 31.25 0 1 1 347.1875 468.75H577.25L516 407.5A31.25 31.25 0 1 1 560.25 363.3124999999999L674.8125 477.8749999999999A31.25 31.25 0 0 1 674.8125 522.0625L560.3125 636.6875A31.25 31.25 0 0 1 516.125 636.6875" />
    <glyph glyph-name="arrow-circle-up"
      unicode="&#xEA13;"
      horiz-adv-x="1000" d="M500 125A375 375 0 1 0 500 875A375 375 0 0 0 500 125M187.5 500A312.5 312.5 0 1 1 812.5 500A312.5 312.5 0 0 1 187.5 500M353.5625 516.375A30.75 30.75 0 0 0 353.5625 561.375L476.25 678.25A34.6875 34.6875 0 0 0 523.625 678.25L646.375 561.5C659.5000000000001 549.0625 659.5000000000001 528.875 646.375 516.5A34.6875 34.6875 0 0 0 599 516.5L533.3749999999999 578.875V344.3750000000001C533.3749999999999 326.8750000000001 518.3749999999999 312.5625000000001 499.9374999999999 312.5625000000001A32.6875 32.6875 0 0 0 466.4374999999999 344.4375000000001V578.75L400.8125 516.4375A34.6875 34.6875 0 0 0 353.5 516.4375" />
    <glyph glyph-name="arrow-circle-up-1"
      unicode="&#x31;&#x36;"
      horiz-adv-x="1000" d="M500 125A375 375 0 1 0 500 875A375 375 0 0 0 500 125M187.5 500A312.5 312.5 0 1 1 812.5 500A312.5 312.5 0 0 1 187.5 500M353.5625 516.375A30.75 30.75 0 0 0 353.5625 561.375L476.25 678.25A34.6875 34.6875 0 0 0 523.625 678.25L646.375 561.5C659.5000000000001 549.0625 659.5000000000001 528.875 646.375 516.5A34.6875 34.6875 0 0 0 599 516.5L533.3749999999999 578.875V344.3750000000001C533.3749999999999 326.8750000000001 518.3749999999999 312.5625000000001 499.9374999999999 312.5625000000001A32.6875 32.6875 0 0 0 466.4374999999999 344.4375000000001V578.75L400.8125 516.4375A34.6875 34.6875 0 0 0 353.5 516.4375" />
    <glyph glyph-name="arrow-down"
      unicode="&#xEA14;"
      horiz-adv-x="1000" d="M836 475.8125A27.75 27.75 0 0 0 835.2499999999999 436.6249999999999L519.25 132.7499999999999A27.8125 27.8125 0 0 0 480.75 132.7499999999999L164.75 436.625A27.75 27.75 0 1 0 203.3125 476.6250000000001L472.25 218.0000000000001V847.25A27.75 27.75 0 0 0 527.75 847.25V218L796.6875 476.625A27.8125 27.8125 0 0 0 836 475.8749999999999" />
    <glyph glyph-name="arrow-down-1"
      unicode="&#x31;&#x36;"
      horiz-adv-x="1000" d="M836 475.8125A27.75 27.75 0 0 0 835.2499999999999 436.6249999999999L519.25 132.7499999999999A27.8125 27.8125 0 0 0 480.75 132.7499999999999L164.75 436.625A27.75 27.75 0 1 0 203.3125 476.6250000000001L472.25 218.0000000000001V847.25A27.75 27.75 0 0 0 527.75 847.25V218L796.6875 476.625A27.8125 27.8125 0 0 0 836 475.8749999999999" />
    <glyph glyph-name="arrow-left"
      unicode="&#xEA15;"
      horiz-adv-x="1000" d="M475.8125 164A27.75 27.75 0 0 0 436.6250000000001 164.7500000000001L132.75 480.75A27.8125 27.8125 0 0 0 132.75 519.25L436.6250000000001 835.25A27.75 27.75 0 1 0 476.625 796.6875L217.9375 527.75H847.1875A27.75 27.75 0 0 0 847.1875 472.25H218L476.5625 203.3125A27.8125 27.8125 0 0 0 475.8125 164" />
    <glyph glyph-name="arrow-left-1"
      unicode="&#x31;&#x36;"
      horiz-adv-x="1000" d="M475.8125 164A27.75 27.75 0 0 0 436.6250000000001 164.7500000000001L132.75 480.75A27.8125 27.8125 0 0 0 132.75 519.25L436.6250000000001 835.25A27.75 27.75 0 1 0 476.625 796.6875L217.9375 527.75H847.1875A27.75 27.75 0 0 0 847.1875 472.25H218L476.5625 203.3125A27.8125 27.8125 0 0 0 475.8125 164" />
    <glyph glyph-name="arrow-right"
      unicode="&#xEA16;"
      horiz-adv-x="1000" d="M524.1875 836A27.75 27.75 0 0 0 563.3750000000001 835.25L867.2500000000001 519.25A27.8125 27.8125 0 0 0 867.2500000000001 480.75L563.3750000000001 164.75A27.75 27.75 0 1 0 523.375 203.3125L782 472.2500000000001H152.75A27.75 27.75 0 0 0 152.75 527.75H782L523.4375 796.6875A27.8125 27.8125 0 0 0 524.1875 836" />
    <glyph glyph-name="arrow-right-1"
      unicode="&#x31;&#x36;"
      horiz-adv-x="1000" d="M524.1875 836A27.75 27.75 0 0 0 563.3750000000001 835.25L867.2500000000001 519.25A27.8125 27.8125 0 0 0 867.2500000000001 480.75L563.3750000000001 164.75A27.75 27.75 0 1 0 523.375 203.3125L782 472.2500000000001H152.75A27.75 27.75 0 0 0 152.75 527.75H782L523.4375 796.6875A27.8125 27.8125 0 0 0 524.1875 836" />
    <glyph glyph-name="arrow-up"
      unicode="&#xEA17;"
      horiz-adv-x="1000" d="M164 524.1875A27.75 27.75 0 0 0 164.75 563.375L480.75 867.25A27.8125 27.8125 0 0 0 519.25 867.25L835.25 563.375A27.75 27.75 0 1 0 796.6875 523.375L527.75 782.0625V152.8125A27.75 27.75 0 0 0 472.2500000000001 152.8125V782L203.3125 523.4375A27.8125 27.8125 0 0 0 164 524.1875" />
    <glyph glyph-name="arrow-up-1"
      unicode="&#x31;&#x36;"
      horiz-adv-x="1000" d="M164 524.1875A27.75 27.75 0 0 0 164.75 563.375L480.75 867.25A27.8125 27.8125 0 0 0 519.25 867.25L835.25 563.375A27.75 27.75 0 1 0 796.6875 523.375L527.75 782.0625V152.8125A27.75 27.75 0 0 0 472.2500000000001 152.8125V782L203.3125 523.4375A27.8125 27.8125 0 0 0 164 524.1875" />
    <glyph glyph-name="background-process"
      unicode="&#xEA18;"
      horiz-adv-x="1000" d="M567.0625 883.75A31.5 31.5 0 0 1 522.5625 928.3125L435.5625 841.3125A31.5 31.5 0 0 1 435.5625 796.8125L522.5 709.6875A31.5 31.5 0 0 1 567 754.25L525.7499999999999 795.5A296.5625 296.5625 0 0 0 754.0625 653A31.5 31.5 0 0 1 807.9999999999999 685.5A359.625 359.625 0 0 1 540.5 857.25zM653.625 246.25A31.5 31.5 0 0 1 686.25 192.375A359.625 359.625 0 0 1 857.3125 459.3125L883.75 432.9375A31.5 31.5 0 0 1 928.25 477.4375L849.125 556.5625A26.25 26.25 0 0 1 848 557.6875L841.2499999999999 564.4375A31.5 31.5 0 0 1 796.75 564.4375L709.75 477.5A31.5 31.5 0 0 1 754.25 433L795.5 474.2500000000001A296.6875 296.6875 0 0 0 653.625 246.3125M373.625 231.625A296.6250000000001 296.6250000000001 0 0 0 249.25 341.375A31.5 31.5 0 1 1 196.125 307.6875A359.625 359.625 0 0 1 464.1875 142.125L438.1875 116.1875000000001A31.5 31.5 0 0 1 482.7499999999999 71.6875000000001L560.5625 149.5000000000002A31.5 31.5 0 0 1 566.2499999999999 155.1875000000001L569.7499999999999 158.6875000000001A31.5 31.5 0 0 1 569.7499999999999 203.1875000000001L482.7499999999999 290.2500000000001A31.5 31.5 0 0 1 438.1874999999999 245.6875000000001L479.8749999999999 204.0000000000002A296.6250000000001 296.6250000000001 0 0 0 373.6249999999999 231.6250000000003M232.1875 627.625C256.4375 678.5 294.6875 721.4375 342.5 751.375A31.5 31.5 0 1 1 309.0625 804.75A359.625 359.625 0 0 1 142.1875 535.875L116.25 561.875A31.5 31.5 0 0 1 71.6875 517.375L158.75 430.25A31.5 31.5 0 0 1 203.25 430.25L290.25 517.3125A31.5 31.5 0 0 1 245.7500000000001 561.8125L204 520.0625C206.5 557.1875 216 593.6875 232.1250000000001 627.5625" />
    <glyph glyph-name="background-process-1"
      unicode="&#x31;&#x36;"
      horiz-adv-x="1000" d="M567.0625 883.75A31.5 31.5 0 0 1 522.5625 928.3125L435.5625 841.3125A31.5 31.5 0 0 1 435.5625 796.8125L522.5 709.6875A31.5 31.5 0 0 1 567 754.25L525.7499999999999 795.5A296.5625 296.5625 0 0 0 754.0625 653A31.5 31.5 0 0 1 807.9999999999999 685.5A359.625 359.625 0 0 1 540.5 857.25zM653.625 246.25A31.5 31.5 0 0 1 686.25 192.375A359.625 359.625 0 0 1 857.3125 459.3125L883.75 432.9375A31.5 31.5 0 0 1 928.25 477.4375L849.125 556.5625A26.25 26.25 0 0 1 848 557.6875L841.2499999999999 564.4375A31.5 31.5 0 0 1 796.75 564.4375L709.75 477.5A31.5 31.5 0 0 1 754.25 433L795.5 474.2500000000001A296.6875 296.6875 0 0 0 653.625 246.3125M373.625 231.625A296.6250000000001 296.6250000000001 0 0 0 249.25 341.375A31.5 31.5 0 1 1 196.125 307.6875A359.625 359.625 0 0 1 464.1875 142.125L438.1875 116.1875000000001A31.5 31.5 0 0 1 482.7499999999999 71.6875000000001L560.5625 149.5000000000002A31.5 31.5 0 0 1 566.2499999999999 155.1875000000001L569.7499999999999 158.6875000000001A31.5 31.5 0 0 1 569.7499999999999 203.1875000000001L482.7499999999999 290.2500000000001A31.5 31.5 0 0 1 438.1874999999999 245.6875000000001L479.8749999999999 204.0000000000002A296.6250000000001 296.6250000000001 0 0 0 373.6249999999999 231.6250000000003M232.1875 627.625C256.4375 678.5 294.6875 721.4375 342.5 751.375A31.5 31.5 0 1 1 309.0625 804.75A359.625 359.625 0 0 1 142.1875 535.875L116.25 561.875A31.5 31.5 0 0 1 71.6875 517.375L158.75 430.25A31.5 31.5 0 0 1 203.25 430.25L290.25 517.3125A31.5 31.5 0 0 1 245.7500000000001 561.8125L204 520.0625C206.5 557.1875 216 593.6875 232.1250000000001 627.5625" />
    <glyph glyph-name="backward"
      unicode="&#xEA19;"
      horiz-adv-x="1000" d="M531.25 587.625V667.625A89.1875 89.1875 0 0 1 397.5 744.875L107.125 577.25A89.25 89.25 0 0 1 107.125 422.75L397.4375 255.0625A89.1875 89.1875 0 0 1 531.25 332.375V412.3749999999999L803.6875 255.0625A89.1875 89.1875 0 0 1 937.5 332.375V667.625A89.1875 89.1875 0 0 1 803.6875 744.875zM468.75 667.625V332.375C468.75 311.75 446.5 298.9375 428.6875 309.25L138.375 476.875A26.75 26.75 0 0 0 138.375 523.125L428.6875 690.7500000000001A26.6875 26.6875 0 0 0 468.75 667.625M531.25 499.3750000000001V500.6250000000001A26.4375 26.4375 0 0 0 544.625 523.1250000000001L834.9375 690.7500000000001A26.6875 26.6875 0 0 0 875 667.625V332.3750000000001C875 311.7500000000001 852.75 298.9375000000001 834.9375 309.2500000000001L544.625 476.875A26.4375 26.4375 0 0 0 531.25 499.375" />
    <glyph glyph-name="backward-1"
      unicode="&#x31;&#x36;"
      horiz-adv-x="1000" d="M531.25 587.625V667.625A89.1875 89.1875 0 0 1 397.5 744.875L107.125 577.25A89.25 89.25 0 0 1 107.125 422.75L397.4375 255.0625A89.1875 89.1875 0 0 1 531.25 332.375V412.3749999999999L803.6875 255.0625A89.1875 89.1875 0 0 1 937.5 332.375V667.625A89.1875 89.1875 0 0 1 803.6875 744.875zM468.75 667.625V332.375C468.75 311.75 446.5 298.9375 428.6875 309.25L138.375 476.875A26.75 26.75 0 0 0 138.375 523.125L428.6875 690.7500000000001A26.6875 26.6875 0 0 0 468.75 667.625M531.25 499.3750000000001V500.6250000000001A26.4375 26.4375 0 0 0 544.625 523.1250000000001L834.9375 690.7500000000001A26.6875 26.6875 0 0 0 875 667.625V332.3750000000001C875 311.7500000000001 852.75 298.9375000000001 834.9375 309.2500000000001L544.625 476.875A26.4375 26.4375 0 0 0 531.25 499.375" />
    <glyph glyph-name="banned-circle"
      unicode="&#xEA1A;"
      horiz-adv-x="1000" d="M125 500A375 375 0 1 1 875 500A375 375 0 0 1 125 500M500 187.5A312.5 312.5 0 0 0 258.0625 697.75L697.75 258.0625A311.2500000000001 311.2500000000001 0 0 0 500 187.5M741.9375 302.25L302.25 741.875A312.5 312.5 0 0 0 742 302.125" />
    <glyph glyph-name="banned-circle-1"
      unicode="&#x31;&#x36;"
      horiz-adv-x="1000" d="M125 500A375 375 0 1 1 875 500A375 375 0 0 1 125 500M500 187.5A312.5 312.5 0 0 0 258.0625 697.75L697.75 258.0625A311.2500000000001 311.2500000000001 0 0 0 500 187.5M741.9375 302.25L302.25 741.875A312.5 312.5 0 0 0 742 302.125" />
    <glyph glyph-name="banned-solid"
      unicode="&#xEA1B;"
      horiz-adv-x="1000" d="M843.75 500A343.75 343.75 0 0 1 292.3125 773.9375L773.9375 292.3125A342.1875 342.1875 0 0 1 843.75 500M707.6875 226.0625L226.0625 707.6875A343.75 343.75 0 0 1 707.6875 226.0625" />
    <glyph glyph-name="banned-solid-1"
      unicode="&#x31;&#x36;"
      horiz-adv-x="1000" d="M843.75 500A343.75 343.75 0 0 1 292.3125 773.9375L773.9375 292.3125A342.1875 342.1875 0 0 1 843.75 500M707.6875 226.0625L226.0625 707.6875A343.75 343.75 0 0 1 707.6875 226.0625" />
    <glyph glyph-name="bar-graph"
      unicode="&#xEA1C;"
      horiz-adv-x="1000" d="M156.25 875A31.25 31.25 0 0 0 187.5 843.75V187.5H843.75A31.25 31.25 0 0 0 843.75 125H156.25A31.25 31.25 0 0 0 125 156.25V843.75A31.25 31.25 0 0 0 156.25 875M277.75 500C277.75 538.375 308.875 569.4375 347.25 569.4375H423.6250000000001C461.9375 569.4375 493.0000000000001 538.375 493.0000000000001 500V156.25A31.25 31.25 0 0 0 461.7500000000001 125H309.0625A31.25 31.25 0 0 0 277.8125 156.25zM347.25 506.9375A6.9375 6.9375 0 0 1 340.25 500V187.5H430.625V500A6.9375 6.9375 0 0 1 423.6875 506.9375zM583.3125 729.1875C583.3125 767.5 614.4375 798.5625 652.75 798.5625H729.1875000000001C767.5000000000001 798.5625 798.5625000000001 767.5 798.5625000000001 729.1875V156.25A31.25 31.25 0 0 0 767.3125000000001 125H614.625A31.25 31.25 0 0 0 583.375 156.25zM652.75 736.0625A6.9375 6.9375 0 0 1 645.8750000000001 729.1875V187.5H736.1250000000001V729.1875A6.9375 6.9375 0 0 1 729.1875000000001 736.0625z" />
    <glyph glyph-name="bar-graph-1"
      unicode="&#x31;&#x36;"
      horiz-adv-x="1000" d="M156.25 875A31.25 31.25 0 0 0 187.5 843.75V187.5H843.75A31.25 31.25 0 0 0 843.75 125H156.25A31.25 31.25 0 0 0 125 156.25V843.75A31.25 31.25 0 0 0 156.25 875M277.75 500C277.75 538.375 308.875 569.4375 347.25 569.4375H423.6250000000001C461.9375 569.4375 493.0000000000001 538.375 493.0000000000001 500V156.25A31.25 31.25 0 0 0 461.7500000000001 125H309.0625A31.25 31.25 0 0 0 277.8125 156.25zM347.25 506.9375A6.9375 6.9375 0 0 1 340.25 500V187.5H430.625V500A6.9375 6.9375 0 0 1 423.6875 506.9375zM583.3125 729.1875C583.3125 767.5 614.4375 798.5625 652.75 798.5625H729.1875000000001C767.5000000000001 798.5625 798.5625000000001 767.5 798.5625000000001 729.1875V156.25A31.25 31.25 0 0 0 767.3125000000001 125H614.625A31.25 31.25 0 0 0 583.375 156.25zM652.75 736.0625A6.9375 6.9375 0 0 1 645.8750000000001 729.1875V187.5H736.1250000000001V729.1875A6.9375 6.9375 0 0 1 729.1875000000001 736.0625z" />
    <glyph glyph-name="blog"
      unicode="&#xEA1D;"
      horiz-adv-x="1000" d="M781.25 250A31.25 31.25 0 0 1 750 281.25H406.25A31.25 31.25 0 0 1 406.25 218.75H750A31.25 31.25 0 0 1 781.25 250M750 468.75A31.25 31.25 0 0 1 750 531.25H406.25A31.25 31.25 0 0 1 406.25 468.75zM781.25 375A31.25 31.25 0 0 0 750 343.75H406.25A31.25 31.25 0 0 0 406.25 406.25H750A31.25 31.25 0 0 0 781.25 375M406.25 781.25A31.25 31.25 0 0 1 375 750V625A31.25 31.25 0 0 1 406.25 593.75H750A31.25 31.25 0 0 1 781.25 625V750A31.25 31.25 0 0 1 750 781.25zM437.5 656.25V718.75H718.75V656.25zM229.1875 937.5A166.6875 166.6875 0 0 1 62.5 770.8125V229.1875A166.6875 166.6875 0 0 1 229.1875 62.5H770.8125A166.6875 166.6875 0 0 1 937.5 229.1875V770.8125A166.6875 166.6875 0 0 1 770.8125 937.5zM218.75 874.5V125.5A104.1875 104.1875 0 0 0 125 229.1875V770.8125C125 824.875 166.125 869.25 218.75 874.5M281.25 125V875H770.8125C828.3125 875 875 828.375 875 770.8125V229.1875C875 171.6875 828.375 125 770.8125 125z" />
    <glyph glyph-name="blog-1"
      unicode="&#x31;&#x36;"
      horiz-adv-x="1000" d="M781.25 250A31.25 31.25 0 0 1 750 281.25H406.25A31.25 31.25 0 0 1 406.25 218.75H750A31.25 31.25 0 0 1 781.25 250M750 468.75A31.25 31.25 0 0 1 750 531.25H406.25A31.25 31.25 0 0 1 406.25 468.75zM781.25 375A31.25 31.25 0 0 0 750 343.75H406.25A31.25 31.25 0 0 0 406.25 406.25H750A31.25 31.25 0 0 0 781.25 375M406.25 781.25A31.25 31.25 0 0 1 375 750V625A31.25 31.25 0 0 1 406.25 593.75H750A31.25 31.25 0 0 1 781.25 625V750A31.25 31.25 0 0 1 750 781.25zM437.5 656.25V718.75H718.75V656.25zM229.1875 937.5A166.6875 166.6875 0 0 1 62.5 770.8125V229.1875A166.6875 166.6875 0 0 1 229.1875 62.5H770.8125A166.6875 166.6875 0 0 1 937.5 229.1875V770.8125A166.6875 166.6875 0 0 1 770.8125 937.5zM218.75 874.5V125.5A104.1875 104.1875 0 0 0 125 229.1875V770.8125C125 824.875 166.125 869.25 218.75 874.5M281.25 125V875H770.8125C828.3125 875 875 828.375 875 770.8125V229.1875C875 171.6875 828.375 125 770.8125 125z" />
    <glyph glyph-name="blood-drop"
      unicode="&#xEA1E;"
      horiz-adv-x="1000" d="M482.5 932.0625A30.625 30.625 0 0 0 517.5 932.0625C586.2499999999999 884.5625 677.375 796.9375 745.7499999999999 688.9375C814 581.125 862.1249999999999 448.75 837 313.6875A26.5625 26.5625 0 0 0 836.75 312.4375C811.5625 201.8125000000001 752.1249999999999 137.875 684.875 102.6875C619 68.3125 548.125 62.5 500 62.5S380.9375 68.25 315.1875 102.6875C247.875 137.8750000000001 188.4375 201.8125000000001 163.3125 312.4375A26.5625 26.5625 0 0 0 163 313.6875C137.875 448.75 186 581.125 254.25 688.9375C322.625 796.875 413.75 884.5625 482.5 932.0625M223.75 325.8125000000001C244.8125000000001 233.75 292.375 185 343.625 158.1875C396.5 130.5 455.75 125 500 125C544.25 125 603.5 130.5 656.3749999999999 158.125C707.625 184.9999999999999 755.1874999999999 233.7499999999999 776.3125 325.8125C797.125 438.8124999999999 757.3749999999999 554.5 693.6249999999999 655.25C635.625 746.875 559.9375 822.625 500 867.8125C440.0625 822.625 364.375 746.875 306.375 655.3125C242.625 554.5 202.9375 438.8124999999999 223.6875 325.8125M500 531.25C517.0625 531.25 530.9375 517.25 530.9375 500V251.75C530.9375 234.5 517.0625 220.5 499.9999999999999 220.5A31.0625 31.0625 0 0 0 469.0624999999999 251.75V500C469.0624999999999 517.25 482.9374999999999 531.25 499.9999999999999 531.25M653.8125 375.875C653.8125 358.625 639.9375 344.625 622.8750000000001 344.625H377.125A31.0625 31.0625 0 0 0 346.1875 375.875C346.1875 393.125 360 407.125 377.125 407.125H622.875C639.9999999999999 407.125 653.8124999999999 393.125 653.8124999999999 375.875" />
    <glyph glyph-name="blood-drop-1"
      unicode="&#x31;&#x36;"
      horiz-adv-x="1000" d="M482.5 932.0625A30.625 30.625 0 0 0 517.5 932.0625C586.2499999999999 884.5625 677.375 796.9375 745.7499999999999 688.9375C814 581.125 862.1249999999999 448.75 837 313.6875A26.5625 26.5625 0 0 0 836.75 312.4375C811.5625 201.8125000000001 752.1249999999999 137.875 684.875 102.6875C619 68.3125 548.125 62.5 500 62.5S380.9375 68.25 315.1875 102.6875C247.875 137.8750000000001 188.4375 201.8125000000001 163.3125 312.4375A26.5625 26.5625 0 0 0 163 313.6875C137.875 448.75 186 581.125 254.25 688.9375C322.625 796.875 413.75 884.5625 482.5 932.0625M223.75 325.8125000000001C244.8125000000001 233.75 292.375 185 343.625 158.1875C396.5 130.5 455.75 125 500 125C544.25 125 603.5 130.5 656.3749999999999 158.125C707.625 184.9999999999999 755.1874999999999 233.7499999999999 776.3125 325.8125C797.125 438.8124999999999 757.3749999999999 554.5 693.6249999999999 655.25C635.625 746.875 559.9375 822.625 500 867.8125C440.0625 822.625 364.375 746.875 306.375 655.3125C242.625 554.5 202.9375 438.8124999999999 223.6875 325.8125M500 531.25C517.0625 531.25 530.9375 517.25 530.9375 500V251.75C530.9375 234.5 517.0625 220.5 499.9999999999999 220.5A31.0625 31.0625 0 0 0 469.0624999999999 251.75V500C469.0624999999999 517.25 482.9374999999999 531.25 499.9999999999999 531.25M653.8125 375.875C653.8125 358.625 639.9375 344.625 622.8750000000001 344.625H377.125A31.0625 31.0625 0 0 0 346.1875 375.875C346.1875 393.125 360 407.125 377.125 407.125H622.875C639.9999999999999 407.125 653.8124999999999 393.125 653.8124999999999 375.875" />
    <glyph glyph-name="bold"
      unicode="&#xEA1F;"
      horiz-adv-x="1000" d="M307.6875 812.5A58.125 58.125 0 0 1 250 753.875V246.1249999999999A58.125 58.125 0 0 1 307.6875 187.4999999999999H557.6875C663.9375 187.5 750 275 750 382.8125C750 455.8125 710.625 519.4375 652.1875 552.9375C665.5 577.875 673.0625 606.375 673.0625 636.6875C673.125 733.8125 595.625 812.5 500 812.5zM500 578.125H365.375V695.3125H500C531.875 695.3125 557.6875 669.0625 557.6875 636.6875A58.125 58.125 0 0 0 500 578.125M365.375 460.9375H557.6875C600.1875 460.9375 634.5625 425.9375 634.5625 382.8125S600.1875 304.6875 557.6875 304.6875H365.375z" />
    <glyph glyph-name="bold-1"
      unicode="&#x31;&#x36;"
      horiz-adv-x="1000" d="M307.6875 812.5A58.125 58.125 0 0 1 250 753.875V246.1249999999999A58.125 58.125 0 0 1 307.6875 187.4999999999999H557.6875C663.9375 187.5 750 275 750 382.8125C750 455.8125 710.625 519.4375 652.1875 552.9375C665.5 577.875 673.0625 606.375 673.0625 636.6875C673.125 733.8125 595.625 812.5 500 812.5zM500 578.125H365.375V695.3125H500C531.875 695.3125 557.6875 669.0625 557.6875 636.6875A58.125 58.125 0 0 0 500 578.125M365.375 460.9375H557.6875C600.1875 460.9375 634.5625 425.9375 634.5625 382.8125S600.1875 304.6875 557.6875 304.6875H365.375z" />
    <glyph glyph-name="bookmark"
      unicode="&#xEA20;"
      horiz-adv-x="1000" d="M187.5 770.8125C187.5 862.875 264.6875 937.5 359.9375 937.5H640.0625C735.3125 937.5 812.5 862.875 812.5 770.8125V93.75A31.125 31.125 0 0 0 795.4375 66.25A33.3125 33.3125 0 0 0 762.25 67.75L500 236.75L237.7500000000001 67.75A33.3125 33.3125 0 0 0 204.625 66.1875A31.125 31.125 0 0 0 187.5 93.75zM359.9375 875C300.375 875 252.1875 828.375 252.1875 770.8125V152.1250000000001L482.0625 300.2500000000001A33.25 33.25 0 0 0 517.9375 300.2500000000001L747.8125 152.1250000000001V770.8750000000001C747.8125 828.3750000000001 699.6249999999999 875.0000000000001 640.0625 875.0000000000001z" />
    <glyph glyph-name="bookmark-1"
      unicode="&#x31;&#x36;"
      horiz-adv-x="1000" d="M187.5 770.8125C187.5 862.875 264.6875 937.5 359.9375 937.5H640.0625C735.3125 937.5 812.5 862.875 812.5 770.8125V93.75A31.125 31.125 0 0 0 795.4375 66.25A33.3125 33.3125 0 0 0 762.25 67.75L500 236.75L237.7500000000001 67.75A33.3125 33.3125 0 0 0 204.625 66.1875A31.125 31.125 0 0 0 187.5 93.75zM359.9375 875C300.375 875 252.1875 828.375 252.1875 770.8125V152.1250000000001L482.0625 300.2500000000001A33.25 33.25 0 0 0 517.9375 300.2500000000001L747.8125 152.1250000000001V770.8750000000001C747.8125 828.3750000000001 699.6249999999999 875.0000000000001 640.0625 875.0000000000001z" />
    <glyph glyph-name="broom"
      unicode="&#xEA21;"
      horiz-adv-x="1000" d="M734.0625 598.3125C742.1875 598.25 750.3749999999999 595.125 756.625 588.875C778.3125 567.1875 793.6875 551.8125 806.3125 540.5C818.8125 529.1875 827.0625 523.375 834 519.875C847.25 513.25 860.0625 512.5625 905.3749999999998 512.5625C923.125 512.5625 937.4999999999998 498.1875 937.4999999999998 480.4375000000001C937.4999999999998 384.1875000000001 898.1249999999999 317.25 845.3749999999999 246.8125000000001C809.7499999999999 199.3125000000001 752.2499999999999 153.8125000000001 693.6249999999999 120.3125C635.6875 87.1875000000001 570.8749999999999 62.5 519.625 62.5A32.125 32.125 0 0 0 487.4375 94.625C487.4375 139.9374999999999 486.8125000000001 152.7499999999999 480.125 165.9999999999999C476.6875000000001 172.8749999999999 470.8750000000001 181.125 459.5 193.6874999999999C448.3125 206.1874999999999 433.1875 221.3124999999999 411.875 242.6249999999999A32.125 32.125 0 0 0 401.75 266.1249999999999V437.5C401.75 445.375 404.625 453 409.875 458.875L89.6875 779.125A92.75 92.75 0 0 0 220.875 910.375L541.0625 590.125A32.125 32.125 0 0 0 562.4375 598.25H733.875zM135.125 864.875A28.4375 28.4375 0 0 1 135.125 824.625L455.3125 504.375L495.5625 544.625L175.375 864.8125A28.4375 28.4375 0 0 1 135.125 864.8125M575.75 533.9375L466 424.25V343.6875L656.3125000000001 534zM507.375 236.6250000000001C520.1250000000001 222.3750000000001 530.375 209.1875000000001 537.625 194.6875000000001C547.6875 174.5625000000002 550.625 154.2500000000001 551.4375 130.6250000000001C580.9375 137.125 616.9375 151.3750000000001 654.0625 171.8125000000001L582.5625 243.3125000000001A32.125 32.125 0 0 0 628.0625 288.7500000000003L709.8749999999999 206.8750000000001C744.25 231.5000000000001 774.0624999999999 258.8750000000003 793.9375 285.3125000000001L795.5625 287.5000000000001L711.1875 371.8750000000001A32.125 32.125 0 1 0 756.625 417.375L832.4374999999999 341.5625C853.1875 376.0625 866.625 409.625 871.3124999999999 448.4375C846.8125 449.1875000000001 825.9375 451.9375 805.2499999999999 462.3125A192 192 0 0 0 763.3125 492.625A888.4999999999999 888.4999999999999 0 0 0 733.9374999999999 520.625L479.375 266.0625C490.3125 255 499.625 245.4375 507.4375 236.6874999999999" />
    <glyph glyph-name="broom-1"
      unicode="&#x31;&#x36;"
      horiz-adv-x="1000" d="M734.0625 598.3125C742.1875 598.25 750.3749999999999 595.125 756.625 588.875C778.3125 567.1875 793.6875 551.8125 806.3125 540.5C818.8125 529.1875 827.0625 523.375 834 519.875C847.25 513.25 860.0625 512.5625 905.3749999999998 512.5625C923.125 512.5625 937.4999999999998 498.1875 937.4999999999998 480.4375000000001C937.4999999999998 384.1875000000001 898.1249999999999 317.25 845.3749999999999 246.8125000000001C809.7499999999999 199.3125000000001 752.2499999999999 153.8125000000001 693.6249999999999 120.3125C635.6875 87.1875000000001 570.8749999999999 62.5 519.625 62.5A32.125 32.125 0 0 0 487.4375 94.625C487.4375 139.9374999999999 486.8125000000001 152.7499999999999 480.125 165.9999999999999C476.6875000000001 172.8749999999999 470.8750000000001 181.125 459.5 193.6874999999999C448.3125 206.1874999999999 433.1875 221.3124999999999 411.875 242.6249999999999A32.125 32.125 0 0 0 401.75 266.1249999999999V437.5C401.75 445.375 404.625 453 409.875 458.875L89.6875 779.125A92.75 92.75 0 0 0 220.875 910.375L541.0625 590.125A32.125 32.125 0 0 0 562.4375 598.25H733.875zM135.125 864.875A28.4375 28.4375 0 0 1 135.125 824.625L455.3125 504.375L495.5625 544.625L175.375 864.8125A28.4375 28.4375 0 0 1 135.125 864.8125M575.75 533.9375L466 424.25V343.6875L656.3125000000001 534zM507.375 236.6250000000001C520.1250000000001 222.3750000000001 530.375 209.1875000000001 537.625 194.6875000000001C547.6875 174.5625000000002 550.625 154.2500000000001 551.4375 130.6250000000001C580.9375 137.125 616.9375 151.3750000000001 654.0625 171.8125000000001L582.5625 243.3125000000001A32.125 32.125 0 0 0 628.0625 288.7500000000003L709.8749999999999 206.8750000000001C744.25 231.5000000000001 774.0624999999999 258.8750000000003 793.9375 285.3125000000001L795.5625 287.5000000000001L711.1875 371.8750000000001A32.125 32.125 0 1 0 756.625 417.375L832.4374999999999 341.5625C853.1875 376.0625 866.625 409.625 871.3124999999999 448.4375C846.8125 449.1875000000001 825.9375 451.9375 805.2499999999999 462.3125A192 192 0 0 0 763.3125 492.625A888.4999999999999 888.4999999999999 0 0 0 733.9374999999999 520.625L479.375 266.0625C490.3125 255 499.625 245.4375 507.4375 236.6874999999999" />
    <glyph glyph-name="brush"
      unicode="&#xEA22;"
      horiz-adv-x="1000" d="M406 865.8125A31.25 31.25 0 0 1 361.8125000000001 865.8125L286.125 790.1875L285.9375 790L285.6875000000001 789.75L134.1875000000001 638.1875A31.25 31.25 0 0 1 134.1875000000001 594L323.5625000000001 404.625L323.875 404.3125L361.75 366.375A31.25 31.25 0 0 1 383.875 357.25H484.75L684.25 157.75A111.75 111.75 0 0 1 842.25 315.75L642.75 515.25V616.125A31.25 31.25 0 0 1 633.625 638.1875L596 675.875L595.6874999999999 676.125zM308 723.75L361.75 670A31.25 31.25 0 0 1 406 714.1875L352.25 767.9375L383.875 799.625L529.375 654.0625L345.9375 470.625L200.4375 616.125L232.125 647.8125L285.875 594.0625A31.25 31.25 0 1 1 330.125 638.1874999999999L276.375 691.9375zM728.4375000000001 202L520.625 409.8125A31.25 31.25 0 0 1 496.6875 419.7500000000001H396.8125L390.125 426.4375L573.5625 609.875L580.2499999999999 603.1875V502.3125000000001A31.25 31.25 0 0 1 590.0624999999999 479.5625L798.0624999999999 271.5625A49.25 49.25 0 0 0 728.4374999999999 201.9375" />
    <glyph glyph-name="brush-1"
      unicode="&#x31;&#x36;"
      horiz-adv-x="1000" d="M406 865.8125A31.25 31.25 0 0 1 361.8125000000001 865.8125L286.125 790.1875L285.9375 790L285.6875000000001 789.75L134.1875000000001 638.1875A31.25 31.25 0 0 1 134.1875000000001 594L323.5625000000001 404.625L323.875 404.3125L361.75 366.375A31.25 31.25 0 0 1 383.875 357.25H484.75L684.25 157.75A111.75 111.75 0 0 1 842.25 315.75L642.75 515.25V616.125A31.25 31.25 0 0 1 633.625 638.1875L596 675.875L595.6874999999999 676.125zM308 723.75L361.75 670A31.25 31.25 0 0 1 406 714.1875L352.25 767.9375L383.875 799.625L529.375 654.0625L345.9375 470.625L200.4375 616.125L232.125 647.8125L285.875 594.0625A31.25 31.25 0 1 1 330.125 638.1874999999999L276.375 691.9375zM728.4375000000001 202L520.625 409.8125A31.25 31.25 0 0 1 496.6875 419.7500000000001H396.8125L390.125 426.4375L573.5625 609.875L580.2499999999999 603.1875V502.3125000000001A31.25 31.25 0 0 1 590.0624999999999 479.5625L798.0624999999999 271.5625A49.25 49.25 0 0 0 728.4374999999999 201.9375" />
    <glyph glyph-name="building"
      unicode="&#xEA23;"
      horiz-adv-x="1000" d="M714.375 758.8125H646.6875V694.125H714.4375zM646.6875 631.3125H714.4375V566.625H646.6875zM714.375 503.75H646.6875V439.0625H714.4375zM511.25 758.8125H579V694.125H511.25zM579 631.3125H511.25V566.625H578.9375zM511.25 503.75H579V439.0625H511.25zM816 875C833.2499999999999 875 847.25 861.625 847.25 845.125V184.75H906.25C923.5 184.75 937.5 171.375 937.5 154.875A30.625 30.625 0 0 0 906.25 125H93.75A30.625 30.625 0 0 0 62.5 154.875A30.625 30.625 0 0 0 93.75 184.75H152.75V586.25A30.625 30.625 0 0 0 184 616.125H378.5V845.125A30.625 30.625 0 0 0 409.75 875zM215.25 556.4375V184.75H378.5V556.4375zM441 184.75H513.875V327.4374999999999A30.625 30.625 0 0 0 545.125 357.3124999999999H680.5625C697.8125 357.3124999999999 711.8125 343.9374999999999 711.8125 327.4374999999999V184.75H784.75V815.25H441zM576.375 184.75H649.3125V297.5H576.375z" />
    <glyph glyph-name="building-1"
      unicode="&#x31;&#x36;"
      horiz-adv-x="1000" d="M714.375 758.8125H646.6875V694.125H714.4375zM646.6875 631.3125H714.4375V566.625H646.6875zM714.375 503.75H646.6875V439.0625H714.4375zM511.25 758.8125H579V694.125H511.25zM579 631.3125H511.25V566.625H578.9375zM511.25 503.75H579V439.0625H511.25zM816 875C833.2499999999999 875 847.25 861.625 847.25 845.125V184.75H906.25C923.5 184.75 937.5 171.375 937.5 154.875A30.625 30.625 0 0 0 906.25 125H93.75A30.625 30.625 0 0 0 62.5 154.875A30.625 30.625 0 0 0 93.75 184.75H152.75V586.25A30.625 30.625 0 0 0 184 616.125H378.5V845.125A30.625 30.625 0 0 0 409.75 875zM215.25 556.4375V184.75H378.5V556.4375zM441 184.75H513.875V327.4374999999999A30.625 30.625 0 0 0 545.125 357.3124999999999H680.5625C697.8125 357.3124999999999 711.8125 343.9374999999999 711.8125 327.4374999999999V184.75H784.75V815.25H441zM576.375 184.75H649.3125V297.5H576.375z" />
    <glyph glyph-name="bus"
      unicode="&#xEA24;"
      horiz-adv-x="1000" d="M201.375 729.1875A145.8125 145.8125 0 0 0 347.25 875H652.7499999999999A145.8125 145.8125 0 0 0 798.6249999999999 729.1875V722.25H843.7499999999999A31.25 31.25 0 0 0 874.9999999999999 691V538.125A31.25 31.25 0 0 0 812.4999999999999 538.125V659.75H798.6249999999999V308.9999999999999C798.6249999999999 270.6875 767.5 239.625 729.1874999999999 239.625H722.2499999999999V213.5625A88.5625 88.5625 0 0 0 545.1249999999999 213.5625V239.5625H454.875V213.5625A88.5625 88.5625 0 0 0 277.75 213.5625V239.5625H270.875A69.4375 69.4375 0 0 0 201.3749999999999 309V659.75H187.5V538.125A31.25 31.25 0 0 0 125 538.125V691A31.25 31.25 0 0 0 156.25 722.25H201.375zM263.875 531.25H736.1249999999999V697.9375H263.875zM736.1249999999999 468.75H263.875V308.9999999999999C263.875 305.2499999999999 267 302.125 270.8125 302.125H729.1875C733 302.125 736.0625 305.25 736.0625 308.9999999999999zM730.0625 760.4375A83.375 83.375 0 0 1 652.75 812.5H347.25C312.25 812.5 282.25 790.9375 269.9375 760.4375zM316 385.4375A31.25 31.25 0 0 1 347.25 354.1875H385.375A31.25 31.25 0 1 1 385.375 416.6875H347.25A31.25 31.25 0 0 1 316 385.4375M340.25 239.5625V213.5625A26.0625 26.0625 0 1 1 392.375 213.5625V239.5625zM583.375 385.4375A31.25 31.25 0 0 1 614.625 354.1875H652.7499999999999A31.25 31.25 0 1 1 652.7499999999999 416.6875H614.625A31.25 31.25 0 0 1 583.375 385.4375M607.625 239.5625V213.5625A26.0625 26.0625 0 1 1 659.75 213.5625V239.5625z" />
    <glyph glyph-name="bus-1"
      unicode="&#x31;&#x36;"
      horiz-adv-x="1000" d="M201.375 729.1875A145.8125 145.8125 0 0 0 347.25 875H652.7499999999999A145.8125 145.8125 0 0 0 798.6249999999999 729.1875V722.25H843.7499999999999A31.25 31.25 0 0 0 874.9999999999999 691V538.125A31.25 31.25 0 0 0 812.4999999999999 538.125V659.75H798.6249999999999V308.9999999999999C798.6249999999999 270.6875 767.5 239.625 729.1874999999999 239.625H722.2499999999999V213.5625A88.5625 88.5625 0 0 0 545.1249999999999 213.5625V239.5625H454.875V213.5625A88.5625 88.5625 0 0 0 277.75 213.5625V239.5625H270.875A69.4375 69.4375 0 0 0 201.3749999999999 309V659.75H187.5V538.125A31.25 31.25 0 0 0 125 538.125V691A31.25 31.25 0 0 0 156.25 722.25H201.375zM263.875 531.25H736.1249999999999V697.9375H263.875zM736.1249999999999 468.75H263.875V308.9999999999999C263.875 305.2499999999999 267 302.125 270.8125 302.125H729.1875C733 302.125 736.0625 305.25 736.0625 308.9999999999999zM730.0625 760.4375A83.375 83.375 0 0 1 652.75 812.5H347.25C312.25 812.5 282.25 790.9375 269.9375 760.4375zM316 385.4375A31.25 31.25 0 0 1 347.25 354.1875H385.375A31.25 31.25 0 1 1 385.375 416.6875H347.25A31.25 31.25 0 0 1 316 385.4375M340.25 239.5625V213.5625A26.0625 26.0625 0 1 1 392.375 213.5625V239.5625zM583.375 385.4375A31.25 31.25 0 0 1 614.625 354.1875H652.7499999999999A31.25 31.25 0 1 1 652.7499999999999 416.6875H614.625A31.25 31.25 0 0 1 583.375 385.4375M607.625 239.5625V213.5625A26.0625 26.0625 0 1 1 659.75 213.5625V239.5625z" />
    <glyph glyph-name="calculator-check"
      unicode="&#xEA25;"
      horiz-adv-x="1000" d="M93.75 772.0625C93.75 863.4375 168.9375 937.5 261.6875 937.5H715.625C808.375 937.5 883.5624999999999 863.4375 883.5624999999999 772.0625V414.25C883.5624999999999 397 869.3749999999999 383 851.8124999999999 383A31.5 31.5 0 0 0 820.1249999999999 414.25V772.0625A103.75 103.75 0 0 1 715.625 875H261.6875A103.75 103.75 0 0 1 157.1875 772.0625V235.375C157.1875 178.5 203.9375000000001 132.4375 261.6875 132.4375H443.2500000000001C460.7500000000001 132.4375 475.0000000000001 118.4375 475.0000000000001 101.1875S460.7500000000001 69.9375 443.2500000000001 69.9375H261.6875C168.9375 69.9375 93.75 144 93.75 235.375zM230 705C230 759.3125 274.625 803.3125 329.75 803.3125H647.5625C702.6875 803.3125 747.375 759.3125 747.375 705C747.375 650.625 702.6875 606.625 647.5625 606.625H329.75A99.0625 99.0625 0 0 0 230 705M329.75 740.8125A36.125 36.125 0 0 1 293.375 705C293.375 685.1875 309.625 669.125 329.75 669.125H647.5625A36.125 36.125 0 0 1 683.9375000000001 705A36.125 36.125 0 0 1 647.5625 740.8125zM220.9375 503.75C220.9375 521 235.125 535 252.625 535H316.0625C333.5625 535 347.8125 521 347.8125 503.75S333.625 472.4999999999999 316.0625 472.4999999999999H252.625A31.5 31.5 0 0 0 220.9375 503.7499999999999M220.9375 371.5625C220.9375 388.8125 235.125 402.8125 252.625 402.8125H316.0625C333.5625 402.8125 347.8125 388.8125 347.8125 371.5625S333.625 340.3125 316.0625 340.3125H252.625A31.5 31.5 0 0 0 220.9375 371.5625M220.9375 239.375C220.9375 256.6875 235.125 270.625 252.625 270.625H316.0625C333.5625 270.625 347.8125 256.6875 347.8125 239.375C347.8125 222.125 333.625 208.125 316.0625 208.125H252.625A31.5 31.5 0 0 0 220.9375 239.375M425.1875 503.75C425.1875 521 439.4375 535 456.9375 535H520.375C537.875 535 552.0625 521 552.0625 503.75S537.875 472.4999999999999 520.375 472.4999999999999H456.875A31.5 31.5 0 0 0 425.125 503.7499999999999M425.1875 371.5625C425.1875 388.8125 439.4375 402.8125 456.9375 402.8125H520.375C537.875 402.8125 552.0625 388.8125 552.0625 371.5625S537.875 340.3125 520.375 340.3125H456.875A31.5 31.5 0 0 0 425.125 371.5625M629.5 503.75C629.5 521 643.6875 535 661.2499999999999 535H724.6874999999999C742.1874999999999 535 756.3749999999999 521 756.3749999999999 503.75S742.1874999999999 472.4999999999999 724.6874999999999 472.4999999999999H661.1874999999999A31.5 31.5 0 0 0 629.5 503.7499999999999M629.5 371.5625C629.5 388.8125 643.6875 402.8125 661.2499999999999 402.8125H724.6874999999999C742.1874999999999 402.8125 756.3749999999999 388.8125 756.3749999999999 371.5625S742.1874999999999 340.3125 724.6874999999999 340.3125H661.1874999999999A31.5 31.5 0 0 0 629.5 371.5625M896.9375 302.1875A30.9375 30.9375 0 0 0 896.9375 258L707.8125000000001 71.625A31.9375 31.9375 0 0 0 662.1875 72.4375L556.25 184.25A30.9375 30.9375 0 0 0 557.8125 228.4375000000001A32.0625 32.0625 0 0 0 602.6250000000001 226.875L686.1875000000001 138.75L852.125 302.1875A32.0625 32.0625 0 0 0 896.9375 302.1875" />
    <glyph glyph-name="calculator-check-1"
      unicode="&#x31;&#x36;"
      horiz-adv-x="1000" d="M93.75 772.0625C93.75 863.4375 168.9375 937.5 261.6875 937.5H715.625C808.375 937.5 883.5624999999999 863.4375 883.5624999999999 772.0625V414.25C883.5624999999999 397 869.3749999999999 383 851.8124999999999 383A31.5 31.5 0 0 0 820.1249999999999 414.25V772.0625A103.75 103.75 0 0 1 715.625 875H261.6875A103.75 103.75 0 0 1 157.1875 772.0625V235.375C157.1875 178.5 203.9375000000001 132.4375 261.6875 132.4375H443.2500000000001C460.7500000000001 132.4375 475.0000000000001 118.4375 475.0000000000001 101.1875S460.7500000000001 69.9375 443.2500000000001 69.9375H261.6875C168.9375 69.9375 93.75 144 93.75 235.375zM230 705C230 759.3125 274.625 803.3125 329.75 803.3125H647.5625C702.6875 803.3125 747.375 759.3125 747.375 705C747.375 650.625 702.6875 606.625 647.5625 606.625H329.75A99.0625 99.0625 0 0 0 230 705M329.75 740.8125A36.125 36.125 0 0 1 293.375 705C293.375 685.1875 309.625 669.125 329.75 669.125H647.5625A36.125 36.125 0 0 1 683.9375000000001 705A36.125 36.125 0 0 1 647.5625 740.8125zM220.9375 503.75C220.9375 521 235.125 535 252.625 535H316.0625C333.5625 535 347.8125 521 347.8125 503.75S333.625 472.4999999999999 316.0625 472.4999999999999H252.625A31.5 31.5 0 0 0 220.9375 503.7499999999999M220.9375 371.5625C220.9375 388.8125 235.125 402.8125 252.625 402.8125H316.0625C333.5625 402.8125 347.8125 388.8125 347.8125 371.5625S333.625 340.3125 316.0625 340.3125H252.625A31.5 31.5 0 0 0 220.9375 371.5625M220.9375 239.375C220.9375 256.6875 235.125 270.625 252.625 270.625H316.0625C333.5625 270.625 347.8125 256.6875 347.8125 239.375C347.8125 222.125 333.625 208.125 316.0625 208.125H252.625A31.5 31.5 0 0 0 220.9375 239.375M425.1875 503.75C425.1875 521 439.4375 535 456.9375 535H520.375C537.875 535 552.0625 521 552.0625 503.75S537.875 472.4999999999999 520.375 472.4999999999999H456.875A31.5 31.5 0 0 0 425.125 503.7499999999999M425.1875 371.5625C425.1875 388.8125 439.4375 402.8125 456.9375 402.8125H520.375C537.875 402.8125 552.0625 388.8125 552.0625 371.5625S537.875 340.3125 520.375 340.3125H456.875A31.5 31.5 0 0 0 425.125 371.5625M629.5 503.75C629.5 521 643.6875 535 661.2499999999999 535H724.6874999999999C742.1874999999999 535 756.3749999999999 521 756.3749999999999 503.75S742.1874999999999 472.4999999999999 724.6874999999999 472.4999999999999H661.1874999999999A31.5 31.5 0 0 0 629.5 503.7499999999999M629.5 371.5625C629.5 388.8125 643.6875 402.8125 661.2499999999999 402.8125H724.6874999999999C742.1874999999999 402.8125 756.3749999999999 388.8125 756.3749999999999 371.5625S742.1874999999999 340.3125 724.6874999999999 340.3125H661.1874999999999A31.5 31.5 0 0 0 629.5 371.5625M896.9375 302.1875A30.9375 30.9375 0 0 0 896.9375 258L707.8125000000001 71.625A31.9375 31.9375 0 0 0 662.1875 72.4375L556.25 184.25A30.9375 30.9375 0 0 0 557.8125 228.4375000000001A32.0625 32.0625 0 0 0 602.6250000000001 226.875L686.1875000000001 138.75L852.125 302.1875A32.0625 32.0625 0 0 0 896.9375 302.1875" />
    <glyph glyph-name="calendar-event"
      unicode="&#xEA26;"
      horiz-adv-x="1000" d="M322 937.5C338.8125 937.5 352.4375 923.5 352.4375 906.25V856.25H608.0625V906.25C608.0625 923.5 621.625 937.5 638.4375 937.5C655.3125 937.5 668.875 923.5 668.875 906.25V856.25H717.625C799.9375 856.25 866.6875 787.6875 866.6875 703.125V621.875C866.6875 604.625 853.0625 590.625 836.2499999999999 590.625H154.625V256.2500000000001C154.625 206.25 194.125 165.6250000000001 242.875 165.6250000000001H361.5625C378.375 165.6250000000001 391.9375 151.6250000000001 391.9375 134.3750000000001S378.375 103.1250000000001 361.5625 103.1250000000001H242.8125000000001C160.5 103.1250000000001 93.75 171.6875000000001 93.75 256.2500000000001V703.125C93.75 787.6875 160.5 856.25 242.8750000000001 856.25H291.5625000000001V906.25C291.5625000000001 923.5 305.1875000000001 937.5 322.0000000000001 937.5M805.8125 703.125C805.8125 753.125 766.3125000000001 793.75 717.5625000000001 793.75H668.8750000000001V743.75C668.8750000000001 726.5 655.2500000000001 712.5 638.4375000000001 712.5A30.875 30.875 0 0 0 608.0000000000001 743.75V793.75H352.3750000000001V743.75C352.3750000000001 726.5 338.8125000000001 712.5 322.0000000000001 712.5A30.875 30.875 0 0 0 291.5625000000001 743.75V793.75H242.8125000000001C194.1250000000001 793.75 154.6250000000001 753.125 154.6250000000001 703.125V653.125H805.8750000000001zM631 476.5A50.625 50.625 0 0 0 721.75 476.5L765.375 388.125L862.8750000000001 373.9375A50.625 50.625 0 0 0 890.9375 287.6875000000001L820.3125 218.8750000000001L837 121.7500000000001A50.625 50.625 0 0 0 763.625 68.4375000000001L676.375 114.2500000000002L589.1875 68.4375000000001A50.625 50.625 0 0 0 515.7499999999999 121.7500000000001L532.4374999999999 218.8750000000001L461.8124999999999 287.6250000000001A50.625 50.625 0 0 0 489.9374999999999 373.9375000000001L587.4375 388.1250000000001zM676.375 427.125L640.6875 354.8749999999999A50.625 50.625 0 0 0 602.5625 327.1875L522.75 315.5625L580.5625000000001 259.3125A50.625 50.625 0 0 0 595.0625 214.4999999999999L581.4375 134.9374999999999L652.8125 172.4999999999999A50.625 50.625 0 0 0 699.9375 172.4999999999999L771.3125 134.9999999999999L757.6875 214.4999999999999A50.625 50.625 0 0 0 772.25 259.2499999999999L830 315.5624999999999L750.1875 327.1874999999999A50.625 50.625 0 0 0 712.0625 354.8749999999998z" />
    <glyph glyph-name="calendar-event-1"
      unicode="&#x31;&#x36;"
      horiz-adv-x="1000" d="M322 937.5C338.8125 937.5 352.4375 923.5 352.4375 906.25V856.25H608.0625V906.25C608.0625 923.5 621.625 937.5 638.4375 937.5C655.3125 937.5 668.875 923.5 668.875 906.25V856.25H717.625C799.9375 856.25 866.6875 787.6875 866.6875 703.125V621.875C866.6875 604.625 853.0625 590.625 836.2499999999999 590.625H154.625V256.2500000000001C154.625 206.25 194.125 165.6250000000001 242.875 165.6250000000001H361.5625C378.375 165.6250000000001 391.9375 151.6250000000001 391.9375 134.3750000000001S378.375 103.1250000000001 361.5625 103.1250000000001H242.8125000000001C160.5 103.1250000000001 93.75 171.6875000000001 93.75 256.2500000000001V703.125C93.75 787.6875 160.5 856.25 242.8750000000001 856.25H291.5625000000001V906.25C291.5625000000001 923.5 305.1875000000001 937.5 322.0000000000001 937.5M805.8125 703.125C805.8125 753.125 766.3125000000001 793.75 717.5625000000001 793.75H668.8750000000001V743.75C668.8750000000001 726.5 655.2500000000001 712.5 638.4375000000001 712.5A30.875 30.875 0 0 0 608.0000000000001 743.75V793.75H352.3750000000001V743.75C352.3750000000001 726.5 338.8125000000001 712.5 322.0000000000001 712.5A30.875 30.875 0 0 0 291.5625000000001 743.75V793.75H242.8125000000001C194.1250000000001 793.75 154.6250000000001 753.125 154.6250000000001 703.125V653.125H805.8750000000001zM631 476.5A50.625 50.625 0 0 0 721.75 476.5L765.375 388.125L862.8750000000001 373.9375A50.625 50.625 0 0 0 890.9375 287.6875000000001L820.3125 218.8750000000001L837 121.7500000000001A50.625 50.625 0 0 0 763.625 68.4375000000001L676.375 114.2500000000002L589.1875 68.4375000000001A50.625 50.625 0 0 0 515.7499999999999 121.7500000000001L532.4374999999999 218.8750000000001L461.8124999999999 287.6250000000001A50.625 50.625 0 0 0 489.9374999999999 373.9375000000001L587.4375 388.1250000000001zM676.375 427.125L640.6875 354.8749999999999A50.625 50.625 0 0 0 602.5625 327.1875L522.75 315.5625L580.5625000000001 259.3125A50.625 50.625 0 0 0 595.0625 214.4999999999999L581.4375 134.9374999999999L652.8125 172.4999999999999A50.625 50.625 0 0 0 699.9375 172.4999999999999L771.3125 134.9999999999999L757.6875 214.4999999999999A50.625 50.625 0 0 0 772.25 259.2499999999999L830 315.5624999999999L750.1875 327.1874999999999A50.625 50.625 0 0 0 712.0625 354.8749999999998z" />
    <glyph glyph-name="calendar-history"
      unicode="&#xEA27;"
      horiz-adv-x="1000" d="M322 937.5C338.8125 937.5 352.4375 923.5 352.4375 906.25V856.25H608.0625V906.25C608.0625 923.5 621.625 937.5 638.4375 937.5C655.3125 937.5 668.875 923.5 668.875 906.25V856.25H717.625C799.9375 856.25 866.6875 787.6875 866.6875 703.125V621.875C866.6875 604.625 853.0625 590.625 836.2499999999999 590.625H154.625V256.2500000000001C154.625 206.25 194.125 165.6250000000001 242.875 165.6250000000001H361.5625C378.375 165.6250000000001 391.9375 151.6250000000001 391.9375 134.3750000000001S378.375 103.1250000000001 361.5625 103.1250000000001H242.8125000000001C160.5 103.1250000000001 93.75 171.6875000000001 93.75 256.2500000000001V703.125C93.75 787.6875 160.5 856.25 242.8750000000001 856.25H291.5625000000001V906.25C291.5625000000001 923.5 305.1875000000001 937.5 322.0000000000001 937.5M805.8125 703.125C805.8125 753.125 766.3125000000001 793.75 717.5625000000001 793.75H668.8750000000001V743.75C668.8750000000001 726.5 655.2500000000001 712.5 638.4375000000001 712.5A30.875 30.875 0 0 0 608.0000000000001 743.75V793.75H352.3750000000001V743.75C352.3750000000001 726.5 338.8125000000001 712.5 322.0000000000001 712.5A30.875 30.875 0 0 0 291.5625000000001 743.75V793.75H242.8125000000001C194.1250000000001 793.75 154.6250000000001 753.125 154.6250000000001 703.125V653.125H805.8750000000001zM707.6875 378.125C707.6875 395.375 694.0625 409.375 677.25 409.375A30.875 30.875 0 0 1 646.8125 378.125V283.7500000000001L716.875 213.5625000000001C728.875 201.5000000000001 748.125 201.7500000000001 759.8750000000001 214.1250000000001A31.875 31.875 0 0 1 759.3750000000001 258.3125000000001L707.6875000000001 310.0625000000001zM678 531.25C551.9375000000001 531.25 449.8125000000001 426.3125 449.8125000000001 296.875C449.8125000000001 167.4375 552 62.5 678 62.5C804.0625 62.5 906.25 167.4375 906.25 296.875C906.25 426.3125 804.0625 531.25 677.9999999999999 531.25M510.625 296.875C510.625 391.8125 585.625 468.75 677.9999999999999 468.75C770.5 468.75 845.375 391.8125 845.375 296.875S770.4375 125 678 125C585.625 125 510.625 201.9375 510.625 296.875" />
    <glyph glyph-name="calendar-history-1"
      unicode="&#x31;&#x36;"
      horiz-adv-x="1000" d="M322 937.5C338.8125 937.5 352.4375 923.5 352.4375 906.25V856.25H608.0625V906.25C608.0625 923.5 621.625 937.5 638.4375 937.5C655.3125 937.5 668.875 923.5 668.875 906.25V856.25H717.625C799.9375 856.25 866.6875 787.6875 866.6875 703.125V621.875C866.6875 604.625 853.0625 590.625 836.2499999999999 590.625H154.625V256.2500000000001C154.625 206.25 194.125 165.6250000000001 242.875 165.6250000000001H361.5625C378.375 165.6250000000001 391.9375 151.6250000000001 391.9375 134.3750000000001S378.375 103.1250000000001 361.5625 103.1250000000001H242.8125000000001C160.5 103.1250000000001 93.75 171.6875000000001 93.75 256.2500000000001V703.125C93.75 787.6875 160.5 856.25 242.8750000000001 856.25H291.5625000000001V906.25C291.5625000000001 923.5 305.1875000000001 937.5 322.0000000000001 937.5M805.8125 703.125C805.8125 753.125 766.3125000000001 793.75 717.5625000000001 793.75H668.8750000000001V743.75C668.8750000000001 726.5 655.2500000000001 712.5 638.4375000000001 712.5A30.875 30.875 0 0 0 608.0000000000001 743.75V793.75H352.3750000000001V743.75C352.3750000000001 726.5 338.8125000000001 712.5 322.0000000000001 712.5A30.875 30.875 0 0 0 291.5625000000001 743.75V793.75H242.8125000000001C194.1250000000001 793.75 154.6250000000001 753.125 154.6250000000001 703.125V653.125H805.8750000000001zM707.6875 378.125C707.6875 395.375 694.0625 409.375 677.25 409.375A30.875 30.875 0 0 1 646.8125 378.125V283.7500000000001L716.875 213.5625000000001C728.875 201.5000000000001 748.125 201.7500000000001 759.8750000000001 214.1250000000001A31.875 31.875 0 0 1 759.3750000000001 258.3125000000001L707.6875000000001 310.0625000000001zM678 531.25C551.9375000000001 531.25 449.8125000000001 426.3125 449.8125000000001 296.875C449.8125000000001 167.4375 552 62.5 678 62.5C804.0625 62.5 906.25 167.4375 906.25 296.875C906.25 426.3125 804.0625 531.25 677.9999999999999 531.25M510.625 296.875C510.625 391.8125 585.625 468.75 677.9999999999999 468.75C770.5 468.75 845.375 391.8125 845.375 296.875S770.4375 125 678 125C585.625 125 510.625 201.9375 510.625 296.875" />
    <glyph glyph-name="calendar"
      unicode="&#xEA28;"
      horiz-adv-x="1000" d="M363.5 906.25C363.5 923.5 349.875 937.5 333 937.5A30.875 30.875 0 0 1 302.5 906.25V852H249.5C163.5 852 93.75 780.5625 93.75 692.4375V222.0625C93.75 133.9375 163.5 62.5 249.5 62.5H750.5C836.4999999999999 62.5 906.25 133.9375 906.25 222.0625V692.4375C906.25 780.5625 836.5 852 750.5 852H697.4999999999999V906.25C697.4999999999999 923.5 683.8124999999999 937.5 666.9999999999999 937.5A30.875 30.875 0 0 1 636.5 906.25V852H363.5zM845.25 638.125H154.75V692.5C154.75 746.0625 197.1875 789.5625 249.5 789.5625H302.5V735.25C302.5 718 316.1875 704 333 704C349.875 704 363.5 718 363.5 735.25V789.5625H636.5V735.25C636.5 718 650.125 704 666.9999999999999 704S697.4999999999999 718 697.4999999999999 735.25V789.5625H750.5C802.8124999999999 789.5625 845.25 746.0625 845.25 692.5zM154.7500000000001 575.625H845.25V222.0625C845.25 168.4375 802.8125 125 750.5 125H249.5C197.1875 125 154.75 168.4375 154.75 222.0625z" />
    <glyph glyph-name="calendar-1"
      unicode="&#x31;&#x36;"
      horiz-adv-x="1000" d="M363.5 906.25C363.5 923.5 349.875 937.5 333 937.5A30.875 30.875 0 0 1 302.5 906.25V852H249.5C163.5 852 93.75 780.5625 93.75 692.4375V222.0625C93.75 133.9375 163.5 62.5 249.5 62.5H750.5C836.4999999999999 62.5 906.25 133.9375 906.25 222.0625V692.4375C906.25 780.5625 836.5 852 750.5 852H697.4999999999999V906.25C697.4999999999999 923.5 683.8124999999999 937.5 666.9999999999999 937.5A30.875 30.875 0 0 1 636.5 906.25V852H363.5zM845.25 638.125H154.75V692.5C154.75 746.0625 197.1875 789.5625 249.5 789.5625H302.5V735.25C302.5 718 316.1875 704 333 704C349.875 704 363.5 718 363.5 735.25V789.5625H636.5V735.25C636.5 718 650.125 704 666.9999999999999 704S697.4999999999999 718 697.4999999999999 735.25V789.5625H750.5C802.8124999999999 789.5625 845.25 746.0625 845.25 692.5zM154.7500000000001 575.625H845.25V222.0625C845.25 168.4375 802.8125 125 750.5 125H249.5C197.1875 125 154.75 168.4375 154.75 222.0625z" />
    <glyph glyph-name="call-off"
      unicode="&#xEA29;"
      horiz-adv-x="1000" d="M516.1875 471.9375L897.125 852.875A31.25 31.25 0 1 1 852.8749999999999 897.0625L102.8749999999999 147.0625A31.25 31.25 0 0 1 147.125 102.8749999999999L356.9375 312.75A719.0625 719.0625 0 0 1 797.8749999999999 125.1249999999999C841.4374999999999 122.4375 874.9999999999999 157.9375 874.9999999999999 198.8749999999999V328.9374999999999A69.375 69.375 0 0 1 849.4374999999999 383.8124999999999C804.9999999999998 418.9374999999999 744.7499999999998 432.9999999999999 663.1874999999998 434.1249999999999C650.4999999999999 434.3124999999999 638.1874999999998 431.1874999999999 627.4374999999999 425.3749999999999L605.2499999999999 413.6249999999998A8.9375 8.9375 0 0 0 596.4999999999998 413.3749999999998A521 521 0 0 0 516.1874999999998 471.9374999999998M470.5624999999998 426.3124999999998C499.1874999999998 400.6874999999998 530.3749999999998 377.7499999999998 563.6874999999998 357.9999999999998C586.3749999999998 344.5624999999998 613.6249999999998 345.1249999999998 635.5624999999998 356.7499999999998L657.6874999999998 368.6249999999998A9.6875 9.6875 0 0 0 662.3124999999998 369.7499999999998C738.3749999999998 368.6874999999999 781.4999999999998 355.3749999999998 809.5624999999998 333.2499999999998L809.9374999999998 332.6249999999999A9.375 9.375 0 0 0 810.5624999999998 328.9374999999999V198.8749999999999C810.5624999999998 192.375 805.6874999999998 189.1875 801.9374999999998 189.4374999999999A654.625 654.625 0 0 0 402.5624999999998 358.3124999999999zM383.125 524.8125A32.1875 32.1875 0 0 1 435.8125 561.875A520.4375 520.4375 0 0 0 404.0625 612.9375A8.9375 8.9375 0 0 0 404.4375 621.3125L417.75 646.8125C423.375 657.4375 426.4375 669.625 426.25 682.1250000000001C425.875 713.3750000000001 423.5625 737.0000000000001 417.125 760.7500000000001C410.8750000000001 784.0625000000001 400.8750000000001 805.8125000000001 387.4375000000001 833.2500000000001A74.9375 74.9375 0 0 1 320.1875 875H198.875C157.9375 875 122.4375 841.4375 125.125 797.875A719 719 0 0 1 258.5625 423.6249999999999A32.1875 32.1875 0 1 1 310.875 461.1249999999999A654.875 654.875 0 0 0 189.4375 801.9374999999999C189.1875 805.6874999999999 192.375 810.625 198.8125 810.625H320.1875C324.3125 810.625 327.9375 808.25 329.6875 804.8125C343 777.75 350.4375 760.7499999999999 355 743.875C359.375 727.4375 361.5 709.75 361.875 681.25A9.75 9.75 0 0 0 360.6875 676.6875L347.375 651.1875C336.375 630.1874999999999 335.5 604.3125 347.5 582.1874999999999C358.3125 562.3125 370.25 543.1249999999999 383.125 524.8124999999999" />
    <glyph glyph-name="call-off-1"
      unicode="&#x31;&#x36;"
      horiz-adv-x="1000" d="M516.1875 471.9375L897.125 852.875A31.25 31.25 0 1 1 852.8749999999999 897.0625L102.8749999999999 147.0625A31.25 31.25 0 0 1 147.125 102.8749999999999L356.9375 312.75A719.0625 719.0625 0 0 1 797.8749999999999 125.1249999999999C841.4374999999999 122.4375 874.9999999999999 157.9375 874.9999999999999 198.8749999999999V328.9374999999999A69.375 69.375 0 0 1 849.4374999999999 383.8124999999999C804.9999999999998 418.9374999999999 744.7499999999998 432.9999999999999 663.1874999999998 434.1249999999999C650.4999999999999 434.3124999999999 638.1874999999998 431.1874999999999 627.4374999999999 425.3749999999999L605.2499999999999 413.6249999999998A8.9375 8.9375 0 0 0 596.4999999999998 413.3749999999998A521 521 0 0 0 516.1874999999998 471.9374999999998M470.5624999999998 426.3124999999998C499.1874999999998 400.6874999999998 530.3749999999998 377.7499999999998 563.6874999999998 357.9999999999998C586.3749999999998 344.5624999999998 613.6249999999998 345.1249999999998 635.5624999999998 356.7499999999998L657.6874999999998 368.6249999999998A9.6875 9.6875 0 0 0 662.3124999999998 369.7499999999998C738.3749999999998 368.6874999999999 781.4999999999998 355.3749999999998 809.5624999999998 333.2499999999998L809.9374999999998 332.6249999999999A9.375 9.375 0 0 0 810.5624999999998 328.9374999999999V198.8749999999999C810.5624999999998 192.375 805.6874999999998 189.1875 801.9374999999998 189.4374999999999A654.625 654.625 0 0 0 402.5624999999998 358.3124999999999zM383.125 524.8125A32.1875 32.1875 0 0 1 435.8125 561.875A520.4375 520.4375 0 0 0 404.0625 612.9375A8.9375 8.9375 0 0 0 404.4375 621.3125L417.75 646.8125C423.375 657.4375 426.4375 669.625 426.25 682.1250000000001C425.875 713.3750000000001 423.5625 737.0000000000001 417.125 760.7500000000001C410.8750000000001 784.0625000000001 400.8750000000001 805.8125000000001 387.4375000000001 833.2500000000001A74.9375 74.9375 0 0 1 320.1875 875H198.875C157.9375 875 122.4375 841.4375 125.125 797.875A719 719 0 0 1 258.5625 423.6249999999999A32.1875 32.1875 0 1 1 310.875 461.1249999999999A654.875 654.875 0 0 0 189.4375 801.9374999999999C189.1875 805.6874999999999 192.375 810.625 198.8125 810.625H320.1875C324.3125 810.625 327.9375 808.25 329.6875 804.8125C343 777.75 350.4375 760.7499999999999 355 743.875C359.375 727.4375 361.5 709.75 361.875 681.25A9.75 9.75 0 0 0 360.6875 676.6875L347.375 651.1875C336.375 630.1874999999999 335.5 604.3125 347.5 582.1874999999999C358.3125 562.3125 370.25 543.1249999999999 383.125 524.8124999999999" />
    <glyph glyph-name="call"
      unicode="&#xEA2A;"
      horiz-adv-x="1000" d="M849.5 383.8125C867.6875 369.4375 875 348.0625 875 328.9375V198.875C875 157.9375000000001 841.4375 122.4375 797.875 125.125A718.8125 718.8125 0 0 0 178.5 567.625A719 719 0 0 0 125.125 797.875C122.5 841.4375 157.9375 875 198.875 875H320.1875C348.625 875 374.8125 858.9375 387.4375 833.25C400.9375 805.875 410.8125 784.0625 417.125 760.75C423.5625 737 425.875 713.3125 426.25 682.125C426.4375 669.625 423.375 657.5 417.75 646.8125L404.4375 621.3125A8.9375 8.9375 0 0 1 404.0625 612.9375A521.0625 521.0625 0 0 1 596.5624999999999 413.3749999999999C598.5624999999999 412.125 601.8749999999999 411.8124999999999 605.3124999999999 413.6249999999999L627.4374999999999 425.4374999999999C638.1874999999999 431.1875 650.5624999999998 434.3124999999999 663.1874999999998 434.1875C744.7499999999998 432.9375 804.9999999999998 418.9375 849.4374999999999 383.8124999999999M809.4999999999999 333.2499999999999C781.4374999999999 355.4375 738.3124999999999 368.6875 662.2499999999999 369.7499999999999A9.6875 9.6875 0 0 1 657.6249999999999 368.5624999999999L635.4374999999999 356.8124999999999C613.5624999999999 345.1249999999999 586.3124999999999 344.5624999999999 563.6874999999999 357.9999999999999A585.4375000000001 585.4375000000001 0 0 0 347.4374999999999 582.1874999999999A73.3125 73.3125 0 0 0 347.3124999999999 651.1874999999999L360.625 676.6874999999999A9.75 9.75 0 0 1 361.875 681.25C361.5 709.75 359.375 727.5 355 743.875C350.4375 760.75 343 777.75 329.6875 804.8125A10.5625 10.5625 0 0 1 320.1875 810.625H198.875C192.375 810.625 189.1875 805.6875 189.4375 801.875A654.8125 654.8125 0 0 1 801.9375000000001 189.375C805.6875000000001 189.1875 810.625 192.375 810.625 198.8749999999999V328.9374999999999A9.375 9.375 0 0 1 810 332.6249999999999A2.6875 2.6875 0 0 1 809.5625000000001 333.2499999999998M809.5625000000001 333.2499999999998" />
    <glyph glyph-name="call-1"
      unicode="&#x31;&#x36;"
      horiz-adv-x="1000" d="M849.5 383.8125C867.6875 369.4375 875 348.0625 875 328.9375V198.875C875 157.9375000000001 841.4375 122.4375 797.875 125.125A718.8125 718.8125 0 0 0 178.5 567.625A719 719 0 0 0 125.125 797.875C122.5 841.4375 157.9375 875 198.875 875H320.1875C348.625 875 374.8125 858.9375 387.4375 833.25C400.9375 805.875 410.8125 784.0625 417.125 760.75C423.5625 737 425.875 713.3125 426.25 682.125C426.4375 669.625 423.375 657.5 417.75 646.8125L404.4375 621.3125A8.9375 8.9375 0 0 1 404.0625 612.9375A521.0625 521.0625 0 0 1 596.5624999999999 413.3749999999999C598.5624999999999 412.125 601.8749999999999 411.8124999999999 605.3124999999999 413.6249999999999L627.4374999999999 425.4374999999999C638.1874999999999 431.1875 650.5624999999998 434.3124999999999 663.1874999999998 434.1875C744.7499999999998 432.9375 804.9999999999998 418.9375 849.4374999999999 383.8124999999999M809.4999999999999 333.2499999999999C781.4374999999999 355.4375 738.3124999999999 368.6875 662.2499999999999 369.7499999999999A9.6875 9.6875 0 0 1 657.6249999999999 368.5624999999999L635.4374999999999 356.8124999999999C613.5624999999999 345.1249999999999 586.3124999999999 344.5624999999999 563.6874999999999 357.9999999999999A585.4375000000001 585.4375000000001 0 0 0 347.4374999999999 582.1874999999999A73.3125 73.3125 0 0 0 347.3124999999999 651.1874999999999L360.625 676.6874999999999A9.75 9.75 0 0 1 361.875 681.25C361.5 709.75 359.375 727.5 355 743.875C350.4375 760.75 343 777.75 329.6875 804.8125A10.5625 10.5625 0 0 1 320.1875 810.625H198.875C192.375 810.625 189.1875 805.6875 189.4375 801.875A654.8125 654.8125 0 0 1 801.9375000000001 189.375C805.6875000000001 189.1875 810.625 192.375 810.625 198.8749999999999V328.9374999999999A9.375 9.375 0 0 1 810 332.6249999999999A2.6875 2.6875 0 0 1 809.5625000000001 333.2499999999998M809.5625000000001 333.2499999999998" />
    <glyph glyph-name="camera"
      unicode="&#xEA2B;"
      horiz-adv-x="1000" d="M500 616.125C407.9375 616.125 333.3125 544.875 333.3125 456.8749999999999C333.3125 368.875 407.9375 297.5625 500 297.5625C592.0625 297.5625 666.6875 368.875 666.6875 456.8749999999999C666.6875 544.8125 592.0624999999999 616.125 500 616.125M395.8125 456.875C395.8125 511.875 442.5 556.4375 500 556.4375S604.1875 511.8125 604.1875 456.875C604.1875 401.875 557.5625 357.3125 500 357.3125C442.5 357.3125 395.8125 401.875 395.8125 456.875M447.125 875C414.875 875 384 862.75 361.1875 841L261.375 745.5625H229.1875000000001C137.125 745.625 62.5 674.375 62.5 586.25V284.3125C62.5 196.25 137.125 125 229.1875 125H770.8125C862.875 125 937.5 196.3125 937.5 284.3125V586.25C937.5 674.25 862.8750000000001 745.625 770.8125 745.625H738.625L638.8125 841A124.4375 124.4375 0 0 1 552.875 875zM405.375 798.75A60.5 60.5 0 0 0 447.125 815.25H552.875C568.5 815.25 583.5 809.3125 594.625 798.75L703.625 694.5625C709.4375 688.9375 717.375 685.8125 725.6874999999999 685.8125H770.8124999999999C828.3124999999999 685.8125 874.9999999999999 641.25 874.9999999999999 586.25V284.3125C874.9999999999999 229.3124999999999 828.3749999999999 184.75 770.8124999999999 184.75H229.1875C171.6875 184.75 125 229.3124999999999 125 284.3125V586.25C125 641.25 171.625 685.8125 229.1875 685.8125H274.3125C282.5625 685.8125 290.5625 688.9375 296.375 694.5625z" />
    <glyph glyph-name="camera-1"
      unicode="&#x31;&#x36;"
      horiz-adv-x="1000" d="M500 616.125C407.9375 616.125 333.3125 544.875 333.3125 456.8749999999999C333.3125 368.875 407.9375 297.5625 500 297.5625C592.0625 297.5625 666.6875 368.875 666.6875 456.8749999999999C666.6875 544.8125 592.0624999999999 616.125 500 616.125M395.8125 456.875C395.8125 511.875 442.5 556.4375 500 556.4375S604.1875 511.8125 604.1875 456.875C604.1875 401.875 557.5625 357.3125 500 357.3125C442.5 357.3125 395.8125 401.875 395.8125 456.875M447.125 875C414.875 875 384 862.75 361.1875 841L261.375 745.5625H229.1875000000001C137.125 745.625 62.5 674.375 62.5 586.25V284.3125C62.5 196.25 137.125 125 229.1875 125H770.8125C862.875 125 937.5 196.3125 937.5 284.3125V586.25C937.5 674.25 862.8750000000001 745.625 770.8125 745.625H738.625L638.8125 841A124.4375 124.4375 0 0 1 552.875 875zM405.375 798.75A60.5 60.5 0 0 0 447.125 815.25H552.875C568.5 815.25 583.5 809.3125 594.625 798.75L703.625 694.5625C709.4375 688.9375 717.375 685.8125 725.6874999999999 685.8125H770.8124999999999C828.3124999999999 685.8125 874.9999999999999 641.25 874.9999999999999 586.25V284.3125C874.9999999999999 229.3124999999999 828.3749999999999 184.75 770.8124999999999 184.75H229.1875C171.6875 184.75 125 229.3124999999999 125 284.3125V586.25C125 641.25 171.625 685.8125 229.1875 685.8125H274.3125C282.5625 685.8125 290.5625 688.9375 296.375 694.5625z" />
    <glyph glyph-name="caret-down"
      unicode="&#xEA2C;"
      horiz-adv-x="1000" d="M500 343.75L750 656.25H250z" />
    <glyph glyph-name="caret-down-1"
      unicode="&#x31;&#x36;"
      horiz-adv-x="1000" d="M500 343.75L750 656.25H250z" />
    <glyph glyph-name="caret-left"
      unicode="&#xEA2D;"
      horiz-adv-x="1000" d="M343.75 500L656.25 250V750z" />
    <glyph glyph-name="caret-left-1"
      unicode="&#x31;&#x36;"
      horiz-adv-x="1000" d="M343.75 500L656.25 250V750z" />
    <glyph glyph-name="caret-right"
      unicode="&#xEA2E;"
      horiz-adv-x="1000" d="M656.25 500L343.75 750V250z" />
    <glyph glyph-name="caret-right-1"
      unicode="&#x31;&#x36;"
      horiz-adv-x="1000" d="M656.25 500L343.75 750V250z" />
    <glyph glyph-name="caret-sort"
      unicode="&#xEA2F;"
      horiz-adv-x="1000" d="M500 937.5L250 625H750zM500 62.5L750 375H250z" />
    <glyph glyph-name="caret-sort-1"
      unicode="&#x31;&#x36;"
      horiz-adv-x="1000" d="M500 937.5L250 625H750zM500 62.5L750 375H250z" />
    <glyph glyph-name="caret-up"
      unicode="&#xEA30;"
      horiz-adv-x="1000" d="M500 656.25L250 343.75H750z" />
    <glyph glyph-name="caret-up-1"
      unicode="&#x31;&#x36;"
      horiz-adv-x="1000" d="M500 656.25L250 343.75H750z" />
    <glyph glyph-name="cart"
      unicode="&#xEA31;"
      horiz-adv-x="1000" d="M125 843.75A31.25 31.25 0 0 0 156.25 875C214.25 875 263.1875 831.9375 270.625 774.375L322.1875 374.7499999999999A83.3125 83.3125 0 0 1 404.875 302.0624999999999H729.1875A31.25 31.25 0 1 0 729.1875 239.5624999999999H404.8125A145.8125 145.8125 0 0 0 260.1875 366.7499999999999L208.625 766.4374999999999A52.8125 52.8125 0 0 1 156.25 812.5A31.25 31.25 0 0 0 125 843.75M277.75 213.5625A88.5625 88.5625 0 1 0 454.8750000000001 213.5625A88.5625 88.5625 0 0 0 277.7500000000001 213.5625M366.3125000000001 239.5625A26.0625 26.0625 0 1 1 366.3125000000001 187.5A26.0625 26.0625 0 0 1 366.3125000000001 239.5625M621.5 213.5625A88.5625 88.5625 0 1 0 798.625 213.5625A88.5625 88.5625 0 0 0 621.5 213.5625M710.0625 239.5625A26.0625 26.0625 0 1 1 710.0625 187.5A26.0625 26.0625 0 0 1 710.0625 239.5625M239.5625 729.1875A31.25 31.25 0 0 0 270.8125 760.4375H843.75A31.25 31.25 0 0 0 874.25 722.375L797.875 378.625A31.25 31.25 0 0 0 767.375 354.1875H309A31.25 31.25 0 1 0 309 416.6875H742.3124999999999L804.8124999999999 697.9375H270.8125A31.25 31.25 0 0 0 239.5625 729.1875" />
    </font>
</defs>
</svg>
