<svg xmlns="http://www.w3.org/2000/svg"><defs><font id="Persona Icon" horiz-adv-x="1000"><font-face ascent="1000" descent="0" font-family="Persona Icon"/><glyph d="M125 729.188A145.813 145.813 0 0 0 270.813 875h458.375A145.813 145.813 0 0 0 875 729.188V270.813A145.813 145.813 0 0 0 729.188 125H270.813A145.813 145.813 0 0 0 125 270.813zM270.813 812.5c-46 0-83.313-37.312-83.313-83.312V270.813c0-46 37.313-83.313 83.313-83.313h458.375c46 0 83.312 37.313 83.312 83.313v458.375c0 46-37.312 83.312-83.312 83.312zm174.125-224.062a31.25 31.25 0 0 0 22.75-12.375l93-124 108.187 108.25a31.25 31.25 0 0 0 44.188-44.188l-133.688-133.75a31.25 31.25 0 0 0-47.062 3.375l-93 123.938-108.188-108.125a31.25 31.25 0 0 0-44.187 44.125l133.687 133.75a31.25 31.25 0 0 0 24.313 9" glyph-name="activity" horiz-adv-x="1000" unicode=""/><glyph d="M125 729.188A145.813 145.813 0 0 0 270.813 875h458.375A145.813 145.813 0 0 0 875 729.188V270.813A145.813 145.813 0 0 0 729.188 125H270.813A145.813 145.813 0 0 0 125 270.813zM270.813 812.5c-46 0-83.313-37.312-83.313-83.312V270.813c0-46 37.313-83.313 83.313-83.313h458.375c46 0 83.312 37.313 83.312 83.313v458.375c0 46-37.312 83.312-83.312 83.312zm174.125-224.062a31.25 31.25 0 0 0 22.75-12.375l93-124 108.187 108.25a31.25 31.25 0 0 0 44.188-44.188l-133.688-133.75a31.25 31.25 0 0 0-47.062 3.375l-93 123.938-108.188-108.125a31.25 31.25 0 0 0-44.187 44.125l133.687 133.75a31.25 31.25 0 0 0 24.313 9" glyph-name="activity-1" horiz-adv-x="1000" unicode="16"/><glyph d="M500 125a375 375 0 1 0 0 750 375 375 0 0 0 0-750M187.5 500a312.5 312.5 0 1 1 625 0 312.5 312.5 0 0 1-625 0M500 687.5a31.875 31.875 0 0 0 31.875-31.875v-123.75h123.75a31.875 31.875 0 0 0 0-63.75h-123.75v-123.75a31.875 31.875 0 1 0-63.75 0v123.75h-123.75a31.875 31.875 0 1 0 0 63.75h123.75v123.75A31.875 31.875 0 0 0 500 687.5" glyph-name="add-circle" horiz-adv-x="1000" unicode=""/><glyph d="M500 125a375 375 0 1 0 0 750 375 375 0 0 0 0-750M187.5 500a312.5 312.5 0 1 1 625 0 312.5 312.5 0 0 1-625 0M500 687.5a31.875 31.875 0 0 0 31.875-31.875v-123.75h123.75a31.875 31.875 0 0 0 0-63.75h-123.75v-123.75a31.875 31.875 0 1 0-63.75 0v123.75h-123.75a31.875 31.875 0 1 0 0 63.75h123.75v123.75A31.875 31.875 0 0 0 500 687.5" glyph-name="add-circle-1" horiz-adv-x="1000" unicode="16"/><glyph d="M339.375 830.313c-49.375 0-89.375-40-89.375-89.25V258.938c0-49.25 40-89.25 89.25-89.25H500a31.25 31.25 0 1 0 0-62.5H339.375A151.875 151.875 0 0 0 187.5 258.938v482.125a151.875 151.875 0 0 0 151.75 151.75h182.063a111.52 111.52 0 0 0 81.562-35.438L782.5 665a111.67 111.67 0 0 0 30-76.125V460.938a31.25 31.25 0 1 0-62.5 0V589.25H620.625C559 589.25 509 639.25 509 700.875v129.438zM695.5 423.75a31.25 31.25 0 0 0 31.25-31.25v-95.75h95.75a31.25 31.25 0 0 0 0-62.5h-95.75v-95.812a31.25 31.25 0 1 0-62.5 0v95.812h-95.812a31.25 31.25 0 1 0 0 62.5h95.812v95.75a31.25 31.25 0 0 0 31.25 31.25m-124 375.688v-98.563c0-27.125 22-49.125 49.125-49.125h88.75z" glyph-name="add-document" horiz-adv-x="1000" unicode=""/><glyph d="M339.375 830.313c-49.375 0-89.375-40-89.375-89.25V258.938c0-49.25 40-89.25 89.25-89.25H500a31.25 31.25 0 1 0 0-62.5H339.375A151.875 151.875 0 0 0 187.5 258.938v482.125a151.875 151.875 0 0 0 151.75 151.75h182.063a111.52 111.52 0 0 0 81.562-35.438L782.5 665a111.67 111.67 0 0 0 30-76.125V460.938a31.25 31.25 0 1 0-62.5 0V589.25H620.625C559 589.25 509 639.25 509 700.875v129.438zM695.5 423.75a31.25 31.25 0 0 0 31.25-31.25v-95.75h95.75a31.25 31.25 0 0 0 0-62.5h-95.75v-95.812a31.25 31.25 0 1 0-62.5 0v95.812h-95.812a31.25 31.25 0 1 0 0 62.5h95.812v95.75a31.25 31.25 0 0 0 31.25 31.25m-124 375.688v-98.563c0-27.125 22-49.125 49.125-49.125h88.75z" glyph-name="add-document-1" horiz-adv-x="1000" unicode="16"/><glyph d="M187.5 500a31.25 31.25 0 0 0 31.25 31.25h250v250a31.25 31.25 0 0 0 62.5 0v-250h250a31.25 31.25 0 0 0 0-62.5h-250v-250a31.25 31.25 0 0 0-62.5 0v250h-250A31.25 31.25 0 0 0 187.5 500" glyph-name="add-plus" horiz-adv-x="1000" unicode=""/><glyph d="M187.5 500a31.25 31.25 0 0 0 31.25 31.25h250v250a31.25 31.25 0 0 0 62.5 0v-250h250a31.25 31.25 0 0 0 0-62.5h-250v-250a31.25 31.25 0 0 0-62.5 0v250h-250A31.25 31.25 0 0 0 187.5 500" glyph-name="add-plus-1" horiz-adv-x="1000" unicode="16"/><glyph d="M418.75 898a406.25 406.25 0 0 0 478.125-485 31.25 31.25 0 1 0-61.062 13.438 343.75 343.75 0 1 1-210.5-246.5 31.25 31.25 0 1 0 22.812-58.25A406.25 406.25 0 1 0 418.75 898m247.938-200.062a31.25 31.25 0 0 0 31.25-31.25v-250a31.25 31.25 0 1 0-62.5 0v250a31.25 31.25 0 0 0 31.25 31.25M302.063 500a197.938 197.938 0 1 0 395.875 0 197.938 197.938 0 0 0-395.875 0M500 635.438a135.438 135.438 0 1 1 0-270.875 135.438 135.438 0 0 1 0 270.875M836.188 427.5c4.687 22.688 7 45.813 7 57h62.5c0-16.437-2.938-43.937-8.313-69.75-2.687-13-6.25-26.562-10.625-38.562-4.125-11.125-10.312-24.625-20.187-34.5A135.438 135.438 0 0 0 635.438 437.5h62.5a72.938 72.938 0 0 1 124.437-51.562c.25.312 2.563 3.437 5.687 11.875 3.063 8.125 5.813 18.437 8.125 29.687" glyph-name="address" horiz-adv-x="1000" unicode=""/><glyph d="M418.75 898a406.25 406.25 0 0 0 478.125-485 31.25 31.25 0 1 0-61.062 13.438 343.75 343.75 0 1 1-210.5-246.5 31.25 31.25 0 1 0 22.812-58.25A406.25 406.25 0 1 0 418.75 898m247.938-200.062a31.25 31.25 0 0 0 31.25-31.25v-250a31.25 31.25 0 1 0-62.5 0v250a31.25 31.25 0 0 0 31.25 31.25M302.063 500a197.938 197.938 0 1 0 395.875 0 197.938 197.938 0 0 0-395.875 0M500 635.438a135.438 135.438 0 1 1 0-270.875 135.438 135.438 0 0 1 0 270.875M836.188 427.5c4.687 22.688 7 45.813 7 57h62.5c0-16.437-2.938-43.937-8.313-69.75-2.687-13-6.25-26.562-10.625-38.562-4.125-11.125-10.312-24.625-20.187-34.5A135.438 135.438 0 0 0 635.438 437.5h62.5a72.938 72.938 0 0 1 124.437-51.562c.25.312 2.563 3.437 5.687 11.875 3.063 8.125 5.813 18.437 8.125 29.687" glyph-name="address-1" horiz-adv-x="1000" unicode="16"/><glyph d="M319.438 654.563c56.312 0 103.687 39.687 117.5 93.5H906.25a31.875 31.875 0 0 1 31.25 32.375 31.875 31.875 0 0 1-31.25 32.312H436.875c-13.75 53.813-61.062 93.5-117.375 93.5-56.25 0-103.687-39.687-117.5-93.5H93.75a31.875 31.875 0 0 1-31.25-32.312 31.875 31.875 0 0 1 31.25-32.375H202c13.75-53.813 61.125-93.5 117.5-93.5m0 187c32.5 0 58.938-27.25 59.063-60.875v-.5c-.125-33.625-26.563-60.875-59.063-60.875-32.562 0-59 27.375-59 61.125s26.438 61.125 59 61.125m-257-622a31.875 31.875 0 0 0 31.25 32.375h469.375c13.75 53.812 61.125 93.437 117.438 93.437 56.25 0 103.687-39.625 117.5-93.438H906.25c17.25 0 31.25-14.5 31.25-32.375a31.875 31.875 0 0 0-31.25-32.312H798c-13.75-53.875-61.125-93.5-117.5-93.5-56.25 0-103.625 39.625-117.437 93.5H93.75a31.875 31.875 0 0 0-31.25 32.312m677.063.25c-.063 33.625-26.5 60.875-59 60.875-32.625 0-59-27.375-59-61.125s26.375-61.125 59-61.125c32.5 0 58.937 27.313 59 60.938zM93.75 532.375A31.875 31.875 0 0 1 62.5 500a31.875 31.875 0 0 1 31.25-32.375h812.5A31.875 31.875 0 0 1 937.5 500a31.875 31.875 0 0 1-31.25 32.375z" glyph-name="adjust" horiz-adv-x="1000" unicode=""/><glyph d="M319.438 654.563c56.312 0 103.687 39.687 117.5 93.5H906.25a31.875 31.875 0 0 1 31.25 32.375 31.875 31.875 0 0 1-31.25 32.312H436.875c-13.75 53.813-61.062 93.5-117.375 93.5-56.25 0-103.687-39.687-117.5-93.5H93.75a31.875 31.875 0 0 1-31.25-32.312 31.875 31.875 0 0 1 31.25-32.375H202c13.75-53.813 61.125-93.5 117.5-93.5m0 187c32.5 0 58.938-27.25 59.063-60.875v-.5c-.125-33.625-26.563-60.875-59.063-60.875-32.562 0-59 27.375-59 61.125s26.438 61.125 59 61.125m-257-622a31.875 31.875 0 0 0 31.25 32.375h469.375c13.75 53.812 61.125 93.437 117.438 93.437 56.25 0 103.687-39.625 117.5-93.438H906.25c17.25 0 31.25-14.5 31.25-32.375a31.875 31.875 0 0 0-31.25-32.312H798c-13.75-53.875-61.125-93.5-117.5-93.5-56.25 0-103.625 39.625-117.437 93.5H93.75a31.875 31.875 0 0 0-31.25 32.312m677.063.25c-.063 33.625-26.5 60.875-59 60.875-32.625 0-59-27.375-59-61.125s26.375-61.125 59-61.125c32.5 0 58.937 27.313 59 60.938zM93.75 532.375A31.875 31.875 0 0 1 62.5 500a31.875 31.875 0 0 1 31.25-32.375h812.5A31.875 31.875 0 0 1 937.5 500a31.875 31.875 0 0 1-31.25 32.375z" glyph-name="adjust-1" horiz-adv-x="1000" unicode="16"/><glyph d="M938.313 500c0 18-9.5 34.438-28.5 67.313L763.25 821.25c-18.938 32.813-28.437 49.25-44.062 58.25s-34.563 9.063-72.5 9.063H353.375c-37.937 0-56.875 0-72.5-9.063-15.625-9-25.125-25.437-44.125-58.25L90.125 567.313C71.188 534.375 61.688 518 61.688 500c0-18.062 9.5-34.437 28.437-67.312l146.625-254c19-32.813 28.438-49.25 44.063-58.25s34.625-9.063 72.5-9.063h293.312c37.938 0 56.875 0 72.5 9.063 15.625 9 25.125 25.437 44.063 58.25l146.625 254c19 32.875 28.5 49.25 28.5 67.312M500 348.688a151.25 151.25 0 1 0 0 302.5 151.25 151.25 0 0 0 0-302.5M938.313 500c0 18-9.5 34.438-28.5 67.313L763.25 821.25c-18.938 32.813-28.437 49.25-44.062 58.25s-34.563 9.063-72.5 9.063H353.375c-37.937 0-56.875 0-72.5-9.063-15.625-9-25.125-25.437-44.125-58.25L90.125 567.313C71.188 534.375 61.688 518 61.688 500c0-18.062 9.5-34.437 28.437-67.312l146.625-254c19-32.813 28.438-49.25 44.063-58.25s34.625-9.063 72.5-9.063h293.312c37.938 0 56.875 0 72.5 9.063 15.625 9 25.125 25.437 44.063 58.25l146.625 254c19 32.875 28.5 49.25 28.5 67.312M500 348.688a151.25 151.25 0 1 0 0 302.5 151.25 151.25 0 0 0 0-302.5M62.5 500a437.5 437.5 0 0 1 875 0 437.5 437.5 0 0 1-875 0" glyph-name="admin-center-apps" horiz-adv-x="1000" unicode=""/><glyph d="M938.313 500c0 18-9.5 34.438-28.5 67.313L763.25 821.25c-18.938 32.813-28.437 49.25-44.062 58.25s-34.563 9.063-72.5 9.063H353.375c-37.937 0-56.875 0-72.5-9.063-15.625-9-25.125-25.437-44.125-58.25L90.125 567.313C71.188 534.375 61.688 518 61.688 500c0-18.062 9.5-34.437 28.437-67.312l146.625-254c19-32.813 28.438-49.25 44.063-58.25s34.625-9.063 72.5-9.063h293.312c37.938 0 56.875 0 72.5 9.063 15.625 9 25.125 25.437 44.063 58.25l146.625 254c19 32.875 28.5 49.25 28.5 67.312M500 348.688a151.25 151.25 0 1 0 0 302.5 151.25 151.25 0 0 0 0-302.5M938.313 500c0 18-9.5 34.438-28.5 67.313L763.25 821.25c-18.938 32.813-28.437 49.25-44.062 58.25s-34.563 9.063-72.5 9.063H353.375c-37.937 0-56.875 0-72.5-9.063-15.625-9-25.125-25.437-44.125-58.25L90.125 567.313C71.188 534.375 61.688 518 61.688 500c0-18.062 9.5-34.437 28.437-67.312l146.625-254c19-32.813 28.438-49.25 44.063-58.25s34.625-9.063 72.5-9.063h293.312c37.938 0 56.875 0 72.5 9.063 15.625 9 25.125 25.437 44.063 58.25l146.625 254c19 32.875 28.5 49.25 28.5 67.312M500 348.688a151.25 151.25 0 1 0 0 302.5 151.25 151.25 0 0 0 0-302.5M62.5 500a437.5 437.5 0 0 1 875 0 437.5 437.5 0 0 1-875 0" glyph-name="admin-center-apps-1" horiz-adv-x="1000" unicode="16"/><glyph d="M938.313 500c0 18-9.5 34.438-28.5 67.313L763.25 821.25c-18.938 32.813-28.437 49.25-44.062 58.25s-34.563 9.063-72.5 9.063H353.375c-37.937 0-56.875 0-72.5-9.063-15.625-9-25.125-25.437-44.125-58.25L90.125 567.313C71.188 534.375 61.688 518 61.688 500c0-18.062 9.5-34.437 28.437-67.312l146.625-254c19-32.813 28.438-49.25 44.063-58.25s34.625-9.063 72.5-9.063h293.312c37.938 0 56.875 0 72.5 9.063 15.625 9 25.125 25.437 44.063 58.25l146.625 254c19 32.875 28.5 49.25 28.5 67.312M500 348.688a151.25 151.25 0 1 0 0 302.5 151.25 151.25 0 0 0 0-302.5M938.313 500c0 18-9.5 34.438-28.5 67.313L763.25 821.25c-18.938 32.813-28.437 49.25-44.062 58.25s-34.563 9.063-72.5 9.063H353.375c-37.937 0-56.875 0-72.5-9.063-15.625-9-25.125-25.437-44.125-58.25L90.125 567.313C71.188 534.375 61.688 518 61.688 500c0-18.062 9.5-34.437 28.437-67.312l146.625-254c19-32.813 28.438-49.25 44.063-58.25s34.625-9.063 72.5-9.063h293.312c37.938 0 56.875 0 72.5 9.063 15.625 9 25.125 25.437 44.063 58.25l146.625 254c19 32.875 28.5 49.25 28.5 67.312M500 348.688a151.25 151.25 0 1 0 0 302.5 151.25 151.25 0 0 0 0-302.5M62.5 500a437.5 437.5 0 0 1 875 0 437.5 437.5 0 0 1-875 0" glyph-name="admin-center-logo-apps" horiz-adv-x="1000" unicode=""/><glyph d="M938.313 500c0 18-9.5 34.438-28.5 67.313L763.25 821.25c-18.938 32.813-28.437 49.25-44.062 58.25s-34.563 9.063-72.5 9.063H353.375c-37.937 0-56.875 0-72.5-9.063-15.625-9-25.125-25.437-44.125-58.25L90.125 567.313C71.188 534.375 61.688 518 61.688 500c0-18.062 9.5-34.437 28.437-67.312l146.625-254c19-32.813 28.438-49.25 44.063-58.25s34.625-9.063 72.5-9.063h293.312c37.938 0 56.875 0 72.5 9.063 15.625 9 25.125 25.437 44.063 58.25l146.625 254c19 32.875 28.5 49.25 28.5 67.312M500 348.688a151.25 151.25 0 1 0 0 302.5 151.25 151.25 0 0 0 0-302.5M938.313 500c0 18-9.5 34.438-28.5 67.313L763.25 821.25c-18.938 32.813-28.437 49.25-44.062 58.25s-34.563 9.063-72.5 9.063H353.375c-37.937 0-56.875 0-72.5-9.063-15.625-9-25.125-25.437-44.125-58.25L90.125 567.313C71.188 534.375 61.688 518 61.688 500c0-18.062 9.5-34.437 28.437-67.312l146.625-254c19-32.813 28.438-49.25 44.063-58.25s34.625-9.063 72.5-9.063h293.312c37.938 0 56.875 0 72.5 9.063 15.625 9 25.125 25.437 44.063 58.25l146.625 254c19 32.875 28.5 49.25 28.5 67.312M500 348.688a151.25 151.25 0 1 0 0 302.5 151.25 151.25 0 0 0 0-302.5M62.5 500a437.5 437.5 0 0 1 875 0 437.5 437.5 0 0 1-875 0" glyph-name="admin-center-logo-apps-1" horiz-adv-x="1000" unicode="16"/><glyph d="M125 780.375c0 17.75 14.375 32.125 32.125 32.125h685.75a32.125 32.125 0 1 0 0-64.187h-685.75A32.125 32.125 0 0 0 125 780.438m177.125-187.875a31.25 31.25 0 0 0 31.25 31.25h333.313a31.25 31.25 0 1 0 0-62.5H333.375a31.25 31.25 0 0 0-31.25 31.25M125 405.625c0 17.25 14.375 31.25 32.125 31.25h685.75c17.75 0 32.125-14 32.125-31.25s-14.375-31.25-32.125-31.25h-685.75A31.69 31.69 0 0 0 125 405.625M302.125 218.75a31.25 31.25 0 0 0 31.25 31.125h333.313a31.25 31.25 0 1 0 0-62.375H333.375a31.25 31.25 0 0 0-31.25 31.25" glyph-name="align-center" horiz-adv-x="1000" unicode=""/><glyph d="M125 780.375c0 17.75 14.375 32.125 32.125 32.125h685.75a32.125 32.125 0 1 0 0-64.187h-685.75A32.125 32.125 0 0 0 125 780.438m177.125-187.875a31.25 31.25 0 0 0 31.25 31.25h333.313a31.25 31.25 0 1 0 0-62.5H333.375a31.25 31.25 0 0 0-31.25 31.25M125 405.625c0 17.25 14.375 31.25 32.125 31.25h685.75c17.75 0 32.125-14 32.125-31.25s-14.375-31.25-32.125-31.25h-685.75A31.69 31.69 0 0 0 125 405.625M302.125 218.75a31.25 31.25 0 0 0 31.25 31.125h333.313a31.25 31.25 0 1 0 0-62.375H333.375a31.25 31.25 0 0 0-31.25 31.25" glyph-name="align-center-1" horiz-adv-x="1000" unicode="16"/><glyph d="M125 780.375c0 17.75 14.375 32.125 32.125 32.125h685.75a32.125 32.125 0 1 0 0-64.187h-685.75A32.125 32.125 0 0 0 125 780.438m0-187.563c0 17.75 14.375 32.125 32.125 32.125h685.75a32.125 32.125 0 1 0 0-64.187h-685.75A32.125 32.125 0 0 0 125 592.938m0-187.313c0 17.25 14.375 31.25 32.125 31.25h685.75c17.75 0 32.125-14 32.125-31.25s-14.375-31.25-32.125-31.25h-685.75A31.69 31.69 0 0 0 125 405.625m0-187.75c0 17.75 14.375 32.125 32.125 32.125h685.75a32.125 32.125 0 1 0 0-64.187h-685.75A32.125 32.125 0 0 0 125 217.875" glyph-name="align-justify" horiz-adv-x="1000" unicode=""/><glyph d="M125 780.375c0 17.75 14.375 32.125 32.125 32.125h685.75a32.125 32.125 0 1 0 0-64.187h-685.75A32.125 32.125 0 0 0 125 780.438m0-187.563c0 17.75 14.375 32.125 32.125 32.125h685.75a32.125 32.125 0 1 0 0-64.187h-685.75A32.125 32.125 0 0 0 125 592.938m0-187.313c0 17.25 14.375 31.25 32.125 31.25h685.75c17.75 0 32.125-14 32.125-31.25s-14.375-31.25-32.125-31.25h-685.75A31.69 31.69 0 0 0 125 405.625m0-187.75c0 17.75 14.375 32.125 32.125 32.125h685.75a32.125 32.125 0 1 0 0-64.187h-685.75A32.125 32.125 0 0 0 125 217.875" glyph-name="align-justify-1" horiz-adv-x="1000" unicode="16"/><glyph d="M125 780.375c0 17.75 14.375 32.125 32.125 32.125h685.75a32.125 32.125 0 1 0 0-64.187h-685.75A32.125 32.125 0 0 0 125 780.438m0-187.875a31.25 31.25 0 0 0 31.25 31.25h333.313a31.25 31.25 0 1 0 0-62.5H156.25a31.25 31.25 0 0 0-31.25 31.25m0-186.938c0 17.25 14.375 31.25 32.125 31.25h685.75c17.75 0 32.125-14 32.125-31.25s-14.375-31.187-32.125-31.187h-685.75A31.69 31.69 0 0 0 125 405.688m0-186.938a31.25 31.25 0 0 0 31.25 31.188h333.313a31.25 31.25 0 1 0 0-62.438H156.25A31.25 31.25 0 0 0 125 218.75" glyph-name="align-left" horiz-adv-x="1000" unicode=""/><glyph d="M125 780.375c0 17.75 14.375 32.125 32.125 32.125h685.75a32.125 32.125 0 1 0 0-64.187h-685.75A32.125 32.125 0 0 0 125 780.438m0-187.875a31.25 31.25 0 0 0 31.25 31.25h333.313a31.25 31.25 0 1 0 0-62.5H156.25a31.25 31.25 0 0 0-31.25 31.25m0-186.938c0 17.25 14.375 31.25 32.125 31.25h685.75c17.75 0 32.125-14 32.125-31.25s-14.375-31.187-32.125-31.187h-685.75A31.69 31.69 0 0 0 125 405.688m0-186.938a31.25 31.25 0 0 0 31.25 31.188h333.313a31.25 31.25 0 1 0 0-62.438H156.25A31.25 31.25 0 0 0 125 218.75" glyph-name="align-left-1" horiz-adv-x="1000" unicode="16"/><glyph d="M125 780.375c0 17.75 14.375 32.125 32.125 32.125h685.75a32.125 32.125 0 1 0 0-64.187h-685.75A32.125 32.125 0 0 0 125 780.438m354.188-187.875a31.25 31.25 0 0 0 31.25 31.25H843.75a31.25 31.25 0 1 0 0-62.5H510.438a31.25 31.25 0 0 0-31.25 31.25M125 405.625c0 17.25 14.375 31.25 32.125 31.25h685.75c17.75 0 32.125-14 32.125-31.25s-14.375-31.25-32.125-31.25h-685.75A31.69 31.69 0 0 0 125 405.625M479.188 218.75a31.25 31.25 0 0 0 31.25 31.125H843.75a31.25 31.25 0 1 0 0-62.375H510.438a31.25 31.25 0 0 0-31.25 31.25" glyph-name="align-right" horiz-adv-x="1000" unicode=""/><glyph d="M125 780.375c0 17.75 14.375 32.125 32.125 32.125h685.75a32.125 32.125 0 1 0 0-64.187h-685.75A32.125 32.125 0 0 0 125 780.438m354.188-187.875a31.25 31.25 0 0 0 31.25 31.25H843.75a31.25 31.25 0 1 0 0-62.5H510.438a31.25 31.25 0 0 0-31.25 31.25M125 405.625c0 17.25 14.375 31.25 32.125 31.25h685.75c17.75 0 32.125-14 32.125-31.25s-14.375-31.25-32.125-31.25h-685.75A31.69 31.69 0 0 0 125 405.625M479.188 218.75a31.25 31.25 0 0 0 31.25 31.125H843.75a31.25 31.25 0 1 0 0-62.375H510.438a31.25 31.25 0 0 0-31.25 31.25" glyph-name="align-right-1" horiz-adv-x="1000" unicode="16"/><glyph d="M232.625 875a107.625 107.625 0 1 1 50.75-202.562l66.25-66.25A183.13 183.13 0 0 1 316 499.938c0-39.5 12.438-76.125 33.625-106.063l-66.25-66.25a107.625 107.625 0 1 1 44.188-44.188l66.25 66.25c30-21.25 66.624-33.75 106.187-33.75s76.187 12.5 106.125 33.75l66.25-66.25a107.625 107.625 0 1 1 44.188 44.188l-66.25 66.25c21.25 30 33.75 66.563 33.75 106.125 0 39.5-12.5 76.125-33.75 106.125l66.25 66.25a107.625 107.625 0 1 1-44.188 44.188l-66.25-66.25A183.13 183.13 0 0 1 500 684.063c-39.562 0-76.125-12.5-106.125-33.75l-66.25 66.25A107.625 107.625 0 0 1 232.563 875M187.5 767.375a45.125 45.125 0 1 0 90.313 0 45.125 45.125 0 0 0-90.313 0m45.125-489.625a45.125 45.125 0 1 0 0-90.25 45.125 45.125 0 0 0 0 90.25M378.5 500a121.5 121.5 0 1 0 243 0 121.5 121.5 0 0 0-243.062 0m343.75 267.375a45.125 45.125 0 1 0 90.25 0 45.125 45.125 0 0 0-90.25 0m45.125-489.625a45.125 45.125 0 1 0 0-90.25 45.125 45.125 0 0 0 0 90.25" glyph-name="api" horiz-adv-x="1000" unicode=""/><glyph d="M232.625 875a107.625 107.625 0 1 1 50.75-202.562l66.25-66.25A183.13 183.13 0 0 1 316 499.938c0-39.5 12.438-76.125 33.625-106.063l-66.25-66.25a107.625 107.625 0 1 1 44.188-44.188l66.25 66.25c30-21.25 66.624-33.75 106.187-33.75s76.187 12.5 106.125 33.75l66.25-66.25a107.625 107.625 0 1 1 44.188 44.188l-66.25 66.25c21.25 30 33.75 66.563 33.75 106.125 0 39.5-12.5 76.125-33.75 106.125l66.25 66.25a107.625 107.625 0 1 1-44.188 44.188l-66.25-66.25A183.13 183.13 0 0 1 500 684.063c-39.562 0-76.125-12.5-106.125-33.75l-66.25 66.25A107.625 107.625 0 0 1 232.563 875M187.5 767.375a45.125 45.125 0 1 0 90.313 0 45.125 45.125 0 0 0-90.313 0m45.125-489.625a45.125 45.125 0 1 0 0-90.25 45.125 45.125 0 0 0 0 90.25M378.5 500a121.5 121.5 0 1 0 243 0 121.5 121.5 0 0 0-243.062 0m343.75 267.375a45.125 45.125 0 1 0 90.25 0 45.125 45.125 0 0 0-90.25 0m45.125-489.625a45.125 45.125 0 1 0 0-90.25 45.125 45.125 0 0 0 0 90.25" glyph-name="api-1" horiz-adv-x="1000" unicode="16"/><glyph d="M709.625 476.375c.25 28.75 8 56.938 22.5 81.938s35.312 46 60.438 60.937a177.5 177.5 0 0 1-61.25 53.75 181.25 181.25 0 0 1-79.25 21.25c-59.876 6-115.126-34.125-147-34.125s-76.75 33.375-126.688 32.625a193.75 193.75 0 0 1-92.25-26.937c-27.813-16.625-50.813-40-66.625-67.938-67.5-114.75-17.25-285.312 50.25-377.937 30.75-45.375 69.125-96.75 119.812-94.875s67.125 30.75 125.875 30.75 76.75-30.75 126.625-29.626c49.938 1.125 85.25 46.5 117.5 91.875A410 410 0 0 1 812.5 324.937a168.75 168.75 0 0 0-74.625 60.625 162.5 162.5 0 0 0-28.25 90.813m-96.687 279c14.5 16.375 25.562 35.313 32.5 55.875 7 20.5 9.75 42.188 8.125 63.75a171.88 171.88 0 0 1-115.125-57 156.25 156.25 0 0 1-31.25-54.125 153.1 153.1 0 0 1-7.126-61.75 143.75 143.75 0 0 1 62.813 13.75c19.563 9.25 36.688 22.75 50 39.5" glyph-name="apple" horiz-adv-x="1000" unicode=""/><glyph d="M709.625 476.375c.25 28.75 8 56.938 22.5 81.938s35.312 46 60.438 60.937a177.5 177.5 0 0 1-61.25 53.75 181.25 181.25 0 0 1-79.25 21.25c-59.876 6-115.126-34.125-147-34.125s-76.75 33.375-126.688 32.625a193.75 193.75 0 0 1-92.25-26.937c-27.813-16.625-50.813-40-66.625-67.938-67.5-114.75-17.25-285.312 50.25-377.937 30.75-45.375 69.125-96.75 119.812-94.875s67.125 30.75 125.875 30.75 76.75-30.75 126.625-29.626c49.938 1.125 85.25 46.5 117.5 91.875A410 410 0 0 1 812.5 324.937a168.75 168.75 0 0 0-74.625 60.625 162.5 162.5 0 0 0-28.25 90.813m-96.687 279c14.5 16.375 25.562 35.313 32.5 55.875 7 20.5 9.75 42.188 8.125 63.75a171.88 171.88 0 0 1-115.125-57 156.25 156.25 0 0 1-31.25-54.125 153.1 153.1 0 0 1-7.126-61.75 143.75 143.75 0 0 1 62.813 13.75c19.563 9.25 36.688 22.75 50 39.5" glyph-name="apple-1" horiz-adv-x="1000" unicode="16"/><glyph d="M682.25 841.5a112.5 112.5 0 1 0 159.125-159.187L523.063 364a112.5 112.5 0 0 0-116.875-26.625 140 140 0 0 0 4.687-97.75c-14-44.437-50.312-83.187-108-97.063-56.687-13.625-130.375-2.625-220.937 42.688a30.688 30.688 0 0 0 16.624 58c36.876-3.437 50 3.125 54.688 7.125 5 4.125 8.563 11.5 11.75 29.75l1.563 10.062c2.25 15.188 5.312 35.875 12.812 53.438 10.938 25.687 31.313 47.063 67.25 57.438 34.875 10.062 66.438 9.187 92.813-.375a112.5 112.5 0 0 0 24.5 122.5zM341 327.188c-12.687 15-36.5 26.75-77.375 14.875-17.5-5-23.812-13.125-27.812-22.5-4.125-9.625-5.625-19.563-7.688-33.188q-1.125-7.5-2.687-16.687c-3.125-18.438-8.938-44-29.125-63.125 39-10 69.437-9.813 92.187-4.375 36.375 8.75 56.188 31.562 63.875 55.937 8.063 25.5 2.75 52.25-11.375 69.063m457 470.875a51.25 51.25 0 0 1-72.375 0L407.313 479.75a51.188 51.188 0 0 1 72.375-72.25L798 725.813a51.25 51.25 0 0 1 0 72.312" glyph-name="appreance" horiz-adv-x="1000" unicode=""/><glyph d="M682.25 841.5a112.5 112.5 0 1 0 159.125-159.187L523.063 364a112.5 112.5 0 0 0-116.875-26.625 140 140 0 0 0 4.687-97.75c-14-44.437-50.312-83.187-108-97.063-56.687-13.625-130.375-2.625-220.937 42.688a30.688 30.688 0 0 0 16.624 58c36.876-3.437 50 3.125 54.688 7.125 5 4.125 8.563 11.5 11.75 29.75l1.563 10.062c2.25 15.188 5.312 35.875 12.812 53.438 10.938 25.687 31.313 47.063 67.25 57.438 34.875 10.062 66.438 9.187 92.813-.375a112.5 112.5 0 0 0 24.5 122.5zM341 327.188c-12.687 15-36.5 26.75-77.375 14.875-17.5-5-23.812-13.125-27.812-22.5-4.125-9.625-5.625-19.563-7.688-33.188q-1.125-7.5-2.687-16.687c-3.125-18.438-8.938-44-29.125-63.125 39-10 69.437-9.813 92.187-4.375 36.375 8.75 56.188 31.562 63.875 55.937 8.063 25.5 2.75 52.25-11.375 69.063m457 470.875a51.25 51.25 0 0 1-72.375 0L407.313 479.75a51.188 51.188 0 0 1 72.375-72.25L798 725.813a51.25 51.25 0 0 1 0 72.312" glyph-name="appreance-1" horiz-adv-x="1000" unicode="16"/><glyph d="M545.125 805.563c0 38.375 31.125 69.437 69.438 69.437h191C843.938 875 875 843.875 875 805.563v-191c0-38.313-31.125-69.375-69.437-69.375h-191a69.375 69.375 0 0 0-69.375 69.375zm69.438 6.937a6.875 6.875 0 0 1-6.875-6.937v-191a6.855 6.855 0 0 1 6.875-6.875h191c3.812 0 6.937 3.062 6.937 6.875v191.062a6.875 6.875 0 0 1-6.937 6.875zM125 385.438c0 38.312 31.125 69.375 69.438 69.375h191c38.312 0 69.375-31.063 69.375-69.375v-191c0-38.375-31.063-69.438-69.375-69.438H194.375A69.375 69.375 0 0 0 125 194.438zm69.438 6.875a6.875 6.875 0 0 1-6.938-6.875v-191c0-3.813 3.125-6.938 6.938-6.938h191c3.812 0 6.875 3.125 6.875 6.938v191a6.875 6.875 0 0 1-6.875 6.875zm350.687-6.875c0 38.312 31.125 69.375 69.438 69.375h191c38.375 0 69.437-31.063 69.437-69.375v-191C875 156.063 843.875 125 805.563 125h-191a69.375 69.375 0 0 0-69.375 69.438zm69.438 6.875a6.875 6.875 0 0 1-6.875-6.875v-191c0-3.813 3.062-6.938 6.875-6.938h191c3.812 0 6.937 3.125 6.937 6.938v191a6.875 6.875 0 0 1-6.937 6.875zM289.938 875a31.25 31.25 0 0 0 31.25-31.25V576.375a31.25 31.25 0 0 0-62.5 0V843.75a31.25 31.25 0 0 0 31.25 31.25m164.937-164.937a31.25 31.25 0 0 0-31.25-31.25H156.25a31.25 31.25 0 0 0 0 62.5h267.375a31.25 31.25 0 0 0 31.25-31.25" glyph-name="apps" horiz-adv-x="1000" unicode=""/><glyph d="M545.125 805.563c0 38.375 31.125 69.437 69.438 69.437h191C843.938 875 875 843.875 875 805.563v-191c0-38.313-31.125-69.375-69.437-69.375h-191a69.375 69.375 0 0 0-69.375 69.375zm69.438 6.937a6.875 6.875 0 0 1-6.875-6.937v-191a6.855 6.855 0 0 1 6.875-6.875h191c3.812 0 6.937 3.062 6.937 6.875v191.062a6.875 6.875 0 0 1-6.937 6.875zM125 385.438c0 38.312 31.125 69.375 69.438 69.375h191c38.312 0 69.375-31.063 69.375-69.375v-191c0-38.375-31.063-69.438-69.375-69.438H194.375A69.375 69.375 0 0 0 125 194.438zm69.438 6.875a6.875 6.875 0 0 1-6.938-6.875v-191c0-3.813 3.125-6.938 6.938-6.938h191c3.812 0 6.875 3.125 6.875 6.938v191a6.875 6.875 0 0 1-6.875 6.875zm350.687-6.875c0 38.312 31.125 69.375 69.438 69.375h191c38.375 0 69.437-31.063 69.437-69.375v-191C875 156.063 843.875 125 805.563 125h-191a69.375 69.375 0 0 0-69.375 69.438zm69.438 6.875a6.875 6.875 0 0 1-6.875-6.875v-191c0-3.813 3.062-6.938 6.875-6.938h191c3.812 0 6.937 3.125 6.937 6.938v191a6.875 6.875 0 0 1-6.937 6.875zM289.938 875a31.25 31.25 0 0 0 31.25-31.25V576.375a31.25 31.25 0 0 0-62.5 0V843.75a31.25 31.25 0 0 0 31.25 31.25m164.937-164.937a31.25 31.25 0 0 0-31.25-31.25H156.25a31.25 31.25 0 0 0 0 62.5h267.375a31.25 31.25 0 0 0 31.25-31.25" glyph-name="apps-1" horiz-adv-x="1000" unicode="16"/><glyph d="M414.313 532.125a32.125 32.125 0 1 1 0-64.25h171.312a32.125 32.125 0 1 1 0 64.25zM125 671.438c0-30.688 18.438-57.063 44.813-68.688q-1.875-8.25-1.938-17.062V200a75 75 0 0 1 75-75h514.25a75 75 0 0 1 75 75v385.688q0 8.812-1.875 17.062A75 75 0 0 1 875 671.438V800a75 75 0 0 1-75 75H200a75 75 0 0 1-75-75zm75-10.75a10.625 10.625 0 0 0-10.687 10.75V800c0 5.938 4.75 10.688 10.687 10.688h600c5.938 0 10.688-4.75 10.688-10.688V671.438A10.625 10.625 0 0 0 800 660.688zm32.125-75c0 5.937 4.813 10.75 10.75 10.75h514.25c5.938 0 10.75-4.813 10.75-10.75V200a10.625 10.625 0 0 0-10.75-10.687h-514.25A10.625 10.625 0 0 0 232.125 200z" glyph-name="archive-box" horiz-adv-x="1000" unicode=""/><glyph d="M414.313 532.125a32.125 32.125 0 1 1 0-64.25h171.312a32.125 32.125 0 1 1 0 64.25zM125 671.438c0-30.688 18.438-57.063 44.813-68.688q-1.875-8.25-1.938-17.062V200a75 75 0 0 1 75-75h514.25a75 75 0 0 1 75 75v385.688q0 8.812-1.875 17.062A75 75 0 0 1 875 671.438V800a75 75 0 0 1-75 75H200a75 75 0 0 1-75-75zm75-10.75a10.625 10.625 0 0 0-10.687 10.75V800c0 5.938 4.75 10.688 10.687 10.688h600c5.938 0 10.688-4.75 10.688-10.688V671.438A10.625 10.625 0 0 0 800 660.688zm32.125-75c0 5.937 4.813 10.75 10.75 10.75h514.25c5.938 0 10.75-4.813 10.75-10.75V200a10.625 10.625 0 0 0-10.75-10.687h-514.25A10.625 10.625 0 0 0 232.125 200z" glyph-name="archive-box-1" horiz-adv-x="1000" unicode="16"/><glyph d="M500 875a375 375 0 1 0 0-750 375 375 0 0 0 0 750m312.5-375a312.5 312.5 0 1 1-625 0 312.5 312.5 0 0 1 625 0m-166.062-16.375c13.125-12.5 13.125-32.625 0-45L523.75 321.75a34.75 34.75 0 0 0-47.375 0L353.563 438.563a30.625 30.625 0 0 0 0 45 34.75 34.75 0 0 0 47.375 0l65.625-62.375v234.5c0 17.5 15 31.812 33.437 31.812s33.5-14.25 33.5-31.875V421.25l65.625 62.375a34.75 34.75 0 0 0 47.313 0" glyph-name="arrow-circle-down" horiz-adv-x="1000" unicode=""/><glyph d="M500 875a375 375 0 1 0 0-750 375 375 0 0 0 0 750m312.5-375a312.5 312.5 0 1 1-625 0 312.5 312.5 0 0 1 625 0m-166.062-16.375c13.125-12.5 13.125-32.625 0-45L523.75 321.75a34.75 34.75 0 0 0-47.375 0L353.563 438.563a30.625 30.625 0 0 0 0 45 34.75 34.75 0 0 0 47.375 0l65.625-62.375v234.5c0 17.5 15 31.812 33.437 31.812s33.5-14.25 33.5-31.875V421.25l65.625 62.375a34.75 34.75 0 0 0 47.313 0" glyph-name="arrow-circle-down-1" horiz-adv-x="1000" unicode="16"/><glyph d="M875 500a375 375 0 1 0-750 0 375 375 0 0 0 750 0M500 187.5a312.5 312.5 0 1 1 0 625 312.5 312.5 0 0 1 0-625m-16.375 166.063a30.625 30.625 0 0 0-45 0L321.75 476.25a34.75 34.75 0 0 0 0 47.375l116.75 122.75a30.625 30.625 0 0 0 45 0 34.75 34.75 0 0 0 0-47.375l-62.375-65.625h234.5c17.5 0 31.812-15 31.812-33.438a32.69 32.69 0 0 0-31.875-33.5H421.25l62.375-65.625a34.75 34.75 0 0 0 0-47.312" glyph-name="arrow-circle-left" horiz-adv-x="1000" unicode=""/><glyph d="M875 500a375 375 0 1 0-750 0 375 375 0 0 0 750 0M500 187.5a312.5 312.5 0 1 1 0 625 312.5 312.5 0 0 1 0-625m-16.375 166.063a30.625 30.625 0 0 0-45 0L321.75 476.25a34.75 34.75 0 0 0 0 47.375l116.75 122.75a30.625 30.625 0 0 0 45 0 34.75 34.75 0 0 0 0-47.375l-62.375-65.625h234.5c17.5 0 31.812-15 31.812-33.438a32.69 32.69 0 0 0-31.875-33.5H421.25l62.375-65.625a34.75 34.75 0 0 0 0-47.312" glyph-name="arrow-circle-left-1" horiz-adv-x="1000" unicode="16"/><glyph d="M125 500a375 375 0 1 0 750 0 375 375 0 0 0-750 0m375 312.5a312.5 312.5 0 1 1 0-625 312.5 312.5 0 0 1 0 625m16.125-175.812a31.25 31.25 0 0 1 0-44.188l61.25-61.25H347.188a31.25 31.25 0 1 1 0-62.5H577.25L516 407.5a31.25 31.25 0 1 1 44.25-44.188l114.563 114.563a31.25 31.25 0 0 1 0 44.188l-114.5 114.625a31.25 31.25 0 0 1-44.188 0" glyph-name="arrow-circle-right" horiz-adv-x="1000" unicode=""/><glyph d="M125 500a375 375 0 1 0 750 0 375 375 0 0 0-750 0m375 312.5a312.5 312.5 0 1 1 0-625 312.5 312.5 0 0 1 0 625m16.125-175.812a31.25 31.25 0 0 1 0-44.188l61.25-61.25H347.188a31.25 31.25 0 1 1 0-62.5H577.25L516 407.5a31.25 31.25 0 1 1 44.25-44.188l114.563 114.563a31.25 31.25 0 0 1 0 44.188l-114.5 114.625a31.25 31.25 0 0 1-44.188 0" glyph-name="arrow-circle-right-1" horiz-adv-x="1000" unicode="16"/><glyph d="M500 125a375 375 0 1 0 0 750 375 375 0 0 0 0-750M187.5 500a312.5 312.5 0 1 1 625 0 312.5 312.5 0 0 1-625 0m166.063 16.375a30.625 30.625 0 0 0 0 45L476.25 678.25a34.69 34.69 0 0 0 47.375 0l122.75-116.75c13.125-12.437 13.125-32.625 0-45a34.69 34.69 0 0 0-47.375 0l-65.625 62.375v-234.5c0-17.5-15-31.812-33.438-31.812a32.69 32.69 0 0 0-33.5 31.875V578.75l-65.625-62.312a34.69 34.69 0 0 0-47.312 0" glyph-name="arrow-circle-up" horiz-adv-x="1000" unicode=""/><glyph d="M500 125a375 375 0 1 0 0 750 375 375 0 0 0 0-750M187.5 500a312.5 312.5 0 1 1 625 0 312.5 312.5 0 0 1-625 0m166.063 16.375a30.625 30.625 0 0 0 0 45L476.25 678.25a34.69 34.69 0 0 0 47.375 0l122.75-116.75c13.125-12.437 13.125-32.625 0-45a34.69 34.69 0 0 0-47.375 0l-65.625 62.375v-234.5c0-17.5-15-31.812-33.438-31.812a32.69 32.69 0 0 0-33.5 31.875V578.75l-65.625-62.312a34.69 34.69 0 0 0-47.312 0" glyph-name="arrow-circle-up-1" horiz-adv-x="1000" unicode="16"/><glyph d="M836 475.813a27.75 27.75 0 0 0-.75-39.188l-316-303.875a27.813 27.813 0 0 0-38.5 0l-316 303.875a27.75 27.75 0 1 0 38.563 40L472.25 218v629.25a27.75 27.75 0 0 0 55.5 0V218l268.938 258.625a27.813 27.813 0 0 0 39.312-.75" glyph-name="arrow-down" horiz-adv-x="1000" unicode=""/><glyph d="M836 475.813a27.75 27.75 0 0 0-.75-39.188l-316-303.875a27.813 27.813 0 0 0-38.5 0l-316 303.875a27.75 27.75 0 1 0 38.563 40L472.25 218v629.25a27.75 27.75 0 0 0 55.5 0V218l268.938 258.625a27.813 27.813 0 0 0 39.312-.75" glyph-name="arrow-down-1" horiz-adv-x="1000" unicode="16"/><glyph d="M475.813 164a27.75 27.75 0 0 0-39.188.75l-303.875 316a27.813 27.813 0 0 0 0 38.5l303.875 316a27.75 27.75 0 1 0 40-38.562L217.938 527.75h629.25a27.75 27.75 0 0 0 0-55.5H218l258.563-268.937a27.813 27.813 0 0 0-.75-39.313" glyph-name="arrow-left" horiz-adv-x="1000" unicode=""/><glyph d="M475.813 164a27.75 27.75 0 0 0-39.188.75l-303.875 316a27.813 27.813 0 0 0 0 38.5l303.875 316a27.75 27.75 0 1 0 40-38.562L217.938 527.75h629.25a27.75 27.75 0 0 0 0-55.5H218l258.563-268.937a27.813 27.813 0 0 0-.75-39.313" glyph-name="arrow-left-1" horiz-adv-x="1000" unicode="16"/><glyph d="M524.188 836a27.75 27.75 0 0 0 39.187-.75l303.875-316a27.813 27.813 0 0 0 0-38.5l-303.875-316a27.75 27.75 0 1 0-40 38.563L782 472.25H152.75a27.75 27.75 0 0 0 0 55.5H782L523.438 796.688a27.813 27.813 0 0 0 .75 39.312" glyph-name="arrow-right" horiz-adv-x="1000" unicode=""/><glyph d="M524.188 836a27.75 27.75 0 0 0 39.187-.75l303.875-316a27.813 27.813 0 0 0 0-38.5l-303.875-316a27.75 27.75 0 1 0-40 38.563L782 472.25H152.75a27.75 27.75 0 0 0 0 55.5H782L523.438 796.688a27.813 27.813 0 0 0 .75 39.312" glyph-name="arrow-right-1" horiz-adv-x="1000" unicode="16"/><glyph d="M164 524.188a27.75 27.75 0 0 0 .75 39.187l316 303.875a27.813 27.813 0 0 0 38.5 0l316-303.875a27.75 27.75 0 1 0-38.562-40L527.75 782.063v-629.25a27.75 27.75 0 0 0-55.5 0V782L203.313 523.438a27.813 27.813 0 0 0-39.313.75" glyph-name="arrow-up" horiz-adv-x="1000" unicode=""/><glyph d="M164 524.188a27.75 27.75 0 0 0 .75 39.187l316 303.875a27.813 27.813 0 0 0 38.5 0l316-303.875a27.75 27.75 0 1 0-38.562-40L527.75 782.063v-629.25a27.75 27.75 0 0 0-55.5 0V782L203.313 523.438a27.813 27.813 0 0 0-39.313.75" glyph-name="arrow-up-1" horiz-adv-x="1000" unicode="16"/><glyph d="M567.063 883.75a31.5 31.5 0 0 1-44.5 44.563l-87-87a31.5 31.5 0 0 1 0-44.5l86.937-87.125A31.5 31.5 0 0 1 567 754.25l-41.25 41.25A296.88 296.88 0 0 0 754.063 653 31.5 31.5 0 0 1 808 685.5a359.38 359.38 0 0 1-267.5 171.75zm86.562-637.5a31.5 31.5 0 0 1 32.625-53.875 359.38 359.38 0 0 1 171.063 266.938l26.437-26.375a31.5 31.5 0 0 1 44.5 44.5l-79.125 79.125-1.125 1.125-6.75 6.75a31.5 31.5 0 0 1-44.5 0l-87-86.938a31.5 31.5 0 0 1 44.5-44.5l41.25 41.25a296.88 296.88 0 0 0-141.875-227.937m-280-14.688a296.9 296.9 0 0 0-124.375 109.75 31.5 31.5 0 1 1-53.125-33.687 359.38 359.38 0 0 1 268.063-165.563l-26-25.937a31.5 31.5 0 0 1 44.562-44.5l77.813 77.812a31.3 31.3 0 0 1 5.687 5.688l3.5 3.5a31.5 31.5 0 0 1 0 44.5l-87 87.062a31.5 31.5 0 0 1-44.563-44.562L479.875 204a300 300 0 0 0-106.25 27.625m-141.437 396A296.54 296.54 0 0 0 342.5 751.375a31.5 31.5 0 1 1-33.437 53.375 359.38 359.38 0 0 1-166.875-268.875l-25.938 26a31.5 31.5 0 0 1-44.562-44.5l87.062-87.125a31.5 31.5 0 0 1 44.5 0l87 87.063a31.5 31.5 0 0 1-44.5 44.5L204 520.063c2.5 37.125 12 73.625 28.125 107.5" glyph-name="background-process" horiz-adv-x="1000" unicode=""/><glyph d="M567.063 883.75a31.5 31.5 0 0 1-44.5 44.563l-87-87a31.5 31.5 0 0 1 0-44.5l86.937-87.125A31.5 31.5 0 0 1 567 754.25l-41.25 41.25A296.88 296.88 0 0 0 754.063 653 31.5 31.5 0 0 1 808 685.5a359.38 359.38 0 0 1-267.5 171.75zm86.562-637.5a31.5 31.5 0 0 1 32.625-53.875 359.38 359.38 0 0 1 171.063 266.938l26.437-26.375a31.5 31.5 0 0 1 44.5 44.5l-79.125 79.125-1.125 1.125-6.75 6.75a31.5 31.5 0 0 1-44.5 0l-87-86.938a31.5 31.5 0 0 1 44.5-44.5l41.25 41.25a296.88 296.88 0 0 0-141.875-227.937m-280-14.688a296.9 296.9 0 0 0-124.375 109.75 31.5 31.5 0 1 1-53.125-33.687 359.38 359.38 0 0 1 268.063-165.563l-26-25.937a31.5 31.5 0 0 1 44.562-44.5l77.813 77.812a31.3 31.3 0 0 1 5.687 5.688l3.5 3.5a31.5 31.5 0 0 1 0 44.5l-87 87.062a31.5 31.5 0 0 1-44.563-44.562L479.875 204a300 300 0 0 0-106.25 27.625m-141.437 396A296.54 296.54 0 0 0 342.5 751.375a31.5 31.5 0 1 1-33.437 53.375 359.38 359.38 0 0 1-166.875-268.875l-25.938 26a31.5 31.5 0 0 1-44.562-44.5l87.062-87.125a31.5 31.5 0 0 1 44.5 0l87 87.063a31.5 31.5 0 0 1-44.5 44.5L204 520.063c2.5 37.125 12 73.625 28.125 107.5" glyph-name="background-process-1" horiz-adv-x="1000" unicode="16"/><glyph d="M531.25 587.625v80a89.188 89.188 0 0 1-133.75 77.25L107.125 577.25a89.25 89.25 0 0 1 0-154.5l290.313-167.687a89.188 89.188 0 0 1 133.812 77.312v80l272.438-157.312A89.188 89.188 0 0 1 937.5 332.375v335.25a89.188 89.188 0 0 1-133.812 77.25zm-62.5 80v-335.25c0-20.625-22.25-33.437-40.062-23.125L138.375 476.875a26.75 26.75 0 0 0 0 46.25L428.688 690.75a26.688 26.688 0 0 0 40.062-23.125m62.5-168.25v1.25a26.25 26.25 0 0 0 13.375 22.5L834.938 690.75A26.688 26.688 0 0 0 875 667.625v-335.25c0-20.625-22.25-33.437-40.062-23.125L544.625 476.875a26.25 26.25 0 0 0-13.375 22.5" glyph-name="backward" horiz-adv-x="1000" unicode=""/><glyph d="M531.25 587.625v80a89.188 89.188 0 0 1-133.75 77.25L107.125 577.25a89.25 89.25 0 0 1 0-154.5l290.313-167.687a89.188 89.188 0 0 1 133.812 77.312v80l272.438-157.312A89.188 89.188 0 0 1 937.5 332.375v335.25a89.188 89.188 0 0 1-133.812 77.25zm-62.5 80v-335.25c0-20.625-22.25-33.437-40.062-23.125L138.375 476.875a26.75 26.75 0 0 0 0 46.25L428.688 690.75a26.688 26.688 0 0 0 40.062-23.125m62.5-168.25v1.25a26.25 26.25 0 0 0 13.375 22.5L834.938 690.75A26.688 26.688 0 0 0 875 667.625v-335.25c0-20.625-22.25-33.437-40.062-23.125L544.625 476.875a26.25 26.25 0 0 0-13.375 22.5" glyph-name="backward-1" horiz-adv-x="1000" unicode="16"/><glyph d="M125 500a375 375 0 1 1 750 0 375 375 0 0 1-750 0m375-312.5a312.5 312.5 0 0 0-241.937 510.25L697.75 258.063A311.25 311.25 0 0 0 500 187.5m241.938 114.75L302.25 741.875A312.5 312.5 0 0 0 742 302.125" glyph-name="banned-circle" horiz-adv-x="1000" unicode=""/><glyph d="M125 500a375 375 0 1 1 750 0 375 375 0 0 1-750 0m375-312.5a312.5 312.5 0 0 0-241.937 510.25L697.75 258.063A311.25 311.25 0 0 0 500 187.5m241.938 114.75L302.25 741.875A312.5 312.5 0 0 0 742 302.125" glyph-name="banned-circle-1" horiz-adv-x="1000" unicode="16"/><glyph d="M843.75 500a343.75 343.75 0 0 1-551.437 273.938l481.625-481.625A342.5 342.5 0 0 1 843.75 500M707.688 226.063 226.063 707.688a343.75 343.75 0 0 1 481.625-481.625" glyph-name="banned-solid" horiz-adv-x="1000" unicode=""/><glyph d="M843.75 500a343.75 343.75 0 0 1-551.437 273.938l481.625-481.625A342.5 342.5 0 0 1 843.75 500M707.688 226.063 226.063 707.688a343.75 343.75 0 0 1 481.625-481.625" glyph-name="banned-solid-1" horiz-adv-x="1000" unicode="16"/><glyph d="M156.25 875a31.25 31.25 0 0 0 31.25-31.25V187.5h656.25a31.25 31.25 0 0 0 0-62.5h-687.5A31.25 31.25 0 0 0 125 156.25v687.5A31.25 31.25 0 0 0 156.25 875m121.5-375c0 38.375 31.125 69.438 69.5 69.438h76.375C461.938 569.438 493 538.375 493 500V156.25A31.25 31.25 0 0 0 461.75 125H309.063a31.25 31.25 0 0 0-31.25 31.25zm69.5 6.938a6.875 6.875 0 0 1-7-6.938V187.5h90.375V500a6.875 6.875 0 0 1-6.937 6.938zm236.063 222.25c0 38.312 31.125 69.375 69.437 69.375h76.438c38.312 0 69.375-31.063 69.375-69.375V156.25a31.25 31.25 0 0 0-31.25-31.25H614.625a31.25 31.25 0 0 0-31.25 31.25zm69.437 6.875a6.875 6.875 0 0 1-6.875-6.875V187.5h90.25v541.688a6.875 6.875 0 0 1-6.937 6.875z" glyph-name="bar-graph" horiz-adv-x="1000" unicode=""/><glyph d="M156.25 875a31.25 31.25 0 0 0 31.25-31.25V187.5h656.25a31.25 31.25 0 0 0 0-62.5h-687.5A31.25 31.25 0 0 0 125 156.25v687.5A31.25 31.25 0 0 0 156.25 875m121.5-375c0 38.375 31.125 69.438 69.5 69.438h76.375C461.938 569.438 493 538.375 493 500V156.25A31.25 31.25 0 0 0 461.75 125H309.063a31.25 31.25 0 0 0-31.25 31.25zm69.5 6.938a6.875 6.875 0 0 1-7-6.938V187.5h90.375V500a6.875 6.875 0 0 1-6.937 6.938zm236.063 222.25c0 38.312 31.125 69.375 69.437 69.375h76.438c38.312 0 69.375-31.063 69.375-69.375V156.25a31.25 31.25 0 0 0-31.25-31.25H614.625a31.25 31.25 0 0 0-31.25 31.25zm69.437 6.875a6.875 6.875 0 0 1-6.875-6.875V187.5h90.25v541.688a6.875 6.875 0 0 1-6.937 6.875z" glyph-name="bar-graph-1" horiz-adv-x="1000" unicode="16"/><glyph d="M781.25 250A31.25 31.25 0 0 1 750 281.25H406.25a31.25 31.25 0 0 1 0-62.5H750A31.25 31.25 0 0 1 781.25 250M750 468.75a31.25 31.25 0 0 1 0 62.5H406.25a31.25 31.25 0 0 1 0-62.5zM781.25 375A31.25 31.25 0 0 0 750 343.75H406.25a31.25 31.25 0 0 0 0 62.5H750A31.25 31.25 0 0 0 781.25 375m-375 406.25A31.25 31.25 0 0 1 375 750V625a31.25 31.25 0 0 1 31.25-31.25H750A31.25 31.25 0 0 1 781.25 625v125A31.25 31.25 0 0 1 750 781.25zm31.25-125v62.5h281.25v-62.5zM229.188 937.5A166.69 166.69 0 0 1 62.5 770.813V229.188A166.69 166.69 0 0 1 229.188 62.5h541.625A166.69 166.69 0 0 1 937.5 229.188v541.625A166.69 166.69 0 0 1 770.813 937.5zm-10.438-63v-749A104.19 104.19 0 0 0 125 229.188v541.625c0 54.062 41.125 98.437 93.75 103.687m62.5-749.5v750h489.563C828.313 875 875 828.375 875 770.813V229.188C875 171.688 828.375 125 770.813 125z" glyph-name="blog" horiz-adv-x="1000" unicode=""/><glyph d="M781.25 250A31.25 31.25 0 0 1 750 281.25H406.25a31.25 31.25 0 0 1 0-62.5H750A31.25 31.25 0 0 1 781.25 250M750 468.75a31.25 31.25 0 0 1 0 62.5H406.25a31.25 31.25 0 0 1 0-62.5zM781.25 375A31.25 31.25 0 0 0 750 343.75H406.25a31.25 31.25 0 0 0 0 62.5H750A31.25 31.25 0 0 0 781.25 375m-375 406.25A31.25 31.25 0 0 1 375 750V625a31.25 31.25 0 0 1 31.25-31.25H750A31.25 31.25 0 0 1 781.25 625v125A31.25 31.25 0 0 1 750 781.25zm31.25-125v62.5h281.25v-62.5zM229.188 937.5A166.69 166.69 0 0 1 62.5 770.813V229.188A166.69 166.69 0 0 1 229.188 62.5h541.625A166.69 166.69 0 0 1 937.5 229.188v541.625A166.69 166.69 0 0 1 770.813 937.5zm-10.438-63v-749A104.19 104.19 0 0 0 125 229.188v541.625c0 54.062 41.125 98.437 93.75 103.687m62.5-749.5v750h489.563C828.313 875 875 828.375 875 770.813V229.188C875 171.688 828.375 125 770.813 125z" glyph-name="blog-1" horiz-adv-x="1000" unicode="16"/><glyph d="M482.5 932.063a30.625 30.625 0 0 0 35 0c68.75-47.5 159.875-135.125 228.25-243.125C814 581.125 862.125 448.75 837 313.688l-.25-1.25c-25.187-110.625-84.625-174.563-151.875-209.75C619 68.313 548.125 62.5 500 62.5s-119.062 5.75-184.812 40.188c-67.313 35.187-126.75 99.125-151.875 209.75l-.313 1.25c-25.125 135.062 23 267.437 91.25 375.25 68.375 107.937 159.5 195.625 228.25 243.125m-258.75-606.25C244.813 233.75 292.375 185 343.625 158.188 396.5 130.5 455.75 125 500 125s103.5 5.5 156.375 33.125c51.25 26.875 98.812 75.625 119.938 167.688 20.812 113-18.938 228.687-82.688 329.437-58 91.625-133.687 167.375-193.625 212.563-59.937-45.188-135.625-120.938-193.625-212.5-63.75-100.813-103.437-216.5-82.687-329.5M500 531.25c17.063 0 30.938-14 30.938-31.25V251.75c0-17.25-13.875-31.25-30.938-31.25a31.063 31.063 0 0 0-30.938 31.25V500c0 17.25 13.875 31.25 30.938 31.25m153.813-155.375c0-17.25-13.875-31.25-30.938-31.25h-245.75a31.063 31.063 0 0 0-30.937 31.25c0 17.25 13.812 31.25 30.937 31.25h245.75c17.125 0 30.937-14 30.937-31.25" glyph-name="blood-drop" horiz-adv-x="1000" unicode=""/><glyph d="M482.5 932.063a30.625 30.625 0 0 0 35 0c68.75-47.5 159.875-135.125 228.25-243.125C814 581.125 862.125 448.75 837 313.688l-.25-1.25c-25.187-110.625-84.625-174.563-151.875-209.75C619 68.313 548.125 62.5 500 62.5s-119.062 5.75-184.812 40.188c-67.313 35.187-126.75 99.125-151.875 209.75l-.313 1.25c-25.125 135.062 23 267.437 91.25 375.25 68.375 107.937 159.5 195.625 228.25 243.125m-258.75-606.25C244.813 233.75 292.375 185 343.625 158.188 396.5 130.5 455.75 125 500 125s103.5 5.5 156.375 33.125c51.25 26.875 98.812 75.625 119.938 167.688 20.812 113-18.938 228.687-82.688 329.437-58 91.625-133.687 167.375-193.625 212.563-59.937-45.188-135.625-120.938-193.625-212.5-63.75-100.813-103.437-216.5-82.687-329.5M500 531.25c17.063 0 30.938-14 30.938-31.25V251.75c0-17.25-13.875-31.25-30.938-31.25a31.063 31.063 0 0 0-30.938 31.25V500c0 17.25 13.875 31.25 30.938 31.25m153.813-155.375c0-17.25-13.875-31.25-30.938-31.25h-245.75a31.063 31.063 0 0 0-30.937 31.25c0 17.25 13.812 31.25 30.937 31.25h245.75c17.125 0 30.937-14 30.937-31.25" glyph-name="blood-drop-1" horiz-adv-x="1000" unicode="16"/><glyph d="M307.688 812.5A58.125 58.125 0 0 1 250 753.875v-507.75a58.125 58.125 0 0 1 57.688-58.625h250C663.938 187.5 750 275 750 382.813c0 73-39.375 136.625-97.812 170.125 13.312 24.937 20.875 53.437 20.875 83.75C673.125 733.813 595.625 812.5 500 812.5zM500 578.125H365.375v117.188H500c31.875 0 57.688-26.25 57.688-58.625A58.125 58.125 0 0 0 500 578.125M365.375 460.938h192.313c42.5 0 76.875-35 76.875-78.125s-34.375-78.125-76.875-78.125H365.375z" glyph-name="bold" horiz-adv-x="1000" unicode=""/><glyph d="M307.688 812.5A58.125 58.125 0 0 1 250 753.875v-507.75a58.125 58.125 0 0 1 57.688-58.625h250C663.938 187.5 750 275 750 382.813c0 73-39.375 136.625-97.812 170.125 13.312 24.937 20.875 53.437 20.875 83.75C673.125 733.813 595.625 812.5 500 812.5zM500 578.125H365.375v117.188H500c31.875 0 57.688-26.25 57.688-58.625A58.125 58.125 0 0 0 500 578.125M365.375 460.938h192.313c42.5 0 76.875-35 76.875-78.125s-34.375-78.125-76.875-78.125H365.375z" glyph-name="bold-1" horiz-adv-x="1000" unicode="16"/><glyph d="M187.5 770.813c0 92.062 77.188 166.687 172.438 166.687h280.125c95.25 0 172.437-74.625 172.437-166.687V93.75a31.25 31.25 0 0 0-17.062-27.5 33.13 33.13 0 0 0-33.188 1.5L500 236.75l-262.25-169a33.13 33.13 0 0 0-33.125-1.562A31.25 31.25 0 0 0 187.5 93.75zM359.938 875c-59.563 0-107.75-46.625-107.75-104.187V152.125L482.063 300.25a33.13 33.13 0 0 0 35.875 0l229.875-148.125v618.75c0 57.5-48.188 104.125-107.75 104.125z" glyph-name="bookmark" horiz-adv-x="1000" unicode=""/><glyph d="M187.5 770.813c0 92.062 77.188 166.687 172.438 166.687h280.125c95.25 0 172.437-74.625 172.437-166.687V93.75a31.25 31.25 0 0 0-17.062-27.5 33.13 33.13 0 0 0-33.188 1.5L500 236.75l-262.25-169a33.13 33.13 0 0 0-33.125-1.562A31.25 31.25 0 0 0 187.5 93.75zM359.938 875c-59.563 0-107.75-46.625-107.75-104.187V152.125L482.063 300.25a33.13 33.13 0 0 0 35.875 0l229.875-148.125v618.75c0 57.5-48.188 104.125-107.75 104.125z" glyph-name="bookmark-1" horiz-adv-x="1000" unicode="16"/><glyph d="M734.063 598.313c8.125-.063 16.312-3.188 22.562-9.438 21.688-21.687 37.063-37.062 49.688-48.375 12.5-11.312 20.75-17.125 27.687-20.625 13.25-6.625 26.063-7.312 71.375-7.312 17.75 0 32.125-14.375 32.125-32.125 0-96.25-39.375-163.188-92.125-233.625-35.625-47.5-93.125-93-151.75-126.5-57.937-33.125-122.75-57.813-174-57.813a32.125 32.125 0 0 0-32.187 32.125c0 45.312-.625 58.125-7.313 71.375-3.437 6.875-9.25 15.125-20.625 27.687-11.187 12.5-26.312 27.625-47.625 48.938a31.88 31.88 0 0 0-10.125 23.5V437.5c0 7.875 2.875 15.5 8.125 21.375L89.688 779.125a92.75 92.75 0 0 0 131.187 131.25l320.188-320.25a31.88 31.88 0 0 0 21.375 8.125h171.625M135.125 864.875a28.44 28.44 0 0 1 0-40.25l320.188-320.25 40.25 40.25-320.188 320.188a28.44 28.44 0 0 1-40.25 0M575.75 533.938 466 424.25v-80.562L656.313 534zm-68.375-297.313c12.75-14.25 23-27.437 30.25-41.937 10.063-20.125 13-40.438 13.813-64.063 29.5 6.5 65.5 20.75 102.625 41.188l-71.5 71.5a32.125 32.125 0 0 0 45.5 45.437l81.812-81.875c34.375 24.625 64.187 52 84.063 78.438l1.625 2.187-84.375 84.375a32.125 32.125 0 1 0 45.437 45.5l75.812-75.812c20.75 34.5 34.188 68.062 38.875 106.875-24.5.75-45.375 3.5-66.062 13.875a187.5 187.5 0 0 0-41.937 30.312 875 875 0 0 0-29.376 28L479.375 266.063c10.938-11.063 20.25-20.625 28.063-29.376" glyph-name="broom" horiz-adv-x="1000" unicode=""/><glyph d="M734.063 598.313c8.125-.063 16.312-3.188 22.562-9.438 21.688-21.687 37.063-37.062 49.688-48.375 12.5-11.312 20.75-17.125 27.687-20.625 13.25-6.625 26.063-7.312 71.375-7.312 17.75 0 32.125-14.375 32.125-32.125 0-96.25-39.375-163.188-92.125-233.625-35.625-47.5-93.125-93-151.75-126.5-57.937-33.125-122.75-57.813-174-57.813a32.125 32.125 0 0 0-32.187 32.125c0 45.312-.625 58.125-7.313 71.375-3.437 6.875-9.25 15.125-20.625 27.687-11.187 12.5-26.312 27.625-47.625 48.938a31.88 31.88 0 0 0-10.125 23.5V437.5c0 7.875 2.875 15.5 8.125 21.375L89.688 779.125a92.75 92.75 0 0 0 131.187 131.25l320.188-320.25a31.88 31.88 0 0 0 21.375 8.125h171.625M135.125 864.875a28.44 28.44 0 0 1 0-40.25l320.188-320.25 40.25 40.25-320.188 320.188a28.44 28.44 0 0 1-40.25 0M575.75 533.938 466 424.25v-80.562L656.313 534zm-68.375-297.313c12.75-14.25 23-27.437 30.25-41.937 10.063-20.125 13-40.438 13.813-64.063 29.5 6.5 65.5 20.75 102.625 41.188l-71.5 71.5a32.125 32.125 0 0 0 45.5 45.437l81.812-81.875c34.375 24.625 64.187 52 84.063 78.438l1.625 2.187-84.375 84.375a32.125 32.125 0 1 0 45.437 45.5l75.812-75.812c20.75 34.5 34.188 68.062 38.875 106.875-24.5.75-45.375 3.5-66.062 13.875a187.5 187.5 0 0 0-41.937 30.312 875 875 0 0 0-29.376 28L479.375 266.063c10.938-11.063 20.25-20.625 28.063-29.376" glyph-name="broom-1" horiz-adv-x="1000" unicode="16"/><glyph d="M406 865.813a31.25 31.25 0 0 1-44.187 0l-75.688-75.625-.187-.188-.25-.25-151.5-151.562a31.25 31.25 0 0 1 0-44.188l189.375-189.375.312-.312 37.875-37.938a31.25 31.25 0 0 1 22.125-9.125H484.75l199.5-199.5a111.75 111.75 0 0 1 158 158l-199.5 199.5v100.875a31.25 31.25 0 0 1-9.125 22.063L596 675.875l-.313.25zM308 723.75 361.75 670A31.25 31.25 0 0 1 406 714.188l-53.75 53.75 31.625 31.687 145.5-145.562-183.437-183.438-145.5 145.5 31.687 31.688 53.75-53.75a31.25 31.25 0 1 1 44.25 44.124l-53.75 53.75zM728.438 202 520.625 409.813a31.25 31.25 0 0 1-23.937 9.937h-99.875l-6.688 6.688 183.438 183.437 6.687-6.687V502.313a31.25 31.25 0 0 1 9.812-22.75l208-208a49.25 49.25 0 0 0-69.625-69.625" glyph-name="brush" horiz-adv-x="1000" unicode=""/><glyph d="M406 865.813a31.25 31.25 0 0 1-44.187 0l-75.688-75.625-.187-.188-.25-.25-151.5-151.562a31.25 31.25 0 0 1 0-44.188l189.375-189.375.312-.312 37.875-37.938a31.25 31.25 0 0 1 22.125-9.125H484.75l199.5-199.5a111.75 111.75 0 0 1 158 158l-199.5 199.5v100.875a31.25 31.25 0 0 1-9.125 22.063L596 675.875l-.313.25zM308 723.75 361.75 670A31.25 31.25 0 0 1 406 714.188l-53.75 53.75 31.625 31.687 145.5-145.562-183.437-183.438-145.5 145.5 31.687 31.688 53.75-53.75a31.25 31.25 0 1 1 44.25 44.124l-53.75 53.75zM728.438 202 520.625 409.813a31.25 31.25 0 0 1-23.937 9.937h-99.875l-6.688 6.688 183.438 183.437 6.687-6.687V502.313a31.25 31.25 0 0 1 9.812-22.75l208-208a49.25 49.25 0 0 0-69.625-69.625" glyph-name="brush-1" horiz-adv-x="1000" unicode="16"/><glyph d="M714.375 758.813h-67.687v-64.688h67.75zm-67.687-127.5h67.75v-64.688h-67.75zm67.687-127.563h-67.687v-64.687h67.75zM511.25 758.813H579v-64.688h-67.75zm67.75-127.5h-67.75v-64.688h67.688zM511.25 503.75H579v-64.687h-67.75zM816 875c17.25 0 31.25-13.375 31.25-29.875V184.75h59c17.25 0 31.25-13.375 31.25-29.875A30.625 30.625 0 0 0 906.25 125H93.75a30.625 30.625 0 0 0-31.25 29.875 30.625 30.625 0 0 0 31.25 29.875h59v401.5A30.625 30.625 0 0 0 184 616.125h194.5v229A30.625 30.625 0 0 0 409.75 875zM215.25 556.438V184.75H378.5v371.688zM441 184.75h72.875v142.687a30.625 30.625 0 0 0 31.25 29.875h135.438c17.25 0 31.25-13.375 31.25-29.875V184.75h72.937v630.5H441zm135.375 0h72.938V297.5h-72.938z" glyph-name="building" horiz-adv-x="1000" unicode=""/><glyph d="M714.375 758.813h-67.687v-64.688h67.75zm-67.687-127.5h67.75v-64.688h-67.75zm67.687-127.563h-67.687v-64.687h67.75zM511.25 758.813H579v-64.688h-67.75zm67.75-127.5h-67.75v-64.688h67.688zM511.25 503.75H579v-64.687h-67.75zM816 875c17.25 0 31.25-13.375 31.25-29.875V184.75h59c17.25 0 31.25-13.375 31.25-29.875A30.625 30.625 0 0 0 906.25 125H93.75a30.625 30.625 0 0 0-31.25 29.875 30.625 30.625 0 0 0 31.25 29.875h59v401.5A30.625 30.625 0 0 0 184 616.125h194.5v229A30.625 30.625 0 0 0 409.75 875zM215.25 556.438V184.75H378.5v371.688zM441 184.75h72.875v142.687a30.625 30.625 0 0 0 31.25 29.875h135.438c17.25 0 31.25-13.375 31.25-29.875V184.75h72.937v630.5H441zm135.375 0h72.938V297.5h-72.938z" glyph-name="building-1" horiz-adv-x="1000" unicode="16"/><glyph d="M201.375 729.188A145.813 145.813 0 0 0 347.25 875h305.5a145.813 145.813 0 0 0 145.875-145.812v-6.938h45.125A31.25 31.25 0 0 0 875 691V538.125a31.25 31.25 0 0 0-62.5 0V659.75h-13.875V309c0-38.312-31.125-69.375-69.438-69.375h-6.937v-26.062a88.563 88.563 0 0 0-177.125 0v26h-90.25v-26a88.563 88.563 0 0 0-177.125 0v26h-6.875a69.375 69.375 0 0 0-69.5 69.437v350.75H187.5V538.125a31.25 31.25 0 0 0-62.5 0V691a31.25 31.25 0 0 0 31.25 31.25h45.125zm62.5-197.938h472.25v166.688h-472.25zm472.25-62.5h-472.25V309c0-3.75 3.125-6.875 6.938-6.875h458.375c3.812 0 6.875 3.125 6.875 6.875zm-6.062 291.688A83.125 83.125 0 0 1 652.75 812.5h-305.5c-35 0-65-21.562-77.312-52.062zM316 385.438a31.25 31.25 0 0 1 31.25-31.25h38.125a31.25 31.25 0 1 1 0 62.5H347.25a31.25 31.25 0 0 1-31.25-31.25m24.25-145.875v-26a26.063 26.063 0 1 1 52.125 0v26zm243.125 145.875a31.25 31.25 0 0 1 31.25-31.25h38.125a31.25 31.25 0 1 1 0 62.5h-38.125a31.25 31.25 0 0 1-31.25-31.25m24.25-145.875v-26a26.063 26.063 0 1 1 52.125 0v26z" glyph-name="bus" horiz-adv-x="1000" unicode=""/><glyph d="M201.375 729.188A145.813 145.813 0 0 0 347.25 875h305.5a145.813 145.813 0 0 0 145.875-145.812v-6.938h45.125A31.25 31.25 0 0 0 875 691V538.125a31.25 31.25 0 0 0-62.5 0V659.75h-13.875V309c0-38.312-31.125-69.375-69.438-69.375h-6.937v-26.062a88.563 88.563 0 0 0-177.125 0v26h-90.25v-26a88.563 88.563 0 0 0-177.125 0v26h-6.875a69.375 69.375 0 0 0-69.5 69.437v350.75H187.5V538.125a31.25 31.25 0 0 0-62.5 0V691a31.25 31.25 0 0 0 31.25 31.25h45.125zm62.5-197.938h472.25v166.688h-472.25zm472.25-62.5h-472.25V309c0-3.75 3.125-6.875 6.938-6.875h458.375c3.812 0 6.875 3.125 6.875 6.875zm-6.062 291.688A83.125 83.125 0 0 1 652.75 812.5h-305.5c-35 0-65-21.562-77.312-52.062zM316 385.438a31.25 31.25 0 0 1 31.25-31.25h38.125a31.25 31.25 0 1 1 0 62.5H347.25a31.25 31.25 0 0 1-31.25-31.25m24.25-145.875v-26a26.063 26.063 0 1 1 52.125 0v26zm243.125 145.875a31.25 31.25 0 0 1 31.25-31.25h38.125a31.25 31.25 0 1 1 0 62.5h-38.125a31.25 31.25 0 0 1-31.25-31.25m24.25-145.875v-26a26.063 26.063 0 1 1 52.125 0v26z" glyph-name="bus-1" horiz-adv-x="1000" unicode="16"/><glyph d="M93.75 772.063c0 91.375 75.188 165.437 167.938 165.437h453.937c92.75 0 167.937-74.062 167.937-165.437V414.25c0-17.25-14.187-31.25-31.75-31.25a31.5 31.5 0 0 0-31.687 31.25v357.813A103.75 103.75 0 0 1 715.625 875H261.688a103.75 103.75 0 0 1-104.5-102.937V235.375c0-56.875 46.75-102.937 104.5-102.937H443.25c17.5 0 31.75-14 31.75-31.25s-14.25-31.25-31.75-31.25H261.688C168.938 69.938 93.75 144 93.75 235.375zM230 705c0 54.313 44.625 98.313 99.75 98.313h317.813c55.125 0 99.812-44 99.812-98.313 0-54.375-44.687-98.375-99.812-98.375H329.75A99.063 99.063 0 0 0 230 705m99.75 35.813A36.25 36.25 0 0 1 293.375 705c0-19.812 16.25-35.875 36.375-35.875h317.813A36.25 36.25 0 0 1 683.938 705a36.25 36.25 0 0 1-36.375 35.813zM220.938 503.75c0 17.25 14.187 31.25 31.687 31.25h63.438c17.5 0 31.75-14 31.75-31.25s-14.188-31.25-31.75-31.25h-63.438a31.5 31.5 0 0 0-31.687 31.25m0-132.187c0 17.25 14.187 31.25 31.687 31.25h63.438c17.5 0 31.75-14 31.75-31.25s-14.188-31.25-31.75-31.25h-63.438a31.5 31.5 0 0 0-31.687 31.25m0-132.188c0 17.313 14.187 31.25 31.687 31.25h63.438c17.5 0 31.75-13.937 31.75-31.25 0-17.25-14.188-31.25-31.75-31.25h-63.438a31.5 31.5 0 0 0-31.687 31.25m204.25 264.375c0 17.25 14.25 31.25 31.75 31.25h63.437c17.5 0 31.688-14 31.688-31.25s-14.188-31.25-31.688-31.25h-63.5a31.5 31.5 0 0 0-31.75 31.25m.063-132.187c0 17.25 14.25 31.25 31.75 31.25h63.437c17.5 0 31.688-14 31.688-31.25s-14.188-31.25-31.688-31.25h-63.5a31.5 31.5 0 0 0-31.75 31.25M629.5 503.75c0 17.25 14.188 31.25 31.75 31.25h63.437c17.5 0 31.688-14 31.688-31.25s-14.188-31.25-31.688-31.25h-63.5a31.5 31.5 0 0 0-31.687 31.25m0-132.187c0 17.25 14.188 31.25 31.75 31.25h63.437c17.5 0 31.688-14 31.688-31.25s-14.188-31.25-31.688-31.25h-63.5a31.5 31.5 0 0 0-31.687 31.25m267.438-69.375a30.94 30.94 0 0 0 0-44.188L707.813 71.625a31.875 31.875 0 0 0-45.625.813L556.25 184.25a30.94 30.94 0 0 0 1.563 44.188 32.063 32.063 0 0 0 44.812-1.563l83.563-88.125 165.937 163.438a32.063 32.063 0 0 0 44.813 0" glyph-name="calculator-check" horiz-adv-x="1000" unicode=""/><glyph d="M93.75 772.063c0 91.375 75.188 165.437 167.938 165.437h453.937c92.75 0 167.937-74.062 167.937-165.437V414.25c0-17.25-14.187-31.25-31.75-31.25a31.5 31.5 0 0 0-31.687 31.25v357.813A103.75 103.75 0 0 1 715.625 875H261.688a103.75 103.75 0 0 1-104.5-102.937V235.375c0-56.875 46.75-102.937 104.5-102.937H443.25c17.5 0 31.75-14 31.75-31.25s-14.25-31.25-31.75-31.25H261.688C168.938 69.938 93.75 144 93.75 235.375zM230 705c0 54.313 44.625 98.313 99.75 98.313h317.813c55.125 0 99.812-44 99.812-98.313 0-54.375-44.687-98.375-99.812-98.375H329.75A99.063 99.063 0 0 0 230 705m99.75 35.813A36.25 36.25 0 0 1 293.375 705c0-19.812 16.25-35.875 36.375-35.875h317.813A36.25 36.25 0 0 1 683.938 705a36.25 36.25 0 0 1-36.375 35.813zM220.938 503.75c0 17.25 14.187 31.25 31.687 31.25h63.438c17.5 0 31.75-14 31.75-31.25s-14.188-31.25-31.75-31.25h-63.438a31.5 31.5 0 0 0-31.687 31.25m0-132.187c0 17.25 14.187 31.25 31.687 31.25h63.438c17.5 0 31.75-14 31.75-31.25s-14.188-31.25-31.75-31.25h-63.438a31.5 31.5 0 0 0-31.687 31.25m0-132.188c0 17.313 14.187 31.25 31.687 31.25h63.438c17.5 0 31.75-13.937 31.75-31.25 0-17.25-14.188-31.25-31.75-31.25h-63.438a31.5 31.5 0 0 0-31.687 31.25m204.25 264.375c0 17.25 14.25 31.25 31.75 31.25h63.437c17.5 0 31.688-14 31.688-31.25s-14.188-31.25-31.688-31.25h-63.5a31.5 31.5 0 0 0-31.75 31.25m.063-132.187c0 17.25 14.25 31.25 31.75 31.25h63.437c17.5 0 31.688-14 31.688-31.25s-14.188-31.25-31.688-31.25h-63.5a31.5 31.5 0 0 0-31.75 31.25M629.5 503.75c0 17.25 14.188 31.25 31.75 31.25h63.437c17.5 0 31.688-14 31.688-31.25s-14.188-31.25-31.688-31.25h-63.5a31.5 31.5 0 0 0-31.687 31.25m0-132.187c0 17.25 14.188 31.25 31.75 31.25h63.437c17.5 0 31.688-14 31.688-31.25s-14.188-31.25-31.688-31.25h-63.5a31.5 31.5 0 0 0-31.687 31.25m267.438-69.375a30.94 30.94 0 0 0 0-44.188L707.813 71.625a31.875 31.875 0 0 0-45.625.813L556.25 184.25a30.94 30.94 0 0 0 1.563 44.188 32.063 32.063 0 0 0 44.812-1.563l83.563-88.125 165.937 163.438a32.063 32.063 0 0 0 44.813 0" glyph-name="calculator-check-1" horiz-adv-x="1000" unicode="16"/><glyph d="M322 937.5c16.813 0 30.438-14 30.438-31.25v-50h255.625v50c0 17.25 13.562 31.25 30.375 31.25 16.875 0 30.437-14 30.437-31.25v-50h48.75c82.313 0 149.063-68.562 149.063-153.125v-81.25c0-17.25-13.625-31.25-30.438-31.25H154.625V256.25c0-50 39.5-90.625 88.25-90.625h118.688c16.812 0 30.375-14 30.375-31.25s-13.563-31.25-30.375-31.25h-118.75c-82.313 0-149.063 68.563-149.063 153.125v446.875c0 84.563 66.75 153.125 149.125 153.125h48.688v50c0 17.25 13.625 31.25 30.437 31.25m483.813-234.375c0 50-39.5 90.625-88.25 90.625h-48.688v-50c0-17.25-13.625-31.25-30.437-31.25A30.875 30.875 0 0 0 608 743.75v50H352.375v-50c0-17.25-13.562-31.25-30.375-31.25a30.875 30.875 0 0 0-30.437 31.25v50h-48.75c-48.688 0-88.188-40.625-88.188-90.625v-50h651.25zM631 476.5a50.625 50.625 0 0 0 90.75 0l43.625-88.375 97.5-14.187a50.625 50.625 0 0 0 28.063-86.25l-70.625-68.813L837 121.75a50.625 50.625 0 0 0-73.375-53.312l-87.25 45.812-87.187-45.812a50.625 50.625 0 0 0-73.438 53.312l16.687 97.125-70.625 68.75a50.625 50.625 0 0 0 28.125 86.313l97.5 14.187zm45.375-49.375-35.687-72.25a50.63 50.63 0 0 0-38.125-27.687l-79.813-11.625 57.813-56.25a50.63 50.63 0 0 0 14.5-44.813l-13.625-79.563 71.375 37.563a50.63 50.63 0 0 0 47.125 0l71.375-37.5-13.625 79.5a50.63 50.63 0 0 0 14.562 44.75L830 315.562l-79.812 11.625a50.63 50.63 0 0 0-38.125 27.688z" glyph-name="calendar-event" horiz-adv-x="1000" unicode=""/><glyph d="M322 937.5c16.813 0 30.438-14 30.438-31.25v-50h255.625v50c0 17.25 13.562 31.25 30.375 31.25 16.875 0 30.437-14 30.437-31.25v-50h48.75c82.313 0 149.063-68.562 149.063-153.125v-81.25c0-17.25-13.625-31.25-30.438-31.25H154.625V256.25c0-50 39.5-90.625 88.25-90.625h118.688c16.812 0 30.375-14 30.375-31.25s-13.563-31.25-30.375-31.25h-118.75c-82.313 0-149.063 68.563-149.063 153.125v446.875c0 84.563 66.75 153.125 149.125 153.125h48.688v50c0 17.25 13.625 31.25 30.437 31.25m483.813-234.375c0 50-39.5 90.625-88.25 90.625h-48.688v-50c0-17.25-13.625-31.25-30.437-31.25A30.875 30.875 0 0 0 608 743.75v50H352.375v-50c0-17.25-13.562-31.25-30.375-31.25a30.875 30.875 0 0 0-30.437 31.25v50h-48.75c-48.688 0-88.188-40.625-88.188-90.625v-50h651.25zM631 476.5a50.625 50.625 0 0 0 90.75 0l43.625-88.375 97.5-14.187a50.625 50.625 0 0 0 28.063-86.25l-70.625-68.813L837 121.75a50.625 50.625 0 0 0-73.375-53.312l-87.25 45.812-87.187-45.812a50.625 50.625 0 0 0-73.438 53.312l16.687 97.125-70.625 68.75a50.625 50.625 0 0 0 28.125 86.313l97.5 14.187zm45.375-49.375-35.687-72.25a50.63 50.63 0 0 0-38.125-27.687l-79.813-11.625 57.813-56.25a50.63 50.63 0 0 0 14.5-44.813l-13.625-79.563 71.375 37.563a50.63 50.63 0 0 0 47.125 0l71.375-37.5-13.625 79.5a50.63 50.63 0 0 0 14.562 44.75L830 315.562l-79.812 11.625a50.63 50.63 0 0 0-38.125 27.688z" glyph-name="calendar-event-1" horiz-adv-x="1000" unicode="16"/><glyph d="M322 937.5c16.813 0 30.438-14 30.438-31.25v-50h255.625v50c0 17.25 13.562 31.25 30.375 31.25 16.875 0 30.437-14 30.437-31.25v-50h48.75c82.313 0 149.063-68.562 149.063-153.125v-81.25c0-17.25-13.625-31.25-30.438-31.25H154.625V256.25c0-50 39.5-90.625 88.25-90.625h118.688c16.812 0 30.375-14 30.375-31.25s-13.563-31.25-30.375-31.25h-118.75c-82.313 0-149.063 68.563-149.063 153.125v446.875c0 84.563 66.75 153.125 149.125 153.125h48.688v50c0 17.25 13.625 31.25 30.437 31.25m483.813-234.375c0 50-39.5 90.625-88.25 90.625h-48.688v-50c0-17.25-13.625-31.25-30.437-31.25A30.875 30.875 0 0 0 608 743.75v50H352.375v-50c0-17.25-13.562-31.25-30.375-31.25a30.875 30.875 0 0 0-30.437 31.25v50h-48.75c-48.688 0-88.188-40.625-88.188-90.625v-50h651.25zm-98.125-325c0 17.25-13.625 31.25-30.438 31.25a30.875 30.875 0 0 1-30.437-31.25V283.75l70.062-70.187c12-12.063 31.25-11.813 43 .562a31.875 31.875 0 0 1-.5 44.188l-51.687 51.75zM678 531.25c-126.062 0-228.187-104.937-228.187-234.375S552 62.5 678 62.5s228.25 104.938 228.25 234.375S804.063 531.25 678 531.25M510.625 296.875c0 94.938 75 171.875 167.375 171.875 92.5 0 167.375-76.937 167.375-171.875S770.438 125 678 125s-167.375 76.938-167.375 171.875" glyph-name="calendar-history" horiz-adv-x="1000" unicode=""/><glyph d="M322 937.5c16.813 0 30.438-14 30.438-31.25v-50h255.625v50c0 17.25 13.562 31.25 30.375 31.25 16.875 0 30.437-14 30.437-31.25v-50h48.75c82.313 0 149.063-68.562 149.063-153.125v-81.25c0-17.25-13.625-31.25-30.438-31.25H154.625V256.25c0-50 39.5-90.625 88.25-90.625h118.688c16.812 0 30.375-14 30.375-31.25s-13.563-31.25-30.375-31.25h-118.75c-82.313 0-149.063 68.563-149.063 153.125v446.875c0 84.563 66.75 153.125 149.125 153.125h48.688v50c0 17.25 13.625 31.25 30.437 31.25m483.813-234.375c0 50-39.5 90.625-88.25 90.625h-48.688v-50c0-17.25-13.625-31.25-30.437-31.25A30.875 30.875 0 0 0 608 743.75v50H352.375v-50c0-17.25-13.562-31.25-30.375-31.25a30.875 30.875 0 0 0-30.437 31.25v50h-48.75c-48.688 0-88.188-40.625-88.188-90.625v-50h651.25zm-98.125-325c0 17.25-13.625 31.25-30.438 31.25a30.875 30.875 0 0 1-30.437-31.25V283.75l70.062-70.187c12-12.063 31.25-11.813 43 .562a31.875 31.875 0 0 1-.5 44.188l-51.687 51.75zM678 531.25c-126.062 0-228.187-104.937-228.187-234.375S552 62.5 678 62.5s228.25 104.938 228.25 234.375S804.063 531.25 678 531.25M510.625 296.875c0 94.938 75 171.875 167.375 171.875 92.5 0 167.375-76.937 167.375-171.875S770.438 125 678 125s-167.375 76.938-167.375 171.875" glyph-name="calendar-history-1" horiz-adv-x="1000" unicode="16"/><glyph d="M363.5 906.25c0 17.25-13.625 31.25-30.5 31.25a30.875 30.875 0 0 1-30.5-31.25V852h-53c-86 0-155.75-71.437-155.75-159.562V222.063C93.75 133.938 163.5 62.5 249.5 62.5h501c86 0 155.75 71.438 155.75 159.563v470.375C906.25 780.563 836.5 852 750.5 852h-53v54.25c0 17.25-13.688 31.25-30.5 31.25a30.875 30.875 0 0 1-30.5-31.25V852h-273zm481.75-268.125h-690.5V692.5c0 53.563 42.438 97.063 94.75 97.063h53V735.25C302.5 718 316.188 704 333 704c16.875 0 30.5 14 30.5 31.25v54.313h273V735.25C636.5 718 650.125 704 667 704s30.5 14 30.5 31.25v54.313h53c52.312 0 94.75-43.5 94.75-97.063zm-690.5-62.5h690.5V222.063c0-53.625-42.437-97.063-94.75-97.063h-501c-52.312 0-94.75 43.438-94.75 97.063z" glyph-name="calendar" horiz-adv-x="1000" unicode=""/><glyph d="M363.5 906.25c0 17.25-13.625 31.25-30.5 31.25a30.875 30.875 0 0 1-30.5-31.25V852h-53c-86 0-155.75-71.437-155.75-159.562V222.063C93.75 133.938 163.5 62.5 249.5 62.5h501c86 0 155.75 71.438 155.75 159.563v470.375C906.25 780.563 836.5 852 750.5 852h-53v54.25c0 17.25-13.688 31.25-30.5 31.25a30.875 30.875 0 0 1-30.5-31.25V852h-273zm481.75-268.125h-690.5V692.5c0 53.563 42.438 97.063 94.75 97.063h53V735.25C302.5 718 316.188 704 333 704c16.875 0 30.5 14 30.5 31.25v54.313h273V735.25C636.5 718 650.125 704 667 704s30.5 14 30.5 31.25v54.313h53c52.312 0 94.75-43.5 94.75-97.063zm-690.5-62.5h690.5V222.063c0-53.625-42.437-97.063-94.75-97.063h-501c-52.312 0-94.75 43.438-94.75 97.063z" glyph-name="calendar-1" horiz-adv-x="1000" unicode="16"/><glyph d="m516.188 471.938 380.937 380.937a31.25 31.25 0 1 1-44.25 44.188l-750-750a31.25 31.25 0 0 1 44.25-44.188L356.938 312.75a718.75 718.75 0 0 1 440.937-187.625c43.562-2.687 77.125 32.813 77.125 73.75v130.062a69.38 69.38 0 0 1-25.563 54.875C805 418.937 744.75 433 663.187 434.125a73 73 0 0 1-35.75-8.75l-22.187-11.75a8.75 8.75 0 0 0-8.75-.25 519 519 0 0 0-80.313 58.562m-45.625-45.625Q513.625 387.75 563.687 358c22.688-13.438 49.938-12.875 71.875-1.25l22.125 11.875a10 10 0 0 0 4.625 1.125c76.063-1.063 119.188-14.375 147.25-36.5l.375-.625a12.5 12.5 0 0 0 .625-3.688V198.875c0-6.5-4.875-9.687-8.625-9.438a654.38 654.38 0 0 0-399.375 168.875zm-87.437 98.5a32.188 32.188 0 0 1 52.688 37.063 500 500 0 0 0-31.75 51.063 8.75 8.75 0 0 0 .375 8.375l13.312 25.5c5.625 10.625 8.688 22.812 8.5 35.312-.375 31.25-2.687 54.875-9.125 78.625-6.25 23.313-16.25 45.063-29.687 72.5a75 75 0 0 1-67.25 41.75H198.875c-40.937 0-76.437-33.562-73.75-77.125a718.75 718.75 0 0 1 133.438-374.25 32.188 32.188 0 1 1 52.312 37.5 656.25 656.25 0 0 0-121.437 340.812c-.25 3.75 2.937 8.688 9.375 8.688h121.375a10.69 10.69 0 0 0 9.5-5.812C343 777.75 350.438 760.75 355 743.875c4.375-16.437 6.5-34.125 6.875-62.625a10 10 0 0 0-1.187-4.562l-13.313-25.5c-11-21-11.875-46.875.125-69q16.25-29.875 35.625-57.376" glyph-name="call-off" horiz-adv-x="1000" unicode=""/><glyph d="m516.188 471.938 380.937 380.937a31.25 31.25 0 1 1-44.25 44.188l-750-750a31.25 31.25 0 0 1 44.25-44.188L356.938 312.75a718.75 718.75 0 0 1 440.937-187.625c43.562-2.687 77.125 32.813 77.125 73.75v130.062a69.38 69.38 0 0 1-25.563 54.875C805 418.937 744.75 433 663.187 434.125a73 73 0 0 1-35.75-8.75l-22.187-11.75a8.75 8.75 0 0 0-8.75-.25 519 519 0 0 0-80.313 58.562m-45.625-45.625Q513.625 387.75 563.687 358c22.688-13.438 49.938-12.875 71.875-1.25l22.125 11.875a10 10 0 0 0 4.625 1.125c76.063-1.063 119.188-14.375 147.25-36.5l.375-.625a12.5 12.5 0 0 0 .625-3.688V198.875c0-6.5-4.875-9.687-8.625-9.438a654.38 654.38 0 0 0-399.375 168.875zm-87.437 98.5a32.188 32.188 0 0 1 52.688 37.063 500 500 0 0 0-31.75 51.063 8.75 8.75 0 0 0 .375 8.375l13.312 25.5c5.625 10.625 8.688 22.812 8.5 35.312-.375 31.25-2.687 54.875-9.125 78.625-6.25 23.313-16.25 45.063-29.687 72.5a75 75 0 0 1-67.25 41.75H198.875c-40.937 0-76.437-33.562-73.75-77.125a718.75 718.75 0 0 1 133.438-374.25 32.188 32.188 0 1 1 52.312 37.5 656.25 656.25 0 0 0-121.437 340.812c-.25 3.75 2.937 8.688 9.375 8.688h121.375a10.69 10.69 0 0 0 9.5-5.812C343 777.75 350.438 760.75 355 743.875c4.375-16.437 6.5-34.125 6.875-62.625a10 10 0 0 0-1.187-4.562l-13.313-25.5c-11-21-11.875-46.875.125-69q16.25-29.875 35.625-57.376" glyph-name="call-off-1" horiz-adv-x="1000" unicode="16"/><glyph d="M849.5 383.813c18.188-14.375 25.5-35.75 25.5-54.875V198.875c0-40.937-33.562-76.437-77.125-73.75a718.75 718.75 0 0 0-619.375 442.5 718.8 718.8 0 0 0-53.375 230.25C122.5 841.438 157.938 875 198.875 875h121.313c28.437 0 54.625-16.062 67.25-41.75 13.5-27.375 23.375-49.187 29.687-72.5 6.438-23.75 8.75-47.437 9.125-78.625.188-12.5-2.875-24.625-8.5-35.312l-13.312-25.5a8.75 8.75 0 0 1-.375-8.375 521.25 521.25 0 0 1 192.5-199.563c2-1.25 5.312-1.563 8.75.25l22.124 11.812c10.75 5.75 23.125 8.875 35.75 8.75 81.563-1.25 141.813-15.25 186.25-50.375M809.5 333.25c-28.063 22.188-71.188 35.438-147.25 36.5a10 10 0 0 1-4.625-1.188l-22.188-11.75c-21.875-11.687-49.125-12.25-71.75 1.188a585.6 585.6 0 0 0-216.25 224.187 73.13 73.13 0 0 0-.125 69l13.313 25.5a10 10 0 0 1 1.25 4.563c-.375 28.5-2.5 46.25-6.875 62.625-4.562 16.875-12 33.875-25.312 60.938a10.63 10.63 0 0 1-9.5 5.812H198.875c-6.5 0-9.687-4.937-9.437-8.75a655 655 0 0 1 612.5-612.5c3.75-.187 8.687 3 8.687 9.5v130.062a12.5 12.5 0 0 1-.625 3.688zm0 0" glyph-name="call" horiz-adv-x="1000" unicode=""/><glyph d="M849.5 383.813c18.188-14.375 25.5-35.75 25.5-54.875V198.875c0-40.937-33.562-76.437-77.125-73.75a718.75 718.75 0 0 0-619.375 442.5 718.8 718.8 0 0 0-53.375 230.25C122.5 841.438 157.938 875 198.875 875h121.313c28.437 0 54.625-16.062 67.25-41.75 13.5-27.375 23.375-49.187 29.687-72.5 6.438-23.75 8.75-47.437 9.125-78.625.188-12.5-2.875-24.625-8.5-35.312l-13.312-25.5a8.75 8.75 0 0 1-.375-8.375 521.25 521.25 0 0 1 192.5-199.563c2-1.25 5.312-1.563 8.75.25l22.124 11.812c10.75 5.75 23.125 8.875 35.75 8.75 81.563-1.25 141.813-15.25 186.25-50.375M809.5 333.25c-28.063 22.188-71.188 35.438-147.25 36.5a10 10 0 0 1-4.625-1.188l-22.188-11.75c-21.875-11.687-49.125-12.25-71.75 1.188a585.6 585.6 0 0 0-216.25 224.187 73.13 73.13 0 0 0-.125 69l13.313 25.5a10 10 0 0 1 1.25 4.563c-.375 28.5-2.5 46.25-6.875 62.625-4.562 16.875-12 33.875-25.312 60.938a10.63 10.63 0 0 1-9.5 5.812H198.875c-6.5 0-9.687-4.937-9.437-8.75a655 655 0 0 1 612.5-612.5c3.75-.187 8.687 3 8.687 9.5v130.062a12.5 12.5 0 0 1-.625 3.688zm0 0" glyph-name="call-1" horiz-adv-x="1000" unicode="16"/><glyph d="M500 616.125c-92.062 0-166.687-71.25-166.687-159.25S407.938 297.5 500 297.5s166.688 71.313 166.688 159.313S592.063 616.125 500 616.125m-104.187-159.25c0 55 46.687 99.563 104.187 99.563s104.188-44.625 104.188-99.563c0-55-46.625-99.562-104.188-99.562-57.5 0-104.187 44.562-104.187 99.562M447.125 875c-32.25 0-63.125-12.25-85.937-34l-99.813-95.437h-32.187C137.125 745.625 62.5 674.375 62.5 586.25V284.313C62.5 196.25 137.125 125 229.188 125h541.625c92.062 0 166.687 71.313 166.687 159.313V586.25c0 88-74.625 159.375-166.687 159.375h-32.188L638.813 841a125 125 0 0 1-85.938 34zm-41.75-76.25a60.63 60.63 0 0 0 41.75 16.5h105.75c15.625 0 30.625-5.937 41.75-16.5l109-104.187c5.813-5.625 13.75-8.75 22.062-8.75h45.125c57.5 0 104.188-44.563 104.188-99.563V284.313c0-55-46.625-99.563-104.188-99.563H229.188c-57.5 0-104.188 44.562-104.188 99.563V586.25c0 55 46.625 99.563 104.188 99.563h45.125c8.25 0 16.25 3.125 22.062 8.75z" glyph-name="camera" horiz-adv-x="1000" unicode=""/><glyph d="M500 616.125c-92.062 0-166.687-71.25-166.687-159.25S407.938 297.5 500 297.5s166.688 71.313 166.688 159.313S592.063 616.125 500 616.125m-104.187-159.25c0 55 46.687 99.563 104.187 99.563s104.188-44.625 104.188-99.563c0-55-46.625-99.562-104.188-99.562-57.5 0-104.187 44.562-104.187 99.562M447.125 875c-32.25 0-63.125-12.25-85.937-34l-99.813-95.437h-32.187C137.125 745.625 62.5 674.375 62.5 586.25V284.313C62.5 196.25 137.125 125 229.188 125h541.625c92.062 0 166.687 71.313 166.687 159.313V586.25c0 88-74.625 159.375-166.687 159.375h-32.188L638.813 841a125 125 0 0 1-85.938 34zm-41.75-76.25a60.63 60.63 0 0 0 41.75 16.5h105.75c15.625 0 30.625-5.937 41.75-16.5l109-104.187c5.813-5.625 13.75-8.75 22.062-8.75h45.125c57.5 0 104.188-44.563 104.188-99.563V284.313c0-55-46.625-99.563-104.188-99.563H229.188c-57.5 0-104.188 44.562-104.188 99.563V586.25c0 55 46.625 99.563 104.188 99.563h45.125c8.25 0 16.25 3.125 22.062 8.75z" glyph-name="camera-1" horiz-adv-x="1000" unicode="16"/><glyph d="m500 343.75 250 312.5H250z" glyph-name="caret-down" horiz-adv-x="1000" unicode=""/><glyph d="m500 343.75 250 312.5H250z" glyph-name="caret-down-1" horiz-adv-x="1000" unicode="16"/><glyph d="m343.75 500 312.5-250v500z" glyph-name="caret-left" horiz-adv-x="1000" unicode=""/><glyph d="m343.75 500 312.5-250v500z" glyph-name="caret-left-1" horiz-adv-x="1000" unicode="16"/><glyph d="m656.25 500-312.5 250V250z" glyph-name="caret-right" horiz-adv-x="1000" unicode=""/><glyph d="m656.25 500-312.5 250V250z" glyph-name="caret-right-1" horiz-adv-x="1000" unicode="16"/><glyph d="M500 937.5 250 625h500zm0-875L750 375H250z" glyph-name="caret-sort" horiz-adv-x="1000" unicode=""/><glyph d="M500 937.5 250 625h500zm0-875L750 375H250z" glyph-name="caret-sort-1" horiz-adv-x="1000" unicode="16"/><glyph d="m500 656.25-250-312.5h500z" glyph-name="caret-up" horiz-adv-x="1000" unicode=""/><glyph d="m500 656.25-250-312.5h500z" glyph-name="caret-up-1" horiz-adv-x="1000" unicode="16"/><glyph d="M125 843.75A31.25 31.25 0 0 0 156.25 875c58 0 106.938-43.062 114.375-100.625l51.563-399.625a83.31 83.31 0 0 1 82.687-72.688h324.313a31.25 31.25 0 1 0 0-62.5H404.813A145.625 145.625 0 0 0 260.188 366.75l-51.563 399.687A52.81 52.81 0 0 1 156.25 812.5 31.25 31.25 0 0 0 125 843.75m152.75-630.187a88.563 88.563 0 1 0 177.125 0 88.563 88.563 0 0 0-177.125 0m88.563 26a26.063 26.063 0 1 1 0-52.063 26.063 26.063 0 0 1 0 52.063m255.187-26a88.563 88.563 0 1 0 177.125 0 88.563 88.563 0 0 0-177.125 0m88.563 26a26.063 26.063 0 1 1 0-52.063 26.063 26.063 0 0 1 0 52.063m-470.5 489.625a31.25 31.25 0 0 0 31.25 31.25H843.75a31.25 31.25 0 0 0 30.5-38.063l-76.375-343.75a31.25 31.25 0 0 0-30.5-24.437H309a31.25 31.25 0 1 0 0 62.5h433.312l62.5 281.25h-534a31.25 31.25 0 0 0-31.25 31.25" glyph-name="cart" horiz-adv-x="1000" unicode=""/><glyph d="M125 843.75A31.25 31.25 0 0 0 156.25 875c58 0 106.938-43.062 114.375-100.625l51.563-399.625a83.31 83.31 0 0 1 82.687-72.688h324.313a31.25 31.25 0 1 0 0-62.5H404.813A145.625 145.625 0 0 0 260.188 366.75l-51.563 399.687A52.81 52.81 0 0 1 156.25 812.5 31.25 31.25 0 0 0 125 843.75m152.75-630.187a88.563 88.563 0 1 0 177.125 0 88.563 88.563 0 0 0-177.125 0m88.563 26a26.063 26.063 0 1 1 0-52.063 26.063 26.063 0 0 1 0 52.063m255.187-26a88.563 88.563 0 1 0 177.125 0 88.563 88.563 0 0 0-177.125 0m88.563 26a26.063 26.063 0 1 1 0-52.063 26.063 26.063 0 0 1 0 52.063m-470.5 489.625a31.25 31.25 0 0 0 31.25 31.25H843.75a31.25 31.25 0 0 0 30.5-38.063l-76.375-343.75a31.25 31.25 0 0 0-30.5-24.437H309a31.25 31.25 0 1 0 0 62.5h433.312l62.5 281.25h-534a31.25 31.25 0 0 0-31.25 31.25" glyph-name="cart-1" horiz-adv-x="1000" unicode="16"/><glyph d="M461.813 493.313c-17.25 0-31.25-13.5-31.25-30.188s14-30.187 31.25-30.187H652.75c17.313 0 31.25 13.5 31.25 30.187a30.625 30.625 0 0 1-31.25 30.188zm0-110.688c-17.25 0-31.25-13.5-31.25-30.187s14-30.188 31.25-30.188h119.375c17.25 0 31.25 13.5 31.25 30.188a30.625 30.625 0 0 1-31.25 30.187zM163.188 729.063c0 63.312 53.125 114.687 118.75 114.687H603.5c65.562 0 118.75-51.375 118.75-114.687V659.25c63.625-2.125 114.563-52.625 114.563-114.625V267.313l34.875-67.375c4.874-9.375 4.375-20.5-1.376-29.375a31.25 31.25 0 0 0-26.562-14.313H396.563c-65.625 0-118.75 51.375-118.75 114.688v69.75H156.25a31.25 31.25 0 0 0-26.562 14.375 29.38 29.38 0 0 0-1.375 29.375l34.875 67.375zm496.562 0c0 30-25.187 54.375-56.25 54.375H281.875c-31.062 0-56.25-24.375-56.25-54.375V444.688a31.25 31.25 0 0 0-3.312-13.5l-15.563-30.125h70.938v143.562c0 63.313 53.187 114.688 118.75 114.688h263.25zM396.563 598.938c-31.125 0-56.25-24.375-56.25-54.375V270.938c0-30 25.125-54.375 56.25-54.375h396.624l-18.875 36.5v291.562c0 30-25.187 54.313-56.25 54.313z" glyph-name="chat" horiz-adv-x="1000" unicode=""/><glyph d="M461.813 493.313c-17.25 0-31.25-13.5-31.25-30.188s14-30.187 31.25-30.187H652.75c17.313 0 31.25 13.5 31.25 30.187a30.625 30.625 0 0 1-31.25 30.188zm0-110.688c-17.25 0-31.25-13.5-31.25-30.187s14-30.188 31.25-30.188h119.375c17.25 0 31.25 13.5 31.25 30.188a30.625 30.625 0 0 1-31.25 30.187zM163.188 729.063c0 63.312 53.125 114.687 118.75 114.687H603.5c65.562 0 118.75-51.375 118.75-114.687V659.25c63.625-2.125 114.563-52.625 114.563-114.625V267.313l34.875-67.375c4.874-9.375 4.375-20.5-1.376-29.375a31.25 31.25 0 0 0-26.562-14.313H396.563c-65.625 0-118.75 51.375-118.75 114.688v69.75H156.25a31.25 31.25 0 0 0-26.562 14.375 29.38 29.38 0 0 0-1.375 29.375l34.875 67.375zm496.562 0c0 30-25.187 54.375-56.25 54.375H281.875c-31.062 0-56.25-24.375-56.25-54.375V444.688a31.25 31.25 0 0 0-3.312-13.5l-15.563-30.125h70.938v143.562c0 63.313 53.187 114.688 118.75 114.688h263.25zM396.563 598.938c-31.125 0-56.25-24.375-56.25-54.375V270.938c0-30 25.125-54.375 56.25-54.375h396.624l-18.875 36.5v291.562c0 30-25.187 54.313-56.25 54.313z" glyph-name="chat-1" horiz-adv-x="1000" unicode="16"/><glyph d="M500 156.25a343.75 343.75 0 1 1 0 687.5 343.75 343.75 0 0 1 0-687.5M655.75 550.5 483.875 378.625a25.813 25.813 0 0 0-36.5 0L344.25 481.75a25.813 25.813 0 0 0 36.5 36.5l84.875-84.937L619.25 587a25.813 25.813 0 0 0 36.5-36.5" glyph-name="checkmark-circle-solid" horiz-adv-x="1000" unicode=""/><glyph d="M500 156.25a343.75 343.75 0 1 1 0 687.5 343.75 343.75 0 0 1 0-687.5M655.75 550.5 483.875 378.625a25.813 25.813 0 0 0-36.5 0L344.25 481.75a25.813 25.813 0 0 0 36.5 36.5l84.875-84.937L619.25 587a25.813 25.813 0 0 0 36.5-36.5" glyph-name="checkmark-circle-solid-1" horiz-adv-x="1000" unicode="16"/><glyph d="M125 500a375 375 0 1 0 750 0 375 375 0 0 0-750 0m375 312.5a312.5 312.5 0 1 1 0-625 312.5 312.5 0 0 1 0 625m174.875-214a31.25 31.25 0 0 0 0-44.187l-191-191a31.25 31.25 0 0 0-44.187 0L325.125 477.874a31.25 31.25 0 1 0 44.188 44.188l92.5-92.5L630.687 598.5a31.25 31.25 0 0 0 44.187 0" glyph-name="checkmark-circle" horiz-adv-x="1000" unicode=""/><glyph d="M125 500a375 375 0 1 0 750 0 375 375 0 0 0-750 0m375 312.5a312.5 312.5 0 1 1 0-625 312.5 312.5 0 0 1 0 625m174.875-214a31.25 31.25 0 0 0 0-44.187l-191-191a31.25 31.25 0 0 0-44.187 0L325.125 477.874a31.25 31.25 0 1 0 44.188 44.188l92.5-92.5L630.687 598.5a31.25 31.25 0 0 0 44.187 0" glyph-name="checkmark-circle-1" horiz-adv-x="1000" unicode="16"/><glyph d="M695.688 678.313a31.25 31.25 0 0 0 0-44.188l-312.5-312.5a31.25 31.25 0 0 0-44.188 0L165.375 495.25a31.25 31.25 0 1 0 44.25 44.188l151.5-151.5L651.5 678.312a31.25 31.25 0 0 0 44.188 0M269.563 574.188a31.25 31.25 0 0 0 44.187 0l69.438-69.438A31.25 31.25 0 1 0 339 460.563l-69.375 69.375a31.25 31.25 0 0 0 0 44.25m565 104.125a31.25 31.25 0 0 0 0-44.188l-312.5-312.5a31.25 31.25 0 0 0-44.188 44.25l312.5 312.5a31.25 31.25 0 0 0 44.25 0" glyph-name="checkmark-double" horiz-adv-x="1000" unicode=""/><glyph d="M695.688 678.313a31.25 31.25 0 0 0 0-44.188l-312.5-312.5a31.25 31.25 0 0 0-44.188 0L165.375 495.25a31.25 31.25 0 1 0 44.25 44.188l151.5-151.5L651.5 678.312a31.25 31.25 0 0 0 44.188 0M269.563 574.188a31.25 31.25 0 0 0 44.187 0l69.438-69.438A31.25 31.25 0 1 0 339 460.563l-69.375 69.375a31.25 31.25 0 0 0 0 44.25m565 104.125a31.25 31.25 0 0 0 0-44.188l-312.5-312.5a31.25 31.25 0 0 0-44.188 44.25l312.5 312.5a31.25 31.25 0 0 0 44.25 0" glyph-name="checkmark-double-1" horiz-adv-x="1000" unicode="16"/><glyph d="M584.688 858.25a98.75 98.75 0 0 1-169.375 0 98.75 98.75 0 0 0-108.75-45 98.75 98.75 0 0 1-119.688-119.812 98.75 98.75 0 0 0-45.062-108.75 98.75 98.75 0 0 1 0-169.375 98.75 98.75 0 0 0 45-108.75A98.75 98.75 0 0 1 306.625 186.75a98.75 98.75 0 0 0 108.75-45 98.75 98.75 0 0 1 169.375 0 98.75 98.75 0 0 0 108.75 45 98.75 98.75 0 0 1 119.813 119.813 98.75 98.75 0 0 0 45 108.75 98.75 98.75 0 0 1 0 169.375 98.75 98.75 0 0 0-45 108.75A98.75 98.75 0 0 1 693.5 813.25a98.75 98.75 0 0 0-108.75 45m103.938-297.062L480.563 353.063a31.25 31.25 0 0 0-44.188 0l-125 124.812A31.25 31.25 0 0 0 355.563 522l102.812-102.812 186.063 186.125a31.25 31.25 0 1 0 44.187-44.188" glyph-name="checkmark-verified-solid" horiz-adv-x="1000" unicode=""/><glyph d="M584.688 858.25a98.75 98.75 0 0 1-169.375 0 98.75 98.75 0 0 0-108.75-45 98.75 98.75 0 0 1-119.688-119.812 98.75 98.75 0 0 0-45.062-108.75 98.75 98.75 0 0 1 0-169.375 98.75 98.75 0 0 0 45-108.75A98.75 98.75 0 0 1 306.625 186.75a98.75 98.75 0 0 0 108.75-45 98.75 98.75 0 0 1 169.375 0 98.75 98.75 0 0 0 108.75 45 98.75 98.75 0 0 1 119.813 119.813 98.75 98.75 0 0 0 45 108.75 98.75 98.75 0 0 1 0 169.375 98.75 98.75 0 0 0-45 108.75A98.75 98.75 0 0 1 693.5 813.25a98.75 98.75 0 0 0-108.75 45m103.938-297.062L480.563 353.063a31.25 31.25 0 0 0-44.188 0l-125 124.812A31.25 31.25 0 0 0 355.563 522l102.812-102.812 186.063 186.125a31.25 31.25 0 1 0 44.187-44.188" glyph-name="checkmark-verified-solid-1" horiz-adv-x="1000" unicode="16"/><glyph d="M391 865.625c41 95.875 177 95.875 218 0a56.063 56.063 0 0 1 72.438-30c96.812 38.75 192.937-57.375 154.125-154.187a56.063 56.063 0 0 1 30-72.438c95.937-41 95.937-177 0-218a56.063 56.063 0 0 1-30-72.437c38.812-96.813-57.313-192.938-154.126-154.125a56.063 56.063 0 0 1-72.437-30c-41-95.938-177-95.938-218 0a56.063 56.063 0 0 1-72.437 30c-96.813-38.813-192.938 57.312-154.126 154.125a56.063 56.063 0 0 1-30 72.437c-95.937 41-95.937 177 0 218a56.063 56.063 0 0 1 30 72.438c-38.812 96.812 57.313 192.937 154.126 154.125a56.063 56.063 0 0 1 72.437 30m160.563-24.625c-19.376 45.312-83.75 45.312-103.125 0A118.563 118.563 0 0 0 295.313 777.5c-45.75 18.375-91.25-27.125-72.876-72.875A118.563 118.563 0 0 0 159 551.5c-45.313-19.375-45.313-83.75 0-103.125a118.563 118.563 0 0 0 63.437-153.125c-18.375-45.75 27.125-91.25 72.875-72.875a118.563 118.563 0 0 0 153.125-63.437c19.375-45.313 83.75-45.313 103.125 0a118.563 118.563 0 0 0 153.125 63.437c45.75-18.375 91.25 27.125 72.875 72.875A118.563 118.563 0 0 0 841 448.375c45.313 19.375 45.313 83.75 0 103.125a118.563 118.563 0 0 0-63.438 153.125c18.375 45.75-27.125 91.25-72.875 72.875a118.563 118.563 0 0 0-153.124 63.438M703.125 602.5a31.25 31.25 0 0 0-1.437-44.187L461.25 332.938a31.25 31.25 0 0 0-42.75 0L298.313 445.625a31.25 31.25 0 1 0 42.75 45.625l98.812-92.687 219.063 205.375a31.25 31.25 0 0 0 44.187-1.438" glyph-name="checkmark-verified" horiz-adv-x="1000" unicode=""/><glyph d="M391 865.625c41 95.875 177 95.875 218 0a56.063 56.063 0 0 1 72.438-30c96.812 38.75 192.937-57.375 154.125-154.187a56.063 56.063 0 0 1 30-72.438c95.937-41 95.937-177 0-218a56.063 56.063 0 0 1-30-72.437c38.812-96.813-57.313-192.938-154.126-154.125a56.063 56.063 0 0 1-72.437-30c-41-95.938-177-95.938-218 0a56.063 56.063 0 0 1-72.437 30c-96.813-38.813-192.938 57.312-154.126 154.125a56.063 56.063 0 0 1-30 72.437c-95.937 41-95.937 177 0 218a56.063 56.063 0 0 1 30 72.438c-38.812 96.812 57.313 192.937 154.126 154.125a56.063 56.063 0 0 1 72.437 30m160.563-24.625c-19.376 45.312-83.75 45.312-103.125 0A118.563 118.563 0 0 0 295.313 777.5c-45.75 18.375-91.25-27.125-72.876-72.875A118.563 118.563 0 0 0 159 551.5c-45.313-19.375-45.313-83.75 0-103.125a118.563 118.563 0 0 0 63.437-153.125c-18.375-45.75 27.125-91.25 72.875-72.875a118.563 118.563 0 0 0 153.125-63.437c19.375-45.313 83.75-45.313 103.125 0a118.563 118.563 0 0 0 153.125 63.437c45.75-18.375 91.25 27.125 72.875 72.875A118.563 118.563 0 0 0 841 448.375c45.313 19.375 45.313 83.75 0 103.125a118.563 118.563 0 0 0-63.438 153.125c18.375 45.75-27.125 91.25-72.875 72.875a118.563 118.563 0 0 0-153.124 63.438M703.125 602.5a31.25 31.25 0 0 0-1.437-44.187L461.25 332.938a31.25 31.25 0 0 0-42.75 0L298.313 445.625a31.25 31.25 0 1 0 42.75 45.625l98.812-92.687 219.063 205.375a31.25 31.25 0 0 0 44.187-1.438" glyph-name="checkmark-verified-1" horiz-adv-x="1000" unicode="16"/><glyph d="M865.875 740.938a30.813 30.813 0 0 0 0-43.813l-442-438.062a31.44 31.44 0 0 0-44.187 0L134.188 502.5a30.625 30.625 0 0 0 0 43.75 31.44 31.44 0 0 0 44.187 0l223.438-221.437L821.625 741a31.44 31.44 0 0 0 44.25 0" glyph-name="checkmark" horiz-adv-x="1000" unicode=""/><glyph d="M865.875 740.938a30.813 30.813 0 0 0 0-43.813l-442-438.062a31.44 31.44 0 0 0-44.187 0L134.188 502.5a30.625 30.625 0 0 0 0 43.75 31.44 31.44 0 0 0 44.187 0l223.438-221.437L821.625 741a31.44 31.44 0 0 0 44.25 0" glyph-name="checkmark-1" horiz-adv-x="1000" unicode="16"/><glyph d="M500 875a375 375 0 1 0 0-750 375 375 0 0 0 0 750m312.5-375a312.5 312.5 0 1 1-625 0 312.5 312.5 0 0 1 625 0m-166.062 84.063a32.75 32.75 0 0 0 0-46.813L523.75 416a33.75 33.75 0 0 0-47.375 0l-122.75 121.25a32.813 32.813 0 0 0 0 46.875 33.75 33.75 0 0 0 47.375 0l99-98.062L599.063 584a33.75 33.75 0 0 0 47.375 0" glyph-name="chevron-circle-down" horiz-adv-x="1000" unicode=""/><glyph d="M500 875a375 375 0 1 0 0-750 375 375 0 0 0 0 750m312.5-375a312.5 312.5 0 1 1-625 0 312.5 312.5 0 0 1 625 0m-166.062 84.063a32.75 32.75 0 0 0 0-46.813L523.75 416a33.75 33.75 0 0 0-47.375 0l-122.75 121.25a32.813 32.813 0 0 0 0 46.875 33.75 33.75 0 0 0 47.375 0l99-98.062L599.063 584a33.75 33.75 0 0 0 47.375 0" glyph-name="chevron-circle-down-1" horiz-adv-x="1000" unicode="16"/><glyph d="M875 500a375 375 0 1 0-750 0 375 375 0 0 0 750 0M500 187.5a312.5 312.5 0 1 1 0 625 312.5 312.5 0 0 1 0-625m84.063 166.063a32.813 32.813 0 0 0-46.813 0L416 476.25a33.75 33.75 0 0 0 0 47.375l121.25 122.75a32.813 32.813 0 0 0 46.813 0 33.75 33.75 0 0 0 0-47.375l-97.938-99 97.937-99.062a33.75 33.75 0 0 0 0-47.375" glyph-name="chevron-circle-left" horiz-adv-x="1000" unicode=""/><glyph d="M875 500a375 375 0 1 0-750 0 375 375 0 0 0 750 0M500 187.5a312.5 312.5 0 1 1 0 625 312.5 312.5 0 0 1 0-625m84.063 166.063a32.813 32.813 0 0 0-46.813 0L416 476.25a33.75 33.75 0 0 0 0 47.375l121.25 122.75a32.813 32.813 0 0 0 46.813 0 33.75 33.75 0 0 0 0-47.375l-97.938-99 97.937-99.062a33.75 33.75 0 0 0 0-47.375" glyph-name="chevron-circle-left-1" horiz-adv-x="1000" unicode="16"/><glyph d="M483.938 636.688a31.25 31.25 0 0 1-44.25-44.188l92.5-92.5-92.5-92.5a31.25 31.25 0 1 1 44.187-44.188L598.5 477.875a31.25 31.25 0 0 1 0 44.188zM500 875a375 375 0 1 1 0-750 375 375 0 0 1 0 750M187.5 500a312.5 312.5 0 1 0 625 0 312.5 312.5 0 0 0-625 0" glyph-name="chevron-circle-right" horiz-adv-x="1000" unicode=""/><glyph d="M483.938 636.688a31.25 31.25 0 0 1-44.25-44.188l92.5-92.5-92.5-92.5a31.25 31.25 0 1 1 44.187-44.188L598.5 477.875a31.25 31.25 0 0 1 0 44.188zM500 875a375 375 0 1 1 0-750 375 375 0 0 1 0 750M187.5 500a312.5 312.5 0 1 0 625 0 312.5 312.5 0 0 0-625 0" glyph-name="chevron-circle-right-1" horiz-adv-x="1000" unicode="16"/><glyph d="M500 125a375 375 0 1 0 0 750 375 375 0 0 0 0-750M187.5 500a312.5 312.5 0 1 1 625 0 312.5 312.5 0 0 1-625 0m166.063-52.812a32.813 32.813 0 0 0 0 46.812l122.75 121.25a33.75 33.75 0 0 0 47.375 0L646.438 494a32.75 32.75 0 0 0 0-46.812 33.75 33.75 0 0 0-47.375 0L500 545.125l-99.062-97.937a33.75 33.75 0 0 0-47.375 0" glyph-name="chevron-circle-up" horiz-adv-x="1000" unicode=""/><glyph d="M500 125a375 375 0 1 0 0 750 375 375 0 0 0 0-750M187.5 500a312.5 312.5 0 1 1 625 0 312.5 312.5 0 0 1-625 0m166.063-52.812a32.813 32.813 0 0 0 0 46.812l122.75 121.25a33.75 33.75 0 0 0 47.375 0L646.438 494a32.75 32.75 0 0 0 0-46.812 33.75 33.75 0 0 0-47.375 0L500 545.125l-99.062-97.937a33.75 33.75 0 0 0-47.375 0" glyph-name="chevron-circle-up-1" horiz-adv-x="1000" unicode="16"/><glyph d="M772.125 647.063a31.25 31.25 0 0 0 0-44.188l-250-250a31.25 31.25 0 0 0-44.188 0l-250 250a31.25 31.25 0 1 0 44.188 44.25l227.875-228L727.875 647a31.25 31.25 0 0 0 44.25 0" glyph-name="chevron-down" horiz-adv-x="1000" unicode=""/><glyph d="M772.125 647.063a31.25 31.25 0 0 0 0-44.188l-250-250a31.25 31.25 0 0 0-44.188 0l-250 250a31.25 31.25 0 1 0 44.188 44.25l227.875-228L727.875 647a31.25 31.25 0 0 0 44.25 0" glyph-name="chevron-down-1" horiz-adv-x="1000" unicode="16"/><glyph d="M647.125 772.063a31.25 31.25 0 0 1-44.188 0l-250-250a31.25 31.25 0 0 1 0-44.188l250-250a31.25 31.25 0 0 1 44.188 44.25L419.188 500l227.937 227.875a31.25 31.25 0 0 1 0 44.188" glyph-name="chevron-left" horiz-adv-x="1000" unicode=""/><glyph d="M647.125 772.063a31.25 31.25 0 0 1-44.188 0l-250-250a31.25 31.25 0 0 1 0-44.188l250-250a31.25 31.25 0 0 1 44.188 44.25L419.188 500l227.937 227.875a31.25 31.25 0 0 1 0 44.188" glyph-name="chevron-left-1" horiz-adv-x="1000" unicode="16"/><glyph d="M352.938 772.063a31.25 31.25 0 0 0 44.187 0l250-250a31.25 31.25 0 0 0 0-44.188l-250-250a31.25 31.25 0 0 0-44.25 44.25l228 227.875-227.937 227.875a31.25 31.25 0 0 0 0 44.188" glyph-name="chevron-right" horiz-adv-x="1000" unicode=""/><glyph d="M352.938 772.063a31.25 31.25 0 0 0 44.187 0l250-250a31.25 31.25 0 0 0 0-44.188l-250-250a31.25 31.25 0 0 0-44.25 44.25l228 227.875-227.937 227.875a31.25 31.25 0 0 0 0 44.188" glyph-name="chevron-right-1" horiz-adv-x="1000" unicode="16"/><glyph d="M227.75 366.313a31.69 31.69 0 0 0 43.625 0l228.625-220 228.625 220a31.69 31.69 0 0 0 43.625 0 28.75 28.75 0 0 0 0-41.876L500 62.5 227.75 324.375a28.75 28.75 0 0 0 0 41.938m544.5 267.375a31.69 31.69 0 0 0-43.625 0L500 853.688l-228.625-220a31.69 31.69 0 0 0-43.625 0 28.75 28.75 0 0 0 0 41.875L500 937.5l272.25-261.875a28.75 28.75 0 0 0 0-41.937" glyph-name="chevron-sort" horiz-adv-x="1000" unicode=""/><glyph d="M227.75 366.313a31.69 31.69 0 0 0 43.625 0l228.625-220 228.625 220a31.69 31.69 0 0 0 43.625 0 28.75 28.75 0 0 0 0-41.876L500 62.5 227.75 324.375a28.75 28.75 0 0 0 0 41.938m544.5 267.375a31.69 31.69 0 0 0-43.625 0L500 853.688l-228.625-220a31.69 31.69 0 0 0-43.625 0 28.75 28.75 0 0 0 0 41.875L500 937.5l272.25-261.875a28.75 28.75 0 0 0 0-41.937" glyph-name="chevron-sort-1" horiz-adv-x="1000" unicode="16"/><glyph d="M227.938 352.875a31.25 31.25 0 0 0 0 44.188l250 250a31.25 31.25 0 0 0 44.187 0l250-250a31.25 31.25 0 0 0-44.25-44.188L500 580.813 272.125 352.875a31.25 31.25 0 0 0-44.187 0" glyph-name="chevron-up" horiz-adv-x="1000" unicode=""/><glyph d="M227.938 352.875a31.25 31.25 0 0 0 0 44.188l250 250a31.25 31.25 0 0 0 44.187 0l250-250a31.25 31.25 0 0 0-44.25-44.188L500 580.813 272.125 352.875a31.25 31.25 0 0 0-44.187 0" glyph-name="chevron-up-1" horiz-adv-x="1000" unicode="16"/><glyph d="M647.125 501.313a34.375 34.375 0 0 0 0-46.75l-125-132.375a30 30 0 0 0-44.188 0l-125 132.375a34.375 34.375 0 0 0 0 46.75 30 30 0 0 0 44.188 0L500 392.375l102.875 108.938a30 30 0 0 0 44.25 0m0 176.5a34.375 34.375 0 0 0 0-46.813l-125-132.313a30 30 0 0 0-44.188 0L352.937 631a34.375 34.375 0 0 0 0 46.813 30 30 0 0 0 44.188 0L500 568.875l102.875 108.938a30 30 0 0 0 44.25 0" glyph-name="chevrons-down" horiz-adv-x="1000" unicode=""/><glyph d="M647.125 501.313a34.375 34.375 0 0 0 0-46.75l-125-132.375a30 30 0 0 0-44.188 0l-125 132.375a34.375 34.375 0 0 0 0 46.75 30 30 0 0 0 44.188 0L500 392.375l102.875 108.938a30 30 0 0 0 44.25 0m0 176.5a34.375 34.375 0 0 0 0-46.813l-125-132.313a30 30 0 0 0-44.188 0L352.937 631a34.375 34.375 0 0 0 0 46.813 30 30 0 0 0 44.188 0L500 568.875l102.875 108.938a30 30 0 0 0 44.25 0" glyph-name="chevrons-down-1" horiz-adv-x="1000" unicode="16"/><glyph d="M490.875 352.875a31.25 31.25 0 0 0-44.25 0l-125 125a31.25 31.25 0 0 0 0 44.188l125 125a31.25 31.25 0 1 0 44.25-44.188L387.938 500l102.937-102.875a31.25 31.25 0 0 0 0-44.25m166.625 0a31.25 31.25 0 0 0-44.188 0l-125 125a31.25 31.25 0 0 0 0 44.188l125 125a31.25 31.25 0 1 0 44.188-44.188L554.625 500 657.5 397.125a31.25 31.25 0 0 0 0-44.25" glyph-name="chevrons-left" horiz-adv-x="1000" unicode=""/><glyph d="M490.875 352.875a31.25 31.25 0 0 0-44.25 0l-125 125a31.25 31.25 0 0 0 0 44.188l125 125a31.25 31.25 0 1 0 44.25-44.188L387.938 500l102.937-102.875a31.25 31.25 0 0 0 0-44.25m166.625 0a31.25 31.25 0 0 0-44.188 0l-125 125a31.25 31.25 0 0 0 0 44.188l125 125a31.25 31.25 0 1 0 44.188-44.188L554.625 500 657.5 397.125a31.25 31.25 0 0 0 0-44.25" glyph-name="chevrons-left-1" horiz-adv-x="1000" unicode="16"/><glyph d="M498.688 647.063a34.375 34.375 0 0 0 46.75 0l132.375-125a30 30 0 0 0 0-44.188l-132.375-125a34.375 34.375 0 0 0-46.75 0 30 30 0 0 0 0 44.188L607.625 500 498.688 602.875a30 30 0 0 0 0 44.25m-176.5-.062a34.375 34.375 0 0 0 46.812 0l132.313-125a30 30 0 0 0 0-44.188L369 352.875a34.375 34.375 0 0 0-46.812 0 30 30 0 0 0 0 44.188L431.125 500 322.188 602.875a30 30 0 0 0 0 44.25" glyph-name="chevrons-right" horiz-adv-x="1000" unicode=""/><glyph d="M498.688 647.063a34.375 34.375 0 0 0 46.75 0l132.375-125a30 30 0 0 0 0-44.188l-132.375-125a34.375 34.375 0 0 0-46.75 0 30 30 0 0 0 0 44.188L607.625 500 498.688 602.875a30 30 0 0 0 0 44.25m-176.5-.062a34.375 34.375 0 0 0 46.812 0l132.313-125a30 30 0 0 0 0-44.188L369 352.875a34.375 34.375 0 0 0-46.812 0 30 30 0 0 0 0 44.188L431.125 500 322.188 602.875a30 30 0 0 0 0 44.25" glyph-name="chevrons-right-1" horiz-adv-x="1000" unicode="16"/><glyph d="M352.938 498.687a34.375 34.375 0 0 0 0 46.75l125 132.376a30 30 0 0 0 44.187 0l125-132.376a34.375 34.375 0 0 0 0-46.75 30 30 0 0 0-44.187 0L500 607.625 397.125 498.687a30 30 0 0 0-44.25 0m.063-176.5a34.375 34.375 0 0 0 0 46.813l125 132.313a30 30 0 0 0 44.187 0l125-132.313a34.375 34.375 0 0 0 0-46.812 30 30 0 0 0-44.187 0L500 431.125 397.125 322.188a30 30 0 0 0-44.25 0" glyph-name="chevrons-up" horiz-adv-x="1000" unicode=""/><glyph d="M352.938 498.687a34.375 34.375 0 0 0 0 46.75l125 132.376a30 30 0 0 0 44.187 0l125-132.376a34.375 34.375 0 0 0 0-46.75 30 30 0 0 0-44.187 0L500 607.625 397.125 498.687a30 30 0 0 0-44.25 0m.063-176.5a34.375 34.375 0 0 0 0 46.813l125 132.313a30 30 0 0 0 44.187 0l125-132.313a34.375 34.375 0 0 0 0-46.812 30 30 0 0 0-44.187 0L500 431.125 397.125 322.188a30 30 0 0 0-44.25 0" glyph-name="chevrons-up-1" horiz-adv-x="1000" unicode="16"/><glyph d="M259.5 608.313c-49.437 49.437-76.062 149.625-2.062 223.625 74.375 74.375 173.875 46.125 223.875-3.875l298.125-298.125c46.25-46.25 73-101.25 75.312-157.875 2.313-57-20.25-112.126-65.75-157.563-45.375-45.438-101.25-68.75-158.937-67.375C572.5 148.562 516.188 174.5 469 221.625L152.625 538a31.25 31.25 0 1 0 44.188 44.188l316.375-316.375c37.625-37.625 79.25-55.25 118.375-56.188 39-.938 78.75 14.5 113.25 49.063 34.5 34.5 49 73.125 47.5 110.875-1.563 38.062-19.688 78.75-57.125 116.25L437.063 783.938c-33.75 33.687-92.938 46.312-135.438 3.75-42.937-42.875-30.187-102.938 2.063-135.188l311.375-311.375.25-.188A50 50 0 0 1 632.188 332c8.625-2.688 18.562-3.125 30.562 8.75a25 25 0 0 1 8.188 14.187 27.5 27.5 0 0 1-1.5 13.188A56.3 56.3 0 0 1 660 385.063l-.312.437-171.25 171.188a31.25 31.25 0 1 0 44.25 44.187L704.563 429l1.437-1.5c.625-.75-.437.438-.437.438l.062-.063.125-.125.25-.25.625-.75a125 125 0 0 0 7.938-10.437c4.437-6.625 10.125-16.313 14.125-28.188 4-11.938 6.687-27 3.937-43.562a87.5 87.5 0 0 0-25.687-48c-31.563-31.5-67.063-32.313-93.063-24.376a118.8 118.8 0 0 0-39.687 21.625l-.813.688-.25.25-.125.125-1.25 1.125zM706 427.5l-.437.438-.938 1z" glyph-name="clip" horiz-adv-x="1000" unicode=""/><glyph d="M259.5 608.313c-49.437 49.437-76.062 149.625-2.062 223.625 74.375 74.375 173.875 46.125 223.875-3.875l298.125-298.125c46.25-46.25 73-101.25 75.312-157.875 2.313-57-20.25-112.126-65.75-157.563-45.375-45.438-101.25-68.75-158.937-67.375C572.5 148.562 516.188 174.5 469 221.625L152.625 538a31.25 31.25 0 1 0 44.188 44.188l316.375-316.375c37.625-37.625 79.25-55.25 118.375-56.188 39-.938 78.75 14.5 113.25 49.063 34.5 34.5 49 73.125 47.5 110.875-1.563 38.062-19.688 78.75-57.125 116.25L437.063 783.938c-33.75 33.687-92.938 46.312-135.438 3.75-42.937-42.875-30.187-102.938 2.063-135.188l311.375-311.375.25-.188A50 50 0 0 1 632.188 332c8.625-2.688 18.562-3.125 30.562 8.75a25 25 0 0 1 8.188 14.187 27.5 27.5 0 0 1-1.5 13.188A56.3 56.3 0 0 1 660 385.063l-.312.437-171.25 171.188a31.25 31.25 0 1 0 44.25 44.187L704.563 429l1.437-1.5c.625-.75-.437.438-.437.438l.062-.063.125-.125.25-.25.625-.75a125 125 0 0 0 7.938-10.437c4.437-6.625 10.125-16.313 14.125-28.188 4-11.938 6.687-27 3.937-43.562a87.5 87.5 0 0 0-25.687-48c-31.563-31.5-67.063-32.313-93.063-24.376a118.8 118.8 0 0 0-39.687 21.625l-.813.688-.25.25-.125.125-1.25 1.125zM706 427.5l-.437.438-.938 1z" glyph-name="clip-1" horiz-adv-x="1000" unicode="16"/><glyph d="M642.375 519.563a31.875 31.875 0 0 1 0 44.187 29.563 29.563 0 0 1-42.812 0L459.688 419.188l-59.25 61.25a29.563 29.563 0 0 1-42.813 0 31.875 31.875 0 0 1 0-44.188l80.625-83.375a29.563 29.563 0 0 1 42.812 0zM312.813 874.75a68.75 68.75 0 0 0 68.437 62.75h237.5c35.875 0 65.312-27.562 68.438-62.75h38.75c66.25 0 117.812-55.875 117.812-122V184.5c0-66.125-51.5-122-117.813-122H274.062c-66.25 0-117.812 55.875-117.812 122v568.25c0 66.125 51.5 122 117.812 122zm0-62.75h-38.75c-29.375 0-55.313-25.25-55.313-59.25V184.5c0-34 26-59.25 55.313-59.25h451.875c29.375 0 55.312 25.25 55.312 59.25v568.25c0 34-26 59.25-55.312 59.25h-38.75a68.75 68.75 0 0 0-68.438-62.75h-237.5A68.75 68.75 0 0 0 312.813 812m68.437 62.75a6.25 6.25 0 0 1-6.25-6.25v-50.25a6.25 6.25 0 0 1 6.25-6.25h237.5a6.25 6.25 0 0 1 6.25 6.25v50.25a6.25 6.25 0 0 1-6.25 6.25z" glyph-name="clipboard-check" horiz-adv-x="1000" unicode=""/><glyph d="M642.375 519.563a31.875 31.875 0 0 1 0 44.187 29.563 29.563 0 0 1-42.812 0L459.688 419.188l-59.25 61.25a29.563 29.563 0 0 1-42.813 0 31.875 31.875 0 0 1 0-44.188l80.625-83.375a29.563 29.563 0 0 1 42.812 0zM312.813 874.75a68.75 68.75 0 0 0 68.437 62.75h237.5c35.875 0 65.312-27.562 68.438-62.75h38.75c66.25 0 117.812-55.875 117.812-122V184.5c0-66.125-51.5-122-117.813-122H274.062c-66.25 0-117.812 55.875-117.812 122v568.25c0 66.125 51.5 122 117.812 122zm0-62.75h-38.75c-29.375 0-55.313-25.25-55.313-59.25V184.5c0-34 26-59.25 55.313-59.25h451.875c29.375 0 55.312 25.25 55.312 59.25v568.25c0 34-26 59.25-55.312 59.25h-38.75a68.75 68.75 0 0 0-68.438-62.75h-237.5A68.75 68.75 0 0 0 312.813 812m68.437 62.75a6.25 6.25 0 0 1-6.25-6.25v-50.25a6.25 6.25 0 0 1 6.25-6.25h237.5a6.25 6.25 0 0 1 6.25 6.25v50.25a6.25 6.25 0 0 1-6.25 6.25z" glyph-name="clipboard-check-1" horiz-adv-x="1000" unicode="16"/><glyph d="M312.813 874.75a68.75 68.75 0 0 0 68.437 62.75h237.5c35.875 0 65.312-27.562 68.438-62.75h38.75c66.25 0 117.812-55.875 117.812-122V184.5c0-66.125-51.5-122-117.813-122H274.062c-66.25 0-117.812 55.875-117.812 122v568.25c0 66.125 51.5 122 117.812 122zm0-62.75h-38.75c-29.375 0-55.313-25.25-55.313-59.25V184.5c0-34 26-59.25 55.313-59.25h451.875c29.375 0 55.312 25.25 55.312 59.25v568.25c0 34-26 59.25-55.312 59.25h-38.75a68.75 68.75 0 0 0-68.438-62.75h-237.5A68.75 68.75 0 0 0 312.813 812m68.437 62.75a6.25 6.25 0 0 1-6.25-6.25v-50.25a6.25 6.25 0 0 1 6.25-6.25h237.5a6.25 6.25 0 0 1 6.25 6.25v50.25a6.25 6.25 0 0 1-6.25 6.25z" glyph-name="clipboard" horiz-adv-x="1000" unicode=""/><glyph d="M312.813 874.75a68.75 68.75 0 0 0 68.437 62.75h237.5c35.875 0 65.312-27.562 68.438-62.75h38.75c66.25 0 117.812-55.875 117.812-122V184.5c0-66.125-51.5-122-117.813-122H274.062c-66.25 0-117.812 55.875-117.812 122v568.25c0 66.125 51.5 122 117.812 122zm0-62.75h-38.75c-29.375 0-55.313-25.25-55.313-59.25V184.5c0-34 26-59.25 55.313-59.25h451.875c29.375 0 55.312 25.25 55.312 59.25v568.25c0 34-26 59.25-55.312 59.25h-38.75a68.75 68.75 0 0 0-68.438-62.75h-237.5A68.75 68.75 0 0 0 312.813 812m68.437 62.75a6.25 6.25 0 0 1-6.25-6.25v-50.25a6.25 6.25 0 0 1 6.25-6.25h237.5a6.25 6.25 0 0 1 6.25 6.25v50.25a6.25 6.25 0 0 1-6.25 6.25z" glyph-name="clipboard-1" horiz-adv-x="1000" unicode="16"/><glyph d="M500 843.75a343.75 343.75 0 1 0 0-687.5 343.75 343.75 0 0 0 0 687.5M338.188 661.813a34.375 34.375 0 0 1 0-48.625L451.375 500 338.25 386.813a34.375 34.375 0 1 1 48.563-48.625L500 451.375 613.188 338.25a34.375 34.375 0 1 1 48.625 48.562L548.625 500 661.75 613.188a34.375 34.375 0 1 1-48.562 48.625L500 548.625 386.813 661.75a34.375 34.375 0 0 1-48.625 0" glyph-name="close-circle-solid" horiz-adv-x="1000" unicode=""/><glyph d="M500 843.75a343.75 343.75 0 1 0 0-687.5 343.75 343.75 0 0 0 0 687.5M338.188 661.813a34.375 34.375 0 0 1 0-48.625L451.375 500 338.25 386.813a34.375 34.375 0 1 1 48.563-48.625L500 451.375 613.188 338.25a34.375 34.375 0 1 1 48.625 48.562L548.625 500 661.75 613.188a34.375 34.375 0 1 1-48.562 48.625L500 548.625 386.813 661.75a34.375 34.375 0 0 1-48.625 0" glyph-name="close-circle-solid-1" horiz-adv-x="1000" unicode="16"/><glyph d="M500 125a375 375 0 1 0 0 750 375 375 0 0 0 0-750M187.5 500a312.5 312.5 0 1 1 625 0 312.5 312.5 0 0 1-625 0m137.625 174.875a31.25 31.25 0 0 0 44.188 0l305.562-305.563a31.25 31.25 0 1 0-44.187-44.187L325.125 630.688a31.25 31.25 0 0 0 0 44.187m0-349.75a31.25 31.25 0 0 0 0 44.188l305.563 305.562a31.25 31.25 0 1 0 44.187-44.187L369.313 325.125a31.25 31.25 0 0 0-44.188 0" glyph-name="close-circle" horiz-adv-x="1000" unicode=""/><glyph d="M500 125a375 375 0 1 0 0 750 375 375 0 0 0 0-750M187.5 500a312.5 312.5 0 1 1 625 0 312.5 312.5 0 0 1-625 0m137.625 174.875a31.25 31.25 0 0 0 44.188 0l305.562-305.563a31.25 31.25 0 1 0-44.187-44.187L325.125 630.688a31.25 31.25 0 0 0 0 44.187m0-349.75a31.25 31.25 0 0 0 0 44.188l305.563 305.562a31.25 31.25 0 1 0 44.187-44.187L369.313 325.125a31.25 31.25 0 0 0-44.188 0" glyph-name="close-circle-1" horiz-adv-x="1000" unicode="16"/><glyph d="M259.75 740.25a33.313 33.313 0 0 0 47.188 0L500 547.125 693.125 740.25a33.313 33.313 0 1 0 47.125-47.187L547.125 500 740.25 306.875a33.313 33.313 0 1 0-47.188-47.125L500 452.875 306.875 259.75a33.313 33.313 0 1 0-47.125 47.188L452.875 500 259.75 693.125a33.313 33.313 0 0 0 0 47.125" glyph-name="close" horiz-adv-x="1000" unicode=""/><glyph d="M259.75 740.25a33.313 33.313 0 0 0 47.188 0L500 547.125 693.125 740.25a33.313 33.313 0 1 0 47.125-47.187L547.125 500 740.25 306.875a33.313 33.313 0 1 0-47.188-47.125L500 452.875 306.875 259.75a33.313 33.313 0 1 0-47.125 47.188L452.875 500 259.75 693.125a33.313 33.313 0 0 0 0 47.125" glyph-name="close-1" horiz-adv-x="1000" unicode="16"/><glyph d="M265.313 696.188a260.5 260.5 0 0 0 513.75-84.313A156.25 156.25 0 0 0 750 302.063h-41.687a31.25 31.25 0 0 0 0 62.5H750a93.75 93.75 0 1 1-6.562 187.312 31.25 31.25 0 0 0-32.188 39.688A198.125 198.125 0 0 1 520.813 843.75 197.94 197.94 0 0 1 323.75 663.875a31.25 31.25 0 0 0-31.25-28.437h-.812a135.438 135.438 0 0 1 0-270.875 31.25 31.25 0 1 0 0-62.5 197.938 197.938 0 0 0-26.375 394.125m381.812-424.063a31.25 31.25 0 0 0 0-44.25l-125-125a31.25 31.25 0 0 0-44.188 0l-125 125a31.25 31.25 0 0 0 44.188 44.25l71.625-71.687v341.25a31.25 31.25 0 0 0 62.5 0v-341.25l71.625 71.687a31.25 31.25 0 0 0 44.25 0" glyph-name="cloud-download" horiz-adv-x="1000" unicode=""/></font>
</defs>
</svg>
