<svg xmlns="http://www.w3.org/2000/svg"><defs><font id="Persona Icon" horiz-adv-x="1000"><font-face ascent="1000" descent="0" font-family="Persona Icon"/><glyph d="M125 729.188A145.813 145.813 0 0 0 270.813 875h458.375A145.813 145.813 0 0 0 875 729.188V270.813A145.813 145.813 0 0 0 729.188 125H270.813A145.813 145.813 0 0 0 125 270.813zm569-119.375a31.25 31.25 0 1 1-54.625 30.375l-87.188-156.875-117.375 83.75a31.25 31.25 0 0 1-45.25-9.875L306.188 411.25a31.25 31.25 0 0 1 54.313-31l66.125 115.812 117.75-84a31.25 31.25 0 0 1 45.5 10.25z" glyph-name="activity-solid" horiz-adv-x="1000" unicode=""/><glyph d="M125 729.188A145.813 145.813 0 0 0 270.813 875h458.375A145.813 145.813 0 0 0 875 729.188V270.813A145.813 145.813 0 0 0 729.188 125H270.813A145.813 145.813 0 0 0 125 270.813zm569-119.375a31.25 31.25 0 1 1-54.625 30.375l-87.188-156.875-117.375 83.75a31.25 31.25 0 0 1-45.25-9.875L306.188 411.25a31.25 31.25 0 0 1 54.313-31l66.125 115.812 117.75-84a31.25 31.25 0 0 1 45.5 10.25z" glyph-name="activity-solid-1" horiz-adv-x="1000" unicode="16"/><glyph d="M694 609.813a31.25 31.25 0 0 1-54.625 30.375l-87.188-156.875-117.375 83.75a31.25 31.25 0 0 1-45.25-9.875L306.188 411.25a31.25 31.25 0 1 1 54.313-31l66.125 115.812 117.75-84a31.25 31.25 0 0 1 45.5 10.25zM270.813 875A145.813 145.813 0 0 1 125 729.188V270.813A145.813 145.813 0 0 1 270.813 125h458.375A145.813 145.813 0 0 1 875 270.813v458.375A145.813 145.813 0 0 1 729.188 875zM187.5 729.188c0 46 37.313 83.312 83.313 83.312h458.375c46 0 83.312-37.312 83.312-83.312V270.813c0-46-37.312-83.313-83.312-83.313H270.813a83.313 83.313 0 0 0-83.313 83.313z" glyph-name="activity" horiz-adv-x="1000" unicode=""/><glyph d="M694 609.813a31.25 31.25 0 0 1-54.625 30.375l-87.188-156.875-117.375 83.75a31.25 31.25 0 0 1-45.25-9.875L306.188 411.25a31.25 31.25 0 1 1 54.313-31l66.125 115.812 117.75-84a31.25 31.25 0 0 1 45.5 10.25zM270.813 875A145.813 145.813 0 0 1 125 729.188V270.813A145.813 145.813 0 0 1 270.813 125h458.375A145.813 145.813 0 0 1 875 270.813v458.375A145.813 145.813 0 0 1 729.188 875zM187.5 729.188c0 46 37.313 83.312 83.313 83.312h458.375c46 0 83.312-37.312 83.312-83.312V270.813c0-46-37.312-83.313-83.312-83.313H270.813a83.313 83.313 0 0 0-83.313 83.313z" glyph-name="activity-1" horiz-adv-x="1000" unicode="16"/><glyph d="M500 62.5a437.5 437.5 0 1 0 0 875 437.5 437.5 0 0 0 0-875m31.25 618.125a31.25 31.25 0 1 1-62.5 0V531.25H319.438a31.25 31.25 0 1 1 0-62.5h149.374V319.5a31.25 31.25 0 0 1 62.5 0v149.25h149.25a31.25 31.25 0 0 1 0 62.5H531.25z" glyph-name="add-circle-solid" horiz-adv-x="1000" unicode=""/><glyph d="M500 62.5a437.5 437.5 0 1 0 0 875 437.5 437.5 0 0 0 0-875m31.25 618.125a31.25 31.25 0 1 1-62.5 0V531.25H319.438a31.25 31.25 0 1 1 0-62.5h149.374V319.5a31.25 31.25 0 0 1 62.5 0v149.25h149.25a31.25 31.25 0 0 1 0 62.5H531.25z" glyph-name="add-circle-solid-1" horiz-adv-x="1000" unicode="16"/><glyph d="M62.5 500a437.5 437.5 0 1 0 875 0 437.5 437.5 0 0 0-875 0M500 875a375 375 0 1 1 0-750 375 375 0 0 1 0 750m0-163.125a31.25 31.25 0 0 1-31.25-31.25V531.25H319.5a31.25 31.25 0 0 1 0-62.5h149.25V319.5a31.25 31.25 0 1 1 62.5 0v149.25h149.375a31.25 31.25 0 1 1 0 62.5H531.25v149.375a31.25 31.25 0 0 1-31.25 31.25" glyph-name="add-circle" horiz-adv-x="1000" unicode=""/><glyph d="M62.5 500a437.5 437.5 0 1 0 875 0 437.5 437.5 0 0 0-875 0M500 875a375 375 0 1 1 0-750 375 375 0 0 1 0 750m0-163.125a31.25 31.25 0 0 1-31.25-31.25V531.25H319.5a31.25 31.25 0 0 1 0-62.5h149.25V319.5a31.25 31.25 0 1 1 62.5 0v149.25h149.375a31.25 31.25 0 1 1 0 62.5H531.25v149.375a31.25 31.25 0 0 1-31.25 31.25" glyph-name="add-circle-1" horiz-adv-x="1000" unicode="16"/><glyph d="M187.5 741.125a151.875 151.875 0 0 0 151.875 151.75H521.25c30.937 0 60.5-12.812 81.625-35.437L782.5 665c19.312-20.687 30-47.875 30-76.187v-128H497.875V109h186.688a29.69 29.69 0 0 0-18.75 27.625v99.063h-99.125a29.688 29.688 0 0 0 0 59.375h99v99.125a29.688 29.688 0 0 0 59.437 0v-99.063h99a29.688 29.688 0 0 0 0-59.375h-99v-99.062a29.688 29.688 0 0 0-40.625-27.625q-11.625-1.875-23.812-1.875H339.313A151.875 151.875 0 0 0 187.5 258.938zm383.938 58.438v-98.688c0-27.125 22-49.062 49.125-49.062h88.812z" glyph-name="add-document-solid" horiz-adv-x="1000" unicode=""/><glyph d="M187.5 741.125a151.875 151.875 0 0 0 151.875 151.75H521.25c30.937 0 60.5-12.812 81.625-35.437L782.5 665c19.312-20.687 30-47.875 30-76.187v-128H497.875V109h186.688a29.69 29.69 0 0 0-18.75 27.625v99.063h-99.125a29.688 29.688 0 0 0 0 59.375h99v99.125a29.688 29.688 0 0 0 59.437 0v-99.063h99a29.688 29.688 0 0 0 0-59.375h-99v-99.062a29.688 29.688 0 0 0-40.625-27.625q-11.625-1.875-23.812-1.875H339.313A151.875 151.875 0 0 0 187.5 258.938zm383.938 58.438v-98.688c0-27.125 22-49.062 49.125-49.062h88.812z" glyph-name="add-document-solid-1" horiz-adv-x="1000" unicode="16"/><glyph d="M250 741.063c0 49.312 40 89.25 89.313 89.25H509V700.875c0-61.625 50-111.625 111.563-111.625H750V460.938a31.25 31.25 0 0 1 62.5 0v127.937a111.5 111.5 0 0 1-30 76.125L602.938 857.375a111.88 111.88 0 0 1-81.625 35.438H339.375A151.875 151.875 0 0 1 187.5 741.063V258.938a151.875 151.875 0 0 1 151.75-151.75H500a31.25 31.25 0 0 1 0 62.5H339.313c-49.313 0-89.25 40-89.25 89.25zm459.313-89.313h-88.75a49.125 49.125 0 0 0-49.063 49.125v98.563zm-13.813-228a31.25 31.25 0 0 0 31.25-31.25v-95.75h95.75a31.25 31.25 0 0 0 0-62.5h-95.812v-95.812a31.25 31.25 0 1 0-62.5 0v95.812h-95.75a31.25 31.25 0 1 0 0 62.5h95.875v95.75a31.25 31.25 0 0 0 31.25 31.25" glyph-name="add-document" horiz-adv-x="1000" unicode=""/><glyph d="M250 741.063c0 49.312 40 89.25 89.313 89.25H509V700.875c0-61.625 50-111.625 111.563-111.625H750V460.938a31.25 31.25 0 0 1 62.5 0v127.937a111.5 111.5 0 0 1-30 76.125L602.938 857.375a111.88 111.88 0 0 1-81.625 35.438H339.375A151.875 151.875 0 0 1 187.5 741.063V258.938a151.875 151.875 0 0 1 151.75-151.75H500a31.25 31.25 0 0 1 0 62.5H339.313c-49.313 0-89.25 40-89.25 89.25zm459.313-89.313h-88.75a49.125 49.125 0 0 0-49.063 49.125v98.563zm-13.813-228a31.25 31.25 0 0 0 31.25-31.25v-95.75h95.75a31.25 31.25 0 0 0 0-62.5h-95.812v-95.812a31.25 31.25 0 1 0-62.5 0v95.812h-95.75a31.25 31.25 0 1 0 0 62.5h95.875v95.75a31.25 31.25 0 0 0 31.25 31.25" glyph-name="add-document-1" horiz-adv-x="1000" unicode="16"/><glyph d="M187.5 500a31.25 31.25 0 0 0 31.25 31.25h250v250a31.25 31.25 0 1 0 62.5 0v-250h250a31.25 31.25 0 1 0 0-62.5h-250v-250a31.25 31.25 0 0 0-62.5 0v250h-250A31.25 31.25 0 0 0 187.5 500" glyph-name="add-plus" horiz-adv-x="1000" unicode=""/><glyph d="M187.5 500a31.25 31.25 0 0 0 31.25 31.25h250v250a31.25 31.25 0 1 0 62.5 0v-250h250a31.25 31.25 0 1 0 0-62.5h-250v-250a31.25 31.25 0 0 0-62.5 0v250h-250A31.25 31.25 0 0 0 187.5 500" glyph-name="add-plus-1" horiz-adv-x="1000" unicode="16"/><glyph d="M412.5 928.625a437.5 437.5 0 0 0 514.25-524.562C916 363 893.625 333 864.312 314.938a137.5 137.5 0 0 0-94.062-17.5c-41.375 6.75-82.375 31.812-104.375 70.812a211.813 211.813 0 1 0-16.563 282v30.313a31.25 31.25 0 0 0 62.5 0v-248.25c0-37.563 30.188-66.938 68.5-73.125 18.438-3.063 36.563 0 51.25 9 14.313 8.75 27.813 24.75 35 52.5v.062a375 375 0 1 1-229.875-270A31.25 31.25 0 0 0 659.5 92.625a437.5 437.5 0 1 0-247.062 836m236.812-428.5a149.313 149.313 0 1 1 0-.25z" glyph-name="address" horiz-adv-x="1000" unicode=""/><glyph d="M412.5 928.625a437.5 437.5 0 0 0 514.25-524.562C916 363 893.625 333 864.312 314.938a137.5 137.5 0 0 0-94.062-17.5c-41.375 6.75-82.375 31.812-104.375 70.812a211.813 211.813 0 1 0-16.563 282v30.313a31.25 31.25 0 0 0 62.5 0v-248.25c0-37.563 30.188-66.938 68.5-73.125 18.438-3.063 36.563 0 51.25 9 14.313 8.75 27.813 24.75 35 52.5v.062a375 375 0 1 1-229.875-270A31.25 31.25 0 0 0 659.5 92.625a437.5 437.5 0 1 0-247.062 836m236.812-428.5a149.313 149.313 0 1 1 0-.25z" glyph-name="address-1" horiz-adv-x="1000" unicode="16"/><glyph d="M493.188 635.438a135.5 135.5 0 0 1 263.625 0h86.937a31.25 31.25 0 1 1 0 62.5h-86.937a135.5 135.5 0 0 1-263.625 0H156.25a31.25 31.25 0 0 1 0-62.5zM201.563 364.563H156.25a31.25 31.25 0 1 1 0-62.5h45.313a135.438 135.438 0 0 1 263.562 0H843.75a31.25 31.25 0 0 1 0 62.5H465.125a135.438 135.438 0 0 1-263.562 0" glyph-name="adjust-solid" horiz-adv-x="1000" unicode=""/><glyph d="M493.188 635.438a135.5 135.5 0 0 1 263.625 0h86.937a31.25 31.25 0 1 1 0 62.5h-86.937a135.5 135.5 0 0 1-263.625 0H156.25a31.25 31.25 0 0 1 0-62.5zM201.563 364.563H156.25a31.25 31.25 0 1 1 0-62.5h45.313a135.438 135.438 0 0 1 263.562 0H843.75a31.25 31.25 0 0 1 0 62.5H465.125a135.438 135.438 0 0 1-263.562 0" glyph-name="adjust-solid-1" horiz-adv-x="1000" unicode="16"/><glyph d="M493.188 697.938a135.5 135.5 0 0 0 263.625 0h86.937a31.25 31.25 0 0 0 0-62.5h-86.937a135.5 135.5 0 0 0-263.625 0H156.25a31.25 31.25 0 1 0 0 62.5zM201.563 364.563a135.5 135.5 0 0 0 263.562 0H843.75a31.25 31.25 0 1 0 0-62.5H465.125a135.438 135.438 0 0 0-263.562 0H156.25a31.25 31.25 0 0 0 0 62.5zm131.75 41.687a72.938 72.938 0 1 1 0-145.812 72.938 72.938 0 0 1 0 145.812M625 739.563a72.938 72.938 0 1 1 0-145.813 72.938 72.938 0 0 1 0 145.813" glyph-name="adjust" horiz-adv-x="1000" unicode=""/><glyph d="M493.188 697.938a135.5 135.5 0 0 0 263.625 0h86.937a31.25 31.25 0 0 0 0-62.5h-86.937a135.5 135.5 0 0 0-263.625 0H156.25a31.25 31.25 0 1 0 0 62.5zM201.563 364.563a135.5 135.5 0 0 0 263.562 0H843.75a31.25 31.25 0 1 0 0-62.5H465.125a135.438 135.438 0 0 0-263.562 0H156.25a31.25 31.25 0 0 0 0 62.5zm131.75 41.687a72.938 72.938 0 1 1 0-145.812 72.938 72.938 0 0 1 0 145.812M625 739.563a72.938 72.938 0 1 1 0-145.813 72.938 72.938 0 0 1 0 145.813" glyph-name="adjust-1" horiz-adv-x="1000" unicode="16"/><glyph d="M938.313 500c0 18-9.5 34.438-28.5 67.313L763.25 821.25c-18.938 32.813-28.437 49.25-44.062 58.25s-34.563 9.063-72.5 9.063H353.375c-37.937 0-56.875 0-72.5-9.063-15.625-9-25.125-25.437-44.125-58.25L90.125 567.313C71.188 534.375 61.688 518 61.688 500c0-18.062 9.5-34.437 28.437-67.312l146.625-254c19-32.813 28.438-49.25 44.063-58.25s34.625-9.063 72.5-9.063h293.312c37.938 0 56.875 0 72.5 9.063 15.625 9 25.125 25.437 44.063 58.25l146.625 254c19 32.875 28.5 49.25 28.5 67.312M500 348.688a151.25 151.25 0 1 0 0 302.5 151.25 151.25 0 0 0 0-302.5M938.313 500c0 18-9.5 34.438-28.5 67.313L763.25 821.25c-18.938 32.813-28.437 49.25-44.062 58.25s-34.563 9.063-72.5 9.063H353.375c-37.937 0-56.875 0-72.5-9.063-15.625-9-25.125-25.437-44.125-58.25L90.125 567.313C71.188 534.375 61.688 518 61.688 500c0-18.062 9.5-34.437 28.437-67.312l146.625-254c19-32.813 28.438-49.25 44.063-58.25s34.625-9.063 72.5-9.063h293.312c37.938 0 56.875 0 72.5 9.063 15.625 9 25.125 25.437 44.063 58.25l146.625 254c19 32.875 28.5 49.25 28.5 67.312M500 348.688a151.25 151.25 0 1 0 0 302.5 151.25 151.25 0 0 0 0-302.5M62.5 500a437.5 437.5 0 0 1 875 0 437.5 437.5 0 0 1-875 0" glyph-name="admin-center-apps" horiz-adv-x="1000" unicode=""/><glyph d="M938.313 500c0 18-9.5 34.438-28.5 67.313L763.25 821.25c-18.938 32.813-28.437 49.25-44.062 58.25s-34.563 9.063-72.5 9.063H353.375c-37.937 0-56.875 0-72.5-9.063-15.625-9-25.125-25.437-44.125-58.25L90.125 567.313C71.188 534.375 61.688 518 61.688 500c0-18.062 9.5-34.437 28.437-67.312l146.625-254c19-32.813 28.438-49.25 44.063-58.25s34.625-9.063 72.5-9.063h293.312c37.938 0 56.875 0 72.5 9.063 15.625 9 25.125 25.437 44.063 58.25l146.625 254c19 32.875 28.5 49.25 28.5 67.312M500 348.688a151.25 151.25 0 1 0 0 302.5 151.25 151.25 0 0 0 0-302.5M938.313 500c0 18-9.5 34.438-28.5 67.313L763.25 821.25c-18.938 32.813-28.437 49.25-44.062 58.25s-34.563 9.063-72.5 9.063H353.375c-37.937 0-56.875 0-72.5-9.063-15.625-9-25.125-25.437-44.125-58.25L90.125 567.313C71.188 534.375 61.688 518 61.688 500c0-18.062 9.5-34.437 28.437-67.312l146.625-254c19-32.813 28.438-49.25 44.063-58.25s34.625-9.063 72.5-9.063h293.312c37.938 0 56.875 0 72.5 9.063 15.625 9 25.125 25.437 44.063 58.25l146.625 254c19 32.875 28.5 49.25 28.5 67.312M500 348.688a151.25 151.25 0 1 0 0 302.5 151.25 151.25 0 0 0 0-302.5M62.5 500a437.5 437.5 0 0 1 875 0 437.5 437.5 0 0 1-875 0" glyph-name="admin-center-apps-1" horiz-adv-x="1000" unicode="16"/><glyph d="M938.313 500c0 18-9.5 34.438-28.5 67.313L763.25 821.25c-18.938 32.813-28.437 49.25-44.062 58.25s-34.563 9.063-72.5 9.063H353.375c-37.937 0-56.875 0-72.5-9.063-15.625-9-25.125-25.437-44.125-58.25L90.125 567.313C71.188 534.375 61.688 518 61.688 500c0-18.062 9.5-34.437 28.437-67.312l146.625-254c19-32.813 28.438-49.25 44.063-58.25s34.625-9.063 72.5-9.063h293.312c37.938 0 56.875 0 72.5 9.063 15.625 9 25.125 25.437 44.063 58.25l146.625 254c19 32.875 28.5 49.25 28.5 67.312M500 348.688a151.25 151.25 0 1 0 0 302.5 151.25 151.25 0 0 0 0-302.5M938.313 500c0 18-9.5 34.438-28.5 67.313L763.25 821.25c-18.938 32.813-28.437 49.25-44.062 58.25s-34.563 9.063-72.5 9.063H353.375c-37.937 0-56.875 0-72.5-9.063-15.625-9-25.125-25.437-44.125-58.25L90.125 567.313C71.188 534.375 61.688 518 61.688 500c0-18.062 9.5-34.437 28.437-67.312l146.625-254c19-32.813 28.438-49.25 44.063-58.25s34.625-9.063 72.5-9.063h293.312c37.938 0 56.875 0 72.5 9.063 15.625 9 25.125 25.437 44.063 58.25l146.625 254c19 32.875 28.5 49.25 28.5 67.312M500 348.688a151.25 151.25 0 1 0 0 302.5 151.25 151.25 0 0 0 0-302.5M62.5 500a437.5 437.5 0 0 1 875 0 437.5 437.5 0 0 1-875 0" glyph-name="admin-center-logo-apps" horiz-adv-x="1000" unicode=""/><glyph d="M938.313 500c0 18-9.5 34.438-28.5 67.313L763.25 821.25c-18.938 32.813-28.437 49.25-44.062 58.25s-34.563 9.063-72.5 9.063H353.375c-37.937 0-56.875 0-72.5-9.063-15.625-9-25.125-25.437-44.125-58.25L90.125 567.313C71.188 534.375 61.688 518 61.688 500c0-18.062 9.5-34.437 28.437-67.312l146.625-254c19-32.813 28.438-49.25 44.063-58.25s34.625-9.063 72.5-9.063h293.312c37.938 0 56.875 0 72.5 9.063 15.625 9 25.125 25.437 44.063 58.25l146.625 254c19 32.875 28.5 49.25 28.5 67.312M500 348.688a151.25 151.25 0 1 0 0 302.5 151.25 151.25 0 0 0 0-302.5M938.313 500c0 18-9.5 34.438-28.5 67.313L763.25 821.25c-18.938 32.813-28.437 49.25-44.062 58.25s-34.563 9.063-72.5 9.063H353.375c-37.937 0-56.875 0-72.5-9.063-15.625-9-25.125-25.437-44.125-58.25L90.125 567.313C71.188 534.375 61.688 518 61.688 500c0-18.062 9.5-34.437 28.437-67.312l146.625-254c19-32.813 28.438-49.25 44.063-58.25s34.625-9.063 72.5-9.063h293.312c37.938 0 56.875 0 72.5 9.063 15.625 9 25.125 25.437 44.063 58.25l146.625 254c19 32.875 28.5 49.25 28.5 67.312M500 348.688a151.25 151.25 0 1 0 0 302.5 151.25 151.25 0 0 0 0-302.5M62.5 500a437.5 437.5 0 0 1 875 0 437.5 437.5 0 0 1-875 0" glyph-name="admin-center-logo-apps-1" horiz-adv-x="1000" unicode="16"/><glyph d="M125 754.813a31.25 31.25 0 0 0 31.25 31.25h687.5a31.25 31.25 0 0 0 0-62.5h-687.5a31.25 31.25 0 0 0-31.25 31.25m0-343.75a31.25 31.25 0 0 0 31.25 31.25h687.5a31.25 31.25 0 0 0 0-62.5h-687.5a31.25 31.25 0 0 0-31.25 31.25m171.875 171.875a31.25 31.25 0 0 0 31.25 31.25h343.75a31.25 31.25 0 1 0 0-62.5h-343.75a31.25 31.25 0 0 0-31.25 31.25m0-343.75a31.25 31.25 0 0 0 31.25 31.25h343.75a31.25 31.25 0 0 0 0-62.5h-343.75a31.25 31.25 0 0 0-31.25 31.25" glyph-name="align-center" horiz-adv-x="1000" unicode=""/><glyph d="M125 754.813a31.25 31.25 0 0 0 31.25 31.25h687.5a31.25 31.25 0 0 0 0-62.5h-687.5a31.25 31.25 0 0 0-31.25 31.25m0-343.75a31.25 31.25 0 0 0 31.25 31.25h687.5a31.25 31.25 0 0 0 0-62.5h-687.5a31.25 31.25 0 0 0-31.25 31.25m171.875 171.875a31.25 31.25 0 0 0 31.25 31.25h343.75a31.25 31.25 0 1 0 0-62.5h-343.75a31.25 31.25 0 0 0-31.25 31.25m0-343.75a31.25 31.25 0 0 0 31.25 31.25h343.75a31.25 31.25 0 0 0 0-62.5h-343.75a31.25 31.25 0 0 0-31.25 31.25" glyph-name="align-center-1" horiz-adv-x="1000" unicode="16"/><glyph d="M125 754.813a31.25 31.25 0 0 0 31.25 31.25h687.5a31.25 31.25 0 0 0 0-62.5h-687.5a31.25 31.25 0 0 0-31.25 31.25m0-171.875a31.25 31.25 0 0 0 31.25 31.25h687.5a31.25 31.25 0 1 0 0-62.5h-687.5a31.25 31.25 0 0 0-31.25 31.25m0-171.875a31.25 31.25 0 0 0 31.25 31.25h687.5a31.25 31.25 0 1 0 0-62.5h-687.5a31.25 31.25 0 0 0-31.25 31.25m0-171.875a31.25 31.25 0 0 0 31.25 31.25h687.5a31.25 31.25 0 0 0 0-62.5h-687.5a31.25 31.25 0 0 0-31.25 31.25" glyph-name="align-justify" horiz-adv-x="1000" unicode=""/><glyph d="M125 754.813a31.25 31.25 0 0 0 31.25 31.25h687.5a31.25 31.25 0 0 0 0-62.5h-687.5a31.25 31.25 0 0 0-31.25 31.25m0-171.875a31.25 31.25 0 0 0 31.25 31.25h687.5a31.25 31.25 0 1 0 0-62.5h-687.5a31.25 31.25 0 0 0-31.25 31.25m0-171.875a31.25 31.25 0 0 0 31.25 31.25h687.5a31.25 31.25 0 1 0 0-62.5h-687.5a31.25 31.25 0 0 0-31.25 31.25m0-171.875a31.25 31.25 0 0 0 31.25 31.25h687.5a31.25 31.25 0 0 0 0-62.5h-687.5a31.25 31.25 0 0 0-31.25 31.25" glyph-name="align-justify-1" horiz-adv-x="1000" unicode="16"/><glyph d="M125 754.813a31.25 31.25 0 0 0 31.25 31.25h687.5a31.25 31.25 0 0 0 0-62.5h-687.5a31.25 31.25 0 0 0-31.25 31.25m0-171.875a31.25 31.25 0 0 0 31.25 31.25H500a31.25 31.25 0 1 0 0-62.5H156.25a31.25 31.25 0 0 0-31.25 31.25m0-171.875a31.25 31.25 0 0 0 31.25 31.25h687.5a31.25 31.25 0 1 0 0-62.5h-687.5a31.25 31.25 0 0 0-31.25 31.25m0-171.875a31.25 31.25 0 0 0 31.25 31.25H500a31.25 31.25 0 0 0 0-62.5H156.25a31.25 31.25 0 0 0-31.25 31.25" glyph-name="align-left" horiz-adv-x="1000" unicode=""/><glyph d="M125 754.813a31.25 31.25 0 0 0 31.25 31.25h687.5a31.25 31.25 0 0 0 0-62.5h-687.5a31.25 31.25 0 0 0-31.25 31.25m0-171.875a31.25 31.25 0 0 0 31.25 31.25H500a31.25 31.25 0 1 0 0-62.5H156.25a31.25 31.25 0 0 0-31.25 31.25m0-171.875a31.25 31.25 0 0 0 31.25 31.25h687.5a31.25 31.25 0 1 0 0-62.5h-687.5a31.25 31.25 0 0 0-31.25 31.25m0-171.875a31.25 31.25 0 0 0 31.25 31.25H500a31.25 31.25 0 0 0 0-62.5H156.25a31.25 31.25 0 0 0-31.25 31.25" glyph-name="align-left-1" horiz-adv-x="1000" unicode="16"/><glyph d="M125 754.813a31.25 31.25 0 0 0 31.25 31.25h687.5a31.25 31.25 0 0 0 0-62.5h-687.5a31.25 31.25 0 0 0-31.25 31.25m0-343.75a31.25 31.25 0 0 0 31.25 31.25h687.5a31.25 31.25 0 1 0 0-62.5h-687.5a31.25 31.25 0 0 0-31.25 31.25m343.75 171.875a31.25 31.25 0 0 0 31.25 31.25h343.75a31.25 31.25 0 1 0 0-62.5H500a31.25 31.25 0 0 0-31.25 31.25m0-343.75a31.25 31.25 0 0 0 31.25 31.25h343.75a31.25 31.25 0 0 0 0-62.5H500a31.25 31.25 0 0 0-31.25 31.25" glyph-name="align-right" horiz-adv-x="1000" unicode=""/><glyph d="M125 754.813a31.25 31.25 0 0 0 31.25 31.25h687.5a31.25 31.25 0 0 0 0-62.5h-687.5a31.25 31.25 0 0 0-31.25 31.25m0-343.75a31.25 31.25 0 0 0 31.25 31.25h687.5a31.25 31.25 0 1 0 0-62.5h-687.5a31.25 31.25 0 0 0-31.25 31.25m343.75 171.875a31.25 31.25 0 0 0 31.25 31.25h343.75a31.25 31.25 0 1 0 0-62.5H500a31.25 31.25 0 0 0-31.25 31.25m0-343.75a31.25 31.25 0 0 0 31.25 31.25h343.75a31.25 31.25 0 0 0 0-62.5H500a31.25 31.25 0 0 0-31.25 31.25" glyph-name="align-right-1" horiz-adv-x="1000" unicode="16"/><glyph d="M125 767.375a107.625 107.625 0 1 0 202.563-50.75l66.25-66.25A183.13 183.13 0 0 0 500.063 684c39.5 0 76.125-12.437 106.125-33.687l66.25 66.25a107.625 107.625 0 1 0 44.187-44.188l-66.25-66.25c21.25-30 33.688-66.625 33.688-106.125 0-39.562-12.5-76.187-33.75-106.125l66.25-66.25a107.625 107.625 0 1 0-44.188-44.187l-66.25 66.25c-30-21.25-66.562-33.75-106.125-33.75-39.5 0-76.125 12.5-106.125 33.75l-66.25-66.25a107.625 107.625 0 1 0-44.187 44.187l66.25 66.25A183.13 183.13 0 0 0 315.938 500c0 39.563 12.5 76.125 33.75 106.125l-66.25 66.25A107.625 107.625 0 0 0 125 767.438" glyph-name="api-solid" horiz-adv-x="1000" unicode=""/><glyph d="M125 767.375a107.625 107.625 0 1 0 202.563-50.75l66.25-66.25A183.13 183.13 0 0 0 500.063 684c39.5 0 76.125-12.437 106.125-33.687l66.25 66.25a107.625 107.625 0 1 0 44.187-44.188l-66.25-66.25c21.25-30 33.688-66.625 33.688-106.125 0-39.562-12.5-76.187-33.75-106.125l66.25-66.25a107.625 107.625 0 1 0-44.188-44.187l-66.25 66.25c-30-21.25-66.562-33.75-106.125-33.75-39.5 0-76.125 12.5-106.125 33.75l-66.25-66.25a107.625 107.625 0 1 0-44.187 44.187l66.25 66.25A183.13 183.13 0 0 0 315.938 500c0 39.563 12.5 76.125 33.75 106.125l-66.25 66.25A107.625 107.625 0 0 0 125 767.438" glyph-name="api-solid-1" horiz-adv-x="1000" unicode="16"/><glyph d="M125 767.375a107.625 107.625 0 1 0 202.563-50.75l66.25-66.25A183.13 183.13 0 0 0 500 683.938c39.563 0 76.188-12.5 106.125-33.688l66.25 66.25a107.625 107.625 0 1 0 44.188-44.187l-66.25-66.25c21.25-30 33.75-66.625 33.75-106.125 0-39.563-12.5-76.188-33.75-106.188l66.25-66.25a107.625 107.625 0 1 0-44.188-44.187l-66.25 66.25c-30-21.25-66.562-33.688-106.125-33.688s-76.125 12.5-106.125 33.75l-66.25-66.312a107.625 107.625 0 1 0-44.187 44.187l66.25 66.25A183.13 183.13 0 0 0 315.938 500c0 39.5 12.5 76.125 33.75 106.125l-66.313 66.25A107.625 107.625 0 0 0 125 767.438M232.625 812.5a45.125 45.125 0 1 1 0-90.25 45.125 45.125 0 0 1 0 90.25m0-534.75a45.125 45.125 0 1 1 0-90.25 45.125 45.125 0 0 1 0 90.25M500 621.5a121.563 121.563 0 1 1 0-243.062 121.563 121.563 0 0 1 0 243.125M767.375 812.5a45.125 45.125 0 1 1 0-90.25 45.125 45.125 0 0 1 0 90.25m0-534.75a45.125 45.125 0 1 1 0-90.25 45.125 45.125 0 0 1 0 90.25" glyph-name="api" horiz-adv-x="1000" unicode=""/><glyph d="M125 767.375a107.625 107.625 0 1 0 202.563-50.75l66.25-66.25A183.13 183.13 0 0 0 500 683.938c39.563 0 76.188-12.5 106.125-33.688l66.25 66.25a107.625 107.625 0 1 0 44.188-44.187l-66.25-66.25c21.25-30 33.75-66.625 33.75-106.125 0-39.563-12.5-76.188-33.75-106.188l66.25-66.25a107.625 107.625 0 1 0-44.188-44.187l-66.25 66.25c-30-21.25-66.562-33.688-106.125-33.688s-76.125 12.5-106.125 33.75l-66.25-66.312a107.625 107.625 0 1 0-44.187 44.187l66.25 66.25A183.13 183.13 0 0 0 315.938 500c0 39.5 12.5 76.125 33.75 106.125l-66.313 66.25A107.625 107.625 0 0 0 125 767.438M232.625 812.5a45.125 45.125 0 1 1 0-90.25 45.125 45.125 0 0 1 0 90.25m0-534.75a45.125 45.125 0 1 1 0-90.25 45.125 45.125 0 0 1 0 90.25M500 621.5a121.563 121.563 0 1 1 0-243.062 121.563 121.563 0 0 1 0 243.125M767.375 812.5a45.125 45.125 0 1 1 0-90.25 45.125 45.125 0 0 1 0 90.25m0-534.75a45.125 45.125 0 1 1 0-90.25 45.125 45.125 0 0 1 0 90.25" glyph-name="api-1" horiz-adv-x="1000" unicode="16"/><glyph d="M709.625 476.375c.25 28.75 8 56.938 22.5 81.938s35.312 46 60.438 60.937a177.5 177.5 0 0 1-61.25 53.75 181.25 181.25 0 0 1-79.25 21.25c-59.876 6-115.126-34.125-147-34.125s-76.75 33.375-126.688 32.625a193.75 193.75 0 0 1-92.25-26.937c-27.813-16.625-50.813-40-66.625-67.938-67.5-114.75-17.25-285.312 50.25-377.937 30.75-45.375 69.125-96.75 119.812-94.875s67.125 30.75 125.875 30.75 76.75-30.75 126.625-29.626c49.938 1.125 85.25 46.5 117.5 91.875A410 410 0 0 1 812.5 324.937a168.75 168.75 0 0 0-74.625 60.625 162.5 162.5 0 0 0-28.25 90.813m-96.687 279c14.5 16.375 25.562 35.313 32.5 55.875 7 20.5 9.75 42.188 8.125 63.75a171.88 171.88 0 0 1-115.125-57 156.25 156.25 0 0 1-31.25-54.125 153.1 153.1 0 0 1-7.126-61.75 143.75 143.75 0 0 1 62.813 13.75c19.563 9.25 36.688 22.75 50 39.5" glyph-name="apple" horiz-adv-x="1000" unicode=""/><glyph d="M709.625 476.375c.25 28.75 8 56.938 22.5 81.938s35.312 46 60.438 60.937a177.5 177.5 0 0 1-61.25 53.75 181.25 181.25 0 0 1-79.25 21.25c-59.876 6-115.126-34.125-147-34.125s-76.75 33.375-126.688 32.625a193.75 193.75 0 0 1-92.25-26.937c-27.813-16.625-50.813-40-66.625-67.938-67.5-114.75-17.25-285.312 50.25-377.937 30.75-45.375 69.125-96.75 119.812-94.875s67.125 30.75 125.875 30.75 76.75-30.75 126.625-29.626c49.938 1.125 85.25 46.5 117.5 91.875A410 410 0 0 1 812.5 324.937a168.75 168.75 0 0 0-74.625 60.625 162.5 162.5 0 0 0-28.25 90.813m-96.687 279c14.5 16.375 25.562 35.313 32.5 55.875 7 20.5 9.75 42.188 8.125 63.75a171.88 171.88 0 0 1-115.125-57 156.25 156.25 0 0 1-31.25-54.125 153.1 153.1 0 0 1-7.126-61.75 143.75 143.75 0 0 1 62.813 13.75c19.563 9.25 36.688 22.75 50 39.5" glyph-name="apple-1" horiz-adv-x="1000" unicode="16"/><glyph d="M841.313 841.5a112.5 112.5 0 0 1-159.125 0L363.875 523.125c-33.125-33.125-41.25-81.75-24.5-122.5-26.312 9.563-57.875 10.438-92.812.375-35.938-10.375-56.25-31.75-67.25-57.437-7.5-17.5-10.625-38.25-12.813-53.438l-1.562-10c-3.125-18.312-6.75-25.625-11.688-29.813-4.75-3.937-17.875-10.625-54.75-7.125a30.688 30.688 0 0 1-16.625-58c90.563-45.312 164.313-56.312 220.938-42.687 57.687 13.812 94 52.562 108.062 97.062a140 140 0 0 1-4.75 97.75A112.5 112.5 0 0 1 523 363.937L841.313 682.25a112.5 112.5 0 0 1 0 159.187M725.563 798a51.188 51.188 0 0 0 72.375-72.312l-318.313-318.25a51.125 51.125 0 1 0-72.375 72.312z" glyph-name="appreance-solid" horiz-adv-x="1000" unicode=""/><glyph d="M841.313 841.5a112.5 112.5 0 0 1-159.125 0L363.875 523.125c-33.125-33.125-41.25-81.75-24.5-122.5-26.312 9.563-57.875 10.438-92.812.375-35.938-10.375-56.25-31.75-67.25-57.437-7.5-17.5-10.625-38.25-12.813-53.438l-1.562-10c-3.125-18.312-6.75-25.625-11.688-29.813-4.75-3.937-17.875-10.625-54.75-7.125a30.688 30.688 0 0 1-16.625-58c90.563-45.312 164.313-56.312 220.938-42.687 57.687 13.812 94 52.562 108.062 97.062a140 140 0 0 1-4.75 97.75A112.5 112.5 0 0 1 523 363.937L841.313 682.25a112.5 112.5 0 0 1 0 159.187M725.563 798a51.188 51.188 0 0 0 72.375-72.312l-318.313-318.25a51.125 51.125 0 1 0-72.375 72.312z" glyph-name="appreance-solid-1" horiz-adv-x="1000" unicode="16"/><glyph d="M681.875 841.875A113.125 113.125 0 0 0 841.75 681.938L523.5 363.625a113.13 113.13 0 0 0-116.25-27.187 140.63 140.63 0 0 0 4.188-97c-14.125-44.625-50.563-83.5-108.438-97.5-56.875-13.626-130.687-2.5-221.25 42.812a31.25 31.25 0 0 0 16.875 59.063c36.813-3.438 49.688 3.125 54.313 7 4.75 4 8.312 11.25 11.5 29.375L166 290.25c2.25 15.125 5.313 36 12.813 53.625 11.062 25.813 31.562 47.313 67.625 57.688 34.5 10 65.812 9.312 92 0a113.13 113.13 0 0 0 25.062 122zm-341.25-515c-12.5 14.75-36.125 26.438-76.875 14.688-17.312-5-23.5-13-27.437-22.25-4.063-9.5-5.563-19.375-7.625-33q-1.063-7.438-2.688-16.75c-3.125-18.188-8.75-43.563-28.562-62.75 38.5-9.688 68.5-9.438 90.937-4.063 36.25 8.75 55.875 31.375 63.438 55.5 8.062 25.375 2.75 51.938-11.25 68.563M797.5 797.625a50.625 50.625 0 0 1-71.5 0l-318.25-318.25a50.625 50.625 0 0 1 71.5-71.562l318.313 318.312a50.625 50.625 0 0 1 0 71.563" glyph-name="appreance" horiz-adv-x="1000" unicode=""/><glyph d="M681.875 841.875A113.125 113.125 0 0 0 841.75 681.938L523.5 363.625a113.13 113.13 0 0 0-116.25-27.187 140.63 140.63 0 0 0 4.188-97c-14.125-44.625-50.563-83.5-108.438-97.5-56.875-13.626-130.687-2.5-221.25 42.812a31.25 31.25 0 0 0 16.875 59.063c36.813-3.438 49.688 3.125 54.313 7 4.75 4 8.312 11.25 11.5 29.375L166 290.25c2.25 15.125 5.313 36 12.813 53.625 11.062 25.813 31.562 47.313 67.625 57.688 34.5 10 65.812 9.312 92 0a113.13 113.13 0 0 0 25.062 122zm-341.25-515c-12.5 14.75-36.125 26.438-76.875 14.688-17.312-5-23.5-13-27.437-22.25-4.063-9.5-5.563-19.375-7.625-33q-1.063-7.438-2.688-16.75c-3.125-18.188-8.75-43.563-28.562-62.75 38.5-9.688 68.5-9.438 90.937-4.063 36.25 8.75 55.875 31.375 63.438 55.5 8.062 25.375 2.75 51.938-11.25 68.563M797.5 797.625a50.625 50.625 0 0 1-71.5 0l-318.25-318.25a50.625 50.625 0 0 1 71.5-71.562l318.313 318.312a50.625 50.625 0 0 1 0 71.563" glyph-name="appreance-1" horiz-adv-x="1000" unicode="16"/><glyph d="M321.188 843.75a31.25 31.25 0 0 1-62.5 0V741.313H156.25a31.25 31.25 0 1 1 0-62.5h102.438V576.375a31.25 31.25 0 1 1 62.5 0v102.5h102.437a31.25 31.25 0 0 1 0 62.5h-102.5zM614.563 875c-38.313 0-69.375-31.125-69.375-69.437v-191c0-38.313 31.062-69.375 69.375-69.375h191c38.375 0 69.437 31.062 69.437 69.375v191.062C875 843.938 843.875 875 805.563 875zM194.438 454.875c-38.375 0-69.438-31.125-69.438-69.437v-191C125 156.063 156.125 125 194.438 125h191c38.312 0 69.375 31.125 69.375 69.438v191c0 38.312-31.063 69.375-69.375 69.375zm420.125 0c-38.313 0-69.375-31.125-69.375-69.437v-191c0-38.375 31.062-69.438 69.375-69.438h191C843.938 125 875 156.125 875 194.438v191c0 38.312-31.125 69.375-69.437 69.375z" glyph-name="apps-solid" horiz-adv-x="1000" unicode=""/><glyph d="M321.188 843.75a31.25 31.25 0 0 1-62.5 0V741.313H156.25a31.25 31.25 0 1 1 0-62.5h102.438V576.375a31.25 31.25 0 1 1 62.5 0v102.5h102.437a31.25 31.25 0 0 1 0 62.5h-102.5zM614.563 875c-38.313 0-69.375-31.125-69.375-69.437v-191c0-38.313 31.062-69.375 69.375-69.375h191c38.375 0 69.437 31.062 69.437 69.375v191.062C875 843.938 843.875 875 805.563 875zM194.438 454.875c-38.375 0-69.438-31.125-69.438-69.437v-191C125 156.063 156.125 125 194.438 125h191c38.312 0 69.375 31.125 69.375 69.438v191c0 38.312-31.063 69.375-69.375 69.375zm420.125 0c-38.313 0-69.375-31.125-69.375-69.437v-191c0-38.375 31.062-69.438 69.375-69.438h191C843.938 125 875 156.125 875 194.438v191c0 38.312-31.125 69.375-69.437 69.375z" glyph-name="apps-solid-1" horiz-adv-x="1000" unicode="16"/><glyph d="M125 385.438c0 38.375 31.125 69.437 69.438 69.437h191c38.312 0 69.375-31.062 69.375-69.437v-191c0-38.313-31.063-69.375-69.375-69.375H194.375A69.375 69.375 0 0 0 125 194.375zM289.938 875a31.25 31.25 0 0 0 31.25-31.25v-102.5h102.5a31.25 31.25 0 0 0 0-62.5h-102.5V576.375a31.25 31.25 0 0 0-62.5 0V678.75H156.25a31.25 31.25 0 1 0 0 62.5h102.5v102.5A31.25 31.25 0 0 0 290 875m-95.625-482.625a6.875 6.875 0 0 1-6.875-6.937v-191c0-3.75 3.125-6.875 6.938-6.875h191c3.75 0 6.875 3.125 6.875 6.875v191a6.875 6.875 0 0 1-6.875 6.937zM545.063 805.5c.062 38.438 31.187 69.5 69.5 69.5h191C843.938 875 875 843.875 875 805.5V614.563c0-38.375-31.125-69.438-69.437-69.438h-191a69.375 69.375 0 0 0-69.375 69.375zm0-420.062c0 38.375 31.125 69.437 69.437 69.437h191c38.375 0 69.438-31.062 69.438-69.437v-191c0-38.313-31.125-69.375-69.438-69.375H614.563a69.375 69.375 0 0 0-69.375 69.375zm69.5 427.062a6.875 6.875 0 0 1-6.875-6.937v-191c0-3.813 3.125-6.938 6.875-6.938h191c3.812 0 6.937 3.125 6.937 6.875v191.063a6.875 6.875 0 0 1-6.937 6.937zm0-420.125a6.875 6.875 0 0 1-6.875-6.938v-191c0-3.75 3.125-6.875 6.875-6.875h191c3.812 0 6.937 3.125 6.937 6.875v191a6.875 6.875 0 0 1-6.937 6.938z" glyph-name="apps" horiz-adv-x="1000" unicode=""/><glyph d="M125 385.438c0 38.375 31.125 69.437 69.438 69.437h191c38.312 0 69.375-31.062 69.375-69.437v-191c0-38.313-31.063-69.375-69.375-69.375H194.375A69.375 69.375 0 0 0 125 194.375zM289.938 875a31.25 31.25 0 0 0 31.25-31.25v-102.5h102.5a31.25 31.25 0 0 0 0-62.5h-102.5V576.375a31.25 31.25 0 0 0-62.5 0V678.75H156.25a31.25 31.25 0 1 0 0 62.5h102.5v102.5A31.25 31.25 0 0 0 290 875m-95.625-482.625a6.875 6.875 0 0 1-6.875-6.937v-191c0-3.75 3.125-6.875 6.938-6.875h191c3.75 0 6.875 3.125 6.875 6.875v191a6.875 6.875 0 0 1-6.875 6.937zM545.063 805.5c.062 38.438 31.187 69.5 69.5 69.5h191C843.938 875 875 843.875 875 805.5V614.563c0-38.375-31.125-69.438-69.437-69.438h-191a69.375 69.375 0 0 0-69.375 69.375zm0-420.062c0 38.375 31.125 69.437 69.437 69.437h191c38.375 0 69.438-31.062 69.438-69.437v-191c0-38.313-31.125-69.375-69.438-69.375H614.563a69.375 69.375 0 0 0-69.375 69.375zm69.5 427.062a6.875 6.875 0 0 1-6.875-6.937v-191c0-3.813 3.125-6.938 6.875-6.938h191c3.812 0 6.937 3.125 6.937 6.875v191.063a6.875 6.875 0 0 1-6.937 6.937zm0-420.125a6.875 6.875 0 0 1-6.875-6.938v-191c0-3.75 3.125-6.875 6.875-6.875h191c3.812 0 6.937 3.125 6.937 6.875v191a6.875 6.875 0 0 1-6.937 6.938z" glyph-name="apps-1" horiz-adv-x="1000" unicode="16"/><glyph d="M168 583.063a74.38 74.38 0 0 0-43 67.312v129c0 41 33.25 74.188 74.25 74.188h601.562c40.938 0 74.188-33.188 74.188-74.188V650.438c0-29.813-17.563-55.5-42.938-67.313V220.75c0-41-33.25-74.187-74.25-74.187H242.187A74.19 74.19 0 0 0 168 220.75zm31.25 55.625h601.563a11.875 11.875 0 0 1 11.687 11.687v129a11.69 11.69 0 0 1-11.687 11.688H199.25a11.875 11.875 0 0 1-11.75-11.688V650.438c0-6.438 5.25-11.688 11.75-11.688m183.563-160.187a31.25 31.25 0 0 1 31.25-31.25h171.875a31.25 31.25 0 0 1 0 62.5H414.063a31.25 31.25 0 0 1-31.25-31.25" glyph-name="archive-box-solid" horiz-adv-x="1000" unicode=""/><glyph d="M168 583.063a74.38 74.38 0 0 0-43 67.312v129c0 41 33.25 74.188 74.25 74.188h601.562c40.938 0 74.188-33.188 74.188-74.188V650.438c0-29.813-17.563-55.5-42.938-67.313V220.75c0-41-33.25-74.187-74.25-74.187H242.187A74.19 74.19 0 0 0 168 220.75zm31.25 55.625h601.563a11.875 11.875 0 0 1 11.687 11.687v129a11.69 11.69 0 0 1-11.687 11.688H199.25a11.875 11.875 0 0 1-11.75-11.688V650.438c0-6.438 5.25-11.688 11.75-11.688m183.563-160.187a31.25 31.25 0 0 1 31.25-31.25h171.875a31.25 31.25 0 0 1 0 62.5H414.063a31.25 31.25 0 0 1-31.25-31.25" glyph-name="archive-box-solid-1" horiz-adv-x="1000" unicode="16"/><glyph d="M125 779.375c0 40.938 33.25 74.188 74.25 74.188h601.562c40.938 0 74.188-33.25 74.188-74.25V650.438c0-29.875-17.563-55.625-42.938-67.375V220.75c0-41-33.25-74.25-74.25-74.25H242.187A74.19 74.19 0 0 0 168 220.75v362.313a74.38 74.38 0 0 0-43 67.375zm74.25 11.688a11.875 11.875 0 0 1-11.75-11.75V650.438c0-6.5 5.25-11.75 11.75-11.75h601.563a11.69 11.69 0 0 1 11.687 11.75v128.875a11.875 11.875 0 0 1-11.687 11.75zm31.25-214.875V220.75c0-6.5 5.188-11.75 11.688-11.75h515.625a11.69 11.69 0 0 1 11.75 11.75v355.438zm152.313-97.625a31.25 31.25 0 0 1 31.25-31.25h171.875a31.25 31.25 0 1 1 0 62.5H414.063a31.25 31.25 0 0 1-31.25-31.25" glyph-name="archive-box" horiz-adv-x="1000" unicode=""/><glyph d="M125 779.375c0 40.938 33.25 74.188 74.25 74.188h601.562c40.938 0 74.188-33.25 74.188-74.25V650.438c0-29.875-17.563-55.625-42.938-67.375V220.75c0-41-33.25-74.25-74.25-74.25H242.187A74.19 74.19 0 0 0 168 220.75v362.313a74.38 74.38 0 0 0-43 67.375zm74.25 11.688a11.875 11.875 0 0 1-11.75-11.75V650.438c0-6.5 5.25-11.75 11.75-11.75h601.563a11.69 11.69 0 0 1 11.687 11.75v128.875a11.875 11.875 0 0 1-11.687 11.75zm31.25-214.875V220.75c0-6.5 5.188-11.75 11.688-11.75h515.625a11.69 11.69 0 0 1 11.75 11.75v355.438zm152.313-97.625a31.25 31.25 0 0 1 31.25-31.25h171.875a31.25 31.25 0 1 1 0 62.5H414.063a31.25 31.25 0 0 1-31.25-31.25" glyph-name="archive-box-1" horiz-adv-x="1000" unicode="16"/><glyph d="M500 937.5a437.5 437.5 0 1 0 0-875 437.5 437.5 0 0 0 0 875m175.813-486.438a31.25 31.25 0 1 1-44.188 44.188L531.25 394.875V680.5a31.25 31.25 0 1 1-62.5 0V394.875L368.375 495.25a31.25 31.25 0 1 1-44.187-44.188l153.75-153.75a31.25 31.25 0 0 1 44.187 0z" glyph-name="arrow-circle-down-solid" horiz-adv-x="1000" unicode=""/><glyph d="M500 937.5a437.5 437.5 0 1 0 0-875 437.5 437.5 0 0 0 0 875m175.813-486.438a31.25 31.25 0 1 1-44.188 44.188L531.25 394.875V680.5a31.25 31.25 0 1 1-62.5 0V394.875L368.375 495.25a31.25 31.25 0 1 1-44.187-44.188l153.75-153.75a31.25 31.25 0 0 1 44.187 0z" glyph-name="arrow-circle-down-solid-1" horiz-adv-x="1000" unicode="16"/><glyph d="M62.5 500a437.5 437.5 0 1 0 875 0 437.5 437.5 0 0 0-875 0M500 875a375 375 0 1 1 0-750 375 375 0 0 1 0 750m0-163.187a31.25 31.25 0 0 1-31.25-31.25V394.937l-100.375 100.25A31.25 31.25 0 0 1 324.188 451l153.75-153.75a31.25 31.25 0 0 1 44.187 0L675.813 451a31.25 31.25 0 0 1-44.188 44.188L531.25 394.875V680.5A31.25 31.25 0 0 1 500 711.75" glyph-name="arrow-circle-down" horiz-adv-x="1000" unicode=""/><glyph d="M62.5 500a437.5 437.5 0 1 0 875 0 437.5 437.5 0 0 0-875 0M500 875a375 375 0 1 1 0-750 375 375 0 0 1 0 750m0-163.187a31.25 31.25 0 0 1-31.25-31.25V394.937l-100.375 100.25A31.25 31.25 0 0 1 324.188 451l153.75-153.75a31.25 31.25 0 0 1 44.187 0L675.813 451a31.25 31.25 0 0 1-44.188 44.188L531.25 394.875V680.5A31.25 31.25 0 0 1 500 711.75" glyph-name="arrow-circle-down-1" horiz-adv-x="1000" unicode="16"/><glyph d="M500 937.5a437.5 437.5 0 1 0 0-875 437.5 437.5 0 0 0 0 875m-48.937-613.312a31.25 31.25 0 0 1 44.187 44.187L394.875 468.75H680.5a31.25 31.25 0 1 1 0 62.5H394.875L495.25 631.625a31.25 31.25 0 0 1-44.187 44.188l-153.75-153.75a31.25 31.25 0 0 1 0-44.188z" glyph-name="arrow-circle-left-solid" horiz-adv-x="1000" unicode=""/><glyph d="M500 937.5a437.5 437.5 0 1 0 0-875 437.5 437.5 0 0 0 0 875m-48.937-613.312a31.25 31.25 0 0 1 44.187 44.187L394.875 468.75H680.5a31.25 31.25 0 1 1 0 62.5H394.875L495.25 631.625a31.25 31.25 0 0 1-44.187 44.188l-153.75-153.75a31.25 31.25 0 0 1 0-44.188z" glyph-name="arrow-circle-left-solid-1" horiz-adv-x="1000" unicode="16"/><glyph d="M62.5 500a437.5 437.5 0 1 0 875 0 437.5 437.5 0 0 0-875 0M500 875a375 375 0 1 1 0-750 375 375 0 0 1 0 750m-4.75-199.187a31.25 31.25 0 0 1-44.187 0l-153.75-153.75a31.25 31.25 0 0 1 0-44.188l153.75-153.75a31.25 31.25 0 1 1 44.187 44.25L394.875 468.75H680.5a31.25 31.25 0 1 1 0 62.5H394.875L495.25 631.625a31.25 31.25 0 0 1 0 44.188" glyph-name="arrow-circle-left" horiz-adv-x="1000" unicode=""/><glyph d="M62.5 500a437.5 437.5 0 1 0 875 0 437.5 437.5 0 0 0-875 0M500 875a375 375 0 1 1 0-750 375 375 0 0 1 0 750m-4.75-199.187a31.25 31.25 0 0 1-44.187 0l-153.75-153.75a31.25 31.25 0 0 1 0-44.188l153.75-153.75a31.25 31.25 0 1 1 44.187 44.25L394.875 468.75H680.5a31.25 31.25 0 1 1 0 62.5H394.875L495.25 631.625a31.25 31.25 0 0 1 0 44.188" glyph-name="arrow-circle-left-1" horiz-adv-x="1000" unicode="16"/><glyph d="M500 937.5a437.5 437.5 0 1 0 0-875 437.5 437.5 0 0 0 0 875m48.938-261.687a31.25 31.25 0 0 1-44.188-44.188L605.125 531.25H319.5a31.25 31.25 0 1 1 0-62.5h285.625L504.75 368.375a31.25 31.25 0 0 1 44.188-44.187l153.75 153.75a31.25 31.25 0 0 1 0 44.187z" glyph-name="arrow-circle-right-solid" horiz-adv-x="1000" unicode=""/><glyph d="M500 937.5a437.5 437.5 0 1 0 0-875 437.5 437.5 0 0 0 0 875m48.938-261.687a31.25 31.25 0 0 1-44.188-44.188L605.125 531.25H319.5a31.25 31.25 0 1 1 0-62.5h285.625L504.75 368.375a31.25 31.25 0 0 1 44.188-44.187l153.75 153.75a31.25 31.25 0 0 1 0 44.187z" glyph-name="arrow-circle-right-solid-1" horiz-adv-x="1000" unicode="16"/><glyph d="M62.5 500a437.5 437.5 0 1 0 875 0 437.5 437.5 0 0 0-875 0M500 875a375 375 0 1 1 0-750 375 375 0 0 1 0 750m4.75-199.187a31.25 31.25 0 0 1 0-44.188L605.125 531.25H319.5a31.25 31.25 0 0 1 0-62.5h285.625L504.75 368.375a31.25 31.25 0 1 1 44.188-44.187l153.75 153.75a31.25 31.25 0 0 1 0 44.187l-153.75 153.75a31.25 31.25 0 0 1-44.188 0" glyph-name="arrow-circle-right" horiz-adv-x="1000" unicode=""/><glyph d="M62.5 500a437.5 437.5 0 1 0 875 0 437.5 437.5 0 0 0-875 0M500 875a375 375 0 1 1 0-750 375 375 0 0 1 0 750m4.75-199.187a31.25 31.25 0 0 1 0-44.188L605.125 531.25H319.5a31.25 31.25 0 0 1 0-62.5h285.625L504.75 368.375a31.25 31.25 0 1 1 44.188-44.187l153.75 153.75a31.25 31.25 0 0 1 0 44.187l-153.75 153.75a31.25 31.25 0 0 1-44.188 0" glyph-name="arrow-circle-right-1" horiz-adv-x="1000" unicode="16"/><glyph d="M500 937.5a437.5 437.5 0 1 0 0-875 437.5 437.5 0 0 0 0 875M324.188 548.938a31.25 31.25 0 0 1 44.187-44.188L468.75 605.125V319.5a31.25 31.25 0 1 1 62.5 0v285.625L631.625 504.75a31.25 31.25 0 0 1 44.188 44.188l-153.75 153.75a31.25 31.25 0 0 1-44.188 0z" glyph-name="arrow-circle-up-solid" horiz-adv-x="1000" unicode=""/><glyph d="M500 937.5a437.5 437.5 0 1 0 0-875 437.5 437.5 0 0 0 0 875M324.188 548.938a31.25 31.25 0 0 1 44.187-44.188L468.75 605.125V319.5a31.25 31.25 0 1 1 62.5 0v285.625L631.625 504.75a31.25 31.25 0 0 1 44.188 44.188l-153.75 153.75a31.25 31.25 0 0 1-44.188 0z" glyph-name="arrow-circle-up-solid-1" horiz-adv-x="1000" unicode="16"/><glyph d="M62.5 500a437.5 437.5 0 1 0 875 0 437.5 437.5 0 0 0-875 0M500 875a375 375 0 1 1 0-750 375 375 0 0 1 0 750m0-163.187a31.25 31.25 0 0 1-22.125-9.188L324.188 548.938a31.25 31.25 0 1 1 44.187-44.188L468.75 605.125V319.5a31.25 31.25 0 0 1 62.5 0v285.625L631.625 504.75a31.25 31.25 0 1 1 44.188 44.188l-153.75 153.75A31.25 31.25 0 0 1 500 711.75" glyph-name="arrow-circle-up" horiz-adv-x="1000" unicode=""/><glyph d="M62.5 500a437.5 437.5 0 1 0 875 0 437.5 437.5 0 0 0-875 0M500 875a375 375 0 1 1 0-750 375 375 0 0 1 0 750m0-163.187a31.25 31.25 0 0 1-22.125-9.188L324.188 548.938a31.25 31.25 0 1 1 44.187-44.188L468.75 605.125V319.5a31.25 31.25 0 0 1 62.5 0v285.625L631.625 504.75a31.25 31.25 0 1 1 44.188 44.188l-153.75 153.75A31.25 31.25 0 0 1 500 711.75" glyph-name="arrow-circle-up-1" horiz-adv-x="1000" unicode="16"/><glyph d="M806.5 481.5a31.25 31.25 0 0 0 0-44.187L522.125 152.938a31.25 31.25 0 0 0-44.25 0L193.5 437.313a31.25 31.25 0 1 0 44.25 44.187l231-231.062V825a31.25 31.25 0 1 0 62.5 0V250.438l231 231.062a31.25 31.25 0 0 0 44.188 0" glyph-name="arrow-down" horiz-adv-x="1000" unicode=""/><glyph d="M806.5 481.5a31.25 31.25 0 0 0 0-44.187L522.125 152.938a31.25 31.25 0 0 0-44.25 0L193.5 437.313a31.25 31.25 0 1 0 44.25 44.187l231-231.062V825a31.25 31.25 0 1 0 62.5 0V250.438l231 231.062a31.25 31.25 0 0 0 44.188 0" glyph-name="arrow-down-1" horiz-adv-x="1000" unicode="16"/><glyph d="M481.438 193.5a31.25 31.25 0 0 0-44.188 0L152.875 477.875a31.25 31.25 0 0 0 0 44.188L437.25 806.438a31.25 31.25 0 1 0 44.188-44.188l-231-231H825a31.25 31.25 0 0 0 0-62.5H250.438l231-231a31.25 31.25 0 0 0 0-44.187" glyph-name="arrow-left" horiz-adv-x="1000" unicode=""/><glyph d="M481.438 193.5a31.25 31.25 0 0 0-44.188 0L152.875 477.875a31.25 31.25 0 0 0 0 44.188L437.25 806.438a31.25 31.25 0 1 0 44.188-44.188l-231-231H825a31.25 31.25 0 0 0 0-62.5H250.438l231-231a31.25 31.25 0 0 0 0-44.187" glyph-name="arrow-left-1" horiz-adv-x="1000" unicode="16"/><glyph d="M518.563 806.438a31.25 31.25 0 0 0 44.187 0l284.375-284.375a31.25 31.25 0 0 0 0-44.188L562.75 193.5a31.25 31.25 0 1 0-44.187 44.25l231 231H175a31.25 31.25 0 0 0 0 62.5h574.562l-231 231a31.25 31.25 0 0 0 0 44.188" glyph-name="arrow-right" horiz-adv-x="1000" unicode=""/><glyph d="M518.563 806.438a31.25 31.25 0 0 0 44.187 0l284.375-284.375a31.25 31.25 0 0 0 0-44.188L562.75 193.5a31.25 31.25 0 1 0-44.187 44.25l231 231H175a31.25 31.25 0 0 0 0 62.5h574.562l-231 231a31.25 31.25 0 0 0 0 44.188" glyph-name="arrow-right-1" horiz-adv-x="1000" unicode="16"/><glyph d="M806.438 518.563a31.25 31.25 0 0 1 0 44.187L522.063 847.125a31.25 31.25 0 0 1-44.188 0L193.5 562.75a31.25 31.25 0 1 1 44.188-44.187l231.062 231V175a31.25 31.25 0 1 1 62.5 0v574.563l231-231a31.25 31.25 0 0 1 44.188 0" glyph-name="arrow-up" horiz-adv-x="1000" unicode=""/><glyph d="M806.438 518.563a31.25 31.25 0 0 1 0 44.187L522.063 847.125a31.25 31.25 0 0 1-44.188 0L193.5 562.75a31.25 31.25 0 1 1 44.188-44.187l231.062 231V175a31.25 31.25 0 1 1 62.5 0v574.563l231-231a31.25 31.25 0 0 1 44.188 0" glyph-name="arrow-up-1" horiz-adv-x="1000" unicode="16"/><glyph d="M197.625 724a31.25 31.25 0 0 0 10.125-43.062 343.75 343.75 0 0 1 56.125-430.813l-5 48.188A31.25 31.25 0 1 0 321 304.875l12.625-120.312A31.375 31.375 0 0 0 300.188 150l-122.125-2.313a31.25 31.25 0 0 0-1.125 62.5l37.562.75A406.25 406.25 0 0 0 104.5 407a406.25 406.25 0 0 0 50.063 306.875A31.25 31.25 0 0 0 197.625 724m179.75 243.875A31.25 31.25 0 0 0 394 926.938l-16.75-39.688a406.25 406.25 0 0 0 478.125-190.312 31.25 31.25 0 0 0-54.75-30.313A343.75 343.75 0 0 1 409 831.438l38.313-12.375a31.25 31.25 0 0 0-19.25-59.438L310.25 797.75a31.25 31.25 0 0 0-19.625 44.875l45.813 108.625a31.25 31.25 0 0 0 40.937 16.625m210.875-280.25H378.375a31.25 31.25 0 1 1 0-62.5h4.563c3.187-46.937 14.062-80.375 32.375-104.812q9.062-11.876 19.375-20.313-10.375-8.375-19.438-20.312c-18.312-24.375-29.187-57.875-32.375-104.813h-4.5a31.25 31.25 0 0 1 0-62.5h243.25a31.25 31.25 0 0 1 0 62.5h-4.437c-3.25 46.875-14.125 80.375-32.438 104.75A125 125 0 0 1 565.375 500a125 125 0 0 1 19.375 20.375c18.25 24.375 29.125 57.813 32.375 104.75h4.5a31.25 31.25 0 1 1 0 62.5zM500 466.25c15.75-6.75 26.313-12.875 34.75-24.125 8.375-11.125 16.75-30.437 19.75-67.25H445.563c3 36.875 11.375 56.188 19.687 67.313 8.438 11.25 19 17.312 34.75 24.062m0 67.5c15.75 6.75 26.25 12.875 34.688 24.125 8.375 11.125 16.687 30.438 19.75 67.25H445.563c3.062-36.875 11.437-56.187 19.75-67.312 8.437-11.25 18.937-17.313 34.687-24m332.625-120.438a343.75 343.75 0 0 0-348.063-256.75 31.25 31.25 0 0 1-2.75-62.437 406.25 406.25 0 0 1 410.25 299.375l18.5-30.75a31.25 31.25 0 1 1 53.563 32.25l-62.063 103.125a31.25 31.25 0 0 1-48.062 8.5l-98.875-72.813a31.25 31.25 0 0 1 37.062-50.312z" glyph-name="background-process" horiz-adv-x="1000" unicode=""/><glyph d="M197.625 724a31.25 31.25 0 0 0 10.125-43.062 343.75 343.75 0 0 1 56.125-430.813l-5 48.188A31.25 31.25 0 1 0 321 304.875l12.625-120.312A31.375 31.375 0 0 0 300.188 150l-122.125-2.313a31.25 31.25 0 0 0-1.125 62.5l37.562.75A406.25 406.25 0 0 0 104.5 407a406.25 406.25 0 0 0 50.063 306.875A31.25 31.25 0 0 0 197.625 724m179.75 243.875A31.25 31.25 0 0 0 394 926.938l-16.75-39.688a406.25 406.25 0 0 0 478.125-190.312 31.25 31.25 0 0 0-54.75-30.313A343.75 343.75 0 0 1 409 831.438l38.313-12.375a31.25 31.25 0 0 0-19.25-59.438L310.25 797.75a31.25 31.25 0 0 0-19.625 44.875l45.813 108.625a31.25 31.25 0 0 0 40.937 16.625m210.875-280.25H378.375a31.25 31.25 0 1 1 0-62.5h4.563c3.187-46.937 14.062-80.375 32.375-104.812q9.062-11.876 19.375-20.313-10.375-8.375-19.438-20.312c-18.312-24.375-29.187-57.875-32.375-104.813h-4.5a31.25 31.25 0 0 1 0-62.5h243.25a31.25 31.25 0 0 1 0 62.5h-4.437c-3.25 46.875-14.125 80.375-32.438 104.75A125 125 0 0 1 565.375 500a125 125 0 0 1 19.375 20.375c18.25 24.375 29.125 57.813 32.375 104.75h4.5a31.25 31.25 0 1 1 0 62.5zM500 466.25c15.75-6.75 26.313-12.875 34.75-24.125 8.375-11.125 16.75-30.437 19.75-67.25H445.563c3 36.875 11.375 56.188 19.687 67.313 8.438 11.25 19 17.312 34.75 24.062m0 67.5c15.75 6.75 26.25 12.875 34.688 24.125 8.375 11.125 16.687 30.438 19.75 67.25H445.563c3.062-36.875 11.437-56.187 19.75-67.312 8.437-11.25 18.937-17.313 34.687-24m332.625-120.438a343.75 343.75 0 0 0-348.063-256.75 31.25 31.25 0 0 1-2.75-62.437 406.25 406.25 0 0 1 410.25 299.375l18.5-30.75a31.25 31.25 0 1 1 53.563 32.25l-62.063 103.125a31.25 31.25 0 0 1-48.062 8.5l-98.875-72.813a31.25 31.25 0 0 1 37.062-50.312z" glyph-name="background-process-1" horiz-adv-x="1000" unicode="16"/><glyph d="M287.813 756.063c21.625 29 55.625 46 91.75 46h380.875c63.25 0 114.562-51.25 114.562-114.563v-375c0-63.25-51.25-114.562-114.562-114.562H379.563a114.38 114.38 0 0 0-91.813 46l-140.062 187.5a114.375 114.375 0 0 0 0 137.125zm180.125-119.375A31.25 31.25 0 0 1 423.75 592.5l92.5-92.5-92.5-92.5a31.25 31.25 0 0 1 44.188-44.188l92.5 92.5 92.5-92.5a31.25 31.25 0 0 1 44.187 44.188l-92.5 92.5 92.5 92.5a31.25 31.25 0 0 1-44.187 44.188l-92.5-92.5z" glyph-name="backspace-solid" horiz-adv-x="1000" unicode=""/><glyph d="M287.813 756.063c21.625 29 55.625 46 91.75 46h380.875c63.25 0 114.562-51.25 114.562-114.563v-375c0-63.25-51.25-114.562-114.562-114.562H379.563a114.38 114.38 0 0 0-91.813 46l-140.062 187.5a114.375 114.375 0 0 0 0 137.125zm180.125-119.375A31.25 31.25 0 0 1 423.75 592.5l92.5-92.5-92.5-92.5a31.25 31.25 0 0 1 44.188-44.188l92.5 92.5 92.5-92.5a31.25 31.25 0 0 1 44.187 44.188l-92.5 92.5 92.5 92.5a31.25 31.25 0 0 1-44.187 44.188l-92.5-92.5z" glyph-name="backspace-solid-1" horiz-adv-x="1000" unicode="16"/><glyph d="M287.75 756.063c21.625 29 55.625 46 91.813 46h380.812C823.75 802.063 875 750.813 875 687.5v-375c0-63.25-51.312-114.562-114.625-114.562H379.563a114.38 114.38 0 0 0-91.813 46l-140.125 187.5a114.375 114.375 0 0 0 0 137.125zm91.813-16.5a51.88 51.88 0 0 1-41.75-20.875l-140.125-187.5a51.875 51.875 0 0 1 0-62.375l140.125-187.5c9.812-13.125 25.312-20.875 41.75-20.875h380.812c28.75 0 52.125 23.312 52.125 52.062v375a52.063 52.063 0 0 1-52.125 52.063zm44.187-102.875a31.25 31.25 0 0 1 0-44.188l92.5-92.5-92.5-92.5a31.25 31.25 0 0 1 44.188-44.188l92.5 92.5 92.5-92.5a31.25 31.25 0 1 1 44.187 44.188l-92.5 92.5 92.5 92.5a31.25 31.25 0 1 1-44.187 44.188l-92.5-92.5-92.5 92.5a31.25 31.25 0 0 1-44.188 0" glyph-name="backspace" horiz-adv-x="1000" unicode=""/><glyph d="M287.75 756.063c21.625 29 55.625 46 91.813 46h380.812C823.75 802.063 875 750.813 875 687.5v-375c0-63.25-51.312-114.562-114.625-114.562H379.563a114.38 114.38 0 0 0-91.813 46l-140.125 187.5a114.375 114.375 0 0 0 0 137.125zm91.813-16.5a51.88 51.88 0 0 1-41.75-20.875l-140.125-187.5a51.875 51.875 0 0 1 0-62.375l140.125-187.5c9.812-13.125 25.312-20.875 41.75-20.875h380.812c28.75 0 52.125 23.312 52.125 52.062v375a52.063 52.063 0 0 1-52.125 52.063zm44.187-102.875a31.25 31.25 0 0 1 0-44.188l92.5-92.5-92.5-92.5a31.25 31.25 0 0 1 44.188-44.188l92.5 92.5 92.5-92.5a31.25 31.25 0 1 1 44.187 44.188l-92.5 92.5 92.5 92.5a31.25 31.25 0 1 1-44.187 44.188l-92.5-92.5-92.5 92.5a31.25 31.25 0 0 1-44.188 0" glyph-name="backspace-1" horiz-adv-x="1000" unicode="16"/><glyph d="M531.25 654.75c0 31.25-15.687 58-39.125 72.75a76.25 76.25 0 0 1-82.375 0L164.125 572.813c-52.188-32.875-52.188-112.75 0-145.626L409.75 272.5c27.313-17.25 58.75-14.938 82.375 0 23.437 14.75 39.125 41.5 39.125 72.75v67.25l222.25-140c27.312-17.25 58.75-15 82.375 0C859.312 287.25 875 313.938 875 345.25v309.5c0 31.25-15.688 58-39.125 72.75a76.25 76.25 0 0 1-82.375 0l-222.25-140z" glyph-name="backward-solid" horiz-adv-x="1000" unicode=""/><glyph d="M531.25 654.75c0 31.25-15.687 58-39.125 72.75a76.25 76.25 0 0 1-82.375 0L164.125 572.813c-52.188-32.875-52.188-112.75 0-145.626L409.75 272.5c27.313-17.25 58.75-14.938 82.375 0 23.437 14.75 39.125 41.5 39.125 72.75v67.25l222.25-140c27.312-17.25 58.75-15 82.375 0C859.312 287.25 875 313.938 875 345.25v309.5c0 31.25-15.688 58-39.125 72.75a76.25 76.25 0 0 1-82.375 0l-222.25-140z" glyph-name="backward-solid-1" horiz-adv-x="1000" unicode="16"/><glyph d="M531.25 412.5v-67.25c0-31.25-15.687-58-39.125-72.75-23.688-14.938-55-17.25-82.312 0l-245.75 154.75c-52.188 32.813-52.188 112.688 0 145.5L409.688 727.5a76.25 76.25 0 0 0 82.374 0c23.438-14.75 39.125-41.5 39.125-72.75V587.5l222.313 140a76.25 76.25 0 0 0 82.313 0c23.437-14.75 39.124-41.5 39.124-72.75v-309.5c0-31.25-15.687-58-39.125-72.812-23.687-14.875-55-17.188-82.375 0zm-88.125 262.125-245.687-154.75A23.13 23.13 0 0 1 187.5 500c0-8.938 4-16.187 9.938-19.875l245.625-154.75c5.437-3.437 10.812-3.125 15.75 0a23.13 23.13 0 0 1 10 19.875v309.5a23.13 23.13 0 0 1-10 19.875 13.75 13.75 0 0 1-15.75 0M531.25 500c0-9 4-16.187 9.938-19.937l245.625-154.688c5.437-3.437 10.812-3.125 15.75 0a23.13 23.13 0 0 1 10 19.875v309.5a23.13 23.13 0 0 1-10 19.875 13.75 13.75 0 0 1-15.75 0L541.25 519.875a23.13 23.13 0 0 1-10-19.875" glyph-name="backward" horiz-adv-x="1000" unicode=""/><glyph d="M531.25 412.5v-67.25c0-31.25-15.687-58-39.125-72.75-23.688-14.938-55-17.25-82.312 0l-245.75 154.75c-52.188 32.813-52.188 112.688 0 145.5L409.688 727.5a76.25 76.25 0 0 0 82.374 0c23.438-14.75 39.125-41.5 39.125-72.75V587.5l222.313 140a76.25 76.25 0 0 0 82.313 0c23.437-14.75 39.124-41.5 39.124-72.75v-309.5c0-31.25-15.687-58-39.125-72.812-23.687-14.875-55-17.188-82.375 0zm-88.125 262.125-245.687-154.75A23.13 23.13 0 0 1 187.5 500c0-8.938 4-16.187 9.938-19.875l245.625-154.75c5.437-3.437 10.812-3.125 15.75 0a23.13 23.13 0 0 1 10 19.875v309.5a23.13 23.13 0 0 1-10 19.875 13.75 13.75 0 0 1-15.75 0M531.25 500c0-9 4-16.187 9.938-19.937l245.625-154.688c5.437-3.437 10.812-3.125 15.75 0a23.13 23.13 0 0 1 10 19.875v309.5a23.13 23.13 0 0 1-10 19.875 13.75 13.75 0 0 1-15.75 0L541.25 519.875a23.13 23.13 0 0 1-10-19.875" glyph-name="backward-1" horiz-adv-x="1000" unicode="16"/><glyph d="M513.688 871.875a31.25 31.25 0 0 1-27.375 0L142.563 704.75A31.25 31.25 0 0 1 125 676.625v-47.687a31.25 31.25 0 0 1 31.25-31.25h54.688v-293.25l-68.688-34.313A31.25 31.25 0 0 1 125 242.188V156.25A31.25 31.25 0 0 1 156.25 125h687.5A31.25 31.25 0 0 1 875 156.25v85.938a31.25 31.25 0 0 1-17.25 27.937L789.063 304.5v293.125h54.687a31.25 31.25 0 0 1 31.25 31.25v47.75a31.25 31.25 0 0 1-17.562 28.125zm-173.813-555.5h-66.437v281.25h66.437zm62.5 0v281.25h66.375v-281.25zm128.875 281.25h66.437v-281.25H531.25zm195.312-281.25h-66.375v281.25h66.375z" glyph-name="bank-solid" horiz-adv-x="1000" unicode=""/><glyph d="M513.688 871.875a31.25 31.25 0 0 1-27.375 0L142.563 704.75A31.25 31.25 0 0 1 125 676.625v-47.687a31.25 31.25 0 0 1 31.25-31.25h54.688v-293.25l-68.688-34.313A31.25 31.25 0 0 1 125 242.188V156.25A31.25 31.25 0 0 1 156.25 125h687.5A31.25 31.25 0 0 1 875 156.25v85.938a31.25 31.25 0 0 1-17.25 27.937L789.063 304.5v293.125h54.687a31.25 31.25 0 0 1 31.25 31.25v47.75a31.25 31.25 0 0 1-17.562 28.125zm-173.813-555.5h-66.437v281.25h66.437zm62.5 0v281.25h66.375v-281.25zm128.875 281.25h66.437v-281.25H531.25zm195.312-281.25h-66.375v281.25h66.375z" glyph-name="bank-solid-1" horiz-adv-x="1000" unicode="16"/><glyph d="M486.313 871.875a31.25 31.25 0 0 0 27.375 0l343.75-167.125A31.25 31.25 0 0 0 875 676.625v-47.687a31.25 31.25 0 0 0-31.25-31.25h-54.687v-293.25l68.687-34.313A31.25 31.25 0 0 0 875 242.188V156.25A31.25 31.25 0 0 0 843.75 125h-687.5A31.25 31.25 0 0 0 125 156.25v85.938a31.25 31.25 0 0 0 17.25 27.937l68.688 34.375v293.125H156.25a31.25 31.25 0 0 0-31.25 31.25v47.75a31.25 31.25 0 0 0 17.563 28.125zm264.125-618H249.563l-62.063-31V187.5h625v35.375zm-556.625 406.25h612.375L500 809zm79.625-62.5v-281.25h66.437v281.25zm195.312 0h-66.375v-281.25h66.375zm128.937 0H531.25v-281.25h66.438zm62.5 0v-281.25h66.375v281.25z" glyph-name="bank" horiz-adv-x="1000" unicode=""/><glyph d="M486.313 871.875a31.25 31.25 0 0 0 27.375 0l343.75-167.125A31.25 31.25 0 0 0 875 676.625v-47.687a31.25 31.25 0 0 0-31.25-31.25h-54.687v-293.25l68.687-34.313A31.25 31.25 0 0 0 875 242.188V156.25A31.25 31.25 0 0 0 843.75 125h-687.5A31.25 31.25 0 0 0 125 156.25v85.938a31.25 31.25 0 0 0 17.25 27.937l68.688 34.375v293.125H156.25a31.25 31.25 0 0 0-31.25 31.25v47.75a31.25 31.25 0 0 0 17.563 28.125zm264.125-618H249.563l-62.063-31V187.5h625v35.375zm-556.625 406.25h612.375L500 809zm79.625-62.5v-281.25h66.437v281.25zm195.312 0h-66.375v-281.25h66.375zm128.937 0H531.25v-281.25h66.438zm62.5 0v-281.25h66.375v281.25z" glyph-name="bank-1" horiz-adv-x="1000" unicode="16"/><glyph d="M62.5 500a437.5 437.5 0 1 0 875 0 437.5 437.5 0 0 0-875 0m151.188 242.188a375 375 0 0 1 528.5-528.5zm44.187 44.187 528.5-528.5a375 375 0 0 1-528.5 528.5" glyph-name="banned-circle" horiz-adv-x="1000" unicode=""/><glyph d="M62.5 500a437.5 437.5 0 1 0 875 0 437.5 437.5 0 0 0-875 0m151.188 242.188a375 375 0 0 1 528.5-528.5zm44.187 44.187 528.5-528.5a375 375 0 0 1-528.5 528.5" glyph-name="banned-circle-1" horiz-adv-x="1000" unicode="16"/><glyph d="M843.75 500a343.75 343.75 0 0 1-551.437 273.938l481.625-481.625A342.5 342.5 0 0 1 843.75 500M707.688 226.063 226.063 707.688a343.75 343.75 0 0 1 481.625-481.625" glyph-name="banned-solid" horiz-adv-x="1000" unicode=""/><glyph d="M843.75 500a343.75 343.75 0 0 1-551.437 273.938l481.625-481.625A342.5 342.5 0 0 1 843.75 500M707.688 226.063 226.063 707.688a343.75 343.75 0 0 1 481.625-481.625" glyph-name="banned-solid-1" horiz-adv-x="1000" unicode="16"/><glyph d="M187.5 843.75a31.25 31.25 0 0 1-62.5 0v-687.5A31.25 31.25 0 0 1 156.25 125h687.5a31.25 31.25 0 0 1 0 62.5h-45.125v541.688c0 38.312-31.125 69.375-69.437 69.375H652.75c-38.312 0-69.375-31.063-69.375-69.375V187.5H493V500c0 38.375-31.125 69.438-69.437 69.438H347.25c-38.375 0-69.5-31.063-69.5-69.438V187.5H187.5z" glyph-name="bar-graph-solid" horiz-adv-x="1000" unicode=""/><glyph d="M187.5 843.75a31.25 31.25 0 0 1-62.5 0v-687.5A31.25 31.25 0 0 1 156.25 125h687.5a31.25 31.25 0 0 1 0 62.5h-45.125v541.688c0 38.312-31.125 69.375-69.437 69.375H652.75c-38.312 0-69.375-31.063-69.375-69.375V187.5H493V500c0 38.375-31.125 69.438-69.437 69.438H347.25c-38.375 0-69.5-31.063-69.5-69.438V187.5H187.5z" glyph-name="bar-graph-solid-1" horiz-adv-x="1000" unicode="16"/><glyph d="M156.25 875a31.25 31.25 0 0 0 31.25-31.25V187.5h90.25V500c0 38.313 31.125 69.375 69.5 69.375h76.375C461.938 569.375 493 538.313 493 500V187.5h90.313v541.625c0 38.375 31.125 69.438 69.437 69.438h76.438c38.312 0 69.375-31.063 69.375-69.375V187.5h45.187a31.25 31.25 0 0 0 0-62.5h-687.5A31.25 31.25 0 0 0 125 156.25v687.5A31.25 31.25 0 0 0 156.25 875m184-687.5h90.375V500a6.875 6.875 0 0 1-6.937 6.875H347.25a6.875 6.875 0 0 1-7-6.875zm395.875 0v541.625a6.875 6.875 0 0 1-6.937 6.938H652.75a6.875 6.875 0 0 1-6.875-6.875V187.5z" glyph-name="bar-graph" horiz-adv-x="1000" unicode=""/><glyph d="M156.25 875a31.25 31.25 0 0 0 31.25-31.25V187.5h90.25V500c0 38.313 31.125 69.375 69.5 69.375h76.375C461.938 569.375 493 538.313 493 500V187.5h90.313v541.625c0 38.375 31.125 69.438 69.437 69.438h76.438c38.312 0 69.375-31.063 69.375-69.375V187.5h45.187a31.25 31.25 0 0 0 0-62.5h-687.5A31.25 31.25 0 0 0 125 156.25v687.5A31.25 31.25 0 0 0 156.25 875m184-687.5h90.375V500a6.875 6.875 0 0 1-6.937 6.875H347.25a6.875 6.875 0 0 1-7-6.875zm395.875 0v541.625a6.875 6.875 0 0 1-6.937 6.938H652.75a6.875 6.875 0 0 1-6.875-6.875V187.5z" glyph-name="bar-graph-1" horiz-adv-x="1000" unicode="16"/><glyph d="M423.625 760.438a31.25 31.25 0 0 1-31.25-31.25v-156.25a31.25 31.25 0 0 1 31.25-31.25h305.563a31.25 31.25 0 0 1 31.25 31.25v156.25a31.25 31.25 0 0 1-31.25 31.25zm0-291.688a31.25 31.25 0 1 1 0-62.5h305.563a31.25 31.25 0 0 1 0 62.5zm0-145.812a31.25 31.25 0 1 1 0-62.5h305.563a31.25 31.25 0 1 1 0 62.5zM270.813 875A145.813 145.813 0 0 1 125 729.188V270.813A145.813 145.813 0 0 1 270.813 125h458.375A145.813 145.813 0 0 1 875 270.813v458.375A145.813 145.813 0 0 1 729.188 875zm69.437-687.5v625h388.938c46 0 83.312-37.312 83.312-83.312V270.813c0-46-37.312-83.313-83.312-83.313z" glyph-name="blog-solid" horiz-adv-x="1000" unicode=""/><glyph d="M423.625 760.438a31.25 31.25 0 0 1-31.25-31.25v-156.25a31.25 31.25 0 0 1 31.25-31.25h305.563a31.25 31.25 0 0 1 31.25 31.25v156.25a31.25 31.25 0 0 1-31.25 31.25zm0-291.688a31.25 31.25 0 1 1 0-62.5h305.563a31.25 31.25 0 0 1 0 62.5zm0-145.812a31.25 31.25 0 1 1 0-62.5h305.563a31.25 31.25 0 1 1 0 62.5zM270.813 875A145.813 145.813 0 0 1 125 729.188V270.813A145.813 145.813 0 0 1 270.813 125h458.375A145.813 145.813 0 0 1 875 270.813v458.375A145.813 145.813 0 0 1 729.188 875zm69.437-687.5v625h388.938c46 0 83.312-37.312 83.312-83.312V270.813c0-46-37.312-83.313-83.312-83.313z" glyph-name="blog-solid-1" horiz-adv-x="1000" unicode="16"/><glyph d="M125 729.188A145.813 145.813 0 0 0 270.813 875h458.375A145.813 145.813 0 0 0 875 729.188V270.875A145.813 145.813 0 0 0 729.188 125H270.813A145.813 145.813 0 0 0 125 270.875zM277.75 812.5h-6.875c-46.125 0-83.375-37.312-83.375-83.312V270.875c0-46.125 37.313-83.375 83.313-83.375h6.937zm62.5-625h388.938c46 0 83.312 37.313 83.312 83.375v458.313c0 46-37.312 83.312-83.312 83.312H340.313zm52.125 541.688v-156.25a31.25 31.25 0 0 1 31.25-31.25h305.563a31.25 31.25 0 0 1 31.25 31.25v156.25a31.25 31.25 0 0 1-31.25 31.25H423.563a31.25 31.25 0 0 1-31.25-31.25m0-291.688a31.25 31.25 0 0 1 31.25-31.25h305.562a31.25 31.25 0 0 1 0 62.5H423.5a31.25 31.25 0 0 1-31.25-31.25m0-145.812a31.25 31.25 0 0 1 31.25-31.25h305.563a31.25 31.25 0 0 1 0 62.5H423.438a31.25 31.25 0 0 1-31.25-31.25m62.5 406.25v-93.75H697.75v93.75z" glyph-name="blog" horiz-adv-x="1000" unicode=""/><glyph d="M125 729.188A145.813 145.813 0 0 0 270.813 875h458.375A145.813 145.813 0 0 0 875 729.188V270.875A145.813 145.813 0 0 0 729.188 125H270.813A145.813 145.813 0 0 0 125 270.875zM277.75 812.5h-6.875c-46.125 0-83.375-37.312-83.375-83.312V270.875c0-46.125 37.313-83.375 83.313-83.375h6.937zm62.5-625h388.938c46 0 83.312 37.313 83.312 83.375v458.313c0 46-37.312 83.312-83.312 83.312H340.313zm52.125 541.688v-156.25a31.25 31.25 0 0 1 31.25-31.25h305.563a31.25 31.25 0 0 1 31.25 31.25v156.25a31.25 31.25 0 0 1-31.25 31.25H423.563a31.25 31.25 0 0 1-31.25-31.25m0-291.688a31.25 31.25 0 0 1 31.25-31.25h305.562a31.25 31.25 0 0 1 0 62.5H423.5a31.25 31.25 0 0 1-31.25-31.25m0-145.812a31.25 31.25 0 0 1 31.25-31.25h305.563a31.25 31.25 0 0 1 0 62.5H423.438a31.25 31.25 0 0 1-31.25-31.25m62.5 406.25v-93.75H697.75v93.75z" glyph-name="blog-1" horiz-adv-x="1000" unicode="16"/><glyph d="M482.375 900.813a31.25 31.25 0 0 0 35.25 0c64.375-44 149.625-125.125 213.563-225.125 63.75-99.813 109-222.625 85.375-348.125l-.25-1.25c-23.625-102.813-79.5-162.438-142.875-195.188C611.563 99.062 545 93.75 500 93.75s-111.625 5.312-173.437 37.375c-63.375 32.75-119.25 92.375-142.875 195.188l-.25 1.25c-23.625 125.5 21.625 248.312 85.375 348.125 63.937 100 149.187 181.125 213.562 225.125M500 531.25A31.25 31.25 0 0 1 468.75 500v-83.312h-83.312a31.25 31.25 0 1 1 0-62.5h83.312v-83.375a31.25 31.25 0 1 1 62.5 0v83.375h83.313a31.25 31.25 0 1 1 0 62.5H531.25V500A31.25 31.25 0 0 1 500 531.25" glyph-name="blood-drop-solid" horiz-adv-x="1000" unicode=""/><glyph d="M482.375 900.813a31.25 31.25 0 0 0 35.25 0c64.375-44 149.625-125.125 213.563-225.125 63.75-99.813 109-222.625 85.375-348.125l-.25-1.25c-23.625-102.813-79.5-162.438-142.875-195.188C611.563 99.062 545 93.75 500 93.75s-111.625 5.312-173.437 37.375c-63.375 32.75-119.25 92.375-142.875 195.188l-.25 1.25c-23.625 125.5 21.625 248.312 85.375 348.125 63.937 100 149.187 181.125 213.562 225.125M500 531.25A31.25 31.25 0 0 1 468.75 500v-83.312h-83.312a31.25 31.25 0 1 1 0-62.5h83.312v-83.375a31.25 31.25 0 1 1 62.5 0v83.375h83.313a31.25 31.25 0 1 1 0 62.5H531.25V500A31.25 31.25 0 0 1 500 531.25" glyph-name="blood-drop-solid-1" horiz-adv-x="1000" unicode="16"/><glyph d="M482.375 900.813a31.25 31.25 0 0 0 35.25 0c64.375-44 149.625-125.125 213.563-225.125 63.75-99.813 109-222.625 85.375-348.125l-.25-1.25c-23.625-102.813-79.5-162.375-142.875-195.188C611.563 99.062 545 93.75 500 93.75s-111.562 5.312-173.437 37.375c-63.313 32.75-119.25 92.375-142.875 195.188l-.25 1.25c-23.625 125.5 21.625 248.312 85.375 348.125 63.937 100 149.187 181.125 213.562 225.125M244.75 339.688c19.5-84.25 63.375-128.625 110.563-153.125 48.75-25.25 103.562-30.313 144.687-30.313s95.938 5.063 144.688 30.375C691.875 211 735.75 255.438 755.312 339.75 774.5 443.188 737.812 549.25 678.5 642 625.125 725.625 555.438 794.875 500 836.563c-55.437-41.688-125-111-178.5-194.563-59.312-92.75-96-198.812-76.75-302.312M500 531.25A31.25 31.25 0 0 1 468.75 500v-83.312h-83.312a31.25 31.25 0 0 1 0-62.5h83.312v-83.375a31.25 31.25 0 1 1 62.5 0v83.375h83.313a31.25 31.25 0 1 1 0 62.5H531.25V500A31.25 31.25 0 0 1 500 531.25" glyph-name="blood-drop" horiz-adv-x="1000" unicode=""/><glyph d="M482.375 900.813a31.25 31.25 0 0 0 35.25 0c64.375-44 149.625-125.125 213.563-225.125 63.75-99.813 109-222.625 85.375-348.125l-.25-1.25c-23.625-102.813-79.5-162.375-142.875-195.188C611.563 99.062 545 93.75 500 93.75s-111.562 5.312-173.437 37.375c-63.313 32.75-119.25 92.375-142.875 195.188l-.25 1.25c-23.625 125.5 21.625 248.312 85.375 348.125 63.937 100 149.187 181.125 213.562 225.125M244.75 339.688c19.5-84.25 63.375-128.625 110.563-153.125 48.75-25.25 103.562-30.313 144.687-30.313s95.938 5.063 144.688 30.375C691.875 211 735.75 255.438 755.312 339.75 774.5 443.188 737.812 549.25 678.5 642 625.125 725.625 555.438 794.875 500 836.563c-55.437-41.688-125-111-178.5-194.563-59.312-92.75-96-198.812-76.75-302.312M500 531.25A31.25 31.25 0 0 1 468.75 500v-83.312h-83.312a31.25 31.25 0 0 1 0-62.5h83.312v-83.375a31.25 31.25 0 1 1 62.5 0v83.375h83.313a31.25 31.25 0 1 1 0 62.5H531.25V500A31.25 31.25 0 0 1 500 531.25" glyph-name="blood-drop-1" horiz-adv-x="1000" unicode="16"/><glyph d="M225.625 797.5a46.875 46.875 0 0 0 46.875 46.875h228.75a184.188 184.188 0 0 0 150-291.125A207.125 207.125 0 0 0 570 155.625H272.5a46.875 46.875 0 0 0-46.875 46.875zm93.75-321.437V249.438H570a113.313 113.313 0 1 1 0 226.625zm183.938 93.75a90.438 90.438 0 0 1-2 180.812H319.375V569.813z" glyph-name="bold" horiz-adv-x="1000" unicode=""/><glyph d="M225.625 797.5a46.875 46.875 0 0 0 46.875 46.875h228.75a184.188 184.188 0 0 0 150-291.125A207.125 207.125 0 0 0 570 155.625H272.5a46.875 46.875 0 0 0-46.875 46.875zm93.75-321.437V249.438H570a113.313 113.313 0 1 1 0 226.625zm183.938 93.75a90.438 90.438 0 0 1-2 180.812H319.375V569.813z" glyph-name="bold-1" horiz-adv-x="1000" unicode="16"/><glyph d="M364.563 937.5a166.69 166.69 0 0 1-166.625-166.687V93.75a31.25 31.25 0 0 1 48.562-26l253.5 169 253.5-169a31.25 31.25 0 0 1 48.563 26v677.063A166.69 166.69 0 0 1 635.438 937.5z" glyph-name="bookmark-solid" horiz-adv-x="1000" unicode=""/><glyph d="M364.563 937.5a166.69 166.69 0 0 1-166.625-166.687V93.75a31.25 31.25 0 0 1 48.562-26l253.5 169 253.5-169a31.25 31.25 0 0 1 48.563 26v677.063A166.69 166.69 0 0 1 635.438 937.5z" glyph-name="bookmark-solid-1" horiz-adv-x="1000" unicode="16"/><glyph d="M197.938 770.813A166.69 166.69 0 0 0 364.563 937.5h270.875a166.69 166.69 0 0 0 166.625-166.687V93.75a31.25 31.25 0 0 0-48.563-26l-253.5 169-253.5-169a31.25 31.25 0 0 0-48.562 26zM364.563 875c-57.5 0-104.125-46.625-104.125-104.187V152.125l222.25 148.125a31.25 31.25 0 0 0 34.625 0l222.25-148.125v618.75c0 57.5-46.626 104.125-104.126 104.125z" glyph-name="bookmark" horiz-adv-x="1000" unicode=""/><glyph d="M197.938 770.813A166.69 166.69 0 0 0 364.563 937.5h270.875a166.69 166.69 0 0 0 166.625-166.687V93.75a31.25 31.25 0 0 0-48.563-26l-253.5 169-253.5-169a31.25 31.25 0 0 0-48.562 26zM364.563 875c-57.5 0-104.125-46.625-104.125-104.187V152.125l222.25 148.125a31.25 31.25 0 0 0 34.625 0l222.25-148.125v618.75c0 57.5-46.626 104.125-104.126 104.125z" glyph-name="bookmark-1" horiz-adv-x="1000" unicode="16"/><glyph d="M416.688 893.563c-54.5 0-103.438-33.25-123.5-83.938L274.5 762.313H184c-67.062 0-121.5-54.375-121.5-121.5V534.125h875v106.688c0 67.125-54.375 121.5-121.5 121.5h-90.5l-18.75 47.312a132.81 132.81 0 0 1-123.437 83.938zm-65.375-106.875c10.625 26.75 36.562 44.375 65.375 44.375h166.625c28.812 0 54.75-17.625 65.375-44.375l8.5-21.5H342.811zM62.5 471.625V227.937c0-67.125 54.375-121.5 121.5-121.5h632c67.063 0 121.5 54.375 121.5 121.5v243.688zm360.625-33.062V471.5h153.75v-32.937a32.94 32.94 0 0 0-32.937-32.938h-87.813a32.94 32.94 0 0 0-32.937 32.938" glyph-name="briefcase-solid" horiz-adv-x="1000" unicode=""/><glyph d="M416.688 893.563c-54.5 0-103.438-33.25-123.5-83.938L274.5 762.313H184c-67.062 0-121.5-54.375-121.5-121.5V534.125h875v106.688c0 67.125-54.375 121.5-121.5 121.5h-90.5l-18.75 47.312a132.81 132.81 0 0 1-123.437 83.938zm-65.375-106.875c10.625 26.75 36.562 44.375 65.375 44.375h166.625c28.812 0 54.75-17.625 65.375-44.375l8.5-21.5H342.811zM62.5 471.625V227.937c0-67.125 54.375-121.5 121.5-121.5h632c67.063 0 121.5 54.375 121.5 121.5v243.688zm360.625-33.062V471.5h153.75v-32.937a32.94 32.94 0 0 0-32.937-32.938h-87.813a32.94 32.94 0 0 0-32.937 32.938" glyph-name="briefcase-solid-1" horiz-adv-x="1000" unicode="16"/><glyph d="M423.125 471.5v-32.937c0-18.125 14.813-32.938 33-32.938h87.813a32.94 32.94 0 0 1 32.937 32.938V471.5zm-6.437 422.063c-54.5 0-103.438-33.25-123.5-83.938L274.5 762.313H184c-67.062 0-121.5-54.375-121.5-121.5V227.938c0-67.125 54.375-121.5 121.5-121.5h632c67.063 0 121.5 54.374 121.5 121.5v412.875c0 67.125-54.375 121.5-121.5 121.5h-90.5l-18.75 47.312a132.81 132.81 0 0 1-123.437 83.938zM125 534.125v106.688c0 32.625 26.438 59 59 59h632c32.563 0 59-26.375 59-59V534.125zm0-306.187v243.687h750V227.937a59 59 0 0 0-59-59H184a59 59 0 0 0-59 59m226.313 558.75c10.625 26.75 36.562 44.375 65.375 44.375h166.625c28.812 0 54.75-17.625 65.375-44.375l8.5-21.5H342.811z" glyph-name="briefcase" horiz-adv-x="1000" unicode=""/><glyph d="M423.125 471.5v-32.937c0-18.125 14.813-32.938 33-32.938h87.813a32.94 32.94 0 0 1 32.937 32.938V471.5zm-6.437 422.063c-54.5 0-103.438-33.25-123.5-83.938L274.5 762.313H184c-67.062 0-121.5-54.375-121.5-121.5V227.938c0-67.125 54.375-121.5 121.5-121.5h632c67.063 0 121.5 54.374 121.5 121.5v412.875c0 67.125-54.375 121.5-121.5 121.5h-90.5l-18.75 47.312a132.81 132.81 0 0 1-123.437 83.938zM125 534.125v106.688c0 32.625 26.438 59 59 59h632c32.563 0 59-26.375 59-59V534.125zm0-306.187v243.687h750V227.937a59 59 0 0 0-59-59H184a59 59 0 0 0-59 59m226.313 558.75c10.625 26.75 36.562 44.375 65.375 44.375h166.625c28.812 0 54.75-17.625 65.375-44.375l8.5-21.5H342.811z" glyph-name="briefcase-1" horiz-adv-x="1000" unicode="16"/><glyph d="m364.188 496.875-276.25 276.25A93.25 93.25 0 1 0 219.813 905L493.75 631.063a218.75 218.75 0 0 0 199.313-10.313c17.937-10.25 35.75-24.5 52.312-38.062l6.75-5.5c14.813-12.188 29.25-24.063 44.563-34.75 35-24.563 68.687-38.75 106.125-32.25a31.25 31.25 0 0 0 36.562-30.813c0-97.875-40-166-93.875-237.937-54.312-72.375-160-142-248.5-171.875a31.25 31.25 0 0 0-27.25 3.5A750 750 0 0 0 443.5 178.75c-36.25 38.188-67.312 80.5-80.5 119.813-25.625 73.312-21.687 141.687 1.25 198.25M422.063 319l.187-.437c8.75-26.376 32.437-60.75 66.625-96.75a687.5 687.5 0 0 1 102.5-87.876c24.75 9.5 50.625 22.25 75.688 37.063-38.25 22.437-81.063 52.937-111.938 91.375a31.25 31.25 0 0 0 48.75 39.188c31.062-38.688 80.125-69.813 121.25-91.25 28.312 21.812 52.937 45.437 70.375 68.625l5 6.812q-12.188 4.563-23.5 11.625a131.25 131.25 0 0 0-37.313 37.125 31.25 31.25 0 1 0 51.063 36.062c7.938-11.25 13.875-16.687 19.75-20.437 5.938-3.75 13.375-6.813 26.25-10.625 20.25 34.375 33.438 68.062 38.188 106.875-44.625 2.563-82.688 22.875-114.125 44.875-17.375 12.188-33.813 25.688-48.5 37.75l-6.5 5.313c-17 13.875-31 24.875-43.75 32.187-124.625 71.188-307.688-54.062-240-247.5m442 319.813a31.25 31.25 0 1 1 0 62.5 31.25 31.25 0 0 1 0-62.5m75.125-56.375a31.25 31.25 0 1 0-62.5 0 31.25 31.25 0 0 0 62.5 0" glyph-name="broom-solid" horiz-adv-x="1000" unicode=""/><glyph d="m364.188 496.875-276.25 276.25A93.25 93.25 0 1 0 219.813 905L493.75 631.063a218.75 218.75 0 0 0 199.313-10.313c17.937-10.25 35.75-24.5 52.312-38.062l6.75-5.5c14.813-12.188 29.25-24.063 44.563-34.75 35-24.563 68.687-38.75 106.125-32.25a31.25 31.25 0 0 0 36.562-30.813c0-97.875-40-166-93.875-237.937-54.312-72.375-160-142-248.5-171.875a31.25 31.25 0 0 0-27.25 3.5A750 750 0 0 0 443.5 178.75c-36.25 38.188-67.312 80.5-80.5 119.813-25.625 73.312-21.687 141.687 1.25 198.25M422.063 319l.187-.437c8.75-26.376 32.437-60.75 66.625-96.75a687.5 687.5 0 0 1 102.5-87.876c24.75 9.5 50.625 22.25 75.688 37.063-38.25 22.437-81.063 52.937-111.938 91.375a31.25 31.25 0 0 0 48.75 39.188c31.062-38.688 80.125-69.813 121.25-91.25 28.312 21.812 52.937 45.437 70.375 68.625l5 6.812q-12.188 4.563-23.5 11.625a131.25 131.25 0 0 0-37.313 37.125 31.25 31.25 0 1 0 51.063 36.062c7.938-11.25 13.875-16.687 19.75-20.437 5.938-3.75 13.375-6.813 26.25-10.625 20.25 34.375 33.438 68.062 38.188 106.875-44.625 2.563-82.688 22.875-114.125 44.875-17.375 12.188-33.813 25.688-48.5 37.75l-6.5 5.313c-17 13.875-31 24.875-43.75 32.187-124.625 71.188-307.688-54.062-240-247.5m442 319.813a31.25 31.25 0 1 1 0 62.5 31.25 31.25 0 0 1 0-62.5m75.125-56.375a31.25 31.25 0 1 0-62.5 0 31.25 31.25 0 0 0 62.5 0" glyph-name="broom-solid-1" horiz-adv-x="1000" unicode="16"/><glyph d="m364.188 496.875-276.25 276.25A93.25 93.25 0 1 0 219.813 905L493.75 631.063a218.75 218.75 0 0 0 199.313-10.313c17.937-10.25 35.75-24.5 52.312-38.062l6.75-5.5c14.813-12.188 29.25-24.063 44.563-34.75 35-24.563 68.687-38.75 106.062-32.25a31.25 31.25 0 0 0 36.625-30.813c0-97.875-40-166-93.875-237.937-54.313-72.375-160-142-248.5-171.875a31.25 31.25 0 0 0-27.25 3.5A750 750 0 0 0 443.5 178.75c-36.25 38.188-67.312 80.5-80.5 119.813-25.625 73.312-21.687 141.687 1.25 198.25m31.875 56.5q18.875 25 42.688 44.312L175.688 860.75a30.75 30.75 0 0 1-43.438-43.562zm25.938-234.375.187-.375c8.75-26.376 32.437-60.75 66.625-96.75 30-31.688 66.25-62.5 102.5-87.876 24.75 9.5 50.625 22.25 75.688 37.063-38.25 22.437-81.063 52.937-111.938 91.375a31.25 31.25 0 0 0 48.75 39.188c31.062-38.688 80.125-69.813 121.25-91.25 28.312 21.812 52.937 45.437 70.312 68.625l5.125 6.812q-12.187 4.563-23.562 11.625a131.25 131.25 0 0 0-37.313 37.125 31.25 31.25 0 0 0 51.063 36.062c7.938-11.25 13.875-16.687 19.75-20.437s13.375-6.813 26.25-10.625c20.25 34.375 33.438 68.062 38.188 106.875-44.625 2.563-82.688 22.875-114.125 44.875-17.375 12.188-33.813 25.688-48.5 37.75l-6.5 5.313c-17 13.875-31 24.875-43.75 32.187-124.625 71.188-307.688-54.062-240-247.5m517.062 263.5a31.25 31.25 0 1 0-62.5 0 31.25 31.25 0 0 0 62.5 0M864 638.875a31.25 31.25 0 1 1 0 62.5 31.25 31.25 0 0 1 0-62.5" glyph-name="broom" horiz-adv-x="1000" unicode=""/><glyph d="m364.188 496.875-276.25 276.25A93.25 93.25 0 1 0 219.813 905L493.75 631.063a218.75 218.75 0 0 0 199.313-10.313c17.937-10.25 35.75-24.5 52.312-38.062l6.75-5.5c14.813-12.188 29.25-24.063 44.563-34.75 35-24.563 68.687-38.75 106.062-32.25a31.25 31.25 0 0 0 36.625-30.813c0-97.875-40-166-93.875-237.937-54.313-72.375-160-142-248.5-171.875a31.25 31.25 0 0 0-27.25 3.5A750 750 0 0 0 443.5 178.75c-36.25 38.188-67.312 80.5-80.5 119.813-25.625 73.312-21.687 141.687 1.25 198.25m31.875 56.5q18.875 25 42.688 44.312L175.688 860.75a30.75 30.75 0 0 1-43.438-43.562zm25.938-234.375.187-.375c8.75-26.376 32.437-60.75 66.625-96.75 30-31.688 66.25-62.5 102.5-87.876 24.75 9.5 50.625 22.25 75.688 37.063-38.25 22.437-81.063 52.937-111.938 91.375a31.25 31.25 0 0 0 48.75 39.188c31.062-38.688 80.125-69.813 121.25-91.25 28.312 21.812 52.937 45.437 70.312 68.625l5.125 6.812q-12.187 4.563-23.562 11.625a131.25 131.25 0 0 0-37.313 37.125 31.25 31.25 0 0 0 51.063 36.062c7.938-11.25 13.875-16.687 19.75-20.437s13.375-6.813 26.25-10.625c20.25 34.375 33.438 68.062 38.188 106.875-44.625 2.563-82.688 22.875-114.125 44.875-17.375 12.188-33.813 25.688-48.5 37.75l-6.5 5.313c-17 13.875-31 24.875-43.75 32.187-124.625 71.188-307.688-54.062-240-247.5m517.062 263.5a31.25 31.25 0 1 0-62.5 0 31.25 31.25 0 0 0 62.5 0M864 638.875a31.25 31.25 0 1 1 0 62.5 31.25 31.25 0 0 1 0-62.5" glyph-name="broom-1" horiz-adv-x="1000" unicode="16"/><glyph d="M102.313 660a31.25 31.25 0 0 1 0-44.187l186.75-186.75 1.062-1 36.25-36.25a31.25 31.25 0 0 1 27.375-8.75L473.125 403.5l210.313-210.375a87.25 87.25 0 0 1 123.437 123.438L596.5 526.875l20.375 119.375a31.25 31.25 0 0 1-8.687 27.375L570.875 711l-.875.813-185.875 185.875a31.25 31.25 0 0 1-44.187 0zm402.312 28.875-193.5-193.5-142.5 142.5 35 35.063 57.125-57.125A31.25 31.25 0 1 1 304.938 660l-57.125 57.125 35 35L340 695.063a31.25 31.25 0 0 1 44.188 44.187l-57.125 57.125 35 35z" glyph-name="brush-solid" horiz-adv-x="1000" unicode=""/><glyph d="M102.313 660a31.25 31.25 0 0 1 0-44.187l186.75-186.75 1.062-1 36.25-36.25a31.25 31.25 0 0 1 27.375-8.75L473.125 403.5l210.313-210.375a87.25 87.25 0 0 1 123.437 123.438L596.5 526.875l20.375 119.375a31.25 31.25 0 0 1-8.687 27.375L570.875 711l-.875.813-185.875 185.875a31.25 31.25 0 0 1-44.187 0zm402.312 28.875-193.5-193.5-142.5 142.5 35 35.063 57.125-57.125A31.25 31.25 0 1 1 304.938 660l-57.125 57.125 35 35L340 695.063a31.25 31.25 0 0 1 44.188 44.187l-57.125 57.125 35 35z" glyph-name="brush-solid-1" horiz-adv-x="1000" unicode="16"/><glyph d="M340 897.688a31.25 31.25 0 0 0 44.188 0L608.25 673.625A31.25 31.25 0 0 0 617 646.25l-20.5-119.375 210.375-210.312a87.25 87.25 0 1 0-123.437-123.438L473.125 403.5 353.75 383.125a31.25 31.25 0 0 0-27.375 8.75L102.313 615.75a31.25 31.25 0 0 0 0 44.188l79.125 79.187h.062l.125.125zm-136.375-224.75-35-35 142.5-142.5 193.5 193.437-142.5 142.5-35.062-35 57.125-57.125A31.25 31.25 0 0 0 340 695.063l-57.125 57.125-35-35L304.938 660a31.25 31.25 0 1 0-44.188-44.187zm155.563-225.563 119.25 20.5a31.25 31.25 0 0 0 27.375-8.75l221.875-221.812a24.75 24.75 0 0 1 35 35L540.813 494.188a31.25 31.25 0 0 0-8.625 27.375l20.437 119.312-3.75 3.75L355.313 451.25z" glyph-name="brush" horiz-adv-x="1000" unicode=""/><glyph d="M340 897.688a31.25 31.25 0 0 0 44.188 0L608.25 673.625A31.25 31.25 0 0 0 617 646.25l-20.5-119.375 210.375-210.312a87.25 87.25 0 1 0-123.437-123.438L473.125 403.5 353.75 383.125a31.25 31.25 0 0 0-27.375 8.75L102.313 615.75a31.25 31.25 0 0 0 0 44.188l79.125 79.187h.062l.125.125zm-136.375-224.75-35-35 142.5-142.5 193.5 193.437-142.5 142.5-35.062-35 57.125-57.125A31.25 31.25 0 0 0 340 695.063l-57.125 57.125-35-35L304.938 660a31.25 31.25 0 1 0-44.188-44.187zm155.563-225.563 119.25 20.5a31.25 31.25 0 0 0 27.375-8.75l221.875-221.812a24.75 24.75 0 0 1 35 35L540.813 494.188a31.25 31.25 0 0 0-8.625 27.375l20.437 119.312-3.75 3.75L355.313 451.25z" glyph-name="brush-1" horiz-adv-x="1000" unicode="16"/><glyph d="M767.375 875a31.25 31.25 0 0 0 31.25-31.25V187.5h45.125a31.25 31.25 0 0 0 0-62.5h-687.5a31.25 31.25 0 0 0 0 62.5h45.125v350.688a31.25 31.25 0 0 0 31.25 31.25h121.563V843.75a31.25 31.25 0 0 0 31.25 31.25zM354.188 187.5v319.438h-90.313V187.5zm133.687 0h177.063v159.75a31.25 31.25 0 0 1-31.25 31.25H519.125a31.25 31.25 0 0 1-31.25-31.25zm2.562 541.688v-57.313h57.313v57.313zm57.313-114.625h-57.313v-57.25h57.313zM490.438 500v-57.312h57.312V500zm171.875 229.188h-57.25v-57.313h57.25zm-57.25-114.625v-57.25h57.25v57.25zM662.313 500h-57.25v-57.312h57.25z" glyph-name="building-solid" horiz-adv-x="1000" unicode=""/><glyph d="M767.375 875a31.25 31.25 0 0 0 31.25-31.25V187.5h45.125a31.25 31.25 0 0 0 0-62.5h-687.5a31.25 31.25 0 0 0 0 62.5h45.125v350.688a31.25 31.25 0 0 0 31.25 31.25h121.563V843.75a31.25 31.25 0 0 0 31.25 31.25zM354.188 187.5v319.438h-90.313V187.5zm133.687 0h177.063v159.75a31.25 31.25 0 0 1-31.25 31.25H519.125a31.25 31.25 0 0 1-31.25-31.25zm2.562 541.688v-57.313h57.313v57.313zm57.313-114.625h-57.313v-57.25h57.313zM490.438 500v-57.312h57.312V500zm171.875 229.188h-57.25v-57.313h57.25zm-57.25-114.625v-57.25h57.25v57.25zM662.313 500h-57.25v-57.312h57.25z" glyph-name="building-solid-1" horiz-adv-x="1000" unicode="16"/><glyph d="M662.313 729.188h-57.25v-57.313h57.25zM605 614.563h57.313v-57.25h-57.25zM662.313 500h-57.25v-57.312h57.25zM490.438 729.188h57.312v-57.313h-57.312zm57.312-114.625h-57.313v-57.25h57.313zM490.438 500h57.312v-57.312h-57.312zm276.937 375a31.25 31.25 0 0 0 31.25-31.25V187.5h45.125a31.25 31.25 0 0 0 0-62.5h-687.5a31.25 31.25 0 0 0 0 62.5h45.125v350.688a31.25 31.25 0 0 0 31.25 31.25h121.563V843.75a31.25 31.25 0 0 0 31.25 31.25zm-503.5-687.5h90.313v319.438h-90.313zm224 0v159.75a31.25 31.25 0 0 0 31.25 31.25h114.563a31.25 31.25 0 0 0 31.25-31.25V187.5h71.187v625H416.688v-625zm62.5 0h52.063V316h-52.063z" glyph-name="building" horiz-adv-x="1000" unicode=""/><glyph d="M662.313 729.188h-57.25v-57.313h57.25zM605 614.563h57.313v-57.25h-57.25zM662.313 500h-57.25v-57.312h57.25zM490.438 729.188h57.312v-57.313h-57.312zm57.312-114.625h-57.313v-57.25h57.313zM490.438 500h57.312v-57.312h-57.312zm276.937 375a31.25 31.25 0 0 0 31.25-31.25V187.5h45.125a31.25 31.25 0 0 0 0-62.5h-687.5a31.25 31.25 0 0 0 0 62.5h45.125v350.688a31.25 31.25 0 0 0 31.25 31.25h121.563V843.75a31.25 31.25 0 0 0 31.25 31.25zm-503.5-687.5h90.313v319.438h-90.313zm224 0v159.75a31.25 31.25 0 0 0 31.25 31.25h114.563a31.25 31.25 0 0 0 31.25-31.25V187.5h71.187v625H416.688v-625zm62.5 0h52.063V316h-52.063z" glyph-name="building-1" horiz-adv-x="1000" unicode="16"/><glyph d="M201.25 729.188A145.625 145.625 0 0 0 347.063 875H652.5a145.625 145.625 0 0 0 145.813-145.812v-420a69.375 69.375 0 0 0-69.125-69.626h-7.126V213.75a88.5 88.5 0 1 0-177.062 0v25.812h-90.437V213.75a88.5 88.5 0 1 0-177.063 0v25.812h-6.687a69.375 69.375 0 0 0-69.563 69.625zm62.5-31.25V531.25h472.063v166.688zm83.313-281.25a31.25 31.25 0 0 1 0-62.5h38.375a31.25 31.25 0 1 1 0 62.5zM340 213.75a26 26 0 1 1 52.063 0v25.813H340zm243.313 171.688a31.25 31.25 0 0 1 31.25-31.25H652.5a31.25 31.25 0 1 1 0 62.5h-37.937a31.25 31.25 0 0 1-31.25-31.25M607.5 239.563V213.75a26 26 0 1 1 52.063 0v25.813zm-420 451.687a31.25 31.25 0 0 1-62.5 0V576.688a31.25 31.25 0 0 1 62.5 0zm687.5 0a31.25 31.25 0 0 1-62.5 0V576.688a31.25 31.25 0 0 1 62.5 0z" glyph-name="bus-solid" horiz-adv-x="1000" unicode=""/><glyph d="M201.25 729.188A145.625 145.625 0 0 0 347.063 875H652.5a145.625 145.625 0 0 0 145.813-145.812v-420a69.375 69.375 0 0 0-69.125-69.626h-7.126V213.75a88.5 88.5 0 1 0-177.062 0v25.812h-90.437V213.75a88.5 88.5 0 1 0-177.063 0v25.812h-6.687a69.375 69.375 0 0 0-69.563 69.625zm62.5-31.25V531.25h472.063v166.688zm83.313-281.25a31.25 31.25 0 0 1 0-62.5h38.375a31.25 31.25 0 1 1 0 62.5zM340 213.75a26 26 0 1 1 52.063 0v25.813H340zm243.313 171.688a31.25 31.25 0 0 1 31.25-31.25H652.5a31.25 31.25 0 1 1 0 62.5h-37.937a31.25 31.25 0 0 1-31.25-31.25M607.5 239.563V213.75a26 26 0 1 1 52.063 0v25.813zm-420 451.687a31.25 31.25 0 0 1-62.5 0V576.688a31.25 31.25 0 0 1 62.5 0zm687.5 0a31.25 31.25 0 0 1-62.5 0V576.688a31.25 31.25 0 0 1 62.5 0z" glyph-name="bus-solid-1" horiz-adv-x="1000" unicode="16"/><glyph d="M156.25 722.25A31.25 31.25 0 0 0 187.5 691V576.375a31.25 31.25 0 0 0-62.5 0V691a31.25 31.25 0 0 0 31.25 31.25m45.125 6.875A145.813 145.813 0 0 0 347.25 875h305.5a145.813 145.813 0 0 0 145.875-145.812V309c0-38.312-31.125-69.375-69.438-69.375h-6.937v-26.062a88.563 88.563 0 0 0-177.125 0v26h-90.25v-26a88.563 88.563 0 0 0-177.125 0v26h-6.875a69.375 69.375 0 0 0-69.5 69.437zm534.75-197.875v166.688h-472.25V531.25zm-472.25-62.5V309c0-3.75 3.125-6.875 6.938-6.875h458.375c3.812 0 6.875 3.125 6.875 6.875v159.75zm466.188 291.688A83.125 83.125 0 0 1 652.75 812.5h-305.5c-35 0-65-21.562-77.312-52.062zM316 385.438a31.25 31.25 0 0 0 31.25 31.25h38.125a31.25 31.25 0 0 0 0-62.5H347.25a31.25 31.25 0 0 0-31.25 31.25m24.25-145.875v-26a26.063 26.063 0 1 1 52.125 0v26zm243.125 145.875a31.25 31.25 0 0 0 31.25 31.25h38.125a31.25 31.25 0 1 0 0-62.5h-38.125a31.25 31.25 0 0 0-31.25 31.25m24.25-145.875v-26a26.063 26.063 0 1 1 52.125 0v26zM843.75 722.25A31.25 31.25 0 0 0 875 691V576.375a31.25 31.25 0 0 0-62.5 0V691a31.25 31.25 0 0 0 31.25 31.25" glyph-name="bus" horiz-adv-x="1000" unicode=""/><glyph d="M156.25 722.25A31.25 31.25 0 0 0 187.5 691V576.375a31.25 31.25 0 0 0-62.5 0V691a31.25 31.25 0 0 0 31.25 31.25m45.125 6.875A145.813 145.813 0 0 0 347.25 875h305.5a145.813 145.813 0 0 0 145.875-145.812V309c0-38.312-31.125-69.375-69.438-69.375h-6.937v-26.062a88.563 88.563 0 0 0-177.125 0v26h-90.25v-26a88.563 88.563 0 0 0-177.125 0v26h-6.875a69.375 69.375 0 0 0-69.5 69.437zm534.75-197.875v166.688h-472.25V531.25zm-472.25-62.5V309c0-3.75 3.125-6.875 6.938-6.875h458.375c3.812 0 6.875 3.125 6.875 6.875v159.75zm466.188 291.688A83.125 83.125 0 0 1 652.75 812.5h-305.5c-35 0-65-21.562-77.312-52.062zM316 385.438a31.25 31.25 0 0 0 31.25 31.25h38.125a31.25 31.25 0 0 0 0-62.5H347.25a31.25 31.25 0 0 0-31.25 31.25m24.25-145.875v-26a26.063 26.063 0 1 1 52.125 0v26zm243.125 145.875a31.25 31.25 0 0 0 31.25 31.25h38.125a31.25 31.25 0 1 0 0-62.5h-38.125a31.25 31.25 0 0 0-31.25 31.25m24.25-145.875v-26a26.063 26.063 0 1 1 52.125 0v26zM843.75 722.25A31.25 31.25 0 0 0 875 691V576.375a31.25 31.25 0 0 0-62.5 0V691a31.25 31.25 0 0 0 31.25 31.25" glyph-name="bus-1" horiz-adv-x="1000" unicode="16"/><glyph d="M309 875a145.813 145.813 0 0 1-145.812-145.812V270.813A145.813 145.813 0 0 1 309 125h191v230.875h-19.125a31.25 31.25 0 1 0 0 62.5H500v.188h336.813v310.625A145.813 145.813 0 0 1 691 875zm38.25-114.562h305.5c38.375 0 69.438-31.125 69.438-69.438v-38.25c0-38.312-31.063-69.375-69.375-69.375H347.188a69.375 69.375 0 0 0-69.375 69.375V691c0 38.313 31.062 69.375 69.375 69.375M309 531.25h38.25a31.25 31.25 0 1 0 0-62.5H309a31.25 31.25 0 0 0 0 62.5m0-112.875h38.25a31.25 31.25 0 1 0 0-62.5H309a31.25 31.25 0 1 0 0 62.5M277.75 274.25A31.25 31.25 0 0 0 309 305.5h38.25a31.25 31.25 0 1 0 0-62.5H309a31.25 31.25 0 0 0-31.25 31.25m203.125 257h38.25a31.25 31.25 0 1 0 0-62.5h-38.25a31.25 31.25 0 0 0 0 62.5m171.875 0h38.188a31.25 31.25 0 1 0 0-62.5h-38.125a31.25 31.25 0 0 0 0 62.5M846.75 286.875a31.25 31.25 0 1 1-44.187 44.25l-136.25-136.25-67.063 71.875a31.25 31.25 0 1 1-45.687-42.687l89.125-95.5a31.25 31.25 0 0 1 44.937-.75z" glyph-name="calculator-check-solid" horiz-adv-x="1000" unicode=""/><glyph d="M309 875a145.813 145.813 0 0 1-145.812-145.812V270.813A145.813 145.813 0 0 1 309 125h191v230.875h-19.125a31.25 31.25 0 1 0 0 62.5H500v.188h336.813v310.625A145.813 145.813 0 0 1 691 875zm38.25-114.562h305.5c38.375 0 69.438-31.125 69.438-69.438v-38.25c0-38.312-31.063-69.375-69.375-69.375H347.188a69.375 69.375 0 0 0-69.375 69.375V691c0 38.313 31.062 69.375 69.375 69.375M309 531.25h38.25a31.25 31.25 0 1 0 0-62.5H309a31.25 31.25 0 0 0 0 62.5m0-112.875h38.25a31.25 31.25 0 1 0 0-62.5H309a31.25 31.25 0 1 0 0 62.5M277.75 274.25A31.25 31.25 0 0 0 309 305.5h38.25a31.25 31.25 0 1 0 0-62.5H309a31.25 31.25 0 0 0-31.25 31.25m203.125 257h38.25a31.25 31.25 0 1 0 0-62.5h-38.25a31.25 31.25 0 0 0 0 62.5m171.875 0h38.188a31.25 31.25 0 1 0 0-62.5h-38.125a31.25 31.25 0 0 0 0 62.5M846.75 286.875a31.25 31.25 0 1 1-44.187 44.25l-136.25-136.25-67.063 71.875a31.25 31.25 0 1 1-45.687-42.687l89.125-95.5a31.25 31.25 0 0 1 44.937-.75z" glyph-name="calculator-check-solid-1" horiz-adv-x="1000" unicode="16"/><glyph d="M163.188 729.188A145.813 145.813 0 0 0 309 875h382a145.813 145.813 0 0 0 145.813-145.812V423.625a31.25 31.25 0 0 0-62.5 0v305.563c0 46-37.313 83.312-83.313 83.312H309c-46 0-83.312-37.312-83.312-83.312V270.875C225.688 224.813 263 187.5 309 187.5h152.875a31.25 31.25 0 1 0 0-62.5H309a145.813 145.813 0 0 0-145.812 145.875zM277.75 691c0 38.375 31.125 69.438 69.5 69.438h305.5c38.375 0 69.438-31.063 69.438-69.438v-38.187c0-38.375-31.063-69.438-69.375-69.438H347.188a69.375 69.375 0 0 0-69.375 69.375zm0-191A31.25 31.25 0 0 0 309 531.25h38.25a31.25 31.25 0 1 0 0-62.5H309A31.25 31.25 0 0 0 277.75 500m0-112.875a31.25 31.25 0 0 0 31.25 31.25h38.25a31.25 31.25 0 1 0 0-62.5H309a31.25 31.25 0 0 0-31.25 31.25m0-112.812a31.25 31.25 0 0 0 31.25 31.25h38.25a31.25 31.25 0 1 0 0-62.5H309a31.25 31.25 0 0 0-31.25 31.25m69.5 423.625a6.875 6.875 0 0 1-7-6.938v-38.187c0-3.875 3.125-6.938 7-6.938h305.5c3.875 0 6.938 3.125 6.938 6.875V691a6.875 6.875 0 0 1-6.875 6.938zM449.625 500a31.25 31.25 0 0 0 31.25 31.25h38.25a31.25 31.25 0 1 0 0-62.5h-38.25a31.25 31.25 0 0 0-31.25 31.25m0-112.875a31.25 31.25 0 0 0 31.25 31.25h38.25a31.25 31.25 0 1 0 0-62.5h-38.25a31.25 31.25 0 0 0-31.25 31.25m397.125-56a31.25 31.25 0 0 0 0-44.188L687.625 127.812a31.25 31.25 0 0 0-45 .75l-89.063 95.5a31.25 31.25 0 0 0 45.625 42.625l67.125-71.812 136.25 136.25a31.25 31.25 0 0 0 44.188 0M621.5 500a31.25 31.25 0 0 0 31.25 31.25h38.188a31.25 31.25 0 1 0 0-62.5h-38.125a31.25 31.25 0 0 0-31.25 31.25m0-112.875a31.25 31.25 0 0 0 31.25 31.25H691a31.25 31.25 0 1 0 0-62.5h-38.125a31.25 31.25 0 0 0-31.25 31.25" glyph-name="calculator-check" horiz-adv-x="1000" unicode=""/><glyph d="M163.188 729.188A145.813 145.813 0 0 0 309 875h382a145.813 145.813 0 0 0 145.813-145.812V423.625a31.25 31.25 0 0 0-62.5 0v305.563c0 46-37.313 83.312-83.313 83.312H309c-46 0-83.312-37.312-83.312-83.312V270.875C225.688 224.813 263 187.5 309 187.5h152.875a31.25 31.25 0 1 0 0-62.5H309a145.813 145.813 0 0 0-145.812 145.875zM277.75 691c0 38.375 31.125 69.438 69.5 69.438h305.5c38.375 0 69.438-31.063 69.438-69.438v-38.187c0-38.375-31.063-69.438-69.375-69.438H347.188a69.375 69.375 0 0 0-69.375 69.375zm0-191A31.25 31.25 0 0 0 309 531.25h38.25a31.25 31.25 0 1 0 0-62.5H309A31.25 31.25 0 0 0 277.75 500m0-112.875a31.25 31.25 0 0 0 31.25 31.25h38.25a31.25 31.25 0 1 0 0-62.5H309a31.25 31.25 0 0 0-31.25 31.25m0-112.812a31.25 31.25 0 0 0 31.25 31.25h38.25a31.25 31.25 0 1 0 0-62.5H309a31.25 31.25 0 0 0-31.25 31.25m69.5 423.625a6.875 6.875 0 0 1-7-6.938v-38.187c0-3.875 3.125-6.938 7-6.938h305.5c3.875 0 6.938 3.125 6.938 6.875V691a6.875 6.875 0 0 1-6.875 6.938zM449.625 500a31.25 31.25 0 0 0 31.25 31.25h38.25a31.25 31.25 0 1 0 0-62.5h-38.25a31.25 31.25 0 0 0-31.25 31.25m0-112.875a31.25 31.25 0 0 0 31.25 31.25h38.25a31.25 31.25 0 1 0 0-62.5h-38.25a31.25 31.25 0 0 0-31.25 31.25m397.125-56a31.25 31.25 0 0 0 0-44.188L687.625 127.812a31.25 31.25 0 0 0-45 .75l-89.063 95.5a31.25 31.25 0 0 0 45.625 42.625l67.125-71.812 136.25 136.25a31.25 31.25 0 0 0 44.188 0M621.5 500a31.25 31.25 0 0 0 31.25 31.25h38.188a31.25 31.25 0 1 0 0-62.5h-38.125a31.25 31.25 0 0 0-31.25 31.25m0-112.875a31.25 31.25 0 0 0 31.25 31.25H691a31.25 31.25 0 1 0 0-62.5h-38.125a31.25 31.25 0 0 0-31.25 31.25" glyph-name="calculator-check-1" horiz-adv-x="1000" unicode="16"/><glyph d="M347.25 932.313a31.25 31.25 0 0 0 31.25-31.25v-45.125h243v45.125a31.25 31.25 0 0 0 62.5 0v-45.125h45.188A145.813 145.813 0 0 0 875 710v-76.25a31.25 31.25 0 0 0-31.25-31.25H187.5V290c0-46 37.313-83.312 83.313-83.312h114.625a31.25 31.25 0 0 0 0-62.5H270.813A145.813 145.813 0 0 0 125 289.938V710a145.813 145.813 0 0 0 145.813 145.875H316V901a31.25 31.25 0 0 0 31.25 31.25m388.875-437.5a50.375 50.375 0 0 1-90.312 0l-42.938-87-96.062-14a50.375 50.375 0 0 1-27.875-85.875l69.5-67.75L532 144.5a50.375 50.375 0 0 1 73.063-53.125L691 136.563l85.875-45.125a50.375 50.375 0 0 1 73.063 53.062L833.5 240.125l69.5 67.75a50.375 50.375 0 0 1-27.875 85.875l-96.062 14z" glyph-name="calendar-event-solid" horiz-adv-x="1000" unicode=""/><glyph d="M347.25 932.313a31.25 31.25 0 0 0 31.25-31.25v-45.125h243v45.125a31.25 31.25 0 0 0 62.5 0v-45.125h45.188A145.813 145.813 0 0 0 875 710v-76.25a31.25 31.25 0 0 0-31.25-31.25H187.5V290c0-46 37.313-83.312 83.313-83.312h114.625a31.25 31.25 0 0 0 0-62.5H270.813A145.813 145.813 0 0 0 125 289.938V710a145.813 145.813 0 0 0 145.813 145.875H316V901a31.25 31.25 0 0 0 31.25 31.25m388.875-437.5a50.375 50.375 0 0 1-90.312 0l-42.938-87-96.062-14a50.375 50.375 0 0 1-27.875-85.875l69.5-67.75L532 144.5a50.375 50.375 0 0 1 73.063-53.125L691 136.563l85.875-45.125a50.375 50.375 0 0 1 73.063 53.062L833.5 240.125l69.5 67.75a50.375 50.375 0 0 1-27.875 85.875l-96.062 14z" glyph-name="calendar-event-solid-1" horiz-adv-x="1000" unicode="16"/><glyph d="M378.5 901.063a31.25 31.25 0 0 1-62.5 0v-45.125h-45.187A145.813 145.813 0 0 1 125 710V289.875a145.813 145.813 0 0 1 145.813-145.812h114.625a31.25 31.25 0 1 1 0 62.5H270.813a83.313 83.313 0 0 0-83.313 83.375v312.5h656.25a31.25 31.25 0 0 1 31.25 31.25V710a145.813 145.813 0 0 1-145.812 145.875H684V901a31.25 31.25 0 1 1-62.5 0v-45.125h-243zm243-152.813a31.25 31.25 0 1 1 62.5 0v45.125h45.188c46 0 83.312-37.25 83.312-83.312v-45.125h-625v45.125c0 46.062 37.313 83.375 83.313 83.375H316V748.25a31.25 31.25 0 1 1 62.5 0v45.125h243zm114.625-253.5a50.375 50.375 0 0 1-90.312 0l-42.938-87-96.062-14a50.375 50.375 0 0 1-27.875-85.875l69.5-67.75L532 144.5a50.375 50.375 0 0 1 73.063-53.125L691 136.563l85.875-45.125a50.375 50.375 0 0 1 73.063 53.062L833.5 240.125l69.5 67.75a50.375 50.375 0 0 1-27.875 85.875l-96.062 14zm-80-120.437L691 445l34.875-70.625a50 50 0 0 1 37.875-27.562l78-11.375-56.437-55a50 50 0 0 1-14.5-44.563l13.375-77.687-69.813 36.687a50 50 0 0 1-46.875 0l-69.75-36.687 13.313 77.687a50 50 0 0 1-14.438 44.563l-56.438 55 78 11.375a50 50 0 0 1 37.875 27.5" glyph-name="calendar-event" horiz-adv-x="1000" unicode=""/><glyph d="M378.5 901.063a31.25 31.25 0 0 1-62.5 0v-45.125h-45.187A145.813 145.813 0 0 1 125 710V289.875a145.813 145.813 0 0 1 145.813-145.812h114.625a31.25 31.25 0 1 1 0 62.5H270.813a83.313 83.313 0 0 0-83.313 83.375v312.5h656.25a31.25 31.25 0 0 1 31.25 31.25V710a145.813 145.813 0 0 1-145.812 145.875H684V901a31.25 31.25 0 1 1-62.5 0v-45.125h-243zm243-152.813a31.25 31.25 0 1 1 62.5 0v45.125h45.188c46 0 83.312-37.25 83.312-83.312v-45.125h-625v45.125c0 46.062 37.313 83.375 83.313 83.375H316V748.25a31.25 31.25 0 1 1 62.5 0v45.125h243zm114.625-253.5a50.375 50.375 0 0 1-90.312 0l-42.938-87-96.062-14a50.375 50.375 0 0 1-27.875-85.875l69.5-67.75L532 144.5a50.375 50.375 0 0 1 73.063-53.125L691 136.563l85.875-45.125a50.375 50.375 0 0 1 73.063 53.062L833.5 240.125l69.5 67.75a50.375 50.375 0 0 1-27.875 85.875l-96.062 14zm-80-120.437L691 445l34.875-70.625a50 50 0 0 1 37.875-27.562l78-11.375-56.437-55a50 50 0 0 1-14.5-44.563l13.375-77.687-69.813 36.687a50 50 0 0 1-46.875 0l-69.75-36.687 13.313 77.687a50 50 0 0 1-14.438 44.563l-56.438 55 78 11.375a50 50 0 0 1 37.875 27.5" glyph-name="calendar-event-1" horiz-adv-x="1000" unicode="16"/><glyph d="M378.5 901.063a31.25 31.25 0 1 1-62.5 0v-45.125h-45.187A145.813 145.813 0 0 1 125 710V289.875a145.813 145.813 0 0 1 145.813-145.812h114.625a31.25 31.25 0 1 1 0 62.5H270.813a83.313 83.313 0 0 0-83.313 83.375v312.5h656.25a31.25 31.25 0 0 1 31.25 31.25V710a145.813 145.813 0 0 1-145.812 145.875H684V901a31.25 31.25 0 1 1-62.5 0v-45.125h-243zM691 529.5a222.25 222.25 0 1 1 0-444.375 222.25 222.25 0 0 1 0 444.375m0-114.562a31.25 31.25 0 0 0 31.25-31.25V320.25l48.125-48.125a31.25 31.25 0 1 0-44.188-44.187l-66.437 66.437v89.313a31.25 31.25 0 0 0 31.25 31.25" glyph-name="calendar-history-solid" horiz-adv-x="1000" unicode=""/><glyph d="M378.5 901.063a31.25 31.25 0 1 1-62.5 0v-45.125h-45.187A145.813 145.813 0 0 1 125 710V289.875a145.813 145.813 0 0 1 145.813-145.812h114.625a31.25 31.25 0 1 1 0 62.5H270.813a83.313 83.313 0 0 0-83.313 83.375v312.5h656.25a31.25 31.25 0 0 1 31.25 31.25V710a145.813 145.813 0 0 1-145.812 145.875H684V901a31.25 31.25 0 1 1-62.5 0v-45.125h-243zM691 529.5a222.25 222.25 0 1 1 0-444.375 222.25 222.25 0 0 1 0 444.375m0-114.562a31.25 31.25 0 0 0 31.25-31.25V320.25l48.125-48.125a31.25 31.25 0 1 0-44.188-44.187l-66.437 66.437v89.313a31.25 31.25 0 0 0 31.25 31.25" glyph-name="calendar-history-solid-1" horiz-adv-x="1000" unicode="16"/><glyph d="M347.25 932.313a31.25 31.25 0 0 0 31.25-31.25v-45.125h243v45.125a31.25 31.25 0 0 0 62.5 0v-45.125h45.188A145.813 145.813 0 0 0 875 710v-76.25a31.25 31.25 0 0 0-31.25-31.25H187.5V290c0-46 37.313-83.312 83.313-83.312h114.625a31.25 31.25 0 0 0 0-62.5H270.813A145.813 145.813 0 0 0 125 289.938V710a145.813 145.813 0 0 0 145.813 145.875H316V901a31.25 31.25 0 0 0 31.25 31.25M621.5 793.375h-243v-45.187a31.25 31.25 0 1 0-62.5 0v45.125h-45.187c-46 .062-83.313-37.188-83.313-83.25v-45.125h625v45.125c0 46.062-37.312 83.375-83.312 83.375H684V748.25a31.25 31.25 0 1 0-62.5 0zm100.75-409.687a31.25 31.25 0 0 1-62.5 0v-89.375l66.438-66.438a31.25 31.25 0 0 1 44.187 44.25L722.25 320.25zM691 529.5a222.25 222.25 0 1 1 0-444.375 222.25 222.25 0 0 1 0 444.375M531.25 307.313a159.75 159.75 0 1 0 319.438 0 159.75 159.75 0 0 0-319.438 0" glyph-name="calendar-history" horiz-adv-x="1000" unicode=""/><glyph d="M347.25 932.313a31.25 31.25 0 0 0 31.25-31.25v-45.125h243v45.125a31.25 31.25 0 0 0 62.5 0v-45.125h45.188A145.813 145.813 0 0 0 875 710v-76.25a31.25 31.25 0 0 0-31.25-31.25H187.5V290c0-46 37.313-83.312 83.313-83.312h114.625a31.25 31.25 0 0 0 0-62.5H270.813A145.813 145.813 0 0 0 125 289.938V710a145.813 145.813 0 0 0 145.813 145.875H316V901a31.25 31.25 0 0 0 31.25 31.25M621.5 793.375h-243v-45.187a31.25 31.25 0 1 0-62.5 0v45.125h-45.187c-46 .062-83.313-37.188-83.313-83.25v-45.125h625v45.125c0 46.062-37.312 83.375-83.312 83.375H684V748.25a31.25 31.25 0 1 0-62.5 0zm100.75-409.687a31.25 31.25 0 0 1-62.5 0v-89.375l66.438-66.438a31.25 31.25 0 0 1 44.187 44.25L722.25 320.25zM691 529.5a222.25 222.25 0 1 1 0-444.375 222.25 222.25 0 0 1 0 444.375M531.25 307.313a159.75 159.75 0 1 0 319.438 0 159.75 159.75 0 0 0-319.438 0" glyph-name="calendar-history-1" horiz-adv-x="1000" unicode="16"/><glyph d="M347.25 932.313a31.25 31.25 0 0 0 31.25-31.25v-45.188h243v45.188a31.25 31.25 0 0 0 62.5 0v-45.188h45.188A145.813 145.813 0 0 0 875 710.063V289.938a145.813 145.813 0 0 0-145.812-145.813H270.813A145.813 145.813 0 0 0 125 289.938V710a145.813 145.813 0 0 0 145.813 145.813H316V901a31.25 31.25 0 0 0 31.25 31.25m-76.437-725.625h458.375c46 0 83.312 37.312 83.312 83.313v312.5h-625v-312.5c0-46 37.313-83.313 83.313-83.313" glyph-name="calendar-solid" horiz-adv-x="1000" unicode=""/><glyph d="M347.25 932.313a31.25 31.25 0 0 0 31.25-31.25v-45.188h243v45.188a31.25 31.25 0 0 0 62.5 0v-45.188h45.188A145.813 145.813 0 0 0 875 710.063V289.938a145.813 145.813 0 0 0-145.812-145.813H270.813A145.813 145.813 0 0 0 125 289.938V710a145.813 145.813 0 0 0 145.813 145.813H316V901a31.25 31.25 0 0 0 31.25 31.25m-76.437-725.625h458.375c46 0 83.312 37.312 83.312 83.313v312.5h-625v-312.5c0-46 37.313-83.313 83.313-83.313" glyph-name="calendar-solid-1" horiz-adv-x="1000" unicode="16"/><glyph d="M347.25 932.313a31.25 31.25 0 0 0 31.25-31.25v-45.188h243v45.188a31.25 31.25 0 0 0 62.5 0v-45.188h45.188A145.813 145.813 0 0 0 875 710.063V289.938a145.813 145.813 0 0 0-145.812-145.813H270.813A145.813 145.813 0 0 0 125 289.938V710a145.813 145.813 0 0 0 145.813 145.813H316V901a31.25 31.25 0 0 0 31.25 31.25M316 793.313h-45.187c-46 .062-83.313-37.188-83.313-83.25v-45.125h625v45.125c0 46.062-37.312 83.312-83.312 83.312H684V748.25a31.25 31.25 0 1 0-62.5 0v45.125h-243V748.25a31.25 31.25 0 0 0-62.5 0zM812.5 602.5h-625V290c0-46 37.313-83.312 83.313-83.312h458.375c46 0 83.312 37.312 83.312 83.312z" glyph-name="calendar" horiz-adv-x="1000" unicode=""/><glyph d="M347.25 932.313a31.25 31.25 0 0 0 31.25-31.25v-45.188h243v45.188a31.25 31.25 0 0 0 62.5 0v-45.188h45.188A145.813 145.813 0 0 0 875 710.063V289.938a145.813 145.813 0 0 0-145.812-145.813H270.813A145.813 145.813 0 0 0 125 289.938V710a145.813 145.813 0 0 0 145.813 145.813H316V901a31.25 31.25 0 0 0 31.25 31.25M316 793.313h-45.187c-46 .062-83.313-37.188-83.313-83.25v-45.125h625v45.125c0 46.062-37.312 83.312-83.312 83.312H684V748.25a31.25 31.25 0 1 0-62.5 0v45.125h-243V748.25a31.25 31.25 0 0 0-62.5 0zM812.5 602.5h-625V290c0-46 37.313-83.312 83.313-83.312h458.375c46 0 83.312 37.312 83.312 83.312z" glyph-name="calendar-1" horiz-adv-x="1000" unicode="16"/><glyph d="M849.813 383.563C867.75 369.375 875 348.313 875 329.438v-130.25c0-40.375-33.125-75.5-76.125-72.813a718.75 718.75 0 0 0-430.437 178.25 62.5 62.5 0 0 0-9.5 10.125L178.313 134.125a31.25 31.25 0 0 0-44.188 44.188l687.5 687.5a31.25 31.25 0 0 0 44.25-44.188l-350.312-350.25q4.125-2.687 7.937-5.875 34.188-29.312 73.25-52.375a10 10 0 0 1 9.688.188l22.187 11.812c10.625 5.625 22.813 8.75 35.375 8.625 81.5-1.187 141.563-15.25 185.813-50.187M416.625 590.875c17.938-29.375 15.438-69.062-10.937-94.813l-79.063-77.187a44.25 44.25 0 0 0-66.875 5.813 718.75 718.75 0 0 0-133.312 374.187C123.688 841.813 158.75 875 199.125 875h121.5c28.063 0 53.938-15.875 66.438-41.25 13.437-27.437 23.312-49.187 29.625-72.437 6.375-23.563 8.687-47.25 9.062-78.438.188-12.312-2.812-24.312-8.375-34.875L404 622.5a10 10 0 0 1-.312-9.312q6.25-11.25 12.875-22.313" glyph-name="call-off-solid" horiz-adv-x="1000" unicode=""/><glyph d="M849.813 383.563C867.75 369.375 875 348.313 875 329.438v-130.25c0-40.375-33.125-75.5-76.125-72.813a718.75 718.75 0 0 0-430.437 178.25 62.5 62.5 0 0 0-9.5 10.125L178.313 134.125a31.25 31.25 0 0 0-44.188 44.188l687.5 687.5a31.25 31.25 0 0 0 44.25-44.188l-350.312-350.25q4.125-2.687 7.937-5.875 34.188-29.312 73.25-52.375a10 10 0 0 1 9.688.188l22.187 11.812c10.625 5.625 22.813 8.75 35.375 8.625 81.5-1.187 141.563-15.25 185.813-50.187M416.625 590.875c17.938-29.375 15.438-69.062-10.937-94.813l-79.063-77.187a44.25 44.25 0 0 0-66.875 5.813 718.75 718.75 0 0 0-133.312 374.187C123.688 841.813 158.75 875 199.125 875h121.5c28.063 0 53.938-15.875 66.438-41.25 13.437-27.437 23.312-49.187 29.625-72.437 6.375-23.563 8.687-47.25 9.062-78.438.188-12.312-2.812-24.312-8.375-34.875L404 622.5a10 10 0 0 1-.312-9.312q6.25-11.25 12.875-22.313" glyph-name="call-off-solid-1" horiz-adv-x="1000" unicode="16"/><glyph d="M875 329.375c0 18.938-7.25 40-25.187 54.188-44.25 35-104.313 49-185.813 50.187a75 75 0 0 1-35.375-8.625l-22.188-11.875a10 10 0 0 0-9.687-.125 525 525 0 0 0-80.625 58.75l349.75 349.75a31.25 31.25 0 0 1-44.25 44.188L335.688 379.875l-.188-.187-.125-.126-201.25-201.25a31.25 31.25 0 1 1 44.25-44.187l179.688 179.75a718.75 718.75 0 0 1 440.812-187.5C841.813 123.687 875 158.812 875 199.187zm-472.687 28.75 69.562 69.5q43-38.562 93.125-68.312c22.312-13.25 49.25-12.688 70.875-1.188L658.063 370a12.5 12.5 0 0 0 5.062 1.25c76.25-1.062 119.687-14.375 148.063-36.75q.062.063.624-1.062a12.5 12.5 0 0 0 .75-4v-130.25c0-7-5.312-10.625-9.75-10.375a656.25 656.25 0 0 0-400.437 169.375M384.5 526a31.25 31.25 0 1 1 51.063 36 500 500 0 0 0-31.813 51.25 10 10 0 0 0 .313 9.25l13.375 25.5c5.5 10.625 8.562 22.563 8.375 34.875-.375 31.25-2.688 54.875-9.063 78.438-6.25 23.25-16.187 45-29.625 72.437-12.5 25.375-38.375 41.25-66.5 41.25H199.188c-40.375 0-75.5-33.125-72.75-76.125a718.75 718.75 0 0 1 133.375-374.187l8.812-12.25A31.25 31.25 0 0 1 319.313 449l-8.75 12.188A656.25 656.25 0 0 0 188.75 802.75c-.25 4.375 3.438 9.75 10.438 9.75h121.5c4.437 0 8.437-2.5 10.312-6.375 13.313-27.062 20.813-44.187 25.438-61.125 4.437-16.562 6.5-34.375 6.875-62.937a12.5 12.5 0 0 0-1.25-5L348.75 651.5c-10.937-20.75-11.75-46.375.125-68.125Q365.125 553.563 384.5 526" glyph-name="call-off" horiz-adv-x="1000" unicode=""/><glyph d="M875 329.375c0 18.938-7.25 40-25.187 54.188-44.25 35-104.313 49-185.813 50.187a75 75 0 0 1-35.375-8.625l-22.188-11.875a10 10 0 0 0-9.687-.125 525 525 0 0 0-80.625 58.75l349.75 349.75a31.25 31.25 0 0 1-44.25 44.188L335.688 379.875l-.188-.187-.125-.126-201.25-201.25a31.25 31.25 0 1 1 44.25-44.187l179.688 179.75a718.75 718.75 0 0 1 440.812-187.5C841.813 123.687 875 158.812 875 199.187zm-472.687 28.75 69.562 69.5q43-38.562 93.125-68.312c22.312-13.25 49.25-12.688 70.875-1.188L658.063 370a12.5 12.5 0 0 0 5.062 1.25c76.25-1.062 119.687-14.375 148.063-36.75q.062.063.624-1.062a12.5 12.5 0 0 0 .75-4v-130.25c0-7-5.312-10.625-9.75-10.375a656.25 656.25 0 0 0-400.437 169.375M384.5 526a31.25 31.25 0 1 1 51.063 36 500 500 0 0 0-31.813 51.25 10 10 0 0 0 .313 9.25l13.375 25.5c5.5 10.625 8.562 22.563 8.375 34.875-.375 31.25-2.688 54.875-9.063 78.438-6.25 23.25-16.187 45-29.625 72.437-12.5 25.375-38.375 41.25-66.5 41.25H199.188c-40.375 0-75.5-33.125-72.75-76.125a718.75 718.75 0 0 1 133.375-374.187l8.812-12.25A31.25 31.25 0 0 1 319.313 449l-8.75 12.188A656.25 656.25 0 0 0 188.75 802.75c-.25 4.375 3.438 9.75 10.438 9.75h121.5c4.437 0 8.437-2.5 10.312-6.375 13.313-27.062 20.813-44.187 25.438-61.125 4.437-16.562 6.5-34.375 6.875-62.937a12.5 12.5 0 0 0-1.25-5L348.75 651.5c-10.937-20.75-11.75-46.375.125-68.125Q365.125 553.563 384.5 526" glyph-name="call-off-1" horiz-adv-x="1000" unicode="16"/></font>
</defs>
</svg>
