<svg xmlns="http://www.w3.org/2000/svg" width="240" height="240" fill="none" class="persona-ilustration" viewBox="0 0 240 240"><g clip-path="url(#a)"><g clip-path="url(#b)"><rect width="200" height="200" x="20.225" y="20" fill="#D3EDFF" rx="100"/><path fill="#4793CC" fill-rule="evenodd" d="M6.539 100.914c21.656 1.319 55.854 1.971 70.466-5.509 19.946-17.512 164.04-13.534 164.04-13.534l-6.188-3.978s-.512-.242-1.407-.652h34.903v155.198H6.539z" clip-rule="evenodd" opacity=".3"/><path fill="#AADBFF" d="M175.192 53.812c12.02-1.258 13.254 2.053 30.934 3.464l34.919 24.637-31.715-3.504s-48.558 0-91.25-1.987c-33.893 7.663-159.918 5.491-159.918 5.491l6.188-3.465s14.2-5.855 23.868-8.083c14.08-3.246 22.621-1.954 37.129-3.08 19.147-1.486 29.917-1.962 49.062-3.465 10.88-.853 39.219 5.166 49.882 3.099 10.178-1.974 10.104-5.756 25.194-7.7s14.501-4.235 25.707-5.407" opacity=".5"/><mask id="c" width="284" height="60" x="-42" y="49" maskUnits="userSpaceOnUse" style="mask-type:alpha"><path fill="#AADBFF" d="M50.54 49.605c-2.982-2.026-39.78 2.357-57.46 3.978L-41.838 81.87l29.287 17.497s27.925 16.016 59.455 6.085c26.443-8.329 63.804 1.738 38.73-8.69 11.316-16.879 155.41-14.89 155.41-14.89l-6.188-3.978s-14.2-6.724-23.868-9.282c-14.081-3.726-22.621-2.243-37.129-3.536-19.147-1.707-29.917-2.253-49.062-3.978-10.88-.98-17.184-.279-27.847-2.652-10.177-2.266-19.595-9.135-25.194-8.84s-15.358 3.978-21.216 0"/></mask><g mask="url(#c)"><path fill="#AADBFF" d="M50.54 49.605c-2.982-2.026-39.78 2.357-57.46 3.978L-41.838 81.87l29.287 17.497s27.925 16.016 59.455 6.085c26.443-8.329 63.804 1.738 38.73-8.69 11.316-16.879 155.41-14.89 155.41-14.89l-6.188-3.978s-14.2-6.724-23.868-9.282c-14.081-3.726-22.621-2.243-37.129-3.536-19.147-1.707-29.917-2.253-49.062-3.978-10.88-.98-17.184-.279-27.847-2.652-10.177-2.266-19.595-9.135-25.194-8.84s-15.358 3.978-21.216 0"/><path fill="#82C2F1" d="M83.048 66.836c-3.302-4.128-16.971-13.417-23.393-17.545 3.21-1.143 10.151-2.545 12.248.993s5.787 6.933 7.37 8.189c2.457 2.788 7.862 8.885 9.827 10.973 1.966 2.088 5.958 4.634 7.709 5.646-3.211-1.032-10.458-4.128-13.76-8.256m58.78-.406c-5.396-1.58-27.73-5.135-38.223-6.715 5.244-.438 16.587-.974 20.013.38 3.425 1.354 9.455 2.653 12.042 3.134 4.015 1.066 12.846 3.4 16.057 4.199 3.211.8 9.735 1.773 12.595 2.16-5.246-.394-17.087-1.58-22.484-3.159M79.966 92.048c10.504 7.484 24.831 15.158 33.1 18.927-.973 1.581-3.794 5.472-7.296 8.39s-32.587 4.864-46.692 5.472h-91.56c8.146-20.915 26.774-67.266 36.113-85.36 9.338-18.092 33.074 7.54 43.774 22.617 3.28 14.854 11.917 18.632 14.835 21.55 3.648 3.648 7.607 1.194 17.726 8.404" opacity=".75"/></g><path fill="#C3CADD" d="M99.706 172.728v22.85c0 8.695-.104 9.268-3.517 14.088-3.969 5.607-3.719 37.092-3.573 55.496.024 2.971.045 5.6.045 7.726l-15.05-5.478c0-2.125.02-4.74.044-7.693.146-18.298.396-49.601-3.573-58.097-3.413-7.305-3.516-7.953-3.516-16.648v-22.85z"/><path fill="#9DA8C4" d="M85.048 177.718v22.85c0 8.695-.103 9.268-3.516 14.088-3.97 5.607-3.72 37.092-3.573 55.496.024 2.971.044 5.6.044 7.726l-15.05-5.478c0-2.125.021-4.74.045-7.693.146-18.298.396-49.601-3.573-58.097-3.413-7.305-3.516-7.953-3.516-16.648v-22.85z"/><mask id="d" width="195" height="92" x="-67" y="134" maskUnits="userSpaceOnUse" style="mask-type:alpha"><path fill="#9DA8C4" d="m-66.48 170.462 126.64-35.616 4.175 3.593h7.572l1.305 2.62 5.793 2.172 2.2 1.448 1.662 2.888 9.888 1.931 1.448 3.156 2.163 2.637 7 1.207 4.094 2.887 1.931 3.621 4.587.724 1.448 2.897 3.612 1.591 2.114 3.02 1.989 2.869 1.448 5.763 2.946 1.023-81.633 44.809z"/></mask><g mask="url(#d)"><path fill="#9DA8C4" d="m-66.48 170.462 126.64-35.616 4.175 3.593h7.572l1.305 2.62 5.793 2.172 2.2 1.448 1.662 2.888 9.888 1.931 1.448 3.156 2.163 2.637 7 1.207 4.094 2.887 1.931 3.621 4.587.724 1.448 2.897 3.612 1.591 2.114 3.02 1.989 2.869 1.448 5.763 2.946 1.023-81.633 44.809z"/><path fill="#F7E891" fill-rule="evenodd" d="m-11.237 183.691 129.86-49.527.57 1.495-129.86 49.527zm3.212 3.818 129.86-49.527.57 1.495-129.86 49.527z" clip-rule="evenodd" style="mix-blend-mode:lighten"/></g><path fill="#C3CADD" d="M192.675 125.816v22.849c0 8.696-.104 9.268-3.516 14.089-3.97 5.607-3.72 37.091-3.573 55.495.023 2.971.044 5.601.044 7.726l-15.05-5.478c0-2.125.021-4.739.045-7.693.146-18.298.396-49.6-3.574-58.096-3.412-7.305-3.516-7.953-3.516-16.648v-22.85z"/><path fill="#9DA8C4" d="M178.018 130.805v22.85c0 8.696-.104 9.268-3.516 14.089-3.97 5.606-3.72 37.091-3.574 55.495.024 2.971.045 5.601.045 7.726l-15.05-5.478c0-2.125.021-4.739.044-7.693.147-18.298.397-49.6-3.573-58.097-3.412-7.304-3.516-7.952-3.516-16.648V120.2z"/><path fill="#3F568E" d="m110.455 120.712 6.482 1.037v8.939l-6.482-1.037z"/><path fill="#394E85" d="m116.937 121.749 2.458 2.154v8.94l-2.458-2.154z"/><path fill="#30457A" d="m119.395 123.903 4.363 2.566v8.94l-4.363-2.566z"/><path fill="#394E85" d="M123.758 126.469h5.909v8.94h-5.909z"/><path fill="#30457A" d="m129.667 129.813 3.853 2.53v8.939l-3.853-2.53z"/><path fill="#394E85" d="m133.52 132.343 4.872 1.314v8.94l-4.872-1.315z"/><path fill="#30457A" d="m138.392 133.657 2.825 2.306v8.94l-2.825-2.307z"/><path fill="#394E85" d="m141.217 135.963 3.844 1.287v8.94l-3.844-1.287z"/><path fill="#30457A" d="m145.061 137.25 3.344 3.335v8.939l-3.344-3.334z"/><path fill="#394E85" d="M148.405 140.585h4.872v8.939h-4.872z"/><path fill="#3F568E" d="m153.277 140.585 3.334 3.334v8.94l-3.334-3.335zm3.334 3.334 13.294 6.991v8.94l-13.294-6.991z"/><mask id="e" width="149" height="71" x="105" y="80" maskUnits="userSpaceOnUse" style="mask-type:alpha"><path fill="#9DA8C4" d="m169.905 150.911-13.294-6.991-3.334-3.335h-4.872l-3.344-3.334-3.844-1.288-2.825-2.306-4.872-1.314-3.853-2.53v-3.344h-5.909l-4.363-2.565-2.458-2.155-6.482-1.037-4.782-2.512 132.8-37.323 14.983 17.36z"/></mask><g mask="url(#e)"><path fill="#9DA8C4" d="m169.905 150.911-13.294-6.991-3.334-3.335h-4.872l-3.344-3.334-3.844-1.288-2.825-2.306-4.872-1.314-3.853-2.53v-3.344h-5.909l-4.363-2.565-2.458-2.155-6.482-1.037-4.782-2.512 132.8-37.323 14.983 17.36z"/><path fill="#F7E891" fill-rule="evenodd" d="m130.29 132.344 132.731-49.273.557 1.5-132.731 49.273zm-99.002 42.208 231.46-89.125.574 1.493-231.46 89.125z" clip-rule="evenodd" style="mix-blend-mode:lighten"/></g><path fill="#E8EAF1" d="M60.16 119.925v14.93l-126.64 35.607-1.959-21.321z"/><path fill="#C3CADD" d="M60.16 119.925-68.439 149.14l-6.24-2.27 130.584-29.529z"/><path fill="#E8EAF1" d="m259.624 74.619-6.117 4.97-143.052 41.123v-12.211z"/><path fill="#C3CADD" d="m110.455 108.501-.36-.166-4.422-2.248 139.165-31.468h14.786z"/><path fill="#C3CADD" fill-rule="evenodd" d="M105.673 116.759v-10.672l4.782 2.414v21.151l-4.782-2.512z" clip-rule="evenodd"/><path fill="#E8EAF1" d="m169.905 150.911 113.139-55.543v8.94l-113.139 55.543z"/><path fill="#E8EAF1" d="M325.33 67.789v6.83L169.905 150.91v-14.492z"/><path fill="#C3CADD" d="m297.166 79.892-127.261 56.527-6.242-2.504 121.81-50.733zm-133.502 54.103-.623 22.281 6.864 3.58v-23.437zM128.1 159.852l-97.65 46.701-12.726-4.333 104.983-45.182z"/><path fill="#E8EAF1" d="m127.675 173.122.191-13.261-107.284 51.661v29.007l107.093-59.489z"/><path fill="#30457A" fill-rule="evenodd" d="M255.477 33.125 139.354 99.993l-.798-1.387 116.123-66.868z" clip-rule="evenodd"/><path fill="#9DA8C4" d="M142.725 97.944c-.725-.1-.981-.218-1.38-.939l-7.466 1.279 4.331 2.863 4.319-.828s-.23-.063.196-2.375"/><path fill="#3F568E" d="m138.053 100.733-4.182-2.445v1.352l4.182 2.59 4.467-.995v-1.145z"/><path fill="#30457A" fill-rule="evenodd" d="m296.053 24.317-88.691 93.682-1.162-1.1 88.691-93.682z" clip-rule="evenodd"/><path fill="#9DA8C4" d="M208.396 117.069c-.803-.35-1.266-.736-1.101-1.369l-7.745 1.709 4.331 2.863 4.318-.828s-.23-.063.197-2.375"/><path fill="#3F568E" d="m203.424 119.855-3.882-2.442v1.802l3.504 2.605 5.145-1.965v-1.644z"/><path fill="#30457A" fill-rule="evenodd" d="M293.255 16.682 192.332 87.91l-.923-1.308 100.924-71.227z" clip-rule="evenodd"/><path fill="#9DA8C4" d="M194.686 86.308c-.726-.1-.982-.218-1.38-.939l-7.466 1.279 4.331 2.863 4.318-.828s-.23-.064.197-2.375"/><path fill="#3F568E" d="m190.014 89.097-4.182-2.445v1.351l4.182 2.59 4.466-.994v-1.145z"/><path fill="#30457A" fill-rule="evenodd" d="M276.631 24.117 169.375 92.77l-.863-1.348L275.769 22.77z" clip-rule="evenodd"/><path fill="#9DA8C4" d="M169.477 90.813c.398.72.575 1.026 1.3 1.126-.364 1.976-.29 2.151-.261 2.16l.009-.001s-.004.003-.009.001l-4.309.827-4.331-2.864z"/><path fill="#3F568E" d="m166.05 94.512-4.182-2.445v1.35l4.182 2.591 4.466-.994v-1.146z"/></g><path fill="#3F568E" d="M101.702 44.67c-.6.25-2.947 1.254-3.55 1.964 0 0-.326-.152-.601.153 0 0-1.182-.918-2.646-.334-.048.019-.038.09.014.095.508.051 1.865.231 2.08.701.267.58.906 1.155 2.166.435 0 0 .846.106 1.21-.16.364-.265-1.19-.206-1.19-.206s-.197-.698.58-1.053c.727-.33 1.747-.791 2.029-1.5.023-.06-.034-.12-.092-.095m-8.151 6.93c-1.103.46-5.426 2.31-6.538 3.617 0 0-.597-.28-1.105.28 0 0-2.177-1.69-4.872-.614-.088.035-.07.165.025.175.937.095 3.436.425 3.832 1.29.49 1.07 1.667 2.128 3.987.802 0 0 1.559.195 2.23-.294.67-.489-2.193-.38-2.193-.38s-.363-1.286 1.069-1.938c1.338-.61 3.216-1.457 3.736-2.765.043-.109-.062-.218-.17-.172m15.884-1.816c-.67.279-3.296 1.403-3.971 2.197 0 0-.363-.17-.672.17 0 0-1.322-1.026-2.959-.373-.054.021-.042.1.015.106.569.058 2.087.259 2.328.784.297.65 1.013 1.293 2.422.487 0 0 .946.119 1.354-.178.407-.297-1.332-.231-1.332-.231s-.22-.782.649-1.178c.814-.37 1.954-.885 2.27-1.679.026-.066-.038-.132-.104-.105M39.214 31.763c-2.535 1.053-12.46 5.301-15.012 8.304 0 0-1.373-.644-2.538.645 0 0-4.997-3.881-11.186-1.413-.203.082-.16.382.057.403 2.151.218 7.89.977 8.8 2.965 1.123 2.454 3.828 4.884 9.154 1.84 0 0 3.578.447 5.118-.676s-5.035-.873-5.035-.873-.833-2.954 2.455-4.45c3.074-1.401 7.384-3.346 8.578-6.348.1-.251-.14-.5-.39-.398zm45.567 8.271c-1.635.714-8.038 3.6-9.685 5.64 0 0-.886-.439-1.638.437 0 0-3.224-2.636-7.216-.959-.131.055-.103.26.036.274 1.388.148 5.09.664 5.677 2.013.726 1.667 2.47 3.317 5.906 1.249 0 0 2.309.305 3.302-.458.993-.762-3.248-.593-3.248-.593s-.537-2.006 1.585-3.023c1.983-.95 4.764-2.271 5.534-4.31.064-.17-.092-.34-.252-.27m24.405 3.356c.027-.566.345-.532.541-.457.479-.2 1.275.4 1.726.567.382.141.836.1 1.016.076a.1.1 0 0 1 .115.093c.025.32-.886.213-.886.213.799.618.804 1.096.727 1.338-.017.052-.089.055-.113.005-.226-.463-1.586-1.288-2.006-1.47-.478-.207-1.724 1.35-1.851 1.562-.128.213.042 1.095-.33.255-.287-.648.484-1.607 1.061-2.181M60.164 56.923c.063-1.3.793-1.225 1.243-1.051 1.102-.462 2.93.919 3.967 1.302.877.324 1.92.231 2.333.175a.233.233 0 0 1 .263.212c.058.735-2.035.492-2.035.492 1.837 1.418 1.848 2.518 1.67 3.072-.038.12-.203.126-.258.012-.52-1.064-3.644-2.96-4.61-3.377-1.097-.476-3.96 3.1-4.253 3.589s.098 2.515-.757.586c-.66-1.49 1.111-3.692 2.437-5.012m-16.873-7.59c.09-1.848 1.127-1.74 1.766-1.493 1.564-.656 4.16 1.304 5.632 1.848 1.246.46 2.726.328 3.313.249a.33.33 0 0 1 .374.301c.083 1.044-2.89.698-2.89.698 2.608 2.014 2.624 3.575 2.372 4.362-.054.17-.29.18-.368.018-.737-1.511-5.173-4.202-6.545-4.796-1.558-.676-5.622 4.403-6.038 5.096s.139 3.572-1.076.833c-.937-2.116 1.578-5.242 3.46-7.116m9.082-18.829c.107-2.124 1.346-2 2.11-1.716 1.87-.753 4.975 1.5 6.736 2.125 1.49.529 3.26.377 3.962.285.224-.029.43.13.447.347.099 1.2-3.456.802-3.456.802 3.12 2.316 3.137 4.11 2.836 5.014-.065.196-.346.206-.44.021-.88-1.737-6.187-4.83-7.827-5.513-1.863-.776-6.724 5.062-7.221 5.858-.498.798.165 4.106-1.286.957-1.121-2.431 1.888-6.024 4.139-8.18"/></g><defs><clipPath id="a"><path fill="#fff" d="M0 0h240v240H0z"/></clipPath><clipPath id="b"><rect width="200" height="200" x="20.225" y="20" fill="#fff" rx="100"/></clipPath></defs></svg>