<svg xmlns="http://www.w3.org/2000/svg" width="240" height="240" fill="none" class="persona-ilustration" viewBox="0 0 240 240"><g clip-path="url(#a)"><g clip-path="url(#b)"><rect width="200" height="200" x="20" y="20" fill="#D3EDFF" rx="100"/><path fill="#82C2F1" d="M122.958 136.595v-5.187h106.244v5.187zm0 43.778v-5.187h106.244v5.187zm0 43.779v-5.186h106.244v5.186z"/><path fill="#AADBFF" d="M122.958 114.915h5.187v125.73h-5.187zm73.429 72.705h6.845v31.628h-6.845zm7.718 0h6.845v31.628h-6.845zm7.718 0h6.845v31.628h-6.845z"/><path fill="#82C2F1" d="m157.801 145.567 6.464-2.255 10.415 29.865-6.464 2.254z"/><path fill="#AADBFF" d="M134.371 143.557h6.845v31.628h-6.845zm7.81 0h6.845v31.628h-6.845zm7.81 0h6.845v31.628h-6.845z"/><path fill="#82C2F1" d="M189.782 157.89h27.217v17.295h-27.217z"/><path fill="#AADBFF" d="M187.003 157.89h32.775v4.88h-32.775zm-17.572 44.334c4.028 2.681 6.373 9.78 7.041 12.994-2.723-1.505-8.699-5.229-10.819-8.086-2.65-3.571-1.257-8.26 3.778-4.908"/><path fill="#AADBFF" d="M179.452 200.408c1.615 4.561-.765 11.647-2.157 14.62-1.277-2.837-3.826-9.4-3.81-12.958.021-4.447 3.947-7.364 5.967-1.662"/><path fill="#AADBFF" d="M187.745 203.115c-.605 4.801-5.915 10.063-8.494 12.094.133-3.108.804-10.117 2.416-13.288 2.016-3.964 6.834-4.807 6.078 1.194"/><path fill="#AADBFF" d="M186.723 211.929c-.509 2.434-2.635 7.302-7.064 7.302h-5.886c-4.429 0-6.555-4.868-7.064-7.302zm-34.33-16.59c-.354 7.964-1.829 23.892-4.904 23.892h-4.086c-3.074 0-4.55-15.928-4.903-23.892zM28 116h66v101.632H28z"/><path fill="#AADBFF" stroke="#82C2F1" stroke-width="2" d="M34.239 121.871h53.523v26.659H34.239zm0 31.615h53.523v26.659H34.239zm0 31.617h53.523v26.659H34.239z"/><rect width="12.46" height="2.652" x="54.77" y="125.46" fill="#82C2F1" rx="1.326"/><rect width="12.46" height="2.652" x="54.77" y="156.683" fill="#82C2F1" rx="1.326"/><rect width="12.46" height="2.652" x="54.77" y="188.715" fill="#82C2F1" rx="1.326"/><path fill="#FFC79D" d="m60.099 192.557 41.279 21.971-22.963 43.143-41.28-21.972z"/><path fill="#FFC79D" d="m68.025 152.831-8.457 44.12 34.604 19.281c6.358 3.543 28.121-20.854 32.409-40.058l-48.968-27.285z"/><path fill="#FFB26F" d="m90.437 181.846-16.826 12.447c9.611 5.356 18.287 6.43 20.117 6.636 9.945 1.122 44.175-4.5 33.34-42.284l-25.832 14.05z"/><path fill="#FFB26F" fill-rule="evenodd" d="M61.716 198.363a.91.91 0 0 1 1.276-.164c3.033 2.341 8.38 5.907 14.516 8.953 6.152 3.053 13.007 5.539 19.081 5.811a.91.91 0 0 1-.081 1.818c-6.45-.288-13.574-2.904-19.81-5.999-6.25-3.103-11.698-6.733-14.818-9.143a.91.91 0 0 1-.164-1.276" clip-rule="evenodd"/></g><path fill="#E7F7EA" d="M112.891 94.65c0-7.622 6.179-13.8 13.801-13.8h89.642c7.622 0 13.801 6.178 13.801 13.8v55.899c0 7.622-6.179 13.8-13.801 13.8h-89.642c-7.622 0-13.801-6.178-13.801-13.8z"/><path fill="#80D6E2" d="M119.032 97.252a8.53 8.53 0 0 1 8.531-8.531h86.45a8.53 8.53 0 0 1 8.531 8.531v51.187a8.53 8.53 0 0 1-8.531 8.532h-86.45a8.53 8.53 0 0 1-8.531-8.532z"/><path fill="#EFFAFF" d="M190.694 116.021h20.475v26.162h-20.475zm-43.225-13.082a2.843 2.843 0 0 1 2.844-2.843h39.812a2.843 2.843 0 1 1 0 5.687h-39.812a2.844 2.844 0 0 1-2.844-2.844m-12.512 15.926a2.844 2.844 0 0 1 2.844-2.844h39.812a2.844 2.844 0 1 1 0 5.687h-39.812a2.843 2.843 0 0 1-2.844-2.843m0 10.237a2.844 2.844 0 0 1 2.844-2.844h39.812a2.844 2.844 0 1 1 0 5.688h-39.812a2.844 2.844 0 0 1-2.844-2.844m0 10.237a2.843 2.843 0 0 1 2.844-2.843h39.812a2.843 2.843 0 1 1 0 5.687h-39.812a2.844 2.844 0 0 1-2.844-2.844"/><path fill="#38BA58" fill-rule="evenodd" d="M109.44 94.65c0-8.726 7.075-15.8 15.802-15.8h30.709a2 2 0 0 1 0 4h-30.709c-6.518 0-11.802 5.283-11.802 11.8v17.512a2 2 0 0 1-4 0zm74.184-13.8a2 2 0 0 1 2-2h30.709c8.727 0 15.802 7.074 15.802 15.8v17.512a2 2 0 0 1-4 0V94.651c0-6.518-5.284-11.802-11.802-11.802h-30.709a2 2 0 0 1-2-2m-72.184 50.187a2 2 0 0 1 2 2v17.511c0 6.517 5.284 11.801 11.802 11.801h30.709a2 2 0 0 1 0 4h-30.709c-8.727 0-15.802-7.074-15.802-15.801v-17.511a2 2 0 0 1 2-2m118.695 0a2 2 0 0 1 2 2v17.511c0 8.727-7.075 15.801-15.802 15.801h-30.709a2 2 0 0 1 0-4h30.709c6.518 0 11.802-5.284 11.802-11.801v-17.511a2 2 0 0 1 2-2" clip-rule="evenodd"/><rect width="69.664" height="134.012" x="66.546" y="62.17" fill="#353535" rx="4.551"/><rect width="63.173" height="127.354" x="69.994" y="65.118" fill="#F8F8F8" rx="4.551"/><path fill="#353535" d="M106.537 64.78a4.944 4.944 0 0 1-9.887 0z"/><path fill="#FFC79D" d="m60.118 194.396 10.6 3.566s10.067-.239 11.32-7.83c2.246-13.618-.301-28.552-9.761-33.509-9.43-7.326-4.034-29.145-5.73-34.395s-6.01-3.872-9.857 0c-3.848 3.871-3.222 15.463-3.811 26.755-.59 11.292 1.697 30.001 7.24 45.413m83.837-50.004c1.736 7.213-1.856 7.533-6.135 8.562-4.278 1.03-8.468-1.134-9.359-4.833-.89-3.699 1.857-7.533 6.136-8.562 4.278-1.03 7.857-1.407 9.358 4.833"/><path fill="#FFC79D" d="M144.104 157.197c1.807 6.569-1.629 7.01-5.71 8.133s-8.14-.697-9.067-4.066 1.629-7.01 5.71-8.133 7.503-1.616 9.067 4.066"/><path fill="#FFC79D" d="M144.203 170.755c1.701 6.898-1.619 7.194-5.564 8.166s-7.851-1.107-8.723-4.644 1.619-7.194 5.565-8.167c3.945-.972 7.251-1.323 8.722 4.645"/><mask id="c" width="41" height="41" x="82" y="106" maskUnits="userSpaceOnUse" style="mask-type:alpha"><path fill="#239842" d="M102.25 146.5c11.046 0 20-8.954 20-20s-8.954-20-20-20-20 8.954-20 20 8.954 20 20 20"/></mask><g mask="url(#c)"><path fill="#239842" d="M102.25 146.5c11.046 0 20-8.954 20-20s-8.954-20-20-20-20 8.955-20 20 8.954 20 20 20"/><path fill="#38BA58" d="M97.512 141.893c11.046 0 20-8.954 20-20s-8.954-20-20-20-20 8.954-20 20 8.954 20 20 20"/><path fill="#F8F8F8" fill-rule="evenodd" d="M113.198 118.791a3.745 3.745 0 0 1-.001 5.297l-10.122 10.117a3.746 3.746 0 0 1-5.297-.001l-6.48-6.485a3.745 3.745 0 1 1 5.3-5.294l3.831 3.834 7.473-7.469a3.745 3.745 0 0 1 5.296.001" clip-rule="evenodd"/></g></g><defs><clipPath id="a"><path fill="#fff" d="M0 0h240v240H0z"/></clipPath><clipPath id="b"><rect width="200" height="200" x="20" y="20" fill="#fff" rx="100"/></clipPath></defs></svg>