<svg xmlns="http://www.w3.org/2000/svg" width="150" height="150" fill="none" class="persona-ilustration" viewBox="0 0 150 150"><g clip-path="url(#a)"><rect width="125" height="125" x="12.5" y="12.5" fill="#D3EDFF" rx="62.5"/><path fill="#3FB4FF" d="M18.671 78.393a6.04 6.04 0 0 1 6.041-6.04h38.661a6.04 6.04 0 0 1 6.041 6.04v38.662a6.04 6.04 0 0 1-6.04 6.041H24.711a6.04 6.04 0 0 1-6.04-6.041z"/><path fill="#3FB4FF" d="M27.128 86.353c0-1.06.859-1.918 1.918-1.918H59.73c1.059 0 1.918.859 1.918 1.918v23.013a1.917 1.917 0 0 1-1.918 1.917H29.046a1.917 1.917 0 0 1-1.918-1.917z"/><path fill="#fff" fill-rule="evenodd" d="M25.618 86.353a3.43 3.43 0 0 1 3.428-3.428H59.73a3.43 3.43 0 0 1 3.428 3.428v23.012a3.427 3.427 0 0 1-3.428 3.428H29.046a3.427 3.427 0 0 1-3.428-3.428zm3.428-.408a.41.41 0 0 0-.407.408v23.012c0 .226.182.408.407.408H59.73a.407.407 0 0 0 .407-.408V86.353a.41.41 0 0 0-.407-.408z" clip-rule="evenodd"/><path fill="#fff" fill-rule="evenodd" d="M31.372 90.188c0-.834.676-1.51 1.51-1.51h23.013a1.51 1.51 0 1 1 0 3.02H32.882a1.51 1.51 0 0 1-1.51-1.51m0 5.752c0 .835.676 1.51 1.51 1.51h5.753a1.51 1.51 0 0 0 0-3.02h-5.753a1.51 1.51 0 0 0-1.51 1.51m0 5.754c0 .834.676 1.51 1.51 1.51h5.753a1.51 1.51 0 1 0 0-3.02h-5.753a1.51 1.51 0 0 0-1.51 1.51" clip-rule="evenodd"/><path fill="#3FB4FF" d="M48.223 95.94h7.671v9.589h-7.67z"/><path fill="#fff" fill-rule="evenodd" d="M46.713 95.94c0-.834.676-1.51 1.51-1.51h7.671c.834 0 1.51.676 1.51 1.51v9.589a1.51 1.51 0 0 1-1.51 1.51h-7.67a1.51 1.51 0 0 1-1.51-1.51zm3.02 1.51v6.569h4.651v-6.568z" clip-rule="evenodd"/><path fill="#fff" d="M26.006 129.165a2.336 2.336 0 0 1 2.335-2.336h31.144a2.336 2.336 0 0 1 0 4.672H28.341a2.336 2.336 0 0 1-2.335-2.336"/><path fill="#38BA58" d="M26.006 129.165a2.336 2.336 0 0 1 2.335-2.336h10.9a2.336 2.336 0 0 1 0 4.672h-10.9a2.336 2.336 0 0 1-2.335-2.336"/><path fill="#38BA58" fill-rule="evenodd" d="M39.242 128.386h-10.9a.779.779 0 0 0 0 1.557h10.9a.778.778 0 1 0 0-1.557m-10.9-1.557a2.336 2.336 0 0 0 0 4.672h10.9a2.336 2.336 0 0 0 0-4.672z" clip-rule="evenodd"/><path fill="#3E68F5" d="M18.671 9.738a6.04 6.04 0 0 1 6.041-6.04h38.661a6.04 6.04 0 0 1 6.041 6.04V48.4a6.04 6.04 0 0 1-6.04 6.04H24.711a6.04 6.04 0 0 1-6.04-6.04z"/><path fill="#F8F8F8" fill-rule="evenodd" d="M45.399 23.135c.834 0 1.51.676 1.51 1.51v3.152c0 1.521-.8 2.932-2.106 3.713l-1.03.616a1.51 1.51 0 0 1-1.55-2.592l1.03-.616c.394-.236.636-.662.636-1.121v-3.152c0-.834.676-1.51 1.51-1.51m7.061-4.505c.835 0 1.51.675 1.51 1.51v2.495a1.51 1.51 0 0 1-3.02 0v-2.496c0-.834.677-1.51 1.51-1.51m-16.524.001c.834 0 1.51.675 1.51 1.51v2.495a1.51 1.51 0 0 1-3.02 0v-2.496c0-.834.676-1.51 1.51-1.51m16.68 15.301a1.51 1.51 0 0 1 .283 2.118c-1.809 2.365-5.114 3.797-8.7 3.797-3.587 0-6.892-1.431-8.7-3.797a1.51 1.51 0 1 1 2.399-1.834c1.113 1.456 3.43 2.61 6.3 2.61s5.188-1.154 6.301-2.61a1.51 1.51 0 0 1 2.117-.283M30.753 13.665a2.114 2.114 0 0 0-2.114 2.115v6.972a1.51 1.51 0 1 1-3.02 0V15.78a5.135 5.135 0 0 1 5.134-5.135h6.973a1.51 1.51 0 1 1 0 3.02zm18.407-1.486c0-.834.676-1.51 1.51-1.51h6.973a5.135 5.135 0 0 1 5.135 5.134v6.973a1.51 1.51 0 0 1-3.02 0v-6.973a2.114 2.114 0 0 0-2.115-2.114H50.67a1.51 1.51 0 0 1-1.51-1.51M61.268 34.21c.834 0 1.51.677 1.51 1.51v6.974a5.135 5.135 0 0 1-5.135 5.134H50.67a1.51 1.51 0 0 1 0-3.02h6.973a2.114 2.114 0 0 0 2.114-2.114V35.72c0-.834.677-1.51 1.51-1.51m-34.139 0c.834 0 1.51.677 1.51 1.51v6.974c0 1.167.947 2.114 2.115 2.114h6.973a1.51 1.51 0 0 1 0 3.02h-6.973a5.135 5.135 0 0 1-5.135-5.134V35.72c0-.834.676-1.51 1.51-1.51" clip-rule="evenodd"/><path fill="#FFF9E1" d="M76.32 39.437a6.04 6.04 0 0 1 6.04-6.04h38.661a6.04 6.04 0 0 1 6.041 6.04v62.825a6.04 6.04 0 0 1-6.041 6.041H82.36a6.04 6.04 0 0 1-6.04-6.041z"/><path fill="#FFB26F" d="M85.985 47.29c0-1 .811-1.812 1.812-1.812h27.788a1.812 1.812 0 1 1 0 3.625H87.797a1.81 1.81 0 0 1-1.812-1.812m0 12.081c0-1 .811-1.812 1.812-1.812h27.788a1.812 1.812 0 1 1 0 3.624H87.797a1.81 1.81 0 0 1-1.812-1.812m0 12.082c0-1.001.811-1.812 1.812-1.812h27.788a1.812 1.812 0 1 1 0 3.624H87.797a1.81 1.81 0 0 1-1.812-1.812m0 12.081c0-1 .811-1.812 1.812-1.812h27.788a1.812 1.812 0 1 1 0 3.625H87.797a1.813 1.813 0 0 1-1.812-1.813m0 12.082c0-1 .811-1.812 1.812-1.812h27.788a1.812 1.812 0 1 1 0 3.624H87.797a1.81 1.81 0 0 1-1.812-1.812"/><mask id="b" width="35" height="36" x="106" y="13" maskUnits="userSpaceOnUse" style="mask-type:alpha"><path fill="#009444" d="M123.429 48.251c9.504 0 17.208-7.704 17.208-17.207s-7.704-17.208-17.208-17.208-17.207 7.704-17.207 17.208 7.704 17.207 17.207 17.207"/></mask><g mask="url(#b)"><path fill="#239842" d="M123.429 48.251c9.504 0 17.208-7.704 17.208-17.207s-7.704-17.208-17.208-17.208-17.207 7.704-17.207 17.208 7.704 17.207 17.207 17.207"/><path fill="#38BA58" d="M119.353 44.287c9.503 0 17.207-7.704 17.207-17.208s-7.704-17.208-17.207-17.208-17.208 7.705-17.208 17.208c0 9.504 7.704 17.208 17.208 17.208"/><path fill="#F8F8F8" fill-rule="evenodd" d="M132.848 24.411a3.22 3.22 0 0 1-.001 4.558l-8.708 8.704a3.224 3.224 0 0 1-4.558-.001l-5.575-5.579a3.223 3.223 0 0 1 4.559-4.556l3.297 3.3 6.429-6.427a3.22 3.22 0 0 1 4.557.001" clip-rule="evenodd"/></g><path fill="#fff" d="M26.006 60.648a2.336 2.336 0 0 1 2.336-2.336h31.144a2.336 2.336 0 1 1 0 4.672H28.342a2.336 2.336 0 0 1-2.336-2.336"/><path fill="#38BA58" d="M26.006 60.648a2.336 2.336 0 0 1 2.336-2.336H51.7a2.336 2.336 0 1 1 0 4.672H28.342a2.336 2.336 0 0 1-2.336-2.336"/><path fill="#38BA58" fill-rule="evenodd" d="M51.7 59.87H28.342a.779.779 0 0 0 0 1.557H51.7a.779.779 0 1 0 0-1.557m-23.358-1.557a2.336 2.336 0 0 0 0 4.671H51.7a2.336 2.336 0 1 0 0-4.672z" clip-rule="evenodd"/><path fill="#38BA58" d="M82.065 113.592a2.336 2.336 0 0 1 2.335-2.336h31.144a2.336 2.336 0 0 1 0 4.671H84.4a2.335 2.335 0 0 1-2.336-2.335"/><path fill="#38BA58" fill-rule="evenodd" d="M115.544 112.813H84.4a.779.779 0 0 0 0 1.557h31.144a.778.778 0 1 0 0-1.557M84.4 111.256a2.336 2.336 0 0 0 0 4.671h31.144a2.335 2.335 0 1 0 0-4.671z" clip-rule="evenodd"/></g><defs><clipPath id="a"><path fill="#fff" d="M0 0h150v150H0z"/></clipPath></defs></svg>