<svg xmlns="http://www.w3.org/2000/svg" width="240" height="240" fill="none" class="persona-ilustration" viewBox="0 0 240 240"><g clip-path="url(#a)"><g clip-path="url(#b)"><rect width="200" height="200" x="20" y="20" fill="#D3EDFF" rx="100"/><rect width="111.844" height="73.743" x="116.807" y="86.099" fill="#80D6E2" rx="9.218"/><path fill="#F8F8F8" d="M194.237 115.596h22.123v28.268h-22.123z"/><rect width="49.162" height="6.145" x="147.533" y="98.391" fill="#F8F8F8" rx="3.073"/><rect width="49.162" height="6.145" x="134.013" y="115.596" fill="#F8F8F8" rx="3.073"/><rect width="49.162" height="6.145" x="134.013" y="126.658" fill="#F8F8F8" rx="3.073"/><rect width="49.162" height="6.145" x="134.013" y="137.719" fill="#F8F8F8" rx="3.073"/></g><path fill="#3E68F5" d="M11.35 63.824c0-10.097 8.185-18.282 18.282-18.282h109.693c10.097 0 18.282 8.185 18.282 18.282v109.693c0 10.097-8.185 18.282-18.282 18.282H29.632c-10.097 0-18.282-8.185-18.282-18.282z"/><path fill="#F8F8F8" fill-rule="evenodd" d="M83.666 95.585c-6.766 0-12.251 5.485-12.251 12.251s5.485 12.251 12.25 12.251c6.767 0 12.252-5.485 12.252-12.251s-5.485-12.25-12.251-12.25m-20.251 12.251c0-11.184 9.067-20.25 20.25-20.25 11.185 0 20.252 9.066 20.252 20.25s-9.067 20.251-20.251 20.251-20.251-9.067-20.251-20.251m-11.439-33.92c-6.765 0-12.25 5.485-12.25 12.251v14.22a4 4 0 0 1-8 0v-14.22c0-11.184 9.066-20.25 20.25-20.25h14.22a4 4 0 0 1 0 8zm46.784-4a4 4 0 0 1 4-4h14.22c11.184 0 20.251 9.067 20.251 20.251v14.22a4 4 0 0 1-8 0v-14.22c0-6.766-5.485-12.25-12.251-12.25h-14.22a4 4 0 0 1-4-4m-63.034 66.421a4 4 0 0 1 4 4v10.833c0 6.766 5.485 12.251 12.25 12.251h14.22a4 4 0 0 1 0 8h-14.22c-11.184 0-20.25-9.066-20.25-20.251v-10.833a4 4 0 0 1 4-4m97.505 0a4 4 0 0 1 4 4v10.833c0 11.185-9.067 20.251-20.251 20.251h-14.22a4 4 0 0 1 0-8h14.22c6.766 0 12.251-5.485 12.251-12.251v-10.833c0-2.21 1.79-4 4-4" clip-rule="evenodd"/><path fill="#F8F8F8" fill-rule="evenodd" d="M52.842 146.807a29.85 29.85 0 0 1 22.701-10.469H95.04c8.734 0 17.03 3.826 22.701 10.469a16.92 16.92 0 0 1 4.053 10.988v.572c0 4.371-1.523 8.397-4.064 11.561a4.001 4.001 0 0 1-6.238-5.01 10.4 10.4 0 0 0 2.302-6.551v-.572a8.93 8.93 0 0 0-2.137-5.794 21.85 21.85 0 0 0-16.617-7.663H75.543a21.85 21.85 0 0 0-16.617 7.663 8.93 8.93 0 0 0-2.136 5.794v.572c0 2.484.86 4.756 2.301 6.551a4 4 0 0 1-6.237 5.01 18.4 18.4 0 0 1-4.064-11.561v-.572c0-4.028 1.437-7.924 4.052-10.988" clip-rule="evenodd"/><path fill="#3D2397" d="M157.094 198.32a4.974 4.974 0 0 0 7.034-7.035l-40.952-40.951a4.974 4.974 0 0 0-7.034 7.034z"/><path fill="#3D2397" d="M116.142 87.027c17.482 17.482 17.482 45.825 0 63.307s-45.825 17.482-63.307 0-17.482-45.825 0-63.307 45.825-17.482 63.307 0"/><path fill="#310A81" d="M111.986 157.049a5.427 5.427 0 0 1 0-7.674l3.197-3.197a5.427 5.427 0 0 1 7.674 7.673l-3.198 3.198a5.425 5.425 0 0 1-7.673 0"/><mask id="c" width="77" height="77" x="46" y="80" maskUnits="userSpaceOnUse" style="mask-type:alpha"><path fill="#F9F9F9" d="M111.026 92.142c15.01 15.009 15.296 39.058.64 53.715-14.657 14.656-38.706 14.37-53.715-.64s-15.296-39.058-.64-53.715c14.657-14.656 38.706-14.37 53.715.64"/></mask><g mask="url(#c)"><path fill="#A6B7FF" d="M111.026 92.142c15.01 15.009 15.296 39.058.64 53.715-14.657 14.656-38.706 14.37-53.715-.64s-15.296-39.058-.64-53.715c14.657-14.656 38.706-14.37 53.715.64" opacity=".75"/><path fill="#F8F8F8" fill-rule="evenodd" d="M83.003 96.546c-7.127 0-12.905 5.778-12.905 12.905s5.778 12.905 12.905 12.905 12.905-5.778 12.905-12.905-5.778-12.905-12.905-12.905m-21.508 12.905c0-11.879 9.63-21.508 21.508-21.508 11.879 0 21.509 9.63 21.509 21.508 0 11.879-9.63 21.509-21.509 21.509s-21.508-9.63-21.508-21.509M49.45 76.881c-7.127 0-12.905 5.778-12.905 12.905v15.056a4.302 4.302 0 1 1-8.604 0V89.786c0-11.879 9.63-21.508 21.509-21.508h15.056a4.302 4.302 0 0 1 0 8.603zm49.47-4.302a4.3 4.3 0 0 1 4.301-4.301h15.056c11.879 0 21.508 9.63 21.508 21.508v15.056a4.302 4.302 0 1 1-8.603 0V89.786c0-7.127-5.778-12.905-12.905-12.905h-15.056a4.3 4.3 0 0 1-4.302-4.302M32.242 142.84a4.3 4.3 0 0 1 4.302 4.302v11.471c0 7.127 5.778 12.905 12.905 12.905h15.056a4.302 4.302 0 0 1 0 8.604H49.45c-11.879 0-21.509-9.63-21.509-21.509v-11.471a4.3 4.3 0 0 1 4.302-4.302m103.241 0a4.3 4.3 0 0 1 4.301 4.302v11.471c0 11.879-9.629 21.509-21.508 21.509h-15.056a4.302 4.302 0 1 1 0-8.604h15.056c7.127 0 12.905-5.778 12.905-12.905v-11.471a4.3 4.3 0 0 1 4.302-4.302" clip-rule="evenodd"/><path fill="#F8F8F8" fill-rule="evenodd" d="M50.315 150.67a31.67 31.67 0 0 1 24.087-11.107h20.643c9.267 0 18.07 4.059 24.087 11.107a18 18 0 0 1 4.307 11.678v.605a19.56 19.56 0 0 1-4.318 12.283 4.302 4.302 0 0 1-6.708-5.387 10.96 10.96 0 0 0 2.422-6.896v-.605a9.38 9.38 0 0 0-2.246-6.092 23.07 23.07 0 0 0-17.544-8.09H74.402a23.07 23.07 0 0 0-17.544 8.09 9.38 9.38 0 0 0-2.246 6.092v.605c0 2.615.905 5.006 2.422 6.896a4.3 4.3 0 1 1-6.708 5.387 19.56 19.56 0 0 1-4.318-12.283v-.605c0-4.281 1.527-8.422 4.307-11.678" clip-rule="evenodd"/></g><mask id="d" width="50" height="51" x="117" y="27" maskUnits="userSpaceOnUse" style="mask-type:alpha"><path fill="#009444" d="M142 77.5c13.807 0 25-11.193 25-25s-11.193-25-25-25-25 11.193-25 25 11.193 25 25 25"/></mask><g mask="url(#d)"><path fill="#F18513" d="M142 77.5c13.807 0 25-11.193 25-25s-11.193-25-25-25-25 11.193-25 25 11.193 25 25 25"/><path fill="#FFB700" d="M136.077 71.742c13.807 0 25-11.193 25-25s-11.193-25-25-25-25 11.192-25 25 11.193 25 25 25"/><circle cx="141.914" cy="65.66" r="3.76" fill="#7B3328"/><path fill="#7B3328" d="M138.298 39.335a3.619 3.619 0 1 1 7.232 0l-.687 17.867a2.931 2.931 0 0 1-5.857 0z"/></g></g><defs><clipPath id="a"><path fill="#fff" d="M0 0h240v240H0z"/></clipPath><clipPath id="b"><rect width="200" height="200" x="20" y="20" fill="#fff" rx="100"/></clipPath></defs></svg>