<svg xmlns="http://www.w3.org/2000/svg" width="240" height="240" fill="none" class="persona-ilustration" viewBox="0 0 240 240"><g clip-path="url(#a)"><g clip-path="url(#b)"><rect width="200" height="200" x="20" y="20" fill="#D3EDFF" rx="100"/><path fill="#30457A" d="M115.522 130.7C78.172 85.83 62.208 79.387 44.65 89.568c-17.558 10.18 30.788 176.579 30.788 176.579l78.612 4.72-.129-.756c-6.338-37.026-20.1-117.427-38.399-139.411"/><path fill="#3F568E" d="M157.554 100.819C141.8 76.709 69.034 81.455 50.103 86.866S70.65 214.418 70.65 214.418l86.904 48.357c-6.279-36.677 15.753-137.847-.001-161.956"/><path fill="#EFEFEF" d="M189.18 204.201c6.337 3.944 28.002 9.143 35.051-6.073-7.176-15.746-36.866-107.648-70.548-85.645-9.085 5.935 31.862 75.365 35.497 91.718"/><mask id="c" width="131" height="189" x="63" y="97" maskUnits="userSpaceOnUse" style="mask-type:alpha"><path fill="#666" d="M187.404 129.061s-8.933-19.243-24.025-20.673c-17.676-1.674-47.256-11.83-54.872-10.872-7.615.957-31.401 7.048-22.347 41.701 13.476 51.577-22.846 143.717-22.846 143.717s87.049 5.981 118.795-.224c4.86-34.587 6.829-48.287 10.562-101.303 4.801-40.089-5.267-52.346-5.267-52.346"/></mask><g mask="url(#c)"><path fill="#666" d="M184.286 129.32s-5.818-19.502-20.91-20.932c-17.676-1.674-47.256-11.83-54.872-10.872-7.615.957-31.401 7.048-22.347 41.701C99.633 190.794 63.31 282.934 63.31 282.934s77.169 6.205 108.915 0c4.86-34.587 6.829-48.287 10.562-101.303 4.801-40.089 1.498-52.311 1.498-52.311"/><path fill="#F8F8F8" d="M161.613 105.038c6.507 6.827 2.22 26.955-1.691 34.466-2.591 4.976-16.771-9.839-36.492-41.158-4.399-8.934 30.049-1.841 38.183 6.692"/><path fill="#8E8E8E" fill-rule="evenodd" d="M152.787 96.166c4.404 1.765 8.617 4.015 11.142 6.665 2.267 2.378 3.378 5.657 3.878 8.934.508 3.327.441 7.014.048 10.598-.779 7.115-2.913 14.429-5.095 18.619a4.95 4.95 0 0 1-1.76 1.936 4.9 4.9 0 0 1-2.534.731c-1.548.022-3.006-.618-4.189-1.315-2.437-1.434-5.334-4.099-8.55-7.651-6.513-7.194-15.101-18.903-25.005-34.632a3 3 0 0 1-.162-.29c-.894-1.815-1.162-4.149.455-6.09 1.299-1.56 3.293-2.143 4.853-2.404 3.311-.554 7.912-.15 12.55.731 4.729.898 9.86 2.36 14.369 4.168M126.75 97.61c9.552 15.093 17.695 26.121 23.722 32.778 3.118 3.445 5.485 5.508 7.052 6.431l.109.063c1.578-3.539 3.22-9.366 3.86-15.216.355-3.24.384-6.334-.013-8.936-.404-2.651-1.197-4.449-2.184-5.484-1.541-1.617-4.684-3.454-8.89-5.139-4.1-1.644-8.831-2.995-13.181-3.821-4.441-.843-8.135-1.07-10.301-.707q-.091.015-.174.031" clip-rule="evenodd"/></g><path fill="#8E8E8E" d="M103.353 160.953c-6.42 3.809-23.807 5.086-30.53-10.277 0-21.01 29.339-64.058 42.155-50.984 8.956 6.127 5.607 69.454-11.625 61.261"/><path fill="#EFEFEF" d="M108.409 163.044c-6.42 3.808-33.963 3.922-40.685-11.44 0-21.011 29.338-64.059 42.154-50.985 8.956 6.128 2.513 46.153-1.469 62.425"/><mask id="d" width="36" height="65" x="128" y="55" maskUnits="userSpaceOnUse" style="mask-type:alpha"><path fill="#000" d="M163.876 80.581s-7.956 25.339-6.361 35.95c1.563 10.409-28.349-14.627-28.349-14.627s-2.568-12.6 1.545-38.059c4.114-25.46 33.173 16.734 33.173 16.734z"/></mask><g mask="url(#d)"><path fill="#F1AA90" d="M163.875 80.581s-7.956 25.339-6.361 35.95c1.563 10.409-30.997-15.017-30.997-15.017s4.156-7.222 8.27-32.682 29.096 11.747 29.096 11.747z"/><path fill="#000" fill-opacity=".5" d="M128.578 62.845s.43 15.118 14.548 30.34c22.372 16.972 33.63 6.356 33.63 6.356L135.27 56.346z" style="mix-blend-mode:overlay"/></g><path fill="#E4E4E4" d="m156.994 120.198-7.567-9.815s-17.36-6.948-18.499-22.273c-.692 10.872-7.143 10.504-7.143 10.504s12.78 22.704 32.69 23.353z"/><path fill="#E4E4E4" d="M158.629 101.335c1.917 7.259 2.989 9.693 2.989 9.693s1.67 10.771-5.85 10.936l1.099-10.936c.631-3.254 1.414-7.415 1.762-9.693"/><path fill="#F8F8F8" d="M120.963 97.478c1.53 9.948 12.92 22.652 12.92 22.652s3.741 1.31 10.062-3.568 5.565-6.198 5.565-6.198c-9.014-4.098-17.915-12.707-18.582-22.278 0 0-8.289 4.365-9.965 9.392m37.995 2.834s5.325 9.152 11.172 17.153c-3.347 1.152-5.15-.392-7.488-1.231-2.421-.869-5.695-6.029-5.695-6.029z"/></g><path fill="#F1AA90" d="M186.245 44.406c-2.224-25.67-20.31-30.944-36.8-26.328-13.6 3.806-21.055 9.927-20.909 27.482.191 22.882 13.105 44.29 21.156 49.804 5.439 3.725 12.406 6.811 20.269 2.703l.088-.045c6.84-3.573 12.273-6.41 15.441-25.523 0 0 1.314-21.643.755-28.093"/><path fill="#411917" d="M154.422 59.931c.998-.021 1.777-1.412 1.74-3.105s-.876-3.048-1.874-3.026-1.777 1.412-1.74 3.105.876 3.048 1.874 3.026"/><path stroke="#411917" stroke-linecap="round" stroke-miterlimit="10" stroke-width="1.614" d="M161.5 55.616s-2.453-4.674-12.581.29"/><path fill="#411917" d="M147.18 51.304s4.628-2.522 8.374-2.233c2.593.198 5.962 1.995 5.962 1.995s.941.072-.24-2.287c-1.18-2.359-7.074-1.847-7.074-1.847s-3.483.366-6.418 2.32c-1.22.818-1.418 2.186-1.418 2.186s.114.54.813-.142zm29.384 7.592c-.906-.075-1.548-1.505-1.434-3.194s.941-2.996 1.848-2.92c.906.075 1.548 1.505 1.434 3.194-.114 1.688-.941 2.996-1.848 2.92"/><path stroke="#411917" stroke-linecap="round" stroke-miterlimit="10" stroke-width="1.614" d="M172.864 54.994s3.892-5.224 10.658-.088"/><path fill="#411917" d="M184.335 48.701s-4.41-2.085-7.781-1.453c-2.333.437-5.234 2.536-5.234 2.536s-.846.158.023-2.3 6.255-2.49 6.255-2.49 3.188.044 6.015 1.72c1.176.702 1.471 2.046 1.471 2.046s-.057.548-.749-.067z"/><path fill="#000" fill-opacity=".5" d="M175.923 69.996c-.113.684-3.007 2.058-4.44 2.66-5.831-.63-5.141-1.239-3.442-2.595s8.024-.921 7.882-.066" style="mix-blend-mode:overlay"/><path stroke="#411917" stroke-linecap="round" stroke-linejoin="round" stroke-width="1.614" d="M168.725 58.498s.753 6.469 3.948 9.71c.623.632.649 1.45.1 2.116"/><mask id="e" width="14" height="10" x="156" y="78" maskUnits="userSpaceOnUse" style="mask-type:alpha"><path fill="#411917" d="M168.879 82.88c1.473 3.601-.934 5.336-4.039 3.818-2.145-.869-3.944-1.743-5.824-2.302-2.35-.699-3.277-1.934-1.859-3.526 1.471-1.654 9.003-4.635 11.722 2.01"/></mask><g mask="url(#e)"><path fill="#411917" d="M168.879 82.88c1.473 3.601-.934 5.336-4.039 3.818-2.145-.869-3.944-1.743-5.824-2.302-2.35-.699-3.277-1.934-1.859-3.526 1.471-1.654 9.003-4.635 11.722 2.01"/><path fill="#EA4F4A" d="M155.731 87.188c-3.79-2.167-6.095-5.138-5.148-6.636.946-1.499 4.786-.957 8.576 1.21s6.095 5.137 5.148 6.635c-.946 1.499-4.786.957-8.576-1.21"/></g><path fill="#212121" d="m138.128 66.662-2.332 1.41c-.481-2.574-1.736-8.314-2.906-10.673-1.463-2.949-6.347-.2-10.004-2.454s-4.881-17.304-2.989-23.75c1.513-5.156 9.122-5.152 12.737-4.505 1.724.409 5.575 2.932 7.188 9.754 2.017 8.528-2.541 9.835-3.337 15.764-.638 4.743.83 11.612 1.643 14.454"/><path fill="#fff" d="m138.128 66.662-2.332 1.41c-.481-2.574-1.736-8.314-2.906-10.673-1.463-2.949-6.347-.2-10.004-2.454s-4.881-17.304-2.989-23.75c1.513-5.156 9.122-5.152 12.737-4.505 1.724.409 5.575 2.932 7.188 9.754 2.017 8.528-2.541 9.835-3.337 15.764-.638 4.743.83 11.612 1.643 14.454" opacity=".5" style="mix-blend-mode:overlay"/><path fill="#212121" d="M176.26 32.017c-16.42 1.523-32.457-2.146-36.12 6.283-2.606 1.06-13.127-6.615-16.074-9.513-3.683-3.623-2.68-12.121 12.722-20.846 12.321-6.98 26.125-7.12 32.202 2.212 1.319-.763 10.802-2.878 16.484 6.325 4.523 7.327 1.003 17.238.191 22.869-.765-1.498-2.28-7.991-9.405-7.33"/><path fill="#F1AA90" d="M121.777 53.537c2.143-3.433 9.561.21 10.379 4.21 1.36 6.635 3.075 13.59 3.075 13.59-1.198 5.81-4.33 3.755-6.304 2.46l-.046-.03c-4.45-2.364-9.247-16.798-7.104-20.23"/><path fill="#000" fill-opacity=".5" d="M129.386 58.036s-6.336-4.616-3.611 5.034c1.508 5.34 2.883-3.17 5.42.187-.079-1.799-.196-3.155-1.809-5.22" style="mix-blend-mode:overlay"/><path fill="#411917" fill-rule="evenodd" d="M127.066 60.365a.894.894 0 0 1 1.21-.37c3.577 1.904 4.155 5.115 4.584 7.5l.035.193a.895.895 0 0 1-1.549.755l-.058-.065c-.576-.647-1.035-1.163-1.495-1.423-.209-.119-.357-.146-.472-.135-.111.01-.296.063-.566.303a.895.895 0 1 1-1.191-1.336c.485-.433 1.019-.7 1.599-.75.508-.046.967.082 1.36.279-.48-1.469-1.307-2.793-3.088-3.74a.895.895 0 0 1-.369-1.211" clip-rule="evenodd"/><path fill="#F1AA90" d="m96.187 184.432 3.447-4.229c7.72-11.373 14.437-28.345 15.309-42.115a34.7 34.7 0 0 1 1.701-8.803l2.562-7.746a2.743 2.743 0 0 0-2.156-3.568 9.81 9.81 0 0 0-9.144 3.384 41.8 41.8 0 0 0-7.593 13.573l-.733 2.185a4.52 4.52 0 0 1-5.2 2.998l-4.845-17.985-12.002-46.518a6.53 6.53 0 0 0-4.165-4.54 4.93 4.93 0 0 0-4.94.99A4.95 4.95 0 0 0 66.9 76.75l7.2 42.924a.703.703 0 0 1-.661.817.7.7 0 0 1-.684-.454l-11.272-30.52-5.88-16.65a5.59 5.59 0 0 0-9.536-.91l-.335.449a5.58 5.58 0 0 0-.866 4.889l13.846 46.528a.7.7 0 0 1-.339.813l-.532.285-15.41-38.854c-2.214-5.132-5.637-5.268-7.584-4.437-3.285 1.398-4.018 3.778-3.07 7.363 2.797 10.542 12.892 40.164 14.212 44.023a.68.68 0 0 1-.176.725l-.544.53-16.277-31.004a4.88 4.88 0 0 0-7.23-.03c-1.53 1.675-1.278 3.286-.418 6.061 0 0 12.637 29.932 15.338 35.712 2.714 18.637 5.644 27.5 14.563 39.233 7.508 16.026 33.739 8.935 44.942.189"/><path fill="#000" fill-rule="evenodd" d="M85.405 140.209a.8.8 0 0 1-.01 1.132c-3.393 3.329-8.499 8.772-12.78 14.264-2.142 2.747-4.064 5.49-5.462 7.977-1.413 2.512-2.231 4.662-2.285 6.25a.8.8 0 0 1-1.599-.054c.067-1.992 1.052-4.424 2.49-6.981 1.452-2.582 3.427-5.395 5.594-8.175 4.335-5.562 9.492-11.058 12.92-14.423a.8.8 0 0 1 1.132.01m-1.948-2.402a.8.8 0 0 1-.496 1.017c-4.043 1.394-10.407 3.86-16.343 6.719-2.967 1.429-5.815 2.951-8.206 4.48-2.406 1.537-4.292 3.047-5.39 4.437a.8.8 0 1 1-1.256-.991c1.266-1.604 3.334-3.228 5.784-4.794 2.464-1.576 5.373-3.128 8.374-4.574 6.003-2.891 12.427-5.38 16.516-6.789a.8.8 0 0 1 1.017.495" clip-rule="evenodd" opacity=".5" style="mix-blend-mode:overlay"/></g><defs><clipPath id="a"><path fill="#fff" d="M0 0h240v240H0z"/></clipPath><clipPath id="b"><rect width="200" height="200" x="20" y="20" fill="#fff" rx="100"/></clipPath></defs></svg>