<svg xmlns="http://www.w3.org/2000/svg" width="240" height="240" fill="none" class="persona-ilustration" viewBox="0 0 240 240"><g clip-path="url(#iPs6hIRZ88_a)"><rect width="200" height="200" x="20" y="20" fill="#D3EDFF" rx="100"/><path fill="#FF8D18" d="m59.409 95.726 87.649-27.722c5.099-1.613 10.544 1.213 12.158 6.31l16.887 53.327c1.614 5.097-1.213 10.539-6.313 12.152l-87.648 27.722z"/><path fill="#E47D10" d="m155.151 76.787.245.777c-5.383 2.878-22.731 10.882-41.351 16.91-23.478 7.599-46.244 9.821-46.244 9.821z"/><path fill="#E47D10" fill-rule="evenodd" d="m170.521 128.855-16.336-51.771 1.87-.592 16.335 51.771c1.403 4.445-.583 9.285-4.786 10.382l-9.797 2.545-.493-1.901 9.796-2.545c2.826-.737 4.573-4.206 3.411-7.889" clip-rule="evenodd"/><path fill="#E47D10" d="m177.656 128.257-18.219-57.56c-1.786-5.64-8.394-5.937-11.549-5.01L61.524 93.018c-1.6.506-2.794 1.934-2.838 3.615a3.924 3.924 0 0 0 4.12 4.079l3.982-.2s77.663-1.267 80.725-1.413l19.373 62.505a6 6 0 0 0 1.023-.149l.681 4.005 1.757-4.725c.844-1.656.451-2.931-.209-5.018l-18.274-57.408c-1.028-3.246-3.902-5.434-6.933-5.288l-79.297 1.732c-.5.014-.622-.698-.135-.852l83.126-25.69c.272-.085 6.859-1.223 8.31 3.36l17.336 54.773q.18.712.545 1.721c1.876 5.211-.527 8.709-.527 8.709 5.227-3.517 3.36-8.504 3.36-8.504z"/><path fill="#FFB26F" d="m163.33 169.268-74.274 3.676c-3.058.156-5.963-2.065-6.999-5.339l-23.32-70.127 84.636-1.008c3.03-.146 5.904 2.042 6.932 5.289l18.452 58.318c1.424 4.5-1.229 8.994-5.434 9.203z"/><path fill="#E47D10" fill-rule="evenodd" d="m162.251 100.157.521.831.521.831-.002.001-.003.002-.01.006-.03.018q-.038.023-.108.063-.139.082-.408.226c-.36.191-.898.461-1.63.788-1.464.653-3.704 1.534-6.85 2.47l-.561-1.88c3.067-.911 5.227-1.763 6.609-2.38a25 25 0 0 0 1.509-.729q.239-.128.348-.192l.077-.045z" clip-rule="evenodd"/><path fill="#F18513" fill-rule="evenodd" d="M62.34 103.508a.98.98 0 0 1 .97-.993l.023 1.963a.98.98 0 0 1-.992-.97m.993.97 2.96-.035a.98.98 0 1 0-.023-1.962l-2.96.034zm8.965-1.085a.98.98 0 0 1 .97-.993l5.981-.069a.981.981 0 0 1 .023 1.962l-5.982.069a.98.98 0 0 1-.992-.969m12.968-.15a.98.98 0 0 1 .97-.993l5.993-.069a.98.98 0 1 1 .023 1.962l-5.994.07a.98.98 0 0 1-.992-.97m12.981-.151a.98.98 0 0 1 .97-.992l5.987-.069a.981.981 0 1 1 .023 1.962l-5.987.069a.98.98 0 0 1-.993-.97m12.975-.15a.98.98 0 0 1 .969-.992l5.995-.07a.981.981 0 0 1 .022 1.963l-5.994.069a.98.98 0 0 1-.992-.97m12.98-.15a.98.98 0 0 1 .97-.993l5.981-.069a.981.981 0 0 1 .022 1.963l-5.981.069a.98.98 0 0 1-.992-.97m12.98-.151a.98.98 0 0 1 .97-.992l1.223-.015c1.123-.013 1.708-.02 1.687-.018l.006-.001a3.9 3.9 0 0 1 1.508.222.982.982 0 0 1-.652 1.851 1.9 1.9 0 0 0-.748-.113l-2.321.028-.68.008a.98.98 0 0 1-.993-.97m6.563.979a.98.98 0 0 1 1.35.32c.238.386.434.809.577 1.26l.958 3.028a.982.982 0 0 1-1.871.592l-.958-3.028a3.7 3.7 0 0 0-.376-.822.98.98 0 0 1 .32-1.35m3.889 11.034a.98.98 0 0 1 1.232.64l1.916 6.056a.981.981 0 0 1-1.871.592l-1.916-6.056a.98.98 0 0 1 .639-1.232m4.152 13.122a.98.98 0 0 1 1.232.639l1.916 6.056a.981.981 0 1 1-1.871.593l-1.916-6.057a.98.98 0 0 1 .639-1.231m4.152 13.121a.98.98 0 0 1 1.232.64l1.916 6.056a.98.98 0 1 1-1.87.592l-1.917-6.056a.98.98 0 0 1 .639-1.232m-73.127 25.082a.98.98 0 0 1 .94-1.021l2.885-.119a.98.98 0 1 1 .081 1.961l-2.885.119a.98.98 0 0 1-1.021-.94m9.617-.398a.98.98 0 0 1 .94-1.021l5.77-.239a.982.982 0 0 1 .081 1.961l-5.77.239a.98.98 0 0 1-1.02-.94m12.502-.518a.98.98 0 0 1 .94-1.021l5.77-.239a.982.982 0 0 1 .081 1.961l-5.77.239a.98.98 0 0 1-1.021-.94m12.502-.518a.983.983 0 0 1 .94-1.021l5.77-.239a.981.981 0 0 1 .082 1.961l-5.771.239a.98.98 0 0 1-1.021-.94m12.503-.517a.98.98 0 0 1 .939-1.021l5.77-.239a.981.981 0 0 1 .082 1.961l-5.77.239a.98.98 0 0 1-1.021-.94m30.156-10.009a.98.98 0 0 1 1.231.639l.958 3.029c.163.514.247 1.037.26 1.548a.982.982 0 0 1-1.962.048 3.6 3.6 0 0 0-.168-1.004l-.959-3.028a.98.98 0 0 1 .64-1.232m-17.654 9.491a.98.98 0 0 1 .939-1.021l5.771-.239a.981.981 0 1 1 .081 1.961l-5.77.239a.98.98 0 0 1-1.021-.94m12.502-.518a.98.98 0 0 1 .94-1.021l2.885-.12h.001l.093-.006q.057-.006.112-.006a1 1 0 0 1 .108-.033l.093-.027q.381-.121.687-.431a.98.98 0 1 1 1.4 1.375 3.6 3.6 0 0 1-1.701.986 1 1 0 0 1-.25.03 1 1 0 0 1-.246.058 4 4 0 0 1-.217.015l-2.884.12a.98.98 0 0 1-1.021-.94" clip-rule="evenodd"/><path fill="#F18513" d="M141.774 136.352c2.009-.636 2.961-3.292 2.125-5.933s-3.141-4.266-5.15-3.63-2.961 3.293-2.126 5.934c.836 2.641 3.142 4.266 5.151 3.629"/><path fill="#E47D10" d="m177.134 92.938-10.137 1.438 3.438 10.859 10.087-1.432s.037-.012.059-.008c3.064-.435 4.848-3.675 3.901-6.668s-4.275-4.626-7.339-4.192z"/><path fill="#FF8D18" d="m177.208 94.089-9.848 1.438 3.26 10.298 9.799-1.433s.037-.012.05-.005c2.97-.436 4.659-3.1 3.759-5.944-.901-2.843-4.043-4.802-7.023-4.364z"/></g><defs><clipPath id="iPs6hIRZ88_a"><path fill="#fff" d="M0 0h240v240H0z"/></clipPath></defs></svg>