<svg xmlns="http://www.w3.org/2000/svg" width="150" height="150" fill="none" class="persona-ilustration" viewBox="0 0 150 150"><g clip-path="url(#a)"><g clip-path="url(#b)"><rect width="125" height="125" x="12.5" y="12.5" fill="#D3EDFF" rx="62.5"/><path fill="#293A6E" fill-rule="evenodd" d="M3.656 39.703c-1.009-2.825-.848-5.455.44-7.223.03-.042.065-.09.1-.13l4.457-5.71-.008.011q-.024.035-.05.066a5.6 5.6 0 0 0-.945 2.177l1.52-1.946c.932-1.193 2.422-1.81 4.196-1.74l-4.499 5.764a7 7 0 0 0-.77.013c.056.89.257 1.838.604 2.812l-.405.52 48.48 135.786c2.06 5.098 5.567 8.143 9.573 8.452a9.4 9.4 0 0 0 1.72-.036l46.59-5.361.277-.355c.012-1.102-.194-2.291-.619-3.502l.803-1.028-.809 1.034-45.06-127.616c-1.62-4.582-6.012-8.446-9.882-8.743l4.5-5.763c3.869.297 8.26 4.155 9.881 8.743l45.064 127.612.001-.002c.914 2.576.819 5.063-.249 6.82l-.686.879.001-.001.685-.878a6 6 0 0 1-.326.475l-1.448 1.855a4.84 4.84 0 0 0 1.904-1.479l-4.492 5.755c-.837 1.074-2.012 1.721-3.431 1.887l-47.2 5.43-.002.001a9.4 9.4 0 0 1-1.72.036c-4.013-.309-7.515-3.354-9.574-8.452l4.435-5.681-4.441 5.681z" clip-rule="evenodd"/><path fill="#293A6E" d="m8.695 26.586-.042.054zm50.668 6.362 4.505-5.763-50.502-1.976-4.499 5.763z"/><path fill="#FFF9E1" fill-rule="evenodd" d="M119.065 170.675c1.151-1.887 1.258-4.54.291-7.27l-.006-.006L74.29 35.782c-1.697-4.802-6.332-8.85-10.683-9.182l-50.27-1.959c-2.018-.07-3.704.665-4.737 2.078-1.287 1.768-1.448 4.398-.439 7.223l48.615 136.163c2.06 5.099 5.561 8.143 9.573 8.452a9 9 0 0 0 1.721-.036l47.202-5.43c1.633-.196 2.944-1.027 3.793-2.416" clip-rule="evenodd"/><path fill="#293A6E" d="m119.825 178.971-50.773 5.863c-4.13.478-8.949-3.254-10.737-8.34L8.144 33.818c-1.789-5.086.31-9.092 4.651-8.955l53.406 1.701c3.913.125 8.428 4.099 10.11 8.874l47.184 134.107c1.683 4.781.05 8.998-3.67 9.426"/><path fill="#FFF9E1" d="m118.26 175.917-49.841 5.595c-2.776.311-6.012-2.198-7.21-5.614L11.367 34.166c-1.199-3.41.198-6.104 3.117-6.024l52.326 1.516c2.64.074 5.682 2.75 6.819 5.974l47.122 133.932c1.136 3.223.025 6.067-2.484 6.347z"/><path fill="#3E68F5" d="M55.148 103.881c-1.082-2.761.444-5.059 3.41-5.131l16.106-.393c2.966-.072 6.247 2.108 7.329 4.87l5.878 15.001c1.082 2.762-.445 5.059-3.41 5.131l-16.107.393c-2.965.072-6.246-2.108-7.328-4.869z"/><path fill="#EAEEFF" fill-rule="evenodd" d="M68.468 102.547c.148-.074.347-.079.55-.014l7.518 2.423c.296.095.554.324.655.582l2.697 6.882c.798 2.038-.175 3.751-1.292 4.891a8.6 8.6 0 0 1-1.79 1.388 6 6 0 0 1-.796.392c-.219.086-.473.166-.715.172-.24.006-.553-.06-.834-.134a12 12 0 0 1-1.085-.347 22 22 0 0 1-2.835-1.275c-1.98-1.064-4.264-2.697-5.063-4.735l-2.696-6.882c-.101-.258-.027-.496.19-.604zm-4.125 3.734 2.53 6.457c.55 1.403 2.234 2.713 4.118 3.726.915.491 1.819.881 2.543 1.144.362.132.67.229.905.29.22.058.324.071.347.074l.004.001.003-.001c.02-.004.112-.022.283-.089.183-.072.41-.182.663-.329a7.7 7.7 0 0 0 1.606-1.245c1.063-1.085 1.698-2.451 1.148-3.855l-2.53-6.456-6.713-2.163z" clip-rule="evenodd"/><path fill="#EAEEFF" fill-rule="evenodd" d="M74.46 109.329c.371.245.531.653.358.912l-1.778 2.649c-.173.258-.615.269-.986.024l-2.533-1.675c-.371-.246-.531-.654-.358-.913.174-.258.615-.269.986-.024l1.862 1.231 1.463-2.18c.174-.259.615-.27.986-.024" clip-rule="evenodd"/><path fill="#3E68F5" d="M21.148 104.881c-1.082-2.761.444-5.059 3.41-5.131l16.106-.393c2.966-.072 6.247 2.108 7.329 4.87l5.878 15.001c1.082 2.762-.445 5.059-3.41 5.131l-16.107.393c-2.965.072-6.246-2.108-7.328-4.869z"/><path fill="#EAEEFF" fill-rule="evenodd" d="M35.625 104.072c-2.165-.228-4.084.269-5.376 1.392-.22.19-.15.558.153.822.304.264.728.324.947.134 1.093-.95 2.717-1.371 4.549-1.177 1.831.193 3.738.985 5.341 2.22.321.247.738.276.93.064.193-.211.09-.583-.232-.83-1.894-1.46-4.148-2.396-6.312-2.625m2.08 2.666a7.5 7.5 0 0 0-2.236-.363c-1.535 0-2.804.559-3.528 1.554q-.288.395-.473.86c-.105.267.101.634.46.82.36.186.737.119.842-.148q.148-.376.384-.699c.563-.773 1.55-1.208 2.744-1.208.565 0 1.155.097 1.74.282.373.118.692-.031.71-.335.02-.303-.269-.645-.643-.763m-7.79.193c-.355-.196-.74-.146-.86.113-.686 1.472-.62 3.3.187 5.145.142.324.537.57.884.549.347-.022.512-.303.37-.628-.681-1.561-.737-3.107-.158-4.353.121-.259-.069-.629-.423-.826m9.303.998c-.167.23-.032.603.303.833 1.125.773 1.98 1.821 2.38 2.914.096.275.168.508.238.738q.053.176.111.356c.111.347.238.698.442 1.083.413.78 1.097 1.613 2.431 2.861.293.273.72.351.953.175.234-.177.187-.542-.105-.815-1.268-1.185-1.784-1.855-2.072-2.398a5 5 0 0 1-.346-.858l-.097-.31c-.075-.244-.16-.523-.265-.822l-.003-.007c-.512-1.407-1.613-2.756-3.06-3.75-.335-.23-.743-.23-.91 0m3.662.268c-.273.135-.288.485-.032.781 1.054 1.22 1.733 2.583 1.941 3.902.05.32.393.628.764.688.37.061.63-.15.58-.47-.247-1.558-1.048-3.169-2.294-4.611-.256-.296-.685-.426-.959-.29m-5.24.76a4.2 4.2 0 0 0-1.313-.224c-1.298 0-1.955.767-2.138 1.166q-.14.301-.171.652c-.032.357.024.739.164 1.125.594 1.689 1.873 5.187 4.653 7.787.292.274.72.352.953.175.234-.176.187-.541-.105-.814-2.42-2.264-3.604-5.412-4.21-7.138l-.003-.007a1.6 1.6 0 0 1-.1-.677q.02-.21.103-.392l.001-.001c.102-.223.527-.698 1.282-.698.253 0 .52.046.787.135a3.1 3.1 0 0 1 1.393.956c.245.301.673.444.956.319.283-.124.313-.469.068-.77a5 5 0 0 0-1.045-.955 5.1 5.1 0 0 0-1.276-.639m-5.807 1.363c-.372-.064-.637.141-.591.46q.002.023.003.076c.005.156.014.498.159.909l.074.214c.59 1.684 1.3 3.715 3.882 6.805.25.299.678.436.958.307s.303-.476.053-.774c-2.389-2.86-3.03-4.691-3.6-6.322l-.076-.217a1.3 1.3 0 0 1-.082-.362l-.005-.116-.001-.05a2 2 0 0 0-.02-.235c-.045-.318-.383-.63-.754-.695m5.402.771c-.364-.025-.584.218-.493.543.258.922.833 2.429 1.721 3.949.187.319.601.526.926.461.324-.064.436-.375.25-.694-.818-1.4-1.35-2.796-1.582-3.626-.09-.324-.459-.608-.822-.633m2.888 1.049c-.358-.009-.561.246-.454.572.243.732.55 1.554 1.14 2.487.591.936 1.45 1.955 2.768 3.108.303.265.727.327.947.137.22-.189.153-.557-.15-.822-1.195-1.044-1.928-1.928-2.418-2.704-.492-.778-.757-1.475-.988-2.171-.108-.326-.486-.597-.845-.607m-.293 4.563c-.285.122-.32.465-.077.767.621.772 1.354 1.506 2.204 2.09.335.23.742.23.91 0 .167-.23.031-.603-.304-.833-.64-.441-1.236-1.025-1.778-1.698-.242-.302-.67-.448-.955-.326" clip-rule="evenodd"/></g><path fill="#38BA58" fill-rule="evenodd" d="M112.458 6C109.155.487 101.166.487 97.862 6a8.51 8.51 0 0 1-9.366 3.88C82.26 8.317 76.612 13.966 78.175 20.2a8.51 8.51 0 0 1-3.88 9.367c-5.513 3.304-5.513 11.293 0 14.596a8.51 8.51 0 0 1 3.88 9.367c-1.563 6.234 4.086 11.883 10.32 10.32a8.51 8.51 0 0 1 9.367 3.88c3.304 5.513 11.293 5.513 14.596 0a8.51 8.51 0 0 1 9.367-3.88c6.234 1.563 11.883-4.086 10.321-10.32a8.51 8.51 0 0 1 3.879-9.367c5.513-3.303 5.513-11.292 0-14.596a8.51 8.51 0 0 1-3.879-9.366c1.562-6.235-4.087-11.884-10.321-10.321A8.51 8.51 0 0 1 112.458 6m8.952 25.594a2.69 2.69 0 1 0-3.804-3.805l-16.033 16.033-8.859-8.859a2.69 2.69 0 0 0-3.804 3.805l10.76 10.76a2.69 2.69 0 0 0 3.805 0z" clip-rule="evenodd"/><path fill="#fff" d="M121.411 27.788a2.69 2.69 0 0 1 0 3.805l-17.935 17.935a2.69 2.69 0 0 1-3.805 0L88.91 38.767a2.69 2.69 0 0 1 3.805-3.805l8.858 8.859 16.033-16.033a2.69 2.69 0 0 1 3.805 0"/><path fill="#293A6E" fill-rule="evenodd" d="M3.656 39.703c-1.009-2.825-.848-5.455.44-7.223.03-.042.065-.09.1-.13l4.457-5.71-.008.011q-.024.035-.05.066a5.6 5.6 0 0 0-.945 2.177l1.52-1.946c.932-1.193 2.422-1.81 4.196-1.74l-4.499 5.764a7 7 0 0 0-.77.013c.056.89.257 1.838.604 2.812l-.405.52L29.16 92.753l57.058-2.675L69.251 41.69c-1.62-4.582-6.012-8.446-9.882-8.743l4.5-5.763c3.869.297 8.26 4.155 9.881 8.743L93.177 90.94l-70.58 1.814z" clip-rule="evenodd"/><path fill="#293A6E" d="m8.695 26.586-.042.054zm50.668 6.362 4.505-5.763-50.502-1.976-4.499 5.763z"/><path fill="#293A6E" fill-rule="evenodd" d="M95.562 90.467 76.254 35.782c-1.698-4.802-5.73-9.939-12.647-9.182l-50.27-1.959c-2.018-.07-3.704.665-4.737 2.078-1.287 1.768-1.448 4.398-.439 7.223l21.416 59.982z" clip-rule="evenodd"/><path fill="#FFF9E1" d="M32.374 93.828 11.368 34.166c-1.199-3.41.198-6.104 3.117-6.024l52.326 1.516c2.64.074 5.682 2.75 6.819 5.974L93.125 91.04z"/><path fill="#293A6E" d="M46.267 28.944c.54 1.527.547 2.987.031 4.043-.521 1.061-1.533 1.64-2.813 1.608-1.279-.031-2.732-.67-4.024-1.782-1.298-1.112-2.329-2.609-2.875-4.155l9.688.28z"/><path fill="#9DA8C4" d="m73.794 81.182-27.095.703c-1.17.032-2.516-1.084-3.01-2.49-.493-1.405.054-2.564 1.223-2.585l27.15-.558c1.1-.021 2.376 1.062 2.859 2.42.477 1.356-.022 2.483-1.121 2.51zm-2.279 8.347-16.474.574c-1.148.038-2.484-1.062-2.977-2.457-.494-1.395.048-2.559 1.201-2.591l16.506-.488c1.11-.032 2.398 1.046 2.876 2.414.482 1.368-.027 2.505-1.132 2.543z"/><path fill="#627EBE" d="M47.016 42.88c6.608.101 14.15 6.587 16.93 14.488 2.778 7.902-.199 14.393-6.738 14.495-6.63.102-14.387-6.383-17.236-14.495-2.854-8.105.338-14.596 7.044-14.494z"/><path fill="#fff" d="M48.47 47.62c2.633.027 5.67 2.65 6.796 5.853 1.127 3.208-.07 5.81-2.693 5.815-2.634.005-5.708-2.612-6.845-5.852s.097-5.842 2.741-5.815M64.161 67.34c-1.184 2.74-3.6 4.47-6.953 4.523-3.446.053-7.196-1.673-10.404-4.483.415-3.169 2.983-5.379 6.832-5.398h.005c3.868-.02 7.951 2.184 10.52 5.358"/><path fill="#3E68F5" d="M90.62 94.485a87 87 0 0 0 16.434-6.556c2.893-1.514 6.086-.569 7.244 2.332 2.093 5.253 4.191 10.502 6.284 15.754 1.158 2.901-.157 6.655-3.054 8.169a87 87 0 0 1-16.434 6.556c-3.14.893-6.68-.922-7.84-3.823-2.092-5.253-4.19-10.501-6.283-15.754-1.158-2.901.51-5.785 3.649-6.678"/><path fill="#EAEEFF" fill-rule="evenodd" d="M106.597 92.393c.371-.183.788-.037.936.332l.794 1.996a77 77 0 0 0 1.994-1.037c.364-.196.776-.06.924.31.148.369-.031.827-.394 1.02a77 77 0 0 1-1.994 1.036l.795 1.995c.148.37-.034.815-.406.997s-.792.029-.936-.336l-.794-1.996c-.811.392-1.218.581-2.036.946a.7.7 0 0 1-.948-.359c-.147-.37.043-.8.418-.97a87 87 0 0 0 2.036-.945l-.795-1.996c-.148-.37.039-.81.406-.993M95.465 99.45c-1.183.377-1.793 1.545-1.35 2.649l1.06 2.658c.148.369-.057.76-.455.871s-.841-.098-.989-.467l-1.06-2.658c-.734-1.838.293-3.757 2.264-4.382 2.85-.907 4.257-1.423 7.022-2.573.383-.16.807.008.955.373.148.37-.042.796-.425.956-2.76 1.15-4.167 1.666-7.022 2.573m7.128 3.611c-.732 1.082-1.193 2.181-1.435 3.166-.298 1.219-.245 2.175-.055 2.649.147.369-.05.773-.444.902-.39.129-.83-.066-.978-.431-.337-.843-.336-2.103.005-3.451.342-1.374 1.056-2.922 2.247-4.387a1.25 1.25 0 0 1 1.446-.373c.428.176.773.606.737 1.171a48 48 0 0 0-.055 4.105c.775-1.21 1.542-1.881 2.114-2.244.389-.248.846-.249 1.192-.025.32.213.481.579.47.952q-.004.06-.003.127c.139-.128.291-.241.46-.331.508-.266 1.034-.25 1.513-.185.391.056.644.428.562.831-.083.403-.47.686-.866.625-.4-.06-.534-.021-.598.015-.072.039-.225.157-.473.606-.218.395-.647.714-1.154.673-.572-.05-.893-.514-.915-1.002a14 14 0 0 1-.013-.62c-.449.432-1.022 1.151-1.596 2.308-.201.405-.631.742-1.168.69-.589-.055-.923-.529-.959-1.001-.095-1.27-.109-3.177-.042-4.775zm8.788-4.036c.368-.192.78-.052.928.314l2.654 6.649c.734 1.838-.149 4.122-2.014 5.013a73 73 0 0 1-2.723 1.244.71.71 0 0 1-.951-.368c-.148-.369.042-.796.421-.961a76 76 0 0 0 2.723-1.244c1.118-.535 1.657-1.888 1.218-2.992l-2.654-6.649c-.148-.37.035-.819.398-1.006m-15.067 10.59c.398-.111.837.093.985.458l1.06 2.658c.439 1.104 1.761 1.715 2.944 1.342a70 70 0 0 0 2.835-.956c.391-.138.823.044.971.409.148.369-.05.782-.436.92a70 70 0 0 1-2.836.957c-1.967.625-4.183-.43-4.918-2.268l-1.06-2.658c-.147-.369.057-.751.455-.866z" clip-rule="evenodd"/><path fill="#3E68F5" d="M121.529 78.411a86.7 86.7 0 0 0 12.747-12.767c2.116-2.617 4.623-2.541 5.777.356 2.093 5.252 4.191 10.5 6.284 15.753 1.158 2.902.53 7.528-1.587 10.146a86.5 86.5 0 0 1-12.747 12.767c-2.56 2.076-5.685 1.24-6.844-1.661-2.093-5.253-4.19-10.501-6.283-15.754-1.159-2.901.093-6.764 2.653-8.84"/><path fill="#EAEEFF" fill-rule="evenodd" d="M123.651 83.086c-.31.253-.451.744-.307 1.096.409 1.023.609 1.531 1.018 2.554.14.352.508.436.818.184a69 69 0 0 0 2.218-1.874c.303-.266.431-.767.291-1.118-.409-1.023-.609-1.532-1.018-2.554-.14-.352-.5-.423-.802-.157-.875.765-1.32 1.14-2.218 1.874zm1.579 2.09c-.205-.51-.307-.766-.507-1.275.445-.371.668-.559 1.109-.939l.511 1.275c-.441.38-.664.568-1.109.94zm8.677-11.05c-.14-.352-.035-.885.234-1.193.777-.89 1.157-1.34 1.905-2.258.257-.317.581-.292.72.063.409 1.023.61 1.532 1.018 2.555.141.351.049.898-.209 1.216a69 69 0 0 1-1.904 2.258c-.27.307-.601.269-.741-.087-.409-1.023-.609-1.532-1.018-2.554zm1.225-.471c.204.509.306.766.507 1.275.384-.45.574-.675.95-1.13-.205-.509-.307-.766-.507-1.275-.376.455-.566.684-.95 1.13m-6.061 12.495c-.33-.825-.027-1.995.66-2.637a73 73 0 0 0 4.136-4.14c.645-.691 1.425-.598 1.751.222l2.036 5.104c.33.825.084 2.065-.566 2.752a73 73 0 0 1-4.136 4.14c-.686.64-1.519.483-1.849-.342l-2.036-5.104zm1.167-1.362a.38.38 0 0 0-.095.38l2.037 5.105c.045.117.162.137.264.047a72 72 0 0 0 4.137-4.14.4.4 0 0 0 .082-.39l-2.037-5.104c-.045-.117-.158-.133-.252-.033a72 72 0 0 1-4.137 4.14zm8.761 2.1c-.14-.351-.036-.885.234-1.193a72 72 0 0 0 1.904-2.258c.258-.317.581-.292.721.064.409 1.023.609 1.531 1.018 2.554.14.351.048.899-.209 1.216a69 69 0 0 1-1.905 2.258c-.27.308-.601.27-.741-.087-.409-1.022-.609-1.531-1.018-2.554zm1.224-.475.512 1.275c.384-.45.574-.675.95-1.13l-.512-1.274c-.376.454-.566.683-.95 1.129m-11.476 9.436c-.311.252-.452.74-.307 1.096.409 1.022.609 1.531 1.018 2.554.14.351.508.436.818.184a70 70 0 0 0 2.218-1.874c.302-.266.431-.767.291-1.118-.409-1.023-.61-1.532-1.018-2.555-.14-.351-.5-.422-.803-.156a69 69 0 0 1-2.218 1.873zm1.574 2.09-.511-1.276c.445-.37.668-.559 1.109-.939L131.43 97c-.441.38-.664.568-1.109.94m-4.94-8.653c-.141-.351.001-.843.306-1.096a72 72 0 0 0 1.484-1.24c.307-.261.667-.19.806.166.141.351.008.852-.294 1.114-.367.314-.553.47-.924.78.171.423.254.64.424 1.063.14.351.003.847-.307 1.1-.31.252-.678.171-.818-.184-.273-.68-.409-1.023-.677-1.703m3.154 1.066c.306-.261.666-.19.806.166.273.68.409 1.022.677 1.702.14.352.008.853-.295 1.114a72 72 0 0 1-1.484 1.24c-.31.253-.678.172-.818-.184-.14-.35-.003-.843.307-1.095.375-.305.561-.46.932-.77-.171-.424-.253-.64-.424-1.064-.14-.351-.007-.847.299-1.109m8.283-13.06c-.266.312-.365.846-.225 1.197.272.68.409 1.023.677 1.703.14.352.471.39.737.078s.361-.85.221-1.202c-.17-.424-.253-.64-.423-1.063.318-.38.475-.567.785-.951.257-.317.349-.86.209-1.216-.14-.352-.463-.38-.721-.064-.5.614-.751.914-1.259 1.514zm3.34 1.952c-.14-.352-.463-.381-.721-.064s-.357.855-.213 1.211c.171.424.253.64.424 1.064-.314.38-.471.567-.793.941-.266.313-.366.846-.226 1.198.14.35.471.39.737.077.513-.6.765-.904 1.26-1.513.257-.317.349-.86.209-1.216-.272-.68-.409-1.023-.677-1.703zm-10.938 2.99c-.295.275-.65.209-.79-.142-.273-.68-.409-1.023-.678-1.703-.14-.352-.015-.857.279-1.133.294-.275.646-.213.786.138.17.424.253.64.424 1.063.35-.333.528-.506.874-.844.29-.28.634-.227.774.124s.024.87-.267 1.15a66 66 0 0 1-1.407 1.347zm1.338-4.542c-.14-.351-.023-.87.259-1.16.545-.558.817-.844 1.35-1.416.278-.298.613-.255.753.101.273.68.409 1.023.677 1.703.141.351.032.88-.246 1.178-.278.299-.617.25-.757-.105-.171-.424-.253-.64-.424-1.063-.339.356-.508.53-.846.881-.282.29-.63.236-.77-.115zm3.304 18.014c.14.35.495.418.79.142.569-.53.85-.802 1.407-1.346.29-.28.407-.8.266-1.15-.14-.352-.487-.41-.773-.125-.347.343-.524.511-.875.845-.17-.424-.253-.64-.424-1.064-.14-.35-.492-.413-.786-.137s-.418.78-.278 1.132c.272.68.409 1.023.677 1.703zm2.387-5.56c-.282.29-.399.809-.258 1.16.14.351.487.404.769.115.343-.347.512-.525.847-.881.17.423.253.64.424 1.063.14.351.479.4.757.105.278-.298.386-.822.246-1.178-.272-.68-.409-1.023-.677-1.703-.14-.351-.475-.395-.753-.1-.533.571-.805.852-1.35 1.415z" clip-rule="evenodd"/></g><defs><clipPath id="a"><path fill="#fff" d="M0 0h150v150H0z"/></clipPath><clipPath id="b"><rect width="125" height="125" x="12.5" y="12.5" fill="#fff" rx="62.5"/></clipPath></defs></svg>