<svg xmlns="http://www.w3.org/2000/svg" width="150" height="150" fill="none" class="persona-ilustration" viewBox="0 0 150 150"><g clip-path="url(#a)"><g clip-path="url(#b)"><rect width="125" height="125" x="12.64" y="12.5" fill="#D3EDFF" rx="62.5"/><mask id="c" width="163" height="189" x="-21" y="36" maskUnits="userSpaceOnUse" style="mask-type:alpha"><path fill="#fff" d="M141.575 36.976-20.5 62.054v162.719h153.434l3.344-72.507z"/></mask><g mask="url(#c)"><path fill="#AADBFF" d="M140.951 36.976-20.5 62.054v162.719l161.451-1.642z"/><path fill="#82C2F1" d="m91.071 75.87-143.7 13.905 1.55 159.535H91.945l-.874-65.451z" opacity=".5"/><path fill="#82C2F1" fill-rule="evenodd" d="M91.696 75.182v108.677l.883 66.076H-51.698l-1.56-160.727zm-143.694 15.16 1.537 158.343H91.312l-.866-64.818V76.559z" clip-rule="evenodd" opacity=".5"/><path fill="#AADBFF" d="M81.2 87.822-56.747 101.17l1.486 153.147H82.038l-.839-62.83z" opacity=".5"/><path fill="#82C2F1" fill-rule="evenodd" d="M81.824 87.134v104.353l.848 63.455h-138.55l-1.499-154.338zm-137.94 14.603 1.475 151.955H81.405l-.83-62.197V88.51z" clip-rule="evenodd" opacity=".5"/><path fill="#D3EDFF" d="m-1.238 112.494 66.5-3.417L82.35 88.571l-89.71 9.256z" opacity=".5"/><path fill="#AADBFF" d="M65.134 109.091c1.552-10.837 11.338-18.056 16.167-21.416v64.038H65.134z"/><path fill="#AADBFF" fill-rule="evenodd" d="M81.922 87.339v104.353l.848 63.456H-55.78l-1.5-154.339zm-137.94 14.604 1.475 151.955H81.503l-.83-62.197V88.716z" clip-rule="evenodd"/></g><path fill="#AADBFF" d="M20.044 66.51h-41.398l-4-6.572L172.49 30.657l17.787 9.358z"/><path fill="#AADBFF" d="M175.474-1.065-13.699 25.896a1 1 0 0 1-.177.013h-8.462c-.69 0-1.25.56-1.25 1.25v30.718a1.25 1.25 0 0 0 1.431 1.236l197.988-29.038a1.25 1.25 0 0 0 1.069-1.237V.172a1.25 1.25 0 0 0-1.426-1.237" opacity=".5"/></g><path fill="#4793CC" d="M109.675 25.607C109.437 7.947 93.631 4 84.745 9.469l2.12-5.937c2.579-.983 14.758-.82 21.408 2.505 10.227 5.469 9.138 14.21 9.336 19.57v35.395l-7.934 1.141c.1-4.82.238-18.877 0-36.536"/><path fill="#F8F8F8" d="M109.466 62.097v4.288a1.25 1.25 0 0 1-1.064 1.236l-3.628.547a1.25 1.25 0 0 0-1.064 1.236v5.791c0 .75.657 1.332 1.402 1.24l18.158-2.217a1.25 1.25 0 0 0 1.098-1.24v-6.291a1.25 1.25 0 0 0-1.42-1.239l-3.467.477a1.25 1.25 0 0 1-1.42-1.238v-3.82a1.25 1.25 0 0 0-1.498-1.225l-6.094 1.23a1.25 1.25 0 0 0-1.003 1.225"/><circle cx="106.989" cy="72.07" r="1.744" fill="#E4E4E4"/><circle cx="120.676" cy="70.217" r="1.744" fill="#E4E4E4"/><path fill="#82C2F1" d="M71.144 21.42v24.146l9.62 1.358c-.37-4.574 0-15.494 0-25.504.636-14.625 21.314-18.88 28.319-14.934-23.456-13.21-37.94 3.905-37.94 14.934"/><path fill="#FEE283" d="M100.434 60.919c0-13.28-10.764-24.044-24.044-24.044-13.279 0-24.044 10.765-24.044 24.044v22.848a22.06 22.06 0 0 1-6.46 15.598l-1.97 1.97a5.86 5.86 0 0 0-1.717 4.143h68.382a5.86 5.86 0 0 0-1.715-4.143l-1.971-1.97a22.06 22.06 0 0 1-6.461-15.598z"/><path fill="#FFC509" d="M100.434 69.237c-5.267-1.827-14.047-3.024-23.988-3.024-10.012 0-18.845 1.214-24.1 3.063v5.81c5.255-1.849 14.088-3.062 24.1-3.062 9.941 0 18.721 1.196 23.988 3.024zm0 10.589C95.167 78 86.387 76.802 76.446 76.802c-10.012 0-18.845 1.214-24.1 3.063v3.902q0 .976-.085 1.939c5.244-1.867 14.119-3.094 24.185-3.094 9.993 0 18.812 1.21 24.07 3.053a22 22 0 0 1-.082-1.898z"/><path fill="#FFF9E1" fill-rule="evenodd" d="M73.635 41.838a1.38 1.38 0 0 1-1.113 1.604A16.53 16.53 0 0 0 58.97 60.825a1.38 1.38 0 0 1-2.754.186 19.29 19.29 0 0 1 15.817-20.286 1.38 1.38 0 0 1 1.603 1.113" clip-rule="evenodd"/><path fill="#FFC509" d="M110.582 105.478c0 3.533-15.308 6.397-34.191 6.397s-34.192-2.864-34.192-6.397 15.308-6.397 34.192-6.397c18.883 0 34.191 2.864 34.191 6.397"/><path fill="#FFF9E1" d="M66.394 99.359c3.162-.18 6.519-.278 9.997-.278 3.748 0 7.355.113 10.73.321-.17 5.578-4.745 10.047-10.363 10.047-5.633 0-10.217-4.492-10.364-10.09"/></g><defs><clipPath id="a"><path fill="#fff" d="M0 0h150v150H0z"/></clipPath><clipPath id="b"><rect width="125" height="125" x="12.64" y="12.5" fill="#fff" rx="62.5"/></clipPath></defs></svg>