<svg xmlns="http://www.w3.org/2000/svg" width="300" height="300" fill="none" class="persona-ilustration" viewBox="0 0 300 300"><g clip-path="url(#a)"><g clip-path="url(#b)"><rect width="250" height="250" x="25.281" y="25" fill="#D3EDFF" rx="125"/><path fill="#AADBFF" d="m10.906 218.412 124.547-71.907 135.66 78.324-124.547 71.907z"/><path fill="#AADBFF" d="m-38.589 190.71 60.113-34.706L208.595 264.01l-60.113 34.706z"/><g opacity=".75"><path fill="#D3EDFF" d="m23.37 131.771 46.919 27.088v25.327L23.37 157.098z"/><path fill="#D3EDFF" d="m25.44 135.326 42.778 24.698v20.605L25.44 155.932z"/><path fill="#82C2F1" fill-rule="evenodd" d="m24.828 134.265 44.003 25.406v22.02l-44.003-25.406zm1.225 2.123v19.19l41.553 23.99v-19.19z" clip-rule="evenodd"/><path fill="#82C2F1" d="m117.207 131.771-46.918 27.088v25.327l46.918-27.088z"/><path fill="#4793CC" d="M46.112 153.008c0 .863-.606 1.213-1.353.781-.748-.431-1.353-1.481-1.353-2.343 0-.863.605-1.213 1.353-.782.747.432 1.353 1.481 1.353 2.344"/><path fill="#4793CC" d="M40.531 151.297c2.06.516 3.015 1.111 3.149-.607l1.995 3.214c-1.71-.621-1.872.619-2.22 2.459z"/><path fill="#82C2F1" d="M44.142 154.979c0 1.32-.927 1.855-2.07 1.195s-2.07-2.265-2.07-3.585c0-1.321.927-1.856 2.07-1.196s2.07 2.266 2.07 3.586"/><path fill="#D3EDFF" fill-rule="evenodd" d="m117.228 131.771-46.933-27.1-46.918 27.1.017.002h-.032l46.924 27.096 46.927-27.096z" clip-rule="evenodd"/><path fill="#D3EDFF" d="m23.37 106.454 46.919 27.089v25.326L23.37 131.781z"/><path fill="#D3EDFF" d="m25.44 110.01 42.778 24.698v20.605L25.44 130.615z"/><path fill="#82C2F1" fill-rule="evenodd" d="m24.828 108.949 44.003 25.405v22.02l-44.003-25.405zm1.225 2.122v19.19l41.553 23.991v-19.19z" clip-rule="evenodd"/><path fill="#82C2F1" d="m117.207 106.453-46.918 27.088v25.327l46.918-27.088z"/><path fill="#4793CC" d="M46.112 127.69c0 .863-.606 1.213-1.353.782-.748-.432-1.353-1.481-1.353-2.344s.605-1.213 1.353-.781c.747.431 1.353 1.48 1.353 2.343"/><path fill="#4793CC" d="M40.531 125.98c2.06.516 3.015 1.11 3.149-.607l1.995 3.213c-1.71-.621-1.872.619-2.22 2.46z"/><path fill="#82C2F1" d="M44.142 129.662c0 1.32-.927 1.855-2.07 1.195s-2.07-2.265-2.07-3.585c0-1.321.927-1.856 2.07-1.196s2.07 2.266 2.07 3.586"/><path fill="#D3EDFF" d="m117.228 106.453-46.933-27.1-46.918 27.1.017.003h-.032l46.924 27.095 46.927-27.096z"/><path fill="#D3EDFF" d="m23.37 81.136 46.919 27.088v25.327L23.37 106.462z"/><path fill="#D3EDFF" d="m25.44 84.691 42.778 24.698v20.605L25.44 105.296z"/><path fill="#82C2F1" fill-rule="evenodd" d="m24.828 83.63 44.003 25.406v22.02L24.828 105.65zm1.225 2.123v19.19l41.553 23.99v-19.19z" clip-rule="evenodd"/><path fill="#82C2F1" d="m117.207 81.136-46.918 27.088v25.327l46.918-27.089z"/><path fill="#4793CC" d="M46.112 102.373c0 .863-.606 1.212-1.353.781-.748-.432-1.353-1.481-1.353-2.344s.605-1.212 1.353-.781c.747.432 1.353 1.481 1.353 2.344"/><path fill="#4793CC" d="M40.531 100.662c2.06.516 3.015 1.11 3.149-.607l1.995 3.213c-1.71-.62-1.872.619-2.22 2.46z"/><path fill="#82C2F1" d="M44.142 104.344c0 1.32-.927 1.855-2.07 1.195s-2.07-2.266-2.07-3.586.927-1.855 2.07-1.195 2.07 2.266 2.07 3.586"/><path fill="#AADBFF" d="m117.228 81.136-46.933-27.1-46.918 27.1.017.002h-.032l46.924 27.096 46.927-27.096z"/></g><path fill="#0061A0" d="m78.325 188.2 65.272-37.686V60.075l-39.162 22.61v15.076a52.22 52.22 0 0 1-26.11 45.222v45.221z"/><path fill="#0083C7" d="m143.596 60.075 26.11 15.075v90.439l-26.11-15.071z"/><path fill="#0083C7" d="m104.435 203.275 65.271-37.686V75.15l-39.162 22.611v15.075a52.22 52.22 0 0 1-26.109 45.222v45.221z"/><path fill="#0090D5" d="m78.325 142.982 26.11 15.072v45.221L78.325 188.2z"/><path fill="#F8F8F8" d="M81.561 186.155v-36.523l18.578 10.726v36.522z"/><path fill="#0090D5" d="M83.74 156.392c0-.976.686-1.372 1.531-.883l10.699 6.176c.845.488 1.53 1.676 1.53 2.652s-.685 1.372-1.53.884l-10.699-6.177c-.845-.488-1.53-1.675-1.53-2.652"/><path fill="#E4E4E4" d="M83.74 166.533c0-.486.342-.683.763-.44l12.235 7.064c.421.243.763.834.763 1.321s-.342.684-.763.44l-12.235-7.063c-.421-.243-.763-.835-.763-1.322m0 6.598c0-.486.342-.684.763-.44l12.235 7.063c.421.244.763.835.763 1.322 0 .486-.342.683-.763.44l-12.235-7.063c-.421-.244-.763-.835-.763-1.322m0 6.598c0-.486.342-.683.763-.44l12.235 7.063c.421.244.763.835.763 1.322 0 .486-.342.684-.763.44l-12.235-7.063c-.421-.244-.763-.835-.763-1.322"/><path fill="#E47D10" d="m104.045 203.327 65.272-37.686V75.202l-39.162 22.61v15.076a52.22 52.22 0 0 1-26.11 45.221v45.222z"/><path fill="#FF8D18" d="m169.317 75.202 26.109 15.075v90.439l-26.109-15.071z"/><path fill="#FF8D18" d="m130.155 218.402 65.271-37.686V90.277l-39.162 22.611v15.075a52.22 52.22 0 0 1-26.109 45.222v45.221z"/><path fill="#FFB26F" d="m104.045 158.109 26.109 15.072v45.221l-26.109-15.075z"/><path fill="#F8F8F8" d="M107.811 201.154v-36.522l18.578 10.725v36.522z"/><path fill="#FFB26F" d="M109.99 171.392c0-.977.686-1.372 1.531-.884l10.699 6.177c.845.488 1.531 1.675 1.531 2.651 0 .977-.686 1.373-1.531.884l-10.699-6.176c-.845-.489-1.531-1.676-1.531-2.652"/><path fill="#E4E4E4" d="M109.99 181.533c0-.487.342-.684.763-.441l12.235 7.064c.421.243.763.835.763 1.321 0 .487-.342.684-.763.441l-12.235-7.064c-.421-.243-.763-.835-.763-1.321m0 6.598c0-.487.342-.684.763-.44l12.235 7.063c.421.243.763.835.763 1.322 0 .486-.342.683-.763.44l-12.235-7.064c-.421-.243-.763-.834-.763-1.321m0 6.598c0-.487.342-.684.763-.441l12.235 7.064c.421.243.763.835.763 1.321 0 .487-.342.684-.763.441l-12.235-7.064c-.421-.243-.763-.835-.763-1.321"/><path fill="#376352" d="m130.513 218.317 65.271-37.685v-90.44l-39.162 22.611v15.075a52.22 52.22 0 0 1-26.109 45.222v45.221z"/><path fill="#3D7360" d="m195.784 90.192 26.109 15.075v90.44l-26.109-15.072z"/><path fill="#498F79" d="m130.513 173.099 26.109 15.072v45.221l-26.109-15.075z"/><path fill="#F8F8F8" d="M134.014 216.207v-36.522l18.577 10.725v36.523z"/><path fill="#498F79" d="M136.192 186.445c0-.976.686-1.372 1.531-.884l10.699 6.177c.845.488 1.531 1.675 1.531 2.652 0 .976-.686 1.372-1.531.883l-10.699-6.176c-.845-.488-1.531-1.676-1.531-2.652"/><path fill="#E4E4E4" d="M136.192 196.586c0-.487.342-.684.763-.441l12.235 7.064c.421.243.763.835.763 1.321 0 .487-.342.684-.763.441l-12.235-7.064c-.421-.243-.763-.835-.763-1.321m0 6.598c0-.487.342-.684.763-.441l12.235 7.064c.421.243.763.835.763 1.321 0 .487-.342.684-.763.441l-12.235-7.064c-.421-.243-.763-.835-.763-1.321m0 6.598c0-.487.342-.684.763-.441l12.235 7.064c.421.243.763.835.763 1.321 0 .487-.342.684-.763.441l-12.235-7.064c-.421-.243-.763-.835-.763-1.321"/><path fill="#43826E" d="m156.622 233.392 65.272-37.686v-90.439l-39.162 22.611v15.075a52.22 52.22 0 0 1-26.11 45.222v45.221z"/><path fill="#498F79" d="m218.411 193.473.001-80.676-31.008 17.382v15.226a52.74 52.74 0 0 1-26.371 45.675v35.005z"/></g><path fill="#4793CC" fill-rule="evenodd" d="M196.12 164.908a1.1 1.1 0 0 0-.176.494l-10.742 78.254c-.153 1.108-.992 2.278-1.876 2.613s-1.477-.293-1.325-1.401l10.743-78.255c.721-5.251 6.73-8.733 7.465-4.324l10.962 65.731c.155.931-.435 2.243-1.319 2.932s-1.725.494-1.88-.436l-10.961-65.732c-.036-.214-.115-.269-.177-.289-.08-.024-.204-.008-.357.08a1.1 1.1 0 0 0-.357.333" clip-rule="evenodd"/><path fill="#4793CC" fill-rule="evenodd" d="M183.053 216.939a1.874 1.874 0 0 1 2.572-.645l58.177 34.848a1.875 1.875 0 1 1-1.927 3.217l-58.177-34.848a1.875 1.875 0 0 1-.645-2.572m20.771-11.823a1.874 1.874 0 0 1 2.572-.645l58.178 34.848a1.875 1.875 0 0 1-1.927 3.217l-58.178-34.848a1.876 1.876 0 0 1-.645-2.572" clip-rule="evenodd"/><path fill="#AADBFF" d="m221.865 187.231-50.556 29.189v14.684l50.556-29.188z"/><path fill="#82C2F1" d="m171.375 231.065 50.556 29.189 50.49-29.15-50.557-29.189z"/><path fill="#D3EDFF" fill-rule="evenodd" d="M182.571 222.923a5 5 0 0 0-.062.815c0 2.789 1.958 6.18 4.374 7.575l19.407 11.205c2.415 1.394 4.373.264 4.373-2.526q0-.434-.061-.885l11.263 6.502v14.685l-50.557-29.189v-14.684z" clip-rule="evenodd"/><path fill="#AADBFF" d="m221.865 187.231 50.556 29.189v14.684l-50.556-29.188z"/><path fill="#AADBFF" d="m272.421 216.42-50.556 29.189v14.684l50.556-29.189z"/><path fill="#4793CC" fill-rule="evenodd" d="M186.49 186.268a1.875 1.875 0 0 1 2.572-.645l58.178 34.848a1.876 1.876 0 0 1-1.927 3.217l-58.178-34.848a1.875 1.875 0 0 1-.645-2.572m13.742-5.66a1.875 1.875 0 0 1 2.572-.645l58.178 34.848a1.875 1.875 0 0 1-1.927 3.217l-58.178-34.848a1.875 1.875 0 0 1-.645-2.572" clip-rule="evenodd"/><path fill="#AADBFF" d="m221.865 158.042-50.556 29.189v14.684l50.556-29.189z"/><path fill="#82C2F1" d="m171.375 201.876 50.556 29.189 50.49-29.151-50.557-29.188z"/><path fill="#D3EDFF" fill-rule="evenodd" d="M182.571 193.733a5 5 0 0 0-.062.815c0 2.789 1.958 6.181 4.374 7.575l19.407 11.205c2.415 1.394 4.373.264 4.373-2.525q0-.436-.061-.886l11.263 6.502v14.685l-50.557-29.189v-14.684z" clip-rule="evenodd"/><path fill="#AADBFF" d="m221.865 158.042 50.556 29.189v14.684l-50.556-29.189z"/><path fill="#AADBFF" d="m272.421 187.231-50.556 29.188v14.685l50.556-29.189z"/><path fill="#4793CC" fill-rule="evenodd" d="M253.472 189.155a1.1 1.1 0 0 0-.176.494l-10.743 78.254c-.152 1.108-.992 2.278-1.875 2.612-.884.335-1.477-.292-1.325-1.401l10.743-78.254c.72-5.251 6.73-8.733 7.465-4.325l10.961 65.732c.156.93-.435 2.243-1.318 2.932s-1.725.494-1.88-.436l-10.961-65.732c-.036-.215-.116-.269-.178-.289-.079-.025-.204-.008-.356.08a1.1 1.1 0 0 0-.357.333" clip-rule="evenodd"/></g><defs><clipPath id="a"><path fill="#fff" d="M0 0h300v300H0z"/></clipPath><clipPath id="b"><rect width="250" height="250" x="25.281" y="25" fill="#fff" rx="125"/></clipPath></defs></svg>