<svg xmlns="http://www.w3.org/2000/svg" width="240" height="240" fill="none" class="persona-ilustration" viewBox="0 0 240 240"><g clip-path="url(#a)"><g clip-path="url(#b)"><g clip-path="url(#c)"><rect width="200" height="200" x="20.002" y="20" fill="#D3EDFF" rx="100"/><path fill="#EFFAFF" d="m99.652 190.975 19.13-66.391c-32.51-9.374-76.386 42.325-78.397 49.305"/><path fill="#D0F3FF" d="m99.61 190.962 19.131-66.392c32.511 9.373 42.142 76.481 40.134 83.47"/><mask id="d" width="47" height="125" x="30" y="38" maskUnits="userSpaceOnUse" style="mask-type:alpha"><path fill="#FFB26F" d="M71.392 39.295c-3.078-.886-5.861-.601-6.218.634l-34.34 119.158 11.138 3.212 34.34-119.157c.357-1.236-1.851-2.96-4.92-3.848"/></mask><g mask="url(#d)"><path fill="#FFB26F" d="M71.392 39.295c-3.078-.886-5.861-.601-6.218.634l-34.34 119.158 11.138 3.212 34.34-119.157c.357-1.236-1.851-2.96-4.92-3.848"/><path fill="#FFC79D" d="M67.115 35.826c-3.078-.885-5.86-.601-6.217.634l-34.34 119.158 11.137 3.213 34.34-119.158c.357-1.236-1.85-2.96-4.92-3.847"/></g><mask id="e" width="47" height="124" x="163" y="77" maskUnits="userSpaceOnUse" style="mask-type:alpha"><path fill="#FF8D18" d="M204.271 77.588c-3.078-.885-5.861-.6-6.217.635L163.713 197.38l11.138 3.213 34.341-119.158c.356-1.235-1.852-2.96-4.921-3.847"/></mask><g mask="url(#e)"><path fill="#FF8D18" d="M204.271 77.588c-3.078-.885-5.861-.6-6.217.635L163.713 197.38l11.138 3.213 34.341-119.158c.356-1.235-1.852-2.96-4.921-3.847"/><path fill="#FFB26F" d="M199.994 74.122c-3.078-.885-5.861-.601-6.217.634l-34.341 119.158 11.139 3.213 34.34-119.158c.357-1.236-1.852-2.96-4.921-3.847"/></g><path fill="#FFDCC5" d="M15.297 175.554s1.29-9.194 11.76-17.798c6.861-6.806 41.17-3.822 80.044 7.384l-4.737 16.423-4.737 16.423-.349 1.197-5.077 17.618c-44.98-12.962-79.699-31.587-76.915-41.253z"/><path fill="#FFB26F" d="m97.248 199.174-5.077 17.618c-44.98-12.962-79.7-31.587-76.916-41.253s42.087-6.953 87.068 6.009l-5.077 17.618z"/><path fill="#FFC79D" d="M179.239 222.799s3.8-8.472-.484-21.32c-2.187-9.411-32.83-25.148-71.693-36.347l-4.737 16.422-4.737 16.423-.348 1.197-5.077 17.618c44.98 12.962 84.283 15.676 87.067 6.01z"/><path fill="#FFB26F" d="m97.25 199.171-5.077 17.618c44.981 12.962 84.284 15.676 87.068 6.009s-31.935-28.291-76.916-41.253l-5.077 17.618z"/><path fill="#FFDCC5" d="M107.018 165.136s5.441 8.521-4.703 16.413z"/></g><path fill="#FFDCC5" d="M60.935 17.2s-3.8 8.473.483 21.32c2.187 9.411 32.83 25.148 71.693 36.348l4.737-16.423 4.737-16.423.348-1.197 5.077-17.618C103.022 10.247 63.718 7.534 60.935 17.2"/><path fill="#FFC79D" d="m137.84 58.444-4.737 16.423c-41.922-12.08-74.275-29.44-71.675-38.442 2.598-9.01 39.227-6.484 81.149 5.597z"/><path fill="#FFC79D" d="M224.868 64.448s-1.291 9.194-11.759 17.798c-6.862 6.806-41.171 3.822-80.045-7.384l4.737-16.423 4.737-16.423.349-1.197 5.077-17.618c44.98 12.962 79.699 31.587 76.915 41.254z"/><path fill="#FFB26F" d="m137.801 58.436-4.737 16.423c41.922 12.081 78.551 14.606 81.149 5.596s-29.764-26.367-71.675-38.442z"/><path fill="#FFDCC5" d="M147.961 23.192s3.924 8.565-5.423 18.823z"/><path fill="#D0F3FF" d="m136.845 61.759-19.131 66.392c32.511 9.373 76.387-42.325 78.398-49.306 2.017-6.99-23.085-20.448-55.596-29.822z"/><path fill="#EFFAFF" d="m130.779 114.039-13.034 14.122c-32.51-9.373-42.142-76.48-40.133-83.47 2.017-6.99 30.424-5.03 62.935 4.343l17.78 5.748-2.166 11.636c-5.768 26.08-21.338 42.014-25.392 47.615z"/><mask id="f" width="28" height="60" x="49" y="37" maskUnits="userSpaceOnUse" style="mask-type:alpha"><path fill="#FFB26F" d="M71.716 38.173c-3.078-.886-5.86-.601-6.217.634l-15.635 54.59 11.139 3.213 15.634-54.59c.357-1.236-1.851-2.96-4.92-3.847"/></mask><g mask="url(#f)"><path fill="#FFB26F" d="M71.716 38.173c-3.078-.886-5.86-.601-6.217.634l-15.635 54.59 11.139 3.213 15.634-54.59c.357-1.236-1.851-2.96-4.92-3.847"/><path fill="#FFC79D" d="M67.438 34.702c-3.078-.885-5.86-.6-6.217.635l-34.34 119.158 11.138 3.212 34.34-119.158c.357-1.235-1.851-2.96-4.92-3.847"/></g><mask id="g" width="28" height="60" x="182" y="76" maskUnits="userSpaceOnUse" style="mask-type:alpha"><path fill="#FF8D18" d="M204.618 76.73c-3.078-.886-5.861-.601-6.217.634l-15.635 54.59 11.138 3.212 15.635-54.59c.357-1.235-1.851-2.959-4.921-3.846"/></mask><g mask="url(#g)"><path fill="#FF8D18" d="M204.618 76.73c-3.078-.886-5.861-.601-6.217.634l-15.635 54.59 11.138 3.212 15.635-54.59c.357-1.235-1.851-2.959-4.921-3.846"/><path fill="#FFB26F" d="M200.34 73.26c-3.078-.885-5.86-.6-6.217.635l-34.34 119.158 11.138 3.213 34.34-119.158c.357-1.236-1.851-2.96-4.921-3.847"/></g><mask id="h" width="24" height="24" x="43" y="85" maskUnits="userSpaceOnUse" style="mask-type:alpha"><path fill="#FFC79D" d="M57.85 107.884c6.143-1.646 9.79-7.962 8.143-14.106s-7.961-9.79-14.106-8.144-9.79 7.962-8.144 14.106 7.962 9.79 14.106 8.144"/></mask><g mask="url(#h)"><path fill="#FFC79D" d="M57.85 107.884c6.143-1.646 9.79-7.962 8.143-14.106s-7.961-9.79-14.106-8.144-9.79 7.962-8.144 14.106 7.962 9.79 14.106 8.144"/><path fill="#FFDCC5" d="M50.655 103.381c6.685-1.791 10.652-8.662 8.861-15.347s-8.662-10.652-15.347-8.861-10.652 8.662-8.861 15.347 8.662 10.653 15.347 8.861"/></g><mask id="i" width="24" height="24" x="176" y="123" maskUnits="userSpaceOnUse" style="mask-type:alpha"><path fill="#FFC79D" d="M190.65 146.282c6.144-1.646 9.79-7.961 8.144-14.106-1.647-6.144-7.962-9.79-14.106-8.144-6.145 1.647-9.791 7.962-8.145 14.106s7.962 9.791 14.107 8.144"/></mask><g mask="url(#i)"><path fill="#FFC79D" d="M190.65 146.282c6.144-1.646 9.79-7.961 8.144-14.106-1.647-6.144-7.962-9.79-14.106-8.144-6.145 1.647-9.791 7.962-8.145 14.106s7.962 9.791 14.107 8.144"/><path fill="#FFDCC5" d="M183.455 141.78c6.685-1.791 10.652-8.662 8.861-15.347s-8.663-10.653-15.348-8.861c-6.684 1.791-10.652 8.662-8.86 15.347s8.662 10.652 15.347 8.861"/></g><mask id="j" width="105" height="112" x="69" y="66" maskUnits="userSpaceOnUse" style="mask-type:alpha"><path fill="#DDAC8E" fill-rule="evenodd" d="M90.049 68.104s9.237-6.447 44.007 3.353l.019.004c34.662 10.208 39.042 20.579 39.042 20.579-24.204 21.369-36.4 25.769-43.304 28.26-3.932 1.418-6.148 2.218-7.889 5.179-2.122 3.626-2.822 8.745-3.017 12.542a10.98 10.98 0 0 0 3.205 8.351l7.69 7.665s6.881 7.882 13.439 23.743c-10.548-4.452-22.865-8.809-36.141-12.637v-.002c-13.295-3.833-26.057-6.704-37.37-8.55 13.99-9.938 24.004-12.947 24.004-12.947l10.586-2.393a10.97 10.97 0 0 0 7.157-5.364c1.85-3.328 3.992-8.027 4.115-12.231.101-3.43-1.349-5.285-3.921-8.575-4.519-5.783-12.502-15.998-21.622-46.977" clip-rule="evenodd"/></mask><g mask="url(#j)"><path fill="#DDAC8E" d="M90.05 68.105s9.237-6.447 44.006 3.353l.019.004c34.662 10.208 39.042 20.578 39.042 20.578-24.204 21.37-36.4 25.77-43.304 28.261-3.932 1.418-6.148 2.218-7.889 5.179-2.122 3.626-2.822 8.744-3.017 12.542a10.97 10.97 0 0 0 3.206 8.351l7.69 7.665s6.88 7.881 13.438 23.742c-10.549-4.453-22.865-8.81-36.141-12.637l.001-.003c-13.296-3.832-26.057-6.703-37.37-8.549 13.99-9.937 24.003-12.946 24.003-12.946l10.586-2.393a10.97 10.97 0 0 0 7.157-5.365c1.85-3.327 3.992-8.026 4.115-12.23.101-3.43-1.349-5.285-3.921-8.575-4.519-5.783-12.502-15.998-21.622-46.977"/><path fill="#FFE8CA" d="m130.783 114.04-8.974 7.445c-3.618 3.918-5.111 9.239-6.038 14.49-3.137 17.767 26.828 45.763 15.989 51.029-2.882 1.396-72.328-17.821-74.604-20.341C37.388 144.819 75.987 50.367 77.624 44.69c2.017-6.99 30.424-5.03 62.936 4.343l17.779 5.748-2.166 11.636c-5.767 26.08-21.338 42.014-25.392 47.614z"/></g></g></g><defs><clipPath id="a"><path fill="#fff" d="M0 0h240v240H0z"/></clipPath><clipPath id="b"><path fill="#fff" d="M0 0h240v240H0z"/></clipPath><clipPath id="c"><rect width="200" height="200" x="20.002" y="20" fill="#fff" rx="100"/></clipPath></defs></svg>