<svg xmlns="http://www.w3.org/2000/svg" width="150" height="150" fill="none" class="persona-ilustration" viewBox="0 0 150 150"><g clip-path="url(#a)"><g clip-path="url(#b)"><rect width="125.006" height="125.006" x="12.497" y="12.497" fill="#D3EDFF" rx="62.503"/><mask id="c" width="136" height="49" x="-39" y="102" maskUnits="userSpaceOnUse" style="mask-type:alpha"><path fill="#6ABF92" d="M29.104 102.053c-16.603 0-36.448 2.334-40.822 3.492s-9.768 3.751-13.85 10.419c-4.083 6.668-10.45 25.469-13.122 34.036H96.897c-2.673-8.567-9.039-27.368-13.121-34.036s-9.477-9.261-13.85-10.419c-4.374-1.158-24.22-3.492-40.822-3.492"/></mask><g mask="url(#c)"><path fill="#8FC7B8" d="M29.104 102.053c-16.603 0-36.448 2.334-40.822 3.492s-9.768 3.751-13.85 10.419c-4.083 6.668-10.45 25.469-13.122 34.036H96.897c-2.673-8.567-9.039-27.368-13.121-34.036s-9.477-9.261-13.85-10.419c-4.374-1.158-24.22-3.492-40.822-3.492"/><path fill="#498F79" d="M10.756 105.798c0 12.827 11.74 23.225 26.222 23.225 14.481 0 26.221-10.398 26.221-23.225 0-12.826-11.74-23.224-26.221-23.224s-26.222 10.398-26.222 23.224"/><path fill="#3D7360" fill-rule="evenodd" d="M14.096 104.3c0-11.413 10.246-20.602 22.8-20.602 12.556 0 22.802 9.189 22.802 20.602s-10.246 20.603-22.801 20.603-22.801-9.189-22.801-20.603m22.8-19.853c-12.215 0-22.051 8.924-22.051 19.853s9.836 19.854 22.052 19.854 22.052-8.924 22.052-19.854-9.836-19.853-22.052-19.853" clip-rule="evenodd"/><path fill="#F29B7C" d="M55.999 104.3c0 9.517-8.553 17.231-19.104 17.231S17.79 113.817 17.79 104.3c0-9.516 8.553-17.231 19.104-17.231s19.104 7.715 19.104 17.231"/></g><path fill="url(#d)" d="M124.612 20.917 34.513 24.05S16.948 38.58 21.155 52.595s4.353 36.378 36.072 45.665c4.729 7.991-26.016 39.147-20.314 42.369 19.37 10.948 45.065.494 50.785 0 4.935-.426 36.222-99.546 36.222-99.546l.701-20.166z" opacity=".25"/><path fill="#FEE283" d="M135.627 30.713c0 9.275-7.519 16.795-16.795 16.795-9.275 0-16.794-7.52-16.794-16.795s7.519-16.795 16.794-16.795 16.795 7.52 16.795 16.795"/></g><path fill="#F29B7C" d="m20.259 60.865-.802 43.815h30.146l.637-40.663z"/><path fill="#FFC7B6" d="M11.197 40.228s.242 4.379.592 12.077c.45 9.818 5.213-2.41 7.132 13.83s-1.199 8.902 12.414 20.671c8.416 5.197 17.65 11.36 24.69 11.878 1.676.125 3.227-.075 4.612-.676 9.075-3.945 14.45-12.271 14.867-17.493.817-10.234 1.036-25.232.67-33.615-.818-18.633-7.733-20.936-14.464-25.006s-46.042-9.684-50.505 18.35z"/><path fill="#F29B7C" d="M11.948 50.029s3.803.292 4.57 2.294l.776 2.002-5.346-3.02z"/><path fill="#422A24" d="M11.999 57.844s-.593-7.365 2.41-6.89 6.214 2.778 6.581 6.982c.184 2.144.309 3.595.375 4.496a1.61 1.61 0 0 0 1.335 1.46l.984.175a.975.975 0 0 0 1.143-1.051c-.409-4.571-1.76-17.233-1.351-17.641.483-.484 4.587-1 4.587-1s.45-.707 0-5.27c35.034-15.175 47.525 1.396 47.525 1.396s-1.466-10.207-6.504-16.571-18.191-12.528-32.012-9.617C24.11 17.04 14.025 25.014 10.547 36.892s-.659 19.543.184 21.82c.842 2.277 1.276-.884 1.276-.884z"/><path fill="#A36654" fill-rule="evenodd" d="m21.095 77.504.001.002.007.007.03.029.119.118c.106.104.265.26.474.459.417.4 1.035.978 1.829 1.69a103 103 0 0 0 6.696 5.501c5.638 4.25 13.323 9.132 21.589 11.76a.834.834 0 0 1-.506 1.59c-8.521-2.71-16.38-7.715-22.087-12.017a105 105 0 0 1-6.805-5.592 80 80 0 0 1-2.36-2.202l-.127-.126-.033-.033-.01-.009-.002-.002.592-.588-.591.588a.834.834 0 1 1 1.184-1.175" clip-rule="evenodd"/><path fill="#411917" d="M49.014 57.809c1.31.024 2.398-1.375 2.43-3.125s-1.003-3.19-2.313-3.213-2.398 1.375-2.43 3.125 1.003 3.189 2.313 3.213"/><path fill="#411917" fill-rule="evenodd" d="M56.064 53.943s0 .002-.772.318za.834.834 0 0 1-1.539.644l-.006-.013a2.6 2.6 0 0 0-.343-.484c-.285-.32-.78-.743-1.589-1.064-1.616-.643-4.63-.933-9.973 1.087a.834.834 0 0 1-.59-1.56c5.562-2.103 9.035-1.93 11.18-1.078 1.07.426 1.774 1.008 2.218 1.505.22.248.374.472.476.642a3 3 0 0 1 .149.28l.01.025.004.01.002.003z" clip-rule="evenodd"/><path fill="#422A24" d="M41.587 47.852s5.03-2.094 8.85-1.393c2.644.484 5.913 2.694 5.913 2.694s.96.175 0-2.377c-.959-2.553-7.073-2.661-7.073-2.661s-3.62 0-6.848 1.693c-1.343.71-1.693 2.094-1.693 2.094s.058.567.85-.059z"/><path fill="#411917" d="M66.68 58.218c-1.311.006-2.38-1.407-2.39-3.158-.008-1.75 1.046-3.175 2.357-3.182 1.31-.006 2.38 1.407 2.388 3.158.01 1.75-1.045 3.175-2.356 3.182"/><path fill="#411917" fill-rule="evenodd" d="m63.099 54.69-.001.002-.002.001.002-.001.018-.02q.03-.031.101-.098c.096-.089.249-.22.46-.368a6.4 6.4 0 0 1 1.962-.912c1.761-.491 4.576-.551 8.572 1.526a.834.834 0 0 0 .77-1.48c-4.319-2.244-7.567-2.273-9.79-1.653a8 8 0 0 0-2.475 1.155 6 6 0 0 0-.632.507 4 4 0 0 0-.217.217l-.016.017-.006.006-.002.003v.001c-.001 0-.002.001.628.548l-.63-.547a.834.834 0 0 0 1.258 1.096" clip-rule="evenodd"/><path fill="#422A24" d="M75.216 48.725s-4.544-2.093-7.996-1.393c-2.39.484-5.344 2.694-5.344 2.694s-.866.175 0-2.377c.867-2.552 6.391-2.66 6.391-2.66s3.271 0 6.188 1.693c1.213.709 1.53 2.093 1.53 2.093s-.053.567-.77-.058z"/><path fill="#411917" fill-rule="evenodd" d="m60.497 60.499.004.009.016.031a26 26 0 0 0 .322.62c.226.428.56 1.04.99 1.776a53 53 0 0 0 3.566 5.363c.361.414.608.949.693 1.494.085.556.01 1.209-.403 1.745-.834 1.082-2.35 2.109-5.154 2.109a.834.834 0 1 1 0-1.669c2.33 0 3.34-.82 3.833-1.458.06-.078.112-.23.075-.473a1.34 1.34 0 0 0-.31-.662l-.041-.05a54 54 0 0 1-3.701-5.56 53 53 0 0 1-1.292-2.35l-.07-.138-.018-.037-.005-.01-.002-.003.748-.37-.747.37a.834.834 0 1 1 1.496-.737" clip-rule="evenodd"/><path fill="#FFC7B6" d="M65.135 80.59s-5.753 5.055-14.894.443z"/><path fill="#411917" fill-rule="evenodd" d="M64.584 79.963a.834.834 0 0 1 1.1 1.254l-.55-.626.55.627h-.001l-.002.003-.007.005-.019.016a5 5 0 0 1-.29.228c-.197.145-.481.34-.85.557-.735.433-1.81.954-3.185 1.32-2.77.738-6.704.833-11.465-1.569a.834.834 0 0 1 .751-1.49c4.38 2.21 7.892 2.084 10.285 1.447 1.205-.32 2.14-.775 2.768-1.145a8 8 0 0 0 .874-.592l.036-.03z" clip-rule="evenodd"/><path fill="#FFC7B6" d="M17.296 54.316s-9.31-8.008-10.585-.226c-1.276 7.79 3.736 22.07 7.899 19.051 4.162-3.02 4.312-7.006 4.312-7.006z"/><path fill="#F29B7C" d="M10.08 63.524s.51 11.427 0-6.106c-.116-4.104 3.529-2.727 3.287-1.827-2.67 9.834-.567 11.586-.567 11.586"/><path fill="#F29B7C" fill-rule="evenodd" d="M14.019 67.011c.407-.432.879-1.284 1.327-2.776a.834.834 0 0 1 1.598.48c-.476 1.583-1.04 2.728-1.71 3.44-.343.364-.734.636-1.175.775a2.2 2.2 0 0 1-1.321-.004c-.806-.252-1.466-.92-1.978-1.664-.528-.767-.98-1.731-1.328-2.762-.691-2.046-1.032-4.518-.654-6.486.19-.987.576-1.93 1.277-2.603.728-.7 1.709-1.024 2.885-.908a.834.834 0 1 1-.163 1.66c-.753-.074-1.232.13-1.566.451-.363.348-.642.92-.795 1.715-.306 1.597-.036 3.764.597 5.637.313.928.703 1.743 1.12 2.35.434.63.826.93 1.104 1.018a.5.5 0 0 0 .32.005c.109-.034.266-.12.462-.328" clip-rule="evenodd"/><path fill="#A36654" fill-rule="evenodd" d="m15.32 61.684-.831.073za.834.834 0 0 1-1.66.147m0 0-.002-.017-.01-.077a4 4 0 0 0-.365-1.183c-.156-.304-.35-.547-.584-.7-.216-.142-.518-.243-.98-.182a.834.834 0 0 1-.216-1.654c.837-.11 1.544.069 2.111.441.55.36.914.867 1.153 1.333.24.469.376.937.453 1.28a6 6 0 0 1 .096.554l.004.038.001.013v.006m-1.042.087.38-.742z" clip-rule="evenodd"/></g><defs><clipPath id="a"><path fill="#fff" d="M0 0h150v150H0z"/></clipPath><clipPath id="b"><rect width="125.006" height="125.006" x="12.497" y="12.497" fill="#fff" rx="62.503"/></clipPath><linearGradient id="d" x1="28.451" x2="123.369" y1="71.021" y2="24.378" gradientUnits="userSpaceOnUse"><stop stop-color="#fff" stop-opacity=".5"/><stop offset=".4" stop-color="#FFC79D"/><stop offset=".64" stop-color="#F8AD3C"/></linearGradient></defs></svg>