<svg xmlns="http://www.w3.org/2000/svg" width="240" height="240" fill="none" class="persona-ilustration" viewBox="0 0 240 240"><g clip-path="url(#a)"><g clip-path="url(#b)"><rect width="200" height="200" x="20.224" y="20" fill="#D3EDFF" rx="100"/><path fill="#82C2F1" d="m42.466 191.716 9.56 11.106s-12.573 11.515-21.013 3.076c-9.228-9.228 11.437-14.182 11.437-14.182zm4.259-2.397 10.758 10.253s26.123-9.559 28-19.119c1.877-9.559-3.66-12.399-7.35-12.982-5.175-.805-15.191.678-19.987 6.325s-6.83 8.882-7.351 10.759-4.101 4.779-4.101 4.779zm6.022-50.35s-12.13 9.923-5.253 14.513c6.878 4.591 14.134.568 18.33-7.256-7.256-4.196-13.077-7.257-13.077-7.257m2.854-3.816s16.138-27.496 29.704-24.64 10.506 12.209 10.506 12.209-5.726 12.62-13.756 14.323c-8.029 1.704-12.982 5.537-12.982 5.537l-13.472-7.445zm54.692 6.965 9.56 11.105s-12.573 11.516-21.012 3.076c-9.228-9.228 11.436-14.181 11.436-14.181zm4.26-2.398 10.758 10.254s26.123-9.56 28-19.119-3.66-12.399-7.351-12.983c-5.174-.804-15.191.679-19.987 6.326s-6.83 8.881-7.351 10.758-4.101 4.78-4.101 4.78zm11.032-53.565s-12.131 9.922-5.253 14.512c6.878 4.591 14.134.568 18.33-7.256-7.256-4.196-13.077-7.257-13.077-7.257m2.854-3.816s16.137-27.495 29.704-24.64 10.505 12.21 10.505 12.21-5.726 12.619-13.755 14.323c-8.029 1.703-12.983 5.536-12.983 5.536l-13.471-7.445zm54.96 2.307 9.559 11.106s-12.572 11.515-21.012 3.076c-9.228-9.228 11.437-14.182 11.437-14.182zm4.259-2.397L198.416 92.5s26.123-9.56 28-19.119c1.877-9.56-3.659-12.399-7.351-12.982-5.174-.805-15.191.678-19.986 6.325-4.796 5.648-6.831 8.882-7.351 10.759-.521 1.877-4.102 4.78-4.102 4.78z"/></g><path fill="#5141BA" d="M176.654 110.315c-2.15 20.7-18.53 35.09-39.82 35.09s-38.55-15.71-38.55-35.09c0-5.4.42-9.97 1.21-13.84-.26 1.66-.4 3.36-.4 5.08 0 19.38 17.26 35.09 38.55 35.09s38.55-15.71 38.55-35.09c0-2.91-.39-5.73-1.12-8.43 1.4 4.51 2 10.15 1.58 17.19"/><path fill="#A4A1E0" d="M175.074 93.125c-4.15-15.3-19.34-26.65-37.43-26.65-19.39 0-35.43 13.03-38.15 29.98v.02c-.26 1.66-.4 3.36-.4 5.08 0 19.38 17.26 35.09 38.55 35.09s38.55-15.71 38.55-35.09c0-2.91-.39-5.73-1.12-8.43m-5.11 9.91v.04c-.03.44-.06.89-.11 1.33l-.03.23c-.04.36-.08.72-.14 1.08-.09.6-.21 1.2-.34 1.78-.07.35-.16.69-.25 1.03-.04.13-.07.26-.11.39l-.03.09c-.1.38-.22.75-.34 1.12-.15.45-.31.9-.49 1.34-.17.44-.35.88-.55 1.31a28 28 0 0 1-3.12 5.27c-.13.19-.28.38-.42.56-.02.03-.04.05-.06.08-.16.21-.33.41-.5.61q-.345.42-.72.84c-.99 1.11-2.07 2.15-3.22 3.11-.23.19-.46.38-.69.55-.41.34-.84.66-1.27.96-.25.19-.5.36-.76.53-.46.32-.94.62-1.43.91-.31.19-.62.37-.94.54 0 .01-.03.02-.04.02-.44.25-.88.48-1.34.7-.42.21-.85.42-1.29.61-.03.02-.07.03-.1.04-.47.21-.95.41-1.44.59-.45.18-.92.35-1.38.5-.04.02-.08.03-.13.05-.91.3-1.83.56-2.77.78-.2.06-.4.1-.6.14-.37.09-.74.17-1.12.24-.03 0-.06.01-.09.01-.51.1-1.02.18-1.54.26h-.03c-.49.07-.99.13-1.48.17-.16.02-.32.03-.48.04-.36.04-.72.06-1.08.08-.1.01-.2.01-.31.01-.52.03-1.05.04-1.58.04-17.87 0-32.36-13.19-32.36-29.46 0-.47.01-.95.04-1.42.02-.46.06-.93.11-1.39 0-.07 0-.14.02-.2q.06-.585.15-1.17c.01-.02.01-.04.01-.06.07-.45.16-.9.26-1.34.17-.84.38-1.67.64-2.48.01-.01.01-.02.01-.03.38-1.22.85-2.42 1.39-3.57.02-.03.04-.06.05-.09a19 19 0 0 1 .55-1.08c.15-.28.3-.56.46-.83.07-.13.14-.25.22-.37.21-.35.43-.7.65-1.05.18-.27.35-.53.54-.79.31-.43.62-.86.95-1.27.22-.28.44-.56.68-.83.85-1 1.77-1.96 2.75-2.85.37-.33.74-.66 1.12-.98q1.155-.945 2.4-1.8c.4-.27.81-.54 1.23-.79.03-.03.07-.05.1-.07.37-.23.76-.45 1.15-.66.07-.05.13-.08.2-.11.3-.17.61-.34.92-.49 0 0 0-.01.01 0 .12-.07.25-.14.38-.19.38-.2.77-.38 1.16-.55.08-.04.16-.08.25-.11.89-.39 1.81-.75 2.74-1.06.08-.03.16-.05.23-.07.45-.16.91-.29 1.37-.42.43-.13.86-.24 1.3-.34.25-.07.49-.12.74-.17.23-.06.46-.11.7-.14.24-.06.48-.1.72-.14.26-.05.52-.09.78-.13.3-.05.59-.09.89-.12.13-.02.25-.04.38-.05.35-.04.71-.08 1.06-.11q.72-.06 1.44-.09c.53-.03 1.07-.04 1.61-.04 6.15 0 11.91 1.57 16.81 4.28 9.32 5.17 15.55 14.51 15.55 25.17 0 .5 0 .99-.04 1.48"/><path fill="#5141BA" d="M167.574 112.776c.39-1.81.59-3.68.59-5.59 0-16.26-14.49-29.45-32.36-29.45-13.51 0-25.09 7.54-29.93 18.24 2.86-13.6 16-23.87 31.77-23.87 17.87 0 32.36 13.19 32.36 29.45 0 3.98-.86 7.76-2.43 11.22"/><path fill="#EFEFEF" d="M168.164 107.185c0 1.91-.2 3.78-.59 5.59-4.85 10.7-16.42 18.24-29.93 18.24-17.87 0-32.36-13.19-32.36-29.46 0-1.91.2-3.78.59-5.58 4.84-10.7 16.42-18.24 29.93-18.24 17.87 0 32.36 13.19 32.36 29.45" opacity=".5"/><path fill="#EFEFEF" d="m171.107 125.846-6.34 7.99 10.215 8.105 6.34-7.99z"/><path fill="#EFEFEF" d="M170.724 132.048c1.75-2.206 2.026-4.902.616-6.021-1.411-1.119-3.973-.238-5.724 1.969s-2.027 4.902-.616 6.021c1.41 1.119 3.973.238 5.724-1.969"/><path fill="#FFC79D" d="M180.707 139.966c2.448-3.085 3.288-6.493 1.878-7.612-1.411-1.119-4.538.474-6.986 3.559s-3.288 6.493-1.878 7.612c1.411 1.119 4.538-.475 6.986-3.559"/><path fill="#FFC79D" d="m182.65 132.286-8.988 11.328 55.147 43.756 8.988-11.328z"/><path fill="#FF8D18" d="M235.897 183.795c2.476-3.12 3.339-6.556 1.929-7.675-1.411-1.119-4.561.503-7.036 3.623-2.476 3.119-3.339 6.556-1.929 7.675 1.411 1.119 4.561-.503 7.036-3.623"/></g><defs><clipPath id="a"><path fill="#fff" d="M0 0h240v240H0z"/></clipPath><clipPath id="b"><rect width="200" height="200" x="20.224" y="20" fill="#fff" rx="100"/></clipPath></defs></svg>