<svg xmlns="http://www.w3.org/2000/svg" width="150" height="150" fill="none" class="persona-ilustration" viewBox="0 0 150 150"><g clip-path="url(#a)"><g clip-path="url(#b)"><rect width="125" height="125" x="12.5" y="12.5" fill="#D3EDFF" rx="62.5"/><path fill="#FFC79D" d="m46.249 121.106 29.168 15.525-16.226 30.485-29.168-15.525z"/><path fill="#FFC79D" d="m51.85 93.036-5.976 31.175 24.45 13.624c4.493 2.503 19.872-14.735 22.902-28.305L58.625 90.25z"/><path fill="#FFB26F" d="m67.687 113.538-11.89 8.795c6.792 3.785 12.922 4.544 14.215 4.689 7.027.793 31.214-3.179 23.558-29.878l-18.253 9.928z"/><path fill="#FFB26F" fill-rule="evenodd" d="M47.391 125.209a.643.643 0 0 1 .903-.116c2.142 1.654 5.92 4.174 10.256 6.326 4.347 2.158 9.191 3.914 13.483 4.106a.644.644 0 0 1-.057 1.285c-4.557-.204-9.592-2.052-13.998-4.239-4.416-2.192-8.266-4.758-10.47-6.46a.643.643 0 0 1-.117-.902" clip-rule="evenodd"/><path fill="#353535" d="M50.805 32.19a3.215 3.215 0 0 1 3.215-3.216h42.794a3.216 3.216 0 0 1 3.216 3.216v88.262a3.216 3.216 0 0 1-3.216 3.215H54.02a3.216 3.216 0 0 1-3.215-3.215z"/><path fill="#F8F8F8" d="M53.242 34.273a3.215 3.215 0 0 1 3.215-3.216h38.207a3.215 3.215 0 0 1 3.216 3.216v83.558a3.216 3.216 0 0 1-3.216 3.215H56.457a3.216 3.216 0 0 1-3.215-3.215z"/><path fill="#E4E4E4" d="M56.254 39.663c0-.78.633-1.413 1.413-1.413h35.787c.78 0 1.413.632 1.413 1.413v5.804c0 .78-.632 1.414-1.413 1.414H57.667c-.78 0-1.413-.633-1.413-1.414z"/><path fill="#EFEFEF" d="M56.254 86.846c0-.78.633-1.413 1.413-1.413h35.787c.78 0 1.413.633 1.413 1.413v21.394c0 .781-.632 1.414-1.413 1.414H57.667c-.78 0-1.413-.633-1.413-1.414zm0-35.609c0-.78.633-1.413 1.413-1.413h35.787c.78 0 1.413.632 1.413 1.413v2.47c0 .78-.632 1.413-1.413 1.413H57.667c-.78 0-1.413-.633-1.413-1.414zm8.562 62.772c0-.78.633-1.413 1.413-1.413h18.663c.78 0 1.413.633 1.413 1.413v2.47c0 .781-.632 1.413-1.413 1.413H66.23c-.78 0-1.413-.632-1.413-1.413zm-8.562-52.375c0-.78.633-1.413 1.413-1.413h5.736c.78 0 1.413.632 1.413 1.413v5.735c0 .78-.633 1.413-1.413 1.413h-5.736c-.78 0-1.413-.632-1.413-1.413zm0 11.55c0-.781.633-1.414 1.413-1.414h5.736c.78 0 1.413.633 1.413 1.413v5.736c0 .78-.633 1.413-1.413 1.413h-5.736c-.78 0-1.413-.632-1.413-1.413zm10.017-11.55c0-.78.633-1.413 1.413-1.413h5.736c.78 0 1.413.632 1.413 1.413v5.735c0 .78-.633 1.413-1.413 1.413h-5.736c-.78 0-1.413-.632-1.413-1.413zm0 11.55c0-.781.633-1.414 1.413-1.414h5.736c.78 0 1.413.633 1.413 1.413v5.736c0 .78-.633 1.413-1.413 1.413h-5.736c-.78 0-1.413-.632-1.413-1.413zm10.017-11.55c0-.78.633-1.413 1.413-1.413h5.736c.78 0 1.413.632 1.413 1.413v5.735c0 .78-.633 1.413-1.413 1.413H77.7c-.78 0-1.413-.632-1.413-1.413zm0 11.55c0-.781.633-1.414 1.413-1.414h5.736c.78 0 1.413.633 1.413 1.413v5.736c0 .78-.633 1.413-1.413 1.413H77.7c-.78 0-1.413-.632-1.413-1.413zm10.018-11.55c0-.78.632-1.413 1.413-1.413h5.735c.78 0 1.414.632 1.414 1.413v5.735c0 .78-.633 1.413-1.414 1.413H87.72c-.78 0-1.413-.632-1.413-1.413zm0 11.55c0-.781.632-1.414 1.413-1.414h5.735c.78 0 1.414.633 1.414 1.413v5.736c0 .78-.633 1.413-1.414 1.413H87.72c-.78 0-1.413-.632-1.413-1.413zm-24.756 42.06a2.649 2.649 0 1 1-5.297 0 2.649 2.649 0 0 1 5.297 0m33.317 0a2.649 2.649 0 1 1-5.297 0 2.649 2.649 0 0 1 5.297 0"/><path fill="#353535" d="M79.063 30.818a3.493 3.493 0 1 1-6.987 0z"/><path fill="#FFC79D" d="m46.263 122.406 7.49 2.52s7.113-.169 7.998-5.533c1.587-9.622-.213-20.175-6.897-23.678-6.663-5.176-2.85-20.594-4.049-24.303-1.199-3.71-4.246-2.736-6.965 0-2.719 2.735-2.277 10.926-2.693 18.905s1.2 21.198 5.116 32.089m59.24-35.333c1.227 5.097-1.312 5.322-4.335 6.05s-5.984-.802-6.613-3.416 1.312-5.322 4.335-6.05 5.552-.993 6.613 3.416"/><path fill="#FFC79D" d="M105.607 96.12c1.277 4.642-1.151 4.954-4.034 5.748-2.883.793-5.752-.493-6.407-2.874-.655-2.38 1.151-4.953 4.034-5.746s5.302-1.142 6.407 2.873"/><path fill="#FFC79D" d="M105.678 105.701c1.201 4.874-1.145 5.083-3.933 5.77-2.787.688-5.547-.782-6.163-3.282s1.144-5.083 3.932-5.77 5.124-.935 6.164 3.282"/></g><path fill="#375FE9" d="M26.51 51.523a3.54 3.54 0 0 1 3.541-3.542h36.553a3.54 3.54 0 0 1 3.542 3.542v36.552a3.54 3.54 0 0 1-3.542 3.542H30.052a3.54 3.54 0 0 1-3.542-3.542z"/><path fill="#F8F8F8" fill-rule="evenodd" d="M46.995 59.084a10.7 10.7 0 0 1 8.273 2.693.59.59 0 0 1-.79.877 9.52 9.52 0 0 0-11.124-1.176.59.59 0 0 1-.59-1.023 10.7 10.7 0 0 1 4.231-1.37m-6.713 4.214a.59.59 0 0 1 .13.824 9.52 9.52 0 0 0-1.782 6.507.59.59 0 0 1-1.175.112 10.7 10.7 0 0 1 2.002-7.314.59.59 0 0 1 .825-.13m16.82 1.778a.59.59 0 0 1 .779.3c.593 1.334 1.219 3.484 1.219 5.014a.59.59 0 0 1-1.18 0c0-1.303-.56-3.282-1.118-4.534a.59.59 0 0 1 .3-.78" clip-rule="evenodd"/><path fill="#F8F8F8" fill-rule="evenodd" d="M47.905 62.106a.59.59 0 0 1-.526.648 7 7 0 0 0-4.94 2.846.59.59 0 1 1-.953-.695 8.2 8.2 0 0 1 5.77-3.325.59.59 0 0 1 .648.526m1.992.21a.59.59 0 0 1 .745-.378 8.2 8.2 0 0 1 2.947 1.703c.402.363.733.68 1.05 1.1.314.418.6.919.944 1.641l.015.035c.526 1.321.897 2.527.994 4.151.095 1.608-.08 3.598-.6 6.493a.59.59 0 0 1-1.162-.208c.513-2.86.67-4.744.583-6.215-.086-1.447-.41-2.52-.904-3.766-.324-.678-.569-1.095-.814-1.421-.246-.327-.508-.582-.896-.933a7 7 0 0 0-2.523-1.458.59.59 0 0 1-.379-.744m-9.243 5.64a.59.59 0 0 1 .59.64c0 .573 0 1.757-.173 2.984-.174 1.226-.542 2.66-1.405 3.51a.59.59 0 1 1-.828-.84c.56-.552.892-1.627 1.064-2.836.162-1.142.162-2.257.162-2.827v-.042a.59.59 0 0 1 .59-.59" clip-rule="evenodd"/><path fill="#F8F8F8" fill-rule="evenodd" d="M47.516 64.074a5.68 5.68 0 0 1 4.393 1.43.59.59 0 0 1-.79.877 4.5 4.5 0 0 0-6.651.694 4.5 4.5 0 0 0-.763 1.708 1 1 0 0 0-.025.29c.002.036.005.066.01.107l.008.081q.013.121.02.3v.035c.011.284.063 1.708-.273 3.322a.59.59 0 1 1-1.156-.24 13 13 0 0 0 .25-3.048l-.002-.036a3 3 0 0 0-.018-.251c-.005-.05-.011-.104-.017-.185a2.1 2.1 0 0 1 .048-.622 5.68 5.68 0 0 1 4.966-4.462m5.351 3.755a.59.59 0 0 1 .73.405c.217.757.406 1.847.423 3.18a.59.59 0 0 1-1.18.016c-.017-1.235-.192-2.22-.378-2.87a.59.59 0 0 1 .405-.73m.46 5.666a.59.59 0 0 1 .492.675c-.26 1.657-.799 3.519-1.776 5.484a.59.59 0 1 1-1.057-.526c.921-1.853 1.425-3.597 1.667-5.141a.59.59 0 0 1 .674-.492m-10.953 1.017a.59.59 0 0 1 .256.794c-.35.687-.82 1.34-1.445 1.877a.59.59 0 1 1-.768-.897c.485-.416.866-.938 1.163-1.518a.59.59 0 0 1 .794-.256" clip-rule="evenodd"/><path fill="#F8F8F8" fill-rule="evenodd" d="M47.777 66.57a3.17 3.17 0 0 1 3.228 1.866c.225.506 1.541 5.036-2.162 11.685a.59.59 0 1 1-1.031-.574c1.764-3.168 2.31-5.787 2.406-7.634a10.4 10.4 0 0 0-.099-2.174 6 6 0 0 0-.125-.603 2 2 0 0 0-.068-.22 1.991 1.991 0 0 0-3.762.366l-.001.041v.299c.001.187.003.431-.001.717a21 21 0 0 1-.172 2.472c-.253 1.894-.88 4.235-2.477 5.884a.59.59 0 1 1-.848-.82c1.332-1.376 1.913-3.409 2.155-5.22.12-.895.153-1.713.161-2.332q.004-.411.001-.693v-.331c.001-.05.003-.15.022-.237a3.17 3.17 0 0 1 2.773-2.492" clip-rule="evenodd"/><path fill="#F8F8F8" fill-rule="evenodd" d="M48.06 69.295a.59.59 0 0 1 .698.459c.105.509.096 1.376.02 2.281a18 18 0 0 1-.47 2.857.59.59 0 0 1-1.142-.298c.21-.809.36-1.783.435-2.66.077-.896.068-1.615 0-1.942a.59.59 0 0 1 .46-.697m-1.012 7.495a.59.59 0 0 1 .288.783 17.6 17.6 0 0 1-1.476 2.599.59.59 0 1 1-.968-.675c.322-.463.863-1.32 1.372-2.42a.59.59 0 0 1 .784-.287M32.98 59.469a5.017 5.017 0 0 1 5.017-5.018h5.166a.59.59 0 0 1 0 1.181h-5.166a3.837 3.837 0 0 0-3.836 3.837v5.165a.59.59 0 0 1-1.181 0zm19.922-4.427a.59.59 0 0 1 .59-.59h5.166a5.017 5.017 0 0 1 5.017 5.017v5.165a.59.59 0 0 1-1.18 0v-5.165a3.837 3.837 0 0 0-3.837-3.837h-5.165a.59.59 0 0 1-.59-.59M33.57 74.374a.59.59 0 0 1 .59.59v5.165a3.837 3.837 0 0 0 3.837 3.837h5.166a.59.59 0 0 1 0 1.18h-5.166a5.017 5.017 0 0 1-5.017-5.017v-5.165a.59.59 0 0 1 .59-.59m29.515 0a.59.59 0 0 1 .59.59v5.165a5.017 5.017 0 0 1-5.017 5.017h-5.165a.59.59 0 0 1 0-1.18h5.165a3.837 3.837 0 0 0 3.837-3.837v-5.165a.59.59 0 0 1 .59-.59" clip-rule="evenodd"/><path fill="#375FE9" d="M79.854 51.6a3.54 3.54 0 0 1 3.542-3.542h36.552a3.54 3.54 0 0 1 3.542 3.541v36.553a3.54 3.54 0 0 1-3.542 3.542H83.396a3.54 3.54 0 0 1-3.542-3.542z"/><path fill="#fff" fill-rule="evenodd" d="M86.162 59.469a5.017 5.017 0 0 1 5.017-5.018h5.165a.59.59 0 0 1 0 1.181H91.18a3.837 3.837 0 0 0-3.837 3.837v5.165a.59.59 0 0 1-1.18 0zm19.922-4.427a.59.59 0 0 1 .59-.59h5.165a5.02 5.02 0 0 1 5.018 5.017v5.165a.59.59 0 0 1-1.181 0v-5.165a3.837 3.837 0 0 0-3.837-3.837h-5.165a.59.59 0 0 1-.59-.59M86.752 74.374a.59.59 0 0 1 .59.59v5.165a3.837 3.837 0 0 0 3.837 3.837h5.165a.59.59 0 0 1 0 1.18H91.18a5.017 5.017 0 0 1-5.017-5.017v-5.165a.59.59 0 0 1 .59-.59m29.514 0a.59.59 0 0 1 .591.59v5.165a5.02 5.02 0 0 1-5.018 5.017h-5.165a.59.59 0 0 1 0-1.18h5.165a3.837 3.837 0 0 0 3.837-3.837v-5.165a.59.59 0 0 1 .59-.59M97.663 63.223a.59.59 0 0 1 .59.59v2.692a.59.59 0 1 1-1.18 0v-2.692a.59.59 0 0 1 .59-.59m7.692 0a.59.59 0 0 1 .591.59v2.692a.59.59 0 0 1-1.181 0v-2.692a.59.59 0 0 1 .59-.59m2.193 10.064a.59.59 0 0 1 .256.795c-.645 1.257-2.751 3.782-6.104 3.782-1.675 0-3.102-.635-4.193-1.406-1.086-.768-1.868-1.692-2.268-2.333a.59.59 0 1 1 1.002-.624c.32.512.995 1.319 1.948 1.993.95.671 2.143 1.19 3.511 1.19 2.732 0 4.514-2.09 5.053-3.14a.59.59 0 0 1 .795-.257" clip-rule="evenodd"/></g><defs><clipPath id="a"><path fill="#fff" d="M0 0h150v150H0z"/></clipPath><clipPath id="b"><rect width="125" height="125" x="12.5" y="12.5" fill="#fff" rx="62.5"/></clipPath></defs></svg>