<svg xmlns="http://www.w3.org/2000/svg" width="300" height="300" fill="none" class="persona-ilustration" viewBox="0 0 300 300"><g clip-path="url(#hneX3GT7lZ_a)"><g clip-path="url(#hneX3GT7lZ_b)"><rect width="250" height="250" x="25" y="25" fill="#D3EDFF" rx="125"/><path fill="#82C2F1" d="M153.698 170.744v-6.484h132.805v6.484zM153.698 225.466v-6.484h132.805v6.484zM153.698 280.191v-6.484h132.805v6.484z"/><path fill="#AADBFF" d="M153.698 143.644h6.483v157.161h-6.483zM245.483 234.525h8.557v39.536h-8.557zM255.131 234.525h8.557v39.536h-8.557zM264.779 234.525h8.556v39.536h-8.556z"/><path fill="#82C2F1" d="m197.251 181.958 8.08-2.818 13.018 37.331-8.079 2.817z"/><path fill="#AADBFF" d="M167.964 179.446h8.556v39.536h-8.556zM177.727 179.446h8.556v39.536h-8.556zM187.489 179.446h8.556v39.536h-8.556z"/><path fill="#82C2F1" d="M237.228 197.363h34.021v21.619h-34.021z"/><path fill="#AADBFF" d="M233.754 197.363h40.969v6.099h-40.969zM211.789 252.78c5.035 3.352 7.965 12.225 8.801 16.242-3.403-1.881-10.873-6.536-13.523-10.107-3.313-4.463-1.572-10.325 4.722-6.135"/><path fill="#AADBFF" d="M224.315 250.51c2.019 5.701-.956 14.559-2.696 18.275-1.596-3.546-4.783-11.75-4.763-16.197.026-5.559 4.934-9.205 7.459-2.078"/><path fill="#AADBFF" d="M234.681 253.894c-.756 6.001-7.393 12.579-10.618 15.118.168-3.886 1.006-12.647 3.021-16.611 2.52-4.955 8.543-6.008 7.597 1.493"/><path fill="#AADBFF" d="M233.403 264.911c-.636 3.043-3.293 9.128-8.83 9.128h-7.357c-5.537 0-8.193-6.085-8.83-9.128zM190.491 244.174c-.442 9.955-2.286 29.864-6.13 29.865h-5.107c-3.843 0-5.688-19.91-6.129-29.865zM35 145h82.5v127.04H35z"/><path fill="#AADBFF" d="M41.548 151.088h69.404v35.824H41.548z"/><path fill="#82C2F1" fill-rule="evenodd" d="M108.452 153.588H44.048v30.824h64.404zm-66.904-2.5v35.824h69.404v-35.824z" clip-rule="evenodd"/><path fill="#AADBFF" d="M41.548 190.607h69.404v35.824H41.548z"/><path fill="#82C2F1" fill-rule="evenodd" d="M108.452 193.107H44.048v30.824h64.404zm-66.904-2.5v35.824h69.404v-35.824z" clip-rule="evenodd"/><path fill="#AADBFF" d="M41.548 230.129h69.404v35.823H41.548z"/><path fill="#82C2F1" fill-rule="evenodd" d="M108.452 232.629H44.048v30.823h64.404zm-66.904-2.5v35.823h69.404v-35.823z" clip-rule="evenodd"/><path fill="#82C2F1" d="M68.462 158.483c0-.915.742-1.657 1.658-1.657h12.26a1.657 1.657 0 1 1 0 3.314H70.12a1.657 1.657 0 0 1-1.658-1.657M68.462 197.511c0-.916.742-1.658 1.658-1.658h12.26a1.657 1.657 0 0 1 0 3.315H70.12a1.657 1.657 0 0 1-1.658-1.657M68.462 237.552c0-.916.742-1.658 1.658-1.658h12.26a1.657 1.657 0 0 1 0 3.315H70.12a1.657 1.657 0 0 1-1.658-1.657"/><path fill="#FFC79D" d="m99.138 240.696 51.6 27.464-28.705 53.928-51.599-27.464z"/><path fill="#FFC79D" d="m109.046 191.039-10.57 55.149 43.253 24.102c7.948 4.428 35.152-26.068 40.512-50.073l-61.21-34.106z"/><path fill="#FFB26F" d="m137.062 227.307-21.033 15.559c12.014 6.695 22.859 8.037 25.146 8.295 12.431 1.402 55.219-5.625 41.675-52.855l-32.289 17.563z"/><path fill="#FFB26F" fill-rule="evenodd" d="M101.16 247.953a1.137 1.137 0 0 1 1.595-.205c3.791 2.927 10.474 7.384 18.145 11.191 7.689 3.817 16.259 6.925 23.851 7.265a1.137 1.137 0 1 1-.101 2.273c-8.062-.361-16.968-3.631-24.762-7.5-7.813-3.878-14.623-8.416-18.523-11.428a1.137 1.137 0 0 1-.205-1.596" clip-rule="evenodd"/><path fill="#353535" d="M107.198 83.4a5.69 5.69 0 0 1 5.688-5.688h75.704a5.69 5.69 0 0 1 5.688 5.688v156.138a5.69 5.69 0 0 1-5.688 5.688h-75.704a5.69 5.69 0 0 1-5.688-5.688z"/><path fill="#F8F8F8" d="M111.508 87.085a5.69 5.69 0 0 1 5.689-5.688h67.589a5.69 5.69 0 0 1 5.688 5.688v147.816a5.69 5.69 0 0 1-5.688 5.689h-67.589a5.69 5.69 0 0 1-5.689-5.689z"/><path fill="#E4E4E4" d="M116.837 96.62a2.5 2.5 0 0 1 2.5-2.5h63.309a2.5 2.5 0 0 1 2.5 2.5v10.269a2.5 2.5 0 0 1-2.5 2.5h-63.309a2.5 2.5 0 0 1-2.5-2.5z"/><path fill="#EFEFEF" d="M116.837 180.089a2.5 2.5 0 0 1 2.5-2.5h63.309a2.5 2.5 0 0 1 2.5 2.5v37.847a2.5 2.5 0 0 1-2.5 2.5h-63.309a2.5 2.5 0 0 1-2.5-2.5zM116.837 117.095a2.5 2.5 0 0 1 2.5-2.5h63.309a2.5 2.5 0 0 1 2.5 2.5v4.369a2.5 2.5 0 0 1-2.5 2.5h-63.309a2.5 2.5 0 0 1-2.5-2.5zM131.983 228.142a2.5 2.5 0 0 1 2.5-2.5h33.016a2.5 2.5 0 0 1 2.5 2.5v4.369a2.5 2.5 0 0 1-2.5 2.5h-33.016a2.5 2.5 0 0 1-2.5-2.5zM116.837 135.487a2.5 2.5 0 0 1 2.5-2.5h10.147a2.5 2.5 0 0 1 2.5 2.5v10.147a2.5 2.5 0 0 1-2.5 2.5h-10.147a2.5 2.5 0 0 1-2.5-2.5zM116.837 155.919a2.5 2.5 0 0 1 2.5-2.5h10.147a2.5 2.5 0 0 1 2.5 2.5v10.147a2.5 2.5 0 0 1-2.5 2.5h-10.147a2.5 2.5 0 0 1-2.5-2.5zM134.558 135.487a2.5 2.5 0 0 1 2.5-2.5h10.146a2.5 2.5 0 0 1 2.5 2.5v10.147a2.5 2.5 0 0 1-2.5 2.5h-10.146a2.5 2.5 0 0 1-2.5-2.5zM134.558 155.919a2.5 2.5 0 0 1 2.5-2.5h10.146a2.5 2.5 0 0 1 2.5 2.5v10.147a2.5 2.5 0 0 1-2.5 2.5h-10.146a2.5 2.5 0 0 1-2.5-2.5zM152.278 135.487a2.5 2.5 0 0 1 2.5-2.5h10.147a2.5 2.5 0 0 1 2.5 2.5v10.147a2.5 2.5 0 0 1-2.5 2.5h-10.147a2.5 2.5 0 0 1-2.5-2.5zM152.278 155.919a2.5 2.5 0 0 1 2.5-2.5h10.147a2.5 2.5 0 0 1 2.5 2.5v10.147a2.5 2.5 0 0 1-2.5 2.5h-10.147a2.5 2.5 0 0 1-2.5-2.5zM169.999 135.487a2.5 2.5 0 0 1 2.5-2.5h10.146a2.5 2.5 0 0 1 2.5 2.5v10.147a2.5 2.5 0 0 1-2.5 2.5h-10.146a2.5 2.5 0 0 1-2.5-2.5zM169.999 155.919a2.5 2.5 0 0 1 2.5-2.5h10.146a2.5 2.5 0 0 1 2.5 2.5v10.147a2.5 2.5 0 0 1-2.5 2.5h-10.146a2.5 2.5 0 0 1-2.5-2.5zM126.206 230.327a4.684 4.684 0 1 1-9.368 0 4.684 4.684 0 0 1 9.368 0M185.145 230.327a4.684 4.684 0 1 1-9.368 0 4.684 4.684 0 0 1 9.368 0"/><path fill="#353535" d="M157.187 80.974a6.18 6.18 0 1 1-12.359 0h12.359"/><path fill="#FFC79D" d="m99.163 242.995 13.25 4.458s12.583-.299 14.149-9.788c2.808-17.022-.376-35.69-12.201-41.887-11.787-9.157-5.042-36.431-7.163-42.994-2.12-6.562-7.511-4.84-12.321 0s-4.027 19.33-4.764 33.445c-.736 14.115 2.121 37.5 9.05 56.766M203.961 180.49c2.17 9.016-2.321 9.415-7.669 10.702s-10.586-1.418-11.699-6.041 2.321-9.416 7.669-10.703 9.822-1.758 11.699 6.042"/><path fill="#FFC79D" d="M204.144 196.496c2.26 8.211-2.036 8.763-7.137 10.166s-10.175-.872-11.333-5.083c-1.159-4.211 2.036-8.762 7.136-10.166 5.101-1.404 9.379-2.02 11.334 5.083"/><path fill="#FFC79D" d="M204.269 213.443c2.126 8.623-2.024 8.993-6.956 10.209-4.931 1.215-9.813-1.384-10.903-5.806s2.024-8.993 6.956-10.209 9.064-1.653 10.903 5.806"/></g><rect width="77.193" height="77.193" x="64.22" y="111.335" fill="#375FE9" rx="6.265"/><path fill="#F8F8F8" fill-rule="evenodd" d="M100.46 130.978a18.92 18.92 0 0 1 14.635 4.764 1.044 1.044 0 0 1-1.398 1.551 16.84 16.84 0 0 0-19.678-2.081 1.045 1.045 0 0 1-1.043-1.809 18.9 18.9 0 0 1 7.484-2.425m-11.876 7.453c.466.34.569.993.23 1.459a16.84 16.84 0 0 0-3.151 11.51 1.045 1.045 0 0 1-2.08.198 18.92 18.92 0 0 1 3.542-12.937c.34-.467.993-.569 1.459-.23m29.754 3.147a1.044 1.044 0 0 1 1.379.529c1.051 2.361 2.157 6.164 2.157 8.87a1.044 1.044 0 0 1-2.089 0c0-2.304-.99-5.805-1.976-8.021a1.043 1.043 0 0 1 .529-1.378" clip-rule="evenodd"/><path fill="#F8F8F8" fill-rule="evenodd" d="M102.068 136.322a1.044 1.044 0 0 1-.931 1.147 12.41 12.41 0 0 0-8.737 5.034 1.044 1.044 0 0 1-1.688-1.229 14.5 14.5 0 0 1 10.209-5.882 1.045 1.045 0 0 1 1.147.93m3.525.373a1.044 1.044 0 0 1 1.316-.669 14.5 14.5 0 0 1 5.214 3.013c.712.641 1.297 1.202 1.857 1.945.556.74 1.062 1.625 1.671 2.904q.014.03.027.062c.931 2.337 1.587 4.47 1.757 7.343.169 2.844-.141 6.364-1.06 11.486a1.045 1.045 0 0 1-2.056-.369c.908-5.059 1.186-8.392 1.032-10.993-.152-2.561-.725-4.46-1.601-6.662-.572-1.2-1.005-1.938-1.439-2.515s-.898-1.03-1.586-1.649a12.4 12.4 0 0 0-4.462-2.58 1.044 1.044 0 0 1-.67-1.316m-16.352 9.975c.577 0 1.044.468 1.044 1.044v.09c0 1.013.001 3.109-.306 5.278-.308 2.169-.959 4.706-2.485 6.21a1.044 1.044 0 1 1-1.466-1.487c.99-.976 1.58-2.878 1.883-5.016.286-2.021.286-3.993.286-5.001v-.074c0-.576.467-1.044 1.044-1.044" clip-rule="evenodd"/><path fill="#F8F8F8" fill-rule="evenodd" d="M101.381 139.804a10.05 10.05 0 0 1 7.772 2.53 1.045 1.045 0 0 1-1.398 1.552 7.96 7.96 0 0 0-13.117 4.249 1.6 1.6 0 0 0-.043.514c.004.062.01.115.017.187l.015.145c.014.145.028.317.034.528l.002.065c.019.502.112 3.02-.484 5.876a1.044 1.044 0 1 1-2.044-.426c.542-2.602.458-4.907.44-5.39l-.001-.064c-.007-.209-.018-.317-.032-.445a8 8 0 0 1-.03-.327 3.7 3.7 0 0 1 .084-1.099 10.05 10.05 0 0 1 8.785-7.895m9.467 6.643a1.045 1.045 0 0 1 1.291.717c.383 1.338.717 3.267.748 5.625a1.044 1.044 0 1 1-2.088.028c-.029-2.184-.339-3.928-.668-5.078a1.044 1.044 0 0 1 .717-1.292m.813 10.023c.57.09.96.624.87 1.194-.459 2.933-1.413 6.225-3.142 9.701a1.044 1.044 0 1 1-1.87-.93c1.63-3.277 2.521-6.364 2.949-9.095a1.045 1.045 0 0 1 1.193-.87m-19.377 1.799c.514.263.717.892.454 1.406-.621 1.214-1.45 2.371-2.556 3.319a1.044 1.044 0 1 1-1.36-1.586c.86-.736 1.532-1.659 2.057-2.685a1.045 1.045 0 0 1 1.405-.454" clip-rule="evenodd"/><path fill="#F8F8F8" fill-rule="evenodd" d="M101.842 144.219a5.61 5.61 0 0 1 5.711 3.301c.398.895 2.726 8.909-3.824 20.672a1.044 1.044 0 1 1-1.825-1.016c3.121-5.604 4.086-10.238 4.257-13.504.085-1.636-.029-2.935-.175-3.847a11 11 0 0 0-.222-1.067c-.068-.256-.116-.379-.119-.389a3.52 3.52 0 0 0-2.129-1.918 3.53 3.53 0 0 0-2.851.297 3.53 3.53 0 0 0-1.676 2.269l-.002.073a20 20 0 0 0 0 .402v.127c.002.331.005.763-.002 1.267a37 37 0 0 1-.304 4.375c-.447 3.35-1.556 7.49-4.382 10.409a1.044 1.044 0 0 1-1.5-1.453c2.356-2.434 3.384-6.028 3.812-9.233.212-1.583.271-3.029.286-4.125.006-.483.003-.896.001-1.226v-.129a21 21 0 0 1 0-.451v-.006c.002-.088.005-.266.038-.419a5.6 5.6 0 0 1 2.687-3.69 5.6 5.6 0 0 1 2.219-.719" clip-rule="evenodd"/><path fill="#F8F8F8" fill-rule="evenodd" d="M102.345 149.039a1.044 1.044 0 0 1 1.233.813c.185.9.171 2.435.034 4.035-.14 1.637-.419 3.482-.83 5.054a1.044 1.044 0 1 1-2.02-.527c.373-1.431.637-3.154.769-4.704.135-1.587.121-2.858.001-3.437a1.046 1.046 0 0 1 .813-1.234m-1.793 13.259c.524.242.752.863.51 1.386a31 31 0 0 1-2.61 4.597 1.045 1.045 0 0 1-1.714-1.194 29 29 0 0 0 2.428-4.28 1.044 1.044 0 0 1 1.386-.509M75.666 131.658a8.876 8.876 0 0 1 8.876-8.877h9.137a1.045 1.045 0 0 1 0 2.089h-9.137a6.79 6.79 0 0 0-6.788 6.788v9.137a1.044 1.044 0 0 1-2.088 0zm35.243-7.832c0-.577.468-1.045 1.044-1.045h9.137a8.877 8.877 0 0 1 8.877 8.877v9.137a1.045 1.045 0 0 1-2.089 0v-9.137a6.79 6.79 0 0 0-6.788-6.788h-9.137a1.045 1.045 0 0 1-1.044-1.044M76.71 158.025c.577 0 1.044.467 1.044 1.044v9.137a6.79 6.79 0 0 0 6.788 6.788h9.137a1.044 1.044 0 1 1 0 2.088h-9.137a8.876 8.876 0 0 1-8.876-8.876v-9.137c0-.577.468-1.044 1.044-1.044m52.212 0c.577 0 1.045.467 1.045 1.044v9.137a8.876 8.876 0 0 1-8.877 8.876h-9.137a1.045 1.045 0 0 1 0-2.088h9.137a6.79 6.79 0 0 0 6.788-6.788v-9.137c0-.577.468-1.044 1.044-1.044" clip-rule="evenodd"/><rect width="77.193" height="77.193" x="158.587" y="111.471" fill="#375FE9" rx="6.265"/><path fill="#fff" fill-rule="evenodd" d="M169.745 131.658a8.876 8.876 0 0 1 8.876-8.876h9.137a1.044 1.044 0 0 1 0 2.088h-9.137a6.79 6.79 0 0 0-6.788 6.788v9.137a1.043 1.043 0 1 1-2.088 0zm35.243-7.832c0-.577.467-1.044 1.044-1.044h9.137a8.876 8.876 0 0 1 8.876 8.876v9.137a1.043 1.043 0 1 1-2.088 0v-9.137a6.79 6.79 0 0 0-6.788-6.788h-9.137a1.043 1.043 0 0 1-1.044-1.044m-34.199 34.199c.577 0 1.044.467 1.044 1.044v9.137a6.79 6.79 0 0 0 6.788 6.788h9.137a1.044 1.044 0 0 1 0 2.088h-9.137a8.876 8.876 0 0 1-8.876-8.876v-9.137c0-.577.467-1.044 1.044-1.044m52.212 0c.577 0 1.044.467 1.044 1.044v9.137a8.876 8.876 0 0 1-8.876 8.876h-9.137a1.043 1.043 0 1 1 0-2.088h9.137a6.79 6.79 0 0 0 6.788-6.788v-9.137c0-.577.467-1.044 1.044-1.044M190.091 138.298c.577 0 1.044.468 1.044 1.044v4.763a1.043 1.043 0 1 1-2.088 0v-4.763c0-.576.467-1.044 1.044-1.044M203.699 138.298c.576 0 1.044.468 1.044 1.044v4.763a1.044 1.044 0 0 1-2.089 0v-4.763c0-.576.468-1.044 1.045-1.044M207.577 156.103c.513.263.716.893.453 1.406-1.14 2.223-4.867 6.691-10.799 6.691-2.963 0-5.487-1.124-7.416-2.488-1.921-1.359-3.306-2.993-4.013-4.128a1.044 1.044 0 0 1 1.773-1.104c.565.907 1.76 2.334 3.446 3.527 1.679 1.187 3.79 2.105 6.21 2.105 4.835 0 7.987-3.697 8.94-5.556a1.045 1.045 0 0 1 1.406-.453" clip-rule="evenodd"/></g><defs><clipPath id="hneX3GT7lZ_a"><path fill="#fff" d="M0 0h300v300H0z"/></clipPath><clipPath id="hneX3GT7lZ_b"><rect width="250" height="250" x="25" y="25" fill="#fff" rx="125"/></clipPath></defs></svg>