<svg xmlns="http://www.w3.org/2000/svg" width="150" height="150" fill="none" class="persona-ilustration" viewBox="0 0 150 150"><g clip-path="url(#a)"><g clip-path="url(#b)"><rect width="125" height="125" x="12.5" y="12.5" fill="#D3EDFF" rx="62.5"/><path fill="#AADBFF" d="m103.709 95.898-17.28 17.19s10.119 8.663 13.026 14.202c2.946 5.616 2.605 17.399 2.605 17.399-10.888 2.183-20.318 2.595-20.318 2.595s-79.163.653-80.565-13.582c-2.95-29.919 25.777-41.169 25.777-41.169 21.6-12.048 77.838-.593 77.838-.593s9.805 1.019 18.237 7.924c-5.378-2.003-11.767-3.468-19.32-3.966"/><path fill="#82C2F1" d="M98.945 146.649s-1.22-11.821-4.166-17.976c-1.696-3.546-6.97-9.612-11.04-12.965l21.304-26.147s.356-.761 1.405-.614c3.475.486 11.204 4.168 16.581 6.363 5.05 4.535 9.611 11.383 11.273 21.697 2.632 16.332-19.476 26.152-35.357 29.642"/></g><path fill="#FFDCC5" d="m19.541 63.07 6.433 36.922 60.933 18.98 4.365-38.19z"/><path fill="#FFC79D" d="M120.327 59.658 91.272 80.782l-4.365 38.191 25.648-27.951z"/><path fill="#C93E41" fill-rule="evenodd" d="M82.952 98.818 30.448 83.761l.302-1.052 52.502 15.058zm28.647-18.856-21.703 20.25-6.48-1.765.287-1.056 5.892 1.605 21.257-19.833z" clip-rule="evenodd"/><path fill="#FFDCC5" d="m19.541 63.072 34.296-16.388 66.491 12.974-29.056 21.125z"/><path fill="#E79EA1" d="m27.56 62.256 26.637-12.733 59.484 11.606-22.984 16.71zm30.176-17.574 14.533-31.917 62.427 8.78-15.955 35.039z"/><path fill="#C93E41" fill-rule="evenodd" d="m125.038 46.035-51.86-9.48.197-1.076 51.859 9.48zm4.78-11.556L76.22 25.77l.175-1.08 53.599 8.708z" clip-rule="evenodd"/><path fill="#F18513" d="m138.679 19.356-18.351 40.302s13.45 3.643 21.901-15.671c3.314-7.888 4.835-20.206-3.55-24.63"/><path fill="#FFC79D" d="M139.893 27.178c.307.918.531 2.045.607 3.435.192 3.462-.656 7.816-2.269 11.661-3.392 7.73-7.483 11.071-10.88 12.439l12.537-27.535z"/><path fill="#C93E41" d="M75.487 17.065 64.312 42.87s8.67-1.044 12.821-9.293c1.822-3.752 3.392-10.475-1.646-16.513"/><path fill="#FFB26F" d="m91.272 80.782-.864 7.57-33.109-8.675-1.11-.296-8.003-2.094-27.425-7.193-1.22-7.023z"/><path fill="#FFB26F" fill-rule="evenodd" d="m56.189 79.381 1.11.296 33.109 8.675.864-7.57L19.541 63.07l1.22 7.023zm.14-.528 1.109.295h.002l32.496 8.515.738-6.465-70.45-17.396 1.015 5.852z" clip-rule="evenodd"/><path fill="#FFB26F" d="m24.749 92.968 1.225 7.023 60.934 18.98.924-8.095z"/><path fill="#FFB26F" fill-rule="evenodd" d="m26.455 99.568-1.018-5.836 61.799 17.543-.797 6.978zm60.453 19.403-60.934-18.98-1.226-7.023 63.084 17.908z" clip-rule="evenodd"/><path fill="#F18513" d="m90.407 88.353 23.466-17.58 4.54-3.402 1.914-7.713-29.055 21.124zm-2.576 22.524-.924 8.095 25.648-27.95 1.816-7.341z"/><path fill="#C93E41" d="M57.298 79.678v4.206c0 2.133-1.564 3.588-4.157 3.5 1.745 0 3.041-1.296 3.041-3.221v-4.775l1.116.295z"/><path fill="#FFB26F" d="m20.766 70.094 3.982 22.875 6.329 1.8-4.01-23.023z"/><path fill="#FFB26F" fill-rule="evenodd" d="M25.228 92.536 21.451 70.84l5.138 1.347 3.8 21.818zm5.849 2.232-6.329-1.8-3.982-22.874 6.301 1.652z" clip-rule="evenodd"/><path fill="#FFB26F" d="m90.408 88.352-2.577 22.525-6.148-1.745 2.226-22.486z"/><path fill="#FFB26F" fill-rule="evenodd" d="m89.81 88.76-5.42-1.422-2.118 21.393 5.089 1.444zm.597-.408-6.498-1.706-2.226 22.486 6.148 1.745z" clip-rule="evenodd"/><path fill="#F18513" d="m95.626 84.442-5.219 3.91-2.576 22.525 4.786-4.906zm14.188 3.91 4.059-17.58 4.54-3.402-4.043 16.311z"/><path fill="#FFB26F" d="M56.188 79.382v4.775c0 2.264-1.794 3.654-4.004 3.107-2.204-.547-3.998-2.834-3.998-5.098v-4.885l8.002 2.095z"/><path fill="#FFB26F" fill-rule="evenodd" d="m56.188 79.376-8.003-2.095v4.885c0 2.264 1.795 4.55 3.999 5.098 2.21.547 4.004-.843 4.004-3.107zm-.547.423-6.908-1.809v4.176c0 2.012 1.62 4.08 3.582 4.567m3.326-6.934v4.358c0 .983-.386 1.729-.962 2.175-.576.448-1.4.64-2.364.4" clip-rule="evenodd"/><path fill="#C93E41" d="m31.077 94.77 1.701-.892-3.796-21.628-1.914-.503z"/><path fill="#C93E41" fill-rule="evenodd" d="m32.17 93.579-.683.358-3.734-21.444.751.197zM28.982 72.25l3.796 21.628-1.7.891-4.01-23.022z" clip-rule="evenodd"/><path fill="#C93E41" d="m32.78 93.876 49.074 13.543-.17 1.712-50.606-14.363z"/><path fill="#C93E41" fill-rule="evenodd" d="m32.842 94.46-.296.156 48.659 13.811.06-.603zm49.012 12.959L32.78 93.876l-1.7.892 50.606 14.363z" clip-rule="evenodd"/><path fill="#C93E41" d="m112.386 71.883-3.813 16.142 1.242.328 4.058-17.58z"/><path fill="#C93E41" d="m92.891 104.006 15.682-15.983 1.242.328-17.197 17.619z"/><path fill="#FFDCC5" d="M70.64 9.79 53.836 46.684l66.486 12.974 18.351-40.302zm48.101 46.794L57.736 44.682 72.27 12.765l62.427 8.78z"/><path fill="#F18513" d="M54.197 49.523v7.061l-16.89 8.079-9.748-2.407z"/><path fill="#FFB26F" d="m54.197 56.584 51.892 10.07 7.592-5.525-59.484-11.606z"/><path fill="#FFB26F" fill-rule="evenodd" d="m105.96 66.072 6.384-4.646-57.6-11.24v5.947zm-51.763-9.488 51.892 10.07 7.592-5.525-59.484-11.606z" clip-rule="evenodd"/><path fill="#C93E41" d="M54.197 56.584V68.83l-16.89-4.168z"/><path fill="#FFB26F" d="M120.174 53.434 64.311 42.877l-6.575 1.805 61.005 11.903z"/><path fill="#FFB26F" fill-rule="evenodd" d="m64.333 43.438 55.054 10.404-.965 2.123L60.13 44.592zm54.408 13.147 1.433-3.151-55.863-10.557-6.575 1.805z" clip-rule="evenodd"/><path fill="#F18513" d="m72.27 12.765 3.215 4.3-11.174 25.811-6.575 1.806z"/><path fill="#FFB26F" d="m132.602 26.15-57.116-9.085-3.216-4.3 62.427 8.78z"/><path fill="#FFB26F" fill-rule="evenodd" d="m132.277 25.544 1.619-3.56-60.4-8.494 2.295 3.07zm-56.79-8.48 57.115 9.086 2.095-4.606-62.427-8.779zm44.735 43.131-66.49-12.974.209-1.074 66.491 12.974z" clip-rule="evenodd"/><path fill="#AADBFF" d="M81.152 111.314c3.437.499 4.134 1.362 6.573 3.413l.923 6.076-65.413-19.181s-2.027-2.595 1.274-5.157c3.447 1.147 44.268 16.286 56.643 14.849"/><path fill="#82C2F1" d="M112.552 89.314c-1.991 1.154-3.837 1.332-8.282 6.401-2.948 4.696-6.55 9.462-11.41 12.415-.58.353-1.89 1.594-2.35 2.473-2.862 2.97-5.784 6.893 0 11.785l23.574-30.09s.374-2.176-1.532-2.984"/></g><defs><clipPath id="a"><path fill="#fff" d="M0 0h150v150H0z"/></clipPath><clipPath id="b"><rect width="125" height="125" x="12.5" y="12.5" fill="#fff" rx="62.5"/></clipPath></defs></svg>