<svg xmlns="http://www.w3.org/2000/svg" width="240" height="240" fill="none" class="persona-ilustration" viewBox="0 0 240 240"><g clip-path="url(#a)"><g clip-path="url(#b)"><rect width="200" height="200" x="20.225" y="20" fill="#D3EDFF" rx="100"/><path fill="#A6B7FF" d="M105.768 176.404 21.662 198.62H12.14V-2.917h161.864l-1.411 58.482-58.938 3.536s-6.133 20.836-6.133 29.422c0 21.615-.506 6.677 0 21.684-1.755 19.673-1.755 66.197-1.755 66.197"/><path fill="#F18513" d="M-46.413-68.648 91.579-92.98V85.637l-137.992 24.331z"/><path fill="#FFB26F" d="M-59.053-77.268 78.939-101.6V77.017l-137.992 24.331z"/><path fill="#FFC79D" d="m79.08 77.013-12.062-8.346L32.4 74.546l-2.683 11.293z"/><path fill="#F8F8F8" d="m-71.06-85.636 137.99-24.332V68.648L-71.06 92.98z"/><mask id="c" width="37" height="46" x="153" y="117" maskUnits="userSpaceOnUse" style="mask-type:alpha"><path fill="#FFC7B6" d="m189.615 153.112-6.689 9.008s-20.916-7.932-22.825-12.454c-1.91-4.521-7.018-29.09-7.018-29.09s3.784-4.4 8.245-2.485 14.53 12.706 14.53 12.706z"/></mask><g mask="url(#c)"><path fill="#FFC7B6" d="m189.615 153.112-6.689 9.008s-20.916-7.932-22.825-12.454c-1.91-4.521-7.018-29.09-7.018-29.09s3.784-4.4 8.245-2.485 14.53 12.706 14.53 12.706z"/><path fill="#F29B7C" d="M169.82 144.664c-1.649-4.124-14.844-17.421-15.728-25.685 4.862 2.43 21.846 8.914 23.776 14.668 0 0 20.342 21.341-4.88 17.47-2.326-.358-1.76-2.933-3.168-6.453m-8.801 3.202h2.265c.868.975 2.34 2.847 1.281 2.535s-2.805-1.82-3.546-2.535"/></g><path fill="#FFC7B6" d="M154.27 113.941s-5.805 1.192-5.209 4.769 5.209 4.103 5.209 4.103 2.046-.384 2.399-1.541.364-1.89.364-1.89l-2.763-5.436zm43.116 32.022L240 161.2l-25.998 19.122-31.075-18.203 6.688-9.008z"/><path fill="#E47D10" d="m159.091 125.057-1.702-.889s-6.113-17.076-8.316-18.445c-4.774-2.97-15.899-2.066-26.311-.561a2.75 2.75 0 0 1-2.981-1.783l-3.89-10.72 2.39-2.501 3.44 9.22a2.755 2.755 0 0 0 2.895 1.768c6.113-.712 23.467-2.319 26.175 1.975 3.299 5.229 8.3 21.936 8.3 21.936"/><path fill="#FF8D18" d="M179.708 95.008a1.76 1.76 0 0 1-1.394.752c-4.572.147-14.55.885-19.223 4.517-.723.561-.718 2.198-.278 4.385 1.465 7.326 7.795 20.84 7.795 20.84s9.988 27.524 8.624 31.161-4.203 2.501-4.203 2.501-5.942-8.22-7.745-15.535c-1.809-7.316-4.193-18.572-4.193-18.572s-5.002-16.707-8.301-21.936c-2.708-4.294-20.062-2.687-26.175-1.975a2.75 2.75 0 0 1-2.894-1.768l-3.441-9.22 59.342-3.865 2.324 7.149c.181.56.07 1.131-.238 1.566"/><path fill="#E47D10" d="m179.709 95.008-.475 1.177a4.73 4.73 0 0 1-3.997 2.945l-1.601.137c-12.539.45-14.823 5.395-14.823 5.395-.439-2.187-.444-3.824.278-4.385 4.673-3.632 14.651-4.37 19.223-4.516a1.77 1.77 0 0 0 1.395-.753m-17.743 52.021s7.119 11.458 7.664 11.731c.546.273 1.4.409 1.4.409s-6.229-9.922-6.659-12.14-2.405 0-2.405 0"/><path fill="#FEE283" d="M115.891 92.659s-6.901-23.7-1.708-35.683c1.708 26.053 4.097 33.182 4.097 33.182z"/><path fill="#FFC7B6" d="M160.1 149.666s-2.768-1.773-3.011-3.405c-.242-1.632.349-4.34.839-4.486.49-.147 5.077 0 5.077 0l11.095 1.283s3.647 1.97 1.283 3.208-10.109 1.531-10.109 1.531l-5.143-.081.788 2.162-.819-.207z"/><mask id="d" width="23" height="10" x="152" y="132" maskUnits="userSpaceOnUse" style="mask-type:alpha"><path fill="#FFC7B6" d="M155.95 132.434s-4.082 1.545-3.839 4.112c.242 2.566 3.107 4.471 3.107 4.471l3.773.965 10.928-.212s4.88-.298 4.537-3.208c-.344-2.91-4.982-3.057-4.982-3.057l-13.519-3.077z"/></mask><g mask="url(#d)"><path fill="#FFC7B6" d="M155.95 132.434s-4.082 1.545-3.839 4.112c.242 2.566 3.107 4.471 3.107 4.471l3.773.965 10.928-.212s4.88-.298 4.537-3.208c-.344-2.91-4.982-3.057-4.982-3.057l-13.519-3.077z"/><path fill="#F29B7C" d="m152.899 140.036 7.781 1.026c3.806.381 11.379 1.093 12.608 1.04.168-.027.223-.033.134-.014a1 1 0 0 1-.134.014c-.992.159-5.944 1.038-8.674 1.526l-9.577-.941z"/></g><mask id="e" width="19" height="14" x="149" y="121" maskUnits="userSpaceOnUse" style="mask-type:alpha"><path fill="#FFC7B6" d="m157.388 124.168 8.235 4.289s2.662 1.38 2.268 3.006c-.394 1.627-1.823 3.698-4.339 3.057-2.516-.642-8.185-1.824-10.013-3.304-1.829-1.48-4.744-3.208-4.466-5.477.277-2.268 2.344-4.456 2.344-4.456l5.971 2.88z"/></mask><g mask="url(#e)"><path fill="#FFC7B6" d="m157.388 124.168 8.235 4.289s2.662 1.38 2.268 3.006c-.394 1.627-1.823 3.698-4.339 3.057-2.516-.642-8.185-1.824-10.013-3.304-1.829-1.48-4.744-3.208-4.466-5.477.277-2.268 2.344-4.456 2.344-4.456l5.971 2.88z"/><path fill="#F29B7C" d="m148.521 127.438 6.92 3.705c3.426 1.698 10.261 5.036 11.43 5.42.167.034.22.048.13.035a1 1 0 0 1-.13-.035c-.984-.201-5.928-1.125-8.655-1.632l-8.629-4.258z"/></g><path fill="#FEEDB4" d="M177.621 86.293s-6.527-13.802-4.031-31.464c-5.53 0-18.101.434-30.261.912-2.582.101-5.146.205-7.62.306-11.782.485-21.526.929-21.526.929s-.788 18.576 4.097 33.182c3.526-.228 59.341-3.865 59.341-3.865"/><path fill="#FFC7B6" d="M197.385 145.963s-9.791-20.047-20.047-25.331c-10.255-5.285-17.874-9.791-19.425-11.655s-3.728 2.021-3.577 3.577 3.107 8.704 6.219 9.482 10.877 7.149 10.877 7.149.778 12.898 7.462 16.783 10.726 7.149 10.726 7.149l7.77-7.149z"/><path fill="#3E68F5" d="M114.633 82.344c-.298.993-.874-.847-1.321-2.079-2.044-11.856-.793-20.106.874-23.29 17.35-.663 40.921-2.144 59.403-2.144-1.506 12.635.355 18.39 1.395 23.768-.993-.29-3.33-.423-4.324 1.292s-4.969.715-6.832 0c-1.491-.425-4.994-1.02-7.081 0-2.609 1.274-6.584-.653-6.833-1.274-.199-.497-2.153-.787-3.105-.87-1.574-.041-4.845.33-5.342 2.144s-5.176 1.48-7.454 1.086c-1.532-.87-5.193-2.087-7.578 0s-7.868.87-10.311 0c-.372.042-1.192.373-1.491 1.367" opacity=".75"/><path fill="#FFA400" d="M139.872 198.017h5.569v39.549h-5.569z"/><path fill="#FF9300" d="M139.872 198.017h-5.134v39.549h5.134z"/></g><path fill="#FFC509" d="M84.58 153.715 7.586 176.12v5l76.996-22.405z"/><path fill="#FFC509" d="m162.378 195.451-77.797-41.736v5l77.797 41.736zM7.585 176.12 76.457 220v8.455L7.585 184.574z"/><path fill="#FFC509" d="m76.457 220 85.92-24.549v8.486l-85.92 24.549z"/><path fill="#FEE283" d="m7.585 176.12 76.996-22.405 77.797 41.736L76.458 220z"/><path fill="#3E68F5" d="M80.574 118.238H47.99l7.105 71.967v.063c0 4.282 11.414 7.749 25.48 7.749 14.065 0 24.681-3.234 25.434-7.301h.027l7.167-72.469H80.565"/><mask id="f" width="70" height="36" x="46" y="109" maskUnits="userSpaceOnUse" style="mask-type:alpha"><path fill="#EAEEFF" d="M46.083 118.238q0 .222.043.443l1.65 17.116c0 4.641 14.693 8.404 32.826 8.404s32.826-3.763 32.826-8.404l1.693-17.559h-.054c0-4.874-15.442-8.825-34.492-8.825s-34.492 3.951-34.492 8.825"/></mask><g mask="url(#f)"><path fill="#EAEEFF" d="M46.083 118.238q0 .222.043.443l1.65 17.116c0 4.641 14.693 8.404 32.826 8.404s32.826-3.763 32.826-8.404l1.693-17.559h-.054c0-4.874-15.442-8.825-34.492-8.825s-34.492 3.951-34.492 8.825"/><path fill="#A6B7FF" d="M86.82 134.094c.387-4.646-2.364-7.806-3.787-8.806l.795-8.917s7.985-5.566 21.056-4.761c3.073.189 10.344 1.946 10.344 1.946v4.362l-.492 7.37c-.267.413-.885.904-1.229-.425-.345-1.33-.922-.554-1.168 0 0 1.78-.418 4.752-2.09 2.397s-2.213-.492-2.274.734c.225 1.783.59 5.756.246 7.379s-.063 7.176-.534 6.705c-.021-.881-2.263 1.384-3.099.588-.432-.412-.58-3.061-.639-5.436-.09.426-.237.773-.461.97-.836.738-1.413-.307-1.598-.922.041-3.216-.16-9.969-1.29-11.247s-1.778-.204-1.96.494c.331 1.442.795 4.626 0 5.824-.796 1.198-1.468.058-1.705-.663-.063-1.23-.52-3.986-1.847-5.161-1.325-1.175-1.815-.332-1.894.237.168.563.337 2.04-.334 3.442-.67 1.402-1.499.584-1.829 0-.038-.457-.404-1.54-1.562-2.21-1.159-.671-1.27 1.626-1.182 2.858.09 2.604.214 8.056 0 9.032-.213.975-.598.872-.764.699-.395-.227-1.09-1.844-.703-6.489"/><path fill="#A6B7FF" d="M92.766 134.861c.374-1.428-.156-2.353-.469-2.636-.918-.34-1.062 1.049-1.02 1.786.34.879 1.114 2.279 1.489.85m17.252-4.936c.374-1.429-.156-2.353-.469-2.636-.918-.34-1.063 1.049-1.02 1.786.34.879 1.114 2.279 1.489.85"/></g><mask id="g" width="67" height="15" x="47" y="111" maskUnits="userSpaceOnUse" style="mask-type:alpha"><path fill="#2C54DC" d="M80.575 125.387c-21.224 0-32.808-4.722-32.808-7.141s11.584-7.149 32.808-7.149 32.808 4.721 32.808 7.14-11.584 7.141-32.808 7.141z"/></mask><g mask="url(#g)"><path fill="#2C54DC" d="M80.575 125.387c-21.224 0-32.808-4.722-32.808-7.141s11.584-7.149 32.808-7.149 32.808 4.721 32.808 7.14-11.584 7.141-32.808 7.141z"/><path fill="#A6B7FF" d="M96.052 125.236v-14.343l19.162 4.409 1.587 2.704-5.408 5.76z" style="mix-blend-mode:multiply"/></g><path fill="#A6B7FF" d="M62.342 168.319c.045.224.134.905.134.905s-.878-.009-.94.878c-.108 1.433.716 1.613.716 1.613s-.582 1.881-1.227.994-.323-3.494-.027-4.148c.188-.403.502-.994.815-1.003.188 0 .421.179.538.761zm45.206-40.683h2.849v6.459h-2.849c-1.03 0-1.863-1.442-1.863-3.234s.833-3.234 1.863-3.234z"/><path fill="#3E68F5" d="M110.398 134.105c-1.03 0-1.864-1.448-1.864-3.235s.834-3.234 1.864-3.234c1.029 0 1.863 1.448 1.863 3.234s-.834 3.235-1.863 3.235"/><path fill="#A6B7FF" d="M70.252 172.458c1.944 0 3.888-.135 5.815-.394 7.427-1.022 13.877-3.871 17.711-7.813 6.738-6.952 20.203-31.732 20.767-32.781a1.24 1.24 0 0 0-.026-1.245 1.3 1.3 0 0 0-1.085-.618h-3.037a1.262 1.262 0 1 0 0 2.526h.896c-3.324 6.003-13.886 24.736-19.342 30.362-4.919 5.071-16.646 9.157-29.144 6.8a38.5 38.5 0 0 1-9.676-3.18 1.262 1.262 0 1 0-1.093 2.275c5.564 2.679 11.871 4.077 18.214 4.077z"/><path fill="#A6B7FF" d="m51.913 164.332 9.89 3.226-.627 2.902.161 2.482-9.434-3.458s-.734-.323-.734-2.652.735-2.491.735-2.491z"/></g><defs><clipPath id="a"><path fill="#fff" d="M0 0h240v240H0z"/></clipPath><clipPath id="b"><rect width="200" height="200" x="20.225" y="20" fill="#fff" rx="100"/></clipPath></defs></svg>