<svg xmlns="http://www.w3.org/2000/svg" width="240" height="240" fill="none" class="persona-ilustration" viewBox="0 0 240 240"><g clip-path="url(#a)"><g clip-path="url(#b)"><rect width="200" height="200" x="20.224" y="20" fill="#D3EDFF" rx="100"/><path fill="#82C2F1" fill-rule="evenodd" d="M138.78 81.648a39 39 0 0 1 3.227 2.673 2 2 0 0 1-2.696 2.955 37 37 0 0 0-2.522-2.123l-.021.026a2 2 0 0 1-.764.568c-.065.305-.203.6-.416.857l-.602.728-.013.015a3.2 3.2 0 0 1-.576.52 2 2 0 0 1-.705.315 2 2 0 0 1-.736.237q-.383.045-.773-.004l-.011-.002-1.869-.261a2 2 0 0 1-1.677-1.552 2 2 0 0 1-2.038 1.032l-1.204-.169-.037.082c-.109.244-.26.456-.442.63a2 2 0 0 1-.173.75l-.304.682a3.1 3.1 0 0 1-.519.813 2 2 0 0 1-.796.546 2 2 0 0 1-.857.424 3.1 3.1 0 0 1-.944.064h-.01l-2.403-.213a2 2 0 0 1 .352-3.985l1.776.157.051-.116c.109-.244.261-.456.443-.63.008-.252.064-.506.172-.75l.301-.674.004-.01a3.1 3.1 0 0 1 .555-.848 2 2 0 0 1 .837-.543 2 2 0 0 1 .901-.412 3.1 3.1 0 0 1 1-.019l1.851.26a2 2 0 0 1 1.677 1.55 2 2 0 0 1 2.038-1.03l1.377.192.273-.33c.213-.257.477-.447.765-.568.065-.305.202-.6.415-.857l.588-.71a2.95 2.95 0 0 1 1.227-.89c.47-.178.964-.168 1.401-.007.375-.051.768.003 1.134.179.274.13.524.287.743.448m-26.726 4.972 2.392.211a2 2 0 1 1-.352 3.985l-1.922-.17-.424.565c-.27.36-.639.603-1.04.72 0 .418-.13.84-.4 1.2l-.729.972-.01.012a3 3 0 0 1-.563.563 2 2 0 0 1-.7.348 2 2 0 0 1-.737.272 3 3 0 0 1-.805.022h-.009l-2.36-.253a2 2 0 0 1 .426-3.977l1.868.2.419-.559a2 2 0 0 1 1.04-.72c-.001-.418.13-.84.4-1.2l.714-.952.004-.005q.243-.326.554-.573a2 2 0 0 1 .707-.361c.221-.138.472-.234.744-.277q.385-.061.783-.023m32.835 3.395a2 2 0 0 1 2.822.182c1.645 1.871 3.37 3.98 5.141 6.314a2 2 0 1 1-3.186 2.417 110 110 0 0 0-4.959-6.09 2 2 0 0 1 .182-2.823m-48.106.363c.31-.064.633-.08.956-.046l2.362.253a2 2 0 1 1-.426 3.977l-1.742-.186-.184.384a2 2 0 0 1-.72.817c.038.356-.019.726-.185 1.073l-.46.96-.007.015a3.2 3.2 0 0 1-.566.795 2 2 0 0 1-.828.51 2 2 0 0 1-.9.393 3.1 3.1 0 0 1-1 .003l-.007-.001-2.417-.38a2 2 0 0 1 .622-3.952l1.787.281.168-.352a2 2 0 0 1 .72-.817c-.038-.356.02-.726.185-1.073l.456-.952.004-.007q.212-.433.535-.775c.227-.241.5-.413.79-.516a2 2 0 0 1 .857-.404m-13.6 3.448q.4-.043.809.018l.007.001 2.428.383a2 2 0 0 1-.623 3.951l-1.925-.303-.674.826a2 2 0 0 1-1.583.736c.129.577 0 1.205-.402 1.699l-.985 1.209-.004.006a3 3 0 0 1-.598.564 2 2 0 0 1-.74.331c-.23.127-.489.212-.767.24q-.396.041-.795-.018l-.012-.002-2.468-.402a2 2 0 0 1 .643-3.948l1.953.318.673-.825a2 2 0 0 1 1.583-.736c-.128-.577 0-1.206.402-1.7l.986-1.209.004-.005c.174-.215.374-.402.59-.56.228-.163.477-.273.734-.33.229-.13.487-.214.764-.244m-15.904 4.073c.27-.03.546-.027.818.013l.016.002 2.471.403a2 2 0 0 1-.643 3.948l-1.93-.315-.683.895a2 2 0 0 1-1.69.784 2 2 0 0 1-.31 1.836l-1.002 1.311c-.18.236-.39.441-.62.612-.242.179-.51.295-.786.352a2 2 0 0 1-.828.255 3.1 3.1 0 0 1-.882-.056l-1.813-.371a2 2 0 0 1-1.568-1.605 2 2 0 0 1-.878.736l.105.419-.652-.131q.468.567.93 1.139a2 2 0 1 1-3.108 2.517 180 180 0 0 0-2.483-2.998 3.1 3.1 0 0 1-.736-1.763 2 2 0 0 1 .703-1.687c.054-.26.16-.508.31-.728l-.393-1.572 4.932 1.009a2 2 0 0 1 1.568 1.605 2 2 0 0 1 2.072-.86l1.282.262.667-.874a2 2 0 0 1 1.689-.784 2 2 0 0 1 .311-1.836l.996-1.304.002-.003q.261-.343.595-.595c.232-.176.489-.293.755-.355.233-.137.497-.228.783-.261m87.494 4.654a2 2 0 0 1 2.775.547 156 156 0 0 1 4.325 6.831 2 2 0 1 1-3.433 2.053 151 151 0 0 0-4.214-6.656 2 2 0 0 1 .547-2.775m-95.371 11.434a2 2 0 0 1 2.798.414 194 194 0 0 1 4.598 6.47 2 2 0 0 1-3.307 2.25 190 190 0 0 0-4.504-6.336 2 2 0 0 1 .415-2.798m103.743 2.161a2 2 0 0 1 2.707.822 175 175 0 0 1 3.635 7.208 2 2 0 0 1-3.613 1.718 170 170 0 0 0-3.551-7.042 2 2 0 0 1 .822-2.706m-94.77 10.732a2 2 0 0 1 2.755.637 210 210 0 0 1 4.07 6.806 2 2 0 1 1-3.47 1.988 205 205 0 0 0-3.993-6.675 2 2 0 0 1 .638-2.756m101.79 3.591a2 2 0 0 1 2.62 1.066 182 182 0 0 1 2.97 7.514 2 2 0 1 1-3.751 1.388 178 178 0 0 0-2.905-7.349 2 2 0 0 1 1.066-2.619m-93.853 9.959a2 2 0 0 1 2.7.841 226 226 0 0 1 3.565 7.084 2 2 0 0 1-3.604 1.735 223 223 0 0 0-3.501-6.959 2 2 0 0 1 .84-2.701m99.558 4.95a2 2 0 0 1 2.515 1.294q1.213 3.78 2.296 7.742a2.001 2.001 0 0 1-3.859 1.053 180 180 0 0 0-2.246-7.574 2 2 0 0 1 1.294-2.515m-92.61 9.153a2 2 0 0 1 2.636 1.023 246 246 0 0 1 3.079 7.303 2 2 0 1 1-3.71 1.494q-1.441-3.579-3.029-7.183a2 2 0 0 1 1.023-2.637m96.98 6.198a2 2 0 0 1 2.393 1.509q.88 3.884 1.612 7.921a2 2 0 1 1-3.936.712 180 180 0 0 0-1.578-7.75 2 2 0 0 1 1.509-2.392m-90.989 8.33a2 2 0 0 1 2.567 1.188 264 264 0 0 1 2.614 7.464 2 2 0 1 1-3.795 1.266 260 260 0 0 0-2.574-7.351 2 2 0 0 1 1.188-2.567m94.005 7.344a2 2 0 0 1 2.252 1.711q.54 3.944.92 8.016a2 2 0 0 1-3.983.37 184 184 0 0 0-.9-7.844 2 2 0 0 1 1.711-2.253m-88.92 7.518a2 2 0 0 1 2.492 1.338q1.165 3.869 2.18 7.618a2 2 0 1 1-3.86 1.047 278 278 0 0 0-2.15-7.51 2 2 0 0 1 1.337-2.493m90.57 8.369a2 2 0 0 1 2.097 1.898q.199 3.973.231 8.056a2 2 0 0 1-4 .031q-.031-3.999-.226-7.888a2 2 0 0 1 1.898-2.097m-86.349 6.765a2 2 0 0 1 2.415 1.473 295 295 0 0 1 1.759 7.726 2 2 0 1 1-3.911.836 290 290 0 0 0-1.736-7.621 2 2 0 0 1 1.473-2.414m86.638 9.181a2 2 0 0 1 1.931 2.067 194 194 0 0 1-.181 4.046l-.065 1.181-1.067.512-4.01 1.924a2 2 0 1 1-1.73-3.606l2.274-1.091.665-.319q.068-1.398.116-2.784a2 2 0 0 1 2.067-1.93m-83.249 6.162a2 2 0 0 1 2.332 1.601c.506 2.725.952 5.336 1.344 7.817a2 2 0 1 1-3.951.624 289 289 0 0 0-1.326-7.71 2 2 0 0 1 1.601-2.332m72.917 4.68a2 2 0 0 1-.939 2.668l-7.876 3.774a2 2 0 0 1-1.728-3.608l7.875-3.773a2 2 0 0 1 2.668.939m-15.729 7.535a2 2 0 0 1-.941 2.667c-2.78 1.33-5.41 2.588-7.899 3.777a2 2 0 0 1-1.724-3.609l7.897-3.776a2 2 0 0 1 2.667.941m-54.625 3.313a2 2 0 0 1 2.241 1.726c.375 2.896.669 5.528.9 7.859a2 2 0 1 1-3.981.394 261 261 0 0 0-.886-7.739 2 2 0 0 1 1.726-2.24m38.839 4.231a2 2 0 0 1-.944 2.667l-7.903 3.764a1.999 1.999 0 1 1-1.718-3.612l7.899-3.763a2 2 0 0 1 2.666.944m-15.784 7.513a2 2 0 0 1-.951 2.664 3126 3126 0 0 1-7.907 3.736 2 2 0 0 1-1.704-3.619c2.2-1.035 4.808-2.267 7.898-3.732a2 2 0 0 1 2.664.951m-21.392 3.856a2 2 0 0 1 2.119 1.874q.036.58.063 1.082l.762-.349a2 2 0 0 1 1.673 3.633c-2.487 1.145-3.489 1.58-3.856 1.701-.03.01-.212.073-.434.102a2 2 0 0 1-1.187-.21 2.003 2.003 0 0 1-.859-2.69l-.007-.165c-.025-.647-.07-1.609-.147-2.859a2 2 0 0 1 1.873-2.119m38.414-135.994a4.5 4.5 0 0 1-4.129 4.843c-6.858.546-16.836 2.648-26.241 5.524-9.581 2.929-17.703 6.405-21.376 9.358a4.5 4.5 0 0 1-5.64-7.015c5.148-4.137 14.775-8.012 24.384-10.95 9.785-2.992 20.437-5.274 28.159-5.888a4.5 4.5 0 0 1 4.843 4.128m8.556 17.798a2 2 0 0 1-1.814 2.17c-.817.074-1.688.147-2.583.222-3.37.283-7.086.595-9.603 1.045a1.999 1.999 0 1 1-.704-3.937c2.722-.487 6.715-.822 10.1-1.105.861-.073 1.682-.141 2.434-.209a2 2 0 0 1 2.17 1.814m-19.579 2.454a2 2 0 0 1-1.468 2.418c-10.27 2.508-19.331 6.672-31.758 13.349a2.001 2.001 0 0 1-1.893-3.524c12.513-6.723 21.931-11.08 32.702-13.711a2 2 0 0 1 2.417 1.468m13.037 17.391q-.972.19-1.853.353a2.001 2.001 0 0 1-.713-3.937q.794-.144 1.723-.328c3.196-.623 7.563-1.473 12.723-1.473a2 2 0 1 1 0 4c-4.739 0-8.683.765-11.88 1.385m-6.891-.724a2 2 0 0 1-1.501 2.398c-9.659 2.219-18.437 5.545-30.718 12.821a2 2 0 0 1-2.039-3.441c12.599-7.465 21.76-10.958 31.861-13.279a2 2 0 0 1 2.397 1.501m14.21 18.054c-.637.146-1.28.294-1.951.433a2 2 0 1 1-.815-3.916 76 76 0 0 0 1.784-.399c3.013-.696 6.41-1.481 11.767-1.067a2 2 0 0 1-.308 3.989c-4.711-.365-7.519.28-10.477.96m-6.997-.621a2 2 0 0 1-1.466 2.419c-10.073 2.469-19.014 6.465-30.809 13.157a2 2 0 0 1-1.974-3.479c11.965-6.788 21.264-10.973 31.831-13.563a2 2 0 0 1 2.418 1.466m12.222 18.817q-.894.195-1.757.376a2 2 0 0 1-.814-3.917c.509-.105 1.048-.223 1.613-.346 3.028-.661 6.805-1.485 10.584-1.485a2 2 0 1 1 0 4c-3.307 0-6.589.712-9.626 1.372m-7.507-.357a2 2 0 0 1-1.391 2.462c-9.169 2.55-18.047 6.345-30.409 12.466a2 2 0 0 1-1.775-3.585c12.439-6.159 21.581-10.084 31.112-12.735a2 2 0 0 1 2.463 1.392m19.213 17.705c-2.855 0-6.881.42-9.971 1.649a2 2 0 0 1-1.478-3.717c3.751-1.492 8.344-1.932 11.449-1.932a2 2 0 0 1 0 4m-16.053 1.015a2 2 0 0 1-1.391 2.463c-9.169 2.55-18.047 6.345-30.408 12.465a2 2 0 1 1-1.775-3.584c12.439-6.16 21.581-10.085 31.111-12.735a2 2 0 0 1 2.463 1.391" clip-rule="evenodd"/></g><path fill="#5141BA" d="M176.654 110.315c-2.15 20.7-18.53 35.09-39.82 35.09s-38.55-15.71-38.55-35.09c0-5.4.42-9.97 1.21-13.84-.26 1.66-.4 3.36-.4 5.08 0 19.38 17.26 35.09 38.55 35.09s38.55-15.71 38.55-35.09c0-2.91-.39-5.73-1.12-8.43 1.4 4.51 2 10.15 1.58 17.19"/><path fill="#A4A1E0" d="M175.074 93.125c-4.15-15.3-19.34-26.65-37.43-26.65-19.39 0-35.43 13.03-38.15 29.98v.02c-.26 1.66-.4 3.36-.4 5.08 0 19.38 17.26 35.09 38.55 35.09s38.55-15.71 38.55-35.09c0-2.91-.39-5.73-1.12-8.43m-5.11 9.91v.04c-.03.44-.06.89-.11 1.33l-.03.23c-.04.36-.08.72-.14 1.08-.09.6-.21 1.2-.34 1.78-.07.35-.16.69-.25 1.03-.04.13-.07.26-.11.39l-.03.09c-.1.38-.22.75-.34 1.12-.15.45-.31.9-.49 1.34-.17.44-.35.88-.55 1.31a28 28 0 0 1-3.12 5.27c-.13.19-.28.38-.42.56-.02.03-.04.05-.06.08-.16.21-.33.41-.5.61q-.345.42-.72.84c-.99 1.11-2.07 2.15-3.22 3.11-.23.19-.46.38-.69.55-.41.34-.84.66-1.27.96-.25.19-.5.36-.76.53-.46.32-.94.62-1.43.91-.31.19-.62.37-.94.54 0 .01-.03.02-.04.02-.44.25-.88.48-1.34.7-.42.21-.85.42-1.29.61-.03.02-.07.03-.1.04-.47.21-.95.41-1.44.59-.45.18-.92.35-1.38.5-.04.02-.08.03-.13.05-.91.3-1.83.56-2.77.78-.2.06-.4.1-.6.14-.37.09-.74.17-1.12.24-.03 0-.06.01-.09.01-.51.1-1.02.18-1.54.26h-.03c-.49.07-.99.13-1.48.17-.16.02-.32.03-.48.04-.36.04-.72.06-1.08.08-.1.01-.2.01-.31.01-.52.03-1.05.04-1.58.04-17.87 0-32.36-13.19-32.36-29.46 0-.47.01-.95.04-1.42.02-.46.06-.93.11-1.39 0-.07 0-.14.02-.2q.06-.585.15-1.17c.01-.02.01-.04.01-.06.07-.45.16-.9.26-1.34.17-.84.38-1.67.64-2.48.01-.01.01-.02.01-.03.38-1.22.85-2.42 1.39-3.57.02-.03.04-.06.05-.09a19 19 0 0 1 .55-1.08c.15-.28.3-.56.46-.83.07-.13.14-.25.22-.37.21-.35.43-.7.65-1.05.18-.27.35-.53.54-.79.31-.43.62-.86.95-1.27.22-.28.44-.56.68-.83.85-1 1.77-1.96 2.75-2.85.37-.33.74-.66 1.12-.98q1.155-.945 2.4-1.8c.4-.27.81-.54 1.23-.79.03-.03.07-.05.1-.07.37-.23.76-.45 1.15-.66.07-.05.13-.08.2-.11.3-.17.61-.34.92-.49 0 0 0-.01.01 0 .12-.07.25-.14.38-.19.38-.2.77-.38 1.16-.55.08-.04.16-.08.25-.11.89-.39 1.81-.75 2.74-1.06.08-.03.16-.05.23-.07.45-.16.91-.29 1.37-.42.43-.13.86-.24 1.3-.34.25-.07.49-.12.74-.17.23-.06.46-.11.7-.14.24-.06.48-.1.72-.14.26-.05.52-.09.78-.13.3-.05.59-.09.89-.12.13-.02.25-.04.38-.05.35-.04.71-.08 1.06-.11q.72-.06 1.44-.09c.53-.03 1.07-.04 1.61-.04 6.15 0 11.91 1.57 16.81 4.28 9.32 5.17 15.55 14.51 15.55 25.17 0 .5 0 .99-.04 1.48"/><path fill="#5141BA" d="M167.574 112.776c.39-1.81.59-3.68.59-5.59 0-16.26-14.49-29.45-32.36-29.45-13.51 0-25.09 7.54-29.93 18.24 2.86-13.6 16-23.87 31.77-23.87 17.87 0 32.36 13.19 32.36 29.45 0 3.98-.86 7.76-2.43 11.22"/><path fill="#EFEFEF" d="M168.164 107.185c0 1.91-.2 3.78-.59 5.59-4.85 10.7-16.42 18.24-29.93 18.24-17.87 0-32.36-13.19-32.36-29.46 0-1.91.2-3.78.59-5.58 4.84-10.7 16.42-18.24 29.93-18.24 17.87 0 32.36 13.19 32.36 29.45" opacity=".5"/><path fill="#EFEFEF" d="m171.107 125.846-6.34 7.991 10.215 8.105 6.34-7.991z"/><path fill="#EFEFEF" d="M170.724 132.048c1.75-2.206 2.026-4.902.616-6.021-1.411-1.119-3.973-.238-5.724 1.969s-2.027 4.902-.616 6.021c1.41 1.119 3.973.238 5.724-1.969"/><path fill="#FFC79D" d="M180.707 139.966c2.448-3.085 3.288-6.493 1.878-7.612-1.411-1.119-4.538.475-6.986 3.56s-3.288 6.492-1.878 7.611c1.411 1.119 4.538-.474 6.986-3.559"/><path fill="#FFC79D" d="m182.65 132.287-8.988 11.327 55.147 43.756 8.988-11.327z"/><path fill="#FF8D18" d="M235.897 183.795c2.476-3.119 3.339-6.556 1.929-7.675-1.411-1.119-4.561.503-7.036 3.623-2.476 3.12-3.339 6.556-1.929 7.675 1.411 1.119 4.561-.503 7.036-3.623"/></g><defs><clipPath id="a"><path fill="#fff" d="M0 0h240v240H0z"/></clipPath><clipPath id="b"><rect width="200" height="200" x="20.224" y="20" fill="#fff" rx="100"/></clipPath></defs></svg>