<svg xmlns="http://www.w3.org/2000/svg" width="300" height="300" fill="none" class="persona-ilustration" viewBox="0 0 300 300"><g clip-path="url(#a)"><g clip-path="url(#b)"><rect width="250" height="250" x="25" y="25" fill="#D3EDFF" rx="125"/><path fill="#FFC79D" d="M-14.932 0h178.541v319.885H-14.932z"/><path fill="#FF8D18" d="M162.996-22.89h178.541v319.885H162.996z"/><path fill="#FFC79D" d="M173.908-22.89h178.541v319.885H173.908z"/><path fill="#FFB26F" d="M-37.936 15.918 100.057-8.414v178.616l-137.993 24.332zm1.326 222.717 137.992-24.332V392.92l-137.993 24.331z"/><path fill="#D0F3FF" d="M-50.575 7.297 87.417-17.035v178.617l-137.992 24.331z"/><path fill="#8E8E8E" d="M251.822 37.355 173.999 53.07l-10.841-4.627-63.293 13.84c-3.56.723-6.44 4.183-6.44 7.742v55.888c0 3.559 2.88 5.851 6.44 5.139l151.957-24.928c3.559-.723 6.44-4.183 6.44-7.743V42.494c0-3.56-2.881-5.851-6.44-5.139" opacity=".4" style="mix-blend-mode:color-burn"/></g><path fill="#FEE283" d="m102.112 75.114 142.202-30.707c3.56-.712 6.441 1.58 6.441 5.139v6.12a4 4 0 0 0-.871.056l-12.561 2.215c-2.176.384-3.939 2.486-3.939 4.695v36.65c0 2.209 1.763 3.689 3.939 3.306l12.561-2.215q.45-.08.871-.252v5.312c0 3.56-2.881 7.019-6.441 7.742l-142.202 30.708c-3.56.712-6.441-1.58-6.441-5.14V82.856c0-3.56 2.881-7.019 6.441-7.742"/><path fill="#FFB700" d="M258.658 100.368h-15.557v12.737h.003l-.003.077c0 1.578 3.483 2.857 7.779 2.857s7.778-1.279 7.778-2.857l-.003-.077h.003z"/><path fill="#FFC509" d="M258.658 56.82h-15.557v43.548h.013q-.013.082-.013.165c0 1.578 3.483 2.857 7.779 2.857s7.778-1.279 7.778-2.857q0-.083-.013-.165h.013z"/><path fill="#FFB700" d="m258.658 45.294-.001.054a1 1 0 0 1-.002.13h.003v12.738h-.945c-1.319.908-3.885 1.524-6.833 1.524s-5.515-.616-6.834-1.524h-.945V45.478h.003l-.003-.076.002-.054-.002-.054c0-1.613 3.483-2.921 7.779-2.921s7.778 1.308 7.778 2.92"/><path fill="#FFA400" d="M135.063 81.145c-2.759.712-4.984 4.138-4.984 7.642v29.446c0 3.515 2.236 5.784 4.984 5.072 2.758-.712 4.983-4.138 4.983-7.642V86.218c0-3.515-2.236-5.785-4.983-5.073"/><path fill="#FEE283" fill-rule="evenodd" d="M130.423 83.472a5.56 5.56 0 0 1 7.676-1.717l14.895 9.45c9.428 5.564 14.214 12.087 16.546 17.602 1.152 2.725 1.668 5.115 1.89 6.896.111.889.148 1.628.155 2.183q.003.417-.009.693l-.004.099c-.039 6.556-2.413 12.764-7.173 16.412-5.175 3.966-11.91 3.948-17.988.05l-.177-.114-13.762-10.371a5.563 5.563 0 0 1 6.696-8.884l13.409 10.107c2.634 1.629 4.153 1.074 5.056.383 1.295-.994 2.816-3.511 2.816-7.75v-.233l.012-.148v-.114a8 8 0 0 0-.07-.94c-.111-.89-.391-2.269-1.097-3.936-1.376-3.255-4.528-7.989-12.02-12.393l-.082-.048-15.053-9.55a5.56 5.56 0 0 1-1.716-7.677" clip-rule="evenodd"/><path fill="#8E8E8E" d="M181.313 181.463c0 22.465-17.935 43.838-40.058 47.739s-40.057-11.148-40.057-33.612 17.934-43.838 40.057-47.739 40.058 11.148 40.058 33.612" opacity=".4" style="mix-blend-mode:color-burn"/><path fill="#4C39B0" d="M173.469 156.073c9.837 5.677 16.213 16.435 16.213 29.829 0 22.464-17.935 43.837-40.058 47.738-8.933 1.575-17.183.061-23.845-3.784-9.837-5.677-16.212-16.434-16.212-29.828 0-22.464 17.934-43.838 40.057-47.739 8.933-1.575 17.183-.06 23.845 3.784"/><path fill="#4C39B0" d="m187.766 164.328.154.088-14.45-8.343c-6.662-3.844-14.913-5.359-23.846-3.784l14.451 8.343c5.697-1.004 11.117-.752 16.024.56 5.975 6.051 9.582 14.635 9.582 24.71h.001c0 22.464-17.935 43.838-40.058 47.738-5.698 1.005-11.118.753-16.025-.56-5.975-6.051-9.582-14.634-9.582-24.709 0-22.465 17.935-43.838 40.058-47.739l-14.451-8.343c-22.123 3.901-40.057 25.274-40.057 47.739 0 13.394 6.375 24.151 16.212 29.828l14.44 8.337.011.006c6.662 3.845 14.912 5.359 23.845 3.784 22.123-3.901 40.057-25.274 40.057-47.738l-.001-.001c0-13.393-6.375-24.151-16.212-29.828z"/><path fill="#3E68F5" d="M204.132 194.245c0 22.464-17.935 43.838-40.058 47.738-22.123 3.901-40.057-11.147-40.057-33.612 0-22.464 17.934-43.838 40.057-47.738 22.123-3.901 40.058 11.147 40.058 33.612"/><path fill="#4C39B0" d="M177.814 182.023c4.919 2.839 8.106 8.218 8.106 14.915 0 11.232-8.967 21.918-20.028 23.869-4.467.787-8.592.03-11.923-1.892-4.919-2.839-8.106-8.217-8.106-14.914 0-11.232 8.967-21.919 20.029-23.87 4.466-.787 8.591-.03 11.922 1.892"/><path fill="#4C39B0" d="m185.039 186.195-7.193-4.153-.027-.016-.005-.003c-3.331-1.922-7.456-2.679-11.922-1.892-11.062 1.951-20.029 12.637-20.029 23.87l7.225 4.171c0-11.232 8.967-21.918 20.028-23.869 2.849-.503 5.559-.376 8.013.28 2.987 3.026 4.791 7.317 4.791 12.355 0 11.232-8.967 21.918-20.029 23.869-2.849.502-5.558.376-8.012-.28-2.987-3.026-4.791-7.318-4.791-12.355l-7.225-4.171c0 6.696 3.187 12.075 8.106 14.914l7.22 4.168-.055-.031.061.034c3.331 1.923 7.456 2.68 11.923 1.892 11.061-1.95 20.027-12.637 20.027-23.869 0-6.697-3.187-12.076-8.106-14.914"/><path fill="#FEEDB4" d="M193.146 201.109c0 11.232-8.967 21.919-20.029 23.869-11.061 1.951-20.028-5.573-20.028-16.806 0-11.232 8.967-21.918 20.028-23.869 11.062-1.95 20.029 5.574 20.029 16.806"/><path fill="#4C39B0" d="M177.401 205.886c1.822-1.709 3.061-4.209 3.061-6.567 0-3.419-2.605-5.243-5.817-4.074s-5.818 4.89-5.818 8.309c0 2.357 1.239 3.956 3.061 4.338l-3.911 8.634 13.335-4.854z"/><path fill="#fff" d="M142.037 120.778c3.514-2.828 7.238-4.476 11.042-5.861s8.494-1.197 12.008-.927 6.707 1.378 9.396 3.261 4.823 4.504 6.278 7.714c1.456 3.21 2.205 6.945 2.205 10.992v25.136l-.013-.008q0 .048-.003.093c-3.524-.564-5.06-1.359-7.271-2.641-2.424-1.582-3.47-2.772-3.166-3.947v-14.828c0-2.587-.479-4.974-1.409-7.025s-2.294-3.726-4.013-4.93-3.759-1.911-6.004-2.084c-2.246-.173-4.653.194-7.084 1.079-2.43.884-4.837 2.27-7.083 4.077-2.245 1.807-4.286 4.001-6.005 6.455-1.718 2.455-3.082 5.123-4.012 7.851s-1.409 5.464-1.409 8.051v16.715h-.008l.002.07c0 1.415-2.339 2.562-5.225 2.562s-5.225-1.147-5.225-2.562q0-.046.003-.091v-12.89l-.001-.946c-.01-3.938-.022-8.986 1.323-12.931 1.455-4.269 3.588-8.443 6.278-12.284s5.882-7.273 9.396-10.101"/><mask id="c" width="43" height="59" x="129" y="80" maskUnits="userSpaceOnUse" style="mask-type:alpha"><path fill="#F9E8BD" fill-rule="evenodd" d="M130.422 83.472a5.563 5.563 0 0 1 7.677-1.717l14.895 9.45c9.427 5.564 14.213 12.087 16.546 17.601 1.152 2.725 1.668 5.116 1.89 6.896.11.89.148 1.629.154 2.184q.003.417-.008.692l-.004.1c-.04 6.556-2.413 12.763-7.173 16.411-5.176 3.967-11.911 3.949-17.989.051l-.177-.114-13.761-10.371a5.563 5.563 0 0 1 6.695-8.884l13.41 10.107c2.633 1.629 4.153 1.074 5.055.382 1.296-.993 2.816-3.51 2.816-7.749v-.233l.013-.148v-.114a9 9 0 0 0-.07-.94c-.111-.891-.392-2.269-1.097-3.937-1.376-3.254-4.528-7.988-12.021-12.393l-.081-.048-15.053-9.55a5.563 5.563 0 0 1-1.717-7.676" clip-rule="evenodd"/></mask><g fill-rule="evenodd" clip-rule="evenodd" mask="url(#c)"><path fill="#FFB700" d="M130.422 83.472a5.563 5.563 0 0 1 7.677-1.717l14.895 9.45c9.427 5.564 14.213 12.087 16.546 17.601 1.152 2.725 1.668 5.116 1.89 6.896.11.89.148 1.629.154 2.184q.003.417-.008.692l-.004.1c-.04 6.556-2.413 12.763-7.173 16.411-5.176 3.967-11.911 3.949-17.989.051l-.177-.114-13.761-10.371a5.563 5.563 0 0 1 6.695-8.884l13.41 10.107c2.633 1.629 4.153 1.074 5.055.382 1.296-.993 2.816-3.51 2.816-7.749v-.233l.013-.148v-.114a9 9 0 0 0-.07-.94c-.111-.891-.392-2.269-1.097-3.937-1.376-3.254-4.528-7.988-12.021-12.393l-.081-.048-15.053-9.55a5.563 5.563 0 0 1-1.717-7.676"/><path fill="#fff" d="M156.847 114.034c-1.3.171-2.577.45-3.767.883-3.804 1.385-7.528 3.033-11.042 5.861s-6.707 6.26-9.396 10.101-4.823 8.015-6.278 12.284c-1.345 3.946-1.333 8.993-1.323 12.931l.001.946v28.74q-.003.046-.003.091c0 1.415 2.339 2.562 5.225 2.562s5.225-1.147 5.225-2.562v-.001h.006v-32.634c0-2.587.479-5.323 1.409-8.051s2.294-5.396 4.012-7.85c1.719-2.455 3.76-4.649 6.005-6.456s4.653-3.193 7.083-4.077a19 19 0 0 1 2.843-.801z"/></g></g><defs><clipPath id="a"><path fill="#fff" d="M0 0h300v300H0z"/></clipPath><clipPath id="b"><rect width="250" height="250" x="25" y="25" fill="#fff" rx="125"/></clipPath></defs></svg>