<svg xmlns="http://www.w3.org/2000/svg" width="300" height="300" fill="none" class="persona-ilustration" viewBox="0 0 300 300"><g clip-path="url(#a)"><g clip-path="url(#b)"><rect width="250" height="250" x="25" y="25" fill="#D3EDFF" rx="125"/><path fill="#82C2F1" d="M153.698 170.744v-6.484h132.805v6.484zm0 54.722v-6.484h132.805v6.484zm0 54.725v-6.483h132.805v6.483z"/><path fill="#AADBFF" d="M153.698 143.644h6.483v157.162h-6.483zm91.785 90.881h8.557v39.535h-8.557zm9.648 0h8.557v39.535h-8.557zm9.648 0h8.557v39.535h-8.557z"/><path fill="#82C2F1" d="m197.252 181.958 8.079-2.818 13.019 37.331-8.079 2.817z"/><path fill="#AADBFF" d="M167.964 179.446h8.557v39.535h-8.557zm9.763 0h8.557v39.535h-8.557zm9.762 0h8.557v39.535h-8.557z"/><path fill="#82C2F1" d="M237.228 197.363h34.021v21.619h-34.021z"/><path fill="#AADBFF" d="M233.754 197.363h40.969v6.1h-40.969zm-21.965 55.417c5.035 3.352 7.965 12.225 8.801 16.243-3.403-1.881-10.873-6.536-13.523-10.107-3.313-4.464-1.572-10.326 4.722-6.136"/><path fill="#AADBFF" d="M224.315 250.51c2.019 5.701-.956 14.559-2.696 18.276-1.596-3.547-4.783-11.751-4.763-16.198.026-5.559 4.934-9.205 7.459-2.078"/><path fill="#AADBFF" d="M234.681 253.894c-.756 6.001-7.393 12.579-10.618 15.118.168-3.885 1.006-12.647 3.021-16.611 2.52-4.955 8.543-6.008 7.597 1.493"/><path fill="#AADBFF" d="M233.403 264.912c-.636 3.042-3.293 9.127-8.83 9.127h-7.357c-5.537 0-8.193-6.085-8.83-9.127zm-42.912-20.738c-.442 9.955-2.286 29.864-6.13 29.865h-5.107c-3.843 0-5.688-19.91-6.129-29.865zM35 145h82.5v127.04H35z"/><path fill="#AADBFF" stroke="#82C2F1" stroke-width="2.5" d="M42.798 152.338h66.903v33.324H42.798zm0 39.519h66.903v33.324H42.798zm0 39.522h66.903v33.324H42.798z"/><rect width="15.575" height="3.315" x="68.462" y="156.826" fill="#82C2F1" rx="1.657"/><rect width="15.575" height="3.315" x="68.462" y="195.854" fill="#82C2F1" rx="1.657"/><rect width="15.575" height="3.315" x="68.462" y="235.895" fill="#82C2F1" rx="1.657"/><path fill="#FFC79D" d="m75.123 240.696 51.6 27.464-28.705 53.929-51.6-27.465z"/><path fill="#FFC79D" d="m85.031 191.039-10.571 55.15 43.254 24.101c7.948 4.429 35.152-26.067 40.512-50.072l-61.21-34.107z"/><path fill="#FFB26F" d="m113.047 227.308-21.033 15.559c12.014 6.695 22.859 8.037 25.146 8.295 12.431 1.402 55.219-5.625 41.675-52.855l-32.289 17.562z"/><path fill="#FFB26F" fill-rule="evenodd" d="M77.145 247.954a1.137 1.137 0 0 1 1.595-.206c3.79 2.927 10.474 7.384 18.145 11.192 7.689 3.817 16.258 6.924 23.851 7.264a1.138 1.138 0 1 1-.102 2.273c-8.061-.361-16.967-3.63-24.761-7.499-7.813-3.879-14.623-8.417-18.523-11.429a1.137 1.137 0 0 1-.206-1.595" clip-rule="evenodd"/></g><rect width="133.475" height="97.359" x="155.186" y="101.321" fill="#EFEFEF" rx="7.5"/><path fill="#666" fill-rule="evenodd" d="M226.772 180.383a2 2 0 0 0 .403-.001c5.485-.059 10.847-1.915 15.125-5.241a24.7 24.7 0 0 0 4.099-4.037q.158-.155.281-.349l.016-.027c3.365-4.352 5.272-9.77 5.272-15.335v-.067c-.015-5.544-1.923-10.874-5.217-15.169a2 2 0 0 0-.439-.556 24.9 24.9 0 0 0-8.172-6.579c-3.192-1.596-6.773-2.487-10.4-2.591a8 8 0 0 0-.697-.037l-.075-.001-.074.001a8 8 0 0 0-.719.041c-5.292.178-10.425 2.013-14.538 5.21a24.7 24.7 0 0 0-4.097 4.034 2 2 0 0 0-.301.383 25.32 25.32 0 0 0-5.26 15.084 2 2 0 0 0-.003.377c.003 1.669.173 3.347.521 5.01a24.84 24.84 0 0 0 4.709 10.134q.024.044.052.089.148.234.345.41c3.268 4.001 7.748 6.996 12.856 8.37a24.8 24.8 0 0 0 6.313.847m9.132-5.825a20.8 20.8 0 0 0 4.035-2.453 21 21 0 0 0 2.079-1.852 25 25 0 0 0-3.434-1.358 33 33 0 0 1-1.29 3.142c-.379.802-.84 1.664-1.39 2.521m8.597-7.356a21.36 21.36 0 0 0 3.536-9.932h-7.3a41 41 0 0 1-1.07 7.934 28.4 28.4 0 0 1 4.834 1.998m3.527-13.779a21.3 21.3 0 0 0-3.538-9.833 28.5 28.5 0 0 1-4.879 2.011q.219.955.411 1.976c.364 1.936.593 3.894.691 5.846zm-6.023-12.884a21 21 0 0 0-6.144-4.345c1.084 1.677 1.976 3.55 2.708 5.702 1.23-.389 2.37-.839 3.436-1.357m-23.997 34.016c-1.197-1.839-2.034-3.837-2.664-5.718-1.196.4-2.339.868-3.417 1.402a21.3 21.3 0 0 0 6.081 4.316m-8.575-7.355a30.4 30.4 0 0 1 4.857-2.059c-.558-2.409-.887-5.012-.995-7.871h-7.397q.106 1.241.364 2.476a20.9 20.9 0 0 0 3.171 7.454m-3.513-13.777h7.362a41.4 41.4 0 0 1 1.01-7.776 30.5 30.5 0 0 1-4.858-2.059 21.46 21.46 0 0 0-3.514 9.835m5.991-12.883a27 27 0 0 0 3.429 1.408c.757-2.219 1.639-4.113 2.656-5.699a20.7 20.7 0 0 0-6.085 4.291m24.33 7.747c.32 1.704.527 3.423.622 5.136h-7.972v-5.98a45 45 0 0 0 3.142-.278 51 51 0 0 0 3.848-.618q.19.84.36 1.74m-11.196-.804v5.94h-7.914a37.6 37.6 0 0 1 .878-6.781c2.252.477 4.613.76 7.036.841m0 9.787h-7.901c.101 2.505.388 4.78.863 6.875a40.7 40.7 0 0 1 7.038-.84zm11.846 0h-8v6.075a46 46 0 0 1 3.142.278c1.377.169 2.677.379 3.91.63a37 37 0 0 0 .948-6.983m-8 18.833c2.32-1.052 3.945-3.638 4.926-5.71q.56-1.183 1.02-2.44a48 48 0 0 0-3.275-.514 42 42 0 0 0-2.671-.243zm0-32.512v-8.899c1.677.784 2.927 2.389 3.48 3.2.976 1.429 1.784 3.052 2.452 4.944q-1.543.3-3.261.512-1.343.165-2.671.243m-3.846.046v-8.945a6 6 0 0 0-.809.454c-2.139 1.42-3.833 3.971-5.17 7.794 1.913.388 3.918.623 5.979.697m0 32.429v-8.917c-2.06.074-4.064.309-5.975.696.849 2.47 2.09 5.093 4.116 6.957a7.2 7.2 0 0 0 1.859 1.264" clip-rule="evenodd"/><path fill="#666" d="M155.186 108.821a7.5 7.5 0 0 1 7.5-7.5h118.475a7.5 7.5 0 0 1 7.5 7.5v4.338H155.186z"/><rect width="87.081" height="167.514" x="83.182" y="77.712" fill="#353535" rx="5.688"/><rect width="78.966" height="159.193" x="87.493" y="81.397" fill="#F8F8F8" rx="5.688"/><path fill="#353535" d="M133.171 80.975a6.18 6.18 0 1 1-12.359 0z"/><path fill="#FFC79D" d="m75.148 242.995 13.25 4.458s12.583-.299 14.148-9.788c2.809-17.022-.375-35.69-12.2-41.887-11.787-9.157-5.042-36.431-7.163-42.994-2.12-6.562-7.511-4.839-12.321 0s-4.028 19.33-4.764 33.445 2.121 37.501 9.05 56.766m104.798-62.505c2.169 9.016-2.321 9.416-7.669 10.703-5.349 1.287-10.586-1.418-11.699-6.042s2.321-9.416 7.669-10.703 9.822-1.758 11.699 6.042"/><path fill="#FFC79D" d="M180.129 196.496c2.26 8.212-2.036 8.763-7.136 10.167-5.101 1.403-10.175-.872-11.334-5.083s2.036-8.763 7.137-10.167 9.378-2.02 11.333 5.083"/><path fill="#FFC79D" d="M180.254 213.444c2.126 8.623-2.024 8.992-6.956 10.208s-9.813-1.384-10.903-5.806 2.024-8.993 6.956-10.208c4.931-1.216 9.064-1.654 10.903 5.806"/><path fill="#EA4F4A" fill-rule="evenodd" d="M104.569 171.109a18.7 18.7 0 0 0 13.264 5.492c5.179 0 9.869-2.099 13.263-5.492l26.527-26.516a18.7 18.7 0 0 0-13.263-5.492c-5.18 0-9.87 2.099-13.264 5.492a18.7 18.7 0 0 0-13.263-5.492c-11.131 0-18.175 8.366-18.756 19.028a18.68 18.68 0 0 0 5.492 12.98" clip-rule="evenodd"/><path fill="url(#c)" fill-rule="evenodd" d="M131.22 144.616a18.77 18.77 0 0 0-13.315-5.515c-11.174 0-18.244 8.401-18.828 19.108a18.77 18.77 0 0 0 5.513 13.035z" clip-rule="evenodd"/></g><defs><clipPath id="a"><path fill="#fff" d="M0 0h300v300H0z"/></clipPath><clipPath id="b"><rect width="250" height="250" x="25" y="25" fill="#fff" rx="125"/></clipPath><linearGradient id="c" x1="111.521" x2="131.22" y1="150.976" y2="171.244" gradientUnits="userSpaceOnUse"><stop stop-opacity="0"/><stop offset=".103" stop-opacity=".054"/><stop offset=".197" stop-opacity=".106"/><stop offset=".303" stop-opacity=".192"/><stop offset=".387" stop-opacity=".245"/><stop offset="1"/></linearGradient></defs></svg>