<svg xmlns="http://www.w3.org/2000/svg" width="240" height="240" fill="none" class="persona-ilustration" viewBox="0 0 240 240"><g clip-path="url(#a)"><g clip-path="url(#b)"><rect width="200" height="200" x="20" y="20" fill="#D3EDFF" rx="100"/><path fill="#AADBFF" d="M243.062 135.163 0 170.066v84.401l342.93-57.631z"/><path fill="#AADBFF" d="m137.598 99.834 4.479.933v69.447l-4.479-1.408z"/><path fill="#82C2F1" d="m146.549 99.834-4.48.933v69.447l4.48-.743zm-31.391-18.091v6.568l184.534 22.871V81.743z"/><path fill="#AADBFF" d="M120.791 98.812V88.737l150.488 15.967v14.841z"/><path fill="#D3EDFF" d="M194.696 40.9 182.68 70.523l33.72 2.515 14.345-35.024z"/><path fill="#8E8E8E" d="M87.483 158.134h8.031v21.24h-8.031z"/><path fill="#666" d="M91.503 177.963c2.098 0 3.819-.491 3.989-1.116h.013v18.803l.002.038c0 .673-1.792 1.218-4.002 1.218s-4.003-.545-4.003-1.218v-.001H87.5v-18.84h.014c.17.625 1.89 1.116 3.989 1.116"/><path fill="#2E2E2E" d="M53.892 187.719a3.652 3.652 0 1 0 0-7.304 3.652 3.652 0 0 0 0 7.304"/><path fill="#666" d="M58.328 183.883a4.454 4.454 0 0 0-6.326-4.021c-1.587.692-2.546 2.342-2.536 4.085 0 .554 1.982.996 4.426.996s4.427-.442 4.427-.996c0-.018-.019-.037-.028-.055h.028z"/><path fill="#535353" d="M87.483 180.615v8.911l-36.133-8.658v-3.366z"/><path fill="#8E8E8E" d="m87.5 179.909-35.588-3.062-.562.655 36.15 3.237z"/><path fill="#2E2E2E" d="M108.242 180.63a3.496 3.496 0 1 0-.001-6.991 3.496 3.496 0 0 0 .001 6.991"/><path fill="#666" d="M112.473 176.959a4.27 4.27 0 0 0-6.059-3.854c-1.522.664-2.435 2.25-2.425 3.91 0 .525 1.899.95 4.242.95s4.242-.425 4.242-.95c0-.019-.018-.037-.028-.056z"/><path fill="#535353" d="m95.502 179.362 12.737-10.343v3.679l-12.7 14.834z"/><path fill="#8E8E8E" d="m95.506 178.462 11.768-9.443h.968l-12.736 10.356z"/><path fill="#2E2E2E" d="M144.817 199.506a3.79 3.79 0 1 0 0-7.581 3.79 3.79 0 0 0 0 7.581"/><path fill="#666" d="M149.419 195.522a4.638 4.638 0 0 0-6.575-4.187c-1.651.719-2.647 2.444-2.638 4.242 0 .572 2.066 1.033 4.602 1.033s4.602-.461 4.602-1.033c0-.018-.019-.037-.028-.055z"/><path fill="#535353" d="m95.5 181.455 50.662 6.457v3.845l-50.661-.8z"/><path fill="#8E8E8E" d="m95.516 180.842 49.993 6.527.655.544-50.648-6.481z"/><path fill="#2E2E2E" d="M107.272 229.553a4.98 4.98 0 1 0-.001-9.961 4.98 4.98 0 0 0 .001 9.961"/><path fill="#666" d="M113.322 224.324a6.08 6.08 0 0 0-8.632-5.487c-2.167.941-3.477 3.2-3.458 5.57 0 .747 2.711 1.356 6.05 1.356s6.049-.609 6.049-1.356c0-.027-.027-.055-.037-.074h.037z"/><path fill="#535353" d="M93.146 182.464v10.089l14.128 27.87v-5.285z"/><path fill="#8E8E8E" d="M93.146 182.464h.775l14.322 32.573v5.386h-.969v-5.285z"/><path fill="#2E2E2E" d="M44.313 219.362a4.242 4.242 0 1 0 0-8.484 4.242 4.242 0 0 0 0 8.484"/><path fill="#666" d="M49.468 214.907a5.188 5.188 0 0 0-7.36-4.685c-1.853.802-2.96 2.73-2.951 4.749 0 .637 2.306 1.153 5.155 1.153s5.156-.516 5.156-1.153c0-.018-.028-.046-.028-.064z"/><path fill="#8E8E8E" d="m43.021 211.938-1.079-.839v-4.178L87.5 181.357v1.107L43.02 207.29z"/><path fill="#535353" d="M87.501 182.463 43.022 207.29v4.648l44.48-19.063z"/><path fill="#D3EDFF" d="M101.132 92.893-4.283 97.427h-8.846V-47.45h114.261z"/><path fill="#82C2F1" d="m101.027 94.57 9.396 2.21V3.513l-9.396 6.426z"/><path fill="#AADBFF" d="m101.201 94.496 9.346 2.262-116.98 5.744-6.442-3.382zm6.071-1.836-5.14-8.31-115.27-1.96 4.44 10.22 115.97.04zm0-9.13-5.14-8.39-115.27-3.78 4.44 10.29zm0-9.12-5.14-8.47-115.27-5.62 4.44 10.36 115.97 3.72zm0-9.13-5.14-8.55-115.27-7.44 4.44 10.43zm0-9.13-5.14-8.64-115.27-9.26 4.44 10.5zm0-9.12-5.14-8.72-115.27-11.1 4.44 10.57 115.97 9.24zm0-9.13-5.14-8.8-115.27-12.92 4.44 10.64zm0-9.12-5.14-8.88-115.27-14.76 4.44 10.71 115.97 12.92z"/></g><path fill="#666" d="m107.271 147.346 2.342-35.413h10.136l-3.385 35.413z"/><path fill="#535353" d="m85.978 111.933-.654-2.112 57.666 3.117s-.664 1.669-.83 2.011c-1.623 3.209-44.11 1.254-56.182-3.016"/><path fill="#666" d="M102.596 106.39s26.422 1.337 35.082 2.942c1.494.277 8.189 2.592 3.901 4.676-3.708 1.807-44.452-.526-55.26-3.366-2.241-.591-.72-3.911 4.777-4.538s11.5.277 11.5.277z"/><path fill="#FFC509" d="M23.35 53.178c19.438-5.042 30.57-7.133 49.099 2.316 0 0 6.288 2.182 7.413 6.894 1.125 4.713 14.897 47.673 15.57 55.982s-3.191 27.27-1.614 31.079-46.452 9.877-46.452 9.877c-6.954-2.471-5.608-8.3-6.28-27.15-.674-18.85-17.735-78.998-17.735-78.998"/><path fill="#FF9300" d="M45.725 164.362q-.348 0-.71-.055c-8.54-1.31-8.245-15.226-7.895-31.337.028-1.254.056-2.462.074-3.588.12-7.617-10.108-46.332-17.015-70.494a4.61 4.61 0 1 1 8.863-2.536c1.798 6.29 17.54 61.752 17.365 73.169-.018 1.143-.046 2.37-.074 3.643-.12 5.773-.405 18.97 1.208 22.345a4.616 4.616 0 0 1 2.73 4.934 4.614 4.614 0 0 1-4.556 3.91z"/><path fill="#FFB700" d="M101.555 135.164s-53.148 6.076-57.372 19.014c-1.854 5.681 38.92 13.779 38.92 13.779l61.603-13.779c2.158-.452 4.151-2.472 4.796-4.575.646-2.102.064-3.819-4.796-6.585-9.72-5.525-43.142-7.854-43.142-7.854z"/><path fill="#FF9300" d="M40.566 161.715c-2.38-4.049 5.118-13.797 14.285-12.201 9.167 1.595 29.487 10.781 29.496 17.31 0 2.341-8.53 2.341-8.53 2.341s-31.12-.432-35.251-7.45"/><path fill="#535353" d="m51.808 167.327 3.713-43.425h10.135l-3.674 44.264c-4.041 1.706-6.282.892-10.174-.839"/><path fill="#535353" d="m31.873 123.903-.655-2.112 57.666 3.117s-.664 1.67-.83 2.011c-1.623 3.209-44.11 1.254-56.181-3.016"/><path fill="#666" d="M48.498 118.37s26.422 1.337 35.082 2.942c1.494.276 8.189 2.591 3.9 4.675-3.707 1.808-44.45-.525-55.259-3.366-2.24-.59-.72-3.91 4.777-4.537s11.5.277 11.5.277zm119.82-38.83 13.35-33.868a2 2 0 0 1 1.486-1.23l36.212-6.908a1 1 0 0 1 1.129 1.317L206.053 79.54z"/><rect width="61.934" height="2.304" x="144.449" y="79.539" fill="#353535" rx=".5"/><path fill="#F8F8F8" d="m182.597 46.746-10.939 28.12a1 1 0 0 0 .932 1.363h31.179c.841 0 1.592-.526 1.879-1.316l12.518-34.384a1 1 0 0 0-1.127-1.325l-32.954 6.303a2 2 0 0 0-1.488 1.239"/></g><defs><clipPath id="a"><path fill="#fff" d="M0 0h240v240H0z"/></clipPath><clipPath id="b"><rect width="200" height="200" x="20" y="20" fill="#fff" rx="100"/></clipPath></defs></svg>