<svg xmlns="http://www.w3.org/2000/svg" width="150" height="150" fill="none" class="persona-ilustration" viewBox="0 0 150 150"><g clip-path="url(#y4nWcDT4Ex_a)"><g clip-path="url(#y4nWcDT4Ex_b)"><rect width="125" height="125" x="12.64" y="12.5" fill="#D3EDFF" rx="62.5"/><path fill="#AADBFF" d="m5.453 109.206 62.273-35.953 67.83 39.161-62.273 35.954z"/><path fill="#AADBFF" d="m-19.294 95.355 30.056-17.353 93.535 54.003-30.056 17.353z"/><g opacity=".75"><path fill="#D3EDFF" d="m11.685 65.885 23.46 13.545v12.663l-23.46-13.544z"/><path fill="#D3EDFF" d="m12.72 67.663 21.39 12.35v10.302l-21.39-12.35z"/><path fill="#82C2F1" fill-rule="evenodd" d="m12.414 67.133 22.002 12.702v11.01L12.414 78.143zm.612 1.06v9.596l20.777 11.995V80.19z" clip-rule="evenodd"/><path fill="#82C2F1" d="M58.604 65.885 35.143 79.43v12.663l23.46-13.544z"/><path fill="#4793CC" d="M23.056 76.504c0 .431-.303.606-.677.39-.373-.215-.676-.74-.676-1.171s.303-.607.676-.39c.374.215.677.74.677 1.17"/><path fill="#4793CC" d="M20.266 75.649c1.03.258 1.507.555 1.574-.304l.998 1.607c-.855-.31-.936.31-1.11 1.23z"/><path fill="#82C2F1" d="M22.071 77.49c0 .66-.463.927-1.035.597s-1.035-1.133-1.035-1.793.463-.927 1.035-.597 1.035 1.132 1.035 1.793"/><path fill="#D3EDFF" fill-rule="evenodd" d="m58.614 65.885-23.467-13.55-23.458 13.55.008.002h-.016l23.462 13.547 23.463-13.547z" clip-rule="evenodd"/><path fill="#D3EDFF" d="m11.685 53.227 23.46 13.544v12.664L11.684 65.89z"/><path fill="#D3EDFF" d="m12.72 55.005 21.39 12.349v10.302L12.72 65.307z"/><path fill="#82C2F1" fill-rule="evenodd" d="m12.414 54.475 22.002 12.702v11.01L12.414 65.484zm.612 1.06v9.596l20.777 11.995v-9.595z" clip-rule="evenodd"/><path fill="#82C2F1" d="M58.604 53.227 35.143 66.77v12.663l23.46-13.544z"/><path fill="#4793CC" d="M23.056 63.845c0 .431-.303.606-.677.39-.373-.215-.676-.74-.676-1.171s.303-.606.676-.39.677.74.677 1.171"/><path fill="#4793CC" d="M20.266 62.99c1.03.258 1.507.555 1.574-.304l.998 1.607c-.855-.31-.936.31-1.11 1.23z"/><path fill="#82C2F1" d="M22.071 64.83c0 .661-.463.929-1.035.599s-1.035-1.133-1.035-1.793.463-.928 1.035-.598 1.035 1.133 1.035 1.793"/><path fill="#D3EDFF" d="m58.614 53.226-23.467-13.55-23.458 13.55.008.002h-.016l23.462 13.547 23.463-13.547z"/><path fill="#D3EDFF" d="m11.685 40.568 23.46 13.544v12.663l-23.46-13.544z"/><path fill="#D3EDFF" d="m12.72 42.346 21.39 12.349v10.302L12.72 52.648z"/><path fill="#82C2F1" fill-rule="evenodd" d="m12.414 41.815 22.002 12.703v11.01L12.414 52.825zm.612 1.061v9.595l20.777 11.996V54.87z" clip-rule="evenodd"/><path fill="#82C2F1" d="m58.604 40.568-23.46 13.544v12.663l23.46-13.544z"/><path fill="#4793CC" d="M23.056 51.186c0 .432-.303.607-.677.39-.373-.215-.676-.74-.676-1.17 0-.432.303-.607.676-.392.374.216.677.74.677 1.172"/><path fill="#4793CC" d="M20.266 50.331c1.03.258 1.507.555 1.574-.303l.998 1.606c-.855-.31-.936.31-1.11 1.23z"/><path fill="#82C2F1" d="M22.071 52.172c0 .66-.463.928-1.035.598s-1.035-1.133-1.035-1.793.463-.928 1.035-.598 1.035 1.133 1.035 1.793"/><path fill="#AADBFF" d="m58.614 40.568-23.467-13.55-23.458 13.55.008.001h-.016l23.462 13.548 23.463-13.548z"/></g><path fill="#0061A0" d="m39.163 94.1 32.635-18.843v-45.22l-19.58 11.306v7.537a26.11 26.11 0 0 1-13.055 22.611v22.611z"/><path fill="#0083C7" d="m71.798 30.038 13.055 7.537v45.22l-13.055-7.536z"/><path fill="#0083C7" d="m52.217 101.638 32.636-18.843v-45.22L65.272 48.881v7.537a26.11 26.11 0 0 1-13.055 22.61v22.612z"/><path fill="#0090D5" d="m39.163 71.491 13.054 7.536v22.611L39.163 94.1z"/><path fill="#F8F8F8" d="M40.78 93.077v-18.26l9.29 5.362v18.26z"/><path fill="#0090D5" d="M41.87 78.196c0-.488.343-.686.766-.442l5.349 3.089c.423.244.765.837.765 1.325 0 .489-.342.686-.765.442l-5.35-3.088c-.422-.244-.765-.838-.765-1.326"/><path fill="#E47D10" d="m52.023 101.664 32.636-18.843V37.6L65.077 48.906v7.538a26.11 26.11 0 0 1-13.054 22.61v22.611z"/><path fill="#FF8D18" d="m84.658 37.601 13.055 7.538v45.22l-13.055-7.537z"/><path fill="#FF8D18" d="m65.077 109.201 32.636-18.843v-45.22L78.132 56.445v7.538a26.11 26.11 0 0 1-13.055 22.61v22.611z"/><path fill="#FFB26F" d="m52.023 79.055 13.054 7.535v22.611l-13.054-7.537z"/><path fill="#F8F8F8" d="M53.906 100.577V82.316l9.288 5.363v18.261z"/><path fill="#FFB26F" d="M54.995 85.696c0-.488.343-.686.766-.442l5.349 3.088c.423.244.765.838.765 1.326s-.342.686-.765.442l-5.35-3.088c-.422-.244-.765-.838-.765-1.326"/><path fill="#376352" d="m65.257 109.159 32.635-18.843v-45.22l-19.58 11.306v7.537a26.11 26.11 0 0 1-13.055 22.61v22.612z"/><path fill="#3D7360" d="m97.892 45.096 13.055 7.538v45.22l-13.055-7.536z"/><path fill="#498F79" d="m65.256 86.55 13.055 7.535v22.611l-13.055-7.537z"/><path fill="#F8F8F8" d="M67.007 108.104V89.843l9.289 5.362v18.261z"/><path fill="#498F79" d="M68.096 93.223c0-.489.343-.686.766-.442l5.349 3.088c.423.244.766.838.766 1.326s-.343.686-.766.442l-5.35-3.089c-.422-.244-.765-.837-.765-1.326"/><path fill="#43826E" d="m78.311 116.696 32.636-18.843v-45.22L91.366 63.94v7.538a26.11 26.11 0 0 1-13.055 22.61v22.611z"/><path fill="#498F79" d="M109.206 96.736V56.398L93.702 65.09v7.613A26.37 26.37 0 0 1 80.517 95.54v17.502z"/></g><path fill="#4793CC" fill-rule="evenodd" d="M98.06 82.454a.55.55 0 0 0-.088.247l-5.371 39.127c-.076.554-.496 1.139-.938 1.306s-.739-.146-.662-.7l5.37-39.127c.361-2.626 3.366-4.367 3.734-2.163l5.48 32.866c.078.465-.217 1.122-.659 1.466-.441.345-.862.247-.94-.218l-5.48-32.866c-.018-.107-.058-.135-.09-.144-.039-.013-.101-.005-.178.04a.6.6 0 0 0-.178.166" clip-rule="evenodd"/><path fill="#4793CC" fill-rule="evenodd" d="M91.527 108.469a.94.94 0 0 1 1.285-.322l29.089 17.424a.938.938 0 0 1-.963 1.609l-29.089-17.425a.937.937 0 0 1-.323-1.286M101.912 102.558a.94.94 0 0 1 1.286-.323l29.089 17.424a.938.938 0 0 1-.964 1.609l-29.088-17.424a.937.937 0 0 1-.323-1.286" clip-rule="evenodd"/><path fill="#AADBFF" d="M110.932 93.616 85.654 108.21v7.342l25.278-14.594z"/><path fill="#82C2F1" d="m85.688 115.533 25.278 14.594 25.244-14.575-25.278-14.594z"/><path fill="#D3EDFF" fill-rule="evenodd" d="M91.286 111.462q-.03.19-.031.407c0 1.394.979 3.09 2.187 3.788l9.703 5.602c1.208.697 2.187.132 2.187-1.263q0-.218-.031-.443l5.631 3.252v7.342l-25.278-14.594v-7.343z" clip-rule="evenodd"/><path fill="#AADBFF" d="m110.932 93.616 25.279 14.594v7.342l-25.279-14.594z"/><path fill="#AADBFF" d="m136.21 108.21-25.278 14.595v7.342l25.278-14.595z"/><path fill="#4793CC" fill-rule="evenodd" d="M93.245 93.134a.937.937 0 0 1 1.286-.323l29.089 17.425a.937.937 0 1 1-.964 1.608L93.568 94.42a.937.937 0 0 1-.323-1.286M100.116 90.304a.937.937 0 0 1 1.286-.323l29.089 17.425a.937.937 0 1 1-.964 1.608L100.439 91.59a.937.937 0 0 1-.323-1.286" clip-rule="evenodd"/><path fill="#AADBFF" d="M110.932 79.021 85.654 93.615v7.342l25.278-14.594z"/><path fill="#82C2F1" d="m85.688 100.938 25.278 14.594 25.244-14.575-25.278-14.594z"/><path fill="#D3EDFF" fill-rule="evenodd" d="M91.286 96.867q-.03.19-.031.407c0 1.395.979 3.09 2.186 3.788l9.704 5.602c1.208.697 2.187.132 2.187-1.263q0-.217-.031-.443l5.631 3.252v7.342l-25.278-14.594v-7.343z" clip-rule="evenodd"/><path fill="#AADBFF" d="m110.932 79.021 25.279 14.594v7.342l-25.279-14.594z"/><path fill="#AADBFF" d="m136.21 93.616-25.278 14.594v7.342l25.278-14.594z"/><path fill="#4793CC" fill-rule="evenodd" d="M126.736 94.578a.55.55 0 0 0-.088.246l-5.371 39.127c-.076.555-.496 1.139-.938 1.307s-.739-.147-.663-.701l5.372-39.127c.36-2.626 3.365-4.366 3.733-2.162l5.48 32.866c.078.465-.217 1.121-.659 1.466-.442.344-.863.246-.94-.219l-5.481-32.866c-.018-.107-.057-.134-.088-.144-.04-.012-.102-.004-.179.04a.6.6 0 0 0-.178.167" clip-rule="evenodd"/></g><defs><clipPath id="y4nWcDT4Ex_a"><path fill="#fff" d="M0 0h150v150H0z"/></clipPath><clipPath id="y4nWcDT4Ex_b"><rect width="125" height="125" x="12.64" y="12.5" fill="#fff" rx="62.5"/></clipPath></defs></svg>