<svg xmlns="http://www.w3.org/2000/svg" width="300" height="300" fill="none" class="persona-ilustration" viewBox="0 0 300 300"><g clip-path="url(#a)"><g clip-path="url(#b)"><rect width="250" height="250" x="25.281" y="25" fill="#D3EDFF" rx="125"/><mask id="c" width="365" height="366" x="-65" y="108" maskUnits="userSpaceOnUse" style="mask-type:alpha"><circle cx="117.597" cy="291.397" r="182.403" fill="#D9D9D9"/></mask><g mask="url(#c)"><circle cx="117.597" cy="291.397" r="182.403" fill="#0090D5"/><path fill="#A1DCAC" d="M97.715 110.067c-3.384-1.208-9.87-7.15-12.689-9.969-58.135-10.727-105.21 25.694-121.48 45.245-14.47 20.817-43.572 68.002-44.225 90.207s29.212 38.681 44.226 44.144c2.99-.345 9.109-.138 9.66 3.45.553 3.589 1.84 5.866 2.416 6.556l8.625 2.07c6.556.805 19.943 3.767 21.047 9.173s6.13 8.137 8.505 8.827c8.041 1.961 23.654 2.942 21.77-8.827-2.353-14.71 20.756-36.198 44.622-44.657 19.093-6.767 15.005-19.335 10.574-24.773-1.913-4.531-4.592-15.165 0-21.449 5.74-7.855 6.949-14.199 6.949-18.429 0-3.383-4.633-5.84-6.949-6.646-1.913-1.41-4.592-4.169 0-3.927 5.74.302 16.314-5.136 19.637-8.157 2.659-2.417-11.984-7.653-19.637-9.97-3.223-1.611-8.58-5.196-4.23-6.646 4.351-1.45 1.813-6.848 0-9.365-1.107-1.611-2.96-6.163-1.51-11.48 1.813-6.646 12.689-2.417 25.377-8.157s20.543-4.229 20.845-8.459-29.304-7.25-33.533-8.761m121.114 40.822c5.784-.826-.344-14.117-4.132-20.659 29.668 4.199 52.076 37.427 59.572 53.516l-20.053-11.793c-2.599-1.521-7.646-3.785-7.038-.665.761 3.899-6.657 1.236-6.657-1.046 0-1.826-6.087-3.551-9.13-4.185-1.68 0-4.394.266-1.807 1.331 2.587 1.066-.254 2.346-1.997 2.854-1.458-.222-4.889-.191-6.943 1.711s-.856 2.759 0 2.949l6.943 1.617c1.617.317 4.755 1.445 4.375 3.423-.381 1.978.539 3.361 1.046 3.804 1.109.856 4.165 2.968 7.513 4.565s1.395 2.632 0 2.949c-1.458.412-4.812.684-6.562-1.522s-6.562-4.406-8.75-5.231c-1.68-.475-5.497-1.141-7.323 0s-4.311.476-5.326 0c-1.902-1.046-5.991-2.663-7.132-.761-1.427 2.378-2.378.951-3.614 1.807-1.237.856-4.185-1.807-6.563.761-1.902 2.055-4.343 1.554-5.326 1.046-1.426-.602-3.043-2.51 1.903-5.325s2.06-4.217 0-4.565c-1.173-.127-3.519-.818-3.519-2.568 0-2.188 2.187-1.617 2.853-2.949.532-1.065 2.568-1.585 3.519-1.711.792-.603 2.91-1.579 5.041-.666 2.663 1.141 4.469-2.758 2.596-3.519-1.498-.609-.624-2.36 0-3.16.866-1.385 3.482-3.949 7.015-3.117s3.031-1.559 2.338-2.858c-.693-.693-2.13-2.494-2.338-4.157-.26-2.078 2.265-.843 9.496-1.876m46.893 69.745c7.171 6.723 29.706-4.962 71.741 23.901 42.522 45.342 95.16 172.344-34.463 317.611-97.653 109.439-135.326 8.727-155.392-101.941-14.241-11.284-12.518 4.314-23.802-4.978-.581-3.563 10.086-11.819 9.561-15.385-.771-5.231 10.011-13.593 9.356-18.798-.554-4.403-13.035 0-13.035-10.012-.355-3.26-10.223-1.638-10.534-4.859-.361-3.738 8.844-12.313 8.54-15.985 7.333-12.162 22.253-2.633 25.384-18.766 1.723-8.876 18.521-.424 8.116-11.029-.209-3.83-35.429-.292-35.576-3.981-13.881-5.793 3.891-14.577 4.067-19.803.327-9.756-2.427-14.027 2.341-14.981 7.323-1.464 13.439-6.528 15.582-8.876.228-1.71 1.641-4.719 5.47-3.077 3.83 1.641 10.038-2.771 12.663-5.182 1.804-1.962 6.329-5.563 10.003-4.268 4.592 1.619 6.298-.588 6.298-1.618 0-.825 3.076-1.507 4.614-1.745.546-1.037 2.697-2.49 6.934 0 11.221 8.369 11.525-2.043 10.275-8.295-4.039-3.874-13.135-11.732-17.209-12.169-5.092-.545-10.73 2.001-10.912-1.819s7.639-2 13.822-9.638c4.947-6.111.122-6.669-2.91-6.184-1.758 1.212-6.001 3.346-8.911 2.182-3.638-1.454-8.366 1.819-12.004 3.092s-4.728-.364-6.729-3.092c-1.6-2.182 1.758-3.94 3.638-4.546 3.576-.182 10.766-1.164 10.912-3.638.145-2.473 4.062-3.576 6.002-3.819 2.364-.606 7.092-2.291 7.092-4.183s1.092-3.334 1.638-3.819c.424-.727.69-2.582-1.638-4.183s-.97-2.849 0-3.274c.607-1.151 2.037-3.273 2.91-2.546s4.123-.303 5.638-.909c.59-.005 1.879-.787 2.321-3.874.441-3.088 4.41-1.287 6.34 0 1.103 1.286 3.419 1.984 3.86-5.514s9.924-3.124 14.611 0c1.746.735 5.127.772 4.686-4.962s6.213-1.076 9.595 1.971c11.952 6.162 21.933-3.732 29.105 2.991m-132.796-56.025c-2.907-.969-4.1-6.587 6.149-6.587 5.666 0 5.612-6.629 8.734-4.852 2.6 1.478 4.064 4.517 7.441 4.852 7.484.743 10.676 1.393 14.822 3.68 2.116 1.167-1.246 3.563 0 6.187s-2.245 3.574-4.146 3.721c-1.186.215-3.332 1.067-2.426 2.75 1.132 2.102 5.499.97 7.764 1.455 1.812.389 1.725 2.103 1.456 2.912-.593.377-3.268.906-9.22 0s-6.928 2.054-6.672 3.647c.431 1.83 1.034 3.636 0 6.22-1.292 3.23-12.274-.406-13.889-4.282s-10.013-1.615-14.212-1.938 1.615-11.628 6.137-12.92c3.618-1.034.215-3.661-1.938-4.845"/></g></g><path fill="#EA4F4A" d="M258.3 90.19c15.502-26.85 6.302-61.182-20.548-76.684s-61.182-6.302-76.684 20.547c-19.208 33.27-11.519 90.14-12.731 128.993-.075 2.39 2.586 3.926 4.618 2.666 33.041-20.476 86.136-42.252 105.345-75.522"/><path fill="#F8F8F8" d="M229.839 74.509c-6.531 11.311-20.995 15.187-32.306 8.656-11.312-6.53-15.187-20.994-8.656-32.306s20.994-15.187 32.306-8.656 15.187 20.994 8.656 32.306"/></g><defs><clipPath id="a"><path fill="#fff" d="M0 0h300v300H0z"/></clipPath><clipPath id="b"><rect width="250" height="250" x="25.281" y="25" fill="#fff" rx="125"/></clipPath></defs></svg>