<svg xmlns="http://www.w3.org/2000/svg" width="240" height="240" fill="none" class="persona-ilustration" viewBox="0 0 240 240"><g clip-path="url(#8EoFB4PSri_a)"><g clip-path="url(#8EoFB4PSri_b)"><mask id="8EoFB4PSri_c" width="200" height="200" x="20" y="20" maskUnits="userSpaceOnUse" style="mask-type:alpha"><circle cx="120" cy="120" r="100" fill="#fff"/></mask><g mask="url(#8EoFB4PSri_c)"><circle cx="120" cy="120" r="100" fill="#D3EDFF"/><path fill="#82C2F1" d="M123.158 136.595v-5.187h106.244v5.187zM123.158 180.372v-5.186h106.244v5.186zM123.158 224.152v-5.187h106.244v5.187z"/><path fill="#AADBFF" d="M123.158 114.915h5.187v125.729h-5.187zM196.587 187.62h6.845v31.628h-6.845zM204.305 187.62h6.845v31.628h-6.845zM212.023 187.62h6.845v31.628h-6.845z"/><path fill="#82C2F1" d="m158.002 145.566 6.463-2.254 10.415 29.864-6.463 2.254z"/><path fill="#AADBFF" d="M134.571 143.557h6.846v31.628h-6.846zM142.381 143.557h6.846v31.628h-6.846zM150.191 143.557h6.846v31.628h-6.846z"/><path fill="#82C2F1" d="M189.982 157.89h27.217v17.295h-27.217z"/><path fill="#AADBFF" d="M187.203 157.89h32.775v4.88h-32.775zM169.631 202.224c4.028 2.681 6.373 9.78 7.041 12.994-2.722-1.505-8.698-5.229-10.819-8.086-2.65-3.571-1.257-8.26 3.778-4.908"/><path fill="#AADBFF" d="M179.652 200.408c1.616 4.561-.765 11.647-2.157 14.62-1.277-2.837-3.826-9.4-3.81-12.958.021-4.447 3.947-7.364 5.967-1.662"/><path fill="#AADBFF" d="M187.945 203.115c-.605 4.801-5.915 10.063-8.494 12.094.134-3.108.804-10.117 2.416-13.288 2.016-3.964 6.835-4.807 6.078 1.194"/><path fill="#AADBFF" d="M186.923 211.929c-.509 2.434-2.635 7.302-7.064 7.302h-5.886c-4.429 0-6.555-4.868-7.064-7.302zM152.593 195.339c-.354 7.964-1.829 23.892-4.904 23.892h-4.086c-3.074 0-4.55-15.928-4.903-23.892zM28.2 116h66v101.632h-66z"/><path fill="#AADBFF" d="M33.439 120.87h55.523v28.659H33.439z"/><path fill="#82C2F1" fill-rule="evenodd" d="M86.962 122.87H35.439v24.659h51.523zm-53.523-2v28.659h55.523V120.87z" clip-rule="evenodd"/><path fill="#AADBFF" d="M33.439 152.486h55.523v28.659H33.439z"/><path fill="#82C2F1" fill-rule="evenodd" d="M86.962 154.486H35.439v24.659h51.523zm-53.523-2v28.659h55.523v-28.659z" clip-rule="evenodd"/><path fill="#AADBFF" d="M33.439 184.103h55.523v28.659H33.439z"/><path fill="#82C2F1" fill-rule="evenodd" d="M86.962 186.103H35.439v24.659h51.523zm-53.523-2v28.659h55.523v-28.659z" clip-rule="evenodd"/><path fill="#82C2F1" d="M54.97 126.786c0-.732.594-1.326 1.326-1.326h9.808a1.326 1.326 0 0 1 0 2.652h-9.808a1.326 1.326 0 0 1-1.326-1.326M54.97 158.008c0-.732.594-1.326 1.326-1.326h9.808a1.326 1.326 0 0 1 0 2.652h-9.808a1.326 1.326 0 0 1-1.326-1.326M54.97 190.041c0-.732.594-1.326 1.326-1.326h9.808a1.326 1.326 0 0 1 0 2.652h-9.808a1.326 1.326 0 0 1-1.326-1.326"/><path fill="#FFC79D" d="m60.099 192.557 41.279 21.972-22.963 43.142-41.28-21.971z"/><path fill="#FFC79D" d="m68.025 152.832-8.457 44.119 34.603 19.281c6.358 3.543 28.122-20.854 32.41-40.057l-48.968-27.286z"/><path fill="#FFB26F" d="m90.437 181.847-16.826 12.447c9.611 5.355 18.287 6.429 20.117 6.636 9.945 1.121 44.175-4.5 33.34-42.284l-25.832 14.05z"/><path fill="#FFB26F" fill-rule="evenodd" d="M61.716 198.363a.91.91 0 0 1 1.276-.164c3.033 2.342 8.38 5.907 14.516 8.953 6.152 3.054 13.007 5.54 19.081 5.812a.91.91 0 1 1-.081 1.818c-6.45-.289-13.574-2.904-19.81-5.999-6.25-3.103-11.698-6.734-14.818-9.143a.91.91 0 0 1-.164-1.277" clip-rule="evenodd"/></g></g><rect width="69.664" height="134.012" x="66.546" y="62.17" fill="#353535" rx="4.551"/><rect width="63.173" height="127.354" x="69.994" y="65.117" fill="#F8F8F8" rx="4.551"/><path fill="#353535" d="M106.537 64.78a4.94 4.94 0 0 1-4.943 4.944 4.943 4.943 0 0 1-4.944-4.944h9.887"/><path fill="#FFC79D" d="m60.118 194.396 10.6 3.567s10.067-.239 11.32-7.83c2.246-13.618-.301-28.552-9.761-33.51-9.43-7.326-4.034-29.145-5.73-34.395s-6.01-3.872-9.857 0c-3.848 3.872-3.222 15.464-3.812 26.756s1.698 30 7.24 45.412M143.956 144.392c1.736 7.213-1.856 7.532-6.135 8.562-4.278 1.03-8.468-1.134-9.359-4.834-.89-3.699 1.857-7.532 6.136-8.562 4.278-1.029 7.857-1.406 9.358 4.834"/><path fill="#FFC79D" d="M144.103 157.197c1.808 6.569-1.629 7.01-5.709 8.133-4.081 1.123-8.14-.697-9.067-4.066s1.629-7.01 5.709-8.133c4.081-1.123 7.503-1.616 9.067 4.066"/><path fill="#FFC79D" d="M144.203 170.755c1.7 6.898-1.619 7.194-5.565 8.166-3.945.973-7.851-1.107-8.723-4.644s1.62-7.194 5.565-8.167 7.252-1.323 8.723 4.645"/><path fill="#DB4747" d="M96.65 84.676a7.305 7.305 0 0 1 7.305-7.305h75.39a7.305 7.305 0 0 1 7.305 7.305v75.39a7.305 7.305 0 0 1-7.305 7.305h-75.39a7.305 7.305 0 0 1-7.305-7.305z"/><path fill="#fff" fill-rule="evenodd" d="M109.376 100.907c0-5.871 4.76-10.631 10.632-10.631h10.653a1.5 1.5 0 0 1 0 3h-10.653a7.63 7.63 0 0 0-7.632 7.631v10.653a1.5 1.5 0 1 1-3 0zm41.091-9.131a1.5 1.5 0 0 1 1.5-1.5h10.653c5.871 0 10.631 4.76 10.631 10.631v10.653a1.5 1.5 0 0 1-3 0v-10.653a7.63 7.63 0 0 0-7.631-7.631h-10.653a1.5 1.5 0 0 1-1.5-1.5m-39.591 39.59a1.5 1.5 0 0 1 1.5 1.5v10.653a7.63 7.63 0 0 0 7.632 7.631h10.653a1.5 1.5 0 0 1 0 3h-10.653c-5.872 0-10.632-4.76-10.632-10.631v-10.653a1.5 1.5 0 0 1 1.5-1.5m60.875 0a1.5 1.5 0 0 1 1.5 1.5v10.653c0 5.871-4.76 10.631-10.631 10.631h-10.653a1.5 1.5 0 1 1 0-3h10.653a7.63 7.63 0 0 0 7.631-7.631v-10.653a1.5 1.5 0 0 1 1.5-1.5M133.381 108.367a1.5 1.5 0 0 1 1.5 1.5v5.553a1.5 1.5 0 0 1-3 0v-5.553a1.5 1.5 0 0 1 1.5-1.5M149.246 108.367a1.5 1.5 0 0 1 1.5 1.5v5.553a1.5 1.5 0 1 1-3 0v-5.553a1.5 1.5 0 0 1 1.5-1.5M153.897 138.965a1.5 1.5 0 0 0 .65-2.019c-1.354-2.641-5.776-7.955-12.841-7.955-3.529 0-6.528 1.339-8.81 2.953-2.272 1.606-3.912 3.54-4.755 4.894a1.5 1.5 0 1 0 2.547 1.585c.639-1.026 2.006-2.662 3.94-4.03 1.924-1.361 4.329-2.402 7.078-2.402 5.487 0 9.085 4.206 10.172 6.324a1.5 1.5 0 0 0 2.019.65" clip-rule="evenodd"/></g><defs><clipPath id="8EoFB4PSri_a"><path fill="#fff" d="M0 0h240v240H0z"/></clipPath><clipPath id="8EoFB4PSri_b"><path fill="#fff" d="M20 20h200v200H20z"/></clipPath></defs></svg>