<svg xmlns="http://www.w3.org/2000/svg" width="300" height="300" fill="none" class="persona-ilustration" viewBox="0 0 300 300"><g clip-path="url(#a)"><g clip-path="url(#b)"><rect width="250" height="250" x="24.788" y="25.094" fill="#D3EDFF" rx="125"/><path fill="#F8F8F8" d="M226.471 250.446c5.843 0 10.57-2.039 10.57-4.568s-4.738-4.567-10.57-4.567-10.57 2.039-10.57 4.567 4.738 4.568 10.57 4.568m.022 25.474c8.147 0 14.765-2.815 14.765-6.288s-6.607-6.289-14.765-6.289-14.766 2.815-14.766 6.289 6.608 6.288 14.766 6.288"/><path fill="#F8F8F8" d="M215.904 245.549s-4.908 11.962-4.175 24.082h14.745v-22.424z"/><path fill="#F8F8F8" d="M237.008 245.549s4.939 11.962 4.206 24.082H226.47v-22.424z"/><path fill="#D3EDFF" d="M226.481 249.65c5.046 0 9.146-1.689 9.146-3.771s-4.09-3.771-9.146-3.771-9.146 1.689-9.146 3.771 4.089 3.771 9.146 3.771"/><path fill="#EFEFEF" d="m17.736 246.232 178.275-11.075-.512 79.2L17.736 324.77z"/><path fill="#F8F8F8" d="m27.136 255.807 159.263-9.813-.138 23.163-159.137 9.65z"/><path fill="#AADBFF" fill-rule="evenodd" d="m188.506 243.767-.163 27.361-163.314 9.903.015-27.193zM29.229 257.775l-.01 18.807 154.96-9.397.113-18.963z" clip-rule="evenodd"/><path fill="#AADBFF" d="M106.461 258.845c2.025-.125 3.663 1.4 3.663 3.4s-1.65 3.725-3.688 3.85c-2.037.125-3.662-1.4-3.662-3.4s1.65-3.725 3.687-3.85"/><path fill="#F8F8F8" d="m.862 222.957 154.5-7.013 40.65 19.213L0 247.332zM232.819 98.298l82.649.624 2.013 62.731-83.621.403z"/><path fill="#F8F8F8" d="m239.918 104.041 67.29.512 1.64 51.074-68.08.323z"/><path fill="#AADBFF" fill-rule="evenodd" d="m237.79 101.931 71.446.543 1.774 55.236-72.301.343zm4.257 4.22.781 47.695 63.858-.303-1.506-46.912z" clip-rule="evenodd"/><path fill="#AADBFF" d="m247.95 110.572 51.042.374 1.249 38.755-51.651.243zm-122.774 108.11h-.988l-1 2.95 3.313-.337.6-2.613z"/><path fill="#D3EDFF" d="m121.538 212.482 33.963-1.325s16.387 19.425 16.387 21.375l-37.737 2.325z"/><path fill="#F8F8F8" d="M121.538 212.483s13.175 19.112 13.113 21.275c-.063 2.162-1.4.487-1.4.487s-9.488-17.3-12.063-19.662c-1.062-1.538.35-2.088.35-2.088zm5.463.649c-.038.5.112 1 .4 1.425.55.8 1.512 2.038 2.137 2.075.925.063 2.05-.062 3.313 1.813 1.262 1.875 4.5 7.65 4.5 7.65s-.85.9.087 2.275c.938 1.375 2.263 3.562 3.975 3.562 1.3 0 4.713-.237 6.275-.337.525-.038.988-.3 1.3-.725l1.338-1.838-15.425-17.35-7.775-.125-.1 1.588z"/><path fill="#AADBFF" d="M127.101 211.545s.587-.463 2.312-.763 4.863-.3 4.863-.3 1.812.2 2.425.6 7.175 6.625 10.325 11.963 4.1 5.875 2.562 6.325-6.487.2-6.487.2-2.463-.563-3.838-3.713c-1.075-2.462-6.925-12.475-8.925-12.087-1.65.15-2.937-.775-3.225-2.225z"/><path fill="#F8F8F8" d="m122.176 215.745-.2 4.413 1.213 1.475 1-2.95zm26.337 3.951c.994 0 1.8-.386 1.8-.863 0-.476-.806-.862-1.8-.862s-1.8.386-1.8.862c0 .477.806.863 1.8.863m4.463-.338c.994 0 1.8-.386 1.8-.862 0-.477-.806-.863-1.8-.863s-1.8.386-1.8.863c0 .476.806.862 1.8.862m4.462-.287c.994 0 1.8-.386 1.8-.863 0-.476-.806-.862-1.8-.862s-1.8.386-1.8.862c0 .477.806.863 1.8.863m-7.462 2.912c.994 0 1.8-.386 1.8-.862 0-.477-.806-.863-1.8-.863s-1.8.386-1.8.863c0 .476.806.862 1.8.862m4.462-.35c.995 0 1.8-.386 1.8-.862 0-.477-.805-.863-1.8-.863-.994 0-1.8.386-1.8.863 0 .476.806.862 1.8.862m4.476-.275c.994 0 1.8-.386 1.8-.862 0-.477-.806-.863-1.8-.863-.995 0-1.8.386-1.8.863 0 .476.805.862 1.8.862m-7.376 2.675c.994 0 1.8-.386 1.8-.862s-.806-.863-1.8-.863-1.8.387-1.8.863.806.862 1.8.862m4.463-.35c.994 0 1.8-.386 1.8-.862 0-.477-.806-.863-1.8-.863s-1.8.386-1.8.863c0 .476.806.862 1.8.862m4.462-.275c.995 0 1.8-.386 1.8-.862s-.805-.863-1.8-.863c-.994 0-1.8.387-1.8.863s.806.862 1.8.862m-7.124 2.962c.994 0 1.8-.386 1.8-.862s-.806-.862-1.8-.862c-.995 0-1.8.386-1.8.862s.805.862 1.8.862m4.462-.337c.994 0 1.8-.386 1.8-.863 0-.476-.806-.862-1.8-.862s-1.8.386-1.8.862c0 .477.806.863 1.8.863m4.462-.288c.994 0 1.8-.386 1.8-.862s-.806-.862-1.8-.862-1.8.386-1.8.862.806.862 1.8.862"/><path fill="#AADBFF" d="m70.33 234.864-3.724-34.788-12.113 26.638 7.925 2.237z"/><path fill="#D3EDFF" d="M108.87 200.076H66.608l3.725 34.788 43.637-2.175z"/><path fill="#F8F8F8" d="m108.695 198.988-42.087 1.088 3.1 28.962 43.375-2.012z"/><mask id="c" width="38" height="23" x="71" y="203" maskUnits="userSpaceOnUse" style="mask-type:alpha"><path fill="#fff" d="m105.168 203.977-34.088.712 2.225 20.75 35.013-1.387z"/></mask><g mask="url(#c)"><path fill="#D3EDFF" d="m105.168 203.977-34.088.712 2.225 20.75 35.013-1.387z"/><path fill="#AADBFF" d="M70.306 208.453v-4.163l35.602-.649 1.162 3.548z"/><path fill="#AADBFF" fill-rule="evenodd" d="m106.133 203.325 1.364 4.162-37.504 1.289v-4.793zm-35.515 1.272v3.532l36.026-1.238-.961-2.933z" clip-rule="evenodd"/><path fill="#AADBFF" fill-rule="evenodd" d="m78.084 227.843-3.363-24.267.619-.086 3.363 24.267zm4.329-.16-3.363-24.267.619-.086 3.363 24.267zm4.329-.161-3.364-24.267.62-.086 3.363 24.267zm4.328-.161-3.363-24.267.619-.086 3.363 24.267zm4.329-.16-3.364-24.267.62-.086 3.363 24.267zm4.328-.161-3.363-24.267.62-.085 3.362 24.267zm4.329-.16-3.363-24.267.619-.086 3.363 24.267z" clip-rule="evenodd"/><path fill="#AADBFF" fill-rule="evenodd" d="m68.275 208.093 39.281-1.386.022.625-39.28 1.386zm.278 4.198 39.281-1.386.022.624-39.281 1.387zm.279 4.197 39.281-1.386.022.625-39.281 1.386zm.278 4.198 39.281-1.386.022.624-39.28 1.386z" clip-rule="evenodd"/></g></g><path fill="#AADBFF" fill-rule="evenodd" d="M214.556 188.322c-2.896-1.178-6.342-1.551-10.45-.837a.398.398 0 0 1-.136-.785c4.231-.735 7.832-.359 10.886.885 3.053 1.242 5.533 3.341 7.541 6.007 4.005 5.32 6.15 12.93 7.243 20.663 1.095 7.743 1.142 15.661.917 21.638-.112 2.99-.293 5.497-.446 7.257a106 106 0 0 1-.273 2.729l-.004.036-.001.012c-.001 0-.001.001-.396-.048l-.395-.049v-.002l.001-.009.004-.034.016-.136.059-.536c.05-.469.119-1.158.195-2.032.152-1.75.332-4.243.444-7.218.224-5.952.176-13.818-.91-21.496-1.087-7.689-3.207-15.138-7.091-20.296-1.937-2.573-4.308-4.57-7.204-5.749m14.832 57.952a.4.4 0 0 1-.346-.444l.395.049.396.048a.4.4 0 0 1-.445.347" clip-rule="evenodd"/><path fill="#F8F8F8" d="M188.444 212.587s-6.373-27.821 9.231-32.782c9.911-3.155 6.873 5.397 6.873 5.397s4.164-5.503 10.464-3.134c6.299 2.379 4.589 11.961 2.071 14.681-11.398 12.279-18.037 5.63-28.639 15.838"/><path fill="#AADBFF" fill-rule="evenodd" d="M204.541 185.632a.4.4 0 0 1 .045.562l-.303-.259-.303-.258a.397.397 0 0 1 .561-.045m-5.001 6.383.147-.172c.264-.308.51-.596.749-.861l.001-.001c.714-.8 1.752-1.997 2.61-2.993l1.091-1.271.448-.523-.303-.259-.303-.258-.447.522-1.09 1.269c-.858.995-1.891 2.188-2.6 2.982-.246.273-.499.569-.763.877l-.146.17-.001.002c-2.914 3.436-7.032 9.072-9.074 15.573a.398.398 0 0 0 .76.239c1.995-6.352 6.034-11.892 8.921-15.296" clip-rule="evenodd"/><path fill="#AADBFF" fill-rule="evenodd" d="M206.164 189.82c-1.477-.152-3.389.144-5.848 1.258a.399.399 0 1 1-.329-.726c2.549-1.154 4.604-1.494 6.259-1.324 1.66.17 2.888.852 3.782 1.687.888.83 1.438 1.805 1.766 2.566.164.381.274.712.344.949a7 7 0 0 1 .093.359l.005.023.001.006.001.002v.001l-.391.078.391-.077a.398.398 0 0 1-.782.154m0 0v-.003l-.003-.014-.015-.062a5 5 0 0 0-.065-.244 8 8 0 0 0-.311-.857c-.299-.696-.795-1.567-1.578-2.299-.779-.728-1.848-1.326-3.32-1.477m.215 9.278-.387.094za.397.397 0 1 1-.774.186l-.001-.003-.004-.015-.017-.063a9 9 0 0 0-.392-1.1c-.298-.694-.766-1.557-1.449-2.275-.679-.713-1.561-1.274-2.701-1.399-1.143-.126-2.601.18-4.444 1.309a.4.4 0 0 1-.416-.679c1.945-1.192 3.58-1.573 4.947-1.422 1.371.15 2.417.828 3.191 1.642.772.811 1.285 1.766 1.604 2.509a10 10 0 0 1 .429 1.203l.02.076.005.021.002.007zm-6.672 2.254-.385.103.385-.102a.397.397 0 0 1-.769.208v-.001l-.005-.014-.026-.072a1.9 1.9 0 0 0-.893-.93c-.753-.377-2.223-.539-4.971.842a.398.398 0 1 1-.358-.711c2.85-1.434 4.609-1.383 5.686-.844.533.267.865.639 1.064.946a2.4 2.4 0 0 1 .267.556l.003.012.002.005z" clip-rule="evenodd"/><path fill="#AADBFF" fill-rule="evenodd" d="M192.96 187.118h.002l.011-.003.05-.011q.066-.016.196-.039c.172-.032.419-.07.718-.099.601-.058 1.394-.074 2.19.085.795.158 1.572.486 2.17 1.097.594.607 1.047 1.529 1.138 2.943a.398.398 0 1 0 .795-.051c-.101-1.571-.614-2.683-1.363-3.449-.744-.76-1.686-1.143-2.585-1.322-.898-.179-1.775-.159-2.421-.096a9 9 0 0 0-1.008.152l-.061.014-.017.004-.005.001-.001.001h-.001l.096.387-.096-.387a.398.398 0 1 0 .192.773h-.001zm-2.143 6.466h.001l.007-.005.034-.019.136-.074c.12-.062.294-.145.505-.23.427-.171.985-.338 1.553-.353.562-.014 1.111.121 1.567.529.459.412.874 1.149 1.067 2.441a.398.398 0 1 0 .788-.118c-.21-1.406-.681-2.34-1.323-2.916-.646-.579-1.414-.75-2.119-.732-.699.017-1.357.22-1.83.409a7 7 0 0 0-.736.35l-.045.026-.012.007-.004.002-.001.001h-.001l.206.341-.206-.34a.398.398 0 0 0 .413.681m-2.16 5.984a.398.398 0 1 0 .489.629m21.593-15.253c-1.618-.09-3.811.396-6.772 1.929a.399.399 0 0 1-.366-.707c3.031-1.57 5.371-2.119 7.183-2.018 1.827.102 3.089.864 3.944 1.844.846.968 1.281 2.132 1.507 3.036.113.455.175.851.209 1.134a6 6 0 0 1 .038.43l.001.026v.01s.001.001-.377.012l.378-.011a.399.399 0 0 1-.797.025v-.004l-.001-.019-.005-.076a6 6 0 0 0-.028-.299 9 9 0 0 0-.191-1.035c-.209-.838-.602-1.868-1.334-2.705-.722-.827-1.787-1.483-3.389-1.572" clip-rule="evenodd"/><path fill="#AADBFF" fill-rule="evenodd" d="M196.742 182.955a.397.397 0 1 1-.256-.754l.128.377-.128-.377h.001l.001-.001.006-.002.022-.007.079-.025q.104-.034.293-.088c.25-.072.604-.165 1.021-.253.829-.175 1.932-.336 2.978-.251 1.037.084 2.104.418 2.739 1.317.637.902.751 2.251.178 4.157a.398.398 0 1 1-.763-.229c.543-1.807.364-2.859-.066-3.469-.434-.614-1.208-.905-2.152-.982-.935-.075-1.953.068-2.749.236-.396.084-.731.172-.967.24q-.177.051-.273.081l-.07.023-.018.006-.003.001zm29.256 62.875-.395.049-.395.048-.002-.011-.004-.036-.017-.14-.059-.542a106 106 0 0 1-.197-2.048c-.152-1.76-.333-4.267-.446-7.257-.225-5.976-.178-13.894.917-21.637 1.093-7.733 3.238-15.344 7.243-20.664 2.008-2.666 4.488-4.764 7.541-6.007s6.655-1.62 10.886-.884a.398.398 0 0 1-.136.785c-4.108-.715-7.554-.342-10.45.837s-5.267 3.175-7.204 5.748c-3.884 5.158-6.004 12.607-7.091 20.296-1.086 7.679-1.134 15.545-.91 21.496.112 2.975.292 5.469.444 7.218a105 105 0 0 0 .254 2.568l.016.137.004.034zm-.346.445a.4.4 0 0 1-.444-.348l.395-.048.395-.049a.4.4 0 0 1-.346.445" clip-rule="evenodd"/><path fill="#F8F8F8" d="M253.34 187.411s-7.054-8.902 1.519-10.506c6.554-1.232 16.37 12.578 17.134 19.674.765 7.096-.106 13.066-1.306 15.636-.351.755-1.02.096-1.02.096s-14.096-7.5-24.262-13.48c-12.121-7.128-12.833-17.804-5.63-18.675 7.202-.86 13.565 7.255 13.565 7.255"/><path fill="#AADBFF" fill-rule="evenodd" d="M253.849 188.032a.4.4 0 0 1 .558-.078l-.239.318.239-.318.003.001.006.005.024.019a17 17 0 0 1 .439.348c.3.244.732.604 1.263 1.075a53 53 0 0 1 4.112 4.088c3.182 3.527 6.912 8.599 9.066 14.759a.398.398 0 1 1-.752.263c-2.107-6.025-5.764-11.007-8.906-14.488a52 52 0 0 0-4.049-4.026 39 39 0 0 0-1.237-1.053q-.22-.178-.335-.268l-.086-.066-.021-.016-.005-.004-.001-.001" clip-rule="evenodd"/><path fill="#AADBFF" fill-rule="evenodd" d="M263.572 184.24c.001 0 .001.001-.231.272za.398.398 0 1 1-.517.606l-.002-.001-.006-.006-.027-.022-.105-.088a30 30 0 0 0-1.804-1.366c-1.151-.805-2.611-1.698-3.919-2.126-.655-.214-1.235-.299-1.703-.226-.448.07-.802.284-1.048.714-.258.451-.417 1.173-.366 2.285.051 1.106.307 2.559.837 4.441a.399.399 0 0 1-.533.477l-.003-.001-.009-.004-.036-.014-.143-.057a52 52 0 0 0-2.451-.88c-1.567-.519-3.604-1.112-5.51-1.419-.953-.154-1.861-.235-2.656-.204-.8.032-1.449.177-1.91.444-.442.256-.723.63-.804 1.188-.084.582.045 1.396.526 2.513a7.9 7.9 0 0 0 1.603 2.409c.255.262.479.455.638.581q.121.094.185.139l.046.032.01.007h.001a.4.4 0 0 1-.43.671l.215-.335-.215.335-.001-.001-.002-.001-.005-.003-.018-.012-.063-.044a6 6 0 0 1-.218-.164 8 8 0 0 1-.714-.649 8.7 8.7 0 0 1-1.764-2.65c-.508-1.181-.697-2.154-.583-2.943a2.35 2.35 0 0 1 1.193-1.763c.621-.359 1.418-.516 2.279-.55.866-.034 1.831.054 2.814.213 1.967.318 4.049.925 5.633 1.449a53 53 0 0 1 1.952.689c-.404-1.56-.613-2.831-.66-3.858-.054-1.183.106-2.079.471-2.717.377-.658.95-1.001 1.616-1.105.645-.101 1.363.023 2.074.256 1.423.466 2.962 1.415 4.127 2.23.587.41 1.087.791 1.441 1.071.177.139.317.254.414.333l.111.093.029.024.008.007zm-2.385 2.914c1.063-.179 2.395.085 4.066.99a.398.398 0 1 1-.379.701c-1.584-.858-2.731-1.044-3.555-.906-.813.137-1.374.599-1.773 1.184-.403.592-.63 1.299-.754 1.873a8 8 0 0 0-.135.903l-.004.051v.014l-.398-.017-.398-.017v-.008l.001-.018.004-.064q.006-.083.022-.231l.028-.217a8 8 0 0 1 .101-.564c.136-.625.391-1.443.875-2.154.49-.719 1.224-1.34 2.299-1.52m-3.088 5.16-.004-.002-.017-.007-.07-.028q-.094-.037-.273-.103c-.238-.085-.579-.2-.99-.314-.826-.229-1.919-.452-3.014-.445-1.099.007-2.159.244-2.967.892-.796.639-1.409 1.726-1.524 3.563a.398.398 0 1 1-.795-.049c.125-2.003.808-3.323 1.821-4.135 1.001-.803 2.265-1.06 3.459-1.068 1.198-.008 2.369.235 3.233.474.383.107.709.214.954.3m.187.922a.4.4 0 0 0 .554-.35m5.592.543c.79-.176 1.739-.086 2.87.401a.399.399 0 0 1-.315.732c-1.015-.437-1.791-.487-2.381-.355-.591.132-1.038.456-1.38.844a4.2 4.2 0 0 0-.716 1.202c-.071.178-.12.331-.151.438l-.032.122-.007.029-.002.006-.389-.081-.39-.082v-.002l.001-.004.003-.013.01-.043q.013-.056.041-.152.026-.092.066-.213.044-.136.11-.3c.164-.411.434-.95.858-1.432.426-.486 1.014-.92 1.804-1.097m-2.643 3.711-.003-.001-.014-.005-.056-.02-.224-.074a13 13 0 0 0-.82-.225c-.688-.163-1.608-.32-2.558-.307-.952.013-1.904.198-2.681.69-.765.484-1.398 1.287-1.688 2.618a.399.399 0 0 1-.778-.17c.331-1.522 1.081-2.515 2.04-3.122.946-.598 2.06-.798 3.096-.813 1.038-.014 2.028.157 2.753.329.325.077.599.155.804.218m.129.882a.398.398 0 0 0 .529-.292m4.744 1.457c.652-.169 1.414.02 2.292.619a.399.399 0 1 1-.449.658c-.779-.531-1.301-.595-1.643-.506-.346.09-.625.366-.847.773-.221.405-.356.886-.435 1.28a7 7 0 0 0-.093.616l-.003.034v.008l-.001.001-.397-.028-.397-.027v-.006l.001-.012.004-.045q.005-.058.017-.159c.013-.105.033-.244.062-.404l.026-.135c.086-.43.241-.999.516-1.504.274-.502.699-.995 1.347-1.163m-1.803 3.783-.008-.005-.033-.022-.134-.085a7 7 0 0 0-.496-.276c-.42-.213-.978-.445-1.56-.546s-1.15-.067-1.628.205c-.471.268-.923.804-1.201 1.844a.398.398 0 1 1-.769-.206c.317-1.186.872-1.93 1.576-2.33.696-.396 1.472-.418 2.159-.298.689.12 1.325.389 1.783.62q.121.062.226.119m.086.981a.4.4 0 0 0 .624-.3m-50.098 11.626-.015-.398a.398.398 0 0 0 .029.796h-.002.015l.072.003c.067.004.17.014.306.039.271.049.671.155 1.159.384.971.456 2.31 1.411 3.676 3.418 2.739 4.025 5.58 12.278 5.739 29.149a.398.398 0 1 0 .796-.008c-.159-16.93-3.007-25.372-5.876-29.589-1.439-2.115-2.885-3.169-3.997-3.692a5.5 5.5 0 0 0-1.355-.446 4 4 0 0 0-.51-.055h-.05c-.001.001-.002.001.013.399" clip-rule="evenodd"/><path fill="#F8F8F8" d="M215.128 212.088s8.881-3.941 11.324 1.137c3.941 8.2-17.91 14.648-22.902 24.251s-4.409 4.717-4.409 4.717-6.405-17.963-1.211-26.897c4.472-7.68 12.046-8.519 17.209-3.208z"/><path fill="#AADBFF" fill-rule="evenodd" d="m214.163 214.596-.003.001-.032.01-.141.052c-.128.05-.32.132-.568.259h-.001c-2.26 1.145-9.242 6.01-12.835 23.679a.399.399 0 0 1-.78-.159c3.63-17.852 10.733-22.952 13.254-24.23a7 7 0 0 1 .817-.356l.05-.016.014-.004.005-.002h.002l.001-.001.11.383-.11-.383.008-.002.099.376-.099-.376h.002l.003-.001.014-.004.051-.013.191-.046a25 25 0 0 1 2.959-.512c.878-.096 1.842-.145 2.744-.072.895.073 1.77.27 2.437.698l.002.002c.235.153.417.378.555.6.141.225.253.471.339.693a7 7 0 0 1 .238.764l.013.052.003.015.001.004v.002l-.389.084.389-.084a.399.399 0 0 1-.779.167m0 0v-.002l-.002-.01-.01-.041q-.013-.055-.041-.157a6 6 0 0 0-.166-.506 3.4 3.4 0 0 0-.271-.559 1.15 1.15 0 0 0-.314-.354c-.507-.325-1.229-.505-2.069-.574-.834-.068-1.744-.023-2.594.07a24 24 0 0 0-3.043.539l-.046.012-.008.002" clip-rule="evenodd"/><path fill="#AADBFF" fill-rule="evenodd" d="m203.262 213.182-.267-.296a.4.4 0 0 0 .534.592v-.001l.002-.002.011-.009.047-.041q.065-.055.191-.155c.169-.132.416-.315.728-.516.626-.402 1.5-.867 2.505-1.135s2.127-.336 3.268.037c1.139.372 2.332 1.196 3.46 2.777a.398.398 0 1 0 .648-.463c-1.209-1.696-2.534-2.638-3.86-3.071-1.322-.433-2.608-.347-3.721-.05-1.111.296-2.061.805-2.731 1.235a10 10 0 0 0-1.003.733l-.057.049-.015.014-.005.004-.001.001-.001.001zm5.726 4.537.184-.048c.261-.067.634-.16 1.08-.262a39 39 0 0 1 3.266-.619c1.176-.165 2.384-.253 3.294-.123.452.065.88.191 1.194.43.341.26.522.639.474 1.107a.398.398 0 1 1-.792-.08c.019-.185-.038-.296-.166-.393-.154-.118-.423-.217-.823-.275-.794-.114-1.908-.04-3.07.123a38 38 0 0 0-3.198.606 42 42 0 0 0-1.358.335l-.078.021-.02.006-.005.001a.4.4 0 0 1-.402-.117l-.002-.002-.008-.008-.033-.036-.135-.138a10 10 0 0 0-.514-.474 8.8 8.8 0 0 0-1.77-1.197c-.711-.354-1.493-.584-2.274-.529-.768.055-1.573.388-2.345 1.229a.4.4 0 0 1-.587-.539c.902-.981 1.892-1.414 2.876-1.484.971-.069 1.897.218 2.685.609a9.6 9.6 0 0 1 1.934 1.307 10 10 0 0 1 .593.55m-3.54 5.118.073-.03c.202-.083.492-.198.843-.33.7-.262 1.648-.592 2.63-.856.976-.262 2.012-.467 2.881-.466.831.002 1.703.196 2.055.952a.398.398 0 1 1-.722.337c-.135-.291-.535-.491-1.335-.492-.762-.002-1.718.182-2.672.438-.949.256-1.871.576-2.557.833-.343.129-.626.241-.823.322l-.227.093-.059.025-.015.007-.003.001m-.446-.089-.001-.001-.007-.007-.028-.029-.116-.112a10 10 0 0 0-.441-.391 9.6 9.6 0 0 0-1.524-1.052c-1.246-.678-2.7-1.026-3.947-.115a.4.4 0 0 1-.47-.644c1.632-1.192 3.471-.664 4.798.06.674.367 1.249.8 1.654 1.14a10 10 0 0 1 .459.406m-2.757 6.261q.164-.145.381-.325a16 16 0 0 1 1.878-1.362c.717-.438 1.525-.826 2.283-.936.781-.114 1.559.067 2.073.824a.398.398 0 0 1-.659.447c-.294-.432-.723-.566-1.299-.483-.598.087-1.296.408-1.983.828-.68.415-1.316.905-1.784 1.295a19 19 0 0 0-.705.618l-.039.036-.009.009-.002.002a.4.4 0 0 1-.647-.141m.512-.812a10 10 0 0 0-.147-.299 9.5 9.5 0 0 0-1.021-1.621c-.428-.533-.978-1.046-1.631-1.246-.696-.212-1.431-.046-2.132.622a.398.398 0 1 0 .549.577c.526-.5.969-.553 1.35-.437.424.13.849.493 1.243.983a8.7 8.7 0 0 1 .932 1.482 10 10 0 0 1 .324.699l.016.04.004.009.001.003m40.538-20.43a.4.4 0 0 1 .044.562 66.45 66.45 0 0 0-13.253 24.438c-.999 3.402-1.534 6.261-1.819 8.266a41 41 0 0 0-.268 2.33q-.032.404-.043.611l-.008.155-.001.038-.001.009v.002m15.349-36.411a.4.4 0 0 0-.562.044zm-.562.044a67.3 67.3 0 0 0-13.412 24.732zm-13.412 24.732c-1.01 3.443-1.553 6.34-1.843 8.378zm-1.843 8.378a41 41 0 0 0-.273 2.376zm-.273 2.376q-.032.415-.044.633zm-.044.633-.009.165zm-.009.165-.001.042zm-.001.042-.001.012zm-.001.012v.003zm0 .003.398.014z" clip-rule="evenodd"/><path fill="#F8F8F8" d="M242.684 209.527s-3.283-4.09-11.324-.712c-10.092 4.239 9.507 17.008 16.986 19.844 9.613 3.633 13.49 8.445 13.49 8.445s6.353-14.086 3.74-21.171c-1.806-4.929-11.77-15.871-22.903-6.395z"/><path fill="#AADBFF" fill-rule="evenodd" d="M246.253 211.377q.128-.107.285-.229c.529-.41 1.283-.916 2.184-1.309 1.796-.782 4.147-1.107 6.525.647a.398.398 0 1 0 .473-.641c-2.678-1.975-5.351-1.593-7.316-.736a11.2 11.2 0 0 0-3.19 2.127l-.047.046-.013.013-.003.004-.001.001c-.001 0-.001.001.285.278l-.286-.277a.399.399 0 0 0 .195.665c1.534.358 2.448.778 3.241 1.34.592.418 1.116.912 1.785 1.542.253.24.528.499.836.781.328.318.651.631.963.953 3.2 3.33 5.33 7.554 6.662 10.963a45 45 0 0 1 1.425 4.258c.148.533.255.959.324 1.25q.052.22.077.334l.018.085.005.02.001.005v.001a.399.399 0 0 0 .781-.159l-.338.069.338-.069-.001-.003-.001-.006-.005-.024-.02-.091q-.026-.12-.08-.346c-.071-.301-.18-.736-.332-1.28a46 46 0 0 0-1.45-4.334c-1.351-3.457-3.528-7.789-6.829-11.225l-.001-.001a41 41 0 0 0-.985-.974l-.002-.002-.008-.008q-.422-.39-.794-.741c-.687-.647-1.268-1.195-1.909-1.649-.752-.532-1.589-.939-2.792-1.278" clip-rule="evenodd"/><path fill="#AADBFF" fill-rule="evenodd" d="m259.792 213.846-.134.319za.398.398 0 1 1-.309.734h-.001l-.004-.002-.019-.008-.074-.03-.284-.112a24 24 0 0 0-1.015-.365c-.838-.282-1.934-.603-2.989-.77-1.077-.17-2.025-.165-2.625.119-.282.134-.477.325-.585.592-.112.276-.15.676-.028 1.253a.4.4 0 0 1-.488.468h-.001l-.007-.002-.025-.006-.102-.025-.389-.089a36 36 0 0 0-1.394-.28c-1.156-.209-2.686-.429-4.2-.482-1.526-.054-2.987.066-4.032.502-.517.216-.911.501-1.167.859-.253.353-.395.807-.361 1.409a.398.398 0 0 1-.796.045c-.043-.761.138-1.4.509-1.918.367-.512.898-.875 1.508-1.13 1.208-.504 2.81-.618 4.366-.564 1.568.055 3.139.283 4.314.495.575.104 1.057.204 1.4.28q-.041-.63.155-1.115c.194-.479.548-.806.982-1.012.834-.395 1.994-.359 3.09-.186 1.118.177 2.262.513 3.12.802a26 26 0 0 1 1.343.493l.079.033.021.008.006.003zm-1.441 2.902c.875.15 1.865.686 2.987 1.767a.398.398 0 0 1-.553.574c-1.056-1.018-1.907-1.443-2.568-1.555a1.97 1.97 0 0 0-1.56.366c-.416.304-.726.732-.935 1.1a4.6 4.6 0 0 0-.293.623l-.003.007-.377-.127-.377-.128v-.002l.002-.005.005-.013q.005-.018.017-.047a4 4 0 0 1 .113-.269c.055-.122.128-.271.22-.433.238-.419.615-.953 1.158-1.349a2.77 2.77 0 0 1 2.164-.509m-3.4 3.141-.005-.001-.016-.004-.069-.017-.268-.06c-.232-.05-.567-.117-.972-.185a19.4 19.4 0 0 0-3.022-.275c-1.126-.004-2.251.124-3.152.493-.889.364-1.536.951-1.787 1.871a.398.398 0 0 1-.768-.21c.333-1.22 1.2-1.967 2.253-2.398 1.041-.427 2.286-.557 3.457-.552a20 20 0 0 1 3.15.285c.419.07.766.14 1.009.192l.048.011m.142.85a.4.4 0 0 0 .475-.259m4.566 2.958c.584.134 1.202.645 1.889 1.575a.398.398 0 1 1-.641.473c-.662-.896-1.134-1.205-1.426-1.272-.231-.053-.419.034-.611.285-.201.262-.347.641-.444.982a5 5 0 0 0-.1.418q-.016.079-.023.122l-.005.031-.001.007v.001a.396.396 0 0 1-.639.258l.245-.314-.395-.057.001-.001v-.004l.002-.011.007-.041q.008-.053.026-.146c.021-.106.053-.249.097-.411l.019-.069c.105-.372.284-.867.577-1.25.302-.394.777-.725 1.422-.576m-2.018 1.895q-.195-.129-.446-.28c-.569-.34-1.355-.743-2.189-.966-.828-.222-1.763-.281-2.581.148-.832.437-1.445 1.326-1.733 2.786a.4.4 0 0 0 .782.154c.259-1.313.772-1.946 1.321-2.235.564-.295 1.266-.282 2.005-.084.734.197 1.448.56 1.987.881a12 12 0 0 1 .814.538l.044.034.011.008.002.001m-12.519-14.283-.058.394-.059.394-.007-.002-.025-.003-.099-.014-.378-.05a45 45 0 0 0-1.352-.148 39 39 0 0 0-4.076-.187c-1.481.021-2.91.164-3.937.524-.513.18-.894.404-1.134.664-.23.248-.345.541-.316.916a.399.399 0 0 1-.795.06 1.94 1.94 0 0 1 .526-1.517c.363-.392.877-.672 1.455-.874 1.153-.405 2.688-.549 4.19-.569a40 40 0 0 1 4.162.19 46 46 0 0 1 1.764.202l.103.014.027.004zm.336.452a.4.4 0 0 1-.453.336l.059-.394.058-.394a.4.4 0 0 1 .336.452" clip-rule="evenodd"/><path fill="#F8F8F8" d="m21.408 51.091 182.874 6.318v115.769L21.26 176.869z"/><path fill="#FFA400" d="m21.405 51.092 182.874 6.317V47.172l-182.86-7.206z"/><path fill="#375FE9" fill-rule="evenodd" d="M118.497 82.21a1.41 1.41 0 0 1 1.411 1.41v12.74l53.417.8a1.411 1.411 0 0 1-.042 2.822l-53.388-.8v17.573a1.412 1.412 0 0 1-2.823 0V97.75q0-.098.014-.195V83.62c0-.779.632-1.41 1.411-1.41" clip-rule="evenodd"/><path fill="#375FE9" fill-rule="evenodd" d="M118.467 116.691c.78 0 1.412.632 1.412 1.411v12.717l46.445-.039c4.603 0 8.375 3.647 8.375 8.226v11.719a1.411 1.411 0 0 1-2.822 0v-11.719c0-2.963-2.45-5.404-5.552-5.404h-.001l-46.459.039v17.609a1.411 1.411 0 0 1-2.822 0v-19.019q0-.099.013-.195v-13.934c0-.779.632-1.411 1.411-1.411" clip-rule="evenodd"/><path fill="#375FE9" fill-rule="evenodd" d="M118.468 116.691c.779 0 1.411.632 1.411 1.411v14.129q0 .1-.014.196v18.823a1.41 1.41 0 1 1-2.822 0v-17.607l-48.64.04c-3.537 0-6.254 2.671-6.254 5.781v12.338a1.41 1.41 0 1 1-2.822 0v-12.338c0-4.836 4.153-8.603 9.075-8.603v1.411l-.001-1.411h.001l48.655-.04v1.41m0-1.41v-12.719c0-.779.632-1.411 1.411-1.411" clip-rule="evenodd"/><path fill="#375FE9" fill-rule="evenodd" d="M118.497 82.21a1.41 1.41 0 0 1 1.411 1.41l-.013 33.136a1.411 1.411 0 0 1-2.823-.002l.014-33.134c0-.779.632-1.41 1.411-1.41" clip-rule="evenodd"/><path fill="#FF8D18" d="m158.107 93.399 30.521.525a2.076 2.076 0 0 1 2.048 2.061v6.088a2.01 2.01 0 0 1-2.048 2.007l-30.521-.377c-1.172-.013-2.115-.956-2.115-2.088v-6.182c0-1.145.943-2.047 2.115-2.02zm-55.775-20.433 32.097.835c1.186.027 2.155.984 2.155 2.142v6.236c0 1.145-.969 2.061-2.155 2.034l-32.097-.687c-1.226-.027-2.223-.996-2.223-2.168v-6.344c0-1.172.997-2.088 2.223-2.061zm-.029 36.705 32.111.296c1.185 0 2.155.957 2.155 2.102v6.249c0 1.145-.97 2.075-2.155 2.075l-32.111-.148c-1.226 0-2.223-.957-2.223-2.129v-6.344c0-1.172.997-2.101 2.223-2.101m-.536 34.899 32.125-.202c1.185 0 2.155.916 2.155 2.074v6.25c0 1.145-.97 2.088-2.155 2.101l-32.125.35c-1.226.014-2.222-.929-2.222-2.088v-6.357c0-1.172.996-2.128 2.236-2.128zm-59.307.363 33.85-.216c1.252 0 2.276.943 2.276 2.129v6.411c0 1.185-1.024 2.155-2.276 2.169l-33.863.377c-1.293.013-2.343-.943-2.343-2.155v-6.52c0-1.198 1.064-2.182 2.357-2.195m115.597-.727 30.535-.189c1.132 0 2.048.903 2.048 2.021v6.088a2.055 2.055 0 0 1-2.048 2.047l-30.535.337c-1.172 0-2.115-.902-2.115-2.047v-6.196c0-1.145.943-2.075 2.115-2.075z"/></g><defs><clipPath id="a"><path fill="#fff" d="M0 0h300v300H0z"/></clipPath><clipPath id="b"><rect width="250" height="250" x="24.788" y="25.094" fill="#fff" rx="125"/></clipPath></defs></svg>