<svg xmlns="http://www.w3.org/2000/svg" width="240" height="240" fill="none" class="persona-ilustration" viewBox="0 0 240 240"><g clip-path="url(#a)"><g clip-path="url(#b)"><rect width="200" height="200" x="20.224" y="20" fill="#D3EDFF" rx="100"/><path fill="#AEDCF2" d="M7.755 93.172h224.939V220H7.755z"/><path fill="#7AC5E8" fill-rule="evenodd" d="M69.11 156.194c5.703 2.464-3.822 3.608-35.637.998-6.243.18-10.663-1.27-13.743-2.962-1.418-1.308-3.192-2.582-4.884-3.644l-.277-.265v-.001c-.801-.768-1.178-1.129-1.276-.665a44 44 0 0 1 1.553.931c1.004.957 2.564 2.369 4.884 3.644 3.513 3.241 4.834 6.693-2.729 7.662-11.57 1.483-11.99 11.495-10.753 16.316 4.759 4.388 11.421 13.758 0 16.131s11.31 7.663 24.103 10.012l33.287-10.012c17.163-4.821 23.03-5.273 19.532-3.354-.968.531-1.98.853-2.721 1.089-1.936.617-2.025.646 5.34 2.265 22.237 1.626 39.529 1.335 50.802 0s44.671-9.852 45.845-12.077l-69.279-30.468c-5.045 2.163-18.465 2.101-29.483 2.049-11.396-.053-20.224-.094-14.564 2.351m38.846 17.176c2.875-1.106 5.261-2.024 8.416-1.627 6.238.786-1.158 1.841-5.636 2.27-2.505.512-3.525 1.645 1.735 2.087 5.021.421-2.606 1.361-6.469 1.837l-.526.065c-3.476.388-11.217.859-14.373-.368-2.283-.888-.612-1.009 2.233-1.214a79 79 0 0 0 3.628-.32c4.911-.39 8.184-1.65 10.992-2.73m8.725-18.692c-6.237-.785-18.693.695-24.142 1.534-1.69.941-4.284 3.129-1.127 4.356 3.156 1.228 10.896.757 14.372.369 3.632-.45 9.582-1.461 4.321-1.902-5.26-.442-1.566-1.575.94-2.087 4.477-.429 11.873-1.484 5.636-2.27m-66.994 19.638c5.448-.839 17.904-2.32 24.142-1.534s-1.16 1.841-5.637 2.27c-2.505.511-6.2 1.645-.94 2.086 5.261.442-.688 1.452-4.32 1.902-3.476.389-11.216.859-14.373-.368s-.563-3.415 1.128-4.356m34.187-7.781c0 .563-1.571 1.019-3.51 1.019s-3.51-.456-3.51-1.019 1.572-1.019 3.51-1.019c1.939 0 3.51.456 3.51 1.019m21.285 21.38c1.939 0 3.51-.456 3.51-1.019s-1.571-1.019-3.51-1.019-3.509.456-3.509 1.019 1.571 1.019 3.509 1.019" clip-rule="evenodd"/><mask id="c" width="97" height="58" x="95" y="135" maskUnits="userSpaceOnUse" style="mask-type:alpha"><path fill="#fff" d="M107.307 150.598c13.813-5.41 24.335 1.1 41.984-14.553a.65.65 0 0 1 .717-.112c11.555 5.72 40.13 23.568 41.838 33.345.965 5.528-12.84 19.108-30.261 19.108-18.119-.928-28.337 5.955-39.296 3.802a.634.634 0 0 1-.431-.924l.33-.622a.652.652 0 0 0-.721-.941l-1.845.416a.652.652 0 0 1-.693-.988l.968-1.512a.653.653 0 0 0-.55-1.004h-1.783a.653.653 0 0 1-.589-.933l.534-1.121a.652.652 0 0 0-.721-.919l-2.72.56a.652.652 0 0 1-.728-.902l.784-1.782a.652.652 0 0 0-.597-.915h-2.855a.652.652 0 0 1-.578-.955l.695-1.328a.653.653 0 0 0-.578-.955h-1.608a.652.652 0 0 1-.524-1.041l.743-1.001a.653.653 0 0 0-.525-1.041h-1.823a.653.653 0 0 1-.587-.938l.963-1.978a.652.652 0 0 0-.586-.938h-1.911a.653.653 0 0 1-.539-1.02l.922-1.352a.653.653 0 0 0-.539-1.02h-1.385a.652.652 0 0 1-.482-1.092l.716-.784a.652.652 0 0 0-.482-1.092h-1.986a.652.652 0 0 1-.494-1.078l.508-.589a.652.652 0 0 0-.375-1.067l-1.708-.318a.652.652 0 0 1-.44-.976l.494-.826a.653.653 0 0 0-.56-.988h-1.12c-2.318-.096-3.476-2.182 10.424-7.626"/></mask><g mask="url(#c)"><path fill="#F8F8F8" d="M107.307 150.598c13.813-5.41 24.335 1.1 41.984-14.553a.65.65 0 0 1 .717-.112c11.555 5.72 40.13 23.568 41.838 33.345.965 5.528-12.84 19.108-30.261 19.108-18.119-.928-28.337 5.955-39.296 3.802a.634.634 0 0 1-.431-.924l.33-.622a.652.652 0 0 0-.721-.941l-1.845.416a.652.652 0 0 1-.693-.988l.968-1.512a.653.653 0 0 0-.55-1.004h-1.783a.653.653 0 0 1-.589-.933l.534-1.121a.652.652 0 0 0-.721-.919l-2.72.56a.652.652 0 0 1-.728-.902l.784-1.782a.652.652 0 0 0-.597-.915h-2.855a.652.652 0 0 1-.578-.955l.695-1.328a.653.653 0 0 0-.578-.955h-1.608a.652.652 0 0 1-.524-1.041l.743-1.001a.653.653 0 0 0-.525-1.041h-1.823a.653.653 0 0 1-.587-.938l.963-1.978a.652.652 0 0 0-.586-.938h-1.911a.653.653 0 0 1-.539-1.02l.922-1.352a.653.653 0 0 0-.539-1.02h-1.385a.652.652 0 0 1-.482-1.092l.716-.784a.652.652 0 0 0-.482-1.092h-1.986a.652.652 0 0 1-.494-1.078l.508-.589a.652.652 0 0 0-.375-1.067l-1.708-.318a.652.652 0 0 1-.44-.976l.494-.826a.653.653 0 0 0-.56-.988h-1.12c-2.318-.096-3.476-2.182 10.424-7.626"/><path fill="#EFEFEF" d="M148.224 185.492c-6.138-.307-20.971 4.39-27.62 6.777l8.951 3.452 44.754-4.603 17.646-12.531 2.813-13.554-47.857-35.049v6.935c-3.894 5.792 40.084 25.005 36.751 35.509-1.293 4.075-5.602 7.182-9.353 8.205-6.138 1.747-19.948 5.166-26.085 4.859"/><path fill="#EFEFEF" d="M104.029 147.079c-3.012 0-13.139 2.146-29.553 10.73l26.918 44.235 37.647-3.388c7.153-4.455 19.237-13.252 10.353-12.8-8.885.451-10.604-2.573-10.353-4.142 2.635-3.953 6.325-12.009 0-12.611s-15.561-3.891-19.388-5.459c-2.196-1.945-5.271-6.739 0-10.353 5.27-3.614-8.22-5.647-15.624-6.212"/><path fill="#E4E4E4" fill-rule="evenodd" d="M161.383 173.845a.98.98 0 0 1-1.009.947c-6.789-.21-15.351 1.798-23.36 4.444-7.988 2.638-15.324 5.875-19.625 8.043a.977.977 0 1 1-.881-1.747c4.379-2.209 11.805-5.484 19.892-8.155 8.066-2.664 16.893-4.762 24.035-4.541.54.017.965.468.948 1.009m-12.095-11.026a.98.98 0 0 1-.887 1.063c-6.766.61-15.022 3.637-22.653 7.23-7.611 3.583-14.503 7.681-18.511 10.353a.978.978 0 1 1-1.086-1.628c4.081-2.721 11.057-6.868 18.763-10.496 7.685-3.618 16.194-6.766 23.311-7.409a.98.98 0 0 1 1.063.887m-5.312-8.021a.98.98 0 0 1-.963.995c-6.792.111-15.248 2.524-23.123 5.546-7.854 3.014-15.028 6.595-19.221 8.965a.978.978 0 1 1-.963-1.703c4.269-2.414 11.531-6.038 19.483-9.089 7.93-3.044 16.647-5.559 23.792-5.676a.98.98 0 0 1 .995.962" clip-rule="evenodd" opacity=".5"/></g><path fill="#310A81" d="M156.9 134.028a6.52 6.52 0 0 0-6.798-.68l-1.798 2.722a6.53 6.53 0 0 1 6.799.68z"/><path fill="#310A81" d="M193.185 161.661 156.9 134.028l-1.797 2.722 36.284 27.633a3.42 3.42 0 0 1 1.343 3.054l-.059.032-1.797 2.722a3.4 3.4 0 0 0 1.302-1.161l1.797-2.721-.043.062.043-.064c.948-1.436.73-3.489-.788-4.646m-43.339-28.189.256-.124-1.798 2.722-.255.124z"/><path fill="#310A81" d="M148.547 134.602c.306-.464.741-.86 1.299-1.13l-1.797 2.722-.035.017a3.23 3.23 0 0 0 1.263 2.778l36.034 27.805-1.797 2.722-36.035-27.805c-1.427-1.101-1.621-3.035-.728-4.387l.048-.073-.05.073z"/><path fill="#310A81" d="M185.311 166.794a6.9 6.9 0 0 0 7.36.675l-1.797 2.722a6.9 6.9 0 0 1-7.36-.675z"/><path fill="#442EA4" d="m150.101 133.348-.256.124c-2.18 1.057-2.487 4.037-.569 5.517l36.035 27.805a6.89 6.89 0 0 0 7.359.675c2.254-1.158 2.53-4.272.513-5.808l-36.284-27.633a6.52 6.52 0 0 0-6.798-.68"/><path fill="#498F79" fill-rule="evenodd" d="M242.472 26.03a4.893 4.893 0 0 1 1.751 6.695l-66.345 113.337a4.893 4.893 0 0 1-8.445-4.944l66.345-113.337a4.89 4.89 0 0 1 6.694-1.75" clip-rule="evenodd"/><path fill="#4C39B0" d="m172.434 135.974-6.11 9.538c-3.178 4.61 6.706 10.755 10.146 4.742.405-.91 4.677-9.776 4.677-9.776-4.341.173-7.194-1.551-8.713-4.504"/></g><path fill="#7AC5E8" d="m87.993 120.192-55.086 10.33h19.814l7.663-1.932h36.064l-2.642 1.932h19.022l56.404-10.33z"/><path fill="#FF8D18" d="M149.045 34.87c-.738-2.87-4.062-5.19-7.457-5.19H59.572l.01.037c2.928.286 5.665 2.225 6.56 4.659l20.763 83.581c.32 1.285 1.648 2.325 2.971 2.325h15.932c1.326 0 2.144-1.044 1.828-2.331l-2.901-11.808c-.316-1.287.502-2.33 1.828-2.33h36.393c1.325 0 2.656 1.043 2.972 2.33l2.901 11.808c.316 1.287 1.647 2.331 2.972 2.331h15.923c1.326 0 2.144-1.045 1.827-2.333L149.18 35.272a2.6 2.6 0 0 0-.135-.402"/><path fill="#FEE283" d="M52.76 34.978c.957-2.974 4.104-5.297 7.314-5.297h82.016l-.01.04c-3.144.345-6.068 2.826-6.727 5.835l-1.286 5.876h-.03l-19.384 87.46c-.287 1.292-1.589 2.338-2.913 2.338H95.809c-1.326 0-2.17-1.049-1.887-2.344l3.018-13.77c.284-1.295-.56-2.345-1.886-2.345H58.661c-1.325 0-2.63 1.05-2.914 2.345l-3.017 13.77c-.284 1.295-1.589 2.344-2.914 2.344H33.893c-1.326 0-2.17-1.05-1.886-2.345l20.49-93.204a2.7 2.7 0 0 1 .264-.703"/><path fill="#DB4747" fill-rule="evenodd" d="m98.657 46.615 9.244 34.667c1.77 6.64-4.071 14.95-10.509 14.95H63.71c-6.438 0-8.637-8.31-3.956-14.95l24.438-34.667c4.671-6.626 12.698-6.626 14.465 0M85.354 74.328c1.18 0 2.386-1.14 2.694-2.546l3.57-16.29c.308-1.406-.399-2.546-1.578-2.546s-2.387 1.14-2.695 2.546l-3.57 16.29c-.308 1.406.398 2.546 1.578 2.546m.46 10.898c.41-1.875-.531-3.395-2.105-3.395s-3.181 1.52-3.592 3.395.531 3.395 2.104 3.395c1.574 0 3.182-1.52 3.593-3.395" clip-rule="evenodd"/></g><defs><clipPath id="a"><path fill="#fff" d="M0 0h240v240H0z"/></clipPath><clipPath id="b"><rect width="200" height="200" x="20.224" y="20" fill="#fff" rx="100"/></clipPath></defs></svg>