<svg xmlns="http://www.w3.org/2000/svg" width="240" height="240" fill="none" class="persona-ilustration" viewBox="0 0 240 240"><g clip-path="url(#a)"><g clip-path="url(#b)"><rect width="200" height="200" x="20.225" y="20" fill="#D3EDFF" rx="100"/><path fill="#AADBFF" d="M273.836 164.598 46.371 30.223l-185 98.316L83.555 284.135z"/><g opacity=".75"><path fill="#D3EDFF" d="m-44.595 50.094 78.363 45.243v42.301l-78.363-45.243z"/><path fill="#D3EDFF" d="m-41.137 56.034 71.448 41.25V131.7l-71.448-41.25z"/><path fill="#82C2F1" fill-rule="evenodd" d="m-41.642 55.16 72.458 41.833v35.58L-41.642 90.74zm1.01 1.748v33.249l70.438 40.668v-33.25z" clip-rule="evenodd"/><path fill="#82C2F1" d="M112.14 50.094 33.777 95.337v42.301l78.363-45.243z"/><path fill="#D3EDFF" d="M112.171 50.094 33.781 4.832-44.58 50.094l.029.004h-.052L33.77 95.353l78.378-45.256z"/><path fill="#D3EDFF" d="m-44.595 8.094 78.363 45.243v42.301l-78.363-45.243z"/><path fill="#D3EDFF" d="m-41.137 14.034 71.448 41.25V89.7l-71.448-41.25z"/><path fill="#82C2F1" fill-rule="evenodd" d="m-41.642 13.16 72.458 41.833v35.58L-41.642 48.74zm1.01 1.748v33.249l70.438 40.668v-33.25z" clip-rule="evenodd"/><path fill="#82C2F1" d="M112.14 8.094 33.777 53.337v42.301l78.363-45.243z"/><path fill="#D3EDFF" d="m112.171 8.094-78.39-45.262L-44.58 8.094l.029.004h-.052L33.77 53.353l78.378-45.256z"/><path fill="#D3EDFF" d="m-44.595-34.906 78.363 45.243v42.301L-44.595 7.395z"/><path fill="#D3EDFF" d="m-41.137-28.966 71.448 41.25V46.7L-41.137 5.45z"/><path fill="#82C2F1" fill-rule="evenodd" d="m-41.642-29.84 72.458 41.833v35.58L-41.642 5.74zm1.01 1.748V5.157l70.438 40.668v-33.25z" clip-rule="evenodd"/><path fill="#82C2F1" d="M112.14-34.906 33.777 10.337v42.301L112.14 7.395z"/></g></g><path fill="#4793CC" d="m225.856 155.58-5.648 2.732 1.433 2.242c1.343-.693 4.316-2.239 5.465-2.883.686-.915-.305-2.329-1.25-2.091"/><path fill="#D3EDFF" d="M221.798 156.767c1.557.663 2.349 2.445 2.175 3.891-.146 1.222-1.785 2.305-4.987 4.151"/><path fill="#D3EDFF" d="M221.798 156.767c1.557.663 2.349 2.445 2.175 3.891-.146 1.222-1.785 2.305-4.987 4.151-2.712-.903-4.015-3.093-3.685-5.861 4.219-2.135 5.016-2.601 6.497-2.181"/><path fill="#82C2F1" d="M156.402 193.063s10.402-7.797 14.488-9.896 44.346-24.188 44.346-24.188 3.326.789 3.671 5.849c-10.905 5.936-45.436 25.21-45.436 25.21s-12.346 6.099-15.3 6.383-1.769-3.358-1.769-3.358"/><path fill="#4793CC" d="m215.921 165.259-.399-.426a1.16 1.16 0 0 0-.522-.341c-.822-.236-1.183.156-1.313.606-.104.363.078.73.326 1.015l.423.486a1 1 0 1 0 1.485-1.34"/><path fill="#D3EDFF" d="m200.186 174.446 16.81-9.43a1.186 1.186 0 0 1 1.161 2.069l-16.811 9.43a1.186 1.186 0 1 1-1.16-2.069"/><path fill="#4793CC" d="M151.55 197.478c-.114-.431 4.775-4.408 4.775-4.408s1.851 1.321 1.768 3.358c-4.969 1.204-6.468 1.334-6.543 1.05"/><path fill="#E4E4E4" d="M203.862 146.447c.853-.492 1.279-1.138 1.279-1.783s-.426-1.29-1.279-1.782l-58.933-34.025-83.458 48.184 58.933 34.025c1.705.985 4.47.985 6.175 0z"/><path fill="#E4E4E4" d="m144.927 106.48 58.933 34.025v2.377l-58.933-34.026z"/><path fill="#E4E4E4" d="m61.47 154.664 83.458-48.184v2.376L61.47 157.041zm143.669-12.377c0-.645-.426-1.29-1.279-1.782v2.377c.853.492 1.279 1.137 1.279 1.782z"/><path fill="#FF8D18" d="M203.86 144.07c.853-.492 1.279-1.137 1.279-1.782v2.376c0 .645-.426 1.291-1.279 1.783z"/><path fill="#FF8D18" d="m203.862 144.07-77.283 44.62v2.376l77.283-44.619zm-83.458 44.62L61.47 154.664v2.377l58.934 34.025z"/><path fill="#FF8D18" d="M126.578 188.689c-1.705.985-4.469.985-6.175 0v2.377c1.706.985 4.47.985 6.175 0zm-64.962-34.376v2.795c-6.604-2.168-10.745-12.976-3.473-18.141z"/><path fill="#E4E4E4" d="m199.69 142.184-55.877-32.261-76.262 44.031 55.877 32.26z"/><path fill="#FF8D18" d="M142.269 93.956 98.117 39.387c-1.233-1.523-4.656-1.936-6.842-.824l-75.36 38.323c-.726.368-1.325.796-1.79 1.26-1.363 1.362-1.574 3.049-.437 4.547L58.81 142.14z"/><path fill="#FF8D18" d="M92.958 36.882c2.186-1.112 5.609-.7 6.842.825l-1.68 1.68c-1.234-1.524-4.657-1.936-6.843-.825z"/><path fill="#FF8D18" d="m99.797 37.707 44.151 54.569-1.68 1.68-44.152-54.569zM17.595 75.205l75.36-38.323-1.68 1.68-75.36 38.323z"/><path fill="#FF8D18" d="M143.948 92.275 60.49 140.46l-1.68 1.68 83.457-48.184zM15.807 76.466c.465-.465 1.064-.892 1.79-1.261l-1.681 1.68c-.726.37-1.325.796-1.79 1.261z"/><path fill="#FF8D18" d="M15.368 81.012c-1.136-1.498-.926-3.183.435-4.545l-1.679 1.679c-1.362 1.362-1.573 3.048-.436 4.546z"/><path fill="#FF8D18" d="M60.49 140.46 15.367 81.012l-1.68 1.68 45.122 59.449z"/><path fill="#FFDCC5" d="M143.949 92.275 99.797 37.706c-1.233-1.523-4.655-1.936-6.841-.824L17.594 75.205c-2.852 1.45-3.752 3.798-2.227 5.807L60.49 140.46z"/><path fill="#FF9300" fill-rule="evenodd" d="M86.803 68.922c6.387-3.363 14.626-1.777 18.401 3.48 3.754 5.223 1.724 12.171-4.547 15.555-6.272 3.385-14.563 1.946-18.444-3.299-3.902-5.277-1.84-12.352 4.58-15.736zm-24.578 6.715c5.35.614 10.025 3.13 12.806 6.885l6.335 8.534c2.739 3.69 3.352 8.249 1.702 12.489-.75 1.915-2.284 3.575-4.325 4.685l-.592.328c-5.055 2.75-11.696 1.682-14.816-2.422L50.93 89.829c-3.204-4.209-1.565-9.867 3.648-12.595l.614-.317c2.104-1.1 4.6-1.555 7.032-1.28" clip-rule="evenodd"/><path fill="#FFA400" d="M203.926 144.035c1.681-.971 1.708-2.539.061-3.529l-58.857-35.378-83.657 49.536 58.933 34.026c1.706.984 4.47.984 6.175 0z"/><path fill="#FFA400" d="m60.073 141.209 83.447-48.196s-2.148 1.04-2.855 2.28c-.491.862-.649 2.455-.649 2.455l5.091 7.432-40.233 25.558-43.413 23.926z"/><path fill="#FFA400" d="M61.708 154.722c-1.311-.757-3.198-2.24-4.125-3.89s-1.055-3.386-1.055-4.963.314-2.342 1.055-3.384c.612-.659 1.611-1.285 2.496-1.285z"/><path fill="#E4E4E4" d="m143.921 98.04 55.877 32.26v11.884l-55.877-32.261z"/><path fill="#E4E4E4" d="m67.66 142.07 76.262-44.03v11.883l-76.263 44.03zm132.138-11.77-76.262 44.03v11.884l76.262-44.03z"/><path fill="#F8F8F8" d="m199.689 130.3-55.338-31.95c-1.706-.984-4.47-.984-6.175 0l-75.159 43.393 58.426 33.732z"/><path fill="#EFEFEF" d="M123.535 174.331 66.722 141.59v11.883l56.813 32.741z"/><path fill="#EFEFEF" d="M66.956 153.614c-1.311-.758-2.568-2.11-3.496-3.76s-1.448-3.462-1.448-5.039.521-2.787 1.448-3.367c.928-.579 2.185-.48 3.496.277z"/><path fill="#E4E4E4" d="M148.478 116.313c-4.076 2.365-10.279 2.567-13.868.476s-3.209-5.704.844-8.069c4.052-2.365 10.279-2.603 13.892-.499s3.22 5.728-.868 8.092m31.374 16.958-26.548-15.46c-.309-.179-.273-.488.071-.69l1.343-.772c.345-.202.88-.226 1.189-.036l26.571 15.461c.309.178.274.487-.071.689l-1.355.773c-.356.202-.891.213-1.2.035m-14.712-3.993-15.77-9.186c-.309-.178-.273-.487.072-.689l1.176-.678c.345-.202.879-.213 1.188-.035l15.782 9.186c.309.178.273.487-.071.689l-1.189.677c-.344.202-.879.214-1.188.036m1.005 11.693-42.889-24.908c-.308-.178-.273-.487.072-.689l1.343-.785c.344-.202.879-.226 1.188-.047l42.936 24.92c.309.178.273.487-.084.689l-1.366.772c-.357.202-.891.214-1.2.036zm-41.667-11.658c-4.076 2.365-10.279 2.567-13.868.476s-3.209-5.704.844-8.069c4.052-2.365 10.279-2.603 13.892-.499s3.22 5.728-.868 8.092m31.374 16.958-26.548-15.46c-.309-.179-.273-.488.071-.69l1.343-.772c.345-.202.88-.226 1.189-.036l26.571 15.461c.309.178.274.487-.071.689l-1.355.773c-.356.202-.891.213-1.2.035m-14.712-3.993-15.77-9.186c-.309-.178-.273-.487.071-.689l1.177-.678c.344-.202.879-.213 1.188-.035l15.782 9.186c.309.178.273.487-.072.689l-1.188.677c-.345.202-.879.214-1.188.036m1.005 12.693-42.889-24.908c-.308-.178-.273-.487.072-.689l1.343-.785c.344-.202.879-.226 1.188-.047l42.936 24.92c.309.178.273.487-.084.689l-1.366.772c-.357.202-.891.214-1.2.036zm-40.667-11.658c-4.076 2.365-10.28 2.567-13.868.476s-3.209-5.704.844-8.069c4.052-2.365 10.279-2.603 13.892-.499s3.22 5.728-.868 8.092m31.374 16.958-26.548-15.46c-.309-.179-.273-.488.071-.69l1.343-.772c.345-.202.88-.226 1.189-.036l26.571 15.461c.309.178.274.487-.071.689l-1.355.773c-.356.202-.891.213-1.2.035m-14.712-3.993-15.77-9.186c-.309-.178-.273-.487.071-.689l1.177-.678c.344-.202.879-.213 1.188-.035l15.782 9.186c.309.178.273.487-.072.689l-1.188.677c-.345.202-.879.214-1.188.036"/></g><defs><clipPath id="a"><path fill="#fff" d="M0 0h240v240H0z"/></clipPath><clipPath id="b"><rect width="200" height="200" x="20.225" y="20" fill="#fff" rx="100"/></clipPath></defs></svg>