<svg xmlns="http://www.w3.org/2000/svg" width="300" height="300" fill="none" class="persona-ilustration" viewBox="0 0 300 300"><g clip-path="url(#a)"><g clip-path="url(#b)"><rect width="250" height="250" x="25" y="25" fill="#D3EDFF" rx="125"/><path fill="#82C2F1" d="M149.448 122.744v-6.484h132.805v6.484zm0 54.722v-6.484h132.805v6.484zm0 54.725v-6.483h132.805v6.483z"/><path fill="#AADBFF" d="M149.448 95.644h6.483v157.161h-6.483zm91.786 90.881h8.556v39.535h-8.556zm9.648 0h8.556v39.535h-8.556zm9.647 0h8.557v39.535h-8.557z"/><path fill="#82C2F1" d="m193.002 133.958 8.08-2.818 13.018 37.331-8.079 2.817z"/><path fill="#AADBFF" d="M163.714 131.446h8.557v39.536h-8.557zm9.763 0h8.556v39.536h-8.556zm9.763 0h8.556v39.536h-8.556z"/><path fill="#82C2F1" d="M232.979 149.363h34.02v21.619h-34.02z"/><path fill="#AADBFF" d="M229.504 149.363h40.969v6.099h-40.969zm-21.965 55.417c5.035 3.352 7.965 12.225 8.801 16.243-3.403-1.881-10.873-6.536-13.523-10.107-3.313-4.464-1.572-10.326 4.722-6.136"/><path fill="#AADBFF" d="M220.065 202.51c2.019 5.701-.956 14.559-2.696 18.276-1.596-3.547-4.783-11.751-4.763-16.198.026-5.559 4.934-9.205 7.459-2.078"/><path fill="#AADBFF" d="M230.431 205.894c-.756 6.001-7.393 12.579-10.618 15.118.168-3.885 1.006-12.647 3.021-16.611 2.52-4.955 8.543-6.008 7.597 1.493"/><path fill="#AADBFF" d="M229.153 216.912c-.636 3.042-3.293 9.127-8.829 9.127h-7.358c-5.536 0-8.193-6.085-8.83-9.127zm-42.912-20.738c-.442 9.955-2.286 29.864-6.13 29.865h-5.107c-3.843 0-5.687-19.91-6.129-29.865zM30.75 97h82.5v127.04h-82.5z"/><path fill="#AADBFF" d="M37.298 103.088h69.404v35.824H37.298z"/><path fill="#82C2F1" fill-rule="evenodd" d="M104.202 105.588H39.798v30.824h64.404zm-66.904-2.5v35.824h69.404v-35.824z" clip-rule="evenodd"/><path fill="#AADBFF" d="M37.298 142.607h69.404v35.824H37.298z"/><path fill="#82C2F1" fill-rule="evenodd" d="M104.202 145.107H39.798v30.824h64.404zm-66.904-2.5v35.824h69.404v-35.824z" clip-rule="evenodd"/><path fill="#AADBFF" d="M37.298 182.129h69.404v35.824H37.298z"/><path fill="#82C2F1" fill-rule="evenodd" d="M104.202 184.629H39.798v30.824h64.404zm-66.904-2.5v35.824h69.404v-35.824z" clip-rule="evenodd"/><path fill="#82C2F1" d="M64.212 110.483c0-.915.742-1.657 1.658-1.657h12.26a1.657 1.657 0 1 1 0 3.314H65.87a1.657 1.657 0 0 1-1.658-1.657m0 39.028c0-.915.742-1.657 1.658-1.657h12.26a1.657 1.657 0 1 1 0 3.314H65.87a1.657 1.657 0 0 1-1.658-1.657m0 40.041c0-.915.742-1.657 1.658-1.657h12.26a1.657 1.657 0 1 1 0 3.314H65.87a1.657 1.657 0 0 1-1.658-1.657"/><path fill="#212121" d="M120.499 83.98s-3.26-30.52 19.26-29.08c43.37 2.77 24.85 45.199 23.25 66.409-1.66 21.97 15.28 43.21 15.28 43.21l-41.49 15.73-24.81-88.83z"/><path fill="#000" fill-opacity=".2" d="M120.499 83.98s-3.26-30.52 19.26-29.08c43.37 2.77 24.85 45.199 23.25 66.409-1.66 21.97 15.28 43.21 15.28 43.21l-41.49 15.73-24.81-88.83z" style="mix-blend-mode:darken"/><path fill="#F5A7A3" d="M120.86 61.039s18.74.55 20.62 30.29c5.78 3.87 4.36-1.07 4.36-1.07s4.42-20.37-12.71-29.16c-15-7.69-12.26-.07-12.26-.07z"/><mask id="c" width="128" height="151" x="82" y="157" maskUnits="userSpaceOnUse" style="mask-type:alpha"><path fill="#000" d="M157.38 160.877s14.14-8.6 35.02 3.44 18.91 36.47 15.36 54.98-23.59 77.87-23.59 77.87-52.61 17.22-79.35 7.21c-8.19-3.06 0-13.53-8.86-28.21-25.85-42.83-11.55-75.76 19.23-94.68 7.86-4.83 42.19-20.61 42.19-20.61"/></mask><g mask="url(#c)"><path fill="#A4A1E0" d="M157.38 160.88s14.14-8.6 35.02 3.44 18.91 36.47 15.36 54.98-23.59 77.87-23.59 77.87-52.61 17.22-79.35 7.21c-8.19-3.06 0-13.53-8.86-28.21-25.85-42.83-11.55-75.76 19.23-94.68 7.86-4.83 42.19-20.61 42.19-20.61"/><path fill="#5141BA" d="M192.58 149.999s41.61 108.44-64.56 125c-22.02 3.44 73.64 5.6 73.64 5.6l16.38-86.7-25.46-43.89z" opacity=".5" style="mix-blend-mode:darken"/></g></g><path fill="#A4A1E0" d="M115.2 181.491s-71.71 39.11-77.28 59.65 20.04 26.67 20.04 26.67 50.44-25.24 57.24-41.01c6.79-15.78 0-45.3 0-45.3z"/><mask id="d" width="48" height="70" x="110" y="110" maskUnits="userSpaceOnUse" style="mask-type:alpha"><path fill="#000" d="M110.89 148.271s13.56 15.41 15.29 27.98c1.7 12.33 31.2-15.37 31.2-15.37s-1.29-15.15-14.45-42.66-32.05 30.05-32.05 30.05z"/></mask><g mask="url(#d)"><path fill="#FCDCD2" d="M110.891 148.271s13.56 15.41 15.29 27.98c1.7 12.33 31.2-15.37 31.2-15.37s-1.29-15.15-14.45-42.66-32.05 30.05-32.05 30.05z"/><path fill="#000" fill-opacity=".5" d="M146.491 121.382s5.77 29.72-5.4 40.81-30.2 8.68-30.2 8.68l25.84-54.63z" style="mix-blend-mode:overlay"/></g><path fill="#FCDCD2" d="M76.77 76.841c-9.42 11.21-16.42 29.13-3.15 56.17 9.16 18.67 10.8 28.37 39.49 34.14 14.08 2.83 32.52-22.25 29.3-40.02-3.75-20.69 4.04-38.13-8.18-50.7-10.15-10.44-41.14-19.02-57.47.4z"/><path fill="#FCDCD2" d="M136.589 100.152s12.38-11.04 15.92-1.99c3.54 9.04-1.06 26.82-7.96 23.91s-7.96-7.62-7.96-7.62z"/><path fill="#000" fill-opacity=".5" d="M144.519 105.091s2.64.05 1.28 5.71-5.06 3.97-5.01 2.07-.44-6.04 3.73-7.78" style="mix-blend-mode:overlay"/><path fill="#411917" fill-rule="evenodd" d="M147.109 99.558a1 1 0 0 1-.249 1.392c-3.56 2.481-4.908 5.564-5.382 8.021q-.104.54-.157 1.038c1.139-1.38 2.96-2.853 5.473-2.687a1 1 0 0 1-.131 1.996c-1.636-.108-2.931.869-3.897 2.084a10.4 10.4 0 0 0-1.398 2.366l-.014.034-.002.005v.001a1 1 0 0 1-1.91-.145l.976-.213c-.976.213-.977.213-.977.212v-.001l-.001-.003-.001-.009-.006-.025-.016-.086a9 9 0 0 1-.049-.3 12 12 0 0 1-.102-1.069 14.8 14.8 0 0 1 .248-3.577c.556-2.876 2.143-6.454 6.203-9.282a1 1 0 0 1 1.392.248" clip-rule="evenodd"/><path fill="#411917" d="M104.051 100.64c-4.84 1.05-10.27 2.19-14.17 5.38-1.79 1.44-3.98-1.19-2.24-2.69 4.87-3.21 10.59-3.84 16.22-4.56 1.21-.08 1.39 1.71.19 1.88zm-.049 14.984c1.563-.644 2.133-2.855 1.275-4.938s-2.822-3.25-4.384-2.606-2.133 2.855-1.275 4.938c.859 2.084 2.822 3.25 4.384 2.606"/><path fill="#411917" fill-rule="evenodd" d="M110.389 105.3c.446.325.545.95.221 1.397l-2.26 3.11a1 1 0 0 1-1.206.33h-.001l-.001-.001h-.001l-.017-.008-.083-.033a13 13 0 0 0-1.611-.496c-1.073-.256-2.496-.458-3.96-.286-1.452.171-2.925.707-4.169 1.911-1.246 1.207-2.347 3.168-2.905 6.338a1 1 0 0 1-1.97-.346c.612-3.475 1.862-5.858 3.484-7.429 1.625-1.573 3.539-2.25 5.326-2.46 1.776-.209 3.448.038 4.658.327.511.122.947.253 1.283.365l1.815-2.498a1 1 0 0 1 1.397-.221" clip-rule="evenodd"/><path fill="#411917" d="M67.58 122.101c.76-3.37 1.59-6.87 3.84-9.55.94-1.12 2.48-2.5 3.82-.95.7.88.36 2.24-.67 2.69-.9.49-1.82 1.41-2.41 2.28a30 30 0 0 0-2.76 5.97c-.34 1.1-2.03.69-1.83-.44zm15.124 5.659c1.034-.68.938-2.652-.215-4.406s-2.926-2.624-3.96-1.945c-1.033.68-.937 2.652.216 4.406s2.926 2.624 3.96 1.945"/><path fill="#411917" fill-rule="evenodd" d="M84.918 122.042s.001.001-.494.861za1 1 0 0 1-.996 1.734l-.001-.001-.017-.009-.072-.039a8 8 0 0 0-.297-.152c-.26-.127-.637-.298-1.091-.468-.922-.344-2.102-.658-3.26-.636-1.138.023-2.203.365-3.039 1.287-.855.944-1.591 2.629-1.757 5.587a1.001 1.001 0 0 1-1.997-.112c.18-3.212.995-5.409 2.272-6.818 1.298-1.432 2.947-1.913 4.481-1.943 1.512-.03 2.96.374 4 .762a14 14 0 0 1 1.632.73l.1.055.03.016.008.005z" clip-rule="evenodd"/><path fill="#000" fill-opacity=".5" d="M100.151 135.872s1.07-1.71-.33-1.89-4.5.95-5.78 1.77c-2.32 1.51-3.5 5-1.96 4.75s3.47-.51 8.07-4.63" style="mix-blend-mode:overlay"/><path fill="#411917" d="M88.87 124.59s4.28 9.1 5 14.09z"/><path fill="#411917" fill-rule="evenodd" d="M88.445 123.686a1 1 0 0 1 1.33.479l-.904.426.905-.426.013.028.037.08.14.302a112 112 0 0 1 2.064 4.818c1.158 2.896 2.451 6.518 2.83 9.145a1 1 0 0 1-1.979.285c-.341-2.363-1.547-5.785-2.709-8.687a112 112 0 0 0-2.025-4.728l-.135-.293-.035-.075-.011-.024" clip-rule="evenodd"/><mask id="e" width="17" height="16" x="103" y="137" maskUnits="userSpaceOnUse" style="mask-type:alpha"><path fill="#000" d="M104.47 151.09c-.83-.98-.63-2.47.44-3.18 2.83-1.87 8.3-5.73 10.21-8.71 2.63-4.09 5.25-1.24 4.7 3.28s-4.4 9.62-9.34 10.33c-3.48.5-4.91-.41-6.02-1.72z"/></mask><g mask="url(#e)"><path fill="#411917" d="M104.471 151.089c-.83-.98-.63-2.47.44-3.18 2.83-1.87 8.3-5.73 10.21-8.71 2.63-4.09 5.25-1.24 4.7 3.28s-4.4 9.62-9.34 10.33c-3.48.5-4.91-.41-6.02-1.72z"/><path fill="#F26764" d="M107.471 152.791s10.49 2.58 21.06-8.21-13.45 1.94-13.45 1.94-9.99 2.97-7.61 6.27"/></g><path fill="#212121" d="M72 83.04s8.61 7.72 32.78 5.67c16.3-1.38 30.53 11.381 35.47 8.66s6.48-3.09 6.48-3.09-3.64-20.18-12.59-27.96c-8.96-7.79-26.56-11.78-38.77-9.96C85.69 57.8 71.56 73.74 72 83.04"/><path fill="#212121" d="M76.89 84.1s-4.9 16.031-9.36 27.751c-2 5.26-7.98-10.92-5.91-21.33 4.1-20.57 17.37-21.57 19.97-22.63 5.31-2.18-4.26 11.59-4.7 16.21"/><path fill="#A4A1E0" d="M182.571 159.9s71.8 44.27 85.15 72.38-31.69 27.25-31.69 27.25-61.43-35.68-63.19-55.01 9.73-44.62 9.73-44.62"/><path fill="#A4A1E0" d="M270.199 238s-18.56-37.64-44.23-23.97c-9 4.8-16.52 29.53-11.14 37.77 3.08 4.73 21.21 7.73 21.21 7.73s35.53 2.64 34.16-21.53"/><path fill="#5141BA" d="M270.199 238s-18.56-37.64-44.23-23.97c-9 4.8-16.52 29.53-11.14 37.77 3.08 4.73 21.21 7.73 21.21 7.73s35.53 2.64 34.16-21.53" opacity=".5" style="mix-blend-mode:darken"/><path fill="#A4A1E0" d="M229.28 256.51c11.968 0 21.67-9.164 21.67-20.47s-9.702-20.47-21.67-20.47-21.67 9.165-21.67 20.47 9.702 20.47 21.67 20.47"/><path fill="#5141BA" d="M229.28 256.511c11.968 0 21.67-9.164 21.67-20.47s-9.702-20.47-21.67-20.47-21.67 9.165-21.67 20.47 9.702 20.47 21.67 20.47" opacity=".5" style="mix-blend-mode:darken"/><path fill="#FCDCD2" d="m211.31 243.76 11.21 11.73s16.92 3.83 23.21-6.13 4.44-9.16 4.58-17.34-39 11.74-39 11.74"/><path fill="#000" fill-opacity=".5" d="m211.31 243.76 11.21 11.73s16.92 3.83 23.21-6.13 4.44-9.16 4.58-17.34-39 11.74-39 11.74" style="mix-blend-mode:overlay"/><path fill="#FCDCD2" d="M186.36 205.198c.81-7.98-4.81-17.25-3.66-19.88s8.01 1.02 8.01 1.02.78 4.29 1.33 8.55c.64 4.9 1.5 10.74 1.5 10.74l2.77 19.39s28.82-1.38 38.78-10.99c4.82-4.65 9.22-1.57 12.47 2.86 4.21 5.73 4.51 14.96-1.56 18.66-18.1 11.03-28.91 12.18-37.7 10.71-7.69-1.28-13.06-7.19-16.34-13.06-2.89-5.16-6.52-18.98-5.61-28zm65.279-4.846c1.9-.63 5.15 4.83 3.53 10.69s-5.53 7.02-7.57 4.79-2.42-13.34 4.04-15.48"/><path fill="#000" fill-opacity=".3" d="M251.639 200.352c1.9-.63 5.15 4.83 3.53 10.69s-5.53 7.02-7.57 4.79-2.42-13.34 4.04-15.48" style="mix-blend-mode:darken"/><path fill="#FCDCD2" d="M249.249 183.77c1.9-.63 5.15 4.83 3.53 10.69s-5.53 7.02-7.57 4.79-2.42-13.34 4.04-15.48"/><path fill="#000" fill-opacity=".3" d="M249.249 183.77c1.9-.63 5.15 4.83 3.53 10.69s-5.53 7.02-7.57 4.79-2.42-13.34 4.04-15.48" style="mix-blend-mode:darken"/><path fill="#FCDCD2" d="M243.52 167.841c1.99-.88 7.92 2.63 6.81 9.06s-5.21 8.09-7.67 5.93-5.9-12.01.86-14.99"/><path fill="#000" fill-opacity=".3" d="M243.52 167.841c1.99-.88 7.92 2.63 6.81 9.06s-5.21 8.09-7.67 5.93-5.9-12.01.86-14.99" style="mix-blend-mode:darken"/><path fill="#2B2B2B" d="m234.328 134.133-47.313 6.944a2.92 2.92 0 0 0-2.465 3.313l13.87 94.498a2.92 2.92 0 0 0 3.313 2.465l47.313-6.944a2.92 2.92 0 0 0 2.465-3.314l-13.87-94.497a2.92 2.92 0 0 0-3.313-2.465"/><path fill="#FFF3F3" d="m232.197 136.682-42.535 6.243a2.92 2.92 0 0 0-2.465 3.313l13.141 89.531a2.92 2.92 0 0 0 3.313 2.465l42.535-6.243a2.92 2.92 0 0 0 2.465-3.313l-13.141-89.531a2.92 2.92 0 0 0-3.313-2.465"/><path fill="#2E2E2E" d="M207.651 142.454c-1.465-1.328-2.813-1.431-4.178-1.595l7.34-1.321.498 3.969c-.992.124-2.194.275-3.66-1.053"/><path fill="#2E2E2E" d="M214.223 141.479c1.017-1.696 2.277-2.186 3.535-2.74l-7.407.868.676 3.942c.986-.169 2.18-.374 3.196-2.07"/><mask id="f" width="29" height="29" x="201" y="157" maskUnits="userSpaceOnUse" style="mask-type:alpha"><path fill="#39B54A" d="M215.088 185.743c7.688 0 13.92-6.232 13.92-13.92s-6.232-13.92-13.92-13.92-13.92 6.232-13.92 13.92 6.232 13.92 13.92 13.92"/></mask><g mask="url(#f)"><path fill="#39B54A" d="M215.088 185.743c7.688 0 13.92-6.232 13.92-13.92s-6.232-13.92-13.92-13.92-13.92 6.232-13.92 13.92 6.232 13.92 13.92 13.92"/><path fill="#FFF0F0" d="M214.109 173.043a5.81 5.81 0 1 0 0-11.62 5.81 5.81 0 0 0 0 11.62m2.96 25.38c6.329 0 11.46-5.13 11.46-11.46 0-6.329-5.131-11.46-11.46-11.46s-11.46 5.131-11.46 11.46 5.131 11.46 11.46 11.46"/></g><path fill="#39B54A" fill-rule="evenodd" d="M236.758 190.263a2 2 0 0 1-1.693 2.265l-32.56 4.71a1.999 1.999 0 1 1-.573-3.958l32.56-4.71a2 2 0 0 1 2.266 1.693m1.49 8.51a2 2 0 0 1-1.693 2.266l-32.56 4.71a2 2 0 0 1-.573-3.959l32.56-4.71a2 2 0 0 1 2.266 1.693m1.441 9.439a2 2 0 0 1-1.693 2.266l-32.56 4.71a2 2 0 1 1-.573-3.959l32.56-4.71a2 2 0 0 1 2.266 1.693" clip-rule="evenodd"/><path fill="#FCDCD2" d="M243.379 165.251c1.67-1.09 7.52 1.36 7.44 7.5-.09 6.14-3.56 8.26-6.08 6.58-2.52-1.67-7.03-10.38-1.36-14.08m2.89 16.211c1.99-.88 7.92 2.63 6.81 9.06s-5.21 8.09-7.67 5.93-5.9-12.01.86-14.99m3.041 17.168c1.9-.63 6.54 3.91 6.27 9.99-.31 7.11-6.44 6.07-8.48 3.84s-4.25-11.7 2.21-13.83"/><path fill="#FFF0F0" d="M128.01 183.719s22.2-20.41 29.37-22.84 6.89-2.99 9.67-2.98-7.65 12.81-20.32 16.53c6.18 17.58-18.72 18.37-18.72 9.28z"/><path fill="#FFF0F0" d="m126.061 175.75 1.96 7.97s-9.91 14.12-9.8 1.76c.04-4.58 4.58-6.07 4.58-6.07l-1.2-1.41z"/><path fill="#FFF0F0" d="M127.11 180.042s-9.46 37.01-5.1 37.01c6.82 0 7.9-24.47 9.64-36.8-3.58 4.05-4.53-.21-4.53-.21z"/><path fill="#FCDCD2" d="m128.01 183.721 29.37-22.84s-29.56 12.38-31.32 14.87 1.96 7.97 1.96 7.97z"/><path fill="#A4A1E0" d="M83.05 211.039s11.63-8.3 15.65 22.98c3.371 26.21-2.84 29.41-7.14 31.55-3.65 1.82-13.89-4.49-13.89-4.49l-9.16-36.42 14.54-13.61z"/><path fill="#4C39B0" d="M83.05 211.039s11.63-8.3 15.65 22.98c3.371 26.21-2.84 29.41-7.14 31.55-3.65 1.82-13.89-4.49-13.89-4.49l-9.16-36.42 14.54-13.61z" opacity=".5" style="mix-blend-mode:darken"/><path fill="#FCDCD2" d="M96.913 211.623c13.079-15.77 11.245-20.767 11.75-30.442.002-3.476 1.392-5.058 4.553-3.92 2.735.984 5.19 6.379 5.187 9.929-.011 6.012-2.219 14.095-2.219 14.095l-19.262 10.334z"/><path fill="#000" fill-opacity=".5" d="M96.913 211.621c13.079-15.771 11.245-20.767 11.75-30.442.002-3.477 1.392-5.058 4.553-3.921 2.735.985 5.19 6.379 5.187 9.929-.011 6.013-2.219 14.096-2.219 14.096l-19.262 10.334z" style="mix-blend-mode:overlay"/><path fill="#FCDCD2" d="M59.68 224.651s28.67-17.9 36.28-19.65c3.91 18.22-1.67 39.64-1.67 39.64s-13.92 7-25.78 13.94c-12.72 7.44-8.83-33.93-8.83-33.93"/><path fill="#FCDCD2" d="m91.118 207.117 26.995-6.423 4.057 42.847-31.09 2.26s-8.032-13.544.038-38.684"/><mask id="g" width="51" height="18" x="93" y="200" maskUnits="userSpaceOnUse" style="mask-type:alpha"><path fill="#000" d="M94.793 205.295s14.171-4.476 28.711-5.006c12.08-.44 13.224-.002 16.57.007 3.85-.17 3.76 5.08 3.76 5.08s-.68 4.13-2.92 4.86c-1.94.63-4.37.693-16.61 1.633-14.88 1.14-30.99 5.84-30.99 5.84l.48-11.939z"/></mask><g mask="url(#g)"><path fill="#FCDCD2" d="M94.634 205.338s14.329-4.513 28.869-5.043c12.08-.44 13.459.143 16.609.003 3.85-.17 3.76 5.08 3.76 5.08s-.68 4.13-2.92 4.86c-1.94.63-4.409.697-16.649 1.637-14.88 1.14-30.99 5.84-30.99 5.84l.413-12.06z"/><path fill="#FCDCD2" d="M118.213 198.748s8.92 4.41 5.53 8.9-7.41 6.57-7.41 6.57l34.86-6.15 2.46-8.23-4.41-3.34-31.04 2.25z"/><path fill="#000" fill-opacity=".5" d="M118.213 198.748s8.92 4.41 5.53 8.9-7.41 6.57-7.41 6.57l34.86-6.15 2.46-8.23-4.41-3.34-31.04 2.25z" style="mix-blend-mode:overlay"/><path fill="#000" fill-opacity=".5" d="M119.973 212.017s3.05-3.24 6.64-3.04c19.29 1.07 23.25-2.34 23.25-2.34l-2.19 3.8z" style="mix-blend-mode:overlay"/></g><mask id="h" width="51" height="19" x="96" y="210" maskUnits="userSpaceOnUse" style="mask-type:alpha"><path fill="#FCDCD2" d="M97.2 215.563s15.17-4.31 29.71-4.84c12.08-.44 12.599.138 15.749-.002 3.85-.17 3.76 5.08 3.76 5.08s-.68 4.13-2.92 4.86c-1.94.63-3.549.702-15.789 1.642-14.88 1.14-30.99 5.84-30.99 5.84l.47-12.59z"/></mask><g mask="url(#h)"><path fill="#FCDCD2" d="M97.494 215.126s15.619-4.411 30.588-4.953c12.437-.451 12.804.142 16.047-.002 3.963-.174 3.871 5.199 3.871 5.199s-.7 4.227-3.006 4.974c-1.998.645-3.486.718-16.088 1.68C113.586 223.19 97 228 97 228l.484-12.884z"/><path fill="#000" fill-opacity=".5" d="M121.62 209.172s8.92 4.41 5.53 8.9-7.41 6.57-7.41 6.57l35.26-5.641 2.06-8.739-4.41-3.34-31.04 2.25z" style="mix-blend-mode:overlay"/><path fill="#000" fill-opacity=".5" d="M123.38 222.441s3.05-3.24 6.64-3.04c19.29 1.07 23.25-2.34 23.25-2.34l-2.19 3.8z" style="mix-blend-mode:overlay"/></g><mask id="i" width="34" height="15" x="110" y="229" maskUnits="userSpaceOnUse" style="mask-type:alpha"><path fill="#FCDCD2" d="M110.89 234.462s-4.29-3.88 10.25-4.4c12.08-.44 15.779-.31 18.929-.3 4.43.01 2.68 6.44 2.68 6.44s0 2.12-3.22 3.31c-1.91.71-5.119 3.1-17.359 4.04-14.88 1.14-10.19-4.85-10.19-4.85l-1.1-4.24z"/></mask><g mask="url(#i)"><path fill="#FCDCD2" d="M110.89 234.459s-4.29-3.88 10.25-4.4c12.08-.44 15.867-.35 19.017-.34 4.43.01 2.68 6.44 2.68 6.44s0 2.12-3.22 3.31c-1.91.71-5.207 3.14-17.447 4.08-14.88 1.14-10.19-4.85-10.19-4.85l-1.1-4.24z"/><path fill="#000" fill-opacity=".5" d="M123.08 229.41s14.13 3.05 3.74 14.65c-4.72 5.28 15.64-2.58 15.64-2.58l9.66-6.14-5.05-9.42-23.99 3.5z" style="mix-blend-mode:overlay"/><path fill="#000" fill-opacity=".5" d="m151.69 235.111-25.87 9.83S129.5 241 132 240.5" style="mix-blend-mode:overlay"/></g><mask id="j" width="54" height="19" x="94" y="220" maskUnits="userSpaceOnUse" style="mask-type:alpha"><path fill="#FCDCD2" d="M95.38 226.133s15.171-4.31 29.711-4.84c12.08-.44 15.063-.328 18.213-.458 4.85-.19 3.6 5.07 3.6 5.07s.47 4.05-4.13 4.68c-2.02.28-4.643 1.348-16.883 2.288-14.88 1.14-30.99 5.84-30.99 5.84l.47-12.59z"/></mask><g mask="url(#j)"><path fill="#FCDCD2" d="M95.49 225.55s15.485-4.609 30.326-5.175c12.331-.471 13.947-.365 18.532-.364 4.951-.203 3.433 5.785 3.433 5.785s.479 4.33-4.216 5.004c-2.062.299-4.438.951-16.932 1.956C111.444 233.975 95 239 95 239l.48-13.461z"/><path fill="#000" fill-opacity=".5" d="M124.161 221.33c.3-.46 8.92 3.2 5.05 8.92-3.04 4.49-6.69 6.54-6.69 6.54l31.58-6.02 2.2-8.22-4.01-3.35z" style="mix-blend-mode:overlay"/><path fill="#000" fill-opacity=".5" d="M127.212 232.809s1.718-2.68 6.918-2.76 21.69-2.39 21.69-2.39l-5.06 5.15z" style="mix-blend-mode:overlay"/></g><path fill="#000" fill-opacity=".5" fill-rule="evenodd" d="M86.792 216.265a1 1 0 0 1 .812 1.158c-1.39 7.932-.156 14.428 1.42 18.935a32 32 0 0 0 2.334 5.197c.336.593.62 1.043.82 1.342a13 13 0 0 0 .284.41l.012.017.001.002a1 1 0 0 1-1.593 1.209l.797-.605-.797.604-.001-.001-.002-.003-.007-.009-.021-.028-.075-.103a16 16 0 0 1-.264-.385 24 24 0 0 1-.895-1.464 34 34 0 0 1-2.48-5.523c-1.668-4.768-2.963-11.613-1.503-19.94a1 1 0 0 1 1.158-.813" clip-rule="evenodd" style="mix-blend-mode:overlay"/><path fill="#5141BA" fill-rule="evenodd" d="m82.787 211.461-.002.002-.02.016-.093.074c-.083.068-.21.174-.371.318a20 20 0 0 0-1.334 1.313 26 26 0 0 0-3.795 5.309c-2.554 4.71-4.583 11.808-2.346 21.333a1 1 0 0 1-1.947.457c-2.362-10.055-.226-17.653 2.535-22.743a28.5 28.5 0 0 1 2.752-4.164 226 226 0 0 0-9.668 4.332c-7.725 3.688-16.663 8.558-21.886 13.39a1 1 0 1 1-1.358-1.468c5.467-5.058 14.654-10.038 22.382-13.727a229 229 0 0 1 13.057-5.727 154 154 0 0 1 1.055-.416l.056-.022.019-.007s.002 0 .36.933l-.359-.933a1 1 0 0 1 .964 1.729z" clip-rule="evenodd" opacity=".5" style="mix-blend-mode:darken"/><path fill="#A4A1E0" d="M37.76 246.989s-6.55-15.33 45.29-35.96c-15.23 14.19-9.02 33.4-1.47 44.83 3.87 5.86 8.1 9.67 9.98 9.7-4.84 2.84-25.53 6.78-25.53 6.78s-13.9 2.32-22.21-6.8c-1.74-1.91-3.24-4.33-4.31-7.38s-1.71-6.73-1.75-11.17"/><mask id="k" width="55" height="62" x="37" y="211" maskUnits="userSpaceOnUse" style="mask-type:alpha"><path fill="#000" d="M37.76 246.987s-6.55-15.33 45.29-35.96c-15.23 14.19-9.02 33.4-1.47 44.83 3.87 5.86 8.1 9.67 9.98 9.7-4.84 2.84-25.53 6.78-25.53 6.78s-13.9 2.32-22.21-6.8c-1.74-1.91-3.24-4.33-4.31-7.38s-1.71-6.73-1.75-11.17"/></mask><g mask="url(#k)"><path fill="#5141BA" d="M28.952 256.838s26.09 12.62 55 0 9.05 16.81 9.05 16.81l-43.83 3.77-20.23-20.58z" opacity=".5" style="mix-blend-mode:darken"/></g><mask id="l" width="86" height="86" x="186" y="28" maskUnits="userSpaceOnUse" style="mask-type:alpha"><path fill="#009444" d="M229.249 113.373c23.472 0 42.5-19.028 42.5-42.5s-19.028-42.5-42.5-42.5-42.5 19.028-42.5 42.5 19.028 42.5 42.5 42.5"/></mask><g mask="url(#l)"><path fill="#239842" d="M229.249 113.373c23.472 0 42.5-19.028 42.5-42.5s-19.028-42.5-42.5-42.5-42.5 19.028-42.5 42.5 19.028 42.5 42.5 42.5"/><path fill="#38BA58" d="M219.181 103.583c23.472 0 42.5-19.027 42.5-42.5s-19.028-42.5-42.5-42.5-42.5 19.028-42.5 42.5 19.028 42.5 42.5 42.5"/><path fill="#F8F8F8" fill-rule="evenodd" d="M252.513 54.492a7.96 7.96 0 0 1-.002 11.255l-21.509 21.499a7.96 7.96 0 0 1-11.256-.004l-13.769-13.778a7.959 7.959 0 1 1 11.26-11.252l8.142 8.148 15.879-15.871a7.96 7.96 0 0 1 11.255.003" clip-rule="evenodd"/></g></g><defs><clipPath id="a"><path fill="#fff" d="M0 0h300v300H0z"/></clipPath><clipPath id="b"><rect width="250" height="250" x="25" y="25" fill="#fff" rx="125"/></clipPath></defs></svg>