<svg xmlns="http://www.w3.org/2000/svg" width="300" height="300" fill="none" class="persona-ilustration" viewBox="0 0 300 300"><g clip-path="url(#a)"><g clip-path="url(#b)"><rect width="250" height="249.999" x="25" y="25.003" fill="#D3EDFF" rx="125"/><path fill="#AADBFF" d="M135.369 4.335H19.61v283.428h115.759z"/><path fill="#82C2F1" d="m35.802 57.827 88.956 9.04v35.243l-87.363-6.034z"/><path fill="#AADBFF" d="m13.977 68.268 88.766 6.36-.401 8.365-87.205-5.57z"/><path fill="#4793CC" d="M113.64 85.58c2.324 0 4.208-2.362 4.208-5.275 0-2.912-1.884-5.274-4.208-5.274s-4.209 2.362-4.209 5.274 1.884 5.275 4.209 5.275"/><path fill="#82C2F1" d="m54.03 8.017 72.352 12.552v35.253L54.03 49.778z"/><path fill="#AADBFF" d="m15.802 28.607 88.766 6.361-.401 8.365-87.205-5.57z"/><path fill="#4793CC" d="M115.465 45.926c2.324 0 4.209-2.362 4.209-5.275s-1.885-5.274-4.209-5.274c-2.325 0-4.209 2.361-4.209 5.274s1.884 5.274 4.209 5.274"/><path fill="#82C2F1" d="m38.408 283.218 245.327-49.346-34.072-27.911-293.998 37.194z"/><path fill="#AADBFF" d="m68.154 256.519 245.327-49.345-26.582-36.498-329.536 22.574z"/><path fill="#F8F8F8" d="m66.856 222.921 20.517 16.825a5.8 5.8 0 0 0 4.673 1.224l68.028-12.11c1.508-.264 2.025-2.163.865-3.154l-14.842-12.764a4.37 4.37 0 0 0-3.334-1.034l-75.042 8.091c-1.466.158-2.014 1.994-.875 2.933z"/><path fill="#535353" d="M312.7 162.911s-123.797-8.08-137.869 3.882-23.808 108.217-23.808 108.217l159.019 7.838z"/><mask id="c" width="120" height="114" x="161" y="164" maskUnits="userSpaceOnUse" style="mask-type:alpha"><path fill="#FFC509" d="M165.369 204.134c8.112-26.688 11.013-34.757 32.627-37.658s66.388-3.797 72.274 2.753c13.861 15.443 12.616 36.793 4.008 73.207-8.607 36.413-43.181 34.926-43.181 34.926h-63.043s-13.845-36.509-2.685-73.228"/></mask><g mask="url(#c)"><path fill="#EA4F4A" d="M165.369 204.134c8.112-26.688 11.013-34.757 32.627-37.658s66.388-3.797 72.274 2.753c13.861 15.443 12.616 36.793 4.008 73.207-8.607 36.413-43.181 34.926-43.181 34.926h-63.043s-13.845-36.509-2.685-73.228"/><path fill="#BB393A" d="m224.209 227.414-61.54 1.888v60.58h82.51z"/></g><path fill="#82C2F1" d="M76.382 207.521s12.5-20.644 49.241-4.99c4.989 2.12 5.791 2.321 8.776 2.901 6.762 1.298 8.312-1.35 2.753-4.082-6.856-3.355-14.272-6.614-14.272-6.614s-23.787-10.169-37.71-3.608c-11.298 5.327-15.96 16.762-17.31 20.886-.275.844.358 1.709 1.244 1.678 2.025-.074 3.354-.971 7.289-6.171z"/><path fill="#82C2F1" d="M98.007 176.023h-10v16.308h10z"/></g><mask id="d" width="37" height="46" x="209" y="130" maskUnits="userSpaceOnUse" style="mask-type:alpha"><path fill="#000" d="m209.548 137.066 3.905 31.192 2.838 6.819 29.147-9.827-6.688-34.835z"/></mask><g mask="url(#d)"><path fill="#F1AA90" d="m209.548 137.066 3.905 31.192 2.838 6.819 29.147-9.827-6.688-34.835z"/><path fill="#000" d="M237.143 132.379c-2.485 16.842-6.483 29.454-19.552 32.144-14.825 3.055-20.215-7.903-20.215-7.903l9.696-21.018 24.092-9.51 5.97 6.287z" opacity=".5" style="mix-blend-mode:overlay"/></g><path fill="#EFEFEF" d="M209.576 201.4c-.357-1.964 2.826-18.743 4.463-26.888l4.797-1.227-4.355 26.13c-.276 1.657-1.362 3.272-3.042 3.279-.904.004-1.685-.312-1.863-1.294"/><path fill="#EFEFEF" d="m222.143 165.706-3.892 1.287-2.076 7.369.26 2.019 11.352-5.327z"/><path fill="#EFEFEF" d="m216.441 176.382-1.247-9.463-1.96-.505-3.328 5.078z"/><path fill="#F8F8F8" d="M215.251 166.92s-2.386 1.742-3.508 2.886c-1.778 1.81-1.504 3.569-2.085 6.153-2.394-.97-2.698-8.376-2.455-10.539.242-2.162 5.207-5.208 5.207-5.208zm2.993-.023s5.146 2.94 5.146 9.924c5.502 2.905 24.102-6.168 26.587-11.876.794-1.831-4.512-8.622-6.38-9.323-7.175 6.268-25.344 11.275-25.344 11.275z"/><path fill="#F1AA90" d="M182.131 95.583c-1.309 51.108 1.195 58.32 22.925 61.65 10.952 1.678 25.314-3.216 29.892-14.137 3.022-7.207 5.843-21.709 5.021-38.402s-6.179-20.49-12.27-24.048c-3.746-2.186-44.167-12.424-45.559 14.928z"/><path fill="#F1AA90" d="M247.156 110.314c4.783 6.1.458 16.89-1.14 19.356-1.149 1.766-5.88 6.704-9.346-1.293"/><path fill="#411917" fill-rule="evenodd" d="M246.746 109.792a.665.665 0 0 1 .933.113c2.569 3.276 2.648 7.739 1.953 11.569-.696 3.843-2.206 7.242-3.058 8.557l-.001.002a9.4 9.4 0 0 1-1.573 1.801c-.703.625-1.602 1.23-2.621 1.494-1.045.27-2.196.174-3.317-.575-1.095-.732-2.108-2.05-3.001-4.111a.665.665 0 0 1 1.219-.529c.839 1.937 1.718 3 2.52 3.536.777.519 1.531.578 2.246.393.74-.192 1.455-.653 2.071-1.201a8 8 0 0 0 1.342-1.532c.745-1.151 2.197-4.38 2.866-8.072.672-3.707.522-7.689-1.692-10.513a.665.665 0 0 1 .113-.932" clip-rule="evenodd"/><path fill="#411917" d="M183.736 98.615c6.857-7.52 23.205-7.616 39.357-5.196 13.62 2.036 16.478 16.521 16.478 16.521s1.383-1.289 3.569-1.794c2.186-.504 10.126-24.325-8.959-27.931-11.21-22.093-40.038-10.593-46.512-6.82-6.473 3.775-14.844 18.585-5.549 26.861z"/><path fill="#411917" d="M232.2 96.414s3.241 5.446 1.915 16.077c-1.065 8.538 2.457 9.108 2.457 9.108s.803-8.753 3.008-11.649-2.616-9.323-2.616-9.323l-4.764-4.204z"/><path fill="#2C54DC" d="M238.058 125.848c-3.447-4.307-4.961-13.835.915-20.552 6.147-3.484 7.156-.439 7.156-.439s2.783 6.502 1.756 13.639c-.813 5.633 1.775 9.547-4.736 10.182-1.57.15-3.728-1.13-5.091-2.83"/><path fill="#A6B7FF" d="M232.826 77.823s4.559 9.323 5.493 13.667c1.663 7.763 3.055 16.142 3.055 16.142l4.063-2.401s-.85-5.8-3.008-14.432c-.644-2.57-1.709-6.586-4.409-9.454s-5.194-3.522-5.194-3.522"/><path fill="#A4A1E0" d="M241.552 125.084c-2.037-3.475-2.962-11.957-.178-17.45 3.541-6.978 7.679-.794 7.679-.794s3.008 4.493 1.98 11.63c-.812 5.633-2.447 9.762-5.455 9.538-1.569-.112-2.924-1.046-4.026-2.924"/><path fill="#2C54DC" d="M244.028 120.823c-1-1.7-1.448-5.847-.084-8.538 1.737-3.409 5.082-1.457 5.082-1.457s.149 3.269-.355 6.754c-.393 2.756 1.616 4.97-1.579 5.138-1.99.102-2.522-.991-3.064-1.906z"/><path fill="#A4A1E0" d="M246.504 120.805c-1-1.7-1.448-5.848-.085-8.538 1.738-3.41 3.756-.383 3.756-.383s1.466 2.195.971 5.689c-.392 2.756-1.195 4.774-2.671 4.671-.766-.056-1.43-.514-1.971-1.429z"/><path fill="#2449CF" fill-rule="evenodd" d="M244.465 121.104a1.4 1.4 0 0 1 .33 1.954l-1.142-.812 1.142.812-.007.011-.019.026-.071.098-.268.365a71 71 0 0 1-4.453 5.395c-1.407 1.538-3.039 3.166-4.748 4.556-1.696 1.378-3.545 2.586-5.388 3.201a1.4 1.4 0 0 1-.886-2.659c1.38-.46 2.924-1.43 4.506-2.717 1.567-1.274 3.096-2.795 4.448-4.272a69 69 0 0 0 4.521-5.515l.062-.087.015-.021.004-.004v-.001a1.4 1.4 0 0 1 1.954-.33" clip-rule="evenodd"/><path fill="#A6B7FF" d="M248.409 113.631c1.028-.094 2.074.943 1.196 4.222s-6.651 8.931-7.725 6.661c-.449-.953-.636-1.243-.019-2.401.616-1.159 4.493-8.305 6.548-8.482m-23.869 26.642c-1.719-.14-3.279-1.775-2.065-3.914 1.542-2.728 4.933-2.644 4.933-2.644s2.466.056 2.597 2.009c.103 1.541-.514 3.008-2.504 3.923-1.046.476-2.036.701-2.961.626"/><mask id="e" width="15" height="9" x="203" y="138" maskUnits="userSpaceOnUse" style="mask-type:alpha"><path fill="#411917" d="M217.426 145.038c.345-2.858-5.474-7.51-10.173-6.38-1.868.448-3.634 1.186-3.886 3.288-.308 2.522 1.448 3.372 3.624 3.457 2.392.093 3.961-.122 5.652.448 1.859.626 2.793.925 3.802.682.551-.131.925-.897 1-1.495z"/></mask><g mask="url(#e)"><path fill="#2E2E2E" d="M217.426 145.038c.345-2.858-5.474-7.51-10.173-6.38-1.868.448-3.634 1.186-3.886 3.288-.308 2.522 1.448 3.372 3.624 3.457 2.392.093 3.961-.122 5.652.448 1.859.626 2.793.925 3.802.682.551-.131.925-.897 1-1.495z"/><path fill="#EA4F4A" d="M215.864 152.57c4.891 0 8.856-2.083 8.856-4.652s-3.965-4.652-8.856-4.652-8.856 2.082-8.856 4.652c0 2.569 3.965 4.652 8.856 4.652"/></g><ellipse cx="204.832" cy="130.237" fill="#000" opacity=".25" rx="4.368" ry="1.546" style="mix-blend-mode:overlay"/><path fill="#411917" fill-rule="evenodd" d="M204.72 117.72a.72.72 0 0 1 .411.931l-4.139 10.672c.349.642 1.744 1.95 5.736.874a.72.72 0 1 1 .374 1.39c-4.83 1.301-7.122-.474-7.576-2.061l-.066-.232 4.329-11.164a.72.72 0 0 1 .931-.41" clip-rule="evenodd"/><path fill="#411917" d="M195.57 117.732c1.195.022 2.188-1.254 2.217-2.851.03-1.597-.915-2.909-2.111-2.931-1.195-.022-2.188 1.255-2.217 2.851s.916 2.909 2.111 2.931"/><path fill="#411917" fill-rule="evenodd" d="m199.705 114.061-.612.432za.762.762 0 0 1-1.242.88l-.001-.002-.001-.001m.001.001-.018-.023a4 4 0 0 0-.495-.509 5.5 5.5 0 0 0-1.73-1.012c-1.545-.564-4.057-.739-7.73 1.255a.762.762 0 0 1-.726-1.338c3.993-2.167 6.96-2.083 8.977-1.347a7 7 0 0 1 2.209 1.295 5.7 5.7 0 0 1 .695.719l.041.054.013.018.004.006.002.002.001.001" clip-rule="evenodd"/><path fill="#411917" d="M187.462 106.546c1.992-.577 13.308-3.289 12.699.547-.17.858-1.111 1.356-1.917 1.039-3.243-1.123-7.037-.563-10.38-.097-.967.215-1.338-1.191-.402-1.489m31.835 11.015c-1.196.006-2.172-1.283-2.18-2.88s.955-2.897 2.15-2.903 2.171 1.283 2.179 2.88-.954 2.897-2.149 2.903"/><path fill="#411917" fill-rule="evenodd" d="m212.668 113.342.561.489-.561-.488a.761.761 0 0 0 1.145 1.002l.002-.002s.001-.001-.573-.501l.574.5m-.003.003.017-.018q.027-.03.093-.09c.087-.081.227-.2.419-.336.384-.27.977-.605 1.79-.832 1.607-.448 4.175-.502 7.821 1.392a.76.76 0 1 0 .702-1.35c-3.94-2.047-6.903-2.073-8.931-1.508a7.3 7.3 0 0 0-2.259 1.054 5.6 5.6 0 0 0-.73.613l-.045.047-.014.016-.005.006-.002.002-.001.001" clip-rule="evenodd"/><path fill="#411917" d="M223.374 107.292c-3.357-.448-7.163-.994-10.413.164-1.775.625-2.744-2.002-.987-2.683 4.01-.931 7.907.105 11.793 1.026.944.287.571 1.701-.393 1.493"/><path fill="#EA4F4A" d="M206.286 165.501s-23.265.215-29.091 5.109c-9.088 5.127-14.063 12.126-19.64 21.939-14.525 25.559-26.878 49.452-28.207 63.534-.77 8.218 3.608 16.224 11.192 19.484 5.042 2.162 11.118 2.004 17.015-5.053m90.609-102.155s31.839-13.793 42.303 29.699c6.877 28.586 4.915 55.991 2.289 69.883-1.53 8.112-7.954 14.599-16.139 15.623-5.443.685-11.235-1.15-14.948-9.568"/><path fill="#F1AA90" d="M182.529 200.865c-.042 4.361-1.032 10.154-5.115 14.275-4.082 4.121 16.328 13.042 16.328 13.042l11.741-24.941s-18.049-5.682-22.943-2.376z"/><path fill="#000" d="M182.529 200.865c-.042 4.361-1.032 10.154-5.115 14.275-4.082 4.121 16.328 13.042 16.328 13.042l11.741-24.941s-18.049-5.682-22.943-2.376z" opacity=".5" style="mix-blend-mode:overlay"/><mask id="f" width="34" height="67" x="176" y="154" maskUnits="userSpaceOnUse" style="mask-type:alpha"><path fill="#E58061" d="M204.818 210.408c-2.015 5.234-4.121 8.976-4.301 9.331-1.244 2.48-4.254.26-11.5-2.472-3.766-1.411-7.743-12.511-8.682-19.272-2.162-15.634-2.679-20.156-3.597-25.654-.38-2.308 2.321-2.629 3.038-2.181.538.344 4.842 15.22 4.842 15.22s-5.728-19.1-4.526-21.74c1.203-2.652 3.176-2.456 3.735-.884.464 1.297 5.675 19.605 5.675 19.605l-6.35-25.895s-.011-.184-.032-.413c-.053-.701.264-1.401.844-1.722.759-.425 1.909-.54 3.133 1.194 2.131 3.041 8.133 24.61 8.133 24.61l-4.578-18.894a2.4 2.4 0 0 1 .179-1.653c.559-1.113 1.783-2.571 3.787-.069 2.721 3.386 6.835 20.512 7.299 22.441.021.103.043.206.053.321l.833 3.604c-.295.827.085.884 0 0 1.214-3.443 1.635-11.547 3.218-13.051 1.92-1.836 4.546.402 3.734 3.295-1.519 5.406-1.509 14.899-1.719 18.216-.233 3.685-.682 4.547-1.382 8.64z"/></mask><g mask="url(#f)"><path fill="#F1AA90" d="M204.818 210.408c-2.015 5.234-4.121 8.976-4.301 9.331-1.244 2.48-4.254.26-11.5-2.472-3.766-1.411-7.743-12.511-8.682-19.272-2.162-15.634-2.679-20.156-3.597-25.654-.38-2.308 2.321-2.629 3.038-2.181.538.344 4.842 15.22 4.842 15.22s-5.728-19.1-4.526-21.74c1.203-2.652 3.176-2.456 3.735-.884.464 1.297 5.675 19.605 5.675 19.605l-6.35-25.895s-.011-.184-.032-.413c-.053-.701.264-1.401.844-1.722.759-.425 1.909-.54 3.133 1.194 2.131 3.041 8.133 24.61 8.133 24.61l-4.578-18.894a2.4 2.4 0 0 1 .179-1.653c.559-1.113 1.783-2.571 3.787-.069 2.721 3.386 6.835 20.512 7.299 22.441.021.103.043.206.053.321l.833 3.604c-.295.827.085.884 0 0 1.214-3.443 1.635-11.547 3.218-13.051 1.92-1.836 4.546.402 3.734 3.295-1.519 5.406-1.509 14.899-1.719 18.216-.233 3.685-.682 4.547-1.382 8.64z"/><path fill="#000" d="M204.818 210.408c-2.015 5.234-4.121 8.976-4.301 9.331-1.244 2.48-4.254.26-11.5-2.472-3.766-1.411-7.743-12.511-8.682-19.272-2.162-15.634-2.679-20.156-3.597-25.654-.38-2.308 2.321-2.629 3.038-2.181.538.344 4.842 15.22 4.842 15.22s-5.728-19.1-4.526-21.74c1.203-2.652 3.176-2.456 3.735-.884.464 1.297 5.675 19.605 5.675 19.605l-6.35-25.895s-.011-.184-.032-.413c-.053-.701.264-1.401.844-1.722.759-.425 1.909-.54 3.133 1.194 2.131 3.041 8.133 24.61 8.133 24.61l-4.578-18.894a2.4 2.4 0 0 1 .179-1.653c.559-1.113 1.783-2.571 3.787-.069 2.721 3.386 6.835 20.512 7.299 22.441.021.103.043.206.053.321l.833 3.604c-.295.827.085.884 0 0 1.214-3.443 1.635-11.547 3.218-13.051 1.92-1.836 4.546.402 3.734 3.295-1.519 5.406-1.509 14.899-1.719 18.216-.233 3.685-.682 4.547-1.382 8.64z" opacity=".5" style="mix-blend-mode:overlay"/></g><mask id="g" width="42" height="81" x="178" y="152" maskUnits="userSpaceOnUse" style="mask-type:alpha"><path fill="#000" d="M219.588 218.774c-1.139 2.537-7.363 17.167-13.608 12.312-2.959-2.305-6.902-10.884-10.206-16.094-7.612-1.242-10.854-14.347-11.576-18.337-2.817-15.507-4.737-19.686-5.887-25.126-.485-2.285 2.406-3.019 2.944-2.331.907 1.194 5.474 14.957 5.474 14.957s-6.529-18.79-5.432-21.499 3.059-2.617 3.692-1.068c.517 1.274 6.498 19.307 6.498 19.307l-7.437-25.551s-.021-.184-.053-.402c-.084-.7.201-1.412.77-1.756.739-.459 1.888-.643 3.175 1.045 2.258 2.927 9.167 24.173 9.167 24.173l-5.369-18.652a2.4 2.4 0 0 1 .116-1.653c.506-1.148 1.666-2.652 3.776-.264 2.859 3.248 7.701 20.156 8.239 22.061q.047.156.063.31l.981 3.559c.126.872.802 1.193 1.065.356 1.066-3.501.77-8.517 2.279-10.113 1.835-1.94 4.367-1.997 3.671.941-1.287 5.475-1.361 13.683-1.435 17-.074 3.696-.543 5.367-.543 8.994 5.596 14.387 10.426 16.055 9.636 17.831"/></mask><g mask="url(#g)"><path fill="#F1AA90" d="M219.588 218.774c-1.139 2.537-7.363 17.167-13.608 12.312-2.959-2.305-6.902-10.884-10.206-16.094-7.612-1.242-10.854-14.347-11.576-18.337-2.817-15.507-4.737-19.686-5.887-25.126-.485-2.285 2.406-3.019 2.944-2.331.907 1.194 5.474 14.957 5.474 14.957s-6.529-18.79-5.432-21.499 3.059-2.617 3.692-1.068c.517 1.274 6.498 19.307 6.498 19.307l-7.437-25.551s-.021-.184-.053-.402c-.084-.7.201-1.412.77-1.756.739-.459 1.888-.643 3.175 1.045 2.258 2.927 9.167 24.173 9.167 24.173l-5.369-18.652a2.4 2.4 0 0 1 .116-1.653c.506-1.148 1.666-2.652 3.776-.264 2.859 3.248 7.701 20.156 8.239 22.061q.047.156.063.31l.981 3.559c.126.872.802 1.193 1.065.356 1.066-3.501.77-8.517 2.279-10.113 1.835-1.94 4.367-1.997 3.671.941-1.287 5.475-1.361 13.683-1.435 17-.074 3.696-.543 5.367-.543 8.994 5.596 14.387 10.426 16.055 9.636 17.831"/><path fill="#000" d="M193.48 155.586c-2.795-.322 2.026 13.28 2.891 16.506.495 1.836.727 6.301.727 6.301l-6.086-18.721s1.74-4.167 2.468-4.086m-7.289-3.994c-.548 1.423-1.498 1.412-1.023 3.466s2.616 8.609 2.616 8.609 2.975 10.388 3.281 12.558c.147 1.033.105 3.627.105 3.627l-7.268-22.383-.274-3.8 1.129-.505zm-3.132 8.655s-1.329 2.284-1.182 3.627 2.363 8.54 2.363 8.54 1.023 4.305 1.182 5.533c.158 1.228.105 2.628.105 2.628l-3.143-8.827-1.836-9.55 1.108-2.054 1.413.103z" opacity=".25" style="mix-blend-mode:overlay"/><path fill="#000" d="M180.622 168.339s-2.004 2.077-1.192 4.408c.812 2.33 6.827 23.339 6.827 23.339s3.574 16.311 9.563 19.131c4.863 4.076 9.212 11.826 9.212 11.826l-5.745 3.87-17.231-33.74-3.228-20.386-1.761-6.68z" opacity=".25" style="mix-blend-mode:overlay"/></g><path fill="#EA4F4A" d="M219.847 213.02c-12.241 7.758-17.997 17.781-17.997 17.781s3.34 11.859 30.603 40.054c25.569 32.9 51.009 10.388 51.009 10.388"/><path fill="#AD2F2E" fill-rule="evenodd" d="M252.472 207.06a1.055 1.055 0 0 1 1.215.865l-1.04.175-1.04.175a1.054 1.054 0 0 1 .865-1.215m.175 1.04-1.04.175.057.34.16.963a1397 1397 0 0 1 2.287 14.162c.618 3.96 1.225 8.007 1.66 11.246.218 1.621.391 3.032.502 4.126.114 1.138.147 1.825.124 2.073a1.054 1.054 0 1 0 2.1.202c.047-.496-.016-1.403-.125-2.487a136 136 0 0 0-.51-4.195c-.438-3.261-1.048-7.325-1.666-11.29a1409 1409 0 0 0-2.291-14.184l-.161-.965-.057-.341zm-77.689-4.327a1.056 1.056 0 0 0-1.281.766l1.023.257 1.023.257a1.053 1.053 0 0 0-.765-1.28m-.258 1.023 1.023.257-.083.334-.237.947a1366 1366 0 0 0-3.407 13.935c-.93 3.899-1.858 7.884-2.55 11.079a133 133 0 0 0-.828 4.072c-.204 1.126-.292 1.808-.288 2.058a1.055 1.055 0 0 1-2.11.033c-.007-.498.128-1.397.323-2.468.203-1.116.493-2.534.841-4.142.697-3.216 1.628-7.218 2.56-11.121a1350 1350 0 0 1 3.412-13.957l.237-.949.084-.335c.001-.001 0 0 1.023.257" clip-rule="evenodd"/><path fill="#EA4F4A" d="M178.824 212.002c8.334 18.064 19.083 16.378 19.083 16.378s-5.83 19.9-34.891 48.824c-11.973 7.532-24.895-3.291-20.886-14.747 6.899-19.683 36.694-50.455 36.694-50.455"/><path fill="#AD2F2E" fill-rule="evenodd" d="M179.768 211.707a1.056 1.056 0 0 0-1.802-.339 1566 1566 0 0 0-21.112 25.376 990 990 0 0 0-7.179 8.926l-.377.477-.127.161c0 .001-.001.001.829.653l-.829-.653a1.056 1.056 0 0 0 1.658 1.305l-.829-.652.829.652.125-.159.375-.474c.331-.418.825-1.04 1.473-1.852 1.297-1.623 3.213-4.009 5.689-7.053a1550 1550 0 0 1 19.962-24.019 32.4 32.4 0 0 0 3.908 6.494c3.177 4.06 8.242 8.254 15.576 8.254a1.055 1.055 0 0 0 0-2.11c-6.432 0-10.95-3.656-13.915-7.444a30 30 0 0 1-4.015-6.922 14 14 0 0 1-.184-.47l-.044-.118-.009-.027z" clip-rule="evenodd"/><path fill="#BB393A" d="M214.396 248.423s33.107 22.469 47.274 25.571c6.656 1.455 12.51-.412 16.688-2.69 2.489-1.361 8.839-7.089 9.852-9.737 1.983-5.179 4.082-20.991 3.913-32.194-.253-16.497-.907-28.059-.907-28.059s5.137 24.22 3.966 41.266c-1.17 17.047-1.128 26.878-5.991 33.671-4.188 5.854-19.135 15.071-30.886 12.318-11.097-2.595-20.951-7.402-43.909-40.146m-84.97 12.918s16.234 13.883 24.262 8.125c14.414-3.487 44.176-41.866 44.176-41.866l-6.389 14.154s-25.576 39.002-36.268 41.19-27.807.852-25.781-21.592z"/><path fill="#AD2F2E" fill-rule="evenodd" d="M216.896 215.813a39 39 0 0 1-1.869 1.79c-3.204 2.828-6.241 6.391-8.487 9.267a101 101 0 0 0-3.331 4.521c.47.939 1.363 2.456 2.669 4.469 1.561 2.406 3.674 5.463 6.265 8.979 5.183 7.032 12.264 15.882 20.637 25.002a1.054 1.054 0 1 1-1.554 1.426c-8.429-9.181-15.558-18.09-20.781-25.176-2.611-3.543-4.749-6.636-6.337-9.083-1.572-2.423-2.643-4.272-3.079-5.304l-.221-.522.314-.472.878.584-.878-.584.005-.008.013-.02.052-.077.199-.293c.174-.254.429-.621.755-1.08.651-.916 1.588-2.197 2.731-3.661 2.281-2.919 5.409-6.598 8.755-9.55a37 37 0 0 0 1.765-1.692l.255-.256c.606-.606 1.224-1.21 1.841-1.638.621-.431 1.389-.789 2.275-.674.884.114 1.622.666 2.27 1.447l.047.057.039.063c.315.511 1.336 1.829 2.763 3.594a494 494 0 0 0 4.84 5.863 1148 1148 0 0 0 6.466 7.654l.144.169-.802.686.802-.686.068.08.051.091c.13.233.555.784 1.298 1.646.715.829 1.66 1.873 2.76 3.057 2.197 2.366 4.986 5.269 7.733 8.09a1186 1186 0 0 0 9.878 10.024l.675.677.237.237c0 .001.001.001-.745.747l-.746.746-.239-.239-.677-.679a1308 1308 0 0 1-9.895-10.041c-2.75-2.826-5.553-5.742-7.768-8.127a123 123 0 0 1-2.811-3.114c-.662-.768-1.206-1.439-1.483-1.895l-.497-.583-1.48-1.742c-1.23-1.452-2.886-3.411-4.587-5.445a489 489 0 0 1-4.862-5.889c-1.343-1.661-2.44-3.062-2.876-3.745-.457-.536-.743-.634-.875-.651-.134-.018-.368.015-.801.315-.437.303-.926.771-1.551 1.397zm41.396 39.444-.746.746a1.055 1.055 0 0 0 1.492-1.492zm-60.057-28.408c.54.219.8.834.581 1.374-5.167 12.764-11.939 22.878-17.419 29.801a109 109 0 0 1-6.899 7.936 71 71 0 0 1-2.052 2.054 48 48 0 0 1-.559.527l-.148.136-.04.035-.01.01-.004.003c-.001.001-.001.001-.703-.786l.703.786a1.056 1.056 0 0 1-1.405-1.574l.001-.001.008-.007.032-.029.134-.123q.181-.165.531-.5a70 70 0 0 0 1.992-1.994 108 108 0 0 0 6.765-7.782c5.388-6.808 12.044-16.75 17.118-29.284.219-.54.834-.8 1.374-.582" clip-rule="evenodd"/><path fill="#82C2F1" d="m25.064 82.52 138.924 9.335a6.05 6.05 0 0 1 5.643 6.266l-2.943 78.575a6.06 6.06 0 0 1-5.738 5.823l-135.042 7.057a6.056 6.056 0 0 1-6.372-5.991l-.928-94.968c-.032-3.524 2.943-6.34 6.466-6.098z"/><path fill="#F7F7F7" d="m29.103 88.332 130.739 8.429c3.069.2 5.432 2.71 5.316 5.664l-2.774 70.992c-.106 2.827-2.448 5.116-5.401 5.263l-127.078 6.372c-3.239.158-5.96-2.3-5.992-5.412l-.875-85.801c-.032-3.186 2.764-5.728 6.076-5.517z"/><path fill="#EA4F4A" d="m91.856 112.129-23.132 35.475c-2.67 4.092.38 9.504 5.263 9.335l46.54-1.561c4.779-.158 7.479-5.538 4.768-9.473l-23.418-33.913c-2.436-3.534-7.69-3.471-10.031.137z"/><path fill="#FFC509" d="m100.59 121.655-1.709 18.46c-.222 2.194-3.439 2.184-3.65 0l-1.709-18.46c-.253-5.116 7.311-5.126 7.068 0m-3.533 29.26a2.584 2.584 0 1 0 0-5.169 2.584 2.584 0 0 0 0 5.169"/></g><defs><clipPath id="a"><path fill="#fff" d="M0 0h300v300H0z"/></clipPath><clipPath id="b"><rect width="250" height="249.999" x="25" y="25.003" fill="#fff" rx="125"/></clipPath></defs></svg>