<svg xmlns="http://www.w3.org/2000/svg" width="300" height="300" fill="none" class="persona-ilustration" viewBox="0 0 300 300"><g clip-path="url(#a)"><g clip-path="url(#b)"><rect width="250" height="250" x="25" y="25" fill="#D3EDFF" rx="125"/><path fill="#FEEDB4" d="M185.777 245.398H-34.561V58.771h169.876c0 3.18 50.462 186.627 50.462 186.627"/><path fill="#FFF9E1" d="M197.291 237.548H-23.046V50.921H146.83c0 3.18 50.461 186.627 50.461 186.627"/><path fill="#FEEDB4" d="m181.6 233.923-.39-1.416.55 1.475h10.878l6.551-9.469h-20.175c-10.304-37.509-47.876-174.474-47.876-177.218H-38.739v186.628z"/><path fill="#FFF9E1" d="M199.107 225.226H-21.23V-13.823h158.854s3.198 17.191 11.022 52.421c0 3.18 50.461 186.628 50.461 186.628"/><path fill="#fff" d="M199.107 225.226H-21.23V-13.823h158.854s3.198 17.191 11.022 52.421c0 3.18 50.461 186.628 50.461 186.628" opacity=".75" style="mix-blend-mode:overlay"/><path fill="#E0F5F8" d="M77.823 106.893h44.317c5.76 0 11.575 4.666 12.989 10.427l10.88 44.317c1.414 5.76-2.11 10.426-7.87 10.426H93.822c-5.76 0-11.575-4.666-12.99-10.426l-10.88-44.317c-1.413-5.761 2.11-10.427 7.87-10.427"/><path fill="#80D6E2" fill-rule="evenodd" d="M72.478 106.81c1.518-.92 3.339-1.417 5.345-1.417h4.616a1.5 1.5 0 0 1 0 3h-4.616c-1.506 0-2.781.371-3.79.982a1.499 1.499 0 1 1-1.555-2.565m14 .083a1.5 1.5 0 0 1 1.5-1.5h9.233a1.5 1.5 0 0 1 0 3H87.98a1.5 1.5 0 0 1-1.5-1.5m14.773 0a1.5 1.5 0 0 1 1.5-1.5h9.233a1.5 1.5 0 0 1 0 3h-9.233a1.5 1.5 0 0 1-1.5-1.5m14.772 0a1.5 1.5 0 0 1 1.5-1.5h4.617c2.088 0 4.15.537 6.027 1.453a1.5 1.5 0 0 1-1.315 2.697c-1.522-.743-3.136-1.15-4.712-1.15h-4.617a1.5 1.5 0 0 1-1.5-1.5m15.714 4.295a1.5 1.5 0 0 1 2.107.252c1.275 1.622 2.245 3.5 2.742 5.522l1.133 4.616a1.5 1.5 0 0 1-2.913.716l-1.134-4.617c-.383-1.563-1.146-3.058-2.187-4.382a1.5 1.5 0 0 1 .252-2.107m-61.429-.051a1.5 1.5 0 0 1 1.066 1.834c-.306 1.155-.329 2.507.036 3.991l1.133 4.616a1.5 1.5 0 0 1-2.914.716l-1.133-4.617c-.472-1.924-.468-3.789-.022-5.474a1.5 1.5 0 0 1 1.834-1.066m1.78 14.882a1.5 1.5 0 0 1 1.815 1.099l2.267 9.233a1.5 1.5 0 1 1-2.914.715l-2.267-9.233a1.5 1.5 0 0 1 1.1-1.814m65.177 0a1.5 1.5 0 0 1 1.814 1.099l2.267 9.233a1.5 1.5 0 0 1-2.914.715l-2.266-9.233a1.5 1.5 0 0 1 1.099-1.814m-61.55 14.772a1.5 1.5 0 0 1 1.814 1.099l2.267 9.233a1.5 1.5 0 1 1-2.913.715l-2.267-9.232a1.5 1.5 0 0 1 1.1-1.815m65.176 0a1.5 1.5 0 0 1 1.815 1.099l2.266 9.233a1.499 1.499 0 1 1-2.913.715l-2.267-9.232a1.5 1.5 0 0 1 1.099-1.815m-61.55 14.773a1.5 1.5 0 0 1 1.815 1.099l1.133 4.616c.384 1.563 1.146 3.059 2.187 4.383a1.5 1.5 0 1 1-2.358 1.854c-1.275-1.622-2.245-3.5-2.742-5.522l-1.133-4.616a1.5 1.5 0 0 1 1.099-1.814m65.177 0a1.5 1.5 0 0 1 1.814 1.099l1.134 4.616c.472 1.925.468 3.789.022 5.474a1.5 1.5 0 1 1-2.9-.768c.305-1.155.328-2.507-.036-3.991l-1.133-4.616a1.5 1.5 0 0 1 1.099-1.814m-57.414 14.54a1.5 1.5 0 0 1 2.006-.69c1.522.742 3.136 1.149 4.712 1.149h4.616a1.5 1.5 0 0 1 0 3h-4.616c-2.089 0-4.15-.537-6.028-1.453a1.5 1.5 0 0 1-.69-2.006m56.886-.018a1.5 1.5 0 0 1-.506 2.06c-1.518.921-3.339 1.417-5.345 1.417h-4.616a1.5 1.5 0 1 1 0-3h4.616c1.506 0 2.781-.37 3.79-.982a1.5 1.5 0 0 1 2.061.505m-41.512 1.977a1.5 1.5 0 0 1 1.5-1.5h9.233a1.5 1.5 0 0 1 0 3h-9.233a1.5 1.5 0 0 1-1.5-1.5m14.772 0a1.5 1.5 0 0 1 1.5-1.5h9.233a1.5 1.5 0 1 1 0 3h-9.233a1.5 1.5 0 0 1-1.5-1.5" clip-rule="evenodd"/><path fill="#293A6E" d="M83.545 122.814c-.46-1.873.683-3.391 2.557-3.391h2.822c1.125 0 1.814-.912 1.536-2.036s-1.408-2.037-2.533-2.037h-2.823c-4.122 0-6.636 3.342-5.627 7.458l.695 2.823c.278 1.124 1.409 2.037 2.533 2.037s1.813-.913 1.535-2.037l-.695-2.823zm32.643-7.464c-1.125 0-1.814.912-1.536 2.037s1.409 2.036 2.533 2.036h2.823c1.873 0 3.765 1.518 4.225 3.391l.695 2.823c.278 1.124 1.408 2.037 2.532 2.037s1.814-.913 1.536-2.037l-.695-2.823c-1.01-4.122-5.174-7.458-9.291-7.458h-2.822zm-25.013 38.543c-.278-1.124-1.408-2.037-2.532-2.037s-1.814.913-1.535 2.037l.695 2.823c1.009 4.122 5.174 7.459 9.29 7.459h2.822c1.125 0 1.814-.913 1.536-2.037s-1.409-2.037-2.533-2.037h-2.823c-1.873 0-3.765-1.517-4.224-3.391l-.696-2.823zm44.758 0c-.278-1.124-1.409-2.037-2.533-2.037s-1.813.913-1.535 2.037l.695 2.823c.459 1.874-.683 3.391-2.557 3.391h-2.823c-1.124 0-1.813.913-1.535 2.037s1.408 2.037 2.533 2.037H131c4.123 0 6.637-3.343 5.628-7.459l-.695-2.823z"/><path fill="#293A6E" fill-rule="evenodd" d="M94.208 140.669c1.342 1.233 2.847 2.357 4.461 3.245a15 15 0 0 0-1.27 2.062c-.725 1.426-1.232 3.088-1.081 4.775.163 1.825 1.136 3.711 3.197 5.029 2.104 1.341 4.044 1.081 5.44.265 1.336-.785 2.4-2.169 3.198-3.699 1.577-3.01 2.484-7.259 2.067-10.879.501-.152.943-.26 1.311-.315a7.2 7.2 0 0 0 .363 1.953c.272.791.774 1.704 1.674 2.393.967.738 2.007.931 2.871.81.81-.109 1.511-.484 2.104-.949.52-.411 1.088-1.04 1.589-1.602l.2-.217c.604-.671 1.179-1.276 1.729-1.699a3.2 3.2 0 0 1 .628-.387c.042.061.085.133.139.23q.797 1.387 1.529 2.285c.478.586 1.058 1.166 1.771 1.565.816.454 1.608.55 2.273.393a2.9 2.9 0 0 0 1.13-.568c.786-.622.732-1.886-.121-2.817-.628-.689-1.505-1.009-2.242-.882a16 16 0 0 1-.798-1.257c-.882-1.523-2.236-2.847-4.043-3.053-1.463-.163-2.593.52-3.313 1.07-.792.605-1.523 1.396-2.115 2.049l-.182.2c-.417.465-.743.822-1.015 1.082v-.212c.006-1.015-.284-2.442-1.62-3.506-1.191-.955-2.526-1.033-3.403-.985a9 9 0 0 0-1.299.181c-.617-2.206-1.542-4.43-2.902-6.467-2.266-3.397-5.663-6.153-10.396-7.41-3.905-1.04-6.927-.617-8.305 1.613-1.287 2.08-.695 5.072.502 7.725 1.239 2.738 3.348 5.621 5.917 7.979zm9.145 4.992c-.054-.012-.102-.018-.157-.03-.767.852-1.45 1.807-1.946 2.793-.598 1.184-.828 2.212-.756 2.949.055.599.26.889.689 1.161.158.102.417.248 1.034-.115.671-.393 1.426-1.257 2.109-2.563.998-1.91 1.651-4.382 1.784-6.667-.26.151-.526.327-.792.514q.038.181.048.363c.048 1.1-.852 1.813-2.007 1.589zm-6.679-7.616c1.445 1.33 3.016 2.388 4.594 3.041.925-.804 1.898-1.463 2.847-1.916a60 60 0 0 1 1.517-.689c-.502-2.231-1.312-4.346-2.508-6.141-1.542-2.309-3.778-4.171-7.193-5.078-3.119-.828-4.098-.157-4.425.363-.417.671-.417 2.097.556 4.231.931 2.049 2.57 4.322 4.606 6.183zm14.839 2.309v-.012zm11.019.901s.006 0 .024.024a.1.1 0 0 1-.024-.024m-6.643 1.553v-.006z" clip-rule="evenodd"/><path fill="#F1AA90" d="M238.015 235.392c12.866-29.131 39.085-33.871 50.586-32.6-12.915-7.958-38.85-20.936-63.257-34.443-22.925-6.124-41.838 31.544-48.665 50.935 18.304 11.015 26.593 12.548 61.336 16.108"/><path fill="#F1AA90" d="M236.493 234.381c8.832 5.332 25.956 28.494 33.414 39.409l4.884 7.263 28.875-63.199-14.768-15.172-19.244-4.662c-14.734 9.899-41.993 31.03-33.161 36.361m-72.266-35.09c-1.174-6.395-.324-18.536.248-23.807 2.762-7.067 16.248-1.44 14.798 2.923-1.16 3.491-.744 18.221-.391 25.15-4.396 1.243-13.481 2.128-14.655-4.266"/><path fill="#000" d="M164.227 199.291c-1.174-6.395-.324-18.536.248-23.807 2.762-7.067 16.248-1.44 14.798 2.923-1.16 3.491-.744 18.221-.391 25.15-4.396 1.243-13.481 2.128-14.655-4.266" opacity=".5" style="mix-blend-mode:overlay"/><path fill="#F1AA90" d="M193.337 207.567c-6.493.334-18.421-2.085-23.573-3.336-6.649-3.656.681-16.298 4.819-14.294 3.311 1.603 17.971 3.102 24.887 3.652.661 4.52.36 13.644-6.133 13.978"/><path fill="#000" d="M193.337 207.567c-6.493.334-18.421-2.085-23.573-3.336-6.649-3.656.681-16.298 4.819-14.294 3.311 1.603 17.971 3.102 24.887 3.652.661 4.52.36 13.644-6.133 13.978" opacity=".5" style="mix-blend-mode:overlay"/><path fill="#F1AA90" d="M177.707 201.862c-1.295-5.995-.447-17.059.14-21.842 2.928-6.206 17.444.356 15.91 4.215-1.227 3.086-.702 16.66-.286 23.062-4.715.686-14.469.56-15.764-5.435"/><path fill="#000" d="M177.707 201.862c-1.295-5.995-.447-17.059.14-21.842 2.928-6.206 17.444.356 15.91 4.215-1.227 3.086-.702 16.66-.286 23.062-4.715.686-14.469.56-15.764-5.435" opacity=".75" style="mix-blend-mode:overlay"/><path fill="#F1AA90" d="m209.941 159.341 16.614 9.701c-8.044-2.172-25.566-7.482-31.307-11.336 6.338-2.508 12.436.045 14.693 1.635"/><mask id="c" width="57" height="35" x="171" y="154" maskUnits="userSpaceOnUse" style="mask-type:alpha"><path fill="#FFC7B6" d="m189.854 154.875 37.972 14.919-25.746 18.344c-6.425-4.894-21.548-16.24-30.634-22.474 8.85-10.258 15.959-11.467 18.408-10.789"/></mask><g mask="url(#c)"><path fill="#F1AA90" d="m189.853 154.875 38.74 14.701-26.514 18.561c-6.425-4.893-21.548-16.239-30.634-22.474 8.85-10.258 15.959-11.466 18.408-10.788"/><path fill="#000" d="m204.996 168.851-29.477-7.229-2.441-1.088 3.038-.251 33.521 7.333c.38.083.825.226.878.612a.71.71 0 0 1-.465.769l-.081.029zm3.223-5.954-25.779-11.578-2.168-1.563 3.026.374 31.32 14.017c.355.159.762.389.735.778a.71.71 0 0 1-.612.658l-.086.012z" opacity=".5" style="mix-blend-mode:overlay"/></g><path fill="#F1AA90" d="M131.093 162.918c-6.775-4.107-4.29-8.489-2.924-9.744 1.503-1.381 10.686.297 20.233 2.501 6.107 1.409 12.48 1.619 26.669 5.566l15.202 3.244 23.179 5.33q.079-.066.014.003l-.014-.003c-.904.757-15.701 14.788-28.31 30.296 4.054-8.59 5.78-9.051-2.293-16.104-8.375-8.333-44.532-16.71-51.756-21.089"/><path fill="#F1AA90" d="M154.111 198.495c8.049 7.111 12.738 13.85 23.556 21.31 6.589 1.203 17.368 5.487 25.106-15.241 4.641-9.475-8.885-17.679-12.025-13.541-11.272 14.851-27.743-6.583-36.637-7.088-8.893-.505-8.048 7.448 0 14.56"/><path fill="#293A6E" d="M44.123 179.371c-.32-.878.178-1.59 1.112-1.59H159.9c.934 0 1.951.712 2.27 1.59.319.877-.179 1.589-1.113 1.589H46.392c-.934 0-1.95-.712-2.27-1.589m20.223-26.688c-1.04-.798-2.38-.798-2.992 0l-4.989 6.502-8.472-6.502c-1.04-.798-2.38-.798-2.992 0s-.265 2.092.774 2.889l8.473 6.502-4.988 6.501c-.612.798-.266 2.092.774 2.89 1.04.797 2.38.797 2.991 0l4.989-6.502 8.472 6.502c1.04.798 2.38.798 2.992 0s.265-2.092-.774-2.89l-8.473-6.501 4.989-6.502c.612-.798.266-2.091-.774-2.889"/></g><mask id="d" width="86" height="58" x="186" y="84" maskUnits="userSpaceOnUse" style="mask-type:alpha"><path fill="#fff" d="M229.402 88.9c-18.478-13.25-47.209 4.986-42.249 29.382 3.953 19.446 29.527 23.601 42.249 23.262 12.412.339 37.364-3.816 41.221-23.262 4.839-24.396-23.193-42.631-41.221-29.383"/></mask><g mask="url(#d)"><path fill="#F8F8F8" d="M229.402 88.9c-18.478-13.25-47.209 4.986-42.249 29.382 3.953 19.446 29.527 23.601 42.249 23.262 12.412.339 37.364-3.816 41.221-23.262 4.839-24.396-23.193-42.631-41.221-29.383"/><path fill="#AADBFF" fill-rule="evenodd" d="M238.344 86.005c-2.744-.212-5.586 1.014-8.174 4.294l-.953 1.209-.966-1.195c-2.654-3.283-5.58-4.522-8.416-4.308-2.875.217-5.83 1.94-8.444 4.966-5.233 6.056-8.853 17.073-7.35 29.826 1.18 10.009 5.55 15.993 10.544 19.476 5.05 3.521 10.783 4.509 14.569 4.335l.052-.002.052.002c3.683.174 9.265-.812 14.183-4.327 4.863-3.476 9.132-9.456 10.285-19.479 1.468-12.767-2.069-23.79-7.173-29.845-2.55-3.024-5.424-4.737-8.209-4.952m10.078 2.796c5.742 6.81 9.469 18.818 7.906 32.411-1.264 10.989-6.018 17.759-11.518 21.69-5.422 3.875-11.513 4.959-15.605 4.777-4.184.181-10.416-.899-15.964-4.768-5.627-3.924-10.504-10.691-11.801-21.694-1.604-13.607 2.222-25.622 8.104-32.43 2.944-3.406 6.464-5.571 10.122-5.847 3.323-.25 6.62 1.072 9.528 4.156 2.839-3.08 6.064-4.407 9.323-4.156 3.588.277 7.033 2.453 9.905 5.86" clip-rule="evenodd"/><path fill="#AADBFF" fill-rule="evenodd" d="M228.456 147.157V92.154h2.626v55.003z" clip-rule="evenodd"/></g><ellipse cx="228.977" cy="94.408" fill="#AADBFF" rx="29.266" ry="13.92"/><path fill="#4793CC" d="M212.279 79.304c-2.349-12.098-8.492-37.622-14.315-43.17l-.045-.042.045.042c7.71 7.29 16.047 21.197 19.258 27.25.863-13.172 2.071-41.109 0-47.477 4.142 6.596 8.159 30.798 9.65 42.075l14.828-47.76-7.532 54.868c6.042-11.466 19.018-34.74 22.596-36.105-7.343 17.058-11.847 40.653-13.181 50.32z"/><path fill="#82C2F1" d="M180.029 85.398c16.757-3.07 23.616 6.762 24.95 12.062 9.765 9.264 32.649 8.371 40.956 0 8.097-3.946 22.517-7.31 28.715-8.498-5.57-1.188-18.688-2.413-26.597 2.192 2.825-6.305 12.71-23.302 26.597-36.46-5.178 0-26.832 13.158-36.247 20.835-.376-4.605 2.982-29.15 4.708-40.845l-13.181 29.88-2.589-26.865-2.354 26.865c-3.452-9.412-12.004-27.304-18.594-23.576 9.179 3.015 8.002 32.073 5.178 26.864S187.328 52.501 191.8 54.694s14.357 21.93 10.121 16.722c-4.237-5.209-27.303-5.209-17.418-3.564 7.909 1.316 14.907 10.783 17.418 15.352-6.905-2.01-20.949-4.386-21.892 2.194"/><path fill="#AADBFF" d="M208.033 83.797c2.335 6.836 2.918 14.593 2.918 17.51 14.135 6.163 26.327 2.147 30.424-.215.209-2.778 1.584-10.377 5.419-18.546-4.168 1.667-10.073 8.336-12.504 11.462V70.876l-6.669 25.632-7.085-25.632v25.632c-1.251-4.237-5.502-12.711-12.503-12.711"/></g><defs><clipPath id="a"><path fill="#fff" d="M0 0h300v300H0z"/></clipPath><clipPath id="b"><rect width="250" height="250" x="25" y="25" fill="#fff" rx="125"/></clipPath></defs></svg>