<svg xmlns="http://www.w3.org/2000/svg" width="300" height="300" fill="none" class="persona-ilustration" viewBox="0 0 300 300"><g clip-path="url(#a)"><g clip-path="url(#b)"><rect width="250" height="250" x="25" y="25" fill="#D3EDFF" rx="125"/><rect width="139.805" height="92.179" x="146.008" y="107.624" fill="#80D6E2" rx="11.522"/><path fill="#F8F8F8" d="M242.796 144.495h27.654v35.335h-27.654z"/><rect width="61.453" height="7.682" x="184.416" y="122.988" fill="#F8F8F8" rx="3.841"/><rect width="61.453" height="7.682" x="167.517" y="144.495" fill="#F8F8F8" rx="3.841"/><rect width="61.453" height="7.682" x="167.517" y="158.322" fill="#F8F8F8" rx="3.841"/><rect width="61.453" height="7.682" x="167.517" y="172.149" fill="#F8F8F8" rx="3.841"/></g><path fill="#3E68F5" d="M14.187 79.78c0-12.622 10.232-22.853 22.853-22.853h137.116c12.621 0 22.853 10.231 22.853 22.853v137.116c0 12.621-10.232 22.853-22.853 22.853H37.04c-12.621 0-22.853-10.232-22.853-22.853z"/><path fill="#F8F8F8" fill-rule="evenodd" d="M104.582 119.481c-8.457 0-15.313 6.857-15.313 15.314s6.856 15.314 15.313 15.314 15.314-6.857 15.314-15.314-6.856-15.314-15.314-15.314m-25.313 15.314c0-13.98 11.333-25.314 25.313-25.314s25.314 11.334 25.314 25.314-11.334 25.314-25.314 25.314-25.313-11.334-25.313-25.314M64.97 92.397c-8.457 0-15.313 6.856-15.313 15.313v17.774a5 5 0 1 1-10 0V107.71c0-13.98 11.334-25.313 25.314-25.313h17.774a5 5 0 0 1 0 10zm58.481-5a5 5 0 0 1 5-5h17.774c13.98 0 25.313 11.333 25.313 25.313v17.774a5 5 0 1 1-10 0V107.71c0-8.457-6.856-15.313-15.313-15.313h-17.774a5 5 0 0 1-5-5m-78.794 83.025a5 5 0 0 1 5 5v13.542c0 8.458 6.856 15.314 15.314 15.314h17.774a5 5 0 1 1 0 10H64.971c-13.98 0-25.314-11.334-25.314-25.314v-13.542a5 5 0 0 1 5-5m121.881 0a5 5 0 0 1 5 5v13.542c0 13.98-11.333 25.314-25.313 25.314h-17.774a5 5 0 1 1 0-10h17.774c8.457 0 15.313-6.856 15.313-15.314v-13.542a5 5 0 0 1 5-5" clip-rule="evenodd"/><path fill="#F8F8F8" fill-rule="evenodd" d="M66.052 183.509a37.31 37.31 0 0 1 28.377-13.086h24.37a37.3 37.3 0 0 1 28.376 13.086 21.15 21.15 0 0 1 5.066 13.735v.714a23.02 23.02 0 0 1-5.08 14.452 5 5 0 0 1-7.797-6.262 13.02 13.02 0 0 0 2.877-8.19v-.714c0-2.655-.947-5.223-2.671-7.243a27.31 27.31 0 0 0-20.771-9.578h-24.37a27.31 27.31 0 0 0-20.771 9.578 11.16 11.16 0 0 0-2.671 7.243v.714c0 3.105 1.075 5.946 2.877 8.19a5 5 0 1 1-7.797 6.262 23.02 23.02 0 0 1-5.08-14.452v-.714c0-5.035 1.796-9.906 5.065-13.735" clip-rule="evenodd"/><path fill="#3D2397" d="M196.367 247.9a6.218 6.218 0 0 0 8.793-8.793l-51.189-51.189a6.218 6.218 0 0 0-8.793 8.792z"/><path fill="#3D2397" d="M145.178 108.784c21.852 21.852 21.852 57.281 0 79.134-21.852 21.852-57.282 21.852-79.134 0-21.852-21.853-21.852-57.282 0-79.134s57.282-21.853 79.134 0"/><path fill="#310A81" d="M139.982 196.311a6.78 6.78 0 0 1 0-9.592l3.997-3.997a6.78 6.78 0 0 1 9.592 0 6.78 6.78 0 0 1 0 9.592l-3.997 3.997a6.78 6.78 0 0 1-9.592 0"/><mask id="c" width="96" height="96" x="58" y="100" maskUnits="userSpaceOnUse" style="mask-type:alpha"><path fill="#F9F9F9" d="M138.783 115.178c18.762 18.762 19.12 48.824.799 67.144-18.32 18.321-48.382 17.963-67.144-.799s-19.12-48.824-.799-67.144c18.32-18.32 48.382-17.963 67.144.799"/></mask><g mask="url(#c)"><path fill="#A6B7FF" d="M138.783 115.178c18.762 18.762 19.12 48.824.799 67.144-18.32 18.321-48.382 17.963-67.144-.799s-19.12-48.824-.799-67.144c18.32-18.32 48.382-17.963 67.144.799" opacity=".75"/><path fill="#F8F8F8" fill-rule="evenodd" d="M103.754 120.683c-8.91 0-16.132 7.222-16.132 16.132s7.223 16.131 16.132 16.131 16.131-7.222 16.131-16.131c0-8.91-7.222-16.132-16.131-16.132m-26.886 16.132c0-14.849 12.037-26.886 26.886-26.886s26.885 12.037 26.885 26.886-12.037 26.885-26.885 26.885-26.886-12.037-26.886-26.885M61.812 96.102c-8.909 0-16.131 7.222-16.131 16.131v18.82a5.377 5.377 0 1 1-10.754 0v-18.82c0-14.848 12.037-26.885 26.885-26.885h18.82a5.377 5.377 0 1 1 0 10.754zm61.837-5.377a5.377 5.377 0 0 1 5.377-5.377h18.82c14.849 0 26.886 12.037 26.886 26.885v18.82a5.377 5.377 0 0 1-10.754 0v-18.82c0-8.909-7.223-16.131-16.132-16.131h-18.82a5.377 5.377 0 0 1-5.377-5.377M40.304 178.55a5.377 5.377 0 0 1 5.377 5.377v14.339c0 8.909 7.222 16.131 16.131 16.131h18.82a5.378 5.378 0 0 1 0 10.755h-18.82c-14.848 0-26.885-12.037-26.885-26.886v-14.339a5.377 5.377 0 0 1 5.377-5.377m129.051 0a5.377 5.377 0 0 1 5.377 5.377v14.339c0 14.849-12.037 26.886-26.886 26.886h-18.82a5.378 5.378 0 0 1 0-10.755h18.82c8.909 0 16.132-7.222 16.132-16.131v-14.339a5.377 5.377 0 0 1 5.377-5.377" clip-rule="evenodd"/><path fill="#F8F8F8" fill-rule="evenodd" d="M62.894 188.339a39.59 39.59 0 0 1 30.109-13.885h25.803a39.59 39.59 0 0 1 30.109 13.885 22.5 22.5 0 0 1 5.383 14.597v.756a24.45 24.45 0 0 1-5.397 15.354 5.378 5.378 0 0 1-8.385-6.734 13.7 13.7 0 0 0 3.028-8.62v-.756a11.73 11.73 0 0 0-2.808-7.615 28.84 28.84 0 0 0-21.93-10.113H93.003a28.83 28.83 0 0 0-21.93 10.113 11.73 11.73 0 0 0-2.808 7.615v.756a13.7 13.7 0 0 0 3.027 8.62 5.377 5.377 0 1 1-8.384 6.734 24.45 24.45 0 0 1-5.398-15.354v-.756a22.48 22.48 0 0 1 5.384-14.597" clip-rule="evenodd"/></g><mask id="d" width="63" height="63" x="146" y="34" maskUnits="userSpaceOnUse" style="mask-type:alpha"><path fill="#009444" d="M177.5 96.875c17.259 0 31.25-13.991 31.25-31.25s-13.991-31.25-31.25-31.25-31.25 13.991-31.25 31.25 13.991 31.25 31.25 31.25"/></mask><g mask="url(#d)"><path fill="#F18513" d="M177.5 96.875c17.259 0 31.25-13.991 31.25-31.25s-13.991-31.25-31.25-31.25-31.25 13.991-31.25 31.25 13.991 31.25 31.25 31.25"/><path fill="#FFB700" d="M170.097 89.677c17.259 0 31.25-13.991 31.25-31.25 0-17.26-13.991-31.25-31.25-31.25s-31.25 13.99-31.25 31.25 13.991 31.25 31.25 31.25"/><circle cx="177.393" cy="82.075" r="4.701" fill="#7B3328"/><path fill="#7B3328" d="M172.873 49.169a4.523 4.523 0 1 1 9.04 0l-.859 22.334a3.664 3.664 0 0 1-7.322 0z"/></g></g><defs><clipPath id="a"><path fill="#fff" d="M0 0h300v300H0z"/></clipPath><clipPath id="b"><rect width="250" height="250" x="25" y="25" fill="#fff" rx="125"/></clipPath></defs></svg>