<svg xmlns="http://www.w3.org/2000/svg" width="240" height="240" fill="none" class="persona-ilustration" viewBox="0 0 240 240"><g clip-path="url(#a)"><g clip-path="url(#b)"><rect width="200" height="200" x="20" y="20" fill="#D3EDFF" rx="100"/><path fill="#3D2397" d="m427.101 112.779 36.321 23.81-178.513 117.044-36.318 23.658-203.863-132.79c-3.394-2.21-5.084-5.092-5.109-7.987-.005-2.892-1.34-10.69 2.031-12.903L247.301-4.342z"/><path fill="#4C39B0" d="m427.101 104.655 36.321 23.809L284.91 245.508l-36.319 23.658L44.729 136.377c-3.394-2.21-5.085-5.092-5.11-7.987-.004-2.893 1.659-5.775 5.03-7.987L247.3-12.467z"/><path fill="#F8F8F8" d="m433.115 108.597-6.014-3.942-179.8-117.121-100.481 65.88 114.916 74.853-114.353 74.976 101.208 65.923 36.319-23.658 154.431-101.255-30.403-19.804z"/><path fill="#F8F8F8" d="M233.242 126.998c.001 1.603-.92 3.197-2.795 4.42l-77.479 50.616c-1.868 1.22-4.319 1.83-6.772 1.83s-4.921-.61-6.802-1.83l-77.986-50.616c-1.886-1.225-2.825-2.818-2.833-4.422-.007-1.599.921-3.197 2.788-4.417l77.48-50.616c1.875-1.225 4.318-1.83 6.778-1.835 2.459.005 4.915.606 6.802 1.83l77.986 50.615c1.88 1.22 2.82 2.821 2.833 4.423z"/><path fill="#442EA4" d="M143.921 111.898c-4.925 0-9.527-1.274-12.958-3.588-3.015-2.035-4.679-4.561-4.688-7.115-.012-2.557 1.62-5.073 4.597-7.093 3.402-2.311 7.998-3.585 12.941-3.59 4.93 0 9.539 1.277 12.976 3.597 3.012 2.031 4.676 4.556 4.69 7.113.007 2.551-1.626 5.072-4.602 7.094-3.405 2.31-7.998 3.584-12.934 3.584h-.021zm-38.592 24.444c-5.113 0-9.889-1.273-13.45-3.587-3.133-2.035-4.861-4.561-4.87-7.117-.013-2.556 1.683-5.074 4.773-7.094 3.534-2.309 8.306-3.584 13.438-3.589 5.12 0 9.906 1.277 13.477 3.596 3.127 2.032 4.855 4.557 4.87 7.113.007 2.551-1.689 5.074-4.78 7.094-3.535 2.311-8.305 3.583-13.432 3.583zm78.559 1.528c-5.129 0-9.918-1.277-13.483-3.593-3.129-2.032-4.855-4.557-4.864-7.111-.017-2.556 1.679-5.073 4.774-7.096 3.538-2.314 8.31-3.587 13.438-3.587 5.127 0 9.905 1.275 13.471 3.592 3.127 2.03 4.858 4.56 4.875 7.122.008 2.541-1.691 5.062-4.785 7.084-3.54 2.314-8.308 3.589-13.426 3.589m-39.266 24.442c-5.128 0-9.918-1.186-13.485-3.336-3.128-1.886-4.854-4.231-4.862-6.603-.017-2.374 1.679-4.71 4.772-6.588 3.54-2.149 8.313-3.333 13.439-3.333s9.905 1.186 13.472 3.336c3.127 1.885 4.858 4.234 4.875 6.614.008 2.359-1.69 4.699-4.785 6.577-3.54 2.15-8.309 3.333-13.427 3.333z"/></g><path fill="#C93E41" d="M36.104 106.208c10.367 0 18.772-5.778 18.772-12.906 0-7.127-8.405-12.905-18.772-12.905s-18.772 5.778-18.772 12.905c0 7.128 8.404 12.906 18.772 12.906"/><path fill="#E79EA1" d="M42.968 51.066c.18 13.625 3.098 21.035 5.443 26.988 1.607 4.084 2.945 7.482 2.945 11.73 0 4.535-6.828 8.212-15.252 8.212s-15.252-3.677-15.252-8.213v-.053c.011-4.223 1.345-7.61 2.946-11.676 2.344-5.953 5.262-13.363 5.443-26.988z"/><path fill="#C93E41" d="M49.01 52.239c0 4.536-5.515 8.213-12.32 8.213-6.803 0-12.318-3.677-12.318-8.213s5.515-8.213 12.319-8.213S49.01 47.703 49.01 52.24"/><circle cx="36.492" cy="42.024" r="9.729" fill="#E79EA1"/><path fill="#FFA400" d="M24.102 187.555c10.367 0 18.772-5.778 18.772-12.906 0-7.127-8.405-12.905-18.772-12.905S5.33 167.522 5.33 174.649c0 7.128 8.405 12.906 18.772 12.906"/><path fill="#FEE283" d="M17.238 132.413c-.18 13.624-3.098 21.034-5.442 26.988-1.602 4.068-2.936 7.456-2.946 11.682v.047c0 4.536 6.828 8.213 15.252 8.213s15.252-3.677 15.252-8.213v-.069c-.015-4.215-1.347-7.599-2.946-11.66-2.344-5.954-5.262-13.364-5.443-26.988z"/><path fill="#FFA400" d="M37.007 133.585c0 4.536-5.515 8.213-12.319 8.213-6.803 0-12.319-3.677-12.319-8.213s5.516-8.212 12.32-8.212c6.803 0 12.318 3.677 12.318 8.212"/><circle cx="24.49" cy="123.37" r="9.729" fill="#FEE283"/><path fill="#239842" d="M62.775 218.225c10.368 0 18.772-5.778 18.772-12.905 0-7.128-8.404-12.906-18.772-12.906s-18.772 5.778-18.772 12.906c0 7.127 8.405 12.905 18.772 12.905"/><path fill="#A1DCAC" d="M55.912 163.084c-.18 13.625-3.099 21.035-5.443 26.989-1.6 4.066-2.934 7.452-2.945 11.675v.053c0 4.536 6.828 8.213 15.252 8.213s15.252-3.677 15.252-8.213l-.002-.102c-.02-4.2-1.35-7.576-2.945-11.626-2.344-5.954-5.262-13.364-5.443-26.988z"/><path fill="#239842" d="M75.68 164.257c0 4.536-5.515 8.213-12.319 8.213-6.803 0-12.318-3.677-12.318-8.213s5.515-8.213 12.319-8.213c6.803 0 12.319 3.677 12.319 8.213"/><circle cx="63.163" cy="154.042" r="9.729" fill="#A1DCAC"/><path fill="#442EA4" d="M78.777 83.537c10.367 0 18.772-5.778 18.772-12.905 0-7.128-8.405-12.906-18.772-12.906-10.368 0-18.772 5.778-18.772 12.906 0 7.127 8.404 12.905 18.772 12.905"/><path fill="#A4A1E0" d="M78.777 75.325c8.423 0 15.252-3.676 15.252-8.212 0-4.248-1.338-7.646-2.945-11.729-2.345-5.953-5.262-13.364-5.443-26.988H71.914c-.181 13.624-3.1 21.035-5.443 26.988-1.601 4.066-2.935 7.453-2.946 11.675v.054c0 4.535 6.828 8.212 15.252 8.212"/><path fill="#442EA4" d="M91.683 29.568c0 4.536-5.515 8.213-12.319 8.213s-12.32-3.677-12.32-8.213 5.516-8.213 12.32-8.213 12.319 3.677 12.319 8.213"/><circle cx="79.164" cy="19.353" r="9.729" fill="#A4A1E0"/></g><defs><clipPath id="a"><path fill="#fff" d="M0 0h240v240H0z"/></clipPath><clipPath id="b"><rect width="200" height="200" x="20" y="20" fill="#fff" rx="100"/></clipPath></defs></svg>