<svg xmlns="http://www.w3.org/2000/svg" width="150" height="150" fill="none" class="persona-ilustration" viewBox="0 0 150 150"><g clip-path="url(#qvOEGRWovK_a)"><g clip-path="url(#qvOEGRWovK_b)"><rect width="125" height="125" x="12.641" y="12.5" fill="#D3EDFF" rx="62.5"/><path fill="#FFC79D" d="M-7.325 0h89.27v159.943h-89.27z"/><path fill="#FF8D18" d="M81.639-11.445h89.27v159.943h-89.27z"/><path fill="#FFC79D" d="M87.095-11.445h89.27v159.943h-89.27z"/><path fill="#FFB26F" d="M-18.827 7.959 50.169-4.207V85.1l-68.996 12.166zM-18.164 119.317l68.996-12.166v89.308l-68.996 12.166z"/><path fill="#D0F3FF" d="M-25.147 3.648 43.85-8.518v89.309l-68.996 12.165z"/><path fill="#8E8E8E" d="M126.052 18.677 87.14 26.535l-5.42-2.314-31.647 6.92c-1.78.362-3.22 2.092-3.22 3.872v27.943c0 1.78 1.44 2.926 3.22 2.57l75.979-12.464c1.779-.362 3.22-2.092 3.22-3.871V21.247c0-1.78-1.441-2.926-3.22-2.57" opacity=".4" style="mix-blend-mode:color-burn"/></g><path fill="#FEE283" d="m51.196 37.557 71.101-15.354c1.78-.356 3.221.79 3.221 2.57v3.06a2 2 0 0 0-.436.028l-6.28 1.107c-1.088.192-1.97 1.243-1.97 2.347v18.326c0 1.104.882 1.844 1.97 1.652l6.28-1.107q.226-.04.436-.126v2.656c0 1.78-1.441 3.51-3.221 3.871l-71.1 15.354c-1.78.356-3.221-.79-3.221-2.57V41.428c0-1.78 1.44-3.51 3.22-3.871"/><path fill="#FFB700" d="M129.469 50.184h-7.778v6.369h.001l-.001.038c0 .789 1.741 1.428 3.889 1.428s3.889-.64 3.889-1.428l-.001-.038h.001z"/><path fill="#FFC509" d="M129.469 28.41h-7.778v21.774h.006a1 1 0 0 0-.006.083c0 .788 1.741 1.428 3.889 1.428s3.889-.64 3.889-1.428a1 1 0 0 0-.006-.083h.006z"/><path fill="#FFB700" d="M129.469 22.647v.054l-.001.038h.001v6.369h-.472c-.66.454-1.943.762-3.417.762s-2.757-.308-3.417-.762h-.472v-6.37h.001l-.001-.037.001-.027-.001-.027c0-.807 1.741-1.46 3.889-1.46s3.889.653 3.889 1.46"/><path fill="#FFA400" d="M67.671 40.573c-1.379.356-2.491 2.069-2.491 3.821v14.723c0 1.757 1.117 2.892 2.491 2.536 1.38-.356 2.492-2.07 2.492-3.821V43.109c0-1.757-1.118-2.892-2.492-2.536"/><path stroke="#FEE283" stroke-linecap="round" stroke-miterlimit="10" stroke-width="5.562" d="m67.7 43.226 7.486 4.75c8.488 4.99 7.96 11.28 7.96 11.28 0 5.428-3.894 8.799-8.3 5.973l-6.796-5.122"/><path fill="#8E8E8E" d="M90.796 90.732c0 11.232-8.967 21.919-20.029 23.869-11.061 1.951-20.029-5.574-20.029-16.806s8.968-21.919 20.03-23.87c11.06-1.95 20.028 5.575 20.028 16.807" opacity=".4" style="mix-blend-mode:color-burn"/><path fill="#4C39B0" d="M86.874 78.037c4.918 2.838 8.106 8.217 8.106 14.914 0 11.232-8.967 21.919-20.029 23.869-4.466.788-8.591.03-11.922-1.892-4.919-2.838-8.107-8.217-8.107-14.914 0-11.232 8.968-21.919 20.03-23.87 4.466-.787 8.59-.03 11.922 1.893"/><path fill="#4C39B0" d="m94.022 82.164.078.044-7.226-4.171c-3.33-1.923-7.456-2.68-11.922-1.892l7.225 4.171c2.849-.502 5.558-.376 8.012.28 2.987 3.026 4.79 7.317 4.79 12.355h.001c0 11.232-8.967 21.919-20.028 23.869-2.85.503-5.56.376-8.013-.28-2.987-3.025-4.791-7.317-4.791-12.355 0-11.232 8.967-21.918 20.029-23.869l-7.225-4.171c-11.062 1.95-20.03 12.637-20.03 23.869 0 6.697 3.188 12.076 8.107 14.914l7.22 4.169.005.003c3.331 1.922 7.456 2.679 11.923 1.892 11.061-1.951 20.029-12.637 20.029-23.87h-.001c0-6.697-3.187-12.075-8.106-14.914z"/><path fill="#3E68F5" d="M102.205 97.123c0 11.232-8.967 21.919-20.029 23.869s-20.028-5.574-20.028-16.806 8.967-21.919 20.028-23.87c11.062-1.95 20.029 5.574 20.029 16.807"/><path fill="#4C39B0" d="M89.047 91.012c2.459 1.419 4.053 4.108 4.053 7.457 0 5.616-4.484 10.959-10.015 11.934-2.233.394-4.295.016-5.96-.946-2.46-1.419-4.054-4.108-4.054-7.457 0-5.616 4.484-10.959 10.014-11.934 2.234-.394 4.296-.015 5.962.946"/><path fill="#4C39B0" d="m92.66 93.098-3.597-2.077-.014-.008-.003-.001c-1.665-.961-3.727-1.34-5.96-.946C77.554 91.04 73.07 96.384 73.07 102l3.613 2.086c0-5.616 4.483-10.96 10.014-11.935 1.424-.25 2.78-.188 4.006.14 1.494 1.513 2.396 3.66 2.396 6.178 0 5.616-4.484 10.959-10.015 11.934-1.424.252-2.779.189-4.006-.14-1.493-1.512-2.395-3.658-2.395-6.177L73.07 102c0 3.349 1.594 6.038 4.053 7.457l3.61 2.085-.027-.016.03.017c1.666.961 3.728 1.34 5.961.946 5.531-.975 10.014-6.318 10.014-11.934 0-3.349-1.594-6.038-4.053-7.458"/><path fill="#FEEDB4" d="M96.713 100.555c0 5.616-4.484 10.959-10.015 11.934-5.53.976-10.014-2.787-10.014-8.403s4.484-10.96 10.014-11.934c5.531-.976 10.015 2.787 10.015 8.403"/><path fill="#4C39B0" d="M88.84 102.943c.912-.854 1.531-2.105 1.531-3.284 0-1.71-1.302-2.621-2.909-2.036-1.606.584-2.908 2.444-2.908 4.154 0 1.179.619 1.978 1.53 2.169l-1.956 4.317 6.668-2.427z"/><path fill="#fff" d="M71.158 60.389c1.757-1.414 3.62-2.239 5.521-2.93 1.902-.693 4.247-.6 6.004-.465 1.757.136 3.353.69 4.698 1.631s2.412 2.252 3.14 3.857c.727 1.605 1.102 3.473 1.102 5.496v12.568l-.007-.004-.001.047c-1.762-.282-2.53-.68-3.636-1.32-1.212-.792-1.735-1.387-1.583-1.975v-7.413c0-1.294-.24-2.487-.704-3.513-.465-1.025-1.147-1.863-2.007-2.465-.859-.602-1.88-.956-3.002-1.042-1.123-.086-2.326.097-3.542.54-1.215.442-2.418 1.135-3.541 2.038-1.123.904-2.143 2-3.002 3.228a15.8 15.8 0 0 0-2.007 3.925c-.465 1.364-.704 2.732-.704 4.025v8.358h-.004v.035c0 .708-1.169 1.281-2.612 1.281s-2.612-.573-2.612-1.28l.001-.046v-6.919c-.005-1.968-.011-4.492.661-6.465a24.6 24.6 0 0 1 3.14-6.142 24.6 24.6 0 0 1 4.697-5.05"/><mask id="qvOEGRWovK_c" width="22" height="30" x="64" y="40" maskUnits="userSpaceOnUse" style="mask-type:alpha"><path fill="#F9E8BD" fill-rule="evenodd" d="M65.351 41.736a2.78 2.78 0 0 1 3.838-.858l7.448 4.725c4.714 2.782 7.106 6.043 8.273 8.8.576 1.363.834 2.558.945 3.448.055.445.074.815.077 1.092a7 7 0 0 1-.006.396c-.02 3.278-1.207 6.382-3.587 8.206-2.587 1.983-5.955 1.974-8.994.025l-.088-.057-6.881-5.186a2.781 2.781 0 1 1 3.348-4.441l6.704 5.053c1.317.815 2.077.537 2.528.191.648-.496 1.408-1.755 1.408-3.874v-.117l.006-.074v-.057a4 4 0 0 0-.035-.47 7.5 7.5 0 0 0-.548-1.968c-.688-1.627-2.264-3.995-6.01-6.197l-.041-.024-7.526-4.775a2.78 2.78 0 0 1-.859-3.838" clip-rule="evenodd"/></mask><g fill-rule="evenodd" clip-rule="evenodd" mask="url(#qvOEGRWovK_c)"><path fill="#FFB700" d="M65.351 41.736a2.78 2.78 0 0 1 3.838-.858l7.448 4.725c4.714 2.782 7.106 6.043 8.273 8.8.576 1.363.834 2.558.945 3.448.055.445.074.815.077 1.092a7 7 0 0 1-.006.396c-.02 3.278-1.207 6.382-3.587 8.206-2.587 1.983-5.955 1.974-8.994.025l-.088-.057-6.881-5.186a2.781 2.781 0 1 1 3.348-4.441l6.704 5.053c1.317.815 2.077.537 2.528.191.648-.496 1.408-1.755 1.408-3.874v-.117l.006-.074v-.057a4 4 0 0 0-.035-.47 7.5 7.5 0 0 0-.548-1.968c-.688-1.627-2.264-3.995-6.01-6.197l-.041-.024-7.526-4.775a2.78 2.78 0 0 1-.859-3.838"/><path fill="#fff" d="M78.564 57.017a9 9 0 0 0-1.884.442c-1.902.692-3.764 1.517-5.52 2.93a24.6 24.6 0 0 0-4.699 5.051 24.6 24.6 0 0 0-3.139 6.142c-.672 1.973-.666 4.497-.661 6.465v14.844l-.001.045c0 .707 1.17 1.28 2.612 1.28s2.613-.572 2.613-1.28h.003V76.618c0-1.293.24-2.66.704-4.025a15.8 15.8 0 0 1 2.007-3.925A15.8 15.8 0 0 1 73.6 65.44c1.123-.904 2.326-1.596 3.542-2.039a10 10 0 0 1 1.42-.4z"/></g></g><defs><clipPath id="qvOEGRWovK_a"><path fill="#fff" d="M0 0h150v150H0z"/></clipPath><clipPath id="qvOEGRWovK_b"><rect width="125" height="125" x="12.641" y="12.5" fill="#fff" rx="62.5"/></clipPath></defs></svg>