<svg xmlns="http://www.w3.org/2000/svg" width="300" height="300" fill="none" class="persona-ilustration" viewBox="0 0 300 300"><g clip-path="url(#a)"><path fill="#82C2F1" d="M73.842 290a3 3 0 0 1-2.91-3.728l68.5-274a3 3 0 0 1 2.91-2.272h13.816a3 3 0 0 1 2.91 3.728l-68.5 274a3 3 0 0 1-2.91 2.272z"/><path fill="#82C2F1" d="M226.158 290a3 3 0 0 0 2.91-3.728l-68.5-274a3 3 0 0 0-2.91-2.272h-13.816a3 3 0 0 0-2.91 3.728l68.5 274a3 3 0 0 0 2.91 2.272z"/><g clip-path="url(#b)"><rect width="250" height="250" x="25" y="25" fill="#D3EDFF" rx="125"/><path fill="#AADBFF" d="M70.018 146.966 25 191.984v94.09h272.479v-94.09l-70.009-70.008c-5.857-5.858-15.355-5.858-21.213 0l-59.402 59.402c-5.858 5.857-15.355 5.857-21.213 0l-34.411-34.412c-5.858-5.857-15.355-5.857-21.213 0"/><circle cx="115.631" cy="96.693" r="17.693" fill="#fff"/></g><path fill="#82C2F1" d="M50 259a3 3 0 0 1 3-3h194a3 3 0 0 1 3 3v14a3 3 0 0 1-3 3H53a3 3 0 0 1-3-3z"/><path fill="#D3EDFF" fill-rule="evenodd" d="M191.221 262.856c-.483 3.403-.934 6.572 5.121 9.112 9.907 4.154 42.913 5.466 59.927-1.873 22.019-9.498 52.192-34.202 22.019-59.718-36.386-30.77-88.075-24.354-113.764-8.34s-20.602 32.221-9.007 38.7c8.854 4.946 14.215 6.31 19.337 7.612 3.016.767 5.949 1.513 9.463 2.956 8.009 3.781 7.437 7.807 6.904 11.551m29.005-3.057c5.547 0 10.044-3.135 10.044-7.001s-4.497-7.001-10.044-7.001-10.045 3.135-10.045 7.001 4.497 7.001 10.045 7.001" clip-rule="evenodd"/><path fill="#D3EDFF" fill-rule="evenodd" d="M191.221 262.856c-.483 3.403-.934 6.572 5.121 9.112 9.907 4.154 42.913 5.466 59.927-1.873 22.019-9.498 52.192-34.202 22.019-59.718-36.386-30.77-88.075-24.354-113.764-8.34s-20.602 32.221-9.007 38.7c8.854 4.946 14.215 6.31 19.337 7.612 3.016.767 5.949 1.513 9.463 2.956 8.009 3.781 7.437 7.807 6.904 11.551m29.005-3.057c5.547 0 10.044-3.135 10.044-7.001s-4.497-7.001-10.044-7.001-10.045 3.135-10.045 7.001 4.497 7.001 10.045 7.001" clip-rule="evenodd"/><path fill="#AADBFF" d="M182.652 225.291c0 2.127-1.753 3.516-3.902 4.8-1.756 1.05-3.648 2.2-6.143 2.2s-3.688-1.828-5.445-2.877c-2.149-1.284-4.599-1.996-4.599-4.123s2.45-2.975 4.599-4.259c1.757-1.05 2.096-2.742 5.445-2.742 2.495 0 4.387 1.094 6.143 2.143 2.149 1.284 3.902 2.73 3.902 4.858m24.371-15.587c0 2.127-1.752 3.517-3.901 4.8-1.757 1.05-3.648 2.2-6.143 2.2s-3.689-1.828-5.445-2.877c-2.149-1.284-4.6-1.996-4.6-4.123s2.451-2.975 4.6-4.259c1.756-1.05 2.095-2.742 5.445-2.742 2.495 0 4.386 1.094 6.143 2.143 2.149 1.284 3.901 2.73 3.901 4.858m31.566-3.904c0 2.128-1.753 3.517-3.902 4.801-1.756 1.05-3.648 2.2-6.143 2.2s-3.688-1.828-5.445-2.878c-2.148-1.283-4.599-1.995-4.599-4.123 0-2.127 2.451-2.974 4.599-4.258 1.757-1.05 2.096-2.742 5.445-2.742 2.495 0 4.387 1.093 6.143 2.143 2.149 1.284 3.902 2.73 3.902 4.857m39.732 32.997c0 2.127-1.753 3.516-3.902 4.8-1.756 1.05-3.648 2.2-6.143 2.2s-3.688-1.828-5.445-2.877c-2.149-1.284-4.599-1.996-4.599-4.123s2.45-2.975 4.599-4.259c1.757-1.05 2.096-2.742 5.445-2.742 2.495 0 4.387 1.094 6.143 2.143 2.149 1.284 3.902 2.73 3.902 4.858"/><path fill="#82C2F1" d="m262.792 202.245 3.836 3.546s-34.365 44.206-56.817 62.218c-4.119 2.871-5.459 1.288-5.459 1.288s-1.682-1.211.858-5.543c16.2-23.791 57.582-61.509 57.582-61.509"/><path fill="#fff" d="m249.861 220.032.046.042c1.139 1.054 2.385 1.775 3.474 2.086 7.879-9.464 13.247-16.369 13.247-16.369l-3.836-3.546s-6.464 5.892-15.282 14.487c.396 1.061 1.212 2.247 2.351 3.3"/><path fill="#AADBFF" d="M257.811 211.04c-1.752-1.62-5.391-6.304-1.659-11.437 2.277-3.131 5.576-3.702 9.235-4.335 3.586-.62 7.52-1.3 11.177-4.51-2.914 3.897-3.284 7.872-3.622 11.496-.345 3.697-.656 7.03-3.599 9.545-4.826 4.122-9.779.861-11.532-.759"/><path fill="#82C2F1" d="M259.322 196.912c1.488.099 2.793.383 2.512 1.35-.192.661-.517 1.281-.8 1.822-.649 1.237-1.077 2.055.816 1.981 1.149-.045 2.196-.406 3.016-.688 1.12-.387 1.817-.627 1.77.286-.026.5-.295 1.384-.578 2.311-.611 2.003-1.285 4.211.293 3.219.448-.282.847-.548 1.204-.786 1.481-.986 2.215-1.475 2.542-.506.106.316.181.834.264 1.408.135.935.292 2.018.64 2.611 1.431-2.204 1.676-4.827 1.941-7.666.338-3.624.708-7.599 3.622-11.496-3.657 3.21-7.591 3.89-11.177 4.51-2.2.381-4.269.739-6.065 1.644"/><path fill="#D3EDFF" d="M213.499 271.915c4.597-2.13 12.274-12.116 6.727-12.116-5.548 0-10.045-3.135-10.045-7.001s-14.898 16.987-9.35 16.987c5.547 0 6.95 4.036 12.668 2.13"/></g><defs><clipPath id="a"><path fill="#fff" d="M0 0h300v300H0z"/></clipPath><clipPath id="b"><rect width="250" height="250" x="25" y="25" fill="#fff" rx="125"/></clipPath></defs></svg>