<svg xmlns="http://www.w3.org/2000/svg" width="300" height="300" fill="none" class="persona-ilustration" viewBox="0 0 300 300"><g clip-path="url(#a)"><g clip-path="url(#b)"><rect width="250" height="250" x="25" y="25" fill="#D3EDFF" rx="125"/><path fill="#E4E4E4" d="m60.75 155.69 9.287 1.312a1.42 1.42 0 0 0 1.375-.612l4.625-6.913c.288-.437.8-.675 1.313-.625l12.487 1.25c.5.05 1-.175 1.288-.587l4.625-6.438c.3-.412.787-.625 1.287-.587l12.338 1.187c.625.063 1.212-.3 1.45-.875l1.987-4.9c.225-.55.775-.912 1.375-.887l11.963.537c.5.025.975-.225 1.25-.637l3.325-5.063c.275-.412.725-.65 1.225-.637l12.162.325c.6.012 1.15-.35 1.363-.925l1.337-3.575a1.43 1.43 0 0 1 1.438-.913l9.437.738c.488.037.963-.175 1.25-.575l2.75-3.775c.55-.75 1.463-.563 2.25-.05 18.213 11.7 69.175 70.487 69.725 161.25-106.587 59.45-95.912 52.875-95.912 52.875s-8.613-105.9-78.2-178.55c-.925-.963-.113-2.563 1.225-2.375z"/><path fill="#F8F8F8" fill-rule="evenodd" d="M174.694 155.076a5.626 5.626 0 0 1-4.781 6.359c-8.595 1.217-20.997 4.636-32.618 8.983-11.835 4.428-21.802 9.434-26.21 13.445a5.625 5.625 0 0 1-7.572-8.32c6.155-5.602 17.969-11.221 29.84-15.662 12.086-4.521 25.315-8.215 34.982-9.585a5.625 5.625 0 0 1 6.359 4.78m12.19 21.738a2.5 2.5 0 0 1-2.094 2.848c-1.096.168-2.267.339-3.471.514-4.158.607-8.699 1.27-11.779 2.019a2.5 2.5 0 0 1-1.181-4.858c3.334-.811 8.232-1.525 12.42-2.136 1.155-.168 2.257-.329 3.256-.481a2.5 2.5 0 0 1 2.849 2.094m-24.471 4.609a2.5 2.5 0 0 1-1.647 3.129c-12.742 3.954-23.813 9.894-38.95 19.263a2.501 2.501 0 0 1-2.632-4.252c15.239-9.431 26.742-15.641 40.1-19.787a2.5 2.5 0 0 1 3.129 1.647m34.969 15.55a2.5 2.5 0 0 1-2.34 2.65c-5.976.37-10.899 1.64-14.875 2.665q-1.2.312-2.285.58a2.499 2.499 0 1 1-1.189-4.856c.653-.16 1.363-.344 2.128-.542 3.975-1.028 9.414-2.435 15.912-2.838a2.5 2.5 0 0 1 2.649 2.341m-25.934 4.974a2.5 2.5 0 0 1-1.693 3.104c-12.001 3.532-22.781 8.388-37.689 18.507a2.5 2.5 0 1 1-2.808-4.136c15.292-10.381 26.537-15.475 39.086-19.168a2.5 2.5 0 0 1 3.104 1.693m19.293 21.598c-.79.233-1.588.468-2.421.695a2.5 2.5 0 1 1-1.316-4.823c.731-.2 1.464-.417 2.217-.64 3.742-1.109 7.96-2.358 14.731-2.248a2.5 2.5 0 1 1-.081 4.999c-5.961-.097-9.454.933-13.13 2.017m-8.866-.221a2.5 2.5 0 0 1-1.646 3.129c-12.495 3.881-23.441 9.611-37.778 18.945a2.5 2.5 0 1 1-2.728-4.19c14.538-9.465 25.918-15.46 39.023-19.53a2.5 2.5 0 0 1 3.129 1.646m31.207 17.576a2.5 2.5 0 0 1-2.342 2.649c-4.178.256-8.287 1.422-12.078 2.497q-1.075.306-2.113.593a2.5 2.5 0 1 1-1.324-4.821c.615-.169 1.266-.355 1.948-.549 3.775-1.075 8.49-2.418 13.261-2.711a2.5 2.5 0 0 1 2.648 2.342m-23.845 5.298a2.5 2.5 0 0 1-1.545 3.18c-11.343 3.924-22.234 9.383-37.323 18.043a2.5 2.5 0 0 1-2.489-4.337c15.185-8.715 26.394-14.355 38.177-18.432a2.5 2.5 0 0 1 3.18 1.546m27.92 18.116a2.5 2.5 0 0 1-2.345 2.645c-3.587.216-8.636 1.068-12.436 2.855a2.5 2.5 0 0 1-2.128-4.525c4.599-2.163 10.35-3.086 14.264-3.321a2.5 2.5 0 0 1 2.645 2.346m-22.494 5.209a2.5 2.5 0 0 1-1.545 3.18c-11.343 3.924-22.234 9.383-37.323 18.043a2.5 2.5 0 1 1-2.489-4.337c15.185-8.715 26.394-14.355 38.177-18.431a2.5 2.5 0 0 1 3.18 1.545" clip-rule="evenodd"/><path fill="#EFEFEF" d="m67.725 136.202 9.288 1.312a1.42 1.42 0 0 0 1.375-.612l4.625-6.913c.287-.437.8-.675 1.312-.625l12.488 1.25c.5.05 1-.175 1.287-.587l4.625-6.438c.3-.412.788-.625 1.288-.587l12.337 1.187a1.42 1.42 0 0 0 1.45-.875l1.988-4.9c.225-.55.775-.912 1.375-.887l11.962.537c.5.025.975-.225 1.25-.637l3.325-5.063c.275-.412.725-.65 1.225-.637l12.163.325c.6.012 1.15-.35 1.362-.925l1.338-3.575a1.42 1.42 0 0 1 1.437-.913l9.438.738c.487.037.962-.175 1.25-.575l2.75-3.775c.55-.75 1.462-.563 2.25-.05 18.212 11.7 69.175 70.487 69.725 161.25-106.588 59.45-95.913 52.875-95.913 52.875s-8.612-105.9-78.2-178.55c-.925-.963-.112-2.563 1.225-2.375z"/><path fill="#F8F8F8" fill-rule="evenodd" d="M181.683 135.6a5.626 5.626 0 0 1-4.781 6.359c-8.595 1.217-20.997 4.635-32.618 8.983-11.835 4.428-21.802 9.434-26.21 13.445a5.625 5.625 0 0 1-7.572-8.321c6.155-5.601 17.969-11.22 29.84-15.661 12.086-4.521 25.315-8.216 34.982-9.585a5.625 5.625 0 0 1 6.359 4.78m12.176 21.738a2.5 2.5 0 0 1-2.094 2.848c-1.095.167-2.267.339-3.471.514-4.158.607-8.698 1.27-11.778 2.019a2.5 2.5 0 1 1-1.181-4.858c3.333-.811 8.232-1.525 12.42-2.136 1.155-.168 2.256-.329 3.256-.481a2.5 2.5 0 0 1 2.848 2.094m-24.458 4.609a2.5 2.5 0 0 1-1.647 3.129c-12.742 3.954-23.814 9.894-38.95 19.263a2.501 2.501 0 0 1-2.632-4.252c15.238-9.431 26.742-15.641 40.1-19.787a2.5 2.5 0 0 1 3.129 1.647m34.957 15.55a2.5 2.5 0 0 1-2.341 2.65c-5.975.37-10.898 1.64-14.875 2.665q-1.199.312-2.285.58a2.5 2.5 0 0 1-1.189-4.856c.654-.16 1.364-.344 2.128-.542 3.976-1.028 9.414-2.435 15.912-2.838a2.5 2.5 0 0 1 2.65 2.341m-25.934 4.973a2.5 2.5 0 0 1-1.693 3.104c-12.001 3.533-22.781 8.388-37.689 18.508a2.5 2.5 0 1 1-2.808-4.137c15.292-10.38 26.537-15.474 39.086-19.167a2.5 2.5 0 0 1 3.104 1.692m19.306 21.599c-.79.233-1.588.468-2.421.695a2.5 2.5 0 1 1-1.316-4.824 105 105 0 0 0 2.217-.639c3.742-1.109 7.96-2.358 14.731-2.248a2.5 2.5 0 1 1-.081 4.999c-5.961-.097-9.454.933-13.13 2.017m-8.88-.221a2.5 2.5 0 0 1-1.646 3.129c-12.495 3.881-23.44 9.611-37.777 18.945a2.5 2.5 0 1 1-2.728-4.19c14.538-9.465 25.917-15.46 39.022-19.53a2.5 2.5 0 0 1 3.129 1.646m31.22 17.576a2.5 2.5 0 0 1-2.342 2.649c-4.178.256-8.288 1.421-12.078 2.497q-1.075.306-2.113.593a2.5 2.5 0 1 1-1.324-4.822q.924-.255 1.948-.548c3.775-1.076 8.49-2.419 13.261-2.711a2.5 2.5 0 0 1 2.648 2.342m-23.858 5.298a2.5 2.5 0 0 1-1.545 3.18c-11.342 3.923-22.233 9.383-37.323 18.043a2.501 2.501 0 0 1-2.489-4.337c15.186-8.715 26.395-14.355 38.177-18.432a2.5 2.5 0 0 1 3.18 1.546m27.934 18.119a2.5 2.5 0 0 1-2.345 2.645c-3.587.215-8.635 1.067-12.436 2.854a2.5 2.5 0 1 1-2.128-4.525c4.599-2.162 10.35-3.085 14.264-3.32a2.5 2.5 0 0 1 2.645 2.346m-22.508 5.206a2.5 2.5 0 0 1-1.545 3.18c-11.342 3.924-22.233 9.383-37.323 18.043a2.5 2.5 0 1 1-2.489-4.337c15.186-8.715 26.395-14.355 38.177-18.431a2.5 2.5 0 0 1 3.18 1.545" clip-rule="evenodd"/><path fill="#fff" d="m75.776 114.102 9.187 1.875a1.43 1.43 0 0 0 1.413-.525l5.037-6.613a1.41 1.41 0 0 1 1.35-.537l12.388 2.012c.5.075 1-.112 1.325-.5l5.012-6.137a1.39 1.39 0 0 1 1.313-.5l12.25 1.937c.612.1 1.225-.225 1.5-.787l2.287-4.775a1.42 1.42 0 0 1 1.425-.8l11.9 1.275c.5.05.988-.163 1.288-.563l3.637-4.85c.288-.387.775-.6 1.263-.562l12.112 1.062c.6.05 1.175-.287 1.413-.837l1.55-3.488a1.42 1.42 0 0 1 1.487-.825l9.375 1.313a1.44 1.44 0 0 0 1.288-.5l2.975-3.588c.6-.712 1.487-.462 2.237.088 17.463 12.787 64.725 74.587 59.725 165.212-110.025 52.813-98.975 46.9-98.975 46.9s-2.112-106.225-67.112-183c-.863-1.025.05-2.562 1.362-2.3z"/><path fill="#E4E4E4" fill-rule="evenodd" d="M189.545 120.48a5.625 5.625 0 0 1-5.162 6.053c-8.654.688-21.242 3.339-33.106 6.964-12.084 3.693-22.336 8.078-26.976 11.812a5.626 5.626 0 0 1-7.052-8.766c6.484-5.217 18.62-10.1 30.74-13.804 12.339-3.771 25.769-6.646 35.502-7.42a5.625 5.625 0 0 1 6.054 5.161m10.832 22.43a2.5 2.5 0 0 1-2.262 2.717c-1.126.103-2.332.205-3.57.31-4.168.353-8.707.738-11.809 1.288a2.5 2.5 0 0 1-.873-4.924c3.352-.594 8.244-1.007 12.446-1.362 1.189-.101 2.323-.197 3.35-.291a2.5 2.5 0 0 1 2.718 2.262m-24.686 3.112a2.5 2.5 0 0 1-1.837 3.021c-12.961 3.161-24.375 8.402-40.058 16.836a2.5 2.5 0 0 1-2.368-4.404c15.792-8.492 27.653-13.975 41.242-17.289a2.5 2.5 0 0 1 3.021 1.836m16.352 21.927c-.78.151-1.524.296-2.232.425a2.5 2.5 0 0 1-.897-4.919c.643-.117 1.34-.253 2.088-.399 4.043-.788 9.574-1.867 16.135-1.867a2.5 2.5 0 0 1 0 5c-6.035 0-11.049.974-15.094 1.76m-8.607-.907a2.5 2.5 0 0 1-1.878 2.995c-12.197 2.799-23.258 6.995-38.76 16.177a2.5 2.5 0 1 1-2.548-4.302c15.899-9.417 27.438-13.822 40.19-16.748a2.5 2.5 0 0 1 2.996 1.878m17.887 22.759c-.783.18-1.575.362-2.398.534a2.5 2.5 0 1 1-1.024-4.894c.727-.152 1.457-.321 2.206-.494 3.817-.881 8.108-1.871 14.884-1.352a2.5 2.5 0 1 1-.382 4.986c-5.972-.458-9.536.359-13.286 1.22m-8.795-.769a2.5 2.5 0 0 1-1.833 3.023c-12.703 3.112-23.979 8.156-38.861 16.597a2.5 2.5 0 0 1-2.467-4.35c15.092-8.559 26.817-13.84 40.138-17.103a2.5 2.5 0 0 1 3.023 1.833m15.406 23.712q-1.106.243-2.173.467a2.5 2.5 0 1 1-1.022-4.894c.631-.132 1.3-.279 2.001-.432 3.827-.838 8.601-1.884 13.373-1.884a2.5 2.5 0 0 1 0 5c-4.179 0-8.338.906-12.179 1.743m-9.451-.427a2.5 2.5 0 0 1-1.736 3.08c-11.563 3.225-22.774 8.019-38.363 15.733a2.501 2.501 0 0 1-2.218-4.482c15.686-7.761 27.225-12.717 39.237-16.067a2.5 2.5 0 0 1 3.08 1.736m24.266 22.295c-3.603 0-8.688.537-12.59 2.086a2.5 2.5 0 1 1-1.845-4.647c4.723-1.875 10.514-2.439 14.435-2.439a2.5 2.5 0 0 1 0 5m-20.279 1.316a2.5 2.5 0 0 1-1.736 3.08c-11.563 3.225-22.774 8.019-38.363 15.732a2.5 2.5 0 1 1-2.218-4.481c15.686-7.761 27.225-12.717 39.237-16.067a2.5 2.5 0 0 1 3.08 1.736" clip-rule="evenodd"/></g></g><defs><clipPath id="a"><path fill="#fff" d="M0 0h300v300H0z"/></clipPath><clipPath id="b"><rect width="250" height="250" x="25" y="25" fill="#fff" rx="125"/></clipPath></defs></svg>