<svg xmlns="http://www.w3.org/2000/svg" width="240" height="240" fill="none" class="persona-ilustration" viewBox="0 0 240 240"><g clip-path="url(#a)"><g clip-path="url(#b)"><rect width="200" height="200" x="20" y="20" fill="#D3EDFF" rx="100"/><path fill="#AADBFF" d="M268.401 137.593 46.197 33.434-96.468 137.593l224.729 140.139z" opacity=".4"/><ellipse cx="61.099" cy="125.603" fill="#82C2F1" rx="50.362" ry="33.586"/><ellipse cx="61.099" cy="121.323" fill="#AADBFF" rx="50.362" ry="33.586"/><ellipse cx="63.864" cy="189.424" fill="#82C2F1" rx="23.875" ry="15.922"/><ellipse cx="63.864" cy="187.395" fill="#AADBFF" rx="23.875" ry="15.922"/><path fill="#4793CC" d="M15.957 87.599c0 13.583 20.123 24.767 44.578 24.767 11.525 0 22.612-2.482 30.912-6.926l-14.03-8.1 16.913 4.184v16.482s-3.076 2.088-4.822 5.915L15.957 106.8v19.669h.17c.023.142.03.283.06.424v.015c2.096 11.443 18.22 20.591 38.67 22.032a79 79 0 0 0 7.833.171 72 72 0 0 0 1.813-.067c.2-.015.394-.022.594-.029q1.952-.11 3.85-.32l.23-.022c4.206-.454 8.196-1.241 11.882-2.311a72 72 0 0 0 1.865-.572q.458-.147.914-.305l.9-.312c.348-.126.698-.26 1.047-.387.453-.178.899-.349 1.337-.535.149-.059.298-.126.446-.185.216-.09.431-.186.64-.275q.421-.19.832-.379c.274-.127.55-.253.817-.387.49-.237.973-.483 1.442-.728.052-.03.096-.052.148-.082v-17.841h13.673V87.599z"/><path fill="#82C2F1" d="M105.12 111.408s1.583.601 1.664-2.794c.082-3.396.528-15.249-.223-18.719-.75-3.47-1.434-5.721-2.326-6.673-4.83-5.134.892 28.186.892 28.186zm-13.673 9.859s-.446-1.018-2.14 3.099q-.212.502-.379 1.048c-1.516 4.785-5.44.899-6.576-.216-1.197-1.181-2.267-2.073-4.823-1.419-.936.238-3.388 2.043-4.681 3.262-1.063 1.003-3.463 4.808-6.621 1.323-.305-.335-.81-1.553-.937-1.902-1.47-4.102-5.647-2.98-7.386-1.665-1.36 1.025-1.612 4.525-4.19 5.61-3.293 1.39-4.608-8.538-7.402-7.787-3.678.996-4.11 6.101-6.881 5.187-1.048-.342-1.56-8.234-3.41-8.42-1.264-.126-4.489 5.076-5.202 4.972-1.761-.253-2.965-6.725-3.864-7.773-1.323-1.546-2.787-1.746-6.436.015-3.67 1.776-5.744-8.085-5.892-11.258-.208-4.444 1.33-17.752 1.33-17.752 0 13.583 20.123 24.767 44.578 24.767 11.525 0 22.612-2.482 30.912-6.926z"/><path fill="#82C2F1" d="m77.418 97.341 14.03 8.1c-8.301 4.443-19.388 6.925-30.913 6.925-24.455 0-44.578-11.183-44.578-24.767 0-1.783.35-3.522 1.01-5.202 4.34-11.124 22.316-19.565 43.568-19.565 24.462 0 44.585 11.176 44.585 24.767H60.535z"/><path fill="#D3EDFF" d="m61.723 88.454 26.075 15.055c-7.2 3.24-16.474 5.023-26.075 5.023-21.623 0-39.413-9.065-39.413-20.078S40.1 68.376 61.723 68.376c21.624 0 39.414 9.066 39.414 20.078z"/><path fill="#AADBFF" d="M89.337 104.222 60.542 87.599h41.917a2.66 2.66 0 0 1 2.661 2.66v34.115H91.447v-16.489a4.23 4.23 0 0 0-2.11-3.663"/><path fill="#4793CC" d="M105.12 102.726c-6.059.01-12.368.025-18.304.041l-8.039-4.641c9.825-.074 20.226-.139 26.343-.161zm-13.673 13.115v-4.374c5.05-.031 9.836-.058 13.673-.075v4.42c-4.567.008-9.21.018-13.673.029"/><path fill="#fff" d="M84.046 106.451a3.04 3.04 0 1 0 0-6.079 3.04 3.04 0 0 0 0 6.079m-13.294 3.047a3.04 3.04 0 1 0 0-6.079 3.04 3.04 0 0 0 0 6.079m-18.012-.477a3.039 3.039 0 1 0 0-6.077 3.039 3.039 0 0 0 0 6.077m-17.872-4.613a3.04 3.04 0 1 0 0-6.079 3.04 3.04 0 0 0 0 6.079M23.803 93.386a3.04 3.04 0 1 0 0-6.078 3.04 3.04 0 0 0 0 6.078m4.325-11.992a3.04 3.04 0 1 0 0-6.078 3.04 3.04 0 0 0 0 6.078m11.86-6.732a3.04 3.04 0 1 0 0-6.079 3.04 3.04 0 0 0 0 6.079m14.662-3.709a3.04 3.04 0 1 0 0-6.078 3.04 3.04 0 0 0 0 6.078m14.63 0a3.04 3.04 0 1 0 0-6.078 3.04 3.04 0 0 0 0 6.078m15.405 4.355a3.04 3.04 0 1 0 0-6.078 3.04 3.04 0 0 0 0 6.078m11.532 7.372a3.04 3.04 0 1 0 0-6.08 3.04 3.04 0 0 0 0 6.08"/><path fill="#F1AA90" d="m136.322 182.697 2.244 11.644 8.674 1.735 1.49-9.793c5.248-1.925 15.714-6.384 15.593-8.814s-1.59-2.822-2.309-2.714z"/><path fill="#F1AA90" d="m154.059 167.261-19.314 2.425c-6.768 2.321-7.172 8.125-6.528 10.737l3.303 12.014 9.37 1.849-2.782-10.626c2.028-1.463 7.013-4.779 10.724-6.331 4.639-1.941 9.244-3.263 9.932-6.661.55-2.719-2.908-3.404-4.705-3.407"/><path fill="#000" d="m138.364 169.232 15.695-1.971c1.797.003 5.254.688 4.704 3.407-.589 2.914-4.06 4.301-7.962 5.861-.648.26-1.308.523-1.969.8-3.711 1.553-8.696 4.868-10.725 6.331l1.979 7.558-2.357-.465-3.302-12.014c-.55-2.227-.337-6.777 3.937-9.507" opacity=".5" style="mix-blend-mode:overlay"/><path fill="#F1AA90" d="m118.404 180.528 3.187 15.873 13.08-4.031-3.854-11.09c.134-.844 1.762-4.212 7.207-10.938 6.807-8.406 6.549-11.546 4.738-13.768-1.448-1.778-3.953-.559-5.025.273-4.051 4.12-12.977 13.227-16.278 16.692s-3.412 6.103-3.055 6.989"/><path fill="#000" fill-opacity=".5" d="M143.826 158.964c-4.359 4.447-9.932 10.151-12.389 12.73-3.301 3.464-3.412 6.103-3.055 6.989l2.954 14.715 3.335-1.028-3.854-11.09c.133-.843 1.762-4.212 7.207-10.937 4.747-5.863 6.058-9.165 5.802-11.379" style="mix-blend-mode:overlay"/><path fill="#F1AA90" d="M134.367 220.828c8.149 1.69 30.894 14.939 41.247 21.353l7.58-13.532-30.765-36.153c-4.342-.079-14.028-.526-18.037-1.683s-10.275 2.935-12.908 5.126l.774 6.442c.642 5.445 3.961 16.756 12.109 18.447"/><path fill="#000" d="M150.985 198.39c-2.659-1.595-14.601-5.73-20.138-7.511 1.199-.287 2.2-.365 3.176-.192 6.728-.369 12.476 2.608 14.389 3.343 2.599 2.234 5.233 5.955 2.573 4.36" opacity=".5" style="mix-blend-mode:overlay"/><path fill="#F1AA90" d="M174.927 189.806c8.453 3.17 13.347 16.467 17.059 25.354-3.195 10.458-17.059 13.141-22.824 7.608l-16.931-19.563c-.484-2.011-2.094-7.22-4.658-11.972-3.205-5.94-10.501-12.176-15.938-20.111-4.35-6.348-2.307-10.285-.741-11.46 1.543-1.213 6.223-1.806 12.595 5.517 7.965 9.155 20.873 20.665 31.438 24.627"/><path fill="#82C2F1" fill-rule="evenodd" d="M82.559 157.58H47.398l5.144 29.064h.074v.001c0 3.965 5.535 7.18 12.362 7.18 6.828 0 12.363-3.215 12.363-7.18q0-.279-.036-.553z" clip-rule="evenodd"/><mask id="c" width="36" height="23" x="47" y="146" maskUnits="userSpaceOnUse" style="mask-type:alpha"><ellipse cx="64.978" cy="157.58" fill="#fff" rx="17.581" ry="10.845"/></mask><g mask="url(#c)"><ellipse cx="64.978" cy="157.58" fill="#D3EDFF" rx="17.581" ry="10.845"/><ellipse cx="64.92" cy="157.486" fill="#AADBFF" rx="16.161" ry="9.545"/><path fill="#D3EDFF" fill-rule="evenodd" d="M49.579 160.495c2.133-3.797 8.196-6.536 15.341-6.536 7.146 0 13.208 2.739 15.342 6.536-2.134 3.797-8.196 6.536-15.342 6.536-7.145 0-13.208-2.739-15.341-6.536" clip-rule="evenodd"/></g></g><ellipse cx="173.79" cy="155.583" fill="#FFF9E1" rx="57.341" ry="38.241"/><path stroke="#FEE283" stroke-width="1.6" d="M175.78 129.542c11.519 0 21.908 2.795 29.391 7.272 7.5 4.487 11.956 10.574 11.956 17.145s-4.456 12.657-11.956 17.144c-7.483 4.477-17.872 7.272-29.391 7.272s-21.909-2.795-29.392-7.272c-7.499-4.487-11.956-10.573-11.956-17.144s4.457-12.658 11.956-17.145c7.483-4.477 17.873-7.272 29.392-7.272Z"/><path fill="#F1AA90" d="M143.489 165.179c7.965 9.155 20.873 20.665 31.438 24.627 18.575 8.433-11.236 13.399-22.696 13.399-.484-2.011-2.094-7.22-4.658-11.972-3.205-5.94-10.501-12.175-15.938-20.111-4.35-6.348-2.307-10.285-.741-11.46 1.543-1.212 6.223-1.806 12.595 5.517"/><path fill="#8B532F" d="m209.71 88.573-71.854.143v59.278h.3l49.575 28.626c6.145-3.282 11.187-7.15 14.901-11.426 4.695-5.414 7.138-11.343 7.138-17.344z"/><path fill="#DDAC8E" d="M137.857 88.573h71.866c0 6-2.444 11.93-7.139 17.344-3.701 4.264-8.756 8.133-14.9 11.426z"/><path fill="#F7CAAE" d="M137.857 88.716h63.529c0 5.246-2.503 10.42-7.306 15.068-3.593 3.486-8.408 6.6-14.194 9.199z"/><path fill="#fff" d="M193.996 104.191a4.898 4.898 0 1 0 .001-9.797 4.898 4.898 0 0 0-.001 9.797"/><path fill="#DDAC8E" d="M189.002 143.993s1.689-6.108 3.964-2.958 5.929 4.024 5.929 4.024 2.647.072 2.48-6.887c-.168-6.959 3.82-10.456 3.82-10.456s2.767-1.581 3.414 1.581 2.228 3.294 2.228 3.294 4.192-1.138 2.982-8.708-.982-26.626-.982-26.626 1.222-8.672-3.078-8.672-8.384 15.607-8.384 15.607-17.392 10.241-13.655 13.151c3.222 2.503 1.282 26.65 1.282 26.65"/><path fill="#DDAC8E" d="m190.714 123.068-1.545-6.779-7.953-3.306 5.198 9.295s.791 20.434.791 21.871l1.808-.156 1.713-20.925z"/><mask id="d" width="51" height="89" x="137" y="88" maskUnits="userSpaceOnUse" style="mask-type:alpha"><path fill="#000" d="M187.732 123.608v53.001l-49.875-28.615V88.717l44.437 25.5a10.82 10.82 0 0 1 5.438 9.391"/></mask><g mask="url(#d)"><path fill="#FEEDB4" d="M187.732 123.608v53.001l-49.875-28.615V88.717l44.437 25.5a10.82 10.82 0 0 1 5.438 9.391"/><path fill="#FFB26F" d="m129.736 104.192 75.316 41.155v7.45l-75.316-41.167zm-3.665 16.386 75.304 41.155v7.45l-75.304-41.167z"/></g></g><defs><clipPath id="a"><path fill="#fff" d="M0 0h240v240H0z"/></clipPath><clipPath id="b"><rect width="200" height="200" x="20" y="20" fill="#fff" rx="100"/></clipPath></defs></svg>