<svg xmlns="http://www.w3.org/2000/svg" width="150" height="150" fill="none" class="persona-ilustration" viewBox="0 0 150 150"><g clip-path="url(#a)"><g clip-path="url(#b)"><rect width="125" height="125" x="12.64" y="12.5" fill="#D3EDFF" rx="62.5"/><path fill="#A6B7FF" d="M66.105 110.252 13.54 124.138H7.588V-1.822h101.165l-.882 36.55-36.836 2.21s-3.833 13.022-3.833 18.389c0 13.51-.316 4.173 0 13.552-1.097 12.296-1.097 41.373-1.097 41.373"/><path fill="#F18513" d="m-29.008-42.905 86.245-15.207V53.523L-29.008 68.73z"/><path fill="#FFB26F" d="M-36.908-48.292 49.337-63.5V48.135l-86.245 15.208z"/><path fill="#FFC79D" d="m49.425 48.133-7.539-5.216-21.636 3.674-1.677 7.058z"/><path fill="#F8F8F8" d="M-44.413-53.523 41.832-68.73V42.905l-86.245 15.207z"/><mask id="c" width="24" height="29" x="95" y="73" maskUnits="userSpaceOnUse" style="mask-type:alpha"><path fill="#FFC7B6" d="m118.509 95.695-4.18 5.63s-13.073-4.958-14.266-7.784c-1.194-2.826-4.386-18.18-4.386-18.18s2.365-2.75 5.153-1.554c2.788 1.197 9.081 7.941 9.081 7.941z"/></mask><g mask="url(#c)"><path fill="#FFC7B6" d="m118.509 95.695-4.18 5.63s-13.073-4.958-14.266-7.784c-1.194-2.826-4.386-18.18-4.386-18.18s2.365-2.75 5.153-1.554c2.788 1.197 9.081 7.941 9.081 7.941z"/><path fill="#F29B7C" d="M106.138 90.415c-1.031-2.578-9.278-10.888-9.83-16.053 3.038 1.519 13.653 5.571 14.86 9.167 0 0 12.713 13.338-3.051 10.919-1.453-.223-1.099-1.833-1.979-4.033m-5.501 2.001h1.416c.542.61 1.462 1.78.8 1.585s-1.753-1.138-2.216-1.585"/></g><path fill="#FFC7B6" d="M96.418 71.213s-3.628.745-3.255 2.98c.373 2.236 3.255 2.565 3.255 2.565s1.28-.24 1.5-.963c.221-.723.228-1.181.228-1.181l-1.728-3.398zm26.948 20.014L150 100.75l-16.249 11.951-19.422-11.377 4.181-5.63z"/><path fill="#E47D10" d="m99.432 78.16-1.064-.555s-3.82-10.672-5.197-11.528c-2.984-1.857-9.937-1.291-16.445-.35a1.72 1.72 0 0 1-1.863-1.115l-2.431-6.7 1.493-1.563 2.15 5.762a1.72 1.72 0 0 0 1.81 1.105c3.82-.445 14.667-1.449 16.36 1.235 2.061 3.268 5.187 13.71 5.187 13.71"/><path fill="#FF8D18" d="M112.318 59.38c-.19.271-.502.458-.872.47-2.857.092-9.094.553-12.014 2.823-.452.35-.449 1.374-.174 2.74.916 4.58 4.872 13.026 4.872 13.026s6.243 17.202 5.39 19.476-2.627 1.562-2.627 1.562-3.713-5.137-4.841-9.709c-1.13-4.572-2.62-11.607-2.62-11.607s-3.126-10.442-5.188-13.71c-1.693-2.684-12.539-1.68-16.36-1.235a1.72 1.72 0 0 1-1.809-1.105l-2.15-5.762 37.088-2.416 1.453 4.468c.114.35.044.707-.148.979"/><path fill="#E47D10" d="m112.318 59.38-.297.736a2.96 2.96 0 0 1-2.498 1.84l-1.001.086c-7.837.28-9.264 3.372-9.264 3.372-.274-1.367-.278-2.39.174-2.74 2.921-2.271 9.157-2.732 12.014-2.824.37-.012.682-.199.872-.47m-11.089 32.513s4.449 7.162 4.79 7.332.875.256.875.256-3.894-6.202-4.162-7.588-1.503 0-1.503 0"/><path fill="#FEE283" d="M72.432 57.912S68.118 43.1 71.365 35.61c1.067 16.283 2.56 20.739 2.56 20.739z"/><path fill="#FFC7B6" d="M100.063 93.541s-1.73-1.108-1.882-2.128.218-2.712.524-2.804 3.173 0 3.173 0l6.934.802s2.28 1.231.802 2.005-6.318.957-6.318.957l-3.214-.05.492 1.35-.511-.129z"/><mask id="d" width="15" height="7" x="95" y="82" maskUnits="userSpaceOnUse" style="mask-type:alpha"><path fill="#FFC7B6" d="M97.469 82.771s-2.551.966-2.4 2.57 1.942 2.795 1.942 2.795l2.359.603 6.829-.133s3.051-.186 2.836-2.005-3.113-1.91-3.113-1.91l-8.45-1.923z"/></mask><g mask="url(#d)"><path fill="#FFC7B6" d="M97.469 82.771s-2.551.966-2.4 2.57 1.942 2.795 1.942 2.795l2.359.603 6.829-.133s3.051-.186 2.836-2.005-3.113-1.91-3.113-1.91l-8.45-1.923z"/><path fill="#F29B7C" d="m95.562 87.523 4.863.641c2.378.238 7.112.683 7.88.65.105-.017.139-.021.083-.009l-.083.009c-.62.099-3.715.649-5.421.953l-5.986-.587z"/></g><mask id="e" width="12" height="10" x="93" y="75" maskUnits="userSpaceOnUse" style="mask-type:alpha"><path fill="#FFC7B6" d="m98.368 77.605 5.146 2.681s1.664.862 1.418 1.879-1.14 2.311-2.712 1.91-5.115-1.14-6.258-2.065-2.965-2.005-2.792-3.423 1.465-2.785 1.465-2.785l3.733 1.8z"/></mask><g mask="url(#e)"><path fill="#FFC7B6" d="m98.368 77.605 5.146 2.681s1.664.862 1.418 1.879-1.14 2.311-2.712 1.91-5.115-1.14-6.258-2.065-2.965-2.005-2.792-3.423 1.465-2.785 1.465-2.785l3.733 1.8z"/><path fill="#F29B7C" d="m92.826 79.649 4.325 2.316c2.14 1.061 6.413 3.147 7.144 3.387.104.022.137.03.081.022l-.081-.022c-.616-.126-3.706-.703-5.41-1.02l-5.393-2.661z"/></g><path fill="#FEEDB4" d="M111.013 53.933s-4.079-8.626-2.519-19.665c-3.457 0-11.313.271-18.914.57a3479 3479 0 0 0-18.216.771s-.492 11.611 2.56 20.74z"/><path fill="#FFC7B6" d="M123.365 91.227s-6.119-12.53-12.529-15.832c-6.409-3.303-11.171-6.12-12.14-7.284-.97-1.166-2.33 1.263-2.236 2.235.095.972 1.942 5.44 3.887 5.927s6.798 4.468 6.798 4.468.486 8.06 4.664 10.489c4.177 2.428 6.703 4.468 6.703 4.468l4.857-4.468z"/><path fill="#3E68F5" d="M71.646 51.465c-.186.621-.546-.53-.826-1.3-1.278-7.41-.496-12.565.546-14.556 10.844-.414 25.576-1.34 37.127-1.34-.941 7.898.222 11.494.872 14.855-.621-.181-2.081-.264-2.702.808s-3.106.447-4.271 0c-.931-.266-3.12-.637-4.425 0-1.63.796-4.115-.408-4.27-.796-.125-.311-1.346-.492-1.942-.544-.983-.026-3.028.206-3.338 1.34s-3.235.925-4.659.679c-.957-.544-3.245-1.305-4.736 0s-4.917.543-6.444 0c-.233.026-.746.233-.932.854" opacity=".75"/><path fill="#FFA400" d="M87.42 123.761h3.48v24.718h-3.48z"/><path fill="#FF9300" d="M87.42 123.761h-3.209v24.718h3.21z"/></g><path fill="#FFC509" d="M52.863 96.072 4.741 110.075v3.125l48.122-14.003zm48.623 26.085L52.863 96.072v3.125l48.623 26.085z"/><path fill="#FFC509" d="M4.74 110.075 47.787 137.5v5.284L4.74 115.359z"/><path fill="#FFC509" d="m47.786 137.5 53.7-15.343v5.304l-53.7 15.342z"/><path fill="#FEE283" d="m4.74 110.075 48.123-14.003 48.623 26.085-53.7 15.343z"/><path fill="#3E68F5" d="M50.359 73.899H29.994l4.44 44.979v.04c0 2.676 7.134 4.843 15.925 4.843 8.79 0 15.426-2.021 15.896-4.563h.017l4.48-45.294H50.353"/><mask id="f" width="44" height="23" x="28" y="68" maskUnits="userSpaceOnUse" style="mask-type:alpha"><path fill="#EAEEFF" d="M28.802 73.899q0 .14.027.277l1.031 10.697c0 2.9 9.183 5.253 20.516 5.253s20.516-2.352 20.516-5.253L71.951 73.9h-.034c0-3.046-9.652-5.516-21.558-5.516-11.905 0-21.557 2.47-21.557 5.516"/></mask><g mask="url(#f)"><path fill="#EAEEFF" d="M28.802 73.899q0 .14.027.277l1.031 10.697c0 2.9 9.183 5.253 20.516 5.253s20.516-2.352 20.516-5.253L71.951 73.9h-.034c0-3.046-9.652-5.516-21.558-5.516-11.905 0-21.557 2.47-21.557 5.516"/><path fill="#A6B7FF" d="M54.262 83.809c.242-2.903-1.477-4.879-2.367-5.504l.498-5.573s4.99-3.479 13.16-2.975c1.92.118 6.464 1.215 6.464 1.215V73.7l-.307 4.606c-.167.258-.553.566-.768-.266-.215-.83-.577-.346-.73 0 0 1.113-.261 2.97-1.306 1.499s-1.383-.308-1.422.458c.141 1.115.37 3.598.154 4.612-.215 1.014-.04 4.485-.334 4.19-.013-.55-1.414.866-1.937.368-.27-.257-.362-1.913-.399-3.397-.056.266-.148.483-.288.606-.522.461-.883-.192-.999-.576.026-2.01-.1-6.23-.806-7.03s-1.111-.127-1.225.31c.207.9.497 2.89 0 3.64-.497.748-.917.035-1.065-.415-.04-.77-.326-2.491-1.155-3.226-.828-.734-1.134-.207-1.184.148.105.352.21 1.275-.208 2.152-.42.876-.937.365-1.144 0-.023-.286-.252-.963-.976-1.382s-.794 1.017-.739 1.787c.056 1.627.134 5.035 0 5.645-.133.61-.373.545-.477.437-.247-.143-.682-1.153-.44-4.056"/><path fill="#A6B7FF" d="M57.979 84.289c.234-.894-.098-1.471-.293-1.648-.574-.213-.664.655-.638 1.116.213.55.696 1.424.93.531m10.783-3.084c.234-.893-.098-1.471-.293-1.648-.574-.213-.664.655-.637 1.116.212.55.696 1.425.93.532"/></g><mask id="g" width="42" height="10" x="29" y="69" maskUnits="userSpaceOnUse" style="mask-type:alpha"><path fill="#2C54DC" d="M50.36 78.367c-13.265 0-20.505-2.951-20.505-4.463s7.24-4.468 20.504-4.468 20.505 2.95 20.505 4.462-7.24 4.463-20.505 4.463z"/></mask><g mask="url(#g)"><path fill="#2C54DC" d="M50.36 78.367c-13.265 0-20.505-2.951-20.505-4.463s7.24-4.468 20.504-4.468 20.505 2.95 20.505 4.462-7.24 4.463-20.505 4.463z"/><path fill="#A6B7FF" d="M60.033 78.273v-8.964l11.976 2.755.992 1.69-3.38 3.6z" style="mix-blend-mode:multiply"/></g><path fill="#A6B7FF" d="M38.964 105.199c.028.14.084.566.084.566s-.549-.006-.588.548c-.067.896.448 1.008.448 1.008s-.364 1.176-.767.622c-.403-.555-.202-2.184-.017-2.593.117-.252.313-.621.51-.627.117 0 .263.112.335.476zm28.254-25.427h1.78v4.037h-1.78c-.644 0-1.165-.901-1.165-2.021s.52-2.021 1.165-2.021z"/><path fill="#3E68F5" d="M68.999 83.815c-.644 0-1.165-.905-1.165-2.021 0-1.117.521-2.022 1.165-2.022.643 0 1.164.905 1.164 2.022s-.521 2.021-1.164 2.021"/><path fill="#A6B7FF" d="M43.908 107.786c1.215 0 2.43-.084 3.634-.246 4.642-.639 8.673-2.419 11.07-4.883 4.21-4.345 12.626-19.833 12.979-20.488a.77.77 0 0 0-.017-.778.81.81 0 0 0-.677-.387h-1.898a.789.789 0 1 0 0 1.58h.56c-2.078 3.75-8.68 15.46-12.09 18.975-3.074 3.17-10.403 5.723-18.214 4.25a24 24 0 0 1-6.048-1.987.79.79 0 0 0-.683 1.422c3.477 1.674 7.42 2.548 11.384 2.548z"/><path fill="#A6B7FF" d="m32.445 102.708 6.182 2.015-.392 1.814.101 1.552-5.896-2.162s-.46-.201-.46-1.657.46-1.557.46-1.557z"/></g><defs><clipPath id="a"><path fill="#fff" d="M0 0h150v150H0z"/></clipPath><clipPath id="b"><rect width="125" height="125" x="12.64" y="12.5" fill="#fff" rx="62.5"/></clipPath></defs></svg>