<svg xmlns="http://www.w3.org/2000/svg" width="240" height="240" fill="none" class="persona-ilustration" viewBox="0 0 240 240"><g clip-path="url(#a)"><g clip-path="url(#b)"><rect width="200" height="200" x="20.225" y="20" fill="#D3EDFF" rx="100"/><mask id="c" width="246" height="299" x="-33" y="61" maskUnits="userSpaceOnUse" style="mask-type:alpha"><path fill="#fff" d="M212.695 61.79-32.801 99.286v260.352h245.496z"/></mask><g mask="url(#c)"><path fill="#AADBFF" d="M212.695 61.79-32.801 99.286v260.352h245.496z"/><path fill="#82C2F1" d="m145.714 121.392-229.92 22.248 2.479 255.256h228.839l-1.398-104.722z" opacity=".5"/><path fill="#82C2F1" fill-rule="evenodd" d="M146.714 120.291v173.883l1.412 105.722H-82.718l-2.496-257.163zm-229.91 24.257 2.46 253.348h226.835l-1.385-103.708V122.493z" clip-rule="evenodd" opacity=".5"/><path fill="#AADBFF" d="m129.919 140.515-220.713 21.358 2.379 245.034H131.26l-1.342-100.528z" opacity=".5"/><path fill="#82C2F1" fill-rule="evenodd" d="M130.919 139.414v166.965l1.356 101.529h-221.68l-2.398-246.942zM-89.786 162.78l2.36 243.128h217.674l-1.329-99.515V141.616z" clip-rule="evenodd" opacity=".5"/><path fill="#D3EDFF" d="m-1.98 179.991 106.4-5.468 27.341-32.809-143.539 14.809z" opacity=".5"/><path fill="#AADBFF" d="M104.215 174.546c2.483-17.34 18.139-28.891 25.866-34.266v102.461h-25.867v-6.719z"/><path fill="#AADBFF" fill-rule="evenodd" d="M139.392 131.356v166.956l1.355 101.528h-221.68l-2.397-248.948zm-220.705 21.366 2.36 245.118h217.674l-1.329-99.515V133.539z" clip-rule="evenodd"/><path fill="#AADBFF" fill-rule="evenodd" d="M131.076 139.742v166.966l1.355 101.528h-221.68l-2.398-246.942zm-220.705 23.366 2.36 243.128h217.673l-1.328-99.515V141.945z" clip-rule="evenodd"/></g><path fill="#AADBFF" d="M32.071 106.417h-66.237l-6.4-10.516 316.548-46.85 28.459 14.974z"/><path fill="#AADBFF" d="M280.758-1.705-21.919 41.434q-.14.02-.282.02h-13.54a2 2 0 0 0-2 2v49.149a2 2 0 0 0 2.29 1.978l316.781-46.46a2 2 0 0 0 1.71-1.98V.275a2 2 0 0 0-2.282-1.98" opacity=".5"/><path fill="#82C2F1" d="m212.517 61.657 40.689 9.675V217.63h-40.689z"/></g><path fill="#4793CC" d="M175.481 40.97C175.1 12.717 149.81 6.4 135.593 15.15l3.391-9.498c4.126-1.574 23.612-1.312 34.253 4.007 16.363 8.75 14.621 22.736 14.938 31.312v56.631l-12.694 1.827c.158-7.713.38-30.203 0-58.458"/><path fill="#F8F8F8" d="M175.145 99.355v6.861a2 2 0 0 1-1.702 1.978l-5.804.874a2 2 0 0 0-1.702 1.978v9.266a2 2 0 0 0 2.242 1.985l29.053-3.548a2 2 0 0 0 1.757-1.985v-10.066a2 2 0 0 0-2.272-1.981l-5.548.763a2 2 0 0 1-2.272-1.981v-6.112a2 2 0 0 0-2.396-1.96l-9.751 1.967a2 2 0 0 0-1.605 1.961"/><circle cx="171.183" cy="115.311" r="2.791" fill="#E4E4E4"/><circle cx="193.081" cy="112.347" r="2.791" fill="#E4E4E4"/><path fill="#82C2F1" d="M113.83 34.272v38.634l15.392 2.172c-.591-7.319 0-24.79 0-40.806 1.019-23.4 34.103-30.207 45.311-23.895-37.53-21.136-60.703 6.248-60.703 23.895"/><path fill="#FEE283" d="M157.489 99.265c0-19.476-15.788-35.265-35.264-35.265S86.96 79.789 86.96 99.265v33.51c0 8.581-3.409 16.81-9.476 22.877l-2.89 2.89a8.6 8.6 0 0 0-2.516 6.075H172.37a8.6 8.6 0 0 0-2.516-6.075l-2.89-2.89a32.35 32.35 0 0 1-9.476-22.877z"/><path fill="#FFC509" d="M157.489 111.464c-7.725-2.68-20.603-4.435-35.184-4.435-14.683 0-27.639 1.78-35.345 4.492v8.522c7.706-2.712 20.662-4.492 35.345-4.492 14.581 0 27.459 1.756 35.184 4.436zm0 15.531c-7.725-2.681-20.603-4.436-35.184-4.436-14.683 0-27.639 1.78-35.345 4.492v5.724q0 1.43-.125 2.842c7.69-2.737 20.707-4.536 35.47-4.536 14.657 0 27.593 1.774 35.304 4.478q-.12-1.384-.12-2.784z"/><path stroke="#FFF9E1" stroke-linecap="round" stroke-width="4.049" d="M94.654 99.263a26.27 26.27 0 0 1 21.537-27.624"/><ellipse cx="122.224" cy="164.618" fill="#FFC509" rx="50.147" ry="9.382"/><path fill="#FFF9E1" d="M107.563 155.643c4.637-.265 9.56-.407 14.661-.407 5.498 0 10.788.165 15.738.471-.249 8.18-6.958 14.735-15.199 14.735-8.262 0-14.985-6.589-15.2-14.799"/></g><defs><clipPath id="a"><path fill="#fff" d="M0 0h240v240H0z"/></clipPath><clipPath id="b"><rect width="200" height="200" x="20.225" y="20" fill="#fff" rx="100"/></clipPath></defs></svg>