<svg xmlns="http://www.w3.org/2000/svg" width="240" height="240" fill="none" class="persona-ilustration" viewBox="0 0 240 240"><g clip-path="url(#a)"><g clip-path="url(#b)"><rect width="200" height="200" x="19.83" y="20.075" fill="#D3EDFF" rx="100"/><path fill="#F8F8F8" d="M181.177 200.357c4.674 0 8.455-1.632 8.455-3.654s-3.79-3.655-8.455-3.655c-4.666 0-8.456 1.632-8.456 3.655s3.79 3.654 8.456 3.654m.017 20.379c6.518 0 11.813-2.252 11.813-5.031s-5.286-5.031-11.813-5.031c-6.526 0-11.812 2.252-11.812 5.031s5.286 5.031 11.812 5.031"/><path fill="#F8F8F8" d="M172.723 196.44s-3.926 9.569-3.34 19.265h11.796v-17.94z"/><path fill="#F8F8F8" d="M189.606 196.44s3.952 9.569 3.365 19.265h-11.795v-17.94z"/><path fill="#D3EDFF" d="M181.185 199.72c4.036 0 7.317-1.351 7.317-3.017s-3.272-3.017-7.317-3.017-7.317 1.351-7.317 3.017 3.272 3.017 7.317 3.017"/><path fill="#EFEFEF" d="m14.19 196.986 142.619-8.86-.41 63.36-142.21 8.33z"/><path fill="#F8F8F8" d="m21.71 204.645 127.409-7.85-.11 18.53-127.31 7.72z"/><path fill="#AADBFF" fill-rule="evenodd" d="m150.805 195.013-.13 21.889-130.652 7.923.012-21.755zM23.383 206.22l-.008 15.046 123.968-7.518.09-15.171z" clip-rule="evenodd"/><path fill="#AADBFF" d="M85.17 207.076c1.62-.1 2.93 1.12 2.93 2.72s-1.32 2.98-2.95 3.08-2.93-1.12-2.93-2.72 1.32-2.98 2.95-3.08"/><path fill="#F8F8F8" d="m.69 178.365 123.6-5.61 32.52 15.37L0 197.865zm185.565-99.726 66.12.499 1.61 50.184-66.897.323z"/><path fill="#F8F8F8" d="m191.934 83.233 53.832.41 1.312 40.859-54.463.258z"/><path fill="#AADBFF" fill-rule="evenodd" d="m190.232 81.545 57.157.435 1.419 44.188-57.841.275zm3.405 3.376.625 38.156 51.087-.242-1.205-37.53z" clip-rule="evenodd"/><path fill="#AADBFF" d="m198.36 88.458 40.834.299.999 31.004-41.321.195zm-98.219 86.488h-.79l-.8 2.36 2.65-.27.48-2.09z"/><path fill="#D3EDFF" d="m97.23 169.986 27.171-1.06s13.11 15.54 13.11 17.1l-30.19 1.86z"/><path fill="#F8F8F8" d="M97.23 169.986s10.541 15.29 10.491 17.02-1.12.39-1.12.39-7.59-13.84-9.65-15.73c-.85-1.23.28-1.67.28-1.67zm4.371.52c-.03.4.09.8.32 1.14.44.64 1.21 1.63 1.71 1.66.74.05 1.64-.05 2.65 1.45s3.6 6.12 3.6 6.12-.68.72.07 1.82 1.81 2.85 3.18 2.85c1.04 0 3.77-.19 5.02-.27.42-.03.79-.24 1.04-.58l1.07-1.47-12.34-13.88-6.22-.1-.08 1.27z"/><path fill="#AADBFF" d="M101.681 169.236s.47-.37 1.85-.61 3.89-.24 3.89-.24 1.45.16 1.94.48 5.74 5.3 8.26 9.57 3.28 4.7 2.05 5.06-5.19.16-5.19.16-1.97-.45-3.07-2.97c-.86-1.97-5.54-9.98-7.14-9.67-1.32.12-2.35-.62-2.58-1.78z"/><path fill="#F8F8F8" d="m97.74 172.596-.16 3.53.97 1.18.8-2.36zm21.071 3.161c.795 0 1.44-.309 1.44-.69 0-.382-.645-.69-1.44-.69-.796 0-1.44.308-1.44.69s.644.69 1.44.69m3.57-.27c.795 0 1.44-.309 1.44-.69 0-.382-.645-.69-1.44-.69s-1.44.308-1.44.69.645.69 1.44.69m3.57-.23c.795 0 1.44-.309 1.44-.69 0-.382-.645-.69-1.44-.69-.796 0-1.44.308-1.44.69s.644.69 1.44.69m-5.97 2.33c.795 0 1.44-.309 1.44-.69s-.645-.69-1.44-.69c-.796 0-1.44.309-1.44.69s.644.69 1.44.69m3.57-.28c.795 0 1.44-.309 1.44-.69s-.645-.69-1.44-.69c-.796 0-1.44.309-1.44.69s.644.69 1.44.69m3.58-.22c.795 0 1.44-.309 1.44-.69s-.645-.69-1.44-.69-1.44.309-1.44.69.645.69 1.44.69m-5.9 2.14c.795 0 1.44-.309 1.44-.69s-.645-.69-1.44-.69c-.796 0-1.44.309-1.44.69s.644.69 1.44.69m3.57-.28c.795 0 1.44-.309 1.44-.69 0-.382-.645-.69-1.44-.69-.796 0-1.44.308-1.44.69s.644.69 1.44.69m3.57-.22c.795 0 1.44-.309 1.44-.69s-.645-.69-1.44-.69c-.796 0-1.44.309-1.44.69s.644.69 1.44.69m-5.7 2.369c.795 0 1.44-.308 1.44-.69s-.645-.69-1.44-.69-1.44.309-1.44.69c0 .382.645.69 1.44.69m3.57-.27c.795 0 1.44-.309 1.44-.69s-.645-.69-1.44-.69c-.796 0-1.44.309-1.44.69s.644.69 1.44.69m3.57-.23c.795 0 1.44-.308 1.44-.69s-.645-.69-1.44-.69c-.796 0-1.44.309-1.44.69 0 .382.644.69 1.44.69"/><path fill="#AADBFF" d="m56.265 187.891-2.98-27.83-9.69 21.31 6.34 1.79z"/><path fill="#D3EDFF" d="M87.096 160.061h-33.81l2.98 27.83 34.91-1.74z"/><path fill="#F8F8F8" d="m86.956 159.191-33.67.87 2.48 23.17 34.7-1.61z"/><mask id="c" width="31" height="18" x="56" y="163" maskUnits="userSpaceOnUse" style="mask-type:alpha"><path fill="#fff" d="m84.134 163.181-27.27.57 1.78 16.6 28.01-1.11z"/></mask><g mask="url(#c)"><path fill="#D3EDFF" d="m84.134 163.181-27.27.57 1.78 16.6 28.01-1.11z"/><path fill="#AADBFF" d="M56.245 166.762v-3.33l28.482-.519.93 2.838z"/><path fill="#AADBFF" fill-rule="evenodd" d="m84.907 162.66 1.09 3.329-30.002 1.032v-3.834zm-28.412 1.018v2.826l28.82-.992-.769-2.345z" clip-rule="evenodd"/><path fill="#AADBFF" fill-rule="evenodd" d="m62.467 182.274-2.69-19.413.495-.069 2.69 19.414zm3.463-.128-2.69-19.413.495-.069 2.69 19.414zm3.463-.128-2.69-19.414.495-.068 2.69 19.413zm3.463-.129-2.69-19.414.495-.068 2.69 19.413zm3.463-.128-2.69-19.414.495-.069 2.69 19.414zm3.463-.129-2.69-19.413.495-.069 2.69 19.414zm3.463-.128-2.69-19.414.494-.069 2.691 19.414z" clip-rule="evenodd"/><path fill="#AADBFF" fill-rule="evenodd" d="m54.62 166.475 31.425-1.109.018.499-31.425 1.109zm.222 3.358 31.425-1.109.017.5-31.424 1.109zm.224 3.358 31.424-1.109.018.5-31.425 1.109zm.222 3.358 31.425-1.109.018.499-31.425 1.109z" clip-rule="evenodd"/></g></g><path fill="#AADBFF" fill-rule="evenodd" d="M171.645 150.658c-2.317-.943-5.074-1.241-8.36-.67a.318.318 0 0 1-.109-.628c3.385-.588 6.266-.287 8.709.708s4.427 2.672 6.032 4.805c3.205 4.257 4.921 10.345 5.795 16.531.876 6.195.914 12.529.734 17.31-.09 2.392-.235 4.398-.357 5.806a97 97 0 0 1-.157 1.638l-.048.434-.013.112-.004.028-.001.009-.316-.038-.317-.039.001-.002v-.007l.004-.027.013-.109.047-.429c.04-.375.095-.926.156-1.625.121-1.4.265-3.395.355-5.775.179-4.761.141-11.054-.728-17.197-.869-6.151-2.566-12.11-5.673-16.236-1.55-2.059-3.446-3.656-5.763-4.599m11.866 46.362a.32.32 0 0 1-.278-.356l.317.039.316.038a.32.32 0 0 1-.355.279" clip-rule="evenodd"/><path fill="#F8F8F8" d="M150.755 170.07s-5.099-22.257 7.385-26.226c7.929-2.524 5.499 4.317 5.499 4.317s3.331-4.402 8.37-2.507c5.04 1.904 3.672 9.569 1.658 11.745-9.119 9.824-14.43 4.504-22.912 12.671"/><path fill="#AADBFF" fill-rule="evenodd" d="M163.633 148.506c.134.114.15.315.035.449l-.242-.207-.242-.207a.317.317 0 0 1 .449-.035m-4.001 5.106.118-.138c.211-.246.408-.476.599-.689a195 195 0 0 0 2.088-2.395c.344-.399.652-.757.873-1.016l.358-.419-.242-.207-.242-.207-.358.418-.871 1.015c-.687.797-1.513 1.751-2.081 2.386-.196.218-.399.455-.61.701l-.117.137-.001.001c-2.33 2.749-5.625 7.258-7.259 12.458a.32.32 0 0 0 .209.4.32.32 0 0 0 .399-.209c1.596-5.081 4.828-9.512 7.137-12.236" clip-rule="evenodd"/><path fill="#AADBFF" fill-rule="evenodd" d="M164.931 151.856c-1.182-.121-2.711.115-4.678 1.006a.32.32 0 0 1-.422-.159.317.317 0 0 1 .159-.421c2.039-.924 3.683-1.196 5.006-1.06 1.329.136 2.312.682 3.026 1.35.711.664 1.151 1.444 1.413 2.052a6.5 6.5 0 0 1 .35 1.048l.004.017.001.005v.003l-.312.062.312-.062a.318.318 0 1 1-.625.124v-.001m0 0v-.001l-.003-.012-.011-.049a6 6 0 0 0-.301-.881c-.24-.557-.636-1.254-1.263-1.84-.623-.582-1.478-1.06-2.656-1.181m.172 7.423-.309.074.31-.074a.319.319 0 0 1-.62.149l-.001-.002-.003-.012-.013-.051q-.019-.068-.059-.196a7 7 0 0 0-.255-.684c-.239-.555-.613-1.245-1.159-1.819-.543-.571-1.249-1.02-2.161-1.12-.914-.101-2.081.144-3.555 1.047a.318.318 0 1 1-.333-.543c1.556-.954 2.864-1.258 3.958-1.138 1.096.121 1.933.663 2.553 1.314.617.649 1.027 1.413 1.282 2.007a8 8 0 0 1 .343.963l.016.061.005.017.001.005zm-5.337 1.802-.308.083za.319.319 0 0 1-.615.166l-.001-.001-.003-.011-.022-.057a1.3 1.3 0 0 0-.112-.212c-.11-.17-.296-.38-.602-.533-.602-.301-1.778-.431-3.977.674a.319.319 0 1 1-.286-.569c2.28-1.147 3.687-1.106 4.549-.675a2.16 2.16 0 0 1 1.017 1.07q.025.062.038.1l.009.031.003.01.001.004z" clip-rule="evenodd"/><path fill="#AADBFF" fill-rule="evenodd" d="M154.368 149.694h.002l.009-.002.039-.009q.055-.012.157-.031c.138-.025.336-.056.575-.079a6.1 6.1 0 0 1 1.752.067c.636.127 1.257.389 1.736.879.475.485.837 1.222.91 2.354a.318.318 0 1 0 .636-.041c-.081-1.256-.491-2.147-1.09-2.759-.596-.608-1.349-.915-2.068-1.058a6.8 6.8 0 0 0-1.937-.077 7 7 0 0 0-.855.133l-.014.003-.004.001-.001.001.076.309-.077-.309a.319.319 0 0 0 .154.619zm-1.715 5.173h.001l.006-.004.027-.015.109-.059c.096-.05.235-.117.404-.184.341-.137.788-.271 1.242-.282.45-.012.889.096 1.254.423.367.329.699.919.854 1.952a.318.318 0 1 0 .63-.094c-.168-1.125-.545-1.872-1.059-2.333-.517-.463-1.131-.6-1.695-.586-.559.015-1.085.176-1.463.328a5 5 0 0 0-.625.3l-.01.006-.003.002-.001.001h-.001l.165.273-.165-.273a.318.318 0 0 0 .33.545m-1.728 4.787a.32.32 0 0 0 .392.503m17.274-12.202c-1.294-.072-3.049.317-5.417 1.543a.32.32 0 0 1-.293-.566c2.425-1.255 4.296-1.694 5.746-1.613 1.462.081 2.471.691 3.156 1.474.676.775 1.025 1.706 1.205 2.43.091.363.14.68.167.907q.02.171.026.269l.005.074v.021l.001.006v.002l-.302.01.302-.009a.319.319 0 0 1-.637.02v-.003l-.001-.015-.004-.061a7 7 0 0 0-.176-1.067c-.167-.67-.481-1.494-1.066-2.164-.578-.661-1.43-1.186-2.712-1.258" clip-rule="evenodd"/><path fill="#AADBFF" fill-rule="evenodd" d="M157.394 146.364a.319.319 0 1 1-.205-.603l.102.302-.102-.302.002-.001.004-.002.018-.005.063-.021.235-.07c.2-.057.483-.132.816-.202.663-.14 1.546-.268 2.383-.201.83.068 1.683.334 2.191 1.054.509.722.601 1.801.143 3.326a.32.32 0 0 1-.611-.184c.434-1.445.291-2.287-.053-2.775-.347-.491-.967-.724-1.722-.785-.748-.061-1.562.054-2.199.188-.316.067-.584.138-.773.192l-.218.065-.057.019-.014.004zm23.405 50.3-.317.04-.316.038-.001-.009-.004-.029-.013-.112-.048-.434c-.04-.379-.095-.934-.157-1.638a120 120 0 0 1-.357-5.805c-.18-4.782-.142-11.116.734-17.311.874-6.186 2.59-12.274 5.795-16.53 1.605-2.133 3.589-3.812 6.032-4.806s5.324-1.296 8.709-.707a.318.318 0 1 1-.109.627c-3.286-.571-6.043-.273-8.36.67s-4.213 2.54-5.763 4.599c-3.107 4.127-4.804 10.086-5.673 16.237-.869 6.142-.907 12.435-.728 17.197.09 2.38.234 4.374.355 5.774a87 87 0 0 0 .203 2.054l.013.109.004.028zm-.278.356a.32.32 0 0 1-.355-.278l.316-.038.317-.04a.32.32 0 0 1-.278.356" clip-rule="evenodd"/><path fill="#F8F8F8" d="M202.672 149.929s-5.643-7.121 1.215-8.405c5.244-.985 13.096 10.062 13.708 15.739s-.085 10.453-1.046 12.509c-.28.604-.815.077-.815.077s-11.277-6-19.41-10.784c-9.697-5.703-10.266-14.243-4.504-14.94 5.761-.689 10.852 5.804 10.852 5.804"/><path fill="#AADBFF" fill-rule="evenodd" d="M203.079 150.425a.32.32 0 0 1 .447-.062l-.192.254.192-.254.002.001.005.004.019.015.074.057.277.221c.24.195.586.484 1.01.861a42 42 0 0 1 3.29 3.27c2.546 2.822 5.53 6.879 7.253 11.807a.32.32 0 0 1-.602.211c-1.685-4.82-4.611-8.806-7.124-11.591a41 41 0 0 0-3.24-3.22 30 30 0 0 0-1.257-1.057l-.069-.053-.017-.013-.004-.003-.001-.001" clip-rule="evenodd"/><path fill="#AADBFF" fill-rule="evenodd" d="m210.858 147.392-.185.217za.319.319 0 1 1-.414.485l-.001-.001-.006-.005-.021-.018-.084-.07a24 24 0 0 0-1.443-1.093c-.921-.643-2.089-1.358-3.135-1.7-.524-.172-.989-.24-1.363-.181a1.1 1.1 0 0 0-.838.571c-.207.361-.334.939-.293 1.828.04.885.245 2.048.67 3.553a.32.32 0 0 1-.427.381l-.002-.001-.007-.002-.029-.012-.114-.045q-.153-.06-.434-.166c-.373-.14-.902-.331-1.528-.539-1.253-.415-2.883-.889-4.407-1.135-.763-.123-1.489-.188-2.125-.162-.64.025-1.16.14-1.529.354a1.24 1.24 0 0 0-.643.95c-.067.466.037 1.118.421 2.011.372.87.874 1.508 1.283 1.928.203.209.383.363.51.464a4 4 0 0 0 .185.137l.008.005.001.001a.318.318 0 0 1-.344.536l.172-.268-.172.268h-.001l-.002-.001-.004-.003-.014-.01-.05-.034a5 5 0 0 1-.746-.651 7 7 0 0 1-1.412-2.12c-.406-.944-.557-1.723-.465-2.354.094-.65.442-1.114.954-1.41.496-.288 1.134-.413 1.823-.44.693-.028 1.465.043 2.251.17 1.574.254 3.239.74 4.507 1.159.634.211 1.172.405 1.551.547l.01.004c-.323-1.248-.49-2.265-.528-3.086-.043-.947.085-1.664.377-2.173.301-.527.76-.802 1.292-.885.516-.081 1.091.019 1.66.205 1.139.373 2.37 1.132 3.302 1.784a25 25 0 0 1 1.572 1.198l.023.019.007.005zm-1.909 2.331c.851-.143 1.916.068 3.254.793a.319.319 0 0 1-.304.56c-1.267-.686-2.185-.835-2.844-.725-.65.109-1.099.479-1.418.947-.323.474-.504 1.04-.603 1.499a5 5 0 0 0-.109.723l-.002.04-.001.01v.001l-.318-.013-.319-.014v-.002l.001-.004v-.015l.004-.051a6 6 0 0 1 .04-.358 6 6 0 0 1 .081-.452c.108-.5.312-1.154.699-1.723.392-.575.979-1.072 1.839-1.216m-2.47 4.128-.003-.001-.014-.006-.056-.022a11 11 0 0 0-1.01-.334c-.661-.183-1.535-.362-2.412-.356-.878.005-1.726.196-2.373.714-.637.511-1.127 1.38-1.219 2.85a.319.319 0 1 1-.636-.039c.1-1.602.646-2.659 1.457-3.308.801-.643 1.812-.848 2.767-.855.958-.006 1.895.188 2.586.38.307.085.568.171.764.24m.149.737a.318.318 0 0 0 .443-.28m4.474.435c.632-.141 1.391-.069 2.296.321a.319.319 0 0 1-.252.585c-.812-.349-1.433-.39-1.905-.284a2.05 2.05 0 0 0-1.104.676 3.4 3.4 0 0 0-.573.961 4 4 0 0 0-.152.471l-.001.005-.312-.065-.312-.066.001-.001v-.003l.003-.01.008-.035a4 4 0 0 1 .085-.292q.036-.109.088-.24a4 4 0 0 1 .687-1.146c.34-.388.811-.736 1.443-.877m-2.115 2.968h-.002l-.011-.004-.045-.016q-.062-.022-.179-.059a10 10 0 0 0-.656-.18 8.5 8.5 0 0 0-2.047-.246c-.761.011-1.523.158-2.145.552-.611.387-1.118 1.03-1.35 2.094a.317.317 0 0 1-.379.243.317.317 0 0 1-.243-.379c.265-1.217.864-2.012 1.632-2.497.757-.479 1.648-.639 2.476-.65a9.2 9.2 0 0 1 2.203.263c.26.061.479.124.643.174m.103.705a.318.318 0 0 0 .424-.233m3.795 1.165c.522-.135 1.131.016 1.834.496a.32.32 0 0 1-.36.526c-.623-.425-1.04-.476-1.314-.405-.277.072-.5.293-.678.619a3.7 3.7 0 0 0-.348 1.024 6 6 0 0 0-.074.492l-.002.028-.001.006v.001l-.318-.022-.318-.022v-.002l.001-.003v-.01l.003-.035.014-.128a6 6 0 0 1 .05-.323l.02-.108c.069-.344.193-.8.414-1.204.219-.401.559-.795 1.077-.93m-1.443 3.027-.001-.001-.006-.004-.026-.018-.107-.067a5 5 0 0 0-.397-.221 4.6 4.6 0 0 0-1.248-.437c-.465-.082-.92-.054-1.303.164-.376.214-.738.643-.96 1.475a.319.319 0 0 1-.616-.165c.254-.948.698-1.544 1.261-1.864.557-.317 1.178-.334 1.728-.238s1.06.311 1.426.496l.181.095m.068.785a.32.32 0 0 0 .5-.24m-40.079 9.3-.011-.318a.318.318 0 1 0 .023.637h-.002.012l.057.002q.082.004.245.031c.218.04.537.124.927.307.778.366 1.849 1.129 2.941 2.735 2.191 3.22 4.464 9.822 4.591 23.319a.32.32 0 0 0 .322.316.32.32 0 0 0 .316-.322c-.128-13.544-2.406-20.297-4.702-23.672-1.151-1.691-2.307-2.535-3.197-2.953a4.4 4.4 0 0 0-1.084-.357 3 3 0 0 0-.318-.04l-.09-.004h-.027l-.009.001h-.004z" clip-rule="evenodd"/><path fill="#F8F8F8" d="M172.103 169.67s7.104-3.152 9.059.91c3.153 6.56-14.328 11.719-18.322 19.401s-3.527 3.773-3.527 3.773-5.124-14.37-.969-21.517c3.578-6.144 9.637-6.816 13.767-2.567z"/><path fill="#AADBFF" fill-rule="evenodd" d="m171.33 171.677-.002.001-.026.008-.113.041c-.102.04-.255.106-.454.207l-.001.001c-1.807.915-7.393 4.807-10.267 18.942a.319.319 0 0 1-.625-.127c2.904-14.282 8.586-18.361 10.604-19.384a5.4 5.4 0 0 1 .693-.297l.012-.004.003-.001h.003l.087.306-.087-.306.006-.002.079.3-.079-.3.002-.001h.003l.01-.003.041-.01a12 12 0 0 1 .708-.16 20 20 0 0 1 1.812-.287c.702-.077 1.474-.117 2.196-.058.716.059 1.415.216 1.949.559l.001.001c.189.122.334.303.445.48.112.18.202.377.271.555s.119.344.153.465l.038.146.009.042.003.011.001.004v.001l-.312.067.312-.067a.32.32 0 0 1-.623.134m0 0-.001-.002-.001-.008-.008-.033-.033-.125a4 4 0 0 0-.133-.405 2.6 2.6 0 0 0-.217-.447.9.9 0 0 0-.25-.284c-.406-.26-.984-.404-1.656-.459-.667-.054-1.395-.018-2.075.056a19 19 0 0 0-2.289.396l-.145.036-.037.009-.007.002" clip-rule="evenodd"/><path fill="#AADBFF" fill-rule="evenodd" d="m162.609 170.545-.213-.236a.318.318 0 1 0 .427.473l.002-.002.008-.007.038-.033q.052-.044.153-.124c.135-.106.333-.252.582-.413.501-.321 1.2-.694 2.005-.908.802-.214 1.701-.269 2.614.03.911.297 1.866.956 2.768 2.221a.319.319 0 1 0 .518-.37c-.967-1.357-2.027-2.111-3.088-2.457-1.058-.346-2.086-.277-2.977-.04a7.9 7.9 0 0 0-2.184.988 8 8 0 0 0-.848.626l-.013.011-.003.003-.002.001v.001zm4.581 3.63.147-.038c.209-.054.508-.128.865-.21a31 31 0 0 1 2.613-.495c.94-.132 1.906-.203 2.635-.098.361.052.704.152.955.344a.95.95 0 0 1 .379.885.318.318 0 1 1-.634-.064c.015-.148-.03-.237-.132-.315-.124-.094-.339-.173-.659-.219-.635-.092-1.526-.032-2.456.098-.923.129-1.855.323-2.558.485-.351.081-.644.154-.849.206l-.238.062-.062.017-.016.004-.004.001a.32.32 0 0 1-.322-.093l-.001-.002-.006-.007-.027-.028-.108-.11a8 8 0 0 0-.411-.38 7 7 0 0 0-1.416-.958c-.569-.283-1.195-.467-1.819-.422-.615.043-1.259.31-1.876.982a.32.32 0 1 1-.47-.431c.721-.785 1.514-1.131 2.3-1.187.777-.055 1.519.175 2.149.488s1.169.72 1.547 1.045c.19.163.341.307.446.411zm-2.832 4.094.058-.024c.163-.066.394-.158.675-.263.56-.21 1.318-.474 2.104-.685.781-.21 1.61-.374 2.305-.373.665.001 1.362.157 1.644.761a.318.318 0 1 1-.577.27c-.109-.233-.429-.392-1.068-.394-.61-.001-1.375.146-2.138.351-.759.204-1.497.461-2.046.667a23 23 0 0 0-.84.332l-.047.02-.012.005-.003.001m-.356-.072-.001-.001-.006-.005-.022-.023-.093-.089a7.6 7.6 0 0 0-1.572-1.155c-.996-.543-2.16-.821-3.157-.092a.32.32 0 0 1-.446-.07.32.32 0 0 1 .07-.445c1.305-.954 2.776-.531 3.838.048a8.3 8.3 0 0 1 1.69 1.236m-2.205 5.009q.131-.115.304-.26a13 13 0 0 1 1.503-1.089c.574-.351 1.22-.661 1.827-.749.624-.091 1.246.053 1.658.659a.319.319 0 1 1-.528.358c-.235-.346-.578-.453-1.039-.386-.478.069-1.036.326-1.586.662-.544.332-1.053.724-1.427 1.036-.187.155-.339.289-.444.384l-.121.11-.03.029-.008.007-.002.002a.32.32 0 0 1-.517-.113m.41-.65-.118-.239a7.6 7.6 0 0 0-.817-1.297c-.342-.426-.782-.837-1.305-.996-.557-.17-1.144-.037-1.705.498a.318.318 0 1 0 .439.461c.421-.4.776-.442 1.08-.349.339.103.679.393.994.785.31.385.566.831.746 1.186a10 10 0 0 1 .259.559l.013.032.003.008.001.002m32.431-16.344a.32.32 0 0 1 .035.449 53.2 53.2 0 0 0-10.603 19.551 47 47 0 0 0-1.455 6.613 33 33 0 0 0-.214 1.864 16 16 0 0 0-.041.613l-.001.03v.009m12.279-29.129a.32.32 0 0 0-.45.035zm-.45.035a53.8 53.8 0 0 0-10.73 19.785zm-10.73 19.785a48 48 0 0 0-1.474 6.703zm-1.474 6.703a33 33 0 0 0-.218 1.901zm-.218 1.901q-.026.332-.036.506zm-.036.506-.006.132zm-.006.132-.002.034zm-.002.034v.009zm0 .009v.003zm0 .003.318.011z" clip-rule="evenodd"/><path fill="#F8F8F8" d="M194.147 167.622s-2.626-3.272-9.059-.57c-8.074 3.391 7.606 13.606 13.588 15.875 7.691 2.906 10.793 6.756 10.793 6.756s5.082-11.268 2.992-16.937c-1.445-3.943-9.416-12.696-18.323-5.116z"/><path fill="#AADBFF" fill-rule="evenodd" d="M197.002 169.101a8.3 8.3 0 0 1 1.976-1.23c1.436-.626 3.317-.885 5.22.518a.319.319 0 0 0 .378-.513c-2.142-1.58-4.281-1.274-5.853-.589a9 9 0 0 0-1.883 1.128 9 9 0 0 0-.669.574l-.037.037-.011.01-.003.003v.001c-.001 0-.001.001.228.223l-.229-.222a.32.32 0 0 0-.077.311.32.32 0 0 0 .233.221c1.228.286 1.958.622 2.593 1.072.473.334.892.729 1.428 1.234.203.191.423.398.669.624.262.254.521.505.77.763 2.56 2.664 4.264 6.043 5.329 8.77a36 36 0 0 1 1.14 3.407c.119.426.205.766.26 1l.062.266.014.068.004.017.001.004v.001a.318.318 0 1 0 .624-.128l-.27.055.27-.055v-.002l-.001-.005-.004-.019-.016-.073-.064-.277a25 25 0 0 0-.266-1.023 37 37 0 0 0-1.16-3.468c-1.08-2.765-2.822-6.231-5.463-8.98l-.001-.001a30 30 0 0 0-.788-.779l-.001-.002-.006-.006q-.339-.312-.636-.593c-.549-.518-1.014-.956-1.527-1.319-.602-.426-1.271-.751-2.234-1.023" clip-rule="evenodd"/><path fill="#AADBFF" fill-rule="evenodd" d="m207.833 171.077-.107.255za.318.318 0 1 1-.246.587h-.001l-.004-.002-.015-.006-.059-.024-.228-.09a22 22 0 0 0-.811-.292c-.67-.225-1.547-.482-2.392-.615-.861-.137-1.62-.133-2.099.095a.88.88 0 0 0-.468.473c-.09.221-.12.541-.023 1.003a.32.32 0 0 1-.39.374h-.001l-.005-.001-.021-.005-.081-.02-.312-.072a30 30 0 0 0-1.115-.223c-.924-.168-2.148-.344-3.36-.386-1.221-.043-2.389.053-3.225.402-.414.173-.729.4-.934.687-.202.282-.316.646-.289 1.127a.318.318 0 1 1-.636.036c-.035-.609.11-1.12.407-1.534.293-.41.718-.701 1.206-.904.967-.404 2.248-.495 3.493-.451 1.254.043 2.511.225 3.451.395.46.083.845.164 1.12.225a2 2 0 0 1 .124-.893c.156-.383.438-.644.786-.809.667-.317 1.595-.288 2.472-.149.894.142 1.809.41 2.495.641a21 21 0 0 1 1.075.395l.064.026.016.007.005.002zm-1.152 2.322c.7.119 1.492.548 2.389 1.413a.318.318 0 1 1-.442.459c-.845-.814-1.526-1.154-2.054-1.244a1.58 1.58 0 0 0-1.249.293c-.333.243-.58.586-.747.88a3.5 3.5 0 0 0-.225.472l-.01.026-.002.006-.302-.102-.302-.102.001-.002.001-.003.004-.011.014-.038a3 3 0 0 1 .09-.215q.066-.149.177-.346c.19-.335.492-.763.926-1.079a2.2 2.2 0 0 1 1.731-.407m-2.72 2.512-.004-.001-.013-.003-.055-.013-.215-.048c-.186-.04-.453-.094-.777-.148a15.6 15.6 0 0 0-2.418-.22c-.9-.004-1.8.099-2.521.394-.712.292-1.229.761-1.43 1.497a.318.318 0 0 1-.615-.168c.267-.976.961-1.574 1.803-1.919.832-.341 1.828-.445 2.766-.441.942.003 1.849.117 2.519.228a18 18 0 0 1 .846.162m.114.68a.32.32 0 0 0 .38-.207m3.653 2.366c.467.107.961.516 1.511 1.26a.318.318 0 1 1-.513.379c-.529-.717-.907-.964-1.141-1.018-.185-.042-.335.027-.489.228-.16.21-.277.513-.355.786a5 5 0 0 0-.098.432l-.004.025-.001.005v.001a.32.32 0 0 1-.511.207l.196-.252-.316-.045v-.001l.001-.003.001-.009.006-.033q.006-.043.021-.116c.017-.086.042-.2.077-.33l.015-.055c.084-.297.228-.693.462-1 .242-.315.621-.579 1.138-.461m-1.615 1.516a10 10 0 0 0-.356-.224c-.456-.271-1.084-.594-1.752-.773-.663-.177-1.41-.224-2.065.119-.665.35-1.155 1.061-1.386 2.229a.318.318 0 1 0 .625.123c.208-1.05.619-1.557 1.058-1.788.451-.236 1.012-.225 1.604-.067.587.157 1.158.448 1.589.705a8 8 0 0 1 .651.43l.036.027.008.006.002.002m-10.015-11.427-.047.315-.047.315-.006-.001-.02-.003-.079-.011-.302-.04a38 38 0 0 0-1.082-.118 31 31 0 0 0-3.261-.15c-1.184.017-2.327.131-3.15.42q-.616.217-.907.531a.92.92 0 0 0-.253.732.318.318 0 1 1-.635.049 1.56 1.56 0 0 1 .42-1.214c.291-.314.702-.538 1.164-.7.923-.324 2.151-.438 3.352-.455a32 32 0 0 1 3.33.152 38 38 0 0 1 1.411.162l.083.011.021.003zm.268.362a.32.32 0 0 1-.362.268l.047-.315.047-.315a.32.32 0 0 1 .268.362" clip-rule="evenodd"/><path fill="#F8F8F8" d="m17.126 40.873 146.3 5.054v92.616l-146.418 2.952z"/><path fill="#FFA400" d="m17.124 40.873 146.299 5.054v-8.19L17.135 31.974z"/><path fill="#375FE9" fill-rule="evenodd" d="M94.798 65.767c.623 0 1.128.506 1.128 1.13v10.19l42.734.641a1.13 1.13 0 0 1-.034 2.258l-42.71-.64v14.058a1.129 1.129 0 0 1-2.258 0V78.2q0-.08.01-.156V66.896a1.13 1.13 0 0 1 1.13-1.129" clip-rule="evenodd"/><path fill="#375FE9" fill-rule="evenodd" d="M94.774 93.353c.623 0 1.129.505 1.129 1.128v10.174l37.156-.031c3.682 0 6.7 2.918 6.7 6.581v9.375a1.129 1.129 0 0 1-2.258 0v-9.375c0-2.371-1.96-4.323-4.441-4.324h-.001l-37.167.032V121a1.13 1.13 0 0 1-2.258 0v-15.215q0-.08.011-.157V94.481c0-.623.505-1.128 1.129-1.128" clip-rule="evenodd"/><path fill="#375FE9" fill-rule="evenodd" d="M94.774 93.353c.624 0 1.13.505 1.13 1.128v11.304q0 .08-.012.156V121a1.13 1.13 0 0 1-2.257 0v-14.085l-38.913.031c-2.83 0-5.003 2.137-5.003 4.625v9.871a1.13 1.13 0 0 1-2.258 0v-9.871c0-3.869 3.323-6.883 7.26-6.883v1.129-1.129l38.924-.031v1.128m0-1.128V94.481c0-.623.506-1.128 1.13-1.128" clip-rule="evenodd"/><path fill="#375FE9" fill-rule="evenodd" d="M94.798 65.767c.623 0 1.128.506 1.128 1.13l-.01 26.508a1.129 1.129 0 1 1-2.258-.002l.01-26.507a1.13 1.13 0 0 1 1.13-1.129" clip-rule="evenodd"/><path fill="#FF8D18" d="m126.485 74.72 24.418.42a1.66 1.66 0 0 1 1.637 1.648v4.87a1.61 1.61 0 0 1-1.637 1.606l-24.418-.301c-.937-.011-1.692-.765-1.692-1.67v-4.947c0-.916.755-1.638 1.692-1.616zm-44.62-16.347 25.678.668c.949.022 1.725.787 1.725 1.713v4.99c0 .915-.776 1.648-1.725 1.627l-25.678-.55c-.98-.022-1.778-.797-1.778-1.735v-5.075c0-.937.798-1.67 1.778-1.649zm-.023 29.364 25.689.237c.948 0 1.724.765 1.724 1.68v5c0 .917-.776 1.66-1.724 1.66l-25.689-.118c-.98 0-1.778-.765-1.778-1.703v-5.075c0-.938.798-1.681 1.778-1.681m-.428 27.919 25.699-.162c.949 0 1.724.733 1.724 1.66v4.999c0 .916-.775 1.671-1.724 1.681l-25.7.281c-.98.01-1.777-.744-1.777-1.671v-5.086c0-.937.797-1.702 1.788-1.702zm-47.445.29 27.079-.172c1.002 0 1.82.754 1.82 1.702v5.13c0 .948-.818 1.724-1.82 1.734l-27.09.302c-1.035.011-1.875-.754-1.875-1.724v-5.215c0-.959.851-1.746 1.886-1.757m92.477-.581 24.429-.151c.905 0 1.637.722 1.637 1.616v4.871c0 .894-.732 1.638-1.637 1.638l-24.429.269c-.937 0-1.691-.722-1.691-1.638v-4.957c0-.916.754-1.659 1.691-1.659z"/></g><defs><clipPath id="a"><path fill="#fff" d="M0 0h240v240H0z"/></clipPath><clipPath id="b"><rect width="200" height="200" x="19.83" y="20.075" fill="#fff" rx="100"/></clipPath></defs></svg>