<svg xmlns="http://www.w3.org/2000/svg" width="150" height="150" fill="none" class="persona-ilustration" viewBox="0 0 150 150"><g clip-path="url(#a)"><g clip-path="url(#b)"><rect width="125" height="125" x="12.5" y="12.5" fill="#D3EDFF" rx="62.5"/><path fill="#E4E4E4" d="m30.375 77.845 4.644.656a.71.71 0 0 0 .687-.306l2.313-3.456a.71.71 0 0 1 .656-.313l6.244.625a.7.7 0 0 0 .643-.294l2.313-3.218a.72.72 0 0 1 .644-.294l6.168.594a.71.71 0 0 0 .725-.438l.994-2.45a.715.715 0 0 1 .688-.444l5.98.27a.71.71 0 0 0 .626-.32l1.662-2.53a.7.7 0 0 1 .613-.32l6.081.163c.3.006.575-.175.681-.462l.67-1.788a.71.71 0 0 1 .718-.456l4.719.368a.7.7 0 0 0 .625-.287l1.375-1.888c.275-.374.73-.28 1.125-.024 9.106 5.85 34.587 35.243 34.862 80.624-53.294 29.725-47.956 26.438-47.956 26.438s-4.306-52.95-39.1-89.275c-.463-.481-.056-1.281.612-1.187z"/><path fill="#F8F8F8" fill-rule="evenodd" d="M87.347 77.538a2.81 2.81 0 0 1-2.39 3.18c-4.298.608-10.499 2.317-16.31 4.491-5.917 2.214-10.9 4.717-13.104 6.723a2.813 2.813 0 0 1-3.786-4.16c3.078-2.801 8.985-5.61 14.92-7.831 6.043-2.26 12.657-4.108 17.49-4.793a2.81 2.81 0 0 1 3.18 2.39m6.095 10.869a1.25 1.25 0 0 1-1.047 1.424c-.547.084-1.133.17-1.735.257-2.08.304-4.35.635-5.89 1.01a1.25 1.25 0 1 1-.59-2.43c1.667-.405 4.116-.762 6.21-1.067.577-.085 1.128-.165 1.628-.241a1.25 1.25 0 0 1 1.424 1.047m-12.235 2.305a1.25 1.25 0 0 1-.824 1.564c-6.37 1.977-11.906 4.947-19.475 9.632a1.25 1.25 0 0 1-1.316-2.126c7.62-4.716 13.371-7.82 20.05-9.894a1.25 1.25 0 0 1 1.565.824m17.485 7.775a1.25 1.25 0 0 1-1.17 1.325c-2.989.185-5.45.82-7.438 1.332q-.6.157-1.143.29a1.249 1.249 0 1 1-.594-2.428q.49-.122 1.064-.27c1.987-.515 4.707-1.218 7.956-1.42a1.25 1.25 0 0 1 1.325 1.17m-12.968 2.488a1.25 1.25 0 0 1-.846 1.552c-6 1.766-11.39 4.194-18.845 9.253a1.25 1.25 0 1 1-1.404-2.068c7.646-5.19 13.269-7.737 19.543-9.584a1.25 1.25 0 0 1 1.552.847m9.646 10.799c-.394.116-.794.234-1.21.347a1.25 1.25 0 1 1-.658-2.411c.366-.1.732-.209 1.109-.32 1.87-.555 3.98-1.179 7.365-1.124a1.25 1.25 0 1 1-.04 2.499c-2.98-.048-4.727.467-6.565 1.009m-4.433-.111a1.25 1.25 0 0 1-.823 1.565c-6.248 1.94-11.72 4.805-18.89 9.472a1.25 1.25 0 1 1-1.363-2.095c7.269-4.732 12.959-7.73 19.511-9.765a1.25 1.25 0 0 1 1.565.823m15.603 8.788a1.25 1.25 0 0 1-1.171 1.325c-2.089.128-4.143.711-6.039 1.248q-.537.154-1.056.297a1.25 1.25 0 0 1-.662-2.411q.462-.127.974-.274c1.887-.538 4.245-1.209 6.63-1.356a1.25 1.25 0 0 1 1.324 1.171m-11.922 2.649a1.25 1.25 0 0 1-.773 1.59c-5.671 1.962-11.117 4.692-18.662 9.022a1.251 1.251 0 0 1-1.244-2.169c7.593-4.357 13.197-7.178 19.089-9.216a1.25 1.25 0 0 1 1.59.773m13.96 9.058a1.25 1.25 0 0 1-1.173 1.323c-1.793.107-4.318.533-6.218 1.427a1.25 1.25 0 0 1-1.064-2.262c2.3-1.082 5.175-1.543 7.132-1.661a1.25 1.25 0 0 1 1.323 1.173m-11.247 2.605a1.25 1.25 0 0 1-.773 1.59c-5.671 1.961-11.117 4.691-18.661 9.021a1.25 1.25 0 1 1-1.245-2.168c7.593-4.358 13.197-7.178 19.089-9.216a1.25 1.25 0 0 1 1.59.773" clip-rule="evenodd"/><path fill="#EFEFEF" d="m33.863 68.1 4.643.657a.71.71 0 0 0 .688-.306l2.312-3.456a.71.71 0 0 1 .657-.313l6.243.625c.25.025.5-.087.644-.294l2.313-3.218a.72.72 0 0 1 .643-.294l6.17.594a.71.71 0 0 0 .724-.438l.994-2.45a.715.715 0 0 1 .687-.444l5.982.27a.71.71 0 0 0 .625-.32l1.662-2.53a.7.7 0 0 1 .613-.32l6.08.163a.71.71 0 0 0 .682-.463l.669-1.787a.71.71 0 0 1 .719-.456l4.718.368a.7.7 0 0 0 .625-.287l1.375-1.888c.275-.375.732-.28 1.125-.025 9.107 5.85 34.588 35.244 34.863 80.625-53.294 29.725-47.956 26.438-47.956 26.438s-4.307-52.95-39.1-89.275c-.463-.481-.057-1.281.612-1.188z"/><path fill="#F8F8F8" fill-rule="evenodd" d="M90.841 67.8a2.813 2.813 0 0 1-2.39 3.18c-4.297.608-10.498 2.317-16.309 4.491-5.917 2.214-10.901 4.717-13.105 6.722a2.813 2.813 0 0 1-3.786-4.16c3.078-2.8 8.985-5.61 14.92-7.83 6.043-2.261 12.658-4.108 17.491-4.793a2.813 2.813 0 0 1 3.18 2.39m6.088 10.869a1.25 1.25 0 0 1-1.048 1.424c-.547.084-1.133.17-1.735.257-2.079.304-4.349.635-5.889 1.01a1.25 1.25 0 1 1-.59-2.43c1.666-.405 4.115-.762 6.21-1.067.577-.085 1.128-.165 1.627-.241a1.25 1.25 0 0 1 1.425 1.047M84.7 80.974a1.25 1.25 0 0 1-.823 1.564c-6.371 1.977-11.907 4.947-19.475 9.632a1.25 1.25 0 0 1-1.316-2.126c7.62-4.716 13.37-7.82 20.05-9.894a1.25 1.25 0 0 1 1.564.824m17.479 7.775a1.25 1.25 0 0 1-1.17 1.325c-2.988.185-5.45.82-7.438 1.332q-.6.157-1.142.29a1.25 1.25 0 0 1-.595-2.428q.49-.121 1.064-.27c1.988-.515 4.707-1.218 7.956-1.42a1.25 1.25 0 0 1 1.325 1.17m-12.967 2.487a1.25 1.25 0 0 1-.846 1.552c-6.001 1.766-11.39 4.194-18.845 9.254a1.25 1.25 0 1 1-1.404-2.068c7.646-5.19 13.269-7.737 19.543-9.584a1.25 1.25 0 0 1 1.552.846m9.653 10.799a55 55 0 0 1-1.21.348 1.25 1.25 0 1 1-.659-2.412q.547-.151 1.109-.32c1.87-.554 3.98-1.179 7.366-1.124a1.25 1.25 0 0 1-.041 2.5c-2.98-.048-4.727.467-6.565 1.008m-4.44-.11a1.25 1.25 0 0 1-.823 1.565c-6.247 1.94-11.72 4.805-18.889 9.472a1.25 1.25 0 1 1-1.364-2.095c7.27-4.732 12.96-7.73 19.512-9.765a1.25 1.25 0 0 1 1.564.823m15.61 8.788a1.25 1.25 0 0 1-1.171 1.324c-2.089.128-4.144.711-6.039 1.249q-.538.153-1.057.296a1.25 1.25 0 1 1-.662-2.41q.463-.128.975-.275c1.887-.537 4.244-1.209 6.63-1.355a1.25 1.25 0 0 1 1.324 1.171m-11.929 2.649a1.25 1.25 0 0 1-.772 1.59c-5.672 1.962-11.117 4.692-18.662 9.022a1.251 1.251 0 0 1-1.244-2.169c7.593-4.357 13.197-7.178 19.088-9.216a1.25 1.25 0 0 1 1.59.773m13.967 9.059a1.25 1.25 0 0 1-1.173 1.323c-1.793.108-4.317.533-6.218 1.427a1.25 1.25 0 1 1-1.063-2.262c2.299-1.082 5.175-1.543 7.132-1.661a1.25 1.25 0 0 1 1.322 1.173m-11.254 2.604a1.25 1.25 0 0 1-.772 1.59c-5.672 1.961-11.117 4.691-18.662 9.021a1.25 1.25 0 1 1-1.244-2.168c7.593-4.358 13.197-7.178 19.088-9.216a1.25 1.25 0 0 1 1.59.773" clip-rule="evenodd"/><path fill="#fff" d="m37.888 57.051 4.594.938a.71.71 0 0 0 .706-.263l2.519-3.306a.7.7 0 0 1 .675-.269l6.193 1.006c.25.038.5-.056.663-.25l2.506-3.068a.7.7 0 0 1 .656-.25l6.125.968a.71.71 0 0 0 .75-.394l1.144-2.387a.71.71 0 0 1 .713-.4l5.95.638a.71.71 0 0 0 .643-.282l1.82-2.425a.72.72 0 0 1 .63-.281l6.057.531c.3.025.587-.144.706-.419l.775-1.743a.71.71 0 0 1 .744-.413l4.687.657a.72.72 0 0 0 .644-.25l1.487-1.794c.3-.356.744-.231 1.12.044 8.73 6.393 32.362 37.293 29.862 82.606-55.013 26.406-49.488 23.45-49.488 23.45s-1.056-53.113-33.556-91.5c-.431-.513.025-1.282.681-1.15z"/><path fill="#E4E4E4" fill-rule="evenodd" d="M94.772 60.24a2.81 2.81 0 0 1-2.58 3.026c-4.328.345-10.622 1.67-16.554 3.483-6.041 1.846-11.167 4.038-13.488 5.905a2.813 2.813 0 0 1-3.526-4.383c3.243-2.608 9.31-5.05 15.37-6.902 6.17-1.885 12.885-3.323 17.752-3.71a2.813 2.813 0 0 1 3.026 2.58m5.416 11.216a1.25 1.25 0 0 1-1.13 1.359c-.564.05-1.166.102-1.786.154-2.084.177-4.353.37-5.904.644a1.25 1.25 0 0 1-.436-2.462c1.676-.297 4.122-.503 6.222-.681.595-.05 1.162-.098 1.676-.145a1.25 1.25 0 0 1 1.358 1.13M87.845 73.01a1.25 1.25 0 0 1-.918 1.511c-6.48 1.58-12.187 4.201-20.029 8.418a1.25 1.25 0 1 1-1.184-2.202c7.896-4.246 13.827-6.987 20.62-8.644a1.25 1.25 0 0 1 1.511.918m8.177 10.963q-.585.115-1.117.213a1.25 1.25 0 0 1-.448-2.46q.483-.088 1.044-.199c2.021-.394 4.787-.933 8.068-.933a1.25 1.25 0 0 1 0 2.5c-3.018 0-5.525.487-7.547.88m-4.304-.455a1.25 1.25 0 0 1-.939 1.498c-6.099 1.4-11.629 3.498-19.38 8.089a1.25 1.25 0 1 1-1.274-2.151c7.95-4.709 13.719-6.911 20.095-8.374a1.25 1.25 0 0 1 1.498.939m8.944 11.379c-.392.09-.788.181-1.2.267a1.25 1.25 0 0 1-.512-2.447q.545-.115 1.103-.246c1.909-.441 4.054-.936 7.443-.677a1.251 1.251 0 0 1-.191 2.493c-2.986-.229-4.768.18-6.643.61m-4.398-.384a1.25 1.25 0 0 1-.916 1.511c-6.352 1.556-11.99 4.078-19.431 8.299a1.251 1.251 0 0 1-1.234-2.175c7.547-4.28 13.409-6.92 20.07-8.552a1.25 1.25 0 0 1 1.511.917m7.703 11.856-1.086.234a1.25 1.25 0 0 1-.512-2.448 98 98 0 0 0 1.001-.216c1.914-.419 4.301-.941 6.686-.941a1.25 1.25 0 1 1 0 2.5c-2.089 0-4.168.453-6.089.871m-4.725-.214a1.25 1.25 0 0 1-.869 1.54c-5.78 1.613-11.386 4.01-19.181 7.867a1.25 1.25 0 0 1-1.109-2.241c7.843-3.881 13.613-6.359 19.619-8.034a1.25 1.25 0 0 1 1.54.868m12.133 11.148c-1.802 0-4.344.268-6.295 1.043a1.25 1.25 0 1 1-.923-2.323c2.362-.938 5.257-1.22 7.218-1.22a1.25 1.25 0 0 1 0 2.5m-10.14.658a1.25 1.25 0 0 1-.868 1.54c-5.782 1.612-11.387 4.009-19.182 7.866a1.25 1.25 0 1 1-1.108-2.241c7.843-3.88 13.612-6.358 19.618-8.033a1.25 1.25 0 0 1 1.54.868" clip-rule="evenodd"/></g></g><defs><clipPath id="a"><path fill="#fff" d="M0 0h150v150H0z"/></clipPath><clipPath id="b"><rect width="125" height="125" x="12.5" y="12.5" fill="#fff" rx="62.5"/></clipPath></defs></svg>