<svg xmlns="http://www.w3.org/2000/svg" width="300" height="300" fill="none" class="persona-ilustration" viewBox="0 0 300 300"><g clip-path="url(#a)"><g clip-path="url(#b)"><g clip-path="url(#c)"><rect width="250" height="250" x="25.002" y="25" fill="#D3EDFF" rx="125"/><path fill="#EFFAFF" d="m124.565 238.719 23.913-82.989c-40.639-11.717-95.483 52.906-97.997 61.631"/><path fill="#D0F3FF" d="m124.513 238.702 23.913-82.99c40.639 11.717 52.678 95.602 50.168 104.338"/><mask id="d" width="58" height="155" x="38" y="48" maskUnits="userSpaceOnUse" style="mask-type:alpha"><path fill="#FFB26F" d="M89.24 49.118c-3.848-1.106-7.326-.751-7.772.793L38.543 198.858l13.922 4.016L95.391 53.927c.446-1.544-2.315-3.7-6.151-4.809"/></mask><g mask="url(#d)"><path fill="#FFB26F" d="M89.24 49.118c-3.848-1.106-7.326-.751-7.772.793L38.543 198.858l13.922 4.016L95.391 53.927c.446-1.544-2.315-3.7-6.151-4.809"/><path fill="#FFC79D" d="M83.893 44.782c-3.847-1.106-7.325-.751-7.771.793L33.196 194.522l13.923 4.016L90.045 49.591c.445-1.544-2.315-3.7-6.152-4.809"/></g><mask id="e" width="58" height="155" x="204" y="96" maskUnits="userSpaceOnUse" style="mask-type:alpha"><path fill="#FF8D18" d="M255.339 96.985c-3.848-1.106-7.326-.75-7.772.793l-42.925 148.948 13.922 4.015 42.926-148.947c.446-1.544-2.314-3.7-6.151-4.809"/></mask><g mask="url(#e)"><path fill="#FF8D18" d="M255.339 96.985c-3.848-1.106-7.326-.75-7.772.793l-42.925 148.948 13.922 4.015 42.926-148.947c.446-1.544-2.314-3.7-6.151-4.809"/><path fill="#FFB26F" d="M249.993 92.652c-3.848-1.106-7.326-.75-7.772.793l-42.925 148.948 13.922 4.015 42.926-148.947c.445-1.544-2.315-3.7-6.151-4.809"/></g><path fill="#FFDCC5" d="M19.121 219.442s1.614-11.492 14.7-22.247c8.577-8.507 51.463-4.777 100.055 9.231l-5.921 20.528-5.921 20.529-.436 1.496-6.346 22.022c-56.226-16.202-99.624-39.484-96.144-51.566z"/><path fill="#FFB26F" d="m121.56 248.968-6.346 22.022c-56.226-16.203-99.624-39.484-96.144-51.567s52.608-8.69 108.834 7.512l-6.347 22.023z"/><path fill="#FFC79D" d="M224.048 278.499s4.751-10.591-.604-26.65c-2.734-11.764-41.037-31.435-89.616-45.434l-5.921 20.528-5.921 20.529-.436 1.496-6.347 22.022c56.226 16.203 105.355 19.595 108.835 7.512z"/><path fill="#FFB26F" d="m121.563 248.964-6.346 22.022c56.225 16.203 105.354 19.595 108.834 7.512s-39.918-35.364-96.144-51.567l-6.347 22.022z"/><path fill="#FFDCC5" d="M133.773 206.42s6.801 10.651-5.879 20.517z"/></g><path fill="#FFDCC5" d="M76.168 21.5s-4.75 10.591.605 26.65c2.734 11.764 41.037 31.435 89.616 45.435l5.921-20.529 5.921-20.528.436-1.497 6.346-22.022c-56.236-16.2-105.365-19.592-108.845-7.51"/><path fill="#FFC79D" d="m172.3 73.056-5.921 20.528c-52.402-15.101-92.843-36.8-89.593-48.052 3.247-11.263 49.033-8.106 101.435 6.995z"/><path fill="#FFC79D" d="M281.085 80.56s-1.613 11.493-14.699 22.248c-8.577 8.507-51.464 4.777-100.056-9.23l5.921-20.53 5.921-20.528.436-1.496 6.346-22.022c56.226 16.202 99.624 39.484 96.145 51.566z"/><path fill="#FFB26F" d="m172.252 73.045-5.922 20.529c52.403 15.101 98.189 18.258 101.436 6.995s-37.205-32.959-89.593-48.052z"/><path fill="#FFDCC5" d="M184.952 28.99s4.904 10.707-6.78 23.529z"/><path fill="#D0F3FF" d="m171.056 77.199-23.913 82.99c40.639 11.716 95.483-52.907 97.997-61.632 2.521-8.739-28.856-25.561-69.495-37.278z"/><path fill="#EFFAFF" d="m163.474 142.549-16.292 17.653C106.543 148.485 94.504 64.6 97.015 55.865c2.52-8.74 38.03-6.29 78.669 5.427l22.225 7.186-2.707 14.545c-7.21 32.601-26.673 52.517-31.741 59.518z"/><mask id="f" width="34" height="74" x="62" y="47" maskUnits="userSpaceOnUse" style="mask-type:alpha"><path fill="#FFB26F" d="M89.645 47.716c-3.847-1.107-7.326-.751-7.771.793L62.33 116.746l13.923 4.016 19.543-68.237c.446-1.544-2.314-3.7-6.15-4.81"/></mask><g mask="url(#f)"><path fill="#FFB26F" d="M89.645 47.716c-3.847-1.107-7.326-.751-7.771.793L62.33 116.746l13.923 4.016 19.543-68.237c.446-1.544-2.314-3.7-6.15-4.81"/><path fill="#FFC79D" d="M84.298 43.378c-3.847-1.107-7.326-.751-7.771.793L33.6 193.118l13.923 4.016L90.45 48.187c.445-1.544-2.315-3.7-6.152-4.81"/></g><mask id="g" width="34" height="74" x="228" y="95" maskUnits="userSpaceOnUse" style="mask-type:alpha"><path fill="#FF8D18" d="M255.773 95.912c-3.848-1.106-7.326-.751-7.772.793l-19.543 68.237 13.922 4.016 19.544-68.237c.445-1.544-2.315-3.7-6.151-4.809"/></mask><g mask="url(#g)"><path fill="#FF8D18" d="M255.773 95.912c-3.848-1.106-7.326-.751-7.772.793l-19.543 68.237 13.922 4.016 19.544-68.237c.445-1.544-2.315-3.7-6.151-4.809"/><path fill="#FFB26F" d="M250.425 91.576c-3.847-1.106-7.326-.751-7.771.793l-42.926 148.947 13.923 4.016 42.925-148.947c.446-1.544-2.314-3.7-6.151-4.809"/></g><mask id="h" width="29" height="30" x="54" y="106" maskUnits="userSpaceOnUse" style="mask-type:alpha"><path fill="#FFC79D" d="M72.312 134.855c7.68-2.058 12.238-9.952 10.18-17.632s-9.952-12.239-17.633-10.181-12.238 9.953-10.18 17.633 9.953 12.238 17.633 10.18"/></mask><g mask="url(#h)"><path fill="#FFC79D" d="M72.312 134.855c7.68-2.058 12.238-9.952 10.18-17.632s-9.952-12.239-17.633-10.181-12.238 9.953-10.18 17.633 9.953 12.238 17.633 10.18"/><path fill="#FFDCC5" d="M63.32 129.227c8.355-2.239 13.314-10.828 11.075-19.184S63.567 96.727 55.211 98.966s-13.315 10.829-11.076 19.185 10.828 13.315 19.184 11.076"/></g><mask id="i" width="29" height="30" x="220" y="154" maskUnits="userSpaceOnUse" style="mask-type:alpha"><path fill="#FFC79D" d="M238.312 182.853c7.68-2.058 12.238-9.952 10.18-17.632s-9.952-12.239-17.633-10.181-12.238 9.953-10.18 17.633 9.953 12.238 17.633 10.18"/></mask><g mask="url(#i)"><path fill="#FFC79D" d="M238.312 182.853c7.68-2.058 12.238-9.952 10.18-17.632s-9.952-12.239-17.633-10.181-12.238 9.953-10.18 17.633 9.953 12.238 17.633 10.18"/><path fill="#FFDCC5" d="M229.319 177.225c8.356-2.239 13.315-10.828 11.076-19.184s-10.828-13.316-19.184-11.077-13.315 10.829-11.076 19.185 10.828 13.315 19.184 11.076"/></g><mask id="j" width="130" height="141" x="87" y="82" maskUnits="userSpaceOnUse" style="mask-type:alpha"><path fill="#DDAC8E" fill-rule="evenodd" d="M112.561 85.13s11.547-8.058 55.009 4.191l.024.005c43.327 12.761 48.802 25.723 48.802 25.723-30.254 26.712-45.499 32.212-54.13 35.326-4.915 1.773-7.685 2.772-9.861 6.474-2.653 4.533-3.528 10.931-3.771 15.678a13.72 13.72 0 0 0 4.007 10.438l9.612 9.581s8.601 9.852 16.799 29.679c-13.186-5.566-28.581-11.012-45.177-15.796l.001-.003c-16.62-4.791-32.572-8.38-46.713-10.688 17.486-12.421 30.005-16.182 30.005-16.182l13.232-2.992a13.72 13.72 0 0 0 8.947-6.706c2.312-4.159 4.99-10.033 5.143-15.287.126-4.288-1.686-6.607-4.901-10.72-5.649-7.228-15.628-19.997-27.028-58.721" clip-rule="evenodd"/></mask><g mask="url(#j)"><path fill="#DDAC8E" d="M112.562 85.13s11.546-8.057 55.008 4.192l.024.005c43.328 12.761 48.803 25.723 48.803 25.723-30.255 26.712-45.5 32.212-54.131 35.326-4.915 1.773-7.685 2.772-9.861 6.474-2.652 4.533-3.528 10.931-3.771 15.678a13.72 13.72 0 0 0 4.007 10.438l9.612 9.581s8.601 9.852 16.798 29.677c-13.186-5.565-28.58-11.011-45.176-15.796l.001-.003c-16.619-4.79-32.571-8.379-46.711-10.687 17.485-12.42 30.003-16.181 30.003-16.181l13.232-2.992a13.72 13.72 0 0 0 8.947-6.706c2.312-4.159 4.99-10.033 5.143-15.287.126-4.288-1.686-6.607-4.901-10.72-5.649-7.228-15.628-19.997-27.027-58.721"/><path fill="#FFE8CA" d="m163.479 142.55-11.218 9.306c-4.522 4.898-6.388 11.548-7.547 18.113-3.921 22.209 33.535 57.204 19.987 63.786-3.604 1.746-90.41-22.276-93.257-25.426-24.709-27.305 23.54-145.37 25.586-152.466 2.52-8.739 38.031-6.289 78.67 5.428l22.224 7.186-2.707 14.544c-7.21 32.601-26.673 52.517-31.741 59.518z"/></g></g></g><defs><clipPath id="a"><path fill="#fff" d="M0 0h300v300H0z"/></clipPath><clipPath id="b"><path fill="#fff" d="M0 0h300v300H0z"/></clipPath><clipPath id="c"><rect width="250" height="250" x="25.002" y="25" fill="#fff" rx="125"/></clipPath></defs></svg>