<svg xmlns="http://www.w3.org/2000/svg" width="16" height="16" fill="none" class="persona-icon" viewBox="0 0 16 16"><path fill="currentColor" fill-rule="evenodd" d="M4.725 4.25a.722.722 0 0 0-.708.58L3.43 7.765a2.636 2.636 0 0 1 3.358.817 1.721 1.721 0 0 1 2.422 0 2.635 2.635 0 0 1 3.358-.816l-.585-2.934a.722.722 0 0 0-.709-.581H9.834a.5.5 0 0 1 0-1h1.441c.822 0 1.529.58 1.69 1.385l1.025 5.142a.5.5 0 0 1 .005.173 2.639 2.639 0 1 1-5.264-.056.505.505 0 0 1-.008-.089.722.722 0 1 0-1.445 0 .501.501 0 0 1-.009.095 2.639 2.639 0 1 1-5.264.047.5.5 0 0 1 .005-.17l1.026-5.142A1.722 1.722 0 0 1 4.725 3.25h1.442a.5.5 0 0 1 0 1H4.725m-.086 4.222a1.639 1.639 0 1 0 0 3.278 1.639 1.639 0 0 0 0-3.278m6.722 0a1.639 1.639 0 1 0 0 3.278 1.639 1.639 0 0 0 0-3.278" clip-rule="evenodd"/></svg>