<svg xmlns="http://www.w3.org/2000/svg" width="20" height="20" fill="none" class="persona-icon" viewBox="0 0 20 20"><path fill="currentColor" fill-rule="evenodd" d="M6.187 5.7a.82.82 0 0 0-.806.661l-.654 3.277a3.084 3.084 0 0 1 3.866.965 2.02 2.02 0 0 1 2.813 0 3.085 3.085 0 0 1 3.864-.966l-.654-3.276a.82.82 0 0 0-.806-.661h-1.678a.6.6 0 1 1 0-1.2h1.678c.964 0 1.794.68 1.983 1.626l1.079 5.403q.08.268.11.553l.004.02q.016.083.01.164.004.072.004.145a3.089 3.089 0 1 1-6.168-.241.6.6 0 0 1-.011-.114.822.822 0 1 0-1.644 0 1 1 0 0 1-.01.109q.01.121.01.246a3.089 3.089 0 1 1-6.175-.132.6.6 0 0 1 .009-.177l.007-.039q.03-.265.104-.516l1.082-5.421A2.02 2.02 0 0 1 6.187 4.5h1.678a.6.6 0 1 1 0 1.2zm-1.98 6.541a1.889 1.889 0 1 0 .08-.399zm11.5-.413a1.89 1.89 0 1 0 .086.428z" clip-rule="evenodd"/></svg>