<svg xmlns="http://www.w3.org/2000/svg" width="20" height="20" fill="none" class="persona-icon" viewBox="0 0 20 20"><path fill="currentColor" fill-rule="evenodd" d="M6.187 5.7a.822.822 0 0 0-.806.661l-.654 3.277a3.084 3.084 0 0 1 3.865.965 2.019 2.019 0 0 1 2.814 0 3.085 3.085 0 0 1 3.864-.966l-.654-3.276a.822.822 0 0 0-.806-.661h-1.678a.6.6 0 1 1 0-1.2h1.678c.964 0 1.794.68 1.983 1.626l1.079 5.403c.053.178.09.363.11.553l.004.02c.011.055.014.11.01.164a3.089 3.089 0 1 1-6.165-.096.605.605 0 0 1-.01-.114.822.822 0 1 0-1.644 0 .604.604 0 0 1-.01.109 3.089 3.089 0 1 1-6.165.114.598.598 0 0 1 .009-.177l.007-.039c.02-.177.055-.349.104-.516l1.082-5.421A2.022 2.022 0 0 1 6.187 4.5h1.678a.6.6 0 1 1 0 1.2H6.187Zm-1.98 6.541a1.889 1.889 0 1 0 .08-.399l-.08.399Zm11.5-.413a1.89 1.89 0 1 0 .086.428l-.085-.428Z" clip-rule="evenodd"/></svg>