<svg xmlns="http://www.w3.org/2000/svg" width="32" height="32" fill="none" class="persona-icon" viewBox="0 0 32 32"><path fill="currentColor" fill-rule="evenodd" d="M9.441 8.75c-.686 0-1.278.483-1.415 1.156L6.94 15.24a5.26 5.26 0 0 1 2.338-.545c1.774 0 3.343.876 4.3 2.218a3.444 3.444 0 0 1 4.844 0 5.27 5.27 0 0 1 4.3-2.217c.84 0 1.634.196 2.339.544l-1.087-5.333A1.444 1.444 0 0 0 22.56 8.75h-2.892a1 1 0 1 1 0-2h2.892a3.445 3.445 0 0 1 3.375 2.757l1.785 8.76q.215.629.267 1.314.02.12.012.24l.002.151a5.278 5.278 0 1 1-10.538-.427 1 1 0 0 1-.017-.184 1.444 1.444 0 1 0-2.89 0q0 .095-.016.185.017.21.017.426a5.278 5.278 0 1 1-10.554-.152 1 1 0 0 1 .012-.238q.052-.687.268-1.315l1.784-8.76A3.445 3.445 0 0 1 9.441 6.75h2.893a1 1 0 1 1 0 2zM6.003 19.837 6 19.973a3.278 3.278 0 1 0 .212-1.162zm19.785-1.026a3.279 3.279 0 1 0 .21 1.026z" clip-rule="evenodd"/></svg>