<svg xmlns="http://www.w3.org/2000/svg" width="16" height="16" fill="none"><path fill="currentColor" d="M11.43 3.858h-1.083v1.036h1.084V3.858ZM10.347 5.899h1.084v1.035h-1.084V5.9ZM11.43 7.94h-1.083v1.035h1.084V7.939ZM8.18 3.858h1.084v1.036H8.18V3.858ZM9.264 5.899H8.18v1.035h1.083V5.9ZM8.18 7.94h1.084v1.035H8.18V7.939Z"/><path fill="currentColor" d="M13.056 2c.276 0 .5.214.5.478v10.566h.944c.276 0 .5.214.5.478a.49.49 0 0 1-.5.478h-13a.49.49 0 0 1-.5-.478.49.49 0 0 1 .5-.478h.944V6.62a.49.49 0 0 1 .5-.478h3.112V2.478a.49.49 0 0 1 .5-.478h6.5ZM3.444 7.097v5.947h2.612V7.097H3.444Zm3.612 5.947h1.166v-2.283a.49.49 0 0 1 .5-.478h2.167c.276 0 .5.214.5.478v2.283h1.167V2.956h-5.5v10.088Zm2.166 0V11.24h1.167v1.805H9.222Z"/></svg>