<svg xmlns="http://www.w3.org/2000/svg" width="16" height="16" fill="none" class="persona-icon" viewBox="0 0 16 16"><path fill="currentColor" d="M11.43 3.859h-1.083v1.035h1.084zM10.347 5.899h1.084v1.035h-1.084zM11.43 7.94h-1.083v1.035h1.084zM8.18 3.859h1.084v1.035H8.18zM9.264 5.899H8.18v1.035h1.083zM8.18 7.94h1.084v1.035H8.18z"/><path fill="currentColor" fill-rule="evenodd" d="M13.056 2c.276 0 .5.214.5.478v10.566h.944c.276 0 .5.214.5.478a.49.49 0 0 1-.5.478h-13a.49.49 0 0 1-.5-.478.49.49 0 0 1 .5-.478h.944V6.62a.49.49 0 0 1 .5-.478h3.112V2.478a.49.49 0 0 1 .5-.478zM3.444 7.097v5.947h2.612V7.097zm3.612 5.947h1.166v-2.283a.49.49 0 0 1 .5-.478h2.167c.276 0 .5.214.5.478v2.283h1.167V2.956h-5.5zm2.166 0h1.167V11.24H9.222z" clip-rule="evenodd"/></svg>