<svg xmlns="http://www.w3.org/2000/svg" width="16" height="16" fill="none" class="persona-icon" viewBox="0 0 16 16"><path fill="currentColor" d="M10.597 4.333v.917h-.916v-.917zM9.68 6.167h.917v.916h-.916zM10.597 8v.917h-.916V8zM7.847 4.333h.917v.917h-.917zM8.764 6.167v.916h-.917v-.916zM7.847 8h.917v.917h-.917z"/><path fill="currentColor" fill-rule="evenodd" d="M12.278 2a.5.5 0 0 1 .5.5V13h.722a.5.5 0 0 1 0 1h-11a.5.5 0 0 1 0-1h.722V7.389a.5.5 0 0 1 .5-.5h1.945V2.5a.5.5 0 0 1 .5-.5zM4.222 13h1.445V7.889H4.222zm3.584 0v-2.556a.5.5 0 0 1 .5-.5h1.833a.5.5 0 0 1 .5.5V13h1.139V3H6.667v10zm1 0h.833v-2.056h-.833z" clip-rule="evenodd"/></svg>