<svg xmlns="http://www.w3.org/2000/svg" width="20" height="20" fill="none" class="persona-icon" viewBox="0 0 20 20"><path fill="currentColor" d="M13.022 5.733h-1.066V6.8h1.066zM11.956 7.867h1.066v1.066h-1.066zM13.022 10h-1.066v1.067h1.066zM9.822 5.733h1.067V6.8H9.822zM10.889 7.867H9.822v1.066h1.067zM9.822 10h1.067v1.067H9.822z"/><path fill="currentColor" fill-rule="evenodd" d="M14.978 2.975c.345 0 .625.28.625.625v12.175h.797a.625.625 0 1 1 0 1.25H3.6a.625.625 0 1 1 0-1.25h.797V9.289c0-.345.28-.625.625-.625h2.22V3.6c0-.345.28-.625.625-.625zm-9.33 12.8h1.594V9.914H5.647zm4.083 0v-2.93c0-.346.28-.626.625-.626h2.133c.345 0 .625.28.625.625v2.93h1.239V4.225H8.492v11.551zm1.25 0h.883v-2.306h-.883z" clip-rule="evenodd"/></svg>