<svg xmlns="http://www.w3.org/2000/svg" width="20" height="20" fill="none" class="persona-icon" viewBox="0 0 20 20"><path fill="currentColor" d="M13.91 4.84h-1.235v1.29h1.234V4.84M12.675 7.382h1.234v1.29h-1.234v-1.29M13.91 9.924h-1.235v1.29h1.234v-1.29M10.206 4.84h1.234v1.29h-1.234V4.84M11.44 7.382h-1.234v1.29h1.234v-1.29M10.206 9.924h1.234v1.29h-1.234v-1.29"/><path fill="currentColor" fill-rule="evenodd" d="M15.761 2.5c.328 0 .593.277.593.62v13.142h1.053c.328 0 .593.277.593.619 0 .342-.265.619-.593.619H2.593A.606.606 0 0 1 2 16.88c0-.341.265-.618.593-.618h1.053V8.28c0-.342.265-.62.593-.62H7.76V3.12c0-.343.266-.62.593-.62h7.407M4.831 16.261h2.93V8.9h-2.93v7.362Zm4.116 0h1.284v-2.82c0-.343.265-.62.592-.62h2.47c.327 0 .592.277.592.62v2.82h1.284V3.74H8.947V16.26m3.753 0V14.06h-1.284v2.201H12.7" clip-rule="evenodd"/></svg>