<svg xmlns="http://www.w3.org/2000/svg" width="24" height="24" fill="none" class="persona-icon"><path fill="currentColor" d="M16.872 5.829h-1.539V7.37h1.539V5.83ZM15.333 8.869h1.539v1.543h-1.539V8.869ZM16.872 11.91h-1.539v1.543h1.539V11.91ZM12.256 5.829h1.539V7.37h-1.539V5.83ZM13.795 8.869h-1.539v1.543h1.539V8.869ZM12.256 11.91h1.539v1.543h-1.539V11.91Z"/><path fill="currentColor" d="M19.18 3a.77.77 0 0 1 .769.771v15.686h1.282a.77.77 0 0 1 0 1.543H2.769a.77.77 0 0 1 0-1.543h1.282V9.943a.77.77 0 0 1 .77-.772H9.18v-5.4A.77.77 0 0 1 9.949 3h9.23ZM5.59 10.714v8.743h3.59v-8.743H5.59Zm6.666 8.743v-3.343a.77.77 0 0 1 .77-.771h3.077a.77.77 0 0 1 .769.771v3.343h1.538V4.543h-7.692v14.914h1.538Zm3.077 0v-2.571h-1.538v2.571h1.538Z"/></svg>