<svg xmlns="http://www.w3.org/2000/svg" width="32" height="32" fill="none"><path fill="#000" d="M22.863 7.374h-2.166v2.157h2.166V7.374ZM20.697 11.625h2.166v2.157h-2.166v-2.157ZM22.863 15.876h-2.166v2.157h2.166v-2.157ZM16.363 7.374h2.167v2.157h-2.167V7.374ZM18.53 11.625h-2.167v2.157h2.167v-2.157ZM16.363 15.876h2.167v2.157h-2.167v-2.157Z"/><path fill="#000" fill-rule="evenodd" d="M26.113 3.502c.553 0 1 .446 1 .996V26.51h1.89c.552 0 1 .446 1 .996s-.448.995-1 .995h-26c-.553 0-1-.445-1-.995s.447-.996 1-.996H4.89V13.126c0-.55.448-.995 1-.995h6.222V4.498c0-.55.448-.996 1-.996h13Zm-12 23.009h2.334v-4.756c0-.55.447-.996 1-.996h4.333c.552 0 1 .446 1 .995v4.757h2.333V5.493h-11v21.018Zm4.334 0h2.333v-3.76h-2.333v3.76Zm-11.556 0h5.222v-12.39H6.891v12.39Z" clip-rule="evenodd"/></svg>