<svg xmlns="http://www.w3.org/2000/svg" width="32" height="32" fill="none" class="persona-icon" viewBox="0 0 32 32"><path fill="currentColor" d="M21.194 8.667V10.5h-1.833V8.667zM19.361 12.333h1.833v1.834h-1.833zM21.194 16v1.833h-1.833V16zM15.695 8.667h1.833V10.5h-1.833zM17.528 12.333v1.834h-1.833v-1.834zM15.695 16h1.833v1.833h-1.833z"/><path fill="currentColor" fill-rule="evenodd" d="M24.556 4a1 1 0 0 1 1 1v21H27a1 1 0 1 1 0 2H5a1 1 0 1 1 0-2h1.444V14.778a1 1 0 0 1 1-1h3.89V5a1 1 0 0 1 1-1zM13.333 6v20h2.278v-5.111a1 1 0 0 1 1-1h3.667a1 1 0 0 1 1 1V26h2.278V6zm-2 9.778H8.444V26h2.89zM19.278 26v-4.111H17.61V26z" clip-rule="evenodd"/></svg>