<svg xmlns="http://www.w3.org/2000/svg" width="16" height="16" fill="none" class="persona-icon" viewBox="0 0 16 16"><path fill="currentColor" fill-rule="evenodd" d="M4.147 2.667h7.706c1.186 0 2.147.96 2.147 2.146v3.854H8.668v4.666H4.147A2.147 2.147 0 0 1 2 11.187V4.813c0-1.185.961-2.146 2.147-2.146m3.672 5.448a.3.3 0 0 0 .349 0l4.811-3.52a1.15 1.15 0 0 0-1.126-.928H4.147c-.559 0-1.024.4-1.126.928z" clip-rule="evenodd"/><path fill="currentColor" d="M9.868 12.14a.5.5 0 1 1 .664-.747l.818.727V10a.5.5 0 0 1 1 0v2.12l.818-.727a.5.5 0 1 1 .664.747l-1.65 1.467a.5.5 0 0 1-.664 0z"/></svg>