<svg xmlns="http://www.w3.org/2000/svg" width="16" height="16" fill="none" class="persona-icon" viewBox="0 0 16 16"><path fill="currentColor" fill-rule="evenodd" d="M4.147 2.667A2.147 2.147 0 0 0 2 4.813v6.374c0 1.185.961 2.146 2.147 2.146h4.521V8.667H14V4.813a2.147 2.147 0 0 0-2.147-2.146zm3.672 5.448-4.798-3.52a1.15 1.15 0 0 1 1.126-.928h7.706c.559 0 1.024.4 1.126.928l-4.811 3.52a.3.3 0 0 1-.349 0" clip-rule="evenodd"/><path fill="currentColor" d="M9.868 12.14a.5.5 0 1 1 .664-.747l.818.727V10a.5.5 0 0 1 1 0v2.12l.818-.727a.5.5 0 1 1 .664.747l-1.65 1.467a.5.5 0 0 1-.664 0z"/></svg>