<svg xmlns="http://www.w3.org/2000/svg" width="20" height="20" fill="none" class="persona-icon" viewBox="0 0 20 20"><path fill="currentColor" fill-rule="evenodd" d="M5.516 3.75h8.968a2.54 2.54 0 0 1 2.541 2.542v4.484h-6.248v5.473h-5.26a2.54 2.54 0 0 1-2.542-2.54V6.291A2.54 2.54 0 0 1 5.516 3.75m4.299 6.348a.31.31 0 0 0 .355 0l5.576-4.079a1.29 1.29 0 0 0-1.262-1.018H5.516c-.62 0-1.137.436-1.262 1.018z" clip-rule="evenodd"/><path fill="currentColor" d="M12.145 14.85a.625.625 0 1 1 .83-.934l.88.782v-2.37a.625.625 0 0 1 1.25 0v2.37l.88-.782a.625.625 0 1 1 .83.934l-1.92 1.707a.625.625 0 0 1-.83 0z"/></svg>