<svg xmlns="http://www.w3.org/2000/svg" width="32" height="32" fill="none" class="persona-icon" viewBox="0 0 32 32"><path fill="currentColor" fill-rule="evenodd" d="M8.293 5.333h15.414A4.293 4.293 0 0 1 28 9.627v7.706H17.336v9.334H8.293A4.293 4.293 0 0 1 4 22.373V9.627a4.293 4.293 0 0 1 4.293-4.294M25.958 9.19a2.294 2.294 0 0 0-2.251-1.857H8.293c-1.117 0-2.048.8-2.251 1.857l9.597 7.039c.21.148.486.148.696 0z" clip-rule="evenodd"/><path fill="currentColor" d="M19.735 24.28a1 1 0 1 1 1.33-1.494L22.7 24.24V20a1 1 0 1 1 2 0v4.24l1.635-1.454a1 1 0 0 1 1.33 1.495l-3.3 2.933a1 1 0 0 1-1.33 0z"/></svg>