<svg xmlns="http://www.w3.org/2000/svg" width="20" height="20" fill="none" class="persona-icon" viewBox="0 0 20 20"><path fill="currentColor" d="M3.001 5.733A2.733 2.733 0 0 1 5.735 3h8.533A2.733 2.733 0 0 1 17 5.733v.712a.6.6 0 0 1-1.2 0v-.712c0-.846-.686-1.533-1.533-1.533H5.734c-.846 0-1.533.687-1.533 1.533v8.534c0 .847.687 1.533 1.534 1.533h.71a.6.6 0 1 1 0 1.2h-.71A2.733 2.733 0 0 1 3 14.267z"/><path fill="currentColor" fill-rule="evenodd" d="M7.074 11.552a4.479 4.479 0 1 1 8.042 2.714l1.71 1.71a.6.6 0 1 1-.85.848l-1.709-1.71a4.479 4.479 0 0 1-7.193-3.563m4.479-3.28a3.279 3.279 0 1 0 0 6.558 3.279 3.279 0 0 0 0-6.557" clip-rule="evenodd"/></svg>