<svg xmlns="http://www.w3.org/2000/svg" width="32" height="32" fill="none" class="persona-icon" viewBox="0 0 32 32"><path fill="currentColor" fill-rule="evenodd" d="M4 8.667A4.667 4.667 0 0 1 8.667 4h14.666A4.667 4.667 0 0 1 28 8.667v1.222a1 1 0 1 1-2 0V8.667A2.667 2.667 0 0 0 23.333 6H8.667A2.667 2.667 0 0 0 6 8.667v14.666A2.667 2.667 0 0 0 8.667 26h1.222a1 1 0 1 1 0 2H8.667A4.667 4.667 0 0 1 4 23.333zm7 10a7.667 7.667 0 1 1 13.749 4.668l2.958 2.958a1 1 0 0 1-1.414 1.414l-2.958-2.958A7.667 7.667 0 0 1 11 18.667M18.667 13a5.667 5.667 0 1 0 0 11.333 5.667 5.667 0 0 0 0-11.333" clip-rule="evenodd"/></svg>