<svg xmlns="http://www.w3.org/2000/svg" width="24" height="24" fill="none"><path fill="#000" fill-rule="evenodd" d="m13.417 4.416.006-.006 1.011-1.011c.584-.584 1.49-1.203 2.594-1.361 1.15-.164 2.402.189 3.573 1.36 1.172 1.172 1.525 2.424 1.361 3.574-.158 1.103-.776 2.01-1.36 2.594l-1.012 1.011-.006.006-.006.006L8.391 21.776a.763.763 0 0 1-.54.224H2.763A.763.763 0 0 1 2 21.237v-5.088c0-.202.08-.397.224-.54L13.41 4.423l.007-.007Zm3.827-.867c-.677.097-1.297.495-1.73.929l-.478.478 4.008 4.008.478-.478c.434-.433.832-1.053.929-1.73.09-.631-.065-1.414-.929-2.278-.863-.864-1.646-1.02-2.278-.929Zm-9.71 16.925 10.43-10.43-4.008-4.009-10.43 10.43v4.009h4.009Z" clip-rule="evenodd"/><path fill="#000" d="M12.939 20.474a.763.763 0 0 0 0 1.526h8.14a.763.763 0 1 0 0-1.526h-8.14Z"/></svg>