<svg xmlns="http://www.w3.org/2000/svg" width="32" height="32" fill="none"><path fill="#000" fill-rule="evenodd" d="m10.868 29.707 15.484-15.484.76-.76.941-.942c.815-.814 1.675-2.076 1.894-3.608.228-1.593-.26-3.332-1.894-4.966-1.634-1.634-3.373-2.122-4.966-1.894-1.532.219-2.794 1.079-3.609 1.894L2.293 21.132A1 1 0 0 0 2 21.84V29a1 1 0 0 0 1 1h7.16a1 1 0 0 0 .708-.293ZM23.37 4.033c-.973.139-1.86.71-2.477 1.328l-.615.614 5.747 5.747.614-.615c.617-.617 1.19-1.504 1.328-2.477.13-.914-.098-2.039-1.328-3.269s-2.355-1.459-3.269-1.328ZM4 22.253 18.864 7.39l5.746 5.747L9.746 28H4v-5.746Z" clip-rule="evenodd"/><path fill="#000" d="M17.543 28a1 1 0 1 0 0 2H29a1 1 0 1 0 0-2H17.543Z"/></svg>