<svg xmlns="http://www.w3.org/2000/svg" width="16" height="16" fill="none" class="persona-icon" viewBox="0 0 16 16"><path fill="currentColor" fill-rule="evenodd" d="M3.534 10.05a3.95 3.95 0 0 1 3.002-1.383h2.599c1.155 0 2.252.505 3.001 1.384.344.402.533.914.533 1.443v.173A2.333 2.333 0 0 1 10.335 14h-5a2.333 2.333 0 0 1-2.333-2.333v-.173c0-.529.189-1.04.532-1.443m3.002-.383c-.862 0-1.681.377-2.241 1.033a1.22 1.22 0 0 0-.293.794v.173c0 .736.597 1.333 1.333 1.333h5c.737 0 1.334-.597 1.334-1.333v-.173c0-.29-.104-.572-.293-.794a2.95 2.95 0 0 0-2.241-1.033zM4.89 4.944a2.944 2.944 0 1 1 5.889 0 2.944 2.944 0 0 1-5.889 0M7.835 3a1.944 1.944 0 1 0 0 3.889 1.944 1.944 0 0 0 0-3.889m3.659 4.796a.5.5 0 0 1 .456-.296h2.548a.5.5 0 1 1 0 1h-1.432l.276.31a.5.5 0 1 1-.746.666l-1.019-1.143a.5.5 0 0 1-.083-.538m1.652-3.027a.5.5 0 0 1 .706.04l1.02 1.144a.5.5 0 0 1-.374.833H11.95a.5.5 0 1 1 0-1h1.432l-.276-.31a.5.5 0 0 1 .04-.707" clip-rule="evenodd"/></svg>