<svg xmlns="http://www.w3.org/2000/svg" width="16" height="16" fill="none" class="persona-icon" viewBox="0 0 16 16"><path fill="currentColor" fill-rule="evenodd" d="M3.2 10.05a3.95 3.95 0 0 1 3.002-1.383h2.6c1.154 0 2.251.505 3 1.384.344.402.533.914.533 1.443v.173A2.333 2.333 0 0 1 10.002 14h-5a2.333 2.333 0 0 1-2.333-2.333v-.173c0-.529.188-1.04.532-1.443m1.357-5.106a2.944 2.944 0 1 1 5.89 0 2.944 2.944 0 0 1-5.89 0m6.42 2.851a.5.5 0 0 1 .456-.295h2.738a.5.5 0 1 1 0 1h-1.622l.352.395a.5.5 0 1 1-.746.666L11.06 8.333a.5.5 0 0 1-.083-.538m1.766-3.238a.5.5 0 0 1 .706.04l1.095 1.228a.5.5 0 0 1-.373.833h-2.738a.5.5 0 1 1 0-1h1.622l-.352-.395a.5.5 0 0 1 .04-.706m-6.54 5.11c-.863 0-1.682.377-2.242 1.033a1.22 1.22 0 0 0-.292.794v.173c0 .736.596 1.333 1.333 1.333h5c.736 0 1.333-.597 1.333-1.333v-.173c0-.291-.104-.573-.293-.794a2.95 2.95 0 0 0-2.24-1.033zM7.501 3a1.944 1.944 0 1 0 0 3.889 1.944 1.944 0 0 0 0-3.889" clip-rule="evenodd"/></svg>