<svg xmlns="http://www.w3.org/2000/svg" width="20" height="20" fill="none" class="persona-icon" viewBox="0 0 20 20"><path fill="currentColor" fill-rule="evenodd" d="M4.636 12.359a4.64 4.64 0 0 1 3.525-1.626h3.025c1.356 0 2.644.594 3.525 1.625a2.63 2.63 0 0 1 .63 1.708v.2a2.76 2.76 0 0 1-2.759 2.76H6.764a2.76 2.76 0 0 1-2.758-2.76v-.2c0-.626.223-1.231.63-1.708l.47.401zm3.525-.376c-.99 0-1.931.434-2.575 1.187a1.38 1.38 0 0 0-.33.896v.2c0 .834.675 1.51 1.508 1.51h5.818c.833 0 1.509-.676 1.509-1.51v-.2a1.38 1.38 0 0 0-.33-.896 3.39 3.39 0 0 0-2.575-1.187zM6.204 6.444a3.47 3.47 0 1 1 6.939 0 3.47 3.47 0 0 1-6.94 0m3.47-2.219a2.22 2.22 0 1 0 0 4.439 2.22 2.22 0 0 0 0-4.439m4.006 5.52c.1-.225.324-.37.57-.37h3.184a.625.625 0 1 1 0 1.25h-1.79l.346.388a.625.625 0 0 1-.933.832l-1.274-1.429a.63.63 0 0 1-.103-.671m2.065-3.783a.625.625 0 0 1 .882.05l1.274 1.43a.625.625 0 0 1-.467 1.04H14.25a.625.625 0 1 1 0-1.25h1.79l-.346-.388a.625.625 0 0 1 .05-.882" clip-rule="evenodd"/></svg>