<svg xmlns="http://www.w3.org/2000/svg" width="16" height="16" fill="none" class="persona-icon" viewBox="0 0 16 16"><path fill="currentColor" fill-rule="evenodd" d="M4.522 6.607A3.87 3.87 0 0 1 8.306 3.5c2.135 0 3.86 1.742 3.86 3.885q0 .239-.027.47A2.344 2.344 0 0 1 14 10.155a2.34 2.34 0 0 1-2.333 2.346H4.945A2.953 2.953 0 0 1 2 9.538a2.96 2.96 0 0 1 2.522-2.931M8.306 4.5a2.87 2.87 0 0 0-2.85 2.621.5.5 0 0 1-.5.456h-.012C3.874 7.577 3 8.452 3 9.538S3.874 11.5 4.944 11.5h6.723c.733 0 1.333-.6 1.333-1.346a1.34 1.34 0 0 0-1.427-1.343.5.5 0 0 1-.515-.635c.07-.25.109-.516.109-.791 0-1.597-1.285-2.885-2.861-2.885" clip-rule="evenodd"/></svg>