<svg xmlns="http://www.w3.org/2000/svg" width="24" height="24" fill="none" class="persona-icon" viewBox="0 0 24 24"><path fill="currentColor" fill-rule="evenodd" d="M6.222 9.716C6.8 6.743 9.396 4.5 12.512 4.5c3.541 0 6.411 2.895 6.411 6.466q0 .428-.054.842A3.87 3.87 0 0 1 22 15.621c0 2.142-1.722 3.879-3.846 3.879H6.872C4.182 19.5 2 17.3 2 14.586c0-2.492 1.839-4.55 4.222-4.87m6.29-3.664c-2.54 0-4.627 1.962-4.851 4.466a.77.77 0 0 1-.768.706h-.021c-1.841 0-3.333 1.505-3.333 3.362s1.492 3.362 3.333 3.362h11.282a2.32 2.32 0 0 0 2.308-2.327 2.32 2.32 0 0 0-2.47-2.322.77.77 0 0 1-.65-.286.78.78 0 0 1-.142-.7c.12-.428.185-.88.185-1.348 0-2.713-2.182-4.913-4.872-4.913" clip-rule="evenodd"/></svg>