<svg xmlns="http://www.w3.org/2000/svg" width="24" height="24" fill="none" class="persona-icon" viewBox="0 0 24 24"><path fill="currentColor" fill-rule="evenodd" d="M6.507 9.85C7.065 7.079 9.535 5 12.487 5c3.359 0 6.096 2.696 6.096 6.038q0 .385-.047.76c1.684.324 2.964 1.792 2.964 3.567C21.5 17.38 19.85 19 17.833 19H7.14C4.585 19 2.5 16.95 2.5 14.404c0-2.333 1.75-4.249 4.007-4.554m5.98-3.35c-2.406 0-4.37 1.82-4.58 4.126a.75.75 0 0 1-.748.682h-.02C5.397 11.308 4 12.702 4 14.404S5.398 17.5 7.139 17.5h10.694c1.205 0 2.167-.964 2.167-2.135s-.962-2.134-2.167-2.134q-.076 0-.152.005a.75.75 0 0 1-.772-.956q.172-.593.174-1.242c0-2.498-2.05-4.538-4.597-4.538" clip-rule="evenodd"/></svg>