<svg xmlns="http://www.w3.org/2000/svg" width="24" height="24" fill="none"><path fill="currentColor" d="M6.222 9.716C6.8 6.743 9.396 4.5 12.512 4.5c3.541 0 6.411 2.895 6.411 6.466 0 .285-.018.566-.054.842A3.872 3.872 0 0 1 22 15.621c0 2.142-1.722 3.879-3.846 3.879H6.872C4.182 19.5 2 17.3 2 14.586c0-2.492 1.839-4.55 4.222-4.87Zm6.29-3.664c-2.54 0-4.627 1.962-4.851 4.466a.772.772 0 0 1-.768.706h-.021c-1.841 0-3.333 1.505-3.333 3.362 0 1.857 1.492 3.362 3.333 3.362h11.282a2.318 2.318 0 0 0 2.308-2.327 2.318 2.318 0 0 0-2.47-2.322.766.766 0 0 1-.65-.286.781.781 0 0 1-.142-.7c.12-.428.185-.88.185-1.348 0-2.713-2.182-4.913-4.872-4.913Z"/></svg>