<svg xmlns="http://www.w3.org/2000/svg" width="32" height="32" fill="none"><path fill="#000" fill-rule="evenodd" d="M7.936 12.854c.782-4.186 4.42-7.352 8.788-7.352 4.94 0 8.945 4.048 8.945 9.04 0 .427-.03.847-.086 1.258 2.51.438 4.42 2.65 4.42 5.312 0 2.977-2.389 5.39-5.334 5.39H8.78c-3.743 0-6.778-3.067-6.778-6.85 0-3.494 2.589-6.378 5.934-6.798Zm8.788-5.33c-3.622 0-6.597 2.803-6.916 6.38-.046.521-.48.92-.998.92h-.031c-2.638 0-4.777 2.162-4.777 4.828 0 2.667 2.14 4.829 4.778 4.829h15.889c1.84 0 3.333-1.508 3.333-3.37 0-1.86-1.492-3.368-3.333-3.368-.079 0-.157.003-.233.008a.995.995 0 0 1-.846-.372 1.019 1.019 0 0 1-.185-.913c.172-.61.264-1.255.264-1.924 0-3.876-3.11-7.018-6.945-7.018Z" clip-rule="evenodd"/></svg>