<svg xmlns="http://www.w3.org/2000/svg" width="16" height="16" fill="none" class="persona-icon" viewBox="0 0 16 16"><path fill="currentColor" fill-rule="evenodd" d="M11.056 2.002c.749-.124 1.5.11 2.165.777.666.666.901 1.416.777 2.165-.12.716-.555 1.36-1.081 1.887l-6.993 6.993a.5.5 0 0 1-.354.146H2.53a.5.5 0 0 1-.5-.5v-3.04a.5.5 0 0 1 .146-.354l6.993-6.993c.526-.526 1.17-.962 1.887-1.08M3.03 10.637v2.333h2.333l3.35-3.35L6.38 7.287z" clip-rule="evenodd"/><path fill="currentColor" d="M8.307 12.97h3.952a.5.5 0 0 1 0 1H8.308a.5.5 0 1 1 0-1"/></svg>