<svg xmlns="http://www.w3.org/2000/svg" width="16" height="16" fill="none" class="persona-icon" viewBox="0 0 16 16"><path fill="currentColor" fill-rule="evenodd" d="m8.92 3.07.005-.004.657-.657c.38-.38.969-.782 1.686-.884.747-.107 1.561.122 2.323.884.761.762.991 1.576.884 2.323-.102.717-.504 1.306-.884 1.686l-.658.657-.003.004-.004.004-7.272 7.272a.496.496 0 0 1-.35.145H1.995a.496.496 0 0 1-.496-.496v-3.307c0-.132.052-.258.145-.35l7.272-7.272.004-.005ZM5.099 13.508l3.68-3.68-2.606-2.606-3.68 3.68v2.606h2.606Z" clip-rule="evenodd"/><path fill="currentColor" d="M8.61 13.508a.496.496 0 0 0 0 .992h5.292a.496.496 0 0 0 0-.992H8.61Z"/></svg>