<svg xmlns="http://www.w3.org/2000/svg" width="24" height="24" fill="none" class="persona-icon" viewBox="0 0 24 24"><path fill="currentColor" fill-rule="evenodd" d="M16.584 3.003c1.123-.186 2.249.166 3.248 1.165.998 1 1.351 2.125 1.165 3.248-.179 1.075-.832 2.04-1.622 2.83l-10.49 10.49a.75.75 0 0 1-.53.22h-4.56a.75.75 0 0 1-.75-.75v-4.561a.75.75 0 0 1 .219-.53l10.49-10.49c.79-.79 1.755-1.443 2.83-1.622M4.544 15.955v3.5h3.5l5.026-5.025-3.5-3.5z" clip-rule="evenodd"/><path fill="currentColor" d="M12.46 19.456a.75.75 0 0 0 0 1.5h5.93a.75.75 0 0 0 0-1.5z"/></svg>