<svg xmlns="http://www.w3.org/2000/svg" width="16" height="16" fill="none" class="persona-icon" viewBox="0 0 16 16"><path fill="currentColor" fill-rule="evenodd" d="M8 2a1.722 1.722 0 0 1 .5 3.37V6.89h1.185c.619 0 1.212.246 1.65.683l.76.76c.437.437.683 1.03.683 1.65v.647a1.723 1.723 0 1 1-1 0v-.647c0-.354-.14-.693-.39-.943l-.76-.76c-.25-.25-.59-.39-.943-.39H8.5v2.74a1.723 1.723 0 1 1-1 0V7.89H6.315c-.354 0-.693.14-.943.39l-.76.76c-.25.25-.39.589-.39.943v.647a1.723 1.723 0 1 1-1 0v-.647c0-.62.246-1.213.684-1.65l.759-.76a2.33 2.33 0 0 1 1.65-.683H7.5V5.37A1.723 1.723 0 0 1 8 2m-4.277 9.556H3.72a.722.722 0 1 0 .002 0m3.555-7.834a.722.722 0 1 0 1.444 0 .722.722 0 0 0-1.444 0M8 11.556zh-.001a.722.722 0 1 0 .002 0m4.278 0h-.002a.722.722 0 1 0 .002 0" clip-rule="evenodd"/></svg>