<svg xmlns="http://www.w3.org/2000/svg" width="16" height="16" fill="none"><path fill="currentColor" d="M2 12.278a1.722 1.722 0 1 1 3.444 0 1.722 1.722 0 0 1-3.444 0Zm1.722-.722a.722.722 0 1 0 0 1.444.722.722 0 0 0 0-1.444ZM6.278 12.278a1.722 1.722 0 1 1 3.444 0 1.722 1.722 0 0 1-3.444 0ZM8 11.556A.722.722 0 1 0 8 13a.722.722 0 0 0 0-1.444ZM6.278 3.722a1.722 1.722 0 1 1 3.444 0 1.722 1.722 0 0 1-3.444 0ZM8 3a.722.722 0 1 0 0 1.444A.722.722 0 0 0 8 3ZM10.556 12.278a1.722 1.722 0 1 1 3.444 0 1.722 1.722 0 0 1-3.444 0Zm1.722-.722a.722.722 0 1 0 0 1.444.722.722 0 0 0 0-1.444Z"/><path fill="currentColor" d="M8 4.444a.5.5 0 0 1 .5.5V6.89h1.185c.619 0 1.212.246 1.65.683l.76.76c.437.437.683 1.03.683 1.65v1.074a.5.5 0 0 1-1 0V9.982c0-.354-.14-.693-.39-.943l-.76-.76c-.25-.25-.59-.39-.943-.39H8.5v3.167a.5.5 0 0 1-1 0V7.889H6.315c-.354 0-.693.14-.943.39l-.76.76c-.25.25-.39.589-.39.943v1.074a.5.5 0 1 1-1 0V9.982c0-.62.246-1.213.684-1.65l.759-.76a2.333 2.333 0 0 1 1.65-.683H7.5V4.944a.5.5 0 0 1 .5-.5Z"/></svg>