<svg xmlns="http://www.w3.org/2000/svg" width="20" height="20" fill="none" class="persona-icon" viewBox="0 0 20 20"><path fill="currentColor" fill-rule="evenodd" d="M10.625 6.972v1.692h1.336c.731 0 1.433.29 1.95.808l.884.883c.517.518.808 1.22.808 1.95v.723a2.048 2.048 0 1 1-1.25 0v-.722c0-.4-.16-.784-.442-1.067l-.884-.883a1.5 1.5 0 0 0-1.066-.442h-1.336v3.114a2.048 2.048 0 1 1-1.25 0V9.914H8.039c-.4 0-.784.159-1.066.442l-.884.883a1.5 1.5 0 0 0-.442 1.067v.722a2.048 2.048 0 1 1-1.25 0v-.722c0-.732.29-1.433.808-1.95l.884-.884a2.76 2.76 0 0 1 1.95-.808h1.336V6.972a2.048 2.048 0 1 1 1.25 0m-1.422-1.95a.797.797 0 1 0 1.594 0 .797.797 0 0 0-1.594 0m5.774 9.159a.797.797 0 1 0 .001 1.594.797.797 0 0 0-.001-1.594m-4.978 0a.797.797 0 1 0 .002 1.594.797.797 0 0 0-.002-1.594m-4.978 0a.797.797 0 1 0 .002 1.594.797.797 0 0 0-.002-1.594" clip-rule="evenodd"/></svg>