<svg xmlns="http://www.w3.org/2000/svg" width="24" height="24" fill="none" class="persona-icon" viewBox="0 0 24 24"><path fill="currentColor" fill-rule="evenodd" d="M12 3a2.583 2.583 0 0 0-.75 5.056v2.277H9.472a3.5 3.5 0 0 0-2.474 1.025l-1.14 1.14a3.5 3.5 0 0 0-1.025 2.474v.972a2.584 2.584 0 1 0 1.5 0v-.972a2 2 0 0 1 .586-1.414l1.14-1.139a2 2 0 0 1 1.413-.586h1.778v4.11a2.584 2.584 0 1 0 1.5 0v-4.11h1.778a2 2 0 0 1 1.414.586l1.139 1.14a2 2 0 0 1 .586 1.413v.972a2.584 2.584 0 1 0 1.5 0v-.972a3.5 3.5 0 0 0-1.026-2.474l-1.138-1.14a3.5 3.5 0 0 0-2.475-1.025H12.75V8.056A2.584 2.584 0 0 0 12 3M5.583 17.333a1.083 1.083 0 1 1-.001 0zm5.334-11.75a1.083 1.083 0 1 1 2.166 0 1.083 1.083 0 0 1-2.166 0M12 17.333a1.083 1.083 0 1 1-.001 0zm6.417 0a1.083 1.083 0 1 1-.002 0z" clip-rule="evenodd"/></svg>