<svg xmlns="http://www.w3.org/2000/svg" width="24" height="24" fill="none" class="persona-icon" viewBox="0 0 24 24"><path fill="currentColor" fill-rule="evenodd" d="M12 3a2.583 2.583 0 0 1 .75 5.056v2.277h1.778a3.5 3.5 0 0 1 2.475 1.025l1.139 1.14a3.5 3.5 0 0 1 1.025 2.474v.972a2.584 2.584 0 1 1-1.5 0v-.972a2 2 0 0 0-.586-1.414l-1.14-1.139a2 2 0 0 0-1.413-.586H12.75v4.11a2.584 2.584 0 1 1-1.5 0v-4.11H9.472a2 2 0 0 0-1.414.586L6.92 13.56a2 2 0 0 0-.586 1.413v.972a2.584 2.584 0 1 1-1.5 0v-.972a3.5 3.5 0 0 1 1.026-2.474l1.139-1.14a3.5 3.5 0 0 1 2.474-1.025h1.778V8.056A2.584 2.584 0 0 1 12 3m-1.083 2.583a1.083 1.083 0 1 0 2.166 0 1.083 1.083 0 0 0-2.166 0m7.5 11.75h-.002a1.083 1.083 0 1 0 .002 0m-6.417 0h-.001a1.083 1.083 0 1 0 .001 0m-6.417 0h-.001a1.083 1.083 0 1 0 .001 0" clip-rule="evenodd"/></svg>