<svg xmlns="http://www.w3.org/2000/svg" width="32" height="32" fill="none" class="persona-icon" viewBox="0 0 32 32"><path fill="currentColor" fill-rule="evenodd" d="M16 4a3.444 3.444 0 0 1 1 6.742v3.036h2.37c1.238 0 2.425.491 3.3 1.367l1.519 1.518a4.67 4.67 0 0 1 1.367 3.3v1.296a3.446 3.446 0 0 1-1 6.741 3.444 3.444 0 0 1-1-6.741v-1.296c0-.707-.281-1.385-.782-1.885l-1.518-1.52c-.5-.5-1.179-.78-1.886-.78H17v5.48A3.446 3.446 0 0 1 16 28a3.444 3.444 0 0 1-1-6.741v-5.481h-2.37c-.707 0-1.386.28-1.886.78l-1.518 1.52c-.5.5-.782 1.178-.782 1.885v1.296a3.446 3.446 0 0 1-1 6.741 3.444 3.444 0 0 1-1-6.741v-1.296c0-1.238.492-2.425 1.367-3.3l1.52-1.518a4.67 4.67 0 0 1 3.299-1.367H15v-3.036A3.446 3.446 0 0 1 16 4M7.444 23.111h-.002a1.444 1.444 0 1 0 .002 0m7.112-15.667a1.444 1.444 0 1 0 2.888 0 1.444 1.444 0 0 0-2.888 0M16 23.111h-.002a1.444 1.444 0 1 0 .002 0m8.556 0h-.003a1.444 1.444 0 1 0 .003 0" clip-rule="evenodd"/></svg>