<svg xmlns="http://www.w3.org/2000/svg" width="32" height="32" fill="none"><path fill="#000" fill-rule="evenodd" d="M3 4a1 1 0 0 1 1-1c1.979 0 3.65 1.47 3.903 3.431l1.8 13.953A3 3 0 0 0 12.678 23H24a1 1 0 1 1 0 2H12.678a5 5 0 0 1-4.959-4.36L5.92 6.687A1.935 1.935 0 0 0 4 5a1 1 0 0 1-1-1Z" clip-rule="evenodd"/><path fill="#000" fill-rule="evenodd" d="M11.333 25a1 1 0 1 0 0 2 1 1 0 0 0 0-2Zm-3 1a3 3 0 1 1 6 0 3 3 0 0 1-6 0ZM23.333 25a1 1 0 1 0 0 2 1 1 0 0 0 0-2Zm-3 1a3 3 0 1 1 6 0 3 3 0 0 1-6 0ZM7 8a1 1 0 0 1 1-1h20a1 1 0 0 1 .976 1.217l-2.666 12a1 1 0 0 1-.977.783h-16a1 1 0 1 1 0-2h15.198l2.222-10H8a1 1 0 0 1-1-1Z" clip-rule="evenodd"/></svg>