<svg xmlns="http://www.w3.org/2000/svg" width="32" height="32" fill="none"><path fill="#000" d="M20.783 15.374a.989.989 0 0 0 0-1.414 1.028 1.028 0 0 0-1.437 0l-4.7 4.626-1.992-1.96a1.028 1.028 0 0 0-1.437 0 .989.989 0 0 0 0 1.414l2.71 2.667c.396.39 1.04.39 1.437 0l5.419-5.333Z"/><path fill="#000" fill-rule="evenodd" d="M10 4.426C10 3.104 11.057 2 12.4 2h7.2C20.943 2 22 3.104 22 4.426v.121h1.033C25.28 4.547 27 6.465 27 8.701v17.146C27 28.082 25.28 30 23.033 30H8.967C6.72 30 5 28.082 5 25.847V8.7c0-2.236 1.72-4.154 3.967-4.154H10v-.12Zm0 2.121H8.967C7.937 6.547 7 7.453 7 8.701v17.146C7 27.094 7.937 28 8.967 28h14.066c1.03 0 1.967-.906 1.967-2.153V8.7c0-1.248-.937-2.154-1.967-2.154H22v.12c0 1.323-1.057 2.427-2.4 2.427h-7.2c-1.343 0-2.4-1.104-2.4-2.426v-.12ZM12.4 4c-.203 0-.4.173-.4.426v2.242c0 .253.197.426.4.426h7.2c.203 0 .4-.173.4-.426V4.426A.414.414 0 0 0 19.6 4h-7.2Z" clip-rule="evenodd"/></svg>