<svg xmlns="http://www.w3.org/2000/svg" width="16" height="16" fill="none" class="persona-icon" viewBox="0 0 16 16"><path fill="currentColor" d="M13.597 9.863c.287.227.403.564.403.866v2.084c0 .646-.53 1.208-1.218 1.165a11.5 11.5 0 0 1-6.887-2.852 1 1 0 0 1-.152-.162l-2.89 2.89a.5.5 0 0 1-.707-.707l11-11a.5.5 0 0 1 .708.707L8.249 8.458q.066.043.127.094.547.469 1.172.838a.16.16 0 0 0 .155-.003l.355-.189c.17-.09.365-.14.566-.138 1.304.019 2.265.244 2.973.803M6.666 6.546c.287.47.247 1.105-.175 1.517L5.226 9.298a.708.708 0 0 1-1.07-.093 11.5 11.5 0 0 1-2.133-5.987C1.979 2.531 2.54 2 3.186 2h1.944c.449 0 .863.254 1.063.66.215.439.373.787.474 1.159.102.377.139.756.145 1.255.003.197-.045.389-.134.558l-.214.408a.16.16 0 0 0-.005.149q.1.18.206.357"/></svg>