<svg xmlns="http://www.w3.org/2000/svg" width="16" height="16" fill="none" class="persona-icon" viewBox="0 0 16 16"><path fill="currentColor" d="M9.055 7.372a.473.473 0 0 1 .172.87l-.001.001a.5.5 0 0 1-.25.069h-.472v-.473q0-.036-.002-.071a.474.474 0 0 1 .553-.396M7.025 7.366c.244 0 .439.175.473.402l-.001.071v.473h-.472a.474.474 0 1 1 0-.946"/><path fill="currentColor" fill-rule="evenodd" d="M8.004 1.025c2.88 0 5.217 2.204 5.225 5.336v.001c0 1.65-.778 2.965-1.462 3.78l-.118.14c-.17.199-.34.4-.492.612-.189.263-.315.5-.364.706v.001a1 1 0 0 1-.339.567v1.327c0 .451-.238.82-.501 1.061-.257.235-.617.419-.977.419H7.025c-.363 0-.723-.183-.98-.42-.264-.241-.5-.61-.5-1.06v-1.333a1 1 0 0 1-.33-.56l-.001-.002c-.048-.207-.175-.443-.363-.706-.153-.212-.323-.413-.492-.613l-.118-.14c-.692-.822-1.463-2.129-1.463-3.779 0-3.133 2.338-5.337 5.226-5.337M6.72 13.819c.13.119.26.156.305.156h1.95c.041 0 .171-.036.303-.157.126-.115.176-.235.176-.323v-1.103H6.546v1.103c0 .09.05.21.174.324M8.858 6.37A1.48 1.48 0 0 0 8 6.73a1.48 1.48 0 0 0-.975-.365 1.474 1.474 0 1 0 0 2.946h.479v2.08h1v-2.08h.472q.233-.001.446-.068h.001a1.471 1.471 0 0 0-.447-2.878q-.06 0-.118.005" clip-rule="evenodd"/></svg>