<svg xmlns="http://www.w3.org/2000/svg" width="24" height="24" fill="none" class="persona-icon" viewBox="0 0 24 24"><path fill="currentColor" d="M9.963 11.77c0-.348.287-.64.65-.64.33 0 .596.238.644.541l-.002.099v.64h-.641a.646.646 0 0 1-.651-.64M12.763 11.671a.65.65 0 0 1 .643-.541c.364 0 .651.292.651.64s-.287.64-.651.64h-.641v-.64q0-.05-.002-.099"/><path fill="currentColor" fill-rule="evenodd" d="M12.005 2c4.144 0 7.506 3.163 7.495 7.66 0 2.368-1.11 4.253-2.097 5.423l-.17.2c-.24.285-.48.57-.697.872-.267.374-.448.709-.52 1a1.48 1.48 0 0 1-.459.798v1.897c0 .656-.345 1.193-.727 1.542-.373.34-.895.608-1.424.608h-2.792c-.529 0-1.052-.267-1.424-.608-.382-.349-.727-.886-.727-1.542v-1.88c-.25-.206-.404-.492-.48-.818v-.002c-.068-.289-.245-.621-.512-.995a14 14 0 0 0-.737-.912l-.134-.157-.004-.005C5.611 13.905 4.5 12.03 4.5 9.66 4.5 5.163 7.86 2 12.005 2m.75 14.81v-2.9h.65a2.146 2.146 0 0 0 2.152-2.14c0-1.192-.974-2.14-2.151-2.14-.53 0-1.019.192-1.396.512a2.15 2.15 0 0 0-1.396-.512 2.146 2.146 0 0 0-2.151 2.14c0 1.192.974 2.14 2.15 2.14h.642v2.9zm1.302 1.5H9.963v1.54c0 .114.065.277.239.435.182.167.36.215.412.215h2.792c.052 0 .23-.048.412-.215.174-.158.239-.321.239-.435z" clip-rule="evenodd"/></svg>