<svg xmlns="http://www.w3.org/2000/svg" width="32" height="32" fill="none" class="persona-icon" viewBox="0 0 32 32"><path fill="currentColor" d="M18.11 14.745a.945.945 0 0 1 .343 1.74l-.002.002a.97.97 0 0 1-.5.137h-.944v-.946q0-.072-.003-.143a.95.95 0 0 1 1.105-.79zM14.05 14.732a.95.95 0 0 1 .946.803l-.003.143v.946h-.944a.95.95 0 0 1-.957-.946c0-.52.42-.946.957-.946"/><path fill="currentColor" fill-rule="evenodd" d="M16.007 2.05c-5.775 0-10.45 4.407-10.45 10.674 0 3.3 1.54 5.915 2.924 7.56l.236.278c.339.4.68.801.984 1.227.377.526.63.998.727 1.411v.003c.107.45.32.841.664 1.121v2.666c0 .898.469 1.638.996 2.121.515.473 1.235.84 1.961.84h3.902c.721 0 1.44-.37 1.954-.838.527-.481 1.003-1.22 1.003-2.123v-2.654c.352-.281.57-.677.678-1.133V23.2c.097-.413.35-.885.727-1.411.305-.426.645-.827.984-1.227q.12-.14.236-.279c1.369-1.63 2.925-4.258 2.925-7.559v-.002C26.442 6.458 21.769 2.05 16.008 2.05m1.708 10.691h.002q.116-.009.234-.009a2.95 2.95 0 0 1 2.957 2.946 2.94 2.94 0 0 1-2.061 2.81h-.003a3 3 0 0 1-.893.136h-.944v4.16h-2v-4.16h-.958a2.95 2.95 0 0 1-2.957-2.946 2.95 2.95 0 0 1 2.957-2.946c.747 0 1.43.275 1.951.73a2.95 2.95 0 0 1 1.715-.72M13.44 27.638c-.247-.227-.348-.468-.348-.648v-2.206h5.817v2.206c0 .176-.101.416-.353.646-.264.241-.524.314-.605.314h-3.902c-.09 0-.35-.074-.609-.312" clip-rule="evenodd"/></svg>