<svg xmlns="http://www.w3.org/2000/svg" width="16" height="16" fill="none" class="persona-icon" viewBox="0 0 16 16"><path fill="currentColor" fill-rule="evenodd" d="M8.722 3.111C8.722 2.497 9.22 2 9.833 2h3.056C13.503 2 14 2.498 14 3.111v3.056c0 .613-.498 1.11-1.111 1.11H9.833a1.111 1.111 0 0 1-1.11-1.11zM9.833 3a.111.111 0 0 0-.11.111v3.056c0 .061.049.11.11.11h3.056c.061 0 .111-.049.111-.11V3.11A.111.111 0 0 0 12.889 3zM8.722 9.833c0-.613.498-1.11 1.111-1.11h3.056c.614 0 1.111.497 1.111 1.11v3.056c0 .614-.498 1.111-1.111 1.111H9.833a1.111 1.111 0 0 1-1.11-1.111zm1.111-.11a.111.111 0 0 0-.11.11v3.056c0 .061.049.111.11.111h3.056c.061 0 .111-.05.111-.111V9.833a.111.111 0 0 0-.111-.11zM2 9.833c0-.613.498-1.11 1.111-1.11h3.056c.613 0 1.11.497 1.11 1.11v3.056c0 .614-.497 1.111-1.11 1.111H3.11A1.111 1.111 0 0 1 2 12.889zm1.111-.11a.111.111 0 0 0-.111.11v3.056c0 .061.05.111.111.111h3.056c.061 0 .11-.05.11-.111V9.833a.111.111 0 0 0-.11-.11zM2 3.111C2 2.497 2.498 2 3.111 2h3.056c.613 0 1.11.498 1.11 1.111v3.056c0 .613-.497 1.11-1.11 1.11H3.11A1.111 1.111 0 0 1 2 6.168zM3.111 3A.111.111 0 0 0 3 3.111v3.056c0 .061.05.11.111.11h3.056c.061 0 .11-.049.11-.11V3.11A.111.111 0 0 0 6.168 3z" clip-rule="evenodd"/></svg>