<svg xmlns="http://www.w3.org/2000/svg" width="24" height="24" fill="none" class="persona-icon" viewBox="0 0 24 24"><path fill="currentColor" fill-rule="evenodd" d="M3.043 4.667c0-.897.727-1.624 1.624-1.624H9.25c.897 0 1.624.727 1.624 1.624V9.25c0 .897-.727 1.624-1.624 1.624H4.667A1.624 1.624 0 0 1 3.043 9.25zm0 10.083c0-.897.727-1.624 1.624-1.624H9.25c.897 0 1.624.727 1.624 1.624v4.583c0 .897-.727 1.624-1.624 1.624H4.667a1.624 1.624 0 0 1-1.624-1.624zM13.126 4.667c0-.897.727-1.624 1.624-1.624h4.583c.897 0 1.624.727 1.624 1.624V9.25c0 .897-.727 1.624-1.624 1.624H14.75a1.624 1.624 0 0 1-1.624-1.624zm0 10.083c0-.897.727-1.624 1.624-1.624h4.583c.897 0 1.624.727 1.624 1.624v4.583c0 .897-.727 1.624-1.624 1.624H14.75a1.624 1.624 0 0 1-1.624-1.624zM4.666 4.457a.21.21 0 0 0-.209.21V9.25c0 .116.094.21.21.21H9.25a.21.21 0 0 0 .21-.21V4.667a.21.21 0 0 0-.21-.21zm0 10.084a.21.21 0 0 0-.209.209v4.583c0 .116.094.21.21.21H9.25a.21.21 0 0 0 .21-.21V14.75a.21.21 0 0 0-.21-.21zM14.75 4.457a.21.21 0 0 0-.21.21V9.25c0 .116.094.21.21.21h4.583a.21.21 0 0 0 .21-.21V4.667a.21.21 0 0 0-.21-.21zm0 10.084a.21.21 0 0 0-.21.209v4.583c0 .116.094.21.21.21h4.583a.21.21 0 0 0 .21-.21V14.75a.21.21 0 0 0-.21-.21z" clip-rule="evenodd"/></svg>