<svg xmlns="http://www.w3.org/2000/svg" width="32" height="32" fill="none" class="persona-icon" viewBox="0 0 32 32"><path fill="currentColor" fill-rule="evenodd" d="M4 6.222C4 4.995 4.995 4 6.222 4h6.111c1.228 0 2.223.995 2.223 2.222v6.111a2.22 2.22 0 0 1-2.223 2.223h-6.11A2.22 2.22 0 0 1 4 12.333zm13.444 0c0-1.227.995-2.222 2.223-2.222h6.11C27.006 4 28 4.995 28 6.222v6.111a2.22 2.22 0 0 1-2.222 2.223h-6.111a2.22 2.22 0 0 1-2.223-2.223zM4 19.667c0-1.228.995-2.223 2.222-2.223h6.111c1.228 0 2.223.995 2.223 2.223v6.11A2.22 2.22 0 0 1 12.333 28h-6.11A2.22 2.22 0 0 1 4 25.778zm13.444 0c0-1.228.995-2.223 2.223-2.223h6.11c1.228 0 2.223.995 2.223 2.223v6.11A2.22 2.22 0 0 1 25.778 28h-6.111a2.22 2.22 0 0 1-2.223-2.222zM6.222 6C6.1 6 6 6.1 6 6.222v6.111c0 .123.1.223.222.223h6.111c.123 0 .223-.1.223-.223v-6.11c0-.123-.1-.223-.223-.223zm13.445 0c-.123 0-.223.1-.223.222v6.111c0 .123.1.223.223.223h6.11c.123 0 .223-.1.223-.223v-6.11C26 6.1 25.9 6 25.778 6zM6.222 19.444c-.123 0-.222.1-.222.223v6.11c0 .123.1.223.222.223h6.111c.123 0 .223-.1.223-.222v-6.111c0-.123-.1-.223-.223-.223zm13.445 0c-.123 0-.223.1-.223.223v6.11c0 .123.1.223.223.223h6.11c.123 0 .223-.1.223-.222v-6.111c0-.123-.1-.223-.222-.223z" clip-rule="evenodd"/></svg>