<svg xmlns="http://www.w3.org/2000/svg" width="16" height="16" fill="none" class="persona-icon" viewBox="0 0 16 16"><path fill="currentColor" d="M9.16 3a.5.5 0 0 0-.78-.413L4.21 5.431H2.574C1.704 5.431 1 6.136 1 7.005v1.99c0 .87.705 1.574 1.574 1.574H4.21l4.17 2.844A.5.5 0 0 0 9.16 13zM12.098 3.808a.5.5 0 1 0-.37.93 3.66 3.66 0 0 1 1.655 1.305A3.43 3.43 0 0 1 14 7.999c0 .694-.213 1.375-.616 1.956a3.66 3.66 0 0 1-1.653 1.307.5.5 0 1 0 .37.929 4.66 4.66 0 0 0 2.105-1.666A4.43 4.43 0 0 0 15 7.998c0-.9-.278-1.78-.796-2.526a4.66 4.66 0 0 0-2.106-1.664"/><path fill="currentColor" d="M10.774 5.518a.5.5 0 1 0-.25.968c.354.091.663.292.882.566s.335.608.335.948-.117.674-.335.948a1.66 1.66 0 0 1-.882.566.5.5 0 1 0 .25.969 2.65 2.65 0 0 0 1.414-.912c.357-.448.553-1 .553-1.57a2.52 2.52 0 0 0-.553-1.572 2.66 2.66 0 0 0-1.415-.912"/></svg>