<svg xmlns="http://www.w3.org/2000/svg" width="16" height="16" fill="none" class="persona-icon" viewBox="0 0 16 16"><path fill="currentColor" d="M9.16 3v10a.5.5 0 0 1-.78.413l-4.17-2.844H2.574C1.704 10.569 1 9.864 1 8.995v-1.99c0-.87.705-1.574 1.574-1.574H4.21l4.17-2.844A.5.5 0 0 1 9.16 3M12.098 3.808a4.66 4.66 0 0 1 2.106 1.664c.518.746.796 1.625.796 2.526a4.43 4.43 0 0 1-.794 2.527 4.66 4.66 0 0 1-2.104 1.666.5.5 0 1 1-.371-.93 3.66 3.66 0 0 0 1.653-1.306c.403-.58.616-1.262.616-1.956a3.43 3.43 0 0 0-.617-1.956 3.66 3.66 0 0 0-1.655-1.306.5.5 0 0 1 .37-.929"/><path fill="currentColor" d="M10.774 5.518c.559.144 1.057.463 1.414.911.357.449.553 1 .553 1.571a2.52 2.52 0 0 1-.553 1.571 2.65 2.65 0 0 1-1.415.912.5.5 0 1 1-.25-.969c.355-.09.664-.291.883-.566A1.52 1.52 0 0 0 11.74 8c0-.34-.117-.674-.335-.948a1.66 1.66 0 0 0-.882-.566.5.5 0 0 1 .25-.968"/></svg>