<svg xmlns="http://www.w3.org/2000/svg" width="20" height="20" fill="none" class="persona-icon" viewBox="0 0 20 20"><path fill="currentColor" d="M11.377 4.1a.625.625 0 0 0-.985-.51l-4.73 3.344h-1.84c-1.02 0-1.847.827-1.847 1.847v2.438c0 1.02.827 1.847 1.848 1.847h1.84l4.729 3.344a.625.625 0 0 0 .985-.51zM14.693 5.024a.625.625 0 0 0-.477 1.155A4.14 4.14 0 0 1 16.775 10a4.13 4.13 0 0 1-2.556 3.82.625.625 0 1 0 .478 1.155 5.39 5.39 0 0 0 3.328-4.976 5.38 5.38 0 0 0-3.332-4.974"/><path fill="currentColor" d="M13.176 7.038a.625.625 0 1 0-.323 1.208A1.82 1.82 0 0 1 14.203 10a1.814 1.814 0 0 1-1.35 1.755.625.625 0 0 0 .323 1.207A3.07 3.07 0 0 0 15.452 10a3.06 3.06 0 0 0-2.276-2.962"/></svg>