<svg xmlns="http://www.w3.org/2000/svg" width="24" height="24" fill="none" class="persona-icon" viewBox="0 0 24 24"><path fill="currentColor" d="M13.69 4.75a.75.75 0 0 0-1.178-.616L6.592 8.25H4.278A2.28 2.28 0 0 0 2 10.529v2.942a2.28 2.28 0 0 0 2.279 2.279H6.59l5.921 4.116a.75.75 0 0 0 1.178-.616zM17.85 5.9a.75.75 0 1 0-.564 1.39 5.2 5.2 0 0 1 2.339 1.88c.57.839.875 1.823.875 2.828s-.303 1.99-.873 2.828a5.2 5.2 0 0 1-2.337 1.882.75.75 0 1 0 .566 1.39 6.7 6.7 0 0 0 3.011-2.428A6.52 6.52 0 0 0 22 11.997a6.52 6.52 0 0 0-1.136-3.67A6.7 6.7 0 0 0 17.85 5.9"/><path fill="currentColor" d="M15.96 8.377a.75.75 0 0 0-.382 1.45c.494.13.927.415 1.235.809.307.393.472.872.472 1.364s-.165.971-.473 1.364a2.3 2.3 0 0 1-1.234.808.75.75 0 0 0 .382 1.451 3.8 3.8 0 0 0 2.034-1.335c.512-.655.791-1.459.791-2.288 0-.83-.279-1.633-.79-2.288a3.8 3.8 0 0 0-2.035-1.335"/></svg>