<svg xmlns="http://www.w3.org/2000/svg" width="32" height="32" fill="none" class="persona-icon" viewBox="0 0 32 32"><path fill="currentColor" d="M18.32 6a1 1 0 0 0-1.563-.826l-8.338 5.688H5.147A3.15 3.15 0 0 0 2 14.01v3.98a3.15 3.15 0 0 0 3.148 3.148H8.42l8.338 5.688A1 1 0 0 0 18.32 26zM24.195 7.616a1 1 0 0 0-.74 1.858 7.3 7.3 0 0 1 3.309 2.611 6.86 6.86 0 0 1 1.235 3.912c0 1.39-.427 2.751-1.232 3.913a7.3 7.3 0 0 1-3.307 2.614 1 1 0 0 0 .742 1.857 9.3 9.3 0 0 0 4.209-3.332 8.86 8.86 0 0 0 1.588-5.053c-.001-1.802-.557-3.56-1.593-5.051a9.3 9.3 0 0 0-4.211-3.329"/><path fill="currentColor" d="M21.545 11.035a1 1 0 1 0-.5 1.936 3.3 3.3 0 0 1 1.764 1.133A3.04 3.04 0 0 1 23.48 16a3.04 3.04 0 0 1-.67 1.896c-.437.55-1.056.95-1.764 1.133a1 1 0 1 0 .5 1.936 5.3 5.3 0 0 0 2.829-1.823A5.04 5.04 0 0 0 25.48 16a5.04 5.04 0 0 0-1.106-3.142 5.3 5.3 0 0 0-2.829-1.823"/></svg>