<svg xmlns="http://www.w3.org/2000/svg" width="24" height="24" fill="none" class="persona-icon" viewBox="0 0 24 24"><path fill="currentColor" fill-rule="evenodd" d="M18.42 3A2.58 2.58 0 0 1 21 5.58v14.67c0 .3-.18.57-.46.69-.28.11-.6.05-.82-.16l-1.91-1.92c-.42-.42-1.11-.42-1.53 0l-.62.62a2.577 2.577 0 0 1-3.65 0l-.62-.62c-.42-.42-1.11-.42-1.53 0l-1.91 1.92c-.22.21-.54.27-.82.16a.75.75 0 0 1-.46-.69v-8.42H3.75c-.41 0-.75-.34-.75-.75v-5.5A2.58 2.58 0 0 1 5.58 3zM6.67 10.33V5.58c0-.6-.49-1.08-1.08-1.08S4.5 4.98 4.5 5.58v4.75zm6.25-1.54a1.374 1.374 0 1 0-2.75 0c0 .76.61 1.37 1.37 1.37s1.38-.61 1.38-1.37m3.13-.99-5.5 5.5c-.29.29-.29.77 0 1.06.3.29.77.29 1.07 0l5.5-5.5c.29-.29.29-.77 0-1.06a.767.767 0 0 0-1.07 0m1.45 5.57c0-.76-.61-1.37-1.37-1.37a1.374 1.374 0 1 0 0 2.75c.76 0 1.37-.62 1.37-1.38" clip-rule="evenodd"/></svg>