<svg xmlns="http://www.w3.org/2000/svg" width="32" height="32" fill="none" class="persona-icon" viewBox="0 0 32 32"><path fill="currentColor" fill-rule="evenodd" d="M24.56 4A3.44 3.44 0 0 1 28 7.44V27c0 .4-.24.76-.613.92-.374.147-.8.067-1.094-.213l-2.546-2.56c-.56-.56-1.48-.56-2.04 0l-.827.826a3.436 3.436 0 0 1-4.867 0l-.826-.826c-.56-.56-1.48-.56-2.04 0l-2.547 2.56c-.293.28-.72.36-1.093.213a1 1 0 0 1-.614-.92V15.773H5c-.547 0-1-.453-1-1V7.44A3.44 3.44 0 0 1 7.44 4zM8.893 13.773V7.44c0-.8-.653-1.44-1.44-1.44S6 6.64 6 7.44v6.333zm8.334-2.053c0-1.013-.827-1.84-1.84-1.84a1.83 1.83 0 0 0-1.827 1.84c0 1.013.813 1.827 1.827 1.827 1.013 0 1.84-.814 1.84-1.827M21.4 10.4l-7.333 7.333a1.006 1.006 0 0 0 0 1.414c.4.386 1.026.386 1.426 0l7.334-7.334a1.006 1.006 0 0 0 0-1.413 1.02 1.02 0 0 0-1.427 0m1.933 7.427A1.82 1.82 0 0 0 21.507 16c-1.014 0-1.84.813-1.84 1.827 0 1.013.826 1.84 1.84 1.84a1.83 1.83 0 0 0 1.826-1.84" clip-rule="evenodd"/></svg>