<svg xmlns="http://www.w3.org/2000/svg" width="16" height="16" fill="none" class="persona-icon" viewBox="0 0 16 16"><path fill="currentColor" fill-rule="evenodd" d="M4.538 4.503c1.174.027 2.023.92 2.603 1.64L8 7.204l.86-1.063c.581-.72 1.433-1.617 2.612-1.64 1.397-.026 2.706.838 3.251 2.12a3.55 3.55 0 0 1-.531 3.629 3.49 3.49 0 0 1-2.72 1.248c-1.179-.022-2.03-.919-2.613-1.64L8 8.798 7.14 9.86c-.581.72-1.433 1.617-2.612 1.64a3.49 3.49 0 0 1-3.251-2.12 3.55 3.55 0 0 1 .531-3.629 3.47 3.47 0 0 1 1.56-1.07 3.3 3.3 0 0 1 1.17-.178M7.358 8l-.995-1.23c-.59-.731-1.18-1.256-1.854-1.269h-.022a2.3 2.3 0 0 0-.786.122l-.01.004a2.47 2.47 0 0 0-1.114.763 2.55 2.55 0 0 0-.38 2.598 2.49 2.49 0 0 0 2.312 1.51c.674-.012 1.264-.537 1.854-1.268zm1.285 0 .994 1.23c.59.731 1.18 1.256 1.854 1.268a2.49 2.49 0 0 0 1.932-.888 2.55 2.55 0 0 0 .38-2.598c-.388-.913-1.33-1.53-2.312-1.51-.674.012-1.264.537-1.854 1.268z" clip-rule="evenodd"/></svg>