<svg xmlns="http://www.w3.org/2000/svg" width="24" height="24" fill="none" class="persona-icon" viewBox="0 0 24 24"><path fill="currentColor" fill-rule="evenodd" d="M7.08 7.003c1.688.039 2.906 1.319 3.732 2.337l1.193 1.471L13.2 9.34c.828-1.021 2.05-2.306 3.747-2.338 2-.037 3.88 1.194 4.662 3.029a5.06 5.06 0 0 1-.763 5.186 5.01 5.01 0 0 1-3.9 1.783c-1.696-.031-2.918-1.316-3.746-2.337l-1.194-1.471-1.194 1.47C9.984 15.685 8.762 16.97 7.065 17c-2.013.038-3.876-1.187-4.661-3.028a5.06 5.06 0 0 1 .762-5.187 4.97 4.97 0 0 1 2.237-1.528 4.7 4.7 0 0 1 1.678-.254M11.04 12l-1.393-1.716c-.84-1.035-1.67-1.765-2.61-1.783H7.02L7.003 8.5a3.2 3.2 0 0 0-1.103.171l-.008.003-.009.003a3.47 3.47 0 0 0-1.567 1.069 3.56 3.56 0 0 0-.534 3.637c.548 1.285 1.86 2.143 3.254 2.117.941-.018 1.77-.748 2.61-1.783zm1.93 0 1.393 1.717c.84 1.035 1.67 1.765 2.61 1.783a3.51 3.51 0 0 0 2.721-1.245 3.56 3.56 0 0 0 .534-3.637c-.545-1.278-1.87-2.143-3.254-2.117-.94.018-1.77.748-2.61 1.783z" clip-rule="evenodd"/></svg>