<svg xmlns="http://www.w3.org/2000/svg" width="32" height="32" fill="none" class="persona-icon" viewBox="0 0 32 32"><path fill="currentColor" fill-rule="evenodd" d="M9.083 9.006c2.348.054 4.045 1.842 5.206 3.278l1.718 2.127 1.718-2.127c1.164-1.44 2.868-3.235 5.226-3.279 2.793-.052 5.412 1.674 6.502 4.24 1.021 2.404.61 5.247-1.062 7.257a6.98 6.98 0 0 1-5.44 2.497c-2.358-.044-4.062-1.839-5.226-3.28l-1.718-2.126-1.718 2.127c-1.164 1.44-2.868 3.235-5.227 3.279-2.81.053-5.408-1.665-6.501-4.24-1.021-2.404-.61-5.247 1.062-7.257a6.93 6.93 0 0 1 3.12-2.14 6.5 6.5 0 0 1 2.34-.356m5.638 6.996-1.988-2.46c-1.18-1.462-2.36-2.512-3.708-2.537h-.023l-.022-.002c-.218-.014-.92.01-1.57.245l-.011.004-.011.003a4.93 4.93 0 0 0-2.227 1.526c-1.19 1.431-1.49 3.479-.76 5.196.78 1.837 2.643 3.06 4.624 3.022 1.347-.025 2.527-1.075 3.708-2.536zm2.572 0 1.988 2.46c1.18 1.462 2.36 2.512 3.708 2.537a4.98 4.98 0 0 0 3.864-1.776c1.19-1.431 1.489-3.479.76-5.196-.776-1.827-2.66-3.06-4.624-3.022-1.348.025-2.527 1.075-3.708 2.536z" clip-rule="evenodd"/></svg>