<svg xmlns="http://www.w3.org/2000/svg" width="16" height="16" fill="none" class="persona-icon" viewBox="0 0 16 16"><path fill="currentColor" d="M8.512 2a2.13 2.13 0 0 0-1.446.572L3.065 6.274l-.014.014-.692.692a.5.5 0 1 0 .707.707L3.75 7l3.994-3.695c.215-.2.488-.306.767-.306H12a.5.5 0 0 0 0-1zM11.5 6.167a.667.667 0 1 1-1.333 0 .667.667 0 0 1 1.333 0"/><path fill="currentColor" fill-rule="evenodd" d="M7.87 4.37a2.13 2.13 0 0 1 1.5-.622h2.906c.605 0 1.057.507 1.057 1.083v2.744c0 .61-.24 1.2-.672 1.626l-4.226 4.177a2.117 2.117 0 0 1-2.997 0l-1.695-1.674a2.305 2.305 0 0 1 0-3.254zm1.5.378c-.293 0-.578.117-.797.333l-4.128 4.08c-.5.495-.5 1.337 0 1.831l1.696 1.675c.449.444 1.142.444 1.591 0l4.226-4.177c.237-.234.375-.564.375-.915V4.83a.1.1 0 0 0-.024-.066c-.013-.014-.024-.016-.033-.016z" clip-rule="evenodd"/></svg>