<svg xmlns="http://www.w3.org/2000/svg" width="20" height="20" fill="none" class="persona-icon" viewBox="0 0 20 20"><path fill="currentColor" d="M9.815 6.03a3.037 3.037 0 0 1 2.088-.82h3.698c.773 0 1.399.594 1.399 1.327v3.505c0 .743-.311 1.455-.865 1.98l-5.44 5.158c-1.153 1.093-3.023 1.093-4.176 0l-2.144-2.032a2.699 2.699 0 0 1 0-3.96l5.44-5.157Zm2.088.36c-.453 0-.888.17-1.209.474l-5.44 5.158a1.562 1.562 0 0 0 0 2.293l2.144 2.031c.668.633 1.75.633 2.418 0l5.44-5.158c.32-.304.5-.716.5-1.146V6.537a.152.152 0 0 0-.155-.148h-3.698Z"/><path fill="currentColor" d="M11.094 9.116c0-.936.8-1.695 1.787-1.695.987 0 1.787.759 1.787 1.695s-.8 1.694-1.787 1.694c-.987 0-1.787-.758-1.787-1.694ZM12.88 8.6a.53.53 0 0 0-.544.516.53.53 0 0 0 .544.516c.3 0 .544-.231.544-.516a.53.53 0 0 0-.544-.516ZM8.65 3.82A3.037 3.037 0 0 1 10.736 3h2.533c.772 0 1.399.594 1.399 1.326v.369h-1.244v-.369a.152.152 0 0 0-.155-.147h-2.533c-.453 0-.888.17-1.209.475L4.383 9.532a.436.436 0 0 0 0 .64l-.879.834a1.572 1.572 0 0 1 0-2.307L8.649 3.82Z"/></svg>