<svg xmlns="http://www.w3.org/2000/svg" width="32" height="32" fill="none" class="persona-icon" viewBox="0 0 32 32"><path fill="currentColor" d="M17.025 4H24a1 1 0 1 1 0 2h-6.975c-.558 0-1.105.213-1.535.611l-7.988 7.392-1.37 1.37a1 1 0 0 1-1.415-1.413l1.384-1.385.028-.027 8.003-7.405A4.26 4.26 0 0 1 17.025 4M23 12.333a1.333 1.333 0 1 1-2.667 0 1.333 1.333 0 0 1 2.667 0"/><path fill="currentColor" fill-rule="evenodd" d="M15.74 8.74a4.26 4.26 0 0 1 2.998-1.243h5.814c1.21 0 2.114 1.013 2.114 2.165v5.487c0 1.222-.48 2.4-1.344 3.254l-8.452 8.353a4.235 4.235 0 0 1-5.995 0l-3.39-3.35c-1.793-1.77-1.793-4.735 0-6.506zm2.998.757c-.583 0-1.154.233-1.591.666l-8.256 8.16c-1 .988-1 2.673 0 3.661l3.39 3.35a2.235 2.235 0 0 0 3.183 0l8.452-8.354c.474-.468.75-1.129.75-1.83V9.661a.2.2 0 0 0-.049-.133c-.026-.027-.048-.032-.065-.032z" clip-rule="evenodd"/></svg>