<svg xmlns="http://www.w3.org/2000/svg" width="16" height="16" fill="none" class="persona-icon" viewBox="0 0 16 16"><path fill="currentColor" d="M10.571 12.357a.5.5 0 0 0 .5-.5v-.964a.5.5 0 1 0-1 0v.464h-.785a.5.5 0 1 0 0 1zM6.714 12.357a.5.5 0 0 0 0-1H5.93v-.464a.5.5 0 1 0-1 0v.964a.5.5 0 0 0 .5.5zM10.071 8.964a.5.5 0 1 0 1 0V8a.5.5 0 0 0-.5-.5H9.286a.5.5 0 0 0 0 1h.785zM4.929 8.964a.5.5 0 1 0 1 0V8.5h.785a.5.5 0 1 0 0-1H5.43a.5.5 0 0 0-.5.5z"/><path fill="currentColor" fill-rule="evenodd" d="M3 4.143a2.43 2.43 0 0 1 2.429-2.429H8.34c.495 0 .968.206 1.306.568L12.52 5.36c.308.33.48.766.48 1.218v5.28a2.43 2.43 0 0 1-2.429 2.428H5.43A2.43 2.43 0 0 1 3 11.857zm2.429-1.429c-.79 0-1.429.64-1.429 1.429v7.714c0 .79.64 1.429 1.429 1.429h5.142c.79 0 1.429-.64 1.429-1.429V6.572H9.928c-.986 0-1.785-.8-1.785-1.786V2.714zm3.714.493v1.579c0 .434.352.786.785.786h1.422z" clip-rule="evenodd"/></svg>