<svg xmlns="http://www.w3.org/2000/svg" width="20" height="20" fill="none" class="persona-icon" viewBox="0 0 20 20"><path fill="currentColor" d="M13.086 15.253c.345 0 .625-.28.625-.625v-1.157a.625.625 0 1 0-1.25 0v.532h-.918a.625.625 0 1 0 0 1.25zM8.457 15.253a.625.625 0 1 0 0-1.25H7.54v-.532a.625.625 0 1 0-1.25 0v1.157c0 .346.28.625.625.625zM12.46 11.157a.625.625 0 1 0 1.25 0V10a.625.625 0 0 0-.624-.625h-1.543a.625.625 0 1 0 0 1.25h.918zM6.29 11.157a.625.625 0 1 0 1.25 0v-.532h.917a.625.625 0 1 0 0-1.25H6.914A.625.625 0 0 0 6.29 10z"/><path fill="currentColor" fill-rule="evenodd" d="M3.975 5.371a2.94 2.94 0 0 1 2.94-2.939h3.495c.6 0 1.175.25 1.585.689l3.447 3.694c.375.401.583.93.583 1.479v6.335a2.94 2.94 0 0 1-2.94 2.939h-6.17a2.94 2.94 0 0 1-2.94-2.94zm2.94-1.689a1.69 1.69 0 0 0-1.69 1.69v9.257c0 .933.756 1.689 1.69 1.689h6.17a1.69 1.69 0 0 0 1.69-1.69V8.312h-2.46a2.17 2.17 0 0 1-2.168-2.168v-2.46zm4.482.63v1.831c0 .507.41.918.918.918h1.647z" clip-rule="evenodd"/></svg>