<svg xmlns="http://www.w3.org/2000/svg" width="20" height="20" fill="none" class="persona-icon"><g fill="currentColor" clip-path="url(#a)"><path d="M13.975 14.938a.6.6 0 0 1-.607.593H6.633a.6.6 0 0 1-.607-.593V10a.6.6 0 0 1 .607-.593h6.735a.6.6 0 0 1 .607.593v4.938Zm-1.213-.592v-3.754H7.24v3.754h5.523ZM8.923 5.062a.6.6 0 0 1-.606.592H6.633a.6.6 0 0 1-.606-.592.6.6 0 0 1 .606-.593h1.684a.6.6 0 0 1 .606.593ZM8.923 7.53a.6.6 0 0 1-.606.593H6.633a.6.6 0 0 1-.606-.592.6.6 0 0 1 .606-.593h1.684a.6.6 0 0 1 .606.593Z"/><path d="M6.632 2C4.902 2 3.5 3.37 3.5 5.062v9.876C3.5 16.63 4.902 18 6.632 18h6.736c1.73 0 3.132-1.37 3.132-3.062V8.18c0-.567-.22-1.113-.616-1.528l-3.763-3.94A2.315 2.315 0 0 0 10.447 2H6.632Zm-1.92 3.062c0-1.037.86-1.877 1.92-1.877h3.604v2.7c0 1.236 1.026 2.238 2.29 2.238h2.76l.002.057v6.758c0 1.037-.86 1.877-1.92 1.877H6.632c-1.06 0-1.92-.84-1.92-1.877V5.062Zm6.737.823c0 .582.482 1.053 1.078 1.053h1.904l-2.982-2.915v1.862Z"/></g><defs><clipPath id="a"><path fill="#fff" d="M0 0h20v20H0z"/></clipPath></defs></svg>