<svg xmlns="http://www.w3.org/2000/svg" width="32" height="32" fill="none" class="persona-icon"><path fill="currentColor" d="M10.543 15.067a.937.937 0 0 0-.945.929v8.048c0 .512.423.928.945.928h10.92a.937.937 0 0 0 .945-.928v-8.048a.937.937 0 0 0-.945-.929h-10.92Zm.945 8.048v-6.19h9.03v6.19h-9.03ZM14.218 7.948a.937.937 0 0 1-.945.929h-2.73a.937.937 0 0 1-.945-.929c0-.513.423-.928.945-.928h2.73c.522 0 .945.415.945.928ZM14.218 11.972a.937.937 0 0 1-.945.929h-2.73a.937.937 0 0 1-.945-.929c0-.513.423-.929.945-.929h2.73c.522 0 .945.416.945.929Z"/><path fill="currentColor" d="M10.543 2.996c-2.784 0-5.04 2.217-5.04 4.952v16.096c0 2.735 2.256 4.952 5.04 4.952h10.92c2.783 0 5.04-2.217 5.04-4.952V13.029c0-.914-.353-1.795-.988-2.463l-6.1-6.423a3.706 3.706 0 0 0-2.687-1.147h-6.185Zm-3.15 4.952c0-1.71 1.41-3.095 3.15-3.095h5.88V9.29c0 1.994 1.645 3.61 3.675 3.61h4.511c.002.043.004.086.004.13v11.014c0 1.709-1.41 3.095-3.15 3.095h-10.92c-1.74 0-3.15-1.386-3.15-3.095V7.948Zm10.92 1.341c0 .97.8 1.755 1.785 1.755h3.178l-4.963-4.878V9.29Z"/></svg>