<svg xmlns="http://www.w3.org/2000/svg" width="16" height="16" fill="none" class="persona-icon" viewBox="0 0 16 16"><path fill="currentColor" d="M5.175 4.49a1.03 1.03 0 0 0-.71-.053l-.303.092-.012.004a.64.64 0 0 0-.429.477.67.67 0 0 0 .18.598l1.684 1.786-.55.19L3.112 6.9l-.01-.003a.8.8 0 0 0-.437-.026.86.86 0 0 0-.394.215l-.125.117a.7.7 0 0 0-.23.468.67.67 0 0 0 .18.497l1.521 1.707c.378.426.907.445 1.369.32l7.45-1.985h.001c.488-.132.946-.384 1.256-.73.316-.353.511-.85.317-1.383v-.003c-.184-.495-.626-.75-1.055-.847a2.6 2.6 0 0 0-1.369.095h-.002l-2.609.895-.048.013h-.01l-.014-.004a1 1 0 0 1-.073-.03L5.186 4.495zM2.473 12.501a.5.5 0 0 1 .5-.5h10.055a.5.5 0 1 1 0 1H2.973a.5.5 0 0 1-.5-.5"/></svg>