<svg xmlns="http://www.w3.org/2000/svg" width="24" height="24" fill="none" class="persona-icon" viewBox="0 0 24 24"><path fill="currentColor" d="m7.427 6.395.008.003 5.877 2.778c.119.057.161.06.166.06 0 0 .025.003.11-.025l4.207-1.442c.711-.24 1.49-.304 2.174-.15.681.153 1.374.555 1.66 1.33v.003c.304.834.001 1.614-.5 2.172-.491.548-1.217.949-1.996 1.16h-.003l-12 3.198h-.002c-.734.2-1.56.165-2.148-.498l-.001-.002-2.45-2.75a1.03 1.03 0 0 1-.277-.759c.018-.3.165-.547.352-.717l.202-.188c.16-.148.36-.277.609-.334.252-.057.483-.024.676.04l.007.003 3.126 1.11.984-.34-2.771-2.94a1.02 1.02 0 0 1-.276-.914.98.98 0 0 1 .653-.726l.01-.003.497-.152a1.6 1.6 0 0 1 1.106.083M3.15 19.25a.75.75 0 0 1 .75-.75h16.2a.75.75 0 0 1 0 1.5H3.9a.75.75 0 0 1-.75-.75"/></svg>