<svg xmlns="http://www.w3.org/2000/svg" width="32" height="32" fill="none"><path fill="#000" fill-rule="evenodd" d="M8.5 4.625a1 1 0 0 1 1-1H29a1 1 0 1 1 0 2H9.5a1 1 0 0 1-1-1ZM8.5 27.375a1 1 0 0 1 1-1H29a1 1 0 1 1 0 2H9.5a1 1 0 0 1-1-1ZM8.5 16a1 1 0 0 1 1-1H29a1 1 0 1 1 0 2H9.5a1 1 0 0 1-1-1Z" clip-rule="evenodd"/><path fill="#000" d="M6.25 4.625a1.625 1.625 0 1 1-3.25 0 1.625 1.625 0 0 1 3.25 0ZM6.25 16A1.625 1.625 0 1 1 3 16a1.625 1.625 0 0 1 3.25 0ZM6.25 27.375a1.625 1.625 0 1 1-3.25 0 1.625 1.625 0 0 1 3.25 0Z"/></svg>