<svg xmlns="http://www.w3.org/2000/svg" width="16" height="16" fill="none" class="persona-icon" viewBox="0 0 16 16"><path fill="currentColor" fill-rule="evenodd" d="M3.861 2c-.614 0-1.111.498-1.111 1.111v9.778c0 .614.498 1.111 1.111 1.111h2.34c.614 0 1.112-.498 1.112-1.111V3.11C7.313 2.497 6.815 2 6.2 2zM3.75 3.111c0-.061.05-.111.111-.111h2.34c.062 0 .112.05.112.111v9.778c0 .061-.05.111-.112.111h-2.34a.11.11 0 0 1-.111-.111zM9.799 2c-.614 0-1.111.498-1.111 1.111v9.778c0 .614.497 1.111 1.11 1.111h2.34c.614 0 1.112-.498 1.112-1.111V3.11c0-.614-.498-1.111-1.111-1.111zm-.111 1.111c0-.061.05-.111.11-.111h2.34c.062 0 .112.05.112.111v9.778c0 .061-.05.111-.111.111h-2.34a.11.11 0 0 1-.111-.111z" clip-rule="evenodd"/></svg>