<svg xmlns="http://www.w3.org/2000/svg" width="16" height="16" fill="none" class="persona-icon" viewBox="0 0 16 16"><path fill="currentColor" fill-rule="evenodd" d="M3 3.5c0-.587.476-1.062 1.063-1.062h2.25c.587 0 1.062.475 1.062 1.062v9c0 .587-.475 1.063-1.062 1.063h-2.25A1.063 1.063 0 0 1 3 12.501v-9Zm1.063-.062A.063.063 0 0 0 4 3.5v9c0 .035.028.063.063.063h2.25a.062.062 0 0 0 .062-.062v-9a.062.062 0 0 0-.062-.063h-2.25ZM8.625 3.5c0-.587.475-1.063 1.062-1.063h2.25c.587 0 1.063.476 1.063 1.063v9c0 .587-.476 1.063-1.063 1.063h-2.25A1.063 1.063 0 0 1 8.625 12.5v-9Zm1.062-.063a.062.062 0 0 0-.062.063v9c0 .035.028.063.062.063h2.25A.062.062 0 0 0 12 12.5v-9a.062.062 0 0 0-.063-.063h-2.25Z" clip-rule="evenodd"/></svg>