<svg xmlns="http://www.w3.org/2000/svg" width="16" height="16" fill="none" class="persona-icon" viewBox="0 0 16 16"><path fill="currentColor" fill-rule="evenodd" d="M3.861 2h2.34c.614 0 1.112.498 1.112 1.111v9.778C7.313 13.503 6.815 14 6.2 14h-2.34a1.11 1.11 0 0 1-1.111-1.111V3.11C2.75 2.497 3.248 2 3.861 2M3.75 3.111v9.778c0 .061.05.111.111.111h2.34c.062 0 .112-.05.112-.111V3.11A.11.11 0 0 0 6.2 3h-2.34a.11.11 0 0 0-.111.111M9.799 2h2.34c.614 0 1.111.498 1.111 1.111v9.778c0 .614-.498 1.111-1.111 1.111h-2.34a1.11 1.11 0 0 1-1.111-1.111V3.11c0-.614.497-1.111 1.11-1.111m-.111 1.111v9.778c0 .061.05.111.11.111h2.34c.062 0 .112-.05.112-.111V3.11A.11.11 0 0 0 12.139 3h-2.34a.11.11 0 0 0-.111.111" clip-rule="evenodd"/></svg>