<svg xmlns="http://www.w3.org/2000/svg" width="20" height="20" fill="none" class="persona-icon" viewBox="0 0 20 20"><path fill="currentColor" fill-rule="evenodd" d="M5.311 2.975c-.738 0-1.336.598-1.336 1.336V15.69c0 .738.598 1.336 1.336 1.336H7.94c.738 0 1.336-.598 1.336-1.336V4.311c0-.738-.598-1.336-1.336-1.336zm-.086 1.336c0-.047.038-.086.086-.086H7.94c.048 0 .086.039.086.086V15.69a.086.086 0 0 1-.086.086H5.31a.086.086 0 0 1-.086-.086zM12.061 2.975c-.738 0-1.336.598-1.336 1.336V15.69c0 .738.598 1.336 1.336 1.336h2.628c.738 0 1.336-.598 1.336-1.336V4.311c0-.738-.598-1.336-1.336-1.336zm-.086 1.336c0-.047.039-.086.086-.086h2.628c.047 0 .086.039.086.086V15.69a.086.086 0 0 1-.086.086H12.06a.086.086 0 0 1-.086-.086z" clip-rule="evenodd"/></svg>