<svg xmlns="http://www.w3.org/2000/svg" width="24" height="24" fill="none" class="persona-icon" viewBox="0 0 24 24"><path fill="currentColor" fill-rule="evenodd" d="M5.667 3H9.27c.92 0 1.666.746 1.666 1.667v14.666c0 .92-.746 1.667-1.666 1.667H5.667C4.747 21 4 20.254 4 19.333V4.667C4 3.747 4.746 3 5.667 3M5.5 4.667v14.666c0 .092.075.167.167.167H9.27a.167.167 0 0 0 .166-.167V4.667a.167.167 0 0 0-.166-.167H5.667a.167.167 0 0 0-.167.167M14.73 3h3.603C19.253 3 20 3.746 20 4.667v14.666c0 .92-.746 1.667-1.667 1.667H14.73c-.92 0-1.666-.746-1.666-1.667V4.667c0-.92.746-1.667 1.666-1.667m-.168 1.667v14.666c0 .092.075.167.167.167h3.604a.167.167 0 0 0 .167-.167V4.667a.167.167 0 0 0-.167-.167H14.73a.167.167 0 0 0-.166.167" clip-rule="evenodd"/></svg>