<svg xmlns="http://www.w3.org/2000/svg" width="32" height="32" fill="none"><path fill="#000" fill-rule="evenodd" d="M23.35 12.976c.208.028.41.122.57.282.668.669 1.143 1.143 1.532 1.493.387.349.64.529.855.636.408.204.803.226 2.201.226.548 0 .992.444.992.992 0 2.968-1.214 5.035-2.843 7.208-1.1 1.466-2.874 2.87-4.683 3.903-1.787 1.021-3.787 1.784-5.369 1.784a.992.992 0 0 1-.992-.992c0-1.398-.022-1.793-.226-2.202-.107-.213-.287-.467-.635-.854-.347-.385-.814-.854-1.472-1.512a.992.992 0 0 1-.313-.723v-5.29c0-.244.09-.479.252-.66l-9.88-9.88a2.863 2.863 0 0 1 4.047-4.049l9.88 9.881a.992.992 0 0 1 .66-.252h5.291c.045 0 .09.003.133.01Zm-7.123 11.149a27.47 27.47 0 0 0-.865-.906l7.857-7.858c.34.337.638.624.906.865.44.395.847.711 1.294.935.639.32 1.284.405 2.04.428-.146 1.198-.561 2.233-1.2 3.299l-2.34-2.34a.992.992 0 0 0-1.403 1.403l2.604 2.604-.05.067c-.612.816-1.534 1.661-2.594 2.42l-2.525-2.526a.992.992 0 1 0-1.403 1.403l2.207 2.206c-1.146.631-2.257 1.071-3.168 1.27-.025-.728-.115-1.355-.425-1.976-.224-.447-.54-.855-.935-1.294Zm2.11-9.174-3.386 3.387v2.485l5.871-5.872h-2.484ZM4.742 4.741a.878.878 0 0 0 0 1.243l9.88 9.879 1.241-1.242-9.879-9.88a.878.878 0 0 0-1.242 0Z" clip-rule="evenodd"/></svg>