<svg xmlns="http://www.w3.org/2000/svg" width="32" height="32" fill="none"><path fill="#000" fill-rule="evenodd" d="M3 7.294C3 4.37 5.406 2 8.373 2H22.9c2.968 0 5.374 2.37 5.374 5.294v11.45c0 .551-.455 1-1.015 1-.561 0-1.015-.449-1.015-1V7.293C26.244 5.474 24.747 4 22.9 4H8.373C6.527 4 5.03 5.475 5.03 7.294v17.174c0 1.819 1.497 3.294 3.343 3.294h5.811c.56 0 1.015.447 1.015 1 0 .552-.454 1-1.015 1h-5.81C5.405 29.762 3 27.392 3 24.468V7.294Z" clip-rule="evenodd"/><path fill="#000" fill-rule="evenodd" d="M7.358 9.44c0-1.738 1.43-3.146 3.194-3.146h10.17c1.763 0 3.194 1.408 3.194 3.146s-1.43 3.147-3.195 3.147H10.552c-1.764 0-3.194-1.409-3.194-3.147Zm3.194-1.146c-.643 0-1.164.513-1.164 1.146 0 .634.521 1.147 1.164 1.147h10.17c.642 0 1.163-.513 1.163-1.147 0-.633-.52-1.146-1.164-1.146H10.552ZM7.358 15.88c0-.552.455-1 1.015-1h1.453c.56 0 1.015.448 1.015 1 0 .553-.454 1-1.015 1H8.373c-.56 0-1.015-.447-1.015-1ZM7.358 20.11c0-.552.455-1 1.015-1h1.453c.56 0 1.015.448 1.015 1s-.454 1-1.015 1H8.373c-.56 0-1.015-.448-1.015-1ZM7.358 24.34c0-.553.455-1 1.015-1h1.453c.56 0 1.015.447 1.015 1 0 .552-.454 1-1.015 1H8.373c-.56 0-1.015-.448-1.015-1ZM13.895 15.88c0-.552.455-1 1.016-1h1.452c.56 0 1.015.448 1.015 1 0 .553-.454 1-1.015 1h-1.452c-.561 0-1.016-.447-1.016-1ZM13.895 20.11c0-.552.455-1 1.016-1h1.452c.56 0 1.015.448 1.015 1s-.454 1-1.015 1h-1.452c-.561 0-1.016-.448-1.016-1ZM20.433 15.88c0-.552.454-1 1.015-1H22.9c.561 0 1.016.448 1.016 1 0 .553-.455 1-1.016 1h-1.452c-.56 0-1.015-.447-1.015-1ZM20.433 20.11c0-.552.454-1 1.015-1H22.9c.561 0 1.016.448 1.016 1s-.455 1-1.016 1h-1.452c-.56 0-1.015-.448-1.015-1ZM28.703 22.33a.99.99 0 0 1 0 1.414l-6.053 5.963a1.023 1.023 0 0 1-1.46-.025l-3.39-3.578a.99.99 0 0 1 .05-1.413 1.026 1.026 0 0 1 1.434.049l2.673 2.821 5.31-5.231c.397-.39 1.04-.39 1.436 0Z" clip-rule="evenodd"/></svg>