<svg xmlns="http://www.w3.org/2000/svg" width="32" height="32" fill="none"><path fill="#000" fill-rule="evenodd" d="M7.952 5.912c-1.71 0-3.095 1.426-3.095 3.185v13.806c0 1.76 1.386 3.186 3.095 3.186h16.096c1.71 0 3.095-1.427 3.095-3.186V12.779c0-1.76-1.386-3.186-3.095-3.186H17.85c-.556 0-1.092-.21-1.508-.59l-2.499-2.287a3.045 3.045 0 0 0-2.056-.804H7.952ZM3 9.097C3 6.282 5.217 4 7.952 4h3.836c1.213 0 2.383.458 3.29 1.288l2.499 2.286c.076.07.173.107.274.107h6.197C26.783 7.681 29 9.964 29 12.78v10.124C29 25.718 26.783 28 24.048 28H7.952C5.217 28 3 25.718 3 22.903V9.097Z" clip-rule="evenodd"/></svg>