<svg xmlns="http://www.w3.org/2000/svg" width="20" height="20" fill="none" class="persona-icon"><path fill="currentColor" d="M8.634 2.973a2.209 2.209 0 0 1 2.732 0l5.35 4.254c.496.394.784.983.784 1.604v5.839c0 1.563-1.311 2.83-2.93 2.83h-1.488c-.758 0-1.372-.593-1.372-1.325v-2.388c0-.39-.142-.768-.403-1.066a1.75 1.75 0 0 0-2.614 0 1.62 1.62 0 0 0-.403 1.066v2.388c0 .732-.614 1.325-1.372 1.325H5.43c-1.618 0-2.929-1.267-2.929-2.83V8.83c0-.62.288-1.209.784-1.603l5.35-4.254Zm1.98.884a.992.992 0 0 0-1.228 0L4.036 8.11a.921.921 0 0 0-.352.72v5.84c0 .931.782 1.686 1.745 1.686h1.49c.103 0 .186-.08.186-.18v-2.39c0-.66.242-1.298.683-1.803 1.156-1.324 3.268-1.324 4.424 0a2.74 2.74 0 0 1 .683 1.804v2.388c0 .1.084.181.187.181h1.489c.963 0 1.745-.755 1.745-1.686V8.83a.921.921 0 0 0-.352-.72l-5.35-4.253Z"/></svg>