<svg xmlns="http://www.w3.org/2000/svg" width="20" height="20" fill="none" class="persona-icon" viewBox="0 0 20 20"><path fill="currentColor" fill-rule="evenodd" d="M8.892 3.36a1.79 1.79 0 0 1 2.216 0l5.142 4.048c.492.386.775.98.775 1.606v5.277c0 1.495-1.187 2.734-2.683 2.734H12.82a1.32 1.32 0 0 1-1.31-1.328v-1.519c0-.877-.69-1.561-1.509-1.561s-1.508.684-1.508 1.561v1.52a1.32 1.32 0 0 1-1.311 1.327H5.658c-1.496 0-2.683-1.238-2.683-2.734V9.014c0-.625.283-1.22.775-1.606zm1.443.982a.54.54 0 0 0-.67 0L4.523 8.39a.8.8 0 0 0-.298.624v5.277c0 .834.656 1.484 1.433 1.484H7.18a.05.05 0 0 0 .038-.017.09.09 0 0 0 .023-.06v-1.52c0-1.538 1.22-2.811 2.758-2.811s2.758 1.273 2.758 2.811v1.52q.001.039.024.06a.05.05 0 0 0 .037.017h1.523c.777 0 1.433-.65 1.433-1.484V9.014a.8.8 0 0 0-.298-.624z" clip-rule="evenodd"/></svg>