<svg xmlns="http://www.w3.org/2000/svg" width="24" height="24" fill="none" class="persona-icon" viewBox="0 0 24 24"><path fill="currentColor" fill-rule="evenodd" d="M10.224 2.616a2.869 2.869 0 0 1 3.552 0l7.18 5.697A2.738 2.738 0 0 1 22 10.457v7.779C22 20.315 20.278 22 18.154 22h-2.051c-.992 0-1.795-.787-1.795-1.757v-3.156a2.23 2.23 0 0 0-.555-1.47 2.34 2.34 0 0 0-3.506 0 2.23 2.23 0 0 0-.555 1.47v3.156c0 .97-.803 1.757-1.795 1.757h-2.05C3.721 22 2 20.315 2 18.236v-7.779c0-.832.384-1.62 1.044-2.144l7.18-5.697Zm2.583 1.17a1.304 1.304 0 0 0-1.614 0l-7.18 5.697c-.3.238-.474.596-.474.974v7.779c0 1.247 1.033 2.258 2.307 2.258h2.051a.254.254 0 0 0 .257-.25v-3.157c0-.898.328-1.767.925-2.449 1.535-1.754 4.307-1.754 5.842 0 .597.682.925 1.55.925 2.449v3.156c0 .139.115.251.257.251h2.05c1.275 0 2.309-1.01 2.309-2.258v-7.779c0-.378-.175-.736-.475-.974l-7.18-5.697Z" clip-rule="evenodd"/></svg>