<svg xmlns="http://www.w3.org/2000/svg" width="24" height="24" fill="none" class="persona-icon" viewBox="0 0 24 24"><path fill="currentColor" fill-rule="evenodd" d="M10.606 3.485a2.25 2.25 0 0 1 2.788 0l6.629 5.217c.62.488.977 1.238.977 2.027v6.803C21 19.43 19.494 21 17.597 21h-1.963c-.92 0-1.634-.759-1.634-1.656v-1.958c0-1.16-.913-2.068-2-2.068s-2 .908-2 2.068v1.958C10 20.24 9.286 21 8.366 21H6.403C4.506 21 3 19.43 3 17.532v-6.803c0-.79.358-1.539.977-2.027l.464.59-.464-.59zm1.86 1.178a.75.75 0 0 0-.932 0L4.905 9.881c-.252.198-.405.51-.405.848v6.803c0 1.104.869 1.968 1.903 1.968h1.963c.057 0 .134-.052.134-.156v-1.958c0-1.953 1.55-3.568 3.5-3.568s3.5 1.615 3.5 3.568v1.958c0 .104.077.156.134.156h1.963c1.034 0 1.903-.864 1.903-1.968v-6.803c0-.338-.153-.65-.405-.848zl.463-.59z" clip-rule="evenodd"/></svg>