<svg xmlns="http://www.w3.org/2000/svg" width="32" height="32" fill="none" class="persona-icon" viewBox="0 0 32 32"><path fill="currentColor" fill-rule="evenodd" d="M14.141 4.646a3 3 0 0 1 3.718 0l8.838 6.957A3.44 3.44 0 0 1 28 14.305v9.07C28 25.907 25.992 28 23.463 28h-2.617c-1.227 0-2.18-1.012-2.18-2.208v-2.61c0-1.547-1.216-2.758-2.666-2.758s-2.667 1.211-2.667 2.757v2.61c0 1.197-.952 2.209-2.179 2.209H8.537C6.008 28 4 25.906 4 23.376v-9.071c0-1.052.477-2.052 1.303-2.702l.619.786-.619-.786zl.618.786zm2.481 1.572a1 1 0 0 0-1.244 0L6.54 13.175c-.336.264-.54.68-.54 1.13v9.07C6 24.849 7.159 26 8.537 26h2.617c.076 0 .18-.07.18-.208v-2.61c0-2.605 2.066-4.758 4.666-4.758s4.667 2.153 4.667 4.757v2.61c0 .139.103.209.179.209h2.617C24.841 26 26 24.848 26 23.376v-9.071c0-.45-.204-.866-.54-1.13z" clip-rule="evenodd"/></svg>