<svg width="150" height="150" viewBox="0 0 106 110" fill="none" xmlns="http://www.w3.org/2000/svg">
<path d="M3.04956 89.2076L16.6309 105.941C17.0107 106.408 17.5812 106.68 18.1838 106.68H74.5972C75.7017 106.68 76.5972 105.785 76.5972 104.68V4.61807C76.5972 2.73678 74.2359 1.89617 73.0471 3.35425L3.04956 89.2076ZM3.04956 89.2076L16.6652 106.331C17.0447 106.808 17.621 107.087 18.2307 107.087H74.6078C75.7124 107.087 76.6078 106.191 76.6078 105.087V56.6456C76.6078 55.1686 75.0618 54.2012 73.7334 54.8469L3.04956 89.2076ZM43.6836 106.68H101.05C102.154 106.68 103.05 105.785 103.05 104.68L103.05 45.6974C103.05 44.5929 102.154 43.6974 101.05 43.6974H76.5972M43.7075 107.087H101.05C102.154 107.087 103.05 106.191 103.05 105.087L103.05 83.479C103.05 82.7514 102.654 82.0812 102.018 81.7289L76.6078 67.6715" stroke="#0065D1" stroke-width="5" stroke-linejoin="round"/>
</svg>
