<svg xmlns="http://www.w3.org/2000/svg" width="80" height="80" fill="none" class="persona-ilustration" viewBox="0 0 80 80"><g clip-path="url(#qjcdAIeBtM_a)"><rect width="52.326" height="60.443" fill="#EFFAFF" rx="1.635" transform="matrix(1 0 0 -1 14.009 70.221)"/><path fill="#FFDCC5" d="M14.009 11.413c0-.903.732-1.635 1.635-1.635H64.7c.903 0 1.635.732 1.635 1.635v1.845H14.01z"/><path fill="#CBD3FF" d="M18.436 56.647c0-.542.44-.981.98-.981h41.167c.542 0 .981.439.981.98v3.255c0 .541-.44.98-.98.98H19.416a.98.98 0 0 1-.981-.98zM18.436 20.803c0-.542.44-.982.98-.982h41.167c.542 0 .981.44.981.982v3.254c0 .541-.44.98-.98.98H19.416a.98.98 0 0 1-.981-.98z"/><rect width="71.876" height="14.375" x="3.93" y="25.037" fill="#FFB26F" rx="1.98"/><mask id="qjcdAIeBtM_b" width="11" height="11" x="6" y="27" maskUnits="userSpaceOnUse" style="mask-type:alpha"><circle cx="11.719" cy="32.285" r="4.792" fill="#5A83EA"/></mask><g mask="url(#qjcdAIeBtM_b)"><circle cx="11.719" cy="32.285" r="4.792" fill="#4C39B0"/><circle cx="11.67" cy="30.867" r="1.907" fill="#F8F8F8"/><ellipse cx="11.718" cy="36.637" fill="#F8F8F8" rx="3.814" ry="2.983"/></g><path fill="#CC6E08" d="M20.59 32.146c0-.656.531-1.198 1.187-1.198h48.736c.656 0 1.188.542 1.188 1.198s-.532 1.198-1.188 1.198H21.777a1.196 1.196 0 0 1-1.188-1.198"/><path fill="#CC6E08" d="M71.701 32.146c0-.656-.532-1.198-1.188-1.198h-9.57c-.655 0-1.187.542-1.187 1.198s.532 1.198 1.188 1.198h9.57c.655 0 1.187-.542 1.187-1.198"/><rect width="71.876" height="14.375" x="3.93" y="42.626" fill="#54D9FF" rx="1.98"/><mask id="qjcdAIeBtM_c" width="11" height="10" x="6" y="45" maskUnits="userSpaceOnUse" style="mask-type:alpha"><circle cx="11.719" cy="49.873" r="4.792" fill="#5A83EA"/></mask><g mask="url(#qjcdAIeBtM_c)"><circle cx="11.719" cy="49.873" r="4.792" fill="#4C39B0"/><circle cx="11.67" cy="48.456" r="1.907" fill="#F8F8F8"/><ellipse cx="11.718" cy="54.225" fill="#F8F8F8" rx="3.814" ry="2.983"/></g><rect width="51.112" height="2.396" x="20.589" y="48.536" fill="#37A2F8" rx="1.188"/><path fill="#37A2F8" d="M71.701 49.806c0-.656-.532-1.198-1.188-1.198h-9.57c-.655 0-1.187.542-1.187 1.198s.532 1.198 1.188 1.198h9.57c.655 0 1.187-.542 1.187-1.198"/></g><defs><clipPath id="qjcdAIeBtM_a"><path fill="#fff" d="M0 0h80v80H0z"/></clipPath></defs></svg>