<svg xmlns="http://www.w3.org/2000/svg" width="240" height="240" fill="none" class="persona-ilustration" viewBox="0 0 240 240"><g clip-path="url(#HVQIhgjoVo_a)"><g clip-path="url(#HVQIhgjoVo_b)"><g clip-path="url(#HVQIhgjoVo_c)"><rect width="200" height="200" x="20.224" y="20" fill="#D3EDFF" rx="100"/><rect width="156.979" height="187.131" x="42.026" y="6.536" fill="#EFFAFF" rx="4.906"/><rect width="156.979" height="81.242" fill="#EFFAFF" rx="4.906" transform="matrix(1 0 0 -1 42.026 267.371)"/><rect width="129.385" height="15.649" x="54.361" y="130.161" fill="#CBD3FF" rx="2.943"/><rect width="129.385" height="15.649" x="54.361" y="155.077" fill="#CBD3FF" rx="2.943"/><path fill="#C8C6EC" d="M148.896 200.056c16.63 8.932 36.483 10.074 43.767 4.7 0 0 3.021 4.206 3.26 12.539s-3.3 18.664-3.3 18.664c-19.375 7.211-37.769 5.724-43.774-.057-2.029-1.954-2.864-20.093-2.629-24.149.261-4.523 1.798-10.169 2.676-11.697"/><path fill="#A6B7FF" d="M148.874 199.97c5.092-3.107 22.286-7.542 43.793 4.812-10.569 11.719-34.144 2.111-43.793-4.812"/><path fill="#FFC7B6" d="M186.753 187.923c-1.059 10.434-2.347 14.286-.938 21.318-14.157 4.428-31.187-5.738-31.187-5.738l-.391-8.93s-.763-9.073-1.301-13.823c-.805-7.096-3.817-11.354-1.751-18.19 2.412-7.984 2.832-11.158 8.753-17.031 4.742-4.705 12.151-10.913 14.667-4.725 3.011 7.406 7.903-1.791 7.323-8.225-.49-5.43-2.288-8.821-6.39-12.413-3.244-1.948-19.959-.385-23.761-1.029-3.801-.645-6.522-5.494-2.833-9.151s29.113-4.818 36.003-.277 12.591 14.948 17.226 23.855 5.613 11.764 4.949 12.964c-3.927 14.477-19.452 35.385-20.369 41.395"/></g><rect width="156.979" height="100.878" fill="#EFFAFF" rx="4.906" transform="matrix(1 0 0 -1 42.026 115.07)"/><path fill="#FFDCC5" d="M42.026 19.098a4.906 4.906 0 0 1 4.906-4.906h147.167a4.906 4.906 0 0 1 4.906 4.906v5.535H42.026z"/><rect width="215.628" height="43.126" x="11.791" y="37.17" fill="#FFB26F" rx="5.939"/><mask id="HVQIhgjoVo_d" width="30" height="30" x="20" y="44" maskUnits="userSpaceOnUse" style="mask-type:alpha"><circle cx="35.156" cy="58.914" r="14.375" fill="#5A83EA"/></mask><g mask="url(#HVQIhgjoVo_d)"><circle cx="35.156" cy="58.914" r="14.375" fill="#4C39B0"/><circle cx="35.01" cy="54.66" r="5.721" fill="#F8F8F8"/><ellipse cx="35.155" cy="71.969" fill="#F8F8F8" rx="11.441" ry="8.948"/></g><path fill="#CC6E08" d="M61.768 58.496c0-1.968 1.595-3.594 3.564-3.594H165.88c1.968 0 3.563 1.626 3.563 3.594s-1.595 3.594-3.563 3.594H65.331c-1.968 0-3.563-1.626-3.563-3.594M215.104 58.496c0-1.968-1.596-3.594-3.564-3.594h-28.709c-1.968 0-3.564 1.626-3.564 3.594s1.596 3.594 3.564 3.594h28.709c1.968 0 3.564-1.626 3.564-3.594"/><mask id="HVQIhgjoVo_e" width="40" height="30" x="146" y="127" maskUnits="userSpaceOnUse" style="mask-type:alpha"><path fill="#F8B199" d="m154.411 133.912 16.906-5.857c1.081-.525 4.344-1.06 8.751.994 5.509 2.568 5.775 8.836 4.834 12.35-.752 2.811-16.856 3.061-24.813 2.834-1.53 2.992-1.346 5.029-5.059 9.823-2.775 3.582-10.567 2.914-8.532-6.452 1.628-7.493 5.954-12.25 7.913-13.692"/></mask><g mask="url(#HVQIhgjoVo_e)"><path fill="#F8B199" d="m154.411 133.912 16.906-5.857c1.081-.525 4.344-1.06 8.751.994 5.509 2.568 5.775 8.836 4.834 12.35-.752 2.811-16.856 3.061-24.813 2.834-1.53 2.992-1.346 5.029-5.059 9.823-2.775 3.582-10.567 2.914-8.532-6.452 1.628-7.493 5.954-12.25 7.913-13.692"/><path fill="#EB9577" d="m157.329 128.412 17.595-3.244c1.148-.356 4.455-.394 8.502 2.301 5.059 3.368 4.378 9.604 2.919 12.937-1.167 2.666-17.124.487-24.957-.935-1.963 2.727-2.088 4.768-6.481 8.948-3.282 3.124-10.885 1.29-7.462-7.663 2.738-7.162 7.73-11.214 9.884-12.344"/></g><mask id="HVQIhgjoVo_f" width="42" height="26" x="144" y="122" maskUnits="userSpaceOnUse" style="mask-type:alpha"><path fill="#F8B199" d="m154.988 126.234 17.489-3.775c1.137-.391 4.441-.528 8.568 2.043 5.159 3.213 4.667 9.467 3.309 12.842-1.086 2.7-17.102 1.006-24.974-.179-1.88 2.785-1.943 4.829-6.207 9.141-3.186 3.221-10.841 1.618-7.691-7.434 2.52-7.242 7.388-11.443 9.506-12.638"/></mask><g mask="url(#HVQIhgjoVo_f)"><path fill="#F8B199" d="m154.988 126.234 17.489-3.775c1.137-.391 4.441-.528 8.568 2.043 5.159 3.213 4.667 9.467 3.309 12.842-1.086 2.7-17.102 1.006-24.974-.179-1.88 2.785-1.943 4.829-6.207 9.141-3.186 3.221-10.841 1.618-7.691-7.434 2.52-7.242 7.388-11.443 9.506-12.638"/><path fill="#EB9577" d="m160.354 118.279 17.858-1.098c1.182-.215 4.47.147 8.162 3.31 4.616 3.954 3.188 10.062 1.338 13.194-1.481 2.506-17.059-1.582-24.663-3.939-2.277 2.471-2.648 4.482-7.513 8.102-3.634 2.705-10.96-.033-6.483-8.507 3.582-6.78 9.027-10.2 11.301-11.062"/></g><mask id="HVQIhgjoVo_g" width="43" height="23" x="144" y="115" maskUnits="userSpaceOnUse" style="mask-type:alpha"><path fill="#F8B199" d="m157.287 116.707 17.843-1.316c1.18-.229 4.471.092 8.203 3.21 4.663 3.897 3.31 10.022 1.498 13.177-1.45 2.524-17.077-1.373-24.709-3.637-2.247 2.498-2.593 4.514-7.413 8.193-3.601 2.749-10.96.101-6.587-8.428 3.499-6.823 8.901-10.309 11.165-11.199"/></mask><g mask="url(#HVQIhgjoVo_g)"><path fill="#F8B199" d="m157.287 116.707 17.843-1.316c1.18-.229 4.471.092 8.203 3.21 4.663 3.897 3.31 10.022 1.498 13.177-1.45 2.524-17.077-1.373-24.709-3.637-2.247 2.498-2.593 4.514-7.413 8.193-3.601 2.749-10.96.101-6.587-8.428 3.499-6.823 8.901-10.309 11.165-11.199"/><path fill="#EB9577" d="M148.613 122.972c-4.359.763-.693-4.483 1.686-7.201l23.981 1.197 12.725 13.681c-4.036-2.264-13.383-7.132-18.482-8.493-6.375-1.702-14.461-.138-19.91.816"/></g><path fill="#FFC7B6" d="M207.122 146.528c-3.927 14.477-19.452 35.385-20.369 41.395 0 0-33.703-6.16-33.817-7.173-.805-7.096-3.817-11.354-1.751-18.19 2.412-7.984 2.832-11.157 8.753-17.031 4.742-4.705 12.151-10.913 14.667-4.725 3.011 7.406 7.902-1.791 7.322-8.225-.489-5.43-2.288-8.821-6.389-12.413-3.244-1.948-19.959-.385-23.761-1.029-3.801-.645-6.522-5.494-2.833-9.151s29.113-4.818 36.003-.277c6.889 4.54 12.591 14.948 17.226 23.855s5.613 11.764 4.949 12.964"/><rect width="215.628" height="43.126" x="11.791" y="89.935" fill="#54D9FF" rx="5.939"/><mask id="HVQIhgjoVo_h" width="30" height="30" x="20" y="97" maskUnits="userSpaceOnUse" style="mask-type:alpha"><circle cx="35.156" cy="111.679" r="14.375" fill="#5A83EA"/></mask><g mask="url(#HVQIhgjoVo_h)"><circle cx="35.156" cy="111.679" r="14.375" fill="#4C39B0"/><circle cx="35.01" cy="107.425" r="5.721" fill="#F8F8F8"/><ellipse cx="35.155" cy="124.734" fill="#F8F8F8" rx="11.441" ry="8.948"/></g><path fill="#37A2F8" d="M61.768 111.261c0-1.968 1.595-3.594 3.564-3.594H165.88c1.968 0 3.563 1.626 3.563 3.594s-1.595 3.594-3.563 3.594H65.331c-1.968 0-3.563-1.626-3.563-3.594M215.104 111.476c0-1.968-1.596-3.594-3.564-3.594h-28.709c-1.968 0-3.564 1.626-3.564 3.594s1.596 3.593 3.564 3.593h28.709c1.968 0 3.564-1.625 3.564-3.593"/><path fill="#FFC7B6" d="M169.427 109.433c-8.832 6.897-16.508 38.553-17.856 53.766 12.334 11.939 24.316 5.677 27.379.807-.984-2.977-3.159-10.103-3.988-14.787s-3.445-20.742 2.351-35.256c2.22-3.865.946-11.427-7.886-4.53"/></g></g><defs><clipPath id="HVQIhgjoVo_a"><path fill="#fff" d="M0 0h240v240H0z"/></clipPath><clipPath id="HVQIhgjoVo_b"><path fill="#fff" d="M0 0h240v240H0z"/></clipPath><clipPath id="HVQIhgjoVo_c"><rect width="200" height="200" x="20.224" y="20" fill="#fff" rx="100"/></clipPath></defs></svg>