<svg xmlns="http://www.w3.org/2000/svg" width="16" height="16" fill="none" class="persona-icon" viewBox="0 0 16 16"><path fill="currentColor" fill-rule="evenodd" d="m4.017 5-.078-.022a2.47 2.47 0 0 0-2.055.319c-.577.395-.962 1.062-.87 1.87.08.712.288 1.448.748 2.044.45.583 1.111.992 2.017 1.132C4.888 11.35 6.588 12 7.987 12c1.396 0 3.093-.648 4.202-1.652.923-.136 1.594-.547 2.05-1.137.459-.596.667-1.332.748-2.044.091-.808-.294-1.475-.87-1.87a2.47 2.47 0 0 0-2.055-.32L11.983 5c-.954-.003-1.431-.22-1.903-.45l-.072-.035C9.507 4.27 8.955 4 7.987 4c-.924 0-1.474.265-1.973.505l-.09.044c-.477.228-.969.444-1.907.45m-.548 4.243a1.9 1.9 0 0 1-.915-.643c-.308-.398-.478-.934-.547-1.545-.045-.396.131-.72.442-.933a1.46 1.46 0 0 1 1.02-.224zm8.036-3.262v3.637C10.582 10.447 9.133 11 7.987 11s-2.596-.553-3.518-1.382V5.982c.869-.067 1.41-.304 1.886-.53l.083-.04C6.918 5.18 7.294 5 7.987 5c.735 0 1.115.186 1.588.417l.068.032c.468.228.996.466 1.862.532m1 3.27V5.903c.387-.063.768.029 1.046.22.31.212.487.537.442.933-.069.61-.24 1.147-.546 1.545a1.9 1.9 0 0 1-.942.652M6.522 7.057c.448-.217.784-.38 1.474-.38.732 0 1.072.168 1.523.39.19.094.401.197.67.302a.5.5 0 1 0 .363-.932c-.15-.059-.302-.133-.463-.212-.508-.25-1.113-.548-2.093-.548-.935 0-1.54.293-2.053.541a6 6 0 0 1-.483.218.5.5 0 1 0 .357.934c.285-.109.506-.216.705-.313" clip-rule="evenodd"/></svg>