<svg xmlns="http://www.w3.org/2000/svg" width="24" height="24" fill="none" class="persona-icon" viewBox="0 0 24 24"><path fill="currentColor" fill-rule="evenodd" d="M6.356 7.678c1.315-.013 2.006-.318 2.678-.64l.13-.063c.712-.343 1.503-.725 2.829-.725 1.389 0 2.182.389 2.898.74l.104.05c.661.323 1.327.627 2.647.638l.143-.04c1.041-.295 2.131-.099 2.945.461.828.57 1.38 1.531 1.249 2.694-.115 1.02-.412 2.075-1.072 2.931-.641.833-1.58 1.418-2.862 1.624-1.587 1.458-4.036 2.402-6.052 2.402-2.018 0-4.469-.945-6.055-2.405-1.274-.209-2.208-.792-2.847-1.62-.66-.857-.957-1.913-1.07-2.932C1.89 9.63 2.44 8.67 3.268 8.1c.813-.56 1.904-.756 2.945-.461zM16.971 9.15c-1.22-.1-1.97-.437-2.634-.76l-.096-.047c-.673-.33-1.208-.592-2.248-.592-.98 0-1.508.255-2.193.584l-.117.057c-.674.323-1.443.66-2.669.758v5.147c1.309 1.172 3.36 1.954 4.979 1.954s3.67-.782 4.978-1.954zm1.5 4.551c.563-.2.96-.516 1.248-.891.431-.56.672-1.316.769-2.183.061-.548-.18-.996-.608-1.291a2 2 0 0 0-1.409-.312zm-12.957-.005V9.021a2 2 0 0 0-1.395.314c-.428.294-.67.742-.608 1.291.097.867.337 1.623.769 2.183.286.372.678.686 1.234.886m4.404-3.025c-.284.138-.601.292-1.012.449a.75.75 0 0 1-.536-1.401c.22-.084.442-.191.68-.306.73-.354 1.603-.776 2.942-.776 1.406 0 2.277.428 3 .785.228.112.44.216.651.299a.75.75 0 0 1-.544 1.397c-.388-.151-.69-.3-.962-.434-.637-.313-1.113-.547-2.145-.547-.973 0-1.44.227-2.074.534" clip-rule="evenodd"/></svg>