<svg xmlns="http://www.w3.org/2000/svg" width="32" height="32" fill="none" class="persona-icon" viewBox="0 0 32 32"><path fill="currentColor" fill-rule="evenodd" d="M8.058 10c1.866-.018 2.847-.448 3.798-.902q.09-.045.183-.088c.999-.48 2.1-1.01 3.95-1.01 1.94 0 3.046.54 4.05 1.03l.146.07c.935.455 1.882.884 3.755.9l.22-.062.02.071-.02-.071c1.446-.406 2.96-.133 4.087.644 1.147.79 1.91 2.122 1.726 3.733-.162 1.417-.58 2.88-1.5 4.064-.893 1.148-2.197 1.954-3.98 2.24C22.275 22.671 18.824 24 15.99 24c-2.836 0-6.289-1.33-8.508-3.384-1.77-.29-3.067-1.094-3.955-2.237-.92-1.184-1.339-2.647-1.5-4.064-.185-1.61.578-2.942 1.725-3.733 1.128-.777 2.641-1.05 4.087-.644zm-1.121 8.43v-6.645c-.76-.116-1.504.067-2.05.444-.615.424-.964 1.07-.873 1.86.138 1.212.478 2.274 1.092 3.063.42.542 1.003.996 1.83 1.277m16.106-6.467c-1.736-.133-2.794-.608-3.732-1.064l-.135-.065c-.949-.463-1.71-.834-3.186-.834-1.39 0-2.143.361-3.106.823l-.166.08c-.953.454-2.039.927-3.781 1.06v7.273C10.787 20.893 13.692 22 15.99 22s5.204-1.107 7.053-2.764zm2 6.473c.838-.28 1.426-.738 1.85-1.284.613-.79.954-1.851 1.092-3.064.09-.79-.258-1.435-.873-1.859-.55-.38-1.303-.563-2.07-.44zm-12.001-4.323c-.398.193-.841.408-1.411.625a1 1 0 1 1-.713-1.868c.313-.12.63-.273.966-.435 1.025-.496 2.236-1.082 4.105-1.082 1.962 0 3.17.595 4.187 1.094.322.159.625.308.926.425a1 1 0 1 1-.726 1.864c-.537-.21-.959-.417-1.34-.605-.901-.443-1.583-.778-3.047-.778-1.38 0-2.051.325-2.947.76" clip-rule="evenodd"/></svg>