<svg xmlns="http://www.w3.org/2000/svg" width="16" height="16" fill="none" class="persona-icon" viewBox="0 0 16 16"><path fill="currentColor" fill-rule="evenodd" d="M4 4.142c0-.789.64-1.428 1.429-1.428h2.714v2.071c0 .986.8 1.786 1.786 1.786h2.467a.5.5 0 0 0 .46-.697 1.8 1.8 0 0 0-.336-.515L9.647 2.281a1.79 1.79 0 0 0-1.306-.567H5.43A2.43 2.43 0 0 0 3 4.142v7.715a2.43 2.43 0 0 0 2.429 2.428h1.308a.5.5 0 0 0 0-1H5.429c-.79 0-1.429-.64-1.429-1.428zm5.143.643V3.207L11.35 5.57H9.929a.786.786 0 0 1-.786-.786" clip-rule="evenodd"/><path fill="currentColor" d="m11.37 11.307-.004.002z"/><path fill="currentColor" fill-rule="evenodd" d="M11.039 14.32a3.44 3.44 0 1 0 0-6.88 3.44 3.44 0 0 0 0 6.88m-.451-4.593a.35.35 0 0 0-.145.306.5.5 0 0 1-1 0c0-.478.217-.856.539-1.101a1.75 1.75 0 0 1 1.055-.337c.362 0 .748.102 1.056.337.322.245.539.623.539 1.101 0 .336-.098.622-.298.838a1.3 1.3 0 0 1-.59.345q-.093.027-.172.044v.158a.5.5 0 1 1-1 0v-.447c0-.21.101-.376.233-.482a.8.8 0 0 1 .291-.144c.065-.019.137-.035.19-.046l.016-.003c.062-.014.112-.025.159-.039.096-.028.128-.054.138-.065a.1.1 0 0 0 .016-.029.4.4 0 0 0 .017-.13.35.35 0 0 0-.145-.306.76.76 0 0 0-.45-.132.76.76 0 0 0-.45.132m-.081 3.027a.532.532 0 1 1 1.063 0 .532.532 0 0 1-1.063 0" clip-rule="evenodd"/></svg>