<svg xmlns="http://www.w3.org/2000/svg" width="16" height="16" fill="none" class="persona-icon" viewBox="0 0 16 16"><path fill="currentColor" fill-rule="evenodd" d="M3.968 4c0-.828.65-1.5 1.451-1.5h2.742v2.167c0 1.012.795 1.833 1.774 1.833h2.581a.484.484 0 0 0 .444-.3.513.513 0 0 0-.09-.541L9.64 2.082A1.748 1.748 0 0 0 8.341 1.5H5.42C4.083 1.5 3 2.62 3 4v8c0 1.38 1.083 2.5 2.42 2.5h1.29a.492.492 0 0 0 .484-.5c0-.276-.217-.5-.484-.5H5.42c-.802 0-1.452-.672-1.452-1.5V4Zm7.38 1.5H9.935a.82.82 0 0 1-.806-.833v-1.46L11.348 5.5Z" clip-rule="evenodd"/><path fill="currentColor" fill-rule="evenodd" d="M14 11a3.5 3.5 0 1 1-7 0 3.5 3.5 0 0 1 7 0Zm-3.5-2.174c-.313 0-.655.064-.936.228-.293.171-.538.47-.538.896a.424.424 0 1 0 .848 0c0-.034.008-.06.022-.081a.276.276 0 0 1 .096-.083 1.05 1.05 0 0 1 .508-.112c.212 0 .395.046.508.112.053.031.081.06.096.083a.141.141 0 0 1 .022.08c0 .184-.07.29-.165.362a.78.78 0 0 1-.46.135.424.424 0 0 0-.425.424v.48a.424.424 0 1 0 .848 0v-.107c.192-.047.381-.13.547-.255.303-.228.503-.582.503-1.038 0-.426-.245-.725-.538-.896-.28-.164-.623-.228-.936-.228Zm-.512 3.924a.512.512 0 1 0 1.023 0 .512.512 0 0 0-1.023 0Z" clip-rule="evenodd"/></svg>