<svg xmlns="http://www.w3.org/2000/svg" width="16" height="16" fill="none" class="persona-icon" viewBox="0 0 16 16"><path fill="currentColor" fill-rule="evenodd" d="M4 4.143v7.714c0 .789.64 1.429 1.429 1.429h1.308a.5.5 0 1 1 0 1H5.429A2.43 2.43 0 0 1 3 11.857V4.143a2.43 2.43 0 0 1 2.429-2.429H8.34c.495 0 .968.206 1.306.567L12.52 5.36q.214.23.335.514a.5.5 0 0 1-.46.697H9.93c-.987 0-1.786-.8-1.786-1.786v-2.07H5.429C4.639 2.714 4 3.353 4 4.142m5.143.642c0 .434.352.786.786.786h1.42L9.143 3.207z" clip-rule="evenodd"/><path fill="currentColor" d="m11.323 11.371.003-.001z"/><path fill="currentColor" fill-rule="evenodd" d="M11.006 14.411a3.44 3.44 0 1 1 0-6.88 3.44 3.44 0 0 1 0 6.88m-.532-1.565a.532.532 0 1 0 1.063 0 .532.532 0 0 0-1.063 0m.062-3.052a.8.8 0 0 1 .468-.139c.192 0 .36.056.469.14a.39.39 0 0 1 .157.33c0 .136-.035.173-.041.18-.016.017-.054.044-.153.073a2 2 0 0 1-.16.04l-.016.003a3 3 0 0 0-.188.045.8.8 0 0 0-.28.14.58.58 0 0 0-.222.457v.447a.47.47 0 0 0 .938 0v-.183c.056-.012.124-.028.194-.049.166-.049.393-.139.576-.337.194-.21.29-.487.29-.816 0-.468-.212-.837-.527-1.077a1.72 1.72 0 0 0-1.037-.33c-.356 0-.735.1-1.037.33-.314.24-.526.61-.526 1.077a.47.47 0 1 0 .938 0c0-.158.062-.258.157-.33" clip-rule="evenodd"/></svg>