<svg xmlns="http://www.w3.org/2000/svg" width="20" height="20" fill="none" class="persona-icon" viewBox="0 0 20 20"><path fill="currentColor" fill-rule="evenodd" d="M4.712 5.062c0-1.037.86-1.877 1.92-1.877h3.604v2.7c0 1.236 1.025 2.239 2.29 2.239h3.368c.241 0 .46-.14.556-.357a.58.58 0 0 0-.113-.64L12.12 2.71A2.32 2.32 0 0 0 10.447 2H6.632C4.902 2 3.5 3.37 3.5 5.062v9.876C3.5 16.63 4.902 18 6.632 18h1.684a.6.6 0 0 0 .606-.593.6.6 0 0 0-.606-.592H6.632c-1.06 0-1.92-.84-1.92-1.877zm9.718 1.876h-1.904a1.066 1.066 0 0 1-1.078-1.053V4.023z" clip-rule="evenodd"/><path fill="currentColor" fill-rule="evenodd" d="M17.5 13.5a4.5 4.5 0 1 1-9 0 4.5 4.5 0 0 1 9 0M13 10.705c-.402 0-.842.082-1.203.293-.377.22-.692.604-.692 1.152a.545.545 0 1 0 1.09 0c0-.044.01-.076.029-.104a.35.35 0 0 1 .123-.107c.146-.085.38-.144.653-.144s.508.06.653.144c.069.04.105.077.124.107.018.028.028.06.028.104 0 .236-.09.372-.213.465a1 1 0 0 1-.592.173.545.545 0 0 0-.545.545v.617a.545.545 0 1 0 1.09 0v-.137c.247-.061.49-.167.704-.328.389-.293.647-.748.647-1.335 0-.548-.316-.932-.693-1.152-.36-.21-.8-.293-1.203-.293m-.658 5.045a.658.658 0 1 0 1.315 0 .658.658 0 0 0-1.315 0" clip-rule="evenodd"/></svg>