<svg xmlns="http://www.w3.org/2000/svg" width="24" height="24" fill="none" class="persona-icon" viewBox="0 0 24 24"><path fill="currentColor" fill-rule="evenodd" d="M22.358 16.603a5.5 5.5 0 1 1-11 0 5.5 5.5 0 0 1 11 0m-6.502-1.353c0-.253.098-.412.251-.528.174-.133.443-.222.749-.222s.574.09.748.222a.62.62 0 0 1 .252.528c0 .218-.056.277-.065.287-.026.028-.087.072-.245.119a4 4 0 0 1-.257.062l-.025.005c-.085.019-.198.043-.3.073-.104.03-.285.091-.449.222a.93.93 0 0 0-.354.732v.715a.75.75 0 1 0 1.5 0v-.293c.09-.02.198-.045.31-.078.266-.078.628-.222.92-.538.31-.335.465-.779.465-1.306 0-.747-.34-1.338-.843-1.722-.482-.367-1.088-.528-1.657-.528-.57 0-1.176.16-1.658.528a2.11 2.11 0 0 0-.842 1.722.75.75 0 0 0 1.5 0m1.002 3.5a.85.85 0 1 0 0 1.7.85.85 0 0 0 0-1.7" clip-rule="evenodd"/><path fill="currentColor" fill-rule="evenodd" d="M7.889 3.5a2.333 2.333 0 0 0-2.333 2.333v12.334A2.333 2.333 0 0 0 7.889 20.5H9.98a.75.75 0 0 1 0 1.5H7.89a3.833 3.833 0 0 1-3.833-3.833V5.833A3.833 3.833 0 0 1 7.889 2h4.657c.777 0 1.52.323 2.05.891l4.594 4.922c.223.239.4.513.527.808a.75.75 0 0 1-.69 1.045h-3.944a2.806 2.806 0 0 1-2.805-2.805V3.5zm5.889.712v2.649c0 .721.584 1.305 1.305 1.305h2.385z" clip-rule="evenodd"/></svg>