<svg xmlns="http://www.w3.org/2000/svg" width="24" height="24" fill="none" class="persona-icon" viewBox="0 0 24 24"><path fill="currentColor" fill-rule="evenodd" d="M5.556 5.833v12.334A2.333 2.333 0 0 0 7.889 20.5H9.98a.75.75 0 0 1 0 1.5H7.89a3.833 3.833 0 0 1-3.833-3.833V5.833A3.833 3.833 0 0 1 7.889 2h4.657c.777 0 1.52.323 2.05.891l4.594 4.922c.223.239.4.513.527.808a.75.75 0 0 1-.69 1.045h-3.944a2.806 2.806 0 0 1-2.805-2.805V3.5h-4.39a2.333 2.333 0 0 0-2.332 2.333m8.222 1.028c0 .721.584 1.305 1.305 1.305h2.385l-3.69-3.954z" clip-rule="evenodd"/><path fill="currentColor" fill-rule="evenodd" d="M16.806 22.25a5.5 5.5 0 1 1 0-11 5.5 5.5 0 0 1 0 11m-.85-2.503a.85.85 0 1 0 1.7 0 .85.85 0 0 0-1.7 0m.099-4.878c.173-.133.442-.222.748-.222s.575.09.749.221a.62.62 0 0 1 .251.529c0 .218-.055.277-.065.287-.025.027-.087.072-.244.119a4 4 0 0 1-.258.062l-.025.005a4 4 0 0 0-.3.073c-.104.03-.285.091-.448.222a.93.93 0 0 0-.354.732v.715a.75.75 0 0 0 1.5 0v-.293c.09-.02.198-.045.31-.078.265-.078.628-.222.92-.538.31-.335.464-.779.464-1.306 0-.747-.339-1.338-.842-1.722-.483-.367-1.089-.528-1.658-.528s-1.175.16-1.658.528a2.11 2.11 0 0 0-.842 1.722.75.75 0 0 0 1.5 0c0-.253.099-.412.252-.528" clip-rule="evenodd"/></svg>