<svg xmlns="http://www.w3.org/2000/svg" width="32" height="32" fill="none" class="persona-icon" viewBox="0 0 32 32"><path fill="currentColor" fill-rule="evenodd" d="M7.535 8.002c0-1.657 1.364-3 3.048-3h5.758v4.334c0 2.025 1.668 3.666 3.726 3.666h5.419c.405 0 .77-.236.932-.601a.988.988 0 0 0-.19-1.081l-6.783-7.153a3.754 3.754 0 0 0-2.724-1.165h-6.138c-2.806 0-5.08 2.239-5.08 5v16c0 2.762 2.274 5 5.08 5h2.71c.56 0 1.016-.447 1.016-1 0-.552-.455-1-1.016-1h-2.71c-1.684 0-3.048-1.343-3.048-3zm15.498 3h-2.966c-.936 0-1.694-.746-1.694-1.666v-2.92z" clip-rule="evenodd"/><path fill="currentColor" fill-rule="evenodd" d="M28.502 22.002a7 7 0 1 1-14 0 7 7 0 0 1 14 0m-7-4.348c-.625 0-1.31.128-1.871.456-.586.343-1.076.94-1.076 1.792a.848.848 0 1 0 1.696 0c0-.068.016-.118.044-.162a.551.551 0 0 1 .192-.165c.227-.133.591-.225 1.016-.225.424 0 .789.092 1.016.225a.55.55 0 0 1 .192.166.283.283 0 0 1 .044.161c0 .367-.14.58-.332.723-.22.166-.553.27-.92.27a.848.848 0 0 0-.849.848v.96a.848.848 0 0 0 1.697 0v-.214c.383-.095.762-.26 1.094-.51.605-.456 1.006-1.164 1.006-2.077 0-.852-.49-1.45-1.077-1.792-.56-.328-1.246-.456-1.871-.456m-1.024 7.848a1.023 1.023 0 1 0 2.047 0 1.023 1.023 0 0 0-2.047 0" clip-rule="evenodd"/></svg>