<svg xmlns="http://www.w3.org/2000/svg" width="20" height="20" fill="none" class="persona-icon" viewBox="0 0 20 20"><path fill="currentColor" fill-rule="evenodd" d="M12.327 2.2h2.715a2.76 2.76 0 0 1 2.759 2.758v2.715a.625.625 0 0 1-1.25 0V4.958c0-.833-.675-1.509-1.509-1.509h-2.715a.625.625 0 0 1 0-1.25M10.54 5.345c0-.346.28-.625.625-.625h3.49c.346 0 .626.28.626.625v3.49c0 .346-.28.626-.625.626h-3.491a.625.625 0 0 1-.625-.625zm-5.818 0c0-.346.28-.625.625-.625h3.49c.345 0 .625.28.625.625v3.49c0 .346-.28.626-.625.626h-3.49a.625.625 0 0 1-.625-.625zm0 5.818c0-.345.28-.625.625-.625h3.49c.345 0 .625.28.625.625v3.49c0 .346-.28.626-.625.626h-3.49a.625.625 0 0 1-.625-.625zm6.443-.625c.345 0 .625.28.625.625v1.12h.926a.625.625 0 0 1 0 1.25h-.926v1.12a.625.625 0 1 1-1.25 0v-3.49c0-.345.28-.625.625-.625m1.939 0h1.552a.625.625 0 0 1 .625.625v.776a.625.625 0 0 1-1.25 0v-.151h-.927a.625.625 0 0 1 0-1.25m1.552 2.715c.345 0 .625.28.625.625v.776a.625.625 0 0 1-.625.625h-1.552a.625.625 0 1 1 0-1.25h.927v-.151c0-.345.28-.625.625-.625m-2.866-7.283v2.24h2.24v-2.24zm-5.818 0v2.24h2.24v-2.24zm0 5.818v2.24h2.24v-2.24z" clip-rule="evenodd"/></svg>