<svg xmlns="http://www.w3.org/2000/svg" width="20" height="20" fill="none" class="persona-icon" viewBox="0 0 20 20"><path fill="currentColor" fill-rule="evenodd" d="M3 3.6a.6.6 0 0 1 .6-.6h10.667A2.733 2.733 0 0 1 17 5.733V16.4a.6.6 0 1 1-1.2 0V5.733c0-.846-.687-1.533-1.533-1.533H3.6a.6.6 0 0 1-.6-.6Zm1.422 2.844a.6.6 0 0 1 .6-.6h3.2a.6.6 0 0 1 .6.6v3.2a.6.6 0 0 1-.6.6h-3.2a.6.6 0 0 1-.6-.6v-3.2Zm0 5.334a.6.6 0 0 1 .6-.6h3.2a.6.6 0 0 1 .6.6v3.2a.6.6 0 0 1-.6.6h-3.2a.6.6 0 0 1-.6-.6v-3.2Zm1.2-4.734v2h2v-2h-2Zm0 5.334v2h2v-2h-2Zm5.311 2a.6.6 0 0 0-1.179.16v.44a.6.6 0 0 0 .6.6h1.061a.6.6 0 0 0 0-1.2h-.482ZM9.755 6.444a.6.6 0 0 1 .6-.6h3.2a.6.6 0 0 1 .6.6v3.2a.6.6 0 0 1-.6.6h-3.2a.6.6 0 0 1-.6-.6v-3.2Zm.6 4.734a.6.6 0 0 1 .6.6v.759h1.085a.6.6 0 0 1 .6.6v.56a.6.6 0 0 1-1.198.04h-1.087a.6.6 0 0 1-.6-.6v-1.36a.6.6 0 0 1 .6-.6Zm.6-4.134v2h2v-2h-2Zm.515 4.734a.6.6 0 0 1 .6-.6h1.485a.6.6 0 0 1 .6.6v1.103a.6.6 0 0 1-1.2 0v-.503h-.885a.6.6 0 0 1-.6-.6Zm2.085 1.889a.6.6 0 0 1 .6.6v.71a.6.6 0 0 1-.6.6h-.711a.6.6 0 1 1 0-1.2h.111v-.11a.6.6 0 0 1 .6-.6Z" clip-rule="evenodd"/></svg>