<svg xmlns="http://www.w3.org/2000/svg" width="24" height="24" fill="none" class="persona-icon" viewBox="0 0 24 24"><path fill="currentColor" fill-rule="evenodd" d="M15 2h3.5A3.5 3.5 0 0 1 22 5.5V9a.75.75 0 0 1-1.5 0V5.5a2 2 0 0 0-2-2H15A.75.75 0 0 1 15 2m-2.25 4a.75.75 0 0 1 .75-.75H18a.75.75 0 0 1 .75.75v4.5a.75.75 0 0 1-.75.75h-4.5a.75.75 0 0 1-.75-.75zm-7.5 0A.75.75 0 0 1 6 5.25h4.5a.75.75 0 0 1 .75.75v4.5a.75.75 0 0 1-.75.75H6a.75.75 0 0 1-.75-.75zm0 7.5a.75.75 0 0 1 .75-.75h4.5a.75.75 0 0 1 .75.75V18a.75.75 0 0 1-.75.75H6a.75.75 0 0 1-.75-.75zm8.25-.75a.75.75 0 0 1 .75.75V15h1.25a.75.75 0 0 1 0 1.5h-1.25V18a.75.75 0 0 1-1.5 0v-4.5a.75.75 0 0 1 .75-.75m2.5 0h2a.75.75 0 0 1 .75.75v1a.75.75 0 0 1-1.5 0v-.25H16a.75.75 0 0 1 0-1.5m2 3.5a.75.75 0 0 1 .75.75v1a.75.75 0 0 1-.75.75h-2a.75.75 0 0 1 0-1.5h1.25V17a.75.75 0 0 1 .75-.75m-3.75-9.5v3h3v-3zm-7.5 0v3h3v-3zm0 7.5v3h3v-3z" clip-rule="evenodd"/></svg>