<svg xmlns="http://www.w3.org/2000/svg" width="32" height="32" fill="none" class="persona-icon" viewBox="0 0 32 32"><path fill="currentColor" d="M4 5a1 1 0 0 1 1-1h18.333A4.667 4.667 0 0 1 28 8.667V27a1 1 0 1 1-2 0V8.667A2.667 2.667 0 0 0 23.333 6H5a1 1 0 0 1-1-1Zm2.443 4.889v5.5a1 1 0 0 0 1 1h5.5a1 1 0 0 0 1-1v-5.5a1 1 0 0 0-1-1h-5.5a1 1 0 0 0-1 1Zm0 9.166v5.5a1 1 0 0 0 1 1h5.5a1 1 0 0 0 1-1v-5.5a1 1 0 0 0-1-1h-5.5a1 1 0 0 0-1 1Zm2-8.166v3.5h3.5v-3.5h-3.5Zm0 9.166v3.5h3.5v-3.5h-3.5Zm9.136 3.5a1 1 0 0 0-1.97.243v.758a1 1 0 0 0 1 1h1.824a1 1 0 1 0 0-2h-.854ZM15.61 9.89v5.5a1 1 0 0 0 1 1h5.5a1 1 0 0 0 1-1v-5.5a1 1 0 0 0-1-1h-5.5a1 1 0 0 0-1 1Zm1 8.166a1 1 0 0 0-1 1v2.336a1 1 0 0 0 1 1h1.898a1 1 0 0 0 2-.035v-.965a1 1 0 0 0-1-1h-1.898v-1.335a1 1 0 0 0-1-1Zm1-7.166v3.5h3.5v-3.5h-3.5Zm.947 8.166a1 1 0 0 0 1 1h1.554v.896a1 1 0 1 0 2 0v-1.896a1 1 0 0 0-1-1h-2.554a1 1 0 0 0-1 1Zm3.553 3.278a1 1 0 0 0-1 1v.223h-.222a1 1 0 0 0 0 2h1.222a1 1 0 0 0 1-1v-1.223a1 1 0 0 0-1-1Z"/></svg>