<svg xmlns="http://www.w3.org/2000/svg" width="20" height="20" fill="none" class="persona-icon" viewBox="0 0 20 20"><path fill="currentColor" fill-rule="evenodd" d="M2.975 5.733a2.76 2.76 0 0 1 2.758-2.758h8.534a2.76 2.76 0 0 1 2.758 2.758v8.534a2.76 2.76 0 0 1-2.758 2.758H5.733a2.76 2.76 0 0 1-2.758-2.758zm2.801 3.642A2.177 2.177 0 0 0 3.6 11.552v2.52A2.327 2.327 0 0 0 5.927 16.4h2.521a2.176 2.176 0 0 0 2.177-2.176v-2.672c0-.374-.095-.726-.26-1.033l2.54-2.54v1.47a.625.625 0 1 0 1.25 0V6.47a.625.625 0 0 0-.626-.625H10.55a.625.625 0 0 0 0 1.25h1.47l-2.54 2.54a2.2 2.2 0 0 0-1.032-.26z" clip-rule="evenodd"/></svg>