<svg xmlns="http://www.w3.org/2000/svg" width="24" height="24" fill="none" class="persona-icon" viewBox="0 0 24 24"><path fill="currentColor" d="M17.5 3C19.43 3 21 4.57 21 6.5v11c0 1.93-1.57 3.5-3.5 3.5h-11C4.57 21 3 19.43 3 17.5v-11C3 4.57 4.57 3 6.5 3zm-.2 8.29V7.45c0-.41-.34-.75-.75-.75h-3.84c-.41 0-.75.34-.75.75s.34.75.75.75h2.03l-3.41 3.41c-.39-.22-.84-.36-1.33-.36H6.5c-1.52 0-2.75 1.23-2.75 2.75v3.25c0 1.66 1.34 3 3 3H10c1.52 0 2.75-1.23 2.75-2.75V14c0-.48-.14-.93-.36-1.33l3.41-3.41v2.03c0 .41.34.75.75.75s.75-.34.75-.75"/></svg>