<svg xmlns="http://www.w3.org/2000/svg" width="16" height="16" fill="none" class="persona-icon" viewBox="0 0 16 16"><path fill="currentColor" fill-rule="evenodd" d="M10.28 12.167a2.333 2.333 0 0 1-4.56 0H2.5a.5.5 0 0 1-.416-.777l.998-1.501c.107-.162.178-.345.208-.537l.593-3.818c.731-4.712 7.503-4.712 8.234 0l.593 3.818c.03.192.1.375.208.537l.998 1.5a.5.5 0 0 1-.416.778zm.849-6.48c-.556-3.583-5.702-3.583-6.258 0l-.593 3.819a2.3 2.3 0 0 1-.363.937l-.482.724h9.134l-.482-.724a2.3 2.3 0 0 1-.363-.937zm-1.893 6.48H6.764a1.333 1.333 0 0 0 2.472 0" clip-rule="evenodd"/></svg>