<svg xmlns="http://www.w3.org/2000/svg" width="20" height="20" fill="none" class="persona-icon" viewBox="0 0 20 20"><path fill="currentColor" fill-rule="evenodd" d="M13.007 15.533H17.4a.6.6 0 0 0 .5-.932l-1.343-2.02a1.876 1.876 0 0 1-.292-.75l-.797-5.138c-.971-6.257-9.965-6.257-10.936 0l-.797 5.138a1.876 1.876 0 0 1-.292.75L2.1 14.602a.6.6 0 0 0 .5.932h4.393a3.067 3.067 0 0 0 6.014 0Zm1.275-8.656.797 5.138c.069.44.232.86.478 1.231l.723 1.087H3.72l.723-1.087c.246-.37.41-.791.478-1.231l.797-5.138c.761-4.903 7.803-4.903 8.564 0Zm-2.514 8.656H8.232a1.866 1.866 0 0 0 3.536 0Z" clip-rule="evenodd"/></svg>