<svg xmlns="http://www.w3.org/2000/svg" width="24" height="24" fill="none" class="persona-icon" viewBox="0 0 24 24"><path fill="currentColor" fill-rule="evenodd" d="M15.419 18.25h4.831a.75.75 0 0 0 .625-1.165l-1.498-2.252a2 2 0 0 1-.312-.805l-.89-5.727c-1.096-7.068-11.254-7.068-12.35 0l-.89 5.727a2 2 0 0 1-.312.805l.615.41-.615-.41-1.497 2.252a.75.75 0 0 0 .624 1.165h4.831a3.5 3.5 0 0 0 6.838 0m1.274-9.72.89 5.729c.077.502.264.982.545 1.405l.722 1.086H5.15l.722-1.086a3.5 3.5 0 0 0 .546-1.405l.888-5.728c.834-5.375 8.554-5.375 9.388 0m-6.547 9.72h3.708a2 2 0 0 1-3.708 0" clip-rule="evenodd"/></svg>