<svg xmlns="http://www.w3.org/2000/svg" width="32" height="32" fill="none" class="persona-icon" viewBox="0 0 32 32"><path fill="currentColor" fill-rule="evenodd" d="M20.558 24.333a4.667 4.667 0 0 1-9.116 0H5a1 1 0 0 1-.833-1.553l1.997-3.002c.215-.323.357-.69.416-1.073l1.186-7.638c1.462-9.423 15.006-9.423 16.468 0l1.186 7.638c.06.384.201.75.416 1.073l1.997 3.002A1 1 0 0 1 27 24.333zm1.7-12.959c-1.112-7.165-11.404-7.165-12.516 0l-1.185 7.637a4.7 4.7 0 0 1-.728 1.875l-.963 1.447h18.268l-.963-1.447a4.7 4.7 0 0 1-.728-1.875zm-3.786 12.96h-4.944a2.666 2.666 0 0 0 4.944 0" clip-rule="evenodd"/></svg>