<svg xmlns="http://www.w3.org/2000/svg" width="32" height="32" fill="none"><path fill="currentColor" d="M11.103 25.002h-7.1a1 1 0 0 1-.833-1.553l2.177-3.275c.242-.363.402-.775.47-1.207l1.292-8.332C8.69.458 23.316.458 24.895 10.635l1.293 8.332c.067.432.227.844.469 1.207l2.178 3.274a1 1 0 0 1-.833 1.554h-7.1a5 5 0 0 1-9.799 0Zm-2.018-14.06-1.293 8.331a5.014 5.014 0 0 1-.78 2.009l-1.144 1.72h20.268l-1.144-1.72a5.014 5.014 0 0 1-.78-2.009l-1.293-8.331c-1.23-7.92-12.604-7.92-13.834 0Zm4.089 14.06a2.999 2.999 0 0 0 5.657 0h-5.657Z"/></svg>