<svg xmlns="http://www.w3.org/2000/svg" width="20" height="20" fill="none" class="persona-icon" viewBox="0 0 20 20"><path fill="currentColor" d="M3.977 3.158a.625.625 0 0 0-.884.884l2.933 2.933H3.823c-1.02 0-1.848.828-1.848 1.848v2.354c0 1.02.827 1.848 1.848 1.848h1.842l4.73 3.288a.625.625 0 0 0 .983-.513v-3.473l4.515 4.515a.625.625 0 1 0 .884-.884zM11.042 3.647a.63.63 0 0 1 .336.553V8a.625.625 0 0 1-1.084.425l-2.14-2.313a.625.625 0 0 1 .102-.937l2.14-1.488a.63.63 0 0 1 .646-.04M13.876 5.442a.625.625 0 0 1 .814-.344 5.38 5.38 0 0 1 2.422 1.949c.595.872.913 1.9.913 2.95a5.24 5.24 0 0 1-1.462 3.635.625.625 0 0 1-.904-.864q.232-.243.422-.522a4 4 0 0 0 .694-2.248c0-.799-.242-1.58-.696-2.247a4.13 4.13 0 0 0-1.86-1.495.625.625 0 0 1-.343-.815"/><path fill="currentColor" d="M12.412 7.523a.625.625 0 0 1 .763-.445c.65.17 1.228.548 1.64 1.076.414.528.639 1.177.639 1.846s-.225 1.318-.638 1.846a.625.625 0 1 1-.985-.77c.243-.31.373-.688.373-1.076s-.13-.766-.373-1.076a1.82 1.82 0 0 0-.974-.637.625.625 0 0 1-.445-.764"/></svg>