<svg xmlns="http://www.w3.org/2000/svg" width="24" height="24" fill="none" class="persona-icon" viewBox="0 0 24 24"><path fill="currentColor" d="m4.203 3.22 16.5 16.5a.75.75 0 1 1-1.06 1.06l-5.952-5.952v4.422a.75.75 0 0 1-1.179.616l-5.92-4.116H4.278A2.28 2.28 0 0 1 2 13.471V10.53A2.28 2.28 0 0 1 4.279 8.25h2.833l-3.97-3.97a.75.75 0 1 1 1.061-1.06M13.288 4.085a.75.75 0 0 1 .403.665V9.5a.75.75 0 0 1-1.3.51L9.714 7.118a.75.75 0 0 1 .123-1.125l2.675-1.86a.75.75 0 0 1 .775-.049M16.874 6.313a.75.75 0 0 1 .977-.413 6.7 6.7 0 0 1 3.013 2.426A6.52 6.52 0 0 1 22 11.997a6.52 6.52 0 0 1-1.819 4.521.75.75 0 0 1-1.085-1.036q.293-.305.531-.656c.57-.839.874-1.823.873-2.828 0-1.005-.304-1.99-.875-2.827a5.2 5.2 0 0 0-2.339-1.88.75.75 0 0 1-.412-.978"/><path fill="currentColor" d="M15.044 8.911a.75.75 0 0 1 .916-.534c.807.212 1.523.68 2.035 1.335s.79 1.459.79 2.288-.278 1.633-.79 2.288a.75.75 0 0 1-1.182-.924c.307-.393.473-.872.473-1.364s-.166-.971-.473-1.364a2.3 2.3 0 0 0-1.234-.808.75.75 0 0 1-.535-.917"/></svg>