<svg xmlns="http://www.w3.org/2000/svg" width="32" height="32" fill="none" class="persona-icon" viewBox="0 0 32 32"><path fill="currentColor" d="m5.604 4.293 22 22a1 1 0 0 1-1.414 1.414l-7.869-7.869v6.351a1 1 0 0 1-1.57.821l-8.336-5.794H5.148A3.15 3.15 0 0 1 2 18.068v-4.136a3.15 3.15 0 0 1 3.148-3.148h4.119L4.19 5.707a1 1 0 1 1 1.414-1.414M17.785 4.925a1 1 0 0 1 .536.886v6.676a1 1 0 0 1-1.734.679l-3.76-4.063a1 1 0 0 1 .164-1.5l3.76-2.613a1 1 0 0 1 1.034-.065M22.899 8.028a1 1 0 0 1 1.303-.55 9.35 9.35 0 0 1 4.21 3.39A9.1 9.1 0 0 1 30 15.995a9.1 9.1 0 0 1-1.583 5.13 9 9 0 0 1-.959 1.186 1 1 0 1 1-1.446-1.381q.413-.433.751-.93A7.1 7.1 0 0 0 28 15.998a7.1 7.1 0 0 0-1.24-4.003 7.35 7.35 0 0 0-3.31-2.663 1 1 0 0 1-.551-1.303"/><path fill="currentColor" d="M20.33 11.673a1 1 0 0 1 1.221-.713 5.3 5.3 0 0 1 2.83 1.857c.713.911 1.1 2.03 1.1 3.183a5.17 5.17 0 0 1-1.1 3.183 1 1 0 1 1-1.575-1.232c.44-.562.676-1.248.676-1.951s-.237-1.389-.676-1.95a3.3 3.3 0 0 0-1.763-1.155 1 1 0 0 1-.713-1.222"/></svg>