<svg xmlns="http://www.w3.org/2000/svg" width="16" height="16" fill="none" class="persona-icon" viewBox="0 0 16 16"><path fill="currentColor" d="M6.853 12.706A5.853 5.853 0 1 1 6.853 1a5.853 5.853 0 0 1 0 11.706ZM2 6.853a4.853 4.853 0 1 0 9.706 0 4.853 4.853 0 0 0-9.706 0Z"/><path fill="currentColor" d="M10.323 10.323a.5.5 0 0 1 .707 0l3.824 3.823a.5.5 0 0 1-.708.708l-3.823-3.824a.5.5 0 0 1 0-.707ZM3.853 6.853c0-.276.24-.5.537-.5h4.926c.297 0 .537.224.537.5s-.24.5-.537.5H4.39c-.297 0-.537-.224-.537-.5Z"/></svg>