<svg xmlns="http://www.w3.org/2000/svg" width="32" height="32" fill="none" class="persona-icon" viewBox="0 0 32 32"><path fill="currentColor" fill-rule="evenodd" d="M13.706 25.412C7.24 25.412 2 20.17 2 13.706S7.24 2 13.706 2s11.706 5.24 11.706 11.706-5.241 11.706-11.706 11.706M4 13.706c0 5.36 4.345 9.706 9.706 9.706s9.706-4.346 9.706-9.706S19.066 4 13.706 4 4 8.345 4 13.706" clip-rule="evenodd"/><path fill="currentColor" fill-rule="evenodd" d="M20.646 20.646a1 1 0 0 1 1.414 0l7.647 7.647a1 1 0 0 1-1.414 1.414l-7.647-7.647a1 1 0 0 1 0-1.414M8.206 13.706c0-.552.44-1 .984-1h9.032c.543 0 .984.448.984 1s-.44 1-.984 1H9.19a.99.99 0 0 1-.984-1" clip-rule="evenodd"/></svg>