<svg xmlns="http://www.w3.org/2000/svg" width="20" height="20" fill="none" class="persona-icon" viewBox="0 0 20 20"><path fill="currentColor" fill-rule="evenodd" d="M5.225 5.371c0-.933.756-1.689 1.69-1.689h3.232v2.461c0 1.197.97 2.168 2.168 2.168h2.46v3.238a.625.625 0 1 0 1.25 0V8.294c0-.55-.208-1.078-.583-1.48l-3.448-3.693a2.17 2.17 0 0 0-1.585-.689H6.914a2.94 2.94 0 0 0-2.94 2.94v6.177a.625.625 0 1 0 1.25 0zm8.737 1.69h-1.647a.92.92 0 0 1-.918-.918v-1.83z" clip-rule="evenodd"/><path fill="currentColor" d="M3.31 17.01c0-.192.103-.351.262-.422a.4.4 0 0 1 .147-.032c.064-.006.134.026.21.026.339 0 .473-.172.473-.504v-2.392h-.523a.496.496 0 0 1-.485-.498c0-.268.217-.498.485-.498h1.193c.268 0 .465.21.465.479v2.915c0 1.123-.606 1.493-1.352 1.493-.191 0-.434-.032-.612-.134a.47.47 0 0 1-.262-.434M9.485 14.375c0 .976-.542 1.729-1.595 1.729h-.485v.9a.57.57 0 0 1-.567.573.575.575 0 0 1-.568-.574v-3.745c0-.313.255-.568.568-.568h1.02c1.098 0 1.627.721 1.627 1.685m-1.83-.702h-.25v1.46h.224c.53 0 .72-.248.72-.752 0-.453-.146-.708-.695-.708M12.387 13.654h-1.225v.97h1.034a.466.466 0 1 1 0 .93h-1.033v.99h1.224a.48.48 0 0 1 .485.478.485.485 0 0 1-.485.485h-1.792a.575.575 0 0 1-.568-.574v-3.675c0-.313.255-.568.568-.568h1.792a.48.48 0 0 1 .485.479.485.485 0 0 1-.485.485M16.224 14.674c.255 0 .466.205.466.466v1.716a.61.61 0 0 1-.46.606 4 4 0 0 1-.976.115c-1.122 0-1.965-.51-1.965-1.99v-.938c0-1.404.874-2.022 2.036-2.022.363 0 .81.044 1.078.23.14.095.223.229.223.407 0 .281-.198.479-.46.479a1 1 0 0 1-.19-.026c-.147-.038-.307-.102-.55-.102-.452 0-1.001.16-1.001.925v1.13c0 .733.427.95.887.95.083 0 .204-.006.312-.019v-.976h-.16a.466.466 0 0 1-.465-.472c0-.262.204-.479.466-.479z"/></svg>