<svg xmlns="http://www.w3.org/2000/svg" width="32" height="32" fill="none"><path fill="#000" fill-rule="evenodd" d="M17.889 16a1 1 0 0 1 1-1H29a1 1 0 0 1 1 1v13a1 1 0 0 1-1 1H18.889a1 1 0 0 1-1-1V16Zm2 1v11H28V17h-8.111ZM3 21.333a1 1 0 0 1-1-1V16a1 1 0 0 1 1-1h11.556a1 1 0 0 1 1 1v4.333a1 1 0 0 1-1 1H3Zm1-2h9.556V17H4v2.333ZM3 30a1 1 0 0 1-1-1v-4.333a1 1 0 0 1 1-1h11.556a1 1 0 0 1 1 1V29a1 1 0 0 1-1 1H3Zm1-2h9.556v-2.333H4V28ZM3 12.667a1 1 0 0 1-1-1V3a1 1 0 0 1 1-1h26a1 1 0 0 1 1 1v8.667a1 1 0 0 1-1 1H3Zm1-2h24V4H4v6.667Z" clip-rule="evenodd"/></svg>