<svg xmlns="http://www.w3.org/2000/svg" width="24" height="24" fill="none"><path fill="currentColor" d="M10.226 3.892a6.54 6.54 0 0 1 1.853-.392l.008 13.39a1.515 1.515 0 0 1-.092.357c-.306.823-.866 1.559-1.564 2.229a7.367 7.367 0 0 1-2.37 1.521 7.615 7.615 0 0 1-2.046.503L6 9.92a6.358 6.358 0 0 1 .523-2.532c.346-.801.854-1.524 1.49-2.125a6.51 6.51 0 0 1 2.213-1.37ZM17.203 14.195a6.572 6.572 0 0 1-3.598 1.883l-.016-12.503a6.524 6.524 0 0 1 3.61 1.86A6.243 6.243 0 0 1 19 9.807a6.281 6.281 0 0 1-1.797 4.387Z"/></svg>