<svg xmlns="http://www.w3.org/2000/svg" width="32" height="32" fill="none"><path fill="#000" fill-rule="evenodd" d="M13.044 3.584a7.772 7.772 0 0 1 8.417 1.662 7.664 7.664 0 0 1 1.674 2.487c.388.93.588 1.927.588 2.934h-2.015a5.632 5.632 0 0 0-1.672-4.007 5.745 5.745 0 0 0-8.073 0 5.632 5.632 0 0 0-1.672 4.007H8.278c0-1.007.2-2.004.588-2.934a7.664 7.664 0 0 1 1.674-2.487 7.729 7.729 0 0 1 2.505-1.662Z" clip-rule="evenodd"/><path fill="#000" fill-rule="evenodd" d="M4.85 13.98c.345-2.472 2.475-4.313 4.99-4.313h12.32c2.515 0 4.645 1.841 4.99 4.314l1.302 9.333C28.87 26.32 26.518 29 23.462 29H8.538c-3.057 0-5.409-2.68-4.99-5.686l1.302-9.333Zm4.99-2.313a3.015 3.015 0 0 0-2.994 2.588l-1.302 9.333C5.293 25.392 6.704 27 8.538 27h14.924c1.834 0 3.245-1.608 2.994-3.412l-1.302-9.333a3.015 3.015 0 0 0-2.993-2.588H9.839Z" clip-rule="evenodd"/><path fill="#000" fill-rule="evenodd" d="M10.963 14.667c0-.553.451-1 1.008-1h8.058c.557 0 1.008.447 1.008 1 0 .552-.451 1-1.008 1h-8.058a1.004 1.004 0 0 1-1.008-1Z" clip-rule="evenodd"/></svg>