<svg xmlns="http://www.w3.org/2000/svg" width="16" height="16" fill="none" class="persona-icon" viewBox="0 0 16 16"><path fill="currentColor" fill-rule="evenodd" d="M12.778 2.5a.5.5 0 0 0-.835-.372v.001l-.006.005-.024.02-.095.083a15.995 15.995 0 0 1-1.644 1.217c-1.06.681-2.329 1.296-3.396 1.296H4.944a2.33 2.33 0 0 0-2.19 1.53c-.344.025-.534.297-.612.453A1.5 1.5 0 0 0 2 7.39V8c0 .23.046.462.142.656.078.156.268.428.611.453.106.288.266.55.47.77v2.705a1.417 1.417 0 0 0 2.833 0v-1.945h.722c.503 0 1.072.175 1.667.472.59.295 1.172.694 1.69 1.102a16.5 16.5 0 0 1 1.742 1.59l.024.026.006.006v.001a.5.5 0 0 0 .87-.336V9.111h.112C13.503 9.111 14 8.614 14 8v-.611c0-.614-.498-1.111-1.111-1.111h-.111zM3.61 8.306V7.083c0-.736.597-1.333 1.333-1.333h1.334v3.889H4.944a1.333 1.333 0 0 1-1.333-1.333m1.333 2.333h.112v1.945a.417.417 0 0 1-.834 0v-2.059q.343.113.722.114m3.948-.422c-.512-.256-1.06-.46-1.614-.54V5.718c1.227-.15 2.487-.813 3.437-1.423.405-.26.767-.52 1.063-.746v8.751a17 17 0 0 0-1.025-.875c-.55-.432-1.19-.874-1.861-1.21" clip-rule="evenodd"/></svg>