<svg xmlns="http://www.w3.org/2000/svg" width="16" height="16" fill="none" class="persona-icon" viewBox="0 0 16 16"><path fill="currentColor" fill-rule="evenodd" d="M3.301 6.51c.32-.746 1.136-1.276 2.094-1.276h1.737c.888 0 1.936-.4 2.873-.896a14.897 14.897 0 0 0 1.912-1.216c.386-.292.925-.018.925.377v3.01h.08c.595 0 1.078.426 1.078.95v.51c0 .526-.483.951-1.079.951h-.079v3.503c0 .414-.592.687-.966.342-.26-.24-1-.895-1.918-1.488-.941-.608-1.97-1.082-2.827-1.082h-.657v1.6C6.474 12.46 5.86 13 5.105 13s-1.368-.54-1.368-1.205V9.547A1.947 1.947 0 0 1 3.3 8.92H3.08C2.483 8.92 2 8.495 2 7.97v-.51c0-.525.483-.95 1.079-.95zm3.33-.395H5.396c-.68 0-1.23.482-1.237 1.08v1.04c.006.597.558 1.08 1.237 1.08h1.237zm-1.894 3.993v1.687c0 .179.165.324.368.324.204 0 .369-.145.369-.324v-1.6h-.08c-.228 0-.45-.03-.657-.087m5.783-5.015c-.834.44-1.87.879-2.888.993V9.35c1.04.14 2.087.682 2.917 1.218.494.319.938.653 1.293.94V4.302c-.36.239-.814.521-1.322.79" clip-rule="evenodd"/></svg>