<svg xmlns="http://www.w3.org/2000/svg" width="20" height="20" fill="none" class="persona-icon" viewBox="0 0 20 20"><path fill="currentColor" fill-rule="evenodd" d="M15.232 3.03c.226.1.37.323.37.57v4.353h.087c.738 0 1.336.598 1.336 1.336V10c0 .738-.598 1.336-1.336 1.336h-.086V16.4a.625.625 0 0 1-1.088.42l-.007-.008-.028-.03-.111-.117a19.217 19.217 0 0 0-1.91-1.73c-.603-.472-1.278-.934-1.96-1.276-.69-.344-1.242-.545-1.818-.545h-.9v2.22a1.692 1.692 0 0 1-3.384 0v-3.13a2.8 2.8 0 0 1-.533-.873c-.404-.043-.628-.367-.719-.549a1.8 1.8 0 0 1-.17-.782V9.29c0-.272.054-.55.17-.782.091-.182.315-.506.719-.55a2.76 2.76 0 0 1 2.58-1.782h2.134c1.229 0 2.697-.709 3.929-1.5a18.5 18.5 0 0 0 2.018-1.509l.027-.024.007-.006a.63.63 0 0 1 .673-.107m-7.28 4.395H6.445c-.832 0-1.508.675-1.508 1.508v1.423c0 .833.676 1.508 1.508 1.508h1.509zm-2.305 5.572v2.337a.442.442 0 1 0 .884 0v-2.22h-.087q-.417 0-.797-.117m3.556-5.614v4.53q.116.018.23.042a6.7 6.7 0 0 1 1.624.586c.784.392 1.532.908 2.174 1.412.42.33.8.66 1.122.954V4.909a20 20 0 0 1-1.17.817c-1.097.705-2.554 1.472-3.98 1.657" clip-rule="evenodd"/></svg>