<svg xmlns="http://www.w3.org/2000/svg" width="24" height="24" fill="none" class="persona-icon" viewBox="0 0 24 24"><path fill="currentColor" fill-rule="evenodd" d="M19.167 3.75a.75.75 0 0 0-1.252-.558l-.002.002-.008.007-.035.031-.144.124a23.98 23.98 0 0 1-2.465 1.826c-1.589 1.02-3.493 1.943-5.094 1.943h-2.75c-1.51 0-2.796.955-3.287 2.294-.514.039-.8.447-.917.68a2.2 2.2 0 0 0-.213.984V12c0 .344.068.693.213.984.117.233.403.642.917.68.158.431.399.823.703 1.156v4.055a2.125 2.125 0 0 0 4.25 0v-2.917h1.084c.754 0 1.608.263 2.5.709.885.442 1.758 1.04 2.536 1.652a25 25 0 0 1 2.613 2.386l.036.039.008.009.002.002a.75.75 0 0 0 1.305-.505v-6.583h.166c.92 0 1.667-.746 1.667-1.667v-.917c0-.92-.746-1.666-1.667-1.666h-.166zm-13.75 6.874a2 2 0 0 1 2-1.999h2v5.833h-2a2 2 0 0 1-2-1.999zm2 5.335h.166v2.916a.625.625 0 1 1-1.25 0v-3.087c.341.11.706.17 1.084.17m5.921-.634c-.768-.383-1.591-.69-2.421-.81V8.577c1.84-.226 3.73-1.219 5.155-2.135.608-.39 1.15-.78 1.595-1.117v13.126c-.433-.4-.955-.856-1.537-1.313-.826-.648-1.786-1.31-2.792-1.814" clip-rule="evenodd"/></svg>