<svg xmlns="http://www.w3.org/2000/svg" width="32" height="32" fill="none" class="persona-icon" viewBox="0 0 32 32"><path fill="currentColor" fill-rule="evenodd" d="M25.556 5v7.556h.222c1.227 0 2.222.995 2.222 2.222V16a2.22 2.22 0 0 1-2.222 2.222h-.222V27a1 1 0 0 1-1.74.673l-.003-.003-.01-.012-.048-.051-.193-.203a33.11 33.11 0 0 0-3.291-2.979c-1.038-.815-2.202-1.613-3.381-2.203-1.19-.594-2.329-.944-3.334-.944H12.11v3.889a2.833 2.833 0 1 1-5.667 0V19.76a4.7 4.7 0 0 1-.938-1.542c-.685-.05-1.065-.595-1.221-.907C4.09 16.924 4 16.46 4 16v-1.222c0-.46.09-.924.285-1.312.155-.312.536-.856 1.221-.907A4.67 4.67 0 0 1 9.89 9.5h3.667c2.135 0 4.674-1.23 6.792-2.591a32 32 0 0 0 3.287-2.434q.128-.109.191-.165l.048-.042.01-.01.003-.001A1 1 0 0 1 25.556 5M7.222 14.165v2.448a2.667 2.667 0 0 0 2.667 2.665h2.667V11.5H9.889a2.667 2.667 0 0 0-2.667 2.665m2.667 7.113c-.504 0-.99-.08-1.445-.228v4.117a.833.833 0 1 0 1.667 0v-3.889zm7.895-.844c1.341.67 2.622 1.553 3.723 2.419a34 34 0 0 1 2.049 1.75V7.1c-.592.45-1.316.97-2.126 1.49-1.9 1.222-4.42 2.545-6.874 2.846v7.916c1.106.161 2.205.569 3.228 1.08" clip-rule="evenodd"/></svg>