<svg xmlns="http://www.w3.org/2000/svg" width="16" height="16" fill="none" class="persona-icon" viewBox="0 0 16 16"><path fill="currentColor" fill-rule="evenodd" d="M5.974 2a.5.5 0 0 1 .5.5v1.167h2.973a.5.5 0 1 1 0 1H8.14c-.175.847-.66 2.05-1.646 3.19.558.521 1.274.941 2.17 1.098a.5.5 0 1 1-.171.985 5.2 5.2 0 0 1-2.697-1.367 9 9 0 0 1-1.908 1.319.5.5 0 1 1-.46-.889A8 8 0 0 0 5.127 7.83c-.59-.771-.938-1.585-1.084-2.147a.5.5 0 1 1 .967-.252c.108.415.372 1.047.818 1.666.734-.885 1.118-1.784 1.285-2.43H2.5a.5.5 0 0 1 0-1h2.974V2.5a.5.5 0 0 1 .5-.5m5.21 5.79a.5.5 0 0 1 .457.296l2.316 5.21a.5.5 0 1 1-.914.407l-.64-1.44H9.965l-.64 1.44a.5.5 0 1 1-.913-.406l2.315-5.21a.5.5 0 0 1 .457-.297m-.774 3.473h1.549l-.775-1.742z" clip-rule="evenodd"/></svg>