<svg xmlns="http://www.w3.org/2000/svg" width="24" height="24" fill="none" class="persona-icon" viewBox="0 0 24 24"><path fill="currentColor" fill-rule="evenodd" d="M8.96 3a.75.75 0 0 1 .75.75v1.751h4.461a.75.75 0 1 1 0 1.5H12.21c-.263 1.27-.99 3.073-2.468 4.785.836.782 1.91 1.411 3.255 1.646a.75.75 0 0 1-.258 1.478c-1.694-.296-3.03-1.095-4.045-2.05a13.4 13.4 0 0 1-2.863 1.977.75.75 0 0 1-.689-1.332 11.9 11.9 0 0 0 2.548-1.76c-.885-1.157-1.407-2.378-1.626-3.22a.75.75 0 1 1 1.451-.379c.162.622.557 1.571 1.227 2.5C9.843 9.317 10.419 7.968 10.67 7H3.75a.75.75 0 0 1 0-1.5h4.46V3.75A.75.75 0 0 1 8.96 3m7.816 8.684a.75.75 0 0 1 .686.446l3.473 7.815a.75.75 0 0 1-1.37.61l-.96-2.16h-3.657l-.96 2.16a.75.75 0 0 1-1.37-.61l3.473-7.815a.75.75 0 0 1 .685-.446m-1.161 5.21h2.323l-1.162-2.613z" clip-rule="evenodd"/></svg>