<svg xmlns="http://www.w3.org/2000/svg" width="16" height="16" fill="none"><path fill="#000" fill-rule="evenodd" d="M3.757 2.792A5.942 5.942 0 0 1 8 1c1.591 0 3.117.644 4.243 1.792A6.178 6.178 0 0 1 14 7.117V11.355c0 1.428-1.135 2.585-2.536 2.585H9.838A1.16 1.16 0 0 1 8.693 15H7.307c-.635 0-1.15-.525-1.15-1.173v-.706c0-.648.515-1.173 1.15-1.173h1.386a1.16 1.16 0 0 1 1.145 1.059h1.626c.822 0 1.5-.624 1.606-1.432-.269.157-.58.247-.913.247-1.018 0-1.844-.842-1.844-1.88V8.53c0-1.038.826-1.88 1.844-1.88.336 0 .652.092.923.253a5.232 5.232 0 0 0-1.485-3.451A5.036 5.036 0 0 0 8 1.933a5.036 5.036 0 0 0-3.595 1.519A5.232 5.232 0 0 0 2.92 6.903c.271-.16.587-.252.923-.252 1.018 0 1.844.84 1.844 1.879v1.412c0 1.038-.826 1.88-1.844 1.88C2.825 11.822 2 10.98 2 9.942V7.117c0-1.622.632-3.178 1.757-4.325ZM2.915 8.53v1.412c0 .523.416.946.928.946a.937.937 0 0 0 .928-.946V8.53a.937.937 0 0 0-.928-.946.937.937 0 0 0-.928.946Zm9.242-.946a.937.937 0 0 0-.928.946v1.412c0 .523.415.946.928.946a.937.937 0 0 0 .928-.946V8.53a.937.937 0 0 0-.928-.946ZM7.072 13.12c0-.133.105-.24.235-.24h1.386c.13 0 .235.107.235.24v.706c0 .132-.105.24-.235.24H7.307a.237.237 0 0 1-.235-.24v-.706Z" clip-rule="evenodd"/></svg>