<svg xmlns="http://www.w3.org/2000/svg" width="32" height="32" fill="none"><path fill="#000" fill-rule="evenodd" d="M8.222 6.33C10.285 4.198 13.082 3 16 3c2.917 0 5.715 1.198 7.778 3.33C25.841 8.462 27 11.354 27 14.369v7.83c0 2.675-2.098 4.843-4.687 4.843h-2.906C19.276 28.146 18.366 29 17.263 29h-2.526c-1.193 0-2.16-1-2.16-2.234v-1.305c0-1.233.967-2.233 2.16-2.233h2.526c1.103 0 2.013.854 2.144 1.957h2.906c1.422 0 2.603-1.06 2.845-2.457-.473.255-1.011.4-1.582.4-1.89 0-3.424-1.585-3.424-3.54v-2.61c0-1.954 1.533-3.538 3.424-3.538.584 0 1.133.151 1.614.417a9.66 9.66 0 0 0-2.682-6.214C20.782 5.859 18.44 4.857 16 4.857c-2.44 0-4.782 1.002-6.508 2.786a9.66 9.66 0 0 0-2.682 6.214 3.321 3.321 0 0 1 1.614-.417c1.89 0 3.424 1.584 3.424 3.539v2.61c0 1.954-1.533 3.538-3.424 3.538S5 21.543 5 19.59v-5.22c0-3.015 1.159-5.907 3.222-8.04Zm9.405 19.775v-.644a.37.37 0 0 0-.364-.376h-2.526a.37.37 0 0 0-.364.376v1.305a.37.37 0 0 0 .364.377h2.526a.37.37 0 0 0 .364-.377v-.661ZM6.797 16.98v2.61c0 .928.728 1.681 1.627 1.681.898 0 1.627-.753 1.627-1.681v-2.61c0-.929-.729-1.682-1.627-1.682-.899 0-1.627.753-1.627 1.682Zm18.406 1.305v-1.317c-.006-.923-.732-1.67-1.627-1.67-.899 0-1.627.753-1.627 1.682v2.61c0 .928.728 1.681 1.627 1.681s1.627-.753 1.627-1.681v-1.305Z" clip-rule="evenodd"/></svg>