<svg xmlns="http://www.w3.org/2000/svg" width="16" height="16" fill="none"><path fill="currentColor" d="M6.629 7.486a.514.514 0 1 0 0 1.028H9.37a.514.514 0 1 0 0-1.028H6.63Z"/><path fill="currentColor" d="M2 5.257c0 .491.295.913.717 1.099-.02.088-.031.179-.031.273V12.8a1.2 1.2 0 0 0 1.2 1.2h8.228a1.2 1.2 0 0 0 1.2-1.2V6.629c0-.094-.01-.185-.03-.273A1.2 1.2 0 0 0 14 5.257V3.2A1.2 1.2 0 0 0 12.8 2H3.2A1.2 1.2 0 0 0 2 3.2v2.057Zm1.2.172a.171.171 0 0 1-.171-.172V3.2c0-.095.076-.171.171-.171h9.6c.095 0 .171.076.171.171v2.057a.171.171 0 0 1-.171.172H3.2Zm.514 1.2c0-.095.077-.172.172-.172h8.228c.095 0 .172.077.172.172V12.8a.171.171 0 0 1-.172.171H3.886a.171.171 0 0 1-.172-.171V6.629Z"/></svg>