<svg xmlns="http://www.w3.org/2000/svg" width="16" height="16" fill="none" class="persona-icon" viewBox="0 0 16 16"><path fill="currentColor" fill-rule="evenodd" d="M2 3.53c0-.655.532-1.187 1.188-1.187h9.625c.655 0 1.187.532 1.187 1.188v2.062c0 .478-.281.89-.687 1.078v5.797c0 .656-.532 1.188-1.188 1.188h-8.25a1.187 1.187 0 0 1-1.187-1.188V6.671A1.19 1.19 0 0 1 2 5.593zm1.688 3.25v5.688c0 .104.083.188.187.188h8.25a.187.187 0 0 0 .188-.188V6.781zm-.5-3.437A.19.19 0 0 0 3 3.531v2.062c0 .104.084.188.188.188h9.625A.187.187 0 0 0 13 5.593V3.531a.19.19 0 0 0-.187-.188zm2.937 5a.5.5 0 0 1 .5-.5h2.75a.5.5 0 0 1 0 1h-2.75a.5.5 0 0 1-.5-.5" clip-rule="evenodd"/></svg>