<svg xmlns="http://www.w3.org/2000/svg" width="20" height="20" fill="none" class="persona-icon" viewBox="0 0 20 20"><path fill="currentColor" fill-rule="evenodd" d="M2.975 4.8c0-.787.638-1.425 1.425-1.425h11.2c.787 0 1.425.638 1.425 1.425v2.4c0 .563-.326 1.05-.8 1.28v6.72c0 .787-.638 1.425-1.425 1.425H5.2A1.425 1.425 0 0 1 3.775 15.2V8.48a1.43 1.43 0 0 1-.8-1.28zM4.4 4.625a.175.175 0 0 0-.175.175v2.4c0 .097.079.175.175.175h11.2a.175.175 0 0 0 .175-.175V4.8a.175.175 0 0 0-.175-.175zm.625 4V15.2c0 .097.078.175.175.175h9.6a.175.175 0 0 0 .175-.175V8.625zm2.75 1.775c0 .345.28.625.625.625h3.2a.625.625 0 1 0 0-1.25H8.4a.625.625 0 0 0-.625.625" clip-rule="evenodd"/></svg>