<svg xmlns="http://www.w3.org/2000/svg" width="32" height="32" fill="none" class="persona-icon" viewBox="0 0 32 32"><path fill="currentColor" fill-rule="evenodd" d="M4 7.063a2.375 2.375 0 0 1 2.375-2.375h19.25A2.375 2.375 0 0 1 28 7.063v4.125c0 .954-.563 1.777-1.375 2.154v11.596a2.375 2.375 0 0 1-2.375 2.375H7.75a2.375 2.375 0 0 1-2.375-2.375V13.342A2.38 2.38 0 0 1 4 11.187zm2.375-.375A.375.375 0 0 0 6 7.063v4.125c0 .207.168.374.375.374h19.25a.375.375 0 0 0 .375-.374V7.062a.375.375 0 0 0-.375-.375zm1 6.875v11.375c0 .207.168.375.375.375h16.5a.375.375 0 0 0 .375-.375V13.563zm4.875 3.124a1 1 0 0 1 1-1h5.5a1 1 0 1 1 0 2h-5.5a1 1 0 0 1-1-1" clip-rule="evenodd"/></svg>