<svg xmlns="http://www.w3.org/2000/svg" width="16" height="16" fill="none" class="persona-icon" viewBox="0 0 16 16"><path fill="currentColor" fill-rule="evenodd" d="M1 8a7 7 0 1 1 14 0A7 7 0 0 1 1 8m7-6a6 6 0 1 0 0 12A6 6 0 0 0 8 2M4.611 6.195a.5.5 0 0 1 .5-.5h1.083a1.583 1.583 0 1 1 0 3.166h-.583v.945a.5.5 0 1 1-1 0zm3.611 0a.5.5 0 0 1 .5-.5h1.264A1.403 1.403 0 0 1 11.06 8a1.403 1.403 0 0 1-1.074 2.306H8.722a.5.5 0 0 1-.5-.5zM5.612 7.86h.582a.583.583 0 1 0 0-1.166h-.583zM9.985 7.5a.403.403 0 1 0 0-.806h-.764V7.5zm-.764 1v.806h.764a.403.403 0 0 0 0-.806z" clip-rule="evenodd"/></svg>