<svg xmlns="http://www.w3.org/2000/svg" width="16" height="16" fill="none" class="persona-icon" viewBox="0 0 16 16"><path fill="currentColor" fill-rule="evenodd" d="M2 8a6 6 0 1 1 12 0A6 6 0 0 1 2 8m6-5a5 5 0 1 0 0 10A5 5 0 0 0 8 3" clip-rule="evenodd"/><path fill="currentColor" d="M5.386 9.833a.43.43 0 0 1-.326-.123.5.5 0 0 1-.116-.354V6.644q0-.231.116-.354a.44.44 0 0 1 .33-.123h1.18q.577 0 .888.318.317.313.317.868t-.317.873q-.312.313-.887.313h-.744v.817q0 .225-.11.354-.11.123-.331.123m.441-2.018h.59q.25 0 .384-.113.135-.118.135-.35 0-.236-.135-.348-.134-.114-.384-.113h-.59zM8.647 9.787q-.225 0-.345-.123-.115-.129-.115-.365V6.655q0-.237.115-.36.12-.128.345-.128h1.17q.365 0 .62.118a.86.86 0 0 1 .393.323q.134.21.134.493a.87.87 0 0 1-.172.545.84.84 0 0 1-.46.308v-.082a.87.87 0 0 1 .532.297q.192.231.192.591 0 .477-.322.755-.316.272-.868.272zm.384-2.182h.628q.24 0 .35-.093.116-.092.116-.282t-.115-.278q-.11-.092-.35-.092H9.03zm0 1.489h.715q.244 0 .355-.098.115-.103.115-.303t-.115-.298q-.11-.097-.355-.097H9.03z"/></svg>