<svg xmlns="http://www.w3.org/2000/svg" width="20" height="20" fill="none" class="persona-icon" viewBox="0 0 20 20"><path fill="currentColor" fill-rule="evenodd" d="M1.975 10a8.025 8.025 0 1 1 16.05 0 8.025 8.025 0 0 1-16.05 0M10 3.225a6.775 6.775 0 1 0 0 13.55 6.775 6.775 0 0 0 0-13.55m.197 4.72c0-.346.28-.626.625-.626h1.44A1.653 1.653 0 0 1 13.555 10a1.653 1.653 0 0 1-1.294 2.68l-1.44.001a.625.625 0 0 1-.625-.625zm-4.11 0c0-.346.279-.626.624-.626h1.234a1.858 1.858 0 0 1 0 3.717h-.609v1.02a.625.625 0 1 1-1.25 0zm6.174 1.43a.403.403 0 0 0 0-.806h-.814v.806zm-.814 1.25v.805h.814a.403.403 0 1 0 0-.805zm-4.11-.839h.608a.608.608 0 0 0 0-1.217h-.609z" clip-rule="evenodd"/></svg>