<svg xmlns="http://www.w3.org/2000/svg" width="20" height="20" fill="none"><path fill="#000" fill-rule="evenodd" d="M10 4.183a5.817 5.817 0 1 0 0 11.634 5.817 5.817 0 0 0 0-11.634ZM3 10a7 7 0 1 1 14 0 7 7 0 0 1-14 0Z" clip-rule="evenodd"/><path fill="#000" d="M6.954 12.136c-.164 0-.29-.048-.38-.143-.09-.1-.134-.238-.134-.413V8.42c0-.18.044-.317.134-.413a.513.513 0 0 1 .386-.143h1.375c.447 0 .792.124 1.034.37.246.244.369.581.369 1.012 0 .43-.123.77-.37 1.017-.241.244-.586.365-1.033.365h-.867v.952c0 .175-.043.313-.128.412-.086.096-.215.144-.386.144Zm.514-2.351h.688c.194 0 .343-.044.447-.132.104-.092.157-.227.157-.407 0-.183-.053-.32-.157-.407-.104-.088-.253-.131-.447-.131h-.688v1.077ZM10.754 12.082c-.175 0-.31-.048-.402-.143-.09-.1-.135-.242-.135-.425V8.432c0-.183.045-.323.135-.419.093-.1.227-.15.402-.15h1.364c.283 0 .524.047.721.138a.999.999 0 0 1 .458.377c.105.164.157.355.157.575 0 .247-.067.459-.201.634a.974.974 0 0 1-.537.36V9.85c.269.052.475.168.62.348.15.179.224.408.224.688 0 .37-.125.664-.374.88-.246.21-.584.316-1.012.316h-1.42Zm.447-.808h.833c.19 0 .328-.037.414-.113.09-.08.134-.198.134-.353 0-.156-.045-.271-.134-.347-.086-.076-.224-.114-.414-.114h-.833v.928Zm0-1.735h.732c.187 0 .323-.036.409-.107.09-.072.134-.182.134-.33 0-.147-.045-.255-.134-.323-.086-.071-.222-.107-.409-.107h-.732v.867Z"/></svg>