<svg xmlns="http://www.w3.org/2000/svg" width="24" height="24" fill="none" class="persona-icon" viewBox="0 0 24 24"><path fill="currentColor" fill-rule="evenodd" d="M2 12C2 6.477 6.477 2 12 2s10 4.477 10 10-4.477 10-10 10S2 17.523 2 12m10-8.5a8.5 8.5 0 1 0 0 17 8.5 8.5 0 0 0 0-17M7.139 9.43a.75.75 0 0 1 .75-.75H9.43a2.292 2.292 0 0 1 0 4.584h-.792v1.305a.75.75 0 0 1-1.5 0zm5.139 0a.75.75 0 0 1 .75-.75h1.798A2.035 2.035 0 0 1 16.404 12a2.035 2.035 0 0 1-1.578 3.32h-1.798a.75.75 0 0 1-.75-.75zm-3.64 2.334h.793a.792.792 0 0 0 0-1.583h-.792zm6.188-.514a.535.535 0 0 0 0-1.07h-1.048v1.07zm-1.048 1.5v1.07h1.048a.535.535 0 0 0 0-1.07z" clip-rule="evenodd"/></svg>