<svg xmlns="http://www.w3.org/2000/svg" width="24" height="24" fill="none" class="persona-icon" viewBox="0 0 24 24"><path fill="currentColor" fill-rule="evenodd" d="M2.25 12c0-5.385 4.365-9.75 9.75-9.75s9.75 4.365 9.75 9.75-4.365 9.75-9.75 9.75S2.25 17.385 2.25 12M12 3.75a8.25 8.25 0 1 0 0 16.5 8.25 8.25 0 0 0 0-16.5" clip-rule="evenodd"/><path fill="currentColor" d="M7.722 15q-.345 0-.534-.202-.188-.21-.188-.58V9.782q0-.378.188-.58Q7.385 9 7.73 9h1.931q.942 0 1.453.521.518.513.518 1.42t-.518 1.429q-.51.512-1.453.512H8.445v1.337q0 .37-.181.58-.18.201-.542.201m.722-3.302h.966q.409 0 .628-.185.22-.194.22-.572 0-.387-.22-.571-.22-.185-.628-.185h-.966zM13.059 14.924q-.369 0-.565-.201-.189-.21-.189-.597V9.798q0-.385.189-.588.196-.21.565-.21h1.916q.596 0 1.012.193.425.185.644.53t.22.806q0 .522-.283.891a1.37 1.37 0 0 1-.753.504v-.134q.565.11.871.487.315.378.314.967 0 .781-.526 1.235-.518.445-1.421.445zm.628-3.571h1.029q.391 0 .573-.151.188-.151.188-.463 0-.31-.188-.453-.18-.152-.573-.152h-1.029zm0 2.437h1.17q.4 0 .58-.16.19-.168.19-.496t-.19-.487q-.18-.16-.58-.16h-1.17z"/></svg>