<svg xmlns="http://www.w3.org/2000/svg" width="16" height="16" fill="none" class="persona-icon" viewBox="0 0 16 16"><path fill="currentColor" fill-rule="evenodd" d="M2.5 3.683C2.5 2.201 3.7 1 5.18 1h8.32v7.72c0 .687-.557 1.244-1.243 1.244H9.946v3.792c0 .687-.557 1.244-1.243 1.244H7.297a1.244 1.244 0 0 1-1.243-1.244V9.964H3.743A1.244 1.244 0 0 1 2.5 8.719zm9.95 3.073V2.05h-1.083v2.353a.525.525 0 1 1-1.049 0V2.05H9.235v.914a.525.525 0 1 1-1.05 0V2.05H5.18c-.9 0-1.631.731-1.631 1.633v3.073zM9.947 8.914h2.31a.194.194 0 0 0 .195-.194v-.914H3.549v.914c0 .107.087.194.194.194h2.31zm-2.843 1.05v3.792c0 .107.086.194.194.194h1.406a.194.194 0 0 0 .194-.194V9.964z" clip-rule="evenodd"/></svg>