<svg xmlns="http://www.w3.org/2000/svg" width="24" height="24" fill="none" class="persona-icon" viewBox="0 0 24 24"><path fill="currentColor" fill-rule="evenodd" d="M4 5.833A3.833 3.833 0 0 1 7.833 2H20v11.028c0 .982-.796 1.778-1.778 1.778h-3.4v5.416c0 .982-.797 1.778-1.778 1.778h-2.088a1.778 1.778 0 0 1-1.777-1.778v-5.416H5.778A1.778 1.778 0 0 1 4 13.028zm1.5 4.39h13V3.5h-1.607v3.361a.75.75 0 1 1-1.5 0V3.5h-1.607v1.306a.75.75 0 0 1-1.5 0V3.5H7.833A2.333 2.333 0 0 0 5.5 5.833zm12.722 3.083a.278.278 0 0 0 .278-.278v-1.306h-13v1.306c0 .153.124.278.278.278zm-7.544 1.5v5.416c0 .154.125.278.278.278h2.088a.278.278 0 0 0 .277-.278v-5.416z" clip-rule="evenodd"/></svg>