<svg xmlns="http://www.w3.org/2000/svg" width="16" height="16" fill="none" class="persona-icon" viewBox="0 0 16 16"><path fill="currentColor" fill-rule="evenodd" d="M6.614 1.999h4.362a2.136 2.136 0 0 1 2.135 2.136v4.36c0 .991-.676 1.824-1.59 2.065v1.304c0 1.18-.956 2.135-2.135 2.135h-4.36a2.135 2.135 0 0 1-2.135-2.135v-4.36c0-.99.674-1.823 1.588-2.064V4.134C4.479 2.956 5.435 2 6.614 2m-2.723 6.55v3.315c0 .627.508 1.135 1.135 1.135h4.36c.627 0 1.135-.508 1.135-1.135V8.549zM5.48 5.18v.19h3.907q.111 0 .218.011a2.135 2.135 0 0 1 1.917 2.124v1.987c.352-.194.59-.567.59-.995V5.18z" clip-rule="evenodd"/></svg>