<svg xmlns="http://www.w3.org/2000/svg" width="32" height="32" fill="none" class="persona-icon" viewBox="0 0 32 32"><path fill="currentColor" fill-rule="evenodd" d="M13.229 3.998h8.722a4.27 4.27 0 0 1 4.271 4.27v8.723a4.275 4.275 0 0 1-3.18 4.13v2.607a4.27 4.27 0 0 1-4.27 4.27h-8.72a4.27 4.27 0 0 1-4.27-4.27v-8.72a4.27 4.27 0 0 1 3.176-4.129V8.27a4.27 4.27 0 0 1 4.27-4.271m-5.447 13.1v6.63a2.27 2.27 0 0 0 2.27 2.27h8.72a2.27 2.27 0 0 0 2.27-2.27v-6.63zm3.176-6.739v.379h7.814q.221 0 .437.022a4.27 4.27 0 0 1 3.833 4.248v3.973a2.27 2.27 0 0 0 1.18-1.99v-6.632z" clip-rule="evenodd"/></svg>