<svg xmlns="http://www.w3.org/2000/svg" width="16" height="16" fill="none"><path fill="#000" fill-rule="evenodd" d="M6.55 2.976c-1.002 0-1.814.792-1.814 1.77s.812 1.77 1.814 1.77 1.814-.792 1.814-1.77-.812-1.77-1.814-1.77Zm-2.814 1.77C3.736 3.229 4.996 2 6.55 2s2.814 1.23 2.814 2.746c0 1.517-1.26 2.746-2.814 2.746s-2.814-1.23-2.814-2.746ZM9.521 3.052c0-.269.224-.487.5-.487 1.235 0 2.236.976 2.236 2.181s-1.001 2.182-2.236 2.182a.494.494 0 0 1-.5-.488c0-.27.224-.488.5-.488.683 0 1.236-.54 1.236-1.206 0-.666-.553-1.206-1.236-1.206a.494.494 0 0 1-.5-.488ZM9.33 7.904c.11-.48.548-.823 1.053-.823h.431c.505 0 .943.342 1.053.823l.019.083c.003.016.024.06.099.1.038.02.077.042.114.065.073.043.122.038.138.034l.147-.045a1.09 1.09 0 0 1 1.256.476l.214.36c.254.428.168.97-.206 1.304l-.133.119c-.011.01-.04.048-.04.13v.01c0 .047 0 .092-.002.138-.005.087.025.128.037.14l.14.123c.373.333.459.876.205 1.304l-.214.36a1.09 1.09 0 0 1-1.256.477l-.325-.1c-.005-.002-.038-.007-.093.022a.21.21 0 0 0-.062.047.065.065 0 0 0-.015.026l-.023.1c-.11.48-.548.823-1.053.823h-.43c-.506 0-.943-.342-1.053-.823l-.023-.101a.063.063 0 0 0-.015-.025.212.212 0 0 0-.062-.047c-.055-.03-.087-.024-.093-.022l-.325.1a1.09 1.09 0 0 1-1.256-.477l-.214-.36a1.034 1.034 0 0 1 .206-1.304l.138-.124c.013-.01.043-.052.038-.14a2.764 2.764 0 0 1-.003-.136v-.011c0-.082-.028-.12-.04-.13l-.132-.119a1.034 1.034 0 0 1-.206-1.304l.214-.36a1.09 1.09 0 0 1 1.256-.476l.147.045c.016.005.065.01.138-.034.037-.023.075-.044.114-.065.074-.04.095-.084.098-.1l.02-.083Zm1.053.153a.078.078 0 0 0-.076.06l-.02.083c-.08.352-.33.602-.593.743-.025.013-.05.027-.074.042-.257.153-.605.24-.958.132l-.148-.045a.08.08 0 0 0-.091.034l-.214.36a.075.075 0 0 0 .015.095l.133.119c.267.238.366.566.365.853v.008c0 .03 0 .06.002.09a1.13 1.13 0 0 1-.362.906l-.139.124a.075.075 0 0 0-.014.095l.213.36a.08.08 0 0 0 .092.035l.325-.1c.315-.096.627-.033.867.094.256.135.5.377.578.719l.023.1c.008.035.04.06.076.06h.431a.078.078 0 0 0 .077-.06l.023-.1c.078-.341.322-.584.578-.719.24-.127.552-.19.867-.094l.325.1a.08.08 0 0 0 .092-.035l.213-.36a.075.075 0 0 0-.015-.095l-.138-.124a1.13 1.13 0 0 1-.362-.907l.002-.09v-.007a1.127 1.127 0 0 1 .365-.853l.133-.119a.075.075 0 0 0 .014-.095l-.213-.36a.08.08 0 0 0-.092-.034l-.147.045c-.353.108-.7.02-.958-.132a1.893 1.893 0 0 0-.074-.043c-.263-.14-.514-.39-.594-.742l-.02-.083a.078.078 0 0 0-.076-.06h-.43Zm.219 1.98a.51.51 0 0 0-.519.503c0 .277.23.503.519.503a.51.51 0 0 0 .519-.502.51.51 0 0 0-.519-.503Zm-1.519.503c0-.818.682-1.478 1.519-1.478.837 0 1.519.66 1.519 1.479 0 .818-.682 1.478-1.519 1.478-.837 0-1.519-.66-1.519-1.479ZM5.335 9.186a2.75 2.75 0 0 0-2.07.93A1.068 1.068 0 0 0 3 10.82v.136c0 .666.553 1.206 1.236 1.206H6.55c.276 0 .5.218.5.488 0 .269-.224.487-.5.487H4.236C3 13.137 2 12.162 2 10.956v-.136c0-.49.18-.964.505-1.337a3.76 3.76 0 0 1 2.83-1.273H6.55c.276 0 .5.218.5.488s-.224.488-.5.488H5.335Z" clip-rule="evenodd"/></svg>