<svg xmlns="http://www.w3.org/2000/svg" width="16" height="16" fill="none" class="persona-icon" viewBox="0 0 16 16"><path fill="currentColor" fill-rule="evenodd" d="M10.889 11.389H5.11a.5.5 0 0 1-.5-.5 3.39 3.39 0 0 1 6.778 0 .5.5 0 0 1-.5.5m-.682-1.414a2.388 2.388 0 0 0-4.543.414h4.672a2.4 2.4 0 0 0-.13-.414" clip-rule="evenodd"/><path fill="currentColor" d="M6.556 5.834a.722.722 0 1 1-1.445 0 .722.722 0 0 1 1.445 0M10.167 6.556a.722.722 0 1 1 0-1.445.722.722 0 0 1 0 1.445"/><path fill="currentColor" fill-rule="evenodd" d="M8 1a7 7 0 1 1 0 14A7 7 0 0 1 8 1M2 8a6 6 0 1 0 12 0A6 6 0 0 0 2 8" clip-rule="evenodd"/></svg>