<svg xmlns="http://www.w3.org/2000/svg" width="20" height="20" fill="none" class="persona-icon" viewBox="0 0 20 20"><path fill="currentColor" fill-rule="evenodd" d="M13.28 13.914H6.702a.625.625 0 0 1-.625-.625 3.914 3.914 0 1 1 7.828 0c0 .345-.28.625-.625.625m-.828-1.644a2.664 2.664 0 0 0-5.05.394h5.179a3 3 0 0 0-.129-.394" clip-rule="evenodd"/><path fill="currentColor" d="M8.362 7.533a.822.822 0 1 1-1.644 0 .822.822 0 0 1 1.644 0M12.471 8.355a.822.822 0 1 1 0-1.644.822.822 0 0 1 0 1.644"/><path fill="currentColor" fill-rule="evenodd" d="M9.993 1.975a8.025 8.025 0 1 1 0 16.05 8.025 8.025 0 0 1 0-16.05M3.217 10a6.775 6.775 0 1 0 13.55 0 6.775 6.775 0 0 0-13.55 0" clip-rule="evenodd"/></svg>