<svg xmlns="http://www.w3.org/2000/svg" width="32" height="32" fill="none"><path fill="#000" d="M25.18 19.118a1.412 1.412 0 1 1 2.824 0 1.412 1.412 0 0 1-2.824 0Z"/><path fill="#000" fill-rule="evenodd" d="M26.592 15.882a1 1 0 0 1-1-1v-4.235a1 1 0 1 1 2 0v4.235a1 1 0 0 1-1 1ZM14 5.1a4.4 4.4 0 1 0 0 8.8 4.4 4.4 0 0 0 0-8.8ZM7.5 9.5a6.5 6.5 0 1 1 13 0 6.5 6.5 0 0 1-13 0ZM5.095 20.863A8.153 8.153 0 0 1 11.298 18h5.404a8.154 8.154 0 0 1 6.203 2.863A4.579 4.579 0 0 1 24 23.834v.31A4.854 4.854 0 0 1 19.148 29H8.853A4.854 4.854 0 0 1 4 24.144v-.31a4.58 4.58 0 0 1 1.095-2.971Zm16.3 1.289a6.17 6.17 0 0 0-4.693-2.167h-5.404a6.17 6.17 0 0 0-4.694 2.167c-.4.469-.62 1.066-.62 1.682v.31a2.87 2.87 0 0 0 2.869 2.87h10.295a2.87 2.87 0 0 0 2.868-2.87v-.31c0-.616-.22-1.213-.62-1.682Z" clip-rule="evenodd"/></svg>