<svg xmlns="http://www.w3.org/2000/svg" width="16" height="16" fill="none" class="persona-icon" viewBox="0 0 16 16"><path fill="currentColor" fill-rule="evenodd" d="M4.554 2.188A.5.5 0 0 1 4.944 2h6.112a.5.5 0 0 1 .39.188l2.441 3.051a.498.498 0 0 1 .113.31v.035a.497.497 0 0 1-.092.26L8.415 13.78a.5.5 0 0 1-.83 0L2.092 5.845A.498.498 0 0 1 2 5.562v-.006c0-.12.042-.23.113-.317zm-1.1 3.868 3.472 5.015L5.77 6.056zm2.328-1L6.332 3H5.185L3.54 5.056zm1.013 1L8 11.276l1.205-5.22zm2.387-1L8.635 3H7.366l-.548 2.056zm1.05 1L9.073 11.07l3.472-5.015zm2.228-1L10.815 3H9.67l.548 2.056z" clip-rule="evenodd"/></svg>