<svg xmlns="http://www.w3.org/2000/svg" width="20" height="20" fill="none" class="persona-icon" viewBox="0 0 20 20"><path fill="currentColor" fill-rule="evenodd" d="M8.804 2.975h4.752c.19 0 .37.086.488.235l2.844 3.555c.173.216.183.52.026.746l-6.4 9.245a.625.625 0 0 1-1.028 0l-6.4-9.245a.625.625 0 0 1 .026-.746L5.957 3.21a.63.63 0 0 1 .487-.235zM7.37 7.781H4.793l3.865 5.582zM8 4.225H6.745L4.9 6.531h2.486zm3.347 3.556H8.652L10 13.62zm-.028-1.25-.615-2.306h-1.41L8.68 6.531zm.022 6.832 3.865-5.582H12.63zm1.271-6.832H15.1l-1.845-2.306H12z" clip-rule="evenodd"/></svg>