<svg xmlns="http://www.w3.org/2000/svg" width="24" height="24" fill="none" class="persona-icon" viewBox="0 0 24 24"><path fill="currentColor" fill-rule="evenodd" d="M6.271 2.289a.77.77 0 0 1 .6-.289h10.257a.77.77 0 0 1 .6.289l4.1 5.123c.105.13.169.293.172.472v.017c0 .015 0 .03-.002.045a.766.766 0 0 1-.14.397l-9.22 13.317a.783.783 0 0 1-.202.205.77.77 0 0 1-1.075-.205L2.142 8.343A.767.767 0 0 1 2 7.905v-.008c0-.184.065-.353.172-.485l4.1-5.123ZM4.237 8.667l6.111 8.826-2.037-8.826H4.237m4.095-1.539.957-3.59H7.242L4.37 7.129h3.962M9.89 8.667 12 17.81l2.11-9.143H9.89m4.186-1.539-.958-3.59h-2.236l-.958 3.59h4.152m1.613 1.539-2.037 8.826 6.11-8.826H15.69m3.941-1.539-2.871-3.59H14.71l.957 3.59h3.962" clip-rule="evenodd"/></svg>