<svg xmlns="http://www.w3.org/2000/svg" width="32" height="32" fill="none" class="persona-icon" viewBox="0 0 32 32"><path fill="currentColor" fill-rule="evenodd" d="M8.555 3.378a1 1 0 0 1 .78-.376H22.67a1 1 0 0 1 .78.376l5.328 6.658a.996.996 0 0 1 .225.633v.005c0 .018 0 .035-.002.053a.994.994 0 0 1-.182.52L16.832 28.56a1 1 0 0 1-1.66 0L3.186 11.247a.996.996 0 0 1-.184-.563v-.015c0-.24.085-.46.226-.633l5.327-6.658Zm-2.644 8.29 7.944 11.476-2.648-11.475H5.91Zm5.323-1.999H6.083l3.733-4.667h2.662L11.234 9.67Zm2.025 2 2.743 11.886 2.743-11.886H13.26Zm5.442-2h-5.397l1.244-4.667h2.908l1.245 4.667Zm2.097 2L18.15 23.143l7.944-11.474h-5.296Zm5.124-2H20.77l-1.244-4.667h2.662l3.734 4.667Z" clip-rule="evenodd"/></svg>