<svg xmlns="http://www.w3.org/2000/svg" width="16" height="16" fill="none" class="persona-icon" viewBox="0 0 16 16"><path fill="currentColor" d="M12.5 4.75a.5.5 0 0 0-1 0v6.5a.5.5 0 0 0 1 0z"/><path fill="currentColor" fill-rule="evenodd" d="M5.53 4.427C4.643 3.93 3.5 4.54 3.5 5.586v4.828c0 1.047 1.144 1.657 2.03 1.159l4.287-2.414c.91-.513.91-1.805 0-2.318zM4.5 5.586c0-.239.283-.432.539-.287l4.288 2.414a.325.325 0 0 1 0 .574l-4.288 2.414c-.256.144-.539-.048-.539-.287z" clip-rule="evenodd"/></svg>