<svg xmlns="http://www.w3.org/2000/svg" width="20" height="20" fill="none" class="persona-icon" viewBox="0 0 20 20"><path fill="currentColor" fill-rule="evenodd" d="m6.99 5.439 5.252 3.082c1.11.652 1.11 2.273 0 2.924l-5.253 3.083c-1.13.664-2.514-.176-2.514-1.462V6.9c0-1.286 1.383-2.126 2.514-1.462M5.724 6.9v6.165c0 .355.365.54.632.384l5.252-3.082a.45.45 0 0 0 0-.769L6.357 6.517a.424.424 0 0 0-.632.384" clip-rule="evenodd"/><path fill="currentColor" d="M15.525 5.833v8.3a.625.625 0 0 1-1.25 0v-8.3a.625.625 0 1 1 1.25 0"/></svg>