<svg xmlns="http://www.w3.org/2000/svg" width="24" height="24" fill="none" class="persona-icon" viewBox="0 0 24 24"><path fill="currentColor" fill-rule="evenodd" d="m8.301 6.525 6.432 3.713c1.356.783 1.356 2.74 0 3.524l-6.432 3.714c-1.356.783-3.051-.196-3.051-1.762V8.286c0-1.566 1.695-2.545 3.051-1.761M6.75 8.285v7.428c0 .411.445.668.801.463l6.432-3.714a.534.534 0 0 0 0-.926L7.55 7.823a.534.534 0 0 0-.801.463" clip-rule="evenodd"/><path fill="currentColor" d="M18.75 7v10a.75.75 0 0 1-1.5 0V7a.75.75 0 0 1 1.5 0"/></svg>