<svg xmlns="http://www.w3.org/2000/svg" width="32" height="32" fill="none"><path fill="#000" d="M25 24a1 1 0 0 0-1-1H13.333a1 1 0 1 0 0 2H24a1 1 0 0 0 1-1ZM24 17a1 1 0 1 0 0-2H13.333a1 1 0 1 0 0 2H24ZM25 20a1 1 0 0 1-1 1H13.333a1 1 0 1 1 0-2H24a1 1 0 0 1 1 1Z"/><path fill="#000" fill-rule="evenodd" d="M13.333 7a1 1 0 0 0-1 1v4a1 1 0 0 0 1 1H24a1 1 0 0 0 1-1V8a1 1 0 0 0-1-1H13.333Zm1 4V9H23v2h-8.667Z" clip-rule="evenodd"/><path fill="#000" fill-rule="evenodd" d="M8 3a5 5 0 0 0-5 5v16a5 5 0 0 0 5 5h16a5 5 0 0 0 5-5V8a5 5 0 0 0-5-5H8Zm.333 2H8a3 3 0 0 0-3 3v16a3 3 0 0 0 3 3h.333V5Zm2 22V5H24a3 3 0 0 1 3 3v16a3 3 0 0 1-3 3H10.333Z" clip-rule="evenodd"/></svg>