<svg xmlns="http://www.w3.org/2000/svg" width="20" height="20" fill="none" class="persona-icon" viewBox="0 0 20 20"><path fill="currentColor" fill-rule="evenodd" d="M10.8 1.175A8.025 8.025 0 0 1 18.825 9.2c0 .345-.28.625-.625.625h-7.4a.625.625 0 0 1-.625-.625V1.8a.625.625 0 0 1 .625-.625m.625 7.4h6.121a6.77 6.77 0 0 0-4.153-5.634 6.8 6.8 0 0 0-1.968-.487z" clip-rule="evenodd"/><path fill="currentColor" d="M8.787 2.289a.63.63 0 0 1 .233.487v7.24c0 .539.437.975.976.975h7.225a.625.625 0 0 1 .61.761A8.026 8.026 0 1 1 8.26 2.166a.63.63 0 0 1 .527.123"/></svg>