<svg xmlns="http://www.w3.org/2000/svg" width="16" height="16" fill="none"><path fill="currentColor" d="M6.767 9.309a.491.491 0 0 1 .475.156l.758.861.758-.861a.491.491 0 0 1 .475-.156l1.58.35c.227.05.389.253.389.488V14.5a.5.5 0 0 1-.274.447.49.49 0 0 1-.518-.047L8 13.072 5.59 14.9a.49.49 0 0 1-.518.047.5.5 0 0 1-.274-.447v-4.353c0-.235.162-.438.39-.488l1.579-.35Zm-.98 1.24V13.5l1.916-1.453a.49.49 0 0 1 .594 0l1.915 1.453v-2.95l-.908-.202-.934 1.063a.492.492 0 0 1-.74 0l-.934-1.063-.909.201Z"/><path fill="currentColor" d="M8 1c.141 0 .276.061.37.168l.934 1.063 1.375-.305a.49.49 0 0 1 .396.084.501.501 0 0 1 .202.356l.138 1.415 1.289.57a.505.505 0 0 1 .228.71l-.711 1.228.711 1.228a.505.505 0 0 1-.228.71l-1.29.57-.137 1.416a.501.501 0 0 1-.202.356.49.49 0 0 1-.396.083l-1.375-.304-.934 1.063a.492.492 0 0 1-.74 0l-.934-1.063-1.375.304a.49.49 0 0 1-.396-.083.501.501 0 0 1-.202-.356l-.138-1.415-1.289-.57a.505.505 0 0 1-.228-.71l.711-1.229-.711-1.227a.505.505 0 0 1 .228-.71l1.29-.57.137-1.416a.501.501 0 0 1 .202-.356.49.49 0 0 1 .396-.084l1.375.305.934-1.063A.492.492 0 0 1 8 1Zm0 1.253-.758.861a.491.491 0 0 1-.475.157l-1.114-.247-.112 1.147a.5.5 0 0 1-.294.409l-1.045.462.577.995c.09.156.09.35 0 .505l-.577.995 1.045.462a.5.5 0 0 1 .294.409l.112 1.147 1.114-.246a.491.491 0 0 1 .475.156l.758.861.758-.861a.491.491 0 0 1 .475-.156l1.114.246.112-1.147a.5.5 0 0 1 .294-.409l1.044-.462-.576-.995a.505.505 0 0 1 0-.505l.576-.995-1.044-.462a.5.5 0 0 1-.294-.41l-.112-1.146-1.114.247a.491.491 0 0 1-.475-.157L8 2.253Z"/></svg>