<svg xmlns="http://www.w3.org/2000/svg" width="16" height="16" fill="none" class="persona-icon" viewBox="0 0 16 16"><path fill="currentColor" fill-rule="evenodd" d="M8 1a.5.5 0 0 1 .374.168l.945 1.063 1.39-.305a.5.5 0 0 1 .604.44l.14 1.415 1.303.57a.5.5 0 0 1 .23.711l-.719 1.227.72 1.228a.5.5 0 0 1-.231.71l-1.303.57-.14 1.416a.5.5 0 0 1-.076.22V14.5a.5.5 0 0 1-.8.4L8 13.072 5.563 14.9a.5.5 0 0 1-.8-.4v-4.067a.5.5 0 0 1-.076-.22l-.14-1.415-1.302-.57a.5.5 0 0 1-.231-.711l.719-1.228-.72-1.227a.5.5 0 0 1 .232-.71l1.303-.57.14-1.416a.5.5 0 0 1 .604-.44l1.39.305.944-1.063A.5.5 0 0 1 8 1m2.373 8.555.113-1.147a.5.5 0 0 1 .297-.409l1.056-.462-.582-.995a.5.5 0 0 1 0-.505l.582-.995-1.056-.462a.5.5 0 0 1-.297-.41l-.113-1.146-1.126.247a.5.5 0 0 1-.481-.157L8 2.253l-.766.861a.5.5 0 0 1-.48.157l-1.127-.247-.113 1.147a.5.5 0 0 1-.297.409l-1.056.462.583.995a.5.5 0 0 1 0 .505l-.583.995 1.056.462a.5.5 0 0 1 .297.409l.113 1.147 1.126-.247a.5.5 0 0 1 .481.157l.766.861.766-.861a.5.5 0 0 1 .48-.157zm-4.61.994V13.5L7.7 12.047a.5.5 0 0 1 .6 0l1.937 1.453v-2.95l-.918-.202-.945 1.063a.5.5 0 0 1-.748 0l-.945-1.063z" clip-rule="evenodd"/></svg>