<svg xmlns="http://www.w3.org/2000/svg" width="20" height="20" fill="none" class="persona-icon" viewBox="0 0 20 20"><path fill="currentColor" fill-rule="evenodd" d="M10 1.975c.178 0 .348.076.467.21l1.054 1.185 1.55-.34a.625.625 0 0 1 .756.55l.156 1.579 1.453.636a.625.625 0 0 1 .289.888l-.802 1.37.802 1.368a.625.625 0 0 1-.289.889l-1.453.636-.156 1.579a.6.6 0 0 1-.086.26V17.4a.625.625 0 0 1-1 .5L10 15.844 7.26 17.9a.625.625 0 0 1-1-.5v-4.615a.6.6 0 0 1-.087-.26l-.156-1.579-1.453-.636a.625.625 0 0 1-.289-.889l.802-1.369-.802-1.369a.625.625 0 0 1 .289-.888l1.453-.636.156-1.58a.625.625 0 0 1 .756-.548l1.55.34 1.054-1.186a.63.63 0 0 1 .467-.21m2.652 9.728.123-1.244a.63.63 0 0 1 .371-.511l1.145-.501-.632-1.079a.63.63 0 0 1 0-.631l.632-1.079-1.145-.5a.63.63 0 0 1-.371-.512l-.123-1.244-1.22.268a.63.63 0 0 1-.602-.195L10 3.54l-.83.934a.63.63 0 0 1-.601.195l-1.221-.268-.123 1.244a.63.63 0 0 1-.371.511l-1.145.501.632 1.079a.63.63 0 0 1 0 .631l-.632 1.079 1.145.5c.207.091.35.287.371.512l.123 1.244 1.22-.268c.222-.049.451.026.602.195l.83.934.83-.934c.15-.169.38-.244.601-.195zm-5.143 1.244v3.203l2.116-1.587a.625.625 0 0 1 .75 0l2.116 1.587v-3.203l-.97-.213-1.054 1.186a.625.625 0 0 1-.934 0l-1.054-1.186z" clip-rule="evenodd"/></svg>