<svg xmlns="http://www.w3.org/2000/svg" width="20" height="20" fill="none" class="persona-icon" viewBox="0 0 20 20"><path fill="currentColor" d="M10.46 2.199A.625.625 0 0 0 10 2a.625.625 0 0 0-.46.199L8.434 3.4l-1.63-.344a.633.633 0 0 0-.493.1.589.589 0 0 0-.25.42l-.164 1.6-1.528.645a.601.601 0 0 0-.338.36.574.574 0 0 0 .054.482l.844 1.388-.844 1.387a.574.574 0 0 0-.054.482.601.601 0 0 0 .338.36l1.528.645.164 1.6c.01.09.04.178.09.254v4.628c0 .225.131.43.34.53.208.1.457.08.643-.056L10 15.81l2.867 2.072a.634.634 0 0 0 .643.056.59.59 0 0 0 .34-.53V12.78a.58.58 0 0 0 .09-.255l.164-1.6 1.528-.644a.601.601 0 0 0 .338-.36.574.574 0 0 0-.054-.482l-.844-1.387.844-1.388a.574.574 0 0 0 .054-.482.601.601 0 0 0-.338-.36l-1.528-.644-.164-1.6a.589.589 0 0 0-.25-.421c-.143-.1-.322-.136-.493-.1l-1.63.344L10.46 2.2ZM9.111 4.447 10 3.485l.888.962c.148.16.374.231.591.186l1.305-.276.131 1.281a.595.595 0 0 0 .366.485l1.224.517-.675 1.111a.574.574 0 0 0 0 .6l.675 1.11-1.224.517a.595.595 0 0 0-.366.485l-.13 1.282-1.306-.276a.63.63 0 0 0-.591.185l-.888.963-.888-.963a.63.63 0 0 0-.591-.185l-1.305.276-.131-1.282a.595.595 0 0 0-.366-.485l-1.224-.516.675-1.112a.574.574 0 0 0 0-.599L5.495 6.64l1.224-.517a.595.595 0 0 0 .365-.485l.132-1.281 1.305.276a.629.629 0 0 0 .591-.186ZM7.38 16.222v-3.298l1.053-.223 1.108 1.201a.625.625 0 0 0 .46.2.625.625 0 0 0 .46-.2l1.107-1.201 1.054.223v3.298l-2.252-1.628a.633.633 0 0 0-.738 0L7.38 16.222Z"/></svg>