<svg xmlns="http://www.w3.org/2000/svg" width="32" height="32" fill="none" class="persona-icon" viewBox="0 0 32 32"><path fill="currentColor" fill-rule="evenodd" d="M16 2a1 1 0 0 1 .747.336l1.89 2.126 2.779-.61a1 1 0 0 1 1.21.88l.279 2.83 2.606 1.14a1 1 0 0 1 .462 1.422l-1.438 2.455 1.438 2.454a1 1 0 0 1-.462 1.422l-2.606 1.14-.28 2.831a1 1 0 0 1-.151.44V29a1 1 0 0 1-1.6.8L16 26.145 11.126 29.8a1 1 0 0 1-1.6-.8v-8.134a1 1 0 0 1-.152-.44l-.279-2.83-2.606-1.141a1 1 0 0 1-.462-1.422l1.438-2.454-1.438-2.455a1 1 0 0 1 .462-1.421l2.606-1.14.28-2.832a1 1 0 0 1 1.209-.878l2.779.609 1.89-2.126A1 1 0 0 1 16 2m-4.474 19.098V27l3.874-2.905a1 1 0 0 1 1.2 0L20.474 27v-5.902l-1.837-.402-1.89 2.126a1 1 0 0 1-1.495 0l-1.89-2.126zm9.22-1.988.226-2.294a1 1 0 0 1 .594-.818l2.112-.924-1.165-1.99a1 1 0 0 1 0-1.01l1.165-1.99-2.112-.924a1 1 0 0 1-.594-.818l-.227-2.295-2.252.494a1 1 0 0 1-.961-.312L16 4.505 14.468 6.23a1 1 0 0 1-.961.312l-2.253-.494-.226 2.295a1 1 0 0 1-.594.818l-2.113.924 1.166 1.99a1 1 0 0 1 0 1.01l-1.166 1.99 2.113.924a1 1 0 0 1 .594.818l.226 2.294 2.253-.493a1 1 0 0 1 .961.312L16 20.653l1.532-1.724a1 1 0 0 1 .961-.312z" clip-rule="evenodd"/></svg>