<svg xmlns="http://www.w3.org/2000/svg" width="32" height="32" fill="none" class="persona-icon" viewBox="0 0 32 32"><path fill="currentColor" fill-rule="evenodd" d="M13.536 18.62a.983.983 0 0 1 .951.312l1.515 1.723 1.515-1.723a.983.983 0 0 1 .951-.312l3.16.7c.454.1.777.507.777.977v8.705c0 .38-.211.726-.546.895a.98.98 0 0 1-1.036-.095l-4.82-3.655-4.821 3.655a.98.98 0 0 1-1.036.095 1.001 1.001 0 0 1-.547-.895v-8.705c0-.47.323-.876.777-.977l3.16-.7M11.577 21.1v5.901l3.832-2.905a.98.98 0 0 1 1.187 0l3.831 2.905v-5.9l-1.816-.403-1.87 2.126a.984.984 0 0 1-1.478 0l-1.87-2.126-1.816.402" clip-rule="evenodd"/><path fill="currentColor" fill-rule="evenodd" d="M16.002 2.002c.283 0 .552.123.74.336l1.869 2.126 2.748-.609a.98.98 0 0 1 .794.168c.228.168.375.426.403.71l.276 2.832 2.578 1.14a.996.996 0 0 1 .544.607 1.01 1.01 0 0 1-.088.815l-1.422 2.454 1.422 2.455c.143.246.175.543.088.814a.996.996 0 0 1-.544.607l-2.578 1.14-.276 2.832a1.003 1.003 0 0 1-.403.71.98.98 0 0 1-.794.169l-2.748-.61-1.87 2.127a.984.984 0 0 1-1.478 0l-1.87-2.126-2.748.608a.98.98 0 0 1-.793-.167 1.003 1.003 0 0 1-.403-.711l-.276-2.831-2.578-1.14a.996.996 0 0 1-.544-.608 1.01 1.01 0 0 1 .087-.814L7.56 12.58l-1.422-2.454a1.01 1.01 0 0 1-.087-.815.996.996 0 0 1 .544-.607l2.578-1.14.276-2.831c.028-.285.174-.543.403-.711a.98.98 0 0 1 .793-.168l2.749.61 1.869-2.127a.985.985 0 0 1 .74-.336m0 2.506L14.487 6.23a.983.983 0 0 1-.951.312l-2.228-.493-.224 2.294a1 1 0 0 1-.587.818l-2.09.924 1.153 1.99c.181.312.181.699 0 1.01l-1.153 1.99 2.09.924a.999.999 0 0 1 .587.818l.224 2.295 2.228-.494a.983.983 0 0 1 .951.313l1.515 1.723 1.515-1.723a.983.983 0 0 1 .951-.312l2.228.493.224-2.295a.999.999 0 0 1 .588-.818l2.09-.924-1.154-1.99a1.01 1.01 0 0 1 0-1.01l1.153-1.99-2.09-.924a1 1 0 0 1-.587-.818l-.224-2.294-2.228.493a.983.983 0 0 1-.95-.312l-1.516-1.723" clip-rule="evenodd"/></svg>