<svg xmlns="http://www.w3.org/2000/svg" width="20" height="20" fill="none"><path fill="#000" fill-rule="evenodd" d="M8.158 3.146a.5.5 0 0 0-.707 0L4.586 6.011l-.005.005-.004.005-1.43 1.43a.5.5 0 0 0 0 .707l4.303 4.304a.5.5 0 0 0 .354.147H9.75l3.8 3.799a2.022 2.022 0 1 0 2.859-2.86l-3.8-3.799V7.804a.5.5 0 0 0-.146-.353L8.158 3.146ZM6.016 8.158 4.935 7.077l-.728.727 2.88 2.88 3.597-3.597-2.88-2.88-.727.728 1.08 1.081a.5.5 0 1 1-.706.707L6.37 5.642l-.728.728 1.081 1.08a.5.5 0 1 1-.707.708Zm1.778 3.233 3.597-3.597.217.217v1.946a.5.5 0 0 0 .158.364l3.935 3.935a1.022 1.022 0 0 1-1.445 1.445l-3.933-3.933a.502.502 0 0 0-.386-.16H8.011l-.217-.217Z" clip-rule="evenodd"/></svg>