<svg xmlns="http://www.w3.org/2000/svg" width="16" height="16" fill="none" class="persona-icon" viewBox="0 0 16 16"><path fill="currentColor" fill-rule="evenodd" d="M2.611 4.639a2.333 2.333 0 0 1 2.333-2.333h4.278a2.333 2.333 0 0 1 2.334 2.333v.776a2.334 2.334 0 0 1 1.833 2.28v4.16l.558 1.116a.5.5 0 0 1-.447.723H6.778a2.333 2.333 0 0 1-2.333-2.333v-.722H2.5a.5.5 0 0 1-.447-.724L2.61 8.8zm7.945 0c0-.737-.597-1.333-1.334-1.333H4.944c-.736 0-1.333.596-1.333 1.333v4.278a.5.5 0 0 1-.053.223l-.249.499h1.135V7.694a2.333 2.333 0 0 1 2.334-2.333h3.778zM6.889 8.61a.5.5 0 0 0 .5.5h3.055a.5.5 0 1 0 0-1H7.39a.5.5 0 0 0-.5.5m0 1.833a.5.5 0 0 0 .5.5h1.91a.5.5 0 1 0 0-1h-1.91a.5.5 0 0 0-.5.5" clip-rule="evenodd"/></svg>