<svg xmlns="http://www.w3.org/2000/svg" width="20" height="20" fill="none" class="persona-icon" viewBox="0 0 20 20"><path fill="currentColor" fill-rule="evenodd" d="M6.444 3.33h4.978A2.76 2.76 0 0 1 14.18 6.09v.868a2.76 2.76 0 0 1 2.134 2.687v4.83l.645 1.29a.625.625 0 0 1-.559.905H8.578a2.76 2.76 0 0 1-2.758-2.758v-.797H3.6a.625.625 0 0 1-.559-.905l.645-1.29V6.09A2.76 2.76 0 0 1 6.444 3.33m6.487 3.556v-.797c0-.833-.676-1.509-1.509-1.509H6.444c-.833 0-1.508.676-1.508 1.509v4.978a.6.6 0 0 1-.066.28l-.259.517H5.82v-2.22a2.76 2.76 0 0 1 2.758-2.758zM8.664 10.71c0 .345.28.625.625.625h3.556a.625.625 0 1 0 0-1.25H9.289a.625.625 0 0 0-.625.625m0 2.133c0 .345.28.625.625.625h2.222a.625.625 0 0 0 0-1.25H9.29a.625.625 0 0 0-.625.625" clip-rule="evenodd"/></svg>