<svg xmlns="http://www.w3.org/2000/svg" width="16" height="16" fill="none" class="persona-icon" viewBox="0 0 16 16"><path fill="currentColor" fill-rule="evenodd" d="m7.378 3.615.047-.016a1.95 1.95 0 0 1 1.201.016c.124-.332.348-.593.651-.777.438-.265.992-.338 1.514-.338s1.076.073 1.514.338c.48.29.761.775.761 1.429a2.274 2.274 0 0 1-4.505.453.4.4 0 0 0-.067-.06.7.7 0 0 0-.212-.105.96.96 0 0 0-.562 0 .7.7 0 0 0-.212.104.4.4 0 0 0-.065.059 2.276 2.276 0 0 1-4.506-.451c0-.654.282-1.138.762-1.429.438-.265.992-.338 1.514-.338s1.076.073 1.513.338c.304.184.528.445.652.777M4.677 7.356c.75-.012 1.148-.189 1.54-.378l.077-.037c.424-.207.905-.441 1.708-.441.84 0 1.322.238 1.75.45l.062.03c.382.188.764.363 1.51.376l.09-.025a2.17 2.17 0 0 1 1.804.28c.51.35.851.94.77 1.656-.069.612-.248 1.25-.65 1.77-.376.488-.922.835-1.656.97-.953.905-2.449 1.493-3.68 1.493s-2.726-.587-3.68-1.492c-.736-.135-1.283-.482-1.66-.972-.402-.519-.581-1.157-.65-1.769-.081-.716.26-1.307.77-1.655a2.17 2.17 0 0 1 1.805-.281zm-.46-3.662c-.163.098-.28.247-.28.573a1.274 1.274 0 0 0 2.55 0c0-.326-.116-.475-.278-.573-.204-.124-.538-.194-.996-.194-.459 0-.792.07-.997.194m5.316.783a1.275 1.275 0 0 0 2.533-.21c0-.326-.116-.475-.278-.573-.205-.124-.538-.194-.997-.194s-.792.07-.996.194c-.163.098-.279.247-.279.573a1.3 1.3 0 0 0 .017.21M4.091 8.252a1.15 1.15 0 0 0-.744.185.74.74 0 0 0-.341.718c.057.51.198.948.447 1.27.151.196.355.366.638.481zm1 3.104c.77.687 1.968 1.144 2.91 1.144.944 0 2.141-.457 2.911-1.144v-3.02c-.708-.066-1.15-.267-1.54-.459l-.056-.028c-.4-.197-.708-.349-1.314-.349-.57 0-.875.148-1.282.345l-.069.034c-.396.191-.849.391-1.56.456zm6.821-3.104v2.653c.282-.116.484-.284.635-.48.249-.322.39-.76.448-1.27a.74.74 0 0 0-.342-.718 1.15 1.15 0 0 0-.74-.185M6.798 9.404c-.17.083-.362.176-.615.273a.5.5 0 1 1-.356-.935c.124-.047.253-.11.392-.177.436-.21.972-.47 1.783-.47.85 0 1.385.263 1.816.475.133.066.257.127.377.174a.5.5 0 1 1-.363.931c-.238-.092-.42-.182-.584-.263-.374-.184-.644-.317-1.246-.317-.567 0-.833.129-1.204.31" clip-rule="evenodd"/></svg>