<svg xmlns="http://www.w3.org/2000/svg" width="32" height="32" fill="none" class="persona-icon" viewBox="0 0 32 32"><path fill="currentColor" fill-rule="evenodd" d="M17.252 7.23a3.02 3.02 0 0 1 1.302-1.553C19.43 5.147 20.538 5 21.582 5s2.152.147 3.028.677c.96.58 1.522 1.55 1.522 2.857a4.55 4.55 0 0 1-9.01.905 1 1 0 0 0-.133-.12 1.4 1.4 0 0 0-.424-.21 2 2 0 0 0-.562-.082c-.197 0-.389.03-.561.083a1.4 1.4 0 0 0-.424.208 1 1 0 0 0-.135.122 4.551 4.551 0 0 1-9.01-.906c0-1.308.563-2.277 1.523-2.857C8.272 5.147 9.38 5 10.424 5s2.152.147 3.027.677c.607.367 1.055.889 1.303 1.554l.097-.032a4 4 0 0 1 1.152-.172 3.9 3.9 0 0 1 1.25.203m6.034 16.872C21.377 25.862 18.432 27 16.003 27s-5.374-1.137-7.283-2.897c-1.511-.26-2.629-.961-3.398-1.957-.801-1.039-1.16-2.315-1.298-3.538-.162-1.432.522-2.614 1.54-3.312 1-.684 2.335-.92 3.609-.56l.145.04c1.526-.02 2.328-.374 3.116-.752l.155-.075c.85-.41 1.81-.876 3.414-.876 1.68 0 2.642.473 3.497.893l.124.06c.772.378 1.54.73 3.059.75l.145-.04c1.274-.36 2.61-.124 3.608.56 1.019.698 1.702 1.88 1.54 3.312-.137 1.223-.496 2.5-1.298 3.538-.768.995-1.884 1.695-3.392 1.956M19.589 7.388c-.324.196-.557.494-.557 1.146a2.6 2.6 0 0 0 .037.434 2.55 2.55 0 0 0 5.063-.434c0-.652-.233-.95-.557-1.146C23.165 7.14 22.499 7 21.582 7s-1.584.14-1.993.388m-6.65 1.564.012-.08q.023-.167.023-.338c0-.652-.233-.95-.558-1.146C12.007 7.14 11.34 7 10.424 7c-.917 0-1.584.14-1.993.388-.325.196-.557.494-.557 1.146a2.55 2.55 0 0 0 5.066.419m10.884 7.625v5.308c.564-.232.97-.57 1.272-.96.497-.645.78-1.522.894-2.541.069-.608-.197-1.105-.682-1.437a2.3 2.3 0 0 0-1.484-.37m-13.641.157v5.994c1.54 1.363 3.933 2.272 5.82 2.272s4.281-.909 5.821-2.272v-5.995c-1.414-.13-2.298-.529-3.077-.91l-.113-.055c-.8-.392-1.418-.695-2.63-.695-1.141 0-1.752.295-2.565.687l-.139.067c-.791.38-1.697.777-3.117.907m-2 5.153v-5.31a2.3 2.3 0 0 0-1.488.37c-.485.332-.752.83-.683 1.437.115 1.02.398 1.896.895 2.54.303.392.71.73 1.276.963m5.413-3.009c-.34.165-.723.352-1.229.545a1 1 0 1 1-.713-1.869c.248-.095.506-.22.784-.354.872-.422 1.944-.94 3.566-.94 1.7 0 2.769.525 3.632.95.267.131.514.253.754.347a1 1 0 1 1-.726 1.863 14 14 0 0 1-1.168-.526c-.748-.368-1.289-.635-2.492-.635-1.134 0-1.665.258-2.408.619" clip-rule="evenodd"/></svg>