<svg xmlns="http://www.w3.org/2000/svg" width="16" height="16" fill="none" class="persona-icon" viewBox="0 0 16 16"><path fill="currentColor" fill-rule="evenodd" d="M2.496 3.675a.5.5 0 0 1 .283-.338 7 7 0 0 1 10.726 8.988.5.5 0 0 1-.284.338A7 7 0 0 1 2.495 3.675M2.02 7.5H5.34c.018-.755.08-1.48.176-2.15a10 10 0 0 1-.44-.107 8.3 8.3 0 0 1-1.935-.764A5.97 5.97 0 0 0 2.021 7.5m1.12 4.02a8.4 8.4 0 0 1 2.026-.787q.172-.044.349-.083A18 18 0 0 1 5.34 8.5H2.02a5.97 5.97 0 0 0 1.121 3.02m3.294 2.274a6.4 6.4 0 0 1-.441-1.04 11 11 0 0 1-.302-1.118q-.14.03-.278.066a7.6 7.6 0 0 0-1.603.594 6 6 0 0 0 2.624 1.498M3.811 3.704c.444.228.955.423 1.52.572q.18.047.36.088.132-.605.303-1.118c.127-.383.274-.735.441-1.04a6 6 0 0 0-2.624 1.498m5.687 1.814a12 12 0 0 1-2.996 0A17 17 0 0 0 6.34 7.5h3.32a17 17 0 0 0-.162-1.982M9.66 8.5H6.34c.018.702.075 1.37.162 1.982a12 12 0 0 1 2.996 0c.088-.613.144-1.28.162-1.982m-.338 2.968a11 11 0 0 0-2.643 0q.117.53.263.97c.187.56.397.975.607 1.242.215.272.37.32.451.32.08 0 .236-.048.45-.32.21-.267.422-.683.608-1.242q.147-.44.264-.97M8 2c-.08 0-.236.048-.45.32-.21.267-.421.683-.608 1.242a10 10 0 0 0-.263.97 11 11 0 0 0 2.643 0 10 10 0 0 0-.264-.97c-.187-.56-.397-.975-.607-1.242C8.236 2.048 8.08 2 8 2m4.189 1.704a6 6 0 0 0-2.624-1.498c.167.305.314.657.442 1.04q.17.513.301 1.118.141-.03.278-.066a7.6 7.6 0 0 0 1.603-.594m-2.624 10.09a6 6 0 0 0 2.624-1.498 7.6 7.6 0 0 0-1.52-.572 9 9 0 0 0-.36-.088q-.131.605-.302 1.118a6.4 6.4 0 0 1-.442 1.04M10.661 7.5h3.319a5.97 5.97 0 0 0-1.121-3.02 8.4 8.4 0 0 1-2.026.787q-.172.044-.349.082c.097.672.158 1.396.177 2.151m-.177 3.15q.224.049.44.107c.711.188 1.366.445 1.935.764A5.97 5.97 0 0 0 13.98 8.5h-3.318c-.019.755-.08 1.48-.177 2.15" clip-rule="evenodd"/></svg>