<svg xmlns="http://www.w3.org/2000/svg" width="16" height="16" fill="none" class="persona-icon" viewBox="0 0 16 16"><path fill="currentColor" fill-rule="evenodd" d="M2.496 3.675a7 7 0 0 0 10.726 8.988.5.5 0 0 0 .283-.338A7 7 0 0 0 2.779 3.337a.5.5 0 0 0-.283.338M2.02 7.5a5.97 5.97 0 0 1 1.12-3.02 8.3 8.3 0 0 0 1.934.763q.218.058.44.106A18 18 0 0 0 5.34 7.5zm1.12 4.02a5.97 5.97 0 0 1-1.12-3.02H5.34c.018.755.079 1.48.176 2.15q-.177.04-.349.083a8.4 8.4 0 0 0-2.026.788m3.294 2.274a6 6 0 0 1-2.624-1.498 7.6 7.6 0 0 1 1.603-.594q.137-.034.278-.066.13.605.302 1.118c.127.383.274.735.441 1.04M3.811 3.704a6 6 0 0 1 2.624-1.498 6.4 6.4 0 0 0-.441 1.04 11 11 0 0 0-.302 1.118 9 9 0 0 1-.36-.088 7.6 7.6 0 0 1-1.52-.572m5.687 1.814c.088.613.144 1.28.162 1.982H6.34c.018-.702.075-1.37.162-1.982a12 12 0 0 0 2.996 0M9.66 8.5c-.018.702-.074 1.37-.162 1.982a12 12 0 0 0-2.996 0A17 17 0 0 1 6.34 8.5zm-.338 2.968a10 10 0 0 1-.264.97c-.187.559-.397.975-.607 1.242-.215.272-.37.32-.451.32-.08 0-.236-.048-.45-.32-.21-.267-.421-.683-.608-1.242a10 10 0 0 1-.263-.97 11 11 0 0 1 2.643 0M8 2c.08 0 .236.048.45.32.21.267.422.683.608 1.242q.147.44.264.97a11 11 0 0 1-2.643 0q.117-.53.263-.97c.187-.56.397-.975.607-1.242C7.764 2.048 7.92 2 8 2m4.189 1.704a7.6 7.6 0 0 1-1.603.594 10 10 0 0 1-.278.066 11 11 0 0 0-.301-1.118 6.4 6.4 0 0 0-.442-1.04 6 6 0 0 1 2.624 1.498m-2.624 10.09a6.4 6.4 0 0 0 .442-1.04q.17-.513.301-1.118.183.04.36.088c.566.15 1.077.343 1.521.572a6 6 0 0 1-2.624 1.498M10.661 7.5c-.019-.755-.08-1.48-.177-2.15q.176-.04.35-.083a8.4 8.4 0 0 0 2.025-.788 5.97 5.97 0 0 1 1.12 3.021zm-.177 3.15c.097-.67.158-1.395.177-2.15h3.319a5.97 5.97 0 0 1-1.12 3.02 8.4 8.4 0 0 0-1.935-.763 10 10 0 0 0-.44-.106" clip-rule="evenodd"/></svg>