<svg xmlns="http://www.w3.org/2000/svg" width="24" height="24" fill="none" class="persona-icon" viewBox="0 0 24 24"><path fill="currentColor" fill-rule="evenodd" d="M4.131 5.828A9.96 9.96 0 0 0 2 12c0 5.523 4.477 10 10 10a9.98 9.98 0 0 0 7.453-3.333.75.75 0 0 0 .416-.495A9.96 9.96 0 0 0 22 12c0-5.523-4.477-10-10-10a9.98 9.98 0 0 0-7.453 3.333.75.75 0 0 0-.416.495m-.598 5.422a8.45 8.45 0 0 1 1.563-4.21c.806.447 1.73.809 2.732 1.074q.292.078.594.144a26 26 0 0 0-.246 2.992zm1.563 5.71a8.46 8.46 0 0 1-1.563-4.21h4.643a26 26 0 0 0 .246 2.992q-.234.051-.463.11c-1.052.268-2.022.641-2.863 1.108m4.6 3.224a8.5 8.5 0 0 1-3.592-2.061 11 11 0 0 1 2.225-.817q.177-.045.357-.086.183.841.422 1.558c.171.513.367.988.589 1.406M6.105 5.877a8.5 8.5 0 0 1 3.593-2.061 9.3 9.3 0 0 0-.589 1.406c-.159.476-.3.999-.422 1.558q-.24-.054-.474-.116a10.8 10.8 0 0 1-2.108-.787M14.1 8.511c.12.848.197 1.77.224 2.739H9.677c.027-.97.104-1.89.224-2.74a17.1 17.1 0 0 0 4.198 0m.224 4.239c-.027.97-.104 1.89-.224 2.74a17.1 17.1 0 0 0-4.198 0 25 25 0 0 1-.224-2.74zM12 3.5c.097 0 .31.059.611.441.295.374.593.962.858 1.755q.203.609.365 1.336a15.7 15.7 0 0 1-3.668 0q.162-.727.365-1.336c.265-.793.563-1.38.858-1.755.301-.382.514-.441.611-.441m1.834 13.468q-.162.726-.365 1.336c-.265.793-.563 1.38-.858 1.755-.301.383-.514.441-.611.441s-.31-.058-.611-.441c-.295-.374-.593-.962-.858-1.755a14 14 0 0 1-.365-1.336 15.7 15.7 0 0 1 3.668 0m4.062-11.09a11 11 0 0 1-2.225.816q-.177.045-.357.086a15 15 0 0 0-.422-1.558 9.3 9.3 0 0 0-.588-1.406 8.5 8.5 0 0 1 3.592 2.061m-3.593 14.306c.222-.418.418-.893.589-1.406q.239-.716.422-1.558.24.054.474.116c.782.207 1.49.474 2.108.787a8.5 8.5 0 0 1-3.593 2.061m1.52-8.934a26 26 0 0 0-.245-2.992q.234-.052.463-.11c1.052-.268 2.022-.641 2.863-1.108a8.45 8.45 0 0 1 1.563 4.21zm-.245 4.492c.134-.936.218-1.943.246-2.992h4.643a8.46 8.46 0 0 1-1.563 4.21 12 12 0 0 0-2.732-1.074q-.293-.078-.594-.144" clip-rule="evenodd"/></svg>