<svg xmlns="http://www.w3.org/2000/svg" width="32" height="32" fill="none" class="persona-icon" viewBox="0 0 32 32"><path fill="currentColor" fill-rule="evenodd" d="M4.99 7.35A13.94 13.94 0 0 0 2 16c0 7.732 6.268 14 14 14 4.15 0 7.879-1.806 10.443-4.675a1 1 0 0 0 .566-.675A13.94 13.94 0 0 0 30 16c0-7.732-6.268-14-14-14-4.15 0-7.879 1.806-10.442 4.675a1 1 0 0 0-.567.675M4.042 15c.185-2.246.99-4.317 2.241-6.041 1.137.637 2.448 1.15 3.868 1.527q.435.116.881.213A37 37 0 0 0 10.68 15zm2.24 8.041A11.94 11.94 0 0 1 4.042 17h6.638c.037 1.51.159 2.959.352 4.301a21 21 0 0 0-.697.165c-1.492.38-2.866.91-4.052 1.575m6.59 4.547a12 12 0 0 1-5.249-2.997c.931-.48 2.011-.883 3.206-1.187q.274-.07.556-.133c.173.805.376 1.555.603 2.238a13 13 0 0 0 .883 2.079M7.621 7.408a12 12 0 0 1 5.248-2.996c-.333.61-.627 1.314-.883 2.08-.227.682-.43 1.432-.604 2.236a19 19 0 0 1-.72-.175c-1.13-.3-2.154-.688-3.04-1.144m11.375 3.628c.174 1.226.287 2.56.323 3.964h-6.64c.036-1.405.149-2.738.324-3.964a24.07 24.07 0 0 0 5.993 0M19.32 17a35 35 0 0 1-.323 3.964 24.068 24.068 0 0 0-5.993 0A35 35 0 0 1 12.68 17zm-.677 5.935a19 19 0 0 1-.527 1.941c-.373 1.118-.795 1.95-1.215 2.483-.428.544-.74.64-.901.64-.16 0-.473-.096-.901-.64-.42-.532-.842-1.365-1.214-2.483a19 19 0 0 1-.528-1.94 22 22 0 0 1 5.286 0M16 4c.16 0 .473.097.901.64.42.533.842 1.366 1.215 2.484a19 19 0 0 1 .527 1.94 22 22 0 0 1-5.286 0 19 19 0 0 1 .528-1.94c.372-1.118.794-1.95 1.214-2.483.428-.544.74-.641.901-.641m8.378 3.409c-.931.479-2.011.882-3.206 1.187q-.274.069-.555.132a21 21 0 0 0-.604-2.237 13 13 0 0 0-.883-2.079 12 12 0 0 1 5.248 2.997M19.13 27.588a13 13 0 0 0 .883-2.08c.227-.682.43-1.432.604-2.236q.365.08.72.175c1.13.3 2.154.688 3.04 1.144a12 12 0 0 1-5.247 2.997M21.32 15a37 37 0 0 0-.352-4.301q.352-.078.697-.165c1.492-.38 2.866-.91 4.052-1.575A11.94 11.94 0 0 1 27.958 15zm-.352 6.301c.193-1.342.315-2.79.352-4.301h6.638a11.94 11.94 0 0 1-2.24 6.041c-1.138-.637-2.448-1.151-3.87-1.527q-.435-.116-.88-.213" clip-rule="evenodd"/></svg>