<svg xmlns="http://www.w3.org/2000/svg" width="32" height="32" fill="none" class="persona-icon" viewBox="0 0 32 32"><path fill="currentColor" fill-rule="evenodd" d="M3.002 16.002c0-7.18 5.82-13 13-13s13 5.82 13 13-5.82 13-13 13-13-5.82-13-13m13-11c-6.075 0-11 4.925-11 11s4.925 11 11 11 11-4.924 11-11-4.925-11-11-11" clip-rule="evenodd"/><path fill="currentColor" fill-rule="evenodd" d="M13.66 4.326c.568-.72 1.352-1.324 2.342-1.324s1.774.603 2.343 1.324c.577.733 1.053 1.73 1.434 2.875.767 2.298 1.223 5.41 1.223 8.801s-.456 6.503-1.223 8.802c-.381 1.144-.857 2.142-1.434 2.874-.569.721-1.353 1.324-2.343 1.324s-1.774-.602-2.342-1.324c-.578-.732-1.054-1.73-1.435-2.874-.766-2.299-1.223-5.41-1.223-8.802s.457-6.503 1.223-8.801c.381-1.144.857-2.142 1.435-2.875m.463 3.507c-.682 2.045-1.12 4.933-1.12 8.17 0 3.235.438 6.124 1.12 8.168.342 1.028.728 1.787 1.108 2.27.388.493.657.561.771.561.115 0 .383-.068.772-.562.38-.482.765-1.241 1.108-2.269.681-2.044 1.12-4.933 1.12-8.169s-.438-6.124-1.12-8.169c-.343-1.027-.728-1.787-1.108-2.269-.389-.493-.657-.562-.772-.562s-.383.069-.771.562c-.38.482-.766 1.242-1.108 2.27" clip-rule="evenodd"/><path fill="currentColor" fill-rule="evenodd" d="M10.753 20.974a21.5 21.5 0 0 1 5.342-.638 21.3 21.3 0 0 1 5.327.682c1.67.442 3.179 1.091 4.405 1.92l-1.119 1.657c-1.005-.68-2.298-1.247-3.798-1.644a19.3 19.3 0 0 0-4.823-.615 19.5 19.5 0 0 0-4.84.576c-1.512.385-2.822.942-3.849 1.615l-1.095-1.673c1.245-.816 2.768-1.452 4.45-1.88M10.583 10.987c-1.671-.443-3.18-1.091-4.406-1.92l1.12-1.657c1.005.679 2.298 1.246 3.798 1.644 1.498.396 3.145.608 4.823.615 1.677.007 3.33-.191 4.84-.576 1.512-.385 2.822-.943 3.848-1.615l1.096 1.673c-1.246.816-2.769 1.452-4.45 1.88a21.5 21.5 0 0 1-5.343.638 21.3 21.3 0 0 1-5.326-.682M3.002 16.002a1 1 0 0 1 1-1h24a1 1 0 1 1 0 2h-24a1 1 0 0 1-1-1" clip-rule="evenodd"/></svg>