<svg xmlns="http://www.w3.org/2000/svg" width="32" height="32" fill="none"><path fill="#000" fill-rule="evenodd" d="M7 4.805C7 3.532 8.045 2.5 9.333 2.5h13.334C23.955 2.5 25 3.532 25 4.805v6.585c0 .144-.013.284-.039.42C27.263 12.255 29 14.257 29 16.66v3.95c0 2.39-1.718 4.383-4 4.841v1.745c0 1.273-1.045 2.305-2.333 2.305H9.333C8.045 29.5 7 28.468 7 27.195V25.45c-2.282-.458-4-2.45-4-4.84v-3.951c0-2.403 1.737-4.405 4.039-4.848A2.29 2.29 0 0 1 7 11.39V4.804Zm0 18.6V20.61c0-.279.05-.546.142-.793a2.333 2.333 0 0 1 2.191-1.512h13.334c1.127 0 2.068.79 2.286 1.84.03.15.047.306.047.465v2.795a2.967 2.967 0 0 0 2-2.795v-3.951c0-1.637-1.343-2.964-3-2.964H8c-1.657 0-3 1.327-3 2.964v3.95c0 1.291.835 2.389 2 2.796Zm2 3.79c0 .182.15.33.333.33h13.334a.331.331 0 0 0 .333-.33V20.61a.333.333 0 0 0-.333-.33H9.333a.333.333 0 0 0-.333.33v6.585Zm.333-22.72a.331.331 0 0 0-.333.33v6.585c0 .182.15.33.333.33h13.334a.331.331 0 0 0 .333-.33V4.805c0-.182-.15-.33-.333-.33H9.333Z" clip-rule="evenodd"/></svg>