<svg xmlns="http://www.w3.org/2000/svg" width="16" height="16" fill="none" class="persona-icon" viewBox="0 0 16 16"><path fill="currentColor" fill-rule="evenodd" d="M8 2a.5.5 0 0 1 .5.5v.64a.5.5 0 0 1-1 0V2.5A.5.5 0 0 1 8 2m0 2.11a.5.5 0 0 1 .5.5v1.28a.5.5 0 1 1-1 0V4.61a.5.5 0 0 1 .5-.5m0 2.75a.5.5 0 0 1 .5.5v1.28a.5.5 0 1 1-1 0V7.36a.5.5 0 0 1 .5-.5m0 2.75a.5.5 0 0 1 .5.5v1.28a.5.5 0 1 1-1 0v-1.28a.5.5 0 0 1 .5-.5m0 2.75a.5.5 0 0 1 .5.5v.64a.5.5 0 0 1-1 0v-.64a.5.5 0 0 1 .5-.5M2.24 3.295a.5.5 0 0 1 .49-.016l3.667 1.9a.5.5 0 0 1 .27.445v4.753a.5.5 0 0 1-.27.443L2.73 12.722a.5.5 0 0 1-.73-.444V3.722a.5.5 0 0 1 .24-.427M3 4.545v6.91l2.667-1.383V5.929zm10.76-1.25a.5.5 0 0 1 .241.427v8.556a.5.5 0 0 1-.73.444L9.604 10.82a.5.5 0 0 1-.27-.444V5.625a.5.5 0 0 1 .27-.444l3.667-1.901a.5.5 0 0 1 .49.016m-3.425 2.633v4.145L13 11.455v-6.91z" clip-rule="evenodd"/></svg>