<svg xmlns="http://www.w3.org/2000/svg" width="20" height="20" fill="none" class="persona-icon" viewBox="0 0 20 20"><path fill="currentColor" d="M10 2.975c.345 0 .625.28.625.625v.744a.625.625 0 1 1-1.25 0V3.6c0-.345.28-.625.625-.625M10 5.431c.345 0 .625.28.625.625v1.488a.625.625 0 1 1-1.25 0V6.056c0-.345.28-.625.625-.625M10 8.63c.345 0 .625.28.625.626v1.488a.625.625 0 1 1-1.25 0V9.256c0-.345.28-.625.625-.625M10 11.83c.345 0 .625.28.625.626v1.488a.625.625 0 1 1-1.25 0v-1.488c0-.346.28-.625.625-.625M10 15.03c.345 0 .625.28.625.625v.745a.625.625 0 0 1-1.25 0v-.745c0-.345.28-.625.625-.625"/><path fill="currentColor" fill-rule="evenodd" d="M16.725 4.489c.186.113.3.315.3.534v9.955a.625.625 0 0 1-.912.554l-4.267-2.212a.63.63 0 0 1-.337-.555v-5.53c0-.234.13-.448.337-.555l4.267-2.212a.63.63 0 0 1 .612.02m-3.966 3.126v4.77l3.016 1.564V6.051zM2.975 5.023a.625.625 0 0 1 .913-.555L8.154 6.68a.63.63 0 0 1 .337.555v5.53c0 .234-.13.448-.337.555l-4.266 2.212a.625.625 0 0 1-.913-.555zm4.266 7.362v-4.77L4.225 6.05v7.898z" clip-rule="evenodd"/></svg>