<svg xmlns="http://www.w3.org/2000/svg" width="32" height="32" fill="none" class="persona-icon" viewBox="0 0 32 32"><path fill="currentColor" fill-rule="evenodd" d="M16 4a1 1 0 0 1 1 1v1.28a1 1 0 1 1-2 0V5a1 1 0 0 1 1-1m0 4.221a1 1 0 0 1 1 1v2.558a1 1 0 1 1-2 0V9.221a1 1 0 0 1 1-1m0 5.5a1 1 0 0 1 1 1v2.558a1 1 0 0 1-2 0v-2.558a1 1 0 0 1 1-1m0 5.5a1 1 0 0 1 1 1v2.558a1 1 0 1 1-2 0V20.22a1 1 0 0 1 1-1m0 5.5a1 1 0 0 1 1 1V27a1 1 0 1 1-2 0v-1.28a1 1 0 0 1 1-1M27.52 6.59a1 1 0 0 1 .48.855v17.11a1 1 0 0 1-1.46.888l-7.333-3.802a1 1 0 0 1-.54-.888v-9.506a1 1 0 0 1 .54-.888l7.333-3.802a1 1 0 0 1 .98.033m-6.853 5.265v8.29L26 22.91V9.09zM4.48 6.59a1 1 0 0 0-.48.855v17.11a1 1 0 0 0 1.46.888l7.333-3.802a1 1 0 0 0 .54-.888v-9.506a1 1 0 0 0-.54-.888L5.46 6.557a1 1 0 0 0-.98.033m6.853 5.265v8.29L6 22.91V9.09z" clip-rule="evenodd"/></svg>