<svg xmlns="http://www.w3.org/2000/svg" width="20" height="20" fill="none" class="persona-icon" viewBox="0 0 20 20"><path fill="currentColor" fill-rule="evenodd" d="M3.975 3.808c0-.76.616-1.376 1.376-1.376h9.298c.76 0 1.376.616 1.376 1.376v2.627c0 .345-.28.625-.625.625H4.6a.625.625 0 0 1-.625-.625zm2.877.313a.625.625 0 1 0 0 1.25h3.602a.625.625 0 0 0 0-1.25zm7.047.625a.75.75 0 1 0-1.501 0 .75.75 0 0 0 1.5 0M4.6 7.686h10.8c.345 0 .625.28.625.625v3.378c0 .345-.28.625-.625.625H4.6a.625.625 0 0 1-.625-.625V8.311c0-.345.28-.625.625-.625M6.227 10c0 .345.28.625.625.625h3.602a.625.625 0 0 0 0-1.25H6.852a.625.625 0 0 0-.625.625m6.921.75a.75.75 0 1 0 0-1.5.75.75 0 0 0 0 1.5M4.6 12.94h10.8c.345 0 .625.28.625.626v2.627c0 .76-.616 1.375-1.376 1.375H5.351c-.76 0-1.376-.616-1.376-1.375v-2.627c0-.346.28-.625.625-.625m1.627 2.314c0 .346.28.625.625.625h3.602a.625.625 0 0 0 0-1.25H6.852a.625.625 0 0 0-.625.625m6.921.751a.75.75 0 1 0 0-1.501.75.75 0 0 0 0 1.501" clip-rule="evenodd"/></svg>