<svg xmlns="http://www.w3.org/2000/svg" width="24" height="24" fill="none" class="persona-icon" viewBox="0 0 24 24"><path fill="currentColor" fill-rule="evenodd" d="M4.806 9h14.388a.75.75 0 0 1 .75.75v4.5a.75.75 0 0 1-.75.75H4.806a.75.75 0 0 1-.75-.75v-4.5a.75.75 0 0 1 .75-.75m2.25 3c0 .414.335.75.75.75h4.8a.75.75 0 1 0 0-1.5h-4.8a.75.75 0 0 0-.75.75m9.139 1a1 1 0 1 0 0-2 1 1 0 0 0 0 2M4.806 16h14.39a.75.75 0 0 1 .75.75v3.5a1.75 1.75 0 0 1-1.75 1.75H5.805a1.75 1.75 0 0 1-1.75-1.75v-3.5a.75.75 0 0 1 .75-.75m2.25 3c0 .414.335.75.75.75h4.8a.75.75 0 1 0 0-1.5h-4.8a.75.75 0 0 0-.75.75m9.139 1a1 1 0 1 0 0-2 1 1 0 0 0 0 2M4.806 8a.75.75 0 0 1-.75-.75v-3.5c0-.966.783-1.75 1.75-1.75h12.39c.966 0 1.75.784 1.75 1.75v3.5a.75.75 0 0 1-.75.75zm2.25-3c0 .414.335.75.75.75h4.8a.75.75 0 1 0 0-1.5h-4.8a.75.75 0 0 0-.75.75m9.139-1a1 1 0 1 0 0 2 1 1 0 0 0 0-2" clip-rule="evenodd"/></svg>