<svg xmlns="http://www.w3.org/2000/svg" width="32" height="32" fill="none" class="persona-icon" viewBox="0 0 32 32"><path fill="currentColor" fill-rule="evenodd" d="M7 12.247h18c.518 0 .938.42.938.938v5.63c0 .518-.42.938-.938.938H7a.94.94 0 0 1-.938-.938v-5.63c0-.518.42-.938.938-.938M9.815 16c0 .518.42.938.938.938h6.005a.938.938 0 0 0 0-1.876h-6.005a.94.94 0 0 0-.938.938m11.432 1.251a1.251 1.251 0 1 0 0-2.502 1.251 1.251 0 0 0 0 2.502M7 21.004h18.001c.518 0 .939.42.939.938v4.379a2.19 2.19 0 0 1-2.19 2.189H8.251a2.19 2.19 0 0 1-2.19-2.19v-4.378c0-.518.42-.938.939-.938m2.815 3.753c0 .518.42.938.938.938h6.005a.938.938 0 1 0 0-1.876h-6.005a.94.94 0 0 0-.938.938m11.432 1.251a1.251 1.251 0 1 0 0-2.502 1.251 1.251 0 0 0 0 2.502M7 10.996a.94.94 0 0 1-.938-.938V5.68c0-1.21.98-2.19 2.189-2.19h15.5c1.208 0 2.189.98 2.189 2.19v4.378c0 .518-.42.938-.939.938zm2.815-3.753c0 .518.42.939.938.939h6.005a.938.938 0 0 0 0-1.877h-6.005a.94.94 0 0 0-.938.938m11.432-1.25a1.25 1.25 0 1 0 0 2.501 1.25 1.25 0 0 0 0-2.502" clip-rule="evenodd"/></svg>