<svg xmlns="http://www.w3.org/2000/svg" width="16" height="16" fill="none" class="persona-icon" viewBox="0 0 16 16"><path fill="currentColor" d="M6.891 2.242c.47.31.841.708 1.109 1.097.268-.39.64-.787 1.109-1.097a3.38 3.38 0 0 1 1.915-.577c.748.008 1.559.265 2.408.848q.03.021.059.047c1.198 1.103 1.613 2.394 1.488 3.704-.122 1.278-.752 2.534-1.555 3.637-.807 1.11-1.819 2.106-2.767 2.871-.936.756-1.857 1.325-2.491 1.536a.53.53 0 0 1-.332 0c-.635-.211-1.555-.78-2.491-1.536-.948-.765-1.96-1.761-2.767-2.87-.803-1.104-1.433-2.36-1.555-3.638-.124-1.31.29-2.6 1.488-3.704a1 1 0 0 1 .059-.047c.85-.583 1.66-.84 2.408-.848a3.38 3.38 0 0 1 1.915.577"/></svg>