<svg xmlns="http://www.w3.org/2000/svg" width="32" height="32" fill="none" class="persona-icon" viewBox="0 0 32 32"><path fill="currentColor" d="M13.782 4.484A8.3 8.3 0 0 1 16 6.677a8.3 8.3 0 0 1 2.218-2.193c1.041-.689 2.333-1.17 3.83-1.154s3.117.53 4.817 1.697q.06.042.117.093c2.397 2.207 3.225 4.789 2.975 7.408-.243 2.557-1.503 5.068-3.109 7.275-1.614 2.219-3.638 4.21-5.534 5.742-1.871 1.51-3.713 2.649-4.982 3.072a1.05 1.05 0 0 1-.664 0c-1.269-.423-3.11-1.562-4.982-3.072-1.896-1.531-3.92-3.523-5.534-5.742-1.606-2.207-2.866-4.718-3.11-7.276-.249-2.618.58-5.2 2.976-7.407q.055-.051.117-.093c1.7-1.167 3.32-1.681 4.818-1.697 1.496-.016 2.788.465 3.83 1.154"/></svg>