<svg xmlns="http://www.w3.org/2000/svg" width="32" height="32" fill="none"><path fill="#000" fill-rule="evenodd" d="M15.514 3.126a1 1 0 0 1 .972 0l12 6.667a1 1 0 0 1 0 1.748l-12 6.666a1 1 0 0 1-.972 0l-12-6.666a1 1 0 0 1 0-1.748l12-6.667Zm-9.455 7.54L16 16.19l9.942-5.522L16 5.144l-9.94 5.523Z" clip-rule="evenodd"/><path fill="#000" fill-rule="evenodd" d="M3.126 15.515a1 1 0 0 1 1.36-.389L16 21.523l11.514-6.397a1 1 0 1 1 .972 1.748l-12 6.667a1 1 0 0 1-.972 0l-12-6.667a1 1 0 0 1-.388-1.36Z" clip-rule="evenodd"/><path fill="#000" fill-rule="evenodd" d="M3.126 20.848a1 1 0 0 1 1.36-.389L16 26.856l11.514-6.397a1 1 0 0 1 .972 1.749l-12 6.666a1 1 0 0 1-.972 0l-12-6.666a1 1 0 0 1-.388-1.36Z" clip-rule="evenodd"/></svg>