<svg xmlns="http://www.w3.org/2000/svg" width="16" height="16" fill="none"><path fill="#000" fill-rule="evenodd" d="M5.259 10.8a.553.553 0 0 0 .325.089c.145 0 .256-.035.334-.104.078-.07.153-.182.225-.337l.41-.93h2.87l.417.93c.067.15.142.262.226.337.089.07.211.104.367.104.128 0 .23-.027.309-.08a.363.363 0 0 0 .141-.24.554.554 0 0 0-.066-.337L8.605 5.544a.729.729 0 0 0-.267-.329.586.586 0 0 0-.342-.104.639.639 0 0 0-.359.104.755.755 0 0 0-.259.329l-2.203 4.688a.585.585 0 0 0-.058.336.358.358 0 0 0 .142.233Zm1.664-2.099L7.98 6.29h.017L9.06 8.701H6.923Z" clip-rule="evenodd"/><path fill="#000" fill-rule="evenodd" d="M1 13.056c0-.902.613-1.66 1.445-1.88V4.824a1.945 1.945 0 1 1 2.379-2.38h6.352a1.945 1.945 0 1 1 2.38 2.38v6.352a1.945 1.945 0 1 1-2.38 2.38H4.824a1.945 1.945 0 0 1-3.824-.5Zm1 0a.944.944 0 1 1 1.889 0 .944.944 0 0 1-1.889 0Zm1.445-1.88V4.824a1.948 1.948 0 0 0 1.379-1.38h6.352a1.948 1.948 0 0 0 1.38 1.38v6.352a1.948 1.948 0 0 0-1.38 1.38H4.824a1.948 1.948 0 0 0-1.38-1.38ZM2 2.944a.944.944 0 1 1 1.889 0 .944.944 0 0 1-1.889 0ZM13.056 2a.944.944 0 1 0 0 1.889.944.944 0 0 0 0-1.889Zm-.945 11.056a.944.944 0 1 1 1.889 0 .944.944 0 0 1-1.889 0Z" clip-rule="evenodd"/></svg>