<svg xmlns="http://www.w3.org/2000/svg" width="20" height="20" fill="none"><path fill="#000" fill-rule="evenodd" d="M6.876 13.191a.63.63 0 0 0 .371.1c.165 0 .292-.039.38-.118.09-.079.175-.207.257-.383l.468-1.06h3.27l.475 1.06c.076.17.162.298.257.383.102.08.241.119.419.119a.61.61 0 0 0 .351-.091.413.413 0 0 0 .162-.274.63.63 0 0 0-.076-.384l-2.52-5.342a.83.83 0 0 0-.305-.375.668.668 0 0 0-.39-.118.728.728 0 0 0-.408.118c-.115.073-.213.198-.295.375L6.78 12.543a.667.667 0 0 0-.067.384c.02.11.073.197.162.264ZM8.773 10.8 9.977 8.05h.019l1.212 2.749H8.773Z" clip-rule="evenodd"/><path fill="#000" fill-rule="evenodd" d="M2 15.761c0-1.031.697-1.9 1.647-2.16V6.398a2.24 2.24 0 1 1 2.751-2.752h7.204a2.24 2.24 0 1 1 2.752 2.752v7.204a2.24 2.24 0 1 1-2.752 2.752H6.398A2.24 2.24 0 0 1 2 15.76Zm1.185 0a1.053 1.053 0 1 1 2.107 0 1.053 1.053 0 0 1-2.107 0Zm1.647-2.16V6.399A2.243 2.243 0 0 0 6.398 4.83h7.204c.208.76.807 1.359 1.567 1.567v7.204c-.76.207-1.359.806-1.567 1.567H6.398a2.243 2.243 0 0 0-1.566-1.567ZM3.185 4.239a1.054 1.054 0 1 1 2.107 0 1.054 1.054 0 0 1-2.107 0Zm12.576-1.053a1.053 1.053 0 1 0 0 2.107 1.053 1.053 0 0 0 0-2.107Zm-1.053 12.576a1.053 1.053 0 1 1 2.107 0 1.053 1.053 0 0 1-2.107 0Z" clip-rule="evenodd"/></svg>