<svg xmlns="http://www.w3.org/2000/svg" width="24" height="24" fill="none" class="persona-icon" viewBox="0 0 24 24"><path fill="currentColor" fill-rule="evenodd" d="M3.15 19.25a.75.75 0 0 1 .75-.75h16.2a.75.75 0 0 1 0 1.5H3.9a.75.75 0 0 1-.75-.75M6.321 6.312a1.6 1.6 0 0 1 1.106.083l.008.003 5.877 2.778c.119.057.161.06.166.06 0 0 .025.003.11-.025l4.207-1.442c.711-.24 1.49-.304 2.174-.15.681.153 1.374.555 1.66 1.33v.003c.304.834.001 1.614-.5 2.172-.491.548-1.217.949-1.996 1.16h-.003l-12 3.198h-.002c-.734.2-1.56.165-2.148-.498l-.001-.002-2.45-2.75a1.03 1.03 0 0 1-.277-.759c.018-.3.165-.547.352-.717l.202-.188c.16-.148.36-.277.609-.334.252-.057.483-.024.676.04l.007.003 3.126 1.11.984-.34-2.771-2.94a1.02 1.02 0 0 1-.276-.914.98.98 0 0 1 .653-.726l.01-.003zm1.144 1.76 3.43 3.638-3.679 1.265-2.95-1.047 1.836 2.06c.055.063.18.17.635.046h.003l12.001-3.198h.002c.564-.154 1.013-.428 1.27-.714.248-.276.268-.49.208-.656-.05-.135-.202-.299-.58-.384-.376-.084-.873-.057-1.365.108h-.002l-4.21 1.444a1.8 1.8 0 0 1-.695.098 2 2 0 0 1-.703-.203h-.002z" clip-rule="evenodd"/></svg>