<svg xmlns="http://www.w3.org/2000/svg" width="32" height="32" fill="none" class="persona-icon" viewBox="0 0 32 32"><path fill="currentColor" fill-rule="evenodd" d="M4.945 25a1 1 0 0 1 1-1h20.11a1 1 0 1 1 0 2H5.945a1 1 0 0 1-1-1M8.93 8.874a2.06 2.06 0 0 1 1.421.106l.01.004 7.297 3.448a1 1 0 0 0 .18.069h.002l.012-.002a1 1 0 0 0 .097-.026l5.217-1.788.005-.001c.893-.302 1.874-.383 2.737-.19.859.194 1.743.704 2.11 1.694l.001.005c.388 1.066-.002 2.06-.634 2.766-.622.692-1.536 1.196-2.512 1.46l-.004.002-14.898 3.97H9.97c-.925.25-1.982.21-2.737-.64v-.002l-3.041-3.413a1.35 1.35 0 0 1-.362-.993 1.38 1.38 0 0 1 .46-.938l.25-.233c.205-.19.465-.357.787-.43.328-.075.628-.032.876.051l.01.003 3.858 1.37 1.099-.378-3.367-3.573a1.34 1.34 0 0 1-.36-1.195c.097-.47.44-.815.856-.954l.013-.004zm1.74 2.468 4.08 4.33-4.689 1.612-3.43-1.217 2.1 2.357c.045.052.09.078.168.092.098.018.273.019.55-.056l.004-.001 14.897-3.97h.002c.691-.188 1.236-.522 1.544-.866.296-.33.307-.568.244-.744-.052-.139-.215-.33-.67-.433-.453-.101-1.057-.07-1.657.132h-.003l-5.225 1.792a2.25 2.25 0 0 1-.891.126 2.5 2.5 0 0 1-.897-.259l-.003-.001z" clip-rule="evenodd"/></svg>