<svg xmlns="http://www.w3.org/2000/svg" width="32" height="32" fill="none"><path fill="#000" fill-rule="evenodd" d="M26.978 4.617a.988.988 0 0 0-1.015.049l-6.46 4.306-6.459-4.306a.988.988 0 0 0-1.096 0L4.94 9.338a.988.988 0 0 0-.44.822v16.352a.988.988 0 0 0 1.536.822l6.46-4.306 6.46 4.306a.988.988 0 0 0 1.096 0l7.008-4.672a.988.988 0 0 0 .44-.822V5.488c0-.364-.2-.7-.522-.871Zm-1.455 2.718V21.31l-6.02 4.013-6.459-4.307a.988.988 0 0 0-1.096 0l-5.471 3.648V10.69l6.02-4.013 6.459 4.306a.988.988 0 0 0 1.096 0l5.471-3.647Z" clip-rule="evenodd"/><path fill="#000" fill-rule="evenodd" d="M20.492 26.512V10.16h-1.976v16.352h1.976ZM13.484 21.84V5.488h-1.976V21.84h1.976Z" clip-rule="evenodd"/></svg>