<svg xmlns="http://www.w3.org/2000/svg" width="16" height="16" fill="none" class="persona-icon" viewBox="0 0 16 16"><path fill="currentColor" d="M2 3.722a1.722 1.722 0 1 1 3.241.812l1.06 1.06a2.93 2.93 0 0 1 1.7-.538c.632 0 1.218.199 1.698.539l1.06-1.06a1.722 1.722 0 1 1 .707.707l-1.06 1.06c.34.48.539 1.066.539 1.698 0 .633-.2 1.219-.54 1.698l1.06 1.06a1.722 1.722 0 1 1-.707.707l-1.06-1.06c-.48.34-1.065.54-1.698.54-.632 0-1.218-.2-1.698-.54l-1.06 1.06a1.722 1.722 0 1 1-.707-.707l1.06-1.06A2.93 2.93 0 0 1 5.055 8c0-.633.2-1.218.54-1.698l-1.06-1.06A1.722 1.722 0 0 1 2 3.721"/></svg>