<svg xmlns="http://www.w3.org/2000/svg" width="20" height="20" fill="none" class="persona-icon" viewBox="0 0 20 20"><path fill="currentColor" d="M2.975 5.022a2.047 2.047 0 1 1 3.868.937l1.185 1.186A3.45 3.45 0 0 1 10 6.53c.732 0 1.412.227 1.972.614l1.185-1.186a2.047 2.047 0 1 1 .884.884L12.855 8.03c.388.56.614 1.239.614 1.971s-.226 1.412-.614 1.972l1.186 1.185a2.047 2.047 0 1 1-.884.884l-1.186-1.185c-.56.387-1.239.614-1.971.614a3.45 3.45 0 0 1-1.971-.615l-1.186 1.186a2.047 2.047 0 1 1-.884-.884l1.186-1.185A3.45 3.45 0 0 1 6.53 10c0-.732.226-1.411.614-1.971L5.959 6.843a2.047 2.047 0 0 1-2.984-1.82"/></svg>