<svg xmlns="http://www.w3.org/2000/svg" width="32" height="32" fill="none" class="persona-icon" viewBox="0 0 32 32"><path fill="currentColor" d="M4 7.445a3.444 3.444 0 1 1 6.483 1.624l2.12 2.12A5.86 5.86 0 0 1 16 10.111c1.265 0 2.437.399 3.397 1.078l2.12-2.12a3.444 3.444 0 1 1 1.414 1.414l-2.12 2.12A5.86 5.86 0 0 1 21.89 16a5.86 5.86 0 0 1-1.078 3.397l2.12 2.12a3.444 3.444 0 1 1-1.414 1.414l-2.12-2.12A5.86 5.86 0 0 1 16 21.89a5.86 5.86 0 0 1-3.396-1.078l-2.121 2.12a3.444 3.444 0 1 1-1.414-1.414l2.12-2.12A5.86 5.86 0 0 1 10.111 16c0-1.265.4-2.437 1.078-3.397l-2.12-2.12A3.444 3.444 0 0 1 4 7.445"/></svg>