<svg xmlns="http://www.w3.org/2000/svg" width="16" height="16" fill="none" class="persona-icon" viewBox="0 0 16 16"><path fill="currentColor" fill-rule="evenodd" d="M6.185 3.433a1.3 1.3 0 0 0-.425.026q-.45.105-.867.52c-.403.404-.54.925-.455 1.382H3.11C2.497 5.361 2 5.86 2 6.472v1.222c0 .434.249.81.611.993v3.59c0 .952.771 1.723 1.722 1.723h7.334c.95 0 1.722-.771 1.722-1.722V8.687c.362-.183.611-.559.611-.993V6.472c0-.613-.498-1.11-1.111-1.11h-1.33c.085-.458-.052-.979-.455-1.382q-.418-.417-.867-.52a1.3 1.3 0 0 0-.472-.02 1.9 1.9 0 0 0-.172-.552C9.319 2.34 8.776 2 8 2c-.439 0-.812.09-1.11.276a1.46 1.46 0 0 0-.603.734 1.8 1.8 0 0 0-.102.423M7.5 6.361v1.445H3.111A.11.11 0 0 1 3 7.694V6.472c0-.061.05-.11.111-.11zm0 2.445V13H4.333a.72.72 0 0 1-.722-.722V8.806zM6.957 5.36H5.553c-.016 0-.09-.009-.127-.156-.033-.134-.007-.336.175-.518m1.356.674-.573-.715-.022-.03-.007-.009a.6.6 0 0 0-.198-.158.27.27 0 0 0-.172-.015c-.073.017-.204.072-.384.253m1.627-.591c-.066-.24-.084-.525-.006-.73a.46.46 0 0 1 .194-.24C7.519 3.063 7.697 3 8 3c.446 0 .616.169.699.335.095.191.119.474.06.777L8 5.06zM8.5 7.806V6.36h4.389c.061 0 .111.05.111.111v1.222c0 .062-.05.112-.111.112zM8.5 13V8.806h3.889v3.472a.72.72 0 0 1-.722.722zm1.896-8.313c-.18-.18-.31-.236-.384-.253a.27.27 0 0 0-.173.015.5.5 0 0 0-.197.158l-.007.01-.022.029-.572.715m1.355-.674c.182.182.208.384.174.518-.036.147-.11.156-.126.156H9.04m.598-.75v.002l-.002.001-.001.002z" clip-rule="evenodd"/></svg>