<svg xmlns="http://www.w3.org/2000/svg" width="20" height="20" fill="none" class="persona-icon" viewBox="0 0 20 20"><path fill="currentColor" fill-rule="evenodd" d="M16.26 10.777c.434-.181.74-.62.74-1.134V7.81c0-.676-.53-1.223-1.183-1.223h-1.193a2.1 2.1 0 0 0-.234-1.49 1.95 1.95 0 0 0-2.076-.95C12.25 2.972 11.306 2 10.112 2h-.224c-1.194 0-2.138.971-2.202 2.146a1.95 1.95 0 0 0-2.076.95c-.267.46-.34.994-.234 1.49H4.183C3.53 6.586 3 7.133 3 7.809v1.834c0 .513.306.953.74 1.134v4.981c0 1.238.97 2.242 2.169 2.242h8.183c1.197 0 2.169-1.004 2.169-2.242zM9.409 9.643H4.184V7.81H9.41zm0 7.134h-3.5c-.544 0-.985-.456-.985-1.019v-4.892h4.486zM8.77 6.586H6.64a.84.84 0 0 1-.015-.861.773.773 0 0 1 1.026-.31l.356.185zm1.119-3.363h.224c.632 0 1.112.586 1.008 1.23l-.065.402L10 6.22 8.945 4.855l-.065-.402c-.104-.644.376-1.23 1.008-1.23m.704 4.586h5.225v1.834h-5.225zm4.486 3.057v4.892c0 .563-.442 1.02-.986 1.02h-3.5v-5.912zM11.994 5.6l.356-.184a.773.773 0 0 1 1.026.309.84.84 0 0 1-.015.861h-2.13z" clip-rule="evenodd"/></svg>