<svg xmlns="http://www.w3.org/2000/svg" width="20" height="20" fill="none" class="persona-icon" viewBox="0 0 20 20"><path fill="currentColor" fill-rule="evenodd" d="M16.26 10.777c.434-.181.74-.62.74-1.134V7.81c0-.676-.53-1.223-1.183-1.223h-1.193a2.093 2.093 0 0 0-.234-1.49 1.946 1.946 0 0 0-2.076-.95C12.25 2.971 11.306 2 10.112 2h-.224c-1.194 0-2.138.971-2.202 2.146a1.946 1.946 0 0 0-2.076.95c-.267.46-.34.994-.234 1.49H4.183C3.53 6.586 3 7.133 3 7.809v1.834c0 .513.306.953.74 1.134v4.981c0 1.238.97 2.242 2.168 2.242h8.183c1.199 0 2.17-1.004 2.17-2.242v-4.98ZM9.409 9.643H4.184V7.81H9.41v1.834Zm0 7.134v-5.91H4.923v4.891c0 .563.44 1.02.986 1.02h3.5ZM8.77 6.586H6.64a.836.836 0 0 1-.015-.861.773.773 0 0 1 1.026-.31l.356.185.763.986Zm1.119-3.363c-.632 0-1.112.586-1.008 1.23l.065.402L10 6.22l1.055-1.364.065-.402c.104-.644-.376-1.23-1.008-1.23h-.224Zm.704 4.586v1.834h5.225V7.81H10.59Zm4.486 3.057h-4.486v5.911h3.5c.544 0 .986-.456.986-1.019v-4.892ZM11.994 5.6l-.763.986h2.13a.836.836 0 0 0 .015-.861.773.773 0 0 0-1.026-.31l-.356.185Z" clip-rule="evenodd"/></svg>