<svg xmlns="http://www.w3.org/2000/svg" width="20" height="20" fill="none" class="persona-icon" viewBox="0 0 20 20"><path fill="currentColor" fill-rule="evenodd" d="M7.85 4.639q.031-.233.117-.461c.127-.336.355-.651.718-.876.356-.221.798-.327 1.315-.327.917 0 1.566.404 1.892 1.057.098.195.162.403.197.612a1.5 1.5 0 0 1 .524.03q.538.125 1.029.617c.465.465.632 1.062.55 1.595h1.497c.738 0 1.336.598 1.336 1.336v1.422c0 .512-.288.957-.711 1.181v4.153c0 1.13-.917 2.047-2.047 2.047H5.733a2.047 2.047 0 0 1-2.047-2.047v-4.152a1.34 1.34 0 0 1-.711-1.182V8.222c0-.738.598-1.336 1.336-1.336h1.492c-.08-.533.087-1.13.551-1.595q.491-.491 1.03-.617a1.5 1.5 0 0 1 .467-.035m1.29.798L10 6.51l.843-1.054c.064-.342.036-.657-.069-.866-.088-.177-.269-.366-.774-.366-.35 0-.547.072-.656.14a.5.5 0 0 0-.209.257c-.086.225-.067.543.006.815m2.797.65-.027.037-.61.762h1.544c.012 0 .02-.002.036-.016a.27.27 0 0 0 .07-.133c.035-.141.009-.36-.192-.562-.206-.206-.351-.265-.426-.283a.27.27 0 0 0-.175.016.55.55 0 0 0-.22.18m-3.241.799-.61-.762-.027-.037-.007-.008a.6.6 0 0 0-.213-.171.27.27 0 0 0-.174-.016c-.076.018-.22.077-.426.283-.202.201-.227.42-.192.562a.27.27 0 0 0 .07.133c.014.014.023.016.035.016zm.679 1.25H4.31a.086.086 0 0 0-.086.086v1.422c0 .048.038.086.086.086h5.064zm0 2.844H4.936v3.998c0 .44.357.797.797.797h3.642zm1.25 4.795h3.642c.44 0 .797-.357.797-.797V10.98h-4.44zm0-6.045h5.064a.086.086 0 0 0 .086-.086V8.222a.086.086 0 0 0-.086-.086h-5.064z" clip-rule="evenodd"/></svg>