<svg xmlns="http://www.w3.org/2000/svg" width="20" height="20" fill="none" class="persona-icon" viewBox="0 0 20 20"><path fill="currentColor" fill-rule="evenodd" d="M7.85 4.639a1.5 1.5 0 0 0-.466.035q-.539.125-1.03.617c-.464.465-.632 1.062-.55 1.595H4.31c-.738 0-1.336.598-1.336 1.336v1.422c0 .512.288.957.711 1.181v4.153c0 1.13.917 2.047 2.047 2.047h8.534c1.13 0 2.047-.917 2.047-2.047v-4.152c.423-.225.71-.67.71-1.182V8.222c0-.738-.597-1.336-1.335-1.336h-1.496c.081-.533-.086-1.13-.551-1.595q-.491-.491-1.03-.617a1.5 1.5 0 0 0-.523-.03c-.036-.21-.099-.417-.197-.612-.326-.653-.975-1.057-1.892-1.057-.517 0-.959.106-1.315.327-.363.225-.59.54-.718.876a2 2 0 0 0-.116.46m1.525 3.497V9.73H4.31a.086.086 0 0 1-.086-.086V8.222c0-.047.038-.086.086-.086zm0 2.844v4.795H5.733a.797.797 0 0 1-.797-.797V10.98zm-.68-4.094H7.153c-.012 0-.02-.002-.035-.016a.27.27 0 0 1-.07-.133c-.035-.141-.01-.36.192-.562.205-.206.35-.265.426-.283a.27.27 0 0 1 .174.016.55.55 0 0 1 .22.18l.027.036zm.446-1.45c-.073-.27-.092-.589-.006-.814a.5.5 0 0 1 .209-.258c.11-.067.307-.14.656-.14.505 0 .686.19.774.367.105.21.133.524.07.865L10 6.512zm1.484 4.294V8.136h5.064c.047 0 .086.039.086.086v1.422a.086.086 0 0 1-.086.086zm0 6.045V10.98h4.439v3.998c0 .44-.357.797-.797.797zm1.312-9.688a1 1 0 0 1 .055-.062.6.6 0 0 1 .165-.117.27.27 0 0 1 .175-.016c.075.018.22.077.426.283.2.201.227.42.191.562a.27.27 0 0 1-.07.133c-.014.014-.023.016-.035.016H11.3l.61-.762z" clip-rule="evenodd"/></svg>