<svg xmlns="http://www.w3.org/2000/svg" width="32" height="32" fill="none" class="persona-icon" viewBox="0 0 32 32"><path fill="currentColor" fill-rule="evenodd" d="M26.502 17.389a2.2 2.2 0 0 0 1.5-2.087v-3.1a2.2 2.2 0 0 0-2.2-2.2H23.82a3.33 3.33 0 0 0-3.905-3.99 3.73 3.73 0 0 0-3.722-3.51h-.38a3.73 3.73 0 0 0-3.722 3.51 3.33 3.33 0 0 0-3.904 3.99H6.202a2.2 2.2 0 0 0-2.2 2.2v3.1c0 .97.628 1.794 1.5 2.087v8.113a4 4 0 0 0 4 4h13a4 4 0 0 0 4-4zm-11.5-1.887h-8.8a.2.2 0 0 1-.2-.2v-3.1c0-.11.09-.2.2-.2h8.8zm0 12h-5.5a2 2 0 0 1-2-2v-8h7.5zm-1.08-17.5H10.32A1.33 1.33 0 0 1 12.03 8.09l.601.3zm1.89-5.5h.38c1.067 0 1.88.959 1.704 2.012l-.11.658-1.784 2.23-1.783-2.23-.11-.658a1.727 1.727 0 0 1 1.704-2.012m1.19 7.5h8.8c.11 0 .2.09.2.2v3.1a.2.2 0 0 1-.2.2h-8.8zm7.5 5.5v8a2 2 0 0 1-2 2h-5.5v-10zM19.373 8.39l.602-.3a1.33 1.33 0 0 1 1.709 1.913h-3.601z" clip-rule="evenodd"/></svg>