<svg xmlns="http://www.w3.org/2000/svg" width="16" height="16" fill="none" class="persona-icon" viewBox="0 0 16 16"><path fill="currentColor" fill-rule="evenodd" d="M3.111 2.036C2.497 2.036 2 2.533 2 3.146v9.779c0 .613.498 1.11 1.111 1.11h9.778c.614 0 1.111-.497 1.111-1.11V3.146c0-.614-.498-1.111-1.111-1.111zM3 6.925V4.869h2.667v2.056zM3 9.98V7.924h2.667V9.98zm2.667 1v2.056H3.11A.11.11 0 0 1 3 12.925V10.98zm1-4.056V4.87h2.666v2.056zm0 3.056V7.924h2.666V9.98zm2.666 1v2.056H6.667V10.98zm1-4.056V4.87H13v2.056zm0 3.056V7.924H13V9.98zm0 1H13v1.944c0 .062-.05.112-.111.112h-2.556z" clip-rule="evenodd"/></svg>