<svg xmlns="http://www.w3.org/2000/svg" width="16" height="16" fill="none" class="persona-icon" viewBox="0 0 16 16"><path fill="currentColor" fill-rule="evenodd" d="M2.667 1.536c-.645 0-1.167.523-1.167 1.167V13.37c0 .644.522 1.166 1.167 1.166h10.666c.645 0 1.167-.522 1.167-1.166V2.703c0-.644-.522-1.167-1.167-1.167zM5.5 6.87h-3V4.536h3zm-3 1h3v2.333h-3zm0 3.333h3v2.333H2.667a.167.167 0 0 1-.167-.166zm7-4.333h-3V4.536h3zm-3 1h3v2.333h-3zm3 5.666h-3v-2.333h3zm4-6.666h-3V4.536h3zm-3 1h3v2.333h-3zm2.833 5.666H10.5v-2.333h3v2.167a.167.167 0 0 1-.167.166" clip-rule="evenodd"/></svg>