<svg xmlns="http://www.w3.org/2000/svg" width="16" height="16" fill="none" class="persona-icon" viewBox="0 0 16 16"><path fill="currentColor" fill-rule="evenodd" d="M3.111 2.036h9.778c.614 0 1.111.497 1.111 1.11v9.779c0 .613-.498 1.11-1.111 1.11H3.11A1.11 1.11 0 0 1 2 12.926V3.146c0-.614.498-1.111 1.111-1.111M3 6.925h2.667V4.869H3zM3 9.98h2.667V7.924H3zm2.667 1H3v1.944c0 .062.05.112.111.112h2.556zm1-4.056h2.666V4.87H6.667zm0 3.056h2.666V7.924H6.667zm2.666 1H6.667v2.056h2.666zm1-4.056H13V4.87h-2.667zm0 3.056H13V7.924h-2.667zm0 1v2.056h2.556c.061 0 .111-.05.111-.111V10.98z" clip-rule="evenodd"/></svg>