<svg xmlns="http://www.w3.org/2000/svg" width="20" height="20" fill="none" class="persona-icon" viewBox="0 0 20 20"><path fill="currentColor" fill-rule="evenodd" d="M3.436 2.045C2.643 2.045 2 2.688 2 3.48v13.128c0 .793.643 1.436 1.436 1.436h13.128c.793 0 1.436-.643 1.436-1.436V3.481c0-.793-.643-1.436-1.436-1.436H3.436m3.487 6.564H3.231V5.737h3.692V8.61m-3.692 1.23h3.692v2.872H3.231V9.84m0 4.103h3.692v2.872H3.436a.205.205 0 0 1-.205-.205v-2.667m8.615-5.333H8.154V5.737h3.692V8.61m-3.692 1.23h3.692v2.872H8.154V9.84m3.692 6.975H8.154v-2.872h3.692v2.872M16.77 8.61h-3.692V5.737h3.692V8.61m-3.692 1.23h3.692v2.872h-3.692V9.84m3.487 6.975h-3.487v-2.872h3.692v2.667a.205.205 0 0 1-.205.205" clip-rule="evenodd"/></svg>