<svg xmlns="http://www.w3.org/2000/svg" width="20" height="20" fill="none" class="persona-icon" viewBox="0 0 20 20"><path fill="currentColor" fill-rule="evenodd" d="M4.311 3.02H15.69c.738 0 1.336.598 1.336 1.336v11.377c0 .738-.598 1.337-1.336 1.337H4.31a1.336 1.336 0 0 1-1.336-1.337V4.356c0-.738.598-1.336 1.336-1.336m2.93 5.688V6.403H4.226v2.305zm0 3.556V9.958H4.226v2.306zm0 1.25H4.226v2.22c0 .047.039.085.086.085h2.93zm1.25-4.806h3.017V6.403H8.492zm0 1.25v2.306h3.017V9.958zm3.017 3.556H8.492v2.306h3.016zm1.25-7.111v2.305h3.017V6.403zm0 3.555v2.306h3.017V9.958zm0 3.556v2.306h2.93a.086.086 0 0 0 .087-.087v-2.219z" clip-rule="evenodd"/></svg>