<svg xmlns="http://www.w3.org/2000/svg" width="24" height="24" fill="none" class="persona-icon" viewBox="0 0 24 24"><path fill="currentColor" fill-rule="evenodd" d="M4.667 3.054h14.666c.92 0 1.667.746 1.667 1.666v14.667c0 .92-.746 1.667-1.667 1.667H4.667c-.92 0-1.667-.746-1.667-1.667V4.72c0-.92.746-1.666 1.667-1.666M4.5 14.97h4v-3.083h-4zm0-4.583h4V7.304h-4zM10 14.97h4v-3.083h-4zm0-4.583h4V7.304h-4zm5.5 4.583h4v-3.083h-4zm0-4.583h4V7.304h-4zm0 6.083v3.084h3.833a.167.167 0 0 0 .167-.167V16.47zm-1.5 0h-4v3.084h4zm-5.5 0h-4v2.917c0 .092.075.167.167.167H8.5z" clip-rule="evenodd"/></svg>