<svg xmlns="http://www.w3.org/2000/svg" width="24" height="24" fill="none" class="persona-icon"><g clip-path="url(#a)"><path fill="currentColor" d="M2 3.849c0-.992.804-1.795 1.795-1.795h16.41c.991 0 1.795.803 1.795 1.795v16.41c0 .991-.804 1.795-1.795 1.795H3.795A1.795 1.795 0 0 1 2 20.259V3.849Zm1.538 2.82v3.59h4.616v-3.59H3.539Zm0 8.718h4.616v-3.59H3.539v3.59Zm4.616 5.128v-3.59H3.539v3.334c0 .142.114.256.256.256h4.359ZM9.692 6.67v3.59h4.616v-3.59H9.692Zm0 8.718h4.616v-3.59H9.692v3.59Zm4.616 5.128v-3.59H9.692v3.59h4.616ZM15.846 6.67v3.59h4.616v-3.59h-4.616Zm4.616 5.128h-4.616v3.59h4.616v-3.59Zm0 5.128h-4.616v3.59h4.36a.256.256 0 0 0 .256-.256v-3.334Z"/></g><defs><clipPath id="a"><path fill="#fff" d="M0 0h24v24H0z"/></clipPath></defs></svg>