<svg xmlns="http://www.w3.org/2000/svg" width="32" height="32" fill="none" class="persona-icon" viewBox="0 0 32 32"><path fill="currentColor" fill-rule="evenodd" d="M3 5.405a2.333 2.333 0 0 1 2.333-2.333h21.334A2.333 2.333 0 0 1 29 5.405v21.333a2.333 2.333 0 0 1-2.333 2.334H5.333A2.333 2.333 0 0 1 3 26.738V5.405Zm2 3.667v4.666h6V9.072H5m0 11.333h6v-4.667H5v4.667m6 6.667v-4.667H5v4.333c0 .184.15.334.333.334H11m2-18v4.666h6V9.072h-6m0 11.333h6v-4.667h-6v4.667m6 6.667v-4.667h-6v4.667h6m2-18v4.666h6V9.072h-6m6 6.666h-6v4.667h6v-4.667m0 6.667h-6v4.667h5.667c.184 0 .333-.15.333-.334v-4.333" clip-rule="evenodd"/></svg>