<svg xmlns="http://www.w3.org/2000/svg" width="16" height="16" fill="none"><path fill="#000" fill-rule="evenodd" d="M5.667 6.778a2.333 2.333 0 1 1 4.666 0 2.333 2.333 0 0 1-4.666 0ZM8 5.444a1.333 1.333 0 1 0 0 2.667 1.333 1.333 0 0 0 0-2.667Z" clip-rule="evenodd"/><path fill="#000" fill-rule="evenodd" d="M11.873 12.582A6 6 0 1 0 4.03 12.5l.001.001A5.98 5.98 0 0 0 8 14a5.978 5.978 0 0 0 3.873-1.418ZM8 3a5 5 0 0 0-3.79 8.26c.029-.04.06-.08.092-.117A3.416 3.416 0 0 1 6.9 9.944h2.2a3.416 3.416 0 0 1 2.69 1.316A5 5 0 0 0 8 3Zm3.053 8.96a.958.958 0 0 0-.116-.168 2.416 2.416 0 0 0-1.837-.848H6.9c-.707 0-1.378.31-1.837.848a.958.958 0 0 0-.116.168A4.979 4.979 0 0 0 8 13c1.15 0 2.208-.388 3.053-1.04Z" clip-rule="evenodd"/></svg>