<svg xmlns="http://www.w3.org/2000/svg" width="16" height="16" fill="none" class="persona-icon" viewBox="0 0 16 16"><path fill="currentColor" fill-rule="evenodd" d="M3.815 4.143c0-.789.64-1.429 1.429-1.429h2.715v2.072c0 .986.8 1.786 1.786 1.786h2.07V9.29a.5.5 0 0 0 1 0V6.578c0-.452-.171-.888-.48-1.218L9.462 2.282a1.79 1.79 0 0 0-1.305-.568H5.244a2.43 2.43 0 0 0-2.429 2.429v7.714a2.42 2.42 0 0 0 .9 1.886.5.5 0 1 0 .63-.776 1.42 1.42 0 0 1-.53-1.11zm5.144.643V3.208l2.206 2.364h-1.42a.786.786 0 0 1-.786-.786" clip-rule="evenodd"/><path fill="currentColor" d="M12.725 11.545h.963c.223 0 .404-.181.404-.404a.4.4 0 0 0-.404-.4h-1.436a.474.474 0 0 0-.473.474v3.121c0 .26.213.479.473.479a.475.475 0 0 0 .473-.479V13.32h.82c.223 0 .403-.18.403-.404a.4.4 0 0 0-.404-.398h-.819z"/><path fill="currentColor" fill-rule="evenodd" d="M9.706 14.756h-.792a.48.48 0 0 1-.473-.479v-3.062c0-.26.212-.473.473-.473l.005.005v-.005h.787c.983 0 1.536.452 1.536 1.621v.809c0 1.148-.553 1.584-1.536 1.584m0-3.195h-.32v2.366h.32c.43 0 .59-.155.59-.665v-.989c0-.457-.096-.712-.59-.712M6.66 13.586c.877 0 1.33-.627 1.33-1.44 0-.803-.442-1.404-1.357-1.404h-.85a.474.474 0 0 0-.473.473v3.121c0 .26.212.479.473.479a.475.475 0 0 0 .473-.479v-.75zm-.404-2.025h.207c.457 0 .58.212.58.59 0 .42-.16.627-.601.627h-.186z" clip-rule="evenodd"/></svg>