<svg xmlns="http://www.w3.org/2000/svg" width="24" height="24" fill="none" class="persona-icon" viewBox="0 0 24 24"><path fill="currentColor" fill-rule="evenodd" d="M7.704 3.5a2.333 2.333 0 0 0-2.333 2.333v12.334a2.32 2.32 0 0 0 .864 1.813.75.75 0 0 1-.945 1.164 3.824 3.824 0 0 1-1.419-2.977V5.833A3.833 3.833 0 0 1 7.704 2h4.657c.778 0 1.52.323 2.051.891l4.593 4.922c.485.52.755 1.203.755 1.914v4.336a.75.75 0 0 1-1.5 0V9.727l-.001-.06h-3.36a2.806 2.806 0 0 1-2.805-2.806V3.5zm5.89.713V6.86c0 .721.584 1.306 1.305 1.306h2.385z" clip-rule="evenodd"/><path fill="currentColor" d="M19.667 16.87h1.538a.646.646 0 0 0 .646-.645.64.64 0 0 0-.646-.638H18.91a.76.76 0 0 0-.756.757v4.99c0 .416.34.764.756.764a.76.76 0 0 0 .757-.765V19.71h1.309a.646.646 0 0 0 .646-.646.64.64 0 0 0-.646-.638h-1.31z"/><path fill="currentColor" fill-rule="evenodd" d="M14.84 22.005h-1.267a.765.765 0 0 1-.757-.765v-4.896c0-.417.34-.757.757-.757l.008.009v-.009h1.258c1.573 0 2.457.723 2.457 2.593v1.292c0 1.836-.884 2.533-2.457 2.533m0-5.109h-.51v3.783h.51c.688 0 .943-.247.943-1.063v-1.58c0-.732-.153-1.14-.944-1.14M9.97 20.135c1.402 0 2.124-1.003 2.124-2.304 0-1.283-.705-2.244-2.167-2.244h-1.36a.76.76 0 0 0-.756.757v4.99c0 .416.34.764.756.764a.76.76 0 0 0 .756-.765v-1.198zm-.647-3.239h.332c.731 0 .927.34.927.944 0 .671-.256 1.003-.96 1.003h-.299z" clip-rule="evenodd"/></svg>