<svg xmlns="http://www.w3.org/2000/svg" width="32" height="32" fill="none" class="persona-icon" viewBox="0 0 32 32"><path fill="currentColor" fill-rule="evenodd" d="M10.674 5.429a2.857 2.857 0 0 0-2.858 2.857v15.428a2.85 2.85 0 0 0 1.059 2.22 1 1 0 1 1-1.26 1.553 4.845 4.845 0 0 1-1.798-3.773V8.286a4.857 4.857 0 0 1 4.857-4.857h5.825c.99 0 1.935.41 2.61 1.134l5.747 6.157c.617.661.96 1.532.96 2.437v5.424a1 1 0 1 1-2 0v-5.438h-4.142a3.57 3.57 0 0 1-3.572-3.571V5.429zm7.429.986v3.157c0 .868.703 1.571 1.571 1.571h2.841z" clip-rule="evenodd"/><path fill="currentColor" d="M25.638 22.09v1.945h1.638c.446 0 .808.351.808.798a.81.81 0 0 1-.808.808h-1.638v2.03a.95.95 0 0 1-.946.958.96.96 0 0 1-.946-.957V21.43c0-.52.425-.946.946-.946h2.87c.447 0 .809.35.809.797a.81.81 0 0 1-.808.809z"/><path fill="currentColor" fill-rule="evenodd" d="M19.6 28.512h-1.585a.96.96 0 0 1-.947-.957V21.43c0-.52.426-.946.947-.946l.01.01v-.01H19.6c1.967 0 3.073.904 3.073 3.243v1.616c0 2.297-1.106 3.169-3.073 3.169m0-6.39h-.639v4.731h.638c.861 0 1.18-.308 1.18-1.329v-1.978c0-.914-.191-1.425-1.18-1.425M13.508 26.173h-.809v1.499a.95.95 0 0 1-.946.957.96.96 0 0 1-.946-.957V21.43c0-.52.425-.946.946-.946h1.701c1.83 0 2.712 1.201 2.712 2.807 0 1.627-.904 2.882-2.658 2.882m-.809-4.052v2.435h.373c.882 0 1.201-.414 1.201-1.254 0-.755-.245-1.18-1.159-1.18z" clip-rule="evenodd"/></svg>