<svg xmlns="http://www.w3.org/2000/svg" width="32" height="32" fill="none" class="persona-icon" viewBox="0 0 32 32"><path fill="currentColor" fill-rule="evenodd" d="M10.674 5.429a2.857 2.857 0 0 0-2.858 2.857v15.428a2.85 2.85 0 0 0 1.059 2.22 1 1 0 1 1-1.26 1.553 4.845 4.845 0 0 1-1.798-3.773V8.286a4.857 4.857 0 0 1 4.857-4.857h5.825c.99 0 1.935.41 2.61 1.134l5.747 6.157c.617.661.96 1.532.96 2.437v5.424a1 1 0 1 1-2 0v-5.438h-4.142a3.57 3.57 0 0 1-3.572-3.571V5.429zm7.429.986v3.157c0 .868.703 1.571 1.571 1.571h2.841z" clip-rule="evenodd"/><path fill="currentColor" d="M25.638 22.09h1.925a.81.81 0 0 0 .808-.809.8.8 0 0 0-.808-.797h-2.871a.95.95 0 0 0-.946.946v6.242c0 .521.425.957.946.957a.95.95 0 0 0 .946-.957V25.64h1.638a.81.81 0 0 0 .808-.808.8.8 0 0 0-.808-.798h-1.638z"/><path fill="currentColor" fill-rule="evenodd" d="M19.6 28.512h-1.585a.96.96 0 0 1-.947-.957V21.43c0-.52.426-.946.947-.946l.01.01v-.01H19.6c1.967 0 3.073.904 3.073 3.243v1.616c0 2.297-1.106 3.169-3.073 3.169m0-6.39h-.639v4.731h.638c.861 0 1.18-.308 1.18-1.329v-1.978c0-.914-.191-1.425-1.18-1.425M13.508 26.173c1.754 0 2.658-1.255 2.658-2.882 0-1.606-.883-2.807-2.712-2.807h-1.701a.95.95 0 0 0-.946.946v6.242c0 .521.425.957.946.957a.95.95 0 0 0 .946-.957v-1.5zm-.809-4.052h.415c.914 0 1.16.426 1.16 1.18 0 .84-.32 1.255-1.202 1.255h-.373z" clip-rule="evenodd"/></svg>