<svg xmlns="http://www.w3.org/2000/svg" width="32" height="32" fill="none" class="persona-icon" viewBox="0 0 32 32"><path fill="currentColor" d="M13.049 8.22a1 1 0 0 1 .924-.62h6.867a2.22 2.22 0 0 1 2.213 2.227v1.368l3.16-3.288a1 1 0 0 1 1.72.693v13.333a1 1 0 0 1-1.737.675l-4.864-5.315-8.062-7.982a1 1 0 0 1-.221-1.091M6.227 7.6A2.223 2.223 0 0 0 4 9.827V22.04c0 1.232.994 2.227 2.227 2.227h14.8c.48 0 .954-.163 1.327-.499l3.939 3.94a1 1 0 0 0 1.414-1.415l-4.94-4.94-.013-.014L9.314 7.9 9.3 7.887 5.707 4.293a1 1 0 0 0-1.414 1.414z"/></svg>