<svg xmlns="http://www.w3.org/2000/svg" width="32" height="32" fill="none" class="persona-icon" viewBox="0 0 32 32"><path fill="currentColor" d="M13.049 8.22a1 1 0 0 1 .924-.62h6.867a2.22 2.22 0 0 1 2.213 2.227v1.368l3.16-3.288a1 1 0 0 1 1.72.693v13.333a1 1 0 0 1-1.737.675l-4.864-5.315-8.062-7.982a1 1 0 0 1-.221-1.091M6.227 7.6 4.293 5.707a1 1 0 0 1 1.414-1.414L9.3 7.886l.014.014 13.44 13.44.013.013 4.94 4.94a1 1 0 0 1-1.414 1.414l-3.939-3.939a1.97 1.97 0 0 1-1.327.499h-14.8A2.223 2.223 0 0 1 4 22.04V9.827C4 8.594 4.994 7.6 6.227 7.6"/></svg>