<svg xmlns="http://www.w3.org/2000/svg" width="16" height="16" fill="none" class="persona-icon" viewBox="0 0 16 16"><path fill="currentColor" fill-rule="evenodd" d="M13.461 2.536a1.8 1.8 0 0 1 0 2.547l-5.093 5.093a1.8 1.8 0 0 1-1.87.426c.215.485.238 1.051.076 1.564-.225.711-.806 1.332-1.73 1.553-.905.218-2.085.042-3.534-.683a.491.491 0 0 1 .266-.928c.59.055.8-.05.876-.114.079-.066.136-.184.187-.476l.025-.161c.036-.243.085-.574.205-.855.175-.411.501-.753 1.076-.919.559-.161 1.064-.147 1.485.006a1.8 1.8 0 0 1 .392-1.96l5.093-5.093a1.8 1.8 0 0 1 2.546 0m-1.852.695L6.517 8.324A.818.818 0 1 0 7.674 9.48l5.093-5.093a.819.819 0 0 0-1.158-1.157" clip-rule="evenodd"/></svg>