<svg xmlns="http://www.w3.org/2000/svg" width="16" height="16" fill="none" class="persona-icon" viewBox="0 0 16 16"><path fill="currentColor" fill-rule="evenodd" d="M13.461 2.536a1.8 1.8 0 0 0-2.546 0L5.822 7.63c-.53.53-.66 1.308-.392 1.96-.421-.153-.926-.167-1.485-.006-.575.166-.9.508-1.076.919-.12.28-.17.612-.205.855l-.025.16c-.05.293-.108.41-.187.477-.076.063-.286.17-.876.114a.491.491 0 0 0-.266.928c1.449.725 2.629.901 3.535.683.923-.221 1.504-.841 1.729-1.553a2.24 2.24 0 0 0-.076-1.564 1.8 1.8 0 0 0 1.87-.426l5.093-5.093a1.8 1.8 0 0 0 0-2.547m-1.852.695a.819.819 0 0 1 1.158 1.157L7.674 9.481a.818.818 0 1 1-1.158-1.157z" clip-rule="evenodd"/></svg>