<svg xmlns="http://www.w3.org/2000/svg" width="20" height="20" fill="none" class="persona-icon" viewBox="0 0 20 20"><path fill="currentColor" fill-rule="evenodd" d="M16.355 3.642a2.095 2.095 0 0 1 0 2.963l-5.926 5.927a2.1 2.1 0 0 1-2.176.495c.249.565.276 1.224.087 1.821-.261.828-.937 1.549-2.011 1.807-1.055.254-2.428.048-4.114-.795a.571.571 0 0 1 .31-1.08c.686.065.93-.059 1.019-.133.092-.077.159-.214.218-.554q.014-.082.029-.187c.042-.282.099-.668.238-.995.204-.478.584-.876 1.252-1.069.65-.188 1.238-.171 1.729.007a2.1 2.1 0 0 1 .455-2.28l5.927-5.927a2.095 2.095 0 0 1 2.963 0M14.2 4.45l-5.926 5.927a.952.952 0 0 0 1.347 1.346l5.926-5.926A.952.952 0 1 0 14.2 4.45" clip-rule="evenodd"/></svg>