<svg xmlns="http://www.w3.org/2000/svg" width="32" height="32" fill="none" class="persona-icon" viewBox="0 0 32 32"><path fill="currentColor" fill-rule="evenodd" d="M26.923 5.073a3.6 3.6 0 0 1 0 5.092L16.737 20.351a3.6 3.6 0 0 1-3.74.852c.428.97.475 2.103.15 3.13-.449 1.422-1.61 2.662-3.457 3.106-1.812.435-4.172.082-7.07-1.368a.982.982 0 0 1 .532-1.856c1.18.112 1.6-.1 1.751-.227.159-.133.274-.369.375-.953q.024-.14.05-.322c.072-.485.17-1.148.41-1.71.35-.821 1.003-1.505 2.152-1.837 1.117-.323 2.127-.295 2.97.013a3.6 3.6 0 0 1 .784-3.92L21.83 5.072a3.6 3.6 0 0 1 5.093 0M23.219 6.46 13.033 16.648a1.637 1.637 0 1 0 2.315 2.315L25.534 8.777a1.637 1.637 0 0 0-2.315-2.315" clip-rule="evenodd"/></svg>