<svg xmlns="http://www.w3.org/2000/svg" width="16" height="16" fill="none"><path fill="#000" fill-rule="evenodd" d="M4.444 5.556a3.556 3.556 0 1 1 6.606 1.827l-2.617 4.534a.5.5 0 0 1-.866 0L4.949 7.383a3.541 3.541 0 0 1-.505-1.827ZM8 3a2.556 2.556 0 0 0-2.191 3.871l.004.008L8 10.667l2.191-3.796A2.556 2.556 0 0 0 8 3Zm0 1.833a.722.722 0 1 0 0 1.444.722.722 0 0 0 0-1.444Zm-1.722.722a1.722 1.722 0 1 1 3.445 0 1.722 1.722 0 0 1-3.445 0ZM2 13.5a.5.5 0 0 1 .5-.5h11a.5.5 0 0 1 0 1h-11a.5.5 0 0 1-.5-.5Z" clip-rule="evenodd"/></svg>