<svg xmlns="http://www.w3.org/2000/svg" width="32" height="32" fill="none"><path fill="#000" fill-rule="evenodd" d="M2 7.42C2 6.083 3.094 5 4.444 5h23.112C28.906 5 30 6.083 30 7.42v17.16c0 1.337-1.094 2.42-2.444 2.42H4.444C3.094 27 2 25.916 2 24.58V7.42Zm2.444-.44A.442.442 0 0 0 4 7.42v17.16c0 .243.199.44.444.44h23.112a.442.442 0 0 0 .444-.44V7.42a.442.442 0 0 0-.444-.44H4.444Z" clip-rule="evenodd"/><path fill="#000" fill-rule="evenodd" d="M6.333 10.28c0-.547.448-.99 1-.99h17.334c.552 0 1 .443 1 .99 0 .547-.448.99-1 .99H7.333c-.552 0-1-.443-1-.99ZM6.333 14.57c0 .547.448.99 1 .99h4.334c.552 0 1-.443 1-.99a.995.995 0 0 0-1-.99H7.333c-.552 0-1 .443-1 .99ZM6.333 18.86c0 .547.448.99 1 .99h4.334c.552 0 1-.443 1-.99a.995.995 0 0 0-1-.99H7.333c-.552 0-1 .443-1 .99ZM17.889 14.57c0-.547.448-.99 1-.99h5.778c.552 0 1 .443 1 .99v7.15c0 .547-.448.99-1 .99h-5.778c-.552 0-1-.443-1-.99v-7.15Zm2 .99v5.17h3.778v-5.17h-3.778Z" clip-rule="evenodd"/></svg>