<svg xmlns="http://www.w3.org/2000/svg" width="32" height="32" fill="none" class="persona-icon" viewBox="0 0 32 32"><path fill="currentColor" fill-rule="evenodd" d="M2 16C2 8.268 8.268 2 16 2s14 6.268 14 14-6.268 14-14 14S2 23.732 2 16M16 4C9.373 4 4 9.373 4 16c0 6.628 5.373 12 12 12s12-5.372 12-12c0-6.627-5.373-12-12-12m.152 6.374a1 1 0 0 0 0 1.414L19.364 15h-9.142a1 1 0 0 0 0 2h9.142l-3.212 3.212a1 1 0 1 0 1.414 1.414l4.919-4.919a1 1 0 0 0 0-1.414l-4.919-4.919a1 1 0 0 0-1.414 0" clip-rule="evenodd"/></svg>