<svg xmlns="http://www.w3.org/2000/svg" width="32" height="32" fill="none" class="persona-icon"><path fill="currentColor" d="M3 16C3 8.82 8.82 3 16 3s13 5.82 13 13-5.82 13-13 13S3 23.18 3 16ZM16 5C9.925 5 5 9.925 5 16s4.925 11 11 11 11-4.925 11-11S22.075 5 16 5Z"/><path fill="currentColor" d="M17.143 11.293c.4-.39 1.05-.39 1.451 0l4.105 4c.401.39.401 1.024 0 1.414l-4.105 4c-.4.39-1.05.39-1.451 0a.982.982 0 0 1 0-1.414L19.496 17h-8.47A1.013 1.013 0 0 1 10 16c0-.552.46-1 1.026-1h8.47l-2.353-2.293a.982.982 0 0 1 0-1.414Z"/></svg>