<svg xmlns="http://www.w3.org/2000/svg" width="16" height="16" fill="none" class="persona-icon" viewBox="0 0 16 16"><path fill="currentColor" fill-rule="evenodd" d="M5.429 2.714c-.79 0-1.43.64-1.43 1.429v4.795a.5.5 0 1 1-1 0V4.143a2.43 2.43 0 0 1 2.43-2.429H8.34c.495 0 .968.206 1.306.567L12.52 5.36c.308.33.48.766.48 1.218v5.28a2.43 2.43 0 0 1-2.429 2.428h-1.53a.5.5 0 0 1 0-1h1.53c.79 0 1.429-.64 1.429-1.429V6.571H9.928c-.986 0-1.785-.8-1.785-1.785V2.714zm2.675 6.537a.5.5 0 1 1 1 0v1.373c0 .966-.784 1.75-1.751 1.75H4.685L5.76 13.45a.5.5 0 1 1-.707.707l-1.928-1.929a.5.5 0 0 1 0-.707l1.928-1.929a.5.5 0 0 1 .707.707l-1.075 1.075h2.668a.75.75 0 0 0 .75-.75zm1.039-6.044v1.579c0 .434.351.785.785.785h1.421z" clip-rule="evenodd"/></svg>