<svg xmlns="http://www.w3.org/2000/svg" width="16" height="16" fill="none" class="persona-icon" viewBox="0 0 16 16"><path fill="currentColor" d="M4.993 2c-.838 0-1.516.695-1.516 1.553v8.21c0 .858.679 1.553 1.516 1.553h2.005c.27 0 .488.224.488.5s-.219.5-.488.5H4.993c-1.377 0-2.493-1.143-2.493-2.553v-8.21C2.5 2.143 3.616 1 4.993 1h3.028c.505 0 .988.215 1.334.594L12.34 4.87c.315.346.49.801.49 1.275v2.881c0 .277-.218.5-.487.5a.494.494 0 0 1-.489-.5V6.105H9.67c-1.008 0-1.825-.836-1.825-1.868V2H4.993Zm3.83.707v1.53c0 .48.38.868.848.868h1.494L8.822 2.707Z"/><path fill="currentColor" d="M10.662 14.854c.19.195.5.195.69 0a.509.509 0 0 0 0-.708l-1.17-1.199h2.83c.27 0 .488-.223.488-.5 0-.276-.219-.5-.488-.5h-2.83l1.17-1.199a.508.508 0 0 0 0-.707.48.48 0 0 0-.69 0l-2.005 2.053a.508.508 0 0 0 0 .707l2.005 2.053Z"/></svg>