<svg xmlns="http://www.w3.org/2000/svg" width="20" height="20" fill="none"><path fill="currentColor" d="M6.959 3.185c-.974 0-1.763.782-1.763 1.747v9.357c0 .964.79 1.746 1.763 1.746h2.36c.33 0 .599.265.599.593a.595.595 0 0 1-.598.592H6.959C5.325 17.22 4 15.908 4 14.29V4.932C4 3.312 5.325 2 6.959 2h3.565c.602 0 1.177.248 1.588.684l3.517 3.733c.375.399.584.923.584 1.469v3.284a.595.595 0 0 1-.598.592.595.595 0 0 1-.598-.592V7.864h-2.55c-1.2 0-2.172-.964-2.172-2.152V3.184H6.96Zm7.505 9.125a.589.589 0 0 1 0 .838l-1.34 1.328h3.278c.33 0 .598.265.598.592a.595.595 0 0 1-.598.593h-3.278l1.34 1.327a.589.589 0 0 1 0 .838.602.602 0 0 1-.846 0l-2.36-2.339a.589.589 0 0 1 0-.838l2.36-2.339a.602.602 0 0 1 .846 0Zm-2.973-8.287v1.689c0 .534.437.966.976.966h1.704l-2.68-2.655Z"/></svg>