<svg xmlns="http://www.w3.org/2000/svg" width="20" height="20" fill="none" class="persona-icon" viewBox="0 0 20 20"><path fill="currentColor" fill-rule="evenodd" d="M10.725 10.876c.345 0 .625.28.625.625v1.647a2.126 2.126 0 0 1-2.127 2.126h-3.14l1.247 1.248a.625.625 0 1 1-.884.884L4.132 15.09a.625.625 0 0 1 0-.884l2.314-2.314a.625.625 0 0 1 .884.884l-1.247 1.247h3.14a.876.876 0 0 0 .877-.876v-1.647c0-.345.28-.625.625-.625m-3.81-7.194a1.69 1.69 0 0 0-1.69 1.69v5.754a.625.625 0 0 1-1.25 0V5.37a2.94 2.94 0 0 1 2.94-2.939h3.494c.601 0 1.175.25 1.585.689l3.448 3.694c.375.401.583.93.583 1.479v6.335a2.94 2.94 0 0 1-2.94 2.939H11.25a.625.625 0 1 1 0-1.25h1.837a1.69 1.69 0 0 0 1.689-1.69V8.312h-2.46a2.17 2.17 0 0 1-2.169-2.168v-2.46zm4.481.63v1.83c0 .508.411.919.918.919h1.648z" clip-rule="evenodd"/></svg>