<svg xmlns="http://www.w3.org/2000/svg" width="24" height="24" fill="none" class="persona-icon" viewBox="0 0 24 24"><path fill="currentColor" fill-rule="evenodd" d="M7.889 3.5a2.333 2.333 0 0 0-2.333 2.333V13.5a.75.75 0 0 1-1.5 0V5.833A3.833 3.833 0 0 1 7.889 2h4.657c.777 0 1.52.323 2.05.891l4.594 4.922c.485.52.755 1.203.755 1.914v8.44A3.833 3.833 0 0 1 16.11 22h-2.446a.75.75 0 0 1 0-1.5h2.446a2.333 2.333 0 0 0 2.334-2.333v-8.44l-.002-.06h-3.36a2.806 2.806 0 0 1-2.805-2.806V3.5zm5.077 9.75a.75.75 0 0 1 .75.75v2.194a2.75 2.75 0 0 1-2.75 2.75H6.582l1.803 1.803a.75.75 0 0 1-1.061 1.061l-3.083-3.083a.75.75 0 0 1 0-1.06l3.083-3.084a.75.75 0 0 1 1.06 1.06l-1.802 1.803h4.384c.69 0 1.25-.56 1.25-1.25V14a.75.75 0 0 1 .75-.75m.812-9.038v2.65c0 .72.584 1.305 1.305 1.305h2.385z" clip-rule="evenodd"/></svg>