<svg xmlns="http://www.w3.org/2000/svg" width="32" height="32" fill="none" class="persona-icon" viewBox="0 0 32 32"><path fill="currentColor" fill-rule="evenodd" d="M16.208 18.502a1 1 0 1 1 2 0v2.745a3.5 3.5 0 0 1-3.502 3.502H9.37l2.15 2.15a1 1 0 1 1-1.414 1.414L6.25 24.456a1 1 0 0 1 0-1.414l3.857-3.857a1 1 0 0 1 1.414 1.414l-2.15 2.15h5.335c.83 0 1.502-.672 1.502-1.502zm-5.35-13.073A2.857 2.857 0 0 0 8 8.286v9.59a1 1 0 0 1-2 0v-9.59a4.857 4.857 0 0 1 4.857-4.857h5.826c.99 0 1.935.41 2.61 1.134l5.747 6.157c.617.66.96 1.532.96 2.436v10.558a4.857 4.857 0 0 1-4.857 4.857h-3.06a1 1 0 1 1 0-2h3.06A2.857 2.857 0 0 0 24 23.714V13.143h-4.143a3.57 3.57 0 0 1-3.571-3.572V5.43zm7.428.986V9.57c0 .868.703 1.572 1.571 1.572H22.7z" clip-rule="evenodd"/></svg>