<svg xmlns="http://www.w3.org/2000/svg" width="16" height="16" fill="none" class="persona-icon" viewBox="0 0 16 16"><path fill="currentColor" d="M4.147 2.667A2.147 2.147 0 0 0 2 4.813v6.374c0 1.185.961 2.146 2.147 2.146h3.686v-5.21l-.014-.008-4.798-3.52a1.15 1.15 0 0 1 1.126-.928h7.706c.559 0 1.024.399 1.126.928L9.463 7.167H14V4.813a2.147 2.147 0 0 0-2.147-2.146z"/><path fill="currentColor" d="M10.25 9.483a1.6 1.6 0 1 1 3.2 0 1.6 1.6 0 0 1-3.2 0M9.595 12.077c.387-.34.884-.527 1.398-.527h1.714c.514 0 1.011.187 1.398.527l.04.035a1.192 1.192 0 0 1-.787 2.088h-3.016a1.192 1.192 0 0 1-.787-2.088z"/></svg>