<svg xmlns="http://www.w3.org/2000/svg" width="20" height="20" fill="none" class="persona-icon" viewBox="0 0 20 20"><path fill="currentColor" d="M5.516 3.75h8.968a2.54 2.54 0 0 1 2.541 2.542V9.03H11.63l4.116-3.01A1.29 1.29 0 0 0 14.484 5H5.516c-.62 0-1.137.437-1.262 1.02l5.552 4.072v6.157h-4.29a2.54 2.54 0 0 1-2.541-2.54V6.291A2.54 2.54 0 0 1 5.516 3.75"/><path fill="currentColor" d="M12.575 11.726a1.905 1.905 0 1 1 3.81 0 1.905 1.905 0 0 1-3.81 0M11.828 14.712a2.5 2.5 0 0 1 1.655-.624h1.994c.61 0 1.198.221 1.655.624l.046.04a1.43 1.43 0 0 1-.944 2.506h-3.508a1.43 1.43 0 0 1-.945-2.506z"/></svg>