<svg xmlns="http://www.w3.org/2000/svg" width="24" height="24" fill="none" class="persona-icon" viewBox="0 0 24 24"><path fill="currentColor" d="M6.22 4A3.22 3.22 0 0 0 3 7.22v9.56A3.22 3.22 0 0 0 6.22 20h5.53v-7.814l-.021-.014-7.198-5.28A1.72 1.72 0 0 1 6.22 5.5h11.56c.838 0 1.536.6 1.689 1.392l-5.274 3.858H21V7.22A3.22 3.22 0 0 0 17.78 4z"/><path fill="currentColor" d="M15.375 14.225a2.4 2.4 0 1 1 4.8 0 2.4 2.4 0 0 1-4.8 0M14.393 18.115c.58-.51 1.325-.79 2.097-.79h2.57c.772 0 1.517.28 2.097.79l.06.053a1.789 1.789 0 0 1-1.18 3.132h-4.523a1.789 1.789 0 0 1-1.18-3.132z"/></svg>