<svg xmlns="http://www.w3.org/2000/svg" width="16" height="16" fill="none"><path fill="currentColor" d="M3.222 3.722c0-.95.771-1.722 1.722-1.722h6.112c.95 0 1.722.771 1.722 1.722v1.222c0 .952-.771 1.723-1.722 1.723H4.945a1.722 1.722 0 0 1-1.723-1.723V3.722ZM4.944 3a.722.722 0 0 0-.722.722v1.222c0 .4.324.723.722.723h6.112a.722.722 0 0 0 .722-.723V3.722A.722.722 0 0 0 11.056 3H4.944Z"/><path fill="currentColor" d="M5.056 4.333a.5.5 0 0 1 .5-.5H8a.5.5 0 0 1 0 1H5.556a.5.5 0 0 1-.5-.5ZM11.056 4.333a.611.611 0 1 1-1.223 0 .611.611 0 0 1 1.223 0ZM2 11.667c0-.614.498-1.111 1.111-1.111h1.222c.614 0 1.111.497 1.111 1.11v1.223c0 .614-.497 1.111-1.11 1.111H3.11A1.111 1.111 0 0 1 2 12.889v-1.222Zm1.111-.111a.111.111 0 0 0-.111.11v1.223c0 .061.05.111.111.111h1.222c.062 0 .111-.05.111-.111v-1.222a.111.111 0 0 0-.11-.111H3.11ZM10.556 11.667c0-.614.497-1.111 1.11-1.111h1.223c.614 0 1.111.497 1.111 1.11v1.223c0 .614-.498 1.111-1.111 1.111h-1.222a1.111 1.111 0 0 1-1.111-1.111v-1.222Zm1.11-.111a.111.111 0 0 0-.11.11v1.223c0 .061.05.111.11.111h1.223c.061 0 .111-.05.111-.111v-1.222a.111.111 0 0 0-.111-.111h-1.222ZM6.278 12.278a1.722 1.722 0 1 1 3.444 0 1.722 1.722 0 0 1-3.444 0ZM8 11.556A.722.722 0 1 0 8 13a.722.722 0 0 0 0-1.444Z"/><path fill="currentColor" d="M8 5.667a.5.5 0 0 1 .5.5v4.889a.5.5 0 0 1-1 0v-4.89a.5.5 0 0 1 .5-.5Z"/><path fill="currentColor" d="M3.222 8.611a.5.5 0 0 1 .5-.5h8.556a.5.5 0 0 1 .5.5v2.445a.5.5 0 0 1-1 0V9.11H4.222v1.945a.5.5 0 1 1-1 0V8.61Z"/></svg>