<svg xmlns="http://www.w3.org/2000/svg" width="16" height="16" fill="none" class="persona-icon" viewBox="0 0 16 16"><path fill="currentColor" d="M5.556 3.833H8a.5.5 0 1 1 0 1H5.556a.5.5 0 1 1 0-1M11.056 4.334a.611.611 0 1 1-1.223 0 .611.611 0 0 1 1.223 0"/><path fill="currentColor" fill-rule="evenodd" d="M4.945 2h6.11c.952 0 1.723.771 1.723 1.722v1.222c0 .952-.771 1.723-1.723 1.723H8.5V8.11h3.778a.5.5 0 0 1 .5.5v1.945h.11c.614 0 1.112.497 1.112 1.11v1.223c0 .614-.498 1.111-1.111 1.111h-1.222a1.11 1.11 0 0 1-1.111-1.11v-1.223c0-.614.497-1.111 1.11-1.111h.112V9.11H8.5v1.518a1.723 1.723 0 1 1-1 0V9.112H4.222v1.445h.111c.614 0 1.111.497 1.111 1.11v1.223c0 .614-.497 1.111-1.11 1.111H3.11A1.11 1.11 0 0 1 2 12.89v-1.223c0-.614.498-1.111 1.111-1.111h.111V8.61a.5.5 0 0 1 .5-.5H7.5V6.667H4.944a1.72 1.72 0 0 1-1.722-1.723V3.722c0-.95.771-1.722 1.722-1.722m7.334 9.556h-.612a.11.11 0 0 0-.111.11v1.223c0 .062.05.111.11.111h1.223c.061 0 .111-.05.111-.11v-1.223a.11.11 0 0 0-.111-.111zm-8.556 0h-.612a.11.11 0 0 0-.111.11v1.223c0 .062.05.111.111.111h1.222c.062 0 .111-.05.111-.11v-1.223a.11.11 0 0 0-.11-.111zm7.333-5.89a.72.72 0 0 0 .722-.722V3.722A.72.72 0 0 0 11.055 3h-6.11a.72.72 0 0 0-.723.722v1.222c0 .4.324.723.722.723zm-3.778 6.612a.722.722 0 1 0 1.444 0 .722.722 0 0 0-1.444 0" clip-rule="evenodd"/></svg>