<svg xmlns="http://www.w3.org/2000/svg" width="16" height="16" fill="none" class="persona-icon" viewBox="0 0 16 16"><path fill="currentColor" d="M5.556 3.833a.5.5 0 1 0 0 1H8a.5.5 0 0 0 0-1zM11.056 4.334a.611.611 0 1 1-1.223 0 .611.611 0 0 1 1.223 0"/><path fill="currentColor" fill-rule="evenodd" d="M4.945 2c-.952 0-1.723.771-1.723 1.722v1.222c0 .952.771 1.723 1.722 1.723H7.5V8.11H3.722a.5.5 0 0 0-.5.5v1.945h-.11c-.614 0-1.112.497-1.112 1.11v1.223C2 13.503 2.498 14 3.111 14h1.222c.614 0 1.111-.497 1.111-1.11v-1.223c0-.614-.497-1.111-1.11-1.111h-.112V9.11H7.5v1.518a1.723 1.723 0 1 0 1 0V9.112h3.278v1.445h-.111c-.614 0-1.111.497-1.111 1.11v1.223c0 .614.497 1.111 1.11 1.111h1.223c.614 0 1.111-.497 1.111-1.11v-1.223c0-.614-.498-1.111-1.111-1.111h-.111V8.61a.5.5 0 0 0-.5-.5H8.5V6.667h2.556c.95 0 1.722-.771 1.722-1.723V3.722c0-.95-.771-1.722-1.723-1.722zm-1.222 9.556h.61c.062 0 .111.05.111.11v1.223c0 .062-.05.111-.11.111H3.11A.11.11 0 0 1 3 12.89v-1.223c0-.062.05-.111.111-.111h.612m7.333-5.89H4.945a.72.72 0 0 1-.723-.722V3.722c0-.399.324-.722.722-.722h6.112c.398 0 .722.323.722.722v1.222a.72.72 0 0 1-.723.723m-3.778 6.612a.722.722 0 1 1 1.444 0 .722.722 0 0 1-1.444 0m5-.722h.61c.062 0 .112.05.112.11v1.223c0 .062-.05.111-.111.111h-1.222a.11.11 0 0 1-.111-.11v-1.223c0-.062.05-.111.11-.111h.613" clip-rule="evenodd"/></svg>