<svg xmlns="http://www.w3.org/2000/svg" width="20" height="20" fill="none" class="persona-icon" viewBox="0 0 20 20"><path fill="currentColor" d="M7.156 5.108H10a.625.625 0 1 1 0 1.25H7.156a.625.625 0 0 1 0-1.25M13.556 5.733a.711.711 0 1 1-1.423 0 .711.711 0 0 1 1.423 0"/><path fill="currentColor" fill-rule="evenodd" d="M6.444 2.975h7.112c1.13 0 2.047.916 2.047 2.047v1.422c0 1.131-.917 2.048-2.047 2.048h-2.931v1.594h4.353c.345 0 .625.28.625.625v2.22h.086c.738 0 1.336.598 1.336 1.336v1.422c0 .738-.598 1.336-1.336 1.336h-1.422a1.336 1.336 0 0 1-1.336-1.336v-1.422c0-.738.598-1.337 1.336-1.337h.086v-1.594h-3.728v1.692a2.048 2.048 0 1 1-1.25 0v-1.692H5.647v1.594h.086c.738 0 1.336.599 1.336 1.337v1.422c0 .738-.598 1.336-1.336 1.336H4.311a1.336 1.336 0 0 1-1.336-1.336v-1.422c0-.738.598-1.337 1.336-1.337h.086v-2.219c0-.345.28-.625.625-.625h4.353V8.492h-2.93a2.047 2.047 0 0 1-2.048-2.048V5.022c0-1.13.917-2.047 2.047-2.047M5.024 14.18h-.712a.086.086 0 0 0-.087.087v1.422c0 .047.038.086.086.086h1.422a.086.086 0 0 0 .086-.086v-1.422a.086.086 0 0 0-.086-.087zm8.532-6.938c.44 0 .797-.357.797-.798V5.022a.797.797 0 0 0-.797-.797H6.444a.797.797 0 0 0-.797.797v1.422c0 .44.357.798.797.798zm-4.353 7.736a.797.797 0 1 0 1.594 0 .797.797 0 0 0-1.594 0m5.776-.798h-.712a.086.086 0 0 0-.086.087v1.422c0 .047.038.086.086.086h1.422a.086.086 0 0 0 .086-.086v-1.422a.086.086 0 0 0-.086-.087z" clip-rule="evenodd"/></svg>