<svg xmlns="http://www.w3.org/2000/svg" width="24" height="24" fill="none" class="persona-icon"><path fill="currentColor" d="M4.051 4.82A2.82 2.82 0 0 1 6.871 2h10.257a2.82 2.82 0 0 1 2.82 2.82v2.052a2.82 2.82 0 0 1-2.82 2.82H6.872a2.82 2.82 0 0 1-2.82-2.82V4.82Zm2.82-1.282c-.707 0-1.281.575-1.281 1.283v2.05c0 .709.574 1.283 1.282 1.283h10.256c.708 0 1.282-.574 1.282-1.282V4.82c0-.708-.574-1.282-1.282-1.282H6.872Z"/><path fill="currentColor" d="M7.128 5.846a.77.77 0 0 1 .77-.77H12a.77.77 0 0 1 0 1.54H7.897a.77.77 0 0 1-.769-.77ZM17.128 5.846a1.026 1.026 0 1 1-2.051 0 1.026 1.026 0 0 1 2.051 0ZM2 18.154c0-.991.804-1.795 1.795-1.795h2.051c.991 0 1.795.804 1.795 1.795v2.051c0 .991-.804 1.795-1.795 1.795H3.795A1.795 1.795 0 0 1 2 20.205v-2.051Zm1.795-.257a.256.256 0 0 0-.256.257v2.051c0 .142.114.257.256.257h2.051a.256.256 0 0 0 .257-.257v-2.051a.256.256 0 0 0-.257-.257H3.795ZM16.359 18.154c0-.991.804-1.795 1.795-1.795h2.051c.991 0 1.795.804 1.795 1.795v2.051c0 .991-.804 1.795-1.795 1.795h-2.051a1.795 1.795 0 0 1-1.795-1.795v-2.051Zm1.795-.257a.256.256 0 0 0-.257.257v2.051c0 .142.115.257.257.257h2.051a.256.256 0 0 0 .257-.257v-2.051a.256.256 0 0 0-.257-.257h-2.051ZM9.18 19.18a2.82 2.82 0 1 1 5.64 0 2.82 2.82 0 0 1-5.64 0ZM12 17.896a1.282 1.282 0 1 0 0 2.565 1.282 1.282 0 0 0 0-2.565Z"/><path fill="currentColor" d="M12 8.154a.77.77 0 0 1 .77.77v8.204a.77.77 0 0 1-1.54 0V8.923a.77.77 0 0 1 .77-.77Z"/><path fill="currentColor" d="M4.051 13.026a.77.77 0 0 1 .77-.77H19.18a.77.77 0 0 1 .769.77v4.102a.77.77 0 0 1-1.539 0v-3.333H5.59v3.333a.77.77 0 1 1-1.539 0v-4.102Z"/></svg>