<svg xmlns="http://www.w3.org/2000/svg" width="24" height="24" fill="none" class="persona-icon" viewBox="0 0 24 24"><path fill="currentColor" d="M8.333 5.75H12a.75.75 0 0 1 0 1.5H8.333a.75.75 0 0 1 0-1.5M16.583 6.5a.917.917 0 1 1-1.833 0 .917.917 0 0 1 1.833 0"/><path fill="currentColor" fill-rule="evenodd" d="M7.417 3h9.166a2.583 2.583 0 0 1 2.584 2.583v1.834A2.583 2.583 0 0 1 16.583 10H12.75v2.167h5.667a.75.75 0 0 1 .75.75v2.916h.166c.92 0 1.667.746 1.667 1.667v1.833c0 .92-.746 1.667-1.667 1.667H17.5c-.92 0-1.667-.746-1.667-1.667V17.5c0-.92.746-1.667 1.667-1.667h.167v-2.166H12.75v2.277a2.584 2.584 0 1 1-1.5 0v-2.277H6.333v2.166H6.5c.92 0 1.667.746 1.667 1.667v1.833C8.167 20.253 7.42 21 6.5 21H4.667C3.747 21 3 20.254 3 19.333V17.5c0-.92.746-1.667 1.667-1.667h.166v-2.916a.75.75 0 0 1 .75-.75h5.667V10H7.417a2.583 2.583 0 0 1-2.584-2.583V5.583A2.583 2.583 0 0 1 7.417 3m11 14.333H17.5a.167.167 0 0 0-.167.167v1.833c0 .092.075.167.167.167h1.833a.167.167 0 0 0 .167-.167V17.5a.167.167 0 0 0-.167-.167zm-12.833 0h-.917a.167.167 0 0 0-.167.167v1.833c0 .092.075.167.167.167H6.5a.167.167 0 0 0 .167-.167V17.5a.167.167 0 0 0-.167-.167zm11-8.833c.598 0 1.083-.485 1.083-1.083V5.583c0-.598-.485-1.083-1.084-1.083H7.417c-.599 0-1.084.485-1.084 1.083v1.834c0 .598.485 1.083 1.084 1.083zm-5.667 9.917a1.083 1.083 0 1 0 2.166 0 1.083 1.083 0 0 0-2.166 0" clip-rule="evenodd"/></svg>