<svg xmlns="http://www.w3.org/2000/svg" width="32" height="32" fill="none" class="persona-icon" viewBox="0 0 32 32"><path fill="currentColor" fill-rule="evenodd" d="M5.667 6.667A3.667 3.667 0 0 1 9.333 3h13.334a3.667 3.667 0 0 1 3.666 3.667v2.666A3.667 3.667 0 0 1 22.667 13H9.333a3.667 3.667 0 0 1-3.666-3.667zM9.333 5c-.92 0-1.666.746-1.666 1.667v2.666c0 .92.746 1.667 1.666 1.667h13.334c.92 0 1.666-.746 1.666-1.667V6.667c0-.92-.746-1.667-1.666-1.667z" clip-rule="evenodd"/><path fill="currentColor" fill-rule="evenodd" d="M9.667 8a1 1 0 0 1 1-1H16a1 1 0 1 1 0 2h-5.333a1 1 0 0 1-1-1" clip-rule="evenodd"/><path fill="currentColor" d="M22.667 8A1.333 1.333 0 1 1 20 8a1.333 1.333 0 0 1 2.667 0"/><path fill="currentColor" fill-rule="evenodd" d="M3 24a2.333 2.333 0 0 1 2.333-2.333H8A2.333 2.333 0 0 1 10.333 24v2.667A2.333 2.333 0 0 1 8 29H5.333A2.333 2.333 0 0 1 3 26.667zm2.333-.333A.333.333 0 0 0 5 24v2.667c0 .184.15.333.333.333H8c.184 0 .333-.15.333-.333V24A.333.333 0 0 0 8 23.667zM21.667 24A2.333 2.333 0 0 1 24 21.667h2.667A2.333 2.333 0 0 1 29 24v2.667A2.333 2.333 0 0 1 26.667 29H24a2.333 2.333 0 0 1-2.333-2.333zM24 23.667a.333.333 0 0 0-.333.333v2.667c0 .184.149.333.333.333h2.667c.184 0 .333-.15.333-.333V24a.333.333 0 0 0-.333-.333zM12.333 25.333a3.667 3.667 0 1 1 7.334 0 3.667 3.667 0 0 1-7.334 0M16 23.667A1.667 1.667 0 1 0 16 27a1.667 1.667 0 0 0 0-3.333" clip-rule="evenodd"/><path fill="currentColor" fill-rule="evenodd" d="M16 11a1 1 0 0 1 1 1v10.667a1 1 0 1 1-2 0V12a1 1 0 0 1 1-1" clip-rule="evenodd"/><path fill="currentColor" fill-rule="evenodd" d="M5.667 17.333a1 1 0 0 1 1-1h18.666a1 1 0 0 1 1 1v5.334a1 1 0 1 1-2 0v-4.334H7.667v4.334a1 1 0 1 1-2 0z" clip-rule="evenodd"/></svg>