<svg xmlns="http://www.w3.org/2000/svg" width="32" height="32" fill="none"><path fill="#000" fill-rule="evenodd" d="M6.5 11.667C6.5 6.327 10.753 2 16 2s9.5 4.328 9.5 9.667a9.755 9.755 0 0 1-1.35 4.97L16.85 29.5A.98.98 0 0 1 16 30a.98.98 0 0 1-.851-.5L7.85 16.638A9.754 9.754 0 0 1 6.5 11.667ZM16 4c-4.161 0-7.534 3.432-7.534 7.667 0 1.446.392 2.795 1.074 3.947l.009.016L16 27l6.451-11.37.01-.016a7.727 7.727 0 0 0 1.074-3.947C23.535 7.432 20.16 4 16 4Zm0 5.778c-1.025 0-1.856.845-1.856 1.889 0 1.043.83 1.889 1.856 1.889 1.025 0 1.856-.846 1.856-1.89 0-1.043-.83-1.888-1.856-1.888Zm-3.822 1.889c0-2.148 1.711-3.89 3.822-3.89 2.11 0 3.822 1.742 3.822 3.89 0 2.147-1.711 3.889-3.822 3.889-2.11 0-3.822-1.742-3.822-3.89Z" clip-rule="evenodd"/></svg>