<svg xmlns="http://www.w3.org/2000/svg" width="24" height="24" fill="none"><path fill="#000" fill-rule="evenodd" d="M3.313 2.225a.77.77 0 0 0-1.088 1.088L5.592 6.68c-1.228 1.185-2.259 2.752-2.98 4.688-.15.407-.149.861.002 1.265 2.679 7.196 9.626 9.192 14.603 5.672l3.47 3.47a.77.77 0 0 0 1.088-1.088L7.546 6.459l-.613-.614-3.62-3.62ZM6.662 7.75c-1.085 1.022-2.02 2.412-2.68 4.182a.2.2 0 0 0 .002.137c2.306 6.196 8.004 7.81 12.136 5.138l-2.026-2.025A3.539 3.539 0 0 1 12 15.87c-2.031 0-3.678-1.733-3.678-3.87 0-.748.202-1.447.551-2.039L6.662 7.75Zm3.316 3.316c-.119.286-.185.601-.185.933 0 1.283.988 2.323 2.207 2.323.356 0 .691-.088.989-.246l-3.01-3.01Z" clip-rule="evenodd"/><path fill="#000" d="M9.408 6.02c3.881-1.448 8.569.43 10.609 5.911a.198.198 0 0 1 0 .136c-.456 1.224-1.043 2.265-1.72 3.128a.802.802 0 0 0 .1 1.09.71.71 0 0 0 1.036-.105c.78-.996 1.445-2.18 1.954-3.549.151-.407.15-.86 0-1.265-2.307-6.195-7.783-8.554-12.471-6.804-.383.143-.584.585-.448.988.136.403.557.614.94.47Z"/></svg>