<svg xmlns="http://www.w3.org/2000/svg" width="16" height="16" fill="none" class="persona-icon" viewBox="0 0 16 16"><path fill="currentColor" d="M6.77 8.456h2.46v.527a.527.527 0 0 1-.527.527H7.298a.527.527 0 0 1-.527-.527z"/><path fill="currentColor" fill-rule="evenodd" d="M6.667 1.703h2.666c.872 0 1.655.532 1.976 1.343l.299.757h1.448c1.073 0 1.944.87 1.944 1.944v6.606c0 1.074-.87 1.944-1.944 1.944H2.944A1.944 1.944 0 0 1 1 12.353V5.747c0-1.074.87-1.944 1.944-1.944h1.448l.3-.757a2.125 2.125 0 0 1 1.975-1.343M2 12.353c0 .521.423.944.944.944h10.112a.944.944 0 0 0 .944-.944V8.454H2zm0-4.899h12V5.747a.944.944 0 0 0-.944-.944H2.944A.944.944 0 0 0 2 5.747zm3.621-4.04-.136.343h5.03l-.136-.343a1.125 1.125 0 0 0-1.046-.711H6.667c-.461 0-.876.282-1.046.71" clip-rule="evenodd"/></svg>