<svg xmlns="http://www.w3.org/2000/svg" width="16" height="16" fill="none" class="persona-icon" viewBox="0 0 16 16"><path fill="currentColor" d="M6.77 8.456v.527c0 .29.237.527.528.527h1.405a.527.527 0 0 0 .527-.527v-.527z"/><path fill="currentColor" fill-rule="evenodd" d="M6.667 1.703c-.872 0-1.655.532-1.976 1.343l-.299.757H2.944C1.871 3.803 1 4.673 1 5.747v6.606c0 1.074.87 1.944 1.944 1.944h10.112c1.073 0 1.944-.87 1.944-1.944V5.747c0-1.074-.87-1.944-1.944-1.944h-1.448l-.3-.757a2.125 2.125 0 0 0-1.975-1.343zM2 7.454V5.747c0-.522.423-.944.944-.944h10.112c.521 0 .944.422.944.944v1.707zm0 4.899V8.454h12v3.899a.944.944 0 0 1-.944.944H2.944A.944.944 0 0 1 2 12.353m3.621-8.94c.17-.428.585-.71 1.046-.71h2.666c.461 0 .876.282 1.046.71l.136.344h-5.03z" clip-rule="evenodd"/></svg>