<svg xmlns="http://www.w3.org/2000/svg" width="20" height="20" fill="none" class="persona-icon" viewBox="0 0 20 20"><path fill="currentColor" fill-rule="evenodd" d="M8.482 2.775h3.035c1.015 0 1.928.62 2.301 1.565l.327.825h1.61a2.27 2.27 0 0 1 2.27 2.27v7.52a2.27 2.27 0 0 1-2.27 2.27H4.246a2.27 2.27 0 0 1-2.27-2.27v-7.52a2.27 2.27 0 0 1 2.27-2.27h1.609l.327-.825a2.475 2.475 0 0 1 2.301-1.565m-5.257 12.18c0 .564.457 1.02 1.02 1.02h11.51a1.02 1.02 0 0 0 1.02-1.02v-4.382H11.4v.57a.6.6 0 0 1-.6.6H9.2a.6.6 0 0 1-.6-.6v-.57H3.225zm0-5.632h13.55V7.435a1.02 1.02 0 0 0-1.02-1.02H4.246a1.02 1.02 0 0 0-1.02 1.02zm4.118-4.524-.124.315h5.561l-.124-.315a1.225 1.225 0 0 0-1.14-.774H8.483c-.503 0-.954.307-1.14.774" clip-rule="evenodd"/></svg>