<svg xmlns="http://www.w3.org/2000/svg" width="16" height="16" fill="none" class="persona-icon" viewBox="0 0 16 16"><path fill="currentColor" fill-rule="evenodd" d="M6.714 1.714c-.63 0-1.142.512-1.142 1.143v.074h-.143A2.43 2.43 0 0 0 3 5.36v6.496a2.43 2.43 0 0 0 2.429 2.428h5.142A2.43 2.43 0 0 0 13 11.857V5.36a2.43 2.43 0 0 0-2.429-2.429h-.142v-.074c0-.631-.512-1.143-1.143-1.143zm-.143 1.143c0-.08.065-.143.143-.143h2.572c.079 0 .143.064.143.143v1.285a.143.143 0 0 1-.143.143H6.714a.143.143 0 0 1-.143-.143z" clip-rule="evenodd"/></svg>