<svg xmlns="http://www.w3.org/2000/svg" width="20" height="20" fill="none" class="persona-icon" viewBox="0 0 20 20"><path fill="currentColor" fill-rule="evenodd" d="M8.457 2.432c-.771 0-1.396.625-1.396 1.396v.065h-.147a2.94 2.94 0 0 0-2.939 2.94v7.795a2.94 2.94 0 0 0 2.94 2.939h6.17a2.94 2.94 0 0 0 2.94-2.94V6.833a2.94 2.94 0 0 0-2.94-2.939h-.146v-.065c0-.771-.625-1.396-1.396-1.396zm-.146 1.396c0-.08.065-.146.146-.146h3.086c.08 0 .146.065.146.146v1.543c0 .08-.065.146-.146.146H8.457a.146.146 0 0 1-.146-.146z" clip-rule="evenodd"/></svg>