<svg xmlns="http://www.w3.org/2000/svg" width="24" height="24" fill="none" class="persona-icon" viewBox="0 0 24 24"><path fill="currentColor" fill-rule="evenodd" d="M9.944 2c-.981 0-1.777.796-1.777 1.778v.169h-.278A3.833 3.833 0 0 0 4.056 7.78v10.386A3.833 3.833 0 0 0 7.889 22h8.222a3.833 3.833 0 0 0 3.833-3.834V7.78a3.833 3.833 0 0 0-3.833-3.833h-.278v-.17c0-.981-.796-1.777-1.777-1.777zm-.277 1.778c0-.154.124-.278.277-.278h4.111c.154 0 .278.124.278.278v2.055a.28.28 0 0 1-.277.278H9.944a.28.28 0 0 1-.277-.278z" clip-rule="evenodd"/></svg>