<svg xmlns="http://www.w3.org/2000/svg" width="32" height="32" fill="none" class="persona-icon" viewBox="0 0 32 32"><path fill="currentColor" fill-rule="evenodd" d="M13.429 3.428a2.286 2.286 0 0 0-2.286 2.286v.15h-.286A4.857 4.857 0 0 0 6 10.722v12.992a4.857 4.857 0 0 0 4.857 4.857h10.286A4.857 4.857 0 0 0 26 23.714V10.722a4.857 4.857 0 0 0-4.857-4.858h-.286v-.15a2.286 2.286 0 0 0-2.286-2.286zm-.286 2.286c0-.158.128-.286.285-.286h5.143c.158 0 .286.128.286.286v2.572a.286.286 0 0 1-.286.285h-5.143a.286.286 0 0 1-.285-.285z" clip-rule="evenodd"/></svg>