<svg xmlns="http://www.w3.org/2000/svg" width="16" height="16" fill="none" class="persona-icon" viewBox="0 0 16 16"><path fill="currentColor" fill-rule="evenodd" d="M4.604 3.903c.346-.464.89-.736 1.469-.736h6.093C13.18 3.167 14 3.987 14 5v6c0 1.012-.821 1.833-1.834 1.833H6.073a1.83 1.83 0 0 1-1.469-.736l-2.242-3a1.83 1.83 0 0 1 0-2.194zm1.469.264a.83.83 0 0 0-.668.334l-2.242 3a.83.83 0 0 0 0 .998l2.242 3c.157.21.405.334.668.334h6.093c.46 0 .834-.373.834-.833V5a.833.833 0 0 0-.834-.833zm.707 1.646a.5.5 0 0 1 .707 0l1.48 1.48 1.48-1.48a.5.5 0 1 1 .707.707L9.674 8l1.48 1.48a.5.5 0 1 1-.707.707l-1.48-1.48-1.48 1.48a.5.5 0 1 1-.707-.707L8.26 8 6.78 6.52a.5.5 0 0 1 0-.707" clip-rule="evenodd"/></svg>