<svg xmlns="http://www.w3.org/2000/svg" width="20" height="20" fill="none" class="persona-icon" viewBox="0 0 20 20"><path fill="currentColor" fill-rule="evenodd" d="M6.056 5.258a2.16 2.16 0 0 1 1.729-.866h7.008c1.192 0 2.158.966 2.158 2.158v6.9a2.16 2.16 0 0 1-2.158 2.158H7.785c-.68 0-1.322-.32-1.73-.866l-2.577-3.45a2.16 2.16 0 0 1 0-2.584zm1.729.384a.9.9 0 0 0-.728.364L4.48 9.456a.91.91 0 0 0 0 1.088l2.578 3.45c.172.23.441.364.728.364h7.008a.91.91 0 0 0 .908-.908v-6.9a.91.91 0 0 0-.908-.908zm.777 1.808a.625.625 0 0 0 0 .884L10.23 10l-1.666 1.666a.625.625 0 1 0 .883.884l1.667-1.666 1.666 1.666a.625.625 0 1 0 .884-.884L11.997 10l1.666-1.666a.625.625 0 1 0-.884-.884l-1.666 1.666L9.446 7.45a.625.625 0 0 0-.883 0" clip-rule="evenodd"/></svg>