<svg xmlns="http://www.w3.org/2000/svg" width="24" height="24" fill="none" class="persona-icon" viewBox="0 0 24 24"><path fill="currentColor" fill-rule="evenodd" d="M6.906 5.854A2.75 2.75 0 0 1 9.11 4.75h9.141A2.75 2.75 0 0 1 21 7.5v9a2.75 2.75 0 0 1-2.75 2.75H9.11a2.75 2.75 0 0 1-2.204-1.104l-3.362-4.5a2.75 2.75 0 0 1 0-3.292zm2.203.396a1.25 1.25 0 0 0-1.001.502l-.6-.45.6.45-3.363 4.5a1.25 1.25 0 0 0 0 1.496l3.363 4.5a1.25 1.25 0 0 0 1.001.502h9.141c.69 0 1.25-.56 1.25-1.25v-9c0-.69-.56-1.25-1.25-1.25zm1.061 2.47a.75.75 0 0 1 1.06 0l2.22 2.22 2.22-2.22a.75.75 0 1 1 1.06 1.06L14.512 12l2.22 2.22a.75.75 0 0 1-1.06 1.06l-2.22-2.22-2.22 2.22a.75.75 0 1 1-1.06-1.06L12.39 12l-2.22-2.22a.75.75 0 0 1 0-1.06" clip-rule="evenodd"/></svg>