<svg xmlns="http://www.w3.org/2000/svg" width="20" height="20" fill="none" class="persona-icon" viewBox="0 0 20 20"><path fill="currentColor" d="M11.213 2.797c-.496-1.005-1.928-1.005-2.424 0L7.21 6a.15.15 0 0 1-.115.083l-3.535.514c-1.109.16-1.551 1.523-.749 2.305l2.558 2.493a.15.15 0 0 1 .043.134l-.603 3.52c-.19 1.105.97 1.947 1.96 1.425l3.163-1.662a.15.15 0 0 1 .14 0l3.162 1.662c.992.522 2.15-.32 1.961-1.424l-.603-3.52a.15.15 0 0 1 .043-.135l2.558-2.493c.802-.782.36-2.144-.749-2.305l-3.535-.514A.15.15 0 0 1 12.794 6z"/></svg>