<svg xmlns="http://www.w3.org/2000/svg" width="20" height="20" fill="none" class="persona-icon" viewBox="0 0 20 20"><path fill="currentColor" d="M11.213 2.797 12.793 6a.15.15 0 0 0 .115.083l3.535.514c1.109.16 1.551 1.523.75 2.305l-2.559 2.493a.15.15 0 0 0-.043.134l.603 3.52c.19 1.105-.97 1.947-1.96 1.425l-3.162-1.662a.15.15 0 0 0-.141 0l-3.162 1.662c-.992.522-2.15-.32-1.961-1.424l.604-3.52a.15.15 0 0 0-.044-.135L2.81 8.902c-.802-.782-.36-2.144.75-2.305l3.534-.514A.15.15 0 0 0 7.208 6L8.79 2.797c.496-1.005 1.928-1.005 2.424 0"/></svg>