<svg xmlns="http://www.w3.org/2000/svg" width="24" height="24" fill="none" class="persona-icon" viewBox="0 0 24 24"><path fill="currentColor" d="M13.516 2.996c-.62-1.255-2.41-1.255-3.03 0L8.51 7a.19.19 0 0 1-.142.104l-4.42.642c-1.385.201-1.938 1.904-.935 2.882l3.197 3.116a.19.19 0 0 1 .054.168l-.754 4.4c-.237 1.38 1.212 2.433 2.451 1.782l3.952-2.078a.19.19 0 0 1 .176 0l3.953 2.078c1.24.651 2.688-.401 2.451-1.781l-.755-4.401a.19.19 0 0 1 .055-.168l3.197-3.116c1.003-.978.45-2.68-.936-2.882l-4.419-.642A.19.19 0 0 1 15.492 7z"/></svg>