<svg xmlns="http://www.w3.org/2000/svg" width="32" height="32" fill="none" class="persona-icon" viewBox="0 0 32 32"><path fill="currentColor" d="m18.083 3.365 2.777 5.627a.32.32 0 0 0 .242.176l6.21.902c1.903.276 2.663 2.615 1.286 3.958l-4.494 4.38a.32.32 0 0 0-.092.283l1.06 6.185c.326 1.895-1.664 3.34-3.366 2.446l-5.554-2.92a.32.32 0 0 0-.299 0l-5.554 2.92c-1.702.895-3.692-.55-3.367-2.446l1.061-6.185a.32.32 0 0 0-.092-.283l-4.494-4.38c-1.377-1.343-.617-3.682 1.286-3.958l6.21-.902a.32.32 0 0 0 .242-.176l2.777-5.627c.85-1.724 3.31-1.724 4.161 0"/></svg>