<svg xmlns="http://www.w3.org/2000/svg" width="16" height="16" fill="none" class="persona-icon" viewBox="0 0 16 16"><path fill="currentColor" fill-rule="evenodd" d="M5.556 1.083a.5.5 0 0 1 .5.5v.723h3.888v-.723a.5.5 0 0 1 1 0v.723h.723A2.333 2.333 0 0 1 14 4.639v6.722a2.333 2.333 0 0 1-2.333 2.333H4.333A2.333 2.333 0 0 1 2 11.361V4.64a2.333 2.333 0 0 1 2.333-2.333h.723v-.723a.5.5 0 0 1 .5-.5M4.333 12.694h7.334c.736 0 1.333-.597 1.333-1.333v-5H3v5c0 .736.597 1.333 1.333 1.333" clip-rule="evenodd"/></svg>