<svg xmlns="http://www.w3.org/2000/svg" width="20" height="20" fill="none" class="persona-icon" viewBox="0 0 20 20"><path fill="currentColor" fill-rule="evenodd" d="M7.156 1.908c.345 0 .625.28.625.625v.797h4.438v-.797a.625.625 0 0 1 1.25 0v.797h.798a2.76 2.76 0 0 1 2.758 2.759v7.822a2.76 2.76 0 0 1-2.758 2.758H5.733a2.76 2.76 0 0 1-2.758-2.758V6.09A2.76 2.76 0 0 1 5.733 3.33h.798v-.797c0-.345.28-.625.625-.625M4.225 8.136v5.775c0 .833.675 1.508 1.508 1.508h8.534c.833 0 1.508-.675 1.508-1.508V8.136z" clip-rule="evenodd"/></svg>