<svg xmlns="http://www.w3.org/2000/svg" width="16" height="16" fill="none"><path fill="#000" fill-rule="evenodd" d="M1.5 4.028A2.528 2.528 0 0 1 4.028 1.5h1.986a.542.542 0 0 1 0 1.083H4.028c-.798 0-1.445.647-1.445 1.445v1.986a.542.542 0 1 1-1.083 0V4.028Zm7.944-1.986c0-.3.243-.542.542-.542h1.986A2.528 2.528 0 0 1 14.5 4.028v1.986a.542.542 0 0 1-1.083 0V4.028c0-.798-.647-1.445-1.445-1.445H9.986a.542.542 0 0 1-.542-.541ZM7.43 6.682a6.641 6.641 0 0 0-1.52 1.603c-.484.726-.679 1.36-.679 1.701a.542.542 0 1 1-1.083 0c0-.64.318-1.486.86-2.3a7.776 7.776 0 0 1 2.48-2.347.839.839 0 0 1 1.039.137.89.89 0 0 1 .177.996A33.13 33.13 0 0 0 7.71 8.96c.728-.526 1.33-.736 1.757-.81a.766.766 0 0 1 .786.333.833.833 0 0 1 .064.77 1.28 1.28 0 0 1 .283-.05c.394-.024.724.145 1.007.33a.542.542 0 0 1-.596.906c-.229-.151-.311-.157-.345-.155-.041.002-.153.027-.414.24-.242.198-.605.29-.928.115-.363-.198-.45-.605-.338-.94.034-.1.07-.203.107-.302-.37.166-.858.468-1.44 1.019-.233.22-.602.34-.943.167-.374-.19-.466-.6-.367-.935.241-.81.67-1.976 1.086-2.966ZM2.042 9.444c.299 0 .541.243.541.542v1.986c0 .798.647 1.445 1.445 1.445h1.986a.542.542 0 1 1 0 1.083H4.028A2.528 2.528 0 0 1 1.5 11.972V9.986c0-.299.243-.542.542-.542Zm11.916 0c.3 0 .542.243.542.542v1.986a2.528 2.528 0 0 1-2.528 2.528H9.986a.542.542 0 0 1 0-1.083h1.986c.798 0 1.445-.647 1.445-1.445V9.986c0-.299.242-.542.541-.542Z" clip-rule="evenodd"/></svg>