<svg xmlns="http://www.w3.org/2000/svg" width="32" height="32" fill="none"><path fill="#000" fill-rule="evenodd" d="M3.002 8.002a5 5 0 0 1 5-5h4a1 1 0 1 1 0 2h-4a3 3 0 0 0-3 3v4a1 1 0 1 1-2 0v-4Zm16-4a1 1 0 0 1 1-1h4a5 5 0 0 1 5 5v4a1 1 0 1 1-2 0v-4a3 3 0 0 0-3-3h-4a1 1 0 0 1-1-1Zm-3.934 9.076a13.497 13.497 0 0 0-3.351 3.449c-.978 1.469-1.382 2.764-1.382 3.475a1 1 0 1 1-2 0c0-1.265.63-2.95 1.717-4.583a15.572 15.572 0 0 1 4.966-4.697c.733-.436 1.52-.205 1.98.261.445.452.662 1.194.338 1.905a67.134 67.134 0 0 0-2.1 5.297c1.565-1.181 2.849-1.636 3.739-1.793a1.453 1.453 0 0 1 1.49.633c.294.452.314 1.012.113 1.486l-.068.163c.236-.087.48-.143.736-.159.764-.047 1.408.28 1.973.652a1 1 0 1 1-1.1 1.67c-.466-.306-.653-.332-.752-.326-.11.007-.354.07-.885.505-.466.38-1.156.553-1.767.22-.685-.372-.855-1.14-.64-1.782.092-.271.192-.545.292-.806-.775.316-1.838.937-3.126 2.154-.448.423-1.149.65-1.794.321-.705-.36-.884-1.135-.693-1.776.51-1.712 1.437-4.216 2.314-6.27ZM4.002 19.002a1 1 0 0 1 1 1v4a3 3 0 0 0 3 3h4a1 1 0 1 1 0 2h-4a5 5 0 0 1-5-5v-4a1 1 0 0 1 1-1Zm24 0a1 1 0 0 1 1 1v4a5 5 0 0 1-5 5h-4a1 1 0 1 1 0-2h4a3 3 0 0 0 3-3v-4a1 1 0 0 1 1-1Z" clip-rule="evenodd"/></svg>