<svg xmlns="http://www.w3.org/2000/svg" width="16" height="16" fill="none" class="persona-icon"><g fill="currentColor" clip-path="url(#a)"><path d="M6.167 10a.5.5 0 0 1 .5-.5h2.667a.5.5 0 0 1 0 1H6.667a.5.5 0 0 1-.5-.5ZM6.667 11.5a.5.5 0 0 0 0 1h2.667a.5.5 0 0 0 0-1H6.667Z"/><path d="M4 1.5A2.5 2.5 0 0 0 1.5 4v8A2.5 2.5 0 0 0 4 14.5h8a2.5 2.5 0 0 0 2.5-2.5V6.162a2.5 2.5 0 0 0-.732-1.768l-2.162-2.162A2.5 2.5 0 0 0 9.838 1.5H4Zm0 1h.167V4c0 .644.522 1.167 1.167 1.167h3.333c.644 0 1.167-.523 1.167-1.167V2.5h.004a1.5 1.5 0 0 1 1.06.44L13.062 5.1a1.5 1.5 0 0 1 .439 1.06V12a1.5 1.5 0 0 1-1.5 1.5h-.166V8.667c0-.645-.523-1.167-1.167-1.167H5.334c-.645 0-1.167.522-1.167 1.167V13.5H4A1.5 1.5 0 0 1 2.5 12V4A1.5 1.5 0 0 1 4 2.5Zm1.167 0h3.667V4a.167.167 0 0 1-.167.167H5.334A.167.167 0 0 1 5.167 4V2.5Zm5.667 11H5.167V8.667c0-.092.075-.167.167-.167h5.333c.092 0 .167.075.167.167V13.5Z"/></g><defs><clipPath id="a"><path fill="#fff" d="M0 0h16v16H0z"/></clipPath></defs></svg>