<svg xmlns="http://www.w3.org/2000/svg" width="16" height="16" fill="none" class="persona-icon" viewBox="0 0 16 16"><path fill="currentColor" fill-rule="evenodd" d="M9.667 9.5a1.667 1.667 0 1 1-3.334 0 1.667 1.667 0 0 1 3.334 0m-1 0a.667.667 0 1 0-1.334 0 .667.667 0 0 0 1.334 0" clip-rule="evenodd"/><path fill="currentColor" d="M7.333 5V3.333h1V5z"/><path fill="currentColor" fill-rule="evenodd" d="M5.648 2c-.619 0-1.212.246-1.65.683L2.683 3.998A2.33 2.33 0 0 0 2 5.648v6.019A2.333 2.333 0 0 0 4.333 14h7.334A2.333 2.333 0 0 0 14 11.667V4.333A2.333 2.333 0 0 0 11.667 2zM13 4.333v7.334c0 .736-.597 1.333-1.333 1.333H4.333A1.333 1.333 0 0 1 3 11.667V5.648c0-.353.14-.692.39-.942L4.706 3.39c.25-.25.59-.39.943-.39h.185v2.389c0 .614.498 1.111 1.111 1.111h3.5c.614 0 1.112-.497 1.112-1.111V3h.11C12.404 3 13 3.597 13 4.333M6.833 3h3.723v2.389c0 .061-.05.111-.111.111h-3.5a.11.11 0 0 1-.112-.111z" clip-rule="evenodd"/></svg>