<svg xmlns="http://www.w3.org/2000/svg" width="20" height="20" fill="none" class="persona-icon" viewBox="0 0 20 20"><path fill="currentColor" d="M7.756 12.467a.6.6 0 0 1 .6-.6h3.289a.6.6 0 1 1 0 1.2h-3.29a.6.6 0 0 1-.6-.6M8.356 14.333a.6.6 0 1 0 0 1.2h3.289a.6.6 0 0 0 0-1.2z"/><path fill="currentColor" fill-rule="evenodd" d="M5.067 2A3.067 3.067 0 0 0 2 5.067v9.866A3.067 3.067 0 0 0 5.067 18h9.866A3.067 3.067 0 0 0 18 14.933v-7.2c0-.813-.323-1.593-.898-2.169l-2.666-2.666A3.067 3.067 0 0 0 12.267 2zm0 1.2h.222v1.867c0 .785.637 1.422 1.422 1.422h4.111c.786 0 1.423-.637 1.423-1.422V3.2h.022c.495 0 .97.197 1.32.547l2.666 2.666c.35.35.547.825.547 1.32v7.2a1.867 1.867 0 0 1-1.867 1.867h-.222v-5.978c0-.785-.636-1.422-1.422-1.422H6.711c-.785 0-1.422.637-1.422 1.422V16.8h-.222A1.867 1.867 0 0 1 3.2 14.933V5.067c0-1.031.836-1.867 1.867-1.867m1.422 0h4.556v1.867c0 .122-.1.222-.223.222h-4.11a.222.222 0 0 1-.223-.222zm0 13.6v-5.978c0-.122.1-.222.222-.222h6.578c.123 0 .222.1.222.222V16.8z" clip-rule="evenodd"/></svg>