<svg xmlns="http://www.w3.org/2000/svg" width="24" height="24" fill="none" class="persona-icon" viewBox="0 0 24 24"><path fill="currentColor" fill-rule="evenodd" d="M14.5 14.25a2.5 2.5 0 1 1-5 0 2.5 2.5 0 0 1 5 0m-1.5 0a1 1 0 1 0-2 0 1 1 0 0 0 2 0" clip-rule="evenodd"/><path fill="currentColor" d="M11 7.5V5h1.5v2.5z"/><path fill="currentColor" fill-rule="evenodd" d="M8.472 3a3.5 3.5 0 0 0-2.474 1.025L4.025 5.998A3.5 3.5 0 0 0 3 8.472V17.5A3.5 3.5 0 0 0 6.5 21h11a3.5 3.5 0 0 0 3.5-3.5v-11A3.5 3.5 0 0 0 17.5 3zM19.5 6.5v11a2 2 0 0 1-2 2h-11a2 2 0 0 1-2-2V8.472a2 2 0 0 1 .586-1.414l1.972-1.972A2 2 0 0 1 8.472 4.5h.278v3.583c0 .92.746 1.667 1.667 1.667h5.25c.92 0 1.666-.746 1.666-1.667V4.5h.167a2 2 0 0 1 2 2m-9.25-2h5.583v3.583a.167.167 0 0 1-.166.167h-5.25a.167.167 0 0 1-.167-.167z" clip-rule="evenodd"/></svg>