<svg xmlns="http://www.w3.org/2000/svg" width="32" height="32" fill="none" class="persona-icon" viewBox="0 0 32 32"><path fill="currentColor" fill-rule="evenodd" d="M19.333 19a3.333 3.333 0 1 1-6.666 0 3.333 3.333 0 0 1 6.666 0m-2 0a1.333 1.333 0 1 0-2.666 0 1.333 1.333 0 0 0 2.666 0" clip-rule="evenodd"/><path fill="currentColor" d="M14.667 10V6.667h2V10z"/><path fill="currentColor" fill-rule="evenodd" d="M11.297 4a4.67 4.67 0 0 0-3.3 1.367l-2.63 2.63A4.67 4.67 0 0 0 4 11.297v12.036A4.667 4.667 0 0 0 8.667 28h14.666A4.667 4.667 0 0 0 28 23.333V8.667A4.667 4.667 0 0 0 23.333 4zM26 8.667v14.666A2.667 2.667 0 0 1 23.333 26H8.667A2.667 2.667 0 0 1 6 23.333V11.297c0-.708.281-1.386.781-1.886l2.63-2.63c.5-.5 1.178-.781 1.886-.781h.37v4.778c0 1.227.995 2.222 2.222 2.222h7a2.22 2.22 0 0 0 2.222-2.222V6h.222A2.667 2.667 0 0 1 26 8.667M13.667 6h7.444v4.778c0 .122-.1.222-.222.222h-7a.22.22 0 0 1-.222-.222z" clip-rule="evenodd"/></svg>