<svg xmlns="http://www.w3.org/2000/svg" width="96" height="96" fill="none" viewBox="0 0 96 96"><g clip-path="url(#clip0_101_5020)"><rect width="96" height="96" fill="#464C59"/><path fill="#FEF5F4" d="M16 32C16 27.5817 19.5817 24 24 24H353C357.418 24 361 27.5817 361 32V61.1156C361 65.5339 357.418 69.1156 353 69.1156H24C19.5817 69.1156 16 65.5339 16 61.1156V32Z"/><path fill="#E42E2C" fill-rule="evenodd" d="M31.0251 33.8241C28.1357 33.8241 25.8241 36.1357 25.8241 39.0251C25.8241 41.9145 28.1357 44.2261 31.0251 44.2261C33.9146 44.2261 36.2261 41.9145 36.2261 39.0251C36.2261 36.1357 33.9146 33.8241 31.0251 33.8241ZM30.5628 36.1357H31.4297V40.1809H30.5628V36.1357ZM31.0251 42.4925C30.6784 42.4925 30.4472 42.2613 30.4472 41.9146C30.4472 41.5678 30.6784 41.3367 31.0251 41.3367C31.3719 41.3367 31.603 41.5678 31.603 41.9146C31.603 42.2613 31.3719 42.4925 31.0251 42.4925Z" clip-rule="evenodd"/><path fill="#232323" d="M46.041 42.2462V39.8607L43.8959 35.7739H45.0054L46.5311 38.8991L48.0475 35.7739H49.1478L47.0211 39.8607V42.2462H46.041ZM51.3395 42.3572C50.9019 42.3572 50.5074 42.2585 50.156 42.0613C49.8108 41.8579 49.5365 41.5774 49.3331 41.2199C49.1297 40.8562 49.028 40.434 49.028 39.9532C49.028 39.4723 49.1297 39.0532 49.3331 38.6957C49.5427 38.332 49.8232 38.0515 50.1745 37.8543C50.5259 37.6508 50.9173 37.5491 51.3488 37.5491C51.7864 37.5491 52.1779 37.6508 52.5231 37.8543C52.8744 38.0515 53.1518 38.332 53.3552 38.6957C53.5648 39.0532 53.6696 39.4723 53.6696 39.9532C53.6696 40.434 53.5648 40.8562 53.3552 41.2199C53.1518 41.5774 52.8744 41.8579 52.5231 42.0613C52.1717 42.2585 51.7772 42.3572 51.3395 42.3572ZM51.3395 41.5158C51.5738 41.5158 51.7895 41.4572 51.9868 41.3401C52.1902 41.223 52.3535 41.0504 52.4768 40.8223C52.6001 40.5881 52.6618 40.2983 52.6618 39.9532C52.6618 39.608 52.6001 39.3213 52.4768 39.0933C52.3597 38.859 52.1994 38.6833 51.996 38.5662C51.7988 38.4491 51.583 38.3905 51.3488 38.3905C51.1146 38.3905 50.8957 38.4491 50.6923 38.5662C50.4951 38.6833 50.3348 38.859 50.2115 39.0933C50.0882 39.3213 50.0266 39.608 50.0266 39.9532C50.0266 40.2983 50.0882 40.5881 50.2115 40.8223C50.3348 41.0504 50.4951 41.223 50.6923 41.3401C50.8896 41.4572 51.1053 41.5158 51.3395 41.5158ZM56.5083 42.3572C55.9535 42.3572 55.5158 42.1846 55.1953 41.8394C54.8809 41.4942 54.7237 40.9795 54.7237 40.2953V37.6601H55.7038V40.1936C55.7038 41.0812 56.0675 41.525 56.7949 41.525C57.1586 41.525 57.4575 41.3956 57.6918 41.1367C57.926 40.8778 58.0431 40.5079 58.0431 40.0271V37.6601H59.0232V42.2462H58.1541L58.0801 41.4418C57.9383 41.7253 57.7288 41.9503 57.4514 42.1168C57.1802 42.277 56.8658 42.3572 56.5083 42.3572ZM60.3567 42.2462V37.6601H61.2351L61.3183 38.5292C61.4786 38.2272 61.7005 37.9899 61.9841 37.8173C62.2738 37.6385 62.622 37.5491 63.0289 37.5491V38.5755H62.7607C62.4895 38.5755 62.246 38.6217 62.0303 38.7142C61.8207 38.8005 61.6512 38.9515 61.5217 39.1672C61.3985 39.3768 61.3368 39.6696 61.3368 40.0456V42.2462H60.3567ZM66.4092 42.2462V35.7739H70.5237V36.569H67.3893V38.5847H70.2464V39.3614H67.3893V41.451H70.5237V42.2462H66.4092ZM71.7411 42.2462V37.6601H72.6103L72.6843 38.4645C72.826 38.181 73.0325 37.959 73.3037 37.7988C73.5811 37.6323 73.8986 37.5491 74.2561 37.5491C74.8109 37.5491 75.2455 37.7217 75.5598 38.0669C75.8804 38.4121 76.0406 38.9268 76.0406 39.611V42.2462H75.0698V39.7127C75.0698 38.8251 74.7061 38.3813 73.9787 38.3813C73.615 38.3813 73.313 38.5107 73.0726 38.7696C72.8384 39.0285 72.7212 39.3984 72.7212 39.8792V42.2462H71.7411ZM79.2049 42.2462C78.7549 42.2462 78.3974 42.1383 78.1323 41.9226C77.8672 41.7007 77.7347 41.3093 77.7347 40.7483V38.483H76.9488V37.6601H77.7347L77.8549 36.4951H78.7148V37.6601H80.0093V38.483H78.7148V40.7483C78.7148 41.0011 78.7672 41.1767 78.872 41.2754C78.983 41.3678 79.171 41.4141 79.436 41.4141H79.9631V42.2462H79.2049ZM83.1343 42.3572C82.6843 42.3572 82.2836 42.2585 81.9323 42.0613C81.5871 41.8579 81.3159 41.5774 81.1186 41.2199C80.9214 40.8624 80.8227 40.4463 80.8227 39.9716C80.8227 39.4908 80.9183 39.0686 81.1094 38.7049C81.3066 38.3412 81.5778 38.0577 81.923 37.8543C82.2744 37.6508 82.6812 37.5491 83.1435 37.5491C83.5935 37.5491 83.985 37.6508 84.3178 37.8543C84.6507 38.0515 84.9096 38.3166 85.0945 38.6494C85.2794 38.9823 85.3719 39.3491 85.3719 39.7497C85.3719 39.8114 85.3688 39.8792 85.3626 39.9532C85.3626 40.021 85.3596 40.098 85.3534 40.1843H81.7843C81.8152 40.6281 81.96 40.9672 82.2189 41.2014C82.484 41.4295 82.7891 41.5435 83.1343 41.5435C83.4117 41.5435 83.6428 41.4819 83.8278 41.3586C84.0189 41.2291 84.1606 41.0565 84.2531 40.8408H85.2332C85.1099 41.2723 84.8633 41.6329 84.4935 41.9226C84.1298 42.2123 83.6767 42.3572 83.1343 42.3572ZM83.1343 38.3536C82.8076 38.3536 82.5179 38.4522 82.2652 38.6494C82.0124 38.8405 81.8583 39.1302 81.8028 39.5186H84.3918C84.3733 39.1611 84.2469 38.8775 84.0127 38.6679C83.7785 38.4583 83.4857 38.3536 83.1343 38.3536ZM86.4755 42.2462V37.6601H87.3539L87.4371 38.5292C87.5974 38.2272 87.8193 37.9899 88.1028 37.8173C88.3926 37.6385 88.7408 37.5491 89.1477 37.5491V38.5755H88.8795C88.6083 38.5755 88.3648 38.6217 88.1491 38.7142C87.9395 38.8005 87.77 38.9515 87.6405 39.1672C87.5173 39.3768 87.4556 39.6696 87.4556 40.0456V42.2462H86.4755ZM90.0747 44.2804V37.6601H90.9531L91.0548 38.372C91.2027 38.1563 91.4061 37.9652 91.665 37.7988C91.9239 37.6323 92.2568 37.5491 92.6636 37.5491C93.1074 37.5491 93.4989 37.6539 93.8379 37.8635C94.1769 38.0731 94.442 38.3597 94.6331 38.7234C94.8303 39.0871 94.9289 39.5001 94.9289 39.9624C94.9289 40.4247 94.8303 40.8377 94.6331 41.2014C94.442 41.5589 94.1769 41.8425 93.8379 42.052C93.4989 42.2555 93.1044 42.3572 92.6544 42.3572C92.2969 42.3572 91.9794 42.2863 91.702 42.1445C91.4308 42.0027 91.215 41.8024 91.0548 41.5435V44.2804H90.0747ZM92.4879 41.5065C92.9071 41.5065 93.2523 41.3647 93.5235 41.0812C93.7947 40.7915 93.9304 40.4155 93.9304 39.9532C93.9304 39.6511 93.8687 39.383 93.7454 39.1487C93.6221 38.9145 93.4526 38.7326 93.2369 38.6032C93.0211 38.4676 92.7715 38.3998 92.4879 38.3998C92.0688 38.3998 91.7236 38.5446 91.4524 38.8344C91.1873 39.1241 91.0548 39.497 91.0548 39.9532C91.0548 40.4155 91.1873 40.7915 91.4524 41.0812C91.7236 41.3647 92.0688 41.5065 92.4879 41.5065ZM96.0757 42.2462V37.6601H96.9541L97.0373 38.5292C97.1976 38.2272 97.4195 37.9899 97.703 37.8173C97.9928 37.6385 98.341 37.5491 98.7479 37.5491V38.5755H98.4797C98.2085 38.5755 97.965 38.6217 97.7493 38.7142C97.5397 38.8005 97.3702 38.9515 97.2407 39.1672C97.1174 39.3768 97.0558 39.6696 97.0558 40.0456V42.2462H96.0757ZM100.23 36.7909C100.045 36.7909 99.8906 36.7355 99.7673 36.6245C99.6502 36.5074 99.5917 36.3625 99.5917 36.1899C99.5917 36.0173 99.6502 35.8756 99.7673 35.7646C99.8906 35.6475 100.045 35.5889 100.23 35.5889C100.415 35.5889 100.566 35.6475 100.683 35.7646C100.806 35.8756 100.868 36.0173 100.868 36.1899C100.868 36.3625 100.806 36.5074 100.683 36.6245C100.566 36.7355 100.415 36.7909 100.23 36.7909ZM99.7396 42.2462V37.6601H100.72V42.2462H99.7396ZM103.931 42.3572C103.352 42.3572 102.874 42.2154 102.498 41.9318C102.122 41.6483 101.906 41.2723 101.851 40.8038H102.84C102.889 41.0134 103.006 41.1952 103.191 41.3493C103.376 41.4973 103.62 41.5712 103.922 41.5712C104.218 41.5712 104.433 41.5096 104.569 41.3863C104.705 41.263 104.772 41.1213 104.772 40.961C104.772 40.7268 104.677 40.5696 104.486 40.4894C104.301 40.4031 104.042 40.3261 103.709 40.2583C103.45 40.2028 103.191 40.1288 102.932 40.0364C102.68 39.9439 102.467 39.8145 102.294 39.648C102.128 39.4754 102.045 39.2443 102.045 38.9546C102.045 38.5539 102.199 38.221 102.507 37.956C102.815 37.6847 103.247 37.5491 103.802 37.5491C104.313 37.5491 104.726 37.6724 105.041 37.919C105.361 38.1655 105.549 38.5138 105.605 38.9638H104.661C104.631 38.7666 104.538 38.6124 104.384 38.5015C104.236 38.3905 104.036 38.3351 103.783 38.3351C103.536 38.3351 103.345 38.3875 103.21 38.4922C103.074 38.5909 103.006 38.7203 103.006 38.8806C103.006 39.0409 103.099 39.1672 103.284 39.2597C103.475 39.3521 103.724 39.4354 104.033 39.5093C104.341 39.5771 104.624 39.6573 104.883 39.7497C105.148 39.836 105.361 39.9655 105.521 40.1381C105.682 40.3107 105.762 40.5634 105.762 40.8963C105.768 41.3154 105.605 41.6637 105.272 41.9411C104.945 42.2185 104.498 42.3572 103.931 42.3572ZM109.063 42.3572C108.613 42.3572 108.213 42.2585 107.861 42.0613C107.516 41.8579 107.245 41.5774 107.048 41.2199C106.851 40.8624 106.752 40.4463 106.752 39.9716C106.752 39.4908 106.847 39.0686 107.039 38.7049C107.236 38.3412 107.507 38.0577 107.852 37.8543C108.204 37.6508 108.61 37.5491 109.073 37.5491C109.523 37.5491 109.914 37.6508 110.247 37.8543C110.58 38.0515 110.839 38.3166 111.024 38.6494C111.209 38.9823 111.301 39.3491 111.301 39.7497C111.301 39.8114 111.298 39.8792 111.292 39.9532C111.292 40.021 111.289 40.098 111.283 40.1843H107.714C107.744 40.6281 107.889 40.9672 108.148 41.2014C108.413 41.4295 108.718 41.5435 109.063 41.5435C109.341 41.5435 109.572 41.4819 109.757 41.3586C109.948 41.2291 110.09 41.0565 110.182 40.8408H111.162C111.039 41.2723 110.793 41.6329 110.423 41.9226C110.059 42.2123 109.606 42.3572 109.063 42.3572ZM109.063 38.3536C108.737 38.3536 108.447 38.4522 108.194 38.6494C107.942 38.8405 107.787 39.1302 107.732 39.5186H110.321C110.302 39.1611 110.176 38.8775 109.942 38.6679C109.708 38.4583 109.415 38.3536 109.063 38.3536ZM114.858 42.2462V35.7739H117.123C117.629 35.7739 118.048 35.8602 118.381 36.0327C118.714 36.1992 118.96 36.4303 119.12 36.7262C119.287 37.0159 119.37 37.3457 119.37 37.7156C119.37 38.0669 119.29 38.3905 119.13 38.6864C118.976 38.9761 118.732 39.2073 118.399 39.3799C118.066 39.5525 117.641 39.6388 117.123 39.6388H115.838V42.2462H114.858ZM115.838 38.8344H117.077C117.539 38.8344 117.869 38.7357 118.066 38.5385C118.27 38.3351 118.372 38.0608 118.372 37.7156C118.372 37.358 118.27 37.0807 118.066 36.8834C117.869 36.68 117.539 36.5783 117.077 36.5783H115.838V38.8344ZM120.389 42.2462V37.6601H121.267L121.35 38.5292C121.51 38.2272 121.732 37.9899 122.016 37.8173C122.306 37.6385 122.654 37.5491 123.061 37.5491V38.5755H122.793C122.521 38.5755 122.278 38.6217 122.062 38.7142C121.853 38.8005 121.683 38.9515 121.554 39.1672C121.43 39.3768 121.369 39.6696 121.369 40.0456V42.2462H120.389ZM124.543 36.7909C124.358 36.7909 124.204 36.7355 124.08 36.6245C123.963 36.5074 123.905 36.3625 123.905 36.1899C123.905 36.0173 123.963 35.8756 124.08 35.7646C124.204 35.6475 124.358 35.5889 124.543 35.5889C124.727 35.5889 124.878 35.6475 124.996 35.7646C125.119 35.8756 125.181 36.0173 125.181 36.1899C125.181 36.3625 125.119 36.5074 124.996 36.6245C124.878 36.7355 124.727 36.7909 124.543 36.7909ZM124.052 42.2462V37.6601H125.033V42.2462H124.052ZM127.698 42.2462L125.979 37.6601H127.005L128.281 41.3123L129.557 37.6601H130.574L128.863 42.2462H127.698ZM132.002 44.2804L133.103 41.8671H132.834L131.022 37.6601H132.086L133.491 41.0535L134.961 37.6601H135.997L133.038 44.2804H132.002ZM139.342 42.2462V35.7739H141.783C142.455 35.7739 142.964 35.931 143.309 36.2454C143.654 36.5598 143.827 36.9543 143.827 37.4289C143.827 37.8419 143.716 38.1717 143.494 38.4183C143.272 38.6587 143.004 38.822 142.69 38.9083C142.936 38.9576 143.155 39.0563 143.346 39.2042C143.543 39.3521 143.697 39.5371 143.808 39.759C143.919 39.9809 143.975 40.2213 143.975 40.4802C143.975 40.813 143.892 41.1151 143.725 41.3863C143.565 41.6514 143.328 41.861 143.013 42.0151C142.699 42.1692 142.314 42.2462 141.857 42.2462H139.342ZM140.323 38.5477H141.663C142.039 38.5477 142.326 38.4614 142.523 38.2888C142.72 38.1101 142.819 37.8666 142.819 37.5584C142.819 37.2563 142.72 37.0159 142.523 36.8372C142.332 36.6584 142.039 36.569 141.645 36.569H140.323V38.5477ZM140.323 41.4418H141.728C142.122 41.4418 142.428 41.3493 142.643 41.1644C142.865 40.9795 142.976 40.7206 142.976 40.3877C142.976 40.0549 142.862 39.7929 142.634 39.6018C142.406 39.4045 142.098 39.3059 141.709 39.3059H140.323V41.4418ZM146.652 42.3572C146.264 42.3572 145.943 42.2924 145.691 42.163C145.438 42.0336 145.25 41.864 145.127 41.6545C145.003 41.4387 144.942 41.2045 144.942 40.9517C144.942 40.5079 145.114 40.1566 145.459 39.8977C145.805 39.6388 146.298 39.5093 146.939 39.5093H148.141V39.4261C148.141 39.0686 148.042 38.8005 147.845 38.6217C147.654 38.4429 147.404 38.3536 147.096 38.3536C146.825 38.3536 146.587 38.4214 146.384 38.557C146.187 38.6864 146.067 38.8806 146.023 39.1395H145.043C145.074 38.8066 145.185 38.5231 145.376 38.2888C145.573 38.0484 145.82 37.8666 146.116 37.7433C146.418 37.6139 146.748 37.5491 147.105 37.5491C147.746 37.5491 148.243 37.7186 148.594 38.0577C148.945 38.3905 149.121 38.8467 149.121 39.4261V42.2462H148.27L148.187 41.4603C148.058 41.713 147.87 41.9257 147.623 42.0983C147.376 42.2709 147.053 42.3572 146.652 42.3572ZM146.846 41.562C147.111 41.562 147.333 41.5004 147.512 41.3771C147.697 41.2476 147.839 41.0781 147.937 40.8685C148.042 40.6589 148.107 40.4278 148.132 40.1751H147.04C146.652 40.1751 146.375 40.2429 146.208 40.3785C146.048 40.5141 145.968 40.6836 145.968 40.887C145.968 41.0966 146.045 41.263 146.199 41.3863C146.359 41.5034 146.575 41.562 146.846 41.562ZM150.35 42.2462V35.5889H151.33V42.2462H150.35ZM154.212 42.3572C153.823 42.3572 153.503 42.2924 153.25 42.163C152.997 42.0336 152.809 41.864 152.686 41.6545C152.563 41.4387 152.501 41.2045 152.501 40.9517C152.501 40.5079 152.674 40.1566 153.019 39.8977C153.364 39.6388 153.857 39.5093 154.498 39.5093H155.7V39.4261C155.7 39.0686 155.602 38.8005 155.404 38.6217C155.213 38.4429 154.964 38.3536 154.655 38.3536C154.384 38.3536 154.147 38.4214 153.944 38.557C153.746 38.6864 153.626 38.8806 153.583 39.1395H152.603C152.634 38.8066 152.745 38.5231 152.936 38.2888C153.133 38.0484 153.38 37.8666 153.675 37.7433C153.977 37.6139 154.307 37.5491 154.665 37.5491C155.306 37.5491 155.802 37.7186 156.153 38.0577C156.505 38.3905 156.68 38.8467 156.68 39.4261V42.2462H155.83L155.747 41.4603C155.617 41.713 155.429 41.9257 155.183 42.0983C154.936 42.2709 154.612 42.3572 154.212 42.3572ZM154.406 41.562C154.671 41.562 154.893 41.5004 155.072 41.3771C155.256 41.2476 155.398 41.0781 155.497 40.8685C155.602 40.6589 155.666 40.4278 155.691 40.1751H154.6C154.212 40.1751 153.934 40.2429 153.768 40.3785C153.608 40.5141 153.527 40.6836 153.527 40.887C153.527 41.0966 153.604 41.263 153.759 41.3863C153.919 41.5034 154.135 41.562 154.406 41.562ZM157.91 42.2462V37.6601H158.779L158.853 38.4645C158.995 38.181 159.201 37.959 159.472 37.7988C159.75 37.6323 160.067 37.5491 160.425 37.5491C160.98 37.5491 161.414 37.7217 161.729 38.0669C162.049 38.4121 162.209 38.9268 162.209 39.611V42.2462H161.239V39.7127C161.239 38.8251 160.875 38.3813 160.147 38.3813C159.784 38.3813 159.482 38.5107 159.241 38.7696C159.007 39.0285 158.89 39.3984 158.89 39.8792V42.2462H157.91ZM165.623 42.3572C165.173 42.3572 164.77 42.2555 164.412 42.052C164.061 41.8486 163.783 41.5682 163.58 41.2106C163.383 40.847 163.284 40.4278 163.284 39.9532C163.284 39.4785 163.383 39.0624 163.58 38.7049C163.783 38.3412 164.061 38.0577 164.412 37.8543C164.77 37.6508 165.173 37.5491 165.623 37.5491C166.19 37.5491 166.665 37.6971 167.047 37.9929C167.436 38.2888 167.685 38.6895 167.796 39.195H166.77C166.708 38.9422 166.573 38.745 166.363 38.6032C166.153 38.4614 165.907 38.3905 165.623 38.3905C165.383 38.3905 165.161 38.4522 164.958 38.5755C164.754 38.6926 164.591 38.8683 164.467 39.1025C164.344 39.3306 164.283 39.6141 164.283 39.9532C164.283 40.2922 164.344 40.5788 164.467 40.813C164.591 41.0411 164.754 41.2168 164.958 41.3401C165.161 41.4634 165.383 41.525 165.623 41.525C165.907 41.525 166.153 41.4541 166.363 41.3123C166.573 41.1706 166.708 40.9702 166.77 40.7113H167.796C167.691 41.2045 167.445 41.6021 167.056 41.9041C166.668 42.2061 166.19 42.3572 165.623 42.3572ZM171.091 42.3572C170.641 42.3572 170.24 42.2585 169.889 42.0613C169.544 41.8579 169.272 41.5774 169.075 41.2199C168.878 40.8624 168.779 40.4463 168.779 39.9716C168.779 39.4908 168.875 39.0686 169.066 38.7049C169.263 38.3412 169.534 38.0577 169.88 37.8543C170.231 37.6508 170.638 37.5491 171.1 37.5491C171.55 37.5491 171.942 37.6508 172.274 37.8543C172.607 38.0515 172.866 38.3166 173.051 38.6494C173.236 38.9823 173.328 39.3491 173.328 39.7497C173.328 39.8114 173.325 39.8792 173.319 39.9532C173.319 40.021 173.316 40.098 173.31 40.1843H169.741C169.772 40.6281 169.917 40.9672 170.176 41.2014C170.441 41.4295 170.746 41.5435 171.091 41.5435C171.368 41.5435 171.599 41.4819 171.784 41.3586C171.975 41.2291 172.117 41.0565 172.21 40.8408H173.19C173.066 41.2723 172.82 41.6329 172.45 41.9226C172.086 42.2123 171.633 42.3572 171.091 42.3572ZM171.091 38.3536C170.764 38.3536 170.474 38.4522 170.222 38.6494C169.969 38.8405 169.815 39.1302 169.759 39.5186H172.348C172.33 39.1611 172.204 38.8775 171.969 38.6679C171.735 38.4583 171.442 38.3536 171.091 38.3536ZM176.885 42.2462V35.7739H177.865V42.2462H176.885ZM181.059 42.3572C180.48 42.3572 180.002 42.2154 179.626 41.9318C179.25 41.6483 179.034 41.2723 178.979 40.8038H179.968C180.018 41.0134 180.135 41.1952 180.32 41.3493C180.505 41.4973 180.748 41.5712 181.05 41.5712C181.346 41.5712 181.562 41.5096 181.697 41.3863C181.833 41.263 181.901 41.1213 181.901 40.961C181.901 40.7268 181.805 40.5696 181.614 40.4894C181.429 40.4031 181.17 40.3261 180.837 40.2583C180.579 40.2028 180.32 40.1288 180.061 40.0364C179.808 39.9439 179.595 39.8145 179.423 39.648C179.256 39.4754 179.173 39.2443 179.173 38.9546C179.173 38.5539 179.327 38.221 179.635 37.956C179.944 37.6847 180.375 37.5491 180.93 37.5491C181.441 37.5491 181.854 37.6724 182.169 37.919C182.489 38.1655 182.677 38.5138 182.733 38.9638H181.79C181.759 38.7666 181.666 38.6124 181.512 38.5015C181.364 38.3905 181.164 38.3351 180.911 38.3351C180.665 38.3351 180.474 38.3875 180.338 38.4922C180.203 38.5909 180.135 38.7203 180.135 38.8806C180.135 39.0409 180.227 39.1672 180.412 39.2597C180.603 39.3521 180.853 39.4354 181.161 39.5093C181.469 39.5771 181.753 39.6573 182.012 39.7497C182.277 39.836 182.489 39.9655 182.65 40.1381C182.81 40.3107 182.89 40.5634 182.89 40.8963C182.896 41.3154 182.733 41.6637 182.4 41.9411C182.073 42.2185 181.626 42.3572 181.059 42.3572ZM186.5 42.2462V35.7739H188.728C189.24 35.7739 189.659 35.8602 189.986 36.0327C190.319 36.2053 190.565 36.4396 190.726 36.7355C190.886 37.0252 190.966 37.3488 190.966 37.7063C190.966 38.107 190.858 38.4707 190.642 38.7974C190.433 39.1241 190.103 39.3583 189.653 39.5001L191.031 42.2462H189.893L188.636 39.6388H187.48V42.2462H186.5ZM187.48 38.8991H188.673C189.117 38.8991 189.44 38.7912 189.644 38.5755C189.853 38.3597 189.958 38.0792 189.958 37.7341C189.958 37.3889 189.856 37.1146 189.653 36.9111C189.45 36.7016 189.12 36.5968 188.664 36.5968H187.48V38.8991ZM193.867 42.3572C193.312 42.3572 192.875 42.1846 192.554 41.8394C192.24 41.4942 192.083 40.9795 192.083 40.2953V37.6601H193.063V40.1936C193.063 41.0812 193.426 41.525 194.154 41.525C194.517 41.525 194.816 41.3956 195.051 41.1367C195.285 40.8778 195.402 40.5079 195.402 40.0271V37.6601H196.382V42.2462H195.513L195.439 41.4418C195.297 41.7253 195.088 41.9503 194.81 42.1168C194.539 42.277 194.225 42.3572 193.867 42.3572ZM197.716 42.2462V37.6601H198.585L198.659 38.4645C198.801 38.181 199.007 37.959 199.278 37.7988C199.556 37.6323 199.873 37.5491 200.231 37.5491C200.785 37.5491 201.22 37.7217 201.534 38.0669C201.855 38.4121 202.015 38.9268 202.015 39.611V42.2462H201.044V39.7127C201.044 38.8251 200.681 38.3813 199.953 38.3813C199.59 38.3813 199.287 38.5107 199.047 38.7696C198.813 39.0285 198.696 39.3984 198.696 39.8792V42.2462H197.716ZM203.256 42.2462V37.6601H204.125L204.199 38.4645C204.341 38.181 204.548 37.959 204.819 37.7988C205.096 37.6323 205.414 37.5491 205.771 37.5491C206.326 37.5491 206.76 37.7217 207.075 38.0669C207.395 38.4121 207.556 38.9268 207.556 39.611V42.2462H206.585V39.7127C206.585 38.8251 206.221 38.3813 205.494 38.3813C205.13 38.3813 204.828 38.5107 204.588 38.7696C204.353 39.0285 204.236 39.3984 204.236 39.8792V42.2462H203.256ZM209.351 36.7909C209.167 36.7909 209.012 36.7355 208.889 36.6245C208.772 36.5074 208.713 36.3625 208.713 36.1899C208.713 36.0173 208.772 35.8756 208.889 35.7646C209.012 35.6475 209.167 35.5889 209.351 35.5889C209.536 35.5889 209.687 35.6475 209.804 35.7646C209.928 35.8756 209.989 36.0173 209.989 36.1899C209.989 36.3625 209.928 36.5074 209.804 36.6245C209.687 36.7355 209.536 36.7909 209.351 36.7909ZM208.861 42.2462V37.6601H209.841V42.2462H208.861ZM211.222 42.2462V37.6601H212.091L212.165 38.4645C212.307 38.181 212.513 37.959 212.785 37.7988C213.062 37.6323 213.379 37.5491 213.737 37.5491C214.292 37.5491 214.726 37.7217 215.041 38.0669C215.361 38.4121 215.521 38.9268 215.521 39.611V42.2462H214.551V39.7127C214.551 38.8251 214.187 38.3813 213.46 38.3813C213.096 38.3813 212.794 38.5107 212.553 38.7696C212.319 39.0285 212.202 39.3984 212.202 39.8792V42.2462H211.222ZM218.639 40.8408C218.399 40.8408 218.177 40.813 217.974 40.7576L217.576 41.1459C217.644 41.1891 217.727 41.226 217.826 41.2569C217.924 41.2877 218.063 41.3154 218.242 41.3401C218.421 41.3647 218.664 41.3894 218.972 41.4141C219.583 41.4695 220.023 41.6175 220.295 41.8579C220.566 42.0921 220.701 42.4065 220.701 42.801C220.701 43.0722 220.627 43.328 220.479 43.5684C220.338 43.815 220.113 44.0122 219.804 44.1602C219.502 44.3143 219.114 44.3913 218.639 44.3913C217.998 44.3913 217.478 44.2681 217.077 44.0215C216.682 43.7811 216.485 43.4143 216.485 42.9212C216.485 42.7301 216.534 42.539 216.633 42.3479C216.738 42.163 216.901 41.9873 217.123 41.8209C216.994 41.7654 216.88 41.7069 216.781 41.6452C216.689 41.5774 216.605 41.5096 216.531 41.4418V41.2199L217.327 40.4062C216.969 40.098 216.79 39.6943 216.79 39.195C216.79 38.8929 216.861 38.6186 217.003 38.372C217.151 38.1193 217.363 37.919 217.641 37.771C217.918 37.6231 218.251 37.5491 218.639 37.5491C218.898 37.5491 219.139 37.5861 219.361 37.6601H221.071V38.3073L220.258 38.3536C220.406 38.6063 220.479 38.8868 220.479 39.195C220.479 39.5032 220.406 39.7806 220.258 40.0271C220.116 40.2737 219.906 40.4709 219.629 40.6189C219.358 40.7668 219.028 40.8408 218.639 40.8408ZM218.639 40.0734C218.923 40.0734 219.151 39.9994 219.324 39.8514C219.502 39.6973 219.592 39.4816 219.592 39.2042C219.592 38.9207 219.502 38.7049 219.324 38.557C219.151 38.409 218.923 38.3351 218.639 38.3351C218.35 38.3351 218.116 38.409 217.937 38.557C217.764 38.7049 217.678 38.9207 217.678 39.2042C217.678 39.4816 217.764 39.6973 217.937 39.8514C218.116 39.9994 218.35 40.0734 218.639 40.0734ZM217.41 42.8287C217.41 43.0938 217.527 43.291 217.761 43.4205C217.995 43.5561 218.288 43.6239 218.639 43.6239C218.979 43.6239 219.253 43.5499 219.462 43.402C219.672 43.2602 219.777 43.0691 219.777 42.8287C219.777 42.65 219.706 42.4959 219.564 42.3664C219.422 42.2431 219.154 42.1661 218.76 42.1353C218.464 42.1168 218.202 42.089 217.974 42.052C217.758 42.1692 217.61 42.2955 217.53 42.4311C217.45 42.5668 217.41 42.6993 217.41 42.8287ZM227.472 42.3572C226.831 42.3572 226.27 42.2154 225.789 41.9318C225.308 41.6483 224.932 41.2569 224.661 40.7576C224.39 40.2521 224.254 39.6696 224.254 39.01C224.254 38.3505 224.39 37.771 224.661 37.2717C224.932 36.7663 225.308 36.3718 225.789 36.0882C226.27 35.8047 226.831 35.6629 227.472 35.6629C228.113 35.6629 228.674 35.8047 229.155 36.0882C229.636 36.3718 230.008 36.7663 230.274 37.2717C230.545 37.771 230.68 38.3505 230.68 39.01C230.68 39.6696 230.545 40.2521 230.274 40.7576C230.008 41.2569 229.636 41.6483 229.155 41.9318C228.674 42.2154 228.113 42.3572 227.472 42.3572ZM227.472 41.4788C227.916 41.4788 228.301 41.3802 228.628 41.1829C228.961 40.9856 229.219 40.7021 229.404 40.3322C229.589 39.9624 229.682 39.5217 229.682 39.01C229.682 38.4984 229.589 38.0577 229.404 37.6878C229.219 37.318 228.961 37.0344 228.628 36.8372C228.301 36.6399 227.916 36.5413 227.472 36.5413C227.028 36.5413 226.64 36.6399 226.307 36.8372C225.974 37.0344 225.715 37.318 225.53 37.6878C225.351 38.0577 225.262 38.4984 225.262 39.01C225.262 39.5217 225.351 39.9624 225.53 40.3322C225.715 40.7021 225.974 40.9856 226.307 41.1829C226.64 41.3802 227.028 41.4788 227.472 41.4788ZM233.514 42.3572C232.959 42.3572 232.522 42.1846 232.201 41.8394C231.887 41.4942 231.729 40.9795 231.729 40.2953V37.6601H232.71V40.1936C232.71 41.0812 233.073 41.525 233.801 41.525C234.164 41.525 234.463 41.3956 234.698 41.1367C234.932 40.8778 235.049 40.5079 235.049 40.0271V37.6601H236.029V42.2462H235.16L235.086 41.4418C234.944 41.7253 234.734 41.9503 234.457 42.1168C234.186 42.277 233.872 42.3572 233.514 42.3572ZM239.286 42.2462C238.836 42.2462 238.478 42.1383 238.213 41.9226C237.948 41.7007 237.816 41.3093 237.816 40.7483V38.483H237.03V37.6601H237.816L237.936 36.4951H238.796V37.6601H240.09V38.483H238.796V40.7483C238.796 41.0011 238.848 41.1767 238.953 41.2754C239.064 41.3678 239.252 41.4141 239.517 41.4141H240.044V42.2462H239.286ZM241.576 42.3017C241.391 42.3017 241.237 42.2431 241.113 42.126C240.996 42.0027 240.938 41.8579 240.938 41.6914C240.938 41.5188 240.996 41.374 241.113 41.2569C241.237 41.1336 241.391 41.0719 241.576 41.0719C241.761 41.0719 241.912 41.1336 242.029 41.2569C242.146 41.374 242.204 41.5188 242.204 41.6914C242.204 41.8579 242.146 42.0027 242.029 42.126C241.912 42.2431 241.761 42.3017 241.576 42.3017ZM245.732 42.2462V35.7739H247.997C248.503 35.7739 248.922 35.8602 249.255 36.0327C249.588 36.1992 249.834 36.4303 249.994 36.7262C250.161 37.0159 250.244 37.3457 250.244 37.7156C250.244 38.0669 250.164 38.3905 250.004 38.6864C249.85 38.9761 249.606 39.2073 249.273 39.3799C248.94 39.5525 248.515 39.6388 247.997 39.6388H246.712V42.2462H245.732ZM246.712 38.8344H247.951C248.413 38.8344 248.743 38.7357 248.94 38.5385C249.144 38.3351 249.245 38.0608 249.245 37.7156C249.245 37.358 249.144 37.0807 248.94 36.8834C248.743 36.68 248.413 36.5783 247.951 36.5783H246.712V38.8344ZM251.262 42.2462V35.5889H252.243V42.2462H251.262ZM255.716 42.3572C255.266 42.3572 254.865 42.2585 254.514 42.0613C254.168 41.8579 253.897 41.5774 253.7 41.2199C253.503 40.8624 253.404 40.4463 253.404 39.9716C253.404 39.4908 253.5 39.0686 253.691 38.7049C253.888 38.3412 254.159 38.0577 254.504 37.8543C254.856 37.6508 255.263 37.5491 255.725 37.5491C256.175 37.5491 256.566 37.6508 256.899 37.8543C257.232 38.0515 257.491 38.3166 257.676 38.6494C257.861 38.9823 257.953 39.3491 257.953 39.7497C257.953 39.8114 257.95 39.8792 257.944 39.9532C257.944 40.021 257.941 40.098 257.935 40.1843H254.366C254.396 40.6281 254.541 40.9672 254.8 41.2014C255.065 41.4295 255.37 41.5435 255.716 41.5435C255.993 41.5435 256.224 41.4819 256.409 41.3586C256.6 41.2291 256.742 41.0565 256.834 40.8408H257.814C257.691 41.2723 257.445 41.6329 257.075 41.9226C256.711 42.2123 256.258 42.3572 255.716 42.3572ZM255.716 38.3536C255.389 38.3536 255.099 38.4522 254.846 38.6494C254.594 38.8405 254.44 39.1302 254.384 39.5186H256.973C256.955 39.1611 256.828 38.8775 256.594 38.6679C256.36 38.4583 256.067 38.3536 255.716 38.3536ZM260.61 42.3572C260.222 42.3572 259.901 42.2924 259.649 42.163C259.396 42.0336 259.208 41.864 259.085 41.6545C258.961 41.4387 258.9 41.2045 258.9 40.9517C258.9 40.5079 259.072 40.1566 259.417 39.8977C259.763 39.6388 260.256 39.5093 260.897 39.5093H262.099V39.4261C262.099 39.0686 262 38.8005 261.803 38.6217C261.612 38.4429 261.362 38.3536 261.054 38.3536C260.783 38.3536 260.545 38.4214 260.342 38.557C260.145 38.6864 260.025 38.8806 259.981 39.1395H259.001C259.032 38.8066 259.143 38.5231 259.334 38.2888C259.531 38.0484 259.778 37.8666 260.074 37.7433C260.376 37.6139 260.706 37.5491 261.063 37.5491C261.704 37.5491 262.2 37.7186 262.552 38.0577C262.903 38.3905 263.079 38.8467 263.079 39.4261V42.2462H262.228L262.145 41.4603C262.016 41.713 261.828 41.9257 261.581 42.0983C261.334 42.2709 261.011 42.3572 260.61 42.3572ZM260.804 41.562C261.069 41.562 261.291 41.5004 261.47 41.3771C261.655 41.2476 261.797 41.0781 261.895 40.8685C262 40.6589 262.065 40.4278 262.09 40.1751H260.998C260.61 40.1751 260.333 40.2429 260.166 40.3785C260.006 40.5141 259.926 40.6836 259.926 40.887C259.926 41.0966 260.003 41.263 260.157 41.3863C260.317 41.5034 260.533 41.562 260.804 41.562ZM266.139 42.3572C265.56 42.3572 265.082 42.2154 264.706 41.9318C264.33 41.6483 264.114 41.2723 264.059 40.8038H265.048C265.097 41.0134 265.214 41.1952 265.399 41.3493C265.584 41.4973 265.828 41.5712 266.13 41.5712C266.426 41.5712 266.641 41.5096 266.777 41.3863C266.913 41.263 266.981 41.1213 266.981 40.961C266.981 40.7268 266.885 40.5696 266.694 40.4894C266.509 40.4031 266.25 40.3261 265.917 40.2583C265.658 40.2028 265.399 40.1288 265.141 40.0364C264.888 39.9439 264.675 39.8145 264.503 39.648C264.336 39.4754 264.253 39.2443 264.253 38.9546C264.253 38.5539 264.407 38.221 264.715 37.956C265.023 37.6847 265.455 37.5491 266.01 37.5491C266.521 37.5491 266.934 37.6724 267.249 37.919C267.569 38.1655 267.757 38.5138 267.813 38.9638H266.87C266.839 38.7666 266.746 38.6124 266.592 38.5015C266.444 38.3905 266.244 38.3351 265.991 38.3351C265.745 38.3351 265.553 38.3875 265.418 38.4922C265.282 38.5909 265.214 38.7203 265.214 38.8806C265.214 39.0409 265.307 39.1672 265.492 39.2597C265.683 39.3521 265.933 39.4354 266.241 39.5093C266.549 39.5771 266.833 39.6573 267.091 39.7497C267.357 39.836 267.569 39.9655 267.729 40.1381C267.89 40.3107 267.97 40.5634 267.97 40.8963C267.976 41.3154 267.813 41.6637 267.48 41.9411C267.153 42.2185 266.706 42.3572 266.139 42.3572ZM271.272 42.3572C270.822 42.3572 270.421 42.2585 270.07 42.0613C269.724 41.8579 269.453 41.5774 269.256 41.2199C269.059 40.8624 268.96 40.4463 268.96 39.9716C268.96 39.4908 269.056 39.0686 269.247 38.7049C269.444 38.3412 269.715 38.0577 270.06 37.8543C270.412 37.6508 270.819 37.5491 271.281 37.5491C271.731 37.5491 272.122 37.6508 272.455 37.8543C272.788 38.0515 273.047 38.3166 273.232 38.6494C273.417 38.9823 273.509 39.3491 273.509 39.7497C273.509 39.8114 273.506 39.8792 273.5 39.9532C273.5 40.021 273.497 40.098 273.491 40.1843H269.922C269.952 40.6281 270.097 40.9672 270.356 41.2014C270.621 41.4295 270.926 41.5435 271.272 41.5435C271.549 41.5435 271.78 41.4819 271.965 41.3586C272.156 41.2291 272.298 41.0565 272.39 40.8408H273.371C273.247 41.2723 273.001 41.6329 272.631 41.9226C272.267 42.2123 271.814 42.3572 271.272 42.3572ZM271.272 38.3536C270.945 38.3536 270.655 38.4522 270.402 38.6494C270.15 38.8405 269.996 39.1302 269.94 39.5186H272.529C272.511 39.1611 272.384 38.8775 272.15 38.6679C271.916 38.4583 271.623 38.3536 271.272 38.3536ZM278.583 42.2462V36.569H276.669V35.7739H281.467V36.569H279.563V42.2462H278.583ZM283.749 42.3572C283.311 42.3572 282.916 42.2585 282.565 42.0613C282.22 41.8579 281.946 41.5774 281.742 41.2199C281.539 40.8562 281.437 40.434 281.437 39.9532C281.437 39.4723 281.539 39.0532 281.742 38.6957C281.952 38.332 282.232 38.0515 282.584 37.8543C282.935 37.6508 283.326 37.5491 283.758 37.5491C284.196 37.5491 284.587 37.6508 284.932 37.8543C285.283 38.0515 285.561 38.332 285.764 38.6957C285.974 39.0532 286.079 39.4723 286.079 39.9532C286.079 40.434 285.974 40.8562 285.764 41.2199C285.561 41.5774 285.283 41.8579 284.932 42.0613C284.581 42.2585 284.186 42.3572 283.749 42.3572ZM283.749 41.5158C283.983 41.5158 284.199 41.4572 284.396 41.3401C284.599 41.223 284.763 41.0504 284.886 40.8223C285.009 40.5881 285.071 40.2983 285.071 39.9532C285.071 39.608 285.009 39.3213 284.886 39.0933C284.769 38.859 284.609 38.6833 284.405 38.5662C284.208 38.4491 283.992 38.3905 283.758 38.3905C283.524 38.3905 283.305 38.4491 283.101 38.5662C282.904 38.6833 282.744 38.859 282.621 39.0933C282.497 39.3213 282.436 39.608 282.436 39.9532C282.436 40.2983 282.497 40.5881 282.621 40.8223C282.744 41.0504 282.904 41.223 283.101 41.3401C283.299 41.4572 283.514 41.5158 283.749 41.5158ZM287.225 44.2804V37.6601H288.104L288.205 38.372C288.353 38.1563 288.557 37.9652 288.816 37.7988C289.075 37.6323 289.407 37.5491 289.814 37.5491C290.258 37.5491 290.649 37.6539 290.988 37.8635C291.328 38.0731 291.593 38.3597 291.784 38.7234C291.981 39.0871 292.08 39.5001 292.08 39.9624C292.08 40.4247 291.981 40.8377 291.784 41.2014C291.593 41.5589 291.328 41.8425 290.988 42.052C290.649 42.2555 290.255 42.3572 289.805 42.3572C289.447 42.3572 289.13 42.2863 288.853 42.1445C288.581 42.0027 288.366 41.8024 288.205 41.5435V44.2804H287.225ZM289.639 41.5065C290.058 41.5065 290.403 41.3647 290.674 41.0812C290.945 40.7915 291.081 40.4155 291.081 39.9532C291.081 39.6511 291.019 39.383 290.896 39.1487C290.773 38.9145 290.603 38.7326 290.387 38.6032C290.172 38.4676 289.922 38.3998 289.639 38.3998C289.219 38.3998 288.874 38.5446 288.603 38.8344C288.338 39.1241 288.205 39.497 288.205 39.9532C288.205 40.4155 288.338 40.7915 288.603 41.0812C288.874 41.3647 289.219 41.5065 289.639 41.5065ZM294.918 42.3572C294.364 42.3572 293.926 42.1846 293.605 41.8394C293.291 41.4942 293.134 40.9795 293.134 40.2953V37.6601H294.114V40.1936C294.114 41.0812 294.478 41.525 295.205 41.525C295.569 41.525 295.868 41.3956 296.102 41.1367C296.336 40.8778 296.453 40.5079 296.453 40.0271V37.6601H297.433V42.2462H296.564L296.49 41.4418C296.348 41.7253 296.139 41.9503 295.861 42.1168C295.59 42.277 295.276 42.3572 294.918 42.3572ZM298.767 44.2804V37.6601H299.645L299.747 38.372C299.895 38.1563 300.098 37.9652 300.357 37.7988C300.616 37.6323 300.949 37.5491 301.356 37.5491C301.8 37.5491 302.191 37.6539 302.53 37.8635C302.869 38.0731 303.134 38.3597 303.325 38.7234C303.522 39.0871 303.621 39.5001 303.621 39.9624C303.621 40.4247 303.522 40.8377 303.325 41.2014C303.134 41.5589 302.869 41.8425 302.53 42.052C302.191 42.2555 301.796 42.3572 301.347 42.3572C300.989 42.3572 300.672 42.2863 300.394 42.1445C300.123 42.0027 299.907 41.8024 299.747 41.5435V44.2804H298.767ZM301.18 41.5065C301.599 41.5065 301.944 41.3647 302.216 41.0812C302.487 40.7915 302.622 40.4155 302.622 39.9532C302.622 39.6511 302.561 39.383 302.438 39.1487C302.314 38.9145 302.145 38.7326 301.929 38.6032C301.713 38.4676 301.464 38.3998 301.18 38.3998C300.761 38.3998 300.416 38.5446 300.144 38.8344C299.879 39.1241 299.747 39.497 299.747 39.9532C299.747 40.4155 299.879 40.7915 300.144 41.0812C300.416 41.3647 300.761 41.5065 301.18 41.5065ZM307.221 42.2462V35.7739H308.201L311.447 40.6466V35.7739H312.427V42.2462H311.447L308.201 37.3735V42.2462H307.221ZM315.935 42.3572C315.498 42.3572 315.103 42.2585 314.752 42.0613C314.407 41.8579 314.132 41.5774 313.929 41.2199C313.725 40.8562 313.624 40.434 313.624 39.9532C313.624 39.4723 313.725 39.0532 313.929 38.6957C314.138 38.332 314.419 38.0515 314.77 37.8543C315.122 37.6508 315.513 37.5491 315.944 37.5491C316.382 37.5491 316.774 37.6508 317.119 37.8543C317.47 38.0515 317.748 38.332 317.951 38.6957C318.161 39.0532 318.265 39.4723 318.265 39.9532C318.265 40.434 318.161 40.8562 317.951 41.2199C317.748 41.5774 317.47 41.8579 317.119 42.0613C316.767 42.2585 316.373 42.3572 315.935 42.3572ZM315.935 41.5158C316.169 41.5158 316.385 41.4572 316.582 41.3401C316.786 41.223 316.949 41.0504 317.073 40.8223C317.196 40.5881 317.257 40.2983 317.257 39.9532C317.257 39.608 317.196 39.3213 317.073 39.0933C316.955 38.859 316.795 38.6833 316.592 38.5662C316.394 38.4491 316.179 38.3905 315.944 38.3905C315.71 38.3905 315.491 38.4491 315.288 38.5662C315.091 38.6833 314.93 38.859 314.807 39.0933C314.684 39.3213 314.622 39.608 314.622 39.9532C314.622 40.2983 314.684 40.5881 314.807 40.8223C314.93 41.0504 315.091 41.223 315.288 41.3401C315.485 41.4572 315.701 41.5158 315.935 41.5158ZM320.156 42.2462L318.806 37.6601H319.786L320.674 41.1182L321.672 37.6601H322.763L323.762 41.1182L324.649 37.6601H325.629L324.28 42.2462H323.272L322.218 38.6402L321.164 42.2462H320.156ZM326.668 42.3017C326.483 42.3017 326.329 42.2431 326.206 42.126C326.089 42.0027 326.03 41.8579 326.03 41.6914C326.03 41.5188 326.089 41.374 326.206 41.2569C326.329 41.1336 326.483 41.0719 326.668 41.0719C326.853 41.0719 327.004 41.1336 327.121 41.2569C327.238 41.374 327.297 41.5188 327.297 41.6914C327.297 41.8579 327.238 42.0027 327.121 42.126C327.004 42.2431 326.853 42.3017 326.668 42.3017Z"/><path fill="#5A5A5A" d="M45.7451 56.8693V54.7173L43.9005 51.206H44.6691L46.0849 54.07L47.5008 51.206H48.2613L46.4247 54.7173V56.8693H45.7451ZM50.2519 56.9664C49.8743 56.9664 49.5345 56.8801 49.2325 56.7075C48.9304 56.5349 48.6904 56.2922 48.5124 55.9794C48.3398 55.6611 48.2535 55.289 48.2535 54.8629C48.2535 54.4368 48.3425 54.0673 48.5205 53.7545C48.6985 53.4363 48.9385 53.1909 49.2406 53.0183C49.548 52.8457 49.8905 52.7594 50.2681 52.7594C50.6456 52.7594 50.9854 52.8457 51.2875 53.0183C51.5895 53.1909 51.8268 53.4363 51.9994 53.7545C52.1774 54.0673 52.2664 54.4368 52.2664 54.8629C52.2664 55.289 52.1774 55.6611 51.9994 55.9794C51.8214 56.2922 51.5787 56.5349 51.2713 56.7075C50.9692 56.8801 50.6294 56.9664 50.2519 56.9664ZM50.2519 56.3839C50.4838 56.3839 50.6996 56.3273 50.8991 56.214C51.0987 56.1007 51.2605 55.9308 51.3845 55.7043C51.5086 55.4778 51.5706 55.1973 51.5706 54.8629C51.5706 54.5285 51.5086 54.248 51.3845 54.0215C51.2659 53.795 51.1068 53.6251 50.9072 53.5118C50.7076 53.3985 50.4946 53.3419 50.2681 53.3419C50.0361 53.3419 49.8204 53.3985 49.6208 53.5118C49.4213 53.6251 49.2595 53.795 49.1354 54.0215C49.0113 54.248 48.9493 54.5285 48.9493 54.8629C48.9493 55.1973 49.0113 55.4778 49.1354 55.7043C49.2595 55.9308 49.4186 56.1007 49.6127 56.214C49.8123 56.3273 50.0254 56.3839 50.2519 56.3839ZM54.8202 56.9664C54.3456 56.9664 53.968 56.8235 53.6875 56.5376C53.4071 56.2464 53.2668 55.8014 53.2668 55.2027V52.8565H53.9464V55.1299C53.9464 55.9659 54.2889 56.3839 54.9739 56.3839C55.3245 56.3839 55.6131 56.2598 55.8396 56.0117C56.0715 55.7582 56.1875 55.3996 56.1875 54.9357V52.8565H56.8671V56.8693H56.2522L56.2037 56.1493C56.0796 56.4028 55.8935 56.6023 55.6454 56.748C55.4027 56.8936 55.1276 56.9664 54.8202 56.9664ZM58.1302 56.8693V52.8565H58.7451L58.8017 53.6251C58.9257 53.3608 59.1145 53.1504 59.368 52.994C59.6215 52.8376 59.9343 52.7594 60.3065 52.7594V53.4713H60.1204C59.8831 53.4713 59.6647 53.5145 59.4651 53.6008C59.2655 53.6817 59.1064 53.8219 58.9878 54.0215C58.8691 54.221 58.8098 54.4961 58.8098 54.8467V56.8693H58.1302ZM65.3035 56.9664C64.9206 56.9664 64.5808 56.8801 64.2841 56.7075C63.9875 56.5295 63.7529 56.2841 63.5803 55.9713C63.4131 55.6585 63.3295 55.289 63.3295 54.8629C63.3295 54.4422 63.4131 54.0754 63.5803 53.7626C63.7475 53.4444 63.9794 53.199 64.276 53.0264C64.5781 52.8484 64.926 52.7594 65.3197 52.7594C65.7081 52.7594 66.0425 52.8484 66.3229 53.0264C66.6088 53.199 66.8272 53.4282 66.9783 53.714C67.1293 53.9999 67.2048 54.3073 67.2048 54.6364C67.2048 54.6957 67.2021 54.755 67.1967 54.8143C67.1967 54.8737 67.1967 54.9411 67.1967 55.0166H64.001C64.0171 55.324 64.0873 55.5802 64.2113 55.7852C64.3408 55.9848 64.4999 56.1358 64.6887 56.2383C64.8828 56.3407 65.0878 56.392 65.3035 56.392C65.584 56.392 65.8186 56.3273 66.0074 56.1978C66.1962 56.0684 66.3337 55.8931 66.42 55.6719H67.0915C66.9836 56.0441 66.776 56.3542 66.4686 56.6023C66.1665 56.8451 65.7782 56.9664 65.3035 56.9664ZM65.3035 53.3338C64.9799 53.3338 64.6914 53.4336 64.4379 53.6331C64.1897 53.8273 64.0468 54.1132 64.0091 54.4907H66.5333C66.5171 54.1294 66.393 53.8462 66.1611 53.6412C65.9292 53.4363 65.6433 53.3338 65.3035 53.3338ZM68.25 56.8693V52.8565H68.8649L68.9053 53.5765C69.0348 53.323 69.2209 53.1234 69.4636 52.9778C69.7063 52.8322 69.9814 52.7594 70.2888 52.7594C70.7634 52.7594 71.141 52.905 71.4215 53.1963C71.7073 53.4821 71.8503 53.9244 71.8503 54.5231V56.8693H71.1707V54.5959C71.1707 53.7599 70.8255 53.3419 70.1351 53.3419C69.7899 53.3419 69.5013 53.4686 69.2694 53.7221C69.0429 53.9702 68.9296 54.3262 68.9296 54.7901V56.8693H68.25ZM74.6101 56.8693C74.2433 56.8693 73.9548 56.7803 73.7444 56.6023C73.5341 56.4243 73.4289 56.1034 73.4289 55.6396V53.4309H72.7331V52.8565H73.4289L73.5179 51.8937H74.1085V52.8565H75.2897V53.4309H74.1085V55.6396C74.1085 55.8931 74.1597 56.0657 74.2622 56.1574C74.3647 56.2437 74.5454 56.2868 74.8043 56.2868H75.225V56.8693H74.6101ZM77.9911 56.9664C77.6082 56.9664 77.2684 56.8801 76.9717 56.7075C76.6751 56.5295 76.4405 56.2841 76.2679 55.9713C76.1007 55.6585 76.0171 55.289 76.0171 54.8629C76.0171 54.4422 76.1007 54.0754 76.2679 53.7626C76.4351 53.4444 76.667 53.199 76.9636 53.0264C77.2657 52.8484 77.6136 52.7594 78.0073 52.7594C78.3957 52.7594 78.7301 52.8484 79.0105 53.0264C79.2964 53.199 79.5148 53.4282 79.6659 53.714C79.8169 53.9999 79.8924 54.3073 79.8924 54.6364C79.8924 54.6957 79.8897 54.755 79.8843 54.8143C79.8843 54.8737 79.8843 54.9411 79.8843 55.0166H76.6886C76.7048 55.324 76.7749 55.5802 76.8989 55.7852C77.0284 55.9848 77.1875 56.1358 77.3763 56.2383C77.5704 56.3407 77.7754 56.392 77.9911 56.392C78.2716 56.392 78.5062 56.3273 78.695 56.1978C78.8838 56.0684 79.0213 55.8931 79.1076 55.6719H79.7791C79.6713 56.0441 79.4636 56.3542 79.1562 56.6023C78.8541 56.8451 78.4658 56.9664 77.9911 56.9664ZM77.9911 53.3338C77.6675 53.3338 77.379 53.4336 77.1255 53.6331C76.8773 53.8273 76.7344 54.1132 76.6967 54.4907H79.2209C79.2047 54.1294 79.0806 53.8462 78.8487 53.6412C78.6168 53.4363 78.3309 53.3338 77.9911 53.3338ZM80.9376 56.8693V52.8565H81.5525L81.6091 53.6251C81.7332 53.3608 81.922 53.1504 82.1755 52.994C82.429 52.8376 82.7418 52.7594 83.114 52.7594V53.4713H82.9279C82.6906 53.4713 82.4721 53.5145 82.2725 53.6008C82.073 53.6817 81.9139 53.8219 81.7952 54.0215C81.6766 54.221 81.6172 54.4961 81.6172 54.8467V56.8693H80.9376ZM84.0212 58.6492V52.8565H84.6361L84.7008 53.5199C84.8302 53.3257 85.0136 53.1504 85.251 52.994C85.4937 52.8376 85.8011 52.7594 86.1733 52.7594C86.5724 52.7594 86.9203 52.8511 87.2169 53.0344C87.5136 53.2178 87.7428 53.4686 87.9046 53.7869C88.0718 54.1051 88.1554 54.4665 88.1554 54.871C88.1554 55.2755 88.0718 55.6369 87.9046 55.9551C87.7428 56.2679 87.5109 56.516 87.2088 56.6994C86.9122 56.8774 86.5643 56.9664 86.1652 56.9664C85.8362 56.9664 85.5422 56.899 85.2833 56.7641C85.0298 56.6293 84.8356 56.4405 84.7008 56.1978V58.6492H84.0212ZM86.0924 56.3758C86.362 56.3758 86.5994 56.3138 86.8043 56.1897C87.0093 56.0603 87.1711 55.8823 87.2897 55.6558C87.4084 55.4292 87.4677 55.1649 87.4677 54.8629C87.4677 54.5608 87.4084 54.2966 87.2897 54.07C87.1711 53.8435 87.0093 53.6682 86.8043 53.5441C86.5994 53.4147 86.362 53.35 86.0924 53.35C85.8227 53.35 85.5854 53.4147 85.3804 53.5441C85.1754 53.6682 85.0136 53.8435 84.895 54.07C84.7763 54.2966 84.717 54.5608 84.717 54.8629C84.717 55.1649 84.7763 55.4292 84.895 55.6558C85.0136 55.8823 85.1754 56.0603 85.3804 56.1897C85.5854 56.3138 85.8227 56.3758 86.0924 56.3758ZM89.2459 56.8693V52.8565H89.8608L89.9174 53.6251C90.0415 53.3608 90.2303 53.1504 90.4838 52.994C90.7373 52.8376 91.0501 52.7594 91.4222 52.7594V53.4713H91.2362C90.9988 53.4713 90.7804 53.5145 90.5808 53.6008C90.3813 53.6817 90.2222 53.8219 90.1035 54.0215C89.9848 54.221 89.9255 54.4961 89.9255 54.8467V56.8693H89.2459ZM92.7421 51.9665C92.6073 51.9665 92.494 51.9234 92.4023 51.8371C92.316 51.7454 92.2729 51.6321 92.2729 51.4973C92.2729 51.3678 92.316 51.2599 92.4023 51.1736C92.494 51.0873 92.6073 51.0442 92.7421 51.0442C92.8716 51.0442 92.9821 51.0873 93.0738 51.1736C93.1655 51.2599 93.2114 51.3678 93.2114 51.4973C93.2114 51.6321 93.1655 51.7454 93.0738 51.8371C92.9821 51.9234 92.8716 51.9665 92.7421 51.9665ZM92.4023 56.8693V52.8565H93.0819V56.8693H92.4023ZM95.9469 56.9664C95.4668 56.9664 95.0677 56.8451 94.7495 56.6023C94.4312 56.3596 94.2452 56.0306 94.1912 55.6153H94.887C94.9302 55.8257 95.0407 56.009 95.2187 56.1655C95.4021 56.3165 95.6475 56.392 95.9549 56.392C96.2408 56.392 96.4512 56.3327 96.586 56.214C96.7208 56.0899 96.7883 55.9443 96.7883 55.7771C96.7883 55.5344 96.6993 55.3726 96.5213 55.2917C96.3487 55.2108 96.1033 55.138 95.785 55.0732C95.5693 55.0301 95.3536 54.9681 95.1378 54.8872C94.9221 54.8063 94.7414 54.693 94.5958 54.5474C94.4501 54.3963 94.3773 54.1995 94.3773 53.9568C94.3773 53.6062 94.5068 53.3203 94.7657 53.0992C95.0299 52.8726 95.3859 52.7594 95.8336 52.7594C96.2597 52.7594 96.6076 52.8672 96.8773 53.083C97.1523 53.2933 97.3114 53.5954 97.3546 53.9891H96.6831C96.6561 53.7842 96.5671 53.6251 96.4161 53.5118C96.2705 53.3931 96.0736 53.3338 95.8255 53.3338C95.5828 53.3338 95.394 53.385 95.2592 53.4875C95.1297 53.59 95.065 53.7248 95.065 53.892C95.065 54.0538 95.1486 54.1806 95.3158 54.2723C95.4884 54.364 95.7203 54.4422 96.0116 54.5069C96.2597 54.5608 96.4943 54.6283 96.7154 54.7092C96.942 54.7847 97.1254 54.9006 97.2656 55.0571C97.4112 55.2081 97.484 55.4292 97.484 55.7205C97.4894 56.0819 97.3519 56.3812 97.0714 56.6185C96.7964 56.8504 96.4215 56.9664 95.9469 56.9664ZM100.404 56.9664C100.021 56.9664 99.6808 56.8801 99.3841 56.7075C99.0875 56.5295 98.8529 56.2841 98.6803 55.9713C98.5131 55.6585 98.4295 55.289 98.4295 54.8629C98.4295 54.4422 98.5131 54.0754 98.6803 53.7626C98.8475 53.4444 99.0794 53.199 99.3761 53.0264C99.6781 52.8484 100.026 52.7594 100.42 52.7594C100.808 52.7594 101.142 52.8484 101.423 53.0264C101.709 53.199 101.927 53.4282 102.078 53.714C102.229 53.9999 102.305 54.3073 102.305 54.6364C102.305 54.6957 102.302 54.755 102.297 54.8143C102.297 54.8737 102.297 54.9411 102.297 55.0166H99.101C99.1172 55.324 99.1873 55.5802 99.3113 55.7852C99.4408 55.9848 99.5999 56.1358 99.7887 56.2383C99.9828 56.3407 100.188 56.392 100.404 56.392C100.684 56.392 100.919 56.3273 101.107 56.1978C101.296 56.0684 101.434 55.8931 101.52 55.6719H102.192C102.084 56.0441 101.876 56.3542 101.569 56.6023C101.267 56.8451 100.878 56.9664 100.404 56.9664ZM100.404 53.3338C100.08 53.3338 99.7914 53.4336 99.5379 53.6331C99.2898 53.8273 99.1468 54.1132 99.1091 54.4907H101.633C101.617 54.1294 101.493 53.8462 101.261 53.6412C101.029 53.4363 100.743 53.3338 100.404 53.3338ZM105.676 56.8693V51.206H107.537C107.979 51.206 108.343 51.2788 108.629 51.4244C108.915 51.5701 109.125 51.7669 109.26 52.0151C109.4 52.2632 109.47 52.5436 109.47 52.8565C109.47 53.1639 109.403 53.4417 109.268 53.6898C109.133 53.9379 108.923 54.1374 108.637 54.2885C108.351 54.4341 107.985 54.5069 107.537 54.5069H106.356V56.8693H105.676ZM106.356 53.9325H107.521C107.974 53.9325 108.295 53.8381 108.483 53.6493C108.678 53.4552 108.775 53.1909 108.775 52.8565C108.775 52.5167 108.678 52.2524 108.483 52.0636C108.295 51.8694 107.974 51.7723 107.521 51.7723H106.356V53.9325ZM110.465 56.8693V52.8565H111.08L111.137 53.6251C111.261 53.3608 111.45 53.1504 111.703 52.994C111.957 52.8376 112.269 52.7594 112.642 52.7594V53.4713H112.456C112.218 53.4713 112 53.5145 111.8 53.6008C111.601 53.6817 111.442 53.8219 111.323 54.0215C111.204 54.221 111.145 54.4961 111.145 54.8467V56.8693H110.465ZM113.961 51.9665C113.827 51.9665 113.713 51.9234 113.622 51.8371C113.535 51.7454 113.492 51.6321 113.492 51.4973C113.492 51.3678 113.535 51.2599 113.622 51.1736C113.713 51.0873 113.827 51.0442 113.961 51.0442C114.091 51.0442 114.202 51.0873 114.293 51.1736C114.385 51.2599 114.431 51.3678 114.431 51.4973C114.431 51.6321 114.385 51.7454 114.293 51.8371C114.202 51.9234 114.091 51.9665 113.961 51.9665ZM113.622 56.8693V52.8565H114.301V56.8693H113.622ZM116.786 56.8693L115.265 52.8565H115.977L117.182 56.214L118.396 52.8565H119.092L117.571 56.8693H116.786ZM120.429 58.6492L121.425 56.481H121.19L119.596 52.8565H120.332L121.659 55.9794L123.067 52.8565H123.771L121.141 58.6492H120.429ZM126.959 56.8693V51.206H128.949C129.348 51.206 129.677 51.2707 129.936 51.4002C130.2 51.5242 130.397 51.6968 130.527 51.918C130.656 52.1337 130.721 52.3764 130.721 52.6461C130.721 53.0129 130.621 53.3014 130.421 53.5118C130.227 53.7221 129.993 53.8678 129.718 53.9487C129.928 53.9864 130.119 54.07 130.292 54.1995C130.465 54.3289 130.599 54.4907 130.696 54.6849C130.799 54.8791 130.85 55.0921 130.85 55.324C130.85 55.6099 130.78 55.8715 130.64 56.1088C130.5 56.3407 130.292 56.5268 130.017 56.6671C129.742 56.8019 129.407 56.8693 129.014 56.8693H126.959ZM127.638 53.6817H128.9C129.262 53.6817 129.54 53.5981 129.734 53.4309C129.928 53.2583 130.025 53.021 130.025 52.7189C130.025 52.4331 129.928 52.2038 129.734 52.0312C129.545 51.8586 129.259 51.7723 128.876 51.7723H127.638V53.6817ZM127.638 56.303H128.941C129.329 56.303 129.629 56.214 129.839 56.036C130.049 55.8526 130.154 55.5991 130.154 55.2755C130.154 54.9573 130.044 54.7038 129.823 54.515C129.602 54.3208 129.302 54.2237 128.925 54.2237H127.638V56.303ZM133.265 56.9664C132.93 56.9664 132.652 56.9098 132.431 56.7965C132.21 56.6832 132.046 56.5322 131.938 56.3434C131.83 56.1547 131.776 55.9497 131.776 55.7286C131.776 55.3187 131.932 55.0031 132.245 54.782C132.558 54.5608 132.984 54.4503 133.523 54.4503H134.608V54.4017C134.608 54.0511 134.516 53.7869 134.332 53.6089C134.149 53.4255 133.904 53.3338 133.596 53.3338C133.332 53.3338 133.103 53.4012 132.909 53.5361C132.72 53.6655 132.601 53.857 132.553 54.1105H131.857C131.884 53.8192 131.981 53.5738 132.148 53.3742C132.321 53.1747 132.534 53.0237 132.787 52.9212C133.041 52.8133 133.31 52.7594 133.596 52.7594C134.157 52.7594 134.578 52.9104 134.858 53.2124C135.144 53.5091 135.287 53.9055 135.287 54.4017V56.8693H134.68L134.64 56.1493C134.527 56.3758 134.359 56.57 134.138 56.7318C133.923 56.8882 133.631 56.9664 133.265 56.9664ZM133.37 56.392C133.629 56.392 133.85 56.3246 134.033 56.1897C134.222 56.0549 134.365 55.8796 134.462 55.6638C134.559 55.4481 134.608 55.2216 134.608 54.9842V54.9762H133.58C133.181 54.9762 132.898 55.0463 132.731 55.1865C132.569 55.3214 132.488 55.4912 132.488 55.6962C132.488 55.9066 132.563 56.0765 132.714 56.2059C132.871 56.33 133.089 56.392 133.37 56.392ZM136.451 56.8693V51.0442H137.131V56.8693H136.451ZM139.724 56.9664C139.39 56.9664 139.112 56.9098 138.891 56.7965C138.67 56.6832 138.505 56.5322 138.397 56.3434C138.289 56.1547 138.235 55.9497 138.235 55.7286C138.235 55.3187 138.392 55.0031 138.705 54.782C139.017 54.5608 139.444 54.4503 139.983 54.4503H141.067V54.4017C141.067 54.0511 140.975 53.7869 140.792 53.6089C140.609 53.4255 140.363 53.3338 140.056 53.3338C139.791 53.3338 139.562 53.4012 139.368 53.5361C139.179 53.6655 139.061 53.857 139.012 54.1105H138.316C138.343 53.8192 138.44 53.5738 138.608 53.3742C138.78 53.1747 138.993 53.0237 139.247 52.9212C139.5 52.8133 139.77 52.7594 140.056 52.7594C140.617 52.7594 141.037 52.9104 141.318 53.2124C141.604 53.5091 141.747 53.9055 141.747 54.4017V56.8693H141.14L141.099 56.1493C140.986 56.3758 140.819 56.57 140.598 56.7318C140.382 56.8882 140.091 56.9664 139.724 56.9664ZM139.829 56.392C140.088 56.392 140.309 56.3246 140.493 56.1897C140.681 56.0549 140.824 55.8796 140.921 55.6638C141.018 55.4481 141.067 55.2216 141.067 54.9842V54.9762H140.04C139.64 54.9762 139.357 55.0463 139.19 55.1865C139.028 55.3214 138.947 55.4912 138.947 55.6962C138.947 55.9066 139.023 56.0765 139.174 56.2059C139.33 56.33 139.549 56.392 139.829 56.392ZM142.911 56.8693V52.8565H143.525L143.566 53.5765C143.695 53.323 143.881 53.1234 144.124 52.9778C144.367 52.8322 144.642 52.7594 144.949 52.7594C145.424 52.7594 145.802 52.905 146.082 53.1963C146.368 53.4821 146.511 53.9244 146.511 54.5231V56.8693H145.831V54.5959C145.831 53.7599 145.486 53.3419 144.796 53.3419C144.451 53.3419 144.162 53.4686 143.93 53.7221C143.703 53.9702 143.59 54.3262 143.59 54.7901V56.8693H142.911ZM149.53 56.9664C149.147 56.9664 148.801 56.8801 148.494 56.7075C148.192 56.5295 147.952 56.2841 147.774 55.9713C147.601 55.6531 147.515 55.2836 147.515 54.8629C147.515 54.4422 147.601 54.0754 147.774 53.7626C147.952 53.4444 148.192 53.199 148.494 53.0264C148.801 52.8484 149.147 52.7594 149.53 52.7594C150.004 52.7594 150.403 52.8834 150.727 53.1315C151.056 53.3796 151.264 53.7114 151.35 54.1267H150.654C150.6 53.8786 150.468 53.6871 150.258 53.5522C150.047 53.412 149.802 53.3419 149.522 53.3419C149.295 53.3419 149.082 53.3985 148.882 53.5118C148.683 53.6251 148.521 53.795 148.397 54.0215C148.273 54.248 148.211 54.5285 148.211 54.8629C148.211 55.1973 148.273 55.4778 148.397 55.7043C148.521 55.9308 148.683 56.1034 148.882 56.2221C149.082 56.3354 149.295 56.392 149.522 56.392C149.802 56.392 150.047 56.3246 150.258 56.1897C150.468 56.0495 150.6 55.8526 150.654 55.5991H151.35C151.269 56.0036 151.064 56.3327 150.735 56.5862C150.406 56.8397 150.004 56.9664 149.53 56.9664ZM154.248 56.9664C153.865 56.9664 153.525 56.8801 153.228 56.7075C152.932 56.5295 152.697 56.2841 152.524 55.9713C152.357 55.6585 152.274 55.289 152.274 54.8629C152.274 54.4422 152.357 54.0754 152.524 53.7626C152.692 53.4444 152.924 53.199 153.22 53.0264C153.522 52.8484 153.87 52.7594 154.264 52.7594C154.652 52.7594 154.987 52.8484 155.267 53.0264C155.553 53.199 155.771 53.4282 155.922 53.714C156.073 53.9999 156.149 54.3073 156.149 54.6364C156.149 54.6957 156.146 54.755 156.141 54.8143C156.141 54.8737 156.141 54.9411 156.141 55.0166H152.945C152.961 55.324 153.031 55.5802 153.156 55.7852C153.285 55.9848 153.444 56.1358 153.633 56.2383C153.827 56.3407 154.032 56.392 154.248 56.392C154.528 56.392 154.763 56.3273 154.952 56.1978C155.14 56.0684 155.278 55.8931 155.364 55.6719H156.036C155.928 56.0441 155.72 56.3542 155.413 56.6023C155.111 56.8451 154.722 56.9664 154.248 56.9664ZM154.248 53.3338C153.924 53.3338 153.636 53.4336 153.382 53.6331C153.134 53.8273 152.991 54.1132 152.953 54.4907H155.477C155.461 54.1294 155.337 53.8462 155.105 53.6412C154.873 53.4363 154.588 53.3338 154.248 53.3338ZM159.892 51.9665C159.758 51.9665 159.644 51.9234 159.553 51.8371C159.466 51.7454 159.423 51.6321 159.423 51.4973C159.423 51.3678 159.466 51.2599 159.553 51.1736C159.644 51.0873 159.758 51.0442 159.892 51.0442C160.022 51.0442 160.132 51.0873 160.224 51.1736C160.316 51.2599 160.362 51.3678 160.362 51.4973C160.362 51.6321 160.316 51.7454 160.224 51.8371C160.132 51.9234 160.022 51.9665 159.892 51.9665ZM159.553 56.8693V52.8565H160.232V56.8693H159.553ZM163.097 56.9664C162.617 56.9664 162.218 56.8451 161.9 56.6023C161.582 56.3596 161.395 56.0306 161.342 55.6153H162.037C162.08 55.8257 162.191 56.009 162.369 56.1655C162.552 56.3165 162.798 56.392 163.105 56.392C163.391 56.392 163.601 56.3327 163.736 56.214C163.871 56.0899 163.939 55.9443 163.939 55.7771C163.939 55.5344 163.85 55.3726 163.672 55.2917C163.499 55.2108 163.254 55.138 162.935 55.0732C162.72 55.0301 162.504 54.9681 162.288 54.8872C162.072 54.8063 161.892 54.693 161.746 54.5474C161.6 54.3963 161.528 54.1995 161.528 53.9568C161.528 53.6062 161.657 53.3203 161.916 53.0992C162.18 52.8726 162.536 52.7594 162.984 52.7594C163.41 52.7594 163.758 52.8672 164.028 53.083C164.303 53.2933 164.462 53.5954 164.505 53.9891H163.833C163.806 53.7842 163.717 53.6251 163.566 53.5118C163.421 53.3931 163.224 53.3338 162.976 53.3338C162.733 53.3338 162.544 53.385 162.409 53.4875C162.28 53.59 162.215 53.7248 162.215 53.892C162.215 54.0538 162.299 54.1806 162.466 54.2723C162.639 54.364 162.871 54.4422 163.162 54.5069C163.41 54.5608 163.645 54.6283 163.866 54.7092C164.092 54.7847 164.276 54.9006 164.416 55.0571C164.562 55.2081 164.634 55.4292 164.634 55.7205C164.64 56.0819 164.502 56.3812 164.222 56.6185C163.947 56.8504 163.572 56.9664 163.097 56.9664ZM168.035 56.8693V52.8565H168.65L168.707 53.6251C168.831 53.3608 169.02 53.1504 169.273 52.994C169.527 52.8376 169.839 52.7594 170.212 52.7594V53.4713H170.026C169.788 53.4713 169.57 53.5145 169.37 53.6008C169.171 53.6817 169.012 53.8219 168.893 54.0215C168.774 54.221 168.715 54.4961 168.715 54.8467V56.8693H168.035ZM172.583 56.9664C172.109 56.9664 171.731 56.8235 171.451 56.5376C171.17 56.2464 171.03 55.8014 171.03 55.2027V52.8565H171.709V55.1299C171.709 55.9659 172.052 56.3839 172.737 56.3839C173.088 56.3839 173.376 56.2598 173.603 56.0117C173.835 55.7582 173.951 55.3996 173.951 54.9357V52.8565H174.63V56.8693H174.015L173.967 56.1493C173.843 56.4028 173.657 56.6023 173.408 56.748C173.166 56.8936 172.891 56.9664 172.583 56.9664ZM175.893 56.8693V52.8565H176.508L176.549 53.5765C176.678 53.323 176.864 53.1234 177.107 52.9778C177.349 52.8322 177.625 52.7594 177.932 52.7594C178.407 52.7594 178.784 52.905 179.065 53.1963C179.351 53.4821 179.493 53.9244 179.493 54.5231V56.8693H178.814V54.5959C178.814 53.7599 178.469 53.3419 177.778 53.3419C177.433 53.3419 177.145 53.4686 176.913 53.7221C176.686 53.9702 176.573 54.3262 176.573 54.7901V56.8693H175.893ZM180.668 56.8693V52.8565H181.282L181.323 53.5765C181.452 53.323 181.638 53.1234 181.881 52.9778C182.124 52.8322 182.399 52.7594 182.706 52.7594C183.181 52.7594 183.559 52.905 183.839 53.1963C184.125 53.4821 184.268 53.9244 184.268 54.5231V56.8693H183.588V54.5959C183.588 53.7599 183.243 53.3419 182.553 53.3419C182.207 53.3419 181.919 53.4686 181.687 53.7221C181.46 53.9702 181.347 54.3262 181.347 54.7901V56.8693H180.668ZM185.855 51.9665C185.72 51.9665 185.606 51.9234 185.515 51.8371C185.428 51.7454 185.385 51.6321 185.385 51.4973C185.385 51.3678 185.428 51.2599 185.515 51.1736C185.606 51.0873 185.72 51.0442 185.855 51.0442C185.984 51.0442 186.095 51.0873 186.186 51.1736C186.278 51.2599 186.324 51.3678 186.324 51.4973C186.324 51.6321 186.278 51.7454 186.186 51.8371C186.095 51.9234 185.984 51.9665 185.855 51.9665ZM185.515 56.8693V52.8565H186.194V56.8693H185.515ZM187.522 56.8693V52.8565H188.137L188.177 53.5765C188.307 53.323 188.493 53.1234 188.736 52.9778C188.978 52.8322 189.253 52.7594 189.561 52.7594C190.036 52.7594 190.413 52.905 190.694 53.1963C190.979 53.4821 191.122 53.9244 191.122 54.5231V56.8693H190.443V54.5959C190.443 53.7599 190.098 53.3419 189.407 53.3419C189.062 53.3419 188.773 53.4686 188.542 53.7221C188.315 53.9702 188.202 54.3262 188.202 54.7901V56.8693H187.522ZM193.882 55.6072C193.656 55.6072 193.448 55.5775 193.259 55.5182L192.855 55.8985C192.914 55.9416 192.987 55.9794 193.073 56.0117C193.165 56.0387 193.294 56.0657 193.461 56.0926C193.629 56.1142 193.863 56.1385 194.165 56.1655C194.705 56.2032 195.09 56.3273 195.322 56.5376C195.554 56.748 195.67 57.023 195.67 57.3628C195.67 57.5948 195.605 57.8159 195.476 58.0263C195.352 58.2366 195.158 58.4092 194.893 58.544C194.635 58.6789 194.3 58.7463 193.89 58.7463C193.529 58.7463 193.208 58.6978 192.928 58.6007C192.647 58.509 192.429 58.3661 192.272 58.1719C192.116 57.9831 192.038 57.7431 192.038 57.4518C192.038 57.3008 192.078 57.1363 192.159 56.9583C192.24 56.7857 192.391 56.6212 192.612 56.4648C192.493 56.4163 192.391 56.365 192.305 56.3111C192.224 56.2518 192.148 56.187 192.078 56.1169V55.9308L192.766 55.2512C192.447 54.9816 192.288 54.6256 192.288 54.1833C192.288 53.919 192.35 53.679 192.474 53.4632C192.599 53.2475 192.779 53.0776 193.017 52.9535C193.254 52.8241 193.542 52.7594 193.882 52.7594C194.114 52.7594 194.324 52.7917 194.513 52.8565H195.994V53.3662L195.241 53.3985C195.398 53.6251 195.476 53.8866 195.476 54.1833C195.476 54.4476 195.411 54.6876 195.282 54.9033C195.158 55.1191 194.977 55.2917 194.74 55.4211C194.508 55.5452 194.222 55.6072 193.882 55.6072ZM193.882 55.049C194.168 55.049 194.395 54.9762 194.562 54.8305C194.734 54.6795 194.821 54.4638 194.821 54.1833C194.821 53.9082 194.734 53.6979 194.562 53.5522C194.395 53.4012 194.168 53.3257 193.882 53.3257C193.591 53.3257 193.359 53.4012 193.186 53.5522C193.019 53.6979 192.936 53.9082 192.936 54.1833C192.936 54.4638 193.019 54.6795 193.186 54.8305C193.359 54.9762 193.591 55.049 193.882 55.049ZM192.701 57.3871C192.701 57.6568 192.814 57.8564 193.041 57.9858C193.267 58.1206 193.55 58.1881 193.89 58.1881C194.225 58.1881 194.492 58.1153 194.691 57.9696C194.896 57.824 194.999 57.6298 194.999 57.3871C194.999 57.2145 194.929 57.0635 194.788 56.934C194.648 56.81 194.389 56.7372 194.012 56.7156C193.715 56.694 193.459 56.6671 193.243 56.6347C193.022 56.7534 192.876 56.8801 192.806 57.015C192.736 57.1552 192.701 57.2792 192.701 57.3871ZM201.019 56.9664C200.641 56.9664 200.302 56.8801 200 56.7075C199.698 56.5349 199.457 56.2922 199.279 55.9794C199.107 55.6611 199.021 55.289 199.021 54.8629C199.021 54.4368 199.11 54.0673 199.288 53.7545C199.466 53.4363 199.706 53.1909 200.008 53.0183C200.315 52.8457 200.658 52.7594 201.035 52.7594C201.413 52.7594 201.752 52.8457 202.055 53.0183C202.357 53.1909 202.594 53.4363 202.766 53.7545C202.944 54.0673 203.033 54.4368 203.033 54.8629C203.033 55.289 202.944 55.6611 202.766 55.9794C202.588 56.2922 202.346 56.5349 202.038 56.7075C201.736 56.8801 201.397 56.9664 201.019 56.9664ZM201.019 56.3839C201.251 56.3839 201.467 56.3273 201.666 56.214C201.866 56.1007 202.028 55.9308 202.152 55.7043C202.276 55.4778 202.338 55.1973 202.338 54.8629C202.338 54.5285 202.276 54.248 202.152 54.0215C202.033 53.795 201.874 53.6251 201.674 53.5118C201.475 53.3985 201.262 53.3419 201.035 53.3419C200.803 53.3419 200.587 53.3985 200.388 53.5118C200.188 53.6251 200.027 53.795 199.902 54.0215C199.778 54.248 199.716 54.5285 199.716 54.8629C199.716 55.1973 199.778 55.4778 199.902 55.7043C200.027 55.9308 200.186 56.1007 200.38 56.214C200.579 56.3273 200.792 56.3839 201.019 56.3839ZM205.587 56.9664C205.113 56.9664 204.735 56.8235 204.455 56.5376C204.174 56.2464 204.034 55.8014 204.034 55.2027V52.8565H204.713V55.1299C204.713 55.9659 205.056 56.3839 205.741 56.3839C206.092 56.3839 206.38 56.2598 206.607 56.0117C206.839 55.7582 206.955 55.3996 206.955 54.9357V52.8565H207.634V56.8693H207.019L206.971 56.1493C206.847 56.4028 206.661 56.6023 206.412 56.748C206.17 56.8936 205.895 56.9664 205.587 56.9664ZM210.483 56.8693C210.116 56.8693 209.828 56.7803 209.617 56.6023C209.407 56.4243 209.302 56.1034 209.302 55.6396V53.4309H208.606V52.8565H209.302L209.391 51.8937H209.981V52.8565H211.163V53.4309H209.981V55.6396C209.981 55.8931 210.033 56.0657 210.135 56.1574C210.238 56.2437 210.418 56.2868 210.677 56.2868H211.098V56.8693H210.483ZM212.405 56.9098C212.27 56.9098 212.157 56.8666 212.065 56.7803C211.979 56.6886 211.936 56.5781 211.936 56.4486C211.936 56.3192 211.979 56.2113 212.065 56.125C212.157 56.0333 212.27 55.9875 212.405 55.9875C212.535 55.9875 212.642 56.0333 212.729 56.125C212.82 56.2113 212.866 56.3192 212.866 56.4486C212.866 56.5781 212.82 56.6886 212.729 56.7803C212.642 56.8666 212.535 56.9098 212.405 56.9098ZM216.221 56.8693V51.206H218.082C218.524 51.206 218.888 51.2788 219.174 51.4244C219.46 51.5701 219.67 51.7669 219.805 52.0151C219.945 52.2632 220.016 52.5436 220.016 52.8565C220.016 53.1639 219.948 53.4417 219.813 53.6898C219.678 53.9379 219.468 54.1374 219.182 54.2885C218.896 54.4341 218.53 54.5069 218.082 54.5069H216.901V56.8693H216.221ZM216.901 53.9325H218.066C218.519 53.9325 218.84 53.8381 219.029 53.6493C219.223 53.4552 219.32 53.1909 219.32 52.8565C219.32 52.5167 219.223 52.2524 219.029 52.0636C218.84 51.8694 218.519 51.7723 218.066 51.7723H216.901V53.9325ZM221.01 56.8693V51.0442H221.69V56.8693H221.01ZM224.752 56.9664C224.37 56.9664 224.03 56.8801 223.733 56.7075C223.436 56.5295 223.202 56.2841 223.029 55.9713C222.862 55.6585 222.778 55.289 222.778 54.8629C222.778 54.4422 222.862 54.0754 223.029 53.7626C223.196 53.4444 223.428 53.199 223.725 53.0264C224.027 52.8484 224.375 52.7594 224.769 52.7594C225.157 52.7594 225.491 52.8484 225.772 53.0264C226.058 53.199 226.276 53.4282 226.427 53.714C226.578 53.9999 226.654 54.3073 226.654 54.6364C226.654 54.6957 226.651 54.755 226.646 54.8143C226.646 54.8737 226.646 54.9411 226.646 55.0166H223.45C223.466 55.324 223.536 55.5802 223.66 55.7852C223.79 55.9848 223.949 56.1358 224.138 56.2383C224.332 56.3407 224.537 56.392 224.752 56.392C225.033 56.392 225.268 56.3273 225.456 56.1978C225.645 56.0684 225.783 55.8931 225.869 55.6719H226.54C226.433 56.0441 226.225 56.3542 225.917 56.6023C225.615 56.8451 225.227 56.9664 224.752 56.9664ZM224.752 53.3338C224.429 53.3338 224.14 53.4336 223.887 53.6331C223.639 53.8273 223.496 54.1132 223.458 54.4907H225.982C225.966 54.1294 225.842 53.8462 225.61 53.6412C225.378 53.4363 225.092 53.3338 224.752 53.3338ZM229.034 56.9664C228.699 56.9664 228.422 56.9098 228.201 56.7965C227.979 56.6832 227.815 56.5322 227.707 56.3434C227.599 56.1547 227.545 55.9497 227.545 55.7286C227.545 55.3187 227.702 55.0031 228.014 54.782C228.327 54.5608 228.753 54.4503 229.293 54.4503H230.377V54.4017C230.377 54.0511 230.285 53.7869 230.102 53.6089C229.918 53.4255 229.673 53.3338 229.366 53.3338C229.101 53.3338 228.872 53.4012 228.678 53.5361C228.489 53.6655 228.37 53.857 228.322 54.1105H227.626C227.653 53.8192 227.75 53.5738 227.917 53.3742C228.09 53.1747 228.303 53.0237 228.557 52.9212C228.81 52.8133 229.08 52.7594 229.366 52.7594C229.927 52.7594 230.347 52.9104 230.628 53.2124C230.914 53.5091 231.056 53.9055 231.056 54.4017V56.8693H230.45L230.409 56.1493C230.296 56.3758 230.129 56.57 229.908 56.7318C229.692 56.8882 229.401 56.9664 229.034 56.9664ZM229.139 56.392C229.398 56.392 229.619 56.3246 229.802 56.1897C229.991 56.0549 230.134 55.8796 230.231 55.6638C230.328 55.4481 230.377 55.2216 230.377 54.9842V54.9762H229.349C228.95 54.9762 228.667 55.0463 228.5 55.1865C228.338 55.3214 228.257 55.4912 228.257 55.6962C228.257 55.9066 228.333 56.0765 228.484 56.2059C228.64 56.33 228.859 56.392 229.139 56.392ZM233.758 56.9664C233.278 56.9664 232.879 56.8451 232.56 56.6023C232.242 56.3596 232.056 56.0306 232.002 55.6153H232.698C232.741 55.8257 232.852 56.009 233.03 56.1655C233.213 56.3165 233.458 56.392 233.766 56.392C234.052 56.392 234.262 56.3327 234.397 56.214C234.532 56.0899 234.599 55.9443 234.599 55.7771C234.599 55.5344 234.51 55.3726 234.332 55.2917C234.16 55.2108 233.914 55.138 233.596 55.0732C233.38 55.0301 233.164 54.9681 232.949 54.8872C232.733 54.8063 232.552 54.693 232.407 54.5474C232.261 54.3963 232.188 54.1995 232.188 53.9568C232.188 53.6062 232.318 53.3203 232.576 53.0992C232.841 52.8726 233.197 52.7594 233.644 52.7594C234.071 52.7594 234.418 52.8672 234.688 53.083C234.963 53.2933 235.122 53.5954 235.165 53.9891H234.494C234.467 53.7842 234.378 53.6251 234.227 53.5118C234.081 53.3931 233.884 53.3338 233.636 53.3338C233.394 53.3338 233.205 53.385 233.07 53.4875C232.941 53.59 232.876 53.7248 232.876 53.892C232.876 54.0538 232.959 54.1806 233.127 54.2723C233.299 54.364 233.531 54.4422 233.822 54.5069C234.071 54.5608 234.305 54.6283 234.526 54.7092C234.753 54.7847 234.936 54.9006 235.076 55.0571C235.222 55.2081 235.295 55.4292 235.295 55.7205C235.3 56.0819 235.163 56.3812 234.882 56.6185C234.607 56.8504 234.232 56.9664 233.758 56.9664ZM238.214 56.9664C237.831 56.9664 237.492 56.8801 237.195 56.7075C236.898 56.5295 236.664 56.2841 236.491 55.9713C236.324 55.6585 236.24 55.289 236.24 54.8629C236.24 54.4422 236.324 54.0754 236.491 53.7626C236.658 53.4444 236.89 53.199 237.187 53.0264C237.489 52.8484 237.837 52.7594 238.231 52.7594C238.619 52.7594 238.953 52.8484 239.234 53.0264C239.52 53.199 239.738 53.4282 239.889 53.714C240.04 53.9999 240.116 54.3073 240.116 54.6364C240.116 54.6957 240.113 54.755 240.108 54.8143C240.108 54.8737 240.108 54.9411 240.108 55.0166H236.912C236.928 55.324 236.998 55.5802 237.122 55.7852C237.252 55.9848 237.411 56.1358 237.599 56.2383C237.794 56.3407 237.999 56.392 238.214 56.392C238.495 56.392 238.729 56.3273 238.918 56.1978C239.107 56.0684 239.245 55.8931 239.331 55.6719H240.002C239.894 56.0441 239.687 56.3542 239.379 56.6023C239.077 56.8451 238.689 56.9664 238.214 56.9664ZM238.214 53.3338C237.891 53.3338 237.602 53.4336 237.349 53.6331C237.101 53.8273 236.958 54.1132 236.92 54.4907H239.444C239.428 54.1294 239.304 53.8462 239.072 53.6412C238.84 53.4363 238.554 53.3338 238.214 53.3338ZM245.032 56.8693C244.665 56.8693 244.377 56.7803 244.167 56.6023C243.956 56.4243 243.851 56.1034 243.851 55.6396V53.4309H243.155V52.8565H243.851L243.94 51.8937H244.531V52.8565H245.712V53.4309H244.531V55.6396C244.531 55.8931 244.582 56.0657 244.684 56.1574C244.787 56.2437 244.967 56.2868 245.226 56.2868H245.647V56.8693H245.032ZM248.437 56.9664C248.06 56.9664 247.72 56.8801 247.418 56.7075C247.116 56.5349 246.876 56.2922 246.698 55.9794C246.525 55.6611 246.439 55.289 246.439 54.8629C246.439 54.4368 246.528 54.0673 246.706 53.7545C246.884 53.4363 247.124 53.1909 247.426 53.0183C247.734 52.8457 248.076 52.7594 248.454 52.7594C248.831 52.7594 249.171 52.8457 249.473 53.0183C249.775 53.1909 250.012 53.4363 250.185 53.7545C250.363 54.0673 250.452 54.4368 250.452 54.8629C250.452 55.289 250.363 55.6611 250.185 55.9794C250.007 56.2922 249.764 56.5349 249.457 56.7075C249.155 56.8801 248.815 56.9664 248.437 56.9664ZM248.437 56.3839C248.669 56.3839 248.885 56.3273 249.085 56.214C249.284 56.1007 249.446 55.9308 249.57 55.7043C249.694 55.4778 249.756 55.1973 249.756 54.8629C249.756 54.5285 249.694 54.248 249.57 54.0215C249.451 53.795 249.292 53.6251 249.093 53.5118C248.893 53.3985 248.68 53.3419 248.454 53.3419C248.222 53.3419 248.006 53.3985 247.806 53.5118C247.607 53.6251 247.445 53.795 247.321 54.0215C247.197 54.248 247.135 54.5285 247.135 54.8629C247.135 55.1973 247.197 55.4778 247.321 55.7043C247.445 55.9308 247.604 56.1007 247.798 56.214C247.998 56.3273 248.211 56.3839 248.437 56.3839ZM251.541 58.6492V52.8565H252.156L252.221 53.5199C252.35 53.3257 252.534 53.1504 252.771 52.994C253.014 52.8376 253.321 52.7594 253.693 52.7594C254.093 52.7594 254.441 52.8511 254.737 53.0344C255.034 53.2178 255.263 53.4686 255.425 53.7869C255.592 54.1051 255.676 54.4665 255.676 54.871C255.676 55.2755 255.592 55.6369 255.425 55.9551C255.263 56.2679 255.031 56.516 254.729 56.6994C254.432 56.8774 254.085 56.9664 253.685 56.9664C253.356 56.9664 253.062 56.899 252.804 56.7641C252.55 56.6293 252.356 56.4405 252.221 56.1978V58.6492H251.541ZM253.613 56.3758C253.882 56.3758 254.12 56.3138 254.325 56.1897C254.529 56.0603 254.691 55.8823 254.81 55.6558C254.929 55.4292 254.988 55.1649 254.988 54.8629C254.988 54.5608 254.929 54.2966 254.81 54.07C254.691 53.8435 254.529 53.6682 254.325 53.5441C254.12 53.4147 253.882 53.35 253.613 53.35C253.343 53.35 253.106 53.4147 252.901 53.5441C252.696 53.6682 252.534 53.8435 252.415 54.07C252.297 54.2966 252.237 54.5608 252.237 54.8629C252.237 55.1649 252.297 55.4292 252.415 55.6558C252.534 55.8823 252.696 56.0603 252.901 56.1897C253.106 56.3138 253.343 56.3758 253.613 56.3758ZM258.23 56.9664C257.756 56.9664 257.378 56.8235 257.098 56.5376C256.817 56.2464 256.677 55.8014 256.677 55.2027V52.8565H257.357V55.1299C257.357 55.9659 257.699 56.3839 258.384 56.3839C258.735 56.3839 259.023 56.2598 259.25 56.0117C259.482 55.7582 259.598 55.3996 259.598 54.9357V52.8565H260.277V56.8693H259.663L259.614 56.1493C259.49 56.4028 259.304 56.6023 259.056 56.748C258.813 56.8936 258.538 56.9664 258.23 56.9664ZM261.54 58.6492V52.8565H262.155L262.22 53.5199C262.35 53.3257 262.533 53.1504 262.77 52.994C263.013 52.8376 263.32 52.7594 263.693 52.7594C264.092 52.7594 264.44 52.8511 264.736 53.0344C265.033 53.2178 265.262 53.4686 265.424 53.7869C265.591 54.1051 265.675 54.4665 265.675 54.871C265.675 55.2755 265.591 55.6369 265.424 55.9551C265.262 56.2679 265.03 56.516 264.728 56.6994C264.431 56.8774 264.084 56.9664 263.684 56.9664C263.355 56.9664 263.061 56.899 262.803 56.7641C262.549 56.6293 262.355 56.4405 262.22 56.1978V58.6492H261.54ZM263.612 56.3758C263.881 56.3758 264.119 56.3138 264.324 56.1897C264.529 56.0603 264.69 55.8823 264.809 55.6558C264.928 55.4292 264.987 55.1649 264.987 54.8629C264.987 54.5608 264.928 54.2966 264.809 54.07C264.69 53.8435 264.529 53.6682 264.324 53.5441C264.119 53.4147 263.881 53.35 263.612 53.35C263.342 53.35 263.105 53.4147 262.9 53.5441C262.695 53.6682 262.533 53.8435 262.414 54.07C262.296 54.2966 262.236 54.5608 262.236 54.8629C262.236 55.1649 262.296 55.4292 262.414 55.6558C262.533 55.8823 262.695 56.0603 262.9 56.1897C263.105 56.3138 263.342 56.3758 263.612 56.3758ZM269.051 56.8693V52.8565H269.666L269.706 53.5765C269.836 53.323 270.022 53.1234 270.264 52.9778C270.507 52.8322 270.782 52.7594 271.09 52.7594C271.564 52.7594 271.942 52.905 272.222 53.1963C272.508 53.4821 272.651 53.9244 272.651 54.5231V56.8693H271.971V54.5959C271.971 53.7599 271.626 53.3419 270.936 53.3419C270.591 53.3419 270.302 53.4686 270.07 53.7221C269.844 53.9702 269.73 54.3262 269.73 54.7901V56.8693H269.051ZM275.654 56.9664C275.276 56.9664 274.936 56.8801 274.634 56.7075C274.332 56.5349 274.092 56.2922 273.914 55.9794C273.742 55.6611 273.655 55.289 273.655 54.8629C273.655 54.4368 273.744 54.0673 273.922 53.7545C274.1 53.4363 274.34 53.1909 274.642 53.0183C274.95 52.8457 275.292 52.7594 275.67 52.7594C276.047 52.7594 276.387 52.8457 276.689 53.0183C276.991 53.1909 277.229 53.4363 277.401 53.7545C277.579 54.0673 277.668 54.4368 277.668 54.8629C277.668 55.289 277.579 55.6611 277.401 55.9794C277.223 56.2922 276.98 56.5349 276.673 56.7075C276.371 56.8801 276.031 56.9664 275.654 56.9664ZM275.654 56.3839C275.886 56.3839 276.101 56.3273 276.301 56.214C276.5 56.1007 276.662 55.9308 276.786 55.7043C276.91 55.4778 276.972 55.1973 276.972 54.8629C276.972 54.5285 276.91 54.248 276.786 54.0215C276.668 53.795 276.508 53.6251 276.309 53.5118C276.109 53.3985 275.896 53.3419 275.67 53.3419C275.438 53.3419 275.222 53.3985 275.023 53.5118C274.823 53.6251 274.661 53.795 274.537 54.0215C274.413 54.248 274.351 54.5285 274.351 54.8629C274.351 55.1973 274.413 55.4778 274.537 55.7043C274.661 55.9308 274.82 56.1007 275.014 56.214C275.214 56.3273 275.427 56.3839 275.654 56.3839ZM279.416 56.8693L278.243 52.8565H278.923L279.772 56.0036L280.711 52.8565H281.48L282.426 56.0036L283.268 52.8565H283.955L282.782 56.8693H282.086L281.099 53.5603L280.112 56.8693H279.416ZM284.809 56.9098C284.675 56.9098 284.561 56.8666 284.47 56.7803C284.383 56.6886 284.34 56.5781 284.34 56.4486C284.34 56.3192 284.383 56.2113 284.47 56.125C284.561 56.0333 284.675 55.9875 284.809 55.9875C284.939 55.9875 285.047 56.0333 285.133 56.125C285.225 56.2113 285.271 56.3192 285.271 56.4486C285.271 56.5781 285.225 56.6886 285.133 56.7803C285.047 56.8666 284.939 56.9098 284.809 56.9098Z"/></g><defs><clipPath id="clip0_101_5020"><rect width="96" height="96" fill="#fff"/></clipPath></defs></svg>