<svg xmlns="http://www.w3.org/2000/svg" width="16" height="16" fill="none" class="persona-icon" viewBox="0 0 16 16"><path fill="currentColor" fill-rule="evenodd" d="M2 3.722C2 2.772 2.771 2 3.722 2h6.111c.951 0 1.723.771 1.723 1.722v2.722a2.028 2.028 0 1 1-2.257 3.278H3.722A1.72 1.72 0 0 1 2 8zm7.004 3.552c.322-.544.89-.924 1.552-.987V3.722A.72.72 0 0 0 9.833 3h-6.11A.72.72 0 0 0 3 3.722V8c0 .399.323.722.722.722h.111v-.21c0-.403.174-.786.476-1.052.42-.368.959-.571 1.517-.571H7.73c.455 0 .898.135 1.274.385m-.282 1.448v-.21a.4.4 0 0 0-.136-.3 1.3 1.3 0 0 0-.856-.323H5.826c-.315 0-.62.115-.857.323a.4.4 0 0 0-.136.3v.21zM5.056 4.945a1.722 1.722 0 1 0 3.444 0 1.722 1.722 0 0 0-3.444 0m1.722-.723a.722.722 0 1 1 0 1.445.722.722 0 0 1 0-1.445m1.155 7.135a2.6 2.6 0 0 1 1.883-.801h1.868c.71 0 1.39.29 1.883.802A1.564 1.564 0 0 1 12.438 14l-3.376-.001a1.564 1.564 0 0 1-1.129-2.642m1.883.199a1.6 1.6 0 0 0-1.161.494.564.564 0 0 0 .408.95h3.375a.564.564 0 0 0 .407-.95 1.6 1.6 0 0 0-1.16-.495zm.934-4.278a1.028 1.028 0 1 0 0 2.055 1.028 1.028 0 0 0 0-2.055" clip-rule="evenodd"/></svg>