<svg xmlns="http://www.w3.org/2000/svg" width="16" height="16" fill="none" class="persona-icon" viewBox="0 0 16 16"><path fill="currentColor" fill-rule="evenodd" d="M5.056 4.945a1.722 1.722 0 1 1 3.444 0 1.722 1.722 0 0 1-3.444 0m1.722-.723a.722.722 0 1 0 0 1.445.722.722 0 0 0 0-1.445" clip-rule="evenodd"/><path fill="currentColor" fill-rule="evenodd" d="M3.501 2a1.5 1.5 0 0 0-1.5 1.5v4.722a1.5 1.5 0 0 0 1.5 1.5h5.797a2.028 2.028 0 1 0 2.258-3.277V3.5a1.5 1.5 0 0 0-1.5-1.5zm7.056 4.287a2.03 2.03 0 0 0-1.553.987 2.3 2.3 0 0 0-1.274-.385H5.826c-.558 0-1.097.203-1.516.572a1.4 1.4 0 0 0-.476 1.05v.211h-.333a.5.5 0 0 1-.5-.5V3.5a.5.5 0 0 1 .5-.5h6.556a.5.5 0 0 1 .5.5zM8.723 8.722H4.834v-.21c0-.115.05-.224.136-.3.237-.208.541-.323.857-.323H7.73c.316 0 .62.115.857.323a.4.4 0 0 1 .136.3zm2.026-1.444a1.028 1.028 0 1 1 0 2.055 1.028 1.028 0 0 1 0-2.055" clip-rule="evenodd"/><path fill="currentColor" fill-rule="evenodd" d="M9.816 10.556c-.71 0-1.39.29-1.883.802A1.564 1.564 0 0 0 9.062 14h3.376a1.564 1.564 0 0 0 1.129-2.642 2.6 2.6 0 0 0-1.883-.803zM9.062 13a.564.564 0 0 1-.407-.95 1.6 1.6 0 0 1 1.16-.495h1.87c.438 0 .857.18 1.16.495a.564.564 0 0 1-.408.95z" clip-rule="evenodd"/></svg>