<svg xmlns="http://www.w3.org/2000/svg" width="20" height="20" fill="none" class="persona-icon" viewBox="0 0 20 20"><path fill="currentColor" fill-rule="evenodd" d="M2.975 5.022c0-1.13.917-2.047 2.047-2.047h7.111c1.131 0 2.048.917 2.048 2.047v3.14a2.403 2.403 0 1 1-2.687 3.885H5.022A2.047 2.047 0 0 1 2.975 10zm6.917 8.855a3.08 3.08 0 0 1 2.22-.947h2.175c.839 0 1.641.342 2.222.947a1.863 1.863 0 0 1-1.345 3.148h-3.928a1.864 1.864 0 0 1-1.344-3.148m1.262-4.782a2.4 2.4 0 0 1 1.777-1.127V5.022a.797.797 0 0 0-.798-.797h-7.11a.797.797 0 0 0-.798.797V10c0 .44.357.797.797.797h.087v-.202c0-.48.207-.938.568-1.255a2.72 2.72 0 0 1 1.793-.676h2.216c.523 0 1.033.151 1.468.43m-.357 1.702v-.202a.42.42 0 0 0-.143-.316 1.47 1.47 0 0 0-.968-.365H7.47c-.356 0-.7.13-.968.365a.42.42 0 0 0-.143.316v.202zM13.2 9.203a1.153 1.153 0 1 0 0 2.305 1.153 1.153 0 0 0 0-2.305m-1.087 4.978a1.83 1.83 0 0 0-1.32.562.614.614 0 0 0 .443 1.032h3.928a.613.613 0 0 0 .443-1.032 1.83 1.83 0 0 0-1.32-.562zM6.53 6.444a2.047 2.047 0 1 1 4.094 0 2.047 2.047 0 0 1-4.094 0m2.047-.797a.797.797 0 1 0 0 1.595.797.797 0 0 0 0-1.595" clip-rule="evenodd"/></svg>