<svg xmlns="http://www.w3.org/2000/svg" width="20" height="20" fill="none" class="persona-icon" viewBox="0 0 20 20"><path fill="currentColor" fill-rule="evenodd" d="M6.556 6.444a2.022 2.022 0 1 1 4.045 0 2.022 2.022 0 0 1-4.045 0Zm2.022-.822a.822.822 0 1 0 0 1.645.822.822 0 0 0 0-1.645Z" clip-rule="evenodd"/><path fill="currentColor" fill-rule="evenodd" d="M4.8 3A1.8 1.8 0 0 0 3 4.8v5.422a1.8 1.8 0 0 0 1.8 1.8h6.705a2.378 2.378 0 1 0 2.651-3.845V4.8a1.8 1.8 0 0 0-1.8-1.8H4.801Zm8.156 4.99a2.378 2.378 0 0 0-1.793 1.14 2.692 2.692 0 0 0-1.477-.441H7.471c-.654 0-1.286.238-1.777.67-.356.312-.56.763-.56 1.236v.227h-.333a.6.6 0 0 1-.6-.6V4.8a.6.6 0 0 1 .6-.6h7.555a.6.6 0 0 1 .6.6v3.19Zm-2.284 2.27a.446.446 0 0 1 .151.335v.227H6.334v-.227c0-.128.056-.25.152-.335.272-.24.623-.371.985-.371h2.215c.363 0 .713.132.986.371ZM13.2 9.178a1.178 1.178 0 1 1 0 2.355 1.178 1.178 0 0 1 0-2.355Z" clip-rule="evenodd"/><path fill="currentColor" fill-rule="evenodd" d="M12.114 12.956c-.832 0-1.628.339-2.204.938A1.838 1.838 0 0 0 11.237 17h3.928a1.838 1.838 0 0 0 1.326-3.106 3.055 3.055 0 0 0-2.203-.938h-2.175Zm-.877 2.844a.638.638 0 0 1-.461-1.074c.35-.365.833-.57 1.338-.57h2.174c.505 0 .988.205 1.338.57a.638.638 0 0 1-.461 1.074h-3.928Z" clip-rule="evenodd"/></svg>