<svg xmlns="http://www.w3.org/2000/svg" width="24" height="24" fill="none" class="persona-icon" viewBox="0 0 24 24"><path fill="currentColor" fill-rule="evenodd" d="M7.583 7.417a2.583 2.583 0 1 1 5.167 0 2.583 2.583 0 0 1-5.167 0m2.583-1.084a1.083 1.083 0 1 0 0 2.167 1.083 1.083 0 0 0 0-2.167" clip-rule="evenodd"/><path fill="currentColor" fill-rule="evenodd" d="M5.25 3A2.25 2.25 0 0 0 3 5.25v7.083a2.25 2.25 0 0 0 2.25 2.25h8.698a3.042 3.042 0 1 0 3.385-4.917V5.25A2.25 2.25 0 0 0 15.083 3zm10.583 6.43a3.04 3.04 0 0 0-2.328 1.481 3.45 3.45 0 0 0-1.91-.578H8.739c-.838 0-1.646.305-2.276.858a2.1 2.1 0 0 0-.713 1.576v.316h-.5a.75.75 0 0 1-.75-.75V5.25a.75.75 0 0 1 .75-.75h9.833a.75.75 0 0 1 .75.75zm-2.75 3.653H7.25v-.316c0-.172.074-.336.204-.45a1.95 1.95 0 0 1 1.285-.484h2.856c.473 0 .93.173 1.285.485.13.113.203.277.203.45zm3.042-2.166a1.542 1.542 0 1 1 0 3.083 1.542 1.542 0 0 1 0-3.083" clip-rule="evenodd"/><path fill="currentColor" fill-rule="evenodd" d="M14.723 15.833a3.91 3.91 0 0 0-2.823 1.203 2.34 2.34 0 0 0-.65 1.617A2.346 2.346 0 0 0 13.594 21h5.062A2.346 2.346 0 0 0 21 18.653c0-.601-.233-1.182-.65-1.617a3.91 3.91 0 0 0-2.823-1.203zm-1.13 3.667a.846.846 0 0 1-.843-.847c0-.215.084-.423.232-.578a2.41 2.41 0 0 1 1.741-.742h2.804c.657 0 1.286.268 1.741.742a.84.84 0 0 1 .232.578c0 .468-.38.847-.844.847z" clip-rule="evenodd"/></svg>