<svg xmlns="http://www.w3.org/2000/svg" width="16" height="16" fill="none" class="persona-icon" viewBox="0 0 16 16"><path fill="currentColor" fill-rule="evenodd" d="M4.479 4.135c0-1.18.956-2.136 2.135-2.136h4.362c1.179 0 2.135.956 2.135 2.136v4.36c0 .991-.676 1.824-1.59 2.065v1.304c0 1.18-.956 2.135-2.135 2.135h-4.36a2.135 2.135 0 0 1-2.135-2.135v-4.36c0-.99.674-1.823 1.588-2.064zm1 0v.045h6.632v-.045c0-.627-.509-1.136-1.136-1.136h-4.36c-.628 0-1.136.508-1.136 1.136m6.632 1.045H5.479v.189h3.907c1.18 0 2.135.956 2.135 2.135v1.987c.352-.194.59-.567.59-.995zm-1.59 2.324c0-.627-.508-1.135-1.135-1.135h-4.36c-.627 0-1.135.508-1.135 1.135v.046h6.63zm0 1.046h-6.63v3.314c0 .627.508 1.135 1.135 1.135h4.36c.627 0 1.135-.508 1.135-1.135z" clip-rule="evenodd"/></svg>