<svg xmlns="http://www.w3.org/2000/svg" width="20" height="20" fill="none"><path fill="#000" fill-rule="evenodd" d="M8.411 4.183a1.38 1.38 0 0 0-1.38 1.38v.284h8.786v-.283a1.38 1.38 0 0 0-1.38-1.38H8.41Zm7.406 2.847h-2.068c.256.399.403.873.403 1.38v4.56h.284a1.38 1.38 0 0 0 1.38-1.38V7.03Zm-1.665 7.123h.284A2.564 2.564 0 0 0 17 11.589V5.564A2.564 2.564 0 0 0 14.436 3H8.411a2.564 2.564 0 0 0-2.564 2.564v.283h-.283A2.564 2.564 0 0 0 3 8.411v6.025A2.564 2.564 0 0 0 5.564 17h6.025a2.564 2.564 0 0 0 2.563-2.564v-.283ZM5.565 7.03a1.38 1.38 0 0 0-1.38 1.38v.286h8.785v-.285a1.38 1.38 0 0 0-1.38-1.38H5.564Zm7.405 2.85H4.183v4.556c0 .763.618 1.38 1.38 1.38h6.026a1.38 1.38 0 0 0 1.38-1.38V9.88Z" clip-rule="evenodd"/></svg>