<svg xmlns="http://www.w3.org/2000/svg" width="24" height="24" fill="none"><path fill="#000" fill-rule="evenodd" d="M9.949 3.538A2.308 2.308 0 0 0 7.64 5.846v.257h12.82v-.257a2.308 2.308 0 0 0-2.307-2.308H9.949Zm10.513 4.103h-3.334a3.83 3.83 0 0 1 .77 2.308v6.41h.256a2.308 2.308 0 0 0 2.308-2.308v-6.41Zm-2.565 10.256h.257A3.846 3.846 0 0 0 22 14.051V5.846A3.846 3.846 0 0 0 18.154 2H9.949a3.846 3.846 0 0 0-3.846 3.846v.257h-.257A3.846 3.846 0 0 0 2 9.949v8.205A3.846 3.846 0 0 0 5.846 22h8.205a3.846 3.846 0 0 0 3.846-3.846v-.257ZM5.847 7.641a2.308 2.308 0 0 0-2.309 2.308v.256H16.36V9.95a2.308 2.308 0 0 0-2.308-2.308H5.846Zm10.512 4.103H3.539v6.41a2.308 2.308 0 0 0 2.307 2.308h8.205a2.308 2.308 0 0 0 2.308-2.308v-6.41Z" clip-rule="evenodd"/></svg>