<svg xmlns="http://www.w3.org/2000/svg" width="24" height="24" fill="none" class="persona-icon" viewBox="0 0 24 24"><path fill="currentColor" d="M17.897 17.897h.257A3.846 3.846 0 0 0 22 14.051V5.846A3.846 3.846 0 0 0 18.154 2H9.949a3.846 3.846 0 0 0-3.846 3.846v.257h-.257A3.846 3.846 0 0 0 2 9.949v8.205A3.846 3.846 0 0 0 5.846 22h8.205a3.846 3.846 0 0 0 3.846-3.846v-.257ZM5.847 7.641h8.204a2.308 2.308 0 0 1 2.308 2.308v.256H3.539V9.95A2.308 2.308 0 0 1 5.845 7.64Zm10.512 4.103v6.41a2.308 2.308 0 0 1-2.308 2.308H5.846a2.308 2.308 0 0 1-2.308-2.308v-6.41H16.36Zm-6.41-8.206h8.205a2.308 2.308 0 0 1 2.308 2.308v.257H7.64v-.257a2.308 2.308 0 0 1 2.308-2.308Zm10.513 4.103v6.41a2.308 2.308 0 0 1-2.308 2.308h-.257v-6.41a3.83 3.83 0 0 0-.768-2.308h3.332Z"/></svg>