<svg xmlns="http://www.w3.org/2000/svg" width="32" height="32" fill="none" class="persona-icon" viewBox="0 0 32 32"><path fill="currentColor" fill-rule="evenodd" d="M23.669 23.67h.333a5 5 0 0 0 5-5V8.001a5 5 0 0 0-5-5H13.336a5 5 0 0 0-5 5v.334h-.334a5 5 0 0 0-5 5v10.667a5 5 0 0 0 5 5H18.67a5 5 0 0 0 5-5zM8.002 10.335H18.67a3 3 0 0 1 3 3v.333H5.002v-.333a3 3 0 0 1 3-3m13.667 5.333v8.334a3 3 0 0 1-3 3H8.002a3 3 0 0 1-3-3v-8.334zM13.336 5.002h10.666a3 3 0 0 1 3 3v.334H10.336v-.334a3 3 0 0 1 3-3m13.666 5.334v8.333a3 3 0 0 1-3 3h-.333v-8.333a4.98 4.98 0 0 0-1-3z" clip-rule="evenodd"/></svg>