<svg xmlns="http://www.w3.org/2000/svg" width="32" height="32" fill="none" class="persona-icon" viewBox="0 0 32 32"><path fill="currentColor" fill-rule="evenodd" d="M8.958 8.269a4.27 4.27 0 0 1 4.271-4.271h8.722a4.27 4.27 0 0 1 4.271 4.27v8.723a4.275 4.275 0 0 1-3.18 4.13v2.607a4.27 4.27 0 0 1-4.27 4.27h-8.72a4.27 4.27 0 0 1-4.27-4.27v-8.72a4.27 4.27 0 0 1 3.176-4.129zm12.084 6.739a2.27 2.27 0 0 0-2.27-2.27h-8.72a2.27 2.27 0 0 0-2.27 2.27v.09h13.26zm0 2.09H7.782v6.63a2.27 2.27 0 0 0 2.27 2.27h8.72a2.27 2.27 0 0 0 2.27-2.27zm-10.084-8.83v.091h13.264v-.092a2.27 2.27 0 0 0-2.27-2.27h-8.723a2.27 2.27 0 0 0-2.27 2.272m13.264 2.091H10.958v.379h7.815a4.27 4.27 0 0 1 4.27 4.27v3.973a2.27 2.27 0 0 0 1.18-1.99z" clip-rule="evenodd"/></svg>