<svg xmlns="http://www.w3.org/2000/svg" width="16" height="16" fill="none" class="persona-icon" viewBox="0 0 16 16"><path fill="currentColor" d="M13.5 2h-11a.5.5 0 0 0-.5.5v3.667a.5.5 0 0 0 .5.5h11a.5.5 0 0 0 .5-.5V2.5a.5.5 0 0 0-.5-.5M7.389 7.5H2.5A.5.5 0 0 0 2 8v1.833a.5.5 0 0 0 .5.5h4.889a.5.5 0 0 0 .5-.5V8a.5.5 0 0 0-.5-.5M9.222 7.5a.5.5 0 0 0-.5.5v5.5a.5.5 0 0 0 .5.5H13.5a.5.5 0 0 0 .5-.5V8a.5.5 0 0 0-.5-.5zM2.5 11.167a.5.5 0 0 0-.5.5V13.5a.5.5 0 0 0 .5.5h4.889a.5.5 0 0 0 .5-.5v-1.833a.5.5 0 0 0-.5-.5z"/></svg>