<svg xmlns="http://www.w3.org/2000/svg" width="16" height="16" fill="none" class="persona-icon" viewBox="0 0 16 16"><path fill="currentColor" fill-rule="evenodd" d="M6.955 6.247c.344-.723.41-1.434.214-2.073-.224-.735-.77-1.302-1.465-1.65l-.218.438.218-.437c-.444-.223-1.165-.443-1.92-.517a1.613 1.613 0 0 0-1.776 1.775c.074.756.294 1.477.517 1.921.347.695.914 1.241 1.65 1.465.638.195 1.35.13 2.072-.215L7.293 8l-5.146 5.146a.5.5 0 1 0 .707.707l7.02-7.02c.86.54 2.009.436 2.757-.313l1.223-1.222a.5.5 0 1 0-.707-.707l-1.223 1.222c-.354.354-.87.447-1.308.279l2.024-2.025a.5.5 0 0 0-.707-.707L9.908 5.385a1.23 1.23 0 0 1 .279-1.31l1.222-1.221a.5.5 0 0 0-.707-.707L9.48 3.369a2.23 2.23 0 0 0-.314 2.758L8 7.293zM3.686 3.003c.646.063 1.246.253 1.571.416l.224-.447-.224.447c.497.248.826.62.956 1.047.12.391.09.892-.227 1.481l-.039.039c-.589.317-1.09.346-1.481.227-.427-.13-.799-.46-1.047-.956-.163-.325-.353-.925-.416-1.57a.613.613 0 0 1 .683-.684m5.488 6.171a.5.5 0 0 1 .707 0l3.973 3.973a.5.5 0 1 1-.707.707L9.174 9.88a.5.5 0 0 1 0-.707" clip-rule="evenodd"/></svg>