<svg xmlns="http://www.w3.org/2000/svg" width="16" height="16" fill="none" class="persona-icon" viewBox="0 0 16 16"><path fill="currentColor" fill-rule="evenodd" d="M6.882 7.653c-.737.346-1.463.41-2.118.21-.761-.232-1.346-.797-1.704-1.512-.229-.458-.455-1.197-.53-1.972a1.68 1.68 0 0 1 1.849-1.85c.775.076 1.514.302 1.972.531.715.358 1.28.943 1.513 1.704.2.655.135 1.381-.211 2.118l.779.779a.55.55 0 0 1 .079.1l1.104-1.105a2.26 2.26 0 0 1 .338-2.763l1.213-1.212a.545.545 0 1 1 .77.772l-1.211 1.212a1.168 1.168 0 0 0-.29 1.171l1.951-1.951a.545.545 0 1 1 .771.771l-1.951 1.952c.4.123.855.027 1.172-.29l1.212-1.213a.545.545 0 0 1 .771.772L13.15 7.089a2.26 2.26 0 0 1-2.763.339L3.452 14.36a.545.545 0 1 1-.771-.77L7.76 8.51a.547.547 0 0 1-.1-.079l-.778-.779Zm-3.267-3.38c.064.655.257 1.263.42 1.59.25.5.623.828 1.047.957.347.106.783.096 1.295-.135a.545.545 0 0 1 .308-.308c.23-.512.24-.948.135-1.295-.13-.424-.458-.796-.957-1.046-.328-.164-.935-.357-1.59-.42a.59.59 0 0 0-.658.657Z" clip-rule="evenodd"/><path fill="currentColor" d="M9.772 9.772a.545.545 0 0 0 0 .771l3.818 3.819a.545.545 0 0 0 .771-.772l-3.818-3.818a.545.545 0 0 0-.771 0Z"/></svg>