<svg xmlns="http://www.w3.org/2000/svg" width="20" height="20" fill="none" class="persona-icon" viewBox="0 0 20 20"><path fill="currentColor" fill-rule="evenodd" d="M8.835 7.951 10 9.116l1.302-1.302a2.64 2.64 0 0 1 .39-3.234l1.422-1.422a.625.625 0 1 1 .883.884l-1.422 1.422a1.39 1.39 0 0 0-.337 1.414l2.308-2.308a.625.625 0 0 1 .883.884l-2.307 2.307c.481.158 1.031.046 1.414-.336l1.422-1.423a.625.625 0 1 1 .884.884L15.42 8.308a2.64 2.64 0 0 1-3.234.39l-8.144 8.144a.625.625 0 0 1-.884-.884L9.116 10 7.952 8.835c-.84.394-1.67.468-2.417.24-.869-.265-1.537-.91-1.945-1.727l.559-.28-.56.28c-.26-.523-.518-1.366-.604-2.25a1.92 1.92 0 0 1 2.112-2.113c.885.086 1.728.343 2.25.605l-.279.559.28-.56C8.165 4 8.81 4.667 9.075 5.536c.228.748.154 1.576-.24 2.416m2.5 3.385a.625.625 0 0 1 .884 0l4.623 4.622a.625.625 0 0 1-.884.884l-4.622-4.622a.625.625 0 0 1 0-.884M4.977 4.229a.67.67 0 0 0-.747.747c.072.747.292 1.44.479 1.813.284.569.709.943 1.192 1.09.441.135 1.01.104 1.684-.257l.038-.038c.361-.674.392-1.243.257-1.684-.147-.483-.521-.908-1.09-1.192-.373-.187-1.066-.407-1.813-.48" clip-rule="evenodd"/></svg>