<svg xmlns="http://www.w3.org/2000/svg" width="24" height="24" fill="none" class="persona-icon" viewBox="0 0 24 24"><path fill="currentColor" fill-rule="evenodd" d="M10.432 9.37c.517-1.083.614-2.15.322-3.109-.336-1.103-1.156-1.953-2.197-2.474-.668-.334-1.748-.664-2.882-.775a2.42 2.42 0 0 0-2.663 2.663c.11 1.134.441 2.214.775 2.881.52 1.042 1.371 1.862 2.474 2.198.959.292 2.026.195 3.11-.322L10.94 12l-7.72 7.72a.75.75 0 0 0 1.061 1.06l10.53-10.53c1.29.81 3.014.653 4.137-.47l1.833-1.833a.75.75 0 0 0-1.06-1.06L17.886 8.72c-.53.53-1.304.67-1.963.417l3.037-3.036a.75.75 0 1 0-1.061-1.06l-3.036 3.036a1.84 1.84 0 0 1 .418-1.963l1.833-1.834a.75.75 0 0 0-1.06-1.06L14.22 5.053a3.344 3.344 0 0 0-.47 4.137L12 10.94zm3.33 4.391a.75.75 0 0 1 1.06 0l5.958 5.959a.75.75 0 0 1-1.06 1.06l-5.959-5.958a.75.75 0 0 1 0-1.06M5.528 4.505c.97.095 1.869.38 2.357.623.744.373 1.238.93 1.433 1.57.18.588.136 1.34-.34 2.223a1 1 0 0 0-.058.058c-.884.476-1.635.52-2.222.34-.64-.195-1.198-.689-1.57-1.434-.244-.487-.53-1.387-.624-2.356A.92.92 0 0 1 5.53 4.505" clip-rule="evenodd"/></svg>