<svg xmlns="http://www.w3.org/2000/svg" width="24" height="24" fill="none" class="persona-icon" viewBox="0 0 24 24"><path fill="currentColor" fill-rule="evenodd" d="M9.073 9.753c-1.216.562-2.408.668-3.474.36C4.387 9.76 3.45 8.903 2.873 7.81c-.369-.701-.737-1.841-.86-3.04C1.85 3.168 3.23 1.857 4.916 2.013c1.261.116 2.462.466 3.2.816 1.152.547 2.053 1.438 2.423 2.59.325 1.013.213 2.145-.378 3.3L12 10.466l2.046-1.943c-.922-1.351-.76-3.176.487-4.36l2.051-1.949a.798.798 0 0 1 1.088 0c.3.285.3.748 0 1.034l-2.051 1.948a1.952 1.952 0 0 0-.443 2.251L18.65 4.15a.798.798 0 0 1 1.087 0c.3.286.3.748 0 1.034L16.266 8.48a2.216 2.216 0 0 0 2.37-.42l2.05-1.95a.798.798 0 0 1 1.089 0c.3.286.3.748 0 1.034l-2.052 1.949c-1.246 1.184-3.167 1.338-4.589.462l-11.82 11.23a.798.798 0 0 1-1.089 0 .705.705 0 0 1 0-1.034l8.687-8.252zM3.545 4.629c.106 1.036.427 2 .704 2.527.424.805 1.062 1.344 1.8 1.558.68.197 1.543.146 2.55-.373a.712.712 0 0 1 .076-.072c.546-.957.6-1.777.393-2.423-.225-.701-.793-1.307-1.64-1.71-.554-.263-1.57-.568-2.661-.669-.723-.067-1.293.475-1.223 1.162" clip-rule="evenodd"/><path fill="currentColor" d="M13.507 12.932c-.3.285-.3.748 0 1.033l7.18 6.821c.3.285.787.285 1.088 0 .3-.285.3-.748 0-1.033l-7.18-6.821a.798.798 0 0 0-1.088 0"/></svg>