<svg xmlns="http://www.w3.org/2000/svg" width="20" height="20" fill="none" class="persona-icon" viewBox="0 0 20 20"><path fill="currentColor" fill-rule="evenodd" d="M6.914 3.682a1.69 1.69 0 0 0-1.689 1.69v9.257c0 .933.756 1.69 1.69 1.69h1.924a.625.625 0 1 1 0 1.25H6.914a2.94 2.94 0 0 1-2.939-2.94V5.372a2.94 2.94 0 0 1 2.94-2.94h3.494c.601 0 1.175.25 1.585.69l3.448 3.693c.375.401.583.93.583 1.48v1.928a.625.625 0 1 1-1.25 0V8.311h-2.46a2.17 2.17 0 0 1-2.168-2.168v-2.46zm2.461 10.071a2.877 2.877 0 1 1 5.305 1.544l1.767 1.767a.625.625 0 1 1-.884.884l-1.767-1.767a2.877 2.877 0 0 1-4.42-2.428m2.877-1.626a1.627 1.627 0 1 0 0 3.253 1.627 1.627 0 0 0 0-3.254m-.856-7.815v1.831c0 .507.411.918.918.918h1.648z" clip-rule="evenodd"/></svg>