<svg xmlns="http://www.w3.org/2000/svg" width="24" height="24" fill="none" class="persona-icon" viewBox="0 0 24 24"><path fill="currentColor" fill-rule="evenodd" d="M7.889 3.5a2.333 2.333 0 0 0-2.333 2.333v12.334A2.333 2.333 0 0 0 7.889 20.5h2.564a.75.75 0 0 1 0 1.5H7.89a3.833 3.833 0 0 1-3.833-3.833V5.833A3.833 3.833 0 0 1 7.889 2h4.657c.777 0 1.52.323 2.05.891l4.594 4.922c.485.52.754 1.203.754 1.914v2.57a.75.75 0 0 1-1.5 0v-2.63h-3.36a2.806 2.806 0 0 1-2.806-2.806V3.5zM11.25 17a3.75 3.75 0 1 1 6.879 2.068l2.401 2.402a.75.75 0 1 1-1.06 1.06l-2.402-2.401A3.75 3.75 0 0 1 11.25 17m2.528-12.788v2.65c0 .72.584 1.305 1.305 1.305h2.386zM15 14.75a2.25 2.25 0 1 0 0 4.5 2.25 2.25 0 0 0 0-4.5" clip-rule="evenodd"/></svg>