<svg xmlns="http://www.w3.org/2000/svg" width="32" height="32" fill="none" class="persona-icon"><path fill="currentColor" d="M7.535 8.002c0-1.657 1.364-3 3.048-3h5.758v4.334c0 2.025 1.668 3.666 3.726 3.666h4.402v5.667c0 .552.456 1 1.017 1 .561 0 1.016-.448 1.016-1v-5.616c0-.928-.358-1.823-1.002-2.501l-6.055-6.385a3.754 3.754 0 0 0-2.724-1.165h-6.138c-2.806 0-5.08 2.239-5.08 5v16c0 2.762 2.274 5 5.08 5h4.064c.562 0 1.017-.447 1.017-1 0-.552-.455-1-1.017-1h-4.064c-1.684 0-3.048-1.343-3.048-3v-16Zm10.838 1.334v-2.92l4.66 4.586h-2.966c-.936 0-1.694-.746-1.694-1.666Z"/><path fill="currentColor" d="M15.002 22.217a4.214 4.214 0 1 1 7.817 2.188l2.89 2.89a1 1 0 0 1-1.414 1.414l-2.89-2.89a4.214 4.214 0 0 1-6.402-3.602Zm4.214-2.215a2.214 2.214 0 1 0 0 4.429 2.214 2.214 0 0 0 0-4.429Z"/></svg>