<svg xmlns="http://www.w3.org/2000/svg" width="16" height="16" fill="none" class="persona-icon" viewBox="0 0 16 16"><path fill="currentColor" fill-rule="evenodd" d="M4.611 4.389a3.389 3.389 0 1 1 6.778 0 3.389 3.389 0 0 1-6.778 0M8 2a2.389 2.389 0 1 0 0 4.778A2.389 2.389 0 0 0 8 2M3.095 10.571A4.474 4.474 0 0 1 6.5 9h.071c.107 0 .211.035.297.1L8 9.95l1.133-.85c.086-.065.19-.1.297-.1h.071c1.31 0 2.554.574 3.404 1.571.384.45.595 1.023.595 1.615v.172A2.641 2.641 0 0 1 10.86 15H5.14a2.641 2.641 0 0 1-2.64-2.642v-.172c0-.592.211-1.165.595-1.615m3.312-.579a3.484 3.484 0 0 0-2.559 1.222c-.231.271-.358.616-.358.972v.172a1.65 1.65 0 0 0 1.65 1.651h5.72c.911 0 1.65-.74 1.65-1.651v-.172c0-.356-.127-.7-.358-.972a3.484 3.484 0 0 0-2.559-1.222l-1.123.843.363.601a.496.496 0 0 1 0 .564l-.488.777a.496.496 0 0 1-.827 0L7.029 12a.496.496 0 0 1 0-.564l.41-.669z" clip-rule="evenodd"/></svg>