<svg xmlns="http://www.w3.org/2000/svg" width="16" height="16" fill="none" class="persona-icon" viewBox="0 0 16 16"><path fill="currentColor" fill-rule="evenodd" d="m8 9.526.938-.704a.5.5 0 0 1 .3-.1H9.3c1.154 0 2.251.506 3 1.384.344.403.533.915.533 1.444v.172a2.333 2.333 0 0 1-2.333 2.334h-5a2.333 2.333 0 0 1-2.333-2.334v-.172c0-.53.188-1.041.532-1.444A3.95 3.95 0 0 1 6.7 8.722h.062a.5.5 0 0 1 .3.1zM5.055 4.944a2.944 2.944 0 1 1 5.89 0 2.944 2.944 0 0 1-5.89 0m1.543 4.78c-.825.029-1.601.402-2.139 1.031a1.22 1.22 0 0 0-.292.795v.172c0 .737.596 1.334 1.333 1.334h2.186a1 1 0 0 1-.055-.051l-.305-.334a.5.5 0 0 1-.125-.418l.3-1.852zm1.901.677.3 1.852a.5.5 0 0 1-.125.418l-.306.334a1 1 0 0 1-.054.05H10.5c.736 0 1.333-.596 1.333-1.333v-.172c0-.292-.104-.573-.293-.795a2.95 2.95 0 0 0-2.138-1.031zM8 3a1.945 1.945 0 1 0 0 3.889A1.945 1.945 0 0 0 8 3" clip-rule="evenodd"/></svg>