<svg xmlns="http://www.w3.org/2000/svg" width="32" height="32" fill="none" class="persona-icon" viewBox="0 0 32 32"><path fill="currentColor" fill-rule="evenodd" d="M10.111 9.889a5.889 5.889 0 1 1 11.778 0 5.889 5.889 0 0 1-11.778 0m5.89 9.163 1.875-1.408a1 1 0 0 1 .6-.2h.123a7.9 7.9 0 0 1 6.003 2.768 4.45 4.45 0 0 1 1.065 2.887v.345A4.667 4.667 0 0 1 21 28.111H11a4.667 4.667 0 0 1-4.666-4.667V23.1c0-1.058.377-2.082 1.064-2.887a7.9 7.9 0 0 1 6.003-2.768h.123a1 1 0 0 1 .6.2zM16 6a3.889 3.889 0 1 0 0 7.778A3.889 3.889 0 0 0 16 6m.998 14.802.6 3.705a1 1 0 0 1-.25.835l-.612.667a1 1 0 0 1-.108.102H21a2.667 2.667 0 0 0 2.667-2.667V23.1c0-.582-.208-1.145-.586-1.588a5.9 5.9 0 0 0-4.276-2.063zm-3.804-1.354a5.9 5.9 0 0 0-4.276 2.063 2.45 2.45 0 0 0-.585 1.588v.345A2.667 2.667 0 0 0 11 26.111h4.371a1 1 0 0 1-.108-.102l-.611-.667a1 1 0 0 1-.25-.835l.6-3.705z" clip-rule="evenodd"/></svg>