<svg xmlns="http://www.w3.org/2000/svg" width="32" height="32" fill="none"><path fill="#000" fill-rule="evenodd" d="M17.667 5.333A2.333 2.333 0 0 1 20 3h6.667A2.333 2.333 0 0 1 29 5.333V12a2.333 2.333 0 0 1-2.333 2.333H20A2.333 2.333 0 0 1 17.667 12V5.333ZM20 5a.333.333 0 0 0-.333.333V12c0 .184.149.333.333.333h6.667c.184 0 .333-.149.333-.333V5.333A.333.333 0 0 0 26.667 5H20ZM17.667 20A2.333 2.333 0 0 1 20 17.667h6.667A2.333 2.333 0 0 1 29 20v6.667A2.333 2.333 0 0 1 26.667 29H20a2.333 2.333 0 0 1-2.333-2.333V20ZM20 19.667a.333.333 0 0 0-.333.333v6.667c0 .184.149.333.333.333h6.667c.184 0 .333-.15.333-.333V20a.333.333 0 0 0-.333-.333H20ZM3 20a2.333 2.333 0 0 1 2.333-2.333H12A2.333 2.333 0 0 1 14.333 20v6.667A2.333 2.333 0 0 1 12 29H5.333A2.333 2.333 0 0 1 3 26.667V20Zm2.333-.333A.333.333 0 0 0 5 20v6.667c0 .184.15.333.333.333H12c.184 0 .333-.15.333-.333V20a.333.333 0 0 0-.333-.333H5.333ZM3 5.333A2.333 2.333 0 0 1 5.333 3H12a2.333 2.333 0 0 1 2.333 2.333V12A2.333 2.333 0 0 1 12 14.333H5.333A2.333 2.333 0 0 1 3 12V5.333ZM5.333 5A.333.333 0 0 0 5 5.333V12c0 .184.15.333.333.333H12c.184 0 .333-.149.333-.333V5.333A.333.333 0 0 0 12 5H5.333Z" clip-rule="evenodd"/></svg>