<svg xmlns="http://www.w3.org/2000/svg" width="32" height="32" fill="none"><path fill="#000" d="M5 8a3 3 0 0 1 3-3h3.5a1 1 0 1 0 0-2H8a5 5 0 0 0-5 5v3.5a1 1 0 1 0 2 0V8ZM20.5 3a1 1 0 1 0 0 2H24a3 3 0 0 1 3 3v3.5a1 1 0 1 0 2 0V8a5 5 0 0 0-5-5h-3.5ZM4.018 20.334a1.1 1.1 0 0 0-.036 0H2.047c-.578 0-1.047.447-1.047 1 0 .552.469 1 1.047 1H3V24a5 5 0 0 0 5 5h3.5a1 1 0 1 0 0-2H8a3 3 0 0 1-3-3v-1.666h5.111c-.155.244-.324.495-.508.754a1 1 0 1 0 1.627 1.162c.476-.665.869-1.303 1.192-1.916h1.54c-.072.196-.149.393-.226.584-.278.682-.515 1.143-.614 1.271a1 1 0 0 0 1.582 1.224c.292-.377.62-1.09.884-1.742.175-.43.347-.895.492-1.337h1.71a9.962 9.962 0 0 1-.811 1.982 1 1 0 0 0 1.749.97c.531-.958.88-1.966 1.14-2.953h1.723c-.127.419-.274.848-.456 1.293a1 1 0 1 0 1.852.755c.297-.727.511-1.41.684-2.047H27V24a3 3 0 0 1-3 3h-3.5a1 1 0 1 0 0 2H24a5 5 0 0 0 5-5v-1.666h.953c.579 0 1.047-.448 1.047-1 0-.553-.468-1-1.047-1H23.16l-.022-.006a.995.995 0 0 0-.492.006h-3.298a.996.996 0 0 0-.514 0h-3.23l-.002-.001a.996.996 0 0 0-.512 0h-3.013a.996.996 0 0 0-.514 0H4.018ZM13.37 6.75a8.057 8.057 0 0 1 8.627 1.81c.398.398.766.835 1.091 1.303a1 1 0 0 1-1.643 1.14 7.557 7.557 0 0 0-.862-1.03 6.059 6.059 0 0 0-6.486-1.36 1 1 0 1 1-.728-1.862ZM12.015 8.56a1 1 0 0 1 0 1.414 6.058 6.058 0 0 0-1.774 4.278c.004.407.023.77.042 1.126l.005.096c.02.382.038.771.029 1.167a6.89 6.89 0 0 1-.104 1.062 1 1 0 0 1-1.97-.354c.047-.254.068-.5.074-.757a13.38 13.38 0 0 0-.026-1.014l-.006-.1c-.018-.354-.04-.756-.044-1.209v-.011c0-2.138.848-4.187 2.36-5.699a1 1 0 0 1 1.414 0Z"/><path fill="#000" d="M14.566 10.073a4.53 4.53 0 0 1 1.733-.345c.891 0 1.673.314 2.264.664a5.313 5.313 0 0 1 1.344 1.128 4.53 4.53 0 0 1 .921 2.732c.008.655.011 1.48-.027 2.406-.013.303-.03.616-.053.939a1 1 0 0 1-1.995-.142c.022-.301.038-.595.05-.88a42.88 42.88 0 0 0 .025-2.306v-.011a2.529 2.529 0 0 0-.5-1.51c-.13-.15-.41-.412-.787-.636-.389-.232-.818-.384-1.242-.384a2.53 2.53 0 0 0-2.337 1.562 1 1 0 0 1-1.848-.766 4.53 4.53 0 0 1 2.452-2.45ZM23.233 12.108a1 1 0 0 1 1.18.78c.002.013.01.04.023.081.066.21.24.77.248 1.416l.004.316a44.84 44.84 0 0 1-.004 1.945c-.01.307-.024.623-.047.95a1 1 0 0 1-1.995-.14c.02-.297.034-.586.043-.869.019-.645.01-1.249.003-1.852a176.1 176.1 0 0 1-.004-.327 1.95 1.95 0 0 0-.065-.514c-.015-.057-.03-.104-.05-.167l-.023-.078a3.937 3.937 0 0 1-.093-.361 1 1 0 0 1 .78-1.18Z"/><path fill="#000" d="M16.222 13.26a1 1 0 0 1 1.074.921c.051.667.069 1.524.025 2.482-.014.306-.034.623-.062.948a1 1 0 1 1-1.993-.17c.026-.298.044-.589.057-.87.04-.883.023-1.658-.021-2.237a1 1 0 0 1 .92-1.073ZM12.79 14.83a1 1 0 0 1 1.028.97c.008.265.013.54.012.821-.001.314-.01.638-.034.974a1 1 0 0 1-1.995-.138c.02-.285.028-.565.03-.845 0-.251-.004-.501-.012-.752a1 1 0 0 1 .97-1.03Z"/></svg>