<svg xmlns="http://www.w3.org/2000/svg" width="32" height="32" fill="none"><path fill="#000" fill-rule="evenodd" d="M24.011 3.038c1.175-.167 2.437.2 3.594 1.358 1.156 1.156 1.524 2.418 1.357 3.593-.16 1.115-.781 2.018-1.357 2.594L16.148 22.04a1 1 0 0 1-.708.293h-4.773a1 1 0 0 1-1-1V16.56a1 1 0 0 1 .293-.707L21.417 4.395c.576-.577 1.48-1.198 2.594-1.358Zm.283 1.98c-.556.08-1.084.413-1.463.792l-.47.47 3.36 3.36.47-.47c.378-.38.711-.908.79-1.464.071-.496-.038-1.143-.79-1.896-.753-.753-1.401-.863-1.897-.792Zm.012 6.035-3.36-3.359-9.28 9.28v3.36h3.36l9.28-9.28Z" clip-rule="evenodd"/><path fill="#000" d="M8 5a3 3 0 0 0-3 3v16a3 3 0 0 0 3 3h16a3 3 0 0 0 3-3v-8a1 1 0 1 1 2 0v8a5 5 0 0 1-5 5H8a5 5 0 0 1-5-5V8a5 5 0 0 1 5-5h8a1 1 0 1 1 0 2H8Z"/></svg>