<svg xmlns="http://www.w3.org/2000/svg" width="16" height="16" fill="none" class="persona-icon" viewBox="0 0 16 16"><path fill="currentColor" fill-rule="evenodd" d="M2 3.167C2 2.522 2.522 2 3.167 2H6.11c.644 0 1.167.522 1.167 1.167V6.11c0 .644-.523 1.167-1.167 1.167H3.167A1.167 1.167 0 0 1 2 6.11zm0 6.722c0-.644.522-1.167 1.167-1.167H6.11c.644 0 1.167.523 1.167 1.167v2.944c0 .645-.523 1.167-1.167 1.167H3.167A1.167 1.167 0 0 1 2 12.833zm6.722-6.722C8.722 2.522 9.245 2 9.89 2h2.944C13.478 2 14 2.522 14 3.167V6.11c0 .644-.522 1.167-1.167 1.167H9.89A1.167 1.167 0 0 1 8.722 6.11zm.5 5.555a.5.5 0 0 1 .5.5v1.028h1.334a.5.5 0 0 1 .5.5v1.028h.416a.5.5 0 1 1 0 1h-.916a.5.5 0 0 1-.5-.5V11.25H9.222a.5.5 0 0 1-.5-.5V9.222a.5.5 0 0 1 .5-.5m0 3.056a.5.5 0 0 1 .5.5v.555c0 .092.075.167.167.167h.556a.5.5 0 0 1 0 1h-.556a1.167 1.167 0 0 1-1.167-1.167v-.555a.5.5 0 0 1 .5-.5m1.028-2.556a.5.5 0 0 1 .5-.5h2.083c.645 0 1.167.523 1.167 1.167v1.472a.5.5 0 0 1-1 0v-.035h-.417a.5.5 0 0 1 0-1H13V9.89a.167.167 0 0 0-.167-.167H10.75a.5.5 0 0 1-.5-.5m3.25 3.167a.5.5 0 0 1 .5.5c0 .614-.498 1.111-1.111 1.111h-.611a.5.5 0 1 1 0-1h.61c.062 0 .112-.05.112-.111a.5.5 0 0 1 .5-.5M3.167 3A.167.167 0 0 0 3 3.167V6.11c0 .092.075.167.167.167H6.11a.167.167 0 0 0 .167-.167V3.167A.167.167 0 0 0 6.11 3zm0 6.722A.167.167 0 0 0 3 9.89v2.944c0 .092.075.167.167.167H6.11a.167.167 0 0 0 .167-.167V9.89a.167.167 0 0 0-.167-.167zM9.889 3a.167.167 0 0 0-.167.167V6.11c0 .092.075.167.167.167h2.944A.167.167 0 0 0 13 6.11V3.167A.167.167 0 0 0 12.833 3z" clip-rule="evenodd"/></svg>