<svg xmlns="http://www.w3.org/2000/svg" width="16" height="16" fill="none" class="persona-icon" viewBox="0 0 16 16"><path fill="currentColor" fill-rule="evenodd" d="M2 2.5a.5.5 0 0 1 .5-.5h4.278a.5.5 0 0 1 .5.5v4.278a.5.5 0 0 1-.5.5H2.5a.5.5 0 0 1-.5-.5zM3 3v3.278h3.278V3z" clip-rule="evenodd"/><path fill="currentColor" fill-rule="evenodd" d="M3.639 4.139a.5.5 0 0 1 .5-.5h1a.5.5 0 0 1 .5.5v1a.5.5 0 0 1-.5.5h-1a.5.5 0 0 1-.5-.5zM2 9.222a.5.5 0 0 1 .5-.5h4.278a.5.5 0 0 1 .5.5V13.5a.5.5 0 0 1-.5.5H2.5a.5.5 0 0 1-.5-.5zm1 .5V13h3.278V9.722zM8.722 2.5a.5.5 0 0 1 .5-.5H13.5a.5.5 0 0 1 .5.5v4.278a.5.5 0 0 1-.5.5H9.222a.5.5 0 0 1-.5-.5zm1 .5v3.278H13V3z" clip-rule="evenodd"/><path fill="currentColor" fill-rule="evenodd" d="M10.361 4.139a.5.5 0 0 1 .5-.5h1a.5.5 0 0 1 .5.5v1a.5.5 0 0 1-.5.5h-1a.5.5 0 0 1-.5-.5zM3.639 10.861a.5.5 0 0 1 .5-.5h1a.5.5 0 0 1 .5.5v1a.5.5 0 0 1-.5.5h-1a.5.5 0 0 1-.5-.5zM10.25 9.222a.5.5 0 0 1 .5-.5h2.75a.5.5 0 0 1 .5.5v2.14a.5.5 0 1 1-1 0v-.036h-.417a.5.5 0 0 1 0-1H13v-.604h-2.25a.5.5 0 0 1-.5-.5M13 12.995V12.5c0-.277.224-.506.5-.506s.5.23.5.506V13.5a.5.5 0 0 1-.15.351.5.5 0 0 1-.35.145h-1.23c-.276 0-.5-.22-.5-.496s.224-.506.5-.506zM10.944 13.5a.5.5 0 0 1-.5.5H9.222a.5.5 0 0 1-.5-.5v-1.222a.5.5 0 1 1 1 0V13h.722a.5.5 0 0 1 .5.5" clip-rule="evenodd"/><path fill="currentColor" fill-rule="evenodd" d="M9.222 8.722a.5.5 0 0 1 .5.5v1.028h1.334a.5.5 0 0 1 .5.5v1.028h.416a.5.5 0 1 1 0 1h-.916a.5.5 0 0 1-.5-.5V11.25H9.222a.5.5 0 0 1-.5-.5V9.222a.5.5 0 0 1 .5-.5" clip-rule="evenodd"/></svg>