<svg xmlns="http://www.w3.org/2000/svg" width="20" height="20" fill="none" class="persona-icon" viewBox="0 0 20 20"><path fill="currentColor" fill-rule="evenodd" d="M2.975 12.198a1.4 1.4 0 0 1 1.4-1.4h3.427a1.4 1.4 0 0 1 1.4 1.4v3.426a1.4 1.4 0 0 1-1.4 1.401H4.376a1.4 1.4 0 0 1-1.401-1.4zm0-7.822a1.4 1.4 0 0 1 1.4-1.4h3.427a1.4 1.4 0 0 1 1.4 1.4v3.426a1.4 1.4 0 0 1-1.4 1.4H4.376a1.4 1.4 0 0 1-1.401-1.4zm7.822 0a1.4 1.4 0 0 1 1.4-1.4h3.427a1.4 1.4 0 0 1 1.4 1.4v3.426a1.4 1.4 0 0 1-1.4 1.4h-3.426a1.4 1.4 0 0 1-1.401-1.4zm.625 6.421c.345 0 .625.28.625.625v1.153h1.508c.345 0 .625.28.625.625v1.153h.442a.625.625 0 1 1 0 1.25h-1.067a.625.625 0 0 1-.625-.625v-1.153h-1.508a.625.625 0 0 1-.625-.625v-1.778c0-.345.28-.625.625-.625m0 3.556c.345 0 .625.28.625.625v.646c0 .084.068.151.15.151h.647a.625.625 0 0 1 0 1.25h-.646a1.4 1.4 0 0 1-1.4-1.4v-.647c0-.345.279-.625.624-.625m1.153-2.93c0-.346.28-.626.625-.626h2.424a1.4 1.4 0 0 1 1.4 1.401v1.713a.625.625 0 0 1-1.25.003h-.44a.625.625 0 1 1 0-1.25h.44v-.466a.15.15 0 0 0-.15-.15H13.2a.625.625 0 0 1-.625-.626m3.825 3.641c.345 0 .625.28.625.625 0 .738-.598 1.336-1.336 1.336h-.711a.625.625 0 0 1 0-1.25h.71a.086.086 0 0 0 .087-.086c0-.345.28-.625.625-.625M4.376 12.047a.15.15 0 0 0-.151.151v3.426c0 .084.067.151.15.151h3.427a.15.15 0 0 0 .15-.15v-3.427a.15.15 0 0 0-.15-.15zm0-7.822a.15.15 0 0 0-.151.15v3.427c0 .083.068.15.15.15h3.427a.15.15 0 0 0 .15-.15V4.376a.15.15 0 0 0-.15-.15zm7.822 0a.15.15 0 0 0-.151.15v3.427c0 .083.067.15.15.15h3.427a.15.15 0 0 0 .15-.15V4.376a.15.15 0 0 0-.15-.15z" clip-rule="evenodd"/></svg>