<svg xmlns="http://www.w3.org/2000/svg" width="24" height="24" fill="none" class="persona-icon" viewBox="0 0 24 24"><path fill="currentColor" fill-rule="evenodd" d="M2 2.77A.77.77 0 0 1 2.77 2h7.179a.77.77 0 0 1 .769.77v7.179a.77.77 0 0 1-.77.769H2.77A.77.77 0 0 1 2 9.948V2.77Zm1.538.768V9.18H9.18V3.539H3.539Z" clip-rule="evenodd"/><path fill="currentColor" fill-rule="evenodd" d="M5.077 5.846a.77.77 0 0 1 .77-.77h1.025a.77.77 0 0 1 .769.77v1.026a.77.77 0 0 1-.77.769H5.847a.77.77 0 0 1-.77-.77V5.847ZM2 14.051a.77.77 0 0 1 .77-.769h7.179a.77.77 0 0 1 .769.77v7.179a.77.77 0 0 1-.77.769H2.77A.77.77 0 0 1 2 21.23v-7.179Zm1.538.77v5.64H9.18v-5.64H3.539ZM13.282 2.77a.77.77 0 0 1 .77-.77h7.179a.77.77 0 0 1 .769.77v7.179a.77.77 0 0 1-.77.769h-7.179a.77.77 0 0 1-.769-.77V2.77Zm1.538.768V9.18h5.642V3.539H14.82Z" clip-rule="evenodd"/><path fill="currentColor" fill-rule="evenodd" d="M16.359 5.846a.77.77 0 0 1 .77-.77h1.025a.77.77 0 0 1 .77.77v1.026a.77.77 0 0 1-.77.769h-1.026a.77.77 0 0 1-.769-.77V5.847ZM5.077 17.128a.77.77 0 0 1 .77-.769h1.025a.77.77 0 0 1 .769.77v1.025a.77.77 0 0 1-.77.77H5.847a.77.77 0 0 1-.77-.77v-1.026ZM15.846 14.051a.77.77 0 0 1 .77-.769h4.615a.77.77 0 0 1 .769.77v3.589a.77.77 0 1 1-1.538 0v-.128h-.77a.77.77 0 0 1 0-1.539h.77V14.82h-3.847a.77.77 0 0 1-.769-.769ZM20.462 20.462v-.257a.77.77 0 0 1 1.538 0v1.026a.77.77 0 0 1-.77.769h-2.05a.77.77 0 0 1 0-1.538h1.282ZM16.872 21.23a.77.77 0 0 1-.77.77h-2.05a.77.77 0 0 1-.77-.77v-2.05a.77.77 0 1 1 1.538 0v1.282h1.283a.77.77 0 0 1 .769.769Z" clip-rule="evenodd"/><path fill="currentColor" fill-rule="evenodd" d="M14.051 13.282a.77.77 0 0 1 .77.77v1.794h2.307a.77.77 0 0 1 .77.77v1.794h.769a.77.77 0 0 1 0 1.539h-1.539a.77.77 0 0 1-.769-.77v-1.794h-2.308a.77.77 0 0 1-.769-.77v-2.564a.77.77 0 0 1 .77-.769Z" clip-rule="evenodd"/></svg>