<svg xmlns="http://www.w3.org/2000/svg" width="24" height="24" fill="none" class="persona-icon" viewBox="0 0 24 24"><path fill="currentColor" fill-rule="evenodd" d="M3 4.75C3 3.784 3.784 3 4.75 3h4.417c.966 0 1.75.784 1.75 1.75v4.417a1.75 1.75 0 0 1-1.75 1.75H4.75A1.75 1.75 0 0 1 3 9.167zm0 10.083c0-.966.784-1.75 1.75-1.75h4.417c.966 0 1.75.784 1.75 1.75v4.417A1.75 1.75 0 0 1 9.167 21H4.75A1.75 1.75 0 0 1 3 19.25zM4.75 4.5a.25.25 0 0 0-.25.25v4.417c0 .138.112.25.25.25h4.417a.25.25 0 0 0 .25-.25V4.75a.25.25 0 0 0-.25-.25zm0 10.083a.25.25 0 0 0-.25.25v4.417c0 .138.112.25.25.25h4.417a.25.25 0 0 0 .25-.25v-4.417a.25.25 0 0 0-.25-.25zm8.333-9.833c0-.966.784-1.75 1.75-1.75h4.417c.966 0 1.75.784 1.75 1.75v4.417a1.75 1.75 0 0 1-1.75 1.75h-4.417a1.75 1.75 0 0 1-1.75-1.75zm.75 8.333a.75.75 0 0 1 .75.75v1.542h2a.75.75 0 0 1 .75.75v1.542h.625a.75.75 0 0 1 0 1.5h-1.375a.75.75 0 0 1-.75-.75v-1.542h-2a.75.75 0 0 1-.75-.75v-2.292a.75.75 0 0 1 .75-.75m0 4.584a.75.75 0 0 1 .75.75v.833c0 .138.112.25.25.25h.834a.75.75 0 0 1 0 1.5h-.834a1.75 1.75 0 0 1-1.75-1.75v-.833a.75.75 0 0 1 .75-.75m1-13.167a.25.25 0 0 0-.25.25v4.417c0 .138.112.25.25.25h4.417a.25.25 0 0 0 .25-.25V4.75a.25.25 0 0 0-.25-.25zm.542 9.333a.75.75 0 0 1 .75-.75h3.125c.966 0 1.75.784 1.75 1.75v2.209a.75.75 0 0 1-1.5 0v-.052h-.625a.75.75 0 0 1 0-1.5h.625v-.657a.25.25 0 0 0-.25-.25h-3.125a.75.75 0 0 1-.75-.75m4.875 4.75a.75.75 0 0 1 .75.75c0 .92-.746 1.667-1.667 1.667h-.916a.75.75 0 0 1 0-1.5h.916a.167.167 0 0 0 .167-.167.75.75 0 0 1 .75-.75" clip-rule="evenodd"/></svg>