<svg xmlns="http://www.w3.org/2000/svg" width="32" height="32" fill="none" class="persona-icon" viewBox="0 0 32 32"><path fill="currentColor" fill-rule="evenodd" d="M4 6.333A2.333 2.333 0 0 1 6.333 4h5.89a2.333 2.333 0 0 1 2.333 2.333v5.89a2.333 2.333 0 0 1-2.334 2.333H6.333A2.333 2.333 0 0 1 4 12.222zm0 13.445a2.333 2.333 0 0 1 2.333-2.334h5.89a2.333 2.333 0 0 1 2.333 2.334v5.889A2.333 2.333 0 0 1 12.222 28H6.333A2.333 2.333 0 0 1 4 25.667zM6.333 6A.333.333 0 0 0 6 6.333v5.89c0 .183.15.333.333.333h5.89c.183 0 .333-.15.333-.334V6.333A.333.333 0 0 0 12.222 6zm0 13.444a.333.333 0 0 0-.333.334v5.889c0 .184.15.333.333.333h5.89c.183 0 .333-.15.333-.333v-5.89a.333.333 0 0 0-.334-.333zm12.111-2a1 1 0 0 1 1 1V20.5h2.667a1 1 0 0 1 1 1v2.055h.833a1 1 0 1 1 0 2h-1.833a1 1 0 0 1-1-1V22.5h-2.667a1 1 0 0 1-1-1v-3.056a1 1 0 0 1 1-1m-1-11.11A2.333 2.333 0 0 1 19.778 4h5.889A2.333 2.333 0 0 1 28 6.333v5.89a2.333 2.333 0 0 1-2.333 2.333h-5.89a2.333 2.333 0 0 1-2.333-2.334zm1 17.222a1 1 0 0 1 1 1v1.11c0 .185.15.334.334.334h1.111a1 1 0 1 1 0 2h-1.111a2.333 2.333 0 0 1-2.333-2.333v-1.111a1 1 0 0 1 1-1M19.779 6a.333.333 0 0 0-.334.333v5.89c0 .183.15.333.334.333h5.889c.184 0 .333-.15.333-.334V6.333A.333.333 0 0 0 25.667 6zm.722 12.444a1 1 0 0 1 1-1h4.167A2.333 2.333 0 0 1 28 19.778v2.944a1 1 0 1 1-2 0v-.07h-.833a1 1 0 0 1 0-2H26v-.874a.333.333 0 0 0-.333-.334H21.5a1 1 0 0 1-1-1m6.5 6.334a1 1 0 0 1 1 1A2.22 2.22 0 0 1 25.778 28h-1.222a1 1 0 1 1 0-2h1.222c.123 0 .222-.1.222-.222a1 1 0 0 1 1-1" clip-rule="evenodd"/></svg>