<svg xmlns="http://www.w3.org/2000/svg" width="32" height="32" fill="none" class="persona-icon" viewBox="0 0 32 32"><path fill="currentColor" fill-rule="evenodd" d="M4 6.333A2.333 2.333 0 0 1 6.333 4h5.89a2.333 2.333 0 0 1 2.333 2.333v5.89a2.333 2.333 0 0 1-2.334 2.333H6.333A2.333 2.333 0 0 1 4 12.222zm13.444 0A2.333 2.333 0 0 1 19.778 4h5.889A2.333 2.333 0 0 1 28 6.333v5.89a2.333 2.333 0 0 1-2.333 2.333h-5.89a2.333 2.333 0 0 1-2.333-2.334zM4 19.778a2.333 2.333 0 0 1 2.333-2.334h5.89a2.333 2.333 0 0 1 2.333 2.334v5.889A2.333 2.333 0 0 1 12.222 28H6.333A2.333 2.333 0 0 1 4 25.667zm14.444-2.334a1 1 0 0 1 1 1V20.5h2.667a1 1 0 0 1 1 1v2.055h.833a1 1 0 1 1 0 2h-1.833a1 1 0 0 1-1-1V22.5h-2.667a1 1 0 0 1-1-1v-3.056a1 1 0 0 1 1-1m2.056 1a1 1 0 0 1 1-1h4.167A2.333 2.333 0 0 1 28 19.778v2.944a1 1 0 1 1-2 0v-.07h-.833a1 1 0 0 1 0-2H26v-.874a.333.333 0 0 0-.333-.334H21.5a1 1 0 0 1-1-1m-2.055 5.112a1 1 0 0 1 1 1v1.11c0 .185.149.334.333.334h1.111a1 1 0 1 1 0 2h-1.111a2.333 2.333 0 0 1-2.333-2.333v-1.111a1 1 0 0 1 1-1M27 24.778a1 1 0 0 1 1 1A2.22 2.22 0 0 1 25.778 28h-1.222a1 1 0 1 1 0-2h1.222c.123 0 .222-.1.222-.222a1 1 0 0 1 1-1M6.333 6A.333.333 0 0 0 6 6.333v5.89c0 .183.15.333.333.333h5.89c.183 0 .333-.15.333-.334V6.333A.333.333 0 0 0 12.222 6zm13.445 0a.333.333 0 0 0-.334.333v5.89c0 .183.15.333.334.333h5.889c.184 0 .333-.15.333-.334V6.333A.333.333 0 0 0 25.667 6zM6.333 19.444a.333.333 0 0 0-.333.334v5.889c0 .184.15.333.333.333h5.89c.183 0 .333-.15.333-.333v-5.89a.333.333 0 0 0-.334-.333z" clip-rule="evenodd"/></svg>