<svg xmlns="http://www.w3.org/2000/svg" width="16" height="16" fill="none" class="persona-icon" viewBox="0 0 16 16"><path fill="currentColor" d="M14 10.73c0-.303-.116-.64-.403-.867-.709-.56-1.669-.784-2.974-.803-.2-.003-.394.047-.565.138l-.355.19a.16.16 0 0 1-.155.002A8.36 8.36 0 0 1 6.46 6.19a.16.16 0 0 1 .005-.15l.214-.407c.088-.17.137-.361.134-.558-.006-.5-.043-.878-.145-1.255-.1-.372-.259-.72-.474-1.159-.2-.406-.615-.66-1.064-.66H3.187c-.646 0-1.208.53-1.165 1.218a11.503 11.503 0 0 0 10.76 10.76c.687.043 1.218-.519 1.218-1.165z"/></svg>