<svg xmlns="http://www.w3.org/2000/svg" width="20" height="20" fill="none" class="persona-icon" viewBox="0 0 20 20"><path fill="currentColor" d="M17.013 13.189v2.434c0 .756-.62 1.412-1.424 1.362A13.44 13.44 0 0 1 3.015 4.41c-.05-.803.606-1.424 1.362-1.424h2.27c.525 0 1.01.297 1.243.772.252.512.437.92.554 1.354.12.441.163.883.17 1.466.003.23-.053.455-.157.653l-.25.476a.19.19 0 0 0-.005.175 9.77 9.77 0 0 0 3.608 3.741.19.19 0 0 0 .181-.004l.415-.22c.2-.107.426-.165.66-.162 1.526.022 2.648.285 3.476.938.336.265.47.66.47 1.013"/></svg>