<svg xmlns="http://www.w3.org/2000/svg" width="24" height="24" fill="none" class="persona-icon" viewBox="0 0 24 24"><path fill="currentColor" d="M21 16.094c0-.453-.173-.96-.604-1.3-1.063-.838-2.503-1.176-4.46-1.204-.301-.004-.593.07-.85.207l-.531.284a.24.24 0 0 1-.233.005 12.54 12.54 0 0 1-4.631-4.803.24.24 0 0 1 .007-.224l.32-.611c.133-.254.206-.542.202-.838-.01-.748-.065-1.315-.218-1.882-.151-.558-.388-1.08-.711-1.737C8.99 3.38 8.369 3 7.696 3H4.781c-.97 0-1.812.796-1.747 1.827a17.25 17.25 0 0 0 16.139 16.14c1.031.064 1.827-.778 1.827-1.748z"/></svg>