<svg xmlns="http://www.w3.org/2000/svg" width="32" height="32" fill="none" class="persona-icon" viewBox="0 0 32 32"><path fill="currentColor" d="M28 21.459v4.166c0 1.294-1.061 2.416-2.437 2.33A23 23 0 0 1 4.045 6.437C3.959 5.06 5.08 4 6.375 4h3.886c.898 0 1.727.508 2.126 1.32.431.877.748 1.574.949 2.317.204.756.278 1.512.29 2.51.006.395-.09.778-.268 1.117l-.427.815a.32.32 0 0 0-.01.299 16.7 16.7 0 0 0 6.175 6.403.32.32 0 0 0 .31-.007l.71-.378c.342-.182.73-.282 1.131-.276 2.61.037 4.53.487 5.947 1.606.575.453.806 1.129.806 1.733"/></svg>