<svg xmlns="http://www.w3.org/2000/svg" width="16" height="16" fill="none" class="persona-icon" viewBox="0 0 16 16"><path fill="currentColor" d="M11.349 4.226c-.61-.548-1.68-1.065-2.838-1.195-1.177-.132-2.5.132-3.513 1.226l-.026.03q-.46.586-.53 1.172c-.047.39.037.745.192 1.051.22.436.585.777.93 1.026h-3.05a.507.507 0 0 0-.514.5c0 .276.23.5.514.5h10.972a.507.507 0 0 0 .514-.5c0-.276-.23-.5-.514-.5H7.93c-.213-.07-.504-.171-.98-.345H6.95a3.4 3.4 0 0 1-.508-.25c-.366-.215-.735-.513-.909-.856a.87.87 0 0 1-.096-.513c.022-.18.106-.408.32-.683.745-.794 1.707-1.001 2.64-.896.956.107 1.825.54 2.272.942.203.182.52.17.707-.025a.473.473 0 0 0-.026-.684M11.823 10.21a.496.496 0 0 0-.547-.433.49.49 0 0 0-.448.53q.005.045.006.097c.005.54-.43 1.082-1.062 1.345-.871.362-1.857.338-2.764.145a8 8 0 0 1-2.094-.769.51.51 0 0 0-.682.183.476.476 0 0 0 .189.66c.479.262 1.35.654 2.372.871 1.02.217 2.24.271 3.374-.201.876-.365 1.677-1.196 1.667-2.243q-.002-.095-.01-.185"/></svg>