<svg xmlns="http://www.w3.org/2000/svg" width="20" height="20" fill="none" class="persona-icon"><path fill="currentColor" d="M14.186 5.094c-.762-.713-2.1-1.384-3.547-1.553-1.471-.172-3.124.171-4.392 1.594a.62.62 0 0 0-.032.038c-.384.507-.602 1.017-.661 1.523-.06.509.045.97.239 1.367.282.58.753 1.032 1.194 1.357H3.143a.634.634 0 0 0-.643.625c0 .345.288.625.643.625h13.714c.355 0 .643-.28.643-.625a.634.634 0 0 0-.643-.625h-6.88a40.523 40.523 0 0 1-1.288-.471l-.002-.002a4.147 4.147 0 0 1-.636-.323c-.457-.28-.918-.668-1.136-1.114a1.175 1.175 0 0 1-.12-.666c.028-.235.133-.531.4-.888.931-1.032 2.135-1.302 3.3-1.166 1.196.14 2.282.704 2.84 1.226a.622.622 0 0 0 .884-.033.632.632 0 0 0-.033-.89ZM14.78 12.873a.626.626 0 0 0-.685-.563.628.628 0 0 0-.56.688c.005.04.007.083.007.127.007.702-.538 1.407-1.326 1.748-1.09.472-2.321.44-3.456.19a9.884 9.884 0 0 1-2.618-1 .623.623 0 0 0-.852.237.631.631 0 0 0 .236.858c.6.341 1.688.85 2.966 1.133 1.274.282 2.798.352 4.217-.262 1.095-.474 2.096-1.554 2.083-2.916 0-.082-.005-.162-.013-.24Z"/></svg>