<svg xmlns="http://www.w3.org/2000/svg" width="24" height="24" fill="none" class="persona-icon" viewBox="0 0 24 24"><path fill="currentColor" fill-rule="evenodd" d="M12.787 4.135c1.787.208 3.437 1.031 4.377 1.904a.75.75 0 0 1-1.021 1.099c-.695-.646-2.044-1.34-3.529-1.513-1.448-.168-2.946.165-4.105 1.442-.332.442-.465.81-.5 1.104-.035.296.023.57.152.832.271.554.847 1.034 1.414 1.379.361.22.669.355.79.4l.004.001c.672.253 1.106.41 1.427.52h8.454a.75.75 0 0 1 0 1.5H3.75a.75.75 0 1 1 0-1.5h4.51c-.537-.396-1.104-.942-1.446-1.64a2.96 2.96 0 0 1-.294-1.669c.073-.617.34-1.24.814-1.86l.038-.046c1.563-1.742 3.6-2.163 5.415-1.953m4.282 10.782a.75.75 0 0 1 .821.671q.015.144.016.294c.016 1.662-1.215 2.984-2.563 3.564-1.75.752-3.631.666-5.205.32a13.8 13.8 0 0 1-3.664-1.39.75.75 0 1 1 .74-1.306c.64.363 1.845.923 3.246 1.231 1.406.31 2.936.349 4.29-.233.982-.423 1.665-1.296 1.656-2.172q0-.082-.008-.158a.75.75 0 0 1 .671-.82" clip-rule="evenodd"/></svg>