<svg xmlns="http://www.w3.org/2000/svg" width="20" height="20" fill="none" class="persona-icon" viewBox="0 0 20 20"><path fill="currentColor" fill-rule="evenodd" d="M3.975 5.371a2.94 2.94 0 0 1 2.94-2.94h3.495c.6 0 1.175.25 1.585.69l3.447 3.693c.375.402.583.93.583 1.48v3.958H10v5.315H6.915a2.94 2.94 0 0 1-2.94-2.939zm7.422-1.06v1.832c0 .507.41.918.917.918h1.648z" clip-rule="evenodd"/><path fill="currentColor" d="m17 14.299-3.215 3.214a.625.625 0 0 1-.899-.016l-1.8-1.928a.625.625 0 1 1 .914-.853l1.358 1.455 2.757-2.756a.625.625 0 1 1 .884.884"/></svg>