<svg xmlns="http://www.w3.org/2000/svg" width="24" height="24" fill="none" class="persona-icon" viewBox="0 0 24 24"><path fill="currentColor" fill-rule="evenodd" d="M4.056 5.834A3.833 3.833 0 0 1 7.889 2h4.657a2.8 2.8 0 0 1 2.05.892l4.594 4.92a2.8 2.8 0 0 1 .754 1.915V15H12v7h3.977a1 1 0 0 1-.072-.067l-2.398-2.57a.75.75 0 1 1 1.097-1.023l1.868 2.002 3.734-3.733a.75.75 0 0 1 1.06 1.06l-4.282 4.283a.75.75 0 0 1-1.007.048H7.889a3.833 3.833 0 0 1-3.833-3.833zm11.027 2.333h2.386l-3.691-3.954v2.649c0 .72.584 1.305 1.305 1.305" clip-rule="evenodd"/></svg>