<svg xmlns="http://www.w3.org/2000/svg" width="20" height="20" fill="none" class="persona-icon" viewBox="0 0 20 20"><path fill="currentColor" fill-rule="evenodd" d="M5.306 5.371c0-.933.756-1.689 1.689-1.689h3.232v2.461c0 1.197.971 2.168 2.168 2.168h2.46v3.238a.625.625 0 1 0 1.25 0V8.294c0-.55-.208-1.078-.582-1.48l-3.448-3.693a2.17 2.17 0 0 0-1.585-.689H6.995a2.94 2.94 0 0 0-2.94 2.94v6.177a.625.625 0 1 0 1.25 0zm8.737 1.69h-1.648a.92.92 0 0 1-.918-.918v-1.83z" clip-rule="evenodd"/><path fill="currentColor" d="M14.17 13.38a.51.51 0 0 1 .447-.753c.262 0 .408.146.504.344l.6 1.161.568-1.167c.089-.198.255-.338.484-.338.345 0 .69.325.479.701l-.938 1.69 1.008 1.806c.172.313-.127.753-.497.753-.243 0-.415-.16-.505-.363l-.618-1.27-.62 1.257c-.095.21-.248.376-.522.376-.351 0-.651-.37-.466-.708l.989-1.799zM13.096 16.517a1.2 1.2 0 0 1-.313.059c-.465 0-.81-.147-.81-.894v-1.129c0-.702.262-.931.817-.931.127 0 .237.032.337.061.055.016.108.032.16.04a.6.6 0 0 0 .153 0 .42.42 0 0 0 .383-.433c0-.262-.166-.421-.389-.517-.242-.115-.574-.146-.817-.146-1.123 0-1.78.625-1.78 2.035v.925c0 1.422.638 1.99 1.73 1.99.363 0 .746-.057.988-.223a.5.5 0 0 0 .243-.434.426.426 0 0 0-.358-.44c-.05-.006-.108-.013-.165-.006q-.087.016-.179.043"/><path fill="currentColor" fill-rule="evenodd" d="M6.837 15.606v-.976c0-1.32.555-2.004 1.736-2.004 1.18 0 1.71.69 1.71 2.004v.976c0 1.314-.53 1.971-1.71 1.971s-1.736-.65-1.736-1.971m1.136-1.085v1.193c0 .517.07.9.593.9s.58-.377.58-.9v-1.193c0-.561-.037-.944-.58-.944-.523 0-.593.383-.593.944M3.495 17.507h.95c1.18 0 1.844-.523 1.844-1.901v-.97c0-1.403-.663-1.946-1.844-1.946h-.944v.007l-.006-.007a.57.57 0 0 0-.568.568v3.675c0 .313.255.574.568.574m.567-3.834h.383c.593 0 .708.306.708.855v1.186c0 .613-.191.798-.708.798h-.383z" clip-rule="evenodd"/></svg>