<svg xmlns="http://www.w3.org/2000/svg" width="20" height="20" fill="none" class="persona-icon" viewBox="0 0 20 20"><path fill="currentColor" fill-rule="evenodd" d="M5.306 5.371v6.178a.625.625 0 0 1-1.25 0V5.37a2.94 2.94 0 0 1 2.939-2.939h3.495c.601 0 1.175.25 1.585.689l3.448 3.694c.374.401.583.93.583 1.479v3.255a.625.625 0 0 1-1.25 0V8.31h-2.46a2.17 2.17 0 0 1-2.169-2.168v-2.46H6.995a1.69 1.69 0 0 0-1.69 1.688m8.737 1.69-2.565-2.748v1.83c0 .507.41.918.917.918z" clip-rule="evenodd"/><path fill="currentColor" d="M14.17 13.38a.51.51 0 0 1 .447-.753c.262 0 .408.146.504.344l.6 1.161.568-1.167c.089-.198.255-.338.484-.338.345 0 .69.325.479.701l-.938 1.69 1.008 1.806c.172.313-.127.753-.497.753-.243 0-.415-.16-.505-.363l-.618-1.27-.62 1.257c-.095.21-.248.376-.522.376-.351 0-.651-.37-.466-.708l.989-1.799zM13.096 16.517c.061-.017.12-.034.178-.043a.7.7 0 0 1 .166.006c.211.038.358.204.358.44a.5.5 0 0 1-.243.434c-.242.166-.625.223-.989.223-1.09 0-1.729-.568-1.729-1.99v-.925c0-1.41.658-2.036 1.78-2.036.243 0 .575.032.817.147.223.096.39.255.39.517a.42.42 0 0 1-.384.434.6.6 0 0 1-.153 0q-.078-.016-.16-.04c-.1-.03-.21-.062-.337-.062-.555 0-.817.23-.817.931v1.13c0 .746.345.893.81.893.108 0 .212-.03.313-.059"/><path fill="currentColor" fill-rule="evenodd" d="M6.837 15.606v-.976c0-1.32.555-2.004 1.736-2.004 1.18 0 1.71.69 1.71 2.004v.976c0 1.314-.53 1.971-1.71 1.971s-1.736-.65-1.736-1.971m1.136-1.085v1.193c0 .517.07.9.593.9s.58-.377.58-.9v-1.193c0-.561-.037-.944-.58-.944-.523 0-.593.383-.593.944M3.495 17.507a.575.575 0 0 1-.568-.574v-3.675a.57.57 0 0 1 .568-.568l.006.007v-.007h.944c1.18 0 1.844.543 1.844 1.946v.97c0 1.378-.663 1.901-1.844 1.901zm.567-3.834v2.839h.383c.517 0 .708-.185.708-.798v-1.186c0-.549-.114-.855-.708-.855z" clip-rule="evenodd"/></svg>