<svg xmlns="http://www.w3.org/2000/svg" width="24" height="24" fill="none" class="persona-icon" viewBox="0 0 24 24"><path fill="currentColor" fill-rule="evenodd" d="M5.637 5.833A2.333 2.333 0 0 1 7.97 3.5h4.39v3.361a2.806 2.806 0 0 0 2.805 2.806h3.36v4.396a.75.75 0 0 0 1.5 0V9.727c0-.71-.27-1.395-.754-1.914L14.678 2.89A2.8 2.8 0 0 0 12.627 2H7.97a3.833 3.833 0 0 0-3.833 3.833v8.23a.75.75 0 0 0 1.5 0zM17.55 8.167h-2.385a1.306 1.306 0 0 1-1.306-1.306V4.213z" clip-rule="evenodd"/><path fill="currentColor" d="M17.529 16.505a.7.7 0 0 1-.077-.425.68.68 0 0 1 .672-.578c.348 0 .544.196.671.46l.8 1.546.756-1.555c.119-.264.34-.45.646-.45.459 0 .918.433.637.934l-1.25 2.253 1.344 2.405c.23.417-.17 1.003-.663 1.003-.323 0-.553-.212-.672-.484l-.824-1.692-.825 1.675c-.127.28-.331.501-.697.501-.467 0-.867-.493-.62-.943l1.317-2.397zM16.098 20.686c-.135.038-.274.078-.417.078-.62 0-1.08-.196-1.08-1.19v-1.505c0-.935.349-1.24 1.088-1.24.17 0 .316.042.45.081q.11.035.213.054a.8.8 0 0 0 .204 0 .56.56 0 0 0 .51-.578c0-.348-.22-.56-.518-.688-.323-.153-.765-.196-1.088-.196-1.496 0-2.372.833-2.372 2.712v1.232c0 1.896.85 2.652 2.304 2.652.484 0 .994-.076 1.317-.297a.67.67 0 0 0 .323-.578.567.567 0 0 0-.476-.587 1 1 0 0 0-.22-.008 2 2 0 0 0-.238.058"/><path fill="currentColor" fill-rule="evenodd" d="M7.759 19.472v-1.3c0-1.76.74-2.67 2.312-2.67s2.278.918 2.278 2.67v1.3c0 1.75-.706 2.626-2.278 2.626s-2.312-.867-2.312-2.626m1.513-1.445v1.59c0 .688.093 1.198.79 1.198s.774-.502.774-1.199v-1.59c0-.747-.051-1.257-.774-1.257-.697 0-.79.51-.79 1.258M3.305 22.005h1.267c1.572 0 2.456-.697 2.456-2.533V18.18c0-1.87-.884-2.593-2.456-2.593H3.314v.009l-.009-.009a.76.76 0 0 0-.756.757v4.896c0 .416.34.765.756.765m.757-5.109h.51c.79 0 .943.408.943 1.14v1.58c0 .816-.255 1.063-.943 1.063h-.51z" clip-rule="evenodd"/></svg>