<svg xmlns="http://www.w3.org/2000/svg" width="24" height="24" fill="none" class="persona-icon" viewBox="0 0 24 24"><path fill="currentColor" fill-rule="evenodd" d="M5.637 5.833v8.23a.75.75 0 0 1-1.5 0v-8.23A3.833 3.833 0 0 1 7.97 2h4.657c.777 0 1.52.323 2.05.891l4.594 4.922c.485.52.755 1.203.755 1.914v4.336a.75.75 0 0 1-1.5 0V9.727q0-.03-.002-.06h-3.36A2.806 2.806 0 0 1 12.36 6.86V3.5H7.97a2.333 2.333 0 0 0-2.333 2.333M17.55 8.167l-3.69-3.954V6.86c0 .721.584 1.306 1.305 1.306z" clip-rule="evenodd"/><path fill="currentColor" d="M17.529 16.505a.7.7 0 0 1-.077-.425.68.68 0 0 1 .672-.578c.348 0 .544.196.671.46l.8 1.546.756-1.555c.119-.264.34-.45.646-.45.459 0 .918.433.637.934l-1.25 2.253 1.344 2.405c.23.417-.17 1.003-.663 1.003-.323 0-.553-.212-.672-.484l-.824-1.692-.825 1.675c-.127.28-.331.501-.697.501-.467 0-.867-.493-.62-.943l1.317-2.397zM16.098 20.686c.08-.023.16-.045.237-.058a1 1 0 0 1 .221.008c.28.051.476.272.476.587 0 .255-.127.45-.323.578-.323.22-.833.297-1.317.297-1.454 0-2.304-.756-2.304-2.652v-1.232c0-1.879.876-2.712 2.372-2.712.323 0 .765.043 1.088.196.297.127.518.34.518.688a.56.56 0 0 1-.51.578.8.8 0 0 1-.204 0 2 2 0 0 1-.213-.054c-.134-.04-.28-.082-.45-.082-.74 0-1.088.306-1.088 1.241v1.505c0 .994.46 1.19 1.08 1.19.143 0 .282-.04.417-.078"/><path fill="currentColor" fill-rule="evenodd" d="M7.759 19.472v-1.3c0-1.76.74-2.67 2.312-2.67s2.278.918 2.278 2.67v1.3c0 1.75-.706 2.626-2.278 2.626s-2.312-.867-2.312-2.626m1.513-1.445v1.59c0 .688.093 1.198.79 1.198s.774-.502.774-1.199v-1.59c0-.747-.051-1.257-.774-1.257-.697 0-.79.51-.79 1.258M3.305 22.005a.765.765 0 0 1-.756-.765v-4.896c0-.417.34-.757.756-.757l.009.009v-.009h1.258c1.572 0 2.456.723 2.456 2.593v1.292c0 1.836-.884 2.533-2.456 2.533zm.757-5.109v3.783h.51c.688 0 .943-.247.943-1.063v-1.58c0-.732-.153-1.14-.943-1.14z" clip-rule="evenodd"/></svg>