<svg xmlns="http://www.w3.org/2000/svg" width="32" height="32" fill="none" class="persona-icon" viewBox="0 0 32 32"><path fill="currentColor" fill-rule="evenodd" d="M8.081 8.286V18.58a1 1 0 0 1-2 0V8.286a4.857 4.857 0 0 1 4.857-4.857h5.826c.99 0 1.935.41 2.61 1.134l5.747 6.157c.617.661.96 1.532.96 2.437v5.424a1 1 0 0 1-2 0v-5.438h-4.142a3.57 3.57 0 0 1-3.572-3.571V5.429h-5.429a2.857 2.857 0 0 0-2.857 2.857m14.699 2.857-4.413-4.728v3.157c0 .868.704 1.571 1.572 1.571z" clip-rule="evenodd"/><path fill="currentColor" d="M22.896 21.632a.85.85 0 0 1-.096-.531.85.85 0 0 1 .84-.723c.436 0 .68.244.84.574l1 1.935.946-1.946c.149-.33.425-.563.808-.563.574 0 1.149.542.798 1.17l-1.563 2.817 1.68 3.01c.287.52-.213 1.254-.83 1.254-.404 0-.69-.266-.84-.606l-1.031-2.116-1.032 2.095c-.16.35-.414.627-.872.627-.584 0-1.084-.617-.776-1.18l1.648-2.999zM21.105 26.862c.102-.028.201-.057.297-.073.096-.01.192 0 .277.011.35.064.596.34.596.734a.84.84 0 0 1-.405.723c-.404.276-1.042.372-1.648.372-1.818 0-2.881-.946-2.881-3.318V23.77c0-2.35 1.095-3.392 2.966-3.392.404 0 .957.053 1.361.244.373.16.649.425.649.861 0 .394-.276.692-.638.723q-.128.016-.255 0a3 3 0 0 1-.267-.067 2 2 0 0 0-.563-.103c-.925 0-1.36.383-1.36 1.553v1.882c0 1.244.574 1.488 1.35 1.488.179 0 .353-.049.521-.097"/><path fill="currentColor" fill-rule="evenodd" d="M10.674 25.343v-1.627c0-2.2.925-3.338 2.892-3.338s2.85 1.148 2.85 3.338v1.627c0 2.19-.883 3.286-2.85 3.286s-2.892-1.085-2.892-3.286m1.893-1.807v1.988c0 .861.117 1.5.989 1.5.871 0 .967-.628.967-1.5v-1.988c0-.936-.064-1.574-.967-1.574-.872 0-.99.638-.99 1.574M5.103 28.512a.96.96 0 0 1-.947-.957V21.43c0-.52.426-.946.947-.946l.01.01v-.01h1.574c1.967 0 3.073.904 3.073 3.243v1.616c0 2.297-1.106 3.169-3.073 3.169zm.946-6.39v4.731h.638c.861 0 1.18-.308 1.18-1.329v-1.978c0-.914-.191-1.425-1.18-1.425z" clip-rule="evenodd"/></svg>