<svg xmlns="http://www.w3.org/2000/svg" width="16" height="16" fill="none" class="persona-icon" viewBox="0 0 16 16"><path fill="currentColor" fill-rule="evenodd" d="M2.33 11.59a2.25 2.25 0 0 1 1.71-.79h1.32a2.25 2.25 0 0 1 1.71.79c.213.248.33.565.33.892v.039A1.48 1.48 0 0 1 5.92 14H3.48A1.48 1.48 0 0 1 2 12.52v-.04c0-.326.117-.643.33-.892M4.7 3.55A1.15 1.15 0 0 0 3.55 4.7v1.65a.5.5 0 1 1-1 0V4.7A2.15 2.15 0 0 1 4.7 2.55h2.75a.5.5 0 1 1 0 1zm-.66 8.25c-.365 0-.713.16-.95.438a.38.38 0 0 0-.09.244v.039c0 .264.215.48.48.48h2.44a.48.48 0 0 0 .48-.48v-.04a.38.38 0 0 0-.09-.243 1.25 1.25 0 0 0-.95-.438zM3.1 9.1a1.6 1.6 0 1 1 3.2 0 1.6 1.6 0 0 1-3.2 0m1.6-.6a.6.6 0 1 0 0 1.2.6.6 0 0 0 0-1.2m8.25.925a.5.5 0 0 1 .5.5v1.376a2.15 2.15 0 0 1-2.15 2.15H9.1a.5.5 0 0 1 0-1h2.2a1.15 1.15 0 0 0 1.15-1.15V9.925a.5.5 0 0 1 .5-.5M8.93 6.09a2.25 2.25 0 0 1 1.71-.79h1.32a2.25 2.25 0 0 1 1.71.79c.213.249.33.565.33.892v.04A1.48 1.48 0 0 1 12.52 8.5h-2.44A1.48 1.48 0 0 1 8.6 7.02v-.038c0-.328.117-.644.33-.893m1.71.21c-.366 0-.713.161-.95.44a.38.38 0 0 0-.09.242v.04c0 .264.215.479.48.479h2.44a.48.48 0 0 0 .48-.48v-.038a.38.38 0 0 0-.09-.244 1.25 1.25 0 0 0-.95-.438zM9.7 3.6a1.6 1.6 0 1 1 3.2 0 1.6 1.6 0 0 1-3.2 0m1.6-.6a.6.6 0 1 0 0 1.2.6.6 0 0 0 0-1.2" clip-rule="evenodd"/></svg>