<svg xmlns="http://www.w3.org/2000/svg" width="20" height="20" fill="none" class="persona-icon" viewBox="0 0 20 20"><path fill="currentColor" fill-rule="evenodd" d="M3.369 14.148a2.66 2.66 0 0 1 2.023-.933h1.536c.779 0 1.518.341 2.024.933.254.298.393.676.393 1.067v.045c0 .975-.79 1.765-1.765 1.765H4.74c-.975 0-1.765-.79-1.765-1.765v-.045c0-.391.14-.77.393-1.067M6.16 4.865c-.715 0-1.295.58-1.295 1.295v1.92a.625.625 0 0 1-1.25 0V6.16A2.545 2.545 0 0 1 6.16 3.615h3.2a.625.625 0 1 1 0 1.25zM4.255 11.28a1.905 1.905 0 1 1 3.81 0 1.905 1.905 0 0 1-3.81 0m11.505.335c.345 0 .625.28.625.625v1.6a2.545 2.545 0 0 1-2.545 2.545h-2.56a.625.625 0 0 1 0-1.25h2.56c.715 0 1.295-.58 1.295-1.295v-1.6c0-.345.28-.625.625-.625m-4.711-3.867a2.66 2.66 0 0 1 2.023-.933h1.536c.778 0 1.518.34 2.024.933.254.297.393.676.393 1.067v.045c0 .975-.79 1.765-1.765 1.765h-2.84c-.975 0-1.765-.79-1.765-1.765v-.045c0-.391.14-.77.394-1.067m.886-2.868a1.905 1.905 0 1 1 3.81 0 1.905 1.905 0 0 1-3.81 0m-6.543 9.585c-.413 0-.805.181-1.073.495a.4.4 0 0 0-.094.255v.045c0 .284.23.515.515.515h2.84c.284 0 .515-.23.515-.515v-.045a.4.4 0 0 0-.094-.255 1.41 1.41 0 0 0-1.073-.495zm.768-3.84a.655.655 0 1 0 0 1.31.655.655 0 0 0 0-1.31m6.912-2.56c-.413 0-.805.18-1.073.495a.4.4 0 0 0-.094.255v.045c0 .284.23.515.515.515h2.84c.284 0 .515-.23.515-.515v-.045a.4.4 0 0 0-.094-.255 1.41 1.41 0 0 0-1.073-.495zm.768-3.84a.655.655 0 1 0 0 1.31.655.655 0 0 0 0-1.31" clip-rule="evenodd"/></svg>