<svg xmlns="http://www.w3.org/2000/svg" width="20" height="20" fill="none" class="persona-icon" viewBox="0 0 20 20"><path fill="currentColor" fill-rule="evenodd" d="M3.465 11.465a2.14 2.14 0 1 1 4.281 0 2.14 2.14 0 0 1-4.281 0m2.14-.789a.789.789 0 1 0 0 1.577.789.789 0 0 0 0-1.577M12.254 4.14a2.14 2.14 0 1 1 4.281 0 2.14 2.14 0 0 1-4.281 0m2.14-.788a.789.789 0 1 0 0 1.577.789.789 0 0 0 0-1.577" clip-rule="evenodd"/><path fill="currentColor" fill-rule="evenodd" d="M2.44 14.773a3.006 3.006 0 0 1 2.287-1.055h1.757c.88 0 1.715.386 2.287 1.055.284.333.44.757.44 1.195v.051A1.98 1.98 0 0 1 7.231 18H3.98A1.98 1.98 0 0 1 2 16.02v-.052c0-.438.156-.862.44-1.195m5.302.877a1.654 1.654 0 0 0-1.258-.58H4.727c-.484 0-.944.213-1.258.58a.489.489 0 0 0-.117.318v.051c0 .348.282.629.629.629h3.25a.629.629 0 0 0 .628-.629v-.051a.489.489 0 0 0-.117-.318ZM11.23 7.449a3.006 3.006 0 0 1 2.286-1.055h1.757c.88 0 1.715.386 2.286 1.055.285.333.441.757.441 1.195v.051a1.98 1.98 0 0 1-1.98 1.981h-3.25a1.98 1.98 0 0 1-1.981-1.98v-.052c0-.438.156-.862.44-1.195m5.3.877a1.654 1.654 0 0 0-1.257-.58h-1.757c-.484 0-.944.212-1.258.58a.489.489 0 0 0-.117.318v.051c0 .348.281.629.628.629h3.25a.629.629 0 0 0 .629-.629v-.051a.49.49 0 0 0-.117-.318M5.606 4.085c-.84 0-1.521.68-1.521 1.52v2.198a.676.676 0 1 1-1.353 0V5.606a2.873 2.873 0 0 1 2.874-2.874h3.662a.676.676 0 0 1 0 1.353H5.606m10.986 7.802c.373 0 .676.303.676.676v1.831a2.873 2.873 0 0 1-2.874 2.874h-2.93a.676.676 0 1 1 0-1.353h2.93c.84 0 1.521-.68 1.521-1.52v-1.832c0-.373.303-.676.677-.676" clip-rule="evenodd"/></svg>