<svg xmlns="http://www.w3.org/2000/svg" width="20" height="20" fill="none" class="persona-icon" viewBox="0 0 20 20"><path fill="currentColor" fill-rule="evenodd" d="M6.914 3.682a1.69 1.69 0 0 0-1.689 1.69v9.256c0 .933.756 1.69 1.69 1.69h1.57a.625.625 0 1 1 0 1.25h-1.57a2.94 2.94 0 0 1-2.94-2.94V5.371a2.94 2.94 0 0 1 2.94-2.94h3.494c.601 0 1.175.25 1.585.69l3.448 3.693c.172.185.31.396.407.625a.625.625 0 0 1-.574.871h-2.96a2.17 2.17 0 0 1-2.168-2.168v-2.46zm4.483.63v1.83c0 .507.41.918.917.918h1.647z" clip-rule="evenodd"/><path fill="currentColor" d="M14.629 13.24a.77.77 0 0 1-.27.585l.27 1.344h-1.543l.268-1.344a.77.77 0 0 1 .503-1.356c.426 0 .772.345.772.771"/><path fill="currentColor" fill-rule="evenodd" d="M13.617 9.423a.63.63 0 0 1 .48 0l3.086 1.286a.63.63 0 0 1 .385.577v3.429c0 1.172-.882 2.085-1.628 2.643-.394.295-.802.53-1.146.693a5 5 0 0 1-.478.197 1.5 1.5 0 0 1-.459.092c-.164 0-.336-.05-.458-.092a5 5 0 0 1-.478-.197 7 7 0 0 1-1.146-.693c-.747-.558-1.629-1.471-1.629-2.643v-3.429c0-.252.152-.48.385-.577zm-2.22 2.28v3.012c0 .542.44 1.129 1.126 1.642.323.24.659.434.934.565a3 3 0 0 0 .4.16l.06-.018q.131-.044.34-.142c.276-.13.612-.324.934-.565.686-.513 1.127-1.1 1.127-1.642v-3.012l-2.46-1.026z" clip-rule="evenodd"/></svg>