<svg xmlns="http://www.w3.org/2000/svg" width="32" height="32" fill="none" class="persona-icon" viewBox="0 0 32 32"><path fill="currentColor" fill-rule="evenodd" d="M10.545 4.051A3.08 3.08 0 0 0 7.46 7.124v16.39a3.08 3.08 0 0 0 3.085 3.074h2.743c.568 0 1.029.458 1.029 1.024 0 .566-.46 1.025-1.029 1.025h-2.743c-2.84 0-5.143-2.294-5.143-5.122V7.125c0-2.83 2.303-5.123 5.143-5.123h6.214c.142 0 .283.008.423.024a1.036 1.036 0 0 1 .864.202c.555.2 1.06.53 1.47.968l6.867 7.327c.28.298.355.733.191 1.107a1.029 1.029 0 0 1-.943.616h-5.486a3.764 3.764 0 0 1-3.771-3.756V4.051zm11.948 10.323c.253-.105.538-.105.79 0l5.486 2.276c.384.16.633.532.633.946v6.07c0 2.034-1.539 3.63-2.861 4.615a12.23 12.23 0 0 1-2.024 1.219 7.8 7.8 0 0 1-.84.345c-.217.073-.512.157-.789.157s-.572-.084-.789-.157a7.799 7.799 0 0 1-.84-.345 12.226 12.226 0 0 1-2.024-1.22c-1.322-.985-2.861-2.58-2.861-4.614v-6.07c0-.414.25-.787.633-.946zM18.43 5.04v3.45a1.71 1.71 0 0 0 1.714 1.707h3.119zm0 13.239v5.387c0 1.001.812 2.062 2.036 2.974.578.43 1.18.775 1.675 1.01.247.117.457.2.613.253.06.02.104.033.133.04.029-.007.072-.02.133-.04a5.78 5.78 0 0 0 .613-.253 10.17 10.17 0 0 0 1.675-1.01c1.224-.912 2.036-1.973 2.036-2.974V18.28l-4.457-1.85z" clip-rule="evenodd"/><path fill="currentColor" d="M23.782 22.092a1.36 1.36 0 0 0 .477-1.036c0-.754-.614-1.366-1.371-1.366s-1.371.612-1.371 1.366c0 .414.185.785.477 1.036l-.477 2.379h2.742z"/></svg>