<svg xmlns="http://www.w3.org/2000/svg" width="40" height="40" fill="none" class="persona-ilustration" viewBox="0 0 40 40"><g clip-path="url(#3C7qEGgVE53PpIModz2FO7nZ0rKa9cmj_Eq-coeK_oo_a)"><path fill="#FFA400" d="M34.24 21.089c0-7.798-6.322-14.12-14.12-14.12C12.32 6.97 6 13.291 6 21.09s6.322 14.12 14.12 14.12 14.12-6.322 14.12-14.12"/><path fill="#FFC509" d="M34.24 18.62c0-7.798-6.322-14.12-14.12-14.12C12.32 4.5 6 10.822 6 18.62s6.322 14.12 14.12 14.12 14.12-6.322 14.12-14.12"/><path fill="#F8F8F8" d="M30.847 18.62c0-5.925-4.803-10.727-10.727-10.727S9.393 12.695 9.393 18.62c0 5.924 4.802 10.727 10.727 10.727 5.924 0 10.727-4.803 10.727-10.727"/><path fill="#FFC509" d="M19.763 11.89c.172-.251.54-.251.712 0l2.114 3.084a.43.43 0 0 0 .235.17L26.41 16.2c.29.086.405.437.22.678l-2.28 2.964a.43.43 0 0 0-.09.274l.103 3.739a.432.432 0 0 1-.576.418l-3.524-1.253a.43.43 0 0 0-.29 0l-3.523 1.253a.432.432 0 0 1-.576-.418l.103-3.739a.43.43 0 0 0-.09-.274l-2.28-2.964a.432.432 0 0 1 .22-.678l3.587-1.057a.43.43 0 0 0 .234-.17z"/></g><defs><clipPath id="3C7qEGgVE53PpIModz2FO7nZ0rKa9cmj_Eq-coeK_oo_a"><path fill="#fff" d="M0 0h40v40H0z"/></clipPath></defs></svg>