<svg xmlns="http://www.w3.org/2000/svg" width="80" height="80" fill="none" class="persona-ilustration" viewBox="0 0 80 80"><g clip-path="url(#U6KgWaAGIeibL8NEeNxWox62OwAdMkOKk5ZN0bXIEAk_a)"><path fill="#FFA400" d="M68.478 42.178c0-15.596-12.643-28.24-28.239-28.24S12 26.583 12 42.179s12.643 28.239 28.24 28.239c15.595 0 28.238-12.643 28.238-28.24"/><path fill="#FFC509" d="M68.478 37.24C68.478 21.642 55.835 9 40.24 9S12 21.643 12 37.24c0 15.595 12.643 28.238 28.24 28.238 15.595 0 28.238-12.643 28.238-28.239"/><path fill="#F8F8F8" d="M61.693 37.24c0-11.85-9.605-21.455-21.454-21.455S18.785 25.391 18.785 37.24s9.606 21.454 21.454 21.454 21.454-9.605 21.454-21.454"/><path fill="#FFC509" d="M39.527 23.778a.863.863 0 0 1 1.424 0l4.228 6.17a.86.86 0 0 0 .468.34l7.175 2.114c.581.172.81.874.44 1.355L48.7 39.685a.86.86 0 0 0-.179.55l.206 7.476a.863.863 0 0 1-1.153.837l-7.047-2.506a.86.86 0 0 0-.578 0l-7.047 2.506a.863.863 0 0 1-1.152-.837l.205-7.476a.86.86 0 0 0-.178-.55l-4.561-5.928a.863.863 0 0 1 .44-1.355l7.174-2.114a.86.86 0 0 0 .468-.34z"/></g><defs><clipPath id="U6KgWaAGIeibL8NEeNxWox62OwAdMkOKk5ZN0bXIEAk_a"><path fill="#fff" d="M0 0h80v80H0z"/></clipPath></defs></svg>