<svg xmlns="http://www.w3.org/2000/svg" width="150" height="150" fill="none" class="persona-ilustration" viewBox="0 0 150 150"><g clip-path="url(#6565X-X5et4CIh5_E3x7cr9msTgoFO58MAD2n9dhVzE_a)"><g clip-path="url(#6565X-X5et4CIh5_E3x7cr9msTgoFO58MAD2n9dhVzE_b)"><rect width="125" height="125" x="12.5" y="12.5" fill="#D3EDFF" rx="62.5"/><path fill="#A6B7FF" d="M76.292 109.718v46.847l-46.84-27.051v-46.84zM76.292 109.718v46.847l46.847-27.051v-46.84z"/><path fill="#3F568E" d="m41.378 89.319 17.83 10.094v58.106h-17.83z"/><path fill="#293A6E" d="M111.242 89.319 93.413 99.413v58.106h17.829z"/><mask id="6565X-X5et4CIh5_E3x7cr9msTgoFO58MAD2n9dhVzE_c" width="95" height="55" x="29" y="55" maskUnits="userSpaceOnUse" style="mask-type:alpha"><path fill="#959595" d="m76.292 55.63 46.847 27.043-46.847 27.044-46.84-27.044z"/></mask><g mask="url(#6565X-X5et4CIh5_E3x7cr9msTgoFO58MAD2n9dhVzE_c)"><path fill="#3F568E" d="m76.292 55.63 46.847 27.043-46.847 27.044-46.84-27.044z"/><path fill="#FCECEF" d="M90.23 77.768c4.15 0 10.072 4.926 13.836 2.49 1.042-.674 3.895-1.936 5.195-1.46 2.349 1.46 1.003 2.614 2.175 3.567.83.676 2.17-1.733 4.436.61 1.284 1.326.123 4.205.924 5.309 4.871 6.42-5.166 16.881-10.793 21.309L81.65 126.751l-30.995-12.73c-4.612-4.89-13.892-16.273-14.113-22.693-.277-8.026 3.941-8.862 9.686-6.365-.665-5.535 10.239-7.103 15.774-7.195 0 0 7.228-8.544 13.519-8.782 6.685-.253 10.557 8.782 14.708 8.782"/></g><path fill="#CBD3FF" d="m76.292 109.718 10.603 21.118 45.51-28.666-9.266-19.495zM29.453 82.675l-8.747 19.584 44.77 28.577 10.816-21.118zM87.107 34.492l-9.574 21.736 45.597 26.425 10.816-21.118z"/><path fill="#CBD3FF" d="m65.478 34.622 9.573 21.735-45.597 26.426-10.816-21.118z"/></g><path fill="#FFC79D" fill-rule="evenodd" d="M98.599 22.066c11.847 0 21.451-9.605 21.451-21.452 0 11.847 9.605 21.452 21.452 21.452-11.847 0-21.452 9.604-21.452 21.451 0-11.847-9.604-21.451-21.451-21.451M10.412 39.727c6.795 0 12.304-5.509 12.304-12.304 0 6.795 5.509 12.304 12.304 12.304-6.795 0-12.304 5.509-12.304 12.304 0-6.795-5.509-12.304-12.304-12.304" clip-rule="evenodd"/><path fill="#FFA400" d="M103.239 60.602c0-15.597-12.643-28.24-28.24-28.24-15.595 0-28.238 12.643-28.238 28.24S59.404 88.84 75 88.84s28.239-12.643 28.239-28.24"/><path fill="#FFC509" d="M103.239 55.663c0-15.596-12.643-28.24-28.24-28.24-15.595 0-28.238 12.644-28.238 28.24S59.404 83.902 75 83.902s28.239-12.644 28.239-28.24"/><path fill="#F8F8F8" d="M96.454 55.663c0-11.849-9.605-21.454-21.454-21.454s-21.454 9.605-21.454 21.454S63.15 77.117 75 77.117s21.454-9.605 21.454-21.454"/><path fill="#FFC509" d="M74.288 42.202a.863.863 0 0 1 1.424 0l4.228 6.17a.86.86 0 0 0 .468.34l7.174 2.114c.582.172.81.874.44 1.355l-4.56 5.927a.86.86 0 0 0-.18.55l.206 7.477a.863.863 0 0 1-1.152.837l-7.047-2.506a.86.86 0 0 0-.578 0l-7.047 2.506a.863.863 0 0 1-1.153-.837l.206-7.477a.86.86 0 0 0-.179-.55l-4.56-5.927a.863.863 0 0 1 .44-1.355l7.174-2.115a.86.86 0 0 0 .468-.34z"/></g><defs><clipPath id="6565X-X5et4CIh5_E3x7cr9msTgoFO58MAD2n9dhVzE_a"><path fill="#fff" d="M0 0h150v150H0z"/></clipPath><clipPath id="6565X-X5et4CIh5_E3x7cr9msTgoFO58MAD2n9dhVzE_b"><rect width="125" height="125" x="12.5" y="12.5" fill="#fff" rx="62.5"/></clipPath></defs></svg>