<svg xmlns="http://www.w3.org/2000/svg" width="32" height="32" fill="none"><path fill="#000" d="M12.75 15a1 1 0 1 0 0 2h6.5a1 1 0 1 0 0-2h-6.5Z"/><path fill="#000" fill-rule="evenodd" d="M2 9.5c0 1.14.727 2.11 1.742 2.473a2.624 2.624 0 0 0-.117.777v14.625A2.625 2.625 0 0 0 6.25 30h19.5a2.625 2.625 0 0 0 2.625-2.625V12.75c0-.27-.04-.532-.117-.777A2.626 2.626 0 0 0 30 9.5V4.625A2.625 2.625 0 0 0 27.375 2H4.625A2.625 2.625 0 0 0 2 4.625V9.5Zm2.625.625A.625.625 0 0 1 4 9.5V4.625C4 4.28 4.28 4 4.625 4h22.75c.345 0 .625.28.625.625V9.5c0 .345-.28.625-.625.625H4.625Zm1 2.625c0-.345.28-.625.625-.625h19.5c.345 0 .625.28.625.625v14.625c0 .345-.28.625-.625.625H6.25a.625.625 0 0 1-.625-.625V12.75Z" clip-rule="evenodd"/></svg>