<svg xmlns="http://www.w3.org/2000/svg" width="16" height="16" fill="none" class="persona-icon" viewBox="0 0 16 16"><path fill="currentColor" fill-rule="evenodd" d="M2.5 2a.5.5 0 0 1 .5.5V13h1.444V8c0-.613.498-1.11 1.112-1.11h1.222c.613 0 1.11.497 1.11 1.11v5h1.445V4.334c0-.614.498-1.111 1.111-1.111h1.223c.613 0 1.11.497 1.11 1.11V13h.723a.5.5 0 0 1 0 1h-11a.5.5 0 0 1-.5-.5v-11a.5.5 0 0 1 .5-.5m9.278 11V4.334a.11.11 0 0 0-.111-.111h-1.223a.11.11 0 0 0-.11.11V13zm-6.334 0H6.89V8a.11.11 0 0 0-.111-.11H5.556a.11.11 0 0 0-.112.11z" clip-rule="evenodd"/></svg>