<svg xmlns="http://www.w3.org/2000/svg" width="16" height="16" fill="none" class="persona-icon" viewBox="0 0 16 16"><path fill="currentColor" fill-rule="evenodd" d="M2.5 2a.5.5 0 0 1 .5.5V13h10.5a.5.5 0 0 1 0 1h-11a.5.5 0 0 1-.5-.5v-11a.5.5 0 0 1 .5-.5" clip-rule="evenodd"/><path fill="currentColor" fill-rule="evenodd" d="M4.444 8c0-.614.498-1.111 1.112-1.111h1.222c.613 0 1.11.497 1.11 1.111v5.5a.5.5 0 0 1-.5.5H4.945a.5.5 0 0 1-.5-.5zm1.112-.111A.11.11 0 0 0 5.444 8v5H6.89V8a.11.11 0 0 0-.111-.111zM9.333 4.333c0-.613.498-1.11 1.111-1.11h1.223c.613 0 1.11.497 1.11 1.11V13.5a.5.5 0 0 1-.5.5H9.834a.5.5 0 0 1-.5-.5zm1.111-.11a.11.11 0 0 0-.11.11V13h1.444V4.333a.11.11 0 0 0-.111-.11z" clip-rule="evenodd"/></svg>