<svg xmlns="http://www.w3.org/2000/svg" width="24" height="24" fill="none" class="persona-icon" viewBox="0 0 24 24"><path fill="currentColor" fill-rule="evenodd" d="M3.75 3a.75.75 0 0 1 .75.75V19.5h2.167V12c0-.92.746-1.667 1.666-1.667h1.834c.92 0 1.666.746 1.666 1.667v7.5H14v-13c0-.92.746-1.667 1.667-1.667H17.5c.92 0 1.667.747 1.667 1.667v13h1.083a.75.75 0 0 1 0 1.5H3.75a.75.75 0 0 1-.75-.75V3.75A.75.75 0 0 1 3.75 3m13.917 16.5v-13a.167.167 0 0 0-.167-.167h-1.833a.167.167 0 0 0-.167.167v13zm-7.334 0V12a.167.167 0 0 0-.166-.167H8.333a.167.167 0 0 0-.166.167v7.5z" clip-rule="evenodd"/></svg>