<svg xmlns="http://www.w3.org/2000/svg" width="32" height="32" fill="none" class="persona-icon" viewBox="0 0 32 32"><path fill="currentColor" fill-rule="evenodd" d="M5 4a1 1 0 0 1 1 1v21h2.889V16c0-1.227.995-2.222 2.222-2.222h2.445c1.227 0 2.222.995 2.222 2.222v10h2.889V8.667c0-1.228.995-2.223 2.222-2.223h2.444c1.228 0 2.223.995 2.223 2.223V26H27a1 1 0 1 1 0 2H5a1 1 0 0 1-1-1V5a1 1 0 0 1 1-1m8.778 22V16c0-.123-.1-.222-.222-.222H11.11c-.123 0-.222.1-.222.222v10zm9.778 0V8.667c0-.123-.1-.223-.223-.223H20.89c-.123 0-.222.1-.222.223V26z" clip-rule="evenodd"/></svg>