<svg xmlns="http://www.w3.org/2000/svg" width="16" height="16" fill="none" class="persona-icon" viewBox="0 0 16 16"><path fill="currentColor" fill-rule="evenodd" d="M1.637 5.44a.5.5 0 0 0 0 .707l2.988 2.988.017.016.58.58a.5.5 0 0 0 .438.14l1.91-.327 3.365 3.366a1.396 1.396 0 0 0 1.975-1.975L9.544 7.57 9.87 5.66a.5.5 0 0 0-.139-.438l-.597-.598-.014-.013-2.974-2.974a.5.5 0 0 0-.707 0zm6.437-.462L4.978 8.074l-2.28-2.28.56-.561.914.914a.5.5 0 1 0 .707-.707l-.914-.914.56-.56.915.913a.5.5 0 0 0 .707-.707l-.914-.914.56-.56z" clip-rule="evenodd"/></svg>