<svg xmlns="http://www.w3.org/2000/svg" width="16" height="16" fill="none" class="persona-icon" viewBox="0 0 16 16"><path fill="currentColor" fill-rule="evenodd" d="M1.637 5.44 5.44 1.637a.5.5 0 0 1 .707 0L9.121 4.61l.014.013.597.598a.5.5 0 0 1 .14.438l-.328 1.909 3.366 3.366a1.396 1.396 0 1 1-1.975 1.975L7.57 9.544 5.66 9.87a.5.5 0 0 1-.438-.14l-.58-.58-.017-.016-2.988-2.988a.5.5 0 0 1 0-.707m6.437-.462-2.28-2.28-.561.56.914.914a.5.5 0 0 1-.707.707l-.914-.914-.56.56.913.915a.5.5 0 0 1-.707.707l-.914-.914-.56.56 2.28 2.28z" clip-rule="evenodd"/></svg>