<svg xmlns="http://www.w3.org/2000/svg" width="20" height="20" fill="none" class="persona-icon" viewBox="0 0 20 20"><path fill="currentColor" fill-rule="evenodd" d="M2.69 7.036a.625.625 0 0 0 0 .884l3.415 3.414.019.018.663.665a.63.63 0 0 0 .548.174l2.154-.37 3.828 3.828a1.65 1.65 0 0 0 2.332-2.333L11.822 9.49l.37-2.155a.63.63 0 0 0-.174-.547l-.683-.683-.014-.014-3.4-3.4a.625.625 0 0 0-.885 0zm2.897.884a.625.625 0 0 0 .884-.884L5.465 6.029l.564-.565 1.007 1.007a.625.625 0 0 0 .884-.884L6.913 4.58l.565-.565 2.53 2.53-3.462 3.463-2.53-2.53.565-.565z" clip-rule="evenodd"/></svg>