<svg xmlns="http://www.w3.org/2000/svg" width="24" height="24" fill="none" class="persona-icon" viewBox="0 0 24 24"><path fill="currentColor" fill-rule="evenodd" d="m2.885 8.317 3.62-3.62.001-.001.002-.002 1.81-1.81a.75.75 0 0 1 1.06 0l4.257 4.257.012.012.853.854a.75.75 0 0 1 .209.657l-.465 2.709 4.796 4.795a2.03 2.03 0 0 1-2.872 2.872l-4.795-4.796-2.71.465a.75.75 0 0 1-.656-.21l-.834-.834-.02-.018-4.268-4.269a.75.75 0 0 1 0-1.06m4.152-2.03-.75.75 1.28 1.281a.75.75 0 0 1-1.06 1.06l-1.281-1.28-.75.75 3.207 3.207 4.373-4.372-3.208-3.207-.75.75 1.28 1.28a.75.75 0 0 1-1.06 1.061z" clip-rule="evenodd"/></svg>