<svg xmlns="http://www.w3.org/2000/svg" width="32" height="32" fill="none" class="persona-icon" viewBox="0 0 32 32"><path fill="currentColor" fill-rule="evenodd" d="m3.274 10.88 5.052-5.053.037-.036 2.517-2.517a1 1 0 0 1 1.414 0L18.25 9.23l.019.018 1.195 1.195a1 1 0 0 1 .278.876l-.655 3.818 6.732 6.733a2.793 2.793 0 1 1-3.95 3.95l-6.732-6.733-3.817.654a1 1 0 0 1-.877-.278l-1.166-1.167-.028-.028-5.976-5.975a1 1 0 0 1 0-1.415m5.778-2.95L7.93 9.052 9.76 10.88a1 1 0 0 1-1.415 1.414l-1.828-1.828-1.12 1.12 4.56 4.562 6.192-6.192-4.561-4.561-1.121 1.121 1.828 1.828a1 1 0 0 1-1.415 1.414z" clip-rule="evenodd"/></svg>