<svg xmlns="http://www.w3.org/2000/svg" width="20" height="20" fill="none" class="persona-icon" viewBox="0 0 20 20"><path fill="currentColor" fill-rule="evenodd" d="M2.457 6.143C2.457 4.959 3.417 4 4.6 4h10.8c1.183 0 2.143.96 2.143 2.143v1.543a.6.6 0 0 1-.6.6 1.714 1.714 0 0 0 0 3.428.6.6 0 0 1 .6.6v1.543c0 1.184-.96 2.143-2.143 2.143H4.6a2.143 2.143 0 0 1-2.143-2.143v-1.543a.6.6 0 0 1 .6-.6 1.714 1.714 0 0 0 0-3.428.6.6 0 0 1-.6-.6zM4.6 5.2a.943.943 0 0 0-.943.943v1.005a2.915 2.915 0 0 1 0 5.704v1.005c0 .52.422.943.943.943h10.8c.52 0 .943-.422.943-.943v-1.005a2.915 2.915 0 0 1 0-5.704V6.143A.943.943 0 0 0 15.4 5.2z" clip-rule="evenodd"/><path fill="currentColor" fill-rule="evenodd" d="M7.262 12.808a.6.6 0 0 1 0-.849l4.629-4.628a.6.6 0 0 1 .848.848L8.11 12.808a.6.6 0 0 1-.848 0" clip-rule="evenodd"/><path fill="currentColor" d="M9.25 8.193a1.126 1.126 0 1 1-2.253 0 1.126 1.126 0 0 1 2.252 0M13.002 11.946a1.126 1.126 0 1 1-2.252 0 1.126 1.126 0 0 1 2.252 0"/></svg>