<svg xmlns="http://www.w3.org/2000/svg" width="32" height="32" fill="none" class="persona-icon" viewBox="0 0 32 32"><path fill="currentColor" d="M3.429 9.572A3.571 3.571 0 0 1 7 6h18a3.571 3.571 0 0 1 3.572 3.572v2.57a1 1 0 0 1-1 1 2.857 2.857 0 0 0 0 5.715 1 1 0 0 1 1 1v2.572A3.571 3.571 0 0 1 25 26H7a3.571 3.571 0 0 1-3.571-3.571v-2.572a1 1 0 0 1 1-1 2.858 2.858 0 0 0 0-5.714 1 1 0 0 1-1-1V9.57ZM7 8c-.868 0-1.571.704-1.571 1.572v1.674a4.859 4.859 0 0 1 0 9.508v1.675C5.429 23.296 6.132 24 7 24h18c.868 0 1.572-.704 1.572-1.571v-1.675a4.859 4.859 0 0 1 0-9.508V9.571C26.572 8.704 25.868 8 25 8H7Z"/><path fill="currentColor" d="M11.437 20.68a1 1 0 0 1 0-1.414l7.714-7.715a1 1 0 0 1 1.415 1.415L12.85 20.68a1 1 0 0 1-1.414 0ZM14.748 12.988a1.877 1.877 0 1 1-3.753 0 1.877 1.877 0 0 1 3.753 0ZM21.003 19.243a1.877 1.877 0 1 1-3.753 0 1.877 1.877 0 0 1 3.753 0Z"/></svg>