<svg xmlns="http://www.w3.org/2000/svg" width="16" height="16" fill="none" class="persona-icon" viewBox="0 0 16 16"><path fill="currentColor" fill-rule="evenodd" d="M6.278 3.695a1.722 1.722 0 1 1 3.444 0 1.722 1.722 0 0 1-3.444 0M8 2.973a.722.722 0 1 0 0 1.445.722.722 0 0 0 0-1.445M5.408 6.483a2.44 2.44 0 0 1 1.859-.857h1.466c.715 0 1.395.313 1.86.857.114.134.202.287.262.45h.812c.613 0 1.11.497 1.11 1.11v2.559a1.723 1.723 0 1 1-1 0V8.044a.11.11 0 0 0-.11-.111h-.787A1.59 1.59 0 0 1 9.356 9.07H8.5v1.532a1.723 1.723 0 1 1-1 0V9.07h-.856c-.72 0-1.329-.48-1.523-1.137h-.788a.11.11 0 0 0-.11.11v2.559a1.723 1.723 0 1 1-1 0V8.044c0-.614.497-1.111 1.11-1.111h.812c.06-.163.149-.316.263-.45m1.859.143c-.423 0-.824.185-1.098.506a.47.47 0 0 0-.113.307v.042c0 .325.263.589.588.589h2.712a.59.59 0 0 0 .589-.589V7.44a.47.47 0 0 0-.114-.307 1.44 1.44 0 0 0-1.098-.506z" clip-rule="evenodd"/></svg>