<svg xmlns="http://www.w3.org/2000/svg" width="20" height="20" fill="none" class="persona-icon" viewBox="0 0 20 20"><path fill="currentColor" fill-rule="evenodd" d="M7.953 4.989a2.047 2.047 0 1 1 4.094 0 2.047 2.047 0 0 1-4.094 0M10 4.192a.797.797 0 1 0 0 1.594.797.797 0 0 0 0-1.594M6.951 8.204a2.89 2.89 0 0 1 2.196-1.012h1.706c.845 0 1.648.37 2.196 1.012q.196.23.303.508h.914c.738 0 1.336.598 1.336 1.336v2.945a2.048 2.048 0 1 1-1.25 0v-2.945a.086.086 0 0 0-.086-.086h-.883a1.89 1.89 0 0 1-1.805 1.324h-.953v1.707a2.048 2.048 0 1 1-1.25 0v-1.707h-.953a1.89 1.89 0 0 1-1.805-1.324h-.883a.086.086 0 0 0-.087.086v2.945a2.048 2.048 0 1 1-1.25 0v-2.945c0-.738.599-1.336 1.337-1.336h.914c.071-.184.173-.356.303-.508m2.196.238c-.479 0-.934.21-1.245.574a.5.5 0 0 0-.121.328v.05c0 .355.287.642.641.642h3.156a.64.64 0 0 0 .642-.642v-.05a.5.5 0 0 0-.122-.328 1.64 1.64 0 0 0-1.245-.574z" clip-rule="evenodd"/></svg>