<svg xmlns="http://www.w3.org/2000/svg" width="32" height="32" fill="none" class="persona-icon" viewBox="0 0 32 32"><path fill="currentColor" fill-rule="evenodd" d="M12.556 7.391a3.444 3.444 0 1 1 6.888 0 3.444 3.444 0 0 1-6.888 0M16 5.947a1.444 1.444 0 1 0 0 2.889 1.444 1.444 0 0 0 0-2.89M10.816 12.965a4.89 4.89 0 0 1 3.718-1.714h2.932c1.43 0 2.79.627 3.718 1.714.23.269.406.574.526.9h1.623c1.228 0 2.223.995 2.223 2.222v5.116a3.446 3.446 0 0 1-1 6.741 3.444 3.444 0 0 1-1-6.741v-5.116c0-.122-.1-.222-.223-.222H21.76a3.18 3.18 0 0 1-3.047 2.275H17v3.063a3.446 3.446 0 0 1-1 6.741 3.444 3.444 0 0 1-1-6.741V18.14h-1.712a3.18 3.18 0 0 1-3.047-2.275H8.667c-.123 0-.223.1-.223.222v5.116a3.446 3.446 0 0 1-1 6.741 3.444 3.444 0 0 1-1-6.741v-5.116c0-1.227.995-2.222 2.223-2.222h1.624c.119-.326.296-.631.525-.9m3.718.286c-.845 0-1.648.37-2.197 1.013a.94.94 0 0 0-.226.613v.086c0 .65.527 1.177 1.177 1.177h5.424c.65 0 1.177-.527 1.177-1.177v-.086a.94.94 0 0 0-.226-.613 2.89 2.89 0 0 0-2.197-1.013z" clip-rule="evenodd"/></svg>