<svg xmlns="http://www.w3.org/2000/svg" width="20" height="20" fill="none" class="persona-icon" viewBox="0 0 20 20"><path fill="currentColor" fill-rule="evenodd" d="M5.784 4.3c-.82 0-1.483.664-1.483 1.483v1.845a.625.625 0 1 1-1.25 0V5.783A2.733 2.733 0 0 1 5.784 3.05H7.63a.625.625 0 1 1 0 1.25zm-2.108 7.886c.345 0 .625.28.625.625v1.406c0 .819.664 1.483 1.483 1.483H7.63a.625.625 0 0 1 0 1.25H5.784a2.733 2.733 0 0 1-2.733-2.733V12.81c0-.345.28-.625.625-.625m3.642-5.494c.346 0 .625.28.625.625v1.15a.625.625 0 1 1-1.25 0v-1.15c0-.346.28-.625.625-.625m-.033 5.526a.625.625 0 0 1 .875.04l.006.006q.015.015.06.051c.06.049.16.12.307.196.289.148.766.314 1.469.314s1.18-.166 1.47-.314a1.8 1.8 0 0 0 .366-.247l.006-.006a.625.625 0 0 1 .923.843l-.465-.418.465.418-.002.002-.002.002-.006.006-.014.015a1.6 1.6 0 0 1-.183.165 3 3 0 0 1-.518.332c-.458.235-1.13.452-2.04.452s-1.582-.217-2.04-.452a3 3 0 0 1-.518-.332 2 2 0 0 1-.183-.165l-.014-.015-.006-.006-.002-.002-.001-.001c-.001-.001-.001-.001.452-.408l-.453.407a.625.625 0 0 1 .048-.883M10 6.692c.346 0 .625.28.625.625v3.066c0 .345-.28.625-.625.625h-.766a.625.625 0 0 1 0-1.25h.141V7.317c0-.346.28-.625.625-.625m1.747-3.017c0-.345.28-.625.625-.625h1.845a2.733 2.733 0 0 1 2.733 2.733v1.845a.625.625 0 1 1-1.25 0V5.783c0-.819-.664-1.483-1.484-1.483h-1.844a.625.625 0 0 1-.625-.625m4.578 8.511c.345 0 .625.28.625.625v1.406a2.733 2.733 0 0 1-2.734 2.733h-1.844a.625.625 0 1 1 0-1.25h1.845c.819 0 1.483-.664 1.483-1.483V12.81c0-.345.28-.625.625-.625m-3.641-5.494c.345 0 .625.28.625.625v1.15a.625.625 0 1 1-1.25 0v-1.15c0-.346.28-.625.625-.625" clip-rule="evenodd"/></svg>