<svg xmlns="http://www.w3.org/2000/svg" width="24" height="24" fill="none" class="persona-icon" viewBox="0 0 24 24"><path fill="currentColor" fill-rule="evenodd" d="M6.5 4.5a2 2 0 0 0-2 2v2.406a.75.75 0 1 1-1.5 0V6.5A3.5 3.5 0 0 1 6.5 3h2.406a.75.75 0 0 1 0 1.5zM3.75 14.917a.75.75 0 0 1 .75.75V17.5a2 2 0 0 0 2 2h2.406a.75.75 0 0 1 0 1.5H6.5A3.5 3.5 0 0 1 3 17.5v-1.833a.75.75 0 0 1 .75-.75M8.5 7.75a.75.75 0 0 1 .75.75V10a.75.75 0 0 1-1.5 0V8.5a.75.75 0 0 1 .75-.75m5.95 7.24-.01.01q-.02.022-.082.071a2.5 2.5 0 0 1-.412.262c-.386.198-1.019.417-1.946.417s-1.56-.22-1.946-.417a2.5 2.5 0 0 1-.412-.262 1 1 0 0 1-.081-.07l-.01-.01A.75.75 0 0 0 8.44 16L9 15.5l-.558.501v.001l.002.002.003.003.007.007.018.019q.02.021.053.052.065.064.179.156c.152.123.372.276.665.426.588.302 1.455.583 2.631.583s2.043-.28 2.631-.583c.293-.15.512-.303.665-.426a3 3 0 0 0 .232-.208l.018-.02.007-.006.003-.004h.001V16L15 15.5l.558.5a.75.75 0 0 0-1.109-1.01M9.557 15v-.001h-.001v-.001l-.003-.002-.002-.003-.002-.002.007.008M12 7.75a.75.75 0 0 1 .75.75v4a.75.75 0 0 1-.75.75h-1a.75.75 0 0 1 0-1.5h.25V8.5a.75.75 0 0 1 .75-.75m2.344-4a.75.75 0 0 1 .75-.75H17.5A3.5 3.5 0 0 1 21 6.5v2.406a.75.75 0 1 1-1.5 0V6.5a2 2 0 0 0-2-2h-2.406a.75.75 0 0 1-.75-.75m5.906 11.167a.75.75 0 0 1 .75.75V17.5a3.5 3.5 0 0 1-3.5 3.5h-2.406a.75.75 0 1 1 0-1.5H17.5a2 2 0 0 0 2-2v-1.833a.75.75 0 0 1 .75-.75M15.5 7.75a.75.75 0 0 1 .75.75V10a.75.75 0 0 1-1.5 0V8.5a.75.75 0 0 1 .75-.75" clip-rule="evenodd"/></svg>