<svg xmlns="http://www.w3.org/2000/svg" width="24" height="24" fill="none" class="persona-icon" viewBox="0 0 24 24"><path fill="currentColor" fill-rule="evenodd" d="M6.5 4.5a2 2 0 0 0-2 2v2.406a.75.75 0 1 1-1.5 0V6.5A3.5 3.5 0 0 1 6.5 3h2.406a.75.75 0 0 1 0 1.5zM3.75 14.917a.75.75 0 0 1 .75.75V17.5a2 2 0 0 0 2 2h2.406a.75.75 0 0 1 0 1.5H6.5A3.5 3.5 0 0 1 3 17.5v-1.833a.75.75 0 0 1 .75-.75M8.5 7.75a.75.75 0 0 1 .75.75V10a.75.75 0 0 1-1.5 0V8.5a.75.75 0 0 1 .75-.75m5.95 7.24A.75.75 0 0 1 15.557 16L15 15.5l.558.501v.001l-.002.002-.003.003-.007.007-.018.019-.053.052a3 3 0 0 1-.179.156 4 4 0 0 1-.665.426c-.588.302-1.455.583-2.631.583s-2.043-.28-2.631-.583a4 4 0 0 1-.665-.426 3 3 0 0 1-.232-.208l-.018-.02-.007-.006-.003-.004h-.001V16L9 15.5l-.558.5a.75.75 0 0 1 1.109-1.01l.01.01q.02.022.081.071c.081.065.217.162.412.262.386.198 1.019.417 1.946.417s1.56-.22 1.946-.417c.195-.1.33-.197.412-.262q.06-.05.081-.07zM9.557 15l-.001-.001-.006-.007-.001-.001.002.002.002.003.002.002h.001v.001M12 7.75a.75.75 0 0 1 .75.75v4a.75.75 0 0 1-.75.75h-1a.75.75 0 0 1 0-1.5h.25V8.5a.75.75 0 0 1 .75-.75m2.344-4a.75.75 0 0 1 .75-.75H17.5A3.5 3.5 0 0 1 21 6.5v2.406a.75.75 0 1 1-1.5 0V6.5a2 2 0 0 0-2-2h-2.406a.75.75 0 0 1-.75-.75m5.906 11.167a.75.75 0 0 1 .75.75V17.5a3.5 3.5 0 0 1-3.5 3.5h-2.406a.75.75 0 1 1 0-1.5H17.5a2 2 0 0 0 2-2v-1.833a.75.75 0 0 1 .75-.75M15.5 7.75a.75.75 0 0 1 .75.75V10a.75.75 0 0 1-1.5 0V8.5a.75.75 0 0 1 .75-.75" clip-rule="evenodd"/></svg>