<svg xmlns="http://www.w3.org/2000/svg" width="32" height="32" fill="none" class="persona-icon" viewBox="0 0 32 32"><path fill="currentColor" fill-rule="evenodd" d="M8.667 6A2.667 2.667 0 0 0 6 8.667v3.208a1 1 0 1 1-2 0V8.667A4.667 4.667 0 0 1 8.667 4h3.208a1 1 0 1 1 0 2zm10.458-1a1 1 0 0 1 1-1h3.208A4.667 4.667 0 0 1 28 8.667v3.208a1 1 0 1 1-2 0V8.667A2.667 2.667 0 0 0 23.333 6h-3.208a1 1 0 0 1-1-1m-7.791 5.333a1 1 0 0 1 1 1v2a1 1 0 0 1-2 0v-2a1 1 0 0 1 1-1m4.666 0a1 1 0 0 1 1 1v5.334a1 1 0 0 1-1 1h-1.333a1 1 0 1 1 0-2H15v-4.334a1 1 0 0 1 1-1m4.667 0a1 1 0 0 1 1 1v2a1 1 0 1 1-2 0v-2a1 1 0 0 1 1-1m-9.334 9.59a1 1 0 0 1 1.415.078q.027.027.109.094c.108.087.289.215.548.349.515.264 1.359.556 2.595.556s2.081-.292 2.595-.556c.26-.134.44-.262.55-.35a2 2 0 0 0 .121-.106 1 1 0 0 1 1.479 1.346L20 20.667c.745.667.744.668.744.668l-.003.003-.003.004-.01.01-.012.013-.011.012-.07.07a4 4 0 0 1-.24.208 5.3 5.3 0 0 1-.887.568c-.784.403-1.94.777-3.508.777-1.567 0-2.723-.374-3.508-.777a5.3 5.3 0 0 1-.887-.568 4 4 0 0 1-.333-.303l-.01-.01-.003-.004-.002-.002c0-.001-.001-.002.743-.67l-.744.668a1 1 0 0 1 .077-1.412M5 19.888a1 1 0 0 1 1 1v2.444A2.667 2.667 0 0 0 8.667 26h3.208a1 1 0 1 1 0 2H8.667A4.667 4.667 0 0 1 4 23.333V20.89a1 1 0 0 1 1-1m22 0a1 1 0 0 1 1 1v2.444A4.667 4.667 0 0 1 23.333 28h-3.208a1 1 0 1 1 0-2h3.208A2.667 2.667 0 0 0 26 23.333V20.89a1 1 0 0 1 1-1" clip-rule="evenodd"/></svg>