<svg xmlns="http://www.w3.org/2000/svg" width="32" height="32" fill="none"><path fill="#000" fill-rule="evenodd" d="M6.667 3a3.667 3.667 0 1 0 1.787 6.869l2.416 2.416A6.305 6.305 0 0 0 9.668 16c0 1.388.446 2.672 1.204 3.715l-2.416 2.416a3.667 3.667 0 1 0 1.414 1.414l2.416-2.415A6.305 6.305 0 0 0 16 22.333a6.305 6.305 0 0 0 3.715-1.203l2.416 2.416a3.667 3.667 0 1 0 1.414-1.414l-2.415-2.416A6.305 6.305 0 0 0 22.333 16a6.305 6.305 0 0 0-1.203-3.715l2.416-2.416a3.667 3.667 0 1 0-1.414-1.414l-2.416 2.415A6.305 6.305 0 0 0 16 9.668a6.305 6.305 0 0 0-3.715 1.204L9.869 8.454A3.667 3.667 0 0 0 6.667 3ZM5 6.667a1.667 1.667 0 1 1 3.333 0 1.667 1.667 0 0 1-3.333 0ZM11.667 16a4.333 4.333 0 1 1 8.666 0 4.333 4.333 0 0 1-8.666 0Zm-5 7.667a1.667 1.667 0 1 0 0 3.333 1.667 1.667 0 0 0 0-3.333Zm17-17a1.667 1.667 0 1 1 3.333 0 1.667 1.667 0 0 1-3.333 0Zm1.666 17a1.667 1.667 0 1 0 0 3.333 1.667 1.667 0 0 0 0-3.333Z" clip-rule="evenodd"/></svg>