<svg xmlns="http://www.w3.org/2000/svg" width="16" height="16" fill="none" class="persona-icon" viewBox="0 0 16 16"><path fill="currentColor" fill-rule="evenodd" d="M5.429 2.714c-.79 0-1.429.64-1.429 1.428v7.715c0 .789.64 1.428 1.429 1.428h1.308a.5.5 0 0 1 0 1H5.43A2.43 2.43 0 0 1 3 11.857V4.142A2.43 2.43 0 0 1 5.43 1.714H8.34c.495 0 .968.205 1.306.567L12.52 5.36c.142.152.255.327.336.515a.5.5 0 0 1-.46.697H9.93c-.986 0-1.786-.8-1.786-1.786V2.714zm2.071 8.5a3.714 3.714 0 1 1 7.429 0 3.714 3.714 0 0 1-7.429 0m1.643-8.007v1.578c0 .434.352.786.786.786h1.42zM11.214 8.5a2.714 2.714 0 1 0 0 5.429 2.714 2.714 0 0 0 0-5.429m0 .928a.5.5 0 0 1 .5.5v1.08l.818.817a.5.5 0 1 1-.707.707l-1.11-1.11V9.927a.5.5 0 0 1 .5-.5" clip-rule="evenodd"/></svg>