<svg xmlns="http://www.w3.org/2000/svg" width="20" height="20" fill="none" class="persona-icon" viewBox="0 0 20 20"><path fill="currentColor" fill-rule="evenodd" d="M4.712 5.062c0-1.037.86-1.877 1.92-1.877h3.604v2.7c0 1.236 1.025 2.239 2.29 2.239h3.368c.241 0 .46-.14.556-.357a.582.582 0 0 0-.113-.64L12.12 2.71A2.315 2.315 0 0 0 10.447 2H6.632C4.902 2 3.5 3.37 3.5 5.062v9.876C3.5 16.63 4.902 18 6.632 18h1.684a.6.6 0 0 0 .606-.593.6.6 0 0 0-.606-.592H6.632c-1.06 0-1.92-.84-1.92-1.877zm9.718 1.876h-1.904a1.066 1.066 0 0 1-1.078-1.053V4.023z" clip-rule="evenodd"/><path fill="currentColor" fill-rule="evenodd" d="M8.5 13.5a4.5 4.5 0 1 1 9 0 4.5 4.5 0 0 1-9 0m4.5-3.312a3.313 3.313 0 1 0 0 6.625 3.313 3.313 0 0 0 0-6.625" clip-rule="evenodd"/><path fill="currentColor" fill-rule="evenodd" d="M13 11.344c.328 0 .594.266.594.594v1.316l.998.998a.594.594 0 1 1-.84.84l-1.346-1.346v-1.809c0-.327.266-.593.594-.593" clip-rule="evenodd"/></svg>