<svg xmlns="http://www.w3.org/2000/svg" width="32" height="32" fill="none" class="persona-icon" viewBox="0 0 32 32"><path fill="currentColor" fill-rule="evenodd" d="M10.857 5.429A2.857 2.857 0 0 0 8 8.285v15.428a2.857 2.857 0 0 0 2.857 2.857h2.617a1 1 0 1 1 0 2h-2.617A4.857 4.857 0 0 1 6 23.714V8.286a4.857 4.857 0 0 1 4.857-4.857h5.826a3.57 3.57 0 0 1 2.61 1.134l5.746 6.156c.284.305.51.654.672 1.03a1 1 0 0 1-.946 1.394h-4.908a3.57 3.57 0 0 1-3.571-3.572V5.43zm4.143 17a7.428 7.428 0 1 1 14.857 0 7.428 7.428 0 0 1-14.857 0M22.429 17a5.428 5.428 0 1 0 0 10.857 5.428 5.428 0 0 0 0-10.857M18.286 6.415V9.57c0 .868.703 1.572 1.571 1.572H22.7zm4.142 12.442a1 1 0 0 1 1 1v2.157l1.636 1.636a1 1 0 1 1-1.414 1.414l-2.221-2.221v-2.986a1 1 0 0 1 1-1" clip-rule="evenodd"/></svg>