<svg xmlns="http://www.w3.org/2000/svg" width="16" height="16" fill="none" class="persona-icon" viewBox="0 0 16 16"><path fill="currentColor" fill-rule="evenodd" d="M10.999 2.715h-.58c-.07-.564-.55-1-1.133-1H6.714c-.583 0-1.064.436-1.134 1h-.579A2 2 0 0 0 3 4.716v7.568c0 1.106.896 2.002 2.001 2.002H11A2 2 0 0 0 13 12.285V4.716a2 2 0 0 0-2.001-2m-4.497 6.57v1.93a.5.5 0 1 1-1 0v-1.93a.5.5 0 1 1 1 0m.212-6.57h2.572c.079 0 .143.063.143.142v.716a.143.143 0 0 1-.143.143H6.714a.143.143 0 0 1-.143-.143v-.716c0-.079.064-.143.143-.143M8.5 8.642v2.571a.5.5 0 0 1-1 0V8.643a.5.5 0 1 1 1 0M10.5 7.357v3.857a.5.5 0 0 1-1 0V7.357a.5.5 0 1 1 1 0" clip-rule="evenodd"/></svg>