<svg xmlns="http://www.w3.org/2000/svg" width="24" height="24" fill="none" class="persona-icon" viewBox="0 0 24 24"><path fill="currentColor" fill-rule="evenodd" d="M16.795 3.6h-.97a1.78 1.78 0 0 0-1.77-1.6h-4.11c-.922 0-1.68.702-1.77 1.6h-.97a3.15 3.15 0 0 0-3.15 3.15v12.1A3.15 3.15 0 0 0 7.206 22h9.59a3.15 3.15 0 0 0 3.15-3.15V6.75a3.15 3.15 0 0 0-3.15-3.15m-7.24 10.456v3.083a.75.75 0 1 1-1.5 0v-3.083a.75.75 0 0 1 1.5 0M9.946 3.5h4.11c.154 0 .278.124.278.278v1.144a.28.28 0 0 1-.277.278H9.944a.28.28 0 0 1-.277-.278V3.778c0-.154.124-.278.277-.278m2.806 9.528v4.11a.75.75 0 1 1-1.5 0v-4.11a.75.75 0 0 1 1.5 0m3.194-2.056v6.167a.75.75 0 1 1-1.5 0v-6.167a.75.75 0 0 1 1.5 0" clip-rule="evenodd"/></svg>