<svg xmlns="http://www.w3.org/2000/svg" width="24" height="24" fill="none" class="persona-icon" viewBox="0 0 24 24"><path fill="currentColor" fill-rule="evenodd" d="M16.795 3.6a3.15 3.15 0 0 1 3.15 3.15v12.1a3.15 3.15 0 0 1-3.15 3.15h-9.59a3.15 3.15 0 0 1-3.15-3.15V6.75a3.15 3.15 0 0 1 3.15-3.15h.97c.09-.898.848-1.6 1.77-1.6h4.11c.922 0 1.68.702 1.77 1.6zm-7.24 10.456a.75.75 0 1 0-1.5 0v3.083a.75.75 0 0 0 1.5 0zM9.946 3.5a.28.28 0 0 0-.278.278v1.144c0 .154.124.278.277.278h4.111a.28.28 0 0 0 .278-.278V3.778a.28.28 0 0 0-.277-.278zm2.806 9.528a.75.75 0 1 0-1.5 0v4.11a.75.75 0 0 0 1.5 0zm3.194-2.056a.75.75 0 1 0-1.5 0v6.167a.75.75 0 0 0 1.5 0z" clip-rule="evenodd"/></svg>