<svg xmlns="http://www.w3.org/2000/svg" width="32" height="32" fill="none" class="persona-icon" viewBox="0 0 32 32"><path fill="currentColor" fill-rule="evenodd" d="M21.998 5.43A4 4 0 0 1 26 9.432V24.57a4 4 0 0 1-4.002 4.002H10.002A4 4 0 0 1 6 24.57V9.432a4 4 0 0 1 4.002-4.002h1.158a2.286 2.286 0 0 1 2.268-2.002h5.143c1.167 0 2.129.874 2.269 2.002zm-8.994 13.142a1 1 0 1 0-2 0v3.857a1 1 0 1 0 2 0zm.425-13.144a.286.286 0 0 0-.286.286v1.432c0 .158.128.285.285.285h5.143a.286.286 0 0 0 .286-.285V5.714a.286.286 0 0 0-.286-.286zM17 17.286a1 1 0 1 0-2 0v5.143a1 1 0 0 0 2 0zm3.997-2.572a1 1 0 1 0-2 0v7.715a1 1 0 1 0 2 0z" clip-rule="evenodd"/></svg>