<svg xmlns="http://www.w3.org/2000/svg" width="32" height="32" fill="none"><path fill="#000" d="M17.572 2.331a.973.973 0 0 1 1.39-.074c.404.37.436 1.001.073 1.412l-.825.931h5.467c2.664 0 4.823 2.194 4.823 4.9V16c0 .552-.44 1-.984 1a.992.992 0 0 1-.984-1V9.5c0-1.602-1.278-2.9-2.855-2.9H18.21l.825.931c.363.41.33 1.043-.073 1.412a.973.973 0 0 1-1.39-.074l-2.304-2.6a1.012 1.012 0 0 1 0-1.338l2.304-2.6Z"/><path fill="#000" fill-rule="evenodd" d="M21.118 25.586c.544 0 .984.447.984 1 0 .552-.44 1-.984 1h-1.392V29c0 .552-.44 1-.984 1a.992.992 0 0 1-.984-1v-1.414H6.86a.992.992 0 0 1-.985-1V15.514H4.484a.992.992 0 0 1-.984-1c0-.552.44-1 .984-1h1.392V12.1c0-.552.44-1 .985-1 .543 0 .984.448.984 1v1.414h10.897c.543 0 .984.448.984 1v11.072h1.392Zm-13.273 0h9.913V15.514H7.845v10.072Z" clip-rule="evenodd"/></svg>