<svg xmlns="http://www.w3.org/2000/svg" width="16" height="16" fill="none" class="persona-icon" viewBox="0 0 16 16"><path fill="currentColor" d="M13.965 1H2.035a1.025 1.025 0 0 0-.952.614A1 1 0 0 0 1 2V14a1.01 1.01 0 0 0 .643.929q.19.075.392.072h11.93a1.025 1.025 0 0 0 .952-.614A1 1 0 0 0 15 14V2a1.01 1.01 0 0 0-.643-.929A1 1 0 0 0 13.965 1M4.19 5.536c-.291 0-.57-.115-.777-.32a1.09 1.09 0 0 1 0-1.544c.206-.205.486-.32.777-.32a1.11 1.11 0 0 1 1.134.643 1.094 1.094 0 0 1-.674 1.496 1.1 1.1 0 0 1-.46.045m1.056 7.182H3.135v-6.3h2.113zm7.62 0h-2.112V9.337c0-.847-.303-1.4-1.07-1.4a1.17 1.17 0 0 0-1.085.763 1.4 1.4 0 0 0-.07.511v3.5H6.415v-6.3h2.112V7.3a2.122 2.122 0 0 1 1.908-1.05c1.41 0 2.43.903 2.43 2.842z"/></svg>