<svg xmlns="http://www.w3.org/2000/svg" width="16" height="16" fill="none"><path fill="#000" d="M13.965 1H2.035a1.026 1.026 0 0 0-.952.614A1.01 1.01 0 0 0 1 2V14a1.01 1.01 0 0 0 .643.929c.125.05.258.074.392.072h11.93a1.025 1.025 0 0 0 .952-.614A1.01 1.01 0 0 0 15 14V2a1.01 1.01 0 0 0-.643-.929A1.026 1.026 0 0 0 13.965 1ZM5.246 12.718H3.134v-6.3h2.112v6.3ZM4.19 5.536c-.291 0-.57-.115-.777-.32a1.089 1.089 0 0 1 0-1.544c.206-.205.486-.32.777-.32a1.112 1.112 0 0 1 1.134.643 1.093 1.093 0 0 1-.273 1.269 1.107 1.107 0 0 1-.86.272Zm8.676 7.182h-2.112V9.337c0-.847-.303-1.4-1.07-1.4a1.167 1.167 0 0 0-1.085.763 1.392 1.392 0 0 0-.07.511v3.5H6.414v-6.3h2.113V7.3a2.123 2.123 0 0 1 1.908-1.05c1.41 0 2.43.903 2.43 2.842v3.626Z"/></svg>