<svg xmlns="http://www.w3.org/2000/svg" width="20" height="20" fill="none" class="persona-icon" viewBox="0 0 20 20"><path fill="currentColor" d="M16.817 2a1.17 1.17 0 0 1 1.088.701q.091.212.095.443v13.712a1.15 1.15 0 0 1-.735 1.062 1.2 1.2 0 0 1-.448.082H3.183a1.17 1.17 0 0 1-1.088-.701q-.091-.212-.095-.443V3.144a1.15 1.15 0 0 1 .735-1.062c.143-.056.295-.084.448-.082zM6.853 15.392v-7.2H4.44v7.2zM5.646 7.184a1.27 1.27 0 0 0 1.296-.735 1.25 1.25 0 0 0-.77-1.71 1.3 1.3 0 0 0-.526-.05 1.26 1.26 0 0 0-.888.365 1.244 1.244 0 0 0 0 1.765c.236.234.555.365.888.365m9.915 8.208v-4.144C15.561 9.032 14.394 8 12.785 8a2.43 2.43 0 0 0-2.181 1.2V8.184H8.189v7.2h2.415v-4a1.6 1.6 0 0 1 .08-.584 1.32 1.32 0 0 1 1.24-.872c.877 0 1.223.632 1.223 1.6v3.864z"/></svg>