<svg xmlns="http://www.w3.org/2000/svg" width="20" height="20" fill="none"><path fill="#000" d="M16.817 2H3.183a1.173 1.173 0 0 0-1.088.701c-.06.14-.093.29-.095.443v13.712a1.154 1.154 0 0 0 .735 1.062c.143.056.295.084.448.082h13.634a1.172 1.172 0 0 0 1.088-.701c.06-.14.093-.29.095-.443V3.144a1.154 1.154 0 0 0-.735-1.062A1.173 1.173 0 0 0 16.817 2ZM6.853 15.392H4.44v-7.2h2.414v7.2ZM5.646 7.184a1.26 1.26 0 0 1-.888-.365 1.244 1.244 0 0 1 0-1.765 1.26 1.26 0 0 1 .888-.366 1.27 1.27 0 0 1 1.296.735 1.25 1.25 0 0 1-.312 1.45 1.265 1.265 0 0 1-.984.311Zm9.915 8.208h-2.414v-3.864c0-.968-.346-1.6-1.223-1.6a1.333 1.333 0 0 0-1.24.872 1.59 1.59 0 0 0-.08.584v4H8.189v-7.2h2.415V9.2c.219-.378.538-.69.922-.901.385-.212.82-.315 1.259-.299 1.61 0 2.776 1.032 2.776 3.248v4.144Z"/></svg>