<svg xmlns="http://www.w3.org/2000/svg" width="24" height="24" fill="none" class="persona-icon" viewBox="0 0 24 24"><path fill="currentColor" d="M19.669 3a1.32 1.32 0 0 1 .934.37 1.3 1.3 0 0 1 .397.917v15.426a1.3 1.3 0 0 1-.827 1.194 1.3 1.3 0 0 1-.504.093H4.331a1.32 1.32 0 0 1-1.224-.79A1.3 1.3 0 0 1 3 19.714V4.287a1.3 1.3 0 0 1 .827-1.195c.16-.063.332-.094.504-.092zM7.102 8.832a1.43 1.43 0 0 0 1.457-.827 1.405 1.405 0 0 0-.35-1.63 1.42 1.42 0 0 0-1.107-.35c-.375 0-.734.147-1 .41a1.4 1.4 0 0 0 0 1.986c.266.263.625.411 1 .411m1.358 9.234v-8.1H5.743v8.1zm9.796 0v-4.662c0-2.493-1.312-3.654-3.123-3.654a2.73 2.73 0 0 0-1.416.336A2.7 2.7 0 0 0 12.68 11.1V9.957H9.963v8.1h2.716v-4.5c-.01-.223.02-.446.09-.657a1.5 1.5 0 0 1 1.394-.981c.988 0 1.377.711 1.377 1.8v4.347z"/></svg>