<svg xmlns="http://www.w3.org/2000/svg" width="24" height="24" fill="none"><path fill="#000" d="M19.669 3H4.331a1.32 1.32 0 0 0-1.224.79A1.298 1.298 0 0 0 3 4.286v15.426a1.298 1.298 0 0 0 .397.917 1.314 1.314 0 0 0 .934.37h15.338a1.32 1.32 0 0 0 1.224-.79 1.3 1.3 0 0 0 .107-.497V4.287a1.3 1.3 0 0 0-.827-1.194A1.32 1.32 0 0 0 19.669 3ZM8.459 18.066H5.744v-8.1H8.46v8.1ZM7.103 8.832c-.375 0-.734-.148-1-.411a1.4 1.4 0 0 1 0-1.986c.266-.263.625-.41 1-.41a1.43 1.43 0 0 1 1.107.35 1.414 1.414 0 0 1 .474 1.053 1.406 1.406 0 0 1-.474 1.054 1.424 1.424 0 0 1-1.107.35Zm11.154 9.234H15.54v-4.347c0-1.089-.39-1.8-1.376-1.8a1.5 1.5 0 0 0-1.394.981c-.071.211-.102.434-.09.657v4.5H9.962v-8.1h2.716V11.1a2.708 2.708 0 0 1 1.038-1.014 2.73 2.73 0 0 1 1.416-.336c1.81 0 3.123 1.161 3.123 3.654v4.662Z"/></svg>