<svg xmlns="http://www.w3.org/2000/svg" width="32" height="32" fill="none" class="persona-icon" viewBox="0 0 32 32"><path fill="currentColor" d="M26.225 4a1.76 1.76 0 0 1 1.245.493A1.74 1.74 0 0 1 28 5.716v20.568a1.73 1.73 0 0 1-.53 1.223 1.75 1.75 0 0 1-1.245.493H5.775a1.76 1.76 0 0 1-1.245-.493A1.74 1.74 0 0 1 4 26.284V5.716a1.73 1.73 0 0 1 1.103-1.593A1.8 1.8 0 0 1 5.775 4zM11.28 24.088v-10.8H7.658v10.8zM9.469 11.776a1.9 1.9 0 0 0 1.476-.467 1.88 1.88 0 0 0 .633-1.405 1.87 1.87 0 0 0-.633-1.405 1.9 1.9 0 0 0-1.476-.467c-.5 0-.979.197-1.332.548a1.866 1.866 0 0 0 0 2.648 1.9 1.9 0 0 0 1.332.548m14.873 12.312v-6.216c0-3.324-1.75-4.872-4.165-4.872a3.64 3.64 0 0 0-1.887.448 3.6 3.6 0 0 0-1.385 1.352v-1.524h-3.621v10.8h3.621v-6a2.4 2.4 0 0 1 .121-.876c.138-.38.39-.71.723-.944a2 2 0 0 1 1.136-.364c1.316 0 1.835.948 1.835 2.4v5.796z"/></svg>