<svg xmlns="http://www.w3.org/2000/svg" width="32" height="32" fill="none"><path fill="#000" d="M26.225 4H5.775a1.76 1.76 0 0 0-1.245.493A1.74 1.74 0 0 0 4 5.716v20.568a1.73 1.73 0 0 0 .53 1.223A1.75 1.75 0 0 0 5.775 28h20.45a1.76 1.76 0 0 0 1.245-.493 1.74 1.74 0 0 0 .53-1.223V5.716a1.732 1.732 0 0 0-.53-1.223A1.752 1.752 0 0 0 26.225 4ZM11.28 24.088H7.658v-10.8h3.622v10.8ZM9.469 11.776c-.5 0-.979-.197-1.332-.548a1.866 1.866 0 0 1 0-2.648 1.89 1.89 0 0 1 1.332-.548 1.906 1.906 0 0 1 1.476.467 1.883 1.883 0 0 1 .633 1.405 1.874 1.874 0 0 1-.633 1.405 1.898 1.898 0 0 1-1.476.467Zm14.873 12.312H20.72v-5.796c0-1.452-.519-2.4-1.835-2.4a2 2 0 0 0-1.136.364 1.981 1.981 0 0 0-.723.944c-.094.282-.135.58-.12.876v6h-3.622v-10.8h3.621V14.8a3.612 3.612 0 0 1 1.384-1.352A3.64 3.64 0 0 1 20.178 13c2.415 0 4.165 1.548 4.165 4.872v6.216Z"/></svg>