<svg xmlns="http://www.w3.org/2000/svg" width="32" height="32" fill="none"><path fill="#000" fill-rule="evenodd" d="M17.569 7.785C17.134 8.489 17 9.017 17 9.187c0 .298-.123.582-.339.779l-.002.002a.973.973 0 0 1-1.073.167A1.038 1.038 0 0 1 15 9.19v-.004c0-.17-.133-.698-.568-1.402a6.335 6.335 0 0 0-1.772-1.876c-.753-.513-1.647-.849-2.67-.838-1.016.012-2.236.366-3.645 1.358-1.913 1.564-2.49 3.343-2.314 5.209.184 1.96 1.213 4.11 2.728 6.237 2.803 3.934 6.998 7.412 9.242 8.88 2.244-1.468 6.44-4.946 9.242-8.88 1.515-2.126 2.544-4.277 2.728-6.237.176-1.866-.401-3.645-2.314-5.21-1.41-.991-2.629-1.345-3.644-1.357-1.024-.011-1.918.325-2.67.838a6.335 6.335 0 0 0-1.773 1.876Zm-1.054 21.067a.97.97 0 0 1-1.013.01c-2.27-1.349-7.14-5.248-10.353-9.757-1.605-2.252-2.874-4.765-3.11-7.266-.243-2.588.633-5.06 3.096-7.06a1 1 0 0 1 .053-.04C6.878 3.541 8.484 3.016 9.967 3c1.481-.016 2.76.476 3.792 1.18A8.35 8.35 0 0 1 16 6.487a8.35 8.35 0 0 1 2.24-2.307c1.033-.704 2.312-1.196 3.793-1.18 1.482.017 3.09.542 4.78 1.738l.052.04c2.463 2 3.34 4.473 3.096 7.06-.235 2.502-1.505 5.015-3.11 7.267-3.204 4.498-8.059 8.389-10.336 9.747Z" clip-rule="evenodd"/></svg>