<svg xmlns="http://www.w3.org/2000/svg" width="40" height="40" fill="none" class="persona-ilustration" viewBox="0 0 40 40"><g clip-path="url(#Pkf3rAt6eI_a)"><g clip-path="url(#Pkf3rAt6eI_b)"><rect width="33.333" height="33.333" x="3.333" y="3.333" fill="#D3EDFF" rx="16.667"/><path fill="#411917" d="M-6.134 7.689c0 4.328-.368 9.737-3.008 15.35-2.685 3.934-3.325 4.917-1.632 9.012.492 1.189-5.604 4.737 2.369 8.839 10.284 4.102 20.538 2.584 18.978-1.634C-.722 27.282 5.74 19.718 1.467 10.576.217 7.904-.493 5.33.6 1.901c.52-1.633 2.42-5.04 5.855-5.595s7.702 1.471 9.282 4.728c-.188-.737-.946-3.193-1.358-3.954-.974-1.8-2.786-3.87-9.933-3.55-6.413.287-10.58 7-10.58 14.159"/><path fill="#EFEFEF" d="M-11.749 30.724c2.694-5.577 10.791-4.978 13.242-8.3 4.666.613 13.235-.147 17.761 1.163S31.417 39.869 33.476 43.54c-.77.918-2.523 5.04-13.183 11.352s-24.908-3.045-34.422-8.605c1.114-3.443-2.162-6.16 2.38-15.564"/><path fill="#FFC7B6" d="M11.508 30.773c.423-1.8.573-4.764.595-6.022C8.265 23.626.702 21.112 1.708 23.177s6.16 6.802 8.542 8.523c.243.441.834.873 1.258-.927"/><path fill="#000" d="M11.508 30.773c.423-1.8.573-4.764.595-6.022C8.265 23.626.702 21.112 1.708 23.177s6.16 6.802 8.542 8.523c.243.441.834.873 1.258-.927" opacity=".5" style="mix-blend-mode:overlay"/><path fill="#FFC7B6" d="M1.493 22.492c.292-2.43-1.985-8.952-3.16-11.909l13.148 7.15.608 7.212c-4.172-.547-10.888-.023-10.596-2.453"/><path fill="#000" d="M1.493 22.492c.292-2.43-1.985-8.952-3.16-11.909l13.148 7.15.608 7.212c-4.172-.547-10.888-.023-10.596-2.453" opacity=".5" style="mix-blend-mode:overlay"/><path fill="#E4E4E4" d="M1.341 21.484c.368-.39.65-.17 1.227.544 0 0 2.287 3.033 4.014 4.734 1.915 1.886 5.358 4.32 5.358 4.32-.085.546-.401 1.835-.962 1.733-3.652-.668-8.643-6.447-10.102-9.325l-.008-.014c-.248-.49-.366-.723-.346-.809.051-.205.327-.66.82-1.183"/><path fill="#FFC7B6" d="m18.604 27.875 1.169 3.94 7.02-1.908-1.683-3.049z"/><path fill="#F8F8F8" d="m32.512 41.977-5.72-12.627c-1.424 1.639-5.1 2.08-7.214 2.282 1.01 5.392 2.62 11.655 3.46 13.197s6.88-1.902 9.474-2.852"/><path fill="#E4E4E4" fill-rule="evenodd" d="m26.843 29.007 5.923 13.076-.19.07c-.64.234-1.496.624-2.443 1.057l-.117.054c-.91.417-1.894.868-2.828 1.247-.972.395-1.903.717-2.65.841-.372.063-.713.078-.996.02-.287-.06-.53-.199-.668-.453-.22-.403-.482-1.099-.767-1.987a62 62 0 0 1-.917-3.21 124 124 0 0 1-1.797-8.055l-.037-.202.204-.02c1.055-.1 2.491-.26 3.838-.597 1.356-.339 2.581-.848 3.253-1.621zM19.8 31.799c.499 2.635 1.136 5.46 1.753 7.828.316 1.214.627 2.307.91 3.19.285.888.539 1.554.74 1.922.07.131.2.222.415.266q.329.067.86-.022c.702-.117 1.601-.426 2.569-.82a72 72 0 0 0 2.816-1.24l.114-.053c.855-.392 1.651-.755 2.282-.998L26.736 29.68c-.773.745-1.992 1.218-3.247 1.532-1.29.322-2.652.485-3.69.587" clip-rule="evenodd"/><path fill="#E4E4E4" d="M29.225 33.668s-1.67-5.392-2.462-5.286a3.5 3.5 0 0 0-.682.222s.823 1.043-2.561 2.025-4.266-.561-4.266-.561-.86.202-.637.912c.224.709.948 5.173 1.398 5.804.562.788 3.166 1.12 5.864.213 3.58-1.203 3.523-3.043 3.346-3.329"/><path fill="#F8F8F8" fill-rule="evenodd" d="M19.983 32.045a.25.25 0 0 1 .305.178l1.009 3.899a.251.251 0 0 1-.486.124l-1.01-3.899a.25.25 0 0 1 .182-.303M21.822 32.13a.25.25 0 0 1 .305.179l1.009 3.898a.251.251 0 0 1-.486.124l-1.01-3.899a.25.25 0 0 1 .182-.302M23.48 31.907a.25.25 0 0 1 .305.179l1.01 3.898a.251.251 0 0 1-.486.124l-1.01-3.899a.25.25 0 0 1 .181-.302M25.096 31.307a.25.25 0 0 1 .315.16l1.237 3.833a.251.251 0 0 1-.478.152l-1.237-3.832a.25.25 0 0 1 .163-.313M26.491 30.334a.25.25 0 0 1 .329.131l1.584 3.702a.251.251 0 0 1-.462.195l-1.584-3.702a.25.25 0 0 1 .133-.326" clip-rule="evenodd"/><path fill="#FFC7B6" d="m-.581 41.172 10.758-17.363c1.407 4.368 3.18 4.78 5.138 4.683L10.009 45.53z"/><path fill="#F8F8F8" d="m-.581 41.172 8.308-14.108c.941 4.813 4.673 5.24 6.63 5.144l-4.348 13.32z"/><path fill="#E4E4E4" fill-rule="evenodd" d="m7.816 26.544.095.484c.46 2.355 1.596 3.616 2.839 4.284 1.252.674 2.635.756 3.598.708l.272-.013-4.496 13.772-10.977-4.516zM-.31 41.08l10.203 4.197 4.203-12.874c-.978.021-2.302-.105-3.524-.762-1.26-.677-2.39-1.908-2.925-4.072z" clip-rule="evenodd"/><path fill="#E4E4E4" d="M7.599 26.277c.457-.346.978-.675 1.26-.37 1.32 4.13 5.769 4.646 6.04 3.935 1.03.343.694 1.373.545 1.802-.396 1.14-.545 2.634-1.084 4.077-.315.565-.312.983-1.009.983-3.36 0-6.397-1.536-8.794-4.868-.57-.792-.154-1.074 0-1.34 1.034-1.783 2.364-3.707 3.042-4.22"/><path fill="#F8F8F8" fill-rule="evenodd" d="M8.184 27.237a.25.25 0 0 1 .078.345l-2.39 3.773a.25.25 0 1 1-.422-.268l2.39-3.772a.25.25 0 0 1 .344-.078M9.344 28.899a.25.25 0 0 1 .078.345l-2.39 3.772a.25.25 0 0 1-.422-.267L9 28.976a.25.25 0 0 1 .344-.077M10.749 30.168a.25.25 0 0 1 .085.343l-2.222 3.7a.25.25 0 1 1-.429-.256l2.223-3.701a.25.25 0 0 1 .343-.086M12.186 30.766a.25.25 0 0 1 .12.332L10.42 35.14a.25.25 0 1 1-.453-.211l1.887-4.043a.25.25 0 0 1 .332-.12M14.017 31.353a.25.25 0 0 1 .164.313l-1.332 4.25a.25.25 0 0 1-.477-.15l1.332-4.25a.25.25 0 0 1 .313-.163" clip-rule="evenodd"/><path fill="#FFC7B6" d="M17.356 7.866C16.962.915 13.18-3.06 11.622-3.966 9.222-5.36 5.424-5.733.964-3.042-3.846-.139-3.473 4.723-1.994 9.591c1.479 4.869 12.695 10.477 15.098 9.552 2.403-.924 4.745-2.588 4.252-11.277"/><path fill="#411917" fill-rule="evenodd" d="M8.285 12.226c.08-.119.24-.15.36-.07.385.261 1.088.604 1.918.763.827.158 1.76.13 2.63-.324a.258.258 0 1 1 .239.458c-1 .523-2.06.547-2.966.374-.904-.173-1.672-.545-2.111-.842a.26.26 0 0 1-.07-.36" clip-rule="evenodd"/><path fill="#FFC7B6" d="M14.579 9.585c0 .302-.567.546-1.267.546s-1.266-.244-1.266-.546c0-.301.567-.546 1.266-.546s1.267.245 1.267.546"/><path fill="#000" d="M14.579 9.585c0 .302-.567.546-1.267.546s-1.266-.244-1.266-.546c0-.301.567-.546 1.266-.546s1.267.245 1.267.546" opacity=".5" style="mix-blend-mode:overlay"/><path fill="#411917" fill-rule="evenodd" d="M12.541 4.984a.26.26 0 0 1 .35.107c.477.898 1.676 2.715 2.127 3.257a.9.9 0 0 1 .229.666 1.13 1.13 0 0 1-.244.582c-.242.32-.622.586-.874.759a.258.258 0 0 1-.292-.427c.261-.18.57-.401.754-.644a.6.6 0 0 0 .14-.312c.007-.08-.013-.176-.11-.294-.479-.574-1.696-2.423-2.187-3.344a.26.26 0 0 1 .107-.35M6.32 5.41a.26.26 0 0 1 .352-.1 5.5 5.5 0 0 0 1.652.59c.64.106 1.192.03 1.519-.33a.259.259 0 0 1 .382.348c-.51.561-1.296.607-1.986.492a6 6 0 0 1-1.819-.65.26.26 0 0 1-.1-.35M14.15 5.901a.26.26 0 0 1 .33-.156c.247.087.64.192 1.006.223.184.015.349.01.48-.018.134-.029.21-.076.25-.125a.258.258 0 1 1 .4.326.93.93 0 0 1-.541.304c-.2.043-.42.045-.631.028a4.8 4.8 0 0 1-1.137-.251.26.26 0 0 1-.157-.33" clip-rule="evenodd"/><path fill="#411917" d="M15.938 3.644c-.96-.173-2.035-.375-2.986-.087-.434.127-.635-.516-.205-.659 1.128-.218 2.217.098 3.297.39.226.077.124.417-.107.357zM6.207 3.684c1.128-.208 2.39-.45 3.503-.127.508.144.75-.601.246-.762-1.321-.242-2.601.133-3.87.48-.266.091-.15.482.122.412z"/><path fill="#411917" d="M5.486 2.039c2.493-1.273 6.593-3.652 6.826-5.221.193-.334-3.357-1.944-6.826-1.077C.65-3.05-1.003.168-1.003 2.93c0 2.652 1.943 7.557 2.918 9.55-.064-.678-.844-3.43-.691-5.415.19-2.48 1.145-3.435 4.262-5.025"/><path fill="#411917" d="M4.445-6.47c-6.413.287-10.58 7-10.58 14.159.255 1.117.78 14.297 2.278 15.636 1.68 1.5 6.574 1.514 6.574-5.846 0-3.135-1.298-5.604-1.976-11.994C.561 3.779 3.02-3.14 6.455-3.694s7.702 1.471 9.282 4.728c-.188-.737-.946-3.193-1.358-3.954-.975-1.8-2.786-3.87-9.934-3.55"/><path fill="#411917" d="M13.953-.333c-.932-.833-3.643-2.723-4.533-3.998.49-.192 1.183-1.721 3.673-.44 2.491 1.28 4.576 7.404 3.726 9.03-.558-2.309-1.172-3.077-2.866-4.592"/></g><path fill="#F8F8F8" fill-rule="evenodd" d="M16.477 17.114c-.238-2.022.33-6.38 2.442-7.123 1.835-.644 3.379-.294 4.314-.082q.211.049.38.082c1.213.215 3.583 0 3.354-2.569-.285-3.211 5.784-3.34 7.425-3.197S36.672 1 35.032.5c2.055.4 2.902 1.594 3.068 2.14.31.834-.434 3.476-2.718 4.104-.776.213-1.43.326-1.958.417-1.416.244-1.928.332-1.46 1.787.642 1.998-2.295 4.993-7.28 4.683-1.824-.113-.19 2.222.856 3.483zM31.906 5.226c-1.177.033-3.58.382-3.775 1.52-.197 1.137-.082 1.912 0 2.157.049-.72.313-2.216.98-2.451.667-.236 2.955-.576 4.016-.717.428-.076 1.394-.332 1.837-.755-1.155.205-1.693.216-2.524.233q-.245.005-.534.013" clip-rule="evenodd" opacity=".75"/><path fill="#375FE9" d="m28.278 13.882-14.593-.105c-.135 1.009-.925 2.237-.339 5.117s1.31 4.086 3.357 5.487c2.636 1.331 7.46.578 9.307-.463 1.846-1.04 2.281-7.124 2.268-10.036"/><path fill="#FFC7B6" d="M26.349 26.83c-.767.891-3.235 1.625-7.753 1.158 0 0-.736-2.666 3.423-3.071 2.674-.26 5.054-1.904 5.054-1.904.29.66.042 2.926-.724 3.817"/><path fill="#000" d="M26.349 26.83c-.767.891-3.235 1.625-7.753 1.158 0 0-.736-2.666 3.423-3.071 2.674-.26 5.054-1.904 5.054-1.904.29.66.042 2.926-.724 3.817" opacity=".5" style="mix-blend-mode:overlay"/><path fill="#FFC7B6" d="M20.499 28.273c.699.028 4.788-1.04 4.788-3.857.478.394 1.412 2.21 1.328 2.636-.084.425-1.631.942-2.04 1.055-.628.117-2.168.357-4.076.166"/><path fill="#FFC7B6" d="M22.319 26.337c.476-.937 2.309-1.428 3.045-1.542.168 1.602-2.804 4.1-6.047 3.355.081-.211 2.525-.875 3.002-1.813"/><mask id="Pkf3rAt6eI_c" width="3" height="7" x="27" y="17" maskUnits="userSpaceOnUse" style="mask-type:alpha"><path fill="#FFC7B6" d="M29.029 19.11c-.146-1.106-.394-1.86-.924-1.861-.374.222-.378.447-.454.807-.061.288.06 3.372.325 5.142.343-.212.699-.225.946-.895.308-.838.219-2.341.107-3.193"/></mask><g mask="url(#Pkf3rAt6eI_c)"><path fill="#FFC7B6" d="M29.029 19.11c-.146-1.106-.394-1.86-.924-1.861-.374.222-.378.447-.454.807-.061.288.06 3.372.325 5.142.343-.212.699-.225.946-.895.308-.838.219-2.341.107-3.193"/><path fill="#000" d="M27.922 18.064c-.223-.517-.303-1.2-.417-1.183l1.02 5.866.073-.202v-1.909c-.13-.742-.548-2.277-.676-2.572" style="mix-blend-mode:overlay"/></g><mask id="Pkf3rAt6eI_d" width="3" height="8" x="26" y="17" maskUnits="userSpaceOnUse" style="mask-type:alpha"><path fill="#FFC7B6" d="M27.551 17.442c-.184-.552-1.017-.494-1.114.247-.143 1.087.717 6.151 1.426 6.6.339.216.593-.19.77-.485.178-.294.271-1.511-.154-3.026-.417-1.483-.609-2.377-.928-3.336"/></mask><g mask="url(#Pkf3rAt6eI_d)"><path fill="#FFC7B6" d="M27.551 17.442c-.184-.552-1.017-.494-1.114.247-.143 1.087.717 6.151 1.426 6.6.339.216.593-.19.77-.485.178-.294.271-1.511-.154-3.026-.417-1.483-.609-2.377-.928-3.336"/><path fill="#000" d="M26.772 18.741c-.121-.522-.147-1.401-.096-1.705.107-.187-.216-.236-.471-.187s-.106 1.215 0 1.793c.314 2.062 1.03 6.11 1.383 5.805.048-.04.237-.65.192-.894l-.13-1.315c-.193-.72-.756-2.974-.878-3.497" style="mix-blend-mode:overlay"/></g><mask id="Pkf3rAt6eI_e" width="3" height="7" x="25" y="19" maskUnits="userSpaceOnUse" style="mask-type:alpha"><path fill="#FFC7B6" d="M26.385 19.229c-.47-.175-.753.194-.714.982.09 1.79.262 5.385 1.065 5.653.804.267.897-.092 1.017-1.053.121-.96-.435-3.118-.435-3.118l-.007-.032c-.326-1.602-.46-2.26-.926-2.433"/></mask><g mask="url(#Pkf3rAt6eI_e)"><path fill="#FFC7B6" d="M26.385 19.229c-.47-.175-.753.194-.714.982.09 1.79.262 5.385 1.065 5.653.804.267.897-.092 1.017-1.053.121-.96-.435-3.118-.435-3.118l-.007-.032c-.326-1.602-.46-2.26-.926-2.433"/><path fill="#000" d="M26.02 20.73c-.104-.756.056-1.455.207-1.71l-.647.117-.22 1.668c.423 1.91 1.284 5.642 1.346 5.29.062-.351.24-.617.189-.962-.199-.983-.772-3.648-.876-4.403" style="mix-blend-mode:overlay"/></g><mask id="Pkf3rAt6eI_f" width="3" height="7" x="25" y="21" maskUnits="userSpaceOnUse" style="mask-type:alpha"><path fill="#FFC7B6" d="M25.817 21.964c-.328-.27-.762.298-.65.999.17 1.053.126 3.478.291 4.115.166.637 1.658.15 1.629-.44l-.178-1.26c-.228-1.025-.764-3.143-1.092-3.414"/></mask><g mask="url(#Pkf3rAt6eI_f)"><path fill="#FFC7B6" d="M25.817 21.964c-.328-.27-.762.298-.65.999.17 1.053.126 3.478.291 4.115.166.637 1.658.15 1.629-.44l-.178-1.26c-.228-1.025-.764-3.143-1.092-3.414"/><path fill="#000" d="M25.34 22.95c-.013-.523.252-1.066.386-1.273l-.954.268.25 1.976c.107 1.054.131 1.081.319.452.234-.787.017-.77 0-1.424" style="mix-blend-mode:overlay"/></g><mask id="Pkf3rAt6eI_g" width="9" height="12" x="10" y="17" maskUnits="userSpaceOnUse" style="mask-type:alpha"><path fill="#FFC7B6" d="M15.52 17.524c-1.468.006-3.708.23-4.504 1.322s-.908 3.79-.865 5.002c.23 1.22 1.135 3.698 2.925 4.702s4.752-.514 5.824-.669l-5.275-6.854c-.328-.711-.867-.833-.517-1.189.413-.159 2.86-.765 2.87-.776l.007-.007c.282-.285.573-.658.46-.981l-.005-.015c-.083-.215-.349-.408-.92-.535"/></mask><g mask="url(#Pkf3rAt6eI_g)"><path fill="#FFC7B6" d="M15.52 17.524c-1.468.006-3.708.23-4.504 1.322s-.908 3.79-.865 5.002c.23 1.22 1.136 3.911 2.927 4.915 1.79 1.004 4.382.946 5.454.792l-4.723-8.36c.138-.634-.232-1.33.118-1.686.014-.015 2.04-.436 2.051-.447l.007-.007c.282-.285.573-.658.46-.981l-.005-.015c-.083-.215-.349-.408-.92-.535"/><path fill="#000" d="M12.256 18.253c.845-.4 2.923-.873 4.214-1.14l-1.701-.839c-1.02.108-3.956 1.042-4.407 2.343-.563 1.626-1.126 3.372-.172 5.145.003-1.198.668-4.847 2.066-5.509" style="mix-blend-mode:overlay"/></g><mask id="Pkf3rAt6eI_h" width="8" height="8" x="16" y="21" maskUnits="userSpaceOnUse" style="mask-type:alpha"><path fill="#FFC7B6" d="M23.106 21.913c.05-.61-.667-.939-.889-.095l-1.901 3.485c-1.078.374-3.351 1.189-3.824 1.455-.473.267.782 1.204 1.07 1.56 0 0 1.617-.66 2.547-.926 1.104-.316 1.633-.895 1.633-.895.541-1.326 1.313-3.974 1.364-4.584"/></mask><g mask="url(#Pkf3rAt6eI_h)"><path fill="#FFC7B6" d="M23.43 21.758c.05-.61-.892-.783-1.212.06l-1.902 3.485c-1.078.374-3.351 1.189-3.824 1.455-.472.267.252 1.21.54 1.566 0 0 1.664-.152 2.593-.418 1.105-.316 2.117-1.409 2.117-1.409.541-1.326 1.636-4.13 1.687-4.74"/><path fill="#000" d="M20.73 24.94c.227-.226 1.546-3 2.096-4.45-.389 1.627-1.695 4.784-2.095 5.291s-1.922.876-2.767.976c.828-.51 2.54-1.59 2.767-1.816M21.21 25.78c.155-.012.552.387.482.653-.082-.097-.239-.3-.239-.3s-.209-.27-.242-.352" style="mix-blend-mode:overlay"/></g><mask id="Pkf3rAt6eI_i" width="10" height="10" x="14" y="18" maskUnits="userSpaceOnUse" style="mask-type:alpha"><path fill="#FFC7B6" d="m19.349 23.611-4.625 2.66c-.497 1.4.484 1.594 1.037 1.516l4.624-2.009c1.046-2.025 2.983-6.01 2.791-6.608s-1.056-.2-1.464.073z"/></mask><g mask="url(#Pkf3rAt6eI_i)"><path fill="#FFC7B6" d="m19.349 23.611-4.625 2.66c-.497 1.4.484 1.594 1.037 1.516l4.516-1.793c1.046-2.026 3.09-6.226 2.899-6.824-.192-.597-1.056-.2-1.464.073z"/><path fill="#000" d="m21 19.714.773-1.6s.587.308.932.565c-.435 0-3.005 5.202-3.005 5.202-.434.484-1.005.694-1.949 1.085-.944.39-1.242.443-1.738.443 1.013-.592 2.162-1.052 2.434-1.313.27-.26 2.051-3.288 2.553-4.382M20.001 24.117c.035.226.442.887.55 1.243.182-.628-.333-1.05-.55-1.243" style="mix-blend-mode:overlay"/></g><mask id="Pkf3rAt6eI_j" width="10" height="9" x="13" y="17" maskUnits="userSpaceOnUse" style="mask-type:alpha"><path fill="#FFC7B6" d="m19.426 23.627-3.855 2.234c-2.287.43-2.522-.57-2.25-1.454l4.005-2.136 2.801-3.302c.514-.803 1.697-2.29 2.322-1.816.624.475-.226 1.517-.453 1.977z"/></mask><g mask="url(#Pkf3rAt6eI_j)"><path fill="#FFC7B6" d="M19.946 24.078c-1.384 1.374-4.36 2.435-4.36 2.435-2.288.43-2.537-1.223-2.265-2.106l4.005-2.136 2.801-3.302c.514-.803 1.697-2.29 2.322-1.816.624.475.325 1.513.098 1.972 0 0-1.05 3.414-2.6 4.953"/><path fill="#000" d="M17.66 21.847c.387-.382 2.867-4.067 3.889-5.62l1.024.422s-1.197.694-2.36 2.689c-.798 1.371-2.35 3.02-2.774 3.262-.625.357-1.464.674-1.464.674l-1.293.019c.817-.604 2.59-1.063 2.977-1.446M18.23 22.324c.202-.067.937.538.937 1.02a10 10 0 0 1-.46-.544s-.403-.344-.476-.476" style="mix-blend-mode:overlay"/></g><mask id="Pkf3rAt6eI_k" width="10" height="9" x="11" y="16" maskUnits="userSpaceOnUse" style="mask-type:alpha"><path fill="#FFC7B6" d="m15.855 20.502-4.208 1.237c-.25 2.603 1.679 2.536 2.562 2.505h.003l3.396-2.108 2.732-3.402c.236-.275.589-.841.524-1.328-.101-.755-1.126-.344-1.676 0z"/></mask><g mask="url(#Pkf3rAt6eI_k)"><path fill="#FFC7B6" d="m15.855 20.502-4.209 1.238c-.25 2.606 1.45 3.196 2.332 3.165l4.04-2.257 2.875-4.175c.237-.275.685-1.015.584-1.769-.1-.754-1.225-.255-1.774.088z"/><path fill="#FFC7B6" d="m21.443 16.063-.053.016c-.21.068-1.009.346-1.463.803-1.585 1.594-3.857 3.828-3.857 3.828l-2.326.42 1.91-1.115 3.617-3.276 2.12-.66z"/><path fill="#000" d="m21.443 16.063-.053.016c-.21.068-1.009.346-1.463.803-1.585 1.594-3.857 3.828-3.857 3.828l-2.326.42 1.91-1.115 3.617-3.276 2.12-.66z" opacity=".5" style="mix-blend-mode:overlay"/><path fill="#000" d="M16.444 20.835c.112.244.673.683.979.992-.059-.575-.673-.843-.979-.992" style="mix-blend-mode:overlay"/></g><path fill="#2449CF" d="M13.984 16.014c.266-.854 1.252-.654 1.712-.448-.006-.117-.153-.437-.694-.785s-1.36-.089-1.702.085c-.431.294-1.279 1.265-1.221 2.789s1.026 2.56 1.503 2.888c.302.207.573.562 1.706-.22-1.024-.455-1.636-3.242-1.304-4.31"/><path fill="#F8F8F8" fill-rule="evenodd" d="M23.765 14.03c-.123-.156-.244-.22-.37-.212-.061.004-.096 0-.184 0-.024-.026-.044-.092-.044-.16-.007-.103.102-.204.204-.21.296-.02.523.146.685.35.162.205.281.474.37.73a5.6 5.6 0 0 1 .238 1.007l.003.018v.007l-.184.024.184-.024a.186.186 0 0 1-.368.047m0 0v-.004l-.002-.016a4 4 0 0 0-.049-.28 5 5 0 0 0-.174-.66 2.2 2.2 0 0 0-.309-.618" clip-rule="evenodd"/><path fill="#FFB26F" d="m23.436 16.274 1.023-.841 1.163.841v2.204h-2.186z"/></g><defs><clipPath id="Pkf3rAt6eI_a"><path fill="#fff" d="M0 0h40v40H0z"/></clipPath><clipPath id="Pkf3rAt6eI_b"><rect width="33.333" height="33.333" x="3.333" y="3.333" fill="#fff" rx="16.667"/></clipPath></defs></svg>