<svg xmlns="http://www.w3.org/2000/svg" width="300" height="300" fill="none" class="persona-ilustration" viewBox="0 0 300 300"><g clip-path="url(#pCICWkWLeJxJEjkCCaTUCOR2yHD3tt6k6ev5kyOfNBI_a)"><g clip-path="url(#pCICWkWLeJxJEjkCCaTUCOR2yHD3tt6k6ev5kyOfNBI_b)"><rect width="250" height="250" x="25" y="25" fill="#D3EDFF" rx="125"/><path fill="#82C2F1" d="M175.659 70.667v-7.444h152.47v7.444zM175.659 133.492v-7.443h152.47v7.443zM175.659 196.321v-7.444h152.47v7.444z"/><path fill="#AADBFF" d="M175.659 39.554h7.443v180.433h-7.443z"/><path fill="#82C2F1" d="m225.662 83.542 9.275-3.235 14.947 42.859-9.276 3.234z"/><path fill="#AADBFF" d="M192.037 80.658h9.824v45.39h-9.824zM203.246 80.658h9.824v45.39h-9.824zM214.453 80.658h9.824v45.39h-9.824z"/><path fill="#82C2F1" d="M271.558 101.228h39.059v24.82h-39.059z"/><path fill="#AADBFF" d="M267.569 101.228h47.035v7.003h-47.035zM242.352 164.85c5.78 3.848 9.145 14.036 10.104 18.648-3.908-2.16-12.483-7.504-15.526-11.604-3.804-5.124-1.804-11.854 5.422-7.044"/><path fill="#AADBFF" d="M256.732 162.244c2.319 6.546-1.097 16.715-3.095 20.982-1.833-4.071-5.491-13.491-5.468-18.596.03-6.382 5.665-10.568 8.563-2.386"/><path fill="#AADBFF" d="M268.634 166.129c-.869 6.89-8.489 14.442-12.19 17.357.191-4.461 1.153-14.52 3.467-19.071 2.893-5.689 9.808-6.898 8.723 1.714"/><path fill="#AADBFF" d="M267.166 178.778c-.731 3.493-3.781 10.48-10.137 10.48h-8.447c-6.356 0-9.407-6.987-10.137-10.48zM217.9 154.97c-.507 11.429-2.624 34.287-7.037 34.287l-1.346.001H205c-4.413-.001-6.53-22.859-7.037-34.288z"/><path fill="#411917" d="M39.48 96.015c0 21.656-1.843 48.726-15.05 76.814-13.436 19.684-16.642 24.604-8.167 45.093 2.46 5.95-28.043 23.706 11.853 44.232 51.46 20.526 102.77 12.929 94.964-8.175-56.52-59.922-24.177-97.772-45.564-143.516-6.251-13.37-9.806-26.255-4.341-43.409 2.605-8.175 12.111-25.22 29.301-27.998s38.542 7.36 46.447 23.657c-.941-3.69-4.734-15.98-6.795-19.785-4.877-9.003-13.943-19.361-49.707-17.764-32.091 1.434-52.94 35.03-52.94 70.85"/><path fill="#EFEFEF" d="M11.384 211.284c13.48-27.908 54-24.914 66.262-41.534 23.351 3.069 66.229-.738 88.877 5.818s60.861 81.476 71.167 99.852c-3.849 4.594-12.628 25.218-65.968 56.805S47.08 316.989-.526 289.163c5.574-17.229-10.819-30.824 11.91-77.879"/><path fill="#FFC7B6" d="M127.76 211.53c2.119-9.008 2.87-23.843 2.98-30.135-19.207-5.63-57.053-18.208-52.02-7.876 5.034 10.332 30.826 34.037 42.748 42.647 1.214 2.208 4.172 4.371 6.292-4.636"/><path fill="#000" d="M127.76 211.53c2.119-9.008 2.87-23.843 2.98-30.135-19.207-5.63-57.053-18.208-52.02-7.876 5.034 10.332 30.826 34.037 42.748 42.647 1.214 2.208 4.172 4.371 6.292-4.636" opacity=".5" style="mix-blend-mode:overlay"/><path fill="#FFC7B6" d="M77.646 170.091c1.46-12.161-9.932-44.795-15.81-59.591l65.792 35.773 3.039 36.093c-20.877-2.736-54.48-.113-53.02-12.275"/><path fill="#000" d="M77.646 170.091c1.46-12.161-9.932-44.795-15.81-59.591l65.792 35.773 3.039 36.093c-20.877-2.736-54.48-.113-53.02-12.275" opacity=".5" style="mix-blend-mode:overlay"/><path fill="#E4E4E4" d="M76.887 165.046c1.841-1.956 3.251-.848 6.139 2.72 0 0 11.445 15.176 20.084 23.688 9.583 9.441 26.815 21.622 26.815 21.622-.428 2.728-2.011 9.18-4.816 8.667-18.274-3.341-43.25-32.261-50.552-46.658l-.038-.074c-1.242-2.449-1.834-3.617-1.732-4.047.257-1.026 1.637-3.301 4.1-5.918"/><path fill="#FFC7B6" d="m163.268 197.024 5.85 19.722 35.133-9.552-8.425-15.256z"/><path fill="#F8F8F8" d="m232.867 267.592-28.621-63.185c-7.127 8.201-25.529 10.413-36.103 11.421 5.054 26.981 13.112 58.319 17.316 66.037s34.425-9.518 47.408-14.273"/><path fill="#E4E4E4" fill-rule="evenodd" d="m204.497 202.69 29.64 65.435-.948.347c-3.203 1.174-7.489 3.125-12.225 5.294l-.586.268c-4.557 2.088-9.481 4.344-14.155 6.241-4.862 1.973-9.52 3.587-13.255 4.21-1.864.31-3.57.388-4.987.096-1.437-.296-2.651-.992-3.345-2.267-1.098-2.015-2.412-5.496-3.838-9.942-1.433-4.467-2.997-9.969-4.586-16.065-3.177-12.193-6.46-26.794-8.991-40.306l-.189-1.008 1.022-.098c5.281-.503 12.465-1.303 19.205-2.989 6.784-1.697 12.917-4.245 16.279-8.113zm-35.243 13.973c2.496 13.184 5.685 27.323 8.773 39.171 1.583 6.076 3.138 11.542 4.556 15.965 1.425 4.444 2.695 7.774 3.699 9.618.356.654 1.007 1.108 2.077 1.328 1.092.224 2.538.184 4.301-.11 3.519-.587 8.017-2.133 12.858-4.098 4.635-1.881 9.524-4.121 14.092-6.213l.573-.263c4.275-1.958 8.259-3.774 11.417-4.994l-27.635-61.007c-3.872 3.727-9.972 6.095-16.251 7.665-6.452 1.614-13.272 2.427-18.46 2.938" clip-rule="evenodd"/><path fill="#E4E4E4" d="M216.418 226.015s-8.354-26.984-12.318-26.45c-1.538.27-3.412 1.109-3.412 1.109s4.116 5.222-12.818 10.134-21.345-2.809-21.345-2.809-4.304 1.014-3.187 4.563c1.116 3.548 4.741 25.889 6.992 29.046 2.814 3.945 15.843 5.602 29.345 1.065 17.918-6.021 17.63-15.225 16.743-16.658"/><path fill="#F8F8F8" fill-rule="evenodd" d="M170.169 217.891a1.256 1.256 0 0 1 1.528.896l5.048 19.508a1.244 1.244 0 0 1-.905 1.514 1.256 1.256 0 0 1-1.528-.895l-5.048-19.509a1.244 1.244 0 0 1 .905-1.514M179.372 218.317a1.256 1.256 0 0 1 1.528.896l5.047 19.508a1.24 1.24 0 0 1-.904 1.514 1.257 1.257 0 0 1-1.529-.895l-5.047-19.508a1.244 1.244 0 0 1 .905-1.515M187.669 217.201a1.256 1.256 0 0 1 1.528.896l5.048 19.508a1.244 1.244 0 0 1-.905 1.514 1.256 1.256 0 0 1-1.528-.895l-5.048-19.508a1.244 1.244 0 0 1 .905-1.515M195.754 214.202a1.255 1.255 0 0 1 1.579.804l6.187 19.177a1.244 1.244 0 0 1-.814 1.565 1.256 1.256 0 0 1-1.578-.804l-6.188-19.177a1.244 1.244 0 0 1 .814-1.565M202.737 209.332a1.256 1.256 0 0 1 1.646.655l7.926 18.526a1.245 1.245 0 0 1-.666 1.634 1.257 1.257 0 0 1-1.646-.656l-7.926-18.526a1.244 1.244 0 0 1 .666-1.633" clip-rule="evenodd"/><path fill="#FFC7B6" d="m67.266 263.563 53.833-86.885c7.04 21.857 15.916 23.924 25.711 23.437l-26.55 85.25z"/><path fill="#F8F8F8" d="m67.267 263.564 41.577-70.595c4.707 24.085 23.382 26.225 33.177 25.738l-21.76 66.658z"/><path fill="#E4E4E4" fill-rule="evenodd" d="m109.29 190.365.474 2.424c2.303 11.785 7.986 18.095 14.204 21.438 6.266 3.369 13.186 3.783 18.006 3.544l1.361-.068-22.497 68.913-54.928-22.597zm-40.667 72.743 51.06 21.005 21.03-64.422c-4.893.104-11.52-.527-17.633-3.813-6.302-3.389-11.962-9.551-14.638-20.38z" clip-rule="evenodd"/><path fill="#E4E4E4" d="M108.2 189.028c2.29-1.731 4.894-3.376 6.306-1.85 6.608 20.671 28.868 23.247 30.223 19.689 5.16 1.719 3.472 6.869 2.727 9.019-1.977 5.705-2.727 13.181-5.422 20.402-1.578 2.826-1.564 4.918-5.048 4.918-16.812 0-32.014-7.686-44.006-24.357-2.852-3.966-.77-5.377 0-6.706 5.174-8.923 11.828-18.551 15.22-21.115"/><path fill="#F8F8F8" fill-rule="evenodd" d="M111.13 193.835c.584.369.757 1.141.387 1.725l-11.958 18.879a1.25 1.25 0 0 1-2.112-1.338l11.958-18.879a1.25 1.25 0 0 1 1.725-.387M116.934 202.15a1.25 1.25 0 0 1 .387 1.725l-11.958 18.879a1.25 1.25 0 1 1-2.112-1.338l11.958-18.879a1.25 1.25 0 0 1 1.725-.387M123.962 208.502a1.25 1.25 0 0 1 .429 1.715l-11.121 18.519a1.25 1.25 0 0 1-2.144-1.287l11.121-18.519a1.25 1.25 0 0 1 1.715-.428M131.154 211.491c.626.293.897 1.037.605 1.662l-9.44 20.228a1.252 1.252 0 0 1-2.267-1.06l9.44-20.229a1.25 1.25 0 0 1 1.662-.601M140.318 214.436c.66.209 1.028.91.822 1.567l-6.668 21.264a1.246 1.246 0 0 1-1.568.811 1.255 1.255 0 0 1-.823-1.568l6.668-21.264a1.247 1.247 0 0 1 1.569-.81" clip-rule="evenodd"/></g><path fill="#FFC7B6" d="M157.025 96.899c-1.973-34.785-20.895-54.675-28.692-59.206-12.008-6.978-31.015-8.843-53.334 4.624-24.074 14.525-22.203 38.855-14.802 63.216s63.524 52.423 75.551 47.797c12.026-4.625 23.744-12.951 21.277-56.431"/><path fill="#FFC7B6" d="M52.529 103.712c-1.777-11.45 7.68-12.383 12.63-11.42 7.202 18.193 8.344 25.979 7.357 29.187-.987 3.207-17.766-3.455-19.987-17.767"/><path fill="#375FE9" d="m211.681 127.003-73.026-.524c-.673 5.045-4.627 11.19-1.695 25.605 2.933 14.415 6.556 20.446 16.796 27.455 13.191 6.664 37.336 2.891 46.574-2.316s11.416-35.65 11.351-50.22"/><path fill="#FFC7B6" d="M202.025 191.794c-3.835 4.46-16.188 8.13-38.793 5.794 0 0-3.685-13.341 17.127-15.366 13.379-1.302 25.291-9.526 25.291-9.526 1.455 3.303.21 14.639-3.625 19.098"/><path fill="#000" d="M202.025 191.794c-3.835 4.46-16.188 8.13-38.793 5.794 0 0-3.685-13.341 17.127-15.366 13.379-1.302 25.291-9.526 25.291-9.526 1.455 3.303.21 14.639-3.625 19.098" opacity=".5" style="mix-blend-mode:overlay"/><path fill="#FFC7B6" d="M172.75 199.016c3.498.14 23.962-5.202 23.962-19.302 2.39 1.973 7.064 11.062 6.645 13.19-.419 2.127-8.164 4.712-10.205 5.28-3.148.583-10.853 1.784-20.402.832"/><path fill="#FFC7B6" d="M181.857 189.327c2.385-4.69 11.557-7.144 15.239-7.714.842 8.013-14.028 20.513-30.261 16.787.409-1.058 12.637-4.382 15.022-9.073"/><mask id="pCICWkWLeJxJEjkCCaTUCOR2yHD3tt6k6ev5kyOfNBI_c" width="8" height="31" x="208" y="143" maskUnits="userSpaceOnUse" style="mask-type:alpha"><path fill="#FFC7B6" d="M215.435 153.163c-.73-5.532-1.97-9.309-4.621-9.313-1.872 1.11-1.892 2.236-2.274 4.038-.305 1.442.305 16.873 1.629 25.732 1.715-1.059 3.496-1.127 4.731-4.481 1.543-4.193 1.098-11.714.535-15.976"/></mask><g mask="url(#pCICWkWLeJxJEjkCCaTUCOR2yHD3tt6k6ev5kyOfNBI_c)"><path fill="#FFC7B6" d="M215.435 153.163c-.73-5.532-1.97-9.309-4.621-9.313-1.872 1.11-1.892 2.236-2.274 4.038-.305 1.442.305 16.873 1.629 25.732 1.715-1.059 3.496-1.127 4.731-4.481 1.543-4.193 1.098-11.714.535-15.976"/><path fill="#000" d="M209.9 147.931c-1.119-2.592-1.521-6.008-2.087-5.919l5.098 29.349.371-1.009v-9.551c-.654-3.715-2.746-11.395-3.382-12.87" style="mix-blend-mode:overlay"/></g><mask id="pCICWkWLeJxJEjkCCaTUCOR2yHD3tt6k6ev5kyOfNBI_d" width="13" height="38" x="202" y="142" maskUnits="userSpaceOnUse" style="mask-type:alpha"><path fill="#FFC7B6" d="M208.041 144.815c-.919-2.763-5.088-2.468-5.575 1.239-.715 5.436 3.59 30.779 7.136 33.028 1.696 1.076 2.966-.957 3.854-2.428.889-1.471 1.356-7.565-.773-15.145-2.085-7.422-3.044-11.894-4.642-16.694"/></mask><g mask="url(#pCICWkWLeJxJEjkCCaTUCOR2yHD3tt6k6ev5kyOfNBI_d)"><path fill="#FFC7B6" d="M208.041 144.815c-.919-2.763-5.088-2.468-5.575 1.239-.715 5.436 3.59 30.779 7.136 33.028 1.696 1.076 2.966-.957 3.854-2.428.889-1.471 1.356-7.565-.773-15.145-2.085-7.422-3.044-11.894-4.642-16.694"/><path fill="#000" d="M204.145 151.318c-.609-2.616-.735-7.012-.482-8.533.533-.938-1.08-1.181-2.357-.938s-.532 6.084 0 8.974c1.572 10.317 5.156 30.57 6.92 29.049.239-.205 1.188-3.257.96-4.474l-.653-6.583c-.963-3.599-3.78-14.878-4.388-17.495" style="mix-blend-mode:overlay"/></g><mask id="pCICWkWLeJxJEjkCCaTUCOR2yHD3tt6k6ev5kyOfNBI_e" width="12" height="35" x="198" y="153" maskUnits="userSpaceOnUse" style="mask-type:alpha"><path fill="#FFC7B6" d="M202.207 153.757c-2.351-.872-3.769.973-3.573 4.918.445 8.952 1.307 26.947 5.33 28.285s4.487-.459 5.09-5.266-2.181-15.604-2.181-15.604l-.033-.163c-1.629-8.015-2.298-11.304-4.633-12.17"/></mask><g mask="url(#pCICWkWLeJxJEjkCCaTUCOR2yHD3tt6k6ev5kyOfNBI_e)"><path fill="#FFC7B6" d="M202.207 153.757c-2.351-.872-3.769.973-3.573 4.918.445 8.952 1.307 26.947 5.33 28.285s4.487-.459 5.09-5.266-2.181-15.604-2.181-15.604l-.033-.163c-1.629-8.015-2.298-11.304-4.633-12.17"/><path fill="#000" d="M200.377 161.267c-.517-3.779.284-7.279 1.039-8.551l-3.236.582-1.1 8.349c2.114 9.558 6.42 28.232 6.731 26.471s1.205-3.092.946-4.817c-.992-4.919-3.862-18.254-4.38-22.034" style="mix-blend-mode:overlay"/></g><mask id="pCICWkWLeJxJEjkCCaTUCOR2yHD3tt6k6ev5kyOfNBI_f" width="10" height="28" x="196" y="167" maskUnits="userSpaceOnUse" style="mask-type:alpha"><path fill="#FFC7B6" d="M199.365 167.446c-1.64-1.353-3.815 1.49-3.25 4.996.85 5.273.627 17.405 1.455 20.593.827 3.188 8.295.755 8.15-2.203l-.893-6.3c-1.138-5.132-3.822-15.733-5.462-17.086"/></mask><g mask="url(#pCICWkWLeJxJEjkCCaTUCOR2yHD3tt6k6ev5kyOfNBI_f)"><path fill="#FFC7B6" d="M199.365 167.446c-1.64-1.353-3.815 1.49-3.25 4.996.85 5.273.627 17.405 1.455 20.593.827 3.188 8.295.755 8.15-2.203l-.893-6.3c-1.138-5.132-3.822-15.733-5.462-17.086"/><path fill="#000" d="M196.98 172.377c-.068-2.614 1.257-5.334 1.927-6.367l-4.776 1.34 1.257 9.887c.531 5.278.653 5.412 1.592 2.262 1.173-3.938.084-3.854 0-7.122" style="mix-blend-mode:overlay"/></g><mask id="pCICWkWLeJxJEjkCCaTUCOR2yHD3tt6k6ev5kyOfNBI_g" width="45" height="58" x="120" y="145" maskUnits="userSpaceOnUse" style="mask-type:alpha"><path fill="#FFC7B6" d="M147.834 145.229c-7.342.028-18.553 1.152-22.535 6.617s-4.544 18.964-4.326 25.03c1.147 6.104 5.675 18.501 14.635 23.525s23.778-2.572 29.142-3.345l-26.394-34.297c-1.643-3.561-4.339-4.172-2.589-5.949 2.065-.798 14.309-3.831 14.363-3.886l.036-.035c1.408-1.423 2.863-3.291 2.304-4.91l-.027-.074c-.416-1.077-1.747-2.039-4.609-2.676"/></mask><g mask="url(#pCICWkWLeJxJEjkCCaTUCOR2yHD3tt6k6ev5kyOfNBI_g)"><path fill="#FFC7B6" d="M147.834 145.229c-7.342.028-18.553 1.152-22.535 6.617s-4.544 18.964-4.326 25.03c1.147 6.104 5.682 19.569 14.643 24.593s21.927 4.734 27.291 3.961l-23.63-41.827c.69-3.177-1.163-6.665.587-8.442.072-.073 10.212-2.182 10.266-2.237l.036-.035c1.408-1.423 2.863-3.291 2.304-4.91l-.027-.074c-.416-1.077-1.747-2.039-4.609-2.676"/><path fill="#000" d="M131.502 148.876c4.232-2.005 14.627-4.368 21.089-5.707l-8.514-4.197c-5.105.542-19.794 5.213-22.049 11.723-2.819 8.137-5.635 16.874-.865 25.745.018-5.992 3.345-24.252 10.339-27.564" style="mix-blend-mode:overlay"/></g><mask id="pCICWkWLeJxJEjkCCaTUCOR2yHD3tt6k6ev5kyOfNBI_h" width="34" height="36" x="152" y="164" maskUnits="userSpaceOnUse" style="mask-type:alpha"><path fill="#FFC7B6" d="M185.797 167.191c.254-3.051-3.337-4.697-4.445-.476l-9.515 17.438c-5.393 1.872-16.771 5.949-19.135 7.282s3.913 6.025 5.352 7.81c0 0 8.094-3.304 12.747-4.635 5.524-1.581 8.171-4.481 8.171-4.481 2.708-6.634 6.572-19.887 6.825-22.938"/></mask><g mask="url(#pCICWkWLeJxJEjkCCaTUCOR2yHD3tt6k6ev5kyOfNBI_h)"><path fill="#FFC7B6" d="M187.414 166.414c.254-3.051-4.46-3.92-6.062.301l-9.515 17.438c-5.393 1.872-16.771 5.949-19.135 7.282s1.26 6.05 2.699 7.835c0 0 8.327-.758 12.98-2.09 5.524-1.581 10.59-7.051 10.59-7.051 2.709-6.634 8.19-20.664 8.443-23.715"/><path fill="#000" d="M173.913 182.341c1.134-1.134 7.734-15.02 10.486-22.275-1.946 8.145-8.485 23.945-10.486 26.48s-9.618 4.385-13.843 4.885c4.142-2.557 12.709-7.956 13.843-9.09M176.314 186.544c.77-.061 2.759 1.936 2.407 3.263-.408-.483-1.194-1.5-1.194-1.5s-1.046-1.353-1.213-1.763" style="mix-blend-mode:overlay"/></g><mask id="pCICWkWLeJxJEjkCCaTUCOR2yHD3tt6k6ev5kyOfNBI_i" width="47" height="37" x="128" y="142" maskUnits="userSpaceOnUse" style="mask-type:alpha"><path fill="#FFC7B6" d="m149.513 160.131-21.058 6.19c-1.249 13.023 8.403 12.688 12.822 12.534l.017-.001 16.993-10.551 13.668-17.021c1.185-1.378 2.948-4.209 2.623-6.647-.505-3.773-5.634-1.719-8.384 0z"/></mask><g mask="url(#pCICWkWLeJxJEjkCCaTUCOR2yHD3tt6k6ev5kyOfNBI_i)"><path fill="#FFC7B6" d="m149.513 160.13-21.058 6.191c-1.251 13.04 7.257 15.993 11.668 15.84l20.211-11.292 14.392-20.895c1.184-1.377 3.427-5.076 2.923-8.849s-6.13-1.278-8.88.441z"/><path fill="#FFC7B6" d="m177.476 137.913-.263.081c-1.056.34-5.049 1.732-7.324 4.02-7.932 7.975-19.297 19.153-19.297 19.153l-11.64 2.103 9.558-5.577 18.098-16.397 10.605-3.302c.169-.054.263-.081.263-.081"/><path fill="#000" d="m177.476 137.913-.263.082c-1.056.339-5.049 1.731-7.324 4.019-7.932 7.975-19.297 19.153-19.297 19.153l-11.64 2.103 9.558-5.577 18.098-16.396 10.605-3.302c.169-.055.263-.082.263-.082" opacity=".5" style="mix-blend-mode:overlay"/><path fill="#000" d="M152.461 161.796c.561 1.221 3.367 3.418 4.897 4.965-.293-2.879-3.366-4.22-4.897-4.965" style="mix-blend-mode:overlay"/></g><mask id="pCICWkWLeJxJEjkCCaTUCOR2yHD3tt6k6ev5kyOfNBI_j" width="44" height="46" x="143" y="151" maskUnits="userSpaceOnUse" style="mask-type:alpha"><path fill="#FFC7B6" d="m166.997 175.688-23.141 13.305c-2.487 7.011 2.423 7.982 5.189 7.591l23.136-10.052c5.235-10.135 14.927-30.075 13.968-33.066s-5.283-1.003-7.325.364z"/></mask><g mask="url(#pCICWkWLeJxJEjkCCaTUCOR2yHD3tt6k6ev5kyOfNBI_j)"><path fill="#FFC7B6" d="m166.997 175.688-23.141 13.305c-2.487 7.011 2.423 7.982 5.189 7.591l22.596-8.973c5.236-10.135 15.467-31.154 14.508-34.145s-5.283-1.003-7.325.364z"/><path fill="#000" d="m175.26 156.185 3.868-8.008s2.936 1.547 4.665 2.83c-2.179 0-15.041 26.031-15.041 26.031-2.172 2.42-5.026 3.474-9.75 5.428-4.723 1.955-6.217 2.217-8.696 2.217 5.067-2.963 10.819-5.264 12.176-6.567s10.266-16.457 12.778-21.931M170.261 178.216c.175 1.133 2.214 4.443 2.752 6.223.91-3.146-1.667-5.252-2.752-6.223" style="mix-blend-mode:overlay"/></g><mask id="pCICWkWLeJxJEjkCCaTUCOR2yHD3tt6k6ev5kyOfNBI_k" width="48" height="46" x="136" y="142" maskUnits="userSpaceOnUse" style="mask-type:alpha"><path fill="#FFC7B6" d="m167.383 175.766-19.289 11.182c-11.446 2.152-12.623-2.857-11.26-7.277l20.043-10.69 14.016-16.524c2.57-4.018 8.491-11.461 11.616-9.084s-1.128 7.59-2.267 9.889z"/></mask><g mask="url(#pCICWkWLeJxJEjkCCaTUCOR2yHD3tt6k6ev5kyOfNBI_k)"><path fill="#FFC7B6" d="M169.988 178.023c-6.928 6.875-21.82 12.187-21.82 12.187-11.447 2.152-12.697-6.119-11.334-10.539l20.043-10.69 14.016-16.524c2.57-4.018 8.491-11.461 11.616-9.084s1.629 7.569.491 9.867c0 0-5.253 17.083-13.012 24.783"/><path fill="#000" d="M158.543 166.862c1.942-1.915 14.352-20.354 19.463-28.128l5.126 2.113s-5.991 3.473-11.808 13.458c-3.998 6.861-11.766 15.112-13.883 16.322-3.128 1.787-7.329 3.374-7.329 3.374l-6.466.095c4.087-3.021 12.955-5.319 14.897-7.234M161.402 169.248c1.005-.335 4.683 2.692 4.685 5.102-.715-.718-2.299-2.719-2.299-2.719s-2.019-1.721-2.386-2.383" style="mix-blend-mode:overlay"/></g><path fill="#2449CF" d="M140.154 137.67c1.33-4.272 6.264-3.272 8.564-2.239-.029-.583-.764-2.186-3.473-3.929s-6.806-.444-8.516.423c-2.157 1.475-6.4 6.331-6.112 13.958s5.137 12.814 7.525 14.454c1.509 1.036 2.868 2.81 8.534-1.097-5.126-2.284-8.184-16.229-6.522-21.57"/><path fill="#F8F8F8" fill-rule="evenodd" d="M189.098 127.74c-.615-.778-1.222-1.099-1.85-1.057-.311.02-.485 0-.922 0-.12-.13-.223-.462-.223-.802-.034-.512.51-1.017 1.022-1.051 1.481-.099 2.617.731 3.43 1.758.809 1.022 1.406 2.366 1.844 3.644.443 1.29.745 2.58.937 3.541a33 33 0 0 1 .26 1.503l.012.09.004.025.001.007v.002l-.921.119.921-.119a.93.93 0 0 1-1.842.237m0 0-.001-.004-.002-.018-.011-.078q-.015-.105-.046-.303a28 28 0 0 0-.197-1.098 26 26 0 0 0-.871-3.302c-.411-1.198-.927-2.313-1.545-3.094" clip-rule="evenodd"/><path fill="#FFB26F" d="m187.447 138.974 5.121-4.211 5.817 4.211V150h-10.938z"/><path fill="#411917" d="M97.625 67.742c12.478-6.366 32.991-18.274 34.159-26.125.967-1.673-16.795-9.728-34.159-5.387-24.19 6.047-32.467 22.148-32.467 35.968 0 13.268 9.719 37.816 14.6 47.789-.319-3.395-4.223-17.168-3.46-27.1.956-12.413 5.73-17.188 21.327-25.145"/><path fill="#411917" d="M92.42 25.164c-32.09 1.434-52.94 35.03-52.94 70.85 1.272 5.589 3.896 71.544 11.396 78.242 8.406 7.507 32.898 7.58 32.898-29.251 0-15.687-6.499-28.045-9.89-60.02-.905-8.533 11.402-43.151 28.592-45.93 17.189-2.777 38.542 7.361 46.447 23.658-.941-3.69-4.734-15.98-6.795-19.785-4.877-9.003-13.943-19.361-49.707-17.764"/><path fill="#411917" d="M139.995 55.872c-4.66-4.169-18.229-13.624-22.681-20.004 2.449-.965 5.917-8.615 18.381-2.205s22.896 37.052 18.644 45.183c-2.796-11.548-5.868-15.394-14.344-22.975"/><path fill="#411917" fill-rule="evenodd" d="M111.634 118.717a1.294 1.294 0 0 1 1.796-.348c1.93 1.306 5.45 3.022 9.601 3.816 4.14.791 8.813.649 13.159-1.622a1.294 1.294 0 0 1 1.198 2.293c-5.008 2.616-10.312 2.736-14.843 1.869-4.52-.864-8.365-2.725-10.564-4.212a1.294 1.294 0 0 1-.347-1.796" clip-rule="evenodd"/><path fill="#FFC7B6" d="M143.127 105.504c0 1.508-2.838 2.731-6.338 2.731s-6.338-1.223-6.338-2.731c0-1.509 2.838-2.732 6.338-2.732s6.338 1.223 6.338 2.732"/><path fill="#000" d="M143.127 105.503c0 1.509-2.838 2.732-6.338 2.732s-6.338-1.223-6.338-2.732c0-1.508 2.838-2.731 6.338-2.731s6.338 1.223 6.338 2.731" opacity=".5" style="mix-blend-mode:overlay"/><path fill="#411917" fill-rule="evenodd" d="M132.93 82.483a1.293 1.293 0 0 1 1.749.533c2.391 4.492 8.39 13.586 10.644 16.297.868 1.044 1.242 2.179 1.146 3.336-.091 1.112-.604 2.093-1.22 2.908-1.21 1.603-3.113 2.933-4.374 3.798a1.293 1.293 0 0 1-1.463-2.134c1.309-.897 2.855-2.008 3.773-3.223.449-.594.67-1.115.706-1.562.034-.402-.069-.881-.558-1.469-2.39-2.875-8.483-12.124-10.937-16.735a1.293 1.293 0 0 1 .534-1.75M101.802 84.605a1.294 1.294 0 0 1 1.76-.5c1.944 1.083 5.118 2.432 8.265 2.956 3.206.533 5.964.15 7.6-1.65a1.293 1.293 0 1 1 1.914 1.74c-2.552 2.808-6.484 3.036-9.939 2.461-3.514-.584-6.972-2.062-9.099-3.248a1.294 1.294 0 0 1-.501-1.76M140.98 87.07a1.294 1.294 0 0 1 1.652-.785c1.236.44 3.201.965 5.036 1.116.918.076 1.743.053 2.404-.089.666-.142 1.045-.377 1.246-.624a1.293 1.293 0 1 1 2.007 1.631c-.707.87-1.72 1.31-2.712 1.523-.998.213-2.099.225-3.158.138-2.118-.175-4.307-.766-5.689-1.258a1.294 1.294 0 0 1-.786-1.652" clip-rule="evenodd"/><path fill="#411917" d="M149.927 75.772c-4.806-.866-10.184-1.872-14.939-.434-2.174.638-3.179-2.583-1.028-3.295 5.647-1.09 11.096.49 16.498 1.954 1.133.383.622 2.082-.535 1.784zM101.236 75.976c5.645-1.043 11.961-2.253 17.525-.635 2.544.717 3.751-3.012 1.235-3.815-6.613-1.209-13.019.665-19.367 2.404-1.332.453-.749 2.41.611 2.057z"/><path fill="#F8F8F8" fill-rule="evenodd" d="M149.887 126.829c-1.439-12.233 1.996-38.604 14.776-43.094 11.106-3.903 20.444-1.784 26.1-.5.853.193 1.623.368 2.302.5 7.34 1.295 21.675 0 20.293-15.544-1.727-19.43 34.993-20.208 44.924-19.344s13.797-19.516 3.866-22.538c12.435 2.418 17.559 9.643 18.567 12.953 1.871 5.037-2.629 21.026-16.446 24.825-4.693 1.29-8.65 1.972-11.846 2.522-8.566 1.475-11.667 2.009-8.837 10.813 3.886 12.09-13.88 30.209-44.045 28.333-11.032-.686-1.151 13.446 5.181 21.074zm93.351-71.928c-7.119.198-21.654 2.314-22.841 9.196-1.186 6.882-.494 11.569 0 13.052.297-4.35 1.899-13.408 5.933-14.832s17.881-3.483 24.3-4.335c2.588-.457 8.433-2.01 11.112-4.567-6.991 1.241-10.245 1.308-15.273 1.411-.994.02-2.056.043-3.231.075" clip-rule="evenodd" opacity=".75"/></g><defs><clipPath id="pCICWkWLeJxJEjkCCaTUCOR2yHD3tt6k6ev5kyOfNBI_a"><path fill="#fff" d="M0 0h300v300H0z"/></clipPath><clipPath id="pCICWkWLeJxJEjkCCaTUCOR2yHD3tt6k6ev5kyOfNBI_b"><rect width="250" height="250" x="25" y="25" fill="#fff" rx="125"/></clipPath></defs></svg>