<svg xmlns="http://www.w3.org/2000/svg" width="16" height="16" fill="none" class="persona-icon" viewBox="0 0 16 16"><path fill="currentColor" fill-rule="evenodd" d="m5.827 8.05-4.42-4.42a1.492 1.492 0 1 1 2.11-2.11L7.9 5.903a3.5 3.5 0 0 1 3.189.165c.287.164.572.392.837.609l.108.088c.237.195.468.385.713.556.56.393 1.099.62 1.698.516a.5.5 0 0 1 .585.493c0 1.566-.64 2.656-1.502 3.807-.869 1.158-2.56 2.272-3.976 2.75a.5.5 0 0 1-.436-.056 12 12 0 0 1-2.02-1.691c-.58-.611-1.077-1.288-1.288-1.917-.41-1.173-.347-2.267.02-3.172m7.997-2.272a.5.5 0 1 1 0-1 .5.5 0 0 1 0 1m1.202.902a.5.5 0 1 1-1 0 .5.5 0 0 1 1 0m-8.274 4.215.003.007c.14.422.519.972 1.066 1.548a11 11 0 0 0 1.64 1.406c.396-.152.81-.356 1.211-.593-.612-.359-1.297-.847-1.791-1.462a.5.5 0 0 1 .78-.627c.497.619 1.282 1.117 1.94 1.46.453-.349.847-.727 1.126-1.098l.08-.109q-.195-.073-.376-.186a2.1 2.1 0 0 1-.597-.594.5.5 0 1 1 .817-.577c.127.18.222.267.316.327.095.06.214.109.42.17.324-.55.535-1.089.611-1.71-.714-.041-1.323-.366-1.826-.718-.278-.195-.541-.411-.776-.604l-.104-.085c-.272-.222-.496-.398-.7-.515-1.994-1.139-4.923.865-3.84 3.96" clip-rule="evenodd"/></svg>