<svg xmlns="http://www.w3.org/2000/svg" width="24" height="24" fill="none" class="persona-icon" viewBox="0 0 24 24"><path fill="currentColor" fill-rule="evenodd" d="M8.873 12.08 2.631 5.84a2.155 2.155 0 0 1 3.048-3.048l6.186 6.186c1.398-.605 3.036-.606 4.53.248.41.234.817.56 1.192.866l.153.126c.337.276.662.543 1.007.785.792.554 1.543.87 2.375.725a.75.75 0 0 1 .878.739c0 2.232-.912 3.785-2.137 5.418-1.236 1.648-3.64 3.23-5.652 3.912a.75.75 0 0 1-.655-.085 17 17 0 0 1-2.867-2.402c-.823-.868-1.533-1.831-1.835-2.731-.58-1.66-.496-3.21.019-4.497m13.122-1.95a.75.75 0 1 1-1.5 0 .75.75 0 0 1 1.5 0m-1.744-1.238a.75.75 0 1 1 0-1.5.75.75 0 0 1 0 1.5m-9.98 7.195.004.011c.197.59.728 1.363 1.502 2.178.674.71 1.485 1.403 2.299 1.973a11.5 11.5 0 0 0 1.627-.793c-.854-.506-1.8-1.19-2.487-2.045a.75.75 0 1 1 1.169-.94c.693.862 1.787 1.56 2.713 2.045.629-.488 1.177-1.014 1.565-1.532l.082-.11a3 3 0 0 1-.49-.247c-.336-.214-.602-.492-.857-.853a.75.75 0 0 1 1.225-.865c.177.25.31.37.436.451.124.08.282.145.553.226.44-.752.73-1.49.839-2.333-1.004-.07-1.86-.529-2.564-1.023-.396-.277-.77-.584-1.103-.857l-.147-.12c-.385-.315-.7-.562-.986-.726-2.786-1.592-6.903 1.206-5.38 5.56" clip-rule="evenodd"/></svg>