<svg xmlns="http://www.w3.org/2000/svg" width="32" height="32" fill="none" class="persona-icon" viewBox="0 0 32 32"><path fill="currentColor" fill-rule="evenodd" d="M11.686 16.1 2.94 7.356a2.964 2.964 0 1 1 4.192-4.192l8.67 8.669c1.947-.852 4.234-.86 6.317.33.57.326 1.134.778 1.659 1.207l.213.174.001.002c.47.385.927.76 1.41 1.1 1.11.777 2.174 1.226 3.355 1.02a1 1 0 0 1 1.172.985c0 3.104-1.268 5.265-2.978 7.545-1.72 2.294-5.073 4.5-7.876 5.45a1 1 0 0 1-.873-.114 23.8 23.8 0 0 1-4-3.35c-1.149-1.21-2.135-2.551-2.553-3.799-.81-2.322-.689-4.488.037-6.282m1.853 5.628.005.014c.278.834 1.026 1.92 2.109 3.062.95 1 2.094 1.978 3.241 2.78.778-.3 1.59-.7 2.377-1.164-1.208-.71-2.559-1.675-3.535-2.889a1 1 0 0 1 1.56-1.253c.981 1.222 2.532 2.205 3.835 2.885.892-.689 1.67-1.435 2.22-2.169l.153-.204a4 4 0 0 1-.735-.365c-.464-.294-.831-.677-1.185-1.178a1 1 0 1 1 1.634-1.154c.25.354.438.527.623.644.184.117.418.213.82.332.638-1.082 1.054-2.142 1.205-3.363-1.413-.085-2.617-.728-3.61-1.424a26 26 0 0 1-1.538-1.196l-.206-.169c-.538-.44-.981-.787-1.385-1.018-3.939-2.25-9.73 1.708-7.588 7.83m13.944-10.173a.998.998 0 1 0 0-1.996.998.998 0 0 0 0 1.996m2.387 1.78a.998.998 0 1 1-1.997 0 .998.998 0 0 1 1.997 0" clip-rule="evenodd"/></svg>