<svg xmlns="http://www.w3.org/2000/svg" width="32" height="32" fill="none"><path fill="#000" d="M14.428 2.331a.973.973 0 0 0-1.39-.074 1.011 1.011 0 0 0-.073 1.412l.825.931H8.323C5.659 4.6 3.5 6.794 3.5 9.5V16c0 .552.44 1 .984 1a.992.992 0 0 0 .984-1V9.5c0-1.602 1.278-2.9 2.855-2.9h5.467l-.825.931c-.363.41-.33 1.043.073 1.412a.973.973 0 0 0 1.39-.074l2.304-2.6c.337-.38.337-.958 0-1.338l-2.304-2.6Z"/><path fill="#000" fill-rule="evenodd" d="M10.882 25.586a.992.992 0 0 0-.984 1c0 .552.44 1 .984 1h1.392V29c0 .552.44 1 .984 1a.992.992 0 0 0 .984-1v-1.414H25.14a.992.992 0 0 0 .984-1V15.514h1.392a.992.992 0 0 0 .984-1c0-.552-.44-1-.984-1h-1.392V12.1c0-.552-.44-1-.984-1a.992.992 0 0 0-.985 1v1.414H13.258a.992.992 0 0 0-.984 1v11.072h-1.392Zm13.273 0h-9.913V15.514h9.913v10.072Z" clip-rule="evenodd"/></svg>