<svg xmlns="http://www.w3.org/2000/svg" width="16" height="16" fill="none" class="persona-icon" viewBox="0 0 16 16"><path fill="currentColor" d="m8.228 3.09 5.786 3.214a.47.47 0 0 1 0 .82L8.228 10.34a.47.47 0 0 1-.456 0L3.648 8.047v2.524a.47.47 0 1 1-.939 0V7.526l-.723-.401a.47.47 0 0 1 0-.82L7.772 3.09a.47.47 0 0 1 .456 0"/><path fill="currentColor" d="M11.683 9.492v1.08c0 .36-.119.702-.327 1.004-.207.3-.498.555-.842.761a4.3 4.3 0 0 1-1.17.471A5.6 5.6 0 0 1 8 12.97c-.458 0-.914-.054-1.343-.16a4.3 4.3 0 0 1-1.171-.472 2.7 2.7 0 0 1-.842-.761 1.76 1.76 0 0 1-.327-1.005V9.492l3 1.667c.425.236.941.236 1.367 0z"/></svg>