<svg xmlns="http://www.w3.org/2000/svg" width="20" height="20" fill="none" class="persona-icon" viewBox="0 0 20 20"><path fill="currentColor" d="m10.304 3.954 7.071 3.928a.625.625 0 0 1 0 1.093l-7.071 3.928a.63.63 0 0 1-.607 0l-4.965-2.757v2.997a.625.625 0 1 1-1.25 0V9.45l-.857-.476a.625.625 0 0 1 0-1.093l7.072-3.928a.63.63 0 0 1 .607 0"/><path fill="currentColor" d="m5.447 11.795 3.718 2.066a1.72 1.72 0 0 0 1.67 0l3.719-2.066v1.348c0 .451-.15.88-.41 1.257-.258.374-.62.69-1.044.945-.426.256-.918.45-1.446.582a7 7 0 0 1-1.654.198 7 7 0 0 1-1.654-.198 5.3 5.3 0 0 1-1.445-.582 3.34 3.34 0 0 1-1.045-.945 2.2 2.2 0 0 1-.41-1.257z"/></svg>