<svg xmlns="http://www.w3.org/2000/svg" width="24" height="24" fill="none" class="persona-icon" viewBox="0 0 24 24"><path fill="currentColor" d="m12.364 4.15 9.25 5.139a.75.75 0 0 1 0 1.311l-9.25 5.139a.75.75 0 0 1-.728 0l-6.594-3.663v4.035a.75.75 0 0 1-1.5 0v-4.869L2.386 10.6a.75.75 0 0 1 0-1.311l9.25-5.14a.75.75 0 0 1 .728 0"/><path fill="currentColor" d="M17.889 14.386v1.725c0 .575-.19 1.122-.524 1.606-.331.48-.797.888-1.345 1.217-.55.33-1.188.583-1.873.753a9 9 0 0 1-2.147.257 9 9 0 0 1-2.148-.257 6.9 6.9 0 0 1-1.872-.753c-.548-.33-1.014-.738-1.345-1.217a2.8 2.8 0 0 1-.524-1.606v-1.725l4.796 2.664a2.25 2.25 0 0 0 2.186 0z"/></svg>