<svg xmlns="http://www.w3.org/2000/svg" width="32" height="32" fill="none" class="persona-icon" viewBox="0 0 32 32"><path fill="currentColor" d="m16.456 6.18 11.571 6.429a.938.938 0 0 1 0 1.64l-11.571 6.428a.94.94 0 0 1-.912 0l-8.249-4.582v5.048a.938.938 0 0 1-1.876 0v-6.09l-1.446-.804a.938.938 0 0 1 0-1.64L15.544 6.18a.94.94 0 0 1 .912 0"/><path fill="currentColor" d="M23.367 18.985v2.157c0 .72-.238 1.405-.656 2.01-.414.6-.996 1.11-1.682 1.522a8.6 8.6 0 0 1-2.343.943c-.857.213-1.77.32-2.686.32-.917 0-1.829-.107-2.686-.32a8.6 8.6 0 0 1-2.342-.943c-.687-.411-1.27-.922-1.683-1.522-.418-.605-.656-1.29-.656-2.01v-2.157l6 3.333c.85.472 1.884.472 2.734 0z"/></svg>