<svg xmlns="http://www.w3.org/2000/svg" width="16" height="16" fill="none" class="persona-icon" viewBox="0 0 16 16"><path fill="currentColor" fill-rule="evenodd" d="M3.658 2h8.105c.916 0 1.658.742 1.658 1.658v2.895a.5.5 0 1 1-1 0V3.658A.66.66 0 0 0 11.763 3H5.18c.088.202.136.424.136.658v8.056l.304-.304a.5.5 0 1 1 .707.707L5.17 13.275a.5.5 0 0 1-.853-.354v-5.29H2.5a.5.5 0 0 1-.5-.5V3.659C2 2.742 2.742 2 3.658 2m0 1A.66.66 0 0 0 3 3.658v2.974h1.316V3.658A.66.66 0 0 0 3.658 3" clip-rule="evenodd"/><path fill="currentColor" d="M6.632 4.816a.5.5 0 0 1 .5-.5h3.473a.5.5 0 0 1 0 1H7.132a.5.5 0 0 1-.5-.5M7.132 6.053H8.29a.5.5 0 0 1 0 1H7.132a.5.5 0 1 1 0-1M10.54 8.947a.5.5 0 0 1 .5.5v.93l.827.72a.5.5 0 1 1-.655.754l-1.172-1.018V9.447a.5.5 0 0 1 .5-.5"/><path fill="currentColor" fill-rule="evenodd" d="M10.605 7.21a3.395 3.395 0 1 1 0 6.79 3.395 3.395 0 0 1 0-6.79M8.21 10.606a2.395 2.395 0 1 0 4.79 0 2.395 2.395 0 0 0-4.79 0" clip-rule="evenodd"/></svg>