<svg xmlns="http://www.w3.org/2000/svg" width="20" height="20" fill="none" class="persona-icon" viewBox="0 0 20 20"><path fill="currentColor" fill-rule="evenodd" d="M4.152 2h10.916c1.189 0 2.152.963 2.152 2.152v3.899a.593.593 0 1 1-1.185 0V4.152a.967.967 0 0 0-.967-.967H6.075c.147.29.229.62.229.967v11.045l.548-.548a.593.593 0 0 1 .838.838l-1.56 1.56a.592.592 0 0 1-1.011-.42V9.424H2.593A.593.593 0 0 1 2 8.83V4.152C2 2.963 2.963 2 4.152 2m0 1.185a.967.967 0 0 0-.967.967v4.086H5.12V4.152a.967.967 0 0 0-.967-.967" clip-rule="evenodd"/><path fill="currentColor" d="M8.238 5.711c0-.327.265-.592.593-.592h4.678a.593.593 0 1 1 0 1.185H8.83a.593.593 0 0 1-.593-.593M8.83 7.458h1.56a.593.593 0 1 1 0 1.185H8.83a.593.593 0 1 1 0-1.185M13.509 11.357c.327 0 .592.265.592.592v1.314l.996.996a.593.593 0 0 1-.838.838l-1.343-1.343V11.95c0-.327.265-.592.593-.592"/><path fill="currentColor" fill-rule="evenodd" d="M13.509 9.018a4.491 4.491 0 1 1 0 8.982 4.491 4.491 0 0 1 0-8.982m-3.306 4.49a3.306 3.306 0 1 0 6.612 0 3.306 3.306 0 0 0-6.612 0" clip-rule="evenodd"/></svg>