<svg xmlns="http://www.w3.org/2000/svg" width="24" height="24" fill="none" class="persona-icon" viewBox="0 0 24 24"><path fill="currentColor" fill-rule="evenodd" d="M4.317 1.5A2.817 2.817 0 0 0 1.5 4.317v6.146c0 .425.344.769.768.769h3.33v9.475a.768.768 0 0 0 1.311.544l2.049-2.05a.768.768 0 0 0-1.087-1.086l-.737.738V4.317c0-.461-.11-.896-.307-1.28h11.832c.707 0 1.28.573 1.28 1.28V9.44a.768.768 0 0 0 1.537 0V4.317A2.817 2.817 0 0 0 18.659 1.5zm0 1.537c.707 0 1.28.573 1.28 1.28v5.378h-2.56V4.317c0-.707.573-1.28 1.28-1.28" clip-rule="evenodd"/><path fill="currentColor" d="M9.695 6.366c0-.425.344-.768.768-.768h6.147a.768.768 0 1 1 0 1.536h-6.147a.768.768 0 0 1-.768-.768M10.463 8.67a.768.768 0 0 0 0 1.537h2.05a.768.768 0 0 0 0-1.536zM16.61 13.793c.424 0 .768.344.768.768v1.73l1.312 1.312a.768.768 0 0 1-1.087 1.087l-1.762-1.762v-2.367c0-.424.344-.768.769-.768"/><path fill="currentColor" fill-rule="evenodd" d="M16.61 10.72a5.89 5.89 0 1 0 0 11.78 5.89 5.89 0 0 0 0-11.78m-4.354 5.89a4.354 4.354 0 1 1 8.707 0 4.354 4.354 0 0 1-8.707 0" clip-rule="evenodd"/></svg>