<svg xmlns="http://www.w3.org/2000/svg" width="32" height="32" fill="none"><path fill="currentColor" d="M6.529 3.002A3.526 3.526 0 0 0 3.002 6.53v7.579a1 1 0 0 0 1 1h4.053v11.631a1 1 0 0 0 1.707.707l2.526-2.526a1 1 0 0 0-1.414-1.414l-.82.819V6.529c0-.547-.124-1.065-.346-1.527h14.505c.843 0 1.526.684 1.526 1.527v6.315a1 1 0 1 0 2 0V6.53a3.526 3.526 0 0 0-3.526-3.527H6.529Zm0 2c.843 0 1.526.684 1.526 1.527v6.579H5.002v-6.58c0-.842.684-1.526 1.527-1.526Z"/><path fill="currentColor" d="M13.107 9.055a1 1 0 0 1 1-1h7.58a1 1 0 1 1 0 2h-7.58a1 1 0 0 1-1-1ZM14.107 11.844a1 1 0 1 0 0 2h2.527a1 1 0 1 0 0-2h-2.527ZM21.686 18.16a1 1 0 0 1 1 1v2.112l1.602 1.602a1 1 0 0 1-1.414 1.414l-2.188-2.187v-2.94a1 1 0 0 1 1-1Z"/><path fill="currentColor" d="M21.686 14.37a7.316 7.316 0 1 0 0 14.632 7.316 7.316 0 0 0 0-14.631Zm-5.315 7.316a5.316 5.316 0 1 1 10.631 0 5.316 5.316 0 0 1-10.631 0Z"/></svg>