<svg xmlns="http://www.w3.org/2000/svg" width="32" height="32" fill="none" class="persona-icon" viewBox="0 0 32 32"><path fill="currentColor" fill-rule="evenodd" d="M6.529 3.002h17.684a3.526 3.526 0 0 1 3.526 3.527v6.315a1 1 0 1 1-2 0V6.53c0-.843-.683-1.527-1.526-1.527H9.708c.222.462.347.98.347 1.527v17.796l.82-.82a1 1 0 0 1 1.413 1.415l-2.526 2.526a1 1 0 0 1-1.707-.707V15.108H4.002a1 1 0 0 1-1-1v-7.58A3.526 3.526 0 0 1 6.53 3.003m0 2c-.843 0-1.527.684-1.527 1.527v6.579h3.053v-6.58c0-.842-.683-1.526-1.526-1.526" clip-rule="evenodd"/><path fill="currentColor" d="M13.107 9.055a1 1 0 0 1 1-1h7.58a1 1 0 1 1 0 2h-7.58a1 1 0 0 1-1-1M14.107 11.844h2.527a1 1 0 1 1 0 2h-2.527a1 1 0 1 1 0-2M21.687 18.16a1 1 0 0 1 1 1v2.112l1.601 1.602a1 1 0 0 1-1.414 1.414l-2.187-2.187v-2.94a1 1 0 0 1 1-1"/><path fill="currentColor" fill-rule="evenodd" d="M21.686 14.37a7.316 7.316 0 1 1 0 14.632 7.316 7.316 0 0 1 0-14.631m-5.315 7.317a5.316 5.316 0 1 0 10.631 0 5.316 5.316 0 0 0-10.631 0" clip-rule="evenodd"/></svg>