<svg xmlns="http://www.w3.org/2000/svg" width="24" height="24" fill="none" class="persona-icon" viewBox="0 0 24 24"><path fill="currentColor" d="M11.077 6.692h5.538a.692.692 0 0 1 0 1.385h-5.538a.692.692 0 1 1 0-1.385M10.385 10.154c0-.383.31-.693.692-.693h2.77a.692.692 0 0 1 0 1.385h-2.77a.69.69 0 0 1-.692-.692M11.077 12.23h2.77a.692.692 0 1 1 0 1.385h-2.77a.692.692 0 0 1 0-1.384M17.539 10.154a.923.923 0 1 1-1.847 0 .923.923 0 0 1 1.846 0M16.615 13.846a.923.923 0 1 1 0-1.846.923.923 0 0 1 0 1.846"/><path fill="currentColor" fill-rule="evenodd" d="M3 5.539A2.54 2.54 0 0 1 5.539 3h12.923A2.54 2.54 0 0 1 21 5.539v14.769a.692.692 0 0 1-1.182.49l-1.925-1.926a1.154 1.154 0 0 0-1.632 0l-.62.62a2.54 2.54 0 0 1-3.59 0l-.62-.62a1.154 1.154 0 0 0-1.631 0l-1.926 1.925a.692.692 0 0 1-1.182-.49V11.77h-3A.69.69 0 0 1 3 11.077zm1.385 0v4.846h2.307V5.539a1.154 1.154 0 1 0-2.307 0m3.692 0v13.097l.743-.743a2.54 2.54 0 0 1 3.59 0l.62.62c.45.45 1.181.45 1.632 0l.62-.62a2.54 2.54 0 0 1 3.59 0l.743.743V5.54c0-.638-.516-1.154-1.153-1.154H7.8c.177.346.277.738.277 1.154" clip-rule="evenodd"/></svg>