<svg xmlns="http://www.w3.org/2000/svg" width="24" height="24" fill="none"><path fill="currentColor" d="M11.077 6.692a.692.692 0 0 0 0 1.385h5.538a.692.692 0 1 0 0-1.385h-5.538ZM10.385 10.154c0-.383.31-.693.692-.693h2.77a.692.692 0 0 1 0 1.385h-2.77a.692.692 0 0 1-.692-.692ZM11.077 12.23a.692.692 0 1 0 0 1.385h2.77a.692.692 0 0 0 0-1.384h-2.77ZM17.538 10.154a.923.923 0 1 1-1.846 0 .923.923 0 0 1 1.846 0ZM16.615 13.846a.923.923 0 1 0 0-1.846.923.923 0 0 0 0 1.846Z"/><path fill="currentColor" d="M3 5.538A2.538 2.538 0 0 1 5.538 3h12.924A2.538 2.538 0 0 1 21 5.538v14.77a.692.692 0 0 1-1.182.49l-1.925-1.926a1.154 1.154 0 0 0-1.632 0l-.62.62a2.538 2.538 0 0 1-3.59 0l-.62-.62a1.154 1.154 0 0 0-1.631 0l-1.926 1.925a.692.692 0 0 1-1.182-.49V11.77h-3A.692.692 0 0 1 3 11.077V5.539Zm1.385 0v4.847h2.307V5.539a1.154 1.154 0 1 0-2.307 0Zm3.692 0v13.098l.743-.743a2.538 2.538 0 0 1 3.59 0l.62.62c.45.45 1.181.45 1.632 0l.62-.62a2.538 2.538 0 0 1 3.59 0l.743.743V5.538c0-.637-.516-1.153-1.153-1.153H7.8c.177.346.277.738.277 1.154Z"/></svg>