<svg xmlns="http://www.w3.org/2000/svg" width="32" height="32" fill="none" class="persona-icon" viewBox="0 0 32 32"><path fill="currentColor" d="M7.816 5.518C9.962 4.564 12.856 4 16 4s6.038.564 8.184 1.518c1.072.476 2.001 1.07 2.676 1.779.644.676 1.091 1.5 1.136 2.436H28v.534h-.067c0 1.144-.933 2.527-3.235 3.678-2.255 1.127-5.383 1.788-8.698 1.788s-6.443-.66-8.698-1.788c-2.301-1.151-3.235-2.534-3.235-3.678H4v-.534h.004c.045-.936.492-1.76 1.136-2.437.675-.708 1.604-1.302 2.676-1.778"/><path fill="currentColor" d="M25.593 15.734c.916-.459 1.735-.998 2.407-1.608v2.24h-.005c0 1.151-.939 2.541-3.252 3.698-2.267 1.133-5.411 1.797-8.743 1.797s-6.476-.664-8.743-1.797c-2.313-1.157-3.252-2.547-3.252-3.697H4v-2.241c.673.61 1.491 1.15 2.408 1.608 2.596 1.298 6.047 2 9.592 2s6.996-.702 9.593-2"/><path fill="currentColor" d="M4 20.301v1.81c0 .957.428 1.825 1.106 2.553.672.721 1.609 1.329 2.71 1.818 1.106.492 2.397.872 3.793 1.13C13.007 27.868 14.5 28 16 28s2.993-.131 4.39-.389c1.397-.257 2.688-.637 3.794-1.13 1.101-.488 2.038-1.096 2.71-1.817.678-.728 1.106-1.596 1.106-2.553v-1.81c-.664.59-1.465 1.114-2.358 1.56-2.61 1.306-6.078 2.01-9.642 2.01s-7.032-.704-9.642-2.01c-.893-.446-1.694-.97-2.358-1.56"/></svg>