<svg xmlns="http://www.w3.org/2000/svg" width="16" height="16" fill="none" class="persona-icon" viewBox="0 0 16 16"><path fill="currentColor" d="M12.778 2.5v3.778h.11c.615 0 1.112.497 1.112 1.11V8c0 .614-.497 1.111-1.111 1.111h-.111v4.39c0 .457-.558.67-.87.337q-.242-.258-.494-.504a17 17 0 0 0-1.278-1.121c-.52-.408-1.101-.807-1.691-1.102a4.7 4.7 0 0 0-1.167-.42V4.709c.949-.148 1.998-.677 2.896-1.255a16 16 0 0 0 1.277-.916q.25-.2.492-.41a.501.501 0 0 1 .835.371M6.278 4.75v5.889H4.944a2.33 2.33 0 0 1-2.19-1.53c-.344-.025-.534-.297-.612-.453A1.5 1.5 0 0 1 2 8V7.39c0-.23.046-.462.142-.656.078-.156.268-.428.611-.453a2.33 2.33 0 0 1 2.191-1.53zM3.222 11.16a3.3 3.3 0 0 0 1.722.479h1.112v.945a1.417 1.417 0 0 1-2.834 0z"/></svg>