<svg xmlns="http://www.w3.org/2000/svg" width="16" height="16" fill="none" class="persona-icon" viewBox="0 0 16 16"><path fill="currentColor" d="M12.778 2.5a.501.501 0 0 0-.835-.373q-.24.21-.492.411c-.315.25-.76.584-1.277.916-.898.578-1.947 1.107-2.896 1.255v5.982c.368.072.762.218 1.167.42.59.295 1.172.694 1.69 1.102a16.6 16.6 0 0 1 1.772 1.625c.313.333.87.12.87-.337V9.11h.112c.614 0 1.111-.497 1.111-1.11v-.612c0-.614-.497-1.111-1.111-1.111h-.111zM6.278 4.75H4.944a2.33 2.33 0 0 0-2.19 1.53c-.344.025-.534.297-.612.453A1.5 1.5 0 0 0 2 7.39V8c0 .23.046.462.142.656.078.156.268.428.611.453a2.33 2.33 0 0 0 2.191 1.53h1.334zM3.222 11.16a3.3 3.3 0 0 0 1.722.479h1.112v.945a1.417 1.417 0 0 1-2.834 0z"/></svg>