<svg xmlns="http://www.w3.org/2000/svg" width="20" height="20" fill="none" class="persona-icon" viewBox="0 0 20 20"><path fill="currentColor" d="M15.603 3.6a.625.625 0 0 0-1.043-.465l-.002.002-.006.005-.027.024-.11.096c-.099.083-.243.204-.426.349-.366.29-.882.677-1.483 1.063-1.028.661-2.222 1.265-3.303 1.446v7.064c.409.086.845.25 1.295.475.683.342 1.358.804 1.96 1.277a19 19 0 0 1 2.022 1.847l.028.03.006.006.001.002a.625.625 0 0 0 1.088-.42v-5.065h.086c.738 0 1.336-.598 1.336-1.336V9.29c0-.738-.598-1.336-1.336-1.336h-.086zM6.444 6.175h1.509v6.939H6.444a2.76 2.76 0 0 1-2.58-1.783c-.404-.043-.628-.367-.719-.548a1.8 1.8 0 0 1-.17-.783V9.29c0-.272.054-.55.17-.782.091-.182.315-.506.719-.55a2.76 2.76 0 0 1 2.58-1.782M4.397 13.803v1.53a1.692 1.692 0 0 0 3.384 0v-.969H6.445a4 4 0 0 1-2.048-.562"/></svg>