<svg xmlns="http://www.w3.org/2000/svg" width="24" height="24" fill="none" class="persona-icon" viewBox="0 0 24 24"><path fill="currentColor" d="M19.167 3.75c0-.65-.763-.986-1.253-.56q-.361.317-.737.617c-.473.376-1.14.876-1.916 1.375-1.347.866-2.92 1.66-4.344 1.882v8.972c.553.109 1.143.327 1.75.631.885.442 1.758 1.04 2.536 1.652a25 25 0 0 1 1.918 1.682q.379.369.74.755c.47.5 1.306.18 1.306-.505v-6.584h.166c.92 0 1.667-.746 1.667-1.667v-.916c0-.92-.746-1.667-1.667-1.667h-.166zM9.417 7.125h-2c-1.51 0-2.796.956-3.287 2.295-.514.038-.8.446-.917.68a2.2 2.2 0 0 0-.213.984V12c0 .345.068.693.213.984.117.234.403.642.917.68a3.5 3.5 0 0 0 3.286 2.295h2V7.126M4.833 16.74a5 5 0 0 0 2.583.719h1.667v1.416a2.125 2.125 0 0 1-4.25 0z"/></svg>