<svg xmlns="http://www.w3.org/2000/svg" width="32" height="32" fill="none" class="persona-icon" viewBox="0 0 32 32"><path fill="currentColor" d="M25.556 5c0-.867-1.018-1.315-1.67-.746q-.482.422-.984.822c-.63.501-1.52 1.168-2.554 1.833-1.796 1.154-3.894 2.214-5.792 2.51v11.963c.737.144 1.524.436 2.334.84 1.18.59 2.343 1.388 3.381 2.203a33 33 0 0 1 2.557 2.242q.506.493.987 1.008c.625.666 1.74.24 1.74-.674v-8.779h.223A2.22 2.22 0 0 0 28 16v-1.222a2.22 2.22 0 0 0-2.222-2.222h-.223zM12.556 12.25V9.5H9.889a4.67 4.67 0 0 0-4.383 3.06c-.685.05-1.065.594-1.221.906-.194.388-.285.853-.285 1.312V16c0 .46.09.924.285 1.311.155.312.536.856 1.221.907a4.67 4.67 0 0 0 1.414 1.994 4.66 4.66 0 0 0 2.969 1.066h2.667zM6.444 22.32a6.64 6.64 0 0 0 3.445.958h2.222v1.889a2.833 2.833 0 1 1-5.667 0z"/></svg>