<svg xmlns="http://www.w3.org/2000/svg" width="20" height="20" fill="none" class="persona-icon" viewBox="0 0 20 20"><path fill="currentColor" fill-rule="evenodd" d="M5.225 5.371v9.258c0 .933.756 1.689 1.69 1.689h.458a.625.625 0 0 1 0 1.25h-.459a2.94 2.94 0 0 1-2.939-2.94V5.372a2.94 2.94 0 0 1 2.94-2.939h3.494c.601 0 1.175.25 1.585.689l3.448 3.694c.375.401.583.93.583 1.479v2.081a.625.625 0 1 1-1.25 0V8.311h-2.46a2.17 2.17 0 0 1-2.168-2.168v-2.46H6.913A1.69 1.69 0 0 0 5.225 5.37m8.737 1.69-2.565-2.749v1.831c0 .507.41.918.917.918z" clip-rule="evenodd"/><path fill="currentColor" fill-rule="evenodd" d="M8.572 12.896a4.15 4.15 0 0 1-.884-1.783c-.122-.589-.1-1.3.34-1.809.48-.556 1.238-.633 2.05-.403 1 .284 1.623.913 1.95 1.687.165.392.251.81.283 1.229q.048-.006.094-.008c.203-.011.555.002.82.265.149.149.217.32.24.485a5 5 0 0 1 .55-.427c.187-.121.514-.301.887-.258.475.056.74.416.86.78l.048.133a.624.624 0 0 1 .29 1.143 1 1 0 0 1-.335.15.8.8 0 0 1-.608-.11 1.1 1.1 0 0 1-.36-.4 2.5 2.5 0 0 1-.16-.351q-.17.122-.381.309l-.053.046a5 5 0 0 1-.442.356 1.4 1.4 0 0 1-.58.233.88.88 0 0 1-.724-.223.94.94 0 0 1-.273-.509 5.7 5.7 0 0 1-.954 1.942c-.258.336-.577.656-.938.841-.382.196-.893.27-1.348-.074-.436-.33-.561-.806-.492-1.253.063-.404.279-.786.516-1.102q.11-.147.239-.29a3.7 3.7 0 0 1-.635-.6m.956-.806c.197.234.42.421.656.548.218-.149.438-.273.648-.362q.12-.052.243-.1c-.003-.407-.065-.785-.199-1.101-.185-.44-.52-.795-1.14-.971-.586-.167-.737-.012-.763.018-.067.077-.15.306-.06.736.083.403.3.858.615 1.232m.904 1.942a3.7 3.7 0 0 0-.465.504c-.181.241-.262.43-.28.543l-.004.04.038-.017c.128-.066.313-.225.518-.491.137-.178.264-.379.375-.589a.6.6 0 0 1-.182.01m-.74 1.108.005.002-.002-.001-.008-.004z" clip-rule="evenodd"/><path fill="currentColor" d="M12.481 14.817h3.002a.625.625 0 1 1 0 1.25h-3.002a.625.625 0 1 1 0-1.25"/></svg>