<svg xmlns="http://www.w3.org/2000/svg" width="20" height="20" fill="none" class="persona-icon" viewBox="0 0 20 20"><path fill="currentColor" fill-rule="evenodd" d="M4.712 5.062c0-1.037.86-1.877 1.92-1.877h3.604v2.7c0 1.236 1.025 2.239 2.29 2.239h3.368c.241 0 .46-.14.556-.357a.582.582 0 0 0-.113-.64L12.12 2.71A2.315 2.315 0 0 0 10.447 2H6.632C4.902 2 3.5 3.37 3.5 5.062v9.876C3.5 16.63 4.902 18 6.632 18h1.684a.6.6 0 0 0 .606-.593.6.6 0 0 0-.606-.592H6.632c-1.06 0-1.92-.84-1.92-1.877V5.062Zm9.718 1.876h-1.904a1.066 1.066 0 0 1-1.078-1.053V4.023l2.982 2.915Z" clip-rule="evenodd"/><path fill="currentColor" fill-rule="evenodd" d="M12.418 10.672c-.688 0-1.246.558-1.246 1.246v.458a.586.586 0 1 1-1.172 0v-.458A2.418 2.418 0 0 1 12.418 9.5h.458a.586.586 0 0 1 0 1.172h-.458Zm-1.832 3.866c.324 0 .586.262.586.586v.458c0 .688.558 1.246 1.246 1.246h.458a.586.586 0 1 1 0 1.172h-.458A2.418 2.418 0 0 1 10 15.582v-.458c0-.324.262-.586.586-.586Zm4.452-4.452c0-.324.262-.586.586-.586h.458a2.418 2.418 0 0 1 2.418 2.418v.458a.586.586 0 0 1-1.172 0v-.458c0-.688-.558-1.246-1.246-1.246h-.458a.586.586 0 0 1-.586-.586Zm2.876 4.452c.323 0 .586.262.586.586v.458A2.418 2.418 0 0 1 16.082 18h-.458a.586.586 0 0 1 0-1.172h.458c.688 0 1.246-.558 1.246-1.246v-.458c0-.324.262-.586.586-.586ZM14.686 12.237c.25.265.367.697.174 1.104-.05.108-.101.217-.15.327.181-.08.347-.137.496-.176.197-.052.492-.07.746.093a.71.71 0 0 1 .319.477h.006a.567.567 0 0 1 .039 1.133l-.005.001a.295.295 0 0 0-.05.02.846.846 0 0 1-.552.078.779.779 0 0 1-.47-.305.836.836 0 0 1-.127-.259c-.147.07-.317.167-.507.302-.258.182-.655.288-1.004.069-.394-.248-.42-.703-.293-1.028.067-.17.142-.351.221-.536-.318.309-.534.623-.655.88a.567.567 0 0 1-1.026-.48c.283-.605.848-1.295 1.675-1.841.43-.285.9-.138 1.163.14Z" clip-rule="evenodd"/></svg>