<svg xmlns="http://www.w3.org/2000/svg" width="24" height="24" fill="none" class="persona-icon"><path fill="currentColor" d="M14.5 13a1.5 1.5 0 0 0-1.5 1.5v.563a.75.75 0 0 1-1.5 0V14.5a3 3 0 0 1 3-3h.563a.75.75 0 0 1 0 1.5H14.5Zm-2.25 4.688a.75.75 0 0 1 .75.75V19a1.5 1.5 0 0 0 1.5 1.5h.563a.75.75 0 0 1 0 1.5H14.5a3 3 0 0 1-3-3v-.563a.75.75 0 0 1 .75-.75Zm4.975-3.181c.325.345.479.907.227 1.437l-.159.343c.205-.087.393-.15.564-.194.255-.067.639-.092.971.122.188.12.354.32.412.59l.002.011a.75.75 0 0 1 .037 1.5h-.003a.346.346 0 0 0-.057.024c-.209.104-.46.157-.721.102a1.019 1.019 0 0 1-.616-.4 1.089 1.089 0 0 1-.155-.304 4.406 4.406 0 0 0-.61.365c-.333.236-.85.376-1.307.089-.517-.325-.549-.921-.384-1.342.067-.172.141-.354.22-.54-.343.355-.58.707-.717 1a.75.75 0 1 1-1.358-.636c.362-.773 1.083-1.654 2.138-2.351.562-.371 1.175-.18 1.516.184Zm.462-2.257a.75.75 0 0 1 .75-.75H19a3 3 0 0 1 3 3v.563a.75.75 0 0 1-1.5 0V14.5A1.5 1.5 0 0 0 19 13h-.563a.75.75 0 0 1-.75-.75Zm3.563 5.438a.75.75 0 0 1 .75.75V19a3 3 0 0 1-3 3h-.563a.75.75 0 0 1 0-1.5H19a1.5 1.5 0 0 0 1.5-1.5v-.563a.75.75 0 0 1 .75-.75Z"/><path fill="currentColor" d="M7.871 3.538a2.315 2.315 0 0 0-2.323 2.308v12.308a2.315 2.315 0 0 0 2.323 2.308h2.064c.428 0 .775.344.775.769 0 .425-.347.769-.775.769H7.871C5.733 22 4 20.278 4 18.154V5.846C4 3.722 5.733 2 7.871 2h4.677c.787 0 1.538.325 2.075.896l5.169 5.502c.21.224.267.55.144.832a.774.774 0 0 1-.71.462h-4.13a2.83 2.83 0 0 1-2.838-2.82V3.539H7.871Zm5.935 1.088v2.246c0 .708.578 1.282 1.29 1.282h2.26l-3.55-3.528Z"/></svg>