<svg xmlns="http://www.w3.org/2000/svg" width="32" height="32" fill="none" class="persona-icon" viewBox="0 0 32 32"><path fill="currentColor" fill-rule="evenodd" d="M10.857 5.429A2.857 2.857 0 0 0 8 8.286v15.428a2.857 2.857 0 0 0 2.857 2.858h.765a1 1 0 1 1 0 2h-.765A4.857 4.857 0 0 1 6 23.714V8.286a4.857 4.857 0 0 1 4.857-4.857h5.826a3.57 3.57 0 0 1 2.61 1.134l5.746 6.157c.618.661.96 1.532.96 2.437v3.469a1 1 0 1 1-2 0v-3.483h-4.142a3.57 3.57 0 0 1-3.571-3.571V5.429zm7.429.986v3.157c0 .868.703 1.571 1.571 1.571H22.7zM19.135 25.07a1 1 0 0 1 1-1h5.004a1 1 0 1 1 0 2h-5.004a1 1 0 0 1-1-1" clip-rule="evenodd"/><path fill="currentColor" fill-rule="evenodd" d="M14.74 21.817a6.2 6.2 0 0 1-1.088-1.018c-.735-.871-1.252-1.935-1.464-2.953-.203-.976-.166-2.145.556-2.979.786-.909 2.029-1.041 3.373-.659 1.654.47 2.684 1.509 3.224 2.788.28.662.422 1.37.472 2.078a3 3 0 0 1 .198-.018c.334-.019.906.005 1.333.43.265.263.373.57.4.86l.009-.007c.266-.231.608-.525.96-.752.312-.2.845-.493 1.452-.422.77.09 1.201.674 1.4 1.27q.048.146.089.249a.999.999 0 0 1 .489 1.831c-.08.054-.28.184-.544.242-.317.07-.666.025-.982-.177a1.8 1.8 0 0 1-.585-.652 4 4 0 0 1-.283-.628 8 8 0 0 0-.684.548l-.088.077c-.224.195-.497.434-.733.59-.27.18-.593.336-.947.382a1.42 1.42 0 0 1-1.173-.361c-.326-.307-.441-.706-.472-1.027l-.001-.008c-.273 1.196-.905 2.48-1.634 3.428-.429.558-.956 1.085-1.55 1.39-.627.322-1.461.442-2.202-.12-.712-.54-.917-1.316-.804-2.048.103-.663.458-1.294.852-1.818q.197-.262.426-.516m1.569-1.373a6.4 6.4 0 0 1 1.093-.613q.216-.091.431-.178c-.002-.693-.105-1.337-.334-1.879-.314-.744-.881-1.344-1.928-1.642-.984-.28-1.256-.025-1.314.043-.124.143-.261.541-.11 1.263.14.68.504 1.443 1.034 2.072.338.401.721.72 1.128.934m.794 2.197a1 1 0 0 1-.397.035 6.3 6.3 0 0 0-.794.859c-.305.404-.444.725-.474.922-.014.087-.008.113.007.128a.6.6 0 0 0 .109-.045c.221-.114.534-.384.878-.83.246-.32.475-.688.671-1.07" clip-rule="evenodd"/></svg>