<svg xmlns="http://www.w3.org/2000/svg" width="16" height="16" fill="none" class="persona-icon" viewBox="0 0 16 16"><path fill="currentColor" fill-rule="evenodd" d="M9.863 2.122a2.635 2.635 0 0 0-3.727 0L2.122 6.136a2.636 2.636 0 0 0 0 3.728l4.014 4.014a2.635 2.635 0 0 0 3.727 0l4.015-4.014a2.635 2.635 0 0 0 0-3.728zM8.342 5.203a.503.503 0 0 1 .711 0l1.744 1.744a.503.503 0 0 1 0 .711L9.053 9.402a.503.503 0 0 1-.711-.711l.884-.885H6.062v1.938a.503.503 0 0 1-1.006 0V7.303c0-.278.225-.504.503-.504h3.669l-.885-.884a.503.503 0 0 1 0-.712" clip-rule="evenodd"/></svg>