<svg xmlns="http://www.w3.org/2000/svg" width="20" height="20" fill="none" class="persona-icon" viewBox="0 0 20 20"><path fill="currentColor" fill-rule="evenodd" d="M7.872 3.252a3.01 3.01 0 0 1 4.256 0l4.62 4.62a3.01 3.01 0 0 1 0 4.256l-4.62 4.62a3.01 3.01 0 0 1-4.256 0l-4.62-4.62a3.01 3.01 0 0 1 0-4.256zm3.357 3.513a.602.602 0 0 0-.852.851l.98.98H7.19a.6.6 0 0 0-.602.601v2.81a.602.602 0 1 0 1.204 0V9.799h3.564l-.979.98a.602.602 0 1 0 .851.85l2.007-2.006a.6.6 0 0 0 0-.851z" clip-rule="evenodd"/></svg>