<svg xmlns="http://www.w3.org/2000/svg" width="24" height="24" fill="none" class="persona-icon" viewBox="0 0 24 24"><path fill="currentColor" fill-rule="evenodd" d="M9.348 3.593a3.75 3.75 0 0 1 5.304 0l5.756 5.755a3.75 3.75 0 0 1 0 5.304l-5.756 5.756a3.75 3.75 0 0 1-5.304 0l-5.756-5.756a3.75 3.75 0 0 1 0-5.304zm4.183 4.377a.75.75 0 0 0-1.061 1.06l1.22 1.22H8.5a.75.75 0 0 0-.75.75v3.5a.75.75 0 0 0 1.5 0v-2.75h4.44l-1.22 1.22a.75.75 0 1 0 1.06 1.06l2.5-2.5a.75.75 0 0 0 0-1.06z" clip-rule="evenodd"/></svg>