<svg xmlns="http://www.w3.org/2000/svg" width="32" height="32" fill="none" class="persona-icon" viewBox="0 0 32 32"><path fill="currentColor" fill-rule="evenodd" d="M19.727 4.244a5.27 5.27 0 0 0-7.454 0l-8.03 8.029a5.27 5.27 0 0 0 0 7.454l8.03 8.03a5.27 5.27 0 0 0 7.454 0l8.03-8.03a5.27 5.27 0 0 0 0-7.454zm-3.043 6.162a1.006 1.006 0 0 1 1.423 0l3.487 3.488c.393.393.393 1.03 0 1.423l-3.487 3.487a1.006 1.006 0 1 1-1.423-1.423l1.77-1.77h-6.331v3.877a1.006 1.006 0 0 1-2.013 0v-4.883c0-.556.45-1.006 1.007-1.006h7.336l-1.77-1.77a1.006 1.006 0 0 1 0-1.423" clip-rule="evenodd"/></svg>