<svg xmlns="http://www.w3.org/2000/svg" width="40" height="40" fill="none" class="persona-ilustration" viewBox="0 0 40 40"><g clip-path="url(#52_a)"><g clip-path="url(#53_b)"><path fill="#FF8D18" d="m5.894 14.273 19.55-6.184a2.16 2.16 0 0 1 2.712 1.408l3.766 11.894a2.16 2.16 0 0 1-1.408 2.71l-19.55 6.184z"/><path fill="#E47D10" d="m27.249 10.049.055.173c-1.201.642-5.07 2.427-9.223 3.771-5.237 1.695-10.315 2.191-10.315 2.191z"/><path fill="#E47D10" fill-rule="evenodd" d="m30.677 21.662-3.643-11.547.417-.132 3.643 11.547c.313.991-.13 2.071-1.067 2.316l-2.186.567-.11-.424 2.185-.567c.63-.165 1.02-.939.761-1.76" clip-rule="evenodd"/><path fill="#E47D10" d="M32.269 21.529 28.205 8.69c-.398-1.258-1.872-1.324-2.576-1.117L6.366 13.669c-.357.113-.623.431-.633.806a.875.875 0 0 0 .919.91l.888-.045s17.322-.282 18.005-.315l4.321 13.942q.12-.008.229-.034l.152.894.391-1.054c.189-.37.101-.654-.046-1.12L26.516 14.85c-.23-.724-.87-1.212-1.547-1.18l-17.686.387c-.112.003-.14-.156-.03-.19l18.54-5.73c.061-.02 1.53-.273 1.854.75l3.867 12.216q.04.158.121.384c.419 1.162-.117 1.942-.117 1.942 1.166-.784.75-1.896.75-1.896z"/><path fill="#FFB26F" d="m29.073 30.676-16.566.82c-.682.035-1.33-.46-1.561-1.19L5.744 14.663l18.878-.225c.676-.033 1.317.455 1.546 1.18l4.116 13.007c.317 1.004-.274 2.006-1.212 2.053z"/><path fill="#E47D10" fill-rule="evenodd" d="m28.832 15.261.117.185.116.186h-.001l-.003.002-.006.004a1 1 0 0 1-.115.064q-.119.066-.364.176c-.326.146-.826.342-1.528.55l-.125-.418a12 12 0 0 0 1.474-.531 6 6 0 0 0 .432-.216z" clip-rule="evenodd"/><path fill="#F18513" fill-rule="evenodd" d="M6.548 16.009a.22.22 0 0 1 .216-.222l.005.438a.22.22 0 0 1-.221-.216m.221.216.66-.008a.219.219 0 0 0-.005-.437l-.66.007zm2-.242a.22.22 0 0 1 .216-.222l1.334-.015a.219.219 0 1 1 .005.438l-1.334.015a.22.22 0 0 1-.221-.216m2.892-.034a.22.22 0 0 1 .217-.221l1.336-.015a.219.219 0 1 1 .006.437l-1.337.016a.22.22 0 0 1-.222-.217m2.896-.033a.22.22 0 0 1 .216-.221l1.335-.016a.219.219 0 0 1 .006.438l-1.336.015a.22.22 0 0 1-.221-.216m2.894-.034a.22.22 0 0 1 .216-.22l1.337-.016a.219.219 0 1 1 .005.437l-1.337.016a.22.22 0 0 1-.221-.216m2.895-.033a.22.22 0 0 1 .216-.222l1.334-.015a.219.219 0 1 1 .005.438l-1.334.015a.22.22 0 0 1-.221-.216m2.895-.034a.22.22 0 0 1 .216-.221l.273-.003.376-.004h.002a.9.9 0 0 1 .336.049.219.219 0 0 1-.145.413.4.4 0 0 0-.167-.025l-.518.006-.152.002a.22.22 0 0 1-.22-.217m1.464.219a.22.22 0 0 1 .301.071q.08.13.129.281l.213.675a.219.219 0 0 1-.417.133l-.214-.676a.8.8 0 0 0-.083-.183.22.22 0 0 1 .07-.302m.867 2.46a.22.22 0 0 1 .275.143l.427 1.351a.219.219 0 0 1-.417.132l-.427-1.35a.22.22 0 0 1 .142-.275m.927 2.928a.22.22 0 0 1 .274.142l.428 1.35a.219.219 0 1 1-.418.133l-.427-1.35a.22.22 0 0 1 .142-.275m.926 2.926a.22.22 0 0 1 .274.143l.428 1.35a.219.219 0 0 1-.418.133l-.427-1.351a.22.22 0 0 1 .143-.275m-16.311 5.595a.22.22 0 0 1 .21-.228l.643-.027a.219.219 0 0 1 .018.438l-.643.026a.22.22 0 0 1-.228-.21m2.145-.09a.22.22 0 0 1 .21-.227l1.286-.053a.219.219 0 0 1 .019.437l-1.287.053a.22.22 0 0 1-.228-.21m2.788-.115a.22.22 0 0 1 .21-.227l1.287-.054a.219.219 0 1 1 .018.438l-1.287.053a.22.22 0 0 1-.228-.21m2.789-.115a.22.22 0 0 1 .21-.228l1.287-.053a.219.219 0 0 1 .018.437l-1.287.053a.22.22 0 0 1-.228-.21m2.789-.116a.22.22 0 0 1 .21-.227l1.286-.054a.219.219 0 0 1 .018.438l-1.287.053a.22.22 0 0 1-.227-.21m6.726-2.232a.22.22 0 0 1 .274.143l.214.675q.055.173.058.346a.219.219 0 0 1-.438.01.8.8 0 0 0-.037-.224l-.214-.675a.22.22 0 0 1 .143-.275m-3.938 2.117a.22.22 0 0 1 .21-.228l1.287-.053a.219.219 0 1 1 .018.437l-1.287.054a.22.22 0 0 1-.228-.21m2.789-.116a.22.22 0 0 1 .21-.227l.643-.027q.01 0 .02-.002h.026l.024-.008.02-.006a.4.4 0 0 0 .154-.096.219.219 0 0 1 .312.306.8.8 0 0 1-.38.22.2.2 0 0 1-.055.007.2.2 0 0 1-.055.013l-.048.003-.644.027a.22.22 0 0 1-.227-.21" clip-rule="evenodd"/><path fill="#F18513" d="M24.265 23.335c.448-.142.66-.735.474-1.324s-.7-.951-1.148-.81c-.449.142-.66.735-.475 1.324.187.589.701.951 1.15.81"/><path fill="#E47D10" d="m32.152 13.651-2.26.32.766 2.423 2.25-.32s.008-.002.013-.001c.684-.097 1.081-.82.87-1.488-.211-.667-.953-1.031-1.637-.935z"/><path fill="#FF8D18" d="m32.169 13.908-2.197.32.727 2.297 2.186-.32s.008-.002.011 0c.663-.098 1.04-.692.838-1.326-.2-.634-.901-1.071-1.566-.973z"/></g></g><defs><clipPath id="52_a"><path fill="#fff" d="M0 0h40v40H0z"/></clipPath><clipPath id="53_b"><path fill="#fff" d="M0 0h40v40H0z"/></clipPath></defs></svg>