<svg xmlns="http://www.w3.org/2000/svg" width="32" height="32" fill="none"><path fill="#000" fill-rule="evenodd" d="M28 16c0 6.627-5.373 12-12 12S4 22.627 4 16 9.373 4 16 4s12 5.373 12 12Zm-14.02-4.64c-.47.275-.68.612-.68 1.04a.9.9 0 1 1-1.8 0c0-1.216.69-2.08 1.57-2.594.853-.498 1.923-.706 2.93-.706 1.007 0 2.077.208 2.929.706.88.514 1.571 1.377 1.571 2.594 0 1.386-.603 2.438-1.504 3.118-.62.468-1.355.744-2.096.864v.818a.9.9 0 1 1-1.8 0v-1.645a.9.9 0 0 1 .9-.9c.722 0 1.419-.202 1.912-.573.462-.35.788-.875.788-1.682 0-.428-.21-.765-.679-1.04-.498-.29-1.228-.46-2.021-.46-.793 0-1.523.17-2.02.46ZM16 23.2a1.2 1.2 0 1 0 0-2.4 1.2 1.2 0 0 0 0 2.4Z" clip-rule="evenodd"/></svg>