<svg xmlns="http://www.w3.org/2000/svg" width="32" height="32" fill="none"><path fill="#000" fill-rule="evenodd" d="M13.534 18.617a.983.983 0 0 1 .95.313L16 20.652l1.515-1.723a.983.983 0 0 1 .951-.313l3.16.7c.454.101.777.508.777.977V29c0 .379-.211.725-.547.894a.98.98 0 0 1-1.035-.094L16 26.145 11.18 29.8a.98.98 0 0 1-1.036.094A1.001 1.001 0 0 1 9.597 29v-8.706c0-.47.323-.876.777-.977l3.16-.7Zm-1.959 2.482V27l3.832-2.905a.98.98 0 0 1 1.186 0L20.425 27v-5.901l-1.816-.403-1.87 2.126a.985.985 0 0 1-1.478 0l-1.87-2.126-1.816.403Z" clip-rule="evenodd"/><path fill="#000" fill-rule="evenodd" d="M16 2c.282 0 .552.122.74.336l1.869 2.126 2.748-.61a.98.98 0 0 1 .793.168c.229.168.376.427.403.711l.277 2.831 2.577 1.14a.996.996 0 0 1 .545.608 1.01 1.01 0 0 1-.088.814l-1.422 2.455 1.422 2.454c.143.247.175.543.088.815a.996.996 0 0 1-.545.607l-2.577 1.14-.277 2.831a1.003 1.003 0 0 1-.403.711.98.98 0 0 1-.793.168l-2.748-.609-1.87 2.126a.985.985 0 0 1-1.478 0l-1.87-2.126-2.748.61a.98.98 0 0 1-.793-.169 1.002 1.002 0 0 1-.403-.71l-.277-2.832-2.577-1.14a.996.996 0 0 1-.545-.607 1.01 1.01 0 0 1 .088-.815l1.422-2.454-1.422-2.455a1.01 1.01 0 0 1-.088-.814.996.996 0 0 1 .545-.607l2.577-1.14.277-2.832c.027-.284.174-.543.403-.71a.98.98 0 0 1 .793-.168l2.748.609 1.87-2.126A.985.985 0 0 1 16 2Zm0 2.505-1.515 1.723a.983.983 0 0 1-.951.313l-2.228-.494-.224 2.295a1 1 0 0 1-.588.818l-2.089.924 1.153 1.99c.18.312.18.698 0 1.01l-1.153 1.99 2.09.924a1 1 0 0 1 .587.818l.224 2.294 2.228-.493a.983.983 0 0 1 .95.313L16 20.652l1.515-1.723a.983.983 0 0 1 .951-.313l2.228.493.224-2.294a1 1 0 0 1 .588-.818l2.089-.924-1.153-1.99a1.01 1.01 0 0 1 0-1.01l1.153-1.99-2.09-.924a1 1 0 0 1-.587-.818l-.224-2.295-2.228.494a.983.983 0 0 1-.95-.313L16 4.505Z" clip-rule="evenodd"/></svg>