<svg xmlns="http://www.w3.org/2000/svg" width="32" height="32" fill="none"><path fill="#000" d="M12.667 10.995a.995.995 0 0 0-1-.99c-.553 0-1 .443-1 .99v3.337c0 .546.447.99 1 .99.552 0 1-.444 1-.99v-3.337ZM12.667 17.668a.995.995 0 0 0-1-.99c-.553 0-1 .444-1 .99v3.337c0 .547.447.99 1 .99.552 0 1-.443 1-.99v-3.337Z"/><path fill="#000" fill-rule="evenodd" d="M6 5C3.79 5 2 6.773 2 8.96v2.75c0 .547.448.99 1 .99 1.841 0 3.333 1.478 3.333 3.3 0 1.823-1.492 3.3-3.333 3.3-.552 0-1 .443-1 .99v2.75C2 25.227 3.79 27 6 27h20c2.21 0 4-1.773 4-3.96v-2.75a.995.995 0 0 0-1-.99c-1.841 0-3.333-1.477-3.333-3.3 0-1.822 1.492-3.3 3.333-3.3.552 0 1-.443 1-.99V8.96C30 6.773 28.21 5 26 5H6Zm4.667 1.98v.678c0 .547.447.99 1 .99.552 0 1-.443 1-.99V6.98H26c1.105 0 2 .886 2 1.98v1.853c-2.468.463-4.333 2.61-4.333 5.187 0 2.578 1.865 4.724 4.333 5.187v1.853a1.99 1.99 0 0 1-2 1.98H12.667v-.678a.995.995 0 0 0-1-.99c-.553 0-1 .443-1 .99v.678H6c-1.105 0-2-.886-2-1.98v-1.853c2.468-.463 4.333-2.61 4.333-5.187 0-2.578-1.865-4.724-4.333-5.187V8.96a1.99 1.99 0 0 1 2-1.98h4.667Z" clip-rule="evenodd"/></svg>