<svg xmlns="http://www.w3.org/2000/svg" width="32" height="32" fill="none" class="persona-icon" viewBox="0 0 32 32"><path fill="currentColor" d="M9.115 9.889a5.889 5.889 0 1 1 11.778 0 5.889 5.889 0 0 1-11.778 0M28.334 15.444a1 1 0 1 0 0-2h-2v-2a1 1 0 1 0-2 0v2h-2a1 1 0 1 0 0 2h2v2a1 1 0 1 0 2 0v-2zM6.402 20.101a7.9 7.9 0 0 1 6.002-2.768h5.199a7.9 7.9 0 0 1 6.003 2.768 4.45 4.45 0 0 1 1.064 2.887v.345A4.667 4.667 0 0 1 20.004 28h-10a4.667 4.667 0 0 1-4.667-4.667v-.345c0-1.058.377-2.082 1.065-2.887"/></svg>