<svg xmlns="http://www.w3.org/2000/svg" width="16" height="16" fill="none"><path fill="#000" fill-rule="evenodd" d="M3.301 6.51c.32-.746 1.136-1.276 2.094-1.276h1.737c.888 0 1.936-.4 2.873-.896a14.901 14.901 0 0 0 1.912-1.216c.386-.292.925-.019.925.377v3.01h.08c.595 0 1.078.426 1.078.95v.51c0 .526-.483.951-1.079.951h-.079v3.503c0 .414-.592.687-.966.342-.26-.24-1-.895-1.918-1.488-.941-.608-1.97-1.082-2.827-1.082h-.657v1.6C6.474 12.46 5.86 13 5.105 13s-1.368-.54-1.368-1.205V9.547A1.946 1.946 0 0 1 3.3 8.92H3.08C2.483 8.92 2 8.495 2 7.97v-.51c0-.525.483-.95 1.079-.95H3.3Zm7.219-1.417c.508-.269.963-.551 1.322-.79v7.203c-.355-.286-.799-.62-1.293-.94-.83-.535-1.876-1.078-2.917-1.217V6.086c1.018-.114 2.054-.552 2.888-.993ZM6.632 6.115v3.2H5.394c-.68 0-1.23-.483-1.237-1.08v-1.04c.006-.598.558-1.08 1.237-1.08h1.237Zm-1.895 3.993v1.687c0 .179.165.324.368.324.204 0 .369-.145.369-.324v-1.6h-.08c-.228 0-.45-.03-.657-.087Z" clip-rule="evenodd"/></svg>