<svg xmlns="http://www.w3.org/2000/svg" width="32" height="32" fill="none"><path fill="#000" fill-rule="evenodd" d="M26.474 18.1v8.413c0 1.029-1.296 1.607-2.07.824-.679-.686-2.3-2.25-4.268-3.636-2.011-1.416-4.194-2.507-6.03-2.507h-1.527v3.97c0 1.566-1.296 2.836-2.895 2.836S6.79 26.73 6.79 25.164v-5.487a4.675 4.675 0 0 1-.978-1.577h-.548C4.013 18.1 3 17.107 3 15.883v-1.238c0-1.224 1.013-2.217 2.263-2.217h.548c.668-1.804 2.433-3.093 4.505-3.093h3.79c1.902 0 4.124-.923 6.129-2.08a32.348 32.348 0 0 0 4.257-2.972c.8-.663 1.982-.078 1.982.903v7.242h.263c1.25 0 2.263.993 2.263 2.217v1.238c0 1.224-1.013 2.217-2.263 2.217h-.263ZM21.25 8.943a33.328 33.328 0 0 0 3.224-2.136v17.86a33.511 33.511 0 0 0-3.171-2.557c-1.79-1.26-4.005-2.498-6.198-2.804v-8.072c2.152-.251 4.347-1.253 6.145-2.291Zm-8.145 2.351v7.94h-2.79c-1.54 0-2.789-1.223-2.789-2.732v-2.475c0-1.51 1.25-2.733 2.79-2.733h2.79ZM8.79 20.95v4.214c0 .484.401.877.895.877a.886.886 0 0 0 .895-.877v-3.97h-.263a4.874 4.874 0 0 1-1.527-.244Z" clip-rule="evenodd"/></svg>