<svg xmlns="http://www.w3.org/2000/svg" width="32" height="32" fill="none"><path fill="#000" fill-rule="evenodd" d="M12.195 13.609c-1.58.768-3.13.914-4.516.492-1.576-.481-2.796-1.654-3.544-3.15-.48-.96-.958-2.52-1.118-4.16a3.427 3.427 0 0 1 3.774-3.774c1.64.16 3.2.638 4.16 1.118 1.497.748 2.669 1.967 3.15 3.544.422 1.386.276 2.935-.492 4.515l2.39 2.391 2.661-2.66a4.773 4.773 0 0 1 .633-5.966l2.667-2.666a1 1 0 1 1 1.414 1.414l-2.667 2.667a2.772 2.772 0 0 0-.576 3.08l4.513-4.513a1 1 0 1 1 1.415 1.414l-4.513 4.513a2.772 2.772 0 0 0 3.08-.575l2.667-2.667a1 1 0 1 1 1.414 1.414l-2.667 2.667a4.773 4.773 0 0 1-5.966.633L4.707 28.707a1 1 0 0 1-1.414-1.414L14.586 16l-2.391-2.391ZM5.008 6.597c-.092-.94.65-1.68 1.589-1.59 1.419.139 2.739.556 3.46.916 1.1.551 1.838 1.38 2.13 2.34.27.884.2 2.007-.51 3.316a1.024 1.024 0 0 0-.098.098c-1.31.71-2.432.78-3.316.51-.96-.292-1.789-1.03-2.34-2.131-.36-.72-.777-2.04-.915-3.46Z" clip-rule="evenodd"/><path fill="#000" d="M17.96 17.96a1 1 0 0 0 0 1.414l9.333 9.333a1 1 0 1 0 1.414-1.414l-9.333-9.334a1 1 0 0 0-1.414 0Z"/></svg>