<svg xmlns="http://www.w3.org/2000/svg" width="20" height="20" fill="none" class="persona-icon" viewBox="0 0 20 20"><path fill="currentColor" fill-rule="evenodd" d="M6.914 3.682a1.69 1.69 0 0 0-1.69 1.69v9.257c0 .433.163.826.43 1.125a.625.625 0 1 1-.932.833 2.93 2.93 0 0 1-.747-1.958V5.372a2.94 2.94 0 0 1 2.94-2.94h3.494c.601 0 1.175.25 1.585.69l3.448 3.693c.374.401.583.93.583 1.48v2.851a.625.625 0 0 1-1.25 0V8.311h-2.46a2.17 2.17 0 0 1-2.168-2.168v-2.46zm4.483.631v1.83c0 .507.41.918.918.918h1.647z" clip-rule="evenodd"/><path fill="currentColor" d="m12.676 17.208-1.302-2.559.032 1.206v1.174c0 .3-.217.549-.517.549s-.516-.25-.516-.55v-3.853c0-.274.172-.548.587-.548.23 0 .446.095.574.332l1.301 2.526-.025-1.238v-1.084c0-.294.217-.536.517-.536s.516.242.516.536v3.898c0 .274-.204.517-.587.517-.28 0-.459-.147-.58-.37"/><path fill="currentColor" fill-rule="evenodd" d="M9.831 14.375c0 .976-.542 1.729-1.595 1.729h-.485v.9a.57.57 0 0 1-.568.573.575.575 0 0 1-.567-.574v-3.745a.57.57 0 0 1 .567-.567h1.021c1.098 0 1.627.72 1.627 1.684M8 13.673h-.249v1.461h.223c.53 0 .721-.249.721-.753 0-.453-.146-.708-.695-.708" clip-rule="evenodd"/><path fill="currentColor" d="M17.883 15.14a.464.464 0 0 0-.466-.465h-.759a.47.47 0 0 0-.466.478c0 .262.204.472.466.472h.16v.976c-.109.013-.23.02-.313.02-.46 0-.887-.217-.887-.951v-1.13c0-.765.549-.924 1.002-.924.194 0 .335.04.459.077l.09.025c.063.012.127.025.19.025.262 0 .46-.198.46-.478a.47.47 0 0 0-.223-.409c-.268-.185-.715-.23-1.078-.23-1.162 0-2.036.62-2.036 2.023v.938c0 1.48.843 1.99 1.966 1.99.261 0 .6-.019.976-.114a.61.61 0 0 0 .459-.606z"/></svg>