<svg xmlns="http://www.w3.org/2000/svg" width="24" height="24" fill="none" class="persona-icon" viewBox="0 0 24 24"><path fill="currentColor" fill-rule="evenodd" d="M7.89 3.5a2.333 2.333 0 0 0-2.334 2.334v12.333c0 .598.223 1.141.593 1.554a.75.75 0 0 1-1.118 1 3.82 3.82 0 0 1-.975-2.554V5.834A3.833 3.833 0 0 1 7.889 2h4.657c.777 0 1.52.323 2.05.892l4.594 4.92c.485.52.755 1.205.755 1.915v3.8a.75.75 0 0 1-1.5 0v-3.8q0-.03-.002-.06h-3.359A2.806 2.806 0 0 1 12.28 6.86v-3.36zm5.889.713v2.648c0 .721.584 1.306 1.305 1.306h2.385z" clip-rule="evenodd"/><path fill="currentColor" d="m15.566 21.605-1.734-3.408.042 1.606v1.564c0 .4-.289.731-.688.731-.4 0-.689-.331-.689-.73v-5.135c0-.365.23-.73.782-.73.306 0 .595.127.765.441l1.734 3.366-.034-1.649v-1.445c0-.39.29-.714.689-.714.4 0 .688.323.688.714v5.194c0 .365-.272.688-.782.688-.374 0-.612-.195-.773-.493"/><path fill="currentColor" fill-rule="evenodd" d="M11.776 17.831c0 1.3-.723 2.304-2.125 2.304h-.646v1.198a.76.76 0 0 1-.757.765.765.765 0 0 1-.756-.765v-4.99c0-.416.34-.756.756-.756h1.36c1.462 0 2.168.96 2.168 2.244m-2.44-.935h-.331v1.947h.297c.706 0 .96-.332.96-1.003 0-.604-.195-.944-.926-.944" clip-rule="evenodd"/><path fill="currentColor" d="M22.503 18.851c0-.348-.28-.62-.62-.62H20.87a.63.63 0 0 0-.62.637.62.62 0 0 0 .62.63h.213v1.3a4 4 0 0 1-.417.025c-.612 0-1.181-.289-1.181-1.266v-1.505c0-1.02.73-1.232 1.334-1.232.259 0 .447.055.612.102q.06.019.12.034c.084.017.17.034.254.034.349 0 .612-.264.612-.638a.63.63 0 0 0-.297-.544c-.357-.246-.952-.306-1.437-.306-1.547 0-2.711.825-2.711 2.695v1.25c0 1.971 1.122 2.651 2.618 2.651.348 0 .799-.025 1.3-.153a.814.814 0 0 0 .612-.807z"/></svg>