<svg xmlns="http://www.w3.org/2000/svg" width="32" height="32" fill="none" class="persona-icon" viewBox="0 0 32 32"><path fill="currentColor" fill-rule="evenodd" d="M10.857 5.429A2.857 2.857 0 0 0 8 8.286v15.428c0 .732.274 1.398.726 1.904a1 1 0 1 1-1.49 1.333A4.84 4.84 0 0 1 6 23.714V8.286a4.857 4.857 0 0 1 4.857-4.857h5.826c.99 0 1.935.41 2.61 1.134l5.747 6.157c.617.661.96 1.532.96 2.437v4.753a1 1 0 1 1-2 0v-4.767h-4.143a3.57 3.57 0 0 1-3.571-3.571V5.429zm7.429.986v3.157c0 .868.703 1.571 1.571 1.571H22.7z" clip-rule="evenodd"/><path fill="currentColor" d="m20.46 28.012-2.17-4.264.054 2.01v1.956c0 .5-.362.915-.861.915-.5 0-.862-.415-.862-.915v-6.422c0-.458.287-.915.979-.915.382 0 .744.16.956.553l2.17 4.21-.043-2.062V21.27c0-.489.362-.893.861-.893.5 0 .862.404.862.893v6.497c0 .457-.34.862-.979.862-.467 0-.765-.245-.967-.617"/><path fill="currentColor" fill-rule="evenodd" d="M15.719 23.29c0 1.628-.904 2.882-2.659 2.882h-.808v1.5a.95.95 0 0 1-.946.957.96.96 0 0 1-.946-.957V21.43c0-.521.425-.947.946-.947h1.701c1.83 0 2.712 1.202 2.712 2.808m-3.052-1.169h-.415v2.435h.372c.883 0 1.202-.415 1.202-1.255 0-.755-.245-1.18-1.16-1.18" clip-rule="evenodd"/><path fill="currentColor" d="M29.139 24.567a.774.774 0 0 0-.777-.776h-1.265a.785.785 0 0 0-.776.797c0 .436.34.787.776.787h.266v1.627a5 5 0 0 1-.521.032c-.766 0-1.478-.362-1.478-1.585v-1.882c0-1.276.914-1.542 1.67-1.542.323 0 .558.069.764.129q.077.022.15.041c.106.022.212.043.319.043.436 0 .765-.33.765-.797a.79.79 0 0 0-.372-.681c-.447-.308-1.19-.383-1.797-.383-1.935 0-3.392 1.032-3.392 3.37v1.564c0 2.467 1.404 3.318 3.275 3.318.436 0 1-.032 1.627-.192.425-.106.765-.489.765-1.01z"/></svg>