<svg xmlns="http://www.w3.org/2000/svg" width="40" height="40" fill="none" class="persona-ilustration" viewBox="0 0 40 40"><g clip-path="url(#YN589fHKqa_a)"><path fill="#2C54DC" d="M37.485 24.293v-7.446L19.977 26.923v7.468z"/><path fill="#A6B7FF" d="M37.5 16.845 20.616 7.098 3.094 17.176l16.884 9.748z"/><path fill="#2C54DC" d="m29.926 20.112-9.992 5.751L4.956 17.22 20.67 7.96v6.685z"/><path fill="#3E68F5" d="m29.948 20.112-9.998 5.741-9.264-5.517 9.98-5.692z"/><path fill="#375FE9" d="M35.955 16.709 20.665 7.96v6.685l9.306 5.49z"/><path fill="#2C54DC" d="M19.977 34.392V20.316l-.878.507v14.075z"/><path fill="#CBD3FF" d="M19.986 20.316 3.378 10.724l-.878.506 16.609 9.593z"/><path fill="#A6B7FF" d="m2.5 11.231 16.6 9.583v14.093L2.5 25.324z"/><path fill="#375FE9" d="M7.678 17.594c0-.697.489-.98 1.092-.63l2.732 1.576c.603.349 1.093 1.196 1.093 1.893v.63c0 .698-.49.98-1.093.632L8.77 20.117c-.603-.348-1.092-1.195-1.092-1.892z"/><path fill="#CBD3FF" d="M8.32 16.815c-.055.035-.089.106-.089.205v.133c0 .206.145.455.322.558l3.166 1.828c.178.102.322.02.322-.186v-.133c0-.1-.034-.21-.09-.308a1.9 1.9 0 0 0-.449-.371L8.77 16.963a1 1 0 0 0-.45-.148"/></g><defs><clipPath id="YN589fHKqa_a"><path fill="#fff" d="M0 0h40v40H0z"/></clipPath></defs></svg>