<svg xmlns="http://www.w3.org/2000/svg" width="300" height="300" fill="none" class="persona-ilustration" viewBox="0 0 300 300"><g clip-path="url(#d76Y_-ypJWiPq4tCKaWTqOetb8vI1dDysilfK1DV_eE_a)"><g clip-path="url(#d76Y_-ypJWiPq4tCKaWTqOetb8vI1dDysilfK1DV_eE_b)"><rect width="250" height="250" x="25" y="25" fill="#D3EDFF" rx="125"/><g opacity=".75"><path fill="#82C2F1" d="M138.878 211.655H61.044v64.337C61.044 289.251 78.468 300 99.96 300s38.917-10.749 38.917-24.008z"/><ellipse cx="99.961" cy="211.656" fill="#82C2F1" rx="38.917" ry="24.008"/><path fill="#AADBFF" d="M61.582 215.659c3.09-11.353 19.097-20.004 38.379-20.004s35.289 8.651 38.379 20.004c-3.09 11.353-19.097 20.004-38.379 20.004s-35.29-8.651-38.379-20.004"/></g><path fill="#375FE9" d="m135.865 223.103 108.939 62.895v93.292l-108.939-62.896z"/><path fill="#A6B7FF" d="m142.441 234.56 96.116 55.492v81.602l-96.116-55.492z"/><path fill="#375FE9" d="M135.866-37.626 244.804 25.27v265.997l-108.938-62.896z"/><path fill="#A6B7FF" d="M142.442-30.492 238.557 25V106.6l-96.115-55.492z"/><path fill="#3E68F5" d="m142.441 58.833 96.116 55.492v81.601l-96.116-55.492z"/><path fill="#A6B7FF" d="m142.442 145.408 96.115 55.492v81.602l-96.115-55.493z"/><path fill="#A6B7FF" d="m272.644 133.45-97.765-56.442-101.461 58.359 97.764 56.445z"/><path fill="#2C54DC" d="m266.402 129.827-95.473 55.844-86.73-50.052 95.62-56.013z"/><path fill="#3E68F5" d="m266.897 130.251-95.872 55.361-49.849-28.778 96.072-55.359z"/><path fill="#2C54DC" d="M272.557 176.57v-43.111L171.179 191.8v43.245z"/><path fill="#A6B7FF" d="M353.744-37.625 244.806 25.271v265.997l108.938-62.896z"/><path fill="#3FB4FF" d="m244.798-100.524 108.943 62.899-108.932 62.899-108.943-62.9z"/></g><path fill="#4793CC" d="M93.049 160.805c-.512 6.084.301 22.494.772 29.938 7.483 2.956 11.697 2.363 12.869 1.697 1.772-7.148 3.396-23.237 5.078-29.167 1.681-5.93 5.816-27.121 4.547-36.927.102-7.266 2.422-19.674 3.54-28.755 1.014-8.233 3.122-37.422 3.718-42.265.477-3.874-.75-22.446-2.011-30.713.421-2.61-3.005 3.645-5.091 7.417-3.896 7.043-8.306 32.81-9.78 37.538s-5.474 18.91-5.89 28.28c-.285 6.4-1.916 21.996-3.578 29.057-1.178 8.764-3.663 27.815-4.174 33.9"/><path fill="#4793CC" d="M108.101 160.805c.512 6.084-.301 22.494-.772 29.938-7.483 2.956-11.697 2.363-12.87 1.697-1.771-7.148-3.395-23.237-5.077-29.167s-5.816-27.121-4.547-36.927c-.102-7.266-2.422-19.674-3.54-28.755-1.014-8.233-3.122-37.422-3.718-42.265-.477-3.874.75-22.446 2.011-30.713-.42-2.61 3.005 3.645 5.091 7.417 3.896 7.043 8.306 32.81 9.78 37.538s5.474 18.91 5.89 28.28c.285 6.4 1.916 21.996 3.578 29.057 1.178 8.764 3.663 27.815 4.174 33.9"/><path fill="#82C2F1" d="M85.94 141.189c-.028 6.108 3.08 63.562 4.138 70.942 7.692 2.31 11.845 1.361 12.961.598 1.199-7.275.547-64.616 1.752-70.669s3.648-27.524 1.605-37.188c-.474-7.25.855-19.814 1.25-28.958.358-8.293.145-37.562.355-42.44.169-3.9-2.526-22.306-4.438-30.438.212-2.637-2.706 3.888-4.486 7.824-3.325 7.35-5.678 33.406-6.772 38.242s-3.956 19.31-3.63 28.684c.224 6.403-.165 22.085-1.262 29.263-.48 8.835-1.446 28.033-1.473 34.14"/><path fill="#82C2F1" d="M70.172 87.7c5.042 37.69 10.582 87.532 12.064 126.088 0 5.296 4.475 5.691 8.304 6.257 1.266.187 1.266-2.867 1.266-6.257-2.278-33.486 2.278-93.89-5.536-123.259-6.125-23.02-19.074-38.511-25.226-39.454.57 2.476 6.871 19.76 9.128 36.625M102.302 156.924c-1.433 7.988.345 46.874 1.412 65.318 4.253-.765 12.823-4.457 13.08-13.1l1.483-49.777c2.061-14.868 6.956-48.057 10.054-61.862 3.099-13.805-3.38-32.68-7.007-40.392-2.117 8.43-7.283 26.495-11.01 31.32-4.658 6.031-6.222 58.508-8.012 68.493"/><path fill="#AADBFF" d="M87.303 195.723c.236 6.102 3.047 22.274 4.423 29.597 7.784 1.953 11.892.814 12.973 0 .885-7.323.531-23.495 1.475-29.597.943-6.103 2.457-27.665 0-37.226-.787-7.221 0-19.833 0-28.987 0-8.301-1.475-37.531-1.475-42.413 0-3.906-3.485-22.168-5.746-30.203.099-2.645-2.535 4.008-4.144 8.023-3.005 7.496-6.622 16.624-7.506 21.506s-.73 36.484 0 45.833c.5 6.386.786 22.071 0 29.292-.098 8.849-.236 28.072 0 34.175"/><path fill="#A6B7FF" d="m272.644 133.45-97.765-56.443-101.461 58.36 97.764 56.444z"/><path fill="#2C54DC" d="m244.697 142.523-73.768 43.148-86.73-50.052 95.62-56.013 64.878 37.632z"/><path fill="#3E68F5" d="m244.753 142.58-73.728 43.032-49.849-28.778 96.072-55.36 27.505 15.665z"/><path fill="#375FE9" d="m238.557 68.172 6.14 2.472v134.22l-6.14-2.472z"/><path fill="#2C54DC" d="M171.179 235.044v-81.5l-5.083 2.935v81.5z"/><path fill="#CBD3FF" d="m171.233 153.542-96.17-55.543-5.082 2.935 96.169 55.543z"/><path fill="#A6B7FF" d="m69.98 100.938 96.116 55.492v81.601l-96.115-55.492z"/><path fill="#375FE9" d="M99.961 137.783c0-4.035 2.833-5.671 6.327-3.653l15.817 9.132c3.495 2.017 6.327 6.924 6.327 10.958v3.653c0 4.035-2.832 5.671-6.327 3.653l-15.817-9.132c-3.494-2.017-6.327-6.924-6.327-10.958z"/><path fill="#CBD3FF" d="M103.683 133.272c-.319.202-.516.612-.516 1.188v.769c0 1.189.835 2.634 1.865 3.229l18.33 10.583c1.03.594 1.864.112 1.864-1.076v-.769c0-.576-.196-1.212-.515-1.783-.794-.874-1.677-1.615-2.606-2.151l-15.817-9.132c-.929-.536-1.811-.814-2.605-.858"/></g><defs><clipPath id="d76Y_-ypJWiPq4tCKaWTqOetb8vI1dDysilfK1DV_eE_a"><path fill="#fff" d="M0 0h300v300H0z"/></clipPath><clipPath id="d76Y_-ypJWiPq4tCKaWTqOetb8vI1dDysilfK1DV_eE_b"><rect width="250" height="250" x="25" y="25" fill="#fff" rx="125"/></clipPath></defs></svg>