<svg xmlns="http://www.w3.org/2000/svg" width="240" height="240" fill="none" class="persona-ilustration" viewBox="0 0 240 240"><g clip-path="url(#dg_a)"><g clip-path="url(#dh_b)"><rect width="200" height="200" x="20" y="20" fill="#D3EDFF" rx="100"/><g opacity=".75"><path fill="#82C2F1" d="M111.103 169.324H48.835v51.469c0 10.608 13.94 19.207 31.134 19.207s31.134-8.599 31.134-19.206z"/><ellipse cx="79.969" cy="169.325" fill="#82C2F1" rx="31.134" ry="19.206"/><path fill="#AADBFF" d="M49.266 172.527c2.471-9.083 15.277-16.003 30.703-16.003s28.231 6.92 30.703 16.003c-2.472 9.083-15.277 16.004-30.703 16.004s-28.232-6.921-30.703-16.004"/></g><path fill="#375FE9" d="m108.692 178.482 87.151 50.317v74.633l-87.151-50.317z"/><path fill="#A6B7FF" d="m113.953 187.648 76.892 44.394v65.281l-76.892-44.394z"/><path fill="#375FE9" d="m108.693-30.1 87.15 50.316v212.797l-87.15-50.316z"/><path fill="#A6B7FF" d="M113.953-24.394 190.846 20v65.28l-76.893-44.393z"/><path fill="#3E68F5" d="m113.953 47.066 76.892 44.394v65.281l-76.892-44.394z"/><path fill="#A6B7FF" d="m113.953 116.326 76.893 44.394v65.281l-76.893-44.393z"/><path fill="#A6B7FF" d="m218.115 106.76-78.212-45.154-81.169 46.688 78.212 45.155z"/><path fill="#2C54DC" d="m213.121 103.862-76.377 44.675-69.385-40.042 76.496-44.81z"/><path fill="#3E68F5" d="M213.518 104.201 136.82 148.49l-39.88-23.022L173.8 81.18z"/><path fill="#2C54DC" d="M218.045 141.256v-34.489l-81.101 46.673v34.596z"/><path fill="#A6B7FF" d="m282.995-30.1-87.151 50.317v212.797l87.151-50.316z"/><path fill="#3FB4FF" d="m195.839-80.42 87.154 50.32-87.146 50.319-87.154-50.32z"/></g><path fill="#4793CC" d="M74.439 128.644c-.41 4.867.241 17.995.618 23.951 5.986 2.364 9.358 1.89 10.295 1.357 1.418-5.719 2.717-18.589 4.062-23.333 1.345-4.745 4.653-21.698 3.638-29.542.081-5.813 1.938-15.74 2.832-23.004.811-6.587 2.497-29.938 2.974-33.812.382-3.1-.6-17.957-1.608-24.57.336-2.089-2.404 2.915-4.073 5.933-3.117 5.635-6.645 26.249-7.824 30.03s-4.38 15.128-4.712 22.624c-.228 5.12-1.533 17.597-2.863 23.246-.942 7.012-2.93 22.252-3.339 27.12"/><path fill="#4793CC" d="M86.48 128.644c.41 4.867-.24 17.995-.617 23.951-5.986 2.364-9.358 1.89-10.295 1.357-1.418-5.719-2.717-18.589-4.062-23.333-1.345-4.745-4.653-21.698-3.638-29.542-.081-5.813-1.938-15.74-2.832-23.004-.811-6.587-2.497-29.938-2.974-33.812-.382-3.1.6-17.957 1.608-24.57-.336-2.089 2.404 2.915 4.073 5.933 3.117 5.635 6.645 26.249 7.824 30.03s4.379 15.128 4.712 22.624c.228 5.12 1.533 17.597 2.863 23.246.942 7.012 2.93 22.252 3.339 27.12"/><path fill="#82C2F1" d="M68.752 112.951c-.022 4.886 2.463 50.85 3.31 56.753 6.154 1.849 9.477 1.09 10.369.48.96-5.82.438-51.693 1.402-56.536.965-4.842 2.918-22.019 1.284-29.75-.38-5.8.684-15.851 1-23.167.286-6.634.116-30.05.284-33.951.135-3.122-2.021-17.846-3.55-24.35.17-2.11-2.165 3.109-3.59 6.258-2.66 5.88-4.542 26.725-5.417 30.594s-3.165 15.448-2.903 22.947c.178 5.122-.133 17.668-1.01 23.41-.384 7.068-1.157 22.427-1.18 27.312"/><path fill="#82C2F1" d="M56.137 70.16c4.034 30.152 8.467 70.025 9.651 100.87 0 4.237 3.581 4.553 6.644 5.006 1.013.15 1.013-2.293 1.013-5.006-1.823-26.789 1.822-75.112-4.429-98.606-4.9-18.417-15.26-30.81-20.181-31.564.456 1.98 5.497 15.808 7.302 29.3M81.841 125.539c-1.145 6.391.276 37.499 1.13 52.255 3.403-.612 10.258-3.566 10.464-10.481l1.187-39.821c1.648-11.895 5.564-38.445 8.043-49.49 2.479-11.044-2.704-26.144-5.606-32.313-1.694 6.744-5.826 21.196-8.808 25.056-3.727 4.825-4.978 46.807-6.41 54.794"/><path fill="#AADBFF" d="M69.843 156.578c.188 4.882 2.437 17.82 3.538 23.678 6.227 1.562 9.514.651 10.379 0 .707-5.858.424-18.796 1.179-23.678s1.966-22.132 0-29.78c-.63-5.777 0-15.867 0-23.19 0-6.64-1.18-30.025-1.18-33.93 0-3.125-2.788-17.735-4.596-24.163.078-2.116-2.029 3.207-3.316 6.418-2.403 5.998-5.297 13.3-6.005 17.205-.707 3.906-.584 29.188 0 36.667.4 5.109.63 17.657 0 23.434-.078 7.079-.188 22.457 0 27.339"/><path fill="#A6B7FF" d="m218.115 106.76-78.212-45.154-81.169 46.688 78.212 45.155z"/><path fill="#2C54DC" d="m195.758 114.018-59.014 34.519-69.385-40.042 76.496-44.81 51.903 30.105z"/><path fill="#3E68F5" d="m195.803 114.064-58.983 34.425-39.88-23.022L173.8 81.179l22.004 12.532z"/><path fill="#375FE9" d="m190.845 54.538 4.913 1.978V163.89l-4.913-1.978z"/><path fill="#2C54DC" d="M136.943 188.035v-65.2l-4.066 2.348v65.2z"/><path fill="#CBD3FF" d="M136.986 122.834 60.051 78.4l-4.067 2.347 76.936 44.435z"/><path fill="#A6B7FF" d="m55.984 80.75 76.893 44.394v65.281l-76.893-44.394z"/><path fill="#375FE9" d="M79.969 110.226c0-3.228 2.266-4.536 5.062-2.922l12.653 7.306c2.796 1.614 5.062 5.539 5.062 8.766v2.923c0 3.228-2.266 4.536-5.062 2.922l-12.653-7.306c-2.796-1.614-5.062-5.539-5.062-8.767z"/><path fill="#CBD3FF" d="M82.946 106.617c-.255.162-.412.49-.412.951v.615c0 .951.668 2.108 1.491 2.583l14.665 8.467c.823.475 1.491.09 1.491-.861v-.615c0-.461-.157-.97-.412-1.427-.636-.699-1.341-1.291-2.085-1.72l-12.653-7.306c-.743-.429-1.449-.652-2.085-.687"/></g><defs><clipPath id="dg_a"><path fill="#fff" d="M0 0h240v240H0z"/></clipPath><clipPath id="dh_b"><rect width="200" height="200" x="20" y="20" fill="#fff" rx="100"/></clipPath></defs></svg>