<svg xmlns="http://www.w3.org/2000/svg" width="16" height="16" fill="none" class="persona-icon" viewBox="0 0 16 16"><path fill="currentColor" d="M3.833 5.556a1.722 1.722 0 1 1 3.445 0 1.722 1.722 0 0 1-3.445 0"/><path fill="currentColor" fill-rule="evenodd" d="M4.333 2A2.333 2.333 0 0 0 2 4.333v7.334A2.333 2.333 0 0 0 4.333 14h7.334A2.334 2.334 0 0 0 14 11.667V4.333A2.333 2.333 0 0 0 11.667 2zM13 8.015l-1.159-1.159a1.11 1.11 0 0 0-1.571 0L7.468 9.66a.11.11 0 0 1-.158 0l-.969-.97a1.11 1.11 0 0 0-1.571 0L3 10.46V4.334C3 3.597 3.597 3 4.333 3h7.334C12.403 3 13 3.597 13 4.333z" clip-rule="evenodd"/></svg>