<svg xmlns="http://www.w3.org/2000/svg" width="20" height="20" fill="none" class="persona-icon" viewBox="0 0 20 20"><path fill="currentColor" d="M5.108 7.156a2.047 2.047 0 1 1 4.095 0 2.047 2.047 0 0 1-4.095 0"/><path fill="currentColor" fill-rule="evenodd" d="M5.733 2.975a2.76 2.76 0 0 0-2.758 2.758v8.534a2.76 2.76 0 0 0 2.758 2.758h8.534a2.76 2.76 0 0 0 2.758-2.758V5.733a2.76 2.76 0 0 0-2.758-2.758zm10.042 6.938L14.5 8.64a1.336 1.336 0 0 0-1.89 0l-3.26 3.26a.086.086 0 0 1-.122 0L8.1 10.773a1.336 1.336 0 0 0-1.89 0l-1.985 1.986V5.733c0-.833.675-1.508 1.508-1.508h8.534c.833 0 1.508.675 1.508 1.508z" clip-rule="evenodd"/></svg>