<svg xmlns="http://www.w3.org/2000/svg" width="20" height="20" fill="none" class="persona-icon" viewBox="0 0 20 20"><path fill="currentColor" d="M5.108 7.156a2.047 2.047 0 1 1 4.095 0 2.047 2.047 0 0 1-4.095 0"/><path fill="currentColor" fill-rule="evenodd" d="M5.733 2.975h8.534a2.76 2.76 0 0 1 2.758 2.758v8.534q-.001.285-.056.556a2.76 2.76 0 0 1-2.702 2.202H5.733a2.76 2.76 0 0 1-2.758-2.758V5.733a2.76 2.76 0 0 1 2.758-2.758m10.042 6.938v-4.18c0-.833-.675-1.508-1.508-1.508H5.733c-.833 0-1.508.675-1.508 1.508v7.025l1.986-1.986a1.336 1.336 0 0 1 1.89 0L9.227 11.9a.086.086 0 0 0 .122 0l3.26-3.261a1.336 1.336 0 0 1 1.89 0z" clip-rule="evenodd"/></svg>