<svg xmlns="http://www.w3.org/2000/svg" width="24" height="24" fill="none" class="persona-icon" viewBox="0 0 24 24"><path fill="currentColor" d="M5.75 8.333a2.583 2.583 0 1 1 5.167 0 2.583 2.583 0 0 1-5.167 0"/><path fill="currentColor" fill-rule="evenodd" d="M6.5 3h11A3.5 3.5 0 0 1 21 6.5v11a3.5 3.5 0 0 1-3.5 3.5h-11A3.5 3.5 0 0 1 3 17.5v-11A3.5 3.5 0 0 1 6.5 3m13 9.023V6.5a2 2 0 0 0-2-2h-11a2 2 0 0 0-2 2v9.19l2.655-2.655c.65-.651 1.706-.651 2.357 0l1.454 1.453c.065.065.17.065.235 0l4.204-4.203c.65-.651 1.706-.651 2.357 0z" clip-rule="evenodd"/></svg>