<svg xmlns="http://www.w3.org/2000/svg" width="32" height="32" fill="none" class="persona-icon" viewBox="0 0 32 32"><path fill="currentColor" d="M7.667 11.111a3.444 3.444 0 1 1 6.888 0 3.444 3.444 0 0 1-6.888 0"/><path fill="currentColor" fill-rule="evenodd" d="M8.667 4h14.666A4.667 4.667 0 0 1 28 8.667v14.666a4.65 4.65 0 0 1-1.367 3.3 4.65 4.65 0 0 1-3.3 1.367H8.667a4.675 4.675 0 0 1-4.3-2.85A4.7 4.7 0 0 1 4 23.333V8.667A4.667 4.667 0 0 1 8.667 4M26 16.03V8.667A2.667 2.667 0 0 0 23.333 6H8.667A2.667 2.667 0 0 0 6 8.667v12.252l3.54-3.54a2.22 2.22 0 0 1 3.143 0l1.938 1.939a.22.22 0 0 0 .314 0l5.605-5.605a2.22 2.22 0 0 1 3.143 0z" clip-rule="evenodd"/></svg>