<svg xmlns="http://www.w3.org/2000/svg" width="32" height="32" fill="none" class="persona-icon" viewBox="0 0 32 32"><path fill="currentColor" d="M7.667 11.111a3.444 3.444 0 1 1 6.888 0 3.444 3.444 0 0 1-6.888 0"/><path fill="currentColor" fill-rule="evenodd" d="M8.667 4A4.667 4.667 0 0 0 4 8.667v14.666a4.65 4.65 0 0 0 1.287 3.218A4.65 4.65 0 0 0 8.667 28h14.666a4.65 4.65 0 0 0 3.3-1.367 4.65 4.65 0 0 0 1.367-3.3V8.667A4.667 4.667 0 0 0 23.333 4zM26 16.03l-2.317-2.317a2.22 2.22 0 0 0-3.143 0l-5.605 5.605a.22.22 0 0 1-.314 0l-1.939-1.939a2.22 2.22 0 0 0-3.142 0L6 20.92V8.667A2.667 2.667 0 0 1 8.667 6h14.666A2.667 2.667 0 0 1 26 8.667z" clip-rule="evenodd"/></svg>