<svg xmlns="http://www.w3.org/2000/svg" width="16" height="16" fill="none" class="persona-icon" viewBox="0 0 16 16"><path fill="currentColor" fill-rule="evenodd" d="M6.976 2.304a1.08 1.08 0 0 1 1.963 0l1.242 2.632c.019.038.047.053.068.056l2.778.423c.917.139 1.223 1.27.609 1.897l-2.01 2.049a.14.14 0 0 0-.034.115l.475 2.893c.142.864-.747 1.634-1.591 1.17l-2.484-1.366a.07.07 0 0 0-.068 0L5.439 13.54c-.844.464-1.732-.306-1.59-1.17l.474-2.893a.14.14 0 0 0-.034-.115L2.28 7.312c-.614-.626-.308-1.758.61-1.897l2.777-.423c.021-.003.05-.018.068-.056zm.942.38a.1.1 0 0 0-.038.047L6.638 5.363a1.1 1.1 0 0 1-.822.618l-2.777.422a.1.1 0 0 0-.041.02.13.13 0 0 0-.033.054.13.13 0 0 0 .029.135l2.01 2.049c.253.258.364.624.306.977l-.475 2.893c-.01.06.014.101.044.125q.025.016.04.017c.007 0 .02 0 .039-.01l2.484-1.366c.322-.177.71-.177 1.031 0l2.485 1.366c.02.01.031.01.038.01a.1.1 0 0 0 .04-.017c.03-.024.054-.065.044-.125l-.474-2.893c-.058-.353.052-.719.306-.977l2.01-2.049a.13.13 0 0 0 .029-.135.13.13 0 0 0-.033-.055.07.07 0 0 0-.042-.019L10.1 5.981a1.1 1.1 0 0 1-.822-.618L8.035 2.73a.1.1 0 0 0-.038-.047.1.1 0 0 0-.04-.01.1.1 0 0 0-.039.01" clip-rule="evenodd"/></svg>