<svg xmlns="http://www.w3.org/2000/svg" width="20" height="20" fill="none" class="persona-icon" viewBox="0 0 20 20"><path fill="currentColor" fill-rule="evenodd" d="M8.766 3.325a1.3 1.3 0 0 1 2.363 0l1.445 3.063c.015.032.037.04.046.042l3.232.49c1.105.168 1.471 1.53.733 2.282l-2.339 2.384a.12.12 0 0 0-.027.097l.552 3.366c.17 1.036-.897 1.966-1.915 1.406l-2.89-1.59a.04.04 0 0 0-.019-.004.04.04 0 0 0-.019.005l-2.89 1.589c-1.018.56-2.085-.37-1.915-1.406l.552-3.366a.12.12 0 0 0-.027-.097L3.309 9.202c-.738-.752-.372-2.113.733-2.281l3.232-.492c.01 0 .031-.01.046-.041zm1.158.498c-.004.002-.016.01-.028.036L8.451 6.92c-.185.392-.55.678-.989.744l-3.232.491a.04.04 0 0 0-.025.012.1.1 0 0 0-.027.045.13.13 0 0 0-.003.065q.003.024.027.048L6.54 10.71c.305.311.438.75.368 1.175l-.552 3.366a.1.1 0 0 0 .006.065q.01.025.029.039t.024.011h.005l.016-.006 2.89-1.59a1.29 1.29 0 0 1 1.242 0l2.89 1.59q.015.007.017.006h.004a.1.1 0 0 0 .024-.011.1.1 0 0 0 .03-.039.1.1 0 0 0 .005-.065l-.552-3.366c-.07-.425.063-.864.368-1.175l2.339-2.384a.1.1 0 0 0 .027-.048.13.13 0 0 0-.004-.065.1.1 0 0 0-.026-.045.04.04 0 0 0-.026-.012l-3.232-.49a1.32 1.32 0 0 1-.989-.745L9.998 3.86c-.012-.026-.023-.034-.027-.036a.1.1 0 0 0-.024-.007.1.1 0 0 0-.023.007" clip-rule="evenodd"/></svg>