<svg xmlns="http://www.w3.org/2000/svg" width="24" height="24" fill="none" class="persona-icon" viewBox="0 0 24 24"><path fill="currentColor" fill-rule="evenodd" d="M10.464 3.196a1.619 1.619 0 0 1 2.945 0l1.863 3.948c.027.057.07.08.101.085l4.167.633c1.376.21 1.835 1.907.913 2.847l-3.014 3.073a.2.2 0 0 0-.05.173l.711 4.339c.213 1.296-1.12 2.45-2.387 1.755L11.988 18a.1.1 0 0 0-.102 0L8.16 20.05c-1.266.696-2.6-.46-2.387-1.755l.712-4.34a.2.2 0 0 0-.05-.172L3.42 10.709c-.922-.94-.462-2.638.914-2.847l4.166-.633c.031-.005.074-.028.101-.085zm1.413.57a.15.15 0 0 0-.057.07L9.957 7.784a1.64 1.64 0 0 1-1.232.928l-4.167.633a.1.1 0 0 0-.062.029.2.2 0 0 0-.05.083.2.2 0 0 0 .044.201l3.015 3.073c.38.388.546.936.46 1.467l-.712 4.339c-.015.09.02.152.066.187a.1.1 0 0 0 .06.026c.01 0 .028 0 .057-.016l3.727-2.048a1.6 1.6 0 0 1 1.547 0l3.726 2.048c.03.016.047.017.058.016a.1.1 0 0 0 .06-.026c.046-.035.08-.097.066-.187l-.712-4.34c-.087-.53.08-1.078.46-1.466l3.014-3.073a.2.2 0 0 0 .044-.201.2.2 0 0 0-.05-.083.1.1 0 0 0-.062-.029l-4.166-.633a1.64 1.64 0 0 1-1.232-.928l-1.864-3.948a.15.15 0 0 0-.056-.07.1.1 0 0 0-.06-.016.1.1 0 0 0-.06.017" clip-rule="evenodd"/></svg>