<svg xmlns="http://www.w3.org/2000/svg" width="32" height="32" fill="none" class="persona-icon" viewBox="0 0 32 32"><path fill="currentColor" fill-rule="evenodd" d="M13.952 4.608a2.159 2.159 0 0 1 3.926 0l2.485 5.263c.035.077.093.108.135.114l5.555.844c1.834.279 2.447 2.543 1.218 3.796l-4.02 4.097a.27.27 0 0 0-.067.23l.95 5.786c.283 1.728-1.494 3.268-3.183 2.34l-4.968-2.732a.14.14 0 0 0-.136 0l-4.968 2.732c-1.689.928-3.466-.612-3.183-2.34l.95-5.785a.27.27 0 0 0-.067-.231l-4.02-4.097c-1.23-1.253-.617-3.517 1.218-3.796l5.555-.844c.042-.006.1-.037.135-.114zm1.884.76a.2.2 0 0 0-.076.093l-2.484 5.264a2.19 2.19 0 0 1-1.643 1.237l-5.555.844a.15.15 0 0 0-.083.039.25.25 0 0 0-.066.11.26.26 0 0 0 .058.269l4.02 4.097a2.27 2.27 0 0 1 .612 1.955l-.949 5.785c-.02.121.027.204.088.25a.16.16 0 0 0 .08.035c.014.001.038 0 .077-.02l4.969-2.732a2.13 2.13 0 0 1 2.062 0l4.969 2.731c.039.022.063.022.077.02a.16.16 0 0 0 .08-.034c.06-.046.108-.129.088-.25l-.95-5.785a2.27 2.27 0 0 1 .613-1.955l4.02-4.097a.26.26 0 0 0 .058-.269.25.25 0 0 0-.066-.11.15.15 0 0 0-.083-.039l-5.555-.844a2.19 2.19 0 0 1-1.643-1.237L16.07 5.461a.2.2 0 0 0-.076-.093.15.15 0 0 0-.08-.022.15.15 0 0 0-.078.022" clip-rule="evenodd"/></svg>