<svg xmlns="http://www.w3.org/2000/svg" width="16" height="16" fill="none" class="persona-icon"><path fill="currentColor" d="M8.467 14c.294 0 .533.224.533.5s-.239.5-.533.5H3.844C2.274 15 1 13.806 1 12.333V3.667C1 2.194 2.273 1 3.845 1h4.622C8.76 1 9 1.224 9 1.5s-.239.5-.533.5H3.844c-.981 0-1.777.746-1.777 1.667v8.666c0 .92.796 1.667 1.777 1.667h4.623Z"/><path fill="currentColor" d="M14.483 7.513c.285 0 .517.218.517.487s-.232.486-.517.486H6.766l2.853 2.683a.466.466 0 0 1 0 .688.54.54 0 0 1-.732 0L5.151 8.345A.472.472 0 0 1 5 8c0-.129.054-.253.152-.344l3.735-3.513a.54.54 0 0 1 .732 0 .466.466 0 0 1 0 .688L6.766 7.512h7.717Z"/></svg>