<svg xmlns="http://www.w3.org/2000/svg" width="24" height="24" fill="none" class="persona-icon" viewBox="0 0 24 24"><path fill="currentColor" d="M12.214 20.462c.434 0 .786.344.786.769 0 .425-.352.769-.786.769H5.93C3.759 22 2 20.278 2 18.154V5.846C2 3.722 3.759 2 5.929 2h6.285c.434 0 .786.344.786.77 0 .424-.352.769-.786.769H5.93c-1.302 0-2.358 1.033-2.358 2.307v12.308c0 1.274 1.056 2.308 2.358 2.308z"/><path fill="currentColor" d="M21.222 11.283c.43 0 .778.32.778.717 0 .396-.348.717-.778.717H10.655l3.858 3.558a.679.679 0 0 1 0 1.015.825.825 0 0 1-1.1 0l-5.185-4.783A.69.69 0 0 1 8 12a.69.69 0 0 1 .228-.507l5.185-4.783a.825.825 0 0 1 1.1 0 .679.679 0 0 1 0 1.015l-3.857 3.558z"/></svg>