<svg xmlns="http://www.w3.org/2000/svg" width="24" height="24" fill="none" class="persona-icon" viewBox="0 0 24 24"><path fill="currentColor" fill-rule="evenodd" d="M6.5 4.5a2 2 0 0 0-2 2v11a2 2 0 0 0 2 2H12a.75.75 0 0 1 0 1.5H6.5A3.5 3.5 0 0 1 3 17.5v-11A3.5 3.5 0 0 1 6.5 3H12a.75.75 0 0 1 0 1.5zm7.864 2.386a.75.75 0 0 1 0 1.061L11.06 11.25h9.189a.75.75 0 0 1 0 1.5h-9.19l3.304 3.303a.75.75 0 1 1-1.061 1.06L8.72 12.53a.75.75 0 0 1 0-1.06l4.583-4.584a.75.75 0 0 1 1.06 0" clip-rule="evenodd"/></svg>