<svg xmlns="http://www.w3.org/2000/svg" width="16" height="16" fill="none"><path fill="#000" fill-rule="evenodd" d="M5.004 2.004A1.102 1.102 0 0 1 6.1 1h3.8c.574 0 1.045.441 1.095 1.004h.62c1.06 0 1.885.894 1.885 1.952v9.092c0 1.058-.824 1.952-1.885 1.952h-7.23c-1.06 0-1.885-.894-1.885-1.952V3.956c0-1.058.824-1.952 1.885-1.952h.62Zm0 1.004h-.62c-.468 0-.884.404-.884.948v9.092c0 .544.416.948.885.948h7.23c.47 0 .885-.404.885-.948V3.956c0-.544-.416-.948-.885-.948h-.62A1.102 1.102 0 0 1 9.9 4.012H6.1a1.102 1.102 0 0 1-1.096-1.004ZM6.1 2.004a.1.1 0 0 0-.1.1v.804a.1.1 0 0 0 .1.1h3.8a.1.1 0 0 0 .1-.1v-.804a.1.1 0 0 0-.1-.1H6.1Z" clip-rule="evenodd"/></svg>