<svg xmlns="http://www.w3.org/2000/svg" width="20" height="20" fill="none" class="persona-icon" viewBox="0 0 20 20"><path fill="currentColor" fill-rule="evenodd" d="M15.721 2.976a1.29 1.29 0 0 1 1.302 1.302c-.006.726-.031 1.643-.129 2.53-.096.872-.27 1.784-.609 2.462-.88 1.761-2.388 3.164-3.975 4.201v2.256c0 .298-.21.555-.503.613l-3.37.674a.625.625 0 0 1-.747-.613v-.863a10 10 0 0 1-.61.133.63.63 0 0 1-.554-.173l-2.02-2.022a.63.63 0 0 1-.174-.554q.053-.29.133-.611H3.6a.625.625 0 0 1-.613-.748l.674-3.37a.625.625 0 0 1 .613-.502H6.53c1.037-1.587 2.439-3.096 4.2-3.977.678-.339 1.59-.513 2.46-.609a26 26 0 0 1 2.53-.129m-7.332 8.63a6 6 0 0 0-1.89-1.272c-.183.396-.341.785-.475 1.157a4.7 4.7 0 0 1 2.487 2.488c.371-.134.76-.293 1.157-.475a6 6 0 0 0-1.279-1.898m3.969-5.936a1.973 1.973 0 1 0 0 3.945 1.973 1.973 0 0 0 0-3.945M4.786 8.94l-.424 2.12h.479c.241-.66.565-1.413.94-2.12zm6.274 6.274v-.995c-.707.375-1.46.698-2.12.94v.479z" clip-rule="evenodd"/></svg>