<svg xmlns="http://www.w3.org/2000/svg" width="16" height="16" fill="none" class="persona-icon" viewBox="0 0 16 16"><path fill="currentColor" d="M3.945 3.992c0-.837.657-1.516 1.468-1.516h2.76V4.66c0 1.008.792 1.824 1.767 1.824h2.115v2.518c0 .27.211.488.472.488A.48.48 0 0 0 13 9.002V5.996a.497.497 0 0 0-.127-.333L9.634 2.079a1.74 1.74 0 0 0-1.29-.579H5.412C4.08 1.5 3 2.616 3 3.992v8.016C3 13.384 4.08 14.5 5.413 14.5h1.293a.48.48 0 0 0 .473-.488.48.48 0 0 0-.473-.488H5.413c-.81 0-1.468-.679-1.468-1.516V3.992Zm5.174.668V3.167l2.267 2.34H9.94a.835.835 0 0 1-.82-.847Z"/><path fill="currentColor" d="M11.922 10.082c-.209-.33-.606-.516-.98-.516h-.086V8.538c0-.65-.588-1.038-1.129-1.038-.54 0-1.129.388-1.129 1.038v2.13a1.28 1.28 0 0 0-1 .045c-.53.26-.797.917-.424 1.466l.01.014 1.882 2.59a.521.521 0 0 0 .422.215h3.088c.51 0 .982-.264 1.31-.573.321-.303.614-.753.614-1.24V11.77c0-.649-.588-1.037-1.129-1.037-.053 0-.104-.004-.167-.008-.179-.409-.627-.643-1.047-.643H11.922Zm-2.28-1.517a.154.154 0 0 1 .085-.022c.043 0 .072.013.086.023v1.826a.521.521 0 0 0 .995.219c.037-.002.081-.003.134-.003.043 0 .071.013.086.023v.23a.521.521 0 0 0 .972.263 6.856 6.856 0 0 1 .157 0c.042 0 .071.014.086.024v.297a.521.521 0 0 0 .93.323c.057.004.127.007.198.007.043 0 .072.013.086.023v1.388c0 .084-.073.279-.286.48-.206.194-.435.29-.595.29H9.753l-1.681-2.313c.06-.022.188-.024.34.097l.308.366a.521.521 0 0 0 .92-.336V8.566ZM4.678 4.526a.48.48 0 0 1 .48-.48H6.42a.48.48 0 1 1 0 .96H5.158a.48.48 0 0 1-.48-.48ZM4.678 7.053a.48.48 0 0 1 .48-.48H6.42a.48.48 0 1 1 0 .96H5.158a.48.48 0 0 1-.48-.48ZM4.678 9.579a.48.48 0 0 1 .48-.48H6.42a.48.48 0 1 1 0 .96H5.158a.48.48 0 0 1-.48-.48Z"/></svg>