<svg xmlns="http://www.w3.org/2000/svg" width="16" height="16" fill="none" class="persona-icon" viewBox="0 0 16 16"><path fill="currentColor" fill-rule="evenodd" d="M1.753 3.617a.54.54 0 0 0-.392.652l.551 2.209v6.395c0 1.163.943 2.105 2.105 2.105h8.052a2.105 2.105 0 0 0 2.105-2.105V6.445a.54.54 0 0 0-.538-.538H6.749l6.365-1.586v-.005a.54.54 0 0 0 .39-.652l-.57-2.277a.54.54 0 0 0-.652-.393zm2.927 1.69-1.836.457-.307-1.232 2.647-.66zM2.99 6.984h2.867l-.844 1.265H2.99zm0 5.89V9.325h10.107v3.547c0 .568-.46 1.028-1.028 1.028H4.017c-.567 0-1.028-.46-1.028-1.028m5.954-9.938L8.439 4.37l-2.508.624.505-1.435zM8.93 8.249H6.308l.843-1.265h2.622zm.76-4.19.505-1.435 1.825-.454.308 1.232zm3.407 2.925v1.265h-2.873l.844-1.265z" clip-rule="evenodd"/></svg>