<svg xmlns="http://www.w3.org/2000/svg" width="24" height="24" fill="none" class="persona-icon" viewBox="0 0 24 24"><path fill="currentColor" fill-rule="evenodd" d="M3.273 5.893a.75.75 0 0 0-.546.909l.767 3.075v8.907a2.93 2.93 0 0 0 2.932 2.932H17.64a2.93 2.93 0 0 0 2.931-2.932V9.832a.75.75 0 0 0-.75-.75h-9.59l8.864-2.209-.002-.006a.75.75 0 0 0 .544-.908l-.792-3.172a.75.75 0 0 0-.91-.546zm4.075 2.354-2.556.637-.428-1.717 3.687-.918zm-2.354 2.335h3.994l-1.175 1.762H4.994zm0 8.202v-4.94h14.077v4.94c0 .79-.64 1.432-1.431 1.432H6.426c-.79 0-1.432-.641-1.432-1.432m8.292-13.84-.703 2-3.492.869.702-1.998zm-.019 7.4H9.616l1.175-1.762h3.651zm1.059-5.835.703-1.998 2.542-.634L18 5.595zm4.745 4.073v1.762h-4l1.174-1.762z" clip-rule="evenodd"/></svg>