<svg xmlns="http://www.w3.org/2000/svg" width="24" height="24" fill="none" class="persona-icon" viewBox="0 0 24 24"><path fill="currentColor" d="M5.548 5.846a2.315 2.315 0 0 1 2.323-2.308h4.387v3.334a2.83 2.83 0 0 0 2.839 2.82h3.355v3.847c0 .424.346.769.774.769a.772.772 0 0 0 .774-.77V8.924a.767.767 0 0 0-.208-.525l-5.169-5.502A2.847 2.847 0 0 0 12.548 2H7.871C5.733 2 4 3.722 4 5.846v12.308C4 20.278 5.733 22 7.871 22h2.064a.772.772 0 0 0 .775-.77.772.772 0 0 0-.775-.768H7.871a2.315 2.315 0 0 1-2.323-2.308V5.846Zm8.258 1.026V4.626l3.55 3.528h-2.26c-.712 0-1.29-.574-1.29-1.282Z"/><path fill="currentColor" d="M12.976 16.431V13.05c0-.966.876-1.55 1.69-1.55.816 0 1.692.585 1.692 1.55v1.652c.07-.002.134-.002.19-.002.575 0 1.18.29 1.487.8h.01a9.182 9.182 0 0 1 .385 0c.645 0 1.326.365 1.584.994l.034.002c.098.007.179.012.264.012.815 0 1.691.584 1.691 1.55v2.192c0 .731-.442 1.415-.933 1.877-.501.473-1.22.873-1.99.873h-4.783a.75.75 0 0 1-.607-.309l-2.917-4.012a.692.692 0 0 1-.014-.02c-.555-.817-.16-1.797.634-2.188.517-.253 1.08-.236 1.583-.04Zm1.5-3.364v4.99a.75.75 0 0 1-1.324.483l-.48-.57c-.273-.22-.51-.205-.618-.152a.208.208 0 0 0-.036.022l2.66 3.66h4.401c.268 0 .637-.158.963-.465.336-.316.461-.632.461-.785v-2.176a.28.28 0 0 0-.19-.067c-.123 0-.242-.006-.335-.012a.749.749 0 0 1-1.357-.441v-.487a.127.127 0 0 0-.011-.011.281.281 0 0 0-.18-.056 20.02 20.02 0 0 1-.276-.001.75.75 0 0 1-1.415-.349v-.383a.127.127 0 0 0-.01-.011.281.281 0 0 0-.18-.056c-.1 0-.18.002-.247.006a.75.75 0 0 1-1.444-.283v-2.856a.105.105 0 0 0-.012-.011.28.28 0 0 0-.18-.056.28.28 0 0 0-.179.056.105.105 0 0 0-.011.01ZM7 7a.75.75 0 0 1 .75-.75h2a.75.75 0 0 1 0 1.5h-2A.75.75 0 0 1 7 7ZM7 11a.75.75 0 0 1 .75-.75h2a.75.75 0 0 1 0 1.5h-2A.75.75 0 0 1 7 11ZM7 15a.75.75 0 0 1 .75-.75h2a.75.75 0 0 1 0 1.5h-2A.75.75 0 0 1 7 15Z"/></svg>