<svg xmlns="http://www.w3.org/2000/svg" width="32" height="32" fill="none" class="persona-icon" viewBox="0 0 32 32"><path fill="currentColor" fill-rule="evenodd" d="m3.454 7.264 21.18-5.276a1 1 0 0 1 1.212.729l1.143 4.582a1 1 0 0 1-.724 1.21l.002.009-13.463 3.354h14.533a1 1 0 0 1 1 1v12.931a4.15 4.15 0 0 1-4.151 4.151H7.988a4.15 4.15 0 0 1-4.151-4.15V12.927L2.725 8.475a1 1 0 0 1 .729-1.211m5.929 3.39 1.081-3.075-5.556 1.383.66 2.642zm-3.546 15.15c0 1.187.963 2.15 2.151 2.15h16.198a2.15 2.15 0 0 0 2.151-2.15v-7.22h-20.5zm0-11.932v2.712h4.2l1.808-2.712zm12.19-8.177L12.787 7l-1.08 3.075 5.238-1.305zm-.111 10.89 1.808-2.713h-5.475l-1.808 2.712zm1.353-8.394 5.538-1.38-.66-2.64-3.797.945zm7.068 5.681h-4.21l-1.808 2.712h6.018z" clip-rule="evenodd"/></svg>