<svg xmlns="http://www.w3.org/2000/svg" width="32" height="32" fill="none" class="persona-icon" viewBox="0 0 32 32"><path fill="currentColor" fill-rule="evenodd" d="M10.572 4.95C8.87 4.95 7.49 6.309 7.49 7.983v16.032c0 1.674 1.38 3.032 3.082 3.032h2.717c.548 0 .992.437.992.976 0 .539-.444.976-.992.976h-2.717c-2.798 0-5.067-2.231-5.067-4.984V7.982c0-2.752 2.269-4.984 5.067-4.984h6.154c1.028 0 2.01.42 2.711 1.159l6.8 7.167c.173.18.268.419.268.666v6.012c0 .54-.444.976-.993.976a.985.985 0 0 1-.992-.976v-5.036h-4.44c-2.049 0-3.71-1.633-3.71-3.648V4.951h-5.798Zm7.784 1.381v2.987c0 .937.771 1.696 1.723 1.696h3.037l-4.76-4.683Z" clip-rule="evenodd"/><path fill="currentColor" fill-rule="evenodd" d="M18.2 22.074V17.41c0-1.303 1.183-2.095 2.288-2.095 1.105 0 2.288.792 2.288 2.095v2.287c.105-.003.202-.003.287-.003.785 0 1.608.399 2.02 1.096h.028c.12-.004.262-.003.386-.002h.142c.878 0 1.805.5 2.149 1.36l.062.004c.135.008.246.015.364.015 1.105 0 2.287.792 2.287 2.095v3c0 .99-.599 1.92-1.268 2.55-.683.643-1.66 1.187-2.706 1.187h-6.545a1 1 0 0 1-.809-.412l-3.992-5.49a.822.822 0 0 1-.018-.027c-.75-1.103-.218-2.427.858-2.955.712-.35 1.49-.32 2.18-.04Zm2-4.652v6.839a1 1 0 0 1-1.764.644l-.66-.784c-.38-.307-.715-.29-.874-.211a.254.254 0 0 0-.074.05l3.663 5.038h6.036c.375 0 .886-.22 1.335-.643.462-.436.64-.875.64-1.094v-2.987a.144.144 0 0 0-.025-.025.41.41 0 0 0-.263-.083c-.173 0-.34-.01-.47-.018a.999.999 0 0 1-1.818-.576v-.676a.151.151 0 0 0-.025-.026.41.41 0 0 0-.262-.082l-.199-.001h-.196a1 1 0 0 1-1.893-.452V21.8a.15.15 0 0 0-.025-.026.41.41 0 0 0-.263-.082c-.143 0-.258.002-.354.009a1 1 0 0 1-1.933-.362v-3.918a.147.147 0 0 0-.025-.026.41.41 0 0 0-.263-.082.41.41 0 0 0-.262.082.153.153 0 0 0-.025.026ZM9.61 9.472a1 1 0 0 1 1-1h2.736a1 1 0 1 1 0 2H10.61a1 1 0 0 1-1-1ZM9.61 14.945a1 1 0 0 1 1-1h2.736a1 1 0 1 1 0 2H10.61a1 1 0 0 1-1-1ZM9.61 20.42a1 1 0 0 1 1-1h2.736a1 1 0 1 1 0 2H10.61a1 1 0 0 1-1-1Z" clip-rule="evenodd"/></svg>