<svg xmlns="http://www.w3.org/2000/svg" width="933.333" height="933.333" preserveAspectRatio="xMidYMid meet" version="1.0" viewBox="0 0 700 700"><metadata>Created by potrace 1.14, written by Peter Selinger 2001-2017</metadata><g fill="#000" stroke="none"><path d="M3975 6090 c-151 -17 -226 -31 -380 -75 -606 -171 -1131 -680 -1325 -1285 -34 -106 -47 -157 -75 -300 -24 -119 -26 -316 -24 -2012 2 -1256 6 -1809 13 -1811 12 -5 87 -2 198 8 134 11 401 64 473 95 11 4 61 23 110 41 421 152 801 451 1068 839 115 168 219 403 219 498 0 12 6 22 12 23 6 1 22 2 36 4 14 1 54 5 90 9 36 4 72 8 80 11 8 2 32 6 52 9 78 12 264 61 323 85 108 45 243 107 256 118 8 7 19 13 22 13 14 0 168 100 249 161 166 127 347 322 463 500 101 155 235 462 259 592 2 15 7 35 10 45 12 39 37 203 43 282 12 156 3 400 -17 469 -5 17 -9 34 -9 36 2 38 -50 243 -86 341 -99 265 -259 517 -455 715 -328 330 -724 523 -1200 584 -78 10 -332 13 -405 5z" transform="translate(0.000000,700.000000) scale(0.100000,-0.100000)"/></g></svg>