<svg xmlns="http://www.w3.org/2000/svg" width="20" height="20" fill="none"><path fill="#000" fill-rule="evenodd" d="M17.705 2.066a.558.558 0 0 0-.573.028l-4.651 3.1-4.652-3.1a.558.558 0 0 0-.62 0L2.25 5.4A.558.558 0 0 0 2 5.866v11.576a.558.558 0 0 0 .868.464l4.651-3.1 4.652 3.1a.558.558 0 0 0 .62 0l4.96-3.307a.558.558 0 0 0 .249-.465V2.558a.558.558 0 0 0-.295-.492Zm-.821 1.535v10.235l-3.845 2.563V6.164l3.845-2.563ZM8.077 13.836l3.846 2.563V6.164L8.077 3.601v10.235Zm-1.116 0-3.845 2.563V6.164l3.845-2.563v10.235Z" clip-rule="evenodd"/></svg>