<svg xmlns="http://www.w3.org/2000/svg" width="24" height="24" fill="none"><path fill="#000" fill-rule="evenodd" d="M21.594 2.091a.77.77 0 0 0-.79.038l-5.727 3.818L9.35 2.13a.77.77 0 0 0-.854 0L2.343 6.232a.77.77 0 0 0-.343.64V21.23a.77.77 0 0 0 1.196.64l5.727-3.818 5.727 3.818a.77.77 0 0 0 .854 0l6.153-4.103a.769.769 0 0 0 .343-.64V2.77a.77.77 0 0 0-.406-.678ZM20.46 4.207v12.51l-5.384 3.59-5.727-3.819a.77.77 0 0 0-.854 0l-4.958 3.305V7.283l5.385-3.59 5.727 3.819a.77.77 0 0 0 .854 0l4.958-3.305Z" clip-rule="evenodd"/><path fill="#000" fill-rule="evenodd" d="M15.846 21.23V6.873h-1.538V21.23h1.538ZM9.692 17.128V2.77H8.154v14.36h1.538Z" clip-rule="evenodd"/></svg>