<svg xmlns="http://www.w3.org/2000/svg" width="20" height="20" fill="none" class="persona-icon" viewBox="0 0 20 20"><path fill="currentColor" fill-rule="evenodd" d="M3 4.304C3 3.584 3.584 3 4.304 3h11.392C16.416 3 17 3.584 17 4.304v3.56c0 .72-.584 1.304-1.304 1.304H4.304C3.584 9.168 3 8.584 3 7.864zm1.304-.12a.12.12 0 0 0-.12.12v3.56c0 .066.053.12.12.12h11.392a.12.12 0 0 0 .12-.12v-3.56a.12.12 0 0 0-.12-.12zM3 12.492c0-.327.265-.591.592-.591h12.817a.592.592 0 0 1 0 1.183H3.592A.59.59 0 0 1 3 12.492M3 16.409c0-.327.265-.592.592-.592h12.817a.591.591 0 1 1 0 1.183H3.592A.59.59 0 0 1 3 16.409" clip-rule="evenodd"/></svg>