<svg xmlns="http://www.w3.org/2000/svg" width="20" height="20" fill="none" class="persona-icon" viewBox="0 0 20 20"><path fill="currentColor" fill-rule="evenodd" d="M2.975 4.311c0-.738.598-1.336 1.336-1.336H15.69c.738 0 1.336.598 1.336 1.336v3.556c0 .738-.598 1.336-1.336 1.336H4.311a1.336 1.336 0 0 1-1.336-1.336zm0 8.178c0-.345.28-.625.625-.625h12.8a.625.625 0 1 1 0 1.25H3.6a.625.625 0 0 1-.625-.625m0 3.911c0-.345.28-.625.625-.625h12.8a.625.625 0 1 1 0 1.25H3.6a.625.625 0 0 1-.625-.625M4.311 4.225a.086.086 0 0 0-.086.086v3.556c0 .047.039.086.086.086H15.69a.086.086 0 0 0 .086-.086V4.31a.086.086 0 0 0-.086-.086z" clip-rule="evenodd"/></svg>