<svg xmlns="http://www.w3.org/2000/svg" width="24" height="24" fill="none" class="persona-icon" viewBox="0 0 24 24"><path fill="currentColor" fill-rule="evenodd" d="M3 4.667C3 3.747 3.746 3 4.667 3h14.666C20.253 3 21 3.746 21 4.667V9.25c0 .92-.746 1.667-1.667 1.667H4.667C3.747 10.917 3 10.17 3 9.25zm0 10.541a.75.75 0 0 1 .75-.75h16.5a.75.75 0 0 1 0 1.5H3.75a.75.75 0 0 1-.75-.75m0 5.042a.75.75 0 0 1 .75-.75h16.5a.75.75 0 0 1 0 1.5H3.75a.75.75 0 0 1-.75-.75M4.667 4.5a.167.167 0 0 0-.167.167V9.25c0 .092.075.167.167.167h14.666a.167.167 0 0 0 .167-.167V4.667a.167.167 0 0 0-.167-.167z" clip-rule="evenodd"/></svg>