<svg xmlns="http://www.w3.org/2000/svg" width="32" height="32" fill="none" class="persona-icon" viewBox="0 0 32 32"><path fill="currentColor" fill-rule="evenodd" d="M4 6.222C4 4.995 4.995 4 6.222 4h19.556C27.005 4 28 4.995 28 6.222v6.111a2.22 2.22 0 0 1-2.222 2.223H6.222A2.22 2.22 0 0 1 4 12.333zm0 14.056a1 1 0 0 1 1-1h22a1 1 0 1 1 0 2H5a1 1 0 0 1-1-1M4 27a1 1 0 0 1 1-1h22a1 1 0 1 1 0 2H5a1 1 0 0 1-1-1M6.222 6C6.1 6 6 6.1 6 6.222v6.111c0 .123.1.223.222.223h19.556c.123 0 .222-.1.222-.223v-6.11C26 6.1 25.9 6 25.778 6z" clip-rule="evenodd"/></svg>