<svg xmlns="http://www.w3.org/2000/svg" width="16" height="16" fill="none" class="persona-icon" viewBox="0 0 16 16"><path fill="currentColor" fill-rule="evenodd" d="M2 11.167V4.809a2.15 2.15 0 0 1 2.15-2.142h7.35a2.5 2.5 0 0 1 2.5 2.5V8a.5.5 0 1 1-1 0V5.698L8.758 8.92l-.007.005c-.456.322-1.031.32-1.484-.005l-.004-.002L3 5.8v5.366c0 .641.521 1.166 1.15 1.166H8a.5.5 0 1 1 0 1H4.15c-1.194 0-2.15-.985-2.15-2.166m2.15-7.5a1.15 1.15 0 0 0-1.126.913l4.827 3.53a.256.256 0 0 0 .316.004l4.698-3.57a1.5 1.5 0 0 0-1.365-.877z" clip-rule="evenodd"/><path fill="currentColor" d="M9.868 12.14a.5.5 0 0 1 .664-.747l.818.727V10a.5.5 0 0 1 1 0v2.12l.818-.727a.5.5 0 1 1 .664.747l-1.65 1.467a.5.5 0 0 1-.664 0z"/></svg>