<svg xmlns="http://www.w3.org/2000/svg" width="20" height="20" fill="none" class="persona-icon" viewBox="0 0 20 20"><path fill="currentColor" fill-rule="evenodd" d="M2.975 6.32v7.388a2.54 2.54 0 0 0 2.541 2.541H10A.625.625 0 0 0 10 15H5.516a1.29 1.29 0 0 1-1.291-1.291v-6.16l4.855 3.56.006.005c.543.389 1.27.389 1.813 0l4.876-3.566V10a.625.625 0 1 0 1.25 0V6.292a2.54 2.54 0 0 0-2.541-2.541H5.516a2.54 2.54 0 0 0-2.541 2.54v.029m11.505 5.382c.345 0 .625.28.625.625v2.37l.88-.781a.625.625 0 1 1 .83.934l-1.92 1.707a.625.625 0 0 1-.83 0l-1.92-1.707a.625.625 0 1 1 .83-.934l.88.782v-2.37c0-.346.28-.626.625-.626m1.266-5.683-5.576 4.079a.31.31 0 0 1-.355 0L4.254 6.019a1.29 1.29 0 0 1 1.262-1.018h8.968c.62 0 1.137.436 1.262 1.018" clip-rule="evenodd"/></svg>