<svg xmlns="http://www.w3.org/2000/svg" width="20" height="20" fill="none" class="persona-icon" viewBox="0 0 20 20"><path fill="currentColor" d="M4.465 3.263c-.982 0-1.779.849-1.779 1.895v9.684c0 1.047.797 1.895 1.78 1.895h11.069c.982 0 1.779-.848 1.779-1.895v-3c0-.349.265-.632.593-.632.328 0 .593.283.593.632v3c0 1.744-1.328 3.158-2.965 3.158H4.465C2.828 18 1.5 16.586 1.5 14.842V5.158C1.5 3.414 2.828 2 4.465 2h7.116c.328 0 .593.283.593.632 0 .348-.265.631-.593.631z"/><path fill="currentColor" d="M12.256 6.507a.67.67 0 0 0 .093.9l2.5 2.133c.22.187.53.187.75 0l2.5-2.134a.67.67 0 0 0 .094-.9.575.575 0 0 0-.844-.1l-1.525 1.302V2.64c0-.353-.268-.64-.6-.64-.331 0-.6.287-.6.64v5.068L13.1 6.407a.575.575 0 0 0-.843.1M5.818 6.79a.579.579 0 0 0-.827.204c-.175.3-.09.695.191.882l4.474 2.98a1.825 1.825 0 0 0 2.048.006l1.11-.73a.665.665 0 0 0 .197-.88.579.579 0 0 0-.826-.21l-1.11.73a.688.688 0 0 1-.783-.002z"/></svg>