<svg xmlns="http://www.w3.org/2000/svg" width="32" height="32" fill="none"><path fill="#000" d="M14.77 8.923a.923.923 0 0 0 0 1.846h7.384a.923.923 0 0 0 0-1.846h-7.385ZM13.846 13.538c0-.51.413-.923.923-.923h3.693a.923.923 0 0 1 0 1.846h-3.693a.923.923 0 0 1-.923-.923ZM14.77 16.308a.923.923 0 0 0 0 1.846h3.692a.923.923 0 0 0 0-1.846h-3.693ZM23.384 13.538a1.23 1.23 0 1 1-2.461 0 1.23 1.23 0 0 1 2.462 0ZM22.154 18.462a1.23 1.23 0 1 0 0-2.462 1.23 1.23 0 0 0 0 2.462Z"/><path fill="#000" fill-rule="evenodd" d="M4 7.385A3.385 3.385 0 0 1 7.385 4h17.23A3.385 3.385 0 0 1 28 7.385v19.692a.923.923 0 0 1-1.576.653l-2.567-2.568c-.6-.6-1.575-.6-2.176 0l-.826.827a3.384 3.384 0 0 1-4.787 0l-.826-.827c-.601-.6-1.575-.6-2.176 0l-2.567 2.568a.923.923 0 0 1-1.576-.653V15.692h-4A.923.923 0 0 1 4 14.77V7.385Zm3.385-1.539c-.85 0-1.539.689-1.539 1.539v6.461h3.077V7.385c0-.85-.689-1.539-1.538-1.539Zm3.015 0c.236.462.37.985.37 1.539v17.463l.99-.991a3.385 3.385 0 0 1 4.787 0l.827.827c.6.6 1.575.6 2.175 0l.827-.827a3.385 3.385 0 0 1 4.787 0l.99.991V7.385c0-.85-.688-1.539-1.538-1.539H10.4Z" clip-rule="evenodd"/></svg>