<svg xmlns="http://www.w3.org/2000/svg" width="32" height="32" fill="none"><path fill="#000" fill-rule="evenodd" d="M28 4.355a.35.35 0 0 0-.355-.354c-1.449.012-3.22.061-4.909.248-1.714.19-3.232.51-4.234 1.011-3.338 1.67-6.067 4.698-8.085 7.983-1.877 3.055-3.088 6.248-3.594 8.59l3.35 3.351c2.341-.506 5.534-1.717 8.588-3.595 3.284-2.019 6.31-4.748 7.98-8.088.5-1.002.822-2.52 1.01-4.235.187-1.688.236-3.46.249-4.91ZM27.628 2A2.352 2.352 0 0 1 30 4.373c-.013 1.471-.062 3.323-.26 5.113-.195 1.764-.543 3.577-1.21 4.91-1.895 3.792-5.256 6.767-8.722 8.898-3.469 2.132-7.141 3.48-9.786 3.96a1 1 0 0 1-.886-.277L5.03 22.87a1 1 0 0 1-.277-.886c.481-2.645 1.828-6.319 3.96-9.789 2.13-3.467 5.104-6.829 8.895-8.725 1.333-.666 3.145-1.015 4.909-1.21 1.788-.198 3.64-.247 5.111-.26Z" clip-rule="evenodd"/><path fill="#000" fill-rule="evenodd" d="M20.792 9.473a1.737 1.737 0 1 0 0 3.475 1.737 1.737 0 0 0 0-3.475Zm-3.737 1.737a3.738 3.738 0 1 1 7.476 0 3.738 3.738 0 0 1-7.476 0ZM3.388 12.383a1 1 0 0 1 .98-.804h5.288a1 1 0 0 1 .832 1.555c-1.303 1.957-2.45 4.606-3.117 6.607a1 1 0 0 1-.95.684h-3.42a1 1 0 0 1-.982-1.196l1.37-6.846Zm1.8 1.197-.968 4.844h1.49a34.422 34.422 0 0 1 2.174-4.844H5.189ZM20.988 28.611a1 1 0 0 0 .805-.98v-5.29a1 1 0 0 0-1.555-.832c-1.956 1.304-4.605 2.452-6.605 3.119a1 1 0 0 0-.684.949v3.422a1 1 0 0 0 1.196.982l6.843-1.37Zm-1.196-1.8-4.843.968v-1.49a34.4 34.4 0 0 0 4.843-2.175v2.696Z" clip-rule="evenodd"/><path fill="#000" fill-rule="evenodd" d="M7.555 17.662a1 1 0 0 1 1.314-.526c1.74.746 5.59 3.223 7.368 7.371a1 1 0 0 1-1.838.788c-1.508-3.518-4.865-5.697-6.318-6.32a1 1 0 0 1-.526-1.313Z" clip-rule="evenodd"/></svg>