<svg xmlns="http://www.w3.org/2000/svg" width="24" height="24" fill="none" class="persona-icon" viewBox="0 0 24 24"><path fill="currentColor" d="M12.542 4.22a6.71 6.71 0 0 1 6.708 6.71.75.75 0 0 1-1.5 0 5.208 5.208 0 0 0-10.395-.475.75.75 0 0 1-.75.683h-.022a3.583 3.583 0 0 0-1.198 6.961c.049.018.22.054.57.09.325.034.746.062 1.25.084 1.004.045 2.302.066 3.744.072a.75.75 0 1 1-.006 1.5c-1.45-.006-2.77-.028-3.805-.073-.517-.023-.97-.053-1.337-.09-.343-.036-.68-.085-.917-.169A5.085 5.085 0 0 1 5.95 9.677a6.71 6.71 0 0 1 6.592-5.456M14.98 18.559a.75.75 0 1 1 .997-1.122l1.36 1.21v-3.468a.75.75 0 0 1 1.5 0v3.468l1.36-1.21a.75.75 0 0 1 .997 1.122l-2.608 2.319a.75.75 0 0 1-.997 0z"/></svg>