<svg xmlns="http://www.w3.org/2000/svg" width="32" height="32" fill="none" class="persona-icon" viewBox="0 0 32 32"><path fill="currentColor" d="M16.694 5.979a8.63 8.63 0 0 0-8.473 6.99 6.55 6.55 0 0 0-1.346 12.666c.31.11.745.173 1.184.218.47.048 1.052.086 1.714.115 1.326.06 3.018.087 4.873.095a1 1 0 1 0 .009-2 127 127 0 0 1-4.794-.093 29 29 0 0 1-1.597-.107 8 8 0 0 1-.506-.066 3 3 0 0 1-.198-.042l-.012-.003-.004-.002a4.55 4.55 0 0 1 1.52-8.836h.03a1 1 0 0 0 .998-.91 6.63 6.63 0 0 1 13.23.604 1 1 0 0 0 2 0 8.63 8.63 0 0 0-8.628-8.629M19.79 24.406a1 1 0 0 1 1.328-1.495l1.676 1.49v-4.352a1 1 0 1 1 2 0V24.4l1.675-1.49a1 1 0 1 1 1.33 1.496l-3.341 2.969a1 1 0 0 1-1.329 0z"/></svg>