<svg xmlns="http://www.w3.org/2000/svg" width="32" height="32" fill="none"><path fill="#000" fill-rule="evenodd" d="M16 10.92c-2.78 0-5.034 2.274-5.034 5.08S13.22 21.08 16 21.08s5.034-2.274 5.034-5.08S18.78 10.92 16 10.92ZM12.98 16c0-1.684 1.352-3.048 3.02-3.048s3.02 1.364 3.02 3.048-1.352 3.048-3.02 3.048-3.02-1.364-3.02-3.048Z" clip-rule="evenodd"/><path fill="#000" fill-rule="evenodd" d="M28.845 15.165C26.37 8.795 21.235 5.5 16 5.5c-5.234 0-10.371 3.296-12.845 9.665a2.32 2.32 0 0 0 0 1.67C5.63 23.204 10.765 26.5 16 26.5c5.234 0 10.371-3.296 12.845-9.666a2.32 2.32 0 0 0 0-1.669Zm-23.815.742C7.227 10.25 11.662 7.532 16 7.532c4.338 0 8.773 2.718 10.97 8.375a.271.271 0 0 1 0 .186c-2.197 5.657-6.632 8.375-10.97 8.375-4.338 0-8.773-2.718-10.97-8.375a.271.271 0 0 1 0-.186Z" clip-rule="evenodd"/></svg>