<svg xmlns="http://www.w3.org/2000/svg" width="20" height="20" fill="none" class="persona-icon" viewBox="0 0 20 20"><path fill="currentColor" fill-rule="evenodd" d="M5.022 2.975c-1.13 0-2.047.917-2.047 2.047V10c0 1.13.917 2.047 2.047 2.047h6.472a2.403 2.403 0 1 0 2.687-3.886V5.022c0-1.13-.917-2.047-2.048-2.047zm6.132 6.12a2.4 2.4 0 0 0-.357 1.26c0 .376.086.731.24 1.048H6.121c-.56 0-1.013-.454-1.013-1.013 0-.35.151-.684.414-.915l.155-.135a2.72 2.72 0 0 1 1.793-.676h2.215c.524 0 1.034.151 1.47.43M8.578 4.397a2.047 2.047 0 1 1 0 4.095 2.047 2.047 0 0 1 0-4.095" clip-rule="evenodd"/><path fill="currentColor" d="M9.891 13.877a3.08 3.08 0 0 1 2.222-.947h2.174c.839 0 1.64.342 2.222.947a1.863 1.863 0 0 1-1.345 3.148h-3.928a1.863 1.863 0 0 1-1.345-3.148"/></svg>