<svg xmlns="http://www.w3.org/2000/svg" width="20" height="20" fill="none" class="persona-icon" viewBox="0 0 20 20"><path fill="currentColor" fill-rule="evenodd" d="M5.022 2.975h7.111c1.131 0 2.048.917 2.048 2.047v3.14a2.403 2.403 0 1 1-2.687 3.885H5.022A2.047 2.047 0 0 1 2.975 10V5.022c0-1.13.917-2.047 2.047-2.047m6.132 6.12a2.7 2.7 0 0 0-1.469-.431H7.47c-.66 0-1.297.24-1.793.676l-.155.135a1.22 1.22 0 0 0-.414.915c0 .56.454 1.013 1.013 1.013h4.916a2.4 2.4 0 0 1-.24-1.048c0-.462.13-.894.357-1.26M8.578 4.397a2.047 2.047 0 1 0 0 4.095 2.047 2.047 0 0 0 0-4.095" clip-rule="evenodd"/><path fill="currentColor" d="M9.891 13.877a3.08 3.08 0 0 1 2.222-.947h2.174c.839 0 1.64.342 2.222.947a1.863 1.863 0 0 1-1.345 3.148h-3.928a1.863 1.863 0 0 1-1.345-3.148"/></svg>