<svg xmlns="http://www.w3.org/2000/svg" width="32" height="32" fill="none" class="persona-icon" viewBox="0 0 32 32"><path fill="currentColor" fill-rule="evenodd" d="M7.444 4h12.223a3.444 3.444 0 0 1 3.444 3.444v5.444a4.057 4.057 0 1 1-4.513 6.556H7.445A3.444 3.444 0 0 1 4 16V7.444A3.444 3.444 0 0 1 7.444 4m10.563 10.549c-.75-.5-1.636-.771-2.548-.771h-3.807a4.6 4.6 0 0 0-3.034 1.143l-.265.233a2.02 2.02 0 0 0-.686 1.517c0 .92.746 1.666 1.666 1.666h8.495a4.04 4.04 0 0 1-.384-1.726c0-.753.206-1.458.563-2.062m-4.451-8.104a3.444 3.444 0 1 0 0 6.888 3.444 3.444 0 0 0 0-6.889" clip-rule="evenodd"/><path fill="currentColor" d="M15.867 22.715a5.22 5.22 0 0 1 3.764-1.604h3.738c1.42 0 2.78.58 3.764 1.604.557.58.867 1.354.867 2.156A3.13 3.13 0 0 1 24.875 28h-6.75A3.13 3.13 0 0 1 15 24.87c0-.801.31-1.575.867-2.155"/></svg>