<svg xmlns="http://www.w3.org/2000/svg" width="16" height="16" fill="none" class="persona-icon" viewBox="0 0 16 16"><path fill="currentColor" fill-rule="evenodd" d="M2 4.333A2.333 2.333 0 0 1 4.333 2h7.334A2.333 2.333 0 0 1 14 4.333v7.334a2.4 2.4 0 0 1-.158.845A2.33 2.33 0 0 1 11.667 14H4.333A2.333 2.333 0 0 1 2 11.667zm3.944.723H13v-.723C13 3.597 12.403 3 11.667 3H5.944zM4.334 3C3.596 3 3 3.597 3 4.333v.723h1.944V3zm.61 5.722a.5.5 0 0 0-.5.5v1.834a.5.5 0 0 0 1 0V9.222a.5.5 0 0 0-.5-.5M7.278 8a.5.5 0 1 0-1 0v3.056a.5.5 0 0 0 1 0zm2.465-.461a2.028 2.028 0 0 0 .396 4.017.5.5 0 1 0 0-1 1.028 1.028 0 1 1 1.028-1.028.5.5 0 0 0 1 0 2.028 2.028 0 0 0-2.424-1.989" clip-rule="evenodd"/></svg>