<svg xmlns="http://www.w3.org/2000/svg" width="24" height="24" fill="none" class="persona-icon" viewBox="0 0 24 24"><path fill="currentColor" fill-rule="evenodd" d="M6.5 3h11A3.5 3.5 0 0 1 21 6.5v11a3.5 3.5 0 0 1-3.5 3.5h-11A3.5 3.5 0 0 1 3 17.5v-11A3.5 3.5 0 0 1 6.5 3m13 4.583V6.5a2 2 0 0 0-2-2H8.917v3.083zm-12.083 0V4.5H6.5a2 2 0 0 0-2 2v1.083zm0 5.5a.75.75 0 0 0-.75.75v2.75a.75.75 0 1 0 1.5 0v-2.75a.75.75 0 0 0-.75-.75m3.5-1.083a.75.75 0 1 0-1.5 0v4.583a.75.75 0 1 0 1.5 0zm3.698-.692a3.042 3.042 0 0 0 .593 6.025.75.75 0 0 0 0-1.5 1.542 1.542 0 1 1 1.542-1.541.75.75 0 0 0 1.5 0 3.042 3.042 0 0 0-3.635-2.984" clip-rule="evenodd"/></svg>