<svg xmlns="http://www.w3.org/2000/svg" width="24" height="24" fill="none" class="persona-icon" viewBox="0 0 24 24"><path fill="currentColor" fill-rule="evenodd" d="M6.5 3A3.5 3.5 0 0 0 3 6.5v11A3.5 3.5 0 0 0 6.5 21h11a3.5 3.5 0 0 0 3.5-3.5v-11A3.5 3.5 0 0 0 17.5 3zm.917 4.583H4.5V6.5a2 2 0 0 1 2-2h.917zm0 5.5a.75.75 0 0 1 .75.75v2.75a.75.75 0 0 1-1.5 0v-2.75a.75.75 0 0 1 .75-.75m12.083-5.5H8.917V4.5H17.5a2 2 0 0 1 2 2zM10.917 12v4.583a.75.75 0 1 1-1.5 0V12a.75.75 0 1 1 1.5 0m3.698-.692a3.042 3.042 0 0 1 3.635 2.984.75.75 0 0 1-1.5 0 1.542 1.542 0 1 0-1.542 1.541.75.75 0 0 1 0 1.5 3.042 3.042 0 0 1-.593-6.025" clip-rule="evenodd"/></svg>