<svg xmlns="http://www.w3.org/2000/svg" width="32" height="32" fill="none" class="persona-icon" viewBox="0 0 32 32"><path fill="currentColor" fill-rule="evenodd" d="M8.667 4h14.666A4.667 4.667 0 0 1 28 8.667v14.666A4.662 4.662 0 0 1 23.333 28H8.667A4.667 4.667 0 0 1 4 23.333V8.667A4.667 4.667 0 0 1 8.667 4M26 10.111V8.667A2.667 2.667 0 0 0 23.333 6H11.89v4.111zm-16.111 0V6H8.667A2.667 2.667 0 0 0 6 8.667v1.444zm0 7.334a1 1 0 0 0-1 1v3.666a1 1 0 1 0 2 0v-3.666a1 1 0 0 0-1-1M14.556 16a1 1 0 0 0-2 0v6.111a1 1 0 1 0 2 0zm4.93-.922a4.056 4.056 0 0 0 .792 8.033 1 1 0 1 0 0-2 2.056 2.056 0 1 1 2.055-2.056 1 1 0 0 0 2 0 4.056 4.056 0 0 0-4.846-3.977" clip-rule="evenodd"/></svg>