<svg xmlns="http://www.w3.org/2000/svg" width="32" height="32" fill="none" class="persona-icon" viewBox="0 0 32 32"><path fill="currentColor" fill-rule="evenodd" d="M8.667 4A4.667 4.667 0 0 0 4 8.667v14.666A4.667 4.667 0 0 0 8.667 28h14.666A4.66 4.66 0 0 0 28 23.333V8.667A4.667 4.667 0 0 0 23.333 4zm1.222 6.111H6V8.667A2.667 2.667 0 0 1 8.667 6h1.222zm0 7.334a1 1 0 0 1 1 1v3.666a1 1 0 1 1-2 0v-3.666a1 1 0 0 1 1-1M26 10.11H11.889V6h11.444A2.667 2.667 0 0 1 26 8.667zM14.556 16v6.111a1 1 0 0 1-2 0V16a1 1 0 1 1 2 0m4.93-.922a4.055 4.055 0 0 1 4.847 3.977 1 1 0 1 1-2 0 2.056 2.056 0 1 0-2.055 2.056 1 1 0 1 1 0 2 4.056 4.056 0 0 1-.791-8.033" clip-rule="evenodd"/></svg>