<svg xmlns="http://www.w3.org/2000/svg" width="40" height="40" fill="none" class="persona-ilustration" viewBox="0 0 40 40"><g fill="#82C2F1" clip-path="url(#f3GcWEMKy7fRlCYAY4GqPL1L-DGQ1CpLp61Etg0Ocuc_a)"><path d="M4.586 28.648s-3.436 2.81-1.488 4.11 4.003.162 5.192-2.055c-2.055-1.188-3.704-2.055-3.704-2.055M5.394 27.567s4.571-7.789 8.414-6.98 2.976 3.459 2.976 3.459-1.622 3.574-3.896 4.057c-2.275.482-3.678 1.568-3.678 1.568l-3.816-2.109zM20.886 29.54l2.708 3.145s-3.561 3.262-5.952.872c-2.614-2.614 3.24-4.017 3.24-4.017zM22.093 28.86l3.047 2.905s7.4-2.708 7.932-5.416c.531-2.707-1.037-3.512-2.083-3.677-1.465-.228-4.303.192-5.661 1.792s-1.935 2.516-2.082 3.047c-.148.532-1.162 1.354-1.162 1.354zM25.218 13.688s-3.436 2.81-1.488 4.11 4.004.161 5.192-2.055a117 117 0 0 0-3.704-2.056M26.026 12.606s4.571-7.788 8.414-6.98c3.843.81 2.976 3.46 2.976 3.46s-1.622 3.574-3.896 4.057c-2.275.482-3.678 1.568-3.678 1.568l-3.816-2.11z"/></g><defs><clipPath id="f3GcWEMKy7fRlCYAY4GqPL1L-DGQ1CpLp61Etg0Ocuc_a"><path fill="#fff" d="M0 0h40v40H0z"/></clipPath></defs></svg>