<svg xmlns="http://www.w3.org/2000/svg" width="80" height="80" fill="none" class="persona-ilustration" viewBox="0 0 80 80"><g fill="#82C2F1" clip-path="url(#IXZ93nICEVoizj6uy_mdkz55gymr5-5bDHb3_QBblyE_a)"><path d="M9.171 57.296S2.3 62.917 6.195 65.518s8.008.321 10.385-4.111c-4.111-2.377-7.409-4.111-7.409-4.111M10.789 55.133s9.142-15.576 16.827-13.959 5.952 6.917 5.952 6.917-3.244 7.15-7.793 8.115-7.354 3.136-7.354 3.136l-7.632-4.218zM41.773 59.08l5.415 6.29s-7.122 6.524-11.903 1.743c-5.228-5.227 6.479-8.034 6.479-8.034zM44.186 57.721l6.095 5.81s14.799-5.416 15.862-10.832-2.073-7.024-4.164-7.355c-2.932-.456-8.606.384-11.323 3.584-2.717 3.199-3.87 5.031-4.165 6.094s-2.323 2.708-2.323 2.708zM50.436 27.375s-6.873 5.62-2.976 8.221c3.896 2.6 8.007.322 10.384-4.11-4.11-2.378-7.408-4.111-7.408-4.111M52.052 25.212S61.195 9.636 68.88 11.253c7.686 1.618 5.952 6.917 5.952 6.917s-3.244 7.15-7.793 8.115-7.355 3.137-7.355 3.137l-7.632-4.219z"/></g><defs><clipPath id="IXZ93nICEVoizj6uy_mdkz55gymr5-5bDHb3_QBblyE_a"><path fill="#fff" d="M0 0h80v80H0z"/></clipPath></defs></svg>