<svg xmlns="http://www.w3.org/2000/svg" width="24" height="24" fill="none"><path fill="#000" fill-rule="evenodd" d="M8.307 1.5c.418 0 .756.338.756.755V4.52h5.294a.756.756 0 1 1 0 1.51h-2.366c-.283 1.529-1.138 3.798-2.955 5.939 1.002 1.009 2.302 1.828 3.944 2.126a.755.755 0 1 1-.27 1.485c-1.986-.36-3.539-1.343-4.711-2.511a15.376 15.376 0 0 1-3.367 2.433.754.754 0 1 1-.717-1.33 13.849 13.849 0 0 0 3.09-2.245c-1.07-1.415-1.696-2.925-1.953-3.953a.756.756 0 0 1 1.467-.366c.2.795.69 2.011 1.528 3.185 1.418-1.739 2.125-3.527 2.4-4.763h-8.19a.756.756 0 1 1 0-1.51H7.55V2.255c0-.417.338-.755.756-.755Z" clip-rule="evenodd"/><path fill="#000" d="M13.526 22.5c-.226 0-.41-.052-.55-.155a.634.634 0 0 1-.24-.409 1.065 1.065 0 0 1 .098-.592l3.727-8.244c.123-.272.269-.465.438-.577.179-.123.381-.184.607-.184.217 0 .41.061.579.184.179.112.33.305.452.577l3.741 8.244c.104.216.141.414.113.592a.643.643 0 0 1-.24.423c-.132.094-.306.141-.522.141-.264 0-.471-.061-.622-.183-.14-.132-.268-.329-.38-.592l-.706-1.635h-4.855l-.694 1.635c-.122.272-.25.47-.381.592-.132.122-.32.183-.565.183Zm4.052-8.09-1.787 4.243h3.614l-1.799-4.242h-.028Z"/></svg>