<svg xmlns="http://www.w3.org/2000/svg" width="16" height="16" fill="none" class="persona-icon" viewBox="0 0 16 16"><path fill="currentColor" d="m2.854 2.146 11 11a.5.5 0 0 1-.708.707l-1.686-1.686h-.966a2.5 2.5 0 0 1-4.988 0H2.5a.5.5 0 0 1-.416-.777l.998-1.501a1.3 1.3 0 0 0 .208-.537l.593-3.818c.045-.29.085-.525.169-.775L2.147 2.853a.5.5 0 1 1 .707-.707M12.117 5.534l.593 3.818c.03.192.1.375.208.537a.5.5 0 0 1-.765.635L5.206 3.747a.5.5 0 0 1 .02-.735c1.117-.974 2.694-1.238 4.056-.822 1.382.422 2.557 1.55 2.835 3.344"/></svg>