<svg xmlns="http://www.w3.org/2000/svg" width="20" height="20" fill="none" class="persona-icon" viewBox="0 0 20 20"><path fill="currentColor" d="m4.014 3.153 12.833 12.833a.608.608 0 1 1-.86.86l-1.961-1.96h-.876V15a3.15 3.15 0 0 1-6.3 0v-.114H3.583a.608.608 0 0 1-.506-.945l1.165-1.751c.123-.186.204-.396.239-.616l.691-4.455c.051-.332.098-.605.193-.894L3.153 4.013a.608.608 0 1 1 .86-.86M11.503 3.198c1.62.495 2.999 1.818 3.325 3.92l.692 4.456c.034.22.115.43.239.616a.608.608 0 0 1-.932.772L6.723 5.056a.61.61 0 0 1 .025-.894c1.31-1.142 3.158-1.452 4.755-.964"/></svg>