<svg xmlns="http://www.w3.org/2000/svg" width="24" height="24" fill="none" class="persona-icon" viewBox="0 0 24 24"><path fill="currentColor" d="M4.28 3.22a.75.75 0 1 0-1.06 1.06l2.858 2.858c-.126.376-.187.729-.254 1.163l-.889 5.727a2 2 0 0 1-.312.805l-1.497 2.252a.75.75 0 0 0 .624 1.165h4.508a3.75 3.75 0 0 0 7.484 0h1.447l2.53 2.53a.75.75 0 1 0 1.061-1.06L7.49 6.43l-.002-.002zM18.176 8.3c-.418-2.69-2.18-4.381-4.254-5.015-2.043-.624-4.407-.227-6.082 1.234a.75.75 0 0 0-.03 1.101l10.419 10.166a.75.75 0 0 0 1.148-.953 2 2 0 0 1-.312-.805z"/></svg>