<svg xmlns="http://www.w3.org/2000/svg" width="24" height="24" fill="none" class="persona-icon" viewBox="0 0 24 24"><path fill="currentColor" d="m4.28 3.22 3.208 3.208.002.002 13.29 13.29a.75.75 0 1 1-1.06 1.06l-2.53-2.53h-1.448a3.751 3.751 0 0 1-7.484 0H3.75a.75.75 0 0 1-.624-1.165l1.497-2.252a2 2 0 0 0 .312-.805l.89-5.727c.066-.434.127-.787.253-1.163L3.22 4.28a.75.75 0 1 1 1.06-1.06M18.176 8.3l.889 5.728c.044.288.151.563.312.805a.75.75 0 0 1-1.148.953L7.809 5.62a.75.75 0 0 1 .031-1.102c1.675-1.461 4.04-1.858 6.082-1.234 2.073.634 3.836 2.325 4.254 5.016"/></svg>