<svg xmlns="http://www.w3.org/2000/svg" width="32" height="32" fill="none" class="persona-icon" viewBox="0 0 32 32"><path fill="currentColor" d="m5.707 4.293 4.27 4.27.01.01.01.01 17.71 17.71a1 1 0 0 1-1.414 1.414l-3.374-3.374h-1.93a5 5 0 0 1-9.978 0H5a1 1 0 0 1-.833-1.553l1.997-3.002a2.7 2.7 0 0 0 .416-1.073l1.186-7.638c.09-.578.17-1.049.338-1.55l-3.811-3.81a1 1 0 0 1 1.414-1.414M24.234 11.067l1.186 7.637c.06.384.201.75.416 1.074a1 1 0 0 1-1.53 1.27L10.412 7.493a1 1 0 0 1 .04-1.47c2.233-1.947 5.386-2.476 8.11-1.644 2.764.845 5.115 3.1 5.671 6.687"/></svg>