<svg xmlns="http://www.w3.org/2000/svg" width="32" height="32" fill="none" class="persona-icon" viewBox="0 0 32 32"><path fill="currentColor" d="M5.707 4.293a1 1 0 0 0-1.414 1.414l3.81 3.81c-.167.502-.248.972-.337 1.55L6.58 18.704a2.7 2.7 0 0 1-.416 1.074L4.167 22.78A1 1 0 0 0 5 24.333h6.011a5 5 0 0 0 9.978 0h1.93l3.374 3.374a1 1 0 0 0 1.414-1.414L9.997 8.583l-.01-.01-.01-.01zM24.234 11.067c-.556-3.587-2.907-5.842-5.67-6.687-2.725-.832-5.878-.303-8.11 1.645a1 1 0 0 0-.041 1.469l13.892 13.553a1 1 0 0 0 1.531-1.27 2.7 2.7 0 0 1-.416-1.073z"/></svg>