<svg xmlns="http://www.w3.org/2000/svg" width="16" height="16" fill="none" class="persona-icon" viewBox="0 0 16 16"><path fill="currentColor" d="M8.347 2.99A4.316 4.316 0 0 0 4.11 6.483a3.275 3.275 0 0 0-.672 6.334c.17.06.42.093.678.117.277.025.622.045 1.015.059a82 82 0 0 0 2.87.038.5.5 0 0 0 .499-.5v-1.495C8.5 9.636 9.636 8.5 11.037 8.5h1.06a.5.5 0 0 0 .492-.41A4.314 4.314 0 0 0 8.346 2.99"/><path fill="currentColor" d="M9.853 11.841a.5.5 0 0 1 .042-.706l1.67-1.484a.5.5 0 0 1 .664 0l1.67 1.484a.5.5 0 1 1-.664.748l-.838-.745v2.175a.5.5 0 0 1-1 0v-2.175l-.838.745a.5.5 0 0 1-.706-.042"/></svg>