<svg xmlns="http://www.w3.org/2000/svg" width="16" height="16" fill="none" class="persona-icon" viewBox="0 0 16 16"><path fill="currentColor" d="M8.347 2.99a4.314 4.314 0 0 1 4.242 5.1.5.5 0 0 1-.491.41h-1.062A2.536 2.536 0 0 0 8.5 11.037v1.495a.5.5 0 0 1-.5.5 82 82 0 0 1-2.869-.038 19 19 0 0 1-1.015-.06c-.258-.023-.509-.056-.678-.116a3.275 3.275 0 0 1 .672-6.334 4.316 4.316 0 0 1 4.237-3.495"/><path fill="currentColor" d="M9.853 11.841a.5.5 0 0 1 .042-.706l1.67-1.484a.5.5 0 0 1 .664 0l1.67 1.484a.5.5 0 1 1-.664.748l-.838-.745v2.175a.5.5 0 0 1-1 0v-2.175l-.838.745a.5.5 0 0 1-.706-.042"/></svg>