<svg xmlns="http://www.w3.org/2000/svg" width="20" height="20" fill="none" class="persona-icon" viewBox="0 0 20 20"><path fill="currentColor" d="M10.416 3.962a5.204 5.204 0 0 0-5.105 4.196 3.955 3.955 0 0 0-.794 7.646c.207.073.511.114.82.142.333.031.747.054 1.22.071.946.035 2.15.047 3.443.047.345 0 .625-.28.625-.626v-1.795a3.02 3.02 0 0 1 3.019-3.018h1.273c.302 0 .56-.216.615-.512q.086-.463.086-.949a5.2 5.2 0 0 0-5.202-5.202"/><path fill="currentColor" d="M12.205 14.624a.625.625 0 0 1 .052-.883l2.004-1.781a.625.625 0 0 1 .83 0l2.005 1.781a.625.625 0 1 1-.83.934l-.965-.856v2.555a.625.625 0 1 1-1.25 0v-2.555l-.964.856a.625.625 0 0 1-.882-.052"/></svg>