<svg xmlns="http://www.w3.org/2000/svg" width="24" height="24" fill="none" class="persona-icon" viewBox="0 0 24 24"><path fill="currentColor" d="M12.542 4.22A6.71 6.71 0 0 0 5.95 9.677a5.084 5.084 0 0 0-1.066 9.837c.26.092.649.144 1.052.181.43.04.97.07 1.584.093 1.23.045 2.797.06 4.48.06a.75.75 0 0 0 .75-.75V16.76a3.993 3.993 0 0 1 3.993-3.993h1.658a.75.75 0 0 0 .738-.614 6.708 6.708 0 0 0-6.597-7.932"/><path fill="currentColor" d="M14.918 17.996a.75.75 0 0 1 .062-1.058l2.609-2.32a.75.75 0 0 1 .997 0l2.608 2.32a.75.75 0 1 1-.996 1.12l-1.36-1.209v3.468a.75.75 0 0 1-1.5 0v-3.468l-1.361 1.21a.75.75 0 0 1-1.06-.063"/></svg>