<svg xmlns="http://www.w3.org/2000/svg" width="32" height="32" fill="none" class="persona-icon" viewBox="0 0 32 32"><path fill="currentColor" d="M16.694 5.979a8.63 8.63 0 0 1 8.485 10.202 1 1 0 0 1-.983.819h-2.123A5.073 5.073 0 0 0 17 22.073v2.992a1 1 0 0 1-1 1 165 165 0 0 1-5.737-.077 38 38 0 0 1-2.03-.118c-.516-.048-1.019-.115-1.358-.235a6.55 6.55 0 0 1 1.346-12.667 8.63 8.63 0 0 1 8.473-6.99"/><path fill="currentColor" d="M27.881 23.682a1 1 0 0 1-1.412.083l-1.675-1.49v4.352a1 1 0 1 1-2 0v-4.351l-1.676 1.49a1 1 0 0 1-1.329-1.496l3.34-2.969a1 1 0 0 1 1.33 0l3.34 2.97a1 1 0 0 1 .082 1.411"/></svg>