<svg xmlns="http://www.w3.org/2000/svg" width="16" height="16" fill="none"><path fill="#000" d="M11.738 3.422a.84.84 0 1 0 0 1.68.84.84 0 0 0 0-1.68Zm3.22 1.694a5.313 5.313 0 0 0-.322-1.701 3.458 3.458 0 0 0-.812-1.239 3.29 3.29 0 0 0-1.239-.805 5.11 5.11 0 0 0-1.701-.329C10.142 1 9.904 1 8 1s-2.142 0-2.884.042a5.11 5.11 0 0 0-1.701.329 3.346 3.346 0 0 0-1.239.805 3.29 3.29 0 0 0-.805 1.239 5.11 5.11 0 0 0-.329 1.701C1 5.858 1 6.096 1 8s0 2.142.042 2.884a5.11 5.11 0 0 0 .329 1.701c.17.469.446.892.805 1.239.348.357.771.632 1.239.805.544.206 1.12.317 1.701.329C5.858 15 6.096 15 8 15s2.142 0 2.884-.042a5.108 5.108 0 0 0 1.701-.329 3.29 3.29 0 0 0 1.239-.805c.359-.348.636-.771.812-1.239.2-.546.308-1.12.322-1.701 0-.742.042-.98.042-2.884s0-2.142-.042-2.884Zm-1.26 5.684a3.928 3.928 0 0 1-.238 1.302c-.112.305-.291.58-.525.805-.227.231-.502.41-.805.525a3.928 3.928 0 0 1-1.302.238c-.7.035-.959.042-2.8.042-1.841 0-2.1 0-2.8-.042a4.012 4.012 0 0 1-1.358-.21 2.288 2.288 0 0 1-.77-.525 2.1 2.1 0 0 1-.518-.805 3.878 3.878 0 0 1-.28-1.33c0-.7-.042-.959-.042-2.8 0-1.841 0-2.1.042-2.8.003-.454.086-.904.245-1.33A2.1 2.1 0 0 1 3.1 3.1c.213-.24.475-.432.77-.56a4.011 4.011 0 0 1 1.33-.238c.7 0 .959-.042 2.8-.042 1.841 0 2.1 0 2.8.042.444.005.885.086 1.302.238.318.118.604.31.833.56.23.215.409.478.525.77.156.426.236.876.238 1.33.035.7.042.959.042 2.8 0 1.841-.007 2.1-.042 2.8ZM8 4.409a3.591 3.591 0 1 0 3.326 2.214A3.584 3.584 0 0 0 8 4.41Zm0 5.922a2.33 2.33 0 1 1 0-4.662 2.33 2.33 0 0 1 0 4.662Z"/></svg>