<svg xmlns="http://www.w3.org/2000/svg" width="32" height="32" fill="none" class="persona-icon" viewBox="0 0 32 32"><path fill="currentColor" d="M27.928 11.056a9.1 9.1 0 0 0-.552-2.916 5.9 5.9 0 0 0-1.392-2.124 5.64 5.64 0 0 0-2.124-1.38 8.8 8.8 0 0 0-2.916-.564C19.672 4 19.264 4 16 4s-3.672 0-4.944.072a8.8 8.8 0 0 0-2.916.564 5.7 5.7 0 0 0-2.124 1.38 5.64 5.64 0 0 0-1.38 2.124 8.8 8.8 0 0 0-.564 2.916C4 12.328 4 12.736 4 16s0 3.672.072 4.944c.02.997.211 1.983.564 2.916a5.64 5.64 0 0 0 1.38 2.124 5.7 5.7 0 0 0 2.124 1.38 8.8 8.8 0 0 0 2.916.564C12.328 28 12.736 28 16 28s3.672 0 4.944-.072a8.8 8.8 0 0 0 2.916-.564 5.64 5.64 0 0 0 2.124-1.38 5.8 5.8 0 0 0 1.392-2.124c.342-.935.529-1.92.552-2.916 0-1.272.072-1.68.072-4.944s0-3.672-.072-4.944m-2.16 9.744a6.7 6.7 0 0 1-.408 2.232c-.192.522-.5.994-.9 1.38-.39.397-.86.704-1.38.9-.716.261-1.47.4-2.232.408-1.2.06-1.644.072-4.8.072s-3.6 0-4.8-.072a6.9 6.9 0 0 1-2.328-.36 3.9 3.9 0 0 1-1.32-.9 3.6 3.6 0 0 1-.888-1.38 6.7 6.7 0 0 1-.48-2.28c0-1.2-.072-1.644-.072-4.8s0-3.6.072-4.8c.005-.779.147-1.55.42-2.28A3.6 3.6 0 0 1 7.6 7.6c.365-.413.815-.74 1.32-.96a6.9 6.9 0 0 1 2.28-.408c1.2 0 1.644-.072 4.8-.072s3.6 0 4.8.072a6.7 6.7 0 0 1 2.232.408 3.7 3.7 0 0 1 1.428.96c.393.369.7.82.9 1.32.267.73.405 1.502.408 2.28.06 1.2.072 1.644.072 4.8s-.012 3.6-.072 4.8M16 9.844A6.143 6.143 0 0 1 22.168 16 6.156 6.156 0 1 1 16 9.844m0 10.152a3.996 3.996 0 1 0 0-7.992 3.996 3.996 0 0 0 0 7.992m6.408-11.844a1.44 1.44 0 1 1 0 2.88 1.44 1.44 0 0 1 0-2.88"/></svg>