<svg xmlns="http://www.w3.org/2000/svg" width="20" height="20" fill="none" class="persona-icon"><path fill="currentColor" d="M2.5 4.625c0-.345.288-.625.643-.625h13.714c.355 0 .643.28.643.625a.634.634 0 0 1-.643.625H3.143a.634.634 0 0 1-.643-.625ZM2.5 8.208c0-.345.28-.625.625-.625h6.667a.625.625 0 0 1 0 1.25H3.125a.625.625 0 0 1-.625-.625ZM2.5 11.792c0-.345.288-.625.643-.625h13.714c.355 0 .643.28.643.625a.634.634 0 0 1-.643.625H3.143a.634.634 0 0 1-.643-.625ZM2.5 15.375c0-.345.28-.625.625-.625h6.667a.625.625 0 0 1 0 1.25H3.125a.625.625 0 0 1-.625-.625Z"/></svg>