<svg xmlns="http://www.w3.org/2000/svg" width="20" height="20" fill="none" class="persona-icon" viewBox="0 0 20 20"><path fill="currentColor" fill-rule="evenodd" d="M2.975 5.26c0-.346.28-.625.625-.625h12.8a.625.625 0 1 1 0 1.25H3.6a.625.625 0 0 1-.625-.625m0 3.2c0-.346.28-.625.625-.625H10a.625.625 0 1 1 0 1.25H3.6a.625.625 0 0 1-.625-.625m0 3.2c0-.346.28-.625.625-.625h12.8a.625.625 0 1 1 0 1.25H3.6a.625.625 0 0 1-.625-.625m0 3.2c0-.346.28-.625.625-.625H10a.625.625 0 1 1 0 1.25H3.6a.625.625 0 0 1-.625-.625" clip-rule="evenodd"/></svg>