<svg xmlns="http://www.w3.org/2000/svg" width="16" height="16" fill="none" class="persona-icon" viewBox="0 0 16 16"><path fill="currentColor" fill-rule="evenodd" d="m12.787 5.787.22-.22h.002c.355-.356.744-.793.896-1.3.08-.267.095-.557.008-.856-.087-.294-.262-.564-.511-.813-.25-.249-.519-.424-.813-.51a1.5 1.5 0 0 0-.857.007c-.505.152-.943.54-1.298.895l-.221.22-4.896 4.897a.99.99 0 0 0-.288.697v1.182c0 .544.441.984.985.985h1.182a.99.99 0 0 0 .697-.288l4.893-4.895zm-1.06-.354L7.19 9.971H6.03L6.028 8.81l4.536-4.538zm.292-2.38a.5.5 0 0 1 .289-.006c.095.028.225.097.386.258.162.162.23.291.259.387a.5.5 0 0 1-.006.289c-.064.21-.237.452-.514.744l-1.158-1.158c.292-.277.533-.45.744-.514" clip-rule="evenodd"/><path fill="currentColor" fill-rule="evenodd" d="M4.333 3C3.597 3 3 3.597 3 4.333v7.334C3 12.403 3.597 13 4.333 13h7.334c.736 0 1.333-.597 1.333-1.333V8a.5.5 0 0 1 1 0v3.667A2.333 2.333 0 0 1 11.667 14H4.333A2.333 2.333 0 0 1 2 11.667V4.333A2.333 2.333 0 0 1 4.333 2H8a.5.5 0 0 1 0 1z" clip-rule="evenodd"/></svg>