<svg xmlns="http://www.w3.org/2000/svg" width="16" height="16" fill="none" class="persona-icon" viewBox="0 0 16 16"><path fill="currentColor" fill-rule="evenodd" d="m12.787 5.787-.001.001-4.893 4.895a.99.99 0 0 1-.697.288H6.014a.985.985 0 0 1-.985-.985V8.804c0-.261.104-.512.288-.697l4.896-4.897.221-.22c.355-.355.793-.743 1.298-.895.268-.08.558-.095.857-.008.294.087.564.262.813.511.249.25.425.52.51.813.088.3.073.589-.008.857-.151.506-.54.943-.895 1.298l-.001.002zm-1.06-.354-1.162-1.161L6.03 8.81v1.16l1.161.001zm.292-2.38c-.21.063-.452.237-.744.514l1.158 1.158c.277-.292.45-.533.514-.744a.5.5 0 0 0 .006-.289c-.028-.096-.097-.225-.258-.387-.162-.161-.292-.23-.387-.258a.5.5 0 0 0-.289.006" clip-rule="evenodd"/><path fill="currentColor" fill-rule="evenodd" d="M4.333 3C3.597 3 3 3.597 3 4.333v7.334C3 12.403 3.597 13 4.333 13h7.334c.736 0 1.333-.597 1.333-1.333V8a.5.5 0 0 1 1 0v3.667A2.333 2.333 0 0 1 11.667 14H4.333A2.333 2.333 0 0 1 2 11.667V4.333A2.333 2.333 0 0 1 4.333 2H8a.5.5 0 0 1 0 1z" clip-rule="evenodd"/></svg>