<svg xmlns="http://www.w3.org/2000/svg" width="20" height="20" fill="none" class="persona-icon" viewBox="0 0 20 20"><path fill="currentColor" d="M4.243 5.744c0-.83.673-1.503 1.503-1.503h4.255a.625.625 0 0 0 0-1.25H5.746a2.753 2.753 0 0 0-2.753 2.753v8.51a2.753 2.753 0 0 0 2.753 2.753h8.51a2.753 2.753 0 0 0 2.753-2.753V9.999a.625.625 0 1 0-1.25 0v4.255c0 .83-.673 1.503-1.502 1.503H5.746c-.83 0-1.503-.673-1.503-1.503z"/><path fill="currentColor" fill-rule="evenodd" d="M12.795 4.153c.412-.412.926-.87 1.525-1.05a1.77 1.77 0 0 1 1.02-.01c.35.103.669.313.962.605.293.293.501.613.604.963.104.356.086.701-.01 1.02-.179.598-.637 1.113-1.05 1.525l-.002.002-.255.253-5.68 5.682a1.2 1.2 0 0 1-.84.348H7.696a1.19 1.19 0 0 1-1.187-1.187V10.93c0-.315.125-.617.347-.84l5.677-5.679.005-.004zm.183 1.583-5.22 5.22.001 1.285h1.284l5.22-5.22zm.888-.88 1.279 1.278c.301-.323.486-.586.554-.813a.52.52 0 0 0 .007-.309c-.03-.102-.105-.246-.288-.43-.184-.183-.328-.258-.43-.288a.5.5 0 0 0-.31.007c-.226.068-.49.253-.812.554" clip-rule="evenodd"/></svg>