<svg xmlns="http://www.w3.org/2000/svg" width="20" height="20" fill="none" class="persona-icon" viewBox="0 0 20 20"><path fill="currentColor" d="M4.225 5.733c0-.833.675-1.508 1.508-1.508H10a.625.625 0 1 0 0-1.25H5.733a2.76 2.76 0 0 0-2.758 2.758v8.534a2.76 2.76 0 0 0 2.758 2.758h8.534a2.76 2.76 0 0 0 2.758-2.758V10a.625.625 0 1 0-1.25 0v4.267c0 .833-.675 1.508-1.508 1.508H5.733a1.51 1.51 0 0 1-1.508-1.508z"/><path fill="currentColor" fill-rule="evenodd" d="M12.802 4.14c.413-.414.929-.873 1.528-1.052a1.77 1.77 0 0 1 1.021-.01c.352.103.672.312.965.606.293.293.503.613.606.964.104.357.085.703-.01 1.021-.18.6-.64 1.116-1.053 1.53l-.002.001-.256.255-.002.002-5.693 5.695a1.2 1.2 0 0 1-.841.348H7.689a1.19 1.19 0 0 1-1.19-1.189v-1.376c0-.315.126-.618.349-.841l5.695-5.697.001-.002zm.183 1.583L7.749 10.96v1.29h1.29l5.236-5.237zm.887-.88 1.285 1.284c.303-.324.49-.588.558-.816a.52.52 0 0 0 .007-.312c-.03-.103-.106-.247-.29-.431s-.329-.26-.432-.29a.53.53 0 0 0-.31.007c-.229.068-.493.254-.818.558" clip-rule="evenodd"/></svg>