<svg xmlns="http://www.w3.org/2000/svg" width="24" height="24" fill="none" class="persona-icon" viewBox="0 0 24 24"><path fill="currentColor" d="M4.5 6.5v11a2 2 0 0 0 2 2h11a2 2 0 0 0 2-2V12a.75.75 0 0 1 1.5 0v5.5a3.5 3.5 0 0 1-3.5 3.5h-11A3.5 3.5 0 0 1 3 17.5v-11A3.5 3.5 0 0 1 6.5 3H12a.75.75 0 0 1 0 1.5H6.5a2 2 0 0 0-2 2"/><path fill="currentColor" fill-rule="evenodd" d="M15.651 4.485c.533-.533 1.189-1.115 1.947-1.342.402-.12.837-.143 1.285-.012.441.13.846.393 1.22.767.373.373.637.778.766 1.219.131.448.108.883-.012 1.285-.228.758-.81 1.415-1.343 1.948l-.002.002-.332.328-.001.002-7.34 7.342a1.48 1.48 0 0 1-1.045.433l-1.773-.001a1.477 1.477 0 0 1-1.477-1.477v-1.773c0-.392.155-.768.432-1.045l7.341-7.344.002-.002zm.197 1.923-6.805 6.807.001 1.741h1.741L17.59 8.15zm1.064-1.057 1.737 1.737c.416-.439.676-.8.77-1.117a.73.73 0 0 0 .01-.433c-.042-.143-.145-.338-.387-.58s-.437-.345-.58-.388a.73.73 0 0 0-.433.01c-.317.095-.679.355-1.117.77" clip-rule="evenodd"/></svg>