<svg xmlns="http://www.w3.org/2000/svg" width="32" height="32" fill="none" class="persona-icon"><path fill="currentColor" d="M24.013 3.04c1.175-.167 2.437.201 3.594 1.358s1.525 2.418 1.357 3.593c-.16 1.115-.781 2.018-1.357 2.595L16.15 22.043a1 1 0 0 1-.707.293h-4.774a1 1 0 0 1-1-1v-4.774a1 1 0 0 1 .293-.707L21.419 4.398c.576-.576 1.48-1.198 2.594-1.357Zm.295 8.016-3.36-3.36-9.28 9.28v3.36h3.36l9.28-9.28Zm-.012-6.035c-.556.079-1.084.412-1.463.79l-.47.471 3.36 3.36.47-.47c.378-.38.711-.908.79-1.464.072-.496-.038-1.143-.79-1.896-.753-.753-1.4-.862-1.897-.791Z"/><path fill="currentColor" d="M8.002 5.002a3 3 0 0 0-3 3v16a3 3 0 0 0 3 3h16a3 3 0 0 0 3-3v-8a1 1 0 1 1 2 0v8a5 5 0 0 1-5 5h-16a5 5 0 0 1-5-5v-16a5 5 0 0 1 5-5h8a1 1 0 1 1 0 2h-8Z"/></svg>