<svg xmlns="http://www.w3.org/2000/svg" width="32" height="32" fill="none" class="persona-icon" viewBox="0 0 32 32"><path fill="currentColor" fill-rule="evenodd" d="M8.667 6A2.667 2.667 0 0 0 6 8.667v14.666A2.667 2.667 0 0 0 8.667 26h14.666A2.667 2.667 0 0 0 26 23.333V16a1 1 0 1 1 2 0v7.333A4.667 4.667 0 0 1 23.333 28H8.667A4.667 4.667 0 0 1 4 23.333V8.667A4.667 4.667 0 0 1 8.667 4H16a1 1 0 1 1 0 2zm16.907 5.574-.003.002-9.785 9.79c-.37.369-.87.576-1.394.576h-2.364a1.97 1.97 0 0 1-1.97-1.97v-2.364c0-.523.207-1.024.577-1.394l9.788-9.791.003-.003.44-.438.002-.001c.71-.71 1.585-1.487 2.596-1.79a2.97 2.97 0 0 1 1.713-.016c.589.172 1.128.524 1.626 1.022s.85 1.037 1.022 1.626a2.97 2.97 0 0 1-.016 1.713c-.303 1.011-1.08 1.886-1.791 2.597l-.003.003zm-2.121-.707L21.13 8.544l-9.072 9.075v2.322l2.323.001zm-.904-3.732 2.316 2.316c.555-.585.902-1.068 1.028-1.49a.98.98 0 0 0 .013-.576c-.056-.192-.194-.451-.517-.774s-.582-.46-.774-.517a.98.98 0 0 0-.577.013c-.421.126-.904.473-1.489 1.028" clip-rule="evenodd"/></svg>