<svg xmlns="http://www.w3.org/2000/svg" width="16" height="16" fill="none" class="persona-icon" viewBox="0 0 16 16"><path fill="currentColor" fill-rule="evenodd" d="M2 4.333A2.333 2.333 0 0 1 4.333 2h7.334A2.333 2.333 0 0 1 14 4.333v7.334A2.333 2.333 0 0 1 11.667 14H4.333A2.333 2.333 0 0 1 2 11.667zm1 1.723v5.61C3 12.404 3.597 13 4.333 13h7.334c.736 0 1.333-.597 1.333-1.333V6.056zm10-1v-.723C13 3.597 12.403 3 11.667 3H5.945v2.056zm-8.055 0V3h-.612C3.597 3 3 3.597 3 4.333v.723zm4.798 2.483a2.027 2.027 0 0 1 2.424 1.989.5.5 0 1 1-1 0 1.028 1.028 0 1 0-1.028 1.028.5.5 0 1 1 0 1 2.028 2.028 0 0 1-.396-4.017M6.778 7.5a.5.5 0 0 1 .5.5v3.056a.5.5 0 1 1-1 0V8a.5.5 0 0 1 .5-.5M4.945 8.722a.5.5 0 0 1 .5.5v1.834a.5.5 0 0 1-1 0V9.222a.5.5 0 0 1 .5-.5" clip-rule="evenodd"/></svg>