<svg xmlns="http://www.w3.org/2000/svg" width="24" height="24" fill="none" class="persona-icon" viewBox="0 0 24 24"><path fill="currentColor" fill-rule="evenodd" d="M3 6.5A3.5 3.5 0 0 1 6.5 3h11A3.5 3.5 0 0 1 21 6.5v11a3.5 3.5 0 0 1-3.5 3.5h-11A3.5 3.5 0 0 1 3 17.5zm4.417 1.083V4.5H6.5a2 2 0 0 0-2 2v1.083zM4.5 9.083V17.5a2 2 0 0 0 2 2h11a2 2 0 0 0 2-2V9.083zm15-1.5V6.5a2 2 0 0 0-2-2H8.917v3.083zm-12.083 5.5a.75.75 0 0 1 .75.75v2.75a.75.75 0 0 1-1.5 0v-2.75a.75.75 0 0 1 .75-.75m2.75-1.833a.75.75 0 0 1 .75.75v4.583a.75.75 0 0 1-1.5 0V12a.75.75 0 0 1 .75-.75m4.448.058a3.042 3.042 0 0 1 3.635 2.984.75.75 0 0 1-1.5 0 1.542 1.542 0 1 0-1.542 1.541.75.75 0 0 1 0 1.5 3.042 3.042 0 0 1-.593-6.025" clip-rule="evenodd"/></svg>