<svg xmlns="http://www.w3.org/2000/svg" width="32" height="32" fill="none" class="persona-icon" viewBox="0 0 32 32"><path fill="currentColor" fill-rule="evenodd" d="M4 8.667A4.667 4.667 0 0 1 8.667 4h14.666A4.667 4.667 0 0 1 28 8.667v14.666A4.667 4.667 0 0 1 23.333 28H8.667A4.667 4.667 0 0 1 4 23.333zm5.889 1.444V6H8.667A2.667 2.667 0 0 0 6 8.667v1.444zm-3.889 2v11.222A2.667 2.667 0 0 0 8.667 26h14.666A2.667 2.667 0 0 0 26 23.333V12.111zm3.889 5.334a1 1 0 0 0-1 1v3.666a1 1 0 0 0 2 0v-3.666a1 1 0 0 0-1-1M26 10.11V8.667A2.667 2.667 0 0 0 23.333 6H11.89v4.111zM13.556 15a1 1 0 0 0-1 1v6.111a1 1 0 1 0 2 0V16a1 1 0 0 0-1-1m5.93.078a4.056 4.056 0 0 0 .792 8.033 1 1 0 1 0 0-2 2.055 2.055 0 1 1 2.055-2.055 1 1 0 0 0 2 0 4.056 4.056 0 0 0-4.846-3.978" clip-rule="evenodd"/></svg>