<svg xmlns="http://www.w3.org/2000/svg" width="32" height="32" fill="none" class="persona-icon" viewBox="0 0 32 32"><path fill="currentColor" fill-rule="evenodd" d="M4 8.667A4.667 4.667 0 0 1 8.667 4h14.666A4.667 4.667 0 0 1 28 8.667v14.666A4.667 4.667 0 0 1 23.333 28H8.667A4.667 4.667 0 0 1 4 23.333zm2 3.444v11.222A2.667 2.667 0 0 0 8.667 26h14.666A2.667 2.667 0 0 0 26 23.333V12.111zm20-2V8.667A2.667 2.667 0 0 0 23.333 6H11.89v4.111zm-16.111 0V6H8.667A2.667 2.667 0 0 0 6 8.667v1.444zm9.598 4.967a4.056 4.056 0 0 1 4.846 3.978 1 1 0 0 1-2 0 2.055 2.055 0 1 0-2.055 2.055 1 1 0 1 1 0 2 4.055 4.055 0 0 1-.791-8.033M13.556 15a1 1 0 0 1 1 1v6.111a1 1 0 0 1-2 0V16a1 1 0 0 1 1-1m-3.667 2.445a1 1 0 0 1 1 1v3.666a1 1 0 0 1-2 0v-3.666a1 1 0 0 1 1-1" clip-rule="evenodd"/></svg>