<svg xmlns="http://www.w3.org/2000/svg" width="32" height="32" fill="none" class="persona-icon" viewBox="0 0 32 32"><path fill="currentColor" fill-rule="evenodd" d="M3.002 8.002a5 5 0 0 1 5-5h16a5 5 0 0 1 5 5v16a5 5 0 0 1-5 5h-16a5 5 0 0 1-5-5zm5-3a3 3 0 0 0-3 3v16a3 3 0 0 0 3 3h16a3 3 0 0 0 3-3v-16a3 3 0 0 0-3-3z" clip-rule="evenodd"/><path fill="currentColor" fill-rule="evenodd" d="M29.002 10.669a1 1 0 0 1-1 1h-24a1 1 0 1 1 0-2h24a1 1 0 0 1 1 1" clip-rule="evenodd"/><path fill="currentColor" fill-rule="evenodd" d="M12.336 10.669V4.002h2v6.667zM9.336 17.669a1 1 0 0 1 1 1v4a1 1 0 1 1-2 0v-4a1 1 0 0 1 1-1M13.336 15.002a1 1 0 0 1 1 1v6.667a1 1 0 1 1-2 0v-6.667a1 1 0 0 1 1-1M19.824 15.086a4.333 4.333 0 0 1 5.178 4.25 1 1 0 0 1-2 0 2.333 2.333 0 1 0-2.333 2.333 1 1 0 0 1 0 2 4.334 4.334 0 0 1-.846-8.583" clip-rule="evenodd"/></svg>