<svg xmlns="http://www.w3.org/2000/svg" width="150" height="150" fill="none" class="persona-ilustration" viewBox="0 0 150 150"><g clip-path="url(#7yHv3C4reO_a)"><g clip-path="url(#7yHv3C4reO_b)"><g clip-path="url(#7yHv3C4reO_c)"><rect width="125" height="125" x="12.501" y="12.5" fill="#D3EDFF" rx="62.5"/><path fill="#FFC509" d="M86.126 142.91c-4.865 3.535-28.75 2.641-34.045-10.847 5.577-14.027 16.143-52.526 39.335-48.445 8.182 1.44-2.415 44.743-5.29 59.292"/><mask id="7yHv3C4reO_d" width="106" height="145" x="56" y="74" maskUnits="userSpaceOnUse" style="mask-type:alpha"><path fill="#4C4C4C" d="M66.553 98.46s15.66-14.726 18.362-15.777c12.64-4.916 36.103-9.008 41.919-8.273 5.817.736 23.982 5.402 17.046 31.866-10.323 39.389 17.367 109.789 17.367 109.789s-74.589 4.683-98.834-.075c-3.691-26.422-3.193-38.57-6.014-79.068.02-26.643 10.154-38.463 10.154-38.463"/></mask><g mask="url(#7yHv3C4reO_d)"><path fill="#FFC509" d="M66.552 98.458s15.661-14.726 18.363-15.776c12.64-4.917 36.103-9.009 41.919-8.273 5.816.735 23.982 5.401 17.046 31.865-10.324 39.389 17.367 109.79 17.367 109.79s-66.495 4.518-90.74-.241c-3.692-26.421-5.188-36.887-8.009-77.384-3.643-30.624 4.054-39.981 4.054-39.981"/><path fill="#FF7300" fill-rule="evenodd" d="M115.57 76.256c1.278-1.99 2.578-3.95 4.112-5.82l1.16.95c-1.475 1.8-2.736 3.698-4.01 5.68l-.651 1.018c-1.062 1.662-2.159 3.38-3.405 5.112-3.018 4.197-6.92 8.494-13.468 12.586-4.309 2.694-7.615 3.557-10.145 2.933-2.584-.638-4.09-2.753-4.968-5.31-.877-2.557-1.186-5.718-1.284-8.77-.066-2.055-.036-4.114-.01-5.932.014-.875.025-1.694.025-2.43h1.5c0 .776-.012 1.618-.025 2.505-.026 1.798-.055 3.786.01 5.81.096 3.015.401 5.993 1.203 8.331.802 2.34 2.04 3.879 3.909 4.34 1.924.474 4.781-.118 8.99-2.749 6.353-3.97 10.118-8.12 13.046-12.19 1.219-1.695 2.29-3.372 3.352-5.034z" clip-rule="evenodd"/><path fill="#FFC509" d="M113.516 122.584c4.125 4.798 26.67 13.962 36.766 5.37 6.27-14.785-4.931-54.754-19.339-49.781-9.171 1.358-15.836 31.648-17.427 44.411"/><path fill="#FF7300" fill-rule="evenodd" d="M68.596 106.847a.46.46 0 0 0-.573.304l-.004.015c-2.062 6.719-6.057 19.732-2.773 46.797a.458.458 0 1 0 .91-.11c-3.26-26.873.694-39.755 2.73-46.391l.014-.042a.46.46 0 0 0-.304-.573M120.935 105.339a.456.456 0 0 0-.531.39c-1.172 6.931-3.441 20.352 3.331 46.761a.459.459 0 1 0 .888-.227c-6.724-26.222-4.477-39.509-3.32-46.353l.007-.043a.457.457 0 0 0-.375-.528" clip-rule="evenodd"/></g><mask id="7yHv3C4reO_e" width="30" height="65" x="84" y="42" maskUnits="userSpaceOnUse" style="mask-type:alpha"><path fill="#FFC7B6" d="M84.551 61.442s3.787 26.285 3.787 27.725c2.25 38.228 8.409 5.377 25.114-13.581-1.203-6.348-.432-7.46-3.559-26.908-3.127-19.45-25.348 12.762-25.348 12.762z"/></mask><g mask="url(#7yHv3C4reO_e)"><path fill="#F1AA90" d="M84.551 61.442s3.787 26.284 3.787 27.724c3.893 7.592 8.409 5.377 25.114-13.58-1.203-6.348-.432-7.46-3.559-26.909S84.545 61.44 84.545 61.44z"/><path fill="#000" fill-opacity=".5" d="M111.524 47.915s-.338 11.548-11.13 23.166c-17.098 12.951-25.691 4.836-25.691 4.836l31.713-32.97z" style="mix-blend-mode:overlay"/></g><path fill="#FFC7B6" d="m36.932 114.821-1.674-4.687v-8.438l5.826 6.496 1.406 6.227z"/><path fill="#FFC7B6" d="m36.932 114.821-1.674-4.687v-8.438l5.826 6.496 1.406 6.227z"/><path fill="#000" d="m36.932 114.821-1.674-4.687v-8.438l5.826 6.496 1.406 6.227z" opacity=".75" style="mix-blend-mode:overlay"/><path fill="#F1AA90" d="M116.836 142.976 76.033 92.399l-15.877 8.031c11.127 17.963 31.2 62.312 38.622 66.349 9.28 5.047 14.364.256 18.058-4.366 4.532-5.67 3.609-15.929 0-19.437"/><path fill="#EE9574" d="M67.477 104.045c-2.566.469-5.173 0-5.173 0l-3.378-5.022 16.733-3.33s.034 1.844-1.332 3.995c-1.753 2.761-3.805 3.802-6.85 4.357"/><mask id="7yHv3C4reO_f" width="11" height="21" x="44" y="75" maskUnits="userSpaceOnUse" style="mask-type:alpha"><path fill="#F1AA90" d="M47.348 75.58c1.853 0 2.94 5.966 3.739 8.827l3.66 4.734-.378 6.123h-3.724l-6.376-8.837v-6.572c-.042-.968 0-4.276 3.078-4.276"/></mask><g mask="url(#7yHv3C4reO_f)"><path fill="#F1AA90" d="M47.348 75.579c1.853 0 2.94 5.966 3.739 8.828l3.66 4.734-.378 6.122h-3.724l-6.376-8.836v-6.573c-.042-.968 0-4.275 3.078-4.275"/></g><mask id="7yHv3C4reO_g" width="16" height="20" x="46" y="55" maskUnits="userSpaceOnUse" style="mask-type:alpha"><path fill="#F1AA90" d="m52.183 66.882 1.704 7.89 7.259-2.778-2.399-7.132c-.61-1.157-2.865-4.33-7.006-7.764-3.268-2.71-4.47-1.299-4.78.41-.16.877.18 1.75.672 2.494z"/></mask><g mask="url(#7yHv3C4reO_g)"><path fill="#F1AA90" d="m52.183 66.882 1.704 7.89 7.259-2.778-2.399-7.132c-.61-1.157-2.865-4.33-7.006-7.764-3.268-2.71-4.47-1.299-4.78.41-.16.877.18 1.75.672 2.494z"/><path fill="#000" fill-opacity=".5" d="m50.082 67.577.507 8.056 7.592-1.662-1.307-7.41c-.43-1.236-2.186-4.71-5.768-8.724-2.827-3.168-4.227-1.952-4.788-.31-.288.845-.083 1.759.292 2.568z" style="mix-blend-mode:overlay"/></g><mask id="7yHv3C4reO_h" width="28" height="24" x="50" y="78" maskUnits="userSpaceOnUse" style="mask-type:alpha"><path fill="#F1AA90" d="M72.761 81.859c1.737 1.37 3.618 6.816 4.342 9.368.595 7.811-7.65 11.551-11.028 9.552-1.448 1.172-5.516 1.517-9.446-.552-4.028-2.12-4.846-3.406-6.024-5.005l4.229-16.663c5.252.528 16.19 1.929 17.927 3.3"/></mask><g mask="url(#7yHv3C4reO_h)"><path fill="#F1AA90" d="M72.761 81.859c1.737 1.37 3.618 6.816 4.342 9.368.595 7.811-7.65 11.551-11.028 9.552-1.448 1.172-5.516 1.517-9.446-.552-4.028-2.12-4.846-3.406-6.024-5.005l4.229-16.663c5.252.528 16.19 1.929 17.927 3.3"/><path fill="#000" fill-opacity=".5" d="M50.61 87.432c.898-2.191 2.095-4.324 3.16-6.343l10.598-2.751c2.902.801 7.015 3.955 6.571 5.23-2.2 6.334-4.368 8.502-5.134 12.838-2.452-3.889-5.527-3.624-5.966-4.725-1.359 1.365-3.618 1.762-4.816-1.394-1.514 1.625-3.704-1.954-4.412-2.856" style="mix-blend-mode:overlay"/></g><mask id="7yHv3C4reO_i" width="16" height="21" x="50" y="69" maskUnits="userSpaceOnUse" style="mask-type:alpha"><path fill="#F1AA90" d="M58.748 69.911c2.575.303 5.491 2.777 6.627 3.977-3.333 1.616-6.817 6.143-8.142 8.205-.253.989-.972 3.674-1.83 6.501-3.283 1.92-4.693-.084-4.987-1.325l.82-7.322c1.431-3.472 4.936-10.339 7.512-10.036"/></mask><g mask="url(#7yHv3C4reO_i)"><path fill="#F1AA90" d="M58.748 69.911c2.575.303 5.491 2.777 6.627 3.977-3.333 1.616-6.817 6.143-8.142 8.205-.253.989-.972 3.674-1.83 6.501-3.283 1.92-4.693-.084-4.987-1.325l.82-7.322c1.431-3.472 4.936-10.339 7.512-10.036"/><path fill="#000" fill-opacity=".5" d="M62.341 73.206c2.576.303 5.492 2.777 6.628 3.976-3.333 1.616-6.817 6.144-8.143 8.206a171 171 0 0 1-1.83 6.501c-3.282 1.919-4.692-.084-4.987-1.326l.821-7.321c1.43-3.472 4.936-10.34 7.511-10.037" style="mix-blend-mode:overlay"/></g><mask id="7yHv3C4reO_j" width="16" height="19" x="55" y="73" maskUnits="userSpaceOnUse" style="mask-type:alpha"><path fill="#F1AA90" d="M66.196 73.636c3.181.606 4.06 3.703 4.102 5.176l-7.51 4.418-2.21 6.186c-.715.757-2.424 2.146-3.535 1.64-1.11-.504-1.767-1.725-1.957-2.272l1.263-6.88 3.66-5.175c.737-1.284 3.005-3.7 6.187-3.093"/></mask><g mask="url(#7yHv3C4reO_j)"><path fill="#F1AA90" d="M66.196 73.636c3.181.606 4.06 3.703 4.102 5.176l-7.51 4.418-2.21 6.186c-.715.757-2.424 2.146-3.535 1.64-1.11-.504-1.767-1.725-1.957-2.272l1.263-6.88 3.66-5.175c.737-1.284 3.005-3.7 6.187-3.093"/><path fill="#F1AA90" d="M66.196 73.636c3.181.606 4.06 3.703 4.102 5.176l-7.51 4.418-2.21 6.186c-.715.757-2.424 2.146-3.535 1.64-1.11-.504-1.767-1.725-1.957-2.272l1.263-6.88 3.66-5.175c.737-1.284 3.005-3.7 6.187-3.093"/><path fill="#000" fill-opacity=".5" d="M70.441 77.374c2.897 1.448 3.76 2.184 3.802 3.657l-7.511 4.418-2.21 6.186c-.715.757-2.423 2.145-3.534 1.64-1.11-.504-1.767-1.725-1.957-2.272l1.768-7.492a2.5 2.5 0 0 1 .827-1.341l4.527-3.797c.736-1.283 3.289-1.499 4.288-1" style="mix-blend-mode:overlay"/></g><mask id="7yHv3C4reO_k" width="14" height="14" x="60" y="78" maskUnits="userSpaceOnUse" style="mask-type:alpha"><path fill="#F1AA90" d="m66.845 85.695 6.23-3.223c0-4.444-3.618-4.587-5.428-4.102l-5.34 4.237a1.96 1.96 0 0 0-.651.935c-.576 1.798-1.457 4.84-1.457 6.063 0 1.704.631 2.21 2.588 2.21 1.272 0 2.214-2.446 2.702-4.356.192-.75.668-1.408 1.356-1.764"/></mask><g mask="url(#7yHv3C4reO_k)"><path fill="#F1AA90" d="m66.845 85.695 6.23-3.223c0-4.444-3.618-4.587-5.428-4.102l-5.807 4.607c-.547 1.641-1.64 5.264-1.64 6.628 0 1.704.63 2.21 2.587 2.21 1.272 0 2.214-2.446 2.702-4.356.192-.75.668-1.408 1.356-1.764"/></g><path fill="#3F568E" d="m26.301 74.027-1.354 1.768 1.462-.774z"/><path fill="#3F568E" d="m42.199 73.32-15.409-.003a2 2 0 0 0-1.645.863l-.831 1.202 8.211 19.802 7.842 20.764 18.61 3.399.972-1.098a2 2 0 0 0 .37-2.04L44.533 74.927A2.5 2.5 0 0 0 42.2 73.32"/><path fill="#293A6E" d="m23.73 77.687 7.552 19.132 8.408 21.812 18.035 1.232a1.5 1.5 0 0 0 1.501-2.036L43.293 76.555a2.5 2.5 0 0 0-2.332-1.6l-15.37-.002a2 2 0 0 0-1.861 2.734"/><path fill="#202A55" d="M27.924 76.518h-1.58a1 1 0 0 0-.921 1.39l2.587 6.09a2 2 0 0 0 1.928 1.215l1.224-.053a1 1 0 0 0 .874-1.395L29.3 77.424a1.5 1.5 0 0 0-1.377-.906"/><mask id="7yHv3C4reO_l" width="20" height="52" x="30" y="118" maskUnits="userSpaceOnUse" style="mask-type:alpha"><path fill="#FFC7B6" d="m30.499 161.662 3.996-42.802 15.134 2.347c-1.303 13.316-1.478 39.578-1.942 41.976-.58 2.998-5.483 6.431-10.818 6.248-4.269-.147-6.026-5.241-6.37-7.769"/></mask><g mask="url(#7yHv3C4reO_l)"><path fill="#F1AA90" d="m30.499 161.662 3.901-45.675 15.229 5.22c-1.303 13.317-1.478 39.579-1.942 41.977-.58 2.997-5.483 6.43-10.818 6.247-4.269-.147-6.026-5.241-6.37-7.769"/><path fill="#000" d="M41.52 122.636c-2.137-.507-4.134-1.783-4.834-2.795l16.994-2.934-2.943 5.427c-1.773.609-5.75 1.124-9.217.302" opacity=".25" style="mix-blend-mode:overlay"/></g><mask id="7yHv3C4reO_m" width="20" height="8" x="35" y="115" maskUnits="userSpaceOnUse" style="mask-type:alpha"><path fill="#FFC7B6" d="m36.22 121.316 3.066 1.073c8.263.806 13.967-.896 15.445-2.187l-3.368-4.34c-4.423.11-13.644.455-15.141.959-1.498.503-.625 3.206-.002 4.495"/></mask><g mask="url(#7yHv3C4reO_m)"><path fill="#F1AA90" d="m36.81 120.013 5.09 1.311c8.263.806 11.243-.481 12.722-1.773l-4.511-.356c-4.423.11-12.392-2.878-13.89-2.375-1.497.504-.034 1.905.59 3.193"/><path fill="#000" fill-opacity=".5" d="m36.81 120.013 5.09 1.311c8.263.806 11.243-.481 12.722-1.773l-4.511-.356c-4.423.11-12.392-2.878-13.89-2.375-1.497.504-.034 1.905.59 3.193" style="mix-blend-mode:overlay"/></g><mask id="7yHv3C4reO_n" width="16" height="13" x="27" y="90" maskUnits="userSpaceOnUse" style="mask-type:alpha"><path fill="#F1AA90" d="M30.298 94.814c-1.574 1.487-3.16 3.28-3.16 3.28-.732 2.5 2.134 4.292 3.334 4.42l3.622-4.018 6.758-4.492c.39-.222 1.566-1.588 1.066-2.497-.904-1.645-3.969-.355-4.395-.182 0 0-5.046 1.43-7.225 3.489"/></mask><g mask="url(#7yHv3C4reO_n)"><path fill="#F1AA90" d="M30.298 94.814c-1.574 1.487-3.16 3.281-3.16 3.281-.732 2.5 2.134 4.291 3.334 4.42l3.622-4.019 6.758-4.492c.39-.221 1.566-1.587 1.066-2.497-.904-1.645-3.969-.354-4.395-.181 0 0-5.046 1.43-7.225 3.488"/><path fill="#000" d="M33.856 97.4c-4.932 2.493-6.482 4.004-6.482 4.004-.733 2.499 5.007 3.475 6.207 3.603l3.622-4.019 6.782-5.212c.39-.221 1.6-1.61.88-2.368s-3.695-.173-4.122 0c0 0-4.09 2.579-6.887 3.993" opacity=".25" style="mix-blend-mode:overlay"/></g><mask id="7yHv3C4reO_o" width="14" height="7" x="26" y="102" maskUnits="userSpaceOnUse" style="mask-type:alpha"><path fill="#FFC7B6" d="M34.627 108.621c-5.11 1.507-7.405-2.012-7.913-3.961l8.062-1.678 4.076 4.408c.615-.172.396-.095.021.024l-.021-.024c-.557.156-1.798.515-4.225 1.231"/></mask><g mask="url(#7yHv3C4reO_o)"><path fill="#FFC7B6" d="M34.627 108.621c-5.11 1.507-7.405-2.012-7.913-3.961l8.062-1.678 4.076 4.408c.615-.172.396-.095.021.024l-.021-.024c-.557.156-1.798.515-4.225 1.231"/><path fill="#000" fill-opacity=".5" d="M34.844 108.868c-5.11 1.507-7.404-2.013-7.913-3.961l8.062-1.678 4.076 4.408c.616-.172.396-.095.022.023l-.022-.023c-.557.155-1.797.515-4.225 1.231" style="mix-blend-mode:overlay"/></g><mask id="7yHv3C4reO_p" width="22" height="15" x="26" y="93" maskUnits="userSpaceOnUse" style="mask-type:alpha"><path fill="#FFC7B6" d="M26.57 104.008c-.64-2.521 10.482-7.8 16.123-10.124 2.603-1.117 3.625-.423 4.474.62.68.833-1.712 2.896-2.993 3.823-3.854 2.83-11.892 8.557-13.209 8.823-1.646.333-3.595.009-4.395-3.142"/></mask><g mask="url(#7yHv3C4reO_p)"><path fill="#F1AA90" d="M26.57 104.008c-.64-2.521 10.482-7.8 16.123-10.124 2.603-1.116 3.625-.423 4.474.62.68.833-1.712 2.896-2.993 3.824-3.854 2.83-11.892 8.556-13.209 8.823-1.646.333-3.595.008-4.395-3.143"/><path fill="#000" d="M31.115 107.701c2.3-3.117 13.64-10.115 16.566-13.598 2.455-1.345 1.767 1.347 2.763 2.293.796.757-1.316 3.015-2.472 4.049-3.471 3.151-10.736 9.549-12.019 9.936-1.604.483-3.602.348-4.838-2.68" opacity=".25" style="mix-blend-mode:overlay"/></g><mask id="7yHv3C4reO_q" width="19" height="16" x="29" y="100" maskUnits="userSpaceOnUse" style="mask-type:alpha"><path fill="#F1AA90" d="M43.708 100.325c-2.43.55-9.965 4.572-13.082 6.283-1.335.721-1.482 1.776-1.39 2.213l1.446 6.38 7.29-1.113-1.98-3.714c2.567-1.92 7.966-5.907 9.016-6.492 1.313-.73 2.161-1.241 2.161-2.549 0-.992-.425-1.697-3.461-1.008"/></mask><g mask="url(#7yHv3C4reO_q)"><path fill="#F1AA90" d="M43.708 100.325c-2.43.55-9.965 4.572-13.082 6.283-1.335.721-1.482 1.776-1.39 2.213l3.136 6.332 5.6-1.065-1.98-3.714c2.567-1.92 7.966-5.907 9.016-6.492 1.313-.73 2.161-1.241 2.161-2.549 0-.992-.425-1.697-3.461-1.008"/><path fill="#000" d="M46.003 103.702c-1.859.416-6.375 3.512-8.766 4.78-1.854 1.28-2.324 1.557-2.916 1.978l.278 3.429c3.162-.866 5.985-2.033 7.936-.863l-1.952-2.271c1.974-1.419 6.122-4.364 6.928-4.797 1.007-.541 2.006-1.223 1.666-1.877s-.85-.898-3.174-.379" opacity=".25" style="mix-blend-mode:overlay"/></g><mask id="7yHv3C4reO_r" width="14" height="11" x="32" y="111" maskUnits="userSpaceOnUse" style="mask-type:alpha"><path fill="#F1AA90" d="M35.247 119.786c-1.016-.503-3.002-1.801-3.137-4.867 1.053-1.745 2.771-2.775 4.143-3.037 5.213 1.92 5.501 3.232 2.59 5.958 3.806-2.061 5.548 3.352 6.284 3.706-4.651.271-8.47-1.406-9.88-1.76"/></mask><g mask="url(#7yHv3C4reO_r)"><path fill="#F1AA90" d="M35.247 119.786c-1.017-.503-3.003-1.801-3.137-4.867 1.052-1.745 2.77-2.775 4.142-3.037 5.213 1.92 5.502 3.232 2.59 5.958 3.806-2.061 5.549 3.352 6.284 3.706-4.65.271-8.47-1.406-9.88-1.76"/><path fill="#000" d="M36.837 118.613c-1.017-.502-3.003-1.8-3.137-4.867 1.052-1.745 2.77-2.774 4.142-3.037 5.213 1.921 5.502 3.232 2.59 5.958 1.958-.152 5.809-1.725 6.545-1.372-5.535 4.217-8.73 3.672-10.14 3.318" opacity=".25" style="mix-blend-mode:overlay"/></g><mask id="7yHv3C4reO_s" width="16" height="13" x="32" y="105" maskUnits="userSpaceOnUse" style="mask-type:alpha"><path fill="#FFC7B6" d="m36.538 117.996 6.037-4.206c3.12-2.928 5.98-4.955 4.889-7.047-1.09-2.092-2.066-1.164-2.54-.957l-10.181 5.09c-.907.096-2.604.891-2.144 3.298s2.817 3.551 3.939 3.822"/></mask><g mask="url(#7yHv3C4reO_s)"><path fill="#F1AA90" d="m36.538 117.997 6.037-4.206c3.12-2.928 5.98-4.955 4.889-7.047-1.09-2.092-2.066-1.164-2.54-.957l-10.181 5.09c-.907.096-2.604.891-2.144 3.298s2.817 3.551 3.939 3.822"/><path fill="#000" d="m40.962 121.578 4.915-5.428c2.385-3.559 4.706-6.165 3.23-8.039-1.474-1.874-2.218-.749-2.628-.446l-6.327 6.516c-.848.28-3.024 2.176-3.522 3.658.936 2.317 3.202 3.694 4.332 3.739" opacity=".25" style="mix-blend-mode:overlay"/></g></g><path fill="#F1AA90" d="M119.564 33.694s-.789 3.502-2.113 9.677c-1.695 7.87-3.888-2.653-7.638 10.208S91.099 72.384 86.081 74.113c-10.103 1.94-11.676 1.563-13.811-.858-3.853-7.876-9.156-14.462-9.262-19.141-.244-10.692 1.713-17.102 3.144-23.827 3.18-14.945 9.082-15.872 15.072-18.247 5.991-2.376 38.512-1.597 38.322 21.66l.003-.017z"/><path fill="#000" fill-opacity=".5" d="M70.758 49.431c.544-.3 1.677-.854 2.464-.599 1.917.627 3.06.94 3.148 1.874.076.803-2.596 1.557-4.472.465-.422-.193-2.405-1.042-1.14-1.74" style="mix-blend-mode:overlay"/><path fill="#411917" fill-rule="evenodd" d="M75.405 39.039a.44.44 0 0 1 .412.467l-.44-.027.44.027v.016l-.018.188q-.019.194-.07.548c-.071.469-.196 1.136-.412 1.94a20.2 20.2 0 0 1-2.696 5.948c-.348.52-.498.937-.53 1.262-.029.314.05.56.206.766.335.444 1.082.77 2.129.909a.44.44 0 0 1-.116.874c-1.104-.146-2.16-.514-2.716-1.252a1.93 1.93 0 0 1-.38-1.38q.076-.777.674-1.669a19.3 19.3 0 0 0 2.578-5.687c.207-.767.325-1.402.391-1.843a11 11 0 0 0 .078-.636l.002-.03v-.008a.44.44 0 0 1 .468-.413" clip-rule="evenodd"/><path fill="#F1AA90" d="M112.311 44.61s7.736-4.682 7.718 1.124c-.019 5.814-5.402 15.579-8.055 12.876-2.654-2.696-2.282-5.612-2.282-5.612z"/><path fill="#000" fill-opacity=".5" d="M115.384 54.131s1.73-2.206 1.84-5.798c.586-2.965-2.231-2.41-2.168-1.725.745 7.467-.995 8.48-.995 8.48" style="mix-blend-mode:overlay"/><path fill="#411917" fill-rule="evenodd" d="M112.272 54.819c-.378-.565-.645-1.434-.797-2.632a.442.442 0 0 1 .874-.111c.146 1.148.39 1.856.655 2.252.13.194.254.298.361.353a.55.55 0 0 0 .337.052c.27-.037.625-.242 1.026-.657.392-.404.783-.963 1.129-1.61.697-1.3 1.169-2.871 1.14-4.108-.014-.617-.153-1.106-.402-1.442-.238-.32-.61-.547-1.21-.588a.441.441 0 1 1 .06-.879c.824.056 1.447.39 1.857.941.398.535.559 1.227.576 1.947.034 1.436-.502 3.16-1.244 4.546-.373.697-.809 1.328-1.272 1.806-.453.468-.98.84-1.539.917-.29.04-.582 0-.857-.14a1.86 1.86 0 0 1-.694-.647" clip-rule="evenodd"/><path fill="#411917" fill-rule="evenodd" d="M113.873 50.464v-.001l.004-.014.019-.06a2.983 2.983 0 0 1 .435-.865c.162-.217.354-.394.579-.493.215-.094.49-.132.856-.02a.44.44 0 1 0 .255-.844c-.557-.169-1.049-.126-1.466.058-.408.18-.711.479-.931.773a3.8 3.8 0 0 0-.463.835 4 4 0 0 0-.105.287l-.026.086-.007.025-.002.008-.001.003s0 .002.427.112l-.427-.11a.44.44 0 0 0 .853.22m0 0" clip-rule="evenodd"/><path fill="#411917" fill-rule="evenodd" d="m113.729 50.81.001-.001.013-.004a3 3 0 0 1 .295-.066c.2-.035.463-.063.732-.041.27.021.522.09.725.227.193.131.369.343.468.71a.44.44 0 0 0 .851-.229c-.151-.561-.448-.955-.825-1.21-.368-.25-.783-.347-1.149-.377a3.9 3.9 0 0 0-1.253.116l-.087.023-.025.007-.007.003h-.004s-.001.001.132.421l-.133-.42a.44.44 0 0 0 .266.84h-.001M85.335 57.19a.515.515 0 0 1 .175.707c-1.062 1.76-2.795 2.874-4.48 3.556-1.687.683-3.379.954-4.44.993a.515.515 0 1 1-.038-1.028c.952-.036 2.525-.285 4.092-.92 1.569-.634 3.08-1.633 3.985-3.133a.515.515 0 0 1 .706-.175" clip-rule="evenodd"/><path fill="#411917" d="M90.636 35.44s-4.175-2.362-7.36-2.27c-4.232.124-4.757 1.495-4.757 1.495s-1.249-.122-.156-2.075c2.132-2.107 6.103-1.088 6.103-1.088s3.255.835 4.836 2.127c.996.74 2.017 1.951 2.017 1.951s-.122.455-.682-.149zM81.392 43.09c-1.011-.237-1.57-1.559-1.24-2.96.322-1.393 1.413-2.333 2.424-2.096 1.012.236 1.571 1.559 1.24 2.96-.322 1.392-1.413 2.333-2.424 2.096"/><path fill="#411917" fill-rule="evenodd" d="M78.683 40.085a.44.44 0 0 1-.801-.367l.401.182-.4-.182v-.004l.004-.005.032-.063q.03-.059.09-.153c.082-.126.205-.293.381-.48.354-.375.919-.824 1.777-1.163 1.717-.678 4.55-.898 9.131.662a.44.44 0 0 1-.284.834c-4.461-1.519-7.065-1.252-8.523-.676-.73.288-1.188.66-1.46.948a2.5 2.5 0 0 0-.337.447l-.01.019z" clip-rule="evenodd"/><path fill="#411917" d="M66.568 35.886s1.68-1.791 4.854-1.912c2.779-.106 3.16.672 3.16.672s1.032-1.329-.195-2.343c-.342-.401-1.052-.598-2.898-.26-1.598.292-4.234 1.64-4.902 3.266 0 0-.279.466-.019.56zM68.4 41.149c.146-1.425.949-2.515 1.792-2.429s1.407 1.315 1.26 2.74c-.146 1.425-.949 2.515-1.792 2.429s-1.407-1.315-1.26-2.74"/><path fill="#411917" fill-rule="evenodd" d="m73.436 40.03-.408.166za.44.44 0 0 1-.815.335m0 0a1 1 0 0 0-.041-.081 1.923 1.923 0 0 0-.948-.827c-.724-.293-2.08-.337-4.419 1.248a.44.44 0 1 1-.494-.73c2.46-1.667 4.135-1.783 5.243-1.335a2.8 2.8 0 0 1 1.387 1.214 2 2 0 0 1 .079.156l.005.013.002.004v.002" clip-rule="evenodd"/><path fill="#411917" d="M101.757 26.263c-.312-1.18-.798-1.317-1.431-3.774 0 1.12-5.911 2.454-11.343 2.454-8.707 0-18.095-2.06-20.94 2.476-2.276 3.628-2.637 6.107-3.743 11.505-2.188-2.526-6.56-4.006-3.153-11.16-3.832-8.941 5.96-19.202 9.976-21.928 6.713-4.556 30.696-9.535 38.678 6.077 4.471-4.258 9.224-.992 12.839 5.836 2.837 5.357 5.1 10.668 3.21 23.398-1.269 8.54-5.258 11.737-8.003 12.638.662-2.317 7.231-14.088-6.897-9.5-7.151 2.322-5.848-5.36-9.193-18.022"/><path fill="#FFB26F" d="M43.045 15.154c-.24-1.252-1.47-2.266-2.744-2.266H4.866c-1.274 0-2.112 1.014-1.872 2.266l2.294 11.924c.241 1.252 1.47 2.267 2.744 2.267h35.435c1.275 0 2.113-1.015 1.872-2.267z"/><path fill="#4C39B0" d="M29.54 21.185c.582 3.03 3.556 5.486 6.641 5.486s5.114-2.456 4.53-5.486c-.582-3.03-3.556-5.486-6.64-5.486-3.086 0-5.115 2.456-4.532 5.486"/><path fill="#F8F8F8" d="M35.29 21.745c-1.228 0-2.411-.978-2.643-2.184-.232-1.205.575-2.183 1.803-2.183s2.411.978 2.643 2.183c.232 1.206-.575 2.184-1.803 2.184M35.428 22.752c1.865 0 3.633.883 4.533 2.134-.81 1.097-2.147 1.785-3.78 1.785s-3.234-.688-4.466-1.784c.418-1.252 1.846-2.135 3.713-2.135"/><path fill="#CC6E08" d="M24.754 21.026c-.145-.751-.884-1.372-1.65-1.372H9.248c-.764 0-1.265.62-1.12 1.372.144.75.883 1.371 1.648 1.371h13.858c.764 0 1.265-.62 1.12-1.371"/><path fill="#0090D5" d="M46.81 34.724c-.241-1.252-1.47-2.267-2.745-2.267H8.632c-1.275 0-2.113 1.015-1.872 2.267l2.294 11.924c.24 1.251 1.47 2.266 2.744 2.266h35.435c1.274 0 2.112-1.015 1.872-2.266z"/><path fill="#004380" d="M33.304 40.754c.583 3.03 3.556 5.486 6.642 5.486 3.085 0 5.113-2.456 4.53-5.486-.582-3.03-3.556-5.485-6.641-5.485s-5.114 2.456-4.531 5.485"/><path fill="#F8F8F8" d="M39.055 41.314c-1.228 0-2.411-.977-2.643-2.183s.575-2.183 1.803-2.183 2.411.977 2.643 2.183-.575 2.183-1.803 2.183M39.193 42.322c1.865 0 3.632.882 4.533 2.133-.81 1.097-2.147 1.785-3.78 1.785s-3.234-.688-4.466-1.784c.419-1.251 1.847-2.134 3.713-2.134"/><path fill="#DFF1FA" d="M28.518 40.595c-.144-.751-.884-1.371-1.648-1.371H13.012c-.765 0-1.265.62-1.121 1.371.145.751.884 1.372 1.649 1.372h13.857c.765 0 1.266-.62 1.121-1.372"/><path fill="#EFEFEF" d="M50.575 54.292c-.241-1.252-1.47-2.267-2.744-2.267H12.396c-1.275 0-2.113 1.015-1.872 2.267l2.294 11.924c.241 1.252 1.47 2.266 2.744 2.266h35.435c1.275 0 2.113-1.014 1.872-2.266z"/><path fill="#8E8E8E" d="M37.07 60.323c.582 3.03 3.556 5.485 6.64 5.485 3.086 0 5.115-2.456 4.532-5.485s-3.557-5.486-6.642-5.486-5.114 2.456-4.53 5.486M32.283 60.163c-.144-.75-.884-1.371-1.648-1.371H16.777c-.765 0-1.265.62-1.12 1.371s.883 1.372 1.648 1.372h13.857c.765 0 1.266-.62 1.121-1.372"/></g></g><defs><clipPath id="7yHv3C4reO_a"><path fill="#fff" d="M0 0h150v150H0z"/></clipPath><clipPath id="7yHv3C4reO_b"><path fill="#fff" d="M0 0h150v150H0z"/></clipPath><clipPath id="7yHv3C4reO_c"><rect width="125" height="125" x="12.501" y="12.5" fill="#fff" rx="62.5"/></clipPath></defs></svg>