<svg xmlns="http://www.w3.org/2000/svg" width="240" height="240" fill="none" class="persona-ilustration" viewBox="0 0 240 240"><g clip-path="url(#fYJJ9EiK8s_a)"><g clip-path="url(#fYJJ9EiK8s_b)"><g clip-path="url(#fYJJ9EiK8s_c)"><rect width="200" height="200" x="20" y="20" fill="#D3EDFF" rx="100"/><path fill="#FFC509" d="M137.802 228.657c-7.784 5.656-46 4.225-54.472-17.356 8.922-22.443 25.828-84.042 62.936-77.513 13.091 2.304-3.865 71.591-8.464 94.869"/><mask id="fYJJ9EiK8s_d" width="168" height="231" x="90" y="118" maskUnits="userSpaceOnUse" style="mask-type:alpha"><path fill="#4C4C4C" d="M106.484 157.535s25.058-23.561 29.38-25.242c20.224-7.866 57.765-14.413 67.071-13.237s38.371 8.643 27.273 50.986c-16.518 63.021 27.787 175.662 27.787 175.662s-119.342 7.493-158.134-.12c-5.907-42.275-5.11-61.712-9.622-126.508.032-42.63 16.245-61.541 16.245-61.541"/></mask><g mask="url(#fYJJ9EiK8s_d)"><path fill="#FFC509" d="M106.484 157.533s25.058-23.561 29.38-25.242c20.224-7.866 57.765-14.414 67.071-13.237s38.371 8.643 27.273 50.985c-16.518 63.022 27.787 175.663 27.787 175.663s-106.391 7.229-145.183-.385c-5.907-42.274-8.302-59.019-12.814-123.815-5.83-48.998 6.486-63.969 6.486-63.969"/><path fill="#FF7300" fill-rule="evenodd" d="M184.913 122.009c2.044-3.183 4.124-6.318 6.578-9.311l1.856 1.521c-2.36 2.879-4.377 5.915-6.415 9.088q-.519.807-1.042 1.627c-1.699 2.66-3.455 5.409-5.448 8.18-4.829 6.714-11.072 13.59-21.548 20.137-6.895 4.31-12.185 5.692-16.232 4.693-4.136-1.021-6.546-4.404-7.949-8.495-1.404-4.092-1.898-9.15-2.055-14.032-.105-3.289-.057-6.584-.015-9.492.02-1.4.039-2.711.039-3.888h2.4c0 1.242-.019 2.588-.04 4.008-.042 2.877-.089 6.058.015 9.295.155 4.825.643 9.589 1.926 13.33 1.283 3.743 3.264 6.206 6.254 6.944 3.078.76 7.65-.189 14.385-4.398 10.164-6.352 16.188-12.992 20.872-19.504 1.951-2.712 3.665-5.395 5.363-8.054q.527-.826 1.056-1.649" clip-rule="evenodd"/><path fill="#FFC509" d="M181.625 196.136c6.601 7.675 42.672 22.339 58.825 8.59 10.034-23.655-7.889-87.605-30.942-79.649-14.673 2.172-25.337 50.637-27.883 71.059"/><path fill="#FF7300" fill-rule="evenodd" d="M109.753 170.956a.733.733 0 0 0-.916.486l-.007.023c-3.3 10.752-9.69 31.572-4.437 74.877a.734.734 0 0 0 1.456-.177c-5.216-42.996 1.111-63.608 4.37-74.225l.02-.068a.733.733 0 0 0-.486-.916M193.496 168.542a.733.733 0 0 0-.85.624c-1.875 11.09-5.506 32.563 5.33 74.819a.733.733 0 1 0 1.42-.365c-10.758-41.954-7.163-63.213-5.311-74.164l.011-.069a.73.73 0 0 0-.6-.845" clip-rule="evenodd"/></g><mask id="fYJJ9EiK8s_e" width="47" height="104" x="135" y="67" maskUnits="userSpaceOnUse" style="mask-type:alpha"><path fill="#FFC7B6" d="M135.281 98.308s6.06 42.055 6.06 44.359c3.598 61.165 13.453 8.604 40.182-21.729-1.924-10.156-.691-11.934-5.695-43.053-5.003-31.119-40.557 20.42-40.557 20.42z"/></mask><g mask="url(#fYJJ9EiK8s_e)"><path fill="#F1AA90" d="M135.281 98.307s6.06 42.055 6.06 44.359c6.227 12.148 13.453 8.604 40.182-21.729-1.924-10.156-.691-11.934-5.695-43.053-5.003-31.119-40.557 20.42-40.557 20.42z"/><path fill="#000" fill-opacity=".5" d="M178.437 76.665s-.54 18.476-17.808 37.065c-27.357 20.722-41.106 7.738-41.106 7.738l50.741-52.752z" style="mix-blend-mode:overlay"/></g><path fill="#FFC7B6" d="m59.091 183.714-2.678-7.5v-13.5l9.32 10.393 2.25 9.964z"/><path fill="#FFC7B6" d="m59.091 183.714-2.678-7.5v-13.5l9.32 10.393 2.25 9.964z"/><path fill="#000" d="m59.091 183.714-2.678-7.5v-13.5l9.32 10.393 2.25 9.964z" opacity=".75" style="mix-blend-mode:overlay"/><path fill="#F1AA90" d="m186.938 228.762-65.285-80.922-25.404 12.849c17.803 28.741 49.919 99.7 61.796 106.159 14.847 8.074 22.982.409 28.893-6.987 7.251-9.072 5.773-25.486 0-31.099"/><path fill="#EE9574" d="M107.963 166.473c-4.106.749-8.277 0-8.277 0l-5.404-8.036 26.772-5.329s.055 2.952-2.131 6.394c-2.805 4.417-6.089 6.082-10.96 6.971"/><mask id="fYJJ9EiK8s_f" width="18" height="33" x="70" y="120" maskUnits="userSpaceOnUse" style="mask-type:alpha"><path fill="#F1AA90" d="M75.756 120.926c2.966 0 4.703 9.547 5.982 14.125l5.858 7.575-.606 9.796H81.03l-10.2-14.139v-10.515c-.068-1.549 0-6.842 4.925-6.842"/></mask><g mask="url(#fYJJ9EiK8s_f)"><path fill="#F1AA90" d="M75.756 120.925c2.966 0 4.703 9.547 5.982 14.125l5.858 7.575-.606 9.796H81.03l-10.2-14.139v-10.515c-.068-1.549 0-6.842 4.925-6.842"/></g><mask id="fYJJ9EiK8s_g" width="23" height="32" x="75" y="88" maskUnits="userSpaceOnUse" style="mask-type:alpha"><path fill="#F1AA90" d="m83.493 107.011 2.727 12.623 11.613-4.443-3.837-11.412c-.977-1.851-4.585-6.928-11.21-12.422-5.23-4.337-7.154-2.078-7.65.655-.254 1.405.289 2.8 1.077 3.992z"/></mask><g mask="url(#fYJJ9EiK8s_g)"><path fill="#F1AA90" d="m83.493 107.011 2.727 12.623 11.613-4.443-3.837-11.412c-.977-1.851-4.585-6.928-11.21-12.422-5.23-4.337-7.154-2.078-7.65.655-.254 1.405.289 2.8 1.077 3.992z"/><path fill="#000" fill-opacity=".5" d="m80.131 108.123.81 12.889 12.148-2.658-2.09-11.858c-.69-1.976-3.499-7.534-9.23-13.956-4.523-5.07-6.762-3.124-7.66-.496-.462 1.352-.134 2.813.467 4.108z" style="mix-blend-mode:overlay"/></g><mask id="fYJJ9EiK8s_h" width="44" height="38" x="80" y="125" maskUnits="userSpaceOnUse" style="mask-type:alpha"><path fill="#F1AA90" d="M116.418 130.974c2.778 2.194 5.788 10.907 6.946 14.989.953 12.499-12.238 18.483-17.644 15.284-2.316 1.875-8.825 2.427-15.114-.883-6.444-3.392-7.753-5.45-9.638-8.008l6.766-26.662c8.404.846 25.905 3.087 28.684 5.28"/></mask><g mask="url(#fYJJ9EiK8s_h)"><path fill="#F1AA90" d="M116.418 130.974c2.778 2.194 5.788 10.907 6.946 14.989.953 12.499-12.238 18.483-17.644 15.284-2.316 1.875-8.825 2.427-15.114-.883-6.444-3.392-7.753-5.45-9.638-8.008l6.766-26.662c8.404.846 25.905 3.087 28.684 5.28"/><path fill="#000" fill-opacity=".5" d="M80.977 139.891c1.436-3.505 3.35-6.917 5.054-10.147l16.957-4.403c4.643 1.283 11.224 6.328 10.515 8.369-3.521 10.133-6.99 13.602-8.215 20.54-3.923-6.222-8.844-5.797-9.546-7.559-2.174 2.183-5.79 2.818-7.706-2.23-2.421 2.599-5.925-3.127-7.059-4.57" style="mix-blend-mode:overlay"/></g><mask id="fYJJ9EiK8s_i" width="25" height="33" x="80" y="111" maskUnits="userSpaceOnUse" style="mask-type:alpha"><path fill="#F1AA90" d="M93.996 111.859c4.12.485 8.786 4.444 10.604 6.362-5.332 2.586-10.907 9.83-13.028 13.129a273 273 0 0 1-2.929 10.402c-5.252 3.07-7.507-.134-7.978-2.121l1.313-11.715c2.289-5.554 7.897-16.542 12.018-16.057"/></mask><g mask="url(#fYJJ9EiK8s_i)"><path fill="#F1AA90" d="M93.996 111.859c4.12.485 8.786 4.444 10.604 6.362-5.332 2.586-10.907 9.83-13.028 13.129a273 273 0 0 1-2.929 10.402c-5.252 3.07-7.507-.134-7.978-2.121l1.313-11.715c2.289-5.554 7.897-16.542 12.018-16.057"/><path fill="#000" fill-opacity=".5" d="M99.746 117.13c4.121.485 8.786 4.444 10.604 6.362-5.332 2.586-10.907 9.83-13.028 13.129a273 273 0 0 1-2.929 10.402c-5.252 3.07-7.507-.134-7.978-2.121l1.313-11.715c2.289-5.554 7.897-16.542 12.018-16.057" style="mix-blend-mode:overlay"/></g><mask id="fYJJ9EiK8s_j" width="25" height="29" x="88" y="117" maskUnits="userSpaceOnUse" style="mask-type:alpha"><path fill="#F1AA90" d="M105.913 117.817c5.091.97 6.497 5.925 6.564 8.282l-12.018 7.069-3.534 9.897c-1.145 1.212-3.879 3.434-5.656 2.626s-2.828-2.761-3.13-3.636l2.02-11.008 5.857-8.281c1.178-2.054 4.807-5.918 9.897-4.949"/></mask><g mask="url(#fYJJ9EiK8s_j)"><path fill="#F1AA90" d="M105.913 117.817c5.091.97 6.497 5.925 6.564 8.282l-12.018 7.069-3.534 9.897c-1.145 1.212-3.879 3.434-5.656 2.626s-2.828-2.761-3.13-3.636l2.02-11.008 5.857-8.281c1.178-2.054 4.807-5.918 9.897-4.949"/><path fill="#F1AA90" d="M105.913 117.817c5.091.97 6.497 5.925 6.564 8.282l-12.018 7.069-3.534 9.897c-1.145 1.212-3.879 3.434-5.656 2.626s-2.828-2.761-3.13-3.636l2.02-11.008 5.857-8.281c1.178-2.054 4.807-5.918 9.897-4.949"/><path fill="#000" fill-opacity=".5" d="M112.706 123.798c4.635 2.317 6.016 3.495 6.083 5.851l-12.018 7.069-3.534 9.897c-1.145 1.212-3.878 3.434-5.656 2.626s-2.828-2.76-3.13-3.636l2.828-11.987a4 4 0 0 1 1.322-2.146l7.243-6.075c1.179-2.053 5.263-2.398 6.862-1.599" style="mix-blend-mode:overlay"/></g><mask id="fYJJ9EiK8s_k" width="21" height="22" x="96" y="125" maskUnits="userSpaceOnUse" style="mask-type:alpha"><path fill="#F1AA90" d="m106.952 137.112 9.969-5.157c0-7.11-5.79-7.338-8.686-6.564l-8.545 6.781a3.13 3.13 0 0 0-1.04 1.495c-.923 2.877-2.332 7.744-2.332 9.701 0 2.726 1.01 3.534 4.141 3.534 2.035 0 3.541-3.912 4.324-6.967.307-1.201 1.068-2.253 2.169-2.823"/></mask><g mask="url(#fYJJ9EiK8s_k)"><path fill="#F1AA90" d="m106.952 137.112 9.969-5.157c0-7.11-5.79-7.338-8.686-6.564l-9.29 7.373c-.876 2.625-2.627 8.422-2.627 10.604 0 2.726 1.01 3.534 4.141 3.534 2.035 0 3.541-3.912 4.324-6.967.307-1.201 1.068-2.253 2.169-2.823"/></g><path fill="#3F568E" d="m42.08 118.443-2.166 2.829 2.34-1.239z"/><path fill="#3F568E" d="m67.517 117.312-24.653-.004a3.2 3.2 0 0 0-2.633 1.38l-1.33 1.923 13.138 31.683 12.547 33.222 29.777 5.438 1.554-1.756a3.2 3.2 0 0 0 .592-3.263l-25.257-66.051a4 4 0 0 0-3.735-2.572"/><path fill="#293A6E" d="M37.967 124.299 50.05 154.91l13.453 34.898 28.856 1.973c1.752.12 3.035-1.62 2.402-3.259l-25.493-66.034a4 4 0 0 0-3.731-2.56l-24.593-.004c-2.258-.001-3.806 2.275-2.977 4.375"/><path fill="#202A55" d="m44.677 122.428-2.528-.001a1.6 1.6 0 0 0-1.473 2.226l4.138 9.742a3.2 3.2 0 0 0 3.086 1.946l1.958-.086a1.6 1.6 0 0 0 1.399-2.232l-4.377-10.146a2.4 2.4 0 0 0-2.203-1.449"/><mask id="fYJJ9EiK8s_l" width="32" height="82" x="48" y="190" maskUnits="userSpaceOnUse" style="mask-type:alpha"><path fill="#FFC7B6" d="m48.797 258.659 6.394-68.482 24.214 3.754c-2.084 21.307-2.364 63.326-3.106 67.163-.927 4.795-8.774 10.289-17.31 9.995-6.83-.235-9.64-8.385-10.192-12.43"/></mask><g mask="url(#fYJJ9EiK8s_l)"><path fill="#F1AA90" d="m48.797 258.659 6.242-73.079 24.366 8.352c-2.084 21.306-2.364 63.325-3.106 67.162-.927 4.796-8.774 10.289-17.31 9.996-6.83-.235-9.64-8.385-10.192-12.431"/><path fill="#000" d="M66.432 196.218c-3.42-.811-6.615-2.853-7.734-4.473l27.189-4.693-4.708 8.683c-2.837.975-9.202 1.798-14.747.483" opacity=".25" style="mix-blend-mode:overlay"/></g><mask id="fYJJ9EiK8s_m" width="32" height="12" x="56" y="185" maskUnits="userSpaceOnUse" style="mask-type:alpha"><path fill="#FFC7B6" d="m57.952 194.104 4.905 1.718c13.221 1.29 22.346-1.433 24.712-3.5l-5.39-6.943c-7.076.175-21.829.728-24.225 1.533s-1 5.13-.002 7.192"/></mask><g mask="url(#fYJJ9EiK8s_m)"><path fill="#F1AA90" d="m58.897 192.021 8.142 2.097c13.22 1.29 17.99-.771 20.356-2.838l-7.218-.568c-7.077.175-19.827-4.605-22.223-3.8s-.055 3.047.943 5.109"/><path fill="#000" fill-opacity=".5" d="m58.897 192.021 8.142 2.097c13.22 1.29 17.99-.771 20.356-2.838l-7.218-.568c-7.077.175-19.827-4.605-22.223-3.8s-.055 3.047.943 5.109" style="mix-blend-mode:overlay"/></g><mask id="fYJJ9EiK8s_n" width="25" height="20" x="43" y="145" maskUnits="userSpaceOnUse" style="mask-type:alpha"><path fill="#F1AA90" d="M48.476 151.702c-2.519 2.379-5.055 5.249-5.055 5.249-1.172 3.999 3.413 6.866 5.334 7.072l5.794-6.43 10.813-7.187c.624-.355 2.505-2.54 1.706-3.995-1.447-2.633-6.35-.568-7.033-.291 0 0-8.072 2.288-11.559 5.582"/></mask><g mask="url(#fYJJ9EiK8s_n)"><path fill="#F1AA90" d="M48.476 151.703c-2.519 2.379-5.055 5.249-5.055 5.249-1.172 3.999 3.413 6.866 5.334 7.072l5.794-6.43 10.813-7.187c.624-.355 2.505-2.54 1.706-3.995-1.447-2.633-6.35-.568-7.033-.291 0 0-8.072 2.288-11.559 5.582"/><path fill="#000" d="M54.169 155.841c-7.892 3.988-10.372 6.405-10.372 6.405-1.172 3.999 8.011 5.56 9.932 5.765l5.795-6.43 10.852-8.339c.624-.355 2.56-2.577 1.407-3.789s-5.912-.277-6.594 0c0 0-6.544 4.126-11.02 6.388" opacity=".25" style="mix-blend-mode:overlay"/></g><mask id="fYJJ9EiK8s_o" width="21" height="11" x="42" y="164" maskUnits="userSpaceOnUse" style="mask-type:alpha"><path fill="#FFC7B6" d="M55.403 173.793c-8.176 2.412-11.848-3.22-12.661-6.337l12.9-2.685 6.52 7.053c.985-.275.634-.152.035.038l-.035-.038c-.89.249-2.876.824-6.76 1.969"/></mask><g mask="url(#fYJJ9EiK8s_o)"><path fill="#FFC7B6" d="M55.403 173.793c-8.176 2.412-11.848-3.22-12.661-6.337l12.9-2.685 6.52 7.053c.985-.275.634-.152.035.038l-.035-.038c-.89.249-2.876.824-6.76 1.969"/><path fill="#000" fill-opacity=".5" d="M55.75 174.188c-8.175 2.412-11.847-3.22-12.66-6.337l12.899-2.685 6.521 7.053c.985-.275.634-.152.035.037l-.035-.037c-.891.249-2.876.823-6.76 1.969" style="mix-blend-mode:overlay"/></g><mask id="fYJJ9EiK8s_p" width="34" height="23" x="42" y="149" maskUnits="userSpaceOnUse" style="mask-type:alpha"><path fill="#FFC7B6" d="M42.512 166.413c-1.023-4.034 16.771-12.48 25.796-16.199 4.166-1.786 5.8-.676 7.16.991 1.087 1.334-2.74 4.635-4.79 6.119-6.167 4.528-19.027 13.69-21.134 14.116-2.634.533-5.753.014-7.032-5.027"/></mask><g mask="url(#fYJJ9EiK8s_p)"><path fill="#F1AA90" d="M42.512 166.414c-1.023-4.034 16.771-12.48 25.796-16.199 4.166-1.786 5.8-.676 7.16.991 1.087 1.334-2.74 4.635-4.79 6.118-6.167 4.529-19.027 13.691-21.134 14.117-2.634.533-5.753.014-7.032-5.027"/><path fill="#000" d="M49.784 172.321c3.681-4.987 21.823-16.183 26.506-21.757 3.927-2.152 2.827 2.156 4.42 3.67 1.273 1.212-2.106 4.824-3.955 6.478-5.554 5.042-17.177 15.279-19.23 15.898-2.566.773-5.763.556-7.74-4.289" opacity=".25" style="mix-blend-mode:overlay"/></g><mask id="fYJJ9EiK8s_q" width="30" height="25" x="46" y="160" maskUnits="userSpaceOnUse" style="mask-type:alpha"><path fill="#F1AA90" d="M69.932 160.519c-3.886.881-15.944 7.315-20.93 10.053-2.137 1.154-2.373 2.842-2.223 3.541l2.312 10.208 11.665-1.781-3.17-5.942c4.109-3.072 12.747-9.451 14.427-10.387 2.1-1.169 3.458-1.987 3.458-4.079 0-1.587-.682-2.714-5.54-1.613"/></mask><g mask="url(#fYJJ9EiK8s_q)"><path fill="#F1AA90" d="M69.932 160.519c-3.886.881-15.944 7.315-20.93 10.053-2.137 1.154-2.373 2.842-2.223 3.541l5.016 10.131 8.961-1.704-3.17-5.942c4.109-3.072 12.747-9.451 14.427-10.387 2.1-1.169 3.457-1.987 3.458-4.079 0-1.587-.682-2.714-5.54-1.613"/><path fill="#000" d="M73.605 165.923c-2.974.665-10.2 5.618-14.027 7.647-2.965 2.049-3.717 2.491-4.665 3.166l.445 5.486c5.06-1.385 9.576-3.252 12.698-1.381l-3.123-3.634c3.158-2.269 9.795-6.981 11.085-7.674 1.611-.867 3.209-1.957 2.666-3.003s-1.36-1.437-5.079-.607" opacity=".25" style="mix-blend-mode:overlay"/></g><mask id="fYJJ9EiK8s_r" width="22" height="16" x="51" y="179" maskUnits="userSpaceOnUse" style="mask-type:alpha"><path fill="#F1AA90" d="M56.395 191.658c-1.626-.804-4.804-2.881-5.019-7.787 1.683-2.792 4.433-4.439 6.628-4.859 8.34 3.072 8.802 5.171 4.143 9.532 6.09-3.297 8.878 5.365 10.055 5.93-7.441.434-13.551-2.249-15.807-2.816"/></mask><g mask="url(#fYJJ9EiK8s_r)"><path fill="#F1AA90" d="M56.394 191.658c-1.626-.804-4.804-2.881-5.019-7.787 1.683-2.792 4.433-4.439 6.628-4.859 8.34 3.072 8.802 5.171 4.143 9.532 6.09-3.297 8.878 5.365 10.055 5.93-7.44.434-13.551-2.249-15.807-2.816"/><path fill="#000" d="M58.938 189.782c-1.626-.804-4.804-2.881-5.02-7.787 1.684-2.792 4.434-4.439 6.629-4.859 8.34 3.072 8.802 5.171 4.143 9.532 3.134-.244 9.295-2.76 10.472-2.195-8.855 6.747-13.969 5.876-16.224 5.309" opacity=".25" style="mix-blend-mode:overlay"/></g><mask id="fYJJ9EiK8s_s" width="25" height="21" x="52" y="168" maskUnits="userSpaceOnUse" style="mask-type:alpha"><path fill="#FFC7B6" d="m58.46 188.793 9.66-6.73c4.991-4.683 9.566-7.927 7.822-11.274s-3.306-1.863-4.063-1.532l-16.291 8.144c-1.45.154-4.165 1.426-3.43 5.278.736 3.851 4.508 5.681 6.302 6.114"/></mask><g mask="url(#fYJJ9EiK8s_s)"><path fill="#F1AA90" d="m58.46 188.795 9.66-6.73c4.991-4.684 9.566-7.927 7.822-11.275-1.744-3.347-3.306-1.863-4.063-1.532l-16.291 8.144c-1.45.155-4.165 1.427-3.43 5.278.736 3.852 4.508 5.681 6.302 6.115"/><path fill="#000" d="m65.54 194.524 7.863-8.684c3.816-5.695 7.53-9.865 5.17-12.863s-3.55-1.198-4.207-.714L64.243 182.69c-1.356.447-4.838 3.481-5.634 5.853 1.497 3.707 5.123 5.91 6.93 5.981" opacity=".25" style="mix-blend-mode:overlay"/></g></g><path fill="#F1AA90" d="M191.303 53.91s-1.264 5.604-3.382 15.483c-2.711 12.591-6.22-4.244-12.22 16.334s-29.942 30.088-37.972 32.853c-16.164 3.105-18.682 2.502-22.098-1.372-6.164-12.601-14.648-23.139-14.819-30.626-.39-17.107 2.741-27.363 5.031-38.123 5.089-23.912 14.531-25.394 24.116-29.195s61.619-2.556 61.315 34.656l.004-.027z"/><path fill="#000" fill-opacity=".5" d="M113.212 79.089c.871-.48 2.684-1.368 3.942-.959 3.067 1.002 4.897 1.505 5.038 2.999.121 1.284-4.154 2.49-7.156.743-.674-.309-3.848-1.667-1.824-2.783" style="mix-blend-mode:overlay"/><path fill="#411917" fill-rule="evenodd" d="M120.647 62.461a.705.705 0 0 1 .661.747l-.704-.043.704.043-.001.003v.006l-.001.017-.005.064-.022.237c-.021.205-.057.501-.113.877-.114.75-.313 1.818-.658 3.103a32.3 32.3 0 0 1-4.315 9.518c-.556.831-.797 1.499-.846 2.02-.047.5.079.895.328 1.225.536.71 1.732 1.233 3.406 1.454a.705.705 0 1 1-.185 1.398c-1.766-.234-3.455-.823-4.346-2.003-.464-.615-.687-1.36-.607-2.207.078-.829.442-1.72 1.079-2.671a30.9 30.9 0 0 0 4.124-9.1c.33-1.227.519-2.243.626-2.948.053-.352.085-.627.104-.81q.014-.14.02-.207l.004-.05v-.012a.706.706 0 0 1 .747-.66" clip-rule="evenodd"/><path fill="#F1AA90" d="M179.698 71.376s12.377-7.49 12.349 1.799c-.03 9.302-8.644 24.926-12.889 20.6-4.246-4.312-3.651-8.979-3.651-8.979z"/><path fill="#000" fill-opacity=".5" d="M184.614 86.61s2.767-3.53 2.945-9.277c.937-4.744-3.57-3.855-3.47-2.76 1.193 11.948-1.592 13.57-1.592 13.57" style="mix-blend-mode:overlay"/><path fill="#411917" fill-rule="evenodd" d="M179.635 87.71c-.605-.904-1.032-2.294-1.275-4.211a.705.705 0 0 1 1.399-.177c.233 1.837.623 2.97 1.047 3.604.207.309.407.476.578.563a.88.88 0 0 0 .539.084c.432-.06 1-.387 1.642-1.05.627-.648 1.252-1.542 1.806-2.576 1.115-2.08 1.871-4.596 1.824-6.574-.023-.987-.244-1.77-.644-2.307-.38-.512-.976-.875-1.935-.94a.705.705 0 0 1 .095-1.407c1.319.09 2.316.624 2.972 1.506.636.856.894 1.963.922 3.114.054 2.299-.804 5.057-1.991 7.274-.597 1.114-1.295 2.124-2.036 2.89-.724.748-1.567 1.343-2.462 1.467-.463.064-.931 0-1.371-.224-.434-.22-.803-.576-1.11-1.036" clip-rule="evenodd"/><path fill="#411917" fill-rule="evenodd" d="m182.197 80.743.001-.002.006-.022.029-.096c.027-.085.071-.21.131-.358.122-.3.308-.68.566-1.026.258-.347.567-.63.926-.788.344-.152.784-.212 1.369-.034a.706.706 0 0 0 .41-1.35c-.892-.27-1.68-.2-2.347.093-.652.287-1.138.766-1.489 1.237a6 6 0 0 0-.741 1.336 7 7 0 0 0-.209.597l-.012.04-.003.013-.001.004-.001.002.683.177-.683-.176a.705.705 0 0 0 1.365.353m0 0q0 .002 0 0" clip-rule="evenodd"/><path fill="#411917" fill-rule="evenodd" d="M181.965 81.295h.002l.022-.007.097-.026c.087-.022.216-.052.374-.08.321-.056.741-.1 1.172-.065.432.034.835.145 1.159.364.309.21.591.548.749 1.135a.705.705 0 0 0 1.362-.366c-.242-.898-.717-1.528-1.321-1.937-.589-.398-1.252-.555-1.837-.602a6.2 6.2 0 0 0-1.527.083 7 7 0 0 0-.617.139l-.04.012-.013.004h-.004l-.001.001.211.673-.212-.672a.704.704 0 1 0 .424 1.344q-.001 0 0 0M136.537 91.504a.824.824 0 0 1 .279 1.13c-1.699 2.817-4.471 4.6-7.167 5.69-2.7 1.093-5.407 1.527-7.104 1.59a.823.823 0 0 1-.061-1.646c1.523-.057 4.04-.456 6.547-1.47 2.51-1.016 4.926-2.614 6.375-5.014a.824.824 0 0 1 1.131-.28" clip-rule="evenodd"/><path fill="#411917" d="M145.018 56.704s-6.681-3.779-11.776-3.63c-6.771.197-7.612 2.39-7.612 2.39s-1.997-.195-.249-3.319c3.411-3.371 9.765-1.742 9.765-1.742s5.208 1.336 7.737 3.403c1.593 1.185 3.228 3.123 3.228 3.123s-.195.727-1.091-.239zM130.227 68.945c-1.618-.38-2.513-2.495-1.983-4.735.515-2.23 2.26-3.735 3.878-3.356 1.618.38 2.513 2.495 1.983 4.736-.514 2.229-2.26 3.734-3.878 3.355"/><path fill="#411917" fill-rule="evenodd" d="M125.893 64.137a.705.705 0 0 1-1.282-.587l.642.29a26 26 0 0 1-.641-.292v-.001l.002-.004.004-.009.012-.025.04-.075q.049-.094.146-.245c.129-.2.326-.469.608-.768.567-.6 1.47-1.318 2.843-1.86 2.748-1.086 7.28-1.437 14.61 1.059a.704.704 0 1 1-.454 1.334c-7.139-2.43-11.305-2.004-13.638-1.082-1.168.462-1.901 1.056-2.335 1.517-.219.23-.363.43-.45.565a2 2 0 0 0-.09.15l-.016.03z" clip-rule="evenodd"/><path fill="#411917" d="M106.508 57.418s2.688-2.866 7.768-3.06c4.445-.17 5.055 1.076 5.055 1.076s1.651-2.126-.311-3.748c-.548-.643-1.684-.958-4.638-.418-2.556.468-6.774 2.624-7.842 5.227 0 0-.446.746-.031.896zM109.439 65.839c.235-2.28 1.519-4.025 2.868-3.886 1.35.138 2.251 2.103 2.017 4.383s-1.519 4.025-2.868 3.886c-1.349-.138-2.251-2.103-2.017-4.383"/><path fill="#411917" fill-rule="evenodd" d="m117.498 64.048-.653.266.653-.265a.705.705 0 0 1-1.304.535m-.001 0-.009-.022q-.016-.034-.056-.108a3.08 3.08 0 0 0-1.517-1.322c-1.158-.468-3.328-.539-7.07 1.996a.705.705 0 1 1-.79-1.167c3.936-2.667 6.616-2.853 8.389-2.136a4.5 4.5 0 0 1 2.219 1.942q.065.118.098.19l.028.06.008.02.003.007.001.003h.001" clip-rule="evenodd"/><path fill="#411917" d="M162.81 42.02c-.498-1.887-1.275-2.107-2.288-6.038 0 1.793-9.459 3.927-18.15 3.927-13.931 0-28.952-3.295-33.503 3.961-3.641 5.805-4.219 9.772-5.989 18.409-3.501-4.042-10.495-6.41-5.045-17.856-6.132-14.307 9.534-30.724 15.962-35.086 10.741-7.29 49.113-15.256 61.884 9.724 7.154-6.813 14.758-1.587 20.543 9.338 4.538 8.57 8.16 17.068 5.135 37.435-2.03 13.666-8.412 18.78-12.804 20.221 1.059-3.707 11.57-22.54-11.035-15.2-11.442 3.716-9.358-8.576-14.71-28.835"/><path fill="#FFB26F" d="M68.872 24.246c-.385-2.002-2.35-3.626-4.39-3.626H7.787c-2.04 0-3.38 1.624-2.995 3.626l3.67 19.08c.385 2.002 2.351 3.625 4.39 3.625h56.696c2.04 0 3.38-1.623 2.995-3.626z"/><path fill="#4C39B0" d="M47.263 33.896c.933 4.847 5.69 8.777 10.627 8.777 4.936 0 8.182-3.93 7.25-8.777-.933-4.848-5.69-8.777-10.627-8.777s-8.182 3.93-7.25 8.777"/><path fill="#F8F8F8" d="M56.465 34.791c-1.965 0-3.858-1.564-4.23-3.493-.37-1.929.921-3.493 2.886-3.493 1.964 0 3.858 1.564 4.229 3.493.37 1.93-.92 3.493-2.885 3.493M56.685 36.403c2.985 0 5.813 1.412 7.253 3.414-1.296 1.755-3.435 2.856-6.048 2.856s-5.174-1.1-7.145-2.855c.67-2.002 2.954-3.415 5.94-3.415"/><path fill="#CC6E08" d="M39.606 33.641c-.232-1.202-1.415-2.194-2.638-2.194H14.796c-1.224 0-2.025.992-1.794 2.194s1.414 2.194 2.638 2.194h22.172c1.224 0 2.025-.992 1.794-2.194"/><path fill="#0090D5" d="M74.896 55.557c-.385-2.003-2.35-3.627-4.39-3.627H13.81c-2.04 0-3.38 1.624-2.995 3.627l3.67 19.078c.385 2.003 2.351 3.626 4.39 3.626h56.696c2.04 0 3.38-1.623 2.995-3.626z"/><path fill="#004380" d="M53.287 65.206c.933 4.847 5.69 8.777 10.627 8.777 4.936 0 8.182-3.93 7.25-8.777-.933-4.848-5.691-8.777-10.627-8.777s-8.182 3.93-7.25 8.777"/><path fill="#F8F8F8" d="M62.488 66.102c-1.964 0-3.857-1.564-4.229-3.493-.37-1.93.92-3.493 2.885-3.493s3.858 1.564 4.23 3.493c.37 1.929-.921 3.493-2.886 3.493M62.709 67.714c2.985 0 5.812 1.412 7.253 3.414-1.297 1.755-3.436 2.855-6.048 2.855s-5.174-1.1-7.145-2.854c.67-2.002 2.954-3.415 5.94-3.415"/><path fill="#DFF1FA" d="M45.63 64.951c-.232-1.201-1.415-2.194-2.638-2.194H20.82c-1.224 0-2.025.992-1.794 2.194s1.414 2.194 2.638 2.194h22.172c1.224 0 2.025-.992 1.794-2.194"/><path fill="#EFEFEF" d="M80.92 86.867c-.386-2.003-2.351-3.626-4.39-3.626H19.833c-2.04 0-3.38 1.623-2.995 3.626l3.67 19.079c.386 2.002 2.351 3.626 4.39 3.626h56.696c2.04 0 3.38-1.624 2.995-3.626z"/><path fill="#8E8E8E" d="M59.31 96.516c.933 4.848 5.69 8.777 10.627 8.777s8.182-3.929 7.25-8.777-5.69-8.777-10.627-8.777c-4.936 0-8.182 3.93-7.25 8.777M51.653 96.262c-.231-1.202-1.414-2.195-2.638-2.195H26.843c-1.224 0-2.025.993-1.794 2.195.232 1.201 1.415 2.194 2.638 2.194H49.86c1.224 0 2.025-.993 1.794-2.194"/></g></g><defs><clipPath id="fYJJ9EiK8s_a"><path fill="#fff" d="M0 0h240v240H0z"/></clipPath><clipPath id="fYJJ9EiK8s_b"><path fill="#fff" d="M0 0h240v240H0z"/></clipPath><clipPath id="fYJJ9EiK8s_c"><rect width="200" height="200" x="20" y="20" fill="#fff" rx="100"/></clipPath></defs></svg>