<svg xmlns="http://www.w3.org/2000/svg" width="40" height="40" fill="none" class="persona-ilustration" viewBox="0 0 40 40"><g clip-path="url(#aVky5BsST9_a)"><g clip-path="url(#aVky5BsST9_b)"><rect width="33.333" height="33.333" x="3.333" y="3.333" fill="#D3EDFF" rx="16.667"/><rect width="24.925" height="47.947" x="7.537" y="1.363" fill="#353535" rx="1.628"/><rect width="22.602" height="45.565" x="8.771" y="2.418" fill="#F8F8F8" rx="1.628"/><path fill="#353535" d="M21.845 2.296a1.769 1.769 0 0 1-3.537 0z"/><circle cx="26.491" cy="36.824" r="2.312" fill="#A6B7FF"/><circle cx="20.25" cy="36.824" r="2.312" fill="#A6B7FF"/><circle cx="14.008" cy="36.824" r="2.312" fill="#A6B7FF"/><circle cx="26.491" cy="30.568" r="2.312" fill="#A6B7FF"/><circle cx="20.25" cy="30.568" r="2.312" fill="#A6B7FF"/><circle cx="14.008" cy="30.568" r="2.312" fill="#A6B7FF"/><circle cx="26.491" cy="24.312" r="2.312" fill="#A6B7FF"/><circle cx="20.25" cy="24.312" r="2.312" fill="#A6B7FF"/><circle cx="14.008" cy="24.312" r="2.312" fill="#A6B7FF"/></g><path fill="#353535" d="M7.537 2.99c0-.9.729-1.629 1.628-1.629h21.669c.899 0 1.628.73 1.628 1.629v14.888H7.537z"/><path fill="#F8F8F8" d="M8.77 4.045c0-.9.73-1.628 1.629-1.628h19.346c.899 0 1.628.729 1.628 1.628v13.833H8.77z"/><path fill="#353535" d="M21.845 2.295a1.769 1.769 0 0 1-3.537 0z"/><rect width="35" height="12" x="2.407" y="7.519" fill="#3E68F5" rx="2"/><path fill="#FEE283" d="M30.399 17.034a.2.2 0 0 1-.2-.213l.113-1.744a.2.2 0 0 0-.31-.18l-1.462.98a.2.2 0 0 1-.285-.068l-.607-1.068a.2.2 0 0 1 .087-.278l1.569-.765a.2.2 0 0 0 0-.36l-1.57-.764a.2.2 0 0 1-.086-.278l.607-1.068a.2.2 0 0 1 .285-.067l1.461.978a.2.2 0 0 0 .311-.179l-.113-1.744a.2.2 0 0 1 .2-.213h1.214a.2.2 0 0 1 .2.214l-.117 1.742a.2.2 0 0 0 .31.18l1.461-.978a.2.2 0 0 1 .285.067l.607 1.068a.2.2 0 0 1-.086.278l-1.565.765a.2.2 0 0 0 0 .36l1.565.764a.2.2 0 0 1 .086.278l-.607 1.068a.2.2 0 0 1-.285.068l-1.46-.979a.2.2 0 0 0-.311.18l.117 1.743a.2.2 0 0 1-.2.213zM19.395 17.034a.2.2 0 0 1-.2-.213l.113-1.744a.2.2 0 0 0-.31-.18l-1.462.98a.2.2 0 0 1-.285-.068l-.607-1.068a.2.2 0 0 1 .087-.278l1.569-.765a.2.2 0 0 0 0-.36l-1.57-.764a.2.2 0 0 1-.086-.278l.607-1.068a.2.2 0 0 1 .285-.067l1.461.978a.2.2 0 0 0 .311-.179l-.113-1.744a.2.2 0 0 1 .2-.213h1.215a.2.2 0 0 1 .2.214l-.118 1.742a.2.2 0 0 0 .31.18l1.461-.978a.2.2 0 0 1 .285.067l.607 1.068a.2.2 0 0 1-.086.278l-1.565.765a.2.2 0 0 0 0 .36l1.565.764a.2.2 0 0 1 .086.278l-.607 1.068a.2.2 0 0 1-.285.068l-1.46-.979a.2.2 0 0 0-.31.18l.116 1.743a.2.2 0 0 1-.2.213zM8.392 17.034a.2.2 0 0 1-.2-.213l.113-1.744a.2.2 0 0 0-.31-.18l-1.462.98a.2.2 0 0 1-.285-.068l-.607-1.068a.2.2 0 0 1 .087-.278l1.569-.765a.2.2 0 0 0 0-.36l-1.57-.764a.2.2 0 0 1-.086-.278l.607-1.068a.2.2 0 0 1 .285-.067l1.461.978a.2.2 0 0 0 .311-.179l-.112-1.744a.2.2 0 0 1 .2-.213h1.214a.2.2 0 0 1 .2.214l-.118 1.742a.2.2 0 0 0 .311.18l1.46-.978a.2.2 0 0 1 .286.067l.606 1.068a.2.2 0 0 1-.086.278l-1.565.765a.2.2 0 0 0 0 .36l1.565.764a.2.2 0 0 1 .086.278l-.606 1.068a.2.2 0 0 1-.286.068L10 14.898a.2.2 0 0 0-.31.18l.116 1.743a.2.2 0 0 1-.2.213z"/></g><defs><clipPath id="aVky5BsST9_a"><path fill="#fff" d="M0 0h40v40H0z"/></clipPath><clipPath id="aVky5BsST9_b"><rect width="33.333" height="33.333" x="3.333" y="3.333" fill="#fff" rx="16.667"/></clipPath></defs></svg>