<svg xmlns="http://www.w3.org/2000/svg" width="16" height="16" fill="none" class="persona-icon" viewBox="0 0 16 16"><path fill="currentColor" fill-rule="evenodd" d="M3 4.143a2.43 2.43 0 0 1 2.429-2.43H8.34a1.78 1.78 0 0 1 1.306.568L12.52 5.36A1.79 1.79 0 0 1 13 6.578v5.279a2.43 2.43 0 0 1-2.428 2.428H5.429A2.43 2.43 0 0 1 3 11.857zm2.429-1.43c-.79 0-1.429.64-1.429 1.43v7.714c0 .789.64 1.428 1.429 1.428h5.143c.789 0 1.428-.64 1.428-1.428V6.57H9.93c-.987 0-1.786-.8-1.786-1.785V2.714zm3.714.494v1.579c0 .434.352.785.786.785h1.421z" clip-rule="evenodd"/></svg>