<svg xmlns="http://www.w3.org/2000/svg" width="20" height="20" fill="none" class="persona-icon" viewBox="0 0 20 20"><path fill="currentColor" fill-rule="evenodd" d="M3.975 5.371a2.94 2.94 0 0 1 2.94-2.94h3.495a2.17 2.17 0 0 1 1.585.69l3.447 3.693a2.17 2.17 0 0 1 .583 1.48v6.334a2.94 2.94 0 0 1-2.94 2.94h-6.17a2.94 2.94 0 0 1-2.94-2.94zm7.421-1.06v1.832c0 .507.411.918.918.918h1.648zm-4.482-.63a1.69 1.69 0 0 0-1.689 1.69v9.257c0 .933.757 1.69 1.69 1.69h6.17a1.69 1.69 0 0 0 1.69-1.69V8.311h-2.46a2.17 2.17 0 0 1-2.169-2.168V3.682z" clip-rule="evenodd"/></svg>