<svg xmlns="http://www.w3.org/2000/svg" width="24" height="24" fill="none" class="persona-icon"><path fill="currentColor" d="M7.871 2C5.733 2 4 3.722 4 5.846v12.308C4 20.278 5.733 22 7.871 22h8.258C18.267 22 20 20.278 20 18.154V9.732a2.81 2.81 0 0 0-.764-1.925l-4.613-4.911A2.847 2.847 0 0 0 12.548 2H7.871ZM5.548 5.846a2.315 2.315 0 0 1 2.323-2.308h4.387v3.334a2.83 2.83 0 0 0 2.839 2.82h3.354v8.462a2.315 2.315 0 0 1-2.322 2.308H7.871a2.315 2.315 0 0 1-2.323-2.308V5.846Zm8.258 1.026c0 .708.578 1.282 1.29 1.282h2.26l-3.55-3.528v2.246Z"/></svg>