<svg xmlns="http://www.w3.org/2000/svg" width="24" height="24" fill="none" class="persona-icon" viewBox="0 0 24 24"><path fill="currentColor" fill-rule="evenodd" d="M7.871 2C5.733 2 4 3.722 4 5.846v12.308C4 20.278 5.733 22 7.871 22h8.258C18.267 22 20 20.278 20 18.154V9.732a2.81 2.81 0 0 0-.764-1.925l-4.613-4.911A2.847 2.847 0 0 0 12.548 2zM5.548 5.846A2.315 2.315 0 0 1 7.871 3.54h4.387v3.333a2.83 2.83 0 0 0 2.839 2.82h3.354v8.462a2.315 2.315 0 0 1-2.322 2.308H7.871a2.315 2.315 0 0 1-2.323-2.308V5.846m8.258 1.026V4.626l3.55 3.528h-2.26c-.712 0-1.29-.574-1.29-1.282" clip-rule="evenodd"/></svg>