<svg xmlns="http://www.w3.org/2000/svg" width="32" height="32" fill="none"><path fill="currentColor" d="M10.583 3.002c-2.806 0-5.08 2.239-5.08 5v16c0 2.762 2.274 5 5.08 5h10.839c2.805 0 5.08-2.238 5.08-5V13.053c0-.928-.358-1.823-1.002-2.501l-6.055-6.385a3.754 3.754 0 0 0-2.724-1.165h-6.138Zm-3.048 5c0-1.657 1.364-3 3.048-3h5.758v4.334c0 2.025 1.668 3.666 3.726 3.666h4.402v11.001c0 1.656-1.364 3-3.047 3h-10.84c-1.683 0-3.048-1.344-3.048-3v-16Zm10.838 1.334c0 .92.758 1.666 1.694 1.666h2.966l-4.66-4.585v2.919Z"/></svg>