<svg xmlns="http://www.w3.org/2000/svg" width="16" height="16" fill="none" class="persona-icon" viewBox="0 0 16 16"><path fill="currentColor" fill-rule="evenodd" d="M6.18 2.87c.114-.508.565-.87 1.086-.87h1.462c.52 0 .972.362 1.085.87l.16.719c.006.03.033.075.097.106q.332.16.632.368c.06.04.113.041.142.032l.81-.255a1.11 1.11 0 0 1 1.296.505l.731 1.267c.26.451.173 1.022-.21 1.374l-.664.609c-.022.02-.047.064-.043.134a5 5 0 0 1-.019.776c-.007.074.019.122.042.143l.683.627c.384.352.472.923.211 1.374l-.731 1.268c-.26.451-.8.661-1.296.505l-1.082-.341c-.027-.009-.076-.009-.132.025q-.18.107-.37.199c-.064.031-.091.076-.098.106l-.16.719c-.112.508-.563.87-1.084.87H7.266c-.521 0-.972-.362-1.085-.87l-.16-.719c-.006-.03-.033-.075-.098-.106a5 5 0 0 1-.37-.199c-.056-.034-.104-.034-.131-.025l-1.082.34a1.11 1.11 0 0 1-1.296-.504l-.732-1.268a1.11 1.11 0 0 1 .211-1.373l.684-.628c.023-.02.049-.07.041-.143a5 5 0 0 1-.019-.776c.004-.07-.02-.114-.043-.134l-.663-.609a1.11 1.11 0 0 1-.21-1.374l.73-1.267c.26-.452.8-.661 1.297-.505l.81.255c.03.01.082.009.141-.032q.3-.207.632-.368c.065-.031.092-.076.098-.106zm1.817 6.963a1.833 1.833 0 1 0-.001-3.665 1.833 1.833 0 0 0 0 3.665" clip-rule="evenodd"/></svg>