<svg xmlns="http://www.w3.org/2000/svg" width="20" height="20" fill="none" class="persona-icon" viewBox="0 0 20 20"><path fill="currentColor" fill-rule="evenodd" d="M7.844 4.02a1.335 1.335 0 0 1 1.304-1.046h1.705c.626 0 1.168.435 1.303 1.046l.186.838c.005.02.026.062.09.093q.39.188.744.432c.059.04.106.038.126.032l.945-.298a1.335 1.335 0 0 1 1.557.606l.853 1.477a1.335 1.335 0 0 1-.254 1.651l-.772.709c-.015.013-.04.052-.037.12a6 6 0 0 1-.022.912c-.007.074.02.115.035.13l.796.73c.461.423.567 1.11.254 1.651l-.853 1.477c-.312.542-.96.794-1.557.606l-1.262-.397c-.018-.006-.061-.009-.117.025a6 6 0 0 1-.435.234c-.065.031-.086.073-.09.093l-.187.838a1.335 1.335 0 0 1-1.303 1.045H9.148a1.335 1.335 0 0 1-1.304-1.045l-.186-.838c-.004-.02-.025-.062-.09-.093a6 6 0 0 1-.435-.234c-.056-.034-.1-.03-.117-.025l-1.263.397a1.335 1.335 0 0 1-1.557-.606l-.852-1.477a1.335 1.335 0 0 1 .254-1.651l.796-.73c.015-.015.042-.056.034-.13a5.6 5.6 0 0 1-.022-.911c.004-.07-.021-.108-.036-.121l-.772-.709A1.335 1.335 0 0 1 3.344 7.2l.852-1.477c.313-.542.96-.794 1.557-.606l.946.298c.02.006.067.008.126-.032q.353-.244.743-.432c.065-.031.086-.074.09-.093zM10 12.133a2.133 2.133 0 1 0 0-4.267 2.133 2.133 0 0 0 0 4.267" clip-rule="evenodd"/></svg>