<svg xmlns="http://www.w3.org/2000/svg" width="24" height="24" fill="none" class="persona-icon" viewBox="0 0 24 24"><path fill="currentColor" fill-rule="evenodd" d="M9.272 4.305A1.67 1.67 0 0 1 10.899 3h2.193c.781 0 1.458.543 1.627 1.305l.24 1.079c.01.044.05.112.147.159q.497.24.947.551c.09.061.169.063.213.049l1.215-.383a1.67 1.67 0 0 1 1.944.757l1.097 1.901c.39.677.259 1.533-.316 2.061l-.995.913c-.033.03-.07.097-.065.201a7 7 0 0 1-.028 1.164c-.011.111.028.184.063.216l1.025.94c.575.528.707 1.385.316 2.061l-1.097 1.902a1.67 1.67 0 0 1-1.944.756l-1.623-.51c-.041-.014-.114-.014-.198.037q-.27.161-.554.298c-.097.047-.138.115-.147.16l-.24 1.078A1.67 1.67 0 0 1 13.092 21h-2.193a1.67 1.67 0 0 1-1.627-1.305l-.24-1.079c-.01-.044-.05-.112-.147-.159a7 7 0 0 1-.554-.298c-.085-.05-.157-.05-.198-.038l-1.623.512a1.67 1.67 0 0 1-1.944-.757l-1.098-1.902a1.67 1.67 0 0 1 .317-2.06l1.025-.941c.035-.032.074-.105.062-.216a7 7 0 0 1-.028-1.164c.006-.104-.032-.17-.065-.201l-.994-.913a1.67 1.67 0 0 1-.317-2.06l1.098-1.902A1.67 1.67 0 0 1 6.51 5.76l1.215.383c.044.014.123.012.212-.049q.45-.31.948-.551c.097-.047.137-.115.147-.16zm2.723 10.445A2.75 2.75 0 0 0 14.744 12a2.75 2.75 0 1 0-2.749 2.75" clip-rule="evenodd"/></svg>