<svg xmlns="http://www.w3.org/2000/svg" width="20" height="20" fill="none" class="persona-icon" viewBox="0 0 20 20"><path fill="currentColor" d="M3.86 5.385c0-.956.75-1.731 1.675-1.731h1.953a.568.568 0 0 0 .559-.577.568.568 0 0 0-.559-.577H5.535c-1.541 0-2.79 1.292-2.79 2.885v2.019c0 .319.25.577.557.577a.568.568 0 0 0 .559-.577v-2.02M12.512 2.5a.568.568 0 0 0-.559.577c0 .319.25.577.559.577h1.953c.925 0 1.675.775 1.675 1.73v2.02c0 .319.25.577.558.577a.568.568 0 0 0 .558-.577v-2.02c0-1.593-1.25-2.884-2.79-2.884h-1.954M3.323 12.5a.455.455 0 0 0-.041 0h-.724a.568.568 0 0 0-.558.577c0 .319.25.577.558.577h.186v.961c0 1.594 1.25 2.885 2.79 2.885h1.954a.568.568 0 0 0 .559-.577.568.568 0 0 0-.559-.577H5.535c-.925 0-1.674-.775-1.674-1.73v-.962H16.14v.961c0 .956-.75 1.731-1.675 1.731h-1.953a.568.568 0 0 0-.559.577c0 .319.25.577.559.577h1.953c1.541 0 2.79-1.291 2.79-2.885v-.96h.187a.568.568 0 0 0 .558-.578.568.568 0 0 0-.558-.577h-.724a.463.463 0 0 0-.04 0H3.322Z"/></svg>