<svg xmlns="http://www.w3.org/2000/svg" width="24" height="24" fill="none" class="persona-icon" viewBox="0 0 24 24"><path fill="currentColor" fill-rule="evenodd" d="M5.86 3.539a2.305 2.305 0 0 0-2.302 2.307V8.54a.768.768 0 1 1-1.535 0V5.846A3.84 3.84 0 0 1 5.861 2h2.686a.768.768 0 0 1 0 1.539zM2.79 15.333c.425 0 .768.345.768.77v2.05a2.305 2.305 0 0 0 2.303 2.309h2.686a.768.768 0 0 1 0 1.538H5.86a3.84 3.84 0 0 1-3.837-3.846v-2.051c0-.425.344-.77.768-.77M14.687 2.77c0-.425.344-.769.768-.769h2.686a3.84 3.84 0 0 1 3.837 3.846V8.54a.768.768 0 1 1-1.535 0V5.846A2.305 2.305 0 0 0 18.14 3.54h-2.687a.77.77 0 0 1-.767-.77m6.523 12.564c.424 0 .768.345.768.77v2.05A3.84 3.84 0 0 1 18.14 22h-2.687a.768.768 0 0 1 0-1.538h2.687a2.305 2.305 0 0 0 2.302-2.308v-2.051c0-.425.343-.77.767-.77" clip-rule="evenodd"/><path fill="currentColor" fill-rule="evenodd" d="M1 16.103c0-.425.344-.77.767-.77h20.466a.768.768 0 0 1 0 1.539H1.767a.77.77 0 0 1-.767-.77" clip-rule="evenodd"/></svg>