<svg xmlns="http://www.w3.org/2000/svg" width="32" height="32" fill="none" class="persona-icon" viewBox="0 0 32 32"><path fill="currentColor" fill-rule="evenodd" d="M8.667 6A2.667 2.667 0 0 0 6 8.667v3.208a1 1 0 1 1-2 0V8.667A4.667 4.667 0 0 1 8.667 4h3.208a1 1 0 1 1 0 2zm10.458-1a1 1 0 0 1 1-1h3.208A4.667 4.667 0 0 1 28 8.667v3.208a1 1 0 1 1-2 0V8.667A2.667 2.667 0 0 0 23.333 6h-3.208a1 1 0 0 1-1-1M2.5 16a1 1 0 0 1 1-1h25a1 1 0 1 1 0 2h-25a1 1 0 0 1-1-1M5 19.889a1 1 0 0 1 1 1v2.444A2.667 2.667 0 0 0 8.667 26h3.208a1 1 0 1 1 0 2H8.667A4.667 4.667 0 0 1 4 23.333V20.89a1 1 0 0 1 1-1m22 0a1 1 0 0 1 1 1v2.444A4.667 4.667 0 0 1 23.333 28h-3.208a1 1 0 1 1 0-2h3.208A2.667 2.667 0 0 0 26 23.333V20.89a1 1 0 0 1 1-1" clip-rule="evenodd"/></svg>