<svg xmlns="http://www.w3.org/2000/svg" width="80" height="80" fill="none" class="persona-ilustration" viewBox="0 0 80 80"><g clip-path="url(#A2Lf7U8ZVLD6Ve2RBwWw7e17eluH9cHGb_Q3ha3xG2o_a)"><path fill="#EFFAFF" d="m33.902 61.246 5.732-19.892c-9.741-2.809-22.887 12.68-23.49 14.772"/><path fill="#D0F3FF" d="M33.89 61.241 39.62 41.35c9.741 2.809 12.627 22.915 12.025 25.01"/><mask id="A2Lf7U8ZVLD6Ve2RBwWw7e17eluH9cHGb_Q3ha3xG2o_b" width="14" height="38" x="13" y="15" maskUnits="userSpaceOnUse" style="mask-type:alpha"><path fill="#FFB26F" d="M25.435 15.8c-.922-.266-1.756-.18-1.863.19L13.283 51.69l3.337.963 10.29-35.702c.106-.37-.556-.887-1.475-1.153"/></mask><g mask="url(#A2Lf7U8ZVLD6Ve2RBwWw7e17eluH9cHGb_Q3ha3xG2o_b)"><path fill="#FFB26F" d="M25.435 15.8c-.922-.266-1.756-.18-1.863.19L13.283 51.69l3.337.963 10.29-35.702c.106-.37-.556-.887-1.475-1.153"/><path fill="#FFC79D" d="M24.154 14.76c-.923-.265-1.756-.18-1.863.19L12 50.652l3.338.962 10.289-35.701c.107-.37-.555-.887-1.474-1.153"/></g><mask id="A2Lf7U8ZVLD6Ve2RBwWw7e17eluH9cHGb_Q3ha3xG2o_c" width="14" height="38" x="53" y="27" maskUnits="userSpaceOnUse" style="mask-type:alpha"><path fill="#FF8D18" d="M65.248 27.274c-.922-.266-1.756-.18-1.863.19L53.096 63.165l3.337.963 10.29-35.702c.106-.37-.556-.886-1.475-1.152"/></mask><g mask="url(#A2Lf7U8ZVLD6Ve2RBwWw7e17eluH9cHGb_Q3ha3xG2o_c)"><path fill="#FF8D18" d="M65.248 27.274c-.922-.266-1.756-.18-1.863.19L53.096 63.165l3.337.963 10.29-35.702c.106-.37-.556-.886-1.475-1.152"/><path fill="#FFB26F" d="M63.966 26.235c-.922-.265-1.756-.18-1.863.19L51.814 62.126l3.337.963 10.29-35.701c.106-.37-.555-.887-1.475-1.153"/></g><path fill="#FFDCC5" d="M8.628 56.626s.387-2.755 3.523-5.333c2.056-2.039 12.336-1.145 23.983 2.213l-1.42 4.92-1.419 4.92-.104.36-1.521 5.278C18.193 65.1 7.79 59.52 8.625 56.624z"/><path fill="#FFB26F" d="M33.182 63.703 31.66 68.98c-13.477-3.883-23.88-9.464-23.046-12.36.835-2.896 12.61-2.083 26.087 1.8l-1.52 5.28z"/><path fill="#FFC79D" d="M57.747 70.781s1.139-2.538-.145-6.388c-.655-2.82-9.836-7.535-21.48-10.89l-1.42 4.92-1.418 4.921-.105.359-1.521 5.278c13.477 3.884 25.253 4.697 26.087 1.8z"/><path fill="#FFB26F" d="M33.183 63.702 31.66 68.98c13.477 3.884 25.253 4.697 26.087 1.8.834-2.895-9.568-8.476-23.045-12.36l-1.521 5.28z"/><path fill="#FFDCC5" d="M36.11 53.504s1.63 2.553-1.41 4.918zM22.302 9.18s-1.139 2.539.145 6.388c.655 2.82 9.836 7.535 21.48 10.89l1.419-4.92 1.42-4.92.104-.36 1.52-5.278c-13.479-3.883-25.254-4.696-26.088-1.8"/><path fill="#FFC79D" d="m45.344 21.538-1.42 4.92c-12.56-3.62-22.253-8.82-21.474-11.517.778-2.7 11.753-1.943 24.313 1.676z"/><path fill="#FFC79D" d="M71.419 23.337s-.387 2.754-3.523 5.332c-2.056 2.04-12.336 1.145-23.983-2.212l1.42-4.92 1.418-4.921.105-.359 1.521-5.279c13.477 3.884 23.88 9.465 23.045 12.36z"/><path fill="#FFB26F" d="m45.332 21.536-1.42 4.92c12.561 3.62 23.536 4.377 24.314 1.677s-8.918-7.9-21.475-11.518z"/><path fill="#FFDCC5" d="M48.376 10.976s1.176 2.566-1.625 5.64z"/><path fill="#D0F3FF" d="m45.046 22.531-5.732 19.892c9.74 2.809 22.886-12.681 23.489-14.772.604-2.095-6.917-6.127-16.658-8.936z"/><path fill="#EFFAFF" d="m43.228 38.195-3.905 4.231c-9.741-2.808-12.627-22.915-12.025-25.008.605-2.095 9.116-1.508 18.857 1.3l5.327 1.723-.649 3.486c-1.728 7.814-6.393 12.588-7.608 14.266z"/><mask id="A2Lf7U8ZVLD6Ve2RBwWw7e17eluH9cHGb_Q3ha3xG2o_d" width="10" height="18" x="18" y="15" maskUnits="userSpaceOnUse" style="mask-type:alpha"><path fill="#FFB26F" d="M25.532 15.465c-.922-.266-1.756-.18-1.863.19L18.985 32.01l3.337.962 4.684-16.356c.107-.37-.555-.887-1.474-1.152"/></mask><g mask="url(#A2Lf7U8ZVLD6Ve2RBwWw7e17eluH9cHGb_Q3ha3xG2o_d)"><path fill="#FFB26F" d="M25.532 15.465c-.922-.266-1.756-.18-1.863.19L18.985 32.01l3.337.962 4.684-16.356c.107-.37-.555-.887-1.474-1.152"/><path fill="#FFC79D" d="M24.25 14.425c-.922-.265-1.756-.18-1.863.19L12.1 50.316l3.337.963 10.289-35.702c.106-.37-.555-.886-1.475-1.152"/></g><mask id="A2Lf7U8ZVLD6Ve2RBwWw7e17eluH9cHGb_Q3ha3xG2o_e" width="9" height="19" x="58" y="26" maskUnits="userSpaceOnUse" style="mask-type:alpha"><path fill="#FF8D18" d="M65.351 27.017c-.922-.265-1.756-.18-1.863.19l-4.684 16.356 3.337.962 4.685-16.355c.106-.37-.555-.887-1.475-1.153"/></mask><g mask="url(#A2Lf7U8ZVLD6Ve2RBwWw7e17eluH9cHGb_Q3ha3xG2o_e)"><path fill="#FF8D18" d="M65.351 27.017c-.922-.265-1.756-.18-1.863.19l-4.684 16.356 3.337.962 4.685-16.355c.106-.37-.555-.887-1.475-1.153"/><path fill="#FFB26F" d="M64.07 25.978c-.923-.266-1.756-.18-1.863.19l-10.29 35.701 3.338.963L65.544 27.13c.107-.37-.555-.887-1.474-1.152"/></g><mask id="A2Lf7U8ZVLD6Ve2RBwWw7e17eluH9cHGb_Q3ha3xG2o_f" width="7" height="8" x="17" y="29" maskUnits="userSpaceOnUse" style="mask-type:alpha"><path fill="#FFC79D" d="M21.377 36.351a3.45 3.45 0 1 0-1.786-6.667 3.45 3.45 0 0 0 1.786 6.667"/></mask><g mask="url(#A2Lf7U8ZVLD6Ve2RBwWw7e17eluH9cHGb_Q3ha3xG2o_f)"><path fill="#FFC79D" d="M21.377 36.351a3.45 3.45 0 1 0-1.786-6.667 3.45 3.45 0 0 0 1.786 6.667"/><path fill="#FFDCC5" d="M19.222 35.002a3.755 3.755 0 1 0-1.944-7.253 3.755 3.755 0 0 0 1.944 7.253"/></g><mask id="A2Lf7U8ZVLD6Ve2RBwWw7e17eluH9cHGb_Q3ha3xG2o_g" width="8" height="7" x="56" y="41" maskUnits="userSpaceOnUse" style="mask-type:alpha"><path fill="#FFC79D" d="M61.166 47.856a3.45 3.45 0 1 0-1.786-6.667 3.45 3.45 0 0 0 1.786 6.667"/></mask><g mask="url(#A2Lf7U8ZVLD6Ve2RBwWw7e17eluH9cHGb_Q3ha3xG2o_g)"><path fill="#FFC79D" d="M61.166 47.856a3.45 3.45 0 1 0-1.786-6.667 3.45 3.45 0 0 0 1.786 6.667"/><path fill="#FFDCC5" d="M59.01 46.507a3.755 3.755 0 1 0-1.943-7.254 3.755 3.755 0 0 0 1.944 7.254"/></g><mask id="A2Lf7U8ZVLD6Ve2RBwWw7e17eluH9cHGb_Q3ha3xG2o_h" width="32" height="35" x="24" y="23" maskUnits="userSpaceOnUse" style="mask-type:alpha"><path fill="#DDAC8E" fill-rule="evenodd" d="M31.025 24.432s2.767-1.931 13.185 1.005h.005c10.386 3.06 11.698 6.167 11.698 6.167-7.252 6.402-10.906 7.72-12.975 8.467-1.178.425-1.842.665-2.363 1.552-.636 1.086-.846 2.62-.904 3.758a3.29 3.29 0 0 0 .96 2.502l2.304 2.296s2.062 2.361 4.027 7.113c-3.16-1.334-6.85-2.639-10.829-3.786-3.983-1.149-7.807-2.009-11.196-2.562 4.191-2.977 7.192-3.879 7.192-3.879l3.171-.717a3.29 3.29 0 0 0 2.145-1.607c.554-.997 1.196-2.405 1.233-3.664.03-1.028-.404-1.584-1.175-2.57-1.354-1.732-3.746-4.793-6.478-14.075" clip-rule="evenodd"/></mask><g mask="url(#A2Lf7U8ZVLD6Ve2RBwWw7e17eluH9cHGb_Q3ha3xG2o_h)"><path fill="#DDAC8E" d="M31.024 24.432s2.768-1.931 13.186 1.005h.005c10.386 3.06 11.698 6.167 11.698 6.167-7.252 6.402-10.906 7.72-12.975 8.467-1.178.425-1.842.664-2.363 1.552-.636 1.086-.846 2.62-.904 3.758a3.29 3.29 0 0 0 .96 2.502l2.304 2.296s2.062 2.361 4.026 7.113c-3.16-1.334-6.85-2.639-10.828-3.786-3.983-1.149-7.807-2.009-11.196-2.562 4.191-2.977 7.192-3.879 7.192-3.879l3.171-.717a3.29 3.29 0 0 0 2.145-1.607c.554-.997 1.196-2.405 1.232-3.664.03-1.028-.404-1.584-1.174-2.57-1.354-1.732-3.746-4.793-6.479-14.075"/><path fill="#FFE8CA" d="m43.229 38.195-2.689 2.23c-1.084 1.175-1.531 2.769-1.809 4.342-.94 5.323 8.038 13.711 4.79 15.29-.863.417-21.67-5.34-22.352-6.095-5.923-6.545 5.642-34.844 6.132-36.545.605-2.095 9.116-1.508 18.857 1.3l5.327 1.723-.649 3.486c-1.728 7.815-6.393 12.588-7.608 14.266z"/></g></g><defs><clipPath id="A2Lf7U8ZVLD6Ve2RBwWw7e17eluH9cHGb_Q3ha3xG2o_a"><path fill="#fff" d="M0 0h80v80H0z"/></clipPath></defs></svg>