<svg xmlns="http://www.w3.org/2000/svg" width="150" height="150" fill="none" class="persona-ilustration" viewBox="0 0 150 150"><g clip-path="url(#c9YxOwkVI-oShBBTXREhmVNwp8jpKOqr6i88dzDwVt8_a)"><g clip-path="url(#c9YxOwkVI-oShBBTXREhmVNwp8jpKOqr6i88dzDwVt8_b)"><g clip-path="url(#c9YxOwkVI-oShBBTXREhmVNwp8jpKOqr6i88dzDwVt8_c)"><rect width="125" height="125" x="12.501" y="12.5" fill="#D3EDFF" rx="62.5"/><path fill="#EFFAFF" d="M62.282 119.36 74.24 77.865c-20.32-5.859-47.742 26.453-48.998 30.816"/><path fill="#D0F3FF" d="m62.256 119.351 11.957-41.495c20.32 5.859 26.339 47.801 25.084 52.169"/><mask id="c9YxOwkVI-oShBBTXREhmVNwp8jpKOqr6i88dzDwVt8_d" width="29" height="78" x="19" y="24" maskUnits="userSpaceOnUse" style="mask-type:alpha"><path fill="#FFB26F" d="M44.62 24.559c-1.924-.553-3.663-.376-3.886.397L19.272 99.429l6.96 2.008 21.464-74.473c.223-.773-1.157-1.85-3.076-2.405"/></mask><g mask="url(#c9YxOwkVI-oShBBTXREhmVNwp8jpKOqr6i88dzDwVt8_d)"><path fill="#FFB26F" d="M44.62 24.559c-1.924-.553-3.663-.376-3.886.397L19.272 99.429l6.96 2.008 21.464-74.473c.223-.773-1.157-1.85-3.076-2.405"/><path fill="#FFC79D" d="M41.947 22.391c-1.924-.553-3.663-.375-3.886.397L16.6 97.26l6.961 2.008 21.463-74.473c.223-.773-1.157-1.85-3.076-2.405"/></g><mask id="c9YxOwkVI-oShBBTXREhmVNwp8jpKOqr6i88dzDwVt8_e" width="29" height="78" x="102" y="48" maskUnits="userSpaceOnUse" style="mask-type:alpha"><path fill="#FF8D18" d="M127.669 48.493c-1.923-.554-3.662-.376-3.885.396l-21.463 74.474 6.961 2.008 21.463-74.474c.223-.772-1.157-1.85-3.076-2.404"/></mask><g mask="url(#c9YxOwkVI-oShBBTXREhmVNwp8jpKOqr6i88dzDwVt8_e)"><path fill="#FF8D18" d="M127.669 48.493c-1.923-.554-3.662-.376-3.885.396l-21.463 74.474 6.961 2.008 21.463-74.474c.223-.772-1.157-1.85-3.076-2.404"/><path fill="#FFB26F" d="M124.996 46.326c-1.924-.553-3.663-.376-3.886.397l-21.463 74.473 6.962 2.008 21.463-74.473c.223-.773-1.158-1.85-3.076-2.405"/></g><path fill="#FFDCC5" d="M9.56 109.721s.807-5.746 7.35-11.124c4.289-4.253 25.732-2.388 50.028 4.616l-2.96 10.264-2.96 10.264-.219.748-3.173 11.012c-28.113-8.102-49.812-19.742-48.072-25.784z"/><path fill="#FFB26F" d="m60.78 124.484-3.173 11.011c-28.113-8.101-49.812-19.742-48.072-25.783s26.304-4.346 54.417 3.756l-3.173 11.011z"/><path fill="#FFC79D" d="M112.024 139.25s2.375-5.296-.302-13.326c-1.367-5.882-20.519-15.717-44.808-22.717l-2.96 10.265-2.961 10.264-.218.748-3.173 11.011c28.112 8.102 52.677 9.797 54.417 3.756z"/><path fill="#FFB26F" d="m60.781 124.482-3.173 11.011c28.113 8.101 52.677 9.797 54.417 3.756s-19.959-17.682-48.072-25.783l-3.173 11.011z"/><path fill="#FFDCC5" d="M66.886 103.21s3.4 5.325-2.94 10.258z"/></g><path fill="#FFDCC5" d="M38.084 10.75s-2.375 5.295.302 13.325c1.367 5.882 20.519 15.717 44.808 22.717l2.96-10.264 2.961-10.264.218-.749 3.174-11.01c-28.119-8.1-52.683-9.797-54.423-3.755"/><path fill="#FFC79D" d="m86.15 36.528-2.96 10.264c-26.202-7.55-46.422-18.4-44.797-24.026 1.623-5.631 24.517-4.053 50.718 3.498z"/><path fill="#FFC79D" d="M140.543 40.28s-.807 5.746-7.35 11.124c-4.289 4.253-25.732 2.388-50.028-4.615l2.96-10.265 2.961-10.264.218-.748L92.477 14.5c28.113 8.101 49.812 19.742 48.072 25.783z"/><path fill="#FFB26F" d="m86.126 36.523-2.96 10.264c26.2 7.55 49.093 9.129 50.717 3.497 1.624-5.63-18.602-16.479-44.797-24.026z"/><path fill="#FFDCC5" d="M92.476 14.495s2.452 5.353-3.39 11.764z"/><path fill="#D0F3FF" d="M85.528 38.6 73.57 80.094c20.32 5.859 47.742-26.453 48.999-30.815 1.26-4.37-14.428-12.78-34.748-18.64z"/><path fill="#EFFAFF" d="m81.737 71.274-8.146 8.827c-20.32-5.858-26.339-47.8-25.084-52.169 1.26-4.37 19.016-3.144 39.335 2.714l11.112 3.593-1.353 7.272c-3.605 16.3-13.337 26.259-15.87 29.76z"/><mask id="c9YxOwkVI-oShBBTXREhmVNwp8jpKOqr6i88dzDwVt8_f" width="17" height="38" x="31" y="23" maskUnits="userSpaceOnUse" style="mask-type:alpha"><path fill="#FFB26F" d="M44.823 23.858c-1.924-.553-3.663-.376-3.886.396l-9.772 34.119 6.962 2.008 9.771-34.119c.223-.772-1.157-1.85-3.075-2.404"/></mask><g mask="url(#c9YxOwkVI-oShBBTXREhmVNwp8jpKOqr6i88dzDwVt8_f)"><path fill="#FFB26F" d="M44.823 23.858c-1.924-.553-3.663-.376-3.886.396l-9.772 34.119 6.962 2.008 9.771-34.119c.223-.772-1.157-1.85-3.075-2.404"/><path fill="#FFC79D" d="M42.149 21.689c-1.924-.553-3.663-.376-3.886.396L16.8 96.56l6.962 2.008 21.463-74.474c.222-.772-1.158-1.85-3.076-2.404"/></g><mask id="c9YxOwkVI-oShBBTXREhmVNwp8jpKOqr6i88dzDwVt8_g" width="17" height="38" x="114" y="47" maskUnits="userSpaceOnUse" style="mask-type:alpha"><path fill="#FF8D18" d="M127.886 47.956c-1.924-.553-3.663-.376-3.886.397l-9.771 34.118 6.961 2.008 9.772-34.118c.223-.773-1.158-1.85-3.076-2.405"/></mask><g mask="url(#c9YxOwkVI-oShBBTXREhmVNwp8jpKOqr6i88dzDwVt8_g)"><path fill="#FF8D18" d="M127.886 47.956c-1.924-.553-3.663-.376-3.886.397l-9.771 34.118 6.961 2.008 9.772-34.118c.223-.773-1.158-1.85-3.076-2.405"/><path fill="#FFB26F" d="M125.212 45.788c-1.923-.553-3.663-.376-3.885.397l-21.463 74.473 6.961 2.008 21.463-74.473c.223-.773-1.157-1.85-3.076-2.405"/></g><mask id="c9YxOwkVI-oShBBTXREhmVNwp8jpKOqr6i88dzDwVt8_h" width="15" height="15" x="27" y="53" maskUnits="userSpaceOnUse" style="mask-type:alpha"><path fill="#FFC79D" d="M36.156 67.428A7.198 7.198 0 1 0 32.43 53.52a7.198 7.198 0 0 0 3.726 13.906"/></mask><g mask="url(#c9YxOwkVI-oShBBTXREhmVNwp8jpKOqr6i88dzDwVt8_h)"><path fill="#FFC79D" d="M36.156 67.428A7.198 7.198 0 1 0 32.43 53.52a7.198 7.198 0 0 0 3.726 13.906"/><path fill="#FFDCC5" d="M31.66 64.614a7.832 7.832 0 1 0-4.055-15.13 7.832 7.832 0 0 0 4.054 15.13"/></g><mask id="c9YxOwkVI-oShBBTXREhmVNwp8jpKOqr6i88dzDwVt8_i" width="15" height="15" x="110" y="77" maskUnits="userSpaceOnUse" style="mask-type:alpha"><path fill="#FFC79D" d="M119.156 91.427a7.199 7.199 0 1 0-3.727-13.907 7.199 7.199 0 0 0 3.727 13.907"/></mask><g mask="url(#c9YxOwkVI-oShBBTXREhmVNwp8jpKOqr6i88dzDwVt8_i)"><path fill="#FFC79D" d="M119.156 91.427a7.199 7.199 0 1 0-3.727-13.907 7.199 7.199 0 0 0 3.727 13.907"/><path fill="#FFDCC5" d="M114.659 88.613a7.83 7.83 0 0 0 5.538-9.593 7.832 7.832 0 1 0-15.13 4.054 7.83 7.83 0 0 0 9.592 5.538"/></g><mask id="c9YxOwkVI-oShBBTXREhmVNwp8jpKOqr6i88dzDwVt8_j" width="66" height="71" x="43" y="41" maskUnits="userSpaceOnUse" style="mask-type:alpha"><path fill="#DDAC8E" fill-rule="evenodd" d="M56.28 42.565s5.774-4.03 27.505 2.096l.012.002c21.664 6.38 24.401 12.862 24.401 12.862C93.071 70.88 85.448 73.63 81.133 75.188c-2.457.886-3.842 1.386-4.93 3.236-1.327 2.267-1.764 5.466-1.886 7.84a6.86 6.86 0 0 0 2.003 5.219l4.807 4.79s4.3 4.926 8.399 14.84c-6.593-2.783-14.29-5.506-22.589-7.899v-.001c-8.31-2.395-16.285-4.19-23.355-5.344 8.743-6.21 15.002-8.091 15.002-8.091l6.616-1.496a6.86 6.86 0 0 0 4.473-3.353c1.156-2.08 2.495-5.017 2.572-7.644.063-2.143-.843-3.303-2.45-5.36-2.825-3.614-7.815-9.998-13.514-29.36" clip-rule="evenodd"/></mask><g mask="url(#c9YxOwkVI-oShBBTXREhmVNwp8jpKOqr6i88dzDwVt8_j)"><path fill="#DDAC8E" d="M56.28 42.565s5.774-4.029 27.505 2.096l.012.002c21.664 6.38 24.401 12.862 24.401 12.862-15.127 13.356-22.75 16.106-27.065 17.663-2.457.886-3.842 1.386-4.93 3.237-1.327 2.266-1.764 5.465-1.886 7.839a6.86 6.86 0 0 0 2.003 5.219l4.807 4.79s4.3 4.926 8.398 14.839c-6.592-2.783-14.29-5.506-22.587-7.898v-.001c-8.31-2.396-16.285-4.19-23.355-5.344 8.742-6.21 15.001-8.09 15.001-8.09l6.616-1.497a6.86 6.86 0 0 0 4.473-3.352c1.156-2.08 2.495-5.017 2.572-7.644.063-2.144-.843-3.303-2.45-5.36-2.825-3.614-7.815-9.998-13.514-29.36"/><path fill="#FFE8CA" d="m81.74 71.275-5.61 4.653c-2.26 2.449-3.193 5.774-3.773 9.056-1.96 11.105 16.768 28.602 9.993 31.893-1.801.873-45.205-11.138-46.628-12.713-12.354-13.652 11.77-72.685 12.793-76.233 1.26-4.369 19.015-3.144 39.335 2.714l11.112 3.593-1.354 7.272c-3.605 16.3-13.336 26.26-15.87 29.76z"/></g></g></g><defs><clipPath id="c9YxOwkVI-oShBBTXREhmVNwp8jpKOqr6i88dzDwVt8_a"><path fill="#fff" d="M0 0h150v150H0z"/></clipPath><clipPath id="c9YxOwkVI-oShBBTXREhmVNwp8jpKOqr6i88dzDwVt8_b"><path fill="#fff" d="M0 0h150v150H0z"/></clipPath><clipPath id="c9YxOwkVI-oShBBTXREhmVNwp8jpKOqr6i88dzDwVt8_c"><rect width="125" height="125" x="12.501" y="12.5" fill="#fff" rx="62.5"/></clipPath></defs></svg>