<svg xmlns="http://www.w3.org/2000/svg" width="16" height="16" fill="none" class="persona-icon" viewBox="0 0 16 16"><path fill="currentColor" fill-rule="evenodd" d="M4.558 4.944a2.944 2.944 0 1 1 5.889 0 2.944 2.944 0 0 1-5.89 0M7.502 3a1.945 1.945 0 1 0 0 3.889 1.945 1.945 0 0 0 0-3.889M3.2 10.05a3.95 3.95 0 0 1 3.002-1.383h2.6c1.154 0 2.251.505 3 1.384.344.402.533.914.533 1.443v.173A2.333 2.333 0 0 1 10.002 14h-5a2.333 2.333 0 0 1-2.333-2.333v-.173c0-.529.188-1.04.532-1.443m3.002-.383c-.862 0-1.68.377-2.24 1.033a1.22 1.22 0 0 0-.294.794v.173c0 .736.597 1.333 1.334 1.333h5c.736 0 1.333-.597 1.333-1.333v-.173c0-.291-.104-.573-.293-.794a2.95 2.95 0 0 0-2.24-1.033z" clip-rule="evenodd"/><path fill="currentColor" d="M14.853 6.826a.5.5 0 1 0-.707-.707l-1.48 1.48-.868-.87a.5.5 0 0 0-.707.708l1.222 1.222a.5.5 0 0 0 .707 0z"/></svg>