<svg xmlns="http://www.w3.org/2000/svg" width="16" height="16" fill="none" class="persona-icon" viewBox="0 0 16 16"><path fill="currentColor" d="M7.502 2a2.944 2.944 0 1 0 0 5.889 2.944 2.944 0 0 0 0-5.889M13.45 4.597a.5.5 0 0 0-.747.666l.352.395h-1.621a.5.5 0 0 0 0 1h2.737a.5.5 0 0 0 .373-.833zM12.155 9.56a.5.5 0 1 0 .747-.665l-.353-.395h1.622a.5.5 0 1 0 0-1h-2.737a.5.5 0 0 0-.374.833zM6.202 8.667a3.95 3.95 0 0 0-3.001 1.384 2.22 2.22 0 0 0-.533 1.443v.173A2.333 2.333 0 0 0 5.002 14h5a2.333 2.333 0 0 0 2.333-2.333v-.173c0-.529-.189-1.04-.532-1.443a3.95 3.95 0 0 0-3.001-1.384z"/></svg>