<svg xmlns="http://www.w3.org/2000/svg" width="20" height="20" fill="none" class="persona-icon" viewBox="0 0 20 20"><path fill="currentColor" d="M9.419 2.958a3.477 3.477 0 1 0 0 6.954 3.477 3.477 0 0 0 0-6.954M16.388 6.002a.625.625 0 1 0-.933.832l.35.392h-1.8a.625.625 0 1 0 0 1.25H17.2a.625.625 0 0 0 .466-1.04zM14.816 11.849a.625.625 0 1 0 .933-.832l-.35-.392h1.8a.625.625 0 1 0 0-1.25h-3.194a.625.625 0 0 0-.466 1.041zM7.903 10.736c-1.36 0-2.651.595-3.534 1.63a2.64 2.64 0 0 0-.63 1.71v.202a2.764 2.764 0 0 0 2.763 2.764h5.834a2.764 2.764 0 0 0 2.763-2.764v-.202c0-.627-.223-1.234-.63-1.71a4.65 4.65 0 0 0-3.534-1.63z"/></svg>