<svg xmlns="http://www.w3.org/2000/svg" width="24" height="24" fill="none" class="persona-icon" viewBox="0 0 24 24"><path fill="currentColor" d="M11.253 3a4.417 4.417 0 1 0 0 8.833 4.417 4.417 0 0 0 0-8.833M20.173 6.896a.75.75 0 1 0-1.12.998l.53.593H17.15a.75.75 0 0 0 0 1.5h4.106a.75.75 0 0 0 .56-1.25zM18.233 14.341a.75.75 0 1 0 1.12-.998l-.53-.593h2.433a.75.75 0 0 0 0-1.5H17.15a.75.75 0 0 0-.56 1.249zM9.303 13a5.92 5.92 0 0 0-4.502 2.076 3.34 3.34 0 0 0-.798 2.165v.259a3.5 3.5 0 0 0 3.5 3.5h7.5a3.5 3.5 0 0 0 3.5-3.5v-.259c0-.793-.283-1.561-.799-2.165A5.92 5.92 0 0 0 13.202 13z"/></svg>