<svg xmlns="http://www.w3.org/2000/svg" width="32" height="32" fill="none" class="persona-icon" viewBox="0 0 32 32"><path fill="currentColor" d="M15.004 4a5.889 5.889 0 1 0 0 11.778 5.889 5.889 0 0 0 0-11.778M26.898 9.194a1 1 0 1 0-1.493 1.331l.705.79h-3.243a1 1 0 1 0 0 2h5.474a1 1 0 0 0 .747-1.665zM22.867 15a1 1 0 0 0-.747 1.665l2.19 2.457a1 1 0 1 0 1.493-1.331L25.098 17h3.243a1 1 0 1 0 0-2zM12.404 17.333a7.9 7.9 0 0 0-6.002 2.768 4.45 4.45 0 0 0-1.065 2.887v.345A4.667 4.667 0 0 0 10.004 28h10a4.667 4.667 0 0 0 4.666-4.667v-.345a4.45 4.45 0 0 0-1.064-2.887 7.9 7.9 0 0 0-6.003-2.768z"/></svg>