<svg xmlns="http://www.w3.org/2000/svg" width="32" height="32" fill="none" class="persona-icon" viewBox="0 0 32 32"><path fill="currentColor" d="M15.004 4a5.889 5.889 0 1 1 0 11.778 5.889 5.889 0 0 1 0-11.778M26.898 9.194l2.19 2.456a1 1 0 0 1-.747 1.666h-5.474a1 1 0 0 1 0-2h3.243l-.705-.79a1 1 0 1 1 1.493-1.332M22.867 15h5.474a1 1 0 1 1 0 2h-3.243l.705.79a1 1 0 0 1-1.493 1.332l-2.19-2.457A1 1 0 0 1 22.866 15M12.404 17.333h5.199a7.9 7.9 0 0 1 6.003 2.768 4.45 4.45 0 0 1 1.064 2.887v.345A4.667 4.667 0 0 1 20.004 28h-10a4.667 4.667 0 0 1-4.667-4.667v-.345c0-1.058.377-2.082 1.065-2.887a7.9 7.9 0 0 1 6.002-2.768"/></svg>