<svg xmlns="http://www.w3.org/2000/svg" width="16" height="16" fill="none" class="persona-icon" viewBox="0 0 16 16"><path fill="currentColor" fill-rule="evenodd" d="m9.59 2.302 2.87 3.077.007.007c.3.325.469.75.469 1.194v5.323a2.346 2.346 0 0 1-2.346 2.346H5.392a2.396 2.396 0 0 1-2.395-2.396V4.141a2.4 2.4 0 0 1 2.395-2.396h2.946l.107.013c.431.037.844.225 1.144.544m-1.552 6.03a.47.47 0 0 0 0-.664.47.47 0 0 0-.663 0L5.448 9.596a.47.47 0 0 0 0 .663l1.927 1.927a.47.47 0 0 0 .663 0 .47.47 0 0 0 0-.664l-1.126-1.125h3.04c.806 0 1.457.65 1.457 1.457s-.65 1.457-1.457 1.457H9.22a.473.473 0 0 0-.47.47c0 .256.213.469.47.469h.732a2.396 2.396 0 0 0 0-4.791h-3.04zm1.038-3.547c0 .457.37.82.82.82l-.006-.007h1.494l-2.308-2.47z" clip-rule="evenodd"/></svg>