<svg xmlns="http://www.w3.org/2000/svg" width="20" height="20" fill="none"><path fill="#000" d="M10 8.053c.308 0 .558.244.558.545v1.675h1.716c.308 0 .558.244.558.545 0 .3-.25.545-.558.545h-1.716v1.674c0 .3-.25.545-.558.545a.552.552 0 0 1-.558-.545v-1.674H7.726a.552.552 0 0 1-.558-.545c0-.301.25-.545.558-.545h1.716V8.598c0-.3.25-.545.558-.545Z"/><path fill="#000" fill-rule="evenodd" d="M8.71 3.635c.551.354.984.813 1.29 1.257a4.624 4.624 0 0 1 1.29-1.258A3.889 3.889 0 0 1 13.454 3c.845.01 1.762.291 2.727.935l.03.021c1.406 1.077 1.906 2.406 1.767 3.797-.135 1.347-.86 2.7-1.778 3.914-1.833 2.425-4.61 4.523-5.913 5.255a.57.57 0 0 1-.565.006c-1.298-.727-4.085-2.83-5.922-5.261-.918-1.214-1.643-2.567-1.778-3.914-.139-1.39.36-2.72 1.767-3.797a.563.563 0 0 1 .03-.02C4.784 3.29 5.7 3.008 6.547 3a3.889 3.889 0 0 1 2.163.635ZM10 15.819c-1.284-.79-3.693-2.67-5.302-4.799-.868-1.148-1.459-2.311-1.565-3.372-.1-1.012.232-1.976 1.33-2.823.81-.537 1.51-.73 2.096-.735a2.753 2.753 0 0 1 1.536.454c.436.281.783.656 1.019 1.016.25.38.327.669.327.764v.002c0 .214.129.409.329.497.2.088.434.053.598-.088l.002-.001a.54.54 0 0 0 .189-.41c0-.095.078-.383.327-.764.236-.36.583-.735 1.019-1.016.433-.278.947-.46 1.536-.454.585.006 1.286.198 2.095.735 1.1.847 1.432 1.811 1.33 2.823-.105 1.06-.696 2.224-1.564 3.372-1.609 2.128-4.018 4.01-5.302 4.799Z" clip-rule="evenodd"/></svg>