<svg xmlns="http://www.w3.org/2000/svg" width="24" height="24" fill="none"><path fill="currentColor" d="M13 5.722a5.569 5.569 0 0 0-1.48-1.446A4.586 4.586 0 0 0 8.93 3.5c-1.013.011-2.108.357-3.255 1.139a.814.814 0 0 0-.038.028C3.96 5.977 3.36 7.603 3.527 9.303c.16 1.64 1.023 3.28 2.108 4.747 2.172 2.936 5.464 5.474 7.001 6.353.238.136.52.124.74-.007 1.543-.886 4.823-3.418 6.99-6.346 1.084-1.466 1.947-3.108 2.107-4.748.167-1.7-.433-3.324-2.11-4.635a.872.872 0 0 0-.038-.028C19.178 3.856 18.083 3.51 17.07 3.5a4.586 4.586 0 0 0-2.59.776c-.623.41-1.12.932-1.48 1.446Zm0 13.197c-1.515-.96-4.316-3.202-6.189-5.734-1.02-1.378-1.707-2.766-1.83-4.024-.116-1.192.264-2.328 1.539-3.333.942-.638 1.754-.863 2.425-.87a3.122 3.122 0 0 1 1.77.535c.505.331.906.776 1.18 1.201.29.454.373.786.373.88v.003a.73.73 0 0 0 1.214.547l.002-.001a.728.728 0 0 0 .248-.548c0-.095.083-.427.374-.88.273-.426.674-.87 1.179-1.202a3.122 3.122 0 0 1 1.77-.535c.671.007 1.483.232 2.425.87 1.274 1.005 1.655 2.141 1.539 3.333-.123 1.258-.81 2.646-1.83 4.024-1.873 2.532-4.674 4.774-6.189 5.734Z"/><path fill="currentColor" d="M13 9.584a.73.73 0 0 1 .73.729v5.344a.73.73 0 0 1-1.46 0v-5.344a.73.73 0 0 1 .73-.729Z"/><path fill="currentColor" d="M16.41 12.985a.73.73 0 0 1-.73.729h-5.36a.73.73 0 1 1 0-1.458h5.36a.73.73 0 0 1 .73.729Z"/></svg>