<svg xmlns="http://www.w3.org/2000/svg" width="32" height="32" fill="none" class="persona-icon" viewBox="0 0 32 32"><path fill="currentColor" fill-rule="evenodd" d="M16 7.957a7.1 7.1 0 0 1 1.811-1.745 5.83 5.83 0 0 1 3.296-.99c1.29.014 2.678.456 4.128 1.447l.053.039c2.125 1.666 2.89 3.738 2.678 5.905-.203 2.084-1.296 4.164-2.66 6.014-2.733 3.704-6.872 6.903-8.808 8.015a1 1 0 0 1-.996 0c-1.936-1.112-6.075-4.311-8.808-8.015-1.364-1.85-2.457-3.93-2.66-6.014-.211-2.167.553-4.239 2.678-5.905l.052-.038c1.45-.992 2.84-1.433 4.13-1.447 1.288-.014 2.4.399 3.295.989a7.1 7.1 0 0 1 1.81 1.745m-8.08.345c-1.574 1.245-2.039 2.647-1.896 4.117.152 1.561 1.005 3.292 2.28 5.02 2.325 3.152 5.793 5.946 7.696 7.165 1.903-1.219 5.371-4.013 7.696-7.165 1.275-1.728 2.127-3.459 2.28-5.02.143-1.47-.322-2.872-1.897-4.117-1.17-.794-2.17-1.07-2.994-1.08a3.83 3.83 0 0 0-2.173.66c-.622.41-1.118.96-1.455 1.487-.362.565-.456.967-.456 1.062a1 1 0 0 1-.339.752l-.002.002a1 1 0 0 1-1.661-.75v-.004c0-.095-.094-.497-.456-1.062a5.1 5.1 0 0 0-1.455-1.487 3.83 3.83 0 0 0-2.173-.66c-.823.01-1.825.286-2.994 1.08M16 12.876a1 1 0 0 1 1 1v2.361h2.361a1 1 0 0 1 0 2H17v2.361a1 1 0 1 1-2 0v-2.36h-2.361a1 1 0 1 1 0-2h2.36v-2.362a1 1 0 0 1 1-1" clip-rule="evenodd"/></svg>