<svg xmlns="http://www.w3.org/2000/svg" width="16" height="16" fill="none" class="persona-icon" viewBox="0 0 16 16"><path fill="currentColor" fill-rule="evenodd" d="M3 4.142A2.43 2.43 0 0 1 5.43 1.714H8.34c.495 0 .968.205 1.306.567L12.52 5.36c.309.331.48.766.48 1.219v3.807a.5.5 0 0 0-.173-.043l-.045-.124c-.099-.299-.315-.59-.7-.636-.303-.035-.57.111-.725.211a4 4 0 0 0-.48.376l-.005.004a.68.68 0 0 0-.2-.43c-.214-.213-.5-.225-.667-.215l-.099.009a3.3 3.3 0 0 0-.235-1.04c-.27-.639-.785-1.158-1.612-1.393-.673-.191-1.294-.125-1.687.33-.36.417-.38 1-.278 1.489a3.44 3.44 0 0 0 .732 1.476c.157.187.339.361.544.51a4 4 0 0 0-.214.257c-.196.262-.374.578-.425.91-.057.365.045.754.402 1.024.37.28.787.22 1.1.06.298-.153.561-.417.776-.696.364-.474.68-1.116.816-1.714v.005c.016.16.074.36.237.513a.71.71 0 0 0 .587.18c.177-.023.338-.1.473-.19.118-.079.255-.198.367-.296l.044-.038c.127-.111.24-.206.341-.274q.066.18.142.314a.9.9 0 0 0 .292.326.64.64 0 0 0 .492.089.8.8 0 0 0 .2-.078v.556q0 .194-.03.38a.5.5 0 0 0-.4-.202h-2.502a.5.5 0 1 0 0 1h2.501a.5.5 0 0 0 .137-.02 2.43 2.43 0 0 1-2.134 1.27H5.429A2.43 2.43 0 0 1 3 11.857zm6.143-.935v1.579c0 .434.352.785.786.785h1.421z" clip-rule="evenodd"/><path fill="currentColor" d="M7.59 9.755a2.44 2.44 0 0 1-.517-1.036c-.075-.361-.007-.56.055-.631.03-.034.166-.162.657-.022.524.149.807.45.964.82.115.272.166.594.168.94l-.216.09c-.176.075-.362.18-.547.306a1.9 1.9 0 0 1-.564-.467M8.353 11.338a.5.5 0 0 0 .199-.018 3.6 3.6 0 0 1-.336.535c-.172.223-.328.358-.439.415a.3.3 0 0 1-.054.022c-.008-.007-.01-.02-.004-.063.015-.1.085-.26.237-.462.112-.15.25-.296.397-.43"/></svg>