<svg xmlns="http://www.w3.org/2000/svg" width="20" height="20" fill="none" class="persona-icon" viewBox="0 0 20 20"><path fill="currentColor" fill-rule="evenodd" d="M3.975 5.371a2.94 2.94 0 0 1 2.94-2.94h3.495c.6 0 1.175.25 1.585.69l3.447 3.693c.375.402.583.93.583 1.48v4.552a.6.6 0 0 0-.215-.06l-.047-.132c-.121-.364-.386-.724-.86-.78-.374-.043-.7.137-.888.258a5 5 0 0 0-.55.427.83.83 0 0 0-.24-.485c-.265-.263-.617-.277-.82-.265l-.094.008a3.9 3.9 0 0 0-.283-1.229c-.327-.774-.95-1.403-1.95-1.687-.812-.23-1.57-.153-2.05.403-.44.51-.462 1.22-.34 1.809.128.615.44 1.257.884 1.783.184.218.396.422.635.598a5 5 0 0 0-.24.291c-.236.316-.452.698-.515 1.102-.069.447.056.923.492 1.253.455.344.966.27 1.348.074.36-.185.68-.505.938-.841a5.7 5.7 0 0 0 .954-1.942c.035.17.112.357.273.509a.88.88 0 0 0 .725.223c.217-.028.414-.124.579-.233a5 5 0 0 0 .442-.356l.053-.046c.142-.124.268-.23.381-.309q.075.199.16.35c.079.138.191.292.36.4a.8.8 0 0 0 .608.11 1 1 0 0 0 .26-.102v.651q0 .23-.034.45a.62.62 0 0 0-.508-.261h-3.002a.625.625 0 1 0 0 1.25h3.002q.095 0 .181-.027a2.94 2.94 0 0 1-2.578 1.527H6.915a2.94 2.94 0 0 1-2.94-2.939zm7.421-1.06v1.832c0 .507.411.918.918.918h1.648z" clip-rule="evenodd"/><path fill="currentColor" d="M9.528 12.09a2.9 2.9 0 0 1-.616-1.232c-.09-.43-.006-.66.06-.736.027-.03.178-.185.764-.018.62.176.955.53 1.14.97.134.317.196.695.199 1.101q-.121.049-.243.101c-.21.089-.43.213-.648.362a2.3 2.3 0 0 1-.656-.548M10.432 14.032a.6.6 0 0 0 .182-.01c-.111.21-.238.412-.375.589-.205.266-.39.425-.518.49l-.038.018.005-.04c.017-.113.098-.302.279-.543.132-.176.294-.348.465-.504M9.693 15.14l.004.002-.002-.001-.008-.004z"/></svg>