<svg xmlns="http://www.w3.org/2000/svg" width="32" height="32" fill="none" class="persona-icon" viewBox="0 0 32 32"><path fill="currentColor" fill-rule="evenodd" d="M10.857 3.428h5.826c.99 0 1.935.41 2.61 1.135l5.747 6.156c.617.661.96 1.532.96 2.437v7.613a1 1 0 0 0-.346-.085 5 5 0 0 1-.09-.248c-.198-.597-.629-1.181-1.399-1.271-.607-.071-1.14.222-1.452.422-.352.227-.694.52-.96.752l-.01.008a1.36 1.36 0 0 0-.399-.861c-.427-.425-.999-.449-1.333-.43q-.096.006-.198.018a6.5 6.5 0 0 0-.471-2.078c-.54-1.28-1.57-2.318-3.224-2.788-1.345-.382-2.588-.25-3.374.66-.722.833-.759 2.002-.556 2.977.212 1.019.729 2.083 1.464 2.954.314.372.678.721 1.088 1.018q-.23.255-.427.516c-.394.524-.749 1.155-.852 1.818-.113.732.092 1.509.804 2.049.741.56 1.575.44 2.202.12.594-.306 1.121-.834 1.55-1.391.729-.948 1.361-2.232 1.634-3.428v.008c.032.32.146.72.473 1.026.352.331.794.411 1.173.362.354-.046.677-.202.947-.382.236-.156.51-.395.733-.59l.088-.077c.255-.222.481-.412.684-.548q.131.359.283.628c.129.227.312.477.585.652.316.202.665.248.982.178.163-.036.3-.1.401-.155v1.11q0 .388-.059.76a1 1 0 0 0-.802-.403h-5.004a1 1 0 1 0 0 2h5.004a1 1 0 0 0 .274-.038 4.86 4.86 0 0 1-4.27 2.539H10.857A4.857 4.857 0 0 1 6 23.714V8.285a4.857 4.857 0 0 1 4.857-4.857m7.429 6.143c0 .868.703 1.572 1.571 1.572H22.7l-4.413-4.73z" clip-rule="evenodd"/><path fill="currentColor" d="M16.309 20.444a3.8 3.8 0 0 1-1.128-.934c-.53-.629-.894-1.393-1.035-2.072-.15-.722-.013-1.12.11-1.263.06-.068.331-.323 1.315-.043 1.047.298 1.614.898 1.928 1.642.229.542.332 1.186.334 1.88q-.215.085-.431.177c-.353.15-.725.36-1.093.613M17.104 22.64a7 7 0 0 1-.672 1.07c-.344.446-.656.716-.878.83a.6.6 0 0 1-.109.045c-.015-.015-.02-.041-.007-.128.03-.197.17-.518.473-.922.226-.3.502-.594.795-.86a1 1 0 0 0 .398-.035"/></svg>