<svg xmlns="http://www.w3.org/2000/svg" width="16" height="16" fill="none" class="persona-icon" viewBox="0 0 16 16"><path fill="currentColor" fill-rule="evenodd" d="M3.862 2.583c0-.89.72-1.61 1.61-1.61h5.056a1.61 1.61 0 0 1 .166 3.212v.468c0 .557.282 1.075.75 1.377l.183.118a2.7 2.7 0 0 1 1.233 2.264v3.921a2.694 2.694 0 0 1-2.693 2.694H5.833a2.694 2.694 0 0 1-2.693-2.694V8.412a2.7 2.7 0 0 1 1.233-2.264l.183-.118c.468-.302.75-.82.75-1.377v-.468a1.61 1.61 0 0 1-1.444-1.602m1.61-.556a.556.556 0 1 0 0 1.112h5.056a.556.556 0 0 0 0-1.112zm.888 2.626c0 .915-.464 1.767-1.233 2.263l-.047.03h5.84l-.047-.03A2.7 2.7 0 0 1 9.64 4.653v-.46H6.36zM8 8.917a.527.527 0 0 0-.527.527v.918h-.917a.527.527 0 0 0 0 1.054h.917v.917a.527.527 0 0 0 1.054 0v-.917h.918a.527.527 0 1 0 0-1.054h-.918v-.918A.527.527 0 0 0 8 8.917" clip-rule="evenodd"/></svg>