<svg xmlns="http://www.w3.org/2000/svg" width="24" height="24" fill="none" class="persona-icon" viewBox="0 0 24 24"><path fill="currentColor" fill-rule="evenodd" d="M6.111 4.292A2.29 2.29 0 0 1 8.403 2h7.194a2.292 2.292 0 0 1 .237 4.571v.666c0 .792.402 1.53 1.068 1.96l.26.168a3.83 3.83 0 0 1 1.755 3.221v5.58A3.833 3.833 0 0 1 15.083 22H8.918a3.833 3.833 0 0 1-3.833-3.833v-5.581a3.83 3.83 0 0 1 1.755-3.221l.26-.168a2.33 2.33 0 0 0 1.068-1.96V6.57a2.29 2.29 0 0 1-2.056-2.28M8.403 3.5a.792.792 0 1 0 0 1.583h7.194a.792.792 0 1 0 0-1.583zm1.264 3.737a3.83 3.83 0 0 1-1.755 3.22l-.067.044h8.31l-.066-.043a3.83 3.83 0 0 1-1.755-3.221v-.654H9.667zM12 13.306a.75.75 0 0 0-.75.75v1.305H9.945a.75.75 0 0 0 0 1.5h1.305v1.306a.75.75 0 0 0 1.5 0V16.86h1.306a.75.75 0 0 0 0-1.5H12.75v-1.306a.75.75 0 0 0-.75-.75" clip-rule="evenodd"/></svg>