<svg xmlns="http://www.w3.org/2000/svg" width="32" height="32" fill="none"><path fill="#000" fill-rule="evenodd" d="M24.897 2.002a1 1 0 0 1 1 1v3.106h3.105a1 1 0 1 1 0 2h-3.105v3.105a1 1 0 1 1-2 0V8.108h-3.105a1 1 0 1 1 0-2h3.105V3.002a1 1 0 0 1 1-1ZM7.107 5.371a3.105 3.105 0 0 0-3.105 3.105v4.105a1 1 0 1 1-2 0V8.476a5.105 5.105 0 0 1 5.105-5.105h10.264a1 1 0 1 1 0 2H7.107Zm7.313 8.238a13.888 13.888 0 0 0-3.522 3.601c-1.005 1.51-1.422 2.845-1.422 3.582a1 1 0 1 1-2 0c0-1.291.643-3.016 1.757-4.69a15.954 15.954 0 0 1 5.089-4.812c.74-.44 1.535-.207 1.999.264.45.457.67 1.207.342 1.925-.732 1.61-1.565 3.732-2.185 5.521 1.634-1.249 2.973-1.725 3.895-1.887.61-.107 1.184.15 1.503.637.297.456.317 1.021.114 1.501l-.093.224a2.62 2.62 0 0 1 .804-.183c.776-.048 1.43.284 2.009.664a1 1 0 1 1-1.1 1.671c-.48-.315-.677-.346-.787-.339-.123.008-.378.077-.924.523-.472.386-1.169.56-1.784.225-.69-.376-.862-1.15-.644-1.799.1-.297.21-.597.32-.882-.803.319-1.918.958-3.272 2.238-.454.43-1.162.656-1.811.326-.71-.362-.892-1.143-.698-1.792.53-1.78 1.5-4.396 2.41-6.518Zm13.214.025a1 1 0 0 1 1 1v10.263a5.105 5.105 0 0 1-5.105 5.105h-4.106a1 1 0 1 1 0-2h4.106a3.105 3.105 0 0 0 3.105-3.105V14.634a1 1 0 0 1 1-1ZM3.002 19.792a1 1 0 0 1 1 1v4.105a3.105 3.105 0 0 0 3.105 3.105h4.106a1 1 0 0 1 0 2H7.107a5.105 5.105 0 0 1-5.105-5.105v-4.105a1 1 0 0 1 1-1Z" clip-rule="evenodd"/></svg>