<svg xmlns="http://www.w3.org/2000/svg" width="32" height="32" fill="none"><path fill="#000" fill-rule="evenodd" d="M6.5 5.889C6.5 3.74 8.211 2 10.322 2h11.356c2.11 0 3.822 1.741 3.822 3.889V26.11C25.5 28.26 23.789 30 21.678 30H10.322C8.212 30 6.5 28.259 6.5 26.111V5.89ZM10.322 4c-1.025 0-1.856.846-1.856 1.889V26.11c0 1.043.83 1.889 1.856 1.889h11.356c1.025 0 1.857-.846 1.857-1.889V5.89c0-1.043-.832-1.889-1.857-1.889H10.322Z" clip-rule="evenodd"/><path fill="#000" fill-rule="evenodd" d="M13.598 7.333c0-.552.44-1 .982-1h2.84c.542 0 .982.448.982 1 0 .553-.44 1-.983 1h-2.838a.991.991 0 0 1-.983-1Z" clip-rule="evenodd"/><path fill="#000" d="M17.42 24.667c0 .797-.636 1.444-1.42 1.444-.784 0-1.42-.647-1.42-1.444 0-.798.636-1.445 1.42-1.445.784 0 1.42.647 1.42 1.445Z"/></svg>