<svg xmlns="http://www.w3.org/2000/svg" width="16" height="16" fill="none"><path fill="#000" fill-rule="evenodd" d="M11.666 2.018c.553-.079 1.144.095 1.682.634.539.538.713 1.13.634 1.682-.075.523-.366.945-.634 1.213l-5.25 5.251a.5.5 0 0 1-.354.146H5.556a.5.5 0 0 1-.5-.5V8.256a.5.5 0 0 1 .146-.353l5.251-5.251c.268-.268.69-.56 1.213-.634Zm.141.99c-.243.035-.477.181-.647.35l-.186.187 1.481 1.48.186-.185c.17-.17.316-.404.351-.647.03-.213-.014-.497-.35-.834-.337-.337-.621-.381-.835-.351Zm-.059 2.725-1.48-1.481-4.212 4.212v1.48h1.48l4.212-4.211Z" clip-rule="evenodd"/><path fill="#000" d="M4.333 3C3.597 3 3 3.597 3 4.333v7.334C3 12.403 3.597 13 4.333 13h7.334c.736 0 1.333-.597 1.333-1.333V8a.5.5 0 0 1 1 0v3.667A2.333 2.333 0 0 1 11.667 14H4.333A2.333 2.333 0 0 1 2 11.667V4.333A2.333 2.333 0 0 1 4.333 2H8a.5.5 0 0 1 0 1H4.333Z"/></svg>