<svg xmlns="http://www.w3.org/2000/svg" width="24" height="24" fill="none"><path fill="#000" fill-rule="evenodd" d="M18.162 2.03c.904-.13 1.875.154 2.765 1.044.89.89 1.172 1.86 1.043 2.764-.122.857-.6 1.552-1.043 1.995l-8.813 8.813a.77.77 0 0 1-.545.226H7.897a.77.77 0 0 1-.769-.77v-3.671c0-.204.081-.4.225-.544l8.814-8.813c.443-.444 1.138-.922 1.995-1.044Zm.218 1.523c-.428.06-.834.317-1.125.608l-.362.362 2.584 2.584.362-.361c.291-.292.547-.698.608-1.126.055-.381-.03-.88-.608-1.459-.58-.579-1.077-.663-1.459-.608Zm.01 4.642-2.585-2.584-7.138 7.138v2.584h2.584l7.138-7.138Z" clip-rule="evenodd"/><path fill="#000" d="M5.846 3.538a2.308 2.308 0 0 0-2.308 2.308v12.308a2.308 2.308 0 0 0 2.308 2.308h12.308a2.308 2.308 0 0 0 2.308-2.308V12A.77.77 0 0 1 22 12v6.154A3.846 3.846 0 0 1 18.154 22H5.846A3.846 3.846 0 0 1 2 18.154V5.846A3.846 3.846 0 0 1 5.846 2H12a.77.77 0 0 1 0 1.538H5.846Z"/></svg>