<svg xmlns="http://www.w3.org/2000/svg" width="20" height="20" fill="none" class="persona-icon" viewBox="0 0 20 20"><path fill="currentColor" fill-rule="evenodd" d="M12.2 11.135c.473.225.8.707.8 1.265v1h.6a2.4 2.4 0 0 1 2.4 2.4 1.2 1.2 0 0 1-1.2 1.2H5.2A1.2 1.2 0 0 1 4 15.8a2.4 2.4 0 0 1 2.4-2.4H7v-1a1.4 1.4 0 0 1 .8-1.265V9.6c0-.748-.424-1.248-1.01-1.896l-.07-.077c-.351-.39-.52-.89-.52-1.388V4.4A1.4 1.4 0 0 1 7.6 3h4.8a1.4 1.4 0 0 1 1.4 1.4v1.839c0 .497-.17.997-.52 1.388l-.071.077c-.585.648-1.01 1.148-1.01 1.896zM6.4 14.6a1.2 1.2 0 0 0-1.2 1.2h9.6a1.2 1.2 0 0 0-1.2-1.2zM7.6 4.2a.2.2 0 0 0-.2.2v1.839c0 .229.077.435.212.584l.07.077.037.041c.544.603 1.28 1.417 1.28 2.659V11h2V9.6c0-1.242.737-2.056 1.282-2.659l.037-.041.07-.077a.87.87 0 0 0 .212-.584V4.4a.2.2 0 0 0-.2-.2zm4.2 9.2v-1a.2.2 0 0 0-.2-.2H8.4a.2.2 0 0 0-.2.2v1z" clip-rule="evenodd"/></svg>