<svg xmlns="http://www.w3.org/2000/svg" width="20" height="20" fill="none" class="persona-icon" viewBox="0 0 20 20"><path fill="currentColor" fill-rule="evenodd" d="M12.2 11.135V9.6c0-.748.424-1.248 1.009-1.896l.07-.077c.352-.39.52-.89.52-1.388V4.4A1.4 1.4 0 0 0 12.4 3H7.6a1.4 1.4 0 0 0-1.4 1.4v1.839c0 .497.17.997.522 1.388l.07.077C7.376 8.352 7.8 8.852 7.8 9.6v1.535A1.4 1.4 0 0 0 7 12.4v1h-.6A2.4 2.4 0 0 0 4 15.8 1.2 1.2 0 0 0 5.2 17h9.6a1.2 1.2 0 0 0 1.2-1.2 2.4 2.4 0 0 0-2.4-2.4H13v-1a1.4 1.4 0 0 0-.8-1.265M6.4 14.6h7.2a1.2 1.2 0 0 1 1.2 1.2H5.2a1.2 1.2 0 0 1 1.2-1.2M7.6 4.2h4.8c.11 0 .2.09.2.2v1.839c0 .229-.077.435-.212.584l-.07.077-.037.041C11.736 7.544 11 8.358 11 9.6V11H9V9.6c0-1.242-.737-2.056-1.281-2.659L7.68 6.9l-.069-.077A.87.87 0 0 1 7.4 6.24V4.4c0-.11.09-.2.2-.2m4.2 9.2H8.2v-1c0-.11.09-.2.2-.2h3.2c.11 0 .2.09.2.2z" clip-rule="evenodd"/></svg>