<svg xmlns="http://www.w3.org/2000/svg" width="24" height="24" fill="none" class="persona-icon" viewBox="0 0 24 24"><path fill="currentColor" fill-rule="evenodd" d="M14.813 13.478v-1.994c0-.975.553-1.625 1.306-2.46l.09-.1a2.64 2.64 0 0 0 .666-1.772v-2.37c0-.985-.797-1.782-1.781-1.782H8.906c-.984 0-1.781.797-1.781 1.781v2.37c0 .637.216 1.276.665 1.774l.09.1c.754.834 1.308 1.484 1.308 2.46v1.993c-.61.283-1.032.9-1.032 1.616v1.312H7.32a3.07 3.07 0 0 0-3.07 3.07c0 .842.682 1.524 1.523 1.524h12.454c.84 0 1.523-.682 1.523-1.523a3.07 3.07 0 0 0-3.07-3.07h-.836v-1.313c0-.716-.422-1.333-1.031-1.616M7.32 17.906h9.36a1.57 1.57 0 0 1 1.569 1.58l-.006.007-.008.006-.008.001H5.773l-.008-.002-.008-.005-.005-.008-.002-.008c0-.868.703-1.57 1.57-1.57M8.906 4.5h6.188c.155 0 .281.126.281.281v2.37c0 .301-.101.572-.28.77l-.089.098-.047.053c-.703.777-1.646 1.82-1.646 3.412v1.829h-2.626v-1.829c0-1.592-.943-2.636-1.646-3.412l-.047-.053-.09-.098a1.14 1.14 0 0 1-.279-.77v-2.37c0-.155.126-.281.281-.281m5.438 11.906H9.656v-1.312c0-.156.126-.281.281-.281h4.126c.155 0 .28.125.28.28z" clip-rule="evenodd"/></svg>