<svg xmlns="http://www.w3.org/2000/svg" width="24" height="24" fill="none" class="persona-icon" viewBox="0 0 24 24"><path fill="currentColor" fill-rule="evenodd" d="M14.813 13.478c.608.283 1.03.9 1.03 1.616v1.312h.837a3.07 3.07 0 0 1 3.07 3.07c0 .842-.682 1.524-1.523 1.524H5.773a1.523 1.523 0 0 1-1.523-1.523 3.07 3.07 0 0 1 3.07-3.07h.836v-1.313c0-.716.422-1.333 1.031-1.616v-1.994c0-.975-.553-1.625-1.306-2.46l-.09-.1a2.64 2.64 0 0 1-.666-1.772v-2.37C7.125 3.796 7.923 3 8.906 3h6.188c.984 0 1.781.797 1.781 1.781v2.37c0 .637-.216 1.276-.665 1.774l-.09.1c-.754.834-1.308 1.484-1.308 2.46zM8.906 4.5a.28.28 0 0 0-.281.281v2.37c0 .301.101.572.28.77l.089.098.047.053c.703.777 1.646 1.82 1.646 3.412v1.829h2.626v-1.829c0-1.592.943-2.636 1.646-3.412l.047-.053.09-.098a1.14 1.14 0 0 0 .279-.77v-2.37a.28.28 0 0 0-.281-.281zM7.32 17.906a1.57 1.57 0 0 0-1.569 1.58l.006.007.008.006.008.001h12.454l.008-.002.008-.005.006-.008.001-.008a1.57 1.57 0 0 0-1.57-1.57zm7.024-1.5v-1.312a.28.28 0 0 0-.281-.281H9.936a.28.28 0 0 0-.28.28v1.313z" clip-rule="evenodd"/></svg>