<svg xmlns="http://www.w3.org/2000/svg" width="32" height="32" fill="none" class="persona-icon" viewBox="0 0 32 32"><path fill="currentColor" fill-rule="evenodd" d="M19.75 17.97a2.38 2.38 0 0 1 1.375 2.155v1.75h1.031a4.094 4.094 0 0 1 4.094 4.094c0 1.122-.91 2.031-2.031 2.031H7.78a2.03 2.03 0 0 1-2.031-2.031 4.094 4.094 0 0 1 4.094-4.094h1.031v-1.75c0-.954.563-1.777 1.375-2.155v-2.657c0-1.3-.738-2.168-1.742-3.28l-.121-.133A3.52 3.52 0 0 1 9.5 9.535v-3.16A2.375 2.375 0 0 1 11.875 4h8.25A2.375 2.375 0 0 1 22.5 6.375v3.16c0 .849-.288 1.7-.887 2.365l-.12.133c-1.005 1.112-1.743 1.98-1.743 3.28zm-9.906 5.905a2.094 2.094 0 0 0-2.092 2.106l.007.01.01.007.012.002H24.22l.012-.002.01-.007.007-.01.002-.012a2.094 2.094 0 0 0-2.094-2.094zM11.875 6a.375.375 0 0 0-.375.375v3.16c0 .401.135.762.373 1.026l.119.131.063.07c.937 1.036 2.195 2.427 2.195 4.55v2.438h3.5v-2.437c0-2.124 1.259-3.515 2.195-4.55l.064-.07.118-.132c.238-.264.373-.625.373-1.026v-3.16A.375.375 0 0 0 20.125 6zm7.25 15.875v-1.75a.375.375 0 0 0-.375-.375h-5.5a.375.375 0 0 0-.375.375v1.75z" clip-rule="evenodd"/></svg>