<svg xmlns="http://www.w3.org/2000/svg" width="16" height="16" fill="none"><path fill="#000" fill-rule="evenodd" d="M3.968 4c0-.828.65-1.5 1.451-1.5h2.742v2.167c0 1.012.795 1.833 1.774 1.833h2.581a.484.484 0 0 0 .444-.3.513.513 0 0 0-.09-.541L9.64 2.082A1.748 1.748 0 0 0 8.343 1.5H5.419C4.083 1.5 3 2.62 3 4v8c0 1.38 1.083 2.5 2.42 2.5h1.29a.492.492 0 0 0 .484-.5c0-.276-.217-.5-.484-.5H5.42c-.802 0-1.452-.672-1.452-1.5V4Zm7.38 1.5-2.22-2.293v1.46c0 .46.362.833.807.833h1.413Z" clip-rule="evenodd"/><path fill="#000" fill-rule="evenodd" d="M10 8.5a1 1 0 0 0-1 1v.375a.5.5 0 0 1-1 0V9.5a2 2 0 0 1 2-2h.375a.5.5 0 0 1 0 1H10Zm2.125-.5a.5.5 0 0 1 .5-.5H13a2 2 0 0 1 2 2v.375a.5.5 0 0 1-1 0V9.5a1 1 0 0 0-1-1h-.375a.5.5 0 0 1-.5-.5Zm-.308 1.504a.86.86 0 0 1 .151.959l-.106.229c.136-.059.262-.1.376-.13.17-.044.426-.061.648.081a.62.62 0 0 1 .274.394l.002.007a.5.5 0 0 1 .024 1h-.002a.234.234 0 0 0-.038.016.737.737 0 0 1-.48.068.679.679 0 0 1-.411-.267.725.725 0 0 1-.104-.203 2.944 2.944 0 0 0-.406.244c-.222.157-.567.25-.872.06-.345-.218-.365-.615-.256-.895.045-.115.094-.236.147-.36a2.553 2.553 0 0 0-.478.666.5.5 0 0 1-.906-.424c.242-.515.723-1.102 1.426-1.567a.779.779 0 0 1 1.01.122ZM8.5 11.625a.5.5 0 0 1 .5.5v.375a1 1 0 0 0 1 1h.375a.5.5 0 0 1 0 1H10a2 2 0 0 1-2-2v-.375a.5.5 0 0 1 .5-.5Zm6 0a.5.5 0 0 1 .5.5v.375a2 2 0 0 1-2 2h-.375a.5.5 0 0 1 0-1H13a1 1 0 0 0 1-1v-.375a.5.5 0 0 1 .5-.5Z" clip-rule="evenodd"/></svg>