<svg xmlns="http://www.w3.org/2000/svg" width="64" height="64" viewBox="0 0 64 64"><path d="M25.47 9.493c-.168 2.649 4.67 4.953 9.235 4.036 5.921-.987 6.694-6.143 1.27-7.751-4.574-1.623-10.817.767-10.504 3.715zm-20.945 8.16c-.457-5.82 4.75-11.726 13.912-14.555C29.752-.872 45.496 1.4 53.604 7.11c9.276 6.19 7.158 16.208-3.171 21.594-1.784 1.636-6.38 1.215-7.068 3.187-1.04.972-1.289 2.05-1.233 3.168 1.015 2-3.832 1.633-3.27 3.76.589 5.264-.18 10.537-.364 15.806-.492 2.185 1.164 4.574-.735 6.61-2.483 2.325-7.306 2.19-9.193-.275-2.734-1.74-8.255-3.615-6.104-6.34 3.468-1.708-2.117-3.45.43-5.08 5.06-1.392-2.392-2.304-.146-4.334 3.07-.978 2.057-2.518-.22-3.54 1.877-1.808 1.485-4.87-2.565-5.943.151-1.805 2.906-4.137-1.68-5.205-8.024-2.636-13.598-7.568-13.76-12.866z" style="fill:#ff0;fill-opacity:1;stroke:#000;stroke-width:1.72665179;stroke-opacity:1"/></svg>