<svg xmlns="http://www.w3.org/2000/svg" width="40" height="40" viewBox="0 0 40 40"><path d="M1.77 62.597h36.46v34.806H1.77z" style="fill:#ff0;fill-opacity:1;fill-rule:evenodd;stroke:#000;stroke-width:1.30826771;stroke-opacity:1" transform="translate(0 -60)"/><path d="M20 64.526c-8.546 0-15.474 6.928-15.474 15.474S11.454 95.474 20 95.474 35.474 88.546 35.474 80 28.546 64.526 20 64.526zm-.409 9.489c3.527 0 6.394 2.84 6.394 6.335s-2.867 6.336-6.394 6.336-6.394-2.84-6.394-6.336c0-3.494 2.867-6.335 6.394-6.335z" style="fill:#fff;fill-opacity:1;fill-rule:nonzero;stroke:#000;stroke-width:1.02768445;stroke-miterlimit:4;stroke-opacity:1;stroke-dasharray:none" transform="translate(2.247 -51.01)scale(.88764)"/><path d="m7.234 71.82 4.97 4.162c-1.68 2.581-1.444 6.07.16 8.677l-5.127 3.425c.675 1.231 3.016 3.548 4.233 4.195l3.908-4.568c2.542 1.46 5.73 1.393 8.438-.126l3.47 6.109c1.13-.444 4.742-3.45 5.416-5.004l-5.462-4.416c1.443-2.424 1.651-5.267.558-7.748l5.903-3.834c-.558-.987-3.085-3.673-4.671-4.699l-4.12 4.982c-2.498-1.77-6.01-2.037-8.869-.646l-3.595-5.322c-1.346.58-4.13 2.921-5.212 4.813m8.1 3.427c2.753-2.447 6.77-2.145 9.05.42s2.113 6.597-.64 9.044c-2.752 2.446-6.775 2.137-9.055-.429s-2.107-6.59.646-9.035" style="fill:#000;fill-opacity:1;stroke:none" transform="translate(2.247 -51.01)scale(.88764)"/></svg>