<svg xmlns="http://www.w3.org/2000/svg" width="16" height="16" fill="none" class="persona-icon" viewBox="0 0 16 16"><path fill="currentColor" fill-rule="evenodd" d="M3 4.142A2.43 2.43 0 0 1 5.43 1.714H8.34c.495 0 .968.205 1.306.567L12.52 5.36c.309.331.48.766.48 1.219v.425a4.44 4.44 0 0 0-4.95 7.282H5.43A2.43 2.43 0 0 1 3 11.857zm6.143-.935v1.579c0 .434.352.785.786.785h1.421z" clip-rule="evenodd"/><path fill="currentColor" d="m11.323 11.371.003-.001z"/><path fill="currentColor" fill-rule="evenodd" d="M11.006 14.411a3.44 3.44 0 1 0 0-6.88 3.44 3.44 0 0 0 0 6.88m-.47-4.617a.39.39 0 0 0-.157.33.47.47 0 1 1-.938 0c0-.467.212-.836.526-1.076.302-.23.681-.33 1.037-.33s.735.1 1.037.33c.315.24.527.61.527 1.077 0 .33-.096.607-.29.816-.183.198-.41.288-.576.337-.07.02-.138.037-.194.049v.183a.47.47 0 0 1-.938 0v-.447c0-.2.096-.357.221-.458a.8.8 0 0 1 .28-.139c.065-.018.135-.034.189-.045l.015-.004c.063-.013.113-.024.161-.039.099-.029.137-.056.153-.073.006-.007.04-.044.04-.18a.39.39 0 0 0-.156-.33.8.8 0 0 0-.469-.14.8.8 0 0 0-.468.14m-.062 3.051a.532.532 0 1 1 1.063 0 .532.532 0 0 1-1.063 0" clip-rule="evenodd"/></svg>