<svg xmlns="http://www.w3.org/2000/svg" width="16" height="16" fill="none" class="persona-icon" viewBox="0 0 16 16"><path fill="currentColor" fill-rule="evenodd" d="M3 4.142A2.43 2.43 0 0 1 5.43 1.714H8.34c.495 0 .968.205 1.306.567L12.52 5.36c.309.331.48.766.48 1.219v.425a4.44 4.44 0 0 0-4.95 7.282H5.43A2.43 2.43 0 0 1 3 11.857zm6.143-.935v1.579c0 .434.352.785.786.785h1.421z" clip-rule="evenodd"/><path fill="currentColor" d="m11.323 11.371.003-.001z"/><path fill="currentColor" fill-rule="evenodd" d="M11.006 14.411a3.44 3.44 0 1 1 0-6.88 3.44 3.44 0 0 1 0 6.88m-.47-4.617a.8.8 0 0 1 .468-.139c.192 0 .36.056.469.14a.39.39 0 0 1 .157.33c0 .136-.035.173-.041.18-.016.017-.054.044-.153.073a2 2 0 0 1-.16.04l-.016.003a3 3 0 0 0-.188.045.8.8 0 0 0-.28.14.58.58 0 0 0-.222.457v.447a.47.47 0 0 0 .938 0v-.183c.056-.012.124-.028.194-.049.166-.049.393-.139.576-.337.194-.21.29-.487.29-.816 0-.468-.212-.837-.527-1.077a1.72 1.72 0 0 0-1.037-.33c-.356 0-.735.1-1.037.33-.314.24-.526.61-.526 1.077a.47.47 0 1 0 .938 0c0-.158.062-.258.157-.33m-.062 3.051a.532.532 0 1 0 1.063 0 .532.532 0 0 0-1.063 0" clip-rule="evenodd"/></svg>