<svg xmlns="http://www.w3.org/2000/svg" width="20" height="20" fill="none" class="persona-icon" viewBox="0 0 20 20"><path fill="currentColor" fill-rule="evenodd" d="M3.975 5.371a2.94 2.94 0 0 1 2.94-2.94h3.495c.6 0 1.175.25 1.585.69l3.447 3.693c.375.402.583.93.583 1.48v.466a5.378 5.378 0 0 0-6.011 8.807h-3.1a2.94 2.94 0 0 1-2.939-2.939zm7.421-1.06v1.832c0 .507.411.918.918.918h1.648z" clip-rule="evenodd"/><path fill="currentColor" d="M13.987 14.046"/><path fill="currentColor" fill-rule="evenodd" d="M13.607 17.693a4.128 4.128 0 1 1 0-8.256 4.128 4.128 0 0 1 0 8.256m-.564-5.54c.13-.1.332-.166.562-.166s.432.067.562.166a.46.46 0 0 1 .189.397c0 .163-.042.208-.05.216-.018.02-.064.053-.183.088-.057.017-.118.03-.193.047l-.018.004a3 3 0 0 0-.226.055 1 1 0 0 0-.336.166.7.7 0 0 0-.266.55v.536a.563.563 0 1 0 1.126 0v-.22c.067-.015.148-.033.232-.058.2-.059.472-.167.691-.404.233-.252.349-.585.349-.98 0-.561-.255-1.005-.633-1.293a2.06 2.06 0 0 0-1.244-.396c-.427 0-.882.12-1.244.396a1.59 1.59 0 0 0-.632 1.293.563.563 0 1 0 1.126 0c0-.19.074-.31.188-.397m-.074 3.662a.638.638 0 1 0 1.276 0 .638.638 0 0 0-1.276 0" clip-rule="evenodd"/></svg>