<svg xmlns="http://www.w3.org/2000/svg" width="24" height="24" fill="none" class="persona-icon" viewBox="0 0 24 24"><path fill="currentColor" fill-rule="evenodd" d="M4.056 5.834A3.833 3.833 0 0 1 7.889 2h4.657a2.8 2.8 0 0 1 2.05.892l4.594 4.92a2.8 2.8 0 0 1 .754 1.915v.765A7 7 0 0 0 12.175 22H7.89a3.833 3.833 0 0 1-3.833-3.834zm11.027 2.333h2.386l-3.691-3.954v2.649c0 .72.584 1.305 1.305 1.305" clip-rule="evenodd"/><path fill="currentColor" fill-rule="evenodd" d="M16.806 22.25a5.5 5.5 0 1 0 0-11 5.5 5.5 0 0 0 0 11m-.751-7.381a.62.62 0 0 0-.252.528.75.75 0 0 1-1.5 0c0-.747.339-1.338.842-1.722.483-.367 1.09-.528 1.658-.528.57 0 1.175.16 1.658.528.503.384.842.975.842 1.722 0 .527-.154.97-.464 1.306-.292.316-.655.46-.92.538a5 5 0 0 1-.31.078v.293a.75.75 0 1 1-1.5 0v-.715c0-.319.153-.571.354-.732.163-.13.344-.191.448-.222.102-.03.215-.054.3-.072l.025-.006c.1-.021.181-.04.258-.062.157-.047.218-.09.244-.118.01-.01.065-.07.065-.288a.62.62 0 0 0-.251-.529c-.174-.132-.443-.221-.749-.221s-.575.09-.748.222m-.1 4.878a.85.85 0 1 1 1.7 0 .85.85 0 0 1-1.7 0" clip-rule="evenodd"/></svg>