<svg xmlns="http://www.w3.org/2000/svg" width="20" height="20" fill="none" class="persona-icon" viewBox="0 0 20 20"><path fill="currentColor" fill-rule="evenodd" d="M4.6 4c-1.184 0-2.143.96-2.143 2.143v1.543a.6.6 0 0 0 .6.6 1.714 1.714 0 1 1 0 3.428.6.6 0 0 0-.6.6v1.543c0 1.184.96 2.143 2.143 2.143h10.8c1.183 0 2.143-.96 2.143-2.143v-1.543a.6.6 0 0 0-.6-.6 1.714 1.714 0 0 1 0-3.428.6.6 0 0 0 .6-.6V6.143C17.543 4.959 16.583 4 15.4 4zm3.523 5.319a1.126 1.126 0 1 1 0-2.252 1.126 1.126 0 0 1 0 2.252m-.861 2.64 4.629-4.628a.6.6 0 0 1 .848.848L8.11 12.808a.6.6 0 1 1-.848-.849m4.614 1.113a1.126 1.126 0 1 1 0-2.252 1.126 1.126 0 0 1 0 2.252" clip-rule="evenodd"/></svg>