<svg xmlns="http://www.w3.org/2000/svg" width="24" height="24" fill="none" class="persona-icon" viewBox="0 0 24 24"><path fill="currentColor" fill-rule="evenodd" d="M4.806 4.056A2.806 2.806 0 0 0 2 6.86v2.056c0 .414.336.75.75.75a2.333 2.333 0 1 1 0 4.667.75.75 0 0 0-.75.75v2.055a2.806 2.806 0 0 0 2.806 2.806h14.388A2.806 2.806 0 0 0 22 17.139v-2.055a.75.75 0 0 0-.75-.75 2.333 2.333 0 0 1 0-4.667.75.75 0 0 0 .75-.75V6.86a2.806 2.806 0 0 0-2.806-2.805zm4.693 7.036a1.5 1.5 0 1 1 0-3 1.5 1.5 0 0 1 0 3m-1.113 3.553 6.167-6.166a.75.75 0 0 1 1.06 1.06l-6.166 6.167a.75.75 0 0 1-1.06-1.06m6.114 1.448a1.5 1.5 0 1 1 0-3 1.5 1.5 0 0 1 0 3" clip-rule="evenodd"/></svg>