<svg xmlns="http://www.w3.org/2000/svg" width="16" height="16" fill="none" class="persona-icon" viewBox="0 0 16 16"><path fill="currentColor" d="M5.25 2.15a1.15 1.15 0 1 1-2.3 0 1.15 1.15 0 0 1 2.3 0M9.15 2.15a1.15 1.15 0 1 1-2.3 0 1.15 1.15 0 0 1 2.3 0M13.05 2.15a1.15 1.15 0 1 1-2.3 0 1.15 1.15 0 0 1 2.3 0M5.25 6.05a1.15 1.15 0 1 1-2.3 0 1.15 1.15 0 0 1 2.3 0M9.15 6.05a1.15 1.15 0 1 1-2.3 0 1.15 1.15 0 0 1 2.3 0M13.05 6.05a1.15 1.15 0 1 1-2.3 0 1.15 1.15 0 0 1 2.3 0M5.25 9.95a1.15 1.15 0 1 1-2.3 0 1.15 1.15 0 0 1 2.3 0M9.15 9.95a1.15 1.15 0 1 1-2.3 0 1.15 1.15 0 0 1 2.3 0M13.05 9.95a1.15 1.15 0 1 1-2.3 0 1.15 1.15 0 0 1 2.3 0M9.15 13.85a1.15 1.15 0 1 1-2.3 0 1.15 1.15 0 0 1 2.3 0"/></svg>