<svg xmlns="http://www.w3.org/2000/svg" width="20" height="20" fill="none" class="persona-icon" viewBox="0 0 20 20"><path fill="currentColor" d="M7.278 4.167a1.167 1.167 0 1 1-2.333 0 1.167 1.167 0 0 1 2.333 0M7.278 8.056a1.167 1.167 0 1 1-2.333 0 1.167 1.167 0 0 1 2.333 0M7.278 11.944a1.167 1.167 0 1 1-2.333 0 1.167 1.167 0 0 1 2.333 0M11.167 4.167a1.167 1.167 0 1 1-2.333 0 1.167 1.167 0 0 1 2.333 0M11.167 8.056a1.167 1.167 0 1 1-2.333 0 1.167 1.167 0 0 1 2.333 0M11.167 11.944a1.167 1.167 0 1 1-2.333 0 1.167 1.167 0 0 1 2.333 0M11.167 15.833a1.167 1.167 0 1 1-2.333 0 1.167 1.167 0 0 1 2.333 0M15.055 4.167a1.167 1.167 0 1 1-2.333 0 1.167 1.167 0 0 1 2.333 0M15.055 8.056a1.167 1.167 0 1 1-2.333 0 1.167 1.167 0 0 1 2.333 0M15.055 11.944a1.167 1.167 0 1 1-2.333 0 1.167 1.167 0 0 1 2.333 0"/></svg>