<svg xmlns="http://www.w3.org/2000/svg" width="20" height="20" fill="none" class="persona-icon" viewBox="0 0 20 20"><path fill="currentColor" d="M7 3.4a1.4 1.4 0 1 1-2.8 0 1.4 1.4 0 0 1 2.8 0M11.4 3.4a1.4 1.4 0 1 1-2.8 0 1.4 1.4 0 0 1 2.8 0M15.8 3.4a1.4 1.4 0 1 1-2.8 0 1.4 1.4 0 0 1 2.8 0M7 7.8a1.4 1.4 0 1 1-2.8 0 1.4 1.4 0 0 1 2.8 0M11.4 7.8a1.4 1.4 0 1 1-2.8 0 1.4 1.4 0 0 1 2.8 0M15.8 7.8a1.4 1.4 0 1 1-2.8 0 1.4 1.4 0 0 1 2.8 0M7 12.2a1.4 1.4 0 1 1-2.8 0 1.4 1.4 0 0 1 2.8 0M11.4 12.2a1.4 1.4 0 1 1-2.8 0 1.4 1.4 0 0 1 2.8 0M15.8 12.2a1.4 1.4 0 1 1-2.8 0 1.4 1.4 0 0 1 2.8 0M11.4 16.6a1.4 1.4 0 1 1-2.8 0 1.4 1.4 0 0 1 2.8 0"/></svg>