<svg xmlns="http://www.w3.org/2000/svg" width="24" height="24" fill="none" class="persona-icon" viewBox="0 0 24 24"><path fill="currentColor" d="M8.5 4.5a1.5 1.5 0 1 1-3 0 1.5 1.5 0 0 1 3 0M8.5 9.5a1.5 1.5 0 1 1-3 0 1.5 1.5 0 0 1 3 0M8.5 14.5a1.5 1.5 0 1 1-3 0 1.5 1.5 0 0 1 3 0M13.5 4.5a1.5 1.5 0 1 1-3 0 1.5 1.5 0 0 1 3 0M13.5 9.5a1.5 1.5 0 1 1-3 0 1.5 1.5 0 0 1 3 0M13.5 14.5a1.5 1.5 0 1 1-3 0 1.5 1.5 0 0 1 3 0M13.5 19.5a1.5 1.5 0 1 1-3 0 1.5 1.5 0 0 1 3 0M18.5 4.5a1.5 1.5 0 1 1-3 0 1.5 1.5 0 0 1 3 0M18.5 9.5a1.5 1.5 0 1 1-3 0 1.5 1.5 0 0 1 3 0M18.5 14.5a1.5 1.5 0 1 1-3 0 1.5 1.5 0 0 1 3 0"/></svg>