<svg xmlns="http://www.w3.org/2000/svg" width="32" height="32" fill="none" class="persona-icon" viewBox="0 0 32 32"><path fill="currentColor" d="M11.333 6a2 2 0 1 1-4 0 2 2 0 0 1 4 0M11.333 12.667a2 2 0 1 1-4 0 2 2 0 0 1 4 0M11.333 19.333a2 2 0 1 1-4 0 2 2 0 0 1 4 0M18 6a2 2 0 1 1-4 0 2 2 0 0 1 4 0M18 12.667a2 2 0 1 1-4 0 2 2 0 0 1 4 0M18 19.333a2 2 0 1 1-4 0 2 2 0 0 1 4 0M18 26a2 2 0 1 1-4 0 2 2 0 0 1 4 0M24.667 6a2 2 0 1 1-4 0 2 2 0 0 1 4 0M24.667 12.667a2 2 0 1 1-4 0 2 2 0 0 1 4 0M24.667 19.333a2 2 0 1 1-4 0 2 2 0 0 1 4 0"/></svg>