<svg xmlns="http://www.w3.org/2000/svg" width="16" height="16" fill="none" class="persona-icon" viewBox="0 0 16 16"><path fill="currentColor" fill-rule="evenodd" d="M5.429 2.714c-.79 0-1.429.64-1.429 1.429v1.355a.5.5 0 1 1-1 0V4.143a2.43 2.43 0 0 1 2.429-2.429H8.34c.495 0 .968.206 1.306.567L12.52 5.36c.308.33.48.766.48 1.218v5.331a2.376 2.376 0 0 1-2.376 2.377h-.122a.5.5 0 0 1 0-1h.122c.76 0 1.376-.617 1.376-1.377V6.572H9.928c-.986 0-1.785-.8-1.785-1.786V2.714zm3.714.493v1.579c0 .434.352.786.785.786h1.422z" clip-rule="evenodd"/><path fill="currentColor" d="M4.23 8.622h.764v.765H4.23zM4.994 10.151H4.23v.765h.764zM6.523 8.622H5.76v.765h.764zM6.523 10.151H5.76v.765h.764z"/><path fill="currentColor" fill-rule="evenodd" d="M2.7 6.593a.5.5 0 0 0-.5.5v6.572h-.264a.5.5 0 1 0 0 1h6.88a.5.5 0 0 0 0-1h-.264V7.093a.5.5 0 0 0-.5-.5zm4.852 7.072H6.16v-1.75a.236.236 0 0 0-.235-.235h-1.1a.236.236 0 0 0-.236.236v1.749H3.201V7.593h4.351z" clip-rule="evenodd"/></svg>