<svg xmlns="http://www.w3.org/2000/svg" width="32" height="32" fill="none" class="persona-icon" viewBox="0 0 32 32"><path fill="currentColor" fill-rule="evenodd" d="M8 8.286v2.71a1 1 0 1 1-2 0v-2.71a4.857 4.857 0 0 1 4.857-4.858h5.826c.99 0 1.935.411 2.61 1.135l5.747 6.156c.617.662.96 1.533.96 2.437v10.662a4.753 4.753 0 0 1-4.753 4.753h-.243a1 1 0 1 1 0-2h.243A2.753 2.753 0 0 0 24 23.818V13.143h-4.143a3.57 3.57 0 0 1-3.571-3.572V5.428h-5.429A2.857 2.857 0 0 0 8 8.286M18.286 9.57c0 .868.703 1.572 1.571 1.572H22.7l-4.413-4.729z" clip-rule="evenodd"/><path fill="currentColor" d="M9.989 17.244v1.529h-1.53v-1.53zM8.46 20.302h1.529v1.529h-1.53zM11.518 17.244h1.528v1.529h-1.528zM11.518 20.302h1.528v1.529h-1.528z"/><path fill="currentColor" fill-rule="evenodd" d="M4.402 14.186a1 1 0 0 1 1-1h10.702a1 1 0 0 1 1 1v13.143h.53a1 1 0 1 1 0 2H3.872a1 1 0 1 1 0-2h.529zm2 13.143h2.776V23.83c0-.26.211-.471.471-.471h2.2c.26 0 .472.21.472.471v3.498h2.783V15.186H6.402z" clip-rule="evenodd"/></svg>