<svg xmlns="http://www.w3.org/2000/svg" width="32" height="32" fill="none"><path fill="#000" fill-rule="evenodd" d="M5.218 6.46c.188-.185.442-.288.707-.288h5.647c.553 0 1 .44 1 .985v3.76c1.318 1.29 2.46 2.532 2.838 4.955.385 2.464-.023 6.107-1.45 12.36a.997.997 0 0 1-.976.768h-8.47a.997.997 0 0 1-.977-.774c-1.393-6.253-1.781-9.893-1.397-12.354.377-2.417 1.499-3.657 2.785-4.948V7.157c0-.262.106-.512.293-.697Zm6.964 20.57c1.282-5.768 1.559-8.89 1.251-10.859-.299-1.916-1.146-2.762-2.563-4.142a.978.978 0 0 1-.298-.7V8.141H6.926v3.186c0 .26-.104.508-.289.693-1.383 1.38-2.22 2.227-2.52 4.15-.308 1.972-.046 5.095 1.204 10.859h6.86ZM19.637 29c-.552 0-1-.441-1-.985a.993.993 0 0 1 1-.985h3.084v-6.228c-.475-.39-.991-.661-1.578-.97l-.14-.075c-.738-.39-1.619-.87-2.277-1.768-.67-.913-1.03-2.133-1.058-3.864-.027-1.721.272-4.024.994-7.184a.997.997 0 0 1 .975-.77h8.47c.47 0 .877.323.977.775.705 3.163.973 5.473.906 7.201-.068 1.743-.48 2.963-1.195 3.87-.697.884-1.606 1.359-2.357 1.745l-.078.04c-.625.322-1.161.598-1.639.995v6.233h3.387c.552 0 1 .441 1 .985a.993.993 0 0 1-1 .985h-8.47Zm4.08-9.932c.573-.425 1.157-.725 1.657-.981l.138-.07c.768-.396 1.305-.703 1.704-1.21.382-.484.718-1.263.775-2.735.053-1.36-.134-3.251-.693-5.93h-6.856c-.579 2.686-.796 4.584-.774 5.952.023 1.485.327 2.263.678 2.74.362.494.86.795 1.602 1.188l.171.09c.479.25 1.04.545 1.598.956Z" clip-rule="evenodd"/><path fill="#000" fill-rule="evenodd" d="M4.926 2.985a.993.993 0 0 1 1-.985h5.647c.552 0 1 .441 1 .985v4.172a.992.992 0 0 1-1 .985H5.926c-.553 0-1-.441-1-.985V2.985Zm2 .985v2.202h3.647V3.97H6.926ZM8.75 16.485a1.11 1.11 0 0 0-1.118 1.1c0 .609.5 1.102 1.117 1.102a1.11 1.11 0 0 0 1.118-1.101c0-.608-.5-1.101-1.118-1.101Zm-3.118 1.1c0-1.695 1.395-3.07 3.117-3.07s3.118 1.375 3.118 3.07c0 1.697-1.396 3.072-3.118 3.072s-3.117-1.375-3.117-3.071Z" clip-rule="evenodd"/></svg>