<svg xmlns="http://www.w3.org/2000/svg" width="20" height="20" fill="none" class="persona-icon" viewBox="0 0 20 20"><path fill="currentColor" d="M10.505 10.187c-.127.072-.13.123-.13.162a.625.625 0 0 1-1.25 0c0-.599.35-1.013.758-1.247.389-.223.86-.309 1.289-.309s.9.086 1.288.31c.407.233.759.647.759 1.246 0 .631-.284 1.12-.706 1.433-.219.161-.465.27-.716.336v.092a.625.625 0 1 1-1.25 0v-.638c0-.345.28-.625.624-.625.244 0 .46-.068.598-.17.117-.086.2-.209.2-.428 0-.04-.005-.09-.13-.162-.145-.083-.384-.144-.668-.144-.283 0-.522.06-.666.144M11.16 14.678a.699.699 0 1 1-.002-1.398.699.699 0 0 1 .002 1.398"/><path fill="currentColor" fill-rule="evenodd" d="M6.445 3.475h4.977c1.513 0 2.759 1.206 2.759 2.719v.827a2.76 2.76 0 0 1 2.133 2.688v4.65l.642 1.256a.625.625 0 0 1-.556.91H8.578a2.76 2.76 0 0 1-2.759-2.758v-.705H3.6a.625.625 0 0 1-.556-.91l.642-1.255V6.193c0-1.513 1.246-2.719 2.758-2.719m.624 8.978v1.314c0 .833.676 1.508 1.509 1.508h6.8l-.314-.615V9.71c0-.833-.675-1.509-1.509-1.509H8.578c-.825 0-1.495.662-1.508 1.483v2.77m-1.25-2.78v-.006c0-1.512 1.247-2.718 2.759-2.718h4.353v-.755c0-.8-.664-1.469-1.509-1.469H6.444c-.844 0-1.508.669-1.508 1.469v4.853a.6.6 0 0 1-.068.285l-.246.48H5.82V9.674" clip-rule="evenodd"/></svg>