<svg xmlns="http://www.w3.org/2000/svg" width="20" height="20" fill="none" class="persona-icon" viewBox="0 0 20 20"><path fill="currentColor" d="M10.523 10.091c-.173.1-.22.2-.22.315a.59.59 0 0 1-.593.586.59.59 0 0 1-.593-.586c0-.628.364-1.07.808-1.326.425-.246.949-.344 1.43-.344.483 0 1.006.098 1.431.344.444.256.809.698.809 1.326 0 .684-.304 1.212-.76 1.553a2.315 2.315 0 0 1-.887.395v.222a.59.59 0 0 1-.592.585.59.59 0 0 1-.593-.585v-.744a.59.59 0 0 1 .593-.586c.3 0 .578-.083.765-.223.167-.124.288-.31.288-.617 0-.115-.047-.215-.22-.315-.192-.11-.492-.184-.833-.184-.341 0-.64.073-.833.184M11.356 15.453a.818.818 0 0 0 .823-.814.818.818 0 0 0-.823-.813.818.818 0 0 0-.823.813c0 .45.368.814.823.814"/><path fill="currentColor" fill-rule="evenodd" d="M5.885 2.5c-1.691 0-3.062 1.355-3.062 3.026v5.556l-.76 1.503a.58.58 0 0 0 .025.57.594.594 0 0 0 .505.277h2.7v1.042c0 1.671 1.37 3.026 3.061 3.026h9.053a.594.594 0 0 0 .505-.278.58.58 0 0 0 .025-.57l-.76-1.503V9.593c0-1.47-1.062-2.696-2.47-2.969V5.526c0-1.671-1.37-3.026-3.061-3.026zM4.008 5.526c0-1.024.84-1.855 1.877-1.855h5.761c1.036 0 1.877.83 1.877 1.855v1.041h-5.17c-1.69 0-3.06 1.355-3.06 3.026v2.668H3.55l.395-.78a.58.58 0 0 0 .062-.261zm2.47 4.067c0-1.024.84-1.854 1.876-1.854h5.761c1.037 0 1.877.83 1.877 1.854v5.833l.457.903H8.354a1.866 1.866 0 0 1-1.876-1.855z" clip-rule="evenodd"/></svg>