<svg xmlns="http://www.w3.org/2000/svg" width="24" height="24" fill="none" class="persona-icon" viewBox="0 0 24 24"><path fill="currentColor" d="M12.668 12.142c-.21.122-.26.24-.26.372a.77.77 0 1 1-1.539 0c0-.807.462-1.375 1.022-1.702.536-.314 1.195-.438 1.799-.438.604 0 1.262.124 1.798.438.56.327 1.022.895 1.022 1.701 0 .874-.383 1.55-.959 1.985-.33.248-.708.41-1.092.499v.255a.77.77 0 1 1-1.538 0v-.939a.77.77 0 0 1 .769-.77c.369 0 .708-.104.935-.275.2-.152.347-.377.347-.755 0-.131-.051-.249-.26-.371-.233-.137-.6-.228-1.022-.228-.422 0-.79.091-1.022.228ZM13.69 18.885a1.026 1.026 0 1 0-.002-2.053 1.026 1.026 0 0 0 .002 2.053Z"/><path fill="currentColor" d="M6.872 2.5a3.849 3.849 0 0 0-3.846 3.851v7.008L2.08 15.25a.771.771 0 0 0 .688 1.115h3.334v1.284A3.849 3.849 0 0 0 9.949 21.5H21.23a.769.769 0 0 0 .688-1.115l-.945-1.891v-7.008a3.851 3.851 0 0 0-3.077-3.774v-1.36A3.849 3.849 0 0 0 14.051 2.5h-7.18Zm9.487 5.135H9.924a3.849 3.849 0 0 0-3.821 3.851v3.338h-2.09l.47-.939a.771.771 0 0 0 .081-.345V6.351a2.31 2.31 0 0 1 2.308-2.31h7.18a2.31 2.31 0 0 1 2.307 2.31v1.284ZM7.641 17.65v-6.163a2.31 2.31 0 0 1 2.308-2.31h7.18a2.31 2.31 0 0 1 2.307 2.31v7.372l.55 1.101H9.95a2.31 2.31 0 0 1-2.308-2.31Z"/></svg>