<svg xmlns="http://www.w3.org/2000/svg" width="24" height="24" fill="none" class="persona-icon" viewBox="0 0 24 24"><path fill="currentColor" d="M12.628 12.18c-.173.101-.201.188-.201.278a.75.75 0 0 1-1.5 0c0-.747.43-1.272.944-1.573.492-.287 1.092-.4 1.64-.4.546 0 1.147.113 1.638.4.515.301.944.826.944 1.573 0 .8-.351 1.42-.882 1.821a2.6 2.6 0 0 1-.95.445v.178a.75.75 0 0 1-1.5 0v-.837a.75.75 0 0 1 .75-.75c.318 0 .607-.09.797-.233.164-.124.285-.307.285-.624 0-.09-.028-.177-.2-.278-.197-.114-.514-.194-.883-.194-.37 0-.686.08-.882.194M13.51 18.145a.917.917 0 1 1 0-1.833.917.917 0 0 1 0 1.833"/><path fill="currentColor" fill-rule="evenodd" d="M7.417 3.5h6.416a3.5 3.5 0 0 1 3.5 3.5v1.146a3.5 3.5 0 0 1 2.75 3.42v6.18l.837 1.668a.75.75 0 0 1-.67 1.086H10.167a3.5 3.5 0 0 1-3.5-3.5v-1.05H3.75a.75.75 0 0 1-.67-1.086l.837-1.666V7a3.5 3.5 0 0 1 3.5-3.5m-2 3.5v6.376a.75.75 0 0 1-.08.336l-.371.739h1.7v-2.888a3.5 3.5 0 0 1 3.5-3.5h5.667V7a2 2 0 0 0-2-2H7.417a2 2 0 0 0-2 2m2.75 4.565V17a2 2 0 0 0 2 2h8.868l-.452-.899v-6.536a2 2 0 0 0-2-2h-6.416a2 2 0 0 0-2 2" clip-rule="evenodd"/></svg>