<svg xmlns="http://www.w3.org/2000/svg" width="32" height="32" fill="none" class="persona-icon" viewBox="0 0 32 32"><path fill="currentColor" d="M16.844 16.227c-.228.135-.275.256-.275.394a1 1 0 1 1-2 0c0-.998.564-1.705 1.253-2.114.657-.39 1.46-.542 2.192-.542s1.534.152 2.19.542c.69.41 1.254 1.116 1.254 2.114 0 1.072-.463 1.908-1.17 2.45a3.5 3.5 0 0 1-1.274.604v.258a1 1 0 0 1-2 0v-1.136a1 1 0 0 1 1-1c.422 0 .805-.12 1.057-.314.22-.169.387-.421.387-.862 0-.138-.047-.259-.274-.394-.26-.155-.68-.262-1.17-.262s-.91.108-1.17.262M18.014 24.282a1.221 1.221 0 1 1-.003-2.443 1.221 1.221 0 0 1 .003 2.443"/><path fill="currentColor" fill-rule="evenodd" d="M9.889 4.5h8.555c2.593 0 4.667 2.131 4.667 4.726v1.566a4.67 4.67 0 0 1 3.667 4.56v8.44l1.119 2.265A1 1 0 0 1 27 27.5H13.556a4.667 4.667 0 0 1-4.667-4.666v-1.498H5a1 1 0 0 1-.896-1.443l1.118-2.263V9.226C5.222 6.63 7.296 4.5 9.89 4.5m2.015 6.486a4.6 4.6 0 0 1 1.652-.304h7.555V9.226c0-1.52-1.209-2.726-2.667-2.726H9.89c-1.458 0-2.667 1.205-2.667 2.726v8.637a1 1 0 0 1-.103.444l-.51 1.03h2.28v-3.985a4.67 4.67 0 0 1 3.015-4.366m-1.015 4.422v7.426a2.667 2.667 0 0 0 2.667 2.666H25.39l-.613-1.24v-8.908a2.667 2.667 0 0 0-2.667-2.667h-8.555q-.426.002-.81.125a2.72 2.72 0 0 0-1.857 2.598" clip-rule="evenodd"/></svg>