<svg xmlns="http://www.w3.org/2000/svg" width="32" height="32" fill="none" class="persona-icon" viewBox="0 0 32 32"><path fill="currentColor" d="M16.87 16.189c-.272.16-.338.315-.338.489 0 .56-.447 1.013-1 1.013-.552 0-1-.454-1-1.013 0-1.062.6-1.808 1.33-2.24.696-.412 1.551-.576 2.337-.576.785 0 1.641.164 2.338.576.728.432 1.329 1.178 1.329 2.24 0 1.149-.498 2.038-1.247 2.61-.428.328-.92.54-1.42.657v.336c0 .56-.448 1.014-1 1.014s-1-.454-1-1.014v-1.235c0-.56.448-1.013 1-1.013.48 0 .92-.137 1.215-.363.261-.2.452-.495.452-.992 0-.174-.066-.328-.338-.49-.303-.179-.781-.299-1.329-.299-.548 0-1.026.12-1.329.3M18.199 25.062c.736 0 1.333-.606 1.333-1.352 0-.746-.597-1.351-1.333-1.351-.737 0-1.334.605-1.334 1.351s.598 1.352 1.334 1.352"/><path fill="currentColor" fill-rule="evenodd" d="M9.336 3.502c-2.762 0-5 2.27-5 5.068v9.22L3.108 20.28c-.155.314-.139.687.044.986.182.299.504.48.85.48h4.334v1.69c0 2.799 2.238 5.067 5 5.067h14.666a.997.997 0 0 0 .85-.48c.183-.3.2-.672.045-.986l-1.228-2.49v-9.22c0-2.451-1.718-4.496-4-4.966V8.57c0-2.799-2.239-5.068-5-5.068zm12.333 6.757h-8.333c-2.762 0-5 2.269-5 5.068v4.392H5.62l.61-1.236c.07-.141.105-.296.105-.454V8.57c0-1.678 1.344-3.04 3-3.04h9.334c1.657 0 3 1.362 3 3.04zM10.336 20.745v-5.418c0-1.68 1.343-3.04 3-3.04h9.333l.016-.001c1.65.009 2.984 1.367 2.984 3.04v9.7l.715 1.45H13.336c-1.657 0-3-1.362-3-3.041z" clip-rule="evenodd"/></svg>