<svg xmlns="http://www.w3.org/2000/svg" width="32" height="32" fill="none" class="persona-icon" viewBox="0 0 32 32"><path fill="currentColor" d="M16.844 16.227c-.228.135-.275.256-.275.394a1 1 0 1 1-2 0c0-.998.564-1.705 1.253-2.114.657-.39 1.46-.542 2.192-.542s1.534.152 2.19.542c.69.41 1.254 1.116 1.254 2.114 0 1.072-.463 1.908-1.17 2.45a3.5 3.5 0 0 1-1.274.604v.258a1 1 0 0 1-2 0v-1.136a1 1 0 0 1 1-1c.422 0 .805-.12 1.057-.314.22-.169.387-.421.387-.862 0-.138-.047-.259-.274-.394-.26-.155-.68-.262-1.17-.262s-.91.108-1.17.262M18.014 24.282a1.221 1.221 0 1 0 .002-2.443 1.221 1.221 0 0 0-.002 2.443"/><path fill="currentColor" fill-rule="evenodd" d="M9.889 4.5c-2.592 0-4.667 2.131-4.667 4.726v8.404l-1.118 2.263A1 1 0 0 0 5 21.336h3.889v1.498a4.667 4.667 0 0 0 4.667 4.666H27a1 1 0 0 0 .897-1.443l-1.12-2.265v-8.44a4.67 4.67 0 0 0-3.666-4.56V9.226c0-2.595-2.074-4.726-4.667-4.726zm2.015 6.486a4.67 4.67 0 0 0-3.015 4.366v3.984h-2.28l.51-1.03a1 1 0 0 0 .103-.443V9.226c0-1.52 1.21-2.726 2.667-2.726h8.555c1.458 0 2.667 1.205 2.667 2.726v1.456h-7.555c-.583 0-1.14.107-1.652.304m-1.015 4.422c0-1.227.787-2.249 1.857-2.598q.384-.123.81-.125h8.555a2.667 2.667 0 0 1 2.667 2.667v8.907l.613 1.241H13.556a2.667 2.667 0 0 1-2.667-2.666z" clip-rule="evenodd"/></svg>