<svg xmlns="http://www.w3.org/2000/svg" width="32" height="32" fill="none"><path fill="#000" fill-rule="evenodd" d="M14.455 2.593c3.237-.392 6.5.461 9.145 2.39.448.328.55.96.227 1.414a.992.992 0 0 1-1.396.23 10.898 10.898 0 0 0-7.738-2.023 10.96 10.96 0 0 0-7.049 3.815.991.991 0 0 1-1.41.11 1.021 1.021 0 0 1-.109-1.427 12.953 12.953 0 0 1 8.33-4.509Zm-1.727 4.58A8.9 8.9 0 0 1 16 6.55c2.387 0 4.676.96 6.364 2.669.446.451.857.947 1.221 1.478a1.02 1.02 0 0 1-.251 1.409.992.992 0 0 1-1.392-.255 8.766 8.766 0 0 0-.992-1.2A6.956 6.956 0 0 0 16 8.575c-.88 0-1.741.167-2.545.485a.996.996 0 0 1-1.295-.575c-.2-.521.054-1.108.568-1.312Zm12.222.333a.992.992 0 0 1 1.401.193 13.278 13.278 0 0 1 2.62 8.84c-.037.557-.513.98-1.064.942a1.008 1.008 0 0 1-.931-1.078 11.235 11.235 0 0 0-2.217-7.479 1.021 1.021 0 0 1 .19-1.418Zm-13.9 1.713c.39.395.39 1.037 0 1.432A7.132 7.132 0 0 0 9 15.657c.005.473.026.873.047 1.268l.029.613c.024.595.025 1.198-.074 1.86-.2 1.34-.793 2.772-2.162 4.915a.993.993 0 0 1-1.382.3 1.02 1.02 0 0 1-.297-1.4c1.3-2.036 1.724-3.187 1.864-4.12.071-.474.074-.929.053-1.474-.007-.164-.016-.342-.026-.532-.021-.42-.046-.898-.052-1.413v-.012A9.17 9.17 0 0 1 9.636 9.22a.991.991 0 0 1 1.414 0Zm-5.542.46c.502.234.722.835.492 1.343a11.264 11.264 0 0 0-.81 6.704 1.012 1.012 0 0 1-.797 1.183 1 1 0 0 1-1.168-.808 13.312 13.312 0 0 1 .957-7.923.995.995 0 0 1 1.326-.498Zm8.579 1.306A4.947 4.947 0 0 1 16 10.6c2.017 0 3.474 1.318 3.984 2.004A5.083 5.083 0 0 1 21 15.656c.032 2.903.024 8.914-2.828 13.38a.993.993 0 0 1-1.382.302 1.02 1.02 0 0 1-.297-1.4c2.482-3.889 2.54-9.298 2.507-12.264v-.012a3.07 3.07 0 0 0-.61-1.836l-.002-.003c-.285-.383-1.214-1.198-2.388-1.198a2.967 2.967 0 0 0-2.121.89 3.04 3.04 0 0 0-.65.985.996.996 0 0 1-1.307.548 1.017 1.017 0 0 1-.541-1.323 5.068 5.068 0 0 1 1.083-1.642 4.996 4.996 0 0 1 1.623-1.098Zm9.799 2.343a1 1 0 0 1 1.179.79c.005.025.018.07.037.131.081.267.26.855.268 1.561l.005.367c.037 2.895.08 6.383-2.184 11.693a.995.995 0 0 1-1.315.528 1.017 1.017 0 0 1-.521-1.331c2.096-4.913 2.056-8.059 2.02-10.862l-.005-.372a2.396 2.396 0 0 0-.078-.623c-.018-.067-.036-.125-.058-.198a4.496 4.496 0 0 1-.13-.49c-.109-.547.24-1.082.782-1.194Zm-7.963 1.325a1.004 1.004 0 0 1 1.074.932c.12 1.585.08 4.174-.442 6.785a1 1 0 0 1-1.178.792 1.012 1.012 0 0 1-.782-1.193c.48-2.404.516-4.804.408-6.229a1.009 1.009 0 0 1 .92-1.087Zm-3.897 1.802a1.006 1.006 0 0 1 1.03.982c.036 1.258.024 2.671-.365 4.274-.39 1.608-1.147 3.359-2.544 5.34a.992.992 0 0 1-1.395.235 1.02 1.02 0 0 1-.233-1.412c1.267-1.795 1.907-3.314 2.23-4.646.324-1.337.342-2.534.307-3.731a1.007 1.007 0 0 1 .97-1.042Zm3.039 7.84c.512.208.76.799.553 1.317-.53 1.327-1.253 2.588-2.244 3.591a.991.991 0 0 1-1.414 0 1.021 1.021 0 0 1 0-1.432c.747-.756 1.342-1.76 1.803-2.917a.996.996 0 0 1 1.302-.56Z" clip-rule="evenodd"/></svg>