<svg xmlns="http://www.w3.org/2000/svg" width="32" height="32" fill="none"><path fill="#000" fill-rule="evenodd" d="M15.514 3.126a1 1 0 0 1 .972 0l12 6.667a1 1 0 0 1 .514.874v10.666a1 1 0 0 1-.514.875l-12 6.666a1 1 0 0 1-.972 0l-12-6.666A1 1 0 0 1 3 21.332V10.667a1 1 0 0 1 .514-.874l6.928-3.849.08-.13.073.045 4.92-2.733Zm-4.966 5.047-4.489 2.494L16 16.189l4.015-2.23-9.468-5.786Zm11.476 4.67-9.467-5.786L16 5.144l9.94 5.523-3.916 2.176ZM27 12.366l-10 5.556V26.3l10-5.555v-8.379ZM15 26.3v-8.378L5 12.366v8.379L15 26.3Z" clip-rule="evenodd"/></svg>