<svg xmlns="http://www.w3.org/2000/svg" width="32" height="32" fill="none"><path fill="#000" fill-rule="evenodd" d="M2 29.008a.996.996 0 0 1 1-.993h26c.552 0 1 .444 1 .993A.996.996 0 0 1 29 30H3c-.552 0-1-.444-1-.992ZM16.144 2.06a1.005 1.005 0 0 1 1.05.23l3.043 3.02a.99.99 0 0 1 .284.565l1.392 9.886 3.604.994a3.84 3.84 0 0 1 2.7 4.712c-.562 2.063-2.71 3.29-4.791 2.728l-14.79-3.987a3.85 3.85 0 0 1-2.845-3.383.983.983 0 0 1-.013-.124L5.3 6.097a.991.991 0 0 1 .522-.917 1.006 1.006 0 0 1 1.058.064l3.555 2.515c.19.134.326.33.386.554l1.265 4.735 2.46.68.944-10.821a.994.994 0 0 1 .654-.847ZM7.77 16.512c.005.03.008.059.01.089a1.86 1.86 0 0 0 1.38 1.692L23.95 22.28a1.91 1.91 0 0 0 2.337-1.332 1.858 1.858 0 0 0-1.306-2.28l-4.235-1.17a.995.995 0 0 1-.723-.818l-1.437-10.2-1.289-1.28-.861 9.89a.991.991 0 0 1-.427.73c-.244.167-.551.219-.838.14l-4.173-1.152a.996.996 0 0 1-.698-.702L8.98 9.168 7.39 8.043l.381 8.469Z" clip-rule="evenodd"/></svg>