<svg xmlns="http://www.w3.org/2000/svg" width="32" height="32" fill="none" class="persona-icon" viewBox="0 0 32 32"><path fill="currentColor" fill-rule="evenodd" d="m5.707 4.293 3.431 3.43c.165.092.302.229.394.394l18.175 18.176a1 1 0 0 1-1.414 1.414l-3.937-3.937c-.358.31-.823.497-1.333.497h-14.8A2.22 2.22 0 0 1 4 22.044V9.822C4 8.607 4.975 7.62 6.186 7.6L4.293 5.707a1 1 0 0 1 1.414-1.414M8.186 9.6H6.222C6.1 9.6 6 9.7 6 9.822v12.222c0 .123.1.223.222.223h14.63z" clip-rule="evenodd"/><path fill="currentColor" d="M27.307 7.672a1 1 0 0 1 .626.928v13.333a1 1 0 0 1-2 0V11.086l-2.874 2.993v2.52a1 1 0 1 1-2 0V9.823c0-.123-.1-.222-.222-.222h-6.864a1 1 0 1 1 0-2h6.864c1.227 0 2.222.995 2.222 2.222v1.37l3.153-3.285a1 1 0 0 1 1.095-.235"/></svg>