<svg xmlns="http://www.w3.org/2000/svg" width="32" height="32" fill="none" class="persona-icon" viewBox="0 0 32 32"><path fill="currentColor" fill-rule="evenodd" d="M5.707 4.293a1 1 0 0 0-1.414 1.414L6.186 7.6A2.22 2.22 0 0 0 4 9.822v12.222c0 1.228.995 2.223 2.222 2.223h14.8c.51 0 .977-.188 1.334-.497l3.937 3.937a1 1 0 0 0 1.414-1.414L9.532 8.118a1 1 0 0 0-.394-.394zM8.186 9.6l12.666 12.667H6.222A.22.22 0 0 1 6 22.044V9.822c0-.123.1-.222.222-.222z" clip-rule="evenodd"/><path fill="currentColor" d="M27.307 7.672a1 1 0 0 1 .626.928v13.333a1 1 0 0 1-2 0V11.086l-2.874 2.993v2.52a1 1 0 1 1-2 0V9.823c0-.123-.1-.222-.222-.222h-6.864a1 1 0 1 1 0-2h6.864c1.227 0 2.222.995 2.222 2.222v1.37l3.153-3.285a1 1 0 0 1 1.095-.235"/></svg>