<svg xmlns="http://www.w3.org/2000/svg" width="16" height="16" fill="none" class="persona-icon" viewBox="0 0 16 16"><path fill="currentColor" fill-rule="evenodd" d="M2.5 7.5A.5.5 0 0 1 3 8a5 5 0 0 0 8.515 3.556H10.14a.5.5 0 1 1 0-1h2.4a.5.5 0 0 1 .545.5V13.5a.5.5 0 1 1-1 0v-1.104a6 6 0 0 1-8.903-.821A6 6 0 0 1 2 8a.5.5 0 0 1 .5-.5m3.478-5.149A6 6 0 0 1 14 8a.5.5 0 0 1-1 0 5 5 0 0 0-8.515-3.556H5.86a.5.5 0 1 1 0 1h-2.4a.5.5 0 0 1-.545-.5V2.5a.5.5 0 1 1 1 0v1.104A6 6 0 0 1 5.979 2.35" clip-rule="evenodd"/></svg>