<svg xmlns="http://www.w3.org/2000/svg" width="20" height="20" fill="none" class="persona-icon" viewBox="0 0 20 20"><path fill="currentColor" fill-rule="evenodd" d="M3.6 9.375c.345 0 .625.28.625.625a5.775 5.775 0 0 0 9.76 4.18h-1.496a.625.625 0 1 1 0-1.25h2.79a.625.625 0 0 1 .679.625V16.4a.625.625 0 1 1-1.25 0v-1.186A7.025 7.025 0 0 1 2.975 10c0-.345.28-.625.625-.625m1.067-6.4c.345 0 .625.28.625.625v1.187a7.02 7.02 0 0 1 6.746-1.51A7.025 7.025 0 0 1 17.025 10a.625.625 0 1 1-1.25 0 5.775 5.775 0 0 0-9.76-4.18h1.496a.625.625 0 0 1 0 1.25h-2.79a.625.625 0 0 1-.679-.625V3.6c0-.345.28-.625.625-.625" clip-rule="evenodd"/></svg>