<svg xmlns="http://www.w3.org/2000/svg" width="16" height="16" fill="none" class="persona-icon" viewBox="0 0 16 16"><path fill="currentColor" d="M5.056 4.944a2.944 2.944 0 1 1 5.888 0 2.944 2.944 0 0 1-5.888 0M3.699 10.05A3.95 3.95 0 0 1 6.7 8.668h2.6c1.154 0 2.251.505 3 1.384.344.402.533.914.533 1.443v.173A2.333 2.333 0 0 1 10.5 14h-5a2.333 2.333 0 0 1-2.333-2.333v-.173c0-.53.188-1.04.532-1.443M10.631 7.884a3.94 3.94 0 0 0 1.314-2.94c0-.632-.15-1.23-.414-1.76h.169a2.35 2.35 0 0 1 0 4.7zM4.47 3.184a3.9 3.9 0 0 0-.414 1.76c0 1.168.507 2.217 1.313 2.94H4.3a2.35 2.35 0 0 1 0-4.7zM13.833 11.494c0-.767-.274-1.51-.772-2.093a5 5 0 0 0-.34-.36h.47q.132 0 .256.042c.728.243 1.22.924 1.22 1.692v.073c0 .187-.03.372-.084.547-.138.44-.484.694-.799.842q.049-.278.049-.57zM2.938 9.401a3.22 3.22 0 0 0-.772 2.093v.173q0 .29.048.567c-.317-.15-.664-.406-.8-.848a1.8 1.8 0 0 1-.081-.538v-.073c0-.768.491-1.45 1.22-1.692a.8.8 0 0 1 .255-.041h.47a5 5 0 0 0-.34.36"/></svg>