<svg xmlns="http://www.w3.org/2000/svg" width="32" height="32" fill="none" class="persona-icon" viewBox="0 0 32 32"><path fill="currentColor" d="M10.111 9.889a5.889 5.889 0 1 1 11.778 0 5.889 5.889 0 0 1-11.778 0M7.398 20.102a7.9 7.9 0 0 1 6.003-2.769h5.198a7.9 7.9 0 0 1 6.003 2.769 4.45 4.45 0 0 1 1.065 2.886v.345A4.667 4.667 0 0 1 21 28H11a4.667 4.667 0 0 1-4.666-4.667v-.345c0-1.058.377-2.082 1.064-2.886M21.262 15.767a7.87 7.87 0 0 0 2.627-5.878 7.86 7.86 0 0 0-.828-3.522h.339a4.7 4.7 0 0 1 0 9.4zM8.94 6.367a7.86 7.86 0 0 0-.829 3.522 7.87 7.87 0 0 0 2.627 5.878H8.6a4.7 4.7 0 0 1 0-9.4zM27.667 22.988a6.45 6.45 0 0 0-1.544-4.185 10 10 0 0 0-.68-.72h.94q.263 0 .512.083a3.57 3.57 0 0 1 2.438 3.384v.147c0 .373-.057.742-.167 1.094-.275.878-.967 1.386-1.597 1.683q.097-.556.098-1.14zM5.877 18.803a6.45 6.45 0 0 0-1.544 4.185v.345q0 .581.096 1.134c-.635-.298-1.33-.81-1.6-1.695a3.7 3.7 0 0 1-.163-1.075v-.147c0-1.535.983-2.898 2.44-3.384.164-.055.337-.083.51-.083h.94a10 10 0 0 0-.68.72"/></svg>