<svg xmlns="http://www.w3.org/2000/svg" width="24" height="24" fill="none"><path fill="#000" fill-rule="evenodd" d="M5.86 3.538a2.305 2.305 0 0 0-2.302 2.308v2.692a.768.768 0 1 1-1.535 0V5.846A3.842 3.842 0 0 1 5.86 2h2.687a.768.768 0 0 1 0 1.538H5.86Zm8.826-.769c0-.425.344-.769.768-.769h2.686a3.842 3.842 0 0 1 3.837 3.846v2.692a.768.768 0 1 1-1.535 0V5.846a2.305 2.305 0 0 0-2.302-2.308h-2.687a.768.768 0 0 1-.767-.769ZM2.791 15.333c.424 0 .767.345.767.77v2.05a2.305 2.305 0 0 0 2.302 2.309h2.687a.768.768 0 0 1 0 1.538H5.86a3.842 3.842 0 0 1-3.837-3.846v-2.051c0-.425.344-.77.768-.77Zm18.418 0c.424 0 .768.345.768.77v2.05A3.842 3.842 0 0 1 18.14 22h-2.687a.768.768 0 0 1 0-1.538h2.687a2.305 2.305 0 0 0 2.302-2.308v-2.051c0-.425.343-.77.767-.77Z" clip-rule="evenodd"/><path fill="#000" fill-rule="evenodd" d="M1 16.103c0-.425.344-.77.767-.77h20.466a.768.768 0 0 1 0 1.539H1.767a.768.768 0 0 1-.767-.77Z" clip-rule="evenodd"/></svg>