<svg xmlns="http://www.w3.org/2000/svg" width="32" height="32" fill="none"><path fill="#000" fill-rule="evenodd" d="M8.2 5.468c-1.602 0-2.9 1.278-2.9 2.855v3.359a.992.992 0 0 1-1 .984c-.552 0-1-.44-1-.984v-3.36C3.3 5.66 5.494 3.5 8.2 3.5h3.413c.552 0 1 .44 1 .984a.992.992 0 0 1-1 .984H8.2Zm11.188-.984a.992.992 0 0 1 1-.984H23.8c2.706 0 4.9 2.16 4.9 4.823v3.359a.992.992 0 0 1-1 .984c-.552 0-1-.44-1-.984v-3.36c0-1.576-1.298-2.853-2.9-2.853h-3.413c-.552 0-1-.441-1-.985ZM4.3 20.134c.552 0 1 .44 1 .984v2.56c0 1.576 1.298 2.854 2.9 2.854h3.413c.552 0 1 .44 1 .984a.992.992 0 0 1-1 .984H8.2c-2.706 0-4.9-2.16-4.9-4.823v-2.559a.992.992 0 0 1 1-.984Zm23.4 0c.552 0 1 .44 1 .984v2.56c0 2.663-2.194 4.822-4.9 4.822h-3.413c-.552 0-1-.44-1-.984a.992.992 0 0 1 1-.984H23.8c1.602 0 2.9-1.278 2.9-2.855v-2.559a.992.992 0 0 1 1-.984Z" clip-rule="evenodd"/><path fill="#000" fill-rule="evenodd" d="M2 21.118a.992.992 0 0 1 1-.984h26c.552 0 1 .44 1 .984a.992.992 0 0 1-1 .984H3c-.552 0-1-.44-1-.984Z" clip-rule="evenodd"/></svg>