<svg xmlns="http://www.w3.org/2000/svg" width="16" height="16" fill="none" class="persona-icon" viewBox="0 0 16 16"><path fill="currentColor" d="M6.835 2a2.944 2.944 0 1 0 0 5.889 2.944 2.944 0 0 0 0-5.889M10.613 3.111a.5.5 0 0 1 .5-.5h3.056a.5.5 0 1 1 0 1h-3.056a.5.5 0 0 1-.5-.5M10.613 5.556a.5.5 0 0 1 .5-.5h3.056a.5.5 0 1 1 0 1h-3.056a.5.5 0 0 1-.5-.5M11.113 7.5a.5.5 0 1 0 0 1h1.223a.5.5 0 0 0 0-1zM5.536 8.667a3.95 3.95 0 0 0-3.002 1.384 2.22 2.22 0 0 0-.532 1.443v.173A2.333 2.333 0 0 0 4.335 14h5a2.333 2.333 0 0 0 2.334-2.333v-.173c0-.53-.19-1.04-.533-1.443a3.95 3.95 0 0 0-3.001-1.384z"/></svg>