<svg xmlns="http://www.w3.org/2000/svg" width="20" height="20" fill="none" class="persona-icon" viewBox="0 0 20 20"><path fill="currentColor" d="M8.64 2.958a3.477 3.477 0 1 0 0 6.954 3.477 3.477 0 0 0 0-6.954M13.007 4.296c0-.345.28-.625.625-.625h3.565a.625.625 0 1 1 0 1.25h-3.565a.625.625 0 0 1-.625-.625M13.007 7.148c0-.345.28-.625.625-.625h3.565a.625.625 0 1 1 0 1.25h-3.565a.625.625 0 0 1-.625-.625M13.632 9.375a.625.625 0 1 0 0 1.25h1.426a.625.625 0 0 0 0-1.25zM7.125 10.736c-1.36 0-2.65.595-3.533 1.63a2.64 2.64 0 0 0-.632 1.71v.202a2.764 2.764 0 0 0 2.764 2.764h5.834a2.764 2.764 0 0 0 2.764-2.764v-.202c0-.627-.224-1.234-.631-1.71a4.64 4.64 0 0 0-3.534-1.63z"/></svg>