<svg xmlns="http://www.w3.org/2000/svg" width="16" height="16" fill="none" class="persona-icon" viewBox="0 0 16 16"><path fill="currentColor" fill-rule="evenodd" d="M2.688 6.671A1.19 1.19 0 0 1 2 5.594V3.53c0-.656.532-1.187 1.188-1.187h9.625c.655 0 1.187.531 1.187 1.187v2.063c0 .477-.281.888-.687 1.077V7.84a.5.5 0 1 1-1 0V6.781H3.688v5.688c0 .103.083.187.187.187h5.458a.5.5 0 1 1 0 1H3.875a1.187 1.187 0 0 1-1.187-1.187zm.5-.89h9.625A.19.19 0 0 0 13 5.594V3.53a.187.187 0 0 0-.187-.187H3.188A.19.19 0 0 0 3 3.53v2.063c0 .103.084.187.188.187" clip-rule="evenodd"/><path fill="currentColor" d="M6.125 8.344a.5.5 0 0 1 .5-.5h2.75a.5.5 0 1 1 0 1h-2.75a.5.5 0 0 1-.5-.5M12.186 8.98l1.667 1.666a.5.5 0 1 1-.707.707l-.813-.813v2.616a.5.5 0 1 1-1 0V10.54l-.813.814a.5.5 0 1 1-.707-.708l1.666-1.666a.5.5 0 0 1 .707 0"/></svg>