<svg xmlns="http://www.w3.org/2000/svg" width="32" height="32" fill="none" class="persona-icon" viewBox="0 0 32 32"><path fill="currentColor" fill-rule="evenodd" d="M5.375 13.342A2.38 2.38 0 0 1 4 11.187V7.064a2.375 2.375 0 0 1 2.375-2.375h19.25A2.375 2.375 0 0 1 28 7.063v4.125c0 .954-.563 1.777-1.375 2.154v2.336a1 1 0 1 1-2 0v-2.116H7.375v11.376c0 .207.168.375.375.375h10.917a1 1 0 1 1 0 2H7.75a2.375 2.375 0 0 1-2.375-2.375zm1-1.78h19.25a.375.375 0 0 0 .375-.374V7.062a.375.375 0 0 0-.375-.375H6.375A.375.375 0 0 0 6 7.063v4.126c0 .207.168.374.375.374" clip-rule="evenodd"/><path fill="currentColor" d="M12.25 16.688a1 1 0 0 1 1-1h5.5a1 1 0 1 1 0 2h-5.5a1 1 0 0 1-1-1M24.373 17.96a1 1 0 0 0-1.414 0l-3.333 3.333a1 1 0 0 0 1.414 1.414l1.626-1.626v5.232a1 1 0 0 0 2 0V21.08l1.627 1.626a1 1 0 1 0 1.414-1.414z"/></svg>