<svg xmlns="http://www.w3.org/2000/svg" width="16" height="16" fill="none"><path fill="#000" fill-rule="evenodd" d="M8.784 4.208c-.217.325-.283.57-.283.647a.47.47 0 0 1-.17.36H8.33a.518.518 0 0 1-.536.078.477.477 0 0 1-.295-.436v-.002c0-.078-.066-.322-.283-.647a3.035 3.035 0 0 0-.887-.865 2.428 2.428 0 0 0-1.335-.387c-.508.005-1.117.169-1.822.627-.956.722-1.245 1.543-1.157 2.404.092.904.607 1.897 1.364 2.878C4.78 10.681 6.878 12.286 8 12.964c1.122-.678 3.22-2.283 4.621-4.099.758-.981 1.272-1.974 1.364-2.878.088-.861-.2-1.682-1.157-2.404-.705-.458-1.314-.622-1.822-.627a2.428 2.428 0 0 0-1.335.387c-.38.239-.681.559-.887.865Zm-.527 9.724a.52.52 0 0 1-.506.005c-1.135-.623-3.57-2.423-5.177-4.504-.802-1.04-1.437-2.199-1.554-3.354-.122-1.194.316-2.335 1.548-3.258a.493.493 0 0 1 .026-.019c.845-.552 1.648-.794 2.39-.802.74-.007 1.38.22 1.896.545.477.3.853.688 1.12 1.064a4.013 4.013 0 0 1 1.12-1.064A3.461 3.461 0 0 1 11.017 2c.74.008 1.544.25 2.39.802a.502.502 0 0 1 .025.019c1.232.923 1.67 2.064 1.548 3.258-.117 1.155-.752 2.315-1.554 3.354-1.603 2.076-4.03 3.872-5.169 4.499Z" clip-rule="evenodd"/></svg>