<svg xmlns="http://www.w3.org/2000/svg" width="32" height="32" fill="none"><path fill="#000" fill-rule="evenodd" d="M4 5.889C4 3.74 5.766 2 7.944 2h11.718c2.178 0 3.944 1.741 3.944 3.889v5.055c0 .553-.454 1-1.015 1-.56 0-1.014-.447-1.014-1V5.89C21.578 4.846 20.72 4 19.663 4H7.944c-1.058 0-1.916.846-1.916 1.889V26.11c0 1.043.858 1.889 1.916 1.889h6.591c.56 0 1.014.448 1.014 1s-.454 1-1.014 1H7.944C5.766 30 4 28.259 4 26.111V5.89Z" clip-rule="evenodd"/><path fill="#000" fill-rule="evenodd" d="M11.324 7.333c0-.552.454-1 1.014-1h2.93c.56 0 1.014.448 1.014 1 0 .553-.454 1-1.014 1h-2.93c-.56 0-1.014-.447-1.014-1Z" clip-rule="evenodd"/><path fill="#000" d="M15.268 24.667c0 .797-.656 1.444-1.465 1.444a1.455 1.455 0 0 1-1.465-1.444c0-.798.656-1.445 1.465-1.445s1.465.647 1.465 1.445Z"/><path fill="#000" fill-rule="evenodd" d="M17.48 23.96a.99.99 0 0 0 0 1.414l4.395 4.333a1.022 1.022 0 0 0 1.434 0l4.394-4.333a.99.99 0 0 0 0-1.414 1.024 1.024 0 0 0-1.434 0l-2.663 2.626V16c0-.552-.454-1-1.015-1-.56 0-1.014.448-1.014 1v10.586l-2.663-2.626a1.024 1.024 0 0 0-1.434 0Z" clip-rule="evenodd"/></svg>