<svg xmlns="http://www.w3.org/2000/svg" width="32" height="32" fill="none"><path fill="#000" fill-rule="evenodd" d="M9.713 4c-1.751 0-3.17 1.39-3.17 3.105v16.421c0 1.715 1.419 3.106 3.17 3.106h4.191a1.01 1.01 0 0 1 1.021 1c0 .552-.457 1-1.02 1H9.712c-2.88 0-5.213-2.286-5.213-5.106V7.106C4.5 4.285 6.834 2 9.713 2h6.33c1.058 0 2.068.43 2.79 1.187l6.244 6.553a3.695 3.695 0 0 1 1.026 2.55v5.763c0 .552-.457 1-1.021 1a1.01 1.01 0 0 1-1.021-1v-5.764c0-.026 0-.052-.002-.079h-4.566c-2.107 0-3.815-1.673-3.815-3.736V4H9.713Zm8.007 1.414v3.06c0 .959.794 1.736 1.773 1.736h3.124L17.72 5.414Z" clip-rule="evenodd"/><path fill="#000" d="M21.565 29.707c.4.39 1.046.39 1.444 0a.986.986 0 0 0 0-1.414l-2.448-2.398h5.918a1.01 1.01 0 0 0 1.021-1c0-.552-.457-1-1.021-1h-5.918l2.448-2.398a.986.986 0 0 0 0-1.415 1.036 1.036 0 0 0-1.444 0l-4.191 4.106a.986.986 0 0 0 0 1.414l4.191 4.105Z"/></svg>