<svg xmlns="http://www.w3.org/2000/svg" width="80" height="80" fill="none" class="persona-ilustration" viewBox="0 0 80 80"><g clip-path="url(#MRtIo7flid_a)"><path fill="#4C39B0" d="M47.988 27.817c4.727 2.728 7.791 7.898 7.791 14.335 0 10.797-8.62 21.069-19.251 22.944-4.294.757-8.259.029-11.46-1.819-4.728-2.728-7.792-7.898-7.792-14.335 0-10.797 8.62-21.069 19.252-22.944 4.293-.757 8.258-.029 11.46 1.82"/><path fill="#4C39B0" d="m54.859 31.784.074.043-6.945-4.01c-3.202-1.848-7.167-2.576-11.46-1.819l6.945 4.01c2.738-.483 5.343-.361 7.7.269 2.872 2.908 4.606 7.033 4.606 11.875 0 10.797-8.619 21.069-19.251 22.944-2.739.483-5.344.361-7.702-.27-2.872-2.908-4.605-7.033-4.605-11.875 0-10.796 8.62-21.068 19.252-22.943l-6.945-4.01c-10.633 1.875-19.252 12.147-19.252 22.944 0 6.437 3.064 11.607 7.792 14.335l6.94 4.007.005.003c3.202 1.847 7.166 2.575 11.46 1.818 10.632-1.874 19.251-12.146 19.251-22.943 0-6.437-3.064-11.607-7.792-14.335z"/><path fill="#3E68F5" d="M62.724 46.162c0 10.797-8.62 21.069-19.252 22.943s-19.251-5.357-19.251-16.154c0-10.796 8.619-21.068 19.251-22.943s19.252 5.358 19.252 16.154"/><path fill="#4C39B0" d="M50.076 40.289c2.364 1.364 3.896 3.949 3.896 7.167 0 5.398-4.31 10.534-9.626 11.472-2.146.378-4.129.014-5.73-.91-2.364-1.364-3.896-3.949-3.896-7.167 0-5.398 4.31-10.534 9.626-11.472 2.147-.378 4.13-.014 5.73.91"/><path fill="#4C39B0" d="m53.548 42.294-3.456-1.996-.014-.008-.002-.001c-1.6-.924-3.583-1.288-5.73-.91-5.316.938-9.626 6.074-9.626 11.472l3.473 2.005c0-5.398 4.31-10.534 9.625-11.472 1.37-.241 2.672-.18 3.851.135 1.436 1.454 2.303 3.516 2.303 5.937 0 5.398-4.31 10.534-9.626 11.472-1.37.241-2.671.18-3.85-.135-1.436-1.454-2.303-3.516-2.303-5.937L34.72 50.85c0 3.218 1.532 5.803 3.896 7.168l3.47 2.003-.026-.015.029.017c1.6.923 3.583 1.287 5.73.909 5.316-.938 9.625-6.074 9.625-11.472 0-3.218-1.532-5.803-3.896-7.167"/><path fill="#FEEDB4" d="M57.445 49.461c0 5.398-4.31 10.534-9.626 11.472s-9.626-2.68-9.626-8.077 4.31-10.534 9.626-11.472 9.626 2.679 9.626 8.077"/><path fill="#4C39B0" d="M49.878 51.757c.876-.822 1.471-2.023 1.471-3.157 0-1.643-1.251-2.52-2.796-1.957s-2.795 2.35-2.795 3.993c0 1.133.595 1.901 1.47 2.085l-1.88 4.149 6.41-2.333z"/><path fill="#fff" d="M32.882 10.854c1.688-1.36 3.478-2.152 5.306-2.817s4.083-.575 5.771-.446c1.69.13 3.224.663 4.516 1.568 1.293.905 2.318 2.165 3.017 3.707.7 1.543 1.06 3.338 1.06 5.283v12.08l-.006-.003q0 .023-.002.044c-1.693-.27-2.431-.653-3.494-1.27-1.165-.76-1.667-1.331-1.522-1.896v-7.126c0-1.244-.23-2.39-.677-3.377-.447-.985-1.102-1.79-1.928-2.369-.826-.578-1.807-.919-2.886-1.002s-2.236.094-3.404.519-2.325 1.09-3.404 1.96a15.1 15.1 0 0 0-2.886 3.102 15.1 15.1 0 0 0-1.929 3.773c-.447 1.311-.677 2.626-.677 3.869v8.033h-.003v.034c0 .68-1.124 1.231-2.51 1.231-1.388 0-2.512-.551-2.512-1.23q0-.023.002-.045v-6.195l-.001-.455c-.005-1.892-.01-4.318.636-6.214a23.7 23.7 0 0 1 3.017-5.903 23.7 23.7 0 0 1 4.516-4.855"/></g><defs><clipPath id="MRtIo7flid_a"><path fill="#fff" d="M0 0h80v80H0z"/></clipPath></defs></svg>