<svg xmlns="http://www.w3.org/2000/svg" width="40" height="40" fill="none" class="persona-ilustration" viewBox="0 0 40 40"><g clip-path="url(#OARM3TuOn5S_BXkYpSI0iIJcUBp_bmaczDMdLejV1lU_a)"><path fill="#4C39B0" d="M23.994 13.909c2.364 1.364 3.896 3.949 3.896 7.167 0 5.398-4.31 10.534-9.626 11.472-2.147.378-4.13.014-5.73-.91-2.364-1.364-3.896-3.949-3.896-7.167 0-5.398 4.31-10.534 9.626-11.472 2.146-.378 4.129-.014 5.73.91"/><path fill="#4C39B0" d="m27.43 15.892.036.021-3.472-2.005c-1.601-.923-3.583-1.287-5.73-.909l3.472 2.005c1.37-.241 2.672-.18 3.851.135 1.436 1.454 2.303 3.516 2.303 5.937 0 5.398-4.31 10.534-9.626 11.472-1.37.241-2.672.18-3.851-.135-1.436-1.454-2.302-3.516-2.302-5.937 0-5.399 4.31-10.535 9.625-11.472l-3.472-2.005c-5.316.938-9.626 6.074-9.626 11.472 0 3.218 1.532 5.803 3.896 7.168l3.47 2.003.002.001c1.601.924 3.584 1.288 5.73.91 5.317-.938 9.626-6.074 9.626-11.472 0-3.218-1.532-5.803-3.896-7.168z"/><path fill="#3E68F5" d="M31.362 23.081c0 5.398-4.31 10.534-9.626 11.472s-9.626-2.68-9.626-8.077 4.31-10.534 9.626-11.472 9.626 2.679 9.626 8.077"/><path fill="#4C39B0" d="M25.038 20.144c1.182.682 1.948 1.975 1.948 3.584 0 2.7-2.155 5.267-4.813 5.736-1.073.19-2.064.007-2.865-.455-1.182-.682-1.948-1.974-1.948-3.584 0-2.699 2.155-5.267 4.813-5.735 1.073-.19 2.065-.008 2.865.454"/><path fill="#4C39B0" d="m26.774 21.147-1.728-.998-.007-.004h-.001c-.8-.463-1.792-.645-2.865-.455-2.658.468-4.813 3.036-4.813 5.735l1.736 1.003c0-2.7 2.155-5.267 4.813-5.736a4.44 4.44 0 0 1 1.926.067c.717.727 1.15 1.759 1.15 2.97 0 2.698-2.154 5.266-4.812 5.735-.685.12-1.336.09-1.925-.067-.718-.727-1.152-1.759-1.152-2.97l-1.736-1.002c0 1.61.766 2.902 1.948 3.584l1.735 1.002-.013-.008.014.009c.801.462 1.792.644 2.866.454 2.657-.468 4.812-3.036 4.812-5.735 0-1.61-.766-2.902-1.948-3.584"/><path fill="#FEEDB4" d="M28.722 24.73c0 2.7-2.154 5.268-4.812 5.736-2.658.47-4.813-1.339-4.813-4.038s2.154-5.267 4.813-5.736 4.812 1.34 4.812 4.039"/><path fill="#4C39B0" d="M24.939 25.878c.438-.41.736-1.011.736-1.578 0-.821-.626-1.26-1.398-.979s-1.398 1.175-1.398 1.997c0 .566.297.95.735 1.042l-.94 2.075 3.205-1.166z"/><path fill="#fff" d="M16.44 5.427c.845-.68 1.74-1.076 2.654-1.408.914-.333 2.041-.288 2.886-.223.844.065 1.611.33 2.258.783.646.453 1.159 1.083 1.508 1.854.35.771.53 1.669.53 2.642v6.04l-.003-.002v.022c-.848-.135-1.217-.326-1.748-.635-.582-.38-.834-.666-.76-.948V9.989c0-.622-.116-1.195-.34-1.688a2.9 2.9 0 0 0-.964-1.185 2.9 2.9 0 0 0-1.442-.5 4.1 4.1 0 0 0-1.703.258 6 6 0 0 0-1.702.98 7.6 7.6 0 0 0-1.443 1.551c-.413.59-.74 1.231-.964 1.887a6 6 0 0 0-.338 1.934v4.017h-.002v.017c0 .34-.562.616-1.255.616-.694 0-1.256-.276-1.256-.616v-3.347c-.002-.946-.005-2.159.318-3.107.35-1.026.863-2.029 1.509-2.952a11.8 11.8 0 0 1 2.258-2.427"/></g><defs><clipPath id="OARM3TuOn5S_BXkYpSI0iIJcUBp_bmaczDMdLejV1lU_a"><path fill="#fff" d="M0 0h40v40H0z"/></clipPath></defs></svg>