<svg xmlns="http://www.w3.org/2000/svg" width="16" height="16" fill="none" class="persona-icon" viewBox="0 0 16 16"><path fill="currentColor" fill-rule="evenodd" d="M2 4.333A2.333 2.333 0 0 1 4.333 2h7.334A2.333 2.333 0 0 1 14 4.333v7.334A2.333 2.333 0 0 1 11.667 14H4.333A2.333 2.333 0 0 1 2 11.667zm11 3.778V4.333C13 3.597 12.403 3 11.667 3H4.333C3.597 3 3 3.597 3 4.333v3.778h1.944c.614 0 1.112.498 1.112 1.111 0 .737.596 1.334 1.333 1.334H8.61c.736 0 1.333-.597 1.333-1.334 0-.613.498-1.11 1.112-1.11zm-10 1v2.556C3 12.403 3.597 13 4.333 13h7.334c.736 0 1.333-.597 1.333-1.333V9.11h-1.944a.11.11 0 0 0-.112.111 2.333 2.333 0 0 1-2.333 2.334H7.39a2.333 2.333 0 0 1-2.333-2.334.11.11 0 0 0-.112-.11z" clip-rule="evenodd"/></svg>