<svg xmlns="http://www.w3.org/2000/svg" width="20" height="20" fill="none" class="persona-icon" viewBox="0 0 20 20"><path fill="currentColor" fill-rule="evenodd" d="M2.975 5.733a2.76 2.76 0 0 1 2.758-2.758h8.534a2.76 2.76 0 0 1 2.758 2.758v8.534a2.76 2.76 0 0 1-2.758 2.758H5.733a2.76 2.76 0 0 1-2.758-2.758V5.733m1.25 5.603v2.93c0 .834.675 1.509 1.508 1.509h8.534c.833 0 1.508-.675 1.508-1.508v-2.931h-2.22a.086.086 0 0 0-.086.086 2.76 2.76 0 0 1-2.758 2.758H9.289a2.76 2.76 0 0 1-2.759-2.758.086.086 0 0 0-.086-.086zm11.55-1.25V5.733c0-.833-.675-1.508-1.508-1.508H5.733c-.833 0-1.508.675-1.508 1.508v4.353h2.22c.737 0 1.335.598 1.335 1.336 0 .833.676 1.508 1.509 1.508h1.422c.833 0 1.508-.675 1.508-1.508 0-.738.599-1.336 1.336-1.336z" clip-rule="evenodd"/></svg>