<svg xmlns="http://www.w3.org/2000/svg" width="24" height="24" fill="none" class="persona-icon"><path fill="currentColor" d="M3 6.462A3.462 3.462 0 0 1 6.462 3h11.076A3.461 3.461 0 0 1 21 6.462v11.076A3.461 3.461 0 0 1 17.538 21H6.462A3.462 3.462 0 0 1 3 17.538V6.462Zm6 6.469a3 3 0 0 0 6-.008c0-.382.31-.692.692-.692h3.923V6.46c0-1.147-.93-2.076-2.077-2.076H6.462c-1.147 0-2.077.93-2.077 2.077v5.769h3.923c.382 0 .692.31.692.692v.008Zm-4.615.684v3.923c0 1.148.93 2.077 2.077 2.077h11.076c1.148 0 2.077-.93 2.077-2.076v-3.924H16.33a4.382 4.382 0 0 1-6.008 3.359 4.385 4.385 0 0 1-2.652-3.359H4.385Z"/></svg>