<svg xmlns="http://www.w3.org/2000/svg" width="32" height="32" fill="none" class="persona-icon" viewBox="0 0 32 32"><path fill="currentColor" fill-rule="evenodd" d="M8 3a5 5 0 0 0-5 5v16a5 5 0 0 0 5 5h16a5 5 0 0 0 5-5V8a5 5 0 0 0-5-5zm19 13h-5.667c-.552 0-1 .427-1 .954v.008a4 4 0 0 1-.33 1.576 4.1 4.1 0 0 1-.939 1.341c-.402.384-.88.69-1.406.897a4.5 4.5 0 0 1-3.316 0 4.4 4.4 0 0 1-1.406-.897 4.1 4.1 0 0 1-.94-1.341 4 4 0 0 1-.33-1.584c0-.527-.447-.954-1-.954H5V8a3 3 0 0 1 3-3h16a3 3 0 0 1 3 3zM5 17.91h4.746q.117.7.403 1.358c.318.733.785 1.4 1.373 1.961a6.4 6.4 0 0 0 2.054 1.31 6.6 6.6 0 0 0 4.848 0 6.4 6.4 0 0 0 2.054-1.31 6 6 0 0 0 1.373-1.961c.19-.437.325-.893.403-1.359H27V24a3 3 0 0 1-3 3H8a3 3 0 0 1-3-3z" clip-rule="evenodd"/></svg>