<svg xmlns="http://www.w3.org/2000/svg" width="20" height="20" fill="none" class="persona-icon" viewBox="0 0 20 20"><path fill="currentColor" fill-rule="evenodd" d="M18.014 10c0-.33-.173-.63-.52-1.23l-2.681-4.645c-.347-.6-.52-.901-.806-1.066-.285-.165-.632-.165-1.326-.165H7.318c-.693 0-1.04 0-1.326.165-.285.165-.459.465-.805 1.066L2.505 8.769c-.347.6-.52.901-.52 1.231s.173.63.52 1.23l2.682 4.645c.346.6.52.901.805 1.066s.633.165 1.326.165h5.363c.694 0 1.04 0 1.326-.165s.46-.465.806-1.066l2.681-4.644c.347-.6.52-.901.52-1.231m-8.013 2.767a2.766 2.766 0 1 1 0-5.532 2.766 2.766 0 0 1 0 5.532" clip-rule="evenodd"/></svg>