<svg xmlns="http://www.w3.org/2000/svg" width="24" height="24" fill="none" class="persona-icon" viewBox="0 0 24 24"><path fill="currentColor" fill-rule="evenodd" d="M22.018 12c0-.412-.217-.788-.65-1.539l-3.352-5.805c-.433-.75-.65-1.126-1.007-1.332s-.79-.206-1.658-.206H8.648c-.867 0-1.3 0-1.658.206s-.573.581-1.007 1.332l-3.351 5.805c-.434.751-.65 1.127-.65 1.539s.216.788.65 1.539l3.351 5.805c.434.75.65 1.126 1.007 1.332s.79.206 1.658.206h6.703c.867 0 1.3 0 1.658-.206s.574-.581 1.007-1.332l3.352-5.805c.433-.751.65-1.127.65-1.539m-10.016 3.459a3.458 3.458 0 1 1 0-6.915 3.458 3.458 0 0 1 0 6.915" clip-rule="evenodd"/></svg>