<svg xmlns="http://www.w3.org/2000/svg" width="16" height="16" fill="none" class="persona-icon" viewBox="0 0 16 16"><path fill="currentColor" d="M3.643 10.571a.5.5 0 0 1 .5-.5H8a.5.5 0 1 1 0 1H4.143a.5.5 0 0 1-.5-.5"/><path fill="currentColor" fill-rule="evenodd" d="M1.714 4.143C1.714 3.51 2.226 3 2.857 3h10.286c.631 0 1.143.511 1.143 1.143v7.714c0 .631-.512 1.143-1.143 1.143H2.857a1.143 1.143 0 0 1-1.143-1.143zM2.857 4a.143.143 0 0 0-.143.143v.643h10.572v-.643A.143.143 0 0 0 13.143 4zm10.429 2.714H2.714v5.143c0 .079.064.143.143.143h10.286a.143.143 0 0 0 .143-.143z" clip-rule="evenodd"/></svg>