<svg xmlns="http://www.w3.org/2000/svg" width="20" height="20" fill="none" class="persona-icon" viewBox="0 0 20 20"><path fill="currentColor" d="M4.747 13.085c0-.345.28-.625.625-.625H10a.625.625 0 0 1 0 1.25H5.372a.625.625 0 0 1-.625-.625"/><path fill="currentColor" fill-rule="evenodd" d="M2.432 5.37c0-.77.626-1.396 1.397-1.396h12.343c.771 0 1.396.626 1.396 1.397v9.257c0 .771-.625 1.396-1.396 1.396H3.829a1.396 1.396 0 0 1-1.397-1.396zm1.397-.146a.146.146 0 0 0-.147.147v.772h12.636V5.37a.146.146 0 0 0-.146-.147zm12.49 3.233H3.681v6.171c0 .08.066.146.147.146h12.343c.08 0 .146-.065.146-.146z" clip-rule="evenodd"/></svg>