<svg xmlns="http://www.w3.org/2000/svg" width="16" height="16" fill="none" class="persona-icon" viewBox="0 0 16 16"><path fill="currentColor" fill-rule="evenodd" d="M2.5 2a.5.5 0 0 0-.5.5v1.833a.5.5 0 0 0 .5.5h1.833a.5.5 0 0 0 .5-.5V2.5a.5.5 0 0 0-.5-.5H2.5M2 6.167a.5.5 0 0 1 .5-.5h1.222a.5.5 0 1 1 0 1H3v.722a.5.5 0 0 1-1 0V6.167ZM3.722 8.11a.5.5 0 0 1 .5.5v1.222a.5.5 0 0 1-.5.5H2.5a.5.5 0 1 1 0-1h.722v-.722a.5.5 0 0 1 .5-.5M2.5 11.167a.5.5 0 0 0-.5.5V13.5a.5.5 0 0 0 .5.5h1.833a.5.5 0 0 0 .5-.5v-1.833a.5.5 0 0 0-.5-.5H2.5M3 3.833V3h.833v.833H3M3 13v-.833h.833V13zm2.056-6.833c0-.614.497-1.111 1.11-1.111h3.667c.614 0 1.111.497 1.111 1.11v3.667c0 .614-.497 1.111-1.11 1.111H6.166a1.111 1.111 0 0 1-1.111-1.11V6.166m1.11-1.945a.5.5 0 0 1-.5-.5V2.5a.5.5 0 1 1 1 0v.722h.723a.5.5 0 0 1 0 1H6.167m-.5 9.278a.5.5 0 0 0 .5.5H7.39a.5.5 0 0 0 0-1h-.722v-.722a.5.5 0 0 0-1 0V13.5m.5-7.444a.111.111 0 0 0-.11.11v3.667c0 .062.05.111.11.111h3.667c.062 0 .111-.05.111-.11V6.166a.111.111 0 0 0-.11-.111H6.166M8.112 2.5a.5.5 0 0 1 .5-.5h1.222a.5.5 0 0 1 .5.5v1.222a.5.5 0 1 1-1 0V3h-.722a.5.5 0 0 1-.5-.5m.5 9.278a.5.5 0 0 0 0 1h.722v.722a.5.5 0 0 0 1 0v-1.222a.5.5 0 0 0-.5-.5H8.611M11.167 2.5a.5.5 0 0 1 .5-.5H13.5a.5.5 0 0 1 .5.5v1.833a.5.5 0 0 1-.5.5h-1.833a.5.5 0 0 1-.5-.5V2.5Zm0 9.167a.5.5 0 0 1 .5-.5H13.5a.5.5 0 0 1 .5.5V13.5a.5.5 0 0 1-.5.5h-1.833a.5.5 0 0 1-.5-.5v-1.833m1.11-6a.5.5 0 0 0-.5.5v1.222a.5.5 0 1 0 1 0v-.722h.723a.5.5 0 0 0 0-1h-1.222M14 8.61a.5.5 0 0 0-1 0v.722h-.722a.5.5 0 1 0 0 1H13.5a.5.5 0 0 0 .5-.5V8.611m-1.833-5.61v.832H13V3h-.833Zm0 9.166V13H13v-.833h-.833" clip-rule="evenodd"/></svg>