<svg xmlns="http://www.w3.org/2000/svg" width="16" height="16" fill="none" class="persona-icon" viewBox="0 0 16 16"><path fill="currentColor" fill-rule="evenodd" d="M2 2.5a.5.5 0 0 1 .5-.5h1.833a.5.5 0 0 1 .5.5v1.833a.5.5 0 0 1-.5.5H2.5a.5.5 0 0 1-.5-.5zm0 3.667a.5.5 0 0 1 .5-.5h1.222a.5.5 0 1 1 0 1H3v.722a.5.5 0 0 1-1 0zM3.722 8.11a.5.5 0 0 1 .5.5v1.222a.5.5 0 0 1-.5.5H2.5a.5.5 0 0 1 0-1h.722v-.722a.5.5 0 0 1 .5-.5M2 11.667a.5.5 0 0 1 .5-.5h1.833a.5.5 0 0 1 .5.5V13.5a.5.5 0 0 1-.5.5H2.5a.5.5 0 0 1-.5-.5zM3 3v.833h.833V3zm0 9.167V13h.833v-.833zm2.056-6c0-.614.497-1.112 1.11-1.112h3.667c.614 0 1.111.498 1.111 1.112v3.666c0 .614-.497 1.111-1.11 1.111H6.166a1.11 1.11 0 0 1-1.111-1.11zM6.166 2a.5.5 0 0 1 .5.5v.722h.723a.5.5 0 1 1 0 1H6.167a.5.5 0 0 1-.5-.5V2.5a.5.5 0 0 1 .5-.5m0 9.778a.5.5 0 0 1 .5.5V13h.723a.5.5 0 1 1 0 1H6.167a.5.5 0 0 1-.5-.5v-1.222a.5.5 0 0 1 .5-.5m0-5.723a.11.11 0 0 0-.11.112v3.666c0 .062.05.111.11.111h3.667c.062 0 .111-.05.111-.11V6.166a.11.11 0 0 0-.11-.112zM9.334 3h-.722a.5.5 0 0 1 0-1h1.222a.5.5 0 0 1 .5.5v1.222a.5.5 0 1 1-1 0zm-1.222 9.278a.5.5 0 0 1 .5-.5h1.222a.5.5 0 0 1 .5.5V13.5a.5.5 0 1 1-1 0v-.722h-.722a.5.5 0 0 1-.5-.5M11.167 2.5a.5.5 0 0 1 .5-.5H13.5a.5.5 0 0 1 .5.5v1.833a.5.5 0 0 1-.5.5h-1.833a.5.5 0 0 1-.5-.5zm0 9.167a.5.5 0 0 1 .5-.5H13.5a.5.5 0 0 1 .5.5V13.5a.5.5 0 0 1-.5.5h-1.833a.5.5 0 0 1-.5-.5zm.61-5.5a.5.5 0 0 1 .5-.5H13.5a.5.5 0 0 1 0 1h-.722v.722a.5.5 0 0 1-1 0zM13.5 8.11a.5.5 0 0 1 .5.5v1.222a.5.5 0 0 1-.5.5h-1.222a.5.5 0 1 1 0-1H13v-.722a.5.5 0 0 1 .5-.5M12.167 3v.833H13V3zm0 9.167V13H13v-.833z" clip-rule="evenodd"/></svg>