<svg xmlns="http://www.w3.org/2000/svg" width="20" height="20" fill="none" class="persona-icon" viewBox="0 0 20 20"><mask id="e8PkFrOzSKrKxuqjFQF1fQ6JXKN794RuQP-BqskWR8Q_a" fill="#fff"><path fill-rule="evenodd" d="M3.833 3h1.334c.46 0 .833.373.833.833v1.334c0 .46-.373.833-.833.833H3.833A.833.833 0 0 1 3 5.167V3.833c0-.46.373-.833.833-.833M4.2 4.2v.6h.6v-.6zM14.833 3h1.334c.46 0 .833.373.833.833v1.334c0 .46-.373.833-.833.833h-1.334A.833.833 0 0 1 14 5.167V3.833c0-.46.373-.833.833-.833m.367 1.2v.6h.6v-.6zM7.764 7h4.472c.422 0 .764.342.764.764v4.472a.764.764 0 0 1-.764.764H7.764A.764.764 0 0 1 7 12.236V7.764C7 7.342 7.342 7 7.764 7M8.2 8.2v3.6h3.6V8.2zM14 14.833c0-.46.373-.833.833-.833h1.334c.46 0 .833.373.833.833v1.334c0 .46-.373.833-.833.833h-1.334a.833.833 0 0 1-.833-.833zm1.2.967h.6v-.6h-.6zM3 14.833c0-.46.373-.833.833-.833h1.334c.46 0 .833.373.833.833v1.334c0 .46-.373.833-.833.833H3.833A.833.833 0 0 1 3 16.167zm1.2.967h.6v-.6h-.6z" clip-rule="evenodd"/><path d="M7.5 4.167c0-.23.187-.417.417-.417h.666c.23 0 .417.187.417.417v.666c0 .23-.187.417-.417.417h-.666a.417.417 0 0 1-.417-.417zM7.917 15h.666c.23 0 .417.187.417.417v.666c0 .23-.187.417-.417.417h-.666a.417.417 0 0 1-.417-.417v-.666c0-.23.187-.417.417-.417M3.75 7.917c0-.23.187-.417.417-.417h.666c.23 0 .417.187.417.417v.666c0 .23-.187.417-.417.417h-.666a.417.417 0 0 1-.417-.417zM15.167 7.5h.666c.23 0 .417.187.417.417v.666c0 .23-.186.417-.417.417h-.666a.417.417 0 0 1-.417-.417v-.666c0-.23.187-.417.417-.417M3.75 11.25c0-.23.187-.417.417-.417h.666c.23 0 .417.187.417.417v.667c0 .23-.187.416-.417.416h-.666a.417.417 0 0 1-.417-.416zM11.25 3.75h.667c.23 0 .416.187.416.417v.666c0 .23-.186.417-.416.417h-.667a.417.417 0 0 1-.417-.417v-.666c0-.23.187-.417.417-.417M14.75 11.25c0-.23.187-.417.417-.417h.666c.23 0 .417.187.417.417v.667c0 .23-.186.416-.417.416h-.666a.417.417 0 0 1-.417-.416zM11.25 15h.667c.23 0 .416.187.416.417v.666c0 .23-.186.417-.416.417h-.667a.417.417 0 0 1-.417-.417v-.666c0-.23.187-.417.417-.417"/></mask><path fill="currentColor" fill-rule="evenodd" d="M3.833 3h1.334c.46 0 .833.373.833.833v1.334c0 .46-.373.833-.833.833H3.833A.833.833 0 0 1 3 5.167V3.833c0-.46.373-.833.833-.833M4.2 4.2v.6h.6v-.6zM14.833 3h1.334c.46 0 .833.373.833.833v1.334c0 .46-.373.833-.833.833h-1.334A.833.833 0 0 1 14 5.167V3.833c0-.46.373-.833.833-.833m.367 1.2v.6h.6v-.6zM7.764 7h4.472c.422 0 .764.342.764.764v4.472a.764.764 0 0 1-.764.764H7.764A.764.764 0 0 1 7 12.236V7.764C7 7.342 7.342 7 7.764 7M8.2 8.2v3.6h3.6V8.2zM14 14.833c0-.46.373-.833.833-.833h1.334c.46 0 .833.373.833.833v1.334c0 .46-.373.833-.833.833h-1.334a.833.833 0 0 1-.833-.833zm1.2.967h.6v-.6h-.6zM3 14.833c0-.46.373-.833.833-.833h1.334c.46 0 .833.373.833.833v1.334c0 .46-.373.833-.833.833H3.833A.833.833 0 0 1 3 16.167zm1.2.967h.6v-.6h-.6z" clip-rule="evenodd"/><path fill="currentColor" d="M7.5 4.167c0-.23.187-.417.417-.417h.666c.23 0 .417.187.417.417v.666c0 .23-.187.417-.417.417h-.666a.417.417 0 0 1-.417-.417zM7.917 15h.666c.23 0 .417.187.417.417v.666c0 .23-.187.417-.417.417h-.666a.417.417 0 0 1-.417-.417v-.666c0-.23.187-.417.417-.417M3.75 7.917c0-.23.187-.417.417-.417h.666c.23 0 .417.187.417.417v.666c0 .23-.187.417-.417.417h-.666a.417.417 0 0 1-.417-.417zM15.167 7.5h.666c.23 0 .417.187.417.417v.666c0 .23-.186.417-.417.417h-.666a.417.417 0 0 1-.417-.417v-.666c0-.23.187-.417.417-.417M3.75 11.25c0-.23.187-.417.417-.417h.666c.23 0 .417.187.417.417v.667c0 .23-.187.416-.417.416h-.666a.417.417 0 0 1-.417-.416zM11.25 3.75h.667c.23 0 .416.187.416.417v.666c0 .23-.186.417-.416.417h-.667a.417.417 0 0 1-.417-.417v-.666c0-.23.187-.417.417-.417M14.75 11.25c0-.23.187-.417.417-.417h.666c.23 0 .417.187.417.417v.667c0 .23-.186.416-.417.416h-.666a.417.417 0 0 1-.417-.416zM11.25 15h.667c.23 0 .416.187.416.417v.666c0 .23-.186.417-.416.417h-.667a.417.417 0 0 1-.417-.417v-.666c0-.23.187-.417.417-.417"/><path stroke="#000" stroke-width="2.4" d="M3.833 3h1.334c.46 0 .833.373.833.833v1.334c0 .46-.373.833-.833.833H3.833A.833.833 0 0 1 3 5.167V3.833c0-.46.373-.833.833-.833ZM4.2 4.2v.6h.6v-.6zM14.833 3h1.334c.46 0 .833.373.833.833v1.334c0 .46-.373.833-.833.833h-1.334A.833.833 0 0 1 14 5.167V3.833c0-.46.373-.833.833-.833Zm.367 1.2v.6h.6v-.6zM7.764 7h4.472c.422 0 .764.342.764.764v4.472a.764.764 0 0 1-.764.764H7.764A.764.764 0 0 1 7 12.236V7.764C7 7.342 7.342 7 7.764 7ZM8.2 8.2v3.6h3.6V8.2zM14 14.833c0-.46.373-.833.833-.833h1.334c.46 0 .833.373.833.833v1.334c0 .46-.373.833-.833.833h-1.334a.833.833 0 0 1-.833-.833zm1.2.967h.6v-.6h-.6zM3 14.833c0-.46.373-.833.833-.833h1.334c.46 0 .833.373.833.833v1.334c0 .46-.373.833-.833.833H3.833A.833.833 0 0 1 3 16.167zm1.2.967h.6v-.6h-.6z" clip-rule="evenodd" mask="url(#e8PkFrOzSKrKxuqjFQF1fQ6JXKN794RuQP-BqskWR8Q_a)"/><path stroke="#000" stroke-width="2.4" d="M7.5 4.167c0-.23.187-.417.417-.417h.666c.23 0 .417.187.417.417v.666c0 .23-.187.417-.417.417h-.666a.417.417 0 0 1-.417-.417zM7.917 15h.666c.23 0 .417.187.417.417v.666c0 .23-.187.417-.417.417h-.666a.417.417 0 0 1-.417-.417v-.666c0-.23.187-.417.417-.417ZM3.75 7.917c0-.23.187-.417.417-.417h.666c.23 0 .417.187.417.417v.666c0 .23-.187.417-.417.417h-.666a.417.417 0 0 1-.417-.417zM15.167 7.5h.666c.23 0 .417.187.417.417v.666c0 .23-.186.417-.417.417h-.666a.417.417 0 0 1-.417-.417v-.666c0-.23.187-.417.417-.417ZM3.75 11.25c0-.23.187-.417.417-.417h.666c.23 0 .417.187.417.417v.667c0 .23-.187.416-.417.416h-.666a.417.417 0 0 1-.417-.416zM11.25 3.75h.667c.23 0 .416.187.416.417v.666c0 .23-.186.417-.416.417h-.667a.417.417 0 0 1-.417-.417v-.666c0-.23.187-.417.417-.417ZM14.75 11.25c0-.23.187-.417.417-.417h.666c.23 0 .417.187.417.417v.667c0 .23-.186.416-.417.416h-.666a.417.417 0 0 1-.417-.416zM11.25 15h.667c.23 0 .416.187.416.417v.666c0 .23-.186.417-.416.417h-.667a.417.417 0 0 1-.417-.417v-.666c0-.23.187-.417.417-.417Z" mask="url(#e8PkFrOzSKrKxuqjFQF1fQ6JXKN794RuQP-BqskWR8Q_a)"/></svg>