<svg xmlns="http://www.w3.org/2000/svg" width="24" height="24" fill="none" class="persona-icon" viewBox="0 0 24 24"><path fill="currentColor" fill-rule="evenodd" d="M3 3.75A.75.75 0 0 1 3.75 3H6.5a.75.75 0 0 1 .75.75V6.5a.75.75 0 0 1-.75.75H3.75A.75.75 0 0 1 3 6.5zm0 5.5a.75.75 0 0 1 .75-.75h1.833a.75.75 0 1 1 0 1.5H4.5v1.083a.75.75 0 0 1-1.5 0zm2.583 2.917a.75.75 0 0 1 .75.75v1.833a.75.75 0 0 1-.75.75H3.75a.75.75 0 0 1 0-1.5h1.083v-1.083a.75.75 0 0 1 .75-.75M3 17.5a.75.75 0 0 1 .75-.75H6.5a.75.75 0 0 1 .75.75v2.75a.75.75 0 0 1-.75.75H3.75a.75.75 0 0 1-.75-.75zm1.5-13v1.25h1.25V4.5zm0 13.75v1.25h1.25v-1.25zm3.083-9c0-.92.746-1.667 1.667-1.667h5.5c.92 0 1.667.747 1.667 1.667v5.5c0 .92-.747 1.667-1.667 1.667h-5.5c-.92 0-1.667-.747-1.667-1.667zM9.25 3a.75.75 0 0 1 .75.75v1.083h1.083a.75.75 0 0 1 0 1.5H9.25a.75.75 0 0 1-.75-.75V3.75A.75.75 0 0 1 9.25 3m0 14.667a.75.75 0 0 1 .75.75V19.5h1.083a.75.75 0 0 1 0 1.5H9.25a.75.75 0 0 1-.75-.75v-1.833a.75.75 0 0 1 .75-.75m0-8.584a.167.167 0 0 0-.167.167v5.5c0 .092.075.167.167.167h5.5a.167.167 0 0 0 .167-.167v-5.5a.167.167 0 0 0-.167-.167zM14 4.5h-1.083a.75.75 0 1 1 0-1.5h1.833a.75.75 0 0 1 .75.75v1.833a.75.75 0 0 1-1.5 0zm-1.833 13.917a.75.75 0 0 1 .75-.75h1.833a.75.75 0 0 1 .75.75v1.833a.75.75 0 0 1-1.5 0v-1.083h-1.083a.75.75 0 0 1-.75-.75M16.75 3.75A.75.75 0 0 1 17.5 3h2.75a.75.75 0 0 1 .75.75V6.5a.75.75 0 0 1-.75.75H17.5a.75.75 0 0 1-.75-.75zm0 13.75a.75.75 0 0 1 .75-.75h2.75a.75.75 0 0 1 .75.75v2.75a.75.75 0 0 1-.75.75H17.5a.75.75 0 0 1-.75-.75zm.917-8.25a.75.75 0 0 1 .75-.75h1.833a.75.75 0 0 1 0 1.5h-1.083v1.083a.75.75 0 0 1-1.5 0zm2.583 2.917a.75.75 0 0 1 .75.75v1.833a.75.75 0 0 1-.75.75h-1.833a.75.75 0 0 1 0-1.5H19.5v-1.083a.75.75 0 0 1 .75-.75m-2-7.667v1.25h1.25V4.5zm0 13.75v1.25h1.25v-1.25z" clip-rule="evenodd"/></svg>