<svg xmlns="http://www.w3.org/2000/svg" width="32" height="32" fill="none" class="persona-icon" viewBox="0 0 32 32"><path fill="currentColor" fill-rule="evenodd" d="M4 5a1 1 0 0 1 1-1h3.667a1 1 0 0 1 1 1v3.667a1 1 0 0 1-1 1H5a1 1 0 0 1-1-1zm0 7.333a1 1 0 0 1 1-1h2.444a1 1 0 1 1 0 2H6v1.445a1 1 0 1 1-2 0zm3.444 3.89a1 1 0 0 1 1 1v2.444a1 1 0 0 1-1 1H5a1 1 0 1 1 0-2h1.444v-1.445a1 1 0 0 1 1-1M4 23.332a1 1 0 0 1 1-1h3.667a1 1 0 0 1 1 1V27a1 1 0 0 1-1 1H5a1 1 0 0 1-1-1zM6 6v1.667h1.667V6zm0 18.333V26h1.667v-1.667zm4.111-12c0-1.227.995-2.222 2.222-2.222h7.334c1.227 0 2.222.995 2.222 2.222v7.334a2.22 2.22 0 0 1-2.222 2.222h-7.334a2.22 2.22 0 0 1-2.222-2.222zM12.333 4a1 1 0 0 1 1 1v1.444h1.445a1 1 0 1 1 0 2h-2.445a1 1 0 0 1-1-1V5a1 1 0 0 1 1-1m0 19.556a1 1 0 0 1 1 1V26h1.445a1 1 0 1 1 0 2h-2.445a1 1 0 0 1-1-1v-2.444a1 1 0 0 1 1-1m0-11.445c-.122 0-.222.1-.222.222v7.334c0 .122.1.222.222.222h7.334c.122 0 .222-.1.222-.222v-7.334c0-.122-.1-.222-.222-.222zm6.334-6.11h-1.445a1 1 0 0 1 0-2h2.445a1 1 0 0 1 1 1v2.443a1 1 0 1 1-2 0zm-2.445 18.555a1 1 0 0 1 1-1h2.445a1 1 0 0 1 1 1V27a1 1 0 1 1-2 0v-1.444h-1.445a1 1 0 0 1-1-1M22.333 5a1 1 0 0 1 1-1H27a1 1 0 0 1 1 1v3.667a1 1 0 0 1-1 1h-3.667a1 1 0 0 1-1-1zm0 18.333a1 1 0 0 1 1-1H27a1 1 0 0 1 1 1V27a1 1 0 0 1-1 1h-3.667a1 1 0 0 1-1-1zm1.223-11a1 1 0 0 1 1-1H27a1 1 0 1 1 0 2h-1.444v1.445a1 1 0 1 1-2 0zM27 16.223a1 1 0 0 1 1 1v2.444a1 1 0 0 1-1 1h-2.444a1 1 0 1 1 0-2H26v-1.445a1 1 0 0 1 1-1M24.333 6v1.667H26V6zm0 18.333V26H26v-1.667z" clip-rule="evenodd"/></svg>