<svg xmlns="http://www.w3.org/2000/svg" width="20" height="20" fill="none" class="persona-icon" viewBox="0 0 20 20"><path fill="currentColor" d="M10 2.975A7.025 7.025 0 0 0 2.975 10v3.2a2.225 2.225 0 0 0 4.45 0v-1.6a2.225 2.225 0 0 0-3.186-2.008 5.775 5.775 0 0 1 11.522 0 2.225 2.225 0 0 0-3.186 2.008v1.6a2.225 2.225 0 0 0 3.149 2.025c-.19.775-.89 1.35-1.724 1.35h-1.793a1.425 1.425 0 0 0-1.407-1.2H9.2c-.787 0-1.425.638-1.425 1.425v.8c0 .787.638 1.425 1.425 1.425h1.6c.71 0 1.3-.52 1.407-1.2H14a3.025 3.025 0 0 0 3.025-3.025V9.992A7.025 7.025 0 0 0 10 2.975"/></svg>