<svg xmlns="http://www.w3.org/2000/svg" width="20" height="20" fill="none" class="persona-icon" viewBox="0 0 20 20"><path fill="currentColor" d="M10 2.975a7.025 7.025 0 0 1 7.025 7.017V14.8A3.025 3.025 0 0 1 14 17.825h-1.793c-.107.68-.697 1.2-1.407 1.2H9.2A1.425 1.425 0 0 1 7.775 17.6v-.8c0-.787.638-1.425 1.425-1.425h1.6c.71 0 1.3.52 1.407 1.2H14c.834 0 1.534-.575 1.724-1.35a2.225 2.225 0 0 1-3.149-2.025v-1.6a2.225 2.225 0 0 1 3.186-2.008 5.775 5.775 0 0 0-11.522 0A2.225 2.225 0 0 1 7.425 11.6v1.6a2.225 2.225 0 1 1-4.45 0V10A7.025 7.025 0 0 1 10 2.975"/></svg>