<svg xmlns="http://www.w3.org/2000/svg" width="32" height="32" fill="none" class="persona-icon" viewBox="0 0 32 32"><path fill="currentColor" d="M16 4a12 12 0 0 1 12 12v8.25a5.125 5.125 0 0 1-5.125 5.125H19.73a2.375 2.375 0 0 1-2.355 2.063h-2.75a2.375 2.375 0 0 1-2.375-2.375v-1.375a2.375 2.375 0 0 1 2.375-2.375h2.75c1.206 0 2.202.898 2.355 2.062h3.145a3.126 3.126 0 0 0 3.068-2.528A3.75 3.75 0 0 1 20.5 21.5v-2.75a3.75 3.75 0 0 1 5.483-3.326 10 10 0 0 0-19.966 0A3.75 3.75 0 0 1 11.5 18.75v2.75a3.75 3.75 0 1 1-7.5 0V16A12 12 0 0 1 16 4"/></svg>