<svg xmlns="http://www.w3.org/2000/svg" width="32" height="32" fill="none"><path fill="#000" fill-rule="evenodd" d="M12.653 3.293a1 1 0 0 0-1.414 0L5.946 8.586l-.004.005-.005.004-2.644 2.644a1 1 0 0 0 0 1.414l6.617 6.618.005.004 1.324 1.325a1 1 0 0 0 .707.293h3.56l6.99 6.991a3.81 3.81 0 1 0 5.388-5.387l-6.992-6.992v-3.558a1 1 0 0 0-.292-.707l-1.32-1.32-.004-.005-6.623-6.622Zm-3.355 4.77 1.941 1.942a1 1 0 0 0 1.415-1.414l-1.942-1.942 1.234-1.235 5.208 5.208-6.532 6.532-5.208-5.208 1.235-1.234 1.942 1.941a1 1 0 1 0 1.414-1.414L8.063 9.298l1.235-1.235Zm9.27 3.973-6.532 6.533.324.324h3.523a.997.997 0 0 1 .768.317l7.26 7.26a1.81 1.81 0 1 0 2.559-2.559l-7.262-7.263a1 1 0 0 1-.316-.728v-3.56l-.324-.323Z" clip-rule="evenodd"/></svg>