<svg xmlns="http://www.w3.org/2000/svg" width="16" height="16" fill="none" class="persona-icon" viewBox="0 0 16 16"><path fill="currentColor" d="M5.139 2.5v1.639h1.639a.5.5 0 1 1 0 1h-1.64v1.639a.5.5 0 1 1-1 0v-1.64H2.5a.5.5 0 0 1 0-1h1.639V2.5a.5.5 0 1 1 1 0M9.833 2h3.056C13.503 2 14 2.498 14 3.111v3.056c0 .613-.498 1.11-1.111 1.11H9.833a1.11 1.11 0 0 1-1.11-1.11V3.11C8.722 2.497 9.22 2 9.832 2M3.111 8.722h3.056c.613 0 1.11.498 1.11 1.111v3.056c0 .614-.497 1.111-1.11 1.111H3.11A1.11 1.11 0 0 1 2 12.889V9.833c0-.613.498-1.11 1.111-1.11M9.833 8.722h3.056c.614 0 1.111.498 1.111 1.111v3.056c0 .614-.498 1.111-1.111 1.111H9.833a1.11 1.11 0 0 1-1.11-1.111V9.833c0-.613.497-1.11 1.11-1.11"/></svg>