<svg xmlns="http://www.w3.org/2000/svg" width="16" height="16" fill="none" class="persona-icon" viewBox="0 0 16 16"><path fill="currentColor" d="M5.139 2.5a.5.5 0 0 0-1 0v1.639H2.5a.5.5 0 1 0 0 1h1.639v1.639a.5.5 0 1 0 1 0v-1.64h1.639a.5.5 0 0 0 0-1h-1.64zM9.833 2c-.613 0-1.11.498-1.11 1.111v3.056c0 .613.497 1.11 1.11 1.11h3.056c.614 0 1.111-.497 1.111-1.11V3.11C14 2.497 13.502 2 12.889 2zM3.111 8.722C2.497 8.722 2 9.22 2 9.833v3.056C2 13.503 2.498 14 3.111 14h3.056c.613 0 1.11-.498 1.11-1.111V9.833c0-.613-.497-1.11-1.11-1.11zM9.833 8.722c-.613 0-1.11.498-1.11 1.111v3.056c0 .614.497 1.111 1.11 1.111h3.056c.614 0 1.111-.498 1.111-1.111V9.833c0-.613-.498-1.11-1.111-1.11z"/></svg>