<svg xmlns="http://www.w3.org/2000/svg" width="20" height="20" fill="none" class="persona-icon" viewBox="0 0 20 20"><path fill="currentColor" d="M6.714 3.6v1.864h1.864a.625.625 0 1 1 0 1.25H6.714v1.864a.625.625 0 1 1-1.25 0V6.714H3.6a.625.625 0 1 1 0-1.25h1.864V3.6a.625.625 0 0 1 1.25 0M12.133 2.975h3.556c.738 0 1.336.598 1.336 1.336v3.556c0 .738-.598 1.336-1.336 1.336h-3.556a1.336 1.336 0 0 1-1.336-1.336V4.31c0-.738.598-1.336 1.336-1.336M4.311 10.797h3.556c.738 0 1.336.598 1.336 1.336v3.556c0 .738-.598 1.336-1.336 1.336H4.31a1.336 1.336 0 0 1-1.336-1.336v-3.556c0-.737.598-1.336 1.336-1.336M12.133 10.797h3.556c.738 0 1.336.598 1.336 1.336v3.556c0 .738-.598 1.336-1.336 1.336h-3.556a1.336 1.336 0 0 1-1.336-1.336v-3.556c0-.737.598-1.336 1.336-1.336"/></svg>