<svg xmlns="http://www.w3.org/2000/svg" width="20" height="20" fill="none" class="persona-icon" viewBox="0 0 20 20"><path fill="currentColor" d="M6.714 3.6a.625.625 0 0 0-1.25 0v1.864H3.6a.625.625 0 1 0 0 1.25h1.864v1.864a.625.625 0 1 0 1.25 0V6.714h1.864a.625.625 0 1 0 0-1.25H6.714zM12.133 2.975c-.737 0-1.336.598-1.336 1.336v3.556c0 .738.598 1.336 1.336 1.336h3.556c.738 0 1.336-.598 1.336-1.336V4.31c0-.738-.598-1.336-1.336-1.336zM4.311 10.797c-.738 0-1.336.598-1.336 1.336v3.556c0 .738.598 1.336 1.336 1.336h3.556c.738 0 1.336-.598 1.336-1.336v-3.556c0-.737-.598-1.336-1.336-1.336zM12.133 10.797c-.737 0-1.336.598-1.336 1.336v3.556c0 .738.598 1.336 1.336 1.336h3.556c.738 0 1.336-.598 1.336-1.336v-3.556c0-.737-.598-1.336-1.336-1.336z"/></svg>