<svg xmlns="http://www.w3.org/2000/svg" width="32" height="32" fill="none" class="persona-icon" viewBox="0 0 32 32"><path fill="currentColor" d="M10.278 5a1 1 0 0 0-2 0v3.278H5a1 1 0 0 0 0 2h3.278v3.278a1 1 0 1 0 2 0v-3.278h3.278a1 1 0 1 0 0-2h-3.278zM19.667 4a2.22 2.22 0 0 0-2.223 2.222v6.111c0 1.228.995 2.223 2.223 2.223h6.11A2.22 2.22 0 0 0 28 12.333v-6.11A2.22 2.22 0 0 0 25.778 4zM6.222 17.444A2.22 2.22 0 0 0 4 19.667v6.11C4 27.006 4.995 28 6.222 28h6.111a2.22 2.22 0 0 0 2.223-2.222v-6.111a2.22 2.22 0 0 0-2.223-2.223zM19.667 17.444a2.22 2.22 0 0 0-2.223 2.223v6.11c0 1.228.995 2.223 2.223 2.223h6.11A2.22 2.22 0 0 0 28 25.778v-6.111a2.22 2.22 0 0 0-2.222-2.223z"/></svg>