<svg xmlns="http://www.w3.org/2000/svg" width="16" height="16" fill="none" class="persona-icon" viewBox="0 0 16 16"><path fill="currentColor" d="M6.502 9.286v1.928a.5.5 0 1 1-1 0V9.286a.5.5 0 0 1 1 0M8 8.143a.5.5 0 0 1 .5.5v2.571a.5.5 0 1 1-1 0V8.643a.5.5 0 0 1 .5-.5M10.499 7.357v3.857a.5.5 0 1 1-1 0V7.357a.5.5 0 1 1 1 0"/><path fill="currentColor" fill-rule="evenodd" d="M10.999 2.715c1.105 0 2.001.896 2.001 2.001v7.569a2 2 0 0 1-2.001 2H5a2 2 0 0 1-2.001-2V4.716c0-1.105.896-2 2.001-2h.58c.07-.565.55-1.002 1.133-1.002h2.572c.583 0 1.064.437 1.134 1.001zM5 3.715C4.448 3.715 4 4.163 4 4.716v7.568c0 .553.448 1.002 1.001 1.002H11c.553 0 1.001-.448 1.001-1.001V4.716c0-.553-.448-1-1.001-1h-.58c-.07.563-.55 1-1.133 1H6.714a1.143 1.143 0 0 1-1.134-1zm1.713-1a.143.143 0 0 0-.143.142v.716c0 .079.064.143.143.143h2.572a.143.143 0 0 0 .143-.143v-.716a.143.143 0 0 0-.143-.143z" clip-rule="evenodd"/></svg>