<svg xmlns="http://www.w3.org/2000/svg" width="24" height="24" fill="none" class="persona-icon" viewBox="0 0 24 24"><path fill="currentColor" d="M9.556 14.056v3.083a.75.75 0 0 1-1.5 0v-3.083a.75.75 0 1 1 1.5 0M12 12.278a.75.75 0 0 1 .75.75v4.11a.75.75 0 0 1-1.5 0v-4.11a.75.75 0 0 1 .75-.75M15.946 10.972v6.167a.75.75 0 0 1-1.5 0v-6.167a.75.75 0 1 1 1.5 0"/><path fill="currentColor" fill-rule="evenodd" d="M16.795 3.6a3.15 3.15 0 0 1 3.15 3.15v12.1a3.15 3.15 0 0 1-3.15 3.15h-9.59a3.15 3.15 0 0 1-3.15-3.15V6.75a3.15 3.15 0 0 1 3.15-3.15h.97c.09-.898.848-1.6 1.77-1.6h4.11c.922 0 1.68.702 1.77 1.6zm-9.59 1.5a1.65 1.65 0 0 0-1.65 1.65v12.1c0 .911.74 1.65 1.65 1.65h9.59a1.65 1.65 0 0 0 1.65-1.65V6.75a1.65 1.65 0 0 0-1.65-1.65h-.97c-.09.898-.848 1.6-1.77 1.6h-4.11c-.922 0-1.68-.702-1.77-1.6zm2.74-1.6a.28.28 0 0 0-.278.278v1.144c0 .154.124.278.277.278h4.112a.28.28 0 0 0 .277-.278V3.778a.28.28 0 0 0-.277-.278z" clip-rule="evenodd"/></svg>