<svg xmlns="http://www.w3.org/2000/svg" width="24" height="24" fill="none" class="persona-icon" viewBox="0 0 24 24"><path fill="currentColor" d="M9.556 14.056a.75.75 0 0 0-1.5 0v3.083a.75.75 0 1 0 1.5 0zM12 12.278a.75.75 0 0 1 .75.75v4.11a.75.75 0 0 1-1.5 0v-4.11a.75.75 0 0 1 .75-.75M15.946 10.972a.75.75 0 1 0-1.5 0v6.167a.75.75 0 0 0 1.5 0z"/><path fill="currentColor" fill-rule="evenodd" d="M16.795 3.6h-.97a1.78 1.78 0 0 0-1.77-1.6h-4.11c-.922 0-1.68.702-1.77 1.6h-.97a3.15 3.15 0 0 0-3.15 3.15v12.1A3.15 3.15 0 0 0 7.206 22h9.59a3.15 3.15 0 0 0 3.15-3.15V6.75a3.15 3.15 0 0 0-3.15-3.15m-9.59 1.5h.97c.09.898.848 1.6 1.77 1.6h4.11c.922 0 1.68-.702 1.77-1.6h.97c.91 0 1.65.739 1.65 1.65v12.1a1.65 1.65 0 0 1-1.65 1.65h-9.59a1.65 1.65 0 0 1-1.65-1.65V6.75c0-.911.74-1.65 1.65-1.65m2.74-1.6h4.11c.154 0 .278.124.278.278v1.144a.28.28 0 0 1-.277.278H9.945a.28.28 0 0 1-.278-.278V3.778c0-.154.124-.278.277-.278" clip-rule="evenodd"/></svg>