<svg xmlns="http://www.w3.org/2000/svg" width="20" height="20" fill="none" class="persona-icon" viewBox="0 0 20 20"><path fill="currentColor" fill-rule="evenodd" d="M1.975 10c0-.345.28-.625.625-.625h1.645a.625.625 0 1 1 0 1.25H2.6A.625.625 0 0 1 1.975 10m4.396 3.628a.625.625 0 0 1 0 .884l-1.163 1.163a.625.625 0 1 1-.883-.884l1.162-1.163a.625.625 0 0 1 .884 0M4.326 4.326a.625.625 0 0 1 .884 0l1.163 1.163a.625.625 0 1 1-.884.883L4.326 5.21a.625.625 0 0 1 0-.884M6.086 10a3.914 3.914 0 1 1 7.828 0 3.914 3.914 0 0 1-7.827 0M10 1.975c.345 0 .625.28.625.625v1.645a.625.625 0 1 1-1.25 0V2.6c0-.345.28-.625.625-.625m0 13.156c.345 0 .625.28.625.625V17.4a.625.625 0 1 1-1.25 0v-1.644c0-.346.28-.625.625-.625m5.674-10.805a.625.625 0 0 1 0 .884l-1.163 1.163a.625.625 0 0 1-.883-.884l1.162-1.163a.625.625 0 0 1 .884 0m-2.046 9.302a.625.625 0 0 1 .883 0l1.163 1.163a.625.625 0 1 1-.884.884l-1.162-1.163a.625.625 0 0 1 0-.884M15.13 10c0-.345.28-.625.625-.625H17.4a.625.625 0 1 1 0 1.25h-1.644A.625.625 0 0 1 15.13 10M10 7.336a2.664 2.664 0 1 0 0 5.328 2.664 2.664 0 0 0 0-5.328" clip-rule="evenodd"/></svg>