<svg xmlns="http://www.w3.org/2000/svg" width="24" height="24" fill="none" class="persona-icon" viewBox="0 0 24 24"><path fill="currentColor" fill-rule="evenodd" d="M12 2a.75.75 0 0 1 .75.75v2.056a.75.75 0 0 1-1.5 0V2.75A.75.75 0 0 1 12 2M4.93 4.93a.75.75 0 0 1 1.06 0l1.454 1.453a.75.75 0 0 1-1.06 1.06L4.93 5.99a.75.75 0 0 1 0-1.06m14.14 0a.75.75 0 0 1 0 1.06l-1.453 1.454a.75.75 0 0 1-1.06-1.06L18.01 4.93a.75.75 0 0 1 1.06 0M7.14 12a4.861 4.861 0 1 1 9.722 0 4.861 4.861 0 0 1-9.722 0M2 12a.75.75 0 0 1 .75-.75h2.056a.75.75 0 0 1 0 1.5H2.75A.75.75 0 0 1 2 12m16.444.001a.75.75 0 0 1 .75-.75h2.056a.75.75 0 0 1 0 1.5h-2.056a.75.75 0 0 1-.75-.75m-1.888 4.556a.75.75 0 0 1 1.061 0l1.454 1.453a.75.75 0 0 1-1.061 1.061l-1.454-1.453a.75.75 0 0 1 0-1.061m-9.114 0a.75.75 0 0 1 0 1.06l-1.454 1.454a.75.75 0 1 1-1.06-1.06l1.453-1.454a.75.75 0 0 1 1.06 0M12 18.444a.75.75 0 0 1 .75.75v2.056a.75.75 0 0 1-1.5 0v-2.056a.75.75 0 0 1 .75-.75m0-9.805a3.361 3.361 0 1 0 0 6.722 3.361 3.361 0 0 0 0-6.722" clip-rule="evenodd"/></svg>