<svg xmlns="http://www.w3.org/2000/svg" width="24" height="24" fill="none" class="persona-icon" viewBox="0 0 24 24"><path fill="currentColor" fill-rule="evenodd" d="M2 12a.75.75 0 0 1 .75-.75h2.056a.75.75 0 0 1 0 1.5H2.75A.75.75 0 0 1 2 12m5.442 4.557a.75.75 0 0 1 0 1.06l-1.454 1.454a.75.75 0 1 1-1.06-1.06l1.453-1.454a.75.75 0 0 1 1.06 0M4.93 4.93a.75.75 0 0 1 1.06 0l1.454 1.454a.75.75 0 0 1-1.06 1.06L4.93 5.99a.75.75 0 0 1 0-1.06M7.139 12a4.861 4.861 0 1 1 9.722 0 4.861 4.861 0 0 1-9.722 0M12 2a.75.75 0 0 1 .75.75v2.056a.75.75 0 0 1-1.5 0V2.75A.75.75 0 0 1 12 2m0 16.444a.75.75 0 0 1 .75.75v2.056a.75.75 0 0 1-1.5 0v-2.056a.75.75 0 0 1 .75-.75M19.07 4.93a.75.75 0 0 1 0 1.06l-1.453 1.454a.75.75 0 0 1-1.06-1.06L18.01 4.93a.75.75 0 0 1 1.06 0m-2.514 11.627a.75.75 0 0 1 1.061 0l1.454 1.453a.75.75 0 0 1-1.061 1.061l-1.454-1.453a.75.75 0 0 1 0-1.061M18.444 12a.75.75 0 0 1 .75-.75h2.056a.75.75 0 0 1 0 1.5h-2.056a.75.75 0 0 1-.75-.75M12 8.639a3.361 3.361 0 1 0 0 6.722 3.361 3.361 0 0 0 0-6.722" clip-rule="evenodd"/></svg>