<svg xmlns="http://www.w3.org/2000/svg" width="32" height="32" fill="none" class="persona-icon" viewBox="0 0 32 32"><path fill="currentColor" fill-rule="evenodd" d="M16 2a1 1 0 0 1 1 1v2.889a1 1 0 1 1-2 0V3a1 1 0 0 1 1-1M6.102 6.1a1 1 0 0 1 1.414 0l2.043 2.043a1 1 0 0 1-1.415 1.415L6.101 7.515a1 1 0 0 1 0-1.414m19.797.002a1 1 0 0 1 0 1.414L23.856 9.56a1 1 0 0 1-1.414-1.414l2.043-2.043a1 1 0 0 1 1.414 0M9.222 16a6.778 6.778 0 1 1 13.556 0 6.778 6.778 0 0 1-13.556 0M2 16a1 1 0 0 1 1-1h2.889a1 1 0 1 1 0 2H3a1 1 0 0 1-1-1m23.111.001a1 1 0 0 1 1-1H29a1 1 0 1 1 0 2H26.11a1 1 0 0 1-1-1m-2.67 6.441a1 1 0 0 1 1.415 0l2.043 2.043a1 1 0 0 1-1.415 1.414l-2.042-2.042a1 1 0 0 1 0-1.415m-12.885 0a1 1 0 0 1 0 1.415L7.513 25.9a1 1 0 0 1-1.414-1.414l2.043-2.043a1 1 0 0 1 1.414 0M16 25.112a1 1 0 0 1 1 1V29a1 1 0 1 1-2 0V26.11a1 1 0 0 1 1-1m0-13.889a4.778 4.778 0 1 0 0 9.555 4.778 4.778 0 0 0 0-9.555" clip-rule="evenodd"/></svg>