<svg xmlns="http://www.w3.org/2000/svg" width="16" height="16" fill="none" class="persona-icon" viewBox="0 0 16 16"><path fill="currentColor" fill-rule="evenodd" d="m8.877 3.448.004-.004.61-.61c.349-.349.89-.718 1.546-.811.683-.098 1.428.111 2.129.811.7.7.909 1.446.811 2.129-.094.656-.462 1.197-.811 1.546l-.611.611-.003.003-.003.003-6.748 6.748a.429.429 0 0 1-.304.126H2.43A.429.429 0 0 1 2 13.571v-3.068c0-.114.045-.223.126-.303l6.747-6.748zM5.32 13.143l6.323-6.323L9.18 4.357 2.857 10.68v2.463zM11.159 2.87c-.418.06-.798.305-1.062.57l-.31.31 2.462 2.463.31-.31c.265-.266.51-.646.57-1.063.056-.391-.042-.873-.57-1.4-.527-.528-1.009-.626-1.4-.57" clip-rule="evenodd"/><path fill="currentColor" d="M8.566 13.143a.429.429 0 0 0 0 .857h4.91a.429.429 0 0 0 0-.857z"/></svg>