<svg xmlns="http://www.w3.org/2000/svg" width="20" height="20" fill="none" class="persona-icon" viewBox="0 0 20 20"><path fill="currentColor" fill-rule="evenodd" d="m11.26 4.863-.008.01-7.83 7.832a1.4 1.4 0 0 0-.411.991v1.892a1.4 1.4 0 0 0 1.4 1.4l1.893.001c.371 0 .728-.148.99-.41l7.824-7.826.006-.006.355-.352.001-.002c.569-.568 1.16-1.241 1.39-2.004.12-.4.141-.83.012-1.271-.128-.436-.39-.843-.774-1.226-.383-.383-.79-.646-1.226-.774a2.2 2.2 0 0 0-1.27.013c-.763.228-1.436.82-2.004 1.388zm.434 1.335 2.105 2.106-7.388 7.391a.15.15 0 0 1-.107.044H4.412a.15.15 0 0 1-.15-.151l-.001-1.892c0-.04.016-.079.044-.107zm.885-.882c.528-.518.98-.865 1.391-.988a.95.95 0 0 1 .561-.01c.188.055.42.184.694.457.273.274.402.506.457.694a.96.96 0 0 1-.01.56c-.123.412-.47.864-.988 1.392z" clip-rule="evenodd"/><path fill="currentColor" d="M9.734 16.363c0-.345.28-.625.625-.625h4.6a.625.625 0 0 1 0 1.25h-4.6a.625.625 0 0 1-.625-.625"/></svg>