<svg xmlns="http://www.w3.org/2000/svg" width="24" height="24" fill="none" class="persona-icon" viewBox="0 0 24 24"><path fill="currentColor" fill-rule="evenodd" d="M14.109 4.977c.732-.732 1.59-1.485 2.559-1.775a2.8 2.8 0 0 1 1.607-.017c.55.162 1.068.494 1.557.983.488.49.821 1.006.982 1.557.164.558.136 1.1-.016 1.607-.29.97-1.043 1.828-1.776 2.56l-.002.002-.458.455-.006.006L8.47 20.445a1.75 1.75 0 0 1-1.238.512H4.793a1.75 1.75 0 0 1-1.749-1.75v-2.439c-.001-.464.183-.91.512-1.238L13.649 5.433l.01-.01.448-.445zM4.615 16.591a.25.25 0 0 0-.073.176l.001 2.44c0 .137.112.25.25.25h2.439a.25.25 0 0 0 .176-.073l9.564-9.567-2.793-2.793zM15.243 5.965l2.792 2.792c.69-.698 1.16-1.301 1.326-1.855.08-.265.086-.509.014-.755-.074-.254-.246-.56-.604-.918s-.664-.53-.918-.604a1.3 1.3 0 0 0-.755.013c-.554.167-1.157.637-1.855 1.327" clip-rule="evenodd"/><path fill="currentColor" d="M11.71 20.206a.75.75 0 0 1 .75-.75h5.929a.75.75 0 1 1 0 1.5H12.46a.75.75 0 0 1-.75-.75"/></svg>