<svg xmlns="http://www.w3.org/2000/svg" width="32" height="32" fill="none" class="persona-icon"><path fill="currentColor" d="m10.87 29.71 17.185-17.186c.815-.815 1.675-2.076 1.894-3.609.228-1.592-.26-3.332-1.894-4.966-1.634-1.634-3.373-2.122-4.965-1.894-1.533.219-2.795 1.08-3.61 1.894L2.296 21.135a1 1 0 0 0-.293.707v7.16a1 1 0 0 0 1 1h7.16a1 1 0 0 0 .708-.293Zm-6.868-7.454L18.866 7.392l5.747 5.746L9.749 28.002H4.002v-5.746Zm19.37-18.221c.914-.13 2.039.098 3.27 1.328 1.23 1.23 1.458 2.356 1.328 3.27-.14.973-.711 1.86-1.329 2.477l-.614.614-5.746-5.747.614-.614c.617-.617 1.504-1.189 2.477-1.328ZM17.545 28.002a1 1 0 1 0 0 2h11.457a1 1 0 1 0 0-2H17.545Z"/></svg>