<svg xmlns="http://www.w3.org/2000/svg" width="16" height="16" fill="none" class="persona-icon" viewBox="0 0 16 16"><path fill="currentColor" d="M7.502 2a2.944 2.944 0 1 1 0 5.889 2.944 2.944 0 0 1 0-5.889"/><path fill="currentColor" fill-rule="evenodd" d="M12.712 5.333a1.712 1.712 0 0 1 1.512 2.517l.963.963a.5.5 0 1 1-.707.707l-.963-.963a1.712 1.712 0 1 1-.804-3.224M12 7.045a.712.712 0 1 0 1.424 0 .712.712 0 0 0-1.424 0" clip-rule="evenodd"/><path fill="currentColor" d="M6.202 8.667h2.6c1.154 0 2.251.505 3 1.384.344.402.533.914.533 1.443v.173A2.333 2.333 0 0 1 10.002 14h-5a2.333 2.333 0 0 1-2.333-2.333v-.173c0-.53.188-1.04.532-1.443a3.95 3.95 0 0 1 3.001-1.384"/></svg>