<svg xmlns="http://www.w3.org/2000/svg" width="24" height="24" fill="none" class="persona-icon" viewBox="0 0 24 24"><path fill="currentColor" d="M11.253 3a4.417 4.417 0 1 0 0 8.833 4.417 4.417 0 0 0 0-8.833"/><path fill="currentColor" fill-rule="evenodd" d="M19.068 8a2.568 2.568 0 1 0 1.207 4.835l1.445 1.445a.75.75 0 0 0 1.06-1.06l-1.445-1.445A2.568 2.568 0 0 0 19.069 8M18 10.568a1.068 1.068 0 1 1 2.136 0 1.068 1.068 0 0 1-2.136 0" clip-rule="evenodd"/><path fill="currentColor" d="M9.303 13a5.92 5.92 0 0 0-4.502 2.076 3.34 3.34 0 0 0-.798 2.165v.259a3.5 3.5 0 0 0 3.5 3.5h7.5a3.5 3.5 0 0 0 3.5-3.5v-.259c0-.793-.283-1.561-.799-2.165A5.92 5.92 0 0 0 13.202 13z"/></svg>