<svg xmlns="http://www.w3.org/2000/svg" width="32" height="32" fill="none" class="persona-icon" viewBox="0 0 32 32"><path fill="currentColor" d="M15.004 4a5.889 5.889 0 1 1 0 11.778 5.889 5.889 0 0 1 0-11.778"/><path fill="currentColor" fill-rule="evenodd" d="M25.424 10.666a3.424 3.424 0 0 1 3.023 5.034l1.927 1.926a1 1 0 0 1-1.415 1.415l-1.926-1.927a3.424 3.424 0 1 1-1.608-6.448M24 14.09a1.424 1.424 0 1 0 2.848 0 1.424 1.424 0 0 0-2.848 0" clip-rule="evenodd"/><path fill="currentColor" d="M12.404 17.333h5.199a7.9 7.9 0 0 1 6.003 2.769 4.45 4.45 0 0 1 1.064 2.886v.345A4.667 4.667 0 0 1 20.004 28h-10a4.667 4.667 0 0 1-4.667-4.667v-.345c0-1.058.377-2.082 1.065-2.886a7.9 7.9 0 0 1 6.002-2.769"/></svg>