<svg xmlns="http://www.w3.org/2000/svg" width="16" height="16" fill="none" class="persona-icon" viewBox="0 0 16 16"><path fill="currentColor" fill-rule="evenodd" d="M6.878 6.518c0-.734.623-1.33 1.392-1.33s1.392.596 1.392 1.33-.623 1.33-1.392 1.33-1.392-.595-1.392-1.33m1.392-.4a.41.41 0 0 0-.42.4c0 .222.188.4.42.4a.41.41 0 0 0 .42-.4.41.41 0 0 0-.42-.4M7.727 8.161c-.564 0-1.1.236-1.466.646a1.12 1.12 0 0 0-.288.748v.03c0 .683.578 1.236 1.293 1.236h2.009c.714 0 1.293-.553 1.293-1.235v-.03c0-.275-.102-.54-.289-.75a1.97 1.97 0 0 0-1.466-.645zM7.001 9.41a.97.97 0 0 1 .726-.32h1.086c.28 0 .545.117.726.32.036.04.056.092.056.145v.03a.313.313 0 0 1-.32.306h-2.01a.313.313 0 0 1-.32-.306v-.03q.001-.082.056-.145" clip-rule="evenodd"/><path fill="currentColor" fill-rule="evenodd" d="M2.937 4.387v-.665C2.937 2.77 3.744 2 4.739 2h6.459C12.193 2 13 2.77 13 3.722v8.556C13 13.23 12.193 14 11.198 14h-6.46c-.994 0-1.801-.77-1.801-1.722v-.665h-.434a.49.49 0 0 1-.503-.48c0-.266.225-.481.503-.481h.434V8.48h-.434A.49.49 0 0 1 2 8c0-.266.225-.48.503-.48h.434V5.347h-.434A.49.49 0 0 1 2 4.868c0-.266.225-.481.503-.481zm8.26-1.426H4.74c-.44 0-.796.34-.796.76v.666h.122c.278 0 .503.215.503.48 0 .266-.225.481-.503.481h-.122V7.52h.122c.278 0 .503.215.503.481 0 .265-.225.48-.503.48h-.122v2.172h.122c.278 0 .503.215.503.48 0 .266-.225.481-.503.481h-.122v.665c0 .42.356.76.796.76h6.459c.44 0 .796-.34.796-.76V3.722c0-.42-.357-.76-.796-.76" clip-rule="evenodd"/></svg>