<svg xmlns="http://www.w3.org/2000/svg" width="20" height="20" fill="none" class="persona-icon" viewBox="0 0 20 20"><path fill="currentColor" fill-rule="evenodd" d="M3.975 14.535h-.492a.625.625 0 1 1 0-1.25h.492v-2.66h-.492a.625.625 0 0 1 0-1.25h.492v-2.66h-.492a.625.625 0 1 1 0-1.25h.492v-.806c0-1.2.973-2.174 2.174-2.174h7.702c1.2 0 2.174.974 2.174 2.174v10.682c0 1.2-.973 2.174-2.174 2.174H6.149c-1.2 0-2.174-.974-2.174-2.174zm2.174-10.8a.924.924 0 0 0-.924.924v.806h.12a.625.625 0 1 1 0 1.25h-.12v2.66h.12a.625.625 0 1 1 0 1.25h-.12v2.66h.12a.625.625 0 1 1 0 1.25h-.12v.806c0 .51.414.924.924.924h7.702c.51 0 .924-.414.924-.924V4.659a.924.924 0 0 0-.924-.924zM8.575 8.11a1.725 1.725 0 1 1 3.45 0 1.725 1.725 0 0 1-3.45 0m-.74 2.888a2.37 2.37 0 0 1 1.805-.833h1.32c.695 0 1.355.304 1.806.833a1.5 1.5 0 0 1 .359.973v.039c0 .886-.719 1.605-1.605 1.605H9.08a1.605 1.605 0 0 1-1.605-1.605v-.039a1.5 1.5 0 0 1 .36-.973M10.3 7.635a.475.475 0 1 0 0 .95.475.475 0 0 0 0-.95m-.66 3.78c-.329 0-.642.144-.855.394a.25.25 0 0 0-.06.162v.039c0 .196.159.355.355.355h2.44a.355.355 0 0 0 .355-.355v-.039a.25.25 0 0 0-.06-.162 1.13 1.13 0 0 0-.855-.394z" clip-rule="evenodd"/></svg>