<svg xmlns="http://www.w3.org/2000/svg" width="24" height="24" fill="none" class="persona-icon" viewBox="0 0 24 24"><path fill="currentColor" fill-rule="evenodd" d="M12.238 9.722a2.4 2.4 0 1 1 4.8 0 2.4 2.4 0 0 1-4.8 0m2.4-.9a.9.9 0 1 0 0 1.8.9.9 0 0 0 0-1.8M13.649 12.272c-.988 0-1.926.432-2.567 1.183a2.06 2.06 0 0 0-.494 1.339v.058a2.22 2.22 0 0 0 2.22 2.22h3.66a2.22 2.22 0 0 0 2.22-2.22v-.058c0-.49-.175-.966-.493-1.339a3.37 3.37 0 0 0-2.567-1.184zm-1.426 2.157a1.87 1.87 0 0 1 1.426-.658h1.98c.548 0 1.069.24 1.425.658a.56.56 0 0 1 .134.365v.058a.72.72 0 0 1-.72.72h-3.66a.72.72 0 0 1-.72-.72v-.058c0-.134.048-.263.135-.365" clip-rule="evenodd"/><path fill="currentColor" fill-rule="evenodd" d="M3.973 6V4.83A2.83 2.83 0 0 1 6.803 2h11.34a2.83 2.83 0 0 1 2.83 2.83v14.34a2.83 2.83 0 0 1-2.83 2.83H6.803a2.83 2.83 0 0 1-2.83-2.83V18h-.75a.75.75 0 0 1 0-1.5h.75v-3.75h-.75a.75.75 0 0 1 0-1.5h.75V7.5h-.75a.75.75 0 0 1 0-1.5zm2.83-2.5a1.33 1.33 0 0 0-1.33 1.33V6h.75a.75.75 0 1 1 0 1.5h-.75v3.75h.75a.75.75 0 1 1 0 1.5h-.75v3.75h.75a.75.75 0 1 1 0 1.5h-.75v1.17c0 .735.595 1.33 1.33 1.33h1.499v-17zm11.34 17a1.33 1.33 0 0 0 1.33-1.33V4.83a1.33 1.33 0 0 0-1.33-1.33H9.802v17z" clip-rule="evenodd"/></svg>