<svg xmlns="http://www.w3.org/2000/svg" width="24" height="24" fill="none" class="persona-icon" viewBox="0 0 24 24"><path fill="currentColor" fill-rule="evenodd" d="M4 18h-.75a.75.75 0 0 1 0-1.5H4v-3.75h-.75a.75.75 0 0 1 0-1.5H4V7.5h-.75a.75.75 0 0 1 0-1.5H4V4.83A2.83 2.83 0 0 1 6.83 2h10.34A2.83 2.83 0 0 1 20 4.83v14.34A2.83 2.83 0 0 1 17.17 22H6.83A2.83 2.83 0 0 1 4 19.17zM6.83 3.5A1.33 1.33 0 0 0 5.5 4.83V6h.25a.75.75 0 0 1 0 1.5H5.5v3.75h.25a.75.75 0 1 1 0 1.5H5.5v3.75h.25a.75.75 0 1 1 0 1.5H5.5v1.17c0 .735.595 1.33 1.33 1.33h10.34a1.33 1.33 0 0 0 1.33-1.33V4.83a1.33 1.33 0 0 0-1.33-1.33zM10 9.45a2.25 2.25 0 1 1 4.5 0 2.25 2.25 0 0 1-4.5 0m-1.035 4.003a3.14 3.14 0 0 1 2.385-1.1h1.8c.918 0 1.79.402 2.385 1.1.3.352.465.8.465 1.262v.053a2.086 2.086 0 0 1-2.086 2.086h-3.328A2.086 2.086 0 0 1 8.5 14.768v-.053c0-.463.165-.91.465-1.262M12.25 8.7a.75.75 0 1 0 0 1.5.75.75 0 0 0 0-1.5m-.9 5.154c-.478 0-.933.21-1.244.573a.44.44 0 0 0-.106.288v.053c0 .323.262.586.586.586h3.328a.586.586 0 0 0 .586-.586v-.053a.44.44 0 0 0-.106-.288 1.64 1.64 0 0 0-1.244-.573z" clip-rule="evenodd"/></svg>