<svg xmlns="http://www.w3.org/2000/svg" width="24" height="24" fill="none" class="persona-icon" viewBox="0 0 24 24"><path fill="currentColor" fill-rule="evenodd" d="M10.285 9.45c0-1.243.979-2.25 2.186-2.25s2.186 1.007 2.186 2.25-.979 2.25-2.186 2.25-2.186-1.007-2.186-2.25m2.186-.75a.74.74 0 0 0-.729.75c0 .414.326.75.729.75a.74.74 0 0 0 .728-.75.74.74 0 0 0-.728-.75M11.597 12.354c-.891 0-1.738.402-2.317 1.1a1.98 1.98 0 0 0-.452 1.26v.054c0 1.152.908 2.085 2.027 2.085h3.233c1.119 0 2.026-.933 2.026-2.085v-.053c0-.463-.16-.91-.452-1.262a3.01 3.01 0 0 0-2.317-1.1zm-1.208 2.073a1.57 1.57 0 0 1 1.208-.573h1.748c.465 0 .907.21 1.209.573a.45.45 0 0 1 .103.288v.053a.58.58 0 0 1-.57.585h-3.232a.58.58 0 0 1-.57-.585v-.053a.45.45 0 0 1 .104-.288" clip-rule="evenodd"/><path fill="currentColor" fill-rule="evenodd" d="M4.457 6V4.83C4.457 3.267 5.687 2 7.206 2H17.25C18.77 2 20 3.267 20 4.83v14.34c0 1.563-1.23 2.83-2.749 2.83H7.206c-1.519 0-2.75-1.267-2.75-2.83V18H3.73A.74.74 0 0 1 3 17.25a.74.74 0 0 1 .729-.75h.728v-3.75h-.728A.74.74 0 0 1 3 12a.74.74 0 0 1 .729-.75h.728V7.5h-.728A.74.74 0 0 1 3 6.75.74.74 0 0 1 3.729 6zM17.25 3.5H7.206c-.714 0-1.292.595-1.292 1.33V6h.243a.74.74 0 0 1 .729.75.74.74 0 0 1-.729.75h-.243v3.75h.243a.74.74 0 0 1 .729.75.74.74 0 0 1-.729.75h-.243v3.75h.243a.74.74 0 0 1 .729.75.74.74 0 0 1-.729.75h-.243v1.17c0 .735.578 1.33 1.292 1.33H17.25c.713 0 1.292-.595 1.292-1.33V4.83c0-.735-.578-1.33-1.292-1.33" clip-rule="evenodd"/></svg>