<svg xmlns="http://www.w3.org/2000/svg" width="32" height="32" fill="none" class="persona-icon" viewBox="0 0 32 32"><path fill="currentColor" fill-rule="evenodd" d="M13.346 12.593c0-1.7 1.385-3.078 3.093-3.078a3.086 3.086 0 0 1 3.094 3.078c0 1.7-1.385 3.078-3.094 3.078a3.086 3.086 0 0 1-3.093-3.078m3.093-.927a.93.93 0 0 0-.932.927.93.93 0 0 0 .932.927.93.93 0 0 0 .932-.927.93.93 0 0 0-.932-.927M15.233 16.396a4.3 4.3 0 0 0-3.257 1.494 2.66 2.66 0 0 0-.642 1.732v.07c0 1.58 1.286 2.86 2.873 2.86h4.466a2.866 2.866 0 0 0 2.873-2.86v-.07a2.66 2.66 0 0 0-.642-1.732 4.3 4.3 0 0 0-3.257-1.495zm-1.613 2.89c.403-.469.992-.74 1.613-.74h2.414c.62 0 1.21.271 1.613.74.08.094.124.213.124.336v.07a.71.71 0 0 1-.711.709h-4.466a.71.71 0 0 1-.712-.708v-.07c0-.124.045-.243.125-.336" clip-rule="evenodd"/><path fill="currentColor" fill-rule="evenodd" d="M5.873 8.472V7.087A3.595 3.595 0 0 1 9.478 3.5h12.918A3.596 3.596 0 0 1 26 7.087v17.826a3.596 3.596 0 0 1-3.604 3.587H9.478a3.595 3.595 0 0 1-3.605-3.587v-1.385h-.867A1.004 1.004 0 0 1 4 22.526c0-.553.45-1.001 1.006-1.001h.867V17h-.867A1.004 1.004 0 0 1 4 16c0-.553.45-1.001 1.006-1.001h.867v-4.524h-.867A1.004 1.004 0 0 1 4 9.474c0-.553.45-1.002 1.006-1.002zm16.523-2.97H9.478c-.88 0-1.592.71-1.592 1.585v1.385h.243c.556 0 1.007.449 1.007 1.002s-.45 1.001-1.007 1.001h-.243V15h.243c.556 0 1.007.448 1.007 1.001s-.45 1.001-1.007 1.001h-.243v4.524h.243c.556 0 1.007.448 1.007 1.001s-.45 1.002-1.007 1.002h-.243v1.385c0 .875.713 1.584 1.592 1.584h12.918c.879 0 1.591-.709 1.591-1.584V7.087c0-.875-.712-1.584-1.591-1.584" clip-rule="evenodd"/></svg>