<svg xmlns="http://www.w3.org/2000/svg" width="32" height="32" fill="none" class="persona-icon" viewBox="0 0 32 32"><path fill="currentColor" fill-rule="evenodd" d="M6 23.517v1.384a3.58 3.58 0 0 0 3.582 3.582h12.836A3.58 3.58 0 0 0 26 24.9V7.1a3.58 3.58 0 0 0-3.582-3.582H9.582A3.58 3.58 0 0 0 6 7.1v1.384h-.862a1 1 0 0 0 0 2H6V15h-.862a1 1 0 1 0 0 2H6v4.517h-.862a1 1 0 1 0 0 2zm3.582-18h12.836c.874 0 1.582.708 1.582 1.582v17.802c0 .874-.708 1.582-1.582 1.582H9.582A1.58 1.58 0 0 1 8 24.9v-1.384h.242a1 1 0 1 0 0-2H8V17h.242a1 1 0 1 0 0-2H8v-4.517h.242a1 1 0 1 0 0-2H8V7.099c0-.873.708-1.582 1.582-1.582m2.538 12.419a2.6 2.6 0 0 0-.62 1.681v.07a2.78 2.78 0 0 0 2.781 2.782h4.437a2.78 2.78 0 0 0 2.782-2.781v-.07c0-.617-.22-1.213-.62-1.682a4.18 4.18 0 0 0-3.18-1.467h-2.4a4.18 4.18 0 0 0-3.18 1.467m1.38-5.338a3 3 0 1 1 6 0 3 3 0 0 1-6 0m1.8 5.871h2.4c.638 0 1.244.28 1.658.765a.6.6 0 0 1 .142.383v.07c0 .432-.35.782-.782.782h-4.437a.78.78 0 0 1-.781-.781v-.07c0-.141.05-.277.141-.384a2.18 2.18 0 0 1 1.66-.765m1.2-6.871a1 1 0 1 1 0 2 1 1 0 0 1 0-2" clip-rule="evenodd"/></svg>