<svg xmlns="http://www.w3.org/2000/svg" width="32" height="32" fill="none" class="persona-icon" viewBox="0 0 32 32"><path fill="currentColor" fill-rule="evenodd" d="M6 23.517h-.862a1 1 0 1 1 0-2H6V17h-.862a1 1 0 1 1 0-2H6v-4.517h-.862a1 1 0 1 1 0-2H6V7.099a3.58 3.58 0 0 1 3.582-3.582h12.836A3.58 3.58 0 0 1 26 7.1v17.802a3.58 3.58 0 0 1-3.582 3.582H9.582A3.58 3.58 0 0 1 6 24.9zm3.582-18C8.708 5.517 8 6.225 8 7.1v1.384h.242a1 1 0 0 1 0 2H8V15h.242a1 1 0 1 1 0 2H8v4.517h.242a1 1 0 1 1 0 2H8v1.384c0 .874.708 1.582 1.582 1.582h12.836c.874 0 1.582-.708 1.582-1.582V7.1c0-.873-.708-1.582-1.582-1.582zm3.917 7.08a3 3 0 1 1 6 0 3 3 0 0 1-6 0m-1.379 5.339a4.18 4.18 0 0 1 3.18-1.467h2.4c1.223 0 2.385.536 3.18 1.467.4.468.62 1.065.62 1.681v.07a2.78 2.78 0 0 1-2.782 2.782h-4.437a2.78 2.78 0 0 1-2.781-2.781v-.07c0-.617.22-1.213.62-1.682m4.38-6.338a1 1 0 1 0 0 2 1 1 0 0 0 0-2m-1.2 6.871c-.638 0-1.244.28-1.659.765a.6.6 0 0 0-.141.383v.07c0 .432.35.782.781.782h4.437c.432 0 .782-.35.782-.781v-.07a.6.6 0 0 0-.142-.384 2.18 2.18 0 0 0-1.658-.765z" clip-rule="evenodd"/></svg>