<svg xmlns="http://www.w3.org/2000/svg" width="16" height="16" fill="none" class="persona-icon" viewBox="0 0 16 16"><path fill="currentColor" d="M6.056 1.583v.722h3.888v-.722a.5.5 0 1 1 1 0v.722h.723A2.333 2.333 0 0 1 14 4.64V5.86a.5.5 0 0 1-.5.5H3v5c0 .736.597 1.333 1.333 1.333h1.834a.5.5 0 0 1 0 1H4.333A2.333 2.333 0 0 1 2 11.361V4.64a2.333 2.333 0 0 1 2.333-2.334h.723v-.722a.5.5 0 1 1 1 0"/><path fill="currentColor" fill-rule="evenodd" d="M11.056 7.528a3.556 3.556 0 1 1 0 7.11 3.556 3.556 0 0 1 0-7.11m0 1.833a.5.5 0 0 0-.5.5v1.43l1.063 1.063a.5.5 0 0 0 .707-.708l-.77-.77V9.861a.5.5 0 0 0-.5-.5" clip-rule="evenodd"/></svg>