<svg xmlns="http://www.w3.org/2000/svg" width="20" height="20" fill="none" class="persona-icon" viewBox="0 0 20 20"><path fill="currentColor" d="M7.156 1.908c.345 0 .625.28.625.625v.797h4.439v-.797a.625.625 0 1 1 1.25 0v.797h.797a2.76 2.76 0 0 1 2.758 2.759V7.51a.625.625 0 0 1-.625.625H4.225v5.775c0 .833.675 1.508 1.508 1.508h2.134a.625.625 0 1 1 0 1.25H5.733a2.76 2.76 0 0 1-2.758-2.758V6.088A2.76 2.76 0 0 1 5.733 3.33h.798v-.797c0-.345.28-.625.625-.625"/><path fill="currentColor" fill-rule="evenodd" d="M13.556 9.407a4.18 4.18 0 1 1 0 8.361 4.18 4.18 0 0 1 0-8.36m0 2.133a.625.625 0 0 0-.625.625v1.682l1.25 1.25a.625.625 0 0 0 .883-.885l-.883-.883v-1.164a.625.625 0 0 0-.625-.625" clip-rule="evenodd"/></svg>