<svg xmlns="http://www.w3.org/2000/svg" width="24" height="24" fill="none" class="persona-icon" viewBox="0 0 24 24"><path fill="currentColor" d="M9.083 2.375a.75.75 0 0 0-1.5 0v1.083H6.5a3.5 3.5 0 0 0-3.5 3.5v10.084a3.5 3.5 0 0 0 3.5 3.5h2.75a.75.75 0 1 0 0-1.5H6.5a2 2 0 0 1-2-2v-7.5h15.75a.75.75 0 0 0 .75-.75V6.958q-.001-.426-.097-.823A3.5 3.5 0 0 0 17.5 3.458h-1.083V2.375a.75.75 0 1 0-1.5 0v1.083H9.083z"/><path fill="currentColor" fill-rule="evenodd" d="M16.583 11.292a5.333 5.333 0 1 0 0 10.666 5.333 5.333 0 0 0 0-10.666m0 2.75a.75.75 0 0 1 .75.75v1.522l1.156 1.156a.75.75 0 1 1-1.061 1.06l-1.595-1.594v-2.144a.75.75 0 0 1 .75-.75" clip-rule="evenodd"/></svg>