<svg xmlns="http://www.w3.org/2000/svg" width="24" height="24" fill="none" class="persona-icon" viewBox="0 0 24 24"><path fill="currentColor" d="M9.083 2.375v1.083h5.834V2.375a.75.75 0 0 1 1.5 0v1.083H17.5a3.5 3.5 0 0 1 3.5 3.5v1.834a.75.75 0 0 1-.75.75H4.5v7.5a2 2 0 0 0 2 2h2.75a.75.75 0 0 1 0 1.5H6.5a3.5 3.5 0 0 1-3.5-3.5V6.958a3.5 3.5 0 0 1 3.5-3.5h1.083V2.375a.75.75 0 1 1 1.5 0"/><path fill="currentColor" fill-rule="evenodd" d="M16.583 11.292a5.333 5.333 0 1 1 0 10.666 5.333 5.333 0 0 1 0-10.666m0 2.75a.75.75 0 0 0-.75.75v2.144l1.595 1.594a.75.75 0 0 0 1.06-1.06l-1.155-1.156v-1.522a.75.75 0 0 0-.75-.75" clip-rule="evenodd"/></svg>