<svg xmlns="http://www.w3.org/2000/svg" width="32" height="32" fill="none" class="persona-icon" viewBox="0 0 32 32"><path fill="currentColor" d="M12.111 3.166v1.445h7.778V3.166a1 1 0 0 1 2 0v1.445h1.444A4.67 4.67 0 0 1 28 9.278v2.444a1 1 0 0 1-1 1H6v10a2.667 2.667 0 0 0 2.667 2.667h3.666a1 1 0 1 1 0 2H8.667A4.667 4.667 0 0 1 4 22.722V9.278A4.667 4.667 0 0 1 8.667 4.61h1.444V3.166a1 1 0 0 1 2 0"/><path fill="currentColor" fill-rule="evenodd" d="M22.111 15.055a7.111 7.111 0 1 1 0 14.223 7.111 7.111 0 0 1 0-14.223m0 3.667a1 1 0 0 0-1 1v2.859l2.126 2.126a1 1 0 0 0 1.414-1.414l-1.54-1.54v-2.03a1 1 0 0 0-1-1" clip-rule="evenodd"/></svg>