<svg xmlns="http://www.w3.org/2000/svg" width="16" height="16" fill="none" class="persona-icon" viewBox="0 0 16 16"><path fill="currentColor" fill-rule="evenodd" d="M2 4.945c0-.952.771-1.723 1.722-1.723h8.556c.95 0 1.722.772 1.722 1.723v6.11c0 .952-.771 1.723-1.722 1.723H3.722A1.72 1.72 0 0 1 2 11.056zm1.722-.723A.72.72 0 0 0 3 4.945v6.11c0 .4.323.723.722.723h8.556a.72.72 0 0 0 .722-.722V4.945a.72.72 0 0 0-.722-.723zm7.945 2.056a.5.5 0 0 0-.5.5v2.444a.5.5 0 0 0 1 0V6.778a.5.5 0 0 0-.5-.5" clip-rule="evenodd"/></svg>