<svg xmlns="http://www.w3.org/2000/svg" width="20" height="20" fill="none" class="persona-icon" viewBox="0 0 20 20"><path fill="currentColor" fill-rule="evenodd" d="M2.463 6.141C2.463 4.958 3.422 4 4.604 4h10.792c1.183 0 2.142.96 2.142 2.142v7.717a2.142 2.142 0 0 1-2.142 2.141H4.604a2.142 2.142 0 0 1-2.141-2.141V6.14ZM4.604 5.2a.942.942 0 0 0-.941.942v7.717c0 .52.422.941.942.941h10.79c.52 0 .942-.421.942-.941V6.14a.942.942 0 0 0-.941-.942H4.604Zm10.009 2.626a.6.6 0 0 1 .6.6v3.15a.6.6 0 0 1-1.2 0v-3.15a.6.6 0 0 1 .6-.6Z" clip-rule="evenodd"/></svg>