<svg xmlns="http://www.w3.org/2000/svg" width="24" height="24" fill="none" class="persona-icon" viewBox="0 0 24 24"><path fill="currentColor" fill-rule="evenodd" d="M2 6.856A2.806 2.806 0 0 1 4.806 4.05h14.388A2.806 2.806 0 0 1 22 6.856v10.289a2.806 2.806 0 0 1-2.806 2.805H4.806A2.806 2.806 0 0 1 2 17.145V6.855ZM4.806 5.55c-.721 0-1.306.585-1.306 1.306v10.289c0 .72.585 1.305 1.306 1.305h14.388c.722 0 1.306-.584 1.306-1.305V6.855c0-.72-.584-1.305-1.306-1.305H4.806Zm13.344 3.6a.75.75 0 0 0-.75.75v4.2a.75.75 0 1 0 1.5 0V9.9a.75.75 0 0 0-.75-.75Z" clip-rule="evenodd"/></svg>