<svg xmlns="http://www.w3.org/2000/svg" width="32" height="32" fill="none" class="persona-icon" viewBox="0 0 32 32"><path fill="currentColor" fill-rule="evenodd" d="M4 9.889a3.444 3.444 0 0 1 3.444-3.444h17.112A3.444 3.444 0 0 1 28 9.889v12.222a3.444 3.444 0 0 1-3.444 3.445H7.444A3.444 3.444 0 0 1 4 22.11zm3.444-1.444C6.647 8.445 6 9.09 6 9.889v12.222c0 .798.647 1.445 1.444 1.445h17.112c.797 0 1.444-.647 1.444-1.445V9.89c0-.798-.647-1.444-1.444-1.444zm15.89 4.11a1 1 0 0 1 1 1v4.89a1 1 0 1 1-2 0v-4.89a1 1 0 0 1 1-1" clip-rule="evenodd"/></svg>