<svg xmlns="http://www.w3.org/2000/svg" width="16" height="16" fill="none" class="persona-icon" viewBox="0 0 16 16"><path fill="currentColor" fill-rule="evenodd" d="M8.145 1.765a2.96 2.96 0 0 1 2.795 3.12l-.078 1.42h.044c1.157 0 2.094.937 2.094 2.094v3.519a2.094 2.094 0 0 1-2.094 2.093H5.094A2.094 2.094 0 0 1 3 11.918v-3.52c0-1.156.938-2.093 2.094-2.093h4.767l.08-1.476a1.961 1.961 0 1 0-3.917-.215.5.5 0 0 1-.998-.054 2.96 2.96 0 0 1 3.12-2.795M8 9.074a.47.47 0 0 0-.469.469v1.23a.469.469 0 1 0 .938 0v-1.23a.47.47 0 0 0-.47-.469" clip-rule="evenodd"/></svg>