<svg xmlns="http://www.w3.org/2000/svg" width="20" height="20" fill="none" class="persona-icon" viewBox="0 0 20 20"><path fill="currentColor" fill-rule="evenodd" d="M10.176 2.497a3.58 3.58 0 0 0-3.77 3.377.625.625 0 0 0 1.249.068 2.329 2.329 0 0 1 4.65.255l-.097 1.773H6.513a2.51 2.51 0 0 0-2.512 2.512v4.223a2.51 2.51 0 0 0 2.512 2.512h6.975a2.51 2.51 0 0 0 2.513-2.512v-4.223a2.51 2.51 0 0 0-2.513-2.512h-.028l.093-1.704a3.58 3.58 0 0 0-3.377-3.77M10 11.292c.311 0 .563.252.563.563v1.477a.563.563 0 0 1-1.125 0v-1.477c0-.31.252-.563.562-.563" clip-rule="evenodd"/></svg>