<svg xmlns="http://www.w3.org/2000/svg" width="20" height="20" fill="none" class="persona-icon" viewBox="0 0 20 20"><path fill="currentColor" fill-rule="evenodd" d="M10.176 2.497a3.58 3.58 0 0 1 3.377 3.769L13.46 7.97h.028a2.51 2.51 0 0 1 2.513 2.512v4.223a2.51 2.51 0 0 1-2.513 2.512H6.513a2.51 2.51 0 0 1-2.512-2.512v-4.223A2.51 2.51 0 0 1 6.513 7.97h5.695l.097-1.772a2.33 2.33 0 1 0-4.65-.256.625.625 0 1 1-1.248-.068 3.58 3.58 0 0 1 3.77-3.377M10 11.292a.563.563 0 0 0-.562.563v1.477a.563.563 0 0 0 1.125 0v-1.477a.563.563 0 0 0-.563-.563" clip-rule="evenodd"/></svg>