<svg xmlns="http://www.w3.org/2000/svg" width="24" height="24" fill="none" class="persona-icon" viewBox="0 0 24 24"><path fill="currentColor" fill-rule="evenodd" d="M12.23 2.067a4.69 4.69 0 0 0-4.938 4.425.75.75 0 0 0 1.497.082 3.189 3.189 0 0 1 6.367.349l-.13 2.358H7.35A3.35 3.35 0 0 0 4 12.63v5.63c0 1.85 1.5 3.35 3.35 3.35h9.3c1.85 0 3.35-1.5 3.35-3.35v-5.63c0-1.85-1.5-3.35-3.35-3.35h-.12l.124-2.276a4.687 4.687 0 0 0-4.424-4.938M12 13.711a.75.75 0 0 1 .75.75v1.97a.75.75 0 0 1-1.5 0v-1.97a.75.75 0 0 1 .75-.75" clip-rule="evenodd"/></svg>