<svg xmlns="http://www.w3.org/2000/svg" width="32" height="32" fill="none" class="persona-icon" viewBox="0 0 32 32"><path fill="currentColor" fill-rule="evenodd" d="M16.291 3.53a5.924 5.924 0 0 0-6.238 5.59 1 1 0 0 0 1.997.11 3.923 3.923 0 1 1 7.834.429l-.162 2.95h-9.534a4.187 4.187 0 0 0-4.187 4.188v7.038a4.187 4.187 0 0 0 4.187 4.188h11.626A4.187 4.187 0 0 0 26 23.835v-7.038a4.187 4.187 0 0 0-4.187-4.187h-.09l.157-2.841a5.92 5.92 0 0 0-5.59-6.239m-.29 14.618c.517 0 .937.42.937.938v2.461a.938.938 0 0 1-1.875 0v-2.461c0-.518.42-.938.938-.938" clip-rule="evenodd"/></svg>