<svg xmlns="http://www.w3.org/2000/svg" width="16" height="16" fill="none" class="persona-icon" viewBox="0 0 16 16"><path fill="currentColor" fill-rule="evenodd" d="M8 1a7 7 0 0 1 7 7c0 1.395-.418 2.175-.904 2.671-.453.462-1.066.9-1.803 1.006-.476.068-.943.018-1.36-.055q-.287-.05-.55-.107l-.057-.012q-.29-.062-.545-.102c-.347-.053-.607-.055-.814.007-.184.055-.366.173-.538.46-.077.128-.093.276-.034.473.063.21.202.444.391.68.284.356.355.82.236 1.209-.125.407-.48.77-1.022.77A7 7 0 0 1 8 1M3.125 9.083a1.625 1.625 0 1 0 3.25 0 1.625 1.625 0 0 0-3.25 0m1.084-3.61a1.625 1.625 0 1 0 3.25 0 1.625 1.625 0 0 0-3.25 0m5.597-2.348a1.625 1.625 0 1 0 0 3.25 1.625 1.625 0 0 0 0-3.25m-.18 5.236a1.625 1.625 0 1 0 3.25 0 1.625 1.625 0 0 0-3.25 0" clip-rule="evenodd"/></svg>