<svg xmlns="http://www.w3.org/2000/svg" width="20" height="20" fill="none" class="persona-icon" viewBox="0 0 20 20"><path fill="currentColor" fill-rule="evenodd" d="M10 1.975a8.025 8.025 0 1 0 0 16.05c.646 0 1.07-.434 1.217-.916.14-.46.056-1.008-.278-1.426-.213-.268-.367-.527-.435-.756-.064-.214-.045-.365.032-.494.19-.316.386-.441.581-.5.223-.067.51-.066.902-.006q.288.046.617.116l.065.014c.199.04.412.085.628.122.478.082 1.016.14 1.566.062.856-.123 1.565-.63 2.085-1.161.564-.576 1.045-1.48 1.045-3.08A8.025 8.025 0 0 0 10 1.975m-5.558 9.259a1.858 1.858 0 1 1 3.716 0 1.858 1.858 0 0 1-3.716 0m1.233-4.112a1.858 1.858 0 1 1 3.717 0 1.858 1.858 0 0 1-3.717 0m6.38-2.68a1.858 1.858 0 1 1 0 3.716 1.858 1.858 0 0 1 0-3.716m-.213 5.97a1.858 1.858 0 1 1 3.716 0 1.858 1.858 0 0 1-3.716 0" clip-rule="evenodd"/></svg>