<svg xmlns="http://www.w3.org/2000/svg" width="32" height="32" fill="none" class="persona-icon" viewBox="0 0 32 32"><path fill="currentColor" fill-rule="evenodd" d="M16 1.916C8.222 1.916 1.917 8.222 1.917 16S8.222 30.083 16 30.083c1.128 0 1.866-.757 2.123-1.6a2.75 2.75 0 0 0-.485-2.491c-.376-.47-.647-.929-.767-1.333-.113-.379-.08-.648.058-.88.335-.557.683-.78 1.029-.884.395-.118.9-.116 1.592-.01.339.051.695.123 1.084.203l.114.024c.349.072.723.15 1.102.215.84.144 1.782.247 2.748.108 1.498-.214 2.741-1.103 3.653-2.035.988-1.01 1.832-2.592 1.832-5.4 0-7.778-6.305-14.084-14.083-14.084m-9.75 16.25a3.25 3.25 0 1 1 6.5 0 3.25 3.25 0 0 1-6.5 0m2.167-7.222a3.25 3.25 0 1 1 6.5 0 3.25 3.25 0 0 1-6.5 0M19.61 6.25a3.25 3.25 0 1 1 0 6.5 3.25 3.25 0 0 1 0-6.5m-.361 10.472a3.25 3.25 0 1 1 6.5 0 3.25 3.25 0 0 1-6.5 0" clip-rule="evenodd"/></svg>