<svg xmlns="http://www.w3.org/2000/svg" width="40" height="40" fill="none" class="persona-ilustration" viewBox="0 0 40 40"><g clip-path="url(#GZVsJARnI6_a)"><g clip-path="url(#GZVsJARnI6_b)"><rect width="33.333" height="33.333" x="3.371" y="3.333" fill="#D3EDFF" rx="16.667"/><path fill="#AADBFF" d="m-13.037 20.755 16.606-9.587 32.58 18.81-16.607 9.587z"/></g><path fill="#0061A0" d="m8.5 26.33 10.356-5.98V6l-6.213 3.588v2.392c0 2.96-1.58 5.695-4.143 7.175z"/><path fill="#0083C7" d="M18.856 6 23 8.392v14.35l-4.143-2.392z"/><path fill="#0083C7" d="m12.643 28.721 10.356-5.98V8.392l-6.214 3.588v2.392c0 2.96-1.579 5.695-4.142 7.176z"/><path fill="#0090D5" d="m8.5 19.155 4.143 2.391v7.175L8.5 26.33z"/><path fill="#F8F8F8" d="M9.013 26.005V20.21l2.948 1.702v5.795z"/><rect width="2.521" height=".561" fill="#0090D5" rx=".281" transform="matrix(.86603 .5 0 1 9.36 21.002)"/><path fill="#E47D10" d="m12.581 28.73 10.357-5.98V8.4l-6.214 3.588v2.392c0 2.96-1.58 5.695-4.143 7.175z"/><path fill="#FF8D18" d="m22.937 8.4 4.143 2.392v14.35l-4.143-2.392z"/><path fill="#FF8D18" d="m16.724 31.121 10.356-5.98V10.793l-6.214 3.588v2.392c0 2.96-1.58 5.695-4.142 7.175v7.175"/><path fill="#FFB26F" d="m12.58 21.555 4.144 2.391v7.175L12.58 28.73z"/><path fill="#F8F8F8" d="M13.178 28.384V22.59l2.948 1.702v5.795z"/><path fill="#FFB26F" d="M13.524 23.662c0-.155.109-.218.243-.14l1.697.98a.54.54 0 0 1 .243.42c0 .155-.108.218-.243.14l-1.697-.98a.54.54 0 0 1-.243-.42"/><path fill="#376352" d="m16.78 31.108 10.357-5.98v-14.35l-6.214 3.588v2.392c0 2.96-1.58 5.695-4.143 7.175z"/><path fill="#3D7360" d="m27.137 10.778 4.143 2.392v14.35l-4.143-2.391z"/><path fill="#498F79" d="m16.78 23.933 4.143 2.391V33.5l-4.142-2.392z"/><path fill="#F8F8F8" d="M17.336 30.773v-5.795l2.948 1.702v5.794z"/><path fill="#498F79" d="M17.682 26.05c0-.155.109-.217.243-.14l1.697.98a.54.54 0 0 1 .243.42c0 .156-.109.219-.243.141l-1.697-.98a.54.54 0 0 1-.243-.42"/><path fill="#43826E" d="m20.923 33.5 10.357-5.98V13.17l-6.214 3.588v2.392c0 2.96-1.58 5.695-4.143 7.175z"/><path fill="#498F79" d="M30.727 27.166V14.365l-4.92 2.758v2.416a8.37 8.37 0 0 1-4.184 7.247v5.554z"/></g><defs><clipPath id="GZVsJARnI6_a"><path fill="#fff" d="M0 0h40v40H0z"/></clipPath><clipPath id="GZVsJARnI6_b"><rect width="33.333" height="33.333" x="3.371" y="3.333" fill="#fff" rx="16.667"/></clipPath></defs></svg>