<svg xmlns="http://www.w3.org/2000/svg" width="80" height="80" fill="none" class="persona-ilustration" viewBox="0 0 80 80"><g clip-path="url(#xiEcHTcSeb_a)"><path fill="#0061A0" d="M11.037 56.747 37.4 41.527V5l-15.817 9.132v6.088a21.09 21.09 0 0 1-10.545 18.264v18.264z"/><path fill="#0083C7" d="m37.399 5 10.545 6.089v36.526l-10.545-6.087z"/><path fill="#0083C7" d="m21.582 62.835 26.362-15.22V11.088L32.127 20.22v6.089a21.09 21.09 0 0 1-10.545 18.264v18.264z"/><path fill="#0090D5" d="m11.037 38.485 10.545 6.087v18.263l-10.545-6.088z"/><path fill="#F8F8F8" d="M12.344 55.921v-14.75l7.503 4.331v14.751z"/><rect width="6.417" height="1.428" fill="#0090D5" rx=".714" transform="matrix(.86603 .5 0 1 13.224 43.187)"/><path fill="#E47D10" d="m21.425 62.856 26.362-15.22V11.11L31.97 20.242v6.088a21.09 21.09 0 0 1-10.545 18.264v18.264z"/><path fill="#FF8D18" d="m47.787 11.11 10.544 6.088v36.526l-10.545-6.087z"/><path fill="#FF8D18" d="m31.97 68.945 26.361-15.22V17.198L42.515 26.33v6.089A21.09 21.09 0 0 1 31.97 50.683v18.264z"/><path fill="#FFB26F" d="M21.425 44.594 31.97 50.68v18.264l-10.545-6.089z"/><path fill="#F8F8F8" d="M22.946 61.978v-14.75l7.503 4.331v14.75z"/><path fill="#FFB26F" d="M23.826 49.957c0-.394.277-.554.618-.357l4.321 2.495c.341.197.618.677.618 1.07 0 .395-.276.555-.618.358l-4.32-2.495c-.342-.197-.62-.676-.62-1.07"/><path fill="#376352" d="m32.115 68.91 26.361-15.22V17.163L42.66 26.295v6.089a21.09 21.09 0 0 1-10.545 18.264V68.91z"/><path fill="#3D7360" d="m58.476 17.163 10.545 6.088v36.527L58.476 53.69z"/><path fill="#498F79" d="m32.115 50.647 10.545 6.087v18.264L32.115 68.91z"/><path fill="#F8F8F8" d="M33.529 68.058v-14.75l7.503 4.331v14.75z"/><path fill="#498F79" d="M34.409 56.037c0-.394.276-.554.618-.357l4.32 2.495c.342.197.62.676.62 1.07 0 .395-.278.555-.62.358l-4.32-2.495c-.342-.197-.618-.676-.618-1.07"/><path fill="#43826E" d="m42.66 74.998 26.361-15.22V23.252l-15.816 9.131v6.089A21.09 21.09 0 0 1 42.66 56.736V75z"/><path fill="#498F79" d="M67.615 58.876V26.293l-12.523 7.02v6.15c0 7.61-4.06 14.641-10.65 18.447l-.001 14.137z"/></g><defs><clipPath id="xiEcHTcSeb_a"><path fill="#fff" d="M0 0h80v80H0z"/></clipPath></defs></svg>