<svg xmlns="http://www.w3.org/2000/svg" width="240" height="240" fill="none" class="persona-ilustration" viewBox="0 0 240 240"><g clip-path="url(#e9_a)"><g clip-path="url(#ea_b)"><rect width="200" height="200" x="20.225" y="20" fill="#D3EDFF" rx="100"/><path fill="#AADBFF" d="m8.725 174.73 99.637-57.526 108.528 62.659-99.637 57.526z"/><path fill="#AADBFF" d="m-30.871 152.568 48.09-27.765 149.657 86.405-48.091 27.765z"/><g opacity=".75"><path fill="#D3EDFF" d="m18.696 105.417 37.535 21.67v20.262l-37.535-21.671z"/><path fill="#D3EDFF" d="m20.352 108.261 34.223 19.758v16.484l-34.223-19.758z"/><path fill="#82C2F1" fill-rule="evenodd" d="m19.862 107.412 35.203 20.324v17.616l-35.203-20.324zm.98 1.698v15.352l33.243 19.193v-15.353z" clip-rule="evenodd"/><path fill="#82C2F1" d="m93.766 105.417-37.535 21.67v20.262l37.535-21.671z"/><path fill="#4793CC" d="M36.89 122.406c0 .691-.485.97-1.083.625s-1.082-1.184-1.082-1.875c0-.69.484-.97 1.082-.625.598.346 1.082 1.185 1.082 1.875"/><path fill="#4793CC" d="M32.425 121.038c1.647.413 2.412.888 2.519-.486l1.596 2.571c-1.367-.497-1.497.495-1.775 1.968z"/><path fill="#82C2F1" d="M35.314 123.983c0 1.056-.742 1.484-1.656.956-.915-.528-1.657-1.812-1.657-2.868s.742-1.484 1.657-.956c.914.528 1.656 1.812 1.656 2.868"/><path fill="#D3EDFF" fill-rule="evenodd" d="m93.783 105.416-37.547-21.68-37.534 21.68.013.003h-.026l37.54 21.676 37.541-21.677z" clip-rule="evenodd"/><path fill="#D3EDFF" d="m18.696 85.164 37.535 21.67v20.262l-37.535-21.671z"/><path fill="#D3EDFF" d="m20.352 88.008 34.223 19.758v16.484l-34.223-19.758z"/><path fill="#82C2F1" fill-rule="evenodd" d="m19.862 87.16 35.203 20.323v17.616l-35.203-20.324zm.98 1.697v15.352l33.243 19.193v-15.353z" clip-rule="evenodd"/><path fill="#82C2F1" d="m93.766 85.163-37.535 21.67v20.262l37.535-21.671z"/><path fill="#4793CC" d="M36.89 102.152c0 .69-.485.97-1.083.625s-1.082-1.184-1.082-1.875c0-.69.484-.97 1.082-.625.598.346 1.082 1.185 1.082 1.875"/><path fill="#4793CC" d="M32.425 100.784c1.647.412 2.412.888 2.519-.486l1.596 2.571c-1.367-.497-1.497.495-1.775 1.968z"/><path fill="#82C2F1" d="M35.314 103.729c0 1.057-.742 1.485-1.656.957-.915-.528-1.657-1.813-1.657-2.869s.742-1.484 1.657-.956c.914.528 1.656 1.812 1.656 2.868"/><path fill="#D3EDFF" d="m93.783 85.162-37.547-21.68-37.534 21.68.013.002h-.026l37.54 21.677L93.77 85.164z"/><path fill="#D3EDFF" d="m18.696 64.908 37.535 21.67v20.262L18.696 85.17z"/><path fill="#D3EDFF" d="m20.352 67.753 34.223 19.758v16.484L20.352 84.237z"/><path fill="#82C2F1" fill-rule="evenodd" d="m19.862 66.904 35.203 20.324v17.616L19.862 84.52zm.98 1.698v15.352l33.243 19.193V87.794z" clip-rule="evenodd"/><path fill="#82C2F1" d="M93.766 64.908 56.23 86.578v20.262l37.535-21.67z"/><path fill="#4793CC" d="M36.89 81.898c0 .69-.485.97-1.083.625s-1.082-1.185-1.082-1.875.484-.97 1.082-.625 1.082 1.185 1.082 1.875"/><path fill="#4793CC" d="M32.425 80.53c1.647.412 2.412.888 2.519-.486l1.596 2.57c-1.367-.496-1.497.496-1.775 1.968z"/><path fill="#82C2F1" d="M35.314 83.475c0 1.056-.742 1.484-1.656.956C32.743 83.903 32 82.62 32 81.563s.742-1.485 1.657-.957c.914.529 1.656 1.813 1.656 2.869"/><path fill="#AADBFF" d="m93.783 64.908-37.547-21.68-37.534 21.68.013.002h-.026l37.54 21.677L93.77 64.91z"/></g><path fill="#0061A0" d="m62.66 150.56 52.217-30.148V48.06L83.547 66.15v12.06a41.78 41.78 0 0 1-20.887 36.177v36.177z"/><path fill="#0083C7" d="m114.877 48.06 20.888 12.06v72.352l-20.888-12.057z"/><path fill="#0083C7" d="m83.548 162.62 52.217-30.148V60.12l-31.33 18.089v12.06a41.77 41.77 0 0 1-20.887 36.177v36.177z"/><path fill="#0090D5" d="m62.66 114.386 20.888 12.057v36.177L62.66 150.56z"/><path fill="#F8F8F8" d="M65.249 148.924v-29.218l14.862 8.58v29.218z"/><path fill="#0090D5" d="M66.992 125.114c0-.781.549-1.098 1.225-.707l8.559 4.941c.676.391 1.225 1.34 1.225 2.122s-.549 1.097-1.225.707l-8.559-4.942c-.676-.39-1.225-1.34-1.225-2.121"/><path fill="#E4E4E4" d="M66.992 133.227c0-.389.273-.547.61-.353l9.788 5.651c.337.195.61.668.61 1.057 0 .39-.273.547-.61.353l-9.787-5.651c-.338-.195-.61-.668-.61-1.057M66.992 138.505c0-.389.273-.547.61-.353l9.788 5.651c.337.195.61.668.61 1.057 0 .39-.273.547-.61.353l-9.787-5.651c-.338-.195-.61-.668-.61-1.057M66.992 143.783c0-.389.273-.547.61-.352l9.788 5.651c.337.195.61.668.61 1.057s-.273.547-.61.352l-9.787-5.65c-.338-.195-.61-.668-.61-1.058"/><path fill="#E47D10" d="m83.236 162.662 52.217-30.149V60.162L104.124 78.25v12.06a41.77 41.77 0 0 1-20.888 36.177v36.178z"/><path fill="#FF8D18" d="m135.453 60.162 20.888 12.06v72.351l-20.888-12.057z"/><path fill="#FF8D18" d="m104.124 174.722 52.217-30.149V72.222l-31.33 18.088v12.06a41.78 41.78 0 0 1-20.887 36.178v36.177z"/><path fill="#FFB26F" d="m83.236 126.487 20.888 12.057v36.178l-20.888-12.06z"/><path fill="#F8F8F8" d="M86.249 160.923v-29.218l14.862 8.581v29.217z"/><path fill="#FFB26F" d="M87.992 137.113c0-.781.549-1.097 1.225-.707l8.559 4.942c.676.39 1.225 1.34 1.225 2.121s-.549 1.098-1.225.707l-8.559-4.941c-.676-.391-1.225-1.34-1.225-2.122"/><path fill="#E4E4E4" d="M87.992 145.226c0-.389.273-.547.61-.352l9.788 5.651c.337.194.61.668.61 1.057s-.273.547-.61.352l-9.787-5.651c-.338-.194-.61-.668-.61-1.057M87.992 150.505c0-.39.273-.547.61-.353l9.788 5.651c.337.195.61.668.61 1.057 0 .39-.273.547-.61.353l-9.787-5.651c-.338-.195-.61-.668-.61-1.057M87.992 155.783c0-.389.273-.547.61-.352l9.788 5.65c.337.195.61.668.61 1.058 0 .389-.273.547-.61.352l-9.787-5.651c-.338-.195-.61-.668-.61-1.057"/><path fill="#376352" d="m104.41 174.654 52.217-30.149V72.154l-31.329 18.089v12.06a41.77 41.77 0 0 1-20.888 36.177v36.177z"/><path fill="#3D7360" d="m156.627 72.154 20.888 12.06v72.351l-20.888-12.057z"/><path fill="#498F79" d="m104.41 138.48 20.887 12.057v36.177l-20.887-12.06z"/><path fill="#F8F8F8" d="M107.211 172.966v-29.218l14.862 8.58v29.218z"/><path fill="#498F79" d="M108.954 149.156c0-.781.548-1.098 1.225-.707l8.558 4.941c.677.391 1.225 1.341 1.225 2.122s-.548 1.097-1.225.707l-8.558-4.942c-.677-.39-1.225-1.34-1.225-2.121"/><path fill="#E4E4E4" d="M108.954 157.269c0-.389.273-.547.61-.353l9.788 5.651c.337.195.61.668.61 1.057 0 .39-.273.547-.61.353l-9.788-5.651c-.337-.195-.61-.668-.61-1.057M108.954 162.547c0-.389.273-.547.61-.352l9.788 5.651c.337.194.61.667.61 1.057s-.273.547-.61.352l-9.788-5.651c-.337-.194-.61-.668-.61-1.057M108.954 167.825c0-.389.273-.547.61-.352l9.788 5.651c.337.195.61.668.61 1.057s-.273.547-.61.352l-9.788-5.65c-.337-.195-.61-.668-.61-1.058"/><path fill="#43826E" d="m125.298 186.714 52.217-30.149V84.214l-31.33 18.088v12.06a41.77 41.77 0 0 1-20.887 36.178v36.177z"/><path fill="#498F79" d="M174.729 154.778v-64.54l-24.806 13.905v12.181a42.19 42.19 0 0 1-21.097 36.54v28.004z"/></g><path fill="#4793CC" fill-rule="evenodd" d="M156.896 131.927a.9.9 0 0 0-.14.394l-8.595 62.604c-.121.886-.793 1.822-1.5 2.09s-1.182-.234-1.06-1.121l8.594-62.603c.577-4.202 5.385-6.987 5.973-3.46l8.769 52.585c.124.744-.348 1.795-1.055 2.346s-1.38.395-1.504-.35l-8.769-52.585c-.029-.171-.092-.215-.142-.231-.063-.02-.163-.007-.285.064a.9.9 0 0 0-.286.267" clip-rule="evenodd"/><path fill="#4793CC" fill-rule="evenodd" d="M146.442 173.551a1.5 1.5 0 0 1 2.058-.516l46.542 27.879a1.499 1.499 0 1 1-1.542 2.573l-46.542-27.879a1.5 1.5 0 0 1-.516-2.057M163.059 164.092a1.5 1.5 0 0 1 2.058-.516l46.542 27.879a1.5 1.5 0 1 1-1.542 2.574l-46.542-27.879a1.5 1.5 0 0 1-.516-2.058" clip-rule="evenodd"/><path fill="#AADBFF" d="m177.492 149.785-40.445 23.351v11.747l40.445-23.351z"/><path fill="#82C2F1" d="m137.1 184.852 40.445 23.351 40.392-23.32-40.445-23.351z"/><path fill="#D3EDFF" fill-rule="evenodd" d="M146.057 178.339a4 4 0 0 0-.049.651c0 2.231 1.566 4.945 3.498 6.06l15.526 8.964c1.932 1.116 3.499.211 3.499-2.02a5 5 0 0 0-.05-.709l9.011 5.203v11.747l-40.445-23.351v-11.747z" clip-rule="evenodd"/><path fill="#AADBFF" d="m177.492 149.785 40.445 23.351v11.747l-40.445-23.351z"/><path fill="#AADBFF" d="m217.937 173.136-40.445 23.351v11.747l40.445-23.351z"/><path fill="#4793CC" fill-rule="evenodd" d="M149.192 149.014a1.5 1.5 0 0 1 2.058-.516l46.542 27.879c.71.426.941 1.347.516 2.058a1.5 1.5 0 0 1-2.058.516l-46.542-27.879a1.5 1.5 0 0 1-.516-2.058M160.186 144.486a1.5 1.5 0 0 1 2.057-.516l46.542 27.879a1.5 1.5 0 0 1-1.541 2.574l-46.542-27.879a1.5 1.5 0 0 1-.516-2.058" clip-rule="evenodd"/><path fill="#AADBFF" d="m177.492 126.433-40.445 23.351v11.748l40.445-23.351z"/><path fill="#82C2F1" d="m137.1 161.501 40.445 23.351 40.392-23.321-40.445-23.35z"/><path fill="#D3EDFF" fill-rule="evenodd" d="M146.057 154.987a4 4 0 0 0-.049.651c0 2.232 1.566 4.945 3.498 6.06l15.526 8.964c1.932 1.116 3.499.211 3.499-2.02a5 5 0 0 0-.05-.709l9.011 5.202v11.748l-40.445-23.351v-11.747z" clip-rule="evenodd"/><path fill="#AADBFF" d="m177.492 126.433 40.445 23.351v11.748l-40.445-23.351z"/><path fill="#AADBFF" d="m217.937 149.785-40.445 23.35v11.748l40.445-23.351z"/><path fill="#4793CC" fill-rule="evenodd" d="M202.778 151.324a.9.9 0 0 0-.141.395l-8.594 62.603c-.122.887-.794 1.823-1.501 2.09-.707.268-1.181-.234-1.06-1.121l8.594-62.603c.577-4.201 5.385-6.986 5.973-3.46l8.769 52.586c.124.744-.348 1.794-1.055 2.345-.706.552-1.38.395-1.504-.349l-8.769-52.585c-.028-.172-.092-.216-.142-.231-.063-.02-.163-.007-.285.064a.9.9 0 0 0-.285.266" clip-rule="evenodd"/></g><defs><clipPath id="e9_a"><path fill="#fff" d="M0 0h240v240H0z"/></clipPath><clipPath id="ea_b"><rect width="200" height="200" x="20.225" y="20" fill="#fff" rx="100"/></clipPath></defs></svg>