<svg xmlns="http://www.w3.org/2000/svg" width="32" height="32" fill="none"><path fill="#000" fill-rule="evenodd" d="M10.518 21.601c.166.118.383.177.65.177.29 0 .512-.07.668-.209.156-.139.306-.363.45-.673l.821-1.859h5.74l.834 1.86c.133.298.284.523.45.672.178.14.423.209.735.209.256 0 .462-.054.617-.16a.726.726 0 0 0 .284-.481c.033-.203-.011-.428-.133-.674l-4.424-9.375c-.144-.31-.322-.53-.534-.657a1.172 1.172 0 0 0-.684-.209c-.267 0-.506.07-.718.209-.2.128-.372.347-.517.657l-4.406 9.376c-.112.245-.15.47-.117.673a.716.716 0 0 0 .284.464Zm3.329-4.199 2.112-4.824h.033l2.127 4.824h-4.272Z" clip-rule="evenodd"/><path fill="#000" fill-rule="evenodd" d="M26.111 30a3.89 3.89 0 0 1-3.759-2.889H9.648a3.89 3.89 0 0 1-7.648-1 3.89 3.89 0 0 1 2.89-3.76V9.649A3.89 3.89 0 0 1 5.889 2a3.89 3.89 0 0 1 3.759 2.889h12.704a3.89 3.89 0 0 1 7.648 1 3.89 3.89 0 0 1-2.888 3.759v12.704a3.89 3.89 0 0 1-1 7.648Zm-1.889-3.889a1.889 1.889 0 1 1 3.778 0 1.889 1.889 0 0 1-3.778 0Zm.89-16.463v12.704a3.896 3.896 0 0 0-2.76 2.76H9.648a3.896 3.896 0 0 0-2.758-2.76V9.648a3.896 3.896 0 0 0 2.758-2.759h12.704a3.896 3.896 0 0 0 2.76 2.76ZM4 26.111a1.889 1.889 0 1 1 3.778 0 1.889 1.889 0 0 1-3.778 0ZM4 5.89a1.889 1.889 0 1 1 3.778 0 1.889 1.889 0 0 1-3.778 0ZM26.111 4a1.889 1.889 0 1 0 0 3.778 1.889 1.889 0 0 0 0-3.778Z" clip-rule="evenodd"/></svg>