<svg xmlns="http://www.w3.org/2000/svg" width="16" height="16" fill="none" class="persona-icon" viewBox="0 0 16 16"><path fill="currentColor" fill-rule="evenodd" d="M2.147 11.312a.5.5 0 0 1 .353-.147h4.89a.5.5 0 0 1 .5.5V13.5a.5.5 0 0 1-.5.5H2.5a.5.5 0 0 1-.5-.5v-1.834a.5.5 0 0 1 .147-.353M2.5 1.999h11a.5.5 0 0 1 .5.5v3.666a.5.5 0 0 1-.5.5h-11a.5.5 0 0 1-.5-.5V2.5a.5.5 0 0 1 .5-.5m0 5.5h4.89a.5.5 0 0 1 .5.5v1.833a.5.5 0 0 1-.5.5H2.5a.5.5 0 0 1-.5-.5V7.998a.5.5 0 0 1 .5-.5m6.222.5a.5.5 0 0 1 .5-.5H13.5a.5.5 0 0 1 .5.5v5.5a.5.5 0 0 1-.5.5H9.222a.5.5 0 0 1-.5-.5zM3 12.165V13h3.89v-.834zM3 3v2.666h10V3zm0 5.5v.833h3.89v-.834zm6.722 0v4.5H13v-4.5z" clip-rule="evenodd"/></svg>