<svg xmlns="http://www.w3.org/2000/svg" width="20" height="20" fill="none" class="persona-icon" viewBox="0 0 20 20"><path fill="currentColor" fill-rule="evenodd" d="M11.096 10c0-.308.25-.558.558-.558h5.788c.308 0 .558.25.558.558v7.442c0 .308-.25.558-.558.558h-5.788a.558.558 0 0 1-.559-.558zm1.116.558v6.326h4.672v-6.326zM2.558 13.039A.558.558 0 0 1 2 12.48V10c0-.31.25-.559.558-.559h6.615c.308 0 .558.25.558.558v2.48c0 .309-.25.559-.558.559zm.558-1.116h5.499v-1.365H3.116zM2.558 18A.558.558 0 0 1 2 17.442v-2.48c0-.309.25-.559.558-.559h6.615c.308 0 .558.25.558.558v2.48c0 .31-.25.559-.558.559zm.558-1.116h5.499v-1.365H3.116zM2.558 8.078A.558.558 0 0 1 2 7.519V2.56c0-.31.25-.559.558-.559h14.884c.308 0 .558.25.558.558V7.52c0 .309-.25.559-.558.559zm.558-1.117h13.768V3.116H3.116z" clip-rule="evenodd"/></svg>