<svg xmlns="http://www.w3.org/2000/svg" width="24" height="24" fill="none" class="persona-icon"><path fill="currentColor" d="M13.282 12a.77.77 0 0 1 .77-.77h7.179A.77.77 0 0 1 22 12v9.23a.77.77 0 0 1-.77.77h-7.179a.77.77 0 0 1-.769-.77V12Zm1.538.77v7.692h5.642v-7.693H14.82ZM2.77 15.846a.77.77 0 0 1-.77-.77V12a.77.77 0 0 1 .77-.77h8.204a.77.77 0 0 1 .77.77v3.077a.77.77 0 0 1-.77.77H2.77Zm.768-1.538h6.667v-1.539H3.538v1.539ZM2.77 22a.77.77 0 0 1-.77-.77v-3.076a.77.77 0 0 1 .77-.77h8.204a.77.77 0 0 1 .77.77v3.077a.77.77 0 0 1-.77.769H2.77Zm.768-1.538h6.667v-1.539H3.538v1.539ZM2.77 9.692A.77.77 0 0 1 2 8.923V2.77A.77.77 0 0 1 2.77 2h18.46a.77.77 0 0 1 .77.77v6.153a.77.77 0 0 1-.77.77H2.77Zm.768-1.538h16.924V3.539H3.538v4.615Z"/></svg>