<svg xmlns="http://www.w3.org/2000/svg" width="32" height="32" fill="none" class="persona-icon" viewBox="0 0 32 32"><path fill="currentColor" fill-rule="evenodd" d="M17.891 16.002a1 1 0 0 1 1-1h10.111a1 1 0 0 1 1 1v13a1 1 0 0 1-1 1h-10.11a1 1 0 0 1-1-1zm2 1v11h8.111v-11zM3.002 21.336a1 1 0 0 1-1-1v-4.334a1 1 0 0 1 1-1h11.556a1 1 0 0 1 1 1v4.334a1 1 0 0 1-1 1zm1-2h9.556v-2.334H4.002zM3.002 30.002a1 1 0 0 1-1-1V24.67a1 1 0 0 1 1-1h11.556a1 1 0 0 1 1 1v4.333a1 1 0 0 1-1 1zm1-2h9.556V25.67H4.002zM3.002 12.669a1 1 0 0 1-1-1V3.002a1 1 0 0 1 1-1h26a1 1 0 0 1 1 1v8.667a1 1 0 0 1-1 1zm1-2h24V4.002h-24z" clip-rule="evenodd"/></svg>