<svg xmlns="http://www.w3.org/2000/svg" width="32" height="32" fill="none" class="persona-icon" viewBox="0 0 32 32"><path fill="currentColor" fill-rule="evenodd" d="M5 4h22a1 1 0 0 1 1 1v7.333a1 1 0 0 1-1 1H5a1 1 0 0 1-1-1V5a1 1 0 0 1 1-1m-.707 11.293A1 1 0 0 1 5 15h9.778a1 1 0 0 1 1 1v3.667a1 1 0 0 1-1 1H5a1 1 0 0 1-1-1V16a1 1 0 0 1 .293-.707M17.445 16a1 1 0 0 1 1-1H27a1 1 0 0 1 1 1v11a1 1 0 0 1-1 1h-8.555a1 1 0 0 1-1-1zM4.293 22.626A1 1 0 0 1 5 22.333h9.778a1 1 0 0 1 1 1V27a1 1 0 0 1-1 1H5a1 1 0 0 1-1-1v-3.667a1 1 0 0 1 .293-.707M6 6v5.333h20V6zm0 11v1.667h7.778V17zm13.445 0v9H26v-9zM6 24.333V26h7.778v-1.667z" clip-rule="evenodd"/></svg>