<svg xmlns="http://www.w3.org/2000/svg" width="16" height="16" fill="none" class="persona-icon" viewBox="0 0 16 16"><path fill="currentColor" d="M10.5.667a.5.5 0 1 0 0 1h3.126l-4.48 4.48a.5.5 0 0 0 .708.707l4.48-4.48V5.5a.5.5 0 0 0 1 0V1.167a.5.5 0 0 0-.5-.5z"/><path fill="currentColor" d="M3 4.563C3 3.7 3.7 3 4.563 3H8a.5.5 0 1 0 0-1H4.563A2.563 2.563 0 0 0 2 4.563v6.874A2.563 2.563 0 0 0 4.563 14h6.875A2.56 2.56 0 0 0 14 11.437V8a.5.5 0 1 0-1 0v3.437C13 12.3 12.3 13 11.438 13H4.562C3.7 13 3 12.3 3 11.437z"/></svg>