<svg xmlns="http://www.w3.org/2000/svg" width="24" height="24" fill="none" class="persona-icon" viewBox="0 0 24 24"><path fill="currentColor" d="M15.75 1a.75.75 0 0 0 0 1.5h4.69l-6.72 6.72a.75.75 0 1 0 1.06 1.06l6.72-6.72v4.69a.75.75 0 0 0 1.5 0v-6.5a.75.75 0 0 0-.75-.75z"/><path fill="currentColor" d="M4.5 6.844A2.344 2.344 0 0 1 6.844 4.5H12A.75.75 0 0 0 12 3H6.844A3.844 3.844 0 0 0 3 6.844v10.312A3.844 3.844 0 0 0 6.844 21h10.312A3.844 3.844 0 0 0 21 17.156V12a.75.75 0 0 0-1.5 0v5.156a2.344 2.344 0 0 1-2.344 2.344H6.844A2.344 2.344 0 0 1 4.5 17.156z"/></svg>