<svg xmlns="http://www.w3.org/2000/svg" width="32" height="32" fill="none" class="persona-icon" viewBox="0 0 32 32"><path fill="currentColor" d="M21 1.333h8.667a1 1 0 0 1 1 1V11a1 1 0 1 1-2 0V4.748l-8.96 8.96a1 1 0 0 1-1.414-1.415l8.96-8.96H21a1 1 0 1 1 0-2"/><path fill="currentColor" d="M6 9.125v13.75C6 24.601 7.4 26 9.125 26h13.75C24.601 26 26 24.6 26 22.875V16a1 1 0 1 1 2 0v6.875A5.125 5.125 0 0 1 22.875 28H9.125A5.125 5.125 0 0 1 4 22.875V9.125A5.125 5.125 0 0 1 9.125 4H16a1 1 0 1 1 0 2H9.125A3.125 3.125 0 0 0 6 9.125"/></svg>