<svg xmlns="http://www.w3.org/2000/svg" width="32" height="32" fill="none"><path fill="#000" fill-rule="evenodd" d="M4.707 3.279a1.037 1.037 0 0 0-1.414 0 .919.919 0 0 0 0 1.345L8.5 9.578l-2.784 8.026c-.1.29-.049.608.14.856.187.247.489.394.81.394h6.391l-1.842 9.013a.94.94 0 0 0 .546 1.038c.41.188.9.09 1.195-.237l7.204-8 7.132 6.785c.39.372 1.024.372 1.414 0a.919.919 0 0 0 0-1.345L10.421 8.714a.968.968 0 0 0-.145-.138L4.707 3.28Zm5.378 7.805L8.05 16.951h6.222c.298 0 .581.127.771.346.19.22.267.508.21.787l-1.351 6.61 4.84-5.374-8.657-8.236Z" clip-rule="evenodd"/><path fill="#000" d="M11.506 3a.996.996 0 0 0-.956.672l-.627 1.942c-.163.502.134 1.034.662 1.189.528.154 1.087-.128 1.25-.63l.41-1.27h8.948l-2.811 8.268a.913.913 0 0 0 .143.852c.188.246.489.392.808.392h3.92l-1.367 1.625a.92.92 0 0 0 .156 1.337c.431.328 1.06.262 1.405-.149l2.667-3.17a.914.914 0 0 0 .12-1.007 1.006 1.006 0 0 0-.9-.539h-4.626l2.811-8.268a.913.913 0 0 0-.142-.852 1.017 1.017 0 0 0-.81-.392h-11.06Z"/></svg>