<svg xmlns="http://www.w3.org/2000/svg" width="16" height="16" fill="none" class="persona-icon" viewBox="0 0 16 16"><path fill="currentColor" fill-rule="evenodd" d="M2.196 4.41c-.71-1.419.795-2.923 2.213-2.214l8.657 4.328c1.217.608 1.217 2.344 0 2.952L4.41 13.804l-.223-.447.223.447c-1.418.71-2.922-.795-2.213-2.213L3.99 8zM4.859 8.5 3.09 12.038c-.28.559.313 1.151.872.872L12.62 8.58a.65.65 0 0 0 0-1.162L3.962 3.09c-.559-.28-1.151.313-.872.872L4.86 7.5h3.716a.5.5 0 0 1 0 1z" clip-rule="evenodd"/></svg>