<svg xmlns="http://www.w3.org/2000/svg" width="32" height="32" fill="none" class="persona-icon" viewBox="0 0 32 32"><path fill="currentColor" fill-rule="evenodd" d="M4.236 8.708C2.803 5.843 5.843 2.803 8.708 4.236l17.565 8.782c2.457 1.229 2.457 4.735 0 5.963L8.708 27.764c-2.865 1.433-5.905-1.607-4.472-4.472L7.882 16zM9.618 17l-3.593 7.186c-.573 1.146.643 2.362 1.789 1.789l17.565-8.783c.982-.49.982-1.893 0-2.385L7.814 6.025c-1.146-.573-2.362.643-1.79 1.789L9.619 15h7.549a1 1 0 1 1 0 2z" clip-rule="evenodd"/></svg>