<svg xmlns="http://www.w3.org/2000/svg" width="20" height="20" fill="none" class="persona-icon" viewBox="0 0 20 20"><path fill="currentColor" d="M4.673 2.975c.345 0 .625.28.625.625v1.181a7.024 7.024 0 0 1 11.423 7.263A7.026 7.026 0 0 1 2.975 9.99a.625.625 0 1 1 1.25.002 5.775 5.775 0 1 0 1.79-4.173h1.502a.625.625 0 0 1 0 1.25H4.663h.01"/><path fill="currentColor" d="M4.664 7.07a.625.625 0 0 1-.616-.626V3.6c0-.345.28-.625.625-.625M10 6.53c.345 0 .625.28.625.626V9.74l1.24 1.24a.625.625 0 0 1-.885.883L9.375 10.26V7.156c0-.345.28-.625.625-.625"/></svg>