<svg xmlns="http://www.w3.org/2000/svg" width="20" height="20" fill="none" class="persona-icon" viewBox="0 0 20 20"><path fill="currentColor" d="M8.19 4.472a5.817 5.817 0 1 1-4.006 5.464A.592.592 0 0 0 3 9.923 7 7 0 1 0 4.895 5.21V3.592a.592.592 0 1 0-1.183 0V6.44a.59.59 0 0 0 .592.591h2.848a.592.592 0 1 0 0-1.183H5.926A5.8 5.8 0 0 1 8.19 4.472"/><path fill="currentColor" d="M10 6.56c.327 0 .591.265.591.592v2.603l1.251 1.25a.592.592 0 0 1-.836.837l-1.598-1.597V7.152c0-.327.265-.592.592-.592"/></svg>