<svg xmlns="http://www.w3.org/2000/svg" width="16" height="16" fill="none" class="persona-icon" viewBox="0 0 16 16"><path fill="currentColor" fill-rule="evenodd" d="M11.33 3.379c0-.309.24-.559.536-.559 1.347 0 2.439 1.137 2.439 2.54 0 1.402-1.092 2.538-2.44 2.538a.55.55 0 0 1-.536-.558c0-.309.24-.559.537-.559.754 0 1.366-.636 1.366-1.422s-.612-1.421-1.366-1.421a.55.55 0 0 1-.537-.56m1.546 6.113a.534.534 0 0 1 .666-.377l.161.05c.77.236 1.297.97 1.297 1.806v.05c0 .492-.18.964-.503 1.323a.52.52 0 0 1-.759.024.575.575 0 0 1-.023-.79.83.83 0 0 0 .212-.557v-.05a.76.76 0 0 0-.528-.735l-.16-.05a.563.563 0 0 1-.363-.694M3.124 9.492a.534.534 0 0 0-.666-.377l-.161.05C1.527 9.4 1 10.134 1 10.97v.05c0 .492.18.964.503 1.323a.52.52 0 0 0 .759.024.575.575 0 0 0 .023-.79.83.83 0 0 1-.212-.557v-.05c0-.34.215-.64.528-.735l.16-.05a.563.563 0 0 0 .363-.694M4.793 3.379a.55.55 0 0 0-.537-.559c-1.347 0-2.439 1.137-2.439 2.54 0 1.402 1.092 2.538 2.44 2.538.295 0 .536-.25.536-.558a.55.55 0 0 0-.537-.559c-.754 0-1.366-.636-1.366-1.422s.612-1.421 1.366-1.421c.296 0 .537-.25.537-.56M4.988 4.7c0-1.768 1.376-3.2 3.073-3.2s3.073 1.432 3.073 3.2c0 1.766-1.376 3.198-3.073 3.198S4.988 6.466 4.988 4.7M8.06 2.616c-1.104 0-2 .932-2 2.082s.896 2.082 2 2.082 2-.932 2-2.082-.895-2.082-2-2.082M3.637 10.247A4 4 0 0 1 6.73 8.762h2.662c1.19 0 2.32.542 3.093 1.485.356.433.552.985.552 1.555v.159c0 1.402-1.092 2.539-2.44 2.539H5.525c-1.347 0-2.439-1.137-2.439-2.54v-.158c0-.57.196-1.122.551-1.555m8.032.725a2.95 2.95 0 0 0-2.277-1.093H6.73c-.876 0-1.709.4-2.277 1.093a1.3 1.3 0 0 0-.295.83v.159c0 .785.612 1.422 1.366 1.422h5.074c.754 0 1.365-.637 1.365-1.422v-.159a1.3 1.3 0 0 0-.294-.83" clip-rule="evenodd"/></svg>