<svg xmlns="http://www.w3.org/2000/svg" width="16" height="16" fill="none" class="persona-icon" viewBox="0 0 16 16"><path fill="currentColor" fill-rule="evenodd" d="M5.056 4.944a2.944 2.944 0 1 1 5.889 0 2.944 2.944 0 0 1-5.89 0m-3.106.59a2.35 2.35 0 0 1 2.35-2.35.5.5 0 0 1 0 1 1.35 1.35 0 0 0 0 2.7.5.5 0 0 1 0 1 2.35 2.35 0 0 1-2.35-2.35m9.25-1.85a.5.5 0 0 1 .5-.5 2.35 2.35 0 0 1 0 4.7.5.5 0 1 1 0-1 1.35 1.35 0 1 0 0-2.7.5.5 0 0 1-.5-.5M3.7 10.05a3.95 3.95 0 0 1 3-1.384h2.6c1.155 0 2.251.505 3.001 1.384.344.402.533.914.533 1.443v.173A2.333 2.333 0 0 1 10.5 14h-5a2.333 2.333 0 0 1-2.333-2.333v-.173c0-.529.189-1.04.532-1.443m-.467-.667a.5.5 0 0 1-.316.632l-.048.016a.78.78 0 0 0-.536.743v.073a.83.83 0 0 0 .193.532.5.5 0 1 1-.768.64 1.83 1.83 0 0 1-.425-1.172v-.073c0-.768.492-1.45 1.22-1.692l.047-.016a.5.5 0 0 1 .633.317m9.535 0a.5.5 0 0 1 .632-.317l.047.016c.729.243 1.22.924 1.22 1.692v.073c0 .428-.15.843-.424 1.172a.5.5 0 0 1-.768-.64.83.83 0 0 0 .192-.532v-.073a.78.78 0 0 0-.536-.743l-.047-.016a.5.5 0 0 1-.316-.632M8 3a1.944 1.944 0 1 0 0 3.889A1.944 1.944 0 0 0 8 3M6.7 9.667c-.862 0-1.68.377-2.24 1.033a1.22 1.22 0 0 0-.293.794v.173c0 .736.597 1.333 1.333 1.333h5c.737 0 1.334-.597 1.334-1.333v-.173c0-.291-.104-.573-.293-.794A2.95 2.95 0 0 0 9.3 9.667z" clip-rule="evenodd"/></svg>