<svg xmlns="http://www.w3.org/2000/svg" width="20" height="20" fill="none" class="persona-icon" viewBox="0 0 20 20"><path fill="currentColor" fill-rule="evenodd" d="M3.724 11.201a.625.625 0 0 1 .397 1.185l-.052.018-.198-.593.198.593a.87.87 0 0 0-.594.825v.086c0 .216.076.425.213.591a.625.625 0 0 1-.961.799 2.17 2.17 0 0 1-.502-1.39v-.086a2.12 2.12 0 0 1 1.447-2.01zM2.94 7.13a2.774 2.774 0 0 1 2.77-2.778.625.625 0 0 1 0 1.25c-.837 0-1.52.682-1.52 1.528s.683 1.527 1.52 1.527a.625.625 0 1 1 0 1.25A2.774 2.774 0 0 1 2.94 7.13m2.036 5.231A4.63 4.63 0 0 1 8.5 10.732h3c1.357 0 2.645.596 3.524 1.63.404.474.625 1.077.625 1.7v.205a2.76 2.76 0 0 1-2.758 2.758H7.11a2.76 2.76 0 0 1-2.758-2.758v-.205c0-.623.222-1.226.625-1.7m3.524-.379c-.99 0-1.93.435-2.572 1.189a1.38 1.38 0 0 0-.327.891v.205c0 .833.675 1.508 1.508 1.508h5.782c.833 0 1.508-.675 1.508-1.508v-.205c0-.326-.116-.642-.327-.891a3.38 3.38 0 0 0-2.571-1.188zM6.54 6.445A3.464 3.464 0 0 1 10 2.975a3.464 3.464 0 0 1 3.46 3.47A3.464 3.464 0 0 1 10 9.913a3.464 3.464 0 0 1-3.46-3.47M10 4.225c-1.218 0-2.21.992-2.21 2.22 0 1.227.992 2.219 2.21 2.219s2.21-.992 2.21-2.22c0-1.227-.992-2.219-2.21-2.219m3.665.752c0-.345.28-.625.625-.625a2.774 2.774 0 0 1 2.77 2.778 2.774 2.774 0 0 1-2.77 2.777.625.625 0 0 1 0-1.25c.837 0 1.52-.681 1.52-1.527s-.683-1.528-1.52-1.528a.625.625 0 0 1-.625-.625m1.82 6.618a.625.625 0 0 1 .79-.394l.053.017a2.12 2.12 0 0 1 1.447 2.01v.087c0 .508-.177 1-.502 1.39a.625.625 0 0 1-.961-.799.93.93 0 0 0 .213-.59v-.087a.87.87 0 0 0-.594-.825l.198-.593-.198.593-.052-.018a.625.625 0 0 1-.394-.79" clip-rule="evenodd"/></svg>