<svg xmlns="http://www.w3.org/2000/svg" width="24" height="24" fill="none" class="persona-icon"><path fill="currentColor" d="M19.97 14.32a.767.767 0 0 1 .97-.486l.08.027A2.903 2.903 0 0 1 23 16.615v.122c0 .698-.244 1.373-.69 1.91a.766.766 0 0 1-1.08.098.77.77 0 0 1-.099-1.084c.216-.259.334-.586.334-.924v-.122c0-.587-.375-1.109-.931-1.295l-.079-.026a.77.77 0 0 1-.485-.973ZM4.03 14.32a.767.767 0 0 0-.97-.486l-.08.027A2.903 2.903 0 0 0 1 16.615v.122c0 .698.244 1.373.69 1.91a.766.766 0 0 0 1.08.098.77.77 0 0 0 .099-1.084 1.446 1.446 0 0 1-.334-.924v-.122c0-.587.375-1.109.931-1.295l.079-.026a.77.77 0 0 0 .485-.973ZM7.14 6.872A4.866 4.866 0 0 1 12 2a4.866 4.866 0 0 1 4.86 4.872A4.866 4.866 0 0 1 12 11.744a4.866 4.866 0 0 1-4.86-4.872ZM12 3.539a3.33 3.33 0 0 0-3.326 3.333A3.33 3.33 0 0 0 12 10.205a3.33 3.33 0 0 0 3.326-3.333A3.33 3.33 0 0 0 12 3.539ZM17.372 4.82c0-.424.344-.769.768-.769a3.842 3.842 0 0 1 3.837 3.846 3.842 3.842 0 0 1-3.837 3.847.768.768 0 0 1 0-1.539 2.305 2.305 0 0 0 2.302-2.308A2.305 2.305 0 0 0 18.14 5.59a.768.768 0 0 1-.768-.77ZM6.628 4.82a.768.768 0 0 0-.768-.769 3.842 3.842 0 0 0-3.837 3.846 3.842 3.842 0 0 0 3.837 3.847.768.768 0 0 0 0-1.539 2.305 2.305 0 0 1-2.302-2.308A2.305 2.305 0 0 1 5.861 5.59a.768.768 0 0 0 .767-.77ZM4.936 15.554a6.458 6.458 0 0 1 4.916-2.272h4.296c1.892 0 3.688.83 4.916 2.272a3.63 3.63 0 0 1 .866 2.353v.247A3.842 3.842 0 0 1 16.093 22H7.907a3.842 3.842 0 0 1-3.837-3.846v-.247c0-.862.307-1.697.865-2.353Zm12.961 1a4.924 4.924 0 0 0-3.749-1.733H9.852a4.924 4.924 0 0 0-3.75 1.732 2.088 2.088 0 0 0-.497 1.354v.247a2.305 2.305 0 0 0 2.302 2.308h8.186a2.305 2.305 0 0 0 2.302-2.308v-.247c0-.496-.176-.976-.498-1.354Z"/></svg>