<svg xmlns="http://www.w3.org/2000/svg" width="16" height="16" fill="none" class="persona-icon" viewBox="0 0 16 16"><path fill="currentColor" d="M7.389 8.107c-.276 0-.5.216-.5.483s.224.483.5.483h3.055c.277 0 .5-.216.5-.483a.492.492 0 0 0-.5-.483zM7.389 9.878c-.276 0-.5.216-.5.483s.224.483.5.483h1.91c.276 0 .5-.216.5-.483a.492.492 0 0 0-.5-.483z"/><path fill="currentColor" fill-rule="evenodd" d="M2.611 4.335c0-1.013.85-1.835 1.9-1.835h5.145c1.049 0 1.9.822 1.9 1.835v1.117c1.018.034 1.833.842 1.833 1.834v4.437l.558 1.078c.078.15.07.328-.022.47a.504.504 0 0 1-.425.229H6.345c-1.05 0-1.9-.822-1.9-1.835v-1.116H2.5a.504.504 0 0 1-.425-.23.469.469 0 0 1-.022-.47l.558-1.078zm7.945 0c0-.48-.403-.87-.9-.87H4.51c-.497 0-.9.39-.9.87v4.55a.47.47 0 0 1-.053.216l-.249.482h1.135V7.286c0-1.013.851-1.835 1.9-1.835h4.212zM6.345 6.417c-.498 0-.9.39-.9.87v4.378c0 .48.402.87.9.87h6.346l-.302-.584V7.286c0-.48-.403-.869-.9-.869z" clip-rule="evenodd"/></svg>