<svg xmlns="http://www.w3.org/2000/svg" width="16" height="16" fill="none"><path fill="#000" d="M7.389 8.107c-.276 0-.5.217-.5.483 0 .267.224.483.5.483h3.055c.277 0 .5-.216.5-.483a.492.492 0 0 0-.5-.483H7.39ZM7.389 9.878c-.276 0-.5.216-.5.483s.224.483.5.483h1.91c.276 0 .5-.216.5-.483a.492.492 0 0 0-.5-.483h-1.91Z"/><path fill="#000" fill-rule="evenodd" d="M2.611 4.335c0-1.013.85-1.835 1.9-1.835h5.145c1.049 0 1.9.822 1.9 1.835v1.117c1.018.034 1.833.842 1.833 1.834v4.437l.558 1.078c.078.15.07.328-.022.47a.504.504 0 0 1-.425.229H6.344c-1.049 0-1.9-.822-1.9-1.835v-1.116H2.5a.504.504 0 0 1-.425-.23.469.469 0 0 1-.022-.47l.558-1.078V4.335Zm7.944 0v1.116h-4.21c-1.05 0-1.9.822-1.9 1.835v2.297H3.308l.25-.482a.47.47 0 0 0 .052-.216v-4.55c0-.48.403-.87.9-.87h5.145c.497 0 .9.39.9.87Zm-4.21 2.082c-.498 0-.9.39-.9.87v4.378c0 .48.402.87.9.87h6.346l-.302-.584V7.286c0-.48-.403-.869-.9-.869H6.344Z" clip-rule="evenodd"/></svg>