<svg xmlns="http://www.w3.org/2000/svg" width="16" height="16" fill="none" class="persona-icon" viewBox="0 0 16 16"><path fill="currentColor" d="M7.389 8.107c-.276 0-.5.216-.5.483s.224.483.5.483h3.055c.277 0 .5-.216.5-.483a.49.49 0 0 0-.5-.483zM7.389 9.878c-.276 0-.5.216-.5.483s.224.483.5.483h1.91c.276 0 .5-.216.5-.483a.49.49 0 0 0-.5-.483z"/><path fill="currentColor" fill-rule="evenodd" d="M2.611 4.754c0-1.245 1.045-2.254 2.333-2.254h4.278c1.289 0 2.334 1.009 2.334 2.254v.749c1.048.22 1.833 1.123 1.833 2.202v4.018l.558 1.078c.078.15.07.328-.022.47a.5.5 0 0 1-.425.229H6.778c-1.289 0-2.333-1.009-2.333-2.254v-.697H2.5a.5.5 0 0 1-.425-.229.47.47 0 0 1-.022-.47l.558-1.078zm7.945 0c0-.712-.597-1.288-1.334-1.288H4.944c-.736 0-1.333.576-1.333 1.288v4.132a.5.5 0 0 1-.053.216l-.249.481h1.135V7.705c0-1.245 1.045-2.254 2.334-2.254h3.778zM6.778 6.417c-.736 0-1.333.576-1.333 1.288v3.541c0 .712.596 1.288 1.333 1.288h5.913l-.302-.584V7.706c0-.712-.597-1.288-1.333-1.288z" clip-rule="evenodd"/></svg>