<svg xmlns="http://www.w3.org/2000/svg" width="20" height="20" fill="none" class="persona-icon" viewBox="0 0 20 20"><path fill="currentColor" d="M9.289 10.086h3.555a.625.625 0 1 1 0 1.25H9.29a.625.625 0 1 1 0-1.25M9.289 12.22h2.222a.625.625 0 1 1 0 1.25H9.29a.625.625 0 0 1 0-1.25"/><path fill="currentColor" fill-rule="evenodd" d="M3.686 6.089A2.76 2.76 0 0 1 6.444 3.33h4.978A2.76 2.76 0 0 1 14.18 6.09v.868a2.76 2.76 0 0 1 2.134 2.687v4.83l.645 1.29a.625.625 0 0 1-.559.905H8.578a2.76 2.76 0 0 1-2.758-2.758v-.797H3.6a.625.625 0 0 1-.559-.905l.645-1.29zm9.245 0c0-.833-.676-1.509-1.509-1.509H6.444c-.833 0-1.508.676-1.508 1.509v4.978a.6.6 0 0 1-.066.28l-.259.517H5.82v-2.22a2.76 2.76 0 0 1 2.758-2.758h4.353zM8.578 8.136c-.833 0-1.508.675-1.508 1.508v4.267c0 .833.675 1.508 1.508 1.508h6.81l-.324-.65V9.645c0-.833-.675-1.508-1.508-1.508z" clip-rule="evenodd"/></svg>