<svg xmlns="http://www.w3.org/2000/svg" width="24" height="24" fill="none"><path fill="#000" d="M10.974 12.257a.77.77 0 0 0 0 1.54h5.129a.77.77 0 0 0 0-1.54h-5.129ZM10.974 15.338a.77.77 0 0 0 0 1.54h3.206a.77.77 0 0 0 0-1.54h-3.206Z"/><path fill="#000" fill-rule="evenodd" d="M3.026 6.351A3.849 3.849 0 0 1 6.872 2.5h7.18a3.849 3.849 0 0 1 3.845 3.851v1.361a3.851 3.851 0 0 1 3.077 3.774v7.008l.945 1.891a.771.771 0 0 1-.688 1.115H9.949a3.849 3.849 0 0 1-3.846-3.851v-1.284H2.769a.77.77 0 0 1-.688-1.115l.945-1.891V6.35Zm13.333 0v1.284h-6.41a3.849 3.849 0 0 0-3.846 3.851v3.338h-2.09l.47-.939a.77.77 0 0 0 .081-.345V6.351a2.31 2.31 0 0 1 2.308-2.31h7.18a2.31 2.31 0 0 1 2.307 2.31Zm-6.41 2.825a2.31 2.31 0 0 0-2.308 2.31v6.163a2.31 2.31 0 0 0 2.308 2.31h10.037l-.55-1.101v-7.372a2.31 2.31 0 0 0-2.308-2.31h-7.18Z" clip-rule="evenodd"/></svg>