<svg xmlns="http://www.w3.org/2000/svg" width="24" height="24" fill="none" class="persona-icon" viewBox="0 0 24 24"><path fill="currentColor" d="M11.083 12.166a.75.75 0 0 0-.75.746c0 .412.336.746.75.746h4.584c.414 0 .75-.334.75-.746a.75.75 0 0 0-.75-.746zM11.083 14.902a.75.75 0 0 0-.75.747c0 .412.336.746.75.746h2.865c.414 0 .75-.334.75-.746a.75.75 0 0 0-.75-.747z"/><path fill="currentColor" fill-rule="evenodd" d="M3.917 6.983a3.49 3.49 0 0 1 3.5-3.483h6.416c1.933 0 3.5 1.56 3.5 3.483v1.158a3.49 3.49 0 0 1 2.75 3.403v6.21l.838 1.666a.74.74 0 0 1-.033.726.75.75 0 0 1-.638.354H10.167c-1.933 0-3.5-1.56-3.5-3.483v-1.078H3.75a.75.75 0 0 1-.638-.354.74.74 0 0 1-.033-.726l.838-1.667zm11.916 0c0-1.1-.895-1.99-2-1.99H7.417c-1.105 0-2 .89-2 1.99v6.385c0 .116-.027.23-.08.334l-.373.744h1.703v-2.902a3.49 3.49 0 0 1 3.5-3.483h5.666zm-5.666 2.57c-1.105 0-2 .892-2 1.99v5.474c0 1.1.895 1.99 2 1.99h8.87l-.454-.902v-6.561c0-1.1-.895-1.99-2-1.99z" clip-rule="evenodd"/></svg>