<svg xmlns="http://www.w3.org/2000/svg" width="32" height="32" fill="none" class="persona-icon" viewBox="0 0 32 32"><path fill="currentColor" d="M14.669 16.34c-.552 0-1 .454-1 1.014s.448 1.013 1 1.013h6.666c.553 0 1-.454 1-1.013 0-.56-.447-1.014-1-1.014zM14.669 20.394c-.552 0-1 .454-1 1.014s.448 1.013 1 1.013h4.166c.553 0 1-.453 1-1.013 0-.56-.447-1.014-1-1.014z"/><path fill="currentColor" fill-rule="evenodd" d="M4.336 8.57c0-2.799 2.238-5.068 5-5.068h9.333c2.761 0 5 2.27 5 5.068v1.79c2.282.47 4 2.515 4 4.967v9.22l1.228 2.488c.155.315.138.688-.044.987a.997.997 0 0 1-.85.48H13.335c-2.762 0-5-2.268-5-5.067v-1.69H4.002a.997.997 0 0 1-.85-.48 1.025 1.025 0 0 1-.044-.986l1.228-2.489zm17.333 0c0-1.68-1.343-3.04-3-3.04H9.336c-1.657 0-3 1.36-3 3.04v9.46c0 .157-.037.312-.106.453l-.61 1.235h2.716v-4.391c0-2.8 2.238-5.068 5-5.068h8.333zm-8.333 3.716c-1.657 0-3 1.361-3 3.04v8.109c0 1.679 1.343 3.04 3 3.04h13.048l-.715-1.45v-9.698c0-1.68-1.343-3.04-3-3.04z" clip-rule="evenodd"/></svg>