<svg xmlns="http://www.w3.org/2000/svg" width="32" height="32" fill="none"><path fill="#000" fill-rule="evenodd" d="M8 3a5 5 0 0 0-5 5v16a5 5 0 0 0 5 5h16a5 5 0 0 0 5-5V8a5 5 0 0 0-5-5H8Zm19 13.253V8a3 3 0 0 0-3-3H8a3 3 0 0 0-3 3v13.586l4.017-4.017a2.333 2.333 0 0 1 3.3 0l2.114 2.114c.13.13.341.13.471 0l6.115-6.114a2.333 2.333 0 0 1 3.3 0L27 16.253ZM5.025 24.389A3 3 0 0 0 8 27h16a3 3 0 0 0 3-3v-4.92l-4.098-4.097a.333.333 0 0 0-.471 0l-6.114 6.115a2.333 2.333 0 0 1-3.3 0l-2.115-2.115a.333.333 0 0 0-.471 0L5.025 24.39Z" clip-rule="evenodd"/><path fill="#000" fill-rule="evenodd" d="M10.667 9a1.667 1.667 0 1 0 0 3.333 1.667 1.667 0 0 0 0-3.333ZM7 10.667a3.667 3.667 0 1 1 7.333 0 3.667 3.667 0 0 1-7.333 0Z" clip-rule="evenodd"/></svg>