<svg xmlns="http://www.w3.org/2000/svg" width="16" height="16" fill="none" class="persona-icon" viewBox="0 0 16 16"><path fill="currentColor" fill-rule="evenodd" d="M5.167 1A2.667 2.667 0 0 0 2.5 3.667v5.055c0 .675.547 1.222 1.222 1.222h2.35v3.834c0 .675.547 1.222 1.221 1.222h1.413c.675 0 1.222-.547 1.222-1.222V9.944h2.35c.675 0 1.222-.547 1.222-1.222V1.5A.5.5 0 0 0 13 1zM3.5 6.778V3.667C3.5 2.747 4.246 2 5.167 2h3.047v.944a.5.5 0 1 0 1 0V2h1.143v2.389a.5.5 0 1 0 1 0V2H12.5v4.778z" clip-rule="evenodd"/></svg>