<svg xmlns="http://www.w3.org/2000/svg" width="32" height="32" fill="none" class="persona-icon" viewBox="0 0 32 32"><path fill="currentColor" fill-rule="evenodd" d="M10.333 2A5.333 5.333 0 0 0 5 7.333v10.111a2.444 2.444 0 0 0 2.444 2.445h4.7v7.666A2.444 2.444 0 0 0 14.587 30h2.825a2.444 2.444 0 0 0 2.444-2.445V19.89h4.698A2.444 2.444 0 0 0 27 17.444V3a1 1 0 0 0-1-1zM7 7.333A3.333 3.333 0 0 1 10.333 4h6.094v1.889a1 1 0 1 0 2 0v-1.89h2.287v4.779a1 1 0 1 0 2 0V4H25v9.556H7z" clip-rule="evenodd"/></svg>