<svg xmlns="http://www.w3.org/2000/svg" width="20" height="20" fill="none" class="persona-icon"><path fill="currentColor" d="M15.185 5.149a.573.573 0 0 1 .05.83l-8.143 8.824a.622.622 0 0 1-.457.197.621.621 0 0 1-.456-.197L1.654 9.9a.573.573 0 0 1 .051-.83.627.627 0 0 1 .862.048l4.068 4.407 7.687-8.329a.627.627 0 0 1 .863-.048ZM3.967 8.089a.573.573 0 0 0-.05.831l1.81 1.961c.223.243.61.265.861.049a.573.573 0 0 0 .051-.83L4.83 8.138a.627.627 0 0 0-.862-.05Zm14.328-2.94a.573.573 0 0 1 .05.83l-8.143 8.824a.627.627 0 0 1-.862.048.573.573 0 0 1-.051-.83l8.144-8.824a.627.627 0 0 1 .862-.048Z"/></svg>