<svg xmlns="http://www.w3.org/2000/svg" width="24" height="24" fill="none" class="persona-icon" viewBox="0 0 24 24"><path fill="currentColor" fill-rule="evenodd" d="M17.106 7.212a.75.75 0 0 1 .015 1.06l-8.25 8.5a.75.75 0 0 1-1.076 0L3.212 12.05a.75.75 0 1 1 1.076-1.045l4.045 4.168 7.712-7.945a.75.75 0 0 1 1.06-.016M5.978 10.045a.75.75 0 0 1 1.06.016l1.833 1.889a.75.75 0 1 1-1.076 1.045l-1.833-1.89a.75.75 0 0 1 .016-1.06m14.794-2.833a.75.75 0 0 1 .016 1.06l-8.25 8.5a.75.75 0 0 1-1.076-1.044l8.25-8.5a.75.75 0 0 1 1.06-.016" clip-rule="evenodd"/></svg>