<svg xmlns="http://www.w3.org/2000/svg" width="24" height="24" fill="none"><path fill="#000" fill-rule="evenodd" d="M17.672 6.73c.3.307.3.804 0 1.111l-9.23 9.429a.758.758 0 0 1-1.088 0l-5.129-5.238a.798.798 0 0 1 0-1.111.758.758 0 0 1 1.088 0l4.584 4.682 8.687-8.873a.758.758 0 0 1 1.088 0Zm4.103 0c.3.307.3.804 0 1.111l-9.231 9.429a.758.758 0 0 1-1.088 0 .798.798 0 0 1 0-1.111l9.23-9.429a.758.758 0 0 1 1.089 0ZM5.302 9.873a.758.758 0 0 1 1.088 0l2.051 2.095c.3.307.3.805 0 1.111a.758.758 0 0 1-1.087 0l-2.052-2.095a.798.798 0 0 1 0-1.111Z" clip-rule="evenodd"/></svg>