<svg xmlns="http://www.w3.org/2000/svg" width="32" height="32" fill="none" class="persona-icon" viewBox="0 0 32 32"><path fill="currentColor" fill-rule="evenodd" d="M22.818 9.793a1 1 0 0 1 0 1.414l-11 11a1 1 0 0 1-1.414 0l-6.111-6.11a1 1 0 0 1 1.414-1.415l5.404 5.404L21.404 9.793a1 1 0 0 1 1.414 0M7.96 13.46a1 1 0 0 1 1.414 0l2.444 2.444a1 1 0 0 1-1.414 1.414L7.96 14.874a1 1 0 0 1 0-1.414m19.747-3.667a1 1 0 0 1 0 1.414l-11 11a1 1 0 0 1-1.414-1.414l11-11a1 1 0 0 1 1.414 0" clip-rule="evenodd"/></svg>