<svg xmlns="http://www.w3.org/2000/svg" width="20" height="20" fill="none" class="persona-icon" viewBox="0 0 20 20"><path fill="currentColor" fill-rule="evenodd" d="M8.482 2.775c-1.016 0-1.928.62-2.302 1.565l-.327.825h-1.61a2.27 2.27 0 0 0-2.269 2.27v1.888h16.05V7.435a2.27 2.27 0 0 0-2.27-2.27h-1.61l-.326-.825a2.475 2.475 0 0 0-2.302-1.565zm-1.14 2.024a1.225 1.225 0 0 1 1.14-.774h3.034c.503 0 .954.307 1.14.774l.123.314H7.22z" clip-rule="evenodd"/><path fill="currentColor" d="M1.974 10.573v4.383a2.27 2.27 0 0 0 2.27 2.269h11.51a2.27 2.27 0 0 0 2.27-2.27v-4.382H11.4v.57a.6.6 0 0 1-.6.6H9.2a.6.6 0 0 1-.6-.6v-.57z"/></svg>