<svg xmlns="http://www.w3.org/2000/svg" width="16" height="16" fill="none" class="persona-icon" viewBox="0 0 16 16"><path fill="currentColor" d="M2.578 1.872a.5.5 0 0 0-.707.707l1.178 1.178a10 10 0 0 0-2.077 1.59.5.5 0 0 0 .707.707 9 9 0 0 1 2.105-1.562l2.014 2.015a6.25 6.25 0 0 0-2.487 1.708.5.5 0 0 0 .748.664A5.27 5.27 0 0 1 6.591 7.3l6.83 6.83a.5.5 0 0 0 .707-.707zM8.002 3.435a9 9 0 0 0-1.97.22.5.5 0 1 1-.22-.975 9.94 9.94 0 0 1 9.22 2.667.5.5 0 1 1-.707.707 8.94 8.94 0 0 0-6.323-2.619M9.655 6.329a.5.5 0 1 0-.264.965 5.26 5.26 0 0 1 2.563 1.597.5.5 0 1 0 .75-.662 6.27 6.27 0 0 0-3.05-1.9"/><path fill="currentColor" d="M8 13.604a1.75 1.75 0 1 0 0-3.5 1.75 1.75 0 0 0 0 3.5"/></svg>