<svg xmlns="http://www.w3.org/2000/svg" width="16" height="16" fill="none" class="persona-icon" viewBox="0 0 16 16"><path fill="currentColor" d="M11.104 6.243a.5.5 0 0 0-.874-.486l-1.395 2.51-1.878-1.34a.5.5 0 0 0-.724.158L4.899 9.42a.5.5 0 1 0 .869.496l1.058-1.853L8.71 9.407a.5.5 0 0 0 .728-.164z"/><path fill="currentColor" fill-rule="evenodd" d="M4.333 2A2.333 2.333 0 0 0 2 4.333v7.334A2.333 2.333 0 0 0 4.333 14h7.334A2.333 2.333 0 0 0 14 11.667V4.333A2.333 2.333 0 0 0 11.667 2zM3 4.333C3 3.597 3.597 3 4.333 3h7.334C12.403 3 13 3.597 13 4.333v7.334c0 .736-.597 1.333-1.333 1.333H4.333A1.333 1.333 0 0 1 3 11.667z" clip-rule="evenodd"/></svg>