<svg xmlns="http://www.w3.org/2000/svg" width="16" height="16" fill="none" class="persona-icon" viewBox="0 0 16 16"><path fill="currentColor" fill-rule="evenodd" d="M2 4.333A2.333 2.333 0 0 1 4.333 2h7.334A2.333 2.333 0 0 1 14 4.333v7.334A2.333 2.333 0 0 1 11.667 14H4.333A2.333 2.333 0 0 1 2 11.667zM4.333 3C3.597 3 3 3.597 3 4.333v7.334C3 12.403 3.597 13 4.333 13h7.334c.736 0 1.333-.597 1.333-1.333V4.333C13 3.597 12.403 3 11.667 3z" clip-rule="evenodd"/><path fill="currentColor" fill-rule="evenodd" d="M7.119 6.585a.5.5 0 0 1 .364.198l1.488 1.984 1.731-1.732a.5.5 0 0 1 .707.707L9.27 9.882a.5.5 0 0 1-.753-.054L7.029 7.845l-1.731 1.73a.5.5 0 0 1-.707-.706l2.139-2.14a.5.5 0 0 1 .389-.144" clip-rule="evenodd"/></svg>