<svg xmlns="http://www.w3.org/2000/svg" width="20" height="20" fill="none" class="persona-icon" viewBox="0 0 20 20"><path fill="currentColor" d="m13.65 7.976-1.94 3.49a.625.625 0 0 1-.91.206l-2.152-1.537-1.208 2.114a.625.625 0 1 1-1.086-.62l1.552-2.715a.625.625 0 0 1 .906-.199l2.145 1.533 1.6-2.879a.625.625 0 1 1 1.092.607"/><path fill="currentColor" fill-rule="evenodd" d="M5.733 2.975h8.534a2.76 2.76 0 0 1 2.758 2.758v8.534a2.76 2.76 0 0 1-2.758 2.758H5.733a2.76 2.76 0 0 1-2.758-2.758V5.733a2.76 2.76 0 0 1 2.758-2.758M4.225 5.733v8.534c0 .833.675 1.508 1.508 1.508h8.534c.833 0 1.508-.675 1.508-1.508V5.733c0-.833-.675-1.508-1.508-1.508H5.733c-.833 0-1.508.675-1.508 1.508" clip-rule="evenodd"/></svg>