<svg xmlns="http://www.w3.org/2000/svg" width="20" height="20" fill="none" class="persona-icon" viewBox="0 0 20 20"><path fill="currentColor" d="M13.65 7.976a.625.625 0 0 0-1.093-.607l-1.6 2.879-2.145-1.533a.625.625 0 0 0-.906.199l-1.552 2.715a.625.625 0 0 0 1.086.62l1.208-2.114 2.152 1.537a.625.625 0 0 0 .91-.205z"/><path fill="currentColor" fill-rule="evenodd" d="M5.733 2.975a2.76 2.76 0 0 0-2.758 2.758v8.534a2.76 2.76 0 0 0 2.758 2.758h8.534a2.76 2.76 0 0 0 2.758-2.758V5.733a2.76 2.76 0 0 0-2.758-2.758zM4.225 5.733c0-.833.675-1.508 1.508-1.508h8.534c.833 0 1.508.675 1.508 1.508v8.534c0 .833-.675 1.508-1.508 1.508H5.733a1.51 1.51 0 0 1-1.508-1.508z" clip-rule="evenodd"/></svg>