<svg xmlns="http://www.w3.org/2000/svg" width="16" height="16" fill="none" class="persona-icon"><g clip-path="url(#a)"><path fill="currentColor" d="M4.923 3A.93.93 0 0 0 4 3.938v8.124a.93.93 0 0 0 .923.938h4C10.623 13 12 11.6 12 9.875c0-1.168-.63-2.186-1.565-2.722.213-.399.334-.855.334-1.34C10.77 4.258 9.53 3 8 3H4.923ZM8 6.75H5.846V4.875H8c.51 0 .923.42.923.938A.93.93 0 0 1 8 6.75ZM5.846 8.625h3.077c.68 0 1.23.56 1.23 1.25s-.55 1.25-1.23 1.25H5.846v-2.5Z"/></g><defs><clipPath id="a"><path fill="#fff" d="M0 0h16v16H0z"/></clipPath></defs></svg>