<svg xmlns="http://www.w3.org/2000/svg" width="20" height="20" fill="none" class="persona-icon" viewBox="0 0 20 20"><path fill="currentColor" d="M6.154 3.5C5.517 3.5 5 4.046 5 4.719V15.28c0 .673.517 1.219 1.154 1.219h5c2.124 0 3.846-1.819 3.846-4.063 0-1.518-.788-2.841-1.956-3.538a3.803 3.803 0 0 0 .417-1.743c0-2.019-1.55-3.656-3.461-3.656H6.154ZM10 8.375H7.308V5.937H10c.637 0 1.154.546 1.154 1.22 0 .672-.517 1.218-1.154 1.218Zm-2.692 2.438h3.846c.85 0 1.538.727 1.538 1.624 0 .898-.688 1.626-1.538 1.626H7.308v-3.25Z"/></svg>