<svg xmlns="http://www.w3.org/2000/svg" width="240" height="240" fill="none" class="persona-ilustration" viewBox="0 0 240 240"><g clip-path="url(#7p_a)"><g clip-path="url(#7q_b)"><rect width="200" height="200" x="20" y="20" fill="#D3EDFF" rx="100"/><mask id="7r_c" width="52" height="63" x="101" y="131" maskUnits="userSpaceOnUse" style="mask-type:alpha"><path fill="#F8B199" d="m103.908 158.805 18.952-21.79c1.091-1.603 5.229-4.976 13.048-5.644 9.775-.835 15.186 7.723 16.695 13.398 1.207 4.54-21.13 17.836-32.45 23.916.264 5.418 2.159 8.121.817 17.816-1.003 7.244-12.446 12.574-17.128-2.171-3.746-11.796-1.517-21.932.066-25.525"/></mask><g mask="url(#7r_c)"><path fill="#FFC7B6" d="m103.908 158.805 18.952-21.79c1.091-1.603 5.229-4.976 13.048-5.644 9.775-.835 15.186 7.723 16.695 13.398 1.207 4.54-21.13 17.836-32.45 23.916.264 5.418 2.159 8.121.817 17.816-1.003 7.244-12.446 12.574-17.128-2.171-3.746-11.796-1.517-21.932.066-25.525"/><path fill="#000" d="m103.908 158.805 18.952-21.79c1.091-1.603 5.229-4.976 13.048-5.644 9.775-.835 15.186 7.722 16.695 13.397 1.207 4.54-21.13 17.837-32.45 23.917.264 5.418 2.159 8.121.817 17.816-1.003 7.243-12.446 12.574-17.128-2.171-3.746-11.796-1.517-21.932.066-25.525" opacity=".5" style="mix-blend-mode:overlay"/><path fill="#000" d="m103.572 148.76 22.018-18.687c1.32-1.421 5.918-4.132 13.749-3.615 9.789.647 13.85 9.922 14.487 15.759.51 4.671-23.576 14.451-35.682 18.757-.555 5.396.911 8.353-1.876 17.736-2.082 7.009-14.198 10.555-16.605-4.726-1.927-12.226 1.803-21.91 3.909-25.224" opacity=".5" style="mix-blend-mode:overlay"/></g><mask id="7s_d" width="55" height="60" x="94" y="124" maskUnits="userSpaceOnUse" style="mask-type:alpha"><path fill="#F8B199" d="m98.544 147.594 21.442-19.345c1.277-1.46 5.791-4.309 13.634-4.029 9.804.35 14.144 9.498 14.957 15.314.651 4.652-23.128 15.157-35.098 19.828-.391 5.41 1.164 8.321-1.338 17.784-1.869 7.069-13.872 10.98-16.741-4.221-2.295-12.162 1.14-21.955 3.144-25.331"/></mask><g mask="url(#7s_d)"><path fill="#FFC7B6" d="m98.544 147.594 21.442-19.345c1.277-1.46 5.791-4.309 13.634-4.029 9.804.35 14.144 9.498 14.957 15.314.651 4.652-23.128 15.157-35.098 19.828-.391 5.41 1.164 8.321-1.338 17.784-1.869 7.069-13.872 10.98-16.741-4.221-2.295-12.162 1.14-21.955 3.144-25.331"/><path fill="#000" d="m98.544 147.594 21.442-19.345c1.277-1.46 5.791-4.309 13.634-4.029 9.804.35 14.144 9.498 14.957 15.314.651 4.652-23.128 15.157-35.098 19.828-.391 5.41 1.164 8.321-1.338 17.784-1.869 7.069-13.872 10.98-16.741-4.222-2.295-12.161 1.14-21.954 3.144-25.33" opacity=".5" style="mix-blend-mode:overlay"/><path fill="#000" d="m99.659 132.144 24.11-15.895c1.482-1.251 6.374-3.388 14.086-1.93 9.639 1.823 12.551 11.52 12.48 17.392-.058 4.697-25.147 11.501-37.685 14.316-1.201 5.289-.102 8.401-4.001 17.379-2.912 6.708-15.367 8.767-15.914-6.694-.437-12.369 4.433-21.532 6.924-24.568" opacity=".5" style="mix-blend-mode:overlay"/></g><mask id="7t_e" width="58" height="56" x="87" y="113" maskUnits="userSpaceOnUse" style="mask-type:alpha"><path fill="#F8B199" d="m94.102 132.412 23.915-16.188c1.466-1.269 6.332-3.466 14.06-2.102 9.661 1.705 12.692 11.366 12.692 17.238 0 4.698-25.004 11.808-37.507 14.775-1.136 5.304 0 8.403-3.788 17.428-2.831 6.742-15.259 8.953-15.995-6.5-.588-12.362 4.17-21.585 6.623-24.651"/></mask><g mask="url(#7t_e)"><path fill="#FFC7B6" d="m94.102 132.412 23.915-16.188c1.466-1.269 6.332-3.466 14.06-2.102 9.661 1.705 12.692 11.366 12.692 17.238 0 4.698-25.004 11.808-37.507 14.775-1.136 5.304 0 8.403-3.788 17.428-2.831 6.742-15.259 8.953-15.995-6.5-.588-12.362 4.17-21.585 6.623-24.651"/><path fill="#000" d="m94.102 132.412 23.915-16.188c1.466-1.269 6.332-3.466 14.06-2.102 9.661 1.705 12.692 11.366 12.692 17.238 0 4.698-25.004 11.808-37.507 14.775-1.136 5.304 0 8.403-3.788 17.428-2.831 6.742-15.259 8.953-15.995-6.5-.588-12.362 4.17-21.585 6.623-24.651" opacity=".5" style="mix-blend-mode:overlay"/><path fill="#000" d="M86.999 148.153c-5.488 4.573-4.573-5.716-3.43-11.433l34.526-17.606 28.811 8.918c-7.47.076-24.466.777-32.698 2.972-10.289 2.744-20.35 11.433-27.21 17.149" style="mix-blend-mode:overlay"/></g><path fill="#FFC7B6" d="M192.6 208.393c6.907 15.455 16.297 32.931 23.922 41.64l-52.18 12.913-11.905-19.101s-8.361-12.085-12.934-18.301c-6.831-9.285-14.471-12.822-17.076-24.051-3.042-13.114-5.006-17.893-1.442-30.875 2.854-10.397 8.233-25.043 16.729-18.405 10.169 7.944 9.621-8.86 3.636-17.398-5.051-7.207-10.294-10.507-18.923-12.238-6.107-.117-28.244 15.509-34.083 17.664s-13.545-2.445-11.322-10.529 36.873-30.15 50.166-29.335c13.293.816 29.641 10.799 43.289 19.539 13.649 8.739 17.315 11.951 17.35 14.164 6.144 23.42 1.224 65.164 4.773 74.313"/></g><path fill="#FF8D18" d="M205.569 88.79c-7.122.126-12.78-5.309-12.958-12.824-.176-7.293 4.879-14.064 11.657-16.126l-.807-17.891c-.187-4.094-2.91-7.068-6.287-6.892a207 207 0 0 0-33.745 4.538l-2.601 9.976-9.098-7.036C105.743 55.52 76.981 81.105 68.198 89.81c-1.795 1.778-2.8 4.47-2.675 7.155l.784 17.325c5.205-1.67 10.308.015 12.834 4.84 3.45 6.59.775 16.545-5.978 22.224-1.766 1.486-3.633 2.528-5.49 3.149l1.003 22.188c.27 5.999 5.717 8.933 9.937 5.353 23.518-19.95 56.819-32.828 83.618-40.623l3.727-11.762 9.566 8.149c10.658-2.701 19.494-4.475 25.068-5.496 3.576-.651 6.288-4.673 6.094-9.018l-1.107-24.494z"/><path fill="#FCEFEB" fill-rule="evenodd" d="M197.143 41.878q-.002 0-.009-.002l-.021-.002h-.06q-3.78.198-7.552.535a1.424 1.424 0 1 1-.253-2.837q3.83-.343 7.666-.543h.017q.086-.004.176-.003.096 0 .187.013.097 0 .195.011.1.014.204.033c.452.09.863.275 1.219.528.36.255.565.647.596 1.055.353.162.639.468.764.869a4.3 4.3 0 0 1 .188 1.08v.003l.153 3.388a1.423 1.423 0 1 1-2.845.129l-.153-3.386m-.123-.684a1.4 1.4 0 0 1-.229-.132.3.3 0 0 0-.12-.055m-21.505.803a1.424 1.424 0 0 1-1.173 1.637q-3.31.547-6.585 1.202l-.2.765a1.424 1.424 0 0 1-2.756-.72l.649-2.482.868-.178q3.758-.769 7.559-1.397a1.425 1.425 0 0 1 1.638 1.173m23.794 8.744a1.424 1.424 0 0 1 1.487 1.358l.193 4.27-.771.428a20 20 0 0 0-4.53 3.458 1.424 1.424 0 0 1-2.029-2 23 23 0 0 1 4.406-3.5l-.114-2.528a1.424 1.424 0 0 1 1.358-1.486m-33.619-3.627a1.425 1.425 0 0 1 1.018 1.737l-.425 1.624v.001q-.188.72-.495 1.378a1.42 1.42 0 0 1-1.384.82c.206.54.069 1.176-.392 1.58a6.2 6.2 0 0 1-1.298.878l-.002.001a6 6 0 0 1-.774.318c-.29.095-.59.09-.861.006a1.42 1.42 0 0 1-.834.253 5 5 0 0 1-1.449-.241 1.4 1.4 0 0 1-.514-.298 1.4 1.4 0 0 1-.557-.198q-.246-.15-.476-.33l-.003-.002-1.904-1.474a1.425 1.425 0 0 1 1.743-2.252l1.913 1.48q.108.084.217.15.114.071.21.157.127.017.252.058a2.1 2.1 0 0 0 .614.102q.209.004.398.063.167-.116.369-.182.19-.062.384-.158.36-.18.694-.473a1.42 1.42 0 0 1 1.034-.35 1.42 1.42 0 0 1 .039-1.112q.196-.421.32-.892l.425-1.626a1.424 1.424 0 0 1 1.738-1.018m-14.908-1.074 2.483 1.92a1.425 1.425 0 0 1-1.743 2.254l-1.333-1.032q-2.44.725-4.813 1.496a1.425 1.425 0 0 1-.88-2.709 200 200 0 0 1 5.589-1.725zm-15.436 6.668a1.425 1.425 0 0 1-.808 1.844 199 199 0 0 0-10.598 4.499 1.425 1.425 0 1 1-1.188-2.59 202 202 0 0 1 10.749-4.562 1.424 1.424 0 0 1 1.845.809m53.751 15.726a1.424 1.424 0 0 1 1.032 1.729 21.2 21.2 0 0 0-.642 5.686c.046 1.901.352 3.7.881 5.36a1.423 1.423 0 1 1-2.713.866 22 22 0 0 1-1.015-6.158 24 24 0 0 1 .728-6.45 1.424 1.424 0 0 1 1.729-1.033m-74.893-6.205a1.424 1.424 0 0 1-.591 1.926 201 201 0 0 0-10.014 5.686 1.424 1.424 0 1 1-1.477-2.435 204 204 0 0 1 10.156-5.768 1.425 1.425 0 0 1 1.926.591m80.46 27.854a1.425 1.425 0 0 1 1.973-.409 14.6 14.6 0 0 0 4.893 2.058l1.066.236.277 6.145a1.423 1.423 0 1 1-2.845.128l-.18-3.998a17.4 17.4 0 0 1-4.775-2.188 1.425 1.425 0 0 1-.409-1.972M94.417 74.8a1.424 1.424 0 0 1-.364 1.98 189 189 0 0 0-9.27 6.81 1.424 1.424 0 1 1-1.756-2.243 192 192 0 0 1 9.41-6.911 1.424 1.424 0 0 1 1.98.364m107.548 32.748a1.424 1.424 0 0 1 1.487 1.359l.228 5.052v.002m-1.715-6.413a1.424 1.424 0 0 0-1.358 1.487zm-1.358 1.487.228 5.055zM76.069 88.972c.527.584.48 1.485-.103 2.012a123 123 0 0 0-4.156 3.915q-.103.105-.19.244a1.4 1.4 0 0 1-.229.28q.02.18-.009.369a2 2 0 0 0-.02.352l.137 3.008a1.424 1.424 0 1 1-2.846.129l-.136-3.009q-.02-.465.05-.915c.05-.324.206-.606.428-.816a1.42 1.42 0 0 1 .207-.905q.251-.404.592-.748l.007-.008a126 126 0 0 1 4.257-4.011 1.424 1.424 0 0 1 2.011.103m124.711 25.641c.044-.169.063-.345.055-.52v-.003m-.055.523c-.05.192-.058.385-.03.569zm1.779 1.724a1.43 1.43 0 0 1-.546 1.345 3.4 3.4 0 0 1-1.47.657c-1.671.305-3.642.679-5.875 1.128a1.425 1.425 0 0 1-.561-2.793c2.251-.452 4.239-.83 5.927-1.138l.007-.001a.6.6 0 0 0 .246-.119c.143-.109.3-.186.463-.234m-34.26-2.384a4.9 4.9 0 0 1 1.426.263c.218.074.406.197.557.351.212.026.421.1.612.227q.264.176.509.383l.003.002 2.031 1.731a1.423 1.423 0 1 1-1.847 2.168l-2.028-1.728-.001-.001a3 3 0 0 0-.242-.182 1.4 1.4 0 0 1-.231-.19 1.4 1.4 0 0 1-.286-.067 2.1 2.1 0 0 0-.602-.11 1.5 1.5 0 0 1-.35-.056 1.5 1.5 0 0 1-.333.139 3 3 0 0 0-.341.123l-.01.004c-.234.101-.468.24-.693.417a1.42 1.42 0 0 1-1.001.299c.099.343.07.723-.11 1.063q-.212.398-.357.851l-.699 2.206a1.425 1.425 0 0 1-2.715-.861l.699-2.205q.222-.697.556-1.326c.275-.52.827-.799 1.378-.752a1.425 1.425 0 0 1 .489-1.514 5.9 5.9 0 0 1 2.039-1.048c.266-.074.536-.068.782.005.225-.131.487-.202.765-.192m17.538 7.5a1.423 1.423 0 0 1-1.064 1.71c-1.863.434-3.808.902-5.824 1.403l-.711.176-2.587-2.204a1.424 1.424 0 1 1 1.847-2.168l1.474 1.255q2.668-.657 5.155-1.236a1.424 1.424 0 0 1 1.71 1.064M70.283 103.81a1.425 1.425 0 0 1 1.487 1.359l.082 1.824q.083.044.158.096c.24-.109.513-.154.794-.113q.387.056.77.131c1.154.227 2.26.585 3.307 1.064a1.424 1.424 0 0 1-1.187 2.589 12 12 0 0 0-3.296-.965 1.4 1.4 0 0 1-.616-.244c-.198.09-.42.136-.652.126a12 12 0 0 0-.64-.011l-1.368.007-.197-4.376a1.425 1.425 0 0 1 1.358-1.487m89.889 19.502a1.425 1.425 0 0 1 .927 1.788l-.927 2.924-.722.215a370 370 0 0 0-5.522 1.697 1.424 1.424 0 0 1-.859-2.716q2.469-.78 4.843-1.493l.472-1.488a1.425 1.425 0 0 1 1.788-.927m-79.87-11.109a1.424 1.424 0 0 1 2.003.207c.707.87 1.336 1.828 1.879 2.865a19.4 19.4 0 0 1 1.586 4.142 1.424 1.424 0 1 1-2.757.715 16.6 16.6 0 0 0-1.353-3.536 14.3 14.3 0 0 0-1.565-2.39 1.424 1.424 0 0 1 .207-2.003m63.528 19.582a1.424 1.424 0 0 1-.868 1.818 315 315 0 0 0-10.828 4.045 1.424 1.424 0 0 1-1.046-2.649c3.697-1.46 7.352-2.82 10.925-4.082a1.424 1.424 0 0 1 1.817.868m-58.773-5.247a1.425 1.425 0 0 1 1.255 1.576 29 29 0 0 1-2.268 8.333 1.424 1.424 0 0 1-2.609-1.144 26.1 26.1 0 0 0 2.047-7.51 1.424 1.424 0 0 1 1.576-1.255m37.146 13.689a1.425 1.425 0 0 1-.725 1.879 248 248 0 0 0-10.445 4.915 1.424 1.424 0 1 1-1.274-2.548 252 252 0 0 1 10.565-4.971 1.424 1.424 0 0 1 1.879.725m-42.897 1.524c.597.513.664 1.412.151 2.008a27 27 0 0 1-3.888 3.708c-.315.244-.7.336-1.067.286a1.42 1.42 0 0 1-.62.914l-.145.093.164 3.649a1.424 1.424 0 1 1-2.845.129l-.242-5.347.742-.435q.39-.228.775-.478c.298-.194.642-.261.968-.216.065-.324.242-.627.523-.845q.36-.28.715-.578a24 24 0 0 0 2.76-2.737 1.424 1.424 0 0 1 2.01-.151m22.085 8.756a1.424 1.424 0 0 1-.532 1.942 180 180 0 0 0-9.825 6.011 1.425 1.425 0 0 1-1.565-2.379 183 183 0 0 1 9.98-6.106 1.424 1.424 0 0 1 1.942.532m-28.571 9.522a1.423 1.423 0 0 1 1.487 1.358l.202 4.489c.019.412.144.617.227.713a.5.5 0 0 0 .169.133l.078.015a.3.3 0 0 0 .071.006l.075-.002q.044-.031.092-.059.062-.035.151-.109l.002-.001.2.239c.504.164.89.602.969 1.148v.003a1.5 1.5 0 0 1-.028.554l.282.54-.133.082a1.4 1.4 0 0 1-.716.196c-.21.146-.46.238-.734.253a3 3 0 0 1-.644-.031 1.427 1.427 0 0 1-1.116-.745m1.632-2.039-.03-.008-.103-.022m-3.289-.738-.203-4.488a1.424 1.424 0 0 1 1.359-1.487m-1.156 5.975c.093 2.071 1.43 3.278 2.777 3.544l2.914.573-.558-1.065" clip-rule="evenodd"/><path fill="#FCEFEB" fill-rule="evenodd" d="M162.306 53.136c.784.06 1.371.745 1.311 1.53l-.006.082-.019.252-.067.978c-.056.855-.133 2.102-.217 3.664a1.423 1.423 0 1 1-2.844-.151 299 299 0 0 1 .306-4.953l.007-.09a1.425 1.425 0 0 1 1.529-1.312m-.777 15.039c.786.02 1.407.674 1.387 1.46a340 340 0 0 0-.111 10.01 1.423 1.423 0 1 1-2.848.012 342 342 0 0 1 .112-10.095 1.424 1.424 0 0 1 1.46-1.387m.016 20.1a1.424 1.424 0 0 1 1.483 1.362c.142 3.353.359 6.708.674 9.95a1.424 1.424 0 0 1-2.835.275c-.321-3.303-.541-6.711-.685-10.105a1.424 1.424 0 0 1 1.363-1.483m1.857 20.003a1.423 1.423 0 0 1 1.667 1.129c.325 1.69.691 3.288 1.102 4.774a1.423 1.423 0 1 1-2.745.76 64 64 0 0 1-1.154-4.996 1.424 1.424 0 0 1 1.13-1.667" clip-rule="evenodd"/><path fill="#FCEFEB" d="M110.453 92.783c-.788 4.002-4.012 6.737-7.202 6.11-3.189-.629-5.136-4.382-4.348-8.384s4.013-6.737 7.202-6.11c3.19.629 5.136 4.382 4.348 8.384M134.954 110.927c-.788 4.002-4.013 6.737-7.202 6.109s-5.136-4.381-4.348-8.383 4.012-6.737 7.202-6.109c3.189.628 5.136 4.381 4.348 8.383"/><path fill="#FCEFEB" fill-rule="evenodd" d="M132.145 73.197a4.624 4.624 0 0 1 1.354 6.398c-5.303 8.15-17.121 28.807-22.189 46.249a4.624 4.624 0 1 1-8.882-2.58c5.443-18.732 17.832-40.282 23.319-48.714a4.624 4.624 0 0 1 6.398-1.353" clip-rule="evenodd"/><path fill="#54D9FF" d="M220.798 60.684c-9.057 1.562-17.644-2.853-19.759-10.497-2.057-7.417 2.692-15.352 10.823-18.822l-5.525-18.12c-1.268-4.145-5.49-6.637-9.755-5.778-15.173 3.052-29.136 6.97-41.924 11.427l-.812 10.718-13.379-5.36c-55.424 22.521-85.7 54.453-94.72 65.113a8.35 8.35 0 0 0-1.617 7.85l5.354 17.545c6.224-2.753 13.159-2.058 17.595 2.364 6.059 6.04 5.148 16.75-2.044 23.911a21.3 21.3 0 0 1-6.216 4.323l6.857 22.471c1.851 6.075 9.541 7.977 14.027 3.47 24.999-25.118 64.26-44.977 96.501-58.334l1.801-12.769 14.255 6.402c12.923-4.904 23.753-8.495 30.61-10.66a8.38 8.38 0 0 0 5.511-10.44l-7.569-24.807z"/><path fill="#EFFAFF" fill-rule="evenodd" d="m198.257 14.385-.061.001-.07.003-.074.013q-.036.005-.077.013-2.376.479-4.741.992a1.424 1.424 0 0 1-.605-2.783q2.39-.519 4.791-1.003l.007-.001.006-.002.193-.033a1.4 1.4 0 0 1 .204-.016q.102-.021.208-.027.108-.006.219-.006c.45 0 .888.074 1.3.21.458.15.787.51.918.938.448-.005.892.202 1.173.593.255.355.457.755.59 1.189l1.048 3.434a1.425 1.425 0 0 1-2.725.831l-1.045-3.429a1.3 1.3 0 0 0-.181-.362 1.4 1.4 0 0 1-.206-.418 1.4 1.4 0 0 1-.463-.072 1.3 1.3 0 0 0-.409-.065m-13.436 1.5a1.424 1.424 0 0 1-1.037 1.726 313 313 0 0 0-9.377 2.492 1.425 1.425 0 0 1-.774-2.742 316 316 0 0 1 9.462-2.514 1.424 1.424 0 0 1 1.726 1.037m-18.781 5.213c.238.75-.177 1.55-.927 1.788q-1.865.592-3.716 1.205l-.061.802a1.424 1.424 0 1 1-2.84-.217l.205-2.687.896-.3a299 299 0 0 1 4.656-1.518 1.423 1.423 0 0 1 1.787.927m37.562 2.719a1.423 1.423 0 0 1 1.777.946l1.354 4.438-.871.59a23.5 23.5 0 0 0-4.691 4.163 1.424 1.424 0 1 1-2.162-1.854 26.2 26.2 0 0 1 4.392-4.06l-.746-2.446a1.423 1.423 0 0 1 .947-1.777m-43.845 3.04c.785.06 1.372.744 1.312 1.528l-.133 1.744a7 7 0 0 1-.32 1.636 1.424 1.424 0 0 1-1.589.97 1.425 1.425 0 0 1-.129 1.856c-.388.39-.824.74-1.302 1.035l-.002.002a7 7 0 0 1-.874.46 1.42 1.42 0 0 1-1.011.054 1.42 1.42 0 0 1-.887.488 7 7 0 0 1-1.667.037 1.4 1.4 0 0 1-.648-.228 1.4 1.4 0 0 1-.687-.03 7 7 0 0 1-.641-.225h-.002l-2.802-1.124a1.425 1.425 0 0 1 1.059-2.644l2.812 1.127q.19.077.383.134.208.062.379.176.201-.041.418-.022a4.3 4.3 0 0 0 1-.022c.219-.03.435-.01.633.054.134-.159.306-.29.51-.38a4.3 4.3 0 0 0 1.307-.898c.338-.34.804-.475 1.244-.402a1.43 1.43 0 0 1-.216-1.29q.153-.471.191-.977v-.002l.134-1.746a1.424 1.424 0 0 1 1.528-1.311m-19.284 1.968 3.347 1.342a1.424 1.424 0 1 1-1.06 2.643l-2.266-.908a284 284 0 0 0-4.539 1.946 1.424 1.424 0 1 1-1.145-2.608q2.525-1.11 5.126-2.191zm-13.88 7.757c.344.707.05 1.56-.657 1.904a274 274 0 0 0-9.824 5.035 1.424 1.424 0 0 1-1.35-2.508c3.191-1.718 6.5-3.417 9.926-5.087a1.425 1.425 0 0 1 1.905.656m68.433 7.083a1.425 1.425 0 0 1 1.307 1.533 17.567 17.567 0 0 0 3.381 11.857 1.423 1.423 0 1 1-2.293 1.69 20.4 20.4 0 0 1-3.25-6.673 20.5 20.5 0 0 1-.678-7.1 1.425 1.425 0 0 1 1.533-1.307m-88.016 3.33c.401.676.177 1.55-.5 1.95a263 263 0 0 0-9.371 5.822 1.424 1.424 0 1 1-1.554-2.387 266 266 0 0 1 9.473-5.885 1.425 1.425 0 0 1 1.952.5M88.367 58.987c.457.64.308 1.53-.332 1.986a246 246 0 0 0-8.831 6.608 1.424 1.424 0 0 1-1.757-2.242 249 249 0 0 1 8.933-6.684 1.424 1.424 0 0 1 1.987.332m120.095 6.218a1.424 1.424 0 0 1 1.772-.957c2.021.603 4.192.946 6.462.988l1.034.02 1.863 6.108a1.424 1.424 0 0 1-2.724.83l-1.266-4.148a26.8 26.8 0 0 1-6.184-1.07 1.423 1.423 0 0 1-.957-1.771M70.831 72.579a1.424 1.424 0 0 1-.147 2.01 213 213 0 0 0-8.15 7.404 1.424 1.424 0 0 1-1.97-2.056 216 216 0 0 1 8.258-7.505 1.424 1.424 0 0 1 2.009.147m150.107 8.076a1.423 1.423 0 0 1 1.777.947l1.56 5.116.001.003m-.868 2.832a1.43 1.43 0 0 0 1.03-1.233 4.1 4.1 0 0 0-.162-1.599m-2.606 1.914a1.4 1.4 0 0 1-.067-.59q.024-.243-.05-.49l-.001-.003-1.561-5.12a1.423 1.423 0 0 1 .947-1.777m.732 7.98a1.4 1.4 0 0 0-.526.278 1.25 1.25 0 0 1-.432.235l-.006.002a516 516 0 0 0-7.244 2.344 1.424 1.424 0 0 0 .897 2.703 508 508 0 0 1 7.202-2.33 4.1 4.1 0 0 0 1.409-.768 1.42 1.42 0 0 0 .438-1.546M54.733 87.826c.578.534.614 1.435.081 2.013a130 130 0 0 0-3.624 4.09q-.108.13-.176.272-.077.158-.185.287.047.16.056.334.007.156.056.317l.929 3.046a1.424 1.424 0 0 1-2.725.831l-.929-3.046a4.1 4.1 0 0 1-.176-1.012 1.42 1.42 0 0 1 .326-.977 1.42 1.42 0 0 1 .085-1.023c.148-.304.333-.592.553-.856l.004-.005.003-.004c.932-1.1 2.167-2.513 3.71-4.185a1.424 1.424 0 0 1 2.012-.082m122.359 5.303a7 7 0 0 1 1.648-.016c.267.029.509.13.709.281.244-.055.505-.047.76.036q.356.117.699.27l.003.001 3.026 1.36a1.424 1.424 0 1 1-1.167 2.598l-3.022-1.358a5 5 0 0 0-.427-.165 1.4 1.4 0 0 1-.417-.218q-.226.052-.469.027a4.2 4.2 0 0 0-.987.01 1.4 1.4 0 0 1-.564-.042c-.131.13-.29.236-.472.308a4 4 0 0 0-.483.23l-.007.004q-.439.242-.802.57a1.42 1.42 0 0 1-1.229.34c.227.369.285.836.115 1.27a4.3 4.3 0 0 0-.25.95l-.338 2.395a1.424 1.424 0 1 1-2.82-.399l.338-2.393c.077-.55.219-1.084.418-1.592a1.424 1.424 0 0 1 1.6-.878 1.426 1.426 0 0 1 .257-1.807 7 7 0 0 1 1.337-.951 7 7 0 0 1 .808-.384c.303-.12.623-.13.914-.048.215-.213.499-.359.822-.4m23.808 4.203a1.424 1.424 0 0 1-.856 1.823 597 597 0 0 0-7.112 2.616l-.548.206-3.561-1.6a1.424 1.424 0 1 1 1.167-2.598l2.491 1.12c2.275-.851 4.477-1.66 6.596-2.424a1.424 1.424 0 0 1 1.823.857m-148.95 6a1.423 1.423 0 0 1 1.778.947l.584 1.912c.264.019.512.112.72.261.244-.243.575-.398.946-.413q.49-.021.977-.021c1.411 0 2.798.126 4.146.374a1.424 1.424 0 1 1-.515 2.801 20.2 20.2 0 0 0-4.491-.309 1.4 1.4 0 0 1-.886-.263 1.42 1.42 0 0 1-.831.404q-.428.052-.855.121l-1.227.2-1.292-4.236a1.424 1.424 0 0 1 .947-1.778m119.581 1.826c.778.11 1.321.83 1.211 1.609l-.452 3.193-.744.314a548 548 0 0 0-5.149 2.203 1.425 1.425 0 0 1-1.135-2.612 543 543 0 0 1 4.434-1.902l.225-1.594a1.425 1.425 0 0 1 1.61-1.211m-104.656 4.711a1.424 1.424 0 0 1 1.97-.418 20.3 20.3 0 0 1 6.22 6.381 1.425 1.425 0 0 1-2.428 1.489 17.389 17.389 0 0 0-5.345-5.482 1.424 1.424 0 0 1-.417-1.97m89.986 5.298c.329.714.017 1.56-.697 1.89a460 460 0 0 0-10.121 4.815 1.425 1.425 0 0 1-1.255-2.557 468 468 0 0 1 10.183-4.845 1.425 1.425 0 0 1 1.89.697m-80.37 8.35a1.425 1.425 0 0 1 1.564 1.269c.319 3.068.023 6.243-.867 9.333a1.425 1.425 0 0 1-2.737-.788c.793-2.755 1.05-5.562.77-8.25a1.425 1.425 0 0 1 1.27-1.564m60.158 1.501a1.425 1.425 0 0 1-.6 1.923 379 379 0 0 0-9.844 5.345 1.424 1.424 0 1 1-1.397-2.482 380 380 0 0 1 9.918-5.386 1.425 1.425 0 0 1 1.923.6m-19.632 10.961a1.425 1.425 0 0 1-.477 1.957 288 288 0 0 0-9.449 5.99 1.425 1.425 0 0 1-1.572-2.375 291 291 0 0 1 9.541-6.049 1.424 1.424 0 0 1 1.957.477m-44.245 4.533c.638.46.783 1.35.323 1.988a28.7 28.7 0 0 1-3.898 4.384c-.36.331-.844.441-1.287.338.028.454-.162.914-.549 1.214l-.134.103 1.092 3.582a1.425 1.425 0 0 1-2.724.831l-1.687-5.529.84-.594q.439-.312.868-.645a1.42 1.42 0 0 1 1.196-.261 1.42 1.42 0 0 1 .459-1.136q.398-.366.783-.75a26 26 0 0 0 2.73-3.201 1.424 1.424 0 0 1 1.988-.324m25.449 7.798a1.423 1.423 0 0 1-.312 1.989 208 208 0 0 0-8.847 6.813 1.424 1.424 0 1 1-1.8-2.207 210 210 0 0 1 8.97-6.907 1.424 1.424 0 0 1 1.989.312m-28.906 11.956a1.425 1.425 0 0 1 1.778.947l1.386 4.546c.174.571.62.845 1.068.908h.19a1.3 1.3 0 0 0 .255-.024q.12-.023.239-.026.085-.085.19-.157.1-.07.21-.178a147 147 0 0 1 4.076-3.939 1.424 1.424 0 1 1 1.941 2.085 145 145 0 0 0-4 3.865l-.004.004a5 5 0 0 1-.359.323l.912.909h-3.445c-1.37 0-3.329-.745-3.997-2.94l-1.387-4.545a1.425 1.425 0 0 1 .947-1.778" clip-rule="evenodd"/><path fill="#EFFAFF" fill-rule="evenodd" d="m158.254 34.222.003.02.01.067.04.263a245.117 245.117 0 0 0 .815 4.857 1.425 1.425 0 0 1-2.805.499 241 241 0 0 1-.825-4.922l-.041-.272-.011-.07-.004-.025 1.409-.209-1.409.21a1.425 1.425 0 0 1 2.818-.418m1.211 14.498a1.425 1.425 0 0 1 1.691 1.096c.679 3.183 1.478 6.679 2.397 10.317a1.424 1.424 0 1 1-2.762.697 292 292 0 0 1-2.421-10.42 1.424 1.424 0 0 1 1.095-1.69m5.129 20.659a1.424 1.424 0 0 1 1.776.95c1.027 3.39 2.15 6.764 3.369 9.998a1.423 1.423 0 1 1-2.665 1.005 163 163 0 0 1-3.43-10.177 1.425 1.425 0 0 1 .95-1.776m7.407 19.94a1.424 1.424 0 0 1 1.914.625 59 59 0 0 0 2.537 4.521 1.424 1.424 0 1 1-2.414 1.511 61 61 0 0 1-2.663-4.743 1.424 1.424 0 0 1 .626-1.914" clip-rule="evenodd"/><path fill="#2682DB" d="M100.419 83.904c0 4.248-3.427 7.691-7.656 7.691s-7.656-3.443-7.656-7.691 3.428-7.692 7.656-7.692c4.229 0 7.656 3.444 7.656 7.692M136.246 97.513c0 4.248-3.428 7.691-7.657 7.691-4.228 0-7.656-3.443-7.656-7.691s3.428-7.692 7.656-7.692c4.229 0 7.657 3.444 7.657 7.692"/><path fill="#2682DB" fill-rule="evenodd" d="M122.182 61.514a2.775 2.775 0 0 1 1.233 3.725c-4.754 9.462-14.721 33.109-16.828 52.155a2.775 2.775 0 0 1-5.516-.61c2.216-20.033 12.536-44.384 17.385-54.037a2.776 2.776 0 0 1 3.726-1.233" clip-rule="evenodd"/><path fill="#FFC7B6" d="M102.289 120.234c-6.495 15.961 7.518 64.052 17.374 85.37 25.592 6.472 36.773-11.056 37.126-19.897-3.592-3.216-11.95-11.051-16.645-16.662-4.694-5.611-14.902-35.317-19.419-49.468-3.44-6.432-11.942-15.305-18.436.657"/></g><defs><clipPath id="7p_a"><path fill="#fff" d="M0 0h240v240H0z"/></clipPath><clipPath id="7q_b"><rect width="200" height="200" x="20" y="20" fill="#fff" rx="100"/></clipPath></defs></svg>