<svg xmlns="http://www.w3.org/2000/svg" width="32" height="32" fill="none"><path fill="#000" d="M13.124 2a.998.998 0 0 0-.996 1c0 .552.446 1 .996 1h5.752c.55 0 .996-.448.996-1s-.446-1-.996-1h-5.752ZM16 9.222c.55 0 .996.448.996 1v6.92l2.709 4.081c.305.46.181 1.08-.276 1.387a.993.993 0 0 1-1.381-.277l-3.043-4.586v-7.525c0-.552.445-1 .995-1Z"/><path fill="#000" fill-rule="evenodd" d="M7.893 7.887A12.418 12.418 0 0 1 16 4.89c3.093 0 5.924 1.129 8.107 2.998l1.256-1.26a.992.992 0 0 1 1.407 0c.39.39.39 1.023 0 1.413l-1.255 1.262a12.539 12.539 0 0 1 2.985 8.142C28.5 24.38 22.904 30 16 30S3.5 24.379 3.5 17.444c0-3.107 1.124-5.95 2.985-8.143L5.23 8.041a1.003 1.003 0 0 1 0-1.415.992.992 0 0 1 1.408 0l1.255 1.261ZM16 6.89c-5.804 0-10.509 4.726-10.509 10.555C5.491 23.274 10.196 28 16 28s10.509-4.726 10.509-10.556c0-5.83-4.705-10.555-10.509-10.555Z" clip-rule="evenodd"/></svg>