<svg xmlns="http://www.w3.org/2000/svg" width="16" height="16" fill="none" class="persona-icon" viewBox="0 0 16 16"><path fill="currentColor" d="M7.502 2a2.945 2.945 0 1 0 0 5.89 2.945 2.945 0 0 0 0-5.89M6.202 8.667a3.95 3.95 0 0 0-3.001 1.384 2.22 2.22 0 0 0-.533 1.443v.173A2.333 2.333 0 0 0 5.002 14h5a2.333 2.333 0 0 0 2.333-2.333v-.173c0-.529-.189-1.04-.532-1.443a3.95 3.95 0 0 0-3.001-1.384zM12.28 8.611a.611.611 0 1 1 1.222 0 .611.611 0 0 1-1.222 0M12.392 6.534a.5.5 0 0 0 1 0v-2a.5.5 0 1 0-1 0z"/></svg>