<svg xmlns="http://www.w3.org/2000/svg" width="16" height="16" fill="none" class="persona-icon" viewBox="0 0 16 16"><path fill="currentColor" d="M7.502 2a2.944 2.944 0 1 1 0 5.89 2.944 2.944 0 0 1 0-5.89M6.202 8.667h2.6c1.154 0 2.251.505 3 1.384.344.402.533.914.533 1.443v.173A2.333 2.333 0 0 1 10.002 14h-5a2.333 2.333 0 0 1-2.333-2.333v-.173c0-.529.188-1.04.532-1.443a3.95 3.95 0 0 1 3.001-1.384M12.28 8.611a.611.611 0 1 1 1.222 0 .611.611 0 0 1-1.222 0M12.392 6.534v-2a.5.5 0 1 1 1 0v2a.5.5 0 0 1-1 0"/></svg>