<svg xmlns="http://www.w3.org/2000/svg" width="20" height="20" fill="none" class="persona-icon" viewBox="0 0 20 20"><path fill="currentColor" d="M9.42 2.958a3.477 3.477 0 1 0 0 6.954 3.477 3.477 0 0 0 0-6.954M7.903 10.736c-1.36 0-2.65.595-3.533 1.63a2.64 2.64 0 0 0-.631 1.71v.202a2.764 2.764 0 0 0 2.764 2.764h5.833a2.764 2.764 0 0 0 2.764-2.764v-.202c0-.627-.224-1.234-.631-1.71a4.65 4.65 0 0 0-3.533-1.63zM14.994 10.713a.713.713 0 1 1 1.425 0 .713.713 0 0 1-1.426 0M15.082 8.289a.625.625 0 0 0 1.25 0V5.956a.625.625 0 1 0-1.25 0z"/></svg>