<svg xmlns="http://www.w3.org/2000/svg" width="16" height="16" fill="none" class="persona-icon" viewBox="0 0 16 16"><path fill="currentColor" fill-rule="evenodd" d="M13.5 8a5.5 5.5 0 1 1-11 0 5.5 5.5 0 0 1 11 0M7.074 5.874c.228-.134.563-.212.926-.212.364 0 .698.078.926.211.216.126.312.28.312.477 0 .37-.15.61-.362.77-.226.171-.545.264-.876.264a.413.413 0 0 0-.412.412v.754a.413.413 0 0 0 .824 0v-.375c.34-.055.677-.182.961-.396.413-.311.69-.794.69-1.429 0-.558-.317-.953-.72-1.189-.391-.228-.882-.323-1.343-.323-.461 0-.952.095-1.343.323-.403.236-.72.632-.72 1.19a.413.413 0 0 0 .825 0c0-.197.097-.352.312-.478M8 11.3a.55.55 0 1 0 0-1.1.55.55 0 0 0 0 1.1" clip-rule="evenodd"/></svg>