<svg xmlns="http://www.w3.org/2000/svg" width="16" height="16" fill="none" class="persona-icon" viewBox="0 0 16 16"><path fill="currentColor" fill-rule="evenodd" d="M8 1a7 7 0 1 1 0 14A7 7 0 0 1 8 1m0 3.596c.937 0 1.842.711 1.842 1.821 0 .387-.3.657-.907.98q-.109.06-.234.122c-.208.106-.435.222-.61.337-.227.148-.591.432-.591.904v.78a.5.5 0 1 0 1 0v-.738a.8.8 0 0 1 .14-.11c.128-.084.275-.159.455-.25q.14-.072.311-.162c.564-.3 1.436-.822 1.436-1.863 0-1.744-1.438-2.82-2.842-2.82-1.4 0-2.843 1.043-2.843 2.82a.5.5 0 0 0 1 0c0-1.135.9-1.82 1.843-1.82m0 8.089a.78.78 0 1 0 0-1.562.78.78 0 0 0 0 1.562" clip-rule="evenodd"/></svg>