<svg xmlns="http://www.w3.org/2000/svg" width="20" height="20" fill="none" class="persona-icon" viewBox="0 0 20 20"><path fill="currentColor" d="M10.602 10.96"/><path fill="currentColor" fill-rule="evenodd" d="M10 1.975a8.025 8.025 0 1 1 0 16.05 8.025 8.025 0 0 1 0-16.05m0 4.206c1.042 0 2.042.789 2.042 2.017 0 .404-.309.697-1.003 1.067q-.122.064-.262.136c-.238.122-.501.256-.702.388-.26.17-.7.507-.7 1.076v.889a.625.625 0 1 0 1.25 0v-.819a1 1 0 0 1 .134-.1c.144-.094.308-.178.51-.282q.16-.08.359-.185c.64-.341 1.664-.949 1.664-2.17 0-2.02-1.667-3.267-3.292-3.267-1.62 0-3.291 1.208-3.291 3.267a.625.625 0 1 0 1.25 0c0-1.256.994-2.017 2.041-2.017m0 9.152a.889.889 0 1 0 0-1.777.889.889 0 0 0 0 1.777" clip-rule="evenodd"/></svg>