<svg xmlns="http://www.w3.org/2000/svg" width="32" height="32" fill="none" class="persona-icon" viewBox="0 0 32 32"><path fill="currentColor" fill-rule="evenodd" d="M16 2C8.268 2 2 8.268 2 16s6.268 14 14 14 14-6.268 14-14S23.732 2 16 2m0 7.192c-1.884 0-3.685 1.373-3.685 3.643a1 1 0 1 1-2 0c0-3.554 2.885-5.643 5.685-5.643 2.81 0 5.685 2.155 5.685 5.643 0 2.08-1.744 3.124-2.872 3.725a38 38 0 0 1-.622.323c-.36.183-.655.334-.911.502a1.6 1.6 0 0 0-.28.218v1.478a1 1 0 1 1-2 0v-1.562c0-.944.73-1.51 1.185-1.808.348-.228.802-.46 1.218-.673.165-.084.325-.166.469-.243 1.215-.647 1.813-1.187 1.813-1.96 0-2.22-1.81-3.643-3.685-3.643m0 16.177a1.561 1.561 0 1 1 0-3.123 1.561 1.561 0 0 1 0 3.123" clip-rule="evenodd"/></svg>