<svg xmlns="http://www.w3.org/2000/svg" width="20" height="20" fill="none" class="persona-icon" viewBox="0 0 20 20"><path fill="currentColor" fill-rule="evenodd" d="M2.575 8.8a6.225 6.225 0 1 1 11.047 3.938l3.62 3.62a.625.625 0 1 1-.884.884l-3.62-3.62A6.225 6.225 0 0 1 2.575 8.8M8.8 3.825a4.975 4.975 0 1 0 0 9.95 4.975 4.975 0 0 0 0-9.95m0 1.95c.345 0 .625.28.625.625v1.775H11.2a.625.625 0 1 1 0 1.25H9.425V11.2a.625.625 0 1 1-1.25 0V9.425H6.4a.625.625 0 1 1 0-1.25h1.775V6.4c0-.345.28-.625.625-.625" clip-rule="evenodd"/></svg>