<svg xmlns="http://www.w3.org/2000/svg" width="24" height="24" fill="none"><path fill="#000" fill-rule="evenodd" d="M4.04 10.46a6.419 6.419 0 1 0 12.838 0 6.419 6.419 0 0 0-12.837 0Zm6.42 7.959a7.96 7.96 0 1 1 0-15.919 7.96 7.96 0 0 1 0 15.919Z" clip-rule="evenodd"/><path fill="#000" fill-rule="evenodd" d="M15.05 15.05c.3-.3.788-.3 1.09 0l5.134 5.135a.77.77 0 0 1-1.089 1.09l-5.135-5.136a.77.77 0 0 1 0-1.09ZM10.46 6.351c.453 0 .821.368.821.822v2.465h2.465a.822.822 0 1 1 0 1.643H11.28v2.465a.822.822 0 1 1-1.643 0V11.28H7.173a.822.822 0 0 1 0-1.643h2.465V7.173c0-.454.368-.822.822-.822Z" clip-rule="evenodd"/></svg>