<svg xmlns="http://www.w3.org/2000/svg" width="24" height="24" fill="none" class="persona-icon" viewBox="0 0 24 24"><path fill="currentColor" fill-rule="evenodd" d="M2.75 10.5a7.75 7.75 0 1 1 13.735 4.924l4.545 4.546a.75.75 0 1 1-1.06 1.06l-4.546-4.545A7.75 7.75 0 0 1 2.75 10.5m7.75-6.25a6.25 6.25 0 1 0 0 12.5 6.25 6.25 0 0 0 0-12.5m0 2.5a.75.75 0 0 1 .75.75v2.25h2.25a.75.75 0 0 1 0 1.5h-2.25v2.25a.75.75 0 0 1-1.5 0v-2.25H7.5a.75.75 0 0 1 0-1.5h2.25V7.5a.75.75 0 0 1 .75-.75" clip-rule="evenodd"/></svg>