<svg xmlns="http://www.w3.org/2000/svg" width="32" height="32" fill="none" class="persona-icon" viewBox="0 0 32 32"><path fill="currentColor" fill-rule="evenodd" d="M3.1 13.9c0-5.965 4.835-10.8 10.8-10.8s10.8 4.835 10.8 10.8c0 2.622-.934 5.026-2.489 6.897l6.396 6.396a1 1 0 0 1-1.414 1.414l-6.396-6.396a10.76 10.76 0 0 1-6.897 2.49c-5.965 0-10.8-4.836-10.8-10.8m10.8-8.8a8.8 8.8 0 1 0 0 17.6 8.8 8.8 0 0 0 0-17.6m0 3.6a1 1 0 0 1 1 1v3.2h3.2a1 1 0 1 1 0 2h-3.2v3.2a1 1 0 1 1-2 0v-3.2H9.7a1 1 0 1 1 0-2h3.2V9.7a1 1 0 0 1 1-1" clip-rule="evenodd"/></svg>