<svg xmlns="http://www.w3.org/2000/svg" width="16" height="16" fill="none" class="persona-icon" viewBox="0 0 16 16"><path fill="currentColor" fill-rule="evenodd" d="M2 4.839v6.348c0 1.185.961 2.146 2.147 2.146H8a.5.5 0 0 0 0-1H4.147A1.147 1.147 0 0 1 3 11.187V5.82l4.23 3.103.006.004a1.3 1.3 0 0 0 1.515 0L13 5.819V8a.5.5 0 1 0 1 0V4.813a2.147 2.147 0 0 0-2.147-2.146H4.147A2.147 2.147 0 0 0 2 4.813v.026m10.98-.244-4.812 3.52a.3.3 0 0 1-.349 0l-4.798-3.52a1.15 1.15 0 0 1 1.126-.928h7.706c.559 0 1.024.4 1.126.928m-1.462 5.031a.5.5 0 0 1 .664 0l1.65 1.467a.5.5 0 1 1-.664.748l-.818-.727v2.12a.5.5 0 1 1-1 0v-2.12l-.818.726a.5.5 0 0 1-.664-.747z" clip-rule="evenodd"/></svg>