<svg xmlns="http://www.w3.org/2000/svg" width="16" height="16" fill="none" class="persona-icon" viewBox="0 0 16 16"><path fill="currentColor" fill-rule="evenodd" d="M3 11.116V5.783L7.263 8.88l.004.003a1.26 1.26 0 0 0 1.484.005l.007-.005L13 5.679v2.289c0 .274.224.497.5.497s.5-.223.5-.497V5.152a2.49 2.49 0 0 0-2.5-2.485H4.15C2.963 2.667 2 3.624 2 4.804v6.312c0 1.173.956 2.153 2.15 2.153H8c.276 0 .5-.222.5-.497a.5.5 0 0 0-.5-.497H4.15A1.16 1.16 0 0 1 3 11.115M4.15 3.66h7.35a1.5 1.5 0 0 1 1.365.872L8.167 8.08a.26.26 0 0 1-.316-.004L3.024 4.569A1.15 1.15 0 0 1 4.15 3.66" clip-rule="evenodd"/><path fill="currentColor" d="M9.868 11.042a.495.495 0 0 0-.042.702c.184.205.5.223.706.041l.818-.722v2.107c0 .274.224.497.5.497s.5-.223.5-.497v-2.107l.818.722a.5.5 0 0 0 .706-.041.495.495 0 0 0-.042-.702l-1.65-1.458a.5.5 0 0 0-.664 0z"/></svg>