<svg xmlns="http://www.w3.org/2000/svg" width="20" height="20" fill="none" class="persona-icon" viewBox="0 0 20 20"><path fill="currentColor" fill-rule="evenodd" d="M2.975 13.685V6.289A2.545 2.545 0 0 1 5.52 3.751h8.553a2.95 2.95 0 0 1 2.952 2.952V10a.625.625 0 1 1-1.25 0V7.408l-4.868 3.699-.009.006a1.5 1.5 0 0 1-1.777-.006l-.004-.003-4.892-3.577v6.158c0 .723.588 1.314 1.295 1.314H10a.625.625 0 1 1 0 1.25H5.52c-1.414 0-2.545-1.167-2.545-2.564M5.52 5c-.614 0-1.129.428-1.262 1.002l5.594 4.09q.159.112.318.004l5.437-4.132a1.7 1.7 0 0 0-1.534-.964z" clip-rule="evenodd"/><path fill="currentColor" d="M12.145 13.567a.625.625 0 1 0 .83.934l.88-.782v2.37a.625.625 0 0 0 1.25 0v-2.37l.88.782a.625.625 0 1 0 .83-.934l-1.92-1.707a.625.625 0 0 0-.83 0z"/></svg>