<svg xmlns="http://www.w3.org/2000/svg" width="20" height="20" fill="none" class="persona-icon" viewBox="0 0 20 20"><path fill="currentColor" fill-rule="evenodd" d="M4.2 13.751V7.502l4.932 3.63.004.004a1.47 1.47 0 0 0 1.748.005l.008-.005L15.8 7.38v2.66c0 .334.268.605.6.605s.6-.27.6-.604v-3.32a2.937 2.937 0 0 0-2.927-2.946H5.52A2.53 2.53 0 0 0 3 6.313v7.438c0 1.393 1.12 2.556 2.52 2.556H10c.331 0 .6-.27.6-.604a.6.6 0 0 0-.6-.604H5.52c-.721 0-1.32-.606-1.32-1.348m1.32-8.767h8.553c.693 0 1.29.41 1.566 1.004l-5.455 4.172q-.173.119-.347-.005L4.23 6.028a1.32 1.32 0 0 1 1.29-1.044" clip-rule="evenodd"/><path fill="currentColor" d="M12.161 13.65a.607.607 0 0 0-.05.854c.22.249.6.271.848.05l.921-.825v2.443c0 .333.269.604.6.604s.6-.27.6-.604v-2.443l.921.825c.248.221.627.199.847-.05a.607.607 0 0 0-.05-.853l-1.92-1.718a.597.597 0 0 0-.797 0z"/></svg>