<svg xmlns="http://www.w3.org/2000/svg" width="24" height="24" fill="none"><path fill="currentColor" d="M4.837 3.538a2.305 2.305 0 0 0-2.302 2.308v12.308a2.305 2.305 0 0 0 2.302 2.308h14.326a2.305 2.305 0 0 0 2.302-2.308v-3.846a.768.768 0 1 1 1.535 0v3.846A3.842 3.842 0 0 1 19.163 22H4.837A3.842 3.842 0 0 1 1 18.154V5.846A3.842 3.842 0 0 1 4.837 2h9.21a.768.768 0 0 1 0 1.538h-9.21Z"/><path fill="currentColor" d="M15.52 6.015a.77.77 0 0 1 .063-1.086l3.07-2.735a.766.766 0 0 1 1.02 0l3.07 2.735a.77.77 0 0 1 .063 1.086.766.766 0 0 1-1.083.064L19.93 4.482v6.492a.768.768 0 1 1-1.535 0V4.482L16.603 6.08a.766.766 0 0 1-1.084-.064ZM5.237 7.45a.766.766 0 0 1 1.07-.178l5.318 3.82a.64.64 0 0 0 .79.003l1.321-.936a.766.766 0 0 1 1.07.184.77.77 0 0 1-.183 1.072l-1.32.936c-.791.561-1.785.557-2.572-.008l-5.318-3.82a.77.77 0 0 1-.176-1.074Z"/></svg>