<svg xmlns="http://www.w3.org/2000/svg" width="16" height="16" fill="none" class="persona-icon" viewBox="0 0 16 16"><path fill="currentColor" fill-rule="evenodd" d="M2.688 6.671A1.19 1.19 0 0 1 2 5.594V3.53c0-.656.532-1.187 1.188-1.187h9.625c.655 0 1.187.531 1.187 1.187v2.063c0 .477-.281.888-.687 1.077v3.434L12.187 8.98a.5.5 0 0 0-.707 0l-1.667 1.666a.5.5 0 1 0 .707.707l.813-.813v2.616a.5.5 0 1 0 1 0V10.54l.813.814q.076.073.166.11v1.005c0 .656-.531 1.187-1.187 1.187h-8.25a1.187 1.187 0 0 1-1.187-1.187zm.5-.89h9.625A.19.19 0 0 0 13 5.594V3.53a.187.187 0 0 0-.187-.187H3.188A.19.19 0 0 0 3 3.53v2.063c0 .103.084.187.188.187m3.437 2.063a.5.5 0 1 0 0 1h2.75a.5.5 0 0 0 0-1z" clip-rule="evenodd"/></svg>