<svg xmlns="http://www.w3.org/2000/svg" width="32" height="32" fill="none"><path fill="#000" fill-rule="evenodd" d="M29.446 16.059c-.863-.863-1.83-1.158-2.749-1.027-.858.123-1.54.597-1.97 1.027l-7.932 7.931a1 1 0 0 0-.293.708v3.304a1 1 0 0 0 1 1h3.305a1 1 0 0 0 .707-.293l7.932-7.931c.43-.43.904-1.113 1.027-1.97.13-.918-.164-1.886-1.027-2.75Zm-3.305 1.414c.232-.232.54-.418.84-.461.238-.034.592.002 1.05.46.46.46.496.814.462 1.053-.043.298-.23.607-.461.838l-.877.878-1.891-1.891.877-.877Zm-2.291 2.291-5.348 5.348v1.89h1.891l5.347-5.347-1.89-1.89Z" clip-rule="evenodd"/><path fill="#000" fill-rule="evenodd" d="M7.535 8.002c0-1.657 1.364-3 3.048-3h5.758v4.334c0 2.025 1.668 3.666 3.726 3.666h5.419c.405 0 .77-.236.932-.601a.988.988 0 0 0-.189-1.081l-6.784-7.153a3.754 3.754 0 0 0-2.724-1.165h-6.138c-2.806 0-5.08 2.239-5.08 5v16c0 2.762 2.274 5 5.08 5h2.71c.56 0 1.016-.447 1.016-1 0-.552-.455-1-1.016-1h-2.71c-1.684 0-3.048-1.343-3.048-3v-16Zm15.498 3h-2.966c-.936 0-1.694-.746-1.694-1.666v-2.92l4.66 4.586Z" clip-rule="evenodd"/></svg>