<svg xmlns="http://www.w3.org/2000/svg" width="20" height="20" fill="none" class="persona-icon" viewBox="0 0 20 20"><path fill="currentColor" fill-rule="evenodd" d="M7.6 3a1.4 1.4 0 0 0-1.4 1.4v1.839c0 .497.169.997.52 1.388l.07.077C7.377 8.352 7.8 8.852 7.8 9.6v1.535A1.4 1.4 0 0 0 7 12.4v1h-.6A2.4 2.4 0 0 0 4 15.8 1.2 1.2 0 0 0 5.2 17h9.6a1.2 1.2 0 0 0 1.2-1.2 2.4 2.4 0 0 0-2.4-2.4H13v-1a1.4 1.4 0 0 0-.8-1.265V9.6c0-.748.424-1.248 1.009-1.896l.07-.077c.351-.39.52-.89.52-1.388V4.4A1.4 1.4 0 0 0 12.4 3zm6 11.6a1.2 1.2 0 0 1 1.2 1.2H5.2a1.2 1.2 0 0 1 1.2-1.2zm-2-2.4c.11 0 .2.09.2.2v1H8.2v-1c0-.11.09-.2.2-.2z" clip-rule="evenodd"/></svg>