<svg xmlns="http://www.w3.org/2000/svg" width="24" height="24" fill="none" class="persona-icon" viewBox="0 0 24 24"><path fill="currentColor" fill-rule="evenodd" d="M8.906 3c-.984 0-1.781.797-1.781 1.781v2.37c0 .637.216 1.276.665 1.774l.09.1c.754.834 1.308 1.484 1.308 2.46v1.993c-.61.283-1.032.9-1.032 1.616v1.312H7.32a3.07 3.07 0 0 0-3.07 3.07c0 .842.682 1.524 1.523 1.524h12.454c.84 0 1.523-.682 1.523-1.523a3.07 3.07 0 0 0-3.07-3.07h-.836v-1.313c0-.716-.422-1.333-1.031-1.616v-1.994c0-.975.553-1.625 1.306-2.46l.09-.1a2.64 2.64 0 0 0 .666-1.772v-2.37c0-.985-.797-1.782-1.781-1.782zM7.32 17.906h9.36c.867 0 1.57.703 1.57 1.57v.007l-.002.002-.005.008-.008.006-.008.001H5.773l-.008-.002-.008-.005-.005-.008-.002-.008c0-.868.703-1.57 1.57-1.57m6.743-3.093c.155 0 .28.125.28.28v1.313H9.657v-1.312c0-.156.126-.281.281-.281z" clip-rule="evenodd"/></svg>