<svg xmlns="http://www.w3.org/2000/svg" width="24" height="24" fill="none" class="persona-icon" viewBox="0 0 24 24"><path fill="currentColor" d="M5.5 5.233v3.44c1.249.72 2.18 1.028 3.073 1.028.897 0 1.856-.31 3.16-1.036V5.233c0-.653-.53-1.183-1.183-1.183a.75.75 0 0 1 0-1.5 2.683 2.683 0 0 1 2.683 2.683V9.1a4.62 4.62 0 0 1-3.866 4.556v2.694a3.6 3.6 0 0 0 7.2.008v-.814a2.685 2.685 0 1 1 1.5 0v.806a5.1 5.1 0 1 1-10.2 0v-2.694A4.62 4.62 0 0 1 4 9.1V5.233A2.683 2.683 0 0 1 6.683 2.55a.75.75 0 1 1 0 1.5c-.653 0-1.183.53-1.183 1.183"/></svg>