<svg xmlns="http://www.w3.org/2000/svg" width="32" height="32" fill="none" class="persona-icon" viewBox="0 0 32 32"><path fill="currentColor" d="M8 7.6a1.4 1.4 0 0 1 1.4-1.4 1 1 0 1 0 0-2A3.4 3.4 0 0 0 6 7.6v4.8a5.8 5.8 0 0 0 4.8 5.713V21.4a6.399 6.399 0 0 0 12.8.011v-.96a3.402 3.402 0 0 0-1-6.65 3.4 3.4 0 0 0-1 6.65v.95a4.4 4.4 0 0 1-8.8 0v-3.288a5.8 5.8 0 0 0 4.8-5.713V7.6a3.4 3.4 0 0 0-3.4-3.4 1 1 0 1 0 0 2 1.4 1.4 0 0 1 1.4 1.4v4.22c-1.596.884-2.766 1.258-3.855 1.257-1.082 0-2.217-.37-3.745-1.247z"/></svg>