<svg xmlns="http://www.w3.org/2000/svg" width="16" height="16" fill="none" class="persona-icon" viewBox="0 0 16 16"><path fill="currentColor" fill-rule="evenodd" d="M3.833 3A.833.833 0 0 0 3 3.833v.695a.5.5 0 0 1-1 0v-.695C2 2.821 2.82 2 3.833 2h.695a.5.5 0 0 1 0 1zM2.5 10.972a.5.5 0 0 1 .5.5v.695c0 .46.373.833.833.833h.695a.5.5 0 0 1 0 1h-.695A1.833 1.833 0 0 1 2 12.167v-.695a.5.5 0 0 1 .5-.5M10.972 2.5a.5.5 0 0 1 .5-.5h.695C13.179 2 14 2.82 14 3.833v.695a.5.5 0 0 1-1 0v-.695A.833.833 0 0 0 12.167 3h-.695a.5.5 0 0 1-.5-.5m2.528 8.472a.5.5 0 0 1 .5.5v.695C14 13.179 13.18 14 12.167 14h-.695a.5.5 0 0 1 0-1h.695c.46 0 .833-.373.833-.833v-.695a.5.5 0 0 1 .5-.5M8 3.667c.2 0 .38.119.46.303l3 7a.5.5 0 0 1-.92.394L9.6 9.167H6.4l-.941 2.197a.5.5 0 0 1-.92-.394l3-7A.5.5 0 0 1 8 3.667m-1.17 4.5h2.34L8 5.436z" clip-rule="evenodd"/></svg>