<svg xmlns="http://www.w3.org/2000/svg" width="16" height="16" fill="none" class="persona-icon" viewBox="0 0 16 16"><path fill="currentColor" fill-rule="evenodd" d="M5.259 10.8a.55.55 0 0 0 .325.089q.217 0 .334-.104.117-.105.225-.337l.41-.93h2.87l.417.93q.1.225.226.337.133.104.367.104.191 0 .309-.08a.36.36 0 0 0 .141-.24.55.55 0 0 0-.066-.337L8.605 5.544a.73.73 0 0 0-.267-.329.6.6 0 0 0-.342-.104.64.64 0 0 0-.359.104.75.75 0 0 0-.258.329l-2.204 4.688a.6.6 0 0 0-.058.336.36.36 0 0 0 .142.233m1.664-2.099L7.98 6.29h.017L9.06 8.701z" clip-rule="evenodd"/><path fill="currentColor" fill-rule="evenodd" d="M1 13.056c0-.902.613-1.66 1.445-1.88V4.824a1.945 1.945 0 1 1 2.379-2.38h6.352a1.945 1.945 0 1 1 2.38 2.38v6.352a1.945 1.945 0 1 1-2.38 2.38H4.824a1.945 1.945 0 0 1-3.824-.5M2 2.944a.944.944 0 1 0 1.889 0 .944.944 0 0 0-1.889 0m0 10.112a.944.944 0 1 0 1.889 0 .944.944 0 0 0-1.889 0m1.445-1.88c.672.178 1.2.708 1.379 1.38h6.352a1.95 1.95 0 0 1 1.38-1.38V4.824a1.95 1.95 0 0 1-1.38-1.38H4.824a1.95 1.95 0 0 1-1.38 1.38zM13.055 2a.944.944 0 1 0 0 1.889.944.944 0 0 0 0-1.889m-.944 11.056a.944.944 0 1 0 1.889 0 .944.944 0 0 0-1.889 0" clip-rule="evenodd"/></svg>