<svg xmlns="http://www.w3.org/2000/svg" width="20" height="20" fill="none" class="persona-icon" viewBox="0 0 20 20"><path fill="currentColor" fill-rule="evenodd" d="M6.876 13.192a.63.63 0 0 0 .371.1c.165 0 .292-.04.38-.119.09-.079.175-.207.257-.383l.468-1.06h3.27l.475 1.06c.076.17.162.298.257.383.102.08.241.12.419.12a.61.61 0 0 0 .351-.092.413.413 0 0 0 .162-.274.63.63 0 0 0-.076-.384l-2.52-5.342a.83.83 0 0 0-.305-.374.668.668 0 0 0-.39-.12.728.728 0 0 0-.408.12c-.114.073-.213.197-.295.374L6.78 12.543a.667.667 0 0 0-.067.384c.02.11.073.198.162.265Zm1.897-2.393L9.977 8.05h.018l1.213 2.75H8.773Z" clip-rule="evenodd"/><path fill="currentColor" fill-rule="evenodd" d="M2 15.761c0-1.031.697-1.9 1.647-2.16V6.399a2.24 2.24 0 1 1 2.751-2.752h7.204a2.24 2.24 0 1 1 2.752 2.752v7.204a2.24 2.24 0 1 1-2.752 2.752H6.398A2.24 2.24 0 0 1 2 15.761ZM3.185 4.24a1.054 1.054 0 1 0 2.107 0 1.054 1.054 0 0 0-2.107 0Zm0 11.522a1.054 1.054 0 1 0 2.107 0 1.054 1.054 0 0 0-2.107 0Zm1.647-2.159c.76.208 1.358.807 1.566 1.567h7.204a2.243 2.243 0 0 1 1.567-1.567V6.398a2.243 2.243 0 0 1-1.567-1.567H6.398a2.243 2.243 0 0 1-1.566 1.567v7.204Zm10.93-10.417a1.053 1.053 0 1 0 0 2.107 1.053 1.053 0 0 0 0-2.107Zm-1.054 12.576a1.053 1.053 0 1 0 2.107 0 1.053 1.053 0 0 0-2.107 0Z" clip-rule="evenodd"/></svg>