<svg xmlns="http://www.w3.org/2000/svg" width="20" height="20" fill="none"><path fill="#000" fill-rule="evenodd" d="M6.876 13.192a.63.63 0 0 0 .371.1c.165 0 .292-.04.38-.118.09-.08.175-.207.257-.384l.468-1.06h3.27l.475 1.06c.076.17.162.299.257.384.102.079.241.118.419.118a.61.61 0 0 0 .351-.09.413.413 0 0 0 .162-.275.63.63 0 0 0-.076-.383L10.69 7.2a.83.83 0 0 0-.305-.374.668.668 0 0 0-.39-.119.728.728 0 0 0-.408.119c-.115.073-.213.198-.295.374L6.78 12.544a.666.666 0 0 0-.067.383c.02.11.073.198.162.265Zm1.897-2.393L9.977 8.05h.019l1.212 2.75H8.773Z" clip-rule="evenodd"/><path fill="#000" fill-rule="evenodd" d="M2 15.762c0-1.032.697-1.9 1.647-2.16V6.398a2.24 2.24 0 1 1 2.751-2.752h7.204a2.24 2.24 0 1 1 2.752 2.752v7.204a2.24 2.24 0 1 1-2.752 2.752H6.398A2.24 2.24 0 0 1 2 15.762Zm1.185 0a1.053 1.053 0 1 1 2.107 0 1.053 1.053 0 0 1-2.107 0Zm1.647-2.16V6.398a2.243 2.243 0 0 0 1.566-1.566h7.204c.208.76.807 1.358 1.567 1.566v7.204c-.76.208-1.359.807-1.567 1.567H6.398a2.243 2.243 0 0 0-1.566-1.567ZM3.185 4.24a1.054 1.054 0 1 1 2.107 0 1.054 1.054 0 0 1-2.107 0Zm12.576-1.054a1.053 1.053 0 1 0 0 2.107 1.053 1.053 0 0 0 0-2.107Zm-1.053 12.577a1.053 1.053 0 1 1 2.107 0 1.053 1.053 0 0 1-2.107 0Z" clip-rule="evenodd"/></svg>