<svg xmlns="http://www.w3.org/2000/svg" width="24" height="24" fill="none" class="persona-icon" viewBox="0 0 24 24"><path fill="currentColor" fill-rule="evenodd" d="M5.75 4.5c-.69 0-1.25.56-1.25 1.25v1.042a.75.75 0 0 1-1.5 0V5.75A2.75 2.75 0 0 1 5.75 3h1.042a.75.75 0 0 1 0 1.5zm-2 11.958a.75.75 0 0 1 .75.75v1.042c0 .69.56 1.25 1.25 1.25h1.042a.75.75 0 0 1 0 1.5H5.75A2.75 2.75 0 0 1 3 18.25v-1.042a.75.75 0 0 1 .75-.75M16.458 3.75a.75.75 0 0 1 .75-.75h1.042A2.75 2.75 0 0 1 21 5.75v1.042a.75.75 0 0 1-1.5 0V5.75c0-.69-.56-1.25-1.25-1.25h-1.042a.75.75 0 0 1-.75-.75m3.792 12.708a.75.75 0 0 1 .75.75v1.042A2.75 2.75 0 0 1 18.25 21h-1.042a.75.75 0 0 1 0-1.5h1.042c.69 0 1.25-.56 1.25-1.25v-1.042a.75.75 0 0 1 .75-.75M12 5.5c.3 0 .571.179.69.455l4.5 10.5a.75.75 0 0 1-1.38.59l-1.412-3.295H9.602l-1.413 3.295a.75.75 0 0 1-1.378-.59l4.5-10.5A.75.75 0 0 1 12 5.5m-1.755 6.75h3.51L12 8.154z" clip-rule="evenodd"/></svg>