<svg xmlns="http://www.w3.org/2000/svg" width="32" height="32" fill="none" class="persona-icon" viewBox="0 0 32 32"><path fill="currentColor" d="M10.515 21.6c.167.117.384.175.651.175.29 0 .512-.069.668-.208.156-.139.306-.363.45-.673l.821-1.86h5.74l.833 1.86c.134.3.284.524.451.673.178.14.423.209.734.209.256 0 .462-.054.618-.16a.725.725 0 0 0 .284-.482c.033-.203-.011-.427-.134-.673l-4.423-9.376c-.144-.31-.322-.529-.534-.657a1.172 1.172 0 0 0-.684-.208c-.267 0-.507.07-.718.208-.2.128-.373.348-.517.657l-4.407 9.376c-.111.246-.15.47-.117.673a.715.715 0 0 0 .284.465Zm3.33-4.2 2.111-4.824h.034l2.127 4.824h-4.273Z"/><path fill="currentColor" d="M26.109 29.998a3.89 3.89 0 0 1-3.76-2.889H9.647a3.89 3.89 0 0 1-7.648-1 3.89 3.89 0 0 1 2.89-3.76V9.646a3.89 3.89 0 0 1 .999-7.648 3.89 3.89 0 0 1 3.759 2.889H22.35a3.89 3.89 0 0 1 7.648 1 3.89 3.89 0 0 1-2.888 3.759V22.35a3.89 3.89 0 0 1-1.001 7.648ZM3.998 5.887a1.889 1.889 0 1 0 3.778 0 1.889 1.889 0 0 0-3.778 0Zm0 20.222a1.889 1.889 0 1 0 3.777 0 1.889 1.889 0 0 0-3.777 0ZM25.11 9.646a3.896 3.896 0 0 1-2.76-2.76H9.646a3.896 3.896 0 0 1-2.759 2.76V22.35a3.896 3.896 0 0 1 2.759 2.759H22.35a3.896 3.896 0 0 1 2.76-2.76V9.646Zm.999-5.648a1.889 1.889 0 1 0 0 3.778 1.889 1.889 0 0 0 0-3.778Zm-1.89 22.11a1.889 1.889 0 1 0 3.779 0 1.889 1.889 0 0 0-3.778 0Z"/></svg>