<svg xmlns="http://www.w3.org/2000/svg" width="20" height="20" fill="none" class="persona-icon" viewBox="0 0 20 20"><path fill="currentColor" fill-rule="evenodd" d="M18 8.94c0 .331-.264.6-.59.6h-4.32a.595.595 0 0 1-.59-.6c0-.331.264-.6.59-.6h4.32c.326 0 .59.269.59.6M2.709 12.852a5.347 5.347 0 0 1 4.028-1.817h3.526c1.55 0 3.022.664 4.028 1.817.458.524.709 1.19.709 1.879v.197C15 16.625 13.594 18 11.86 18H5.14C3.407 18 2 16.625 2 14.928v-.197c0-.689.251-1.355.708-1.88m4.028-.601a4.092 4.092 0 0 0-3.083 1.39c-.265.304-.411.69-.411 1.09v.197c0 1.025.85 1.856 1.898 1.856h6.718c1.048 0 1.898-.83 1.898-1.856v-.197c0-.4-.146-.786-.41-1.09a4.092 4.092 0 0 0-3.084-1.39H6.737M4.519 5.893C4.52 3.743 6.302 2 8.5 2s3.98 1.743 3.98 3.893c0 2.15-1.782 3.894-3.98 3.894S4.52 8.043 4.52 5.893M8.5 3.216c-1.512 0-2.738 1.198-2.738 2.677S6.988 8.571 8.5 8.571s2.738-1.199 2.738-2.678c0-1.479-1.226-2.677-2.738-2.677" clip-rule="evenodd"/></svg>