<svg xmlns="http://www.w3.org/2000/svg" width="32" height="32" fill="none"><path fill="#000" fill-rule="evenodd" d="M3.298 3.293a1 1 0 0 1 1.414 0l1.07 1.068a1.004 1.004 0 0 1 .19.19l12.03 12.022 3.016-3.014a2.334 2.334 0 0 1 3.3 0L27 16.24V7.995a2.998 2.998 0 0 0-2.999-2.997H9.337a1 1 0 1 1 0-1.998h14.664A4.997 4.997 0 0 1 29 7.995V22.65a1 1 0 0 1-2 0v-3.583l-4.096-4.094a.334.334 0 0 0-.472 0l-3.016 3.014 8.087 8.082c.02.018.04.037.058.057l1.146 1.146a.999.999 0 1 1-1.414 1.412l-.533-.533c-.101.067-.211.134-.33.2-.727.399-1.785.745-3.155.626H8.005a4.997 4.997 0 0 1-5-4.995V8.419c-.05-1.225.27-2.183.633-2.857.063-.118.128-.226.191-.325l-.53-.531a.999.999 0 0 1 0-1.413Zm2.003 3.414a3.451 3.451 0 0 0-.296 1.288v.379c.003.063.008.128.014.194a.999.999 0 0 1-.014.284V21.57l4.016-4.013a2.334 2.334 0 0 1 3.299 0l2.114 2.112c.13.13.341.13.471 0l1.683-1.682L5.301 6.706ZM5.03 24.37a3 3 0 0 0 2.974 2.608H23.26c.032-.002.064-.002.096 0h.645c.049 0 .097.003.143.01.475-.04.856-.164 1.15-.302l-7.292-7.287-1.683 1.682c-.91.91-2.388.91-3.299 0l-2.114-2.112a.333.333 0 0 0-.471 0l-5.405 5.4Z" clip-rule="evenodd"/></svg>