<svg xmlns="http://www.w3.org/2000/svg" width="32" height="32" fill="none"><path fill="#000" fill-rule="evenodd" d="M9.778 21.72c0 .338.11.703.372 1.08.266.38.682.763 1.258 1.105.573.34 1.275.622 2.07.818.793.195 1.65.297 2.522.297.871 0 1.73-.102 2.523-.297.794-.196 1.496-.478 2.07-.818.575-.342.99-.724 1.256-1.106.263-.376.373-.74.373-1.079h2c0 .789-.263 1.54-.727 2.204-.46.66-1.108 1.223-1.874 1.678-.767.456-1.658.806-2.616 1.042-.959.236-1.98.356-3.005.356-1.026 0-2.046-.12-3.005-.356-.958-.235-1.849-.586-2.616-1.042-.766-.455-1.414-1.018-1.874-1.678-.464-.665-.727-1.415-.727-2.204h2Z" clip-rule="evenodd"/><path fill="#000" fill-rule="evenodd" d="M8.778 15.725c.552 0 1 .443 1 .99v5.005c0 .547-.448.99-1 .99-.553 0-1-.443-1-.99v-5.005c0-.547.447-.99 1-.99Zm14.444 0c.552 0 1 .443 1 .99v5.005c0 .547-.448.99-1 .99s-1-.443-1-.99v-5.005c0-.547.448-.99 1-.99Z" clip-rule="evenodd"/><path fill="#000" fill-rule="evenodd" d="M15.514 5.125c.302-.167.67-.167.972 0l13 7.15a.988.988 0 0 1 .514.865c0 .36-.197.691-.514.866l-13 7.15c-.302.166-.67.166-.972 0l-13-7.15A.988.988 0 0 1 2 13.14c0-.36.197-.69.514-.865l13-7.15ZM5.06 13.14 16 19.157l10.94-6.017L16 7.123 5.06 13.14Z" clip-rule="evenodd"/><path fill="#000" fill-rule="evenodd" d="M2 13.14c0-.546.448-.99 1-.99h13c.552 0 1 .443 1 .99 0 .547-.448.99-1 .99H4v6.16c0 .547-.448.99-1 .99s-1-.443-1-.99v-7.15Z" clip-rule="evenodd"/></svg>