<svg xmlns="http://www.w3.org/2000/svg" width="16" height="16" fill="none" class="persona-icon" viewBox="0 0 16 16"><path fill="currentColor" d="M6.583.417h2.834a.5.5 0 0 1 0 1H6.583a.5.5 0 1 1 0-1"/><path fill="currentColor" fill-rule="evenodd" d="m3.3 4.007-.612-.612a.5.5 0 1 1 .707-.707l.612.612A6.14 6.14 0 0 1 8 1.833c1.523 0 2.917.552 3.993 1.467l.612-.612a.5.5 0 1 1 .707.707l-.612.612a6.167 6.167 0 1 1-9.4 0M8 4.5a.5.5 0 0 0-.5.5V8.15L9 10.402a.5.5 0 1 0 .833-.554l-1.333-2V5a.5.5 0 0 0-.5-.5" clip-rule="evenodd"/></svg>