<svg xmlns="http://www.w3.org/2000/svg" width="24" height="24" fill="none" class="persona-icon" viewBox="0 0 24 24"><path fill="currentColor" d="M9.875.625a.75.75 0 0 0 0 1.5h4.25a.75.75 0 0 0 0-1.5z"/><path fill="currentColor" fill-rule="evenodd" d="M4.95 6.011a9.25 9.25 0 1 0 14.1 0l.918-.918a.75.75 0 1 0-1.06-1.06l-.919.917A9.2 9.2 0 0 0 12 2.75a9.2 9.2 0 0 0-5.989 2.2l-.918-.918a.75.75 0 1 0-1.06 1.06zM12 6.75a.75.75 0 0 1 .75.75v4.273l1.999 2.999a.75.75 0 1 1-1.248.832l-2.251-3.377V7.5a.75.75 0 0 1 .75-.75" clip-rule="evenodd"/></svg>