<svg xmlns="http://www.w3.org/2000/svg" width="32" height="32" fill="none" class="persona-icon" viewBox="0 0 32 32"><path fill="currentColor" d="M13.167.833h5.666a1 1 0 1 1 0 2h-5.666a1 1 0 0 1 0-2"/><path fill="currentColor" fill-rule="evenodd" d="M6.6 8.015 5.377 6.79A1 1 0 0 1 6.79 5.376l1.225 1.225A12.28 12.28 0 0 1 16 3.667c3.046 0 5.834 1.104 7.985 2.933l1.225-1.224a1 1 0 1 1 1.414 1.414L25.4 8.015A12.3 12.3 0 0 1 28.333 16c0 6.812-5.521 12.333-12.333 12.333C9.19 28.333 3.667 22.812 3.667 16c0-3.046 1.104-5.834 2.934-7.985M16 9a1 1 0 0 0-1 1v6.303l3.001 4.502a1 1 0 1 0 1.665-1.11L17 15.697V10a1 1 0 0 0-1-1" clip-rule="evenodd"/></svg>