<svg xmlns="http://www.w3.org/2000/svg" width="16" height="16" fill="none"><path fill="#000" d="M11.556 7.389a.5.5 0 0 1-.5.5H8.61a.5.5 0 0 1-.5-.5V4.944a.5.5 0 0 1 1 0v1.238l2.202-2.202a.5.5 0 1 1 .707.707L9.818 6.889h1.238a.5.5 0 0 1 .5.5Z"/><path fill="#000" fill-rule="evenodd" d="M4.333 2A2.333 2.333 0 0 0 2 4.333v7.334A2.333 2.333 0 0 0 4.333 14h7.334A2.333 2.333 0 0 0 14 11.667V4.333A2.333 2.333 0 0 0 11.667 2H4.333Zm3.749 11h3.585c.736 0 1.333-.597 1.333-1.333V4.333C13 3.597 12.403 3 11.667 3H4.333C3.597 3 3 3.597 3 4.333v3.585A2.323 2.323 0 0 1 4.333 7.5h1.834A2.333 2.333 0 0 1 8.5 9.833v1.834c0 .495-.155.955-.418 1.333ZM3 9.833v1.834C3 12.403 3.597 13 4.333 13h1.834c.736 0 1.333-.597 1.333-1.333V9.833c0-.736-.597-1.333-1.333-1.333H4.333C3.597 8.5 3 9.097 3 9.833Z" clip-rule="evenodd"/></svg>