<svg xmlns="http://www.w3.org/2000/svg" width="20" height="20" fill="none" class="persona-icon" viewBox="0 0 20 20"><path fill="currentColor" d="M14.152 9.288a.592.592 0 0 1-.592.591h-2.848a.591.591 0 0 1-.591-.591V6.44a.592.592 0 1 1 1.183 0v1.42l2.55-2.55a.592.592 0 0 1 .837.836l-2.55 2.55h1.42c.326 0 .59.265.59.592Z"/><path fill="currentColor" fill-rule="evenodd" d="M5.728 3A2.728 2.728 0 0 0 3 5.728v8.544A2.728 2.728 0 0 0 5.728 17h8.544A2.728 2.728 0 0 0 17 14.272V5.728A2.728 2.728 0 0 0 14.272 3H5.728Zm4.384 12.817c.303-.44.48-.971.48-1.545v-2.136A2.728 2.728 0 0 0 7.864 9.41H5.728c-.574 0-1.106.176-1.545.479v-4.16c0-.853.692-1.545 1.545-1.545h8.544c.853 0 1.545.692 1.545 1.545v8.544c0 .853-.692 1.545-1.545 1.545h-4.16Zm-5.929-3.68v2.135c0 .853.692 1.545 1.545 1.545h2.136c.853 0 1.545-.692 1.545-1.545v-2.136c0-.853-.692-1.544-1.545-1.544H5.728c-.853 0-1.545.691-1.545 1.544Z" clip-rule="evenodd"/></svg>