<svg xmlns="http://www.w3.org/2000/svg" width="24" height="24" fill="none" class="persona-icon" viewBox="0 0 24 24"><path fill="currentColor" fill-rule="evenodd" d="M3 6.5A3.5 3.5 0 0 1 6.5 3h11A3.5 3.5 0 0 1 21 6.5v11a3.5 3.5 0 0 1-3.5 3.5h-11A3.5 3.5 0 0 1 3 17.5zm9.45 13h5.05a2 2 0 0 0 2-2v-11c0-.277-.056-.541-.158-.781L15.81 9.25h1.856a.75.75 0 0 1 0 1.5H14a.75.75 0 0 1-.75-.75V6.333a.75.75 0 0 1 1.5 0V8.19l3.531-3.53A2 2 0 0 0 17.5 4.5h-11a2 2 0 0 0-2 2v5.05c.375-.192.8-.3 1.25-.3H10A2.75 2.75 0 0 1 12.75 14v4.25c0 .45-.108.875-.3 1.25M4.5 14v3.5a2 2 0 0 0 2 2H10c.69 0 1.25-.56 1.25-1.25V14c0-.69-.56-1.25-1.25-1.25H5.75c-.69 0-1.25.56-1.25 1.25" clip-rule="evenodd"/></svg>