<svg xmlns="http://www.w3.org/2000/svg" width="24" height="24" fill="none"><path fill="currentColor" d="M17.75 11a.75.75 0 0 1-.75.75h-4a.75.75 0 0 1-.75-.75V7a.75.75 0 0 1 1.5 0v2.19l3.72-3.72a.75.75 0 1 1 1.06 1.06l-3.72 3.72H17a.75.75 0 0 1 .75.75Z"/><path fill="currentColor" d="M6 2.25A3.75 3.75 0 0 0 2.25 6v12A3.75 3.75 0 0 0 6 21.75h12A3.75 3.75 0 0 0 21.75 18V6A3.75 3.75 0 0 0 18 2.25H6Zm6 18c.471-.627.75-1.406.75-2.25v-3A3.75 3.75 0 0 0 9 11.25H6c-.844 0-1.623.279-2.25.75V6A2.25 2.25 0 0 1 6 3.75h12A2.25 2.25 0 0 1 20.25 6v12A2.25 2.25 0 0 1 18 20.25h-6ZM3.75 15A2.25 2.25 0 0 1 6 12.75h3A2.25 2.25 0 0 1 11.25 15v3A2.25 2.25 0 0 1 9 20.25H6A2.25 2.25 0 0 1 3.75 18v-3Z"/></svg>