<svg xmlns="http://www.w3.org/2000/svg" width="16" height="16" fill="none" class="persona-icon" viewBox="0 0 16 16"><path fill="currentColor" d="M8.347 2.99a4.314 4.314 0 0 1 4.314 4.314.5.5 0 0 1-1 0 3.314 3.314 0 0 0-6.615-.302.5.5 0 0 1-.5.455h-.014a2.274 2.274 0 0 0-.76 4.418h.002l.006.003.022.005.077.016q.098.016.253.033c.208.021.477.039.799.053.643.029 1.473.043 2.396.046a.5.5 0 0 1-.004 1 64 64 0 0 1-2.437-.047 15 15 0 0 1-.857-.057 2.8 2.8 0 0 1-.591-.11 3.275 3.275 0 0 1 .672-6.333A4.316 4.316 0 0 1 8.347 2.99M9.895 11.135l1.67-1.484a.5.5 0 0 1 .664 0l1.67 1.484a.5.5 0 1 1-.664.748l-.838-.745v2.175a.5.5 0 1 1-1 0v-2.175l-.838.745a.5.5 0 1 1-.664-.748"/></svg>