<svg xmlns="http://www.w3.org/2000/svg" width="24" height="24" fill="none" class="persona-icon" viewBox="0 0 24 24"><path fill="currentColor" fill-rule="evenodd" d="M11.707 2.06a.75.75 0 0 1 .586 0l7.25 3.083a.75.75 0 0 1 .457.69v8.223c0 2.426-1.81 4.42-3.532 5.735a15.5 15.5 0 0 1-2.57 1.588c-.386.186-.742.336-1.046.44-.278.095-.59.181-.852.181-.263 0-.574-.086-.852-.181a10 10 0 0 1-1.045-.44 15.5 15.5 0 0 1-2.571-1.588C5.809 18.476 4 16.482 4 14.056V5.833c0-.3.18-.572.457-.69zm3.627 9.423a.75.75 0 0 0-1.06-1.06l-2.554 2.552-1.525-1.525a.75.75 0 0 0-1.06 1.06l2.055 2.056a.75.75 0 0 0 1.06 0z" clip-rule="evenodd"/></svg>