<svg xmlns="http://www.w3.org/2000/svg" width="32" height="32" fill="none" class="persona-icon" viewBox="0 0 32 32"><path fill="currentColor" fill-rule="evenodd" d="M15.609 2.08a1 1 0 0 1 .782 0l10.19 4.333a1 1 0 0 1 .608.92V18.89c0 3.384-2.524 6.172-4.942 8.017a21.7 21.7 0 0 1-3.604 2.226c-.54.262-1.038.47-1.463.616-.39.134-.82.252-1.18.252s-.79-.118-1.18-.252a13 13 0 0 1-1.463-.616 21.7 21.7 0 0 1-3.604-2.226c-2.418-1.845-4.942-4.633-4.942-8.017V7.333a1 1 0 0 1 .608-.92zm5.038 13.155a1 1 0 0 0-1.414-1.414l-3.627 3.626-2.181-2.182a1 1 0 1 0-1.415 1.415l2.89 2.889a1 1 0 0 0 1.414 0z" clip-rule="evenodd"/></svg>