<svg xmlns="http://www.w3.org/2000/svg" width="20" height="20" fill="none" class="persona-icon" viewBox="0 0 20 20"><path fill="currentColor" fill-rule="evenodd" d="M13.355 3.604a2.149 2.149 0 1 1 3.04 3.04l-5.927 5.926a2.15 2.15 0 0 1-2.12.544c.212.551.225 1.18.045 1.75-.267.845-.957 1.58-2.05 1.843-1.072.258-2.458.048-4.15-.8a.625.625 0 0 1 .338-1.18c.681.064.908-.06.98-.12.076-.064.14-.184.2-.523l.028-.182c.041-.282.1-.678.243-1.012.21-.492.601-.902 1.286-1.1.613-.176 1.174-.175 1.653-.027a2.15 2.15 0 0 1 .508-2.232zM7 13.252c-.22-.261-.64-.476-1.384-.26-.31.09-.416.228-.484.389-.073.172-.1.349-.138.599q-.02.14-.05.317c-.057.324-.156.777-.492 1.137.676.161 1.204.153 1.6.058.658-.158 1.012-.569 1.15-1.004.145-.46.049-.94-.202-1.236m8.511-8.764a.9.9 0 0 0-1.27 0l-5.927 5.927a.899.899 0 0 0 1.271 1.27L15.51 5.76a.9.9 0 0 0 0-1.27" clip-rule="evenodd"/></svg>