<svg xmlns="http://www.w3.org/2000/svg" width="24" height="24" fill="none" class="persona-icon" viewBox="0 0 24 24"><path fill="currentColor" fill-rule="evenodd" d="M16.373 3.804a2.701 2.701 0 0 1 3.82 3.82l-7.64 7.64a2.701 2.701 0 0 1-2.805.639c.321.727.356 1.576.113 2.346-.337 1.067-1.208 1.997-2.593 2.33-1.36.327-3.129.062-5.302-1.026a.737.737 0 0 1 .399-1.392c.884.084 1.199-.075 1.313-.17.119-.1.205-.277.281-.714l.038-.242c.053-.364.127-.861.307-1.283.263-.616.752-1.129 1.614-1.378.838-.242 1.595-.22 2.228.01a2.702 2.702 0 0 1 .588-2.94l7.639-7.64Zm-8.19 12.344c-.303-.361-.875-.642-1.856-.358-.421.122-.572.316-.668.54-.098.231-.135.47-.184.797-.019.12-.039.253-.064.4-.077.443-.215 1.056-.7 1.516.936.24 1.667.235 2.213.104.873-.21 1.348-.758 1.532-1.341.194-.614.067-1.256-.272-1.659ZM19.151 4.846a1.228 1.228 0 0 0-1.736 0l-7.64 7.64a1.228 1.228 0 0 0 1.736 1.736l7.64-7.64c.48-.48.48-1.256 0-1.736Z" clip-rule="evenodd"/></svg>