<svg xmlns="http://www.w3.org/2000/svg" width="24" height="24" fill="none"><path fill="#000" fill-rule="evenodd" d="M12 3.538a8.462 8.462 0 1 0 0 16.924 8.462 8.462 0 0 0 0-16.924ZM2 12C2 6.477 6.477 2 12 2s10 4.477 10 10-4.477 10-10 10S2 17.523 2 12Z" clip-rule="evenodd"/><path fill="#000" fill-rule="evenodd" d="M9.744 8.234a.858.858 0 0 1 1.179 0l3.333 3.2a.777.777 0 0 1 0 1.132l-3.333 3.2a.858.858 0 0 1-1.179 0 .778.778 0 0 1 0-1.132L12.488 12 9.744 9.366a.778.778 0 0 1 0-1.132Z" clip-rule="evenodd"/></svg>