<svg xmlns="http://www.w3.org/2000/svg" width="16" height="16" fill="none" class="persona-icon" viewBox="0 0 16 16"><path fill="currentColor" fill-rule="evenodd" d="M7.979 5.646a.552.552 0 0 1 .748 0l2.118 2a.48.48 0 0 1 0 .708l-2.118 2a.552.552 0 0 1-.748 0 .48.48 0 0 1 0-.707L9.722 8 7.979 6.354a.48.48 0 0 1 0-.708Z" clip-rule="evenodd"/><path fill="currentColor" fill-rule="evenodd" d="M5.155 5.646a.552.552 0 0 1 .749 0l2.117 2a.48.48 0 0 1 0 .708l-2.117 2a.552.552 0 0 1-.749 0 .48.48 0 0 1 0-.707L6.898 8 5.155 6.354a.48.48 0 0 1 0-.708Z" clip-rule="evenodd"/></svg>