<svg xmlns="http://www.w3.org/2000/svg" width="20" height="20" fill="none"><path fill="#000" fill-rule="evenodd" d="M6.81 3.2c-.984 0-1.78.778-1.78 1.737v9.347c0 .96.796 1.737 1.78 1.737h1.596c.34 0 .614.269.614.6 0 .331-.275.6-.614.6H6.809c-1.662 0-3.009-1.315-3.009-2.937V4.937C3.8 3.315 5.147 2 6.81 2h3.616c.082 0 .164.004.245.013a.632.632 0 0 1 .512.117c.324.116.619.304.859.556l3.996 4.178c.167.175.212.43.115.649a.615.615 0 0 1-.564.36h-3.193c-1.22 0-2.21-.965-2.21-2.157V3.2H6.808Zm4.605.588v1.928c0 .529.44.958.981.958h1.778l-2.76-2.886Zm2.341 5.269a.629.629 0 0 1 .473 0l3.193 1.298a.6.6 0 0 1 .378.554v3.462c0 1.168-.901 2.082-1.672 2.644a7.162 7.162 0 0 1-1.18.697 4.62 4.62 0 0 1-.491.198c-.126.04-.3.09-.464.09a1.56 1.56 0 0 1-.465-.09 4.611 4.611 0 0 1-.49-.198 7.158 7.158 0 0 1-1.18-.697c-.772-.562-1.673-1.476-1.673-2.644v-3.462a.6.6 0 0 1 .378-.554l3.193-1.298Zm-2.341 2.252v3.062c0 .563.467 1.163 1.179 1.683.335.245.684.441.971.574a3.379 3.379 0 0 0 .428.166 3.387 3.387 0 0 0 .427-.166c.287-.133.636-.33.972-.574.711-.52 1.178-1.12 1.178-1.683v-3.062l-2.577-1.048-2.578 1.048Z" clip-rule="evenodd"/><path fill="#000" d="M14.513 13.473a.77.77 0 0 0 .278-.59.789.789 0 0 0-.799-.78.789.789 0 0 0-.798.78.77.77 0 0 0 .278.59l-.278 1.356h1.597l-.278-1.356Z"/></svg>