<svg xmlns="http://www.w3.org/2000/svg" width="32" height="32" fill="none"><path fill="#000" fill-rule="evenodd" d="M10.543 4.049a3.08 3.08 0 0 0-3.086 3.073v16.39a3.08 3.08 0 0 0 3.086 3.073h2.743c.568 0 1.028.459 1.028 1.025 0 .566-.46 1.024-1.028 1.024h-2.743c-2.84 0-5.143-2.293-5.143-5.122V7.122C5.4 4.293 7.703 2 10.543 2h6.214c.142 0 .283.008.422.024a1.037 1.037 0 0 1 .865.202c.554.2 1.06.53 1.47.967l6.867 7.328c.279.298.354.733.19 1.107a1.029 1.029 0 0 1-.942.616h-5.486a3.764 3.764 0 0 1-3.771-3.756v-4.44h-5.83Zm7.886.989v3.45a1.71 1.71 0 0 0 1.714 1.707h3.119l-4.833-5.157Zm4.061 9.333c.253-.105.538-.105.791 0l5.486 2.277c.383.159.633.532.633.945v6.071c0 2.034-1.539 3.63-2.861 4.614a12.22 12.22 0 0 1-2.024 1.22c-.303.143-.59.26-.84.345-.217.072-.512.157-.79.157-.277 0-.572-.085-.788-.157a7.777 7.777 0 0 1-.84-.345 12.224 12.224 0 0 1-2.024-1.22c-1.323-.985-2.861-2.58-2.861-4.614v-6.07c0-.414.25-.787.632-.946l5.486-2.277Zm-4.061 3.905v5.388c0 1.001.812 2.062 2.036 2.974.578.43 1.18.775 1.675 1.01.247.117.456.2.613.253.06.02.104.033.133.04.029-.007.072-.02.133-.04.156-.052.365-.136.613-.254.495-.234 1.097-.58 1.674-1.01 1.225-.911 2.037-1.972 2.037-2.973v-5.388l-4.457-1.85-4.457 1.85Z" clip-rule="evenodd"/><path fill="#000" d="M23.78 22.09a1.36 1.36 0 0 0 .477-1.036c0-.755-.614-1.366-1.371-1.366-.758 0-1.372.611-1.372 1.366 0 .414.186.785.478 1.036l-.478 2.378h2.743l-.478-2.378Z"/></svg>