<svg xmlns="http://www.w3.org/2000/svg" width="24" height="24" fill="none" class="persona-icon" viewBox="0 0 24 24"><path fill="currentColor" fill-rule="evenodd" d="M5.636 5.69A8.9 8.9 0 0 1 12 3a8.9 8.9 0 0 1 6.364 2.69A9.28 9.28 0 0 1 21 12.184V18.5c0 2.166-1.72 3.922-3.844 3.922h-2.359c-.115.891-.861 1.579-1.766 1.579H10.97c-.984 0-1.781-.814-1.781-1.818V21.13c0-1.004.797-1.818 1.78-1.818h2.063c.905 0 1.651.688 1.766 1.579h2.36c1.14 0 2.091-.833 2.3-1.935a2.76 2.76 0 0 1-1.27.308c-1.553 0-2.812-1.285-2.812-2.87V14.29c0-1.585 1.26-2.87 2.813-2.87.469 0 .91.117 1.3.324a7.73 7.73 0 0 0-2.185-4.97A7.42 7.42 0 0 0 12 4.53c-1.99 0-3.897.806-5.303 2.242a7.73 7.73 0 0 0-2.184 4.97 2.76 2.76 0 0 1 1.3-.324c1.553 0 2.812 1.285 2.812 2.87v2.105c0 1.585-1.26 2.87-2.812 2.87C4.259 19.264 3 17.98 3 16.394v-4.21A9.28 9.28 0 0 1 5.636 5.69M4.5 14.29v2.104c0 .74.588 1.34 1.313 1.34.724 0 1.312-.6 1.312-1.34V14.29c0-.74-.588-1.34-1.312-1.34s-1.313.6-1.313 1.34m8.813 6.84a.284.284 0 0 0-.282-.287H10.97a.284.284 0 0 0-.281.287v1.052c0 .159.125.287.28.287h2.063a.284.284 0 0 0 .281-.287zm6.187-4.736V14.29c0-.74-.588-1.34-1.312-1.34s-1.313.6-1.313 1.34v2.105c0 .74.588 1.34 1.313 1.34.724 0 1.312-.6 1.312-1.34" clip-rule="evenodd"/></svg>