<svg xmlns="http://www.w3.org/2000/svg" width="32" height="32" fill="none" class="persona-icon" viewBox="0 0 32 32"><path fill="currentColor" fill-rule="evenodd" d="M8.224 6.332c2.063-2.132 4.86-3.33 7.778-3.33 2.918 0 5.716 1.198 7.778 3.33 2.063 2.132 3.222 5.024 3.222 8.04V22.2c0 2.675-2.098 4.844-4.686 4.844H19.41c-.132 1.103-1.042 1.957-2.145 1.957h-2.526c-1.193 0-2.16-1-2.16-2.233v-1.305c0-1.234.967-2.234 2.16-2.234h2.526c1.103 0 2.013.854 2.145 1.958h2.906c1.42 0 2.602-1.06 2.844-2.458-.473.255-1.011.4-1.582.4-1.89 0-3.424-1.585-3.424-3.539v-2.61c0-1.954 1.533-3.539 3.424-3.539.584 0 1.133.151 1.614.417a9.66 9.66 0 0 0-2.682-6.214c-1.726-1.783-4.067-2.785-6.508-2.785-2.44 0-4.781 1.002-6.507 2.785a9.661 9.661 0 0 0-2.682 6.214 3.321 3.321 0 0 1 1.613-.417c1.891 0 3.424 1.585 3.424 3.539v2.61c0 1.954-1.533 3.539-3.424 3.539-1.89 0-3.424-1.585-3.424-3.539v-5.22c0-3.015 1.16-5.907 3.222-8.039ZM6.8 16.981v2.61c0 .929.729 1.682 1.627 1.682.899 0 1.627-.753 1.627-1.682v-2.61c0-.929-.728-1.681-1.627-1.681-.898 0-1.627.752-1.627 1.681m10.83 9.127v-.644a.37.37 0 0 0-.364-.377h-2.526a.37.37 0 0 0-.364.377v1.305a.37.37 0 0 0 .364.376h2.526a.37.37 0 0 0 .364-.376v-.661m7.576-7.822V16.97c-.006-.924-.732-1.67-1.627-1.67-.898 0-1.627.752-1.627 1.681v2.61c0 .929.729 1.682 1.627 1.682.899 0 1.627-.753 1.627-1.682v-1.305" clip-rule="evenodd"/></svg>