<svg xmlns="http://www.w3.org/2000/svg" width="32" height="32" fill="none" class="persona-icon"><path fill="currentColor" d="M16 29C8.82 29 3 23.18 3 16S8.82 3 16 3s13 5.82 13 13-5.82 13-13 13ZM5 16c0 6.075 4.925 11 11 11s11-4.925 11-11S22.075 5 16 5 5 9.925 5 16Z"/><path fill="currentColor" d="M11.293 15.357c-.39-.4-.39-1.05 0-1.451l4-4.106a.982.982 0 0 1 1.414 0l4 4.106c.39.4.39 1.05 0 1.451s-1.024.401-1.414 0L17 13.004v8.47c0 .566-.448 1.026-1 1.026s-1-.46-1-1.026v-8.47l-2.293 2.353c-.39.401-1.024.401-1.414 0Z"/></svg>