<svg xmlns="http://www.w3.org/2000/svg" width="16" height="16" fill="none" class="persona-icon" viewBox="0 0 16 16"><path fill="currentColor" d="M8 2c-1.425 0-2.803.52-3.888 1.467a6.2 6.2 0 0 0-2.034 3.7 6.28 6.28 0 0 0 .788 4.17 6.03 6.03 0 0 0 3.237 2.651c.3.054.412-.13.412-.292 0-.146-.007-.63-.007-1.146-1.508.285-1.898-.377-2.018-.723a2.24 2.24 0 0 0-.615-.868c-.21-.116-.51-.4-.007-.408.191.021.375.09.536.2.16.11.293.257.386.43q.124.23.325.392a1.27 1.27 0 0 0 .946.275c.167-.02.33-.074.476-.159.027-.313.162-.605.383-.823-1.335-.154-2.73-.684-2.73-3.037a2.43 2.43 0 0 1 .615-1.653 2.26 2.26 0 0 1 .06-1.63s.502-.162 1.65.63a5.5 5.5 0 0 1 3 0c1.147-.8 1.65-.63 1.65-.63.222.515.243 1.098.06 1.63.405.45.625 1.041.615 1.653 0 2.36-1.403 2.883-2.738 3.037.144.149.254.328.324.524s.098.406.082.614c0 .823-.008 1.484-.008 1.692 0 .162.113.354.412.292a6.03 6.03 0 0 0 3.228-2.658 6.3 6.3 0 0 0 .781-4.168 6.2 6.2 0 0 0-2.036-3.696A5.92 5.92 0 0 0 8 2"/></svg>