<svg xmlns="http://www.w3.org/2000/svg" width="16" height="16" fill="none" class="persona-icon" viewBox="0 0 16 16"><path fill="currentColor" d="M8 2c1.424 0 2.8.52 3.885 1.466a6.2 6.2 0 0 1 2.036 3.696 6.3 6.3 0 0 1-.781 4.168 6.03 6.03 0 0 1-3.228 2.658c-.3.062-.412-.13-.412-.292 0-.208.008-.869.008-1.692a1.5 1.5 0 0 0-.405-1.138c1.334-.154 2.737-.676 2.737-3.037a2.41 2.41 0 0 0-.615-1.653 2.26 2.26 0 0 0-.06-1.63s-.503-.17-1.65.63a5.5 5.5 0 0 0-3 0c-1.147-.792-1.65-.63-1.65-.63a2.26 2.26 0 0 0-.06 1.63 2.43 2.43 0 0 0-.615 1.653c0 2.353 1.395 2.883 2.73 3.037-.22.218-.356.51-.383.823a1.26 1.26 0 0 1-1.747-.508 1.2 1.2 0 0 0-.386-.43 1.2 1.2 0 0 0-.536-.2c-.503.008-.203.292.007.408.27.234.482.532.615.868.12.347.51 1.008 2.018.723 0 .515.007 1 .007 1.146 0 .162-.112.346-.412.292a6.03 6.03 0 0 1-3.237-2.652 6.28 6.28 0 0 1-.788-4.17 6.2 6.2 0 0 1 2.034-3.7A5.9 5.9 0 0 1 8 2"/></svg>