<svg xmlns="http://www.w3.org/2000/svg" width="16" height="16" fill="none" class="persona-icon"><g clip-path="url(#a)"><path fill="currentColor" d="M8 2c-1.425 0-2.803.52-3.888 1.466a6.191 6.191 0 0 0-2.034 3.7 6.282 6.282 0 0 0 .788 4.17 6.03 6.03 0 0 0 3.236 2.652c.3.054.413-.13.413-.292 0-.146-.007-.63-.007-1.146-1.508.285-1.898-.377-2.018-.723a2.235 2.235 0 0 0-.615-.868c-.21-.116-.51-.4-.007-.408.191.021.375.09.536.2.16.11.293.257.386.43.082.152.192.285.325.392a1.272 1.272 0 0 0 .946.275c.167-.02.33-.074.476-.159.027-.313.162-.605.383-.823-1.335-.154-2.73-.684-2.73-3.037a2.429 2.429 0 0 1 .615-1.653 2.263 2.263 0 0 1 .06-1.63s.502-.162 1.65.63a5.521 5.521 0 0 1 3 0c1.147-.8 1.65-.63 1.65-.63.222.515.243 1.098.06 1.63.405.45.625 1.041.615 1.653 0 2.36-1.403 2.883-2.738 3.037.144.149.254.328.324.524s.098.406.082.614c0 .823-.008 1.484-.008 1.692 0 .162.113.354.412.292a6.034 6.034 0 0 0 3.228-2.658 6.286 6.286 0 0 0 .781-4.168 6.194 6.194 0 0 0-2.036-3.696A5.915 5.915 0 0 0 8 2Z"/></g><defs><clipPath id="a"><path fill="#fff" d="M0 0h16v16H0z"/></clipPath></defs></svg>