<svg xmlns="http://www.w3.org/2000/svg" width="20" height="20" fill="none" class="persona-icon"><path fill="currentColor" d="M10 2.5c-1.78 0-3.504.65-4.86 1.833a7.739 7.739 0 0 0-2.543 4.625 7.853 7.853 0 0 0 .986 5.213 7.538 7.538 0 0 0 4.045 3.314c.375.068.516-.163.516-.365 0-.183-.01-.788-.01-1.432-1.884.356-2.372-.471-2.522-.904a2.794 2.794 0 0 0-.768-1.086c-.263-.144-.638-.5-.01-.51.24.027.47.113.671.25.2.137.366.322.482.539.103.189.241.355.406.49a1.588 1.588 0 0 0 1.183.343c.21-.026.412-.093.596-.199.032-.39.202-.756.478-1.028-1.669-.193-3.413-.856-3.413-3.797a3.036 3.036 0 0 1 .77-2.067 2.828 2.828 0 0 1 .074-2.037s.628-.202 2.063.788a6.904 6.904 0 0 1 3.75 0c1.434-1 2.062-.788 2.062-.788.278.644.305 1.373.075 2.037.506.562.781 1.302.769 2.067 0 2.95-1.753 3.604-3.422 3.797.18.186.317.41.404.655.088.245.122.507.102.767 0 1.029-.01 1.855-.01 2.115 0 .202.142.442.517.365a7.542 7.542 0 0 0 4.034-3.323 7.857 7.857 0 0 0 .977-5.21 7.743 7.743 0 0 0-2.546-4.62A7.395 7.395 0 0 0 10 2.5Z"/></svg>