<svg xmlns="http://www.w3.org/2000/svg" width="20" height="20" fill="none" class="persona-icon" viewBox="0 0 20 20"><path fill="currentColor" d="M10 2.5c1.78.001 3.5.65 4.857 1.832a7.74 7.74 0 0 1 2.545 4.62 7.86 7.86 0 0 1-.977 5.21 7.54 7.54 0 0 1-4.034 3.323c-.375.077-.516-.163-.516-.365 0-.26.01-1.086.01-2.115.02-.26-.015-.522-.103-.767a1.8 1.8 0 0 0-.404-.655c1.669-.193 3.422-.846 3.422-3.797a3.02 3.02 0 0 0-.769-2.067 2.83 2.83 0 0 0-.075-2.037s-.628-.212-2.062.788a6.9 6.9 0 0 0-3.75 0c-1.435-.99-2.063-.788-2.063-.788a2.83 2.83 0 0 0-.075 2.037 3.04 3.04 0 0 0-.769 2.067c0 2.941 1.744 3.605 3.413 3.797a1.63 1.63 0 0 0-.478 1.028 1.575 1.575 0 0 1-1.779-.145 1.6 1.6 0 0 1-.405-.49 1.5 1.5 0 0 0-.483-.538c-.2-.137-.43-.223-.67-.25-.629.01-.254.366.009.51.338.293.602.666.768 1.086.15.433.638 1.26 2.522.904 0 .644.01 1.25.01 1.432 0 .202-.14.433-.516.365a7.54 7.54 0 0 1-4.045-3.314 7.85 7.85 0 0 1-.986-5.213A7.74 7.74 0 0 1 5.14 4.333 7.4 7.4 0 0 1 10 2.5"/></svg>