<svg xmlns="http://www.w3.org/2000/svg" width="24" height="24" fill="none" class="persona-icon" viewBox="0 0 24 24"><path fill="currentColor" d="M12 3c2.135.001 4.2.78 5.828 2.199a9.3 9.3 0 0 1 3.054 5.543 9.43 9.43 0 0 1-1.172 6.253 9.05 9.05 0 0 1-4.841 3.987c-.45.093-.62-.196-.62-.438 0-.311.012-1.303.012-2.538a2.2 2.2 0 0 0-.122-.92 2.2 2.2 0 0 0-.485-.787c2.002-.23 4.106-1.015 4.106-4.556a3.62 3.62 0 0 0-.923-2.48 3.4 3.4 0 0 0-.09-2.445s-.753-.254-2.475.946a8.3 8.3 0 0 0-4.5 0c-1.72-1.188-2.474-.946-2.474-.946a3.4 3.4 0 0 0-.09 2.445 3.64 3.64 0 0 0-.923 2.48c0 3.53 2.092 4.326 4.095 4.556-.33.327-.535.765-.574 1.235a1.9 1.9 0 0 1-1.464.177 1.9 1.9 0 0 1-.67-.351 2 2 0 0 1-.487-.588 1.8 1.8 0 0 0-.579-.646 1.8 1.8 0 0 0-.805-.3c-.753.012-.304.439.011.612.407.351.723.798.923 1.303.18.52.765 1.511 3.026 1.084 0 .773.012 1.5.012 1.719 0 .242-.17.52-.62.438A9.05 9.05 0 0 1 4.3 17.005a9.42 9.42 0 0 1-1.184-6.255A9.3 9.3 0 0 1 6.168 5.2 8.87 8.87 0 0 1 12 3"/></svg>