<svg xmlns="http://www.w3.org/2000/svg" width="32" height="32" fill="none" class="persona-icon" viewBox="0 0 32 32"><path fill="currentColor" d="M16 4a11.83 11.83 0 0 1 7.77 2.931 12.4 12.4 0 0 1 4.073 7.392 12.57 12.57 0 0 1-1.563 8.337 12.07 12.07 0 0 1-6.455 5.317c-.6.122-.825-.262-.825-.585 0-.415.015-1.738.015-3.383a3 3 0 0 0-.163-1.229c-.14-.393-.36-.75-.647-1.047 2.67-.308 5.475-1.354 5.475-6.075a4.83 4.83 0 0 0-1.23-3.307 4.53 4.53 0 0 0-.12-3.26s-1.005-.339-3.3 1.26a11.04 11.04 0 0 0-6 0c-2.295-1.583-3.3-1.26-3.3-1.26a4.53 4.53 0 0 0-.12 3.26 4.86 4.86 0 0 0-1.23 3.307c0 4.706 2.79 5.767 5.46 6.075a2.6 2.6 0 0 0-.765 1.645 2.52 2.52 0 0 1-1.953.236 2.5 2.5 0 0 1-.893-.468 2.6 2.6 0 0 1-.649-.783 2.44 2.44 0 0 0-.772-.862 2.37 2.37 0 0 0-1.073-.4c-1.005.016-.405.585.015.816a4.5 4.5 0 0 1 1.23 1.738c.24.692 1.02 2.014 4.035 1.445 0 1.03.015 2 .015 2.292 0 .323-.225.692-.825.584a12.06 12.06 0 0 1-6.472-5.303 12.56 12.56 0 0 1-1.578-8.34 12.38 12.38 0 0 1 4.069-7.4A11.83 11.83 0 0 1 16 4"/></svg>