<svg xmlns="http://www.w3.org/2000/svg" width="24" height="24" fill="none"><path fill="#000" fill-rule="evenodd" d="M7.39 1c.425 0 .769.344.769.767v1.28h6.658v-1.28a.768.768 0 0 1 1.537 0v1.28h1.28a3.84 3.84 0 0 1 3.842 3.837V8.93a.768.768 0 0 1-.769.768H3.037v8.442a2.304 2.304 0 0 0 2.304 2.302h3.074a.768.768 0 1 1 0 1.535H5.34A3.84 3.84 0 0 1 1.5 18.14V6.884a3.84 3.84 0 0 1 3.841-3.837h1.28v-1.28c0-.423.345-.767.77-.767ZM19.94 6.884v1.279H3.037v-1.28A2.304 2.304 0 0 1 5.34 4.582h1.28v1.28a.768.768 0 0 0 1.538 0V4.58h6.658v1.28a.768.768 0 0 0 1.537 0V4.58h1.28a2.304 2.304 0 0 1 2.305 2.303Z" clip-rule="evenodd"/><path fill="#000" d="M17.378 15.07a.768.768 0 0 0-1.537 0v2.364l1.762 1.76a.769.769 0 0 0 1.087-1.085l-1.312-1.31v-1.73Z"/><path fill="#000" fill-rule="evenodd" d="M16.61 11.233a5.887 5.887 0 0 0-5.89 5.883A5.887 5.887 0 0 0 16.61 23a5.887 5.887 0 0 0 5.89-5.884 5.887 5.887 0 0 0-5.89-5.883Zm-4.354 5.883a4.351 4.351 0 0 1 4.354-4.349 4.351 4.351 0 0 1 4.353 4.35 4.351 4.351 0 0 1-4.353 4.348 4.351 4.351 0 0 1-4.354-4.349Z" clip-rule="evenodd"/></svg>