<svg xmlns="http://www.w3.org/2000/svg" width="16" height="16" fill="none" class="persona-icon" viewBox="0 0 16 16"><path fill="currentColor" fill-rule="evenodd" d="M4.043 10.496c.31.363.458.828.602 1.41v1.51c0 .875.702 1.584 1.568 1.584h3.574c.866 0 1.568-.709 1.568-1.583v-1.402a2.486 2.486 0 0 1 .602-1.52c.726-.851 1.543-2.216 1.543-3.94C13.5 3.286 11.025 1 8 1S2.5 3.284 2.5 6.556c0 1.723.817 3.088 1.543 3.94M8 2c2.503 0 4.51 1.861 4.51 4.556 0 1.397-.665 2.538-1.304 3.287-.476.56-.77 1.25-.83 1.99H8.495v-1.46L9.78 9.077a.504.504 0 0 0 0-.707.491.491 0 0 0-.7 0L8 9.459 6.92 8.37a.491.491 0 0 0-.7 0 .504.504 0 0 0 0 .707l1.285 1.298v1.46h-.852a8.363 8.363 0 0 1-.805-.033 1.355 1.355 0 0 1-.219-.04c-.148-.614-.337-1.334-.835-1.918-.639-.749-1.304-1.89-1.304-3.287C3.49 3.86 5.497 2 8 2M5.635 12.833h1.013c.24.002.512.002.819.001H8.024c.587 0 1.051.017 1.423.031l.104.004c.32.013.59.024.797.015h.017v.533a.58.58 0 0 1-.578.583H6.212a.58.58 0 0 1-.577-.583z" clip-rule="evenodd"/></svg>