<svg xmlns="http://www.w3.org/2000/svg" width="32" height="32" fill="none" class="persona-icon" viewBox="0 0 32 32"><path fill="currentColor" fill-rule="evenodd" d="M5.575 12.707C5.575 6.43 10.239 2 16 2c5.76 0 10.425 4.43 10.425 10.707 0 3.311-1.541 5.938-2.913 7.58-.174.207-.341.396-.504.58-.271.306-.53.598-.782.938-.386.52-.573.929-.594 1.256a1.7 1.7 0 0 1-.804 1.366v2.61c0 .9-.469 1.64-.996 2.124-.513.472-1.231.839-1.954.839h-3.9c-.723 0-1.441-.367-1.955-.839-.527-.484-.995-1.224-.995-2.124V24.28c-.302-.274-.493-.641-.592-1.059-.1-.42-.354-.896-.73-1.424-.305-.428-.646-.832-.985-1.235l-.233-.277c-1.372-1.642-2.913-4.268-2.913-7.58M16 4c-4.65 0-8.425 3.529-8.425 8.707 0 2.679 1.251 4.865 2.448 6.297l.208.246c.341.406.747.887 1.105 1.389.432.606.86 1.331 1.046 2.122l.006.02.012.003c.073.01.175.016.325.016h2.203v-4.175h-.95a2.95 2.95 0 1 1 1.95-5.164 2.95 2.95 0 1 1 1.95 5.164h-.95V22.8h2.347a2 2 0 0 0 .376-.031c.1-.848.545-1.584.97-2.157.296-.4.668-.822.978-1.173.144-.164.275-.312.378-.435 1.197-1.432 2.448-3.618 2.448-6.297C24.425 7.529 20.65 4 16 4m-1.072 11.675a.95.95 0 1 0-.95.95h.95zm-1.9 9.125v2.237c0 .184.102.425.349.652.26.238.516.311.6.311h3.9c.085 0 .342-.073.602-.311.246-.227.349-.468.349-.652V24.8zm3.9-8.175h.95a.95.95 0 1 0-.95-.95z" clip-rule="evenodd"/></svg>