<svg xmlns="http://www.w3.org/2000/svg" width="32" height="32" fill="none" class="persona-icon" viewBox="0 0 32 32"><path fill="currentColor" fill-rule="evenodd" d="M8.808 20.637c.564.675.832 1.54 1.094 2.62v2.805c0 1.624 1.276 2.94 2.85 2.94h6.5c1.574 0 2.85-1.316 2.85-2.94V23.46a4.05 4.05 0 0 0 .01-.125 4.67 4.67 0 0 1 1.084-2.698c1.32-1.582 2.806-4.117 2.806-7.317 0-6.076-4.5-10.318-10-10.318s-10 4.242-10 10.318c0 3.2 1.487 5.735 2.806 7.317M16.002 4.86c4.552 0 8.2 3.456 8.2 8.46 0 2.595-1.21 4.714-2.37 6.105a6.558 6.558 0 0 0-1.51 3.696h-3.42v-2.71L19.238 18a.95.95 0 0 0 0-1.314.88.88 0 0 0-1.272 0l-1.964 2.026-1.963-2.026a.88.88 0 0 0-1.273 0 .95.95 0 0 0 0 1.313l2.336 2.41v2.711h-1.55c-.64-.005-1.11-.02-1.463-.06a2.449 2.449 0 0 1-.397-.073c-.27-1.14-.614-2.478-1.52-3.563-1.16-1.39-2.37-3.51-2.37-6.105 0-5.004 3.649-8.46 8.2-8.46m-4.3 20.119h1.842c.437.003.931.002 1.489 0h1.014c1.065 0 1.91.031 2.586.059l.19.008c.582.024 1.072.044 1.449.027l.03-.002v.99c0 .6-.47 1.084-1.05 1.084h-6.5c-.58 0-1.05-.485-1.05-1.083v-1.084" clip-rule="evenodd"/></svg>