<svg xmlns="http://www.w3.org/2000/svg" width="20" height="20" fill="none"><path fill="#000" fill-rule="evenodd" d="M8.001 2.5a.61.61 0 0 1 .61.61v1.957a.61.61 0 1 1-1.22 0V3.11a.61.61 0 0 1 .61-.61Zm3.077 1.73a3.377 3.377 0 1 1 4.775 4.776l-2.445 2.445a.61.61 0 0 1-.863-.862l2.446-2.446a2.157 2.157 0 1 0-3.05-3.05L9.493 7.537a.61.61 0 1 1-.862-.862l2.446-2.446ZM3.74 3.74a.61.61 0 0 1 .862 0l1.468 1.468a.61.61 0 0 1-.863.863L3.741 4.603a.61.61 0 0 1 0-.862ZM2.5 8.002a.61.61 0 0 1 .61-.61h1.956a.61.61 0 0 1 0 1.22H3.11a.61.61 0 0 1-.61-.61Zm5.038.631a.61.61 0 0 1 0 .863L5.092 11.94a2.157 2.157 0 1 0 3.05 3.05l2.447-2.445a.61.61 0 1 1 .862.862l-2.446 2.446a3.377 3.377 0 1 1-4.775-4.776l2.445-2.446a.61.61 0 0 1 .863 0Zm6.786 3.366a.61.61 0 0 1 .61-.61h1.956a.61.61 0 1 1 0 1.22h-1.957a.61.61 0 0 1-.61-.61Zm-.523 2.099a.61.61 0 0 1 .848-.154l1.468 1.017a.61.61 0 1 1-.695 1.002l-1.467-1.016a.61.61 0 0 1-.154-.849Zm-1.803.226a.61.61 0 0 1 .61.61v1.957a.61.61 0 0 1-1.22 0v-1.957a.61.61 0 0 1 .61-.61Z" clip-rule="evenodd"/></svg>