<svg xmlns="http://www.w3.org/2000/svg" width="32" height="32" fill="none"><path fill="#000" d="M12.658 3.5a.98.98 0 0 0-.98.98v3.272a.98.98 0 0 0 1.96 0V4.48a.98.98 0 0 0-.98-.98ZM28.5 19.34a.98.98 0 0 1-.98.981h-3.272a.98.98 0 0 1 0-1.96h3.271a.98.98 0 0 1 .981.98ZM25.444 25.534a.98.98 0 1 0 .877-1.754l-2.454-1.227a.98.98 0 0 0-.876 1.754l2.453 1.227ZM5.563 5.563a.98.98 0 0 0 0 1.387l2.453 2.453a.98.98 0 1 0 1.387-1.387L6.95 5.563a.98.98 0 0 0-1.387 0ZM18.36 27.52a.98.98 0 0 0 1.96 0v-3.272a.98.98 0 1 0-1.96 0v3.271ZM3.5 12.659c0 .541.439.98.98.98h3.272a.98.98 0 0 0 0-1.96H4.48a.98.98 0 0 0-.98.98ZM25.759 6.38a5.607 5.607 0 0 0-7.93 0l-4.088 4.09a.98.98 0 0 0 1.386 1.386l4.09-4.089a3.646 3.646 0 1 1 5.155 5.156l-4.09 4.09a.98.98 0 1 0 1.387 1.386l4.09-4.09a5.607 5.607 0 0 0 0-7.928ZM11.856 15.128a.98.98 0 0 0-1.387-1.387l-4.089 4.09a5.607 5.607 0 0 0 7.93 7.928l4.088-4.089a.98.98 0 1 0-1.386-1.387l-4.09 4.09a3.646 3.646 0 0 1-5.155-5.156l4.089-4.09Z"/></svg>