<svg xmlns="http://www.w3.org/2000/svg" width="20" height="20" fill="none" class="persona-icon" viewBox="0 0 20 20"><path fill="currentColor" d="M3.829 3.975c-.772 0-1.397.625-1.397 1.396v.772h15.136V5.37c0-.771-.625-1.397-1.396-1.397z"/><path fill="currentColor" fill-rule="evenodd" d="M17.568 8.457H2.432v6.171c0 .771.625 1.396 1.397 1.396h12.343c.77 0 1.396-.625 1.396-1.396zM4.747 13.085c0-.345.28-.625.625-.625H10a.625.625 0 1 1 0 1.25H5.372a.625.625 0 0 1-.625-.625" clip-rule="evenodd"/></svg>