<svg xmlns="http://www.w3.org/2000/svg" width="20" height="20" fill="none" class="persona-icon" viewBox="0 0 20 20"><path fill="currentColor" d="M7.6 11.797h4.8a.625.625 0 0 1 0 1.25H7.6a.625.625 0 0 1 0-1.25M8.355 7.533a.822.822 0 1 1-1.644 0 .822.822 0 0 1 1.644 0M12.467 8.355a.822.822 0 1 1 0-1.644.822.822 0 0 1 0 1.644"/><path fill="currentColor" fill-rule="evenodd" d="M10 1.975a8.025 8.025 0 1 1 0 16.05 8.025 8.025 0 0 1 0-16.05M3.225 10a6.775 6.775 0 1 0 13.55 0 6.775 6.775 0 0 0-13.55 0" clip-rule="evenodd"/></svg>