<svg xmlns="http://www.w3.org/2000/svg" width="24" height="24" fill="none" class="persona-icon" viewBox="0 0 24 24"><path fill="currentColor" d="M9 14.278h6a.75.75 0 0 1 0 1.5H9a.75.75 0 0 1 0-1.5M9.944 8.917a1.028 1.028 0 1 1-2.055 0 1.028 1.028 0 0 1 2.055 0M15.083 9.944a1.028 1.028 0 1 1 0-2.055 1.028 1.028 0 0 1 0 2.055"/><path fill="currentColor" fill-rule="evenodd" d="M12 2c5.523 0 10 4.477 10 10s-4.477 10-10 10S2 17.523 2 12 6.477 2 12 2M3.5 12a8.5 8.5 0 1 0 17 0 8.5 8.5 0 0 0-17 0" clip-rule="evenodd"/></svg>