<svg xmlns="http://www.w3.org/2000/svg" width="20" height="20" fill="none" class="persona-icon" viewBox="0 0 20 20"><path fill="currentColor" fill-rule="evenodd" d="M6.444 3.018h7.112c1.499 0 2.715 1.216 2.715 2.715v5.784H10v.002h-.356a.582.582 0 0 0 0 1.164H10v4.299H6.444a2.715 2.715 0 0 1-2.715-2.715V5.733c0-1.5 1.216-2.715 2.715-2.715m.712 2.133c-.715 0-1.293.58-1.293 1.293v.711c0 .715.578 1.293 1.292 1.293h5.69c.713 0 1.292-.578 1.292-1.293v-.71c0-.715-.578-1.294-1.293-1.294zm-.712 4.267a.582.582 0 0 0 0 1.164h.712a.582.582 0 0 0 0-1.164zm0 2.101a.582.582 0 0 0 0 1.164h.712a.582.582 0 0 0 0-1.164zm-.581 2.684c0 .321.26.582.581.582h.712a.582.582 0 1 0 0-1.164h-.712a.58.58 0 0 0-.581.582m3.781-4.785a.582.582 0 0 0 0 1.164h.711a.582.582 0 0 0 0-1.164zm3.2 0a.582.582 0 0 0 0 1.164h.712a.582.582 0 0 0 0-1.164z" clip-rule="evenodd"/><path fill="currentColor" d="m16.456 13.967-2.963 2.963a.58.58 0 0 1-.837-.015l-1.66-1.777a.582.582 0 0 1 .851-.794l1.249 1.337 2.537-2.537a.582.582 0 1 1 .823.823"/></svg>