<svg xmlns="http://www.w3.org/2000/svg" width="20" height="20" fill="none" class="persona-icon" viewBox="0 0 20 20"><path fill="currentColor" fill-rule="evenodd" d="M6.444 3.018A2.715 2.715 0 0 0 3.73 5.733v8.534c0 1.5 1.216 2.715 2.715 2.715H10v-4.299h-.356a.582.582 0 0 1 0-1.164H10v-.002h6.27V5.733c0-1.5-1.215-2.715-2.714-2.715zm.712 2.133h5.688c.715 0 1.293.58 1.293 1.293v.711c0 .715-.578 1.293-1.293 1.293H7.156a1.293 1.293 0 0 1-1.293-1.293v-.71c0-.715.578-1.294 1.292-1.294m-.712 4.267h.712a.582.582 0 0 1 0 1.164h-.712a.582.582 0 0 1 0-1.164m0 2.101h.712a.582.582 0 0 1 0 1.164h-.712a.582.582 0 0 1 0-1.164m-.581 2.684c0-.322.26-.582.581-.582h.712a.582.582 0 0 1 0 1.163h-.712a.58.58 0 0 1-.581-.581m3.781-4.785h.711a.582.582 0 0 1 0 1.164h-.71a.582.582 0 0 1 0-1.164m3.2 0h.712a.582.582 0 0 1 0 1.164h-.712a.582.582 0 0 1 0-1.164" clip-rule="evenodd"/><path fill="currentColor" d="M16.456 13.967a.582.582 0 0 0-.823-.823l-2.537 2.537-1.248-1.337a.582.582 0 1 0-.851.794l1.66 1.777a.58.58 0 0 0 .836.015z"/></svg>