<svg xmlns="http://www.w3.org/2000/svg" width="32" height="32" fill="none"><path fill="#000" fill-rule="evenodd" d="M16 5C9.925 5 5 9.925 5 16s4.925 11 11 11 11-4.925 11-11S22.075 5 16 5ZM3 16C3 8.82 8.82 3 16 3s13 5.82 13 13-5.82 13-13 13S3 23.18 3 16Z" clip-rule="evenodd"/><path fill="#000" fill-rule="evenodd" d="M21.333 22.333a1 1 0 0 1-1-1 4.335 4.335 0 0 0-5.991-4.003 4.332 4.332 0 0 0-2.675 4.003 1 1 0 1 1-2 0 6.332 6.332 0 1 1 12.666 0 1 1 0 0 1-1 1Z" clip-rule="evenodd"/><path fill="#000" d="M13.333 12a1.333 1.333 0 1 1-2.666 0 1.333 1.333 0 0 1 2.666 0ZM21.333 12a1.333 1.333 0 1 1-2.666 0 1.333 1.333 0 0 1 2.666 0Z"/></svg>