<svg xmlns="http://www.w3.org/2000/svg" width="32" height="32" fill="none"><path fill="#000" fill-rule="evenodd" d="M2.162 27.009a.99.99 0 0 1 .989-.991h25.7a.99.99 0 0 1 .988.99.99.99 0 0 1-.989.992H3.15a.99.99 0 0 1-.988-.991ZM7.954 3h4.254c.215 0 .424.07.596.2l7.935 6.005 3.975-2.251a2.949 2.949 0 0 1 4.017 1.105l.874 1.528a2.99 2.99 0 0 1-1.101 4.075L14.01 21.986c-1.16.666-2.62.47-3.564-.481l-.336-.34-7.789-7.141a.993.993 0 0 1 .504-1.71l4.256-.714a.986.986 0 0 1 .66.12l4.22 2.457 2.197-1.245-6.96-8.302A.993.993 0 0 1 7.952 3Zm3.488 16.701a.95.95 0 0 1 .05.047l.356.36a.974.974 0 0 0 1.18.158L27.52 11.94c.477-.274.644-.888.37-1.367l-.875-1.528a.975.975 0 0 0-1.33-.366l-4.539 2.57a.986.986 0 0 1-1.082-.071l-8.188-6.197h-1.801l6.362 7.588a.993.993 0 0 1-.27 1.501l-3.729 2.112a.986.986 0 0 1-.982-.006l-4.4-2.563-1.904.32 6.29 5.767Z" clip-rule="evenodd"/></svg>