<svg xmlns="http://www.w3.org/2000/svg" width="40" height="40" fill="none" class="persona-ilustration" viewBox="0 0 40 40"><g clip-path="url(#OemWd_pXUMhO7scWVpmm8IutG11T6kRqYz255VeD2DY_a)"><g clip-path="url(#OemWd_pXUMhO7scWVpmm8IutG11T6kRqYz255VeD2DY_b)"><path fill="#178737" fill-rule="evenodd" d="M4.444 10.078a2.79 2.79 0 0 1 1.703-2.565l12.746-5.426c.707-.301 1.507-.301 2.214 0l12.746 5.426a2.79 2.79 0 0 1 1.702 2.565v14.47q0 .573-.062 1.126c-.497 4.45-3.853 7.936-6.724 10.13l-.278.21-.014.01a29 29 0 0 1-3.289 2.113l-.017.01q-.612.334-1.177.61c-.718.348-1.401.635-2.005.843-.507.174-1.258.4-1.99.4-.73 0-1.48-.226-1.988-.4a18 18 0 0 1-2.005-.844q-.565-.274-1.177-.61l-.017-.009a29 29 0 0 1-3.29-2.113l-.013-.01-.278-.21c-3.11-2.376-6.787-6.266-6.787-11.256zm27.167-.483a1.86 1.86 0 0 1 1.135 1.71v13.243c0 7.236-10.925 12.662-12.746 12.662-1.674 0-11.047-4.588-12.544-10.952 1.318 5.6 8.736 9.826 11.637 10.759.492.158.907-.224.907-.738 0 .514.415.896.907.738 3.19-1.026 11.84-6.03 11.84-12.469v-1.86c0 6.437-8.65 11.443-11.84 12.468-.491.158-.906.608-.907 1.12-.002-.512-.416-.962-.907-1.12-3.19-1.025-11.84-6.03-11.84-12.468V11.305a1.86 1.86 0 0 1 1.136-1.71l10.873-4.63c.471-.2 1.005-.2 1.476 0z" clip-rule="evenodd"/><path fill="#239842" d="M20 2.79 7.254 8.218v14.47C7.254 29.923 18.179 35.35 20 35.35s12.746-5.426 12.746-12.662V8.217z"/><path fill="#178737" d="M20 35.35V2.79l12.746 5.426v14.47c0 7.236-10.925 12.662-12.746 12.662"/><path fill="#8FC7B8" fill-rule="evenodd" d="M4.444 8.217a2.79 2.79 0 0 1 1.703-2.565L18.893.226c.707-.301 1.507-.301 2.214 0l12.746 5.426a2.79 2.79 0 0 1 1.702 2.565v14.47c0 4.99-3.677 8.88-6.786 11.256a28.7 28.7 0 0 1-4.775 2.952c-.718.348-1.401.636-2.005.844-.507.174-1.258.4-1.99.4-.73 0-1.48-.226-1.988-.4a18 18 0 0 1-2.005-.844 28.7 28.7 0 0 1-4.775-2.952c-3.11-2.376-6.787-6.266-6.787-11.256zm27.17-.482a1.86 1.86 0 0 1 1.132 1.712v13.24c0 7.235-10.925 12.662-12.746 12.662S7.254 29.923 7.254 22.687V9.447c0-.746.445-1.42 1.131-1.712l10.886-4.634a1.86 1.86 0 0 1 1.458 0z" clip-rule="evenodd"/><path fill="#FEE283" fill-rule="evenodd" d="M18.986 11.095a8.57 8.57 0 0 1 6.002 1.54.608.608 0 0 1-.708.989 7.357 7.357 0 0 0-9.84 1.17.608.608 0 1 1-.921-.795 8.55 8.55 0 0 1 5.467-2.904M17.86 14.06a5.92 5.92 0 0 1 6.306 1.313c.292.29.562.61.801.951a.608.608 0 1 1-.997.697 6 6 0 0 0-.661-.784 4.69 4.69 0 0 0-5.009-1.043.608.608 0 0 1-.44-1.134m8.082.21a.61.61 0 0 1 .853.114 8.45 8.45 0 0 1 1.721 5.697.608.608 0 0 1-1.214-.081 7.23 7.23 0 0 0-1.473-4.877.61.61 0 0 1 .113-.853m-9.246 1.106a.61.61 0 0 1-.003.86 4.62 4.62 0 0 0-1.367 3.277c.003.307.017.568.03.825l.02.395c.015.385.016.773-.049 1.197-.131.86-.518 1.781-1.42 3.168a.608.608 0 1 1-1.02-.664c.86-1.322 1.144-2.075 1.238-2.688.047-.311.05-.609.035-.964q-.006-.16-.017-.346c-.014-.271-.03-.58-.034-.913v-.006a5.84 5.84 0 0 1 1.727-4.144.61.61 0 0 1 .86.003m-3.645.308c.305.14.438.502.297.807a7.2 7.2 0 0 0-.538 4.37.608.608 0 0 1-1.195.228 8.43 8.43 0 0 1 .629-5.108.61.61 0 0 1 .807-.297m5.708.845A3.3 3.3 0 0 1 20 16.284c1.309 0 2.257.84 2.589 1.278a3.23 3.23 0 0 1 .661 1.95c.022 1.883.015 5.765-1.86 8.647a.608.608 0 0 1-1.02-.664c1.648-2.533 1.686-6.051 1.664-7.972v-.006a2 2 0 0 0-.413-1.218l-.001-.001c-.193-.255-.821-.798-1.62-.798a2.05 2.05 0 0 0-1.44.592c-.188.188-.337.41-.44.654a.608.608 0 0 1-1.122-.468 3.23 3.23 0 0 1 1.76-1.749m6.46 1.522c.33-.068.65.145.718.474q.007.03.028.096c.055.179.168.544.173.992l.003.237c.024 1.874.053 4.127-1.439 7.56a.609.609 0 0 1-1.116-.486c1.388-3.192 1.362-5.238 1.338-7.057l-.003-.24a1.6 1.6 0 0 0-.053-.415c-.012-.044-.024-.083-.039-.13l-.017-.056a3 3 0 0 1-.067-.257.61.61 0 0 1 .474-.718m-5.265.859a.61.61 0 0 1 .654.56c.079 1.023.052 2.697-.291 4.385a.608.608 0 0 1-1.193-.243c.318-1.563.342-3.122.27-4.049a.61.61 0 0 1 .56-.653m-2.576 1.168a.61.61 0 0 1 .626.59c.024.814.016 1.724-.24 2.757-.255 1.036-.753 2.166-1.673 3.445a.608.608 0 0 1-.987-.71c.84-1.168 1.265-2.157 1.48-3.027.215-.872.227-1.652.204-2.43a.61.61 0 0 1 .59-.625m1.987 5.077a.61.61 0 0 1 .335.792c-.348.856-.823 1.667-1.472 2.312a.608.608 0 1 1-.857-.864c.5-.496.895-1.152 1.201-1.906a.61.61 0 0 1 .793-.334" clip-rule="evenodd"/></g></g><defs><clipPath id="OemWd_pXUMhO7scWVpmm8IutG11T6kRqYz255VeD2DY_a"><path fill="#fff" d="M0 0h40v40H0z"/></clipPath><clipPath id="OemWd_pXUMhO7scWVpmm8IutG11T6kRqYz255VeD2DY_b"><path fill="#fff" d="M0 0h40v40H0z"/></clipPath></defs></svg>