<svg xmlns="http://www.w3.org/2000/svg" width="300" height="300" fill="none" class="persona-ilustration" viewBox="0 0 300 300"><g clip-path="url(#u6YDy9rCmv_a)"><g clip-path="url(#u6YDy9rCmv_b)"><rect width="250" height="250" x="24.999" y="25" fill="#D3EDFF" rx="125"/><path fill="#C66E51" d="M268.912 302.457c8.334-4.606 10.792-21.074 7.987-30.174-10.183-33.029-36.447-114.342-51.582-125.86-9.585-7.295-43.426-18.998-47.113 4.111-1.39 8.705 10.677 30.706 20.827 50.13 10.515 20.12 20.406 43.144 30.656 63.401a622 622 0 0 1 8.198 16.864c7.149 15.256 16.282 29.678 31.027 21.528"/><path fill="#F8F8F8" d="M228.644 151.744c-1.902-2.121-5.863-5.513-9.773-8.631-3.293-2.626-2.274-5.037 1.436-3.044 2.823 1.516 9.208 8.718 13.321 14.374q.108.148.172.32c.479 1.292-.71 2.025-1.615.987a388 388 0 0 0-3.541-4.006"/><path fill="#E4E4E4" d="M193.083 187.76c4.261 18.467 14.257 33.207 32.979 30.263 20.326-3.196 25.857-28.236 16.468-46.544-11.576-22.571-28.561-45.16-50.427-30.876-7.37 4.815-3.728 26.758.98 47.157"/><path fill="#E4E4E4" d="M237.785 168.454c-1.821-5.003-5.469-8.959-9.385-12.568-7.836-7.22-21.113-19.205-24.181-20.401-20.679-8.061-59.071-14.787-68.589-13.591s-39.253 8.81-27.935 52.127c6.359 24.338 3.847 55.903-1.744 85.769-8.907 47.574 15.264 97.105 63.665 97.118 30.518.009 61.254-23.745 64.686-54.069 2.144-18.941 4.018-40.379 6.532-76.08 3.802-31.75.143-49.534-3.049-58.305"/><path fill="#EFEFEF" fill-rule="evenodd" d="M190.655 137.668a1.5 1.5 0 0 1 1.809 1.108c5.638 23.483 11.955 65.848 2.996 134.504a1.5 1.5 0 0 1-2.975-.388c8.912-68.294 2.614-110.29-2.938-133.416a1.5 1.5 0 0 1 1.108-1.808" clip-rule="evenodd"/><path fill="#EFEFEF" d="M174.091 232.749c-10.733.641-22.838-8.554-22.757-19.305l.013-1.689c.081-11.027 9.826-19.83 20.85-19.548 8.938.228 15.579 6.477 15.529 15.418a262 262 0 0 1-.163 7.74c-.339 9.577-3.906 16.812-13.472 17.384M231.118 233.398c-8.4.644-17.629-6.679-17.579-15.104.02-3.441.042-7.146.061-10.762.044-8.342 7.422-14.97 15.759-14.692 7.008.234 12.304 5.299 12.357 12.311a334 334 0 0 1-.235 14.357c-.28 7.519-2.861 13.314-10.363 13.89"/><path fill="#fff" d="M186.518 175.274c-.736 0-18.236-1.095-30.535-1.475-3.684-.113-6.569 3.035-6.237 6.705a6.27 6.27 0 0 0 6.244 5.706h20.439c6.176 0 16.265-10.936 10.089-10.936M237.721 175.893h-20.235a5.482 5.482 0 0 0 0 10.962h11.542c6.343 0 15.037-10.962 8.693-10.962"/><path fill="#E4E4E4" d="M141.929 166.183c-2.546 24.294-19.512 45.674-42.191 36.601-11.649-4.66-15.458-20.015-11.068-31.768 7.52-20.132 24.154-43.1 37.352-47.518 7.725-2.587 14.967 5.114 16.226 13.163 1.22 7.802.829 18.561-.319 29.522"/><path fill="#EFEFEF" d="M123.751 123.191c-8.631 3.962-14.404 9.999-18.139 15.303-2.545 3.614-.784 8.924 3.632 8.725 2.356-.107 4.21-1.96 5.487-3.943 5-7.765 14.788-12.81 20.313-14.327 1.064-.292 2.082-.753 2.914-1.477 2.042-1.778 2.02-4.314-.543-5.187-1.352-.461-2.864-.773-4.232-.652-2.618 0-7.337.596-9.432 1.558"/><path fill="#8E8E8E" d="M187.003 196.674c-.147-3.13-2.603-3.233-5.736-3.287l-23.403-.408c-3.712-.064-6.405 3.483-6.317 7.194.072 3.075 2.467 5.567 5.543 5.567h24.11c3.507 0 5.966-5.563 5.803-9.066M241.163 196.966c-.119-3.184-2.62-3.276-5.806-3.347l-15.262-.344c-3.69-.083-6.45 3.313-6.371 7.004.068 3.161 2.547 5.723 5.71 5.723h15.836c3.494 0 6.023-5.544 5.893-9.036"/><path fill="#EFEFEF" d="M189.338 197.364c-.448-4.967-4.967-6.48-9.954-6.48h-22.195c-3.713 0-6.337 3.54-6.117 7.246.185 3.121 2.622 5.644 5.749 5.644h25.243c3.501 0 7.589-2.923 7.274-6.41M242.945 197.737c-.393-4.656-4.468-6.207-9.141-6.207h-14.261c-3.686 0-6.373 3.399-6.191 7.08.159 3.214 2.684 5.81 5.902 5.81h16.745c3.511 0 7.241-3.184 6.946-6.683"/><path fill="#8E8E8E" fill-rule="evenodd" d="M235.479 163.424a.75.75 0 0 1 .937.498l.007.023c3.367 11 9.887 32.299 4.48 76.588a.751.751 0 0 1-1.489-.182c5.368-43.973-1.087-65.06-4.412-75.922l-.021-.068a.75.75 0 0 1 .498-.937" clip-rule="evenodd"/><path fill="#C66E51" d="M204.844 100.725h-.002c-.02.061-9.943 31.686-7.951 44.937q.063.417.072.773c.788 28.291-38.285-34.587-34.198-62.593q.288-1.973.621-4.037c5.135-31.783 41.371 20.78 41.466 20.917.002.003-.004.001-.008.003"/><path fill="#000" d="M164.409 75.573c.22-.636.61-1.194 1.093-1.663a4.965 4.965 0 0 1 7.041.123l25.675 26.733c3.133 3.262 4.555 6.93 3.418 11.307-1.91 7.355-9.78 12.899-16.237 8.892a83 83 0 0 1-5.211-3.528 15.2 15.2 0 0 1-2.362-2.144c-6.555-7.356-10.601-14.634-13.097-20.748-1.9-4.654-2.145-9.776-1.343-14.74.262-1.625.606-3.03 1.023-4.233" opacity=".5" style="mix-blend-mode:overlay"/><path fill="#E4E4E4" d="M193.09 148.933q-.002.005-.005.002l-5.862-10.186A3.17 3.17 0 0 0 186 137.57c-2.481-1.38-10.499-6.46-18.43-18.206-2.082-3.082-9.451 1.091-12.286 3.499-1.525 1.296.248 1.831 1.373 3.485 4.543 6.68 17.012 21.948 36.43 22.583q.003 0 .003.002M196.082 138.785c.524-2.697 4.847-2.537 5.934-.014.128.299.012.179 0 .504a14.9 14.9 0 0 1-.718 4.033c-1.752 5.267-6.769.806-5.216-4.523"/></g><path fill="#C66E51" d="M151.06 46.437s.526 5.851 1.345 16.153c1.053 13.131 6.877-3.466 10.191 18.206s26.308 34.536 34.078 38.421c15.971 5.324 18.417 2.59 22.59 1.583 10.833-6.312 11.4-16.258 12.581-23.826 2.698-17.293 7.47-33.344 6.596-44.561-1.941-24.93-11.314-27.704-20.521-32.848s-62.132-10.884-66.833 26.886v-.028z"/><path fill="#411917" d="M152.932 70.008s-1.123-9.845 2.911-9.346c4.049.5 8.459 3.439 9.138 9.054.347 2.87.582 4.798.707 6.004a2.164 2.164 0 0 0 1.858 1.9l1.331.194a1.3 1.3 0 0 0 1.484-1.456c-.763-6.1-2.251-19.311-2.621-23.572-.282-3.246 4.559-2.33 5.741-5.081 1.092-2.545-4.604-5.692 0-7.093 35.66-11.74 63.227.416 63.227.416s-1.789-10.746-8.832-19.051c-7.044-8.292-24.945-15.96-43.331-11.425-17.248 4.242-30.393 15.39-34.511 31.46-4.118 16.071 0 26.22 1.234 29.23 1.234 3.008 1.664-1.248 1.664-1.248v.027z"/><path fill="#411917" d="M197.373 54.943s7.581-2.04 12.59-.594c6.656 1.92 6.931 4.307 6.931 4.307s2.028.316 1.093-3.224-2.917-1.574-2.917-1.574-4.424-4.107-14.843-1.241c-1.881.767-3.994 2.27-3.994 2.27s.008.77 1.142.042zM205.357 68.678c1.692-.166 2.884-2.19 2.649-4.534-.222-2.33-1.789-4.09-3.481-3.924-1.691.167-2.884 2.191-2.648 4.534.222 2.33 1.789 4.09 3.48 3.924"/><path fill="#411917" fill-rule="evenodd" d="m217.381 65.185-.69.209.69-.208a.72.72 0 0 1-1.378.422l-.001-.002-.012-.033a3 3 0 0 0-.071-.164c-.07-.148-.19-.37-.38-.634-.379-.525-1.042-1.227-2.164-1.852-2.241-1.248-6.408-2.241-13.973-.738a.722.722 0 0 1-.281-1.415c7.768-1.543 12.316-.578 14.956.893 1.319.735 2.138 1.584 2.632 2.269.246.341.409.64.514.86q.077.166.115.268l.029.082.009.027.003.01.002.004z" clip-rule="evenodd"/><path fill="#000" d="M226.874 85.19s3.76-2.619 2.942-3.506c-.818-.888-5.477-1.053-6.808-.693-3.245.887-8.195 1.705-4.881 5.366 1.553 2.536 3.246 2.642 6.525.632z" opacity=".5" style="mix-blend-mode:overlay"/><path fill="#411917" fill-rule="evenodd" d="M221.371 64.626a.72.72 0 0 0-.585.836l.71-.126-.71.126.001.002.001.007.004.022.016.085q.02.11.062.312a33.175 33.175 0 0 0 1.353 4.696c.505 1.358 1.165 2.819 2.006 4.111.83 1.275 1.864 2.43 3.141 3.143.805.578 1.268 1.135 1.51 1.64.239.5.279.99.175 1.475-.216 1.008-1.067 2.059-2.252 2.998l-.016.009-.153.092a107.425 107.425 0 0 1-2.344 1.366c-.679.383-1.391.774-2.01 1.087-.642.325-1.117.533-1.352.594a.72.72 0 1 0 .36 1.396c.41-.106 1.02-.388 1.644-.704.647-.327 1.38-.73 2.067-1.117a107 107 0 0 0 2.376-1.385l.157-.094.055-.033h.001l-.374-.617.374.616a1 1 0 0 0 .072-.05c1.286-1.01 2.48-2.338 2.805-3.856a3.68 3.68 0 0 0-.284-2.399c-.379-.793-1.045-1.533-2.009-2.217a1 1 0 0 0-.07-.044c-1.009-.553-1.896-1.507-2.664-2.686-.764-1.174-1.381-2.53-1.864-3.828a32 32 0 0 1-1.292-4.486l-.058-.29-.014-.074-.003-.018-.001-.003a.72.72 0 0 0-.835-.586" clip-rule="evenodd"/><path fill="#411917" d="M236.918 59.993s-2.98-2.696-8.175-2.468c-3.611.155-3.586.25-3.586.25s-1.711-.191.429-3.149c.505-.7 1.589-.53 1.724.628 1.956.004 2.531.05 6.741 1.485 2.138 1.1 2.758 2.315 2.758 2.315s.517.724.106.911zM230.689 69.066c.069-2.344-.999-4.285-2.385-4.327-1.387-.041-2.565 1.83-2.635 4.174-.069 2.343.999 4.285 2.385 4.326 1.387.042 2.565-1.83 2.635-4.174"/><path fill="#411917" fill-rule="evenodd" d="M225.656 67.422v.001l-.001.002-.001.001a.721.721 0 0 1-1.25-.719l.626.357c-.626-.356-.626-.357-.626-.358h.001l.002-.004.004-.006.011-.019.035-.057q.045-.069.126-.18a4.592 4.592 0 0 1 2.512-1.67c1.893-.489 4.585.06 8.218 3.295a.721.721 0 0 1-.959 1.077c-3.453-3.074-5.663-3.295-6.899-2.976a3.15 3.15 0 0 0-1.716 1.137q-.051.069-.071.101l-.013.02M207.291 96.695a26.6 26.6 0 0 0 7.158 1.768c.566.054 1.009.53.988 1.099-.021.568-.499 1.013-1.065.961-2.101-.191-4.981-.757-7.853-1.92-3.087-1.249-6.253-3.223-8.396-6.25-.328-.464-.169-1.1.318-1.394s1.116-.134 1.45.326c1.838 2.53 4.572 4.266 7.4 5.41" clip-rule="evenodd"/><path fill="#C66E51" d="M160.476 65.708s-11.542-9.26-12.763.162c-1.222 9.435 5.409 26.436 10.295 22.622 4.886-3.802 4.911-8.613 4.911-8.613z"/><path fill="#000" d="M153.44 80.492s-2.331-3.952-1.737-9.803c-.311-4.936 4.138-3.428 3.889-2.33-2.817 11.952-.212 13.971-.212 13.971" opacity=".5" style="mix-blend-mode:overlay"/><path fill="#411917" fill-rule="evenodd" d="M157.258 81.324c.516-.586 1.064-1.682 1.547-3.513a.721.721 0 0 1 1.395.368c-.505 1.911-1.124 3.263-1.86 4.098-.373.425-.795.736-1.265.901-.476.168-.959.17-1.42.043-.891-.246-1.665-.963-2.299-1.82-.648-.875-1.219-1.993-1.675-3.203-.906-2.407-1.404-5.32-1.039-7.643.182-1.164.593-2.252 1.354-3.034.783-.806 1.866-1.213 3.215-1.127a.721.721 0 1 1-.092 1.44c-.982-.063-1.635.225-2.089.692-.478.492-.807 1.255-.964 2.253-.313 2 .115 4.651.965 6.91.422 1.123.936 2.114 1.484 2.855.562.76 1.094 1.168 1.524 1.287a.9.9 0 0 0 .558-.013c.185-.065.409-.208.661-.494" clip-rule="evenodd"/><path fill="#411917" fill-rule="evenodd" d="m158.112 74.693-.716.087za.722.722 0 0 1-1.431.176m0 0-.001-.004-.003-.022-.017-.102a5 5 0 0 0-.084-.38 4.9 4.9 0 0 0-.436-1.117c-.216-.386-.49-.715-.833-.924-.328-.2-.766-.32-1.384-.219a.721.721 0 1 1-.233-1.423c.94-.154 1.73.022 2.367.41.622.38 1.05.93 1.343 1.454.293.526.469 1.06.571 1.455a6 6 0 0 1 .138.676l.002.013.001.004v.003" clip-rule="evenodd"/><path fill="#411917" fill-rule="evenodd" d="m158.037 74.935-.443.569za.721.721 0 0 1-.885 1.14m0 0-.003-.003-.018-.013-.084-.06a5 5 0 0 0-.329-.209 4.9 4.9 0 0 0-1.098-.478c-.427-.12-.853-.158-1.243-.062-.373.092-.767.317-1.131.827a.721.721 0 0 1-1.174-.839c.554-.775 1.236-1.21 1.961-1.388.707-.174 1.399-.09 1.978.074a6.3 6.3 0 0 1 1.434.62 7 7 0 0 1 .542.354l.034.025.011.008.003.003.002.002" clip-rule="evenodd"/><path fill="#F8F8F8" d="M151.205 121.848c1.913 12.434 16.151 28.314 16.151 28.314s4.676 1.638 12.576-4.46 6.958-7.748 6.958-7.748c-11.269-5.122-20.964-21.245-26.411-30.732 0 0-7.179 8.341-9.274 14.626M198.7 125.391s6.656 11.439 13.964 21.44c-4.184 1.44-6.438-.49-9.36-1.538-3.027-1.086-7.118-7.537-7.118-7.537z"/><path fill="#535353" d="M173.101 44.035c35.661-11.74 63.935 0 63.935 0s0-9.084-9.162-22.057c-7.044-8.292-12.257-22.762-51.543-16.271-17.249 4.243-24.536 14.588-27.971 27.99-.95 3.71-2.789 15.301 0 24.449 6.165-4.769 16.402-10.163 24.741-14.111"/><path fill="#2E2E2E" d="m197.507 28.855-23.692 14.864c38.635-7.905 56.132-2.132 63.886.812 14.012-4.74 19.192-6.335 21.796-10.673 1.909-3.182.691-7.446-1.217-9.097-14.153-14.198-33.585-13.524-60.773 4.094"/><path fill="#C66E51" d="M131.025 228.831 98.748 241.89s-7.68-4.689-7.266-15.139c.415-10.451 24.123-8.832 37.644-24.803 14.564-7.167 10.938-50.883 14.637-57.407 3.699-6.525 9.063-3.508 13.124 2.703 4.062 6.211.049 21.473-2.264 36.67-2.313 15.196-10.363 32.913-23.598 44.917"/><path fill="#178737" fill-rule="evenodd" d="M21.28 135.274c0-4.433 2.659-8.438 6.76-10.184l50.604-21.544a11.23 11.23 0 0 1 8.788 0l50.604 21.544c4.101 1.746 6.76 5.751 6.76 10.184v57.448q-.002 2.274-.248 4.47c-1.972 17.669-15.296 31.508-26.696 40.219q-.55.42-1.103.832l-.053.04a115 115 0 0 1-13.06 8.389l-.069.037a104 104 0 0 1-4.673 2.421c-2.849 1.384-5.56 2.526-7.96 3.351-2.013.691-4.994 1.59-7.896 1.59s-5.883-.899-7.896-1.59c-2.399-.825-5.111-1.967-7.96-3.351a104 104 0 0 1-4.672-2.421l-.07-.037a115 115 0 0 1-13.06-8.389l-.054-.041q-.552-.411-1.102-.831c-12.344-9.433-26.944-24.878-26.944-44.688zm107.856-1.919a7.39 7.39 0 0 1 4.507 6.789v52.579c0 28.725-43.376 50.269-50.605 50.269-6.647 0-43.857-18.216-49.803-43.481 5.234 22.236 34.684 39.011 46.202 42.714 1.953.628 3.601-.888 3.601-2.927 0 2.039 1.648 3.555 3.602 2.927 12.662-4.071 47.003-23.943 47.003-49.502v-7.387c0 25.559-34.34 45.432-47.003 49.502-1.95.627-3.596 2.413-3.602 4.448-.006-2.035-1.652-3.821-3.602-4.448-12.662-4.07-47.003-23.943-47.003-49.502v-45.192a7.39 7.39 0 0 1 4.507-6.789l43.169-18.378a7.48 7.48 0 0 1 5.858 0z" clip-rule="evenodd"/><path fill="#239842" d="m83.039 106.341-50.605 21.544v57.45c0 28.724 43.376 50.268 50.605 50.268s50.604-21.544 50.604-50.268v-57.45z"/><path fill="#178737" d="M83.04 235.603V106.342l50.603 21.543v57.45c0 28.723-43.372 50.266-50.604 50.268"/><path fill="#8FC7B8" fill-rule="evenodd" d="M21.28 127.884c0-4.432 2.659-8.437 6.76-10.183l50.604-21.544a11.22 11.22 0 0 1 8.788 0l50.604 21.544c4.101 1.746 6.76 5.751 6.76 10.183v57.45c0 19.809-14.599 35.255-26.944 44.688-6.514 4.977-13.26 8.952-18.958 11.719-2.849 1.383-5.56 2.526-7.96 3.351-2.013.691-4.994 1.59-7.896 1.59s-5.883-.899-7.896-1.59c-2.399-.825-5.111-1.968-7.96-3.351-5.698-2.767-12.444-6.742-18.958-11.719-12.344-9.433-26.944-24.879-26.944-44.688zm107.87-1.912a7.39 7.39 0 0 1 4.493 6.796v52.566c0 28.725-43.376 50.268-50.605 50.268-7.23 0-50.604-21.543-50.604-50.268v-52.566a7.39 7.39 0 0 1 4.493-6.796l43.218-18.399a7.39 7.39 0 0 1 5.786 0z" clip-rule="evenodd"/><path fill="#FEE283" fill-rule="evenodd" d="M79.014 139.312a34.04 34.04 0 0 1 23.828 6.111 2.415 2.415 0 0 1-2.812 3.928 29.2 29.2 0 0 0-20.446-5.243 29.12 29.12 0 0 0-18.618 9.886 2.415 2.415 0 0 1-3.66-3.154 33.94 33.94 0 0 1 21.708-11.528m-4.474 11.769a23.5 23.5 0 0 1 8.5-1.589c6.198 0 12.147 2.446 16.535 6.806a27.6 27.6 0 0 1 3.18 3.775 2.415 2.415 0 0 1-3.96 2.767 23 23 0 0 0-2.624-3.115 18.63 18.63 0 0 0-13.132-5.402 18.7 18.7 0 0 0-6.753 1.262 2.415 2.415 0 1 1-1.746-4.504m32.087.836a2.416 2.416 0 0 1 3.386.451 33.53 33.53 0 0 1 6.833 22.62 2.415 2.415 0 1 1-4.819-.324 28.7 28.7 0 0 0-5.851-19.361 2.414 2.414 0 0 1 .451-3.386m-36.708 4.392c.94.946.935 2.476-.011 3.416a18.35 18.35 0 0 0-5.432 13.008c.015 1.22.07 2.256.123 3.275.028.52.055 1.036.077 1.569.061 1.527.066 3.066-.192 4.752-.521 3.412-2.06 7.072-5.641 12.575a2.416 2.416 0 0 1-4.049-2.635c3.417-5.249 4.543-8.236 4.915-10.669.189-1.237.197-2.42.14-3.828q-.027-.637-.067-1.375a86 86 0 0 1-.136-3.623v-.028a23.18 23.18 0 0 1 6.857-16.448 2.416 2.416 0 0 1 3.416.011m-14.473 1.22a2.415 2.415 0 0 1 1.18 3.205 28.65 28.65 0 0 0-2.136 17.354 2.415 2.415 0 0 1-4.746.9 33.5 33.5 0 0 1 2.497-20.278 2.415 2.415 0 0 1 3.205-1.181m22.66 3.358a13 13 0 0 1 4.933-.975c5.196 0 8.96 3.337 10.278 5.074a12.776 12.776 0 0 1 2.626 7.746c.085 7.473.058 22.885-7.385 34.326a2.415 2.415 0 1 1-4.049-2.634c6.542-10.057 6.691-24.025 6.604-31.65v-.028a7.987 7.987 0 0 0-1.637-4.832l-.006-.007c-.767-1.012-3.259-3.165-6.43-3.165a8.13 8.13 0 0 0-5.716 2.35 8 8 0 0 0-1.746 2.597 2.415 2.415 0 1 1-4.459-1.86 12.8 12.8 0 0 1 2.801-4.164 12.9 12.9 0 0 1 4.186-2.778m25.65 6.041a2.415 2.415 0 0 1 2.851 1.881c.016.078.056.208.11.384.219.708.666 2.158.686 3.935l.012.944c.096 7.44.212 16.385-5.712 30.01a2.415 2.415 0 0 1-4.43-1.926c5.511-12.675 5.406-20.797 5.312-28.017l-.012-.956a6.2 6.2 0 0 0-.212-1.646 14 14 0 0 0-.153-.517l-.067-.221a11 11 0 0 1-.267-1.02 2.416 2.416 0 0 1 1.882-2.851m-20.903 3.41a2.416 2.416 0 0 1 2.594 2.222c.315 4.064.208 10.708-1.155 17.409a2.416 2.416 0 0 1-4.734-.962c1.262-6.205 1.358-12.394 1.073-16.074a2.416 2.416 0 0 1 2.222-2.595m-10.23 4.636a2.415 2.415 0 0 1 2.487 2.342c.096 3.233.065 6.849-.949 10.95-1.017 4.112-2.991 8.596-6.644 13.675a2.415 2.415 0 1 1-3.921-2.82c3.333-4.635 5.022-8.563 5.876-12.015.856-3.463.902-6.561.81-9.646a2.416 2.416 0 0 1 2.342-2.486m7.89 20.157a2.415 2.415 0 0 1 1.33 3.147c-1.381 3.398-3.268 6.618-5.843 9.176a2.416 2.416 0 0 1-3.404-3.427c1.984-1.971 3.556-4.577 4.771-7.568a2.416 2.416 0 0 1 3.147-1.328" clip-rule="evenodd"/><path fill="#C66E51" d="M3.24 150.207c-.772 6.984 6.294 7.245 12.3 7.779 8.317.74 14.81-.612 15.394-7.184.49-5.508-6.379-8.339-14.697-9.079-2.954-.263-12.045-.114-12.997 8.484"/><path fill="#C66E51" d="M4.005 162.871c-3.255 13.046 9.135 9.923 11.073 10.086 8.321.698 20.85.795 21.618-8.361.54-6.434-12.68-7.208-21.001-7.906-2.01-.169-9.595-2.212-11.69 6.181"/><path fill="#C66E51" d="M6.41 179.378c-1.698 8.483 2.13 8.811 12.884 9.207 8.345.307 14.759-1.381 15.001-7.974.203-5.526-6.804-7.997-15.149-8.304s-11.463.713-12.736 7.071"/><path fill="#C66E51" d="M12.888 197.615c1.553 6.02 6.118 7.338 10.652 6.538 7.076-1.247 11.968-4.036 10.299-10.351-1.4-5.293-7.97-6.351-15.046-5.103-7.077 1.247-7.077 4.379-5.905 8.916"/></g><defs><clipPath id="u6YDy9rCmv_a"><path fill="#fff" d="M0 0h300v300H0z"/></clipPath><clipPath id="u6YDy9rCmv_b"><rect width="250" height="250" x="24.999" y="25" fill="#fff" rx="125"/></clipPath></defs></svg>