<svg xmlns="http://www.w3.org/2000/svg" width="240" height="240" fill="none" class="persona-ilustration" viewBox="0 0 240 240"><g clip-path="url(#miEDBoBZOzNbL5nJSbg5TbwIQBsydL0Ewz1hKtSCqRE_a)"><g clip-path="url(#miEDBoBZOzNbL5nJSbg5TbwIQBsydL0Ewz1hKtSCqRE_b)"><rect width="200" height="200" x="19.999" y="20" fill="#D3EDFF" rx="100"/><path fill="#C66E51" d="M224.882 228.943s-29.377-100.198-44.628-111.805c-7.669-5.835-34.741-15.198-37.691 3.289-1.942 12.17 28.988 56.82 27.164 66.187 13.765 20.418 29.367 57.816 29.367 57.816s20.253 3.993 25.788-15.487"/><path fill="#F8F8F8" d="M182.915 121.395c-2.762-3.08-10.951-9.511-14.477-11.901 1.135-.358 4.435.75 7.807 2.561 2.278 1.223 7.457 7.076 10.743 11.617l1.437 3.873c-.658-.538-2.124-2.374-5.51-6.15"/><path fill="#E4E4E4" d="M160.065 173.24c6.337 3.945 37.607 2.773 44.655-12.443-7.176-15.745-24.672-65.539-51.038-48.314-9.085 5.935 2.748 44.405 6.383 60.757"/><path fill="#E4E4E4" d="M187.4 129.06s-20.489-19.294-24.025-20.672c-16.543-6.449-47.256-11.83-54.871-10.873s-31.402 7.048-22.348 41.701C99.632 190.794 63.31 282.933 63.31 282.933s87.049 5.982 118.795-.224c4.86-34.587 6.829-48.286 10.562-101.302 4.801-40.089-5.267-52.347-5.267-52.347"/><path fill="#EFEFEF" fill-rule="evenodd" d="M152.524 110.134a1.2 1.2 0 0 1 1.447.887c4.511 18.786 9.564 52.678 2.397 107.603a1.2 1.2 0 0 1-2.38-.31c7.13-54.636 2.092-88.232-2.351-106.733a1.2 1.2 0 0 1 .887-1.447" clip-rule="evenodd"/><path fill="#EFEFEF" d="M120.961 185.858c0-3.623.2-23.68.2-32.595 6.793.236 21.962.708 28.302.708 1.245 4.981.707 23.139-.33 31.252-3.868.566-16.058 1.993-28.172.635M170.769 186.373c0-3.622.155-23.679.155-32.594 5.255.236 16.991.707 21.896.707.964 4.981.548 23.139-.255 31.253-2.993.566-12.424 1.993-21.796.634"/><path fill="#fff" d="M149.214 140.219c-.711 0-21.056-1.282-29.911-1.282l.906 10.031h29.843c.043-2.923-.126-8.749-.838-8.749M190.177 140.714h-21.134l1.058 8.77h22.28c.033-2.923-1.653-8.77-2.204-8.77"/><path fill="#E4E4E4" d="M108.406 163.043c-6.419 3.809-33.962 3.922-40.685-11.44 0-21.01 29.338-64.059 42.154-50.985 8.957 6.128 2.514 46.154-1.469 62.425"/><path fill="#EFEFEF" d="M99.001 98.552c-10.306 4.731-15.519 13.16-17.818 17.817 3.312 1.454 5.815 1.858 9.208.888 3.522-8.445 14.49-13.658 18.958-14.393l3.792-3.303c-.241-.483-3.792-2.502-6.595-2.255-2.094 0-5.869.477-7.545 1.246"/><path fill="#8E8E8E" d="m149.529 154.788-29.177-.508c1.146 4.199.865 6.222.865 10.312h29.067c-.755-5.115-.755-9.804-.755-9.804M192.871 154.998l-22.574-.508c.886 4.199.669 6.222.669 10.312h22.489c-.584-5.278-.584-9.804-.584-9.804"/><path fill="#EFEFEF" d="M150.031 152.707h-30.157c1.106 4.199 1.054 6.223 1.054 10.312h29.103c3.337-3.415 0-10.312 0-10.312M193.259 153.224h-23.333c.856 4.199.816 6.223.816 10.312h22.517c2.581-3.415 0-10.312 0-10.312"/><path fill="#8E8E8E" fill-rule="evenodd" d="M188.383 130.739a.6.6 0 0 1 .749.398l.006.019c2.694 8.8 7.91 25.839 3.584 61.27a.6.6 0 1 1-1.191-.145c4.295-35.178-.869-52.048-3.529-60.738l-.017-.055a.6.6 0 0 1 .398-.749" clip-rule="evenodd"/><path fill="#C66E51" d="M163.873 80.58s-7.955 25.339-6.36 35.95c1.563 10.409-28.35-14.627-28.35-14.627s-2.568-12.6 1.546-38.059c4.114-25.46 33.173 16.734 33.173 16.734z"/><path fill="#000" d="m131.816 59.696 3.451-3.351 27.353 28.48c-1.147 4.052-2.838 10.457-4.004 16.766-4.376-1.33-9.541-3.892-15.493-8.408-8.123-8.758-11.715-17.48-13.3-23.31q.379-2.884.885-6.029c.269-1.66.643-3.033 1.108-4.148" opacity=".5" style="mix-blend-mode:overlay"/><path fill="#E4E4E4" d="m154.472 119.155-5.049-8.773s-12.035-5.581-20.896-24.761c-.692 10.872-4.745 12.993-4.745 12.993s10.779 19.881 30.689 20.531z"/><path fill="#E4E4E4" d="M158.628 101.335c1.917 7.259 2.989 9.693 2.989 9.693s.261 8.439-7.259 8.604l2.507-8.604c.632-3.254 1.415-7.416 1.763-9.693"/></g><path fill="#C66E51" d="M120.848 37.15s.421 4.68 1.076 12.922c.843 10.505 5.502-2.773 8.153 14.565 2.651 17.337 21.047 27.629 27.262 30.737 12.777 4.258 14.734 2.072 18.072 1.266 8.667-5.05 9.12-13.007 10.065-19.061 2.158-13.835 5.976-26.675 5.277-35.649-1.553-19.944-9.052-22.163-16.417-26.278S124.63 6.944 120.87 37.16v-.022z"/><path fill="#411917" d="M122.345 56.006s-.898-7.876 2.33-7.476c3.239.399 6.766 2.75 7.31 7.243.277 2.296.465 3.838.565 4.803a1.73 1.73 0 0 0 1.487 1.52l1.065.155a1.04 1.04 0 0 0 1.186-1.165c-.61-4.88-1.8-15.449-2.096-18.857-.226-2.597 3.647-1.864 4.592-4.065.875-2.036-3.682-4.554 0-5.674 28.529-9.393 50.582.333 50.582.333s-1.431-8.597-7.066-15.242c-5.635-6.633-19.955-12.767-34.664-9.14-13.799 3.395-24.315 12.313-27.609 25.17-3.295 12.856 0 20.975.987 23.382s1.331-.998 1.331-.998v.022z"/><path fill="#411917" d="M157.899 43.954s6.064-1.632 10.072-.475c5.324 1.537 5.544 3.446 5.544 3.446s1.622.253.874-2.58c-.748-2.832-2.333-1.259-2.333-1.259s-3.539-3.285-11.875-.993c-1.504.614-3.194 1.816-3.194 1.816s.006.617.913.034zM164.286 54.943c1.353-.133 2.307-1.753 2.118-3.628-.177-1.863-1.431-3.272-2.784-3.139s-2.307 1.753-2.119 3.627c.178 1.864 1.431 3.273 2.785 3.14"/><path fill="#411917" fill-rule="evenodd" d="M173.905 52.147s0 .002-.552.168l.552-.166a.577.577 0 0 1-1.103.337l-.001-.002-.009-.026a2 2 0 0 0-.056-.131 3.4 3.4 0 0 0-.305-.507c-.303-.42-.833-.982-1.731-1.482-1.793-.999-5.126-1.793-11.178-.59a.576.576 0 1 1-.225-1.132c6.214-1.234 9.853-.462 11.965.715 1.055.587 1.71 1.266 2.105 1.814.197.273.328.512.411.689q.063.133.092.214.016.04.024.066l.007.021.003.008z" clip-rule="evenodd"/><path fill="#000" d="M181.499 68.152s3.008-2.095 2.353-2.805-4.381-.843-5.446-.554c-2.596.71-6.556 1.364-3.905 4.293 1.243 2.028 2.597 2.113 5.221.505z" opacity=".5" style="mix-blend-mode:overlay"/><path fill="#411917" fill-rule="evenodd" d="M177.097 51.701a.576.576 0 0 0-.468.668l.568-.1-.568.1v.003l.001.005.003.018.013.067.05.25a26.72 26.72 0 0 0 1.082 3.757c.404 1.086.932 2.255 1.605 3.289.664 1.02 1.491 1.944 2.513 2.514.644.462 1.014.908 1.207 1.312.192.4.224.791.141 1.18-.173.806-.854 1.647-1.802 2.398l-.012.008-.123.073-.448.267c-.375.222-.885.52-1.427.826-.543.307-1.113.619-1.608.87-.513.26-.894.426-1.082.474a.577.577 0 0 0 .288 1.117c.328-.084.816-.31 1.315-.562a42 42 0 0 0 1.654-.895 82 82 0 0 0 1.901-1.107l.125-.076.044-.026h.001l-.299-.494.299.493a1 1 0 0 0 .057-.04c1.029-.808 1.985-1.87 2.245-3.084a2.94 2.94 0 0 0-.228-1.92q-.451-.952-1.606-1.773a1 1 0 0 0-.057-.035c-.806-.443-1.517-1.206-2.131-2.15-.611-.939-1.104-2.023-1.491-3.062a25.6 25.6 0 0 1-1.08-3.82l-.011-.06-.002-.014-.001-.003a.577.577 0 0 0-.668-.468" clip-rule="evenodd"/><path fill="#411917" d="M189.534 47.994s-2.384-2.157-6.539-1.974c-2.889.124-2.869.2-2.869.2s-1.369-.153.343-2.52c.404-.56 1.271-.423 1.379.503 1.565.003 2.025.04 5.393 1.188 1.71.88 2.206 1.852 2.206 1.852s.414.579.085.729zM184.551 55.252c.055-1.874-.799-3.427-1.908-3.46-1.109-.034-2.052 1.464-2.108 3.338-.055 1.875.799 3.428 1.908 3.461 1.109.034 2.052-1.464 2.108-3.339"/><path fill="#411917" fill-rule="evenodd" d="M180.525 53.938h-.001v.002h-.001q0 .001 0 0a.576.576 0 0 1-1-.574l.501.285a22 22 0 0 1-.5-.286v-.001l.001-.002.003-.006.009-.015.029-.045a3.1 3.1 0 0 1 .488-.58 3.7 3.7 0 0 1 1.622-.9c1.515-.391 3.668.048 6.574 2.636a.576.576 0 1 1-.767.861c-2.762-2.459-4.53-2.635-5.519-2.38a2.5 2.5 0 0 0-1.43.99l-.01.017M165.833 77.356a21.3 21.3 0 0 0 5.726 1.414.863.863 0 0 1 .79.88.79.79 0 0 1-.852.768 22.9 22.9 0 0 1-6.282-1.535c-2.469-1-5.002-2.58-6.717-5.001-.262-.371-.135-.88.254-1.115.39-.235.893-.107 1.161.26 1.47 2.024 3.657 3.413 5.92 4.329" clip-rule="evenodd"/><path fill="#C66E51" d="M128.381 52.566s-9.234-7.408-10.211.13c-.977 7.548 4.328 21.149 8.236 18.097 3.909-3.04 3.929-6.89 3.929-6.89z"/><path fill="#000" d="M122.752 64.393s-1.864-3.161-1.389-7.842c-.25-3.949 3.31-2.742 3.111-1.865-2.254 9.563-.17 11.178-.17 11.178" opacity=".5" style="mix-blend-mode:overlay"/><path fill="#411917" fill-rule="evenodd" d="M125.806 65.06c.413-.47.851-1.346 1.238-2.811a.577.577 0 1 1 1.115.294c-.403 1.53-.899 2.61-1.487 3.279-.299.34-.636.588-1.012.72a1.87 1.87 0 0 1-1.137.035c-.712-.197-1.331-.77-1.839-1.456-.518-.7-.975-1.595-1.339-2.563-.725-1.926-1.123-4.256-.832-6.114.146-.931.475-1.801 1.083-2.427.627-.645 1.493-.97 2.573-.901a.576.576 0 1 1-.074 1.15c-.785-.05-1.308.181-1.672.555-.382.393-.645 1.004-.77 1.802-.251 1.6.091 3.721.771 5.529.338.898.75 1.69 1.188 2.283.45.608.875.935 1.219 1.03a.72.72 0 0 0 .446-.01c.148-.053.328-.167.529-.395" clip-rule="evenodd"/><path fill="#411917" fill-rule="evenodd" d="m126.489 59.754-.572.07za.576.576 0 1 1-1.145.14m0 0v-.002l-.003-.018-.013-.081a4 4 0 0 0-.068-.305 3.8 3.8 0 0 0-.348-.893c-.173-.31-.392-.572-.667-.74-.262-.159-.612-.255-1.106-.174a.577.577 0 0 1-.187-1.139c.752-.123 1.384.018 1.894.328.497.303.84.744 1.074 1.164s.375.848.457 1.163c.041.16.069.295.086.391l.02.116.004.034.002.01v.006" clip-rule="evenodd"/><path fill="#411917" fill-rule="evenodd" d="m126.429 59.948-.354.455za.576.576 0 0 1-.707.91m0 0-.003-.001-.014-.011-.067-.048a4 4 0 0 0-.264-.167 4 4 0 0 0-.878-.383c-.341-.096-.683-.126-.995-.049-.298.073-.613.254-.905.661a.576.576 0 1 1-.938-.67c.443-.62.988-.969 1.568-1.111.566-.14 1.12-.071 1.582.059.464.13.866.332 1.148.497a5 5 0 0 1 .433.282l.028.02.008.007.003.002.001.002" clip-rule="evenodd"/><path fill="#F8F8F8" d="M120.964 97.478c1.53 9.947 12.92 22.652 12.92 22.652s3.741 1.31 10.061-3.568 5.566-6.199 5.566-6.199c-9.014-4.097-16.77-16.996-21.128-24.585 0 0-5.743 6.672-7.419 11.7M158.959 100.312s5.325 9.152 11.172 17.153c-3.347 1.152-5.15-.392-7.488-1.231-2.421-.869-5.695-6.029-5.695-6.029z"/><path fill="#535353" d="M138.481 35.228c28.528-9.393 51.148 0 51.148 0s0-7.267-7.33-17.646c-5.635-6.633-9.806-18.21-41.235-13.016-13.799 3.394-19.629 11.67-22.376 22.392-.76 2.967-2.231 12.24 0 19.559 4.931-3.815 13.122-8.13 19.793-11.29"/><path fill="#2E2E2E" d="m158.006 23.084-18.954 11.891c30.908-6.324 44.905-1.705 51.109.65 11.209-3.792 15.354-5.068 17.436-8.539 1.528-2.546.553-5.957-.973-7.278-11.323-11.358-26.868-10.819-48.618 3.276"/><path fill="#C66E51" d="m104.82 183.065-25.822 10.447s-6.144-3.751-5.812-12.111 19.298-7.066 30.114-19.842c11.652-5.734 8.751-40.707 11.71-45.927s7.251-2.805 10.5 2.163c3.249 4.969.038 17.179-1.812 29.336s-8.29 26.33-18.878 35.934"/><path fill="#178737" fill-rule="evenodd" d="M17.024 108.219a8.86 8.86 0 0 1 5.408-8.147l40.484-17.235a8.98 8.98 0 0 1 7.03 0l40.483 17.235a8.86 8.86 0 0 1 5.408 8.147v45.959q-.001 1.819-.199 3.575c-1.577 14.135-12.236 25.207-21.356 32.176q-.44.336-.883.665l-.042.032a92 92 0 0 1-10.448 6.712l-.055.029a83 83 0 0 1-3.739 1.937c-2.279 1.107-4.448 2.021-6.368 2.68-1.61.554-3.995 1.273-6.317 1.273s-4.706-.719-6.316-1.273c-1.92-.659-4.09-1.573-6.368-2.68a83 83 0 0 1-3.738-1.937l-.056-.029a92 92 0 0 1-10.447-6.712l-.044-.033q-.441-.328-.881-.664c-9.876-7.547-21.556-19.903-21.556-35.751zm86.285-1.535a5.91 5.91 0 0 1 3.605 5.431v42.063c0 22.98-34.7 40.215-40.484 40.215-5.317 0-35.085-14.572-39.842-34.784 4.187 17.788 27.747 31.209 36.961 34.171 1.563.502 2.881-.71 2.881-2.342 0 1.632 1.319 2.844 2.882 2.342 10.13-3.257 37.602-19.155 37.602-39.602v-5.909c0 20.446-27.472 36.345-37.602 39.601-1.56.502-2.876 1.931-2.882 3.559-.004-1.628-1.32-3.057-2.88-3.559-10.13-3.256-37.603-19.155-37.603-39.601v-36.154c0-2.364 1.418-4.5 3.605-5.431l34.535-14.703a5.99 5.99 0 0 1 4.687 0z" clip-rule="evenodd"/><path fill="#239842" d="m66.431 85.073-40.484 17.235v45.96c0 22.979 34.7 40.214 40.484 40.214s40.484-17.235 40.484-40.214v-45.96z"/><path fill="#178737" d="M66.431 188.482V85.073l40.483 17.235v45.96c0 22.978-34.697 40.213-40.483 40.214"/><path fill="#8FC7B8" fill-rule="evenodd" d="M17.024 102.308a8.86 8.86 0 0 1 5.408-8.148l40.484-17.234a8.98 8.98 0 0 1 7.03 0l40.483 17.234a8.86 8.86 0 0 1 5.408 8.148v45.959c0 15.848-11.68 28.204-21.555 35.751-5.212 3.982-10.608 7.161-15.167 9.375-2.279 1.106-4.448 2.021-6.368 2.68-1.61.554-3.995 1.273-6.317 1.273s-4.706-.719-6.316-1.273c-1.92-.659-4.09-1.574-6.368-2.68-4.559-2.214-9.955-5.393-15.166-9.375-9.876-7.547-21.556-19.903-21.556-35.751zm86.296-1.531a5.91 5.91 0 0 1 3.594 5.437v42.053c0 22.98-34.7 40.215-40.484 40.215s-40.483-17.235-40.483-40.215v-42.053a5.91 5.91 0 0 1 3.594-5.437l34.575-14.719a5.9 5.9 0 0 1 4.63 0z" clip-rule="evenodd"/><path fill="#FEE283" fill-rule="evenodd" d="M63.21 111.449a27.23 27.23 0 0 1 19.063 4.889 1.932 1.932 0 0 1-2.249 3.143 23.37 23.37 0 0 0-16.357-4.194 23.3 23.3 0 0 0-14.894 7.908 1.932 1.932 0 0 1-2.928-2.523 27.16 27.16 0 0 1 17.366-9.223m-3.578 9.416a18.8 18.8 0 0 1 6.8-1.271c4.958 0 9.717 1.957 13.228 5.444a22 22 0 0 1 2.544 3.02 1.933 1.933 0 0 1-3.167 2.214 18.3 18.3 0 0 0-2.1-2.492 14.9 14.9 0 0 0-10.506-4.322c-1.867 0-3.697.349-5.402 1.01a1.932 1.932 0 1 1-1.397-3.603m25.67.668a1.933 1.933 0 0 1 2.708.361 26.82 26.82 0 0 1 5.467 18.096 1.933 1.933 0 1 1-3.856-.259 22.96 22.96 0 0 0-4.68-15.489 1.933 1.933 0 0 1 .36-2.709m-29.367 3.514a1.933 1.933 0 0 1-.01 2.733 14.68 14.68 0 0 0-4.344 10.406c.011.976.055 1.805.098 2.62.022.417.044.829.061 1.256.05 1.221.053 2.453-.153 3.801-.417 2.73-1.648 5.658-4.513 10.06a1.932 1.932 0 1 1-3.239-2.108c2.733-4.199 3.634-6.589 3.932-8.535.151-.99.158-1.936.112-3.062q-.022-.51-.053-1.101a69 69 0 0 1-.11-2.898v-.022c0-4.938 1.975-9.671 5.486-13.159a1.93 1.93 0 0 1 2.733.009m-11.579.976a1.93 1.93 0 0 1 .945 2.564 22.92 22.92 0 0 0-1.71 13.883 1.933 1.933 0 0 1-3.796.721 26.8 26.8 0 0 1 1.997-16.223 1.93 1.93 0 0 1 2.564-.945m18.129 2.686a10.4 10.4 0 0 1 3.946-.78c4.157 0 7.168 2.67 8.222 4.059a10.225 10.225 0 0 1 2.101 6.197c.069 5.979.046 18.309-5.908 27.461a1.932 1.932 0 1 1-3.239-2.107c5.234-8.046 5.353-19.22 5.283-25.32v-.022a6.35 6.35 0 0 0-1.31-3.866l-.004-.005c-.614-.81-2.607-2.532-5.145-2.532-.85 0-1.691.166-2.476.489a6.5 6.5 0 0 0-2.096 1.391 6.4 6.4 0 0 0-1.397 2.077 1.932 1.932 0 1 1-3.567-1.488 10.3 10.3 0 0 1 2.24-3.331 10.3 10.3 0 0 1 3.35-2.223m20.52 4.833a1.93 1.93 0 0 1 2.28 1.505c.013.062.045.166.088.307.175.567.533 1.727.55 3.149l.009.755c.077 5.952.17 13.108-4.57 24.007a1.932 1.932 0 1 1-3.544-1.54c4.41-10.141 4.325-16.638 4.25-22.414l-.01-.764a5 5 0 0 0-.17-1.318c-.038-.14-.075-.262-.122-.413l-.053-.177a9 9 0 0 1-.214-.816 1.93 1.93 0 0 1 1.505-2.281m-16.723 2.728a1.933 1.933 0 0 1 2.076 1.778c.251 3.251.166 8.567-.925 13.927a1.933 1.933 0 0 1-3.786-.77c1.01-4.964 1.086-9.915.858-12.859a1.933 1.933 0 0 1 1.777-2.076m-8.183 3.709a1.93 1.93 0 0 1 1.989 1.874c.077 2.586.052 5.479-.76 8.759-.813 3.29-2.392 6.878-5.314 10.941a1.933 1.933 0 0 1-3.138-2.256c2.667-3.708 4.018-6.851 4.701-9.612.685-2.771.722-5.249.648-7.717a1.933 1.933 0 0 1 1.874-1.989m6.312 16.126a1.93 1.93 0 0 1 1.063 2.517c-1.105 2.718-2.614 5.295-4.674 7.341a1.932 1.932 0 0 1-2.723-2.741c1.587-1.577 2.845-3.662 3.817-6.055a1.93 1.93 0 0 1 2.517-1.062" clip-rule="evenodd"/><path fill="#C66E51" d="M2.592 120.166c-.618 5.587 5.035 5.796 9.839 6.223 6.654.592 11.848-.49 12.316-5.747.392-4.407-5.103-6.672-11.758-7.264-2.363-.21-9.636-.091-10.397 6.788"/><path fill="#C66E51" d="M3.204 130.297c-2.604 10.437 7.308 7.938 8.858 8.069 6.657.558 16.68.636 17.294-6.689.432-5.148-10.143-5.766-16.8-6.325-1.608-.135-7.676-1.77-9.352 4.945"/><path fill="#C66E51" d="M5.128 143.503c-1.358 6.785 1.704 7.048 10.307 7.365 6.676.245 11.807-1.105 12.001-6.379.163-4.421-5.443-6.398-12.119-6.644-6.676-.245-9.17.57-10.19 5.658"/><path fill="#C66E51" d="M10.31 158.092c1.243 4.815 4.895 5.87 8.522 5.231 5.66-.998 9.574-3.229 8.239-8.282-1.12-4.234-6.376-5.08-12.037-4.082s-5.661 3.503-4.724 7.133"/></g><defs><clipPath id="miEDBoBZOzNbL5nJSbg5TbwIQBsydL0Ewz1hKtSCqRE_a"><path fill="#fff" d="M0 0h240v240H0z"/></clipPath><clipPath id="miEDBoBZOzNbL5nJSbg5TbwIQBsydL0Ewz1hKtSCqRE_b"><rect width="200" height="200" x="19.999" y="20" fill="#fff" rx="100"/></clipPath></defs></svg>