<svg xmlns="http://www.w3.org/2000/svg" width="150" height="150" fill="none" class="persona-ilustration" viewBox="0 0 150 150"><g clip-path="url(#537mG3Dfbf_a)"><g clip-path="url(#537mG3Dfbf_b)"><rect width="125" height="125" x="12.499" y="12.5" fill="#D3EDFF" rx="62.5"/><path fill="#C66E51" d="M140.551 143.089s-18.36-62.623-27.893-69.877c-4.792-3.648-21.713-9.5-23.556 2.055-1.214 7.606 18.117 35.513 16.977 41.367 8.604 12.761 18.355 36.135 18.355 36.135s12.658 2.496 16.117-9.68"/><path fill="#F8F8F8" d="M114.322 75.872c-1.726-1.925-6.845-5.944-9.048-7.438.71-.224 2.772.468 4.879 1.6 1.424.765 4.661 4.423 6.715 7.261l.898 2.42c-.411-.336-1.328-1.483-3.444-3.843"/><path fill="#E4E4E4" d="M100.041 108.275c3.96 2.465 23.504 1.733 27.909-7.777-4.485-9.841-15.42-40.962-31.898-30.197-5.678 3.71 1.717 27.754 3.989 37.974"/><path fill="#E4E4E4" d="M117.125 80.663s-12.806-12.06-15.015-12.92c-10.34-4.031-29.536-7.394-34.295-6.796S48.189 65.352 53.847 87.01c8.423 32.236-14.278 89.823-14.278 89.823s54.406 3.739 74.247-.14c3.037-21.617 4.268-30.179 6.601-63.314 3.001-25.055-3.292-32.716-3.292-32.716"/><path fill="#EFEFEF" fill-rule="evenodd" d="M95.328 68.834a.75.75 0 0 1 .904.554c2.82 11.741 5.977 32.924 1.498 67.252a.75.75 0 0 1-1.487-.194c4.455-34.147 1.307-55.145-1.47-66.708a.75.75 0 0 1 .555-.904" clip-rule="evenodd"/><path fill="#EFEFEF" d="M75.6 116.161c0-2.264.125-14.8.125-20.371 4.246.147 13.727.442 17.689.442.778 3.113.442 14.462-.207 19.532-2.417.354-10.036 1.246-17.606.397M106.73 116.483c0-2.264.097-14.799.097-20.371 3.285.147 10.62.442 13.685.442.603 3.113.343 14.462-.159 19.533-1.871.353-7.765 1.245-13.623.396"/><path fill="#fff" d="M93.259 87.637c-.445 0-13.16-.802-18.695-.802l.566 6.27h18.653c.026-1.827-.08-5.468-.524-5.468M118.861 87.946h-13.209l.661 5.482h13.925c.021-1.828-1.033-5.482-1.377-5.482"/><path fill="#E4E4E4" d="M67.754 101.902c-4.013 2.38-21.227 2.451-25.428-7.15 0-13.132 18.336-40.037 26.346-31.865 5.598 3.83 1.571 28.845-.918 39.015"/><path fill="#EFEFEF" d="M61.876 61.595c-6.442 2.957-9.7 8.225-11.137 11.136 2.07.908 3.635 1.16 5.755.555 2.202-5.278 9.057-8.537 11.849-8.996l2.37-2.065c-.15-.301-2.37-1.563-4.122-1.409-1.309 0-3.668.298-4.715.78"/><path fill="#8E8E8E" d="m93.455 96.742-18.235-.317c.716 2.624.54 3.889.54 6.445h18.167c-.472-3.197-.472-6.128-.472-6.128M120.544 96.874l-14.108-.318c.554 2.624.418 3.889.418 6.445h14.055c-.365-3.298-.365-6.127-.365-6.127"/><path fill="#EFEFEF" d="M93.77 95.442H74.92c.692 2.624.66 3.889.66 6.445h18.19c2.085-2.134 0-6.445 0-6.445M120.787 95.765h-14.583c.535 2.624.51 3.89.51 6.445h14.073c1.613-2.134 0-6.445 0-6.445"/><path fill="#8E8E8E" fill-rule="evenodd" d="M117.739 81.712c.198-.06.408.05.469.249l.003.012c1.684 5.5 4.944 16.15 2.24 38.293a.375.375 0 1 1-.744-.091c2.684-21.986-.543-32.53-2.206-37.96l-.01-.035a.374.374 0 0 1 .248-.468" clip-rule="evenodd"/><path fill="#C66E51" d="M102.421 50.363s-4.972 15.836-3.975 22.468c.976 6.506-17.719-9.142-17.719-9.142s-1.605-7.874.966-23.786 20.733 10.458 20.733 10.458z"/><path fill="#000" d="m82.386 37.31 2.156-2.094 17.096 17.8c-.717 2.532-1.774 6.535-2.503 10.478-2.735-.83-5.963-2.432-9.683-5.255-5.076-5.473-7.321-10.925-8.312-14.569q.236-1.802.553-3.767c.168-1.038.402-1.896.693-2.593" opacity=".5" style="mix-blend-mode:overlay"/><path fill="#E4E4E4" d="M96.545 74.472 93.39 68.99s-7.522-3.488-13.06-15.476c-.433 6.795-2.966 8.12-2.966 8.12S84.1 74.06 96.544 74.467z"/><path fill="#E4E4E4" d="M99.142 63.334c1.198 4.537 1.869 6.059 1.869 6.059s.163 5.274-4.537 5.377l1.567-5.377c.395-2.034.884-4.635 1.101-6.059"/></g><path fill="#C66E51" d="M75.53 23.218s.263 2.926.672 8.077c.527 6.566 3.439-1.733 5.096 9.103s13.154 17.268 17.04 19.21c7.984 2.662 9.208 1.296 11.294.792 5.417-3.156 5.7-8.13 6.29-11.913 1.349-8.647 3.735-16.672 3.299-22.28-.971-12.466-5.658-13.852-10.261-16.424-4.603-2.573-31.066-5.443-33.416 13.442v-.014z"/><path fill="#411917" d="M76.466 35.004s-.562-4.922 1.456-4.673c2.024.25 4.229 1.72 4.569 4.527.173 1.435.29 2.399.353 3.002.056.492.437.88.929.95l.666.097a.65.65 0 0 0 .741-.728c-.38-3.05-1.125-9.656-1.31-11.786-.14-1.623 2.28-1.165 2.87-2.54.547-1.273-2.301-2.847 0-3.547 17.831-5.87 31.614.208 31.614.208s-.894-5.373-4.416-9.526c-3.522-4.145-12.472-7.98-21.665-5.712-8.625 2.121-15.197 7.695-17.256 15.73s0 13.11.617 14.615c.617 1.504.832-.624.832-.624v.014z"/><path fill="#411917" d="M98.687 27.471s3.79-1.02 6.295-.297c3.328.96 3.465 2.154 3.465 2.154s1.014.158.546-1.612-1.458-.787-1.458-.787-2.212-2.054-7.422-.62c-.94.383-1.996 1.134-1.996 1.134s.004.386.57.021zM102.679 34.339c.846-.083 1.442-1.095 1.324-2.267-.111-1.165-.894-2.045-1.74-1.962s-1.442 1.095-1.324 2.267c.111 1.165.894 2.045 1.74 1.962"/><path fill="#411917" fill-rule="evenodd" d="m108.691 32.592-.345.105za.361.361 0 0 1-.69.21l-.006-.017-.035-.082a2 2 0 0 0-.19-.317c-.19-.262-.521-.613-1.082-.925-1.121-.625-3.204-1.121-6.987-.37a.36.36 0 1 1-.14-.707c3.884-.772 6.158-.289 7.478.447.659.367 1.069.791 1.316 1.134.123.17.204.32.257.43q.038.083.057.134l.015.041.004.014.002.004v.002z" clip-rule="evenodd"/><path fill="#000" d="M113.437 42.595s1.88-1.31 1.471-1.753c-.409-.444-2.739-.527-3.404-.347-1.622.444-4.098.853-2.441 2.683.777 1.268 1.623 1.321 3.263.316z" opacity=".5" style="mix-blend-mode:overlay"/><path fill="#411917" fill-rule="evenodd" d="M110.686 32.313a.36.36 0 0 0-.293.418l.355-.063-.355.063v.001l.001.003.002.012.008.042.031.156a16.808 16.808 0 0 0 .676 2.348c.253.68.583 1.41 1.004 2.056.415.637.931 1.215 1.57 1.571.403.289.634.567.755.82.119.25.139.495.087.738-.107.503-.533 1.029-1.126 1.498l-.007.005-.077.046-.28.167c-.234.138-.553.325-.892.516a26 26 0 0 1-1.005.544c-.321.162-.559.266-.676.296a.36.36 0 1 0 .18.699c.205-.053.51-.194.822-.352.323-.164.69-.365 1.034-.56.344-.194.667-.383.904-.523l.284-.169.078-.047.027-.016h.001l-.187-.309.187.309.036-.025c.643-.506 1.24-1.17 1.402-1.928.084-.39.05-.798-.142-1.2q-.282-.594-1.004-1.108l-.035-.022c-.504-.277-.948-.754-1.332-1.344-.382-.587-.69-1.264-.932-1.913a16 16 0 0 1-.675-2.389l-.007-.036-.001-.01-.001-.001a.36.36 0 0 0-.417-.293" clip-rule="evenodd"/><path fill="#411917" d="M118.459 29.996s-1.49-1.348-4.087-1.234c-1.806.078-1.793.125-1.793.125s-.856-.095.214-1.574c.253-.35.795-.265.862.314.978.002 1.266.025 3.371.742 1.069.55 1.379 1.158 1.379 1.158s.258.362.053.456zM115.344 34.533c.035-1.172-.499-2.143-1.192-2.163s-1.283.915-1.317 2.086c-.035 1.172.499 2.142 1.192 2.163s1.283-.915 1.317-2.087"/><path fill="#411917" fill-rule="evenodd" d="m112.828 33.711-.001.001v.001a.361.361 0 0 1-.625-.36l.313.18-.313-.18.001-.002.002-.003.006-.01.017-.028.063-.09a2.29 2.29 0 0 1 1.256-.835c.947-.244 2.293.03 4.109 1.647a.36.36 0 1 1-.479.539c-1.727-1.537-2.832-1.648-3.45-1.488a1.58 1.58 0 0 0-.858.568l-.035.051-.007.01M103.646 48.348a13.3 13.3 0 0 0 3.579.883.54.54 0 0 1 .494.55.494.494 0 0 1-.533.48 14.3 14.3 0 0 1-3.926-.96c-1.544-.624-3.127-1.611-4.198-3.125a.487.487 0 0 1 .158-.696.55.55 0 0 1 .726.162c.919 1.265 2.286 2.133 3.7 2.705" clip-rule="evenodd"/><path fill="#C66E51" d="M80.238 32.854s-5.77-4.63-6.382.081c-.61 4.718 2.705 13.218 5.148 11.311 2.443-1.9 2.455-4.306 2.455-4.306z"/><path fill="#000" d="M76.72 40.246s-1.165-1.976-.868-4.902c-.156-2.467 2.069-1.713 1.944-1.165-1.408 5.977-.106 6.986-.106 6.986" opacity=".5" style="mix-blend-mode:overlay"/><path fill="#411917" fill-rule="evenodd" d="M78.629 40.662c.258-.293.532-.841.774-1.757a.36.36 0 0 1 .697.184c-.252.956-.562 1.632-.93 2.05a1.53 1.53 0 0 1-.632.45 1.17 1.17 0 0 1-.71.021c-.446-.123-.833-.48-1.15-.91-.324-.437-.61-.996-.837-1.601-.453-1.204-.702-2.66-.52-3.822.091-.582.297-1.125.677-1.517.392-.403.933-.606 1.608-.563a.36.36 0 0 1-.047.72c-.49-.032-.817.112-1.044.346-.239.246-.404.628-.482 1.126-.157 1 .057 2.326.482 3.456.212.561.469 1.056.743 1.427.28.38.547.584.761.643.1.028.19.025.28-.006a.8.8 0 0 0 .33-.247" clip-rule="evenodd"/><path fill="#411917" fill-rule="evenodd" d="m79.056 37.346-.358.044za.36.36 0 0 1-.715.089m0 0v-.002l-.002-.012-.009-.05a2.6 2.6 0 0 0-.26-.749 1.2 1.2 0 0 0-.416-.462c-.164-.1-.383-.16-.692-.11a.36.36 0 1 1-.117-.71c.47-.078.865.01 1.184.204.31.19.525.465.671.727a3.1 3.1 0 0 1 .355 1.066v.006l.001.002v.001" clip-rule="evenodd"/><path fill="#411917" fill-rule="evenodd" d="m79.018 37.468-.221.284za.36.36 0 0 1-.442.57m0 0-.002-.001-.009-.007a2 2 0 0 0-.206-.134 2.4 2.4 0 0 0-.55-.24 1.2 1.2 0 0 0-.62-.03c-.187.045-.384.158-.566.413a.36.36 0 1 1-.587-.42c.277-.387.618-.605.98-.694.354-.086.7-.044.989.038a3.1 3.1 0 0 1 .988.487l.017.012.005.004.002.002h.001" clip-rule="evenodd"/><path fill="#F8F8F8" d="M75.603 60.924c.956 6.217 8.075 14.157 8.075 14.157s2.338.819 6.288-2.23 3.479-3.874 3.479-3.874C87.81 66.416 82.963 58.354 80.24 53.611c0 0-3.59 4.17-4.637 7.313M99.35 62.695s3.328 5.72 6.982 10.72c-2.092.72-3.219-.244-4.68-.769-1.513-.543-3.56-3.768-3.56-3.768z"/><path fill="#535353" d="M86.55 22.017c17.831-5.87 31.968 0 31.968 0s0-4.542-4.581-11.028c-3.522-4.146-6.129-11.38-25.772-8.136-8.624 2.122-12.268 7.295-13.985 13.996-.475 1.854-1.395 7.65 0 12.224 3.082-2.384 8.201-5.081 12.37-7.056"/><path fill="#2E2E2E" d="M98.753 14.427 86.907 21.86c19.317-3.952 28.066-1.065 31.943.406 7.006-2.37 9.596-3.167 10.898-5.336.954-1.591.346-3.723-.609-4.549-7.076-7.099-16.792-6.762-30.386 2.047"/><path fill="#C66E51" d="m65.512 114.416-16.138 6.529s-3.84-2.344-3.633-7.57c.207-5.225 12.062-4.416 18.822-12.401 7.282-3.584 5.469-25.441 7.318-28.704 1.85-3.262 4.532-1.753 6.562 1.352s.025 10.737-1.132 18.335-5.181 16.456-11.799 22.459"/><path fill="#178737" fill-rule="evenodd" d="M10.64 67.637a5.54 5.54 0 0 1 3.38-5.092l25.302-10.772a5.6 5.6 0 0 1 4.394 0l25.302 10.772a5.54 5.54 0 0 1 3.38 5.092V96.36q-.001 1.137-.124 2.235c-.986 8.834-7.648 15.754-13.348 20.11q-.276.21-.552.415l-.026.021a58 58 0 0 1-6.53 4.194l-.035.019a53 53 0 0 1-2.336 1.21c-1.425.692-2.78 1.263-3.98 1.675-1.007.346-2.497.796-3.948.796s-2.942-.45-3.948-.796c-1.2-.412-2.556-.983-3.98-1.675a53 53 0 0 1-2.337-1.21l-.034-.019a58 58 0 0 1-6.53-4.194l-.027-.021a58 58 0 0 1-.551-.415c-6.172-4.717-13.472-12.44-13.472-22.344zm53.928-.96a3.69 3.69 0 0 1 2.253 3.395v26.29c0 14.362-21.688 25.134-25.302 25.134-3.324 0-21.929-9.108-24.902-21.74 2.617 11.117 17.342 19.505 23.101 21.356.977.314 1.8-.443 1.8-1.463 0 1.02.825 1.777 1.801 1.463 6.332-2.035 23.502-11.971 23.502-24.75v-3.694c0 12.779-17.17 22.716-23.501 24.751-.975.314-1.798 1.207-1.801 2.224-.003-1.017-.826-1.91-1.801-2.224-6.331-2.035-23.502-11.972-23.502-24.751V70.072c0-1.477.887-2.813 2.254-3.395l21.584-9.189a3.74 3.74 0 0 1 2.93 0z" clip-rule="evenodd"/><path fill="#239842" d="M41.52 53.17 16.216 63.944v28.724c0 14.363 21.688 25.134 25.302 25.134s25.302-10.771 25.302-25.134V63.943z"/><path fill="#178737" d="M41.52 117.802V53.171L66.82 63.943v28.724c0 14.362-21.686 25.134-25.301 25.135"/><path fill="#8FC7B8" fill-rule="evenodd" d="M10.64 63.942a5.54 5.54 0 0 1 3.38-5.092l25.302-10.772a5.6 5.6 0 0 1 4.394 0L69.018 58.85a5.54 5.54 0 0 1 3.38 5.092v28.725c0 9.905-7.3 17.628-13.472 22.344a57 57 0 0 1-9.48 5.86c-1.424.691-2.78 1.263-3.98 1.675-1.006.346-2.496.795-3.947.795s-2.942-.449-3.948-.795c-1.2-.412-2.556-.984-3.98-1.675a57 57 0 0 1-9.48-5.86c-6.171-4.716-13.471-12.439-13.471-22.344zm53.935-.956a3.69 3.69 0 0 1 2.246 3.398v26.283c0 14.362-21.688 25.134-25.302 25.134s-25.302-10.772-25.302-25.134V66.384c0-1.48.884-2.818 2.246-3.398l21.61-9.2a3.7 3.7 0 0 1 2.892 0z" clip-rule="evenodd"/><path fill="#FEE283" fill-rule="evenodd" d="M39.507 69.656a17.02 17.02 0 0 1 11.914 3.056 1.208 1.208 0 1 1-1.406 1.963 14.6 14.6 0 0 0-10.223-2.62 14.56 14.56 0 0 0-9.31 4.942 1.208 1.208 0 1 1-1.829-1.577 16.97 16.97 0 0 1 10.854-5.764M37.27 75.54a11.76 11.76 0 0 1 12.517 2.608c.58.576 1.117 1.21 1.59 1.888a1.208 1.208 0 0 1-1.98 1.383 11.4 11.4 0 0 0-1.312-1.558 9.341 9.341 0 0 0-9.942-2.07 1.208 1.208 0 1 1-.873-2.251m16.043.418a1.21 1.21 0 0 1 1.693.225 16.76 16.76 0 0 1 3.417 11.31 1.208 1.208 0 0 1-2.41-.162c.233-3.47-.805-6.909-2.925-9.68a1.21 1.21 0 0 1 .225-1.693M34.96 78.155c.47.473.468 1.237-.006 1.707a9.18 9.18 0 0 0-2.715 6.505c.007.61.035 1.128.062 1.637.013.26.027.518.038.785.03.763.033 1.533-.096 2.376-.261 1.706-1.03 3.536-2.821 6.287a1.208 1.208 0 1 1-2.024-1.317c1.708-2.625 2.271-4.118 2.457-5.335.095-.618.099-1.21.07-1.914q-.013-.319-.033-.687c-.028-.539-.06-1.151-.068-1.812v-.014c0-3.086 1.234-6.044 3.428-8.224a1.21 1.21 0 0 1 1.708.006m-7.237.61c.606.28.87.997.591 1.602a14.33 14.33 0 0 0-1.068 8.677 1.207 1.207 0 1 1-2.373.45 16.74 16.74 0 0 1 1.248-10.139c.28-.605.997-.87 1.602-.59m11.33 1.678a6.5 6.5 0 0 1 2.467-.487c2.598 0 4.48 1.669 5.14 2.537a6.4 6.4 0 0 1 1.313 3.873c.042 3.737.028 11.443-3.693 17.163a1.208 1.208 0 1 1-2.025-1.317c3.272-5.028 3.346-12.012 3.302-15.825v-.014a3.97 3.97 0 0 0-.818-2.416l-.003-.003c-.384-.506-1.63-1.583-3.216-1.583a4.07 4.07 0 0 0-2.857 1.175 4 4 0 0 0-.873 1.298 1.208 1.208 0 1 1-2.23-.93c.325-.778.801-1.486 1.4-2.081a6.5 6.5 0 0 1 2.094-1.39m12.825 3.02a1.21 1.21 0 0 1 1.426.942q.013.058.055.192c.11.354.333 1.079.344 1.967l.005.472c.048 3.72.106 8.193-2.856 15.005a1.207 1.207 0 1 1-2.215-.963c2.756-6.338 2.703-10.398 2.656-14.008l-.006-.478a3.1 3.1 0 0 0-.106-.823 7 7 0 0 0-.11-.37 6 6 0 0 1-.133-.51 1.21 1.21 0 0 1 .94-1.425m-10.45 1.706a1.21 1.21 0 0 1 1.296 1.111c.158 2.032.104 5.354-.577 8.705a1.208 1.208 0 1 1-2.367-.482c.631-3.102.679-6.197.536-8.037a1.21 1.21 0 0 1 1.111-1.297m-5.115 2.318a1.21 1.21 0 0 1 1.243 1.171c.048 1.616.032 3.424-.475 5.475-.508 2.056-1.495 4.298-3.322 6.838a1.207 1.207 0 0 1-1.96-1.41c1.666-2.318 2.51-4.282 2.938-6.008.428-1.731.45-3.28.405-4.823a1.21 1.21 0 0 1 1.17-1.243m3.945 10.079c.618.25.915.955.664 1.573-.69 1.699-1.634 3.309-2.921 4.588a1.208 1.208 0 1 1-1.702-1.713c.992-.986 1.778-2.289 2.385-3.784a1.21 1.21 0 0 1 1.574-.664" clip-rule="evenodd"/><path fill="#C66E51" d="M1.62 75.104c-.386 3.491 3.147 3.622 6.15 3.89 4.158.37 7.405-.307 7.697-3.593.245-2.754-3.19-4.17-7.349-4.54-1.477-.131-6.022-.056-6.498 4.242"/><path fill="#C66E51" d="M2.003 81.436c-1.628 6.523 4.567 4.961 5.536 5.043 4.16.349 10.424.397 10.809-4.181.27-3.217-6.34-3.604-10.5-3.953-1.006-.084-4.798-1.106-5.845 3.09"/><path fill="#C66E51" d="M3.205 89.69c-.85 4.24 1.065 4.405 6.442 4.603 4.172.153 7.38-.69 7.5-3.987.102-2.763-3.401-3.999-7.574-4.153-4.172-.153-5.732.357-6.368 3.536"/><path fill="#C66E51" d="M6.444 98.808c.776 3.009 3.059 3.669 5.326 3.269 3.538-.624 5.984-2.018 5.15-5.176-.7-2.646-3.986-3.175-7.524-2.551s-3.538 2.189-2.952 4.458"/></g><defs><clipPath id="537mG3Dfbf_a"><path fill="#fff" d="M0 0h150v150H0z"/></clipPath><clipPath id="537mG3Dfbf_b"><rect width="125" height="125" x="12.499" y="12.5" fill="#fff" rx="62.5"/></clipPath></defs></svg>