<svg xmlns="http://www.w3.org/2000/svg" width="16" height="16" fill="none" class="persona-icon" viewBox="0 0 16 16"><path fill="currentColor" fill-rule="evenodd" d="M5.572 2.858c0-.632.511-1.143 1.142-1.143h2.572c.631 0 1.143.511 1.143 1.142v.075h.142A2.43 2.43 0 0 1 13 5.361v6.496a2.43 2.43 0 0 1-2.429 2.428H5.43A2.43 2.43 0 0 1 3 11.857V5.36a2.43 2.43 0 0 1 2.429-2.429h.143zm4.857 1.285c0 .631-.512 1.143-1.143 1.143H6.714a1.143 1.143 0 0 1-1.142-1.143v-.211h-.143c-.79 0-1.429.64-1.429 1.429v6.496c0 .789.64 1.428 1.429 1.428h5.142c.79 0 1.429-.64 1.429-1.428V5.36c0-.79-.64-1.429-1.429-1.429h-.142zM10.23 8.51 7.728 11.01a.5.5 0 0 1-.707 0L5.77 9.761a.5.5 0 1 1 .707-.708l.898.898 2.148-2.149a.5.5 0 1 1 .707.708M6.714 2.715a.143.143 0 0 0-.143.143v1.285c0 .08.065.143.143.143h2.572a.143.143 0 0 0 .143-.143V2.858a.143.143 0 0 0-.143-.143z" clip-rule="evenodd"/></svg>