<svg xmlns="http://www.w3.org/2000/svg" width="32" height="32" fill="none" class="persona-icon" viewBox="0 0 32 32"><path fill="currentColor" fill-rule="evenodd" d="M11.143 5.714a2.286 2.286 0 0 1 2.285-2.286h5.143a2.286 2.286 0 0 1 2.286 2.286v.15h.286A4.857 4.857 0 0 1 26 10.722v12.992a4.857 4.857 0 0 1-4.857 4.857H10.857A4.857 4.857 0 0 1 6 23.714V10.722a4.857 4.857 0 0 1 4.857-4.858h.286zm9.714 2.572a2.286 2.286 0 0 1-2.286 2.285h-5.143a2.286 2.286 0 0 1-2.285-2.285v-.422h-.286A2.857 2.857 0 0 0 8 10.722v12.992a2.857 2.857 0 0 0 2.857 2.857h10.286A2.857 2.857 0 0 0 24 23.714V10.722a2.857 2.857 0 0 0-2.857-2.858h-.286zM13.43 5.429a.286.286 0 0 0-.286.285v2.572c0 .157.128.285.285.285h5.143a.286.286 0 0 0 .286-.285V5.714a.286.286 0 0 0-.286-.286zm7.031 11.59-5.004 5.004a1 1 0 0 1-1.414 0l-2.502-2.502a1 1 0 1 1 1.414-1.414l1.795 1.795 4.297-4.297a1 1 0 1 1 1.414 1.415" clip-rule="evenodd"/></svg>