<svg xmlns="http://www.w3.org/2000/svg" width="16" height="16" fill="none" class="persona-icon" viewBox="0 0 16 16"><path fill="currentColor" fill-rule="evenodd" d="M4.147 2.667h7.706c1.186 0 2.147.96 2.147 2.146v4.188H8.665v4.332H4.147A2.147 2.147 0 0 1 2 11.187V4.813c0-1.185.961-2.146 2.147-2.146m3.672 5.448a.3.3 0 0 0 .349 0l4.811-3.52a1.15 1.15 0 0 0-1.126-.928H4.147c-.559 0-1.024.4-1.126.928z" clip-rule="evenodd"/><path fill="currentColor" d="M9.813 10.03a.5.5 0 0 1 .707 0l1.1 1.1a.5.5 0 0 1 0 .707l-1.1 1.1a.5.5 0 1 1-.707-.707l.747-.747-.747-.746a.5.5 0 0 1 0-.707"/><path fill="currentColor" d="M11.813 10.03a.5.5 0 0 1 .707 0l1.1 1.1a.5.5 0 0 1 0 .707l-1.1 1.1a.5.5 0 1 1-.707-.707l.747-.747-.747-.746a.5.5 0 0 1 0-.707"/></svg>