<svg xmlns="http://www.w3.org/2000/svg" width="20" height="20" fill="none" class="persona-icon" viewBox="0 0 20 20"><path fill="currentColor" fill-rule="evenodd" d="M5.516 3.75a2.54 2.54 0 0 0-2.541 2.542v7.416a2.54 2.54 0 0 0 2.541 2.541h5.257v-5.084h6.252V6.292a2.54 2.54 0 0 0-2.541-2.541zm4.299 6.348L4.254 6.02a1.29 1.29 0 0 1 1.262-1.018h8.968c.62 0 1.137.436 1.262 1.018l-5.576 4.079a.31.31 0 0 1-.355 0" clip-rule="evenodd"/><path fill="currentColor" d="M12.08 12.331a.625.625 0 0 1 .883 0l1.28 1.28a.625.625 0 0 1 0 .884l-1.28 1.28a.625.625 0 1 1-.884-.884l.838-.838-.838-.838a.625.625 0 0 1 0-.884"/><path fill="currentColor" d="M14.407 12.331a.625.625 0 0 1 .883 0l1.28 1.28a.625.625 0 0 1 0 .884l-1.28 1.28a.625.625 0 1 1-.883-.884l.838-.838-.838-.838a.625.625 0 0 1 0-.884"/></svg>