<svg xmlns="http://www.w3.org/2000/svg" width="24" height="24" fill="none" class="persona-icon" viewBox="0 0 24 24"><path fill="currentColor" fill-rule="evenodd" d="M6.22 4h11.56A3.22 3.22 0 0 1 21 7.22v6.282h-8.003V20H6.22A3.22 3.22 0 0 1 3 16.78V7.22A3.22 3.22 0 0 1 6.22 4m13.249 2.892A1.72 1.72 0 0 0 17.78 5.5H6.22c-.838 0-1.536.6-1.689 1.393l7.198 5.279a.45.45 0 0 0 .522 0z" clip-rule="evenodd"/><path fill="currentColor" d="M14.72 15.045a.75.75 0 0 1 1.06 0l1.65 1.65a.75.75 0 0 1 0 1.06l-1.65 1.65a.75.75 0 1 1-1.06-1.06l1.12-1.12-1.12-1.12a.75.75 0 0 1 0-1.06"/><path fill="currentColor" d="M17.72 15.045a.75.75 0 0 1 1.06 0l1.65 1.65a.75.75 0 0 1 0 1.06l-1.65 1.65a.75.75 0 1 1-1.06-1.06l1.12-1.12-1.12-1.12a.75.75 0 0 1 0-1.06"/></svg>