<svg xmlns="http://www.w3.org/2000/svg" width="32" height="32" fill="none" class="persona-icon" viewBox="0 0 32 32"><path fill="currentColor" fill-rule="evenodd" d="M8.293 5.333h15.414A4.293 4.293 0 0 1 28 9.627v8.375H17.33v8.665H8.292A4.293 4.293 0 0 1 4 22.373V9.627a4.293 4.293 0 0 1 4.293-4.294M25.958 9.19a2.294 2.294 0 0 0-2.251-1.857H8.293c-1.117 0-2.048.8-2.251 1.857l9.597 7.039c.21.148.486.148.696 0z" clip-rule="evenodd"/><path fill="currentColor" d="M19.626 20.06a1 1 0 0 1 1.414 0l2.2 2.2a1 1 0 0 1 0 1.414l-2.2 2.2a1 1 0 0 1-1.414-1.414l1.493-1.493-1.493-1.493a1 1 0 0 1 0-1.414"/><path fill="currentColor" d="M23.626 20.06a1 1 0 0 1 1.414 0l2.2 2.2a1 1 0 0 1 0 1.414l-2.2 2.2a1 1 0 0 1-1.414-1.414l1.493-1.493-1.493-1.493a1 1 0 0 1 0-1.414"/></svg>