<svg xmlns="http://www.w3.org/2000/svg" width="16" height="16" fill="none" class="persona-icon" viewBox="0 0 16 16"><path fill="currentColor" d="M3.2 3.51C3.2 2.68 3.867 2 4.7 2c.832 0 1.5.68 1.5 1.51 0 .828-.668 1.508-1.5 1.508-.833 0-1.5-.68-1.5-1.509M9.8 3.51c0-.83.667-1.51 1.5-1.51.832 0 1.5.68 1.5 1.51 0 .828-.668 1.508-1.5 1.508-.833 0-1.5-.68-1.5-1.509M3.2 9.06c0-.83.667-1.51 1.5-1.51.832 0 1.5.68 1.5 1.51 0 .829-.668 1.509-1.5 1.509-.833 0-1.5-.68-1.5-1.51M4.047 10.78c-.663 0-1.293.292-1.721.798-.21.25-.326.564-.326.89v.041C2 13.333 2.667 14 3.49 14h2.42a1.49 1.49 0 0 0 1.49-1.49v-.042c0-.326-.115-.64-.326-.89a2.26 2.26 0 0 0-1.721-.798z"/><path fill="currentColor" d="M2.326 6.028a2.26 2.26 0 0 1 1.721-.799h1.306c.663 0 1.293.292 1.721.799.21.249.326.564.326.89v1.031a.5.5 0 0 1-.5.5h-.12A2.17 2.17 0 0 0 4.7 6.885c-.993 0-1.819.666-2.08 1.566H2.5a.5.5 0 0 1-.5-.5V6.917c0-.326.115-.641.326-.89M8.926 11.578a2.26 2.26 0 0 1 1.722-.798h1.305c.663 0 1.293.292 1.721.798.21.25.326.564.326.89v.041A1.49 1.49 0 0 1 12.51 14h-2.42a1.49 1.49 0 0 1-1.49-1.49v-.042c0-.326.116-.64.326-.89M9.8 9.06c0-.83.667-1.51 1.5-1.51.832 0 1.5.68 1.5 1.51 0 .829-.668 1.509-1.5 1.509-.833 0-1.5-.68-1.5-1.51"/><path fill="currentColor" d="M10.648 5.23c-.664 0-1.294.291-1.722.798-.21.249-.326.564-.326.89v1.031a.5.5 0 0 0 .5.5h.12a2.17 2.17 0 0 1 2.08-1.565c.993 0 1.819.666 2.08 1.566h.12a.5.5 0 0 0 .5-.5V6.917c0-.326-.115-.641-.326-.89a2.26 2.26 0 0 0-1.721-.799z"/></svg>