<svg xmlns="http://www.w3.org/2000/svg" width="20" height="20" fill="none" class="persona-icon" viewBox="0 0 20 20"><path fill="currentColor" d="M4.372 4.774c0-.988.795-1.799 1.788-1.799s1.789.811 1.789 1.8c0 .988-.796 1.799-1.789 1.799a1.794 1.794 0 0 1-1.788-1.8M12.052 4.774c0-.988.795-1.799 1.788-1.799.994 0 1.789.811 1.789 1.8 0 .988-.795 1.799-1.789 1.799a1.794 1.794 0 0 1-1.788-1.8M4.415 11.233A1.75 1.75 0 0 1 6.16 9.477a1.75 1.75 0 0 1 1.745 1.756 1.75 1.75 0 0 1-1.745 1.756 1.75 1.75 0 0 1-1.745-1.756M5.4 13.192h1.52c.784 0 1.529.345 2.036.944.251.297.39.674.39 1.063v.048c0 .982-.797 1.778-1.779 1.778H4.754a1.78 1.78 0 0 1-1.778-1.778V15.2c0-.39.138-.766.39-1.063a2.67 2.67 0 0 1 2.036-.944"/><path fill="currentColor" d="M3.398 7.705a2.62 2.62 0 0 1 2.003-.93H6.92c.772 0 1.505.34 2.003.93.245.29.38.656.38 1.035v1.201c0 .321-.261.582-.583.582h-.14a2.52 2.52 0 0 0-2.42-1.822 2.52 2.52 0 0 0-2.42 1.822H3.6a.58.58 0 0 1-.581-.582v-1.2c0-.38.134-.746.379-1.036M11.045 14.136a2.67 2.67 0 0 1 2.036-.944H14.6c.784 0 1.53.345 2.036.944.251.297.39.674.39 1.063v.048c0 .982-.797 1.778-1.778 1.778h-2.815a1.78 1.78 0 0 1-1.778-1.778V15.2c0-.39.138-.766.39-1.063M13.843 9.477a1.75 1.75 0 0 1 1.743 1.756 1.75 1.75 0 0 1-1.746 1.756 1.75 1.75 0 0 1-1.745-1.756 1.75 1.75 0 0 1 1.748-1.756"/><path fill="currentColor" d="M13.08 6.776h1.52c.771 0 1.504.34 2.003.93.245.289.379.655.379 1.035v1.2c0 .322-.26.582-.582.582h-.139a2.52 2.52 0 0 0-2.42-1.822 2.52 2.52 0 0 0-2.42 1.822h-.14a.58.58 0 0 1-.583-.582v-1.2c0-.38.135-.746.38-1.036a2.62 2.62 0 0 1 2.003-.93"/></svg>