<svg xmlns="http://www.w3.org/2000/svg" width="24" height="24" fill="none" class="persona-icon" viewBox="0 0 24 24"><path fill="currentColor" d="M4.8 5.264C4.8 4.02 5.8 3 7.05 3S9.3 4.02 9.3 5.264 8.299 7.527 7.05 7.527 4.8 6.508 4.8 5.265M14.7 5.264C14.7 4.02 15.701 3 16.95 3s2.25 1.02 2.25 2.264-1 2.263-2.25 2.263-2.25-1.02-2.25-2.263M4.8 13.59c0-1.244 1-2.264 2.25-2.264s2.25 1.02 2.25 2.263c0 1.244-1.001 2.264-2.25 2.264S4.8 14.833 4.8 13.59M6.071 16.17c-.995 0-1.94.438-2.582 1.198A2.07 2.07 0 0 0 3 18.702v.062A2.236 2.236 0 0 0 5.236 21h3.628a2.236 2.236 0 0 0 2.236-2.236v-.062c0-.489-.173-.961-.489-1.334A3.38 3.38 0 0 0 8.03 16.17z"/><path fill="currentColor" d="M3.489 9.042A3.38 3.38 0 0 1 6.07 7.844H8.03c.995 0 1.94.438 2.582 1.198.316.373.489.846.489 1.334v1.548a.75.75 0 0 1-.75.75h-.18a3.25 3.25 0 0 0-3.12-2.348c-1.49 0-2.728 1-3.12 2.348h-.18a.75.75 0 0 1-.75-.75v-1.548c0-.488.173-.961.489-1.334M13.389 17.368a3.38 3.38 0 0 1 2.582-1.198h1.958c.995 0 1.94.438 2.582 1.198.316.373.489.846.489 1.334v.062A2.236 2.236 0 0 1 18.764 21h-3.628a2.236 2.236 0 0 1-2.236-2.236v-.062c0-.489.173-.961.489-1.334M14.7 13.59c0-1.244 1.001-2.264 2.25-2.264s2.25 1.02 2.25 2.263c0 1.244-1 2.264-2.25 2.264s-2.25-1.02-2.25-2.264"/><path fill="currentColor" d="M15.971 7.844c-.995 0-1.94.438-2.582 1.198a2.07 2.07 0 0 0-.49 1.334v1.548c0 .415.337.75.75.75h.181a3.25 3.25 0 0 1 3.12-2.348c1.49 0 2.728 1 3.12 2.348h.18a.75.75 0 0 0 .75-.75v-1.548c0-.488-.173-.961-.489-1.334a3.38 3.38 0 0 0-2.582-1.198z"/></svg>