<svg xmlns="http://www.w3.org/2000/svg" width="32" height="32" fill="none" class="persona-icon" viewBox="0 0 32 32"><path fill="currentColor" d="M6.4 7.018C6.4 5.36 7.734 4 9.4 4s3 1.36 3 3.018c0 1.659-1.335 3.019-3 3.019s-3-1.36-3-3.019M19.6 7.018C19.6 5.36 20.935 4 22.6 4s3 1.36 3 3.018c0 1.659-1.335 3.019-3 3.019s-3-1.36-3-3.019M6.4 18.12c0-1.66 1.334-3.02 3-3.02s3 1.36 3 3.02c0 1.658-1.335 3.018-3 3.018s-3-1.36-3-3.019M8.095 21.56a4.51 4.51 0 0 0-3.443 1.597A2.76 2.76 0 0 0 4 24.937v.082A2.98 2.98 0 0 0 6.981 28h4.838a2.98 2.98 0 0 0 2.981-2.981v-.083c0-.651-.23-1.282-.652-1.78a4.51 4.51 0 0 0-3.443-1.596z"/><path fill="currentColor" d="M4.652 12.056a4.51 4.51 0 0 1 3.443-1.597h2.61a4.51 4.51 0 0 1 3.443 1.597c.421.497.652 1.128.652 1.78v2.063a1 1 0 0 1-1 1h-.24a4.335 4.335 0 0 0-4.16-3.131 4.335 4.335 0 0 0-4.16 3.131H5a1 1 0 0 1-1-1v-2.064c0-.651.23-1.282.652-1.78M17.852 23.157a4.51 4.51 0 0 1 3.443-1.597h2.61a4.51 4.51 0 0 1 3.444 1.597c.42.497.651 1.128.651 1.78v.082A2.98 2.98 0 0 1 25.02 28H20.18a2.98 2.98 0 0 1-2.98-2.981v-.083c0-.651.23-1.282.65-1.78M19.6 18.12c0-1.659 1.335-3.019 3-3.019s3 1.36 3 3.018c0 1.659-1.335 3.019-3 3.019s-3-1.36-3-3.019"/><path fill="currentColor" d="M21.295 10.459a4.51 4.51 0 0 0-3.444 1.597 2.76 2.76 0 0 0-.651 1.78v2.063a1 1 0 0 0 1 1h.24a4.335 4.335 0 0 1 4.16-3.131 4.335 4.335 0 0 1 4.16 3.131H27a1 1 0 0 0 1-1v-2.064c0-.651-.231-1.282-.652-1.78a4.51 4.51 0 0 0-3.443-1.596z"/></svg>