<svg xmlns="http://www.w3.org/2000/svg" width="20" height="20" fill="none" class="persona-icon" viewBox="0 0 20 20"><path fill="currentColor" fill-rule="evenodd" d="M5.049 16.815a1.873 1.873 0 0 1-1.869-1.877V5.062c0-1.037.837-1.877 1.869-1.877h9.835c1.032 0 1.868.84 1.868 1.877v4.115c0 .327.264.593.59.593.326 0 .59-.266.59-.593V5.062A3.055 3.055 0 0 0 14.884 2H5.049A3.055 3.055 0 0 0 2 5.062v9.876A3.055 3.055 0 0 0 5.049 18h3.688c.326 0 .59-.265.59-.593a.591.591 0 0 0-.59-.592H5.049Z" clip-rule="evenodd"/><path fill="currentColor" fill-rule="evenodd" d="M18.827 12.05c.23.231.23.606 0 .838l-4.887 4.908a.588.588 0 0 1-.849-.015l-2.737-2.944a.594.594 0 0 1 .03-.838.588.588 0 0 1 .833.029l2.32 2.496 4.456-4.474a.588.588 0 0 1 .834 0Z" clip-rule="evenodd"/></svg>