<svg xmlns="http://www.w3.org/2000/svg" width="32" height="32" fill="none" class="persona-icon"><path fill="currentColor" d="M7.848 27c-1.673 0-3.029-1.343-3.029-3V8c0-1.657 1.356-3 3.029-3h16.151c1.673 0 3.029 1.343 3.029 3v6.667c0 .552.452 1 1.01 1 .557 0 1.009-.448 1.009-1V8c0-2.761-2.26-5-5.048-5H7.848C5.06 3 2.8 5.239 2.8 8v16c0 2.761 2.26 5 5.047 5h6.057c.558 0 1.01-.448 1.01-1s-.452-1-1.01-1H7.848Z"/><path fill="currentColor" d="M30.504 19.293a.993.993 0 0 1 0 1.414l-8.026 7.951a1.015 1.015 0 0 1-1.452-.025l-4.495-4.77a.993.993 0 0 1 .05-1.414 1.016 1.016 0 0 1 1.426.05l3.782 4.013 7.288-7.22a1.016 1.016 0 0 1 1.427 0Z"/></svg>