<svg xmlns="http://www.w3.org/2000/svg" width="32" height="32" fill="none" class="persona-icon" viewBox="0 0 32 32"><path fill="currentColor" fill-rule="evenodd" d="M4 8.667A4.667 4.667 0 0 1 8.667 4h14.265a1 1 0 1 1 0 2H8.667A2.667 2.667 0 0 0 6 8.667v14.666A2.667 2.667 0 0 0 8.667 26h14.666A2.667 2.667 0 0 0 26 23.333v-6.11a1 1 0 1 1 2 0v6.11A4.667 4.667 0 0 1 23.333 28H8.667A4.667 4.667 0 0 1 4 23.333zm23.515-.707a1 1 0 1 1 1.414 1.414L16.707 21.596a1 1 0 0 1-1.414 0l-6.111-6.111a1 1 0 0 1 1.414-1.414L16 19.475z" clip-rule="evenodd"/></svg>