<svg xmlns="http://www.w3.org/2000/svg" width="24" height="24" fill="none" class="persona-icon" viewBox="0 0 24 24"><path fill="currentColor" d="M10.208 3a4.417 4.417 0 1 1 0 8.833 4.417 4.417 0 0 1 0-8.833M15.404 10.25a5.9 5.9 0 0 0 .721-2.833 5.9 5.9 0 0 0-1.156-3.514q.423-.121.884-.122a3.25 3.25 0 1 1-.45 6.47M16.895 18.172a1.54 1.54 0 0 1-1.545-1.538c0-.85.691-1.539 1.545-1.539.853 0 1.545.689 1.545 1.539s-.692 1.538-1.545 1.538"/><path fill="currentColor" fill-rule="evenodd" d="M16.563 11.269h.653c.762 0 1.422.529 1.588 1.272l.03.129c.005.027.038.097.153.16q.09.049.174.1c.112.069.189.062.215.054l.224-.07a1.63 1.63 0 0 1 1.895.736l.323.558a1.63 1.63 0 0 1-.31 2.018l-.2.183c-.02.019-.064.08-.063.208v.017q0 .105-.005.212c-.007.137.04.204.06.223l.21.191c.564.516.694 1.356.31 2.018l-.324.558a1.63 1.63 0 0 1-1.894.737l-.494-.155c-.01-.003-.062-.012-.148.034a.3.3 0 0 0-.096.076.1.1 0 0 0-.025.043l-.034.154a1.63 1.63 0 0 1-1.589 1.273h-.654a1.63 1.63 0 0 1-1.588-1.273l-.035-.155a.1.1 0 0 0-.024-.043.3.3 0 0 0-.096-.075c-.086-.046-.136-.037-.147-.034l-.494.155a1.63 1.63 0 0 1-1.895-.737l-.323-.558a1.63 1.63 0 0 1 .31-2.018l.21-.19c.02-.02.067-.087.06-.224a4 4 0 0 1-.005-.212v-.016c0-.128-.043-.19-.063-.208l-.2-.184a1.63 1.63 0 0 1-.311-2.018l.323-.558a1.63 1.63 0 0 1 1.895-.736l.224.07c.027.008.104.015.216-.054q.084-.05.172-.1c.115-.063.148-.133.154-.16l.03-.129a1.63 1.63 0 0 1 1.588-1.272m-.125 1.6-.029.128c-.121.544-.499.93-.896 1.149q-.057.03-.113.065c-.388.237-.913.371-1.445.204l-.224-.07a.13.13 0 0 0-.149.058l-.323.558a.13.13 0 0 0 .024.158l.2.183c.404.368.553.876.552 1.321v.01q0 .07.003.14c.023.47-.12 1.014-.547 1.404l-.21.19a.13.13 0 0 0-.024.159l.324.558c.03.051.091.075.148.058l.494-.155a1.7 1.7 0 0 1 1.308.145c.387.208.755.584.872 1.111l.035.156c.013.058.065.1.125.1h.653c.06 0 .111-.042.124-.1l.035-.155c.118-.528.486-.903.873-1.112a1.7 1.7 0 0 1 1.309-.145l.493.155a.13.13 0 0 0 .149-.058l.323-.558a.13.13 0 0 0-.024-.158l-.21-.191c-.427-.39-.57-.935-.547-1.404q.004-.069.004-.14v-.01c-.002-.445.148-.953.551-1.321l.2-.183a.13.13 0 0 0 .025-.158l-.324-.558a.13.13 0 0 0-.148-.058l-.224.07c-.533.167-1.057.033-1.445-.204l-.114-.066c-.397-.218-.775-.604-.897-1.148l-.029-.129a.13.13 0 0 0-.124-.1h-.653a.13.13 0 0 0-.125.1" clip-rule="evenodd"/><path fill="currentColor" d="m10.88 13.084-.216.372a3.13 3.13 0 0 0 .092 3.287 3.13 3.13 0 0 0-.093 3.288l.323.558q.128.219.285.411H6.542a3.5 3.5 0 0 1-3.5-3.5v-.22c0-.786.28-1.546.79-2.144a5.85 5.85 0 0 1 4.452-2.052z"/></svg>