<svg xmlns="http://www.w3.org/2000/svg" width="80" height="80" fill="none" class="persona-ilustration" viewBox="0 0 80 80"><g clip-path="url(#lg7mjiKHt3_a)"><g clip-path="url(#lg7mjiKHt3_b)"><rect width="66.667" height="66.667" x="6.666" y="6.668" fill="#D3EDFF" rx="33.333"/><rect width="49.849" height="95.894" x="15.074" y="2.725" fill="#353535" rx="3.256"/><rect width="45.204" height="91.13" x="17.541" y="4.837" fill="#F8F8F8" rx="3.256"/><path fill="#353535" d="M43.69 4.592a3.538 3.538 0 1 1-7.075 0z"/><circle cx="52.98" cy="73.647" r="4.624" fill="#A6B7FF"/><circle cx="40.498" cy="73.647" r="4.624" fill="#A6B7FF"/><circle cx="28.015" cy="73.647" r="4.624" fill="#A6B7FF"/><circle cx="52.98" cy="61.135" r="4.624" fill="#A6B7FF"/><circle cx="40.498" cy="61.135" r="4.624" fill="#A6B7FF"/><circle cx="28.015" cy="61.135" r="4.624" fill="#A6B7FF"/><circle cx="52.98" cy="48.624" r="4.624" fill="#A6B7FF"/><circle cx="40.498" cy="48.624" r="4.624" fill="#A6B7FF"/><circle cx="28.015" cy="48.624" r="4.624" fill="#A6B7FF"/></g><path fill="#353535" d="M15.074 5.979a3.256 3.256 0 0 1 3.257-3.257h43.336a3.256 3.256 0 0 1 3.257 3.257v29.777h-49.85z"/><path fill="#F8F8F8" d="M17.541 8.088a3.256 3.256 0 0 1 3.256-3.257H59.49a3.256 3.256 0 0 1 3.256 3.257v27.666H17.541z"/><path fill="#353535" d="M43.69 4.59a3.538 3.538 0 0 1-7.075 0z"/><path fill="#38BA58" fill-rule="evenodd" d="M49.82 29.754c.485.384.68.955.68 1.463v3.47c0 1.09-.895 2.038-2.056 1.965a19.174 19.174 0 0 1-17.94-17.94c-.073-1.16.875-2.056 1.966-2.056h3.235c.758 0 1.457.428 1.794 1.114.359.73.623 1.312.791 1.934.171.632.233 1.264.243 2.096.005.333-.077.656-.227.942l-.355.679a.24.24 0 0 0-.009.224 13.9 13.9 0 0 0 5.132 5.32.24.24 0 0 0 .233-.005l.59-.315c.289-.153.617-.238.955-.233 2.175.031 3.78.406 4.967 1.342" clip-rule="evenodd"/></g><defs><clipPath id="lg7mjiKHt3_a"><path fill="#fff" d="M0 0h80v80H0z"/></clipPath><clipPath id="lg7mjiKHt3_b"><rect width="66.667" height="66.667" x="6.666" y="6.668" fill="#fff" rx="33.333"/></clipPath></defs></svg>