<svg xmlns="http://www.w3.org/2000/svg" width="40" height="40" fill="none" class="persona-ilustration" viewBox="0 0 40 40"><g clip-path="url(#BN4uEDsoxf_a)"><g clip-path="url(#BN4uEDsoxf_b)"><rect width="33.333" height="33.333" x="3.333" y="3.334" fill="#D3EDFF" rx="16.667"/><rect width="24.925" height="47.947" x="7.537" y="1.362" fill="#353535" rx="1.628"/><rect width="22.602" height="45.565" x="8.771" y="2.418" fill="#F8F8F8" rx="1.628"/><path fill="#353535" d="M21.845 2.296a1.769 1.769 0 0 1-3.537 0z"/><circle cx="26.491" cy="36.824" r="2.312" fill="#A6B7FF"/><circle cx="20.25" cy="36.824" r="2.312" fill="#A6B7FF"/><circle cx="14.008" cy="36.824" r="2.312" fill="#A6B7FF"/><circle cx="26.491" cy="30.568" r="2.312" fill="#A6B7FF"/><circle cx="20.25" cy="30.568" r="2.312" fill="#A6B7FF"/><circle cx="14.008" cy="30.568" r="2.312" fill="#A6B7FF"/><circle cx="26.491" cy="24.312" r="2.312" fill="#A6B7FF"/><circle cx="20.25" cy="24.312" r="2.312" fill="#A6B7FF"/><circle cx="14.008" cy="24.312" r="2.312" fill="#A6B7FF"/></g><path fill="#353535" d="M7.537 2.99c0-.9.729-1.629 1.628-1.629h21.669c.899 0 1.628.73 1.628 1.628v14.889H7.537z"/><path fill="#F8F8F8" d="M8.77 4.044c0-.9.73-1.628 1.629-1.628h19.346c.899 0 1.628.729 1.628 1.628v13.833H8.77z"/><path fill="#353535" d="M21.845 2.295a1.769 1.769 0 0 1-3.537 0z"/><path fill="#38BA58" fill-rule="evenodd" d="M24.91 14.877c.243.192.34.477.34.732v1.734c0 .546-.448 1.02-1.028.983a9.59 9.59 0 0 1-8.97-8.97c-.036-.58.437-1.028.983-1.028h1.618c.378 0 .728.214.896.557.18.365.312.656.396.967.086.316.116.632.122 1.048a1 1 0 0 1-.114.47l-.178.34a.12.12 0 0 0-.004.112 6.95 6.95 0 0 0 2.566 2.66.12.12 0 0 0 .116-.002l.296-.157a1 1 0 0 1 .477-.117c1.088.016 1.89.203 2.484.671" clip-rule="evenodd"/></g><defs><clipPath id="BN4uEDsoxf_a"><path fill="#fff" d="M0 0h40v40H0z"/></clipPath><clipPath id="BN4uEDsoxf_b"><rect width="33.333" height="33.333" x="3.333" y="3.334" fill="#fff" rx="16.667"/></clipPath></defs></svg>