<svg xmlns="http://www.w3.org/2000/svg" width="16" height="16" fill="none" class="persona-icon" viewBox="0 0 16 16"><path fill="currentColor" d="M8.528 3.667v.962c.72.115 1.378.437 1.777.789a.527.527 0 1 1-.698.79c-.257-.227-.783-.49-1.37-.555-.564-.062-1.12.062-1.548.506-.115.147-.147.253-.155.317a.32.32 0 0 0 .039.194c.084.163.28.329.509.461.14.082.259.13.298.144l.002.001.138.05c.212.075.414.127.64.185q.176.045.38.101c.396.111.866.287 1.264.546.386.252.793.642.879 1.208l.003.023c.095.907-.637 1.567-1.28 1.81-.291.11-.587.173-.878.2v.934a.527.527 0 0 1-1.054 0v-.97a6.181 6.181 0 0 1-1.89-.63.527.527 0 0 1 .5-.928c.251.135.728.347 1.283.467.559.12 1.15.137 1.664-.058.415-.157.623-.476.608-.702-.024-.126-.134-.29-.41-.47a3.7 3.7 0 0 0-.974-.415q-.14-.038-.302-.08a10 10 0 0 1-.786-.228l-.139-.05a3 3 0 0 1-.474-.226c-.284-.164-.695-.456-.919-.891a1.37 1.37 0 0 1-.147-.806c.037-.3.172-.59.391-.863l.028-.032a2.7 2.7 0 0 1 1.567-.827v-.957a.527.527 0 0 1 1.054 0"/><path fill="currentColor" fill-rule="evenodd" d="M8 .973a7.027 7.027 0 1 1 0 14.054A7.027 7.027 0 0 1 8 .973M2.029 8a5.973 5.973 0 1 0 11.946 0A5.973 5.973 0 0 0 2.028 8" clip-rule="evenodd"/></svg>