<svg xmlns="http://www.w3.org/2000/svg" width="16" height="16" fill="none" class="persona-icon" viewBox="0 0 16 16"><path fill="currentColor" d="M8.528 3.667a.527.527 0 1 0-1.054 0v.957a2.703 2.703 0 0 0-1.595.86c-.219.272-.354.561-.391.862-.038.303.03.576.147.806.224.435.636.727.919.891.194.113.371.19.474.226l.139.05c.255.09.535.163.786.228.107.028.21.054.302.08.34.095.699.236.974.414.276.18.386.345.41.47.015.227-.193.546-.608.703-.515.195-1.105.178-1.664.058a5.125 5.125 0 0 1-1.283-.467.527.527 0 1 0-.5.927 6.181 6.181 0 0 0 1.89.63v.971a.527.527 0 0 0 1.054 0V11.4c.291-.027.587-.09.877-.2.644-.243 1.377-.903 1.281-1.81a.48.48 0 0 0-.003-.023c-.085-.566-.492-.956-.88-1.208-.397-.259-.867-.435-1.263-.546-.137-.038-.262-.07-.38-.101-.226-.058-.429-.11-.64-.186l-.138-.049H7.38a2.024 2.024 0 0 1-.298-.145c-.229-.132-.425-.298-.51-.461a.321.321 0 0 1-.038-.194c.008-.064.04-.17.155-.317.428-.444.984-.568 1.548-.506.587.065 1.113.328 1.37.554a.527.527 0 0 0 .698-.79c-.399-.351-1.057-.673-1.777-.788v-.962Z"/><path fill="currentColor" fill-rule="evenodd" d="M8 .973a7.027 7.027 0 1 0 0 14.054A7.027 7.027 0 0 0 8 .973ZM2.029 8a5.973 5.973 0 1 1 11.946 0A5.973 5.973 0 0 1 2.028 8Z" clip-rule="evenodd"/></svg>