<svg xmlns="http://www.w3.org/2000/svg" width="20" height="20" fill="none" class="persona-icon" viewBox="0 0 20 20"><path fill="currentColor" d="M10.6 5.067v1.095c.82.131 1.57.497 2.024.898a.6.6 0 1 1-.795.9c-.292-.259-.891-.558-1.56-.632-.641-.07-1.275.07-1.762.575-.13.169-.167.289-.176.362a.37.37 0 0 0 .044.22c.095.186.32.375.58.526.16.093.294.148.339.164h.002l.157.057c.241.086.471.145.728.211q.201.051.433.116c.451.126.987.326 1.44.621.44.287.903.731 1 1.375l.004.027c.108 1.032-.726 1.783-1.458 2.06-.33.126-.668.197-1 .228v1.063a.6.6 0 1 1-1.2 0v-1.105a7.033 7.033 0 0 1-2.152-.717.6.6 0 0 1 .57-1.056c.287.154.83.395 1.461.531.636.137 1.309.157 1.895-.065.472-.18.71-.543.692-.8-.028-.143-.152-.33-.467-.535-.313-.204-.722-.364-1.109-.472q-.159-.045-.344-.091a11 11 0 0 1-.895-.26l-.158-.057a3.5 3.5 0 0 1-.54-.257c-.322-.186-.79-.519-1.045-1.015a1.56 1.56 0 0 1-.168-.917c.042-.343.196-.671.445-.982l.032-.037A3.08 3.08 0 0 1 9.4 6.156v-1.09a.6.6 0 1 1 1.2 0"/><path fill="currentColor" fill-rule="evenodd" d="M10.001 2a8 8 0 1 1 0 16 8 8 0 0 1 0-16m-6.8 8a6.8 6.8 0 1 0 13.6 0 6.8 6.8 0 0 0-13.6 0" clip-rule="evenodd"/></svg>