<svg xmlns="http://www.w3.org/2000/svg" width="24" height="24" fill="none" class="persona-icon" viewBox="0 0 24 24"><path fill="currentColor" d="M12.75 5.833a.75.75 0 0 0-1.5 0v1.362A3.847 3.847 0 0 0 8.982 8.42c-.312.388-.504.8-.557 1.227-.054.432.042.82.21 1.147.319.62.904 1.035 1.306 1.269a4.33 4.33 0 0 0 .873.392c.364.128.762.232 1.119.324.153.04.298.078.43.115.483.135.994.335 1.385.59.394.256.55.49.584.668.022.322-.275.776-.864 1-.733.278-1.574.253-2.369.082a7.301 7.301 0 0 1-1.826-.665.75.75 0 0 0-.712 1.32 8.792 8.792 0 0 0 2.222.811c.15.033.307.062.467.086v1.382a.75.75 0 1 0 1.5 0v-1.33a4.764 4.764 0 0 0 1.25-.284c.915-.347 1.958-1.286 1.822-2.576a.771.771 0 0 0-.004-.034c-.122-.804-.7-1.36-1.251-1.718-.566-.368-1.236-.619-1.8-.777a26.25 26.25 0 0 0-.54-.144 10.45 10.45 0 0 1-1.107-.334l-.003-.001a2.898 2.898 0 0 1-.424-.205c-.325-.189-.605-.425-.724-.657a.458.458 0 0 1-.056-.276c.011-.091.058-.241.221-.451.609-.632 1.4-.809 2.203-.72.835.092 1.584.466 1.95.79a.75.75 0 0 0 .993-1.124c-.567-.502-1.504-.96-2.53-1.123v-1.37"/><path fill="currentColor" fill-rule="evenodd" d="M12 2C6.477 2 2 6.477 2 12s4.477 10 10 10 10-4.477 10-10S17.523 2 12 2M3.5 12a8.5 8.5 0 1 1 17 0 8.5 8.5 0 0 1-17 0" clip-rule="evenodd"/></svg>