<svg xmlns="http://www.w3.org/2000/svg" width="16" height="16" fill="none" class="persona-icon" viewBox="0 0 16 16"><path fill="currentColor" fill-rule="evenodd" d="M9.364 7.5H1.89a.5.5 0 1 0 0 1h4.537c.414.38.967.611 1.574.611S9.16 8.88 9.574 8.5h4.537a.5.5 0 1 0 0-1H9.364M4.334 3C3.596 3 3 3.597 3 4.333v1.604a.5.5 0 0 1-1 0V4.334A2.333 2.333 0 0 1 4.333 2h1.604a.5.5 0 0 1 0 1zM2.5 9.944a.5.5 0 0 1 .5.5v1.223c0 .577.366 1.068.88 1.254a2 2 0 0 1-.047-.443v-.064c0-.466.166-.917.469-1.271A3.42 3.42 0 0 1 6.9 9.944h2.2c1 0 1.949.438 2.598 1.198.302.355.468.806.468 1.272v.064q0 .228-.046.443c.513-.186.88-.677.88-1.254v-1.223a.5.5 0 1 1 1 0v1.223A2.333 2.333 0 0 1 11.666 14h-1.604a.5.5 0 1 1 0-1h.978c.08-.156.127-.333.127-.522v-.064a.96.96 0 0 0-.23-.622 2.42 2.42 0 0 0-1.837-.848H6.9c-.707 0-1.378.31-1.838.848a.96.96 0 0 0-.229.622v.064c0 .189.046.366.127.522h.977a.5.5 0 1 1 0 1H4.333A2.333 2.333 0 0 1 2 11.667v-1.223a.5.5 0 0 1 .5-.5m5.5-4.5c-.667 0-1.22.49-1.318 1.13a.5.5 0 1 1-.989-.151 2.334 2.334 0 0 1 4.613 0 .5.5 0 0 1-.988.15A1.334 1.334 0 0 0 8 5.445M9.562 2.5a.5.5 0 0 1 .5-.5h1.604A2.333 2.333 0 0 1 14 4.333v1.604a.5.5 0 0 1-1 0V4.334C13 3.597 12.403 3 11.666 3h-1.604a.5.5 0 0 1-.5-.5" clip-rule="evenodd"/></svg>