<svg xmlns="http://www.w3.org/2000/svg" width="20" height="20" fill="none" class="persona-icon" viewBox="0 0 20 20"><path fill="currentColor" fill-rule="evenodd" d="M11.588 9.375h5.523a.625.625 0 1 1 0 1.25H11.85a2.75 2.75 0 0 1-1.849.711 2.75 2.75 0 0 1-1.849-.711H2.89a.625.625 0 1 1 0-1.25h8.699M3.6 12.219c.345 0 .625.28.625.625v1.423c0 .625.38 1.161.923 1.39a2.5 2.5 0 0 1-.04-.446v-.075c0-.552.198-1.087.556-1.507a4.02 4.02 0 0 1 3.056-1.41h2.56c1.176 0 2.292.515 3.056 1.41.359.42.556.955.556 1.507v.075q0 .228-.04.446c.543-.229.923-.765.923-1.39v-1.423a.625.625 0 1 1 1.25 0v1.423a2.76 2.76 0 0 1-2.758 2.758H12.4a.625.625 0 1 1 0-1.25h1.11c.085-.17.132-.361.132-.564v-.075c0-.255-.091-.502-.257-.696a2.77 2.77 0 0 0-2.105-.97H8.72c-.81 0-1.58.354-2.105.97-.166.194-.257.441-.257.696v.075c0 .203.047.394.131.564H7.6a.625.625 0 0 1 0 1.25H5.733a2.76 2.76 0 0 1-2.758-2.758v-1.423c0-.345.28-.625.625-.625m2.133-7.994c-.833 0-1.508.675-1.508 1.508V7.6a.625.625 0 0 1-1.25 0V5.733a2.76 2.76 0 0 1 2.758-2.758H7.6a.625.625 0 1 1 0 1.25zM10 7.07c-.754 0-1.38.554-1.49 1.277a.625.625 0 0 1-1.236-.19 2.759 2.759 0 0 1 5.453 0 .625.625 0 0 1-1.236.19A1.51 1.51 0 0 0 10 7.07m1.775-3.47c0-.345.28-.625.625-.625h1.867a2.76 2.76 0 0 1 2.758 2.758V7.6a.625.625 0 0 1-1.25 0V5.733c0-.833-.675-1.508-1.508-1.508H12.4a.625.625 0 0 1-.625-.625" clip-rule="evenodd"/></svg>