<svg xmlns="http://www.w3.org/2000/svg" width="20" height="20" fill="none" class="persona-icon" viewBox="0 0 20 20"><path fill="currentColor" d="M3.185 5.062c0-1.037.84-1.877 1.877-1.877h2.16a.593.593 0 1 0 0-1.185h-2.16A3.06 3.06 0 0 0 2 5.062v2.16a.593.593 0 1 0 1.185 0zM12.778 2a.593.593 0 1 0 0 1.185h2.16c1.037 0 1.877.84 1.877 1.877v2.16a.593.593 0 1 0 1.185 0v-2.16C18 3.37 16.63 2 14.938 2z"/><path fill="currentColor" fill-rule="evenodd" d="M2 14.938v-1.105h-.395a.6.6 0 0 1-.605-.6c0-.331.27-.6.605-.6h16.79c.334 0 .605.269.605.6 0 .332-.27.6-.605.6H18v1.105C18 16.63 16.63 18 14.938 18h-2.16a.593.593 0 1 1 0-1.185h1.407c.137-.238.215-.514.215-.808v-.088c0-.33-.118-.65-.332-.902a3.38 3.38 0 0 0-2.568-1.184h-3c-.988 0-1.926.433-2.568 1.185-.214.25-.332.57-.332.9v.089c0 .294.078.57.214.808h1.408a.593.593 0 1 1 0 1.185h-2.16A3.06 3.06 0 0 1 2 14.938m2.493 1.789a2.8 2.8 0 0 1-.093-.72v-.088c0-.616.22-1.212.62-1.68a5 5 0 0 1 .391-.406H3.185v1.105c0 .838.55 1.548 1.308 1.789m10.096-2.894q.207.19.391.405c.4.469.62 1.065.62 1.68v.089q0 .373-.093.72a1.88 1.88 0 0 0 1.308-1.789v-1.105zM10 5.334a3 3 0 1 0 0 6 3 3 0 0 0 0-6m-1.839 3a1.839 1.839 0 1 1 3.678 0 1.839 1.839 0 0 1-3.678 0" clip-rule="evenodd"/></svg>