<svg xmlns="http://www.w3.org/2000/svg" width="24" height="24" fill="none" class="persona-icon" viewBox="0 0 24 24"><path fill="currentColor" fill-rule="evenodd" d="M6.5 4.5a2 2 0 0 0-2 2v2.406a.75.75 0 1 1-1.5 0V6.5A3.5 3.5 0 0 1 6.5 3h2.406a.75.75 0 0 1 0 1.5zm7.844-.75a.75.75 0 0 1 .75-.75H17.5A3.5 3.5 0 0 1 21 6.5v2.406a.75.75 0 1 1-1.5 0V6.5a2 2 0 0 0-2-2h-2.406a.75.75 0 0 1-.75-.75M12 8.167a2 2 0 0 0-1.977 1.694.75.75 0 0 1-1.483-.227 3.5 3.5 0 0 1 6.92 0 .75.75 0 1 1-1.483.227A2 2 0 0 0 12 8.167m2.047 3.083h7.12a.75.75 0 0 1 0 1.5H14.36a3.5 3.5 0 0 1-2.361.917 3.5 3.5 0 0 1-2.362-.917H2.833a.75.75 0 1 1 0-1.5h11.214m-7.594 5.464a5.12 5.12 0 0 1 3.897-1.797h3.3c1.499 0 2.923.656 3.897 1.797.454.532.703 1.208.703 1.907v.096q0 .343-.07.664A2 2 0 0 0 19.5 17.5v-1.833a.75.75 0 1 1 1.5 0V17.5a3.5 3.5 0 0 1-3.5 3.5h-2.406a.75.75 0 0 1 0-1.5h1.466c.121-.234.19-.5.19-.783v-.096c0-.342-.122-.673-.344-.933a3.62 3.62 0 0 0-2.756-1.271h-3.3c-1.06 0-2.067.464-2.756 1.27-.222.26-.344.592-.344.934v.096c0 .283.069.549.19.783h1.466a.75.75 0 0 1 0 1.5H6.5A3.5 3.5 0 0 1 3 17.5v-1.833a.75.75 0 0 1 1.5 0V17.5c0 .865.55 1.602 1.319 1.881a3.2 3.2 0 0 1-.07-.664v-.096c0-.7.25-1.375.704-1.907" clip-rule="evenodd"/></svg>