<svg xmlns="http://www.w3.org/2000/svg" width="24" height="24" fill="none" class="persona-icon" viewBox="0 0 24 24"><path fill="currentColor" fill-rule="evenodd" d="M14.047 11.25H2.834a.75.75 0 0 0 0 1.5h6.805a3.5 3.5 0 0 0 2.361.917c.91 0 1.74-.348 2.362-.917h6.805a.75.75 0 1 0 0-1.5h-7.12M6.5 4.5a2 2 0 0 0-2 2v2.406a.75.75 0 1 1-1.5 0V6.5A3.5 3.5 0 0 1 6.5 3h2.406a.75.75 0 1 1 0 1.5zm-.046 12.214a5.12 5.12 0 0 1 3.897-1.797h3.299c1.5 0 2.923.656 3.897 1.797.454.532.703 1.208.703 1.907v.096q0 .343-.069.664a2 2 0 0 0 1.32-1.881v-1.833a.75.75 0 0 1 1.5 0V17.5a3.5 3.5 0 0 1-3.5 3.5h-2.407a.75.75 0 0 1 0-1.5h1.466c.122-.234.19-.5.19-.783v-.096c0-.342-.122-.673-.344-.933a3.62 3.62 0 0 0-2.756-1.271h-3.3c-1.06 0-2.067.464-2.756 1.27-.222.26-.344.592-.344.934v.096c0 .283.069.549.19.783h1.466a.75.75 0 1 1 0 1.5H6.5A3.5 3.5 0 0 1 3 17.5v-1.833a.75.75 0 0 1 1.5 0V17.5a2 2 0 0 0 1.32 1.881 3.2 3.2 0 0 1-.07-.664v-.096c0-.7.25-1.375.704-1.907M12 8.167a2 2 0 0 0-1.977 1.694.75.75 0 1 1-1.482-.227 3.5 3.5 0 0 1 6.919 0 .75.75 0 1 1-1.483.227A2 2 0 0 0 12 8.167m2.344-4.417a.75.75 0 0 1 .75-.75H17.5A3.5 3.5 0 0 1 21 6.5v2.406a.75.75 0 1 1-1.5 0V6.5a2 2 0 0 0-2-2h-2.406a.75.75 0 0 1-.75-.75" clip-rule="evenodd"/></svg>