<svg xmlns="http://www.w3.org/2000/svg" width="32" height="32" fill="none" class="persona-icon" viewBox="0 0 32 32"><path fill="currentColor" fill-rule="evenodd" d="M8.667 6A2.667 2.667 0 0 0 6 8.667v3.208a1 1 0 1 1-2 0V8.667A4.667 4.667 0 0 1 8.667 4h3.208a1 1 0 1 1 0 2zm10.458-1a1 1 0 0 1 1-1h3.208A4.667 4.667 0 0 1 28 8.667v3.208a1 1 0 1 1-2 0V8.667A2.667 2.667 0 0 0 23.333 6h-3.208a1 1 0 0 1-1-1M16 10.889c-1.333 0-2.44.98-2.636 2.259a1 1 0 0 1-1.977-.303 4.668 4.668 0 0 1 9.226 0 1 1 0 0 1-1.977.303A2.67 2.67 0 0 0 16 10.889M18.73 15h9.492a1 1 0 1 1 0 2H19.15A4.65 4.65 0 0 1 16 18.222 4.65 4.65 0 0 1 12.851 17H3.778a1 1 0 0 1 0-2h14.951M8.603 22.285a6.83 6.83 0 0 1 5.197-2.396H18.2c1.999 0 3.898.876 5.196 2.396.605.709.937 1.61.937 2.543v.128q0 .457-.092.885a2.67 2.67 0 0 0 1.76-2.508V20.89a1 1 0 1 1 2 0v2.444A4.667 4.667 0 0 1 23.332 28h-3.208a1 1 0 1 1 0-2h1.955c.162-.312.253-.666.253-1.044v-.128c0-.456-.162-.898-.458-1.244a4.83 4.83 0 0 0-3.675-1.695h-4.4c-1.413 0-2.756.62-3.674 1.695a1.92 1.92 0 0 0-.46 1.244v.128c0 .378.092.732.255 1.044h1.954a1 1 0 1 1 0 2H8.667A4.667 4.667 0 0 1 4 23.333V20.89a1 1 0 1 1 2 0v2.444c0 1.154.733 2.137 1.759 2.508a4.3 4.3 0 0 1-.092-.885v-.128c0-.933.332-1.834.937-2.543" clip-rule="evenodd"/></svg>