<svg xmlns="http://www.w3.org/2000/svg" width="24" height="24" fill="none" class="persona-icon" viewBox="0 0 24 24"><path fill="currentColor" d="M12.165 6.876 3.79 17.718a7.07 7.07 0 0 1-1.76-4.065 7.1 7.1 0 0 1 1.446-4.994 6.82 6.82 0 0 1 4.422-2.591 6.72 6.72 0 0 1 4.267.808M13.866 7.176 4.922 18.74a6.669 6.669 0 0 0 4.567 1.227 6.8 6.8 0 0 0 2.651-.838 7 7 0 0 0 2.129-1.841L22 7.278a7.8 7.8 0 0 0-2.058-.961 7.6 7.6 0 0 0-2.971-.273c-1.023.11-1.978.372-2.784.88-.134.084-.23.159-.321.252"/></svg>